<?xml version="1.0" encoding="utf-8" standalone="no"?>
<!DOCTYPE svg PUBLIC "-//W3C//DTD SVG 1.1//EN"
  "http://www.w3.org/Graphics/SVG/1.1/DTD/svg11.dtd">
<svg xmlns:xlink="http://www.w3.org/1999/xlink" width="720pt" height="864pt" viewBox="0 0 720 864" xmlns="http://www.w3.org/2000/svg" version="1.1">
 <metadata>
  <rdf:RDF xmlns:dc="http://purl.org/dc/elements/1.1/" xmlns:cc="http://creativecommons.org/ns#" xmlns:rdf="http://www.w3.org/1999/02/22-rdf-syntax-ns#">
   <cc:Work>
    <dc:type rdf:resource="http://purl.org/dc/dcmitype/StillImage"/>
    <dc:date>2025-06-16T15:23:00.229971</dc:date>
    <dc:format>image/svg+xml</dc:format>
    <dc:creator>
     <cc:Agent>
      <dc:title>Matplotlib v3.10.1, https://matplotlib.org/</dc:title>
     </cc:Agent>
    </dc:creator>
   </cc:Work>
  </rdf:RDF>
 </metadata>
 <defs>
  <style type="text/css">*{stroke-linejoin: round; stroke-linecap: butt}</style>
 </defs>
 <g id="figure_1">
  <g id="patch_1">
   <path d="M 0 864 
L 720 864 
L 720 0 
L 0 0 
z
" style="fill: #ffffff"/>
  </g>
  <g id="axes_1">
   <g id="patch_2">
    <path d="M 139.845512 768.96 
L 598.154488 768.96 
L 598.154488 103.68 
L 139.845512 103.68 
z
" style="fill: #ffffff"/>
   </g>
   <g id="PatchCollection_1">
    <path d="M 374.666365 240.318849 
L 374.633092 243.577414 
L 377.756536 243.110206 
L 383.018431 242.865115 
L 383.39396 242.393416 
L 383.994474 242.403549 
L 385.9827 242.437097 
L 385.910284 243.918466 
L 387.905193 244.057577 
L 391.034295 246.47336 
L 391.708504 246.12919 
L 395.220199 248.684579 
L 401.632968 251.246911 
L 402.473818 252.015377 
L 403.920456 251.984303 
L 407.580477 254.529175 
L 408.051437 255.949408 
L 409.347083 255.943503 
L 412.669733 258.082121 
L 415.30312 257.377231 
L 416.909146 256.127965 
L 417.970926 253.866332 
L 418.660759 253.26234 
L 416.993971 251.280241 
L 415.258929 249.87236 
L 413.7671 250.134042 
L 410.210616 248.964227 
L 407.989498 247.437202 
L 407.842536 246.315579 
L 406.709166 246.05673 
L 404.948355 243.3785 
L 404.265271 241.77961 
L 404.443427 240.563898 
L 406.017821 240.520337 
L 409.535423 235.633736 
L 409.601656 233.234328 
L 414.760718 229.686932 
L 414.742711 228.872711 
L 416.882385 227.60284 
L 418.264549 227.29323 
L 418.969309 227.580868 
L 420.611216 226.096351 
L 419.164536 219.625892 
L 416.225266 206.479647 
L 417.52631 205.525643 
L 428.657951 195.449902 
L 434.354648 190.306358 
L 450.114428 176.162349 
L 450.691107 176.917955 
L 451.374663 180.270636 
L 450.21727 181.424974 
L 452.279409 183.673896 
L 455.61003 185.09828 
L 457.960679 183.816947 
L 458.383579 183.905626 
L 458.695341 185.42237 
L 460.298406 186.319673 
L 462.278514 189.07304 
L 462.920938 190.846493 
L 465.4254 191.77714 
L 466.399176 191.846877 
L 467.058884 192.409467 
L 470.494847 193.619269 
L 471.780551 192.566046 
L 471.494616 194.445668 
L 471.888277 194.803591 
L 474.030992 197.032395 
L 472.088452 197.458021 
L 471.44996 197.606363 
L 469.888298 198.460105 
L 468.506272 198.318234 
L 468.307056 198.135574 
L 467.416373 198.526751 
L 467.149672 201.05116 
L 466.628308 208.358838 
L 466.25872 213.192524 
L 481.688309 213.847109 
L 483.372537 214.736016 
L 482.581738 216.629183 
L 485.734232 218.521376 
L 482.867888 221.528876 
L 480.953207 223.537847 
L 472.823047 238.167677 
L 471.412058 239.64057 
L 468.698908 242.099371 
L 467.932856 242.263908 
L 464.929792 242.482242 
L 463.224295 241.93949 
L 461.463503 241.596033 
L 461.201147 241.544858 
L 459.375877 244.287881 
L 459.448309 246.479239 
L 460.259258 273.841359 
L 460.311492 275.603757 
L 460.563951 284.187468 
L 515.330876 299.336092 
L 508.114771 313.688474 
L 504.223079 320.444697 
L 502.942505 322.421865 
L 498.932968 328.612471 
L 497.851259 335.073716 
L 498.113658 340.650944 
L 498.167953 341.804972 
L 489.2327 348.458356 
L 489.786492 364.108809 
L 489.912444 367.668261 
L 490.439281 382.556959 
L 490.080569 390.693916 
L 489.525219 403.291364 
L 489.497086 410.524508 
L 492.509835 450.232483 
L 492.373888 477.288455 
L 491.64514 478.531493 
L 488.541513 483.825401 
L 476.398867 506.622985 
L 467.746744 527.164507 
L 460.23313 523.09408 
L 456.604116 517.914336 
L 455.405072 516.191299 
L 454.195964 511.78487 
L 450.1957 506.151023 
L 456.032415 494.511538 
L 455.071804 492.022238 
L 451.102419 488.583818 
L 450.563398 487.620777 
L 449.016415 484.856865 
L 448.960537 484.069709 
L 448.23458 474.833989 
L 442.558956 470.330259 
L 440.709255 469.806426 
L 438.523921 468.342979 
L 436.967088 463.330477 
L 431.044084 463.448868 
L 427.194288 455.095717 
L 422.253066 456.368126 
L 414.524976 458.358179 
L 414.340537 457.529734 
L 381.893576 512.823727 
L 312.012415 631.910644 
L 300.958652 641.325212 
L 269.82435 667.842518 
L 186.606205 738.72 
L 160.677739 719.200055 
L 161.890917 717.403115 
L 163.360385 714.762207 
L 164.656691 713.134718 
L 165.725575 712.182262 
L 168.427041 709.547705 
L 170.456449 706.909665 
L 171.810157 705.000706 
L 172.936175 703.823122 
L 174.005305 702.814312 
L 176.140982 701.303781 
L 177.269527 699.619062 
L 178.398066 697.934307 
L 178.500286 697.531589 
L 178.798032 696.35856 
L 178.91911 694.555963 
L 178.930743 692.245653 
L 178.992431 691.118962 
L 179.503549 689.71279 
L 180.182053 688.420228 
L 180.860586 687.127633 
L 181.763385 685.779807 
L 182.38589 684.486934 
L 182.503286 683.416894 
L 182.564932 682.29017 
L 182.234068 681.274187 
L 181.512892 679.91809 
L 180.956144 678.783266 
L 180.681423 678.223299 
L 180.60039 677.631213 
L 180.519388 677.039126 
L 180.525049 675.912127 
L 180.585292 675.067171 
L 180.813536 674.223081 
L 180.873502 673.434498 
L 180.598909 672.362419 
L 180.209767 671.796945 
L 179.596331 671.286636 
L 179.458332 670.891479 
L 179.320302 670.496322 
L 179.268568 669.650812 
L 179.551667 669.032393 
L 180.34274 667.627677 
L 181.18781 666.617682 
L 181.471456 665.886551 
L 181.755441 665.09911 
L 181.70566 663.859122 
L 181.710769 662.844836 
L 182.050707 662.057674 
L 182.671199 661.159216 
L 183.459994 660.205284 
L 184.530711 658.858354 
L 185.319776 657.848046 
L 185.828557 656.892693 
L 185.890471 655.709632 
L 185.783565 654.694763 
L 185.061009 653.620439 
L 184.335302 653.165921 
L 183.441056 652.823251 
L 182.829898 651.862192 
L 182.387316 650.789253 
L 182.057261 649.604219 
L 181.395779 647.515855 
L 181.010906 646.105151 
L 180.683119 644.469302 
L 178.958877 642.15014 
L 178.466506 639.837246 
L 178.475569 638.034074 
L 178.650081 636.738892 
L 178.712005 635.555835 
L 178.493968 634.371358 
L 178.44334 633.300459 
L 178.671571 632.456341 
L 179.124326 631.500717 
L 180.137335 630.491561 
L 181.430852 629.371144 
L 182.165303 628.078803 
L 182.619455 626.841413 
L 183.189275 624.872029 
L 183.922588 623.805109 
L 184.766153 623.076816 
L 185.776026 622.68752 
L 186.617056 622.46638 
L 187.850073 622.247243 
L 188.746536 622.139087 
L 189.196188 621.803263 
L 189.64724 621.185704 
L 189.70533 620.763384 
L 189.763452 620.34103 
L 189.543415 619.551003 
L 189.155669 618.703773 
L 188.991925 617.857683 
L 189.331283 617.1832 
L 189.89543 616.340804 
L 190.794415 615.725491 
L 192.142221 614.943434 
L 193.099168 613.93395 
L 193.383355 613.090136 
L 193.778414 612.4723 
L 194.228329 612.080099 
L 194.676538 612.026033 
L 195.292488 612.029137 
L 195.852695 611.975623 
L 196.35917 611.471049 
L 196.419355 610.626097 
L 196.086494 610.00454 
L 195.97818 609.271442 
L 196.372654 608.766251 
L 196.991947 608.093176 
L 197.388945 607.080895 
L 197.505142 606.23622 
L 197.507972 605.672725 
L 197.064241 604.825193 
L 196.786514 604.372998 
L 196.566202 603.639315 
L 196.682673 602.738267 
L 197.022011 602.063782 
L 197.193064 601.444775 
L 197.083898 600.880728 
L 196.805899 600.484872 
L 196.470791 600.314099 
L 195.913089 599.860491 
L 195.692505 599.183147 
L 196.02959 598.959445 
L 196.365518 598.961166 
L 196.868332 599.189106 
L 197.092295 599.190242 
L 197.31769 598.909616 
L 197.31994 598.458833 
L 197.043069 597.837554 
L 196.429111 597.440009 
L 195.366653 597.15287 
L 195.199526 596.982959 
L 195.032399 596.813078 
L 195.258889 596.307059 
L 195.651955 596.083635 
L 196.435836 596.087596 
L 197.220843 595.866167 
L 197.839029 595.418484 
L 198.088949 594.97992 
L 198.168453 594.328205 
L 198.093349 594.097643 
L 197.865418 593.943044 
L 197.408596 593.825644 
L 197.104046 593.747389 
L 196.838943 593.400813 
L 196.841418 592.902138 
L 197.110167 592.519889 
L 197.530398 592.330205 
L 197.911943 592.255389 
L 198.332381 592.027356 
L 198.601679 591.530033 
L 198.566396 590.954423 
L 198.149603 590.453631 
L 197.540335 590.335469 
L 196.01547 590.36611 
L 194.758973 590.091227 
L 194.074226 589.819258 
L 193.999533 589.511969 
L 194.421485 588.977064 
L 194.956644 588.672865 
L 195.644247 588.369464 
L 196.064856 588.103086 
L 196.14302 587.719865 
L 195.954915 587.220218 
L 195.688853 587.065411 
L 195.156963 586.71748 
L 194.892449 586.255798 
L 194.856996 585.718569 
L 195.164397 585.221455 
L 195.586173 584.724865 
L 196.006399 584.535214 
L 196.502487 584.422639 
L 197.453465 584.811032 
L 198.213692 585.236865 
L 198.708644 585.354437 
L 199.089807 585.356379 
L 199.547758 585.243594 
L 199.891951 585.01518 
L 199.895182 584.363051 
L 199.477808 583.977334 
L 199.02271 583.514683 
L 198.872912 582.976896 
L 198.913901 582.401668 
L 199.221708 581.827825 
L 199.567411 581.292505 
L 199.569303 580.908902 
L 199.418749 580.524538 
L 199.191029 580.331593 
L 198.963859 580.02354 
L 198.851032 579.716077 
L 198.854263 579.063948 
L 199.027887 578.642867 
L 199.054018 578.579491 
L 199.056029 578.574612 
L 199.201511 578.221784 
L 200.237306 576.884381 
L 201.00381 576.0443 
L 201.576884 575.77865 
L 201.88218 575.70348 
L 202.224477 575.858635 
L 202.490128 576.090166 
L 202.946938 576.207527 
L 203.328678 576.094392 
L 203.597382 575.712108 
L 203.98636 574.141296 
L 204.217716 573.605384 
L 204.487001 573.108058 
L 204.90835 572.68819 
L 205.366873 572.46036 
L 205.940146 572.156358 
L 206.094507 571.77352 
L 205.982432 571.312605 
L 205.678854 571.042554 
L 205.336181 570.964096 
L 205.106541 571.154753 
L 204.876524 571.422137 
L 204.609915 571.382409 
L 204.268581 571.035455 
L 204.271256 570.498403 
L 204.501272 570.23105 
L 204.88318 570.079503 
L 205.303221 569.928193 
L 205.876459 569.624192 
L 206.069332 569.164833 
L 206.224243 568.66692 
L 206.607108 568.323602 
L 207.065251 568.172466 
L 207.36982 568.250715 
L 207.674154 568.367313 
L 208.207575 568.408356 
L 208.552131 568.103211 
L 208.670101 567.374944 
L 208.787283 566.800129 
L 209.018082 566.37929 
L 209.249227 565.881756 
L 209.327757 565.421843 
L 209.369488 564.693195 
L 209.487629 563.926548 
L 209.795211 563.391047 
L 210.253899 563.124803 
L 210.712822 562.820244 
L 211.019619 562.438164 
L 211.288517 562.01753 
L 211.368348 561.289088 
L 211.217996 560.866348 
L 210.838355 560.557541 
L 210.230419 560.170898 
L 209.58606 559.438794 
L 209.702896 558.940674 
L 210.199885 558.636288 
L 210.428389 558.675777 
L 210.96067 558.946998 
L 211.34144 559.025625 
L 211.722585 559.02756 
L 212.066555 558.837454 
L 212.296595 558.5701 
L 212.299059 558.071426 
L 211.960395 557.187392 
L 211.925102 556.611818 
L 212.118139 556.114078 
L 212.501575 555.655684 
L 212.998012 555.466369 
L 213.531422 555.507409 
L 214.215592 555.894461 
L 214.93865 556.128233 
L 215.547134 556.39983 
L 216.080577 556.440868 
L 216.843037 556.406316 
L 217.301577 556.178446 
L 218.104425 555.683805 
L 218.983165 555.266235 
L 219.632039 555.077674 
L 220.240932 555.27254 
L 220.887005 555.65938 
L 221.343054 555.930181 
L 221.990801 555.971798 
L 222.60065 555.97486 
L 223.173117 555.824264 
L 223.631653 555.59639 
L 223.90054 555.175784 
L 224.056762 554.409307 
L 224.061124 553.527033 
L 224.215641 553.105843 
L 224.483775 552.838658 
L 224.788886 552.801793 
L 225.131348 552.918618 
L 225.702687 552.998199 
L 226.312704 552.96288 
L 226.809918 552.620101 
L 227.310503 551.58685 
L 227.391438 550.628228 
L 227.281802 549.668643 
L 227.132771 548.977381 
L 227.135222 548.478708 
L 227.328041 548.019343 
L 227.787319 547.638012 
L 228.1307 547.563003 
L 228.549972 547.565099 
L 229.158283 547.875029 
L 229.536597 548.452351 
L 229.723595 549.182134 
L 229.98812 549.643799 
L 230.252849 550.067086 
L 230.4806 550.260052 
L 230.784962 550.376637 
L 231.013633 550.377801 
L 231.357795 550.149338 
L 231.550642 549.689972 
L 231.630651 548.92315 
L 231.86347 548.080357 
L 232.3999 547.507599 
L 233.241062 546.974733 
L 234.119202 546.672215 
L 234.768637 546.368565 
L 235.151303 546.063578 
L 235.76284 545.721376 
L 236.564369 545.495204 
L 237.174006 545.5366 
L 238.011939 545.655853 
L 238.965765 545.468813 
L 239.693128 544.82028 
L 240.230868 543.978992 
L 240.386897 543.250924 
L 240.467268 542.407342 
L 240.468556 542.138816 
L 240.469879 541.870289 
L 240.395917 541.409587 
L 240.360428 540.872362 
L 240.477033 540.412585 
L 240.55496 540.067741 
L 240.443237 539.530108 
L 240.216234 539.183724 
L 239.722259 538.874386 
L 239.378853 538.949402 
L 238.921486 538.947109 
L 238.617909 538.677075 
L 238.467309 538.29269 
L 238.431278 537.870539 
L 238.777297 537.258472 
L 239.541834 536.801946 
L 240.286861 536.441232 
L 241.031854 536.080487 
L 242.866022 535.130588 
L 243.325452 534.710866 
L 243.709223 534.175727 
L 243.826196 533.639224 
L 243.791077 533.025272 
L 243.450487 532.524891 
L 243.262531 531.986882 
L 243.3029 531.526761 
L 243.533834 531.067564 
L 243.57515 530.41561 
L 243.424751 529.99288 
L 243.235678 529.685049 
L 243.086058 529.108865 
L 243.04962 528.763441 
L 243.165273 528.495496 
L 243.433932 528.113198 
L 243.777705 527.961455 
L 243.96847 527.924063 
L 244.23469 528.04047 
L 244.576024 528.387399 
L 244.803602 528.618706 
L 245.070196 528.658386 
L 245.413797 528.54502 
L 245.643984 528.239274 
L 245.760922 527.70277 
L 246.02961 527.320504 
L 246.411685 527.130584 
L 246.793385 527.01739 
L 247.327347 526.943327 
L 247.595258 526.714478 
L 247.597491 526.254154 
L 247.601618 525.410229 
L 247.641813 524.988423 
L 247.833493 524.759231 
L 248.062932 524.606906 
L 248.329724 524.608236 
L 248.595572 524.801366 
L 248.785019 525.032469 
L 249.012766 525.225395 
L 249.24126 525.2649 
L 249.737086 525.19063 
L 250.311612 524.618065 
L 250.925723 523.738764 
L 250.965511 523.393716 
L 250.852499 523.124643 
L 250.510791 522.854412 
L 250.169256 522.545801 
L 250.132643 522.238725 
L 250.324321 522.009533 
L 250.70659 521.781231 
L 251.165263 521.51499 
L 251.320156 521.017037 
L 251.130509 520.824282 
L 250.863919 520.784606 
L 250.406161 520.85908 
L 250.063712 520.7423 
L 249.874841 520.396095 
L 249.839717 519.782146 
L 249.994613 519.284192 
L 250.301363 518.902095 
L 250.645127 518.750347 
L 250.988352 518.713705 
L 251.367783 519.060833 
L 251.557431 519.253588 
L 251.70949 519.331065 
L 251.976111 519.370741 
L 252.281374 519.295516 
L 252.472709 519.143016 
L 252.474397 518.797765 
L 252.132862 518.489187 
L 251.67774 518.026612 
L 251.489242 517.60368 
L 251.529231 517.220252 
L 251.682978 516.952477 
L 251.989183 516.685486 
L 252.067304 516.302261 
L 252.107836 515.803729 
L 251.957264 515.419381 
L 251.691219 515.264631 
L 251.158011 515.185246 
L 250.892134 514.992117 
L 250.550805 514.645192 
L 250.514564 514.26139 
L 250.687105 514.051253 
L 250.859644 513.841116 
L 251.241539 513.689541 
L 252.081492 513.386828 
L 252.768102 513.275132 
L 253.41638 513.201609 
L 254.139976 513.320294 
L 255.204703 513.824244 
L 255.965084 514.211624 
L 256.459247 514.4826 
L 256.877925 514.59975 
L 257.296974 514.640204 
L 257.716593 514.565555 
L 257.984529 514.336702 
L 258.253744 513.839326 
L 258.449528 512.766176 
L 258.758527 511.923718 
L 259.332258 511.504563 
L 259.752246 511.353217 
L 260.209794 511.317116 
L 260.51357 511.548758 
L 260.779246 511.780263 
L 261.007195 511.934837 
L 261.102357 511.954471 
L 261.197551 511.974136 
L 261.426982 511.821806 
L 261.658465 511.247529 
L 261.812948 510.826299 
L 262.234046 510.444774 
L 262.654236 510.255048 
L 263.149881 510.219114 
L 263.491955 510.412612 
L 263.757464 510.682461 
L 263.755581 511.066059 
L 263.601843 511.333837 
L 263.409971 511.601444 
L 263.33263 511.831217 
L 263.407347 512.138496 
L 263.597366 512.254518 
L 264.016043 512.371664 
L 264.742432 511.914904 
L 265.470098 511.189619 
L 266.387983 510.541976 
L 266.618353 510.197846 
L 266.77266 509.814994 
L 266.81281 509.393218 
L 266.548443 508.893192 
L 266.247995 507.971049 
L 266.174019 507.51032 
L 266.329066 506.974017 
L 266.597903 506.553362 
L 267.019567 506.056729 
L 267.593656 505.560873 
L 268.244174 505.026978 
L 268.818665 504.454396 
L 269.471597 503.42183 
L 269.666989 502.42537 
L 269.746543 501.735241 
L 269.672363 501.312891 
L 269.255909 500.735427 
L 268.421895 499.810644 
L 268.233189 499.426096 
L 268.235439 498.96574 
L 268.465603 498.659988 
L 268.656696 498.545832 
L 268.847821 498.431708 
L 269.611009 498.243638 
L 270.64115 498.018543 
L 271.404138 497.868853 
L 271.824484 497.640739 
L 272.359725 497.298098 
L 272.819308 496.84001 
L 273.242805 495.959774 
L 273.168624 495.537425 
L 273.056143 495.153252 
L 272.71441 494.883034 
L 272.181217 494.803701 
L 271.266717 494.760849 
L 270.848789 494.490257 
L 270.775146 493.952802 
L 270.93022 493.416499 
L 271.275442 492.957869 
L 272.156842 491.964766 
L 272.655257 491.35343 
L 272.924452 490.856046 
L 273.193108 490.473737 
L 273.422496 490.321435 
L 274.185473 490.171741 
L 274.987687 489.792037 
L 275.19851 489.543716 
L 275.409333 489.295398 
L 275.449274 488.91197 
L 275.527007 488.605471 
L 275.641701 488.529319 
L 275.985275 488.415907 
L 276.442605 488.418139 
L 276.708815 488.53453 
L 276.860531 488.688725 
L 277.089011 488.728221 
L 277.318061 488.652611 
L 277.509918 488.385033 
L 277.587451 488.11688 
L 277.740978 487.887447 
L 278.046253 487.812209 
L 278.351162 487.813728 
L 278.616835 488.045192 
L 278.615697 488.27537 
L 278.461234 488.69657 
L 278.382797 489.156553 
L 278.419956 489.348521 
L 278.609235 489.617992 
L 278.98997 489.696578 
L 279.448605 489.430316 
L 279.87008 488.972021 
L 280.254328 488.321757 
L 280.56034 488.093066 
L 280.827487 488.017657 
L 281.476502 487.790654 
L 282.581912 487.757709 
L 283.040209 487.568138 
L 283.308458 487.262582 
L 283.425757 486.649348 
L 283.504358 486.151017 
L 283.659585 485.576364 
L 283.966898 485.079147 
L 284.234578 484.888631 
L 284.692871 484.69906 
L 285.150567 484.624593 
L 285.530564 484.856625 
L 285.911697 484.85848 
L 286.294298 484.553463 
L 286.562912 484.171147 
L 286.946048 483.751025 
L 287.251889 483.560711 
L 287.519399 483.408573 
L 288.015388 483.295926 
L 288.510677 483.336698 
L 289.157283 483.608388 
L 289.842356 483.803555 
L 290.489896 483.883445 
L 291.137972 483.848261 
L 291.520572 483.543209 
L 292.056156 483.123857 
L 292.326997 482.281184 
L 292.335663 480.478208 
L 292.260394 479.074541 
L 292.195742 477.868884 
L 291.706925 476.485462 
L 291.521145 475.487118 
L 291.448254 474.796248 
L 291.374962 474.182102 
L 291.30207 473.491234 
L 291.229713 472.685258 
L 290.966808 471.878374 
L 290.665977 471.032908 
L 290.326282 470.340758 
L 290.121125 470.132235 
L 289.947025 469.955279 
L 289.261402 469.875185 
L 288.918375 469.873533 
L 288.310814 469.410215 
L 287.591701 468.370928 
L 287.102534 467.064197 
L 286.954693 466.104432 
L 287.072151 465.452852 
L 287.532634 464.802925 
L 287.803809 463.883562 
L 287.616203 463.268846 
L 287.274313 463.037017 
L 286.780176 462.766067 
L 286.055699 462.839253 
L 285.482198 463.220082 
L 285.06208 463.409824 
L 284.909632 463.409081 
L 284.680961 463.407969 
L 284.52908 463.292122 
L 284.492455 462.985049 
L 284.647109 462.52547 
L 284.915546 462.181503 
L 285.298838 461.723036 
L 285.453858 461.186731 
L 285.456094 460.726377 
L 285.266255 460.572014 
L 284.923464 460.531981 
L 284.617834 460.68395 
L 284.198087 460.796964 
L 283.815866 461.025285 
L 283.510804 461.062147 
L 283.130253 460.945218 
L 283.056068 460.52284 
L 283.172595 460.063091 
L 283.403672 459.565504 
L 283.406045 459.066804 
L 283.141487 458.605166 
L 282.572803 457.988593 
L 282.232022 457.526584 
L 282.196502 456.989335 
L 282.237941 456.299007 
L 282.58367 455.725268 
L 283.272619 455.114837 
L 283.644099 454.580267 
L 285.223404 454.035376 
L 291.186272 444.858166 
L 291.214865 443.070865 
L 291.21757 442.901778 
L 291.221743 442.640961 
L 291.257938 440.378421 
L 290.080593 439.821799 
L 287.231162 438.474655 
L 286.43827 437.522108 
L 286.398982 435.927088 
L 289.582958 430.987879 
L 289.798222 430.653947 
L 288.231182 425.767644 
L 287.55526 422.859619 
L 287.110855 420.947653 
L 286.894848 420.018328 
L 286.682076 419.102914 
L 286.649655 418.963431 
L 286.221888 417.123043 
L 285.603712 416.679223 
L 285.573431 416.538211 
L 285.525844 416.316612 
L 285.269259 415.121753 
L 285.859996 407.808797 
L 287.038823 404.049806 
L 288.636147 402.667354 
L 290.514145 401.141702 
L 291.369414 400.618262 
L 290.97326 395.961513 
L 290.148745 392.712366 
L 290.695724 391.466687 
L 292.97199 391.276329 
L 295.388017 389.292121 
L 295.51968 388.668966 
L 295.142942 387.81066 
L 293.323925 387.229313 
L 293.529353 386.16461 
L 296.629513 385.267787 
L 296.22484 381.042111 
L 295.13105 377.064682 
L 295.180448 374.964364 
L 294.757834 374.128367 
L 292.956832 370.645723 
L 292.220754 367.788025 
L 290.775544 366.702296 
L 288.297393 366.691768 
L 286.759308 367.09793 
L 286.467398 367.175015 
L 286.388639 367.145852 
L 286.185485 367.070628 
L 283.619154 366.120359 
L 286.198348 364.399902 
L 286.193106 363.773943 
L 284.986933 362.0669 
L 284.228847 361.83309 
L 283.753523 361.68649 
L 282.744355 361.37524 
L 282.337871 360.588164 
L 282.379984 359.957996 
L 284.356914 358.306181 
L 283.491287 356.996079 
L 283.147339 356.475523 
L 281.597965 356.200161 
L 280.393716 355.618207 
L 280.28786 355.27621 
L 279.863059 353.903775 
L 278.733955 353.179542 
L 279.936646 349.733204 
L 282.743896 347.342996 
L 282.216431 346.165932 
L 280.758926 344.957558 
L 280.424606 343.919952 
L 281.826267 342.463152 
L 282.603241 341.655613 
L 284.369038 340.722287 
L 285.646906 338.974675 
L 286.194594 337.444329 
L 285.879513 334.207386 
L 285.254004 333.885358 
L 284.395912 333.443591 
L 283.555523 333.010938 
L 283.169479 333.774432 
L 282.730951 334.641722 
L 282.083721 334.435171 
L 282.170199 332.678314 
L 282.184981 332.378014 
L 282.211618 331.836849 
L 282.25963 330.861458 
L 281.639365 327.439104 
L 280.281276 324.395001 
L 279.735749 324.073077 
L 279.704357 324.025175 
L 279.303809 323.663212 
L 278.91278 323.587431 
L 277.402716 322.69632 
L 275.761563 320.877975 
L 275.298771 319.266428 
L 276.880578 314.621736 
L 275.29968 306.658883 
L 274.386203 303.618667 
L 273.199275 299.668354 
L 270.645246 293.746698 
L 270.251359 291.935928 
L 269.700422 287.313703 
L 271.666606 284.083738 
L 274.468903 281.002239 
L 279.028891 278.951763 
L 279.956514 278.839566 
L 281.961158 277.633219 
L 290.016143 273.319683 
L 289.767994 268.493236 
L 288.116716 268.018771 
L 286.450651 268.722209 
L 285.446955 267.133167 
L 287.988098 263.051549 
L 286.983076 261.444462 
L 287.085115 259.886971 
L 285.829252 258.0095 
L 285.7467 255.792792 
L 287.861278 252.498333 
L 286.906521 249.991916 
L 285.956502 247.923537 
L 284.628194 245.031545 
L 284.857531 244.341647 
L 285.014146 243.112161 
L 283.067212 241.161554 
L 281.614049 238.048442 
L 282.233897 235.654932 
L 282.997867 232.735103 
L 283.55397 229.130319 
L 283.037804 226.411422 
L 282.127432 225.930321 
L 281.241612 224.80161 
L 281.258037 223.257216 
L 280.653972 222.76092 
L 280.891568 221.730303 
L 280.381178 220.425489 
L 279.887017 218.391884 
L 278.701807 216.581729 
L 278.225575 215.393184 
L 273.901339 213.173284 
L 272.038081 211.982684 
L 270.18171 211.031352 
L 268.617913 209.477607 
L 267.30652 209.466146 
L 265.598999 208.556062 
L 264.722572 207.16818 
L 263.290658 206.939501 
L 262.798493 205.993493 
L 263.018356 204.667084 
L 263.993262 203.80017 
L 263.84479 202.176801 
L 264.432532 200.608236 
L 263.302384 199.488669 
L 262.37732 197.862862 
L 261.471612 197.203972 
L 261.118213 196.263138 
L 262.567138 194.287354 
L 262.515985 192.614343 
L 262.546195 191.982816 
L 262.582232 190.469664 
L 263.246229 188.39855 
L 265.262882 186.743882 
L 265.77608 185.960583 
L 266.27535 183.208242 
L 267.477315 180.477198 
L 267.467434 177.961655 
L 268.314445 176.681877 
L 269.210718 176.079083 
L 269.682259 173.454442 
L 270.832582 172.584448 
L 271.234225 171.451803 
L 271.223423 170.774939 
L 271.592501 170.031509 
L 271.550363 168.332769 
L 270.044369 167.076621 
L 270.475774 166.221179 
L 270.405869 163.552161 
L 270.522289 161.893648 
L 271.671948 160.85095 
L 270.933871 159.408879 
L 271.030462 155.99007 
L 272.073786 154.755979 
L 272.043031 153.232672 
L 273.072249 151.821835 
L 273.709842 149.602313 
L 274.639088 147.978675 
L 275.011338 145.819397 
L 275.551033 144.195673 
L 275.650401 142.99299 
L 275.403504 141.824794 
L 273.130228 139.576358 
L 272.625768 138.737974 
L 272.45377 136.194947 
L 271.759348 133.92 
L 280.282501 136.408424 
L 289.434085 138.868568 
L 295.569657 138.49797 
L 297.690135 138.41175 
L 300.596159 138.293589 
L 308.61051 138.9282 
L 309.607672 139.16457 
L 313.557118 139.933441 
L 317.352644 140.450836 
L 325.904678 140.200787 
L 329.193039 141.041784 
L 337.083991 140.18779 
L 343.67941 141.371175 
L 349.466309 142.504424 
L 355.88873 144.037125 
L 355.837253 163.812007 
L 355.817757 173.662306 
L 361.108019 192.450679 
L 361.274794 192.99787 
L 367.564685 215.323113 
L 369.095911 220.758023 
L 374.666365 240.318849 
" clip-path="url(#padfa649818)" style="fill: #b3e2cd; fill-opacity: 0.65"/>
   </g>
   <g id="PatchCollection_2">
    <path d="M 489.557934 347.971622 
L 491.103081 397.319532 
L 493.266286 449.857257 
L 524.169218 447.487995 
L 567.536333 445.015713 
L 575.468085 460.1583 
L 571.759734 463.454601 
L 573.61391 469.017073 
L 577.322261 475.197545 
L 574.850027 478.699787 
L 566.403225 479.111815 
L 561.046717 479.111815 
L 562.282834 482.408024 
L 564.34303 490.648479 
L 557.750404 491.678529 
L 545.389231 490.442469 
L 544.771173 492.914587 
L 547.243407 500.742901 
L 545.389231 511.455186 
L 540.650782 515.163245 
L 541.062821 517.635274 
L 542.710977 522.785304 
L 536.94243 530.407278 
L 531.791941 532.261259 
L 526.641453 541.325092 
L 525.405335 545.856963 
L 522.521062 548.32888 
L 519.224749 546.474943 
L 515.516397 547.710902 
L 512.426104 551.212772 
L 508.923771 554.508633 
L 504.391341 555.538587 
L 499.652892 555.332596 
L 498.004735 556.980519 
L 496.356579 561.306297 
L 495.94454 566.044023 
L 492.854247 570.781716 
L 486.467641 567.485933 
L 480.493074 556.156558 
L 477.402781 546.680936 
L 467.513842 527.523298 
L 458.448982 522.579304 
L 454.534611 514.75124 
L 450.826259 508.159116 
L 449.796161 505.069037 
L 456.182767 493.120597 
L 449.590142 487.55832 
L 448.766064 482.82005 
L 446.911888 474.373485 
L 439.083145 469.429107 
L 435.992852 463.454601 
L 430.636343 463.248583 
L 426.515952 456.243922 
L 413.94876 458.510144 
L 413.330701 450.475324 
L 416.420994 442.028361 
L 417.245073 438.113879 
L 415.802936 435.641563 
L 416.627014 427.606476 
L 424.455757 426.57633 
L 431.460421 422.249699 
L 435.786832 424.103972 
L 444.645673 424.928093 
L 449.590142 420.39542 
L 453.092474 414.832553 
L 453.916552 408.445503 
L 455.770728 402.058394 
L 456.594806 398.761798 
L 463.393451 397.319532 
L 466.895784 387.841711 
L 471.016175 382.484624 
L 474.724527 381.660453 
L 479.462976 380.424195 
L 483.171328 377.951671 
L 483.377348 373.624735 
L 482.759289 371.564279 
L 485.849582 368.473584 
L 486.87968 365.176827 
L 485.231523 363.940539 
L 484.407445 358.171167 
L 484.613465 356.110665 
L 489.557934 347.971622 
" clip-path="url(#padfa649818)" style="fill: none; stroke: #000000; stroke-width: 2"/>
   </g>
   <g id="matplotlib.axis_1">
    <g id="xtick_1">
     <g id="line2d_1">
      <path d="M 147.043541 768.96 
L 147.043541 103.68 
" clip-path="url(#padfa649818)" style="fill: none; stroke: #b0b0b0; stroke-width: 0.8; stroke-linecap: square"/>
     </g>
     <g id="line2d_2">
      <defs>
       <path id="meb2b2c5506" d="M 0 0 
L 0 3.5 
" style="stroke: #000000; stroke-width: 0.8"/>
      </defs>
      <g>
       <use xlink:href="#meb2b2c5506" x="147.043541" y="768.96" style="stroke: #000000; stroke-width: 0.8"/>
      </g>
     </g>
     <g id="text_1">
      <!-- −71.00 -->
      <g transform="translate(135.910476 807.501382) rotate(-45) scale(0.1 -0.1)">
       <defs>
        <path id="DejaVuSans-2212" d="M 678 2272 
L 4684 2272 
L 4684 1741 
L 678 1741 
L 678 2272 
z
" transform="scale(0.015625)"/>
        <path id="DejaVuSans-37" d="M 525 4666 
L 3525 4666 
L 3525 4397 
L 1831 0 
L 1172 0 
L 2766 4134 
L 525 4134 
L 525 4666 
z
" transform="scale(0.015625)"/>
        <path id="DejaVuSans-31" d="M 794 531 
L 1825 531 
L 1825 4091 
L 703 3866 
L 703 4441 
L 1819 4666 
L 2450 4666 
L 2450 531 
L 3481 531 
L 3481 0 
L 794 0 
L 794 531 
z
" transform="scale(0.015625)"/>
        <path id="DejaVuSans-2e" d="M 684 794 
L 1344 794 
L 1344 0 
L 684 0 
L 684 794 
z
" transform="scale(0.015625)"/>
        <path id="DejaVuSans-30" d="M 2034 4250 
Q 1547 4250 1301 3770 
Q 1056 3291 1056 2328 
Q 1056 1369 1301 889 
Q 1547 409 2034 409 
Q 2525 409 2770 889 
Q 3016 1369 3016 2328 
Q 3016 3291 2770 3770 
Q 2525 4250 2034 4250 
z
M 2034 4750 
Q 2819 4750 3233 4129 
Q 3647 3509 3647 2328 
Q 3647 1150 3233 529 
Q 2819 -91 2034 -91 
Q 1250 -91 836 529 
Q 422 1150 422 2328 
Q 422 3509 836 4129 
Q 1250 4750 2034 4750 
z
" transform="scale(0.015625)"/>
       </defs>
       <use xlink:href="#DejaVuSans-2212"/>
       <use xlink:href="#DejaVuSans-37" transform="translate(83.789062 0)"/>
       <use xlink:href="#DejaVuSans-31" transform="translate(147.412109 0)"/>
       <use xlink:href="#DejaVuSans-2e" transform="translate(211.035156 0)"/>
       <use xlink:href="#DejaVuSans-30" transform="translate(242.822266 0)"/>
       <use xlink:href="#DejaVuSans-30" transform="translate(306.445312 0)"/>
      </g>
     </g>
    </g>
    <g id="xtick_2">
     <g id="line2d_3">
      <path d="M 233.501363 768.96 
L 233.501363 103.68 
" clip-path="url(#padfa649818)" style="fill: none; stroke: #b0b0b0; stroke-width: 0.8; stroke-linecap: square"/>
     </g>
     <g id="line2d_4">
      <g>
       <use xlink:href="#meb2b2c5506" x="233.501363" y="768.96" style="stroke: #000000; stroke-width: 0.8"/>
      </g>
     </g>
     <g id="text_2">
      <!-- −70.95 -->
      <g transform="translate(222.368298 807.501382) rotate(-45) scale(0.1 -0.1)">
       <defs>
        <path id="DejaVuSans-39" d="M 703 97 
L 703 672 
Q 941 559 1184 500 
Q 1428 441 1663 441 
Q 2288 441 2617 861 
Q 2947 1281 2994 2138 
Q 2813 1869 2534 1725 
Q 2256 1581 1919 1581 
Q 1219 1581 811 2004 
Q 403 2428 403 3163 
Q 403 3881 828 4315 
Q 1253 4750 1959 4750 
Q 2769 4750 3195 4129 
Q 3622 3509 3622 2328 
Q 3622 1225 3098 567 
Q 2575 -91 1691 -91 
Q 1453 -91 1209 -44 
Q 966 3 703 97 
z
M 1959 2075 
Q 2384 2075 2632 2365 
Q 2881 2656 2881 3163 
Q 2881 3666 2632 3958 
Q 2384 4250 1959 4250 
Q 1534 4250 1286 3958 
Q 1038 3666 1038 3163 
Q 1038 2656 1286 2365 
Q 1534 2075 1959 2075 
z
" transform="scale(0.015625)"/>
        <path id="DejaVuSans-35" d="M 691 4666 
L 3169 4666 
L 3169 4134 
L 1269 4134 
L 1269 2991 
Q 1406 3038 1543 3061 
Q 1681 3084 1819 3084 
Q 2600 3084 3056 2656 
Q 3513 2228 3513 1497 
Q 3513 744 3044 326 
Q 2575 -91 1722 -91 
Q 1428 -91 1123 -41 
Q 819 9 494 109 
L 494 744 
Q 775 591 1075 516 
Q 1375 441 1709 441 
Q 2250 441 2565 725 
Q 2881 1009 2881 1497 
Q 2881 1984 2565 2268 
Q 2250 2553 1709 2553 
Q 1456 2553 1204 2497 
Q 953 2441 691 2322 
L 691 4666 
z
" transform="scale(0.015625)"/>
       </defs>
       <use xlink:href="#DejaVuSans-2212"/>
       <use xlink:href="#DejaVuSans-37" transform="translate(83.789062 0)"/>
       <use xlink:href="#DejaVuSans-30" transform="translate(147.412109 0)"/>
       <use xlink:href="#DejaVuSans-2e" transform="translate(211.035156 0)"/>
       <use xlink:href="#DejaVuSans-39" transform="translate(242.822266 0)"/>
       <use xlink:href="#DejaVuSans-35" transform="translate(306.445312 0)"/>
      </g>
     </g>
    </g>
    <g id="xtick_3">
     <g id="line2d_5">
      <path d="M 319.959185 768.96 
L 319.959185 103.68 
" clip-path="url(#padfa649818)" style="fill: none; stroke: #b0b0b0; stroke-width: 0.8; stroke-linecap: square"/>
     </g>
     <g id="line2d_6">
      <g>
       <use xlink:href="#meb2b2c5506" x="319.959185" y="768.96" style="stroke: #000000; stroke-width: 0.8"/>
      </g>
     </g>
     <g id="text_3">
      <!-- −70.90 -->
      <g transform="translate(308.82612 807.501382) rotate(-45) scale(0.1 -0.1)">
       <use xlink:href="#DejaVuSans-2212"/>
       <use xlink:href="#DejaVuSans-37" transform="translate(83.789062 0)"/>
       <use xlink:href="#DejaVuSans-30" transform="translate(147.412109 0)"/>
       <use xlink:href="#DejaVuSans-2e" transform="translate(211.035156 0)"/>
       <use xlink:href="#DejaVuSans-39" transform="translate(242.822266 0)"/>
       <use xlink:href="#DejaVuSans-30" transform="translate(306.445312 0)"/>
      </g>
     </g>
    </g>
    <g id="xtick_4">
     <g id="line2d_7">
      <path d="M 406.417007 768.96 
L 406.417007 103.68 
" clip-path="url(#padfa649818)" style="fill: none; stroke: #b0b0b0; stroke-width: 0.8; stroke-linecap: square"/>
     </g>
     <g id="line2d_8">
      <g>
       <use xlink:href="#meb2b2c5506" x="406.417007" y="768.96" style="stroke: #000000; stroke-width: 0.8"/>
      </g>
     </g>
     <g id="text_4">
      <!-- −70.85 -->
      <g transform="translate(395.283942 807.501382) rotate(-45) scale(0.1 -0.1)">
       <defs>
        <path id="DejaVuSans-38" d="M 2034 2216 
Q 1584 2216 1326 1975 
Q 1069 1734 1069 1313 
Q 1069 891 1326 650 
Q 1584 409 2034 409 
Q 2484 409 2743 651 
Q 3003 894 3003 1313 
Q 3003 1734 2745 1975 
Q 2488 2216 2034 2216 
z
M 1403 2484 
Q 997 2584 770 2862 
Q 544 3141 544 3541 
Q 544 4100 942 4425 
Q 1341 4750 2034 4750 
Q 2731 4750 3128 4425 
Q 3525 4100 3525 3541 
Q 3525 3141 3298 2862 
Q 3072 2584 2669 2484 
Q 3125 2378 3379 2068 
Q 3634 1759 3634 1313 
Q 3634 634 3220 271 
Q 2806 -91 2034 -91 
Q 1263 -91 848 271 
Q 434 634 434 1313 
Q 434 1759 690 2068 
Q 947 2378 1403 2484 
z
M 1172 3481 
Q 1172 3119 1398 2916 
Q 1625 2713 2034 2713 
Q 2441 2713 2670 2916 
Q 2900 3119 2900 3481 
Q 2900 3844 2670 4047 
Q 2441 4250 2034 4250 
Q 1625 4250 1398 4047 
Q 1172 3844 1172 3481 
z
" transform="scale(0.015625)"/>
       </defs>
       <use xlink:href="#DejaVuSans-2212"/>
       <use xlink:href="#DejaVuSans-37" transform="translate(83.789062 0)"/>
       <use xlink:href="#DejaVuSans-30" transform="translate(147.412109 0)"/>
       <use xlink:href="#DejaVuSans-2e" transform="translate(211.035156 0)"/>
       <use xlink:href="#DejaVuSans-38" transform="translate(242.822266 0)"/>
       <use xlink:href="#DejaVuSans-35" transform="translate(306.445312 0)"/>
      </g>
     </g>
    </g>
    <g id="xtick_5">
     <g id="line2d_9">
      <path d="M 492.874829 768.96 
L 492.874829 103.68 
" clip-path="url(#padfa649818)" style="fill: none; stroke: #b0b0b0; stroke-width: 0.8; stroke-linecap: square"/>
     </g>
     <g id="line2d_10">
      <g>
       <use xlink:href="#meb2b2c5506" x="492.874829" y="768.96" style="stroke: #000000; stroke-width: 0.8"/>
      </g>
     </g>
     <g id="text_5">
      <!-- −70.80 -->
      <g transform="translate(481.741764 807.501382) rotate(-45) scale(0.1 -0.1)">
       <use xlink:href="#DejaVuSans-2212"/>
       <use xlink:href="#DejaVuSans-37" transform="translate(83.789062 0)"/>
       <use xlink:href="#DejaVuSans-30" transform="translate(147.412109 0)"/>
       <use xlink:href="#DejaVuSans-2e" transform="translate(211.035156 0)"/>
       <use xlink:href="#DejaVuSans-38" transform="translate(242.822266 0)"/>
       <use xlink:href="#DejaVuSans-30" transform="translate(306.445312 0)"/>
      </g>
     </g>
    </g>
    <g id="xtick_6">
     <g id="line2d_11">
      <path d="M 579.332651 768.96 
L 579.332651 103.68 
" clip-path="url(#padfa649818)" style="fill: none; stroke: #b0b0b0; stroke-width: 0.8; stroke-linecap: square"/>
     </g>
     <g id="line2d_12">
      <g>
       <use xlink:href="#meb2b2c5506" x="579.332651" y="768.96" style="stroke: #000000; stroke-width: 0.8"/>
      </g>
     </g>
     <g id="text_6">
      <!-- −70.75 -->
      <g transform="translate(568.199586 807.501382) rotate(-45) scale(0.1 -0.1)">
       <use xlink:href="#DejaVuSans-2212"/>
       <use xlink:href="#DejaVuSans-37" transform="translate(83.789062 0)"/>
       <use xlink:href="#DejaVuSans-30" transform="translate(147.412109 0)"/>
       <use xlink:href="#DejaVuSans-2e" transform="translate(211.035156 0)"/>
       <use xlink:href="#DejaVuSans-37" transform="translate(242.822266 0)"/>
       <use xlink:href="#DejaVuSans-35" transform="translate(306.445312 0)"/>
      </g>
     </g>
    </g>
    <g id="text_7">
     <!-- Longitude (°) -->
     <g transform="translate(336.139844 820.57038) scale(0.1 -0.1)">
      <defs>
       <path id="DejaVuSans-4c" d="M 628 4666 
L 1259 4666 
L 1259 531 
L 3531 531 
L 3531 0 
L 628 0 
L 628 4666 
z
" transform="scale(0.015625)"/>
       <path id="DejaVuSans-6f" d="M 1959 3097 
Q 1497 3097 1228 2736 
Q 959 2375 959 1747 
Q 959 1119 1226 758 
Q 1494 397 1959 397 
Q 2419 397 2687 759 
Q 2956 1122 2956 1747 
Q 2956 2369 2687 2733 
Q 2419 3097 1959 3097 
z
M 1959 3584 
Q 2709 3584 3137 3096 
Q 3566 2609 3566 1747 
Q 3566 888 3137 398 
Q 2709 -91 1959 -91 
Q 1206 -91 779 398 
Q 353 888 353 1747 
Q 353 2609 779 3096 
Q 1206 3584 1959 3584 
z
" transform="scale(0.015625)"/>
       <path id="DejaVuSans-6e" d="M 3513 2113 
L 3513 0 
L 2938 0 
L 2938 2094 
Q 2938 2591 2744 2837 
Q 2550 3084 2163 3084 
Q 1697 3084 1428 2787 
Q 1159 2491 1159 1978 
L 1159 0 
L 581 0 
L 581 3500 
L 1159 3500 
L 1159 2956 
Q 1366 3272 1645 3428 
Q 1925 3584 2291 3584 
Q 2894 3584 3203 3211 
Q 3513 2838 3513 2113 
z
" transform="scale(0.015625)"/>
       <path id="DejaVuSans-67" d="M 2906 1791 
Q 2906 2416 2648 2759 
Q 2391 3103 1925 3103 
Q 1463 3103 1205 2759 
Q 947 2416 947 1791 
Q 947 1169 1205 825 
Q 1463 481 1925 481 
Q 2391 481 2648 825 
Q 2906 1169 2906 1791 
z
M 3481 434 
Q 3481 -459 3084 -895 
Q 2688 -1331 1869 -1331 
Q 1566 -1331 1297 -1286 
Q 1028 -1241 775 -1147 
L 775 -588 
Q 1028 -725 1275 -790 
Q 1522 -856 1778 -856 
Q 2344 -856 2625 -561 
Q 2906 -266 2906 331 
L 2906 616 
Q 2728 306 2450 153 
Q 2172 0 1784 0 
Q 1141 0 747 490 
Q 353 981 353 1791 
Q 353 2603 747 3093 
Q 1141 3584 1784 3584 
Q 2172 3584 2450 3431 
Q 2728 3278 2906 2969 
L 2906 3500 
L 3481 3500 
L 3481 434 
z
" transform="scale(0.015625)"/>
       <path id="DejaVuSans-69" d="M 603 3500 
L 1178 3500 
L 1178 0 
L 603 0 
L 603 3500 
z
M 603 4863 
L 1178 4863 
L 1178 4134 
L 603 4134 
L 603 4863 
z
" transform="scale(0.015625)"/>
       <path id="DejaVuSans-74" d="M 1172 4494 
L 1172 3500 
L 2356 3500 
L 2356 3053 
L 1172 3053 
L 1172 1153 
Q 1172 725 1289 603 
Q 1406 481 1766 481 
L 2356 481 
L 2356 0 
L 1766 0 
Q 1100 0 847 248 
Q 594 497 594 1153 
L 594 3053 
L 172 3053 
L 172 3500 
L 594 3500 
L 594 4494 
L 1172 4494 
z
" transform="scale(0.015625)"/>
       <path id="DejaVuSans-75" d="M 544 1381 
L 544 3500 
L 1119 3500 
L 1119 1403 
Q 1119 906 1312 657 
Q 1506 409 1894 409 
Q 2359 409 2629 706 
Q 2900 1003 2900 1516 
L 2900 3500 
L 3475 3500 
L 3475 0 
L 2900 0 
L 2900 538 
Q 2691 219 2414 64 
Q 2138 -91 1772 -91 
Q 1169 -91 856 284 
Q 544 659 544 1381 
z
M 1991 3584 
L 1991 3584 
z
" transform="scale(0.015625)"/>
       <path id="DejaVuSans-64" d="M 2906 2969 
L 2906 4863 
L 3481 4863 
L 3481 0 
L 2906 0 
L 2906 525 
Q 2725 213 2448 61 
Q 2172 -91 1784 -91 
Q 1150 -91 751 415 
Q 353 922 353 1747 
Q 353 2572 751 3078 
Q 1150 3584 1784 3584 
Q 2172 3584 2448 3432 
Q 2725 3281 2906 2969 
z
M 947 1747 
Q 947 1113 1208 752 
Q 1469 391 1925 391 
Q 2381 391 2643 752 
Q 2906 1113 2906 1747 
Q 2906 2381 2643 2742 
Q 2381 3103 1925 3103 
Q 1469 3103 1208 2742 
Q 947 2381 947 1747 
z
" transform="scale(0.015625)"/>
       <path id="DejaVuSans-65" d="M 3597 1894 
L 3597 1613 
L 953 1613 
Q 991 1019 1311 708 
Q 1631 397 2203 397 
Q 2534 397 2845 478 
Q 3156 559 3463 722 
L 3463 178 
Q 3153 47 2828 -22 
Q 2503 -91 2169 -91 
Q 1331 -91 842 396 
Q 353 884 353 1716 
Q 353 2575 817 3079 
Q 1281 3584 2069 3584 
Q 2775 3584 3186 3129 
Q 3597 2675 3597 1894 
z
M 3022 2063 
Q 3016 2534 2758 2815 
Q 2500 3097 2075 3097 
Q 1594 3097 1305 2825 
Q 1016 2553 972 2059 
L 3022 2063 
z
" transform="scale(0.015625)"/>
       <path id="DejaVuSans-20" transform="scale(0.015625)"/>
       <path id="DejaVuSans-28" d="M 1984 4856 
Q 1566 4138 1362 3434 
Q 1159 2731 1159 2009 
Q 1159 1288 1364 580 
Q 1569 -128 1984 -844 
L 1484 -844 
Q 1016 -109 783 600 
Q 550 1309 550 2009 
Q 550 2706 781 3412 
Q 1013 4119 1484 4856 
L 1984 4856 
z
" transform="scale(0.015625)"/>
       <path id="DejaVuSans-b0" d="M 1600 4347 
Q 1350 4347 1178 4173 
Q 1006 4000 1006 3750 
Q 1006 3503 1178 3333 
Q 1350 3163 1600 3163 
Q 1850 3163 2022 3333 
Q 2194 3503 2194 3750 
Q 2194 3997 2020 4172 
Q 1847 4347 1600 4347 
z
M 1600 4750 
Q 1800 4750 1984 4673 
Q 2169 4597 2303 4453 
Q 2447 4313 2519 4134 
Q 2591 3956 2591 3750 
Q 2591 3338 2302 3052 
Q 2013 2766 1594 2766 
Q 1172 2766 890 3047 
Q 609 3328 609 3750 
Q 609 4169 896 4459 
Q 1184 4750 1600 4750 
z
" transform="scale(0.015625)"/>
       <path id="DejaVuSans-29" d="M 513 4856 
L 1013 4856 
Q 1481 4119 1714 3412 
Q 1947 2706 1947 2009 
Q 1947 1309 1714 600 
Q 1481 -109 1013 -844 
L 513 -844 
Q 928 -128 1133 580 
Q 1338 1288 1338 2009 
Q 1338 2731 1133 3434 
Q 928 4138 513 4856 
z
" transform="scale(0.015625)"/>
      </defs>
      <use xlink:href="#DejaVuSans-4c"/>
      <use xlink:href="#DejaVuSans-6f" transform="translate(53.962891 0)"/>
      <use xlink:href="#DejaVuSans-6e" transform="translate(115.144531 0)"/>
      <use xlink:href="#DejaVuSans-67" transform="translate(178.523438 0)"/>
      <use xlink:href="#DejaVuSans-69" transform="translate(242 0)"/>
      <use xlink:href="#DejaVuSans-74" transform="translate(269.783203 0)"/>
      <use xlink:href="#DejaVuSans-75" transform="translate(308.992188 0)"/>
      <use xlink:href="#DejaVuSans-64" transform="translate(372.371094 0)"/>
      <use xlink:href="#DejaVuSans-65" transform="translate(435.847656 0)"/>
      <use xlink:href="#DejaVuSans-20" transform="translate(497.371094 0)"/>
      <use xlink:href="#DejaVuSans-28" transform="translate(529.158203 0)"/>
      <use xlink:href="#DejaVuSans-b0" transform="translate(568.171875 0)"/>
      <use xlink:href="#DejaVuSans-29" transform="translate(618.171875 0)"/>
     </g>
    </g>
   </g>
   <g id="matplotlib.axis_2">
    <g id="ytick_1">
     <g id="line2d_13">
      <path d="M 139.845512 694.986822 
L 598.154488 694.986822 
" clip-path="url(#padfa649818)" style="fill: none; stroke: #b0b0b0; stroke-width: 0.8; stroke-linecap: square"/>
     </g>
     <g id="line2d_14">
      <defs>
       <path id="m27ca7517d0" d="M 0 0 
L -3.5 0 
" style="stroke: #000000; stroke-width: 0.8"/>
      </defs>
      <g>
       <use xlink:href="#m27ca7517d0" x="139.845512" y="694.986822" style="stroke: #000000; stroke-width: 0.8"/>
      </g>
     </g>
     <g id="text_8">
      <!-- −8.45 -->
      <g transform="translate(102.2002 698.786041) scale(0.1 -0.1)">
       <defs>
        <path id="DejaVuSans-34" d="M 2419 4116 
L 825 1625 
L 2419 1625 
L 2419 4116 
z
M 2253 4666 
L 3047 4666 
L 3047 1625 
L 3713 1625 
L 3713 1100 
L 3047 1100 
L 3047 0 
L 2419 0 
L 2419 1100 
L 313 1100 
L 313 1709 
L 2253 4666 
z
" transform="scale(0.015625)"/>
       </defs>
       <use xlink:href="#DejaVuSans-2212"/>
       <use xlink:href="#DejaVuSans-38" transform="translate(83.789062 0)"/>
       <use xlink:href="#DejaVuSans-2e" transform="translate(147.412109 0)"/>
       <use xlink:href="#DejaVuSans-34" transform="translate(179.199219 0)"/>
       <use xlink:href="#DejaVuSans-35" transform="translate(242.822266 0)"/>
      </g>
     </g>
    </g>
    <g id="ytick_2">
     <g id="line2d_15">
      <path d="M 139.845512 607.610458 
L 598.154488 607.610458 
" clip-path="url(#padfa649818)" style="fill: none; stroke: #b0b0b0; stroke-width: 0.8; stroke-linecap: square"/>
     </g>
     <g id="line2d_16">
      <g>
       <use xlink:href="#m27ca7517d0" x="139.845512" y="607.610458" style="stroke: #000000; stroke-width: 0.8"/>
      </g>
     </g>
     <g id="text_9">
      <!-- −8.40 -->
      <g transform="translate(102.2002 611.409676) scale(0.1 -0.1)">
       <use xlink:href="#DejaVuSans-2212"/>
       <use xlink:href="#DejaVuSans-38" transform="translate(83.789062 0)"/>
       <use xlink:href="#DejaVuSans-2e" transform="translate(147.412109 0)"/>
       <use xlink:href="#DejaVuSans-34" transform="translate(179.199219 0)"/>
       <use xlink:href="#DejaVuSans-30" transform="translate(242.822266 0)"/>
      </g>
     </g>
    </g>
    <g id="ytick_3">
     <g id="line2d_17">
      <path d="M 139.845512 520.234094 
L 598.154488 520.234094 
" clip-path="url(#padfa649818)" style="fill: none; stroke: #b0b0b0; stroke-width: 0.8; stroke-linecap: square"/>
     </g>
     <g id="line2d_18">
      <g>
       <use xlink:href="#m27ca7517d0" x="139.845512" y="520.234094" style="stroke: #000000; stroke-width: 0.8"/>
      </g>
     </g>
     <g id="text_10">
      <!-- −8.35 -->
      <g transform="translate(102.2002 524.033312) scale(0.1 -0.1)">
       <defs>
        <path id="DejaVuSans-33" d="M 2597 2516 
Q 3050 2419 3304 2112 
Q 3559 1806 3559 1356 
Q 3559 666 3084 287 
Q 2609 -91 1734 -91 
Q 1441 -91 1130 -33 
Q 819 25 488 141 
L 488 750 
Q 750 597 1062 519 
Q 1375 441 1716 441 
Q 2309 441 2620 675 
Q 2931 909 2931 1356 
Q 2931 1769 2642 2001 
Q 2353 2234 1838 2234 
L 1294 2234 
L 1294 2753 
L 1863 2753 
Q 2328 2753 2575 2939 
Q 2822 3125 2822 3475 
Q 2822 3834 2567 4026 
Q 2313 4219 1838 4219 
Q 1578 4219 1281 4162 
Q 984 4106 628 3988 
L 628 4550 
Q 988 4650 1302 4700 
Q 1616 4750 1894 4750 
Q 2613 4750 3031 4423 
Q 3450 4097 3450 3541 
Q 3450 3153 3228 2886 
Q 3006 2619 2597 2516 
z
" transform="scale(0.015625)"/>
       </defs>
       <use xlink:href="#DejaVuSans-2212"/>
       <use xlink:href="#DejaVuSans-38" transform="translate(83.789062 0)"/>
       <use xlink:href="#DejaVuSans-2e" transform="translate(147.412109 0)"/>
       <use xlink:href="#DejaVuSans-33" transform="translate(179.199219 0)"/>
       <use xlink:href="#DejaVuSans-35" transform="translate(242.822266 0)"/>
      </g>
     </g>
    </g>
    <g id="ytick_4">
     <g id="line2d_19">
      <path d="M 139.845512 432.85773 
L 598.154488 432.85773 
" clip-path="url(#padfa649818)" style="fill: none; stroke: #b0b0b0; stroke-width: 0.8; stroke-linecap: square"/>
     </g>
     <g id="line2d_20">
      <g>
       <use xlink:href="#m27ca7517d0" x="139.845512" y="432.85773" style="stroke: #000000; stroke-width: 0.8"/>
      </g>
     </g>
     <g id="text_11">
      <!-- −8.30 -->
      <g transform="translate(102.2002 436.656948) scale(0.1 -0.1)">
       <use xlink:href="#DejaVuSans-2212"/>
       <use xlink:href="#DejaVuSans-38" transform="translate(83.789062 0)"/>
       <use xlink:href="#DejaVuSans-2e" transform="translate(147.412109 0)"/>
       <use xlink:href="#DejaVuSans-33" transform="translate(179.199219 0)"/>
       <use xlink:href="#DejaVuSans-30" transform="translate(242.822266 0)"/>
      </g>
     </g>
    </g>
    <g id="ytick_5">
     <g id="line2d_21">
      <path d="M 139.845512 345.481365 
L 598.154488 345.481365 
" clip-path="url(#padfa649818)" style="fill: none; stroke: #b0b0b0; stroke-width: 0.8; stroke-linecap: square"/>
     </g>
     <g id="line2d_22">
      <g>
       <use xlink:href="#m27ca7517d0" x="139.845512" y="345.481365" style="stroke: #000000; stroke-width: 0.8"/>
      </g>
     </g>
     <g id="text_12">
      <!-- −8.25 -->
      <g transform="translate(102.2002 349.280584) scale(0.1 -0.1)">
       <defs>
        <path id="DejaVuSans-32" d="M 1228 531 
L 3431 531 
L 3431 0 
L 469 0 
L 469 531 
Q 828 903 1448 1529 
Q 2069 2156 2228 2338 
Q 2531 2678 2651 2914 
Q 2772 3150 2772 3378 
Q 2772 3750 2511 3984 
Q 2250 4219 1831 4219 
Q 1534 4219 1204 4116 
Q 875 4013 500 3803 
L 500 4441 
Q 881 4594 1212 4672 
Q 1544 4750 1819 4750 
Q 2544 4750 2975 4387 
Q 3406 4025 3406 3419 
Q 3406 3131 3298 2873 
Q 3191 2616 2906 2266 
Q 2828 2175 2409 1742 
Q 1991 1309 1228 531 
z
" transform="scale(0.015625)"/>
       </defs>
       <use xlink:href="#DejaVuSans-2212"/>
       <use xlink:href="#DejaVuSans-38" transform="translate(83.789062 0)"/>
       <use xlink:href="#DejaVuSans-2e" transform="translate(147.412109 0)"/>
       <use xlink:href="#DejaVuSans-32" transform="translate(179.199219 0)"/>
       <use xlink:href="#DejaVuSans-35" transform="translate(242.822266 0)"/>
      </g>
     </g>
    </g>
    <g id="ytick_6">
     <g id="line2d_23">
      <path d="M 139.845512 258.105001 
L 598.154488 258.105001 
" clip-path="url(#padfa649818)" style="fill: none; stroke: #b0b0b0; stroke-width: 0.8; stroke-linecap: square"/>
     </g>
     <g id="line2d_24">
      <g>
       <use xlink:href="#m27ca7517d0" x="139.845512" y="258.105001" style="stroke: #000000; stroke-width: 0.8"/>
      </g>
     </g>
     <g id="text_13">
      <!-- −8.20 -->
      <g transform="translate(102.2002 261.90422) scale(0.1 -0.1)">
       <use xlink:href="#DejaVuSans-2212"/>
       <use xlink:href="#DejaVuSans-38" transform="translate(83.789062 0)"/>
       <use xlink:href="#DejaVuSans-2e" transform="translate(147.412109 0)"/>
       <use xlink:href="#DejaVuSans-32" transform="translate(179.199219 0)"/>
       <use xlink:href="#DejaVuSans-30" transform="translate(242.822266 0)"/>
      </g>
     </g>
    </g>
    <g id="ytick_7">
     <g id="line2d_25">
      <path d="M 139.845512 170.728637 
L 598.154488 170.728637 
" clip-path="url(#padfa649818)" style="fill: none; stroke: #b0b0b0; stroke-width: 0.8; stroke-linecap: square"/>
     </g>
     <g id="line2d_26">
      <g>
       <use xlink:href="#m27ca7517d0" x="139.845512" y="170.728637" style="stroke: #000000; stroke-width: 0.8"/>
      </g>
     </g>
     <g id="text_14">
      <!-- −8.15 -->
      <g transform="translate(102.2002 174.527856) scale(0.1 -0.1)">
       <use xlink:href="#DejaVuSans-2212"/>
       <use xlink:href="#DejaVuSans-38" transform="translate(83.789062 0)"/>
       <use xlink:href="#DejaVuSans-2e" transform="translate(147.412109 0)"/>
       <use xlink:href="#DejaVuSans-31" transform="translate(179.199219 0)"/>
       <use xlink:href="#DejaVuSans-35" transform="translate(242.822266 0)"/>
      </g>
     </g>
    </g>
    <g id="text_15">
     <!-- Latitude (°) -->
     <g transform="translate(96.120512 464.889531) rotate(-90) scale(0.1 -0.1)">
      <defs>
       <path id="DejaVuSans-61" d="M 2194 1759 
Q 1497 1759 1228 1600 
Q 959 1441 959 1056 
Q 959 750 1161 570 
Q 1363 391 1709 391 
Q 2188 391 2477 730 
Q 2766 1069 2766 1631 
L 2766 1759 
L 2194 1759 
z
M 3341 1997 
L 3341 0 
L 2766 0 
L 2766 531 
Q 2569 213 2275 61 
Q 1981 -91 1556 -91 
Q 1019 -91 701 211 
Q 384 513 384 1019 
Q 384 1609 779 1909 
Q 1175 2209 1959 2209 
L 2766 2209 
L 2766 2266 
Q 2766 2663 2505 2880 
Q 2244 3097 1772 3097 
Q 1472 3097 1187 3025 
Q 903 2953 641 2809 
L 641 3341 
Q 956 3463 1253 3523 
Q 1550 3584 1831 3584 
Q 2591 3584 2966 3190 
Q 3341 2797 3341 1997 
z
" transform="scale(0.015625)"/>
      </defs>
      <use xlink:href="#DejaVuSans-4c"/>
      <use xlink:href="#DejaVuSans-61" transform="translate(55.712891 0)"/>
      <use xlink:href="#DejaVuSans-74" transform="translate(116.992188 0)"/>
      <use xlink:href="#DejaVuSans-69" transform="translate(156.201172 0)"/>
      <use xlink:href="#DejaVuSans-74" transform="translate(183.984375 0)"/>
      <use xlink:href="#DejaVuSans-75" transform="translate(223.193359 0)"/>
      <use xlink:href="#DejaVuSans-64" transform="translate(286.572266 0)"/>
      <use xlink:href="#DejaVuSans-65" transform="translate(350.048828 0)"/>
      <use xlink:href="#DejaVuSans-20" transform="translate(411.572266 0)"/>
      <use xlink:href="#DejaVuSans-28" transform="translate(443.359375 0)"/>
      <use xlink:href="#DejaVuSans-b0" transform="translate(482.373047 0)"/>
      <use xlink:href="#DejaVuSans-29" transform="translate(532.373047 0)"/>
     </g>
    </g>
   </g>
   <g id="patch_3">
    <path d="M 139.845512 768.96 
L 139.845512 103.68 
" style="fill: none; stroke: #000000; stroke-width: 0.8; stroke-linejoin: miter; stroke-linecap: square"/>
   </g>
   <g id="patch_4">
    <path d="M 598.154488 768.96 
L 598.154488 103.68 
" style="fill: none; stroke: #000000; stroke-width: 0.8; stroke-linejoin: miter; stroke-linecap: square"/>
   </g>
   <g id="patch_5">
    <path d="M 139.845512 768.96 
L 598.154488 768.96 
" style="fill: none; stroke: #000000; stroke-width: 0.8; stroke-linejoin: miter; stroke-linecap: square"/>
   </g>
   <g id="patch_6">
    <path d="M 139.845512 103.68 
L 598.154488 103.68 
" style="fill: none; stroke: #000000; stroke-width: 0.8; stroke-linejoin: miter; stroke-linecap: square"/>
   </g>
   <g id="legend_1">
    <g id="patch_7">
     <path d="M 306.458594 924.694125 
L 431.541406 924.694125 
Q 433.541406 924.694125 433.541406 922.694125 
L 433.541406 909.016 
Q 433.541406 907.016 431.541406 907.016 
L 306.458594 907.016 
Q 304.458594 907.016 304.458594 909.016 
L 304.458594 922.694125 
Q 304.458594 924.694125 306.458594 924.694125 
z
" style="fill: #ffffff; opacity: 0.8; stroke: #cccccc; stroke-linejoin: miter"/>
    </g>
    <g id="line2d_27">
     <defs>
      <path id="m2a696c7f81" d="M 0 5 
C 1.326016 5 2.597899 4.473168 3.535534 3.535534 
C 4.473168 2.597899 5 1.326016 5 0 
C 5 -1.326016 4.473168 -2.597899 3.535534 -3.535534 
C 2.597899 -4.473168 1.326016 -5 0 -5 
C -1.326016 -5 -2.597899 -4.473168 -3.535534 -3.535534 
C -4.473168 -2.597899 -5 -1.326016 -5 0 
C -5 1.326016 -4.473168 2.597899 -3.535534 3.535534 
C -2.597899 4.473168 -1.326016 5 0 5 
z
"/>
     </defs>
     <g>
      <use xlink:href="#m2a696c7f81" x="318.458594" y="915.114438" style="fill: #b3e2cd; fill-opacity: 0.65"/>
     </g>
    </g>
    <g id="text_16">
     <!-- PA NOVO DESTINO -->
     <g transform="translate(336.458594 918.614438) scale(0.1 -0.1)">
      <defs>
       <path id="DejaVuSans-50" d="M 1259 4147 
L 1259 2394 
L 2053 2394 
Q 2494 2394 2734 2622 
Q 2975 2850 2975 3272 
Q 2975 3691 2734 3919 
Q 2494 4147 2053 4147 
L 1259 4147 
z
M 628 4666 
L 2053 4666 
Q 2838 4666 3239 4311 
Q 3641 3956 3641 3272 
Q 3641 2581 3239 2228 
Q 2838 1875 2053 1875 
L 1259 1875 
L 1259 0 
L 628 0 
L 628 4666 
z
" transform="scale(0.015625)"/>
       <path id="DejaVuSans-41" d="M 2188 4044 
L 1331 1722 
L 3047 1722 
L 2188 4044 
z
M 1831 4666 
L 2547 4666 
L 4325 0 
L 3669 0 
L 3244 1197 
L 1141 1197 
L 716 0 
L 50 0 
L 1831 4666 
z
" transform="scale(0.015625)"/>
       <path id="DejaVuSans-4e" d="M 628 4666 
L 1478 4666 
L 3547 763 
L 3547 4666 
L 4159 4666 
L 4159 0 
L 3309 0 
L 1241 3903 
L 1241 0 
L 628 0 
L 628 4666 
z
" transform="scale(0.015625)"/>
       <path id="DejaVuSans-4f" d="M 2522 4238 
Q 1834 4238 1429 3725 
Q 1025 3213 1025 2328 
Q 1025 1447 1429 934 
Q 1834 422 2522 422 
Q 3209 422 3611 934 
Q 4013 1447 4013 2328 
Q 4013 3213 3611 3725 
Q 3209 4238 2522 4238 
z
M 2522 4750 
Q 3503 4750 4090 4092 
Q 4678 3434 4678 2328 
Q 4678 1225 4090 567 
Q 3503 -91 2522 -91 
Q 1538 -91 948 565 
Q 359 1222 359 2328 
Q 359 3434 948 4092 
Q 1538 4750 2522 4750 
z
" transform="scale(0.015625)"/>
       <path id="DejaVuSans-56" d="M 1831 0 
L 50 4666 
L 709 4666 
L 2188 738 
L 3669 4666 
L 4325 4666 
L 2547 0 
L 1831 0 
z
" transform="scale(0.015625)"/>
       <path id="DejaVuSans-44" d="M 1259 4147 
L 1259 519 
L 2022 519 
Q 2988 519 3436 956 
Q 3884 1394 3884 2338 
Q 3884 3275 3436 3711 
Q 2988 4147 2022 4147 
L 1259 4147 
z
M 628 4666 
L 1925 4666 
Q 3281 4666 3915 4102 
Q 4550 3538 4550 2338 
Q 4550 1131 3912 565 
Q 3275 0 1925 0 
L 628 0 
L 628 4666 
z
" transform="scale(0.015625)"/>
       <path id="DejaVuSans-45" d="M 628 4666 
L 3578 4666 
L 3578 4134 
L 1259 4134 
L 1259 2753 
L 3481 2753 
L 3481 2222 
L 1259 2222 
L 1259 531 
L 3634 531 
L 3634 0 
L 628 0 
L 628 4666 
z
" transform="scale(0.015625)"/>
       <path id="DejaVuSans-53" d="M 3425 4513 
L 3425 3897 
Q 3066 4069 2747 4153 
Q 2428 4238 2131 4238 
Q 1616 4238 1336 4038 
Q 1056 3838 1056 3469 
Q 1056 3159 1242 3001 
Q 1428 2844 1947 2747 
L 2328 2669 
Q 3034 2534 3370 2195 
Q 3706 1856 3706 1288 
Q 3706 609 3251 259 
Q 2797 -91 1919 -91 
Q 1588 -91 1214 -16 
Q 841 59 441 206 
L 441 856 
Q 825 641 1194 531 
Q 1563 422 1919 422 
Q 2459 422 2753 634 
Q 3047 847 3047 1241 
Q 3047 1584 2836 1778 
Q 2625 1972 2144 2069 
L 1759 2144 
Q 1053 2284 737 2584 
Q 422 2884 422 3419 
Q 422 4038 858 4394 
Q 1294 4750 2059 4750 
Q 2388 4750 2728 4690 
Q 3069 4631 3425 4513 
z
" transform="scale(0.015625)"/>
       <path id="DejaVuSans-54" d="M -19 4666 
L 3928 4666 
L 3928 4134 
L 2272 4134 
L 2272 0 
L 1638 0 
L 1638 4134 
L -19 4134 
L -19 4666 
z
" transform="scale(0.015625)"/>
       <path id="DejaVuSans-49" d="M 628 4666 
L 1259 4666 
L 1259 0 
L 628 0 
L 628 4666 
z
" transform="scale(0.015625)"/>
      </defs>
      <use xlink:href="#DejaVuSans-50"/>
      <use xlink:href="#DejaVuSans-41" transform="translate(53.927734 0)"/>
      <use xlink:href="#DejaVuSans-20" transform="translate(122.335938 0)"/>
      <use xlink:href="#DejaVuSans-4e" transform="translate(154.123047 0)"/>
      <use xlink:href="#DejaVuSans-4f" transform="translate(228.927734 0)"/>
      <use xlink:href="#DejaVuSans-56" transform="translate(305.888672 0)"/>
      <use xlink:href="#DejaVuSans-4f" transform="translate(372.546875 0)"/>
      <use xlink:href="#DejaVuSans-20" transform="translate(451.257812 0)"/>
      <use xlink:href="#DejaVuSans-44" transform="translate(483.044922 0)"/>
      <use xlink:href="#DejaVuSans-45" transform="translate(560.046875 0)"/>
      <use xlink:href="#DejaVuSans-53" transform="translate(623.230469 0)"/>
      <use xlink:href="#DejaVuSans-54" transform="translate(686.707031 0)"/>
      <use xlink:href="#DejaVuSans-49" transform="translate(747.791016 0)"/>
      <use xlink:href="#DejaVuSans-4e" transform="translate(777.283203 0)"/>
      <use xlink:href="#DejaVuSans-4f" transform="translate(852.087891 0)"/>
     </g>
    </g>
   </g>
  </g>
 </g>
 <defs>
  <clipPath id="padfa649818">
   <rect x="139.845512" y="103.68" width="458.308975" height="665.28"/>
  </clipPath>
 </defs>
</svg>
