<?xml version="1.0" encoding="utf-8" standalone="no"?>
<!DOCTYPE svg PUBLIC "-//W3C//DTD SVG 1.1//EN"
  "http://www.w3.org/Graphics/SVG/1.1/DTD/svg11.dtd">
<svg xmlns:xlink="http://www.w3.org/1999/xlink" width="720pt" height="864pt" viewBox="0 0 720 864" xmlns="http://www.w3.org/2000/svg" version="1.1">
 <metadata>
  <rdf:RDF xmlns:dc="http://purl.org/dc/elements/1.1/" xmlns:cc="http://creativecommons.org/ns#" xmlns:rdf="http://www.w3.org/1999/02/22-rdf-syntax-ns#">
   <cc:Work>
    <dc:type rdf:resource="http://purl.org/dc/dcmitype/StillImage"/>
    <dc:date>2025-06-16T15:22:11.902320</dc:date>
    <dc:format>image/svg+xml</dc:format>
    <dc:creator>
     <cc:Agent>
      <dc:title>Matplotlib v3.10.1, https://matplotlib.org/</dc:title>
     </cc:Agent>
    </dc:creator>
   </cc:Work>
  </rdf:RDF>
 </metadata>
 <defs>
  <style type="text/css">*{stroke-linejoin: round; stroke-linecap: butt}</style>
 </defs>
 <g id="figure_1">
  <g id="patch_1">
   <path d="M 0 864 
L 720 864 
L 720 0 
L 0 0 
z
" style="fill: #ffffff"/>
  </g>
  <g id="axes_1">
   <g id="patch_2">
    <path d="M 90 651.572851 
L 648 651.572851 
L 648 221.067149 
L 90 221.067149 
z
" style="fill: #ffffff"/>
   </g>
   <g id="PatchCollection_1">
    <path d="M 126.395778 348.869168 
L 131.39188 349.581914 
L 135.476343 352.025021 
L 136.896425 353.674069 
L 138.186276 356.221817 
L 138.665105 358.67534 
L 138.610901 367.996475 
L 137.971962 375.34838 
L 138.158858 382.918375 
L 140.030211 390.791252 
L 142.288105 394.57748 
L 145.035801 397.689574 
L 148.3537 400.56437 
L 155.775377 403.76011 
L 163.078357 405.340081 
L 170.474349 406.205079 
L 178.088574 405.097185 
L 184.86713 402.448217 
L 191.182041 398.935577 
L 198.20035 392.094563 
L 198.684038 395.299082 
L 201.986613 395.960885 
L 202.279915 396.434155 
L 201.827166 398.769989 
L 203.758246 398.711635 
L 204.39182 401.27016 
L 205.937013 402.049329 
L 205.71818 403.462858 
L 206.690629 404.41913 
L 206.017673 405.591736 
L 206.198149 406.7978 
L 207.092498 407.360891 
L 206.714038 407.640158 
L 206.764463 412.621466 
L 205.976276 414.205789 
L 206.429408 415.143032 
L 204.557217 416.908838 
L 202.473756 417.036508 
L 202.973919 420.248136 
L 202.17316 421.482183 
L 202.590549 423.112043 
L 202.039918 425.690783 
L 202.166552 426.170775 
L 201.347569 426.542296 
L 201.85682 428.31264 
L 201.076477 429.097037 
L 200.033508 431.134785 
L 200.094479 432.506958 
L 196.688461 432.807775 
L 198.298357 434.904173 
L 197.919415 435.486893 
L 198.280483 436.580011 
L 197.326796 437.933331 
L 199.069466 440.331174 
L 198.561836 444.171628 
L 199.682657 444.432741 
L 199.313615 445.050705 
L 199.520729 445.887854 
L 196.323936 446.551174 
L 196.980304 447.890631 
L 184.852799 449.698345 
L 178.692052 445.700097 
L 172.545067 441.519591 
L 156.578476 430.60374 
L 157.367015 423.62061 
L 157.225627 418.670006 
L 153.252584 412.056764 
L 147.652865 403.686508 
L 143.423284 398.296333 
L 136.060511 391.180334 
L 126.957535 382.318213 
L 118.751999 373.489054 
L 115.363636 362.53859 
L 115.521928 354.346433 
L 116.750973 351.271005 
L 120.621187 349.609184 
L 126.395778 348.869168 
" clip-path="url(#p89e3461412)" style="fill: #e0bd1f; stroke: #0000ff; stroke-width: 0.5"/>
    <path d="M 156.578476 430.60374 
L 172.545067 441.519591 
L 167.069492 449.748131 
L 151.108141 439.795689 
L 153.831691 434.31156 
L 156.578476 430.60374 
" clip-path="url(#p89e3461412)" style="fill: #e0bd1f; stroke: #0000ff; stroke-width: 0.5"/>
    <path d="M 221.882364 412.852934 
L 229.219138 422.46831 
L 210.818076 433.84627 
L 206.296046 443.318695 
L 200.346825 440.890068 
L 200.160613 440.051092 
L 198.614732 437.923712 
L 199.439237 436.753848 
L 199.070346 435.637584 
L 199.58057 434.853527 
L 198.684789 433.687459 
L 201.1832 433.466472 
L 201.08981 431.367452 
L 201.930566 429.725055 
L 203.032195 428.617439 
L 202.603213 427.126415 
L 203.404426 426.76277 
L 203.114156 425.664706 
L 203.664259 423.090172 
L 203.300019 421.668878 
L 204.068349 420.484771 
L 203.684186 418.016089 
L 204.996964 417.935742 
L 209.226006 416.611756 
L 221.882364 412.852934 
" clip-path="url(#p89e3461412)" style="fill: #e0bd1f; stroke: #0000ff; stroke-width: 0.5"/>
    <path d="M 200.346825 440.890068 
L 206.296046 443.318695 
L 218.722081 450.040077 
L 223.731719 455.958252 
L 209.678168 476.32736 
L 186.757272 462.020728 
L 196.980304 447.890631 
L 198.030487 447.926602 
L 197.933219 447.29122 
L 200.798184 446.69656 
L 200.43215 445.219254 
L 201.31879 443.734404 
L 199.722841 443.362518 
L 200.346825 440.890068 
" clip-path="url(#p89e3461412)" style="fill: #e0bd1f; stroke: #0000ff; stroke-width: 0.5"/>
    <path d="M 178.692052 445.700097 
L 184.852799 449.698345 
L 196.980304 447.890631 
L 186.757272 462.020728 
L 175.813337 454.972655 
L 178.692052 445.700097 
" clip-path="url(#p89e3461412)" style="fill: #e0bd1f; stroke: #0000ff; stroke-width: 0.5"/>
    <path d="M 172.545067 441.519591 
L 178.692052 445.700097 
L 175.813337 454.972655 
L 167.069492 449.748131 
L 172.545067 441.519591 
" clip-path="url(#p89e3461412)" style="fill: #e0bd1f; stroke: #0000ff; stroke-width: 0.5"/>
    <path d="M 245.709913 240.63559 
L 251.610366 241.803535 
L 256.336816 243.28862 
L 261.943322 243.823633 
L 267.122987 244.865077 
L 270.765408 247.35367 
L 268.149983 253.347836 
L 267.600636 259.739316 
L 262.76525 266.082071 
L 259.937753 272.721387 
L 257.280914 279.987968 
L 255.424197 286.711248 
L 253.821009 292.737836 
L 251.969884 299.22313 
L 250.706357 305.051393 
L 249.633147 312.660819 
L 250.132265 320.537114 
L 252.000335 328.148437 
L 253.562084 331.956079 
L 258.991947 336.629762 
L 254.091086 363.581256 
L 259.428308 377.885589 
L 258.438977 380.457773 
L 257.642232 382.10051 
L 256.745715 382.475707 
L 254.093325 384.719694 
L 254.615992 385.218606 
L 254.303891 385.519233 
L 253.777465 386.824235 
L 254.210066 387.642062 
L 253.546898 389.949911 
L 251.208466 394.267807 
L 250.679247 396.250194 
L 249.230278 395.698613 
L 248.752781 397.27055 
L 248.100621 397.051342 
L 246.992971 398.707016 
L 245.475087 398.885892 
L 245.392948 399.869315 
L 243.929839 400.174183 
L 244.093347 401.832262 
L 244.428979 402.320801 
L 243.719618 403.298553 
L 242.490181 405.416428 
L 221.882364 412.852934 
L 229.219138 422.46831 
L 241.784966 433.847085 
L 243.397936 426.08237 
L 248.473421 422.261963 
L 262.994296 432.45528 
L 298.675308 449.558342 
L 296.952685 430.24803 
L 296.415174 417.354956 
L 295.059304 409.564945 
L 325.112076 421.812305 
L 352.845445 433.109569 
L 356.866175 434.671672 
L 357.661752 434.986873 
L 375.051579 442.168806 
L 373.035045 456.027671 
L 372.880683 456.952425 
L 370.834943 471.090268 
L 364.690332 523.239102 
L 377.486661 528.058431 
L 378.906234 525.34279 
L 379.452823 524.800326 
L 380.205312 521.708031 
L 380.263136 520.543931 
L 381.743872 517.238757 
L 381.908486 516.198304 
L 384.668221 506.574827 
L 384.98918 504.805262 
L 384.937775 503.670818 
L 385.676276 500.282678 
L 399.335587 505.721992 
L 407.030242 480.949872 
L 419.428587 486.953923 
L 416.276699 496.261228 
L 423.772964 499.048879 
L 420.264013 510.349008 
L 436.142837 516.287249 
L 452.56254 505.775909 
L 545.188121 516.311834 
L 605.669111 628.484178 
L 507.138823 607.967954 
L 484.906878 603.351274 
L 458.459008 597.676425 
L 425.697346 590.785612 
L 410.591774 587.783554 
L 397.772913 584.984148 
L 381.644526 581.624051 
L 373.553813 578.041372 
L 372.927935 577.767294 
L 359.086437 569.116771 
L 342.343958 558.630017 
L 325.980985 548.477184 
L 304.576693 535.131895 
L 247.405438 498.994399 
L 237.014487 493.284724 
L 229.269775 488.563619 
L 228.129131 487.777916 
L 219.356676 482.349999 
L 209.678168 476.32736 
L 186.757272 462.020728 
L 175.813337 454.972655 
L 167.069492 449.748131 
L 151.108141 439.795689 
L 153.831691 434.31156 
L 156.578476 430.60374 
L 157.367015 423.62061 
L 157.225627 418.670006 
L 153.252584 412.056764 
L 147.652865 403.686508 
L 143.423284 398.296333 
L 136.060511 391.180334 
L 126.957535 382.318213 
L 118.751999 373.489054 
L 115.363636 362.53859 
L 115.521928 354.346433 
L 116.750973 351.271005 
L 120.621187 349.609184 
L 126.395778 348.869168 
L 131.39188 349.581914 
L 135.476343 352.025021 
L 136.896425 353.674069 
L 138.186276 356.221817 
L 138.665105 358.67534 
L 138.610901 367.996475 
L 137.971962 375.34838 
L 138.158858 382.918375 
L 140.030211 390.791252 
L 142.288105 394.57748 
L 145.035801 397.689574 
L 148.3537 400.56437 
L 155.775377 403.76011 
L 163.078357 405.340081 
L 170.474349 406.205079 
L 178.088574 405.097185 
L 184.86713 402.448217 
L 191.182041 398.935577 
L 198.20035 392.094563 
L 199.738389 391.852921 
L 204.206603 387.87689 
L 208.896155 382.967216 
L 213.333367 377.596638 
L 217.918797 373.177799 
L 220.985511 367.050768 
L 226.76829 359.118739 
L 230.646511 353.022986 
L 233.863315 345.667192 
L 235.150086 337.663752 
L 233.302063 333.113292 
L 232.881896 328.118844 
L 229.381533 324.234414 
L 225.394754 321.625537 
L 217.966125 318.786335 
L 207.990169 316.351876 
L 203.480922 314.308454 
L 201.489763 311.530204 
L 201.420707 307.079004 
L 203.125986 301.960582 
L 205.955678 296.181581 
L 208.911164 290.516257 
L 212.865486 285.995224 
L 217.304853 281.051661 
L 221.877882 275.372662 
L 226.155639 270.187551 
L 228.455859 263.318413 
L 231.553136 255.79318 
L 233.065809 248.878014 
L 235.122375 244.214686 
L 238.306363 241.381783 
L 245.709913 240.63559 
" clip-path="url(#p89e3461412)" style="fill: #e0bd1f; stroke: #0000ff; stroke-width: 0.5"/>
    <path d="M 245.709913 240.63559 
L 251.610366 241.803535 
L 256.336816 243.28862 
L 260.517055 254.461132 
L 267.600636 259.739316 
L 262.76525 266.082071 
L 259.937753 272.721387 
L 257.280914 279.987968 
L 255.424197 286.711248 
L 253.821009 292.737836 
L 251.969884 299.22313 
L 250.706357 305.051393 
L 249.633147 312.660819 
L 250.132265 320.537114 
L 252.000335 328.148437 
L 253.562084 331.956079 
L 258.991947 336.629762 
L 233.302063 333.113292 
L 232.881896 328.118844 
L 229.381533 324.234414 
L 225.394754 321.625537 
L 217.966125 318.786335 
L 207.990169 316.351876 
L 203.480922 314.308454 
L 201.489763 311.530204 
L 201.420707 307.079004 
L 203.125986 301.960582 
L 205.955678 296.181581 
L 208.911164 290.516257 
L 212.865486 285.995224 
L 217.304853 281.051661 
L 221.877882 275.372662 
L 226.155639 270.187551 
L 228.455859 263.318413 
L 231.553136 255.79318 
L 233.065809 248.878014 
L 235.122375 244.214686 
L 238.306363 241.381783 
L 245.709913 240.63559 
" clip-path="url(#p89e3461412)" style="fill: #e0bd1f; stroke: #0000ff; stroke-width: 0.5"/>
    <path d="M 229.219138 422.46831 
L 241.784966 433.847085 
L 218.722081 450.040077 
L 206.296046 443.318695 
L 210.818076 433.84627 
L 229.219138 422.46831 
" clip-path="url(#p89e3461412)" style="fill: #e0bd1f; stroke: #0000ff; stroke-width: 0.5"/>
    <path d="M 237.247001 449.730634 
L 219.356676 482.349999 
L 209.678168 476.32736 
L 223.731719 455.958252 
L 226.994068 459.675562 
L 232.094727 456.044327 
L 237.247001 449.730634 
" clip-path="url(#p89e3461412)" style="fill: #e0bd1f; stroke: #0000ff; stroke-width: 0.5"/>
    <path d="M 233.302063 333.113292 
L 258.991947 336.629762 
L 254.091086 363.581256 
L 241.480317 365.366725 
L 242.878785 376.899822 
L 239.508488 388.853945 
L 251.208466 394.267807 
L 250.679247 396.250194 
L 249.230278 395.698613 
L 248.752781 397.27055 
L 248.100621 397.051342 
L 246.992971 398.707016 
L 245.475087 398.885892 
L 245.392948 399.869315 
L 243.929839 400.174183 
L 244.093347 401.832262 
L 244.428979 402.320801 
L 243.719618 403.298553 
L 242.490181 405.416428 
L 221.882364 412.852934 
L 238.135917 386.940522 
L 217.918797 373.177799 
L 220.985511 367.050768 
L 226.76829 359.118739 
L 230.646511 353.022986 
L 233.863315 345.667192 
L 235.150086 337.663752 
L 233.302063 333.113292 
" clip-path="url(#p89e3461412)" style="fill: #e0bd1f; stroke: #0000ff; stroke-width: 0.5"/>
    <path d="M 241.784966 433.847085 
L 248.777054 444.123715 
L 237.247001 449.730634 
L 232.094727 456.044327 
L 226.994068 459.675562 
L 223.731719 455.958252 
L 218.722081 450.040077 
L 241.784966 433.847085 
" clip-path="url(#p89e3461412)" style="fill: #e0bd1f; stroke: #0000ff; stroke-width: 0.5"/>
    <path d="M 237.247001 449.730634 
L 246.812408 452.820661 
L 229.622418 485.086723 
L 228.129131 487.777916 
L 219.356676 482.349999 
L 237.247001 449.730634 
" clip-path="url(#p89e3461412)" style="fill: #e0bd1f; stroke: #0000ff; stroke-width: 0.5"/>
    <path d="M 302.073428 247.623653 
L 304.397597 249.352963 
L 306.736062 254.793993 
L 309.269853 260.812598 
L 311.003634 266.787865 
L 312.948473 273.238688 
L 316.284028 280.533904 
L 321.136682 283.324915 
L 394.154936 413.170108 
L 449.308098 460.880451 
L 452.56254 505.775909 
L 436.142837 516.287249 
L 420.264013 510.349008 
L 423.772964 499.048879 
L 416.276699 496.261228 
L 419.428587 486.953923 
L 407.030242 480.949872 
L 399.335587 505.721992 
L 385.676276 500.282678 
L 384.937775 503.670818 
L 384.98918 504.805262 
L 384.668221 506.574827 
L 381.908486 516.198304 
L 381.743872 517.238757 
L 380.263136 520.543931 
L 380.205312 521.708031 
L 379.452823 524.800326 
L 378.906234 525.34279 
L 377.486661 528.058431 
L 364.690332 523.239102 
L 370.834943 471.090268 
L 372.880683 456.952425 
L 373.035045 456.027671 
L 375.051579 442.168806 
L 357.661752 434.986873 
L 356.866175 434.671672 
L 352.845445 433.109569 
L 325.112076 421.812305 
L 295.059304 409.564945 
L 296.415174 417.354956 
L 296.952685 430.24803 
L 298.675308 449.558342 
L 262.994296 432.45528 
L 248.473421 422.261963 
L 243.397936 426.08237 
L 241.784966 433.847085 
L 229.219138 422.46831 
L 221.882364 412.852934 
L 242.490181 405.416428 
L 243.719618 403.298553 
L 244.428979 402.320801 
L 244.093347 401.832262 
L 243.929839 400.174183 
L 245.392948 399.869315 
L 245.475087 398.885892 
L 246.992971 398.707016 
L 248.100621 397.051342 
L 248.752781 397.27055 
L 249.230278 395.698613 
L 250.679247 396.250194 
L 251.208466 394.267807 
L 253.546898 389.949911 
L 254.210066 387.642062 
L 253.777465 386.824235 
L 254.303891 385.519233 
L 254.615992 385.218606 
L 254.093325 384.719694 
L 256.745715 382.475707 
L 257.642232 382.10051 
L 258.438977 380.457773 
L 259.428308 377.885589 
L 254.091086 363.581256 
L 258.991947 336.629762 
L 263.601371 341.296325 
L 268.687244 342.691133 
L 274.028098 341.517989 
L 278.152967 339.057129 
L 280.998177 336.048502 
L 285.084042 330.213523 
L 288.325845 323.55573 
L 290.70744 316.445107 
L 292.209552 309.683158 
L 292.675977 303.735235 
L 292.232898 296.423038 
L 291.232699 289.492586 
L 289.71476 282.632292 
L 288.115361 276.176118 
L 287.072382 270.088955 
L 286.977473 264.605605 
L 288.307479 259.011365 
L 290.363555 254.368962 
L 293.154102 250.604766 
L 297.92576 248.251232 
L 302.073428 247.623653 
" clip-path="url(#p89e3461412)" style="fill: #e0bd1f; stroke: #0000ff; stroke-width: 0.5"/>
    <path d="M 229.622418 485.086723 
L 230.797102 485.754115 
L 229.269775 488.563619 
L 228.129131 487.777916 
L 229.622418 485.086723 
" clip-path="url(#p89e3461412)" style="fill: #e0bd1f; stroke: #0000ff; stroke-width: 0.5"/>
    <path d="M 248.473421 422.261963 
L 262.994296 432.45528 
L 255.507817 455.55269 
L 246.197241 474.933197 
L 247.405438 498.994399 
L 237.014487 493.284724 
L 229.269775 488.563619 
L 230.797102 485.754115 
L 229.622418 485.086723 
L 246.812408 452.820661 
L 237.247001 449.730634 
L 248.777054 444.123715 
L 241.784966 433.847085 
L 243.397936 426.08237 
L 248.473421 422.261963 
" clip-path="url(#p89e3461412)" style="fill: #e0bd1f; stroke: #0000ff; stroke-width: 0.5"/>
    <path d="M 242.878785 376.899822 
L 259.428308 377.885589 
L 258.438977 380.457773 
L 257.642232 382.10051 
L 256.745715 382.475707 
L 254.093325 384.719694 
L 254.615992 385.218606 
L 254.303891 385.519233 
L 253.777465 386.824235 
L 254.210066 387.642062 
L 253.546898 389.949911 
L 251.208466 394.267807 
L 239.508488 388.853945 
L 242.878785 376.899822 
" clip-path="url(#p89e3461412)" style="fill: #e0bd1f; stroke: #0000ff; stroke-width: 0.5"/>
    <path d="M 262.994296 432.45528 
L 298.675308 449.558342 
L 304.576693 535.131895 
L 247.405438 498.994399 
L 246.197241 474.933197 
L 255.507817 455.55269 
L 262.994296 432.45528 
" clip-path="url(#p89e3461412)" style="fill: #e0bd1f; stroke: #0000ff; stroke-width: 0.5"/>
    <path d="M 295.059304 409.564945 
L 325.112076 421.812305 
L 325.980985 548.477184 
L 304.576693 535.131895 
L 298.675308 449.558342 
L 296.952685 430.24803 
L 296.415174 417.354956 
L 295.059304 409.564945 
" clip-path="url(#p89e3461412)" style="fill: #e0bd1f; stroke: #0000ff; stroke-width: 0.5"/>
    <path d="M 325.112076 421.812305 
L 352.845445 433.109569 
L 342.343958 558.630017 
L 325.980985 548.477184 
L 325.112076 421.812305 
" clip-path="url(#p89e3461412)" style="fill: #e0bd1f; stroke: #0000ff; stroke-width: 0.5"/>
    <path d="M 352.845445 433.109569 
L 356.866175 434.671672 
L 358.479548 437.697933 
L 359.411302 438.859156 
L 360.298727 441.328064 
L 362.776517 445.451341 
L 369.86984 453.403195 
L 371.417709 455.92504 
L 372.880683 456.952425 
L 370.834943 471.090268 
L 364.690332 523.239102 
L 377.486661 528.058431 
L 369.351051 544.840759 
L 359.086437 569.116771 
L 342.343958 558.630017 
L 352.845445 433.109569 
" clip-path="url(#p89e3461412)" style="fill: #e0bd1f; stroke: #0000ff; stroke-width: 0.5"/>
    <path d="M 357.661752 434.986873 
L 375.051579 442.168806 
L 373.035045 456.027671 
L 371.980742 455.349455 
L 370.520581 452.962293 
L 363.41551 444.990716 
L 361.001406 440.973712 
L 360.103554 438.460095 
L 359.127674 437.252304 
L 357.661752 434.986873 
" clip-path="url(#p89e3461412)" style="fill: #e0bd1f; stroke: #0000ff; stroke-width: 0.5"/>
    <path d="M 378.906234 525.34279 
L 381.413816 527.438341 
L 384.416616 529.326669 
L 389.825521 532.069288 
L 390.064016 533.170169 
L 389.048358 537.459072 
L 388.036339 539.736056 
L 387.743354 540.95026 
L 387.641931 542.063587 
L 388.022498 543.788288 
L 388.074946 545.443658 
L 387.473607 548.788479 
L 385.398492 556.051971 
L 384.060136 556.27426 
L 383.023715 557.687397 
L 381.343005 559.072055 
L 381.020253 559.724556 
L 379.494814 564.953527 
L 377.966167 567.801904 
L 376.215076 571.812712 
L 372.927935 577.767294 
L 359.086437 569.116771 
L 369.351051 544.840759 
L 377.486661 528.058431 
L 378.906234 525.34279 
" clip-path="url(#p89e3461412)" style="fill: #e0bd1f; stroke: #0000ff; stroke-width: 0.5"/>
    <path d="M 389.642389 558.018245 
L 381.644526 581.624051 
L 373.553813 578.041372 
L 377.10217 571.701688 
L 384.35244 559.417067 
L 389.642389 558.018245 
" clip-path="url(#p89e3461412)" style="fill: #e0bd1f; stroke: #0000ff; stroke-width: 0.5"/>
    <path d="M 385.202681 556.785531 
L 384.35244 559.417067 
L 377.10217 571.701688 
L 378.670908 568.148598 
L 380.223615 565.255529 
L 381.752715 560.013674 
L 381.969801 559.575168 
L 383.596143 558.235447 
L 384.507586 556.992643 
L 385.202681 556.785531 
" clip-path="url(#p89e3461412)" style="fill: #e0bd1f; stroke: #0000ff; stroke-width: 0.5"/>
    <path d="M 385.676276 500.282678 
L 399.335587 505.721992 
L 390.644007 531.684211 
L 384.801295 528.638437 
L 381.875545 526.798535 
L 379.452823 524.800326 
L 380.205312 521.708031 
L 380.263136 520.543931 
L 381.743872 517.238757 
L 381.908486 516.198304 
L 384.668221 506.574827 
L 384.98918 504.805262 
L 384.937775 503.670818 
L 385.676276 500.282678 
" clip-path="url(#p89e3461412)" style="fill: #e0bd1f; stroke: #0000ff; stroke-width: 0.5"/>
    <path d="M 389.642389 558.018245 
L 404.456956 563.078385 
L 397.772913 584.984148 
L 381.644526 581.624051 
L 389.642389 558.018245 
" clip-path="url(#p89e3461412)" style="fill: #e0bd1f; stroke: #0000ff; stroke-width: 0.5"/>
    <path d="M 390.644007 531.684211 
L 400.620769 536.345335 
L 389.642389 558.018245 
L 384.35244 559.417067 
L 385.202681 556.785531 
L 386.865787 556.588917 
L 388.254063 555.825738 
L 388.69533 554.347072 
L 388.611307 552.106595 
L 388.966739 550.381752 
L 389.700703 548.243204 
L 388.87577 545.384383 
L 388.802442 543.684824 
L 388.433604 542.012985 
L 388.518735 541.080041 
L 388.781086 539.992306 
L 389.79415 537.712955 
L 390.868455 533.179527 
L 390.644007 531.684211 
" clip-path="url(#p89e3461412)" style="fill: #e0bd1f; stroke: #0000ff; stroke-width: 0.5"/>
    <path d="M 388.074946 545.443658 
L 388.878493 548.222529 
L 388.209681 550.171778 
L 387.824389 552.040182 
L 387.907122 554.245684 
L 387.595932 555.28869 
L 386.609608 555.830928 
L 385.398492 556.051971 
L 387.473607 548.788479 
L 388.074946 545.443658 
" clip-path="url(#p89e3461412)" style="fill: #e0bd1f; stroke: #0000ff; stroke-width: 0.5"/>
    <path d="M 400.620769 536.345335 
L 410.527891 540.942694 
L 404.456956 563.078385 
L 389.642389 558.018245 
L 400.620769 536.345335 
" clip-path="url(#p89e3461412)" style="fill: #e0bd1f; stroke: #0000ff; stroke-width: 0.5"/>
    <path d="M 407.030242 480.949872 
L 419.428587 486.953923 
L 416.276699 496.261228 
L 400.620769 536.345335 
L 390.644007 531.684211 
L 399.335587 505.721992 
L 407.030242 480.949872 
" clip-path="url(#p89e3461412)" style="fill: #e0bd1f; stroke: #0000ff; stroke-width: 0.5"/>
    <path d="M 414.475682 524.911878 
L 425.342092 528.504796 
L 416.801073 561.106033 
L 410.591774 587.783554 
L 397.772913 584.984148 
L 404.456956 563.078385 
L 410.527891 540.942694 
L 414.475682 524.911878 
" clip-path="url(#p89e3461412)" style="fill: #e0bd1f; stroke: #0000ff; stroke-width: 0.5"/>
    <path d="M 217.918797 373.177799 
L 238.135917 386.940522 
L 221.882364 412.852934 
L 209.226006 416.611756 
L 204.996964 417.935742 
L 207.359552 415.707463 
L 207.619874 414.749149 
L 207.187693 414.119848 
L 207.811858 412.865164 
L 207.76437 408.169433 
L 208.954111 407.292487 
L 207.159928 406.162623 
L 207.105316 405.799173 
L 208.00163 404.237801 
L 206.833385 403.08917 
L 207.08685 401.452674 
L 205.289392 400.546322 
L 204.568282 397.63458 
L 203.103255 397.679059 
L 203.38455 396.228759 
L 202.634071 395.018092 
L 199.615681 394.413289 
L 199.738389 391.852921 
L 204.206603 387.87689 
L 208.896155 382.967216 
L 213.333367 377.596638 
L 217.918797 373.177799 
" clip-path="url(#p89e3461412)" style="fill: #e0bd1f; stroke: #0000ff; stroke-width: 0.5"/>
    <path d="M 254.091086 363.581256 
L 259.428308 377.885589 
L 242.878785 376.899822 
L 241.480317 365.366725 
L 254.091086 363.581256 
" clip-path="url(#p89e3461412)" style="fill: #e0bd1f; stroke: #0000ff; stroke-width: 0.5"/>
    <path d="M 256.336816 243.28862 
L 261.943322 243.823633 
L 267.122987 244.865077 
L 270.765408 247.35367 
L 268.149983 253.347836 
L 267.600636 259.739316 
L 260.517055 254.461132 
L 256.336816 243.28862 
" clip-path="url(#p89e3461412)" style="fill: #e0bd1f; stroke: #0000ff; stroke-width: 0.5"/>
    <path d="M 416.276699 496.261228 
L 423.772964 499.048879 
L 420.264013 510.349008 
L 414.475682 524.911878 
L 410.527891 540.942694 
L 400.620769 536.345335 
L 416.276699 496.261228 
" clip-path="url(#p89e3461412)" style="fill: #e0bd1f; stroke: #0000ff; stroke-width: 0.5"/>
    <path d="M 416.801073 561.106033 
L 429.388158 564.568545 
L 425.697346 590.785612 
L 410.591774 587.783554 
L 416.801073 561.106033 
" clip-path="url(#p89e3461412)" style="fill: #e0bd1f; stroke: #0000ff; stroke-width: 0.5"/>
    <path d="M 420.264013 510.349008 
L 436.142837 516.287249 
L 433.935287 532.10178 
L 425.342092 528.504796 
L 414.475682 524.911878 
L 420.264013 510.349008 
" clip-path="url(#p89e3461412)" style="fill: #e0bd1f; stroke: #0000ff; stroke-width: 0.5"/>
    <path d="M 425.342092 528.504796 
L 433.935287 532.10178 
L 429.388158 564.568545 
L 416.801073 561.106033 
L 425.342092 528.504796 
" clip-path="url(#p89e3461412)" style="fill: #e0bd1f; stroke: #0000ff; stroke-width: 0.5"/>
    <path d="M 452.56254 505.775909 
L 458.459008 597.676425 
L 425.697346 590.785612 
L 429.388158 564.568545 
L 433.935287 532.10178 
L 436.142837 516.287249 
L 452.56254 505.775909 
" clip-path="url(#p89e3461412)" style="fill: #e0bd1f; stroke: #0000ff; stroke-width: 0.5"/>
    <path d="M 440.256599 385.630441 
L 497.535054 394.880618 
L 546.898853 451.906354 
L 588.085858 458.711767 
L 622.636364 632.00441 
L 605.669111 628.484178 
L 545.188121 516.311834 
L 540.876919 505.962125 
L 542.103625 492.300368 
L 495.472205 490.958667 
L 441.417508 411.259338 
L 440.256599 385.630441 
" clip-path="url(#p89e3461412)" style="fill: #e0bd1f; stroke: #0000ff; stroke-width: 0.5"/>
    <path d="M 452.56254 505.775909 
L 545.188121 516.311834 
L 605.669111 628.484178 
L 507.138823 607.967954 
L 502.045611 546.393313 
L 480.771586 546.415081 
L 484.906878 603.351274 
L 458.459008 597.676425 
L 452.56254 505.775909 
" clip-path="url(#p89e3461412)" style="fill: #e0bd1f; stroke: #0000ff; stroke-width: 0.5"/>
    <path d="M 502.045611 546.393313 
L 507.138823 607.967954 
L 484.906878 603.351274 
L 480.771586 546.415081 
L 502.045611 546.393313 
" clip-path="url(#p89e3461412)" style="fill: #e0bd1f; stroke: #0000ff; stroke-width: 0.5"/>
   </g>
   <g id="PatchCollection_2">
    <path d="M 245.709913 240.63559 
L 251.610366 241.803535 
L 256.336816 243.28862 
L 261.943322 243.823633 
L 267.122987 244.865077 
L 270.765408 247.35367 
L 268.149983 253.347836 
L 267.600636 259.739316 
L 262.76525 266.082071 
L 259.937753 272.721387 
L 257.280914 279.987968 
L 251.969884 299.22313 
L 250.706357 305.051393 
L 249.633147 312.660819 
L 250.132265 320.537114 
L 252.000335 328.148437 
L 253.562084 331.956079 
L 258.991947 336.629762 
L 263.601371 341.296325 
L 268.687244 342.691133 
L 274.028098 341.517989 
L 278.152967 339.057129 
L 280.998177 336.048502 
L 285.084042 330.213523 
L 288.325845 323.55573 
L 290.70744 316.445107 
L 292.209552 309.683158 
L 292.675977 303.735235 
L 292.232898 296.423038 
L 291.232699 289.492586 
L 289.71476 282.632292 
L 288.115361 276.176118 
L 287.072382 270.088955 
L 286.977473 264.605605 
L 288.307479 259.011365 
L 290.363555 254.368962 
L 293.154102 250.604766 
L 297.92576 248.251232 
L 302.073428 247.623653 
L 304.397597 249.352963 
L 309.269853 260.812598 
L 312.948473 273.238688 
L 316.284028 280.533904 
L 321.136682 283.324915 
L 394.154936 413.170108 
L 449.308098 460.880451 
L 452.56254 505.775909 
L 545.188121 516.311834 
L 605.669111 628.484178 
L 484.906878 603.351274 
L 458.459008 597.676425 
L 425.697346 590.785612 
L 410.591774 587.783554 
L 397.772913 584.984148 
L 381.644526 581.624051 
L 372.927935 577.767294 
L 304.576693 535.131895 
L 247.405438 498.994399 
L 237.014487 493.284724 
L 228.129131 487.777916 
L 209.678168 476.32736 
L 186.757272 462.020728 
L 175.813337 454.972655 
L 167.069492 449.748131 
L 151.108141 439.795689 
L 153.831691 434.31156 
L 156.578476 430.60374 
L 157.367015 423.62061 
L 157.225627 418.670006 
L 153.252584 412.056764 
L 147.652865 403.686508 
L 143.423284 398.296333 
L 126.957535 382.318213 
L 118.751999 373.489054 
L 115.363636 362.53859 
L 115.521928 354.346433 
L 116.750973 351.271005 
L 120.621187 349.609184 
L 126.395778 348.869168 
L 131.39188 349.581914 
L 135.476343 352.025021 
L 136.896425 353.674069 
L 138.186276 356.221817 
L 138.665105 358.67534 
L 138.610901 367.996475 
L 137.971962 375.34838 
L 138.158858 382.918375 
L 140.030211 390.791252 
L 142.288105 394.57748 
L 145.035801 397.689574 
L 148.3537 400.56437 
L 155.775377 403.76011 
L 163.078357 405.340081 
L 170.474349 406.205079 
L 178.088574 405.097185 
L 184.86713 402.448217 
L 191.182041 398.935577 
L 198.20035 392.094563 
L 199.738389 391.852921 
L 204.206603 387.87689 
L 208.896155 382.967216 
L 213.333367 377.596638 
L 217.918797 373.177799 
L 220.985511 367.050768 
L 226.76829 359.118739 
L 230.646511 353.022986 
L 233.863315 345.667192 
L 235.150086 337.663752 
L 233.302063 333.113292 
L 232.881896 328.118844 
L 229.381533 324.234414 
L 225.394754 321.625537 
L 217.966125 318.786335 
L 207.990169 316.351876 
L 203.480922 314.308454 
L 201.489763 311.530204 
L 201.420707 307.079004 
L 203.125986 301.960582 
L 205.955678 296.181581 
L 208.911164 290.516257 
L 217.304853 281.051661 
L 226.155639 270.187551 
L 228.455859 263.318413 
L 231.553136 255.79318 
L 233.065809 248.878014 
L 235.122375 244.214686 
L 238.306363 241.381783 
L 245.709913 240.63559 
L 245.709913 240.63559 
" clip-path="url(#p89e3461412)" style="fill: none; stroke: #000000"/>
   </g>
   <g id="matplotlib.axis_1">
    <g id="xtick_1">
     <g id="line2d_1">
      <path d="M 147.272643 651.572851 
L 147.272643 221.067149 
" clip-path="url(#p89e3461412)" style="fill: none; stroke: #b0b0b0; stroke-width: 0.8; stroke-linecap: square"/>
     </g>
     <g id="line2d_2">
      <defs>
       <path id="m527412f4b6" d="M 0 0 
L 0 3.5 
" style="stroke: #000000; stroke-width: 0.8"/>
      </defs>
      <g>
       <use xlink:href="#m527412f4b6" x="147.272643" y="651.572851" style="stroke: #000000; stroke-width: 0.8"/>
      </g>
     </g>
     <g id="text_1">
      <!-- −69.275 -->
      <g transform="translate(133.890095 694.613199) rotate(-45) scale(0.1 -0.1)">
       <defs>
        <path id="DejaVuSans-2212" d="M 678 2272 
L 4684 2272 
L 4684 1741 
L 678 1741 
L 678 2272 
z
" transform="scale(0.015625)"/>
        <path id="DejaVuSans-36" d="M 2113 2584 
Q 1688 2584 1439 2293 
Q 1191 2003 1191 1497 
Q 1191 994 1439 701 
Q 1688 409 2113 409 
Q 2538 409 2786 701 
Q 3034 994 3034 1497 
Q 3034 2003 2786 2293 
Q 2538 2584 2113 2584 
z
M 3366 4563 
L 3366 3988 
Q 3128 4100 2886 4159 
Q 2644 4219 2406 4219 
Q 1781 4219 1451 3797 
Q 1122 3375 1075 2522 
Q 1259 2794 1537 2939 
Q 1816 3084 2150 3084 
Q 2853 3084 3261 2657 
Q 3669 2231 3669 1497 
Q 3669 778 3244 343 
Q 2819 -91 2113 -91 
Q 1303 -91 875 529 
Q 447 1150 447 2328 
Q 447 3434 972 4092 
Q 1497 4750 2381 4750 
Q 2619 4750 2861 4703 
Q 3103 4656 3366 4563 
z
" transform="scale(0.015625)"/>
        <path id="DejaVuSans-39" d="M 703 97 
L 703 672 
Q 941 559 1184 500 
Q 1428 441 1663 441 
Q 2288 441 2617 861 
Q 2947 1281 2994 2138 
Q 2813 1869 2534 1725 
Q 2256 1581 1919 1581 
Q 1219 1581 811 2004 
Q 403 2428 403 3163 
Q 403 3881 828 4315 
Q 1253 4750 1959 4750 
Q 2769 4750 3195 4129 
Q 3622 3509 3622 2328 
Q 3622 1225 3098 567 
Q 2575 -91 1691 -91 
Q 1453 -91 1209 -44 
Q 966 3 703 97 
z
M 1959 2075 
Q 2384 2075 2632 2365 
Q 2881 2656 2881 3163 
Q 2881 3666 2632 3958 
Q 2384 4250 1959 4250 
Q 1534 4250 1286 3958 
Q 1038 3666 1038 3163 
Q 1038 2656 1286 2365 
Q 1534 2075 1959 2075 
z
" transform="scale(0.015625)"/>
        <path id="DejaVuSans-2e" d="M 684 794 
L 1344 794 
L 1344 0 
L 684 0 
L 684 794 
z
" transform="scale(0.015625)"/>
        <path id="DejaVuSans-32" d="M 1228 531 
L 3431 531 
L 3431 0 
L 469 0 
L 469 531 
Q 828 903 1448 1529 
Q 2069 2156 2228 2338 
Q 2531 2678 2651 2914 
Q 2772 3150 2772 3378 
Q 2772 3750 2511 3984 
Q 2250 4219 1831 4219 
Q 1534 4219 1204 4116 
Q 875 4013 500 3803 
L 500 4441 
Q 881 4594 1212 4672 
Q 1544 4750 1819 4750 
Q 2544 4750 2975 4387 
Q 3406 4025 3406 3419 
Q 3406 3131 3298 2873 
Q 3191 2616 2906 2266 
Q 2828 2175 2409 1742 
Q 1991 1309 1228 531 
z
" transform="scale(0.015625)"/>
        <path id="DejaVuSans-37" d="M 525 4666 
L 3525 4666 
L 3525 4397 
L 1831 0 
L 1172 0 
L 2766 4134 
L 525 4134 
L 525 4666 
z
" transform="scale(0.015625)"/>
        <path id="DejaVuSans-35" d="M 691 4666 
L 3169 4666 
L 3169 4134 
L 1269 4134 
L 1269 2991 
Q 1406 3038 1543 3061 
Q 1681 3084 1819 3084 
Q 2600 3084 3056 2656 
Q 3513 2228 3513 1497 
Q 3513 744 3044 326 
Q 2575 -91 1722 -91 
Q 1428 -91 1123 -41 
Q 819 9 494 109 
L 494 744 
Q 775 591 1075 516 
Q 1375 441 1709 441 
Q 2250 441 2565 725 
Q 2881 1009 2881 1497 
Q 2881 1984 2565 2268 
Q 2250 2553 1709 2553 
Q 1456 2553 1204 2497 
Q 953 2441 691 2322 
L 691 4666 
z
" transform="scale(0.015625)"/>
       </defs>
       <use xlink:href="#DejaVuSans-2212"/>
       <use xlink:href="#DejaVuSans-36" transform="translate(83.789062 0)"/>
       <use xlink:href="#DejaVuSans-39" transform="translate(147.412109 0)"/>
       <use xlink:href="#DejaVuSans-2e" transform="translate(211.035156 0)"/>
       <use xlink:href="#DejaVuSans-32" transform="translate(242.822266 0)"/>
       <use xlink:href="#DejaVuSans-37" transform="translate(306.445312 0)"/>
       <use xlink:href="#DejaVuSans-35" transform="translate(370.068359 0)"/>
      </g>
     </g>
    </g>
    <g id="xtick_2">
     <g id="line2d_3">
      <path d="M 219.080873 651.572851 
L 219.080873 221.067149 
" clip-path="url(#p89e3461412)" style="fill: none; stroke: #b0b0b0; stroke-width: 0.8; stroke-linecap: square"/>
     </g>
     <g id="line2d_4">
      <g>
       <use xlink:href="#m527412f4b6" x="219.080873" y="651.572851" style="stroke: #000000; stroke-width: 0.8"/>
      </g>
     </g>
     <g id="text_2">
      <!-- −69.250 -->
      <g transform="translate(205.698325 694.613199) rotate(-45) scale(0.1 -0.1)">
       <defs>
        <path id="DejaVuSans-30" d="M 2034 4250 
Q 1547 4250 1301 3770 
Q 1056 3291 1056 2328 
Q 1056 1369 1301 889 
Q 1547 409 2034 409 
Q 2525 409 2770 889 
Q 3016 1369 3016 2328 
Q 3016 3291 2770 3770 
Q 2525 4250 2034 4250 
z
M 2034 4750 
Q 2819 4750 3233 4129 
Q 3647 3509 3647 2328 
Q 3647 1150 3233 529 
Q 2819 -91 2034 -91 
Q 1250 -91 836 529 
Q 422 1150 422 2328 
Q 422 3509 836 4129 
Q 1250 4750 2034 4750 
z
" transform="scale(0.015625)"/>
       </defs>
       <use xlink:href="#DejaVuSans-2212"/>
       <use xlink:href="#DejaVuSans-36" transform="translate(83.789062 0)"/>
       <use xlink:href="#DejaVuSans-39" transform="translate(147.412109 0)"/>
       <use xlink:href="#DejaVuSans-2e" transform="translate(211.035156 0)"/>
       <use xlink:href="#DejaVuSans-32" transform="translate(242.822266 0)"/>
       <use xlink:href="#DejaVuSans-35" transform="translate(306.445312 0)"/>
       <use xlink:href="#DejaVuSans-30" transform="translate(370.068359 0)"/>
      </g>
     </g>
    </g>
    <g id="xtick_3">
     <g id="line2d_5">
      <path d="M 290.889104 651.572851 
L 290.889104 221.067149 
" clip-path="url(#p89e3461412)" style="fill: none; stroke: #b0b0b0; stroke-width: 0.8; stroke-linecap: square"/>
     </g>
     <g id="line2d_6">
      <g>
       <use xlink:href="#m527412f4b6" x="290.889104" y="651.572851" style="stroke: #000000; stroke-width: 0.8"/>
      </g>
     </g>
     <g id="text_3">
      <!-- −69.225 -->
      <g transform="translate(277.506555 694.613199) rotate(-45) scale(0.1 -0.1)">
       <use xlink:href="#DejaVuSans-2212"/>
       <use xlink:href="#DejaVuSans-36" transform="translate(83.789062 0)"/>
       <use xlink:href="#DejaVuSans-39" transform="translate(147.412109 0)"/>
       <use xlink:href="#DejaVuSans-2e" transform="translate(211.035156 0)"/>
       <use xlink:href="#DejaVuSans-32" transform="translate(242.822266 0)"/>
       <use xlink:href="#DejaVuSans-32" transform="translate(306.445312 0)"/>
       <use xlink:href="#DejaVuSans-35" transform="translate(370.068359 0)"/>
      </g>
     </g>
    </g>
    <g id="xtick_4">
     <g id="line2d_7">
      <path d="M 362.697334 651.572851 
L 362.697334 221.067149 
" clip-path="url(#p89e3461412)" style="fill: none; stroke: #b0b0b0; stroke-width: 0.8; stroke-linecap: square"/>
     </g>
     <g id="line2d_8">
      <g>
       <use xlink:href="#m527412f4b6" x="362.697334" y="651.572851" style="stroke: #000000; stroke-width: 0.8"/>
      </g>
     </g>
     <g id="text_4">
      <!-- −69.200 -->
      <g transform="translate(349.314785 694.613199) rotate(-45) scale(0.1 -0.1)">
       <use xlink:href="#DejaVuSans-2212"/>
       <use xlink:href="#DejaVuSans-36" transform="translate(83.789062 0)"/>
       <use xlink:href="#DejaVuSans-39" transform="translate(147.412109 0)"/>
       <use xlink:href="#DejaVuSans-2e" transform="translate(211.035156 0)"/>
       <use xlink:href="#DejaVuSans-32" transform="translate(242.822266 0)"/>
       <use xlink:href="#DejaVuSans-30" transform="translate(306.445312 0)"/>
       <use xlink:href="#DejaVuSans-30" transform="translate(370.068359 0)"/>
      </g>
     </g>
    </g>
    <g id="xtick_5">
     <g id="line2d_9">
      <path d="M 434.505564 651.572851 
L 434.505564 221.067149 
" clip-path="url(#p89e3461412)" style="fill: none; stroke: #b0b0b0; stroke-width: 0.8; stroke-linecap: square"/>
     </g>
     <g id="line2d_10">
      <g>
       <use xlink:href="#m527412f4b6" x="434.505564" y="651.572851" style="stroke: #000000; stroke-width: 0.8"/>
      </g>
     </g>
     <g id="text_5">
      <!-- −69.175 -->
      <g transform="translate(421.123015 694.613199) rotate(-45) scale(0.1 -0.1)">
       <defs>
        <path id="DejaVuSans-31" d="M 794 531 
L 1825 531 
L 1825 4091 
L 703 3866 
L 703 4441 
L 1819 4666 
L 2450 4666 
L 2450 531 
L 3481 531 
L 3481 0 
L 794 0 
L 794 531 
z
" transform="scale(0.015625)"/>
       </defs>
       <use xlink:href="#DejaVuSans-2212"/>
       <use xlink:href="#DejaVuSans-36" transform="translate(83.789062 0)"/>
       <use xlink:href="#DejaVuSans-39" transform="translate(147.412109 0)"/>
       <use xlink:href="#DejaVuSans-2e" transform="translate(211.035156 0)"/>
       <use xlink:href="#DejaVuSans-31" transform="translate(242.822266 0)"/>
       <use xlink:href="#DejaVuSans-37" transform="translate(306.445312 0)"/>
       <use xlink:href="#DejaVuSans-35" transform="translate(370.068359 0)"/>
      </g>
     </g>
    </g>
    <g id="xtick_6">
     <g id="line2d_11">
      <path d="M 506.313794 651.572851 
L 506.313794 221.067149 
" clip-path="url(#p89e3461412)" style="fill: none; stroke: #b0b0b0; stroke-width: 0.8; stroke-linecap: square"/>
     </g>
     <g id="line2d_12">
      <g>
       <use xlink:href="#m527412f4b6" x="506.313794" y="651.572851" style="stroke: #000000; stroke-width: 0.8"/>
      </g>
     </g>
     <g id="text_6">
      <!-- −69.150 -->
      <g transform="translate(492.931246 694.613199) rotate(-45) scale(0.1 -0.1)">
       <use xlink:href="#DejaVuSans-2212"/>
       <use xlink:href="#DejaVuSans-36" transform="translate(83.789062 0)"/>
       <use xlink:href="#DejaVuSans-39" transform="translate(147.412109 0)"/>
       <use xlink:href="#DejaVuSans-2e" transform="translate(211.035156 0)"/>
       <use xlink:href="#DejaVuSans-31" transform="translate(242.822266 0)"/>
       <use xlink:href="#DejaVuSans-35" transform="translate(306.445312 0)"/>
       <use xlink:href="#DejaVuSans-30" transform="translate(370.068359 0)"/>
      </g>
     </g>
    </g>
    <g id="xtick_7">
     <g id="line2d_13">
      <path d="M 578.122024 651.572851 
L 578.122024 221.067149 
" clip-path="url(#p89e3461412)" style="fill: none; stroke: #b0b0b0; stroke-width: 0.8; stroke-linecap: square"/>
     </g>
     <g id="line2d_14">
      <g>
       <use xlink:href="#m527412f4b6" x="578.122024" y="651.572851" style="stroke: #000000; stroke-width: 0.8"/>
      </g>
     </g>
     <g id="text_7">
      <!-- −69.125 -->
      <g transform="translate(564.739476 694.613199) rotate(-45) scale(0.1 -0.1)">
       <use xlink:href="#DejaVuSans-2212"/>
       <use xlink:href="#DejaVuSans-36" transform="translate(83.789062 0)"/>
       <use xlink:href="#DejaVuSans-39" transform="translate(147.412109 0)"/>
       <use xlink:href="#DejaVuSans-2e" transform="translate(211.035156 0)"/>
       <use xlink:href="#DejaVuSans-31" transform="translate(242.822266 0)"/>
       <use xlink:href="#DejaVuSans-32" transform="translate(306.445312 0)"/>
       <use xlink:href="#DejaVuSans-35" transform="translate(370.068359 0)"/>
      </g>
     </g>
    </g>
    <g id="text_8">
     <!-- Longitude (°) -->
     <g transform="translate(336.139844 707.682198) scale(0.1 -0.1)">
      <defs>
       <path id="DejaVuSans-4c" d="M 628 4666 
L 1259 4666 
L 1259 531 
L 3531 531 
L 3531 0 
L 628 0 
L 628 4666 
z
" transform="scale(0.015625)"/>
       <path id="DejaVuSans-6f" d="M 1959 3097 
Q 1497 3097 1228 2736 
Q 959 2375 959 1747 
Q 959 1119 1226 758 
Q 1494 397 1959 397 
Q 2419 397 2687 759 
Q 2956 1122 2956 1747 
Q 2956 2369 2687 2733 
Q 2419 3097 1959 3097 
z
M 1959 3584 
Q 2709 3584 3137 3096 
Q 3566 2609 3566 1747 
Q 3566 888 3137 398 
Q 2709 -91 1959 -91 
Q 1206 -91 779 398 
Q 353 888 353 1747 
Q 353 2609 779 3096 
Q 1206 3584 1959 3584 
z
" transform="scale(0.015625)"/>
       <path id="DejaVuSans-6e" d="M 3513 2113 
L 3513 0 
L 2938 0 
L 2938 2094 
Q 2938 2591 2744 2837 
Q 2550 3084 2163 3084 
Q 1697 3084 1428 2787 
Q 1159 2491 1159 1978 
L 1159 0 
L 581 0 
L 581 3500 
L 1159 3500 
L 1159 2956 
Q 1366 3272 1645 3428 
Q 1925 3584 2291 3584 
Q 2894 3584 3203 3211 
Q 3513 2838 3513 2113 
z
" transform="scale(0.015625)"/>
       <path id="DejaVuSans-67" d="M 2906 1791 
Q 2906 2416 2648 2759 
Q 2391 3103 1925 3103 
Q 1463 3103 1205 2759 
Q 947 2416 947 1791 
Q 947 1169 1205 825 
Q 1463 481 1925 481 
Q 2391 481 2648 825 
Q 2906 1169 2906 1791 
z
M 3481 434 
Q 3481 -459 3084 -895 
Q 2688 -1331 1869 -1331 
Q 1566 -1331 1297 -1286 
Q 1028 -1241 775 -1147 
L 775 -588 
Q 1028 -725 1275 -790 
Q 1522 -856 1778 -856 
Q 2344 -856 2625 -561 
Q 2906 -266 2906 331 
L 2906 616 
Q 2728 306 2450 153 
Q 2172 0 1784 0 
Q 1141 0 747 490 
Q 353 981 353 1791 
Q 353 2603 747 3093 
Q 1141 3584 1784 3584 
Q 2172 3584 2450 3431 
Q 2728 3278 2906 2969 
L 2906 3500 
L 3481 3500 
L 3481 434 
z
" transform="scale(0.015625)"/>
       <path id="DejaVuSans-69" d="M 603 3500 
L 1178 3500 
L 1178 0 
L 603 0 
L 603 3500 
z
M 603 4863 
L 1178 4863 
L 1178 4134 
L 603 4134 
L 603 4863 
z
" transform="scale(0.015625)"/>
       <path id="DejaVuSans-74" d="M 1172 4494 
L 1172 3500 
L 2356 3500 
L 2356 3053 
L 1172 3053 
L 1172 1153 
Q 1172 725 1289 603 
Q 1406 481 1766 481 
L 2356 481 
L 2356 0 
L 1766 0 
Q 1100 0 847 248 
Q 594 497 594 1153 
L 594 3053 
L 172 3053 
L 172 3500 
L 594 3500 
L 594 4494 
L 1172 4494 
z
" transform="scale(0.015625)"/>
       <path id="DejaVuSans-75" d="M 544 1381 
L 544 3500 
L 1119 3500 
L 1119 1403 
Q 1119 906 1312 657 
Q 1506 409 1894 409 
Q 2359 409 2629 706 
Q 2900 1003 2900 1516 
L 2900 3500 
L 3475 3500 
L 3475 0 
L 2900 0 
L 2900 538 
Q 2691 219 2414 64 
Q 2138 -91 1772 -91 
Q 1169 -91 856 284 
Q 544 659 544 1381 
z
M 1991 3584 
L 1991 3584 
z
" transform="scale(0.015625)"/>
       <path id="DejaVuSans-64" d="M 2906 2969 
L 2906 4863 
L 3481 4863 
L 3481 0 
L 2906 0 
L 2906 525 
Q 2725 213 2448 61 
Q 2172 -91 1784 -91 
Q 1150 -91 751 415 
Q 353 922 353 1747 
Q 353 2572 751 3078 
Q 1150 3584 1784 3584 
Q 2172 3584 2448 3432 
Q 2725 3281 2906 2969 
z
M 947 1747 
Q 947 1113 1208 752 
Q 1469 391 1925 391 
Q 2381 391 2643 752 
Q 2906 1113 2906 1747 
Q 2906 2381 2643 2742 
Q 2381 3103 1925 3103 
Q 1469 3103 1208 2742 
Q 947 2381 947 1747 
z
" transform="scale(0.015625)"/>
       <path id="DejaVuSans-65" d="M 3597 1894 
L 3597 1613 
L 953 1613 
Q 991 1019 1311 708 
Q 1631 397 2203 397 
Q 2534 397 2845 478 
Q 3156 559 3463 722 
L 3463 178 
Q 3153 47 2828 -22 
Q 2503 -91 2169 -91 
Q 1331 -91 842 396 
Q 353 884 353 1716 
Q 353 2575 817 3079 
Q 1281 3584 2069 3584 
Q 2775 3584 3186 3129 
Q 3597 2675 3597 1894 
z
M 3022 2063 
Q 3016 2534 2758 2815 
Q 2500 3097 2075 3097 
Q 1594 3097 1305 2825 
Q 1016 2553 972 2059 
L 3022 2063 
z
" transform="scale(0.015625)"/>
       <path id="DejaVuSans-20" transform="scale(0.015625)"/>
       <path id="DejaVuSans-28" d="M 1984 4856 
Q 1566 4138 1362 3434 
Q 1159 2731 1159 2009 
Q 1159 1288 1364 580 
Q 1569 -128 1984 -844 
L 1484 -844 
Q 1016 -109 783 600 
Q 550 1309 550 2009 
Q 550 2706 781 3412 
Q 1013 4119 1484 4856 
L 1984 4856 
z
" transform="scale(0.015625)"/>
       <path id="DejaVuSans-b0" d="M 1600 4347 
Q 1350 4347 1178 4173 
Q 1006 4000 1006 3750 
Q 1006 3503 1178 3333 
Q 1350 3163 1600 3163 
Q 1850 3163 2022 3333 
Q 2194 3503 2194 3750 
Q 2194 3997 2020 4172 
Q 1847 4347 1600 4347 
z
M 1600 4750 
Q 1800 4750 1984 4673 
Q 2169 4597 2303 4453 
Q 2447 4313 2519 4134 
Q 2591 3956 2591 3750 
Q 2591 3338 2302 3052 
Q 2013 2766 1594 2766 
Q 1172 2766 890 3047 
Q 609 3328 609 3750 
Q 609 4169 896 4459 
Q 1184 4750 1600 4750 
z
" transform="scale(0.015625)"/>
       <path id="DejaVuSans-29" d="M 513 4856 
L 1013 4856 
Q 1481 4119 1714 3412 
Q 1947 2706 1947 2009 
Q 1947 1309 1714 600 
Q 1481 -109 1013 -844 
L 513 -844 
Q 928 -128 1133 580 
Q 1338 1288 1338 2009 
Q 1338 2731 1133 3434 
Q 928 4138 513 4856 
z
" transform="scale(0.015625)"/>
      </defs>
      <use xlink:href="#DejaVuSans-4c"/>
      <use xlink:href="#DejaVuSans-6f" transform="translate(53.962891 0)"/>
      <use xlink:href="#DejaVuSans-6e" transform="translate(115.144531 0)"/>
      <use xlink:href="#DejaVuSans-67" transform="translate(178.523438 0)"/>
      <use xlink:href="#DejaVuSans-69" transform="translate(242 0)"/>
      <use xlink:href="#DejaVuSans-74" transform="translate(269.783203 0)"/>
      <use xlink:href="#DejaVuSans-75" transform="translate(308.992188 0)"/>
      <use xlink:href="#DejaVuSans-64" transform="translate(372.371094 0)"/>
      <use xlink:href="#DejaVuSans-65" transform="translate(435.847656 0)"/>
      <use xlink:href="#DejaVuSans-20" transform="translate(497.371094 0)"/>
      <use xlink:href="#DejaVuSans-28" transform="translate(529.158203 0)"/>
      <use xlink:href="#DejaVuSans-b0" transform="translate(568.171875 0)"/>
      <use xlink:href="#DejaVuSans-29" transform="translate(618.171875 0)"/>
     </g>
    </g>
   </g>
   <g id="matplotlib.axis_2">
    <g id="ytick_1">
     <g id="line2d_15">
      <path d="M 90 645.556555 
L 648 645.556555 
" clip-path="url(#p89e3461412)" style="fill: none; stroke: #b0b0b0; stroke-width: 0.8; stroke-linecap: square"/>
     </g>
     <g id="line2d_16">
      <defs>
       <path id="mb6c42d1877" d="M 0 0 
L -3.5 0 
" style="stroke: #000000; stroke-width: 0.8"/>
      </defs>
      <g>
       <use xlink:href="#mb6c42d1877" x="90" y="645.556555" style="stroke: #000000; stroke-width: 0.8"/>
      </g>
     </g>
     <g id="text_9">
      <!-- −8.96 -->
      <g transform="translate(52.354687 649.355774) scale(0.1 -0.1)">
       <defs>
        <path id="DejaVuSans-38" d="M 2034 2216 
Q 1584 2216 1326 1975 
Q 1069 1734 1069 1313 
Q 1069 891 1326 650 
Q 1584 409 2034 409 
Q 2484 409 2743 651 
Q 3003 894 3003 1313 
Q 3003 1734 2745 1975 
Q 2488 2216 2034 2216 
z
M 1403 2484 
Q 997 2584 770 2862 
Q 544 3141 544 3541 
Q 544 4100 942 4425 
Q 1341 4750 2034 4750 
Q 2731 4750 3128 4425 
Q 3525 4100 3525 3541 
Q 3525 3141 3298 2862 
Q 3072 2584 2669 2484 
Q 3125 2378 3379 2068 
Q 3634 1759 3634 1313 
Q 3634 634 3220 271 
Q 2806 -91 2034 -91 
Q 1263 -91 848 271 
Q 434 634 434 1313 
Q 434 1759 690 2068 
Q 947 2378 1403 2484 
z
M 1172 3481 
Q 1172 3119 1398 2916 
Q 1625 2713 2034 2713 
Q 2441 2713 2670 2916 
Q 2900 3119 2900 3481 
Q 2900 3844 2670 4047 
Q 2441 4250 2034 4250 
Q 1625 4250 1398 4047 
Q 1172 3844 1172 3481 
z
" transform="scale(0.015625)"/>
       </defs>
       <use xlink:href="#DejaVuSans-2212"/>
       <use xlink:href="#DejaVuSans-38" transform="translate(83.789062 0)"/>
       <use xlink:href="#DejaVuSans-2e" transform="translate(147.412109 0)"/>
       <use xlink:href="#DejaVuSans-39" transform="translate(179.199219 0)"/>
       <use xlink:href="#DejaVuSans-36" transform="translate(242.822266 0)"/>
      </g>
     </g>
    </g>
    <g id="ytick_2">
     <g id="line2d_17">
      <path d="M 90 587.411875 
L 648 587.411875 
" clip-path="url(#p89e3461412)" style="fill: none; stroke: #b0b0b0; stroke-width: 0.8; stroke-linecap: square"/>
     </g>
     <g id="line2d_18">
      <g>
       <use xlink:href="#mb6c42d1877" x="90" y="587.411875" style="stroke: #000000; stroke-width: 0.8"/>
      </g>
     </g>
     <g id="text_10">
      <!-- −8.94 -->
      <g transform="translate(52.354687 591.211093) scale(0.1 -0.1)">
       <defs>
        <path id="DejaVuSans-34" d="M 2419 4116 
L 825 1625 
L 2419 1625 
L 2419 4116 
z
M 2253 4666 
L 3047 4666 
L 3047 1625 
L 3713 1625 
L 3713 1100 
L 3047 1100 
L 3047 0 
L 2419 0 
L 2419 1100 
L 313 1100 
L 313 1709 
L 2253 4666 
z
" transform="scale(0.015625)"/>
       </defs>
       <use xlink:href="#DejaVuSans-2212"/>
       <use xlink:href="#DejaVuSans-38" transform="translate(83.789062 0)"/>
       <use xlink:href="#DejaVuSans-2e" transform="translate(147.412109 0)"/>
       <use xlink:href="#DejaVuSans-39" transform="translate(179.199219 0)"/>
       <use xlink:href="#DejaVuSans-34" transform="translate(242.822266 0)"/>
      </g>
     </g>
    </g>
    <g id="ytick_3">
     <g id="line2d_19">
      <path d="M 90 529.267194 
L 648 529.267194 
" clip-path="url(#p89e3461412)" style="fill: none; stroke: #b0b0b0; stroke-width: 0.8; stroke-linecap: square"/>
     </g>
     <g id="line2d_20">
      <g>
       <use xlink:href="#mb6c42d1877" x="90" y="529.267194" style="stroke: #000000; stroke-width: 0.8"/>
      </g>
     </g>
     <g id="text_11">
      <!-- −8.92 -->
      <g transform="translate(52.354687 533.066413) scale(0.1 -0.1)">
       <use xlink:href="#DejaVuSans-2212"/>
       <use xlink:href="#DejaVuSans-38" transform="translate(83.789062 0)"/>
       <use xlink:href="#DejaVuSans-2e" transform="translate(147.412109 0)"/>
       <use xlink:href="#DejaVuSans-39" transform="translate(179.199219 0)"/>
       <use xlink:href="#DejaVuSans-32" transform="translate(242.822266 0)"/>
      </g>
     </g>
    </g>
    <g id="ytick_4">
     <g id="line2d_21">
      <path d="M 90 471.122513 
L 648 471.122513 
" clip-path="url(#p89e3461412)" style="fill: none; stroke: #b0b0b0; stroke-width: 0.8; stroke-linecap: square"/>
     </g>
     <g id="line2d_22">
      <g>
       <use xlink:href="#mb6c42d1877" x="90" y="471.122513" style="stroke: #000000; stroke-width: 0.8"/>
      </g>
     </g>
     <g id="text_12">
      <!-- −8.90 -->
      <g transform="translate(52.354687 474.921732) scale(0.1 -0.1)">
       <use xlink:href="#DejaVuSans-2212"/>
       <use xlink:href="#DejaVuSans-38" transform="translate(83.789062 0)"/>
       <use xlink:href="#DejaVuSans-2e" transform="translate(147.412109 0)"/>
       <use xlink:href="#DejaVuSans-39" transform="translate(179.199219 0)"/>
       <use xlink:href="#DejaVuSans-30" transform="translate(242.822266 0)"/>
      </g>
     </g>
    </g>
    <g id="ytick_5">
     <g id="line2d_23">
      <path d="M 90 412.977833 
L 648 412.977833 
" clip-path="url(#p89e3461412)" style="fill: none; stroke: #b0b0b0; stroke-width: 0.8; stroke-linecap: square"/>
     </g>
     <g id="line2d_24">
      <g>
       <use xlink:href="#mb6c42d1877" x="90" y="412.977833" style="stroke: #000000; stroke-width: 0.8"/>
      </g>
     </g>
     <g id="text_13">
      <!-- −8.88 -->
      <g transform="translate(52.354687 416.777051) scale(0.1 -0.1)">
       <use xlink:href="#DejaVuSans-2212"/>
       <use xlink:href="#DejaVuSans-38" transform="translate(83.789062 0)"/>
       <use xlink:href="#DejaVuSans-2e" transform="translate(147.412109 0)"/>
       <use xlink:href="#DejaVuSans-38" transform="translate(179.199219 0)"/>
       <use xlink:href="#DejaVuSans-38" transform="translate(242.822266 0)"/>
      </g>
     </g>
    </g>
    <g id="ytick_6">
     <g id="line2d_25">
      <path d="M 90 354.833152 
L 648 354.833152 
" clip-path="url(#p89e3461412)" style="fill: none; stroke: #b0b0b0; stroke-width: 0.8; stroke-linecap: square"/>
     </g>
     <g id="line2d_26">
      <g>
       <use xlink:href="#mb6c42d1877" x="90" y="354.833152" style="stroke: #000000; stroke-width: 0.8"/>
      </g>
     </g>
     <g id="text_14">
      <!-- −8.86 -->
      <g transform="translate(52.354687 358.632371) scale(0.1 -0.1)">
       <use xlink:href="#DejaVuSans-2212"/>
       <use xlink:href="#DejaVuSans-38" transform="translate(83.789062 0)"/>
       <use xlink:href="#DejaVuSans-2e" transform="translate(147.412109 0)"/>
       <use xlink:href="#DejaVuSans-38" transform="translate(179.199219 0)"/>
       <use xlink:href="#DejaVuSans-36" transform="translate(242.822266 0)"/>
      </g>
     </g>
    </g>
    <g id="ytick_7">
     <g id="line2d_27">
      <path d="M 90 296.688471 
L 648 296.688471 
" clip-path="url(#p89e3461412)" style="fill: none; stroke: #b0b0b0; stroke-width: 0.8; stroke-linecap: square"/>
     </g>
     <g id="line2d_28">
      <g>
       <use xlink:href="#mb6c42d1877" x="90" y="296.688471" style="stroke: #000000; stroke-width: 0.8"/>
      </g>
     </g>
     <g id="text_15">
      <!-- −8.84 -->
      <g transform="translate(52.354687 300.48769) scale(0.1 -0.1)">
       <use xlink:href="#DejaVuSans-2212"/>
       <use xlink:href="#DejaVuSans-38" transform="translate(83.789062 0)"/>
       <use xlink:href="#DejaVuSans-2e" transform="translate(147.412109 0)"/>
       <use xlink:href="#DejaVuSans-38" transform="translate(179.199219 0)"/>
       <use xlink:href="#DejaVuSans-34" transform="translate(242.822266 0)"/>
      </g>
     </g>
    </g>
    <g id="ytick_8">
     <g id="line2d_29">
      <path d="M 90 238.543791 
L 648 238.543791 
" clip-path="url(#p89e3461412)" style="fill: none; stroke: #b0b0b0; stroke-width: 0.8; stroke-linecap: square"/>
     </g>
     <g id="line2d_30">
      <g>
       <use xlink:href="#mb6c42d1877" x="90" y="238.543791" style="stroke: #000000; stroke-width: 0.8"/>
      </g>
     </g>
     <g id="text_16">
      <!-- −8.82 -->
      <g transform="translate(52.354687 242.343009) scale(0.1 -0.1)">
       <use xlink:href="#DejaVuSans-2212"/>
       <use xlink:href="#DejaVuSans-38" transform="translate(83.789062 0)"/>
       <use xlink:href="#DejaVuSans-2e" transform="translate(147.412109 0)"/>
       <use xlink:href="#DejaVuSans-38" transform="translate(179.199219 0)"/>
       <use xlink:href="#DejaVuSans-32" transform="translate(242.822266 0)"/>
      </g>
     </g>
    </g>
    <g id="text_17">
     <!-- Latitude (°) -->
     <g transform="translate(46.275 464.889531) rotate(-90) scale(0.1 -0.1)">
      <defs>
       <path id="DejaVuSans-61" d="M 2194 1759 
Q 1497 1759 1228 1600 
Q 959 1441 959 1056 
Q 959 750 1161 570 
Q 1363 391 1709 391 
Q 2188 391 2477 730 
Q 2766 1069 2766 1631 
L 2766 1759 
L 2194 1759 
z
M 3341 1997 
L 3341 0 
L 2766 0 
L 2766 531 
Q 2569 213 2275 61 
Q 1981 -91 1556 -91 
Q 1019 -91 701 211 
Q 384 513 384 1019 
Q 384 1609 779 1909 
Q 1175 2209 1959 2209 
L 2766 2209 
L 2766 2266 
Q 2766 2663 2505 2880 
Q 2244 3097 1772 3097 
Q 1472 3097 1187 3025 
Q 903 2953 641 2809 
L 641 3341 
Q 956 3463 1253 3523 
Q 1550 3584 1831 3584 
Q 2591 3584 2966 3190 
Q 3341 2797 3341 1997 
z
" transform="scale(0.015625)"/>
      </defs>
      <use xlink:href="#DejaVuSans-4c"/>
      <use xlink:href="#DejaVuSans-61" transform="translate(55.712891 0)"/>
      <use xlink:href="#DejaVuSans-74" transform="translate(116.992188 0)"/>
      <use xlink:href="#DejaVuSans-69" transform="translate(156.201172 0)"/>
      <use xlink:href="#DejaVuSans-74" transform="translate(183.984375 0)"/>
      <use xlink:href="#DejaVuSans-75" transform="translate(223.193359 0)"/>
      <use xlink:href="#DejaVuSans-64" transform="translate(286.572266 0)"/>
      <use xlink:href="#DejaVuSans-65" transform="translate(350.048828 0)"/>
      <use xlink:href="#DejaVuSans-20" transform="translate(411.572266 0)"/>
      <use xlink:href="#DejaVuSans-28" transform="translate(443.359375 0)"/>
      <use xlink:href="#DejaVuSans-b0" transform="translate(482.373047 0)"/>
      <use xlink:href="#DejaVuSans-29" transform="translate(532.373047 0)"/>
     </g>
    </g>
   </g>
   <g id="patch_3">
    <path d="M 90 651.572851 
L 90 221.067149 
" style="fill: none; stroke: #000000; stroke-width: 0.8; stroke-linejoin: miter; stroke-linecap: square"/>
   </g>
   <g id="patch_4">
    <path d="M 648 651.572851 
L 648 221.067149 
" style="fill: none; stroke: #000000; stroke-width: 0.8; stroke-linejoin: miter; stroke-linecap: square"/>
   </g>
   <g id="patch_5">
    <path d="M 90 651.572851 
L 648 651.572851 
" style="fill: none; stroke: #000000; stroke-width: 0.8; stroke-linejoin: miter; stroke-linecap: square"/>
   </g>
   <g id="patch_6">
    <path d="M 90 221.067149 
L 648 221.067149 
" style="fill: none; stroke: #000000; stroke-width: 0.8; stroke-linejoin: miter; stroke-linecap: square"/>
   </g>
   <g id="legend_1">
    <g id="patch_7">
     <path d="M 279.8375 776.965866 
L 458.1625 776.965866 
Q 460.1625 776.965866 460.1625 774.965866 
L 460.1625 744.673991 
Q 460.1625 742.673991 458.1625 742.673991 
L 279.8375 742.673991 
Q 277.8375 742.673991 277.8375 744.673991 
L 277.8375 774.965866 
Q 277.8375 776.965866 279.8375 776.965866 
z
" style="fill: #ffffff; opacity: 0.8; stroke: #cccccc; stroke-linejoin: miter"/>
    </g>
    <g id="text_18">
     <!-- Legenda -->
     <g transform="translate(343.280625 755.792116) scale(0.12 -0.12)">
      <use xlink:href="#DejaVuSans-4c"/>
      <use xlink:href="#DejaVuSans-65" transform="translate(53.962891 0)"/>
      <use xlink:href="#DejaVuSans-67" transform="translate(115.486328 0)"/>
      <use xlink:href="#DejaVuSans-65" transform="translate(178.962891 0)"/>
      <use xlink:href="#DejaVuSans-6e" transform="translate(240.486328 0)"/>
      <use xlink:href="#DejaVuSans-64" transform="translate(303.865234 0)"/>
      <use xlink:href="#DejaVuSans-61" transform="translate(367.341797 0)"/>
     </g>
    </g>
    <g id="patch_8">
     <path d="M 281.8375 770.886178 
L 301.8375 770.886178 
L 301.8375 763.886178 
L 281.8375 763.886178 
L 281.8375 770.886178 
z
" style="fill: none; stroke: #000000; stroke-linejoin: miter"/>
    </g>
    <g id="text_19">
     <!-- Gleba Federal -->
     <g transform="translate(309.8375 770.886178) scale(0.1 -0.1)">
      <defs>
       <path id="DejaVuSans-47" d="M 3809 666 
L 3809 1919 
L 2778 1919 
L 2778 2438 
L 4434 2438 
L 4434 434 
Q 4069 175 3628 42 
Q 3188 -91 2688 -91 
Q 1594 -91 976 548 
Q 359 1188 359 2328 
Q 359 3472 976 4111 
Q 1594 4750 2688 4750 
Q 3144 4750 3555 4637 
Q 3966 4525 4313 4306 
L 4313 3634 
Q 3963 3931 3569 4081 
Q 3175 4231 2741 4231 
Q 1884 4231 1454 3753 
Q 1025 3275 1025 2328 
Q 1025 1384 1454 906 
Q 1884 428 2741 428 
Q 3075 428 3337 486 
Q 3600 544 3809 666 
z
" transform="scale(0.015625)"/>
       <path id="DejaVuSans-6c" d="M 603 4863 
L 1178 4863 
L 1178 0 
L 603 0 
L 603 4863 
z
" transform="scale(0.015625)"/>
       <path id="DejaVuSans-62" d="M 3116 1747 
Q 3116 2381 2855 2742 
Q 2594 3103 2138 3103 
Q 1681 3103 1420 2742 
Q 1159 2381 1159 1747 
Q 1159 1113 1420 752 
Q 1681 391 2138 391 
Q 2594 391 2855 752 
Q 3116 1113 3116 1747 
z
M 1159 2969 
Q 1341 3281 1617 3432 
Q 1894 3584 2278 3584 
Q 2916 3584 3314 3078 
Q 3713 2572 3713 1747 
Q 3713 922 3314 415 
Q 2916 -91 2278 -91 
Q 1894 -91 1617 61 
Q 1341 213 1159 525 
L 1159 0 
L 581 0 
L 581 4863 
L 1159 4863 
L 1159 2969 
z
" transform="scale(0.015625)"/>
       <path id="DejaVuSans-46" d="M 628 4666 
L 3309 4666 
L 3309 4134 
L 1259 4134 
L 1259 2759 
L 3109 2759 
L 3109 2228 
L 1259 2228 
L 1259 0 
L 628 0 
L 628 4666 
z
" transform="scale(0.015625)"/>
       <path id="DejaVuSans-72" d="M 2631 2963 
Q 2534 3019 2420 3045 
Q 2306 3072 2169 3072 
Q 1681 3072 1420 2755 
Q 1159 2438 1159 1844 
L 1159 0 
L 581 0 
L 581 3500 
L 1159 3500 
L 1159 2956 
Q 1341 3275 1631 3429 
Q 1922 3584 2338 3584 
Q 2397 3584 2469 3576 
Q 2541 3569 2628 3553 
L 2631 2963 
z
" transform="scale(0.015625)"/>
      </defs>
      <use xlink:href="#DejaVuSans-47"/>
      <use xlink:href="#DejaVuSans-6c" transform="translate(77.490234 0)"/>
      <use xlink:href="#DejaVuSans-65" transform="translate(105.273438 0)"/>
      <use xlink:href="#DejaVuSans-62" transform="translate(166.796875 0)"/>
      <use xlink:href="#DejaVuSans-61" transform="translate(230.273438 0)"/>
      <use xlink:href="#DejaVuSans-20" transform="translate(291.552734 0)"/>
      <use xlink:href="#DejaVuSans-46" transform="translate(323.339844 0)"/>
      <use xlink:href="#DejaVuSans-65" transform="translate(375.359375 0)"/>
      <use xlink:href="#DejaVuSans-64" transform="translate(436.882812 0)"/>
      <use xlink:href="#DejaVuSans-65" transform="translate(500.359375 0)"/>
      <use xlink:href="#DejaVuSans-72" transform="translate(561.882812 0)"/>
      <use xlink:href="#DejaVuSans-61" transform="translate(602.996094 0)"/>
      <use xlink:href="#DejaVuSans-6c" transform="translate(664.275391 0)"/>
     </g>
    </g>
    <g id="patch_9">
     <path d="M 399.045312 770.886178 
L 419.045312 770.886178 
L 419.045312 763.886178 
L 399.045312 763.886178 
z
" style="fill: #e0bd1f; opacity: 0.6"/>
    </g>
    <g id="text_20">
     <!-- SIGEF -->
     <g transform="translate(427.045312 770.886178) scale(0.1 -0.1)">
      <defs>
       <path id="DejaVuSans-53" d="M 3425 4513 
L 3425 3897 
Q 3066 4069 2747 4153 
Q 2428 4238 2131 4238 
Q 1616 4238 1336 4038 
Q 1056 3838 1056 3469 
Q 1056 3159 1242 3001 
Q 1428 2844 1947 2747 
L 2328 2669 
Q 3034 2534 3370 2195 
Q 3706 1856 3706 1288 
Q 3706 609 3251 259 
Q 2797 -91 1919 -91 
Q 1588 -91 1214 -16 
Q 841 59 441 206 
L 441 856 
Q 825 641 1194 531 
Q 1563 422 1919 422 
Q 2459 422 2753 634 
Q 3047 847 3047 1241 
Q 3047 1584 2836 1778 
Q 2625 1972 2144 2069 
L 1759 2144 
Q 1053 2284 737 2584 
Q 422 2884 422 3419 
Q 422 4038 858 4394 
Q 1294 4750 2059 4750 
Q 2388 4750 2728 4690 
Q 3069 4631 3425 4513 
z
" transform="scale(0.015625)"/>
       <path id="DejaVuSans-49" d="M 628 4666 
L 1259 4666 
L 1259 0 
L 628 0 
L 628 4666 
z
" transform="scale(0.015625)"/>
       <path id="DejaVuSans-45" d="M 628 4666 
L 3578 4666 
L 3578 4134 
L 1259 4134 
L 1259 2753 
L 3481 2753 
L 3481 2222 
L 1259 2222 
L 1259 531 
L 3634 531 
L 3634 0 
L 628 0 
L 628 4666 
z
" transform="scale(0.015625)"/>
      </defs>
      <use xlink:href="#DejaVuSans-53"/>
      <use xlink:href="#DejaVuSans-49" transform="translate(63.476562 0)"/>
      <use xlink:href="#DejaVuSans-47" transform="translate(92.96875 0)"/>
      <use xlink:href="#DejaVuSans-45" transform="translate(170.458984 0)"/>
      <use xlink:href="#DejaVuSans-46" transform="translate(233.642578 0)"/>
     </g>
    </g>
   </g>
  </g>
 </g>
 <defs>
  <clipPath id="p89e3461412">
   <rect x="90" y="221.067149" width="558" height="430.505701"/>
  </clipPath>
 </defs>
</svg>
