<?xml version="1.0" encoding="utf-8" standalone="no"?>
<!DOCTYPE svg PUBLIC "-//W3C//DTD SVG 1.1//EN"
  "http://www.w3.org/Graphics/SVG/1.1/DTD/svg11.dtd">
<svg xmlns:xlink="http://www.w3.org/1999/xlink" width="720pt" height="864pt" viewBox="0 0 720 864" xmlns="http://www.w3.org/2000/svg" version="1.1">
 <metadata>
  <rdf:RDF xmlns:dc="http://purl.org/dc/elements/1.1/" xmlns:cc="http://creativecommons.org/ns#" xmlns:rdf="http://www.w3.org/1999/02/22-rdf-syntax-ns#">
   <cc:Work>
    <dc:type rdf:resource="http://purl.org/dc/dcmitype/StillImage"/>
    <dc:date>2025-06-16T17:43:55.970303</dc:date>
    <dc:format>image/svg+xml</dc:format>
    <dc:creator>
     <cc:Agent>
      <dc:title>Matplotlib v3.10.1, https://matplotlib.org/</dc:title>
     </cc:Agent>
    </dc:creator>
   </cc:Work>
  </rdf:RDF>
 </metadata>
 <defs>
  <style type="text/css">*{stroke-linejoin: round; stroke-linecap: butt}</style>
 </defs>
 <g id="figure_1">
  <g id="patch_1">
   <path d="M 0 864 
L 720 864 
L 720 0 
L 0 0 
z
" style="fill: #ffffff"/>
  </g>
  <g id="axes_1">
   <g id="patch_2">
    <path d="M 102.148432 768.96 
L 635.851568 768.96 
L 635.851568 103.68 
L 102.148432 103.68 
z
" style="fill: #ffffff"/>
   </g>
   <g id="PatchCollection_1">
    <path d="M 314.847778 738.054671 
L 314.765875 738.043752 
L 314.479222 738.005837 
L 314.192831 737.968304 
L 313.905869 737.930228 
L 313.619181 737.89303 
L 313.332992 737.855312 
L 313.045733 737.817916 
L 312.757915 737.779667 
L 312.470633 737.740776 
L 312.183516 737.702094 
L 311.89665 737.664031 
L 311.611103 737.627018 
L 311.476784 737.609049 
L 311.326744 737.588979 
L 311.280325 737.582788 
L 311.043657 737.551224 
L 310.882393 737.53018 
L 310.761248 737.514371 
L 310.675019 737.502915 
L 310.684967 737.474209 
L 308.967319 737.233365 
L 307.901671 736.988057 
L 306.922152 736.657536 
L 305.286651 736.054602 
L 299.133307 733.786147 
L 299.007693 733.73984 
L 296.660946 732.874702 
L 295.893524 732.591788 
L 289.328217 730.171461 
L 289.14389 730.103509 
L 288.759999 729.889948 
L 287.844592 729.322329 
L 286.959602 728.646788 
L 286.41456 728.196979 
L 285.392235 727.35328 
L 285.315703 727.29012 
L 284.130436 726.311949 
L 276.456922 719.979194 
L 276.188506 719.82288 
L 274.585134 718.889153 
L 273.452711 718.515272 
L 269.993679 717.373238 
L 266.428671 716.233562 
L 260.605078 714.371854 
L 260.47135 714.329103 
L 260.325808 714.282576 
L 253.560465 713.540404 
L 246.569489 712.77348 
L 242.49654 712.326669 
L 239.879297 712.039552 
L 239.672714 712.01689 
L 229.713922 710.92439 
L 226.767776 710.604642 
L 224.728786 710.38335 
L 222.903101 710.185207 
L 221.210892 710.001551 
L 209.268218 708.705404 
L 191.474002 706.774185 
L 183.440899 705.902346 
L 182.370845 705.786213 
L 179.300731 705.453012 
L 177.275307 705.239228 
L 160.184134 703.435262 
L 157.848112 703.188697 
L 156.520561 703.048575 
L 156.170182 703.011592 
L 152.220898 702.594747 
L 150.215845 702.383115 
L 138.622422 701.159435 
L 133.762776 700.686589 
L 126.584041 699.921171 
L 126.550455 699.91759 
L 126.407666 699.902366 
L 126.655343 699.686064 
L 127.169232 699.237276 
L 128.172918 697.913632 
L 128.677535 696.986639 
L 128.716531 696.915001 
L 128.746637 696.715889 
L 128.789369 696.433278 
L 128.72545 695.958417 
L 127.806445 693.722803 
L 127.661044 692.961131 
L 128.09393 691.080779 
L 128.095307 691.047326 
L 128.129622 690.212965 
L 128.17101 689.206612 
L 128.457304 688.330235 
L 129.248412 687.491712 
L 129.444829 687.283524 
L 131.472626 686.045002 
L 131.512469 686.020666 
L 131.810757 685.790778 
L 132.203529 685.488071 
L 132.234792 685.463977 
L 133.004681 684.601393 
L 133.744472 683.320655 
L 133.952145 682.54116 
L 133.999547 681.832458 
L 134.009318 681.686361 
L 133.571128 679.986257 
L 133.810232 678.408443 
L 133.591427 677.313594 
L 133.511382 676.913071 
L 133.547713 675.823435 
L 133.934075 674.595355 
L 134.41668 673.837084 
L 134.831415 673.545436 
L 135.01709 673.414866 
L 135.029909 673.411754 
L 136.140326 673.142238 
L 136.147975 673.137651 
L 136.712291 672.799235 
L 137.209718 672.304245 
L 137.495329 671.921421 
L 138.4362 670.660309 
L 140.410215 669.302043 
L 141.442659 668.591648 
L 141.463951 668.576997 
L 141.648449 668.386298 
L 142.07045 667.950113 
L 142.399707 667.452392 
L 142.608719 667.136441 
L 142.609653 667.118171 
L 142.62768 666.765721 
L 142.661778 666.09905 
L 142.545488 664.291137 
L 142.933641 661.996747 
L 142.995107 660.50124 
L 142.974655 660.337487 
L 142.738839 658.449366 
L 142.499671 656.534408 
L 142.532429 655.521926 
L 142.548995 655.009905 
L 142.593428 654.902542 
L 143.618223 652.426308 
L 143.766075 651.49122 
L 143.808803 649.49254 
L 143.98499 648.882573 
L 144.313709 648.276771 
L 144.316849 648.270982 
L 144.821964 647.667144 
L 144.885959 647.615469 
L 145.617663 647.024645 
L 147.311128 646.201471 
L 148.352641 645.695203 
L 148.758893 645.417041 
L 149.385476 644.988021 
L 149.82548 644.502145 
L 149.870092 644.452881 
L 150.231492 644.053802 
L 150.351197 643.786371 
L 150.383465 643.714282 
L 150.773043 642.843932 
L 150.923681 641.957109 
L 150.991176 641.559746 
L 150.956139 640.45814 
L 150.950261 640.273322 
L 150.688981 639.065517 
L 149.635567 635.849192 
L 149.546548 635.577398 
L 149.497697 635.039701 
L 149.218994 631.97199 
L 149.408195 630.934912 
L 150.403213 629.891102 
L 150.472806 629.818096 
L 150.681735 629.379134 
L 150.690092 629.361575 
L 150.692856 629.346355 
L 150.751754 629.022009 
L 150.7923 628.798724 
L 150.681003 628.263279 
L 150.356305 627.686325 
L 149.829902 626.750967 
L 149.639766 626.324572 
L 149.235455 625.417867 
L 149.087973 624.934031 
L 148.997056 624.635763 
L 148.992138 624.555154 
L 148.990321 624.525376 
L 148.93572 623.630391 
L 148.944019 622.946776 
L 148.953841 622.137852 
L 149.414459 617.769888 
L 149.606306 613.170821 
L 149.982467 608.170085 
L 149.975282 608.025655 
L 149.951389 607.545391 
L 149.894799 606.407898 
L 149.451305 604.144363 
L 149.387638 603.81941 
L 149.392834 603.727502 
L 149.422168 603.208672 
L 149.429305 603.082437 
L 149.704358 602.402819 
L 150.048614 601.964606 
L 150.139513 601.8489 
L 150.153483 601.831117 
L 152.385808 600.381305 
L 153.09 599.483726 
L 153.929244 597.648255 
L 154.246601 596.954177 
L 154.689732 595.707065 
L 155.034246 593.955407 
L 155.173511 592.171915 
L 155.371073 591.349111 
L 155.705813 590.521772 
L 155.873387 590.107601 
L 156.083033 589.770211 
L 156.581634 588.967802 
L 156.961963 588.355722 
L 156.979455 588.303488 
L 157.338785 587.23048 
L 157.661669 586.563229 
L 157.966637 585.933001 
L 159.231671 584.419143 
L 159.895018 583.38682 
L 159.903552 583.361077 
L 160.035508 582.96304 
L 160.133541 582.667325 
L 161.209226 580.683298 
L 162.768977 579.164242 
L 162.802105 579.091345 
L 163.418416 577.735208 
L 163.582497 577.490777 
L 163.623225 577.430106 
L 163.797542 577.170427 
L 163.907341 577.089791 
L 166.846249 574.931495 
L 167.445518 574.332176 
L 167.458497 574.311234 
L 167.917172 573.571135 
L 168.067458 573.328639 
L 168.240316 572.945588 
L 169.124962 570.985227 
L 169.796402 569.973941 
L 169.884871 569.879884 
L 171.951236 567.68303 
L 172.093376 567.531913 
L 172.685583 567.110423 
L 173.831782 566.560675 
L 174.769935 566.441173 
L 175.63437 566.618267 
L 175.686899 566.646123 
L 176.269386 566.955023 
L 177.268868 567.697057 
L 177.667179 567.99277 
L 178.512513 568.383921 
L 179.017662 568.472559 
L 182.591832 568.298924 
L 182.719262 568.249936 
L 183.235252 568.051577 
L 184.868291 567.034771 
L 185.412682 566.822992 
L 185.900613 566.820505 
L 187.044943 567.097516 
L 187.081646 567.106401 
L 187.814273 567.00563 
L 188.160404 566.757228 
L 188.349672 566.6214 
L 188.78989 565.952636 
L 189.003724 565.265232 
L 189.025334 564.798602 
L 189.068 563.877348 
L 189.275724 563.42095 
L 190.203415 562.423724 
L 190.77136 562.105228 
L 193.678288 561.722265 
L 194.537349 561.40859 
L 195.250177 560.929682 
L 195.97725 560.230753 
L 196.681428 559.346767 
L 197.710159 557.590976 
L 198.41915 555.926001 
L 199.122106 555.134906 
L 200.282226 554.634356 
L 202.138793 554.16443 
L 203.079952 553.68717 
L 203.958243 553.241792 
L 206.473796 553.183252 
L 207.61071 552.993754 
L 208.346936 552.662677 
L 209.57624 551.637079 
L 210.647598 551.078119 
L 211.726129 550.777599 
L 213.231407 550.696288 
L 214.120412 550.801362 
L 214.80714 550.996248 
L 215.413442 551.168311 
L 215.861984 551.295602 
L 218.385452 551.520738 
L 219.015422 551.715875 
L 219.719145 552.12662 
L 220.619254 552.974896 
L 221.679535 554.40879 
L 223.951786 558.054992 
L 224.762041 559.167062 
L 225.9558 559.913261 
L 226.65704 560.082433 
L 227.425097 560.027083 
L 228.632468 559.777096 
L 229.421099 559.613809 
L 230.373272 559.61757 
L 231.398691 559.770935 
L 233.074057 560.34453 
L 233.348022 560.438327 
L 235.804159 561.753479 
L 236.757845 561.983579 
L 237.269015 561.970431 
L 237.714512 561.958973 
L 239.923253 561.347381 
L 241.957373 561.059293 
L 243.576127 561.246229 
L 245.494229 561.774212 
L 245.724956 561.874562 
L 246.560757 562.238078 
L 247.611381 562.969414 
L 248.143069 563.575318 
L 249.198426 565.233426 
L 250.12658 566.131678 
L 251.184542 566.804973 
L 253.985444 567.963659 
L 254.542238 568.406765 
L 255.060914 569.023862 
L 256.133383 569.706041 
L 258.271245 570.4068 
L 259.79014 571.056064 
L 260.39047 570.98929 
L 261.878858 570.533614 
L 262.153012 570.396584 
L 263.567812 569.689428 
L 264.650721 569.493314 
L 265.765084 569.291504 
L 267.221977 568.528302 
L 268.011055 567.718609 
L 268.165594 567.367414 
L 268.515809 566.571539 
L 268.450588 565.620747 
L 267.843898 564.604298 
L 267.678936 563.861107 
L 268.300335 561.100484 
L 268.118412 559.323461 
L 268.400507 558.546906 
L 269.835033 556.628992 
L 270.483848 555.376964 
L 270.853657 554.175536 
L 271.717698 552.809563 
L 273.45288 551.169565 
L 273.838875 550.982083 
L 274.398329 550.897402 
L 274.937593 551.098264 
L 275.638487 551.171149 
L 277.009039 550.963412 
L 278.351262 550.233562 
L 278.805955 549.833939 
L 279.588946 549.14578 
L 300.858254 496.068819 
L 312.925767 465.954682 
L 313.108198 465.49943 
L 368.519513 327.222055 
L 377.913276 303.780184 
L 381.234913 295.491132 
L 381.659309 294.432062 
L 412.677363 217.027383 
L 445.966895 133.954292 
L 445.980637 133.92 
L 446.148988 134.160128 
L 446.222279 134.264668 
L 447.189771 135.644653 
L 447.419338 136.439598 
L 447.586735 138.086758 
L 447.931971 139.088084 
L 448.831848 139.915538 
L 449.996197 140.332548 
L 450.957981 140.366414 
L 453.346046 140.936208 
L 454.175304 141.219272 
L 454.481195 141.323688 
L 455.44054 141.916186 
L 456.249902 143.200968 
L 456.685168 143.891909 
L 457.567864 144.459909 
L 457.789733 144.602679 
L 459.019618 145.070425 
L 459.539548 145.546208 
L 459.767046 146.560609 
L 460.134821 148.200501 
L 462.660437 150.593699 
L 463.823012 151.392947 
L 466.006725 152.020435 
L 468.670819 151.872133 
L 468.721208 151.869329 
L 469.372267 151.917918 
L 470.654271 152.552444 
L 471.884461 153.161325 
L 473.602476 153.305862 
L 474.580521 152.963692 
L 476.687336 151.784714 
L 477.580152 151.215133 
L 478.362948 150.440589 
L 478.903944 150.124074 
L 479.655273 149.865141 
L 480.472511 150.161238 
L 480.716038 150.387907 
L 481.436285 151.058295 
L 482.21281 151.617495 
L 482.537756 151.954256 
L 483.046537 152.804695 
L 483.142019 153.534068 
L 482.99579 153.861957 
L 482.546063 154.17817 
L 481.338426 154.536454 
L 479.982714 154.383896 
L 479.581664 154.466473 
L 479.102701 154.878926 
L 479.142719 155.096158 
L 479.220399 155.517831 
L 479.456393 155.770595 
L 479.560859 155.882486 
L 479.674681 156.004396 
L 480.374439 156.354951 
L 480.472408 156.368265 
L 480.896267 156.425861 
L 481.122003 156.456534 
L 483.223613 156.742109 
L 483.609586 156.858027 
L 484.419263 157.101192 
L 484.820115 157.356774 
L 485.258553 158.068291 
L 485.180292 159.113141 
L 484.917745 159.815516 
L 483.925725 161.564211 
L 481.73168 163.691757 
L 479.330206 165.298567 
L 479.213192 165.565321 
L 479.160215 165.686091 
L 479.208216 165.992538 
L 479.592239 166.370226 
L 480.240893 166.615903 
L 481.372239 166.852529 
L 482.477365 167.229968 
L 483.61179 167.350228 
L 483.959946 167.139641 
L 484.761295 166.006728 
L 485.133545 165.480457 
L 485.845594 164.884124 
L 486.461681 164.703652 
L 486.480698 164.698082 
L 487.636329 164.878504 
L 488.318704 165.432552 
L 488.564825 166.16094 
L 488.494278 166.578187 
L 487.805539 167.923671 
L 487.737474 168.76246 
L 487.706206 169.147782 
L 487.82713 169.323116 
L 488.320131 169.582689 
L 488.663321 169.981732 
L 488.87442 171.109549 
L 488.98824 171.288982 
L 489.519612 171.636511 
L 489.923162 171.766569 
L 490.127375 171.524042 
L 490.211076 171.038731 
L 490.182546 170.586408 
L 489.724829 169.378057 
L 489.767602 168.930641 
L 489.929244 168.623369 
L 490.372756 168.240441 
L 491.332293 167.725747 
L 492.546488 167.373702 
L 492.93487 167.548072 
L 492.983514 167.569911 
L 493.06142 167.806912 
L 492.845473 169.649542 
L 493.187031 170.265454 
L 494.132606 170.887698 
L 494.839938 171.119314 
L 496.234951 171.198603 
L 497.166875 170.914828 
L 497.811021 170.590762 
L 499.060258 170.675851 
L 499.506612 171.315125 
L 499.768342 172.623418 
L 500.242014 173.346577 
L 502.061754 173.978459 
L 502.74682 175.158562 
L 503.630169 175.686567 
L 504.616126 176.62747 
L 504.947035 176.757736 
L 506.51909 176.907907 
L 506.972934 177.244054 
L 507.328152 177.507153 
L 507.667749 178.225785 
L 507.834412 180.550935 
L 507.822186 182.007077 
L 507.968329 184.638585 
L 507.76975 189.697019 
L 507.644101 190.480444 
L 507.28766 191.504615 
L 506.204958 192.851047 
L 504.256312 194.145304 
L 499.702595 198.388785 
L 499.296013 198.999721 
L 498.860359 199.96801 
L 498.342414 201.626568 
L 498.2588 201.894314 
L 498.547936 203.516997 
L 499.010463 204.7602 
L 499.547155 205.644803 
L 500.849888 207.179851 
L 501.428117 207.571908 
L 501.952 207.706741 
L 502.291681 207.662497 
L 504.660528 207.353953 
L 505.396337 207.757101 
L 505.764866 208.303321 
L 505.790787 208.476997 
L 505.960622 209.614882 
L 505.876324 210.510396 
L 505.714529 210.899314 
L 505.373372 211.219295 
L 504.94475 211.405309 
L 503.952748 211.244459 
L 503.661094 211.367771 
L 503.324594 211.760361 
L 502.959801 212.684306 
L 501.857304 213.550958 
L 501.47707 214.135995 
L 501.505265 214.568323 
L 501.861952 215.211432 
L 502.488886 215.937464 
L 502.452086 216.116151 
L 502.219937 216.332649 
L 501.983401 216.390763 
L 501.153529 216.111476 
L 500.286783 216.175879 
L 500.132523 216.734693 
L 500.301248 217.249745 
L 500.839561 218.050371 
L 503.571162 220.79034 
L 504.488774 221.146407 
L 505.685359 221.109863 
L 506.498046 221.085045 
L 506.999246 221.295932 
L 507.428217 221.657036 
L 507.732928 222.161086 
L 507.735152 222.192042 
L 507.771002 222.691179 
L 507.580242 223.115593 
L 507.115741 223.667534 
L 506.99643 224.191329 
L 507.922349 225.140709 
L 508.446918 225.367874 
L 509.440293 225.420065 
L 509.784445 225.438145 
L 510.486202 225.216522 
L 511.988505 225.107796 
L 512.438394 225.310901 
L 512.929979 225.991782 
L 513.034793 226.136959 
L 513.526565 226.337067 
L 514.436428 225.380277 
L 515.257034 224.80838 
L 515.337593 224.780988 
L 516.540583 224.371942 
L 517.550524 224.221767 
L 518.69207 224.682653 
L 520.592342 226.03731 
L 521.068582 226.0666 
L 521.512927 225.803753 
L 521.842114 225.199258 
L 521.981295 224.42286 
L 521.93172 222.522283 
L 522.309925 221.570957 
L 522.811635 221.091852 
L 523.786386 220.598468 
L 524.56696 220.647009 
L 525.692279 220.907016 
L 526.254991 220.801321 
L 527.351339 220.352299 
L 527.956107 220.331271 
L 528.306109 220.452962 
L 528.607042 220.756984 
L 529.299101 222.052348 
L 529.560166 222.171195 
L 529.885974 222.162592 
L 530.134285 221.95664 
L 530.380062 221.490134 
L 530.50574 220.956589 
L 530.558358 219.674126 
L 530.791563 219.040846 
L 531.07683 218.627954 
L 531.753528 218.15216 
L 534.256456 217.47267 
L 535.151864 217.531023 
L 535.494909 217.977667 
L 535.43318 218.484866 
L 535.411091 218.666355 
L 534.926862 219.639716 
L 534.945831 220.008507 
L 535.288 220.075136 
L 535.698586 219.942599 
L 536.735511 219.134977 
L 536.895342 219.115006 
L 537.363711 219.056484 
L 537.694919 219.241315 
L 538.035816 219.692554 
L 538.698525 220.569767 
L 539.661707 221.157107 
L 540.280465 221.237831 
L 540.73475 221.194845 
L 541.147285 221.155809 
L 542.674573 220.353111 
L 543.533916 220.288478 
L 544.266491 220.499754 
L 545.95037 221.425175 
L 545.97159 221.44142 
L 546.620247 221.93801 
L 547.171599 222.076364 
L 547.342666 222.027851 
L 547.460636 221.841591 
L 547.462685 221.800734 
L 547.491713 221.221868 
L 547.148316 220.586054 
L 546.111889 219.402716 
L 545.935138 218.865569 
L 545.960741 218.449196 
L 546.543229 217.834149 
L 547.193274 217.633855 
L 548.631584 217.465521 
L 549.506253 217.684467 
L 549.708615 217.878053 
L 549.726487 218.391495 
L 549.409731 218.937435 
L 549.285829 219.445089 
L 549.469787 219.720036 
L 550.029319 220.088354 
L 551.157795 220.414372 
L 551.655096 220.403713 
L 553.426009 220.365757 
L 554.040898 220.445095 
L 555.847368 220.865471 
L 558.958669 222.151416 
L 559.777223 222.820003 
L 559.991304 223.482557 
L 559.822158 224.051061 
L 559.312371 224.774794 
L 558.920032 225.146303 
L 556.759024 225.984183 
L 555.79742 226.615212 
L 555.524462 227.071949 
L 555.441873 227.508924 
L 555.576096 228.429668 
L 555.789816 228.986241 
L 557.040404 230.263208 
L 558.18032 231.05348 
L 559.987795 231.598645 
L 561.288114 231.990843 
L 563.544065 233.037118 
L 566.212989 235.435117 
L 567.049175 236.003337 
L 568.255037 236.379543 
L 570.560675 236.465575 
L 571.175986 236.761086 
L 571.899828 237.339014 
L 572.015455 237.513168 
L 572.576765 238.358603 
L 574.151359 241.629571 
L 574.746562 243.113727 
L 574.74705 244.493522 
L 574.362819 246.093884 
L 574.441663 246.803386 
L 574.783614 247.360318 
L 575.433061 248.087557 
L 575.994667 249.201062 
L 577.229603 251.219332 
L 579.129167 253.045193 
L 580.209995 253.908465 
L 581.056379 254.428649 
L 582.036651 254.851944 
L 582.497542 254.955759 
L 585.180928 255.560196 
L 586.949159 256.174687 
L 587.686382 256.319744 
L 590.541365 256.495399 
L 591.572513 256.444054 
L 591.946706 256.362235 
L 592.370682 256.269531 
L 593.650469 256.24669 
L 594.04561 256.541079 
L 594.700951 257.317666 
L 595.437606 258.608215 
L 595.485638 258.838744 
L 595.649276 259.624117 
L 595.661958 259.684982 
L 595.584293 260.249543 
L 595.041961 261.378717 
L 593.874688 263.133676 
L 593.740372 263.335618 
L 593.03592 264.76263 
L 592.476649 265.642118 
L 592.333608 266.175649 
L 592.204663 266.656607 
L 592.39237 267.666072 
L 592.309722 267.716676 
L 591.743785 268.044766 
L 591.610523 268.122022 
L 591.576676 268.144175 
L 591.542829 268.166327 
L 591.190299 268.397057 
L 590.746193 268.687722 
L 590.667981 268.738912 
L 590.241892 269.017785 
L 589.741095 269.601749 
L 589.581824 269.78747 
L 589.048337 271.305227 
L 588.999576 271.443948 
L 588.700821 272.293901 
L 588.583362 272.62807 
L 588.013808 274.248437 
L 587.99386 274.305188 
L 587.972614 274.343356 
L 587.795981 274.660687 
L 587.549717 275.10311 
L 587.442335 275.296026 
L 586.756444 275.877854 
L 586.048505 276.478387 
L 585.067052 277.310934 
L 584.608041 277.700305 
L 582.959828 279.098454 
L 581.531297 280.310251 
L 581.45273 280.376897 
L 580.744705 280.973793 
L 580.512493 281.169559 
L 580.510816 281.170972 
L 579.151874 282.316617 
L 577.407342 283.787333 
L 577.00311 284.351498 
L 576.75885 284.692398 
L 576.679864 284.802635 
L 575.278551 286.758371 
L 574.190215 288.277303 
L 573.46986 289.282662 
L 573.204279 289.653319 
L 573.095072 289.805735 
L 572.561277 290.550724 
L 572.387222 290.793643 
L 572.361934 290.828937 
L 572.132233 291.149517 
L 572.022994 291.370709 
L 572.000077 291.41711 
L 571.998735 291.419828 
L 571.935296 291.54828 
L 571.776253 291.870316 
L 571.651997 292.121912 
L 571.637836 292.150585 
L 571.590486 292.24646 
L 571.199409 293.324565 
L 570.882879 295.830527 
L 570.822199 296.310935 
L 570.779519 296.648826 
L 570.65393 297.643117 
L 570.629434 297.837047 
L 570.578911 298.237038 
L 570.575799 298.261674 
L 570.425531 299.451347 
L 570.24796 300.857173 
L 570.017517 302.681591 
L 569.764523 304.684539 
L 569.701137 305.184618 
L 569.656784 305.534523 
L 569.394996 307.599835 
L 569.261254 308.654962 
L 568.881942 311.64746 
L 568.504102 314.628333 
L 568.33321 315.976548 
L 568.196527 317.054877 
L 567.831846 319.931936 
L 567.627714 321.542392 
L 567.402469 323.319411 
L 567.279046 324.293127 
L 567.068053 325.957708 
L 567.074807 326.727937 
L 567.078098 327.103352 
L 567.970457 330.572928 
L 568.687224 333.35979 
L 569.170795 335.239957 
L 569.591916 336.877317 
L 569.627726 337.016552 
L 570.377643 339.709435 
L 570.626919 340.604559 
L 570.707869 340.895245 
L 571.030707 341.911231 
L 571.235436 342.329192 
L 571.438869 342.744506 
L 572.796793 344.643449 
L 574.599506 347.16439 
L 575.443065 348.344035 
L 576.86378 350.330786 
L 578.691225 352.71299 
L 579.017077 353.137761 
L 581.009555 355.735095 
L 582.459081 357.624655 
L 582.656375 358.097402 
L 582.691766 358.182202 
L 583.070052 359.088635 
L 583.077834 359.10728 
L 583.090714 359.164621 
L 583.185033 359.584516 
L 583.400378 360.543202 
L 583.391943 360.652979 
L 583.284546 362.050827 
L 583.029888 363.203474 
L 582.985252 363.405508 
L 582.87023 363.926127 
L 582.866299 363.943918 
L 582.837998 364.072014 
L 581.989495 366.904328 
L 581.95964 367.003984 
L 581.661064 368.000636 
L 580.380956 372.273652 
L 579.906379 373.857796 
L 579.872886 373.969598 
L 579.694419 374.565321 
L 579.345693 374.649175 
L 578.620883 375.174004 
L 578.475702 375.279129 
L 578.128351 375.693093 
L 574.846558 376.010497 
L 574.582168 376.036068 
L 573.77086 376.397511 
L 573.755613 376.404303 
L 572.863009 377.05659 
L 572.173124 377.318419 
L 571.602581 377.405085 
L 567.621225 376.465344 
L 567.040645 376.521362 
L 565.846663 376.667747 
L 563.748581 377.252692 
L 561.86504 377.380886 
L 558.674808 377.242275 
L 557.901782 377.150186 
L 557.440112 377.095187 
L 556.621308 376.997645 
L 552.608012 376.117695 
L 552.412923 376.074921 
L 548.083837 374.805575 
L 544.228532 373.051435 
L 538.834408 370.017491 
L 536.996801 368.983923 
L 535.800555 367.937763 
L 535.153224 367.059994 
L 534.604621 366.265639 
L 534.015593 365.180074 
L 533.14428 363.574266 
L 532.58218 362.752376 
L 531.345722 361.26437 
L 530.858818 360.67841 
L 530.168707 359.505382 
L 529.802147 358.705576 
L 529.620922 357.87622 
L 529.60664 356.181193 
L 529.5031 355.278014 
L 529.48121 355.087061 
L 529.443206 354.993987 
L 528.822075 353.472805 
L 527.654299 351.762635 
L 527.567211 351.635097 
L 527.525683 351.58657 
L 526.069156 349.884565 
L 525.956681 349.753134 
L 525.394251 349.291393 
L 520.264065 346.195541 
L 519.207176 345.62898 
L 518.534578 345.268424 
L 517.548805 344.528493 
L 517.433323 344.412694 
L 517.00158 343.979766 
L 516.417655 344.601054 
L 502.729624 359.164942 
L 502.117838 359.815875 
L 489.507319 373.233306 
L 487.004539 375.896232 
L 483.93396 379.163289 
L 478.812589 384.61236 
L 478.688315 384.865559 
L 478.676913 384.888789 
L 478.676842 384.891133 
L 478.619363 386.774163 
L 482.071553 436.665508 
L 483.387244 437.501639 
L 484.826158 438.666334 
L 485.616333 439.168657 
L 487.391577 439.694323 
L 489.455927 439.879553 
L 492.953996 440.193426 
L 493.508707 440.15904 
L 494.440444 440.247172 
L 495.468692 440.34443 
L 497.206281 440.92174 
L 499.956714 441.835564 
L 501.866278 442.469986 
L 502.922562 443.100904 
L 504.340898 444.484613 
L 506.381007 446.474914 
L 512.830914 453.518346 
L 515.233869 456.505451 
L 518.165441 460.905613 
L 518.272054 461.011009 
L 519.208369 461.936634 
L 520.920451 463.392947 
L 521.049953 463.503103 
L 523.315514 465.130552 
L 529.700255 469.054857 
L 532.001182 470.256226 
L 535.201795 472.423373 
L 537.750854 474.274765 
L 539.050606 474.989715 
L 541.098968 476.366811 
L 546.01963 479.506787 
L 547.646265 480.312595 
L 549.493979 480.797066 
L 550.829818 480.872984 
L 554.50565 481.001839 
L 558.36225 481.995607 
L 560.585779 482.793784 
L 563.938937 484.317866 
L 566.178304 485.518221 
L 567.089835 486.102834 
L 569.642217 487.739812 
L 571.427224 489.196355 
L 572.296565 489.754268 
L 577.236878 491.983256 
L 581.650385 494.273438 
L 582.151141 494.650939 
L 583.717303 496.542459 
L 584.427626 498.242242 
L 585.263009 499.741201 
L 587.436051 502.108366 
L 589.613086 505.831877 
L 593.666964 511.065878 
L 594.257246 512.190872 
L 594.900462 514.185178 
L 594.987974 515.880955 
L 594.213463 520.27192 
L 593.562498 522.073972 
L 592.988366 523.61565 
L 591.741113 525.825807 
L 589.757806 528.907563 
L 589.318929 529.427728 
L 587.11996 532.033931 
L 586.681411 532.851223 
L 586.684737 533.956414 
L 587.017489 534.741601 
L 587.077636 535.338894 
L 588.642793 536.717668 
L 590.621209 539.450573 
L 592.026852 541.660044 
L 593.852161 545.035566 
L 594.419281 546.084334 
L 595.103658 547.56364 
L 595.55788 549.07078 
L 595.777767 550.19956 
L 595.987312 551.891495 
L 596.066462 553.410918 
L 596.198717 555.949806 
L 596.454771 557.741556 
L 596.734919 558.599882 
L 598.054216 561.099491 
L 598.543929 561.843072 
L 599.406239 563.152404 
L 599.447274 563.247904 
L 601.016663 566.900241 
L 601.323669 567.437728 
L 603.286988 570.874991 
L 604.274716 572.097238 
L 605.593691 573.318083 
L 607.384256 574.631804 
L 609.174819 575.945526 
L 610.100012 576.769465 
L 610.810564 577.807039 
L 611.196713 578.77457 
L 611.499598 579.570547 
L 611.592334 580.511609 
L 611.447174 582.970738 
L 610.892141 583.75687 
L 610.649995 584.288231 
L 610.37804 585.482506 
L 610.231215 587.052435 
L 610.32062 589.307836 
L 610.39483 589.859171 
L 610.469041 590.410508 
L 610.993994 592.906392 
L 611.444025 593.883459 
L 611.400837 596.575639 
L 610.040215 601.494874 
L 609.406649 602.882619 
L 607.592477 607.865373 
L 606.452941 610.27463 
L 604.250809 612.507078 
L 603.156964 613.470824 
L 603.07653 613.518809 
L 600.37803 615.155022 
L 599.998312 615.473372 
L 599.618594 615.791723 
L 598.817821 616.575439 
L 598.579092 617.09764 
L 598.584143 617.309181 
L 598.589192 617.520723 
L 595.338314 614.354353 
L 593.041759 613.226284 
L 591.989279 612.793744 
L 591.406071 612.554061 
L 590.70954 612.123241 
L 590.200998 611.682252 
L 590.056848 611.557251 
L 589.908007 611.351719 
L 588.914935 609.980402 
L 588.359528 608.80863 
L 587.063708 605.361154 
L 586.567435 604.425904 
L 585.156499 602.391249 
L 583.861105 600.801145 
L 583.152529 600.234996 
L 582.313392 599.782569 
L 579.879833 598.978108 
L 577.79359 598.716636 
L 576.560056 598.845074 
L 574.355228 598.306677 
L 573.52196 597.999235 
L 569.652165 596.027307 
L 567.662646 595.406413 
L 567.064823 595.334595 
L 566.406728 595.398569 
L 564.693424 596.010221 
L 563.673603 596.079352 
L 562.410168 595.352375 
L 560.7595 594.154308 
L 557.238757 590.538772 
L 556.738142 589.560503 
L 556.576279 588.822714 
L 555.94802 587.249752 
L 555.297326 586.551128 
L 554.58013 586.044072 
L 553.764873 585.078368 
L 553.592277 584.616486 
L 553.383125 582.743393 
L 552.698442 581.245445 
L 548.971022 577.826114 
L 546.088837 575.653019 
L 545.414036 575.404885 
L 544.285574 575.1994 
L 539.951868 576.964302 
L 537.628216 578.074516 
L 536.73331 578.320068 
L 535.742901 578.431866 
L 534.716298 578.258192 
L 532.925692 577.592722 
L 530.453479 576.137535 
L 528.715011 575.298508 
L 527.781767 575.162739 
L 525.484511 574.576725 
L 523.758132 573.897183 
L 522.64484 573.591643 
L 522.379323 573.129497 
L 520.811232 572.123 
L 518.565636 571.90834 
L 516.910695 572.296734 
L 515.826882 572.404693 
L 515.005678 572.774003 
L 512.907864 573.331057 
L 512.092809 573.396452 
L 509.093894 573.29916 
L 508.17445 573.170192 
L 506.359924 583.462973 
L 495.203542 646.746843 
L 497.999756 647.653839 
L 498.838813 647.609499 
L 501.641385 648.005901 
L 502.497329 647.860002 
L 503.538169 647.317723 
L 504.187917 646.74169 
L 504.767083 645.900097 
L 506.090673 645.519147 
L 506.252182 645.164204 
L 506.265325 643.96151 
L 506.533562 643.609406 
L 507.182812 643.382462 
L 508.898782 643.892697 
L 510.440714 645.027174 
L 513.896686 645.871477 
L 514.736879 646.163123 
L 515.525707 646.649182 
L 516.193834 647.351897 
L 517.690551 649.935129 
L 518.222401 650.663726 
L 518.930861 651.634265 
L 519.623299 652.216361 
L 521.313496 653.233071 
L 522.443975 653.913092 
L 523.430082 655.052888 
L 523.945236 655.903084 
L 524.869416 658.283434 
L 524.970688 659.181774 
L 525.25531 660.174675 
L 525.436 660.805011 
L 525.648613 661.546708 
L 525.71332 661.914884 
L 525.917626 663.077366 
L 526.14371 665.610192 
L 526.495831 666.595441 
L 527.46935 667.240328 
L 529.241624 667.968985 
L 531.54859 668.501217 
L 532.610294 668.960095 
L 535.499123 670.849509 
L 537.886693 672.41104 
L 540.992335 673.781743 
L 543.438651 675.224963 
L 544.188099 675.667097 
L 545.225552 676.579114 
L 545.67697 677.112044 
L 545.962748 677.660874 
L 546.261217 679.181907 
L 546.359499 680.147348 
L 546.211635 681.063443 
L 546.239866 681.826508 
L 545.678193 683.046229 
L 544.920778 683.926432 
L 543.749497 684.888088 
L 540.478237 686.964233 
L 539.158843 688.184067 
L 536.434236 690.373841 
L 535.107159 691.242618 
L 534.652349 691.644388 
L 533.741255 692.852299 
L 533.402425 693.574431 
L 533.17557 694.448079 
L 533.1584 694.514203 
L 533.104714 696.172359 
L 533.251092 697.416092 
L 533.38981 697.760343 
L 533.39894 697.783 
L 534.520984 700.567539 
L 534.934729 701.911314 
L 535.000987 703.627747 
L 534.684182 704.946991 
L 534.675043 704.98505 
L 534.597589 704.965064 
L 534.318924 704.891951 
L 534.040984 704.82016 
L 533.763835 704.749578 
L 533.657081 704.722698 
L 533.485841 704.679581 
L 533.206795 704.608482 
L 532.925218 704.536457 
L 532.64376 704.464172 
L 532.361255 704.391331 
L 532.078466 704.318379 
L 531.795985 704.244982 
L 531.513041 704.17124 
L 531.229336 704.096126 
L 530.943242 704.021988 
L 530.655924 703.947862 
L 530.368415 703.874033 
L 530.08055 703.800463 
L 529.792055 703.726758 
L 529.502502 703.652397 
L 529.212807 703.578457 
L 528.927699 703.504887 
L 528.647001 703.433554 
L 528.369252 703.36227 
L 528.09231 703.29206 
L 527.817473 703.221752 
L 527.544038 703.152494 
L 527.267536 703.081754 
L 526.987219 703.009345 
L 526.70494 702.937555 
L 526.423636 702.865196 
L 526.142879 702.793183 
L 525.860981 702.721911 
L 525.577966 702.649959 
L 525.293809 702.576785 
L 525.008904 702.503178 
L 524.72262 702.428657 
L 524.435456 702.354359 
L 524.147496 702.280258 
L 523.859226 702.20649 
L 523.572633 702.132464 
L 523.288417 702.059116 
L 523.00413 701.985818 
L 522.718749 701.912409 
L 522.432346 701.838976 
L 522.145241 701.765665 
L 521.857626 701.692133 
L 521.570153 701.618353 
L 521.285176 701.545772 
L 521.006214 701.474376 
L 520.73165 701.404142 
L 520.459035 701.334229 
L 520.183508 701.264477 
L 519.904902 701.194737 
L 519.62323 701.122181 
L 519.341071 701.048352 
L 519.059458 700.975103 
L 518.77819 700.901706 
L 518.497468 700.828161 
L 518.216771 700.754789 
L 517.934896 700.682579 
L 517.652202 700.611282 
L 517.368021 700.53922 
L 517.083009 700.46565 
L 516.797462 700.391524 
L 516.51201 700.318387 
L 516.227948 700.245929 
L 515.944624 700.173644 
L 515.661454 700.10047 
L 515.378509 700.027394 
L 515.096326 699.953924 
L 514.814107 699.879959 
L 514.532042 699.807797 
L 514.250299 699.734858 
L 513.967735 699.663895 
L 513.684696 699.593031 
L 513.401336 699.521833 
L 513.117595 699.448646 
L 512.834806 699.376831 
L 512.55217 699.303323 
L 512.270308 699.233212 
L 511.989575 699.160211 
L 511.709638 699.087617 
L 511.429523 699.014048 
L 511.148849 698.941602 
L 510.867937 698.869849 
L 510.586515 698.798354 
L 510.305211 698.726786 
L 510.022231 698.654798 
L 509.739002 698.583477 
L 509.455 698.510067 
L 509.170415 698.436041 
L 508.884737 698.360717 
L 508.598073 698.284515 
L 508.31117 698.209191 
L 508.02346 698.134868 
L 507.735535 698.05994 
L 507.447159 697.986703 
L 507.158795 697.912862 
L 506.870133 697.838798 
L 506.582375 697.765031 
L 506.299039 697.692684 
L 506.020944 697.621289 
L 505.746843 697.551574 
L 505.475382 697.481994 
L 505.202743 697.412081 
L 504.928381 697.341773 
L 504.652949 697.270736 
L 504.376542 697.199316 
L 504.099363 697.127822 
L 503.821138 697.055698 
L 503.541653 696.983178 
L 503.26143 696.91119 
L 502.981565 696.839794 
L 502.702032 696.769721 
L 502.423438 696.69898 
L 502.145344 696.628549 
L 501.868319 696.558241 
L 501.592352 696.48708 
L 501.317432 696.41519 
L 501.042535 696.343462 
L 500.766413 696.272165 
L 500.489745 696.201894 
L 500.213422 696.131611 
L 499.937645 696.060611 
L 499.660787 695.989611 
L 499.381896 695.91819 
L 499.103445 695.847709 
L 498.826301 695.777278 
L 498.550489 695.706834 
L 498.275949 695.636464 
L 498.002834 695.566291 
L 497.72978 695.496539 
L 497.456345 695.426602 
L 497.181674 695.355404 
L 496.90434 695.282921 
L 496.62596 695.209908 
L 496.347426 695.137586 
L 496.070306 695.064708 
L 495.794185 694.991867 
L 495.519549 694.918792 
L 495.245033 694.847124 
L 494.970017 694.777916 
L 494.694739 694.715156 
L 494.418772 694.660365 
L 494.141403 694.615704 
L 493.862869 694.581223 
L 493.583181 694.557231 
L 493.303054 694.545594 
L 493.022808 694.545594 
L 492.742646 694.554464 
L 492.463006 694.57197 
L 492.184341 694.599125 
L 491.907221 694.636237 
L 491.632205 694.68427 
L 491.359341 694.742546 
L 491.0894 694.811001 
L 490.822753 694.889253 
L 490.559017 694.976115 
L 490.297516 695.072293 
L 490.039462 695.178231 
L 489.78413 695.294979 
L 489.531853 695.423637 
L 489.282369 695.561238 
L 489.03342 695.70183 
L 488.784245 695.844188 
L 488.534975 695.986979 
L 488.285646 696.129239 
L 488.036411 696.270917 
L 487.787962 696.412683 
L 487.539072 696.554744 
L 487.289267 696.697473 
L 487.037941 696.840659 
L 486.786829 696.983845 
L 486.536263 697.125833 
L 486.286018 697.268599 
L 486.035988 697.410821 
L 485.787954 697.552661 
L 485.541953 697.692721 
L 485.511608 697.710002 
L 485.297188 697.832114 
L 485.050521 697.973978 
L 484.800752 698.11651 
L 484.550721 698.259202 
L 484.298884 698.401918 
L 484.045335 698.544252 
L 483.792546 698.687759 
L 483.539497 698.832168 
L 483.286304 698.977627 
L 483.032589 699.122432 
L 482.779741 699.26584 
L 482.530257 699.407445 
L 482.283899 699.546616 
L 482.041108 699.682451 
L 481.80414 699.815148 
L 481.572795 699.945881 
L 481.343244 700.080036 
L 481.111614 700.216267 
L 480.874908 700.352262 
L 480.635183 700.489852 
L 480.392546 700.627689 
L 480.148197 700.766501 
L 479.900983 700.908266 
L 479.649431 701.051415 
L 479.396262 701.195194 
L 479.141952 701.339628 
L 478.886668 701.484334 
L 478.633178 701.628706 
L 478.381662 701.773053 
L 478.13068 701.916264 
L 477.880079 702.059116 
L 477.629763 702.203204 
L 477.379031 702.347576 
L 477.128157 702.491676 
L 476.87752 702.637173 
L 476.625659 702.781248 
L 476.371313 702.924891 
L 476.117384 703.069795 
L 475.864595 703.214562 
L 475.610191 703.358082 
L 475.356356 703.501527 
L 475.103211 703.645108 
L 474.850364 703.788159 
L 474.59767 703.930986 
L 474.346724 704.074666 
L 474.095362 704.217161 
L 473.845237 704.359717 
L 473.595491 704.501778 
L 473.346697 704.643853 
L 473.098009 704.78526 
L 472.849179 704.926358 
L 472.601312 705.068951 
L 472.351757 705.210852 
L 472.104579 705.351864 
L 471.85979 705.491553 
L 471.616927 705.630329 
L 471.37429 705.768672 
L 471.132413 705.908028 
L 470.889265 706.046804 
L 470.645605 706.187605 
L 470.399473 706.328654 
L 470.152331 706.469307 
L 469.905284 706.610245 
L 469.657095 706.751257 
L 469.406661 706.891935 
L 469.15644 707.031662 
L 468.908251 707.16536 
L 468.663486 707.290842 
L 468.422846 707.408418 
L 468.184357 707.515541 
L 467.945773 707.613338 
L 467.704598 707.704735 
L 467.463696 707.789287 
L 467.222271 707.866353 
L 466.980287 707.936068 
L 466.737305 707.999582 
L 466.489937 708.054632 
L 466.24352 708.104173 
L 465.995237 708.146499 
L 465.745717 708.181993 
L 465.493654 708.211136 
L 465.237668 708.232559 
L 464.979495 708.247952 
L 464.72112 708.257378 
L 464.459679 708.259157 
L 464.193851 708.253289 
L 463.921438 708.239774 
L 463.644794 708.222935 
L 463.366319 708.210766 
L 463.086382 708.187527 
L 462.8095 708.163733 
L 462.530455 708.140359 
L 462.250328 708.118936 
L 461.967003 708.096093 
L 461.68224 708.071842 
L 461.397549 708.051297 
L 461.109874 708.02754 
L 460.821438 708.004993 
L 460.531327 707.97832 
L 460.24131 707.956008 
L 459.950533 707.931917 
L 459.659779 707.907024 
L 459.372556 707.883761 
L 459.086819 707.862264 
L 458.803102 707.841039 
L 458.521394 707.821297 
L 457.961687 707.785038 
L 457.405272 707.735695 
L 457.127748 707.712654 
L 456.85171 707.688526 
L 456.575553 707.665609 
L 456.301417 707.642543 
L 456.028873 707.621245 
L 455.758647 707.600885 
L 455.489872 707.580216 
L 455.221322 707.559547 
L 454.952452 707.538681 
L 454.682261 707.518803 
L 454.411394 707.498171 
L 454.139171 707.47754 
L 453.86576 707.456303 
L 453.590079 707.434522 
L 453.312495 707.411976 
L 453.031607 707.391208 
L 452.747677 707.369193 
L 452.461868 707.348462 
L 452.176297 707.327324 
L 451.889537 707.304222 
L 451.606272 707.287012 
L 451.317016 707.256126 
L 451.030102 707.230516 
L 450.743354 707.210712 
L 450.454919 707.185102 
L 450.165817 707.161764 
L 449.876562 707.140009 
L 449.585998 707.11829 
L 449.295221 707.096398 
L 449.005169 707.07458 
L 448.714831 707.051972 
L 448.423959 707.030241 
L 448.131934 707.007867 
L 447.8391 706.985716 
L 447.546516 706.961749 
L 447.253575 706.937522 
L 446.960599 706.913827 
L 446.668871 706.892268 
L 446.377297 706.870451 
L 446.085058 706.847114 
L 445.792022 706.822986 
L 445.498832 706.799352 
L 445.206188 706.775422 
L 444.913759 706.752183 
L 444.622245 706.729464 
L 444.332727 706.706522 
L 444.043258 706.683988 
L 443.753384 706.662059 
L 443.463367 706.639488 
L 443.17316 706.617435 
L 442.884856 706.596013 
L 442.598452 706.574319 
L 442.312168 706.552007 
L 442.026407 706.529979 
L 441.741014 706.50747 
L 441.455752 706.48559 
L 441.171061 706.462945 
L 440.886084 706.440794 
L 440.601203 706.419063 
L 440.316761 706.396294 
L 440.030738 706.374377 
L 439.746047 706.351855 
L 439.461985 706.325751 
L 439.177769 706.303278 
L 438.892602 706.281819 
L 438.607792 706.26052 
L 438.325311 706.238641 
L 438.050426 706.217046 
L 437.786762 706.195648 
L 437.535174 706.174757 
L 437.29495 706.156324 
L 437.06471 706.13909 
L 436.845857 706.121127 
L 436.638737 706.103819 
L 436.445345 706.087313 
L 436.269782 706.072575 
L 436.115782 706.060974 
L 435.982987 706.050955 
L 435.863053 706.041689 
L 435.752117 706.031336 
L 435.647719 706.023269 
L 435.547409 706.01766 
L 435.450809 706.011396 
L 435.358748 706.005071 
L 435.270325 705.998449 
L 435.185207 705.99116 
L 435.102786 705.98308 
L 435.019094 705.975668 
L 434.92991 705.969441 
L 434.834962 705.963301 
L 434.734272 705.955654 
L 434.629648 705.946858 
L 434.523027 705.937271 
L 434.413113 705.928499 
L 434.299479 705.919209 
L 434.26445 705.916281 
L 434.182719 705.909449 
L 434.065019 705.899825 
L 433.947712 705.890596 
L 433.830952 705.882949 
L 433.716498 705.874573 
L 433.605182 705.864689 
L 433.497099 705.855387 
L 433.389883 705.847838 
L 433.280909 705.840228 
L 433.166454 705.831296 
L 433.0474 705.822623 
L 432.924447 705.812764 
L 432.798641 705.802424 
L 432.670803 705.792207 
L 432.541574 705.782151 
L 432.413902 705.773416 
L 432.288726 705.765077 
L 432.166379 705.756108 
L 432.047004 705.746249 
L 431.925917 705.736526 
L 431.799351 705.726643 
L 431.667423 705.715796 
L 431.5296 705.70459 
L 431.385751 705.693546 
L 431.235578 705.683168 
L 431.07838 705.671889 
L 430.9148 705.659794 
L 430.743671 705.647007 
L 430.565767 705.63343 
L 430.380648 705.618951 
L 430.188243 705.603755 
L 429.988361 705.588695 
L 429.781335 705.572807 
L 429.566536 705.556191 
L 429.344034 705.539253 
L 429.11364 705.520302 
L 428.875816 705.498706 
L 428.633773 705.485524 
L 428.390031 705.462125 
L 428.151768 705.445941 
L 427.917558 705.427608 
L 427.686367 705.408594 
L 427.456448 705.390594 
L 427.224556 705.372866 
L 426.990798 705.353816 
L 426.752891 705.334629 
L 426.512061 705.317753 
L 426.267831 705.297875 
L 426.024171 705.278158 
L 425.911 705.2697 
L 425.781665 705.260034 
L 425.540038 705.240428 
L 425.304497 705.221501 
L 425.146045 705.208102 
L 425.14277 705.207825 
L 425.125239 705.206344 
L 425.077276 705.20229 
L 424.854525 705.181659 
L 424.71374 705.170335 
L 424.633509 705.163881 
L 424.411613 705.145597 
L 424.189076 705.128128 
L 423.963816 705.113525 
L 423.734563 705.09744 
L 423.501435 705.079205 
L 423.264313 705.061044 
L 423.17341 705.053442 
L 423.023031 705.040869 
L 422.777196 705.022906 
L 422.529959 705.0054 
L 422.280403 704.98698 
L 422.030087 704.966744 
L 421.778155 704.944358 
L 421.524546 704.924554 
L 421.268584 704.908666 
L 421.010114 704.898474 
L 420.748388 704.900031 
L 420.484022 704.911397 
L 420.21861 704.931707 
L 419.95302 704.962222 
L 419.685766 705.001583 
L 419.416872 705.0499 
L 419.146575 705.108546 
L 418.874946 705.177038 
L 418.603675 705.257465 
L 418.332142 705.347873 
L 418.063437 705.451278 
L 417.796813 705.56453 
L 417.532959 705.688048 
L 417.271458 705.820152 
L 417.014604 705.962288 
L 416.763777 706.11348 
L 416.520165 706.275716 
L 416.283043 706.447057 
L 416.053754 706.628369 
L 415.832905 706.817673 
L 415.620067 707.013797 
L 415.416595 707.217 
L 415.218223 707.422625 
L 415.02363 707.631659 
L 414.829989 707.842559 
L 414.732912 707.947459 
L 414.635848 708.052359 
L 414.441315 708.261888 
L 414.247983 708.472182 
L 414.056124 708.683008 
L 413.864955 708.89413 
L 413.674546 709.104758 
L 413.484388 709.31525 
L 413.294431 709.525347 
L 413.104272 709.734826 
L 412.915326 709.944354 
L 412.726249 710.153043 
L 412.545159 710.368971 
L 412.363416 710.57525 
L 412.163403 710.772758 
L 411.984061 710.963532 
L 411.811886 711.140371 
L 411.645643 711.309959 
L 411.468084 711.466537 
L 411.290548 711.621187 
L 410.92289 711.896589 
L 410.73556 712.0313 
L 410.544201 712.158957 
L 410.35063 712.282993 
L 410.153554 712.399976 
L 409.953577 712.51046 
L 409.749618 712.612642 
L 409.542533 712.708005 
L 409.335067 712.799797 
L 409.124392 712.885042 
L 408.910806 712.964146 
L 408.697504 713.04157 
L 408.486663 713.117883 
L 408.276761 713.190625 
L 408.066716 713.268222 
L 407.63808 713.422218 
L 407.421058 713.501989 
L 407.200529 713.580402 
L 406.977231 713.656776 
L 406.752923 713.730568 
L 406.529815 713.806423 
L 406.30345 713.873458 
L 406.073816 713.937008 
L 405.84196 713.992392 
L 405.605694 714.041204 
L 405.365053 714.086458 
L 405.117721 714.126708 
L 404.865979 714.162437 
L 404.608709 714.192766 
L 404.344546 714.216795 
L 404.075354 714.238774 
L 403.801325 714.263532 
L 403.527283 714.286671 
L 403.257153 714.309415 
L 402.985584 714.332456 
L 402.758447 714.350135 
L 402.708631 714.354014 
L 402.426709 714.375276 
L 402.142517 714.398181 
L 401.856458 714.421852 
L 401.568664 714.444917 
L 401.280573 714.469502 
L 400.99291 714.494198 
L 400.707042 714.520599 
L 400.41674 714.54002 
L 400.125286 714.566248 
L 399.834092 714.592884 
L 399.535862 714.614146 
L 399.242161 714.641832 
L 398.952085 714.662365 
L 398.670341 714.68412 
L 397.830436 714.755973 
L 397.268351 714.794209 
L 396.992004 714.817349 
L 396.716536 714.841254 
L 396.159135 714.887361 
L 395.882562 714.914058 
L 395.609614 714.944388 
L 395.336429 714.973235 
L 395.061544 715.00359 
L 394.782617 715.029793 
L 394.503132 715.059394 
L 394.221899 715.085795 
L 393.93987 715.110874 
L 393.657366 715.134545 
L 393.375432 715.156696 
L 393.093142 715.180033 
L 392.811434 715.201023 
L 392.530297 715.223644 
L 392.25055 715.244275 
L 391.976449 715.261485 
L 391.707555 715.274272 
L 391.445162 715.287219 
L 391.186882 715.300413 
L 390.978537 715.315439 
L 388.001671 715.567208 
L 387.805885 715.571961 
L 387.780285 715.574122 
L 387.533879 715.590405 
L 387.283016 715.599893 
L 387.029467 715.601648 
L 386.865491 715.594796 
L 386.677571 715.599359 
L 385.568368 715.461388 
L 384.52594 715.145543 
L 384.077879 714.997206 
L 383.078133 714.474232 
L 380.853268 712.701366 
L 380.779195 712.642342 
L 377.226216 709.377498 
L 375.849931 707.948244 
L 373.951478 705.45164 
L 372.37601 703.379789 
L 371.181052 701.808335 
L 370.582056 701.108933 
L 369.924965 700.3417 
L 369.787211 700.246879 
L 369.717135 700.202158 
L 369.570992 700.117408 
L 369.430661 700.044172 
L 369.293123 699.980485 
L 369.1553 699.925212 
L 369.016835 699.875511 
L 368.878311 699.831048 
L 368.735246 699.793096 
L 368.586191 699.762778 
L 368.435019 699.738811 
L 368.280639 699.719069 
L 368.121598 699.704837 
L 367.960965 699.699067 
L 367.799477 699.702687 
L 367.635016 699.714164 
L 367.468999 699.734067 
L 367.299962 699.761555 
L 367.12944 699.796493 
L 366.960878 699.839288 
L 366.794861 699.889718 
L 366.629604 699.948216 
L 366.4672 700.012199 
L 366.30854 700.078813 
L 366.152258 700.147441 
L 365.995012 700.216328 
L 365.840097 700.286081 
L 365.687844 700.356611 
L 365.539204 700.423954 
L 365.393132 700.489123 
L 365.248035 700.555305 
L 365.105112 700.62103 
L 364.96572 700.685049 
L 364.830655 700.745734 
L 364.702032 700.805528 
L 364.574693 700.861617 
L 364.452251 700.916729 
L 364.333898 700.969272 
L 364.221631 701.016317 
L 364.121571 701.053231 
L 364.039947 701.082202 
L 363.978197 701.105539 
L 363.930569 701.124528 
L 363.895551 701.141429 
L 363.868094 701.154425 
L 363.865835 701.155401 
L 363.857717 701.15891 
L 363.843287 701.165211 
L 363.831531 701.170436 
L 363.809363 701.182704 
L 363.779385 701.197233 
L 363.742633 701.218482 
L 363.698142 701.246625 
L 363.638163 701.28244 
L 363.566131 701.319293 
L 363.492138 701.355886 
L 363.406009 701.395062 
L 363.306675 701.440464 
L 363.194681 701.490758 
L 363.0713 701.546056 
L 362.936306 701.608457 
L 362.791422 701.675454 
L 362.645374 701.741278 
L 362.49929 701.807559 
L 362.349747 701.874679 
L 362.200537 701.943616 
L 362.054786 702.009786 
L 361.919007 702.071829 
L 361.807109 702.122284 
L 361.716867 702.16225 
L 361.641163 702.195718 
L 361.573493 702.226109 
L 361.507048 702.255389 
L 361.433768 702.288004 
L 361.347984 702.326228 
L 361.248649 702.370864 
L 361.135336 702.422369 
L 361.010279 702.479347 
L 360.884141 702.537486 
L 360.754246 702.598294 
L 360.616364 702.663537 
L 360.470268 702.733388 
L 360.316315 702.806451 
L 360.154446 702.886358 
L 359.987846 702.973518 
L 359.819689 703.065149 
L 359.662372 703.149294 
L 359.528674 703.220554 
L 359.423824 703.275728 
L 359.346586 703.316967 
L 359.293751 703.349434 
L 359.250877 703.377391 
L 359.216144 703.399147 
L 359.188509 703.415455 
L 359.16596 703.429885 
L 359.147037 703.442362 
L 359.130467 703.453901 
L 359.115062 703.464192 
L 359.101262 703.473557 
L 359.088484 703.481748 
L 359.077038 703.489506 
L 359.068468 703.495202 
L 359.061788 703.500193 
L 359.05689 703.503578 
L 359.052694 703.506271 
L 359.044671 703.511583 
L 359.040178 703.514338 
L 359.036398 703.516587 
L 358.995366 703.546361 
L 358.962572 703.57228 
L 358.919923 703.605513 
L 358.865258 703.648197 
L 358.805956 703.695724 
L 358.74486 703.745771 
L 358.672995 703.803243 
L 358.59023 703.868474 
L 358.496993 703.942525 
L 358.393854 704.025534 
L 358.28564 704.114274 
L 358.179542 704.204547 
L 358.069664 704.302677 
L 357.954663 704.409183 
L 357.835633 704.523312 
L 357.71287 704.645829 
L 357.588182 704.772498 
L 357.46637 704.89798 
L 357.349241 705.018866 
L 357.240326 705.130154 
L 357.141704 705.229803 
L 357.05321 705.321682 
L 356.96632 705.413067 
L 356.874343 705.510319 
L 356.774628 705.614651 
L 356.66721 705.726272 
L 356.55259 705.845997 
L 356.432501 705.97043 
L 356.312449 706.0948 
L 356.183422 706.226929 
L 356.054858 706.360923 
L 355.922087 706.500527 
L 355.784597 706.645344 
L 355.641247 706.794595 
L 355.492405 706.947838 
L 355.338987 707.10622 
L 355.181516 707.268839 
L 355.021168 707.436066 
L 354.857231 707.607062 
L 354.689811 707.782801 
L 354.51892 707.960505 
L 354.344392 708.142904 
L 354.165977 708.328502 
L 353.987859 708.515126 
L 353.812475 708.695992 
L 353.636283 708.878601 
L 353.458236 709.063544 
L 353.278549 709.250588 
L 353.097091 709.440263 
L 352.912864 709.631631 
L 352.727519 709.826952 
L 352.5378 710.022409 
L 352.346536 710.220707 
L 352.152538 710.42134 
L 351.956863 710.623222 
L 351.760215 710.827388 
L 351.561949 711.033779 
L 351.362281 711.241195 
L 351.161306 711.448351 
L 350.960021 711.657521 
L 350.758297 711.868174 
L 350.557476 712.077332 
L 350.357547 712.286551 
L 350.157641 712.495166 
L 349.95701 712.70462 
L 349.756938 712.91405 
L 349.556938 713.122874 
L 349.356485 713.332995 
L 349.15482 713.539485 
L 348.952407 713.744899 
L 348.751098 713.951734 
L 348.551157 714.160052 
L 348.353189 714.367036 
L 348.158929 714.573945 
L 347.968533 714.781089 
L 347.784067 714.991742 
L 347.606425 715.206929 
L 347.43532 715.427885 
L 347.269505 715.655104 
L 347.109276 715.888575 
L 346.955608 716.126593 
L 346.809703 716.370157 
L 346.672569 716.617329 
L 346.543435 716.867293 
L 346.422003 717.120754 
L 346.303484 717.376586 
L 346.187556 717.633666 
L 346.071735 717.891808 
L 345.953619 718.149963 
L 345.834886 718.409465 
L 345.714821 718.669769 
L 345.593461 718.931791 
L 345.471887 719.196654 
L 345.351038 719.461802 
L 345.230866 719.724787 
L 345.111539 719.987229 
L 344.990915 720.246928 
L 344.867796 720.504552 
L 344.748183 720.763263 
L 344.629687 721.025124 
L 344.510633 721.288097 
L 344.390651 721.551564 
L 344.271157 721.815414 
L 344.150807 722.080463 
L 344.030992 722.347154 
L 343.909073 722.612586 
L 343.785704 722.879154 
L 343.662454 723.147192 
L 343.53842 723.416689 
L 343.413993 723.687148 
L 343.289209 723.959177 
L 343.164057 724.231996 
L 343.038941 724.504742 
L 342.915536 724.773249 
L 342.794223 725.036321 
L 342.675989 725.29502 
L 342.560881 725.552125 
L 342.444584 725.808513 
L 342.324924 726.068854 
L 342.203718 726.335101 
L 342.07966 726.604894 
L 341.955304 726.877343 
L 341.832125 727.149507 
L 341.709588 727.418806 
L 341.587158 727.685164 
L 341.464752 727.949496 
L 341.342381 728.21326 
L 341.220153 728.479358 
L 341.097414 728.746606 
L 340.975246 729.014521 
L 340.851995 729.282238 
L 340.728662 729.549893 
L 340.604615 729.816856 
L 340.477241 730.081436 
L 340.346371 730.341814 
L 340.212304 730.596213 
L 340.072283 730.843039 
L 339.924523 731.08081 
L 339.770118 731.309166 
L 339.608867 731.530023 
L 339.44027 731.742999 
L 339.264993 731.950415 
L 339.082192 732.150764 
L 338.891296 732.347456 
L 338.691533 732.53702 
L 338.483022 732.718986 
L 338.265453 732.896838 
L 338.037852 733.063646 
L 337.806542 733.228266 
L 337.570169 733.384066 
L 337.32777 733.530971 
L 337.079819 733.667127 
L 336.824749 733.79282 
L 336.562796 733.90995 
L 336.296814 734.01873 
L 336.026196 734.119108 
L 335.753319 734.213334 
L 335.480384 734.304324 
L 335.209611 734.391409 
L 334.940954 734.478852 
L 334.671097 734.564962 
L 334.399291 734.651973 
L 334.125677 734.739392 
L 333.851398 734.827465 
L 333.57687 734.915255 
L 333.30164 735.003835 
L 333.025923 735.092711 
L 332.749338 735.181082 
L 332.471564 735.268575 
L 332.192721 735.357204 
L 331.913569 735.445191 
L 331.635367 735.53392 
L 331.359995 735.622413 
L 331.085775 735.710178 
L 330.811354 735.798437 
L 330.536944 735.886869 
L 330.262451 735.975696 
L 329.98772 736.065203 
L 329.712241 736.152967 
L 329.435799 736.240176 
L 329.159487 736.327719 
L 328.883877 736.415817 
L 328.607791 736.504718 
L 328.332835 736.592607 
L 328.058687 736.680211 
L 327.785917 736.769421 
L 327.512649 736.855518 
L 327.238916 736.942492 
L 326.964305 737.030047 
L 326.688778 737.118911 
L 326.414023 737.206799 
L 326.139673 737.294984 
L 325.865156 737.382415 
L 325.589724 737.470254 
L 325.312569 737.559131 
L 325.035568 737.647637 
L 324.757866 737.735772 
L 324.480877 737.823846 
L 324.203852 737.912315 
L 323.926602 738.000302 
L 323.64941 738.08866 
L 323.373444 738.17677 
L 323.096811 738.264016 
L 322.822663 738.348223 
L 322.551605 738.425289 
L 322.284518 738.496165 
L 322.020271 738.557319 
L 321.757403 738.608256 
L 321.494404 738.649642 
L 321.230633 738.683543 
L 320.965803 738.705743 
L 320.700451 738.718023 
L 320.434861 738.72 
L 320.167144 738.713156 
L 319.895396 738.697219 
L 319.619382 738.672288 
L 319.339267 738.641081 
L 319.055194 738.606921 
L 318.769813 738.571292 
L 318.486132 738.534649 
L 318.20232 738.496882 
L 317.917129 738.459584 
L 317.631106 738.422534 
L 317.344311 738.385582 
L 317.057563 738.347939 
L 316.77122 738.310011 
L 316.484769 738.272664 
L 316.196535 738.235527 
L 315.908337 738.197587 
L 315.621934 738.158832 
L 315.336981 738.120101 
L 315.051743 738.081865 
L 314.847778 738.054671 
" clip-path="url(#p6bb04e0b8d)" style="fill: #b3e2cd; fill-opacity: 0.65"/>
   </g>
   <g id="PatchCollection_2">
    <path d="M 362.180806 665.912331 
L 362.681366 666.788793 
L 365.121706 674.000253 
L 365.718011 675.704463 
L 368.825975 682.907338 
L 369.186205 683.858617 
L 369.300445 684.310585 
L 369.329828 684.588211 
L 369.280298 685.421099 
L 369.051151 686.164752 
L 368.034209 688.041922 
L 366.87759 690.015517 
L 362.986443 696.601023 
L 362.672451 697.90818 
L 362.815742 699.151835 
L 363.228795 700.217391 
L 363.453317 700.727696 
L 358.471259 703.223605 
L 354.729678 706.907229 
L 348.817187 713.050391 
L 346.431643 715.903549 
L 343.367921 722.445816 
L 339.660026 730.432173 
L 338.278564 732.114751 
L 336.343385 733.35533 
L 328.494716 735.908205 
L 321.455654 738.037253 
L 308.120753 736.43635 
L 288.609542 728.553632 
L 279.120215 721.377171 
L 278.55693 715.122821 
L 284.427831 714.436133 
L 287.899328 710.178023 
L 290.624288 707.413075 
L 296.939931 702.629229 
L 301.23984 703.623402 
L 300.542833 706.499538 
L 309.38038 704.706798 
L 309.618441 706.431256 
L 311.497148 709.629975 
L 315.276373 705.886631 
L 323.821716 706.92371 
L 324.547773 706.999886 
L 325.022243 706.839281 
L 330.206692 704.983051 
L 326.627895 696.707752 
L 327.864736 696.275698 
L 327.38796 694.773283 
L 349.348771 686.867228 
L 352.926913 676.060328 
L 357.494267 667.880428 
L 361.917664 666.066068 
L 362.180806 665.912331 
" clip-path="url(#p6bb04e0b8d)" style="fill: none; stroke: #000000; stroke-width: 2"/>
   </g>
   <g id="matplotlib.axis_1">
    <g id="xtick_1">
     <g id="line2d_1">
      <path d="M 111.119662 768.96 
L 111.119662 103.68 
" clip-path="url(#p6bb04e0b8d)" style="fill: none; stroke: #b0b0b0; stroke-width: 0.8; stroke-linecap: square"/>
     </g>
     <g id="line2d_2">
      <defs>
       <path id="m4ca49d8f15" d="M 0 0 
L 0 3.5 
" style="stroke: #000000; stroke-width: 0.8"/>
      </defs>
      <g>
       <use xlink:href="#m4ca49d8f15" x="111.119662" y="768.96" style="stroke: #000000; stroke-width: 0.8"/>
      </g>
     </g>
     <g id="text_1">
      <!-- 58.30 -->
      <g transform="translate(99.986597 807.501382) rotate(-45) scale(0.1 -0.1)">
       <defs>
        <path id="DejaVuSans-2212" d="M 678 2272 
L 4684 2272 
L 4684 1741 
L 678 1741 
L 678 2272 
z
" transform="scale(0.015625)"/>
        <path id="DejaVuSans-35" d="M 691 4666 
L 3169 4666 
L 3169 4134 
L 1269 4134 
L 1269 2991 
Q 1406 3038 1543 3061 
Q 1681 3084 1819 3084 
Q 2600 3084 3056 2656 
Q 3513 2228 3513 1497 
Q 3513 744 3044 326 
Q 2575 -91 1722 -91 
Q 1428 -91 1123 -41 
Q 819 9 494 109 
L 494 744 
Q 775 591 1075 516 
Q 1375 441 1709 441 
Q 2250 441 2565 725 
Q 2881 1009 2881 1497 
Q 2881 1984 2565 2268 
Q 2250 2553 1709 2553 
Q 1456 2553 1204 2497 
Q 953 2441 691 2322 
L 691 4666 
z
" transform="scale(0.015625)"/>
        <path id="DejaVuSans-38" d="M 2034 2216 
Q 1584 2216 1326 1975 
Q 1069 1734 1069 1313 
Q 1069 891 1326 650 
Q 1584 409 2034 409 
Q 2484 409 2743 651 
Q 3003 894 3003 1313 
Q 3003 1734 2745 1975 
Q 2488 2216 2034 2216 
z
M 1403 2484 
Q 997 2584 770 2862 
Q 544 3141 544 3541 
Q 544 4100 942 4425 
Q 1341 4750 2034 4750 
Q 2731 4750 3128 4425 
Q 3525 4100 3525 3541 
Q 3525 3141 3298 2862 
Q 3072 2584 2669 2484 
Q 3125 2378 3379 2068 
Q 3634 1759 3634 1313 
Q 3634 634 3220 271 
Q 2806 -91 2034 -91 
Q 1263 -91 848 271 
Q 434 634 434 1313 
Q 434 1759 690 2068 
Q 947 2378 1403 2484 
z
M 1172 3481 
Q 1172 3119 1398 2916 
Q 1625 2713 2034 2713 
Q 2441 2713 2670 2916 
Q 2900 3119 2900 3481 
Q 2900 3844 2670 4047 
Q 2441 4250 2034 4250 
Q 1625 4250 1398 4047 
Q 1172 3844 1172 3481 
z
" transform="scale(0.015625)"/>
        <path id="DejaVuSans-2e" d="M 684 794 
L 1344 794 
L 1344 0 
L 684 0 
L 684 794 
z
" transform="scale(0.015625)"/>
        <path id="DejaVuSans-33" d="M 2597 2516 
Q 3050 2419 3304 2112 
Q 3559 1806 3559 1356 
Q 3559 666 3084 287 
Q 2609 -91 1734 -91 
Q 1441 -91 1130 -33 
Q 819 25 488 141 
L 488 750 
Q 750 597 1062 519 
Q 1375 441 1716 441 
Q 2309 441 2620 675 
Q 2931 909 2931 1356 
Q 2931 1769 2642 2001 
Q 2353 2234 1838 2234 
L 1294 2234 
L 1294 2753 
L 1863 2753 
Q 2328 2753 2575 2939 
Q 2822 3125 2822 3475 
Q 2822 3834 2567 4026 
Q 2313 4219 1838 4219 
Q 1578 4219 1281 4162 
Q 984 4106 628 3988 
L 628 4550 
Q 988 4650 1302 4700 
Q 1616 4750 1894 4750 
Q 2613 4750 3031 4423 
Q 3450 4097 3450 3541 
Q 3450 3153 3228 2886 
Q 3006 2619 2597 2516 
z
" transform="scale(0.015625)"/>
        <path id="DejaVuSans-30" d="M 2034 4250 
Q 1547 4250 1301 3770 
Q 1056 3291 1056 2328 
Q 1056 1369 1301 889 
Q 1547 409 2034 409 
Q 2525 409 2770 889 
Q 3016 1369 3016 2328 
Q 3016 3291 2770 3770 
Q 2525 4250 2034 4250 
z
M 2034 4750 
Q 2819 4750 3233 4129 
Q 3647 3509 3647 2328 
Q 3647 1150 3233 529 
Q 2819 -91 2034 -91 
Q 1250 -91 836 529 
Q 422 1150 422 2328 
Q 422 3509 836 4129 
Q 1250 4750 2034 4750 
z
" transform="scale(0.015625)"/>
       </defs>
       <use xlink:href="#DejaVuSans-2212"/>
       <use xlink:href="#DejaVuSans-35" transform="translate(83.789062 0)"/>
       <use xlink:href="#DejaVuSans-38" transform="translate(147.412109 0)"/>
       <use xlink:href="#DejaVuSans-2e" transform="translate(211.035156 0)"/>
       <use xlink:href="#DejaVuSans-33" transform="translate(242.822266 0)"/>
       <use xlink:href="#DejaVuSans-30" transform="translate(306.445312 0)"/>
      </g>
     </g>
    </g>
    <g id="xtick_2">
     <g id="line2d_3">
      <path d="M 170.551719 768.96 
L 170.551719 103.68 
" clip-path="url(#p6bb04e0b8d)" style="fill: none; stroke: #b0b0b0; stroke-width: 0.8; stroke-linecap: square"/>
     </g>
     <g id="line2d_4">
      <g>
       <use xlink:href="#m4ca49d8f15" x="170.551719" y="768.96" style="stroke: #000000; stroke-width: 0.8"/>
      </g>
     </g>
     <g id="text_2">
      <!-- 58.25 -->
      <g transform="translate(159.418654 807.501382) rotate(-45) scale(0.1 -0.1)">
       <defs>
        <path id="DejaVuSans-32" d="M 1228 531 
L 3431 531 
L 3431 0 
L 469 0 
L 469 531 
Q 828 903 1448 1529 
Q 2069 2156 2228 2338 
Q 2531 2678 2651 2914 
Q 2772 3150 2772 3378 
Q 2772 3750 2511 3984 
Q 2250 4219 1831 4219 
Q 1534 4219 1204 4116 
Q 875 4013 500 3803 
L 500 4441 
Q 881 4594 1212 4672 
Q 1544 4750 1819 4750 
Q 2544 4750 2975 4387 
Q 3406 4025 3406 3419 
Q 3406 3131 3298 2873 
Q 3191 2616 2906 2266 
Q 2828 2175 2409 1742 
Q 1991 1309 1228 531 
z
" transform="scale(0.015625)"/>
       </defs>
       <use xlink:href="#DejaVuSans-2212"/>
       <use xlink:href="#DejaVuSans-35" transform="translate(83.789062 0)"/>
       <use xlink:href="#DejaVuSans-38" transform="translate(147.412109 0)"/>
       <use xlink:href="#DejaVuSans-2e" transform="translate(211.035156 0)"/>
       <use xlink:href="#DejaVuSans-32" transform="translate(242.822266 0)"/>
       <use xlink:href="#DejaVuSans-35" transform="translate(306.445312 0)"/>
      </g>
     </g>
    </g>
    <g id="xtick_3">
     <g id="line2d_5">
      <path d="M 229.983776 768.96 
L 229.983776 103.68 
" clip-path="url(#p6bb04e0b8d)" style="fill: none; stroke: #b0b0b0; stroke-width: 0.8; stroke-linecap: square"/>
     </g>
     <g id="line2d_6">
      <g>
       <use xlink:href="#m4ca49d8f15" x="229.983776" y="768.96" style="stroke: #000000; stroke-width: 0.8"/>
      </g>
     </g>
     <g id="text_3">
      <!-- 58.20 -->
      <g transform="translate(218.850711 807.501382) rotate(-45) scale(0.1 -0.1)">
       <use xlink:href="#DejaVuSans-2212"/>
       <use xlink:href="#DejaVuSans-35" transform="translate(83.789062 0)"/>
       <use xlink:href="#DejaVuSans-38" transform="translate(147.412109 0)"/>
       <use xlink:href="#DejaVuSans-2e" transform="translate(211.035156 0)"/>
       <use xlink:href="#DejaVuSans-32" transform="translate(242.822266 0)"/>
       <use xlink:href="#DejaVuSans-30" transform="translate(306.445312 0)"/>
      </g>
     </g>
    </g>
    <g id="xtick_4">
     <g id="line2d_7">
      <path d="M 289.415832 768.96 
L 289.415832 103.68 
" clip-path="url(#p6bb04e0b8d)" style="fill: none; stroke: #b0b0b0; stroke-width: 0.8; stroke-linecap: square"/>
     </g>
     <g id="line2d_8">
      <g>
       <use xlink:href="#m4ca49d8f15" x="289.415832" y="768.96" style="stroke: #000000; stroke-width: 0.8"/>
      </g>
     </g>
     <g id="text_4">
      <!-- 58.15 -->
      <g transform="translate(278.282768 807.501382) rotate(-45) scale(0.1 -0.1)">
       <defs>
        <path id="DejaVuSans-31" d="M 794 531 
L 1825 531 
L 1825 4091 
L 703 3866 
L 703 4441 
L 1819 4666 
L 2450 4666 
L 2450 531 
L 3481 531 
L 3481 0 
L 794 0 
L 794 531 
z
" transform="scale(0.015625)"/>
       </defs>
       <use xlink:href="#DejaVuSans-2212"/>
       <use xlink:href="#DejaVuSans-35" transform="translate(83.789062 0)"/>
       <use xlink:href="#DejaVuSans-38" transform="translate(147.412109 0)"/>
       <use xlink:href="#DejaVuSans-2e" transform="translate(211.035156 0)"/>
       <use xlink:href="#DejaVuSans-31" transform="translate(242.822266 0)"/>
       <use xlink:href="#DejaVuSans-35" transform="translate(306.445312 0)"/>
      </g>
     </g>
    </g>
    <g id="xtick_5">
     <g id="line2d_9">
      <path d="M 348.847889 768.96 
L 348.847889 103.68 
" clip-path="url(#p6bb04e0b8d)" style="fill: none; stroke: #b0b0b0; stroke-width: 0.8; stroke-linecap: square"/>
     </g>
     <g id="line2d_10">
      <g>
       <use xlink:href="#m4ca49d8f15" x="348.847889" y="768.96" style="stroke: #000000; stroke-width: 0.8"/>
      </g>
     </g>
     <g id="text_5">
      <!-- 58.10 -->
      <g transform="translate(337.714824 807.501382) rotate(-45) scale(0.1 -0.1)">
       <use xlink:href="#DejaVuSans-2212"/>
       <use xlink:href="#DejaVuSans-35" transform="translate(83.789062 0)"/>
       <use xlink:href="#DejaVuSans-38" transform="translate(147.412109 0)"/>
       <use xlink:href="#DejaVuSans-2e" transform="translate(211.035156 0)"/>
       <use xlink:href="#DejaVuSans-31" transform="translate(242.822266 0)"/>
       <use xlink:href="#DejaVuSans-30" transform="translate(306.445312 0)"/>
      </g>
     </g>
    </g>
    <g id="xtick_6">
     <g id="line2d_11">
      <path d="M 408.279946 768.96 
L 408.279946 103.68 
" clip-path="url(#p6bb04e0b8d)" style="fill: none; stroke: #b0b0b0; stroke-width: 0.8; stroke-linecap: square"/>
     </g>
     <g id="line2d_12">
      <g>
       <use xlink:href="#m4ca49d8f15" x="408.279946" y="768.96" style="stroke: #000000; stroke-width: 0.8"/>
      </g>
     </g>
     <g id="text_6">
      <!-- 58.05 -->
      <g transform="translate(397.146881 807.501382) rotate(-45) scale(0.1 -0.1)">
       <use xlink:href="#DejaVuSans-2212"/>
       <use xlink:href="#DejaVuSans-35" transform="translate(83.789062 0)"/>
       <use xlink:href="#DejaVuSans-38" transform="translate(147.412109 0)"/>
       <use xlink:href="#DejaVuSans-2e" transform="translate(211.035156 0)"/>
       <use xlink:href="#DejaVuSans-30" transform="translate(242.822266 0)"/>
       <use xlink:href="#DejaVuSans-35" transform="translate(306.445312 0)"/>
      </g>
     </g>
    </g>
    <g id="xtick_7">
     <g id="line2d_13">
      <path d="M 467.712003 768.96 
L 467.712003 103.68 
" clip-path="url(#p6bb04e0b8d)" style="fill: none; stroke: #b0b0b0; stroke-width: 0.8; stroke-linecap: square"/>
     </g>
     <g id="line2d_14">
      <g>
       <use xlink:href="#m4ca49d8f15" x="467.712003" y="768.96" style="stroke: #000000; stroke-width: 0.8"/>
      </g>
     </g>
     <g id="text_7">
      <!-- 58.00 -->
      <g transform="translate(456.578938 807.501382) rotate(-45) scale(0.1 -0.1)">
       <use xlink:href="#DejaVuSans-2212"/>
       <use xlink:href="#DejaVuSans-35" transform="translate(83.789062 0)"/>
       <use xlink:href="#DejaVuSans-38" transform="translate(147.412109 0)"/>
       <use xlink:href="#DejaVuSans-2e" transform="translate(211.035156 0)"/>
       <use xlink:href="#DejaVuSans-30" transform="translate(242.822266 0)"/>
       <use xlink:href="#DejaVuSans-30" transform="translate(306.445312 0)"/>
      </g>
     </g>
    </g>
    <g id="xtick_8">
     <g id="line2d_15">
      <path d="M 527.14406 768.96 
L 527.14406 103.68 
" clip-path="url(#p6bb04e0b8d)" style="fill: none; stroke: #b0b0b0; stroke-width: 0.8; stroke-linecap: square"/>
     </g>
     <g id="line2d_16">
      <g>
       <use xlink:href="#m4ca49d8f15" x="527.14406" y="768.96" style="stroke: #000000; stroke-width: 0.8"/>
      </g>
     </g>
     <g id="text_8">
      <!-- 57.95 -->
      <g transform="translate(516.010995 807.501382) rotate(-45) scale(0.1 -0.1)">
       <defs>
        <path id="DejaVuSans-37" d="M 525 4666 
L 3525 4666 
L 3525 4397 
L 1831 0 
L 1172 0 
L 2766 4134 
L 525 4134 
L 525 4666 
z
" transform="scale(0.015625)"/>
        <path id="DejaVuSans-39" d="M 703 97 
L 703 672 
Q 941 559 1184 500 
Q 1428 441 1663 441 
Q 2288 441 2617 861 
Q 2947 1281 2994 2138 
Q 2813 1869 2534 1725 
Q 2256 1581 1919 1581 
Q 1219 1581 811 2004 
Q 403 2428 403 3163 
Q 403 3881 828 4315 
Q 1253 4750 1959 4750 
Q 2769 4750 3195 4129 
Q 3622 3509 3622 2328 
Q 3622 1225 3098 567 
Q 2575 -91 1691 -91 
Q 1453 -91 1209 -44 
Q 966 3 703 97 
z
M 1959 2075 
Q 2384 2075 2632 2365 
Q 2881 2656 2881 3163 
Q 2881 3666 2632 3958 
Q 2384 4250 1959 4250 
Q 1534 4250 1286 3958 
Q 1038 3666 1038 3163 
Q 1038 2656 1286 2365 
Q 1534 2075 1959 2075 
z
" transform="scale(0.015625)"/>
       </defs>
       <use xlink:href="#DejaVuSans-2212"/>
       <use xlink:href="#DejaVuSans-35" transform="translate(83.789062 0)"/>
       <use xlink:href="#DejaVuSans-37" transform="translate(147.412109 0)"/>
       <use xlink:href="#DejaVuSans-2e" transform="translate(211.035156 0)"/>
       <use xlink:href="#DejaVuSans-39" transform="translate(242.822266 0)"/>
       <use xlink:href="#DejaVuSans-35" transform="translate(306.445312 0)"/>
      </g>
     </g>
    </g>
    <g id="xtick_9">
     <g id="line2d_17">
      <path d="M 586.576117 768.96 
L 586.576117 103.68 
" clip-path="url(#p6bb04e0b8d)" style="fill: none; stroke: #b0b0b0; stroke-width: 0.8; stroke-linecap: square"/>
     </g>
     <g id="line2d_18">
      <g>
       <use xlink:href="#m4ca49d8f15" x="586.576117" y="768.96" style="stroke: #000000; stroke-width: 0.8"/>
      </g>
     </g>
     <g id="text_9">
      <!-- 57.90 -->
      <g transform="translate(575.443052 807.501382) rotate(-45) scale(0.1 -0.1)">
       <use xlink:href="#DejaVuSans-2212"/>
       <use xlink:href="#DejaVuSans-35" transform="translate(83.789062 0)"/>
       <use xlink:href="#DejaVuSans-37" transform="translate(147.412109 0)"/>
       <use xlink:href="#DejaVuSans-2e" transform="translate(211.035156 0)"/>
       <use xlink:href="#DejaVuSans-39" transform="translate(242.822266 0)"/>
       <use xlink:href="#DejaVuSans-30" transform="translate(306.445312 0)"/>
      </g>
     </g>
    </g>
    <g id="text_10">
     <!-- Longitude () -->
     <g transform="translate(336.139844 820.57038) scale(0.1 -0.1)">
      <defs>
       <path id="DejaVuSans-4c" d="M 628 4666 
L 1259 4666 
L 1259 531 
L 3531 531 
L 3531 0 
L 628 0 
L 628 4666 
z
" transform="scale(0.015625)"/>
       <path id="DejaVuSans-6f" d="M 1959 3097 
Q 1497 3097 1228 2736 
Q 959 2375 959 1747 
Q 959 1119 1226 758 
Q 1494 397 1959 397 
Q 2419 397 2687 759 
Q 2956 1122 2956 1747 
Q 2956 2369 2687 2733 
Q 2419 3097 1959 3097 
z
M 1959 3584 
Q 2709 3584 3137 3096 
Q 3566 2609 3566 1747 
Q 3566 888 3137 398 
Q 2709 -91 1959 -91 
Q 1206 -91 779 398 
Q 353 888 353 1747 
Q 353 2609 779 3096 
Q 1206 3584 1959 3584 
z
" transform="scale(0.015625)"/>
       <path id="DejaVuSans-6e" d="M 3513 2113 
L 3513 0 
L 2938 0 
L 2938 2094 
Q 2938 2591 2744 2837 
Q 2550 3084 2163 3084 
Q 1697 3084 1428 2787 
Q 1159 2491 1159 1978 
L 1159 0 
L 581 0 
L 581 3500 
L 1159 3500 
L 1159 2956 
Q 1366 3272 1645 3428 
Q 1925 3584 2291 3584 
Q 2894 3584 3203 3211 
Q 3513 2838 3513 2113 
z
" transform="scale(0.015625)"/>
       <path id="DejaVuSans-67" d="M 2906 1791 
Q 2906 2416 2648 2759 
Q 2391 3103 1925 3103 
Q 1463 3103 1205 2759 
Q 947 2416 947 1791 
Q 947 1169 1205 825 
Q 1463 481 1925 481 
Q 2391 481 2648 825 
Q 2906 1169 2906 1791 
z
M 3481 434 
Q 3481 -459 3084 -895 
Q 2688 -1331 1869 -1331 
Q 1566 -1331 1297 -1286 
Q 1028 -1241 775 -1147 
L 775 -588 
Q 1028 -725 1275 -790 
Q 1522 -856 1778 -856 
Q 2344 -856 2625 -561 
Q 2906 -266 2906 331 
L 2906 616 
Q 2728 306 2450 153 
Q 2172 0 1784 0 
Q 1141 0 747 490 
Q 353 981 353 1791 
Q 353 2603 747 3093 
Q 1141 3584 1784 3584 
Q 2172 3584 2450 3431 
Q 2728 3278 2906 2969 
L 2906 3500 
L 3481 3500 
L 3481 434 
z
" transform="scale(0.015625)"/>
       <path id="DejaVuSans-69" d="M 603 3500 
L 1178 3500 
L 1178 0 
L 603 0 
L 603 3500 
z
M 603 4863 
L 1178 4863 
L 1178 4134 
L 603 4134 
L 603 4863 
z
" transform="scale(0.015625)"/>
       <path id="DejaVuSans-74" d="M 1172 4494 
L 1172 3500 
L 2356 3500 
L 2356 3053 
L 1172 3053 
L 1172 1153 
Q 1172 725 1289 603 
Q 1406 481 1766 481 
L 2356 481 
L 2356 0 
L 1766 0 
Q 1100 0 847 248 
Q 594 497 594 1153 
L 594 3053 
L 172 3053 
L 172 3500 
L 594 3500 
L 594 4494 
L 1172 4494 
z
" transform="scale(0.015625)"/>
       <path id="DejaVuSans-75" d="M 544 1381 
L 544 3500 
L 1119 3500 
L 1119 1403 
Q 1119 906 1312 657 
Q 1506 409 1894 409 
Q 2359 409 2629 706 
Q 2900 1003 2900 1516 
L 2900 3500 
L 3475 3500 
L 3475 0 
L 2900 0 
L 2900 538 
Q 2691 219 2414 64 
Q 2138 -91 1772 -91 
Q 1169 -91 856 284 
Q 544 659 544 1381 
z
M 1991 3584 
L 1991 3584 
z
" transform="scale(0.015625)"/>
       <path id="DejaVuSans-64" d="M 2906 2969 
L 2906 4863 
L 3481 4863 
L 3481 0 
L 2906 0 
L 2906 525 
Q 2725 213 2448 61 
Q 2172 -91 1784 -91 
Q 1150 -91 751 415 
Q 353 922 353 1747 
Q 353 2572 751 3078 
Q 1150 3584 1784 3584 
Q 2172 3584 2448 3432 
Q 2725 3281 2906 2969 
z
M 947 1747 
Q 947 1113 1208 752 
Q 1469 391 1925 391 
Q 2381 391 2643 752 
Q 2906 1113 2906 1747 
Q 2906 2381 2643 2742 
Q 2381 3103 1925 3103 
Q 1469 3103 1208 2742 
Q 947 2381 947 1747 
z
" transform="scale(0.015625)"/>
       <path id="DejaVuSans-65" d="M 3597 1894 
L 3597 1613 
L 953 1613 
Q 991 1019 1311 708 
Q 1631 397 2203 397 
Q 2534 397 2845 478 
Q 3156 559 3463 722 
L 3463 178 
Q 3153 47 2828 -22 
Q 2503 -91 2169 -91 
Q 1331 -91 842 396 
Q 353 884 353 1716 
Q 353 2575 817 3079 
Q 1281 3584 2069 3584 
Q 2775 3584 3186 3129 
Q 3597 2675 3597 1894 
z
M 3022 2063 
Q 3016 2534 2758 2815 
Q 2500 3097 2075 3097 
Q 1594 3097 1305 2825 
Q 1016 2553 972 2059 
L 3022 2063 
z
" transform="scale(0.015625)"/>
       <path id="DejaVuSans-20" transform="scale(0.015625)"/>
       <path id="DejaVuSans-28" d="M 1984 4856 
Q 1566 4138 1362 3434 
Q 1159 2731 1159 2009 
Q 1159 1288 1364 580 
Q 1569 -128 1984 -844 
L 1484 -844 
Q 1016 -109 783 600 
Q 550 1309 550 2009 
Q 550 2706 781 3412 
Q 1013 4119 1484 4856 
L 1984 4856 
z
" transform="scale(0.015625)"/>
       <path id="DejaVuSans-b0" d="M 1600 4347 
Q 1350 4347 1178 4173 
Q 1006 4000 1006 3750 
Q 1006 3503 1178 3333 
Q 1350 3163 1600 3163 
Q 1850 3163 2022 3333 
Q 2194 3503 2194 3750 
Q 2194 3997 2020 4172 
Q 1847 4347 1600 4347 
z
M 1600 4750 
Q 1800 4750 1984 4673 
Q 2169 4597 2303 4453 
Q 2447 4313 2519 4134 
Q 2591 3956 2591 3750 
Q 2591 3338 2302 3052 
Q 2013 2766 1594 2766 
Q 1172 2766 890 3047 
Q 609 3328 609 3750 
Q 609 4169 896 4459 
Q 1184 4750 1600 4750 
z
" transform="scale(0.015625)"/>
       <path id="DejaVuSans-29" d="M 513 4856 
L 1013 4856 
Q 1481 4119 1714 3412 
Q 1947 2706 1947 2009 
Q 1947 1309 1714 600 
Q 1481 -109 1013 -844 
L 513 -844 
Q 928 -128 1133 580 
Q 1338 1288 1338 2009 
Q 1338 2731 1133 3434 
Q 928 4138 513 4856 
z
" transform="scale(0.015625)"/>
      </defs>
      <use xlink:href="#DejaVuSans-4c"/>
      <use xlink:href="#DejaVuSans-6f" transform="translate(53.962891 0)"/>
      <use xlink:href="#DejaVuSans-6e" transform="translate(115.144531 0)"/>
      <use xlink:href="#DejaVuSans-67" transform="translate(178.523438 0)"/>
      <use xlink:href="#DejaVuSans-69" transform="translate(242 0)"/>
      <use xlink:href="#DejaVuSans-74" transform="translate(269.783203 0)"/>
      <use xlink:href="#DejaVuSans-75" transform="translate(308.992188 0)"/>
      <use xlink:href="#DejaVuSans-64" transform="translate(372.371094 0)"/>
      <use xlink:href="#DejaVuSans-65" transform="translate(435.847656 0)"/>
      <use xlink:href="#DejaVuSans-20" transform="translate(497.371094 0)"/>
      <use xlink:href="#DejaVuSans-28" transform="translate(529.158203 0)"/>
      <use xlink:href="#DejaVuSans-b0" transform="translate(568.171875 0)"/>
      <use xlink:href="#DejaVuSans-29" transform="translate(618.171875 0)"/>
     </g>
    </g>
   </g>
   <g id="matplotlib.axis_2">
    <g id="ytick_1">
     <g id="line2d_19">
      <path d="M 102.148432 679.010257 
L 635.851568 679.010257 
" clip-path="url(#p6bb04e0b8d)" style="fill: none; stroke: #b0b0b0; stroke-width: 0.8; stroke-linecap: square"/>
     </g>
     <g id="line2d_20">
      <defs>
       <path id="m972c9f872d" d="M 0 0 
L -3.5 0 
" style="stroke: #000000; stroke-width: 0.8"/>
      </defs>
      <g>
       <use xlink:href="#m972c9f872d" x="102.148432" y="679.010257" style="stroke: #000000; stroke-width: 0.8"/>
      </g>
     </g>
     <g id="text_11">
      <!-- 15.8 -->
      <g transform="translate(64.50312 682.809475) scale(0.1 -0.1)">
       <use xlink:href="#DejaVuSans-2212"/>
       <use xlink:href="#DejaVuSans-31" transform="translate(83.789062 0)"/>
       <use xlink:href="#DejaVuSans-35" transform="translate(147.412109 0)"/>
       <use xlink:href="#DejaVuSans-2e" transform="translate(211.035156 0)"/>
       <use xlink:href="#DejaVuSans-38" transform="translate(242.822266 0)"/>
      </g>
     </g>
    </g>
    <g id="ytick_2">
     <g id="line2d_21">
      <path d="M 102.148432 555.467531 
L 635.851568 555.467531 
" clip-path="url(#p6bb04e0b8d)" style="fill: none; stroke: #b0b0b0; stroke-width: 0.8; stroke-linecap: square"/>
     </g>
     <g id="line2d_22">
      <g>
       <use xlink:href="#m972c9f872d" x="102.148432" y="555.467531" style="stroke: #000000; stroke-width: 0.8"/>
      </g>
     </g>
     <g id="text_12">
      <!-- 15.7 -->
      <g transform="translate(64.50312 559.26675) scale(0.1 -0.1)">
       <use xlink:href="#DejaVuSans-2212"/>
       <use xlink:href="#DejaVuSans-31" transform="translate(83.789062 0)"/>
       <use xlink:href="#DejaVuSans-35" transform="translate(147.412109 0)"/>
       <use xlink:href="#DejaVuSans-2e" transform="translate(211.035156 0)"/>
       <use xlink:href="#DejaVuSans-37" transform="translate(242.822266 0)"/>
      </g>
     </g>
    </g>
    <g id="ytick_3">
     <g id="line2d_23">
      <path d="M 102.148432 431.924806 
L 635.851568 431.924806 
" clip-path="url(#p6bb04e0b8d)" style="fill: none; stroke: #b0b0b0; stroke-width: 0.8; stroke-linecap: square"/>
     </g>
     <g id="line2d_24">
      <g>
       <use xlink:href="#m972c9f872d" x="102.148432" y="431.924806" style="stroke: #000000; stroke-width: 0.8"/>
      </g>
     </g>
     <g id="text_13">
      <!-- 15.6 -->
      <g transform="translate(64.50312 435.724025) scale(0.1 -0.1)">
       <defs>
        <path id="DejaVuSans-36" d="M 2113 2584 
Q 1688 2584 1439 2293 
Q 1191 2003 1191 1497 
Q 1191 994 1439 701 
Q 1688 409 2113 409 
Q 2538 409 2786 701 
Q 3034 994 3034 1497 
Q 3034 2003 2786 2293 
Q 2538 2584 2113 2584 
z
M 3366 4563 
L 3366 3988 
Q 3128 4100 2886 4159 
Q 2644 4219 2406 4219 
Q 1781 4219 1451 3797 
Q 1122 3375 1075 2522 
Q 1259 2794 1537 2939 
Q 1816 3084 2150 3084 
Q 2853 3084 3261 2657 
Q 3669 2231 3669 1497 
Q 3669 778 3244 343 
Q 2819 -91 2113 -91 
Q 1303 -91 875 529 
Q 447 1150 447 2328 
Q 447 3434 972 4092 
Q 1497 4750 2381 4750 
Q 2619 4750 2861 4703 
Q 3103 4656 3366 4563 
z
" transform="scale(0.015625)"/>
       </defs>
       <use xlink:href="#DejaVuSans-2212"/>
       <use xlink:href="#DejaVuSans-31" transform="translate(83.789062 0)"/>
       <use xlink:href="#DejaVuSans-35" transform="translate(147.412109 0)"/>
       <use xlink:href="#DejaVuSans-2e" transform="translate(211.035156 0)"/>
       <use xlink:href="#DejaVuSans-36" transform="translate(242.822266 0)"/>
      </g>
     </g>
    </g>
    <g id="ytick_4">
     <g id="line2d_25">
      <path d="M 102.148432 308.382081 
L 635.851568 308.382081 
" clip-path="url(#p6bb04e0b8d)" style="fill: none; stroke: #b0b0b0; stroke-width: 0.8; stroke-linecap: square"/>
     </g>
     <g id="line2d_26">
      <g>
       <use xlink:href="#m972c9f872d" x="102.148432" y="308.382081" style="stroke: #000000; stroke-width: 0.8"/>
      </g>
     </g>
     <g id="text_14">
      <!-- 15.5 -->
      <g transform="translate(64.50312 312.1813) scale(0.1 -0.1)">
       <use xlink:href="#DejaVuSans-2212"/>
       <use xlink:href="#DejaVuSans-31" transform="translate(83.789062 0)"/>
       <use xlink:href="#DejaVuSans-35" transform="translate(147.412109 0)"/>
       <use xlink:href="#DejaVuSans-2e" transform="translate(211.035156 0)"/>
       <use xlink:href="#DejaVuSans-35" transform="translate(242.822266 0)"/>
      </g>
     </g>
    </g>
    <g id="ytick_5">
     <g id="line2d_27">
      <path d="M 102.148432 184.839356 
L 635.851568 184.839356 
" clip-path="url(#p6bb04e0b8d)" style="fill: none; stroke: #b0b0b0; stroke-width: 0.8; stroke-linecap: square"/>
     </g>
     <g id="line2d_28">
      <g>
       <use xlink:href="#m972c9f872d" x="102.148432" y="184.839356" style="stroke: #000000; stroke-width: 0.8"/>
      </g>
     </g>
     <g id="text_15">
      <!-- 15.4 -->
      <g transform="translate(64.50312 188.638575) scale(0.1 -0.1)">
       <defs>
        <path id="DejaVuSans-34" d="M 2419 4116 
L 825 1625 
L 2419 1625 
L 2419 4116 
z
M 2253 4666 
L 3047 4666 
L 3047 1625 
L 3713 1625 
L 3713 1100 
L 3047 1100 
L 3047 0 
L 2419 0 
L 2419 1100 
L 313 1100 
L 313 1709 
L 2253 4666 
z
" transform="scale(0.015625)"/>
       </defs>
       <use xlink:href="#DejaVuSans-2212"/>
       <use xlink:href="#DejaVuSans-31" transform="translate(83.789062 0)"/>
       <use xlink:href="#DejaVuSans-35" transform="translate(147.412109 0)"/>
       <use xlink:href="#DejaVuSans-2e" transform="translate(211.035156 0)"/>
       <use xlink:href="#DejaVuSans-34" transform="translate(242.822266 0)"/>
      </g>
     </g>
    </g>
    <g id="text_16">
     <!-- Latitude () -->
     <g transform="translate(58.423432 464.889531) rotate(-90) scale(0.1 -0.1)">
      <defs>
       <path id="DejaVuSans-61" d="M 2194 1759 
Q 1497 1759 1228 1600 
Q 959 1441 959 1056 
Q 959 750 1161 570 
Q 1363 391 1709 391 
Q 2188 391 2477 730 
Q 2766 1069 2766 1631 
L 2766 1759 
L 2194 1759 
z
M 3341 1997 
L 3341 0 
L 2766 0 
L 2766 531 
Q 2569 213 2275 61 
Q 1981 -91 1556 -91 
Q 1019 -91 701 211 
Q 384 513 384 1019 
Q 384 1609 779 1909 
Q 1175 2209 1959 2209 
L 2766 2209 
L 2766 2266 
Q 2766 2663 2505 2880 
Q 2244 3097 1772 3097 
Q 1472 3097 1187 3025 
Q 903 2953 641 2809 
L 641 3341 
Q 956 3463 1253 3523 
Q 1550 3584 1831 3584 
Q 2591 3584 2966 3190 
Q 3341 2797 3341 1997 
z
" transform="scale(0.015625)"/>
      </defs>
      <use xlink:href="#DejaVuSans-4c"/>
      <use xlink:href="#DejaVuSans-61" transform="translate(55.712891 0)"/>
      <use xlink:href="#DejaVuSans-74" transform="translate(116.992188 0)"/>
      <use xlink:href="#DejaVuSans-69" transform="translate(156.201172 0)"/>
      <use xlink:href="#DejaVuSans-74" transform="translate(183.984375 0)"/>
      <use xlink:href="#DejaVuSans-75" transform="translate(223.193359 0)"/>
      <use xlink:href="#DejaVuSans-64" transform="translate(286.572266 0)"/>
      <use xlink:href="#DejaVuSans-65" transform="translate(350.048828 0)"/>
      <use xlink:href="#DejaVuSans-20" transform="translate(411.572266 0)"/>
      <use xlink:href="#DejaVuSans-28" transform="translate(443.359375 0)"/>
      <use xlink:href="#DejaVuSans-b0" transform="translate(482.373047 0)"/>
      <use xlink:href="#DejaVuSans-29" transform="translate(532.373047 0)"/>
     </g>
    </g>
   </g>
   <g id="patch_3">
    <path d="M 102.148432 768.96 
L 102.148432 103.68 
" style="fill: none; stroke: #000000; stroke-width: 0.8; stroke-linejoin: miter; stroke-linecap: square"/>
   </g>
   <g id="patch_4">
    <path d="M 635.851568 768.96 
L 635.851568 103.68 
" style="fill: none; stroke: #000000; stroke-width: 0.8; stroke-linejoin: miter; stroke-linecap: square"/>
   </g>
   <g id="patch_5">
    <path d="M 102.148432 768.96 
L 635.851568 768.96 
" style="fill: none; stroke: #000000; stroke-width: 0.8; stroke-linejoin: miter; stroke-linecap: square"/>
   </g>
   <g id="patch_6">
    <path d="M 102.148432 103.68 
L 635.851568 103.68 
" style="fill: none; stroke: #000000; stroke-width: 0.8; stroke-linejoin: miter; stroke-linecap: square"/>
   </g>
   <g id="legend_1">
    <g id="patch_7">
     <path d="M 311.728125 891.430125 
L 426.271875 891.430125 
Q 428.271875 891.430125 428.271875 889.430125 
L 428.271875 875.752 
Q 428.271875 873.752 426.271875 873.752 
L 311.728125 873.752 
Q 309.728125 873.752 309.728125 875.752 
L 309.728125 889.430125 
Q 309.728125 891.430125 311.728125 891.430125 
z
" style="fill: #ffffff; opacity: 0.8; stroke: #cccccc; stroke-linejoin: miter"/>
    </g>
    <g id="line2d_29">
     <defs>
      <path id="m3e5e9bf3af" d="M 0 5 
C 1.326016 5 2.597899 4.473168 3.535534 3.535534 
C 4.473168 2.597899 5 1.326016 5 0 
C 5 -1.326016 4.473168 -2.597899 3.535534 -3.535534 
C 2.597899 -4.473168 1.326016 -5 0 -5 
C -1.326016 -5 -2.597899 -4.473168 -3.535534 -3.535534 
C -4.473168 -2.597899 -5 -1.326016 -5 0 
C -5 1.326016 -4.473168 2.597899 -3.535534 3.535534 
C -2.597899 4.473168 -1.326016 5 0 5 
z
"/>
     </defs>
     <g>
      <use xlink:href="#m3e5e9bf3af" x="323.728125" y="881.850437" style="fill: #b3e2cd; fill-opacity: 0.65"/>
     </g>
    </g>
    <g id="text_17">
     <!-- Mirassol d'Oeste -->
     <g transform="translate(341.728125 885.350437) scale(0.1 -0.1)">
      <defs>
       <path id="DejaVuSans-4d" d="M 628 4666 
L 1569 4666 
L 2759 1491 
L 3956 4666 
L 4897 4666 
L 4897 0 
L 4281 0 
L 4281 4097 
L 3078 897 
L 2444 897 
L 1241 4097 
L 1241 0 
L 628 0 
L 628 4666 
z
" transform="scale(0.015625)"/>
       <path id="DejaVuSans-72" d="M 2631 2963 
Q 2534 3019 2420 3045 
Q 2306 3072 2169 3072 
Q 1681 3072 1420 2755 
Q 1159 2438 1159 1844 
L 1159 0 
L 581 0 
L 581 3500 
L 1159 3500 
L 1159 2956 
Q 1341 3275 1631 3429 
Q 1922 3584 2338 3584 
Q 2397 3584 2469 3576 
Q 2541 3569 2628 3553 
L 2631 2963 
z
" transform="scale(0.015625)"/>
       <path id="DejaVuSans-73" d="M 2834 3397 
L 2834 2853 
Q 2591 2978 2328 3040 
Q 2066 3103 1784 3103 
Q 1356 3103 1142 2972 
Q 928 2841 928 2578 
Q 928 2378 1081 2264 
Q 1234 2150 1697 2047 
L 1894 2003 
Q 2506 1872 2764 1633 
Q 3022 1394 3022 966 
Q 3022 478 2636 193 
Q 2250 -91 1575 -91 
Q 1294 -91 989 -36 
Q 684 19 347 128 
L 347 722 
Q 666 556 975 473 
Q 1284 391 1588 391 
Q 1994 391 2212 530 
Q 2431 669 2431 922 
Q 2431 1156 2273 1281 
Q 2116 1406 1581 1522 
L 1381 1569 
Q 847 1681 609 1914 
Q 372 2147 372 2553 
Q 372 3047 722 3315 
Q 1072 3584 1716 3584 
Q 2034 3584 2315 3537 
Q 2597 3491 2834 3397 
z
" transform="scale(0.015625)"/>
       <path id="DejaVuSans-6c" d="M 603 4863 
L 1178 4863 
L 1178 0 
L 603 0 
L 603 4863 
z
" transform="scale(0.015625)"/>
       <path id="DejaVuSans-27" d="M 1147 4666 
L 1147 2931 
L 616 2931 
L 616 4666 
L 1147 4666 
z
" transform="scale(0.015625)"/>
       <path id="DejaVuSans-4f" d="M 2522 4238 
Q 1834 4238 1429 3725 
Q 1025 3213 1025 2328 
Q 1025 1447 1429 934 
Q 1834 422 2522 422 
Q 3209 422 3611 934 
Q 4013 1447 4013 2328 
Q 4013 3213 3611 3725 
Q 3209 4238 2522 4238 
z
M 2522 4750 
Q 3503 4750 4090 4092 
Q 4678 3434 4678 2328 
Q 4678 1225 4090 567 
Q 3503 -91 2522 -91 
Q 1538 -91 948 565 
Q 359 1222 359 2328 
Q 359 3434 948 4092 
Q 1538 4750 2522 4750 
z
" transform="scale(0.015625)"/>
      </defs>
      <use xlink:href="#DejaVuSans-4d"/>
      <use xlink:href="#DejaVuSans-69" transform="translate(86.279297 0)"/>
      <use xlink:href="#DejaVuSans-72" transform="translate(114.0625 0)"/>
      <use xlink:href="#DejaVuSans-61" transform="translate(155.175781 0)"/>
      <use xlink:href="#DejaVuSans-73" transform="translate(216.455078 0)"/>
      <use xlink:href="#DejaVuSans-73" transform="translate(268.554688 0)"/>
      <use xlink:href="#DejaVuSans-6f" transform="translate(320.654297 0)"/>
      <use xlink:href="#DejaVuSans-6c" transform="translate(381.835938 0)"/>
      <use xlink:href="#DejaVuSans-20" transform="translate(409.619141 0)"/>
      <use xlink:href="#DejaVuSans-64" transform="translate(441.40625 0)"/>
      <use xlink:href="#DejaVuSans-27" transform="translate(504.882812 0)"/>
      <use xlink:href="#DejaVuSans-4f" transform="translate(532.373047 0)"/>
      <use xlink:href="#DejaVuSans-65" transform="translate(611.083984 0)"/>
      <use xlink:href="#DejaVuSans-73" transform="translate(672.607422 0)"/>
      <use xlink:href="#DejaVuSans-74" transform="translate(724.707031 0)"/>
      <use xlink:href="#DejaVuSans-65" transform="translate(763.916016 0)"/>
     </g>
    </g>
   </g>
  </g>
 </g>
 <defs>
  <clipPath id="p6bb04e0b8d">
   <rect x="102.148432" y="103.68" width="533.703135" height="665.28"/>
  </clipPath>
 </defs>
</svg>
