<?xml version="1.0" encoding="utf-8" standalone="no"?>
<!DOCTYPE svg PUBLIC "-//W3C//DTD SVG 1.1//EN"
  "http://www.w3.org/Graphics/SVG/1.1/DTD/svg11.dtd">
<svg xmlns:xlink="http://www.w3.org/1999/xlink" width="720pt" height="864pt" viewBox="0 0 720 864" xmlns="http://www.w3.org/2000/svg" version="1.1">
 <metadata>
  <rdf:RDF xmlns:dc="http://purl.org/dc/elements/1.1/" xmlns:cc="http://creativecommons.org/ns#" xmlns:rdf="http://www.w3.org/1999/02/22-rdf-syntax-ns#">
   <cc:Work>
    <dc:type rdf:resource="http://purl.org/dc/dcmitype/StillImage"/>
    <dc:date>2025-06-16T17:44:17.043805</dc:date>
    <dc:format>image/svg+xml</dc:format>
    <dc:creator>
     <cc:Agent>
      <dc:title>Matplotlib v3.10.1, https://matplotlib.org/</dc:title>
     </cc:Agent>
    </dc:creator>
   </cc:Work>
  </rdf:RDF>
 </metadata>
 <defs>
  <style type="text/css">*{stroke-linejoin: round; stroke-linecap: butt}</style>
 </defs>
 <g id="figure_1">
  <g id="patch_1">
   <path d="M 0 864 
L 720 864 
L 720 0 
L 0 0 
z
" style="fill: #ffffff"/>
  </g>
  <g id="axes_1">
   <g id="patch_2">
    <path d="M 90 589.863763 
L 648 589.863763 
L 648 282.776237 
L 90 282.776237 
z
" style="fill: #ffffff"/>
   </g>
   <g id="PatchCollection_1">
    <path d="M 409.501911 366.086536 
L 409.397063 366.862403 
L 409.724627 367.811968 
L 410.385495 368.953493 
L 411.48428 370.287773 
L 412.11 370.5451 
L 414.310967 369.993642 
L 415.378719 369.896538 
L 415.921711 370.026942 
L 416.400678 370.325224 
L 416.457742 370.404259 
L 417.974414 372.504899 
L 418.336707 372.900219 
L 419.489376 374.157965 
L 420.5054 375.386322 
L 420.943846 376.066036 
L 421.14658 376.380333 
L 421.790285 377.037625 
L 422.514489 377.449511 
L 422.727849 377.570858 
L 425.127003 378.514982 
L 425.6894 378.855954 
L 425.978065 379.065637 
L 427.416734 380.110666 
L 428.393692 380.980894 
L 429.122868 381.40729 
L 429.707459 381.580045 
L 430.481764 381.564806 
L 432.76781 380.845311 
L 433.728443 380.450071 
L 434.779354 380.460461 
L 436.075019 380.680584 
L 439.191451 380.851092 
L 439.839599 380.919043 
L 441.201039 381.183125 
L 441.291718 381.210204 
L 441.991124 381.419058 
L 442.385582 381.842903 
L 442.233883 382.557351 
L 441.955716 383.397137 
L 441.950015 384.175805 
L 442.296625 385.420096 
L 442.497697 386.537034 
L 442.574306 387.505725 
L 442.712336 388.163528 
L 442.857385 388.854777 
L 443.789437 390.166539 
L 445.016606 391.18583 
L 447.182348 392.632958 
L 448.870841 393.52934 
L 450.185151 394.08621 
L 450.978783 394.302504 
L 452.505264 394.46103 
L 457.241971 396.347756 
L 458.118881 396.627755 
L 460.397145 396.981162 
L 462.007377 397.119205 
L 463.260994 397.380893 
L 464.491723 397.915981 
L 465.676524 399.018926 
L 466.545964 400.330013 
L 467.579342 402.12631 
L 467.953874 402.423654 
L 468.559942 402.533278 
L 470.025568 402.63967 
L 470.94767 402.535588 
L 471.983725 402.815364 
L 473.157109 402.82379 
L 474.78329 402.697443 
L 475.10678 402.67231 
L 476.600473 402.783248 
L 477.804246 403.038611 
L 478.614994 403.271338 
L 478.972954 403.413629 
L 480.010206 403.825943 
L 481.496014 404.335789 
L 482.619509 405.024599 
L 483.596876 405.818856 
L 483.98543 406.009767 
L 484.638293 406.154406 
L 486.838337 406.423779 
L 488.395177 406.425175 
L 491.298545 406.605979 
L 494.158718 407.205324 
L 494.941089 407.326071 
L 496.375531 407.408615 
L 497.52327 407.578209 
L 498.867821 407.898163 
L 500.16216 407.969955 
L 500.750165 408.002569 
L 500.890779 408.005035 
L 501.470536 408.206892 
L 502.550334 408.529159 
L 503.461289 408.801035 
L 505.226693 409.097359 
L 505.756593 409.069567 
L 506.700601 408.672156 
L 507.086659 408.380922 
L 507.491905 407.978965 
L 507.895692 407.324545 
L 508.270033 406.908134 
L 508.589648 406.367509 
L 508.914113 406.005464 
L 509.802688 405.566415 
L 510.240918 405.448828 
L 511.534593 405.3759 
L 511.85602 405.459063 
L 512.357354 405.700537 
L 512.538023 405.787559 
L 512.726837 406.032937 
L 513.054592 406.45888 
L 513.548016 407.863512 
L 513.643526 408.027513 
L 513.990776 408.623785 
L 514.392676 409.501035 
L 514.624124 409.886406 
L 515.146204 410.558734 
L 515.559269 411.35351 
L 515.73207 411.736397 
L 515.795555 412.124174 
L 515.936487 412.525882 
L 516.111522 413.016813 
L 516.350279 413.423208 
L 516.751408 413.628334 
L 517.233859 413.712587 
L 518.238028 413.561575 
L 519.411725 413.079844 
L 519.785208 412.986619 
L 519.948108 412.945958 
L 519.999709 412.946119 
L 520.654026 412.948156 
L 521.304285 412.971311 
L 522.993418 413.185178 
L 524.898405 413.545529 
L 528.451508 413.986583 
L 528.943937 414.196899 
L 529.734654 414.777265 
L 530.336658 415.014763 
L 531.079815 415.124311 
L 532.721834 415.072341 
L 533.388112 415.10728 
L 538.115449 415.108465 
L 539.724688 415.240628 
L 540.391646 415.396039 
L 541.130812 415.654758 
L 543.152896 416.746799 
L 543.655044 416.947657 
L 544.261387 417.051757 
L 544.924206 417.082554 
L 545.755755 417.092114 
L 546.864057 417.015673 
L 548.345967 416.9858 
L 549.928385 417.071163 
L 550.542052 417.308647 
L 551.10444 417.691537 
L 551.53262 418.065807 
L 551.810209 418.647614 
L 552.120306 419.901371 
L 552.213277 422.315491 
L 552.056572 425.400967 
L 551.800565 427.625512 
L 551.819283 427.903604 
L 552.071033 428.523987 
L 552.317135 428.687445 
L 552.622784 428.72422 
L 553.388886 428.494039 
L 553.802569 428.243555 
L 554.132052 427.997491 
L 554.847903 427.295705 
L 556.160184 425.792167 
L 556.498797 425.480217 
L 557.072604 424.951593 
L 557.210588 424.824474 
L 558.183373 424.186304 
L 559.031585 423.746588 
L 559.515678 423.587834 
L 559.700967 423.569078 
L 560.00421 423.538382 
L 560.366891 423.566795 
L 560.803292 423.677169 
L 561.493158 423.942417 
L 561.767053 424.047727 
L 562.730741 424.659958 
L 564.343403 425.419092 
L 565.298761 425.729921 
L 565.863309 425.906514 
L 566.941316 426.106535 
L 567.550781 426.109034 
L 569.143511 425.934643 
L 569.645598 425.879669 
L 571.412961 425.768555 
L 571.969588 425.77564 
L 573.837687 425.799418 
L 575.011814 425.850616 
L 575.604844 425.983478 
L 576.241331 426.243194 
L 576.46372 426.400528 
L 576.68611 426.557861 
L 576.931598 426.843671 
L 577.090768 427.219513 
L 577.0933 427.825383 
L 577.008092 428.505888 
L 577.19184 428.925615 
L 577.469848 429.177272 
L 578.029091 429.503623 
L 578.694966 429.71909 
L 580.652099 430.183672 
L 580.990783 430.313612 
L 581.329466 430.443551 
L 582.704903 431.147975 
L 584.346115 432.097869 
L 584.98044 432.354751 
L 588.422762 433.338517 
L 589.297644 433.534554 
L 590.172526 433.730591 
L 591.652166 433.876549 
L 592.043377 433.830699 
L 593.012178 433.717155 
L 593.495662 433.526658 
L 593.80685 433.340063 
L 594.271204 432.826508 
L 594.690401 432.123266 
L 595.127511 431.389974 
L 595.80396 430.476157 
L 596.072292 430.197177 
L 596.634401 429.612763 
L 597.520816 428.963099 
L 597.884688 428.789563 
L 598.607927 428.641369 
L 599.139228 428.662469 
L 599.364749 428.754698 
L 600.049201 429.376376 
L 600.502274 430.068898 
L 601.427743 430.999788 
L 601.612267 431.101104 
L 601.869164 431.242159 
L 602.471651 431.277121 
L 603.093245 431.203982 
L 603.29542 431.12777 
L 603.490876 431.05409 
L 604.072084 430.617257 
L 604.590124 430.064728 
L 605.347651 429.256768 
L 606.152332 428.557137 
L 606.564823 428.285767 
L 607.439773 427.710155 
L 607.739127 427.5676 
L 609.685269 426.640828 
L 609.778196 426.569979 
L 610.597166 425.945586 
L 611.393612 425.338365 
L 611.538145 425.256984 
L 612.216897 424.874808 
L 612.518717 424.77139 
L 612.820537 424.667972 
L 613.341923 424.700697 
L 613.369387 424.712562 
L 613.602038 424.813079 
L 614.194527 425.228459 
L 614.230465 425.262598 
L 614.356425 425.38225 
L 614.461505 425.482068 
L 615.931047 427.371052 
L 616.520635 428.128923 
L 616.831207 428.40411 
L 617.171395 428.572426 
L 617.299386 428.583681 
L 617.427377 428.594937 
L 617.531596 428.604102 
L 617.87123 428.503376 
L 618.111373 428.090556 
L 618.124166 427.967798 
L 618.259468 426.669539 
L 618.41128 425.923642 
L 618.630349 424.847302 
L 618.813839 424.261179 
L 619.069457 423.69103 
L 619.238237 423.314572 
L 619.501121 422.873509 
L 619.582904 422.79332 
L 619.72485 422.65414 
L 619.742889 422.636452 
L 620.066959 422.318698 
L 620.347858 422.118006 
L 620.404312 422.09438 
L 620.647011 421.992812 
L 620.688032 421.975644 
L 620.930397 421.874216 
L 621.288193 421.839792 
L 621.106321 422.241621 
L 620.958967 422.83909 
L 620.952636 423.20783 
L 620.923047 423.805636 
L 621.054735 424.422156 
L 621.067167 424.480357 
L 621.342445 425.193763 
L 622.089902 426.939448 
L 622.241187 427.384471 
L 622.486576 428.356533 
L 622.557887 428.957543 
L 622.622519 429.637526 
L 622.632584 430.161443 
L 622.636364 430.358141 
L 622.624627 430.638438 
L 622.61289 430.918736 
L 622.532315 431.353834 
L 622.086122 432.769926 
L 622.075407 432.803933 
L 621.749013 433.75637 
L 621.33527 434.80791 
L 620.735376 436.43853 
L 620.427657 437.324473 
L 620.247697 438.078907 
L 620.140731 438.655562 
L 620.090842 439.466406 
L 620.093409 439.756277 
L 620.100312 440.53585 
L 620.069555 441.935986 
L 620.054249 442.632721 
L 620.05371 443.54129 
L 619.99156 444.327596 
L 619.896852 444.967973 
L 619.717863 445.580209 
L 618.965615 446.456585 
L 618.773161 446.638992 
L 618.469772 446.926544 
L 617.90179 447.259205 
L 617.304367 447.624405 
L 616.603962 447.993354 
L 616.033306 448.17387 
L 615.543971 448.380619 
L 615.360415 448.526404 
L 615.238722 448.623056 
L 614.965972 448.971833 
L 614.701097 449.577767 
L 614.445487 450.367882 
L 614.248808 451.089877 
L 614.122438 451.729993 
L 614.128337 452.151751 
L 614.169437 452.452801 
L 614.182955 452.551816 
L 614.291286 452.994392 
L 614.505559 453.388714 
L 614.644023 453.917353 
L 614.628019 454.413679 
L 614.545098 454.826568 
L 614.522245 454.893286 
L 614.388321 455.284258 
L 614.039228 455.79246 
L 613.560631 456.328294 
L 612.697226 456.966076 
L 611.632028 457.686792 
L 609.690253 458.733781 
L 608.490825 459.565939 
L 606.259611 461.273955 
L 603.73358 463.427555 
L 603.145409 464.11773 
L 602.869279 464.537557 
L 602.729909 464.749455 
L 602.296529 465.34263 
L 602.143238 465.460447 
L 601.792862 465.729739 
L 601.218388 466.05175 
L 600.474254 466.420589 
L 599.935548 466.789539 
L 599.52233 467.115794 
L 599.172222 467.704703 
L 598.980273 468.426694 
L 598.971403 468.555209 
L 598.898668 469.609082 
L 599.038594 471.124243 
L 599.172361 472.684498 
L 599.384784 473.977739 
L 599.597118 475.188504 
L 599.776524 475.846548 
L 599.915238 476.555978 
L 599.862649 477.345595 
L 599.689056 477.922854 
L 599.629564 478.120685 
L 599.267751 479.119631 
L 598.660972 480.158365 
L 598.018341 481.39525 
L 597.442154 482.398249 
L 597.01299 483.200713 
L 596.95384 483.311315 
L 596.544644 484.293285 
L 596.0359 485.177505 
L 595.643883 485.776053 
L 595.386501 486.169036 
L 594.962378 486.754801 
L 594.211365 487.514707 
L 593.252168 488.579758 
L 590.979851 490.561118 
L 589.769773 491.450717 
L 588.756824 492.179325 
L 588.144958 492.591265 
L 587.608807 493.083877 
L 587.005831 493.662121 
L 586.593149 494.186608 
L 586.244443 494.831375 
L 586.235208 494.848451 
L 586.002375 495.454585 
L 585.713862 495.956511 
L 585.606588 496.120589 
L 585.39503 496.444171 
L 585.113906 497.025093 
L 585.073769 497.230375 
L 584.969964 497.761292 
L 584.840278 498.661243 
L 584.802256 499.332594 
L 584.7551 500.039056 
L 584.603197 500.919424 
L 584.521115 501.290249 
L 584.358988 502.022693 
L 584.138127 503.061509 
L 584.004808 503.900391 
L 583.968463 504.194965 
L 583.919474 504.591997 
L 583.80908 505.304324 
L 583.770687 506.044706 
L 583.764254 506.565359 
L 583.670967 506.805801 
L 583.611192 506.959868 
L 583.342127 507.3806 
L 582.775097 507.912069 
L 582.000287 508.454889 
L 581.201748 509.092146 
L 580.724271 509.540259 
L 580.381818 510.101892 
L 579.897508 511.017129 
L 579.730631 511.400212 
L 579.508515 511.910103 
L 579.022488 512.705998 
L 578.714391 513.282029 
L 578.604671 513.526275 
L 578.467539 513.831542 
L 578.303168 514.411519 
L 578.30296 515.029718 
L 578.558799 515.800501 
L 578.67054 516.007114 
L 579.049261 516.707387 
L 579.506544 517.342341 
L 579.9088 517.950056 
L 580.128804 518.46742 
L 580.191459 518.961052 
L 579.978264 519.493535 
L 579.841089 519.622804 
L 579.737791 519.720149 
L 579.459025 519.98285 
L 578.69877 520.403776 
L 578.683813 520.412057 
L 578.047302 520.874798 
L 577.566277 521.434111 
L 577.408202 521.973644 
L 577.336543 522.218224 
L 577.263223 522.629035 
L 577.025759 523.959554 
L 576.914191 525.084093 
L 576.680878 526.761991 
L 576.379708 528.315281 
L 576.082308 529.928484 
L 575.95251 530.953508 
L 575.992794 532.038948 
L 576.019174 533.068066 
L 575.997431 533.487105 
L 575.975344 533.912797 
L 575.730294 534.632618 
L 575.670962 534.708517 
L 575.380947 535.07951 
L 574.845952 535.763892 
L 574.002675 536.535516 
L 572.857469 537.15588 
L 571.289922 537.860367 
L 569.302566 538.55398 
L 569.033442 538.684434 
L 568.420096 538.981745 
L 567.147191 539.78122 
L 566.538208 540.197258 
L 565.521183 540.892058 
L 565.232502 541.151217 
L 564.146401 542.126249 
L 563.146791 542.828139 
L 562.304612 543.345456 
L 561.621013 543.571532 
L 561.04396 543.751407 
L 560.572358 543.753245 
L 559.969714 543.58841 
L 559.397823 543.251666 
L 558.809209 542.671505 
L 558.222515 542.081653 
L 558.083016 541.978562 
L 557.732489 541.719521 
L 557.049431 541.560264 
L 556.415447 541.61588 
L 556.129803 541.640938 
L 555.750214 541.776291 
L 554.986466 542.048629 
L 553.629081 542.373854 
L 552.482689 542.686394 
L 551.922973 542.869688 
L 551.295293 543.514889 
L 550.848834 544.313412 
L 550.481372 544.969127 
L 550.193531 545.682252 
L 549.957846 546.534692 
L 549.856118 547.469819 
L 549.820213 548.50031 
L 549.828157 548.770162 
L 549.845878 549.372157 
L 549.689662 550.395778 
L 549.406807 551.180029 
L 548.99919 551.806786 
L 548.456913 552.329955 
L 547.763643 552.626718 
L 546.81217 552.822617 
L 545.857038 552.937368 
L 544.628537 552.917053 
L 543.716255 552.835341 
L 542.900123 552.62562 
L 541.46372 551.728377 
L 540.457692 551.246489 
L 539.793609 550.932007 
L 538.963403 550.538856 
L 537.215868 549.754304 
L 536.223636 549.421428 
L 535.331123 549.223707 
L 534.421006 549.107978 
L 533.48272 549.126317 
L 532.493504 549.274225 
L 531.626247 549.704293 
L 530.458971 550.418386 
L 529.223801 551.193398 
L 528.114442 552.084191 
L 527.167323 552.793981 
L 526.754002 553.043416 
L 526.426881 553.240829 
L 525.605867 553.56184 
L 525.464201 553.594476 
L 524.392728 553.841316 
L 522.67161 553.984697 
L 521.155896 554.286511 
L 520.414892 554.489112 
L 519.271334 554.868819 
L 518.200693 555.408197 
L 517.35336 556.125626 
L 516.595858 556.629998 
L 515.76693 557.26409 
L 515.209433 557.532753 
L 514.667126 557.695381 
L 513.788702 557.799319 
L 513.027307 557.843016 
L 512.200736 558.093818 
L 511.190602 558.381057 
L 510.134203 558.734837 
L 509.042484 559.167938 
L 508.296628 559.528903 
L 507.514107 559.960125 
L 506.536055 560.637431 
L 505.64747 561.290587 
L 504.732573 561.842671 
L 503.879183 562.496264 
L 503.067724 563.223199 
L 502.25687 563.726306 
L 501.50055 564.298443 
L 500.992832 564.854059 
L 500.474572 565.465836 
L 499.934459 566.203374 
L 499.441114 566.846711 
L 498.974315 567.519415 
L 498.234634 568.305687 
L 497.297231 569.226166 
L 496.290947 570.043206 
L 495.504321 570.670552 
L 494.5936 571.215777 
L 493.531813 571.371631 
L 492.267978 571.247567 
L 490.878879 570.770187 
L 489.567405 570.491645 
L 488.629166 570.463734 
L 488.332619 570.504111 
L 487.836352 570.571683 
L 487.82146 570.57371 
L 487.747349 570.597264 
L 487.559122 570.462119 
L 487.270903 569.126481 
L 487.172768 568.1105 
L 487.181797 567.016232 
L 487.090334 566.099158 
L 486.917848 565.811925 
L 486.609886 565.508463 
L 486.281357 565.399694 
L 485.884585 565.149487 
L 485.614417 564.391041 
L 485.19283 563.457936 
L 485.223509 562.684023 
L 485.316902 562.313124 
L 485.371211 561.718301 
L 485.128973 560.976059 
L 485.072314 560.802452 
L 484.626601 560.370593 
L 483.996516 560.132913 
L 483.498787 560.02803 
L 482.740126 559.868157 
L 481.79116 559.595958 
L 480.327637 559.439977 
L 479.819352 559.385805 
L 479.162519 558.959381 
L 479.02355 558.660542 
L 479.098481 558.458119 
L 479.297525 558.023315 
L 479.744289 557.40653 
L 479.877891 557.131757 
L 479.984549 556.912395 
L 480.088156 556.214206 
L 480.127554 555.766356 
L 479.500865 554.847466 
L 478.796261 554.488901 
L 478.285775 553.950122 
L 477.943983 552.942052 
L 477.992558 551.291011 
L 478.532506 548.064092 
L 478.43554 547.780817 
L 478.364848 547.5743 
L 477.691295 547.192637 
L 477.643687 547.17846 
L 477.110211 547.019585 
L 476.221137 547.078447 
L 475.21271 547.036414 
L 474.515614 546.911467 
L 474.503939 546.913133 
L 473.92736 546.995436 
L 472.403952 547.685434 
L 472.324453 547.721442 
L 472.129553 547.757104 
L 471.02333 547.709935 
L 470.419278 547.259719 
L 470.325283 546.863264 
L 470.482566 545.537856 
L 470.411914 545.186876 
L 470.350386 544.881222 
L 470.166864 544.640336 
L 469.979876 544.555316 
L 469.697531 544.547726 
L 469.248725 544.581487 
L 469.117439 544.612231 
L 468.294216 544.805006 
L 467.086485 545.467661 
L 466.396251 545.767133 
L 465.788043 545.873621 
L 465.194244 545.897004 
L 464.670375 545.79609 
L 464.120512 545.473097 
L 463.516644 544.983294 
L 463.213854 544.856262 
L 462.646563 544.962232 
L 461.164827 545.659388 
L 460.667055 545.766664 
L 460.258963 545.622377 
L 460.226424 545.610873 
L 459.938859 545.289797 
L 459.775058 544.973402 
L 459.703627 544.783887 
L 458.977273 542.856789 
L 458.908782 542.675076 
L 458.84331 542.189224 
L 458.845565 542.154114 
L 458.905623 541.218946 
L 458.741699 540.981986 
L 458.259877 540.79815 
L 457.281014 540.624508 
L 456.438161 540.729218 
L 455.442039 541.026935 
L 454.834868 540.994703 
L 454.254797 541.032007 
L 452.925129 541.632318 
L 452.455283 541.698167 
L 452.069996 541.528892 
L 451.070483 540.412052 
L 450.767719 540.28499 
L 450.312294 540.267733 
L 449.321832 540.404438 
L 447.923824 540.3054 
L 447.161463 540.172533 
L 446.260814 539.935683 
L 445.276376 539.897322 
L 444.723197 540.031856 
L 444.085753 540.359903 
L 442.877402 541.349304 
L 442.361087 542.094276 
L 441.591338 543.502981 
L 441.230675 543.736018 
L 440.407113 544.063043 
L 439.832736 544.285947 
L 439.251964 544.613843 
L 438.959251 544.720138 
L 438.866214 544.718662 
L 438.628046 544.714883 
L 438.03455 544.268797 
L 437.854567 544.047549 
L 437.408499 543.49921 
L 436.832391 542.380504 
L 436.741754 542.2045 
L 436.470556 541.55068 
L 436.36407 541.022911 
L 436.423165 539.65021 
L 436.430911 539.470258 
L 436.350996 539.081365 
L 435.24386 537.570826 
L 435.093853 537.366162 
L 434.842017 536.773763 
L 434.836248 536.749964 
L 434.662126 536.031619 
L 434.429758 535.724776 
L 433.999393 535.479829 
L 433.74889 535.337252 
L 432.986049 534.965 
L 432.464449 534.572758 
L 431.929572 534.111075 
L 431.505225 533.636362 
L 431.244221 533.467972 
L 431.009467 533.480058 
L 430.732157 533.644361 
L 430.223444 534.658095 
L 429.894166 534.941532 
L 429.175467 535.060874 
L 428.114307 534.830917 
L 427.534582 534.8265 
L 427.326489 534.963589 
L 427.004101 535.313236 
L 424.169459 538.073511 
L 423.556328 538.831524 
L 423.345175 539.370735 
L 423.201668 540.090739 
L 423.250042 540.992488 
L 423.66596 542.576553 
L 423.649421 542.936977 
L 423.132889 543.695726 
L 422.866823 544.192911 
L 422.766719 544.649767 
L 422.901179 545.122287 
L 423.296338 545.804816 
L 423.347553 546.332168 
L 423.300959 546.772392 
L 423.200095 546.912874 
L 422.812774 547.673201 
L 422.567766 548.903345 
L 422.362722 549.257793 
L 422.302956 549.361107 
L 421.955312 549.691256 
L 421.369295 550.504929 
L 421.269706 550.892449 
L 421.294782 551.225457 
L 421.815562 551.72868 
L 422.286964 552.016364 
L 423.235906 552.870427 
L 423.501226 553.36409 
L 423.525991 553.738698 
L 423.385901 553.871743 
L 423.220172 554.0137 
L 422.308572 554.212705 
L 421.865382 554.252916 
L 421.487502 554.170807 
L 421.203796 554.109161 
L 420.695018 553.841772 
L 420.339154 553.436883 
L 420.190893 552.964254 
L 420.202508 552.776346 
L 420.246278 552.068225 
L 419.886033 551.786251 
L 419.5656 551.683651 
L 419.096027 551.707772 
L 418.33539 551.882188 
L 417.657793 552.029506 
L 416.124405 552.156346 
L 415.383641 552.399162 
L 415.030749 552.550045 
L 414.380968 552.669825 
L 414.075773 552.861605 
L 413.948668 553.186069 
L 413.918069 553.623083 
L 414.024784 554.109263 
L 413.994834 554.414111 
L 413.869525 554.551813 
L 413.716551 554.493553 
L 413.497855 554.410262 
L 412.825353 553.891964 
L 412.26159 553.596381 
L 411.69879 553.176 
L 411.627351 553.067749 
L 411.410464 552.739108 
L 411.130446 552.314806 
L 410.859645 552.060573 
L 410.38538 551.626541 
L 410.067553 551.665674 
L 409.539771 552.077588 
L 408.661522 553.180132 
L 408.271992 553.565382 
L 407.525568 553.684372 
L 406.766625 553.636855 
L 405.339658 553.446618 
L 404.641869 553.467729 
L 404.295138 553.673027 
L 404.003088 553.948087 
L 403.737141 554.41749 
L 403.421388 555.968141 
L 402.989236 556.505576 
L 402.614347 556.779983 
L 401.852265 557.134557 
L 401.352801 557.449584 
L 401.002926 558.056993 
L 400.86215 558.811741 
L 400.729084 559.538625 
L 399.943025 561.196506 
L 399.674236 562.02642 
L 399.526131 563.314895 
L 399.232967 563.728603 
L 398.786129 564.061091 
L 398.612118 564.19057 
L 398.001593 564.419767 
L 397.431822 564.532583 
L 396.585949 564.526006 
L 396.053079 564.285971 
L 395.58661 563.907879 
L 395.074361 563.278063 
L 394.670635 562.749681 
L 394.01633 561.676747 
L 393.6176 561.465589 
L 393.300617 561.393747 
L 392.927433 561.446263 
L 392.358253 561.843902 
L 391.678841 562.21293 
L 390.987146 562.387719 
L 390.406658 562.466317 
L 390.232237 562.406284 
L 390.002291 562.32714 
L 389.737195 561.815065 
L 389.69521 561.663578 
L 389.211745 559.91917 
L 388.694133 559.02757 
L 387.994641 558.596392 
L 387.554842 558.334864 
L 387.47171 558.28543 
L 386.9654 557.654859 
L 386.846045 557.394104 
L 386.653245 556.972892 
L 386.024552 554.416361 
L 385.604774 553.300912 
L 385.14749 552.372337 
L 384.980214 552.050655 
L 384.623602 551.756606 
L 384.15502 551.655801 
L 383.575239 551.651176 
L 383.008713 551.715988 
L 382.62274 551.643571 
L 382.005171 551.181026 
L 381.647358 551.039497 
L 381.302252 551.036737 
L 380.941583 551.255723 
L 380.551764 551.668612 
L 380.396286 552.124976 
L 380.295144 552.692711 
L 380.451404 553.177399 
L 380.369828 553.719462 
L 380.020862 554.202009 
L 379.65941 554.518053 
L 379.102267 555.137599 
L 378.947551 555.496897 
L 379.066283 556.191196 
L 379.483213 557.581231 
L 379.588915 558.178356 
L 379.474177 558.718245 
L 379.318244 559.140721 
L 378.944671 559.365287 
L 378.405011 559.486215 
L 377.908027 559.482225 
L 376.350925 559.109172 
L 375.10042 558.378031 
L 374.425666 557.66428 
L 374.34746 557.581554 
L 374.252671 557.13969 
L 373.948158 555.720177 
L 373.619172 555.42632 
L 372.230688 555.388551 
L 371.467875 555.367794 
L 371.392901 555.335783 
L 371.135786 555.226006 
L 370.916913 554.974634 
L 370.85 554.710624 
L 370.921467 554.406131 
L 371.187528 553.936809 
L 371.452809 553.564547 
L 371.803136 552.915634 
L 372.126957 552.127838 
L 372.214884 551.490672 
L 371.890907 550.572845 
L 371.907927 550.170843 
L 372.104844 549.714825 
L 372.675912 549.231074 
L 373.07777 548.890661 
L 373.316424 548.393378 
L 373.369923 548.094321 
L 373.403123 547.908736 
L 373.36437 547.575618 
L 372.573835 546.30736 
L 372.34405 545.695365 
L 372.125594 545.168607 
L 371.825612 544.928505 
L 371.453807 544.81457 
L 371.014162 544.881195 
L 370.845678 544.906728 
L 370.803363 544.929611 
L 369.708796 545.521549 
L 369.376066 545.699127 
L 369.15521 545.69734 
L 368.825482 545.500536 
L 367.868031 544.397305 
L 367.331147 544.212687 
L 367.084795 544.19164 
L 366.793151 544.166725 
L 366.322723 544.301578 
L 366.30739 544.311756 
L 365.387518 544.922383 
L 364.255864 545.546673 
L 363.33891 546.274156 
L 361.678269 546.969449 
L 361.552097 547.022276 
L 361.000174 547.355086 
L 359.729827 548.194987 
L 358.847491 549.05065 
L 358.746366 549.148718 
L 358.049433 549.975022 
L 357.616114 550.637079 
L 357.310852 550.828714 
L 356.565102 550.864206 
L 355.770778 550.82233 
L 354.384872 550.749257 
L 353.651685 550.937367 
L 352.640044 551.414385 
L 351.46139 552.056417 
L 350.961652 552.172904 
L 350.591171 552.118581 
L 349.72628 551.529051 
L 348.846573 551.064193 
L 348.311967 550.60218 
L 347.315422 549.235018 
L 346.782307 548.592746 
L 346.082305 548.101625 
L 345.78518 547.678595 
L 345.23935 546.639665 
L 344.744588 546.260157 
L 343.298548 545.846039 
L 342.872814 545.579042 
L 342.503777 545.132249 
L 342.147406 544.824226 
L 341.775521 544.724071 
L 340.88147 544.694473 
L 340.148242 544.530279 
L 339.723093 544.193944 
L 339.298745 543.760549 
L 338.823354 543.061507 
L 338.478695 542.769195 
L 337.942675 542.487398 
L 336.985457 542.501579 
L 336.065035 542.5272 
L 335.387321 542.687937 
L 334.545477 542.970923 
L 334.391365 543.019361 
L 333.963793 542.897898 
L 333.193597 542.558657 
L 332.677796 542.494759 
L 331.465833 542.835375 
L 330.086941 542.657406 
L 329.307575 542.663485 
L 329.047043 542.727673 
L 328.866508 542.775379 
L 328.667144 542.989753 
L 328.536991 543.129706 
L 328.242332 543.791132 
L 328.241585 543.79281 
L 328.239325 543.794462 
L 328.06402 543.922637 
L 327.866595 544.066984 
L 327.215778 544.3111 
L 325.773719 544.546933 
L 324.796797 544.706699 
L 324.480827 544.894526 
L 323.922804 545.226241 
L 323.258841 545.972606 
L 322.961222 546.313557 
L 322.711721 546.436245 
L 322.201008 546.431924 
L 321.566237 546.219616 
L 321.319359 546.216465 
L 321.028099 546.380394 
L 320.832178 546.69766 
L 320.725658 547.875397 
L 320.522162 549.093911 
L 320.353027 549.508467 
L 320.157449 549.784135 
L 319.879633 549.989774 
L 319.6437 549.985631 
L 319.438436 549.814687 
L 319.031308 549.277629 
L 318.45105 548.31918 
L 318.118944 548.257566 
L 316.899736 548.752118 
L 316.258509 548.716483 
L 314.996315 548.530285 
L 314.328942 548.514336 
L 313.789797 548.606802 
L 313.458873 548.56238 
L 313.032851 548.336883 
L 312.695694 547.947054 
L 312.56354 547.842216 
L 312.252293 547.595306 
L 311.839611 547.425385 
L 310.89824 547.314449 
L 310.54944 547.123411 
L 310.353352 546.885758 
L 310.286336 546.649458 
L 310.385778 546.31752 
L 310.552549 546.184251 
L 310.564125 546.175 
L 311.525602 545.384361 
L 311.748561 545.136673 
L 311.82327 544.798378 
L 311.79998 544.728977 
L 311.699337 544.429073 
L 311.109878 543.274192 
L 311.0447 543.146494 
L 310.918193 542.898638 
L 310.804102 542.563343 
L 310.779481 542.210929 
L 310.837275 541.906366 
L 311.075674 541.464683 
L 311.091825 541.187496 
L 310.924732 540.950867 
L 310.598347 540.781156 
L 310.170476 540.777497 
L 308.830359 540.918556 
L 308.417233 540.804087 
L 308.074767 540.496095 
L 307.912437 540.106449 
L 307.625536 539.757335 
L 306.70645 539.083873 
L 306.488093 538.790809 
L 306.284953 538.33148 
L 306.222193 537.596032 
L 306.39206 537.098306 
L 306.567035 536.794995 
L 306.742291 536.491196 
L 306.828459 536.314485 
L 306.803488 536.22932 
L 306.449896 536.237743 
L 306.339873 536.240364 
L 306.062685 536.313725 
L 304.75519 536.432538 
L 304.715496 536.441242 
L 304.647065 536.456249 
L 304.146731 536.56597 
L 303.200915 536.931661 
L 302.124929 537.338942 
L 301.710401 537.390835 
L 301.324897 537.276583 
L 300.788879 537.008504 
L 300.503916 536.766779 
L 300.161985 536.436325 
L 299.500647 535.929693 
L 298.907501 535.632652 
L 298.455522 535.476948 
L 298.101677 535.315376 
L 298.031236 535.057296 
L 298.185555 534.211511 
L 298.223893 534.001391 
L 298.248471 533.866686 
L 298.217043 533.350179 
L 298.154254 533.107645 
L 298.03798 532.658512 
L 297.819891 532.337705 
L 297.435833 532.057061 
L 297.009302 531.900845 
L 295.477493 531.873718 
L 294.843473 531.771162 
L 293.835514 531.817885 
L 293.394593 531.730862 
L 292.996031 531.533277 
L 292.721918 531.309039 
L 292.487187 531.042416 
L 292.382143 530.695979 
L 292.412012 530.432783 
L 292.576508 530.122602 
L 292.580367 530.115325 
L 292.954781 529.910585 
L 294.809581 529.288832 
L 295.087146 529.110979 
L 295.130691 528.861765 
L 294.54422 527.739221 
L 294.520136 527.693123 
L 294.482129 527.577104 
L 294.392042 527.302106 
L 294.398331 527.159661 
L 294.537739 526.371994 
L 294.573786 525.81889 
L 294.529867 525.586139 
L 294.412134 524.96221 
L 293.813983 523.912452 
L 293.025028 522.870896 
L 292.638785 522.273456 
L 292.593795 521.681916 
L 292.691338 521.25701 
L 292.940673 520.649158 
L 293.417806 519.753995 
L 294.205063 518.459032 
L 294.388354 518.220571 
L 294.901339 517.553182 
L 294.956992 517.22472 
L 294.887931 517.034215 
L 294.795317 516.778738 
L 294.278765 516.434669 
L 293.928877 516.362461 
L 293.684684 516.372923 
L 293.030929 516.700563 
L 292.494734 517.186441 
L 291.841876 518.136675 
L 291.476494 518.41021 
L 291.068219 518.576461 
L 289.649163 518.508187 
L 289.265017 518.642537 
L 287.574283 520.181144 
L 287.304722 520.229104 
L 287.055079 520.145174 
L 286.831446 519.923196 
L 286.682606 519.542027 
L 286.666322 519.500326 
L 286.534173 518.857717 
L 286.289854 518.245258 
L 286.07712 517.642585 
L 285.858839 517.464098 
L 285.739639 517.36663 
L 285.538766 517.434053 
L 285.059413 517.857504 
L 284.714047 517.986552 
L 284.294284 518.033193 
L 283.837569 518.010334 
L 283.263249 517.835513 
L 282.140574 517.379184 
L 281.593149 516.990774 
L 281.277403 516.591815 
L 281.118879 516.248494 
L 281.081105 516.024963 
L 281.052224 515.854056 
L 281.211526 515.528436 
L 281.419693 515.341597 
L 281.698276 515.249454 
L 282.071228 515.271839 
L 282.664911 515.797746 
L 282.897137 515.92224 
L 283.11731 515.897294 
L 283.394919 515.740719 
L 283.865263 515.070233 
L 283.961485 514.805969 
L 283.968746 514.426878 
L 283.847061 514.023333 
L 283.56881 513.630995 
L 282.547858 512.967026 
L 282.325852 512.822645 
L 282.192115 512.786559 
L 282.012514 512.738098 
L 281.698526 512.600725 
L 281.397909 512.469202 
L 281.003078 512.405302 
L 280.55868 512.454524 
L 280.512139 512.459679 
L 279.921507 512.724916 
L 279.499248 513.060804 
L 278.884829 513.152086 
L 278.697688 513.110367 
L 278.525794 512.93869 
L 278.473124 512.444209 
L 278.609155 512.108025 
L 278.862052 511.483022 
L 278.896677 511.099712 
L 278.805811 510.753033 
L 278.656816 510.538381 
L 278.377946 510.384416 
L 278.024555 510.369426 
L 277.82035 510.360764 
L 276.923565 510.566699 
L 276.66453 510.739987 
L 276.488352 510.952773 
L 276.40191 512.253783 
L 276.193486 513.905888 
L 276.268266 514.661195 
L 276.192343 514.754858 
L 276.028507 514.819038 
L 275.754473 514.725848 
L 274.81434 514.157869 
L 274.231399 513.912522 
L 273.686411 513.594515 
L 273.389088 513.239723 
L 273.31637 512.908029 
L 273.304825 512.855367 
L 273.434277 512.365989 
L 273.76129 511.738414 
L 274.089918 511.107736 
L 274.320703 509.763981 
L 274.938661 508.517967 
L 274.980926 507.977507 
L 274.941563 507.467772 
L 274.800206 507.170957 
L 274.520679 506.929522 
L 274.177476 506.813301 
L 274.011908 506.814362 
L 273.764393 506.815949 
L 273.481081 507.008402 
L 273.290758 507.302294 
L 272.717423 508.454362 
L 272.470884 508.735179 
L 271.474953 509.543917 
L 270.798946 510.267434 
L 270.238278 510.68382 
L 269.760893 510.880835 
L 269.272479 510.907955 
L 268.355176 510.597972 
L 267.779701 510.561428 
L 267.578557 510.660263 
L 267.364067 510.853311 
L 267.223294 511.20423 
L 267.094 512.385358 
L 267.004063 512.648686 
L 266.761955 512.937586 
L 266.411585 513.121368 
L 264.746332 513.169459 
L 262.581542 512.425966 
L 262.099825 512.353526 
L 261.486187 512.385788 
L 260.977605 512.569913 
L 260.706052 512.764133 
L 259.750468 513.326176 
L 258.9031 513.601595 
L 258.287396 513.866503 
L 257.815463 514.151559 
L 257.441486 514.567962 
L 257.135954 515.046565 
L 256.877637 515.451203 
L 256.647121 515.582547 
L 254.496511 515.763155 
L 253.812955 515.914234 
L 253.329052 516.128377 
L 252.836874 516.436361 
L 252.668026 516.693962 
L 252.620807 516.953564 
L 252.756223 517.206485 
L 252.998789 517.378459 
L 253.758921 517.467317 
L 254.455601 517.548759 
L 254.872567 517.816624 
L 254.889834 517.986572 
L 254.520973 518.643568 
L 254.060133 519.085923 
L 253.407453 519.607813 
L 253.067065 519.879992 
L 251.146061 521.340317 
L 250.573995 521.878154 
L 249.576 523.592235 
L 249.015285 524.700259 
L 248.769282 524.911851 
L 248.431609 524.901389 
L 247.975322 524.804064 
L 247.595566 524.574244 
L 247.289564 524.496015 
L 246.682186 524.521967 
L 246.355719 524.632209 
L 246.085072 524.799552 
L 245.869738 525.08059 
L 245.632977 525.656997 
L 245.426436 526.353159 
L 245.030942 527.17967 
L 244.487488 527.753295 
L 244.25495 527.858093 
L 243.735125 527.891112 
L 242.737044 527.51103 
L 242.143811 527.354719 
L 241.730729 527.350967 
L 240.764718 527.581153 
L 240.363983 527.596374 
L 240.063842 527.5622 
L 239.559258 527.29349 
L 239.220138 527.245334 
L 238.984813 527.444904 
L 238.791485 527.751852 
L 238.782873 527.868216 
L 238.40852 528.572163 
L 237.555165 529.495088 
L 237.300718 529.945543 
L 237.135125 530.484921 
L 237.139482 530.822364 
L 237.141296 530.962831 
L 237.282525 531.265969 
L 237.605332 531.663522 
L 237.625569 531.688445 
L 237.647771 531.715787 
L 238.74784 532.587345 
L 239.507273 533.018562 
L 239.974695 533.28397 
L 240.421722 533.690506 
L 240.586855 533.963083 
L 240.956758 534.913538 
L 241.040974 535.12993 
L 241.449209 535.674458 
L 242.664965 536.869257 
L 243.003906 537.302733 
L 243.8969 538.444794 
L 244.56547 539.403485 
L 244.723959 539.754031 
L 244.770757 540.119193 
L 244.72003 540.421808 
L 244.597228 540.620704 
L 244.10047 540.980782 
L 242.710379 541.603452 
L 242.177526 541.686648 
L 241.927598 541.634067 
L 241.628331 541.499286 
L 240.522363 540.577382 
L 239.975082 540.172025 
L 239.645569 539.927964 
L 239.05006 539.325126 
L 238.439591 538.804571 
L 237.489417 538.153801 
L 237.229158 538.043609 
L 236.6114 537.782052 
L 235.999668 537.646408 
L 235.627233 537.705813 
L 235.38879 537.857917 
L 235.275603 538.149133 
L 235.221586 539.184693 
L 235.156039 539.365034 
L 235.048718 539.464668 
L 234.835329 539.525602 
L 233.350885 539.618917 
L 232.861284 539.765355 
L 231.767407 540.277271 
L 231.046617 540.768556 
L 230.674347 541.031485 
L 230.520208 541.127348 
L 230.214455 541.46526 
L 230.082811 541.727025 
L 230.155238 542.054615 
L 230.294947 542.337053 
L 230.917783 543.194378 
L 231.221055 543.611828 
L 232.491174 544.673284 
L 232.805466 544.984172 
L 233.428039 545.599994 
L 233.620373 545.81475 
L 234.328323 546.605215 
L 234.869488 547.493461 
L 235.681075 549.147232 
L 235.94436 549.683728 
L 236.257584 550.442898 
L 236.734853 552.352683 
L 236.96002 554.448818 
L 236.8697 554.743552 
L 236.614496 555.136185 
L 235.124205 556.677015 
L 234.813001 557.164667 
L 234.524834 557.872628 
L 234.415096 558.236354 
L 234.393001 558.600885 
L 234.458537 558.91252 
L 234.495027 559.086034 
L 234.805621 560.044733 
L 234.834582 560.302827 
L 234.801851 560.459739 
L 234.727908 560.536133 
L 234.461275 560.733311 
L 233.921221 560.910725 
L 233.350607 561.006105 
L 232.75558 561.032085 
L 232.16327 560.95375 
L 231.047975 560.852894 
L 230.57833 560.861151 
L 229.015931 561.236654 
L 227.98566 561.617044 
L 227.476036 561.889035 
L 227.193683 561.955604 
L 226.36696 561.926475 
L 225.737952 561.969897 
L 224.780133 562.291752 
L 222.257236 562.262111 
L 221.851233 562.157733 
L 220.437755 561.31455 
L 219.906029 561.265596 
L 219.518935 561.497236 
L 219.523668 561.666407 
L 219.613031 561.855864 
L 219.865873 562.227352 
L 220.751343 563.058262 
L 220.989408 563.281658 
L 222.226057 564.292986 
L 222.776091 564.59483 
L 223.313594 564.987845 
L 224.278133 565.827504 
L 225.548499 566.581289 
L 226.073264 566.960357 
L 226.245143 567.084514 
L 226.314766 567.148349 
L 226.4811 567.300855 
L 226.593223 567.403657 
L 227.000374 568.054902 
L 227.363823 568.924468 
L 227.43257 569.378189 
L 227.397756 569.761463 
L 227.276037 570.062185 
L 227.010319 570.361577 
L 226.651319 570.590934 
L 225.764965 570.972627 
L 225.036339 571.223714 
L 223.167017 571.596288 
L 222.851141 571.901494 
L 222.436805 572.581911 
L 222.308037 573.084971 
L 221.917327 574.037187 
L 221.720286 574.356068 
L 221.523938 574.599495 
L 221.36034 574.686014 
L 221.19767 574.671926 
L 221.023229 574.575981 
L 220.595272 574.131817 
L 220.382785 573.630785 
L 220.319493 573.481547 
L 219.930499 572.886822 
L 219.588987 572.575516 
L 219.578838 572.571443 
L 219.364406 572.48539 
L 218.867997 572.675714 
L 217.905806 573.375207 
L 217.360846 574.016931 
L 217.168034 574.243977 
L 216.721335 574.598843 
L 215.664835 575.092063 
L 215.157286 575.131347 
L 213.781087 574.986438 
L 213.200737 574.773498 
L 212.010477 574.06879 
L 211.223749 573.462546 
L 210.605095 573.11423 
L 209.831024 572.86173 
L 209.636878 572.866199 
L 209.479831 572.921322 
L 209.175567 573.320923 
L 208.961589 574.111249 
L 208.120925 574.958576 
L 207.77464 575.16284 
L 205.449622 575.710633 
L 205.041087 575.757197 
L 203.041504 575.772284 
L 201.740261 575.905239 
L 201.369017 575.850542 
L 201.158584 575.705267 
L 201.123686 575.295138 
L 201.187214 575.014399 
L 201.189003 575.006493 
L 201.482362 574.437025 
L 202.104022 572.908542 
L 202.241498 572.26843 
L 202.158396 572.053813 
L 202.076003 571.926742 
L 202.003821 571.905852 
L 201.872171 571.867752 
L 201.436621 571.965284 
L 201.090966 572.155201 
L 199.721846 573.213036 
L 199.300366 573.422853 
L 198.704327 573.435723 
L 198.681435 573.436217 
L 198.340994 573.443568 
L 198.085411 573.449086 
L 197.787488 573.16958 
L 197.543671 573.129541 
L 196.767981 573.053021 
L 196.39782 573.221668 
L 196.02094 573.190303 
L 195.861989 573.177075 
L 195.577729 573.153417 
L 195.171496 573.172696 
L 194.886559 573.220671 
L 194.587567 573.46165 
L 194.205617 573.918566 
L 193.988178 574.092591 
L 193.812218 574.158646 
L 193.287657 574.004662 
L 191.475996 572.95591 
L 190.725473 572.530926 
L 190.388449 572.51417 
L 189.578133 572.628355 
L 188.522505 573.011101 
L 187.284898 572.995582 
L 186.360984 572.730233 
L 186.115402 572.665541 
L 185.750539 572.334444 
L 185.540097 571.982124 
L 185.498287 571.912126 
L 185.326696 571.517671 
L 185.197105 570.961074 
L 184.902782 570.140359 
L 184.588709 569.695539 
L 184.436612 569.582554 
L 184.053011 569.297597 
L 183.6234 569.090304 
L 183.137661 569.112741 
L 181.108893 569.716366 
L 180.687873 570.023865 
L 180.16787 570.513437 
L 179.248194 571.080106 
L 178.704481 571.547734 
L 177.763122 572.650609 
L 177.546572 572.729795 
L 177.222521 572.767309 
L 175.997117 572.565868 
L 175.525111 572.561315 
L 175.052199 572.651569 
L 174.712848 572.878562 
L 174.507319 573.215208 
L 174.462324 573.688855 
L 174.749268 574.8078 
L 174.664756 574.973546 
L 174.610176 575.080588 
L 174.650826 575.566895 
L 174.579714 575.680739 
L 174.434377 575.74055 
L 174.336109 575.696742 
L 174.153665 575.61541 
L 173.904254 575.424835 
L 173.7074 575.27442 
L 173.026266 574.597886 
L 172.696065 574.269911 
L 171.814257 573.266648 
L 171.43547 573.041082 
L 171.278176 572.828002 
L 170.991719 572.439946 
L 170.697325 572.15398 
L 170.193709 571.911399 
L 169.399975 571.582831 
L 168.106612 570.598513 
L 167.502463 570.041722 
L 167.024586 569.822834 
L 166.949568 569.803047 
L 166.63028 569.718834 
L 166.096361 569.691389 
L 165.432705 569.776758 
L 165.166516 569.72826 
L 165.012863 569.405946 
L 164.846455 568.931026 
L 164.824349 568.867936 
L 164.589889 568.689664 
L 164.37875 568.597785 
L 164.055642 568.457181 
L 163.733462 568.331014 
L 163.092119 567.947684 
L 163.042251 567.806205 
L 162.729056 566.91764 
L 162.586554 566.176045 
L 162.613901 565.593493 
L 162.84922 564.991804 
L 163.049394 564.818296 
L 163.363758 564.210466 
L 163.499707 563.947604 
L 163.567956 563.415619 
L 163.547216 562.946182 
L 163.386985 562.538803 
L 162.460644 562.105313 
L 162.193332 562.095911 
L 161.578279 562.372812 
L 161.216983 562.635878 
L 160.621132 563.246426 
L 160.334137 563.443407 
L 160.08033 563.61761 
L 159.726666 563.707908 
L 159.36089 563.694876 
L 158.996249 563.519499 
L 158.816543 563.128248 
L 158.735568 563.056903 
L 158.653446 562.713919 
L 158.68413 562.291287 
L 158.966522 561.939552 
L 159.703221 561.383852 
L 159.87139 561.076447 
L 160.011039 560.425254 
L 160.245586 560.096806 
L 160.522316 559.984439 
L 161.1463 559.955764 
L 161.324815 559.947561 
L 161.520181 559.794706 
L 161.5583 559.764881 
L 161.606551 559.58494 
L 161.230327 558.564848 
L 161.245892 558.263162 
L 161.248351 558.215488 
L 161.088314 557.947392 
L 161.006844 557.876771 
L 160.905699 557.877865 
L 160.45757 558.106636 
L 160.420712 558.125452 
L 160.182024 558.33866 
L 159.991356 558.428915 
L 159.506385 558.45042 
L 158.857146 558.272631 
L 158.388087 557.90925 
L 158.363238 557.899039 
L 158.313296 557.878519 
L 158.07262 557.779628 
L 157.381061 557.884502 
L 157.216119 557.838462 
L 157.076304 557.725318 
L 156.938271 557.309003 
L 156.97624 557.1318 
L 157.199469 556.596631 
L 157.508151 556.161985 
L 157.81095 555.593956 
L 157.931865 555.159118 
L 157.926794 554.876837 
L 157.886701 554.773956 
L 157.85303 554.687554 
L 157.716953 554.547492 
L 157.536585 554.482399 
L 157.29812 554.533306 
L 157.005707 554.704574 
L 156.33098 555.258993 
L 155.986405 555.445265 
L 154.994851 555.535662 
L 154.648155 555.682096 
L 154.472972 555.932898 
L 154.332653 556.501793 
L 154.141727 556.751337 
L 153.961566 556.838683 
L 153.796108 556.887394 
L 153.641203 556.933 
L 153.198011 556.976911 
L 152.208586 556.915648 
L 151.210528 556.656985 
L 150.879645 556.385732 
L 150.743799 555.878427 
L 150.976585 555.2381 
L 150.90283 554.635801 
L 150.73358 554.455875 
L 150.650044 554.367069 
L 150.56264 554.274152 
L 150.294335 554.12275 
L 150.097778 554.10142 
L 149.889133 554.169835 
L 149.529881 554.451769 
L 149.292071 554.638399 
L 149.048019 554.709942 
L 148.714211 554.656077 
L 148.223681 554.148767 
L 147.584633 553.242568 
L 146.865835 552.807386 
L 145.927785 552.126019 
L 145.40824 551.839132 
L 145.079054 551.809019 
L 144.843701 552.040223 
L 144.614534 552.034641 
L 144.407706 551.713561 
L 144.380813 551.199171 
L 144.170681 550.850274 
L 144.016822 550.728358 
L 143.764022 550.452024 
L 143.355902 550.179946 
L 142.270981 549.682824 
L 141.74773 549.364669 
L 141.277273 548.945272 
L 140.820733 548.365174 
L 140.551471 547.773642 
L 140.362109 546.864564 
L 140.090972 546.415121 
L 139.640876 545.854764 
L 139.50628 545.500607 
L 139.416355 544.86531 
L 139.68634 544.209376 
L 139.669695 543.908653 
L 139.645595 543.870164 
L 139.555378 543.726079 
L 139.271437 543.568236 
L 139.191282 543.524081 
L 138.851958 543.519713 
L 138.545411 543.61456 
L 138.180112 543.892919 
L 137.847368 544.388412 
L 137.768794 544.559632 
L 137.31528 544.840531 
L 137.210651 545.029261 
L 137.083793 545.258091 
L 136.851221 545.408336 
L 136.671022 545.413014 
L 136.14512 545.094671 
L 135.671534 544.436469 
L 135.26089 543.693393 
L 134.928961 543.307668 
L 134.769205 542.516545 
L 134.624173 542.34202 
L 134.413595 542.226163 
L 133.802462 542.205326 
L 133.645047 542.249151 
L 133.432994 542.155292 
L 133.255485 542.076725 
L 132.956827 541.841789 
L 132.539077 541.784863 
L 132.061038 541.932336 
L 131.845075 542.096489 
L 131.586939 542.292696 
L 131.270813 542.427133 
L 130.790753 542.393174 
L 130.380121 542.170125 
L 130.141253 541.774544 
L 130.019944 541.364892 
L 129.540301 540.759938 
L 129.453301 540.550855 
L 129.43909 540.300867 
L 129.574344 540.037676 
L 130.446428 539.326785 
L 130.616992 538.950787 
L 130.597979 538.672616 
L 130.427062 538.418824 
L 130.270083 538.354772 
L 130.131025 538.410632 
L 129.931624 538.384956 
L 128.233136 538.743597 
L 127.312439 539.178368 
L 126.737852 539.104169 
L 126.5402 538.991346 
L 126.318409 538.752175 
L 126.07584 538.372808 
L 125.884631 538.201803 
L 125.630402 538.107427 
L 125.179818 538.024539 
L 124.561574 538.237935 
L 123.987587 538.167222 
L 123.57169 537.765756 
L 123.097768 536.718173 
L 123.079048 535.764714 
L 123.207211 534.809401 
L 123.025507 534.102625 
L 122.810213 533.772054 
L 122.747246 533.742527 
L 122.523912 533.6378 
L 122.465183 533.64134 
L 122.185914 533.658174 
L 121.809261 533.905666 
L 121.665385 533.899309 
L 121.485074 533.791909 
L 121.33068 533.254894 
L 121.375153 532.700651 
L 121.111651 532.384183 
L 120.932657 532.169208 
L 120.984297 531.619826 
L 121.257562 530.668472 
L 121.517528 530.367593 
L 121.997427 529.968909 
L 122.188844 529.672963 
L 122.156449 528.860245 
L 121.745079 528.484266 
L 121.469752 528.105786 
L 121.323156 527.761039 
L 121.22052 527.318759 
L 121.170947 526.738316 
L 121.194676 526.050264 
L 121.374571 524.47435 
L 121.355647 523.816058 
L 121.255776 523.367913 
L 120.860215 522.667789 
L 120.704232 521.960293 
L 120.285112 521.230785 
L 119.951395 520.769989 
L 119.358866 520.187951 
L 119.032205 519.733067 
L 119.030228 519.210079 
L 119.179657 518.928569 
L 119.41888 518.775925 
L 120.24563 518.476675 
L 120.92199 517.923566 
L 121.16341 517.419396 
L 121.231058 516.660673 
L 121.321302 516.41927 
L 121.744677 516.042547 
L 122.479812 515.685723 
L 122.718894 515.389441 
L 122.729062 515.105478 
L 122.676324 514.902931 
L 122.716876 514.659715 
L 122.774661 514.471164 
L 123.096451 513.929573 
L 123.157211 513.665174 
L 122.755594 513.170652 
L 122.723223 512.904902 
L 122.937958 512.781244 
L 123.366531 512.877347 
L 123.63436 512.827564 
L 123.821159 512.710091 
L 123.996586 512.650159 
L 124.76163 512.017745 
L 125.401206 511.575865 
L 126.108408 510.907696 
L 126.360803 510.5507 
L 126.45441 510.110726 
L 126.255602 509.431073 
L 126.25736 509.270056 
L 126.415906 508.863279 
L 126.826095 508.33472 
L 127.975545 507.349749 
L 128.614753 506.77666 
L 128.687882 506.53254 
L 128.857717 505.850747 
L 128.826376 505.601485 
L 128.969113 505.006428 
L 129.117246 504.786386 
L 129.235096 504.671629 
L 129.487656 504.425692 
L 129.917292 504.205782 
L 130.1642 504.168948 
L 130.539833 503.937579 
L 131.267485 503.752363 
L 131.430782 503.612195 
L 131.604801 503.133174 
L 131.70612 503.013687 
L 131.891515 502.92379 
L 132.155177 502.918085 
L 132.320033 502.823223 
L 132.566469 502.431848 
L 132.721016 502.304294 
L 132.907532 502.253769 
L 133.050685 502.104571 
L 133.190889 501.960802 
L 133.312918 501.703702 
L 133.344087 501.386341 
L 133.326487 501.125749 
L 133.140661 500.549756 
L 133.221794 499.934159 
L 133.143483 499.566532 
L 133.128633 499.192265 
L 133.239823 498.722166 
L 133.589819 498.125911 
L 133.737695 497.622445 
L 133.75316 497.148503 
L 133.662033 496.892247 
L 133.639752 496.556444 
L 133.870412 496.217472 
L 135.113218 495.191924 
L 135.500262 494.770668 
L 136.069896 493.943988 
L 136.398745 493.040928 
L 136.459136 492.693688 
L 136.429143 492.58859 
L 136.541195 492.057857 
L 136.491702 491.569187 
L 136.378394 491.299311 
L 136.001489 490.760371 
L 135.74891 490.613145 
L 135.614361 490.393147 
L 134.966342 490.125601 
L 134.510674 489.68243 
L 134.243735 489.503683 
L 128.414671 464.518257 
L 128.412731 464.509941 
L 129.340206 464.272088 
L 129.754117 464.165941 
L 130.163709 463.997651 
L 130.515179 463.7468 
L 131.04716 463.143156 
L 131.78069 461.578253 
L 131.870269 461.150244 
L 131.897823 460.755644 
L 131.971338 459.702819 
L 132.175598 459.102428 
L 132.413996 458.676234 
L 132.562536 458.410682 
L 132.682642 458.060901 
L 132.681368 457.655847 
L 132.557291 457.352601 
L 132.248752 457.103138 
L 132.094097 457.029101 
L 131.582212 456.784052 
L 131.397063 456.449136 
L 131.371354 456.113359 
L 131.358897 455.950641 
L 131.19391 455.506904 
L 130.375471 454.90402 
L 130.228452 454.691628 
L 129.975984 454.093429 
L 129.825108 453.677321 
L 129.732691 452.78365 
L 129.528339 452.450581 
L 129.490583 452.410953 
L 129.129693 452.032162 
L 128.663791 451.317624 
L 128.634939 451.273375 
L 128.467527 451.11539 
L 128.313141 451.068474 
L 128.073097 450.995528 
L 127.416924 450.946396 
L 126.55897 450.715176 
L 125.970268 450.414699 
L 125.580672 450.774226 
L 125.375423 450.841682 
L 125.204561 450.830308 
L 124.678943 450.54893 
L 124.265788 450.023499 
L 123.946616 449.837615 
L 122.803136 448.85747 
L 122.358857 448.307848 
L 121.897252 447.425051 
L 121.587221 446.558772 
L 121.110532 446.130308 
L 120.595652 445.819876 
L 120.016037 445.008341 
L 119.471301 444.6152 
L 119.221369 444.366953 
L 118.845673 443.105054 
L 118.251688 442.290143 
L 117.90351 441.428392 
L 117.887723 441.017135 
L 117.982251 440.715911 
L 118.627858 439.819806 
L 118.697361 439.723336 
L 118.911714 439.186255 
L 118.892638 438.743924 
L 118.622445 437.950047 
L 118.434335 437.021077 
L 118.228031 436.697841 
L 117.382353 436.219536 
L 117.016266 436.012482 
L 116.516379 435.579484 
L 116.426606 435.212166 
L 116.62265 434.686532 
L 116.660048 434.342262 
L 116.479597 433.98075 
L 116.148924 433.625987 
L 115.810171 433.129872 
L 115.363636 432.133525 
L 115.390921 431.51817 
L 115.538259 430.838698 
L 115.630539 429.776374 
L 115.611818 429.405708 
L 115.412583 428.337297 
L 115.490172 427.529047 
L 115.647212 427.278858 
L 116.667388 426.183169 
L 117.149629 425.399693 
L 117.636225 424.353831 
L 118.039575 424.064169 
L 118.19043 423.79787 
L 118.399539 423.428739 
L 119.041573 423.022154 
L 119.233666 422.782294 
L 119.411683 422.343172 
L 119.414335 421.454484 
L 119.451899 421.254599 
L 119.480376 421.103069 
L 119.69206 420.61086 
L 120.006042 419.880791 
L 120.051666 419.530904 
L 120.034351 419.121124 
L 120.025708 418.91659 
L 120.149381 418.794841 
L 120.287343 418.659024 
L 120.408859 418.37098 
L 120.393226 417.556371 
L 120.381992 416.970989 
L 120.463942 416.508746 
L 120.712175 415.731296 
L 120.894952 415.320963 
L 121.079452 415.068729 
L 121.771982 414.532451 
L 122.750236 414.52129 
L 123.995189 414.228816 
L 124.194129 414.18208 
L 125.250042 413.81023 
L 125.86897 413.457994 
L 126.191043 413.163327 
L 126.221135 413.12967 
L 126.447124 412.876914 
L 126.654868 412.498077 
L 127.313767 410.1525 
L 127.327222 410.104604 
L 127.662416 409.418916 
L 127.888902 408.807602 
L 128.098033 408.575516 
L 128.613539 408.259303 
L 128.901521 408.142372 
L 129.561808 408.015481 
L 129.933484 407.791294 
L 130.155437 407.184949 
L 130.493995 406.739381 
L 130.614613 406.002072 
L 130.7655 405.762151 
L 130.918922 405.631842 
L 131.378333 405.473645 
L 132.274893 405.511748 
L 132.850733 405.41278 
L 133.121792 405.161037 
L 133.577309 404.888925 
L 134.815377 404.62812 
L 134.916602 404.606796 
L 135.44966 404.388422 
L 135.869496 404.034801 
L 136.195773 403.670719 
L 136.266166 403.592169 
L 136.740568 403.389499 
L 137.63571 403.442589 
L 138.094292 403.59109 
L 138.762102 404.126328 
L 139.232148 404.167609 
L 139.764513 404.058134 
L 140.098897 403.912267 
L 140.182736 403.875695 
L 141.081754 402.915017 
L 141.765619 402.404639 
L 142.04752 401.976393 
L 142.35026 401.393395 
L 142.818176 400.492307 
L 142.865749 400.309085 
L 143.025516 399.693754 
L 143.012607 399.352554 
L 142.89523 398.970753 
L 142.733973 398.749499 
L 142.588085 398.630468 
L 142.233303 398.341001 
L 142.15585 398.182072 
L 142.157997 398.019296 
L 142.398721 397.606723 
L 142.51079 397.467922 
L 142.765976 397.151867 
L 143.421632 396.486733 
L 144.047252 395.255195 
L 144.223262 394.772191 
L 144.275841 394.390644 
L 144.145956 393.620833 
L 144.1322 393.539308 
L 143.587486 393.071229 
L 143.394216 392.801594 
L 143.321834 392.593445 
L 143.375889 392.399282 
L 143.346073 392.337207 
L 143.460394 392.202087 
L 143.444987 392.108478 
L 143.280887 391.90317 
L 143.298182 391.722658 
L 143.525953 391.634103 
L 143.876066 391.242448 
L 143.799226 390.953223 
L 143.609398 390.722122 
L 143.571897 390.29481 
L 143.498676 390.072999 
L 143.740082 389.716901 
L 143.832229 389.580976 
L 143.841684 389.420424 
L 143.685542 388.908586 
L 143.730561 388.669667 
L 143.791544 388.346022 
L 143.666796 388.166422 
L 143.655818 387.932708 
L 143.821032 387.750133 
L 143.992105 387.748061 
L 144.187137 387.745699 
L 144.308961 387.631297 
L 144.36594 387.475884 
L 144.919431 387.363287 
L 144.979233 387.28543 
L 145.022501 386.555532 
L 144.970677 386.516286 
L 145.249217 385.609611 
L 145.352676 385.272837 
L 145.487419 385.108619 
L 145.565019 385.072405 
L 146.130088 384.808696 
L 146.281728 384.61979 
L 146.225928 384.451098 
L 145.982646 384.319909 
L 145.948029 384.301241 
L 145.929586 384.156281 
L 146.056676 383.895354 
L 146.091769 383.8591 
L 146.402744 383.537839 
L 146.445676 383.28418 
L 146.262086 383.139874 
L 145.803098 382.779099 
L 145.682097 382.462323 
L 145.726537 382.353712 
L 145.562565 382.088967 
L 145.553744 381.935434 
L 145.878727 381.644098 
L 146.073949 381.106151 
L 146.058765 380.733993 
L 146.057422 380.70108 
L 146.399322 380.144719 
L 146.431538 379.980875 
L 146.218378 379.678721 
L 145.994774 379.515685 
L 145.740547 379.157569 
L 145.663344 379.048818 
L 145.564678 378.724263 
L 145.24047 378.308109 
L 145.053865 377.868637 
L 145.018856 377.650162 
L 145.119928 377.144268 
L 145.114931 376.941652 
L 145.108612 376.685444 
L 144.969926 375.971124 
L 144.637276 374.837757 
L 144.347247 374.473217 
L 144.03232 374.176938 
L 143.920144 374.071405 
L 143.665705 373.714756 
L 143.534272 373.519445 
L 143.265419 373.119923 
L 142.933151 372.781246 
L 142.744758 372.67466 
L 142.669818 372.318862 
L 142.731345 372.123707 
L 143.113194 371.777246 
L 143.6 371.644827 
L 143.788793 371.522821 
L 144.389302 370.576911 
L 144.538738 370.548953 
L 144.747456 370.658107 
L 144.885076 370.730079 
L 144.977756 370.679631 
L 145.058594 370.454199 
L 145.029927 370.409409 
L 144.846278 370.122476 
L 144.807943 369.834 
L 144.857891 369.643621 
L 145.436849 369.342809 
L 145.531252 369.293761 
L 145.640185 369.168766 
L 145.66163 368.996978 
L 145.432418 368.704326 
L 145.620828 368.384286 
L 145.578441 368.046148 
L 145.470645 367.777922 
L 145.017794 367.109095 
L 144.650447 366.794987 
L 144.574021 366.729637 
L 144.199425 366.500594 
L 144.09927 366.354825 
L 144.143699 366.103285 
L 144.378016 365.796269 
L 144.571049 365.543345 
L 144.546087 365.282877 
L 144.359761 365.206381 
L 144.173527 365.206838 
L 143.748797 365.470279 
L 143.642538 365.536186 
L 143.284789 365.617239 
L 143.048307 365.595912 
L 142.806182 365.421488 
L 142.685158 364.946528 
L 142.511162 364.263674 
L 142.500607 363.468098 
L 142.237807 362.521989 
L 142.101793 362.294014 
L 141.673421 361.834451 
L 141.546437 361.723212 
L 141.316371 361.521674 
L 140.834367 361.24999 
L 140.756903 361.070933 
L 140.759432 360.613505 
L 140.481834 360.290542 
L 140.678739 360.072125 
L 140.83937 360.052265 
L 140.953095 360.038203 
L 141.118538 359.878319 
L 141.085799 359.735692 
L 140.975942 359.62225 
L 140.886323 359.586766 
L 140.512939 359.43893 
L 140.49012 359.272353 
L 140.654251 359.172715 
L 140.950754 359.110164 
L 141.109015 359.001237 
L 141.170966 358.924903 
L 141.113878 358.515832 
L 141.213586 358.347231 
L 141.387668 358.201007 
L 141.632439 358.126594 
L 141.8752 358.18443 
L 142.206723 358.442223 
L 142.370582 358.644848 
L 142.693108 359.043678 
L 142.978779 359.135016 
L 143.080161 359.077387 
L 143.35736 358.717438 
L 143.550131 358.697257 
L 143.856036 358.770287 
L 144.001538 358.722364 
L 144.078148 358.588399 
L 144.073978 358.567755 
L 143.994801 358.175775 
L 144.075384 357.90538 
L 144.229841 357.829095 
L 144.570746 357.876949 
L 144.951471 357.785191 
L 145.012711 357.656886 
L 144.946246 357.426568 
L 144.994734 357.250181 
L 145.167932 357.249093 
L 145.342531 357.587764 
L 145.393047 357.685752 
L 145.547682 357.68662 
L 145.590831 357.615401 
L 145.563833 357.390033 
L 145.554563 357.312643 
L 145.590743 357.132011 
L 145.87391 356.806665 
L 146.131481 356.671384 
L 146.459995 356.589321 
L 146.875643 356.485492 
L 146.819343 356.299469 
L 146.794756 356.290215 
L 146.505576 356.181367 
L 146.450482 356.08456 
L 146.659092 355.825221 
L 146.992877 355.773353 
L 147.266231 355.592686 
L 147.273029 355.588193 
L 147.384241 355.713538 
L 147.312482 355.998551 
L 147.349635 356.087461 
L 147.413114 356.114901 
L 147.574462 356.04483 
L 147.703869 355.843108 
L 147.712816 355.723544 
L 147.566102 355.422459 
L 147.546186 355.041929 
L 147.543749 355.03805 
L 147.354101 354.736218 
L 147.302744 354.531423 
L 147.369872 354.285582 
L 147.518913 354.169618 
L 147.573465 353.947185 
L 147.606671 353.811793 
L 147.420021 353.633122 
L 147.057774 353.286359 
L 146.338489 353.226055 
L 145.750956 353.35623 
L 145.458101 353.310458 
L 145.16367 352.978583 
L 145.093915 352.509407 
L 144.918607 352.34374 
L 144.613952 352.348183 
L 144.028216 352.492829 
L 143.352652 352.258692 
L 142.665644 352.338103 
L 142.34714 352.124547 
L 142.156107 351.667911 
L 141.706494 351.660101 
L 141.525571 351.59801 
L 141.592911 351.393913 
L 142.053891 351.044923 
L 142.084712 350.966668 
L 142.109261 350.904334 
L 142.097562 350.740201 
L 141.885877 350.429719 
L 141.871265 350.408289 
L 140.836027 349.822078 
L 140.350845 349.332679 
L 140.29801 349.045464 
L 140.375086 348.668804 
L 140.427003 348.415091 
L 140.259043 347.590062 
L 140.24389 346.536999 
L 140.061205 346.11666 
L 139.897446 345.959267 
L 139.803434 345.912169 
L 139.468112 345.744181 
L 138.478054 345.557704 
L 138.236372 345.466022 
L 138.013834 345.274995 
L 137.500693 344.834514 
L 137.393224 344.704703 
L 137.171213 344.436536 
L 137.211263 344.288049 
L 137.423967 344.214833 
L 137.490889 344.191798 
L 137.909305 344.245956 
L 138.072882 344.125625 
L 138.105241 344.0123 
L 137.966497 343.692871 
L 137.634544 343.43328 
L 137.284922 343.386977 
L 137.271547 343.381295 
L 136.953018 343.245967 
L 135.812829 343.635047 
L 135.395559 343.108655 
L 135.344969 343.064436 
L 135.159976 342.902739 
L 134.236937 343.008807 
L 133.747937 342.925617 
L 133.69911 342.917311 
L 133.115865 342.914616 
L 132.801812 342.789131 
L 132.672037 342.578149 
L 132.635642 342.318629 
L 132.597808 342.04885 
L 132.083614 341.737477 
L 131.682103 341.573518 
L 131.561529 341.524281 
L 131.484454 341.392046 
L 131.301731 341.078551 
L 131.069476 340.861644 
L 130.974911 340.694436 
L 130.964766 340.38465 
L 130.947966 340.357943 
L 130.745095 340.035438 
L 130.872923 339.872508 
L 131.091245 339.775836 
L 131.126301 339.760313 
L 131.381947 339.753216 
L 131.994783 339.887389 
L 133.372236 339.512749 
L 134.385424 339.413116 
L 134.989434 339.264843 
L 135.607306 339.243816 
L 136.061884 339.082018 
L 136.305131 338.86119 
L 137.283021 337.246049 
L 137.698281 336.718101 
L 137.723121 336.507815 
L 137.622309 336.083864 
L 137.736187 335.565698 
L 137.67012 334.992585 
L 137.788516 334.375411 
L 137.707006 333.927877 
L 137.587595 333.793072 
L 137.547937 333.677977 
L 137.50972 333.567064 
L 137.52414 333.428793 
L 137.570604 332.983235 
L 137.504142 332.814042 
L 137.111823 332.48264 
L 136.891036 331.945979 
L 136.379845 331.620555 
L 136.174636 331.362709 
L 135.48841 329.073954 
L 135.290117 328.709181 
L 134.926892 328.296183 
L 134.837178 328.131382 
L 134.585602 327.669254 
L 134.535416 327.446089 
L 134.585218 327.208304 
L 134.838352 326.772946 
L 134.943878 326.381349 
L 135.310592 326.092027 
L 135.619013 325.988378 
L 135.901649 326.000538 
L 136.039293 326.114185 
L 136.293473 326.509955 
L 136.460691 326.600068 
L 136.500627 326.596994 
L 136.873773 326.568272 
L 137.157358 326.298573 
L 137.201364 326.044598 
L 137.074597 325.139067 
L 137.338822 324.399584 
L 137.259567 323.505846 
L 137.317338 323.260973 
L 137.338176 323.172644 
L 137.477401 322.880317 
L 137.552693 322.791586 
L 137.738849 322.572203 
L 137.741654 322.568897 
L 137.916774 322.362521 
L 138.005382 322.393092 
L 138.021752 322.39874 
L 140.057423 323.101082 
L 140.121397 323.124044 
L 140.131726 323.127751 
L 141.665362 323.678214 
L 142.133126 323.784528 
L 142.60089 323.784528 
L 143.185596 323.738965 
L 143.850485 323.568738 
L 144.261155 323.425172 
L 144.267968 323.42279 
L 144.658861 323.286137 
L 145.18821 323.101082 
L 145.752723 322.946732 
L 146.021415 322.873266 
L 146.097284 322.840926 
L 146.26434 322.769718 
L 146.591502 322.630263 
L 147.497795 321.810127 
L 148.798764 320.458422 
L 149.802775 319.352033 
L 149.819687 319.333397 
L 150.245908 318.863714 
L 150.739172 318.381361 
L 150.740654 318.379912 
L 151.239907 317.891701 
L 151.616233 317.6571 
L 151.620532 317.65442 
L 152.073787 317.371861 
L 152.190053 317.29938 
L 153.052493 317.10194 
L 153.163077 317.095557 
L 153.275547 317.089065 
L 153.500065 317.076105 
L 153.841844 317.056377 
L 154.044903 317.060683 
L 154.558108 317.071565 
L 155.464401 317.162691 
L 155.976018 317.208254 
L 156.706899 317.177879 
L 156.889735 317.14063 
L 156.943612 317.129655 
L 157.452398 317.026002 
L 158.621808 316.798186 
L 159.670833 316.398083 
L 159.776601 316.357743 
L 160.946011 315.841361 
L 161.863371 315.450003 
L 161.9052 315.420825 
L 162.013853 315.345033 
L 162.237959 315.188704 
L 162.394554 315.10482 
L 162.412456 315.095231 
L 162.849934 314.860885 
L 163.111959 314.838408 
L 163.485379 314.960364 
L 163.64336 315.189155 
L 163.836518 315.46889 
L 163.975805 316.270278 
L 163.641522 318.815092 
L 163.646503 320.331081 
L 163.80162 321.701122 
L 164.123444 323.146278 
L 164.574611 324.171675 
L 165.108413 324.648919 
L 165.678057 324.7923 
L 166.201883 324.712821 
L 166.379154 324.576637 
L 166.581132 324.421472 
L 167.06725 323.878419 
L 167.576546 323.082899 
L 168.04192 322.518597 
L 169.091995 322.085911 
L 169.66137 322.050149 
L 170.26441 322.012272 
L 171.810433 322.278885 
L 174.127552 322.816841 
L 174.357952 322.870332 
L 174.497552 322.880372 
L 174.69253 322.894396 
L 175.068888 322.897949 
L 175.183524 322.79283 
L 175.36416 322.627188 
L 175.787823 322.042006 
L 176.262899 320.42624 
L 176.559784 319.693802 
L 177.305222 318.521225 
L 178.169299 317.792883 
L 182.561684 315.393242 
L 182.983297 315.197913 
L 183.67466 314.877613 
L 183.829741 314.792798 
L 186.133481 313.532867 
L 186.847442 313.20286 
L 187.771248 312.790638 
L 188.63504 312.652016 
L 189.275035 312.973003 
L 189.66705 313.544802 
L 189.866319 314.445187 
L 189.81224 315.944991 
L 189.107919 319.768141 
L 189.136273 319.918016 
L 189.187677 320.189733 
L 189.645148 320.467551 
L 189.991492 320.41959 
L 190.357012 320.368974 
L 191.639019 319.665472 
L 192.818981 318.687455 
L 193.288624 317.639696 
L 193.635897 316.254121 
L 193.960902 315.015633 
L 194.261328 314.176722 
L 194.683533 313.738748 
L 195.435388 313.305212 
L 196.48718 313.145241 
L 201.875238 313.155758 
L 202.258093 313.156496 
L 203.911376 312.950182 
L 209.42667 310.355884 
L 210.362198 309.506395 
L 210.807525 308.816058 
L 210.880702 307.659374 
L 210.412578 306.245222 
L 210.085295 305.4426 
L 209.904741 304.599236 
L 210.119321 303.990958 
L 210.728268 303.70193 
L 211.39655 303.643596 
L 211.666663 303.620018 
L 212.255767 303.568595 
L 214.1172 303.501414 
L 215.723405 303.91587 
L 216.661437 304.257196 
L 217.250789 304.471642 
L 219.640456 305.445539 
L 221.034249 306.236778 
L 221.988442 307.087148 
L 223.29657 308.109062 
L 224.48303 308.709002 
L 225.360395 308.801108 
L 226.135851 308.597683 
L 226.80958 308.077689 
L 227.381202 307.28321 
L 229.030501 305.21481 
L 229.663135 304.610255 
L 230.64763 304.408682 
L 232.175474 304.346446 
L 232.634953 304.327729 
L 233.617925 304.119724 
L 234.314173 303.557789 
L 234.619528 302.616861 
L 234.62497 302.544153 
L 234.709483 301.414923 
L 235.010175 300.512758 
L 235.600947 299.907794 
L 236.565982 299.53765 
L 238.40722 299.385758 
L 239.4825 299.395353 
L 239.975193 299.399749 
L 240.706915 299.406272 
L 241.503761 299.139807 
L 242.55536 298.433693 
L 242.590318 298.414253 
L 243.374765 297.978026 
L 243.792889 297.981743 
L 245.491897 299.743433 
L 246.241399 300.10782 
L 247.077662 300.115235 
L 247.856173 299.553959 
L 248.406545 298.780224 
L 248.938577 297.711715 
L 249.404391 297.042443 
L 249.80381 296.793453 
L 250.306108 296.734761 
L 250.709086 296.939365 
L 251.114477 297.541554 
L 251.247611 298.388652 
L 251.302633 299.942176 
L 251.457231 301.395543 
L 251.763683 302.218945 
L 252.299566 303.107503 
L 252.882401 303.407254 
L 253.735106 303.40711 
L 255.224195 303.406845 
L 256.185016 303.520516 
L 256.706603 303.651364 
L 257.477437 303.973792 
L 258.198757 304.487329 
L 259.320922 305.435561 
L 259.714647 305.969204 
L 260.499519 307.514596 
L 261.141117 308.277789 
L 262.985408 310.208906 
L 263.856846 310.995143 
L 264.294682 311.521367 
L 265.797963 313.831954 
L 266.421431 314.279312 
L 268.044748 315.177301 
L 268.710231 315.603972 
L 270.6573 317.767377 
L 271.070982 318.297068 
L 271.147037 319.181568 
L 271.078889 319.812289 
L 271.428404 320.509771 
L 272.219026 320.979603 
L 273.056387 321.228617 
L 273.745573 321.300808 
L 276.586432 321.354158 
L 277.358146 321.592314 
L 277.959102 321.886917 
L 278.25028 322.029659 
L 278.837955 322.173284 
L 279.320157 322.030139 
L 279.637224 321.63304 
L 279.642423 321.022811 
L 279.468965 320.44501 
L 279.421101 320.291695 
L 278.970847 318.849493 
L 278.731045 317.542701 
L 278.601533 315.563455 
L 278.244351 313.308673 
L 278.271178 312.614455 
L 278.624321 312.079083 
L 278.779889 311.843238 
L 279.442448 311.099613 
L 279.767209 310.770153 
L 280.214512 310.316378 
L 280.835283 310.18385 
L 281.402384 310.789572 
L 282.287712 312.417575 
L 283.071907 313.644868 
L 283.778366 314.177037 
L 284.82099 314.522692 
L 285.594289 314.571414 
L 287.416719 314.537585 
L 288.592717 314.655296 
L 288.646566 314.660685 
L 289.880416 314.650187 
L 290.659007 314.323688 
L 291.856796 313.162972 
L 292.427847 312.609596 
L 293.086789 312.348025 
L 293.234526 312.28938 
L 293.413952 312.218155 
L 293.581364 312.197351 
L 293.947103 312.151901 
L 294.523387 312.080286 
L 295.23254 312.296757 
L 295.981927 312.702964 
L 296.728145 313.487936 
L 297.219399 314.141966 
L 297.348561 314.313925 
L 299.178204 318.07531 
L 299.362257 318.369675 
L 299.694101 318.900405 
L 300.252407 319.408339 
L 300.397752 319.542689 
L 300.474495 319.588252 
L 300.565855 319.630018 
L 300.788774 319.702159 
L 300.942259 319.75152 
L 301.004384 319.770504 
L 301.143251 319.766707 
L 301.643223 319.664693 
L 301.842065 319.657071 
L 301.883568 319.65548 
L 302.699965 319.557157 
L 303.451699 319.689769 
L 304.389705 320.055438 
L 305.558788 320.29678 
L 305.661301 320.314172 
L 306.602935 320.473928 
L 307.29387 320.37452 
L 309.433942 319.529682 
L 310.267712 319.093659 
L 310.820157 318.804756 
L 311.495917 318.01073 
L 312.26409 316.152356 
L 312.328129 315.997432 
L 312.360792 315.943915 
L 312.5905 315.567557 
L 314.129985 313.045227 
L 314.897551 312.302003 
L 315.099643 312.10632 
L 315.749926 311.859211 
L 316.219141 311.846059 
L 316.388014 311.862642 
L 319.218877 312.140628 
L 321.160392 312.535555 
L 324.085042 313.242907 
L 324.854416 313.428987 
L 325.705379 314.214674 
L 326.640682 314.916875 
L 327.663237 315.17785 
L 327.972192 315.288859 
L 328.837857 315.599894 
L 329.101954 315.694785 
L 330.163777 316.271736 
L 330.909727 317.119664 
L 331.257864 318.027451 
L 330.316226 320.671339 
L 330.328412 321.744721 
L 330.717351 322.779114 
L 331.463166 323.648085 
L 332.879715 324.333162 
L 333.383471 324.513823 
L 333.944835 324.715144 
L 334.381121 324.871608 
L 335.593176 324.98677 
L 335.615419 324.984598 
L 335.76397 324.982597 
L 335.909082 324.980644 
L 336.088879 324.97381 
L 336.365152 324.941916 
L 336.481362 324.916856 
L 336.601958 324.855345 
L 336.781754 324.752829 
L 337.032388 324.602347 
L 337.06375 324.587405 
L 338.266905 324.116464 
L 338.639654 323.9494 
L 339.437768 323.456346 
L 339.558654 323.398753 
L 339.800771 323.220317 
L 341.4974 322.180033 
L 342.564487 321.192832 
L 343.338304 319.718212 
L 343.99381 318.60345 
L 344.306923 318.070968 
L 344.601874 317.799779 
L 344.749265 317.674706 
L 345.025984 317.352398 
L 345.108128 317.25672 
L 346.117086 316.612511 
L 347.039529 316.325356 
L 348.381907 316.143446 
L 348.504983 316.126767 
L 349.509385 316.050708 
L 350.055588 315.739444 
L 350.374454 315.089623 
L 350.399726 314.542656 
L 350.096802 313.193327 
L 350.081427 312.498716 
L 350.568572 311.723981 
L 351.345468 311.082985 
L 351.45267 310.994535 
L 352.41655 310.749761 
L 353.440651 310.821141 
L 354.212159 311.100933 
L 355.324843 311.863143 
L 356.360227 312.295787 
L 358.878614 313.348115 
L 359.693137 313.480904 
L 361.241201 313.409098 
L 361.477518 313.451229 
L 362.020972 313.548118 
L 363.782719 314.649999 
L 365.116232 315.270932 
L 366.534889 315.703121 
L 367.285385 316.003719 
L 367.860717 316.851902 
L 368.289537 317.869722 
L 368.645092 318.62413 
L 368.841163 318.858612 
L 370.346855 320.300202 
L 371.135624 320.741092 
L 372.094738 320.925131 
L 373.172697 320.96736 
L 373.415845 320.976885 
L 376.243583 320.409919 
L 378.549315 319.733559 
L 378.863743 319.722275 
L 379.511599 319.699026 
L 380.409517 319.874436 
L 380.824502 320.2986 
L 380.673716 320.865645 
L 377.422661 322.081789 
L 376.812761 322.582558 
L 376.536808 323.042905 
L 376.86732 323.571643 
L 377.613637 324.419335 
L 378.212592 325.392137 
L 378.404819 326.130702 
L 378.415675 326.172415 
L 378.87021 326.891533 
L 379.659691 327.571191 
L 380.658641 328.210397 
L 381.733623 328.888578 
L 382.719152 329.510326 
L 384.234154 331.037461 
L 384.689387 331.672386 
L 386.11948 333.367201 
L 387.07522 334.195438 
L 387.680306 334.587677 
L 388.323941 335.004905 
L 388.887992 335.093482 
L 390.85287 335.419289 
L 391.018714 335.446789 
L 391.789174 335.894733 
L 393.67728 338.69608 
L 394.498438 339.914417 
L 395.43047 341.121237 
L 396.291832 341.854817 
L 396.303307 341.86459 
L 396.576115 342.059216 
L 397.361793 342.619736 
L 397.579992 342.775403 
L 399.028707 343.800801 
L 399.204935 343.901994 
L 400.40326 344.59009 
L 401.342581 344.849874 
L 404.12592 344.681859 
L 404.401977 344.78396 
L 404.939434 344.982742 
L 405.415894 345.596723 
L 405.513783 346.481396 
L 405.211857 347.67869 
L 404.891083 348.602243 
L 404.717043 349.484829 
L 404.560567 350.80951 
L 404.652065 352.535964 
L 404.702121 354.479406 
L 404.813664 358.808835 
L 404.700923 359.881301 
L 404.464262 360.742357 
L 404.228238 361.519235 
L 404.432475 362.173222 
L 404.580676 362.324603 
L 405.179823 362.93661 
L 405.992013 363.426898 
L 407.221967 364.004567 
L 408.237936 364.362581 
L 408.870328 364.585428 
L 409.370336 364.862848 
L 409.618671 365.222527 
L 409.616992 365.234951 
L 409.501911 366.086536 
" clip-path="url(#pa0796117d9)" style="fill: #b3e2cd; fill-opacity: 0.65"/>
   </g>
   <g id="PatchCollection_2">
    <path d="M 272.006786 323.157836 
L 271.68461 323.568821 
L 271.592117 323.928914 
L 271.321642 323.956041 
L 271.064651 323.899662 
L 270.793838 323.940442 
L 270.620629 324.162775 
L 270.754417 324.317559 
L 270.447936 324.591491 
L 270.303398 324.86684 
L 270.170126 325.228357 
L 270.09231 325.577108 
L 270.02764 325.872487 
L 269.595222 326.61857 
L 269.527985 327.035937 
L 269.366724 327.478656 
L 269.191304 327.96446 
L 268.818267 328.057368 
L 268.510085 328.797068 
L 268.111965 329.152554 
L 267.791152 329.79722 
L 267.746958 329.898637 
L 267.635863 330.41015 
L 267.511291 330.783367 
L 267.315395 331.163503 
L 266.763184 331.490445 
L 266.520525 332.308685 
L 266.542881 332.707791 
L 266.445781 332.873036 
L 266.10961 333.086682 
L 265.871731 333.287212 
L 265.67941 333.432951 
L 265.598184 333.51469 
L 265.609444 333.646246 
L 265.524293 333.826031 
L 265.464224 333.912729 
L 265.391703 333.966805 
L 265.235216 334.050847 
L 265.111159 334.121059 
L 265.024644 334.187721 
L 264.990684 334.290025 
L 264.951779 334.379742 
L 264.850071 334.51892 
L 263.900939 334.044816 
L 263.709816 333.929574 
L 263.492923 333.782239 
L 263.15658 333.442704 
L 262.412736 332.639533 
L 261.630836 331.748592 
L 260.989382 331.036555 
L 260.201848 330.126472 
L 259.069272 328.829691 
L 265.976166 325.804229 
L 272.006786 323.157836 
" clip-path="url(#pa0796117d9)" style="fill: none; stroke: #000000; stroke-width: 2"/>
   </g>
   <g id="matplotlib.axis_1">
    <g id="xtick_1">
     <g id="line2d_1">
      <path d="M 163.209986 589.863763 
L 163.209986 282.776237 
" clip-path="url(#pa0796117d9)" style="fill: none; stroke: #b0b0b0; stroke-width: 0.8; stroke-linecap: square"/>
     </g>
     <g id="line2d_2">
      <defs>
       <path id="mcff5ec7239" d="M 0 0 
L 0 3.5 
" style="stroke: #000000; stroke-width: 0.8"/>
      </defs>
      <g>
       <use xlink:href="#mcff5ec7239" x="163.209986" y="589.863763" style="stroke: #000000; stroke-width: 0.8"/>
      </g>
     </g>
     <g id="text_1">
      <!-- 53.0 -->
      <g transform="translate(154.326405 623.906178) rotate(-45) scale(0.1 -0.1)">
       <defs>
        <path id="DejaVuSans-2212" d="M 678 2272 
L 4684 2272 
L 4684 1741 
L 678 1741 
L 678 2272 
z
" transform="scale(0.015625)"/>
        <path id="DejaVuSans-35" d="M 691 4666 
L 3169 4666 
L 3169 4134 
L 1269 4134 
L 1269 2991 
Q 1406 3038 1543 3061 
Q 1681 3084 1819 3084 
Q 2600 3084 3056 2656 
Q 3513 2228 3513 1497 
Q 3513 744 3044 326 
Q 2575 -91 1722 -91 
Q 1428 -91 1123 -41 
Q 819 9 494 109 
L 494 744 
Q 775 591 1075 516 
Q 1375 441 1709 441 
Q 2250 441 2565 725 
Q 2881 1009 2881 1497 
Q 2881 1984 2565 2268 
Q 2250 2553 1709 2553 
Q 1456 2553 1204 2497 
Q 953 2441 691 2322 
L 691 4666 
z
" transform="scale(0.015625)"/>
        <path id="DejaVuSans-33" d="M 2597 2516 
Q 3050 2419 3304 2112 
Q 3559 1806 3559 1356 
Q 3559 666 3084 287 
Q 2609 -91 1734 -91 
Q 1441 -91 1130 -33 
Q 819 25 488 141 
L 488 750 
Q 750 597 1062 519 
Q 1375 441 1716 441 
Q 2309 441 2620 675 
Q 2931 909 2931 1356 
Q 2931 1769 2642 2001 
Q 2353 2234 1838 2234 
L 1294 2234 
L 1294 2753 
L 1863 2753 
Q 2328 2753 2575 2939 
Q 2822 3125 2822 3475 
Q 2822 3834 2567 4026 
Q 2313 4219 1838 4219 
Q 1578 4219 1281 4162 
Q 984 4106 628 3988 
L 628 4550 
Q 988 4650 1302 4700 
Q 1616 4750 1894 4750 
Q 2613 4750 3031 4423 
Q 3450 4097 3450 3541 
Q 3450 3153 3228 2886 
Q 3006 2619 2597 2516 
z
" transform="scale(0.015625)"/>
        <path id="DejaVuSans-2e" d="M 684 794 
L 1344 794 
L 1344 0 
L 684 0 
L 684 794 
z
" transform="scale(0.015625)"/>
        <path id="DejaVuSans-30" d="M 2034 4250 
Q 1547 4250 1301 3770 
Q 1056 3291 1056 2328 
Q 1056 1369 1301 889 
Q 1547 409 2034 409 
Q 2525 409 2770 889 
Q 3016 1369 3016 2328 
Q 3016 3291 2770 3770 
Q 2525 4250 2034 4250 
z
M 2034 4750 
Q 2819 4750 3233 4129 
Q 3647 3509 3647 2328 
Q 3647 1150 3233 529 
Q 2819 -91 2034 -91 
Q 1250 -91 836 529 
Q 422 1150 422 2328 
Q 422 3509 836 4129 
Q 1250 4750 2034 4750 
z
" transform="scale(0.015625)"/>
       </defs>
       <use xlink:href="#DejaVuSans-2212"/>
       <use xlink:href="#DejaVuSans-35" transform="translate(83.789062 0)"/>
       <use xlink:href="#DejaVuSans-33" transform="translate(147.412109 0)"/>
       <use xlink:href="#DejaVuSans-2e" transform="translate(211.035156 0)"/>
       <use xlink:href="#DejaVuSans-30" transform="translate(242.822266 0)"/>
      </g>
     </g>
    </g>
    <g id="xtick_2">
     <g id="line2d_3">
      <path d="M 286.075003 589.863763 
L 286.075003 282.776237 
" clip-path="url(#pa0796117d9)" style="fill: none; stroke: #b0b0b0; stroke-width: 0.8; stroke-linecap: square"/>
     </g>
     <g id="line2d_4">
      <g>
       <use xlink:href="#mcff5ec7239" x="286.075003" y="589.863763" style="stroke: #000000; stroke-width: 0.8"/>
      </g>
     </g>
     <g id="text_2">
      <!-- 52.8 -->
      <g transform="translate(277.191421 623.906178) rotate(-45) scale(0.1 -0.1)">
       <defs>
        <path id="DejaVuSans-32" d="M 1228 531 
L 3431 531 
L 3431 0 
L 469 0 
L 469 531 
Q 828 903 1448 1529 
Q 2069 2156 2228 2338 
Q 2531 2678 2651 2914 
Q 2772 3150 2772 3378 
Q 2772 3750 2511 3984 
Q 2250 4219 1831 4219 
Q 1534 4219 1204 4116 
Q 875 4013 500 3803 
L 500 4441 
Q 881 4594 1212 4672 
Q 1544 4750 1819 4750 
Q 2544 4750 2975 4387 
Q 3406 4025 3406 3419 
Q 3406 3131 3298 2873 
Q 3191 2616 2906 2266 
Q 2828 2175 2409 1742 
Q 1991 1309 1228 531 
z
" transform="scale(0.015625)"/>
        <path id="DejaVuSans-38" d="M 2034 2216 
Q 1584 2216 1326 1975 
Q 1069 1734 1069 1313 
Q 1069 891 1326 650 
Q 1584 409 2034 409 
Q 2484 409 2743 651 
Q 3003 894 3003 1313 
Q 3003 1734 2745 1975 
Q 2488 2216 2034 2216 
z
M 1403 2484 
Q 997 2584 770 2862 
Q 544 3141 544 3541 
Q 544 4100 942 4425 
Q 1341 4750 2034 4750 
Q 2731 4750 3128 4425 
Q 3525 4100 3525 3541 
Q 3525 3141 3298 2862 
Q 3072 2584 2669 2484 
Q 3125 2378 3379 2068 
Q 3634 1759 3634 1313 
Q 3634 634 3220 271 
Q 2806 -91 2034 -91 
Q 1263 -91 848 271 
Q 434 634 434 1313 
Q 434 1759 690 2068 
Q 947 2378 1403 2484 
z
M 1172 3481 
Q 1172 3119 1398 2916 
Q 1625 2713 2034 2713 
Q 2441 2713 2670 2916 
Q 2900 3119 2900 3481 
Q 2900 3844 2670 4047 
Q 2441 4250 2034 4250 
Q 1625 4250 1398 4047 
Q 1172 3844 1172 3481 
z
" transform="scale(0.015625)"/>
       </defs>
       <use xlink:href="#DejaVuSans-2212"/>
       <use xlink:href="#DejaVuSans-35" transform="translate(83.789062 0)"/>
       <use xlink:href="#DejaVuSans-32" transform="translate(147.412109 0)"/>
       <use xlink:href="#DejaVuSans-2e" transform="translate(211.035156 0)"/>
       <use xlink:href="#DejaVuSans-38" transform="translate(242.822266 0)"/>
      </g>
     </g>
    </g>
    <g id="xtick_3">
     <g id="line2d_5">
      <path d="M 408.940019 589.863763 
L 408.940019 282.776237 
" clip-path="url(#pa0796117d9)" style="fill: none; stroke: #b0b0b0; stroke-width: 0.8; stroke-linecap: square"/>
     </g>
     <g id="line2d_6">
      <g>
       <use xlink:href="#mcff5ec7239" x="408.940019" y="589.863763" style="stroke: #000000; stroke-width: 0.8"/>
      </g>
     </g>
     <g id="text_3">
      <!-- 52.6 -->
      <g transform="translate(400.056438 623.906178) rotate(-45) scale(0.1 -0.1)">
       <defs>
        <path id="DejaVuSans-36" d="M 2113 2584 
Q 1688 2584 1439 2293 
Q 1191 2003 1191 1497 
Q 1191 994 1439 701 
Q 1688 409 2113 409 
Q 2538 409 2786 701 
Q 3034 994 3034 1497 
Q 3034 2003 2786 2293 
Q 2538 2584 2113 2584 
z
M 3366 4563 
L 3366 3988 
Q 3128 4100 2886 4159 
Q 2644 4219 2406 4219 
Q 1781 4219 1451 3797 
Q 1122 3375 1075 2522 
Q 1259 2794 1537 2939 
Q 1816 3084 2150 3084 
Q 2853 3084 3261 2657 
Q 3669 2231 3669 1497 
Q 3669 778 3244 343 
Q 2819 -91 2113 -91 
Q 1303 -91 875 529 
Q 447 1150 447 2328 
Q 447 3434 972 4092 
Q 1497 4750 2381 4750 
Q 2619 4750 2861 4703 
Q 3103 4656 3366 4563 
z
" transform="scale(0.015625)"/>
       </defs>
       <use xlink:href="#DejaVuSans-2212"/>
       <use xlink:href="#DejaVuSans-35" transform="translate(83.789062 0)"/>
       <use xlink:href="#DejaVuSans-32" transform="translate(147.412109 0)"/>
       <use xlink:href="#DejaVuSans-2e" transform="translate(211.035156 0)"/>
       <use xlink:href="#DejaVuSans-36" transform="translate(242.822266 0)"/>
      </g>
     </g>
    </g>
    <g id="xtick_4">
     <g id="line2d_7">
      <path d="M 531.805036 589.863763 
L 531.805036 282.776237 
" clip-path="url(#pa0796117d9)" style="fill: none; stroke: #b0b0b0; stroke-width: 0.8; stroke-linecap: square"/>
     </g>
     <g id="line2d_8">
      <g>
       <use xlink:href="#mcff5ec7239" x="531.805036" y="589.863763" style="stroke: #000000; stroke-width: 0.8"/>
      </g>
     </g>
     <g id="text_4">
      <!-- 52.4 -->
      <g transform="translate(522.921455 623.906178) rotate(-45) scale(0.1 -0.1)">
       <defs>
        <path id="DejaVuSans-34" d="M 2419 4116 
L 825 1625 
L 2419 1625 
L 2419 4116 
z
M 2253 4666 
L 3047 4666 
L 3047 1625 
L 3713 1625 
L 3713 1100 
L 3047 1100 
L 3047 0 
L 2419 0 
L 2419 1100 
L 313 1100 
L 313 1709 
L 2253 4666 
z
" transform="scale(0.015625)"/>
       </defs>
       <use xlink:href="#DejaVuSans-2212"/>
       <use xlink:href="#DejaVuSans-35" transform="translate(83.789062 0)"/>
       <use xlink:href="#DejaVuSans-32" transform="translate(147.412109 0)"/>
       <use xlink:href="#DejaVuSans-2e" transform="translate(211.035156 0)"/>
       <use xlink:href="#DejaVuSans-34" transform="translate(242.822266 0)"/>
      </g>
     </g>
    </g>
    <g id="text_5">
     <!-- Longitude () -->
     <g transform="translate(336.139844 636.975176) scale(0.1 -0.1)">
      <defs>
       <path id="DejaVuSans-4c" d="M 628 4666 
L 1259 4666 
L 1259 531 
L 3531 531 
L 3531 0 
L 628 0 
L 628 4666 
z
" transform="scale(0.015625)"/>
       <path id="DejaVuSans-6f" d="M 1959 3097 
Q 1497 3097 1228 2736 
Q 959 2375 959 1747 
Q 959 1119 1226 758 
Q 1494 397 1959 397 
Q 2419 397 2687 759 
Q 2956 1122 2956 1747 
Q 2956 2369 2687 2733 
Q 2419 3097 1959 3097 
z
M 1959 3584 
Q 2709 3584 3137 3096 
Q 3566 2609 3566 1747 
Q 3566 888 3137 398 
Q 2709 -91 1959 -91 
Q 1206 -91 779 398 
Q 353 888 353 1747 
Q 353 2609 779 3096 
Q 1206 3584 1959 3584 
z
" transform="scale(0.015625)"/>
       <path id="DejaVuSans-6e" d="M 3513 2113 
L 3513 0 
L 2938 0 
L 2938 2094 
Q 2938 2591 2744 2837 
Q 2550 3084 2163 3084 
Q 1697 3084 1428 2787 
Q 1159 2491 1159 1978 
L 1159 0 
L 581 0 
L 581 3500 
L 1159 3500 
L 1159 2956 
Q 1366 3272 1645 3428 
Q 1925 3584 2291 3584 
Q 2894 3584 3203 3211 
Q 3513 2838 3513 2113 
z
" transform="scale(0.015625)"/>
       <path id="DejaVuSans-67" d="M 2906 1791 
Q 2906 2416 2648 2759 
Q 2391 3103 1925 3103 
Q 1463 3103 1205 2759 
Q 947 2416 947 1791 
Q 947 1169 1205 825 
Q 1463 481 1925 481 
Q 2391 481 2648 825 
Q 2906 1169 2906 1791 
z
M 3481 434 
Q 3481 -459 3084 -895 
Q 2688 -1331 1869 -1331 
Q 1566 -1331 1297 -1286 
Q 1028 -1241 775 -1147 
L 775 -588 
Q 1028 -725 1275 -790 
Q 1522 -856 1778 -856 
Q 2344 -856 2625 -561 
Q 2906 -266 2906 331 
L 2906 616 
Q 2728 306 2450 153 
Q 2172 0 1784 0 
Q 1141 0 747 490 
Q 353 981 353 1791 
Q 353 2603 747 3093 
Q 1141 3584 1784 3584 
Q 2172 3584 2450 3431 
Q 2728 3278 2906 2969 
L 2906 3500 
L 3481 3500 
L 3481 434 
z
" transform="scale(0.015625)"/>
       <path id="DejaVuSans-69" d="M 603 3500 
L 1178 3500 
L 1178 0 
L 603 0 
L 603 3500 
z
M 603 4863 
L 1178 4863 
L 1178 4134 
L 603 4134 
L 603 4863 
z
" transform="scale(0.015625)"/>
       <path id="DejaVuSans-74" d="M 1172 4494 
L 1172 3500 
L 2356 3500 
L 2356 3053 
L 1172 3053 
L 1172 1153 
Q 1172 725 1289 603 
Q 1406 481 1766 481 
L 2356 481 
L 2356 0 
L 1766 0 
Q 1100 0 847 248 
Q 594 497 594 1153 
L 594 3053 
L 172 3053 
L 172 3500 
L 594 3500 
L 594 4494 
L 1172 4494 
z
" transform="scale(0.015625)"/>
       <path id="DejaVuSans-75" d="M 544 1381 
L 544 3500 
L 1119 3500 
L 1119 1403 
Q 1119 906 1312 657 
Q 1506 409 1894 409 
Q 2359 409 2629 706 
Q 2900 1003 2900 1516 
L 2900 3500 
L 3475 3500 
L 3475 0 
L 2900 0 
L 2900 538 
Q 2691 219 2414 64 
Q 2138 -91 1772 -91 
Q 1169 -91 856 284 
Q 544 659 544 1381 
z
M 1991 3584 
L 1991 3584 
z
" transform="scale(0.015625)"/>
       <path id="DejaVuSans-64" d="M 2906 2969 
L 2906 4863 
L 3481 4863 
L 3481 0 
L 2906 0 
L 2906 525 
Q 2725 213 2448 61 
Q 2172 -91 1784 -91 
Q 1150 -91 751 415 
Q 353 922 353 1747 
Q 353 2572 751 3078 
Q 1150 3584 1784 3584 
Q 2172 3584 2448 3432 
Q 2725 3281 2906 2969 
z
M 947 1747 
Q 947 1113 1208 752 
Q 1469 391 1925 391 
Q 2381 391 2643 752 
Q 2906 1113 2906 1747 
Q 2906 2381 2643 2742 
Q 2381 3103 1925 3103 
Q 1469 3103 1208 2742 
Q 947 2381 947 1747 
z
" transform="scale(0.015625)"/>
       <path id="DejaVuSans-65" d="M 3597 1894 
L 3597 1613 
L 953 1613 
Q 991 1019 1311 708 
Q 1631 397 2203 397 
Q 2534 397 2845 478 
Q 3156 559 3463 722 
L 3463 178 
Q 3153 47 2828 -22 
Q 2503 -91 2169 -91 
Q 1331 -91 842 396 
Q 353 884 353 1716 
Q 353 2575 817 3079 
Q 1281 3584 2069 3584 
Q 2775 3584 3186 3129 
Q 3597 2675 3597 1894 
z
M 3022 2063 
Q 3016 2534 2758 2815 
Q 2500 3097 2075 3097 
Q 1594 3097 1305 2825 
Q 1016 2553 972 2059 
L 3022 2063 
z
" transform="scale(0.015625)"/>
       <path id="DejaVuSans-20" transform="scale(0.015625)"/>
       <path id="DejaVuSans-28" d="M 1984 4856 
Q 1566 4138 1362 3434 
Q 1159 2731 1159 2009 
Q 1159 1288 1364 580 
Q 1569 -128 1984 -844 
L 1484 -844 
Q 1016 -109 783 600 
Q 550 1309 550 2009 
Q 550 2706 781 3412 
Q 1013 4119 1484 4856 
L 1984 4856 
z
" transform="scale(0.015625)"/>
       <path id="DejaVuSans-b0" d="M 1600 4347 
Q 1350 4347 1178 4173 
Q 1006 4000 1006 3750 
Q 1006 3503 1178 3333 
Q 1350 3163 1600 3163 
Q 1850 3163 2022 3333 
Q 2194 3503 2194 3750 
Q 2194 3997 2020 4172 
Q 1847 4347 1600 4347 
z
M 1600 4750 
Q 1800 4750 1984 4673 
Q 2169 4597 2303 4453 
Q 2447 4313 2519 4134 
Q 2591 3956 2591 3750 
Q 2591 3338 2302 3052 
Q 2013 2766 1594 2766 
Q 1172 2766 890 3047 
Q 609 3328 609 3750 
Q 609 4169 896 4459 
Q 1184 4750 1600 4750 
z
" transform="scale(0.015625)"/>
       <path id="DejaVuSans-29" d="M 513 4856 
L 1013 4856 
Q 1481 4119 1714 3412 
Q 1947 2706 1947 2009 
Q 1947 1309 1714 600 
Q 1481 -109 1013 -844 
L 513 -844 
Q 928 -128 1133 580 
Q 1338 1288 1338 2009 
Q 1338 2731 1133 3434 
Q 928 4138 513 4856 
z
" transform="scale(0.015625)"/>
      </defs>
      <use xlink:href="#DejaVuSans-4c"/>
      <use xlink:href="#DejaVuSans-6f" transform="translate(53.962891 0)"/>
      <use xlink:href="#DejaVuSans-6e" transform="translate(115.144531 0)"/>
      <use xlink:href="#DejaVuSans-67" transform="translate(178.523438 0)"/>
      <use xlink:href="#DejaVuSans-69" transform="translate(242 0)"/>
      <use xlink:href="#DejaVuSans-74" transform="translate(269.783203 0)"/>
      <use xlink:href="#DejaVuSans-75" transform="translate(308.992188 0)"/>
      <use xlink:href="#DejaVuSans-64" transform="translate(372.371094 0)"/>
      <use xlink:href="#DejaVuSans-65" transform="translate(435.847656 0)"/>
      <use xlink:href="#DejaVuSans-20" transform="translate(497.371094 0)"/>
      <use xlink:href="#DejaVuSans-28" transform="translate(529.158203 0)"/>
      <use xlink:href="#DejaVuSans-b0" transform="translate(568.171875 0)"/>
      <use xlink:href="#DejaVuSans-29" transform="translate(618.171875 0)"/>
     </g>
    </g>
   </g>
   <g id="matplotlib.axis_2">
    <g id="ytick_1">
     <g id="line2d_9">
      <path d="M 90 553.523632 
L 648 553.523632 
" clip-path="url(#pa0796117d9)" style="fill: none; stroke: #b0b0b0; stroke-width: 0.8; stroke-linecap: square"/>
     </g>
     <g id="line2d_10">
      <defs>
       <path id="mbb65f7a0a6" d="M 0 0 
L -3.5 0 
" style="stroke: #000000; stroke-width: 0.8"/>
      </defs>
      <g>
       <use xlink:href="#mbb65f7a0a6" x="90" y="553.523632" style="stroke: #000000; stroke-width: 0.8"/>
      </g>
     </g>
     <g id="text_6">
      <!-- 16.1 -->
      <g transform="translate(52.354687 557.322851) scale(0.1 -0.1)">
       <defs>
        <path id="DejaVuSans-31" d="M 794 531 
L 1825 531 
L 1825 4091 
L 703 3866 
L 703 4441 
L 1819 4666 
L 2450 4666 
L 2450 531 
L 3481 531 
L 3481 0 
L 794 0 
L 794 531 
z
" transform="scale(0.015625)"/>
       </defs>
       <use xlink:href="#DejaVuSans-2212"/>
       <use xlink:href="#DejaVuSans-31" transform="translate(83.789062 0)"/>
       <use xlink:href="#DejaVuSans-36" transform="translate(147.412109 0)"/>
       <use xlink:href="#DejaVuSans-2e" transform="translate(211.035156 0)"/>
       <use xlink:href="#DejaVuSans-31" transform="translate(242.822266 0)"/>
      </g>
     </g>
    </g>
    <g id="ytick_2">
     <g id="line2d_11">
      <path d="M 90 489.695314 
L 648 489.695314 
" clip-path="url(#pa0796117d9)" style="fill: none; stroke: #b0b0b0; stroke-width: 0.8; stroke-linecap: square"/>
     </g>
     <g id="line2d_12">
      <g>
       <use xlink:href="#mbb65f7a0a6" x="90" y="489.695314" style="stroke: #000000; stroke-width: 0.8"/>
      </g>
     </g>
     <g id="text_7">
      <!-- 16.0 -->
      <g transform="translate(52.354687 493.494533) scale(0.1 -0.1)">
       <use xlink:href="#DejaVuSans-2212"/>
       <use xlink:href="#DejaVuSans-31" transform="translate(83.789062 0)"/>
       <use xlink:href="#DejaVuSans-36" transform="translate(147.412109 0)"/>
       <use xlink:href="#DejaVuSans-2e" transform="translate(211.035156 0)"/>
       <use xlink:href="#DejaVuSans-30" transform="translate(242.822266 0)"/>
      </g>
     </g>
    </g>
    <g id="ytick_3">
     <g id="line2d_13">
      <path d="M 90 425.866996 
L 648 425.866996 
" clip-path="url(#pa0796117d9)" style="fill: none; stroke: #b0b0b0; stroke-width: 0.8; stroke-linecap: square"/>
     </g>
     <g id="line2d_14">
      <g>
       <use xlink:href="#mbb65f7a0a6" x="90" y="425.866996" style="stroke: #000000; stroke-width: 0.8"/>
      </g>
     </g>
     <g id="text_8">
      <!-- 15.9 -->
      <g transform="translate(52.354687 429.666215) scale(0.1 -0.1)">
       <defs>
        <path id="DejaVuSans-39" d="M 703 97 
L 703 672 
Q 941 559 1184 500 
Q 1428 441 1663 441 
Q 2288 441 2617 861 
Q 2947 1281 2994 2138 
Q 2813 1869 2534 1725 
Q 2256 1581 1919 1581 
Q 1219 1581 811 2004 
Q 403 2428 403 3163 
Q 403 3881 828 4315 
Q 1253 4750 1959 4750 
Q 2769 4750 3195 4129 
Q 3622 3509 3622 2328 
Q 3622 1225 3098 567 
Q 2575 -91 1691 -91 
Q 1453 -91 1209 -44 
Q 966 3 703 97 
z
M 1959 2075 
Q 2384 2075 2632 2365 
Q 2881 2656 2881 3163 
Q 2881 3666 2632 3958 
Q 2384 4250 1959 4250 
Q 1534 4250 1286 3958 
Q 1038 3666 1038 3163 
Q 1038 2656 1286 2365 
Q 1534 2075 1959 2075 
z
" transform="scale(0.015625)"/>
       </defs>
       <use xlink:href="#DejaVuSans-2212"/>
       <use xlink:href="#DejaVuSans-31" transform="translate(83.789062 0)"/>
       <use xlink:href="#DejaVuSans-35" transform="translate(147.412109 0)"/>
       <use xlink:href="#DejaVuSans-2e" transform="translate(211.035156 0)"/>
       <use xlink:href="#DejaVuSans-39" transform="translate(242.822266 0)"/>
      </g>
     </g>
    </g>
    <g id="ytick_4">
     <g id="line2d_15">
      <path d="M 90 362.038678 
L 648 362.038678 
" clip-path="url(#pa0796117d9)" style="fill: none; stroke: #b0b0b0; stroke-width: 0.8; stroke-linecap: square"/>
     </g>
     <g id="line2d_16">
      <g>
       <use xlink:href="#mbb65f7a0a6" x="90" y="362.038678" style="stroke: #000000; stroke-width: 0.8"/>
      </g>
     </g>
     <g id="text_9">
      <!-- 15.8 -->
      <g transform="translate(52.354687 365.837896) scale(0.1 -0.1)">
       <use xlink:href="#DejaVuSans-2212"/>
       <use xlink:href="#DejaVuSans-31" transform="translate(83.789062 0)"/>
       <use xlink:href="#DejaVuSans-35" transform="translate(147.412109 0)"/>
       <use xlink:href="#DejaVuSans-2e" transform="translate(211.035156 0)"/>
       <use xlink:href="#DejaVuSans-38" transform="translate(242.822266 0)"/>
      </g>
     </g>
    </g>
    <g id="ytick_5">
     <g id="line2d_17">
      <path d="M 90 298.21036 
L 648 298.21036 
" clip-path="url(#pa0796117d9)" style="fill: none; stroke: #b0b0b0; stroke-width: 0.8; stroke-linecap: square"/>
     </g>
     <g id="line2d_18">
      <g>
       <use xlink:href="#mbb65f7a0a6" x="90" y="298.21036" style="stroke: #000000; stroke-width: 0.8"/>
      </g>
     </g>
     <g id="text_10">
      <!-- 15.7 -->
      <g transform="translate(52.354687 302.009578) scale(0.1 -0.1)">
       <defs>
        <path id="DejaVuSans-37" d="M 525 4666 
L 3525 4666 
L 3525 4397 
L 1831 0 
L 1172 0 
L 2766 4134 
L 525 4134 
L 525 4666 
z
" transform="scale(0.015625)"/>
       </defs>
       <use xlink:href="#DejaVuSans-2212"/>
       <use xlink:href="#DejaVuSans-31" transform="translate(83.789062 0)"/>
       <use xlink:href="#DejaVuSans-35" transform="translate(147.412109 0)"/>
       <use xlink:href="#DejaVuSans-2e" transform="translate(211.035156 0)"/>
       <use xlink:href="#DejaVuSans-37" transform="translate(242.822266 0)"/>
      </g>
     </g>
    </g>
    <g id="text_11">
     <!-- Latitude () -->
     <g transform="translate(46.275 464.889531) rotate(-90) scale(0.1 -0.1)">
      <defs>
       <path id="DejaVuSans-61" d="M 2194 1759 
Q 1497 1759 1228 1600 
Q 959 1441 959 1056 
Q 959 750 1161 570 
Q 1363 391 1709 391 
Q 2188 391 2477 730 
Q 2766 1069 2766 1631 
L 2766 1759 
L 2194 1759 
z
M 3341 1997 
L 3341 0 
L 2766 0 
L 2766 531 
Q 2569 213 2275 61 
Q 1981 -91 1556 -91 
Q 1019 -91 701 211 
Q 384 513 384 1019 
Q 384 1609 779 1909 
Q 1175 2209 1959 2209 
L 2766 2209 
L 2766 2266 
Q 2766 2663 2505 2880 
Q 2244 3097 1772 3097 
Q 1472 3097 1187 3025 
Q 903 2953 641 2809 
L 641 3341 
Q 956 3463 1253 3523 
Q 1550 3584 1831 3584 
Q 2591 3584 2966 3190 
Q 3341 2797 3341 1997 
z
" transform="scale(0.015625)"/>
      </defs>
      <use xlink:href="#DejaVuSans-4c"/>
      <use xlink:href="#DejaVuSans-61" transform="translate(55.712891 0)"/>
      <use xlink:href="#DejaVuSans-74" transform="translate(116.992188 0)"/>
      <use xlink:href="#DejaVuSans-69" transform="translate(156.201172 0)"/>
      <use xlink:href="#DejaVuSans-74" transform="translate(183.984375 0)"/>
      <use xlink:href="#DejaVuSans-75" transform="translate(223.193359 0)"/>
      <use xlink:href="#DejaVuSans-64" transform="translate(286.572266 0)"/>
      <use xlink:href="#DejaVuSans-65" transform="translate(350.048828 0)"/>
      <use xlink:href="#DejaVuSans-20" transform="translate(411.572266 0)"/>
      <use xlink:href="#DejaVuSans-28" transform="translate(443.359375 0)"/>
      <use xlink:href="#DejaVuSans-b0" transform="translate(482.373047 0)"/>
      <use xlink:href="#DejaVuSans-29" transform="translate(532.373047 0)"/>
     </g>
    </g>
   </g>
   <g id="patch_3">
    <path d="M 90 589.863763 
L 90 282.776237 
" style="fill: none; stroke: #000000; stroke-width: 0.8; stroke-linejoin: miter; stroke-linecap: square"/>
   </g>
   <g id="patch_4">
    <path d="M 648 589.863763 
L 648 282.776237 
" style="fill: none; stroke: #000000; stroke-width: 0.8; stroke-linejoin: miter; stroke-linecap: square"/>
   </g>
   <g id="patch_5">
    <path d="M 90 589.863763 
L 648 589.863763 
" style="fill: none; stroke: #000000; stroke-width: 0.8; stroke-linejoin: miter; stroke-linecap: square"/>
   </g>
   <g id="patch_6">
    <path d="M 90 282.776237 
L 648 282.776237 
" style="fill: none; stroke: #000000; stroke-width: 0.8; stroke-linejoin: miter; stroke-linecap: square"/>
   </g>
   <g id="legend_1">
    <g id="patch_7">
     <path d="M 305.713281 658.605016 
L 432.286719 658.605016 
Q 434.286719 658.605016 434.286719 656.605016 
L 434.286719 642.926891 
Q 434.286719 640.926891 432.286719 640.926891 
L 305.713281 640.926891 
Q 303.713281 640.926891 303.713281 642.926891 
L 303.713281 656.605016 
Q 303.713281 658.605016 305.713281 658.605016 
z
" style="fill: #ffffff; opacity: 0.8; stroke: #cccccc; stroke-linejoin: miter"/>
    </g>
    <g id="line2d_19">
     <defs>
      <path id="mb85e730b6c" d="M 0 5 
C 1.326016 5 2.597899 4.473168 3.535534 3.535534 
C 4.473168 2.597899 5 1.326016 5 0 
C 5 -1.326016 4.473168 -2.597899 3.535534 -3.535534 
C 2.597899 -4.473168 1.326016 -5 0 -5 
C -1.326016 -5 -2.597899 -4.473168 -3.535534 -3.535534 
C -4.473168 -2.597899 -5 -1.326016 -5 0 
C -5 1.326016 -4.473168 2.597899 -3.535534 3.535534 
C -2.597899 4.473168 -1.326016 5 0 5 
z
"/>
     </defs>
     <g>
      <use xlink:href="#mb85e730b6c" x="317.713281" y="649.025329" style="fill: #b3e2cd; fill-opacity: 0.65"/>
     </g>
    </g>
    <g id="text_12">
     <!-- Pontal do Araguaia -->
     <g transform="translate(335.713281 652.525329) scale(0.1 -0.1)">
      <defs>
       <path id="DejaVuSans-50" d="M 1259 4147 
L 1259 2394 
L 2053 2394 
Q 2494 2394 2734 2622 
Q 2975 2850 2975 3272 
Q 2975 3691 2734 3919 
Q 2494 4147 2053 4147 
L 1259 4147 
z
M 628 4666 
L 2053 4666 
Q 2838 4666 3239 4311 
Q 3641 3956 3641 3272 
Q 3641 2581 3239 2228 
Q 2838 1875 2053 1875 
L 1259 1875 
L 1259 0 
L 628 0 
L 628 4666 
z
" transform="scale(0.015625)"/>
       <path id="DejaVuSans-6c" d="M 603 4863 
L 1178 4863 
L 1178 0 
L 603 0 
L 603 4863 
z
" transform="scale(0.015625)"/>
       <path id="DejaVuSans-41" d="M 2188 4044 
L 1331 1722 
L 3047 1722 
L 2188 4044 
z
M 1831 4666 
L 2547 4666 
L 4325 0 
L 3669 0 
L 3244 1197 
L 1141 1197 
L 716 0 
L 50 0 
L 1831 4666 
z
" transform="scale(0.015625)"/>
       <path id="DejaVuSans-72" d="M 2631 2963 
Q 2534 3019 2420 3045 
Q 2306 3072 2169 3072 
Q 1681 3072 1420 2755 
Q 1159 2438 1159 1844 
L 1159 0 
L 581 0 
L 581 3500 
L 1159 3500 
L 1159 2956 
Q 1341 3275 1631 3429 
Q 1922 3584 2338 3584 
Q 2397 3584 2469 3576 
Q 2541 3569 2628 3553 
L 2631 2963 
z
" transform="scale(0.015625)"/>
      </defs>
      <use xlink:href="#DejaVuSans-50"/>
      <use xlink:href="#DejaVuSans-6f" transform="translate(56.677734 0)"/>
      <use xlink:href="#DejaVuSans-6e" transform="translate(117.859375 0)"/>
      <use xlink:href="#DejaVuSans-74" transform="translate(181.238281 0)"/>
      <use xlink:href="#DejaVuSans-61" transform="translate(220.447266 0)"/>
      <use xlink:href="#DejaVuSans-6c" transform="translate(281.726562 0)"/>
      <use xlink:href="#DejaVuSans-20" transform="translate(309.509766 0)"/>
      <use xlink:href="#DejaVuSans-64" transform="translate(341.296875 0)"/>
      <use xlink:href="#DejaVuSans-6f" transform="translate(404.773438 0)"/>
      <use xlink:href="#DejaVuSans-20" transform="translate(465.955078 0)"/>
      <use xlink:href="#DejaVuSans-41" transform="translate(497.742188 0)"/>
      <use xlink:href="#DejaVuSans-72" transform="translate(566.150391 0)"/>
      <use xlink:href="#DejaVuSans-61" transform="translate(607.263672 0)"/>
      <use xlink:href="#DejaVuSans-67" transform="translate(668.542969 0)"/>
      <use xlink:href="#DejaVuSans-75" transform="translate(732.019531 0)"/>
      <use xlink:href="#DejaVuSans-61" transform="translate(795.398438 0)"/>
      <use xlink:href="#DejaVuSans-69" transform="translate(856.677734 0)"/>
      <use xlink:href="#DejaVuSans-61" transform="translate(884.460938 0)"/>
     </g>
    </g>
   </g>
  </g>
 </g>
 <defs>
  <clipPath id="pa0796117d9">
   <rect x="90" y="282.776237" width="558" height="307.087525"/>
  </clipPath>
 </defs>
</svg>
