<?xml version="1.0" encoding="utf-8" standalone="no"?>
<!DOCTYPE svg PUBLIC "-//W3C//DTD SVG 1.1//EN"
  "http://www.w3.org/Graphics/SVG/1.1/DTD/svg11.dtd">
<svg xmlns:xlink="http://www.w3.org/1999/xlink" width="720pt" height="864pt" viewBox="0 0 720 864" xmlns="http://www.w3.org/2000/svg" version="1.1">
 <metadata>
  <rdf:RDF xmlns:dc="http://purl.org/dc/elements/1.1/" xmlns:cc="http://creativecommons.org/ns#" xmlns:rdf="http://www.w3.org/1999/02/22-rdf-syntax-ns#">
   <cc:Work>
    <dc:type rdf:resource="http://purl.org/dc/dcmitype/StillImage"/>
    <dc:date>2025-06-16T17:45:19.639283</dc:date>
    <dc:format>image/svg+xml</dc:format>
    <dc:creator>
     <cc:Agent>
      <dc:title>Matplotlib v3.10.1, https://matplotlib.org/</dc:title>
     </cc:Agent>
    </dc:creator>
   </cc:Work>
  </rdf:RDF>
 </metadata>
 <defs>
  <style type="text/css">*{stroke-linejoin: round; stroke-linecap: butt}</style>
 </defs>
 <g id="figure_1">
  <g id="patch_1">
   <path d="M 0 864 
L 720 864 
L 720 0 
L 0 0 
z
" style="fill: #ffffff"/>
  </g>
  <g id="axes_1">
   <g id="patch_2">
    <path d="M 90 656.59438 
L 648 656.59438 
L 648 216.04562 
L 90 216.04562 
z
" style="fill: #ffffff"/>
   </g>
   <g id="PatchCollection_1">
    <path d="M 430.442043 308.173543 
L 430.628974 307.555741 
L 431.042421 307.352226 
L 431.863396 307.567326 
L 432.82677 307.230924 
L 433.884093 306.780034 
L 434.569864 306.786465 
L 435.636978 307.564163 
L 436.002471 307.628984 
L 436.347353 307.424985 
L 436.624151 307.151162 
L 438.719075 307.191203 
L 440.183288 307.944565 
L 441.006348 307.952271 
L 442.243326 307.687427 
L 442.588843 307.414404 
L 442.866911 307.002378 
L 443.489856 306.386509 
L 444.312914 306.394206 
L 444.86013 306.537366 
L 445.383119 307.006919 
L 445.606351 307.442622 
L 445.582794 309.998702 
L 446.359484 310.634191 
L 446.543581 311.063804 
L 447.284597 311.396375 
L 448.038943 311.403423 
L 448.958208 311.011431 
L 449.424029 309.965404 
L 449.440093 309.104912 
L 447.901455 305.975192 
L 446.972159 305.304781 
L 446.31338 304.873627 
L 445.637729 304.555122 
L 445.224745 304.19187 
L 445.19056 300.460715 
L 445.941096 299.567476 
L 446.983804 299.401631 
L 449.243102 299.807684 
L 449.9206 300.712126 
L 450.263068 301.670762 
L 450.525728 302.030519 
L 451.260695 302.385286 
L 451.571365 302.207903 
L 451.70823 301.26161 
L 454.369431 294.259234 
L 453.902052 292.873107 
L 451.442176 291.882865 
L 450.482029 291.873909 
L 449.794372 292.074889 
L 449.097467 291.876789 
L 448.91105 291.168365 
L 448.788552 289.57822 
L 449.281334 288.201048 
L 452.858343 288.1397 
L 453.462709 288.356312 
L 454.821565 289.841713 
L 455.010855 290.046194 
L 455.390354 290.456148 
L 456.004601 291.119689 
L 456.111813 291.235504 
L 458.714924 290.6671 
L 459.611363 289.315064 
L 459.787214 288.100381 
L 459.644768 287.399495 
L 459.033287 286.771941 
L 458.57858 285.729784 
L 458.22374 285.31361 
L 457.745576 285.101927 
L 457.614181 283.979081 
L 458.446539 282.950498 
L 459.199727 283.095718 
L 459.537446 283.651537 
L 460.150821 284.071873 
L 460.700078 284.007794 
L 460.911452 283.387897 
L 460.91905 282.559032 
L 460.951553 281.908524 
L 461.136917 281.248307 
L 462.382017 280.276698 
L 463.206935 279.885772 
L 463.726408 279.500732 
L 463.695057 278.992189 
L 463.356072 278.574406 
L 461.194577 278.481238 
L 460.678446 278.418657 
L 460.27575 277.924072 
L 460.239237 277.232816 
L 460.219634 276.861692 
L 460.053256 276.621543 
L 459.265121 275.868149 
L 459.029153 275.144704 
L 459.175549 274.561656 
L 459.675534 273.68786 
L 459.904945 273.49888 
L 460.591297 273.436074 
L 461.05478 273.293369 
L 461.897975 273.033753 
L 463.200298 271.882818 
L 463.625636 271.599005 
L 463.560243 271.252954 
L 462.809138 270.900534 
L 461.846508 271.167844 
L 461.160793 271.161474 
L 460.320107 270.983978 
L 459.998829 270.736204 
L 460.18921 270.194387 
L 460.765758 269.361559 
L 461.130196 269.1822 
L 462.119402 268.587116 
L 462.196368 266.638478 
L 461.945919 264.512555 
L 461.53236 263.263592 
L 460.618959 262.934804 
L 459.933729 262.859412 
L 459.2053 262.412874 
L 458.645449 261.258261 
L 459.201636 260.434335 
L 460.710928 260.37934 
L 461.5293 260.870601 
L 462.695033 260.88143 
L 462.718855 260.072948 
L 462.639762 259.429952 
L 461.093786 257.660184 
L 460.948947 257.525314 
L 460.764218 256.271229 
L 460.833354 255.175154 
L 461.040908 254.969851 
L 461.599772 253.869685 
L 461.603037 253.513007 
L 461.694878 251.212411 
L 462.082436 249.349631 
L 462.472509 248.419705 
L 463.097849 247.527388 
L 462.82625 246.172732 
L 461.903021 245.22221 
L 460.272166 243.78376 
L 460.926932 240.199315 
L 461.19257 237.922161 
L 461.508039 236.070564 
L 622.636364 241.309363 
L 555.964277 417.793435 
L 430.442043 308.173543 
" clip-path="url(#p988e4f403d)" style="fill: #b3e2cd; fill-opacity: 0.65"/>
   </g>
   <g id="PatchCollection_2">
    <path d="M 307.258282 259.734641 
L 307.40543 259.995315 
L 307.654893 261.434612 
L 308.085128 261.797351 
L 309.503479 262.011539 
L 310.498417 261.66144 
L 311.546959 261.685702 
L 313.187987 262.282834 
L 315.109156 262.409633 
L 316.865181 263.021425 
L 316.706333 263.316453 
L 316.253207 263.554412 
L 315.868278 263.894399 
L 315.732338 264.245516 
L 316.117267 265.016443 
L 316.559185 265.322584 
L 317.522462 265.566089 
L 318.779526 266.80684 
L 320.444919 266.80684 
L 320.637865 266.931621 
L 321.000377 267.690926 
L 321.532436 267.985955 
L 322.318342 268.174408 
L 322.846998 268.030931 
L 323.084779 267.747506 
L 323.186602 267.452986 
L 323.07357 267.067514 
L 323.33375 266.364806 
L 324.036356 266.410273 
L 324.634684 266.633064 
L 325.475177 266.013688 
L 325.820621 265.39886 
L 326.031108 265.308435 
L 326.460853 265.333187 
L 327.274544 265.981861 
L 327.840228 266.064721 
L 328.907767 265.831819 
L 329.700988 266.069759 
L 331.151016 267.35043 
L 331.638259 268.030422 
L 331.989562 268.279984 
L 331.92182 268.563391 
L 330.596049 268.25725 
L 330.301753 268.597255 
L 330.154605 269.220649 
L 330.18823 269.742015 
L 330.329046 270.157787 
L 331.023847 270.65591 
L 332.285788 270.983784 
L 333.932184 272.556956 
L 336.415634 273.784576 
L 336.994965 273.359201 
L 337.377438 272.912602 
L 338.367517 271.438458 
L 339.42725 270.236591 
L 339.952994 270.026441 
L 340.946459 269.829912 
L 341.923382 270.027441 
L 344.257247 271.593047 
L 345.724816 273.222289 
L 346.173557 273.538542 
L 347.149025 273.73809 
L 347.416993 273.937146 
L 347.620183 274.487302 
L 347.740038 274.645928 
L 348.003638 274.645928 
L 348.50451 274.476189 
L 350.81501 272.974747 
L 351.154123 272.377614 
L 351.380203 271.634477 
L 350.903678 269.409594 
L 351.319776 268.558844 
L 352.522289 266.766938 
L 354.09412 265.303888 
L 354.619847 265.207406 
L 354.825458 265.320056 
L 355.059835 266.212235 
L 355.336573 270.992878 
L 355.601156 271.614762 
L 355.838918 271.760258 
L 355.680562 273.480453 
L 355.310262 274.115469 
L 354.913161 275.134448 
L 354.781133 275.795744 
L 354.834228 276.113507 
L 357.075531 278.573293 
L 358.84129 278.890055 
L 359.472261 277.771557 
L 359.97315 277.550786 
L 360.709855 278.083773 
L 361.927944 278.440437 
L 362.544795 278.426797 
L 362.954561 278.22825 
L 363.351662 277.910487 
L 363.496863 277.553314 
L 363.431086 276.971331 
L 363.192815 276.468662 
L 362.71678 275.89981 
L 362.399102 275.13192 
L 362.372792 274.735353 
L 362.55795 274.37818 
L 363.139702 274.219044 
L 363.800895 274.205895 
L 364.634073 274.457493 
L 365.652884 274.325128 
L 367.504399 273.993726 
L 367.6496 274.324619 
L 367.464442 274.589349 
L 366.658065 275.277416 
L 366.591797 275.661361 
L 366.671221 276.481792 
L 367.279283 277.315374 
L 367.120944 277.910487 
L 366.790111 278.307563 
L 366.859782 278.802157 
L 367.132626 279.281584 
L 367.491244 279.445776 
L 368.033529 279.366444 
L 368.412616 279.189121 
L 368.871584 278.498017 
L 369.134693 277.302224 
L 370.381057 275.867983 
L 371.079752 274.721713 
L 372.360707 273.357691 
L 372.707134 273.3885 
L 372.692996 273.648173 
L 372.281774 274.234703 
L 372.243764 274.824251 
L 372.527834 275.557804 
L 372.898133 275.938202 
L 373.400479 275.965992 
L 373.991983 275.471925 
L 374.950875 274.584293 
L 375.297775 274.516091 
L 375.392792 274.780312 
L 375.109214 275.628533 
L 375.062924 277.185028 
L 376.788252 277.421458 
L 376.988496 277.789744 
L 377.065482 278.370708 
L 377.033821 279.162859 
L 377.277425 280.451605 
L 377.717904 281.721655 
L 378.194903 282.4254 
L 381.463787 284.877602 
L 382.001213 286.010758 
L 382.659477 286.919088 
L 384.194279 287.466715 
L 385.451835 287.77944 
L 386.325462 288.15631 
L 386.981761 288.694844 
L 388.369433 289.100013 
L 388.915139 288.867111 
L 389.633812 288.208852 
L 389.917864 288.436699 
L 390.045525 289.106579 
L 390.308143 289.801721 
L 390.684792 290.05381 
L 391.880956 290.324596 
L 392.784296 290.766648 
L 393.949764 292.291315 
L 396.806461 295.502823 
L 398.141967 296.673863 
L 399.5613 297.679711 
L 401.389416 298.631998 
L 401.791885 299.301878 
L 402.141224 300.158193 
L 402.764897 302.537138 
L 402.675247 303.198434 
L 402.279602 303.950174 
L 402.254764 304.693311 
L 402.109072 305.659239 
L 401.447405 306.295782 
L 401.309028 306.935363 
L 401.19112 308.019506 
L 401.543388 309.024335 
L 402.025754 309.729571 
L 403.4139 309.911441 
L 404.162778 310.431297 
L 404.932144 310.606092 
L 406.394819 311.119873 
L 406.827002 311.50029 
L 407.38246 311.647295 
L 409.036153 311.868066 
L 409.883451 312.291422 
L 410.478376 313.160341 
L 411.134692 313.365962 
L 411.722776 313.097705 
L 412.075062 311.316892 
L 411.960065 309.523458 
L 411.41778 308.971284 
L 411.311554 308.374643 
L 411.899164 307.967964 
L 412.721134 307.796206 
L 413.677588 307.848239 
L 414.806028 308.211979 
L 416.522095 309.620959 
L 417.491686 309.990772 
L 418.319024 310.140305 
L 419.279371 309.45222 
L 419.7476 308.332212 
L 419.96784 307.346079 
L 420.125705 307.183906 
L 420.553994 307.059635 
L 420.940852 307.215733 
L 420.921365 307.647674 
L 420.719648 308.080632 
L 420.564712 308.694951 
L 420.682619 309.330476 
L 421.118205 309.986225 
L 421.575243 310.415128 
L 422.029843 310.457559 
L 422.323157 310.205469 
L 422.767021 308.612601 
L 423.560734 308.470633 
L 424.925497 308.757078 
L 426.286841 308.430731 
L 426.793571 307.995754 
L 426.810621 307.032354 
L 427.018179 306.862106 
L 427.496651 308.132665 
L 428.026289 308.575718 
L 428.378066 309.048579 
L 428.774677 309.219336 
L 429.281898 309.295121 
L 430.087783 309.037976 
L 430.596952 308.071539 
L 430.310461 307.42843 
L 430.572114 307.055088 
L 430.85957 307.16421 
L 432.176588 307.273841 
L 433.018537 306.984359 
L 433.50285 306.378624 
L 433.846348 306.229091 
L 434.368181 307.008111 
L 435.497111 307.285462 
L 436.139781 307.310706 
L 438.048304 306.664068 
L 439.461778 307.426902 
L 439.717572 307.557248 
L 442.231737 307.222299 
L 443.036657 306.704989 
L 443.480031 306.204848 
L 443.948277 305.877992 
L 444.587527 305.981548 
L 444.997293 306.32761 
L 445.272592 306.903536 
L 445.49185 308.905611 
L 445.455786 309.411809 
L 445.775429 309.974604 
L 447.306811 310.626297 
L 448.912758 310.485858 
L 449.28939 310.09231 
L 449.382934 309.311271 
L 449.246029 308.803564 
L 447.564079 304.922158 
L 446.734794 304.234091 
L 445.358348 303.477313 
L 445.420705 301.397434 
L 445.068929 300.562344 
L 445.105466 300.020263 
L 445.62779 299.358967 
L 446.385929 299.023018 
L 447.522174 299.077579 
L 448.589713 299.29835 
L 450.041688 300.531517 
L 450.314532 301.86473 
L 450.585938 302.108235 
L 450.931874 302.164815 
L 451.627166 301.852108 
L 451.657371 300.620942 
L 452.731241 298.71233 
L 453.695974 295.986814 
L 454.218298 293.658374 
L 454.147153 292.311012 
L 453.099103 291.509276 
L 451.934126 291.034396 
L 449.723028 291.125331 
L 449.333732 290.913653 
L 449.105704 290.433718 
L 448.72467 288.963611 
L 448.73979 288.217437 
L 449.163185 287.920389 
L 449.87407 287.741047 
L 451.200333 287.586949 
L 452.696651 287.691033 
L 453.352968 287.897146 
L 454.232909 288.690807 
L 455.177664 289.697146 
L 455.847627 290.617115 
L 456.813324 290.982363 
L 458.122046 290.741386 
L 459.122842 290.155366 
L 459.418594 289.460715 
L 459.82836 288.889845 
L 459.917046 286.821078 
L 459.389354 285.904165 
L 458.642423 285.311561 
L 457.799983 284.122843 
L 457.720577 283.701524 
L 457.8107 283.27413 
L 458.466526 282.541087 
L 459.452711 283.332729 
L 460.810143 283.325654 
L 461.060588 282.98263 
L 460.765818 281.348332 
L 461.403611 280.591554 
L 462.844379 279.438192 
L 463.70678 278.959275 
L 463.74479 278.391423 
L 463.309205 278.055474 
L 461.791943 277.777122 
L 461.082022 277.260813 
L 460.328267 275.984179 
L 459.220772 274.348371 
L 459.306528 273.683529 
L 460.006696 273.210159 
L 461.457689 272.768125 
L 462.701616 271.98052 
L 463.215643 271.387425 
L 463.333077 270.798877 
L 463.246339 270.11232 
L 463.584487 269.001915 
L 464.099987 268.349694 
L 464.78358 268.306264 
L 470.827789 279.638757 
L 485.597939 306.593339 
L 497.567451 328.374241 
L 501.54722 335.513131 
L 511.186744 353.61572 
L 520.193841 369.464636 
L 541.512984 408.891452 
L 545.679367 420.182515 
L 549.374101 423.065148 
L 555.641936 434.420885 
L 563.748131 449.157377 
L 526.889965 458.689853 
L 509.662185 462.900643 
L 497.609355 465.975767 
L 489.347733 467.900547 
L 410.053016 487.328766 
L 397.910045 490.409436 
L 389.799956 492.226113 
L 383.034653 493.90386 
L 373.314231 496.435885 
L 353.215634 501.416584 
L 352.289876 501.781832 
L 350.529484 502.249146 
L 347.665981 502.681596 
L 332.161548 506.349287 
L 321.57434 509.277896 
L 272.503041 520.977676 
L 274.62498 536.285529 
L 278.11263 557.896183 
L 281.559357 585.047293 
L 283.021068 595.153676 
L 285.785186 611.891752 
L 283.184301 612.21759 
L 278.393279 612.684395 
L 278.501452 613.33356 
L 286.260238 625.33948 
L 276.517891 633.071466 
L 265.055109 614.78397 
L 264.834887 614.15552 
L 253.362353 615.36748 
L 252.28508 615.794365 
L 251.192686 616.583478 
L 251.027015 616.256622 
L 249.538994 616.887601 
L 248.383752 635.970776 
L 248.268282 636.071805 
L 246.815324 636.569436 
L 242.904262 628.020547 
L 234.829745 609.179877 
L 227.851025 593.126849 
L 227.124546 591.002503 
L 215.979442 565.119933 
L 212.121493 555.969875 
L 212.098094 555.450546 
L 207.558499 544.465114 
L 207.55557 543.997818 
L 207.719276 542.898508 
L 207.634993 542.446362 
L 207.214019 541.665341 
L 206.197155 540.642324 
L 204.700346 538.457852 
L 204.476703 538.057248 
L 203.963641 536.878624 
L 203.689814 535.428214 
L 203.267875 534.043478 
L 201.497731 530.868344 
L 200.317143 527.278438 
L 198.968464 525.217256 
L 191.538073 508.502932 
L 188.647295 501.816187 
L 185.665393 494.829867 
L 185.544556 492.077071 
L 184.965716 490.489259 
L 183.97369 488.599834 
L 182.728307 487.164065 
L 182.320488 486.396684 
L 180.574234 483.425135 
L 173.901983 468.339562 
L 170.745166 460.999597 
L 157.765597 431.585738 
L 156.93633 429.618 
L 153.245489 421.293939 
L 145.701576 404.137071 
L 143.124564 398.372806 
L 127.262986 362.338894 
L 127.03594 362.343441 
L 117.879748 341.604252 
L 117.66584 336.295679 
L 115.379721 331.48472 
L 115.363636 330.691059 
L 116.0102 327.665458 
L 116.468694 327.748809 
L 117.722373 327.235537 
L 119.167999 327.164808 
L 119.46961 327.472477 
L 119.456455 328.344432 
L 119.13048 329.044121 
L 118.665181 329.629141 
L 117.959171 330.074212 
L 117.622971 330.529395 
L 117.571314 331.120981 
L 118.018599 331.717604 
L 118.707559 331.867646 
L 120.959579 331.512 
L 120.809992 332.946751 
L 120.922059 333.698473 
L 121.388359 334.202651 
L 122.20789 334.32896 
L 122.58354 333.973805 
L 122.834476 333.553486 
L 122.976256 332.933111 
L 123.243751 332.514302 
L 123.800665 332.142978 
L 124.560769 332.212707 
L 124.812178 332.102567 
L 126.353804 330.847667 
L 126.74652 330.867363 
L 126.976986 331.101775 
L 127.854981 332.472362 
L 128.351976 332.866419 
L 129.043357 332.556241 
L 129.190505 332.185427 
L 129.122781 331.254855 
L 129.726475 330.505661 
L 130.992801 330.987106 
L 131.624754 331.409444 
L 131.774814 331.736809 
L 131.747538 332.341525 
L 131.515616 332.757298 
L 131.175522 332.97756 
L 131.124356 333.301397 
L 131.222776 333.730809 
L 131.963375 334.42646 
L 132.522727 334.564881 
L 132.578279 334.753316 
L 131.4815 335.553033 
L 131.101465 336.398236 
L 130.918254 338.208838 
L 131.054685 339.118186 
L 131.603319 339.971464 
L 132.375579 340.184651 
L 133.452379 339.950749 
L 133.844131 340.143221 
L 133.978597 340.403404 
L 133.957163 340.774218 
L 133.757393 341.298093 
L 133.203899 341.833608 
L 132.898886 342.312525 
L 132.94614 343.139523 
L 133.22144 343.974613 
L 133.77153 344.470208 
L 134.273385 344.626307 
L 134.624688 344.526278 
L 135.314121 343.876604 
L 135.731201 343.846795 
L 136.94345 344.150918 
L 137.827303 343.813968 
L 139.215448 342.896527 
L 140.496403 342.838438 
L 141.136144 342.720222 
L 141.950326 342.965746 
L 142.138887 343.162256 
L 141.667238 343.831136 
L 141.394377 344.207497 
L 141.427511 344.516676 
L 142.179318 346.246474 
L 142.410767 346.571802 
L 143.20739 347.06034 
L 143.867601 346.967877 
L 144.132166 346.160577 
L 144.158003 345.869585 
L 145.091058 345.090074 
L 146.11913 345.029966 
L 146.616125 345.218401 
L 147.378159 345.629627 
L 148.517316 345.989328 
L 148.945113 345.997912 
L 150.503789 346.700129 
L 152.456654 346.835513 
L 154.945945 346.969896 
L 155.917028 346.514222 
L 156.95922 345.043097 
L 157.708116 344.518203 
L 158.057946 344.456058 
L 159.034869 345.478075 
L 159.055322 346.668302 
L 158.943255 347.569066 
L 159.282858 347.994931 
L 160.360641 348.132352 
L 160.607174 348.351105 
L 160.489266 348.576914 
L 159.516254 349.000779 
L 159.667787 350.097053 
L 160.037104 350.790685 
L 161.035463 351.937464 
L 162.179987 352.205721 
L 162.879172 352.205721 
L 163.555959 352.405269 
L 164.020294 352.265848 
L 164.384752 352.034473 
L 164.440777 351.634851 
L 163.959393 350.752293 
L 164.051954 350.510806 
L 164.411063 350.164745 
L 164.820829 349.926295 
L 165.139472 349.880319 
L 165.418174 349.980856 
L 165.954636 350.680036 
L 166.175349 351.155425 
L 166.1466 352.316862 
L 166.312254 352.747293 
L 166.997319 352.985742 
L 167.552286 352.852886 
L 168.205182 351.820776 
L 168.585235 351.592421 
L 169.453494 351.487337 
L 170.256468 351.562103 
L 170.659902 352.131973 
L 170.426015 352.45832 
L 170.076677 352.594213 
L 169.600151 352.630587 
L 169.034958 352.837718 
L 168.792301 353.124163 
L 168.820086 353.473753 
L 169.031046 353.89358 
L 169.505134 354.169404 
L 171.290872 354.10324 
L 171.761048 354.234586 
L 171.97592 354.468998 
L 171.923298 355.131803 
L 171.655331 355.646094 
L 171.53302 356.192212 
L 171.914054 356.693863 
L 172.385212 356.955555 
L 172.962579 357.142971 
L 173.378694 357.037905 
L 173.566765 356.765592 
L 173.620842 356.241717 
L 173.801125 355.761781 
L 174.153884 355.410664 
L 174.824812 355.260621 
L 175.742764 355.523841 
L 177.586 356.620606 
L 178.125373 356.608493 
L 178.837715 356.228586 
L 179.540303 356.376609 
L 179.918409 356.314974 
L 180.34133 355.475336 
L 180.269221 355.224247 
L 179.98808 354.886788 
L 179.328852 354.555386 
L 178.893739 354.1881 
L 178.673517 353.043849 
L 179.279633 351.178668 
L 179.451145 349.472622 
L 180.548888 348.724447 
L 181.372822 347.775688 
L 181.31971 347.160859 
L 180.876809 346.791573 
L 180.598598 346.374783 
L 180.4568 345.812496 
L 180.56399 345.511411 
L 180.924064 345.256794 
L 182.724904 344.168614 
L 183.879164 342.721223 
L 183.962481 342.216025 
L 183.75103 341.768426 
L 183.209218 341.540598 
L 182.431099 341.41278 
L 182.454481 341.219289 
L 183.320303 340.74541 
L 183.754924 340.135146 
L 183.843118 339.674398 
L 183.196063 338.703924 
L 183.173154 338.237137 
L 183.542489 337.651099 
L 184.618307 336.692755 
L 184.668017 335.06906 
L 184.726971 334.658344 
L 185.049999 334.393615 
L 185.893912 334.010179 
L 186.374314 333.456986 
L 186.52732 333.084663 
L 187.202634 332.200067 
L 187.449658 332.170768 
L 187.443326 332.787106 
L 187.115404 332.915924 
L 186.588221 333.347864 
L 186.615023 333.983917 
L 186.921002 334.338563 
L 187.524696 334.635101 
L 187.858933 334.628026 
L 188.509882 334.488096 
L 188.788111 334.827083 
L 189.163269 335.056947 
L 189.550636 336.061777 
L 189.913621 336.63061 
L 190.506598 336.896849 
L 191.099558 336.945354 
L 192.092076 336.400745 
L 193.847591 334.453741 
L 194.690031 334.04959 
L 195.601651 334.152146 
L 196.337865 333.499435 
L 196.261371 332.61282 
L 195.489093 330.824424 
L 195.321002 330.11817 
L 195.611404 328.214104 
L 195.743923 327.87259 
L 197.542326 325.459271 
L 198.64933 323.915908 
L 202.40058 321.370243 
L 205.139352 319.514155 
L 206.570858 317.202901 
L 207.055662 316.942228 
L 207.193549 316.723984 
L 208.732246 316.085913 
L 209.4027 315.204864 
L 209.561039 313.53672 
L 209.226803 311.197168 
L 209.562021 309.503253 
L 209.04945 308.741419 
L 208.144162 308.656049 
L 207.179429 309.152135 
L 206.642003 309.055653 
L 206.493381 308.599961 
L 206.834458 307.34557 
L 206.936772 305.398565 
L 207.629135 303.589963 
L 208.081296 302.807924 
L 209.193669 302.13046 
L 210.886336 302.506839 
L 212.045472 302.495217 
L 212.561464 302.372946 
L 212.775845 302.076408 
L 212.91617 301.688917 
L 213.451649 299.52165 
L 212.959056 298.458204 
L 212.352432 297.956044 
L 212.481075 296.445526 
L 212.763672 295.997926 
L 213.491115 295.56093 
L 215.270504 293.774571 
L 216.674734 293.259262 
L 217.213125 291.752272 
L 217.248206 289.502654 
L 220.136564 285.683393 
L 220.875216 284.825569 
L 221.748844 283.913693 
L 222.082115 282.925032 
L 222.36715 281.375612 
L 222.389075 280.357142 
L 222.588354 280.357142 
L 223.664663 280.792102 
L 225.275469 281.42208 
L 225.715457 281.520598 
L 226.534007 281.426626 
L 228.305116 282.669414 
L 229.105178 283.371121 
L 230.316444 284.063735 
L 232.096324 285.7718 
L 233.041569 286.145142 
L 233.8728 286.284072 
L 234.412174 286.762989 
L 234.686 287.589987 
L 234.757145 288.524087 
L 235.07384 288.851961 
L 236.301682 289.701183 
L 237.246928 291.360252 
L 238.355879 292.422661 
L 239.243153 292.642924 
L 241.808957 294.97642 
L 243.747193 296.850695 
L 245.854977 298.036885 
L 246.364636 298.189455 
L 247.074539 298.567325 
L 247.476991 298.969475 
L 248.691677 299.374626 
L 249.161871 299.353911 
L 249.560428 299.079597 
L 249.993593 298.437998 
L 250.626511 297.730234 
L 251.727674 295.039055 
L 252.977442 294.244395 
L 253.557738 293.659884 
L 253.82767 292.85562 
L 253.631794 292.202908 
L 252.674867 291.231416 
L 251.333502 290.512031 
L 249.628152 289.764838 
L 248.390084 288.489732 
L 248.098226 287.629907 
L 247.881407 285.690468 
L 246.945914 283.437813 
L 246.892801 282.585045 
L 247.336193 281.599403 
L 248.017347 280.649134 
L 248.491434 280.218721 
L 248.94456 280.056039 
L 249.545326 280.427871 
L 250.68108 281.431173 
L 251.595629 281.791893 
L 252.732365 281.954557 
L 253.026644 281.806534 
L 253.752631 282.042964 
L 255.404377 282.231909 
L 257.431772 283.141766 
L 259.471849 283.308977 
L 260.281155 283.245322 
L 262.209638 282.485507 
L 263.849193 282.106619 
L 264.582004 282.091469 
L 265.005908 281.938898 
L 265.299222 281.631739 
L 266.037874 281.492809 
L 267.006027 281.861095 
L 267.955167 282.045492 
L 268.903324 281.931314 
L 269.135246 282.150576 
L 269.30432 282.673961 
L 269.26438 283.186215 
L 268.866296 284.243077 
L 268.183668 285.010985 
L 267.966849 285.285299 
L 267.897178 286.049151 
L 268.244587 286.967592 
L 268.786872 287.087317 
L 269.221002 286.907976 
L 270.194031 286.111296 
L 271.036945 285.998628 
L 271.716643 286.067338 
L 275.25253 286.868073 
L 275.890815 286.835737 
L 276.890629 286.156763 
L 277.323794 285.055943 
L 277.239494 283.970782 
L 276.289863 281.743898 
L 275.613585 278.28432 
L 274.944604 277.379519 
L 274.206917 276.747522 
L 274.002762 276.368633 
L 274.151383 276.118563 
L 274.436892 275.971557 
L 275.132675 275.848286 
L 276.659689 275.822024 
L 278.307523 276.150899 
L 279.166048 276.656587 
L 280.210187 276.923845 
L 281.018037 276.948597 
L 281.847321 277.331542 
L 282.407147 278.444474 
L 282.620564 279.738276 
L 282.119201 281.079055 
L 282.129427 281.694884 
L 282.538702 282.25717 
L 283.072234 282.462774 
L 283.546321 282.474395 
L 286.146715 281.135635 
L 286.690965 280.148993 
L 287.006696 278.692526 
L 286.563796 278.053455 
L 285.050428 275.421911 
L 284.119794 274.444362 
L 284.188991 273.714847 
L 285.105961 272.968181 
L 286.007355 272.676681 
L 288.733954 270.796858 
L 290.498731 270.201745 
L 292.405289 269.417178 
L 293.204859 268.613914 
L 293.359304 267.466117 
L 293.157587 266.393087 
L 292.53002 265.015934 
L 292.183593 263.675646 
L 292.234268 262.830971 
L 292.815055 262.165637 
L 294.076522 261.46593 
L 295.137728 261.607898 
L 295.533374 262.182297 
L 295.537759 262.528867 
L 295.33506 262.934527 
L 294.317214 264.153563 
L 294.279221 264.732526 
L 294.470221 265.209425 
L 294.932117 265.708548 
L 295.654211 266.073305 
L 296.552676 266.08189 
L 297.403395 265.70602 
L 297.805846 265.677739 
L 298.31063 265.998539 
L 298.848547 266.524942 
L 299.289009 267.541902 
L 300.77654 268.524998 
L 301.633591 269.020102 
L 301.918626 269.361598 
L 302.566172 269.671795 
L 303.082655 269.543977 
L 303.782314 268.490643 
L 304.45861 267.270607 
L 304.435702 266.871003 
L 304.720263 266.331451 
L 304.785058 265.742394 
L 304.86399 263.008803 
L 305.026241 262.613746 
L 306.283814 261.865552 
L 306.816364 261.230518 
L 306.906979 260.75462 
L 306.898209 260.104437 
L 307.088244 259.757375 
L 307.258282 259.734641 
L 307.258282 259.734641 
" clip-path="url(#p988e4f403d)" style="fill: none; stroke: #000000; stroke-width: 2"/>
   </g>
   <g id="matplotlib.axis_1">
    <g id="xtick_1">
     <g id="line2d_1">
      <path d="M 132.33271 656.59438 
L 132.33271 216.04562 
" clip-path="url(#p988e4f403d)" style="fill: none; stroke: #b0b0b0; stroke-width: 0.8; stroke-linecap: square"/>
     </g>
     <g id="line2d_2">
      <defs>
       <path id="m433d0fc3fe" d="M 0 0 
L 0 3.5 
" style="stroke: #000000; stroke-width: 0.8"/>
      </defs>
      <g>
       <use xlink:href="#m433d0fc3fe" x="132.33271" y="656.59438" style="stroke: #000000; stroke-width: 0.8"/>
      </g>
     </g>
     <g id="text_1">
      <!-- −59.20 -->
      <g transform="translate(121.199645 695.135762) rotate(-45) scale(0.1 -0.1)">
       <defs>
        <path id="DejaVuSans-2212" d="M 678 2272 
L 4684 2272 
L 4684 1741 
L 678 1741 
L 678 2272 
z
" transform="scale(0.015625)"/>
        <path id="DejaVuSans-35" d="M 691 4666 
L 3169 4666 
L 3169 4134 
L 1269 4134 
L 1269 2991 
Q 1406 3038 1543 3061 
Q 1681 3084 1819 3084 
Q 2600 3084 3056 2656 
Q 3513 2228 3513 1497 
Q 3513 744 3044 326 
Q 2575 -91 1722 -91 
Q 1428 -91 1123 -41 
Q 819 9 494 109 
L 494 744 
Q 775 591 1075 516 
Q 1375 441 1709 441 
Q 2250 441 2565 725 
Q 2881 1009 2881 1497 
Q 2881 1984 2565 2268 
Q 2250 2553 1709 2553 
Q 1456 2553 1204 2497 
Q 953 2441 691 2322 
L 691 4666 
z
" transform="scale(0.015625)"/>
        <path id="DejaVuSans-39" d="M 703 97 
L 703 672 
Q 941 559 1184 500 
Q 1428 441 1663 441 
Q 2288 441 2617 861 
Q 2947 1281 2994 2138 
Q 2813 1869 2534 1725 
Q 2256 1581 1919 1581 
Q 1219 1581 811 2004 
Q 403 2428 403 3163 
Q 403 3881 828 4315 
Q 1253 4750 1959 4750 
Q 2769 4750 3195 4129 
Q 3622 3509 3622 2328 
Q 3622 1225 3098 567 
Q 2575 -91 1691 -91 
Q 1453 -91 1209 -44 
Q 966 3 703 97 
z
M 1959 2075 
Q 2384 2075 2632 2365 
Q 2881 2656 2881 3163 
Q 2881 3666 2632 3958 
Q 2384 4250 1959 4250 
Q 1534 4250 1286 3958 
Q 1038 3666 1038 3163 
Q 1038 2656 1286 2365 
Q 1534 2075 1959 2075 
z
" transform="scale(0.015625)"/>
        <path id="DejaVuSans-2e" d="M 684 794 
L 1344 794 
L 1344 0 
L 684 0 
L 684 794 
z
" transform="scale(0.015625)"/>
        <path id="DejaVuSans-32" d="M 1228 531 
L 3431 531 
L 3431 0 
L 469 0 
L 469 531 
Q 828 903 1448 1529 
Q 2069 2156 2228 2338 
Q 2531 2678 2651 2914 
Q 2772 3150 2772 3378 
Q 2772 3750 2511 3984 
Q 2250 4219 1831 4219 
Q 1534 4219 1204 4116 
Q 875 4013 500 3803 
L 500 4441 
Q 881 4594 1212 4672 
Q 1544 4750 1819 4750 
Q 2544 4750 2975 4387 
Q 3406 4025 3406 3419 
Q 3406 3131 3298 2873 
Q 3191 2616 2906 2266 
Q 2828 2175 2409 1742 
Q 1991 1309 1228 531 
z
" transform="scale(0.015625)"/>
        <path id="DejaVuSans-30" d="M 2034 4250 
Q 1547 4250 1301 3770 
Q 1056 3291 1056 2328 
Q 1056 1369 1301 889 
Q 1547 409 2034 409 
Q 2525 409 2770 889 
Q 3016 1369 3016 2328 
Q 3016 3291 2770 3770 
Q 2525 4250 2034 4250 
z
M 2034 4750 
Q 2819 4750 3233 4129 
Q 3647 3509 3647 2328 
Q 3647 1150 3233 529 
Q 2819 -91 2034 -91 
Q 1250 -91 836 529 
Q 422 1150 422 2328 
Q 422 3509 836 4129 
Q 1250 4750 2034 4750 
z
" transform="scale(0.015625)"/>
       </defs>
       <use xlink:href="#DejaVuSans-2212"/>
       <use xlink:href="#DejaVuSans-35" transform="translate(83.789062 0)"/>
       <use xlink:href="#DejaVuSans-39" transform="translate(147.412109 0)"/>
       <use xlink:href="#DejaVuSans-2e" transform="translate(211.035156 0)"/>
       <use xlink:href="#DejaVuSans-32" transform="translate(242.822266 0)"/>
       <use xlink:href="#DejaVuSans-30" transform="translate(306.445312 0)"/>
      </g>
     </g>
    </g>
    <g id="xtick_2">
     <g id="line2d_3">
      <path d="M 220.035706 656.59438 
L 220.035706 216.04562 
" clip-path="url(#p988e4f403d)" style="fill: none; stroke: #b0b0b0; stroke-width: 0.8; stroke-linecap: square"/>
     </g>
     <g id="line2d_4">
      <g>
       <use xlink:href="#m433d0fc3fe" x="220.035706" y="656.59438" style="stroke: #000000; stroke-width: 0.8"/>
      </g>
     </g>
     <g id="text_2">
      <!-- −59.15 -->
      <g transform="translate(208.902641 695.135762) rotate(-45) scale(0.1 -0.1)">
       <defs>
        <path id="DejaVuSans-31" d="M 794 531 
L 1825 531 
L 1825 4091 
L 703 3866 
L 703 4441 
L 1819 4666 
L 2450 4666 
L 2450 531 
L 3481 531 
L 3481 0 
L 794 0 
L 794 531 
z
" transform="scale(0.015625)"/>
       </defs>
       <use xlink:href="#DejaVuSans-2212"/>
       <use xlink:href="#DejaVuSans-35" transform="translate(83.789062 0)"/>
       <use xlink:href="#DejaVuSans-39" transform="translate(147.412109 0)"/>
       <use xlink:href="#DejaVuSans-2e" transform="translate(211.035156 0)"/>
       <use xlink:href="#DejaVuSans-31" transform="translate(242.822266 0)"/>
       <use xlink:href="#DejaVuSans-35" transform="translate(306.445312 0)"/>
      </g>
     </g>
    </g>
    <g id="xtick_3">
     <g id="line2d_5">
      <path d="M 307.738702 656.59438 
L 307.738702 216.04562 
" clip-path="url(#p988e4f403d)" style="fill: none; stroke: #b0b0b0; stroke-width: 0.8; stroke-linecap: square"/>
     </g>
     <g id="line2d_6">
      <g>
       <use xlink:href="#m433d0fc3fe" x="307.738702" y="656.59438" style="stroke: #000000; stroke-width: 0.8"/>
      </g>
     </g>
     <g id="text_3">
      <!-- −59.10 -->
      <g transform="translate(296.605637 695.135762) rotate(-45) scale(0.1 -0.1)">
       <use xlink:href="#DejaVuSans-2212"/>
       <use xlink:href="#DejaVuSans-35" transform="translate(83.789062 0)"/>
       <use xlink:href="#DejaVuSans-39" transform="translate(147.412109 0)"/>
       <use xlink:href="#DejaVuSans-2e" transform="translate(211.035156 0)"/>
       <use xlink:href="#DejaVuSans-31" transform="translate(242.822266 0)"/>
       <use xlink:href="#DejaVuSans-30" transform="translate(306.445312 0)"/>
      </g>
     </g>
    </g>
    <g id="xtick_4">
     <g id="line2d_7">
      <path d="M 395.441697 656.59438 
L 395.441697 216.04562 
" clip-path="url(#p988e4f403d)" style="fill: none; stroke: #b0b0b0; stroke-width: 0.8; stroke-linecap: square"/>
     </g>
     <g id="line2d_8">
      <g>
       <use xlink:href="#m433d0fc3fe" x="395.441697" y="656.59438" style="stroke: #000000; stroke-width: 0.8"/>
      </g>
     </g>
     <g id="text_4">
      <!-- −59.05 -->
      <g transform="translate(384.308632 695.135762) rotate(-45) scale(0.1 -0.1)">
       <use xlink:href="#DejaVuSans-2212"/>
       <use xlink:href="#DejaVuSans-35" transform="translate(83.789062 0)"/>
       <use xlink:href="#DejaVuSans-39" transform="translate(147.412109 0)"/>
       <use xlink:href="#DejaVuSans-2e" transform="translate(211.035156 0)"/>
       <use xlink:href="#DejaVuSans-30" transform="translate(242.822266 0)"/>
       <use xlink:href="#DejaVuSans-35" transform="translate(306.445312 0)"/>
      </g>
     </g>
    </g>
    <g id="xtick_5">
     <g id="line2d_9">
      <path d="M 483.144693 656.59438 
L 483.144693 216.04562 
" clip-path="url(#p988e4f403d)" style="fill: none; stroke: #b0b0b0; stroke-width: 0.8; stroke-linecap: square"/>
     </g>
     <g id="line2d_10">
      <g>
       <use xlink:href="#m433d0fc3fe" x="483.144693" y="656.59438" style="stroke: #000000; stroke-width: 0.8"/>
      </g>
     </g>
     <g id="text_5">
      <!-- −59.00 -->
      <g transform="translate(472.011628 695.135762) rotate(-45) scale(0.1 -0.1)">
       <use xlink:href="#DejaVuSans-2212"/>
       <use xlink:href="#DejaVuSans-35" transform="translate(83.789062 0)"/>
       <use xlink:href="#DejaVuSans-39" transform="translate(147.412109 0)"/>
       <use xlink:href="#DejaVuSans-2e" transform="translate(211.035156 0)"/>
       <use xlink:href="#DejaVuSans-30" transform="translate(242.822266 0)"/>
       <use xlink:href="#DejaVuSans-30" transform="translate(306.445312 0)"/>
      </g>
     </g>
    </g>
    <g id="xtick_6">
     <g id="line2d_11">
      <path d="M 570.847689 656.59438 
L 570.847689 216.04562 
" clip-path="url(#p988e4f403d)" style="fill: none; stroke: #b0b0b0; stroke-width: 0.8; stroke-linecap: square"/>
     </g>
     <g id="line2d_12">
      <g>
       <use xlink:href="#m433d0fc3fe" x="570.847689" y="656.59438" style="stroke: #000000; stroke-width: 0.8"/>
      </g>
     </g>
     <g id="text_6">
      <!-- −58.95 -->
      <g transform="translate(559.714624 695.135762) rotate(-45) scale(0.1 -0.1)">
       <defs>
        <path id="DejaVuSans-38" d="M 2034 2216 
Q 1584 2216 1326 1975 
Q 1069 1734 1069 1313 
Q 1069 891 1326 650 
Q 1584 409 2034 409 
Q 2484 409 2743 651 
Q 3003 894 3003 1313 
Q 3003 1734 2745 1975 
Q 2488 2216 2034 2216 
z
M 1403 2484 
Q 997 2584 770 2862 
Q 544 3141 544 3541 
Q 544 4100 942 4425 
Q 1341 4750 2034 4750 
Q 2731 4750 3128 4425 
Q 3525 4100 3525 3541 
Q 3525 3141 3298 2862 
Q 3072 2584 2669 2484 
Q 3125 2378 3379 2068 
Q 3634 1759 3634 1313 
Q 3634 634 3220 271 
Q 2806 -91 2034 -91 
Q 1263 -91 848 271 
Q 434 634 434 1313 
Q 434 1759 690 2068 
Q 947 2378 1403 2484 
z
M 1172 3481 
Q 1172 3119 1398 2916 
Q 1625 2713 2034 2713 
Q 2441 2713 2670 2916 
Q 2900 3119 2900 3481 
Q 2900 3844 2670 4047 
Q 2441 4250 2034 4250 
Q 1625 4250 1398 4047 
Q 1172 3844 1172 3481 
z
" transform="scale(0.015625)"/>
       </defs>
       <use xlink:href="#DejaVuSans-2212"/>
       <use xlink:href="#DejaVuSans-35" transform="translate(83.789062 0)"/>
       <use xlink:href="#DejaVuSans-38" transform="translate(147.412109 0)"/>
       <use xlink:href="#DejaVuSans-2e" transform="translate(211.035156 0)"/>
       <use xlink:href="#DejaVuSans-39" transform="translate(242.822266 0)"/>
       <use xlink:href="#DejaVuSans-35" transform="translate(306.445312 0)"/>
      </g>
     </g>
    </g>
    <g id="text_7">
     <!-- Longitude (°) -->
     <g transform="translate(336.139844 708.20476) scale(0.1 -0.1)">
      <defs>
       <path id="DejaVuSans-4c" d="M 628 4666 
L 1259 4666 
L 1259 531 
L 3531 531 
L 3531 0 
L 628 0 
L 628 4666 
z
" transform="scale(0.015625)"/>
       <path id="DejaVuSans-6f" d="M 1959 3097 
Q 1497 3097 1228 2736 
Q 959 2375 959 1747 
Q 959 1119 1226 758 
Q 1494 397 1959 397 
Q 2419 397 2687 759 
Q 2956 1122 2956 1747 
Q 2956 2369 2687 2733 
Q 2419 3097 1959 3097 
z
M 1959 3584 
Q 2709 3584 3137 3096 
Q 3566 2609 3566 1747 
Q 3566 888 3137 398 
Q 2709 -91 1959 -91 
Q 1206 -91 779 398 
Q 353 888 353 1747 
Q 353 2609 779 3096 
Q 1206 3584 1959 3584 
z
" transform="scale(0.015625)"/>
       <path id="DejaVuSans-6e" d="M 3513 2113 
L 3513 0 
L 2938 0 
L 2938 2094 
Q 2938 2591 2744 2837 
Q 2550 3084 2163 3084 
Q 1697 3084 1428 2787 
Q 1159 2491 1159 1978 
L 1159 0 
L 581 0 
L 581 3500 
L 1159 3500 
L 1159 2956 
Q 1366 3272 1645 3428 
Q 1925 3584 2291 3584 
Q 2894 3584 3203 3211 
Q 3513 2838 3513 2113 
z
" transform="scale(0.015625)"/>
       <path id="DejaVuSans-67" d="M 2906 1791 
Q 2906 2416 2648 2759 
Q 2391 3103 1925 3103 
Q 1463 3103 1205 2759 
Q 947 2416 947 1791 
Q 947 1169 1205 825 
Q 1463 481 1925 481 
Q 2391 481 2648 825 
Q 2906 1169 2906 1791 
z
M 3481 434 
Q 3481 -459 3084 -895 
Q 2688 -1331 1869 -1331 
Q 1566 -1331 1297 -1286 
Q 1028 -1241 775 -1147 
L 775 -588 
Q 1028 -725 1275 -790 
Q 1522 -856 1778 -856 
Q 2344 -856 2625 -561 
Q 2906 -266 2906 331 
L 2906 616 
Q 2728 306 2450 153 
Q 2172 0 1784 0 
Q 1141 0 747 490 
Q 353 981 353 1791 
Q 353 2603 747 3093 
Q 1141 3584 1784 3584 
Q 2172 3584 2450 3431 
Q 2728 3278 2906 2969 
L 2906 3500 
L 3481 3500 
L 3481 434 
z
" transform="scale(0.015625)"/>
       <path id="DejaVuSans-69" d="M 603 3500 
L 1178 3500 
L 1178 0 
L 603 0 
L 603 3500 
z
M 603 4863 
L 1178 4863 
L 1178 4134 
L 603 4134 
L 603 4863 
z
" transform="scale(0.015625)"/>
       <path id="DejaVuSans-74" d="M 1172 4494 
L 1172 3500 
L 2356 3500 
L 2356 3053 
L 1172 3053 
L 1172 1153 
Q 1172 725 1289 603 
Q 1406 481 1766 481 
L 2356 481 
L 2356 0 
L 1766 0 
Q 1100 0 847 248 
Q 594 497 594 1153 
L 594 3053 
L 172 3053 
L 172 3500 
L 594 3500 
L 594 4494 
L 1172 4494 
z
" transform="scale(0.015625)"/>
       <path id="DejaVuSans-75" d="M 544 1381 
L 544 3500 
L 1119 3500 
L 1119 1403 
Q 1119 906 1312 657 
Q 1506 409 1894 409 
Q 2359 409 2629 706 
Q 2900 1003 2900 1516 
L 2900 3500 
L 3475 3500 
L 3475 0 
L 2900 0 
L 2900 538 
Q 2691 219 2414 64 
Q 2138 -91 1772 -91 
Q 1169 -91 856 284 
Q 544 659 544 1381 
z
M 1991 3584 
L 1991 3584 
z
" transform="scale(0.015625)"/>
       <path id="DejaVuSans-64" d="M 2906 2969 
L 2906 4863 
L 3481 4863 
L 3481 0 
L 2906 0 
L 2906 525 
Q 2725 213 2448 61 
Q 2172 -91 1784 -91 
Q 1150 -91 751 415 
Q 353 922 353 1747 
Q 353 2572 751 3078 
Q 1150 3584 1784 3584 
Q 2172 3584 2448 3432 
Q 2725 3281 2906 2969 
z
M 947 1747 
Q 947 1113 1208 752 
Q 1469 391 1925 391 
Q 2381 391 2643 752 
Q 2906 1113 2906 1747 
Q 2906 2381 2643 2742 
Q 2381 3103 1925 3103 
Q 1469 3103 1208 2742 
Q 947 2381 947 1747 
z
" transform="scale(0.015625)"/>
       <path id="DejaVuSans-65" d="M 3597 1894 
L 3597 1613 
L 953 1613 
Q 991 1019 1311 708 
Q 1631 397 2203 397 
Q 2534 397 2845 478 
Q 3156 559 3463 722 
L 3463 178 
Q 3153 47 2828 -22 
Q 2503 -91 2169 -91 
Q 1331 -91 842 396 
Q 353 884 353 1716 
Q 353 2575 817 3079 
Q 1281 3584 2069 3584 
Q 2775 3584 3186 3129 
Q 3597 2675 3597 1894 
z
M 3022 2063 
Q 3016 2534 2758 2815 
Q 2500 3097 2075 3097 
Q 1594 3097 1305 2825 
Q 1016 2553 972 2059 
L 3022 2063 
z
" transform="scale(0.015625)"/>
       <path id="DejaVuSans-20" transform="scale(0.015625)"/>
       <path id="DejaVuSans-28" d="M 1984 4856 
Q 1566 4138 1362 3434 
Q 1159 2731 1159 2009 
Q 1159 1288 1364 580 
Q 1569 -128 1984 -844 
L 1484 -844 
Q 1016 -109 783 600 
Q 550 1309 550 2009 
Q 550 2706 781 3412 
Q 1013 4119 1484 4856 
L 1984 4856 
z
" transform="scale(0.015625)"/>
       <path id="DejaVuSans-b0" d="M 1600 4347 
Q 1350 4347 1178 4173 
Q 1006 4000 1006 3750 
Q 1006 3503 1178 3333 
Q 1350 3163 1600 3163 
Q 1850 3163 2022 3333 
Q 2194 3503 2194 3750 
Q 2194 3997 2020 4172 
Q 1847 4347 1600 4347 
z
M 1600 4750 
Q 1800 4750 1984 4673 
Q 2169 4597 2303 4453 
Q 2447 4313 2519 4134 
Q 2591 3956 2591 3750 
Q 2591 3338 2302 3052 
Q 2013 2766 1594 2766 
Q 1172 2766 890 3047 
Q 609 3328 609 3750 
Q 609 4169 896 4459 
Q 1184 4750 1600 4750 
z
" transform="scale(0.015625)"/>
       <path id="DejaVuSans-29" d="M 513 4856 
L 1013 4856 
Q 1481 4119 1714 3412 
Q 1947 2706 1947 2009 
Q 1947 1309 1714 600 
Q 1481 -109 1013 -844 
L 513 -844 
Q 928 -128 1133 580 
Q 1338 1288 1338 2009 
Q 1338 2731 1133 3434 
Q 928 4138 513 4856 
z
" transform="scale(0.015625)"/>
      </defs>
      <use xlink:href="#DejaVuSans-4c"/>
      <use xlink:href="#DejaVuSans-6f" transform="translate(53.962891 0)"/>
      <use xlink:href="#DejaVuSans-6e" transform="translate(115.144531 0)"/>
      <use xlink:href="#DejaVuSans-67" transform="translate(178.523438 0)"/>
      <use xlink:href="#DejaVuSans-69" transform="translate(242 0)"/>
      <use xlink:href="#DejaVuSans-74" transform="translate(269.783203 0)"/>
      <use xlink:href="#DejaVuSans-75" transform="translate(308.992188 0)"/>
      <use xlink:href="#DejaVuSans-64" transform="translate(372.371094 0)"/>
      <use xlink:href="#DejaVuSans-65" transform="translate(435.847656 0)"/>
      <use xlink:href="#DejaVuSans-20" transform="translate(497.371094 0)"/>
      <use xlink:href="#DejaVuSans-28" transform="translate(529.158203 0)"/>
      <use xlink:href="#DejaVuSans-b0" transform="translate(568.171875 0)"/>
      <use xlink:href="#DejaVuSans-29" transform="translate(618.171875 0)"/>
     </g>
    </g>
   </g>
   <g id="matplotlib.axis_2">
    <g id="ytick_1">
     <g id="line2d_13">
      <path d="M 90 591.692098 
L 648 591.692098 
" clip-path="url(#p988e4f403d)" style="fill: none; stroke: #b0b0b0; stroke-width: 0.8; stroke-linecap: square"/>
     </g>
     <g id="line2d_14">
      <defs>
       <path id="m3b0c7d4fca" d="M 0 0 
L -3.5 0 
" style="stroke: #000000; stroke-width: 0.8"/>
      </defs>
      <g>
       <use xlink:href="#m3b0c7d4fca" x="90" y="591.692098" style="stroke: #000000; stroke-width: 0.8"/>
      </g>
     </g>
     <g id="text_8">
      <!-- −15.40 -->
      <g transform="translate(45.992188 595.491317) scale(0.1 -0.1)">
       <defs>
        <path id="DejaVuSans-34" d="M 2419 4116 
L 825 1625 
L 2419 1625 
L 2419 4116 
z
M 2253 4666 
L 3047 4666 
L 3047 1625 
L 3713 1625 
L 3713 1100 
L 3047 1100 
L 3047 0 
L 2419 0 
L 2419 1100 
L 313 1100 
L 313 1709 
L 2253 4666 
z
" transform="scale(0.015625)"/>
       </defs>
       <use xlink:href="#DejaVuSans-2212"/>
       <use xlink:href="#DejaVuSans-31" transform="translate(83.789062 0)"/>
       <use xlink:href="#DejaVuSans-35" transform="translate(147.412109 0)"/>
       <use xlink:href="#DejaVuSans-2e" transform="translate(211.035156 0)"/>
       <use xlink:href="#DejaVuSans-34" transform="translate(242.822266 0)"/>
       <use xlink:href="#DejaVuSans-30" transform="translate(306.445312 0)"/>
      </g>
     </g>
    </g>
    <g id="ytick_2">
     <g id="line2d_15">
      <path d="M 90 500.757306 
L 648 500.757306 
" clip-path="url(#p988e4f403d)" style="fill: none; stroke: #b0b0b0; stroke-width: 0.8; stroke-linecap: square"/>
     </g>
     <g id="line2d_16">
      <g>
       <use xlink:href="#m3b0c7d4fca" x="90" y="500.757306" style="stroke: #000000; stroke-width: 0.8"/>
      </g>
     </g>
     <g id="text_9">
      <!-- −15.35 -->
      <g transform="translate(45.992188 504.556525) scale(0.1 -0.1)">
       <defs>
        <path id="DejaVuSans-33" d="M 2597 2516 
Q 3050 2419 3304 2112 
Q 3559 1806 3559 1356 
Q 3559 666 3084 287 
Q 2609 -91 1734 -91 
Q 1441 -91 1130 -33 
Q 819 25 488 141 
L 488 750 
Q 750 597 1062 519 
Q 1375 441 1716 441 
Q 2309 441 2620 675 
Q 2931 909 2931 1356 
Q 2931 1769 2642 2001 
Q 2353 2234 1838 2234 
L 1294 2234 
L 1294 2753 
L 1863 2753 
Q 2328 2753 2575 2939 
Q 2822 3125 2822 3475 
Q 2822 3834 2567 4026 
Q 2313 4219 1838 4219 
Q 1578 4219 1281 4162 
Q 984 4106 628 3988 
L 628 4550 
Q 988 4650 1302 4700 
Q 1616 4750 1894 4750 
Q 2613 4750 3031 4423 
Q 3450 4097 3450 3541 
Q 3450 3153 3228 2886 
Q 3006 2619 2597 2516 
z
" transform="scale(0.015625)"/>
       </defs>
       <use xlink:href="#DejaVuSans-2212"/>
       <use xlink:href="#DejaVuSans-31" transform="translate(83.789062 0)"/>
       <use xlink:href="#DejaVuSans-35" transform="translate(147.412109 0)"/>
       <use xlink:href="#DejaVuSans-2e" transform="translate(211.035156 0)"/>
       <use xlink:href="#DejaVuSans-33" transform="translate(242.822266 0)"/>
       <use xlink:href="#DejaVuSans-35" transform="translate(306.445312 0)"/>
      </g>
     </g>
    </g>
    <g id="ytick_3">
     <g id="line2d_17">
      <path d="M 90 409.822515 
L 648 409.822515 
" clip-path="url(#p988e4f403d)" style="fill: none; stroke: #b0b0b0; stroke-width: 0.8; stroke-linecap: square"/>
     </g>
     <g id="line2d_18">
      <g>
       <use xlink:href="#m3b0c7d4fca" x="90" y="409.822515" style="stroke: #000000; stroke-width: 0.8"/>
      </g>
     </g>
     <g id="text_10">
      <!-- −15.30 -->
      <g transform="translate(45.992188 413.621733) scale(0.1 -0.1)">
       <use xlink:href="#DejaVuSans-2212"/>
       <use xlink:href="#DejaVuSans-31" transform="translate(83.789062 0)"/>
       <use xlink:href="#DejaVuSans-35" transform="translate(147.412109 0)"/>
       <use xlink:href="#DejaVuSans-2e" transform="translate(211.035156 0)"/>
       <use xlink:href="#DejaVuSans-33" transform="translate(242.822266 0)"/>
       <use xlink:href="#DejaVuSans-30" transform="translate(306.445312 0)"/>
      </g>
     </g>
    </g>
    <g id="ytick_4">
     <g id="line2d_19">
      <path d="M 90 318.887723 
L 648 318.887723 
" clip-path="url(#p988e4f403d)" style="fill: none; stroke: #b0b0b0; stroke-width: 0.8; stroke-linecap: square"/>
     </g>
     <g id="line2d_20">
      <g>
       <use xlink:href="#m3b0c7d4fca" x="90" y="318.887723" style="stroke: #000000; stroke-width: 0.8"/>
      </g>
     </g>
     <g id="text_11">
      <!-- −15.25 -->
      <g transform="translate(45.992188 322.686942) scale(0.1 -0.1)">
       <use xlink:href="#DejaVuSans-2212"/>
       <use xlink:href="#DejaVuSans-31" transform="translate(83.789062 0)"/>
       <use xlink:href="#DejaVuSans-35" transform="translate(147.412109 0)"/>
       <use xlink:href="#DejaVuSans-2e" transform="translate(211.035156 0)"/>
       <use xlink:href="#DejaVuSans-32" transform="translate(242.822266 0)"/>
       <use xlink:href="#DejaVuSans-35" transform="translate(306.445312 0)"/>
      </g>
     </g>
    </g>
    <g id="ytick_5">
     <g id="line2d_21">
      <path d="M 90 227.952931 
L 648 227.952931 
" clip-path="url(#p988e4f403d)" style="fill: none; stroke: #b0b0b0; stroke-width: 0.8; stroke-linecap: square"/>
     </g>
     <g id="line2d_22">
      <g>
       <use xlink:href="#m3b0c7d4fca" x="90" y="227.952931" style="stroke: #000000; stroke-width: 0.8"/>
      </g>
     </g>
     <g id="text_12">
      <!-- −15.20 -->
      <g transform="translate(45.992188 231.75215) scale(0.1 -0.1)">
       <use xlink:href="#DejaVuSans-2212"/>
       <use xlink:href="#DejaVuSans-31" transform="translate(83.789062 0)"/>
       <use xlink:href="#DejaVuSans-35" transform="translate(147.412109 0)"/>
       <use xlink:href="#DejaVuSans-2e" transform="translate(211.035156 0)"/>
       <use xlink:href="#DejaVuSans-32" transform="translate(242.822266 0)"/>
       <use xlink:href="#DejaVuSans-30" transform="translate(306.445312 0)"/>
      </g>
     </g>
    </g>
    <g id="text_13">
     <!-- Latitude (°) -->
     <g transform="translate(39.9125 464.889531) rotate(-90) scale(0.1 -0.1)">
      <defs>
       <path id="DejaVuSans-61" d="M 2194 1759 
Q 1497 1759 1228 1600 
Q 959 1441 959 1056 
Q 959 750 1161 570 
Q 1363 391 1709 391 
Q 2188 391 2477 730 
Q 2766 1069 2766 1631 
L 2766 1759 
L 2194 1759 
z
M 3341 1997 
L 3341 0 
L 2766 0 
L 2766 531 
Q 2569 213 2275 61 
Q 1981 -91 1556 -91 
Q 1019 -91 701 211 
Q 384 513 384 1019 
Q 384 1609 779 1909 
Q 1175 2209 1959 2209 
L 2766 2209 
L 2766 2266 
Q 2766 2663 2505 2880 
Q 2244 3097 1772 3097 
Q 1472 3097 1187 3025 
Q 903 2953 641 2809 
L 641 3341 
Q 956 3463 1253 3523 
Q 1550 3584 1831 3584 
Q 2591 3584 2966 3190 
Q 3341 2797 3341 1997 
z
" transform="scale(0.015625)"/>
      </defs>
      <use xlink:href="#DejaVuSans-4c"/>
      <use xlink:href="#DejaVuSans-61" transform="translate(55.712891 0)"/>
      <use xlink:href="#DejaVuSans-74" transform="translate(116.992188 0)"/>
      <use xlink:href="#DejaVuSans-69" transform="translate(156.201172 0)"/>
      <use xlink:href="#DejaVuSans-74" transform="translate(183.984375 0)"/>
      <use xlink:href="#DejaVuSans-75" transform="translate(223.193359 0)"/>
      <use xlink:href="#DejaVuSans-64" transform="translate(286.572266 0)"/>
      <use xlink:href="#DejaVuSans-65" transform="translate(350.048828 0)"/>
      <use xlink:href="#DejaVuSans-20" transform="translate(411.572266 0)"/>
      <use xlink:href="#DejaVuSans-28" transform="translate(443.359375 0)"/>
      <use xlink:href="#DejaVuSans-b0" transform="translate(482.373047 0)"/>
      <use xlink:href="#DejaVuSans-29" transform="translate(532.373047 0)"/>
     </g>
    </g>
   </g>
   <g id="patch_3">
    <path d="M 90 656.59438 
L 90 216.04562 
" style="fill: none; stroke: #000000; stroke-width: 0.8; stroke-linejoin: miter; stroke-linecap: square"/>
   </g>
   <g id="patch_4">
    <path d="M 648 656.59438 
L 648 216.04562 
" style="fill: none; stroke: #000000; stroke-width: 0.8; stroke-linejoin: miter; stroke-linecap: square"/>
   </g>
   <g id="patch_5">
    <path d="M 90 656.59438 
L 648 656.59438 
" style="fill: none; stroke: #000000; stroke-width: 0.8; stroke-linejoin: miter; stroke-linecap: square"/>
   </g>
   <g id="patch_6">
    <path d="M 90 216.04562 
L 648 216.04562 
" style="fill: none; stroke: #000000; stroke-width: 0.8; stroke-linejoin: miter; stroke-linecap: square"/>
   </g>
   <g id="legend_1">
    <g id="patch_7">
     <path d="M 309.682031 767.382257 
L 428.317969 767.382257 
Q 430.317969 767.382257 430.317969 765.382257 
L 430.317969 751.704132 
Q 430.317969 749.704132 428.317969 749.704132 
L 309.682031 749.704132 
Q 307.682031 749.704132 307.682031 751.704132 
L 307.682031 765.382257 
Q 307.682031 767.382257 309.682031 767.382257 
z
" style="fill: #ffffff; opacity: 0.8; stroke: #cccccc; stroke-linejoin: miter"/>
    </g>
    <g id="line2d_23">
     <defs>
      <path id="mafb5d6fc9c" d="M 0 5 
C 1.326016 5 2.597899 4.473168 3.535534 3.535534 
C 4.473168 2.597899 5 1.326016 5 0 
C 5 -1.326016 4.473168 -2.597899 3.535534 -3.535534 
C 2.597899 -4.473168 1.326016 -5 0 -5 
C -1.326016 -5 -2.597899 -4.473168 -3.535534 -3.535534 
C -4.473168 -2.597899 -5 -1.326016 -5 0 
C -5 1.326016 -4.473168 2.597899 -3.535534 3.535534 
C -2.597899 4.473168 -1.326016 5 0 5 
z
"/>
     </defs>
     <g>
      <use xlink:href="#mafb5d6fc9c" x="321.682031" y="757.802569" style="fill: #b3e2cd; fill-opacity: 0.65"/>
     </g>
    </g>
    <g id="text_14">
     <!-- PA AERORANCHO -->
     <g transform="translate(339.682031 761.302569) scale(0.1 -0.1)">
      <defs>
       <path id="DejaVuSans-50" d="M 1259 4147 
L 1259 2394 
L 2053 2394 
Q 2494 2394 2734 2622 
Q 2975 2850 2975 3272 
Q 2975 3691 2734 3919 
Q 2494 4147 2053 4147 
L 1259 4147 
z
M 628 4666 
L 2053 4666 
Q 2838 4666 3239 4311 
Q 3641 3956 3641 3272 
Q 3641 2581 3239 2228 
Q 2838 1875 2053 1875 
L 1259 1875 
L 1259 0 
L 628 0 
L 628 4666 
z
" transform="scale(0.015625)"/>
       <path id="DejaVuSans-41" d="M 2188 4044 
L 1331 1722 
L 3047 1722 
L 2188 4044 
z
M 1831 4666 
L 2547 4666 
L 4325 0 
L 3669 0 
L 3244 1197 
L 1141 1197 
L 716 0 
L 50 0 
L 1831 4666 
z
" transform="scale(0.015625)"/>
       <path id="DejaVuSans-45" d="M 628 4666 
L 3578 4666 
L 3578 4134 
L 1259 4134 
L 1259 2753 
L 3481 2753 
L 3481 2222 
L 1259 2222 
L 1259 531 
L 3634 531 
L 3634 0 
L 628 0 
L 628 4666 
z
" transform="scale(0.015625)"/>
       <path id="DejaVuSans-52" d="M 2841 2188 
Q 3044 2119 3236 1894 
Q 3428 1669 3622 1275 
L 4263 0 
L 3584 0 
L 2988 1197 
Q 2756 1666 2539 1819 
Q 2322 1972 1947 1972 
L 1259 1972 
L 1259 0 
L 628 0 
L 628 4666 
L 2053 4666 
Q 2853 4666 3247 4331 
Q 3641 3997 3641 3322 
Q 3641 2881 3436 2590 
Q 3231 2300 2841 2188 
z
M 1259 4147 
L 1259 2491 
L 2053 2491 
Q 2509 2491 2742 2702 
Q 2975 2913 2975 3322 
Q 2975 3731 2742 3939 
Q 2509 4147 2053 4147 
L 1259 4147 
z
" transform="scale(0.015625)"/>
       <path id="DejaVuSans-4f" d="M 2522 4238 
Q 1834 4238 1429 3725 
Q 1025 3213 1025 2328 
Q 1025 1447 1429 934 
Q 1834 422 2522 422 
Q 3209 422 3611 934 
Q 4013 1447 4013 2328 
Q 4013 3213 3611 3725 
Q 3209 4238 2522 4238 
z
M 2522 4750 
Q 3503 4750 4090 4092 
Q 4678 3434 4678 2328 
Q 4678 1225 4090 567 
Q 3503 -91 2522 -91 
Q 1538 -91 948 565 
Q 359 1222 359 2328 
Q 359 3434 948 4092 
Q 1538 4750 2522 4750 
z
" transform="scale(0.015625)"/>
       <path id="DejaVuSans-4e" d="M 628 4666 
L 1478 4666 
L 3547 763 
L 3547 4666 
L 4159 4666 
L 4159 0 
L 3309 0 
L 1241 3903 
L 1241 0 
L 628 0 
L 628 4666 
z
" transform="scale(0.015625)"/>
       <path id="DejaVuSans-43" d="M 4122 4306 
L 4122 3641 
Q 3803 3938 3442 4084 
Q 3081 4231 2675 4231 
Q 1875 4231 1450 3742 
Q 1025 3253 1025 2328 
Q 1025 1406 1450 917 
Q 1875 428 2675 428 
Q 3081 428 3442 575 
Q 3803 722 4122 1019 
L 4122 359 
Q 3791 134 3420 21 
Q 3050 -91 2638 -91 
Q 1578 -91 968 557 
Q 359 1206 359 2328 
Q 359 3453 968 4101 
Q 1578 4750 2638 4750 
Q 3056 4750 3426 4639 
Q 3797 4528 4122 4306 
z
" transform="scale(0.015625)"/>
       <path id="DejaVuSans-48" d="M 628 4666 
L 1259 4666 
L 1259 2753 
L 3553 2753 
L 3553 4666 
L 4184 4666 
L 4184 0 
L 3553 0 
L 3553 2222 
L 1259 2222 
L 1259 0 
L 628 0 
L 628 4666 
z
" transform="scale(0.015625)"/>
      </defs>
      <use xlink:href="#DejaVuSans-50"/>
      <use xlink:href="#DejaVuSans-41" transform="translate(53.927734 0)"/>
      <use xlink:href="#DejaVuSans-20" transform="translate(122.335938 0)"/>
      <use xlink:href="#DejaVuSans-41" transform="translate(154.123047 0)"/>
      <use xlink:href="#DejaVuSans-45" transform="translate(222.53125 0)"/>
      <use xlink:href="#DejaVuSans-52" transform="translate(285.714844 0)"/>
      <use xlink:href="#DejaVuSans-4f" transform="translate(355.197266 0)"/>
      <use xlink:href="#DejaVuSans-52" transform="translate(433.908203 0)"/>
      <use xlink:href="#DejaVuSans-41" transform="translate(499.390625 0)"/>
      <use xlink:href="#DejaVuSans-4e" transform="translate(567.798828 0)"/>
      <use xlink:href="#DejaVuSans-43" transform="translate(642.603516 0)"/>
      <use xlink:href="#DejaVuSans-48" transform="translate(712.427734 0)"/>
      <use xlink:href="#DejaVuSans-4f" transform="translate(787.623047 0)"/>
     </g>
    </g>
   </g>
  </g>
 </g>
 <defs>
  <clipPath id="p988e4f403d">
   <rect x="90" y="216.04562" width="558" height="440.548759"/>
  </clipPath>
 </defs>
</svg>
