<?xml version="1.0" encoding="utf-8" standalone="no"?>
<!DOCTYPE svg PUBLIC "-//W3C//DTD SVG 1.1//EN"
  "http://www.w3.org/Graphics/SVG/1.1/DTD/svg11.dtd">
<svg xmlns:xlink="http://www.w3.org/1999/xlink" width="720pt" height="864pt" viewBox="0 0 720 864" xmlns="http://www.w3.org/2000/svg" version="1.1">
 <metadata>
  <rdf:RDF xmlns:dc="http://purl.org/dc/elements/1.1/" xmlns:cc="http://creativecommons.org/ns#" xmlns:rdf="http://www.w3.org/1999/02/22-rdf-syntax-ns#">
   <cc:Work>
    <dc:type rdf:resource="http://purl.org/dc/dcmitype/StillImage"/>
    <dc:date>2025-06-16T17:49:28.272630</dc:date>
    <dc:format>image/svg+xml</dc:format>
    <dc:creator>
     <cc:Agent>
      <dc:title>Matplotlib v3.10.1, https://matplotlib.org/</dc:title>
     </cc:Agent>
    </dc:creator>
   </cc:Work>
  </rdf:RDF>
 </metadata>
 <defs>
  <style type="text/css">*{stroke-linejoin: round; stroke-linecap: butt}</style>
 </defs>
 <g id="figure_1">
  <g id="patch_1">
   <path d="M 0 864 
L 720 864 
L 720 0 
L 0 0 
z
" style="fill: #ffffff"/>
  </g>
  <g id="axes_1">
   <g id="patch_2">
    <path d="M 188.419012 768.96 
L 549.580988 768.96 
L 549.580988 103.68 
L 188.419012 103.68 
z
" style="fill: #ffffff"/>
   </g>
   <g id="PatchCollection_1">
    <path d="M 493.596019 278.932438 
L 493.331084 279.837527 
L 494.033358 280.105757 
L 493.90539 281.663952 
L 493.715882 281.865701 
L 493.468922 282.519 
L 493.10587 282.635532 
L 492.815326 283.095 
L 492.317929 283.929431 
L 492.221502 284.13541 
L 491.751984 284.375177 
L 491.487913 284.275964 
L 491.151371 284.533892 
L 489.933161 284.426981 
L 489.376318 284.267469 
L 489.001509 283.938332 
L 488.792163 283.995285 
L 488.221596 284.397911 
L 487.412784 285.224139 
L 486.954577 285.130119 
L 486.288489 285.912722 
L 486.560101 286.678267 
L 485.47666 287.355042 
L 483.495694 288.084642 
L 483.041069 287.985062 
L 483.226808 290.562527 
L 482.868409 292.351651 
L 483.381789 292.981046 
L 483.268012 294.891481 
L 483.349759 295.343987 
L 483.615493 295.999939 
L 483.392742 296.528393 
L 483.634113 297.300204 
L 482.866135 298.565599 
L 482.221584 299.718003 
L 471.701255 303.999061 
L 442.406547 315.913058 
L 442.475462 315.713613 
L 444.184537 311.239368 
L 445.469701 307.840397 
L 446.780166 304.388056 
L 448.151759 300.806359 
L 449.437591 297.408112 
L 450.727246 294.031509 
L 452.096487 290.602692 
L 493.596019 278.932438 
" clip-path="url(#pa4df053af0)" style="fill: #b3e2cd; fill-opacity: 0.65"/>
   </g>
   <g id="PatchCollection_2">
    <path d="M 518.280625 133.92 
L 518.644051 135.433186 
L 518.440878 135.738145 
L 518.688533 136.076631 
L 518.708625 136.530304 
L 518.904511 136.721963 
L 519.494768 136.74345 
L 519.503034 136.910498 
L 519.386105 137.155297 
L 519.571234 137.595711 
L 519.524278 137.780209 
L 519.231881 138.29734 
L 519.303588 138.854274 
L 519.202685 139.040747 
L 518.937833 139.201729 
L 519.067059 139.517551 
L 519.372989 139.641636 
L 519.936325 139.495014 
L 520.033993 139.973805 
L 520.216981 140.049539 
L 520.05016 140.463927 
L 519.835969 140.683575 
L 519.869006 141.015403 
L 520.540017 141.637059 
L 520.688714 142.088878 
L 520.81908 142.971262 
L 521.134054 143.701818 
L 521.481732 143.911837 
L 521.689995 143.699056 
L 521.861918 143.721921 
L 522.292847 144.107477 
L 522.785914 144.707056 
L 523.054886 144.675967 
L 523.547445 145.167665 
L 523.41907 145.169176 
L 522.957859 144.929168 
L 522.607612 145.042897 
L 521.842356 145.768712 
L 521.749798 146.144587 
L 521.951585 147.13061 
L 522.15104 147.373174 
L 521.767333 148.122652 
L 521.837646 148.913569 
L 521.347894 149.717673 
L 521.181865 150.13275 
L 522.23952 150.317903 
L 522.097852 151.01332 
L 522.217532 151.891904 
L 522.585699 152.17716 
L 522.85064 152.037842 
L 522.970327 152.204153 
L 522.984497 153.446095 
L 522.913724 153.86236 
L 522.983091 154.322876 
L 523.348161 154.34101 
L 523.707086 154.216863 
L 523.785507 154.497405 
L 524.024669 154.821886 
L 524.393706 154.992843 
L 524.931071 155.660932 
L 525.338859 155.869324 
L 525.679563 156.1809 
L 526.033252 155.98658 
L 526.057685 155.795167 
L 526.086451 155.812181 
L 526.745415 157.167055 
L 527.17266 157.237446 
L 527.502839 157.155551 
L 527.600064 157.279636 
L 527.610262 157.59446 
L 527.523942 159.060365 
L 527.660976 159.486252 
L 527.982817 159.855001 
L 528.318246 159.765776 
L 528.566022 160.047507 
L 528.474073 160.399769 
L 528.748683 160.625597 
L 529.863061 160.881204 
L 529.820874 160.930089 
L 529.448106 161.095837 
L 529.107289 161.065138 
L 528.822245 161.318957 
L 528.870819 161.980405 
L 529.524134 163.396712 
L 529.129057 163.777951 
L 529.208341 164.164537 
L 529.556088 164.780724 
L 529.54378 165.078544 
L 529.749057 165.392649 
L 530.072876 165.668195 
L 530.645509 165.787768 
L 530.386706 166.79093 
L 530.478753 167.529488 
L 530.337124 167.917554 
L 530.33956 168.393093 
L 530.500578 168.843666 
L 531.20427 169.796322 
L 531.360543 170.154027 
L 531.31989 170.528268 
L 531.627689 170.862598 
L 532.09522 170.948754 
L 532.582819 170.577863 
L 532.602589 170.743781 
L 532.9981 172.04583 
L 532.784484 172.469894 
L 532.956458 173.267619 
L 532.658465 174.077778 
L 532.46527 174.614568 
L 532.217948 174.613485 
L 531.728482 174.359 
L 531.359186 174.839906 
L 531.405933 175.509147 
L 531.690083 175.902595 
L 531.667693 176.171394 
L 531.52265 176.340718 
L 530.925195 176.502668 
L 530.930993 176.867468 
L 531.13252 177.111291 
L 531.409833 177.150025 
L 532.072837 177.717532 
L 532.568861 177.713968 
L 532.610266 177.72974 
L 532.702765 177.96926 
L 533.143441 178.058467 
L 533.148925 178.480244 
L 532.946963 178.945025 
L 531.899254 180.180454 
L 531.494213 180.732152 
L 530.958238 181.093104 
L 529.906356 182.653529 
L 528.086469 183.098507 
L 527.598962 183.824437 
L 527.017619 184.722177 
L 527.030863 185.053513 
L 526.876843 185.352709 
L 526.506466 187.139837 
L 526.296507 187.328198 
L 525.423095 187.293996 
L 525.117783 187.463285 
L 523.90484 187.64371 
L 523.808772 188.355251 
L 523.95726 189.592594 
L 523.868423 190.19558 
L 523.716812 193.103799 
L 523.57526 193.643302 
L 523.928589 194.198744 
L 524.50087 194.286 
L 524.771748 194.158385 
L 525.384233 195.654997 
L 525.381558 195.974958 
L 525.491556 196.304274 
L 525.789432 196.591247 
L 526.333843 196.885268 
L 526.687278 197.736483 
L 526.62373 197.971396 
L 526.708611 198.206205 
L 526.634844 198.354088 
L 526.050464 198.709564 
L 525.872279 198.88227 
L 525.713581 198.826296 
L 525.360718 198.828246 
L 525.4503 199.5394 
L 525.76555 200.28153 
L 525.382856 201.070447 
L 525.181681 201.168713 
L 525.069447 201.524608 
L 525.101666 201.805648 
L 524.981023 201.93901 
L 524.44812 201.988586 
L 524.234742 202.313936 
L 524.507009 202.602589 
L 524.533208 202.874562 
L 524.076034 203.469382 
L 524.85436 204.125941 
L 524.868603 204.543375 
L 524.843949 205.366921 
L 524.748592 205.702782 
L 524.952653 206.647762 
L 525.131643 206.90015 
L 525.25135 206.996758 
L 524.802699 207.525789 
L 524.347561 207.91185 
L 523.980711 208.820133 
L 523.826161 209.155438 
L 523.622777 209.065915 
L 523.397384 209.143275 
L 523.082209 209.485196 
L 521.707763 210.937067 
L 521.433757 211.440813 
L 521.419273 212.445395 
L 521.613339 212.807751 
L 522.258682 212.927919 
L 522.65467 212.734477 
L 522.918236 212.563862 
L 522.938669 212.599091 
L 522.684289 213.215563 
L 522.203582 213.849434 
L 521.224559 214.388138 
L 520.93998 214.740195 
L 519.723138 215.149533 
L 518.544068 214.798624 
L 518.589474 214.735875 
L 518.955138 214.573457 
L 519.271703 214.644253 
L 519.349422 214.169879 
L 518.31175 213.809686 
L 517.079352 213.775897 
L 516.644713 213.864714 
L 516.536807 213.790821 
L 515.930518 213.805065 
L 515.530644 213.935095 
L 515.382344 214.130083 
L 515.75743 215.238831 
L 515.77941 215.580844 
L 515.430858 216.067264 
L 514.922972 216.116635 
L 514.681689 216.43895 
L 514.638532 216.795529 
L 514.814104 217.39574 
L 514.445374 217.550352 
L 514.191846 217.494903 
L 513.892048 217.680353 
L 513.370677 218.3835 
L 513.235469 218.783947 
L 513.474675 219.105227 
L 513.146636 219.503519 
L 512.486622 220.13077 
L 511.608165 222.066746 
L 511.694696 222.471346 
L 512.201834 222.95277 
L 512.669086 223.323154 
L 514.470868 224.294645 
L 514.283629 224.907093 
L 513.877513 225.779298 
L 513.633431 225.928729 
L 513.410745 226.289823 
L 513.745837 226.592346 
L 513.530574 226.937976 
L 513.09276 227.284038 
L 512.176039 227.281821 
L 511.263638 228.180232 
L 510.778051 228.776128 
L 510.752828 229.091235 
L 511.116825 229.814086 
L 512.408927 230.477039 
L 512.618816 230.701055 
L 512.95162 230.80559 
L 513.372303 230.773618 
L 513.356875 230.810507 
L 512.548114 231.606032 
L 512.582499 231.87928 
L 513.19901 232.040118 
L 513.71275 232.047394 
L 513.355581 232.568418 
L 513.071629 232.660919 
L 512.880578 232.471556 
L 512.576225 232.440669 
L 512.503416 232.75776 
L 512.599393 233.304531 
L 512.468174 233.62783 
L 512.251843 233.719297 
L 512.050152 233.630801 
L 511.369263 233.021489 
L 511.109229 233.106118 
L 510.016064 233.984045 
L 510.653427 234.617361 
L 510.777468 235.195477 
L 510.628433 235.276164 
L 509.526166 235.732307 
L 508.094849 236.150405 
L 507.778657 236.25454 
L 506.037325 236.345835 
L 505.971997 236.267654 
L 505.271518 236.417451 
L 504.422644 237.352518 
L 504.052101 237.620149 
L 504.044147 237.815026 
L 504.509633 238.363917 
L 504.712898 238.532899 
L 505.087788 238.797783 
L 505.28046 239.174477 
L 505.204628 239.45522 
L 505.049601 239.440627 
L 504.893289 239.581944 
L 504.838771 240.119634 
L 505.161436 241.731465 
L 505.556019 242.95421 
L 505.494342 243.279802 
L 505.377695 243.595556 
L 505.066573 245.087888 
L 504.496546 245.504789 
L 504.404297 245.662493 
L 503.66594 247.884248 
L 503.659227 248.017909 
L 503.887793 248.377468 
L 504.071495 248.606719 
L 504.091392 248.758538 
L 503.934556 249.208583 
L 503.60871 249.833397 
L 503.378142 250.394976 
L 503.159129 250.719382 
L 502.369296 251.381351 
L 501.95269 252.01667 
L 502.057093 252.554171 
L 502.076445 253.164096 
L 501.768399 253.354218 
L 501.432385 253.52125 
L 501.30648 253.921362 
L 501.354373 254.213091 
L 501.605921 254.447274 
L 501.808233 254.511131 
L 501.634705 254.729341 
L 501.391178 254.937113 
L 501.391019 255.301787 
L 501.4876 255.481136 
L 501.295783 255.810058 
L 501.343269 256.208403 
L 501.5747 256.761025 
L 500.82194 257.16637 
L 500.781841 257.045814 
L 500.594045 256.94713 
L 500.305336 257.211572 
L 500.199692 257.679585 
L 499.862068 258.12198 
L 499.902614 257.977717 
L 499.727891 257.823225 
L 499.291847 258.028602 
L 498.398877 258.73555 
L 498.753064 259.539106 
L 498.356151 260.030807 
L 496.73375 261.201709 
L 496.683267 261.965361 
L 496.831784 262.266779 
L 497.096733 262.589148 
L 497.003405 262.70638 
L 496.478056 262.666267 
L 495.057126 262.182318 
L 494.983964 261.624004 
L 494.843909 261.502127 
L 494.049687 261.308039 
L 493.383118 261.430581 
L 492.141853 261.941556 
L 491.728352 262.007443 
L 491.517529 262.323714 
L 491.372329 262.811602 
L 491.202076 264.361711 
L 491.28861 264.555834 
L 491.83755 264.781488 
L 491.605949 265.394643 
L 491.457467 266.863738 
L 491.317568 267.180591 
L 491.534742 267.477317 
L 491.947872 267.763837 
L 491.779188 268.400718 
L 491.471678 269.060285 
L 491.188891 269.577396 
L 491.298892 270.690752 
L 491.429935 270.758045 
L 491.838739 271.179376 
L 491.95681 272.037669 
L 492.262965 272.367337 
L 492.414673 272.534174 
L 492.364861 272.700431 
L 492.611084 272.990558 
L 493.363181 273.135052 
L 493.741371 273.552888 
L 493.634644 273.978135 
L 493.121938 275.252052 
L 493.137209 275.57571 
L 492.984531 275.840609 
L 493.074272 276.689796 
L 493.357454 277.207204 
L 494.214004 277.92921 
L 493.925263 278.662755 
L 493.193316 279.50719 
L 493.252182 279.837687 
L 493.552445 280.022667 
L 493.925135 280.133713 
L 494.047527 280.268399 
L 494.070391 280.613394 
L 493.940032 281.141662 
L 493.781267 281.834391 
L 493.451757 282.10483 
L 493.222042 282.60736 
L 492.900602 282.752051 
L 492.750226 283.066364 
L 492.693108 283.839518 
L 492.256996 283.92749 
L 492.088018 284.266304 
L 492.037631 284.500656 
L 491.7632 284.453748 
L 491.559696 284.21196 
L 491.338347 284.283682 
L 490.952695 284.556657 
L 490.433532 284.473437 
L 490.00911 284.384192 
L 489.682632 284.411593 
L 488.83253 283.907059 
L 488.69258 283.918278 
L 487.755549 284.761421 
L 487.689858 284.955393 
L 487.297429 285.194646 
L 486.836522 285.134221 
L 486.441655 285.465526 
L 486.260967 285.986594 
L 486.558217 286.792699 
L 486.433146 286.823546 
L 486.127558 286.883996 
L 485.705632 287.190833 
L 483.483871 288.184967 
L 483.272204 288.056079 
L 483.031987 288.041323 
L 482.962252 288.462275 
L 483.101793 289.141769 
L 483.056439 289.813942 
L 483.337938 290.769513 
L 483.455576 291.018034 
L 483.417743 291.166197 
L 482.860674 291.65782 
L 482.79846 292.0742 
L 483.065282 292.76355 
L 483.43669 293.288116 
L 483.433413 293.990171 
L 483.266621 294.762553 
L 483.31124 295.486818 
L 483.522283 296.170795 
L 483.315154 296.568689 
L 483.566229 297.345138 
L 483.517807 297.55771 
L 482.35881 299.433238 
L 482.209687 300.515067 
L 482.508899 300.788329 
L 482.849326 300.998267 
L 482.85407 301.150174 
L 482.519544 301.666036 
L 482.614791 301.958769 
L 482.897998 302.334032 
L 482.849872 302.636369 
L 482.070204 303.04597 
L 481.597409 302.607774 
L 481.313724 302.764671 
L 481.233202 303.035194 
L 481.405467 303.88453 
L 481.992757 305.52207 
L 482.097609 305.597576 
L 482.260671 306.243407 
L 481.893822 308.173303 
L 481.442593 308.936464 
L 480.905926 309.330445 
L 479.92471 309.019164 
L 479.490083 309.145867 
L 479.088545 309.556823 
L 477.886588 309.991451 
L 477.438753 310.502288 
L 477.263321 310.480994 
L 476.863639 310.548487 
L 475.968586 311.79623 
L 475.689208 312.021683 
L 475.646841 312.410468 
L 475.845717 312.696051 
L 475.626147 313.35438 
L 476.124927 313.784378 
L 475.626561 314.339028 
L 476.029581 314.895302 
L 476.437432 315.103994 
L 476.489767 315.322249 
L 477.009139 316.34291 
L 477.656113 316.619897 
L 477.917339 316.551008 
L 478.247843 316.07034 
L 478.268153 315.85405 
L 478.169245 315.571284 
L 478.222994 315.56966 
L 478.399653 315.736664 
L 478.476676 316.547196 
L 478.883276 316.822259 
L 478.741634 317.394635 
L 479.143712 318.6838 
L 479.130741 318.806557 
L 479.268976 319.389636 
L 479.097033 319.839522 
L 478.419588 320.368177 
L 477.974539 320.904584 
L 477.061969 320.391878 
L 476.801086 320.779123 
L 476.979605 321.567253 
L 477.203238 321.894839 
L 477.038083 322.046212 
L 476.634482 322.003183 
L 476.661092 322.408829 
L 476.966211 322.827013 
L 477.335917 323.555301 
L 478.184391 324.194339 
L 478.861029 324.900247 
L 478.370932 325.278485 
L 478.355216 325.601284 
L 479.291592 326.443047 
L 479.653004 327.037302 
L 480.19782 326.948972 
L 480.503966 326.919024 
L 480.501521 326.949285 
L 480.697847 327.397994 
L 481.121971 327.883451 
L 483.295178 328.712732 
L 483.152983 329.861865 
L 483.257465 330.478358 
L 482.953473 330.576408 
L 482.735631 331.223739 
L 483.683854 332.275875 
L 484.253388 331.862805 
L 484.258499 331.870265 
L 484.232397 332.144668 
L 484.708852 332.472009 
L 484.874754 333.066829 
L 485.681643 333.677228 
L 485.969893 333.53031 
L 486.148439 333.668309 
L 486.326584 334.036505 
L 486.44697 333.960711 
L 486.465443 334.011644 
L 486.445939 334.225299 
L 486.261486 334.470648 
L 485.806459 334.390512 
L 485.497052 334.783525 
L 485.745396 335.122613 
L 486.294135 335.665374 
L 486.113463 336.288928 
L 486.256805 336.567184 
L 486.560697 336.856157 
L 486.944687 336.990735 
L 486.846776 337.368761 
L 487.060048 338.885257 
L 486.881094 339.045094 
L 486.553731 339.741415 
L 486.372538 340.139585 
L 486.390509 340.348607 
L 486.267521 340.739084 
L 486.450803 341.16736 
L 487.092773 341.215268 
L 487.320905 341.459166 
L 487.458798 341.664501 
L 487.429893 343.091609 
L 487.660502 343.418283 
L 488.372579 343.494168 
L 488.736552 343.488045 
L 488.88939 344.137637 
L 489.292484 344.294716 
L 489.044216 344.626966 
L 489.123752 344.927922 
L 489.550686 345.194409 
L 489.566001 345.294059 
L 489.428249 345.596697 
L 489.633438 346.202703 
L 489.905951 346.337425 
L 490.388322 346.355239 
L 490.572896 346.503678 
L 490.675199 346.744946 
L 490.820315 347.517418 
L 490.957563 347.835327 
L 490.563595 348.39007 
L 490.494567 348.333201 
L 490.381051 348.055802 
L 490.140422 347.987398 
L 489.878871 348.097567 
L 487.886917 349.625772 
L 487.551077 350.082938 
L 486.801703 350.488245 
L 485.527068 351.692465 
L 485.24008 351.628101 
L 485.145584 351.937807 
L 485.141659 352.488761 
L 484.767599 352.720932 
L 484.886635 353.421481 
L 484.197561 354.24349 
L 483.451643 355.071931 
L 483.723475 355.727584 
L 483.414834 355.798914 
L 483.482651 356.481259 
L 484.022737 356.977122 
L 484.253309 357.328445 
L 484.354925 357.701665 
L 484.152845 358.182451 
L 484.281 358.358423 
L 484.196056 358.674908 
L 484.361664 359.574555 
L 484.025101 360.434562 
L 484.54239 361.596213 
L 485.172405 361.86238 
L 485.050888 362.121939 
L 484.72687 362.386412 
L 485.142359 363.087143 
L 485.265749 363.644399 
L 485.211308 363.841139 
L 485.502127 364.651588 
L 485.367689 365.00513 
L 484.915273 365.618914 
L 484.933109 366.749642 
L 484.733059 367.824153 
L 485.132284 367.865674 
L 485.387219 368.032584 
L 485.496751 368.375323 
L 485.29533 369.712588 
L 485.824263 370.088857 
L 485.985168 370.036408 
L 485.992972 370.067375 
L 485.586863 370.508822 
L 485.452363 370.831411 
L 485.458071 371.278747 
L 485.399064 371.220749 
L 485.341212 371.152665 
L 485.339422 370.939431 
L 485.134643 370.48578 
L 484.710741 371.070839 
L 484.56943 370.989537 
L 484.350208 371.304179 
L 484.255679 371.75833 
L 484.546496 371.988013 
L 484.321346 372.629483 
L 483.973933 372.524428 
L 483.715917 372.748434 
L 483.623597 373.175878 
L 483.729543 373.744682 
L 483.042521 374.989138 
L 481.705946 377.146458 
L 481.753862 377.423629 
L 481.580453 378.298711 
L 481.642238 378.784437 
L 481.192879 380.359247 
L 481.346517 380.427274 
L 481.319511 380.692732 
L 481.097134 381.433139 
L 480.971636 381.489317 
L 480.89958 381.918056 
L 480.219844 383.082384 
L 480.208465 383.334228 
L 478.655467 386.880695 
L 478.372812 387.116231 
L 478.17732 387.33358 
L 477.698386 388.804581 
L 477.554641 389.000356 
L 477.46762 389.321994 
L 476.892856 390.428379 
L 476.755679 390.516749 
L 476.267443 391.129305 
L 475.880733 391.717397 
L 475.903722 392.238248 
L 475.140495 394.271267 
L 474.783732 394.605713 
L 474.631722 394.580102 
L 474.389725 395.129706 
L 474.411309 395.607106 
L 474.298666 395.795599 
L 474.013254 396.418607 
L 473.886251 396.992952 
L 473.695539 397.333774 
L 473.310248 398.139451 
L 473.223036 398.309418 
L 473.238896 398.611408 
L 473.089971 399.594289 
L 473.31369 401.362786 
L 472.522137 402.021327 
L 472.462226 401.703093 
L 472.315984 401.951939 
L 472.102641 401.826707 
L 471.457878 401.741386 
L 469.891853 403.242141 
L 470.018606 403.821877 
L 469.89072 403.995781 
L 469.571921 404.994513 
L 468.397408 406.27965 
L 468.301842 406.594161 
L 468.089606 406.863289 
L 468.032342 407.474672 
L 467.624857 407.75181 
L 466.97618 408.686078 
L 466.479262 409.096949 
L 466.485708 409.185233 
L 466.248694 409.485382 
L 466.259528 409.540658 
L 466.142255 409.576324 
L 466.174769 409.735848 
L 466.144737 409.714699 
L 465.888707 409.697948 
L 465.480135 409.881421 
L 465.132829 410.323059 
L 465.161422 410.508828 
L 464.872845 411.037472 
L 464.906838 411.135667 
L 464.715935 411.633194 
L 464.778238 412.384543 
L 465.026822 412.799768 
L 465.281404 413.174766 
L 464.499074 413.995173 
L 464.313012 414.33485 
L 464.255214 414.547629 
L 464.140372 414.623193 
L 463.707423 414.553493 
L 463.656993 414.972064 
L 463.937162 415.432746 
L 463.466291 416.478075 
L 463.411361 417.924496 
L 462.969176 418.541813 
L 462.955442 418.701366 
L 462.935208 419.176051 
L 462.753441 419.46942 
L 462.590018 420.257379 
L 463.027567 420.307601 
L 463.021748 420.374883 
L 463.163278 421.154466 
L 462.882079 421.503022 
L 462.893861 422.036117 
L 462.008035 422.005698 
L 461.994781 422.151839 
L 460.421207 424.079211 
L 460.385745 424.779363 
L 460.573243 424.841618 
L 460.528047 425.012691 
L 460.270493 424.951108 
L 460.030864 424.928994 
L 459.91066 425.19095 
L 459.938908 425.8104 
L 460.536682 426.510701 
L 460.365659 426.718568 
L 460.038003 427.051558 
L 459.95319 426.96221 
L 459.879662 426.682582 
L 459.425897 426.772758 
L 459.41623 427.320488 
L 459.089581 427.539297 
L 459.069172 428.105005 
L 459.130548 428.364434 
L 459.295156 428.547707 
L 458.862737 428.303863 
L 458.572718 428.734021 
L 458.681637 429.032631 
L 458.909037 429.324814 
L 458.885883 429.958039 
L 459.038103 430.187717 
L 459.417497 430.154378 
L 460.00984 430.281473 
L 459.834787 430.696944 
L 459.736248 431.193034 
L 459.746425 431.542818 
L 459.639064 432.12854 
L 460.179521 432.658725 
L 460.241013 432.856134 
L 460.008498 433.359196 
L 459.877731 433.417304 
L 459.828298 433.72284 
L 460.184982 434.455938 
L 460.151418 435.237257 
L 460.332187 436.173397 
L 460.304315 436.647379 
L 460.822437 437.434657 
L 460.995632 437.535518 
L 461.637891 437.660525 
L 461.497591 437.759771 
L 461.297538 438.201907 
L 461.291556 438.729122 
L 461.075138 439.149904 
L 460.759312 440.784876 
L 460.980402 440.9835 
L 461.365582 441.032252 
L 461.117229 441.348652 
L 461.134601 442.122615 
L 460.922755 442.409507 
L 461.076844 443.299511 
L 460.871285 443.512242 
L 460.571821 443.49701 
L 460.621029 443.808577 
L 460.824795 444.136711 
L 460.669025 444.469333 
L 460.66309 445.031972 
L 460.5322 445.092258 
L 460.631175 445.47465 
L 461.1552 446.529392 
L 461.436492 446.76401 
L 461.884986 448.070244 
L 462.340867 448.45777 
L 462.646549 449.12233 
L 462.60601 449.423642 
L 462.963209 451.37948 
L 462.790884 451.669083 
L 462.502053 452.12481 
L 462.494604 452.955015 
L 462.856231 454.424446 
L 463.64099 456.692438 
L 463.549814 457.209521 
L 463.539349 458.940326 
L 463.683868 459.403623 
L 463.938197 460.558054 
L 464.42954 461.376115 
L 464.437972 461.935341 
L 464.306749 462.173432 
L 463.633066 462.25713 
L 463.294105 462.149886 
L 463.077278 462.102366 
L 462.900433 462.305866 
L 462.710834 463.126446 
L 462.495473 463.520404 
L 462.978347 464.235849 
L 462.903426 464.460517 
L 462.664408 464.584341 
L 462.593327 465.013419 
L 462.63369 465.367385 
L 462.237187 465.821077 
L 462.240146 466.132558 
L 462.276592 466.386322 
L 462.160887 467.105009 
L 462.431608 467.709547 
L 462.507571 467.910193 
L 462.370307 469.01483 
L 462.619372 469.687424 
L 462.892111 469.876857 
L 463.299713 469.709897 
L 463.860418 469.862721 
L 463.834603 470.33384 
L 463.555673 471.220515 
L 463.484528 471.746463 
L 462.990764 472.425126 
L 462.775844 473.44341 
L 462.583839 473.70913 
L 462.445694 474.361858 
L 462.102948 475.19029 
L 461.892848 475.753236 
L 461.495866 476.149147 
L 461.15212 476.713906 
L 461.157606 477.137164 
L 461.08867 478.191601 
L 460.661822 478.408388 
L 460.377068 478.367503 
L 460.241484 478.431677 
L 459.795824 479.086923 
L 459.582083 479.458642 
L 459.318821 479.931837 
L 458.979927 480.578455 
L 459.156626 481.01579 
L 458.494609 481.973276 
L 458.46916 482.303388 
L 458.776891 484.027564 
L 458.012998 486.034836 
L 458.22761 487.101382 
L 458.371129 487.552986 
L 458.308925 487.734801 
L 457.96565 488.157518 
L 457.769075 489.097304 
L 457.729356 490.361812 
L 457.898141 490.890157 
L 457.930174 491.249496 
L 457.571317 492.574965 
L 457.542121 493.448689 
L 457.267846 493.76962 
L 456.926112 495.319584 
L 457.463698 496.042477 
L 457.277633 496.534387 
L 457.230731 497.063702 
L 457.201308 497.200869 
L 457.186083 498.096973 
L 456.931371 498.739962 
L 456.995094 499.029775 
L 456.861833 499.248599 
L 456.95728 499.450658 
L 456.658912 500.224596 
L 456.630642 501.455536 
L 456.826809 502.517118 
L 456.879776 502.709696 
L 456.801983 503.30636 
L 457.01452 503.838226 
L 456.926433 503.965768 
L 456.384843 504.223488 
L 455.849053 504.181092 
L 455.51523 504.471645 
L 455.02835 505.75617 
L 455.04899 506.357146 
L 454.972885 506.718459 
L 454.637475 507.307985 
L 454.557005 507.626529 
L 454.599612 508.910909 
L 454.369248 509.626048 
L 454.319269 510.456054 
L 454.238836 510.571343 
L 454.020058 510.573909 
L 453.860473 510.729286 
L 453.366005 511.796782 
L 453.434843 512.15344 
L 453.610243 512.497803 
L 453.670924 512.707822 
L 453.455852 513.103491 
L 452.479949 513.446472 
L 452.015844 513.995398 
L 452.349042 514.287557 
L 452.05435 514.787854 
L 451.71999 515.598287 
L 451.569897 515.733275 
L 451.190156 516.376708 
L 451.050731 516.534185 
L 450.988204 517.365541 
L 451.088722 517.659666 
L 451.033945 517.884827 
L 450.641874 518.72014 
L 450.774177 519.562184 
L 450.617768 520.386711 
L 450.962004 521.113719 
L 450.627504 522.053118 
L 450.642234 522.641701 
L 450.297035 523.150497 
L 450.081911 523.023182 
L 449.851142 523.155378 
L 449.942055 524.191656 
L 449.997119 524.660977 
L 450.146407 525.560144 
L 449.499253 526.36092 
L 448.974188 526.591715 
L 448.693494 526.97132 
L 448.377487 527.464463 
L 448.41403 528.145258 
L 448.288186 528.648853 
L 448.696208 529.21102 
L 448.884442 529.339088 
L 449.441699 530.769239 
L 449.449232 531.425789 
L 449.670366 531.873761 
L 449.563723 532.467958 
L 449.344731 532.635485 
L 449.358534 533.170186 
L 449.498033 533.280391 
L 449.984796 534.330265 
L 449.921157 536.168832 
L 450.128029 536.145153 
L 449.891253 536.194224 
L 449.52692 536.567364 
L 449.665487 536.748987 
L 449.894798 536.730625 
L 450.102349 537.3738 
L 450.051902 537.475961 
L 450.156746 539.525097 
L 449.895096 540.193169 
L 450.0103 540.437455 
L 450.080303 540.660675 
L 449.958871 540.817956 
L 449.78859 541.256467 
L 449.860142 541.504223 
L 449.647851 542.222945 
L 449.722699 542.595778 
L 450.051961 543.238269 
L 449.837091 543.692285 
L 450.090286 543.943598 
L 450.399622 544.034639 
L 450.603762 544.253759 
L 450.836439 544.26647 
L 450.725767 544.33722 
L 450.689205 544.689778 
L 451.052996 545.454997 
L 450.929985 545.542461 
L 450.918013 545.908364 
L 451.270235 546.162043 
L 451.181172 546.315489 
L 451.084335 546.72422 
L 450.664867 547.079945 
L 450.130918 547.952585 
L 449.109772 549.377308 
L 449.164675 549.932378 
L 449.171553 550.152153 
L 449.348825 550.238242 
L 449.645019 550.231586 
L 449.874108 550.396875 
L 450.154469 550.748205 
L 450.684416 551.817304 
L 450.522065 553.001897 
L 450.361225 553.144315 
L 450.635065 553.571522 
L 450.46854 553.646522 
L 450.244694 553.600009 
L 449.985001 553.768375 
L 450.189588 554.658705 
L 450.348885 554.971628 
L 450.241932 555.061988 
L 450.270873 555.306109 
L 450.663056 555.646761 
L 450.909461 555.696985 
L 450.798962 555.85486 
L 451.031971 556.240147 
L 451.241871 556.61232 
L 451.049252 556.503275 
L 450.772116 556.67413 
L 450.808681 557.044941 
L 450.998785 557.158337 
L 450.957522 557.404158 
L 450.902472 557.528321 
L 451.154649 557.721166 
L 451.25378 557.790711 
L 451.385043 558.104383 
L 451.245483 558.261859 
L 451.314709 558.718711 
L 451.17416 558.675568 
L 451.110917 558.611823 
L 450.719706 558.780053 
L 449.944243 558.931269 
L 448.551607 558.87495 
L 447.799892 559.603066 
L 447.208559 560.010845 
L 447.201414 559.992948 
L 446.941947 559.798022 
L 446.572624 560.140539 
L 446.394216 560.229384 
L 446.334624 560.463475 
L 446.614693 560.731122 
L 446.27896 561.447424 
L 446.309596 561.517756 
L 446.324154 561.772625 
L 445.81826 561.537444 
L 445.306026 561.638485 
L 444.992398 562.354598 
L 444.758197 562.834481 
L 444.379169 563.064057 
L 443.810728 563.055965 
L 443.669702 563.261926 
L 443.11129 563.432458 
L 442.721385 563.270636 
L 442.797938 563.108457 
L 442.751382 562.782106 
L 441.519148 562.511232 
L 441.132408 562.601044 
L 440.933744 562.791302 
L 440.302814 562.980603 
L 439.900714 563.116239 
L 439.630601 563.775915 
L 438.592935 563.843246 
L 438.377888 564.135612 
L 438.386709 564.466132 
L 438.24316 564.50116 
L 437.64004 564.509725 
L 436.997137 564.935036 
L 436.987364 565.686011 
L 436.930988 565.666986 
L 436.829082 565.501019 
L 435.542016 565.293866 
L 435.340722 565.427139 
L 435.110417 565.182392 
L 434.748382 565.458876 
L 434.723505 565.768808 
L 433.053433 566.246885 
L 432.931049 566.180842 
L 431.765547 566.225886 
L 431.352653 566.981796 
L 431.338709 567.002518 
L 431.204765 566.845084 
L 430.876319 566.843173 
L 430.550886 567.165006 
L 430.196588 567.386243 
L 430.183874 567.302417 
L 429.925339 567.21627 
L 429.744073 567.363565 
L 429.699915 567.390532 
L 429.528133 567.524547 
L 429.726741 568.007567 
L 429.517358 568.48611 
L 429.415619 569.050042 
L 428.92011 568.982339 
L 428.914135 569.007203 
L 428.887187 568.975395 
L 428.650478 568.975498 
L 428.525902 569.154659 
L 428.459568 569.273521 
L 428.321776 569.160673 
L 427.812591 569.324968 
L 427.572952 569.423767 
L 427.435765 569.640733 
L 427.42586 570.098578 
L 427.453198 570.684777 
L 427.631799 570.909135 
L 426.934008 571.644868 
L 426.719767 572.444958 
L 426.632936 572.669476 
L 426.342806 573.288515 
L 425.559013 573.939355 
L 425.397218 574.380273 
L 425.412966 574.600524 
L 425.756635 574.977797 
L 425.692138 575.492508 
L 425.283315 575.961477 
L 425.486697 576.334686 
L 426.332841 578.166 
L 426.92621 579.070646 
L 427.61622 581.19592 
L 427.434547 581.313062 
L 427.353381 581.611417 
L 427.015234 581.781324 
L 426.730421 581.722749 
L 426.548982 581.894115 
L 426.73392 582.25972 
L 426.560609 582.99065 
L 426.729405 583.277811 
L 426.751911 583.308465 
L 426.657619 583.327306 
L 426.538341 583.358938 
L 426.253603 583.838473 
L 426.299779 584.003185 
L 426.473229 584.069219 
L 426.792933 584.006004 
L 426.79769 584.194364 
L 427.014059 584.574018 
L 427.051546 584.926031 
L 427.199106 585.059764 
L 427.122947 585.130114 
L 427.086005 585.715611 
L 427.272705 585.998796 
L 427.083404 586.399078 
L 427.265652 586.859254 
L 427.210892 587.00164 
L 427.129037 587.012596 
L 427.012772 587.250009 
L 427.255849 587.495819 
L 427.385938 587.47338 
L 427.564839 587.83989 
L 427.744693 587.896078 
L 427.640066 587.953532 
L 427.520846 588.128346 
L 427.808423 589.044304 
L 427.875347 589.438333 
L 428.237911 589.433323 
L 428.520227 589.374961 
L 428.535245 589.678438 
L 428.166476 590.808951 
L 428.258307 591.289237 
L 428.360185 591.702939 
L 428.240094 592.030335 
L 428.708254 592.520427 
L 428.943245 593.230045 
L 428.954847 593.531451 
L 428.974098 593.595228 
L 428.882849 593.86158 
L 428.930233 594.16684 
L 429.324189 594.60405 
L 429.545173 595.192582 
L 429.742115 595.256024 
L 429.79237 595.492737 
L 430.512161 595.653971 
L 431.231276 596.509908 
L 431.161982 596.565714 
L 431.190869 596.830699 
L 431.353098 597.043559 
L 431.267206 597.31061 
L 431.522912 597.981863 
L 431.406941 598.010178 
L 431.336368 598.253415 
L 431.58613 599.05007 
L 431.509334 599.153665 
L 431.592106 599.607337 
L 431.621571 599.86854 
L 431.837352 599.974778 
L 431.783536 600.508197 
L 431.856459 600.694971 
L 431.734272 601.103528 
L 431.841465 601.716939 
L 431.914601 601.73726 
L 431.846291 602.978538 
L 431.757727 603.270575 
L 431.888511 603.478099 
L 431.757416 603.603712 
L 431.419632 603.809047 
L 431.249952 604.314035 
L 431.012101 604.30038 
L 430.888873 604.482868 
L 430.803405 604.706128 
L 430.568033 605.230358 
L 430.618362 605.371921 
L 430.929278 605.558595 
L 430.902416 605.597863 
L 430.857722 605.779131 
L 431.144573 606.554881 
L 431.324813 606.827962 
L 431.3239 606.828533 
L 431.124937 607.036207 
L 431.092227 607.732108 
L 430.913561 608.051479 
L 430.920203 608.210036 
L 430.795099 608.766928 
L 430.420798 609.222787 
L 430.337375 609.97155 
L 430.281851 610.152912 
L 430.360377 610.446999 
L 430.109714 610.686782 
L 429.940234 610.912167 
L 429.922991 611.04454 
L 430.138634 612.037732 
L 429.975856 612.216587 
L 430.26802 613.423157 
L 430.353303 613.817566 
L 430.430561 613.945655 
L 430.442949 614.312291 
L 430.304812 614.364521 
L 430.282662 614.731433 
L 430.534362 615.010502 
L 430.594333 615.003055 
L 430.571196 615.059755 
L 430.484673 615.47056 
L 430.493932 615.689422 
L 430.198395 615.792238 
L 430.149624 616.133303 
L 430.228882 616.229756 
L 430.152213 616.265829 
L 429.401805 616.403737 
L 429.416221 616.723949 
L 429.433319 616.955666 
L 429.40545 617.15829 
L 429.529532 617.414867 
L 429.178352 617.467933 
L 429.040823 618.888938 
L 429.400172 618.913956 
L 429.400312 619.364254 
L 429.281866 619.603381 
L 429.696559 620.583442 
L 430.102013 620.813983 
L 430.125589 621.345719 
L 430.36999 621.513232 
L 430.483774 621.558625 
L 430.38135 621.590864 
L 430.318458 621.750315 
L 430.391826 621.886421 
L 430.759438 622.175695 
L 430.940847 622.089618 
L 431.000706 621.96547 
L 431.030963 622.055864 
L 431.075946 622.367883 
L 431.530036 622.735166 
L 431.664325 623.078084 
L 431.856593 623.15126 
L 432.772206 623.876553 
L 432.941665 623.781624 
L 433.012317 624.025254 
L 434.057761 624.695888 
L 434.130517 624.91327 
L 434.232918 625.010112 
L 434.259151 625.002139 
L 434.348603 625.134149 
L 434.591256 625.090148 
L 434.566872 625.202101 
L 435.388112 626.280398 
L 435.81663 626.029498 
L 436.149525 626.122436 
L 436.343007 626.68672 
L 438.912654 629.578572 
L 440.584794 630.516025 
L 441.597761 630.907426 
L 442.696329 632.014215 
L 443.273792 631.963865 
L 443.936058 632.273298 
L 443.98628 632.239004 
L 444.009624 632.311501 
L 444.238703 632.393567 
L 444.277279 632.666366 
L 444.209209 632.794169 
L 444.302201 632.925839 
L 444.126338 633.565979 
L 444.271809 633.616358 
L 444.272704 633.803449 
L 444.795902 634.94683 
L 445.431192 637.978396 
L 445.17746 638.742538 
L 445.04335 639.007665 
L 444.941829 639.161198 
L 444.155288 641.467215 
L 443.528435 642.709588 
L 443.298039 643.545078 
L 441.559462 647.340556 
L 440.521886 648.446503 
L 440.416643 648.753297 
L 440.137412 648.955888 
L 438.866497 651.10595 
L 437.626342 651.966279 
L 437.430278 652.369762 
L 437.172403 652.608274 
L 436.63957 653.369795 
L 436.279407 653.681702 
L 436.189158 654.012827 
L 435.270483 654.512898 
L 434.540291 655.281706 
L 433.197092 657.633589 
L 429.438478 661.617565 
L 428.301896 662.700454 
L 428.336828 662.907329 
L 428.303416 663.084836 
L 428.206836 663.382815 
L 428.426507 663.563005 
L 428.906461 663.852048 
L 428.884643 663.874014 
L 428.497008 664.520254 
L 428.289719 664.650755 
L 428.019196 665.107389 
L 427.918067 665.284186 
L 427.944145 665.298683 
L 427.874883 665.387274 
L 427.413347 665.871725 
L 427.246313 665.93788 
L 427.042232 666.232433 
L 427.052071 666.387557 
L 426.924714 666.452072 
L 426.880825 666.680686 
L 426.526619 667.482094 
L 425.483437 668.705244 
L 425.530693 668.790629 
L 425.517644 669.161798 
L 424.407769 669.920873 
L 423.132079 670.473835 
L 423.136238 670.56028 
L 422.511051 671.291207 
L 422.252117 671.360383 
L 422.056625 671.573901 
L 421.861897 671.690323 
L 421.668329 671.910952 
L 421.244355 672.244262 
L 420.770114 672.571623 
L 420.615338 672.71965 
L 420.668185 672.859729 
L 420.796913 672.852424 
L 420.457056 673.251475 
L 420.373401 673.181836 
L 419.829283 673.219021 
L 418.745418 673.67193 
L 418.092338 674.147721 
L 417.508781 674.746544 
L 417.164952 675.132974 
L 417.007692 675.663538 
L 416.362057 676.118706 
L 415.544606 676.800961 
L 415.202646 676.655475 
L 415.06497 676.576094 
L 415.15169 676.48353 
L 414.846394 676.248931 
L 414.329291 676.623653 
L 413.95446 676.890448 
L 414.001608 677.085084 
L 414.369089 677.350763 
L 414.554284 677.554165 
L 414.330076 677.755582 
L 413.925994 678.166186 
L 413.776195 678.274097 
L 413.668438 678.39585 
L 413.512998 678.530573 
L 413.345908 678.731648 
L 413.178566 679.001046 
L 412.818429 679.272111 
L 412.422865 679.641003 
L 412.372125 679.587363 
L 412.257059 679.826947 
L 412.188756 679.775908 
L 411.971521 679.967134 
L 411.501015 680.297123 
L 410.717842 681.546544 
L 410.794137 681.647353 
L 410.749497 681.677984 
L 410.559849 681.645953 
L 410.367593 681.718466 
L 409.872486 682.201442 
L 409.686135 682.285086 
L 409.402906 682.577169 
L 408.267172 683.67098 
L 408.234565 683.782225 
L 407.927036 683.857707 
L 407.685965 684.327792 
L 406.481816 685.91829 
L 406.411702 686.249216 
L 406.324315 686.386484 
L 406.157448 686.530236 
L 406.102281 686.689238 
L 406.119192 686.893098 
L 406.011965 686.809304 
L 405.911496 687.04284 
L 405.910152 687.03103 
L 405.739288 686.955931 
L 405.700621 687.296667 
L 405.410911 687.631033 
L 405.218869 688.09583 
L 404.777608 688.553345 
L 404.618704 688.870788 
L 404.400431 689.006636 
L 404.02676 689.528257 
L 403.488678 690.437123 
L 403.391741 690.449645 
L 403.21438 690.482863 
L 403.050899 690.586497 
L 403.014522 690.479236 
L 402.848135 690.333529 
L 402.434534 690.424145 
L 402.346163 690.594195 
L 402.327512 690.571344 
L 402.029049 690.614281 
L 401.47812 691.061358 
L 401.181266 691.318211 
L 400.674795 691.767443 
L 400.09064 692.290337 
L 400.043679 692.394328 
L 399.960826 692.322048 
L 399.681754 692.524369 
L 399.452137 692.630269 
L 399.421337 692.692682 
L 399.477171 693.037627 
L 399.069408 693.27957 
L 398.892141 693.37641 
L 398.574481 693.602607 
L 398.327752 693.438616 
L 398.177215 693.730164 
L 398.171403 693.729006 
L 397.363246 694.174844 
L 397.243611 694.354687 
L 397.321501 694.400935 
L 397.306978 694.421768 
L 397.083301 694.466005 
L 396.632241 694.364287 
L 396.17338 694.940514 
L 395.785965 695.153836 
L 393.140963 696.110148 
L 392.922002 696.296885 
L 392.777461 696.282133 
L 391.890422 696.767109 
L 390.803195 697.239274 
L 390.520018 697.382654 
L 390.471674 697.544877 
L 390.286605 697.500576 
L 390.006758 697.74083 
L 388.5907 698.967053 
L 387.719888 699.428091 
L 387.279669 699.857607 
L 387.19192 699.997734 
L 387.185771 699.993938 
L 386.975124 700.128184 
L 386.450714 700.524619 
L 386.292174 700.604868 
L 385.955154 700.811865 
L 385.781305 700.905952 
L 385.665205 700.973682 
L 385.412689 701.172492 
L 385.302624 701.243559 
L 385.104914 701.459223 
L 384.952407 701.597032 
L 383.99418 702.247938 
L 383.9081 702.353332 
L 383.848261 702.290382 
L 383.264809 702.780341 
L 383.117768 702.974218 
L 382.781671 703.173877 
L 382.618372 703.398441 
L 382.417672 703.41119 
L 382.152234 703.625789 
L 381.184743 704.709647 
L 381.013729 704.702971 
L 380.284671 705.243621 
L 379.870321 705.61701 
L 379.65842 705.747923 
L 379.288606 706.088966 
L 379.308041 706.383165 
L 379.035904 706.529309 
L 378.772351 706.872072 
L 378.544616 707.101193 
L 378.488627 707.156556 
L 378.478684 707.114348 
L 378.254376 707.234457 
L 377.85843 707.795314 
L 377.561168 707.959055 
L 376.557286 708.825924 
L 375.987203 709.291479 
L 375.676009 709.780525 
L 375.132721 710.455233 
L 374.282226 711.45965 
L 374.089764 711.561483 
L 373.328022 712.227455 
L 373.130404 712.498136 
L 372.996338 712.592302 
L 372.670739 713.30474 
L 372.501473 714.589671 
L 372.344458 715.693159 
L 372.090273 716.072505 
L 371.811882 716.414311 
L 371.660732 716.603358 
L 371.493464 716.389534 
L 367.457519 738.72 
L 299.473906 738.56116 
L 298.647833 733.891155 
L 298.671084 733.521708 
L 299.021887 732.345398 
L 299.606559 731.504733 
L 299.494299 731.005534 
L 341.827033 696.916011 
L 297.32293 641.226676 
L 409.42912 616.119242 
L 409.201189 615.707912 
L 383.376182 534.76879 
L 316.670081 562.708878 
L 265.993671 583.737531 
L 205.056154 608.705053 
L 204.835466 608.255305 
L 204.938553 607.778136 
L 205.143346 607.829371 
L 205.636141 608.139672 
L 205.798631 607.404281 
L 205.990939 607.143903 
L 206.326534 607.170164 
L 206.791597 607.451499 
L 207.466369 606.398491 
L 207.967516 606.111106 
L 208.10371 606.240101 
L 208.370615 606.084245 
L 208.490269 605.673723 
L 209.200527 604.938231 
L 209.483515 603.812034 
L 209.939866 603.523147 
L 210.276668 603.061291 
L 210.57351 602.876512 
L 210.958393 602.840656 
L 211.972834 603.202014 
L 212.407779 602.988264 
L 212.287329 601.842503 
L 212.792382 601.370558 
L 213.115127 601.341751 
L 214.394528 601.462175 
L 215.03933 601.110286 
L 216.044385 600.978788 
L 216.490899 601.037666 
L 216.880186 600.592681 
L 217.48427 599.019814 
L 217.78922 598.613804 
L 217.775181 597.942464 
L 217.88206 597.529381 
L 218.048766 597.501519 
L 218.330394 597.80022 
L 218.735299 597.945645 
L 219.008232 597.789565 
L 219.756797 596.905353 
L 220.709138 596.06571 
L 220.87375 595.627448 
L 220.643004 595.054679 
L 220.202423 593.251424 
L 220.543051 592.584253 
L 221.076229 592.025934 
L 221.000758 591.479952 
L 220.624761 590.798919 
L 220.194801 590.35171 
L 219.614378 589.997405 
L 219.566712 589.836902 
L 219.877272 588.821045 
L 220.067559 588.582432 
L 220.1198 588.013411 
L 220.831377 586.715032 
L 220.79223 586.309461 
L 220.461571 585.980022 
L 219.991528 585.990786 
L 220.011921 585.695656 
L 220.381621 585.405026 
L 220.578718 585.090771 
L 220.113563 584.255312 
L 220.203285 583.904313 
L 220.560444 583.699854 
L 221.214847 583.874265 
L 222.005317 583.71213 
L 222.238767 582.971415 
L 222.750337 582.643908 
L 222.869375 582.239223 
L 222.726844 582.094513 
L 223.015651 581.663576 
L 223.863876 582.022608 
L 224.800163 582.738849 
L 224.97699 583.530192 
L 225.329074 583.561174 
L 226.906584 582.852727 
L 227.166564 582.588732 
L 227.135661 581.778866 
L 226.358363 580.631229 
L 226.247013 580.37472 
L 226.449707 579.236823 
L 227.671024 578.62107 
L 227.889165 578.102357 
L 228.313912 577.460621 
L 228.988278 576.375455 
L 229.054553 576.007768 
L 228.910544 575.301573 
L 228.286809 574.869791 
L 227.995664 574.94146 
L 227.912134 575.196759 
L 227.42828 575.780904 
L 227.366128 576.096786 
L 227.607273 576.745008 
L 227.471316 577.044185 
L 227.228549 577.179491 
L 226.869821 577.035349 
L 226.841024 576.892666 
L 226.589357 576.51656 
L 226.399308 575.296101 
L 226.77749 572.530853 
L 227.258294 571.720066 
L 227.217302 570.588506 
L 227.082553 570.089137 
L 226.789685 569.608603 
L 226.365228 569.242465 
L 225.879318 568.242687 
L 225.835028 567.668703 
L 225.842827 566.10487 
L 225.497271 565.254379 
L 225.354744 564.381163 
L 226.069663 564.067607 
L 226.380337 563.890756 
L 226.938423 563.885146 
L 227.103993 563.762701 
L 227.820855 562.972148 
L 228.45774 562.51577 
L 228.991492 562.532559 
L 229.731618 562.595868 
L 229.895426 562.40624 
L 229.787264 562.32456 
L 229.343452 562.169648 
L 229.118128 561.962358 
L 229.365744 561.409789 
L 229.495018 561.30788 
L 230.032208 560.711606 
L 231.751992 559.413248 
L 231.994751 559.144501 
L 232.006616 558.966275 
L 231.754038 558.203391 
L 231.205339 557.029093 
L 231.079538 556.07373 
L 230.04086 554.237479 
L 230.263977 553.940022 
L 231.57506 551.691963 
L 231.940366 550.408445 
L 232.304796 550.106548 
L 233.983093 549.737986 
L 235.531835 548.187751 
L 236.042813 547.70901 
L 237.126836 547.506338 
L 238.581719 547.022063 
L 239.190615 546.616827 
L 239.206417 546.368683 
L 238.608657 545.432023 
L 238.593842 545.039242 
L 239.091073 544.452931 
L 240.124533 544.188554 
L 240.381878 543.736535 
L 240.909696 543.480797 
L 243.588372 543.147937 
L 244.653758 543.269147 
L 245.1125 543.15147 
L 246.690579 541.590128 
L 246.961408 541.605164 
L 247.373084 542.017781 
L 247.60381 542.029961 
L 248.225419 541.458173 
L 248.689113 541.407336 
L 249.039198 541.000946 
L 248.863171 540.723069 
L 248.045281 540.254257 
L 248.107873 539.932293 
L 248.431517 539.61548 
L 249.522354 538.919384 
L 249.994976 538.053049 
L 250.550184 537.551927 
L 251.48801 535.951522 
L 251.637379 535.02588 
L 252.197858 534.732604 
L 252.630934 534.084771 
L 252.617559 533.478198 
L 252.950411 533.65537 
L 253.289006 533.636987 
L 253.53769 533.486196 
L 254.150472 533.592672 
L 254.849779 533.283127 
L 255.289938 532.893584 
L 255.501925 532.520532 
L 255.70004 531.733035 
L 255.64563 531.173585 
L 255.781452 531.086239 
L 256.54191 531.103216 
L 256.833787 530.948291 
L 257.288561 530.993138 
L 257.601148 530.580565 
L 257.549583 530.289944 
L 257.026324 529.171126 
L 257.382189 528.990687 
L 257.570159 529.098355 
L 257.929465 529.492366 
L 258.401747 529.776502 
L 258.743645 529.711808 
L 260.174745 527.907324 
L 260.642649 526.543894 
L 260.32139 525.028957 
L 260.697084 524.214512 
L 261.589247 522.788543 
L 261.689983 522.334612 
L 261.6741 521.765746 
L 261.493753 521.34778 
L 261.607755 520.919906 
L 262.618315 520.342887 
L 264.262695 518.973051 
L 265.98358 517.486928 
L 266.24272 517.384414 
L 267.497426 517.996203 
L 268.133052 518.480318 
L 268.463635 518.56014 
L 270.070664 517.85071 
L 270.482475 517.388619 
L 270.645329 516.920856 
L 270.627864 516.431085 
L 270.220562 516.36586 
L 268.048844 517.024912 
L 267.687696 517.002674 
L 267.504141 516.862352 
L 267.379634 516.621415 
L 267.40902 516.398522 
L 267.731758 515.924516 
L 267.755393 515.586743 
L 268.237332 515.148793 
L 268.781521 515.197057 
L 269.405065 515.13398 
L 269.938758 514.867882 
L 270.821996 514.158451 
L 271.982588 512.982916 
L 272.616676 512.938773 
L 272.879752 512.625561 
L 272.978503 511.586515 
L 273.119591 511.300508 
L 273.546322 510.788927 
L 274.279315 510.144908 
L 276.3661 509.110618 
L 277.132343 508.977724 
L 277.339719 508.746218 
L 277.955361 507.26287 
L 278.649708 506.111246 
L 280.202981 505.170055 
L 282.130071 503.489805 
L 282.354042 503.503544 
L 283.313433 503.634777 
L 283.541363 503.427964 
L 283.750979 502.417388 
L 284.113339 502.170556 
L 286.377322 501.463917 
L 287.243404 501.496548 
L 287.585632 501.374272 
L 287.685929 500.987276 
L 287.662667 499.403627 
L 287.470683 498.654347 
L 287.487629 497.590674 
L 287.999881 496.611448 
L 288.790702 495.961226 
L 288.944783 495.710894 
L 288.917177 495.349491 
L 289.056498 495.124687 
L 289.179001 493.285985 
L 289.596373 492.852996 
L 289.844888 493.031637 
L 290.255701 493.14178 
L 290.575414 492.855629 
L 291.610231 489.866717 
L 293.595737 488.697577 
L 293.819923 488.523762 
L 294.441004 487.472109 
L 294.884389 486.969934 
L 295.100021 486.467318 
L 294.900224 485.835296 
L 295.619743 485.205629 
L 296.089363 485.067603 
L 296.912293 485.211984 
L 297.170348 485.02323 
L 297.385074 484.373875 
L 297.452006 483.544066 
L 297.599852 483.084845 
L 297.458834 482.122583 
L 297.491113 481.870002 
L 297.634002 481.671683 
L 298.1603 481.318159 
L 298.481137 480.839639 
L 298.749086 480.79902 
L 299.661463 480.839289 
L 300.239816 480.536442 
L 300.489032 480.277621 
L 300.82941 479.724403 
L 301.091909 478.43388 
L 301.469515 477.174127 
L 302.747124 474.205241 
L 302.212724 473.806392 
L 301.772871 473.126908 
L 301.779617 472.877703 
L 301.938932 472.668302 
L 303.083005 471.658354 
L 303.457601 471.081943 
L 304.078746 470.500393 
L 304.143704 470.204441 
L 304.091353 469.845386 
L 303.692072 469.016401 
L 302.604385 467.832561 
L 302.97872 467.460319 
L 303.502914 466.924046 
L 303.818096 466.849144 
L 304.100091 466.644965 
L 304.241473 466.30873 
L 304.315954 465.743977 
L 305.150812 463.671162 
L 305.041602 463.268179 
L 304.075156 463.13563 
L 303.847584 462.923119 
L 303.919381 462.768646 
L 304.488911 462.422778 
L 305.07866 461.380078 
L 305.432984 459.687391 
L 305.720165 458.78107 
L 306.188546 457.895243 
L 306.213398 457.261932 
L 305.711961 456.856977 
L 305.589791 456.347007 
L 305.745395 455.774881 
L 306.143154 453.775642 
L 306.244416 453.44378 
L 306.168189 452.727573 
L 305.544113 451.485013 
L 304.147725 450.939887 
L 304.082844 450.485538 
L 304.302478 450.054226 
L 304.716408 449.835919 
L 305.287843 450.6464 
L 305.671865 450.646518 
L 305.915417 450.505524 
L 306.101232 450.162975 
L 306.632873 449.641272 
L 306.64155 449.343808 
L 306.455637 448.234132 
L 306.897393 447.085261 
L 307.350157 446.96586 
L 307.610235 446.723221 
L 307.543951 446.330085 
L 307.062516 446.096565 
L 306.990613 445.9124 
L 307.223993 445.397433 
L 307.137099 445.049072 
L 306.70935 444.610707 
L 306.955805 443.720334 
L 306.773362 442.29954 
L 306.870618 442.070383 
L 307.648324 441.297407 
L 308.922637 439.485393 
L 309.356383 439.019394 
L 309.291806 438.675098 
L 309.002369 438.47299 
L 308.465892 438.301818 
L 308.016128 437.975518 
L 307.882037 437.159552 
L 307.975488 436.514022 
L 307.88783 435.668476 
L 307.69774 435.123724 
L 307.371279 434.730884 
L 307.509034 433.605358 
L 308.181815 432.053167 
L 308.889029 431.065072 
L 308.946725 430.314907 
L 308.86545 429.90305 
L 308.354138 429.355239 
L 308.431766 429.13853 
L 308.802474 428.636842 
L 309.77947 427.869263 
L 311.043685 427.077486 
L 311.477121 427.025897 
L 312.821704 426.058448 
L 313.037133 425.804348 
L 313.088284 425.509507 
L 313.216028 422.758734 
L 313.103565 421.311511 
L 313.235362 421.065811 
L 313.810969 420.760632 
L 315.293753 420.204359 
L 315.75467 419.401721 
L 316.090732 418.554652 
L 316.234131 418.558888 
L 319.305525 419.542823 
L 319.564383 419.369066 
L 319.533658 418.568937 
L 319.75101 417.67596 
L 319.681343 417.066152 
L 319.959449 416.105108 
L 320.374531 415.757122 
L 320.952563 415.035455 
L 321.47805 414.771985 
L 321.688576 414.463528 
L 321.056652 414.058296 
L 320.504107 413.905796 
L 320.407546 413.744503 
L 320.454469 413.205013 
L 320.400194 412.982947 
L 320.553989 412.57875 
L 321.018527 411.922962 
L 322.093889 411.23696 
L 322.889123 411.20775 
L 324.557198 411.579395 
L 324.865426 412.025021 
L 325.192888 412.130447 
L 326.50947 411.205167 
L 327.244002 410.52466 
L 327.148487 410.254008 
L 326.964745 410.110972 
L 326.176064 409.71731 
L 325.329767 409.16726 
L 325.236443 408.935016 
L 326.233096 407.892865 
L 326.216316 407.610472 
L 326.81971 406.991681 
L 328.032228 407.231447 
L 328.6629 406.736752 
L 329.374859 406.757657 
L 329.705033 406.920747 
L 330.181676 406.888488 
L 330.125186 406.386013 
L 329.872505 406.105943 
L 330.224699 404.552149 
L 329.82602 404.2119 
L 329.292826 404.220528 
L 328.722731 404.826219 
L 327.759141 405.065876 
L 326.662602 404.519721 
L 326.749234 404.292022 
L 328.340509 403.415058 
L 330.022324 402.139354 
L 330.376431 401.543823 
L 331.0687 401.502659 
L 331.378765 401.190181 
L 331.477994 400.880085 
L 332.746983 400.268084 
L 333.922678 400.412018 
L 334.224379 400.119694 
L 335.006735 398.921799 
L 335.162706 398.903011 
L 335.609786 398.590384 
L 336.515701 398.155455 
L 337.268488 397.942571 
L 337.926765 396.856614 
L 338.034304 396.443589 
L 338.096881 395.612948 
L 337.834892 394.559743 
L 338.051478 394.328209 
L 339.474408 393.719509 
L 340.690204 392.579442 
L 342.067155 391.744788 
L 343.531792 391.57729 
L 343.661921 391.142761 
L 343.633247 390.414857 
L 343.749577 390.090006 
L 344.125387 389.447504 
L 344.199708 388.398272 
L 344.437194 387.522971 
L 344.728091 387.519386 
L 345.284888 388.356469 
L 345.428681 389.048063 
L 345.665986 389.380017 
L 346.529561 389.477111 
L 346.939253 389.320175 
L 348.225777 387.696689 
L 348.041132 387.294467 
L 347.68798 387.17445 
L 347.58623 386.935889 
L 347.676973 386.590801 
L 347.627071 386.186589 
L 347.300813 385.495733 
L 347.173276 384.713498 
L 346.685242 384.300964 
L 346.363886 384.482058 
L 346.05014 384.466678 
L 345.792386 384.266627 
L 345.704546 383.920107 
L 345.731828 382.970274 
L 345.565293 382.672412 
L 345.611905 382.505604 
L 345.853051 382.593157 
L 346.686375 382.661178 
L 347.140814 382.55742 
L 347.649768 381.90627 
L 348.319987 381.411848 
L 348.681796 381.579916 
L 349.514228 382.824118 
L 349.907416 383.121682 
L 350.389821 383.144427 
L 350.727437 382.819265 
L 351.226555 381.717901 
L 351.097869 380.781705 
L 351.29047 380.209286 
L 351.710284 379.534888 
L 352.077694 379.227902 
L 352.947791 378.780687 
L 354.424338 378.344332 
L 355.277048 377.200526 
L 357.169271 375.624653 
L 357.538338 375.127479 
L 357.677137 374.673129 
L 357.609158 374.405527 
L 357.428687 374.228126 
L 356.921673 374.05883 
L 355.133072 373.775264 
L 353.895597 373.124809 
L 353.964827 372.612528 
L 354.288101 372.380186 
L 355.139619 372.293231 
L 356.244352 372.345203 
L 356.802975 372.557374 
L 357.231381 372.214176 
L 357.434126 371.734862 
L 357.128385 371.136345 
L 357.175641 370.722604 
L 357.330202 370.403333 
L 358.165586 370.139217 
L 358.746566 369.653972 
L 359.727804 368.357278 
L 360.29974 366.526954 
L 362.210898 365.103555 
L 362.461115 364.52128 
L 362.482345 363.183492 
L 362.374787 362.890354 
L 361.887657 362.592486 
L 361.621598 362.496408 
L 360.820621 362.503362 
L 359.855495 362.265886 
L 359.764238 361.914776 
L 360.447856 361.145907 
L 361.194899 360.747459 
L 362.030535 360.668129 
L 362.632751 360.410365 
L 364.203237 359.404751 
L 365.280242 358.931925 
L 365.538803 358.859464 
L 366.131594 359.062062 
L 366.515358 359.075623 
L 367.608886 358.383979 
L 367.818362 358.098639 
L 367.856061 357.778649 
L 367.651473 356.369293 
L 368.091741 355.947461 
L 368.398343 355.138088 
L 368.924406 354.376881 
L 368.920653 354.002003 
L 368.777886 353.715899 
L 368.578798 353.566207 
L 368.573864 352.998389 
L 368.420707 352.353442 
L 368.010152 351.772936 
L 367.33921 351.270621 
L 367.559095 350.749492 
L 367.676902 349.821631 
L 367.827214 349.561612 
L 367.830247 349.315375 
L 368.075282 348.801407 
L 368.08978 348.147309 
L 367.836982 347.873575 
L 367.215378 347.521888 
L 367.21652 347.308088 
L 367.689647 346.426396 
L 368.080713 346.106944 
L 368.947239 345.675489 
L 370.028869 345.783185 
L 370.343732 345.736749 
L 370.476406 345.415015 
L 370.342695 344.83557 
L 370.441583 344.763217 
L 370.952266 345.008158 
L 371.293467 344.946761 
L 371.585457 344.624912 
L 371.751087 344.654961 
L 371.905136 344.829774 
L 372.20438 344.951937 
L 373.357273 344.42754 
L 373.271826 344.123677 
L 372.948313 343.84693 
L 373.541799 343.389422 
L 374.361374 343.449192 
L 374.886893 343.19651 
L 375.083477 342.806471 
L 375.199074 341.457532 
L 374.302758 340.588362 
L 374.340842 340.457755 
L 374.568035 340.293965 
L 375.972257 340.135681 
L 376.391921 339.962673 
L 377.324571 339.859316 
L 378.457195 339.375551 
L 378.462296 339.278577 
L 378.980306 338.74661 
L 379.44077 338.17795 
L 379.716651 337.060691 
L 380.713635 335.762117 
L 380.848114 335.332047 
L 380.784751 334.377655 
L 380.637361 333.308904 
L 381.689924 331.726368 
L 381.870506 331.683303 
L 382.487255 331.845106 
L 382.768043 331.748945 
L 383.066694 331.769411 
L 383.535965 331.554768 
L 383.73867 331.332911 
L 383.819255 330.642036 
L 383.739428 330.151784 
L 383.78798 329.531688 
L 383.958689 329.307815 
L 386.020607 328.703777 
L 387.125254 328.77867 
L 387.510127 328.294441 
L 387.953075 327.095556 
L 387.845692 326.821343 
L 387.477176 326.722781 
L 387.056161 326.077392 
L 386.572666 325.415479 
L 386.713498 324.168155 
L 386.611602 323.939579 
L 386.623117 323.768332 
L 386.846816 323.412847 
L 387.040791 323.442947 
L 387.262586 323.291287 
L 388.001671 321.505153 
L 388.451472 321.279685 
L 388.722298 321.315104 
L 389.044751 321.219139 
L 390.000773 320.465782 
L 390.784365 320.773165 
L 390.996842 320.996927 
L 391.595731 321.142051 
L 391.927291 321.047133 
L 392.153062 320.732346 
L 391.896751 319.620152 
L 391.699655 318.673965 
L 391.95162 316.696501 
L 391.737724 316.167796 
L 391.467131 315.634272 
L 391.146552 315.487208 
L 390.499394 314.624683 
L 389.8379 313.482866 
L 388.344304 311.497619 
L 387.918647 311.288196 
L 387.495905 310.716404 
L 387.530473 310.574782 
L 388.684002 309.005151 
L 388.667693 308.577397 
L 388.533117 308.240648 
L 388.527165 307.429675 
L 388.317439 306.597526 
L 388.516867 306.463357 
L 388.950982 306.599427 
L 389.580623 306.670676 
L 390.406924 306.459519 
L 390.578116 306.212943 
L 390.456284 305.769721 
L 390.50001 304.27732 
L 390.852966 304.012667 
L 392.104203 303.800099 
L 392.34427 303.336538 
L 392.210337 303.018478 
L 391.553434 302.365267 
L 391.382331 302.016521 
L 391.423993 301.635546 
L 392.004784 300.872913 
L 392.370241 300.672367 
L 393.544612 300.567853 
L 394.443399 299.97944 
L 395.8063 299.49585 
L 396.562792 298.720733 
L 396.751151 298.761246 
L 396.84065 298.927429 
L 396.708538 299.668416 
L 396.368504 300.357041 
L 396.262268 300.915346 
L 396.385649 302.332892 
L 396.529388 302.59044 
L 397.262904 303.090869 
L 397.872177 303.041228 
L 398.04136 302.379533 
L 398.310919 302.246419 
L 399.124869 302.556937 
L 401.550251 303.9791 
L 402.823142 304.260628 
L 403.02829 304.221727 
L 403.182715 304.040568 
L 403.200351 303.821413 
L 402.573996 302.012033 
L 402.688081 301.677404 
L 402.93419 301.483364 
L 403.690907 301.493396 
L 404.11274 301.621737 
L 404.322901 301.467518 
L 404.3691 301.25656 
L 404.235287 299.798871 
L 403.505261 299.147257 
L 402.490955 299.09944 
L 402.503609 297.908932 
L 403.277177 296.616805 
L 403.273788 295.813517 
L 403.01331 295.569719 
L 402.371862 295.377988 
L 402.151685 295.193884 
L 402.241331 295.11875 
L 402.143765 294.66194 
L 401.878468 294.324584 
L 402.021963 294.140881 
L 402.084626 293.557722 
L 402.008119 293.328859 
L 401.335676 292.589888 
L 400.731568 291.505416 
L 400.039944 290.851465 
L 399.79381 290.836515 
L 398.485043 291.149652 
L 397.411259 290.634309 
L 395.86655 290.290292 
L 395.76036 290.04715 
L 395.707941 289.400015 
L 395.757605 287.995322 
L 396.076582 286.906331 
L 396.334942 286.67472 
L 397.274061 286.552965 
L 397.64939 286.191248 
L 397.585399 285.689223 
L 397.380644 285.317253 
L 397.421685 285.067538 
L 397.700529 284.952098 
L 398.510956 285.235897 
L 399.018237 285.10075 
L 399.607429 284.436937 
L 400.373059 284.746433 
L 400.857745 284.804404 
L 401.161118 284.438294 
L 400.966138 284.072422 
L 400.978374 283.764869 
L 401.251113 283.514252 
L 401.937069 283.134939 
L 401.97542 282.693196 
L 401.809838 282.034594 
L 401.856307 281.744995 
L 402.250168 281.164692 
L 403.097175 280.300893 
L 403.390341 280.250478 
L 403.532791 280.524644 
L 403.835492 281.392628 
L 404.335361 281.541419 
L 405.335105 281.327361 
L 405.780273 280.990882 
L 406.109621 280.555347 
L 406.199023 279.293916 
L 406.351599 279.289182 
L 406.493938 279.506256 
L 407.127579 279.885626 
L 407.438765 279.648609 
L 407.60612 279.312939 
L 408.021102 278.810741 
L 408.131644 278.474382 
L 408.187413 277.288429 
L 408.064178 276.912619 
L 407.336725 275.623622 
L 407.517679 275.489631 
L 408.756707 275.510141 
L 409.764667 275.103832 
L 409.953967 275.351378 
L 411.311364 274.991053 
L 411.50706 274.140704 
L 413.673495 273.83496 
L 415.001807 273.379981 
L 416.133751 272.273906 
L 416.239106 271.617802 
L 416.475896 270.878388 
L 416.706314 267.188581 
L 417.655525 266.184393 
L 418.596826 266.074723 
L 419.119979 265.837083 
L 419.626134 265.790055 
L 420.184804 265.960947 
L 420.717033 265.854699 
L 421.135874 265.454403 
L 421.768462 264.093501 
L 422.10887 263.686399 
L 422.646722 262.328288 
L 422.926348 262.146447 
L 423.216644 262.272552 
L 423.239523 262.684499 
L 423.476894 263.154191 
L 423.912219 263.405997 
L 425.08196 263.613164 
L 425.577445 263.312978 
L 425.411342 262.783243 
L 425.076981 262.365294 
L 424.907229 261.839564 
L 425.001376 261.431859 
L 425.426375 261.136923 
L 425.961368 261.009692 
L 426.555944 261.096152 
L 427.139658 261.383898 
L 427.82795 261.284364 
L 428.45934 260.465692 
L 428.286706 259.424419 
L 428.391604 259.047802 
L 429.386254 258.948404 
L 429.842375 258.509992 
L 430.147245 257.984159 
L 430.047488 257.465331 
L 430.819051 256.802494 
L 431.377349 255.678729 
L 431.567111 255.036309 
L 431.540938 254.436689 
L 431.385419 253.846446 
L 431.440816 253.395673 
L 431.729983 253.396121 
L 432.115108 253.760165 
L 432.96543 253.219911 
L 433.94673 250.801409 
L 434.308779 249.536364 
L 434.204642 248.924211 
L 433.197074 247.75969 
L 431.634779 246.821419 
L 431.39203 246.305638 
L 431.367563 245.648128 
L 432.018084 245.040766 
L 432.364978 244.497355 
L 432.664885 242.747262 
L 433.661883 242.760888 
L 434.62774 241.254661 
L 434.75337 239.84769 
L 434.963522 239.966062 
L 435.531182 240.417581 
L 436.174578 240.613596 
L 436.623712 240.116807 
L 436.627991 239.662036 
L 436.788718 239.490843 
L 437.944871 239.014673 
L 438.196142 238.820954 
L 439.100599 237.85925 
L 439.295966 237.849766 
L 440.002304 238.351411 
L 440.430125 238.406226 
L 440.785031 238.189431 
L 442.467959 236.052189 
L 443.949401 234.56617 
L 444.401734 233.565872 
L 444.570254 232.024618 
L 445.199077 231.485165 
L 445.515217 231.051391 
L 445.872643 230.941669 
L 446.262896 231.297222 
L 447.291957 233.26755 
L 447.893774 233.413937 
L 449.106796 233.249536 
L 449.381809 233.01527 
L 450.477243 232.600496 
L 451.889082 231.849267 
L 451.907062 231.483024 
L 451.804143 231.118961 
L 450.807684 231.018615 
L 450.7869 230.869428 
L 451.22892 229.459488 
L 452.236245 228.542988 
L 452.29826 228.1868 
L 452.015126 227.768404 
L 452.330216 226.908958 
L 452.878967 225.764034 
L 453.003227 225.110699 
L 452.784411 224.630518 
L 452.511825 224.604099 
L 452.0966 224.703747 
L 451.455161 225.308193 
L 451.242522 225.244054 
L 450.329182 224.406378 
L 450.293288 224.118333 
L 450.029667 223.862074 
L 449.027183 223.524863 
L 449.028258 223.375029 
L 449.301515 223.161509 
L 449.702656 223.044528 
L 450.793136 222.949476 
L 452.446555 221.234222 
L 452.791017 221.109449 
L 453.917458 221.201776 
L 454.458079 221.06361 
L 455.079025 220.452126 
L 455.990218 219.792228 
L 457.364157 218.561242 
L 457.490386 217.944593 
L 457.273743 217.021331 
L 456.709071 216.062228 
L 456.791212 215.651278 
L 457.345836 214.634753 
L 457.613814 212.816928 
L 458.716483 211.57156 
L 459.695055 210.771339 
L 460.126376 210.071333 
L 460.491973 208.267098 
L 460.649619 208.082587 
L 461.279956 207.857216 
L 461.679638 207.903464 
L 462.29041 208.235555 
L 462.826531 208.305324 
L 463.460225 208.110908 
L 464.11548 205.429849 
L 463.716841 203.987507 
L 463.937176 201.420521 
L 464.981644 200.219844 
L 465.132186 199.804659 
L 464.510043 198.842485 
L 464.112191 198.734224 
L 463.503316 198.936827 
L 462.927181 198.784445 
L 462.683196 198.186946 
L 462.371369 197.591157 
L 461.506778 196.323471 
L 458.994648 191.524663 
L 459.18051 191.342612 
L 459.41789 191.308887 
L 460.196424 191.690816 
L 460.739503 191.673015 
L 462.879967 190.835823 
L 463.156304 190.533103 
L 463.395919 190.081168 
L 463.20292 189.363962 
L 463.303448 189.350619 
L 463.581956 189.484342 
L 464.27504 189.534217 
L 464.821548 189.063582 
L 464.823244 188.753709 
L 465.090004 188.710862 
L 465.406646 188.779307 
L 465.890119 187.977929 
L 465.874408 186.712719 
L 466.180361 185.823545 
L 466.492049 185.606638 
L 467.03554 185.669991 
L 468.245391 185.193561 
L 468.436252 184.883229 
L 469.053629 183.215972 
L 469.602225 182.585291 
L 469.796896 182.626685 
L 469.911023 182.90077 
L 470.386204 183.675229 
L 470.885913 183.908165 
L 471.359267 183.599946 
L 472.475822 182.388708 
L 472.799593 181.258123 
L 472.944285 181.24199 
L 473.032173 181.487824 
L 473.043695 182.115163 
L 473.577008 182.460733 
L 474.182444 181.99179 
L 474.792398 181.992769 
L 475.437063 182.253586 
L 476.551966 182.550896 
L 477.075121 182.526609 
L 479.281694 181.704087 
L 479.573676 181.162695 
L 480.325549 179.411389 
L 480.299825 178.826213 
L 479.219366 177.713649 
L 478.200039 177.312654 
L 477.562769 176.733955 
L 477.275562 175.85357 
L 477.325446 174.993045 
L 477.235505 173.842456 
L 477.316972 173.27375 
L 477.57338 172.765543 
L 478.640282 172.183113 
L 479.111927 171.796234 
L 480.137433 171.387293 
L 480.560826 171.386323 
L 480.90995 171.681685 
L 481.378384 171.893913 
L 482.939982 171.600781 
L 483.294739 171.210249 
L 482.656781 169.784816 
L 482.443236 167.445865 
L 482.75874 167.372936 
L 483.097553 167.771569 
L 483.712844 168.091242 
L 485.067605 167.149894 
L 485.917723 167.38663 
L 486.812983 167.054934 
L 487.319057 167.02051 
L 487.927004 167.112139 
L 488.776276 166.849142 
L 490.252503 166.078683 
L 491.223529 165.228924 
L 492.279303 164.467355 
L 492.40284 163.169938 
L 492.8156 162.056105 
L 493.131661 161.651163 
L 493.615126 161.253388 
L 494.027464 160.115363 
L 495.599394 160.398598 
L 495.906695 160.123069 
L 496.034293 159.642939 
L 496.006181 158.299403 
L 497.575763 157.744363 
L 498.108919 156.420474 
L 498.129276 155.821505 
L 497.980917 155.252971 
L 497.945047 154.657689 
L 498.1141 154.157107 
L 498.664021 153.955934 
L 499.119358 154.029968 
L 499.757675 154.660441 
L 500.072893 154.476634 
L 500.345265 153.917416 
L 500.44599 153.440333 
L 500.229649 152.960188 
L 500.200913 152.383605 
L 500.516072 151.961915 
L 501.523526 151.673584 
L 501.691167 151.400219 
L 501.355711 149.536488 
L 500.795054 148.883909 
L 500.752322 148.508957 
L 501.85228 146.388918 
L 502.165946 146.10617 
L 503.828978 145.4287 
L 503.910393 145.128819 
L 503.703251 144.933807 
L 502.856187 144.804548 
L 503.010847 144.600747 
L 503.395802 144.492832 
L 503.728518 144.181454 
L 503.817443 143.813489 
L 504.03058 143.483565 
L 505.141632 142.263929 
L 505.395775 141.841443 
L 505.92566 141.764837 
L 506.850344 142.299134 
L 507.260935 142.720674 
L 510.45431 144.7835 
L 510.856606 144.786349 
L 511.227041 144.024596 
L 511.738311 144.058349 
L 512.05325 143.894132 
L 512.741569 143.251675 
L 512.740359 142.808925 
L 512.466499 142.281002 
L 512.179376 141.027257 
L 511.779488 140.390787 
L 511.874205 139.537433 
L 512.063479 139.247933 
L 512.499269 139.155567 
L 513.007485 139.242507 
L 513.354798 139.668979 
L 513.810819 139.592695 
L 514.04203 139.19676 
L 514.09233 138.569292 
L 513.837644 138.217835 
L 513.410271 138.175168 
L 512.647428 138.258853 
L 512.405132 138.12558 
L 512.361869 137.858507 
L 512.673787 137.102501 
L 512.997331 137.169416 
L 514.645923 137.138212 
L 514.960261 136.848572 
L 515.005976 136.590014 
L 514.823212 136.378885 
L 514.864477 136.33688 
L 515.195872 136.194469 
L 515.480806 135.861101 
L 515.976342 134.993733 
L 517.179154 134.33503 
L 518.280625 133.92 
L 518.280625 133.92 
" clip-path="url(#pa4df053af0)" style="fill: none; stroke: #000000; stroke-width: 2"/>
   </g>
   <g id="matplotlib.axis_1">
    <g id="xtick_1">
     <g id="line2d_1">
      <path d="M 205.451877 768.96 
L 205.451877 103.68 
" clip-path="url(#pa4df053af0)" style="fill: none; stroke: #b0b0b0; stroke-width: 0.8; stroke-linecap: square"/>
     </g>
     <g id="line2d_2">
      <defs>
       <path id="m5dafa9c046" d="M 0 0 
L 0 3.5 
" style="stroke: #000000; stroke-width: 0.8"/>
      </defs>
      <g>
       <use xlink:href="#m5dafa9c046" x="205.451877" y="768.96" style="stroke: #000000; stroke-width: 0.8"/>
      </g>
     </g>
     <g id="text_1">
      <!-- 57.65 -->
      <g transform="translate(194.318812 807.501382) rotate(-45) scale(0.1 -0.1)">
       <defs>
        <path id="DejaVuSans-2212" d="M 678 2272 
L 4684 2272 
L 4684 1741 
L 678 1741 
L 678 2272 
z
" transform="scale(0.015625)"/>
        <path id="DejaVuSans-35" d="M 691 4666 
L 3169 4666 
L 3169 4134 
L 1269 4134 
L 1269 2991 
Q 1406 3038 1543 3061 
Q 1681 3084 1819 3084 
Q 2600 3084 3056 2656 
Q 3513 2228 3513 1497 
Q 3513 744 3044 326 
Q 2575 -91 1722 -91 
Q 1428 -91 1123 -41 
Q 819 9 494 109 
L 494 744 
Q 775 591 1075 516 
Q 1375 441 1709 441 
Q 2250 441 2565 725 
Q 2881 1009 2881 1497 
Q 2881 1984 2565 2268 
Q 2250 2553 1709 2553 
Q 1456 2553 1204 2497 
Q 953 2441 691 2322 
L 691 4666 
z
" transform="scale(0.015625)"/>
        <path id="DejaVuSans-37" d="M 525 4666 
L 3525 4666 
L 3525 4397 
L 1831 0 
L 1172 0 
L 2766 4134 
L 525 4134 
L 525 4666 
z
" transform="scale(0.015625)"/>
        <path id="DejaVuSans-2e" d="M 684 794 
L 1344 794 
L 1344 0 
L 684 0 
L 684 794 
z
" transform="scale(0.015625)"/>
        <path id="DejaVuSans-36" d="M 2113 2584 
Q 1688 2584 1439 2293 
Q 1191 2003 1191 1497 
Q 1191 994 1439 701 
Q 1688 409 2113 409 
Q 2538 409 2786 701 
Q 3034 994 3034 1497 
Q 3034 2003 2786 2293 
Q 2538 2584 2113 2584 
z
M 3366 4563 
L 3366 3988 
Q 3128 4100 2886 4159 
Q 2644 4219 2406 4219 
Q 1781 4219 1451 3797 
Q 1122 3375 1075 2522 
Q 1259 2794 1537 2939 
Q 1816 3084 2150 3084 
Q 2853 3084 3261 2657 
Q 3669 2231 3669 1497 
Q 3669 778 3244 343 
Q 2819 -91 2113 -91 
Q 1303 -91 875 529 
Q 447 1150 447 2328 
Q 447 3434 972 4092 
Q 1497 4750 2381 4750 
Q 2619 4750 2861 4703 
Q 3103 4656 3366 4563 
z
" transform="scale(0.015625)"/>
       </defs>
       <use xlink:href="#DejaVuSans-2212"/>
       <use xlink:href="#DejaVuSans-35" transform="translate(83.789062 0)"/>
       <use xlink:href="#DejaVuSans-37" transform="translate(147.412109 0)"/>
       <use xlink:href="#DejaVuSans-2e" transform="translate(211.035156 0)"/>
       <use xlink:href="#DejaVuSans-36" transform="translate(242.822266 0)"/>
       <use xlink:href="#DejaVuSans-35" transform="translate(306.445312 0)"/>
      </g>
     </g>
    </g>
    <g id="xtick_2">
     <g id="line2d_3">
      <path d="M 266.996251 768.96 
L 266.996251 103.68 
" clip-path="url(#pa4df053af0)" style="fill: none; stroke: #b0b0b0; stroke-width: 0.8; stroke-linecap: square"/>
     </g>
     <g id="line2d_4">
      <g>
       <use xlink:href="#m5dafa9c046" x="266.996251" y="768.96" style="stroke: #000000; stroke-width: 0.8"/>
      </g>
     </g>
     <g id="text_2">
      <!-- 57.60 -->
      <g transform="translate(255.863186 807.501382) rotate(-45) scale(0.1 -0.1)">
       <defs>
        <path id="DejaVuSans-30" d="M 2034 4250 
Q 1547 4250 1301 3770 
Q 1056 3291 1056 2328 
Q 1056 1369 1301 889 
Q 1547 409 2034 409 
Q 2525 409 2770 889 
Q 3016 1369 3016 2328 
Q 3016 3291 2770 3770 
Q 2525 4250 2034 4250 
z
M 2034 4750 
Q 2819 4750 3233 4129 
Q 3647 3509 3647 2328 
Q 3647 1150 3233 529 
Q 2819 -91 2034 -91 
Q 1250 -91 836 529 
Q 422 1150 422 2328 
Q 422 3509 836 4129 
Q 1250 4750 2034 4750 
z
" transform="scale(0.015625)"/>
       </defs>
       <use xlink:href="#DejaVuSans-2212"/>
       <use xlink:href="#DejaVuSans-35" transform="translate(83.789062 0)"/>
       <use xlink:href="#DejaVuSans-37" transform="translate(147.412109 0)"/>
       <use xlink:href="#DejaVuSans-2e" transform="translate(211.035156 0)"/>
       <use xlink:href="#DejaVuSans-36" transform="translate(242.822266 0)"/>
       <use xlink:href="#DejaVuSans-30" transform="translate(306.445312 0)"/>
      </g>
     </g>
    </g>
    <g id="xtick_3">
     <g id="line2d_5">
      <path d="M 328.540624 768.96 
L 328.540624 103.68 
" clip-path="url(#pa4df053af0)" style="fill: none; stroke: #b0b0b0; stroke-width: 0.8; stroke-linecap: square"/>
     </g>
     <g id="line2d_6">
      <g>
       <use xlink:href="#m5dafa9c046" x="328.540624" y="768.96" style="stroke: #000000; stroke-width: 0.8"/>
      </g>
     </g>
     <g id="text_3">
      <!-- 57.55 -->
      <g transform="translate(317.407559 807.501382) rotate(-45) scale(0.1 -0.1)">
       <use xlink:href="#DejaVuSans-2212"/>
       <use xlink:href="#DejaVuSans-35" transform="translate(83.789062 0)"/>
       <use xlink:href="#DejaVuSans-37" transform="translate(147.412109 0)"/>
       <use xlink:href="#DejaVuSans-2e" transform="translate(211.035156 0)"/>
       <use xlink:href="#DejaVuSans-35" transform="translate(242.822266 0)"/>
       <use xlink:href="#DejaVuSans-35" transform="translate(306.445312 0)"/>
      </g>
     </g>
    </g>
    <g id="xtick_4">
     <g id="line2d_7">
      <path d="M 390.084997 768.96 
L 390.084997 103.68 
" clip-path="url(#pa4df053af0)" style="fill: none; stroke: #b0b0b0; stroke-width: 0.8; stroke-linecap: square"/>
     </g>
     <g id="line2d_8">
      <g>
       <use xlink:href="#m5dafa9c046" x="390.084997" y="768.96" style="stroke: #000000; stroke-width: 0.8"/>
      </g>
     </g>
     <g id="text_4">
      <!-- 57.50 -->
      <g transform="translate(378.951933 807.501382) rotate(-45) scale(0.1 -0.1)">
       <use xlink:href="#DejaVuSans-2212"/>
       <use xlink:href="#DejaVuSans-35" transform="translate(83.789062 0)"/>
       <use xlink:href="#DejaVuSans-37" transform="translate(147.412109 0)"/>
       <use xlink:href="#DejaVuSans-2e" transform="translate(211.035156 0)"/>
       <use xlink:href="#DejaVuSans-35" transform="translate(242.822266 0)"/>
       <use xlink:href="#DejaVuSans-30" transform="translate(306.445312 0)"/>
      </g>
     </g>
    </g>
    <g id="xtick_5">
     <g id="line2d_9">
      <path d="M 451.629371 768.96 
L 451.629371 103.68 
" clip-path="url(#pa4df053af0)" style="fill: none; stroke: #b0b0b0; stroke-width: 0.8; stroke-linecap: square"/>
     </g>
     <g id="line2d_10">
      <g>
       <use xlink:href="#m5dafa9c046" x="451.629371" y="768.96" style="stroke: #000000; stroke-width: 0.8"/>
      </g>
     </g>
     <g id="text_5">
      <!-- 57.45 -->
      <g transform="translate(440.496306 807.501382) rotate(-45) scale(0.1 -0.1)">
       <defs>
        <path id="DejaVuSans-34" d="M 2419 4116 
L 825 1625 
L 2419 1625 
L 2419 4116 
z
M 2253 4666 
L 3047 4666 
L 3047 1625 
L 3713 1625 
L 3713 1100 
L 3047 1100 
L 3047 0 
L 2419 0 
L 2419 1100 
L 313 1100 
L 313 1709 
L 2253 4666 
z
" transform="scale(0.015625)"/>
       </defs>
       <use xlink:href="#DejaVuSans-2212"/>
       <use xlink:href="#DejaVuSans-35" transform="translate(83.789062 0)"/>
       <use xlink:href="#DejaVuSans-37" transform="translate(147.412109 0)"/>
       <use xlink:href="#DejaVuSans-2e" transform="translate(211.035156 0)"/>
       <use xlink:href="#DejaVuSans-34" transform="translate(242.822266 0)"/>
       <use xlink:href="#DejaVuSans-35" transform="translate(306.445312 0)"/>
      </g>
     </g>
    </g>
    <g id="xtick_6">
     <g id="line2d_11">
      <path d="M 513.173744 768.96 
L 513.173744 103.68 
" clip-path="url(#pa4df053af0)" style="fill: none; stroke: #b0b0b0; stroke-width: 0.8; stroke-linecap: square"/>
     </g>
     <g id="line2d_12">
      <g>
       <use xlink:href="#m5dafa9c046" x="513.173744" y="768.96" style="stroke: #000000; stroke-width: 0.8"/>
      </g>
     </g>
     <g id="text_6">
      <!-- 57.40 -->
      <g transform="translate(502.040679 807.501382) rotate(-45) scale(0.1 -0.1)">
       <use xlink:href="#DejaVuSans-2212"/>
       <use xlink:href="#DejaVuSans-35" transform="translate(83.789062 0)"/>
       <use xlink:href="#DejaVuSans-37" transform="translate(147.412109 0)"/>
       <use xlink:href="#DejaVuSans-2e" transform="translate(211.035156 0)"/>
       <use xlink:href="#DejaVuSans-34" transform="translate(242.822266 0)"/>
       <use xlink:href="#DejaVuSans-30" transform="translate(306.445312 0)"/>
      </g>
     </g>
    </g>
    <g id="text_7">
     <!-- Longitude () -->
     <g transform="translate(336.139844 820.57038) scale(0.1 -0.1)">
      <defs>
       <path id="DejaVuSans-4c" d="M 628 4666 
L 1259 4666 
L 1259 531 
L 3531 531 
L 3531 0 
L 628 0 
L 628 4666 
z
" transform="scale(0.015625)"/>
       <path id="DejaVuSans-6f" d="M 1959 3097 
Q 1497 3097 1228 2736 
Q 959 2375 959 1747 
Q 959 1119 1226 758 
Q 1494 397 1959 397 
Q 2419 397 2687 759 
Q 2956 1122 2956 1747 
Q 2956 2369 2687 2733 
Q 2419 3097 1959 3097 
z
M 1959 3584 
Q 2709 3584 3137 3096 
Q 3566 2609 3566 1747 
Q 3566 888 3137 398 
Q 2709 -91 1959 -91 
Q 1206 -91 779 398 
Q 353 888 353 1747 
Q 353 2609 779 3096 
Q 1206 3584 1959 3584 
z
" transform="scale(0.015625)"/>
       <path id="DejaVuSans-6e" d="M 3513 2113 
L 3513 0 
L 2938 0 
L 2938 2094 
Q 2938 2591 2744 2837 
Q 2550 3084 2163 3084 
Q 1697 3084 1428 2787 
Q 1159 2491 1159 1978 
L 1159 0 
L 581 0 
L 581 3500 
L 1159 3500 
L 1159 2956 
Q 1366 3272 1645 3428 
Q 1925 3584 2291 3584 
Q 2894 3584 3203 3211 
Q 3513 2838 3513 2113 
z
" transform="scale(0.015625)"/>
       <path id="DejaVuSans-67" d="M 2906 1791 
Q 2906 2416 2648 2759 
Q 2391 3103 1925 3103 
Q 1463 3103 1205 2759 
Q 947 2416 947 1791 
Q 947 1169 1205 825 
Q 1463 481 1925 481 
Q 2391 481 2648 825 
Q 2906 1169 2906 1791 
z
M 3481 434 
Q 3481 -459 3084 -895 
Q 2688 -1331 1869 -1331 
Q 1566 -1331 1297 -1286 
Q 1028 -1241 775 -1147 
L 775 -588 
Q 1028 -725 1275 -790 
Q 1522 -856 1778 -856 
Q 2344 -856 2625 -561 
Q 2906 -266 2906 331 
L 2906 616 
Q 2728 306 2450 153 
Q 2172 0 1784 0 
Q 1141 0 747 490 
Q 353 981 353 1791 
Q 353 2603 747 3093 
Q 1141 3584 1784 3584 
Q 2172 3584 2450 3431 
Q 2728 3278 2906 2969 
L 2906 3500 
L 3481 3500 
L 3481 434 
z
" transform="scale(0.015625)"/>
       <path id="DejaVuSans-69" d="M 603 3500 
L 1178 3500 
L 1178 0 
L 603 0 
L 603 3500 
z
M 603 4863 
L 1178 4863 
L 1178 4134 
L 603 4134 
L 603 4863 
z
" transform="scale(0.015625)"/>
       <path id="DejaVuSans-74" d="M 1172 4494 
L 1172 3500 
L 2356 3500 
L 2356 3053 
L 1172 3053 
L 1172 1153 
Q 1172 725 1289 603 
Q 1406 481 1766 481 
L 2356 481 
L 2356 0 
L 1766 0 
Q 1100 0 847 248 
Q 594 497 594 1153 
L 594 3053 
L 172 3053 
L 172 3500 
L 594 3500 
L 594 4494 
L 1172 4494 
z
" transform="scale(0.015625)"/>
       <path id="DejaVuSans-75" d="M 544 1381 
L 544 3500 
L 1119 3500 
L 1119 1403 
Q 1119 906 1312 657 
Q 1506 409 1894 409 
Q 2359 409 2629 706 
Q 2900 1003 2900 1516 
L 2900 3500 
L 3475 3500 
L 3475 0 
L 2900 0 
L 2900 538 
Q 2691 219 2414 64 
Q 2138 -91 1772 -91 
Q 1169 -91 856 284 
Q 544 659 544 1381 
z
M 1991 3584 
L 1991 3584 
z
" transform="scale(0.015625)"/>
       <path id="DejaVuSans-64" d="M 2906 2969 
L 2906 4863 
L 3481 4863 
L 3481 0 
L 2906 0 
L 2906 525 
Q 2725 213 2448 61 
Q 2172 -91 1784 -91 
Q 1150 -91 751 415 
Q 353 922 353 1747 
Q 353 2572 751 3078 
Q 1150 3584 1784 3584 
Q 2172 3584 2448 3432 
Q 2725 3281 2906 2969 
z
M 947 1747 
Q 947 1113 1208 752 
Q 1469 391 1925 391 
Q 2381 391 2643 752 
Q 2906 1113 2906 1747 
Q 2906 2381 2643 2742 
Q 2381 3103 1925 3103 
Q 1469 3103 1208 2742 
Q 947 2381 947 1747 
z
" transform="scale(0.015625)"/>
       <path id="DejaVuSans-65" d="M 3597 1894 
L 3597 1613 
L 953 1613 
Q 991 1019 1311 708 
Q 1631 397 2203 397 
Q 2534 397 2845 478 
Q 3156 559 3463 722 
L 3463 178 
Q 3153 47 2828 -22 
Q 2503 -91 2169 -91 
Q 1331 -91 842 396 
Q 353 884 353 1716 
Q 353 2575 817 3079 
Q 1281 3584 2069 3584 
Q 2775 3584 3186 3129 
Q 3597 2675 3597 1894 
z
M 3022 2063 
Q 3016 2534 2758 2815 
Q 2500 3097 2075 3097 
Q 1594 3097 1305 2825 
Q 1016 2553 972 2059 
L 3022 2063 
z
" transform="scale(0.015625)"/>
       <path id="DejaVuSans-20" transform="scale(0.015625)"/>
       <path id="DejaVuSans-28" d="M 1984 4856 
Q 1566 4138 1362 3434 
Q 1159 2731 1159 2009 
Q 1159 1288 1364 580 
Q 1569 -128 1984 -844 
L 1484 -844 
Q 1016 -109 783 600 
Q 550 1309 550 2009 
Q 550 2706 781 3412 
Q 1013 4119 1484 4856 
L 1984 4856 
z
" transform="scale(0.015625)"/>
       <path id="DejaVuSans-b0" d="M 1600 4347 
Q 1350 4347 1178 4173 
Q 1006 4000 1006 3750 
Q 1006 3503 1178 3333 
Q 1350 3163 1600 3163 
Q 1850 3163 2022 3333 
Q 2194 3503 2194 3750 
Q 2194 3997 2020 4172 
Q 1847 4347 1600 4347 
z
M 1600 4750 
Q 1800 4750 1984 4673 
Q 2169 4597 2303 4453 
Q 2447 4313 2519 4134 
Q 2591 3956 2591 3750 
Q 2591 3338 2302 3052 
Q 2013 2766 1594 2766 
Q 1172 2766 890 3047 
Q 609 3328 609 3750 
Q 609 4169 896 4459 
Q 1184 4750 1600 4750 
z
" transform="scale(0.015625)"/>
       <path id="DejaVuSans-29" d="M 513 4856 
L 1013 4856 
Q 1481 4119 1714 3412 
Q 1947 2706 1947 2009 
Q 1947 1309 1714 600 
Q 1481 -109 1013 -844 
L 513 -844 
Q 928 -128 1133 580 
Q 1338 1288 1338 2009 
Q 1338 2731 1133 3434 
Q 928 4138 513 4856 
z
" transform="scale(0.015625)"/>
      </defs>
      <use xlink:href="#DejaVuSans-4c"/>
      <use xlink:href="#DejaVuSans-6f" transform="translate(53.962891 0)"/>
      <use xlink:href="#DejaVuSans-6e" transform="translate(115.144531 0)"/>
      <use xlink:href="#DejaVuSans-67" transform="translate(178.523438 0)"/>
      <use xlink:href="#DejaVuSans-69" transform="translate(242 0)"/>
      <use xlink:href="#DejaVuSans-74" transform="translate(269.783203 0)"/>
      <use xlink:href="#DejaVuSans-75" transform="translate(308.992188 0)"/>
      <use xlink:href="#DejaVuSans-64" transform="translate(372.371094 0)"/>
      <use xlink:href="#DejaVuSans-65" transform="translate(435.847656 0)"/>
      <use xlink:href="#DejaVuSans-20" transform="translate(497.371094 0)"/>
      <use xlink:href="#DejaVuSans-28" transform="translate(529.158203 0)"/>
      <use xlink:href="#DejaVuSans-b0" transform="translate(568.171875 0)"/>
      <use xlink:href="#DejaVuSans-29" transform="translate(618.171875 0)"/>
     </g>
    </g>
   </g>
   <g id="matplotlib.axis_2">
    <g id="ytick_1">
     <g id="line2d_13">
      <path d="M 188.419012 723.161754 
L 549.580988 723.161754 
" clip-path="url(#pa4df053af0)" style="fill: none; stroke: #b0b0b0; stroke-width: 0.8; stroke-linecap: square"/>
     </g>
     <g id="line2d_14">
      <defs>
       <path id="mbc5ab51010" d="M 0 0 
L -3.5 0 
" style="stroke: #000000; stroke-width: 0.8"/>
      </defs>
      <g>
       <use xlink:href="#mbc5ab51010" x="188.419012" y="723.161754" style="stroke: #000000; stroke-width: 0.8"/>
      </g>
     </g>
     <g id="text_8">
      <!-- 14.1 -->
      <g transform="translate(150.7737 726.960973) scale(0.1 -0.1)">
       <defs>
        <path id="DejaVuSans-31" d="M 794 531 
L 1825 531 
L 1825 4091 
L 703 3866 
L 703 4441 
L 1819 4666 
L 2450 4666 
L 2450 531 
L 3481 531 
L 3481 0 
L 794 0 
L 794 531 
z
" transform="scale(0.015625)"/>
       </defs>
       <use xlink:href="#DejaVuSans-2212"/>
       <use xlink:href="#DejaVuSans-31" transform="translate(83.789062 0)"/>
       <use xlink:href="#DejaVuSans-34" transform="translate(147.412109 0)"/>
       <use xlink:href="#DejaVuSans-2e" transform="translate(211.035156 0)"/>
       <use xlink:href="#DejaVuSans-31" transform="translate(242.822266 0)"/>
      </g>
     </g>
    </g>
    <g id="ytick_2">
     <g id="line2d_15">
      <path d="M 188.419012 596.374156 
L 549.580988 596.374156 
" clip-path="url(#pa4df053af0)" style="fill: none; stroke: #b0b0b0; stroke-width: 0.8; stroke-linecap: square"/>
     </g>
     <g id="line2d_16">
      <g>
       <use xlink:href="#mbc5ab51010" x="188.419012" y="596.374156" style="stroke: #000000; stroke-width: 0.8"/>
      </g>
     </g>
     <g id="text_9">
      <!-- 14.0 -->
      <g transform="translate(150.7737 600.173374) scale(0.1 -0.1)">
       <use xlink:href="#DejaVuSans-2212"/>
       <use xlink:href="#DejaVuSans-31" transform="translate(83.789062 0)"/>
       <use xlink:href="#DejaVuSans-34" transform="translate(147.412109 0)"/>
       <use xlink:href="#DejaVuSans-2e" transform="translate(211.035156 0)"/>
       <use xlink:href="#DejaVuSans-30" transform="translate(242.822266 0)"/>
      </g>
     </g>
    </g>
    <g id="ytick_3">
     <g id="line2d_17">
      <path d="M 188.419012 469.586557 
L 549.580988 469.586557 
" clip-path="url(#pa4df053af0)" style="fill: none; stroke: #b0b0b0; stroke-width: 0.8; stroke-linecap: square"/>
     </g>
     <g id="line2d_18">
      <g>
       <use xlink:href="#mbc5ab51010" x="188.419012" y="469.586557" style="stroke: #000000; stroke-width: 0.8"/>
      </g>
     </g>
     <g id="text_10">
      <!-- 13.9 -->
      <g transform="translate(150.7737 473.385776) scale(0.1 -0.1)">
       <defs>
        <path id="DejaVuSans-33" d="M 2597 2516 
Q 3050 2419 3304 2112 
Q 3559 1806 3559 1356 
Q 3559 666 3084 287 
Q 2609 -91 1734 -91 
Q 1441 -91 1130 -33 
Q 819 25 488 141 
L 488 750 
Q 750 597 1062 519 
Q 1375 441 1716 441 
Q 2309 441 2620 675 
Q 2931 909 2931 1356 
Q 2931 1769 2642 2001 
Q 2353 2234 1838 2234 
L 1294 2234 
L 1294 2753 
L 1863 2753 
Q 2328 2753 2575 2939 
Q 2822 3125 2822 3475 
Q 2822 3834 2567 4026 
Q 2313 4219 1838 4219 
Q 1578 4219 1281 4162 
Q 984 4106 628 3988 
L 628 4550 
Q 988 4650 1302 4700 
Q 1616 4750 1894 4750 
Q 2613 4750 3031 4423 
Q 3450 4097 3450 3541 
Q 3450 3153 3228 2886 
Q 3006 2619 2597 2516 
z
" transform="scale(0.015625)"/>
        <path id="DejaVuSans-39" d="M 703 97 
L 703 672 
Q 941 559 1184 500 
Q 1428 441 1663 441 
Q 2288 441 2617 861 
Q 2947 1281 2994 2138 
Q 2813 1869 2534 1725 
Q 2256 1581 1919 1581 
Q 1219 1581 811 2004 
Q 403 2428 403 3163 
Q 403 3881 828 4315 
Q 1253 4750 1959 4750 
Q 2769 4750 3195 4129 
Q 3622 3509 3622 2328 
Q 3622 1225 3098 567 
Q 2575 -91 1691 -91 
Q 1453 -91 1209 -44 
Q 966 3 703 97 
z
M 1959 2075 
Q 2384 2075 2632 2365 
Q 2881 2656 2881 3163 
Q 2881 3666 2632 3958 
Q 2384 4250 1959 4250 
Q 1534 4250 1286 3958 
Q 1038 3666 1038 3163 
Q 1038 2656 1286 2365 
Q 1534 2075 1959 2075 
z
" transform="scale(0.015625)"/>
       </defs>
       <use xlink:href="#DejaVuSans-2212"/>
       <use xlink:href="#DejaVuSans-31" transform="translate(83.789062 0)"/>
       <use xlink:href="#DejaVuSans-33" transform="translate(147.412109 0)"/>
       <use xlink:href="#DejaVuSans-2e" transform="translate(211.035156 0)"/>
       <use xlink:href="#DejaVuSans-39" transform="translate(242.822266 0)"/>
      </g>
     </g>
    </g>
    <g id="ytick_4">
     <g id="line2d_19">
      <path d="M 188.419012 342.798958 
L 549.580988 342.798958 
" clip-path="url(#pa4df053af0)" style="fill: none; stroke: #b0b0b0; stroke-width: 0.8; stroke-linecap: square"/>
     </g>
     <g id="line2d_20">
      <g>
       <use xlink:href="#mbc5ab51010" x="188.419012" y="342.798958" style="stroke: #000000; stroke-width: 0.8"/>
      </g>
     </g>
     <g id="text_11">
      <!-- 13.8 -->
      <g transform="translate(150.7737 346.598177) scale(0.1 -0.1)">
       <defs>
        <path id="DejaVuSans-38" d="M 2034 2216 
Q 1584 2216 1326 1975 
Q 1069 1734 1069 1313 
Q 1069 891 1326 650 
Q 1584 409 2034 409 
Q 2484 409 2743 651 
Q 3003 894 3003 1313 
Q 3003 1734 2745 1975 
Q 2488 2216 2034 2216 
z
M 1403 2484 
Q 997 2584 770 2862 
Q 544 3141 544 3541 
Q 544 4100 942 4425 
Q 1341 4750 2034 4750 
Q 2731 4750 3128 4425 
Q 3525 4100 3525 3541 
Q 3525 3141 3298 2862 
Q 3072 2584 2669 2484 
Q 3125 2378 3379 2068 
Q 3634 1759 3634 1313 
Q 3634 634 3220 271 
Q 2806 -91 2034 -91 
Q 1263 -91 848 271 
Q 434 634 434 1313 
Q 434 1759 690 2068 
Q 947 2378 1403 2484 
z
M 1172 3481 
Q 1172 3119 1398 2916 
Q 1625 2713 2034 2713 
Q 2441 2713 2670 2916 
Q 2900 3119 2900 3481 
Q 2900 3844 2670 4047 
Q 2441 4250 2034 4250 
Q 1625 4250 1398 4047 
Q 1172 3844 1172 3481 
z
" transform="scale(0.015625)"/>
       </defs>
       <use xlink:href="#DejaVuSans-2212"/>
       <use xlink:href="#DejaVuSans-31" transform="translate(83.789062 0)"/>
       <use xlink:href="#DejaVuSans-33" transform="translate(147.412109 0)"/>
       <use xlink:href="#DejaVuSans-2e" transform="translate(211.035156 0)"/>
       <use xlink:href="#DejaVuSans-38" transform="translate(242.822266 0)"/>
      </g>
     </g>
    </g>
    <g id="ytick_5">
     <g id="line2d_21">
      <path d="M 188.419012 216.01136 
L 549.580988 216.01136 
" clip-path="url(#pa4df053af0)" style="fill: none; stroke: #b0b0b0; stroke-width: 0.8; stroke-linecap: square"/>
     </g>
     <g id="line2d_22">
      <g>
       <use xlink:href="#mbc5ab51010" x="188.419012" y="216.01136" style="stroke: #000000; stroke-width: 0.8"/>
      </g>
     </g>
     <g id="text_12">
      <!-- 13.7 -->
      <g transform="translate(150.7737 219.810578) scale(0.1 -0.1)">
       <use xlink:href="#DejaVuSans-2212"/>
       <use xlink:href="#DejaVuSans-31" transform="translate(83.789062 0)"/>
       <use xlink:href="#DejaVuSans-33" transform="translate(147.412109 0)"/>
       <use xlink:href="#DejaVuSans-2e" transform="translate(211.035156 0)"/>
       <use xlink:href="#DejaVuSans-37" transform="translate(242.822266 0)"/>
      </g>
     </g>
    </g>
    <g id="text_13">
     <!-- Latitude () -->
     <g transform="translate(144.694012 464.889531) rotate(-90) scale(0.1 -0.1)">
      <defs>
       <path id="DejaVuSans-61" d="M 2194 1759 
Q 1497 1759 1228 1600 
Q 959 1441 959 1056 
Q 959 750 1161 570 
Q 1363 391 1709 391 
Q 2188 391 2477 730 
Q 2766 1069 2766 1631 
L 2766 1759 
L 2194 1759 
z
M 3341 1997 
L 3341 0 
L 2766 0 
L 2766 531 
Q 2569 213 2275 61 
Q 1981 -91 1556 -91 
Q 1019 -91 701 211 
Q 384 513 384 1019 
Q 384 1609 779 1909 
Q 1175 2209 1959 2209 
L 2766 2209 
L 2766 2266 
Q 2766 2663 2505 2880 
Q 2244 3097 1772 3097 
Q 1472 3097 1187 3025 
Q 903 2953 641 2809 
L 641 3341 
Q 956 3463 1253 3523 
Q 1550 3584 1831 3584 
Q 2591 3584 2966 3190 
Q 3341 2797 3341 1997 
z
" transform="scale(0.015625)"/>
      </defs>
      <use xlink:href="#DejaVuSans-4c"/>
      <use xlink:href="#DejaVuSans-61" transform="translate(55.712891 0)"/>
      <use xlink:href="#DejaVuSans-74" transform="translate(116.992188 0)"/>
      <use xlink:href="#DejaVuSans-69" transform="translate(156.201172 0)"/>
      <use xlink:href="#DejaVuSans-74" transform="translate(183.984375 0)"/>
      <use xlink:href="#DejaVuSans-75" transform="translate(223.193359 0)"/>
      <use xlink:href="#DejaVuSans-64" transform="translate(286.572266 0)"/>
      <use xlink:href="#DejaVuSans-65" transform="translate(350.048828 0)"/>
      <use xlink:href="#DejaVuSans-20" transform="translate(411.572266 0)"/>
      <use xlink:href="#DejaVuSans-28" transform="translate(443.359375 0)"/>
      <use xlink:href="#DejaVuSans-b0" transform="translate(482.373047 0)"/>
      <use xlink:href="#DejaVuSans-29" transform="translate(532.373047 0)"/>
     </g>
    </g>
   </g>
   <g id="patch_3">
    <path d="M 188.419012 768.96 
L 188.419012 103.68 
" style="fill: none; stroke: #000000; stroke-width: 0.8; stroke-linejoin: miter; stroke-linecap: square"/>
   </g>
   <g id="patch_4">
    <path d="M 549.580988 768.96 
L 549.580988 103.68 
" style="fill: none; stroke: #000000; stroke-width: 0.8; stroke-linejoin: miter; stroke-linecap: square"/>
   </g>
   <g id="patch_5">
    <path d="M 188.419012 768.96 
L 549.580988 768.96 
" style="fill: none; stroke: #000000; stroke-width: 0.8; stroke-linejoin: miter; stroke-linecap: square"/>
   </g>
   <g id="patch_6">
    <path d="M 188.419012 103.68 
L 549.580988 103.68 
" style="fill: none; stroke: #000000; stroke-width: 0.8; stroke-linejoin: miter; stroke-linecap: square"/>
   </g>
   <g id="legend_1">
    <g id="patch_7">
     <path d="M 271.792969 924.694125 
L 466.207031 924.694125 
Q 468.207031 924.694125 468.207031 922.694125 
L 468.207031 909.016 
Q 468.207031 907.016 466.207031 907.016 
L 271.792969 907.016 
Q 269.792969 907.016 269.792969 909.016 
L 269.792969 922.694125 
Q 269.792969 924.694125 271.792969 924.694125 
z
" style="fill: #ffffff; opacity: 0.8; stroke: #cccccc; stroke-linejoin: miter"/>
    </g>
    <g id="line2d_23">
     <defs>
      <path id="mb332b5f119" d="M 0 5 
C 1.326016 5 2.597899 4.473168 3.535534 3.535534 
C 4.473168 2.597899 5 1.326016 5 0 
C 5 -1.326016 4.473168 -2.597899 3.535534 -3.535534 
C 2.597899 -4.473168 1.326016 -5 0 -5 
C -1.326016 -5 -2.597899 -4.473168 -3.535534 -3.535534 
C -4.473168 -2.597899 -5 -1.326016 -5 0 
C -5 1.326016 -4.473168 2.597899 -3.535534 3.535534 
C -2.597899 4.473168 -1.326016 5 0 5 
z
"/>
     </defs>
     <g>
      <use xlink:href="#mb332b5f119" x="283.792969" y="915.114438" style="fill: #b3e2cd; fill-opacity: 0.65"/>
     </g>
    </g>
    <g id="text_14">
     <!-- PA NOSSA SENHORA APARECIDA -->
     <g transform="translate(301.792969 918.614438) scale(0.1 -0.1)">
      <defs>
       <path id="DejaVuSans-50" d="M 1259 4147 
L 1259 2394 
L 2053 2394 
Q 2494 2394 2734 2622 
Q 2975 2850 2975 3272 
Q 2975 3691 2734 3919 
Q 2494 4147 2053 4147 
L 1259 4147 
z
M 628 4666 
L 2053 4666 
Q 2838 4666 3239 4311 
Q 3641 3956 3641 3272 
Q 3641 2581 3239 2228 
Q 2838 1875 2053 1875 
L 1259 1875 
L 1259 0 
L 628 0 
L 628 4666 
z
" transform="scale(0.015625)"/>
       <path id="DejaVuSans-41" d="M 2188 4044 
L 1331 1722 
L 3047 1722 
L 2188 4044 
z
M 1831 4666 
L 2547 4666 
L 4325 0 
L 3669 0 
L 3244 1197 
L 1141 1197 
L 716 0 
L 50 0 
L 1831 4666 
z
" transform="scale(0.015625)"/>
       <path id="DejaVuSans-4e" d="M 628 4666 
L 1478 4666 
L 3547 763 
L 3547 4666 
L 4159 4666 
L 4159 0 
L 3309 0 
L 1241 3903 
L 1241 0 
L 628 0 
L 628 4666 
z
" transform="scale(0.015625)"/>
       <path id="DejaVuSans-4f" d="M 2522 4238 
Q 1834 4238 1429 3725 
Q 1025 3213 1025 2328 
Q 1025 1447 1429 934 
Q 1834 422 2522 422 
Q 3209 422 3611 934 
Q 4013 1447 4013 2328 
Q 4013 3213 3611 3725 
Q 3209 4238 2522 4238 
z
M 2522 4750 
Q 3503 4750 4090 4092 
Q 4678 3434 4678 2328 
Q 4678 1225 4090 567 
Q 3503 -91 2522 -91 
Q 1538 -91 948 565 
Q 359 1222 359 2328 
Q 359 3434 948 4092 
Q 1538 4750 2522 4750 
z
" transform="scale(0.015625)"/>
       <path id="DejaVuSans-53" d="M 3425 4513 
L 3425 3897 
Q 3066 4069 2747 4153 
Q 2428 4238 2131 4238 
Q 1616 4238 1336 4038 
Q 1056 3838 1056 3469 
Q 1056 3159 1242 3001 
Q 1428 2844 1947 2747 
L 2328 2669 
Q 3034 2534 3370 2195 
Q 3706 1856 3706 1288 
Q 3706 609 3251 259 
Q 2797 -91 1919 -91 
Q 1588 -91 1214 -16 
Q 841 59 441 206 
L 441 856 
Q 825 641 1194 531 
Q 1563 422 1919 422 
Q 2459 422 2753 634 
Q 3047 847 3047 1241 
Q 3047 1584 2836 1778 
Q 2625 1972 2144 2069 
L 1759 2144 
Q 1053 2284 737 2584 
Q 422 2884 422 3419 
Q 422 4038 858 4394 
Q 1294 4750 2059 4750 
Q 2388 4750 2728 4690 
Q 3069 4631 3425 4513 
z
" transform="scale(0.015625)"/>
       <path id="DejaVuSans-45" d="M 628 4666 
L 3578 4666 
L 3578 4134 
L 1259 4134 
L 1259 2753 
L 3481 2753 
L 3481 2222 
L 1259 2222 
L 1259 531 
L 3634 531 
L 3634 0 
L 628 0 
L 628 4666 
z
" transform="scale(0.015625)"/>
       <path id="DejaVuSans-48" d="M 628 4666 
L 1259 4666 
L 1259 2753 
L 3553 2753 
L 3553 4666 
L 4184 4666 
L 4184 0 
L 3553 0 
L 3553 2222 
L 1259 2222 
L 1259 0 
L 628 0 
L 628 4666 
z
" transform="scale(0.015625)"/>
       <path id="DejaVuSans-52" d="M 2841 2188 
Q 3044 2119 3236 1894 
Q 3428 1669 3622 1275 
L 4263 0 
L 3584 0 
L 2988 1197 
Q 2756 1666 2539 1819 
Q 2322 1972 1947 1972 
L 1259 1972 
L 1259 0 
L 628 0 
L 628 4666 
L 2053 4666 
Q 2853 4666 3247 4331 
Q 3641 3997 3641 3322 
Q 3641 2881 3436 2590 
Q 3231 2300 2841 2188 
z
M 1259 4147 
L 1259 2491 
L 2053 2491 
Q 2509 2491 2742 2702 
Q 2975 2913 2975 3322 
Q 2975 3731 2742 3939 
Q 2509 4147 2053 4147 
L 1259 4147 
z
" transform="scale(0.015625)"/>
       <path id="DejaVuSans-43" d="M 4122 4306 
L 4122 3641 
Q 3803 3938 3442 4084 
Q 3081 4231 2675 4231 
Q 1875 4231 1450 3742 
Q 1025 3253 1025 2328 
Q 1025 1406 1450 917 
Q 1875 428 2675 428 
Q 3081 428 3442 575 
Q 3803 722 4122 1019 
L 4122 359 
Q 3791 134 3420 21 
Q 3050 -91 2638 -91 
Q 1578 -91 968 557 
Q 359 1206 359 2328 
Q 359 3453 968 4101 
Q 1578 4750 2638 4750 
Q 3056 4750 3426 4639 
Q 3797 4528 4122 4306 
z
" transform="scale(0.015625)"/>
       <path id="DejaVuSans-49" d="M 628 4666 
L 1259 4666 
L 1259 0 
L 628 0 
L 628 4666 
z
" transform="scale(0.015625)"/>
       <path id="DejaVuSans-44" d="M 1259 4147 
L 1259 519 
L 2022 519 
Q 2988 519 3436 956 
Q 3884 1394 3884 2338 
Q 3884 3275 3436 3711 
Q 2988 4147 2022 4147 
L 1259 4147 
z
M 628 4666 
L 1925 4666 
Q 3281 4666 3915 4102 
Q 4550 3538 4550 2338 
Q 4550 1131 3912 565 
Q 3275 0 1925 0 
L 628 0 
L 628 4666 
z
" transform="scale(0.015625)"/>
      </defs>
      <use xlink:href="#DejaVuSans-50"/>
      <use xlink:href="#DejaVuSans-41" transform="translate(53.927734 0)"/>
      <use xlink:href="#DejaVuSans-20" transform="translate(122.335938 0)"/>
      <use xlink:href="#DejaVuSans-4e" transform="translate(154.123047 0)"/>
      <use xlink:href="#DejaVuSans-4f" transform="translate(228.927734 0)"/>
      <use xlink:href="#DejaVuSans-53" transform="translate(307.638672 0)"/>
      <use xlink:href="#DejaVuSans-53" transform="translate(371.115234 0)"/>
      <use xlink:href="#DejaVuSans-41" transform="translate(436.466797 0)"/>
      <use xlink:href="#DejaVuSans-20" transform="translate(504.875 0)"/>
      <use xlink:href="#DejaVuSans-53" transform="translate(536.662109 0)"/>
      <use xlink:href="#DejaVuSans-45" transform="translate(600.138672 0)"/>
      <use xlink:href="#DejaVuSans-4e" transform="translate(663.322266 0)"/>
      <use xlink:href="#DejaVuSans-48" transform="translate(738.126953 0)"/>
      <use xlink:href="#DejaVuSans-4f" transform="translate(813.322266 0)"/>
      <use xlink:href="#DejaVuSans-52" transform="translate(892.033203 0)"/>
      <use xlink:href="#DejaVuSans-41" transform="translate(957.515625 0)"/>
      <use xlink:href="#DejaVuSans-20" transform="translate(1025.923828 0)"/>
      <use xlink:href="#DejaVuSans-41" transform="translate(1057.710938 0)"/>
      <use xlink:href="#DejaVuSans-50" transform="translate(1126.119141 0)"/>
      <use xlink:href="#DejaVuSans-41" transform="translate(1180.046875 0)"/>
      <use xlink:href="#DejaVuSans-52" transform="translate(1248.455078 0)"/>
      <use xlink:href="#DejaVuSans-45" transform="translate(1317.9375 0)"/>
      <use xlink:href="#DejaVuSans-43" transform="translate(1381.121094 0)"/>
      <use xlink:href="#DejaVuSans-49" transform="translate(1450.945312 0)"/>
      <use xlink:href="#DejaVuSans-44" transform="translate(1480.4375 0)"/>
      <use xlink:href="#DejaVuSans-41" transform="translate(1555.689453 0)"/>
     </g>
    </g>
   </g>
  </g>
 </g>
 <defs>
  <clipPath id="pa4df053af0">
   <rect x="188.419012" y="103.68" width="361.161975" height="665.28"/>
  </clipPath>
 </defs>
</svg>
