<?xml version="1.0" encoding="utf-8" standalone="no"?>
<!DOCTYPE svg PUBLIC "-//W3C//DTD SVG 1.1//EN"
  "http://www.w3.org/Graphics/SVG/1.1/DTD/svg11.dtd">
<svg xmlns:xlink="http://www.w3.org/1999/xlink" width="720pt" height="864pt" viewBox="0 0 720 864" xmlns="http://www.w3.org/2000/svg" version="1.1">
 <metadata>
  <rdf:RDF xmlns:dc="http://purl.org/dc/elements/1.1/" xmlns:cc="http://creativecommons.org/ns#" xmlns:rdf="http://www.w3.org/1999/02/22-rdf-syntax-ns#">
   <cc:Work>
    <dc:type rdf:resource="http://purl.org/dc/dcmitype/StillImage"/>
    <dc:date>2025-06-16T17:46:42.148910</dc:date>
    <dc:format>image/svg+xml</dc:format>
    <dc:creator>
     <cc:Agent>
      <dc:title>Matplotlib v3.10.1, https://matplotlib.org/</dc:title>
     </cc:Agent>
    </dc:creator>
   </cc:Work>
  </rdf:RDF>
 </metadata>
 <defs>
  <style type="text/css">*{stroke-linejoin: round; stroke-linecap: butt}</style>
 </defs>
 <g id="figure_1">
  <g id="patch_1">
   <path d="M 0 864 
L 720 864 
L 720 0 
L 0 0 
z
" style="fill: #ffffff"/>
  </g>
  <g id="axes_1">
   <g id="patch_2">
    <path d="M 90 680.368045 
L 648 680.368045 
L 648 192.271955 
L 90 192.271955 
z
" style="fill: #ffffff"/>
   </g>
   <g id="PatchCollection_1">
    <path d="M 371.73829 214.458141 
L 374.368026 215.428094 
L 376.336055 217.652321 
L 376.585394 218.881682 
L 376.672396 219.278633 
L 376.690891 219.568675 
L 376.718288 219.999132 
L 377.128609 220.584244 
L 377.146413 220.764555 
L 377.892383 222.876896 
L 378.6459 223.549649 
L 380.290585 223.950884 
L 382.199701 226.157305 
L 382.925105 226.708192 
L 383.173778 226.949795 
L 384.498572 228.59535 
L 384.863 229.600195 
L 385.486335 231.136018 
L 385.823366 231.88574 
L 386.065183 232.257752 
L 386.591259 234.095009 
L 386.939929 234.645177 
L 386.850881 236.42186 
L 386.583047 237.996141 
L 386.749503 239.680898 
L 386.973491 240.258877 
L 387.470813 240.966549 
L 387.692754 241.246636 
L 388.885345 242.337019 
L 389.336749 242.865097 
L 389.58885 243.353281 
L 390.154653 244.262634 
L 390.575257 245.202647 
L 390.796508 245.49841 
L 391.456168 246.375 
L 391.904144 247.052731 
L 392.643284 248.154531 
L 392.731641 248.53011 
L 392.802194 249.331862 
L 393.193329 250.68663 
L 393.472827 251.402152 
L 393.94137 252.364254 
L 394.168786 253.104021 
L 394.253026 254.120976 
L 394.285232 255.073124 
L 394.434574 256.829127 
L 394.617454 257.645144 
L 394.980501 258.15611 
L 395.340835 258.645012 
L 395.746347 259.547951 
L 395.908685 259.771031 
L 396.340238 260.267039 
L 396.515596 260.795837 
L 396.458755 260.917703 
L 396.082687 261.34031 
L 396.034723 261.953926 
L 396.680006 262.696515 
L 397.144431 263.513968 
L 397.442424 264.247295 
L 397.518451 265.071855 
L 397.471868 265.262839 
L 397.278705 266.017564 
L 396.940318 267.488502 
L 396.158024 268.308085 
L 395.723734 269.360677 
L 395.425765 270.033456 
L 394.561278 270.361263 
L 394.040011 270.230853 
L 392.220633 270.64348 
L 391.064342 271.587058 
L 391.298614 273.507697 
L 392.086358 274.799762 
L 393.165241 275.662806 
L 394.656515 276.436054 
L 395.884715 275.982096 
L 397.527354 277.374655 
L 398.859693 279.422137 
L 398.773383 281.57368 
L 399.332355 283.813609 
L 400.526302 286.46116 
L 401.452439 288.753812 
L 401.712727 289.375278 
L 402.690922 291.065012 
L 403.250585 291.947298 
L 403.638982 292.33568 
L 404.298642 293.230102 
L 403.998602 294.281282 
L 403.984891 294.569912 
L 404.172579 296.796987 
L 405.101454 298.407623 
L 407.161959 299.138821 
L 407.794221 299.53649 
L 409.219012 300.773676 
L 409.651946 301.095096 
L 411.824778 301.866214 
L 413.848293 302.221833 
L 414.780571 302.625916 
L 416.225238 303.116947 
L 416.689687 303.383488 
L 417.824055 303.987098 
L 418.1419 304.214437 
L 418.384383 304.751803 
L 418.822792 305.1623 
L 419.837287 306.371701 
L 421.629243 307.70012 
L 423.638381 308.456974 
L 424.786435 308.868882 
L 426.333861 309.349933 
L 427.975809 310.26216 
L 429.656819 311.636889 
L 430.700758 313.583184 
L 430.937791 315.413307 
L 431.417284 316.777363 
L 431.193295 317.835676 
L 431.959117 319.551784 
L 433.977157 321.783143 
L 439.257837 324.76566 
L 439.794886 325.048595 
L 443.243882 326.193856 
L 447.011414 327.875047 
L 450.638505 329.997368 
L 454.623194 332.47033 
L 455.551379 332.814531 
L 458.009159 333.132384 
L 459.159975 333.174435 
L 462.276059 333.865737 
L 462.802135 334.073834 
L 464.913341 335.08653 
L 466.151134 335.430039 
L 467.617723 335.749303 
L 468.385616 336.220374 
L 468.926093 337.238073 
L 469.163102 338.230834 
L 469.495324 338.787416 
L 469.646713 339.200043 
L 470.24884 340.40303 
L 470.791364 341.176278 
L 471.370878 342.037886 
L 472.014089 342.969355 
L 472.800477 343.93002 
L 473.330671 344.55218 
L 474.0143 345.017555 
L 474.694502 345.628323 
L 475.146621 346.312493 
L 475.608309 346.97383 
L 475.90285 347.528283 
L 476.200153 348.151879 
L 476.524163 348.662152 
L 476.938577 349.039143 
L 477.477698 349.103283 
L 477.733202 349.026315 
L 478.139404 349.346323 
L 478.536704 349.498104 
L 478.783996 349.622818 
L 478.985371 349.954217 
L 479.210741 350.071106 
L 481.375361 352.402935 
L 481.557575 352.65167 
L 484.68668 355.402564 
L 486.806073 356.932666 
L 489.151527 358.636665 
L 490.034509 359.746289 
L 491.565486 360.587937 
L 493.035504 361.8066 
L 494.513757 363.431501 
L 495.700183 364.930225 
L 496.3756 365.862412 
L 497.26132 367.428125 
L 498.081936 368.696689 
L 498.782014 369.428605 
L 499.485519 369.766393 
L 500.056131 369.998734 
L 500.606176 370.010844 
L 502.489942 370.761283 
L 503.561993 371.865931 
L 504.70662 372.602106 
L 505.908803 373.488677 
L 507.069902 373.986096 
L 508.312479 374.559099 
L 509.418784 375.305254 
L 509.764692 375.476303 
L 511.163491 375.785587 
L 512.469789 376.394918 
L 513.571951 376.190388 
L 514.700154 375.833333 
L 515.724241 375.360133 
L 516.960678 375.085767 
L 518.487561 375.107856 
L 519.364354 375.548268 
L 520.366518 376.440535 
L 521.215913 377.092635 
L 521.533758 377.500284 
L 521.639254 377.977051 
L 521.39539 379.063149 
L 521.439236 379.733773 
L 521.795427 380.328147 
L 522.224243 380.556203 
L 522.702379 380.546942 
L 523.083921 380.451424 
L 523.239428 380.35878 
L 523.564795 379.97966 
L 524.094322 379.582684 
L 524.284058 379.499302 
L 524.651223 379.343954 
L 525.291697 378.912779 
L 525.728725 378.736752 
L 526.129452 378.764538 
L 526.620609 378.995443 
L 527.144638 378.906365 
L 527.468648 378.671201 
L 528.189267 378.799482 
L 528.744121 378.808743 
L 529.057848 378.931302 
L 529.787394 378.958395 
L 530.000433 379.171494 
L 530.090837 379.28551 
L 530.569664 379.492888 
L 530.74776 379.571293 
L 531.214947 379.487192 
L 531.280691 379.323994 
L 531.360836 379.208542 
L 531.621149 378.825138 
L 531.693749 378.604188 
L 531.902694 378.171601 
L 531.989005 378.0298 
L 532.062295 377.852337 
L 532.343149 377.672026 
L 532.615077 377.63426 
L 532.78977 377.63426 
L 533.361738 377.302861 
L 533.915901 376.642217 
L 534.017304 376.46832 
L 534.674892 376.346454 
L 535.990783 375.809114 
L 536.884049 375.037302 
L 537.531378 374.80709 
L 538.943839 374.541268 
L 540.079587 373.849991 
L 540.402216 373.667551 
L 541.111196 373.761606 
L 542.070896 373.72384 
L 542.703158 373.997513 
L 543.18196 374.124357 
L 543.484047 374.169973 
L 543.803964 374.14932 
L 543.932739 374.017474 
L 543.941641 373.840011 
L 544.556765 373.622653 
L 544.806128 372.927784 
L 544.9116 372.580016 
L 545.045875 372.441037 
L 545.330157 372.156691 
L 545.879512 371.958575 
L 546.206949 371.642133 
L 546.78851 371.117621 
L 546.952919 370.951574 
L 547.344054 370.426318 
L 548.152366 369.933875 
L 548.795577 369.708667 
L 549.182618 369.948833 
L 549.560042 369.616023 
L 550.079977 368.986038 
L 550.487536 368.766525 
L 550.664966 368.729477 
L 551.119798 368.380965 
L 551.4897 367.946249 
L 551.572583 367.8935 
L 552.160334 367.679708 
L 552.835061 367.405317 
L 553.139885 367.212896 
L 553.692692 366.82236 
L 553.887902 366.655595 
L 554.332475 366.106145 
L 554.887329 365.206028 
L 555.319573 364.506182 
L 555.790853 363.943185 
L 556.179941 363.700171 
L 556.971114 363.691602 
L 557.38829 363.412951 
L 557.872591 363.237643 
L 558.539772 363.089403 
L 559.05078 363.019567 
L 559.483023 363.030265 
L 560.482451 362.622616 
L 561.201714 362.300479 
L 562.629267 362.098796 
L 563.536194 362.209271 
L 563.81912 362.271975 
L 564.701387 362.221381 
L 565.226796 362.071011 
L 565.330221 362.02111 
L 566.573513 361.69828 
L 566.772175 361.610613 
L 568.139434 361.181592 
L 568.447686 361.22649 
L 570.420499 361.348357 
L 570.934245 361.622748 
L 571.343209 361.926336 
L 572.121361 362.220663 
L 572.642652 362.198573 
L 573.616038 361.796619 
L 573.805108 361.707541 
L 574.333255 361.527231 
L 574.812057 361.537211 
L 575.514871 361.851498 
L 576.177959 362.289087 
L 576.514299 362.467961 
L 577.139015 362.696018 
L 578.758374 362.974669 
L 580.111256 362.630441 
L 581.273712 361.683322 
L 582.149148 360.904378 
L 582.673867 360.247994 
L 583.175282 360.019937 
L 583.676722 360.379122 
L 584.156905 360.468918 
L 584.667913 360.063424 
L 584.871359 359.295153 
L 585.009728 359.020069 
L 586.237262 358.553283 
L 586.487291 358.902487 
L 587.116125 358.757813 
L 587.624396 358.636665 
L 588.101842 358.645927 
L 588.573122 358.460639 
L 589.037547 358.778466 
L 589.288267 358.414304 
L 590.14109 358.82693 
L 590.949401 358.393625 
L 590.979536 357.973173 
L 591.384382 358.541147 
L 591.829646 358.769922 
L 592.651643 358.608854 
L 593.242106 358.751399 
L 593.939447 358.434264 
L 594.138109 358.33164 
L 594.495681 358.127802 
L 594.996406 358.202641 
L 595.432768 357.766488 
L 595.951988 357.911881 
L 596.330793 358.010221 
L 596.735639 357.821366 
L 596.977456 358.263215 
L 597.437763 358.42998 
L 597.755608 358.313809 
L 598.417339 357.633231 
L 598.909161 357.370256 
L 599.557181 357.363842 
L 600.606595 358.228297 
L 601.336807 358.014505 
L 602.223217 358.539736 
L 603.033575 358.471312 
L 603.919294 358.966627 
L 604.300836 358.638794 
L 604.835148 358.486987 
L 605.331755 358.32166 
L 606.348321 358.668017 
L 607.524463 358.655189 
L 608.128637 358.821235 
L 608.456075 358.852586 
L 608.815694 359.131955 
L 609.366455 359.042877 
L 610.066508 359.388516 
L 610.63781 359.743442 
L 611.124158 359.603744 
L 611.38378 359.039311 
L 611.705743 358.885375 
L 612.665418 359.827517 
L 613.025728 359.765532 
L 614.042294 360.379122 
L 614.85608 360.349207 
L 616.056192 360.738307 
L 616.826156 361.069706 
L 616.680932 361.917075 
L 617.472795 362.738787 
L 618.317406 362.691734 
L 619.450393 363.196311 
L 620.732031 363.406537 
L 621.877373 363.503466 
L 622.391809 363.304631 
L 622.636364 363.763593 
L 619.623221 364.978683 
L 538.57404 397.976828 
L 520.495984 405.307889 
L 506.615046 410.916586 
L 470.980409 425.340989 
L 477.866761 431.214097 
L 450.783063 444.017883 
L 453.127136 447.903366 
L 413.462633 473.058416 
L 464.085154 536.460958 
L 500.518509 582.02969 
L 519.58013 605.703821 
L 444.693358 619.161144 
L 438.135799 623.743599 
L 429.045789 628.082321 
L 421.232633 632.822997 
L 415.134025 639.307566 
L 415.012105 641.268818 
L 407.379092 640.925309 
L 402.192935 640.953121 
L 396.962241 643.547923 
L 389.490875 647.541726 
L 384.11703 649.768107 
L 379.541878 646.538291 
L 378.011566 646.087181 
L 376.359335 622.139377 
L 359.208186 626.315619 
L 354.32821 603.566517 
L 389.494994 564.713978 
L 361.531051 563.69415 
L 347.960411 563.270106 
L 341.576164 528.006568 
L 345.686201 529.432634 
L 338.742316 428.82167 
L 338.151138 419.680261 
L 378.714381 326.937164 
L 371.73829 214.458141 
" clip-path="url(#pc125ec5e19)" style="fill: #b3e2cd; fill-opacity: 0.65"/>
   </g>
   <g id="PatchCollection_2">
    <path d="M 203.282619 462.881503 
L 210.325749 463.093996 
L 224.997946 464.023197 
L 233.5242 510.293212 
L 257.311696 515.006077 
L 258.003637 515.277255 
L 340.600041 528.987912 
L 337.455178 562.9316 
L 347.960411 563.270106 
L 361.531051 563.69415 
L 389.494994 564.713978 
L 354.32821 603.566517 
L 312.214138 650.083805 
L 304.872928 658.181859 
L 304.73525 654.067627 
L 298.928471 619.446208 
L 298.30373 613.934414 
L 296.584374 603.890784 
L 293.157991 598.157373 
L 273.690143 566.651011 
L 272.954456 567.079339 
L 262.780089 573.27597 
L 259.507807 566.033136 
L 264.283669 558.888641 
L 265.444743 554.103785 
L 262.247888 546.7089 
L 216.180221 557.937788 
L 162.398793 521.575465 
L 137.530392 566.941796 
L 115.363636 537.205702 
L 189.464021 509.393813 
L 188.515985 498.322504 
L 222.494272 492.23917 
L 203.282619 462.881503 
" clip-path="url(#pc125ec5e19)" style="fill: none; stroke: #000000; stroke-width: 2"/>
   </g>
   <g id="matplotlib.axis_1">
    <g id="xtick_1">
     <g id="line2d_1">
      <path d="M 173.576706 680.368045 
L 173.576706 192.271955 
" clip-path="url(#pc125ec5e19)" style="fill: none; stroke: #b0b0b0; stroke-width: 0.8; stroke-linecap: square"/>
     </g>
     <g id="line2d_2">
      <defs>
       <path id="m5a9fba2268" d="M 0 0 
L 0 3.5 
" style="stroke: #000000; stroke-width: 0.8"/>
      </defs>
      <g>
       <use xlink:href="#m5a9fba2268" x="173.576706" y="680.368045" style="stroke: #000000; stroke-width: 0.8"/>
      </g>
     </g>
     <g id="text_1">
      <!-- −55.35 -->
      <g transform="translate(162.443641 718.909427) rotate(-45) scale(0.1 -0.1)">
       <defs>
        <path id="DejaVuSans-2212" d="M 678 2272 
L 4684 2272 
L 4684 1741 
L 678 1741 
L 678 2272 
z
" transform="scale(0.015625)"/>
        <path id="DejaVuSans-35" d="M 691 4666 
L 3169 4666 
L 3169 4134 
L 1269 4134 
L 1269 2991 
Q 1406 3038 1543 3061 
Q 1681 3084 1819 3084 
Q 2600 3084 3056 2656 
Q 3513 2228 3513 1497 
Q 3513 744 3044 326 
Q 2575 -91 1722 -91 
Q 1428 -91 1123 -41 
Q 819 9 494 109 
L 494 744 
Q 775 591 1075 516 
Q 1375 441 1709 441 
Q 2250 441 2565 725 
Q 2881 1009 2881 1497 
Q 2881 1984 2565 2268 
Q 2250 2553 1709 2553 
Q 1456 2553 1204 2497 
Q 953 2441 691 2322 
L 691 4666 
z
" transform="scale(0.015625)"/>
        <path id="DejaVuSans-2e" d="M 684 794 
L 1344 794 
L 1344 0 
L 684 0 
L 684 794 
z
" transform="scale(0.015625)"/>
        <path id="DejaVuSans-33" d="M 2597 2516 
Q 3050 2419 3304 2112 
Q 3559 1806 3559 1356 
Q 3559 666 3084 287 
Q 2609 -91 1734 -91 
Q 1441 -91 1130 -33 
Q 819 25 488 141 
L 488 750 
Q 750 597 1062 519 
Q 1375 441 1716 441 
Q 2309 441 2620 675 
Q 2931 909 2931 1356 
Q 2931 1769 2642 2001 
Q 2353 2234 1838 2234 
L 1294 2234 
L 1294 2753 
L 1863 2753 
Q 2328 2753 2575 2939 
Q 2822 3125 2822 3475 
Q 2822 3834 2567 4026 
Q 2313 4219 1838 4219 
Q 1578 4219 1281 4162 
Q 984 4106 628 3988 
L 628 4550 
Q 988 4650 1302 4700 
Q 1616 4750 1894 4750 
Q 2613 4750 3031 4423 
Q 3450 4097 3450 3541 
Q 3450 3153 3228 2886 
Q 3006 2619 2597 2516 
z
" transform="scale(0.015625)"/>
       </defs>
       <use xlink:href="#DejaVuSans-2212"/>
       <use xlink:href="#DejaVuSans-35" transform="translate(83.789062 0)"/>
       <use xlink:href="#DejaVuSans-35" transform="translate(147.412109 0)"/>
       <use xlink:href="#DejaVuSans-2e" transform="translate(211.035156 0)"/>
       <use xlink:href="#DejaVuSans-33" transform="translate(242.822266 0)"/>
       <use xlink:href="#DejaVuSans-35" transform="translate(306.445312 0)"/>
      </g>
     </g>
    </g>
    <g id="xtick_2">
     <g id="line2d_3">
      <path d="M 296.877558 680.368045 
L 296.877558 192.271955 
" clip-path="url(#pc125ec5e19)" style="fill: none; stroke: #b0b0b0; stroke-width: 0.8; stroke-linecap: square"/>
     </g>
     <g id="line2d_4">
      <g>
       <use xlink:href="#m5a9fba2268" x="296.877558" y="680.368045" style="stroke: #000000; stroke-width: 0.8"/>
      </g>
     </g>
     <g id="text_2">
      <!-- −55.30 -->
      <g transform="translate(285.744494 718.909427) rotate(-45) scale(0.1 -0.1)">
       <defs>
        <path id="DejaVuSans-30" d="M 2034 4250 
Q 1547 4250 1301 3770 
Q 1056 3291 1056 2328 
Q 1056 1369 1301 889 
Q 1547 409 2034 409 
Q 2525 409 2770 889 
Q 3016 1369 3016 2328 
Q 3016 3291 2770 3770 
Q 2525 4250 2034 4250 
z
M 2034 4750 
Q 2819 4750 3233 4129 
Q 3647 3509 3647 2328 
Q 3647 1150 3233 529 
Q 2819 -91 2034 -91 
Q 1250 -91 836 529 
Q 422 1150 422 2328 
Q 422 3509 836 4129 
Q 1250 4750 2034 4750 
z
" transform="scale(0.015625)"/>
       </defs>
       <use xlink:href="#DejaVuSans-2212"/>
       <use xlink:href="#DejaVuSans-35" transform="translate(83.789062 0)"/>
       <use xlink:href="#DejaVuSans-35" transform="translate(147.412109 0)"/>
       <use xlink:href="#DejaVuSans-2e" transform="translate(211.035156 0)"/>
       <use xlink:href="#DejaVuSans-33" transform="translate(242.822266 0)"/>
       <use xlink:href="#DejaVuSans-30" transform="translate(306.445312 0)"/>
      </g>
     </g>
    </g>
    <g id="xtick_3">
     <g id="line2d_5">
      <path d="M 420.178411 680.368045 
L 420.178411 192.271955 
" clip-path="url(#pc125ec5e19)" style="fill: none; stroke: #b0b0b0; stroke-width: 0.8; stroke-linecap: square"/>
     </g>
     <g id="line2d_6">
      <g>
       <use xlink:href="#m5a9fba2268" x="420.178411" y="680.368045" style="stroke: #000000; stroke-width: 0.8"/>
      </g>
     </g>
     <g id="text_3">
      <!-- −55.25 -->
      <g transform="translate(409.045346 718.909427) rotate(-45) scale(0.1 -0.1)">
       <defs>
        <path id="DejaVuSans-32" d="M 1228 531 
L 3431 531 
L 3431 0 
L 469 0 
L 469 531 
Q 828 903 1448 1529 
Q 2069 2156 2228 2338 
Q 2531 2678 2651 2914 
Q 2772 3150 2772 3378 
Q 2772 3750 2511 3984 
Q 2250 4219 1831 4219 
Q 1534 4219 1204 4116 
Q 875 4013 500 3803 
L 500 4441 
Q 881 4594 1212 4672 
Q 1544 4750 1819 4750 
Q 2544 4750 2975 4387 
Q 3406 4025 3406 3419 
Q 3406 3131 3298 2873 
Q 3191 2616 2906 2266 
Q 2828 2175 2409 1742 
Q 1991 1309 1228 531 
z
" transform="scale(0.015625)"/>
       </defs>
       <use xlink:href="#DejaVuSans-2212"/>
       <use xlink:href="#DejaVuSans-35" transform="translate(83.789062 0)"/>
       <use xlink:href="#DejaVuSans-35" transform="translate(147.412109 0)"/>
       <use xlink:href="#DejaVuSans-2e" transform="translate(211.035156 0)"/>
       <use xlink:href="#DejaVuSans-32" transform="translate(242.822266 0)"/>
       <use xlink:href="#DejaVuSans-35" transform="translate(306.445312 0)"/>
      </g>
     </g>
    </g>
    <g id="xtick_4">
     <g id="line2d_7">
      <path d="M 543.479263 680.368045 
L 543.479263 192.271955 
" clip-path="url(#pc125ec5e19)" style="fill: none; stroke: #b0b0b0; stroke-width: 0.8; stroke-linecap: square"/>
     </g>
     <g id="line2d_8">
      <g>
       <use xlink:href="#m5a9fba2268" x="543.479263" y="680.368045" style="stroke: #000000; stroke-width: 0.8"/>
      </g>
     </g>
     <g id="text_4">
      <!-- −55.20 -->
      <g transform="translate(532.346198 718.909427) rotate(-45) scale(0.1 -0.1)">
       <use xlink:href="#DejaVuSans-2212"/>
       <use xlink:href="#DejaVuSans-35" transform="translate(83.789062 0)"/>
       <use xlink:href="#DejaVuSans-35" transform="translate(147.412109 0)"/>
       <use xlink:href="#DejaVuSans-2e" transform="translate(211.035156 0)"/>
       <use xlink:href="#DejaVuSans-32" transform="translate(242.822266 0)"/>
       <use xlink:href="#DejaVuSans-30" transform="translate(306.445312 0)"/>
      </g>
     </g>
    </g>
    <g id="text_5">
     <!-- Longitude (°) -->
     <g transform="translate(336.139844 731.978425) scale(0.1 -0.1)">
      <defs>
       <path id="DejaVuSans-4c" d="M 628 4666 
L 1259 4666 
L 1259 531 
L 3531 531 
L 3531 0 
L 628 0 
L 628 4666 
z
" transform="scale(0.015625)"/>
       <path id="DejaVuSans-6f" d="M 1959 3097 
Q 1497 3097 1228 2736 
Q 959 2375 959 1747 
Q 959 1119 1226 758 
Q 1494 397 1959 397 
Q 2419 397 2687 759 
Q 2956 1122 2956 1747 
Q 2956 2369 2687 2733 
Q 2419 3097 1959 3097 
z
M 1959 3584 
Q 2709 3584 3137 3096 
Q 3566 2609 3566 1747 
Q 3566 888 3137 398 
Q 2709 -91 1959 -91 
Q 1206 -91 779 398 
Q 353 888 353 1747 
Q 353 2609 779 3096 
Q 1206 3584 1959 3584 
z
" transform="scale(0.015625)"/>
       <path id="DejaVuSans-6e" d="M 3513 2113 
L 3513 0 
L 2938 0 
L 2938 2094 
Q 2938 2591 2744 2837 
Q 2550 3084 2163 3084 
Q 1697 3084 1428 2787 
Q 1159 2491 1159 1978 
L 1159 0 
L 581 0 
L 581 3500 
L 1159 3500 
L 1159 2956 
Q 1366 3272 1645 3428 
Q 1925 3584 2291 3584 
Q 2894 3584 3203 3211 
Q 3513 2838 3513 2113 
z
" transform="scale(0.015625)"/>
       <path id="DejaVuSans-67" d="M 2906 1791 
Q 2906 2416 2648 2759 
Q 2391 3103 1925 3103 
Q 1463 3103 1205 2759 
Q 947 2416 947 1791 
Q 947 1169 1205 825 
Q 1463 481 1925 481 
Q 2391 481 2648 825 
Q 2906 1169 2906 1791 
z
M 3481 434 
Q 3481 -459 3084 -895 
Q 2688 -1331 1869 -1331 
Q 1566 -1331 1297 -1286 
Q 1028 -1241 775 -1147 
L 775 -588 
Q 1028 -725 1275 -790 
Q 1522 -856 1778 -856 
Q 2344 -856 2625 -561 
Q 2906 -266 2906 331 
L 2906 616 
Q 2728 306 2450 153 
Q 2172 0 1784 0 
Q 1141 0 747 490 
Q 353 981 353 1791 
Q 353 2603 747 3093 
Q 1141 3584 1784 3584 
Q 2172 3584 2450 3431 
Q 2728 3278 2906 2969 
L 2906 3500 
L 3481 3500 
L 3481 434 
z
" transform="scale(0.015625)"/>
       <path id="DejaVuSans-69" d="M 603 3500 
L 1178 3500 
L 1178 0 
L 603 0 
L 603 3500 
z
M 603 4863 
L 1178 4863 
L 1178 4134 
L 603 4134 
L 603 4863 
z
" transform="scale(0.015625)"/>
       <path id="DejaVuSans-74" d="M 1172 4494 
L 1172 3500 
L 2356 3500 
L 2356 3053 
L 1172 3053 
L 1172 1153 
Q 1172 725 1289 603 
Q 1406 481 1766 481 
L 2356 481 
L 2356 0 
L 1766 0 
Q 1100 0 847 248 
Q 594 497 594 1153 
L 594 3053 
L 172 3053 
L 172 3500 
L 594 3500 
L 594 4494 
L 1172 4494 
z
" transform="scale(0.015625)"/>
       <path id="DejaVuSans-75" d="M 544 1381 
L 544 3500 
L 1119 3500 
L 1119 1403 
Q 1119 906 1312 657 
Q 1506 409 1894 409 
Q 2359 409 2629 706 
Q 2900 1003 2900 1516 
L 2900 3500 
L 3475 3500 
L 3475 0 
L 2900 0 
L 2900 538 
Q 2691 219 2414 64 
Q 2138 -91 1772 -91 
Q 1169 -91 856 284 
Q 544 659 544 1381 
z
M 1991 3584 
L 1991 3584 
z
" transform="scale(0.015625)"/>
       <path id="DejaVuSans-64" d="M 2906 2969 
L 2906 4863 
L 3481 4863 
L 3481 0 
L 2906 0 
L 2906 525 
Q 2725 213 2448 61 
Q 2172 -91 1784 -91 
Q 1150 -91 751 415 
Q 353 922 353 1747 
Q 353 2572 751 3078 
Q 1150 3584 1784 3584 
Q 2172 3584 2448 3432 
Q 2725 3281 2906 2969 
z
M 947 1747 
Q 947 1113 1208 752 
Q 1469 391 1925 391 
Q 2381 391 2643 752 
Q 2906 1113 2906 1747 
Q 2906 2381 2643 2742 
Q 2381 3103 1925 3103 
Q 1469 3103 1208 2742 
Q 947 2381 947 1747 
z
" transform="scale(0.015625)"/>
       <path id="DejaVuSans-65" d="M 3597 1894 
L 3597 1613 
L 953 1613 
Q 991 1019 1311 708 
Q 1631 397 2203 397 
Q 2534 397 2845 478 
Q 3156 559 3463 722 
L 3463 178 
Q 3153 47 2828 -22 
Q 2503 -91 2169 -91 
Q 1331 -91 842 396 
Q 353 884 353 1716 
Q 353 2575 817 3079 
Q 1281 3584 2069 3584 
Q 2775 3584 3186 3129 
Q 3597 2675 3597 1894 
z
M 3022 2063 
Q 3016 2534 2758 2815 
Q 2500 3097 2075 3097 
Q 1594 3097 1305 2825 
Q 1016 2553 972 2059 
L 3022 2063 
z
" transform="scale(0.015625)"/>
       <path id="DejaVuSans-20" transform="scale(0.015625)"/>
       <path id="DejaVuSans-28" d="M 1984 4856 
Q 1566 4138 1362 3434 
Q 1159 2731 1159 2009 
Q 1159 1288 1364 580 
Q 1569 -128 1984 -844 
L 1484 -844 
Q 1016 -109 783 600 
Q 550 1309 550 2009 
Q 550 2706 781 3412 
Q 1013 4119 1484 4856 
L 1984 4856 
z
" transform="scale(0.015625)"/>
       <path id="DejaVuSans-b0" d="M 1600 4347 
Q 1350 4347 1178 4173 
Q 1006 4000 1006 3750 
Q 1006 3503 1178 3333 
Q 1350 3163 1600 3163 
Q 1850 3163 2022 3333 
Q 2194 3503 2194 3750 
Q 2194 3997 2020 4172 
Q 1847 4347 1600 4347 
z
M 1600 4750 
Q 1800 4750 1984 4673 
Q 2169 4597 2303 4453 
Q 2447 4313 2519 4134 
Q 2591 3956 2591 3750 
Q 2591 3338 2302 3052 
Q 2013 2766 1594 2766 
Q 1172 2766 890 3047 
Q 609 3328 609 3750 
Q 609 4169 896 4459 
Q 1184 4750 1600 4750 
z
" transform="scale(0.015625)"/>
       <path id="DejaVuSans-29" d="M 513 4856 
L 1013 4856 
Q 1481 4119 1714 3412 
Q 1947 2706 1947 2009 
Q 1947 1309 1714 600 
Q 1481 -109 1013 -844 
L 513 -844 
Q 928 -128 1133 580 
Q 1338 1288 1338 2009 
Q 1338 2731 1133 3434 
Q 928 4138 513 4856 
z
" transform="scale(0.015625)"/>
      </defs>
      <use xlink:href="#DejaVuSans-4c"/>
      <use xlink:href="#DejaVuSans-6f" transform="translate(53.962891 0)"/>
      <use xlink:href="#DejaVuSans-6e" transform="translate(115.144531 0)"/>
      <use xlink:href="#DejaVuSans-67" transform="translate(178.523438 0)"/>
      <use xlink:href="#DejaVuSans-69" transform="translate(242 0)"/>
      <use xlink:href="#DejaVuSans-74" transform="translate(269.783203 0)"/>
      <use xlink:href="#DejaVuSans-75" transform="translate(308.992188 0)"/>
      <use xlink:href="#DejaVuSans-64" transform="translate(372.371094 0)"/>
      <use xlink:href="#DejaVuSans-65" transform="translate(435.847656 0)"/>
      <use xlink:href="#DejaVuSans-20" transform="translate(497.371094 0)"/>
      <use xlink:href="#DejaVuSans-28" transform="translate(529.158203 0)"/>
      <use xlink:href="#DejaVuSans-b0" transform="translate(568.171875 0)"/>
      <use xlink:href="#DejaVuSans-29" transform="translate(618.171875 0)"/>
     </g>
    </g>
   </g>
   <g id="matplotlib.axis_2">
    <g id="ytick_1">
     <g id="line2d_9">
      <path d="M 90 646.865406 
L 648 646.865406 
" clip-path="url(#pc125ec5e19)" style="fill: none; stroke: #b0b0b0; stroke-width: 0.8; stroke-linecap: square"/>
     </g>
     <g id="line2d_10">
      <defs>
       <path id="mdd60f04558" d="M 0 0 
L -3.5 0 
" style="stroke: #000000; stroke-width: 0.8"/>
      </defs>
      <g>
       <use xlink:href="#mdd60f04558" x="90" y="646.865406" style="stroke: #000000; stroke-width: 0.8"/>
      </g>
     </g>
     <g id="text_6">
      <!-- −16.050 -->
      <g transform="translate(39.629687 650.664625) scale(0.1 -0.1)">
       <defs>
        <path id="DejaVuSans-31" d="M 794 531 
L 1825 531 
L 1825 4091 
L 703 3866 
L 703 4441 
L 1819 4666 
L 2450 4666 
L 2450 531 
L 3481 531 
L 3481 0 
L 794 0 
L 794 531 
z
" transform="scale(0.015625)"/>
        <path id="DejaVuSans-36" d="M 2113 2584 
Q 1688 2584 1439 2293 
Q 1191 2003 1191 1497 
Q 1191 994 1439 701 
Q 1688 409 2113 409 
Q 2538 409 2786 701 
Q 3034 994 3034 1497 
Q 3034 2003 2786 2293 
Q 2538 2584 2113 2584 
z
M 3366 4563 
L 3366 3988 
Q 3128 4100 2886 4159 
Q 2644 4219 2406 4219 
Q 1781 4219 1451 3797 
Q 1122 3375 1075 2522 
Q 1259 2794 1537 2939 
Q 1816 3084 2150 3084 
Q 2853 3084 3261 2657 
Q 3669 2231 3669 1497 
Q 3669 778 3244 343 
Q 2819 -91 2113 -91 
Q 1303 -91 875 529 
Q 447 1150 447 2328 
Q 447 3434 972 4092 
Q 1497 4750 2381 4750 
Q 2619 4750 2861 4703 
Q 3103 4656 3366 4563 
z
" transform="scale(0.015625)"/>
       </defs>
       <use xlink:href="#DejaVuSans-2212"/>
       <use xlink:href="#DejaVuSans-31" transform="translate(83.789062 0)"/>
       <use xlink:href="#DejaVuSans-36" transform="translate(147.412109 0)"/>
       <use xlink:href="#DejaVuSans-2e" transform="translate(211.035156 0)"/>
       <use xlink:href="#DejaVuSans-30" transform="translate(242.822266 0)"/>
       <use xlink:href="#DejaVuSans-35" transform="translate(306.445312 0)"/>
       <use xlink:href="#DejaVuSans-30" transform="translate(370.068359 0)"/>
      </g>
     </g>
    </g>
    <g id="ytick_2">
     <g id="line2d_11">
      <path d="M 90 582.725252 
L 648 582.725252 
" clip-path="url(#pc125ec5e19)" style="fill: none; stroke: #b0b0b0; stroke-width: 0.8; stroke-linecap: square"/>
     </g>
     <g id="line2d_12">
      <g>
       <use xlink:href="#mdd60f04558" x="90" y="582.725252" style="stroke: #000000; stroke-width: 0.8"/>
      </g>
     </g>
     <g id="text_7">
      <!-- −16.025 -->
      <g transform="translate(39.629687 586.52447) scale(0.1 -0.1)">
       <use xlink:href="#DejaVuSans-2212"/>
       <use xlink:href="#DejaVuSans-31" transform="translate(83.789062 0)"/>
       <use xlink:href="#DejaVuSans-36" transform="translate(147.412109 0)"/>
       <use xlink:href="#DejaVuSans-2e" transform="translate(211.035156 0)"/>
       <use xlink:href="#DejaVuSans-30" transform="translate(242.822266 0)"/>
       <use xlink:href="#DejaVuSans-32" transform="translate(306.445312 0)"/>
       <use xlink:href="#DejaVuSans-35" transform="translate(370.068359 0)"/>
      </g>
     </g>
    </g>
    <g id="ytick_3">
     <g id="line2d_13">
      <path d="M 90 518.585097 
L 648 518.585097 
" clip-path="url(#pc125ec5e19)" style="fill: none; stroke: #b0b0b0; stroke-width: 0.8; stroke-linecap: square"/>
     </g>
     <g id="line2d_14">
      <g>
       <use xlink:href="#mdd60f04558" x="90" y="518.585097" style="stroke: #000000; stroke-width: 0.8"/>
      </g>
     </g>
     <g id="text_8">
      <!-- −16.000 -->
      <g transform="translate(39.629687 522.384316) scale(0.1 -0.1)">
       <use xlink:href="#DejaVuSans-2212"/>
       <use xlink:href="#DejaVuSans-31" transform="translate(83.789062 0)"/>
       <use xlink:href="#DejaVuSans-36" transform="translate(147.412109 0)"/>
       <use xlink:href="#DejaVuSans-2e" transform="translate(211.035156 0)"/>
       <use xlink:href="#DejaVuSans-30" transform="translate(242.822266 0)"/>
       <use xlink:href="#DejaVuSans-30" transform="translate(306.445312 0)"/>
       <use xlink:href="#DejaVuSans-30" transform="translate(370.068359 0)"/>
      </g>
     </g>
    </g>
    <g id="ytick_4">
     <g id="line2d_15">
      <path d="M 90 454.444943 
L 648 454.444943 
" clip-path="url(#pc125ec5e19)" style="fill: none; stroke: #b0b0b0; stroke-width: 0.8; stroke-linecap: square"/>
     </g>
     <g id="line2d_16">
      <g>
       <use xlink:href="#mdd60f04558" x="90" y="454.444943" style="stroke: #000000; stroke-width: 0.8"/>
      </g>
     </g>
     <g id="text_9">
      <!-- −15.975 -->
      <g transform="translate(39.629687 458.244162) scale(0.1 -0.1)">
       <defs>
        <path id="DejaVuSans-39" d="M 703 97 
L 703 672 
Q 941 559 1184 500 
Q 1428 441 1663 441 
Q 2288 441 2617 861 
Q 2947 1281 2994 2138 
Q 2813 1869 2534 1725 
Q 2256 1581 1919 1581 
Q 1219 1581 811 2004 
Q 403 2428 403 3163 
Q 403 3881 828 4315 
Q 1253 4750 1959 4750 
Q 2769 4750 3195 4129 
Q 3622 3509 3622 2328 
Q 3622 1225 3098 567 
Q 2575 -91 1691 -91 
Q 1453 -91 1209 -44 
Q 966 3 703 97 
z
M 1959 2075 
Q 2384 2075 2632 2365 
Q 2881 2656 2881 3163 
Q 2881 3666 2632 3958 
Q 2384 4250 1959 4250 
Q 1534 4250 1286 3958 
Q 1038 3666 1038 3163 
Q 1038 2656 1286 2365 
Q 1534 2075 1959 2075 
z
" transform="scale(0.015625)"/>
        <path id="DejaVuSans-37" d="M 525 4666 
L 3525 4666 
L 3525 4397 
L 1831 0 
L 1172 0 
L 2766 4134 
L 525 4134 
L 525 4666 
z
" transform="scale(0.015625)"/>
       </defs>
       <use xlink:href="#DejaVuSans-2212"/>
       <use xlink:href="#DejaVuSans-31" transform="translate(83.789062 0)"/>
       <use xlink:href="#DejaVuSans-35" transform="translate(147.412109 0)"/>
       <use xlink:href="#DejaVuSans-2e" transform="translate(211.035156 0)"/>
       <use xlink:href="#DejaVuSans-39" transform="translate(242.822266 0)"/>
       <use xlink:href="#DejaVuSans-37" transform="translate(306.445312 0)"/>
       <use xlink:href="#DejaVuSans-35" transform="translate(370.068359 0)"/>
      </g>
     </g>
    </g>
    <g id="ytick_5">
     <g id="line2d_17">
      <path d="M 90 390.304789 
L 648 390.304789 
" clip-path="url(#pc125ec5e19)" style="fill: none; stroke: #b0b0b0; stroke-width: 0.8; stroke-linecap: square"/>
     </g>
     <g id="line2d_18">
      <g>
       <use xlink:href="#mdd60f04558" x="90" y="390.304789" style="stroke: #000000; stroke-width: 0.8"/>
      </g>
     </g>
     <g id="text_10">
      <!-- −15.950 -->
      <g transform="translate(39.629687 394.104007) scale(0.1 -0.1)">
       <use xlink:href="#DejaVuSans-2212"/>
       <use xlink:href="#DejaVuSans-31" transform="translate(83.789062 0)"/>
       <use xlink:href="#DejaVuSans-35" transform="translate(147.412109 0)"/>
       <use xlink:href="#DejaVuSans-2e" transform="translate(211.035156 0)"/>
       <use xlink:href="#DejaVuSans-39" transform="translate(242.822266 0)"/>
       <use xlink:href="#DejaVuSans-35" transform="translate(306.445312 0)"/>
       <use xlink:href="#DejaVuSans-30" transform="translate(370.068359 0)"/>
      </g>
     </g>
    </g>
    <g id="ytick_6">
     <g id="line2d_19">
      <path d="M 90 326.164634 
L 648 326.164634 
" clip-path="url(#pc125ec5e19)" style="fill: none; stroke: #b0b0b0; stroke-width: 0.8; stroke-linecap: square"/>
     </g>
     <g id="line2d_20">
      <g>
       <use xlink:href="#mdd60f04558" x="90" y="326.164634" style="stroke: #000000; stroke-width: 0.8"/>
      </g>
     </g>
     <g id="text_11">
      <!-- −15.925 -->
      <g transform="translate(39.629687 329.963853) scale(0.1 -0.1)">
       <use xlink:href="#DejaVuSans-2212"/>
       <use xlink:href="#DejaVuSans-31" transform="translate(83.789062 0)"/>
       <use xlink:href="#DejaVuSans-35" transform="translate(147.412109 0)"/>
       <use xlink:href="#DejaVuSans-2e" transform="translate(211.035156 0)"/>
       <use xlink:href="#DejaVuSans-39" transform="translate(242.822266 0)"/>
       <use xlink:href="#DejaVuSans-32" transform="translate(306.445312 0)"/>
       <use xlink:href="#DejaVuSans-35" transform="translate(370.068359 0)"/>
      </g>
     </g>
    </g>
    <g id="ytick_7">
     <g id="line2d_21">
      <path d="M 90 262.02448 
L 648 262.02448 
" clip-path="url(#pc125ec5e19)" style="fill: none; stroke: #b0b0b0; stroke-width: 0.8; stroke-linecap: square"/>
     </g>
     <g id="line2d_22">
      <g>
       <use xlink:href="#mdd60f04558" x="90" y="262.02448" style="stroke: #000000; stroke-width: 0.8"/>
      </g>
     </g>
     <g id="text_12">
      <!-- −15.900 -->
      <g transform="translate(39.629687 265.823698) scale(0.1 -0.1)">
       <use xlink:href="#DejaVuSans-2212"/>
       <use xlink:href="#DejaVuSans-31" transform="translate(83.789062 0)"/>
       <use xlink:href="#DejaVuSans-35" transform="translate(147.412109 0)"/>
       <use xlink:href="#DejaVuSans-2e" transform="translate(211.035156 0)"/>
       <use xlink:href="#DejaVuSans-39" transform="translate(242.822266 0)"/>
       <use xlink:href="#DejaVuSans-30" transform="translate(306.445312 0)"/>
       <use xlink:href="#DejaVuSans-30" transform="translate(370.068359 0)"/>
      </g>
     </g>
    </g>
    <g id="ytick_8">
     <g id="line2d_23">
      <path d="M 90 197.884325 
L 648 197.884325 
" clip-path="url(#pc125ec5e19)" style="fill: none; stroke: #b0b0b0; stroke-width: 0.8; stroke-linecap: square"/>
     </g>
     <g id="line2d_24">
      <g>
       <use xlink:href="#mdd60f04558" x="90" y="197.884325" style="stroke: #000000; stroke-width: 0.8"/>
      </g>
     </g>
     <g id="text_13">
      <!-- −15.875 -->
      <g transform="translate(39.629687 201.683544) scale(0.1 -0.1)">
       <defs>
        <path id="DejaVuSans-38" d="M 2034 2216 
Q 1584 2216 1326 1975 
Q 1069 1734 1069 1313 
Q 1069 891 1326 650 
Q 1584 409 2034 409 
Q 2484 409 2743 651 
Q 3003 894 3003 1313 
Q 3003 1734 2745 1975 
Q 2488 2216 2034 2216 
z
M 1403 2484 
Q 997 2584 770 2862 
Q 544 3141 544 3541 
Q 544 4100 942 4425 
Q 1341 4750 2034 4750 
Q 2731 4750 3128 4425 
Q 3525 4100 3525 3541 
Q 3525 3141 3298 2862 
Q 3072 2584 2669 2484 
Q 3125 2378 3379 2068 
Q 3634 1759 3634 1313 
Q 3634 634 3220 271 
Q 2806 -91 2034 -91 
Q 1263 -91 848 271 
Q 434 634 434 1313 
Q 434 1759 690 2068 
Q 947 2378 1403 2484 
z
M 1172 3481 
Q 1172 3119 1398 2916 
Q 1625 2713 2034 2713 
Q 2441 2713 2670 2916 
Q 2900 3119 2900 3481 
Q 2900 3844 2670 4047 
Q 2441 4250 2034 4250 
Q 1625 4250 1398 4047 
Q 1172 3844 1172 3481 
z
" transform="scale(0.015625)"/>
       </defs>
       <use xlink:href="#DejaVuSans-2212"/>
       <use xlink:href="#DejaVuSans-31" transform="translate(83.789062 0)"/>
       <use xlink:href="#DejaVuSans-35" transform="translate(147.412109 0)"/>
       <use xlink:href="#DejaVuSans-2e" transform="translate(211.035156 0)"/>
       <use xlink:href="#DejaVuSans-38" transform="translate(242.822266 0)"/>
       <use xlink:href="#DejaVuSans-37" transform="translate(306.445312 0)"/>
       <use xlink:href="#DejaVuSans-35" transform="translate(370.068359 0)"/>
      </g>
     </g>
    </g>
    <g id="text_14">
     <!-- Latitude (°) -->
     <g transform="translate(33.55 464.889531) rotate(-90) scale(0.1 -0.1)">
      <defs>
       <path id="DejaVuSans-61" d="M 2194 1759 
Q 1497 1759 1228 1600 
Q 959 1441 959 1056 
Q 959 750 1161 570 
Q 1363 391 1709 391 
Q 2188 391 2477 730 
Q 2766 1069 2766 1631 
L 2766 1759 
L 2194 1759 
z
M 3341 1997 
L 3341 0 
L 2766 0 
L 2766 531 
Q 2569 213 2275 61 
Q 1981 -91 1556 -91 
Q 1019 -91 701 211 
Q 384 513 384 1019 
Q 384 1609 779 1909 
Q 1175 2209 1959 2209 
L 2766 2209 
L 2766 2266 
Q 2766 2663 2505 2880 
Q 2244 3097 1772 3097 
Q 1472 3097 1187 3025 
Q 903 2953 641 2809 
L 641 3341 
Q 956 3463 1253 3523 
Q 1550 3584 1831 3584 
Q 2591 3584 2966 3190 
Q 3341 2797 3341 1997 
z
" transform="scale(0.015625)"/>
      </defs>
      <use xlink:href="#DejaVuSans-4c"/>
      <use xlink:href="#DejaVuSans-61" transform="translate(55.712891 0)"/>
      <use xlink:href="#DejaVuSans-74" transform="translate(116.992188 0)"/>
      <use xlink:href="#DejaVuSans-69" transform="translate(156.201172 0)"/>
      <use xlink:href="#DejaVuSans-74" transform="translate(183.984375 0)"/>
      <use xlink:href="#DejaVuSans-75" transform="translate(223.193359 0)"/>
      <use xlink:href="#DejaVuSans-64" transform="translate(286.572266 0)"/>
      <use xlink:href="#DejaVuSans-65" transform="translate(350.048828 0)"/>
      <use xlink:href="#DejaVuSans-20" transform="translate(411.572266 0)"/>
      <use xlink:href="#DejaVuSans-28" transform="translate(443.359375 0)"/>
      <use xlink:href="#DejaVuSans-b0" transform="translate(482.373047 0)"/>
      <use xlink:href="#DejaVuSans-29" transform="translate(532.373047 0)"/>
     </g>
    </g>
   </g>
   <g id="patch_3">
    <path d="M 90 680.368045 
L 90 192.271955 
" style="fill: none; stroke: #000000; stroke-width: 0.8; stroke-linejoin: miter; stroke-linecap: square"/>
   </g>
   <g id="patch_4">
    <path d="M 648 680.368045 
L 648 192.271955 
" style="fill: none; stroke: #000000; stroke-width: 0.8; stroke-linejoin: miter; stroke-linecap: square"/>
   </g>
   <g id="patch_5">
    <path d="M 90 680.368045 
L 648 680.368045 
" style="fill: none; stroke: #000000; stroke-width: 0.8; stroke-linejoin: miter; stroke-linecap: square"/>
   </g>
   <g id="patch_6">
    <path d="M 90 192.271955 
L 648 192.271955 
" style="fill: none; stroke: #000000; stroke-width: 0.8; stroke-linejoin: miter; stroke-linecap: square"/>
   </g>
   <g id="legend_1">
    <g id="patch_7">
     <path d="M 324.959375 800.665388 
L 413.040625 800.665388 
Q 415.040625 800.665388 415.040625 798.665388 
L 415.040625 784.987263 
Q 415.040625 782.987263 413.040625 782.987263 
L 324.959375 782.987263 
Q 322.959375 782.987263 322.959375 784.987263 
L 322.959375 798.665388 
Q 322.959375 800.665388 324.959375 800.665388 
z
" style="fill: #ffffff; opacity: 0.8; stroke: #cccccc; stroke-linejoin: miter"/>
    </g>
    <g id="line2d_25">
     <defs>
      <path id="m050425723d" d="M 0 5 
C 1.326016 5 2.597899 4.473168 3.535534 3.535534 
C 4.473168 2.597899 5 1.326016 5 0 
C 5 -1.326016 4.473168 -2.597899 3.535534 -3.535534 
C 2.597899 -4.473168 1.326016 -5 0 -5 
C -1.326016 -5 -2.597899 -4.473168 -3.535534 -3.535534 
C -4.473168 -2.597899 -5 -1.326016 -5 0 
C -5 1.326016 -4.473168 2.597899 -3.535534 3.535534 
C -2.597899 4.473168 -1.326016 5 0 5 
z
"/>
     </defs>
     <g>
      <use xlink:href="#m050425723d" x="336.959375" y="791.0857" style="fill: #b3e2cd; fill-opacity: 0.65"/>
     </g>
    </g>
    <g id="text_15">
     <!-- PA MESTRE -->
     <g transform="translate(354.959375 794.5857) scale(0.1 -0.1)">
      <defs>
       <path id="DejaVuSans-50" d="M 1259 4147 
L 1259 2394 
L 2053 2394 
Q 2494 2394 2734 2622 
Q 2975 2850 2975 3272 
Q 2975 3691 2734 3919 
Q 2494 4147 2053 4147 
L 1259 4147 
z
M 628 4666 
L 2053 4666 
Q 2838 4666 3239 4311 
Q 3641 3956 3641 3272 
Q 3641 2581 3239 2228 
Q 2838 1875 2053 1875 
L 1259 1875 
L 1259 0 
L 628 0 
L 628 4666 
z
" transform="scale(0.015625)"/>
       <path id="DejaVuSans-41" d="M 2188 4044 
L 1331 1722 
L 3047 1722 
L 2188 4044 
z
M 1831 4666 
L 2547 4666 
L 4325 0 
L 3669 0 
L 3244 1197 
L 1141 1197 
L 716 0 
L 50 0 
L 1831 4666 
z
" transform="scale(0.015625)"/>
       <path id="DejaVuSans-4d" d="M 628 4666 
L 1569 4666 
L 2759 1491 
L 3956 4666 
L 4897 4666 
L 4897 0 
L 4281 0 
L 4281 4097 
L 3078 897 
L 2444 897 
L 1241 4097 
L 1241 0 
L 628 0 
L 628 4666 
z
" transform="scale(0.015625)"/>
       <path id="DejaVuSans-45" d="M 628 4666 
L 3578 4666 
L 3578 4134 
L 1259 4134 
L 1259 2753 
L 3481 2753 
L 3481 2222 
L 1259 2222 
L 1259 531 
L 3634 531 
L 3634 0 
L 628 0 
L 628 4666 
z
" transform="scale(0.015625)"/>
       <path id="DejaVuSans-53" d="M 3425 4513 
L 3425 3897 
Q 3066 4069 2747 4153 
Q 2428 4238 2131 4238 
Q 1616 4238 1336 4038 
Q 1056 3838 1056 3469 
Q 1056 3159 1242 3001 
Q 1428 2844 1947 2747 
L 2328 2669 
Q 3034 2534 3370 2195 
Q 3706 1856 3706 1288 
Q 3706 609 3251 259 
Q 2797 -91 1919 -91 
Q 1588 -91 1214 -16 
Q 841 59 441 206 
L 441 856 
Q 825 641 1194 531 
Q 1563 422 1919 422 
Q 2459 422 2753 634 
Q 3047 847 3047 1241 
Q 3047 1584 2836 1778 
Q 2625 1972 2144 2069 
L 1759 2144 
Q 1053 2284 737 2584 
Q 422 2884 422 3419 
Q 422 4038 858 4394 
Q 1294 4750 2059 4750 
Q 2388 4750 2728 4690 
Q 3069 4631 3425 4513 
z
" transform="scale(0.015625)"/>
       <path id="DejaVuSans-54" d="M -19 4666 
L 3928 4666 
L 3928 4134 
L 2272 4134 
L 2272 0 
L 1638 0 
L 1638 4134 
L -19 4134 
L -19 4666 
z
" transform="scale(0.015625)"/>
       <path id="DejaVuSans-52" d="M 2841 2188 
Q 3044 2119 3236 1894 
Q 3428 1669 3622 1275 
L 4263 0 
L 3584 0 
L 2988 1197 
Q 2756 1666 2539 1819 
Q 2322 1972 1947 1972 
L 1259 1972 
L 1259 0 
L 628 0 
L 628 4666 
L 2053 4666 
Q 2853 4666 3247 4331 
Q 3641 3997 3641 3322 
Q 3641 2881 3436 2590 
Q 3231 2300 2841 2188 
z
M 1259 4147 
L 1259 2491 
L 2053 2491 
Q 2509 2491 2742 2702 
Q 2975 2913 2975 3322 
Q 2975 3731 2742 3939 
Q 2509 4147 2053 4147 
L 1259 4147 
z
" transform="scale(0.015625)"/>
      </defs>
      <use xlink:href="#DejaVuSans-50"/>
      <use xlink:href="#DejaVuSans-41" transform="translate(53.927734 0)"/>
      <use xlink:href="#DejaVuSans-20" transform="translate(122.335938 0)"/>
      <use xlink:href="#DejaVuSans-4d" transform="translate(154.123047 0)"/>
      <use xlink:href="#DejaVuSans-45" transform="translate(240.402344 0)"/>
      <use xlink:href="#DejaVuSans-53" transform="translate(303.585938 0)"/>
      <use xlink:href="#DejaVuSans-54" transform="translate(367.0625 0)"/>
      <use xlink:href="#DejaVuSans-52" transform="translate(428.146484 0)"/>
      <use xlink:href="#DejaVuSans-45" transform="translate(497.628906 0)"/>
     </g>
    </g>
   </g>
  </g>
 </g>
 <defs>
  <clipPath id="pc125ec5e19">
   <rect x="90" y="192.271955" width="558" height="488.096089"/>
  </clipPath>
 </defs>
</svg>
