<?xml version="1.0" encoding="utf-8" standalone="no"?>
<!DOCTYPE svg PUBLIC "-//W3C//DTD SVG 1.1//EN"
  "http://www.w3.org/Graphics/SVG/1.1/DTD/svg11.dtd">
<svg xmlns:xlink="http://www.w3.org/1999/xlink" width="720pt" height="864pt" viewBox="0 0 720 864" xmlns="http://www.w3.org/2000/svg" version="1.1">
 <metadata>
  <rdf:RDF xmlns:dc="http://purl.org/dc/elements/1.1/" xmlns:cc="http://creativecommons.org/ns#" xmlns:rdf="http://www.w3.org/1999/02/22-rdf-syntax-ns#">
   <cc:Work>
    <dc:type rdf:resource="http://purl.org/dc/dcmitype/StillImage"/>
    <dc:date>2025-06-16T17:43:31.760464</dc:date>
    <dc:format>image/svg+xml</dc:format>
    <dc:creator>
     <cc:Agent>
      <dc:title>Matplotlib v3.10.1, https://matplotlib.org/</dc:title>
     </cc:Agent>
    </dc:creator>
   </cc:Work>
  </rdf:RDF>
 </metadata>
 <defs>
  <style type="text/css">*{stroke-linejoin: round; stroke-linecap: butt}</style>
 </defs>
 <g id="figure_1">
  <g id="patch_1">
   <path d="M 0 864 
L 720 864 
L 720 0 
L 0 0 
z
" style="fill: #ffffff"/>
  </g>
  <g id="axes_1">
   <g id="patch_2">
    <path d="M 90 607.258837 
L 648 607.258837 
L 648 265.381163 
L 90 265.381163 
z
" style="fill: #ffffff"/>
   </g>
   <g id="PatchCollection_1">
    <path d="M 193.055579 488.629653 
L 199.613661 497.86979 
L 194.376076 501.673474 
L 176.007391 515.053909 
L 157.534275 528.439376 
L 139.375502 541.548223 
L 181.431993 589.032861 
L 178.006872 591.718943 
L 123.40876 529.362999 
L 122.904989 497.500131 
L 122.861623 494.750472 
L 126.145179 493.193865 
L 143.421652 511.940334 
L 193.055579 488.629653 
" clip-path="url(#pea2f01f0e2)" style="fill: #e0bd1f; stroke: #0000ff; stroke-width: 0.5"/>
    <path d="M 176.204463 456.603689 
L 177.590534 464.252365 
L 178.222679 467.727348 
L 178.635895 468.309674 
L 126.145179 493.193865 
L 122.861623 494.750472 
L 115.363636 498.462902 
L 119.471201 462.182041 
L 176.204463 456.603689 
" clip-path="url(#pea2f01f0e2)" style="fill: #e0bd1f; stroke: #0000ff; stroke-width: 0.5"/>
    <path d="M 178.635895 468.309674 
L 193.055579 488.629653 
L 143.421652 511.940334 
L 126.145179 493.193865 
L 178.635895 468.309674 
" clip-path="url(#pea2f01f0e2)" style="fill: #e0bd1f; stroke: #0000ff; stroke-width: 0.5"/>
    <path d="M 167.867205 410.3333 
L 173.546777 441.673405 
L 175.010255 449.996455 
L 163.398809 450.316891 
L 157.552661 449.353759 
L 154.838799 438.95973 
L 147.997601 412.756406 
L 167.867205 410.3333 
" clip-path="url(#pea2f01f0e2)" style="fill: #e0bd1f; stroke: #0000ff; stroke-width: 0.5"/>
    <path d="M 523.883744 361.152302 
L 530.572286 394.185952 
L 530.655209 394.617404 
L 530.706907 394.86133 
L 536.037818 422.184779 
L 535.830972 422.303251 
L 529.254912 422.745572 
L 522.06536 421.039513 
L 518.828993 420.467236 
L 509.278104 419.711029 
L 508.068971 420.194923 
L 507.484014 420.11589 
L 506.781786 419.885622 
L 503.858012 419.926929 
L 502.430998 419.610799 
L 501.41374 419.50841 
L 499.434382 419.90537 
L 497.915764 420.034349 
L 495.872218 420.026085 
L 495.813868 419.895636 
L 493.370768 420.627963 
L 491.970683 422.97105 
L 490.869225 423.992037 
L 489.659011 424.342008 
L 487.647152 424.508139 
L 485.305208 424.803754 
L 483.071073 425.945866 
L 481.066902 427.357806 
L 478.901038 429.102651 
L 478.654463 429.301174 
L 477.591136 430.392102 
L 476.312702 432.459398 
L 475.434725 434.472641 
L 474.826145 436.497873 
L 474.233149 439.578971 
L 473.401013 441.243508 
L 472.099279 443.41889 
L 471.611881 445.008456 
L 470.940858 446.972984 
L 470.015204 448.078186 
L 468.764736 448.154024 
L 467.914276 449.009382 
L 466.020812 451.946482 
L 465.324784 452.668146 
L 406.489984 420.79807 
L 406.255535 420.517532 
L 373.915791 403.1915 
L 370.5652 401.344497 
L 368.375318 410.52477 
L 364.622677 426.26401 
L 358.503492 452.328669 
L 349.659445 448.376857 
L 352.471858 433.698395 
L 343.575178 438.322427 
L 343.333349 438.467156 
L 328.96333 445.922861 
L 340.470711 466.409433 
L 340.716408 466.861483 
L 355.256182 487.658362 
L 373.396872 482.349604 
L 381.969794 488.661099 
L 378.933341 489.81894 
L 376.89008 490.525761 
L 375.408288 490.644471 
L 374.323794 490.618422 
L 372.932397 490.293488 
L 371.236769 489.772333 
L 369.677432 489.311472 
L 367.515515 489.717213 
L 364.97188 490.457832 
L 361.514068 492.410839 
L 359.337028 493.346844 
L 357.437013 494.624332 
L 355.678146 496.058943 
L 353.511198 498.048639 
L 351.261764 500.209058 
L 349.892932 501.939928 
L 348.380428 504.399105 
L 347.227948 506.704115 
L 345.816106 509.660564 
L 343.905027 515.695182 
L 343.079895 518.647213 
L 339.333989 522.426834 
L 338.626156 523.869778 
L 336.089225 529.041048 
L 335.649092 530.59526 
L 335.779687 532.636828 
L 337.503984 538.206665 
L 336.394029 542.965118 
L 335.459902 544.519146 
L 333.457537 546.105687 
L 332.258239 548.184256 
L 331.659867 549.221261 
L 330.771577 550.785675 
L 328.972089 551.763056 
L 321.383276 553.859977 
L 317.017726 555.409248 
L 314.507157 556.79931 
L 312.722135 557.99234 
L 310.448707 559.129372 
L 276.009619 517.201514 
L 275.715238 516.856963 
L 275.479486 516.578398 
L 238.545639 472.182064 
L 237.15945 470.517121 
L 225.155315 479.270494 
L 199.613661 497.86979 
L 178.635895 468.309674 
L 178.222679 467.727348 
L 177.590534 464.252365 
L 176.204463 456.603689 
L 173.546777 441.673405 
L 296.958843 415.410375 
L 311.334591 412.703187 
L 310.914511 410.233497 
L 326.575867 406.881394 
L 319.461317 368.261757 
L 319.007158 365.783353 
L 342.011808 388.921571 
L 347.815626 395.459111 
L 380.908609 388.889964 
L 417.952677 381.549154 
L 422.283342 380.697385 
L 431.62897 378.831122 
L 467.103087 372.398448 
L 486.247425 368.613103 
L 511.24566 363.660545 
L 523.883744 361.152302 
" clip-path="url(#pea2f01f0e2)" style="fill: #e0bd1f; stroke: #0000ff; stroke-width: 0.5"/>
    <path d="M 289.369311 506.900324 
L 321.383276 553.859977 
L 318.540326 554.282279 
L 315.747371 555.655728 
L 310.423835 559.037874 
L 276.009619 517.201514 
L 289.369311 506.900324 
" clip-path="url(#pea2f01f0e2)" style="fill: #e0bd1f; stroke: #0000ff; stroke-width: 0.5"/>
    <path d="M 297.625579 500.523247 
L 332.258239 548.184256 
L 331.659867 549.221261 
L 330.771577 550.785675 
L 328.972089 551.763056 
L 321.383276 553.859977 
L 289.369311 506.900324 
L 297.625579 500.523247 
" clip-path="url(#pea2f01f0e2)" style="fill: #e0bd1f; stroke: #0000ff; stroke-width: 0.5"/>
    <path d="M 305.844735 494.151069 
L 335.649092 530.59526 
L 335.779687 532.636828 
L 337.503984 538.206665 
L 336.394029 542.965118 
L 335.459902 544.519146 
L 333.457537 546.105687 
L 332.258239 548.184256 
L 297.625579 500.523247 
L 305.844735 494.151069 
" clip-path="url(#pea2f01f0e2)" style="fill: #e0bd1f; stroke: #0000ff; stroke-width: 0.5"/>
    <path d="M 309.786378 490.871436 
L 338.625923 523.869777 
L 336.089225 529.041048 
L 335.649092 530.59526 
L 305.844735 494.151069 
L 309.786378 490.871436 
" clip-path="url(#pea2f01f0e2)" style="fill: #e0bd1f; stroke: #0000ff; stroke-width: 0.5"/>
    <path d="M 315.451566 486.683585 
L 343.079895 518.647213 
L 339.333989 522.426834 
L 338.626156 523.869778 
L 309.786378 490.871436 
L 315.451566 486.683585 
" clip-path="url(#pea2f01f0e2)" style="fill: #e0bd1f; stroke: #0000ff; stroke-width: 0.5"/>
    <path d="M 322.379817 481.339411 
L 345.816106 509.660564 
L 343.905027 515.695182 
L 343.079895 518.647213 
L 315.451566 486.683585 
L 317.40489 485.146608 
L 322.379817 481.339411 
" clip-path="url(#pea2f01f0e2)" style="fill: #e0bd1f; stroke: #0000ff; stroke-width: 0.5"/>
    <path d="M 242.350029 466.575452 
L 281.67838 512.236413 
L 275.715238 516.856963 
L 275.479486 516.578398 
L 238.545639 472.182064 
L 237.15945 470.517121 
L 225.155315 479.270494 
L 218.388273 471.266 
L 242.350029 466.575452 
" clip-path="url(#pea2f01f0e2)" style="fill: #e0bd1f; stroke: #0000ff; stroke-width: 0.5"/>
    <path d="M 253.320166 464.562597 
L 288.68648 506.888566 
L 281.67838 512.236413 
L 242.350029 466.575452 
L 253.320166 464.562597 
" clip-path="url(#pea2f01f0e2)" style="fill: #e0bd1f; stroke: #0000ff; stroke-width: 0.5"/>
    <path d="M 334.491626 471.880219 
L 352.610855 483.870738 
L 355.256182 487.658362 
L 363.392735 491.378588 
L 361.514068 492.410839 
L 359.337028 493.346844 
L 357.437013 494.624332 
L 355.678146 496.058943 
L 353.511198 498.048639 
L 351.261764 500.209058 
L 349.892932 501.939928 
L 348.380428 504.399105 
L 347.227948 506.704115 
L 345.816106 509.660564 
L 322.379817 481.339411 
L 334.491626 471.880219 
" clip-path="url(#pea2f01f0e2)" style="fill: #e0bd1f; stroke: #0000ff; stroke-width: 0.5"/>
    <path d="M 265.369989 462.532387 
L 296.460668 500.756361 
L 288.68648 506.888566 
L 253.320166 464.562597 
L 265.369989 462.532387 
" clip-path="url(#pea2f01f0e2)" style="fill: #e0bd1f; stroke: #0000ff; stroke-width: 0.5"/>
    <path d="M 278.809346 460.491127 
L 290.258527 475.100529 
L 305.52906 493.766156 
L 296.460668 500.756361 
L 265.369989 462.532387 
L 278.809346 460.491127 
" clip-path="url(#pea2f01f0e2)" style="fill: #e0bd1f; stroke: #0000ff; stroke-width: 0.5"/>
    <path d="M 219.250043 456.711977 
L 221.803919 470.597333 
L 218.388273 471.266 
L 225.155315 479.270494 
L 212.181142 488.716839 
L 199.613661 497.86979 
L 178.635895 468.309674 
L 178.222679 467.727348 
L 177.590534 464.252365 
L 219.250043 456.711977 
" clip-path="url(#pea2f01f0e2)" style="fill: #e0bd1f; stroke: #0000ff; stroke-width: 0.5"/>
    <path d="M 370.387289 483.234146 
L 378.628097 489.629787 
L 378.933341 489.81894 
L 377.074444 490.620234 
L 376.743102 490.622019 
L 376.243841 490.646449 
L 375.59296 490.676272 
L 374.756112 490.65148 
L 374.085796 490.598675 
L 372.814561 490.310558 
L 371.709871 489.939463 
L 371.013888 489.685476 
L 370.456335 489.588842 
L 369.933479 489.515914 
L 369.373153 489.479624 
L 368.861052 489.521294 
L 368.518606 489.570878 
L 366.674205 490.057294 
L 365.534467 490.486948 
L 364.889832 490.742371 
L 363.712623 491.350576 
L 363.392735 491.378588 
L 355.256182 487.658362 
L 370.387289 483.234146 
" clip-path="url(#pea2f01f0e2)" style="fill: #e0bd1f; stroke: #0000ff; stroke-width: 0.5"/>
    <path d="M 360.752778 455.019419 
L 408.426769 484.59389 
L 401.409658 489.593148 
L 378.933341 489.81894 
L 378.628097 489.629787 
L 369.95776 482.900053 
L 368.709432 479.100326 
L 360.752778 455.019419 
" clip-path="url(#pea2f01f0e2)" style="fill: #e0bd1f; stroke: #0000ff; stroke-width: 0.5"/>
    <path d="M 312.308638 468.722187 
L 322.009124 480.880013 
L 316.955107 484.808718 
L 304.171687 475.520531 
L 312.308638 468.722187 
" clip-path="url(#pea2f01f0e2)" style="fill: #e0bd1f; stroke: #0000ff; stroke-width: 0.5"/>
    <path d="M 340.716408 466.861483 
L 352.610855 483.870738 
L 334.491626 471.880219 
L 340.716408 466.861483 
" clip-path="url(#pea2f01f0e2)" style="fill: #e0bd1f; stroke: #0000ff; stroke-width: 0.5"/>
    <path d="M 292.011134 443.209989 
L 333.990712 471.542529 
L 322.009124 480.880013 
L 312.308638 468.722187 
L 295.821524 447.959059 
L 292.011134 443.209989 
" clip-path="url(#pea2f01f0e2)" style="fill: #e0bd1f; stroke: #0000ff; stroke-width: 0.5"/>
    <path d="M 295.821524 447.959059 
L 312.308638 468.722187 
L 304.171687 475.520531 
L 301.572331 473.263444 
L 296.314364 469.645375 
L 290.258527 475.100529 
L 278.809346 460.491127 
L 295.821524 447.959059 
" clip-path="url(#pea2f01f0e2)" style="fill: #e0bd1f; stroke: #0000ff; stroke-width: 0.5"/>
    <path d="M 328.606971 417.817082 
L 338.629729 424.351026 
L 342.11173 432.331299 
L 342.791763 434.399114 
L 343.333349 438.467156 
L 328.96333 445.922861 
L 340.470711 466.409433 
L 333.990712 471.542529 
L 292.011134 443.209989 
L 291.628126 442.731794 
L 291.373472 442.779544 
L 283.459137 437.436529 
L 330.518332 428.957631 
L 328.606971 417.817082 
" clip-path="url(#pea2f01f0e2)" style="fill: #e0bd1f; stroke: #0000ff; stroke-width: 0.5"/>
    <path d="M 291.628126 442.731794 
L 292.011134 443.209989 
L 295.821524 447.959059 
L 278.809346 460.491127 
L 265.369989 462.532387 
L 253.320166 464.562597 
L 242.350029 466.575452 
L 221.803919 470.597333 
L 219.250043 456.711977 
L 223.638493 455.917264 
L 271.633283 446.485195 
L 291.373472 442.779544 
L 291.628126 442.731794 
" clip-path="url(#pea2f01f0e2)" style="fill: #e0bd1f; stroke: #0000ff; stroke-width: 0.5"/>
    <path d="M 219.394874 431.915929 
L 223.638493 455.917264 
L 219.250043 456.711977 
L 177.590534 464.252365 
L 176.204463 456.603689 
L 175.010255 449.996455 
L 173.546777 441.673405 
L 219.394874 431.915929 
" clip-path="url(#pea2f01f0e2)" style="fill: #e0bd1f; stroke: #0000ff; stroke-width: 0.5"/>
    <path d="M 339.00756 424.557602 
L 345.97817 425.425174 
L 364.622677 426.26401 
L 358.503492 452.328669 
L 348.291293 460.265462 
L 345.183301 451.691365 
L 343.575178 438.322427 
L 342.890299 433.555959 
L 339.00756 424.557602 
" clip-path="url(#pea2f01f0e2)" style="fill: #e0bd1f; stroke: #0000ff; stroke-width: 0.5"/>
    <path d="M 364.622677 426.26401 
L 385.10604 436.476267 
L 365.923402 446.597995 
L 358.503492 452.328669 
L 364.622677 426.26401 
" clip-path="url(#pea2f01f0e2)" style="fill: #e0bd1f; stroke: #0000ff; stroke-width: 0.5"/>
    <path d="M 279.772734 434.947821 
L 291.373472 442.779544 
L 271.633283 446.485195 
L 270.195165 436.730617 
L 279.772734 434.947821 
" clip-path="url(#pea2f01f0e2)" style="fill: #e0bd1f; stroke: #0000ff; stroke-width: 0.5"/>
    <path d="M 275.387542 373.984285 
L 284.483552 434.070902 
L 279.772734 434.947821 
L 270.195165 436.730617 
L 267.921733 421.59513 
L 261.169229 376.627538 
L 275.387542 373.984285 
" clip-path="url(#pea2f01f0e2)" style="fill: #e0bd1f; stroke: #0000ff; stroke-width: 0.5"/>
    <path d="M 284.773835 363.142806 
L 289.626679 371.546363 
L 296.958843 415.410375 
L 299.600418 431.282748 
L 284.483552 434.070902 
L 275.387542 373.984285 
L 271.275072 365.419978 
L 284.773835 363.142806 
" clip-path="url(#pea2f01f0e2)" style="fill: #e0bd1f; stroke: #0000ff; stroke-width: 0.5"/>
    <path d="M 311.334591 412.703187 
L 314.020086 428.708389 
L 299.600418 431.282748 
L 296.958843 415.410375 
L 311.334591 412.703187 
" clip-path="url(#pea2f01f0e2)" style="fill: #e0bd1f; stroke: #0000ff; stroke-width: 0.5"/>
    <path d="M 321.143345 367.93197 
L 342.011808 388.921571 
L 347.815626 395.459111 
L 380.908609 388.889964 
L 381.845379 393.689112 
L 383.051727 399.875668 
L 373.915791 403.1915 
L 370.5652 401.344497 
L 364.622677 426.26401 
L 345.97817 425.425174 
L 339.00756 424.557602 
L 331.707331 406.453804 
L 327.417971 395.816561 
L 326.77125 392.110597 
L 325.223155 382.326196 
L 324.546245 380.928379 
L 323.800988 379.962362 
L 321.359839 378.564182 
L 319.461317 368.261757 
L 321.143345 367.93197 
" clip-path="url(#pea2f01f0e2)" style="fill: #e0bd1f; stroke: #0000ff; stroke-width: 0.5"/>
    <path d="M 266.484459 412.02585 
L 267.921733 421.59513 
L 247.294973 425.978852 
L 245.457978 414.891764 
L 252.973018 413.863649 
L 266.484459 412.02585 
" clip-path="url(#pea2f01f0e2)" style="fill: #e0bd1f; stroke: #0000ff; stroke-width: 0.5"/>
    <path d="M 321.483451 379.218829 
L 322.491813 379.783902 
L 323.56324 380.448047 
L 324.433483 381.345296 
L 324.973463 382.673277 
L 326.936476 395.73524 
L 333.157461 411.723796 
L 338.629729 424.351026 
L 328.606971 417.817082 
L 326.575867 406.881394 
L 321.483451 379.218829 
" clip-path="url(#pea2f01f0e2)" style="fill: #e0bd1f; stroke: #0000ff; stroke-width: 0.5"/>
    <path d="M 303.903929 369.015073 
L 310.914511 410.233497 
L 311.334591 412.703187 
L 296.958843 415.410375 
L 289.626679 371.546363 
L 303.903929 369.015073 
" clip-path="url(#pea2f01f0e2)" style="fill: #e0bd1f; stroke: #0000ff; stroke-width: 0.5"/>
    <path d="M 389.383959 397.577946 
L 406.255535 420.517532 
L 399.248491 423.346948 
L 390.679126 433.44603 
L 385.10604 436.476267 
L 364.622677 426.26401 
L 370.5652 401.344497 
L 373.915791 403.1915 
L 383.051727 399.875668 
L 389.383959 397.577946 
" clip-path="url(#pea2f01f0e2)" style="fill: #e0bd1f; stroke: #0000ff; stroke-width: 0.5"/>
    <path d="M 415.680147 349.092812 
L 420.873328 373.949326 
L 382.115307 395.070415 
L 374.747431 357.287549 
L 408.372299 350.557453 
L 415.680147 349.092812 
" clip-path="url(#pea2f01f0e2)" style="fill: #e0bd1f; stroke: #0000ff; stroke-width: 0.5"/>
    <path d="M 420.873328 373.949326 
L 422.283342 380.697385 
L 417.952677 381.549154 
L 420.923289 386.131316 
L 389.383959 397.577946 
L 383.051727 399.875668 
L 382.115307 395.070415 
L 420.873328 373.949326 
" clip-path="url(#pea2f01f0e2)" style="fill: #e0bd1f; stroke: #0000ff; stroke-width: 0.5"/>
    <path d="M 443.454008 419.951359 
L 452.725601 433.822168 
L 465.324784 452.668146 
L 463.898502 453.704216 
L 462.653983 454.60844 
L 461.167303 456.183373 
L 459.429419 456.910482 
L 457.391768 457.678187 
L 455.296175 458.907167 
L 453.61346 460.472387 
L 452.658304 462.243472 
L 451.782586 464.205665 
L 450.360093 466.582794 
L 449.334841 468.141199 
L 424.886178 455.541039 
L 400.886453 443.169363 
L 386.747812 436.035116 
L 390.97196 433.818211 
L 399.527798 423.738166 
L 443.454008 419.951359 
" clip-path="url(#pea2f01f0e2)" style="fill: #e0bd1f; stroke: #0000ff; stroke-width: 0.5"/>
    <path d="M 420.923289 386.131316 
L 441.67326 417.278715 
L 441.976121 417.733254 
L 443.454008 419.951359 
L 399.527798 423.738166 
L 406.489984 420.79807 
L 406.255535 420.517532 
L 389.383959 397.577946 
L 420.923289 386.131316 
" clip-path="url(#pea2f01f0e2)" style="fill: #e0bd1f; stroke: #0000ff; stroke-width: 0.5"/>
    <path d="M 459.240329 341.219959 
L 464.049434 367.461008 
L 465.963569 366.795317 
L 467.103087 372.398448 
L 431.62897 378.831122 
L 422.283342 380.697385 
L 420.873328 373.949326 
L 415.680147 349.092812 
L 425.728922 347.333948 
L 442.868352 344.223243 
L 459.240329 341.219959 
" clip-path="url(#pea2f01f0e2)" style="fill: #e0bd1f; stroke: #0000ff; stroke-width: 0.5"/>
    <path d="M 467.103087 372.398448 
L 469.427534 383.863766 
L 451.636175 387.515852 
L 450.245945 382.006471 
L 423.884171 390.574825 
L 420.923289 386.131316 
L 417.952677 381.549154 
L 422.283342 380.697385 
L 467.103087 372.398448 
" clip-path="url(#pea2f01f0e2)" style="fill: #e0bd1f; stroke: #0000ff; stroke-width: 0.5"/>
    <path d="M 450.245945 382.006471 
L 451.636175 387.515852 
L 455.133102 401.373728 
L 435.030355 407.306658 
L 423.884171 390.574825 
L 450.245945 382.006471 
" clip-path="url(#pea2f01f0e2)" style="fill: #e0bd1f; stroke: #0000ff; stroke-width: 0.5"/>
    <path d="M 455.133102 401.373728 
L 455.47867 402.751435 
L 456.612163 407.107635 
L 438.536999 412.562763 
L 435.030355 407.306658 
L 455.133102 401.373728 
" clip-path="url(#pea2f01f0e2)" style="fill: #e0bd1f; stroke: #0000ff; stroke-width: 0.5"/>
    <path d="M 456.612163 407.107635 
L 456.809989 407.854883 
L 458.872902 416.408491 
L 441.653672 417.2484 
L 438.536999 412.562763 
L 456.612163 407.107635 
" clip-path="url(#pea2f01f0e2)" style="fill: #e0bd1f; stroke: #0000ff; stroke-width: 0.5"/>
    <path d="M 458.989137 416.887005 
L 461.539226 427.391325 
L 452.725601 433.822168 
L 443.454008 419.951359 
L 441.976121 417.733254 
L 441.921514 417.650042 
L 458.989137 416.887005 
" clip-path="url(#pea2f01f0e2)" style="fill: #e0bd1f; stroke: #0000ff; stroke-width: 0.5"/>
    <path d="M 507.726188 280.921057 
L 516.194594 322.972464 
L 523.883744 361.152302 
L 511.24566 363.660545 
L 486.247425 368.613103 
L 467.103087 372.398448 
L 465.963569 366.795317 
L 464.049434 367.461008 
L 459.240329 341.219959 
L 451.823878 302.627706 
L 449.849716 292.255223 
L 507.726188 280.921057 
" clip-path="url(#pea2f01f0e2)" style="fill: #e0bd1f; stroke: #0000ff; stroke-width: 0.5"/>
    <path d="M 469.427534 383.863766 
L 472.684723 399.929197 
L 455.47867 402.751435 
L 455.133102 401.373728 
L 451.636175 387.515852 
L 469.427534 383.863766 
" clip-path="url(#pea2f01f0e2)" style="fill: #e0bd1f; stroke: #0000ff; stroke-width: 0.5"/>
    <path d="M 476.384267 418.231656 
L 476.59575 419.259759 
L 478.654463 429.301174 
L 477.687078 429.721741 
L 476.064728 432.770291 
L 475.028036 435.737299 
L 474.041654 439.371421 
L 472.449144 442.885203 
L 471.443677 445.802989 
L 470.438547 447.4688 
L 467.430826 450.91109 
L 466.344172 452.537754 
L 465.324784 452.668146 
L 452.725601 433.822168 
L 461.539226 427.391325 
L 476.384267 418.231656 
" clip-path="url(#pea2f01f0e2)" style="fill: #e0bd1f; stroke: #0000ff; stroke-width: 0.5"/>
    <path d="M 472.684723 399.929197 
L 473.729609 405.081884 
L 456.809989 407.854883 
L 456.612163 407.107635 
L 455.47867 402.751435 
L 472.684723 399.929197 
" clip-path="url(#pea2f01f0e2)" style="fill: #e0bd1f; stroke: #0000ff; stroke-width: 0.5"/>
    <path d="M 486.247425 368.613103 
L 493.340851 406.583132 
L 491.132275 407.357388 
L 485.411585 409.413257 
L 478.338046 415.019254 
L 477.309451 415.542929 
L 475.883106 415.746959 
L 458.896156 416.502386 
L 456.809989 407.854883 
L 473.729609 405.081884 
L 467.103087 372.398448 
L 486.247425 368.613103 
" clip-path="url(#pea2f01f0e2)" style="fill: #e0bd1f; stroke: #0000ff; stroke-width: 0.5"/>
    <path d="M 475.967229 416.196535 
L 476.384267 418.231656 
L 461.539226 427.391325 
L 458.989137 416.887005 
L 475.967229 416.196535 
" clip-path="url(#pea2f01f0e2)" style="fill: #e0bd1f; stroke: #0000ff; stroke-width: 0.5"/>
    <path d="M 493.416493 407.076739 
L 494.505389 412.899108 
L 495.813868 419.895636 
L 493.370768 420.627963 
L 491.970683 422.97105 
L 490.869225 423.992037 
L 489.659011 424.342008 
L 487.647152 424.508139 
L 485.305208 424.803754 
L 483.071073 425.945866 
L 481.066902 427.357806 
L 478.901038 429.102651 
L 478.654463 429.301174 
L 476.59575 419.259759 
L 475.920782 415.967555 
L 477.471372 415.796626 
L 478.515239 415.305953 
L 485.664204 409.808839 
L 491.273279 407.80303 
L 493.416493 407.076739 
" clip-path="url(#pea2f01f0e2)" style="fill: #e0bd1f; stroke: #0000ff; stroke-width: 0.5"/>
    <path d="M 511.24566 363.660545 
L 513.115042 399.94213 
L 493.340851 406.583132 
L 486.247425 368.613103 
L 511.24566 363.660545 
" clip-path="url(#pea2f01f0e2)" style="fill: #e0bd1f; stroke: #0000ff; stroke-width: 0.5"/>
    <path d="M 523.883744 361.152302 
L 530.572286 394.185952 
L 513.115042 399.94213 
L 511.24566 363.660545 
L 523.883744 361.152302 
" clip-path="url(#pea2f01f0e2)" style="fill: #e0bd1f; stroke: #0000ff; stroke-width: 0.5"/>
    <path d="M 567.884896 315.032438 
L 572.764783 343.126825 
L 563.950109 352.329249 
L 564.3158 353.785265 
L 564.731801 355.96804 
L 565.479131 358.697576 
L 566.069647 360.778686 
L 565.734832 360.877118 
L 562.653906 361.913903 
L 561.936752 362.820636 
L 559.44147 373.120552 
L 558.855464 374.480645 
L 546.16813 392.178857 
L 544.607183 393.48039 
L 542.036622 393.723966 
L 536.19221 393.12259 
L 534.107384 393.001875 
L 530.572286 394.185952 
L 523.883744 361.152302 
L 516.194594 322.972464 
L 567.884896 315.032438 
" clip-path="url(#pea2f01f0e2)" style="fill: #e0bd1f; stroke: #0000ff; stroke-width: 0.5"/>
    <path d="M 621.611811 347.551284 
L 622.036481 347.562419 
L 622.445187 347.824309 
L 622.606175 348.046689 
L 622.494112 349.957513 
L 622.636364 350.791679 
L 621.01956 352.619513 
L 619.457239 354.219588 
L 615.15053 355.739194 
L 614.230759 358.026867 
L 612.081732 361.71272 
L 610.466677 366.27944 
L 609.678054 368.679202 
L 609.42234 370.854075 
L 609.176007 372.093466 
L 609.04105 373.48518 
L 608.512636 374.265817 
L 607.561289 375.244043 
L 607.500237 376.1982 
L 608.269076 376.137132 
L 610.384441 376.95261 
L 606.683161 377.084098 
L 605.671448 377.405983 
L 605.27141 377.523452 
L 601.020207 378.635674 
L 599.769444 379.287708 
L 597.445903 381.906242 
L 597.068772 382.363921 
L 593.861194 384.938626 
L 592.853654 386.295136 
L 591.637588 389.146111 
L 590.506519 390.58812 
L 588.700638 391.348272 
L 586.262948 394.205714 
L 584.819622 396.366568 
L 584.023367 398.240029 
L 581.878862 401.502694 
L 580.027179 403.150555 
L 578.330237 405.442897 
L 577.680743 406.10282 
L 575.096643 407.464361 
L 572.354328 411.195117 
L 570.66919 414.60867 
L 569.610989 416.139049 
L 569.334467 421.407025 
L 568.859487 423.129237 
L 567.294043 425.480501 
L 556.575302 429.010798 
L 555.715896 429.102401 
L 555.167373 429.011522 
L 554.401994 428.648679 
L 548.917027 426.033017 
L 546.814152 424.300381 
L 541.828797 422.618753 
L 537.586612 422.187663 
L 536.037818 422.184779 
L 530.706907 394.86133 
L 530.655209 394.617404 
L 534.218397 393.445911 
L 535.995489 393.538238 
L 541.953 394.188112 
L 544.716823 393.930529 
L 546.540403 392.454753 
L 559.274238 374.675361 
L 559.921996 373.147853 
L 562.344072 363.037985 
L 562.901976 362.283924 
L 565.737955 361.312165 
L 572.694001 359.634132 
L 573.128038 359.634494 
L 573.98883 359.852554 
L 584.147583 366.302435 
L 585.803581 366.715212 
L 590.303202 367.132657 
L 591.175448 366.361357 
L 611.193536 357.315924 
L 611.818399 356.764119 
L 612.336746 355.988512 
L 614.458007 351.966406 
L 615.223735 350.633615 
L 615.795852 350.041576 
L 616.483167 349.637788 
L 621.611811 347.551284 
" clip-path="url(#pea2f01f0e2)" style="fill: #e0bd1f; stroke: #0000ff; stroke-width: 0.5"/>
    <path d="M 530.655209 394.617404 
L 536.037818 422.184779 
L 529.254912 422.745572 
L 522.06536 421.039513 
L 518.828993 420.467236 
L 514.081652 418.828713 
L 513.139335 400.483161 
L 530.655209 394.617404 
" clip-path="url(#pea2f01f0e2)" style="fill: #e0bd1f; stroke: #0000ff; stroke-width: 0.5"/>
    <path d="M 512.251477 400.748633 
L 512.514822 406.476436 
L 512.817711 412.956502 
L 510.622545 417.145662 
L 509.278104 419.711029 
L 508.068971 420.194923 
L 507.484014 420.11589 
L 506.781786 419.885622 
L 503.858012 419.926929 
L 502.430998 419.610799 
L 501.41374 419.50841 
L 499.434382 419.90537 
L 497.915764 420.034349 
L 495.872218 420.026085 
L 493.416493 407.076739 
L 494.792509 406.614391 
L 512.251477 400.748633 
" clip-path="url(#pea2f01f0e2)" style="fill: #e0bd1f; stroke: #0000ff; stroke-width: 0.5"/>
    <path d="M 319.007158 365.783353 
L 319.461317 368.261757 
L 326.575867 406.881394 
L 310.914511 410.233497 
L 303.903929 369.015073 
L 319.007158 365.783353 
" clip-path="url(#pea2f01f0e2)" style="fill: #e0bd1f; stroke: #0000ff; stroke-width: 0.5"/>
    <path d="M 374.747431 357.287549 
L 380.908609 388.889964 
L 347.815626 395.459111 
L 342.011808 388.921571 
L 323.726046 367.421124 
L 337.226309 364.725355 
L 374.747431 357.287549 
" clip-path="url(#pea2f01f0e2)" style="fill: #e0bd1f; stroke: #0000ff; stroke-width: 0.5"/>
    <path d="M 367.418425 319.559997 
L 374.747431 357.287549 
L 337.226309 364.725355 
L 323.726046 367.421124 
L 319.007158 365.783353 
L 313.178359 333.934463 
L 312.459131 330.472063 
L 322.762222 328.394548 
L 367.418425 319.559997 
" clip-path="url(#pea2f01f0e2)" style="fill: #e0bd1f; stroke: #0000ff; stroke-width: 0.5"/>
   </g>
   <g id="PatchCollection_2">
    <path d="M 523.883744 361.152302 
L 530.706907 394.86133 
L 536.037818 422.184779 
L 535.830972 422.303251 
L 529.254912 422.745572 
L 522.06536 421.039513 
L 518.828993 420.467236 
L 509.278104 419.711029 
L 508.068971 420.194923 
L 507.484014 420.11589 
L 506.781786 419.885622 
L 503.858012 419.926929 
L 502.430998 419.610799 
L 501.41374 419.50841 
L 499.434382 419.90537 
L 497.915764 420.034349 
L 495.872218 420.026085 
L 495.813868 419.895636 
L 493.370768 420.627963 
L 491.970683 422.97105 
L 490.869225 423.992037 
L 489.659011 424.342008 
L 485.305208 424.803754 
L 483.071073 425.945866 
L 481.066902 427.357806 
L 478.654463 429.301174 
L 477.591136 430.392102 
L 476.312702 432.459398 
L 475.434725 434.472641 
L 474.826145 436.497873 
L 474.233149 439.578971 
L 473.401013 441.243508 
L 472.099279 443.41889 
L 470.940858 446.972984 
L 470.015204 448.078186 
L 468.764736 448.154024 
L 467.914276 449.009382 
L 466.020812 451.946482 
L 465.324784 452.668146 
L 406.489984 420.79807 
L 406.255535 420.517532 
L 370.5652 401.344497 
L 358.503492 452.328669 
L 349.659445 448.376857 
L 352.471858 433.698395 
L 328.96333 445.922861 
L 340.716408 466.861483 
L 355.256182 487.658362 
L 373.396872 482.349604 
L 381.969794 488.661099 
L 376.89008 490.525761 
L 375.408288 490.644471 
L 374.323794 490.618422 
L 372.932397 490.293488 
L 369.677432 489.311472 
L 367.515515 489.717213 
L 364.97188 490.457832 
L 361.514068 492.410839 
L 359.337028 493.346844 
L 357.437013 494.624332 
L 355.678146 496.058943 
L 351.261764 500.209058 
L 349.892932 501.939928 
L 348.380428 504.399105 
L 345.816106 509.660564 
L 343.079895 518.647213 
L 339.333989 522.426834 
L 336.089225 529.041048 
L 335.649092 530.59526 
L 335.779687 532.636828 
L 337.503984 538.206665 
L 336.394029 542.965118 
L 335.459902 544.519146 
L 333.457537 546.105687 
L 330.771577 550.785675 
L 328.972089 551.763056 
L 321.383276 553.859977 
L 317.017726 555.409248 
L 314.507157 556.79931 
L 312.722135 557.99234 
L 310.448707 559.129372 
L 275.479486 516.578398 
L 237.15945 470.517121 
L 199.613661 497.86979 
L 178.222679 467.727348 
L 173.546777 441.673405 
L 296.958843 415.410375 
L 311.334591 412.703187 
L 310.914511 410.233497 
L 326.575867 406.881394 
L 319.007158 365.783353 
L 342.011808 388.921571 
L 347.815626 395.459111 
L 431.62897 378.831122 
L 467.103087 372.398448 
L 523.883744 361.152302 
L 523.883744 361.152302 
" clip-path="url(#pea2f01f0e2)" style="fill: none; stroke: #000000"/>
   </g>
   <g id="matplotlib.axis_1">
    <g id="xtick_1">
     <g id="line2d_1">
      <path d="M 143.898018 607.258837 
L 143.898018 265.381163 
" clip-path="url(#pea2f01f0e2)" style="fill: none; stroke: #b0b0b0; stroke-width: 0.8; stroke-linecap: square"/>
     </g>
     <g id="line2d_2">
      <defs>
       <path id="m2492fdfd4e" d="M 0 0 
L 0 3.5 
" style="stroke: #000000; stroke-width: 0.8"/>
      </defs>
      <g>
       <use xlink:href="#m2492fdfd4e" x="143.898018" y="607.258837" style="stroke: #000000; stroke-width: 0.8"/>
      </g>
     </g>
     <g id="text_1">
      <!-- −51.70 -->
      <g transform="translate(132.764953 645.800219) rotate(-45) scale(0.1 -0.1)">
       <defs>
        <path id="DejaVuSans-2212" d="M 678 2272 
L 4684 2272 
L 4684 1741 
L 678 1741 
L 678 2272 
z
" transform="scale(0.015625)"/>
        <path id="DejaVuSans-35" d="M 691 4666 
L 3169 4666 
L 3169 4134 
L 1269 4134 
L 1269 2991 
Q 1406 3038 1543 3061 
Q 1681 3084 1819 3084 
Q 2600 3084 3056 2656 
Q 3513 2228 3513 1497 
Q 3513 744 3044 326 
Q 2575 -91 1722 -91 
Q 1428 -91 1123 -41 
Q 819 9 494 109 
L 494 744 
Q 775 591 1075 516 
Q 1375 441 1709 441 
Q 2250 441 2565 725 
Q 2881 1009 2881 1497 
Q 2881 1984 2565 2268 
Q 2250 2553 1709 2553 
Q 1456 2553 1204 2497 
Q 953 2441 691 2322 
L 691 4666 
z
" transform="scale(0.015625)"/>
        <path id="DejaVuSans-31" d="M 794 531 
L 1825 531 
L 1825 4091 
L 703 3866 
L 703 4441 
L 1819 4666 
L 2450 4666 
L 2450 531 
L 3481 531 
L 3481 0 
L 794 0 
L 794 531 
z
" transform="scale(0.015625)"/>
        <path id="DejaVuSans-2e" d="M 684 794 
L 1344 794 
L 1344 0 
L 684 0 
L 684 794 
z
" transform="scale(0.015625)"/>
        <path id="DejaVuSans-37" d="M 525 4666 
L 3525 4666 
L 3525 4397 
L 1831 0 
L 1172 0 
L 2766 4134 
L 525 4134 
L 525 4666 
z
" transform="scale(0.015625)"/>
        <path id="DejaVuSans-30" d="M 2034 4250 
Q 1547 4250 1301 3770 
Q 1056 3291 1056 2328 
Q 1056 1369 1301 889 
Q 1547 409 2034 409 
Q 2525 409 2770 889 
Q 3016 1369 3016 2328 
Q 3016 3291 2770 3770 
Q 2525 4250 2034 4250 
z
M 2034 4750 
Q 2819 4750 3233 4129 
Q 3647 3509 3647 2328 
Q 3647 1150 3233 529 
Q 2819 -91 2034 -91 
Q 1250 -91 836 529 
Q 422 1150 422 2328 
Q 422 3509 836 4129 
Q 1250 4750 2034 4750 
z
" transform="scale(0.015625)"/>
       </defs>
       <use xlink:href="#DejaVuSans-2212"/>
       <use xlink:href="#DejaVuSans-35" transform="translate(83.789062 0)"/>
       <use xlink:href="#DejaVuSans-31" transform="translate(147.412109 0)"/>
       <use xlink:href="#DejaVuSans-2e" transform="translate(211.035156 0)"/>
       <use xlink:href="#DejaVuSans-37" transform="translate(242.822266 0)"/>
       <use xlink:href="#DejaVuSans-30" transform="translate(306.445312 0)"/>
      </g>
     </g>
    </g>
    <g id="xtick_2">
     <g id="line2d_3">
      <path d="M 206.349391 607.258837 
L 206.349391 265.381163 
" clip-path="url(#pea2f01f0e2)" style="fill: none; stroke: #b0b0b0; stroke-width: 0.8; stroke-linecap: square"/>
     </g>
     <g id="line2d_4">
      <g>
       <use xlink:href="#m2492fdfd4e" x="206.349391" y="607.258837" style="stroke: #000000; stroke-width: 0.8"/>
      </g>
     </g>
     <g id="text_2">
      <!-- −51.65 -->
      <g transform="translate(195.216326 645.800219) rotate(-45) scale(0.1 -0.1)">
       <defs>
        <path id="DejaVuSans-36" d="M 2113 2584 
Q 1688 2584 1439 2293 
Q 1191 2003 1191 1497 
Q 1191 994 1439 701 
Q 1688 409 2113 409 
Q 2538 409 2786 701 
Q 3034 994 3034 1497 
Q 3034 2003 2786 2293 
Q 2538 2584 2113 2584 
z
M 3366 4563 
L 3366 3988 
Q 3128 4100 2886 4159 
Q 2644 4219 2406 4219 
Q 1781 4219 1451 3797 
Q 1122 3375 1075 2522 
Q 1259 2794 1537 2939 
Q 1816 3084 2150 3084 
Q 2853 3084 3261 2657 
Q 3669 2231 3669 1497 
Q 3669 778 3244 343 
Q 2819 -91 2113 -91 
Q 1303 -91 875 529 
Q 447 1150 447 2328 
Q 447 3434 972 4092 
Q 1497 4750 2381 4750 
Q 2619 4750 2861 4703 
Q 3103 4656 3366 4563 
z
" transform="scale(0.015625)"/>
       </defs>
       <use xlink:href="#DejaVuSans-2212"/>
       <use xlink:href="#DejaVuSans-35" transform="translate(83.789062 0)"/>
       <use xlink:href="#DejaVuSans-31" transform="translate(147.412109 0)"/>
       <use xlink:href="#DejaVuSans-2e" transform="translate(211.035156 0)"/>
       <use xlink:href="#DejaVuSans-36" transform="translate(242.822266 0)"/>
       <use xlink:href="#DejaVuSans-35" transform="translate(306.445312 0)"/>
      </g>
     </g>
    </g>
    <g id="xtick_3">
     <g id="line2d_5">
      <path d="M 268.800763 607.258837 
L 268.800763 265.381163 
" clip-path="url(#pea2f01f0e2)" style="fill: none; stroke: #b0b0b0; stroke-width: 0.8; stroke-linecap: square"/>
     </g>
     <g id="line2d_6">
      <g>
       <use xlink:href="#m2492fdfd4e" x="268.800763" y="607.258837" style="stroke: #000000; stroke-width: 0.8"/>
      </g>
     </g>
     <g id="text_3">
      <!-- −51.60 -->
      <g transform="translate(257.667699 645.800219) rotate(-45) scale(0.1 -0.1)">
       <use xlink:href="#DejaVuSans-2212"/>
       <use xlink:href="#DejaVuSans-35" transform="translate(83.789062 0)"/>
       <use xlink:href="#DejaVuSans-31" transform="translate(147.412109 0)"/>
       <use xlink:href="#DejaVuSans-2e" transform="translate(211.035156 0)"/>
       <use xlink:href="#DejaVuSans-36" transform="translate(242.822266 0)"/>
       <use xlink:href="#DejaVuSans-30" transform="translate(306.445312 0)"/>
      </g>
     </g>
    </g>
    <g id="xtick_4">
     <g id="line2d_7">
      <path d="M 331.252136 607.258837 
L 331.252136 265.381163 
" clip-path="url(#pea2f01f0e2)" style="fill: none; stroke: #b0b0b0; stroke-width: 0.8; stroke-linecap: square"/>
     </g>
     <g id="line2d_8">
      <g>
       <use xlink:href="#m2492fdfd4e" x="331.252136" y="607.258837" style="stroke: #000000; stroke-width: 0.8"/>
      </g>
     </g>
     <g id="text_4">
      <!-- −51.55 -->
      <g transform="translate(320.119071 645.800219) rotate(-45) scale(0.1 -0.1)">
       <use xlink:href="#DejaVuSans-2212"/>
       <use xlink:href="#DejaVuSans-35" transform="translate(83.789062 0)"/>
       <use xlink:href="#DejaVuSans-31" transform="translate(147.412109 0)"/>
       <use xlink:href="#DejaVuSans-2e" transform="translate(211.035156 0)"/>
       <use xlink:href="#DejaVuSans-35" transform="translate(242.822266 0)"/>
       <use xlink:href="#DejaVuSans-35" transform="translate(306.445312 0)"/>
      </g>
     </g>
    </g>
    <g id="xtick_5">
     <g id="line2d_9">
      <path d="M 393.703508 607.258837 
L 393.703508 265.381163 
" clip-path="url(#pea2f01f0e2)" style="fill: none; stroke: #b0b0b0; stroke-width: 0.8; stroke-linecap: square"/>
     </g>
     <g id="line2d_10">
      <g>
       <use xlink:href="#m2492fdfd4e" x="393.703508" y="607.258837" style="stroke: #000000; stroke-width: 0.8"/>
      </g>
     </g>
     <g id="text_5">
      <!-- −51.50 -->
      <g transform="translate(382.570444 645.800219) rotate(-45) scale(0.1 -0.1)">
       <use xlink:href="#DejaVuSans-2212"/>
       <use xlink:href="#DejaVuSans-35" transform="translate(83.789062 0)"/>
       <use xlink:href="#DejaVuSans-31" transform="translate(147.412109 0)"/>
       <use xlink:href="#DejaVuSans-2e" transform="translate(211.035156 0)"/>
       <use xlink:href="#DejaVuSans-35" transform="translate(242.822266 0)"/>
       <use xlink:href="#DejaVuSans-30" transform="translate(306.445312 0)"/>
      </g>
     </g>
    </g>
    <g id="xtick_6">
     <g id="line2d_11">
      <path d="M 456.154881 607.258837 
L 456.154881 265.381163 
" clip-path="url(#pea2f01f0e2)" style="fill: none; stroke: #b0b0b0; stroke-width: 0.8; stroke-linecap: square"/>
     </g>
     <g id="line2d_12">
      <g>
       <use xlink:href="#m2492fdfd4e" x="456.154881" y="607.258837" style="stroke: #000000; stroke-width: 0.8"/>
      </g>
     </g>
     <g id="text_6">
      <!-- −51.45 -->
      <g transform="translate(445.021816 645.800219) rotate(-45) scale(0.1 -0.1)">
       <defs>
        <path id="DejaVuSans-34" d="M 2419 4116 
L 825 1625 
L 2419 1625 
L 2419 4116 
z
M 2253 4666 
L 3047 4666 
L 3047 1625 
L 3713 1625 
L 3713 1100 
L 3047 1100 
L 3047 0 
L 2419 0 
L 2419 1100 
L 313 1100 
L 313 1709 
L 2253 4666 
z
" transform="scale(0.015625)"/>
       </defs>
       <use xlink:href="#DejaVuSans-2212"/>
       <use xlink:href="#DejaVuSans-35" transform="translate(83.789062 0)"/>
       <use xlink:href="#DejaVuSans-31" transform="translate(147.412109 0)"/>
       <use xlink:href="#DejaVuSans-2e" transform="translate(211.035156 0)"/>
       <use xlink:href="#DejaVuSans-34" transform="translate(242.822266 0)"/>
       <use xlink:href="#DejaVuSans-35" transform="translate(306.445312 0)"/>
      </g>
     </g>
    </g>
    <g id="xtick_7">
     <g id="line2d_13">
      <path d="M 518.606254 607.258837 
L 518.606254 265.381163 
" clip-path="url(#pea2f01f0e2)" style="fill: none; stroke: #b0b0b0; stroke-width: 0.8; stroke-linecap: square"/>
     </g>
     <g id="line2d_14">
      <g>
       <use xlink:href="#m2492fdfd4e" x="518.606254" y="607.258837" style="stroke: #000000; stroke-width: 0.8"/>
      </g>
     </g>
     <g id="text_7">
      <!-- −51.40 -->
      <g transform="translate(507.473189 645.800219) rotate(-45) scale(0.1 -0.1)">
       <use xlink:href="#DejaVuSans-2212"/>
       <use xlink:href="#DejaVuSans-35" transform="translate(83.789062 0)"/>
       <use xlink:href="#DejaVuSans-31" transform="translate(147.412109 0)"/>
       <use xlink:href="#DejaVuSans-2e" transform="translate(211.035156 0)"/>
       <use xlink:href="#DejaVuSans-34" transform="translate(242.822266 0)"/>
       <use xlink:href="#DejaVuSans-30" transform="translate(306.445312 0)"/>
      </g>
     </g>
    </g>
    <g id="xtick_8">
     <g id="line2d_15">
      <path d="M 581.057626 607.258837 
L 581.057626 265.381163 
" clip-path="url(#pea2f01f0e2)" style="fill: none; stroke: #b0b0b0; stroke-width: 0.8; stroke-linecap: square"/>
     </g>
     <g id="line2d_16">
      <g>
       <use xlink:href="#m2492fdfd4e" x="581.057626" y="607.258837" style="stroke: #000000; stroke-width: 0.8"/>
      </g>
     </g>
     <g id="text_8">
      <!-- −51.35 -->
      <g transform="translate(569.924561 645.800219) rotate(-45) scale(0.1 -0.1)">
       <defs>
        <path id="DejaVuSans-33" d="M 2597 2516 
Q 3050 2419 3304 2112 
Q 3559 1806 3559 1356 
Q 3559 666 3084 287 
Q 2609 -91 1734 -91 
Q 1441 -91 1130 -33 
Q 819 25 488 141 
L 488 750 
Q 750 597 1062 519 
Q 1375 441 1716 441 
Q 2309 441 2620 675 
Q 2931 909 2931 1356 
Q 2931 1769 2642 2001 
Q 2353 2234 1838 2234 
L 1294 2234 
L 1294 2753 
L 1863 2753 
Q 2328 2753 2575 2939 
Q 2822 3125 2822 3475 
Q 2822 3834 2567 4026 
Q 2313 4219 1838 4219 
Q 1578 4219 1281 4162 
Q 984 4106 628 3988 
L 628 4550 
Q 988 4650 1302 4700 
Q 1616 4750 1894 4750 
Q 2613 4750 3031 4423 
Q 3450 4097 3450 3541 
Q 3450 3153 3228 2886 
Q 3006 2619 2597 2516 
z
" transform="scale(0.015625)"/>
       </defs>
       <use xlink:href="#DejaVuSans-2212"/>
       <use xlink:href="#DejaVuSans-35" transform="translate(83.789062 0)"/>
       <use xlink:href="#DejaVuSans-31" transform="translate(147.412109 0)"/>
       <use xlink:href="#DejaVuSans-2e" transform="translate(211.035156 0)"/>
       <use xlink:href="#DejaVuSans-33" transform="translate(242.822266 0)"/>
       <use xlink:href="#DejaVuSans-35" transform="translate(306.445312 0)"/>
      </g>
     </g>
    </g>
    <g id="xtick_9">
     <g id="line2d_17">
      <path d="M 643.508999 607.258837 
L 643.508999 265.381163 
" clip-path="url(#pea2f01f0e2)" style="fill: none; stroke: #b0b0b0; stroke-width: 0.8; stroke-linecap: square"/>
     </g>
     <g id="line2d_18">
      <g>
       <use xlink:href="#m2492fdfd4e" x="643.508999" y="607.258837" style="stroke: #000000; stroke-width: 0.8"/>
      </g>
     </g>
     <g id="text_9">
      <!-- −51.30 -->
      <g transform="translate(632.375934 645.800219) rotate(-45) scale(0.1 -0.1)">
       <use xlink:href="#DejaVuSans-2212"/>
       <use xlink:href="#DejaVuSans-35" transform="translate(83.789062 0)"/>
       <use xlink:href="#DejaVuSans-31" transform="translate(147.412109 0)"/>
       <use xlink:href="#DejaVuSans-2e" transform="translate(211.035156 0)"/>
       <use xlink:href="#DejaVuSans-33" transform="translate(242.822266 0)"/>
       <use xlink:href="#DejaVuSans-30" transform="translate(306.445312 0)"/>
      </g>
     </g>
    </g>
    <g id="text_10">
     <!-- Longitude (°) -->
     <g transform="translate(336.139844 658.869218) scale(0.1 -0.1)">
      <defs>
       <path id="DejaVuSans-4c" d="M 628 4666 
L 1259 4666 
L 1259 531 
L 3531 531 
L 3531 0 
L 628 0 
L 628 4666 
z
" transform="scale(0.015625)"/>
       <path id="DejaVuSans-6f" d="M 1959 3097 
Q 1497 3097 1228 2736 
Q 959 2375 959 1747 
Q 959 1119 1226 758 
Q 1494 397 1959 397 
Q 2419 397 2687 759 
Q 2956 1122 2956 1747 
Q 2956 2369 2687 2733 
Q 2419 3097 1959 3097 
z
M 1959 3584 
Q 2709 3584 3137 3096 
Q 3566 2609 3566 1747 
Q 3566 888 3137 398 
Q 2709 -91 1959 -91 
Q 1206 -91 779 398 
Q 353 888 353 1747 
Q 353 2609 779 3096 
Q 1206 3584 1959 3584 
z
" transform="scale(0.015625)"/>
       <path id="DejaVuSans-6e" d="M 3513 2113 
L 3513 0 
L 2938 0 
L 2938 2094 
Q 2938 2591 2744 2837 
Q 2550 3084 2163 3084 
Q 1697 3084 1428 2787 
Q 1159 2491 1159 1978 
L 1159 0 
L 581 0 
L 581 3500 
L 1159 3500 
L 1159 2956 
Q 1366 3272 1645 3428 
Q 1925 3584 2291 3584 
Q 2894 3584 3203 3211 
Q 3513 2838 3513 2113 
z
" transform="scale(0.015625)"/>
       <path id="DejaVuSans-67" d="M 2906 1791 
Q 2906 2416 2648 2759 
Q 2391 3103 1925 3103 
Q 1463 3103 1205 2759 
Q 947 2416 947 1791 
Q 947 1169 1205 825 
Q 1463 481 1925 481 
Q 2391 481 2648 825 
Q 2906 1169 2906 1791 
z
M 3481 434 
Q 3481 -459 3084 -895 
Q 2688 -1331 1869 -1331 
Q 1566 -1331 1297 -1286 
Q 1028 -1241 775 -1147 
L 775 -588 
Q 1028 -725 1275 -790 
Q 1522 -856 1778 -856 
Q 2344 -856 2625 -561 
Q 2906 -266 2906 331 
L 2906 616 
Q 2728 306 2450 153 
Q 2172 0 1784 0 
Q 1141 0 747 490 
Q 353 981 353 1791 
Q 353 2603 747 3093 
Q 1141 3584 1784 3584 
Q 2172 3584 2450 3431 
Q 2728 3278 2906 2969 
L 2906 3500 
L 3481 3500 
L 3481 434 
z
" transform="scale(0.015625)"/>
       <path id="DejaVuSans-69" d="M 603 3500 
L 1178 3500 
L 1178 0 
L 603 0 
L 603 3500 
z
M 603 4863 
L 1178 4863 
L 1178 4134 
L 603 4134 
L 603 4863 
z
" transform="scale(0.015625)"/>
       <path id="DejaVuSans-74" d="M 1172 4494 
L 1172 3500 
L 2356 3500 
L 2356 3053 
L 1172 3053 
L 1172 1153 
Q 1172 725 1289 603 
Q 1406 481 1766 481 
L 2356 481 
L 2356 0 
L 1766 0 
Q 1100 0 847 248 
Q 594 497 594 1153 
L 594 3053 
L 172 3053 
L 172 3500 
L 594 3500 
L 594 4494 
L 1172 4494 
z
" transform="scale(0.015625)"/>
       <path id="DejaVuSans-75" d="M 544 1381 
L 544 3500 
L 1119 3500 
L 1119 1403 
Q 1119 906 1312 657 
Q 1506 409 1894 409 
Q 2359 409 2629 706 
Q 2900 1003 2900 1516 
L 2900 3500 
L 3475 3500 
L 3475 0 
L 2900 0 
L 2900 538 
Q 2691 219 2414 64 
Q 2138 -91 1772 -91 
Q 1169 -91 856 284 
Q 544 659 544 1381 
z
M 1991 3584 
L 1991 3584 
z
" transform="scale(0.015625)"/>
       <path id="DejaVuSans-64" d="M 2906 2969 
L 2906 4863 
L 3481 4863 
L 3481 0 
L 2906 0 
L 2906 525 
Q 2725 213 2448 61 
Q 2172 -91 1784 -91 
Q 1150 -91 751 415 
Q 353 922 353 1747 
Q 353 2572 751 3078 
Q 1150 3584 1784 3584 
Q 2172 3584 2448 3432 
Q 2725 3281 2906 2969 
z
M 947 1747 
Q 947 1113 1208 752 
Q 1469 391 1925 391 
Q 2381 391 2643 752 
Q 2906 1113 2906 1747 
Q 2906 2381 2643 2742 
Q 2381 3103 1925 3103 
Q 1469 3103 1208 2742 
Q 947 2381 947 1747 
z
" transform="scale(0.015625)"/>
       <path id="DejaVuSans-65" d="M 3597 1894 
L 3597 1613 
L 953 1613 
Q 991 1019 1311 708 
Q 1631 397 2203 397 
Q 2534 397 2845 478 
Q 3156 559 3463 722 
L 3463 178 
Q 3153 47 2828 -22 
Q 2503 -91 2169 -91 
Q 1331 -91 842 396 
Q 353 884 353 1716 
Q 353 2575 817 3079 
Q 1281 3584 2069 3584 
Q 2775 3584 3186 3129 
Q 3597 2675 3597 1894 
z
M 3022 2063 
Q 3016 2534 2758 2815 
Q 2500 3097 2075 3097 
Q 1594 3097 1305 2825 
Q 1016 2553 972 2059 
L 3022 2063 
z
" transform="scale(0.015625)"/>
       <path id="DejaVuSans-20" transform="scale(0.015625)"/>
       <path id="DejaVuSans-28" d="M 1984 4856 
Q 1566 4138 1362 3434 
Q 1159 2731 1159 2009 
Q 1159 1288 1364 580 
Q 1569 -128 1984 -844 
L 1484 -844 
Q 1016 -109 783 600 
Q 550 1309 550 2009 
Q 550 2706 781 3412 
Q 1013 4119 1484 4856 
L 1984 4856 
z
" transform="scale(0.015625)"/>
       <path id="DejaVuSans-b0" d="M 1600 4347 
Q 1350 4347 1178 4173 
Q 1006 4000 1006 3750 
Q 1006 3503 1178 3333 
Q 1350 3163 1600 3163 
Q 1850 3163 2022 3333 
Q 2194 3503 2194 3750 
Q 2194 3997 2020 4172 
Q 1847 4347 1600 4347 
z
M 1600 4750 
Q 1800 4750 1984 4673 
Q 2169 4597 2303 4453 
Q 2447 4313 2519 4134 
Q 2591 3956 2591 3750 
Q 2591 3338 2302 3052 
Q 2013 2766 1594 2766 
Q 1172 2766 890 3047 
Q 609 3328 609 3750 
Q 609 4169 896 4459 
Q 1184 4750 1600 4750 
z
" transform="scale(0.015625)"/>
       <path id="DejaVuSans-29" d="M 513 4856 
L 1013 4856 
Q 1481 4119 1714 3412 
Q 1947 2706 1947 2009 
Q 1947 1309 1714 600 
Q 1481 -109 1013 -844 
L 513 -844 
Q 928 -128 1133 580 
Q 1338 1288 1338 2009 
Q 1338 2731 1133 3434 
Q 928 4138 513 4856 
z
" transform="scale(0.015625)"/>
      </defs>
      <use xlink:href="#DejaVuSans-4c"/>
      <use xlink:href="#DejaVuSans-6f" transform="translate(53.962891 0)"/>
      <use xlink:href="#DejaVuSans-6e" transform="translate(115.144531 0)"/>
      <use xlink:href="#DejaVuSans-67" transform="translate(178.523438 0)"/>
      <use xlink:href="#DejaVuSans-69" transform="translate(242 0)"/>
      <use xlink:href="#DejaVuSans-74" transform="translate(269.783203 0)"/>
      <use xlink:href="#DejaVuSans-75" transform="translate(308.992188 0)"/>
      <use xlink:href="#DejaVuSans-64" transform="translate(372.371094 0)"/>
      <use xlink:href="#DejaVuSans-65" transform="translate(435.847656 0)"/>
      <use xlink:href="#DejaVuSans-20" transform="translate(497.371094 0)"/>
      <use xlink:href="#DejaVuSans-28" transform="translate(529.158203 0)"/>
      <use xlink:href="#DejaVuSans-b0" transform="translate(568.171875 0)"/>
      <use xlink:href="#DejaVuSans-29" transform="translate(618.171875 0)"/>
     </g>
    </g>
   </g>
   <g id="matplotlib.axis_2">
    <g id="ytick_1">
     <g id="line2d_19">
      <path d="M 90 548.15115 
L 648 548.15115 
" clip-path="url(#pea2f01f0e2)" style="fill: none; stroke: #b0b0b0; stroke-width: 0.8; stroke-linecap: square"/>
     </g>
     <g id="line2d_20">
      <defs>
       <path id="mff0edbd229" d="M 0 0 
L -3.5 0 
" style="stroke: #000000; stroke-width: 0.8"/>
      </defs>
      <g>
       <use xlink:href="#mff0edbd229" x="90" y="548.15115" style="stroke: #000000; stroke-width: 0.8"/>
      </g>
     </g>
     <g id="text_11">
      <!-- −15.10 -->
      <g transform="translate(45.992188 551.950369) scale(0.1 -0.1)">
       <use xlink:href="#DejaVuSans-2212"/>
       <use xlink:href="#DejaVuSans-31" transform="translate(83.789062 0)"/>
       <use xlink:href="#DejaVuSans-35" transform="translate(147.412109 0)"/>
       <use xlink:href="#DejaVuSans-2e" transform="translate(211.035156 0)"/>
       <use xlink:href="#DejaVuSans-31" transform="translate(242.822266 0)"/>
       <use xlink:href="#DejaVuSans-30" transform="translate(306.445312 0)"/>
      </g>
     </g>
    </g>
    <g id="ytick_2">
     <g id="line2d_21">
      <path d="M 90 483.487061 
L 648 483.487061 
" clip-path="url(#pea2f01f0e2)" style="fill: none; stroke: #b0b0b0; stroke-width: 0.8; stroke-linecap: square"/>
     </g>
     <g id="line2d_22">
      <g>
       <use xlink:href="#mff0edbd229" x="90" y="483.487061" style="stroke: #000000; stroke-width: 0.8"/>
      </g>
     </g>
     <g id="text_12">
      <!-- −15.05 -->
      <g transform="translate(45.992188 487.286279) scale(0.1 -0.1)">
       <use xlink:href="#DejaVuSans-2212"/>
       <use xlink:href="#DejaVuSans-31" transform="translate(83.789062 0)"/>
       <use xlink:href="#DejaVuSans-35" transform="translate(147.412109 0)"/>
       <use xlink:href="#DejaVuSans-2e" transform="translate(211.035156 0)"/>
       <use xlink:href="#DejaVuSans-30" transform="translate(242.822266 0)"/>
       <use xlink:href="#DejaVuSans-35" transform="translate(306.445312 0)"/>
      </g>
     </g>
    </g>
    <g id="ytick_3">
     <g id="line2d_23">
      <path d="M 90 418.822971 
L 648 418.822971 
" clip-path="url(#pea2f01f0e2)" style="fill: none; stroke: #b0b0b0; stroke-width: 0.8; stroke-linecap: square"/>
     </g>
     <g id="line2d_24">
      <g>
       <use xlink:href="#mff0edbd229" x="90" y="418.822971" style="stroke: #000000; stroke-width: 0.8"/>
      </g>
     </g>
     <g id="text_13">
      <!-- −15.00 -->
      <g transform="translate(45.992188 422.622189) scale(0.1 -0.1)">
       <use xlink:href="#DejaVuSans-2212"/>
       <use xlink:href="#DejaVuSans-31" transform="translate(83.789062 0)"/>
       <use xlink:href="#DejaVuSans-35" transform="translate(147.412109 0)"/>
       <use xlink:href="#DejaVuSans-2e" transform="translate(211.035156 0)"/>
       <use xlink:href="#DejaVuSans-30" transform="translate(242.822266 0)"/>
       <use xlink:href="#DejaVuSans-30" transform="translate(306.445312 0)"/>
      </g>
     </g>
    </g>
    <g id="ytick_4">
     <g id="line2d_25">
      <path d="M 90 354.158881 
L 648 354.158881 
" clip-path="url(#pea2f01f0e2)" style="fill: none; stroke: #b0b0b0; stroke-width: 0.8; stroke-linecap: square"/>
     </g>
     <g id="line2d_26">
      <g>
       <use xlink:href="#mff0edbd229" x="90" y="354.158881" style="stroke: #000000; stroke-width: 0.8"/>
      </g>
     </g>
     <g id="text_14">
      <!-- −14.95 -->
      <g transform="translate(45.992188 357.9581) scale(0.1 -0.1)">
       <defs>
        <path id="DejaVuSans-39" d="M 703 97 
L 703 672 
Q 941 559 1184 500 
Q 1428 441 1663 441 
Q 2288 441 2617 861 
Q 2947 1281 2994 2138 
Q 2813 1869 2534 1725 
Q 2256 1581 1919 1581 
Q 1219 1581 811 2004 
Q 403 2428 403 3163 
Q 403 3881 828 4315 
Q 1253 4750 1959 4750 
Q 2769 4750 3195 4129 
Q 3622 3509 3622 2328 
Q 3622 1225 3098 567 
Q 2575 -91 1691 -91 
Q 1453 -91 1209 -44 
Q 966 3 703 97 
z
M 1959 2075 
Q 2384 2075 2632 2365 
Q 2881 2656 2881 3163 
Q 2881 3666 2632 3958 
Q 2384 4250 1959 4250 
Q 1534 4250 1286 3958 
Q 1038 3666 1038 3163 
Q 1038 2656 1286 2365 
Q 1534 2075 1959 2075 
z
" transform="scale(0.015625)"/>
       </defs>
       <use xlink:href="#DejaVuSans-2212"/>
       <use xlink:href="#DejaVuSans-31" transform="translate(83.789062 0)"/>
       <use xlink:href="#DejaVuSans-34" transform="translate(147.412109 0)"/>
       <use xlink:href="#DejaVuSans-2e" transform="translate(211.035156 0)"/>
       <use xlink:href="#DejaVuSans-39" transform="translate(242.822266 0)"/>
       <use xlink:href="#DejaVuSans-35" transform="translate(306.445312 0)"/>
      </g>
     </g>
    </g>
    <g id="ytick_5">
     <g id="line2d_27">
      <path d="M 90 289.494791 
L 648 289.494791 
" clip-path="url(#pea2f01f0e2)" style="fill: none; stroke: #b0b0b0; stroke-width: 0.8; stroke-linecap: square"/>
     </g>
     <g id="line2d_28">
      <g>
       <use xlink:href="#mff0edbd229" x="90" y="289.494791" style="stroke: #000000; stroke-width: 0.8"/>
      </g>
     </g>
     <g id="text_15">
      <!-- −14.90 -->
      <g transform="translate(45.992188 293.29401) scale(0.1 -0.1)">
       <use xlink:href="#DejaVuSans-2212"/>
       <use xlink:href="#DejaVuSans-31" transform="translate(83.789062 0)"/>
       <use xlink:href="#DejaVuSans-34" transform="translate(147.412109 0)"/>
       <use xlink:href="#DejaVuSans-2e" transform="translate(211.035156 0)"/>
       <use xlink:href="#DejaVuSans-39" transform="translate(242.822266 0)"/>
       <use xlink:href="#DejaVuSans-30" transform="translate(306.445312 0)"/>
      </g>
     </g>
    </g>
    <g id="text_16">
     <!-- Latitude (°) -->
     <g transform="translate(39.9125 464.889531) rotate(-90) scale(0.1 -0.1)">
      <defs>
       <path id="DejaVuSans-61" d="M 2194 1759 
Q 1497 1759 1228 1600 
Q 959 1441 959 1056 
Q 959 750 1161 570 
Q 1363 391 1709 391 
Q 2188 391 2477 730 
Q 2766 1069 2766 1631 
L 2766 1759 
L 2194 1759 
z
M 3341 1997 
L 3341 0 
L 2766 0 
L 2766 531 
Q 2569 213 2275 61 
Q 1981 -91 1556 -91 
Q 1019 -91 701 211 
Q 384 513 384 1019 
Q 384 1609 779 1909 
Q 1175 2209 1959 2209 
L 2766 2209 
L 2766 2266 
Q 2766 2663 2505 2880 
Q 2244 3097 1772 3097 
Q 1472 3097 1187 3025 
Q 903 2953 641 2809 
L 641 3341 
Q 956 3463 1253 3523 
Q 1550 3584 1831 3584 
Q 2591 3584 2966 3190 
Q 3341 2797 3341 1997 
z
" transform="scale(0.015625)"/>
      </defs>
      <use xlink:href="#DejaVuSans-4c"/>
      <use xlink:href="#DejaVuSans-61" transform="translate(55.712891 0)"/>
      <use xlink:href="#DejaVuSans-74" transform="translate(116.992188 0)"/>
      <use xlink:href="#DejaVuSans-69" transform="translate(156.201172 0)"/>
      <use xlink:href="#DejaVuSans-74" transform="translate(183.984375 0)"/>
      <use xlink:href="#DejaVuSans-75" transform="translate(223.193359 0)"/>
      <use xlink:href="#DejaVuSans-64" transform="translate(286.572266 0)"/>
      <use xlink:href="#DejaVuSans-65" transform="translate(350.048828 0)"/>
      <use xlink:href="#DejaVuSans-20" transform="translate(411.572266 0)"/>
      <use xlink:href="#DejaVuSans-28" transform="translate(443.359375 0)"/>
      <use xlink:href="#DejaVuSans-b0" transform="translate(482.373047 0)"/>
      <use xlink:href="#DejaVuSans-29" transform="translate(532.373047 0)"/>
     </g>
    </g>
   </g>
   <g id="patch_3">
    <path d="M 90 607.258837 
L 90 265.381163 
" style="fill: none; stroke: #000000; stroke-width: 0.8; stroke-linejoin: miter; stroke-linecap: square"/>
   </g>
   <g id="patch_4">
    <path d="M 648 607.258837 
L 648 265.381163 
" style="fill: none; stroke: #000000; stroke-width: 0.8; stroke-linejoin: miter; stroke-linecap: square"/>
   </g>
   <g id="patch_5">
    <path d="M 90 607.258837 
L 648 607.258837 
" style="fill: none; stroke: #000000; stroke-width: 0.8; stroke-linejoin: miter; stroke-linecap: square"/>
   </g>
   <g id="patch_6">
    <path d="M 90 265.381163 
L 648 265.381163 
" style="fill: none; stroke: #000000; stroke-width: 0.8; stroke-linejoin: miter; stroke-linecap: square"/>
   </g>
   <g id="legend_1">
    <g id="patch_7">
     <path d="M 279.8375 714.926247 
L 458.1625 714.926247 
Q 460.1625 714.926247 460.1625 712.926247 
L 460.1625 682.634372 
Q 460.1625 680.634372 458.1625 680.634372 
L 279.8375 680.634372 
Q 277.8375 680.634372 277.8375 682.634372 
L 277.8375 712.926247 
Q 277.8375 714.926247 279.8375 714.926247 
z
" style="fill: #ffffff; opacity: 0.8; stroke: #cccccc; stroke-linejoin: miter"/>
    </g>
    <g id="text_17">
     <!-- Legenda -->
     <g transform="translate(343.280625 693.752497) scale(0.12 -0.12)">
      <use xlink:href="#DejaVuSans-4c"/>
      <use xlink:href="#DejaVuSans-65" transform="translate(53.962891 0)"/>
      <use xlink:href="#DejaVuSans-67" transform="translate(115.486328 0)"/>
      <use xlink:href="#DejaVuSans-65" transform="translate(178.962891 0)"/>
      <use xlink:href="#DejaVuSans-6e" transform="translate(240.486328 0)"/>
      <use xlink:href="#DejaVuSans-64" transform="translate(303.865234 0)"/>
      <use xlink:href="#DejaVuSans-61" transform="translate(367.341797 0)"/>
     </g>
    </g>
    <g id="patch_8">
     <path d="M 281.8375 708.84656 
L 301.8375 708.84656 
L 301.8375 701.84656 
L 281.8375 701.84656 
L 281.8375 708.84656 
z
" style="fill: none; stroke: #000000; stroke-linejoin: miter"/>
    </g>
    <g id="text_18">
     <!-- Gleba Federal -->
     <g transform="translate(309.8375 708.84656) scale(0.1 -0.1)">
      <defs>
       <path id="DejaVuSans-47" d="M 3809 666 
L 3809 1919 
L 2778 1919 
L 2778 2438 
L 4434 2438 
L 4434 434 
Q 4069 175 3628 42 
Q 3188 -91 2688 -91 
Q 1594 -91 976 548 
Q 359 1188 359 2328 
Q 359 3472 976 4111 
Q 1594 4750 2688 4750 
Q 3144 4750 3555 4637 
Q 3966 4525 4313 4306 
L 4313 3634 
Q 3963 3931 3569 4081 
Q 3175 4231 2741 4231 
Q 1884 4231 1454 3753 
Q 1025 3275 1025 2328 
Q 1025 1384 1454 906 
Q 1884 428 2741 428 
Q 3075 428 3337 486 
Q 3600 544 3809 666 
z
" transform="scale(0.015625)"/>
       <path id="DejaVuSans-6c" d="M 603 4863 
L 1178 4863 
L 1178 0 
L 603 0 
L 603 4863 
z
" transform="scale(0.015625)"/>
       <path id="DejaVuSans-62" d="M 3116 1747 
Q 3116 2381 2855 2742 
Q 2594 3103 2138 3103 
Q 1681 3103 1420 2742 
Q 1159 2381 1159 1747 
Q 1159 1113 1420 752 
Q 1681 391 2138 391 
Q 2594 391 2855 752 
Q 3116 1113 3116 1747 
z
M 1159 2969 
Q 1341 3281 1617 3432 
Q 1894 3584 2278 3584 
Q 2916 3584 3314 3078 
Q 3713 2572 3713 1747 
Q 3713 922 3314 415 
Q 2916 -91 2278 -91 
Q 1894 -91 1617 61 
Q 1341 213 1159 525 
L 1159 0 
L 581 0 
L 581 4863 
L 1159 4863 
L 1159 2969 
z
" transform="scale(0.015625)"/>
       <path id="DejaVuSans-46" d="M 628 4666 
L 3309 4666 
L 3309 4134 
L 1259 4134 
L 1259 2759 
L 3109 2759 
L 3109 2228 
L 1259 2228 
L 1259 0 
L 628 0 
L 628 4666 
z
" transform="scale(0.015625)"/>
       <path id="DejaVuSans-72" d="M 2631 2963 
Q 2534 3019 2420 3045 
Q 2306 3072 2169 3072 
Q 1681 3072 1420 2755 
Q 1159 2438 1159 1844 
L 1159 0 
L 581 0 
L 581 3500 
L 1159 3500 
L 1159 2956 
Q 1341 3275 1631 3429 
Q 1922 3584 2338 3584 
Q 2397 3584 2469 3576 
Q 2541 3569 2628 3553 
L 2631 2963 
z
" transform="scale(0.015625)"/>
      </defs>
      <use xlink:href="#DejaVuSans-47"/>
      <use xlink:href="#DejaVuSans-6c" transform="translate(77.490234 0)"/>
      <use xlink:href="#DejaVuSans-65" transform="translate(105.273438 0)"/>
      <use xlink:href="#DejaVuSans-62" transform="translate(166.796875 0)"/>
      <use xlink:href="#DejaVuSans-61" transform="translate(230.273438 0)"/>
      <use xlink:href="#DejaVuSans-20" transform="translate(291.552734 0)"/>
      <use xlink:href="#DejaVuSans-46" transform="translate(323.339844 0)"/>
      <use xlink:href="#DejaVuSans-65" transform="translate(375.359375 0)"/>
      <use xlink:href="#DejaVuSans-64" transform="translate(436.882812 0)"/>
      <use xlink:href="#DejaVuSans-65" transform="translate(500.359375 0)"/>
      <use xlink:href="#DejaVuSans-72" transform="translate(561.882812 0)"/>
      <use xlink:href="#DejaVuSans-61" transform="translate(602.996094 0)"/>
      <use xlink:href="#DejaVuSans-6c" transform="translate(664.275391 0)"/>
     </g>
    </g>
    <g id="patch_9">
     <path d="M 399.045312 708.84656 
L 419.045312 708.84656 
L 419.045312 701.84656 
L 399.045312 701.84656 
z
" style="fill: #e0bd1f; opacity: 0.6"/>
    </g>
    <g id="text_19">
     <!-- SIGEF -->
     <g transform="translate(427.045312 708.84656) scale(0.1 -0.1)">
      <defs>
       <path id="DejaVuSans-53" d="M 3425 4513 
L 3425 3897 
Q 3066 4069 2747 4153 
Q 2428 4238 2131 4238 
Q 1616 4238 1336 4038 
Q 1056 3838 1056 3469 
Q 1056 3159 1242 3001 
Q 1428 2844 1947 2747 
L 2328 2669 
Q 3034 2534 3370 2195 
Q 3706 1856 3706 1288 
Q 3706 609 3251 259 
Q 2797 -91 1919 -91 
Q 1588 -91 1214 -16 
Q 841 59 441 206 
L 441 856 
Q 825 641 1194 531 
Q 1563 422 1919 422 
Q 2459 422 2753 634 
Q 3047 847 3047 1241 
Q 3047 1584 2836 1778 
Q 2625 1972 2144 2069 
L 1759 2144 
Q 1053 2284 737 2584 
Q 422 2884 422 3419 
Q 422 4038 858 4394 
Q 1294 4750 2059 4750 
Q 2388 4750 2728 4690 
Q 3069 4631 3425 4513 
z
" transform="scale(0.015625)"/>
       <path id="DejaVuSans-49" d="M 628 4666 
L 1259 4666 
L 1259 0 
L 628 0 
L 628 4666 
z
" transform="scale(0.015625)"/>
       <path id="DejaVuSans-45" d="M 628 4666 
L 3578 4666 
L 3578 4134 
L 1259 4134 
L 1259 2753 
L 3481 2753 
L 3481 2222 
L 1259 2222 
L 1259 531 
L 3634 531 
L 3634 0 
L 628 0 
L 628 4666 
z
" transform="scale(0.015625)"/>
      </defs>
      <use xlink:href="#DejaVuSans-53"/>
      <use xlink:href="#DejaVuSans-49" transform="translate(63.476562 0)"/>
      <use xlink:href="#DejaVuSans-47" transform="translate(92.96875 0)"/>
      <use xlink:href="#DejaVuSans-45" transform="translate(170.458984 0)"/>
      <use xlink:href="#DejaVuSans-46" transform="translate(233.642578 0)"/>
     </g>
    </g>
   </g>
  </g>
 </g>
 <defs>
  <clipPath id="pea2f01f0e2">
   <rect x="90" y="265.381163" width="558" height="341.877675"/>
  </clipPath>
 </defs>
</svg>
