<?xml version="1.0" encoding="utf-8" standalone="no"?>
<!DOCTYPE svg PUBLIC "-//W3C//DTD SVG 1.1//EN"
  "http://www.w3.org/Graphics/SVG/1.1/DTD/svg11.dtd">
<svg xmlns:xlink="http://www.w3.org/1999/xlink" width="720pt" height="864pt" viewBox="0 0 720 864" xmlns="http://www.w3.org/2000/svg" version="1.1">
 <metadata>
  <rdf:RDF xmlns:dc="http://purl.org/dc/elements/1.1/" xmlns:cc="http://creativecommons.org/ns#" xmlns:rdf="http://www.w3.org/1999/02/22-rdf-syntax-ns#">
   <cc:Work>
    <dc:type rdf:resource="http://purl.org/dc/dcmitype/StillImage"/>
    <dc:date>2025-06-16T17:50:15.173751</dc:date>
    <dc:format>image/svg+xml</dc:format>
    <dc:creator>
     <cc:Agent>
      <dc:title>Matplotlib v3.10.1, https://matplotlib.org/</dc:title>
     </cc:Agent>
    </dc:creator>
   </cc:Work>
  </rdf:RDF>
 </metadata>
 <defs>
  <style type="text/css">*{stroke-linejoin: round; stroke-linecap: butt}</style>
 </defs>
 <g id="figure_1">
  <g id="patch_1">
   <path d="M 0 864 
L 720 864 
L 720 0 
L 0 0 
z
" style="fill: #ffffff"/>
  </g>
  <g id="axes_1">
   <g id="patch_2">
    <path d="M 90 704.905288 
L 648 704.905288 
L 648 167.734712 
L 90 167.734712 
z
" style="fill: #ffffff"/>
   </g>
   <g id="PatchCollection_1">
    <defs>
     <path id="md6e8bef0b3" d="M 622.636364 -671.848444 
L 621.922771 -669.874735 
L 621.302519 -669.144187 
L 621.266631 -667.891546 
L 620.966823 -666.713296 
L 619.571937 -665.05094 
L 619.722959 -663.449668 
L 618.613211 -662.679361 
L 617.422334 -661.240219 
L 617.477571 -659.985955 
L 618.183406 -658.249942 
L 618.222156 -657.290633 
L 616.584319 -657.04526 
L 615.797583 -654.703111 
L 616.336464 -653.695482 
L 615.935702 -653.088966 
L 614.675906 -652.853053 
L 614.220227 -651.268548 
L 615.707428 -649.597511 
L 614.555763 -648.321345 
L 613.416533 -647.381872 
L 611.056972 -646.427331 
L 610.7994 -644.539088 
L 611.114057 -642.727185 
L 610.857637 -639.093028 
L 609.742028 -637.956458 
L 611.758099 -637.384494 
L 610.222125 -635.780625 
L 608.513469 -635.573121 
L 608.403878 -634.252463 
L 607.815926 -632.635286 
L 608.023591 -630.979596 
L 607.965885 -629.057866 
L 608.311954 -625.712925 
L 608.408686 -622.70888 
L 607.86716 -620.934519 
L 607.12111 -621.123648 
L 606.279689 -620.316492 
L 607.963034 -618.304778 
L 607.578361 -616.593152 
L 610.556847 -612.471052 
L 610.516305 -609.549476 
L 612.00091 -610.140247 
L 613.381678 -607.739534 
L 615.532088 -607.967923 
L 615.357996 -604.274928 
L 616.646835 -603.272079 
L 615.794976 -601.736065 
L 616.818042 -601.093882 
L 617.239486 -599.650281 
L 616.327525 -597.645419 
L 617.646646 -594.694607 
L 615.342969 -595.687041 
L 614.07331 -592.562667 
L 612.106957 -590.596817 
L 611.168376 -587.367598 
L 610.064183 -586.769037 
L 610.786532 -585.747688 
L 610.708074 -583.260906 
L 609.211729 -582.21709 
L 607.69767 -582.763507 
L 606.271045 -584.30809 
L 605.116059 -583.273275 
L 603.087207 -580.568959 
L 602.663034 -579.498371 
L 601.390201 -578.657987 
L 600.998272 -576.827581 
L 599.932436 -576.476959 
L 599.196088 -574.9263 
L 599.555339 -571.088804 
L 598.037111 -569.507656 
L 598.911179 -567.197148 
L 601.30756 -565.12633 
L 602.232729 -565.33658 
L 603.275807 -562.779097 
L 602.031308 -560.550362 
L 603.912269 -559.971577 
L 604.531606 -559.034393 
L 604.24409 -557.447939 
L 603.219817 -556.230339 
L 603.266875 -554.206583 
L 603.930252 -553.124538 
L 604.923992 -553.490863 
L 603.506925 -550.816544 
L 600.404373 -547.081384 
L 599.420485 -545.581658 
L 598.967078 -543.538514 
L 597.590905 -543.434251 
L 597.115797 -541.754418 
L 598.477474 -540.752469 
L 597.394832 -539.478488 
L 596.914358 -536.108179 
L 597.177645 -534.58707 
L 599.34607 -531.404799 
L 600.615237 -531.660352 
L 600.253636 -528.767252 
L 599.288606 -527.677451 
L 599.446742 -526.745332 
L 601.11946 -525.376363 
L 602.547737 -526.220998 
L 603.150971 -525.234017 
L 602.927633 -523.638054 
L 604.309471 -522.337445 
L 603.393355 -522.104993 
L 603.095396 -520.654638 
L 603.521606 -518.461184 
L 603.149552 -517.136736 
L 602.131163 -517.021694 
L 600.583493 -512.848903 
L 600.641351 -509.771155 
L 602.110887 -508.232535 
L 601.929728 -507.061786 
L 602.683394 -505.486237 
L 603.703014 -505.169722 
L 604.550883 -505.749679 
L 604.663923 -504.856539 
L 603.571294 -502.391369 
L 604.570081 -501.059782 
L 602.939123 -499.455726 
L 603.767637 -498.361272 
L 604.97477 -498.263727 
L 606.054278 -498.938108 
L 606.778417 -494.589308 
L 607.794173 -493.649802 
L 606.839064 -493.458763 
L 607.261292 -491.764598 
L 607.791888 -490.954615 
L 607.331902 -488.661555 
L 606.736745 -488.531144 
L 605.066366 -487.297861 
L 604.080989 -485.170207 
L 604.079422 -482.789601 
L 603.506799 -481.773829 
L 602.257832 -481.100797 
L 601.306218 -477.709742 
L 600.259626 -476.006519 
L 601.287031 -473.9219 
L 602.450688 -474.2407 
L 601.937227 -473.184659 
L 600.845259 -472.749813 
L 600.190892 -472.076682 
L 600.131338 -470.015219 
L 599.698883 -468.158521 
L 598.54335 -467.450615 
L 597.595383 -465.638004 
L 598.118322 -465.040441 
L 596.352846 -464.181264 
L 595.515328 -462.879144 
L 593.532797 -462.477699 
L 587.610423 -457.867652 
L 587.610877 -456.970689 
L 583.62999 -453.757119 
L 582.809899 -454.104184 
L 580.763818 -453.007381 
L 579.958559 -451.815328 
L 577.543712 -449.316509 
L 575.746624 -448.65388 
L 574.844893 -445.79022 
L 573.809895 -443.664654 
L 573.219046 -444.260058 
L 570.188823 -444.34953 
L 568.064974 -445.24031 
L 567.405268 -444.469951 
L 563.439091 -442.70863 
L 562.412434 -443.674687 
L 559.942 -443.915657 
L 557.250178 -442.175292 
L 550.505504 -443.283799 
L 546.323913 -444.925387 
L 545.179952 -443.789006 
L 546.117209 -442.66388 
L 544.674728 -436.83592 
L 543.407532 -436.918391 
L 541.791688 -435.163523 
L 540.019755 -433.815031 
L 537.564112 -434.368096 
L 536.770014 -432.226736 
L 534.270182 -430.048491 
L 535.30134 -426.863082 
L 533.486246 -424.303862 
L 532.396583 -424.133165 
L 530.103321 -423.047985 
L 529.014636 -421.969246 
L 528.967523 -415.724599 
L 527.830319 -416.021984 
L 526.595037 -414.997447 
L 523.420539 -411.153841 
L 522.47034 -408.005403 
L 520.581821 -407.72124 
L 519.276183 -405.282323 
L 517.552275 -403.593831 
L 513.437388 -400.870485 
L 511.897315 -399.396663 
L 510.718757 -399.89432 
L 509.080239 -399.564138 
L 509.500039 -397.189701 
L 507.194747 -395.600422 
L 506.941084 -393.672798 
L 508.64657 -392.794837 
L 506.324154 -391.350307 
L 500.406673 -390.543941 
L 495.816714 -390.580711 
L 495.228929 -389.481333 
L 493.419228 -390.167695 
L 490.973224 -389.006918 
L 491.364389 -387.935253 
L 490.593016 -385.273627 
L 485.729971 -385.541257 
L 483.791882 -384.416429 
L 484.30084 -382.859136 
L 483.068076 -382.990762 
L 482.04211 -384.11201 
L 480.189837 -382.745487 
L 480.749598 -381.617055 
L 479.408281 -379.013968 
L 479.192116 -377.41862 
L 480.157072 -376.476168 
L 479.808862 -375.184901 
L 481.338125 -374.721379 
L 479.181217 -373.505795 
L 478.70254 -372.037805 
L 476.765272 -370.826182 
L 475.420353 -367.962093 
L 474.400167 -366.617153 
L 474.705909 -365.458442 
L 473.416421 -364.086987 
L 472.711441 -362.493796 
L 470.78405 -360.323621 
L 469.214199 -360.039358 
L 468.725597 -358.684074 
L 467.140981 -357.258522 
L 463.694495 -357.890586 
L 462.931025 -356.215781 
L 461.873075 -356.736958 
L 461.298148 -355.929959 
L 461.271505 -354.310385 
L 460.641651 -353.53441 
L 456.828315 -351.556044 
L 454.35865 -349.622226 
L 453.214878 -348.143645 
L 452.270667 -347.812926 
L 450.1441 -345.715691 
L 450.105519 -344.727179 
L 447.849638 -343.279382 
L 446.977907 -341.616764 
L 445.297419 -341.919703 
L 441.912722 -340.739785 
L 441.20118 -338.497166 
L 439.742404 -337.878165 
L 439.040781 -334.129702 
L 436.911633 -330.195498 
L 436.853803 -327.887805 
L 435.891628 -324.717949 
L 436.878066 -323.231782 
L 436.684039 -321.396871 
L 437.25126 -318.622845 
L 436.51632 -317.048894 
L 437.003882 -315.502762 
L 438.299464 -315.174432 
L 437.595036 -312.326017 
L 435.273394 -310.406357 
L 435.995178 -308.279274 
L 438.003724 -307.718154 
L 436.909463 -306.660453 
L 435.532481 -306.425241 
L 433.607135 -307.403999 
L 431.583659 -305.397452 
L 431.171711 -304.09602 
L 427.744708 -302.361044 
L 427.553276 -300.423932 
L 426.674494 -299.536424 
L 425.157624 -299.631199 
L 422.1122 -296.603593 
L 421.948362 -293.568715 
L 421.49849 -291.993506 
L 420.696406 -290.601471 
L 421.357383 -286.195638 
L 420.189264 -286.714875 
L 419.341169 -286.269865 
L 418.118965 -284.367508 
L 417.430342 -281.509187 
L 318.153352 -333.801743 
L 310.476987 -321.437377 
L 196.708172 -384.362292 
L 198.993573 -392.130029 
L 199.81787 -392.320151 
L 200.0484 -393.911679 
L 200.807604 -393.644086 
L 200.72589 -395.720308 
L 201.987952 -395.854243 
L 205.518186 -399.03303 
L 206.267811 -398.272994 
L 207.574776 -400.078116 
L 207.106958 -401.195142 
L 205.789429 -401.239369 
L 205.450972 -403.899141 
L 206.937203 -404.497453 
L 208.389777 -405.902374 
L 208.390111 -407.727665 
L 207.058978 -407.469071 
L 206.74835 -409.521721 
L 207.691245 -410.773852 
L 208.812369 -411.128831 
L 209.086847 -412.028211 
L 207.990022 -412.309047 
L 208.882711 -412.474237 
L 209.622573 -413.338235 
L 210.422302 -416.205778 
L 210.681825 -414.07949 
L 212.626077 -412.887348 
L 214.142805 -414.277823 
L 213.74869 -417.213029 
L 216.038638 -420.081119 
L 215.604057 -424.211416 
L 217.013668 -424.512135 
L 216.061858 -426.956795 
L 217.167976 -427.648591 
L 217.585984 -428.229043 
L 216.464152 -428.658965 
L 216.183059 -430.481855 
L 217.038582 -430.953181 
L 217.6533 -431.473631 
L 218.969473 -432.216176 
L 218.684778 -432.839868 
L 215.763885 -432.47775 
L 214.729553 -434.800283 
L 216.286219 -434.885478 
L 217.666765 -435.929377 
L 217.039859 -437.578404 
L 217.321814 -438.645199 
L 217.45055 -437.354899 
L 218.693097 -437.240848 
L 221.634136 -438.406255 
L 222.703097 -439.811108 
L 224.547932 -440.987089 
L 224.834001 -441.747907 
L 224.56654 -442.665166 
L 223.763373 -443.216744 
L 222.265989 -442.306346 
L 223.275322 -444.864516 
L 225.053821 -445.577246 
L 224.680305 -446.985635 
L 226.494954 -449.469322 
L 225.976003 -450.236907 
L 223.930756 -449.786419 
L 224.951925 -451.312153 
L 221.94158 -452.397122 
L 223.828829 -453.081034 
L 225.716637 -452.537413 
L 227.014425 -454.224403 
L 227.605816 -458.245959 
L 226.862387 -459.019498 
L 227.514246 -459.640128 
L 227.336001 -461.211991 
L 225.986235 -461.149842 
L 226.248368 -463.516907 
L 224.642268 -466.288988 
L 226.211691 -468.254837 
L 224.424661 -468.488957 
L 140.542024 -478.936894 
L 115.363636 -591.33665 
L 226.102192 -572.681341 
L 230.372782 -572.908042 
L 308.645253 -560.671976 
L 304.284345 -530.365824 
L 304.835661 -529.992729 
L 308.405866 -530.605744 
L 308.802634 -531.925063 
L 309.963882 -532.251016 
L 310.004129 -532.908312 
L 309.120185 -533.038508 
L 309.222744 -533.540388 
L 311.500032 -533.38358 
L 311.705001 -534.90261 
L 313.691397 -535.083247 
L 315.002196 -536.57389 
L 315.955849 -536.301175 
L 316.490158 -536.641046 
L 316.89797 -537.421038 
L 318.185102 -536.484416 
L 318.62398 -537.235334 
L 318.625064 -538.851322 
L 319.01287 -538.299211 
L 319.672437 -538.195889 
L 319.428568 -537.691568 
L 318.79267 -537.066509 
L 319.921619 -536.322675 
L 320.68982 -537.124435 
L 321.329305 -537.593728 
L 321.754112 -538.481993 
L 322.669931 -538.367052 
L 324.215624 -538.761463 
L 324.871271 -539.563734 
L 324.780082 -540.103425 
L 325.79821 -540.298295 
L 327.603498 -539.508325 
L 328.571309 -540.355362 
L 330.042367 -540.198524 
L 330.261349 -540.472103 
L 329.666349 -541.063928 
L 329.517001 -541.730698 
L 330.882912 -542.551934 
L 332.090028 -542.053389 
L 334.149823 -543.336295 
L 334.838292 -543.267325 
L 334.684815 -542.592684 
L 335.864283 -542.203846 
L 336.343321 -542.771751 
L 336.084811 -543.789298 
L 336.655255 -544.278609 
L 337.310698 -543.935839 
L 337.889848 -544.044045 
L 338.867041 -543.286749 
L 339.652249 -543.789254 
L 340.42007 -543.544479 
L 341.402301 -544.61062 
L 343.024982 -544.574391 
L 345.25418 -545.851628 
L 345.420342 -548.008003 
L 346.193527 -548.421302 
L 346.031275 -546.732162 
L 346.853664 -545.68869 
L 348.679261 -545.200924 
L 348.944661 -544.769416 
L 348.732815 -543.207315 
L 351.385413 -542.990404 
L 352.063861 -542.316335 
L 354.565208 -542.200455 
L 357.115598 -542.246881 
L 357.435471 -543.617658 
L 359.527005 -542.817211 
L 360.18494 -543.588708 
L 361.603134 -543.511555 
L 362.528052 -544.208598 
L 361.827815 -545.074216 
L 362.966866 -544.673885 
L 364.343639 -544.774834 
L 365.665662 -545.220776 
L 365.757257 -544.216293 
L 364.734303 -542.928694 
L 366.876178 -541.614607 
L 367.637851 -542.60665 
L 367.076318 -543.439017 
L 367.452873 -543.796852 
L 368.012864 -542.892464 
L 370.604652 -542.201836 
L 371.222547 -543.049855 
L 372.379723 -543.012665 
L 374.91811 -544.496645 
L 376.522357 -543.609754 
L 377.3329 -543.756956 
L 378.106812 -543.781815 
L 377.38196 -542.814842 
L 378.095893 -542.139395 
L 380.193663 -541.22383 
L 380.515071 -542.254169 
L 382.251651 -541.96692 
L 382.600382 -542.535425 
L 383.441595 -540.759919 
L 383.909828 -540.546055 
L 384.456246 -541.555075 
L 384.043085 -542.744447 
L 386.140362 -543.381482 
L 386.544473 -544.16336 
L 387.448602 -542.921932 
L 388.911814 -543.48177 
L 389.889646 -542.446247 
L 392.551909 -542.754493 
L 393.736165 -541.087043 
L 396.314309 -543.408127 
L 395.204326 -545.134343 
L 395.992294 -545.295201 
L 396.361773 -546.5488 
L 400.505375 -546.952653 
L 402.431437 -548.023871 
L 403.651542 -549.500848 
L 405.085648 -549.008127 
L 405.918587 -549.381178 
L 406.464719 -548.658475 
L 406.465473 -547.29857 
L 407.950609 -546.446103 
L 408.377077 -545.496768 
L 409.506396 -546.638027 
L 411.958134 -547.204576 
L 412.273272 -547.648267 
L 411.98484 -548.27194 
L 413.107047 -547.096661 
L 414.363454 -547.648212 
L 414.702669 -546.887646 
L 417.084242 -548.472134 
L 417.462621 -547.435598 
L 420.175317 -548.785916 
L 419.98116 -547.333918 
L 421.705481 -547.04 
L 423.976677 -547.307566 
L 423.449982 -548.559609 
L 422.172069 -548.962354 
L 423.746623 -549.110503 
L 424.491287 -550.558213 
L 424.010489 -551.255996 
L 425.503671 -551.82005 
L 426.061009 -552.816112 
L 425.880993 -553.334646 
L 425.130363 -553.736282 
L 428.588742 -554.816747 
L 430.294865 -555.817568 
L 431.775014 -556.340441 
L 432.655812 -556.050276 
L 434.369101 -558.550719 
L 433.753906 -559.009618 
L 435.57022 -559.752014 
L 436.548586 -561.071879 
L 437.186083 -560.817269 
L 439.901067 -562.421253 
L 439.867796 -563.06657 
L 439.019507 -563.236541 
L 440.76085 -564.602283 
L 440.36797 -565.403095 
L 440.462397 -566.715178 
L 440.044232 -568.168659 
L 442.706954 -567.613903 
L 444.238652 -570.981341 
L 443.699903 -572.136779 
L 444.587127 -573.740854 
L 445.634658 -572.692132 
L 446.5532 -574.885219 
L 447.108584 -574.738094 
L 447.405725 -574.14517 
L 448.034337 -574.238429 
L 448.241874 -574.979334 
L 447.414358 -576.264095 
L 448.440703 -576.668947 
L 448.864186 -577.5548 
L 449.022998 -576.66145 
L 449.573215 -576.451555 
L 451.035963 -577.619697 
L 451.834482 -576.838643 
L 453.570111 -577.180652 
L 452.981182 -578.192253 
L 454.320928 -578.507076 
L 454.879445 -579.500069 
L 454.851638 -579.856635 
L 453.78242 -579.859508 
L 454.036681 -581.217059 
L 455.754742 -580.19555 
L 456.217935 -580.650296 
L 455.97908 -581.56493 
L 457.235126 -582.465581 
L 457.383571 -583.123024 
L 456.920457 -583.809636 
L 457.733482 -583.83129 
L 457.96172 -582.023438 
L 459.472068 -582.325818 
L 459.566926 -583.038903 
L 461.244658 -583.572636 
L 462.394138 -584.724934 
L 462.712545 -585.78486 
L 462.540677 -586.350757 
L 461.398049 -585.929169 
L 462.604269 -586.907613 
L 463.603876 -587.074349 
L 464.962631 -588.527382 
L 466.708219 -587.084065 
L 468.293491 -588.019598 
L 467.023482 -589.672591 
L 469.350398 -590.111132 
L 470.559559 -590.923968 
L 469.240591 -592.430657 
L 470.578338 -592.711647 
L 471.240698 -594.098187 
L 470.797708 -595.334456 
L 469.715791 -594.524137 
L 469.733597 -596.087734 
L 470.540541 -598.089874 
L 472.283409 -600.527448 
L 473.636168 -600.182289 
L 474.235361 -600.68754 
L 476.35963 -601.088816 
L 476.467863 -602.349132 
L 476.951581 -601.757856 
L 479.008839 -601.658931 
L 481.405193 -602.598919 
L 481.220227 -604.095074 
L 482.712031 -604.923302 
L 483.556586 -606.153297 
L 485.188782 -607.196994 
L 485.292154 -608.466566 
L 486.590408 -608.389454 
L 488.541813 -608.7084 
L 489.522802 -608.81737 
L 489.119682 -610.082393 
L 490.820945 -610.833374 
L 490.840697 -609.603277 
L 492.097148 -609.336742 
L 492.48013 -610.483812 
L 493.948521 -610.710693 
L 494.649933 -611.941323 
L 496.614663 -612.513858 
L 497.004385 -613.24043 
L 498.326544 -613.741293 
L 498.818128 -614.543141 
L 500.72596 -615.255677 
L 499.579036 -616.096098 
L 500.976396 -617.155619 
L 501.316544 -618.301032 
L 502.437837 -618.889581 
L 501.821751 -619.84957 
L 503.786332 -621.665056 
L 504.793137 -624.637179 
L 505.943121 -624.505945 
L 507.303124 -627.541165 
L 508.431002 -628.807491 
L 510.437735 -627.922687 
L 511.770314 -628.007358 
L 512.934463 -627.331858 
L 516.027214 -629.211999 
L 515.920446 -627.856866 
L 516.989792 -627.891595 
L 518.749165 -629.928393 
L 519.39581 -631.231919 
L 520.062311 -630.897806 
L 521.019708 -630.929949 
L 522.6448 -632.183036 
L 522.952201 -633.114977 
L 525.136494 -634.543543 
L 525.184201 -635.395355 
L 529.207521 -635.914022 
L 531.143321 -639.015095 
L 530.069713 -640.547131 
L 530.585841 -641.515718 
L 531.532585 -641.063421 
L 532.289187 -641.484289 
L 532.528147 -643.002604 
L 533.617646 -644.74007 
L 535.790151 -643.147231 
L 536.816309 -644.094516 
L 539.166113 -642.908452 
L 540.305528 -643.737048 
L 541.196806 -642.617664 
L 542.517143 -642.988683 
L 544.041327 -643.825459 
L 546.798354 -642.46157 
L 548.402373 -642.945252 
L 551.066943 -642.556303 
L 552.691654 -641.873911 
L 556.372803 -642.339969 
L 558.060679 -642.695249 
L 560.664817 -642.048019 
L 559.997363 -640.588808 
L 560.541371 -638.357895 
L 562.731558 -637.456979 
L 563.750073 -636.334594 
L 565.929459 -636.625576 
L 566.312025 -635.116258 
L 568.80157 -633.986274 
L 569.052895 -634.82859 
L 570.624008 -634.05226 
L 572.272798 -634.133774 
L 572.44508 -635.516949 
L 573.564039 -636.284715 
L 574.34864 -639.540429 
L 576.252552 -640.209996 
L 577.660962 -641.297254 
L 578.318932 -643.118501 
L 579.913536 -643.691526 
L 587.99138 -642.738748 
L 589.468738 -644.794096 
L 589.376151 -646.895003 
L 590.353004 -648.194679 
L 593.378887 -647.76239 
L 595.070489 -646.840281 
L 597.093335 -646.427714 
L 597.256681 -648.304663 
L 597.610893 -649.613184 
L 596.697609 -650.602117 
L 597.938846 -651.36322 
L 599.188502 -652.666038 
L 599.585014 -654.71682 
L 601.540899 -655.821446 
L 603.120663 -657.369711 
L 604.674329 -660.838838 
L 606.415329 -660.748238 
L 609.926664 -661.713827 
L 610.655247 -661.016886 
L 612.079873 -660.891332 
L 614.476904 -662.033481 
L 615.16012 -663.619472 
L 614.920578 -664.394341 
L 615.923462 -666.071303 
L 616.386771 -667.581902 
L 618.969608 -668.550887 
L 619.136975 -669.796808 
L 619.89575 -670.59571 
L 621.676532 -670.946362 
L 622.636364 -671.848444 
" style="stroke: #0000ff; stroke-width: 0.5"/>
    </defs>
    <g clip-path="url(#p24da418b2c)">
     <use xlink:href="#md6e8bef0b3" x="0" y="864" style="fill: #e0bd1f; stroke: #0000ff; stroke-width: 0.5"/>
    </g>
   </g>
   <g id="PatchCollection_2">
    <path d="M 606.840723 370.587082 
L 607.556067 372.833488 
L 607.377273 374.742992 
L 604.250043 378.353067 
L 604.12699 380.962772 
L 602.126305 382.906284 
L 601.021039 386.753461 
L 600.167509 388.227272 
L 601.016629 390.087648 
L 602.227437 389.757355 
L 602.416827 390.390415 
L 601.653907 391.272389 
L 600.454937 391.839131 
L 599.716607 395.708204 
L 596.629175 395.418469 
L 598.023581 397.225179 
L 598.326151 398.574079 
L 595.912357 400.696174 
L 593.326827 401.630605 
L 590.486182 404.146075 
L 587.913121 406.026758 
L 586.524986 408.054153 
L 584.455795 409.407574 
L 583.095128 410.44455 
L 581.770265 410.689991 
L 580.196948 411.384374 
L 577.697639 414.752696 
L 575.856588 415.539489 
L 574.885841 418.234165 
L 575.561191 419.239936 
L 575.266861 419.687449 
L 573.780768 420.438839 
L 571.158694 419.752139 
L 568.41672 418.637057 
L 566.012815 421.002924 
L 564.867731 421.833968 
L 561.211886 420.272275 
L 559.926103 420.531408 
L 556.800851 422.059959 
L 555.533003 421.27569 
L 552.473409 421.61637 
L 546.303128 420.663016 
L 545.423319 423.820394 
L 544.647319 427.447325 
L 534.690784 433.7639 
L 535.415896 437.130192 
L 529.073216 448.198438 
L 526.215696 451.174173 
L 522.93078 456.220824 
L 512.754442 464.348645 
L 509.468428 464.398892 
L 508.846282 467.646017 
L 508.586874 471.891418 
L 503.902017 472.863258 
L 501.090604 472.51603 
L 496.386653 473.375102 
L 495.091197 474.158636 
L 491.222126 474.776956 
L 490.673549 478.399921 
L 483.990951 479.29396 
L 484.411779 480.577529 
L 483.578706 481.244271 
L 481.418815 479.772673 
L 480.558974 484.90745 
L 481.475025 489.218346 
L 479.027253 491.622021 
L 476.131075 494.298897 
L 474.707127 497.047512 
L 473.712145 500.051034 
L 467.080731 506.722166 
L 463.412003 506.129137 
L 462.787155 507.722057 
L 461.365319 507.452909 
L 460.603417 510.310316 
L 457.777187 512.082501 
L 453.967625 515.437392 
L 452.315723 516.295027 
L 447.575041 521.5979 
L 442.085184 523.476452 
L 437.120959 533.707537 
L 437.149808 536.059935 
L 437.0803 540.893447 
L 437.123642 548.176382 
L 438.031897 548.656898 
L 437.824351 551.762378 
L 436.276743 552.54227 
L 435.24356 554.740976 
L 437.527957 555.875843 
L 437.889891 556.492449 
L 435.430737 557.680143 
L 434.180086 556.730853 
L 432.498341 557.822877 
L 431.041968 560.117583 
L 428.625165 560.992719 
L 427.073153 564.305841 
L 425.674411 564.618513 
L 423.98544 565.5412 
L 422.040937 570.455632 
L 421.70184 572.161842 
L 420.71914 573.305594 
L 421.385055 577.422717 
L 421.305572 578.246058 
L 419.281442 578.024664 
L 417.969365 580.330461 
L 418.076586 581.826269 
L 417.273571 582.871703 
L 414.383377 584.396025 
L 412.711894 585.925772 
L 412.29667 589.216849 
L 411.676033 592.054533 
L 409.788102 594.661869 
L 410.553755 595.991317 
L 409.900311 596.968464 
L 403.931234 602.415277 
L 402.003653 603.601584 
L 400.717818 605.216758 
L 398.655458 603.667896 
L 394.050457 605.008446 
L 390.945198 608.527577 
L 390.550683 613.488284 
L 387.651735 616.419186 
L 385.893564 618.581975 
L 383.187257 619.591164 
L 381.651327 622.133545 
L 379.66582 622.711947 
L 376.568396 625.964515 
L 376.623288 630.010579 
L 374.576957 633.957957 
L 377.293101 633.08365 
L 377.461776 636.3053 
L 378.438033 638.155288 
L 376.015874 641.583867 
L 378.472577 641.270451 
L 378.482761 642.839698 
L 377.289909 644.58208 
L 377.324209 646.646388 
L 378.444858 647.531124 
L 379.207418 653.980639 
L 381.071192 655.757035 
L 381.470466 660.654804 
L 382.347333 662.432317 
L 381.171029 665.824006 
L 381.484802 667.368757 
L 380.863358 669.673909 
L 378.946648 670.728484 
L 382.078323 674.966248 
L 383.642702 676.794243 
L 384.090518 678.467641 
L 384.093617 680.394527 
L 383.757903 680.488444 
L 197.050772 644.801509 
L 174.63837 642.033584 
L 181.572335 565.874941 
L 151.088434 431.055014 
L 208.170291 458.753559 
L 213.65592 450.525876 
L 311.008906 506.06895 
L 351.029483 382.207944 
L 448.939059 377.711975 
L 606.840723 370.587082 
L 606.840723 370.587082 
" clip-path="url(#p24da418b2c)" style="fill: none; stroke: #000000"/>
   </g>
   <g id="matplotlib.axis_1">
    <g id="xtick_1">
     <g id="line2d_1">
      <path d="M 106.927767 704.905288 
L 106.927767 167.734712 
" clip-path="url(#p24da418b2c)" style="fill: none; stroke: #b0b0b0; stroke-width: 0.8; stroke-linecap: square"/>
     </g>
     <g id="line2d_2">
      <defs>
       <path id="m6c95be0e49" d="M 0 0 
L 0 3.5 
" style="stroke: #000000; stroke-width: 0.8"/>
      </defs>
      <g>
       <use xlink:href="#m6c95be0e49" x="106.927767" y="704.905288" style="stroke: #000000; stroke-width: 0.8"/>
      </g>
     </g>
     <g id="text_1">
      <!-- −51.99 -->
      <g transform="translate(95.794702 743.44667) rotate(-45) scale(0.1 -0.1)">
       <defs>
        <path id="DejaVuSans-2212" d="M 678 2272 
L 4684 2272 
L 4684 1741 
L 678 1741 
L 678 2272 
z
" transform="scale(0.015625)"/>
        <path id="DejaVuSans-35" d="M 691 4666 
L 3169 4666 
L 3169 4134 
L 1269 4134 
L 1269 2991 
Q 1406 3038 1543 3061 
Q 1681 3084 1819 3084 
Q 2600 3084 3056 2656 
Q 3513 2228 3513 1497 
Q 3513 744 3044 326 
Q 2575 -91 1722 -91 
Q 1428 -91 1123 -41 
Q 819 9 494 109 
L 494 744 
Q 775 591 1075 516 
Q 1375 441 1709 441 
Q 2250 441 2565 725 
Q 2881 1009 2881 1497 
Q 2881 1984 2565 2268 
Q 2250 2553 1709 2553 
Q 1456 2553 1204 2497 
Q 953 2441 691 2322 
L 691 4666 
z
" transform="scale(0.015625)"/>
        <path id="DejaVuSans-31" d="M 794 531 
L 1825 531 
L 1825 4091 
L 703 3866 
L 703 4441 
L 1819 4666 
L 2450 4666 
L 2450 531 
L 3481 531 
L 3481 0 
L 794 0 
L 794 531 
z
" transform="scale(0.015625)"/>
        <path id="DejaVuSans-2e" d="M 684 794 
L 1344 794 
L 1344 0 
L 684 0 
L 684 794 
z
" transform="scale(0.015625)"/>
        <path id="DejaVuSans-39" d="M 703 97 
L 703 672 
Q 941 559 1184 500 
Q 1428 441 1663 441 
Q 2288 441 2617 861 
Q 2947 1281 2994 2138 
Q 2813 1869 2534 1725 
Q 2256 1581 1919 1581 
Q 1219 1581 811 2004 
Q 403 2428 403 3163 
Q 403 3881 828 4315 
Q 1253 4750 1959 4750 
Q 2769 4750 3195 4129 
Q 3622 3509 3622 2328 
Q 3622 1225 3098 567 
Q 2575 -91 1691 -91 
Q 1453 -91 1209 -44 
Q 966 3 703 97 
z
M 1959 2075 
Q 2384 2075 2632 2365 
Q 2881 2656 2881 3163 
Q 2881 3666 2632 3958 
Q 2384 4250 1959 4250 
Q 1534 4250 1286 3958 
Q 1038 3666 1038 3163 
Q 1038 2656 1286 2365 
Q 1534 2075 1959 2075 
z
" transform="scale(0.015625)"/>
       </defs>
       <use xlink:href="#DejaVuSans-2212"/>
       <use xlink:href="#DejaVuSans-35" transform="translate(83.789062 0)"/>
       <use xlink:href="#DejaVuSans-31" transform="translate(147.412109 0)"/>
       <use xlink:href="#DejaVuSans-2e" transform="translate(211.035156 0)"/>
       <use xlink:href="#DejaVuSans-39" transform="translate(242.822266 0)"/>
       <use xlink:href="#DejaVuSans-39" transform="translate(306.445312 0)"/>
      </g>
     </g>
    </g>
    <g id="xtick_2">
     <g id="line2d_3">
      <path d="M 172.523762 704.905288 
L 172.523762 167.734712 
" clip-path="url(#p24da418b2c)" style="fill: none; stroke: #b0b0b0; stroke-width: 0.8; stroke-linecap: square"/>
     </g>
     <g id="line2d_4">
      <g>
       <use xlink:href="#m6c95be0e49" x="172.523762" y="704.905288" style="stroke: #000000; stroke-width: 0.8"/>
      </g>
     </g>
     <g id="text_2">
      <!-- −51.98 -->
      <g transform="translate(161.390697 743.44667) rotate(-45) scale(0.1 -0.1)">
       <defs>
        <path id="DejaVuSans-38" d="M 2034 2216 
Q 1584 2216 1326 1975 
Q 1069 1734 1069 1313 
Q 1069 891 1326 650 
Q 1584 409 2034 409 
Q 2484 409 2743 651 
Q 3003 894 3003 1313 
Q 3003 1734 2745 1975 
Q 2488 2216 2034 2216 
z
M 1403 2484 
Q 997 2584 770 2862 
Q 544 3141 544 3541 
Q 544 4100 942 4425 
Q 1341 4750 2034 4750 
Q 2731 4750 3128 4425 
Q 3525 4100 3525 3541 
Q 3525 3141 3298 2862 
Q 3072 2584 2669 2484 
Q 3125 2378 3379 2068 
Q 3634 1759 3634 1313 
Q 3634 634 3220 271 
Q 2806 -91 2034 -91 
Q 1263 -91 848 271 
Q 434 634 434 1313 
Q 434 1759 690 2068 
Q 947 2378 1403 2484 
z
M 1172 3481 
Q 1172 3119 1398 2916 
Q 1625 2713 2034 2713 
Q 2441 2713 2670 2916 
Q 2900 3119 2900 3481 
Q 2900 3844 2670 4047 
Q 2441 4250 2034 4250 
Q 1625 4250 1398 4047 
Q 1172 3844 1172 3481 
z
" transform="scale(0.015625)"/>
       </defs>
       <use xlink:href="#DejaVuSans-2212"/>
       <use xlink:href="#DejaVuSans-35" transform="translate(83.789062 0)"/>
       <use xlink:href="#DejaVuSans-31" transform="translate(147.412109 0)"/>
       <use xlink:href="#DejaVuSans-2e" transform="translate(211.035156 0)"/>
       <use xlink:href="#DejaVuSans-39" transform="translate(242.822266 0)"/>
       <use xlink:href="#DejaVuSans-38" transform="translate(306.445312 0)"/>
      </g>
     </g>
    </g>
    <g id="xtick_3">
     <g id="line2d_5">
      <path d="M 238.119756 704.905288 
L 238.119756 167.734712 
" clip-path="url(#p24da418b2c)" style="fill: none; stroke: #b0b0b0; stroke-width: 0.8; stroke-linecap: square"/>
     </g>
     <g id="line2d_6">
      <g>
       <use xlink:href="#m6c95be0e49" x="238.119756" y="704.905288" style="stroke: #000000; stroke-width: 0.8"/>
      </g>
     </g>
     <g id="text_3">
      <!-- −51.97 -->
      <g transform="translate(226.986691 743.44667) rotate(-45) scale(0.1 -0.1)">
       <defs>
        <path id="DejaVuSans-37" d="M 525 4666 
L 3525 4666 
L 3525 4397 
L 1831 0 
L 1172 0 
L 2766 4134 
L 525 4134 
L 525 4666 
z
" transform="scale(0.015625)"/>
       </defs>
       <use xlink:href="#DejaVuSans-2212"/>
       <use xlink:href="#DejaVuSans-35" transform="translate(83.789062 0)"/>
       <use xlink:href="#DejaVuSans-31" transform="translate(147.412109 0)"/>
       <use xlink:href="#DejaVuSans-2e" transform="translate(211.035156 0)"/>
       <use xlink:href="#DejaVuSans-39" transform="translate(242.822266 0)"/>
       <use xlink:href="#DejaVuSans-37" transform="translate(306.445312 0)"/>
      </g>
     </g>
    </g>
    <g id="xtick_4">
     <g id="line2d_7">
      <path d="M 303.715751 704.905288 
L 303.715751 167.734712 
" clip-path="url(#p24da418b2c)" style="fill: none; stroke: #b0b0b0; stroke-width: 0.8; stroke-linecap: square"/>
     </g>
     <g id="line2d_8">
      <g>
       <use xlink:href="#m6c95be0e49" x="303.715751" y="704.905288" style="stroke: #000000; stroke-width: 0.8"/>
      </g>
     </g>
     <g id="text_4">
      <!-- −51.96 -->
      <g transform="translate(292.582686 743.44667) rotate(-45) scale(0.1 -0.1)">
       <defs>
        <path id="DejaVuSans-36" d="M 2113 2584 
Q 1688 2584 1439 2293 
Q 1191 2003 1191 1497 
Q 1191 994 1439 701 
Q 1688 409 2113 409 
Q 2538 409 2786 701 
Q 3034 994 3034 1497 
Q 3034 2003 2786 2293 
Q 2538 2584 2113 2584 
z
M 3366 4563 
L 3366 3988 
Q 3128 4100 2886 4159 
Q 2644 4219 2406 4219 
Q 1781 4219 1451 3797 
Q 1122 3375 1075 2522 
Q 1259 2794 1537 2939 
Q 1816 3084 2150 3084 
Q 2853 3084 3261 2657 
Q 3669 2231 3669 1497 
Q 3669 778 3244 343 
Q 2819 -91 2113 -91 
Q 1303 -91 875 529 
Q 447 1150 447 2328 
Q 447 3434 972 4092 
Q 1497 4750 2381 4750 
Q 2619 4750 2861 4703 
Q 3103 4656 3366 4563 
z
" transform="scale(0.015625)"/>
       </defs>
       <use xlink:href="#DejaVuSans-2212"/>
       <use xlink:href="#DejaVuSans-35" transform="translate(83.789062 0)"/>
       <use xlink:href="#DejaVuSans-31" transform="translate(147.412109 0)"/>
       <use xlink:href="#DejaVuSans-2e" transform="translate(211.035156 0)"/>
       <use xlink:href="#DejaVuSans-39" transform="translate(242.822266 0)"/>
       <use xlink:href="#DejaVuSans-36" transform="translate(306.445312 0)"/>
      </g>
     </g>
    </g>
    <g id="xtick_5">
     <g id="line2d_9">
      <path d="M 369.311745 704.905288 
L 369.311745 167.734712 
" clip-path="url(#p24da418b2c)" style="fill: none; stroke: #b0b0b0; stroke-width: 0.8; stroke-linecap: square"/>
     </g>
     <g id="line2d_10">
      <g>
       <use xlink:href="#m6c95be0e49" x="369.311745" y="704.905288" style="stroke: #000000; stroke-width: 0.8"/>
      </g>
     </g>
     <g id="text_5">
      <!-- −51.95 -->
      <g transform="translate(358.178681 743.44667) rotate(-45) scale(0.1 -0.1)">
       <use xlink:href="#DejaVuSans-2212"/>
       <use xlink:href="#DejaVuSans-35" transform="translate(83.789062 0)"/>
       <use xlink:href="#DejaVuSans-31" transform="translate(147.412109 0)"/>
       <use xlink:href="#DejaVuSans-2e" transform="translate(211.035156 0)"/>
       <use xlink:href="#DejaVuSans-39" transform="translate(242.822266 0)"/>
       <use xlink:href="#DejaVuSans-35" transform="translate(306.445312 0)"/>
      </g>
     </g>
    </g>
    <g id="xtick_6">
     <g id="line2d_11">
      <path d="M 434.90774 704.905288 
L 434.90774 167.734712 
" clip-path="url(#p24da418b2c)" style="fill: none; stroke: #b0b0b0; stroke-width: 0.8; stroke-linecap: square"/>
     </g>
     <g id="line2d_12">
      <g>
       <use xlink:href="#m6c95be0e49" x="434.90774" y="704.905288" style="stroke: #000000; stroke-width: 0.8"/>
      </g>
     </g>
     <g id="text_6">
      <!-- −51.94 -->
      <g transform="translate(423.774675 743.44667) rotate(-45) scale(0.1 -0.1)">
       <defs>
        <path id="DejaVuSans-34" d="M 2419 4116 
L 825 1625 
L 2419 1625 
L 2419 4116 
z
M 2253 4666 
L 3047 4666 
L 3047 1625 
L 3713 1625 
L 3713 1100 
L 3047 1100 
L 3047 0 
L 2419 0 
L 2419 1100 
L 313 1100 
L 313 1709 
L 2253 4666 
z
" transform="scale(0.015625)"/>
       </defs>
       <use xlink:href="#DejaVuSans-2212"/>
       <use xlink:href="#DejaVuSans-35" transform="translate(83.789062 0)"/>
       <use xlink:href="#DejaVuSans-31" transform="translate(147.412109 0)"/>
       <use xlink:href="#DejaVuSans-2e" transform="translate(211.035156 0)"/>
       <use xlink:href="#DejaVuSans-39" transform="translate(242.822266 0)"/>
       <use xlink:href="#DejaVuSans-34" transform="translate(306.445312 0)"/>
      </g>
     </g>
    </g>
    <g id="xtick_7">
     <g id="line2d_13">
      <path d="M 500.503735 704.905288 
L 500.503735 167.734712 
" clip-path="url(#p24da418b2c)" style="fill: none; stroke: #b0b0b0; stroke-width: 0.8; stroke-linecap: square"/>
     </g>
     <g id="line2d_14">
      <g>
       <use xlink:href="#m6c95be0e49" x="500.503735" y="704.905288" style="stroke: #000000; stroke-width: 0.8"/>
      </g>
     </g>
     <g id="text_7">
      <!-- −51.93 -->
      <g transform="translate(489.37067 743.44667) rotate(-45) scale(0.1 -0.1)">
       <defs>
        <path id="DejaVuSans-33" d="M 2597 2516 
Q 3050 2419 3304 2112 
Q 3559 1806 3559 1356 
Q 3559 666 3084 287 
Q 2609 -91 1734 -91 
Q 1441 -91 1130 -33 
Q 819 25 488 141 
L 488 750 
Q 750 597 1062 519 
Q 1375 441 1716 441 
Q 2309 441 2620 675 
Q 2931 909 2931 1356 
Q 2931 1769 2642 2001 
Q 2353 2234 1838 2234 
L 1294 2234 
L 1294 2753 
L 1863 2753 
Q 2328 2753 2575 2939 
Q 2822 3125 2822 3475 
Q 2822 3834 2567 4026 
Q 2313 4219 1838 4219 
Q 1578 4219 1281 4162 
Q 984 4106 628 3988 
L 628 4550 
Q 988 4650 1302 4700 
Q 1616 4750 1894 4750 
Q 2613 4750 3031 4423 
Q 3450 4097 3450 3541 
Q 3450 3153 3228 2886 
Q 3006 2619 2597 2516 
z
" transform="scale(0.015625)"/>
       </defs>
       <use xlink:href="#DejaVuSans-2212"/>
       <use xlink:href="#DejaVuSans-35" transform="translate(83.789062 0)"/>
       <use xlink:href="#DejaVuSans-31" transform="translate(147.412109 0)"/>
       <use xlink:href="#DejaVuSans-2e" transform="translate(211.035156 0)"/>
       <use xlink:href="#DejaVuSans-39" transform="translate(242.822266 0)"/>
       <use xlink:href="#DejaVuSans-33" transform="translate(306.445312 0)"/>
      </g>
     </g>
    </g>
    <g id="xtick_8">
     <g id="line2d_15">
      <path d="M 566.099729 704.905288 
L 566.099729 167.734712 
" clip-path="url(#p24da418b2c)" style="fill: none; stroke: #b0b0b0; stroke-width: 0.8; stroke-linecap: square"/>
     </g>
     <g id="line2d_16">
      <g>
       <use xlink:href="#m6c95be0e49" x="566.099729" y="704.905288" style="stroke: #000000; stroke-width: 0.8"/>
      </g>
     </g>
     <g id="text_8">
      <!-- −51.92 -->
      <g transform="translate(554.966664 743.44667) rotate(-45) scale(0.1 -0.1)">
       <defs>
        <path id="DejaVuSans-32" d="M 1228 531 
L 3431 531 
L 3431 0 
L 469 0 
L 469 531 
Q 828 903 1448 1529 
Q 2069 2156 2228 2338 
Q 2531 2678 2651 2914 
Q 2772 3150 2772 3378 
Q 2772 3750 2511 3984 
Q 2250 4219 1831 4219 
Q 1534 4219 1204 4116 
Q 875 4013 500 3803 
L 500 4441 
Q 881 4594 1212 4672 
Q 1544 4750 1819 4750 
Q 2544 4750 2975 4387 
Q 3406 4025 3406 3419 
Q 3406 3131 3298 2873 
Q 3191 2616 2906 2266 
Q 2828 2175 2409 1742 
Q 1991 1309 1228 531 
z
" transform="scale(0.015625)"/>
       </defs>
       <use xlink:href="#DejaVuSans-2212"/>
       <use xlink:href="#DejaVuSans-35" transform="translate(83.789062 0)"/>
       <use xlink:href="#DejaVuSans-31" transform="translate(147.412109 0)"/>
       <use xlink:href="#DejaVuSans-2e" transform="translate(211.035156 0)"/>
       <use xlink:href="#DejaVuSans-39" transform="translate(242.822266 0)"/>
       <use xlink:href="#DejaVuSans-32" transform="translate(306.445312 0)"/>
      </g>
     </g>
    </g>
    <g id="xtick_9">
     <g id="line2d_17">
      <path d="M 631.695724 704.905288 
L 631.695724 167.734712 
" clip-path="url(#p24da418b2c)" style="fill: none; stroke: #b0b0b0; stroke-width: 0.8; stroke-linecap: square"/>
     </g>
     <g id="line2d_18">
      <g>
       <use xlink:href="#m6c95be0e49" x="631.695724" y="704.905288" style="stroke: #000000; stroke-width: 0.8"/>
      </g>
     </g>
     <g id="text_9">
      <!-- −51.91 -->
      <g transform="translate(620.562659 743.44667) rotate(-45) scale(0.1 -0.1)">
       <use xlink:href="#DejaVuSans-2212"/>
       <use xlink:href="#DejaVuSans-35" transform="translate(83.789062 0)"/>
       <use xlink:href="#DejaVuSans-31" transform="translate(147.412109 0)"/>
       <use xlink:href="#DejaVuSans-2e" transform="translate(211.035156 0)"/>
       <use xlink:href="#DejaVuSans-39" transform="translate(242.822266 0)"/>
       <use xlink:href="#DejaVuSans-31" transform="translate(306.445312 0)"/>
      </g>
     </g>
    </g>
    <g id="text_10">
     <!-- Longitude (°) -->
     <g transform="translate(336.139844 756.515669) scale(0.1 -0.1)">
      <defs>
       <path id="DejaVuSans-4c" d="M 628 4666 
L 1259 4666 
L 1259 531 
L 3531 531 
L 3531 0 
L 628 0 
L 628 4666 
z
" transform="scale(0.015625)"/>
       <path id="DejaVuSans-6f" d="M 1959 3097 
Q 1497 3097 1228 2736 
Q 959 2375 959 1747 
Q 959 1119 1226 758 
Q 1494 397 1959 397 
Q 2419 397 2687 759 
Q 2956 1122 2956 1747 
Q 2956 2369 2687 2733 
Q 2419 3097 1959 3097 
z
M 1959 3584 
Q 2709 3584 3137 3096 
Q 3566 2609 3566 1747 
Q 3566 888 3137 398 
Q 2709 -91 1959 -91 
Q 1206 -91 779 398 
Q 353 888 353 1747 
Q 353 2609 779 3096 
Q 1206 3584 1959 3584 
z
" transform="scale(0.015625)"/>
       <path id="DejaVuSans-6e" d="M 3513 2113 
L 3513 0 
L 2938 0 
L 2938 2094 
Q 2938 2591 2744 2837 
Q 2550 3084 2163 3084 
Q 1697 3084 1428 2787 
Q 1159 2491 1159 1978 
L 1159 0 
L 581 0 
L 581 3500 
L 1159 3500 
L 1159 2956 
Q 1366 3272 1645 3428 
Q 1925 3584 2291 3584 
Q 2894 3584 3203 3211 
Q 3513 2838 3513 2113 
z
" transform="scale(0.015625)"/>
       <path id="DejaVuSans-67" d="M 2906 1791 
Q 2906 2416 2648 2759 
Q 2391 3103 1925 3103 
Q 1463 3103 1205 2759 
Q 947 2416 947 1791 
Q 947 1169 1205 825 
Q 1463 481 1925 481 
Q 2391 481 2648 825 
Q 2906 1169 2906 1791 
z
M 3481 434 
Q 3481 -459 3084 -895 
Q 2688 -1331 1869 -1331 
Q 1566 -1331 1297 -1286 
Q 1028 -1241 775 -1147 
L 775 -588 
Q 1028 -725 1275 -790 
Q 1522 -856 1778 -856 
Q 2344 -856 2625 -561 
Q 2906 -266 2906 331 
L 2906 616 
Q 2728 306 2450 153 
Q 2172 0 1784 0 
Q 1141 0 747 490 
Q 353 981 353 1791 
Q 353 2603 747 3093 
Q 1141 3584 1784 3584 
Q 2172 3584 2450 3431 
Q 2728 3278 2906 2969 
L 2906 3500 
L 3481 3500 
L 3481 434 
z
" transform="scale(0.015625)"/>
       <path id="DejaVuSans-69" d="M 603 3500 
L 1178 3500 
L 1178 0 
L 603 0 
L 603 3500 
z
M 603 4863 
L 1178 4863 
L 1178 4134 
L 603 4134 
L 603 4863 
z
" transform="scale(0.015625)"/>
       <path id="DejaVuSans-74" d="M 1172 4494 
L 1172 3500 
L 2356 3500 
L 2356 3053 
L 1172 3053 
L 1172 1153 
Q 1172 725 1289 603 
Q 1406 481 1766 481 
L 2356 481 
L 2356 0 
L 1766 0 
Q 1100 0 847 248 
Q 594 497 594 1153 
L 594 3053 
L 172 3053 
L 172 3500 
L 594 3500 
L 594 4494 
L 1172 4494 
z
" transform="scale(0.015625)"/>
       <path id="DejaVuSans-75" d="M 544 1381 
L 544 3500 
L 1119 3500 
L 1119 1403 
Q 1119 906 1312 657 
Q 1506 409 1894 409 
Q 2359 409 2629 706 
Q 2900 1003 2900 1516 
L 2900 3500 
L 3475 3500 
L 3475 0 
L 2900 0 
L 2900 538 
Q 2691 219 2414 64 
Q 2138 -91 1772 -91 
Q 1169 -91 856 284 
Q 544 659 544 1381 
z
M 1991 3584 
L 1991 3584 
z
" transform="scale(0.015625)"/>
       <path id="DejaVuSans-64" d="M 2906 2969 
L 2906 4863 
L 3481 4863 
L 3481 0 
L 2906 0 
L 2906 525 
Q 2725 213 2448 61 
Q 2172 -91 1784 -91 
Q 1150 -91 751 415 
Q 353 922 353 1747 
Q 353 2572 751 3078 
Q 1150 3584 1784 3584 
Q 2172 3584 2448 3432 
Q 2725 3281 2906 2969 
z
M 947 1747 
Q 947 1113 1208 752 
Q 1469 391 1925 391 
Q 2381 391 2643 752 
Q 2906 1113 2906 1747 
Q 2906 2381 2643 2742 
Q 2381 3103 1925 3103 
Q 1469 3103 1208 2742 
Q 947 2381 947 1747 
z
" transform="scale(0.015625)"/>
       <path id="DejaVuSans-65" d="M 3597 1894 
L 3597 1613 
L 953 1613 
Q 991 1019 1311 708 
Q 1631 397 2203 397 
Q 2534 397 2845 478 
Q 3156 559 3463 722 
L 3463 178 
Q 3153 47 2828 -22 
Q 2503 -91 2169 -91 
Q 1331 -91 842 396 
Q 353 884 353 1716 
Q 353 2575 817 3079 
Q 1281 3584 2069 3584 
Q 2775 3584 3186 3129 
Q 3597 2675 3597 1894 
z
M 3022 2063 
Q 3016 2534 2758 2815 
Q 2500 3097 2075 3097 
Q 1594 3097 1305 2825 
Q 1016 2553 972 2059 
L 3022 2063 
z
" transform="scale(0.015625)"/>
       <path id="DejaVuSans-20" transform="scale(0.015625)"/>
       <path id="DejaVuSans-28" d="M 1984 4856 
Q 1566 4138 1362 3434 
Q 1159 2731 1159 2009 
Q 1159 1288 1364 580 
Q 1569 -128 1984 -844 
L 1484 -844 
Q 1016 -109 783 600 
Q 550 1309 550 2009 
Q 550 2706 781 3412 
Q 1013 4119 1484 4856 
L 1984 4856 
z
" transform="scale(0.015625)"/>
       <path id="DejaVuSans-b0" d="M 1600 4347 
Q 1350 4347 1178 4173 
Q 1006 4000 1006 3750 
Q 1006 3503 1178 3333 
Q 1350 3163 1600 3163 
Q 1850 3163 2022 3333 
Q 2194 3503 2194 3750 
Q 2194 3997 2020 4172 
Q 1847 4347 1600 4347 
z
M 1600 4750 
Q 1800 4750 1984 4673 
Q 2169 4597 2303 4453 
Q 2447 4313 2519 4134 
Q 2591 3956 2591 3750 
Q 2591 3338 2302 3052 
Q 2013 2766 1594 2766 
Q 1172 2766 890 3047 
Q 609 3328 609 3750 
Q 609 4169 896 4459 
Q 1184 4750 1600 4750 
z
" transform="scale(0.015625)"/>
       <path id="DejaVuSans-29" d="M 513 4856 
L 1013 4856 
Q 1481 4119 1714 3412 
Q 1947 2706 1947 2009 
Q 1947 1309 1714 600 
Q 1481 -109 1013 -844 
L 513 -844 
Q 928 -128 1133 580 
Q 1338 1288 1338 2009 
Q 1338 2731 1133 3434 
Q 928 4138 513 4856 
z
" transform="scale(0.015625)"/>
      </defs>
      <use xlink:href="#DejaVuSans-4c"/>
      <use xlink:href="#DejaVuSans-6f" transform="translate(53.962891 0)"/>
      <use xlink:href="#DejaVuSans-6e" transform="translate(115.144531 0)"/>
      <use xlink:href="#DejaVuSans-67" transform="translate(178.523438 0)"/>
      <use xlink:href="#DejaVuSans-69" transform="translate(242 0)"/>
      <use xlink:href="#DejaVuSans-74" transform="translate(269.783203 0)"/>
      <use xlink:href="#DejaVuSans-75" transform="translate(308.992188 0)"/>
      <use xlink:href="#DejaVuSans-64" transform="translate(372.371094 0)"/>
      <use xlink:href="#DejaVuSans-65" transform="translate(435.847656 0)"/>
      <use xlink:href="#DejaVuSans-20" transform="translate(497.371094 0)"/>
      <use xlink:href="#DejaVuSans-28" transform="translate(529.158203 0)"/>
      <use xlink:href="#DejaVuSans-b0" transform="translate(568.171875 0)"/>
      <use xlink:href="#DejaVuSans-29" transform="translate(618.171875 0)"/>
     </g>
    </g>
   </g>
   <g id="matplotlib.axis_2">
    <g id="ytick_1">
     <g id="line2d_19">
      <path d="M 90 663.509667 
L 648 663.509667 
" clip-path="url(#p24da418b2c)" style="fill: none; stroke: #b0b0b0; stroke-width: 0.8; stroke-linecap: square"/>
     </g>
     <g id="line2d_20">
      <defs>
       <path id="m83b2431555" d="M 0 0 
L -3.5 0 
" style="stroke: #000000; stroke-width: 0.8"/>
      </defs>
      <g>
       <use xlink:href="#m83b2431555" x="90" y="663.509667" style="stroke: #000000; stroke-width: 0.8"/>
      </g>
     </g>
     <g id="text_11">
      <!-- −15.61 -->
      <g transform="translate(45.992188 667.308885) scale(0.1 -0.1)">
       <use xlink:href="#DejaVuSans-2212"/>
       <use xlink:href="#DejaVuSans-31" transform="translate(83.789062 0)"/>
       <use xlink:href="#DejaVuSans-35" transform="translate(147.412109 0)"/>
       <use xlink:href="#DejaVuSans-2e" transform="translate(211.035156 0)"/>
       <use xlink:href="#DejaVuSans-36" transform="translate(242.822266 0)"/>
       <use xlink:href="#DejaVuSans-31" transform="translate(306.445312 0)"/>
      </g>
     </g>
    </g>
    <g id="ytick_2">
     <g id="line2d_21">
      <path d="M 90 595.40827 
L 648 595.40827 
" clip-path="url(#p24da418b2c)" style="fill: none; stroke: #b0b0b0; stroke-width: 0.8; stroke-linecap: square"/>
     </g>
     <g id="line2d_22">
      <g>
       <use xlink:href="#m83b2431555" x="90" y="595.40827" style="stroke: #000000; stroke-width: 0.8"/>
      </g>
     </g>
     <g id="text_12">
      <!-- −15.60 -->
      <g transform="translate(45.992188 599.207488) scale(0.1 -0.1)">
       <defs>
        <path id="DejaVuSans-30" d="M 2034 4250 
Q 1547 4250 1301 3770 
Q 1056 3291 1056 2328 
Q 1056 1369 1301 889 
Q 1547 409 2034 409 
Q 2525 409 2770 889 
Q 3016 1369 3016 2328 
Q 3016 3291 2770 3770 
Q 2525 4250 2034 4250 
z
M 2034 4750 
Q 2819 4750 3233 4129 
Q 3647 3509 3647 2328 
Q 3647 1150 3233 529 
Q 2819 -91 2034 -91 
Q 1250 -91 836 529 
Q 422 1150 422 2328 
Q 422 3509 836 4129 
Q 1250 4750 2034 4750 
z
" transform="scale(0.015625)"/>
       </defs>
       <use xlink:href="#DejaVuSans-2212"/>
       <use xlink:href="#DejaVuSans-31" transform="translate(83.789062 0)"/>
       <use xlink:href="#DejaVuSans-35" transform="translate(147.412109 0)"/>
       <use xlink:href="#DejaVuSans-2e" transform="translate(211.035156 0)"/>
       <use xlink:href="#DejaVuSans-36" transform="translate(242.822266 0)"/>
       <use xlink:href="#DejaVuSans-30" transform="translate(306.445312 0)"/>
      </g>
     </g>
    </g>
    <g id="ytick_3">
     <g id="line2d_23">
      <path d="M 90 527.306873 
L 648 527.306873 
" clip-path="url(#p24da418b2c)" style="fill: none; stroke: #b0b0b0; stroke-width: 0.8; stroke-linecap: square"/>
     </g>
     <g id="line2d_24">
      <g>
       <use xlink:href="#m83b2431555" x="90" y="527.306873" style="stroke: #000000; stroke-width: 0.8"/>
      </g>
     </g>
     <g id="text_13">
      <!-- −15.59 -->
      <g transform="translate(45.992188 531.106092) scale(0.1 -0.1)">
       <use xlink:href="#DejaVuSans-2212"/>
       <use xlink:href="#DejaVuSans-31" transform="translate(83.789062 0)"/>
       <use xlink:href="#DejaVuSans-35" transform="translate(147.412109 0)"/>
       <use xlink:href="#DejaVuSans-2e" transform="translate(211.035156 0)"/>
       <use xlink:href="#DejaVuSans-35" transform="translate(242.822266 0)"/>
       <use xlink:href="#DejaVuSans-39" transform="translate(306.445312 0)"/>
      </g>
     </g>
    </g>
    <g id="ytick_4">
     <g id="line2d_25">
      <path d="M 90 459.205476 
L 648 459.205476 
" clip-path="url(#p24da418b2c)" style="fill: none; stroke: #b0b0b0; stroke-width: 0.8; stroke-linecap: square"/>
     </g>
     <g id="line2d_26">
      <g>
       <use xlink:href="#m83b2431555" x="90" y="459.205476" style="stroke: #000000; stroke-width: 0.8"/>
      </g>
     </g>
     <g id="text_14">
      <!-- −15.58 -->
      <g transform="translate(45.992188 463.004695) scale(0.1 -0.1)">
       <use xlink:href="#DejaVuSans-2212"/>
       <use xlink:href="#DejaVuSans-31" transform="translate(83.789062 0)"/>
       <use xlink:href="#DejaVuSans-35" transform="translate(147.412109 0)"/>
       <use xlink:href="#DejaVuSans-2e" transform="translate(211.035156 0)"/>
       <use xlink:href="#DejaVuSans-35" transform="translate(242.822266 0)"/>
       <use xlink:href="#DejaVuSans-38" transform="translate(306.445312 0)"/>
      </g>
     </g>
    </g>
    <g id="ytick_5">
     <g id="line2d_27">
      <path d="M 90 391.104079 
L 648 391.104079 
" clip-path="url(#p24da418b2c)" style="fill: none; stroke: #b0b0b0; stroke-width: 0.8; stroke-linecap: square"/>
     </g>
     <g id="line2d_28">
      <g>
       <use xlink:href="#m83b2431555" x="90" y="391.104079" style="stroke: #000000; stroke-width: 0.8"/>
      </g>
     </g>
     <g id="text_15">
      <!-- −15.57 -->
      <g transform="translate(45.992188 394.903298) scale(0.1 -0.1)">
       <use xlink:href="#DejaVuSans-2212"/>
       <use xlink:href="#DejaVuSans-31" transform="translate(83.789062 0)"/>
       <use xlink:href="#DejaVuSans-35" transform="translate(147.412109 0)"/>
       <use xlink:href="#DejaVuSans-2e" transform="translate(211.035156 0)"/>
       <use xlink:href="#DejaVuSans-35" transform="translate(242.822266 0)"/>
       <use xlink:href="#DejaVuSans-37" transform="translate(306.445312 0)"/>
      </g>
     </g>
    </g>
    <g id="ytick_6">
     <g id="line2d_29">
      <path d="M 90 323.002682 
L 648 323.002682 
" clip-path="url(#p24da418b2c)" style="fill: none; stroke: #b0b0b0; stroke-width: 0.8; stroke-linecap: square"/>
     </g>
     <g id="line2d_30">
      <g>
       <use xlink:href="#m83b2431555" x="90" y="323.002682" style="stroke: #000000; stroke-width: 0.8"/>
      </g>
     </g>
     <g id="text_16">
      <!-- −15.56 -->
      <g transform="translate(45.992188 326.801901) scale(0.1 -0.1)">
       <use xlink:href="#DejaVuSans-2212"/>
       <use xlink:href="#DejaVuSans-31" transform="translate(83.789062 0)"/>
       <use xlink:href="#DejaVuSans-35" transform="translate(147.412109 0)"/>
       <use xlink:href="#DejaVuSans-2e" transform="translate(211.035156 0)"/>
       <use xlink:href="#DejaVuSans-35" transform="translate(242.822266 0)"/>
       <use xlink:href="#DejaVuSans-36" transform="translate(306.445312 0)"/>
      </g>
     </g>
    </g>
    <g id="ytick_7">
     <g id="line2d_31">
      <path d="M 90 254.901285 
L 648 254.901285 
" clip-path="url(#p24da418b2c)" style="fill: none; stroke: #b0b0b0; stroke-width: 0.8; stroke-linecap: square"/>
     </g>
     <g id="line2d_32">
      <g>
       <use xlink:href="#m83b2431555" x="90" y="254.901285" style="stroke: #000000; stroke-width: 0.8"/>
      </g>
     </g>
     <g id="text_17">
      <!-- −15.55 -->
      <g transform="translate(45.992188 258.700504) scale(0.1 -0.1)">
       <use xlink:href="#DejaVuSans-2212"/>
       <use xlink:href="#DejaVuSans-31" transform="translate(83.789062 0)"/>
       <use xlink:href="#DejaVuSans-35" transform="translate(147.412109 0)"/>
       <use xlink:href="#DejaVuSans-2e" transform="translate(211.035156 0)"/>
       <use xlink:href="#DejaVuSans-35" transform="translate(242.822266 0)"/>
       <use xlink:href="#DejaVuSans-35" transform="translate(306.445312 0)"/>
      </g>
     </g>
    </g>
    <g id="ytick_8">
     <g id="line2d_33">
      <path d="M 90 186.799888 
L 648 186.799888 
" clip-path="url(#p24da418b2c)" style="fill: none; stroke: #b0b0b0; stroke-width: 0.8; stroke-linecap: square"/>
     </g>
     <g id="line2d_34">
      <g>
       <use xlink:href="#m83b2431555" x="90" y="186.799888" style="stroke: #000000; stroke-width: 0.8"/>
      </g>
     </g>
     <g id="text_18">
      <!-- −15.54 -->
      <g transform="translate(45.992188 190.599107) scale(0.1 -0.1)">
       <use xlink:href="#DejaVuSans-2212"/>
       <use xlink:href="#DejaVuSans-31" transform="translate(83.789062 0)"/>
       <use xlink:href="#DejaVuSans-35" transform="translate(147.412109 0)"/>
       <use xlink:href="#DejaVuSans-2e" transform="translate(211.035156 0)"/>
       <use xlink:href="#DejaVuSans-35" transform="translate(242.822266 0)"/>
       <use xlink:href="#DejaVuSans-34" transform="translate(306.445312 0)"/>
      </g>
     </g>
    </g>
    <g id="text_19">
     <!-- Latitude (°) -->
     <g transform="translate(39.9125 464.889531) rotate(-90) scale(0.1 -0.1)">
      <defs>
       <path id="DejaVuSans-61" d="M 2194 1759 
Q 1497 1759 1228 1600 
Q 959 1441 959 1056 
Q 959 750 1161 570 
Q 1363 391 1709 391 
Q 2188 391 2477 730 
Q 2766 1069 2766 1631 
L 2766 1759 
L 2194 1759 
z
M 3341 1997 
L 3341 0 
L 2766 0 
L 2766 531 
Q 2569 213 2275 61 
Q 1981 -91 1556 -91 
Q 1019 -91 701 211 
Q 384 513 384 1019 
Q 384 1609 779 1909 
Q 1175 2209 1959 2209 
L 2766 2209 
L 2766 2266 
Q 2766 2663 2505 2880 
Q 2244 3097 1772 3097 
Q 1472 3097 1187 3025 
Q 903 2953 641 2809 
L 641 3341 
Q 956 3463 1253 3523 
Q 1550 3584 1831 3584 
Q 2591 3584 2966 3190 
Q 3341 2797 3341 1997 
z
" transform="scale(0.015625)"/>
      </defs>
      <use xlink:href="#DejaVuSans-4c"/>
      <use xlink:href="#DejaVuSans-61" transform="translate(55.712891 0)"/>
      <use xlink:href="#DejaVuSans-74" transform="translate(116.992188 0)"/>
      <use xlink:href="#DejaVuSans-69" transform="translate(156.201172 0)"/>
      <use xlink:href="#DejaVuSans-74" transform="translate(183.984375 0)"/>
      <use xlink:href="#DejaVuSans-75" transform="translate(223.193359 0)"/>
      <use xlink:href="#DejaVuSans-64" transform="translate(286.572266 0)"/>
      <use xlink:href="#DejaVuSans-65" transform="translate(350.048828 0)"/>
      <use xlink:href="#DejaVuSans-20" transform="translate(411.572266 0)"/>
      <use xlink:href="#DejaVuSans-28" transform="translate(443.359375 0)"/>
      <use xlink:href="#DejaVuSans-b0" transform="translate(482.373047 0)"/>
      <use xlink:href="#DejaVuSans-29" transform="translate(532.373047 0)"/>
     </g>
    </g>
   </g>
   <g id="patch_3">
    <path d="M 90 704.905288 
L 90 167.734712 
" style="fill: none; stroke: #000000; stroke-width: 0.8; stroke-linejoin: miter; stroke-linecap: square"/>
   </g>
   <g id="patch_4">
    <path d="M 648 704.905288 
L 648 167.734712 
" style="fill: none; stroke: #000000; stroke-width: 0.8; stroke-linejoin: miter; stroke-linecap: square"/>
   </g>
   <g id="patch_5">
    <path d="M 90 704.905288 
L 648 704.905288 
" style="fill: none; stroke: #000000; stroke-width: 0.8; stroke-linejoin: miter; stroke-linecap: square"/>
   </g>
   <g id="patch_6">
    <path d="M 90 167.734712 
L 648 167.734712 
" style="fill: none; stroke: #000000; stroke-width: 0.8; stroke-linejoin: miter; stroke-linecap: square"/>
   </g>
  </g>
 </g>
 <defs>
  <clipPath id="p24da418b2c">
   <rect x="90" y="167.734712" width="558" height="537.170576"/>
  </clipPath>
 </defs>
</svg>
