<?xml version="1.0" encoding="utf-8" standalone="no"?>
<!DOCTYPE svg PUBLIC "-//W3C//DTD SVG 1.1//EN"
  "http://www.w3.org/Graphics/SVG/1.1/DTD/svg11.dtd">
<svg xmlns:xlink="http://www.w3.org/1999/xlink" width="720pt" height="864pt" viewBox="0 0 720 864" xmlns="http://www.w3.org/2000/svg" version="1.1">
 <metadata>
  <rdf:RDF xmlns:dc="http://purl.org/dc/elements/1.1/" xmlns:cc="http://creativecommons.org/ns#" xmlns:rdf="http://www.w3.org/1999/02/22-rdf-syntax-ns#">
   <cc:Work>
    <dc:type rdf:resource="http://purl.org/dc/dcmitype/StillImage"/>
    <dc:date>2025-06-16T17:45:05.173398</dc:date>
    <dc:format>image/svg+xml</dc:format>
    <dc:creator>
     <cc:Agent>
      <dc:title>Matplotlib v3.10.1, https://matplotlib.org/</dc:title>
     </cc:Agent>
    </dc:creator>
   </cc:Work>
  </rdf:RDF>
 </metadata>
 <defs>
  <style type="text/css">*{stroke-linejoin: round; stroke-linecap: butt}</style>
 </defs>
 <g id="figure_1">
  <g id="patch_1">
   <path d="M 0 864 
L 720 864 
L 720 0 
L 0 0 
z
" style="fill: #ffffff"/>
  </g>
  <g id="axes_1">
   <g id="patch_2">
    <path d="M 90 740.734683 
L 648 740.734683 
L 648 131.905317 
L 90 131.905317 
z
" style="fill: #ffffff"/>
   </g>
   <g id="PatchCollection_1">
    <path d="M 267.555243 286.629608 
L 337.744169 362.246929 
L 335.102111 365.056955 
L 332.76957 366.250402 
L 332.09064 370.505485 
L 336.591675 380.871149 
L 332.674935 391.992138 
L 332.930093 395.769243 
L 340.912759 401.156591 
L 342.336272 404.927248 
L 339.570351 412.499518 
L 333.534236 421.110818 
L 334.247281 423.232559 
L 338.238045 425.808469 
L 339.217268 433.832322 
L 338.769793 437.613297 
L 336.903917 438.568658 
L 334.11666 442.126413 
L 334.144346 447.321485 
L 339.547752 451.542434 
L 340.26211 453.900282 
L 339.116299 458.156754 
L 334.940272 464.556201 
L 335.425743 467.859791 
L 340.401059 479.40398 
L 340.884563 482.234745 
L 339.264942 485.549949 
L 339.048226 488.621291 
L 340.700723 491.446197 
L 340.47886 493.572497 
L 338.852796 495.707139 
L 334.415631 497.148335 
L 333.020321 498.573341 
L 332.795982 500.463534 
L 333.514806 503.529716 
L 337.755268 508.937663 
L 338.243345 512.714066 
L 335.737314 514.890345 
L 324.75572 517.312682 
L 323.825992 518.498403 
L 324.108161 527.235051 
L 323.892806 530.778624 
L 322.959108 531.019295 
L 321.08481 530.557381 
L 319.670885 528.675619 
L 317.796591 528.213701 
L 316.388402 527.277568 
L 313.095062 523.988832 
L 309.57214 521.410896 
L 304.889289 520.727692 
L 302.775153 519.086473 
L 301.122099 516.261525 
L 299.477329 514.853841 
L 297.367045 513.920358 
L 293.392144 514.414421 
L 279.612714 518.505219 
L 278.009527 524.88984 
L 275.446491 526.793435 
L 274.063864 530.579524 
L 274.776893 532.701293 
L 274.325416 535.773921 
L 270.353584 536.739557 
L 259.559354 543.564823 
L 248.475001 553.458201 
L 248.797649 562.889984 
L 234.607231 556.783785 
L 227.091442 563.655033 
L 226.30116 555.052798 
L 216.336478 565.79298 
L 208.657761 568.146105 
L 204.924478 571.514204 
L 209.07068 585.323136 
L 213.948774 583.79505 
L 209.667962 591.263252 
L 190.744908 591.420589 
L 179.958298 584.826725 
L 176.165992 586.217713 
L 115.363636 324.208316 
L 267.555243 286.629608 
" clip-path="url(#p350eafffd2)" style="fill: #e0bd1f; stroke: #0000ff; stroke-width: 0.5"/>
    <path d="M 337.744169 362.246929 
L 403.280349 432.841047 
L 438.747895 577.312693 
L 433.740474 580.776253 
L 427.799801 591.624586 
L 426.622941 598.98463 
L 388.848388 603.048292 
L 397.919082 597.29838 
L 404.255606 585.487452 
L 400.594923 581.925117 
L 387.381829 586.983178 
L 380.03076 594.751252 
L 343.873021 597.366128 
L 318.198531 582.712977 
L 279.381076 573.193198 
L 269.906989 563.615799 
L 267.432833 552.745866 
L 256.906728 557.824262 
L 259.559354 543.564823 
L 270.353584 536.739557 
L 274.325416 535.773921 
L 274.776893 532.701293 
L 274.063864 530.579524 
L 275.446491 526.793435 
L 278.009527 524.88984 
L 279.612714 518.505219 
L 293.392144 514.414421 
L 297.367045 513.920358 
L 299.477329 514.853841 
L 301.122099 516.261525 
L 302.775153 519.086473 
L 304.889289 520.727692 
L 309.57214 521.410896 
L 313.095062 523.988832 
L 316.388402 527.277568 
L 317.796591 528.213701 
L 319.670885 528.675619 
L 321.08481 530.557381 
L 322.959108 531.019295 
L 323.892806 530.778624 
L 324.108161 527.235051 
L 323.825992 518.498403 
L 324.75572 517.312682 
L 335.737314 514.890345 
L 338.243345 512.714066 
L 337.755268 508.937663 
L 333.514806 503.529716 
L 332.795982 500.463534 
L 333.020321 498.573341 
L 334.415631 497.148335 
L 338.852796 495.707139 
L 340.47886 493.572497 
L 340.700723 491.446197 
L 339.048226 488.621291 
L 339.264942 485.549949 
L 340.884563 482.234745 
L 340.401059 479.40398 
L 335.425743 467.859791 
L 334.940272 464.556201 
L 339.116299 458.156754 
L 340.26211 453.900282 
L 339.547752 451.542434 
L 334.144346 447.321485 
L 334.11666 442.126413 
L 336.903917 438.568658 
L 338.769793 437.613297 
L 339.217268 433.832322 
L 338.238045 425.808469 
L 334.247281 423.232559 
L 333.534236 421.110818 
L 339.570351 412.499518 
L 342.336272 404.927248 
L 340.912759 401.156591 
L 332.930093 395.769243 
L 332.674935 391.992138 
L 336.591675 380.871149 
L 332.09064 370.505485 
L 332.76957 366.250402 
L 335.102111 365.056955 
L 337.744169 362.246929 
" clip-path="url(#p350eafffd2)" style="fill: #e0bd1f; stroke: #0000ff; stroke-width: 0.5"/>
    <path d="M 346.74135 267.070692 
L 349.776757 267.579 
L 352.12199 268.746668 
L 352.363701 270.162054 
L 358.464026 273.671382 
L 359.88159 276.261468 
L 358.740488 281.462995 
L 346.146324 288.145007 
L 345.688598 290.036489 
L 347.575448 292.86012 
L 347.831996 297.109457 
L 342.509388 307.529258 
L 342.53508 312.252107 
L 343.962941 316.731702 
L 345.379935 319.321209 
L 347.96242 320.960402 
L 348.67671 323.318253 
L 346.131455 328.627781 
L 346.150742 332.170658 
L 347.335033 334.997564 
L 345.266715 341.621511 
L 339.460519 349.210538 
L 337.744169 362.246929 
L 267.555243 286.629608 
L 346.74135 267.070692 
" clip-path="url(#p350eafffd2)" style="fill: #e0bd1f; stroke: #0000ff; stroke-width: 0.5"/>
    <path d="M 407.456028 159.579379 
L 622.636364 713.060621 
L 613.827579 710.213542 
L 597.58937 687.496799 
L 602.23973 665.885875 
L 587.8198 665.481605 
L 560.03965 650.939266 
L 538.574216 625.934721 
L 521.627634 628.575621 
L 519.12354 630.127489 
L 522.033726 647.150604 
L 527.77484 662.001801 
L 506.900418 647.888024 
L 501.175347 628.244288 
L 498.052338 620.392306 
L 491.239374 619.028793 
L 473.455648 625.832604 
L 457.777044 608.873838 
L 447.027478 581.135633 
L 438.747895 577.312693 
L 403.280349 432.841047 
L 337.744169 362.246929 
L 339.460519 349.210538 
L 345.266715 341.621511 
L 347.335033 334.997564 
L 346.150742 332.170658 
L 346.131455 328.627781 
L 348.67671 323.318253 
L 347.96242 320.960402 
L 345.379935 319.321209 
L 343.962941 316.731702 
L 342.53508 312.252107 
L 342.509388 307.529258 
L 347.831996 297.109457 
L 347.575448 292.86012 
L 345.688598 290.036489 
L 346.146324 288.145007 
L 358.740488 281.462995 
L 359.88159 276.261468 
L 358.464026 273.671382 
L 352.363701 270.162054 
L 352.12199 268.746668 
L 349.776757 267.579 
L 346.74135 267.070692 
L 362.620549 263.148224 
L 347.810004 206.060992 
L 354.736997 203.289046 
L 357.286558 199.024828 
L 358.43464 195.003269 
L 359.593702 193.107916 
L 362.155503 191.204824 
L 372.664725 188.312772 
L 376.623969 185.220744 
L 379.651123 182.842219 
L 381.508237 180.234633 
L 386.825617 168.8691 
L 389.627771 168.145235 
L 392.197823 167.659363 
L 399.189218 163.133182 
L 401.29188 162.649291 
L 404.564561 162.39503 
L 407.456028 159.579379 
" clip-path="url(#p350eafffd2)" style="fill: #e0bd1f; stroke: #0000ff; stroke-width: 0.5"/>
    <path d="M 371.189296 345.246167 
L 544.380092 354.53606 
L 561.337644 647.107767 
L 561.319067 651.365674 
L 558.607069 650.114465 
L 552.32673 644.507033 
L 545.743752 635.064692 
L 542.568984 629.597419 
L 538.97351 626.700729 
L 535.201026 625.570566 
L 528.5683 625.451458 
L 523.626395 627.117373 
L 519.609372 630.449257 
L 519.170768 632.147266 
L 521.374074 637.33888 
L 519.414748 638.893604 
L 521.316113 646.182309 
L 525.848093 655.140399 
L 528.066437 662.696636 
L 526.974192 664.747771 
L 517.703988 660.385136 
L 509.849094 651.414328 
L 506.235723 647.844905 
L 502.285897 638.799812 
L 501.336434 633.353117 
L 500.802423 629.45901 
L 500.830656 626.162706 
L 499.356974 622.073964 
L 497.989681 620.151202 
L 496.924224 619.177733 
L 495.327824 618.886533 
L 493.377372 618.963366 
L 492.25827 619.581315 
L 489.935782 622.094972 
L 484.579149 624.571113 
L 483.171525 626.212271 
L 481.014988 627.294635 
L 473.512056 626.648612 
L 465.982671 617.717232 
L 460.437623 612.258305 
L 452.956017 601.705196 
L 447.795918 584.807769 
L 447.062272 581.99092 
L 445.585688 580.115579 
L 442.950066 577.390051 
L 440.69082 579.190774 
L 435.222287 579.221341 
L 433.640505 580.715705 
L 433.846326 581.582496 
L 431.954075 584.828714 
L 430.303162 586.510932 
L 429.470579 588.304858 
L 428.235577 590.57208 
L 427.990845 591.629452 
L 426.725512 599.410019 
L 426.01547 600.976041 
L 423.899582 602.055129 
L 421.378001 602.800693 
L 407.70926 601.890305 
L 392.379797 604.750901 
L 388.690549 602.970859 
L 389.359682 599.959299 
L 394.480448 598.315968 
L 398.813627 596.150779 
L 402.066484 591.690922 
L 403.361912 588.396445 
L 403.840307 585.120162 
L 403.121998 583.255385 
L 400.29761 582.000336 
L 396.745065 582.773543 
L 392.386898 584.461879 
L 391.113527 585.441908 
L 389.027671 586.301273 
L 386.127243 588.164215 
L 380.232295 595.378992 
L 378.056281 596.035354 
L 375.382183 595.418369 
L 368.084088 595.867009 
L 362.590856 596.355451 
L 357.395614 594.951491 
L 342.763931 597.884245 
L 339.347039 595.115376 
L 338.097431 594.839885 
L 336.158338 593.971376 
L 333.585072 591.191901 
L 331.077385 588.976847 
L 327.479845 587.238258 
L 324.320952 585.717343 
L 319.752481 583.231234 
L 316.655505 581.70996 
L 313.751302 581.161166 
L 311.472879 580.985051 
L 309.12958 580.370273 
L 304.286494 578.984352 
L 300.07243 578.567912 
L 296.475197 576.766948 
L 291.478453 575.852287 
L 289.32213 575.142121 
L 282.982322 573.889522 
L 280.142082 573.717032 
L 278.610009 573.097756 
L 276.702127 572.103221 
L 274.667828 570.952753 
L 273.813829 568.822859 
L 272.556519 567.009012 
L 270.176232 565.326492 
L 269.012586 563.606458 
L 268.405167 560.846941 
L 268.768321 558.773265 
L 269.661292 556.664652 
L 270.257343 554.377905 
L 269.9776 553.123491 
L 268.331184 551.523565 
L 265.63823 551.106406 
L 263.536243 551.824487 
L 262.410396 552.733005 
L 262.225223 554.578485 
L 262.23328 556.069914 
L 261.425226 558.075423 
L 261.393312 559.3707 
L 259.991585 559.84942 
L 258.236919 559.819859 
L 256.827305 558.728835 
L 255.254478 556.343599 
L 255.01175 554.735985 
L 256.4763 551.588411 
L 257.909939 549.814418 
L 258.217352 548.988689 
L 259.265169 548.041445 
L 260.817861 546.698697 
L 261.589542 545.163848 
L 261.161711 544.105426 
L 261.902181 543.668885 
L 262.013774 542.6087 
L 263.373019 541.580846 
L 265.211516 540.544436 
L 266.05026 539.856997 
L 266.802267 540.465133 
L 267.409261 540.203147 
L 268.278328 540.763181 
L 269.379068 540.992683 
L 270.172942 540.729672 
L 270.167467 539.716996 
L 270.560179 538.749601 
L 271.516791 538.27331 
L 272.587664 537.231602 
L 272.022154 536.551849 
L 273.094171 535.721931 
L 273.866958 535.812028 
L 274.796039 534.606168 
L 275.601641 532.15275 
L 276.264261 529.205924 
L 276.623325 526.378821 
L 276.005769 524.686648 
L 275.581286 524.029853 
L 275.548664 522.358206 
L 275.380831 521.629408 
L 275.776337 521.179918 
L 276.174515 521.224605 
L 276.41072 521.623766 
L 276.577582 522.281972 
L 277.681573 523.005642 
L 278.572989 523.448081 
L 279.274392 523.4211 
L 280.002001 523.770106 
L 281.054119 523.623143 
L 281.851163 523.948037 
L 282.393601 524.722242 
L 283.615978 525.751384 
L 284.38881 525.959536 
L 284.996428 525.814413 
L 285.39002 525.011939 
L 284.963366 523.954704 
L 284.303869 523.228603 
L 284.039191 521.817487 
L 284.05721 520.899011 
L 283.534528 519.418118 
L 283.24882 518.47817 
L 282.869634 517.585603 
L 282.446805 517.234334 
L 282.694531 515.514282 
L 283.981064 515.436631 
L 286.272545 515.21227 
L 287.863649 515.203543 
L 288.451255 515.718242 
L 289.060657 515.903557 
L 290.372682 516.178754 
L 291.215148 516.291598 
L 291.734343 517.019059 
L 292.063309 517.346517 
L 292.556499 517.626798 
L 293.327283 517.45764 
L 294.074693 517.21801 
L 294.800388 517.214026 
L 296.018474 517.560332 
L 297.02465 517.531076 
L 298.125122 517.713691 
L 299.063955 518.202726 
L 299.777842 517.869542 
L 300.317349 518.102104 
L 300.344505 518.761074 
L 300.628053 519.301168 
L 301.096767 519.416059 
L 301.987549 519.741021 
L 303.134672 519.829046 
L 303.366331 519.497917 
L 304.37302 519.562983 
L 305.193904 519.935195 
L 305.295305 521.347203 
L 305.396068 522.641748 
L 306.060353 524.356787 
L 306.581014 525.460959 
L 306.421472 526.262151 
L 306.726302 526.377942 
L 306.799267 526.895462 
L 306.896966 527.625235 
L 307.669238 527.620988 
L 308.537849 528.204731 
L 309.074931 527.989981 
L 309.827202 528.644961 
L 311.137629 528.732082 
L 312.375676 528.301085 
L 313.09938 528.038439 
L 313.804697 528.623077 
L 314.717658 528.688651 
L 314.795119 529.16521 
L 315.185218 529.241374 
L 315.730347 529.097176 
L 316.31235 529.988617 
L 316.549631 530.583542 
L 316.973787 531.068278 
L 317.447164 532.148381 
L 318.087992 532.364954 
L 318.915782 532.595922 
L 319.587509 532.748844 
L 320.183643 533.310943 
L 321.402878 534.732216 
L 322.318406 535.268824 
L 322.766108 535.854876 
L 322.606449 536.632933 
L 323.053973 537.077789 
L 323.662414 537.192496 
L 324.690003 536.762649 
L 325.855002 535.908452 
L 326.366966 535.411441 
L 326.386191 534.61102 
L 325.585467 533.72079 
L 325.065303 532.710953 
L 324.968572 532.052369 
L 324.847028 531.275861 
L 325.335356 530.66092 
L 325.683173 530.117352 
L 326.196159 529.8084 
L 325.88774 529.033516 
L 325.696119 528.163066 
L 325.086327 527.907763 
L 324.663281 527.627107 
L 324.44706 526.56932 
L 324.396898 525.909886 
L 324.440013 525.274261 
L 323.87354 524.31214 
L 322.957251 523.63434 
L 322.720779 523.188321 
L 323.792497 522.31091 
L 324.981965 521.621507 
L 325.778121 521.782048 
L 326.713122 521.565099 
L 328.907405 520.705227 
L 330.002238 519.851415 
L 331.355587 519.161105 
L 332.454215 518.896382 
L 333.524566 517.877775 
L 334.506005 517.636835 
L 335.720712 517.253411 
L 336.07032 517.039686 
L 337.256955 515.83237 
L 337.556909 515.053538 
L 337.997297 514.297661 
L 337.920731 513.121046 
L 338.024828 510.695205 
L 338.161925 510.10593 
L 337.45648 509.497574 
L 336.751754 508.912944 
L 336.372026 507.926066 
L 335.832264 507.64665 
L 334.839928 505.885975 
L 334.50934 505.369878 
L 333.690509 505.374394 
L 332.79768 504.67274 
L 332.861677 503.542217 
L 333.66039 504.173792 
L 334.574489 504.451144 
L 335.437788 503.952192 
L 335.128983 503.10612 
L 334.864313 501.812483 
L 334.156643 500.686216 
L 334.645012 500.189333 
L 335.554876 499.689531 
L 336.862711 499.305593 
L 338.941722 498.611273 
L 340.412157 497.991501 
L 341.696226 497.4659 
L 342.276784 496.686111 
L 342.342698 495.908571 
L 342.385547 495.225486 
L 341.51643 494.547436 
L 340.247344 493.49487 
L 339.284497 492.817336 
L 338.395577 492.940301 
L 337.436707 492.99246 
L 336.873316 492.595114 
L 336.846659 492.030473 
L 336.888098 491.08814 
L 337.516201 490.378689 
L 338.119822 489.503852 
L 337.73933 488.375782 
L 337.804992 487.551374 
L 337.846818 486.680231 
L 338.45557 486.74747 
L 339.905568 486.598272 
L 340.840339 486.451916 
L 342.124401 485.926908 
L 343.060143 485.850551 
L 343.078387 484.979537 
L 342.912527 484.509401 
L 343.403711 484.53042 
L 344.385257 484.313205 
L 344.991569 483.933134 
L 345.574685 483.623789 
L 345.875659 483.033609 
L 345.918121 482.279928 
L 345.657887 481.692253 
L 345.234339 481.317869 
L 344.858082 480.966954 
L 344.643908 480.285289 
L 345.905282 479.925331 
L 346.581484 479.497412 
L 346.55341 478.673522 
L 345.593654 478.561356 
L 345.217268 478.186711 
L 345.61287 477.760936 
L 347.013514 477.21155 
L 347.994281 476.852547 
L 348.460032 476.426384 
L 348.806804 475.694753 
L 348.593143 475.107414 
L 347.958503 474.616137 
L 347.28102 474.808537 
L 346.722127 475.235215 
L 346.162389 475.615029 
L 345.672621 475.853259 
L 345.482926 475.336387 
L 346.320622 474.578315 
L 346.57284 473.587949 
L 346.123866 472.766384 
L 345.676817 472.2978 
L 345.277367 472.017612 
L 344.622306 471.997498 
L 343.890219 470.824502 
L 344.937414 469.78288 
L 345.663724 469.896336 
L 346.689775 469.302152 
L 347.107722 468.758193 
L 346.749396 467.370745 
L 346.557008 466.359698 
L 345.569828 465.541104 
L 345.010219 465.944054 
L 342.692556 465.674454 
L 341.47366 465.28132 
L 340.27603 464.46329 
L 339.422668 463.21087 
L 339.205858 462.152494 
L 339.435143 461.280316 
L 340.367024 460.497998 
L 342.073501 460.253055 
L 342.305587 459.570706 
L 342.231092 459.098285 
L 342.109167 458.251775 
L 340.703151 457.812212 
L 340.112729 456.779035 
L 339.639544 455.840134 
L 338.875982 455.379819 
L 338.884222 454.619801 
L 337.829599 454.296356 
L 336.98555 453.994886 
L 337.356927 453.451187 
L 338.871063 453.069672 
L 338.583458 451.784466 
L 338.076979 450.468431 
L 335.831026 450.480816 
L 335.118575 451.395407 
L 334.34056 451.744977 
L 334.0883 451.212429 
L 334.896534 450.674627 
L 335.984847 450.040359 
L 335.889239 449.695605 
L 337.448515 449.593271 
L 338.195453 449.274721 
L 336.938963 447.712464 
L 336.778037 446.739803 
L 339.675315 446.064706 
L 340.233088 445.433954 
L 339.668304 444.777359 
L 338.821995 444.060023 
L 338.783745 442.773442 
L 338.002147 442.463915 
L 338.216401 441.6464 
L 338.252902 440.8797 
L 336.98979 439.832433 
L 339.038772 439.051075 
L 339.853973 438.386868 
L 339.567996 437.400065 
L 338.091209 436.842828 
L 336.480373 436.459562 
L 335.845959 435.897678 
L 334.903069 434.655239 
L 334.361281 433.998514 
L 334.661612 433.290873 
L 334.987698 432.98295 
L 336.206569 433.376685 
L 336.696581 433.185325 
L 337.30313 432.852125 
L 337.965905 433.101201 
L 338.641798 433.810579 
L 338.834509 434.774759 
L 339.981617 434.980228 
L 340.564025 435.301531 
L 342.317554 434.284493 
L 342.33613 433.366016 
L 342.801871 432.939855 
L 343.811248 433.617134 
L 344.113239 433.215013 
L 343.406162 432.30054 
L 343.418326 430.20506 
L 343.686475 427.91951 
L 343.657329 426.7895 
L 343.040393 425.215412 
L 342.518339 423.852596 
L 342.090451 422.677918 
L 342.181997 422.276959 
L 343.373946 422.058587 
L 345.22863 423.272852 
L 346.087374 423.786033 
L 346.892986 423.852185 
L 347.100222 423.262522 
L 346.390018 421.66522 
L 345.048284 420.142594 
L 343.354323 418.456388 
L 342.719789 417.87137 
L 341.998085 417.191909 
L 340.120859 416.166422 
L 339.212502 415.417984 
L 338.518321 413.94636 
L 337.918176 412.639146 
L 338.170795 411.072719 
L 338.622022 410.14711 
L 338.143975 408.203241 
L 337.201571 407.046822 
L 337.445451 406.041079 
L 338.939118 405.373133 
L 341.275482 404.764018 
L 341.735488 403.28603 
L 341.323779 402.15813 
L 340.292856 401.849978 
L 338.852616 400.852927 
L 336.889036 401.178182 
L 335.671002 400.93335 
L 334.253471 398.366982 
L 333.679242 396.07836 
L 332.757585 392.881582 
L 332.564498 391.84621 
L 332.34486 391.565025 
L 331.691498 391.851019 
L 330.445647 392.234604 
L 329.321349 391.989844 
L 328.351212 391.36751 
L 327.942587 390.804377 
L 328.782125 390.391588 
L 329.058353 389.479997 
L 330.368316 389.504227 
L 330.832765 388.841958 
L 330.486455 388.247632 
L 330.576254 387.525133 
L 329.94928 387.02609 
L 329.264507 387.280812 
L 328.622736 386.879144 
L 328.855154 386.583605 
L 329.207165 386.817193 
L 330.433261 386.378544 
L 330.817671 385.415337 
L 331.16035 383.82409 
L 331.835956 382.642736 
L 332.352959 380.913485 
L 332.794603 379.635531 
L 333.09896 378.260444 
L 333.076307 377.672049 
L 332.352566 377.263715 
L 331.928615 378.109674 
L 331.51862 378.053199 
L 331.166185 377.741302 
L 331.805551 377.050779 
L 331.568123 376.424411 
L 331.857246 375.716832 
L 332.751573 375.299587 
L 332.786958 374.652139 
L 332.121738 374.165172 
L 331.904294 373.636583 
L 331.19862 372.973044 
L 330.535643 372.898384 
L 329.757494 373.216506 
L 328.587631 373.262102 
L 327.631537 373.052009 
L 327.237902 372.425907 
L 327.587407 372.090567 
L 327.602382 371.266438 
L 327.307025 370.718699 
L 326.486563 370.409377 
L 325.704577 370.020938 
L 325.52604 369.492134 
L 325.816068 369.059233 
L 326.496633 368.682324 
L 326.59155 368.250497 
L 326.042087 367.586096 
L 325.455002 367.158022 
L 325.18027 366.825525 
L 325.588502 366.666656 
L 326.05781 366.899601 
L 326.371975 367.329176 
L 326.882322 367.954637 
L 327.428584 368.029941 
L 327.835591 367.53707 
L 328.300683 367.102612 
L 328.474104 366.689931 
L 328.354407 366.141226 
L 328.101047 366.162198 
L 327.982146 365.868592 
L 328.17587 365.612422 
L 328.722238 365.707303 
L 329.193787 366.352554 
L 329.528366 366.95881 
L 330.447368 367.503115 
L 331.167795 367.302777 
L 331.690981 366.711376 
L 331.470978 365.711748 
L 330.865186 365.420824 
L 330.511155 364.814675 
L 330.781725 364.381288 
L 331.210046 364.339774 
L 331.797298 364.690127 
L 332.264842 364.70713 
L 332.59201 363.841533 
L 332.471509 363.253677 
L 332.952695 362.093565 
L 333.026023 361.269114 
L 333.433771 360.913282 
L 334.174502 360.870047 
L 335.047877 360.178828 
L 335.939312 359.23181 
L 335.661381 358.311406 
L 335.035927 357.981436 
L 334.681786 357.355118 
L 334.657477 356.570361 
L 334.870973 356.373407 
L 335.00079 355.09717 
L 335.274238 355.193553 
L 335.335795 355.781734 
L 335.1845 356.685518 
L 335.596621 357.13413 
L 336.15988 356.758456 
L 336.721002 355.990052 
L 337.556857 355.554142 
L 338.471854 355.25484 
L 339.771671 354.070044 
L 340.275823 353.557057 
L 339.901217 352.853135 
L 339.081189 352.622128 
L 337.812802 352.432746 
L 337.150472 352.475551 
L 336.641838 352.164515 
L 336.444168 351.694551 
L 336.344457 351.244218 
L 336.792493 351.143268 
L 337.125687 351.495019 
L 338.530768 351.781537 
L 338.844188 352.07407 
L 339.836884 351.754762 
L 340.284493 351.575501 
L 340.376414 350.593733 
L 339.51268 349.480187 
L 338.706022 348.130799 
L 338.644359 347.523041 
L 338.856728 347.227611 
L 339.383851 347.361751 
L 339.737938 347.870008 
L 339.857957 348.477445 
L 340.444615 348.827798 
L 341.713102 349.036162 
L 342.452225 348.698672 
L 342.488888 348.286743 
L 342.251887 347.738686 
L 341.900736 347.661717 
L 341.742398 347.270441 
L 341.994259 346.974793 
L 342.73434 346.813498 
L 343.118017 346.151671 
L 371.189296 345.246167 
" clip-path="url(#p350eafffd2)" style="fill: #e0bd1f; stroke: #0000ff; stroke-width: 0.5"/>
   </g>
   <g id="PatchCollection_2">
    <path d="M 371.189296 345.246167 
L 544.380092 354.53606 
L 561.337644 647.107767 
L 561.319067 651.365674 
L 558.607069 650.114465 
L 552.32673 644.507033 
L 545.743752 635.064692 
L 542.568984 629.597419 
L 538.97351 626.700729 
L 535.201026 625.570566 
L 528.5683 625.451458 
L 523.626395 627.117373 
L 519.609372 630.449257 
L 519.170768 632.147266 
L 521.374074 637.33888 
L 519.414748 638.893604 
L 521.316113 646.182309 
L 525.848093 655.140399 
L 528.066437 662.696636 
L 526.974192 664.747771 
L 517.703988 660.385136 
L 509.849094 651.414328 
L 506.235723 647.844905 
L 502.285897 638.799812 
L 501.336434 633.353117 
L 500.802423 629.45901 
L 500.830656 626.162706 
L 499.356974 622.073964 
L 497.989681 620.151202 
L 496.924224 619.177733 
L 495.327824 618.886533 
L 493.377372 618.963366 
L 492.25827 619.581315 
L 489.935782 622.094972 
L 484.579149 624.571113 
L 483.171525 626.212271 
L 481.014988 627.294635 
L 473.512056 626.648612 
L 465.982671 617.717232 
L 460.437623 612.258305 
L 452.956017 601.705196 
L 447.795918 584.807769 
L 447.062272 581.99092 
L 445.585688 580.115579 
L 442.950066 577.390051 
L 440.69082 579.190774 
L 435.222287 579.221341 
L 433.640505 580.715705 
L 433.846326 581.582496 
L 431.954075 584.828714 
L 430.303162 586.510932 
L 429.470579 588.304858 
L 428.235577 590.57208 
L 427.990845 591.629452 
L 426.725512 599.410019 
L 426.01547 600.976041 
L 423.899582 602.055129 
L 421.378001 602.800693 
L 407.70926 601.890305 
L 392.379797 604.750901 
L 388.690549 602.970859 
L 389.359682 599.959299 
L 394.480448 598.315968 
L 398.813627 596.150779 
L 402.066484 591.690922 
L 403.361912 588.396445 
L 403.840307 585.120162 
L 403.121998 583.255385 
L 400.29761 582.000336 
L 396.745065 582.773543 
L 392.386898 584.461879 
L 391.113527 585.441908 
L 389.027671 586.301273 
L 386.127243 588.164215 
L 380.232295 595.378992 
L 378.056281 596.035354 
L 375.382183 595.418369 
L 368.084088 595.867009 
L 362.590856 596.355451 
L 357.395614 594.951491 
L 342.763931 597.884245 
L 339.347039 595.115376 
L 338.097431 594.839885 
L 336.158338 593.971376 
L 333.585072 591.191901 
L 331.077385 588.976847 
L 324.320952 585.717343 
L 319.752481 583.231234 
L 316.655505 581.70996 
L 313.751302 581.161166 
L 311.472879 580.985051 
L 309.12958 580.370273 
L 304.286494 578.984352 
L 300.07243 578.567912 
L 296.475197 576.766948 
L 291.478453 575.852287 
L 289.32213 575.142121 
L 282.982322 573.889522 
L 280.142082 573.717032 
L 278.610009 573.097756 
L 274.667828 570.952753 
L 273.813829 568.822859 
L 272.556519 567.009012 
L 270.176232 565.326492 
L 269.012586 563.606458 
L 268.405167 560.846941 
L 268.768321 558.773265 
L 269.661292 556.664652 
L 270.257343 554.377905 
L 269.9776 553.123491 
L 268.331184 551.523565 
L 265.63823 551.106406 
L 263.536243 551.824487 
L 262.410396 552.733005 
L 262.225223 554.578485 
L 262.23328 556.069914 
L 261.425226 558.075423 
L 261.393312 559.3707 
L 259.991585 559.84942 
L 258.236919 559.819859 
L 256.827305 558.728835 
L 255.254478 556.343599 
L 255.01175 554.735985 
L 256.4763 551.588411 
L 257.909939 549.814418 
L 258.217352 548.988689 
L 260.817861 546.698697 
L 261.589542 545.163848 
L 261.161711 544.105426 
L 261.902181 543.668885 
L 262.013774 542.6087 
L 263.373019 541.580846 
L 265.211516 540.544436 
L 266.05026 539.856997 
L 266.802267 540.465133 
L 267.409261 540.203147 
L 268.278328 540.763181 
L 269.379068 540.992683 
L 270.172942 540.729672 
L 270.167467 539.716996 
L 270.560179 538.749601 
L 271.516791 538.27331 
L 272.587664 537.231602 
L 272.022154 536.551849 
L 273.094171 535.721931 
L 273.866958 535.812028 
L 274.796039 534.606168 
L 275.601641 532.15275 
L 276.264261 529.205924 
L 276.623325 526.378821 
L 276.005769 524.686648 
L 275.581286 524.029853 
L 275.548664 522.358206 
L 275.380831 521.629408 
L 275.776337 521.179918 
L 276.174515 521.224605 
L 276.41072 521.623766 
L 276.577582 522.281972 
L 277.681573 523.005642 
L 278.572989 523.448081 
L 279.274392 523.4211 
L 280.002001 523.770106 
L 281.054119 523.623143 
L 281.851163 523.948037 
L 282.393601 524.722242 
L 283.615978 525.751384 
L 284.38881 525.959536 
L 284.996428 525.814413 
L 285.39002 525.011939 
L 284.963366 523.954704 
L 284.303869 523.228603 
L 284.039191 521.817487 
L 284.05721 520.899011 
L 282.869634 517.585603 
L 282.446805 517.234334 
L 282.694531 515.514282 
L 287.863649 515.203543 
L 288.451255 515.718242 
L 289.060657 515.903557 
L 291.215148 516.291598 
L 292.063309 517.346517 
L 292.556499 517.626798 
L 294.800388 517.214026 
L 296.018474 517.560332 
L 297.02465 517.531076 
L 298.125122 517.713691 
L 299.063955 518.202726 
L 299.777842 517.869542 
L 300.317349 518.102104 
L 300.344505 518.761074 
L 300.628053 519.301168 
L 303.134672 519.829046 
L 303.366331 519.497917 
L 304.37302 519.562983 
L 305.193904 519.935195 
L 305.396068 522.641748 
L 306.581014 525.460959 
L 306.421472 526.262151 
L 306.726302 526.377942 
L 306.896966 527.625235 
L 307.669238 527.620988 
L 308.537849 528.204731 
L 309.074931 527.989981 
L 309.827202 528.644961 
L 311.137629 528.732082 
L 313.09938 528.038439 
L 313.804697 528.623077 
L 314.717658 528.688651 
L 314.795119 529.16521 
L 315.185218 529.241374 
L 315.730347 529.097176 
L 316.31235 529.988617 
L 316.549631 530.583542 
L 316.973787 531.068278 
L 317.447164 532.148381 
L 318.915782 532.595922 
L 319.587509 532.748844 
L 320.183643 533.310943 
L 321.402878 534.732216 
L 322.318406 535.268824 
L 322.766108 535.854876 
L 322.606449 536.632933 
L 323.053973 537.077789 
L 323.662414 537.192496 
L 324.690003 536.762649 
L 326.366966 535.411441 
L 326.386191 534.61102 
L 325.585467 533.72079 
L 325.065303 532.710953 
L 324.847028 531.275861 
L 325.683173 530.117352 
L 326.196159 529.8084 
L 325.88774 529.033516 
L 325.696119 528.163066 
L 324.663281 527.627107 
L 324.396898 525.909886 
L 324.440013 525.274261 
L 323.87354 524.31214 
L 322.957251 523.63434 
L 322.720779 523.188321 
L 323.792497 522.31091 
L 324.981965 521.621507 
L 325.778121 521.782048 
L 326.713122 521.565099 
L 328.907405 520.705227 
L 330.002238 519.851415 
L 331.355587 519.161105 
L 332.454215 518.896382 
L 333.524566 517.877775 
L 335.720712 517.253411 
L 336.07032 517.039686 
L 337.256955 515.83237 
L 337.556909 515.053538 
L 337.997297 514.297661 
L 337.920731 513.121046 
L 338.024828 510.695205 
L 338.161925 510.10593 
L 336.751754 508.912944 
L 336.372026 507.926066 
L 335.832264 507.64665 
L 334.50934 505.369878 
L 333.690509 505.374394 
L 332.79768 504.67274 
L 332.861677 503.542217 
L 333.66039 504.173792 
L 334.574489 504.451144 
L 335.437788 503.952192 
L 335.128983 503.10612 
L 334.864313 501.812483 
L 334.156643 500.686216 
L 334.645012 500.189333 
L 335.554876 499.689531 
L 338.941722 498.611273 
L 341.696226 497.4659 
L 342.276784 496.686111 
L 342.385547 495.225486 
L 339.284497 492.817336 
L 337.436707 492.99246 
L 336.873316 492.595114 
L 336.888098 491.08814 
L 337.516201 490.378689 
L 338.119822 489.503852 
L 337.73933 488.375782 
L 337.846818 486.680231 
L 338.45557 486.74747 
L 340.840339 486.451916 
L 342.124401 485.926908 
L 343.060143 485.850551 
L 343.078387 484.979537 
L 342.912527 484.509401 
L 343.403711 484.53042 
L 344.385257 484.313205 
L 345.574685 483.623789 
L 345.875659 483.033609 
L 345.918121 482.279928 
L 345.657887 481.692253 
L 344.858082 480.966954 
L 344.643908 480.285289 
L 345.905282 479.925331 
L 346.581484 479.497412 
L 346.55341 478.673522 
L 345.593654 478.561356 
L 345.217268 478.186711 
L 345.61287 477.760936 
L 347.994281 476.852547 
L 348.460032 476.426384 
L 348.806804 475.694753 
L 348.593143 475.107414 
L 347.958503 474.616137 
L 347.28102 474.808537 
L 346.162389 475.615029 
L 345.672621 475.853259 
L 345.482926 475.336387 
L 346.320622 474.578315 
L 346.57284 473.587949 
L 346.123866 472.766384 
L 345.277367 472.017612 
L 344.622306 471.997498 
L 343.890219 470.824502 
L 344.937414 469.78288 
L 345.663724 469.896336 
L 346.689775 469.302152 
L 347.107722 468.758193 
L 346.557008 466.359698 
L 345.569828 465.541104 
L 345.010219 465.944054 
L 342.692556 465.674454 
L 341.47366 465.28132 
L 340.27603 464.46329 
L 339.422668 463.21087 
L 339.205858 462.152494 
L 339.435143 461.280316 
L 340.367024 460.497998 
L 342.073501 460.253055 
L 342.305587 459.570706 
L 342.109167 458.251775 
L 340.703151 457.812212 
L 339.639544 455.840134 
L 338.875982 455.379819 
L 338.884222 454.619801 
L 336.98555 453.994886 
L 337.356927 453.451187 
L 338.871063 453.069672 
L 338.583458 451.784466 
L 338.076979 450.468431 
L 335.831026 450.480816 
L 335.118575 451.395407 
L 334.34056 451.744977 
L 334.0883 451.212429 
L 335.984847 450.040359 
L 335.889239 449.695605 
L 337.448515 449.593271 
L 338.195453 449.274721 
L 336.938963 447.712464 
L 336.778037 446.739803 
L 339.675315 446.064706 
L 340.233088 445.433954 
L 339.668304 444.777359 
L 338.821995 444.060023 
L 338.783745 442.773442 
L 338.002147 442.463915 
L 338.216401 441.6464 
L 338.252902 440.8797 
L 336.98979 439.832433 
L 339.038772 439.051075 
L 339.853973 438.386868 
L 339.567996 437.400065 
L 338.091209 436.842828 
L 336.480373 436.459562 
L 335.845959 435.897678 
L 334.361281 433.998514 
L 334.661612 433.290873 
L 334.987698 432.98295 
L 336.206569 433.376685 
L 337.30313 432.852125 
L 337.965905 433.101201 
L 338.641798 433.810579 
L 338.834509 434.774759 
L 339.981617 434.980228 
L 340.564025 435.301531 
L 342.317554 434.284493 
L 342.33613 433.366016 
L 342.801871 432.939855 
L 343.811248 433.617134 
L 344.113239 433.215013 
L 343.406162 432.30054 
L 343.418326 430.20506 
L 343.686475 427.91951 
L 343.657329 426.7895 
L 342.090451 422.677918 
L 342.181997 422.276959 
L 343.373946 422.058587 
L 346.087374 423.786033 
L 346.892986 423.852185 
L 347.100222 423.262522 
L 346.390018 421.66522 
L 345.048284 420.142594 
L 341.998085 417.191909 
L 340.120859 416.166422 
L 339.212502 415.417984 
L 337.918176 412.639146 
L 338.170795 411.072719 
L 338.622022 410.14711 
L 338.143975 408.203241 
L 337.201571 407.046822 
L 337.445451 406.041079 
L 338.939118 405.373133 
L 341.275482 404.764018 
L 341.735488 403.28603 
L 341.323779 402.15813 
L 340.292856 401.849978 
L 338.852616 400.852927 
L 336.889036 401.178182 
L 335.671002 400.93335 
L 334.253471 398.366982 
L 333.679242 396.07836 
L 332.34486 391.565025 
L 331.691498 391.851019 
L 330.445647 392.234604 
L 329.321349 391.989844 
L 328.351212 391.36751 
L 327.942587 390.804377 
L 328.782125 390.391588 
L 329.058353 389.479997 
L 330.368316 389.504227 
L 330.832765 388.841958 
L 330.486455 388.247632 
L 330.576254 387.525133 
L 329.94928 387.02609 
L 329.264507 387.280812 
L 328.622736 386.879144 
L 328.855154 386.583605 
L 329.207165 386.817193 
L 330.433261 386.378544 
L 330.817671 385.415337 
L 331.16035 383.82409 
L 331.835956 382.642736 
L 333.09896 378.260444 
L 333.076307 377.672049 
L 332.352566 377.263715 
L 331.928615 378.109674 
L 331.51862 378.053199 
L 331.166185 377.741302 
L 331.805551 377.050779 
L 331.568123 376.424411 
L 331.857246 375.716832 
L 332.751573 375.299587 
L 332.786958 374.652139 
L 332.121738 374.165172 
L 331.904294 373.636583 
L 331.19862 372.973044 
L 330.535643 372.898384 
L 329.757494 373.216506 
L 328.587631 373.262102 
L 327.631537 373.052009 
L 327.237902 372.425907 
L 327.587407 372.090567 
L 327.602382 371.266438 
L 327.307025 370.718699 
L 325.704577 370.020938 
L 325.52604 369.492134 
L 325.816068 369.059233 
L 326.496633 368.682324 
L 326.59155 368.250497 
L 326.042087 367.586096 
L 325.18027 366.825525 
L 325.588502 366.666656 
L 326.05781 366.899601 
L 326.882322 367.954637 
L 327.428584 368.029941 
L 328.474104 366.689931 
L 328.354407 366.141226 
L 328.101047 366.162198 
L 327.982146 365.868592 
L 328.17587 365.612422 
L 328.722238 365.707303 
L 329.528366 366.95881 
L 330.447368 367.503115 
L 331.167795 367.302777 
L 331.690981 366.711376 
L 331.470978 365.711748 
L 330.865186 365.420824 
L 330.511155 364.814675 
L 330.781725 364.381288 
L 331.210046 364.339774 
L 331.797298 364.690127 
L 332.264842 364.70713 
L 332.59201 363.841533 
L 332.471509 363.253677 
L 332.952695 362.093565 
L 333.026023 361.269114 
L 333.433771 360.913282 
L 334.174502 360.870047 
L 335.047877 360.178828 
L 335.939312 359.23181 
L 335.661381 358.311406 
L 335.035927 357.981436 
L 334.681786 357.355118 
L 334.657477 356.570361 
L 334.870973 356.373407 
L 335.00079 355.09717 
L 335.274238 355.193553 
L 335.335795 355.781734 
L 335.1845 356.685518 
L 335.596621 357.13413 
L 336.15988 356.758456 
L 336.721002 355.990052 
L 337.556857 355.554142 
L 338.471854 355.25484 
L 340.275823 353.557057 
L 339.901217 352.853135 
L 339.081189 352.622128 
L 337.812802 352.432746 
L 337.150472 352.475551 
L 336.641838 352.164515 
L 336.344457 351.244218 
L 336.792493 351.143268 
L 337.125687 351.495019 
L 338.530768 351.781537 
L 338.844188 352.07407 
L 340.284493 351.575501 
L 340.376414 350.593733 
L 339.51268 349.480187 
L 338.706022 348.130799 
L 338.644359 347.523041 
L 338.856728 347.227611 
L 339.383851 347.361751 
L 339.737938 347.870008 
L 339.857957 348.477445 
L 340.444615 348.827798 
L 341.713102 349.036162 
L 342.452225 348.698672 
L 342.488888 348.286743 
L 342.251887 347.738686 
L 341.900736 347.661717 
L 341.742398 347.270441 
L 341.994259 346.974793 
L 342.73434 346.813498 
L 343.118017 346.151671 
L 371.189296 345.246167 
L 371.189296 345.246167 
" clip-path="url(#p350eafffd2)" style="fill: none; stroke: #000000"/>
   </g>
   <g id="matplotlib.axis_1">
    <g id="xtick_1">
     <g id="line2d_1">
      <path d="M 94.483201 740.734683 
L 94.483201 131.905317 
" clip-path="url(#p350eafffd2)" style="fill: none; stroke: #b0b0b0; stroke-width: 0.8; stroke-linecap: square"/>
     </g>
     <g id="line2d_2">
      <defs>
       <path id="md60456bd71" d="M 0 0 
L 0 3.5 
" style="stroke: #000000; stroke-width: 0.8"/>
      </defs>
      <g>
       <use xlink:href="#md60456bd71" x="94.483201" y="740.734683" style="stroke: #000000; stroke-width: 0.8"/>
      </g>
     </g>
     <g id="text_1">
      <!-- −55.75 -->
      <g transform="translate(83.350137 779.276065) rotate(-45) scale(0.1 -0.1)">
       <defs>
        <path id="DejaVuSans-2212" d="M 678 2272 
L 4684 2272 
L 4684 1741 
L 678 1741 
L 678 2272 
z
" transform="scale(0.015625)"/>
        <path id="DejaVuSans-35" d="M 691 4666 
L 3169 4666 
L 3169 4134 
L 1269 4134 
L 1269 2991 
Q 1406 3038 1543 3061 
Q 1681 3084 1819 3084 
Q 2600 3084 3056 2656 
Q 3513 2228 3513 1497 
Q 3513 744 3044 326 
Q 2575 -91 1722 -91 
Q 1428 -91 1123 -41 
Q 819 9 494 109 
L 494 744 
Q 775 591 1075 516 
Q 1375 441 1709 441 
Q 2250 441 2565 725 
Q 2881 1009 2881 1497 
Q 2881 1984 2565 2268 
Q 2250 2553 1709 2553 
Q 1456 2553 1204 2497 
Q 953 2441 691 2322 
L 691 4666 
z
" transform="scale(0.015625)"/>
        <path id="DejaVuSans-2e" d="M 684 794 
L 1344 794 
L 1344 0 
L 684 0 
L 684 794 
z
" transform="scale(0.015625)"/>
        <path id="DejaVuSans-37" d="M 525 4666 
L 3525 4666 
L 3525 4397 
L 1831 0 
L 1172 0 
L 2766 4134 
L 525 4134 
L 525 4666 
z
" transform="scale(0.015625)"/>
       </defs>
       <use xlink:href="#DejaVuSans-2212"/>
       <use xlink:href="#DejaVuSans-35" transform="translate(83.789062 0)"/>
       <use xlink:href="#DejaVuSans-35" transform="translate(147.412109 0)"/>
       <use xlink:href="#DejaVuSans-2e" transform="translate(211.035156 0)"/>
       <use xlink:href="#DejaVuSans-37" transform="translate(242.822266 0)"/>
       <use xlink:href="#DejaVuSans-35" transform="translate(306.445312 0)"/>
      </g>
     </g>
    </g>
    <g id="xtick_2">
     <g id="line2d_3">
      <path d="M 158.129726 740.734683 
L 158.129726 131.905317 
" clip-path="url(#p350eafffd2)" style="fill: none; stroke: #b0b0b0; stroke-width: 0.8; stroke-linecap: square"/>
     </g>
     <g id="line2d_4">
      <g>
       <use xlink:href="#md60456bd71" x="158.129726" y="740.734683" style="stroke: #000000; stroke-width: 0.8"/>
      </g>
     </g>
     <g id="text_2">
      <!-- −55.74 -->
      <g transform="translate(146.996661 779.276065) rotate(-45) scale(0.1 -0.1)">
       <defs>
        <path id="DejaVuSans-34" d="M 2419 4116 
L 825 1625 
L 2419 1625 
L 2419 4116 
z
M 2253 4666 
L 3047 4666 
L 3047 1625 
L 3713 1625 
L 3713 1100 
L 3047 1100 
L 3047 0 
L 2419 0 
L 2419 1100 
L 313 1100 
L 313 1709 
L 2253 4666 
z
" transform="scale(0.015625)"/>
       </defs>
       <use xlink:href="#DejaVuSans-2212"/>
       <use xlink:href="#DejaVuSans-35" transform="translate(83.789062 0)"/>
       <use xlink:href="#DejaVuSans-35" transform="translate(147.412109 0)"/>
       <use xlink:href="#DejaVuSans-2e" transform="translate(211.035156 0)"/>
       <use xlink:href="#DejaVuSans-37" transform="translate(242.822266 0)"/>
       <use xlink:href="#DejaVuSans-34" transform="translate(306.445312 0)"/>
      </g>
     </g>
    </g>
    <g id="xtick_3">
     <g id="line2d_5">
      <path d="M 221.77625 740.734683 
L 221.77625 131.905317 
" clip-path="url(#p350eafffd2)" style="fill: none; stroke: #b0b0b0; stroke-width: 0.8; stroke-linecap: square"/>
     </g>
     <g id="line2d_6">
      <g>
       <use xlink:href="#md60456bd71" x="221.77625" y="740.734683" style="stroke: #000000; stroke-width: 0.8"/>
      </g>
     </g>
     <g id="text_3">
      <!-- −55.73 -->
      <g transform="translate(210.643185 779.276065) rotate(-45) scale(0.1 -0.1)">
       <defs>
        <path id="DejaVuSans-33" d="M 2597 2516 
Q 3050 2419 3304 2112 
Q 3559 1806 3559 1356 
Q 3559 666 3084 287 
Q 2609 -91 1734 -91 
Q 1441 -91 1130 -33 
Q 819 25 488 141 
L 488 750 
Q 750 597 1062 519 
Q 1375 441 1716 441 
Q 2309 441 2620 675 
Q 2931 909 2931 1356 
Q 2931 1769 2642 2001 
Q 2353 2234 1838 2234 
L 1294 2234 
L 1294 2753 
L 1863 2753 
Q 2328 2753 2575 2939 
Q 2822 3125 2822 3475 
Q 2822 3834 2567 4026 
Q 2313 4219 1838 4219 
Q 1578 4219 1281 4162 
Q 984 4106 628 3988 
L 628 4550 
Q 988 4650 1302 4700 
Q 1616 4750 1894 4750 
Q 2613 4750 3031 4423 
Q 3450 4097 3450 3541 
Q 3450 3153 3228 2886 
Q 3006 2619 2597 2516 
z
" transform="scale(0.015625)"/>
       </defs>
       <use xlink:href="#DejaVuSans-2212"/>
       <use xlink:href="#DejaVuSans-35" transform="translate(83.789062 0)"/>
       <use xlink:href="#DejaVuSans-35" transform="translate(147.412109 0)"/>
       <use xlink:href="#DejaVuSans-2e" transform="translate(211.035156 0)"/>
       <use xlink:href="#DejaVuSans-37" transform="translate(242.822266 0)"/>
       <use xlink:href="#DejaVuSans-33" transform="translate(306.445312 0)"/>
      </g>
     </g>
    </g>
    <g id="xtick_4">
     <g id="line2d_7">
      <path d="M 285.422774 740.734683 
L 285.422774 131.905317 
" clip-path="url(#p350eafffd2)" style="fill: none; stroke: #b0b0b0; stroke-width: 0.8; stroke-linecap: square"/>
     </g>
     <g id="line2d_8">
      <g>
       <use xlink:href="#md60456bd71" x="285.422774" y="740.734683" style="stroke: #000000; stroke-width: 0.8"/>
      </g>
     </g>
     <g id="text_4">
      <!-- −55.72 -->
      <g transform="translate(274.289709 779.276065) rotate(-45) scale(0.1 -0.1)">
       <defs>
        <path id="DejaVuSans-32" d="M 1228 531 
L 3431 531 
L 3431 0 
L 469 0 
L 469 531 
Q 828 903 1448 1529 
Q 2069 2156 2228 2338 
Q 2531 2678 2651 2914 
Q 2772 3150 2772 3378 
Q 2772 3750 2511 3984 
Q 2250 4219 1831 4219 
Q 1534 4219 1204 4116 
Q 875 4013 500 3803 
L 500 4441 
Q 881 4594 1212 4672 
Q 1544 4750 1819 4750 
Q 2544 4750 2975 4387 
Q 3406 4025 3406 3419 
Q 3406 3131 3298 2873 
Q 3191 2616 2906 2266 
Q 2828 2175 2409 1742 
Q 1991 1309 1228 531 
z
" transform="scale(0.015625)"/>
       </defs>
       <use xlink:href="#DejaVuSans-2212"/>
       <use xlink:href="#DejaVuSans-35" transform="translate(83.789062 0)"/>
       <use xlink:href="#DejaVuSans-35" transform="translate(147.412109 0)"/>
       <use xlink:href="#DejaVuSans-2e" transform="translate(211.035156 0)"/>
       <use xlink:href="#DejaVuSans-37" transform="translate(242.822266 0)"/>
       <use xlink:href="#DejaVuSans-32" transform="translate(306.445312 0)"/>
      </g>
     </g>
    </g>
    <g id="xtick_5">
     <g id="line2d_9">
      <path d="M 349.069298 740.734683 
L 349.069298 131.905317 
" clip-path="url(#p350eafffd2)" style="fill: none; stroke: #b0b0b0; stroke-width: 0.8; stroke-linecap: square"/>
     </g>
     <g id="line2d_10">
      <g>
       <use xlink:href="#md60456bd71" x="349.069298" y="740.734683" style="stroke: #000000; stroke-width: 0.8"/>
      </g>
     </g>
     <g id="text_5">
      <!-- −55.71 -->
      <g transform="translate(337.936233 779.276065) rotate(-45) scale(0.1 -0.1)">
       <defs>
        <path id="DejaVuSans-31" d="M 794 531 
L 1825 531 
L 1825 4091 
L 703 3866 
L 703 4441 
L 1819 4666 
L 2450 4666 
L 2450 531 
L 3481 531 
L 3481 0 
L 794 0 
L 794 531 
z
" transform="scale(0.015625)"/>
       </defs>
       <use xlink:href="#DejaVuSans-2212"/>
       <use xlink:href="#DejaVuSans-35" transform="translate(83.789062 0)"/>
       <use xlink:href="#DejaVuSans-35" transform="translate(147.412109 0)"/>
       <use xlink:href="#DejaVuSans-2e" transform="translate(211.035156 0)"/>
       <use xlink:href="#DejaVuSans-37" transform="translate(242.822266 0)"/>
       <use xlink:href="#DejaVuSans-31" transform="translate(306.445312 0)"/>
      </g>
     </g>
    </g>
    <g id="xtick_6">
     <g id="line2d_11">
      <path d="M 412.715822 740.734683 
L 412.715822 131.905317 
" clip-path="url(#p350eafffd2)" style="fill: none; stroke: #b0b0b0; stroke-width: 0.8; stroke-linecap: square"/>
     </g>
     <g id="line2d_12">
      <g>
       <use xlink:href="#md60456bd71" x="412.715822" y="740.734683" style="stroke: #000000; stroke-width: 0.8"/>
      </g>
     </g>
     <g id="text_6">
      <!-- −55.70 -->
      <g transform="translate(401.582757 779.276065) rotate(-45) scale(0.1 -0.1)">
       <defs>
        <path id="DejaVuSans-30" d="M 2034 4250 
Q 1547 4250 1301 3770 
Q 1056 3291 1056 2328 
Q 1056 1369 1301 889 
Q 1547 409 2034 409 
Q 2525 409 2770 889 
Q 3016 1369 3016 2328 
Q 3016 3291 2770 3770 
Q 2525 4250 2034 4250 
z
M 2034 4750 
Q 2819 4750 3233 4129 
Q 3647 3509 3647 2328 
Q 3647 1150 3233 529 
Q 2819 -91 2034 -91 
Q 1250 -91 836 529 
Q 422 1150 422 2328 
Q 422 3509 836 4129 
Q 1250 4750 2034 4750 
z
" transform="scale(0.015625)"/>
       </defs>
       <use xlink:href="#DejaVuSans-2212"/>
       <use xlink:href="#DejaVuSans-35" transform="translate(83.789062 0)"/>
       <use xlink:href="#DejaVuSans-35" transform="translate(147.412109 0)"/>
       <use xlink:href="#DejaVuSans-2e" transform="translate(211.035156 0)"/>
       <use xlink:href="#DejaVuSans-37" transform="translate(242.822266 0)"/>
       <use xlink:href="#DejaVuSans-30" transform="translate(306.445312 0)"/>
      </g>
     </g>
    </g>
    <g id="xtick_7">
     <g id="line2d_13">
      <path d="M 476.362346 740.734683 
L 476.362346 131.905317 
" clip-path="url(#p350eafffd2)" style="fill: none; stroke: #b0b0b0; stroke-width: 0.8; stroke-linecap: square"/>
     </g>
     <g id="line2d_14">
      <g>
       <use xlink:href="#md60456bd71" x="476.362346" y="740.734683" style="stroke: #000000; stroke-width: 0.8"/>
      </g>
     </g>
     <g id="text_7">
      <!-- −55.69 -->
      <g transform="translate(465.229281 779.276065) rotate(-45) scale(0.1 -0.1)">
       <defs>
        <path id="DejaVuSans-36" d="M 2113 2584 
Q 1688 2584 1439 2293 
Q 1191 2003 1191 1497 
Q 1191 994 1439 701 
Q 1688 409 2113 409 
Q 2538 409 2786 701 
Q 3034 994 3034 1497 
Q 3034 2003 2786 2293 
Q 2538 2584 2113 2584 
z
M 3366 4563 
L 3366 3988 
Q 3128 4100 2886 4159 
Q 2644 4219 2406 4219 
Q 1781 4219 1451 3797 
Q 1122 3375 1075 2522 
Q 1259 2794 1537 2939 
Q 1816 3084 2150 3084 
Q 2853 3084 3261 2657 
Q 3669 2231 3669 1497 
Q 3669 778 3244 343 
Q 2819 -91 2113 -91 
Q 1303 -91 875 529 
Q 447 1150 447 2328 
Q 447 3434 972 4092 
Q 1497 4750 2381 4750 
Q 2619 4750 2861 4703 
Q 3103 4656 3366 4563 
z
" transform="scale(0.015625)"/>
        <path id="DejaVuSans-39" d="M 703 97 
L 703 672 
Q 941 559 1184 500 
Q 1428 441 1663 441 
Q 2288 441 2617 861 
Q 2947 1281 2994 2138 
Q 2813 1869 2534 1725 
Q 2256 1581 1919 1581 
Q 1219 1581 811 2004 
Q 403 2428 403 3163 
Q 403 3881 828 4315 
Q 1253 4750 1959 4750 
Q 2769 4750 3195 4129 
Q 3622 3509 3622 2328 
Q 3622 1225 3098 567 
Q 2575 -91 1691 -91 
Q 1453 -91 1209 -44 
Q 966 3 703 97 
z
M 1959 2075 
Q 2384 2075 2632 2365 
Q 2881 2656 2881 3163 
Q 2881 3666 2632 3958 
Q 2384 4250 1959 4250 
Q 1534 4250 1286 3958 
Q 1038 3666 1038 3163 
Q 1038 2656 1286 2365 
Q 1534 2075 1959 2075 
z
" transform="scale(0.015625)"/>
       </defs>
       <use xlink:href="#DejaVuSans-2212"/>
       <use xlink:href="#DejaVuSans-35" transform="translate(83.789062 0)"/>
       <use xlink:href="#DejaVuSans-35" transform="translate(147.412109 0)"/>
       <use xlink:href="#DejaVuSans-2e" transform="translate(211.035156 0)"/>
       <use xlink:href="#DejaVuSans-36" transform="translate(242.822266 0)"/>
       <use xlink:href="#DejaVuSans-39" transform="translate(306.445312 0)"/>
      </g>
     </g>
    </g>
    <g id="xtick_8">
     <g id="line2d_15">
      <path d="M 540.00887 740.734683 
L 540.00887 131.905317 
" clip-path="url(#p350eafffd2)" style="fill: none; stroke: #b0b0b0; stroke-width: 0.8; stroke-linecap: square"/>
     </g>
     <g id="line2d_16">
      <g>
       <use xlink:href="#md60456bd71" x="540.00887" y="740.734683" style="stroke: #000000; stroke-width: 0.8"/>
      </g>
     </g>
     <g id="text_8">
      <!-- −55.68 -->
      <g transform="translate(528.875805 779.276065) rotate(-45) scale(0.1 -0.1)">
       <defs>
        <path id="DejaVuSans-38" d="M 2034 2216 
Q 1584 2216 1326 1975 
Q 1069 1734 1069 1313 
Q 1069 891 1326 650 
Q 1584 409 2034 409 
Q 2484 409 2743 651 
Q 3003 894 3003 1313 
Q 3003 1734 2745 1975 
Q 2488 2216 2034 2216 
z
M 1403 2484 
Q 997 2584 770 2862 
Q 544 3141 544 3541 
Q 544 4100 942 4425 
Q 1341 4750 2034 4750 
Q 2731 4750 3128 4425 
Q 3525 4100 3525 3541 
Q 3525 3141 3298 2862 
Q 3072 2584 2669 2484 
Q 3125 2378 3379 2068 
Q 3634 1759 3634 1313 
Q 3634 634 3220 271 
Q 2806 -91 2034 -91 
Q 1263 -91 848 271 
Q 434 634 434 1313 
Q 434 1759 690 2068 
Q 947 2378 1403 2484 
z
M 1172 3481 
Q 1172 3119 1398 2916 
Q 1625 2713 2034 2713 
Q 2441 2713 2670 2916 
Q 2900 3119 2900 3481 
Q 2900 3844 2670 4047 
Q 2441 4250 2034 4250 
Q 1625 4250 1398 4047 
Q 1172 3844 1172 3481 
z
" transform="scale(0.015625)"/>
       </defs>
       <use xlink:href="#DejaVuSans-2212"/>
       <use xlink:href="#DejaVuSans-35" transform="translate(83.789062 0)"/>
       <use xlink:href="#DejaVuSans-35" transform="translate(147.412109 0)"/>
       <use xlink:href="#DejaVuSans-2e" transform="translate(211.035156 0)"/>
       <use xlink:href="#DejaVuSans-36" transform="translate(242.822266 0)"/>
       <use xlink:href="#DejaVuSans-38" transform="translate(306.445312 0)"/>
      </g>
     </g>
    </g>
    <g id="xtick_9">
     <g id="line2d_17">
      <path d="M 603.655394 740.734683 
L 603.655394 131.905317 
" clip-path="url(#p350eafffd2)" style="fill: none; stroke: #b0b0b0; stroke-width: 0.8; stroke-linecap: square"/>
     </g>
     <g id="line2d_18">
      <g>
       <use xlink:href="#md60456bd71" x="603.655394" y="740.734683" style="stroke: #000000; stroke-width: 0.8"/>
      </g>
     </g>
     <g id="text_9">
      <!-- −55.67 -->
      <g transform="translate(592.522329 779.276065) rotate(-45) scale(0.1 -0.1)">
       <use xlink:href="#DejaVuSans-2212"/>
       <use xlink:href="#DejaVuSans-35" transform="translate(83.789062 0)"/>
       <use xlink:href="#DejaVuSans-35" transform="translate(147.412109 0)"/>
       <use xlink:href="#DejaVuSans-2e" transform="translate(211.035156 0)"/>
       <use xlink:href="#DejaVuSans-36" transform="translate(242.822266 0)"/>
       <use xlink:href="#DejaVuSans-37" transform="translate(306.445312 0)"/>
      </g>
     </g>
    </g>
    <g id="text_10">
     <!-- Longitude (°) -->
     <g transform="translate(336.139844 792.345064) scale(0.1 -0.1)">
      <defs>
       <path id="DejaVuSans-4c" d="M 628 4666 
L 1259 4666 
L 1259 531 
L 3531 531 
L 3531 0 
L 628 0 
L 628 4666 
z
" transform="scale(0.015625)"/>
       <path id="DejaVuSans-6f" d="M 1959 3097 
Q 1497 3097 1228 2736 
Q 959 2375 959 1747 
Q 959 1119 1226 758 
Q 1494 397 1959 397 
Q 2419 397 2687 759 
Q 2956 1122 2956 1747 
Q 2956 2369 2687 2733 
Q 2419 3097 1959 3097 
z
M 1959 3584 
Q 2709 3584 3137 3096 
Q 3566 2609 3566 1747 
Q 3566 888 3137 398 
Q 2709 -91 1959 -91 
Q 1206 -91 779 398 
Q 353 888 353 1747 
Q 353 2609 779 3096 
Q 1206 3584 1959 3584 
z
" transform="scale(0.015625)"/>
       <path id="DejaVuSans-6e" d="M 3513 2113 
L 3513 0 
L 2938 0 
L 2938 2094 
Q 2938 2591 2744 2837 
Q 2550 3084 2163 3084 
Q 1697 3084 1428 2787 
Q 1159 2491 1159 1978 
L 1159 0 
L 581 0 
L 581 3500 
L 1159 3500 
L 1159 2956 
Q 1366 3272 1645 3428 
Q 1925 3584 2291 3584 
Q 2894 3584 3203 3211 
Q 3513 2838 3513 2113 
z
" transform="scale(0.015625)"/>
       <path id="DejaVuSans-67" d="M 2906 1791 
Q 2906 2416 2648 2759 
Q 2391 3103 1925 3103 
Q 1463 3103 1205 2759 
Q 947 2416 947 1791 
Q 947 1169 1205 825 
Q 1463 481 1925 481 
Q 2391 481 2648 825 
Q 2906 1169 2906 1791 
z
M 3481 434 
Q 3481 -459 3084 -895 
Q 2688 -1331 1869 -1331 
Q 1566 -1331 1297 -1286 
Q 1028 -1241 775 -1147 
L 775 -588 
Q 1028 -725 1275 -790 
Q 1522 -856 1778 -856 
Q 2344 -856 2625 -561 
Q 2906 -266 2906 331 
L 2906 616 
Q 2728 306 2450 153 
Q 2172 0 1784 0 
Q 1141 0 747 490 
Q 353 981 353 1791 
Q 353 2603 747 3093 
Q 1141 3584 1784 3584 
Q 2172 3584 2450 3431 
Q 2728 3278 2906 2969 
L 2906 3500 
L 3481 3500 
L 3481 434 
z
" transform="scale(0.015625)"/>
       <path id="DejaVuSans-69" d="M 603 3500 
L 1178 3500 
L 1178 0 
L 603 0 
L 603 3500 
z
M 603 4863 
L 1178 4863 
L 1178 4134 
L 603 4134 
L 603 4863 
z
" transform="scale(0.015625)"/>
       <path id="DejaVuSans-74" d="M 1172 4494 
L 1172 3500 
L 2356 3500 
L 2356 3053 
L 1172 3053 
L 1172 1153 
Q 1172 725 1289 603 
Q 1406 481 1766 481 
L 2356 481 
L 2356 0 
L 1766 0 
Q 1100 0 847 248 
Q 594 497 594 1153 
L 594 3053 
L 172 3053 
L 172 3500 
L 594 3500 
L 594 4494 
L 1172 4494 
z
" transform="scale(0.015625)"/>
       <path id="DejaVuSans-75" d="M 544 1381 
L 544 3500 
L 1119 3500 
L 1119 1403 
Q 1119 906 1312 657 
Q 1506 409 1894 409 
Q 2359 409 2629 706 
Q 2900 1003 2900 1516 
L 2900 3500 
L 3475 3500 
L 3475 0 
L 2900 0 
L 2900 538 
Q 2691 219 2414 64 
Q 2138 -91 1772 -91 
Q 1169 -91 856 284 
Q 544 659 544 1381 
z
M 1991 3584 
L 1991 3584 
z
" transform="scale(0.015625)"/>
       <path id="DejaVuSans-64" d="M 2906 2969 
L 2906 4863 
L 3481 4863 
L 3481 0 
L 2906 0 
L 2906 525 
Q 2725 213 2448 61 
Q 2172 -91 1784 -91 
Q 1150 -91 751 415 
Q 353 922 353 1747 
Q 353 2572 751 3078 
Q 1150 3584 1784 3584 
Q 2172 3584 2448 3432 
Q 2725 3281 2906 2969 
z
M 947 1747 
Q 947 1113 1208 752 
Q 1469 391 1925 391 
Q 2381 391 2643 752 
Q 2906 1113 2906 1747 
Q 2906 2381 2643 2742 
Q 2381 3103 1925 3103 
Q 1469 3103 1208 2742 
Q 947 2381 947 1747 
z
" transform="scale(0.015625)"/>
       <path id="DejaVuSans-65" d="M 3597 1894 
L 3597 1613 
L 953 1613 
Q 991 1019 1311 708 
Q 1631 397 2203 397 
Q 2534 397 2845 478 
Q 3156 559 3463 722 
L 3463 178 
Q 3153 47 2828 -22 
Q 2503 -91 2169 -91 
Q 1331 -91 842 396 
Q 353 884 353 1716 
Q 353 2575 817 3079 
Q 1281 3584 2069 3584 
Q 2775 3584 3186 3129 
Q 3597 2675 3597 1894 
z
M 3022 2063 
Q 3016 2534 2758 2815 
Q 2500 3097 2075 3097 
Q 1594 3097 1305 2825 
Q 1016 2553 972 2059 
L 3022 2063 
z
" transform="scale(0.015625)"/>
       <path id="DejaVuSans-20" transform="scale(0.015625)"/>
       <path id="DejaVuSans-28" d="M 1984 4856 
Q 1566 4138 1362 3434 
Q 1159 2731 1159 2009 
Q 1159 1288 1364 580 
Q 1569 -128 1984 -844 
L 1484 -844 
Q 1016 -109 783 600 
Q 550 1309 550 2009 
Q 550 2706 781 3412 
Q 1013 4119 1484 4856 
L 1984 4856 
z
" transform="scale(0.015625)"/>
       <path id="DejaVuSans-b0" d="M 1600 4347 
Q 1350 4347 1178 4173 
Q 1006 4000 1006 3750 
Q 1006 3503 1178 3333 
Q 1350 3163 1600 3163 
Q 1850 3163 2022 3333 
Q 2194 3503 2194 3750 
Q 2194 3997 2020 4172 
Q 1847 4347 1600 4347 
z
M 1600 4750 
Q 1800 4750 1984 4673 
Q 2169 4597 2303 4453 
Q 2447 4313 2519 4134 
Q 2591 3956 2591 3750 
Q 2591 3338 2302 3052 
Q 2013 2766 1594 2766 
Q 1172 2766 890 3047 
Q 609 3328 609 3750 
Q 609 4169 896 4459 
Q 1184 4750 1600 4750 
z
" transform="scale(0.015625)"/>
       <path id="DejaVuSans-29" d="M 513 4856 
L 1013 4856 
Q 1481 4119 1714 3412 
Q 1947 2706 1947 2009 
Q 1947 1309 1714 600 
Q 1481 -109 1013 -844 
L 513 -844 
Q 928 -128 1133 580 
Q 1338 1288 1338 2009 
Q 1338 2731 1133 3434 
Q 928 4138 513 4856 
z
" transform="scale(0.015625)"/>
      </defs>
      <use xlink:href="#DejaVuSans-4c"/>
      <use xlink:href="#DejaVuSans-6f" transform="translate(53.962891 0)"/>
      <use xlink:href="#DejaVuSans-6e" transform="translate(115.144531 0)"/>
      <use xlink:href="#DejaVuSans-67" transform="translate(178.523438 0)"/>
      <use xlink:href="#DejaVuSans-69" transform="translate(242 0)"/>
      <use xlink:href="#DejaVuSans-74" transform="translate(269.783203 0)"/>
      <use xlink:href="#DejaVuSans-75" transform="translate(308.992188 0)"/>
      <use xlink:href="#DejaVuSans-64" transform="translate(372.371094 0)"/>
      <use xlink:href="#DejaVuSans-65" transform="translate(435.847656 0)"/>
      <use xlink:href="#DejaVuSans-20" transform="translate(497.371094 0)"/>
      <use xlink:href="#DejaVuSans-28" transform="translate(529.158203 0)"/>
      <use xlink:href="#DejaVuSans-b0" transform="translate(568.171875 0)"/>
      <use xlink:href="#DejaVuSans-29" transform="translate(618.171875 0)"/>
     </g>
    </g>
   </g>
   <g id="matplotlib.axis_2">
    <g id="ytick_1">
     <g id="line2d_19">
      <path d="M 90 679.819628 
L 648 679.819628 
" clip-path="url(#p350eafffd2)" style="fill: none; stroke: #b0b0b0; stroke-width: 0.8; stroke-linecap: square"/>
     </g>
     <g id="line2d_20">
      <defs>
       <path id="m51d3b4fa12" d="M 0 0 
L -3.5 0 
" style="stroke: #000000; stroke-width: 0.8"/>
      </defs>
      <g>
       <use xlink:href="#m51d3b4fa12" x="90" y="679.819628" style="stroke: #000000; stroke-width: 0.8"/>
      </g>
     </g>
     <g id="text_11">
      <!-- −14.14 -->
      <g transform="translate(45.992188 683.618847) scale(0.1 -0.1)">
       <use xlink:href="#DejaVuSans-2212"/>
       <use xlink:href="#DejaVuSans-31" transform="translate(83.789062 0)"/>
       <use xlink:href="#DejaVuSans-34" transform="translate(147.412109 0)"/>
       <use xlink:href="#DejaVuSans-2e" transform="translate(211.035156 0)"/>
       <use xlink:href="#DejaVuSans-31" transform="translate(242.822266 0)"/>
       <use xlink:href="#DejaVuSans-34" transform="translate(306.445312 0)"/>
      </g>
     </g>
    </g>
    <g id="ytick_2">
     <g id="line2d_21">
      <path d="M 90 548.564673 
L 648 548.564673 
" clip-path="url(#p350eafffd2)" style="fill: none; stroke: #b0b0b0; stroke-width: 0.8; stroke-linecap: square"/>
     </g>
     <g id="line2d_22">
      <g>
       <use xlink:href="#m51d3b4fa12" x="90" y="548.564673" style="stroke: #000000; stroke-width: 0.8"/>
      </g>
     </g>
     <g id="text_12">
      <!-- −14.12 -->
      <g transform="translate(45.992188 552.363891) scale(0.1 -0.1)">
       <use xlink:href="#DejaVuSans-2212"/>
       <use xlink:href="#DejaVuSans-31" transform="translate(83.789062 0)"/>
       <use xlink:href="#DejaVuSans-34" transform="translate(147.412109 0)"/>
       <use xlink:href="#DejaVuSans-2e" transform="translate(211.035156 0)"/>
       <use xlink:href="#DejaVuSans-31" transform="translate(242.822266 0)"/>
       <use xlink:href="#DejaVuSans-32" transform="translate(306.445312 0)"/>
      </g>
     </g>
    </g>
    <g id="ytick_3">
     <g id="line2d_23">
      <path d="M 90 417.309717 
L 648 417.309717 
" clip-path="url(#p350eafffd2)" style="fill: none; stroke: #b0b0b0; stroke-width: 0.8; stroke-linecap: square"/>
     </g>
     <g id="line2d_24">
      <g>
       <use xlink:href="#m51d3b4fa12" x="90" y="417.309717" style="stroke: #000000; stroke-width: 0.8"/>
      </g>
     </g>
     <g id="text_13">
      <!-- −14.10 -->
      <g transform="translate(45.992188 421.108936) scale(0.1 -0.1)">
       <use xlink:href="#DejaVuSans-2212"/>
       <use xlink:href="#DejaVuSans-31" transform="translate(83.789062 0)"/>
       <use xlink:href="#DejaVuSans-34" transform="translate(147.412109 0)"/>
       <use xlink:href="#DejaVuSans-2e" transform="translate(211.035156 0)"/>
       <use xlink:href="#DejaVuSans-31" transform="translate(242.822266 0)"/>
       <use xlink:href="#DejaVuSans-30" transform="translate(306.445312 0)"/>
      </g>
     </g>
    </g>
    <g id="ytick_4">
     <g id="line2d_25">
      <path d="M 90 286.054762 
L 648 286.054762 
" clip-path="url(#p350eafffd2)" style="fill: none; stroke: #b0b0b0; stroke-width: 0.8; stroke-linecap: square"/>
     </g>
     <g id="line2d_26">
      <g>
       <use xlink:href="#m51d3b4fa12" x="90" y="286.054762" style="stroke: #000000; stroke-width: 0.8"/>
      </g>
     </g>
     <g id="text_14">
      <!-- −14.08 -->
      <g transform="translate(45.992188 289.85398) scale(0.1 -0.1)">
       <use xlink:href="#DejaVuSans-2212"/>
       <use xlink:href="#DejaVuSans-31" transform="translate(83.789062 0)"/>
       <use xlink:href="#DejaVuSans-34" transform="translate(147.412109 0)"/>
       <use xlink:href="#DejaVuSans-2e" transform="translate(211.035156 0)"/>
       <use xlink:href="#DejaVuSans-30" transform="translate(242.822266 0)"/>
       <use xlink:href="#DejaVuSans-38" transform="translate(306.445312 0)"/>
      </g>
     </g>
    </g>
    <g id="ytick_5">
     <g id="line2d_27">
      <path d="M 90 154.799806 
L 648 154.799806 
" clip-path="url(#p350eafffd2)" style="fill: none; stroke: #b0b0b0; stroke-width: 0.8; stroke-linecap: square"/>
     </g>
     <g id="line2d_28">
      <g>
       <use xlink:href="#m51d3b4fa12" x="90" y="154.799806" style="stroke: #000000; stroke-width: 0.8"/>
      </g>
     </g>
     <g id="text_15">
      <!-- −14.06 -->
      <g transform="translate(45.992188 158.599025) scale(0.1 -0.1)">
       <use xlink:href="#DejaVuSans-2212"/>
       <use xlink:href="#DejaVuSans-31" transform="translate(83.789062 0)"/>
       <use xlink:href="#DejaVuSans-34" transform="translate(147.412109 0)"/>
       <use xlink:href="#DejaVuSans-2e" transform="translate(211.035156 0)"/>
       <use xlink:href="#DejaVuSans-30" transform="translate(242.822266 0)"/>
       <use xlink:href="#DejaVuSans-36" transform="translate(306.445312 0)"/>
      </g>
     </g>
    </g>
    <g id="text_16">
     <!-- Latitude (°) -->
     <g transform="translate(39.9125 464.889531) rotate(-90) scale(0.1 -0.1)">
      <defs>
       <path id="DejaVuSans-61" d="M 2194 1759 
Q 1497 1759 1228 1600 
Q 959 1441 959 1056 
Q 959 750 1161 570 
Q 1363 391 1709 391 
Q 2188 391 2477 730 
Q 2766 1069 2766 1631 
L 2766 1759 
L 2194 1759 
z
M 3341 1997 
L 3341 0 
L 2766 0 
L 2766 531 
Q 2569 213 2275 61 
Q 1981 -91 1556 -91 
Q 1019 -91 701 211 
Q 384 513 384 1019 
Q 384 1609 779 1909 
Q 1175 2209 1959 2209 
L 2766 2209 
L 2766 2266 
Q 2766 2663 2505 2880 
Q 2244 3097 1772 3097 
Q 1472 3097 1187 3025 
Q 903 2953 641 2809 
L 641 3341 
Q 956 3463 1253 3523 
Q 1550 3584 1831 3584 
Q 2591 3584 2966 3190 
Q 3341 2797 3341 1997 
z
" transform="scale(0.015625)"/>
      </defs>
      <use xlink:href="#DejaVuSans-4c"/>
      <use xlink:href="#DejaVuSans-61" transform="translate(55.712891 0)"/>
      <use xlink:href="#DejaVuSans-74" transform="translate(116.992188 0)"/>
      <use xlink:href="#DejaVuSans-69" transform="translate(156.201172 0)"/>
      <use xlink:href="#DejaVuSans-74" transform="translate(183.984375 0)"/>
      <use xlink:href="#DejaVuSans-75" transform="translate(223.193359 0)"/>
      <use xlink:href="#DejaVuSans-64" transform="translate(286.572266 0)"/>
      <use xlink:href="#DejaVuSans-65" transform="translate(350.048828 0)"/>
      <use xlink:href="#DejaVuSans-20" transform="translate(411.572266 0)"/>
      <use xlink:href="#DejaVuSans-28" transform="translate(443.359375 0)"/>
      <use xlink:href="#DejaVuSans-b0" transform="translate(482.373047 0)"/>
      <use xlink:href="#DejaVuSans-29" transform="translate(532.373047 0)"/>
     </g>
    </g>
   </g>
   <g id="patch_3">
    <path d="M 90 740.734683 
L 90 131.905317 
" style="fill: none; stroke: #000000; stroke-width: 0.8; stroke-linejoin: miter; stroke-linecap: square"/>
   </g>
   <g id="patch_4">
    <path d="M 648 740.734683 
L 648 131.905317 
" style="fill: none; stroke: #000000; stroke-width: 0.8; stroke-linejoin: miter; stroke-linecap: square"/>
   </g>
   <g id="patch_5">
    <path d="M 90 740.734683 
L 648 740.734683 
" style="fill: none; stroke: #000000; stroke-width: 0.8; stroke-linejoin: miter; stroke-linecap: square"/>
   </g>
   <g id="patch_6">
    <path d="M 90 131.905317 
L 648 131.905317 
" style="fill: none; stroke: #000000; stroke-width: 0.8; stroke-linejoin: miter; stroke-linecap: square"/>
   </g>
   <g id="legend_1">
    <g id="patch_7">
     <path d="M 279.8375 901.792432 
L 458.1625 901.792432 
Q 460.1625 901.792432 460.1625 899.792432 
L 460.1625 869.500557 
Q 460.1625 867.500557 458.1625 867.500557 
L 279.8375 867.500557 
Q 277.8375 867.500557 277.8375 869.500557 
L 277.8375 899.792432 
Q 277.8375 901.792432 279.8375 901.792432 
z
" style="fill: #ffffff; opacity: 0.8; stroke: #cccccc; stroke-linejoin: miter"/>
    </g>
    <g id="text_17">
     <!-- Legenda -->
     <g transform="translate(343.280625 880.618682) scale(0.12 -0.12)">
      <use xlink:href="#DejaVuSans-4c"/>
      <use xlink:href="#DejaVuSans-65" transform="translate(53.962891 0)"/>
      <use xlink:href="#DejaVuSans-67" transform="translate(115.486328 0)"/>
      <use xlink:href="#DejaVuSans-65" transform="translate(178.962891 0)"/>
      <use xlink:href="#DejaVuSans-6e" transform="translate(240.486328 0)"/>
      <use xlink:href="#DejaVuSans-64" transform="translate(303.865234 0)"/>
      <use xlink:href="#DejaVuSans-61" transform="translate(367.341797 0)"/>
     </g>
    </g>
    <g id="patch_8">
     <path style="fill: none; stroke: #000000; stroke-linejoin: miter"/>
    </g>
    <g id="text_18">
     <!-- Gleba Federal -->
     <g transform="translate(309.8375 895.712744) scale(0.1 -0.1)">
      <defs>
       <path id="DejaVuSans-47" d="M 3809 666 
L 3809 1919 
L 2778 1919 
L 2778 2438 
L 4434 2438 
L 4434 434 
Q 4069 175 3628 42 
Q 3188 -91 2688 -91 
Q 1594 -91 976 548 
Q 359 1188 359 2328 
Q 359 3472 976 4111 
Q 1594 4750 2688 4750 
Q 3144 4750 3555 4637 
Q 3966 4525 4313 4306 
L 4313 3634 
Q 3963 3931 3569 4081 
Q 3175 4231 2741 4231 
Q 1884 4231 1454 3753 
Q 1025 3275 1025 2328 
Q 1025 1384 1454 906 
Q 1884 428 2741 428 
Q 3075 428 3337 486 
Q 3600 544 3809 666 
z
" transform="scale(0.015625)"/>
       <path id="DejaVuSans-6c" d="M 603 4863 
L 1178 4863 
L 1178 0 
L 603 0 
L 603 4863 
z
" transform="scale(0.015625)"/>
       <path id="DejaVuSans-62" d="M 3116 1747 
Q 3116 2381 2855 2742 
Q 2594 3103 2138 3103 
Q 1681 3103 1420 2742 
Q 1159 2381 1159 1747 
Q 1159 1113 1420 752 
Q 1681 391 2138 391 
Q 2594 391 2855 752 
Q 3116 1113 3116 1747 
z
M 1159 2969 
Q 1341 3281 1617 3432 
Q 1894 3584 2278 3584 
Q 2916 3584 3314 3078 
Q 3713 2572 3713 1747 
Q 3713 922 3314 415 
Q 2916 -91 2278 -91 
Q 1894 -91 1617 61 
Q 1341 213 1159 525 
L 1159 0 
L 581 0 
L 581 4863 
L 1159 4863 
L 1159 2969 
z
" transform="scale(0.015625)"/>
       <path id="DejaVuSans-46" d="M 628 4666 
L 3309 4666 
L 3309 4134 
L 1259 4134 
L 1259 2759 
L 3109 2759 
L 3109 2228 
L 1259 2228 
L 1259 0 
L 628 0 
L 628 4666 
z
" transform="scale(0.015625)"/>
       <path id="DejaVuSans-72" d="M 2631 2963 
Q 2534 3019 2420 3045 
Q 2306 3072 2169 3072 
Q 1681 3072 1420 2755 
Q 1159 2438 1159 1844 
L 1159 0 
L 581 0 
L 581 3500 
L 1159 3500 
L 1159 2956 
Q 1341 3275 1631 3429 
Q 1922 3584 2338 3584 
Q 2397 3584 2469 3576 
Q 2541 3569 2628 3553 
L 2631 2963 
z
" transform="scale(0.015625)"/>
      </defs>
      <use xlink:href="#DejaVuSans-47"/>
      <use xlink:href="#DejaVuSans-6c" transform="translate(77.490234 0)"/>
      <use xlink:href="#DejaVuSans-65" transform="translate(105.273438 0)"/>
      <use xlink:href="#DejaVuSans-62" transform="translate(166.796875 0)"/>
      <use xlink:href="#DejaVuSans-61" transform="translate(230.273438 0)"/>
      <use xlink:href="#DejaVuSans-20" transform="translate(291.552734 0)"/>
      <use xlink:href="#DejaVuSans-46" transform="translate(323.339844 0)"/>
      <use xlink:href="#DejaVuSans-65" transform="translate(375.359375 0)"/>
      <use xlink:href="#DejaVuSans-64" transform="translate(436.882812 0)"/>
      <use xlink:href="#DejaVuSans-65" transform="translate(500.359375 0)"/>
      <use xlink:href="#DejaVuSans-72" transform="translate(561.882812 0)"/>
      <use xlink:href="#DejaVuSans-61" transform="translate(602.996094 0)"/>
      <use xlink:href="#DejaVuSans-6c" transform="translate(664.275391 0)"/>
     </g>
    </g>
    <g id="patch_9">
     <path d="M 399.045312 895.712744 
L 419.045312 895.712744 
L 419.045312 888.712744 
L 399.045312 888.712744 
z
" style="fill: #e0bd1f; opacity: 0.6"/>
    </g>
    <g id="text_19">
     <!-- SIGEF -->
     <g transform="translate(427.045312 895.712744) scale(0.1 -0.1)">
      <defs>
       <path id="DejaVuSans-53" d="M 3425 4513 
L 3425 3897 
Q 3066 4069 2747 4153 
Q 2428 4238 2131 4238 
Q 1616 4238 1336 4038 
Q 1056 3838 1056 3469 
Q 1056 3159 1242 3001 
Q 1428 2844 1947 2747 
L 2328 2669 
Q 3034 2534 3370 2195 
Q 3706 1856 3706 1288 
Q 3706 609 3251 259 
Q 2797 -91 1919 -91 
Q 1588 -91 1214 -16 
Q 841 59 441 206 
L 441 856 
Q 825 641 1194 531 
Q 1563 422 1919 422 
Q 2459 422 2753 634 
Q 3047 847 3047 1241 
Q 3047 1584 2836 1778 
Q 2625 1972 2144 2069 
L 1759 2144 
Q 1053 2284 737 2584 
Q 422 2884 422 3419 
Q 422 4038 858 4394 
Q 1294 4750 2059 4750 
Q 2388 4750 2728 4690 
Q 3069 4631 3425 4513 
z
" transform="scale(0.015625)"/>
       <path id="DejaVuSans-49" d="M 628 4666 
L 1259 4666 
L 1259 0 
L 628 0 
L 628 4666 
z
" transform="scale(0.015625)"/>
       <path id="DejaVuSans-45" d="M 628 4666 
L 3578 4666 
L 3578 4134 
L 1259 4134 
L 1259 2753 
L 3481 2753 
L 3481 2222 
L 1259 2222 
L 1259 531 
L 3634 531 
L 3634 0 
L 628 0 
L 628 4666 
z
" transform="scale(0.015625)"/>
      </defs>
      <use xlink:href="#DejaVuSans-53"/>
      <use xlink:href="#DejaVuSans-49" transform="translate(63.476562 0)"/>
      <use xlink:href="#DejaVuSans-47" transform="translate(92.96875 0)"/>
      <use xlink:href="#DejaVuSans-45" transform="translate(170.458984 0)"/>
      <use xlink:href="#DejaVuSans-46" transform="translate(233.642578 0)"/>
     </g>
    </g>
   </g>
  </g>
 </g>
 <defs>
  <clipPath id="p350eafffd2">
   <rect x="90" y="131.905317" width="558" height="608.829367"/>
  </clipPath>
 </defs>
</svg>
