<?xml version="1.0" encoding="utf-8" standalone="no"?>
<!DOCTYPE svg PUBLIC "-//W3C//DTD SVG 1.1//EN"
  "http://www.w3.org/Graphics/SVG/1.1/DTD/svg11.dtd">
<svg xmlns:xlink="http://www.w3.org/1999/xlink" width="720pt" height="864pt" viewBox="0 0 720 864" xmlns="http://www.w3.org/2000/svg" version="1.1">
 <metadata>
  <rdf:RDF xmlns:dc="http://purl.org/dc/elements/1.1/" xmlns:cc="http://creativecommons.org/ns#" xmlns:rdf="http://www.w3.org/1999/02/22-rdf-syntax-ns#">
   <cc:Work>
    <dc:type rdf:resource="http://purl.org/dc/dcmitype/StillImage"/>
    <dc:date>2025-06-16T17:48:59.487234</dc:date>
    <dc:format>image/svg+xml</dc:format>
    <dc:creator>
     <cc:Agent>
      <dc:title>Matplotlib v3.10.1, https://matplotlib.org/</dc:title>
     </cc:Agent>
    </dc:creator>
   </cc:Work>
  </rdf:RDF>
 </metadata>
 <defs>
  <style type="text/css">*{stroke-linejoin: round; stroke-linecap: butt}</style>
 </defs>
 <g id="figure_1">
  <g id="patch_1">
   <path d="M 0 864 
L 720 864 
L 720 0 
L 0 0 
z
" style="fill: #ffffff"/>
  </g>
  <g id="axes_1">
   <g id="patch_2">
    <path d="M 90 767.576792 
L 648 767.576792 
L 648 105.063208 
L 90 105.063208 
z
" style="fill: #ffffff"/>
   </g>
   <g id="PatchCollection_1">
    <path d="M 363.335042 246.579064 
L 365.444656 249.011157 
L 367.6265 251.716326 
L 368.98776 253.584921 
L 372.880493 254.802991 
L 375.688156 258.335338 
L 376.915176 262.28802 
L 379.463463 265.191285 
L 380.629866 267.569843 
L 382.076269 270.048822 
L 386.507077 273.437957 
L 386.79999 275.42167 
L 385.267144 276.323827 
L 385.436175 280.086411 
L 386.530302 282.530551 
L 387.29157 284.242538 
L 387.981861 286.728167 
L 388.904402 288.052008 
L 389.450189 289.852322 
L 389.046353 291.67538 
L 391.588184 294.122219 
L 395.21513 297.329303 
L 402.292327 303.29514 
L 402.96455 306.18501 
L 404.227708 308.611755 
L 406.123142 309.351955 
L 408.548848 313.425104 
L 412.401587 329.23983 
L 421.424477 350.727176 
L 438.299999 360.269548 
L 442.386288 360.472993 
L 441.897264 358.651284 
L 444.986181 358.647237 
L 445.006851 363.119277 
L 445.826181 363.427144 
L 448.642855 363.477981 
L 449.552483 364.116459 
L 457.328983 366.752046 
L 457.52895 366.627579 
L 460.095306 367.437361 
L 465.318363 368.224399 
L 468.207268 367.358383 
L 472.382601 368.271285 
L 476.528253 368.173562 
L 480.142333 368.612593 
L 408.200474 399.129698 
L 396.505415 395.289436 
L 381.748566 386.424381 
L 372.154063 375.406958 
L 365.31822 365.547371 
L 363.229229 353.499277 
L 365.426587 346.148112 
L 365.585306 337.281707 
L 355.619205 322.912591 
L 346.309859 312.647414 
L 296.434296 265.279612 
L 363.335042 246.579064 
" clip-path="url(#peac7225500)" style="fill: #e0bd1f; stroke: #0000ff; stroke-width: 0.5"/>
    <path d="M 233.070197 135.177461 
L 242.03247 151.831412 
L 245.361394 158.075626 
L 250.383137 169.443754 
L 253.457841 179.19357 
L 258.582796 185.734953 
L 263.976185 190.090526 
L 269.564338 196.389624 
L 277.940785 197.273085 
L 287.2669 200.223188 
L 290.04098 203.948331 
L 294.421483 208.348043 
L 305.593981 216.810207 
L 311.689227 219.512726 
L 316.454196 224.435797 
L 319.508276 226.174576 
L 324.171333 226.477045 
L 328.217629 231.653146 
L 333.884515 235.148052 
L 338.253405 240.775231 
L 342.044227 243.96892 
L 346.425983 245.213782 
L 351.219379 245.423925 
L 354.646359 244.769353 
L 358.537791 246.284593 
L 363.335042 246.579064 
L 296.434296 265.279612 
L 346.309859 312.647414 
L 355.619205 322.912591 
L 365.585306 337.281707 
L 365.426587 346.148112 
L 363.229229 353.499277 
L 365.31822 365.547371 
L 372.154063 375.406958 
L 381.748566 386.424381 
L 396.505415 395.289436 
L 408.200474 399.129698 
L 480.142333 368.612593 
L 484.087972 368.411798 
L 488.080061 369.192186 
L 491.865726 368.754456 
L 495.68753 369.309955 
L 502.418908 370.762263 
L 507.576145 371.159805 
L 513.374624 373.040447 
L 518.592479 372.074009 
L 521.902033 372.705788 
L 526.602529 370.937615 
L 532.353257 371.39809 
L 537.335007 370.594958 
L 537.335007 370.313883 
L 553.561531 327.618868 
L 536.38794 212.563055 
L 543.52961 210.335756 
L 549.757796 220.752191 
L 560.567706 235.22703 
L 570.451219 257.346156 
L 571.971153 260.17449 
L 572.811106 260.80227 
L 581.938508 262.585189 
L 590.511113 265.357241 
L 594.347084 267.770638 
L 597.008941 270.035426 
L 598.975304 274.060388 
L 599.487553 279.551006 
L 599.919769 284.172956 
L 599.883678 290.667453 
L 599.877221 291.878825 
L 599.808847 292.593631 
L 601.491355 294.167707 
L 604.070624 297.329303 
L 606.920835 301.563108 
L 609.244583 307.123307 
L 610.311677 311.311575 
L 611.934821 315.569425 
L 613.746367 319.092423 
L 618.097188 327.684451 
L 622.636364 338.12763 
L 619.503598 341.465927 
L 618.532005 344.773434 
L 619.534533 352.848753 
L 618.828774 356.955343 
L 613.764436 367.849649 
L 609.53104 371.467672 
L 598.223094 376.421583 
L 592.672333 379.825415 
L 587.747345 385.381663 
L 580.498562 388.13232 
L 575.589088 390.896374 
L 566.692634 399.106905 
L 550.547444 411.873805 
L 529.487578 429.227816 
L 515.255844 433.907302 
L 500.702817 442.088391 
L 472.097445 443.845867 
L 494.08631 719.526236 
L 491.771572 718.72985 
L 485.15892 719.081856 
L 483.122836 720.991939 
L 481.591291 723.900554 
L 482.218364 726.039526 
L 482.015796 729.314891 
L 483.445431 734.572621 
L 482.943493 735.943299 
L 480.444257 737.462539 
L 466.670566 726.321949 
L 460.242413 721.139199 
L 459.64242 719.795312 
L 457.797338 717.695131 
L 458.731491 715.024801 
L 453.343305 706.262769 
L 450.473724 707.380466 
L 442.866301 704.916232 
L 437.973549 701.768032 
L 430.397062 702.255251 
L 428.761004 702.018316 
L 428.664249 702.403811 
L 427.853931 703.087777 
L 426.043686 702.735771 
L 424.501782 704.027423 
L 423.250236 703.785188 
L 421.135466 704.831905 
L 418.14976 703.168105 
L 416.40919 704.035471 
L 413.122861 701.986175 
L 411.304859 702.435952 
L 405.529606 700.844432 
L 403.266474 702.083898 
L 400.426575 701.283464 
L 399.764664 700.152419 
L 397.082183 700.930109 
L 396.353152 699.306449 
L 390.492756 698.445781 
L 381.214392 695.138275 
L 381.369209 694.092906 
L 378.027419 692.831998 
L 375.470074 690.857681 
L 372.706306 689.666402 
L 370.534774 692.156031 
L 368.343872 689.594122 
L 366.909128 688.190001 
L 364.629182 685.346969 
L 359.868069 681.105166 
L 358.585541 680.86958 
L 357.186889 677.936872 
L 356.070791 677.86729 
L 355.488867 678.753352 
L 354.762483 677.108345 
L 353.285098 676.530101 
L 349.658152 671.604283 
L 348.611729 671.553446 
L 348.157542 670.239001 
L 347.015665 669.160143 
L 344.148685 669.312751 
L 343.413197 665.046854 
L 339.075289 661.497064 
L 337.581182 662.541131 
L 335.426419 663.466032 
L 333.407149 662.869092 
L 333.306492 661.226687 
L 331.216248 660.612303 
L 329.251139 659.170741 
L 329.332426 655.101591 
L 327.097676 653.898266 
L 327.243482 650.183869 
L 325.386787 649.751487 
L 325.450005 646.314165 
L 324.977749 645.496336 
L 323.279774 644.907395 
L 322.358487 645.37052 
L 321.673351 641.275927 
L 319.140578 640.554472 
L 321.919814 639.642967 
L 321.38434 638.402152 
L 321.95205 636.696863 
L 322.273344 635.86159 
L 322.011413 634.773383 
L 320.436019 633.732015 
L 319.623146 633.860529 
L 317.421933 633.247446 
L 315.663294 630.207667 
L 315.541966 627.979019 
L 314.869744 626.723459 
L 314.162684 626.308521 
L 314.776844 623.561863 
L 315.091681 621.046792 
L 314.563964 620.334685 
L 316.470964 618.211807 
L 315.201349 617.152995 
L 316.196167 614.075726 
L 315.218118 611.552607 
L 314.162684 606.957449 
L 313.280136 607.649462 
L 312.142114 606.715164 
L 312.601457 605.157135 
L 312.352439 604.256279 
L 311.506029 604.194744 
L 312.775644 602.170891 
L 314.059472 601.933956 
L 314.108477 601.002357 
L 312.878855 599.669168 
L 311.98855 597.010836 
L 311.751145 596.063191 
L 310.43378 593.465094 
L 309.678969 592.006088 
L 310.631192 591.318075 
L 310.952486 590.627411 
L 310.646706 588.863237 
L 310.855731 588.259551 
L 309.370588 585.486149 
L 309.824775 584.582643 
L 307.840343 584.11282 
L 307.688081 582.791678 
L 306.67394 583.325734 
L 306.375871 581.723517 
L 306.601664 580.429166 
L 305.974591 578.090748 
L 305.506237 576.966402 
L 304.437889 575.242368 
L 303.430159 575.559631 
L 302.950193 574.126068 
L 301.950219 573.870388 
L 303.15146 572.436825 
L 301.861221 571.448992 
L 301.887001 568.987457 
L 301.512847 568.315489 
L 300.401905 568.671543 
L 301.468952 566.606201 
L 300.996743 565.014681 
L 301.422502 564.381552 
L 300.235476 562.09402 
L 298.386491 561.699176 
L 299.99677 560.802368 
L 298.125861 560.036725 
L 298.758091 558.698187 
L 298.02395 558.291296 
L 297.518157 557.098668 
L 298.755536 557.181646 
L 300.04452 557.176298 
L 299.598044 556.361118 
L 299.074228 555.83776 
L 300.787718 555.240771 
L 301.257373 554.380103 
L 300.00448 554.184657 
L 300.007081 553.534133 
L 301.547685 553.166032 
L 301.22379 552.013593 
L 300.510273 550.596076 
L 301.618614 550.175789 
L 300.830266 549.7662 
L 299.954175 549.370007 
L 301.022522 549.06614 
L 300.847035 547.983282 
L 302.059888 547.506761 
L 300.972217 546.603255 
L 300.062543 545.011735 
L 299.967088 544.531215 
L 299.929649 543.339936 
L 300.879317 544.161765 
L 301.61736 543.350634 
L 302.105083 541.594507 
L 300.857393 540.179641 
L 299.62387 541.242453 
L 299.109066 539.511721 
L 298.551667 535.564437 
L 297.562006 535.461365 
L 297.880699 533.782819 
L 298.040718 528.768723 
L 298.16971 526.450399 
L 295.716924 522.655674 
L 295.271794 520.887453 
L 290.905505 518.906438 
L 291.292572 516.667093 
L 290.435804 514.534819 
L 287.772693 513.750431 
L 285.495348 512.527012 
L 284.639927 512.571199 
L 282.39872 510.279619 
L 282.37805 509.012061 
L 281.645164 508.942431 
L 282.318687 507.953296 
L 279.009133 507.776595 
L 278.979498 508.243719 
L 278.633678 508.730986 
L 279.960101 508.912988 
L 278.246611 509.9798 
L 276.684084 506.154284 
L 276.847959 504.569462 
L 278.849159 503.791821 
L 279.637507 502.418492 
L 276.628576 502.569702 
L 275.73056 501.853596 
L 274.962837 502.138718 
L 274.010614 501.529683 
L 274.473859 500.266124 
L 272.454543 498.970424 
L 272.467456 497.72826 
L 271.223621 497.835331 
L 269.719156 496.269255 
L 267.727013 496.622658 
L 268.468911 495.601335 
L 266.132203 493.791673 
L 264.959343 494.408707 
L 265.718056 492.984541 
L 265.78643 491.833402 
L 264.591646 492.422343 
L 265.155455 491.500093 
L 265.343855 489.081395 
L 264.47292 487.733509 
L 262.931063 488.492454 
L 262.169796 489.129582 
L 262.323312 488.181889 
L 261.125927 487.501922 
L 258.19703 488.646363 
L 258.345391 489.346424 
L 256.813845 489.02786 
L 256.906745 490.109368 
L 256.11064 490.094671 
L 255.900315 488.897996 
L 255.1907 488.670457 
L 255.390667 484.628099 
L 256.074502 484.199765 
L 255.651297 483.118256 
L 254.745525 482.905414 
L 255.057807 481.43841 
L 253.204968 479.836193 
L 255.604848 478.18444 
L 257.884794 473.11541 
L 260.90529 467.889821 
L 258.505411 462.772653 
L 257.580268 460.359256 
L 258.92346 458.815923 
L 256.128709 456.79207 
L 256.839671 454.38142 
L 252.692719 451.603971 
L 252.558525 453.018789 
L 249.825739 452.961205 
L 248.683815 452.255844 
L 247.821937 450.492972 
L 247.118732 450.305573 
L 247.819336 449.578768 
L 247.232256 448.787683 
L 246.414227 449.430208 
L 245.918793 448.948338 
L 246.814207 448.13181 
L 245.289118 446.856204 
L 244.273677 446.64606 
L 243.548548 444.579369 
L 242.302112 446.295356 
L 242.073764 444.586067 
L 240.088032 445.480176 
L 239.648058 446.773226 
L 238.91127 445.86972 
L 237.266201 446.857553 
L 237.298437 445.353059 
L 235.99013 444.711883 
L 236.995213 443.473767 
L 233.462467 442.868731 
L 233.130861 443.685211 
L 232.310231 443.902053 
L 232.268937 442.72817 
L 230.791598 442.269092 
L 229.702581 439.998907 
L 228.436821 440.619989 
L 226.074334 440.528964 
L 226.404639 438.628277 
L 225.324679 435.716964 
L 224.524719 434.976764 
L 224.680837 433.540551 
L 225.470485 433.106868 
L 224.716975 432.143128 
L 223.756996 430.262487 
L 224.493784 429.259909 
L 223.009942 427.966907 
L 222.750612 426.370039 
L 223.776365 425.268436 
L 223.882178 422.922019 
L 224.895018 422.709178 
L 225.315668 421.329151 
L 224.709218 416.748689 
L 219.669406 412.023715 
L 215.2425 406.52505 
L 214.424471 406.272068 
L 214.646408 405.537217 
L 215.08248 403.656575 
L 214.059328 398.697316 
L 214.06964 397.277149 
L 212.739362 397.981209 
L 212.286475 395.400555 
L 211.989707 395.073944 
L 210.923961 397.072354 
L 210.681353 394.083412 
L 213.46319 388.002504 
L 213.890297 386.382892 
L 212.314856 386.186096 
L 213.180636 384.690999 
L 212.66193 382.454304 
L 211.394916 383.448835 
L 210.890378 382.612261 
L 208.318866 381.441028 
L 206.97312 379.628667 
L 205.921541 378.796093 
L 204.675151 376.625028 
L 203.704859 377.311693 
L 203.832596 376.084274 
L 206.229921 375.427052 
L 206.344746 373.803391 
L 204.738369 373.06454 
L 204.559026 371.637676 
L 204.155144 370.105041 
L 205.508648 368.753155 
L 204.178369 365.677187 
L 205.826086 363.405701 
L 203.440374 361.687064 
L 204.649325 360.114289 
L 203.742298 359.491858 
L 203.716472 357.350236 
L 200.72431 353.473834 
L 199.408245 346.837427 
L 198.494715 344.022488 
L 193.922003 343.737414 
L 190.322137 341.208946 
L 184.55975 332.120303 
L 180.2322 330.200871 
L 182.007608 329.91175 
L 181.919864 327.151696 
L 181.606327 325.710134 
L 178.587085 324.181498 
L 177.863256 322.224577 
L 178.354835 320.135141 
L 180.368949 318.946561 
L 178.605154 317.994868 
L 177.440051 318.456644 
L 175.645274 317.740537 
L 176.205227 316.149018 
L 174.832401 315.857197 
L 173.530504 315.430212 
L 174.644 313.983302 
L 173.979535 313.14003 
L 172.582136 313.061051 
L 173.896947 312.443969 
L 171.044134 310.947522 
L 172.424718 310.121646 
L 169.498375 308.178072 
L 169.957718 307.883601 
L 171.512488 308.77241 
L 173.375686 308.393612 
L 172.660869 307.134053 
L 173.147292 305.304248 
L 170.089357 304.499815 
L 172.793762 303.750218 
L 169.640326 300.816209 
L 170.334473 299.381297 
L 171.727969 298.820449 
L 169.761607 298.445651 
L 170.026092 297.506005 
L 169.011952 296.482031 
L 169.842894 295.729784 
L 169.633869 294.672369 
L 167.817168 294.198499 
L 169.689331 293.639 
L 171.053192 291.392956 
L 169.246802 291.378211 
L 169.922881 290.144094 
L 172.318951 287.987727 
L 170.049317 287.365344 
L 171.426045 286.368114 
L 170.333219 284.158211 
L 167.150101 281.598952 
L 168.610671 281.212107 
L 168.206836 279.269931 
L 166.877858 278.746572 
L 166.281721 279.152114 
L 166.543651 276.507179 
L 166.761734 275.294505 
L 165.534667 275.515346 
L 165.281794 274.747053 
L 165.634023 273.507539 
L 161.870282 271.124982 
L 161.755458 270.359339 
L 161.908975 268.609862 
L 160.169705 266.603453 
L 159.471657 266.437449 
L 158.580098 267.497562 
L 158.178817 266.055952 
L 160.773554 263.278551 
L 160.884523 261.246651 
L 159.076833 261.865034 
L 158.709135 261.012414 
L 159.60455 259.799692 
L 158.509122 258.965816 
L 158.842028 256.047806 
L 157.518207 256.549769 
L 156.107942 256.271345 
L 155.904073 255.051925 
L 154.309263 255.675706 
L 154.808599 254.279632 
L 153.651254 253.338637 
L 154.400909 252.121916 
L 152.333889 247.604386 
L 153.763477 247.046188 
L 153.095109 245.758536 
L 154.10414 244.557909 
L 152.13002 243.753427 
L 150.942947 242.943645 
L 151.259085 242.165955 
L 149.626882 241.749668 
L 150.219118 240.971978 
L 150.551978 239.638789 
L 149.33527 239.965401 
L 148.314673 239.281435 
L 149.989424 238.589373 
L 149.672032 237.474423 
L 148.892696 236.600359 
L 148.503027 237.428886 
L 147.999836 236.026115 
L 147.355994 234.233848 
L 146.307016 232.750749 
L 147.063081 231.946268 
L 146.09409 230.729546 
L 144.150952 230.941039 
L 144.553533 229.638641 
L 143.975464 227.210596 
L 141.972963 226.050061 
L 141.827157 224.770455 
L 139.595008 224.265793 
L 138.92534 222.685019 
L 137.680204 223.360986 
L 136.018367 223.248518 
L 135.628699 222.330315 
L 133.186178 222.084031 
L 131.052085 219.712123 
L 131.471434 216.895883 
L 132.27525 214.042154 
L 130.810778 213.127951 
L 131.303704 210.421432 
L 130.703711 210.515108 
L 129.564388 211.294147 
L 129.332138 209.722721 
L 127.501223 210.379943 
L 126.684495 210.159054 
L 126.749014 208.239622 
L 123.55944 207.905012 
L 115.363636 196.701539 
L 120.74021 177.67568 
L 138.304723 158.893503 
L 193.27556 164.413563 
L 233.070197 135.177461 
" clip-path="url(#peac7225500)" style="fill: #e0bd1f; stroke: #0000ff; stroke-width: 0.5"/>
   </g>
   <g id="PatchCollection_2">
    <path d="M 554.11491 343.779452 
L 399.134063 384.11996 
L 264.679556 308.35635 
L 383.901966 276.184029 
L 387.287641 281.89884 
L 391.783513 289.370618 
L 396.949599 297.997208 
L 397.789262 299.399298 
L 400.224669 301.34612 
L 402.422938 303.103372 
L 402.910399 303.532641 
L 406.045272 306.534558 
L 407.286771 310.368873 
L 410.433814 320.304384 
L 413.381115 331.149824 
L 414.71042 335.040713 
L 417.012895 341.604144 
L 554.11491 343.779452 
" clip-path="url(#peac7225500)" style="fill: none; stroke: #000000"/>
   </g>
   <g id="matplotlib.axis_1">
    <g id="xtick_1">
     <g id="line2d_1">
      <path d="M 166.672689 767.576792 
L 166.672689 105.063208 
" clip-path="url(#peac7225500)" style="fill: none; stroke: #b0b0b0; stroke-width: 0.8; stroke-linecap: square"/>
     </g>
     <g id="line2d_2">
      <defs>
       <path id="m782752962b" d="M 0 0 
L 0 3.5 
" style="stroke: #000000; stroke-width: 0.8"/>
      </defs>
      <g>
       <use xlink:href="#m782752962b" x="166.672689" y="767.576792" style="stroke: #000000; stroke-width: 0.8"/>
      </g>
     </g>
     <g id="text_1">
      <!-- −52.30 -->
      <g transform="translate(155.539624 806.118174) rotate(-45) scale(0.1 -0.1)">
       <defs>
        <path id="DejaVuSans-2212" d="M 678 2272 
L 4684 2272 
L 4684 1741 
L 678 1741 
L 678 2272 
z
" transform="scale(0.015625)"/>
        <path id="DejaVuSans-35" d="M 691 4666 
L 3169 4666 
L 3169 4134 
L 1269 4134 
L 1269 2991 
Q 1406 3038 1543 3061 
Q 1681 3084 1819 3084 
Q 2600 3084 3056 2656 
Q 3513 2228 3513 1497 
Q 3513 744 3044 326 
Q 2575 -91 1722 -91 
Q 1428 -91 1123 -41 
Q 819 9 494 109 
L 494 744 
Q 775 591 1075 516 
Q 1375 441 1709 441 
Q 2250 441 2565 725 
Q 2881 1009 2881 1497 
Q 2881 1984 2565 2268 
Q 2250 2553 1709 2553 
Q 1456 2553 1204 2497 
Q 953 2441 691 2322 
L 691 4666 
z
" transform="scale(0.015625)"/>
        <path id="DejaVuSans-32" d="M 1228 531 
L 3431 531 
L 3431 0 
L 469 0 
L 469 531 
Q 828 903 1448 1529 
Q 2069 2156 2228 2338 
Q 2531 2678 2651 2914 
Q 2772 3150 2772 3378 
Q 2772 3750 2511 3984 
Q 2250 4219 1831 4219 
Q 1534 4219 1204 4116 
Q 875 4013 500 3803 
L 500 4441 
Q 881 4594 1212 4672 
Q 1544 4750 1819 4750 
Q 2544 4750 2975 4387 
Q 3406 4025 3406 3419 
Q 3406 3131 3298 2873 
Q 3191 2616 2906 2266 
Q 2828 2175 2409 1742 
Q 1991 1309 1228 531 
z
" transform="scale(0.015625)"/>
        <path id="DejaVuSans-2e" d="M 684 794 
L 1344 794 
L 1344 0 
L 684 0 
L 684 794 
z
" transform="scale(0.015625)"/>
        <path id="DejaVuSans-33" d="M 2597 2516 
Q 3050 2419 3304 2112 
Q 3559 1806 3559 1356 
Q 3559 666 3084 287 
Q 2609 -91 1734 -91 
Q 1441 -91 1130 -33 
Q 819 25 488 141 
L 488 750 
Q 750 597 1062 519 
Q 1375 441 1716 441 
Q 2309 441 2620 675 
Q 2931 909 2931 1356 
Q 2931 1769 2642 2001 
Q 2353 2234 1838 2234 
L 1294 2234 
L 1294 2753 
L 1863 2753 
Q 2328 2753 2575 2939 
Q 2822 3125 2822 3475 
Q 2822 3834 2567 4026 
Q 2313 4219 1838 4219 
Q 1578 4219 1281 4162 
Q 984 4106 628 3988 
L 628 4550 
Q 988 4650 1302 4700 
Q 1616 4750 1894 4750 
Q 2613 4750 3031 4423 
Q 3450 4097 3450 3541 
Q 3450 3153 3228 2886 
Q 3006 2619 2597 2516 
z
" transform="scale(0.015625)"/>
        <path id="DejaVuSans-30" d="M 2034 4250 
Q 1547 4250 1301 3770 
Q 1056 3291 1056 2328 
Q 1056 1369 1301 889 
Q 1547 409 2034 409 
Q 2525 409 2770 889 
Q 3016 1369 3016 2328 
Q 3016 3291 2770 3770 
Q 2525 4250 2034 4250 
z
M 2034 4750 
Q 2819 4750 3233 4129 
Q 3647 3509 3647 2328 
Q 3647 1150 3233 529 
Q 2819 -91 2034 -91 
Q 1250 -91 836 529 
Q 422 1150 422 2328 
Q 422 3509 836 4129 
Q 1250 4750 2034 4750 
z
" transform="scale(0.015625)"/>
       </defs>
       <use xlink:href="#DejaVuSans-2212"/>
       <use xlink:href="#DejaVuSans-35" transform="translate(83.789062 0)"/>
       <use xlink:href="#DejaVuSans-32" transform="translate(147.412109 0)"/>
       <use xlink:href="#DejaVuSans-2e" transform="translate(211.035156 0)"/>
       <use xlink:href="#DejaVuSans-33" transform="translate(242.822266 0)"/>
       <use xlink:href="#DejaVuSans-30" transform="translate(306.445312 0)"/>
      </g>
     </g>
    </g>
    <g id="xtick_2">
     <g id="line2d_3">
      <path d="M 259.572457 767.576792 
L 259.572457 105.063208 
" clip-path="url(#peac7225500)" style="fill: none; stroke: #b0b0b0; stroke-width: 0.8; stroke-linecap: square"/>
     </g>
     <g id="line2d_4">
      <g>
       <use xlink:href="#m782752962b" x="259.572457" y="767.576792" style="stroke: #000000; stroke-width: 0.8"/>
      </g>
     </g>
     <g id="text_2">
      <!-- −52.28 -->
      <g transform="translate(248.439393 806.118174) rotate(-45) scale(0.1 -0.1)">
       <defs>
        <path id="DejaVuSans-38" d="M 2034 2216 
Q 1584 2216 1326 1975 
Q 1069 1734 1069 1313 
Q 1069 891 1326 650 
Q 1584 409 2034 409 
Q 2484 409 2743 651 
Q 3003 894 3003 1313 
Q 3003 1734 2745 1975 
Q 2488 2216 2034 2216 
z
M 1403 2484 
Q 997 2584 770 2862 
Q 544 3141 544 3541 
Q 544 4100 942 4425 
Q 1341 4750 2034 4750 
Q 2731 4750 3128 4425 
Q 3525 4100 3525 3541 
Q 3525 3141 3298 2862 
Q 3072 2584 2669 2484 
Q 3125 2378 3379 2068 
Q 3634 1759 3634 1313 
Q 3634 634 3220 271 
Q 2806 -91 2034 -91 
Q 1263 -91 848 271 
Q 434 634 434 1313 
Q 434 1759 690 2068 
Q 947 2378 1403 2484 
z
M 1172 3481 
Q 1172 3119 1398 2916 
Q 1625 2713 2034 2713 
Q 2441 2713 2670 2916 
Q 2900 3119 2900 3481 
Q 2900 3844 2670 4047 
Q 2441 4250 2034 4250 
Q 1625 4250 1398 4047 
Q 1172 3844 1172 3481 
z
" transform="scale(0.015625)"/>
       </defs>
       <use xlink:href="#DejaVuSans-2212"/>
       <use xlink:href="#DejaVuSans-35" transform="translate(83.789062 0)"/>
       <use xlink:href="#DejaVuSans-32" transform="translate(147.412109 0)"/>
       <use xlink:href="#DejaVuSans-2e" transform="translate(211.035156 0)"/>
       <use xlink:href="#DejaVuSans-32" transform="translate(242.822266 0)"/>
       <use xlink:href="#DejaVuSans-38" transform="translate(306.445312 0)"/>
      </g>
     </g>
    </g>
    <g id="xtick_3">
     <g id="line2d_5">
      <path d="M 352.472225 767.576792 
L 352.472225 105.063208 
" clip-path="url(#peac7225500)" style="fill: none; stroke: #b0b0b0; stroke-width: 0.8; stroke-linecap: square"/>
     </g>
     <g id="line2d_6">
      <g>
       <use xlink:href="#m782752962b" x="352.472225" y="767.576792" style="stroke: #000000; stroke-width: 0.8"/>
      </g>
     </g>
     <g id="text_3">
      <!-- −52.26 -->
      <g transform="translate(341.339161 806.118174) rotate(-45) scale(0.1 -0.1)">
       <defs>
        <path id="DejaVuSans-36" d="M 2113 2584 
Q 1688 2584 1439 2293 
Q 1191 2003 1191 1497 
Q 1191 994 1439 701 
Q 1688 409 2113 409 
Q 2538 409 2786 701 
Q 3034 994 3034 1497 
Q 3034 2003 2786 2293 
Q 2538 2584 2113 2584 
z
M 3366 4563 
L 3366 3988 
Q 3128 4100 2886 4159 
Q 2644 4219 2406 4219 
Q 1781 4219 1451 3797 
Q 1122 3375 1075 2522 
Q 1259 2794 1537 2939 
Q 1816 3084 2150 3084 
Q 2853 3084 3261 2657 
Q 3669 2231 3669 1497 
Q 3669 778 3244 343 
Q 2819 -91 2113 -91 
Q 1303 -91 875 529 
Q 447 1150 447 2328 
Q 447 3434 972 4092 
Q 1497 4750 2381 4750 
Q 2619 4750 2861 4703 
Q 3103 4656 3366 4563 
z
" transform="scale(0.015625)"/>
       </defs>
       <use xlink:href="#DejaVuSans-2212"/>
       <use xlink:href="#DejaVuSans-35" transform="translate(83.789062 0)"/>
       <use xlink:href="#DejaVuSans-32" transform="translate(147.412109 0)"/>
       <use xlink:href="#DejaVuSans-2e" transform="translate(211.035156 0)"/>
       <use xlink:href="#DejaVuSans-32" transform="translate(242.822266 0)"/>
       <use xlink:href="#DejaVuSans-36" transform="translate(306.445312 0)"/>
      </g>
     </g>
    </g>
    <g id="xtick_4">
     <g id="line2d_7">
      <path d="M 445.371994 767.576792 
L 445.371994 105.063208 
" clip-path="url(#peac7225500)" style="fill: none; stroke: #b0b0b0; stroke-width: 0.8; stroke-linecap: square"/>
     </g>
     <g id="line2d_8">
      <g>
       <use xlink:href="#m782752962b" x="445.371994" y="767.576792" style="stroke: #000000; stroke-width: 0.8"/>
      </g>
     </g>
     <g id="text_4">
      <!-- −52.24 -->
      <g transform="translate(434.238929 806.118174) rotate(-45) scale(0.1 -0.1)">
       <defs>
        <path id="DejaVuSans-34" d="M 2419 4116 
L 825 1625 
L 2419 1625 
L 2419 4116 
z
M 2253 4666 
L 3047 4666 
L 3047 1625 
L 3713 1625 
L 3713 1100 
L 3047 1100 
L 3047 0 
L 2419 0 
L 2419 1100 
L 313 1100 
L 313 1709 
L 2253 4666 
z
" transform="scale(0.015625)"/>
       </defs>
       <use xlink:href="#DejaVuSans-2212"/>
       <use xlink:href="#DejaVuSans-35" transform="translate(83.789062 0)"/>
       <use xlink:href="#DejaVuSans-32" transform="translate(147.412109 0)"/>
       <use xlink:href="#DejaVuSans-2e" transform="translate(211.035156 0)"/>
       <use xlink:href="#DejaVuSans-32" transform="translate(242.822266 0)"/>
       <use xlink:href="#DejaVuSans-34" transform="translate(306.445312 0)"/>
      </g>
     </g>
    </g>
    <g id="xtick_5">
     <g id="line2d_9">
      <path d="M 538.271762 767.576792 
L 538.271762 105.063208 
" clip-path="url(#peac7225500)" style="fill: none; stroke: #b0b0b0; stroke-width: 0.8; stroke-linecap: square"/>
     </g>
     <g id="line2d_10">
      <g>
       <use xlink:href="#m782752962b" x="538.271762" y="767.576792" style="stroke: #000000; stroke-width: 0.8"/>
      </g>
     </g>
     <g id="text_5">
      <!-- −52.22 -->
      <g transform="translate(527.138697 806.118174) rotate(-45) scale(0.1 -0.1)">
       <use xlink:href="#DejaVuSans-2212"/>
       <use xlink:href="#DejaVuSans-35" transform="translate(83.789062 0)"/>
       <use xlink:href="#DejaVuSans-32" transform="translate(147.412109 0)"/>
       <use xlink:href="#DejaVuSans-2e" transform="translate(211.035156 0)"/>
       <use xlink:href="#DejaVuSans-32" transform="translate(242.822266 0)"/>
       <use xlink:href="#DejaVuSans-32" transform="translate(306.445312 0)"/>
      </g>
     </g>
    </g>
    <g id="xtick_6">
     <g id="line2d_11">
      <path d="M 631.17153 767.576792 
L 631.17153 105.063208 
" clip-path="url(#peac7225500)" style="fill: none; stroke: #b0b0b0; stroke-width: 0.8; stroke-linecap: square"/>
     </g>
     <g id="line2d_12">
      <g>
       <use xlink:href="#m782752962b" x="631.17153" y="767.576792" style="stroke: #000000; stroke-width: 0.8"/>
      </g>
     </g>
     <g id="text_6">
      <!-- −52.20 -->
      <g transform="translate(620.038465 806.118174) rotate(-45) scale(0.1 -0.1)">
       <use xlink:href="#DejaVuSans-2212"/>
       <use xlink:href="#DejaVuSans-35" transform="translate(83.789062 0)"/>
       <use xlink:href="#DejaVuSans-32" transform="translate(147.412109 0)"/>
       <use xlink:href="#DejaVuSans-2e" transform="translate(211.035156 0)"/>
       <use xlink:href="#DejaVuSans-32" transform="translate(242.822266 0)"/>
       <use xlink:href="#DejaVuSans-30" transform="translate(306.445312 0)"/>
      </g>
     </g>
    </g>
    <g id="text_7">
     <!-- Longitude (°) -->
     <g transform="translate(336.139844 819.187173) scale(0.1 -0.1)">
      <defs>
       <path id="DejaVuSans-4c" d="M 628 4666 
L 1259 4666 
L 1259 531 
L 3531 531 
L 3531 0 
L 628 0 
L 628 4666 
z
" transform="scale(0.015625)"/>
       <path id="DejaVuSans-6f" d="M 1959 3097 
Q 1497 3097 1228 2736 
Q 959 2375 959 1747 
Q 959 1119 1226 758 
Q 1494 397 1959 397 
Q 2419 397 2687 759 
Q 2956 1122 2956 1747 
Q 2956 2369 2687 2733 
Q 2419 3097 1959 3097 
z
M 1959 3584 
Q 2709 3584 3137 3096 
Q 3566 2609 3566 1747 
Q 3566 888 3137 398 
Q 2709 -91 1959 -91 
Q 1206 -91 779 398 
Q 353 888 353 1747 
Q 353 2609 779 3096 
Q 1206 3584 1959 3584 
z
" transform="scale(0.015625)"/>
       <path id="DejaVuSans-6e" d="M 3513 2113 
L 3513 0 
L 2938 0 
L 2938 2094 
Q 2938 2591 2744 2837 
Q 2550 3084 2163 3084 
Q 1697 3084 1428 2787 
Q 1159 2491 1159 1978 
L 1159 0 
L 581 0 
L 581 3500 
L 1159 3500 
L 1159 2956 
Q 1366 3272 1645 3428 
Q 1925 3584 2291 3584 
Q 2894 3584 3203 3211 
Q 3513 2838 3513 2113 
z
" transform="scale(0.015625)"/>
       <path id="DejaVuSans-67" d="M 2906 1791 
Q 2906 2416 2648 2759 
Q 2391 3103 1925 3103 
Q 1463 3103 1205 2759 
Q 947 2416 947 1791 
Q 947 1169 1205 825 
Q 1463 481 1925 481 
Q 2391 481 2648 825 
Q 2906 1169 2906 1791 
z
M 3481 434 
Q 3481 -459 3084 -895 
Q 2688 -1331 1869 -1331 
Q 1566 -1331 1297 -1286 
Q 1028 -1241 775 -1147 
L 775 -588 
Q 1028 -725 1275 -790 
Q 1522 -856 1778 -856 
Q 2344 -856 2625 -561 
Q 2906 -266 2906 331 
L 2906 616 
Q 2728 306 2450 153 
Q 2172 0 1784 0 
Q 1141 0 747 490 
Q 353 981 353 1791 
Q 353 2603 747 3093 
Q 1141 3584 1784 3584 
Q 2172 3584 2450 3431 
Q 2728 3278 2906 2969 
L 2906 3500 
L 3481 3500 
L 3481 434 
z
" transform="scale(0.015625)"/>
       <path id="DejaVuSans-69" d="M 603 3500 
L 1178 3500 
L 1178 0 
L 603 0 
L 603 3500 
z
M 603 4863 
L 1178 4863 
L 1178 4134 
L 603 4134 
L 603 4863 
z
" transform="scale(0.015625)"/>
       <path id="DejaVuSans-74" d="M 1172 4494 
L 1172 3500 
L 2356 3500 
L 2356 3053 
L 1172 3053 
L 1172 1153 
Q 1172 725 1289 603 
Q 1406 481 1766 481 
L 2356 481 
L 2356 0 
L 1766 0 
Q 1100 0 847 248 
Q 594 497 594 1153 
L 594 3053 
L 172 3053 
L 172 3500 
L 594 3500 
L 594 4494 
L 1172 4494 
z
" transform="scale(0.015625)"/>
       <path id="DejaVuSans-75" d="M 544 1381 
L 544 3500 
L 1119 3500 
L 1119 1403 
Q 1119 906 1312 657 
Q 1506 409 1894 409 
Q 2359 409 2629 706 
Q 2900 1003 2900 1516 
L 2900 3500 
L 3475 3500 
L 3475 0 
L 2900 0 
L 2900 538 
Q 2691 219 2414 64 
Q 2138 -91 1772 -91 
Q 1169 -91 856 284 
Q 544 659 544 1381 
z
M 1991 3584 
L 1991 3584 
z
" transform="scale(0.015625)"/>
       <path id="DejaVuSans-64" d="M 2906 2969 
L 2906 4863 
L 3481 4863 
L 3481 0 
L 2906 0 
L 2906 525 
Q 2725 213 2448 61 
Q 2172 -91 1784 -91 
Q 1150 -91 751 415 
Q 353 922 353 1747 
Q 353 2572 751 3078 
Q 1150 3584 1784 3584 
Q 2172 3584 2448 3432 
Q 2725 3281 2906 2969 
z
M 947 1747 
Q 947 1113 1208 752 
Q 1469 391 1925 391 
Q 2381 391 2643 752 
Q 2906 1113 2906 1747 
Q 2906 2381 2643 2742 
Q 2381 3103 1925 3103 
Q 1469 3103 1208 2742 
Q 947 2381 947 1747 
z
" transform="scale(0.015625)"/>
       <path id="DejaVuSans-65" d="M 3597 1894 
L 3597 1613 
L 953 1613 
Q 991 1019 1311 708 
Q 1631 397 2203 397 
Q 2534 397 2845 478 
Q 3156 559 3463 722 
L 3463 178 
Q 3153 47 2828 -22 
Q 2503 -91 2169 -91 
Q 1331 -91 842 396 
Q 353 884 353 1716 
Q 353 2575 817 3079 
Q 1281 3584 2069 3584 
Q 2775 3584 3186 3129 
Q 3597 2675 3597 1894 
z
M 3022 2063 
Q 3016 2534 2758 2815 
Q 2500 3097 2075 3097 
Q 1594 3097 1305 2825 
Q 1016 2553 972 2059 
L 3022 2063 
z
" transform="scale(0.015625)"/>
       <path id="DejaVuSans-20" transform="scale(0.015625)"/>
       <path id="DejaVuSans-28" d="M 1984 4856 
Q 1566 4138 1362 3434 
Q 1159 2731 1159 2009 
Q 1159 1288 1364 580 
Q 1569 -128 1984 -844 
L 1484 -844 
Q 1016 -109 783 600 
Q 550 1309 550 2009 
Q 550 2706 781 3412 
Q 1013 4119 1484 4856 
L 1984 4856 
z
" transform="scale(0.015625)"/>
       <path id="DejaVuSans-b0" d="M 1600 4347 
Q 1350 4347 1178 4173 
Q 1006 4000 1006 3750 
Q 1006 3503 1178 3333 
Q 1350 3163 1600 3163 
Q 1850 3163 2022 3333 
Q 2194 3503 2194 3750 
Q 2194 3997 2020 4172 
Q 1847 4347 1600 4347 
z
M 1600 4750 
Q 1800 4750 1984 4673 
Q 2169 4597 2303 4453 
Q 2447 4313 2519 4134 
Q 2591 3956 2591 3750 
Q 2591 3338 2302 3052 
Q 2013 2766 1594 2766 
Q 1172 2766 890 3047 
Q 609 3328 609 3750 
Q 609 4169 896 4459 
Q 1184 4750 1600 4750 
z
" transform="scale(0.015625)"/>
       <path id="DejaVuSans-29" d="M 513 4856 
L 1013 4856 
Q 1481 4119 1714 3412 
Q 1947 2706 1947 2009 
Q 1947 1309 1714 600 
Q 1481 -109 1013 -844 
L 513 -844 
Q 928 -128 1133 580 
Q 1338 1288 1338 2009 
Q 1338 2731 1133 3434 
Q 928 4138 513 4856 
z
" transform="scale(0.015625)"/>
      </defs>
      <use xlink:href="#DejaVuSans-4c"/>
      <use xlink:href="#DejaVuSans-6f" transform="translate(53.962891 0)"/>
      <use xlink:href="#DejaVuSans-6e" transform="translate(115.144531 0)"/>
      <use xlink:href="#DejaVuSans-67" transform="translate(178.523438 0)"/>
      <use xlink:href="#DejaVuSans-69" transform="translate(242 0)"/>
      <use xlink:href="#DejaVuSans-74" transform="translate(269.783203 0)"/>
      <use xlink:href="#DejaVuSans-75" transform="translate(308.992188 0)"/>
      <use xlink:href="#DejaVuSans-64" transform="translate(372.371094 0)"/>
      <use xlink:href="#DejaVuSans-65" transform="translate(435.847656 0)"/>
      <use xlink:href="#DejaVuSans-20" transform="translate(497.371094 0)"/>
      <use xlink:href="#DejaVuSans-28" transform="translate(529.158203 0)"/>
      <use xlink:href="#DejaVuSans-b0" transform="translate(568.171875 0)"/>
      <use xlink:href="#DejaVuSans-29" transform="translate(618.171875 0)"/>
     </g>
    </g>
   </g>
   <g id="matplotlib.axis_2">
    <g id="ytick_1">
     <g id="line2d_13">
      <path d="M 90 758.312756 
L 648 758.312756 
" clip-path="url(#peac7225500)" style="fill: none; stroke: #b0b0b0; stroke-width: 0.8; stroke-linecap: square"/>
     </g>
     <g id="line2d_14">
      <defs>
       <path id="m839d4b97f2" d="M 0 0 
L -3.5 0 
" style="stroke: #000000; stroke-width: 0.8"/>
      </defs>
      <g>
       <use xlink:href="#m839d4b97f2" x="90" y="758.312756" style="stroke: #000000; stroke-width: 0.8"/>
      </g>
     </g>
     <g id="text_8">
      <!-- −15.52 -->
      <g transform="translate(45.992188 762.111975) scale(0.1 -0.1)">
       <defs>
        <path id="DejaVuSans-31" d="M 794 531 
L 1825 531 
L 1825 4091 
L 703 3866 
L 703 4441 
L 1819 4666 
L 2450 4666 
L 2450 531 
L 3481 531 
L 3481 0 
L 794 0 
L 794 531 
z
" transform="scale(0.015625)"/>
       </defs>
       <use xlink:href="#DejaVuSans-2212"/>
       <use xlink:href="#DejaVuSans-31" transform="translate(83.789062 0)"/>
       <use xlink:href="#DejaVuSans-35" transform="translate(147.412109 0)"/>
       <use xlink:href="#DejaVuSans-2e" transform="translate(211.035156 0)"/>
       <use xlink:href="#DejaVuSans-35" transform="translate(242.822266 0)"/>
       <use xlink:href="#DejaVuSans-32" transform="translate(306.445312 0)"/>
      </g>
     </g>
    </g>
    <g id="ytick_2">
     <g id="line2d_15">
      <path d="M 90 661.938794 
L 648 661.938794 
" clip-path="url(#peac7225500)" style="fill: none; stroke: #b0b0b0; stroke-width: 0.8; stroke-linecap: square"/>
     </g>
     <g id="line2d_16">
      <g>
       <use xlink:href="#m839d4b97f2" x="90" y="661.938794" style="stroke: #000000; stroke-width: 0.8"/>
      </g>
     </g>
     <g id="text_9">
      <!-- −15.50 -->
      <g transform="translate(45.992188 665.738013) scale(0.1 -0.1)">
       <use xlink:href="#DejaVuSans-2212"/>
       <use xlink:href="#DejaVuSans-31" transform="translate(83.789062 0)"/>
       <use xlink:href="#DejaVuSans-35" transform="translate(147.412109 0)"/>
       <use xlink:href="#DejaVuSans-2e" transform="translate(211.035156 0)"/>
       <use xlink:href="#DejaVuSans-35" transform="translate(242.822266 0)"/>
       <use xlink:href="#DejaVuSans-30" transform="translate(306.445312 0)"/>
      </g>
     </g>
    </g>
    <g id="ytick_3">
     <g id="line2d_17">
      <path d="M 90 565.564832 
L 648 565.564832 
" clip-path="url(#peac7225500)" style="fill: none; stroke: #b0b0b0; stroke-width: 0.8; stroke-linecap: square"/>
     </g>
     <g id="line2d_18">
      <g>
       <use xlink:href="#m839d4b97f2" x="90" y="565.564832" style="stroke: #000000; stroke-width: 0.8"/>
      </g>
     </g>
     <g id="text_10">
      <!-- −15.48 -->
      <g transform="translate(45.992188 569.364051) scale(0.1 -0.1)">
       <use xlink:href="#DejaVuSans-2212"/>
       <use xlink:href="#DejaVuSans-31" transform="translate(83.789062 0)"/>
       <use xlink:href="#DejaVuSans-35" transform="translate(147.412109 0)"/>
       <use xlink:href="#DejaVuSans-2e" transform="translate(211.035156 0)"/>
       <use xlink:href="#DejaVuSans-34" transform="translate(242.822266 0)"/>
       <use xlink:href="#DejaVuSans-38" transform="translate(306.445312 0)"/>
      </g>
     </g>
    </g>
    <g id="ytick_4">
     <g id="line2d_19">
      <path d="M 90 469.19087 
L 648 469.19087 
" clip-path="url(#peac7225500)" style="fill: none; stroke: #b0b0b0; stroke-width: 0.8; stroke-linecap: square"/>
     </g>
     <g id="line2d_20">
      <g>
       <use xlink:href="#m839d4b97f2" x="90" y="469.19087" style="stroke: #000000; stroke-width: 0.8"/>
      </g>
     </g>
     <g id="text_11">
      <!-- −15.46 -->
      <g transform="translate(45.992188 472.990088) scale(0.1 -0.1)">
       <use xlink:href="#DejaVuSans-2212"/>
       <use xlink:href="#DejaVuSans-31" transform="translate(83.789062 0)"/>
       <use xlink:href="#DejaVuSans-35" transform="translate(147.412109 0)"/>
       <use xlink:href="#DejaVuSans-2e" transform="translate(211.035156 0)"/>
       <use xlink:href="#DejaVuSans-34" transform="translate(242.822266 0)"/>
       <use xlink:href="#DejaVuSans-36" transform="translate(306.445312 0)"/>
      </g>
     </g>
    </g>
    <g id="ytick_5">
     <g id="line2d_21">
      <path d="M 90 372.816907 
L 648 372.816907 
" clip-path="url(#peac7225500)" style="fill: none; stroke: #b0b0b0; stroke-width: 0.8; stroke-linecap: square"/>
     </g>
     <g id="line2d_22">
      <g>
       <use xlink:href="#m839d4b97f2" x="90" y="372.816907" style="stroke: #000000; stroke-width: 0.8"/>
      </g>
     </g>
     <g id="text_12">
      <!-- −15.44 -->
      <g transform="translate(45.992188 376.616126) scale(0.1 -0.1)">
       <use xlink:href="#DejaVuSans-2212"/>
       <use xlink:href="#DejaVuSans-31" transform="translate(83.789062 0)"/>
       <use xlink:href="#DejaVuSans-35" transform="translate(147.412109 0)"/>
       <use xlink:href="#DejaVuSans-2e" transform="translate(211.035156 0)"/>
       <use xlink:href="#DejaVuSans-34" transform="translate(242.822266 0)"/>
       <use xlink:href="#DejaVuSans-34" transform="translate(306.445312 0)"/>
      </g>
     </g>
    </g>
    <g id="ytick_6">
     <g id="line2d_23">
      <path d="M 90 276.442945 
L 648 276.442945 
" clip-path="url(#peac7225500)" style="fill: none; stroke: #b0b0b0; stroke-width: 0.8; stroke-linecap: square"/>
     </g>
     <g id="line2d_24">
      <g>
       <use xlink:href="#m839d4b97f2" x="90" y="276.442945" style="stroke: #000000; stroke-width: 0.8"/>
      </g>
     </g>
     <g id="text_13">
      <!-- −15.42 -->
      <g transform="translate(45.992188 280.242164) scale(0.1 -0.1)">
       <use xlink:href="#DejaVuSans-2212"/>
       <use xlink:href="#DejaVuSans-31" transform="translate(83.789062 0)"/>
       <use xlink:href="#DejaVuSans-35" transform="translate(147.412109 0)"/>
       <use xlink:href="#DejaVuSans-2e" transform="translate(211.035156 0)"/>
       <use xlink:href="#DejaVuSans-34" transform="translate(242.822266 0)"/>
       <use xlink:href="#DejaVuSans-32" transform="translate(306.445312 0)"/>
      </g>
     </g>
    </g>
    <g id="ytick_7">
     <g id="line2d_25">
      <path d="M 90 180.068983 
L 648 180.068983 
" clip-path="url(#peac7225500)" style="fill: none; stroke: #b0b0b0; stroke-width: 0.8; stroke-linecap: square"/>
     </g>
     <g id="line2d_26">
      <g>
       <use xlink:href="#m839d4b97f2" x="90" y="180.068983" style="stroke: #000000; stroke-width: 0.8"/>
      </g>
     </g>
     <g id="text_14">
      <!-- −15.40 -->
      <g transform="translate(45.992188 183.868202) scale(0.1 -0.1)">
       <use xlink:href="#DejaVuSans-2212"/>
       <use xlink:href="#DejaVuSans-31" transform="translate(83.789062 0)"/>
       <use xlink:href="#DejaVuSans-35" transform="translate(147.412109 0)"/>
       <use xlink:href="#DejaVuSans-2e" transform="translate(211.035156 0)"/>
       <use xlink:href="#DejaVuSans-34" transform="translate(242.822266 0)"/>
       <use xlink:href="#DejaVuSans-30" transform="translate(306.445312 0)"/>
      </g>
     </g>
    </g>
    <g id="text_15">
     <!-- Latitude (°) -->
     <g transform="translate(39.9125 464.889531) rotate(-90) scale(0.1 -0.1)">
      <defs>
       <path id="DejaVuSans-61" d="M 2194 1759 
Q 1497 1759 1228 1600 
Q 959 1441 959 1056 
Q 959 750 1161 570 
Q 1363 391 1709 391 
Q 2188 391 2477 730 
Q 2766 1069 2766 1631 
L 2766 1759 
L 2194 1759 
z
M 3341 1997 
L 3341 0 
L 2766 0 
L 2766 531 
Q 2569 213 2275 61 
Q 1981 -91 1556 -91 
Q 1019 -91 701 211 
Q 384 513 384 1019 
Q 384 1609 779 1909 
Q 1175 2209 1959 2209 
L 2766 2209 
L 2766 2266 
Q 2766 2663 2505 2880 
Q 2244 3097 1772 3097 
Q 1472 3097 1187 3025 
Q 903 2953 641 2809 
L 641 3341 
Q 956 3463 1253 3523 
Q 1550 3584 1831 3584 
Q 2591 3584 2966 3190 
Q 3341 2797 3341 1997 
z
" transform="scale(0.015625)"/>
      </defs>
      <use xlink:href="#DejaVuSans-4c"/>
      <use xlink:href="#DejaVuSans-61" transform="translate(55.712891 0)"/>
      <use xlink:href="#DejaVuSans-74" transform="translate(116.992188 0)"/>
      <use xlink:href="#DejaVuSans-69" transform="translate(156.201172 0)"/>
      <use xlink:href="#DejaVuSans-74" transform="translate(183.984375 0)"/>
      <use xlink:href="#DejaVuSans-75" transform="translate(223.193359 0)"/>
      <use xlink:href="#DejaVuSans-64" transform="translate(286.572266 0)"/>
      <use xlink:href="#DejaVuSans-65" transform="translate(350.048828 0)"/>
      <use xlink:href="#DejaVuSans-20" transform="translate(411.572266 0)"/>
      <use xlink:href="#DejaVuSans-28" transform="translate(443.359375 0)"/>
      <use xlink:href="#DejaVuSans-b0" transform="translate(482.373047 0)"/>
      <use xlink:href="#DejaVuSans-29" transform="translate(532.373047 0)"/>
     </g>
    </g>
   </g>
   <g id="patch_3">
    <path d="M 90 767.576792 
L 90 105.063208 
" style="fill: none; stroke: #000000; stroke-width: 0.8; stroke-linejoin: miter; stroke-linecap: square"/>
   </g>
   <g id="patch_4">
    <path d="M 648 767.576792 
L 648 105.063208 
" style="fill: none; stroke: #000000; stroke-width: 0.8; stroke-linejoin: miter; stroke-linecap: square"/>
   </g>
   <g id="patch_5">
    <path d="M 90 767.576792 
L 648 767.576792 
" style="fill: none; stroke: #000000; stroke-width: 0.8; stroke-linejoin: miter; stroke-linecap: square"/>
   </g>
   <g id="patch_6">
    <path d="M 90 105.063208 
L 648 105.063208 
" style="fill: none; stroke: #000000; stroke-width: 0.8; stroke-linejoin: miter; stroke-linecap: square"/>
   </g>
   <g id="legend_1">
    <g id="patch_7">
     <path d="M 279.8375 939.371384 
L 458.1625 939.371384 
Q 460.1625 939.371384 460.1625 937.371384 
L 460.1625 907.079509 
Q 460.1625 905.079509 458.1625 905.079509 
L 279.8375 905.079509 
Q 277.8375 905.079509 277.8375 907.079509 
L 277.8375 937.371384 
Q 277.8375 939.371384 279.8375 939.371384 
z
" style="fill: #ffffff; opacity: 0.8; stroke: #cccccc; stroke-linejoin: miter"/>
    </g>
    <g id="text_16">
     <!-- Legenda -->
     <g transform="translate(343.280625 918.197634) scale(0.12 -0.12)">
      <use xlink:href="#DejaVuSans-4c"/>
      <use xlink:href="#DejaVuSans-65" transform="translate(53.962891 0)"/>
      <use xlink:href="#DejaVuSans-67" transform="translate(115.486328 0)"/>
      <use xlink:href="#DejaVuSans-65" transform="translate(178.962891 0)"/>
      <use xlink:href="#DejaVuSans-6e" transform="translate(240.486328 0)"/>
      <use xlink:href="#DejaVuSans-64" transform="translate(303.865234 0)"/>
      <use xlink:href="#DejaVuSans-61" transform="translate(367.341797 0)"/>
     </g>
    </g>
    <g id="patch_8">
     <path style="fill: none; stroke: #000000; stroke-linejoin: miter"/>
    </g>
    <g id="text_17">
     <!-- Gleba Federal -->
     <g transform="translate(309.8375 933.291697) scale(0.1 -0.1)">
      <defs>
       <path id="DejaVuSans-47" d="M 3809 666 
L 3809 1919 
L 2778 1919 
L 2778 2438 
L 4434 2438 
L 4434 434 
Q 4069 175 3628 42 
Q 3188 -91 2688 -91 
Q 1594 -91 976 548 
Q 359 1188 359 2328 
Q 359 3472 976 4111 
Q 1594 4750 2688 4750 
Q 3144 4750 3555 4637 
Q 3966 4525 4313 4306 
L 4313 3634 
Q 3963 3931 3569 4081 
Q 3175 4231 2741 4231 
Q 1884 4231 1454 3753 
Q 1025 3275 1025 2328 
Q 1025 1384 1454 906 
Q 1884 428 2741 428 
Q 3075 428 3337 486 
Q 3600 544 3809 666 
z
" transform="scale(0.015625)"/>
       <path id="DejaVuSans-6c" d="M 603 4863 
L 1178 4863 
L 1178 0 
L 603 0 
L 603 4863 
z
" transform="scale(0.015625)"/>
       <path id="DejaVuSans-62" d="M 3116 1747 
Q 3116 2381 2855 2742 
Q 2594 3103 2138 3103 
Q 1681 3103 1420 2742 
Q 1159 2381 1159 1747 
Q 1159 1113 1420 752 
Q 1681 391 2138 391 
Q 2594 391 2855 752 
Q 3116 1113 3116 1747 
z
M 1159 2969 
Q 1341 3281 1617 3432 
Q 1894 3584 2278 3584 
Q 2916 3584 3314 3078 
Q 3713 2572 3713 1747 
Q 3713 922 3314 415 
Q 2916 -91 2278 -91 
Q 1894 -91 1617 61 
Q 1341 213 1159 525 
L 1159 0 
L 581 0 
L 581 4863 
L 1159 4863 
L 1159 2969 
z
" transform="scale(0.015625)"/>
       <path id="DejaVuSans-46" d="M 628 4666 
L 3309 4666 
L 3309 4134 
L 1259 4134 
L 1259 2759 
L 3109 2759 
L 3109 2228 
L 1259 2228 
L 1259 0 
L 628 0 
L 628 4666 
z
" transform="scale(0.015625)"/>
       <path id="DejaVuSans-72" d="M 2631 2963 
Q 2534 3019 2420 3045 
Q 2306 3072 2169 3072 
Q 1681 3072 1420 2755 
Q 1159 2438 1159 1844 
L 1159 0 
L 581 0 
L 581 3500 
L 1159 3500 
L 1159 2956 
Q 1341 3275 1631 3429 
Q 1922 3584 2338 3584 
Q 2397 3584 2469 3576 
Q 2541 3569 2628 3553 
L 2631 2963 
z
" transform="scale(0.015625)"/>
      </defs>
      <use xlink:href="#DejaVuSans-47"/>
      <use xlink:href="#DejaVuSans-6c" transform="translate(77.490234 0)"/>
      <use xlink:href="#DejaVuSans-65" transform="translate(105.273438 0)"/>
      <use xlink:href="#DejaVuSans-62" transform="translate(166.796875 0)"/>
      <use xlink:href="#DejaVuSans-61" transform="translate(230.273438 0)"/>
      <use xlink:href="#DejaVuSans-20" transform="translate(291.552734 0)"/>
      <use xlink:href="#DejaVuSans-46" transform="translate(323.339844 0)"/>
      <use xlink:href="#DejaVuSans-65" transform="translate(375.359375 0)"/>
      <use xlink:href="#DejaVuSans-64" transform="translate(436.882812 0)"/>
      <use xlink:href="#DejaVuSans-65" transform="translate(500.359375 0)"/>
      <use xlink:href="#DejaVuSans-72" transform="translate(561.882812 0)"/>
      <use xlink:href="#DejaVuSans-61" transform="translate(602.996094 0)"/>
      <use xlink:href="#DejaVuSans-6c" transform="translate(664.275391 0)"/>
     </g>
    </g>
    <g id="patch_9">
     <path d="M 399.045312 933.291697 
L 419.045312 933.291697 
L 419.045312 926.291697 
L 399.045312 926.291697 
z
" style="fill: #e0bd1f; opacity: 0.6"/>
    </g>
    <g id="text_18">
     <!-- SIGEF -->
     <g transform="translate(427.045312 933.291697) scale(0.1 -0.1)">
      <defs>
       <path id="DejaVuSans-53" d="M 3425 4513 
L 3425 3897 
Q 3066 4069 2747 4153 
Q 2428 4238 2131 4238 
Q 1616 4238 1336 4038 
Q 1056 3838 1056 3469 
Q 1056 3159 1242 3001 
Q 1428 2844 1947 2747 
L 2328 2669 
Q 3034 2534 3370 2195 
Q 3706 1856 3706 1288 
Q 3706 609 3251 259 
Q 2797 -91 1919 -91 
Q 1588 -91 1214 -16 
Q 841 59 441 206 
L 441 856 
Q 825 641 1194 531 
Q 1563 422 1919 422 
Q 2459 422 2753 634 
Q 3047 847 3047 1241 
Q 3047 1584 2836 1778 
Q 2625 1972 2144 2069 
L 1759 2144 
Q 1053 2284 737 2584 
Q 422 2884 422 3419 
Q 422 4038 858 4394 
Q 1294 4750 2059 4750 
Q 2388 4750 2728 4690 
Q 3069 4631 3425 4513 
z
" transform="scale(0.015625)"/>
       <path id="DejaVuSans-49" d="M 628 4666 
L 1259 4666 
L 1259 0 
L 628 0 
L 628 4666 
z
" transform="scale(0.015625)"/>
       <path id="DejaVuSans-45" d="M 628 4666 
L 3578 4666 
L 3578 4134 
L 1259 4134 
L 1259 2753 
L 3481 2753 
L 3481 2222 
L 1259 2222 
L 1259 531 
L 3634 531 
L 3634 0 
L 628 0 
L 628 4666 
z
" transform="scale(0.015625)"/>
      </defs>
      <use xlink:href="#DejaVuSans-53"/>
      <use xlink:href="#DejaVuSans-49" transform="translate(63.476562 0)"/>
      <use xlink:href="#DejaVuSans-47" transform="translate(92.96875 0)"/>
      <use xlink:href="#DejaVuSans-45" transform="translate(170.458984 0)"/>
      <use xlink:href="#DejaVuSans-46" transform="translate(233.642578 0)"/>
     </g>
    </g>
   </g>
  </g>
 </g>
 <defs>
  <clipPath id="peac7225500">
   <rect x="90" y="105.063208" width="558" height="662.513585"/>
  </clipPath>
 </defs>
</svg>
