<?xml version="1.0" encoding="utf-8" standalone="no"?>
<!DOCTYPE svg PUBLIC "-//W3C//DTD SVG 1.1//EN"
  "http://www.w3.org/Graphics/SVG/1.1/DTD/svg11.dtd">
<svg xmlns:xlink="http://www.w3.org/1999/xlink" width="720pt" height="864pt" viewBox="0 0 720 864" xmlns="http://www.w3.org/2000/svg" version="1.1">
 <metadata>
  <rdf:RDF xmlns:dc="http://purl.org/dc/elements/1.1/" xmlns:cc="http://creativecommons.org/ns#" xmlns:rdf="http://www.w3.org/1999/02/22-rdf-syntax-ns#">
   <cc:Work>
    <dc:type rdf:resource="http://purl.org/dc/dcmitype/StillImage"/>
    <dc:date>2025-06-16T17:47:16.593436</dc:date>
    <dc:format>image/svg+xml</dc:format>
    <dc:creator>
     <cc:Agent>
      <dc:title>Matplotlib v3.10.1, https://matplotlib.org/</dc:title>
     </cc:Agent>
    </dc:creator>
   </cc:Work>
  </rdf:RDF>
 </metadata>
 <defs>
  <style type="text/css">*{stroke-linejoin: round; stroke-linecap: butt}</style>
 </defs>
 <g id="figure_1">
  <g id="patch_1">
   <path d="M 0 864 
L 720 864 
L 720 0 
L 0 0 
z
" style="fill: #ffffff"/>
  </g>
  <g id="axes_1">
   <g id="patch_2">
    <path d="M 90 632.400718 
L 648 632.400718 
L 648 240.239282 
L 90 240.239282 
z
" style="fill: #ffffff"/>
   </g>
   <g id="PatchCollection_1">
    <path d="M 403.725522 453.156777 
L 418.085296 467.78835 
L 415.349649 479.220556 
L 415.483033 479.530491 
L 416.582986 482.195392 
L 411.547584 495.201576 
L 375.840342 586.780564 
L 375.323965 588.15271 
L 369.377291 594.130917 
L 349.046785 614.575198 
L 346.296304 613.779328 
L 341.963485 613.222064 
L 335.090134 586.436874 
L 320.325799 590.349924 
L 297.66212 596.377486 
L 297.156268 596.512041 
L 285.928672 599.069575 
L 271.493796 596.458371 
L 169.23831 578.457305 
L 169.661083 576.797135 
L 170.801133 576.557499 
L 171.466636 575.752343 
L 173.656309 572.641429 
L 174.736581 573.100316 
L 174.383059 573.817755 
L 175.57777 573.789777 
L 178.422738 571.573966 
L 179.637864 571.756912 
L 181.994457 571.70248 
L 186.785685 570.218451 
L 187.642881 569.413322 
L 187.913323 568.397243 
L 189.41125 568.259667 
L 190.348639 567.276873 
L 193.013593 567.102991 
L 193.655033 567.974662 
L 195.887742 569.068578 
L 199.449253 567.773564 
L 199.640971 566.998672 
L 200.573978 567.013015 
L 200.87793 565.93649 
L 202.965577 565.977314 
L 203.836628 566.312205 
L 208.92816 560.52202 
L 210.099542 559.2905 
L 211.405043 558.973734 
L 212.412417 556.741295 
L 213.486129 556.879633 
L 215.575954 555.218701 
L 218.029508 553.451191 
L 220.288431 552.460069 
L 220.933519 551.238374 
L 221.523212 551.310197 
L 221.911005 550.424183 
L 222.5758 550.709188 
L 224.32155 548.054112 
L 225.699949 547.849231 
L 227.665863 546.513392 
L 230.096823 546.113482 
L 232.294526 545.060362 
L 234.256765 543.372214 
L 236.114802 542.344078 
L 236.076174 541.3885 
L 237.821216 541.556314 
L 241.368872 540.310424 
L 243.687572 539.363174 
L 244.036738 540.535717 
L 246.63971 540.144107 
L 247.046449 541.226702 
L 248.263753 540.144869 
L 249.306107 539.435759 
L 253.909998 538.243539 
L 256.091667 537.253179 
L 255.794249 534.406857 
L 256.46487 533.894273 
L 256.550154 533.424798 
L 258.424223 532.900157 
L 259.228228 531.882581 
L 259.204165 531.168926 
L 260.062095 531.59529 
L 264.496862 531.16664 
L 266.475896 528.680929 
L 267.135575 527.05554 
L 268.695458 524.579627 
L 269.39741 523.518207 
L 270.487156 523.252852 
L 271.504003 521.714418 
L 272.126498 521.919272 
L 274.055228 520.359664 
L 274.181343 518.914962 
L 275.34543 519.323201 
L 276.673524 518.237585 
L 278.437512 516.298452 
L 279.387313 516.222084 
L 280.001069 515.757154 
L 280.60753 515.847103 
L 282.581447 514.659428 
L 284.134061 514.690427 
L 285.024059 512.863178 
L 286.134955 512.823878 
L 286.932399 511.52508 
L 287.294659 510.672297 
L 288.510494 510.967916 
L 288.869867 510.673821 
L 290.117769 511.463082 
L 291.199511 510.900611 
L 291.313949 509.985857 
L 292.220006 508.877571 
L 291.830743 507.374654 
L 291.418914 505.169403 
L 291.114935 504.662888 
L 290.496823 504.526046 
L 290.463287 503.565189 
L 291.38976 503.694464 
L 291.871575 502.660994 
L 290.478586 501.598077 
L 291.663088 501.027305 
L 293.222998 501.815042 
L 292.880392 499.482802 
L 293.954104 497.751543 
L 293.236118 495.074559 
L 292.764511 494.553674 
L 291.459719 493.463541 
L 290.956779 493.8355 
L 290.890442 492.50946 
L 290.405714 491.327092 
L 288.746665 490.848554 
L 289.441349 489.365287 
L 289.267868 488.872353 
L 309.679157 494.949829 
L 309.386121 472.324344 
L 312.086789 466.618828 
L 372.94748 457.732071 
L 373.182917 457.701072 
L 398.181329 453.989883 
L 403.725522 453.156777 
" clip-path="url(#p2b73227700)" style="fill: #e0bd1f; stroke: #0000ff; stroke-width: 0.5"/>
    <path d="M 182.097244 393.025481 
L 195.77766 401.584885 
L 201.825553 398.56166 
L 206.360902 398.700761 
L 217.568817 403.220126 
L 220.420372 403.510411 
L 236.504772 399.019786 
L 237.025949 402.023361 
L 255.251213 411.195885 
L 255.805927 410.962291 
L 255.945136 411.708442 
L 256.152888 412.771387 
L 260.799054 412.205894 
L 263.590831 411.42722 
L 264.44438 411.273749 
L 267.633423 412.631524 
L 267.804726 411.604123 
L 269.047536 410.904076 
L 270.419375 410.595638 
L 271.71249 410.98194 
L 273.558114 411.700903 
L 274.617971 412.317779 
L 275.852043 413.914455 
L 276.946144 415.556472 
L 278.273504 417.108541 
L 278.714514 419.162581 
L 279.576827 420.895336 
L 281.514295 422.194134 
L 283.202498 424.634503 
L 284.290039 426.975071 
L 286.030698 428.857514 
L 286.981943 430.916833 
L 287.383591 432.759214 
L 288.251021 434.026251 
L 288.746665 435.289532 
L 288.958799 437.154584 
L 289.252543 439.998646 
L 289.008369 441.160602 
L 288.98504 443.349224 
L 289.344387 444.447686 
L 289.461738 446.498704 
L 289.573263 449.014651 
L 289.82329 451.671986 
L 290.317517 453.121233 
L 290.624382 454.866072 
L 290.559513 456.589003 
L 289.708852 458.116877 
L 289.183293 459.601641 
L 289.26422 460.673648 
L 289.251808 461.884021 
L 288.724071 463.508648 
L 288.157707 464.480855 
L 287.490734 466.196981 
L 286.834703 466.841835 
L 285.642932 469.217185 
L 284.862255 471.007393 
L 285.832446 472.57307 
L 287.148155 473.326026 
L 289.570351 474.446423 
L 293.853522 480.318256 
L 294.140706 482.079724 
L 293.91692 482.103919 
L 293.330875 482.420685 
L 289.556521 487.727025 
L 289.267868 488.872353 
L 289.161434 489.436348 
L 288.366167 490.738167 
L 290.415922 491.625705 
L 290.63312 494.117485 
L 291.586569 493.613228 
L 292.984622 494.954374 
L 293.257242 496.646278 
L 293.827989 497.750809 
L 292.717854 499.421566 
L 293.130419 501.623007 
L 291.03259 500.69919 
L 290.258474 501.59277 
L 291.447333 503.441955 
L 290.292719 503.49108 
L 289.889628 504.795946 
L 291.094546 504.906307 
L 291.520966 506.416055 
L 291.99622 508.958457 
L 290.929803 509.9133 
L 290.926156 510.843921 
L 289.953761 511.302808 
L 288.815207 510.403921 
L 287.187516 510.436444 
L 286.204205 512.610696 
L 284.882645 512.550957 
L 284.040748 514.555871 
L 282.914553 514.17787 
L 278.017652 516.301473 
L 275.322836 518.943675 
L 273.920374 518.829531 
L 273.829264 520.18502 
L 271.410716 521.56473 
L 267.756626 524.92663 
L 267.560525 526.2693 
L 264.084298 531.08423 
L 261.909924 530.906592 
L 260.28735 531.507601 
L 259.273415 530.856678 
L 258.398691 532.758771 
L 256.470695 533.042279 
L 254.919551 535.937752 
L 255.620768 537.153378 
L 252.967492 538.449917 
L 251.413434 537.405887 
L 249.276244 539.211227 
L 246.980137 540.821484 
L 246.859848 539.929401 
L 244.243755 540.448789 
L 244.208749 539.459192 
L 242.701348 539.039604 
L 240.252176 540.630211 
L 235.936204 541.312895 
L 230.623091 545.843582 
L 228.167359 546.009136 
L 226.801345 546.327426 
L 224.104351 547.940731 
L 223.041582 549.292436 
L 222.515288 550.569325 
L 221.778356 550.279775 
L 217.229859 553.941839 
L 211.996205 556.652081 
L 210.976445 558.969217 
L 209.272209 559.37291 
L 205.624679 563.127944 
L 203.914643 566.162518 
L 201.70382 564.787379 
L 199.723316 566.122456 
L 198.868298 567.761453 
L 195.94605 568.891675 
L 193.031804 566.954065 
L 190.320955 567.109795 
L 187.632673 568.421438 
L 187.182951 569.684719 
L 185.822028 569.668852 
L 183.024425 571.304066 
L 178.478133 571.396301 
L 174.625791 573.795084 
L 174.865609 572.89998 
L 173.579789 572.446372 
L 171.874818 574.266817 
L 169.319947 576.823616 
L 169.371721 577.851751 
L 168.942362 578.377944 
L 115.363636 569.15175 
L 140.178162 500.651912 
L 179.160513 393.082275 
L 182.097244 393.025481 
" clip-path="url(#p2b73227700)" style="fill: #e0bd1f; stroke: #0000ff; stroke-width: 0.5"/>
    <path d="M 293.688045 378.979813 
L 297.646822 380.863752 
L 308.666692 382.099817 
L 308.571909 383.887739 
L 310.815533 388.472123 
L 310.69527 391.441679 
L 311.723794 393.041375 
L 312.344085 394.145117 
L 328.497027 438.358888 
L 328.880437 439.430133 
L 332.931793 439.306899 
L 333.833468 438.374755 
L 337.515978 438.384579 
L 339.668493 439.956298 
L 341.716043 439.752941 
L 348.487013 443.595664 
L 350.671595 444.930768 
L 351.506197 445.710967 
L 355.110009 446.070815 
L 361.813907 449.811479 
L 365.831727 454.090419 
L 369.621405 455.493562 
L 372.94748 457.732071 
L 312.086789 466.618828 
L 309.386121 472.324344 
L 309.679157 494.949829 
L 289.267868 488.872353 
L 289.556521 487.727025 
L 293.330875 482.420685 
L 293.91692 482.103919 
L 294.140706 482.079724 
L 293.853522 480.318256 
L 289.570351 474.446423 
L 287.148155 473.326026 
L 285.832446 472.57307 
L 284.862255 471.007393 
L 285.642932 469.217185 
L 286.834703 466.841835 
L 287.490734 466.196981 
L 288.157707 464.480855 
L 288.724071 463.508648 
L 289.251808 461.884021 
L 289.26422 460.673648 
L 289.183293 459.601641 
L 289.708852 458.116877 
L 290.559513 456.589003 
L 290.624382 454.866072 
L 290.317517 453.121233 
L 289.82329 451.671986 
L 289.573263 449.014651 
L 289.461738 446.498704 
L 289.344387 444.447686 
L 288.98504 443.349224 
L 289.008369 441.160602 
L 289.252543 439.998646 
L 288.958799 437.154584 
L 288.746665 435.289532 
L 288.251021 434.026251 
L 287.383591 432.759214 
L 286.981943 430.916833 
L 286.030698 428.857514 
L 284.290039 426.975071 
L 283.202498 424.634503 
L 281.514295 422.194134 
L 279.576827 420.895336 
L 278.714514 419.162581 
L 278.273504 417.108541 
L 276.946144 415.556472 
L 275.852043 413.914455 
L 274.617971 412.317779 
L 273.558114 411.700903 
L 271.71249 410.98194 
L 270.419375 410.595638 
L 269.047536 410.904076 
L 267.804726 411.604123 
L 267.633423 412.631524 
L 264.44438 411.273749 
L 263.590831 411.42722 
L 260.799054 412.205894 
L 256.152888 412.771387 
L 255.945136 411.708442 
L 255.805927 410.962291 
L 257.589595 409.008025 
L 259.302569 404.340496 
L 258.921337 392.610439 
L 260.409792 383.789463 
L 265.04428 381.20621 
L 272.500435 382.1429 
L 277.981938 380.710282 
L 282.160853 382.436233 
L 288.947122 382.50577 
L 293.688045 378.979813 
" clip-path="url(#p2b73227700)" style="fill: #e0bd1f; stroke: #0000ff; stroke-width: 0.5"/>
    <path d="M 481.383482 368.606006 
L 481.941108 369.762682 
L 484.011252 371.384315 
L 486.799382 372.135011 
L 488.065521 371.609581 
L 489.209218 371.850006 
L 490.354359 373.767966 
L 493.188411 377.929741 
L 493.541933 379.347989 
L 490.437439 381.002091 
L 488.848401 380.823691 
L 482.673684 385.727834 
L 484.936255 386.989591 
L 486.386817 386.849756 
L 486.825623 388.203747 
L 485.391829 391.581541 
L 485.724961 392.404061 
L 486.224988 393.64693 
L 486.615693 394.976726 
L 484.714674 397.708904 
L 486.042034 398.554856 
L 485.732965 400.813015 
L 485.069665 401.337683 
L 481.84126 399.855913 
L 482.188956 400.871992 
L 485.251884 403.195169 
L 486.282587 404.734365 
L 488.932216 406.024862 
L 489.388525 408.057754 
L 493.880156 407.497542 
L 497.257244 409.742854 
L 496.107012 412.98231 
L 500.886562 412.54231 
L 502.329095 413.21819 
L 506.794485 413.094957 
L 509.805666 412.84623 
L 509.837732 415.41133 
L 507.983344 415.741704 
L 507.693247 416.422102 
L 508.107255 416.707869 
L 510.15407 417.078304 
L 513.163073 416.484099 
L 516.398773 420.146136 
L 521.90796 422.263697 
L 522.739649 424.016838 
L 523.667591 425.011742 
L 523.04654 425.959754 
L 525.312759 429.58856 
L 526.161951 429.670208 
L 526.267651 431.034025 
L 527.946354 431.289555 
L 528.797751 432.081075 
L 530.612016 431.020417 
L 531.214121 431.30466 
L 530.745427 432.181611 
L 531.118629 433.836501 
L 531.381042 438.347539 
L 531.937198 441.776743 
L 534.396604 445.302728 
L 537.861889 447.225205 
L 539.458247 450.451053 
L 538.228531 452.186067 
L 537.555024 454.042791 
L 539.276737 456.18833 
L 539.930589 459.276574 
L 539.908704 461.382786 
L 539.483019 463.184316 
L 539.530411 464.84827 
L 538.578432 467.009676 
L 540.823499 469.932365 
L 539.289857 472.866376 
L 539.039096 475.421651 
L 540.245484 475.363436 
L 540.254957 476.693995 
L 539.808122 478.805514 
L 538.702343 480.552612 
L 538.547073 482.453181 
L 534.986297 482.509137 
L 534.542374 485.877106 
L 535.126241 486.946827 
L 534.10139 490.227106 
L 532.276156 490.939265 
L 530.292766 490.885595 
L 528.564492 491.831348 
L 528.649776 497.347088 
L 496.771781 499.068494 
L 454.742815 492.877637 
L 416.582986 482.195392 
L 415.483033 479.530491 
L 415.349649 479.220556 
L 418.085296 467.78835 
L 403.725522 453.156777 
L 398.181329 453.989883 
L 395.425266 429.885649 
L 462.991324 414.002907 
L 458.852479 374.612421 
L 481.383482 368.606006 
" clip-path="url(#p2b73227700)" style="fill: #e0bd1f; stroke: #0000ff; stroke-width: 0.5"/>
    <path d="M 539.903613 458.589372 
L 560.85723 461.140102 
L 560.873998 461.358591 
L 562.525726 462.271848 
L 563.422309 462.347427 
L 563.904859 462.985504 
L 565.322594 463.745263 
L 566.039137 463.286376 
L 566.4189 463.724851 
L 566.429107 464.91933 
L 567.673388 465.101541 
L 566.628829 465.513562 
L 567.424096 466.207568 
L 567.84469 465.705571 
L 568.400112 466.353473 
L 570.350727 466.712559 
L 570.002296 467.770959 
L 571.276439 468.378772 
L 573.018567 469.071281 
L 573.863403 468.450595 
L 574.823386 469.267834 
L 574.641167 470.340604 
L 574.216925 472.889809 
L 574.760696 474.31184 
L 573.190605 474.721603 
L 574.633872 475.891887 
L 574.437063 477.02739 
L 575.434964 477.217901 
L 575.881065 478.461532 
L 574.719156 478.934027 
L 576.427748 481.391025 
L 575.727973 482.432034 
L 576.752851 483.546362 
L 576.892795 484.480031 
L 578.462886 484.867096 
L 579.218056 485.569402 
L 578.905366 485.543711 
L 544.180933 482.729885 
L 539.383145 482.341296 
L 539.461869 481.617816 
L 539.721368 479.852564 
L 540.658049 479.574363 
L 540.48092 478.856897 
L 540.020964 478.130396 
L 540.510074 477.60121 
L 540.851945 476.952546 
L 540.441558 475.339241 
L 539.517999 475.355897 
L 539.142618 474.676234 
L 539.282562 474.271779 
L 539.404295 473.10906 
L 539.789175 471.95995 
L 540.308883 471.618227 
L 540.719269 471.185059 
L 540.861418 470.544723 
L 540.842472 469.79174 
L 540.123751 468.95711 
L 539.581424 467.989448 
L 539.182715 467.25764 
L 538.675367 466.992285 
L 539.3008 465.448544 
L 539.71919 464.598808 
L 539.687123 464.232891 
L 539.82489 463.735438 
L 539.898496 463.013482 
L 539.880285 462.038227 
L 539.963391 461.540774 
L 540.141962 461.111389 
L 540.068356 460.536834 
L 539.994723 459.410395 
L 539.913086 459.095125 
L 539.903613 458.589372 
" clip-path="url(#p2b73227700)" style="fill: #e0bd1f; stroke: #0000ff; stroke-width: 0.5"/>
    <path d="M 532.104145 432.904356 
L 535.16416 433.292945 
L 534.926519 433.79644 
L 536.24661 434.212979 
L 536.088428 433.410872 
L 539.079039 433.75105 
L 617.582901 443.002994 
L 622.636364 468.656238 
L 560.85723 461.140102 
L 561.054774 460.486158 
L 560.196082 460.097596 
L 559.241925 460.799141 
L 559.152994 460.090792 
L 558.135438 460.034074 
L 557.029659 458.155442 
L 555.778084 458.239348 
L 554.934009 458.243893 
L 555.356046 457.524931 
L 555.742369 457.002521 
L 556.631658 456.765906 
L 554.856728 455.853411 
L 554.175191 455.522302 
L 554.593581 455.033151 
L 552.987776 453.970233 
L 552.977568 453.368462 
L 551.052486 452.530811 
L 546.333448 452.883094 
L 546.37134 453.75022 
L 545.032303 453.636838 
L 545.697098 452.93905 
L 545.041068 452.161137 
L 544.914217 450.643088 
L 543.144404 451.37868 
L 541.967197 451.483761 
L 541.265244 450.858529 
L 541.88556 450.22576 
L 540.391254 450.034513 
L 539.921825 451.416456 
L 539.437832 451.200252 
L 539.571216 450.224263 
L 539.140414 449.452392 
L 538.897682 448.183831 
L 538.122123 447.067979 
L 536.732073 446.34145 
L 536.810797 445.461478 
L 536.66647 444.636673 
L 534.675784 444.889182 
L 534.461472 444.346388 
L 535.102913 443.718136 
L 534.720237 443.009787 
L 534.061294 443.098974 
L 534.051086 442.541048 
L 534.990679 441.946843 
L 534.830293 441.224859 
L 533.482517 441.084997 
L 532.156627 441.46904 
L 533.408176 439.877672 
L 533.362254 438.981833 
L 532.604171 438.461682 
L 532.706958 437.520474 
L 532.36947 437.116019 
L 531.985324 436.440901 
L 531.482359 435.610816 
L 532.888442 435.935148 
L 533.047359 434.924376 
L 532.451841 433.517477 
L 532.104145 432.904356 
" clip-path="url(#p2b73227700)" style="fill: #e0bd1f; stroke: #0000ff; stroke-width: 0.5"/>
    <path d="M 540.391254 450.034513 
L 541.88556 450.22576 
L 541.265244 450.858529 
L 541.967197 451.483761 
L 543.144404 451.37868 
L 544.914217 450.643088 
L 545.041068 452.161137 
L 545.697098 452.93905 
L 545.032303 453.636838 
L 546.37134 453.75022 
L 546.333448 452.883094 
L 551.052486 452.530811 
L 552.977568 453.368462 
L 552.987776 453.970233 
L 554.593581 455.033151 
L 554.175191 455.522302 
L 554.856728 455.853411 
L 556.631658 456.765906 
L 555.742369 457.002521 
L 555.356046 457.524931 
L 554.934009 458.243893 
L 555.778084 458.239348 
L 557.029659 458.155442 
L 558.135438 460.034074 
L 559.152994 460.090792 
L 559.241925 460.799141 
L 560.196082 460.097596 
L 561.054774 460.486158 
L 560.85723 461.140102 
L 539.903613 458.589372 
L 540.286289 457.312483 
L 540.013669 456.239741 
L 541.031986 455.12691 
L 540.90734 454.498657 
L 539.694418 454.534201 
L 539.326307 454.764013 
L 538.831371 453.626251 
L 537.872097 453.813742 
L 538.176049 452.628326 
L 539.192896 451.869301 
L 539.009208 451.693922 
L 538.900621 451.319703 
L 539.437832 451.200252 
L 539.921825 451.416456 
L 540.391254 450.034513 
" clip-path="url(#p2b73227700)" style="fill: #e0bd1f; stroke: #0000ff; stroke-width: 0.5"/>
    <path d="M 334.4714 296.984861 
L 341.771833 301.597395 
L 343.939388 298.659714 
L 375.180847 302.510292 
L 380.69071 301.022217 
L 398.181329 453.989883 
L 373.182917 457.701072 
L 369.654879 455.42749 
L 365.873171 454.027185 
L 361.859262 449.752674 
L 355.13231 445.999038 
L 351.53783 445.640261 
L 350.715155 444.87114 
L 341.732063 439.677298 
L 339.688987 439.880278 
L 337.539658 438.311006 
L 333.802496 438.300969 
L 332.899904 439.2342 
L 328.880437 439.430133 
L 328.497027 438.358888 
L 312.344085 394.145117 
L 311.723794 393.041375 
L 310.719907 391.435038 
L 310.840044 388.46706 
L 308.596614 383.882666 
L 308.690891 382.101284 
L 313.982661 380.458201 
L 318.497807 374.652733 
L 317.075658 365.702729 
L 312.763869 362.528785 
L 308.869414 352.304706 
L 317.361062 346.026554 
L 314.249104 338.969566 
L 317.847147 333.190791 
L 323.186991 332.287692 
L 330.092726 326.272501 
L 332.496417 321.934904 
L 330.757237 313.716694 
L 332.75147 297.542235 
L 334.4714 296.984861 
" clip-path="url(#p2b73227700)" style="fill: #e0bd1f; stroke: #0000ff; stroke-width: 0.5"/>
    <path d="M 381.33882 258.064802 
L 385.586985 259.972201 
L 387.180431 260.759939 
L 389.636163 263.644063 
L 393.224651 265.933221 
L 395.507637 270.274158 
L 397.045661 271.015792 
L 397.883202 274.014849 
L 397.38315 274.824523 
L 399.081534 277.356364 
L 401.098461 276.942057 
L 400.636326 275.207042 
L 402.00087 274.801852 
L 402.549023 275.993283 
L 403.931069 274.015611 
L 405.291966 273.661805 
L 405.262812 276.338789 
L 407.197367 275.755906 
L 407.004205 274.325573 
L 407.956184 274.000479 
L 409.542309 274.620403 
L 409.644361 275.750626 
L 412.14019 275.513983 
L 414.934145 276.795417 
L 417.166854 279.162439 
L 417.116549 280.650986 
L 417.949708 280.105171 
L 418.682284 280.680488 
L 419.01686 281.681408 
L 420.879987 283.059595 
L 420.90258 281.565006 
L 421.809346 280.676705 
L 422.590022 281.086441 
L 424.698085 284.055261 
L 424.805962 284.990427 
L 423.498283 288.451366 
L 425.413893 290.59764 
L 426.365137 290.40789 
L 426.449686 289.166545 
L 427.97459 289.076597 
L 427.87036 291.163132 
L 427.018963 292.337961 
L 428.07226 293.778145 
L 429.012562 293.22324 
L 429.992986 293.58083 
L 431.061581 294.907606 
L 429.478343 297.366863 
L 431.608999 299.036858 
L 435.842575 299.553198 
L 436.874012 300.079364 
L 438.592812 304.613834 
L 441.088641 305.311622 
L 444.990553 304.591163 
L 446.075208 304.889776 
L 447.619793 307.909245 
L 448.593631 308.597209 
L 451.464132 310.78809 
L 452.670493 313.385685 
L 452.708386 317.174738 
L 455.231925 320.098952 
L 455.566501 321.089312 
L 454.481138 324.860974 
L 454.90391 325.923892 
L 455.44915 328.117821 
L 455.075948 331.554564 
L 453.899449 335.604455 
L 451.798708 340.238726 
L 451.685713 341.114153 
L 454.075134 342.527883 
L 458.667348 341.172368 
L 460.370823 342.028907 
L 464.443329 340.684005 
L 465.493713 340.867713 
L 465.605238 342.516534 
L 464.82018 343.729166 
L 467.098784 345.039313 
L 467.302153 345.541283 
L 466.415803 346.18992 
L 466.226998 347.352666 
L 468.36201 346.977685 
L 468.652868 347.408594 
L 468.189999 348.57964 
L 469.061785 354.725891 
L 470.042183 356.569007 
L 469.693017 358.012974 
L 468.286934 360.950769 
L 468.551524 361.538197 
L 473.385761 360.581857 
L 475.315199 362.646483 
L 476.470548 364.088164 
L 480.183681 366.118036 
L 481.383482 368.606006 
L 458.852479 374.612421 
L 462.991324 414.002907 
L 395.425266 429.885649 
L 380.69071 301.022217 
L 381.582286 295.696867 
L 377.362566 289.840901 
L 375.785888 280.922383 
L 377.260514 275.55331 
L 379.451656 270.259816 
L 376.726216 261.244545 
L 380.198796 259.028707 
L 381.33882 258.064802 
" clip-path="url(#p2b73227700)" style="fill: #e0bd1f; stroke: #0000ff; stroke-width: 0.5"/>
    <path d="M 463.260561 502.813042 
L 501.929253 519.887863 
L 501.322813 520.789575 
L 502.865064 527.287741 
L 503.502837 530.080891 
L 503.648063 535.070836 
L 495.029248 548.838481 
L 494.987014 549.16286 
L 494.486209 551.701341 
L 490.848186 555.985826 
L 486.260863 561.387934 
L 480.120027 565.181952 
L 477.048811 570.831585 
L 473.83692 569.133973 
L 465.648963 576.191027 
L 449.374833 552.036572 
L 463.260561 502.813042 
" clip-path="url(#p2b73227700)" style="fill: #e0bd1f; stroke: #0000ff; stroke-width: 0.5"/>
    <path d="M 436.973192 491.123459 
L 463.260561 502.813042 
L 449.374833 552.036572 
L 438.890204 536.41736 
L 450.944915 508.750107 
L 432.864565 502.48712 
L 436.973192 491.123459 
" clip-path="url(#p2b73227700)" style="fill: #e0bd1f; stroke: #0000ff; stroke-width: 0.5"/>
    <path d="M 416.582986 482.195392 
L 454.742081 492.879895 
L 472.353589 497.800695 
L 496.771781 499.068494 
L 528.649042 497.349374 
L 528.360388 497.849085 
L 528.382247 498.36088 
L 530.214777 499.02239 
L 530.406469 501.790847 
L 531.640541 502.82429 
L 532.139859 503.552315 
L 532.070608 504.480677 
L 530.609838 503.478234 
L 529.687013 504.575198 
L 530.18124 505.257093 
L 532.583755 506.527178 
L 533.199716 508.470094 
L 533.228135 511.165232 
L 531.635424 512.53509 
L 532.654476 514.820464 
L 532.864405 516.501047 
L 533.622488 517.397675 
L 532.94166 518.756185 
L 532.950424 519.465322 
L 534.559877 519.46984 
L 535.048987 519.010218 
L 535.916391 519.239267 
L 536.18392 520.350601 
L 537.233569 520.107917 
L 537.067357 520.83744 
L 537.293346 521.378002 
L 539.30736 521.176904 
L 538.86126 522.284428 
L 538.60832 523.102429 
L 538.571137 523.77224 
L 539.283297 524.24019 
L 538.192108 524.552411 
L 539.629524 525.887515 
L 537.999655 526.68056 
L 537.158493 526.500635 
L 536.407705 527.92645 
L 537.66508 530.317667 
L 536.699271 532.725513 
L 537.934052 535.050949 
L 537.89616 535.801673 
L 501.929253 519.887863 
L 463.260561 502.813042 
L 436.973192 491.123459 
L 416.582986 482.195392 
" clip-path="url(#p2b73227700)" style="fill: #e0bd1f; stroke: #0000ff; stroke-width: 0.5"/>
    <path d="M 539.955361 523.24681 
L 588.776422 526.453769 
L 588.690403 526.548263 
L 588.882856 527.865949 
L 590.035265 529.208618 
L 589.850868 530.007705 
L 590.409938 530.527828 
L 589.689039 530.517241 
L 588.976878 531.196877 
L 589.719662 531.358675 
L 588.971787 532.08368 
L 589.248764 532.931891 
L 588.869735 534.184585 
L 589.662063 535.304982 
L 589.058515 536.377725 
L 590.216776 538.201953 
L 591.283928 538.50209 
L 591.817491 539.726806 
L 593.519523 539.997441 
L 594.073501 541.094405 
L 593.576387 541.979684 
L 594.20762 542.527024 
L 594.205442 542.784051 
L 530.313181 539.484121 
L 530.972125 538.840764 
L 531.046466 538.542914 
L 532.928539 536.968174 
L 533.633404 538.146759 
L 533.903846 539.114448 
L 534.30329 538.720579 
L 534.689614 537.777085 
L 534.3463 537.028648 
L 537.059353 538.302515 
L 537.885217 536.468462 
L 539.780411 536.4677 
L 538.85979 534.918652 
L 537.125691 532.831355 
L 537.275844 531.455428 
L 538.582079 529.917729 
L 537.998212 529.839102 
L 536.82683 527.980881 
L 537.240864 526.976152 
L 538.428279 526.845352 
L 540.04794 526.107501 
L 540.072712 525.547316 
L 538.947987 524.595521 
L 540.925552 524.005072 
L 539.955361 523.24681 
" clip-path="url(#p2b73227700)" style="fill: #e0bd1f; stroke: #0000ff; stroke-width: 0.5"/>
    <path d="M 530.517994 503.975686 
L 532.04728 504.925222 
L 533.054654 504.073963 
L 592.611288 507.715615 
L 592.743963 507.723154 
L 592.832895 508.002117 
L 593.750603 509.559493 
L 594.450351 509.079431 
L 594.909573 509.965445 
L 594.248451 510.298078 
L 594.865855 511.522059 
L 594.374567 512.599347 
L 593.532643 513.506535 
L 594.672693 513.562491 
L 594.798782 514.651889 
L 593.859924 514.577045 
L 594.00425 515.048779 
L 594.073501 515.675507 
L 593.347511 515.955232 
L 592.835808 517.994901 
L 593.283352 519.667918 
L 591.877268 520.841985 
L 590.501782 519.324698 
L 590.802113 520.314295 
L 590.352364 521.074844 
L 589.134326 521.860322 
L 589.366849 522.637473 
L 588.917101 523.545423 
L 588.793924 525.495905 
L 589.17807 526.031923 
L 588.776422 526.453769 
L 539.955361 523.24681 
L 539.055864 522.823466 
L 539.422507 522.047051 
L 539.692949 520.938764 
L 537.541903 520.912283 
L 537.560115 519.672463 
L 536.538911 519.970313 
L 536.241493 519.118319 
L 535.128446 518.666236 
L 533.330187 519.111515 
L 534.1349 517.929882 
L 536.049801 517.947273 
L 536.005322 517.224527 
L 535.394479 516.891133 
L 535.344936 516.544892 
L 533.614458 516.88207 
L 533.851364 516.203196 
L 535.635032 515.536406 
L 535.404687 514.838617 
L 534.355038 514.802311 
L 533.777731 513.750743 
L 534.467298 513.183727 
L 533.193864 512.823878 
L 532.920535 514.502202 
L 531.881094 513.052192 
L 533.307593 511.696677 
L 534.098478 511.932557 
L 534.946935 511.078277 
L 535.01692 510.33286 
L 533.680061 510.020639 
L 533.304681 507.741307 
L 533.100576 506.4599 
L 532.03925 505.322874 
L 531.128837 504.736208 
L 530.163003 504.544961 
L 530.517994 503.975686 
" clip-path="url(#p2b73227700)" style="fill: #e0bd1f; stroke: #0000ff; stroke-width: 0.5"/>
   </g>
   <g id="PatchCollection_2">
    <path d="M 380.950251 297.550237 
L 419.901114 356.66749 
L 424.880885 404.350813 
L 497.483238 412.025433 
L 498.280615 413.745456 
L 499.506261 414.224026 
L 500.73858 414.081781 
L 506.588613 413.67733 
L 508.276305 414.160718 
L 509.038812 414.789824 
L 509.634789 416.659938 
L 511.001795 418.382466 
L 518.520126 420.324458 
L 521.214067 423.254547 
L 526.256295 429.938815 
L 527.327426 431.597747 
L 528.853016 432.855926 
L 530.232426 433.33629 
L 532.381529 433.824427 
L 532.841498 433.984628 
L 532.986531 435.586424 
L 532.65147 438.222861 
L 532.637321 439.620628 
L 535.348716 445.23957 
L 535.614783 449.279943 
L 538.193081 452.878445 
L 539.103464 454.130439 
L 539.707805 455.223595 
L 541.082732 456.169861 
L 541.69003 456.952724 
L 541.831442 458.196215 
L 539.605521 465.161618 
L 539.88735 467.649328 
L 542.591175 474.044468 
L 542.886286 475.290052 
L 542.288877 476.465354 
L 575.063277 494.360965 
L 548.362766 529.387781 
L 538.441127 524.19109 
L 538.519385 527.007404 
L 538.046775 528.089569 
L 537.8784 529.485477 
L 538.330439 530.421647 
L 538.785681 531.047775 
L 538.771023 532.445287 
L 537.047701 537.487808 
L 409.741642 478.844573 
L 401.667809 460.930402 
L 285.823811 476.041118 
L 283.955494 474.114235 
L 283.65645 473.334491 
L 283.676224 471.471421 
L 284.310083 469.769935 
L 288.08881 461.736042 
L 289.036925 459.417113 
L 289.372631 456.78098 
L 287.616888 448.376616 
L 287.345692 444.956904 
L 287.37426 442.317433 
L 285.924759 433.865992 
L 285.020259 432.14778 
L 282.744499 429.172719 
L 277.298591 420.57258 
L 272.14541 413.373672 
L 271.075374 412.740684 
L 268.161186 411.932459 
L 263.854099 411.885778 
L 260.007107 411.998983 
L 256.148159 413.199312 
L 254.915858 413.341014 
L 254.00311 412.39941 
L 253.703887 411.619657 
L 253.265073 409.667745 
L 255.114477 409.377141 
L 256.816407 408.464077 
L 257.75926 406.611088 
L 258.09219 404.285254 
L 258.132327 400.558891 
L 257.55896 396.670439 
L 258.132247 386.272531 
L 258.613558 384.414256 
L 259.708842 382.718067 
L 261.872173 381.810005 
L 272.544623 382.588839 
L 281.007549 382.37028 
L 288.542501 382.607475 
L 292.546556 382.184955 
L 297.156053 382.70061 
L 301.158445 382.433652 
L 305.62424 382.016282 
L 312.724263 379.763305 
L 314.432654 378.228765 
L 315.997547 375.761261 
L 316.639194 373.283786 
L 316.81628 371.111593 
L 314.869388 366.12127 
L 313.210717 362.997608 
L 309.888212 357.215917 
L 308.839998 354.565034 
L 308.861535 352.546323 
L 310.111683 350.696528 
L 314.611741 347.018022 
L 315.24035 345.782603 
L 315.264925 343.453614 
L 314.223082 340.180971 
L 313.793054 337.225974 
L 315.509815 334.915247 
L 323.54888 331.119666 
L 326.025855 329.593589 
L 328.827606 326.517993 
L 331.026684 322.193436 
L 331.192125 321.108406 
L 331.203673 320.02123 
L 331.686212 308.653522 
L 331.749096 302.753208 
L 332.382558 301.051858 
L 333.472015 299.821361 
L 335.319158 299.685815 
L 337.159956 300.171548 
L 340.384582 300.672134 
L 345.616835 300.417739 
L 356.833675 301.469631 
L 372.350421 303.188604 
L 374.349844 303.209958 
L 377.438648 302.000464 
L 380.840134 300.328575 
L 381.314656 299.091166 
L 380.950251 297.550237 
L 380.950251 297.550237 
" clip-path="url(#p2b73227700)" style="fill: none; stroke: #000000"/>
   </g>
   <g id="matplotlib.axis_1">
    <g id="xtick_1">
     <g id="line2d_1">
      <path d="M 103.747513 632.400718 
L 103.747513 240.239282 
" clip-path="url(#p2b73227700)" style="fill: none; stroke: #b0b0b0; stroke-width: 0.8; stroke-linecap: square"/>
     </g>
     <g id="line2d_2">
      <defs>
       <path id="m7d1c3e5275" d="M 0 0 
L 0 3.5 
" style="stroke: #000000; stroke-width: 0.8"/>
      </defs>
      <g>
       <use xlink:href="#m7d1c3e5275" x="103.747513" y="632.400718" style="stroke: #000000; stroke-width: 0.8"/>
      </g>
     </g>
     <g id="text_1">
      <!-- −53.400 -->
      <g transform="translate(90.364965 675.441067) rotate(-45) scale(0.1 -0.1)">
       <defs>
        <path id="DejaVuSans-2212" d="M 678 2272 
L 4684 2272 
L 4684 1741 
L 678 1741 
L 678 2272 
z
" transform="scale(0.015625)"/>
        <path id="DejaVuSans-35" d="M 691 4666 
L 3169 4666 
L 3169 4134 
L 1269 4134 
L 1269 2991 
Q 1406 3038 1543 3061 
Q 1681 3084 1819 3084 
Q 2600 3084 3056 2656 
Q 3513 2228 3513 1497 
Q 3513 744 3044 326 
Q 2575 -91 1722 -91 
Q 1428 -91 1123 -41 
Q 819 9 494 109 
L 494 744 
Q 775 591 1075 516 
Q 1375 441 1709 441 
Q 2250 441 2565 725 
Q 2881 1009 2881 1497 
Q 2881 1984 2565 2268 
Q 2250 2553 1709 2553 
Q 1456 2553 1204 2497 
Q 953 2441 691 2322 
L 691 4666 
z
" transform="scale(0.015625)"/>
        <path id="DejaVuSans-33" d="M 2597 2516 
Q 3050 2419 3304 2112 
Q 3559 1806 3559 1356 
Q 3559 666 3084 287 
Q 2609 -91 1734 -91 
Q 1441 -91 1130 -33 
Q 819 25 488 141 
L 488 750 
Q 750 597 1062 519 
Q 1375 441 1716 441 
Q 2309 441 2620 675 
Q 2931 909 2931 1356 
Q 2931 1769 2642 2001 
Q 2353 2234 1838 2234 
L 1294 2234 
L 1294 2753 
L 1863 2753 
Q 2328 2753 2575 2939 
Q 2822 3125 2822 3475 
Q 2822 3834 2567 4026 
Q 2313 4219 1838 4219 
Q 1578 4219 1281 4162 
Q 984 4106 628 3988 
L 628 4550 
Q 988 4650 1302 4700 
Q 1616 4750 1894 4750 
Q 2613 4750 3031 4423 
Q 3450 4097 3450 3541 
Q 3450 3153 3228 2886 
Q 3006 2619 2597 2516 
z
" transform="scale(0.015625)"/>
        <path id="DejaVuSans-2e" d="M 684 794 
L 1344 794 
L 1344 0 
L 684 0 
L 684 794 
z
" transform="scale(0.015625)"/>
        <path id="DejaVuSans-34" d="M 2419 4116 
L 825 1625 
L 2419 1625 
L 2419 4116 
z
M 2253 4666 
L 3047 4666 
L 3047 1625 
L 3713 1625 
L 3713 1100 
L 3047 1100 
L 3047 0 
L 2419 0 
L 2419 1100 
L 313 1100 
L 313 1709 
L 2253 4666 
z
" transform="scale(0.015625)"/>
        <path id="DejaVuSans-30" d="M 2034 4250 
Q 1547 4250 1301 3770 
Q 1056 3291 1056 2328 
Q 1056 1369 1301 889 
Q 1547 409 2034 409 
Q 2525 409 2770 889 
Q 3016 1369 3016 2328 
Q 3016 3291 2770 3770 
Q 2525 4250 2034 4250 
z
M 2034 4750 
Q 2819 4750 3233 4129 
Q 3647 3509 3647 2328 
Q 3647 1150 3233 529 
Q 2819 -91 2034 -91 
Q 1250 -91 836 529 
Q 422 1150 422 2328 
Q 422 3509 836 4129 
Q 1250 4750 2034 4750 
z
" transform="scale(0.015625)"/>
       </defs>
       <use xlink:href="#DejaVuSans-2212"/>
       <use xlink:href="#DejaVuSans-35" transform="translate(83.789062 0)"/>
       <use xlink:href="#DejaVuSans-33" transform="translate(147.412109 0)"/>
       <use xlink:href="#DejaVuSans-2e" transform="translate(211.035156 0)"/>
       <use xlink:href="#DejaVuSans-34" transform="translate(242.822266 0)"/>
       <use xlink:href="#DejaVuSans-30" transform="translate(306.445312 0)"/>
       <use xlink:href="#DejaVuSans-30" transform="translate(370.068359 0)"/>
      </g>
     </g>
    </g>
    <g id="xtick_2">
     <g id="line2d_3">
      <path d="M 169.35057 632.400718 
L 169.35057 240.239282 
" clip-path="url(#p2b73227700)" style="fill: none; stroke: #b0b0b0; stroke-width: 0.8; stroke-linecap: square"/>
     </g>
     <g id="line2d_4">
      <g>
       <use xlink:href="#m7d1c3e5275" x="169.35057" y="632.400718" style="stroke: #000000; stroke-width: 0.8"/>
      </g>
     </g>
     <g id="text_2">
      <!-- −53.375 -->
      <g transform="translate(155.968022 675.441067) rotate(-45) scale(0.1 -0.1)">
       <defs>
        <path id="DejaVuSans-37" d="M 525 4666 
L 3525 4666 
L 3525 4397 
L 1831 0 
L 1172 0 
L 2766 4134 
L 525 4134 
L 525 4666 
z
" transform="scale(0.015625)"/>
       </defs>
       <use xlink:href="#DejaVuSans-2212"/>
       <use xlink:href="#DejaVuSans-35" transform="translate(83.789062 0)"/>
       <use xlink:href="#DejaVuSans-33" transform="translate(147.412109 0)"/>
       <use xlink:href="#DejaVuSans-2e" transform="translate(211.035156 0)"/>
       <use xlink:href="#DejaVuSans-33" transform="translate(242.822266 0)"/>
       <use xlink:href="#DejaVuSans-37" transform="translate(306.445312 0)"/>
       <use xlink:href="#DejaVuSans-35" transform="translate(370.068359 0)"/>
      </g>
     </g>
    </g>
    <g id="xtick_3">
     <g id="line2d_5">
      <path d="M 234.953627 632.400718 
L 234.953627 240.239282 
" clip-path="url(#p2b73227700)" style="fill: none; stroke: #b0b0b0; stroke-width: 0.8; stroke-linecap: square"/>
     </g>
     <g id="line2d_6">
      <g>
       <use xlink:href="#m7d1c3e5275" x="234.953627" y="632.400718" style="stroke: #000000; stroke-width: 0.8"/>
      </g>
     </g>
     <g id="text_3">
      <!-- −53.350 -->
      <g transform="translate(221.571079 675.441067) rotate(-45) scale(0.1 -0.1)">
       <use xlink:href="#DejaVuSans-2212"/>
       <use xlink:href="#DejaVuSans-35" transform="translate(83.789062 0)"/>
       <use xlink:href="#DejaVuSans-33" transform="translate(147.412109 0)"/>
       <use xlink:href="#DejaVuSans-2e" transform="translate(211.035156 0)"/>
       <use xlink:href="#DejaVuSans-33" transform="translate(242.822266 0)"/>
       <use xlink:href="#DejaVuSans-35" transform="translate(306.445312 0)"/>
       <use xlink:href="#DejaVuSans-30" transform="translate(370.068359 0)"/>
      </g>
     </g>
    </g>
    <g id="xtick_4">
     <g id="line2d_7">
      <path d="M 300.556685 632.400718 
L 300.556685 240.239282 
" clip-path="url(#p2b73227700)" style="fill: none; stroke: #b0b0b0; stroke-width: 0.8; stroke-linecap: square"/>
     </g>
     <g id="line2d_8">
      <g>
       <use xlink:href="#m7d1c3e5275" x="300.556685" y="632.400718" style="stroke: #000000; stroke-width: 0.8"/>
      </g>
     </g>
     <g id="text_4">
      <!-- −53.325 -->
      <g transform="translate(287.174136 675.441067) rotate(-45) scale(0.1 -0.1)">
       <defs>
        <path id="DejaVuSans-32" d="M 1228 531 
L 3431 531 
L 3431 0 
L 469 0 
L 469 531 
Q 828 903 1448 1529 
Q 2069 2156 2228 2338 
Q 2531 2678 2651 2914 
Q 2772 3150 2772 3378 
Q 2772 3750 2511 3984 
Q 2250 4219 1831 4219 
Q 1534 4219 1204 4116 
Q 875 4013 500 3803 
L 500 4441 
Q 881 4594 1212 4672 
Q 1544 4750 1819 4750 
Q 2544 4750 2975 4387 
Q 3406 4025 3406 3419 
Q 3406 3131 3298 2873 
Q 3191 2616 2906 2266 
Q 2828 2175 2409 1742 
Q 1991 1309 1228 531 
z
" transform="scale(0.015625)"/>
       </defs>
       <use xlink:href="#DejaVuSans-2212"/>
       <use xlink:href="#DejaVuSans-35" transform="translate(83.789062 0)"/>
       <use xlink:href="#DejaVuSans-33" transform="translate(147.412109 0)"/>
       <use xlink:href="#DejaVuSans-2e" transform="translate(211.035156 0)"/>
       <use xlink:href="#DejaVuSans-33" transform="translate(242.822266 0)"/>
       <use xlink:href="#DejaVuSans-32" transform="translate(306.445312 0)"/>
       <use xlink:href="#DejaVuSans-35" transform="translate(370.068359 0)"/>
      </g>
     </g>
    </g>
    <g id="xtick_5">
     <g id="line2d_9">
      <path d="M 366.159742 632.400718 
L 366.159742 240.239282 
" clip-path="url(#p2b73227700)" style="fill: none; stroke: #b0b0b0; stroke-width: 0.8; stroke-linecap: square"/>
     </g>
     <g id="line2d_10">
      <g>
       <use xlink:href="#m7d1c3e5275" x="366.159742" y="632.400718" style="stroke: #000000; stroke-width: 0.8"/>
      </g>
     </g>
     <g id="text_5">
      <!-- −53.300 -->
      <g transform="translate(352.777194 675.441067) rotate(-45) scale(0.1 -0.1)">
       <use xlink:href="#DejaVuSans-2212"/>
       <use xlink:href="#DejaVuSans-35" transform="translate(83.789062 0)"/>
       <use xlink:href="#DejaVuSans-33" transform="translate(147.412109 0)"/>
       <use xlink:href="#DejaVuSans-2e" transform="translate(211.035156 0)"/>
       <use xlink:href="#DejaVuSans-33" transform="translate(242.822266 0)"/>
       <use xlink:href="#DejaVuSans-30" transform="translate(306.445312 0)"/>
       <use xlink:href="#DejaVuSans-30" transform="translate(370.068359 0)"/>
      </g>
     </g>
    </g>
    <g id="xtick_6">
     <g id="line2d_11">
      <path d="M 431.762799 632.400718 
L 431.762799 240.239282 
" clip-path="url(#p2b73227700)" style="fill: none; stroke: #b0b0b0; stroke-width: 0.8; stroke-linecap: square"/>
     </g>
     <g id="line2d_12">
      <g>
       <use xlink:href="#m7d1c3e5275" x="431.762799" y="632.400718" style="stroke: #000000; stroke-width: 0.8"/>
      </g>
     </g>
     <g id="text_6">
      <!-- −53.275 -->
      <g transform="translate(418.380251 675.441067) rotate(-45) scale(0.1 -0.1)">
       <use xlink:href="#DejaVuSans-2212"/>
       <use xlink:href="#DejaVuSans-35" transform="translate(83.789062 0)"/>
       <use xlink:href="#DejaVuSans-33" transform="translate(147.412109 0)"/>
       <use xlink:href="#DejaVuSans-2e" transform="translate(211.035156 0)"/>
       <use xlink:href="#DejaVuSans-32" transform="translate(242.822266 0)"/>
       <use xlink:href="#DejaVuSans-37" transform="translate(306.445312 0)"/>
       <use xlink:href="#DejaVuSans-35" transform="translate(370.068359 0)"/>
      </g>
     </g>
    </g>
    <g id="xtick_7">
     <g id="line2d_13">
      <path d="M 497.365856 632.400718 
L 497.365856 240.239282 
" clip-path="url(#p2b73227700)" style="fill: none; stroke: #b0b0b0; stroke-width: 0.8; stroke-linecap: square"/>
     </g>
     <g id="line2d_14">
      <g>
       <use xlink:href="#m7d1c3e5275" x="497.365856" y="632.400718" style="stroke: #000000; stroke-width: 0.8"/>
      </g>
     </g>
     <g id="text_7">
      <!-- −53.250 -->
      <g transform="translate(483.983308 675.441067) rotate(-45) scale(0.1 -0.1)">
       <use xlink:href="#DejaVuSans-2212"/>
       <use xlink:href="#DejaVuSans-35" transform="translate(83.789062 0)"/>
       <use xlink:href="#DejaVuSans-33" transform="translate(147.412109 0)"/>
       <use xlink:href="#DejaVuSans-2e" transform="translate(211.035156 0)"/>
       <use xlink:href="#DejaVuSans-32" transform="translate(242.822266 0)"/>
       <use xlink:href="#DejaVuSans-35" transform="translate(306.445312 0)"/>
       <use xlink:href="#DejaVuSans-30" transform="translate(370.068359 0)"/>
      </g>
     </g>
    </g>
    <g id="xtick_8">
     <g id="line2d_15">
      <path d="M 562.968914 632.400718 
L 562.968914 240.239282 
" clip-path="url(#p2b73227700)" style="fill: none; stroke: #b0b0b0; stroke-width: 0.8; stroke-linecap: square"/>
     </g>
     <g id="line2d_16">
      <g>
       <use xlink:href="#m7d1c3e5275" x="562.968914" y="632.400718" style="stroke: #000000; stroke-width: 0.8"/>
      </g>
     </g>
     <g id="text_8">
      <!-- −53.225 -->
      <g transform="translate(549.586365 675.441067) rotate(-45) scale(0.1 -0.1)">
       <use xlink:href="#DejaVuSans-2212"/>
       <use xlink:href="#DejaVuSans-35" transform="translate(83.789062 0)"/>
       <use xlink:href="#DejaVuSans-33" transform="translate(147.412109 0)"/>
       <use xlink:href="#DejaVuSans-2e" transform="translate(211.035156 0)"/>
       <use xlink:href="#DejaVuSans-32" transform="translate(242.822266 0)"/>
       <use xlink:href="#DejaVuSans-32" transform="translate(306.445312 0)"/>
       <use xlink:href="#DejaVuSans-35" transform="translate(370.068359 0)"/>
      </g>
     </g>
    </g>
    <g id="xtick_9">
     <g id="line2d_17">
      <path d="M 628.571971 632.400718 
L 628.571971 240.239282 
" clip-path="url(#p2b73227700)" style="fill: none; stroke: #b0b0b0; stroke-width: 0.8; stroke-linecap: square"/>
     </g>
     <g id="line2d_18">
      <g>
       <use xlink:href="#m7d1c3e5275" x="628.571971" y="632.400718" style="stroke: #000000; stroke-width: 0.8"/>
      </g>
     </g>
     <g id="text_9">
      <!-- −53.200 -->
      <g transform="translate(615.189423 675.441067) rotate(-45) scale(0.1 -0.1)">
       <use xlink:href="#DejaVuSans-2212"/>
       <use xlink:href="#DejaVuSans-35" transform="translate(83.789062 0)"/>
       <use xlink:href="#DejaVuSans-33" transform="translate(147.412109 0)"/>
       <use xlink:href="#DejaVuSans-2e" transform="translate(211.035156 0)"/>
       <use xlink:href="#DejaVuSans-32" transform="translate(242.822266 0)"/>
       <use xlink:href="#DejaVuSans-30" transform="translate(306.445312 0)"/>
       <use xlink:href="#DejaVuSans-30" transform="translate(370.068359 0)"/>
      </g>
     </g>
    </g>
    <g id="text_10">
     <!-- Longitude (°) -->
     <g transform="translate(336.139844 688.510066) scale(0.1 -0.1)">
      <defs>
       <path id="DejaVuSans-4c" d="M 628 4666 
L 1259 4666 
L 1259 531 
L 3531 531 
L 3531 0 
L 628 0 
L 628 4666 
z
" transform="scale(0.015625)"/>
       <path id="DejaVuSans-6f" d="M 1959 3097 
Q 1497 3097 1228 2736 
Q 959 2375 959 1747 
Q 959 1119 1226 758 
Q 1494 397 1959 397 
Q 2419 397 2687 759 
Q 2956 1122 2956 1747 
Q 2956 2369 2687 2733 
Q 2419 3097 1959 3097 
z
M 1959 3584 
Q 2709 3584 3137 3096 
Q 3566 2609 3566 1747 
Q 3566 888 3137 398 
Q 2709 -91 1959 -91 
Q 1206 -91 779 398 
Q 353 888 353 1747 
Q 353 2609 779 3096 
Q 1206 3584 1959 3584 
z
" transform="scale(0.015625)"/>
       <path id="DejaVuSans-6e" d="M 3513 2113 
L 3513 0 
L 2938 0 
L 2938 2094 
Q 2938 2591 2744 2837 
Q 2550 3084 2163 3084 
Q 1697 3084 1428 2787 
Q 1159 2491 1159 1978 
L 1159 0 
L 581 0 
L 581 3500 
L 1159 3500 
L 1159 2956 
Q 1366 3272 1645 3428 
Q 1925 3584 2291 3584 
Q 2894 3584 3203 3211 
Q 3513 2838 3513 2113 
z
" transform="scale(0.015625)"/>
       <path id="DejaVuSans-67" d="M 2906 1791 
Q 2906 2416 2648 2759 
Q 2391 3103 1925 3103 
Q 1463 3103 1205 2759 
Q 947 2416 947 1791 
Q 947 1169 1205 825 
Q 1463 481 1925 481 
Q 2391 481 2648 825 
Q 2906 1169 2906 1791 
z
M 3481 434 
Q 3481 -459 3084 -895 
Q 2688 -1331 1869 -1331 
Q 1566 -1331 1297 -1286 
Q 1028 -1241 775 -1147 
L 775 -588 
Q 1028 -725 1275 -790 
Q 1522 -856 1778 -856 
Q 2344 -856 2625 -561 
Q 2906 -266 2906 331 
L 2906 616 
Q 2728 306 2450 153 
Q 2172 0 1784 0 
Q 1141 0 747 490 
Q 353 981 353 1791 
Q 353 2603 747 3093 
Q 1141 3584 1784 3584 
Q 2172 3584 2450 3431 
Q 2728 3278 2906 2969 
L 2906 3500 
L 3481 3500 
L 3481 434 
z
" transform="scale(0.015625)"/>
       <path id="DejaVuSans-69" d="M 603 3500 
L 1178 3500 
L 1178 0 
L 603 0 
L 603 3500 
z
M 603 4863 
L 1178 4863 
L 1178 4134 
L 603 4134 
L 603 4863 
z
" transform="scale(0.015625)"/>
       <path id="DejaVuSans-74" d="M 1172 4494 
L 1172 3500 
L 2356 3500 
L 2356 3053 
L 1172 3053 
L 1172 1153 
Q 1172 725 1289 603 
Q 1406 481 1766 481 
L 2356 481 
L 2356 0 
L 1766 0 
Q 1100 0 847 248 
Q 594 497 594 1153 
L 594 3053 
L 172 3053 
L 172 3500 
L 594 3500 
L 594 4494 
L 1172 4494 
z
" transform="scale(0.015625)"/>
       <path id="DejaVuSans-75" d="M 544 1381 
L 544 3500 
L 1119 3500 
L 1119 1403 
Q 1119 906 1312 657 
Q 1506 409 1894 409 
Q 2359 409 2629 706 
Q 2900 1003 2900 1516 
L 2900 3500 
L 3475 3500 
L 3475 0 
L 2900 0 
L 2900 538 
Q 2691 219 2414 64 
Q 2138 -91 1772 -91 
Q 1169 -91 856 284 
Q 544 659 544 1381 
z
M 1991 3584 
L 1991 3584 
z
" transform="scale(0.015625)"/>
       <path id="DejaVuSans-64" d="M 2906 2969 
L 2906 4863 
L 3481 4863 
L 3481 0 
L 2906 0 
L 2906 525 
Q 2725 213 2448 61 
Q 2172 -91 1784 -91 
Q 1150 -91 751 415 
Q 353 922 353 1747 
Q 353 2572 751 3078 
Q 1150 3584 1784 3584 
Q 2172 3584 2448 3432 
Q 2725 3281 2906 2969 
z
M 947 1747 
Q 947 1113 1208 752 
Q 1469 391 1925 391 
Q 2381 391 2643 752 
Q 2906 1113 2906 1747 
Q 2906 2381 2643 2742 
Q 2381 3103 1925 3103 
Q 1469 3103 1208 2742 
Q 947 2381 947 1747 
z
" transform="scale(0.015625)"/>
       <path id="DejaVuSans-65" d="M 3597 1894 
L 3597 1613 
L 953 1613 
Q 991 1019 1311 708 
Q 1631 397 2203 397 
Q 2534 397 2845 478 
Q 3156 559 3463 722 
L 3463 178 
Q 3153 47 2828 -22 
Q 2503 -91 2169 -91 
Q 1331 -91 842 396 
Q 353 884 353 1716 
Q 353 2575 817 3079 
Q 1281 3584 2069 3584 
Q 2775 3584 3186 3129 
Q 3597 2675 3597 1894 
z
M 3022 2063 
Q 3016 2534 2758 2815 
Q 2500 3097 2075 3097 
Q 1594 3097 1305 2825 
Q 1016 2553 972 2059 
L 3022 2063 
z
" transform="scale(0.015625)"/>
       <path id="DejaVuSans-20" transform="scale(0.015625)"/>
       <path id="DejaVuSans-28" d="M 1984 4856 
Q 1566 4138 1362 3434 
Q 1159 2731 1159 2009 
Q 1159 1288 1364 580 
Q 1569 -128 1984 -844 
L 1484 -844 
Q 1016 -109 783 600 
Q 550 1309 550 2009 
Q 550 2706 781 3412 
Q 1013 4119 1484 4856 
L 1984 4856 
z
" transform="scale(0.015625)"/>
       <path id="DejaVuSans-b0" d="M 1600 4347 
Q 1350 4347 1178 4173 
Q 1006 4000 1006 3750 
Q 1006 3503 1178 3333 
Q 1350 3163 1600 3163 
Q 1850 3163 2022 3333 
Q 2194 3503 2194 3750 
Q 2194 3997 2020 4172 
Q 1847 4347 1600 4347 
z
M 1600 4750 
Q 1800 4750 1984 4673 
Q 2169 4597 2303 4453 
Q 2447 4313 2519 4134 
Q 2591 3956 2591 3750 
Q 2591 3338 2302 3052 
Q 2013 2766 1594 2766 
Q 1172 2766 890 3047 
Q 609 3328 609 3750 
Q 609 4169 896 4459 
Q 1184 4750 1600 4750 
z
" transform="scale(0.015625)"/>
       <path id="DejaVuSans-29" d="M 513 4856 
L 1013 4856 
Q 1481 4119 1714 3412 
Q 1947 2706 1947 2009 
Q 1947 1309 1714 600 
Q 1481 -109 1013 -844 
L 513 -844 
Q 928 -128 1133 580 
Q 1338 1288 1338 2009 
Q 1338 2731 1133 3434 
Q 928 4138 513 4856 
z
" transform="scale(0.015625)"/>
      </defs>
      <use xlink:href="#DejaVuSans-4c"/>
      <use xlink:href="#DejaVuSans-6f" transform="translate(53.962891 0)"/>
      <use xlink:href="#DejaVuSans-6e" transform="translate(115.144531 0)"/>
      <use xlink:href="#DejaVuSans-67" transform="translate(178.523438 0)"/>
      <use xlink:href="#DejaVuSans-69" transform="translate(242 0)"/>
      <use xlink:href="#DejaVuSans-74" transform="translate(269.783203 0)"/>
      <use xlink:href="#DejaVuSans-75" transform="translate(308.992188 0)"/>
      <use xlink:href="#DejaVuSans-64" transform="translate(372.371094 0)"/>
      <use xlink:href="#DejaVuSans-65" transform="translate(435.847656 0)"/>
      <use xlink:href="#DejaVuSans-20" transform="translate(497.371094 0)"/>
      <use xlink:href="#DejaVuSans-28" transform="translate(529.158203 0)"/>
      <use xlink:href="#DejaVuSans-b0" transform="translate(568.171875 0)"/>
      <use xlink:href="#DejaVuSans-29" transform="translate(618.171875 0)"/>
     </g>
    </g>
   </g>
   <g id="matplotlib.axis_2">
    <g id="ytick_1">
     <g id="line2d_19">
      <path d="M 90 580.108413 
L 648 580.108413 
" clip-path="url(#p2b73227700)" style="fill: none; stroke: #b0b0b0; stroke-width: 0.8; stroke-linecap: square"/>
     </g>
     <g id="line2d_20">
      <defs>
       <path id="m8678c10c5c" d="M 0 0 
L -3.5 0 
" style="stroke: #000000; stroke-width: 0.8"/>
      </defs>
      <g>
       <use xlink:href="#m8678c10c5c" x="90" y="580.108413" style="stroke: #000000; stroke-width: 0.8"/>
      </g>
     </g>
     <g id="text_11">
      <!-- −15.44 -->
      <g transform="translate(45.992188 583.907632) scale(0.1 -0.1)">
       <defs>
        <path id="DejaVuSans-31" d="M 794 531 
L 1825 531 
L 1825 4091 
L 703 3866 
L 703 4441 
L 1819 4666 
L 2450 4666 
L 2450 531 
L 3481 531 
L 3481 0 
L 794 0 
L 794 531 
z
" transform="scale(0.015625)"/>
       </defs>
       <use xlink:href="#DejaVuSans-2212"/>
       <use xlink:href="#DejaVuSans-31" transform="translate(83.789062 0)"/>
       <use xlink:href="#DejaVuSans-35" transform="translate(147.412109 0)"/>
       <use xlink:href="#DejaVuSans-2e" transform="translate(211.035156 0)"/>
       <use xlink:href="#DejaVuSans-34" transform="translate(242.822266 0)"/>
       <use xlink:href="#DejaVuSans-34" transform="translate(306.445312 0)"/>
      </g>
     </g>
    </g>
    <g id="ytick_2">
     <g id="line2d_21">
      <path d="M 90 525.676592 
L 648 525.676592 
" clip-path="url(#p2b73227700)" style="fill: none; stroke: #b0b0b0; stroke-width: 0.8; stroke-linecap: square"/>
     </g>
     <g id="line2d_22">
      <g>
       <use xlink:href="#m8678c10c5c" x="90" y="525.676592" style="stroke: #000000; stroke-width: 0.8"/>
      </g>
     </g>
     <g id="text_12">
      <!-- −15.42 -->
      <g transform="translate(45.992188 529.475811) scale(0.1 -0.1)">
       <use xlink:href="#DejaVuSans-2212"/>
       <use xlink:href="#DejaVuSans-31" transform="translate(83.789062 0)"/>
       <use xlink:href="#DejaVuSans-35" transform="translate(147.412109 0)"/>
       <use xlink:href="#DejaVuSans-2e" transform="translate(211.035156 0)"/>
       <use xlink:href="#DejaVuSans-34" transform="translate(242.822266 0)"/>
       <use xlink:href="#DejaVuSans-32" transform="translate(306.445312 0)"/>
      </g>
     </g>
    </g>
    <g id="ytick_3">
     <g id="line2d_23">
      <path d="M 90 471.244771 
L 648 471.244771 
" clip-path="url(#p2b73227700)" style="fill: none; stroke: #b0b0b0; stroke-width: 0.8; stroke-linecap: square"/>
     </g>
     <g id="line2d_24">
      <g>
       <use xlink:href="#m8678c10c5c" x="90" y="471.244771" style="stroke: #000000; stroke-width: 0.8"/>
      </g>
     </g>
     <g id="text_13">
      <!-- −15.40 -->
      <g transform="translate(45.992188 475.043989) scale(0.1 -0.1)">
       <use xlink:href="#DejaVuSans-2212"/>
       <use xlink:href="#DejaVuSans-31" transform="translate(83.789062 0)"/>
       <use xlink:href="#DejaVuSans-35" transform="translate(147.412109 0)"/>
       <use xlink:href="#DejaVuSans-2e" transform="translate(211.035156 0)"/>
       <use xlink:href="#DejaVuSans-34" transform="translate(242.822266 0)"/>
       <use xlink:href="#DejaVuSans-30" transform="translate(306.445312 0)"/>
      </g>
     </g>
    </g>
    <g id="ytick_4">
     <g id="line2d_25">
      <path d="M 90 416.812949 
L 648 416.812949 
" clip-path="url(#p2b73227700)" style="fill: none; stroke: #b0b0b0; stroke-width: 0.8; stroke-linecap: square"/>
     </g>
     <g id="line2d_26">
      <g>
       <use xlink:href="#m8678c10c5c" x="90" y="416.812949" style="stroke: #000000; stroke-width: 0.8"/>
      </g>
     </g>
     <g id="text_14">
      <!-- −15.38 -->
      <g transform="translate(45.992188 420.612168) scale(0.1 -0.1)">
       <defs>
        <path id="DejaVuSans-38" d="M 2034 2216 
Q 1584 2216 1326 1975 
Q 1069 1734 1069 1313 
Q 1069 891 1326 650 
Q 1584 409 2034 409 
Q 2484 409 2743 651 
Q 3003 894 3003 1313 
Q 3003 1734 2745 1975 
Q 2488 2216 2034 2216 
z
M 1403 2484 
Q 997 2584 770 2862 
Q 544 3141 544 3541 
Q 544 4100 942 4425 
Q 1341 4750 2034 4750 
Q 2731 4750 3128 4425 
Q 3525 4100 3525 3541 
Q 3525 3141 3298 2862 
Q 3072 2584 2669 2484 
Q 3125 2378 3379 2068 
Q 3634 1759 3634 1313 
Q 3634 634 3220 271 
Q 2806 -91 2034 -91 
Q 1263 -91 848 271 
Q 434 634 434 1313 
Q 434 1759 690 2068 
Q 947 2378 1403 2484 
z
M 1172 3481 
Q 1172 3119 1398 2916 
Q 1625 2713 2034 2713 
Q 2441 2713 2670 2916 
Q 2900 3119 2900 3481 
Q 2900 3844 2670 4047 
Q 2441 4250 2034 4250 
Q 1625 4250 1398 4047 
Q 1172 3844 1172 3481 
z
" transform="scale(0.015625)"/>
       </defs>
       <use xlink:href="#DejaVuSans-2212"/>
       <use xlink:href="#DejaVuSans-31" transform="translate(83.789062 0)"/>
       <use xlink:href="#DejaVuSans-35" transform="translate(147.412109 0)"/>
       <use xlink:href="#DejaVuSans-2e" transform="translate(211.035156 0)"/>
       <use xlink:href="#DejaVuSans-33" transform="translate(242.822266 0)"/>
       <use xlink:href="#DejaVuSans-38" transform="translate(306.445312 0)"/>
      </g>
     </g>
    </g>
    <g id="ytick_5">
     <g id="line2d_27">
      <path d="M 90 362.381128 
L 648 362.381128 
" clip-path="url(#p2b73227700)" style="fill: none; stroke: #b0b0b0; stroke-width: 0.8; stroke-linecap: square"/>
     </g>
     <g id="line2d_28">
      <g>
       <use xlink:href="#m8678c10c5c" x="90" y="362.381128" style="stroke: #000000; stroke-width: 0.8"/>
      </g>
     </g>
     <g id="text_15">
      <!-- −15.36 -->
      <g transform="translate(45.992188 366.180347) scale(0.1 -0.1)">
       <defs>
        <path id="DejaVuSans-36" d="M 2113 2584 
Q 1688 2584 1439 2293 
Q 1191 2003 1191 1497 
Q 1191 994 1439 701 
Q 1688 409 2113 409 
Q 2538 409 2786 701 
Q 3034 994 3034 1497 
Q 3034 2003 2786 2293 
Q 2538 2584 2113 2584 
z
M 3366 4563 
L 3366 3988 
Q 3128 4100 2886 4159 
Q 2644 4219 2406 4219 
Q 1781 4219 1451 3797 
Q 1122 3375 1075 2522 
Q 1259 2794 1537 2939 
Q 1816 3084 2150 3084 
Q 2853 3084 3261 2657 
Q 3669 2231 3669 1497 
Q 3669 778 3244 343 
Q 2819 -91 2113 -91 
Q 1303 -91 875 529 
Q 447 1150 447 2328 
Q 447 3434 972 4092 
Q 1497 4750 2381 4750 
Q 2619 4750 2861 4703 
Q 3103 4656 3366 4563 
z
" transform="scale(0.015625)"/>
       </defs>
       <use xlink:href="#DejaVuSans-2212"/>
       <use xlink:href="#DejaVuSans-31" transform="translate(83.789062 0)"/>
       <use xlink:href="#DejaVuSans-35" transform="translate(147.412109 0)"/>
       <use xlink:href="#DejaVuSans-2e" transform="translate(211.035156 0)"/>
       <use xlink:href="#DejaVuSans-33" transform="translate(242.822266 0)"/>
       <use xlink:href="#DejaVuSans-36" transform="translate(306.445312 0)"/>
      </g>
     </g>
    </g>
    <g id="ytick_6">
     <g id="line2d_29">
      <path d="M 90 307.949307 
L 648 307.949307 
" clip-path="url(#p2b73227700)" style="fill: none; stroke: #b0b0b0; stroke-width: 0.8; stroke-linecap: square"/>
     </g>
     <g id="line2d_30">
      <g>
       <use xlink:href="#m8678c10c5c" x="90" y="307.949307" style="stroke: #000000; stroke-width: 0.8"/>
      </g>
     </g>
     <g id="text_16">
      <!-- −15.34 -->
      <g transform="translate(45.992188 311.748526) scale(0.1 -0.1)">
       <use xlink:href="#DejaVuSans-2212"/>
       <use xlink:href="#DejaVuSans-31" transform="translate(83.789062 0)"/>
       <use xlink:href="#DejaVuSans-35" transform="translate(147.412109 0)"/>
       <use xlink:href="#DejaVuSans-2e" transform="translate(211.035156 0)"/>
       <use xlink:href="#DejaVuSans-33" transform="translate(242.822266 0)"/>
       <use xlink:href="#DejaVuSans-34" transform="translate(306.445312 0)"/>
      </g>
     </g>
    </g>
    <g id="ytick_7">
     <g id="line2d_31">
      <path d="M 90 253.517486 
L 648 253.517486 
" clip-path="url(#p2b73227700)" style="fill: none; stroke: #b0b0b0; stroke-width: 0.8; stroke-linecap: square"/>
     </g>
     <g id="line2d_32">
      <g>
       <use xlink:href="#m8678c10c5c" x="90" y="253.517486" style="stroke: #000000; stroke-width: 0.8"/>
      </g>
     </g>
     <g id="text_17">
      <!-- −15.32 -->
      <g transform="translate(45.992188 257.316704) scale(0.1 -0.1)">
       <use xlink:href="#DejaVuSans-2212"/>
       <use xlink:href="#DejaVuSans-31" transform="translate(83.789062 0)"/>
       <use xlink:href="#DejaVuSans-35" transform="translate(147.412109 0)"/>
       <use xlink:href="#DejaVuSans-2e" transform="translate(211.035156 0)"/>
       <use xlink:href="#DejaVuSans-33" transform="translate(242.822266 0)"/>
       <use xlink:href="#DejaVuSans-32" transform="translate(306.445312 0)"/>
      </g>
     </g>
    </g>
    <g id="text_18">
     <!-- Latitude (°) -->
     <g transform="translate(39.9125 464.889531) rotate(-90) scale(0.1 -0.1)">
      <defs>
       <path id="DejaVuSans-61" d="M 2194 1759 
Q 1497 1759 1228 1600 
Q 959 1441 959 1056 
Q 959 750 1161 570 
Q 1363 391 1709 391 
Q 2188 391 2477 730 
Q 2766 1069 2766 1631 
L 2766 1759 
L 2194 1759 
z
M 3341 1997 
L 3341 0 
L 2766 0 
L 2766 531 
Q 2569 213 2275 61 
Q 1981 -91 1556 -91 
Q 1019 -91 701 211 
Q 384 513 384 1019 
Q 384 1609 779 1909 
Q 1175 2209 1959 2209 
L 2766 2209 
L 2766 2266 
Q 2766 2663 2505 2880 
Q 2244 3097 1772 3097 
Q 1472 3097 1187 3025 
Q 903 2953 641 2809 
L 641 3341 
Q 956 3463 1253 3523 
Q 1550 3584 1831 3584 
Q 2591 3584 2966 3190 
Q 3341 2797 3341 1997 
z
" transform="scale(0.015625)"/>
      </defs>
      <use xlink:href="#DejaVuSans-4c"/>
      <use xlink:href="#DejaVuSans-61" transform="translate(55.712891 0)"/>
      <use xlink:href="#DejaVuSans-74" transform="translate(116.992188 0)"/>
      <use xlink:href="#DejaVuSans-69" transform="translate(156.201172 0)"/>
      <use xlink:href="#DejaVuSans-74" transform="translate(183.984375 0)"/>
      <use xlink:href="#DejaVuSans-75" transform="translate(223.193359 0)"/>
      <use xlink:href="#DejaVuSans-64" transform="translate(286.572266 0)"/>
      <use xlink:href="#DejaVuSans-65" transform="translate(350.048828 0)"/>
      <use xlink:href="#DejaVuSans-20" transform="translate(411.572266 0)"/>
      <use xlink:href="#DejaVuSans-28" transform="translate(443.359375 0)"/>
      <use xlink:href="#DejaVuSans-b0" transform="translate(482.373047 0)"/>
      <use xlink:href="#DejaVuSans-29" transform="translate(532.373047 0)"/>
     </g>
    </g>
   </g>
   <g id="patch_3">
    <path d="M 90 632.400718 
L 90 240.239282 
" style="fill: none; stroke: #000000; stroke-width: 0.8; stroke-linejoin: miter; stroke-linecap: square"/>
   </g>
   <g id="patch_4">
    <path d="M 648 632.400718 
L 648 240.239282 
" style="fill: none; stroke: #000000; stroke-width: 0.8; stroke-linejoin: miter; stroke-linecap: square"/>
   </g>
   <g id="patch_5">
    <path d="M 90 632.400718 
L 648 632.400718 
" style="fill: none; stroke: #000000; stroke-width: 0.8; stroke-linejoin: miter; stroke-linecap: square"/>
   </g>
   <g id="patch_6">
    <path d="M 90 240.239282 
L 648 240.239282 
" style="fill: none; stroke: #000000; stroke-width: 0.8; stroke-linejoin: miter; stroke-linecap: square"/>
   </g>
   <g id="legend_1">
    <g id="patch_7">
     <path d="M 279.8375 750.124881 
L 458.1625 750.124881 
Q 460.1625 750.124881 460.1625 748.124881 
L 460.1625 717.833006 
Q 460.1625 715.833006 458.1625 715.833006 
L 279.8375 715.833006 
Q 277.8375 715.833006 277.8375 717.833006 
L 277.8375 748.124881 
Q 277.8375 750.124881 279.8375 750.124881 
z
" style="fill: #ffffff; opacity: 0.8; stroke: #cccccc; stroke-linejoin: miter"/>
    </g>
    <g id="text_19">
     <!-- Legenda -->
     <g transform="translate(343.280625 728.951131) scale(0.12 -0.12)">
      <use xlink:href="#DejaVuSans-4c"/>
      <use xlink:href="#DejaVuSans-65" transform="translate(53.962891 0)"/>
      <use xlink:href="#DejaVuSans-67" transform="translate(115.486328 0)"/>
      <use xlink:href="#DejaVuSans-65" transform="translate(178.962891 0)"/>
      <use xlink:href="#DejaVuSans-6e" transform="translate(240.486328 0)"/>
      <use xlink:href="#DejaVuSans-64" transform="translate(303.865234 0)"/>
      <use xlink:href="#DejaVuSans-61" transform="translate(367.341797 0)"/>
     </g>
    </g>
    <g id="patch_8">
     <path d="M 281.8375 744.045193 
L 301.8375 744.045193 
L 301.8375 737.045193 
L 281.8375 737.045193 
L 281.8375 744.045193 
z
" style="fill: none; stroke: #000000; stroke-linejoin: miter"/>
    </g>
    <g id="text_20">
     <!-- Gleba Federal -->
     <g transform="translate(309.8375 744.045193) scale(0.1 -0.1)">
      <defs>
       <path id="DejaVuSans-47" d="M 3809 666 
L 3809 1919 
L 2778 1919 
L 2778 2438 
L 4434 2438 
L 4434 434 
Q 4069 175 3628 42 
Q 3188 -91 2688 -91 
Q 1594 -91 976 548 
Q 359 1188 359 2328 
Q 359 3472 976 4111 
Q 1594 4750 2688 4750 
Q 3144 4750 3555 4637 
Q 3966 4525 4313 4306 
L 4313 3634 
Q 3963 3931 3569 4081 
Q 3175 4231 2741 4231 
Q 1884 4231 1454 3753 
Q 1025 3275 1025 2328 
Q 1025 1384 1454 906 
Q 1884 428 2741 428 
Q 3075 428 3337 486 
Q 3600 544 3809 666 
z
" transform="scale(0.015625)"/>
       <path id="DejaVuSans-6c" d="M 603 4863 
L 1178 4863 
L 1178 0 
L 603 0 
L 603 4863 
z
" transform="scale(0.015625)"/>
       <path id="DejaVuSans-62" d="M 3116 1747 
Q 3116 2381 2855 2742 
Q 2594 3103 2138 3103 
Q 1681 3103 1420 2742 
Q 1159 2381 1159 1747 
Q 1159 1113 1420 752 
Q 1681 391 2138 391 
Q 2594 391 2855 752 
Q 3116 1113 3116 1747 
z
M 1159 2969 
Q 1341 3281 1617 3432 
Q 1894 3584 2278 3584 
Q 2916 3584 3314 3078 
Q 3713 2572 3713 1747 
Q 3713 922 3314 415 
Q 2916 -91 2278 -91 
Q 1894 -91 1617 61 
Q 1341 213 1159 525 
L 1159 0 
L 581 0 
L 581 4863 
L 1159 4863 
L 1159 2969 
z
" transform="scale(0.015625)"/>
       <path id="DejaVuSans-46" d="M 628 4666 
L 3309 4666 
L 3309 4134 
L 1259 4134 
L 1259 2759 
L 3109 2759 
L 3109 2228 
L 1259 2228 
L 1259 0 
L 628 0 
L 628 4666 
z
" transform="scale(0.015625)"/>
       <path id="DejaVuSans-72" d="M 2631 2963 
Q 2534 3019 2420 3045 
Q 2306 3072 2169 3072 
Q 1681 3072 1420 2755 
Q 1159 2438 1159 1844 
L 1159 0 
L 581 0 
L 581 3500 
L 1159 3500 
L 1159 2956 
Q 1341 3275 1631 3429 
Q 1922 3584 2338 3584 
Q 2397 3584 2469 3576 
Q 2541 3569 2628 3553 
L 2631 2963 
z
" transform="scale(0.015625)"/>
      </defs>
      <use xlink:href="#DejaVuSans-47"/>
      <use xlink:href="#DejaVuSans-6c" transform="translate(77.490234 0)"/>
      <use xlink:href="#DejaVuSans-65" transform="translate(105.273438 0)"/>
      <use xlink:href="#DejaVuSans-62" transform="translate(166.796875 0)"/>
      <use xlink:href="#DejaVuSans-61" transform="translate(230.273438 0)"/>
      <use xlink:href="#DejaVuSans-20" transform="translate(291.552734 0)"/>
      <use xlink:href="#DejaVuSans-46" transform="translate(323.339844 0)"/>
      <use xlink:href="#DejaVuSans-65" transform="translate(375.359375 0)"/>
      <use xlink:href="#DejaVuSans-64" transform="translate(436.882812 0)"/>
      <use xlink:href="#DejaVuSans-65" transform="translate(500.359375 0)"/>
      <use xlink:href="#DejaVuSans-72" transform="translate(561.882812 0)"/>
      <use xlink:href="#DejaVuSans-61" transform="translate(602.996094 0)"/>
      <use xlink:href="#DejaVuSans-6c" transform="translate(664.275391 0)"/>
     </g>
    </g>
    <g id="patch_9">
     <path d="M 399.045312 744.045193 
L 419.045312 744.045193 
L 419.045312 737.045193 
L 399.045312 737.045193 
z
" style="fill: #e0bd1f; opacity: 0.6"/>
    </g>
    <g id="text_21">
     <!-- SIGEF -->
     <g transform="translate(427.045312 744.045193) scale(0.1 -0.1)">
      <defs>
       <path id="DejaVuSans-53" d="M 3425 4513 
L 3425 3897 
Q 3066 4069 2747 4153 
Q 2428 4238 2131 4238 
Q 1616 4238 1336 4038 
Q 1056 3838 1056 3469 
Q 1056 3159 1242 3001 
Q 1428 2844 1947 2747 
L 2328 2669 
Q 3034 2534 3370 2195 
Q 3706 1856 3706 1288 
Q 3706 609 3251 259 
Q 2797 -91 1919 -91 
Q 1588 -91 1214 -16 
Q 841 59 441 206 
L 441 856 
Q 825 641 1194 531 
Q 1563 422 1919 422 
Q 2459 422 2753 634 
Q 3047 847 3047 1241 
Q 3047 1584 2836 1778 
Q 2625 1972 2144 2069 
L 1759 2144 
Q 1053 2284 737 2584 
Q 422 2884 422 3419 
Q 422 4038 858 4394 
Q 1294 4750 2059 4750 
Q 2388 4750 2728 4690 
Q 3069 4631 3425 4513 
z
" transform="scale(0.015625)"/>
       <path id="DejaVuSans-49" d="M 628 4666 
L 1259 4666 
L 1259 0 
L 628 0 
L 628 4666 
z
" transform="scale(0.015625)"/>
       <path id="DejaVuSans-45" d="M 628 4666 
L 3578 4666 
L 3578 4134 
L 1259 4134 
L 1259 2753 
L 3481 2753 
L 3481 2222 
L 1259 2222 
L 1259 531 
L 3634 531 
L 3634 0 
L 628 0 
L 628 4666 
z
" transform="scale(0.015625)"/>
      </defs>
      <use xlink:href="#DejaVuSans-53"/>
      <use xlink:href="#DejaVuSans-49" transform="translate(63.476562 0)"/>
      <use xlink:href="#DejaVuSans-47" transform="translate(92.96875 0)"/>
      <use xlink:href="#DejaVuSans-45" transform="translate(170.458984 0)"/>
      <use xlink:href="#DejaVuSans-46" transform="translate(233.642578 0)"/>
     </g>
    </g>
   </g>
  </g>
 </g>
 <defs>
  <clipPath id="p2b73227700">
   <rect x="90" y="240.239282" width="558" height="392.161437"/>
  </clipPath>
 </defs>
</svg>
