<?xml version="1.0" encoding="utf-8" standalone="no"?>
<!DOCTYPE svg PUBLIC "-//W3C//DTD SVG 1.1//EN"
  "http://www.w3.org/Graphics/SVG/1.1/DTD/svg11.dtd">
<svg xmlns:xlink="http://www.w3.org/1999/xlink" width="720pt" height="864pt" viewBox="0 0 720 864" xmlns="http://www.w3.org/2000/svg" version="1.1">
 <metadata>
  <rdf:RDF xmlns:dc="http://purl.org/dc/elements/1.1/" xmlns:cc="http://creativecommons.org/ns#" xmlns:rdf="http://www.w3.org/1999/02/22-rdf-syntax-ns#">
   <cc:Work>
    <dc:type rdf:resource="http://purl.org/dc/dcmitype/StillImage"/>
    <dc:date>2025-06-16T17:49:53.699348</dc:date>
    <dc:format>image/svg+xml</dc:format>
    <dc:creator>
     <cc:Agent>
      <dc:title>Matplotlib v3.10.1, https://matplotlib.org/</dc:title>
     </cc:Agent>
    </dc:creator>
   </cc:Work>
  </rdf:RDF>
 </metadata>
 <defs>
  <style type="text/css">*{stroke-linejoin: round; stroke-linecap: butt}</style>
 </defs>
 <g id="figure_1">
  <g id="patch_1">
   <path d="M 0 864 
L 720 864 
L 720 0 
L 0 0 
z
" style="fill: #ffffff"/>
  </g>
  <g id="axes_1">
   <g id="patch_2">
    <path d="M 90 550.787629 
L 648 550.787629 
L 648 321.852371 
L 90 321.852371 
z
" style="fill: #ffffff"/>
   </g>
   <g id="PatchCollection_1">
    <defs>
     <path id="m6dd7f1f927" d="M 451.083418 -531.741481 
L 437.818086 -511.673287 
L 622.424258 -488.33443 
L 622.636364 -488.307625 
L 622.54897 -488.24403 
L 617.932364 -484.883703 
L 613.387863 -483.222148 
L 607.772209 -480.016194 
L 590.483021 -454.648225 
L 583.997383 -449.130853 
L 580.446971 -444.794335 
L 575.539524 -436.534629 
L 569.511406 -421.23792 
L 557.776785 -401.442126 
L 549.217946 -389.407028 
L 549.1067 -389.250581 
L 548.716833 -389.243348 
L 346.355055 -385.496699 
L 392.0531 -447.445623 
L 358.344923 -447.230228 
L 356.857349 -448.60541 
L 356.644695 -449.890496 
L 416.618426 -530.080313 
L 451.083418 -531.741481 
" style="stroke: #0000ff; stroke-width: 0.5"/>
    </defs>
    <g clip-path="url(#p58105077e3)">
     <use xlink:href="#m6dd7f1f927" x="0" y="864" style="fill: #e0bd1f; stroke: #0000ff; stroke-width: 0.5"/>
    </g>
   </g>
   <g id="PatchCollection_2">
    <path d="M 116.332618 462.168521 
L 128.83732 464.211207 
L 159.301033 467.315218 
L 213.213293 473.648304 
L 256.196121 475.801079 
L 312.065886 478.088401 
L 312.705121 478.842122 
L 344.50932 478.797162 
L 346.335092 478.503001 
L 548.696835 474.756611 
L 547.461296 477.204509 
L 546.704928 480.222825 
L 544.845653 485.591042 
L 543.191874 489.235436 
L 542.833176 491.557867 
L 542.27337 493.229723 
L 541.222434 497.712538 
L 540.928735 499.863865 
L 539.585548 503.029756 
L 538.760671 506.377231 
L 537.125606 509.42237 
L 536.183498 510.301988 
L 532.763904 511.380715 
L 531.051889 511.151114 
L 528.560938 508.964145 
L 524.319309 507.290991 
L 521.856321 507.357284 
L 519.183169 507.874959 
L 515.610917 509.064901 
L 511.126515 511.495167 
L 509.020443 512.509615 
L 507.42507 514.37198 
L 507.274517 514.237176 
L 506.269014 512.393504 
L 502.564897 507.585368 
L 500.750095 508.652358 
L 498.859711 505.621354 
L 498.634541 503.755973 
L 497.270325 504.030465 
L 496.332047 504.645651 
L 495.353525 504.006122 
L 495.209839 503.415851 
L 495.865202 502.521826 
L 496.863546 500.468971 
L 495.91702 500.137363 
L 494.864707 500.642555 
L 494.278737 500.273061 
L 493.48528 498.532438 
L 493.155838 495.654945 
L 491.10934 493.324482 
L 488.273717 494.393055 
L 487.908003 492.327924 
L 483.664311 493.738586 
L 480.951716 491.587459 
L 481.429174 490.107317 
L 476.875863 487.023602 
L 475.430124 486.990313 
L 473.052374 482.858222 
L 472.159376 482.623224 
L 471.199261 483.024678 
L 470.625232 482.626162 
L 467.818698 484.008121 
L 465.89677 486.064414 
L 465.599123 486.948427 
L 467.178464 487.060121 
L 467.500227 488.072975 
L 467.20818 488.666909 
L 465.851248 488.386888 
L 464.987647 488.67067 
L 462.678591 488.787301 
L 460.794567 490.189631 
L 459.120545 490.644433 
L 458.934839 489.901015 
L 459.252222 488.923795 
L 458.849935 487.685319 
L 458.125734 487.928294 
L 457.976889 489.083168 
L 457.477637 489.043765 
L 456.951035 488.111899 
L 455.716445 487.920934 
L 455.504297 487.444563 
L 454.485518 486.961348 
L 454.395425 488.367584 
L 454.63083 488.826277 
L 454.59159 489.079799 
L 453.036518 488.594338 
L 452.437284 488.728349 
L 451.053734 486.891017 
L 450.511795 485.725244 
L 449.428032 486.529733 
L 448.776101 486.813899 
L 447.442134 486.315226 
L 446.768953 485.787217 
L 445.758875 487.174881 
L 446.960559 489.547477 
L 446.860254 490.84227 
L 446.474955 492.773874 
L 446.728398 494.176033 
L 447.113667 495.559784 
L 446.631278 495.774812 
L 444.372137 495.675623 
L 440.713984 495.353728 
L 438.8901 493.554883 
L 436.253375 494.188873 
L 434.61573 495.632519 
L 433.646943 494.395548 
L 434.926613 493.110773 
L 434.02956 492.417751 
L 429.800035 493.394381 
L 428.846873 493.033406 
L 426.594744 490.288034 
L 425.198576 489.929991 
L 424.611536 490.674876 
L 422.698276 490.615939 
L 421.564468 491.60979 
L 420.61368 492.197829 
L 417.510966 491.267133 
L 416.803105 490.380585 
L 414.984579 490.101301 
L 413.198371 490.347394 
L 412.253206 490.984912 
L 409.361251 490.218883 
L 409.327846 489.135018 
L 408.549714 488.707443 
L 406.551865 488.739703 
L 405.61428 490.363624 
L 404.180789 490.514664 
L 402.057696 492.589869 
L 401.507007 492.530443 
L 399.531594 491.172812 
L 398.171557 489.935998 
L 395.536519 490.534694 
L 393.988345 491.384305 
L 391.750098 491.548245 
L 390.734163 492.723569 
L 389.440053 492.603508 
L 387.588793 494.814578 
L 385.939883 497.298176 
L 385.392752 497.213063 
L 384.147844 496.199911 
L 381.955981 496.065186 
L 380.685633 496.19623 
L 378.979567 495.882422 
L 376.821458 496.609332 
L 375.861121 497.745593 
L 376.517499 498.491153 
L 377.361775 498.756449 
L 377.133512 499.147003 
L 375.911275 501.540083 
L 374.824452 502.545111 
L 374.261455 502.849852 
L 373.542553 502.937647 
L 372.93163 502.165533 
L 370.985355 503.284848 
L 370.674316 503.87956 
L 369.45881 504.186433 
L 367.010618 504.105326 
L 365.876959 501.548333 
L 364.409911 500.789646 
L 361.236722 500.372793 
L 358.50447 501.68424 
L 354.961126 500.136194 
L 352.746731 497.301077 
L 351.394433 497.668517 
L 350.933466 499.454403 
L 349.553155 500.516105 
L 347.458317 501.55446 
L 345.043637 501.243644 
L 344.612075 499.705986 
L 344.013691 499.430334 
L 342.299381 500.522084 
L 341.42279 500.403918 
L 340.801958 501.990833 
L 339.761056 502.214602 
L 338.158368 502.214303 
L 338.611379 503.853105 
L 339.174163 506.43545 
L 338.258111 507.079057 
L 336.816657 505.891575 
L 335.409388 505.708019 
L 334.586375 506.280548 
L 334.115289 509.580589 
L 332.786391 509.410712 
L 331.020813 507.921742 
L 331.164174 509.686597 
L 330.01486 510.874411 
L 328.894313 511.830007 
L 329.103558 513.234911 
L 328.529091 513.489798 
L 327.158201 513.291815 
L 326.031269 512.820212 
L 325.235238 514.657415 
L 323.502719 513.138624 
L 322.469894 513.385823 
L 321.890957 513.953155 
L 321.874446 514.60191 
L 321.746952 514.951426 
L 317.877861 517.736955 
L 316.320347 518.54287 
L 316.221506 518.966734 
L 314.053855 519.469517 
L 312.381943 519.362332 
L 311.245258 518.917517 
L 310.377496 518.715326 
L 307.353162 517.344791 
L 306.598258 516.771128 
L 306.123818 515.830221 
L 304.23496 514.293203 
L 302.114222 513.621255 
L 301.120152 513.109597 
L 300.033391 511.287628 
L 299.469813 510.957571 
L 298.67802 510.008513 
L 298.226212 509.767939 
L 297.130019 510.139268 
L 296.529362 511.328959 
L 296.389613 513.101332 
L 296.728645 515.003082 
L 297.973888 516.13477 
L 300.556196 516.563215 
L 300.984633 518.163243 
L 301.654643 518.850862 
L 301.758718 519.958713 
L 300.779808 523.535046 
L 299.620312 525.086641 
L 298.973284 525.212668 
L 298.144358 524.734948 
L 296.788363 523.493239 
L 295.790295 523.101503 
L 294.354332 523.411215 
L 292.356462 525.070008 
L 288.68082 525.46611 
L 288.168876 526.716387 
L 286.060389 527.157694 
L 284.778396 526.963047 
L 283.274378 527.069076 
L 282.721998 526.825152 
L 281.446773 527.158171 
L 279.127477 527.299809 
L 278.772552 528.08863 
L 276.867743 529.113067 
L 274.542376 529.987763 
L 270.510946 532.179981 
L 267.874297 533.82501 
L 267.056013 533.949001 
L 265.945927 533.736552 
L 263.685398 532.991644 
L 261.52418 534.166127 
L 261.912735 535.377589 
L 257.556016 531.923148 
L 256.411194 530.510568 
L 255.305859 531.346143 
L 254.600219 531.257811 
L 252.840384 531.583542 
L 252.523176 531.974361 
L 251.511441 531.754252 
L 250.530382 532.370504 
L 250.824143 532.983805 
L 250.132185 533.540832 
L 249.559327 533.504514 
L 247.853311 532.17145 
L 247.637193 531.686249 
L 247.827917 529.533071 
L 247.995673 525.398645 
L 246.177821 524.182912 
L 245.358066 523.254443 
L 244.254853 522.208058 
L 243.399501 521.895402 
L 241.807427 521.921719 
L 241.334857 522.612994 
L 240.48826 522.420221 
L 237.757125 522.285856 
L 237.189572 522.779775 
L 234.246248 524.816251 
L 231.617342 526.386741 
L 230.690411 527.071015 
L 229.708821 527.635914 
L 229.57999 527.916119 
L 227.626717 529.42066 
L 224.210087 529.353705 
L 222.680107 528.147296 
L 221.835597 527.806355 
L 221.358777 528.072989 
L 220.869399 527.699756 
L 220.212922 528.188448 
L 220.250781 528.529367 
L 218.801583 528.108554 
L 216.78419 527.978495 
L 216.22477 527.459165 
L 216.314618 527.06137 
L 216.621655 527.380173 
L 217.972115 526.277994 
L 217.609683 524.548273 
L 214.804495 525.207281 
L 214.723475 524.225491 
L 214.94734 523.339186 
L 214.212221 522.908051 
L 214.28361 522.432205 
L 215.404832 520.839728 
L 216.020393 520.784617 
L 216.563609 519.608707 
L 215.022968 519.303322 
L 213.185917 519.636575 
L 211.901374 519.320847 
L 210.666859 520.098118 
L 209.930817 520.894723 
L 208.960353 520.820398 
L 204.925919 522.899843 
L 205.538971 524.737695 
L 205.61215 526.248304 
L 205.495504 527.404903 
L 204.685878 529.030498 
L 203.70591 529.065846 
L 202.620547 529.774067 
L 202.758707 530.738811 
L 202.206213 532.336094 
L 203.109589 534.742534 
L 201.853212 534.9379 
L 201.214125 536.104572 
L 201.60685 537.033313 
L 201.454352 537.438271 
L 200.869568 537.904726 
L 198.75232 538.71336 
L 196.447231 539.103799 
L 194.971024 539.49457 
L 192.914492 540.381481 
L 193.63501 539.506457 
L 193.416365 538.905006 
L 192.454375 538.747767 
L 192.021267 538.5434 
L 192.51087 537.694036 
L 192.057066 536.923534 
L 191.29299 536.672164 
L 188.866587 537.420876 
L 187.880283 537.294514 
L 186.915082 536.568881 
L 185.300228 534.18042 
L 185.650736 533.239082 
L 185.569442 532.6339 
L 185.274095 532.20504 
L 185.135761 531.061707 
L 184.547128 530.635963 
L 182.159217 530.631688 
L 181.151462 531.345884 
L 180.479716 531.260704 
L 179.530157 531.94318 
L 178.055824 533.651878 
L 179.761637 534.466517 
L 180.116449 536.102766 
L 178.860957 536.942782 
L 178.206975 536.474334 
L 177.335306 536.3047 
L 176.976978 536.01025 
L 175.966426 536.173287 
L 175.628044 536.085232 
L 174.702423 536.02431 
L 173.974421 536.957654 
L 173.726514 537.500057 
L 173.398932 537.725137 
L 173.512501 537.335338 
L 173.350521 536.792746 
L 173.77457 536.303701 
L 173.737546 535.638239 
L 173.371294 534.899361 
L 172.178408 535.246684 
L 171.731941 535.554644 
L 170.621789 536.741106 
L 170.18535 536.992928 
L 169.933849 535.773669 
L 169.300373 535.575051 
L 168.414916 536.490913 
L 167.764183 536.367524 
L 166.187914 534.549515 
L 164.016661 533.201641 
L 162.617601 530.831911 
L 160.774517 529.327893 
L 158.956848 527.3181 
L 157.323447 526.228907 
L 157.123652 523.924022 
L 156.680673 522.753758 
L 155.677181 520.936156 
L 155.193634 520.55701 
L 155.031591 517.014361 
L 156.193061 517.357668 
L 156.723422 516.843729 
L 156.566081 515.909107 
L 155.790893 514.878489 
L 155.079211 514.478781 
L 154.782526 513.608398 
L 153.856446 512.200902 
L 152.255941 512.44899 
L 151.122185 509.37067 
L 151.339971 509.103764 
L 153.045508 508.890556 
L 153.006598 508.438157 
L 152.239634 507.235157 
L 151.529887 506.63265 
L 150.827427 506.983566 
L 150.519147 506.72819 
L 150.740303 505.895074 
L 150.429348 505.241092 
L 149.366871 504.143517 
L 147.749236 504.506065 
L 146.741523 504.757445 
L 146.049981 504.269292 
L 145.410571 503.672064 
L 145.010901 503.554486 
L 143.266081 504.742886 
L 142.817191 504.733639 
L 143.123178 503.401535 
L 142.633843 502.793574 
L 141.211831 503.38727 
L 140.324164 503.219857 
L 139.591166 502.277841 
L 140.34591 501.389172 
L 140.23477 500.785543 
L 139.307478 499.570194 
L 139.584559 498.794479 
L 140.755969 499.177742 
L 141.735764 498.971926 
L 141.834118 498.010474 
L 141.053232 497.612805 
L 141.236333 496.724067 
L 140.409377 495.55498 
L 140.228744 494.145169 
L 140.259088 491.788228 
L 139.367819 489.717964 
L 138.673873 488.436618 
L 137.365221 488.325142 
L 136.917025 487.943678 
L 134.733182 487.929508 
L 133.685106 488.682661 
L 133.394418 487.740377 
L 132.469827 487.647148 
L 131.201697 485.884241 
L 129.721496 484.229798 
L 129.071029 482.145583 
L 130.223351 479.370069 
L 129.921097 478.576337 
L 128.366604 478.968367 
L 127.381886 478.148864 
L 127.165216 477.3435 
L 126.464115 475.4989 
L 125.820134 474.827965 
L 125.403355 472.430223 
L 125.394336 470.538022 
L 121.683717 470.553089 
L 120.187991 468.453859 
L 119.598058 467.221687 
L 116.227796 466.537107 
L 115.487154 465.825024 
L 116.230581 463.966086 
L 115.363636 463.653738 
L 115.622044 463.085277 
L 116.332618 462.168521 
L 116.332618 462.168521 
" clip-path="url(#p58105077e3)" style="fill: none; stroke: #000000"/>
   </g>
   <g id="matplotlib.axis_1">
    <g id="xtick_1">
     <g id="line2d_1">
      <path d="M 160.962739 550.787629 
L 160.962739 321.852371 
" clip-path="url(#p58105077e3)" style="fill: none; stroke: #b0b0b0; stroke-width: 0.8; stroke-linecap: square"/>
     </g>
     <g id="line2d_2">
      <defs>
       <path id="mfb2737aff3" d="M 0 0 
L 0 3.5 
" style="stroke: #000000; stroke-width: 0.8"/>
      </defs>
      <g>
       <use xlink:href="#mfb2737aff3" x="160.962739" y="550.787629" style="stroke: #000000; stroke-width: 0.8"/>
      </g>
     </g>
     <g id="text_1">
      <!-- −56.02 -->
      <g transform="translate(149.829674 589.329011) rotate(-45) scale(0.1 -0.1)">
       <defs>
        <path id="DejaVuSans-2212" d="M 678 2272 
L 4684 2272 
L 4684 1741 
L 678 1741 
L 678 2272 
z
" transform="scale(0.015625)"/>
        <path id="DejaVuSans-35" d="M 691 4666 
L 3169 4666 
L 3169 4134 
L 1269 4134 
L 1269 2991 
Q 1406 3038 1543 3061 
Q 1681 3084 1819 3084 
Q 2600 3084 3056 2656 
Q 3513 2228 3513 1497 
Q 3513 744 3044 326 
Q 2575 -91 1722 -91 
Q 1428 -91 1123 -41 
Q 819 9 494 109 
L 494 744 
Q 775 591 1075 516 
Q 1375 441 1709 441 
Q 2250 441 2565 725 
Q 2881 1009 2881 1497 
Q 2881 1984 2565 2268 
Q 2250 2553 1709 2553 
Q 1456 2553 1204 2497 
Q 953 2441 691 2322 
L 691 4666 
z
" transform="scale(0.015625)"/>
        <path id="DejaVuSans-36" d="M 2113 2584 
Q 1688 2584 1439 2293 
Q 1191 2003 1191 1497 
Q 1191 994 1439 701 
Q 1688 409 2113 409 
Q 2538 409 2786 701 
Q 3034 994 3034 1497 
Q 3034 2003 2786 2293 
Q 2538 2584 2113 2584 
z
M 3366 4563 
L 3366 3988 
Q 3128 4100 2886 4159 
Q 2644 4219 2406 4219 
Q 1781 4219 1451 3797 
Q 1122 3375 1075 2522 
Q 1259 2794 1537 2939 
Q 1816 3084 2150 3084 
Q 2853 3084 3261 2657 
Q 3669 2231 3669 1497 
Q 3669 778 3244 343 
Q 2819 -91 2113 -91 
Q 1303 -91 875 529 
Q 447 1150 447 2328 
Q 447 3434 972 4092 
Q 1497 4750 2381 4750 
Q 2619 4750 2861 4703 
Q 3103 4656 3366 4563 
z
" transform="scale(0.015625)"/>
        <path id="DejaVuSans-2e" d="M 684 794 
L 1344 794 
L 1344 0 
L 684 0 
L 684 794 
z
" transform="scale(0.015625)"/>
        <path id="DejaVuSans-30" d="M 2034 4250 
Q 1547 4250 1301 3770 
Q 1056 3291 1056 2328 
Q 1056 1369 1301 889 
Q 1547 409 2034 409 
Q 2525 409 2770 889 
Q 3016 1369 3016 2328 
Q 3016 3291 2770 3770 
Q 2525 4250 2034 4250 
z
M 2034 4750 
Q 2819 4750 3233 4129 
Q 3647 3509 3647 2328 
Q 3647 1150 3233 529 
Q 2819 -91 2034 -91 
Q 1250 -91 836 529 
Q 422 1150 422 2328 
Q 422 3509 836 4129 
Q 1250 4750 2034 4750 
z
" transform="scale(0.015625)"/>
        <path id="DejaVuSans-32" d="M 1228 531 
L 3431 531 
L 3431 0 
L 469 0 
L 469 531 
Q 828 903 1448 1529 
Q 2069 2156 2228 2338 
Q 2531 2678 2651 2914 
Q 2772 3150 2772 3378 
Q 2772 3750 2511 3984 
Q 2250 4219 1831 4219 
Q 1534 4219 1204 4116 
Q 875 4013 500 3803 
L 500 4441 
Q 881 4594 1212 4672 
Q 1544 4750 1819 4750 
Q 2544 4750 2975 4387 
Q 3406 4025 3406 3419 
Q 3406 3131 3298 2873 
Q 3191 2616 2906 2266 
Q 2828 2175 2409 1742 
Q 1991 1309 1228 531 
z
" transform="scale(0.015625)"/>
       </defs>
       <use xlink:href="#DejaVuSans-2212"/>
       <use xlink:href="#DejaVuSans-35" transform="translate(83.789062 0)"/>
       <use xlink:href="#DejaVuSans-36" transform="translate(147.412109 0)"/>
       <use xlink:href="#DejaVuSans-2e" transform="translate(211.035156 0)"/>
       <use xlink:href="#DejaVuSans-30" transform="translate(242.822266 0)"/>
       <use xlink:href="#DejaVuSans-32" transform="translate(306.445312 0)"/>
      </g>
     </g>
    </g>
    <g id="xtick_2">
     <g id="line2d_3">
      <path d="M 240.736499 550.787629 
L 240.736499 321.852371 
" clip-path="url(#p58105077e3)" style="fill: none; stroke: #b0b0b0; stroke-width: 0.8; stroke-linecap: square"/>
     </g>
     <g id="line2d_4">
      <g>
       <use xlink:href="#mfb2737aff3" x="240.736499" y="550.787629" style="stroke: #000000; stroke-width: 0.8"/>
      </g>
     </g>
     <g id="text_2">
      <!-- −56.00 -->
      <g transform="translate(229.603434 589.329011) rotate(-45) scale(0.1 -0.1)">
       <use xlink:href="#DejaVuSans-2212"/>
       <use xlink:href="#DejaVuSans-35" transform="translate(83.789062 0)"/>
       <use xlink:href="#DejaVuSans-36" transform="translate(147.412109 0)"/>
       <use xlink:href="#DejaVuSans-2e" transform="translate(211.035156 0)"/>
       <use xlink:href="#DejaVuSans-30" transform="translate(242.822266 0)"/>
       <use xlink:href="#DejaVuSans-30" transform="translate(306.445312 0)"/>
      </g>
     </g>
    </g>
    <g id="xtick_3">
     <g id="line2d_5">
      <path d="M 320.510258 550.787629 
L 320.510258 321.852371 
" clip-path="url(#p58105077e3)" style="fill: none; stroke: #b0b0b0; stroke-width: 0.8; stroke-linecap: square"/>
     </g>
     <g id="line2d_6">
      <g>
       <use xlink:href="#mfb2737aff3" x="320.510258" y="550.787629" style="stroke: #000000; stroke-width: 0.8"/>
      </g>
     </g>
     <g id="text_3">
      <!-- −55.98 -->
      <g transform="translate(309.377193 589.329011) rotate(-45) scale(0.1 -0.1)">
       <defs>
        <path id="DejaVuSans-39" d="M 703 97 
L 703 672 
Q 941 559 1184 500 
Q 1428 441 1663 441 
Q 2288 441 2617 861 
Q 2947 1281 2994 2138 
Q 2813 1869 2534 1725 
Q 2256 1581 1919 1581 
Q 1219 1581 811 2004 
Q 403 2428 403 3163 
Q 403 3881 828 4315 
Q 1253 4750 1959 4750 
Q 2769 4750 3195 4129 
Q 3622 3509 3622 2328 
Q 3622 1225 3098 567 
Q 2575 -91 1691 -91 
Q 1453 -91 1209 -44 
Q 966 3 703 97 
z
M 1959 2075 
Q 2384 2075 2632 2365 
Q 2881 2656 2881 3163 
Q 2881 3666 2632 3958 
Q 2384 4250 1959 4250 
Q 1534 4250 1286 3958 
Q 1038 3666 1038 3163 
Q 1038 2656 1286 2365 
Q 1534 2075 1959 2075 
z
" transform="scale(0.015625)"/>
        <path id="DejaVuSans-38" d="M 2034 2216 
Q 1584 2216 1326 1975 
Q 1069 1734 1069 1313 
Q 1069 891 1326 650 
Q 1584 409 2034 409 
Q 2484 409 2743 651 
Q 3003 894 3003 1313 
Q 3003 1734 2745 1975 
Q 2488 2216 2034 2216 
z
M 1403 2484 
Q 997 2584 770 2862 
Q 544 3141 544 3541 
Q 544 4100 942 4425 
Q 1341 4750 2034 4750 
Q 2731 4750 3128 4425 
Q 3525 4100 3525 3541 
Q 3525 3141 3298 2862 
Q 3072 2584 2669 2484 
Q 3125 2378 3379 2068 
Q 3634 1759 3634 1313 
Q 3634 634 3220 271 
Q 2806 -91 2034 -91 
Q 1263 -91 848 271 
Q 434 634 434 1313 
Q 434 1759 690 2068 
Q 947 2378 1403 2484 
z
M 1172 3481 
Q 1172 3119 1398 2916 
Q 1625 2713 2034 2713 
Q 2441 2713 2670 2916 
Q 2900 3119 2900 3481 
Q 2900 3844 2670 4047 
Q 2441 4250 2034 4250 
Q 1625 4250 1398 4047 
Q 1172 3844 1172 3481 
z
" transform="scale(0.015625)"/>
       </defs>
       <use xlink:href="#DejaVuSans-2212"/>
       <use xlink:href="#DejaVuSans-35" transform="translate(83.789062 0)"/>
       <use xlink:href="#DejaVuSans-35" transform="translate(147.412109 0)"/>
       <use xlink:href="#DejaVuSans-2e" transform="translate(211.035156 0)"/>
       <use xlink:href="#DejaVuSans-39" transform="translate(242.822266 0)"/>
       <use xlink:href="#DejaVuSans-38" transform="translate(306.445312 0)"/>
      </g>
     </g>
    </g>
    <g id="xtick_4">
     <g id="line2d_7">
      <path d="M 400.284018 550.787629 
L 400.284018 321.852371 
" clip-path="url(#p58105077e3)" style="fill: none; stroke: #b0b0b0; stroke-width: 0.8; stroke-linecap: square"/>
     </g>
     <g id="line2d_8">
      <g>
       <use xlink:href="#mfb2737aff3" x="400.284018" y="550.787629" style="stroke: #000000; stroke-width: 0.8"/>
      </g>
     </g>
     <g id="text_4">
      <!-- −55.96 -->
      <g transform="translate(389.150953 589.329011) rotate(-45) scale(0.1 -0.1)">
       <use xlink:href="#DejaVuSans-2212"/>
       <use xlink:href="#DejaVuSans-35" transform="translate(83.789062 0)"/>
       <use xlink:href="#DejaVuSans-35" transform="translate(147.412109 0)"/>
       <use xlink:href="#DejaVuSans-2e" transform="translate(211.035156 0)"/>
       <use xlink:href="#DejaVuSans-39" transform="translate(242.822266 0)"/>
       <use xlink:href="#DejaVuSans-36" transform="translate(306.445312 0)"/>
      </g>
     </g>
    </g>
    <g id="xtick_5">
     <g id="line2d_9">
      <path d="M 480.057777 550.787629 
L 480.057777 321.852371 
" clip-path="url(#p58105077e3)" style="fill: none; stroke: #b0b0b0; stroke-width: 0.8; stroke-linecap: square"/>
     </g>
     <g id="line2d_10">
      <g>
       <use xlink:href="#mfb2737aff3" x="480.057777" y="550.787629" style="stroke: #000000; stroke-width: 0.8"/>
      </g>
     </g>
     <g id="text_5">
      <!-- −55.94 -->
      <g transform="translate(468.924712 589.329011) rotate(-45) scale(0.1 -0.1)">
       <defs>
        <path id="DejaVuSans-34" d="M 2419 4116 
L 825 1625 
L 2419 1625 
L 2419 4116 
z
M 2253 4666 
L 3047 4666 
L 3047 1625 
L 3713 1625 
L 3713 1100 
L 3047 1100 
L 3047 0 
L 2419 0 
L 2419 1100 
L 313 1100 
L 313 1709 
L 2253 4666 
z
" transform="scale(0.015625)"/>
       </defs>
       <use xlink:href="#DejaVuSans-2212"/>
       <use xlink:href="#DejaVuSans-35" transform="translate(83.789062 0)"/>
       <use xlink:href="#DejaVuSans-35" transform="translate(147.412109 0)"/>
       <use xlink:href="#DejaVuSans-2e" transform="translate(211.035156 0)"/>
       <use xlink:href="#DejaVuSans-39" transform="translate(242.822266 0)"/>
       <use xlink:href="#DejaVuSans-34" transform="translate(306.445312 0)"/>
      </g>
     </g>
    </g>
    <g id="xtick_6">
     <g id="line2d_11">
      <path d="M 559.831537 550.787629 
L 559.831537 321.852371 
" clip-path="url(#p58105077e3)" style="fill: none; stroke: #b0b0b0; stroke-width: 0.8; stroke-linecap: square"/>
     </g>
     <g id="line2d_12">
      <g>
       <use xlink:href="#mfb2737aff3" x="559.831537" y="550.787629" style="stroke: #000000; stroke-width: 0.8"/>
      </g>
     </g>
     <g id="text_6">
      <!-- −55.92 -->
      <g transform="translate(548.698472 589.329011) rotate(-45) scale(0.1 -0.1)">
       <use xlink:href="#DejaVuSans-2212"/>
       <use xlink:href="#DejaVuSans-35" transform="translate(83.789062 0)"/>
       <use xlink:href="#DejaVuSans-35" transform="translate(147.412109 0)"/>
       <use xlink:href="#DejaVuSans-2e" transform="translate(211.035156 0)"/>
       <use xlink:href="#DejaVuSans-39" transform="translate(242.822266 0)"/>
       <use xlink:href="#DejaVuSans-32" transform="translate(306.445312 0)"/>
      </g>
     </g>
    </g>
    <g id="xtick_7">
     <g id="line2d_13">
      <path d="M 639.605296 550.787629 
L 639.605296 321.852371 
" clip-path="url(#p58105077e3)" style="fill: none; stroke: #b0b0b0; stroke-width: 0.8; stroke-linecap: square"/>
     </g>
     <g id="line2d_14">
      <g>
       <use xlink:href="#mfb2737aff3" x="639.605296" y="550.787629" style="stroke: #000000; stroke-width: 0.8"/>
      </g>
     </g>
     <g id="text_7">
      <!-- −55.90 -->
      <g transform="translate(628.472231 589.329011) rotate(-45) scale(0.1 -0.1)">
       <use xlink:href="#DejaVuSans-2212"/>
       <use xlink:href="#DejaVuSans-35" transform="translate(83.789062 0)"/>
       <use xlink:href="#DejaVuSans-35" transform="translate(147.412109 0)"/>
       <use xlink:href="#DejaVuSans-2e" transform="translate(211.035156 0)"/>
       <use xlink:href="#DejaVuSans-39" transform="translate(242.822266 0)"/>
       <use xlink:href="#DejaVuSans-30" transform="translate(306.445312 0)"/>
      </g>
     </g>
    </g>
    <g id="text_8">
     <!-- Longitude (°) -->
     <g transform="translate(336.139844 602.398009) scale(0.1 -0.1)">
      <defs>
       <path id="DejaVuSans-4c" d="M 628 4666 
L 1259 4666 
L 1259 531 
L 3531 531 
L 3531 0 
L 628 0 
L 628 4666 
z
" transform="scale(0.015625)"/>
       <path id="DejaVuSans-6f" d="M 1959 3097 
Q 1497 3097 1228 2736 
Q 959 2375 959 1747 
Q 959 1119 1226 758 
Q 1494 397 1959 397 
Q 2419 397 2687 759 
Q 2956 1122 2956 1747 
Q 2956 2369 2687 2733 
Q 2419 3097 1959 3097 
z
M 1959 3584 
Q 2709 3584 3137 3096 
Q 3566 2609 3566 1747 
Q 3566 888 3137 398 
Q 2709 -91 1959 -91 
Q 1206 -91 779 398 
Q 353 888 353 1747 
Q 353 2609 779 3096 
Q 1206 3584 1959 3584 
z
" transform="scale(0.015625)"/>
       <path id="DejaVuSans-6e" d="M 3513 2113 
L 3513 0 
L 2938 0 
L 2938 2094 
Q 2938 2591 2744 2837 
Q 2550 3084 2163 3084 
Q 1697 3084 1428 2787 
Q 1159 2491 1159 1978 
L 1159 0 
L 581 0 
L 581 3500 
L 1159 3500 
L 1159 2956 
Q 1366 3272 1645 3428 
Q 1925 3584 2291 3584 
Q 2894 3584 3203 3211 
Q 3513 2838 3513 2113 
z
" transform="scale(0.015625)"/>
       <path id="DejaVuSans-67" d="M 2906 1791 
Q 2906 2416 2648 2759 
Q 2391 3103 1925 3103 
Q 1463 3103 1205 2759 
Q 947 2416 947 1791 
Q 947 1169 1205 825 
Q 1463 481 1925 481 
Q 2391 481 2648 825 
Q 2906 1169 2906 1791 
z
M 3481 434 
Q 3481 -459 3084 -895 
Q 2688 -1331 1869 -1331 
Q 1566 -1331 1297 -1286 
Q 1028 -1241 775 -1147 
L 775 -588 
Q 1028 -725 1275 -790 
Q 1522 -856 1778 -856 
Q 2344 -856 2625 -561 
Q 2906 -266 2906 331 
L 2906 616 
Q 2728 306 2450 153 
Q 2172 0 1784 0 
Q 1141 0 747 490 
Q 353 981 353 1791 
Q 353 2603 747 3093 
Q 1141 3584 1784 3584 
Q 2172 3584 2450 3431 
Q 2728 3278 2906 2969 
L 2906 3500 
L 3481 3500 
L 3481 434 
z
" transform="scale(0.015625)"/>
       <path id="DejaVuSans-69" d="M 603 3500 
L 1178 3500 
L 1178 0 
L 603 0 
L 603 3500 
z
M 603 4863 
L 1178 4863 
L 1178 4134 
L 603 4134 
L 603 4863 
z
" transform="scale(0.015625)"/>
       <path id="DejaVuSans-74" d="M 1172 4494 
L 1172 3500 
L 2356 3500 
L 2356 3053 
L 1172 3053 
L 1172 1153 
Q 1172 725 1289 603 
Q 1406 481 1766 481 
L 2356 481 
L 2356 0 
L 1766 0 
Q 1100 0 847 248 
Q 594 497 594 1153 
L 594 3053 
L 172 3053 
L 172 3500 
L 594 3500 
L 594 4494 
L 1172 4494 
z
" transform="scale(0.015625)"/>
       <path id="DejaVuSans-75" d="M 544 1381 
L 544 3500 
L 1119 3500 
L 1119 1403 
Q 1119 906 1312 657 
Q 1506 409 1894 409 
Q 2359 409 2629 706 
Q 2900 1003 2900 1516 
L 2900 3500 
L 3475 3500 
L 3475 0 
L 2900 0 
L 2900 538 
Q 2691 219 2414 64 
Q 2138 -91 1772 -91 
Q 1169 -91 856 284 
Q 544 659 544 1381 
z
M 1991 3584 
L 1991 3584 
z
" transform="scale(0.015625)"/>
       <path id="DejaVuSans-64" d="M 2906 2969 
L 2906 4863 
L 3481 4863 
L 3481 0 
L 2906 0 
L 2906 525 
Q 2725 213 2448 61 
Q 2172 -91 1784 -91 
Q 1150 -91 751 415 
Q 353 922 353 1747 
Q 353 2572 751 3078 
Q 1150 3584 1784 3584 
Q 2172 3584 2448 3432 
Q 2725 3281 2906 2969 
z
M 947 1747 
Q 947 1113 1208 752 
Q 1469 391 1925 391 
Q 2381 391 2643 752 
Q 2906 1113 2906 1747 
Q 2906 2381 2643 2742 
Q 2381 3103 1925 3103 
Q 1469 3103 1208 2742 
Q 947 2381 947 1747 
z
" transform="scale(0.015625)"/>
       <path id="DejaVuSans-65" d="M 3597 1894 
L 3597 1613 
L 953 1613 
Q 991 1019 1311 708 
Q 1631 397 2203 397 
Q 2534 397 2845 478 
Q 3156 559 3463 722 
L 3463 178 
Q 3153 47 2828 -22 
Q 2503 -91 2169 -91 
Q 1331 -91 842 396 
Q 353 884 353 1716 
Q 353 2575 817 3079 
Q 1281 3584 2069 3584 
Q 2775 3584 3186 3129 
Q 3597 2675 3597 1894 
z
M 3022 2063 
Q 3016 2534 2758 2815 
Q 2500 3097 2075 3097 
Q 1594 3097 1305 2825 
Q 1016 2553 972 2059 
L 3022 2063 
z
" transform="scale(0.015625)"/>
       <path id="DejaVuSans-20" transform="scale(0.015625)"/>
       <path id="DejaVuSans-28" d="M 1984 4856 
Q 1566 4138 1362 3434 
Q 1159 2731 1159 2009 
Q 1159 1288 1364 580 
Q 1569 -128 1984 -844 
L 1484 -844 
Q 1016 -109 783 600 
Q 550 1309 550 2009 
Q 550 2706 781 3412 
Q 1013 4119 1484 4856 
L 1984 4856 
z
" transform="scale(0.015625)"/>
       <path id="DejaVuSans-b0" d="M 1600 4347 
Q 1350 4347 1178 4173 
Q 1006 4000 1006 3750 
Q 1006 3503 1178 3333 
Q 1350 3163 1600 3163 
Q 1850 3163 2022 3333 
Q 2194 3503 2194 3750 
Q 2194 3997 2020 4172 
Q 1847 4347 1600 4347 
z
M 1600 4750 
Q 1800 4750 1984 4673 
Q 2169 4597 2303 4453 
Q 2447 4313 2519 4134 
Q 2591 3956 2591 3750 
Q 2591 3338 2302 3052 
Q 2013 2766 1594 2766 
Q 1172 2766 890 3047 
Q 609 3328 609 3750 
Q 609 4169 896 4459 
Q 1184 4750 1600 4750 
z
" transform="scale(0.015625)"/>
       <path id="DejaVuSans-29" d="M 513 4856 
L 1013 4856 
Q 1481 4119 1714 3412 
Q 1947 2706 1947 2009 
Q 1947 1309 1714 600 
Q 1481 -109 1013 -844 
L 513 -844 
Q 928 -128 1133 580 
Q 1338 1288 1338 2009 
Q 1338 2731 1133 3434 
Q 928 4138 513 4856 
z
" transform="scale(0.015625)"/>
      </defs>
      <use xlink:href="#DejaVuSans-4c"/>
      <use xlink:href="#DejaVuSans-6f" transform="translate(53.962891 0)"/>
      <use xlink:href="#DejaVuSans-6e" transform="translate(115.144531 0)"/>
      <use xlink:href="#DejaVuSans-67" transform="translate(178.523438 0)"/>
      <use xlink:href="#DejaVuSans-69" transform="translate(242 0)"/>
      <use xlink:href="#DejaVuSans-74" transform="translate(269.783203 0)"/>
      <use xlink:href="#DejaVuSans-75" transform="translate(308.992188 0)"/>
      <use xlink:href="#DejaVuSans-64" transform="translate(372.371094 0)"/>
      <use xlink:href="#DejaVuSans-65" transform="translate(435.847656 0)"/>
      <use xlink:href="#DejaVuSans-20" transform="translate(497.371094 0)"/>
      <use xlink:href="#DejaVuSans-28" transform="translate(529.158203 0)"/>
      <use xlink:href="#DejaVuSans-b0" transform="translate(568.171875 0)"/>
      <use xlink:href="#DejaVuSans-29" transform="translate(618.171875 0)"/>
     </g>
    </g>
   </g>
   <g id="matplotlib.axis_2">
    <g id="ytick_1">
     <g id="line2d_15">
      <path d="M 90 518.009093 
L 648 518.009093 
" clip-path="url(#p58105077e3)" style="fill: none; stroke: #b0b0b0; stroke-width: 0.8; stroke-linecap: square"/>
     </g>
     <g id="line2d_16">
      <defs>
       <path id="m8966e9b408" d="M 0 0 
L -3.5 0 
" style="stroke: #000000; stroke-width: 0.8"/>
      </defs>
      <g>
       <use xlink:href="#m8966e9b408" x="90" y="518.009093" style="stroke: #000000; stroke-width: 0.8"/>
      </g>
     </g>
     <g id="text_9">
      <!-- −10.39 -->
      <g transform="translate(45.992188 521.808312) scale(0.1 -0.1)">
       <defs>
        <path id="DejaVuSans-31" d="M 794 531 
L 1825 531 
L 1825 4091 
L 703 3866 
L 703 4441 
L 1819 4666 
L 2450 4666 
L 2450 531 
L 3481 531 
L 3481 0 
L 794 0 
L 794 531 
z
" transform="scale(0.015625)"/>
        <path id="DejaVuSans-33" d="M 2597 2516 
Q 3050 2419 3304 2112 
Q 3559 1806 3559 1356 
Q 3559 666 3084 287 
Q 2609 -91 1734 -91 
Q 1441 -91 1130 -33 
Q 819 25 488 141 
L 488 750 
Q 750 597 1062 519 
Q 1375 441 1716 441 
Q 2309 441 2620 675 
Q 2931 909 2931 1356 
Q 2931 1769 2642 2001 
Q 2353 2234 1838 2234 
L 1294 2234 
L 1294 2753 
L 1863 2753 
Q 2328 2753 2575 2939 
Q 2822 3125 2822 3475 
Q 2822 3834 2567 4026 
Q 2313 4219 1838 4219 
Q 1578 4219 1281 4162 
Q 984 4106 628 3988 
L 628 4550 
Q 988 4650 1302 4700 
Q 1616 4750 1894 4750 
Q 2613 4750 3031 4423 
Q 3450 4097 3450 3541 
Q 3450 3153 3228 2886 
Q 3006 2619 2597 2516 
z
" transform="scale(0.015625)"/>
       </defs>
       <use xlink:href="#DejaVuSans-2212"/>
       <use xlink:href="#DejaVuSans-31" transform="translate(83.789062 0)"/>
       <use xlink:href="#DejaVuSans-30" transform="translate(147.412109 0)"/>
       <use xlink:href="#DejaVuSans-2e" transform="translate(211.035156 0)"/>
       <use xlink:href="#DejaVuSans-33" transform="translate(242.822266 0)"/>
       <use xlink:href="#DejaVuSans-39" transform="translate(306.445312 0)"/>
      </g>
     </g>
    </g>
    <g id="ytick_2">
     <g id="line2d_17">
      <path d="M 90 477.457819 
L 648 477.457819 
" clip-path="url(#p58105077e3)" style="fill: none; stroke: #b0b0b0; stroke-width: 0.8; stroke-linecap: square"/>
     </g>
     <g id="line2d_18">
      <g>
       <use xlink:href="#m8966e9b408" x="90" y="477.457819" style="stroke: #000000; stroke-width: 0.8"/>
      </g>
     </g>
     <g id="text_10">
      <!-- −10.38 -->
      <g transform="translate(45.992188 481.257038) scale(0.1 -0.1)">
       <use xlink:href="#DejaVuSans-2212"/>
       <use xlink:href="#DejaVuSans-31" transform="translate(83.789062 0)"/>
       <use xlink:href="#DejaVuSans-30" transform="translate(147.412109 0)"/>
       <use xlink:href="#DejaVuSans-2e" transform="translate(211.035156 0)"/>
       <use xlink:href="#DejaVuSans-33" transform="translate(242.822266 0)"/>
       <use xlink:href="#DejaVuSans-38" transform="translate(306.445312 0)"/>
      </g>
     </g>
    </g>
    <g id="ytick_3">
     <g id="line2d_19">
      <path d="M 90 436.906545 
L 648 436.906545 
" clip-path="url(#p58105077e3)" style="fill: none; stroke: #b0b0b0; stroke-width: 0.8; stroke-linecap: square"/>
     </g>
     <g id="line2d_20">
      <g>
       <use xlink:href="#m8966e9b408" x="90" y="436.906545" style="stroke: #000000; stroke-width: 0.8"/>
      </g>
     </g>
     <g id="text_11">
      <!-- −10.37 -->
      <g transform="translate(45.992188 440.705764) scale(0.1 -0.1)">
       <defs>
        <path id="DejaVuSans-37" d="M 525 4666 
L 3525 4666 
L 3525 4397 
L 1831 0 
L 1172 0 
L 2766 4134 
L 525 4134 
L 525 4666 
z
" transform="scale(0.015625)"/>
       </defs>
       <use xlink:href="#DejaVuSans-2212"/>
       <use xlink:href="#DejaVuSans-31" transform="translate(83.789062 0)"/>
       <use xlink:href="#DejaVuSans-30" transform="translate(147.412109 0)"/>
       <use xlink:href="#DejaVuSans-2e" transform="translate(211.035156 0)"/>
       <use xlink:href="#DejaVuSans-33" transform="translate(242.822266 0)"/>
       <use xlink:href="#DejaVuSans-37" transform="translate(306.445312 0)"/>
      </g>
     </g>
    </g>
    <g id="ytick_4">
     <g id="line2d_21">
      <path d="M 90 396.355271 
L 648 396.355271 
" clip-path="url(#p58105077e3)" style="fill: none; stroke: #b0b0b0; stroke-width: 0.8; stroke-linecap: square"/>
     </g>
     <g id="line2d_22">
      <g>
       <use xlink:href="#m8966e9b408" x="90" y="396.355271" style="stroke: #000000; stroke-width: 0.8"/>
      </g>
     </g>
     <g id="text_12">
      <!-- −10.36 -->
      <g transform="translate(45.992188 400.15449) scale(0.1 -0.1)">
       <use xlink:href="#DejaVuSans-2212"/>
       <use xlink:href="#DejaVuSans-31" transform="translate(83.789062 0)"/>
       <use xlink:href="#DejaVuSans-30" transform="translate(147.412109 0)"/>
       <use xlink:href="#DejaVuSans-2e" transform="translate(211.035156 0)"/>
       <use xlink:href="#DejaVuSans-33" transform="translate(242.822266 0)"/>
       <use xlink:href="#DejaVuSans-36" transform="translate(306.445312 0)"/>
      </g>
     </g>
    </g>
    <g id="ytick_5">
     <g id="line2d_23">
      <path d="M 90 355.803997 
L 648 355.803997 
" clip-path="url(#p58105077e3)" style="fill: none; stroke: #b0b0b0; stroke-width: 0.8; stroke-linecap: square"/>
     </g>
     <g id="line2d_24">
      <g>
       <use xlink:href="#m8966e9b408" x="90" y="355.803997" style="stroke: #000000; stroke-width: 0.8"/>
      </g>
     </g>
     <g id="text_13">
      <!-- −10.35 -->
      <g transform="translate(45.992188 359.603216) scale(0.1 -0.1)">
       <use xlink:href="#DejaVuSans-2212"/>
       <use xlink:href="#DejaVuSans-31" transform="translate(83.789062 0)"/>
       <use xlink:href="#DejaVuSans-30" transform="translate(147.412109 0)"/>
       <use xlink:href="#DejaVuSans-2e" transform="translate(211.035156 0)"/>
       <use xlink:href="#DejaVuSans-33" transform="translate(242.822266 0)"/>
       <use xlink:href="#DejaVuSans-35" transform="translate(306.445312 0)"/>
      </g>
     </g>
    </g>
    <g id="text_14">
     <!-- Latitude (°) -->
     <g transform="translate(39.9125 464.889531) rotate(-90) scale(0.1 -0.1)">
      <defs>
       <path id="DejaVuSans-61" d="M 2194 1759 
Q 1497 1759 1228 1600 
Q 959 1441 959 1056 
Q 959 750 1161 570 
Q 1363 391 1709 391 
Q 2188 391 2477 730 
Q 2766 1069 2766 1631 
L 2766 1759 
L 2194 1759 
z
M 3341 1997 
L 3341 0 
L 2766 0 
L 2766 531 
Q 2569 213 2275 61 
Q 1981 -91 1556 -91 
Q 1019 -91 701 211 
Q 384 513 384 1019 
Q 384 1609 779 1909 
Q 1175 2209 1959 2209 
L 2766 2209 
L 2766 2266 
Q 2766 2663 2505 2880 
Q 2244 3097 1772 3097 
Q 1472 3097 1187 3025 
Q 903 2953 641 2809 
L 641 3341 
Q 956 3463 1253 3523 
Q 1550 3584 1831 3584 
Q 2591 3584 2966 3190 
Q 3341 2797 3341 1997 
z
" transform="scale(0.015625)"/>
      </defs>
      <use xlink:href="#DejaVuSans-4c"/>
      <use xlink:href="#DejaVuSans-61" transform="translate(55.712891 0)"/>
      <use xlink:href="#DejaVuSans-74" transform="translate(116.992188 0)"/>
      <use xlink:href="#DejaVuSans-69" transform="translate(156.201172 0)"/>
      <use xlink:href="#DejaVuSans-74" transform="translate(183.984375 0)"/>
      <use xlink:href="#DejaVuSans-75" transform="translate(223.193359 0)"/>
      <use xlink:href="#DejaVuSans-64" transform="translate(286.572266 0)"/>
      <use xlink:href="#DejaVuSans-65" transform="translate(350.048828 0)"/>
      <use xlink:href="#DejaVuSans-20" transform="translate(411.572266 0)"/>
      <use xlink:href="#DejaVuSans-28" transform="translate(443.359375 0)"/>
      <use xlink:href="#DejaVuSans-b0" transform="translate(482.373047 0)"/>
      <use xlink:href="#DejaVuSans-29" transform="translate(532.373047 0)"/>
     </g>
    </g>
   </g>
   <g id="patch_3">
    <path d="M 90 550.787629 
L 90 321.852371 
" style="fill: none; stroke: #000000; stroke-width: 0.8; stroke-linejoin: miter; stroke-linecap: square"/>
   </g>
   <g id="patch_4">
    <path d="M 648 550.787629 
L 648 321.852371 
" style="fill: none; stroke: #000000; stroke-width: 0.8; stroke-linejoin: miter; stroke-linecap: square"/>
   </g>
   <g id="patch_5">
    <path d="M 90 550.787629 
L 648 550.787629 
" style="fill: none; stroke: #000000; stroke-width: 0.8; stroke-linejoin: miter; stroke-linecap: square"/>
   </g>
   <g id="patch_6">
    <path d="M 90 321.852371 
L 648 321.852371 
" style="fill: none; stroke: #000000; stroke-width: 0.8; stroke-linejoin: miter; stroke-linecap: square"/>
   </g>
  </g>
 </g>
 <defs>
  <clipPath id="p58105077e3">
   <rect x="90" y="321.852371" width="558" height="228.935258"/>
  </clipPath>
 </defs>
</svg>
