<?xml version="1.0" encoding="utf-8" standalone="no"?>
<!DOCTYPE svg PUBLIC "-//W3C//DTD SVG 1.1//EN"
  "http://www.w3.org/Graphics/SVG/1.1/DTD/svg11.dtd">
<svg xmlns:xlink="http://www.w3.org/1999/xlink" width="720pt" height="864pt" viewBox="0 0 720 864" xmlns="http://www.w3.org/2000/svg" version="1.1">
 <metadata>
  <rdf:RDF xmlns:dc="http://purl.org/dc/elements/1.1/" xmlns:cc="http://creativecommons.org/ns#" xmlns:rdf="http://www.w3.org/1999/02/22-rdf-syntax-ns#">
   <cc:Work>
    <dc:type rdf:resource="http://purl.org/dc/dcmitype/StillImage"/>
    <dc:date>2025-06-16T17:49:03.013525</dc:date>
    <dc:format>image/svg+xml</dc:format>
    <dc:creator>
     <cc:Agent>
      <dc:title>Matplotlib v3.10.1, https://matplotlib.org/</dc:title>
     </cc:Agent>
    </dc:creator>
   </cc:Work>
  </rdf:RDF>
 </metadata>
 <defs>
  <style type="text/css">*{stroke-linejoin: round; stroke-linecap: butt}</style>
 </defs>
 <g id="figure_1">
  <g id="patch_1">
   <path d="M 0 864 
L 720 864 
L 720 0 
L 0 0 
z
" style="fill: #ffffff"/>
  </g>
  <g id="axes_1">
   <g id="patch_2">
    <path d="M 90 618.338091 
L 648 618.338091 
L 648 254.301909 
L 90 254.301909 
z
" style="fill: #ffffff"/>
   </g>
   <g id="PatchCollection_1">
    <path d="M 371.925781 507.98873 
L 385.775745 538.145943 
L 341.813301 524.32452 
L 348.877459 516.140667 
L 371.925781 507.98873 
" clip-path="url(#p51e7c45166)" style="fill: #e0bd1f; stroke: #0000ff; stroke-width: 0.5"/>
    <path d="M 382.728521 476.917743 
L 390.751543 495.447556 
L 391.32089 496.798726 
L 390.587138 497.388602 
L 382.728521 476.917743 
" clip-path="url(#p51e7c45166)" style="fill: #e0bd1f; stroke: #0000ff; stroke-width: 0.5"/>
    <path d="M 388.902584 470.066143 
L 399.778629 490.584303 
L 399.730522 491.187776 
L 399.581025 491.496885 
L 399.318116 491.748097 
L 399.086138 491.743373 
L 398.62047 491.661217 
L 398.300278 491.78178 
L 398.117562 492.174258 
L 397.89245 492.641784 
L 397.715467 492.729258 
L 397.299617 492.656551 
L 396.874035 492.750537 
L 396.646078 493.210381 
L 396.453052 493.46572 
L 396.187277 493.566196 
L 395.759963 493.416674 
L 395.288006 493.478147 
L 395.186038 493.799087 
L 394.786809 494.291445 
L 394.480371 494.808613 
L 394.227195 495.082868 
L 393.991217 495.190451 
L 393.682469 495.165619 
L 393.037528 494.887236 
L 392.648032 495.056866 
L 392.264268 495.384913 
L 391.94121 495.864844 
L 391.784846 496.149143 
L 391.533382 496.422803 
L 391.32089 496.798726 
L 390.751543 495.447556 
L 382.728521 476.917743 
L 388.902584 470.066143 
" clip-path="url(#p51e7c45166)" style="fill: #e0bd1f; stroke: #0000ff; stroke-width: 0.5"/>
    <path d="M 382.728521 476.917743 
L 390.587138 497.388602 
L 391.936632 500.90958 
L 371.925781 507.98873 
L 348.877459 516.140667 
L 382.728521 476.917743 
" clip-path="url(#p51e7c45166)" style="fill: #e0bd1f; stroke: #0000ff; stroke-width: 0.5"/>
    <path d="M 391.936632 500.90958 
L 398.489861 518.009026 
L 403.435306 533.513197 
L 399.115357 538.017082 
L 401.02329 542.938872 
L 385.775745 538.145943 
L 371.925781 507.98873 
L 391.936632 500.90958 
" clip-path="url(#p51e7c45166)" style="fill: #e0bd1f; stroke: #0000ff; stroke-width: 0.5"/>
    <path d="M 344.042003 337.499016 
L 358.613677 339.401058 
L 400.118864 359.072812 
L 406.931579 362.341983 
L 425.012701 431.112135 
L 424.960016 431.60628 
L 421.834311 434.975927 
L 415.677445 441.487075 
L 410.415272 447.091535 
L 407.743791 449.925672 
L 403.512055 454.418939 
L 398.681176 459.584237 
L 388.902584 470.066143 
L 382.728521 476.917743 
L 348.877459 516.140667 
L 341.813301 524.32452 
L 325.66933 543.375672 
L 302.006421 512.59607 
L 357.451497 446.399396 
L 319.293662 366.666789 
L 344.042003 337.499016 
" clip-path="url(#p51e7c45166)" style="fill: #e0bd1f; stroke: #0000ff; stroke-width: 0.5"/>
    <path d="M 341.813301 524.32452 
L 352.774693 527.77928 
L 351.463593 530.081482 
L 341.813301 524.32452 
" clip-path="url(#p51e7c45166)" style="fill: #e0bd1f; stroke: #0000ff; stroke-width: 0.5"/>
    <path d="M 276.800413 270.849008 
L 291.07365 282.375315 
L 307.065834 295.22562 
L 323.465249 314.012538 
L 334.665506 326.786602 
L 342.083076 335.276629 
L 344.042003 337.499016 
L 319.293662 366.666789 
L 357.451497 446.399396 
L 302.006421 512.59607 
L 325.66933 543.375672 
L 341.813301 524.32452 
L 351.463593 530.081482 
L 323.224115 555.925697 
L 292.677454 538.282465 
L 262.596481 520.965513 
L 201.162347 485.656002 
L 186.91602 498.477943 
L 175.334287 489.847246 
L 163.331571 498.76105 
L 115.363636 534.122564 
L 276.800413 270.849008 
" clip-path="url(#p51e7c45166)" style="fill: #e0bd1f; stroke: #0000ff; stroke-width: 0.5"/>
    <path d="M 479.508687 591.720458 
L 481.552961 592.916786 
L 481.760876 592.986515 
L 481.236193 593.852434 
L 478.731406 595.847867 
L 474.967626 600.67033 
L 472.336829 601.790992 
L 462.779905 596.32367 
L 458.030373 593.551581 
L 471.131697 593.163848 
L 474.154857 596.86684 
L 479.508687 591.720458 
" clip-path="url(#p51e7c45166)" style="fill: #e0bd1f; stroke: #0000ff; stroke-width: 0.5"/>
    <path d="M 559.719858 382.948213 
L 558.980971 384.003849 
L 557.436739 384.462502 
L 555.67257 385.075444 
L 554.85576 385.019886 
L 553.487377 384.841979 
L 552.141904 385.259841 
L 551.019253 385.573696 
L 549.647427 387.091559 
L 548.024734 387.648326 
L 546.959923 388.68328 
L 545.708375 389.716467 
L 544.620655 390.622559 
L 541.543078 392.227302 
L 539.809263 392.521644 
L 536.730531 393.197825 
L 534.450278 393.514041 
L 532.380228 393.2327 
L 530.909899 392.959636 
L 530.388659 393.713823 
L 529.038031 394.657748 
L 528.291123 395.204493 
L 527.132943 396.410842 
L 526.209031 396.392522 
L 525.700411 397.659174 
L 525.018787 398.967787 
L 524.998167 400.372153 
L 524.096607 400.994542 
L 522.804395 401.113934 
L 521.795734 402.013536 
L 521.308868 402.816791 
L 520.492635 403.088089 
L 518.743354 404.118893 
L 516.494032 404.253074 
L 515.698419 404.288523 
L 515.021393 404.535011 
L 514.073437 404.543862 
L 513.664455 404.427428 
L 512.186104 404.480028 
L 511.899709 404.708173 
L 510.270129 405.506704 
L 510.21 405.534493 
L 508.376507 406.046342 
L 508.162283 406.145052 
L 506.583676 407.697194 
L 506.564788 407.823672 
L 504.900834 408.8279 
L 503.485479 409.427819 
L 502.933886 409.507017 
L 499.130021 410.114043 
L 499.082491 410.365829 
L 497.682023 411.741235 
L 497.31257 413.909255 
L 496.627523 413.805226 
L 495.35022 414.516877 
L 494.709259 414.782856 
L 494.556896 416.362171 
L 493.415336 418.524872 
L 492.463937 419.552719 
L 491.336709 421.063475 
L 490.995319 423.290011 
L 490.530785 424.823834 
L 488.801548 426.828118 
L 487.049401 428.227164 
L 486.632418 430.558325 
L 483.881321 431.371623 
L 482.525538 432.008184 
L 481.208128 432.706238 
L 479.489778 432.684364 
L 477.970187 433.615884 
L 476.586319 434.67152 
L 474.661766 435.086446 
L 472.905598 434.145479 
L 472.30361 433.786706 
L 471.332167 434.120051 
L 471.041195 435.029697 
L 470.132747 435.164473 
L 469.165883 434.899091 
L 468.426996 435.188709 
L 468.315296 435.633765 
L 468.143467 435.80163 
L 467.71904 435.447006 
L 466.890208 435.398534 
L 466.032755 435.205838 
L 465.593996 435.064572 
L 465.155815 435.121917 
L 464.509142 435.719474 
L 464.226191 435.735433 
L 464.071539 435.362468 
L 463.634492 435.27146 
L 463.247862 435.459411 
L 462.491798 436.06997 
L 462.070217 436.499684 
L 461.880634 437.399287 
L 461.299245 439.316692 
L 461.720249 440.075028 
L 462.416184 440.347496 
L 462.668205 441.144261 
L 462.470023 442.047395 
L 462.633851 443.144417 
L 462.518708 445.358527 
L 462.617809 446.058348 
L 461.559287 447.357513 
L 461.247694 448.867674 
L 461.494003 449.342286 
L 461.925875 449.245959 
L 462.137232 449.425037 
L 462.011222 449.622457 
L 461.594239 449.490659 
L 461.333041 449.605306 
L 461.298111 450.041511 
L 460.764849 450.182203 
L 460.2333 451.173408 
L 459.767055 451.81116 
L 459.953771 452.602605 
L 459.969814 452.999785 
L 459.473216 453.097899 
L 459.021858 453.504548 
L 458.855741 454.091488 
L 459.031591 454.67781 
L 459.115784 456.059131 
L 458.744618 456.875387 
L 457.544064 457.71824 
L 457.065797 459.037492 
L 456.586376 459.403946 
L 455.504945 459.27866 
L 454.835363 458.825901 
L 454.268883 458.669272 
L 453.220115 459.018576 
L 452.77849 458.910418 
L 451.842556 459.452418 
L 451.090493 460.326018 
L 450.364783 460.922406 
L 449.851564 461.530006 
L 449.639629 462.137628 
L 449.677426 462.428417 
L 450.170024 462.58743 
L 450.44382 463.069723 
L 450.053169 463.578039 
L 449.531373 463.828059 
L 448.484316 463.921449 
L 447.799846 464.20279 
L 447.437259 464.722937 
L 447.326714 467.216622 
L 447.731676 467.596673 
L 447.331869 468.372159 
L 446.898266 468.895243 
L 446.463528 468.921841 
L 446.340384 469.211459 
L 446.0557 469.659494 
L 445.350033 469.934324 
L 444.522355 470.566182 
L 444.14719 470.835693 
L 444.112238 471.189167 
L 443.939832 471.297325 
L 443.654015 471.08218 
L 443.287427 471.000599 
L 442.745588 470.576821 
L 441.954553 469.438434 
L 441.587986 469.385239 
L 441.146939 469.76114 
L 440.555817 470.110466 
L 440.176053 470.056674 
L 440.684694 469.419518 
L 440.488801 469.064277 
L 439.996203 468.830216 
L 439.415969 468.938991 
L 438.981231 469.294806 
L 438.956033 469.56787 
L 439.108397 469.840359 
L 438.992119 470.268882 
L 438.780184 470.25054 
L 438.350024 470.199728 
L 438.163287 470.533073 
L 438.140378 470.865844 
L 437.985725 471.036666 
L 437.453619 471.072711 
L 436.285129 471.582219 
L 436.43176 471.773128 
L 461.579907 496.711847 
L 469.191102 542.621464 
L 490.667683 518.141419 
L 494.626778 520.57778 
L 495.122242 519.99499 
L 527.653028 481.80702 
L 566.705556 551.081935 
L 565.353216 551.530566 
L 563.797519 552.252835 
L 563.351317 553.37703 
L 561.569394 554.331594 
L 560.039472 555.328736 
L 558.263839 554.909065 
L 555.978431 554.884829 
L 554.706263 556.203506 
L 553.141987 555.737747 
L 551.220878 556.592409 
L 550.040367 559.503999 
L 549.385673 560.584467 
L 549.387962 562.023686 
L 550.351383 563.387878 
L 548.044777 565.369692 
L 545.353253 566.313043 
L 543.41208 566.54355 
L 541.80543 566.1239 
L 540.175273 566.662943 
L 539.078397 568.105141 
L 539.038868 570.517266 
L 538.489564 571.903311 
L 537.818251 573.128002 
L 535.706404 573.548248 
L 534.885593 575.278277 
L 532.93411 575.408904 
L 531.602967 575.958586 
L 529.943612 577.443936 
L 528.369583 578.13016 
L 526.685607 578.133713 
L 525.866507 579.730158 
L 524.514167 579.923449 
L 523.057571 580.296393 
L 523.185871 581.063007 
L 522.870277 581.454293 
L 522.140546 581.121522 
L 521.705808 581.203103 
L 520.181619 581.640477 
L 518.89114 583.288372 
L 518.164832 585.175031 
L 517.231764 586.250775 
L 515.570697 587.53279 
L 513.850037 588.551785 
L 512.25312 587.968994 
L 509.697916 587.338328 
L 507.981278 587.192934 
L 504.83555 585.873085 
L 503.392687 587.305815 
L 502.372561 588.706052 
L 501.217825 590.838602 
L 500.720072 591.826275 
L 501.210958 592.886635 
L 501.048862 593.128377 
L 500.455452 593.395547 
L 499.525827 594.714203 
L 498.367071 594.998502 
L 498.203263 595.570058 
L 496.920228 595.081849 
L 496.418454 594.979586 
L 495.252274 595.160451 
L 494.298008 594.875557 
L 494.064318 594.90807 
L 493.206845 594.595981 
L 492.111681 594.596577 
L 490.875041 593.65561 
L 490.215769 594.114263 
L 489.955727 594.157415 
L 489.026659 595.10017 
L 488.972243 595.25265 
L 488.72882 596.388079 
L 488.841077 596.49862 
L 486.992118 596.892863 
L 485.120827 595.525735 
L 485.704505 595.012695 
L 484.688956 594.337685 
L 484.275396 594.087091 
L 482.644682 593.1727 
L 482.637815 592.760731 
L 482.03925 592.286694 
L 481.736812 592.393681 
L 480.057991 591.585107 
L 479.620944 591.312639 
L 478.458764 590.456764 
L 477.757675 590.566708 
L 477.254766 590.874647 
L 477.192906 591.353408 
L 477.334959 591.660177 
L 477.782295 591.71633 
L 477.775429 592.079827 
L 477.523408 593.162061 
L 476.649334 594.211207 
L 475.359412 595.570654 
L 474.154857 596.86684 
L 450.788055 568.236938 
L 438.9589 553.851067 
L 401.02329 542.938872 
L 385.775745 538.145943 
L 341.813301 524.32452 
L 348.877459 516.140667 
L 382.728521 476.917743 
L 388.902584 470.066143 
L 398.681176 459.584237 
L 403.512055 454.418939 
L 407.743791 449.925672 
L 410.415272 447.091535 
L 415.677445 441.487075 
L 421.834311 434.975927 
L 424.960016 431.60628 
L 425.012701 431.112135 
L 460.118177 404.153768 
L 510.305637 388.818056 
L 559.719858 382.948213 
" clip-path="url(#p51e7c45166)" style="fill: #e0bd1f; stroke: #0000ff; stroke-width: 0.5"/>
    <path d="M 514.69318 497.02451 
L 564.641816 551.860954 
L 563.797519 552.252835 
L 563.351317 553.37703 
L 501.034531 513.054723 
L 506.957151 506.103242 
L 514.69318 497.02451 
" clip-path="url(#p51e7c45166)" style="fill: #e0bd1f; stroke: #0000ff; stroke-width: 0.5"/>
    <path d="M 527.653028 481.80702 
L 566.705556 551.081935 
L 565.353216 551.530566 
L 564.641816 551.860954 
L 514.69318 497.02451 
L 521.670857 488.830017 
L 527.653028 481.80702 
" clip-path="url(#p51e7c45166)" style="fill: #e0bd1f; stroke: #0000ff; stroke-width: 0.5"/>
    <path d="M 459.232061 456.964053 
L 462.428783 457.442218 
L 465.366596 458.711828 
L 467.767725 460.363851 
L 471.269152 463.236417 
L 472.063033 464.455172 
L 473.187416 466.124941 
L 472.660464 469.457351 
L 471.984573 472.336406 
L 470.321196 479.469348 
L 468.565028 486.763664 
L 476.468907 492.975725 
L 481.444705 480.318712 
L 497.038217 496.287452 
L 488.554104 504.879742 
L 482.058158 511.610163 
L 481.731079 512.117309 
L 480.629049 513.343171 
L 480.926888 513.614469 
L 482.550736 514.762303 
L 483.870434 517.104699 
L 488.73282 520.347273 
L 494.056297 524.440955 
L 494.54774 524.982976 
L 494.356425 526.571164 
L 497.505596 527.054649 
L 499.608308 534.688821 
L 499.549314 534.74023 
L 493.420491 530.91842 
L 491.773735 528.48857 
L 485.549853 525.564575 
L 484.663758 524.985338 
L 469.191102 542.621464 
L 466.937758 528.041726 
L 466.850699 527.536942 
L 462.553659 503.518529 
L 461.579907 496.711847 
L 461.087887 496.243725 
L 460.932678 495.993706 
L 460.908614 495.976555 
L 460.822689 496.058711 
L 453.066597 490.550598 
L 444.266891 495.623102 
L 431.214829 477.590371 
L 429.330361 474.874435 
L 429.401955 473.442876 
L 430.558423 472.171499 
L 432.401072 471.919118 
L 433.142825 471.133588 
L 434.019764 471.560941 
L 434.843998 471.723486 
L 435.734114 471.98591 
L 436.43176 471.773128 
L 436.566947 471.708101 
L 437.499437 471.262449 
L 438.07565 471.223446 
L 438.326537 470.946233 
L 438.351158 470.589822 
L 438.454837 470.404233 
L 439.134172 470.47692 
L 439.312867 469.814932 
L 439.151926 469.525909 
L 439.163948 469.39292 
L 439.499027 469.11926 
L 439.970428 469.03119 
L 440.351903 469.212055 
L 440.455004 469.39941 
L 439.816353 470.199728 
L 440.595346 470.310843 
L 441.258061 469.918366 
L 441.645826 469.587978 
L 441.845162 469.616938 
L 442.605246 470.710981 
L 443.203812 471.179103 
L 443.572688 471.261258 
L 443.9301 471.529619 
L 444.293243 471.302048 
L 444.328751 470.942084 
L 444.635189 470.721045 
L 445.443979 470.103976 
L 446.003015 469.886448 
L 446.183443 469.816719 
L 446.592982 469.106834 
L 446.992212 469.082023 
L 447.492253 468.479125 
L 447.968231 467.555904 
L 447.626285 464.787347 
L 447.924125 464.359419 
L 448.529577 464.110591 
L 449.582923 464.016605 
L 450.176891 463.731711 
L 450.672932 463.085681 
L 450.299478 462.426651 
L 449.850987 462.282427 
L 449.834945 462.157715 
L 450.020527 461.627525 
L 450.498815 461.060714 
L 451.224525 460.464327 
L 451.966278 459.603153 
L 452.807709 459.115519 
L 453.228136 459.218953 
L 454.274038 458.870224 
L 454.754594 459.003213 
L 455.436795 459.464845 
L 456.640793 459.604324 
L 457.226182 459.15631 
L 457.702737 457.841186 
L 458.896982 457.003056 
L 459.04019 457.196922 
L 459.232061 456.964053 
" clip-path="url(#p51e7c45166)" style="fill: #e0bd1f; stroke: #0000ff; stroke-width: 0.5"/>
    <path d="M 600.468404 357.778391 
L 621.621949 371.896518 
L 622.636364 372.508268 
L 595.348285 403.650175 
L 594.452436 407.087806 
L 592.680247 410.030696 
L 586.583509 416.349766 
L 584.583919 418.127075 
L 583.243601 418.790255 
L 582.048202 420.587672 
L 580.252505 422.667026 
L 578.48145 424.06254 
L 567.794431 434.946371 
L 558.392138 445.860332 
L 527.653028 481.80702 
L 495.122242 519.99499 
L 494.626778 520.57778 
L 490.667683 518.141419 
L 469.191102 542.621464 
L 461.579907 496.711847 
L 436.43176 471.773128 
L 437.499437 471.262449 
L 438.07565 471.223446 
L 438.326537 470.946233 
L 438.351158 470.589822 
L 438.454837 470.404233 
L 439.134172 470.47692 
L 439.312867 469.814932 
L 439.151926 469.525909 
L 439.163948 469.39292 
L 439.499027 469.11926 
L 439.970428 469.03119 
L 440.351903 469.212055 
L 440.455004 469.39941 
L 439.816353 470.199728 
L 440.595346 470.310843 
L 441.258061 469.918366 
L 441.645826 469.587978 
L 441.845162 469.616938 
L 442.605246 470.710981 
L 443.203812 471.179103 
L 443.572688 471.261258 
L 443.9301 471.529619 
L 444.293243 471.302048 
L 444.328751 470.942084 
L 444.635189 470.721045 
L 445.443979 470.103976 
L 446.183443 469.816719 
L 446.592982 469.106834 
L 446.992212 469.082023 
L 447.492253 468.479125 
L 447.968231 467.555904 
L 447.626285 464.787347 
L 447.924125 464.359419 
L 448.529577 464.110591 
L 449.582923 464.016605 
L 450.176891 463.731711 
L 450.672932 463.085681 
L 450.299478 462.426651 
L 449.850987 462.282427 
L 449.834945 462.157715 
L 450.020527 461.627525 
L 450.498815 461.060714 
L 451.224525 460.464327 
L 451.966278 459.603153 
L 452.807709 459.115519 
L 453.228136 459.218953 
L 454.274038 458.870224 
L 454.754594 459.003213 
L 455.436795 459.464845 
L 456.640793 459.604324 
L 457.226182 459.15631 
L 457.702737 457.841186 
L 458.896982 457.003056 
L 459.309965 456.095772 
L 459.221194 454.643531 
L 459.055077 454.0897 
L 459.190264 453.610939 
L 459.561429 453.276403 
L 460.167418 453.156414 
L 460.143952 452.576582 
L 459.973257 451.853717 
L 460.395396 451.276842 
L 460.893726 450.347109 
L 461.477383 450.192842 
L 461.514046 449.735934 
L 461.605126 449.695739 
L 462.092569 449.850006 
L 462.389254 449.38663 
L 461.976848 449.0379 
L 461.595373 449.122418 
L 461.448742 448.839885 
L 461.736869 447.443201 
L 462.819434 446.114501 
L 462.7106 445.35025 
L 462.825723 443.134949 
L 462.664782 442.054481 
L 462.86583 441.134792 
L 462.570836 440.201506 
L 461.853704 439.920761 
L 461.505448 439.294818 
L 462.065639 437.447737 
L 462.245489 436.594841 
L 462.620098 436.213024 
L 463.350406 435.623126 
L 463.659133 435.473008 
L 463.934063 435.530332 
L 464.102469 435.935215 
L 464.58818 435.907425 
L 465.240585 435.304548 
L 465.576242 435.260821 
L 465.982338 435.391427 
L 466.863298 435.590039 
L 467.645137 435.634957 
L 468.153778 436.059926 
L 468.487702 435.733667 
L 468.587958 435.332338 
L 469.17677 435.101234 
L 470.120726 435.360701 
L 471.186671 435.202306 
L 471.484531 434.270786 
L 472.282412 433.997127 
L 472.811673 434.313343 
L 474.633124 435.289185 
L 476.668243 434.850619 
L 478.077866 433.775471 
L 479.541906 432.877656 
L 481.254524 432.898934 
L 482.610308 432.180793 
L 483.948915 431.551893 
L 486.799091 430.709635 
L 487.224674 428.332364 
L 488.933868 426.967619 
L 490.70148 424.91899 
L 491.182056 423.333164 
L 491.51827 421.140311 
L 492.611145 419.67626 
L 493.572277 418.637179 
L 494.743633 416.41892 
L 494.888552 414.916419 
L 495.432701 414.690636 
L 496.663608 414.005008 
L 497.468954 414.127358 
L 497.859585 411.835221 
L 499.259475 410.461007 
L 499.292694 410.282503 
L 502.962528 409.697351 
L 503.536472 409.6146 
L 504.987336 408.999892 
L 506.74006 407.941894 
L 506.762969 407.789393 
L 508.271694 406.30583 
L 508.441811 406.227803 
L 510.275284 405.715358 
L 510.351476 405.681079 
L 512.002233 404.871909 
L 512.255409 404.670362 
L 513.640968 404.620698 
L 514.047662 404.736558 
L 515.055767 404.727089 
L 515.736236 404.479432 
L 516.504342 404.445152 
L 518.803504 404.308035 
L 520.492057 403.112899 
L 521.308868 402.816791 
L 521.795734 402.013536 
L 522.804395 401.113934 
L 524.096607 400.994542 
L 524.998167 400.372153 
L 525.018787 398.967787 
L 525.700411 397.659174 
L 526.209031 396.392522 
L 527.132943 396.410842 
L 528.291123 395.204493 
L 529.038031 394.657748 
L 530.388659 393.713823 
L 530.909899 392.959636 
L 532.380228 393.2327 
L 534.450278 393.514041 
L 536.730531 393.197825 
L 539.809263 392.521644 
L 541.543078 392.227302 
L 544.620655 390.622559 
L 545.708375 389.716467 
L 546.959923 388.68328 
L 548.024734 387.648326 
L 549.647427 387.091559 
L 551.019253 385.573696 
L 552.141904 385.259841 
L 553.487377 384.841979 
L 554.85576 385.019886 
L 555.67257 385.075444 
L 557.436739 384.462502 
L 558.980971 384.003849 
L 559.719858 382.948213 
L 567.90611 386.642928 
L 574.715959 389.016646 
L 579.539971 387.176672 
L 598.106804 361.195318 
L 600.468404 357.778391 
" clip-path="url(#p51e7c45166)" style="fill: #e0bd1f; stroke: #0000ff; stroke-width: 0.5"/>
    <path d="M 497.544548 496.785129 
L 506.946263 506.115647 
L 501.034531 513.054723 
L 489.053012 505.3721 
L 497.544548 496.785129 
" clip-path="url(#p51e7c45166)" style="fill: #e0bd1f; stroke: #0000ff; stroke-width: 0.5"/>
    <path d="M 495.362819 393.384605 
L 500.514446 401.835608 
L 501.133055 401.781242 
L 501.913759 402.884158 
L 505.82188 408.078416 
L 504.900834 408.8279 
L 503.485479 409.427819 
L 502.933886 409.507017 
L 499.130021 410.114043 
L 499.082491 410.365829 
L 497.682023 411.741235 
L 497.31257 413.909255 
L 496.627523 413.805226 
L 495.35022 414.516877 
L 494.709259 414.782856 
L 494.556896 416.362171 
L 493.415336 418.524872 
L 492.463937 419.552719 
L 491.336709 421.063475 
L 490.995319 423.290011 
L 490.530785 424.823834 
L 488.801548 426.828118 
L 487.049401 428.227164 
L 487.224674 428.332364 
L 487.832972 430.690123 
L 489.897289 451.178132 
L 490.009567 451.86376 
L 489.803364 451.912232 
L 490.153331 453.973266 
L 477.706124 461.180681 
L 473.576335 458.241919 
L 462.814836 448.398957 
L 461.736869 447.443201 
L 461.559287 447.357513 
L 461.247694 448.867674 
L 461.494003 449.342286 
L 461.925875 449.245959 
L 462.137232 449.425037 
L 462.011222 449.622457 
L 461.594239 449.490659 
L 461.333041 449.605306 
L 461.298111 450.041511 
L 460.764849 450.182203 
L 460.2333 451.173408 
L 459.767055 451.81116 
L 459.363227 451.195857 
L 451.443904 443.911009 
L 435.586906 424.238681 
L 434.966009 423.469111 
L 460.118177 404.153768 
L 495.362819 393.384605 
" clip-path="url(#p51e7c45166)" style="fill: #e0bd1f; stroke: #0000ff; stroke-width: 0.5"/>
    <path d="M 519.681 305.063858 
L 600.468404 357.778391 
L 598.106804 361.195318 
L 579.539971 387.176672 
L 574.715959 389.016646 
L 567.90611 386.642928 
L 559.719858 382.948213 
L 510.305637 388.818056 
L 460.118177 404.153768 
L 425.012701 431.112135 
L 418.824327 407.541735 
L 412.1382 381.979457 
L 406.931579 362.341983 
L 400.118864 359.072812 
L 399.845645 332.763432 
L 409.964492 328.042594 
L 424.758968 344.714113 
L 435.467762 336.906182 
L 444.791574 331.850829 
L 454.101054 330.051028 
L 473.953232 318.563724 
L 483.479803 315.460055 
L 492.917026 310.730962 
L 499.288694 306.078108 
L 505.926137 306.777354 
L 514.552859 310.499263 
L 519.681 305.063858 
" clip-path="url(#p51e7c45166)" style="fill: #e0bd1f; stroke: #0000ff; stroke-width: 0.5"/>
    <path d="M 600.468404 357.778391 
L 621.621949 371.896518 
L 621.507403 372.806164 
L 595.675343 402.249363 
L 594.733677 403.635408 
L 594.037165 405.999657 
L 592.180205 409.620515 
L 587.068663 414.812411 
L 571.925354 404.988344 
L 570.912671 405.894436 
L 559.719858 382.948213 
L 567.90611 386.642928 
L 574.715959 389.016646 
L 579.539971 387.176672 
L 598.106804 361.195318 
L 600.468404 357.778391 
" clip-path="url(#p51e7c45166)" style="fill: #e0bd1f; stroke: #0000ff; stroke-width: 0.5"/>
    <path d="M 352.774693 527.77928 
L 401.02329 542.938872 
L 438.9589 553.851067 
L 450.788055 568.236938 
L 471.131697 593.163848 
L 458.030373 593.551581 
L 393.313036 554.932705 
L 351.463593 530.081482 
L 352.774693 527.77928 
" clip-path="url(#p51e7c45166)" style="fill: #e0bd1f; stroke: #0000ff; stroke-width: 0.5"/>
    <path d="M 411.838072 526.806396 
L 429.462682 540.128354 
L 429.808649 540.387246 
L 431.474294 541.628471 
L 446.106694 546.418463 
L 458.315613 562.242979 
L 450.788055 568.236938 
L 438.9589 553.851067 
L 401.02329 542.938872 
L 399.115357 538.017082 
L 403.435306 533.513197 
L 402.840741 531.644242 
L 411.838072 526.806396 
" clip-path="url(#p51e7c45166)" style="fill: #e0bd1f; stroke: #0000ff; stroke-width: 0.5"/>
   </g>
   <g id="PatchCollection_2">
    <path d="M 559.719858 382.948213 
L 558.980971 384.003849 
L 555.67257 385.075444 
L 553.487377 384.841979 
L 551.019253 385.573696 
L 549.647427 387.091559 
L 548.024734 387.648326 
L 546.959923 388.68328 
L 544.620655 390.622559 
L 541.543078 392.227302 
L 539.809263 392.521644 
L 536.730531 393.197825 
L 534.450278 393.514041 
L 530.909899 392.959636 
L 530.388659 393.713823 
L 528.291123 395.204493 
L 527.132943 396.410842 
L 526.209031 396.392522 
L 525.700411 397.659174 
L 525.018787 398.967787 
L 524.998167 400.372153 
L 524.096607 400.994542 
L 522.804395 401.113934 
L 521.795734 402.013536 
L 521.308868 402.816791 
L 520.492635 403.088089 
L 518.743354 404.118893 
L 515.698419 404.288523 
L 515.021393 404.535011 
L 514.073437 404.543862 
L 513.664455 404.427428 
L 512.186104 404.480028 
L 511.899709 404.708173 
L 510.21 405.534493 
L 508.162283 406.145052 
L 506.564788 407.823672 
L 504.900834 408.8279 
L 503.485479 409.427819 
L 499.130021 410.114043 
L 499.082491 410.365829 
L 497.682023 411.741235 
L 497.31257 413.909255 
L 496.627523 413.805226 
L 494.709259 414.782856 
L 494.556896 416.362171 
L 493.415336 418.524872 
L 492.463937 419.552719 
L 491.336709 421.063475 
L 490.995319 423.290011 
L 490.530785 424.823834 
L 488.801548 426.828118 
L 487.049401 428.227164 
L 486.632418 430.558325 
L 483.881321 431.371623 
L 481.208128 432.706238 
L 479.489778 432.684364 
L 477.970187 433.615884 
L 476.586319 434.67152 
L 474.661766 435.086446 
L 472.30361 433.786706 
L 471.332167 434.120051 
L 471.041195 435.029697 
L 470.132747 435.164473 
L 469.165883 434.899091 
L 468.426996 435.188709 
L 468.315296 435.633765 
L 468.143467 435.80163 
L 467.71904 435.447006 
L 466.890208 435.398534 
L 465.155815 435.121917 
L 464.509142 435.719474 
L 464.226191 435.735433 
L 464.071539 435.362468 
L 463.634492 435.27146 
L 463.247862 435.459411 
L 462.070217 436.499684 
L 461.880634 437.399287 
L 461.299245 439.316692 
L 461.720249 440.075028 
L 462.416184 440.347496 
L 462.668205 441.144261 
L 462.470023 442.047395 
L 462.633851 443.144417 
L 462.518708 445.358527 
L 462.617809 446.058348 
L 461.559287 447.357513 
L 461.247694 448.867674 
L 461.494003 449.342286 
L 461.925875 449.245959 
L 462.137232 449.425037 
L 462.011222 449.622457 
L 461.594239 449.490659 
L 461.333041 449.605306 
L 461.298111 450.041511 
L 460.764849 450.182203 
L 459.767055 451.81116 
L 459.969814 452.999785 
L 459.473216 453.097899 
L 459.021858 453.504548 
L 458.855741 454.091488 
L 459.031591 454.67781 
L 459.115784 456.059131 
L 458.744618 456.875387 
L 457.544064 457.71824 
L 457.065797 459.037492 
L 456.586376 459.403946 
L 455.504945 459.27866 
L 454.835363 458.825901 
L 454.268883 458.669272 
L 453.220115 459.018576 
L 452.77849 458.910418 
L 451.842556 459.452418 
L 451.090493 460.326018 
L 450.364783 460.922406 
L 449.851564 461.530006 
L 449.639629 462.137628 
L 449.677426 462.428417 
L 450.170024 462.58743 
L 450.44382 463.069723 
L 450.053169 463.578039 
L 449.531373 463.828059 
L 448.484316 463.921449 
L 447.799846 464.20279 
L 447.437259 464.722937 
L 447.326714 467.216622 
L 447.731676 467.596673 
L 447.331869 468.372159 
L 446.898266 468.895243 
L 446.463528 468.921841 
L 446.0557 469.659494 
L 445.350033 469.934324 
L 444.14719 470.835693 
L 444.112238 471.189167 
L 443.939832 471.297325 
L 443.654015 471.08218 
L 443.287427 471.000599 
L 442.745588 470.576821 
L 441.954553 469.438434 
L 441.587986 469.385239 
L 441.146939 469.76114 
L 440.555817 470.110466 
L 440.176053 470.056674 
L 440.684694 469.419518 
L 440.488801 469.064277 
L 439.996203 468.830216 
L 439.415969 468.938991 
L 438.981231 469.294806 
L 438.956033 469.56787 
L 439.108397 469.840359 
L 438.992119 470.268882 
L 438.350024 470.199728 
L 438.163287 470.533073 
L 438.140378 470.865844 
L 437.985725 471.036666 
L 437.453619 471.072711 
L 436.285129 471.582219 
L 436.43176 471.773128 
L 461.579907 496.711847 
L 469.191102 542.621464 
L 490.667683 518.141419 
L 494.626778 520.57778 
L 527.653028 481.80702 
L 566.705556 551.081935 
L 565.353216 551.530566 
L 563.797519 552.252835 
L 563.351317 553.37703 
L 561.569394 554.331594 
L 560.039472 555.328736 
L 558.263839 554.909065 
L 555.978431 554.884829 
L 554.706263 556.203506 
L 553.141987 555.737747 
L 551.220878 556.592409 
L 550.040367 559.503999 
L 549.385673 560.584467 
L 549.387962 562.023686 
L 550.351383 563.387878 
L 548.044777 565.369692 
L 545.353253 566.313043 
L 543.41208 566.54355 
L 541.80543 566.1239 
L 540.175273 566.662943 
L 539.078397 568.105141 
L 539.038868 570.517266 
L 538.489564 571.903311 
L 537.818251 573.128002 
L 535.706404 573.548248 
L 534.885593 575.278277 
L 532.93411 575.408904 
L 531.602967 575.958586 
L 529.943612 577.443936 
L 528.369583 578.13016 
L 526.685607 578.133713 
L 525.866507 579.730158 
L 524.514167 579.923449 
L 523.057571 580.296393 
L 523.185871 581.063007 
L 522.870277 581.454293 
L 522.140546 581.121522 
L 521.705808 581.203103 
L 520.181619 581.640477 
L 518.89114 583.288372 
L 518.164832 585.175031 
L 517.231764 586.250775 
L 515.570697 587.53279 
L 513.850037 588.551785 
L 512.25312 587.968994 
L 509.697916 587.338328 
L 507.981278 587.192934 
L 504.83555 585.873085 
L 503.392687 587.305815 
L 502.372561 588.706052 
L 500.720072 591.826275 
L 501.210958 592.886635 
L 501.048862 593.128377 
L 500.455452 593.395547 
L 499.525827 594.714203 
L 498.367071 594.998502 
L 498.203263 595.570058 
L 496.418454 594.979586 
L 495.252274 595.160451 
L 493.206845 594.595981 
L 492.111681 594.596577 
L 490.875041 593.65561 
L 490.215769 594.114263 
L 489.955727 594.157415 
L 488.972243 595.25265 
L 488.72882 596.388079 
L 488.841077 596.49862 
L 486.992118 596.892863 
L 485.120827 595.525735 
L 485.704505 595.012695 
L 484.275396 594.087091 
L 482.644682 593.1727 
L 482.637815 592.760731 
L 482.03925 592.286694 
L 481.736812 592.393681 
L 479.620944 591.312639 
L 478.458764 590.456764 
L 477.757675 590.566708 
L 477.254766 590.874647 
L 477.192906 591.353408 
L 477.334959 591.660177 
L 477.782295 591.71633 
L 477.775429 592.079827 
L 477.523408 593.162061 
L 476.649334 594.211207 
L 474.154857 596.86684 
L 438.9589 553.851067 
L 401.02329 542.938872 
L 341.813301 524.32452 
L 382.728521 476.917743 
L 388.902584 470.066143 
L 415.677445 441.487075 
L 424.960016 431.60628 
L 425.012701 431.112135 
L 460.118177 404.153768 
L 510.305637 388.818056 
L 559.719858 382.948213 
L 559.719858 382.948213 
" clip-path="url(#p51e7c45166)" style="fill: none; stroke: #000000"/>
   </g>
   <g id="matplotlib.axis_1">
    <g id="xtick_1">
     <g id="line2d_1">
      <path d="M 124.877608 618.338091 
L 124.877608 254.301909 
" clip-path="url(#p51e7c45166)" style="fill: none; stroke: #b0b0b0; stroke-width: 0.8; stroke-linecap: square"/>
     </g>
     <g id="line2d_2">
      <defs>
       <path id="m0788642462" d="M 0 0 
L 0 3.5 
" style="stroke: #000000; stroke-width: 0.8"/>
      </defs>
      <g>
       <use xlink:href="#m0788642462" x="124.877608" y="618.338091" style="stroke: #000000; stroke-width: 0.8"/>
      </g>
     </g>
     <g id="text_1">
      <!-- −56.80 -->
      <g transform="translate(113.744544 656.879473) rotate(-45) scale(0.1 -0.1)">
       <defs>
        <path id="DejaVuSans-2212" d="M 678 2272 
L 4684 2272 
L 4684 1741 
L 678 1741 
L 678 2272 
z
" transform="scale(0.015625)"/>
        <path id="DejaVuSans-35" d="M 691 4666 
L 3169 4666 
L 3169 4134 
L 1269 4134 
L 1269 2991 
Q 1406 3038 1543 3061 
Q 1681 3084 1819 3084 
Q 2600 3084 3056 2656 
Q 3513 2228 3513 1497 
Q 3513 744 3044 326 
Q 2575 -91 1722 -91 
Q 1428 -91 1123 -41 
Q 819 9 494 109 
L 494 744 
Q 775 591 1075 516 
Q 1375 441 1709 441 
Q 2250 441 2565 725 
Q 2881 1009 2881 1497 
Q 2881 1984 2565 2268 
Q 2250 2553 1709 2553 
Q 1456 2553 1204 2497 
Q 953 2441 691 2322 
L 691 4666 
z
" transform="scale(0.015625)"/>
        <path id="DejaVuSans-36" d="M 2113 2584 
Q 1688 2584 1439 2293 
Q 1191 2003 1191 1497 
Q 1191 994 1439 701 
Q 1688 409 2113 409 
Q 2538 409 2786 701 
Q 3034 994 3034 1497 
Q 3034 2003 2786 2293 
Q 2538 2584 2113 2584 
z
M 3366 4563 
L 3366 3988 
Q 3128 4100 2886 4159 
Q 2644 4219 2406 4219 
Q 1781 4219 1451 3797 
Q 1122 3375 1075 2522 
Q 1259 2794 1537 2939 
Q 1816 3084 2150 3084 
Q 2853 3084 3261 2657 
Q 3669 2231 3669 1497 
Q 3669 778 3244 343 
Q 2819 -91 2113 -91 
Q 1303 -91 875 529 
Q 447 1150 447 2328 
Q 447 3434 972 4092 
Q 1497 4750 2381 4750 
Q 2619 4750 2861 4703 
Q 3103 4656 3366 4563 
z
" transform="scale(0.015625)"/>
        <path id="DejaVuSans-2e" d="M 684 794 
L 1344 794 
L 1344 0 
L 684 0 
L 684 794 
z
" transform="scale(0.015625)"/>
        <path id="DejaVuSans-38" d="M 2034 2216 
Q 1584 2216 1326 1975 
Q 1069 1734 1069 1313 
Q 1069 891 1326 650 
Q 1584 409 2034 409 
Q 2484 409 2743 651 
Q 3003 894 3003 1313 
Q 3003 1734 2745 1975 
Q 2488 2216 2034 2216 
z
M 1403 2484 
Q 997 2584 770 2862 
Q 544 3141 544 3541 
Q 544 4100 942 4425 
Q 1341 4750 2034 4750 
Q 2731 4750 3128 4425 
Q 3525 4100 3525 3541 
Q 3525 3141 3298 2862 
Q 3072 2584 2669 2484 
Q 3125 2378 3379 2068 
Q 3634 1759 3634 1313 
Q 3634 634 3220 271 
Q 2806 -91 2034 -91 
Q 1263 -91 848 271 
Q 434 634 434 1313 
Q 434 1759 690 2068 
Q 947 2378 1403 2484 
z
M 1172 3481 
Q 1172 3119 1398 2916 
Q 1625 2713 2034 2713 
Q 2441 2713 2670 2916 
Q 2900 3119 2900 3481 
Q 2900 3844 2670 4047 
Q 2441 4250 2034 4250 
Q 1625 4250 1398 4047 
Q 1172 3844 1172 3481 
z
" transform="scale(0.015625)"/>
        <path id="DejaVuSans-30" d="M 2034 4250 
Q 1547 4250 1301 3770 
Q 1056 3291 1056 2328 
Q 1056 1369 1301 889 
Q 1547 409 2034 409 
Q 2525 409 2770 889 
Q 3016 1369 3016 2328 
Q 3016 3291 2770 3770 
Q 2525 4250 2034 4250 
z
M 2034 4750 
Q 2819 4750 3233 4129 
Q 3647 3509 3647 2328 
Q 3647 1150 3233 529 
Q 2819 -91 2034 -91 
Q 1250 -91 836 529 
Q 422 1150 422 2328 
Q 422 3509 836 4129 
Q 1250 4750 2034 4750 
z
" transform="scale(0.015625)"/>
       </defs>
       <use xlink:href="#DejaVuSans-2212"/>
       <use xlink:href="#DejaVuSans-35" transform="translate(83.789062 0)"/>
       <use xlink:href="#DejaVuSans-36" transform="translate(147.412109 0)"/>
       <use xlink:href="#DejaVuSans-2e" transform="translate(211.035156 0)"/>
       <use xlink:href="#DejaVuSans-38" transform="translate(242.822266 0)"/>
       <use xlink:href="#DejaVuSans-30" transform="translate(306.445312 0)"/>
      </g>
     </g>
    </g>
    <g id="xtick_2">
     <g id="line2d_3">
      <path d="M 227.979026 618.338091 
L 227.979026 254.301909 
" clip-path="url(#p51e7c45166)" style="fill: none; stroke: #b0b0b0; stroke-width: 0.8; stroke-linecap: square"/>
     </g>
     <g id="line2d_4">
      <g>
       <use xlink:href="#m0788642462" x="227.979026" y="618.338091" style="stroke: #000000; stroke-width: 0.8"/>
      </g>
     </g>
     <g id="text_2">
      <!-- −56.75 -->
      <g transform="translate(216.845961 656.879473) rotate(-45) scale(0.1 -0.1)">
       <defs>
        <path id="DejaVuSans-37" d="M 525 4666 
L 3525 4666 
L 3525 4397 
L 1831 0 
L 1172 0 
L 2766 4134 
L 525 4134 
L 525 4666 
z
" transform="scale(0.015625)"/>
       </defs>
       <use xlink:href="#DejaVuSans-2212"/>
       <use xlink:href="#DejaVuSans-35" transform="translate(83.789062 0)"/>
       <use xlink:href="#DejaVuSans-36" transform="translate(147.412109 0)"/>
       <use xlink:href="#DejaVuSans-2e" transform="translate(211.035156 0)"/>
       <use xlink:href="#DejaVuSans-37" transform="translate(242.822266 0)"/>
       <use xlink:href="#DejaVuSans-35" transform="translate(306.445312 0)"/>
      </g>
     </g>
    </g>
    <g id="xtick_3">
     <g id="line2d_5">
      <path d="M 331.080443 618.338091 
L 331.080443 254.301909 
" clip-path="url(#p51e7c45166)" style="fill: none; stroke: #b0b0b0; stroke-width: 0.8; stroke-linecap: square"/>
     </g>
     <g id="line2d_6">
      <g>
       <use xlink:href="#m0788642462" x="331.080443" y="618.338091" style="stroke: #000000; stroke-width: 0.8"/>
      </g>
     </g>
     <g id="text_3">
      <!-- −56.70 -->
      <g transform="translate(319.947378 656.879473) rotate(-45) scale(0.1 -0.1)">
       <use xlink:href="#DejaVuSans-2212"/>
       <use xlink:href="#DejaVuSans-35" transform="translate(83.789062 0)"/>
       <use xlink:href="#DejaVuSans-36" transform="translate(147.412109 0)"/>
       <use xlink:href="#DejaVuSans-2e" transform="translate(211.035156 0)"/>
       <use xlink:href="#DejaVuSans-37" transform="translate(242.822266 0)"/>
       <use xlink:href="#DejaVuSans-30" transform="translate(306.445312 0)"/>
      </g>
     </g>
    </g>
    <g id="xtick_4">
     <g id="line2d_7">
      <path d="M 434.18186 618.338091 
L 434.18186 254.301909 
" clip-path="url(#p51e7c45166)" style="fill: none; stroke: #b0b0b0; stroke-width: 0.8; stroke-linecap: square"/>
     </g>
     <g id="line2d_8">
      <g>
       <use xlink:href="#m0788642462" x="434.18186" y="618.338091" style="stroke: #000000; stroke-width: 0.8"/>
      </g>
     </g>
     <g id="text_4">
      <!-- −56.65 -->
      <g transform="translate(423.048796 656.879473) rotate(-45) scale(0.1 -0.1)">
       <use xlink:href="#DejaVuSans-2212"/>
       <use xlink:href="#DejaVuSans-35" transform="translate(83.789062 0)"/>
       <use xlink:href="#DejaVuSans-36" transform="translate(147.412109 0)"/>
       <use xlink:href="#DejaVuSans-2e" transform="translate(211.035156 0)"/>
       <use xlink:href="#DejaVuSans-36" transform="translate(242.822266 0)"/>
       <use xlink:href="#DejaVuSans-35" transform="translate(306.445312 0)"/>
      </g>
     </g>
    </g>
    <g id="xtick_5">
     <g id="line2d_9">
      <path d="M 537.283278 618.338091 
L 537.283278 254.301909 
" clip-path="url(#p51e7c45166)" style="fill: none; stroke: #b0b0b0; stroke-width: 0.8; stroke-linecap: square"/>
     </g>
     <g id="line2d_10">
      <g>
       <use xlink:href="#m0788642462" x="537.283278" y="618.338091" style="stroke: #000000; stroke-width: 0.8"/>
      </g>
     </g>
     <g id="text_5">
      <!-- −56.60 -->
      <g transform="translate(526.150213 656.879473) rotate(-45) scale(0.1 -0.1)">
       <use xlink:href="#DejaVuSans-2212"/>
       <use xlink:href="#DejaVuSans-35" transform="translate(83.789062 0)"/>
       <use xlink:href="#DejaVuSans-36" transform="translate(147.412109 0)"/>
       <use xlink:href="#DejaVuSans-2e" transform="translate(211.035156 0)"/>
       <use xlink:href="#DejaVuSans-36" transform="translate(242.822266 0)"/>
       <use xlink:href="#DejaVuSans-30" transform="translate(306.445312 0)"/>
      </g>
     </g>
    </g>
    <g id="xtick_6">
     <g id="line2d_11">
      <path d="M 640.384695 618.338091 
L 640.384695 254.301909 
" clip-path="url(#p51e7c45166)" style="fill: none; stroke: #b0b0b0; stroke-width: 0.8; stroke-linecap: square"/>
     </g>
     <g id="line2d_12">
      <g>
       <use xlink:href="#m0788642462" x="640.384695" y="618.338091" style="stroke: #000000; stroke-width: 0.8"/>
      </g>
     </g>
     <g id="text_6">
      <!-- −56.55 -->
      <g transform="translate(629.25163 656.879473) rotate(-45) scale(0.1 -0.1)">
       <use xlink:href="#DejaVuSans-2212"/>
       <use xlink:href="#DejaVuSans-35" transform="translate(83.789062 0)"/>
       <use xlink:href="#DejaVuSans-36" transform="translate(147.412109 0)"/>
       <use xlink:href="#DejaVuSans-2e" transform="translate(211.035156 0)"/>
       <use xlink:href="#DejaVuSans-35" transform="translate(242.822266 0)"/>
       <use xlink:href="#DejaVuSans-35" transform="translate(306.445312 0)"/>
      </g>
     </g>
    </g>
    <g id="text_7">
     <!-- Longitude (°) -->
     <g transform="translate(336.139844 669.948471) scale(0.1 -0.1)">
      <defs>
       <path id="DejaVuSans-4c" d="M 628 4666 
L 1259 4666 
L 1259 531 
L 3531 531 
L 3531 0 
L 628 0 
L 628 4666 
z
" transform="scale(0.015625)"/>
       <path id="DejaVuSans-6f" d="M 1959 3097 
Q 1497 3097 1228 2736 
Q 959 2375 959 1747 
Q 959 1119 1226 758 
Q 1494 397 1959 397 
Q 2419 397 2687 759 
Q 2956 1122 2956 1747 
Q 2956 2369 2687 2733 
Q 2419 3097 1959 3097 
z
M 1959 3584 
Q 2709 3584 3137 3096 
Q 3566 2609 3566 1747 
Q 3566 888 3137 398 
Q 2709 -91 1959 -91 
Q 1206 -91 779 398 
Q 353 888 353 1747 
Q 353 2609 779 3096 
Q 1206 3584 1959 3584 
z
" transform="scale(0.015625)"/>
       <path id="DejaVuSans-6e" d="M 3513 2113 
L 3513 0 
L 2938 0 
L 2938 2094 
Q 2938 2591 2744 2837 
Q 2550 3084 2163 3084 
Q 1697 3084 1428 2787 
Q 1159 2491 1159 1978 
L 1159 0 
L 581 0 
L 581 3500 
L 1159 3500 
L 1159 2956 
Q 1366 3272 1645 3428 
Q 1925 3584 2291 3584 
Q 2894 3584 3203 3211 
Q 3513 2838 3513 2113 
z
" transform="scale(0.015625)"/>
       <path id="DejaVuSans-67" d="M 2906 1791 
Q 2906 2416 2648 2759 
Q 2391 3103 1925 3103 
Q 1463 3103 1205 2759 
Q 947 2416 947 1791 
Q 947 1169 1205 825 
Q 1463 481 1925 481 
Q 2391 481 2648 825 
Q 2906 1169 2906 1791 
z
M 3481 434 
Q 3481 -459 3084 -895 
Q 2688 -1331 1869 -1331 
Q 1566 -1331 1297 -1286 
Q 1028 -1241 775 -1147 
L 775 -588 
Q 1028 -725 1275 -790 
Q 1522 -856 1778 -856 
Q 2344 -856 2625 -561 
Q 2906 -266 2906 331 
L 2906 616 
Q 2728 306 2450 153 
Q 2172 0 1784 0 
Q 1141 0 747 490 
Q 353 981 353 1791 
Q 353 2603 747 3093 
Q 1141 3584 1784 3584 
Q 2172 3584 2450 3431 
Q 2728 3278 2906 2969 
L 2906 3500 
L 3481 3500 
L 3481 434 
z
" transform="scale(0.015625)"/>
       <path id="DejaVuSans-69" d="M 603 3500 
L 1178 3500 
L 1178 0 
L 603 0 
L 603 3500 
z
M 603 4863 
L 1178 4863 
L 1178 4134 
L 603 4134 
L 603 4863 
z
" transform="scale(0.015625)"/>
       <path id="DejaVuSans-74" d="M 1172 4494 
L 1172 3500 
L 2356 3500 
L 2356 3053 
L 1172 3053 
L 1172 1153 
Q 1172 725 1289 603 
Q 1406 481 1766 481 
L 2356 481 
L 2356 0 
L 1766 0 
Q 1100 0 847 248 
Q 594 497 594 1153 
L 594 3053 
L 172 3053 
L 172 3500 
L 594 3500 
L 594 4494 
L 1172 4494 
z
" transform="scale(0.015625)"/>
       <path id="DejaVuSans-75" d="M 544 1381 
L 544 3500 
L 1119 3500 
L 1119 1403 
Q 1119 906 1312 657 
Q 1506 409 1894 409 
Q 2359 409 2629 706 
Q 2900 1003 2900 1516 
L 2900 3500 
L 3475 3500 
L 3475 0 
L 2900 0 
L 2900 538 
Q 2691 219 2414 64 
Q 2138 -91 1772 -91 
Q 1169 -91 856 284 
Q 544 659 544 1381 
z
M 1991 3584 
L 1991 3584 
z
" transform="scale(0.015625)"/>
       <path id="DejaVuSans-64" d="M 2906 2969 
L 2906 4863 
L 3481 4863 
L 3481 0 
L 2906 0 
L 2906 525 
Q 2725 213 2448 61 
Q 2172 -91 1784 -91 
Q 1150 -91 751 415 
Q 353 922 353 1747 
Q 353 2572 751 3078 
Q 1150 3584 1784 3584 
Q 2172 3584 2448 3432 
Q 2725 3281 2906 2969 
z
M 947 1747 
Q 947 1113 1208 752 
Q 1469 391 1925 391 
Q 2381 391 2643 752 
Q 2906 1113 2906 1747 
Q 2906 2381 2643 2742 
Q 2381 3103 1925 3103 
Q 1469 3103 1208 2742 
Q 947 2381 947 1747 
z
" transform="scale(0.015625)"/>
       <path id="DejaVuSans-65" d="M 3597 1894 
L 3597 1613 
L 953 1613 
Q 991 1019 1311 708 
Q 1631 397 2203 397 
Q 2534 397 2845 478 
Q 3156 559 3463 722 
L 3463 178 
Q 3153 47 2828 -22 
Q 2503 -91 2169 -91 
Q 1331 -91 842 396 
Q 353 884 353 1716 
Q 353 2575 817 3079 
Q 1281 3584 2069 3584 
Q 2775 3584 3186 3129 
Q 3597 2675 3597 1894 
z
M 3022 2063 
Q 3016 2534 2758 2815 
Q 2500 3097 2075 3097 
Q 1594 3097 1305 2825 
Q 1016 2553 972 2059 
L 3022 2063 
z
" transform="scale(0.015625)"/>
       <path id="DejaVuSans-20" transform="scale(0.015625)"/>
       <path id="DejaVuSans-28" d="M 1984 4856 
Q 1566 4138 1362 3434 
Q 1159 2731 1159 2009 
Q 1159 1288 1364 580 
Q 1569 -128 1984 -844 
L 1484 -844 
Q 1016 -109 783 600 
Q 550 1309 550 2009 
Q 550 2706 781 3412 
Q 1013 4119 1484 4856 
L 1984 4856 
z
" transform="scale(0.015625)"/>
       <path id="DejaVuSans-b0" d="M 1600 4347 
Q 1350 4347 1178 4173 
Q 1006 4000 1006 3750 
Q 1006 3503 1178 3333 
Q 1350 3163 1600 3163 
Q 1850 3163 2022 3333 
Q 2194 3503 2194 3750 
Q 2194 3997 2020 4172 
Q 1847 4347 1600 4347 
z
M 1600 4750 
Q 1800 4750 1984 4673 
Q 2169 4597 2303 4453 
Q 2447 4313 2519 4134 
Q 2591 3956 2591 3750 
Q 2591 3338 2302 3052 
Q 2013 2766 1594 2766 
Q 1172 2766 890 3047 
Q 609 3328 609 3750 
Q 609 4169 896 4459 
Q 1184 4750 1600 4750 
z
" transform="scale(0.015625)"/>
       <path id="DejaVuSans-29" d="M 513 4856 
L 1013 4856 
Q 1481 4119 1714 3412 
Q 1947 2706 1947 2009 
Q 1947 1309 1714 600 
Q 1481 -109 1013 -844 
L 513 -844 
Q 928 -128 1133 580 
Q 1338 1288 1338 2009 
Q 1338 2731 1133 3434 
Q 928 4138 513 4856 
z
" transform="scale(0.015625)"/>
      </defs>
      <use xlink:href="#DejaVuSans-4c"/>
      <use xlink:href="#DejaVuSans-6f" transform="translate(53.962891 0)"/>
      <use xlink:href="#DejaVuSans-6e" transform="translate(115.144531 0)"/>
      <use xlink:href="#DejaVuSans-67" transform="translate(178.523438 0)"/>
      <use xlink:href="#DejaVuSans-69" transform="translate(242 0)"/>
      <use xlink:href="#DejaVuSans-74" transform="translate(269.783203 0)"/>
      <use xlink:href="#DejaVuSans-75" transform="translate(308.992188 0)"/>
      <use xlink:href="#DejaVuSans-64" transform="translate(372.371094 0)"/>
      <use xlink:href="#DejaVuSans-65" transform="translate(435.847656 0)"/>
      <use xlink:href="#DejaVuSans-20" transform="translate(497.371094 0)"/>
      <use xlink:href="#DejaVuSans-28" transform="translate(529.158203 0)"/>
      <use xlink:href="#DejaVuSans-b0" transform="translate(568.171875 0)"/>
      <use xlink:href="#DejaVuSans-29" transform="translate(618.171875 0)"/>
     </g>
    </g>
   </g>
   <g id="matplotlib.axis_2">
    <g id="ytick_1">
     <g id="line2d_13">
      <path d="M 90 605.496367 
L 648 605.496367 
" clip-path="url(#p51e7c45166)" style="fill: none; stroke: #b0b0b0; stroke-width: 0.8; stroke-linecap: square"/>
     </g>
     <g id="line2d_14">
      <defs>
       <path id="m2601c39d6a" d="M 0 0 
L -3.5 0 
" style="stroke: #000000; stroke-width: 0.8"/>
      </defs>
      <g>
       <use xlink:href="#m2601c39d6a" x="90" y="605.496367" style="stroke: #000000; stroke-width: 0.8"/>
      </g>
     </g>
     <g id="text_8">
      <!-- −14.34 -->
      <g transform="translate(45.992188 609.295586) scale(0.1 -0.1)">
       <defs>
        <path id="DejaVuSans-31" d="M 794 531 
L 1825 531 
L 1825 4091 
L 703 3866 
L 703 4441 
L 1819 4666 
L 2450 4666 
L 2450 531 
L 3481 531 
L 3481 0 
L 794 0 
L 794 531 
z
" transform="scale(0.015625)"/>
        <path id="DejaVuSans-34" d="M 2419 4116 
L 825 1625 
L 2419 1625 
L 2419 4116 
z
M 2253 4666 
L 3047 4666 
L 3047 1625 
L 3713 1625 
L 3713 1100 
L 3047 1100 
L 3047 0 
L 2419 0 
L 2419 1100 
L 313 1100 
L 313 1709 
L 2253 4666 
z
" transform="scale(0.015625)"/>
        <path id="DejaVuSans-33" d="M 2597 2516 
Q 3050 2419 3304 2112 
Q 3559 1806 3559 1356 
Q 3559 666 3084 287 
Q 2609 -91 1734 -91 
Q 1441 -91 1130 -33 
Q 819 25 488 141 
L 488 750 
Q 750 597 1062 519 
Q 1375 441 1716 441 
Q 2309 441 2620 675 
Q 2931 909 2931 1356 
Q 2931 1769 2642 2001 
Q 2353 2234 1838 2234 
L 1294 2234 
L 1294 2753 
L 1863 2753 
Q 2328 2753 2575 2939 
Q 2822 3125 2822 3475 
Q 2822 3834 2567 4026 
Q 2313 4219 1838 4219 
Q 1578 4219 1281 4162 
Q 984 4106 628 3988 
L 628 4550 
Q 988 4650 1302 4700 
Q 1616 4750 1894 4750 
Q 2613 4750 3031 4423 
Q 3450 4097 3450 3541 
Q 3450 3153 3228 2886 
Q 3006 2619 2597 2516 
z
" transform="scale(0.015625)"/>
       </defs>
       <use xlink:href="#DejaVuSans-2212"/>
       <use xlink:href="#DejaVuSans-31" transform="translate(83.789062 0)"/>
       <use xlink:href="#DejaVuSans-34" transform="translate(147.412109 0)"/>
       <use xlink:href="#DejaVuSans-2e" transform="translate(211.035156 0)"/>
       <use xlink:href="#DejaVuSans-33" transform="translate(242.822266 0)"/>
       <use xlink:href="#DejaVuSans-34" transform="translate(306.445312 0)"/>
      </g>
     </g>
    </g>
    <g id="ytick_2">
     <g id="line2d_15">
      <path d="M 90 562.939843 
L 648 562.939843 
" clip-path="url(#p51e7c45166)" style="fill: none; stroke: #b0b0b0; stroke-width: 0.8; stroke-linecap: square"/>
     </g>
     <g id="line2d_16">
      <g>
       <use xlink:href="#m2601c39d6a" x="90" y="562.939843" style="stroke: #000000; stroke-width: 0.8"/>
      </g>
     </g>
     <g id="text_9">
      <!-- −14.32 -->
      <g transform="translate(45.992188 566.739061) scale(0.1 -0.1)">
       <defs>
        <path id="DejaVuSans-32" d="M 1228 531 
L 3431 531 
L 3431 0 
L 469 0 
L 469 531 
Q 828 903 1448 1529 
Q 2069 2156 2228 2338 
Q 2531 2678 2651 2914 
Q 2772 3150 2772 3378 
Q 2772 3750 2511 3984 
Q 2250 4219 1831 4219 
Q 1534 4219 1204 4116 
Q 875 4013 500 3803 
L 500 4441 
Q 881 4594 1212 4672 
Q 1544 4750 1819 4750 
Q 2544 4750 2975 4387 
Q 3406 4025 3406 3419 
Q 3406 3131 3298 2873 
Q 3191 2616 2906 2266 
Q 2828 2175 2409 1742 
Q 1991 1309 1228 531 
z
" transform="scale(0.015625)"/>
       </defs>
       <use xlink:href="#DejaVuSans-2212"/>
       <use xlink:href="#DejaVuSans-31" transform="translate(83.789062 0)"/>
       <use xlink:href="#DejaVuSans-34" transform="translate(147.412109 0)"/>
       <use xlink:href="#DejaVuSans-2e" transform="translate(211.035156 0)"/>
       <use xlink:href="#DejaVuSans-33" transform="translate(242.822266 0)"/>
       <use xlink:href="#DejaVuSans-32" transform="translate(306.445312 0)"/>
      </g>
     </g>
    </g>
    <g id="ytick_3">
     <g id="line2d_17">
      <path d="M 90 520.383318 
L 648 520.383318 
" clip-path="url(#p51e7c45166)" style="fill: none; stroke: #b0b0b0; stroke-width: 0.8; stroke-linecap: square"/>
     </g>
     <g id="line2d_18">
      <g>
       <use xlink:href="#m2601c39d6a" x="90" y="520.383318" style="stroke: #000000; stroke-width: 0.8"/>
      </g>
     </g>
     <g id="text_10">
      <!-- −14.30 -->
      <g transform="translate(45.992188 524.182537) scale(0.1 -0.1)">
       <use xlink:href="#DejaVuSans-2212"/>
       <use xlink:href="#DejaVuSans-31" transform="translate(83.789062 0)"/>
       <use xlink:href="#DejaVuSans-34" transform="translate(147.412109 0)"/>
       <use xlink:href="#DejaVuSans-2e" transform="translate(211.035156 0)"/>
       <use xlink:href="#DejaVuSans-33" transform="translate(242.822266 0)"/>
       <use xlink:href="#DejaVuSans-30" transform="translate(306.445312 0)"/>
      </g>
     </g>
    </g>
    <g id="ytick_4">
     <g id="line2d_19">
      <path d="M 90 477.826793 
L 648 477.826793 
" clip-path="url(#p51e7c45166)" style="fill: none; stroke: #b0b0b0; stroke-width: 0.8; stroke-linecap: square"/>
     </g>
     <g id="line2d_20">
      <g>
       <use xlink:href="#m2601c39d6a" x="90" y="477.826793" style="stroke: #000000; stroke-width: 0.8"/>
      </g>
     </g>
     <g id="text_11">
      <!-- −14.28 -->
      <g transform="translate(45.992188 481.626012) scale(0.1 -0.1)">
       <use xlink:href="#DejaVuSans-2212"/>
       <use xlink:href="#DejaVuSans-31" transform="translate(83.789062 0)"/>
       <use xlink:href="#DejaVuSans-34" transform="translate(147.412109 0)"/>
       <use xlink:href="#DejaVuSans-2e" transform="translate(211.035156 0)"/>
       <use xlink:href="#DejaVuSans-32" transform="translate(242.822266 0)"/>
       <use xlink:href="#DejaVuSans-38" transform="translate(306.445312 0)"/>
      </g>
     </g>
    </g>
    <g id="ytick_5">
     <g id="line2d_21">
      <path d="M 90 435.270269 
L 648 435.270269 
" clip-path="url(#p51e7c45166)" style="fill: none; stroke: #b0b0b0; stroke-width: 0.8; stroke-linecap: square"/>
     </g>
     <g id="line2d_22">
      <g>
       <use xlink:href="#m2601c39d6a" x="90" y="435.270269" style="stroke: #000000; stroke-width: 0.8"/>
      </g>
     </g>
     <g id="text_12">
      <!-- −14.26 -->
      <g transform="translate(45.992188 439.069488) scale(0.1 -0.1)">
       <use xlink:href="#DejaVuSans-2212"/>
       <use xlink:href="#DejaVuSans-31" transform="translate(83.789062 0)"/>
       <use xlink:href="#DejaVuSans-34" transform="translate(147.412109 0)"/>
       <use xlink:href="#DejaVuSans-2e" transform="translate(211.035156 0)"/>
       <use xlink:href="#DejaVuSans-32" transform="translate(242.822266 0)"/>
       <use xlink:href="#DejaVuSans-36" transform="translate(306.445312 0)"/>
      </g>
     </g>
    </g>
    <g id="ytick_6">
     <g id="line2d_23">
      <path d="M 90 392.713744 
L 648 392.713744 
" clip-path="url(#p51e7c45166)" style="fill: none; stroke: #b0b0b0; stroke-width: 0.8; stroke-linecap: square"/>
     </g>
     <g id="line2d_24">
      <g>
       <use xlink:href="#m2601c39d6a" x="90" y="392.713744" style="stroke: #000000; stroke-width: 0.8"/>
      </g>
     </g>
     <g id="text_13">
      <!-- −14.24 -->
      <g transform="translate(45.992188 396.512963) scale(0.1 -0.1)">
       <use xlink:href="#DejaVuSans-2212"/>
       <use xlink:href="#DejaVuSans-31" transform="translate(83.789062 0)"/>
       <use xlink:href="#DejaVuSans-34" transform="translate(147.412109 0)"/>
       <use xlink:href="#DejaVuSans-2e" transform="translate(211.035156 0)"/>
       <use xlink:href="#DejaVuSans-32" transform="translate(242.822266 0)"/>
       <use xlink:href="#DejaVuSans-34" transform="translate(306.445312 0)"/>
      </g>
     </g>
    </g>
    <g id="ytick_7">
     <g id="line2d_25">
      <path d="M 90 350.15722 
L 648 350.15722 
" clip-path="url(#p51e7c45166)" style="fill: none; stroke: #b0b0b0; stroke-width: 0.8; stroke-linecap: square"/>
     </g>
     <g id="line2d_26">
      <g>
       <use xlink:href="#m2601c39d6a" x="90" y="350.15722" style="stroke: #000000; stroke-width: 0.8"/>
      </g>
     </g>
     <g id="text_14">
      <!-- −14.22 -->
      <g transform="translate(45.992188 353.956438) scale(0.1 -0.1)">
       <use xlink:href="#DejaVuSans-2212"/>
       <use xlink:href="#DejaVuSans-31" transform="translate(83.789062 0)"/>
       <use xlink:href="#DejaVuSans-34" transform="translate(147.412109 0)"/>
       <use xlink:href="#DejaVuSans-2e" transform="translate(211.035156 0)"/>
       <use xlink:href="#DejaVuSans-32" transform="translate(242.822266 0)"/>
       <use xlink:href="#DejaVuSans-32" transform="translate(306.445312 0)"/>
      </g>
     </g>
    </g>
    <g id="ytick_8">
     <g id="line2d_27">
      <path d="M 90 307.600695 
L 648 307.600695 
" clip-path="url(#p51e7c45166)" style="fill: none; stroke: #b0b0b0; stroke-width: 0.8; stroke-linecap: square"/>
     </g>
     <g id="line2d_28">
      <g>
       <use xlink:href="#m2601c39d6a" x="90" y="307.600695" style="stroke: #000000; stroke-width: 0.8"/>
      </g>
     </g>
     <g id="text_15">
      <!-- −14.20 -->
      <g transform="translate(45.992188 311.399914) scale(0.1 -0.1)">
       <use xlink:href="#DejaVuSans-2212"/>
       <use xlink:href="#DejaVuSans-31" transform="translate(83.789062 0)"/>
       <use xlink:href="#DejaVuSans-34" transform="translate(147.412109 0)"/>
       <use xlink:href="#DejaVuSans-2e" transform="translate(211.035156 0)"/>
       <use xlink:href="#DejaVuSans-32" transform="translate(242.822266 0)"/>
       <use xlink:href="#DejaVuSans-30" transform="translate(306.445312 0)"/>
      </g>
     </g>
    </g>
    <g id="ytick_9">
     <g id="line2d_29">
      <path d="M 90 265.044171 
L 648 265.044171 
" clip-path="url(#p51e7c45166)" style="fill: none; stroke: #b0b0b0; stroke-width: 0.8; stroke-linecap: square"/>
     </g>
     <g id="line2d_30">
      <g>
       <use xlink:href="#m2601c39d6a" x="90" y="265.044171" style="stroke: #000000; stroke-width: 0.8"/>
      </g>
     </g>
     <g id="text_16">
      <!-- −14.18 -->
      <g transform="translate(45.992188 268.843389) scale(0.1 -0.1)">
       <use xlink:href="#DejaVuSans-2212"/>
       <use xlink:href="#DejaVuSans-31" transform="translate(83.789062 0)"/>
       <use xlink:href="#DejaVuSans-34" transform="translate(147.412109 0)"/>
       <use xlink:href="#DejaVuSans-2e" transform="translate(211.035156 0)"/>
       <use xlink:href="#DejaVuSans-31" transform="translate(242.822266 0)"/>
       <use xlink:href="#DejaVuSans-38" transform="translate(306.445312 0)"/>
      </g>
     </g>
    </g>
    <g id="text_17">
     <!-- Latitude (°) -->
     <g transform="translate(39.9125 464.889531) rotate(-90) scale(0.1 -0.1)">
      <defs>
       <path id="DejaVuSans-61" d="M 2194 1759 
Q 1497 1759 1228 1600 
Q 959 1441 959 1056 
Q 959 750 1161 570 
Q 1363 391 1709 391 
Q 2188 391 2477 730 
Q 2766 1069 2766 1631 
L 2766 1759 
L 2194 1759 
z
M 3341 1997 
L 3341 0 
L 2766 0 
L 2766 531 
Q 2569 213 2275 61 
Q 1981 -91 1556 -91 
Q 1019 -91 701 211 
Q 384 513 384 1019 
Q 384 1609 779 1909 
Q 1175 2209 1959 2209 
L 2766 2209 
L 2766 2266 
Q 2766 2663 2505 2880 
Q 2244 3097 1772 3097 
Q 1472 3097 1187 3025 
Q 903 2953 641 2809 
L 641 3341 
Q 956 3463 1253 3523 
Q 1550 3584 1831 3584 
Q 2591 3584 2966 3190 
Q 3341 2797 3341 1997 
z
" transform="scale(0.015625)"/>
      </defs>
      <use xlink:href="#DejaVuSans-4c"/>
      <use xlink:href="#DejaVuSans-61" transform="translate(55.712891 0)"/>
      <use xlink:href="#DejaVuSans-74" transform="translate(116.992188 0)"/>
      <use xlink:href="#DejaVuSans-69" transform="translate(156.201172 0)"/>
      <use xlink:href="#DejaVuSans-74" transform="translate(183.984375 0)"/>
      <use xlink:href="#DejaVuSans-75" transform="translate(223.193359 0)"/>
      <use xlink:href="#DejaVuSans-64" transform="translate(286.572266 0)"/>
      <use xlink:href="#DejaVuSans-65" transform="translate(350.048828 0)"/>
      <use xlink:href="#DejaVuSans-20" transform="translate(411.572266 0)"/>
      <use xlink:href="#DejaVuSans-28" transform="translate(443.359375 0)"/>
      <use xlink:href="#DejaVuSans-b0" transform="translate(482.373047 0)"/>
      <use xlink:href="#DejaVuSans-29" transform="translate(532.373047 0)"/>
     </g>
    </g>
   </g>
   <g id="patch_3">
    <path d="M 90 618.338091 
L 90 254.301909 
" style="fill: none; stroke: #000000; stroke-width: 0.8; stroke-linejoin: miter; stroke-linecap: square"/>
   </g>
   <g id="patch_4">
    <path d="M 648 618.338091 
L 648 254.301909 
" style="fill: none; stroke: #000000; stroke-width: 0.8; stroke-linejoin: miter; stroke-linecap: square"/>
   </g>
   <g id="patch_5">
    <path d="M 90 618.338091 
L 648 618.338091 
" style="fill: none; stroke: #000000; stroke-width: 0.8; stroke-linejoin: miter; stroke-linecap: square"/>
   </g>
   <g id="patch_6">
    <path d="M 90 254.301909 
L 648 254.301909 
" style="fill: none; stroke: #000000; stroke-width: 0.8; stroke-linejoin: miter; stroke-linecap: square"/>
   </g>
   <g id="legend_1">
    <g id="patch_7">
     <path d="M 279.8375 730.437202 
L 458.1625 730.437202 
Q 460.1625 730.437202 460.1625 728.437202 
L 460.1625 698.145327 
Q 460.1625 696.145327 458.1625 696.145327 
L 279.8375 696.145327 
Q 277.8375 696.145327 277.8375 698.145327 
L 277.8375 728.437202 
Q 277.8375 730.437202 279.8375 730.437202 
z
" style="fill: #ffffff; opacity: 0.8; stroke: #cccccc; stroke-linejoin: miter"/>
    </g>
    <g id="text_18">
     <!-- Legenda -->
     <g transform="translate(343.280625 709.263452) scale(0.12 -0.12)">
      <use xlink:href="#DejaVuSans-4c"/>
      <use xlink:href="#DejaVuSans-65" transform="translate(53.962891 0)"/>
      <use xlink:href="#DejaVuSans-67" transform="translate(115.486328 0)"/>
      <use xlink:href="#DejaVuSans-65" transform="translate(178.962891 0)"/>
      <use xlink:href="#DejaVuSans-6e" transform="translate(240.486328 0)"/>
      <use xlink:href="#DejaVuSans-64" transform="translate(303.865234 0)"/>
      <use xlink:href="#DejaVuSans-61" transform="translate(367.341797 0)"/>
     </g>
    </g>
    <g id="patch_8">
     <path d="M 281.8375 724.357515 
L 301.8375 724.357515 
L 301.8375 717.357515 
L 281.8375 717.357515 
L 281.8375 724.357515 
z
" style="fill: none; stroke: #000000; stroke-linejoin: miter"/>
    </g>
    <g id="text_19">
     <!-- Gleba Federal -->
     <g transform="translate(309.8375 724.357515) scale(0.1 -0.1)">
      <defs>
       <path id="DejaVuSans-47" d="M 3809 666 
L 3809 1919 
L 2778 1919 
L 2778 2438 
L 4434 2438 
L 4434 434 
Q 4069 175 3628 42 
Q 3188 -91 2688 -91 
Q 1594 -91 976 548 
Q 359 1188 359 2328 
Q 359 3472 976 4111 
Q 1594 4750 2688 4750 
Q 3144 4750 3555 4637 
Q 3966 4525 4313 4306 
L 4313 3634 
Q 3963 3931 3569 4081 
Q 3175 4231 2741 4231 
Q 1884 4231 1454 3753 
Q 1025 3275 1025 2328 
Q 1025 1384 1454 906 
Q 1884 428 2741 428 
Q 3075 428 3337 486 
Q 3600 544 3809 666 
z
" transform="scale(0.015625)"/>
       <path id="DejaVuSans-6c" d="M 603 4863 
L 1178 4863 
L 1178 0 
L 603 0 
L 603 4863 
z
" transform="scale(0.015625)"/>
       <path id="DejaVuSans-62" d="M 3116 1747 
Q 3116 2381 2855 2742 
Q 2594 3103 2138 3103 
Q 1681 3103 1420 2742 
Q 1159 2381 1159 1747 
Q 1159 1113 1420 752 
Q 1681 391 2138 391 
Q 2594 391 2855 752 
Q 3116 1113 3116 1747 
z
M 1159 2969 
Q 1341 3281 1617 3432 
Q 1894 3584 2278 3584 
Q 2916 3584 3314 3078 
Q 3713 2572 3713 1747 
Q 3713 922 3314 415 
Q 2916 -91 2278 -91 
Q 1894 -91 1617 61 
Q 1341 213 1159 525 
L 1159 0 
L 581 0 
L 581 4863 
L 1159 4863 
L 1159 2969 
z
" transform="scale(0.015625)"/>
       <path id="DejaVuSans-46" d="M 628 4666 
L 3309 4666 
L 3309 4134 
L 1259 4134 
L 1259 2759 
L 3109 2759 
L 3109 2228 
L 1259 2228 
L 1259 0 
L 628 0 
L 628 4666 
z
" transform="scale(0.015625)"/>
       <path id="DejaVuSans-72" d="M 2631 2963 
Q 2534 3019 2420 3045 
Q 2306 3072 2169 3072 
Q 1681 3072 1420 2755 
Q 1159 2438 1159 1844 
L 1159 0 
L 581 0 
L 581 3500 
L 1159 3500 
L 1159 2956 
Q 1341 3275 1631 3429 
Q 1922 3584 2338 3584 
Q 2397 3584 2469 3576 
Q 2541 3569 2628 3553 
L 2631 2963 
z
" transform="scale(0.015625)"/>
      </defs>
      <use xlink:href="#DejaVuSans-47"/>
      <use xlink:href="#DejaVuSans-6c" transform="translate(77.490234 0)"/>
      <use xlink:href="#DejaVuSans-65" transform="translate(105.273438 0)"/>
      <use xlink:href="#DejaVuSans-62" transform="translate(166.796875 0)"/>
      <use xlink:href="#DejaVuSans-61" transform="translate(230.273438 0)"/>
      <use xlink:href="#DejaVuSans-20" transform="translate(291.552734 0)"/>
      <use xlink:href="#DejaVuSans-46" transform="translate(323.339844 0)"/>
      <use xlink:href="#DejaVuSans-65" transform="translate(375.359375 0)"/>
      <use xlink:href="#DejaVuSans-64" transform="translate(436.882812 0)"/>
      <use xlink:href="#DejaVuSans-65" transform="translate(500.359375 0)"/>
      <use xlink:href="#DejaVuSans-72" transform="translate(561.882812 0)"/>
      <use xlink:href="#DejaVuSans-61" transform="translate(602.996094 0)"/>
      <use xlink:href="#DejaVuSans-6c" transform="translate(664.275391 0)"/>
     </g>
    </g>
    <g id="patch_9">
     <path d="M 399.045312 724.357515 
L 419.045312 724.357515 
L 419.045312 717.357515 
L 399.045312 717.357515 
z
" style="fill: #e0bd1f; opacity: 0.6"/>
    </g>
    <g id="text_20">
     <!-- SIGEF -->
     <g transform="translate(427.045312 724.357515) scale(0.1 -0.1)">
      <defs>
       <path id="DejaVuSans-53" d="M 3425 4513 
L 3425 3897 
Q 3066 4069 2747 4153 
Q 2428 4238 2131 4238 
Q 1616 4238 1336 4038 
Q 1056 3838 1056 3469 
Q 1056 3159 1242 3001 
Q 1428 2844 1947 2747 
L 2328 2669 
Q 3034 2534 3370 2195 
Q 3706 1856 3706 1288 
Q 3706 609 3251 259 
Q 2797 -91 1919 -91 
Q 1588 -91 1214 -16 
Q 841 59 441 206 
L 441 856 
Q 825 641 1194 531 
Q 1563 422 1919 422 
Q 2459 422 2753 634 
Q 3047 847 3047 1241 
Q 3047 1584 2836 1778 
Q 2625 1972 2144 2069 
L 1759 2144 
Q 1053 2284 737 2584 
Q 422 2884 422 3419 
Q 422 4038 858 4394 
Q 1294 4750 2059 4750 
Q 2388 4750 2728 4690 
Q 3069 4631 3425 4513 
z
" transform="scale(0.015625)"/>
       <path id="DejaVuSans-49" d="M 628 4666 
L 1259 4666 
L 1259 0 
L 628 0 
L 628 4666 
z
" transform="scale(0.015625)"/>
       <path id="DejaVuSans-45" d="M 628 4666 
L 3578 4666 
L 3578 4134 
L 1259 4134 
L 1259 2753 
L 3481 2753 
L 3481 2222 
L 1259 2222 
L 1259 531 
L 3634 531 
L 3634 0 
L 628 0 
L 628 4666 
z
" transform="scale(0.015625)"/>
      </defs>
      <use xlink:href="#DejaVuSans-53"/>
      <use xlink:href="#DejaVuSans-49" transform="translate(63.476562 0)"/>
      <use xlink:href="#DejaVuSans-47" transform="translate(92.96875 0)"/>
      <use xlink:href="#DejaVuSans-45" transform="translate(170.458984 0)"/>
      <use xlink:href="#DejaVuSans-46" transform="translate(233.642578 0)"/>
     </g>
    </g>
   </g>
  </g>
 </g>
 <defs>
  <clipPath id="p51e7c45166">
   <rect x="90" y="254.301909" width="558" height="364.036182"/>
  </clipPath>
 </defs>
</svg>
