<?xml version="1.0" encoding="utf-8" standalone="no"?>
<!DOCTYPE svg PUBLIC "-//W3C//DTD SVG 1.1//EN"
  "http://www.w3.org/Graphics/SVG/1.1/DTD/svg11.dtd">
<svg xmlns:xlink="http://www.w3.org/1999/xlink" width="720pt" height="864pt" viewBox="0 0 720 864" xmlns="http://www.w3.org/2000/svg" version="1.1">
 <metadata>
  <rdf:RDF xmlns:dc="http://purl.org/dc/elements/1.1/" xmlns:cc="http://creativecommons.org/ns#" xmlns:rdf="http://www.w3.org/1999/02/22-rdf-syntax-ns#">
   <cc:Work>
    <dc:type rdf:resource="http://purl.org/dc/dcmitype/StillImage"/>
    <dc:date>2025-06-16T17:44:58.178082</dc:date>
    <dc:format>image/svg+xml</dc:format>
    <dc:creator>
     <cc:Agent>
      <dc:title>Matplotlib v3.10.1, https://matplotlib.org/</dc:title>
     </cc:Agent>
    </dc:creator>
   </cc:Work>
  </rdf:RDF>
 </metadata>
 <defs>
  <style type="text/css">*{stroke-linejoin: round; stroke-linecap: butt}</style>
 </defs>
 <g id="figure_1">
  <g id="patch_1">
   <path d="M 0 864 
L 720 864 
L 720 0 
L 0 0 
z
" style="fill: #ffffff"/>
  </g>
  <g id="axes_1">
   <g id="patch_2">
    <path d="M 207.325587 768.96 
L 530.674413 768.96 
L 530.674413 103.68 
L 207.325587 103.68 
z
" style="fill: #ffffff"/>
   </g>
   <g id="PatchCollection_1">
    <path d="M 381.893689 230.753357 
L 382.400997 230.961475 
L 382.700878 231.23441 
L 384.223781 232.76291 
L 385.811348 234.41803 
L 387.428125 236.066268 
L 389.006617 237.70219 
L 390.541533 239.276503 
L 391.930042 240.691587 
L 392.493948 241.243062 
L 392.760966 241.510416 
L 393.462311 242.246473 
L 428.442 279.379559 
L 424.859573 289.441885 
L 417.7225 291.936039 
L 392.907762 300.744517 
L 340.553261 323.327289 
L 316.508558 336.076664 
L 316.220888 336.240001 
L 308.080277 340.802647 
L 307.501978 340.967041 
L 306.110641 340.831929 
L 304.501793 340.729466 
L 302.659931 340.712359 
L 300.84429 340.694085 
L 299.015195 340.706872 
L 297.097611 340.701698 
L 295.152959 340.730526 
L 293.207029 340.772284 
L 291.278473 340.562735 
L 289.969098 340.322579 
L 288.006114 339.741846 
L 286.202985 338.983932 
L 285.017755 338.442041 
L 283.221745 337.471608 
L 281.475995 336.409998 
L 279.809193 335.180902 
L 278.236951 333.929961 
L 276.644987 332.660534 
L 275.178054 331.276783 
L 273.945025 329.609832 
L 272.723603 327.873731 
L 271.54779 326.108659 
L 270.842114 324.894121 
L 269.92934 323.015674 
L 269.067048 321.13092 
L 268.646765 319.850117 
L 268.162061 317.762523 
L 267.89967 315.609456 
L 267.731778 313.526878 
L 267.455383 311.498946 
L 267.031922 309.443406 
L 266.688304 307.631271 
L 266.482759 306.564946 
L 266.279435 305.347317 
L 265.883708 304.126072 
L 265.628245 303.507298 
L 265.316534 302.921688 
L 264.508225 301.870812 
L 263.103157 300.43124 
L 262.065187 299.58169 
L 260.928849 298.865706 
L 259.05921 297.922587 
L 257.180731 297.114071 
L 255.26237 296.479625 
L 253.257887 295.863307 
L 251.311196 295.349207 
L 249.445766 294.716659 
L 248.290429 294.22258 
L 246.578232 293.320756 
L 244.785477 292.551307 
L 242.921168 291.883653 
L 241.047223 291.214716 
L 239.772879 290.891198 
L 237.864709 290.555372 
L 235.914547 290.280124 
L 233.791372 289.294773 
L 232.936449 289.131411 
L 230.881945 289.377924 
L 229.041199 289.073651 
L 227.784347 288.774305 
L 227.205052 288.575271 
L 226.144392 287.954044 
L 224.781201 286.829093 
L 223.541135 285.641836 
L 222.832003 284.694269 
L 222.596726 284.195001 
L 222.149245 282.500461 
L 222.023261 281.482919 
L 222.053146 281.04551 
L 222.185471 280.366793 
L 222.243219 279.879704 
L 222.202672 279.351471 
L 222.108753 279.0341 
L 222.090621 278.683386 
L 222.271385 277.790058 
L 222.431451 277.322971 
L 222.661971 276.86483 
L 223.193678 275.892291 
L 223.498781 275.465009 
L 223.852923 275.091148 
L 224.260459 274.799343 
L 225.232242 274.315553 
L 226.260781 273.943941 
L 227.840795 273.578148 
L 229.203193 273.28305 
L 230.474642 273.119546 
L 231.917393 272.905342 
L 233.506382 272.591327 
L 234.546523 272.224218 
L 235.494062 271.66343 
L 236.380801 270.940176 
L 236.807047 270.520506 
L 237.165976 270.040884 
L 237.748317 269.002797 
L 238.158155 267.929047 
L 238.564912 266.360288 
L 238.782658 264.963368 
L 239.079031 263.571187 
L 239.66961 262.128466 
L 239.843442 261.530016 
L 239.94544 260.89151 
L 239.890682 259.713189 
L 239.571739 258.026053 
L 239.397685 256.423763 
L 239.262755 255.335763 
L 238.708351 253.734951 
L 238.434408 252.73235 
L 238.285396 251.414101 
L 238.101419 250.427477 
L 238.008834 249.474006 
L 237.737023 248.501027 
L 237.324276 247.370048 
L 236.797877 246.132425 
L 236.631885 245.696356 
L 235.995857 244.483006 
L 235.198926 243.319643 
L 234.330239 242.244886 
L 233.51097 241.259387 
L 233.000295 240.584504 
L 232.33157 239.391698 
L 231.731616 238.116746 
L 231.26273 236.766323 
L 230.958372 235.8445 
L 230.699805 234.382786 
L 230.655545 233.477506 
L 230.73675 233.072122 
L 230.912725 232.649382 
L 231.12132 232.233222 
L 231.524509 232.200965 
L 291.513645 232.156341 
L 318.628202 231.983221 
L 341.79274 231.90996 
L 343.002948 232.00235 
L 345.045189 231.968925 
L 347.358918 231.94779 
L 349.662293 231.91616 
L 351.214816 231.90856 
L 353.007733 231.892497 
L 354.553152 231.862966 
L 357.189338 231.846031 
L 359.865869 231.817263 
L 362.675194 231.789143 
L 365.269877 231.758853 
L 367.90022 231.712235 
L 370.46148 231.61313 
L 373.042114 231.486449 
L 375.444865 231.303959 
L 377.848473 231.083386 
L 380.016019 230.910358 
L 381.082605 230.82354 
L 381.893689 230.753357 
" clip-path="url(#pfd514af721)" style="fill: #e0bd1f; stroke: #0000ff; stroke-width: 0.5"/>
    <path d="M 321.224776 231.971044 
L 329.9209 260.355284 
L 317.466115 263.545455 
L 287.277147 271.903205 
L 280.508015 232.170621 
L 285.3007 232.163739 
L 290.097081 232.157628 
L 294.876471 232.126274 
L 299.640333 232.136982 
L 304.441898 232.093378 
L 309.24123 232.034496 
L 314.033915 232.004683 
L 318.628202 231.983221 
L 318.838405 231.992461 
L 321.224776 231.971044 
" clip-path="url(#pfd514af721)" style="fill: #e0bd1f; stroke: #0000ff; stroke-width: 0.5"/>
    <path d="M 393.231002 243.040284 
L 397.760747 247.256638 
L 402.264647 252.006701 
L 410.327046 260.369048 
L 418.773525 269.210075 
L 428.440869 279.380835 
L 424.843231 289.45142 
L 417.003143 292.221022 
L 368.150836 310.503322 
L 361.661634 280.80617 
L 374.970195 278.519819 
L 375.244222 256.408097 
L 376.833665 256.791202 
L 379.964531 256.842431 
L 382.023697 256.586257 
L 383.997938 255.590686 
L 386.610317 253.625502 
L 389.73972 248.620008 
L 393.231002 243.040284 
" clip-path="url(#pfd514af721)" style="fill: #e0bd1f; stroke: #0000ff; stroke-width: 0.5"/>
    <path d="M 259.105255 232.181329 
L 259.132588 239.010514 
L 236.85611 239.070937 
L 236.381176 236.316614 
L 235.184666 236.340315 
L 231.339591 236.987219 
L 231.26273 236.766323 
L 230.958372 235.8445 
L 230.699805 234.382786 
L 230.655545 233.477506 
L 230.73675 233.072122 
L 230.912725 232.649382 
L 231.12132 232.233222 
L 231.524509 232.200965 
L 259.105255 232.181329 
" clip-path="url(#pfd514af721)" style="fill: #e0bd1f; stroke: #0000ff; stroke-width: 0.5"/>
    <path d="M 344.00573 257.70039 
L 355.476718 284.062849 
L 314.556098 307.15258 
L 302.816267 268.526449 
L 311.806333 266.163654 
L 314.982242 265.530514 
L 322.485552 263.357358 
L 330.210429 261.32641 
L 335.126434 260.112874 
L 337.458165 259.421623 
L 344.00573 257.70039 
" clip-path="url(#pfd514af721)" style="fill: #e0bd1f; stroke: #0000ff; stroke-width: 0.5"/>
    <path d="M 365.238586 253.264585 
L 366.528901 253.701974 
L 367.670026 254.02694 
L 368.778631 254.332802 
L 369.943393 254.796949 
L 370.337789 254.909372 
L 372.30392 255.46604 
L 374.640809 256.248298 
L 375.244222 256.408097 
L 374.970195 278.519819 
L 361.661634 280.80617 
L 355.476718 284.062849 
L 344.00573 257.70039 
L 346.546451 257.376939 
L 348.516277 256.830181 
L 351.028202 256.119055 
L 353.457409 255.462213 
L 355.865929 254.790837 
L 358.20577 254.259413 
L 360.580335 253.610197 
L 361.179335 253.49703 
L 362.917225 253.379266 
L 364.369282 253.280634 
L 365.238586 253.264585 
" clip-path="url(#pfd514af721)" style="fill: #e0bd1f; stroke: #0000ff; stroke-width: 0.5"/>
    <path d="M 381.893689 230.753357 
L 382.381188 230.753709 
L 392.739103 241.447497 
L 387.418333 249.854191 
L 385.896107 251.667971 
L 384.376088 253.456509 
L 383.266738 254.567559 
L 382.902627 254.709795 
L 382.442476 254.949893 
L 381.134452 255.300873 
L 380.305749 255.522609 
L 379.455643 255.612075 
L 378.545711 255.509616 
L 376.98876 255.409443 
L 374.792952 255.202241 
L 365.770368 252.10459 
L 364.692791 252.082403 
L 363.680917 251.854527 
L 361.329271 252.193285 
L 355.989276 253.452682 
L 343.716945 256.752965 
L 329.966687 260.494464 
L 321.224776 231.971044 
L 323.527685 231.990149 
L 329.423817 231.88235 
L 336.557087 231.912933 
L 341.79274 231.90996 
L 351.09542 231.879294 
L 356.172448 231.831864 
L 365.4166 231.735516 
L 371.535043 231.512238 
L 381.893689 230.753357 
" clip-path="url(#pfd514af721)" style="fill: #e0bd1f; stroke: #0000ff; stroke-width: 0.5"/>
    <path d="M 424.859573 289.441885 
L 425.083262 289.653847 
L 444.204882 311.191386 
L 444.17945 311.345859 
L 444.089169 311.517063 
L 444.138395 311.683206 
L 444.401725 311.87736 
L 444.395006 311.975644 
L 443.271725 316.422623 
L 443.576868 316.94989 
L 443.833076 317.296332 
L 444.158797 317.384651 
L 444.3472 317.574601 
L 444.634377 317.649616 
L 445.026973 318.043498 
L 445.228806 317.870384 
L 445.443127 317.82448 
L 445.559155 317.729755 
L 445.84622 317.758728 
L 445.946215 317.902374 
L 446.090923 317.895586 
L 446.189482 318.022802 
L 446.288829 318.303822 
L 446.64965 318.568694 
L 446.78806 318.601208 
L 446.881287 318.860559 
L 447.305658 319.045731 
L 447.592681 319.00477 
L 447.867899 319.194727 
L 448.180593 319.25563 
L 448.410012 319.206535 
L 448.476577 319.110418 
L 448.772089 319.042106 
L 448.891996 318.973773 
L 449.079097 319.102246 
L 449.297315 319.162122 
L 449.702245 319.060038 
L 449.882501 319.161115 
L 451.056351 319.408228 
L 451.298794 319.896482 
L 451.597465 319.847341 
L 451.613857 319.993726 
L 451.997226 320.245719 
L 452.153961 320.270572 
L 452.180352 320.380899 
L 452.313465 320.448736 
L 452.457814 320.395655 
L 452.552336 320.550981 
L 452.734296 320.576654 
L 452.831397 320.695901 
L 452.845511 320.860197 
L 452.950486 320.993155 
L 453.170949 321.216794 
L 453.530129 321.45229 
L 453.731334 321.74904 
L 453.960524 321.948564 
L 454.736467 322.351285 
L 455.456388 323.222216 
L 455.940763 323.953084 
L 456.277521 324.075525 
L 456.445161 324.263169 
L 456.634825 324.447146 
L 457.083232 324.874533 
L 457.24082 325.117149 
L 457.366458 325.204623 
L 457.440198 325.362625 
L 457.662356 325.514841 
L 458.053437 325.923892 
L 458.05888 326.178752 
L 458.483881 326.320365 
L 458.722419 326.53858 
L 458.93506 326.816697 
L 459.035422 326.920771 
L 459.022084 327.084987 
L 459.222381 327.099761 
L 459.337486 327.407704 
L 459.819005 328.273449 
L 460.392218 329.162857 
L 460.772536 330.128599 
L 461.015343 330.581013 
L 460.97658 330.727982 
L 461.079479 330.810661 
L 461.11653 330.912807 
L 461.064926 331.052521 
L 461.120703 331.264971 
L 461.178765 331.712363 
L 461.580035 332.107256 
L 461.970602 332.269671 
L 462.028564 332.581179 
L 462.196632 332.878576 
L 462.552281 333.312157 
L 463.088947 333.416018 
L 463.764286 335.51225 
L 463.833821 335.671482 
L 464.136977 335.869726 
L 464.581536 336.179132 
L 465.074321 336.404809 
L 465.344614 336.506643 
L 465.756206 336.755227 
L 465.868702 336.940966 
L 465.799722 337.10253 
L 466.038996 337.239612 
L 466.138512 337.466376 
L 466.432052 337.569273 
L 466.768874 337.843769 
L 466.877864 338.13029 
L 467.023394 338.353953 
L 467.158134 338.459869 
L 467.040217 338.609095 
L 467.114472 338.847234 
L 467.139707 339.016291 
L 467.49014 339.202975 
L 467.634206 339.420163 
L 467.947955 339.548752 
L 467.942029 339.716225 
L 468.169963 339.926441 
L 468.404471 339.830317 
L 468.598745 339.962538 
L 468.776588 340.131544 
L 468.944984 340.145973 
L 468.996689 340.227754 
L 469.967881 340.522768 
L 470.286631 342.003736 
L 472.453286 343.563269 
L 473.977095 344.270278 
L 474.630237 345.760183 
L 475.288961 346.687157 
L 476.380774 347.359303 
L 476.919775 348.634844 
L 477.944035 349.232628 
L 479.339479 351.150755 
L 480.432931 353.15212 
L 426.805321 336.985494 
L 426.417115 336.86338 
L 385.274688 324.347394 
L 366.67069 318.770863 
L 373.514859 329.28736 
L 409.206407 384.662527 
L 431.937272 419.564548 
L 448.234368 444.05214 
L 451.608387 449.135604 
L 452.137218 449.923351 
L 465.00336 468.872192 
L 477.851115 487.787367 
L 482.762434 494.95844 
L 515.976739 543.449519 
L 478.334819 517.452093 
L 461.751643 505.998489 
L 461.020718 505.431648 
L 466.494164 530.795141 
L 469.239397 543.967165 
L 471.003013 552.422459 
L 474.224926 569.46055 
L 474.497265 571.028728 
L 487.414749 643.518015 
L 487.976508 645.234607 
L 490.544784 659.161322 
L 493.615715 675.703603 
L 495.405549 685.262127 
L 505.434783 738.72 
L 505.012494 738.38831 
L 504.916017 738.197149 
L 504.776238 738.001882 
L 504.837392 737.908484 
L 504.596363 737.633534 
L 504.340918 737.466304 
L 504.102082 737.117198 
L 503.980956 736.80402 
L 503.852665 736.659803 
L 503.760751 736.690895 
L 503.620311 736.55386 
L 503.566581 736.474814 
L 503.369217 736.423474 
L 503.270682 736.259931 
L 503.127017 736.125874 
L 503.062548 736.080393 
L 501.489957 734.847181 
L 501.056333 734.58561 
L 500.832914 734.38537 
L 500.736704 734.274594 
L 500.680403 734.14278 
L 500.459597 734.066982 
L 500.344296 733.968097 
L 500.122086 733.864173 
L 499.956665 733.721839 
L 499.746151 733.423333 
L 499.429178 733.135719 
L 499.287159 733.032524 
L 499.136036 732.651069 
L 498.97708 732.239477 
L 498.840567 732.114897 
L 498.642925 731.729822 
L 498.485743 731.562873 
L 498.399422 731.369999 
L 498.210126 731.095446 
L 498.121998 731.014806 
L 498.082779 730.882045 
L 497.885272 730.795115 
L 497.721865 730.727945 
L 497.633477 730.565426 
L 497.420718 730.35999 
L 497.06256 730.194449 
L 496.675078 729.984027 
L 496.538337 729.766617 
L 496.47343 729.615365 
L 496.309792 729.542718 
L 496.096537 729.25167 
L 495.785962 729.064615 
L 495.757288 728.879622 
L 495.507504 728.725843 
L 495.404628 728.696178 
L 495.238002 728.629495 
L 495.056743 728.659828 
L 494.942836 728.506692 
L 494.83615 728.511111 
L 494.697377 728.398468 
L 494.492181 728.231628 
L 494.349401 728.135647 
L 494.251766 728.090816 
L 494.263251 727.969899 
L 494.161087 727.778472 
L 493.991831 727.594066 
L 493.902029 727.493511 
L 493.869205 727.374705 
L 493.71486 727.340908 
L 493.575447 727.106816 
L 493.376626 726.789179 
L 493.281231 726.567907 
L 493.277525 726.393688 
L 493.003869 726.193051 
L 492.925443 725.923796 
L 492.786347 725.837781 
L 492.823469 725.666916 
L 492.573229 725.500193 
L 492.447776 725.317657 
L 492.498686 725.171719 
L 492.402623 724.924811 
L 492.417581 724.715307 
L 492.297677 724.496452 
L 492.342773 724.220837 
L 492.17298 723.965253 
L 492.032965 723.768737 
L 492.10791 723.355087 
L 492.105972 722.996462 
L 492.052936 722.935086 
L 492.087586 722.591001 
L 491.965511 722.266868 
L 491.916811 721.902881 
L 492.003805 721.688609 
L 491.807345 721.325436 
L 491.756838 721.073186 
L 491.832677 720.950963 
L 491.626912 720.55317 
L 491.470747 720.20654 
L 491.420047 719.935623 
L 491.357165 719.769694 
L 491.179453 719.600195 
L 491.10005 719.413064 
L 490.83136 719.03649 
L 490.827363 718.533515 
L 490.867624 718.303927 
L 490.788025 718.098627 
L 490.363411 717.636736 
L 490.071915 717.445005 
L 489.848843 717.213654 
L 488.998227 717.029751 
L 488.746422 716.720669 
L 488.610741 716.653079 
L 488.432651 716.701338 
L 488.247091 716.421567 
L 488.249955 716.286688 
L 488.03777 716.228332 
L 487.85209 716.162338 
L 487.690111 716.030712 
L 487.589359 715.866414 
L 487.475187 715.635131 
L 487.27897 715.532523 
L 487.188956 715.420518 
L 487.172795 715.189024 
L 487.053194 714.95225 
L 486.897601 714.752203 
L 486.901868 714.38837 
L 486.678439 714.195592 
L 486.485792 714.142767 
L 486.160156 713.775482 
L 485.27226 713.047688 
L 485.146134 712.928609 
L 484.939872 712.534048 
L 484.843428 712.506391 
L 484.681717 712.282683 
L 484.621244 712.054792 
L 484.473568 711.941872 
L 484.543601 711.858955 
L 484.599979 711.534097 
L 484.581413 711.106985 
L 484.447686 710.706165 
L 484.562535 710.359577 
L 484.501585 710.211074 
L 484.159518 709.878582 
L 484.114138 709.652228 
L 484.039465 709.542258 
L 484.042215 709.44695 
L 483.830781 709.215631 
L 483.871413 708.943736 
L 483.807186 708.816128 
L 483.678886 708.849848 
L 483.591403 708.633823 
L 483.393794 708.41449 
L 483.34879 708.22945 
L 482.848879 707.535138 
L 482.859411 706.375193 
L 482.83726 706.075739 
L 482.939539 705.96803 
L 481.816747 703.885699 
L 481.449229 703.882881 
L 481.229386 703.735903 
L 481.185547 703.57625 
L 481.267333 703.365947 
L 481.364214 703.156434 
L 481.634108 702.769985 
L 481.676256 702.573253 
L 481.875159 702.344378 
L 481.782233 702.213699 
L 481.802623 702.009687 
L 481.706125 701.91583 
L 481.496666 701.943837 
L 481.411773 701.774109 
L 481.397793 701.559046 
L 481.282541 701.360858 
L 481.107919 701.067429 
L 481.019734 700.837714 
L 481.170584 700.537025 
L 480.948899 700.000811 
L 481.014133 699.951228 
L 481.187544 699.551057 
L 481.194995 699.371147 
L 481.057472 699.257261 
L 480.960354 698.865008 
L 480.890581 698.772723 
L 480.932149 698.605356 
L 480.885006 698.475806 
L 480.864064 698.272171 
L 480.739283 698.202371 
L 480.774957 698.019308 
L 480.599624 697.886148 
L 480.324112 697.734776 
L 479.912988 697.578776 
L 479.838337 697.277636 
L 481.310336 686.595299 
L 482.281295 681.203433 
L 485.741013 657.637696 
L 402.019099 630.585484 
L 402.333725 630.305723 
L 403.374026 628.264952 
L 404.013313 626.019877 
L 404.063528 623.649813 
L 403.497626 621.345062 
L 402.008445 618.231155 
L 400.847386 616.431524 
L 398.350209 613.529297 
L 397.362151 612.134103 
L 397.078017 611.337104 
L 396.989112 610.625318 
L 397.067438 609.76572 
L 397.317575 608.879272 
L 397.64771 608.050808 
L 398.73676 606.491502 
L 400.263658 605.138851 
L 403.776858 602.544688 
L 404.608564 601.713768 
L 405.316159 600.764505 
L 406.317542 598.724849 
L 406.977522 596.576392 
L 407.159942 594.341117 
L 406.93353 592.205636 
L 406.384583 589.041844 
L 405.503479 585.827763 
L 404.28408 583.943844 
L 402.085738 581.594287 
L 398.071377 577.883829 
L 395.617826 575.58349 
L 392.234839 572.904497 
L 388.008526 569.770447 
L 385.273677 567.321125 
L 383.036349 565.062714 
L 380.9221 562.532414 
L 378.639165 558.935933 
L 377.319306 556.20998 
L 376.456233 553.152951 
L 375.977856 548.903044 
L 374.385373 539.393093 
L 373.506938 534.902035 
L 372.635903 531.955473 
L 371.950021 530.112966 
L 371.335547 528.948098 
L 369.779568 526.603159 
L 368.092722 524.257561 
L 365.536252 521.663369 
L 366.347951 520.317031 
L 376.73509 503.086022 
L 376.990089 473.963227 
L 395.407639 464.286351 
L 399.973804 463.108715 
L 427.268424 456.49128 
L 412.08855 433.41188 
L 391.366546 401.51316 
L 340.553261 323.327289 
L 392.907762 300.744517 
L 417.7225 291.936039 
L 424.859573 289.441885 
" clip-path="url(#pfd514af721)" style="fill: #e0bd1f; stroke: #0000ff; stroke-width: 0.5"/>
    <path d="M 313.15129 133.92 
L 325.815836 167.275296 
L 328.254641 173.592188 
L 338.235896 199.228985 
L 350.994222 231.597134 
L 342.270791 231.504585 
L 341.79274 231.90996 
L 336.557087 231.912933 
L 329.423817 231.88235 
L 323.527685 231.990149 
L 321.224776 231.971044 
L 318.838405 231.992461 
L 318.628202 231.983221 
L 314.033915 232.004683 
L 309.24123 232.034496 
L 304.441898 232.093378 
L 299.640333 232.136982 
L 294.876471 232.126274 
L 290.097081 232.157628 
L 285.3007 232.163739 
L 280.508015 232.170621 
L 275.667311 232.178274 
L 270.851733 232.194322 
L 265.941604 232.199663 
L 259.105255 232.181329 
L 258.625189 232.181329 
L 231.524509 232.200965 
L 231.12132 232.233222 
L 234.757779 224.887971 
L 236.409998 220.907145 
L 236.538504 218.004501 
L 235.301366 214.48094 
L 233.584907 211.644804 
L 231.299707 208.484445 
L 229.391939 207.031609 
L 226.191649 205.999316 
L 224.834861 205.971017 
L 223.774993 204.812564 
L 222.878355 203.253415 
L 224.874026 198.796193 
L 229.352056 192.367676 
L 236.946194 185.357276 
L 241.369609 181.426909 
L 245.612033 176.887874 
L 247.306343 173.066104 
L 249.389173 169.797918 
L 250.542103 161.937982 
L 249.847835 158.779164 
L 248.335208 155.645562 
L 251.341239 154.829665 
L 272.574866 149.043482 
L 273.043126 148.879086 
L 282.603369 145.526032 
L 287.588107 143.632724 
L 292.571329 141.739443 
L 297.54793 139.848419 
L 302.518602 137.959708 
L 307.501851 136.066399 
L 311.581789 134.516445 
L 313.15129 133.92 
" clip-path="url(#pfd514af721)" style="fill: #e0bd1f; stroke: #0000ff; stroke-width: 0.5"/>
    <path d="M 234.757779 224.887971 
L 235.299159 224.93463 
L 265.336702 227.495488 
L 265.427557 231.730947 
L 265.123271 231.946572 
L 258.91618 231.860933 
L 258.625189 232.181329 
L 231.524509 232.200965 
L 231.12132 232.233222 
L 234.757779 224.887971 
" clip-path="url(#pfd514af721)" style="fill: #e0bd1f; stroke: #0000ff; stroke-width: 0.5"/>
    <path d="M 269.806648 199.748188 
L 270.851733 232.194322 
L 265.941604 232.199663 
L 265.05975 199.778028 
L 269.806648 199.748188 
" clip-path="url(#pfd514af721)" style="fill: #e0bd1f; stroke: #0000ff; stroke-width: 0.5"/>
    <path d="M 274.615579 199.718375 
L 274.619993 199.873604 
L 275.667311 232.178274 
L 270.851733 232.194322 
L 269.806648 199.748188 
L 274.615579 199.718375 
" clip-path="url(#pfd514af721)" style="fill: #e0bd1f; stroke: #0000ff; stroke-width: 0.5"/>
    <path d="M 279.430412 199.679368 
L 280.508015 232.170621 
L 275.667311 232.178274 
L 274.619993 199.873604 
L 274.615579 199.718375 
L 279.430412 199.679368 
" clip-path="url(#pfd514af721)" style="fill: #e0bd1f; stroke: #0000ff; stroke-width: 0.5"/>
    <path d="M 284.212754 199.643444 
L 285.3007 232.163739 
L 280.508015 232.170621 
L 279.430412 199.679368 
L 284.212754 199.643444 
" clip-path="url(#pfd514af721)" style="fill: #e0bd1f; stroke: #0000ff; stroke-width: 0.5"/>
    <path d="M 288.990682 199.605979 
L 290.097081 232.157628 
L 285.3007 232.163739 
L 284.212754 199.643444 
L 288.990682 199.605979 
" clip-path="url(#pfd514af721)" style="fill: #e0bd1f; stroke: #0000ff; stroke-width: 0.5"/>
    <path d="M 293.761191 199.568514 
L 294.876471 232.126274 
L 290.097081 232.157628 
L 288.990682 199.605979 
L 293.761191 199.568514 
" clip-path="url(#pfd514af721)" style="fill: #e0bd1f; stroke: #0000ff; stroke-width: 0.5"/>
    <path d="M 293.761191 199.568514 
L 298.53763 199.579965 
L 299.640333 232.136982 
L 294.876471 232.126274 
L 293.761191 199.568514 
" clip-path="url(#pfd514af721)" style="fill: #e0bd1f; stroke: #0000ff; stroke-width: 0.5"/>
    <path d="M 303.330314 199.501979 
L 304.441898 232.093378 
L 299.640333 232.136982 
L 298.53763 199.579965 
L 303.330314 199.501979 
" clip-path="url(#pfd514af721)" style="fill: #e0bd1f; stroke: #0000ff; stroke-width: 0.5"/>
    <path d="M 308.130391 199.477507 
L 309.24123 232.034496 
L 304.441898 232.093378 
L 303.330314 199.501979 
L 308.130391 199.477507 
" clip-path="url(#pfd514af721)" style="fill: #e0bd1f; stroke: #0000ff; stroke-width: 0.5"/>
    <path d="M 317.716505 199.393382 
L 318.838405 231.992461 
L 318.628202 231.983221 
L 314.033915 232.004683 
L 312.917891 199.430104 
L 317.716505 199.393382 
" clip-path="url(#pfd514af721)" style="fill: #e0bd1f; stroke: #0000ff; stroke-width: 0.5"/>
    <path d="M 322.529849 199.34752 
L 323.527685 231.990149 
L 321.224776 231.971044 
L 318.838405 231.992461 
L 317.716505 199.393382 
L 322.529849 199.34752 
" clip-path="url(#pfd514af721)" style="fill: #e0bd1f; stroke: #0000ff; stroke-width: 0.5"/>
    <path d="M 326.559586 199.326104 
L 329.423817 231.88235 
L 323.527685 231.990149 
L 322.529849 199.34752 
L 326.559586 199.326104 
" clip-path="url(#pfd514af721)" style="fill: #e0bd1f; stroke: #0000ff; stroke-width: 0.5"/>
    <path d="M 330.135075 199.292465 
L 334.319162 199.328388 
L 334.658173 199.602923 
L 341.79274 231.90996 
L 336.557087 231.912933 
L 330.135075 199.292465 
" clip-path="url(#pfd514af721)" style="fill: #e0bd1f; stroke: #0000ff; stroke-width: 0.5"/>
   </g>
   <g id="PatchCollection_2">
    <path d="M 381.893689 230.753357 
L 382.400997 230.961475 
L 384.223781 232.76291 
L 393.462311 242.246473 
L 428.442 279.379559 
L 424.859573 289.441885 
L 417.7225 291.936039 
L 392.907762 300.744517 
L 340.553261 323.327289 
L 316.220888 336.240001 
L 308.080277 340.802647 
L 307.501978 340.967041 
L 304.501793 340.729466 
L 295.152959 340.730526 
L 293.207029 340.772284 
L 289.969098 340.322579 
L 288.006114 339.741846 
L 285.017755 338.442041 
L 281.475995 336.409998 
L 278.236951 333.929961 
L 276.644987 332.660534 
L 275.178054 331.276783 
L 272.723603 327.873731 
L 270.842114 324.894121 
L 269.067048 321.13092 
L 268.646765 319.850117 
L 268.162061 317.762523 
L 267.455383 311.498946 
L 265.883708 304.126072 
L 265.316534 302.921688 
L 264.508225 301.870812 
L 263.103157 300.43124 
L 262.065187 299.58169 
L 260.928849 298.865706 
L 259.05921 297.922587 
L 257.180731 297.114071 
L 253.257887 295.863307 
L 251.311196 295.349207 
L 248.290429 294.22258 
L 246.578232 293.320756 
L 244.785477 292.551307 
L 241.047223 291.214716 
L 239.772879 290.891198 
L 235.914547 290.280124 
L 233.791372 289.294773 
L 232.936449 289.131411 
L 230.881945 289.377924 
L 227.784347 288.774305 
L 227.205052 288.575271 
L 226.144392 287.954044 
L 224.781201 286.829093 
L 223.541135 285.641836 
L 222.596726 284.195001 
L 222.149245 282.500461 
L 222.053146 281.04551 
L 222.243219 279.879704 
L 222.090621 278.683386 
L 222.431451 277.322971 
L 223.193678 275.892291 
L 223.852923 275.091148 
L 224.260459 274.799343 
L 225.232242 274.315553 
L 226.260781 273.943941 
L 229.203193 273.28305 
L 231.917393 272.905342 
L 233.506382 272.591327 
L 234.546523 272.224218 
L 235.494062 271.66343 
L 236.807047 270.520506 
L 237.165976 270.040884 
L 237.748317 269.002797 
L 238.158155 267.929047 
L 238.564912 266.360288 
L 239.079031 263.571187 
L 239.843442 261.530016 
L 239.94544 260.89151 
L 239.890682 259.713189 
L 239.571739 258.026053 
L 239.262755 255.335763 
L 238.434408 252.73235 
L 238.008834 249.474006 
L 237.324276 247.370048 
L 235.995857 244.483006 
L 234.330239 242.244886 
L 233.000295 240.584504 
L 231.731616 238.116746 
L 230.958372 235.8445 
L 230.699805 234.382786 
L 230.73675 233.072122 
L 231.12132 232.233222 
L 231.524509 232.200965 
L 291.513645 232.156341 
L 341.79274 231.90996 
L 343.002948 232.00235 
L 362.675194 231.789143 
L 370.46148 231.61313 
L 375.444865 231.303959 
L 381.893689 230.753357 
L 381.893689 230.753357 
" clip-path="url(#pfd514af721)" style="fill: none; stroke: #000000"/>
   </g>
   <g id="matplotlib.axis_1">
    <g id="xtick_1">
     <g id="line2d_1">
      <path d="M 209.215255 768.96 
L 209.215255 103.68 
" clip-path="url(#pfd514af721)" style="fill: none; stroke: #b0b0b0; stroke-width: 0.8; stroke-linecap: square"/>
     </g>
     <g id="line2d_2">
      <defs>
       <path id="m262b3c0f17" d="M 0 0 
L 0 3.5 
" style="stroke: #000000; stroke-width: 0.8"/>
      </defs>
      <g>
       <use xlink:href="#m262b3c0f17" x="209.215255" y="768.96" style="stroke: #000000; stroke-width: 0.8"/>
      </g>
     </g>
     <g id="text_1">
      <!-- −57.74 -->
      <g transform="translate(198.08219 807.501382) rotate(-45) scale(0.1 -0.1)">
       <defs>
        <path id="DejaVuSans-2212" d="M 678 2272 
L 4684 2272 
L 4684 1741 
L 678 1741 
L 678 2272 
z
" transform="scale(0.015625)"/>
        <path id="DejaVuSans-35" d="M 691 4666 
L 3169 4666 
L 3169 4134 
L 1269 4134 
L 1269 2991 
Q 1406 3038 1543 3061 
Q 1681 3084 1819 3084 
Q 2600 3084 3056 2656 
Q 3513 2228 3513 1497 
Q 3513 744 3044 326 
Q 2575 -91 1722 -91 
Q 1428 -91 1123 -41 
Q 819 9 494 109 
L 494 744 
Q 775 591 1075 516 
Q 1375 441 1709 441 
Q 2250 441 2565 725 
Q 2881 1009 2881 1497 
Q 2881 1984 2565 2268 
Q 2250 2553 1709 2553 
Q 1456 2553 1204 2497 
Q 953 2441 691 2322 
L 691 4666 
z
" transform="scale(0.015625)"/>
        <path id="DejaVuSans-37" d="M 525 4666 
L 3525 4666 
L 3525 4397 
L 1831 0 
L 1172 0 
L 2766 4134 
L 525 4134 
L 525 4666 
z
" transform="scale(0.015625)"/>
        <path id="DejaVuSans-2e" d="M 684 794 
L 1344 794 
L 1344 0 
L 684 0 
L 684 794 
z
" transform="scale(0.015625)"/>
        <path id="DejaVuSans-34" d="M 2419 4116 
L 825 1625 
L 2419 1625 
L 2419 4116 
z
M 2253 4666 
L 3047 4666 
L 3047 1625 
L 3713 1625 
L 3713 1100 
L 3047 1100 
L 3047 0 
L 2419 0 
L 2419 1100 
L 313 1100 
L 313 1709 
L 2253 4666 
z
" transform="scale(0.015625)"/>
       </defs>
       <use xlink:href="#DejaVuSans-2212"/>
       <use xlink:href="#DejaVuSans-35" transform="translate(83.789062 0)"/>
       <use xlink:href="#DejaVuSans-37" transform="translate(147.412109 0)"/>
       <use xlink:href="#DejaVuSans-2e" transform="translate(211.035156 0)"/>
       <use xlink:href="#DejaVuSans-37" transform="translate(242.822266 0)"/>
       <use xlink:href="#DejaVuSans-34" transform="translate(306.445312 0)"/>
      </g>
     </g>
    </g>
    <g id="xtick_2">
     <g id="line2d_3">
      <path d="M 262.393449 768.96 
L 262.393449 103.68 
" clip-path="url(#pfd514af721)" style="fill: none; stroke: #b0b0b0; stroke-width: 0.8; stroke-linecap: square"/>
     </g>
     <g id="line2d_4">
      <g>
       <use xlink:href="#m262b3c0f17" x="262.393449" y="768.96" style="stroke: #000000; stroke-width: 0.8"/>
      </g>
     </g>
     <g id="text_2">
      <!-- −57.72 -->
      <g transform="translate(251.260384 807.501382) rotate(-45) scale(0.1 -0.1)">
       <defs>
        <path id="DejaVuSans-32" d="M 1228 531 
L 3431 531 
L 3431 0 
L 469 0 
L 469 531 
Q 828 903 1448 1529 
Q 2069 2156 2228 2338 
Q 2531 2678 2651 2914 
Q 2772 3150 2772 3378 
Q 2772 3750 2511 3984 
Q 2250 4219 1831 4219 
Q 1534 4219 1204 4116 
Q 875 4013 500 3803 
L 500 4441 
Q 881 4594 1212 4672 
Q 1544 4750 1819 4750 
Q 2544 4750 2975 4387 
Q 3406 4025 3406 3419 
Q 3406 3131 3298 2873 
Q 3191 2616 2906 2266 
Q 2828 2175 2409 1742 
Q 1991 1309 1228 531 
z
" transform="scale(0.015625)"/>
       </defs>
       <use xlink:href="#DejaVuSans-2212"/>
       <use xlink:href="#DejaVuSans-35" transform="translate(83.789062 0)"/>
       <use xlink:href="#DejaVuSans-37" transform="translate(147.412109 0)"/>
       <use xlink:href="#DejaVuSans-2e" transform="translate(211.035156 0)"/>
       <use xlink:href="#DejaVuSans-37" transform="translate(242.822266 0)"/>
       <use xlink:href="#DejaVuSans-32" transform="translate(306.445312 0)"/>
      </g>
     </g>
    </g>
    <g id="xtick_3">
     <g id="line2d_5">
      <path d="M 315.571642 768.96 
L 315.571642 103.68 
" clip-path="url(#pfd514af721)" style="fill: none; stroke: #b0b0b0; stroke-width: 0.8; stroke-linecap: square"/>
     </g>
     <g id="line2d_6">
      <g>
       <use xlink:href="#m262b3c0f17" x="315.571642" y="768.96" style="stroke: #000000; stroke-width: 0.8"/>
      </g>
     </g>
     <g id="text_3">
      <!-- −57.70 -->
      <g transform="translate(304.438577 807.501382) rotate(-45) scale(0.1 -0.1)">
       <defs>
        <path id="DejaVuSans-30" d="M 2034 4250 
Q 1547 4250 1301 3770 
Q 1056 3291 1056 2328 
Q 1056 1369 1301 889 
Q 1547 409 2034 409 
Q 2525 409 2770 889 
Q 3016 1369 3016 2328 
Q 3016 3291 2770 3770 
Q 2525 4250 2034 4250 
z
M 2034 4750 
Q 2819 4750 3233 4129 
Q 3647 3509 3647 2328 
Q 3647 1150 3233 529 
Q 2819 -91 2034 -91 
Q 1250 -91 836 529 
Q 422 1150 422 2328 
Q 422 3509 836 4129 
Q 1250 4750 2034 4750 
z
" transform="scale(0.015625)"/>
       </defs>
       <use xlink:href="#DejaVuSans-2212"/>
       <use xlink:href="#DejaVuSans-35" transform="translate(83.789062 0)"/>
       <use xlink:href="#DejaVuSans-37" transform="translate(147.412109 0)"/>
       <use xlink:href="#DejaVuSans-2e" transform="translate(211.035156 0)"/>
       <use xlink:href="#DejaVuSans-37" transform="translate(242.822266 0)"/>
       <use xlink:href="#DejaVuSans-30" transform="translate(306.445312 0)"/>
      </g>
     </g>
    </g>
    <g id="xtick_4">
     <g id="line2d_7">
      <path d="M 368.749835 768.96 
L 368.749835 103.68 
" clip-path="url(#pfd514af721)" style="fill: none; stroke: #b0b0b0; stroke-width: 0.8; stroke-linecap: square"/>
     </g>
     <g id="line2d_8">
      <g>
       <use xlink:href="#m262b3c0f17" x="368.749835" y="768.96" style="stroke: #000000; stroke-width: 0.8"/>
      </g>
     </g>
     <g id="text_4">
      <!-- −57.68 -->
      <g transform="translate(357.616771 807.501382) rotate(-45) scale(0.1 -0.1)">
       <defs>
        <path id="DejaVuSans-36" d="M 2113 2584 
Q 1688 2584 1439 2293 
Q 1191 2003 1191 1497 
Q 1191 994 1439 701 
Q 1688 409 2113 409 
Q 2538 409 2786 701 
Q 3034 994 3034 1497 
Q 3034 2003 2786 2293 
Q 2538 2584 2113 2584 
z
M 3366 4563 
L 3366 3988 
Q 3128 4100 2886 4159 
Q 2644 4219 2406 4219 
Q 1781 4219 1451 3797 
Q 1122 3375 1075 2522 
Q 1259 2794 1537 2939 
Q 1816 3084 2150 3084 
Q 2853 3084 3261 2657 
Q 3669 2231 3669 1497 
Q 3669 778 3244 343 
Q 2819 -91 2113 -91 
Q 1303 -91 875 529 
Q 447 1150 447 2328 
Q 447 3434 972 4092 
Q 1497 4750 2381 4750 
Q 2619 4750 2861 4703 
Q 3103 4656 3366 4563 
z
" transform="scale(0.015625)"/>
        <path id="DejaVuSans-38" d="M 2034 2216 
Q 1584 2216 1326 1975 
Q 1069 1734 1069 1313 
Q 1069 891 1326 650 
Q 1584 409 2034 409 
Q 2484 409 2743 651 
Q 3003 894 3003 1313 
Q 3003 1734 2745 1975 
Q 2488 2216 2034 2216 
z
M 1403 2484 
Q 997 2584 770 2862 
Q 544 3141 544 3541 
Q 544 4100 942 4425 
Q 1341 4750 2034 4750 
Q 2731 4750 3128 4425 
Q 3525 4100 3525 3541 
Q 3525 3141 3298 2862 
Q 3072 2584 2669 2484 
Q 3125 2378 3379 2068 
Q 3634 1759 3634 1313 
Q 3634 634 3220 271 
Q 2806 -91 2034 -91 
Q 1263 -91 848 271 
Q 434 634 434 1313 
Q 434 1759 690 2068 
Q 947 2378 1403 2484 
z
M 1172 3481 
Q 1172 3119 1398 2916 
Q 1625 2713 2034 2713 
Q 2441 2713 2670 2916 
Q 2900 3119 2900 3481 
Q 2900 3844 2670 4047 
Q 2441 4250 2034 4250 
Q 1625 4250 1398 4047 
Q 1172 3844 1172 3481 
z
" transform="scale(0.015625)"/>
       </defs>
       <use xlink:href="#DejaVuSans-2212"/>
       <use xlink:href="#DejaVuSans-35" transform="translate(83.789062 0)"/>
       <use xlink:href="#DejaVuSans-37" transform="translate(147.412109 0)"/>
       <use xlink:href="#DejaVuSans-2e" transform="translate(211.035156 0)"/>
       <use xlink:href="#DejaVuSans-36" transform="translate(242.822266 0)"/>
       <use xlink:href="#DejaVuSans-38" transform="translate(306.445312 0)"/>
      </g>
     </g>
    </g>
    <g id="xtick_5">
     <g id="line2d_9">
      <path d="M 421.928029 768.96 
L 421.928029 103.68 
" clip-path="url(#pfd514af721)" style="fill: none; stroke: #b0b0b0; stroke-width: 0.8; stroke-linecap: square"/>
     </g>
     <g id="line2d_10">
      <g>
       <use xlink:href="#m262b3c0f17" x="421.928029" y="768.96" style="stroke: #000000; stroke-width: 0.8"/>
      </g>
     </g>
     <g id="text_5">
      <!-- −57.66 -->
      <g transform="translate(410.794964 807.501382) rotate(-45) scale(0.1 -0.1)">
       <use xlink:href="#DejaVuSans-2212"/>
       <use xlink:href="#DejaVuSans-35" transform="translate(83.789062 0)"/>
       <use xlink:href="#DejaVuSans-37" transform="translate(147.412109 0)"/>
       <use xlink:href="#DejaVuSans-2e" transform="translate(211.035156 0)"/>
       <use xlink:href="#DejaVuSans-36" transform="translate(242.822266 0)"/>
       <use xlink:href="#DejaVuSans-36" transform="translate(306.445312 0)"/>
      </g>
     </g>
    </g>
    <g id="xtick_6">
     <g id="line2d_11">
      <path d="M 475.106222 768.96 
L 475.106222 103.68 
" clip-path="url(#pfd514af721)" style="fill: none; stroke: #b0b0b0; stroke-width: 0.8; stroke-linecap: square"/>
     </g>
     <g id="line2d_12">
      <g>
       <use xlink:href="#m262b3c0f17" x="475.106222" y="768.96" style="stroke: #000000; stroke-width: 0.8"/>
      </g>
     </g>
     <g id="text_6">
      <!-- −57.64 -->
      <g transform="translate(463.973157 807.501382) rotate(-45) scale(0.1 -0.1)">
       <use xlink:href="#DejaVuSans-2212"/>
       <use xlink:href="#DejaVuSans-35" transform="translate(83.789062 0)"/>
       <use xlink:href="#DejaVuSans-37" transform="translate(147.412109 0)"/>
       <use xlink:href="#DejaVuSans-2e" transform="translate(211.035156 0)"/>
       <use xlink:href="#DejaVuSans-36" transform="translate(242.822266 0)"/>
       <use xlink:href="#DejaVuSans-34" transform="translate(306.445312 0)"/>
      </g>
     </g>
    </g>
    <g id="xtick_7">
     <g id="line2d_13">
      <path d="M 528.284416 768.96 
L 528.284416 103.68 
" clip-path="url(#pfd514af721)" style="fill: none; stroke: #b0b0b0; stroke-width: 0.8; stroke-linecap: square"/>
     </g>
     <g id="line2d_14">
      <g>
       <use xlink:href="#m262b3c0f17" x="528.284416" y="768.96" style="stroke: #000000; stroke-width: 0.8"/>
      </g>
     </g>
     <g id="text_7">
      <!-- −57.62 -->
      <g transform="translate(517.151351 807.501382) rotate(-45) scale(0.1 -0.1)">
       <use xlink:href="#DejaVuSans-2212"/>
       <use xlink:href="#DejaVuSans-35" transform="translate(83.789062 0)"/>
       <use xlink:href="#DejaVuSans-37" transform="translate(147.412109 0)"/>
       <use xlink:href="#DejaVuSans-2e" transform="translate(211.035156 0)"/>
       <use xlink:href="#DejaVuSans-36" transform="translate(242.822266 0)"/>
       <use xlink:href="#DejaVuSans-32" transform="translate(306.445312 0)"/>
      </g>
     </g>
    </g>
    <g id="text_8">
     <!-- Longitude (°) -->
     <g transform="translate(336.139844 820.57038) scale(0.1 -0.1)">
      <defs>
       <path id="DejaVuSans-4c" d="M 628 4666 
L 1259 4666 
L 1259 531 
L 3531 531 
L 3531 0 
L 628 0 
L 628 4666 
z
" transform="scale(0.015625)"/>
       <path id="DejaVuSans-6f" d="M 1959 3097 
Q 1497 3097 1228 2736 
Q 959 2375 959 1747 
Q 959 1119 1226 758 
Q 1494 397 1959 397 
Q 2419 397 2687 759 
Q 2956 1122 2956 1747 
Q 2956 2369 2687 2733 
Q 2419 3097 1959 3097 
z
M 1959 3584 
Q 2709 3584 3137 3096 
Q 3566 2609 3566 1747 
Q 3566 888 3137 398 
Q 2709 -91 1959 -91 
Q 1206 -91 779 398 
Q 353 888 353 1747 
Q 353 2609 779 3096 
Q 1206 3584 1959 3584 
z
" transform="scale(0.015625)"/>
       <path id="DejaVuSans-6e" d="M 3513 2113 
L 3513 0 
L 2938 0 
L 2938 2094 
Q 2938 2591 2744 2837 
Q 2550 3084 2163 3084 
Q 1697 3084 1428 2787 
Q 1159 2491 1159 1978 
L 1159 0 
L 581 0 
L 581 3500 
L 1159 3500 
L 1159 2956 
Q 1366 3272 1645 3428 
Q 1925 3584 2291 3584 
Q 2894 3584 3203 3211 
Q 3513 2838 3513 2113 
z
" transform="scale(0.015625)"/>
       <path id="DejaVuSans-67" d="M 2906 1791 
Q 2906 2416 2648 2759 
Q 2391 3103 1925 3103 
Q 1463 3103 1205 2759 
Q 947 2416 947 1791 
Q 947 1169 1205 825 
Q 1463 481 1925 481 
Q 2391 481 2648 825 
Q 2906 1169 2906 1791 
z
M 3481 434 
Q 3481 -459 3084 -895 
Q 2688 -1331 1869 -1331 
Q 1566 -1331 1297 -1286 
Q 1028 -1241 775 -1147 
L 775 -588 
Q 1028 -725 1275 -790 
Q 1522 -856 1778 -856 
Q 2344 -856 2625 -561 
Q 2906 -266 2906 331 
L 2906 616 
Q 2728 306 2450 153 
Q 2172 0 1784 0 
Q 1141 0 747 490 
Q 353 981 353 1791 
Q 353 2603 747 3093 
Q 1141 3584 1784 3584 
Q 2172 3584 2450 3431 
Q 2728 3278 2906 2969 
L 2906 3500 
L 3481 3500 
L 3481 434 
z
" transform="scale(0.015625)"/>
       <path id="DejaVuSans-69" d="M 603 3500 
L 1178 3500 
L 1178 0 
L 603 0 
L 603 3500 
z
M 603 4863 
L 1178 4863 
L 1178 4134 
L 603 4134 
L 603 4863 
z
" transform="scale(0.015625)"/>
       <path id="DejaVuSans-74" d="M 1172 4494 
L 1172 3500 
L 2356 3500 
L 2356 3053 
L 1172 3053 
L 1172 1153 
Q 1172 725 1289 603 
Q 1406 481 1766 481 
L 2356 481 
L 2356 0 
L 1766 0 
Q 1100 0 847 248 
Q 594 497 594 1153 
L 594 3053 
L 172 3053 
L 172 3500 
L 594 3500 
L 594 4494 
L 1172 4494 
z
" transform="scale(0.015625)"/>
       <path id="DejaVuSans-75" d="M 544 1381 
L 544 3500 
L 1119 3500 
L 1119 1403 
Q 1119 906 1312 657 
Q 1506 409 1894 409 
Q 2359 409 2629 706 
Q 2900 1003 2900 1516 
L 2900 3500 
L 3475 3500 
L 3475 0 
L 2900 0 
L 2900 538 
Q 2691 219 2414 64 
Q 2138 -91 1772 -91 
Q 1169 -91 856 284 
Q 544 659 544 1381 
z
M 1991 3584 
L 1991 3584 
z
" transform="scale(0.015625)"/>
       <path id="DejaVuSans-64" d="M 2906 2969 
L 2906 4863 
L 3481 4863 
L 3481 0 
L 2906 0 
L 2906 525 
Q 2725 213 2448 61 
Q 2172 -91 1784 -91 
Q 1150 -91 751 415 
Q 353 922 353 1747 
Q 353 2572 751 3078 
Q 1150 3584 1784 3584 
Q 2172 3584 2448 3432 
Q 2725 3281 2906 2969 
z
M 947 1747 
Q 947 1113 1208 752 
Q 1469 391 1925 391 
Q 2381 391 2643 752 
Q 2906 1113 2906 1747 
Q 2906 2381 2643 2742 
Q 2381 3103 1925 3103 
Q 1469 3103 1208 2742 
Q 947 2381 947 1747 
z
" transform="scale(0.015625)"/>
       <path id="DejaVuSans-65" d="M 3597 1894 
L 3597 1613 
L 953 1613 
Q 991 1019 1311 708 
Q 1631 397 2203 397 
Q 2534 397 2845 478 
Q 3156 559 3463 722 
L 3463 178 
Q 3153 47 2828 -22 
Q 2503 -91 2169 -91 
Q 1331 -91 842 396 
Q 353 884 353 1716 
Q 353 2575 817 3079 
Q 1281 3584 2069 3584 
Q 2775 3584 3186 3129 
Q 3597 2675 3597 1894 
z
M 3022 2063 
Q 3016 2534 2758 2815 
Q 2500 3097 2075 3097 
Q 1594 3097 1305 2825 
Q 1016 2553 972 2059 
L 3022 2063 
z
" transform="scale(0.015625)"/>
       <path id="DejaVuSans-20" transform="scale(0.015625)"/>
       <path id="DejaVuSans-28" d="M 1984 4856 
Q 1566 4138 1362 3434 
Q 1159 2731 1159 2009 
Q 1159 1288 1364 580 
Q 1569 -128 1984 -844 
L 1484 -844 
Q 1016 -109 783 600 
Q 550 1309 550 2009 
Q 550 2706 781 3412 
Q 1013 4119 1484 4856 
L 1984 4856 
z
" transform="scale(0.015625)"/>
       <path id="DejaVuSans-b0" d="M 1600 4347 
Q 1350 4347 1178 4173 
Q 1006 4000 1006 3750 
Q 1006 3503 1178 3333 
Q 1350 3163 1600 3163 
Q 1850 3163 2022 3333 
Q 2194 3503 2194 3750 
Q 2194 3997 2020 4172 
Q 1847 4347 1600 4347 
z
M 1600 4750 
Q 1800 4750 1984 4673 
Q 2169 4597 2303 4453 
Q 2447 4313 2519 4134 
Q 2591 3956 2591 3750 
Q 2591 3338 2302 3052 
Q 2013 2766 1594 2766 
Q 1172 2766 890 3047 
Q 609 3328 609 3750 
Q 609 4169 896 4459 
Q 1184 4750 1600 4750 
z
" transform="scale(0.015625)"/>
       <path id="DejaVuSans-29" d="M 513 4856 
L 1013 4856 
Q 1481 4119 1714 3412 
Q 1947 2706 1947 2009 
Q 1947 1309 1714 600 
Q 1481 -109 1013 -844 
L 513 -844 
Q 928 -128 1133 580 
Q 1338 1288 1338 2009 
Q 1338 2731 1133 3434 
Q 928 4138 513 4856 
z
" transform="scale(0.015625)"/>
      </defs>
      <use xlink:href="#DejaVuSans-4c"/>
      <use xlink:href="#DejaVuSans-6f" transform="translate(53.962891 0)"/>
      <use xlink:href="#DejaVuSans-6e" transform="translate(115.144531 0)"/>
      <use xlink:href="#DejaVuSans-67" transform="translate(178.523438 0)"/>
      <use xlink:href="#DejaVuSans-69" transform="translate(242 0)"/>
      <use xlink:href="#DejaVuSans-74" transform="translate(269.783203 0)"/>
      <use xlink:href="#DejaVuSans-75" transform="translate(308.992188 0)"/>
      <use xlink:href="#DejaVuSans-64" transform="translate(372.371094 0)"/>
      <use xlink:href="#DejaVuSans-65" transform="translate(435.847656 0)"/>
      <use xlink:href="#DejaVuSans-20" transform="translate(497.371094 0)"/>
      <use xlink:href="#DejaVuSans-28" transform="translate(529.158203 0)"/>
      <use xlink:href="#DejaVuSans-b0" transform="translate(568.171875 0)"/>
      <use xlink:href="#DejaVuSans-29" transform="translate(618.171875 0)"/>
     </g>
    </g>
   </g>
   <g id="matplotlib.axis_2">
    <g id="ytick_1">
     <g id="line2d_15">
      <path d="M 207.325587 682.466897 
L 530.674413 682.466897 
" clip-path="url(#pfd514af721)" style="fill: none; stroke: #b0b0b0; stroke-width: 0.8; stroke-linecap: square"/>
     </g>
     <g id="line2d_16">
      <defs>
       <path id="mef561c51ab" d="M 0 0 
L -3.5 0 
" style="stroke: #000000; stroke-width: 0.8"/>
      </defs>
      <g>
       <use xlink:href="#mef561c51ab" x="207.325587" y="682.466897" style="stroke: #000000; stroke-width: 0.8"/>
      </g>
     </g>
     <g id="text_9">
      <!-- −15.15 -->
      <g transform="translate(163.317775 686.266116) scale(0.1 -0.1)">
       <defs>
        <path id="DejaVuSans-31" d="M 794 531 
L 1825 531 
L 1825 4091 
L 703 3866 
L 703 4441 
L 1819 4666 
L 2450 4666 
L 2450 531 
L 3481 531 
L 3481 0 
L 794 0 
L 794 531 
z
" transform="scale(0.015625)"/>
       </defs>
       <use xlink:href="#DejaVuSans-2212"/>
       <use xlink:href="#DejaVuSans-31" transform="translate(83.789062 0)"/>
       <use xlink:href="#DejaVuSans-35" transform="translate(147.412109 0)"/>
       <use xlink:href="#DejaVuSans-2e" transform="translate(211.035156 0)"/>
       <use xlink:href="#DejaVuSans-31" transform="translate(242.822266 0)"/>
       <use xlink:href="#DejaVuSans-35" transform="translate(306.445312 0)"/>
      </g>
     </g>
    </g>
    <g id="ytick_2">
     <g id="line2d_17">
      <path d="M 207.325587 544.82779 
L 530.674413 544.82779 
" clip-path="url(#pfd514af721)" style="fill: none; stroke: #b0b0b0; stroke-width: 0.8; stroke-linecap: square"/>
     </g>
     <g id="line2d_18">
      <g>
       <use xlink:href="#mef561c51ab" x="207.325587" y="544.82779" style="stroke: #000000; stroke-width: 0.8"/>
      </g>
     </g>
     <g id="text_10">
      <!-- −15.10 -->
      <g transform="translate(163.317775 548.627009) scale(0.1 -0.1)">
       <use xlink:href="#DejaVuSans-2212"/>
       <use xlink:href="#DejaVuSans-31" transform="translate(83.789062 0)"/>
       <use xlink:href="#DejaVuSans-35" transform="translate(147.412109 0)"/>
       <use xlink:href="#DejaVuSans-2e" transform="translate(211.035156 0)"/>
       <use xlink:href="#DejaVuSans-31" transform="translate(242.822266 0)"/>
       <use xlink:href="#DejaVuSans-30" transform="translate(306.445312 0)"/>
      </g>
     </g>
    </g>
    <g id="ytick_3">
     <g id="line2d_19">
      <path d="M 207.325587 407.188683 
L 530.674413 407.188683 
" clip-path="url(#pfd514af721)" style="fill: none; stroke: #b0b0b0; stroke-width: 0.8; stroke-linecap: square"/>
     </g>
     <g id="line2d_20">
      <g>
       <use xlink:href="#mef561c51ab" x="207.325587" y="407.188683" style="stroke: #000000; stroke-width: 0.8"/>
      </g>
     </g>
     <g id="text_11">
      <!-- −15.05 -->
      <g transform="translate(163.317775 410.987902) scale(0.1 -0.1)">
       <use xlink:href="#DejaVuSans-2212"/>
       <use xlink:href="#DejaVuSans-31" transform="translate(83.789062 0)"/>
       <use xlink:href="#DejaVuSans-35" transform="translate(147.412109 0)"/>
       <use xlink:href="#DejaVuSans-2e" transform="translate(211.035156 0)"/>
       <use xlink:href="#DejaVuSans-30" transform="translate(242.822266 0)"/>
       <use xlink:href="#DejaVuSans-35" transform="translate(306.445312 0)"/>
      </g>
     </g>
    </g>
    <g id="ytick_4">
     <g id="line2d_21">
      <path d="M 207.325587 269.549576 
L 530.674413 269.549576 
" clip-path="url(#pfd514af721)" style="fill: none; stroke: #b0b0b0; stroke-width: 0.8; stroke-linecap: square"/>
     </g>
     <g id="line2d_22">
      <g>
       <use xlink:href="#mef561c51ab" x="207.325587" y="269.549576" style="stroke: #000000; stroke-width: 0.8"/>
      </g>
     </g>
     <g id="text_12">
      <!-- −15.00 -->
      <g transform="translate(163.317775 273.348795) scale(0.1 -0.1)">
       <use xlink:href="#DejaVuSans-2212"/>
       <use xlink:href="#DejaVuSans-31" transform="translate(83.789062 0)"/>
       <use xlink:href="#DejaVuSans-35" transform="translate(147.412109 0)"/>
       <use xlink:href="#DejaVuSans-2e" transform="translate(211.035156 0)"/>
       <use xlink:href="#DejaVuSans-30" transform="translate(242.822266 0)"/>
       <use xlink:href="#DejaVuSans-30" transform="translate(306.445312 0)"/>
      </g>
     </g>
    </g>
    <g id="ytick_5">
     <g id="line2d_23">
      <path d="M 207.325587 131.910469 
L 530.674413 131.910469 
" clip-path="url(#pfd514af721)" style="fill: none; stroke: #b0b0b0; stroke-width: 0.8; stroke-linecap: square"/>
     </g>
     <g id="line2d_24">
      <g>
       <use xlink:href="#mef561c51ab" x="207.325587" y="131.910469" style="stroke: #000000; stroke-width: 0.8"/>
      </g>
     </g>
     <g id="text_13">
      <!-- −14.95 -->
      <g transform="translate(163.317775 135.709688) scale(0.1 -0.1)">
       <defs>
        <path id="DejaVuSans-39" d="M 703 97 
L 703 672 
Q 941 559 1184 500 
Q 1428 441 1663 441 
Q 2288 441 2617 861 
Q 2947 1281 2994 2138 
Q 2813 1869 2534 1725 
Q 2256 1581 1919 1581 
Q 1219 1581 811 2004 
Q 403 2428 403 3163 
Q 403 3881 828 4315 
Q 1253 4750 1959 4750 
Q 2769 4750 3195 4129 
Q 3622 3509 3622 2328 
Q 3622 1225 3098 567 
Q 2575 -91 1691 -91 
Q 1453 -91 1209 -44 
Q 966 3 703 97 
z
M 1959 2075 
Q 2384 2075 2632 2365 
Q 2881 2656 2881 3163 
Q 2881 3666 2632 3958 
Q 2384 4250 1959 4250 
Q 1534 4250 1286 3958 
Q 1038 3666 1038 3163 
Q 1038 2656 1286 2365 
Q 1534 2075 1959 2075 
z
" transform="scale(0.015625)"/>
       </defs>
       <use xlink:href="#DejaVuSans-2212"/>
       <use xlink:href="#DejaVuSans-31" transform="translate(83.789062 0)"/>
       <use xlink:href="#DejaVuSans-34" transform="translate(147.412109 0)"/>
       <use xlink:href="#DejaVuSans-2e" transform="translate(211.035156 0)"/>
       <use xlink:href="#DejaVuSans-39" transform="translate(242.822266 0)"/>
       <use xlink:href="#DejaVuSans-35" transform="translate(306.445312 0)"/>
      </g>
     </g>
    </g>
    <g id="text_14">
     <!-- Latitude (°) -->
     <g transform="translate(157.238087 464.889531) rotate(-90) scale(0.1 -0.1)">
      <defs>
       <path id="DejaVuSans-61" d="M 2194 1759 
Q 1497 1759 1228 1600 
Q 959 1441 959 1056 
Q 959 750 1161 570 
Q 1363 391 1709 391 
Q 2188 391 2477 730 
Q 2766 1069 2766 1631 
L 2766 1759 
L 2194 1759 
z
M 3341 1997 
L 3341 0 
L 2766 0 
L 2766 531 
Q 2569 213 2275 61 
Q 1981 -91 1556 -91 
Q 1019 -91 701 211 
Q 384 513 384 1019 
Q 384 1609 779 1909 
Q 1175 2209 1959 2209 
L 2766 2209 
L 2766 2266 
Q 2766 2663 2505 2880 
Q 2244 3097 1772 3097 
Q 1472 3097 1187 3025 
Q 903 2953 641 2809 
L 641 3341 
Q 956 3463 1253 3523 
Q 1550 3584 1831 3584 
Q 2591 3584 2966 3190 
Q 3341 2797 3341 1997 
z
" transform="scale(0.015625)"/>
      </defs>
      <use xlink:href="#DejaVuSans-4c"/>
      <use xlink:href="#DejaVuSans-61" transform="translate(55.712891 0)"/>
      <use xlink:href="#DejaVuSans-74" transform="translate(116.992188 0)"/>
      <use xlink:href="#DejaVuSans-69" transform="translate(156.201172 0)"/>
      <use xlink:href="#DejaVuSans-74" transform="translate(183.984375 0)"/>
      <use xlink:href="#DejaVuSans-75" transform="translate(223.193359 0)"/>
      <use xlink:href="#DejaVuSans-64" transform="translate(286.572266 0)"/>
      <use xlink:href="#DejaVuSans-65" transform="translate(350.048828 0)"/>
      <use xlink:href="#DejaVuSans-20" transform="translate(411.572266 0)"/>
      <use xlink:href="#DejaVuSans-28" transform="translate(443.359375 0)"/>
      <use xlink:href="#DejaVuSans-b0" transform="translate(482.373047 0)"/>
      <use xlink:href="#DejaVuSans-29" transform="translate(532.373047 0)"/>
     </g>
    </g>
   </g>
   <g id="patch_3">
    <path d="M 207.325587 768.96 
L 207.325587 103.68 
" style="fill: none; stroke: #000000; stroke-width: 0.8; stroke-linejoin: miter; stroke-linecap: square"/>
   </g>
   <g id="patch_4">
    <path d="M 530.674413 768.96 
L 530.674413 103.68 
" style="fill: none; stroke: #000000; stroke-width: 0.8; stroke-linejoin: miter; stroke-linecap: square"/>
   </g>
   <g id="patch_5">
    <path d="M 207.325587 768.96 
L 530.674413 768.96 
" style="fill: none; stroke: #000000; stroke-width: 0.8; stroke-linejoin: miter; stroke-linecap: square"/>
   </g>
   <g id="patch_6">
    <path d="M 207.325587 103.68 
L 530.674413 103.68 
" style="fill: none; stroke: #000000; stroke-width: 0.8; stroke-linejoin: miter; stroke-linecap: square"/>
   </g>
   <g id="legend_1">
    <g id="patch_7">
     <path d="M 279.8375 941.307875 
L 458.1625 941.307875 
Q 460.1625 941.307875 460.1625 939.307875 
L 460.1625 909.016 
Q 460.1625 907.016 458.1625 907.016 
L 279.8375 907.016 
Q 277.8375 907.016 277.8375 909.016 
L 277.8375 939.307875 
Q 277.8375 941.307875 279.8375 941.307875 
z
" style="fill: #ffffff; opacity: 0.8; stroke: #cccccc; stroke-linejoin: miter"/>
    </g>
    <g id="text_15">
     <!-- Legenda -->
     <g transform="translate(343.280625 920.134125) scale(0.12 -0.12)">
      <use xlink:href="#DejaVuSans-4c"/>
      <use xlink:href="#DejaVuSans-65" transform="translate(53.962891 0)"/>
      <use xlink:href="#DejaVuSans-67" transform="translate(115.486328 0)"/>
      <use xlink:href="#DejaVuSans-65" transform="translate(178.962891 0)"/>
      <use xlink:href="#DejaVuSans-6e" transform="translate(240.486328 0)"/>
      <use xlink:href="#DejaVuSans-64" transform="translate(303.865234 0)"/>
      <use xlink:href="#DejaVuSans-61" transform="translate(367.341797 0)"/>
     </g>
    </g>
    <g id="patch_8">
     <path style="fill: none; stroke: #000000; stroke-linejoin: miter"/>
    </g>
    <g id="text_16">
     <!-- Gleba Federal -->
     <g transform="translate(309.8375 935.228187) scale(0.1 -0.1)">
      <defs>
       <path id="DejaVuSans-47" d="M 3809 666 
L 3809 1919 
L 2778 1919 
L 2778 2438 
L 4434 2438 
L 4434 434 
Q 4069 175 3628 42 
Q 3188 -91 2688 -91 
Q 1594 -91 976 548 
Q 359 1188 359 2328 
Q 359 3472 976 4111 
Q 1594 4750 2688 4750 
Q 3144 4750 3555 4637 
Q 3966 4525 4313 4306 
L 4313 3634 
Q 3963 3931 3569 4081 
Q 3175 4231 2741 4231 
Q 1884 4231 1454 3753 
Q 1025 3275 1025 2328 
Q 1025 1384 1454 906 
Q 1884 428 2741 428 
Q 3075 428 3337 486 
Q 3600 544 3809 666 
z
" transform="scale(0.015625)"/>
       <path id="DejaVuSans-6c" d="M 603 4863 
L 1178 4863 
L 1178 0 
L 603 0 
L 603 4863 
z
" transform="scale(0.015625)"/>
       <path id="DejaVuSans-62" d="M 3116 1747 
Q 3116 2381 2855 2742 
Q 2594 3103 2138 3103 
Q 1681 3103 1420 2742 
Q 1159 2381 1159 1747 
Q 1159 1113 1420 752 
Q 1681 391 2138 391 
Q 2594 391 2855 752 
Q 3116 1113 3116 1747 
z
M 1159 2969 
Q 1341 3281 1617 3432 
Q 1894 3584 2278 3584 
Q 2916 3584 3314 3078 
Q 3713 2572 3713 1747 
Q 3713 922 3314 415 
Q 2916 -91 2278 -91 
Q 1894 -91 1617 61 
Q 1341 213 1159 525 
L 1159 0 
L 581 0 
L 581 4863 
L 1159 4863 
L 1159 2969 
z
" transform="scale(0.015625)"/>
       <path id="DejaVuSans-46" d="M 628 4666 
L 3309 4666 
L 3309 4134 
L 1259 4134 
L 1259 2759 
L 3109 2759 
L 3109 2228 
L 1259 2228 
L 1259 0 
L 628 0 
L 628 4666 
z
" transform="scale(0.015625)"/>
       <path id="DejaVuSans-72" d="M 2631 2963 
Q 2534 3019 2420 3045 
Q 2306 3072 2169 3072 
Q 1681 3072 1420 2755 
Q 1159 2438 1159 1844 
L 1159 0 
L 581 0 
L 581 3500 
L 1159 3500 
L 1159 2956 
Q 1341 3275 1631 3429 
Q 1922 3584 2338 3584 
Q 2397 3584 2469 3576 
Q 2541 3569 2628 3553 
L 2631 2963 
z
" transform="scale(0.015625)"/>
      </defs>
      <use xlink:href="#DejaVuSans-47"/>
      <use xlink:href="#DejaVuSans-6c" transform="translate(77.490234 0)"/>
      <use xlink:href="#DejaVuSans-65" transform="translate(105.273438 0)"/>
      <use xlink:href="#DejaVuSans-62" transform="translate(166.796875 0)"/>
      <use xlink:href="#DejaVuSans-61" transform="translate(230.273438 0)"/>
      <use xlink:href="#DejaVuSans-20" transform="translate(291.552734 0)"/>
      <use xlink:href="#DejaVuSans-46" transform="translate(323.339844 0)"/>
      <use xlink:href="#DejaVuSans-65" transform="translate(375.359375 0)"/>
      <use xlink:href="#DejaVuSans-64" transform="translate(436.882812 0)"/>
      <use xlink:href="#DejaVuSans-65" transform="translate(500.359375 0)"/>
      <use xlink:href="#DejaVuSans-72" transform="translate(561.882812 0)"/>
      <use xlink:href="#DejaVuSans-61" transform="translate(602.996094 0)"/>
      <use xlink:href="#DejaVuSans-6c" transform="translate(664.275391 0)"/>
     </g>
    </g>
    <g id="patch_9">
     <path d="M 399.045312 935.228187 
L 419.045312 935.228187 
L 419.045312 928.228187 
L 399.045312 928.228187 
z
" style="fill: #e0bd1f; opacity: 0.6"/>
    </g>
    <g id="text_17">
     <!-- SIGEF -->
     <g transform="translate(427.045312 935.228187) scale(0.1 -0.1)">
      <defs>
       <path id="DejaVuSans-53" d="M 3425 4513 
L 3425 3897 
Q 3066 4069 2747 4153 
Q 2428 4238 2131 4238 
Q 1616 4238 1336 4038 
Q 1056 3838 1056 3469 
Q 1056 3159 1242 3001 
Q 1428 2844 1947 2747 
L 2328 2669 
Q 3034 2534 3370 2195 
Q 3706 1856 3706 1288 
Q 3706 609 3251 259 
Q 2797 -91 1919 -91 
Q 1588 -91 1214 -16 
Q 841 59 441 206 
L 441 856 
Q 825 641 1194 531 
Q 1563 422 1919 422 
Q 2459 422 2753 634 
Q 3047 847 3047 1241 
Q 3047 1584 2836 1778 
Q 2625 1972 2144 2069 
L 1759 2144 
Q 1053 2284 737 2584 
Q 422 2884 422 3419 
Q 422 4038 858 4394 
Q 1294 4750 2059 4750 
Q 2388 4750 2728 4690 
Q 3069 4631 3425 4513 
z
" transform="scale(0.015625)"/>
       <path id="DejaVuSans-49" d="M 628 4666 
L 1259 4666 
L 1259 0 
L 628 0 
L 628 4666 
z
" transform="scale(0.015625)"/>
       <path id="DejaVuSans-45" d="M 628 4666 
L 3578 4666 
L 3578 4134 
L 1259 4134 
L 1259 2753 
L 3481 2753 
L 3481 2222 
L 1259 2222 
L 1259 531 
L 3634 531 
L 3634 0 
L 628 0 
L 628 4666 
z
" transform="scale(0.015625)"/>
      </defs>
      <use xlink:href="#DejaVuSans-53"/>
      <use xlink:href="#DejaVuSans-49" transform="translate(63.476562 0)"/>
      <use xlink:href="#DejaVuSans-47" transform="translate(92.96875 0)"/>
      <use xlink:href="#DejaVuSans-45" transform="translate(170.458984 0)"/>
      <use xlink:href="#DejaVuSans-46" transform="translate(233.642578 0)"/>
     </g>
    </g>
   </g>
  </g>
 </g>
 <defs>
  <clipPath id="pfd514af721">
   <rect x="207.325587" y="103.68" width="323.348826" height="665.28"/>
  </clipPath>
 </defs>
</svg>
