<?xml version="1.0" encoding="utf-8" standalone="no"?>
<!DOCTYPE svg PUBLIC "-//W3C//DTD SVG 1.1//EN"
  "http://www.w3.org/Graphics/SVG/1.1/DTD/svg11.dtd">
<svg xmlns:xlink="http://www.w3.org/1999/xlink" width="720pt" height="864pt" viewBox="0 0 720 864" xmlns="http://www.w3.org/2000/svg" version="1.1">
 <metadata>
  <rdf:RDF xmlns:dc="http://purl.org/dc/elements/1.1/" xmlns:cc="http://creativecommons.org/ns#" xmlns:rdf="http://www.w3.org/1999/02/22-rdf-syntax-ns#">
   <cc:Work>
    <dc:type rdf:resource="http://purl.org/dc/dcmitype/StillImage"/>
    <dc:date>2025-06-16T17:44:37.274739</dc:date>
    <dc:format>image/svg+xml</dc:format>
    <dc:creator>
     <cc:Agent>
      <dc:title>Matplotlib v3.10.1, https://matplotlib.org/</dc:title>
     </cc:Agent>
    </dc:creator>
   </cc:Work>
  </rdf:RDF>
 </metadata>
 <defs>
  <style type="text/css">*{stroke-linejoin: round; stroke-linecap: butt}</style>
 </defs>
 <g id="figure_1">
  <g id="patch_1">
   <path d="M 0 864 
L 720 864 
L 720 0 
L 0 0 
z
" style="fill: #ffffff"/>
  </g>
  <g id="axes_1">
   <g id="patch_2">
    <path d="M 125.456629 768.96 
L 612.543371 768.96 
L 612.543371 103.68 
L 125.456629 103.68 
z
" style="fill: #ffffff"/>
   </g>
   <g id="PatchCollection_1">
    <path d="M 165.752562 688.2556 
L 181.051423 689.154472 
L 180.77713 689.551899 
L 179.295711 690.845217 
L 179.006787 691.323623 
L 178.881071 692.012629 
L 179.225358 695.338414 
L 179.227505 695.747355 
L 179.093932 696.220559 
L 178.370722 698.325834 
L 176.585721 701.321784 
L 176.064662 702.507769 
L 175.912872 703.065655 
L 176.17144 703.978634 
L 176.785726 705.260439 
L 179.012496 708.613341 
L 178.920002 708.820225 
L 178.475365 708.82877 
L 177.391796 708.926087 
L 177.318228 709.875089 
L 177.39537 710.630579 
L 177.106086 711.136837 
L 176.443586 711.662778 
L 165.028284 697.282857 
L 163.509722 695.397837 
L 164.709352 693.473826 
L 165.877919 690.429965 
L 165.752562 688.2556 
" clip-path="url(#pf4878906da)" style="fill: #e0bd1f; stroke: #0000ff; stroke-width: 0.5"/>
    <path d="M 191.062449 683.404729 
L 192.329579 684.063636 
L 204.893095 687.434002 
L 204.802028 688.821294 
L 203.614883 689.191604 
L 202.312743 689.805209 
L 201.374896 690.135044 
L 200.506323 690.450758 
L 200.196686 690.874193 
L 200.012405 691.714739 
L 199.828832 692.733206 
L 199.964551 693.339376 
L 200.650618 694.126435 
L 199.888116 694.728527 
L 199.579546 694.990007 
L 198.469195 695.06244 
L 197.600622 695.060956 
L 196.917063 695.157899 
L 196.083847 694.613746 
L 194.985286 693.866066 
L 194.612431 693.692236 
L 193.929578 693.929955 
L 193.872429 694.906074 
L 194.430284 696.857563 
L 194.52814 698.498914 
L 194.361358 699.470207 
L 192.378153 699.840517 
L 191.693153 700.170726 
L 190.738875 700.295148 
L 189.62531 700.50167 
L 189.127805 700.794359 
L 189.178526 702.180903 
L 189.177806 702.678256 
L 188.904246 702.795617 
L 188.230317 702.697564 
L 187.483539 702.390769 
L 186.93818 702.10736 
L 186.192829 701.998904 
L 185.562472 702.135587 
L 185.225681 702.472843 
L 185.025689 702.873627 
L 185.107113 703.341629 
L 185.181041 703.691882 
L 185.180681 703.970089 
L 185.050683 704.294709 
L 184.649619 704.428424 
L 184.279618 704.427689 
L 183.844984 704.221166 
L 183.29213 704.247909 
L 182.909979 704.439202 
L 182.379984 704.830318 
L 182.378557 705.548661 
L 182.425344 706.075351 
L 182.167482 706.376959 
L 181.81606 706.446785 
L 181.273915 706.575672 
L 180.844283 706.742816 
L 180.163205 706.475386 
L 179.305354 707.957389 
L 179.093572 708.430968 
L 176.932155 705.176118 
L 176.3293 703.918462 
L 176.087869 703.064532 
L 176.223589 702.564598 
L 176.735365 701.39978 
L 178.523927 698.397879 
L 179.254286 696.271451 
L 179.395714 695.770381 
L 179.393567 695.329121 
L 179.051067 692.019315 
L 179.166781 691.38453 
L 179.426069 690.955532 
L 180.902847 689.666293 
L 181.215711 689.178982 
L 187.722822 689.576784 
L 188.123178 688.238885 
L 191.062449 683.404729 
" clip-path="url(#pf4878906da)" style="fill: #e0bd1f; stroke: #0000ff; stroke-width: 0.5"/>
    <path d="M 180.766234 657.997461 
L 199.331254 659.60302 
L 195.533682 667.157666 
L 188.143454 666.283871 
L 187.832446 666.24911 
L 177.073955 664.940486 
L 180.766234 657.997461 
" clip-path="url(#pf4878906da)" style="fill: #e0bd1f; stroke: #0000ff; stroke-width: 0.5"/>
    <path d="M 184.678253 650.10827 
L 203.897129 652.035364 
L 199.331254 659.60302 
L 180.766234 657.997461 
L 184.678253 650.10827 
" clip-path="url(#pf4878906da)" style="fill: #e0bd1f; stroke: #0000ff; stroke-width: 0.5"/>
    <path d="M 188.143454 666.283871 
L 195.533682 667.157666 
L 192.30137 675.418603 
L 182.483561 674.370424 
L 182.517838 674.303193 
L 183.939625 672.376587 
L 186.427471 668.689397 
L 187.350674 667.506755 
L 187.79567 666.902444 
L 188.143454 666.283871 
" clip-path="url(#pf4878906da)" style="fill: #e0bd1f; stroke: #0000ff; stroke-width: 0.5"/>
    <path d="M 190.730637 640.304886 
L 200.839875 644.331292 
L 201.123669 644.453267 
L 207.632233 647.271146 
L 203.897129 652.035364 
L 184.678253 650.10827 
L 190.730637 640.304886 
" clip-path="url(#pf4878906da)" style="fill: #e0bd1f; stroke: #0000ff; stroke-width: 0.5"/>
    <path d="M 182.483561 674.370424 
L 192.30137 675.418603 
L 188.123178 688.238885 
L 185.386047 688.071381 
L 181.758203 687.854094 
L 181.867128 687.312174 
L 181.834625 686.620573 
L 182.3657 685.655967 
L 182.471771 684.615959 
L 181.787131 683.753497 
L 181.696412 683.532119 
L 182.131778 682.634744 
L 182.194276 681.852512 
L 182.732127 681.290174 
L 183.3032 680.263162 
L 183.637484 679.219811 
L 183.616411 678.241847 
L 182.295346 676.318571 
L 182.133912 675.907772 
L 182.478559 674.410539 
L 182.483561 674.370424 
" clip-path="url(#pf4878906da)" style="fill: #e0bd1f; stroke: #0000ff; stroke-width: 0.5"/>
    <path d="M 173.252176 673.360502 
L 182.242838 674.341074 
L 181.882839 675.926345 
L 182.081777 676.433352 
L 183.377475 678.319843 
L 183.396414 679.184537 
L 183.081762 680.166219 
L 182.537483 681.144946 
L 181.959982 681.778608 
L 170.589332 679.407761 
L 173.252176 673.360502 
" clip-path="url(#pf4878906da)" style="fill: #e0bd1f; stroke: #0000ff; stroke-width: 0.5"/>
    <path d="M 163.509722 695.397837 
L 165.028284 697.282857 
L 176.443586 711.662778 
L 176.728229 711.992238 
L 176.52501 712.633335 
L 174.738236 714.172541 
L 174.584311 714.993404 
L 174.242171 714.989312 
L 173.812526 714.838508 
L 172.960024 715.404577 
L 172.372533 716.062374 
L 172.27325 716.664841 
L 172.070391 716.95083 
L 171.542891 717.113521 
L 169.822896 716.92743 
L 169.797902 718.244897 
L 169.066835 718.954335 
L 168.787901 719.783368 
L 169.115757 721.897548 
L 168.752904 724.379071 
L 169.362908 724.763501 
L 169.336834 726.222478 
L 169.237899 726.480254 
L 168.558621 726.824196 
L 167.74613 728.101548 
L 167.200771 729.774095 
L 166.722205 730.51287 
L 165.171847 731.155451 
L 164.976136 731.537648 
L 166.460062 734.540298 
L 167.268991 735.272761 
L 167.793624 738.72 
L 147.596935 724.455221 
L 150.035139 719.087301 
L 163.509722 695.397837 
" clip-path="url(#pf4878906da)" style="fill: #e0bd1f; stroke: #0000ff; stroke-width: 0.5"/>
    <path d="M 209.968068 652.85197 
L 256.749282 674.064739 
L 255.676423 674.435423 
L 255.156791 673.82591 
L 254.27036 673.958877 
L 253.836073 673.546593 
L 253.415724 674.00085 
L 253.992865 675.089878 
L 254.354651 674.845113 
L 254.742498 675.044562 
L 254.479287 676.042236 
L 254.093215 676.077884 
L 254.392862 677.411317 
L 254.922857 677.659064 
L 255.141787 677.303984 
L 255.921068 676.190058 
L 256.927494 676.916571 
L 257.186423 677.332585 
L 255.999997 678.199499 
L 254.932139 678.367378 
L 254.210716 678.477332 
L 251.884664 677.572523 
L 251.27538 676.935519 
L 250.618241 676.100549 
L 249.270022 676.984552 
L 249.033953 675.890309 
L 248.17753 676.763173 
L 246.492892 678.504075 
L 245.581826 678.579477 
L 245.09219 677.647176 
L 243.631844 677.933179 
L 242.670417 678.639649 
L 241.254351 679.551505 
L 239.851502 679.853112 
L 239.254715 678.648929 
L 237.451509 680.064823 
L 236.027947 682.019656 
L 234.845456 681.988085 
L 234.883307 681.501884 
L 235.31866 680.316648 
L 235.416169 679.089439 
L 235.517238 678.900393 
L 236.22259 678.609563 
L 237.31615 677.743384 
L 235.922943 677.545406 
L 234.247241 677.680605 
L 233.965105 678.840221 
L 231.995825 677.929462 
L 230.31012 676.598637 
L 227.067281 678.637041 
L 226.721567 679.501362 
L 225.675849 680.428822 
L 225.445141 678.845784 
L 223.664795 676.159236 
L 221.229805 679.694138 
L 219.994098 680.936939 
L 219.352671 681.136027 
L 217.92839 681.570226 
L 216.87911 682.238801 
L 216.650537 682.541144 
L 216.049108 683.522465 
L 216.4084 684.139412 
L 216.489463 684.212581 
L 216.535543 685.088414 
L 216.67089 686.057112 
L 216.423044 687.019485 
L 216.32911 687.642744 
L 216.255542 688.459515 
L 216.213396 688.54532 
L 215.198407 687.901255 
L 214.313055 687.950288 
L 212.87913 688.211033 
L 212.094128 688.753688 
L 210.737346 689.14332 
L 210.666992 689.124386 
L 209.692361 688.824263 
L 208.687722 688.554974 
L 207.417365 688.511517 
L 206.89808 688.338062 
L 206.363804 688.372975 
L 205.574521 688.649323 
L 204.802028 688.821294 
L 204.893095 687.434002 
L 192.329579 684.063636 
L 191.062449 683.404729 
L 191.63959 682.324231 
L 195.259926 674.748169 
L 200.023835 667.821734 
L 204.488097 660.77644 
L 209.968068 652.85197 
" clip-path="url(#pf4878906da)" style="fill: #e0bd1f; stroke: #0000ff; stroke-width: 0.5"/>
    <path d="M 218.562321 639.025094 
L 234.764739 642.638741 
L 245.973967 651.200965 
L 247.588958 652.426676 
L 244.583268 656.776504 
L 248.410384 660.441043 
L 257.105706 669.828194 
L 258.073562 670.6758 
L 257.972839 671.346982 
L 257.331772 672.099129 
L 257.406421 672.997239 
L 257.736063 673.242017 
L 257.195346 673.457445 
L 256.749282 674.064739 
L 209.968068 652.85197 
L 213.190915 645.664042 
L 218.562321 639.025094 
" clip-path="url(#pf4878906da)" style="fill: #e0bd1f; stroke: #0000ff; stroke-width: 0.5"/>
    <path d="M 230.625478 619.968867 
L 247.642894 630.277168 
L 285.499853 654.25115 
L 285.610925 654.311696 
L 285.46807 654.471031 
L 284.713436 655.160786 
L 285.138427 655.275179 
L 284.137722 656.471193 
L 285.055576 658.086162 
L 284.429861 657.820591 
L 283.646298 658.985395 
L 283.562367 658.365118 
L 282.886651 658.033799 
L 283.095231 656.578165 
L 282.400589 656.568872 
L 282.145581 657.747796 
L 281.543806 658.007056 
L 281.069521 656.959252 
L 280.333813 655.876522 
L 279.675247 656.321873 
L 280.325597 657.417962 
L 279.062389 657.479618 
L 278.605602 657.969536 
L 277.65846 658.218393 
L 276.591322 658.599119 
L 275.552765 658.413764 
L 274.828127 659.093865 
L 273.83205 660.080374 
L 273.589193 661.424583 
L 272.68777 661.19319 
L 271.758846 660.389402 
L 270.68564 660.667984 
L 270.080997 661.671221 
L 270.262423 662.984596 
L 269.702793 663.061856 
L 269.35029 662.492444 
L 268.07137 662.102451 
L 267.806013 663.321103 
L 267.802439 664.333258 
L 267.738153 665.402978 
L 267.47673 666.179634 
L 267.743155 666.957414 
L 267.454938 667.459955 
L 267.1678 667.208504 
L 251.183593 655.080918 
L 247.588958 652.426676 
L 245.973967 651.200965 
L 234.764739 642.638741 
L 218.562321 639.025094 
L 218.732317 638.814868 
L 224.020499 632.522844 
L 227.632272 625.966719 
L 230.625478 619.968867 
" clip-path="url(#pf4878906da)" style="fill: #e0bd1f; stroke: #0000ff; stroke-width: 0.5"/>
    <path d="M 211.584139 625.328604 
L 220.489096 629.717049 
L 218.508025 631.748032 
L 210.078421 628.430417 
L 210.127715 628.118045 
L 210.237 627.636672 
L 210.30486 627.406762 
L 210.410211 627.133756 
L 210.543423 626.896787 
L 210.917345 626.340385 
L 211.296629 625.770973 
L 211.584139 625.328604 
" clip-path="url(#pf4878906da)" style="fill: #e0bd1f; stroke: #0000ff; stroke-width: 0.5"/>
    <path d="M 199.327046 619.527969 
L 211.368423 625.222007 
L 211.09521 625.638743 
L 210.717713 626.205547 
L 210.339137 626.769383 
L 210.19236 627.029753 
L 210.076994 627.328378 
L 210.004493 627.57539 
L 209.89486 628.056764 
L 209.847713 628.344251 
L 197.285277 623.547588 
L 199.327046 619.527969 
" clip-path="url(#pf4878906da)" style="fill: #e0bd1f; stroke: #0000ff; stroke-width: 0.5"/>
    <path d="M 250.27074 557.258036 
L 258.423197 558.881549 
L 262.30961 560.119897 
L 250.84216 581.013608 
L 246.014686 588.202271 
L 243.516478 590.72094 
L 241.880067 589.854025 
L 232.544398 584.753174 
L 233.525097 583.312021 
L 233.946887 582.708819 
L 234.849377 581.541782 
L 235.532229 580.710891 
L 236.476158 579.520828 
L 237.794729 577.793671 
L 238.276509 577.131421 
L 238.508297 576.561274 
L 238.545788 575.601495 
L 238.519727 574.834118 
L 238.410082 574.008428 
L 237.970434 572.336256 
L 237.915444 571.931768 
L 238.195433 570.279265 
L 238.234724 569.285696 
L 238.356146 568.899407 
L 239.301862 567.74649 
L 240.0265 566.96054 
L 240.904356 565.8767 
L 241.970413 564.668813 
L 242.458275 564.17852 
L 242.896843 563.798917 
L 244.221843 562.803115 
L 245.904681 561.524653 
L 248.026459 559.840218 
L 248.413599 559.5089 
L 248.753244 559.177955 
L 249.388243 558.397207 
L 250.082525 557.51878 
L 250.27074 557.258036 
" clip-path="url(#pf4878906da)" style="fill: #e0bd1f; stroke: #0000ff; stroke-width: 0.5"/>
    <path d="M 243.233275 598.902076 
L 269.245646 610.542698 
L 275.679909 613.445797 
L 270.578861 628.298561 
L 243.686127 613.76226 
L 236.321166 609.9499 
L 243.233275 598.902076 
" clip-path="url(#pf4878906da)" style="fill: #e0bd1f; stroke: #0000ff; stroke-width: 0.5"/>
    <path d="M 251.886091 551.219321 
L 259.883543 553.302667 
L 263.597466 554.269867 
L 262.30961 560.119897 
L 258.423197 558.881549 
L 250.27074 557.258036 
L 250.625017 556.545629 
L 250.975025 555.892284 
L 251.442522 554.636848 
L 251.654303 553.40778 
L 251.691448 552.599179 
L 251.886091 551.219321 
" clip-path="url(#pf4878906da)" style="fill: #e0bd1f; stroke: #0000ff; stroke-width: 0.5"/>
    <path d="M 253.376085 545.97732 
L 261.28926 547.927325 
L 265.704947 549.015618 
L 263.597466 554.269867 
L 259.883543 553.302667 
L 251.886091 551.219321 
L 252.131443 549.707593 
L 252.579653 547.969673 
L 253.152861 546.271493 
L 253.328578 546.020403 
L 253.376085 545.97732 
" clip-path="url(#pf4878906da)" style="fill: #e0bd1f; stroke: #0000ff; stroke-width: 0.5"/>
    <path d="M 271.427429 517.260174 
L 275.712052 519.772531 
L 281.071668 523.39769 
L 291.759117 526.072364 
L 281.514877 530.419959 
L 276.394904 528.262308 
L 271.999916 525.943102 
L 266.935653 523.270661 
L 267.371367 522.729851 
L 268.388156 522.078739 
L 269.238858 520.485673 
L 270.409932 518.609946 
L 271.417786 517.274655 
L 271.427429 517.260174 
" clip-path="url(#pf4878906da)" style="fill: #e0bd1f; stroke: #0000ff; stroke-width: 0.5"/>
    <path d="M 287.699134 499.081251 
L 290.435905 500.904227 
L 294.470882 503.591162 
L 288.118056 513.475292 
L 284.148432 511.442463 
L 276.684896 507.6197 
L 277.068821 506.609403 
L 278.220957 504.172822 
L 282.806654 504.830258 
L 287.699134 499.081251 
" clip-path="url(#pf4878906da)" style="fill: #e0bd1f; stroke: #0000ff; stroke-width: 0.5"/>
    <path d="M 287.923773 518.13935 
L 288.470919 518.638548 
L 289.215202 519.107673 
L 290.089831 519.537781 
L 291.099112 519.896592 
L 291.320189 520.067814 
L 294.625887 524.061438 
L 291.759117 526.072364 
L 281.071668 523.39769 
L 285.145576 520.450011 
L 285.375216 520.006532 
L 287.923773 518.13935 
" clip-path="url(#pf4878906da)" style="fill: #e0bd1f; stroke: #0000ff; stroke-width: 0.5"/>
    <path d="M 307.980821 511.187656 
L 309.637597 513.458952 
L 304.061198 526.060477 
L 283.520582 533.239486 
L 281.514877 530.419959 
L 291.759117 526.072364 
L 294.625887 524.061438 
L 299.033359 520.228646 
L 301.661205 517.354884 
L 302.625139 515.940848 
L 302.630848 515.931194 
L 302.700842 515.813445 
L 302.706563 515.803791 
L 307.980821 511.187656 
" clip-path="url(#pf4878906da)" style="fill: #e0bd1f; stroke: #0000ff; stroke-width: 0.5"/>
    <path d="M 298.218014 512.490628 
L 299.330512 514.055842 
L 298.772296 514.968072 
L 298.14694 515.997677 
L 297.828727 517.022455 
L 297.743729 517.471149 
L 297.875514 517.813607 
L 297.799439 518.316522 
L 297.569799 519.225409 
L 297.534802 519.554121 
L 297.519437 519.543357 
L 295.076592 517.826978 
L 291.406255 519.92407 
L 291.392331 519.931866 
L 291.15054 519.786638 
L 290.136258 519.425982 
L 289.273766 519.001811 
L 288.54306 518.541604 
L 298.218014 512.490628 
" clip-path="url(#pf4878906da)" style="fill: #e0bd1f; stroke: #0000ff; stroke-width: 0.5"/>
    <path d="M 300.728719 466.511629 
L 308.705819 472.682575 
L 300.512643 494.78194 
L 300.324069 495.15078 
L 294.703029 491.907443 
L 292.962682 490.875244 
L 293.018031 490.721097 
L 292.998746 490.104524 
L 292.522327 489.411065 
L 292.402319 489.159601 
L 292.551255 488.817518 
L 293.108031 488.182746 
L 293.305889 487.851427 
L 293.482314 486.954788 
L 293.532315 484.017886 
L 293.148389 483.309197 
L 290.07376 479.972647 
L 289.591619 479.618303 
L 289.37913 479.377977 
L 289.451978 479.133947 
L 289.987334 478.70384 
L 290.861256 477.126738 
L 292.226614 475.62988 
L 292.561258 474.589497 
L 292.594828 473.740033 
L 293.192322 472.147715 
L 294.469455 470.017569 
L 296.188022 467.657861 
L 296.614453 467.459147 
L 297.855869 467.460631 
L 300.728719 466.511629 
" clip-path="url(#pf4878906da)" style="fill: #e0bd1f; stroke: #0000ff; stroke-width: 0.5"/>
    <path d="M 297.648368 519.622476 
L 297.656584 519.62618 
L 299.033359 520.228646 
L 294.625887 524.061438 
L 291.320189 520.067814 
L 291.336261 520.039212 
L 291.633761 520.311108 
L 292.835178 520.649474 
L 293.2991 520.19967 
L 294.233746 520.603422 
L 295.049103 520.382792 
L 295.803737 520.554763 
L 296.625163 520.306267 
L 297.648368 519.622476 
" clip-path="url(#pf4878906da)" style="fill: #e0bd1f; stroke: #0000ff; stroke-width: 0.5"/>
    <path d="M 295.076592 517.826978 
L 297.519437 519.543357 
L 297.534802 519.554121 
L 297.528373 519.616526 
L 296.575882 520.194843 
L 295.799456 520.429593 
L 295.046596 520.258357 
L 294.242669 520.475644 
L 293.273386 520.057049 
L 292.801608 520.514274 
L 291.693405 520.202277 
L 291.408042 519.941533 
L 291.392331 519.931866 
L 291.406255 519.92407 
L 295.076592 517.826978 
" clip-path="url(#pf4878906da)" style="fill: #e0bd1f; stroke: #0000ff; stroke-width: 0.5"/>
    <path d="M 299.406574 514.162065 
L 299.423726 514.186214 
L 301.661205 517.354884 
L 299.033359 520.228646 
L 297.656584 519.62618 
L 297.648368 519.622476 
L 297.688367 519.246576 
L 297.9173 518.340296 
L 297.999084 517.799861 
L 297.868366 517.459636 
L 297.945508 517.051806 
L 298.256945 516.048195 
L 298.874432 515.031212 
L 299.406574 514.162065 
" clip-path="url(#pf4878906da)" style="fill: #e0bd1f; stroke: #0000ff; stroke-width: 0.5"/>
    <path d="M 304.882984 504.041701 
L 305.8269 504.432456 
L 305.609409 505.300855 
L 305.254412 506.291455 
L 304.836557 506.81741 
L 303.477628 508.399699 
L 302.427281 510.05628 
L 301.259074 512.012971 
L 300.06514 513.023643 
L 299.464791 513.836322 
L 299.330512 514.055842 
L 304.882984 504.041701 
" clip-path="url(#pf4878906da)" style="fill: #e0bd1f; stroke: #0000ff; stroke-width: 0.5"/>
    <path d="M 300.125864 513.143612 
L 300.221932 513.196723 
L 300.829069 513.664726 
L 301.955851 514.647531 
L 302.355488 515.469878 
L 302.630848 515.931194 
L 302.625139 515.940848 
L 301.661205 517.354884 
L 299.423726 514.186214 
L 299.406574 514.162065 
L 299.564434 513.904303 
L 300.125864 513.143612 
" clip-path="url(#pf4878906da)" style="fill: #e0bd1f; stroke: #0000ff; stroke-width: 0.5"/>
    <path d="M 305.935478 504.501534 
L 305.952256 504.512311 
L 308.949744 506.666232 
L 307.980821 511.187656 
L 302.706563 515.803791 
L 302.700842 515.813445 
L 302.461211 515.4123 
L 302.052999 514.572503 
L 300.904784 513.571125 
L 300.287644 513.095327 
L 300.214783 513.054838 
L 301.351568 512.092465 
L 302.529418 510.119795 
L 303.574416 508.472132 
L 304.929051 506.894657 
L 305.360483 506.351266 
L 305.724403 505.336517 
L 305.935478 504.501534 
" clip-path="url(#pf4878906da)" style="fill: #e0bd1f; stroke: #0000ff; stroke-width: 0.5"/>
    <path d="M 266.935653 523.270661 
L 271.999916 525.943102 
L 276.394904 528.262308 
L 281.514877 530.419959 
L 283.520582 533.239486 
L 304.061198 526.060477 
L 307.122611 526.892104 
L 268.076719 550.696709 
L 263.597466 554.269867 
L 265.704947 549.015618 
L 266.062811 547.899098 
L 266.544232 542.522647 
L 263.22389 540.530294 
L 258.138194 537.877536 
L 258.137127 537.876788 
L 259.861403 534.767179 
L 260.377114 533.913623 
L 260.584974 533.105771 
L 260.748542 532.737306 
L 262.712101 530.344557 
L 262.874602 530.064491 
L 264.191746 527.305885 
L 266.656731 523.732713 
L 266.935653 523.270661 
" clip-path="url(#pf4878906da)" style="fill: #e0bd1f; stroke: #0000ff; stroke-width: 0.5"/>
    <path d="M 255.557855 541.956578 
L 261.911041 545.550542 
L 266.062811 547.899098 
L 265.704947 549.015618 
L 261.28926 547.927325 
L 253.376085 545.97732 
L 254.323575 544.731912 
L 255.557855 541.956578 
" clip-path="url(#pf4878906da)" style="fill: #e0bd1f; stroke: #0000ff; stroke-width: 0.5"/>
    <path d="M 284.981648 497.468875 
L 287.699134 499.081251 
L 282.806654 504.830258 
L 278.220957 504.172822 
L 278.38239 503.208216 
L 278.716315 502.0137 
L 279.517388 500.999325 
L 280.583099 498.800449 
L 280.741305 498.601735 
L 281.860951 498.16902 
L 282.789875 498.127047 
L 284.48665 497.830641 
L 284.90772 497.546871 
L 284.981648 497.468875 
" clip-path="url(#pf4878906da)" style="fill: #e0bd1f; stroke: #0000ff; stroke-width: 0.5"/>
    <path d="M 287.140558 493.123139 
L 297.111945 499.024422 
L 294.470882 503.591162 
L 290.435905 500.904227 
L 287.699134 499.081251 
L 284.981648 497.468875 
L 284.983782 497.466642 
L 285.432353 495.778491 
L 285.492717 495.248833 
L 285.736282 494.68017 
L 286.064857 493.9154 
L 286.511641 493.439964 
L 286.94306 493.316652 
L 287.099852 493.172534 
L 287.140558 493.123139 
" clip-path="url(#pf4878906da)" style="fill: #e0bd1f; stroke: #0000ff; stroke-width: 0.5"/>
    <path d="M 292.962682 490.875244 
L 294.703029 491.907443 
L 300.324069 495.15078 
L 297.111945 499.024422 
L 287.140558 493.123139 
L 287.279131 492.986817 
L 288.655559 492.301528 
L 289.012703 492.171904 
L 289.316272 492.162611 
L 290.320911 492.310821 
L 292.45268 492.183043 
L 292.63768 492.071618 
L 292.758756 491.869936 
L 292.849102 491.29793 
L 292.962682 490.875244 
" clip-path="url(#pf4878906da)" style="fill: #e0bd1f; stroke: #0000ff; stroke-width: 0.5"/>
    <path d="M 303.535485 495.798923 
L 305.756546 497.046925 
L 304.981907 498.249624 
L 302.886562 501.823156 
L 300.864426 506.217912 
L 298.77515 508.362927 
L 298.364791 509.392907 
L 295.751949 512.125894 
L 295.094103 511.50337 
L 296.058024 510.395769 
L 294.27017 508.541584 
L 298.761586 505.776653 
L 300.111927 502.053066 
L 303.535485 495.798923 
" clip-path="url(#pf4878906da)" style="fill: #e0bd1f; stroke: #0000ff; stroke-width: 0.5"/>
    <path d="M 177.073955 664.940486 
L 187.832446 666.24911 
L 187.883535 666.255036 
L 187.594958 666.768729 
L 187.159604 667.360043 
L 186.233187 668.546764 
L 183.743555 672.236548 
L 182.303909 674.187302 
L 182.242838 674.341074 
L 173.252176 673.360502 
L 177.073955 664.940486 
" clip-path="url(#pf4878906da)" style="fill: #e0bd1f; stroke: #0000ff; stroke-width: 0.5"/>
    <path d="M 195.769208 627.219561 
L 196.969558 627.677896 
L 208.240578 631.981298 
L 216.05411 635.318596 
L 217.459466 635.918829 
L 215.591255 638.187156 
L 207.632233 647.271146 
L 201.123669 644.453267 
L 200.839875 644.331292 
L 190.730637 640.304886 
L 190.486374 640.01496 
L 195.769208 627.219561 
" clip-path="url(#pf4878906da)" style="fill: #e0bd1f; stroke: #0000ff; stroke-width: 0.5"/>
    <path d="M 197.285277 623.547588 
L 209.847713 628.344251 
L 210.078421 628.430417 
L 218.508025 631.748032 
L 217.459466 635.918829 
L 216.05411 635.318596 
L 208.240578 631.981298 
L 196.969558 627.677896 
L 195.769208 627.219561 
L 197.285277 623.547588 
" clip-path="url(#pf4878906da)" style="fill: #e0bd1f; stroke: #0000ff; stroke-width: 0.5"/>
    <path d="M 202.09596 614.208721 
L 215.169825 620.665295 
L 222.953014 624.498823 
L 220.874808 628.295218 
L 212.629124 624.154881 
L 200.268467 618.260284 
L 200.363468 617.933418 
L 200.700966 617.698307 
L 202.09596 614.208721 
" clip-path="url(#pf4878906da)" style="fill: #e0bd1f; stroke: #0000ff; stroke-width: 0.5"/>
    <path d="M 219.818741 615.284378 
L 223.949785 617.275995 
L 226.645131 618.574889 
L 222.953014 624.498823 
L 215.238045 620.689431 
L 216.056617 619.529828 
L 216.293046 619.277254 
L 217.253033 618.38619 
L 217.650535 617.955334 
L 219.818741 615.284378 
" clip-path="url(#pf4878906da)" style="fill: #e0bd1f; stroke: #0000ff; stroke-width: 0.5"/>
    <path d="M 205.238809 608.203061 
L 219.592662 615.174812 
L 217.47303 617.791533 
L 216.121249 619.108251 
L 215.76804 619.490836 
L 215.024116 620.580974 
L 202.09596 614.208721 
L 201.47918 613.893742 
L 205.238809 608.203061 
" clip-path="url(#pf4878906da)" style="fill: #e0bd1f; stroke: #0000ff; stroke-width: 0.5"/>
    <path d="M 224.688001 603.391555 
L 230.484757 606.070307 
L 233.616177 607.517397 
L 226.645131 618.574889 
L 223.949785 617.275995 
L 219.818741 615.284378 
L 219.87517 615.194869 
L 221.251225 614.606523 
L 221.532654 612.328167 
L 221.81587 611.494682 
L 221.893732 610.104407 
L 222.138364 609.545412 
L 222.308013 609.147984 
L 222.381221 607.767738 
L 222.934076 606.424277 
L 223.255156 605.756451 
L 223.55443 604.930762 
L 224.046574 604.1385 
L 224.688001 603.391555 
" clip-path="url(#pf4878906da)" style="fill: #e0bd1f; stroke: #0000ff; stroke-width: 0.5"/>
    <path d="M 211.114136 597.063856 
L 214.460192 598.623494 
L 224.472284 603.289771 
L 223.853717 603.993273 
L 223.33694 604.824151 
L 223.033718 605.662102 
L 222.714798 606.325475 
L 222.143365 607.713517 
L 222.070157 609.091516 
L 221.903722 609.493785 
L 221.656223 610.047578 
L 221.577654 611.448243 
L 221.295518 612.286943 
L 221.029801 614.438256 
L 219.781236 614.972381 
L 219.592662 615.174812 
L 205.238809 608.203061 
L 211.114136 597.063856 
" clip-path="url(#pf4878906da)" style="fill: #e0bd1f; stroke: #0000ff; stroke-width: 0.5"/>
    <path d="M 227.984055 597.714606 
L 236.010809 601.528451 
L 232.382964 606.919023 
L 224.696216 603.395259 
L 225.206565 602.879721 
L 226.427281 600.583167 
L 227.815126 598.317434 
L 227.984055 597.714606 
" clip-path="url(#pf4878906da)" style="fill: #e0bd1f; stroke: #0000ff; stroke-width: 0.5"/>
    <path d="M 232.524032 584.742397 
L 241.880067 589.854025 
L 235.600089 601.305963 
L 227.939415 597.693439 
L 228.079416 596.741081 
L 229.347626 594.882082 
L 229.494762 594.416674 
L 230.568689 592.302493 
L 230.674399 590.444965 
L 231.060472 589.581394 
L 231.467617 586.498154 
L 232.524032 584.742397 
" clip-path="url(#pf4878906da)" style="fill: #e0bd1f; stroke: #0000ff; stroke-width: 0.5"/>
    <path d="M 553.568951 320.03581 
L 554.7868 320.188459 
L 558.151781 321.007837 
L 561.096413 321.596557 
L 562.014267 322.310448 
L 563.651758 324.221088 
L 564.045326 325.020035 
L 565.04247 328.541191 
L 566.086388 331.037582 
L 568.028887 334.36782 
L 566.221747 334.055823 
L 563.86462 333.529508 
L 556.532149 339.854961 
L 555.120377 343.098297 
L 556.160013 344.737415 
L 554.638943 349.974963 
L 557.613224 353.042973 
L 557.312509 358.425375 
L 555.128593 361.12159 
L 551.588601 364.745626 
L 544.325069 363.860513 
L 528.300503 372.399698 
L 523.373374 355.106275 
L 524.875878 349.487265 
L 518.42305 343.525436 
L 519.910177 342.843116 
L 520.644111 342.579029 
L 521.948385 342.197941 
L 524.168738 341.810916 
L 525.471945 341.457321 
L 530.146202 338.592839 
L 533.12619 337.584039 
L 533.872968 337.05735 
L 535.743674 335.437914 
L 538.984019 329.433003 
L 539.652587 328.706476 
L 542.940426 326.604557 
L 543.686136 326.058184 
L 547.266834 322.36467 
L 552.377884 320.331467 
L 553.568951 320.03581 
" clip-path="url(#pf4878906da)" style="fill: #e0bd1f; stroke: #0000ff; stroke-width: 0.5"/>
    <path d="M 590.403065 284.317201 
L 589.495213 285.321922 
L 588.468434 286.725929 
L 584.061669 294.224731 
L 583.79131 294.776679 
L 583.919881 295.932565 
L 583.24095 298.021861 
L 582.138815 298.885446 
L 579.773112 301.498089 
L 578.598836 303.617832 
L 575.542065 307.686859 
L 574.413856 309.799555 
L 572.303147 312.554832 
L 571.549941 313.703657 
L 569.184238 317.66051 
L 568.418881 318.709798 
L 570.708869 322.893967 
L 575.872055 327.751898 
L 575.629917 329.542194 
L 575.02278 331.283832 
L 573.435291 332.418925 
L 571.254228 333.654678 
L 568.302808 334.354449 
L 566.536039 331.505946 
L 565.862816 330.08152 
L 565.128895 328.326137 
L 564.384252 325.550067 
L 563.984255 324.355913 
L 562.300337 322.363934 
L 561.446408 321.524124 
L 560.928204 321.325036 
L 558.932502 321.007102 
L 554.643585 319.978606 
L 553.417521 319.771723 
L 546.937191 322.210897 
L 546.171488 323.308109 
L 543.772575 325.746548 
L 542.952936 326.407327 
L 539.792228 328.422706 
L 539.22937 328.870651 
L 538.611163 329.698574 
L 535.829392 334.963601 
L 535.4444 335.46205 
L 533.152972 337.374548 
L 530.064058 338.488848 
L 525.334439 341.320263 
L 524.839801 341.465116 
L 522.455532 341.929401 
L 520.182323 342.409665 
L 518.359111 343.442239 
L 517.368409 342.058289 
L 526.921221 319.402148 
L 528.243713 317.30654 
L 590.403065 284.317201 
" clip-path="url(#pf4878906da)" style="fill: #e0bd1f; stroke: #0000ff; stroke-width: 0.5"/>
    <path d="M 369.615007 133.92 
L 370.401204 133.956134 
L 371.650925 134.924553 
L 372.338543 135.165722 
L 372.894848 134.899148 
L 373.443028 134.135598 
L 373.803098 134.075169 
L 374.099174 134.531949 
L 374.200745 134.801512 
L 374.62124 135.010482 
L 374.866158 135.40495 
L 375.40369 135.427633 
L 375.633622 135.581037 
L 375.290281 136.63856 
L 375.331753 137.023266 
L 375.877866 137.337778 
L 375.94935 137.468652 
L 375.703427 137.699653 
L 374.390017 138.206007 
L 373.31178 138.319719 
L 372.836876 139.211365 
L 372.812675 140.570108 
L 373.377459 141.85851 
L 374.145887 142.162983 
L 374.771625 142.051213 
L 375.150499 142.381268 
L 375.166103 142.955859 
L 375.445268 143.3037 
L 375.671172 143.414185 
L 375.57982 143.587079 
L 374.688971 144.379045 
L 373.758682 145.834032 
L 373.158381 146.396735 
L 372.966507 146.788085 
L 373.128318 147.044173 
L 373.444485 147.228011 
L 373.5713 147.219441 
L 373.958972 147.631588 
L 374.109157 148.576355 
L 374.105273 149.43368 
L 374.672397 150.220522 
L 374.671461 150.430259 
L 374.535388 150.457075 
L 374.101231 150.327392 
L 373.929047 150.353928 
L 373.200509 151.24434 
L 373.171847 151.581705 
L 373.379622 151.710305 
L 373.605226 151.884619 
L 373.622386 152.112751 
L 373.330841 152.476193 
L 373.062646 152.650471 
L 372.954586 152.965388 
L 372.995425 153.381161 
L 373.005183 154.384531 
L 372.89056 154.548817 
L 371.250044 153.767365 
L 370.31821 153.67003 
L 369.534187 153.910124 
L 369.098107 154.352346 
L 368.626859 154.694194 
L 368.497311 155.016098 
L 368.545995 155.267111 
L 368.865861 155.361744 
L 369.257019 155.428045 
L 369.71273 155.372802 
L 370.22545 155.296342 
L 370.453141 155.311695 
L 370.609381 155.391283 
L 370.943104 155.543229 
L 371.148503 155.766362 
L 371.203789 156.132103 
L 371.391798 157.03992 
L 371.453054 157.663639 
L 371.281734 157.777454 
L 371.004433 157.704628 
L 370.741236 157.681864 
L 370.451653 157.193295 
L 369.79698 157.175917 
L 369.582027 157.483103 
L 369.294961 158.026425 
L 368.575125 158.25244 
L 367.982953 158.579409 
L 367.666621 158.998064 
L 367.52153 159.606452 
L 367.705109 159.929779 
L 368.0176 160.081705 
L 367.908773 160.547003 
L 368.084793 160.984922 
L 368.196635 161.415519 
L 368.116519 161.845064 
L 367.666785 162.136887 
L 367.273256 162.375336 
L 367.002383 162.460029 
L 366.965615 162.739358 
L 366.94836 163.398535 
L 367.360712 163.51515 
L 367.908306 163.603622 
L 368.05609 163.969825 
L 367.955263 164.241591 
L 367.491241 164.54053 
L 367.31851 164.96248 
L 366.868397 165.379781 
L 366.368065 165.749276 
L 365.565932 166.849205 
L 365.079251 167.463266 
L 365.073753 168.681555 
L 364.319999 169.967576 
L 363.169712 170.019637 
L 362.542462 170.246098 
L 362.186662 170.863561 
L 362.252054 171.52875 
L 361.72319 172.638394 
L 361.787627 173.52142 
L 362.136837 174.348545 
L 362.330194 174.395298 
L 362.969335 174.054249 
L 363.276722 174.055672 
L 363.332627 174.285176 
L 363.296356 174.766506 
L 363.374272 175.168176 
L 363.371503 175.736945 
L 363.119246 176.125562 
L 362.754841 176.146803 
L 362.25506 175.869427 
L 361.788531 175.79844 
L 361.331647 176.128927 
L 361.328831 176.736499 
L 361.714268 177.127989 
L 362.224218 177.657789 
L 362.505335 178.43866 
L 362.775018 179.25385 
L 362.420305 179.630508 
L 361.884256 179.822978 
L 361.247942 179.533483 
L 361.058325 179.574859 
L 360.825193 179.690896 
L 360.530544 179.554454 
L 360.002615 179.561006 
L 359.670172 179.865757 
L 359.543171 180.252574 
L 359.728884 180.712873 
L 360.05895 180.939657 
L 360.622131 181.068295 
L 361.257477 181.035145 
L 361.703501 181.32552 
L 361.952436 181.687001 
L 361.635879 182.392027 
L 361.015744 183.001823 
L 360.082599 183.583107 
L 358.998574 183.884369 
L 357.960875 183.843569 
L 357.567069 183.859815 
L 357.254549 183.714162 
L 357.407805 183.462647 
L 357.759686 182.833703 
L 357.950288 182.221987 
L 357.793844 181.221236 
L 357.250107 180.759329 
L 356.579375 180.675171 
L 356.076564 181.07825 
L 355.984194 181.717395 
L 355.964346 182.199468 
L 355.709377 182.312091 
L 355.793115 182.540297 
L 355.72102 182.853192 
L 355.33749 183.235852 
L 355.124085 183.519575 
L 355.235638 183.875952 
L 355.602662 183.991568 
L 355.900409 183.822055 
L 356.365769 184.09469 
L 357.224381 184.967116 
L 357.391813 185.46608 
L 357.317858 186.163391 
L 357.357941 186.704523 
L 357.568516 187.032964 
L 358.033413 187.405206 
L 358.484591 187.706229 
L 358.609417 188.21941 
L 358.97483 188.719316 
L 359.199718 189.019363 
L 359.182552 189.68833 
L 359.025009 190.128907 
L 358.655299 190.597054 
L 358.32553 191.735801 
L 358.093874 192.358351 
L 357.595836 192.328906 
L 357.247584 191.934188 
L 356.830912 191.78322 
L 356.3989 192.052315 
L 356.329072 192.594171 
L 356.110369 193.325169 
L 355.583235 193.783585 
L 355.243986 194.36491 
L 355.295178 194.948002 
L 355.682609 195.613915 
L 355.491559 196.182351 
L 354.991941 196.491865 
L 354.022669 196.487392 
L 353.363449 196.375918 
L 353.284138 196.050161 
L 353.221598 194.992577 
L 352.658931 194.380015 
L 352.174944 194.228723 
L 351.608313 194.483635 
L 351.377451 194.916267 
L 351.482044 195.594558 
L 352.00172 196.776206 
L 352.33222 198.133287 
L 352.567876 199.323316 
L 352.282009 200.013253 
L 352.400345 200.637281 
L 352.557526 201.613978 
L 352.390489 202.806091 
L 352.022601 203.76672 
L 351.792182 204.118117 
L 351.280233 204.170001 
L 351.211158 204.562803 
L 351.222964 204.842789 
L 350.630699 204.823016 
L 349.989476 204.376941 
L 349.229817 204.14772 
L 348.765026 203.772925 
L 348.183487 203.714717 
L 347.397397 203.835305 
L 347.180148 204.312798 
L 346.772863 204.549508 
L 346.618828 204.94076 
L 345.924612 204.988555 
L 345.227675 205.632919 
L 345.292453 206.280702 
L 345.492902 206.860946 
L 346.016363 207.136084 
L 346.436744 207.734351 
L 346.349431 208.33034 
L 345.960169 208.328561 
L 345.319402 207.797372 
L 344.558793 207.555322 
L 343.610127 207.755375 
L 342.627501 207.955263 
L 342.439022 208.448501 
L 341.845316 208.735395 
L 340.998638 208.833771 
L 340.116246 209.306729 
L 339.53768 209.985669 
L 339.429523 210.434271 
L 338.021086 211.194431 
L 337.848197 211.994492 
L 338.047516 212.813369 
L 337.72285 213.493452 
L 336.908095 213.983765 
L 336.411925 214.684314 
L 335.631444 215.106606 
L 334.196837 217.877411 
L 333.208515 219.30413 
L 333.201578 220.803592 
L 333.633514 222.075106 
L 332.934038 223.281674 
L 333.066972 223.810468 
L 333.841189 224.751287 
L 334.109267 225.365951 
L 334.665151 225.947958 
L 334.662588 226.493151 
L 331.799568 226.790834 
L 330.189086 227.328518 
L 329.270341 228.329545 
L 329.02909 229.265633 
L 329.886744 230.479525 
L 332.074459 233.174425 
L 333.068628 234.150327 
L 333.555882 234.936429 
L 334.534404 235.656754 
L 334.498318 236.133726 
L 332.941136 236.10937 
L 331.755692 236.223023 
L 330.284583 235.875386 
L 329.758649 236.128487 
L 329.585398 236.99672 
L 330.021743 237.79957 
L 330.527844 238.176865 
L 331.068955 238.281603 
L 332.096298 239.428118 
L 332.718927 240.214869 
L 330.813006 242.073723 
L 329.286395 242.748223 
L 328.808776 243.529772 
L 326.910104 244.11725 
L 325.567791 245.201395 
L 324.409352 246.361556 
L 324.219963 247.059316 
L 323.689477 248.26667 
L 323.837366 249.221608 
L 324.352745 251.251675 
L 324.836429 252.804687 
L 324.440044 253.967963 
L 323.20054 254.746019 
L 322.014353 255.689386 
L 320.22445 255.974253 
L 319.545967 256.584479 
L 319.260915 258.04998 
L 319.427129 259.317553 
L 317.8998 260.373017 
L 315.989908 260.895606 
L 315.036798 260.743409 
L 314.7256 261.406433 
L 314.414438 262.040081 
L 314.924037 262.899139 
L 314.592334 264.788036 
L 313.941186 265.966444 
L 312.853077 266.448715 
L 312.353489 266.593984 
L 312.232656 267.331835 
L 312.798847 268.619507 
L 313.144254 269.677334 
L 312.642679 270.251019 
L 311.527249 270.304711 
L 309.902691 269.410845 
L 308.674862 268.38584 
L 308.575393 267.705973 
L 307.916836 267.333637 
L 307.605297 268.055885 
L 307.610051 270.153133 
L 306.980822 270.772456 
L 306.755093 271.68122 
L 306.988954 272.944777 
L 306.434525 273.164912 
L 306.852214 274.559386 
L 307.364361 275.490145 
L 308.045832 275.697745 
L 308.559948 276.220033 
L 308.51671 277.556606 
L 307.023487 277.363787 
L 306.486406 277.806736 
L 305.383788 276.928876 
L 304.091778 277.071156 
L 303.312697 277.995751 
L 303.138124 279.795866 
L 304.383805 281.146947 
L 304.821155 282.281666 
L 304.468517 282.744073 
L 303.732252 282.387824 
L 303.288922 282.534237 
L 303.172657 283.703286 
L 302.116772 284.626545 
L 302.14816 285.777776 
L 301.776042 286.44445 
L 301.677387 287.817817 
L 300.154876 289.601757 
L 299.354297 291.138835 
L 298.519005 292.230281 
L 297.87353 292.19001 
L 297.002563 293.021258 
L 297.086752 294.711225 
L 295.08185 298.233297 
L 293.203725 301.700643 
L 293.512047 302.097564 
L 294.29701 302.330363 
L 294.576061 304.51755 
L 295.009475 304.72775 
L 294.648565 306.22926 
L 294.300731 307.103635 
L 293.726855 307.354541 
L 293.380196 307.975299 
L 292.574504 308.778333 
L 291.813632 309.812195 
L 292.014563 310.896686 
L 292.492684 311.521586 
L 292.902477 312.076883 
L 292.874378 313.160337 
L 293.551922 313.583386 
L 293.957338 313.284745 
L 295.115704 313.484803 
L 295.939502 313.877702 
L 295.722913 315.078765 
L 294.084766 316.025379 
L 292.639549 317.125165 
L 291.813874 318.484602 
L 291.156537 318.738531 
L 290.73684 319.917191 
L 290.766978 320.447191 
L 290.877867 320.8268 
L 291.359871 321.16376 
L 326.261086 346.860035 
L 324.217136 352.738794 
L 298.947424 395.481657 
L 253.381443 371.832625 
L 253.736212 370.880955 
L 277.495589 318.610632 
L 320.407734 222.08682 
L 336.645651 188.384477 
L 361.505987 142.527461 
L 369.615007 133.92 
" clip-path="url(#pf4878906da)" style="fill: #e0bd1f; stroke: #0000ff; stroke-width: 0.5"/>
    <path d="M 264.23888 377.445579 
L 298.947294 395.481507 
L 297.316938 421.91063 
L 290.090911 417.691923 
L 279.328106 436.592907 
L 272.788133 448.076428 
L 283.105221 453.546854 
L 278.088825 458.241359 
L 271.812061 478.242148 
L 271.781346 478.24029 
L 256.880707 450.655268 
L 256.166419 448.798114 
L 271.880641 425.026563 
L 277.23811 422.797976 
L 280.809525 414.626147 
L 283.666651 405.711811 
L 285.452359 403.111791 
L 284.380939 401.626071 
L 283.666651 399.026063 
L 286.166634 395.311756 
L 285.095215 393.083169 
L 264.23888 377.445579 
" clip-path="url(#pf4878906da)" style="fill: #e0bd1f; stroke: #0000ff; stroke-width: 0.5"/>
    <path d="M 279.328106 436.592907 
L 314.732576 454.359908 
L 312.44759 458.776593 
L 309.081529 465.2822 
L 306.241193 470.70136 
L 300.728719 466.511629 
L 300.538357 466.364168 
L 293.404824 460.839146 
L 285.896288 455.026263 
L 283.105221 453.546854 
L 272.788133 448.076428 
L 279.328106 436.592907 
" clip-path="url(#pf4878906da)" style="fill: #e0bd1f; stroke: #0000ff; stroke-width: 0.5"/>
    <path d="M 290.090911 417.691923 
L 297.316938 421.91063 
L 302.633342 425.014676 
L 314.730429 432.618979 
L 321.924687 437.589458 
L 316.916133 449.686944 
L 314.732576 454.359908 
L 279.328106 436.592907 
L 290.090911 417.691923 
" clip-path="url(#pf4878906da)" style="fill: #e0bd1f; stroke: #0000ff; stroke-width: 0.5"/>
    <path d="M 324.217136 352.738794 
L 329.11501 357.486762 
L 308.780107 405.412063 
L 297.316938 421.91063 
L 298.947294 395.481507 
L 324.217136 352.738794 
" clip-path="url(#pf4878906da)" style="fill: #e0bd1f; stroke: #0000ff; stroke-width: 0.5"/>
    <path d="M 325.207524 346.084594 
L 326.261086 346.860035 
L 324.217136 352.738794 
L 298.947294 395.481507 
L 325.207524 346.084594 
" clip-path="url(#pf4878906da)" style="fill: #e0bd1f; stroke: #0000ff; stroke-width: 0.5"/>
    <path d="M 340.286387 331.168315 
L 348.135996 336.666233 
L 352.028478 339.866113 
L 361.500573 347.016146 
L 341.937095 385.622623 
L 325.978242 412.147954 
L 315.962922 408.706652 
L 308.780107 405.412063 
L 340.286387 331.168315 
" clip-path="url(#pf4878906da)" style="fill: #e0bd1f; stroke: #0000ff; stroke-width: 0.5"/>
    <path d="M 312.44759 458.776593 
L 327.698224 474.389299 
L 321.690405 480.753382 
L 309.081529 465.2822 
L 312.44759 458.776593 
" clip-path="url(#pf4878906da)" style="fill: #e0bd1f; stroke: #0000ff; stroke-width: 0.5"/>
    <path d="M 316.916133 449.686944 
L 333.000703 468.772161 
L 327.698224 474.389299 
L 312.44759 458.776593 
L 314.732576 454.359908 
L 316.916133 449.686944 
" clip-path="url(#pf4878906da)" style="fill: #e0bd1f; stroke: #0000ff; stroke-width: 0.5"/>
    <path d="M 321.924687 437.589458 
L 340.161738 450.188001 
L 346.44493 454.528175 
L 333.000703 468.772161 
L 316.916133 449.686944 
L 321.924687 437.589458 
" clip-path="url(#pf4878906da)" style="fill: #e0bd1f; stroke: #0000ff; stroke-width: 0.5"/>
    <path d="M 329.682869 341.154229 
L 334.961768 343.7067 
L 329.11501 357.486762 
L 324.217136 352.738794 
L 326.261086 346.860035 
L 329.682869 341.154229 
" clip-path="url(#pf4878906da)" style="fill: #e0bd1f; stroke: #0000ff; stroke-width: 0.5"/>
    <path d="M 512.178429 338.132271 
L 517.368409 342.058289 
L 518.359111 343.442239 
L 518.42305 343.525436 
L 524.875878 349.487265 
L 523.373374 355.106275 
L 528.300503 372.399698 
L 501.377053 401.825908 
L 500.536341 404.439661 
L 493.294589 428.287349 
L 464.713296 440.470266 
L 455.839055 451.338324 
L 454.369773 454.511821 
L 425.415264 484.375948 
L 413.02569 501.175 
L 405.202863 514.387161 
L 380.668336 490.683216 
L 374.191941 486.198189 
L 360.821642 502.433418 
L 355.669526 497.055095 
L 320.691834 532.808616 
L 307.122611 526.892104 
L 297.677657 536.4167 
L 293.307316 538.203279 
L 291.695179 540.34086 
L 287.841629 542.475098 
L 285.597708 544.206707 
L 284.045575 544.493819 
L 283.069157 543.914018 
L 282.782367 543.393278 
L 282.323086 543.161497 
L 281.633445 543.160387 
L 280.769873 544.142082 
L 278.984886 546.452744 
L 277.88882 549.342845 
L 277.758822 549.475825 
L 275.298838 551.998946 
L 273.512771 554.829986 
L 272.822062 555.754478 
L 271.038849 556.619172 
L 265.684235 562.856975 
L 258.943909 573.197969 
L 254.210009 580.710155 
L 254.11358 580.720919 
L 243.35399 598.867898 
L 243.233275 598.902076 
L 236.321166 609.9499 
L 233.009027 615.073041 
L 230.625478 619.968867 
L 227.632272 625.966719 
L 224.020499 632.522844 
L 218.732317 638.814868 
L 218.562321 639.025094 
L 213.190915 645.664042 
L 209.968068 652.85197 
L 204.488097 660.77644 
L 200.023835 667.821734 
L 195.259926 674.748169 
L 191.63959 682.324231 
L 191.062449 683.404729 
L 188.123178 688.238885 
L 187.448889 701.17062 
L 182.861765 704.243456 
L 178.745364 705.725834 
L 177.546441 706.025208 
L 177.280004 706.092814 
L 150.465492 713.257703 
L 165.752562 688.2556 
L 170.589332 679.407761 
L 173.252176 673.360502 
L 177.073955 664.940486 
L 180.766234 657.997461 
L 184.678253 650.10827 
L 190.730637 640.304886 
L 190.486374 640.01496 
L 197.285277 623.547588 
L 199.327046 619.527969 
L 200.014192 618.142909 
L 200.268467 618.260284 
L 200.363468 617.933418 
L 200.700966 617.698307 
L 202.09596 614.208721 
L 201.47918 613.893742 
L 205.238809 608.203061 
L 219.592662 615.174812 
L 219.818741 615.284378 
L 220.465516 614.903665 
L 221.286582 614.589434 
L 221.503018 614.123291 
L 221.48552 612.487876 
L 221.843371 611.560042 
L 221.899081 610.213987 
L 222.373366 608.961519 
L 222.334087 608.066377 
L 222.72979 606.919023 
L 223.238364 605.84707 
L 223.543 604.996496 
L 224.070501 604.098012 
L 224.696216 603.395259 
L 225.206565 602.879721 
L 226.427281 600.583167 
L 227.815126 598.317434 
L 227.984055 597.714606 
L 228.100129 596.79569 
L 229.352267 594.977902 
L 229.617972 594.122501 
L 229.875833 593.517815 
L 230.438331 592.699186 
L 230.637975 592.272033 
L 230.694405 590.56345 
L 230.747968 590.296395 
L 231.129039 589.540531 
L 231.457614 586.736983 
L 231.614034 586.271574 
L 232.557255 584.760221 
L 233.972241 582.746327 
L 238.335073 577.126955 
L 238.574369 576.454677 
L 238.50579 574.273264 
L 238.009725 572.302453 
L 237.967579 571.923585 
L 238.239725 570.255865 
L 238.316148 569.141578 
L 238.42686 568.847405 
L 239.075796 568.072594 
L 239.964001 567.074198 
L 242.035779 564.652834 
L 242.71363 564.013984 
L 245.918978 561.562173 
L 248.251818 559.702037 
L 248.826105 559.157149 
L 250.252882 557.305946 
L 250.27074 557.258036 
L 250.625017 556.545629 
L 250.975025 555.892284 
L 251.442522 554.636848 
L 251.654303 553.40778 
L 251.691448 552.599179 
L 251.88001 551.217823 
L 252.131443 549.707593 
L 252.579653 547.969673 
L 253.152861 546.271493 
L 253.328578 546.020403 
L 253.364295 545.974352 
L 254.323575 544.731912 
L 255.557855 541.956578 
L 255.978565 541.090774 
L 258.137127 537.876788 
L 259.861403 534.767179 
L 260.377114 533.913623 
L 260.584974 533.105771 
L 260.748542 532.737306 
L 262.712101 530.344557 
L 262.874602 530.064491 
L 264.191746 527.305885 
L 266.656731 523.732713 
L 266.935653 523.270661 
L 267.371367 522.729851 
L 268.388156 522.078739 
L 269.238858 520.485673 
L 270.409932 518.609946 
L 271.417786 517.274655 
L 271.427429 517.260174 
L 272.683849 515.910027 
L 273.659907 514.459581 
L 273.777061 514.192151 
L 274.195983 511.780454 
L 274.209547 511.736636 
L 274.240623 511.614795 
L 274.365979 511.121173 
L 274.5742 510.641658 
L 275.147047 509.643623 
L 276.684896 507.6197 
L 277.068821 506.609403 
L 278.220957 504.172822 
L 278.38239 503.208216 
L 278.716315 502.0137 
L 279.517388 500.999325 
L 280.583099 498.800449 
L 280.741305 498.601735 
L 281.860951 498.16902 
L 282.789875 498.127047 
L 284.48665 497.830641 
L 284.90772 497.546871 
L 284.974859 497.464784 
L 285.432353 495.778491 
L 285.492717 495.248833 
L 285.736282 494.68017 
L 286.064857 493.9154 
L 286.511641 493.439964 
L 286.94306 493.316652 
L 287.099852 493.172534 
L 287.140558 493.123139 
L 287.279131 492.986817 
L 288.655559 492.301528 
L 289.012703 492.171904 
L 289.316272 492.162611 
L 290.320911 492.310821 
L 292.45268 492.183043 
L 292.63768 492.071618 
L 292.758756 491.869936 
L 292.849102 491.29793 
L 292.962682 490.875244 
L 297.153371 485.995009 
L 299.068369 481.475817 
L 300.938714 477.284977 
L 303.042994 476.278023 
L 303.400125 474.606211 
L 305.21048 472.012141 
L 300.451932 469.610848 
L 278.088825 458.241359 
L 283.105221 453.546854 
L 288.628058 442.070019 
L 292.316253 434.404809 
L 293.6416 429.286869 
L 297.316938 421.91063 
L 298.947424 395.481657 
L 324.217136 352.738794 
L 350.716567 378.423891 
L 375.568315 402.505233 
L 387.775898 374.408452 
L 390.888737 367.242963 
L 391.610205 363.566476 
L 392.817588 360.33629 
L 394.680225 359.099292 
L 397.469416 358.67686 
L 451.835501 404.838211 
L 473.448976 380.251734 
L 473.586109 379.787449 
L 512.178429 338.132271 
" clip-path="url(#pf4878906da)" style="fill: #e0bd1f; stroke: #0000ff; stroke-width: 0.5"/>
    <path d="M 528.300503 372.399698 
L 501.377053 401.825908 
L 479.92109 384.759413 
L 528.300503 372.399698 
" clip-path="url(#pf4878906da)" style="fill: #e0bd1f; stroke: #0000ff; stroke-width: 0.5"/>
    <path d="M 388.875796 403.532993 
L 397.60218 409.422402 
L 402.555371 412.949134 
L 410.366049 434.678924 
L 413.928181 443.589168 
L 421.0135 448.277 
L 454.369773 454.511821 
L 425.415264 484.375948 
L 413.02569 501.175 
L 368.313747 471.200572 
L 387.5658 446.396447 
L 388.875796 403.532993 
" clip-path="url(#pf4878906da)" style="fill: #e0bd1f; stroke: #0000ff; stroke-width: 0.5"/>
    <path d="M 518.42305 343.525436 
L 524.875878 349.487265 
L 523.373374 355.106275 
L 528.300503 372.399698 
L 479.92109 384.759413 
L 476.607884 382.457296 
L 487.586045 380.498746 
L 488.344973 376.29341 
L 492.613524 370.314854 
L 497.13707 366.243234 
L 503.072041 356.388441 
L 506.563098 352.540432 
L 510.572721 349.135528 
L 512.778791 348.851383 
L 514.291285 347.957352 
L 518.42305 343.525436 
" clip-path="url(#pf4878906da)" style="fill: #e0bd1f; stroke: #0000ff; stroke-width: 0.5"/>
    <path d="M 297.677657 536.4167 
L 306.645472 543.812248 
L 312.587938 549.057591 
L 315.960068 544.946592 
L 321.451469 540.920661 
L 329.21644 550.909169 
L 330.897503 553.15669 
L 336.319258 570.924814 
L 266.55138 579.317661 
L 255.634998 580.549323 
L 254.210009 580.710155 
L 258.943909 573.197969 
L 265.684235 562.856975 
L 271.038849 556.619172 
L 272.822062 555.754478 
L 273.512771 554.829986 
L 275.298838 551.998946 
L 277.758822 549.475825 
L 277.88882 549.342845 
L 278.984886 546.452744 
L 280.769873 544.142082 
L 281.633445 543.160387 
L 282.323086 543.161497 
L 282.782367 543.393278 
L 283.069157 543.914018 
L 284.045575 544.493819 
L 285.597708 544.206707 
L 287.841629 542.475098 
L 291.695179 540.34086 
L 293.307316 538.203279 
L 297.677657 536.4167 
" clip-path="url(#pf4878906da)" style="fill: #e0bd1f; stroke: #0000ff; stroke-width: 0.5"/>
    <path d="M 285.896288 455.026263 
L 293.404824 460.839146 
L 300.538357 466.364168 
L 297.80408 467.287176 
L 296.527308 467.300173 
L 296.066947 467.524146 
L 294.316597 469.921361 
L 293.039824 472.05152 
L 292.44233 473.643838 
L 292.408747 474.493303 
L 292.073756 475.533672 
L 290.708758 477.030544 
L 289.834476 478.607632 
L 289.29948 479.037753 
L 289.199131 479.385411 
L 289.428051 479.694066 
L 289.978052 480.12642 
L 292.981967 483.377913 
L 293.358397 484.065435 
L 293.302314 486.95071 
L 293.153031 487.754858 
L 292.955533 488.086538 
L 292.398397 488.72131 
L 292.22232 489.165551 
L 292.349116 489.461943 
L 292.856971 490.216323 
L 292.818747 490.78758 
L 278.509534 482.26622 
L 275.531332 480.456615 
L 285.896288 455.026263 
" clip-path="url(#pf4878906da)" style="fill: #e0bd1f; stroke: #0000ff; stroke-width: 0.5"/>
    <path d="M 316.926856 522.426398 
L 323.346101 528.387491 
L 332.263928 536.925553 
L 335.637774 540.137173 
L 340.097399 542.704655 
L 330.897503 553.15669 
L 329.21644 550.909169 
L 321.451469 540.920661 
L 314.795795 532.105128 
L 311.578657 528.035366 
L 316.926856 522.426398 
" clip-path="url(#pf4878906da)" style="fill: #e0bd1f; stroke: #0000ff; stroke-width: 0.5"/>
    <path d="M 341.640302 469.200049 
L 361.946997 477.993666 
L 364.933774 484.267492 
L 360.926646 486.983015 
L 352.305426 499.750744 
L 323.346101 528.387491 
L 316.926856 522.426398 
L 311.623657 516.839707 
L 324.031101 503.179988 
L 318.961489 490.563608 
L 323.279322 480.187701 
L 341.640302 469.200049 
" clip-path="url(#pf4878906da)" style="fill: #e0bd1f; stroke: #0000ff; stroke-width: 0.5"/>
    <path d="M 352.305426 499.750744 
L 358.820579 505.99283 
L 367.523756 514.815423 
L 365.805549 526.19605 
L 349.379559 507.977013 
L 349.755511 506.958889 
L 352.305426 499.750744 
" clip-path="url(#pf4878906da)" style="fill: #e0bd1f; stroke: #0000ff; stroke-width: 0.5"/>
    <path d="M 311.337947 494.580258 
L 313.700795 497.659419 
L 308.949744 506.666232 
L 305.952256 504.512311 
L 305.935478 504.501534 
L 305.8269 504.432456 
L 304.882984 504.041701 
L 311.337947 494.580258 
" clip-path="url(#pf4878906da)" style="fill: #e0bd1f; stroke: #0000ff; stroke-width: 0.5"/>
    <path d="M 308.705819 472.682575 
L 309.10903 472.998663 
L 311.16795 475.057874 
L 319.514344 483.14577 
L 308.154752 488.755113 
L 302.944419 496.670664 
L 300.324069 495.15078 
L 300.512643 494.78194 
L 308.705819 472.682575 
" clip-path="url(#pf4878906da)" style="fill: #e0bd1f; stroke: #0000ff; stroke-width: 0.5"/>
    <path d="M 309.081529 465.2822 
L 321.690405 480.753382 
L 319.471131 483.103797 
L 311.16795 475.057874 
L 309.10903 472.998663 
L 308.705819 472.682575 
L 306.241193 470.70136 
L 309.081529 465.2822 
" clip-path="url(#pf4878906da)" style="fill: #e0bd1f; stroke: #0000ff; stroke-width: 0.5"/>
    <path d="M 397.616117 330.465202 
L 413.021036 336.002486 
L 420.565649 340.392428 
L 423.581355 344.256416 
L 424.231345 344.469985 
L 423.319559 344.881159 
L 420.853866 346.368738 
L 406.730002 360.573719 
L 399.39861 365.488118 
L 395.867194 368.765619 
L 393.62578 371.830299 
L 393.156844 372.471382 
L 392.878283 372.863622 
L 392.196857 377.243522 
L 391.127932 382.546069 
L 390.891143 384.909107 
L 372.175526 384.155101 
L 372.658013 382.413838 
L 372.663015 377.778382 
L 370.99981 366.189012 
L 370.779092 356.141068 
L 370.693387 355.121131 
L 370.638024 354.075172 
L 370.368026 348.976928 
L 372.255883 345.713535 
L 378.229064 340.557713 
L 385.455812 337.404634 
L 389.617225 335.040487 
L 395.586833 332.623589 
L 396.844332 331.676807 
L 397.616117 330.465202 
" clip-path="url(#pf4878906da)" style="fill: #e0bd1f; stroke: #0000ff; stroke-width: 0.5"/>
    <path d="M 401.458598 377.879417 
L 413.03604 386.204283 
L 432.572017 399.897444 
L 420.171361 425.630139 
L 402.555371 412.949134 
L 397.60218 409.422402 
L 388.875796 403.532993 
L 391.747219 384.943645 
L 401.458598 377.879417 
" clip-path="url(#pf4878906da)" style="fill: #e0bd1f; stroke: #0000ff; stroke-width: 0.5"/>
    <path d="M 424.231345 344.469985 
L 434.829155 347.882324 
L 436.158076 350.324842 
L 436.456283 351.807594 
L 443.14626 357.122389 
L 448.842655 360.34492 
L 449.398016 360.886465 
L 448.884093 365.291638 
L 437.051643 390.184162 
L 432.572017 399.897444 
L 413.03604 386.204283 
L 401.458598 377.879417 
L 391.747219 384.943645 
L 390.891143 384.909107 
L 391.127932 382.546069 
L 392.196857 377.243522 
L 392.878283 372.863622 
L 393.156844 372.471382 
L 393.62578 371.830299 
L 395.867194 368.765619 
L 399.39861 365.488118 
L 406.730002 360.573719 
L 420.853866 346.368738 
L 423.319559 344.881159 
L 424.231345 344.469985 
" clip-path="url(#pf4878906da)" style="fill: #e0bd1f; stroke: #0000ff; stroke-width: 0.5"/>
    <path d="M 402.555371 412.949134 
L 420.171361 425.630139 
L 410.366049 434.678924 
L 402.555371 412.949134 
" clip-path="url(#pf4878906da)" style="fill: #e0bd1f; stroke: #0000ff; stroke-width: 0.5"/>
    <path d="M 420.171361 425.630139 
L 455.839055 451.338324 
L 454.369773 454.511821 
L 421.0135 448.277 
L 413.928181 443.589168 
L 410.366049 434.678924 
L 420.171361 425.630139 
" clip-path="url(#pf4878906da)" style="fill: #e0bd1f; stroke: #0000ff; stroke-width: 0.5"/>
    <path d="M 479.92109 384.759413 
L 501.377053 401.825908 
L 500.536341 404.439661 
L 493.294589 428.287349 
L 464.713296 440.470266 
L 455.839055 451.338324 
L 420.171361 425.630139 
L 432.572017 399.897444 
L 456.187263 416.671237 
L 479.92109 384.759413 
" clip-path="url(#pf4878906da)" style="fill: #e0bd1f; stroke: #0000ff; stroke-width: 0.5"/>
    <path d="M 467.374352 375.978806 
L 476.607884 382.457296 
L 479.92109 384.759413 
L 456.187263 416.671237 
L 432.572017 399.897444 
L 437.051643 390.184162 
L 442.132338 393.756584 
L 447.130528 391.402827 
L 451.513713 393.608749 
L 467.374352 375.978806 
" clip-path="url(#pf4878906da)" style="fill: #e0bd1f; stroke: #0000ff; stroke-width: 0.5"/>
    <path d="M 501.061347 330.796895 
L 504.494188 333.7323 
L 512.178429 338.132271 
L 517.368409 342.058289 
L 518.359111 343.442239 
L 513.936635 347.610803 
L 512.575572 348.407156 
L 510.392375 348.680148 
L 506.265251 352.150426 
L 502.734542 356.031128 
L 496.706718 365.993267 
L 492.207459 370.03666 
L 487.864259 376.164884 
L 487.263911 380.155165 
L 476.942528 382.093297 
L 455.663337 367.386871 
L 449.77622 366.329039 
L 449.343374 365.182433 
L 450.374075 357.443679 
L 454.73656 348.669745 
L 457.414047 339.716419 
L 454.76977 336.675513 
L 454.972989 334.583248 
L 469.341485 332.838643 
L 488.607116 333.12502 
L 501.061347 330.796895 
" clip-path="url(#pf4878906da)" style="fill: #e0bd1f; stroke: #0000ff; stroke-width: 0.5"/>
   </g>
   <g id="PatchCollection_2">
    <path d="M 512.178429 338.132271 
L 517.368409 342.058289 
L 518.42305 343.525436 
L 524.875878 349.487265 
L 523.373374 355.106275 
L 528.300503 372.399698 
L 501.377053 401.825908 
L 500.536341 404.439661 
L 493.294589 428.287349 
L 464.713296 440.470266 
L 455.839055 451.338324 
L 454.369773 454.511821 
L 425.415264 484.375948 
L 413.02569 501.175 
L 405.202863 514.387161 
L 380.668336 490.683216 
L 374.191941 486.198189 
L 360.821642 502.433418 
L 355.669526 497.055095 
L 320.691834 532.808616 
L 307.122611 526.892104 
L 297.677657 536.4167 
L 293.307316 538.203279 
L 291.695179 540.34086 
L 287.841629 542.475098 
L 285.597708 544.206707 
L 284.045575 544.493819 
L 283.069157 543.914018 
L 282.782367 543.393278 
L 282.323086 543.161497 
L 281.633445 543.160387 
L 280.769873 544.142082 
L 278.984886 546.452744 
L 277.758822 549.475825 
L 275.298838 551.998946 
L 272.822062 555.754478 
L 271.038849 556.619172 
L 265.684235 562.856975 
L 258.943909 573.197969 
L 254.11358 580.720919 
L 243.233275 598.902076 
L 233.009027 615.073041 
L 227.632272 625.966719 
L 224.020499 632.522844 
L 218.562321 639.025094 
L 213.190915 645.664042 
L 209.968068 652.85197 
L 204.488097 660.77644 
L 200.023835 667.821734 
L 195.259926 674.748169 
L 191.062449 683.404729 
L 188.123178 688.238885 
L 187.448889 701.17062 
L 182.861765 704.243456 
L 178.745364 705.725834 
L 177.280004 706.092814 
L 150.465492 713.257703 
L 165.752562 688.2556 
L 170.589332 679.407761 
L 177.073955 664.940486 
L 180.766234 657.997461 
L 184.678253 650.10827 
L 190.730637 640.304886 
L 190.486374 640.01496 
L 197.285277 623.547588 
L 200.014192 618.142909 
L 200.268467 618.260284 
L 200.363468 617.933418 
L 200.700966 617.698307 
L 202.09596 614.208721 
L 201.47918 613.893742 
L 205.238809 608.203061 
L 219.818741 615.284378 
L 220.465516 614.903665 
L 221.286582 614.589434 
L 221.503018 614.123291 
L 221.48552 612.487876 
L 221.843371 611.560042 
L 221.899081 610.213987 
L 222.373366 608.961519 
L 222.334087 608.066377 
L 222.72979 606.919023 
L 224.070501 604.098012 
L 225.206565 602.879721 
L 226.427281 600.583167 
L 227.815126 598.317434 
L 227.984055 597.714606 
L 228.100129 596.79569 
L 229.352267 594.977902 
L 229.875833 593.517815 
L 230.637975 592.272033 
L 230.747968 590.296395 
L 231.129039 589.540531 
L 231.614034 586.271574 
L 232.557255 584.760221 
L 233.972241 582.746327 
L 238.335073 577.126955 
L 238.574369 576.454677 
L 238.50579 574.273264 
L 237.967579 571.923585 
L 238.42686 568.847405 
L 242.035779 564.652834 
L 242.71363 564.013984 
L 248.251818 559.702037 
L 248.826105 559.157149 
L 250.27074 557.258036 
L 250.975025 555.892284 
L 251.442522 554.636848 
L 251.691448 552.599179 
L 252.131443 549.707593 
L 252.579653 547.969673 
L 253.364295 545.974352 
L 254.323575 544.731912 
L 255.978565 541.090774 
L 258.137127 537.876788 
L 260.377114 533.913623 
L 260.748542 532.737306 
L 262.874602 530.064491 
L 264.191746 527.305885 
L 267.371367 522.729851 
L 268.388156 522.078739 
L 269.238858 520.485673 
L 270.409932 518.609946 
L 271.427429 517.260174 
L 272.683849 515.910027 
L 273.777061 514.192151 
L 274.365979 511.121173 
L 274.5742 510.641658 
L 275.147047 509.643623 
L 276.684896 507.6197 
L 277.068821 506.609403 
L 278.220957 504.172822 
L 278.38239 503.208216 
L 278.716315 502.0137 
L 279.517388 500.999325 
L 280.741305 498.601735 
L 281.860951 498.16902 
L 282.789875 498.127047 
L 284.48665 497.830641 
L 284.974859 497.464784 
L 285.736282 494.68017 
L 286.064857 493.9154 
L 286.511641 493.439964 
L 287.099852 493.172534 
L 287.279131 492.986817 
L 289.012703 492.171904 
L 289.316272 492.162611 
L 290.320911 492.310821 
L 292.63768 492.071618 
L 292.758756 491.869936 
L 292.962682 490.875244 
L 297.153371 485.995009 
L 300.938714 477.284977 
L 303.042994 476.278023 
L 303.400125 474.606211 
L 305.21048 472.012141 
L 278.088825 458.241359 
L 283.105221 453.546854 
L 292.316253 434.404809 
L 293.6416 429.286869 
L 297.316938 421.91063 
L 298.947424 395.481657 
L 324.217136 352.738794 
L 375.568315 402.505233 
L 390.888737 367.242963 
L 391.610205 363.566476 
L 392.817588 360.33629 
L 394.680225 359.099292 
L 397.469416 358.67686 
L 451.835501 404.838211 
L 473.448976 380.251734 
L 473.586109 379.787449 
L 512.178429 338.132271 
L 512.178429 338.132271 
" clip-path="url(#pf4878906da)" style="fill: none; stroke: #000000"/>
   </g>
   <g id="matplotlib.axis_1">
    <g id="xtick_1">
     <g id="line2d_1">
      <path d="M 143.608025 768.96 
L 143.608025 103.68 
" clip-path="url(#pf4878906da)" style="fill: none; stroke: #b0b0b0; stroke-width: 0.8; stroke-linecap: square"/>
     </g>
     <g id="line2d_2">
      <defs>
       <path id="mffdc81edd4" d="M 0 0 
L 0 3.5 
" style="stroke: #000000; stroke-width: 0.8"/>
      </defs>
      <g>
       <use xlink:href="#mffdc81edd4" x="143.608025" y="768.96" style="stroke: #000000; stroke-width: 0.8"/>
      </g>
     </g>
     <g id="text_1">
      <!-- 57.40 -->
      <g transform="translate(132.47496 807.501382) rotate(-45) scale(0.1 -0.1)">
       <defs>
        <path id="DejaVuSans-2212" d="M 678 2272 
L 4684 2272 
L 4684 1741 
L 678 1741 
L 678 2272 
z
" transform="scale(0.015625)"/>
        <path id="DejaVuSans-35" d="M 691 4666 
L 3169 4666 
L 3169 4134 
L 1269 4134 
L 1269 2991 
Q 1406 3038 1543 3061 
Q 1681 3084 1819 3084 
Q 2600 3084 3056 2656 
Q 3513 2228 3513 1497 
Q 3513 744 3044 326 
Q 2575 -91 1722 -91 
Q 1428 -91 1123 -41 
Q 819 9 494 109 
L 494 744 
Q 775 591 1075 516 
Q 1375 441 1709 441 
Q 2250 441 2565 725 
Q 2881 1009 2881 1497 
Q 2881 1984 2565 2268 
Q 2250 2553 1709 2553 
Q 1456 2553 1204 2497 
Q 953 2441 691 2322 
L 691 4666 
z
" transform="scale(0.015625)"/>
        <path id="DejaVuSans-37" d="M 525 4666 
L 3525 4666 
L 3525 4397 
L 1831 0 
L 1172 0 
L 2766 4134 
L 525 4134 
L 525 4666 
z
" transform="scale(0.015625)"/>
        <path id="DejaVuSans-2e" d="M 684 794 
L 1344 794 
L 1344 0 
L 684 0 
L 684 794 
z
" transform="scale(0.015625)"/>
        <path id="DejaVuSans-34" d="M 2419 4116 
L 825 1625 
L 2419 1625 
L 2419 4116 
z
M 2253 4666 
L 3047 4666 
L 3047 1625 
L 3713 1625 
L 3713 1100 
L 3047 1100 
L 3047 0 
L 2419 0 
L 2419 1100 
L 313 1100 
L 313 1709 
L 2253 4666 
z
" transform="scale(0.015625)"/>
        <path id="DejaVuSans-30" d="M 2034 4250 
Q 1547 4250 1301 3770 
Q 1056 3291 1056 2328 
Q 1056 1369 1301 889 
Q 1547 409 2034 409 
Q 2525 409 2770 889 
Q 3016 1369 3016 2328 
Q 3016 3291 2770 3770 
Q 2525 4250 2034 4250 
z
M 2034 4750 
Q 2819 4750 3233 4129 
Q 3647 3509 3647 2328 
Q 3647 1150 3233 529 
Q 2819 -91 2034 -91 
Q 1250 -91 836 529 
Q 422 1150 422 2328 
Q 422 3509 836 4129 
Q 1250 4750 2034 4750 
z
" transform="scale(0.015625)"/>
       </defs>
       <use xlink:href="#DejaVuSans-2212"/>
       <use xlink:href="#DejaVuSans-35" transform="translate(83.789062 0)"/>
       <use xlink:href="#DejaVuSans-37" transform="translate(147.412109 0)"/>
       <use xlink:href="#DejaVuSans-2e" transform="translate(211.035156 0)"/>
       <use xlink:href="#DejaVuSans-34" transform="translate(242.822266 0)"/>
       <use xlink:href="#DejaVuSans-30" transform="translate(306.445312 0)"/>
      </g>
     </g>
    </g>
    <g id="xtick_2">
     <g id="line2d_3">
      <path d="M 207.893437 768.96 
L 207.893437 103.68 
" clip-path="url(#pf4878906da)" style="fill: none; stroke: #b0b0b0; stroke-width: 0.8; stroke-linecap: square"/>
     </g>
     <g id="line2d_4">
      <g>
       <use xlink:href="#mffdc81edd4" x="207.893437" y="768.96" style="stroke: #000000; stroke-width: 0.8"/>
      </g>
     </g>
     <g id="text_2">
      <!-- 57.35 -->
      <g transform="translate(196.760372 807.501382) rotate(-45) scale(0.1 -0.1)">
       <defs>
        <path id="DejaVuSans-33" d="M 2597 2516 
Q 3050 2419 3304 2112 
Q 3559 1806 3559 1356 
Q 3559 666 3084 287 
Q 2609 -91 1734 -91 
Q 1441 -91 1130 -33 
Q 819 25 488 141 
L 488 750 
Q 750 597 1062 519 
Q 1375 441 1716 441 
Q 2309 441 2620 675 
Q 2931 909 2931 1356 
Q 2931 1769 2642 2001 
Q 2353 2234 1838 2234 
L 1294 2234 
L 1294 2753 
L 1863 2753 
Q 2328 2753 2575 2939 
Q 2822 3125 2822 3475 
Q 2822 3834 2567 4026 
Q 2313 4219 1838 4219 
Q 1578 4219 1281 4162 
Q 984 4106 628 3988 
L 628 4550 
Q 988 4650 1302 4700 
Q 1616 4750 1894 4750 
Q 2613 4750 3031 4423 
Q 3450 4097 3450 3541 
Q 3450 3153 3228 2886 
Q 3006 2619 2597 2516 
z
" transform="scale(0.015625)"/>
       </defs>
       <use xlink:href="#DejaVuSans-2212"/>
       <use xlink:href="#DejaVuSans-35" transform="translate(83.789062 0)"/>
       <use xlink:href="#DejaVuSans-37" transform="translate(147.412109 0)"/>
       <use xlink:href="#DejaVuSans-2e" transform="translate(211.035156 0)"/>
       <use xlink:href="#DejaVuSans-33" transform="translate(242.822266 0)"/>
       <use xlink:href="#DejaVuSans-35" transform="translate(306.445312 0)"/>
      </g>
     </g>
    </g>
    <g id="xtick_3">
     <g id="line2d_5">
      <path d="M 272.178848 768.96 
L 272.178848 103.68 
" clip-path="url(#pf4878906da)" style="fill: none; stroke: #b0b0b0; stroke-width: 0.8; stroke-linecap: square"/>
     </g>
     <g id="line2d_6">
      <g>
       <use xlink:href="#mffdc81edd4" x="272.178848" y="768.96" style="stroke: #000000; stroke-width: 0.8"/>
      </g>
     </g>
     <g id="text_3">
      <!-- 57.30 -->
      <g transform="translate(261.045783 807.501382) rotate(-45) scale(0.1 -0.1)">
       <use xlink:href="#DejaVuSans-2212"/>
       <use xlink:href="#DejaVuSans-35" transform="translate(83.789062 0)"/>
       <use xlink:href="#DejaVuSans-37" transform="translate(147.412109 0)"/>
       <use xlink:href="#DejaVuSans-2e" transform="translate(211.035156 0)"/>
       <use xlink:href="#DejaVuSans-33" transform="translate(242.822266 0)"/>
       <use xlink:href="#DejaVuSans-30" transform="translate(306.445312 0)"/>
      </g>
     </g>
    </g>
    <g id="xtick_4">
     <g id="line2d_7">
      <path d="M 336.46426 768.96 
L 336.46426 103.68 
" clip-path="url(#pf4878906da)" style="fill: none; stroke: #b0b0b0; stroke-width: 0.8; stroke-linecap: square"/>
     </g>
     <g id="line2d_8">
      <g>
       <use xlink:href="#mffdc81edd4" x="336.46426" y="768.96" style="stroke: #000000; stroke-width: 0.8"/>
      </g>
     </g>
     <g id="text_4">
      <!-- 57.25 -->
      <g transform="translate(325.331195 807.501382) rotate(-45) scale(0.1 -0.1)">
       <defs>
        <path id="DejaVuSans-32" d="M 1228 531 
L 3431 531 
L 3431 0 
L 469 0 
L 469 531 
Q 828 903 1448 1529 
Q 2069 2156 2228 2338 
Q 2531 2678 2651 2914 
Q 2772 3150 2772 3378 
Q 2772 3750 2511 3984 
Q 2250 4219 1831 4219 
Q 1534 4219 1204 4116 
Q 875 4013 500 3803 
L 500 4441 
Q 881 4594 1212 4672 
Q 1544 4750 1819 4750 
Q 2544 4750 2975 4387 
Q 3406 4025 3406 3419 
Q 3406 3131 3298 2873 
Q 3191 2616 2906 2266 
Q 2828 2175 2409 1742 
Q 1991 1309 1228 531 
z
" transform="scale(0.015625)"/>
       </defs>
       <use xlink:href="#DejaVuSans-2212"/>
       <use xlink:href="#DejaVuSans-35" transform="translate(83.789062 0)"/>
       <use xlink:href="#DejaVuSans-37" transform="translate(147.412109 0)"/>
       <use xlink:href="#DejaVuSans-2e" transform="translate(211.035156 0)"/>
       <use xlink:href="#DejaVuSans-32" transform="translate(242.822266 0)"/>
       <use xlink:href="#DejaVuSans-35" transform="translate(306.445312 0)"/>
      </g>
     </g>
    </g>
    <g id="xtick_5">
     <g id="line2d_9">
      <path d="M 400.749671 768.96 
L 400.749671 103.68 
" clip-path="url(#pf4878906da)" style="fill: none; stroke: #b0b0b0; stroke-width: 0.8; stroke-linecap: square"/>
     </g>
     <g id="line2d_10">
      <g>
       <use xlink:href="#mffdc81edd4" x="400.749671" y="768.96" style="stroke: #000000; stroke-width: 0.8"/>
      </g>
     </g>
     <g id="text_5">
      <!-- 57.20 -->
      <g transform="translate(389.616606 807.501382) rotate(-45) scale(0.1 -0.1)">
       <use xlink:href="#DejaVuSans-2212"/>
       <use xlink:href="#DejaVuSans-35" transform="translate(83.789062 0)"/>
       <use xlink:href="#DejaVuSans-37" transform="translate(147.412109 0)"/>
       <use xlink:href="#DejaVuSans-2e" transform="translate(211.035156 0)"/>
       <use xlink:href="#DejaVuSans-32" transform="translate(242.822266 0)"/>
       <use xlink:href="#DejaVuSans-30" transform="translate(306.445312 0)"/>
      </g>
     </g>
    </g>
    <g id="xtick_6">
     <g id="line2d_11">
      <path d="M 465.035083 768.96 
L 465.035083 103.68 
" clip-path="url(#pf4878906da)" style="fill: none; stroke: #b0b0b0; stroke-width: 0.8; stroke-linecap: square"/>
     </g>
     <g id="line2d_12">
      <g>
       <use xlink:href="#mffdc81edd4" x="465.035083" y="768.96" style="stroke: #000000; stroke-width: 0.8"/>
      </g>
     </g>
     <g id="text_6">
      <!-- 57.15 -->
      <g transform="translate(453.902018 807.501382) rotate(-45) scale(0.1 -0.1)">
       <defs>
        <path id="DejaVuSans-31" d="M 794 531 
L 1825 531 
L 1825 4091 
L 703 3866 
L 703 4441 
L 1819 4666 
L 2450 4666 
L 2450 531 
L 3481 531 
L 3481 0 
L 794 0 
L 794 531 
z
" transform="scale(0.015625)"/>
       </defs>
       <use xlink:href="#DejaVuSans-2212"/>
       <use xlink:href="#DejaVuSans-35" transform="translate(83.789062 0)"/>
       <use xlink:href="#DejaVuSans-37" transform="translate(147.412109 0)"/>
       <use xlink:href="#DejaVuSans-2e" transform="translate(211.035156 0)"/>
       <use xlink:href="#DejaVuSans-31" transform="translate(242.822266 0)"/>
       <use xlink:href="#DejaVuSans-35" transform="translate(306.445312 0)"/>
      </g>
     </g>
    </g>
    <g id="xtick_7">
     <g id="line2d_13">
      <path d="M 529.320494 768.96 
L 529.320494 103.68 
" clip-path="url(#pf4878906da)" style="fill: none; stroke: #b0b0b0; stroke-width: 0.8; stroke-linecap: square"/>
     </g>
     <g id="line2d_14">
      <g>
       <use xlink:href="#mffdc81edd4" x="529.320494" y="768.96" style="stroke: #000000; stroke-width: 0.8"/>
      </g>
     </g>
     <g id="text_7">
      <!-- 57.10 -->
      <g transform="translate(518.187429 807.501382) rotate(-45) scale(0.1 -0.1)">
       <use xlink:href="#DejaVuSans-2212"/>
       <use xlink:href="#DejaVuSans-35" transform="translate(83.789062 0)"/>
       <use xlink:href="#DejaVuSans-37" transform="translate(147.412109 0)"/>
       <use xlink:href="#DejaVuSans-2e" transform="translate(211.035156 0)"/>
       <use xlink:href="#DejaVuSans-31" transform="translate(242.822266 0)"/>
       <use xlink:href="#DejaVuSans-30" transform="translate(306.445312 0)"/>
      </g>
     </g>
    </g>
    <g id="xtick_8">
     <g id="line2d_15">
      <path d="M 593.605906 768.96 
L 593.605906 103.68 
" clip-path="url(#pf4878906da)" style="fill: none; stroke: #b0b0b0; stroke-width: 0.8; stroke-linecap: square"/>
     </g>
     <g id="line2d_16">
      <g>
       <use xlink:href="#mffdc81edd4" x="593.605906" y="768.96" style="stroke: #000000; stroke-width: 0.8"/>
      </g>
     </g>
     <g id="text_8">
      <!-- 57.05 -->
      <g transform="translate(582.472841 807.501382) rotate(-45) scale(0.1 -0.1)">
       <use xlink:href="#DejaVuSans-2212"/>
       <use xlink:href="#DejaVuSans-35" transform="translate(83.789062 0)"/>
       <use xlink:href="#DejaVuSans-37" transform="translate(147.412109 0)"/>
       <use xlink:href="#DejaVuSans-2e" transform="translate(211.035156 0)"/>
       <use xlink:href="#DejaVuSans-30" transform="translate(242.822266 0)"/>
       <use xlink:href="#DejaVuSans-35" transform="translate(306.445312 0)"/>
      </g>
     </g>
    </g>
    <g id="text_9">
     <!-- Longitude () -->
     <g transform="translate(336.139844 820.57038) scale(0.1 -0.1)">
      <defs>
       <path id="DejaVuSans-4c" d="M 628 4666 
L 1259 4666 
L 1259 531 
L 3531 531 
L 3531 0 
L 628 0 
L 628 4666 
z
" transform="scale(0.015625)"/>
       <path id="DejaVuSans-6f" d="M 1959 3097 
Q 1497 3097 1228 2736 
Q 959 2375 959 1747 
Q 959 1119 1226 758 
Q 1494 397 1959 397 
Q 2419 397 2687 759 
Q 2956 1122 2956 1747 
Q 2956 2369 2687 2733 
Q 2419 3097 1959 3097 
z
M 1959 3584 
Q 2709 3584 3137 3096 
Q 3566 2609 3566 1747 
Q 3566 888 3137 398 
Q 2709 -91 1959 -91 
Q 1206 -91 779 398 
Q 353 888 353 1747 
Q 353 2609 779 3096 
Q 1206 3584 1959 3584 
z
" transform="scale(0.015625)"/>
       <path id="DejaVuSans-6e" d="M 3513 2113 
L 3513 0 
L 2938 0 
L 2938 2094 
Q 2938 2591 2744 2837 
Q 2550 3084 2163 3084 
Q 1697 3084 1428 2787 
Q 1159 2491 1159 1978 
L 1159 0 
L 581 0 
L 581 3500 
L 1159 3500 
L 1159 2956 
Q 1366 3272 1645 3428 
Q 1925 3584 2291 3584 
Q 2894 3584 3203 3211 
Q 3513 2838 3513 2113 
z
" transform="scale(0.015625)"/>
       <path id="DejaVuSans-67" d="M 2906 1791 
Q 2906 2416 2648 2759 
Q 2391 3103 1925 3103 
Q 1463 3103 1205 2759 
Q 947 2416 947 1791 
Q 947 1169 1205 825 
Q 1463 481 1925 481 
Q 2391 481 2648 825 
Q 2906 1169 2906 1791 
z
M 3481 434 
Q 3481 -459 3084 -895 
Q 2688 -1331 1869 -1331 
Q 1566 -1331 1297 -1286 
Q 1028 -1241 775 -1147 
L 775 -588 
Q 1028 -725 1275 -790 
Q 1522 -856 1778 -856 
Q 2344 -856 2625 -561 
Q 2906 -266 2906 331 
L 2906 616 
Q 2728 306 2450 153 
Q 2172 0 1784 0 
Q 1141 0 747 490 
Q 353 981 353 1791 
Q 353 2603 747 3093 
Q 1141 3584 1784 3584 
Q 2172 3584 2450 3431 
Q 2728 3278 2906 2969 
L 2906 3500 
L 3481 3500 
L 3481 434 
z
" transform="scale(0.015625)"/>
       <path id="DejaVuSans-69" d="M 603 3500 
L 1178 3500 
L 1178 0 
L 603 0 
L 603 3500 
z
M 603 4863 
L 1178 4863 
L 1178 4134 
L 603 4134 
L 603 4863 
z
" transform="scale(0.015625)"/>
       <path id="DejaVuSans-74" d="M 1172 4494 
L 1172 3500 
L 2356 3500 
L 2356 3053 
L 1172 3053 
L 1172 1153 
Q 1172 725 1289 603 
Q 1406 481 1766 481 
L 2356 481 
L 2356 0 
L 1766 0 
Q 1100 0 847 248 
Q 594 497 594 1153 
L 594 3053 
L 172 3053 
L 172 3500 
L 594 3500 
L 594 4494 
L 1172 4494 
z
" transform="scale(0.015625)"/>
       <path id="DejaVuSans-75" d="M 544 1381 
L 544 3500 
L 1119 3500 
L 1119 1403 
Q 1119 906 1312 657 
Q 1506 409 1894 409 
Q 2359 409 2629 706 
Q 2900 1003 2900 1516 
L 2900 3500 
L 3475 3500 
L 3475 0 
L 2900 0 
L 2900 538 
Q 2691 219 2414 64 
Q 2138 -91 1772 -91 
Q 1169 -91 856 284 
Q 544 659 544 1381 
z
M 1991 3584 
L 1991 3584 
z
" transform="scale(0.015625)"/>
       <path id="DejaVuSans-64" d="M 2906 2969 
L 2906 4863 
L 3481 4863 
L 3481 0 
L 2906 0 
L 2906 525 
Q 2725 213 2448 61 
Q 2172 -91 1784 -91 
Q 1150 -91 751 415 
Q 353 922 353 1747 
Q 353 2572 751 3078 
Q 1150 3584 1784 3584 
Q 2172 3584 2448 3432 
Q 2725 3281 2906 2969 
z
M 947 1747 
Q 947 1113 1208 752 
Q 1469 391 1925 391 
Q 2381 391 2643 752 
Q 2906 1113 2906 1747 
Q 2906 2381 2643 2742 
Q 2381 3103 1925 3103 
Q 1469 3103 1208 2742 
Q 947 2381 947 1747 
z
" transform="scale(0.015625)"/>
       <path id="DejaVuSans-65" d="M 3597 1894 
L 3597 1613 
L 953 1613 
Q 991 1019 1311 708 
Q 1631 397 2203 397 
Q 2534 397 2845 478 
Q 3156 559 3463 722 
L 3463 178 
Q 3153 47 2828 -22 
Q 2503 -91 2169 -91 
Q 1331 -91 842 396 
Q 353 884 353 1716 
Q 353 2575 817 3079 
Q 1281 3584 2069 3584 
Q 2775 3584 3186 3129 
Q 3597 2675 3597 1894 
z
M 3022 2063 
Q 3016 2534 2758 2815 
Q 2500 3097 2075 3097 
Q 1594 3097 1305 2825 
Q 1016 2553 972 2059 
L 3022 2063 
z
" transform="scale(0.015625)"/>
       <path id="DejaVuSans-20" transform="scale(0.015625)"/>
       <path id="DejaVuSans-28" d="M 1984 4856 
Q 1566 4138 1362 3434 
Q 1159 2731 1159 2009 
Q 1159 1288 1364 580 
Q 1569 -128 1984 -844 
L 1484 -844 
Q 1016 -109 783 600 
Q 550 1309 550 2009 
Q 550 2706 781 3412 
Q 1013 4119 1484 4856 
L 1984 4856 
z
" transform="scale(0.015625)"/>
       <path id="DejaVuSans-b0" d="M 1600 4347 
Q 1350 4347 1178 4173 
Q 1006 4000 1006 3750 
Q 1006 3503 1178 3333 
Q 1350 3163 1600 3163 
Q 1850 3163 2022 3333 
Q 2194 3503 2194 3750 
Q 2194 3997 2020 4172 
Q 1847 4347 1600 4347 
z
M 1600 4750 
Q 1800 4750 1984 4673 
Q 2169 4597 2303 4453 
Q 2447 4313 2519 4134 
Q 2591 3956 2591 3750 
Q 2591 3338 2302 3052 
Q 2013 2766 1594 2766 
Q 1172 2766 890 3047 
Q 609 3328 609 3750 
Q 609 4169 896 4459 
Q 1184 4750 1600 4750 
z
" transform="scale(0.015625)"/>
       <path id="DejaVuSans-29" d="M 513 4856 
L 1013 4856 
Q 1481 4119 1714 3412 
Q 1947 2706 1947 2009 
Q 1947 1309 1714 600 
Q 1481 -109 1013 -844 
L 513 -844 
Q 928 -128 1133 580 
Q 1338 1288 1338 2009 
Q 1338 2731 1133 3434 
Q 928 4138 513 4856 
z
" transform="scale(0.015625)"/>
      </defs>
      <use xlink:href="#DejaVuSans-4c"/>
      <use xlink:href="#DejaVuSans-6f" transform="translate(53.962891 0)"/>
      <use xlink:href="#DejaVuSans-6e" transform="translate(115.144531 0)"/>
      <use xlink:href="#DejaVuSans-67" transform="translate(178.523438 0)"/>
      <use xlink:href="#DejaVuSans-69" transform="translate(242 0)"/>
      <use xlink:href="#DejaVuSans-74" transform="translate(269.783203 0)"/>
      <use xlink:href="#DejaVuSans-75" transform="translate(308.992188 0)"/>
      <use xlink:href="#DejaVuSans-64" transform="translate(372.371094 0)"/>
      <use xlink:href="#DejaVuSans-65" transform="translate(435.847656 0)"/>
      <use xlink:href="#DejaVuSans-20" transform="translate(497.371094 0)"/>
      <use xlink:href="#DejaVuSans-28" transform="translate(529.158203 0)"/>
      <use xlink:href="#DejaVuSans-b0" transform="translate(568.171875 0)"/>
      <use xlink:href="#DejaVuSans-29" transform="translate(618.171875 0)"/>
     </g>
    </g>
   </g>
   <g id="matplotlib.axis_2">
    <g id="ytick_1">
     <g id="line2d_17">
      <path d="M 125.456629 733.856493 
L 612.543371 733.856493 
" clip-path="url(#pf4878906da)" style="fill: none; stroke: #b0b0b0; stroke-width: 0.8; stroke-linecap: square"/>
     </g>
     <g id="line2d_18">
      <defs>
       <path id="me0adfd6158" d="M 0 0 
L -3.5 0 
" style="stroke: #000000; stroke-width: 0.8"/>
      </defs>
      <g>
       <use xlink:href="#me0adfd6158" x="125.456629" y="733.856493" style="stroke: #000000; stroke-width: 0.8"/>
      </g>
     </g>
     <g id="text_10">
      <!-- 16.1 -->
      <g transform="translate(87.811316 737.655711) scale(0.1 -0.1)">
       <defs>
        <path id="DejaVuSans-36" d="M 2113 2584 
Q 1688 2584 1439 2293 
Q 1191 2003 1191 1497 
Q 1191 994 1439 701 
Q 1688 409 2113 409 
Q 2538 409 2786 701 
Q 3034 994 3034 1497 
Q 3034 2003 2786 2293 
Q 2538 2584 2113 2584 
z
M 3366 4563 
L 3366 3988 
Q 3128 4100 2886 4159 
Q 2644 4219 2406 4219 
Q 1781 4219 1451 3797 
Q 1122 3375 1075 2522 
Q 1259 2794 1537 2939 
Q 1816 3084 2150 3084 
Q 2853 3084 3261 2657 
Q 3669 2231 3669 1497 
Q 3669 778 3244 343 
Q 2819 -91 2113 -91 
Q 1303 -91 875 529 
Q 447 1150 447 2328 
Q 447 3434 972 4092 
Q 1497 4750 2381 4750 
Q 2619 4750 2861 4703 
Q 3103 4656 3366 4563 
z
" transform="scale(0.015625)"/>
       </defs>
       <use xlink:href="#DejaVuSans-2212"/>
       <use xlink:href="#DejaVuSans-31" transform="translate(83.789062 0)"/>
       <use xlink:href="#DejaVuSans-36" transform="translate(147.412109 0)"/>
       <use xlink:href="#DejaVuSans-2e" transform="translate(211.035156 0)"/>
       <use xlink:href="#DejaVuSans-31" transform="translate(242.822266 0)"/>
      </g>
     </g>
    </g>
    <g id="ytick_2">
     <g id="line2d_19">
      <path d="M 125.456629 600.141533 
L 612.543371 600.141533 
" clip-path="url(#pf4878906da)" style="fill: none; stroke: #b0b0b0; stroke-width: 0.8; stroke-linecap: square"/>
     </g>
     <g id="line2d_20">
      <g>
       <use xlink:href="#me0adfd6158" x="125.456629" y="600.141533" style="stroke: #000000; stroke-width: 0.8"/>
      </g>
     </g>
     <g id="text_11">
      <!-- 16.0 -->
      <g transform="translate(87.811316 603.940752) scale(0.1 -0.1)">
       <use xlink:href="#DejaVuSans-2212"/>
       <use xlink:href="#DejaVuSans-31" transform="translate(83.789062 0)"/>
       <use xlink:href="#DejaVuSans-36" transform="translate(147.412109 0)"/>
       <use xlink:href="#DejaVuSans-2e" transform="translate(211.035156 0)"/>
       <use xlink:href="#DejaVuSans-30" transform="translate(242.822266 0)"/>
      </g>
     </g>
    </g>
    <g id="ytick_3">
     <g id="line2d_21">
      <path d="M 125.456629 466.426573 
L 612.543371 466.426573 
" clip-path="url(#pf4878906da)" style="fill: none; stroke: #b0b0b0; stroke-width: 0.8; stroke-linecap: square"/>
     </g>
     <g id="line2d_22">
      <g>
       <use xlink:href="#me0adfd6158" x="125.456629" y="466.426573" style="stroke: #000000; stroke-width: 0.8"/>
      </g>
     </g>
     <g id="text_12">
      <!-- 15.9 -->
      <g transform="translate(87.811316 470.225792) scale(0.1 -0.1)">
       <defs>
        <path id="DejaVuSans-39" d="M 703 97 
L 703 672 
Q 941 559 1184 500 
Q 1428 441 1663 441 
Q 2288 441 2617 861 
Q 2947 1281 2994 2138 
Q 2813 1869 2534 1725 
Q 2256 1581 1919 1581 
Q 1219 1581 811 2004 
Q 403 2428 403 3163 
Q 403 3881 828 4315 
Q 1253 4750 1959 4750 
Q 2769 4750 3195 4129 
Q 3622 3509 3622 2328 
Q 3622 1225 3098 567 
Q 2575 -91 1691 -91 
Q 1453 -91 1209 -44 
Q 966 3 703 97 
z
M 1959 2075 
Q 2384 2075 2632 2365 
Q 2881 2656 2881 3163 
Q 2881 3666 2632 3958 
Q 2384 4250 1959 4250 
Q 1534 4250 1286 3958 
Q 1038 3666 1038 3163 
Q 1038 2656 1286 2365 
Q 1534 2075 1959 2075 
z
" transform="scale(0.015625)"/>
       </defs>
       <use xlink:href="#DejaVuSans-2212"/>
       <use xlink:href="#DejaVuSans-31" transform="translate(83.789062 0)"/>
       <use xlink:href="#DejaVuSans-35" transform="translate(147.412109 0)"/>
       <use xlink:href="#DejaVuSans-2e" transform="translate(211.035156 0)"/>
       <use xlink:href="#DejaVuSans-39" transform="translate(242.822266 0)"/>
      </g>
     </g>
    </g>
    <g id="ytick_4">
     <g id="line2d_23">
      <path d="M 125.456629 332.711613 
L 612.543371 332.711613 
" clip-path="url(#pf4878906da)" style="fill: none; stroke: #b0b0b0; stroke-width: 0.8; stroke-linecap: square"/>
     </g>
     <g id="line2d_24">
      <g>
       <use xlink:href="#me0adfd6158" x="125.456629" y="332.711613" style="stroke: #000000; stroke-width: 0.8"/>
      </g>
     </g>
     <g id="text_13">
      <!-- 15.8 -->
      <g transform="translate(87.811316 336.510832) scale(0.1 -0.1)">
       <defs>
        <path id="DejaVuSans-38" d="M 2034 2216 
Q 1584 2216 1326 1975 
Q 1069 1734 1069 1313 
Q 1069 891 1326 650 
Q 1584 409 2034 409 
Q 2484 409 2743 651 
Q 3003 894 3003 1313 
Q 3003 1734 2745 1975 
Q 2488 2216 2034 2216 
z
M 1403 2484 
Q 997 2584 770 2862 
Q 544 3141 544 3541 
Q 544 4100 942 4425 
Q 1341 4750 2034 4750 
Q 2731 4750 3128 4425 
Q 3525 4100 3525 3541 
Q 3525 3141 3298 2862 
Q 3072 2584 2669 2484 
Q 3125 2378 3379 2068 
Q 3634 1759 3634 1313 
Q 3634 634 3220 271 
Q 2806 -91 2034 -91 
Q 1263 -91 848 271 
Q 434 634 434 1313 
Q 434 1759 690 2068 
Q 947 2378 1403 2484 
z
M 1172 3481 
Q 1172 3119 1398 2916 
Q 1625 2713 2034 2713 
Q 2441 2713 2670 2916 
Q 2900 3119 2900 3481 
Q 2900 3844 2670 4047 
Q 2441 4250 2034 4250 
Q 1625 4250 1398 4047 
Q 1172 3844 1172 3481 
z
" transform="scale(0.015625)"/>
       </defs>
       <use xlink:href="#DejaVuSans-2212"/>
       <use xlink:href="#DejaVuSans-31" transform="translate(83.789062 0)"/>
       <use xlink:href="#DejaVuSans-35" transform="translate(147.412109 0)"/>
       <use xlink:href="#DejaVuSans-2e" transform="translate(211.035156 0)"/>
       <use xlink:href="#DejaVuSans-38" transform="translate(242.822266 0)"/>
      </g>
     </g>
    </g>
    <g id="ytick_5">
     <g id="line2d_25">
      <path d="M 125.456629 198.996654 
L 612.543371 198.996654 
" clip-path="url(#pf4878906da)" style="fill: none; stroke: #b0b0b0; stroke-width: 0.8; stroke-linecap: square"/>
     </g>
     <g id="line2d_26">
      <g>
       <use xlink:href="#me0adfd6158" x="125.456629" y="198.996654" style="stroke: #000000; stroke-width: 0.8"/>
      </g>
     </g>
     <g id="text_14">
      <!-- 15.7 -->
      <g transform="translate(87.811316 202.795872) scale(0.1 -0.1)">
       <use xlink:href="#DejaVuSans-2212"/>
       <use xlink:href="#DejaVuSans-31" transform="translate(83.789062 0)"/>
       <use xlink:href="#DejaVuSans-35" transform="translate(147.412109 0)"/>
       <use xlink:href="#DejaVuSans-2e" transform="translate(211.035156 0)"/>
       <use xlink:href="#DejaVuSans-37" transform="translate(242.822266 0)"/>
      </g>
     </g>
    </g>
    <g id="text_15">
     <!-- Latitude () -->
     <g transform="translate(81.731629 464.889531) rotate(-90) scale(0.1 -0.1)">
      <defs>
       <path id="DejaVuSans-61" d="M 2194 1759 
Q 1497 1759 1228 1600 
Q 959 1441 959 1056 
Q 959 750 1161 570 
Q 1363 391 1709 391 
Q 2188 391 2477 730 
Q 2766 1069 2766 1631 
L 2766 1759 
L 2194 1759 
z
M 3341 1997 
L 3341 0 
L 2766 0 
L 2766 531 
Q 2569 213 2275 61 
Q 1981 -91 1556 -91 
Q 1019 -91 701 211 
Q 384 513 384 1019 
Q 384 1609 779 1909 
Q 1175 2209 1959 2209 
L 2766 2209 
L 2766 2266 
Q 2766 2663 2505 2880 
Q 2244 3097 1772 3097 
Q 1472 3097 1187 3025 
Q 903 2953 641 2809 
L 641 3341 
Q 956 3463 1253 3523 
Q 1550 3584 1831 3584 
Q 2591 3584 2966 3190 
Q 3341 2797 3341 1997 
z
" transform="scale(0.015625)"/>
      </defs>
      <use xlink:href="#DejaVuSans-4c"/>
      <use xlink:href="#DejaVuSans-61" transform="translate(55.712891 0)"/>
      <use xlink:href="#DejaVuSans-74" transform="translate(116.992188 0)"/>
      <use xlink:href="#DejaVuSans-69" transform="translate(156.201172 0)"/>
      <use xlink:href="#DejaVuSans-74" transform="translate(183.984375 0)"/>
      <use xlink:href="#DejaVuSans-75" transform="translate(223.193359 0)"/>
      <use xlink:href="#DejaVuSans-64" transform="translate(286.572266 0)"/>
      <use xlink:href="#DejaVuSans-65" transform="translate(350.048828 0)"/>
      <use xlink:href="#DejaVuSans-20" transform="translate(411.572266 0)"/>
      <use xlink:href="#DejaVuSans-28" transform="translate(443.359375 0)"/>
      <use xlink:href="#DejaVuSans-b0" transform="translate(482.373047 0)"/>
      <use xlink:href="#DejaVuSans-29" transform="translate(532.373047 0)"/>
     </g>
    </g>
   </g>
   <g id="patch_3">
    <path d="M 125.456629 768.96 
L 125.456629 103.68 
" style="fill: none; stroke: #000000; stroke-width: 0.8; stroke-linejoin: miter; stroke-linecap: square"/>
   </g>
   <g id="patch_4">
    <path d="M 612.543371 768.96 
L 612.543371 103.68 
" style="fill: none; stroke: #000000; stroke-width: 0.8; stroke-linejoin: miter; stroke-linecap: square"/>
   </g>
   <g id="patch_5">
    <path d="M 125.456629 768.96 
L 612.543371 768.96 
" style="fill: none; stroke: #000000; stroke-width: 0.8; stroke-linejoin: miter; stroke-linecap: square"/>
   </g>
   <g id="patch_6">
    <path d="M 125.456629 103.68 
L 612.543371 103.68 
" style="fill: none; stroke: #000000; stroke-width: 0.8; stroke-linejoin: miter; stroke-linecap: square"/>
   </g>
   <g id="legend_1">
    <g id="patch_7">
     <path d="M 279.8375 941.307875 
L 458.1625 941.307875 
Q 460.1625 941.307875 460.1625 939.307875 
L 460.1625 909.016 
Q 460.1625 907.016 458.1625 907.016 
L 279.8375 907.016 
Q 277.8375 907.016 277.8375 909.016 
L 277.8375 939.307875 
Q 277.8375 941.307875 279.8375 941.307875 
z
" style="fill: #ffffff; opacity: 0.8; stroke: #cccccc; stroke-linejoin: miter"/>
    </g>
    <g id="text_16">
     <!-- Legenda -->
     <g transform="translate(343.280625 920.134125) scale(0.12 -0.12)">
      <use xlink:href="#DejaVuSans-4c"/>
      <use xlink:href="#DejaVuSans-65" transform="translate(53.962891 0)"/>
      <use xlink:href="#DejaVuSans-67" transform="translate(115.486328 0)"/>
      <use xlink:href="#DejaVuSans-65" transform="translate(178.962891 0)"/>
      <use xlink:href="#DejaVuSans-6e" transform="translate(240.486328 0)"/>
      <use xlink:href="#DejaVuSans-64" transform="translate(303.865234 0)"/>
      <use xlink:href="#DejaVuSans-61" transform="translate(367.341797 0)"/>
     </g>
    </g>
    <g id="patch_8">
     <path style="fill: none; stroke: #000000; stroke-linejoin: miter"/>
    </g>
    <g id="text_17">
     <!-- Gleba Federal -->
     <g transform="translate(309.8375 935.228187) scale(0.1 -0.1)">
      <defs>
       <path id="DejaVuSans-47" d="M 3809 666 
L 3809 1919 
L 2778 1919 
L 2778 2438 
L 4434 2438 
L 4434 434 
Q 4069 175 3628 42 
Q 3188 -91 2688 -91 
Q 1594 -91 976 548 
Q 359 1188 359 2328 
Q 359 3472 976 4111 
Q 1594 4750 2688 4750 
Q 3144 4750 3555 4637 
Q 3966 4525 4313 4306 
L 4313 3634 
Q 3963 3931 3569 4081 
Q 3175 4231 2741 4231 
Q 1884 4231 1454 3753 
Q 1025 3275 1025 2328 
Q 1025 1384 1454 906 
Q 1884 428 2741 428 
Q 3075 428 3337 486 
Q 3600 544 3809 666 
z
" transform="scale(0.015625)"/>
       <path id="DejaVuSans-6c" d="M 603 4863 
L 1178 4863 
L 1178 0 
L 603 0 
L 603 4863 
z
" transform="scale(0.015625)"/>
       <path id="DejaVuSans-62" d="M 3116 1747 
Q 3116 2381 2855 2742 
Q 2594 3103 2138 3103 
Q 1681 3103 1420 2742 
Q 1159 2381 1159 1747 
Q 1159 1113 1420 752 
Q 1681 391 2138 391 
Q 2594 391 2855 752 
Q 3116 1113 3116 1747 
z
M 1159 2969 
Q 1341 3281 1617 3432 
Q 1894 3584 2278 3584 
Q 2916 3584 3314 3078 
Q 3713 2572 3713 1747 
Q 3713 922 3314 415 
Q 2916 -91 2278 -91 
Q 1894 -91 1617 61 
Q 1341 213 1159 525 
L 1159 0 
L 581 0 
L 581 4863 
L 1159 4863 
L 1159 2969 
z
" transform="scale(0.015625)"/>
       <path id="DejaVuSans-46" d="M 628 4666 
L 3309 4666 
L 3309 4134 
L 1259 4134 
L 1259 2759 
L 3109 2759 
L 3109 2228 
L 1259 2228 
L 1259 0 
L 628 0 
L 628 4666 
z
" transform="scale(0.015625)"/>
       <path id="DejaVuSans-72" d="M 2631 2963 
Q 2534 3019 2420 3045 
Q 2306 3072 2169 3072 
Q 1681 3072 1420 2755 
Q 1159 2438 1159 1844 
L 1159 0 
L 581 0 
L 581 3500 
L 1159 3500 
L 1159 2956 
Q 1341 3275 1631 3429 
Q 1922 3584 2338 3584 
Q 2397 3584 2469 3576 
Q 2541 3569 2628 3553 
L 2631 2963 
z
" transform="scale(0.015625)"/>
      </defs>
      <use xlink:href="#DejaVuSans-47"/>
      <use xlink:href="#DejaVuSans-6c" transform="translate(77.490234 0)"/>
      <use xlink:href="#DejaVuSans-65" transform="translate(105.273438 0)"/>
      <use xlink:href="#DejaVuSans-62" transform="translate(166.796875 0)"/>
      <use xlink:href="#DejaVuSans-61" transform="translate(230.273438 0)"/>
      <use xlink:href="#DejaVuSans-20" transform="translate(291.552734 0)"/>
      <use xlink:href="#DejaVuSans-46" transform="translate(323.339844 0)"/>
      <use xlink:href="#DejaVuSans-65" transform="translate(375.359375 0)"/>
      <use xlink:href="#DejaVuSans-64" transform="translate(436.882812 0)"/>
      <use xlink:href="#DejaVuSans-65" transform="translate(500.359375 0)"/>
      <use xlink:href="#DejaVuSans-72" transform="translate(561.882812 0)"/>
      <use xlink:href="#DejaVuSans-61" transform="translate(602.996094 0)"/>
      <use xlink:href="#DejaVuSans-6c" transform="translate(664.275391 0)"/>
     </g>
    </g>
    <g id="patch_9">
     <path d="M 399.045312 935.228187 
L 419.045312 935.228187 
L 419.045312 928.228187 
L 399.045312 928.228187 
z
" style="fill: #e0bd1f; opacity: 0.6"/>
    </g>
    <g id="text_18">
     <!-- SIGEF -->
     <g transform="translate(427.045312 935.228187) scale(0.1 -0.1)">
      <defs>
       <path id="DejaVuSans-53" d="M 3425 4513 
L 3425 3897 
Q 3066 4069 2747 4153 
Q 2428 4238 2131 4238 
Q 1616 4238 1336 4038 
Q 1056 3838 1056 3469 
Q 1056 3159 1242 3001 
Q 1428 2844 1947 2747 
L 2328 2669 
Q 3034 2534 3370 2195 
Q 3706 1856 3706 1288 
Q 3706 609 3251 259 
Q 2797 -91 1919 -91 
Q 1588 -91 1214 -16 
Q 841 59 441 206 
L 441 856 
Q 825 641 1194 531 
Q 1563 422 1919 422 
Q 2459 422 2753 634 
Q 3047 847 3047 1241 
Q 3047 1584 2836 1778 
Q 2625 1972 2144 2069 
L 1759 2144 
Q 1053 2284 737 2584 
Q 422 2884 422 3419 
Q 422 4038 858 4394 
Q 1294 4750 2059 4750 
Q 2388 4750 2728 4690 
Q 3069 4631 3425 4513 
z
" transform="scale(0.015625)"/>
       <path id="DejaVuSans-49" d="M 628 4666 
L 1259 4666 
L 1259 0 
L 628 0 
L 628 4666 
z
" transform="scale(0.015625)"/>
       <path id="DejaVuSans-45" d="M 628 4666 
L 3578 4666 
L 3578 4134 
L 1259 4134 
L 1259 2753 
L 3481 2753 
L 3481 2222 
L 1259 2222 
L 1259 531 
L 3634 531 
L 3634 0 
L 628 0 
L 628 4666 
z
" transform="scale(0.015625)"/>
      </defs>
      <use xlink:href="#DejaVuSans-53"/>
      <use xlink:href="#DejaVuSans-49" transform="translate(63.476562 0)"/>
      <use xlink:href="#DejaVuSans-47" transform="translate(92.96875 0)"/>
      <use xlink:href="#DejaVuSans-45" transform="translate(170.458984 0)"/>
      <use xlink:href="#DejaVuSans-46" transform="translate(233.642578 0)"/>
     </g>
    </g>
   </g>
  </g>
 </g>
 <defs>
  <clipPath id="pf4878906da">
   <rect x="125.456629" y="103.68" width="487.086743" height="665.28"/>
  </clipPath>
 </defs>
</svg>
