<?xml version="1.0" encoding="utf-8" standalone="no"?>
<!DOCTYPE svg PUBLIC "-//W3C//DTD SVG 1.1//EN"
  "http://www.w3.org/Graphics/SVG/1.1/DTD/svg11.dtd">
<svg xmlns:xlink="http://www.w3.org/1999/xlink" width="720pt" height="864pt" viewBox="0 0 720 864" xmlns="http://www.w3.org/2000/svg" version="1.1">
 <metadata>
  <rdf:RDF xmlns:dc="http://purl.org/dc/elements/1.1/" xmlns:cc="http://creativecommons.org/ns#" xmlns:rdf="http://www.w3.org/1999/02/22-rdf-syntax-ns#">
   <cc:Work>
    <dc:type rdf:resource="http://purl.org/dc/dcmitype/StillImage"/>
    <dc:date>2025-06-16T17:44:05.058481</dc:date>
    <dc:format>image/svg+xml</dc:format>
    <dc:creator>
     <cc:Agent>
      <dc:title>Matplotlib v3.10.1, https://matplotlib.org/</dc:title>
     </cc:Agent>
    </dc:creator>
   </cc:Work>
  </rdf:RDF>
 </metadata>
 <defs>
  <style type="text/css">*{stroke-linejoin: round; stroke-linecap: butt}</style>
 </defs>
 <g id="figure_1">
  <g id="patch_1">
   <path d="M 0 864 
L 720 864 
L 720 0 
L 0 0 
z
" style="fill: #ffffff"/>
  </g>
  <g id="axes_1">
   <g id="patch_2">
    <path d="M 90 609.542237 
L 648 609.542237 
L 648 263.097763 
L 90 263.097763 
z
" style="fill: #ffffff"/>
   </g>
   <g id="PatchCollection_1">
    <path d="M 551.07063 458.533112 
L 556.595693 462.14964 
L 558.692205 466.666432 
L 564.199264 474.676679 
L 553.243696 481.409758 
L 548.77289 483.521755 
L 544.05728 479.747949 
L 544.393669 479.65605 
L 545.703218 479.036138 
L 546.11773 478.64987 
L 546.033606 476.617325 
L 546.728929 475.024034 
L 548.100058 470.848317 
L 548.116602 464.091856 
L 546.61934 462.78514 
L 551.07063 458.533112 
" clip-path="url(#p9b3ad64ea8)" style="fill: #e0bd1f; stroke: #0000ff; stroke-width: 0.5"/>
    <path d="M 595.708356 341.256039 
L 595.984679 343.202965 
L 600.272261 346.204235 
L 599.025805 351.755186 
L 600.033513 352.675691 
L 599.069327 352.720884 
L 546.527701 355.013482 
L 545.085964 344.318089 
L 593.680939 341.377543 
L 595.708356 341.256039 
" clip-path="url(#p9b3ad64ea8)" style="fill: #e0bd1f; stroke: #0000ff; stroke-width: 0.5"/>
    <path d="M 605.65919 374.807837 
L 604.436738 378.458625 
L 607.224086 384.227633 
L 605.888964 385.19176 
L 605.432444 386.185437 
L 604.466798 386.171419 
L 550.7357 385.375502 
L 549.369113 375.398145 
L 604.65451 374.817201 
L 605.65919 374.807837 
" clip-path="url(#p9b3ad64ea8)" style="fill: #e0bd1f; stroke: #0000ff; stroke-width: 0.5"/>
    <path d="M 550.7357 385.375502 
L 604.466798 386.171419 
L 605.432444 386.185437 
L 604.713062 386.959486 
L 604.13641 392.527594 
L 606.328995 395.335759 
L 612.990925 394.581951 
L 613.178691 396.1005 
L 611.971216 397.918128 
L 611.382508 397.919698 
L 567.318513 398.013111 
L 566.668226 392.862446 
L 551.767466 392.976156 
L 550.7357 385.375502 
" clip-path="url(#p9b3ad64ea8)" style="fill: #e0bd1f; stroke: #0000ff; stroke-width: 0.5"/>
    <path d="M 559.294429 450.681768 
L 581.094408 464.333295 
L 565.058295 474.148666 
L 559.603785 466.236542 
L 557.507274 461.721376 
L 551.812502 457.816703 
L 559.294429 450.681768 
" clip-path="url(#p9b3ad64ea8)" style="fill: #e0bd1f; stroke: #0000ff; stroke-width: 0.5"/>
    <path d="M 611.971216 397.918128 
L 611.702407 398.323068 
L 614.461208 398.99434 
L 618.464952 404.634106 
L 617.080307 406.303709 
L 617.729081 406.795893 
L 617.023269 406.806827 
L 553.787369 407.764674 
L 552.510853 397.985076 
L 567.318513 398.013111 
L 611.382508 397.919698 
L 611.971216 397.918128 
" clip-path="url(#p9b3ad64ea8)" style="fill: #e0bd1f; stroke: #0000ff; stroke-width: 0.5"/>
    <path d="M 617.729081 406.795893 
L 619.352528 408.045026 
L 620.334717 413.43399 
L 620.498424 414.672188 
L 620.695111 415.222013 
L 620.303144 415.226667 
L 555.063885 416.971067 
L 553.787369 407.764674 
L 617.023269 406.806827 
L 617.729081 406.795893 
" clip-path="url(#p9b3ad64ea8)" style="fill: #e0bd1f; stroke: #0000ff; stroke-width: 0.5"/>
    <path d="M 620.695111 415.222013 
L 621.746394 418.372822 
L 618.92304 420.472371 
L 619.393077 424.355233 
L 619.080692 424.363027 
L 556.317856 426.015529 
L 555.063885 416.971067 
L 620.303144 415.226667 
L 620.695111 415.222013 
" clip-path="url(#p9b3ad64ea8)" style="fill: #e0bd1f; stroke: #0000ff; stroke-width: 0.5"/>
    <path d="M 619.393077 424.355233 
L 619.606361 426.074739 
L 620.729658 430.543198 
L 619.492177 430.931036 
L 618.20966 429.571333 
L 617.990428 429.998084 
L 618.278754 431.458993 
L 619.035656 432.25648 
L 619.067176 432.524327 
L 616.475109 432.692538 
L 557.722072 436.419693 
L 556.317856 426.015529 
L 619.080692 424.363027 
L 619.393077 424.355233 
" clip-path="url(#p9b3ad64ea8)" style="fill: #e0bd1f; stroke: #0000ff; stroke-width: 0.5"/>
    <path d="M 619.067176 432.524327 
L 619.119781 433.081945 
L 619.627338 434.178398 
L 619.163303 435.248442 
L 619.54024 435.806004 
L 619.173845 437.084742 
L 617.861268 439.654608 
L 618.891466 440.400678 
L 618.968076 440.805617 
L 617.214008 441.300885 
L 616.437535 440.173257 
L 615.354786 440.110963 
L 614.754076 441.068811 
L 614.833658 441.565649 
L 615.845853 442.814781 
L 615.359273 443.232224 
L 608.429994 443.563935 
L 558.989559 445.922024 
L 557.722072 436.419693 
L 616.475109 432.692538 
L 619.067176 432.524327 
" clip-path="url(#p9b3ad64ea8)" style="fill: #e0bd1f; stroke: #0000ff; stroke-width: 0.5"/>
    <path d="M 615.359273 443.232224 
L 614.184885 444.236778 
L 613.70582 444.781892 
L 613.007469 444.749203 
L 612.99844 446.11827 
L 612.570466 446.319169 
L 612.130435 446.010783 
L 610.335766 443.830268 
L 609.781605 444.105966 
L 609.439215 443.995395 
L 608.55618 444.004703 
L 608.249797 444.2259 
L 609.990348 445.515515 
L 610.103018 446.594866 
L 608.912086 445.750673 
L 608.108634 446.013923 
L 607.985476 446.48581 
L 608.776925 447.907806 
L 609.927309 448.871934 
L 610.334306 448.999662 
L 609.793661 449.926334 
L 609.684019 449.368772 
L 609.212468 449.033921 
L 608.694315 449.524535 
L 608.611704 450.06808 
L 609.361146 450.81415 
L 609.108827 451.114742 
L 607.509438 449.854732 
L 606.522762 449.985544 
L 605.752343 451.013479 
L 604.549409 451.955795 
L 605.340804 452.419945 
L 605.466991 453.161305 
L 603.738442 452.70495 
L 603.286355 453.693972 
L 602.687159 453.228253 
L 602.07596 453.538209 
L 600.987156 451.963589 
L 600.161159 452.282853 
L 599.796224 452.416805 
L 599.767678 452.203458 
L 598.812521 451.997848 
L 598.410065 452.256388 
L 597.306231 453.468121 
L 598.701418 454.028823 
L 597.937001 454.757736 
L 597.348293 454.114499 
L 596.390163 454.25002 
L 596.576361 454.690788 
L 597.156094 455.516254 
L 597.093001 456.310601 
L 596.050746 456.517724 
L 595.944131 457.153168 
L 597.168096 457.484935 
L 596.779103 457.875857 
L 594.772716 458.081466 
L 581.094408 464.333295 
L 559.294429 450.681768 
L 559.530204 449.832921 
L 558.989559 445.922024 
L 608.429994 443.563935 
L 615.359273 443.232224 
" clip-path="url(#p9b3ad64ea8)" style="fill: #e0bd1f; stroke: #0000ff; stroke-width: 0.5"/>
    <path d="M 435.312621 349.400237 
L 438.817782 356.599036 
L 416.092705 380.277823 
L 413.814483 382.651443 
L 412.449355 380.210819 
L 411.082714 380.192148 
L 410.891975 380.766867 
L 410.95058 382.520631 
L 410.013427 381.639096 
L 408.962198 380.648503 
L 407.089459 380.488086 
L 405.655237 377.768681 
L 403.755466 375.815531 
L 403.377015 374.933995 
L 403.081174 373.507345 
L 400.164721 372.346972 
L 398.856631 372.943503 
L 398.026147 375.198759 
L 397.823405 375.549198 
L 397.239239 375.757947 
L 394.927983 374.415346 
L 396.263051 372.579046 
L 435.312621 349.400237 
" clip-path="url(#p9b3ad64ea8)" style="fill: #e0bd1f; stroke: #0000ff; stroke-width: 0.5"/>
    <path d="M 388.862221 353.741025 
L 389.754285 372.58998 
L 389.97503 375.022811 
L 389.164063 375.396575 
L 388.123322 377.681436 
L 386.249124 377.7998 
L 382.629778 378.094169 
L 380.500233 374.767355 
L 374.910617 378.161172 
L 374.078619 377.868374 
L 373.917885 375.750153 
L 372.322984 375.089758 
L 371.189144 374.145928 
L 371.424919 371.114997 
L 370.86027 369.862781 
L 369.474111 369.920421 
L 368.202083 373.061867 
L 367.274012 374.79382 
L 366.230244 374.944929 
L 364.863602 373.563415 
L 363.454953 371.748927 
L 359.197376 358.183019 
L 388.862221 353.741025 
" clip-path="url(#p9b3ad64ea8)" style="fill: #e0bd1f; stroke: #0000ff; stroke-width: 0.5"/>
    <path d="M 494.93069 360.206257 
L 495.259564 361.020789 
L 495.540428 361.692118 
L 495.993975 363.341479 
L 496.232724 364.271347 
L 496.898041 365.556252 
L 497.192368 366.190182 
L 497.489723 367.568556 
L 497.854658 367.409709 
L 498.701686 369.340992 
L 498.954004 370.32536 
L 498.308204 371.440541 
L 498.405845 372.468476 
L 498.895399 372.423283 
L 499.062133 372.767498 
L 498.536465 373.315753 
L 498.031881 373.64595 
L 497.826166 374.142789 
L 496.265757 374.253359 
L 457.898049 376.790536 
L 454.292219 369.112057 
L 452.910602 366.959578 
L 494.504175 360.276345 
L 494.93069 360.206257 
" clip-path="url(#p9b3ad64ea8)" style="fill: #e0bd1f; stroke: #0000ff; stroke-width: 0.5"/>
    <path d="M 601.443676 364.20126 
L 602.365799 365.25409 
L 604.740094 369.376821 
L 608.002019 368.070104 
L 610.550564 371.241155 
L 605.905508 374.068047 
L 605.65919 374.807837 
L 604.65451 374.817201 
L 549.369113 375.398145 
L 547.952894 365.152883 
L 599.808226 364.229295 
L 601.443676 364.20126 
" clip-path="url(#p9b3ad64ea8)" style="fill: #e0bd1f; stroke: #0000ff; stroke-width: 0.5"/>
    <path d="M 434.426558 347.556144 
L 435.312621 349.400237 
L 396.263051 372.579046 
L 394.927983 374.415346 
L 392.295314 374.745543 
L 389.97503 375.022811 
L 389.754285 372.58998 
L 388.862221 353.741025 
L 434.426558 347.556144 
" clip-path="url(#p9b3ad64ea8)" style="fill: #e0bd1f; stroke: #0000ff; stroke-width: 0.5"/>
    <path d="M 546.146276 359.457047 
L 547.754694 371.515282 
L 500.798197 373.884249 
L 497.826166 374.142789 
L 498.153526 373.747213 
L 498.634105 373.434117 
L 499.243844 372.797103 
L 498.987038 372.262866 
L 498.541006 372.303405 
L 498.462883 371.4748 
L 499.114684 370.348685 
L 498.845875 369.291145 
L 497.931267 367.208754 
L 497.597851 367.355209 
L 497.336558 366.141906 
L 497.033202 365.489304 
L 496.373886 364.216791 
L 496.139625 363.302566 
L 495.852813 362.260557 
L 495.980459 362.25282 
L 546.146276 359.457047 
" clip-path="url(#p9b3ad64ea8)" style="fill: #e0bd1f; stroke: #0000ff; stroke-width: 0.5"/>
    <path d="M 438.640558 347.101359 
L 452.787443 368.624526 
L 446.131514 369.168127 
L 435.437239 347.447144 
L 438.640558 347.101359 
" clip-path="url(#p9b3ad64ea8)" style="fill: #e0bd1f; stroke: #0000ff; stroke-width: 0.5"/>
    <path d="M 494.232339 350.775528 
L 494.727948 351.501357 
L 494.591273 352.432739 
L 494.588299 352.748919 
L 494.29846 353.65849 
L 494.112208 354.357797 
L 494.487685 354.745635 
L 494.565754 355.446513 
L 494.600302 355.990057 
L 494.372041 356.60997 
L 494.448597 357.547576 
L 494.706917 358.257817 
L 494.791041 359.862042 
L 494.93069 360.206257 
L 494.504175 360.276345 
L 452.910602 366.959578 
L 444.650742 354.374955 
L 493.356819 350.839392 
L 494.232339 350.775528 
" clip-path="url(#p9b3ad64ea8)" style="fill: #e0bd1f; stroke: #0000ff; stroke-width: 0.5"/>
    <path d="M 600.033513 352.675691 
L 600.734837 353.306481 
L 603.143733 352.892178 
L 602.909418 356.72054 
L 600.602703 363.033093 
L 601.443676 364.20126 
L 599.808226 364.229295 
L 547.952894 365.152883 
L 546.527701 355.013482 
L 599.069327 352.720884 
L 600.033513 352.675691 
" clip-path="url(#p9b3ad64ea8)" style="fill: #e0bd1f; stroke: #0000ff; stroke-width: 0.5"/>
    <path d="M 544.54532 348.087297 
L 546.146276 359.457047 
L 495.980459 362.25282 
L 495.852813 362.260557 
L 495.683105 361.642271 
L 495.399266 360.963205 
L 494.941178 359.827783 
L 494.857108 358.228212 
L 494.598788 357.514887 
L 494.525206 356.631781 
L 494.753466 356.011869 
L 494.717459 355.434009 
L 494.631821 354.677061 
L 494.280402 354.312605 
L 494.442596 353.700542 
L 494.738436 352.772244 
L 494.742978 352.445186 
L 494.885654 351.463958 
L 494.472655 350.858063 
L 496.708816 350.735045 
L 544.54532 348.087297 
" clip-path="url(#p9b3ad64ea8)" style="fill: #e0bd1f; stroke: #0000ff; stroke-width: 0.5"/>
    <path d="M 498.112978 339.608192 
L 496.728333 341.986522 
L 496.22975 342.307356 
L 496.2763 342.618882 
L 495.692079 342.928838 
L 495.061363 344.185708 
L 495.268592 346.079647 
L 494.795528 346.442534 
L 493.885461 347.191688 
L 494.522178 347.375486 
L 494.079174 349.529535 
L 493.648172 349.920457 
L 494.232339 350.775528 
L 493.356819 350.839392 
L 444.650742 354.374955 
L 438.995005 346.045388 
L 497.02266 339.743713 
L 498.112978 339.608192 
" clip-path="url(#p9b3ad64ea8)" style="fill: #e0bd1f; stroke: #0000ff; stroke-width: 0.5"/>
    <path d="M 543.558643 334.284661 
L 544.85619 343.656181 
L 543.991159 343.735632 
L 544.54532 348.087297 
L 496.708816 350.735045 
L 494.472655 350.858063 
L 493.847887 349.943838 
L 494.215849 349.608987 
L 494.715945 347.258692 
L 494.214335 347.137188 
L 494.873597 346.554674 
L 495.427758 346.146651 
L 495.217556 344.213743 
L 495.80475 343.040978 
L 496.450496 342.712351 
L 496.393458 342.382153 
L 496.840949 342.094008 
L 498.302203 339.584866 
L 543.558643 334.284661 
" clip-path="url(#p9b3ad64ea8)" style="fill: #e0bd1f; stroke: #0000ff; stroke-width: 0.5"/>
    <path d="M 489.395084 458.416317 
L 489.615829 459.03466 
L 491.521601 459.660796 
L 492.337109 459.439599 
L 484.73051 481.478332 
L 490.465884 480.17156 
L 488.795887 483.520185 
L 487.080854 488.200534 
L 486.34947 490.680071 
L 486.109154 492.978949 
L 475.778355 494.802801 
L 469.865811 481.277376 
L 474.429771 482.057706 
L 473.375514 464.563799 
L 473.099136 460.006525 
L 474.147392 460.710542 
L 476.616354 462.582671 
L 478.004026 462.640255 
L 478.397453 463.04054 
L 478.813479 462.598202 
L 478.829969 462.197973 
L 482.145959 461.766513 
L 482.917891 462.176162 
L 483.071056 461.394262 
L 485.244122 459.29006 
L 486.250316 459.581344 
L 486.73841 458.735637 
L 487.408215 458.649962 
L 488.848438 459.188853 
L 489.395084 458.416317 
" clip-path="url(#p9b3ad64ea8)" style="fill: #e0bd1f; stroke: #0000ff; stroke-width: 0.5"/>
    <path d="M 496.516562 408.130701 
L 496.557111 408.604158 
L 496.740335 409.086978 
L 496.707302 409.496627 
L 496.851492 410.138295 
L 496.869495 410.563531 
L 496.376914 410.794036 
L 496.394917 411.334497 
L 496.26127 411.74723 
L 497.0212 411.80016 
L 497.180366 412.371796 
L 497.488263 412.993222 
L 497.599365 413.524319 
L 497.305038 413.581959 
L 496.73136 413.444923 
L 496.495531 415.133254 
L 496.211693 415.432276 
L 496.016466 415.413605 
L 495.579463 414.648863 
L 494.990755 414.742276 
L 494.658853 415.566228 
L 494.451624 415.92446 
L 494.203847 416.422868 
L 494.191791 416.983571 
L 494.302947 417.505304 
L 494.369014 418.280979 
L 493.397367 419.542559 
L 493.041461 419.595489 
L 491.704825 420.609407 
L 492.236495 421.001898 
L 492.64798 421.677881 
L 492.442211 421.961316 
L 492.676526 422.65911 
L 492.858237 423.417627 
L 493.334274 423.525058 
L 493.717267 424.040624 
L 494.224824 424.581084 
L 494.313436 424.922159 
L 493.972559 425.697779 
L 494.322464 426.021752 
L 494.244395 426.216428 
L 494.774497 426.753805 
L 495.080881 426.878393 
L 495.031303 427.087086 
L 495.232531 427.742828 
L 495.815238 427.635341 
L 496.385943 427.739688 
L 497.489723 428.124385 
L 498.122006 428.407876 
L 498.553008 428.706899 
L 498.601072 429.73018 
L 499.479619 431.335975 
L 499.766431 433.075721 
L 499.838553 433.899617 
L 500.024751 434.25628 
L 500.614973 434.231385 
L 501.020456 435.458705 
L 501.661715 438.368133 
L 502.547777 439.424103 
L 502.406615 439.860217 
L 502.48171 441.540754 
L 502.708457 442.188645 
L 503.582517 446.423516 
L 505.809648 448.054262 
L 505.688003 448.462285 
L 504.03455 449.825127 
L 502.637903 449.884281 
L 500.608972 450.798562 
L 500.032266 452.379406 
L 498.896912 452.768814 
L 498.504945 452.687792 
L 498.503431 452.039901 
L 498.513974 450.387399 
L 498.027394 449.399947 
L 491.041076 440.129634 
L 479.645477 421.704346 
L 475.481 413.37635 
L 495.696621 408.33474 
L 496.516562 408.130701 
" clip-path="url(#p9b3ad64ea8)" style="fill: #e0bd1f; stroke: #0000ff; stroke-width: 0.5"/>
    <path d="M 494.230879 450.549386 
L 494.927662 451.083567 
L 497.030175 453.284323 
L 497.317041 453.315498 
L 497.243459 454.39328 
L 496.32885 467.706871 
L 496.027009 469.121074 
L 490.465884 480.17156 
L 484.73051 481.478332 
L 492.337109 459.439599 
L 491.521601 459.660796 
L 492.051757 457.922619 
L 490.761725 456.491259 
L 490.806761 455.701566 
L 492.212437 454.260898 
L 493.305728 453.912029 
L 495.644016 453.109889 
L 493.79685 450.835961 
L 494.230879 450.549386 
" clip-path="url(#p9b3ad64ea8)" style="fill: #e0bd1f; stroke: #0000ff; stroke-width: 0.5"/>
    <path d="M 539.119356 474.424363 
L 540.681225 475.805877 
L 539.723094 477.554931 
L 539.973899 478.371089 
L 541.351029 478.713734 
L 543.222254 477.435053 
L 544.380153 476.85254 
L 545.299249 477.16872 
L 545.348826 478.330606 
L 545.27519 478.397554 
L 544.132375 478.939585 
L 542.415829 479.406818 
L 547.739664 483.666584 
L 546.197313 483.881557 
L 487.122862 493.837104 
L 487.346635 490.848281 
L 488.076505 488.057218 
L 505.917777 485.917187 
L 521.585982 483.224302 
L 537.284192 475.419609 
L 539.119356 474.424363 
" clip-path="url(#p9b3ad64ea8)" style="fill: #e0bd1f; stroke: #0000ff; stroke-width: 0.5"/>
    <path d="M 493.158565 477.178027 
L 505.917777 485.917187 
L 488.076505 488.057218 
L 489.713469 483.939198 
L 493.158565 477.178027 
" clip-path="url(#p9b3ad64ea8)" style="fill: #e0bd1f; stroke: #0000ff; stroke-width: 0.5"/>
    <path d="M 553.626689 413.966657 
L 554.861143 422.811733 
L 498.878909 428.546482 
L 498.700172 428.624363 
L 498.195588 428.275495 
L 497.545301 427.98421 
L 496.624691 427.721016 
L 495.815238 427.481148 
L 495.337687 427.568337 
L 495.189009 427.082433 
L 495.25659 426.786494 
L 494.860081 426.624507 
L 494.421564 426.180599 
L 494.501201 425.98127 
L 494.15427 425.658866 
L 494.472655 424.934607 
L 494.361499 424.506287 
L 493.832857 423.942501 
L 493.422886 423.389592 
L 492.984369 423.289899 
L 492.822176 422.617057 
L 492.611919 421.987837 
L 492.829691 421.684105 
L 492.349112 420.897552 
L 491.958658 420.607893 
L 493.101527 419.740319 
L 493.479978 419.682735 
L 494.393073 418.497466 
L 494.833049 418.463207 
L 553.626689 413.966657 
" clip-path="url(#p9b3ad64ea8)" style="fill: #e0bd1f; stroke: #0000ff; stroke-width: 0.5"/>
    <path d="M 550.731213 393.055608 
L 552.135375 402.933273 
L 496.792886 407.459428 
L 496.711789 406.406542 
L 496.250781 405.652678 
L 495.110886 405.331844 
L 492.814661 398.664143 
L 492.35814 397.446185 
L 492.63295 397.477361 
L 550.731213 393.055608 
" clip-path="url(#p9b3ad64ea8)" style="fill: #e0bd1f; stroke: #0000ff; stroke-width: 0.5"/>
    <path d="M 495.008759 473.524156 
L 514.338317 481.015753 
L 514.868473 480.534446 
L 521.585982 483.224302 
L 505.917777 485.917187 
L 493.158565 477.178027 
L 495.008759 473.524156 
" clip-path="url(#p9b3ad64ea8)" style="fill: #e0bd1f; stroke: #0000ff; stroke-width: 0.5"/>
    <path d="M 552.273564 403.931659 
L 553.626689 413.966657 
L 494.833049 418.463207 
L 494.393073 418.497466 
L 494.523692 418.327686 
L 494.453138 417.483493 
L 494.343495 416.969553 
L 494.353984 416.461781 
L 494.585272 415.996118 
L 494.794015 415.634746 
L 495.098884 414.879368 
L 495.501394 414.815504 
L 495.924881 415.556864 
L 496.268785 415.591123 
L 496.638207 415.203341 
L 496.859007 413.631805 
L 497.302011 413.737722 
L 497.779562 413.644253 
L 497.630885 412.941805 
L 497.323042 412.315725 
L 497.138304 411.6569 
L 496.465525 411.608624 
L 496.548136 411.356308 
L 496.531592 410.889019 
L 497.025687 410.658514 
L 497.001683 410.118053 
L 496.859007 409.485694 
L 496.893554 409.065167 
L 496.705788 408.569899 
L 496.698273 408.48114 
L 496.773368 408.474916 
L 552.273564 403.931659 
" clip-path="url(#p9b3ad64ea8)" style="fill: #e0bd1f; stroke: #0000ff; stroke-width: 0.5"/>
    <path d="M 507.871613 447.86424 
L 508.012775 447.900069 
L 508.445291 448.158609 
L 508.473837 448.228696 
L 508.529415 449.630452 
L 508.901865 452.07102 
L 510.223417 452.566344 
L 513.582928 455.45239 
L 515.024665 455.253004 
L 517.065598 454.362161 
L 514.942054 457.329172 
L 505.187907 476.360355 
L 495.429272 472.606735 
L 496.994168 469.446562 
L 497.329043 467.847047 
L 498.25414 454.45092 
L 498.323234 453.455674 
L 498.944976 453.555366 
L 500.617946 452.982161 
L 501.208168 451.360834 
L 502.815072 450.638145 
L 504.318388 450.572712 
L 506.317259 448.924864 
L 506.486968 448.496544 
L 507.871613 447.86424 
" clip-path="url(#p9b3ad64ea8)" style="fill: #e0bd1f; stroke: #0000ff; stroke-width: 0.5"/>
    <path d="M 554.861143 422.811733 
L 556.103112 431.951177 
L 502.568808 439.880458 
L 502.718999 439.391414 
L 501.799903 438.298045 
L 501.166106 435.418167 
L 500.723102 434.074052 
L 500.114876 434.100517 
L 499.98723 433.855995 
L 499.916622 433.056994 
L 499.625269 431.284559 
L 498.751263 429.688127 
L 498.700172 428.624363 
L 498.878909 428.546482 
L 554.861143 422.811733 
" clip-path="url(#p9b3ad64ea8)" style="fill: #e0bd1f; stroke: #0000ff; stroke-width: 0.5"/>
    <path d="M 556.103112 431.951177 
L 557.324103 441.185661 
L 511.231124 451.370142 
L 509.965097 451.658287 
L 509.580644 451.513458 
L 509.28329 449.557224 
L 509.223224 448.068279 
L 509.052002 447.635249 
L 508.301155 447.188257 
L 507.798031 447.063669 
L 505.89826 447.931188 
L 503.719192 446.336327 
L 502.85416 442.148162 
L 502.631847 441.511148 
L 502.568808 439.880458 
L 556.103112 431.951177 
" clip-path="url(#p9b3ad64ea8)" style="fill: #e0bd1f; stroke: #0000ff; stroke-width: 0.5"/>
    <path d="M 517.065598 454.362161 
L 517.600242 455.039657 
L 517.199246 455.446166 
L 516.925896 456.986527 
L 519.04944 457.51297 
L 521.958432 457.631334 
L 522.41944 457.562817 
L 519.740275 461.461266 
L 508.608998 477.744953 
L 505.187907 476.360355 
L 514.942054 457.329172 
L 517.065598 454.362161 
" clip-path="url(#p9b3ad64ea8)" style="fill: #e0bd1f; stroke: #0000ff; stroke-width: 0.5"/>
    <path d="M 522.41944 457.562817 
L 523.289012 457.749699 
L 524.506976 458.232519 
L 524.499462 458.88826 
L 523.682493 459.054901 
L 523.264954 460.768182 
L 524.688687 461.630991 
L 526.234012 460.747885 
L 527.117046 460.498709 
L 527.608168 461.269674 
L 525.121203 464.079409 
L 511.882925 479.040792 
L 508.608998 477.744953 
L 519.740275 461.461266 
L 522.41944 457.562817 
" clip-path="url(#p9b3ad64ea8)" style="fill: #e0bd1f; stroke: #0000ff; stroke-width: 0.5"/>
    <path d="M 557.324103 441.185661 
L 558.500005 449.769057 
L 558.399337 450.139737 
L 545.854923 462.123175 
L 541.170832 458.100137 
L 534.219008 466.261493 
L 534.134938 466.644621 
L 533.414096 464.923602 
L 532.953034 463.975062 
L 532.158557 464.242966 
L 530.779914 466.543414 
L 529.574006 466.619726 
L 528.617335 465.094896 
L 528.280946 464.73044 
L 529.170036 464.518607 
L 529.724197 463.908114 
L 529.832326 462.877039 
L 528.621877 461.451903 
L 527.451976 459.615603 
L 525.941144 460.03927 
L 524.699176 460.751025 
L 524.131499 460.40681 
L 524.302721 459.704362 
L 525.247335 459.511257 
L 525.268366 457.893014 
L 523.436176 457.003684 
L 522.445012 456.763816 
L 521.917884 456.869733 
L 519.156055 456.756022 
L 517.795469 456.418031 
L 517.902084 455.813706 
L 518.607895 455.095727 
L 517.296832 453.432292 
L 514.820409 454.513214 
L 513.817189 454.651819 
L 510.61241 451.899725 
L 509.965097 451.658287 
L 511.231124 451.370142 
L 557.324103 441.185661 
" clip-path="url(#p9b3ad64ea8)" style="fill: #e0bd1f; stroke: #0000ff; stroke-width: 0.5"/>
    <path d="M 527.608168 461.269674 
L 528.013651 461.906688 
L 529.036335 463.110628 
L 528.994327 463.585711 
L 528.76904 463.833317 
L 527.382881 464.423624 
L 526.753625 465.10426 
L 527.411427 465.93438 
L 529.138462 467.706871 
L 515.090732 480.335117 
L 511.882925 479.040792 
L 525.121203 464.079409 
L 527.608168 461.269674 
" clip-path="url(#p9b3ad64ea8)" style="fill: #e0bd1f; stroke: #0000ff; stroke-width: 0.5"/>
    <path d="M 541.170832 458.100137 
L 545.854923 462.123175 
L 546.61934 462.78514 
L 548.116602 464.091856 
L 548.100058 470.848317 
L 546.728929 475.024034 
L 546.033606 476.617325 
L 544.326088 476.030158 
L 542.879864 476.759071 
L 541.218896 477.631299 
L 541.346542 476.894592 
L 541.463645 475.548907 
L 540.012934 473.801367 
L 538.254325 471.329624 
L 537.276677 470.675453 
L 535.836454 470.142786 
L 535.504553 469.837539 
L 534.977424 469.019811 
L 534.424777 467.733336 
L 534.134938 466.644621 
L 534.219008 466.261493 
L 541.170832 458.100137 
" clip-path="url(#p9b3ad64ea8)" style="fill: #e0bd1f; stroke: #0000ff; stroke-width: 0.5"/>
    <path d="M 532.564041 464.906444 
L 532.727748 465.239782 
L 532.826848 467.026235 
L 533.908137 470.31722 
L 534.818258 471.370106 
L 535.605167 471.63644 
L 536.654936 471.539887 
L 537.443358 472.335748 
L 539.119356 474.424363 
L 537.284192 475.419609 
L 521.585982 483.224302 
L 514.868473 480.534446 
L 515.090732 480.335117 
L 529.138462 467.706871 
L 531.222972 467.276981 
L 532.564041 464.906444 
" clip-path="url(#p9b3ad64ea8)" style="fill: #e0bd1f; stroke: #0000ff; stroke-width: 0.5"/>
    <path d="M 170.510899 278.845239 
L 171.059058 278.924691 
L 172.048708 281.454074 
L 175.181473 281.944688 
L 173.786286 284.189067 
L 176.397924 284.919493 
L 177.537765 283.992821 
L 178.153505 284.243567 
L 177.129308 285.746529 
L 178.710693 287.219942 
L 180.715566 286.844608 
L 181.666181 287.679438 
L 181.780311 288.998601 
L 184.970114 289.29297 
L 184.871014 288.070359 
L 187.122204 288.518921 
L 188.565401 290.291356 
L 190.456197 291.677524 
L 192.570712 290.093541 
L 192.800486 291.694681 
L 194.508004 291.936064 
L 197.041519 290.401927 
L 197.131644 288.490886 
L 199.16955 286.930227 
L 199.166576 285.187397 
L 201.629483 282.866707 
L 200.300416 281.184601 
L 200.226834 279.87166 
L 205.468059 280.486863 
L 203.88516 285.956792 
L 204.942445 286.986298 
L 206.342119 286.522204 
L 208.093213 285.012963 
L 209.096379 285.952139 
L 207.762825 288.202741 
L 209.378758 291.744528 
L 212.319216 295.167895 
L 215.091533 295.832943 
L 217.147496 295.814272 
L 217.736204 298.51809 
L 219.246982 300.848144 
L 224.190906 302.503729 
L 224.790102 303.935089 
L 226.400034 304.053453 
L 229.809068 302.603422 
L 228.498005 301.271754 
L 229.094228 300.676793 
L 230.049385 302.287242 
L 233.422413 304.572103 
L 234.832576 303.796484 
L 235.341701 301.883873 
L 234.835603 299.513336 
L 235.135932 299.14731 
L 238.268697 304.755901 
L 240.91034 303.780896 
L 242.368567 304.745023 
L 243.763754 304.132905 
L 244.63776 307.603034 
L 245.552369 308.849026 
L 245.761112 311.37998 
L 247.722462 314.552601 
L 249.149169 315.614851 
L 248.246563 317.127177 
L 248.306629 318.907406 
L 249.65824 319.441643 
L 247.959751 319.982104 
L 248.595008 321.731158 
L 250.583337 323.009895 
L 250.018688 323.455317 
L 247.848594 323.220158 
L 246.867919 324.363374 
L 246.148592 327.392679 
L 246.603598 328.750868 
L 247.180304 329.816202 
L 246.98059 330.803654 
L 249.757394 331.594861 
L 248.03782 332.756748 
L 247.684887 334.821982 
L 250.406168 337.10533 
L 254.626169 334.63667 
L 255.686427 332.353379 
L 257.002032 331.775519 
L 258.750098 329.62304 
L 259.747263 330.165071 
L 258.283035 332.368911 
L 258.413709 334.711412 
L 259.822358 335.15061 
L 258.984359 336.036856 
L 259.525004 337.27197 
L 260.905161 337.619269 
L 261.387254 338.042936 
L 261.571938 341.36818 
L 263.001673 342.009903 
L 264.131026 341.263833 
L 264.536509 339.787336 
L 265.9497 339.897906 
L 266.364158 340.516249 
L 265.04558 343.762097 
L 265.153709 346.707353 
L 268.992285 348.174487 
L 268.339025 348.845759 
L 268.46067 350.749062 
L 269.366249 351.845515 
L 270.819989 351.801949 
L 271.368148 351.174243 
L 271.276509 349.401807 
L 271.630955 349.249184 
L 271.964371 350.029513 
L 271.237474 352.962266 
L 272.553079 354.133517 
L 274.089375 357.106808 
L 276.20389 356.189443 
L 278.345437 358.200177 
L 280.69124 358.391713 
L 282.041392 357.757839 
L 284.002688 360.2436 
L 284.684495 363.177978 
L 288.589192 366.25556 
L 289.020194 367.221257 
L 286.298968 368.091859 
L 285.591588 369.029522 
L 285.472971 370.26772 
L 286.120231 371.482593 
L 284.294041 372.864107 
L 284.615455 374.317223 
L 290.011358 378.323159 
L 290.093968 379.760743 
L 290.898934 382.061136 
L 290.918451 384.319532 
L 289.017167 384.827304 
L 288.897035 386.889398 
L 291.46061 387.65571 
L 292.89029 386.316248 
L 293.115577 386.933021 
L 292.493836 387.403394 
L 290.796806 389.878277 
L 295.52896 390.245873 
L 298.118053 388.650956 
L 298.935021 387.313065 
L 300.689089 386.831814 
L 302.626435 388.764666 
L 304.020054 387.582538 
L 304.290376 387.742955 
L 302.857668 390.244303 
L 305.290569 391.03708 
L 306.073044 389.853382 
L 306.697759 389.834654 
L 306.158628 392.342226 
L 307.768559 393.209801 
L 309.267334 392.186519 
L 309.689307 392.130449 
L 311.399853 392.759669 
L 313.020327 391.948221 
L 312.653878 390.167992 
L 313.461817 387.577828 
L 313.733653 385.581112 
L 314.281813 385.160585 
L 315.79259 385.805393 
L 317.666843 385.000168 
L 318.449264 383.266646 
L 318.087356 382.047118 
L 320.21236 382.196658 
L 321.595545 381.43814 
L 322.028061 379.422752 
L 323.043229 378.538076 
L 323.948809 378.494454 
L 327.808416 380.019283 
L 329.577568 378.819997 
L 329.648122 377.253115 
L 331.364668 375.59439 
L 331.926344 374.392021 
L 331.959377 372.931055 
L 333.395113 372.147642 
L 334.820306 371.923361 
L 335.577209 372.572823 
L 334.869829 373.415446 
L 335.144693 374.96674 
L 335.847531 375.346728 
L 337.248666 375.142689 
L 338.112237 374.628749 
L 339.421787 373.831319 
L 340.094565 372.440441 
L 339.726656 371.258313 
L 338.561243 370.828422 
L 339.522401 370.798817 
L 341.04372 371.197532 
L 341.428173 371.547971 
L 341.324531 374.42314 
L 343.167264 380.00678 
L 343.87459 381.167153 
L 345.486035 381.782355 
L 346.226394 382.059622 
L 347.160519 381.271499 
L 348.109621 379.913367 
L 348.519646 380.49117 
L 348.000032 382.086087 
L 347.707165 383.70119 
L 347.702678 386.398784 
L 348.729902 387.037367 
L 355.513478 384.610817 
L 356.797509 382.827448 
L 356.259838 381.160929 
L 357.318637 380.464705 
L 358.119061 381.277723 
L 359.55777 380.682762 
L 360.197569 380.17813 
L 361.247285 378.717165 
L 361.441052 377.28272 
L 359.984285 376.042952 
L 360.308671 375.558561 
L 361.781928 374.865478 
L 362.291053 373.459068 
L 363.049469 373.837542 
L 364.767476 375.611548 
L 366.650757 376.394961 
L 367.553309 375.916794 
L 369.492115 372.920178 
L 369.999726 371.018444 
L 370.445758 371.26919 
L 370.05379 373.211406 
L 370.547885 375.253315 
L 373.016847 376.644137 
L 373.356264 379.310612 
L 377.323946 378.391677 
L 378.164973 377.527243 
L 379.313843 376.194005 
L 380.775097 376.329527 
L 380.88474 377.879251 
L 382.394003 379.031831 
L 388.267512 378.834015 
L 389.740769 377.273357 
L 389.985572 378.025651 
L 399.639052 411.945045 
L 412.802288 458.612563 
L 417.37825 475.008446 
L 419.512282 485.801962 
L 421.237804 494.562933 
L 423.233701 504.652431 
L 388.591899 510.404338 
L 392.2938 531.321611 
L 394.277696 542.526289 
L 377.511712 546.549327 
L 342.200105 554.987894 
L 320.900222 559.962612 
L 277.59459 570.265513 
L 276.896239 570.402549 
L 264.584572 573.32134 
L 243.95298 578.208756 
L 232.877227 580.826954 
L 198.241479 589.019429 
L 177.935733 593.794761 
L 173.535481 558.425335 
L 173.326738 556.67314 
L 173.051928 555.237126 
L 172.005186 551.781014 
L 170.470351 548.569425 
L 169.479187 547.002599 
L 168.632159 545.728571 
L 166.423031 543.348671 
L 119.158691 496.04257 
L 117.686894 494.600276 
L 116.87144 493.765502 
L 116.093507 491.465054 
L 115.545347 489.941794 
L 115.408672 488.675561 
L 115.363636 487.041731 
L 115.892279 484.81451 
L 119.061051 471.477593 
L 130.986751 422.959702 
L 138.719483 391.484072 
L 139.877381 385.782011 
L 140.832484 374.580473 
L 143.369026 344.684116 
L 144.316668 333.267604 
L 146.754056 306.863188 
L 149.039793 305.782322 
L 149.843245 304.449085 
L 148.686861 303.016154 
L 150.067018 302.724926 
L 150.974112 303.889953 
L 152.237112 305.034682 
L 153.744915 305.011357 
L 155.450919 304.917888 
L 155.862404 304.315133 
L 156.032112 303.578427 
L 155.671719 302.561369 
L 154.992885 302.310623 
L 154.862211 302.066101 
L 156.862596 301.394828 
L 156.945207 299.884016 
L 156.737978 299.51799 
L 158.340394 299.314007 
L 158.879525 298.63337 
L 159.169365 299.257936 
L 159.887233 299.940087 
L 161.126228 300.243819 
L 159.269979 301.78575 
L 160.091488 304.04723 
L 161.761485 303.807361 
L 163.119098 302.861961 
L 163.593622 301.675179 
L 165.374775 302.288812 
L 166.364425 299.303073 
L 164.661395 298.6318 
L 164.134266 296.688014 
L 167.270005 295.457609 
L 165.410836 292.070015 
L 167.681544 292.50299 
L 168.376867 291.6168 
L 169.956738 288.646649 
L 169.844122 287.414618 
L 167.600447 285.273072 
L 166.074586 284.983357 
L 166.194771 284.674971 
L 168.551062 284.91641 
L 169.501678 284.573765 
L 170.998993 284.721734 
L 171.740865 283.734225 
L 170.986936 282.598803 
L 171.159672 281.508574 
L 170.510899 278.845239 
" clip-path="url(#p9b3ad64ea8)" style="fill: #e0bd1f; stroke: #0000ff; stroke-width: 0.5"/>
    <path d="M 415.235189 457.916339 
L 415.92597 460.356964 
L 420.769281 458.980159 
L 440.354131 501.864508 
L 423.233701 504.652431 
L 421.237804 494.562933 
L 419.512282 485.801962 
L 417.37825 475.008446 
L 412.802288 458.612563 
L 415.235189 457.916339 
" clip-path="url(#p9b3ad64ea8)" style="fill: #e0bd1f; stroke: #0000ff; stroke-width: 0.5"/>
    <path d="M 596.628965 327.761845 
L 594.664587 330.929812 
L 595.682837 332.407879 
L 592.474977 335.46836 
L 592.562075 336.016614 
L 594.374748 338.429203 
L 596.423196 338.711068 
L 595.708356 341.256039 
L 595.984679 343.202965 
L 600.272261 346.204235 
L 599.025805 351.755186 
L 600.033513 352.675691 
L 600.734837 353.306481 
L 603.143733 352.892178 
L 602.909418 356.72054 
L 600.602703 363.033093 
L 601.443676 364.20126 
L 602.365799 365.25409 
L 604.740094 369.376821 
L 608.002019 368.070104 
L 610.550564 371.241155 
L 605.905508 374.068047 
L 605.65919 374.807837 
L 604.436738 378.458625 
L 607.224086 384.227633 
L 605.888964 385.19176 
L 605.432444 386.185437 
L 604.713062 386.959486 
L 604.13641 392.527594 
L 606.328995 395.335759 
L 612.990925 394.581951 
L 613.178691 396.1005 
L 611.971216 397.918128 
L 611.702407 398.323068 
L 614.461208 398.99434 
L 618.464952 404.634106 
L 617.080307 406.303709 
L 617.729081 406.795893 
L 619.352528 408.045026 
L 620.334717 413.43399 
L 620.498424 414.672188 
L 620.695111 415.222013 
L 621.746394 418.372822 
L 618.92304 420.472371 
L 619.393077 424.355233 
L 619.606361 426.074739 
L 620.729658 430.543198 
L 619.492177 430.931036 
L 618.20966 429.571333 
L 617.990428 429.998084 
L 618.278754 431.458993 
L 619.035656 432.25648 
L 619.067176 432.524327 
L 619.119781 433.081945 
L 619.627338 434.178398 
L 619.163303 435.248442 
L 619.54024 435.806004 
L 619.173845 437.084742 
L 617.861268 439.654608 
L 618.891466 440.400678 
L 618.968076 440.805617 
L 617.214008 441.300885 
L 616.437535 440.173257 
L 615.354786 440.110963 
L 614.754076 441.068811 
L 614.833658 441.565649 
L 615.845853 442.814781 
L 615.359273 443.232224 
L 614.184885 444.236778 
L 613.70582 444.781892 
L 613.007469 444.749203 
L 612.99844 446.11827 
L 612.570466 446.319169 
L 612.130435 446.010783 
L 610.335766 443.830268 
L 609.781605 444.105966 
L 609.439215 443.995395 
L 608.55618 444.004703 
L 608.249797 444.2259 
L 609.990348 445.515515 
L 610.103018 446.594866 
L 608.912086 445.750673 
L 608.108634 446.013923 
L 607.985476 446.48581 
L 608.776925 447.907806 
L 609.927309 448.871934 
L 610.334306 448.999662 
L 609.793661 449.926334 
L 609.684019 449.368772 
L 609.212468 449.033921 
L 608.694315 449.524535 
L 608.611704 450.06808 
L 609.361146 450.81415 
L 609.108827 451.114742 
L 607.509438 449.854732 
L 606.522762 449.985544 
L 605.752343 451.013479 
L 604.549409 451.955795 
L 605.340804 452.419945 
L 605.466991 453.161305 
L 603.738442 452.70495 
L 603.286355 453.693972 
L 602.687159 453.228253 
L 602.07596 453.538209 
L 600.987156 451.963589 
L 600.161159 452.282853 
L 599.796224 452.416805 
L 599.767678 452.203458 
L 598.812521 451.997848 
L 598.410065 452.256388 
L 597.306231 453.468121 
L 598.701418 454.028823 
L 597.937001 454.757736 
L 597.348293 454.114499 
L 596.390163 454.25002 
L 596.576361 454.690788 
L 597.156094 455.516254 
L 597.093001 456.310601 
L 596.050746 456.517724 
L 595.944131 457.153168 
L 597.168096 457.484935 
L 596.779103 457.875857 
L 594.772716 458.081466 
L 581.094408 464.333295 
L 565.058295 474.148666 
L 564.199264 474.676679 
L 553.243696 481.409758 
L 548.77289 483.521755 
L 547.739664 483.666584 
L 546.197313 483.881557 
L 487.122862 493.837104 
L 486.109154 494.006885 
L 464.605015 497.758935 
L 459.186567 498.712129 
L 458.860666 498.769769 
L 440.354131 501.864508 
L 423.233701 504.652431 
L 421.237804 494.562933 
L 419.512282 485.801962 
L 417.37825 475.008446 
L 412.802288 458.612563 
L 399.639052 411.945045 
L 389.985572 378.025651 
L 389.512508 376.407408 
L 389.164063 375.396575 
L 388.123322 377.681436 
L 386.249124 377.7998 
L 382.629778 378.094169 
L 380.500233 374.767355 
L 374.910617 378.161172 
L 374.078619 377.868374 
L 373.917885 375.750153 
L 372.322984 375.089758 
L 371.189144 374.145928 
L 371.424919 371.114997 
L 370.86027 369.862781 
L 369.474111 369.920421 
L 368.202083 373.061867 
L 367.274012 374.79382 
L 366.230244 374.944929 
L 364.863602 373.563415 
L 363.454953 371.748927 
L 362.550833 371.561989 
L 361.474085 371.424953 
L 359.901674 371.973208 
L 360.631544 373.730056 
L 359.781543 374.33281 
L 358.158095 375.323403 
L 357.314095 376.630119 
L 358.48551 376.941645 
L 360.409285 377.765541 
L 359.472186 379.49441 
L 356.489612 379.243608 
L 355.753741 379.460095 
L 354.932285 380.391533 
L 355.294193 381.466175 
L 355.181577 382.933364 
L 354.887196 383.830488 
L 350.043939 385.839652 
L 349.178908 385.954932 
L 349.040773 383.648259 
L 349.695548 380.251358 
L 349.395166 379.416528 
L 347.858816 378.7452 
L 345.944069 380.707657 
L 344.745622 380.671884 
L 342.327751 373.843766 
L 342.210594 371.016874 
L 341.862202 370.488861 
L 341.183369 370.180475 
L 337.645174 369.943746 
L 337.664692 371.01379 
L 338.522208 372.16166 
L 338.444139 373.301735 
L 336.194409 374.541504 
L 335.945117 373.705161 
L 336.855239 372.323647 
L 334.120442 370.772352 
L 332.708765 371.301879 
L 331.405217 372.044809 
L 330.652802 372.90302 
L 330.759471 374.529056 
L 329.38484 375.74845 
L 329.281325 375.460959 
L 324.053123 365.085825 
L 325.889256 364.274561 
L 340.340882 359.628397 
L 345.932067 358.695445 
L 351.512708 358.047554 
L 358.896994 357.215808 
L 433.629107 346.613884 
L 434.911624 346.486156 
L 438.995005 346.045388 
L 497.02266 339.743713 
L 498.112978 339.608192 
L 498.302203 339.584866 
L 543.558643 334.284661 
L 569.126645 331.006124 
L 595.813457 327.858398 
L 596.628965 327.761845 
" clip-path="url(#p9b3ad64ea8)" style="fill: #e0bd1f; stroke: #0000ff; stroke-width: 0.5"/>
    <path d="M 425.617025 457.600215 
L 458.860666 498.769769 
L 440.354131 501.864508 
L 420.769281 458.980159 
L 425.617025 457.600215 
" clip-path="url(#p9b3ad64ea8)" style="fill: #e0bd1f; stroke: #0000ff; stroke-width: 0.5"/>
    <path d="M 429.225827 456.578448 
L 456.381216 469.979229 
L 458.378628 476.383737 
L 459.009343 479.497147 
L 460.230335 484.507637 
L 464.605015 497.758935 
L 459.186567 498.712129 
L 458.860666 498.769769 
L 425.617025 457.600215 
L 429.225827 456.578448 
" clip-path="url(#p9b3ad64ea8)" style="fill: #e0bd1f; stroke: #0000ff; stroke-width: 0.5"/>
    <path d="M 471.639396 459.198217 
L 472.367806 459.51434 
L 473.099136 460.006525 
L 473.375514 464.563799 
L 474.429771 482.057706 
L 469.865811 481.277376 
L 475.778355 494.802801 
L 470.227719 495.776236 
L 464.828788 480.233854 
L 459.991533 479.276006 
L 459.551502 477.000509 
L 459.435858 476.33389 
L 459.829339 475.030258 
L 461.491821 474.337174 
L 461.718568 473.890126 
L 463.098725 473.32634 
L 464.535975 472.355989 
L 465.792973 471.128668 
L 466.761592 470.097593 
L 467.719723 469.297079 
L 467.904461 468.186552 
L 467.440426 467.893753 
L 467.461457 467.563556 
L 466.743589 466.730296 
L 466.642975 466.312854 
L 466.890752 465.73662 
L 466.84869 464.920462 
L 467.135556 464.30526 
L 467.844395 462.130969 
L 467.832393 459.959818 
L 469.16146 459.219972 
L 470.829943 459.313441 
L 471.639396 459.198217 
" clip-path="url(#p9b3ad64ea8)" style="fill: #e0bd1f; stroke: #0000ff; stroke-width: 0.5"/>
    <path d="M 475.384874 449.393667 
L 475.584642 449.410825 
L 475.62665 449.510517 
L 475.563611 450.267465 
L 476.349059 451.826498 
L 476.230388 453.070976 
L 476.150805 454.260898 
L 477.545938 455.848021 
L 479.549351 456.583158 
L 482.042317 455.382302 
L 482.725638 455.492873 
L 484.383633 456.361961 
L 486.866056 456.471017 
L 487.810725 456.846351 
L 489.333504 458.243453 
L 488.79286 459.006625 
L 487.426218 458.494199 
L 486.645311 458.593892 
L 486.178248 459.40377 
L 485.202114 459.118765 
L 483.213732 461.048534 
L 482.932867 461.316381 
L 482.808248 461.945657 
L 482.174505 461.61075 
L 478.685833 462.064021 
L 478.664802 462.535908 
L 478.395994 462.820969 
L 478.070093 462.490772 
L 476.668904 462.433131 
L 474.23449 460.587468 
L 472.439874 459.380445 
L 471.660427 459.040884 
L 470.823942 459.160818 
L 469.126912 459.067349 
L 467.682202 459.871059 
L 467.69269 462.107588 
L 466.994394 464.249189 
L 466.697039 464.889343 
L 466.737588 465.710099 
L 466.483755 466.298836 
L 466.6054 466.803468 
L 467.306778 467.616486 
L 467.284233 467.974719 
L 467.739294 468.261293 
L 467.580074 469.216057 
L 466.659465 469.985453 
L 465.686304 471.021238 
L 464.441362 472.237625 
L 463.026657 473.190818 
L 461.610439 473.770192 
L 461.382179 474.218754 
L 459.704667 474.918117 
L 459.356275 476.128281 
L 457.2117 469.286145 
L 430.64356 456.170425 
L 435.338139 454.857429 
L 472.171066 452.120866 
L 473.645836 452.2408 
L 475.529063 451.597563 
L 475.216679 449.714557 
L 475.384874 449.393667 
" clip-path="url(#p9b3ad64ea8)" style="fill: #e0bd1f; stroke: #0000ff; stroke-width: 0.5"/>
    <path d="M 433.942952 449.969957 
L 435.338139 454.857429 
L 430.64356 456.170425 
L 429.225827 456.578448 
L 425.617025 457.600215 
L 420.769281 458.980159 
L 415.92597 460.356964 
L 415.235189 457.916339 
L 414.554842 455.480425 
L 419.396638 454.117582 
L 424.250437 452.725191 
L 433.942952 449.969957 
" clip-path="url(#p9b3ad64ea8)" style="fill: #e0bd1f; stroke: #0000ff; stroke-width: 0.5"/>
    <path d="M 478.772931 422.212118 
L 490.185019 440.667011 
L 497.177392 449.949715 
L 497.533299 450.617904 
L 497.503239 451.972897 
L 497.372619 452.546103 
L 495.4323 450.515071 
L 494.262399 449.619518 
L 492.682527 450.663041 
L 494.370528 452.743862 
L 493.069953 453.18934 
L 491.805439 453.592709 
L 490.069375 455.372938 
L 489.989793 456.765386 
L 491.231761 458.14533 
L 491.072596 458.894484 
L 490.09192 458.420971 
L 488.268759 456.209338 
L 487.025276 455.717153 
L 484.583347 455.609723 
L 482.967414 454.76239 
L 481.929701 454.595749 
L 479.510316 455.759206 
L 477.984509 455.200074 
L 476.925711 453.994564 
L 476.982803 453.13327 
L 477.122451 451.680098 
L 476.335543 450.116356 
L 476.395609 449.387443 
L 476.104255 448.691276 
L 474.949384 448.594667 
L 474.429771 449.586829 
L 474.679062 451.086707 
L 473.594745 451.455817 
L 472.474422 451.228453 
L 472.208587 449.532329 
L 471.764069 448.66324 
L 470.212743 448.093175 
L 468.222846 449.636675 
L 468.234849 448.940452 
L 469.403236 446.186787 
L 469.603004 442.564035 
L 468.997752 441.497131 
L 467.329269 441.300885 
L 466.009231 440.034652 
L 464.957948 439.786989 
L 465.279361 439.0098 
L 478.772931 422.212118 
" clip-path="url(#p9b3ad64ea8)" style="fill: #e0bd1f; stroke: #0000ff; stroke-width: 0.5"/>
    <path d="M 394.768763 375.201899 
L 395.145701 375.419956 
L 397.147599 381.917877 
L 419.396638 454.117582 
L 414.554842 455.480425 
L 415.235189 457.916339 
L 412.802288 458.612563 
L 399.639052 411.945045 
L 389.985572 378.025651 
L 389.512508 376.407408 
L 390.143278 375.767255 
L 392.38544 375.500921 
L 394.768763 375.201899 
" clip-path="url(#p9b3ad64ea8)" style="fill: #e0bd1f; stroke: #0000ff; stroke-width: 0.5"/>
    <path d="M 455.990763 426.140117 
L 456.226538 426.333278 
L 456.663541 427.543442 
L 454.885469 428.976372 
L 454.691702 430.546338 
L 456.250596 431.290782 
L 458.627919 429.290982 
L 459.620596 428.884473 
L 459.710722 428.904714 
L 459.787277 429.058908 
L 459.398337 430.605492 
L 457.953627 431.896677 
L 456.430793 434.038223 
L 457.453531 435.217267 
L 459.467432 436.534917 
L 461.2275 435.323184 
L 462.055011 435.31853 
L 462.100046 435.541241 
L 461.271076 436.704698 
L 461.066821 438.363423 
L 461.559402 439.89913 
L 462.362854 441.497131 
L 464.849819 441.190315 
L 465.264331 440.64049 
L 465.636781 440.727735 
L 466.991366 442.026714 
L 468.53069 442.207372 
L 468.835559 442.746263 
L 468.656876 446.010783 
L 467.482488 448.778465 
L 467.441939 451.203501 
L 470.344877 448.949815 
L 471.227911 449.275303 
L 471.48023 449.770627 
L 471.810618 451.86855 
L 472.171066 452.120866 
L 435.338139 454.857429 
L 433.942952 449.969957 
L 455.673891 426.482762 
L 455.990763 426.140117 
" clip-path="url(#p9b3ad64ea8)" style="fill: #e0bd1f; stroke: #0000ff; stroke-width: 0.5"/>
    <path d="M 400.184238 373.172494 
L 402.309242 374.018201 
L 402.573563 375.077311 
L 403.180274 376.310855 
L 405.039497 378.221896 
L 406.614881 381.210775 
L 408.636297 381.38364 
L 411.61433 384.18401 
L 411.796094 380.961543 
L 412.004837 380.964683 
L 413.521616 383.679378 
L 413.206258 385.953362 
L 408.448585 404.609155 
L 418.495546 434.578683 
L 424.250437 452.725191 
L 419.396638 454.117582 
L 397.147599 381.917877 
L 395.145701 375.419956 
L 397.093535 376.550724 
L 398.482721 376.327957 
L 398.744015 375.438627 
L 399.454368 373.505775 
L 400.184238 373.172494 
" clip-path="url(#p9b3ad64ea8)" style="fill: #e0bd1f; stroke: #0000ff; stroke-width: 0.5"/>
    <path d="M 426.232765 415.391793 
L 427.453757 417.151781 
L 428.378854 417.18761 
L 429.156787 417.594119 
L 431.026498 417.670431 
L 432.046208 417.575392 
L 432.857175 417.662637 
L 433.779298 418.651659 
L 433.411336 420.637442 
L 436.144619 421.090714 
L 436.174624 419.498936 
L 436.321788 419.442866 
L 438.054878 418.182856 
L 438.367263 418.357291 
L 440.18891 418.880594 
L 440.337588 419.125116 
L 439.819488 421.548583 
L 441.165098 422.956562 
L 443.404232 421.528342 
L 444.918037 421.71057 
L 446.544512 421.642052 
L 448.975899 422.673127 
L 449.891967 423.179329 
L 451.91041 423.397386 
L 452.011024 423.800755 
L 452.275345 426.174375 
L 454.392833 425.135563 
L 455.098699 425.409634 
L 455.990763 426.140117 
L 455.673891 426.482762 
L 433.942952 449.969957 
L 424.250437 452.725191 
L 418.495546 434.578683 
L 427.575402 432.278235 
L 426.292831 416.151825 
L 426.232765 415.391793 
" clip-path="url(#p9b3ad64ea8)" style="fill: #e0bd1f; stroke: #0000ff; stroke-width: 0.5"/>
    <path d="M 466.841175 397.760795 
L 478.772931 422.212118 
L 465.279361 439.0098 
L 464.957948 439.786989 
L 464.439848 440.475419 
L 462.798397 440.677889 
L 462.260726 439.609415 
L 461.838753 438.290251 
L 461.997919 436.989703 
L 462.906526 435.714105 
L 462.670751 434.553788 
L 460.991725 434.564666 
L 459.456889 435.622206 
L 457.953627 434.637894 
L 457.393411 433.991516 
L 458.51979 432.409103 
L 460.074143 431.019795 
L 460.587755 428.971662 
L 460.228821 428.24275 
L 459.555989 428.090126 
L 458.232924 428.630587 
L 456.137926 430.395229 
L 455.50867 430.094636 
L 455.597281 429.376601 
L 457.558632 427.795758 
L 456.864823 425.875353 
L 455.483151 424.743071 
L 454.35834 424.306957 
L 452.907575 425.018712 
L 452.755924 423.66372 
L 452.500577 422.685575 
L 466.841175 397.760795 
" clip-path="url(#p9b3ad64ea8)" style="fill: #e0bd1f; stroke: #0000ff; stroke-width: 0.5"/>
    <path d="M 413.521616 383.679378 
L 414.900259 386.143384 
L 415.000873 386.71188 
L 413.906068 389.359627 
L 415.475451 390.862645 
L 416.523707 388.565281 
L 417.836284 391.044874 
L 417.942899 392.575871 
L 418.064544 394.167648 
L 418.95358 395.200293 
L 418.919087 395.580281 
L 417.426259 398.393155 
L 417.13496 400.209213 
L 416.745966 400.967731 
L 415.805839 401.495688 
L 415.179611 403.752514 
L 413.673321 405.657388 
L 412.146 407.107419 
L 412.171518 408.815991 
L 414.074263 409.993465 
L 414.322094 410.572839 
L 414.392648 413.167656 
L 416.630322 412.912256 
L 416.049129 409.571369 
L 416.930704 409.438987 
L 417.324185 409.943619 
L 418.83799 410.589996 
L 420.86238 410.577549 
L 421.667346 410.809623 
L 422.138896 411.345374 
L 422.141923 411.667778 
L 421.683835 412.499467 
L 422.370184 414.331113 
L 423.98909 412.592937 
L 424.71896 413.206625 
L 426.232765 415.391793 
L 426.292831 416.151825 
L 427.575402 432.278235 
L 418.495546 434.578683 
L 408.448585 404.609155 
L 413.206258 385.953362 
L 413.521616 383.679378 
" clip-path="url(#p9b3ad64ea8)" style="fill: #e0bd1f; stroke: #0000ff; stroke-width: 0.5"/>
    <path d="M 459.20457 381.855583 
L 466.841175 397.760795 
L 452.500577 422.685575 
L 450.123255 422.439483 
L 449.304773 421.987837 
L 446.681187 420.87574 
L 444.948097 420.948968 
L 443.227063 420.741789 
L 441.282202 421.981613 
L 440.643971 421.313424 
L 441.13958 418.986511 
L 440.678518 418.231133 
L 438.657102 417.648619 
L 437.9993 417.285733 
L 459.20457 381.855583 
" clip-path="url(#p9b3ad64ea8)" style="fill: #e0bd1f; stroke: #0000ff; stroke-width: 0.5"/>
    <path d="M 443.387742 365.964331 
L 445.661423 370.180475 
L 450.711963 369.750641 
L 428.577054 416.433746 
L 427.85924 416.407281 
L 425.280636 412.687976 
L 423.92751 411.549414 
L 422.649535 412.921564 
L 422.506859 412.540006 
L 422.898826 411.74566 
L 422.892825 411.054146 
L 422.086345 410.141435 
L 420.967481 409.815891 
L 418.989641 409.828395 
L 417.798709 409.320623 
L 417.255091 408.621315 
L 443.387742 365.964331 
" clip-path="url(#p9b3ad64ea8)" style="fill: #e0bd1f; stroke: #0000ff; stroke-width: 0.5"/>
    <path d="M 463.580818 388.683645 
L 494.772983 389.696049 
L 496.288302 389.870483 
L 493.999591 394.088197 
L 492.741079 395.745408 
L 492.335595 396.584891 
L 492.35814 397.446185 
L 492.814661 398.664143 
L 495.110886 405.331844 
L 496.250781 405.652678 
L 496.711789 406.406542 
L 496.792886 407.459428 
L 495.596007 407.325477 
L 475.028967 412.466779 
L 463.580818 388.683645 
" clip-path="url(#p9b3ad64ea8)" style="fill: #e0bd1f; stroke: #0000ff; stroke-width: 0.5"/>
    <path d="M 438.817782 356.599036 
L 443.387742 365.964331 
L 417.255091 408.621315 
L 415.170582 408.934355 
L 415.747287 412.248721 
L 415.125546 412.320379 
L 415.072995 410.407768 
L 414.675027 409.471676 
L 412.919392 408.387671 
L 412.905876 407.429823 
L 414.230455 406.172897 
L 415.865905 404.106093 
L 416.448612 402.00503 
L 417.313643 401.51907 
L 417.861802 400.450652 
L 418.153156 398.640817 
L 419.657932 395.803048 
L 419.736055 394.947977 
L 418.798902 393.860832 
L 418.696774 392.519801 
L 418.578157 390.8299 
L 416.789542 387.45167 
L 416.031126 387.82235 
L 415.229188 389.577684 
L 414.802673 389.169605 
L 415.784808 386.797555 
L 415.621155 385.883274 
L 413.814483 382.651443 
L 416.092705 380.277823 
L 438.817782 356.599036 
" clip-path="url(#p9b3ad64ea8)" style="fill: #e0bd1f; stroke: #0000ff; stroke-width: 0.5"/>
    <path d="M 358.896994 357.215808 
L 359.197376 358.183019 
L 363.454953 371.748927 
L 362.550833 371.561989 
L 361.474085 371.424953 
L 359.901674 371.973208 
L 360.631544 373.730056 
L 359.781543 374.33281 
L 358.158095 375.323403 
L 357.314095 376.630119 
L 358.48551 376.941645 
L 360.409285 377.765541 
L 359.472186 379.49441 
L 356.489612 379.243608 
L 355.753741 379.460095 
L 354.932285 380.391533 
L 355.294193 381.466175 
L 355.181577 382.933364 
L 354.887196 383.830488 
L 350.043939 385.839652 
L 349.178908 385.954932 
L 349.040773 383.648259 
L 349.695548 380.251358 
L 349.395166 379.416528 
L 347.858816 378.7452 
L 345.944069 380.707657 
L 344.745622 380.671884 
L 342.327751 373.843766 
L 342.210594 371.016874 
L 341.862202 370.488861 
L 341.183369 370.180475 
L 337.645174 369.943746 
L 337.664692 371.01379 
L 338.522208 372.16166 
L 338.444139 373.301735 
L 336.194409 374.541504 
L 335.945117 373.705161 
L 336.855239 372.323647 
L 334.120442 370.772352 
L 332.708765 371.301879 
L 331.405217 372.044809 
L 330.652802 372.90302 
L 330.759471 374.529056 
L 329.38484 375.74845 
L 329.281325 375.460959 
L 324.053123 365.085825 
L 325.889256 364.274561 
L 340.340882 359.628397 
L 345.932067 358.695445 
L 351.512708 358.047554 
L 358.896994 357.215808 
" clip-path="url(#p9b3ad64ea8)" style="fill: #e0bd1f; stroke: #0000ff; stroke-width: 0.5"/>
    <path d="M 566.668226 392.862446 
L 567.318513 398.013111 
L 552.510853 397.985076 
L 551.767466 392.976156 
L 566.668226 392.862446 
" clip-path="url(#p9b3ad64ea8)" style="fill: #e0bd1f; stroke: #0000ff; stroke-width: 0.5"/>
    <path d="M 453.34009 369.459356 
L 459.20457 381.855583 
L 437.9993 417.285733 
L 435.962908 418.766884 
L 435.428264 418.966269 
L 435.40572 420.198244 
L 434.295884 420.014446 
L 434.591725 418.413361 
L 433.216109 416.936808 
L 432.052209 416.81222 
L 431.006981 416.908773 
L 429.354987 416.840255 
L 428.577054 416.433746 
L 450.711963 369.750641 
L 453.34009 369.459356 
" clip-path="url(#p9b3ad64ea8)" style="fill: #e0bd1f; stroke: #0000ff; stroke-width: 0.5"/>
    <path d="M 500.798197 373.884249 
L 498.862365 383.195044 
L 498.806787 383.575032 
L 498.883396 386.306941 
L 496.58717 389.756773 
L 496.288302 389.870483 
L 494.772983 389.696049 
L 463.580818 388.683645 
L 457.898049 376.790536 
L 496.265757 374.253359 
L 497.826166 374.142789 
L 500.798197 373.884249 
" clip-path="url(#p9b3ad64ea8)" style="fill: #e0bd1f; stroke: #0000ff; stroke-width: 0.5"/>
    <path d="M 547.754694 371.515282 
L 549.27596 382.542443 
L 498.883396 386.306941 
L 498.806787 383.575032 
L 498.862365 383.195044 
L 500.798197 373.884249 
L 547.754694 371.515282 
" clip-path="url(#p9b3ad64ea8)" style="fill: #e0bd1f; stroke: #0000ff; stroke-width: 0.5"/>
    <path d="M 549.27596 382.542443 
L 550.731213 393.055608 
L 492.63295 397.477361 
L 492.35814 397.446185 
L 492.335595 396.584891 
L 492.741079 395.745408 
L 493.999591 394.088197 
L 496.288302 389.870483 
L 496.58717 389.756773 
L 498.883396 386.306941 
L 549.27596 382.542443 
" clip-path="url(#p9b3ad64ea8)" style="fill: #e0bd1f; stroke: #0000ff; stroke-width: 0.5"/>
    <path d="M 596.628965 327.761845 
L 594.664587 330.929812 
L 595.682837 332.407879 
L 592.474977 335.46836 
L 592.562075 336.016614 
L 594.374748 338.429203 
L 596.423196 338.711068 
L 595.708356 341.256039 
L 593.680939 341.377543 
L 545.085964 344.318089 
L 544.995893 343.645247 
L 544.85619 343.656181 
L 543.558643 334.284661 
L 569.126645 331.006124 
L 595.813457 327.858398 
L 596.628965 327.761845 
" clip-path="url(#p9b3ad64ea8)" style="fill: #e0bd1f; stroke: #0000ff; stroke-width: 0.5"/>
    <path d="M 459.991533 479.276006 
L 464.828788 480.233854 
L 470.227719 495.776236 
L 465.324397 496.52068 
L 461.198954 484.224203 
L 459.991533 479.276006 
" clip-path="url(#p9b3ad64ea8)" style="fill: #e0bd1f; stroke: #0000ff; stroke-width: 0.5"/>
   </g>
   <g id="PatchCollection_2">
    <path d="M 596.706254 327.923995 
L 594.845407 330.925479 
L 595.880352 332.427681 
L 592.705401 335.459249 
L 596.562249 338.770157 
L 595.869609 341.279432 
L 600.392904 346.150157 
L 600.426864 351.523563 
L 603.708385 352.53698 
L 603.056373 356.758842 
L 600.773186 363.005033 
L 604.969578 368.658877 
L 608.065973 367.908168 
L 610.777313 371.28196 
L 606.031447 374.169723 
L 604.599996 378.449166 
L 607.40623 384.258798 
L 604.857685 387.025069 
L 604.292373 392.481851 
L 606.395682 395.174951 
L 613.10148 394.416866 
L 614.68898 399.052742 
L 620.467477 407.193013 
L 620.493656 413.430654 
L 622.636364 418.781271 
L 619.633689 420.514628 
L 618.536261 427.527984 
L 613.853039 432.9427 
L 613.302429 436.615196 
L 605.820429 441.027065 
L 601.178609 439.881811 
L 605.29717 447.876696 
L 603.447062 457.108155 
L 598.95135 457.132241 
L 591.105377 460.926309 
L 588.34429 459.383941 
L 585.017679 462.505961 
L 547.56883 484.308827 
L 423.2277 504.652431 
L 417.387225 475.005306 
L 413.502098 461.054757 
L 389.611609 376.916694 
L 389.054474 376.198715 
L 387.636742 376.265663 
L 386.529934 377.008593 
L 385.909707 377.43069 
L 385.597322 377.482106 
L 385.085224 377.792006 
L 384.735319 377.790492 
L 383.657003 377.594247 
L 382.691358 377.603554 
L 381.779777 377.455585 
L 381.374293 376.837299 
L 381.206099 375.74079 
L 381.132517 374.493227 
L 380.863709 373.438827 
L 379.674291 373.340704 
L 379.298813 373.627279 
L 378.304622 375.499407 
L 377.933685 376.500877 
L 377.089685 377.181514 
L 376.169075 377.651831 
L 375.644974 377.656541 
L 375.087786 378.17048 
L 374.182206 378.379229 
L 373.656592 378.23126 
L 372.614337 376.334181 
L 372.663914 375.438627 
L 371.608143 374.96674 
L 371.412917 374.698837 
L 370.744626 374.10539 
L 370.445758 371.199102 
L 370.044816 370.616589 
L 369.244337 371.040255 
L 369.302889 371.544887 
L 369.116691 372.178761 
L 367.876182 373.84685 
L 366.595179 374.940219 
L 365.641536 375.036828 
L 364.603822 374.142789 
L 363.094505 373.150682 
L 360.871861 372.614875 
L 359.961794 372.183471 
L 359.177859 376.125487 
L 358.398412 376.949439 
L 358.541088 377.036628 
L 359.059188 377.209549 
L 361.031027 377.017957 
L 360.272665 378.513181 
L 358.4089 380.664091 
L 356.923642 380.336977 
L 356.208801 380.603311 
L 355.681673 381.80882 
L 354.812154 382.705943 
L 353.137616 383.550137 
L 351.526224 382.916207 
L 351.168804 380.086231 
L 349.743611 379.999042 
L 347.87536 379.38227 
L 346.122752 380.080007 
L 343.655304 379.215573 
L 340.33034 374.860824 
L 338.577786 373.614775 
L 336.237985 374.79382 
L 330.911882 366.594573 
L 333.265431 366.080609 
L 347.16564 358.907017 
L 436.481366 346.344133 
L 499.159157 339.527921 
L 596.706254 327.923995 
L 596.706254 327.923995 
" clip-path="url(#p9b3ad64ea8)" style="fill: none; stroke: #000000"/>
   </g>
   <g id="matplotlib.axis_1">
    <g id="xtick_1">
     <g id="line2d_1">
      <path d="M 115.371151 609.542237 
L 115.371151 263.097763 
" clip-path="url(#p9b3ad64ea8)" style="fill: none; stroke: #b0b0b0; stroke-width: 0.8; stroke-linecap: square"/>
     </g>
     <g id="line2d_2">
      <defs>
       <path id="m47d924d005" d="M 0 0 
L 0 3.5 
" style="stroke: #000000; stroke-width: 0.8"/>
      </defs>
      <g>
       <use xlink:href="#m47d924d005" x="115.371151" y="609.542237" style="stroke: #000000; stroke-width: 0.8"/>
      </g>
     </g>
     <g id="text_1">
      <!-- 58.36 -->
      <g transform="translate(104.238087 648.083619) rotate(-45) scale(0.1 -0.1)">
       <defs>
        <path id="DejaVuSans-2212" d="M 678 2272 
L 4684 2272 
L 4684 1741 
L 678 1741 
L 678 2272 
z
" transform="scale(0.015625)"/>
        <path id="DejaVuSans-35" d="M 691 4666 
L 3169 4666 
L 3169 4134 
L 1269 4134 
L 1269 2991 
Q 1406 3038 1543 3061 
Q 1681 3084 1819 3084 
Q 2600 3084 3056 2656 
Q 3513 2228 3513 1497 
Q 3513 744 3044 326 
Q 2575 -91 1722 -91 
Q 1428 -91 1123 -41 
Q 819 9 494 109 
L 494 744 
Q 775 591 1075 516 
Q 1375 441 1709 441 
Q 2250 441 2565 725 
Q 2881 1009 2881 1497 
Q 2881 1984 2565 2268 
Q 2250 2553 1709 2553 
Q 1456 2553 1204 2497 
Q 953 2441 691 2322 
L 691 4666 
z
" transform="scale(0.015625)"/>
        <path id="DejaVuSans-38" d="M 2034 2216 
Q 1584 2216 1326 1975 
Q 1069 1734 1069 1313 
Q 1069 891 1326 650 
Q 1584 409 2034 409 
Q 2484 409 2743 651 
Q 3003 894 3003 1313 
Q 3003 1734 2745 1975 
Q 2488 2216 2034 2216 
z
M 1403 2484 
Q 997 2584 770 2862 
Q 544 3141 544 3541 
Q 544 4100 942 4425 
Q 1341 4750 2034 4750 
Q 2731 4750 3128 4425 
Q 3525 4100 3525 3541 
Q 3525 3141 3298 2862 
Q 3072 2584 2669 2484 
Q 3125 2378 3379 2068 
Q 3634 1759 3634 1313 
Q 3634 634 3220 271 
Q 2806 -91 2034 -91 
Q 1263 -91 848 271 
Q 434 634 434 1313 
Q 434 1759 690 2068 
Q 947 2378 1403 2484 
z
M 1172 3481 
Q 1172 3119 1398 2916 
Q 1625 2713 2034 2713 
Q 2441 2713 2670 2916 
Q 2900 3119 2900 3481 
Q 2900 3844 2670 4047 
Q 2441 4250 2034 4250 
Q 1625 4250 1398 4047 
Q 1172 3844 1172 3481 
z
" transform="scale(0.015625)"/>
        <path id="DejaVuSans-2e" d="M 684 794 
L 1344 794 
L 1344 0 
L 684 0 
L 684 794 
z
" transform="scale(0.015625)"/>
        <path id="DejaVuSans-33" d="M 2597 2516 
Q 3050 2419 3304 2112 
Q 3559 1806 3559 1356 
Q 3559 666 3084 287 
Q 2609 -91 1734 -91 
Q 1441 -91 1130 -33 
Q 819 25 488 141 
L 488 750 
Q 750 597 1062 519 
Q 1375 441 1716 441 
Q 2309 441 2620 675 
Q 2931 909 2931 1356 
Q 2931 1769 2642 2001 
Q 2353 2234 1838 2234 
L 1294 2234 
L 1294 2753 
L 1863 2753 
Q 2328 2753 2575 2939 
Q 2822 3125 2822 3475 
Q 2822 3834 2567 4026 
Q 2313 4219 1838 4219 
Q 1578 4219 1281 4162 
Q 984 4106 628 3988 
L 628 4550 
Q 988 4650 1302 4700 
Q 1616 4750 1894 4750 
Q 2613 4750 3031 4423 
Q 3450 4097 3450 3541 
Q 3450 3153 3228 2886 
Q 3006 2619 2597 2516 
z
" transform="scale(0.015625)"/>
        <path id="DejaVuSans-36" d="M 2113 2584 
Q 1688 2584 1439 2293 
Q 1191 2003 1191 1497 
Q 1191 994 1439 701 
Q 1688 409 2113 409 
Q 2538 409 2786 701 
Q 3034 994 3034 1497 
Q 3034 2003 2786 2293 
Q 2538 2584 2113 2584 
z
M 3366 4563 
L 3366 3988 
Q 3128 4100 2886 4159 
Q 2644 4219 2406 4219 
Q 1781 4219 1451 3797 
Q 1122 3375 1075 2522 
Q 1259 2794 1537 2939 
Q 1816 3084 2150 3084 
Q 2853 3084 3261 2657 
Q 3669 2231 3669 1497 
Q 3669 778 3244 343 
Q 2819 -91 2113 -91 
Q 1303 -91 875 529 
Q 447 1150 447 2328 
Q 447 3434 972 4092 
Q 1497 4750 2381 4750 
Q 2619 4750 2861 4703 
Q 3103 4656 3366 4563 
z
" transform="scale(0.015625)"/>
       </defs>
       <use xlink:href="#DejaVuSans-2212"/>
       <use xlink:href="#DejaVuSans-35" transform="translate(83.789062 0)"/>
       <use xlink:href="#DejaVuSans-38" transform="translate(147.412109 0)"/>
       <use xlink:href="#DejaVuSans-2e" transform="translate(211.035156 0)"/>
       <use xlink:href="#DejaVuSans-33" transform="translate(242.822266 0)"/>
       <use xlink:href="#DejaVuSans-36" transform="translate(306.445312 0)"/>
      </g>
     </g>
    </g>
    <g id="xtick_2">
     <g id="line2d_3">
      <path d="M 223.50007 609.542237 
L 223.50007 263.097763 
" clip-path="url(#p9b3ad64ea8)" style="fill: none; stroke: #b0b0b0; stroke-width: 0.8; stroke-linecap: square"/>
     </g>
     <g id="line2d_4">
      <g>
       <use xlink:href="#m47d924d005" x="223.50007" y="609.542237" style="stroke: #000000; stroke-width: 0.8"/>
      </g>
     </g>
     <g id="text_2">
      <!-- 58.34 -->
      <g transform="translate(212.367006 648.083619) rotate(-45) scale(0.1 -0.1)">
       <defs>
        <path id="DejaVuSans-34" d="M 2419 4116 
L 825 1625 
L 2419 1625 
L 2419 4116 
z
M 2253 4666 
L 3047 4666 
L 3047 1625 
L 3713 1625 
L 3713 1100 
L 3047 1100 
L 3047 0 
L 2419 0 
L 2419 1100 
L 313 1100 
L 313 1709 
L 2253 4666 
z
" transform="scale(0.015625)"/>
       </defs>
       <use xlink:href="#DejaVuSans-2212"/>
       <use xlink:href="#DejaVuSans-35" transform="translate(83.789062 0)"/>
       <use xlink:href="#DejaVuSans-38" transform="translate(147.412109 0)"/>
       <use xlink:href="#DejaVuSans-2e" transform="translate(211.035156 0)"/>
       <use xlink:href="#DejaVuSans-33" transform="translate(242.822266 0)"/>
       <use xlink:href="#DejaVuSans-34" transform="translate(306.445312 0)"/>
      </g>
     </g>
    </g>
    <g id="xtick_3">
     <g id="line2d_5">
      <path d="M 331.628989 609.542237 
L 331.628989 263.097763 
" clip-path="url(#p9b3ad64ea8)" style="fill: none; stroke: #b0b0b0; stroke-width: 0.8; stroke-linecap: square"/>
     </g>
     <g id="line2d_6">
      <g>
       <use xlink:href="#m47d924d005" x="331.628989" y="609.542237" style="stroke: #000000; stroke-width: 0.8"/>
      </g>
     </g>
     <g id="text_3">
      <!-- 58.32 -->
      <g transform="translate(320.495925 648.083619) rotate(-45) scale(0.1 -0.1)">
       <defs>
        <path id="DejaVuSans-32" d="M 1228 531 
L 3431 531 
L 3431 0 
L 469 0 
L 469 531 
Q 828 903 1448 1529 
Q 2069 2156 2228 2338 
Q 2531 2678 2651 2914 
Q 2772 3150 2772 3378 
Q 2772 3750 2511 3984 
Q 2250 4219 1831 4219 
Q 1534 4219 1204 4116 
Q 875 4013 500 3803 
L 500 4441 
Q 881 4594 1212 4672 
Q 1544 4750 1819 4750 
Q 2544 4750 2975 4387 
Q 3406 4025 3406 3419 
Q 3406 3131 3298 2873 
Q 3191 2616 2906 2266 
Q 2828 2175 2409 1742 
Q 1991 1309 1228 531 
z
" transform="scale(0.015625)"/>
       </defs>
       <use xlink:href="#DejaVuSans-2212"/>
       <use xlink:href="#DejaVuSans-35" transform="translate(83.789062 0)"/>
       <use xlink:href="#DejaVuSans-38" transform="translate(147.412109 0)"/>
       <use xlink:href="#DejaVuSans-2e" transform="translate(211.035156 0)"/>
       <use xlink:href="#DejaVuSans-33" transform="translate(242.822266 0)"/>
       <use xlink:href="#DejaVuSans-32" transform="translate(306.445312 0)"/>
      </g>
     </g>
    </g>
    <g id="xtick_4">
     <g id="line2d_7">
      <path d="M 439.757909 609.542237 
L 439.757909 263.097763 
" clip-path="url(#p9b3ad64ea8)" style="fill: none; stroke: #b0b0b0; stroke-width: 0.8; stroke-linecap: square"/>
     </g>
     <g id="line2d_8">
      <g>
       <use xlink:href="#m47d924d005" x="439.757909" y="609.542237" style="stroke: #000000; stroke-width: 0.8"/>
      </g>
     </g>
     <g id="text_4">
      <!-- 58.30 -->
      <g transform="translate(428.624844 648.083619) rotate(-45) scale(0.1 -0.1)">
       <defs>
        <path id="DejaVuSans-30" d="M 2034 4250 
Q 1547 4250 1301 3770 
Q 1056 3291 1056 2328 
Q 1056 1369 1301 889 
Q 1547 409 2034 409 
Q 2525 409 2770 889 
Q 3016 1369 3016 2328 
Q 3016 3291 2770 3770 
Q 2525 4250 2034 4250 
z
M 2034 4750 
Q 2819 4750 3233 4129 
Q 3647 3509 3647 2328 
Q 3647 1150 3233 529 
Q 2819 -91 2034 -91 
Q 1250 -91 836 529 
Q 422 1150 422 2328 
Q 422 3509 836 4129 
Q 1250 4750 2034 4750 
z
" transform="scale(0.015625)"/>
       </defs>
       <use xlink:href="#DejaVuSans-2212"/>
       <use xlink:href="#DejaVuSans-35" transform="translate(83.789062 0)"/>
       <use xlink:href="#DejaVuSans-38" transform="translate(147.412109 0)"/>
       <use xlink:href="#DejaVuSans-2e" transform="translate(211.035156 0)"/>
       <use xlink:href="#DejaVuSans-33" transform="translate(242.822266 0)"/>
       <use xlink:href="#DejaVuSans-30" transform="translate(306.445312 0)"/>
      </g>
     </g>
    </g>
    <g id="xtick_5">
     <g id="line2d_9">
      <path d="M 547.886828 609.542237 
L 547.886828 263.097763 
" clip-path="url(#p9b3ad64ea8)" style="fill: none; stroke: #b0b0b0; stroke-width: 0.8; stroke-linecap: square"/>
     </g>
     <g id="line2d_10">
      <g>
       <use xlink:href="#m47d924d005" x="547.886828" y="609.542237" style="stroke: #000000; stroke-width: 0.8"/>
      </g>
     </g>
     <g id="text_5">
      <!-- 58.28 -->
      <g transform="translate(536.753763 648.083619) rotate(-45) scale(0.1 -0.1)">
       <use xlink:href="#DejaVuSans-2212"/>
       <use xlink:href="#DejaVuSans-35" transform="translate(83.789062 0)"/>
       <use xlink:href="#DejaVuSans-38" transform="translate(147.412109 0)"/>
       <use xlink:href="#DejaVuSans-2e" transform="translate(211.035156 0)"/>
       <use xlink:href="#DejaVuSans-32" transform="translate(242.822266 0)"/>
       <use xlink:href="#DejaVuSans-38" transform="translate(306.445312 0)"/>
      </g>
     </g>
    </g>
    <g id="text_6">
     <!-- Longitude () -->
     <g transform="translate(336.139844 661.152617) scale(0.1 -0.1)">
      <defs>
       <path id="DejaVuSans-4c" d="M 628 4666 
L 1259 4666 
L 1259 531 
L 3531 531 
L 3531 0 
L 628 0 
L 628 4666 
z
" transform="scale(0.015625)"/>
       <path id="DejaVuSans-6f" d="M 1959 3097 
Q 1497 3097 1228 2736 
Q 959 2375 959 1747 
Q 959 1119 1226 758 
Q 1494 397 1959 397 
Q 2419 397 2687 759 
Q 2956 1122 2956 1747 
Q 2956 2369 2687 2733 
Q 2419 3097 1959 3097 
z
M 1959 3584 
Q 2709 3584 3137 3096 
Q 3566 2609 3566 1747 
Q 3566 888 3137 398 
Q 2709 -91 1959 -91 
Q 1206 -91 779 398 
Q 353 888 353 1747 
Q 353 2609 779 3096 
Q 1206 3584 1959 3584 
z
" transform="scale(0.015625)"/>
       <path id="DejaVuSans-6e" d="M 3513 2113 
L 3513 0 
L 2938 0 
L 2938 2094 
Q 2938 2591 2744 2837 
Q 2550 3084 2163 3084 
Q 1697 3084 1428 2787 
Q 1159 2491 1159 1978 
L 1159 0 
L 581 0 
L 581 3500 
L 1159 3500 
L 1159 2956 
Q 1366 3272 1645 3428 
Q 1925 3584 2291 3584 
Q 2894 3584 3203 3211 
Q 3513 2838 3513 2113 
z
" transform="scale(0.015625)"/>
       <path id="DejaVuSans-67" d="M 2906 1791 
Q 2906 2416 2648 2759 
Q 2391 3103 1925 3103 
Q 1463 3103 1205 2759 
Q 947 2416 947 1791 
Q 947 1169 1205 825 
Q 1463 481 1925 481 
Q 2391 481 2648 825 
Q 2906 1169 2906 1791 
z
M 3481 434 
Q 3481 -459 3084 -895 
Q 2688 -1331 1869 -1331 
Q 1566 -1331 1297 -1286 
Q 1028 -1241 775 -1147 
L 775 -588 
Q 1028 -725 1275 -790 
Q 1522 -856 1778 -856 
Q 2344 -856 2625 -561 
Q 2906 -266 2906 331 
L 2906 616 
Q 2728 306 2450 153 
Q 2172 0 1784 0 
Q 1141 0 747 490 
Q 353 981 353 1791 
Q 353 2603 747 3093 
Q 1141 3584 1784 3584 
Q 2172 3584 2450 3431 
Q 2728 3278 2906 2969 
L 2906 3500 
L 3481 3500 
L 3481 434 
z
" transform="scale(0.015625)"/>
       <path id="DejaVuSans-69" d="M 603 3500 
L 1178 3500 
L 1178 0 
L 603 0 
L 603 3500 
z
M 603 4863 
L 1178 4863 
L 1178 4134 
L 603 4134 
L 603 4863 
z
" transform="scale(0.015625)"/>
       <path id="DejaVuSans-74" d="M 1172 4494 
L 1172 3500 
L 2356 3500 
L 2356 3053 
L 1172 3053 
L 1172 1153 
Q 1172 725 1289 603 
Q 1406 481 1766 481 
L 2356 481 
L 2356 0 
L 1766 0 
Q 1100 0 847 248 
Q 594 497 594 1153 
L 594 3053 
L 172 3053 
L 172 3500 
L 594 3500 
L 594 4494 
L 1172 4494 
z
" transform="scale(0.015625)"/>
       <path id="DejaVuSans-75" d="M 544 1381 
L 544 3500 
L 1119 3500 
L 1119 1403 
Q 1119 906 1312 657 
Q 1506 409 1894 409 
Q 2359 409 2629 706 
Q 2900 1003 2900 1516 
L 2900 3500 
L 3475 3500 
L 3475 0 
L 2900 0 
L 2900 538 
Q 2691 219 2414 64 
Q 2138 -91 1772 -91 
Q 1169 -91 856 284 
Q 544 659 544 1381 
z
M 1991 3584 
L 1991 3584 
z
" transform="scale(0.015625)"/>
       <path id="DejaVuSans-64" d="M 2906 2969 
L 2906 4863 
L 3481 4863 
L 3481 0 
L 2906 0 
L 2906 525 
Q 2725 213 2448 61 
Q 2172 -91 1784 -91 
Q 1150 -91 751 415 
Q 353 922 353 1747 
Q 353 2572 751 3078 
Q 1150 3584 1784 3584 
Q 2172 3584 2448 3432 
Q 2725 3281 2906 2969 
z
M 947 1747 
Q 947 1113 1208 752 
Q 1469 391 1925 391 
Q 2381 391 2643 752 
Q 2906 1113 2906 1747 
Q 2906 2381 2643 2742 
Q 2381 3103 1925 3103 
Q 1469 3103 1208 2742 
Q 947 2381 947 1747 
z
" transform="scale(0.015625)"/>
       <path id="DejaVuSans-65" d="M 3597 1894 
L 3597 1613 
L 953 1613 
Q 991 1019 1311 708 
Q 1631 397 2203 397 
Q 2534 397 2845 478 
Q 3156 559 3463 722 
L 3463 178 
Q 3153 47 2828 -22 
Q 2503 -91 2169 -91 
Q 1331 -91 842 396 
Q 353 884 353 1716 
Q 353 2575 817 3079 
Q 1281 3584 2069 3584 
Q 2775 3584 3186 3129 
Q 3597 2675 3597 1894 
z
M 3022 2063 
Q 3016 2534 2758 2815 
Q 2500 3097 2075 3097 
Q 1594 3097 1305 2825 
Q 1016 2553 972 2059 
L 3022 2063 
z
" transform="scale(0.015625)"/>
       <path id="DejaVuSans-20" transform="scale(0.015625)"/>
       <path id="DejaVuSans-28" d="M 1984 4856 
Q 1566 4138 1362 3434 
Q 1159 2731 1159 2009 
Q 1159 1288 1364 580 
Q 1569 -128 1984 -844 
L 1484 -844 
Q 1016 -109 783 600 
Q 550 1309 550 2009 
Q 550 2706 781 3412 
Q 1013 4119 1484 4856 
L 1984 4856 
z
" transform="scale(0.015625)"/>
       <path id="DejaVuSans-b0" d="M 1600 4347 
Q 1350 4347 1178 4173 
Q 1006 4000 1006 3750 
Q 1006 3503 1178 3333 
Q 1350 3163 1600 3163 
Q 1850 3163 2022 3333 
Q 2194 3503 2194 3750 
Q 2194 3997 2020 4172 
Q 1847 4347 1600 4347 
z
M 1600 4750 
Q 1800 4750 1984 4673 
Q 2169 4597 2303 4453 
Q 2447 4313 2519 4134 
Q 2591 3956 2591 3750 
Q 2591 3338 2302 3052 
Q 2013 2766 1594 2766 
Q 1172 2766 890 3047 
Q 609 3328 609 3750 
Q 609 4169 896 4459 
Q 1184 4750 1600 4750 
z
" transform="scale(0.015625)"/>
       <path id="DejaVuSans-29" d="M 513 4856 
L 1013 4856 
Q 1481 4119 1714 3412 
Q 1947 2706 1947 2009 
Q 1947 1309 1714 600 
Q 1481 -109 1013 -844 
L 513 -844 
Q 928 -128 1133 580 
Q 1338 1288 1338 2009 
Q 1338 2731 1133 3434 
Q 928 4138 513 4856 
z
" transform="scale(0.015625)"/>
      </defs>
      <use xlink:href="#DejaVuSans-4c"/>
      <use xlink:href="#DejaVuSans-6f" transform="translate(53.962891 0)"/>
      <use xlink:href="#DejaVuSans-6e" transform="translate(115.144531 0)"/>
      <use xlink:href="#DejaVuSans-67" transform="translate(178.523438 0)"/>
      <use xlink:href="#DejaVuSans-69" transform="translate(242 0)"/>
      <use xlink:href="#DejaVuSans-74" transform="translate(269.783203 0)"/>
      <use xlink:href="#DejaVuSans-75" transform="translate(308.992188 0)"/>
      <use xlink:href="#DejaVuSans-64" transform="translate(372.371094 0)"/>
      <use xlink:href="#DejaVuSans-65" transform="translate(435.847656 0)"/>
      <use xlink:href="#DejaVuSans-20" transform="translate(497.371094 0)"/>
      <use xlink:href="#DejaVuSans-28" transform="translate(529.158203 0)"/>
      <use xlink:href="#DejaVuSans-b0" transform="translate(568.171875 0)"/>
      <use xlink:href="#DejaVuSans-29" transform="translate(618.171875 0)"/>
     </g>
    </g>
   </g>
   <g id="matplotlib.axis_2">
    <g id="ytick_1">
     <g id="line2d_11">
      <path d="M 90 576.648154 
L 648 576.648154 
" clip-path="url(#p9b3ad64ea8)" style="fill: none; stroke: #b0b0b0; stroke-width: 0.8; stroke-linecap: square"/>
     </g>
     <g id="line2d_12">
      <defs>
       <path id="mcf4d93a6ea" d="M 0 0 
L -3.5 0 
" style="stroke: #000000; stroke-width: 0.8"/>
      </defs>
      <g>
       <use xlink:href="#mcf4d93a6ea" x="90" y="576.648154" style="stroke: #000000; stroke-width: 0.8"/>
      </g>
     </g>
     <g id="text_7">
      <!-- 15.40 -->
      <g transform="translate(45.992188 580.447372) scale(0.1 -0.1)">
       <defs>
        <path id="DejaVuSans-31" d="M 794 531 
L 1825 531 
L 1825 4091 
L 703 3866 
L 703 4441 
L 1819 4666 
L 2450 4666 
L 2450 531 
L 3481 531 
L 3481 0 
L 794 0 
L 794 531 
z
" transform="scale(0.015625)"/>
       </defs>
       <use xlink:href="#DejaVuSans-2212"/>
       <use xlink:href="#DejaVuSans-31" transform="translate(83.789062 0)"/>
       <use xlink:href="#DejaVuSans-35" transform="translate(147.412109 0)"/>
       <use xlink:href="#DejaVuSans-2e" transform="translate(211.035156 0)"/>
       <use xlink:href="#DejaVuSans-34" transform="translate(242.822266 0)"/>
       <use xlink:href="#DejaVuSans-30" transform="translate(306.445312 0)"/>
      </g>
     </g>
    </g>
    <g id="ytick_2">
     <g id="line2d_13">
      <path d="M 90 520.577941 
L 648 520.577941 
" clip-path="url(#p9b3ad64ea8)" style="fill: none; stroke: #b0b0b0; stroke-width: 0.8; stroke-linecap: square"/>
     </g>
     <g id="line2d_14">
      <g>
       <use xlink:href="#mcf4d93a6ea" x="90" y="520.577941" style="stroke: #000000; stroke-width: 0.8"/>
      </g>
     </g>
     <g id="text_8">
      <!-- 15.39 -->
      <g transform="translate(45.992188 524.37716) scale(0.1 -0.1)">
       <defs>
        <path id="DejaVuSans-39" d="M 703 97 
L 703 672 
Q 941 559 1184 500 
Q 1428 441 1663 441 
Q 2288 441 2617 861 
Q 2947 1281 2994 2138 
Q 2813 1869 2534 1725 
Q 2256 1581 1919 1581 
Q 1219 1581 811 2004 
Q 403 2428 403 3163 
Q 403 3881 828 4315 
Q 1253 4750 1959 4750 
Q 2769 4750 3195 4129 
Q 3622 3509 3622 2328 
Q 3622 1225 3098 567 
Q 2575 -91 1691 -91 
Q 1453 -91 1209 -44 
Q 966 3 703 97 
z
M 1959 2075 
Q 2384 2075 2632 2365 
Q 2881 2656 2881 3163 
Q 2881 3666 2632 3958 
Q 2384 4250 1959 4250 
Q 1534 4250 1286 3958 
Q 1038 3666 1038 3163 
Q 1038 2656 1286 2365 
Q 1534 2075 1959 2075 
z
" transform="scale(0.015625)"/>
       </defs>
       <use xlink:href="#DejaVuSans-2212"/>
       <use xlink:href="#DejaVuSans-31" transform="translate(83.789062 0)"/>
       <use xlink:href="#DejaVuSans-35" transform="translate(147.412109 0)"/>
       <use xlink:href="#DejaVuSans-2e" transform="translate(211.035156 0)"/>
       <use xlink:href="#DejaVuSans-33" transform="translate(242.822266 0)"/>
       <use xlink:href="#DejaVuSans-39" transform="translate(306.445312 0)"/>
      </g>
     </g>
    </g>
    <g id="ytick_3">
     <g id="line2d_15">
      <path d="M 90 464.507729 
L 648 464.507729 
" clip-path="url(#p9b3ad64ea8)" style="fill: none; stroke: #b0b0b0; stroke-width: 0.8; stroke-linecap: square"/>
     </g>
     <g id="line2d_16">
      <g>
       <use xlink:href="#mcf4d93a6ea" x="90" y="464.507729" style="stroke: #000000; stroke-width: 0.8"/>
      </g>
     </g>
     <g id="text_9">
      <!-- 15.38 -->
      <g transform="translate(45.992188 468.306948) scale(0.1 -0.1)">
       <use xlink:href="#DejaVuSans-2212"/>
       <use xlink:href="#DejaVuSans-31" transform="translate(83.789062 0)"/>
       <use xlink:href="#DejaVuSans-35" transform="translate(147.412109 0)"/>
       <use xlink:href="#DejaVuSans-2e" transform="translate(211.035156 0)"/>
       <use xlink:href="#DejaVuSans-33" transform="translate(242.822266 0)"/>
       <use xlink:href="#DejaVuSans-38" transform="translate(306.445312 0)"/>
      </g>
     </g>
    </g>
    <g id="ytick_4">
     <g id="line2d_17">
      <path d="M 90 408.437517 
L 648 408.437517 
" clip-path="url(#p9b3ad64ea8)" style="fill: none; stroke: #b0b0b0; stroke-width: 0.8; stroke-linecap: square"/>
     </g>
     <g id="line2d_18">
      <g>
       <use xlink:href="#mcf4d93a6ea" x="90" y="408.437517" style="stroke: #000000; stroke-width: 0.8"/>
      </g>
     </g>
     <g id="text_10">
      <!-- 15.37 -->
      <g transform="translate(45.992188 412.236736) scale(0.1 -0.1)">
       <defs>
        <path id="DejaVuSans-37" d="M 525 4666 
L 3525 4666 
L 3525 4397 
L 1831 0 
L 1172 0 
L 2766 4134 
L 525 4134 
L 525 4666 
z
" transform="scale(0.015625)"/>
       </defs>
       <use xlink:href="#DejaVuSans-2212"/>
       <use xlink:href="#DejaVuSans-31" transform="translate(83.789062 0)"/>
       <use xlink:href="#DejaVuSans-35" transform="translate(147.412109 0)"/>
       <use xlink:href="#DejaVuSans-2e" transform="translate(211.035156 0)"/>
       <use xlink:href="#DejaVuSans-33" transform="translate(242.822266 0)"/>
       <use xlink:href="#DejaVuSans-37" transform="translate(306.445312 0)"/>
      </g>
     </g>
    </g>
    <g id="ytick_5">
     <g id="line2d_19">
      <path d="M 90 352.367305 
L 648 352.367305 
" clip-path="url(#p9b3ad64ea8)" style="fill: none; stroke: #b0b0b0; stroke-width: 0.8; stroke-linecap: square"/>
     </g>
     <g id="line2d_20">
      <g>
       <use xlink:href="#mcf4d93a6ea" x="90" y="352.367305" style="stroke: #000000; stroke-width: 0.8"/>
      </g>
     </g>
     <g id="text_11">
      <!-- 15.36 -->
      <g transform="translate(45.992188 356.166524) scale(0.1 -0.1)">
       <use xlink:href="#DejaVuSans-2212"/>
       <use xlink:href="#DejaVuSans-31" transform="translate(83.789062 0)"/>
       <use xlink:href="#DejaVuSans-35" transform="translate(147.412109 0)"/>
       <use xlink:href="#DejaVuSans-2e" transform="translate(211.035156 0)"/>
       <use xlink:href="#DejaVuSans-33" transform="translate(242.822266 0)"/>
       <use xlink:href="#DejaVuSans-36" transform="translate(306.445312 0)"/>
      </g>
     </g>
    </g>
    <g id="ytick_6">
     <g id="line2d_21">
      <path d="M 90 296.297093 
L 648 296.297093 
" clip-path="url(#p9b3ad64ea8)" style="fill: none; stroke: #b0b0b0; stroke-width: 0.8; stroke-linecap: square"/>
     </g>
     <g id="line2d_22">
      <g>
       <use xlink:href="#mcf4d93a6ea" x="90" y="296.297093" style="stroke: #000000; stroke-width: 0.8"/>
      </g>
     </g>
     <g id="text_12">
      <!-- 15.35 -->
      <g transform="translate(45.992188 300.096311) scale(0.1 -0.1)">
       <use xlink:href="#DejaVuSans-2212"/>
       <use xlink:href="#DejaVuSans-31" transform="translate(83.789062 0)"/>
       <use xlink:href="#DejaVuSans-35" transform="translate(147.412109 0)"/>
       <use xlink:href="#DejaVuSans-2e" transform="translate(211.035156 0)"/>
       <use xlink:href="#DejaVuSans-33" transform="translate(242.822266 0)"/>
       <use xlink:href="#DejaVuSans-35" transform="translate(306.445312 0)"/>
      </g>
     </g>
    </g>
    <g id="text_13">
     <!-- Latitude () -->
     <g transform="translate(39.9125 464.889531) rotate(-90) scale(0.1 -0.1)">
      <defs>
       <path id="DejaVuSans-61" d="M 2194 1759 
Q 1497 1759 1228 1600 
Q 959 1441 959 1056 
Q 959 750 1161 570 
Q 1363 391 1709 391 
Q 2188 391 2477 730 
Q 2766 1069 2766 1631 
L 2766 1759 
L 2194 1759 
z
M 3341 1997 
L 3341 0 
L 2766 0 
L 2766 531 
Q 2569 213 2275 61 
Q 1981 -91 1556 -91 
Q 1019 -91 701 211 
Q 384 513 384 1019 
Q 384 1609 779 1909 
Q 1175 2209 1959 2209 
L 2766 2209 
L 2766 2266 
Q 2766 2663 2505 2880 
Q 2244 3097 1772 3097 
Q 1472 3097 1187 3025 
Q 903 2953 641 2809 
L 641 3341 
Q 956 3463 1253 3523 
Q 1550 3584 1831 3584 
Q 2591 3584 2966 3190 
Q 3341 2797 3341 1997 
z
" transform="scale(0.015625)"/>
      </defs>
      <use xlink:href="#DejaVuSans-4c"/>
      <use xlink:href="#DejaVuSans-61" transform="translate(55.712891 0)"/>
      <use xlink:href="#DejaVuSans-74" transform="translate(116.992188 0)"/>
      <use xlink:href="#DejaVuSans-69" transform="translate(156.201172 0)"/>
      <use xlink:href="#DejaVuSans-74" transform="translate(183.984375 0)"/>
      <use xlink:href="#DejaVuSans-75" transform="translate(223.193359 0)"/>
      <use xlink:href="#DejaVuSans-64" transform="translate(286.572266 0)"/>
      <use xlink:href="#DejaVuSans-65" transform="translate(350.048828 0)"/>
      <use xlink:href="#DejaVuSans-20" transform="translate(411.572266 0)"/>
      <use xlink:href="#DejaVuSans-28" transform="translate(443.359375 0)"/>
      <use xlink:href="#DejaVuSans-b0" transform="translate(482.373047 0)"/>
      <use xlink:href="#DejaVuSans-29" transform="translate(532.373047 0)"/>
     </g>
    </g>
   </g>
   <g id="patch_3">
    <path d="M 90 609.542237 
L 90 263.097763 
" style="fill: none; stroke: #000000; stroke-width: 0.8; stroke-linejoin: miter; stroke-linecap: square"/>
   </g>
   <g id="patch_4">
    <path d="M 648 609.542237 
L 648 263.097763 
" style="fill: none; stroke: #000000; stroke-width: 0.8; stroke-linejoin: miter; stroke-linecap: square"/>
   </g>
   <g id="patch_5">
    <path d="M 90 609.542237 
L 648 609.542237 
" style="fill: none; stroke: #000000; stroke-width: 0.8; stroke-linejoin: miter; stroke-linecap: square"/>
   </g>
   <g id="patch_6">
    <path d="M 90 263.097763 
L 648 263.097763 
" style="fill: none; stroke: #000000; stroke-width: 0.8; stroke-linejoin: miter; stroke-linecap: square"/>
   </g>
   <g id="legend_1">
    <g id="patch_7">
     <path d="M 279.8375 718.123007 
L 458.1625 718.123007 
Q 460.1625 718.123007 460.1625 716.123007 
L 460.1625 685.831132 
Q 460.1625 683.831132 458.1625 683.831132 
L 279.8375 683.831132 
Q 277.8375 683.831132 277.8375 685.831132 
L 277.8375 716.123007 
Q 277.8375 718.123007 279.8375 718.123007 
z
" style="fill: #ffffff; opacity: 0.8; stroke: #cccccc; stroke-linejoin: miter"/>
    </g>
    <g id="text_14">
     <!-- Legenda -->
     <g transform="translate(343.280625 696.949257) scale(0.12 -0.12)">
      <use xlink:href="#DejaVuSans-4c"/>
      <use xlink:href="#DejaVuSans-65" transform="translate(53.962891 0)"/>
      <use xlink:href="#DejaVuSans-67" transform="translate(115.486328 0)"/>
      <use xlink:href="#DejaVuSans-65" transform="translate(178.962891 0)"/>
      <use xlink:href="#DejaVuSans-6e" transform="translate(240.486328 0)"/>
      <use xlink:href="#DejaVuSans-64" transform="translate(303.865234 0)"/>
      <use xlink:href="#DejaVuSans-61" transform="translate(367.341797 0)"/>
     </g>
    </g>
    <g id="patch_8">
     <path d="M 281.8375 712.043319 
L 301.8375 712.043319 
L 301.8375 705.043319 
L 281.8375 705.043319 
L 281.8375 712.043319 
z
" style="fill: none; stroke: #000000; stroke-linejoin: miter"/>
    </g>
    <g id="text_15">
     <!-- Gleba Federal -->
     <g transform="translate(309.8375 712.043319) scale(0.1 -0.1)">
      <defs>
       <path id="DejaVuSans-47" d="M 3809 666 
L 3809 1919 
L 2778 1919 
L 2778 2438 
L 4434 2438 
L 4434 434 
Q 4069 175 3628 42 
Q 3188 -91 2688 -91 
Q 1594 -91 976 548 
Q 359 1188 359 2328 
Q 359 3472 976 4111 
Q 1594 4750 2688 4750 
Q 3144 4750 3555 4637 
Q 3966 4525 4313 4306 
L 4313 3634 
Q 3963 3931 3569 4081 
Q 3175 4231 2741 4231 
Q 1884 4231 1454 3753 
Q 1025 3275 1025 2328 
Q 1025 1384 1454 906 
Q 1884 428 2741 428 
Q 3075 428 3337 486 
Q 3600 544 3809 666 
z
" transform="scale(0.015625)"/>
       <path id="DejaVuSans-6c" d="M 603 4863 
L 1178 4863 
L 1178 0 
L 603 0 
L 603 4863 
z
" transform="scale(0.015625)"/>
       <path id="DejaVuSans-62" d="M 3116 1747 
Q 3116 2381 2855 2742 
Q 2594 3103 2138 3103 
Q 1681 3103 1420 2742 
Q 1159 2381 1159 1747 
Q 1159 1113 1420 752 
Q 1681 391 2138 391 
Q 2594 391 2855 752 
Q 3116 1113 3116 1747 
z
M 1159 2969 
Q 1341 3281 1617 3432 
Q 1894 3584 2278 3584 
Q 2916 3584 3314 3078 
Q 3713 2572 3713 1747 
Q 3713 922 3314 415 
Q 2916 -91 2278 -91 
Q 1894 -91 1617 61 
Q 1341 213 1159 525 
L 1159 0 
L 581 0 
L 581 4863 
L 1159 4863 
L 1159 2969 
z
" transform="scale(0.015625)"/>
       <path id="DejaVuSans-46" d="M 628 4666 
L 3309 4666 
L 3309 4134 
L 1259 4134 
L 1259 2759 
L 3109 2759 
L 3109 2228 
L 1259 2228 
L 1259 0 
L 628 0 
L 628 4666 
z
" transform="scale(0.015625)"/>
       <path id="DejaVuSans-72" d="M 2631 2963 
Q 2534 3019 2420 3045 
Q 2306 3072 2169 3072 
Q 1681 3072 1420 2755 
Q 1159 2438 1159 1844 
L 1159 0 
L 581 0 
L 581 3500 
L 1159 3500 
L 1159 2956 
Q 1341 3275 1631 3429 
Q 1922 3584 2338 3584 
Q 2397 3584 2469 3576 
Q 2541 3569 2628 3553 
L 2631 2963 
z
" transform="scale(0.015625)"/>
      </defs>
      <use xlink:href="#DejaVuSans-47"/>
      <use xlink:href="#DejaVuSans-6c" transform="translate(77.490234 0)"/>
      <use xlink:href="#DejaVuSans-65" transform="translate(105.273438 0)"/>
      <use xlink:href="#DejaVuSans-62" transform="translate(166.796875 0)"/>
      <use xlink:href="#DejaVuSans-61" transform="translate(230.273438 0)"/>
      <use xlink:href="#DejaVuSans-20" transform="translate(291.552734 0)"/>
      <use xlink:href="#DejaVuSans-46" transform="translate(323.339844 0)"/>
      <use xlink:href="#DejaVuSans-65" transform="translate(375.359375 0)"/>
      <use xlink:href="#DejaVuSans-64" transform="translate(436.882812 0)"/>
      <use xlink:href="#DejaVuSans-65" transform="translate(500.359375 0)"/>
      <use xlink:href="#DejaVuSans-72" transform="translate(561.882812 0)"/>
      <use xlink:href="#DejaVuSans-61" transform="translate(602.996094 0)"/>
      <use xlink:href="#DejaVuSans-6c" transform="translate(664.275391 0)"/>
     </g>
    </g>
    <g id="patch_9">
     <path d="M 399.045312 712.043319 
L 419.045312 712.043319 
L 419.045312 705.043319 
L 399.045312 705.043319 
z
" style="fill: #e0bd1f; opacity: 0.6"/>
    </g>
    <g id="text_16">
     <!-- SIGEF -->
     <g transform="translate(427.045312 712.043319) scale(0.1 -0.1)">
      <defs>
       <path id="DejaVuSans-53" d="M 3425 4513 
L 3425 3897 
Q 3066 4069 2747 4153 
Q 2428 4238 2131 4238 
Q 1616 4238 1336 4038 
Q 1056 3838 1056 3469 
Q 1056 3159 1242 3001 
Q 1428 2844 1947 2747 
L 2328 2669 
Q 3034 2534 3370 2195 
Q 3706 1856 3706 1288 
Q 3706 609 3251 259 
Q 2797 -91 1919 -91 
Q 1588 -91 1214 -16 
Q 841 59 441 206 
L 441 856 
Q 825 641 1194 531 
Q 1563 422 1919 422 
Q 2459 422 2753 634 
Q 3047 847 3047 1241 
Q 3047 1584 2836 1778 
Q 2625 1972 2144 2069 
L 1759 2144 
Q 1053 2284 737 2584 
Q 422 2884 422 3419 
Q 422 4038 858 4394 
Q 1294 4750 2059 4750 
Q 2388 4750 2728 4690 
Q 3069 4631 3425 4513 
z
" transform="scale(0.015625)"/>
       <path id="DejaVuSans-49" d="M 628 4666 
L 1259 4666 
L 1259 0 
L 628 0 
L 628 4666 
z
" transform="scale(0.015625)"/>
       <path id="DejaVuSans-45" d="M 628 4666 
L 3578 4666 
L 3578 4134 
L 1259 4134 
L 1259 2753 
L 3481 2753 
L 3481 2222 
L 1259 2222 
L 1259 531 
L 3634 531 
L 3634 0 
L 628 0 
L 628 4666 
z
" transform="scale(0.015625)"/>
      </defs>
      <use xlink:href="#DejaVuSans-53"/>
      <use xlink:href="#DejaVuSans-49" transform="translate(63.476562 0)"/>
      <use xlink:href="#DejaVuSans-47" transform="translate(92.96875 0)"/>
      <use xlink:href="#DejaVuSans-45" transform="translate(170.458984 0)"/>
      <use xlink:href="#DejaVuSans-46" transform="translate(233.642578 0)"/>
     </g>
    </g>
   </g>
  </g>
 </g>
 <defs>
  <clipPath id="p9b3ad64ea8">
   <rect x="90" y="263.097763" width="558" height="346.444474"/>
  </clipPath>
 </defs>
</svg>
