<?xml version="1.0" encoding="utf-8" standalone="no"?>
<!DOCTYPE svg PUBLIC "-//W3C//DTD SVG 1.1//EN"
  "http://www.w3.org/Graphics/SVG/1.1/DTD/svg11.dtd">
<svg xmlns:xlink="http://www.w3.org/1999/xlink" width="720pt" height="864pt" viewBox="0 0 720 864" xmlns="http://www.w3.org/2000/svg" version="1.1">
 <metadata>
  <rdf:RDF xmlns:dc="http://purl.org/dc/elements/1.1/" xmlns:cc="http://creativecommons.org/ns#" xmlns:rdf="http://www.w3.org/1999/02/22-rdf-syntax-ns#">
   <cc:Work>
    <dc:type rdf:resource="http://purl.org/dc/dcmitype/StillImage"/>
    <dc:date>2025-06-16T17:48:05.159343</dc:date>
    <dc:format>image/svg+xml</dc:format>
    <dc:creator>
     <cc:Agent>
      <dc:title>Matplotlib v3.10.1, https://matplotlib.org/</dc:title>
     </cc:Agent>
    </dc:creator>
   </cc:Work>
  </rdf:RDF>
 </metadata>
 <defs>
  <style type="text/css">*{stroke-linejoin: round; stroke-linecap: butt}</style>
 </defs>
 <g id="figure_1">
  <g id="patch_1">
   <path d="M 0 864 
L 720 864 
L 720 0 
L 0 0 
z
" style="fill: #ffffff"/>
  </g>
  <g id="axes_1">
   <g id="patch_2">
    <path d="M 90 644.121337 
L 648 644.121337 
L 648 228.518663 
L 90 228.518663 
z
" style="fill: #ffffff"/>
   </g>
   <g id="PatchCollection_1">
    <path d="M 380.443313 395.954854 
L 404.215204 420.220796 
L 391.391402 430.559355 
L 393.267255 435.645707 
L 393.042532 436.580679 
L 397.364317 437.581009 
L 400.515808 438.240674 
L 402.12678 439.870436 
L 403.732388 441.207027 
L 405.166765 442.012124 
L 405.735104 443.404236 
L 406.684052 446.193123 
L 407.495171 451.502948 
L 408.9718 454.225878 
L 409.245118 455.972132 
L 410.588012 456.580909 
L 410.689927 458.54977 
L 412.423206 460.05718 
L 414.668153 462.384414 
L 418.203168 464.934088 
L 419.419694 468.339461 
L 421.236178 473.947145 
L 423.171349 477.323801 
L 424.916798 481.150187 
L 427.151103 485.792746 
L 426.505713 486.337438 
L 427.058956 492.549154 
L 428.086707 495.107933 
L 428.823207 497.017671 
L 430.083188 498.510925 
L 430.096735 499.686849 
L 428.864175 499.939149 
L 424.842912 498.68199 
L 420.405526 497.423983 
L 416.160162 498.087006 
L 413.014081 499.66587 
L 409.475634 501.17469 
L 406.223602 503.576166 
L 403.79785 506.410085 
L 403.061475 509.161849 
L 403.687283 510.488144 
L 404.398856 513.034848 
L 404.013735 514.593695 
L 401.973869 515.22772 
L 399.025291 515.526598 
L 396.712535 516.859634 
L 395.435971 517.680336 
L 390.326811 517.296018 
L 389.279656 517.850904 
L 388.869696 518.497464 
L 390.283553 521.570066 
L 389.86406 523.756518 
L 387.75858 528.266486 
L 387.250936 530.54264 
L 385.992117 532.883056 
L 380.794622 534.428604 
L 377.371183 534.499675 
L 374.880984 534.298258 
L 370.949176 534.291453 
L 365.065091 533.872941 
L 364.876501 531.825491 
L 367.517371 529.136889 
L 363.711059 528.504897 
L 361.181654 525.425984 
L 358.043402 520.585934 
L 356.859421 516.387899 
L 355.182562 513.997649 
L 352.636534 509.511644 
L 350.454895 506.737916 
L 347.983198 504.382011 
L 344.369202 501.545056 
L 341.830381 499.040869 
L 339.086049 497.781722 
L 335.36595 495.364143 
L 331.643288 493.401233 
L 328.557735 491.791715 
L 325.858494 490.812404 
L 324.985484 490.616675 
L 324.653796 490.522703 
L 323.990869 489.852414 
L 322.36606 490.571702 
L 313.617145 486.451061 
L 302.325041 439.428509 
L 316.040176 435.84679 
L 322.063797 432.105838 
L 332.04673 425.445362 
L 336.459914 423.336588 
L 353.134231 412.813283 
L 374.806637 399.346266 
L 380.443313 395.954854 
" clip-path="url(#pbcbe3ed8ca)" style="fill: #e0bd1f; stroke: #0000ff; stroke-width: 0.5"/>
    <path d="M 206.380816 448.796026 
L 230.171014 464.592192 
L 247.997343 457.812415 
L 248.457715 459.391158 
L 248.652369 460.002111 
L 254.160774 478.655396 
L 253.468828 489.015796 
L 251.24245 494.933531 
L 250.509601 501.579078 
L 246.728971 511.492371 
L 239.064442 521.779082 
L 226.390116 533.555043 
L 223.427083 516.596863 
L 220.573628 518.178474 
L 203.654028 506.84748 
L 192.543261 499.532297 
L 190.704585 499.072781 
L 187.912604 499.494479 
L 184.743733 507.587538 
L 181.564226 511.427731 
L 178.512396 511.670497 
L 176.035607 519.781946 
L 171.656678 523.970357 
L 159.41585 497.095 
L 126.968784 510.132996 
L 124.730957 504.020253 
L 122.020445 496.617046 
L 125.915202 491.032342 
L 133.034368 495.276055 
L 138.528387 495.852415 
L 145.03548 495.436583 
L 154.012113 497.400067 
L 160.380779 495.618167 
L 161.472533 496.483115 
L 206.380816 448.796026 
" clip-path="url(#pbcbe3ed8ca)" style="fill: #e0bd1f; stroke: #0000ff; stroke-width: 0.5"/>
    <path d="M 302.325041 439.428509 
L 313.617145 486.451061 
L 322.36606 490.571702 
L 279.051924 508.769257 
L 277.724693 511.456108 
L 276.774321 505.683439 
L 260.133842 500.355862 
L 254.160774 478.655396 
L 248.652369 460.002111 
L 256.474882 455.525964 
L 270.066885 450.787749 
L 282.990882 446.976289 
L 290.744718 445.195356 
L 302.325041 439.428509 
" clip-path="url(#pbcbe3ed8ca)" style="fill: #e0bd1f; stroke: #0000ff; stroke-width: 0.5"/>
    <path d="M 520.502292 359.129616 
L 523.43437 359.931965 
L 528.200103 369.218009 
L 531.811505 374.617569 
L 534.726397 376.13973 
L 539.305287 376.855703 
L 543.629366 376.985787 
L 546.342538 376.541479 
L 547.94476 372.970516 
L 550.748258 372.344665 
L 554.352266 371.226896 
L 576.573768 364.276897 
L 583.196579 362.23834 
L 583.411838 366.082313 
L 583.220095 367.301841 
L 583.421726 368.070617 
L 578.778283 377.430365 
L 570.971367 393.124468 
L 578.782218 403.606312 
L 574.881264 412.93867 
L 575.351133 412.764587 
L 573.445143 416.373705 
L 578.477807 416.857273 
L 582.118492 418.58869 
L 584.036346 421.30913 
L 588.695339 420.584003 
L 591.030477 422.527626 
L 590.572171 423.816423 
L 585.364799 425.450665 
L 585.251054 434.231094 
L 586.930554 448.792066 
L 586.419506 448.993357 
L 584.735643 449.933385 
L 582.947914 450.409866 
L 580.998061 451.281698 
L 580.398024 451.979638 
L 579.050702 455.079266 
L 578.889825 457.146149 
L 578.992534 458.964453 
L 578.140091 460.325608 
L 577.032793 460.932127 
L 575.257401 461.107272 
L 573.917517 460.463388 
L 572.472431 460.714516 
L 570.742826 462.074373 
L 569.991845 463.609376 
L 568.519545 464.772252 
L 567.188302 464.143806 
L 565.979542 462.925576 
L 565.019492 462.32935 
L 563.683305 463.257833 
L 562.84075 466.253154 
L 561.999442 469.091362 
L 561.127224 470.681764 
L 559.76752 472.239946 
L 559.016539 472.770482 
L 557.710059 473.209644 
L 556.290984 473.261149 
L 555.165113 473.137509 
L 553.974927 472.841319 
L 552.216817 472.228356 
L 551.815961 471.759618 
L 551.416352 470.536242 
L 551.627915 468.800365 
L 552.634999 464.917774 
L 553.841308 461.304299 
L 554.685066 457.444888 
L 554.932528 454.84747 
L 554.228535 451.755583 
L 553.228889 450.080205 
L 552.239086 449.522595 
L 551.537588 449.691297 
L 550.796495 449.923093 
L 549.407127 450.878604 
L 548.958035 452.296457 
L 549.137396 453.42322 
L 548.52128 454.249945 
L 547.253149 454.315636 
L 544.88017 453.976981 
L 543.75185 454.351703 
L 542.163257 455.072822 
L 540.594484 455.222238 
L 539.532973 454.265429 
L 538.75598 453.312467 
L 538.404608 452.905525 
L 537.590513 453.048497 
L 536.36817 453.693633 
L 535.457603 454.416097 
L 534.845184 455.305917 
L 534.690498 456.117204 
L 534.866206 457.148699 
L 534.642261 457.622583 
L 532.821083 458.459647 
L 530.251417 459.261941 
L 528.243396 459.644405 
L 526.69814 459.975317 
L 525.917451 461.473001 
L 525.488134 463.414945 
L 524.917805 464.196609 
L 523.756034 464.604849 
L 520.108734 466.163031 
L 518.997739 466.741224 
L 518.073543 467.605315 
L 516.671794 468.838982 
L 515.672103 469.869178 
L 515.40736 470.57486 
L 515.179718 471.231632 
L 514.840728 471.428659 
L 514.062488 471.298575 
L 513.327585 470.630259 
L 513.081415 469.848595 
L 511.899869 467.063143 
L 510.90392 465.963408 
L 509.352429 464.713005 
L 508.100377 464.093599 
L 505.947646 463.569461 
L 504.680763 463.599084 
L 502.457482 463.899122 
L 500.766225 464.858527 
L 499.760344 465.794707 
L 499.342162 466.743774 
L 498.930171 468.22602 
L 498.660484 469.284541 
L 498.414269 469.991521 
L 497.762254 470.711388 
L 496.41618 471.026863 
L 493.672052 471.392591 
L 491.808829 471.575479 
L 490.082921 472.319777 
L 488.893937 472.254132 
L 488.234529 471.679787 
L 488.016775 470.9277 
L 486.633554 469.735246 
L 485.745257 469.409433 
L 484.778971 469.742988 
L 482.902118 470.547832 
L 481.401402 470.79896 
L 479.995912 470.83628 
L 478.654781 470.85691 
L 478.325678 471.191716 
L 477.523966 472.399608 
L 476.185329 474.084026 
L 475.963878 474.771674 
L 475.984901 475.600995 
L 476.587432 476.734202 
L 477.063738 478.090211 
L 476.905356 479.198986 
L 476.21379 480.088853 
L 475.216594 481.909707 
L 475.127514 483.063543 
L 475.816631 484.793023 
L 476.354802 486.082043 
L 476.05171 486.850865 
L 475.605068 487.623489 
L 474.995143 487.960892 
L 471.939194 487.839848 
L 467.095516 487.789641 
L 464.838875 488.092228 
L 461.545397 489.82041 
L 458.183907 491.573069 
L 456.842776 492.42812 
L 454.395594 494.443451 
L 451.84321 496.317155 
L 449.647142 497.683456 
L 447.753008 498.399475 
L 445.79202 499.215908 
L 444.380338 500.933752 
L 444.438507 502.591097 
L 445.063308 503.69213 
L 446.967374 504.346352 
L 448.064785 504.901366 
L 448.626473 505.328891 
L 448.825654 506.355239 
L 448.119212 507.433093 
L 447.334826 508.142622 
L 446.241112 508.750485 
L 445.22414 509.302902 
L 444.223247 509.799967 
L 443.381939 509.969966 
L 441.558267 509.855366 
L 439.841044 508.975838 
L 439.096253 507.381588 
L 438.471452 506.248335 
L 436.722027 502.528002 
L 435.241087 500.458569 
L 433.872742 499.647282 
L 432.875546 499.553311 
L 431.227582 499.531383 
L 430.636185 499.002146 
L 430.022519 497.737557 
L 428.97339 496.236026 
L 428.419095 495.053864 
L 427.78935 492.814478 
L 427.219021 491.320643 
L 427.011155 488.855905 
L 426.719198 486.761995 
L 427.247482 485.921083 
L 427.048301 485.35703 
L 426.059745 483.339149 
L 424.620894 480.37985 
L 423.382427 477.282817 
L 421.470923 473.437546 
L 420.33022 470.142188 
L 418.932168 466.380642 
L 418.402637 464.846937 
L 416.634683 463.416243 
L 414.604436 462.125879 
L 413.630757 461.184553 
L 412.603853 460.164649 
L 412.010006 459.631517 
L 411.094451 458.880728 
L 410.756708 458.460945 
L 410.703483 457.717898 
L 410.639168 456.564062 
L 409.979715 456.261428 
L 409.268329 455.724448 
L 409.097609 454.441826 
L 408.581663 453.316361 
L 408.026165 452.305451 
L 407.577073 451.312574 
L 407.380341 450.154889 
L 407.042598 448.234827 
L 406.796383 446.549156 
L 406.692472 445.893682 
L 406.067671 443.976216 
L 405.285735 441.954441 
L 402.770496 440.029232 
L 400.887453 438.145283 
L 398.510777 437.461483 
L 396.051213 437.057091 
L 393.605234 436.402915 
L 393.267255 435.645707 
L 391.391402 430.559355 
L 438.902825 392.257571 
L 458.894978 395.942549 
L 460.561228 395.346619 
L 463.075078 397.861045 
L 466.250022 396.430962 
L 470.72898 395.101978 
L 474.544411 392.819305 
L 479.168484 389.841996 
L 477.973575 388.403677 
L 480.019591 384.052559 
L 485.551124 382.438192 
L 486.692815 378.094157 
L 487.127452 373.042943 
L 491.288852 370.345114 
L 493.445095 363.843586 
L 496.550165 365.389137 
L 498.161456 369.373614 
L 498.240336 372.020518 
L 504.911353 376.431499 
L 510.921554 373.758364 
L 514.607239 373.669581 
L 519.753299 372.711995 
L 520.91419 367.600627 
L 519.525239 365.159942 
L 517.204453 363.126338 
L 518.346265 359.279678 
L 520.502292 359.129616 
" clip-path="url(#pbcbe3ed8ca)" style="fill: #e0bd1f; stroke: #0000ff; stroke-width: 0.5"/>
    <path d="M 303.007004 360.096151 
L 314.905037 380.113755 
L 313.755317 381.11105 
L 312.990955 385.559371 
L 310.788772 387.016777 
L 311.56724 390.986734 
L 310.358078 394.856819 
L 305.217854 404.304182 
L 301.098811 410.25454 
L 315.690797 434.075667 
L 302.186934 438.818309 
L 247.997343 457.812415 
L 230.171014 464.592192 
L 206.380816 448.796026 
L 177.095957 428.347988 
L 165.049252 420.204237 
L 145.156145 406.704643 
L 115.363636 387.153155 
L 133.578701 383.215277 
L 195.627995 388.495689 
L 204.1526 401.790484 
L 208.005738 407.837038 
L 251.250399 397.724891 
L 283.444067 367.103981 
L 303.007004 360.096151 
" clip-path="url(#pbcbe3ed8ca)" style="fill: #e0bd1f; stroke: #0000ff; stroke-width: 0.5"/>
    <path d="M 302.186934 438.818309 
L 290.535163 444.608078 
L 282.835592 446.376328 
L 269.879021 450.197406 
L 256.221818 454.958203 
L 248.457715 459.391158 
L 247.997343 457.812415 
L 302.186934 438.818309 
" clip-path="url(#pbcbe3ed8ca)" style="fill: #e0bd1f; stroke: #0000ff; stroke-width: 0.5"/>
    <path d="M 350.917289 315.232948 
L 358.823692 320.410116 
L 361.959218 321.787732 
L 369.772165 323.069171 
L 380.035152 333.383221 
L 388.977681 338.095563 
L 396.073124 348.724376 
L 397.422327 349.992704 
L 403.403441 358.897734 
L 407.044747 362.434851 
L 395.22834 385.923835 
L 374.374411 398.630889 
L 336.059181 422.601093 
L 331.636372 424.714345 
L 316.136141 434.803383 
L 315.690797 434.075667 
L 301.098811 410.25454 
L 305.217854 404.304182 
L 310.358078 394.856819 
L 311.56724 390.986734 
L 310.788772 387.016777 
L 312.990955 385.559371 
L 313.755317 381.11105 
L 314.905037 380.113755 
L 329.626469 367.343005 
L 347.930865 354.37237 
L 348.359763 351.906361 
L 349.9756 351.087635 
L 355.312907 340.560541 
L 355.183049 335.712277 
L 357.373957 332.315124 
L 355.061547 330.218472 
L 353.213591 321.494295 
L 351.111732 317.792137 
L 350.917289 315.232948 
" clip-path="url(#pbcbe3ed8ca)" style="fill: #e0bd1f; stroke: #0000ff; stroke-width: 0.5"/>
    <path d="M 412.297186 356.127278 
L 430.309463 365.954986 
L 435.318386 367.633577 
L 438.902825 392.257571 
L 404.215204 420.220796 
L 380.443313 395.954854 
L 395.863147 386.515821 
L 411.082563 356.262158 
L 412.297186 356.127278 
" clip-path="url(#pbcbe3ed8ca)" style="fill: #e0bd1f; stroke: #0000ff; stroke-width: 0.5"/>
    <path d="M 208.109079 315.687213 
L 232.661515 342.081088 
L 232.780302 341.644522 
L 232.975786 341.439799 
L 234.568075 341.125576 
L 235.268326 341.316159 
L 235.633328 341.894352 
L 236.324894 343.367558 
L 237.283742 345.394479 
L 238.610041 345.118919 
L 239.469922 345.243811 
L 240.799918 345.31335 
L 242.258588 345.722842 
L 243.075132 346.353884 
L 243.56382 345.989408 
L 244.778771 345.873509 
L 245.924417 344.585787 
L 246.406959 343.77705 
L 246.779354 344.284452 
L 247.20248 344.374574 
L 248.193485 344.579343 
L 248.594341 344.231649 
L 248.591847 343.595507 
L 248.426071 343.085554 
L 248.716825 342.928443 
L 249.175805 343.067521 
L 249.820382 343.495046 
L 250.702533 343.688225 
L 250.867062 343.067521 
L 251.511683 342.945178 
L 252.099338 343.206598 
L 252.740218 342.813796 
L 253.527098 342.163514 
L 253.864842 341.595613 
L 256.876206 340.164919 
L 258.478384 339.957554 
L 259.027735 339.700028 
L 260.231505 340.005211 
L 260.918172 340.005211 
L 261.30914 339.483669 
L 263.12288 339.818476 
L 264.431854 340.082492 
L 264.968823 339.875173 
L 264.852485 339.533876 
L 264.506101 338.691713 
L 264.717664 338.334979 
L 265.23606 338.015609 
L 265.876895 337.951263 
L 266.373022 338.50113 
L 266.908743 338.3659 
L 267.554567 338.255148 
L 268.134829 338.537151 
L 270.616662 337.737454 
L 271.700444 337.836616 
L 272.948798 338.611883 
L 283.444067 367.103981 
L 251.250399 397.724891 
L 208.005738 407.837038 
L 204.1526 401.790484 
L 195.627995 388.495689 
L 133.578701 383.215277 
L 115.363636 387.153155 
L 128.177885 367.786017 
L 139.133416 364.9581 
L 145.281078 363.52226 
L 142.446625 357.343586 
L 143.702418 354.483496 
L 154.07889 348.60231 
L 158.994321 341.188671 
L 160.74624 338.803717 
L 208.109079 315.687213 
" clip-path="url(#pbcbe3ed8ca)" style="fill: #e0bd1f; stroke: #0000ff; stroke-width: 0.5"/>
    <path d="M 520.444924 356.943155 
L 520.502292 359.129616 
L 518.346265 359.279678 
L 517.204453 363.126338 
L 519.525239 365.159942 
L 520.91419 367.600627 
L 519.753299 372.711995 
L 514.607239 373.669581 
L 510.921554 373.758364 
L 504.911353 376.431499 
L 498.240336 372.020518 
L 498.161456 369.373614 
L 496.550165 365.389137 
L 493.445095 363.843586 
L 491.288852 370.345114 
L 487.127452 373.042943 
L 486.692815 378.094157 
L 485.551124 382.438192 
L 480.019591 384.052559 
L 477.973575 388.403677 
L 479.168484 389.841996 
L 474.544411 392.819305 
L 470.72898 395.101978 
L 466.250022 396.430962 
L 463.075078 397.861045 
L 460.561228 395.346619 
L 458.894978 395.942549 
L 438.902825 392.257571 
L 435.318386 367.633577 
L 442.64109 370.098479 
L 446.670944 373.59363 
L 448.930077 374.714212 
L 452.051433 374.663977 
L 456.804349 371.435551 
L 459.398016 369.997918 
L 464.45032 368.596428 
L 475.651656 367.420081 
L 493.236639 363.290687 
L 505.188695 361.615371 
L 520.444924 356.943155 
" clip-path="url(#pbcbe3ed8ca)" style="fill: #e0bd1f; stroke: #0000ff; stroke-width: 0.5"/>
    <path d="M 336.876704 308.824739 
L 337.560876 308.984401 
L 338.273509 310.822037 
L 338.659533 311.763408 
L 339.155615 312.080182 
L 341.189603 310.801453 
L 344.098304 309.498247 
L 345.083119 310.573505 
L 346.627127 312.820632 
L 347.464738 313.783886 
L 348.106865 314.487017 
L 349.158489 314.982783 
L 350.917289 315.232948 
L 351.040286 317.83388 
L 353.134892 321.524589 
L 354.985734 330.263316 
L 357.265937 332.330199 
L 355.099577 335.688651 
L 355.229454 340.540939 
L 349.914414 351.025835 
L 348.285023 351.85001 
L 347.854459 354.323788 
L 329.575912 367.277363 
L 314.905037 380.113755 
L 303.007004 360.096151 
L 283.444067 367.103981 
L 272.948798 338.611883 
L 271.700444 337.836616 
L 273.654038 337.04466 
L 274.602953 335.008699 
L 276.024523 332.979229 
L 276.195243 332.252918 
L 276.202681 331.46481 
L 277.359463 330.708875 
L 278.072096 331.225271 
L 278.279962 332.059738 
L 278.420974 332.76287 
L 278.929482 333.587045 
L 279.60252 334.0403 
L 280.060297 333.53554 
L 279.948948 332.932869 
L 280.234759 332.155053 
L 280.702424 332.100952 
L 281.74661 332.330199 
L 282.560704 332.731948 
L 283.436619 333.201985 
L 283.992161 333.796914 
L 284.646625 335.017739 
L 285.715575 335.141333 
L 286.763502 335.3474 
L 288.250633 335.040919 
L 289.594214 335.518652 
L 291.036806 334.801381 
L 291.756877 334.229631 
L 293.173502 333.597337 
L 294.760803 332.252918 
L 296.037619 331.070756 
L 297.427031 330.260766 
L 297.973843 328.908605 
L 299.623054 327.172727 
L 301.24131 326.862352 
L 301.645908 326.20303 
L 302.630722 326.410349 
L 303.712054 326.407799 
L 304.394979 326.36144 
L 305.433018 325.472871 
L 306.568777 324.315187 
L 307.487984 323.372517 
L 308.88234 323.466534 
L 310.900249 323.033862 
L 312.726372 322.545792 
L 314.610618 320.769953 
L 316.064345 319.442315 
L 316.785618 318.31291 
L 316.74727 316.474023 
L 317.686342 315.888087 
L 318.339559 316.382602 
L 318.542482 318.731442 
L 318.431133 319.627752 
L 318.980439 319.820885 
L 321.362059 319.743651 
L 324.056703 319.532438 
L 327.142315 318.914329 
L 328.646772 318.524123 
L 330.813132 316.252518 
L 332.749356 314.414882 
L 334.68558 313.017659 
L 334.744996 311.889598 
L 334.174622 311.164586 
L 334.581669 310.039075 
L 335.076548 309.174984 
L 335.84735 309.216197 
L 336.876704 308.824739 
" clip-path="url(#pbcbe3ed8ca)" style="fill: #e0bd1f; stroke: #0000ff; stroke-width: 0.5"/>
    <path d="M 508.027036 325.868798 
L 520.289961 356.305534 
L 505.053845 361.000201 
L 493.122224 362.672431 
L 475.547681 366.799867 
L 464.333856 367.977308 
L 459.161705 369.412411 
L 456.478365 370.899122 
L 451.855992 374.039223 
L 449.070915 374.083785 
L 447.018509 373.065968 
L 442.954907 369.541907 
L 436.216231 367.283926 
L 435.268715 365.705588 
L 433.918248 356.381224 
L 508.027036 325.868798 
" clip-path="url(#pbcbe3ed8ca)" style="fill: #e0bd1f; stroke: #0000ff; stroke-width: 0.5"/>
    <path d="M 226.390116 533.555043 
L 256.656197 535.897767 
L 284.00347 560.868673 
L 305.014187 563.610007 
L 283.867744 538.003584 
L 338.632091 542.238675 
L 336.572438 544.323097 
L 332.843115 548.071235 
L 331.083321 551.831485 
L 330.32667 554.937528 
L 328.879731 558.288211 
L 328.063345 566.651994 
L 320.118914 563.785051 
L 322.305128 568.76382 
L 322.253544 572.723258 
L 320.805786 574.407041 
L 318.527565 577.797394 
L 315.440504 577.307394 
L 313.389961 576.416545 
L 311.047709 576.800148 
L 309.164514 576.257349 
L 307.372517 573.987757 
L 306.704906 572.493378 
L 305.424278 573.167748 
L 302.672658 575.964361 
L 301.17073 577.809848 
L 298.36399 579.53467 
L 293.755107 582.444875 
L 291.222032 584.277127 
L 285.703926 583.098349 
L 274.883441 586.587384 
L 272.608574 588.307434 
L 271.218152 592.852453 
L 271.332157 601.313003 
L 243.637562 625.230306 
L 240.865735 624.530685 
L 238.079415 624.935393 
L 237.124511 619.621965 
L 239.427565 617.001776 
L 237.067012 614.87189 
L 235.959128 613.032475 
L 246.023564 596.426097 
L 221.570768 587.59781 
L 220.578583 538.845535 
L 226.390116 533.555043 
" clip-path="url(#pbcbe3ed8ca)" style="fill: #e0bd1f; stroke: #0000ff; stroke-width: 0.5"/>
    <path d="M 260.133842 500.355862 
L 276.774321 505.683439 
L 277.724693 511.456108 
L 271.817685 523.412313 
L 305.014187 563.610007 
L 284.00347 560.868673 
L 254.326127 533.770026 
L 265.421051 519.562242 
L 260.133842 500.355862 
" clip-path="url(#pbcbe3ed8ca)" style="fill: #e0bd1f; stroke: #0000ff; stroke-width: 0.5"/>
    <path d="M 323.990869 489.852414 
L 324.653796 490.522703 
L 324.985484 490.616675 
L 325.858494 490.812404 
L 328.557735 491.791715 
L 331.643288 493.401233 
L 335.36595 495.364143 
L 339.086049 497.781722 
L 341.830381 499.040869 
L 344.369202 501.545056 
L 347.983198 504.382011 
L 350.454895 506.737916 
L 352.636534 509.511644 
L 355.182562 513.997649 
L 356.859421 516.387899 
L 358.043402 520.585934 
L 361.181654 525.425984 
L 363.711059 528.504897 
L 367.517371 529.136889 
L 364.876501 531.825491 
L 365.065091 533.872941 
L 362.035838 532.270948 
L 358.677095 532.104135 
L 356.324918 533.004848 
L 354.879692 534.695855 
L 354.37228 537.556498 
L 354.330887 541.160192 
L 353.178106 542.410371 
L 351.263909 542.077869 
L 350.151114 541.178923 
L 347.830884 538.690173 
L 345.027649 536.574413 
L 342.814143 536.730357 
L 338.632091 542.238675 
L 330.893996 527.683863 
L 324.886758 525.032612 
L 316.843318 520.496683 
L 286.425506 519.803281 
L 284.37342 519.074406 
L 280.661166 515.649735 
L 277.724693 511.456108 
L 279.051924 508.769257 
L 322.36606 490.571702 
L 323.990869 489.852414 
" clip-path="url(#pbcbe3ed8ca)" style="fill: #e0bd1f; stroke: #0000ff; stroke-width: 0.5"/>
    <path d="M 277.724693 511.456108 
L 280.661166 515.649735 
L 284.37342 519.074406 
L 286.425506 519.803281 
L 316.843318 520.496683 
L 324.886758 525.032612 
L 330.893996 527.683863 
L 338.632091 542.238675 
L 283.867744 538.003584 
L 271.817685 523.412313 
L 277.724693 511.456108 
" clip-path="url(#pbcbe3ed8ca)" style="fill: #e0bd1f; stroke: #0000ff; stroke-width: 0.5"/>
    <path d="M 254.160774 478.655396 
L 260.133842 500.355862 
L 265.421051 519.562242 
L 254.326127 533.770026 
L 256.656197 535.897767 
L 226.390116 533.555043 
L 239.064442 521.779082 
L 246.728971 511.492371 
L 250.509601 501.579078 
L 251.24245 494.933531 
L 253.468828 489.015796 
L 254.160774 478.655396 
" clip-path="url(#pbcbe3ed8ca)" style="fill: #e0bd1f; stroke: #0000ff; stroke-width: 0.5"/>
    <path d="M 400.776407 297.857843 
L 403.527522 310.239928 
L 406.652284 331.564318 
L 406.749196 333.729072 
L 429.628199 333.250388 
L 434.099626 366.342709 
L 430.641859 365.183861 
L 412.464735 355.266079 
L 410.543421 355.479662 
L 407.438043 361.653227 
L 404.044122 358.356335 
L 398.058915 349.445812 
L 396.710953 348.17792 
L 389.55102 337.451964 
L 380.53369 332.700547 
L 371.619944 323.742787 
L 400.776407 297.857843 
" clip-path="url(#pbcbe3ed8ca)" style="fill: #e0bd1f; stroke: #0000ff; stroke-width: 0.5"/>
    <path d="M 476.806594 247.409694 
L 477.972831 247.923509 
L 480.640848 250.950259 
L 482.707757 251.566606 
L 484.882175 250.869147 
L 485.890502 249.613078 
L 487.164412 248.767861 
L 488.740122 249.01522 
L 489.043669 249.971318 
L 489.608452 255.192101 
L 490.983934 256.978168 
L 493.581462 258.462253 
L 496.111237 260.462991 
L 498.437399 261.989191 
L 502.855431 262.182459 
L 504.829642 263.02409 
L 504.260081 265.238027 
L 503.516928 266.905801 
L 504.195796 270.269786 
L 506.570579 275.06052 
L 507.776972 275.985169 
L 509.816 281.006038 
L 509.396758 284.675719 
L 506.270136 292.160911 
L 503.559501 294.992798 
L 506.713534 299.333872 
L 508.068601 304.906143 
L 507.428314 313.139932 
L 507.935812 315.297044 
L 511.940628 317.729712 
L 515.167651 321.153045 
L 516.778947 322.729434 
L 517.841102 324.299973 
L 508.027036 325.868798 
L 433.918248 356.381224 
L 426.71777 301.434558 
L 424.809479 287.192667 
L 443.114483 299.542345 
L 445.496703 282.967497 
L 447.309714 283.789149 
L 449.838647 283.549869 
L 451.518629 282.710412 
L 452.885233 278.149516 
L 453.820074 275.622571 
L 454.275506 271.775044 
L 455.578544 268.663747 
L 457.733248 265.971759 
L 459.944977 264.282493 
L 461.984407 263.538122 
L 463.864815 264.650784 
L 464.40716 264.567383 
L 466.047981 263.273913 
L 466.803562 260.608537 
L 467.723815 259.215266 
L 466.350704 257.247896 
L 465.973175 255.021701 
L 466.528877 253.895447 
L 472.32032 252.519741 
L 476.806594 247.409694 
" clip-path="url(#pbcbe3ed8ca)" style="fill: #e0bd1f; stroke: #0000ff; stroke-width: 0.5"/>
    <path d="M 622.636364 303.847559 
L 595.390532 319.771976 
L 589.971536 320.066868 
L 586.680552 340.537045 
L 569.131964 353.742999 
L 561.138359 357.695129 
L 550.06903 361.239065 
L 520.502292 359.129616 
L 520.458904 357.459485 
L 521.280392 357.298525 
L 544.343246 358.287508 
L 549.017406 357.465929 
L 572.422948 345.525815 
L 578.863859 338.408412 
L 580.775363 333.122154 
L 582.290956 313.830245 
L 582.335495 313.405269 
L 582.559396 311.266298 
L 582.673239 306.938148 
L 582.464125 304.184916 
L 622.636364 303.847559 
" clip-path="url(#pbcbe3ed8ca)" style="fill: #e0bd1f; stroke: #0000ff; stroke-width: 0.5"/>
    <path d="M 580.797633 304.197804 
L 581.007949 306.979361 
L 580.897847 311.155592 
L 580.80133 312.078883 
L 580.633059 313.675729 
L 579.134793 332.76287 
L 577.412626 337.524989 
L 571.398538 344.171104 
L 548.486628 355.858791 
L 544.234347 356.606984 
L 521.350898 355.625743 
L 520.106284 355.827916 
L 508.027036 325.868798 
L 517.841102 324.299973 
L 531.314176 336.570776 
L 553.216507 326.382023 
L 564.076723 308.204035 
L 580.797633 304.197804 
" clip-path="url(#pbcbe3ed8ca)" style="fill: #e0bd1f; stroke: #0000ff; stroke-width: 0.5"/>
   </g>
   <g id="PatchCollection_2">
    <path d="M 531.824168 351.444887 
L 550.712313 355.371443 
L 551.988404 355.631269 
L 561.138826 357.693952 
L 554.352662 371.226594 
L 544.456853 391.66873 
L 525.321132 430.97552 
L 483.873107 405.235926 
L 490.661648 441.286323 
L 417.223279 461.05012 
L 414.931594 462.246751 
L 414.66828 462.384249 
L 418.203086 464.933962 
L 419.419569 468.33946 
L 421.236302 473.947231 
L 423.171308 477.323801 
L 424.91663 481.150269 
L 427.150893 485.792869 
L 426.50559 486.337269 
L 427.058913 492.549237 
L 428.086708 495.107849 
L 428.82329 497.017714 
L 430.083106 498.51084 
L 430.096904 499.686683 
L 428.864217 499.939065 
L 424.843034 498.682201 
L 420.405691 497.424068 
L 416.160202 498.087132 
L 413.013998 499.665785 
L 409.475675 501.17469 
L 406.223518 503.576249 
L 403.797684 506.410083 
L 403.061349 509.16189 
L 403.687281 510.488269 
L 404.398899 513.034807 
L 404.013526 514.593734 
L 401.974035 515.227764 
L 399.025334 515.526514 
L 396.712454 516.859466 
L 395.435928 517.680461 
L 390.326728 517.296017 
L 389.27945 517.850776 
L 388.869822 518.497382 
L 390.283552 521.570108 
L 389.864145 523.756394 
L 387.758494 528.266694 
L 387.250767 530.542847 
L 385.992115 532.883224 
L 380.794621 534.428688 
L 377.371266 534.499718 
L 374.880902 534.298174 
L 370.94934 534.291664 
L 365.065257 533.872943 
L 364.8765 531.825574 
L 367.517163 529.136887 
L 363.71089 528.505062 
L 361.181444 525.426149 
L 358.043317 520.586101 
L 356.859422 516.387773 
L 355.182605 513.997524 
L 352.636701 509.511604 
L 350.454811 506.737957 
L 347.983071 504.382176 
L 344.369079 501.544928 
L 341.830217 499.040741 
L 339.086129 497.781932 
L 335.36591 495.364017 
L 331.643161 493.401399 
L 328.557571 491.791545 
L 325.858658 490.812573 
L 324.985443 490.616632 
L 324.653752 490.522828 
L 323.990702 489.852454 
L 322.366018 490.571701 
L 279.051714 508.769422 
L 271.817682 523.412522 
L 305.014226 563.610216 
L 284.003636 560.868675 
L 254.326001 533.77015 
L 265.421177 519.56216 
L 254.160564 478.655519 
L 248.652204 460.002067 
L 248.457632 459.391115 
L 247.997426 457.812416 
L 242.600303 450.672581 
L 242.23758 450.351193 
L 208.00578 407.836996 
L 251.250274 397.72489 
L 283.444027 367.103855 
L 354.388023 341.687845 
L 296.469675 393.598829 
L 300.913232 409.944428 
L 301.098894 410.254583 
L 315.690633 434.075497 
L 319.26625 432.913995 
L 322.063836 432.106006 
L 375.897432 414.210202 
L 388.082434 391.358681 
L 388.885344 389.909225 
L 399.289246 370.667273 
L 403.9333 368.778021 
L 404.923093 368.374878 
L 421.955025 361.361278 
L 422.703954 361.033941 
L 433.318317 356.596078 
L 433.918208 356.381056 
L 508.027077 325.868841 
L 531.824168 351.444887 
" clip-path="url(#pbcbe3ed8ca)" style="fill: none; stroke: #000000"/>
   </g>
   <g id="matplotlib.axis_1">
    <g id="xtick_1">
     <g id="line2d_1">
      <path d="M 146.446545 644.121337 
L 146.446545 228.518663 
" clip-path="url(#pbcbe3ed8ca)" style="fill: none; stroke: #b0b0b0; stroke-width: 0.8; stroke-linecap: square"/>
     </g>
     <g id="line2d_2">
      <defs>
       <path id="m8e4b1f5ecc" d="M 0 0 
L 0 3.5 
" style="stroke: #000000; stroke-width: 0.8"/>
      </defs>
      <g>
       <use xlink:href="#m8e4b1f5ecc" x="146.446545" y="644.121337" style="stroke: #000000; stroke-width: 0.8"/>
      </g>
     </g>
     <g id="text_1">
      <!-- −53.74 -->
      <g transform="translate(135.31348 682.662719) rotate(-45) scale(0.1 -0.1)">
       <defs>
        <path id="DejaVuSans-2212" d="M 678 2272 
L 4684 2272 
L 4684 1741 
L 678 1741 
L 678 2272 
z
" transform="scale(0.015625)"/>
        <path id="DejaVuSans-35" d="M 691 4666 
L 3169 4666 
L 3169 4134 
L 1269 4134 
L 1269 2991 
Q 1406 3038 1543 3061 
Q 1681 3084 1819 3084 
Q 2600 3084 3056 2656 
Q 3513 2228 3513 1497 
Q 3513 744 3044 326 
Q 2575 -91 1722 -91 
Q 1428 -91 1123 -41 
Q 819 9 494 109 
L 494 744 
Q 775 591 1075 516 
Q 1375 441 1709 441 
Q 2250 441 2565 725 
Q 2881 1009 2881 1497 
Q 2881 1984 2565 2268 
Q 2250 2553 1709 2553 
Q 1456 2553 1204 2497 
Q 953 2441 691 2322 
L 691 4666 
z
" transform="scale(0.015625)"/>
        <path id="DejaVuSans-33" d="M 2597 2516 
Q 3050 2419 3304 2112 
Q 3559 1806 3559 1356 
Q 3559 666 3084 287 
Q 2609 -91 1734 -91 
Q 1441 -91 1130 -33 
Q 819 25 488 141 
L 488 750 
Q 750 597 1062 519 
Q 1375 441 1716 441 
Q 2309 441 2620 675 
Q 2931 909 2931 1356 
Q 2931 1769 2642 2001 
Q 2353 2234 1838 2234 
L 1294 2234 
L 1294 2753 
L 1863 2753 
Q 2328 2753 2575 2939 
Q 2822 3125 2822 3475 
Q 2822 3834 2567 4026 
Q 2313 4219 1838 4219 
Q 1578 4219 1281 4162 
Q 984 4106 628 3988 
L 628 4550 
Q 988 4650 1302 4700 
Q 1616 4750 1894 4750 
Q 2613 4750 3031 4423 
Q 3450 4097 3450 3541 
Q 3450 3153 3228 2886 
Q 3006 2619 2597 2516 
z
" transform="scale(0.015625)"/>
        <path id="DejaVuSans-2e" d="M 684 794 
L 1344 794 
L 1344 0 
L 684 0 
L 684 794 
z
" transform="scale(0.015625)"/>
        <path id="DejaVuSans-37" d="M 525 4666 
L 3525 4666 
L 3525 4397 
L 1831 0 
L 1172 0 
L 2766 4134 
L 525 4134 
L 525 4666 
z
" transform="scale(0.015625)"/>
        <path id="DejaVuSans-34" d="M 2419 4116 
L 825 1625 
L 2419 1625 
L 2419 4116 
z
M 2253 4666 
L 3047 4666 
L 3047 1625 
L 3713 1625 
L 3713 1100 
L 3047 1100 
L 3047 0 
L 2419 0 
L 2419 1100 
L 313 1100 
L 313 1709 
L 2253 4666 
z
" transform="scale(0.015625)"/>
       </defs>
       <use xlink:href="#DejaVuSans-2212"/>
       <use xlink:href="#DejaVuSans-35" transform="translate(83.789062 0)"/>
       <use xlink:href="#DejaVuSans-33" transform="translate(147.412109 0)"/>
       <use xlink:href="#DejaVuSans-2e" transform="translate(211.035156 0)"/>
       <use xlink:href="#DejaVuSans-37" transform="translate(242.822266 0)"/>
       <use xlink:href="#DejaVuSans-34" transform="translate(306.445312 0)"/>
      </g>
     </g>
    </g>
    <g id="xtick_2">
     <g id="line2d_3">
      <path d="M 235.525676 644.121337 
L 235.525676 228.518663 
" clip-path="url(#pbcbe3ed8ca)" style="fill: none; stroke: #b0b0b0; stroke-width: 0.8; stroke-linecap: square"/>
     </g>
     <g id="line2d_4">
      <g>
       <use xlink:href="#m8e4b1f5ecc" x="235.525676" y="644.121337" style="stroke: #000000; stroke-width: 0.8"/>
      </g>
     </g>
     <g id="text_2">
      <!-- −53.72 -->
      <g transform="translate(224.392611 682.662719) rotate(-45) scale(0.1 -0.1)">
       <defs>
        <path id="DejaVuSans-32" d="M 1228 531 
L 3431 531 
L 3431 0 
L 469 0 
L 469 531 
Q 828 903 1448 1529 
Q 2069 2156 2228 2338 
Q 2531 2678 2651 2914 
Q 2772 3150 2772 3378 
Q 2772 3750 2511 3984 
Q 2250 4219 1831 4219 
Q 1534 4219 1204 4116 
Q 875 4013 500 3803 
L 500 4441 
Q 881 4594 1212 4672 
Q 1544 4750 1819 4750 
Q 2544 4750 2975 4387 
Q 3406 4025 3406 3419 
Q 3406 3131 3298 2873 
Q 3191 2616 2906 2266 
Q 2828 2175 2409 1742 
Q 1991 1309 1228 531 
z
" transform="scale(0.015625)"/>
       </defs>
       <use xlink:href="#DejaVuSans-2212"/>
       <use xlink:href="#DejaVuSans-35" transform="translate(83.789062 0)"/>
       <use xlink:href="#DejaVuSans-33" transform="translate(147.412109 0)"/>
       <use xlink:href="#DejaVuSans-2e" transform="translate(211.035156 0)"/>
       <use xlink:href="#DejaVuSans-37" transform="translate(242.822266 0)"/>
       <use xlink:href="#DejaVuSans-32" transform="translate(306.445312 0)"/>
      </g>
     </g>
    </g>
    <g id="xtick_3">
     <g id="line2d_5">
      <path d="M 324.604806 644.121337 
L 324.604806 228.518663 
" clip-path="url(#pbcbe3ed8ca)" style="fill: none; stroke: #b0b0b0; stroke-width: 0.8; stroke-linecap: square"/>
     </g>
     <g id="line2d_6">
      <g>
       <use xlink:href="#m8e4b1f5ecc" x="324.604806" y="644.121337" style="stroke: #000000; stroke-width: 0.8"/>
      </g>
     </g>
     <g id="text_3">
      <!-- −53.70 -->
      <g transform="translate(313.471742 682.662719) rotate(-45) scale(0.1 -0.1)">
       <defs>
        <path id="DejaVuSans-30" d="M 2034 4250 
Q 1547 4250 1301 3770 
Q 1056 3291 1056 2328 
Q 1056 1369 1301 889 
Q 1547 409 2034 409 
Q 2525 409 2770 889 
Q 3016 1369 3016 2328 
Q 3016 3291 2770 3770 
Q 2525 4250 2034 4250 
z
M 2034 4750 
Q 2819 4750 3233 4129 
Q 3647 3509 3647 2328 
Q 3647 1150 3233 529 
Q 2819 -91 2034 -91 
Q 1250 -91 836 529 
Q 422 1150 422 2328 
Q 422 3509 836 4129 
Q 1250 4750 2034 4750 
z
" transform="scale(0.015625)"/>
       </defs>
       <use xlink:href="#DejaVuSans-2212"/>
       <use xlink:href="#DejaVuSans-35" transform="translate(83.789062 0)"/>
       <use xlink:href="#DejaVuSans-33" transform="translate(147.412109 0)"/>
       <use xlink:href="#DejaVuSans-2e" transform="translate(211.035156 0)"/>
       <use xlink:href="#DejaVuSans-37" transform="translate(242.822266 0)"/>
       <use xlink:href="#DejaVuSans-30" transform="translate(306.445312 0)"/>
      </g>
     </g>
    </g>
    <g id="xtick_4">
     <g id="line2d_7">
      <path d="M 413.683937 644.121337 
L 413.683937 228.518663 
" clip-path="url(#pbcbe3ed8ca)" style="fill: none; stroke: #b0b0b0; stroke-width: 0.8; stroke-linecap: square"/>
     </g>
     <g id="line2d_8">
      <g>
       <use xlink:href="#m8e4b1f5ecc" x="413.683937" y="644.121337" style="stroke: #000000; stroke-width: 0.8"/>
      </g>
     </g>
     <g id="text_4">
      <!-- −53.68 -->
      <g transform="translate(402.550872 682.662719) rotate(-45) scale(0.1 -0.1)">
       <defs>
        <path id="DejaVuSans-36" d="M 2113 2584 
Q 1688 2584 1439 2293 
Q 1191 2003 1191 1497 
Q 1191 994 1439 701 
Q 1688 409 2113 409 
Q 2538 409 2786 701 
Q 3034 994 3034 1497 
Q 3034 2003 2786 2293 
Q 2538 2584 2113 2584 
z
M 3366 4563 
L 3366 3988 
Q 3128 4100 2886 4159 
Q 2644 4219 2406 4219 
Q 1781 4219 1451 3797 
Q 1122 3375 1075 2522 
Q 1259 2794 1537 2939 
Q 1816 3084 2150 3084 
Q 2853 3084 3261 2657 
Q 3669 2231 3669 1497 
Q 3669 778 3244 343 
Q 2819 -91 2113 -91 
Q 1303 -91 875 529 
Q 447 1150 447 2328 
Q 447 3434 972 4092 
Q 1497 4750 2381 4750 
Q 2619 4750 2861 4703 
Q 3103 4656 3366 4563 
z
" transform="scale(0.015625)"/>
        <path id="DejaVuSans-38" d="M 2034 2216 
Q 1584 2216 1326 1975 
Q 1069 1734 1069 1313 
Q 1069 891 1326 650 
Q 1584 409 2034 409 
Q 2484 409 2743 651 
Q 3003 894 3003 1313 
Q 3003 1734 2745 1975 
Q 2488 2216 2034 2216 
z
M 1403 2484 
Q 997 2584 770 2862 
Q 544 3141 544 3541 
Q 544 4100 942 4425 
Q 1341 4750 2034 4750 
Q 2731 4750 3128 4425 
Q 3525 4100 3525 3541 
Q 3525 3141 3298 2862 
Q 3072 2584 2669 2484 
Q 3125 2378 3379 2068 
Q 3634 1759 3634 1313 
Q 3634 634 3220 271 
Q 2806 -91 2034 -91 
Q 1263 -91 848 271 
Q 434 634 434 1313 
Q 434 1759 690 2068 
Q 947 2378 1403 2484 
z
M 1172 3481 
Q 1172 3119 1398 2916 
Q 1625 2713 2034 2713 
Q 2441 2713 2670 2916 
Q 2900 3119 2900 3481 
Q 2900 3844 2670 4047 
Q 2441 4250 2034 4250 
Q 1625 4250 1398 4047 
Q 1172 3844 1172 3481 
z
" transform="scale(0.015625)"/>
       </defs>
       <use xlink:href="#DejaVuSans-2212"/>
       <use xlink:href="#DejaVuSans-35" transform="translate(83.789062 0)"/>
       <use xlink:href="#DejaVuSans-33" transform="translate(147.412109 0)"/>
       <use xlink:href="#DejaVuSans-2e" transform="translate(211.035156 0)"/>
       <use xlink:href="#DejaVuSans-36" transform="translate(242.822266 0)"/>
       <use xlink:href="#DejaVuSans-38" transform="translate(306.445312 0)"/>
      </g>
     </g>
    </g>
    <g id="xtick_5">
     <g id="line2d_9">
      <path d="M 502.763068 644.121337 
L 502.763068 228.518663 
" clip-path="url(#pbcbe3ed8ca)" style="fill: none; stroke: #b0b0b0; stroke-width: 0.8; stroke-linecap: square"/>
     </g>
     <g id="line2d_10">
      <g>
       <use xlink:href="#m8e4b1f5ecc" x="502.763068" y="644.121337" style="stroke: #000000; stroke-width: 0.8"/>
      </g>
     </g>
     <g id="text_5">
      <!-- −53.66 -->
      <g transform="translate(491.630003 682.662719) rotate(-45) scale(0.1 -0.1)">
       <use xlink:href="#DejaVuSans-2212"/>
       <use xlink:href="#DejaVuSans-35" transform="translate(83.789062 0)"/>
       <use xlink:href="#DejaVuSans-33" transform="translate(147.412109 0)"/>
       <use xlink:href="#DejaVuSans-2e" transform="translate(211.035156 0)"/>
       <use xlink:href="#DejaVuSans-36" transform="translate(242.822266 0)"/>
       <use xlink:href="#DejaVuSans-36" transform="translate(306.445312 0)"/>
      </g>
     </g>
    </g>
    <g id="xtick_6">
     <g id="line2d_11">
      <path d="M 591.842198 644.121337 
L 591.842198 228.518663 
" clip-path="url(#pbcbe3ed8ca)" style="fill: none; stroke: #b0b0b0; stroke-width: 0.8; stroke-linecap: square"/>
     </g>
     <g id="line2d_12">
      <g>
       <use xlink:href="#m8e4b1f5ecc" x="591.842198" y="644.121337" style="stroke: #000000; stroke-width: 0.8"/>
      </g>
     </g>
     <g id="text_6">
      <!-- −53.64 -->
      <g transform="translate(580.709133 682.662719) rotate(-45) scale(0.1 -0.1)">
       <use xlink:href="#DejaVuSans-2212"/>
       <use xlink:href="#DejaVuSans-35" transform="translate(83.789062 0)"/>
       <use xlink:href="#DejaVuSans-33" transform="translate(147.412109 0)"/>
       <use xlink:href="#DejaVuSans-2e" transform="translate(211.035156 0)"/>
       <use xlink:href="#DejaVuSans-36" transform="translate(242.822266 0)"/>
       <use xlink:href="#DejaVuSans-34" transform="translate(306.445312 0)"/>
      </g>
     </g>
    </g>
    <g id="text_7">
     <!-- Longitude (°) -->
     <g transform="translate(336.139844 695.731717) scale(0.1 -0.1)">
      <defs>
       <path id="DejaVuSans-4c" d="M 628 4666 
L 1259 4666 
L 1259 531 
L 3531 531 
L 3531 0 
L 628 0 
L 628 4666 
z
" transform="scale(0.015625)"/>
       <path id="DejaVuSans-6f" d="M 1959 3097 
Q 1497 3097 1228 2736 
Q 959 2375 959 1747 
Q 959 1119 1226 758 
Q 1494 397 1959 397 
Q 2419 397 2687 759 
Q 2956 1122 2956 1747 
Q 2956 2369 2687 2733 
Q 2419 3097 1959 3097 
z
M 1959 3584 
Q 2709 3584 3137 3096 
Q 3566 2609 3566 1747 
Q 3566 888 3137 398 
Q 2709 -91 1959 -91 
Q 1206 -91 779 398 
Q 353 888 353 1747 
Q 353 2609 779 3096 
Q 1206 3584 1959 3584 
z
" transform="scale(0.015625)"/>
       <path id="DejaVuSans-6e" d="M 3513 2113 
L 3513 0 
L 2938 0 
L 2938 2094 
Q 2938 2591 2744 2837 
Q 2550 3084 2163 3084 
Q 1697 3084 1428 2787 
Q 1159 2491 1159 1978 
L 1159 0 
L 581 0 
L 581 3500 
L 1159 3500 
L 1159 2956 
Q 1366 3272 1645 3428 
Q 1925 3584 2291 3584 
Q 2894 3584 3203 3211 
Q 3513 2838 3513 2113 
z
" transform="scale(0.015625)"/>
       <path id="DejaVuSans-67" d="M 2906 1791 
Q 2906 2416 2648 2759 
Q 2391 3103 1925 3103 
Q 1463 3103 1205 2759 
Q 947 2416 947 1791 
Q 947 1169 1205 825 
Q 1463 481 1925 481 
Q 2391 481 2648 825 
Q 2906 1169 2906 1791 
z
M 3481 434 
Q 3481 -459 3084 -895 
Q 2688 -1331 1869 -1331 
Q 1566 -1331 1297 -1286 
Q 1028 -1241 775 -1147 
L 775 -588 
Q 1028 -725 1275 -790 
Q 1522 -856 1778 -856 
Q 2344 -856 2625 -561 
Q 2906 -266 2906 331 
L 2906 616 
Q 2728 306 2450 153 
Q 2172 0 1784 0 
Q 1141 0 747 490 
Q 353 981 353 1791 
Q 353 2603 747 3093 
Q 1141 3584 1784 3584 
Q 2172 3584 2450 3431 
Q 2728 3278 2906 2969 
L 2906 3500 
L 3481 3500 
L 3481 434 
z
" transform="scale(0.015625)"/>
       <path id="DejaVuSans-69" d="M 603 3500 
L 1178 3500 
L 1178 0 
L 603 0 
L 603 3500 
z
M 603 4863 
L 1178 4863 
L 1178 4134 
L 603 4134 
L 603 4863 
z
" transform="scale(0.015625)"/>
       <path id="DejaVuSans-74" d="M 1172 4494 
L 1172 3500 
L 2356 3500 
L 2356 3053 
L 1172 3053 
L 1172 1153 
Q 1172 725 1289 603 
Q 1406 481 1766 481 
L 2356 481 
L 2356 0 
L 1766 0 
Q 1100 0 847 248 
Q 594 497 594 1153 
L 594 3053 
L 172 3053 
L 172 3500 
L 594 3500 
L 594 4494 
L 1172 4494 
z
" transform="scale(0.015625)"/>
       <path id="DejaVuSans-75" d="M 544 1381 
L 544 3500 
L 1119 3500 
L 1119 1403 
Q 1119 906 1312 657 
Q 1506 409 1894 409 
Q 2359 409 2629 706 
Q 2900 1003 2900 1516 
L 2900 3500 
L 3475 3500 
L 3475 0 
L 2900 0 
L 2900 538 
Q 2691 219 2414 64 
Q 2138 -91 1772 -91 
Q 1169 -91 856 284 
Q 544 659 544 1381 
z
M 1991 3584 
L 1991 3584 
z
" transform="scale(0.015625)"/>
       <path id="DejaVuSans-64" d="M 2906 2969 
L 2906 4863 
L 3481 4863 
L 3481 0 
L 2906 0 
L 2906 525 
Q 2725 213 2448 61 
Q 2172 -91 1784 -91 
Q 1150 -91 751 415 
Q 353 922 353 1747 
Q 353 2572 751 3078 
Q 1150 3584 1784 3584 
Q 2172 3584 2448 3432 
Q 2725 3281 2906 2969 
z
M 947 1747 
Q 947 1113 1208 752 
Q 1469 391 1925 391 
Q 2381 391 2643 752 
Q 2906 1113 2906 1747 
Q 2906 2381 2643 2742 
Q 2381 3103 1925 3103 
Q 1469 3103 1208 2742 
Q 947 2381 947 1747 
z
" transform="scale(0.015625)"/>
       <path id="DejaVuSans-65" d="M 3597 1894 
L 3597 1613 
L 953 1613 
Q 991 1019 1311 708 
Q 1631 397 2203 397 
Q 2534 397 2845 478 
Q 3156 559 3463 722 
L 3463 178 
Q 3153 47 2828 -22 
Q 2503 -91 2169 -91 
Q 1331 -91 842 396 
Q 353 884 353 1716 
Q 353 2575 817 3079 
Q 1281 3584 2069 3584 
Q 2775 3584 3186 3129 
Q 3597 2675 3597 1894 
z
M 3022 2063 
Q 3016 2534 2758 2815 
Q 2500 3097 2075 3097 
Q 1594 3097 1305 2825 
Q 1016 2553 972 2059 
L 3022 2063 
z
" transform="scale(0.015625)"/>
       <path id="DejaVuSans-20" transform="scale(0.015625)"/>
       <path id="DejaVuSans-28" d="M 1984 4856 
Q 1566 4138 1362 3434 
Q 1159 2731 1159 2009 
Q 1159 1288 1364 580 
Q 1569 -128 1984 -844 
L 1484 -844 
Q 1016 -109 783 600 
Q 550 1309 550 2009 
Q 550 2706 781 3412 
Q 1013 4119 1484 4856 
L 1984 4856 
z
" transform="scale(0.015625)"/>
       <path id="DejaVuSans-b0" d="M 1600 4347 
Q 1350 4347 1178 4173 
Q 1006 4000 1006 3750 
Q 1006 3503 1178 3333 
Q 1350 3163 1600 3163 
Q 1850 3163 2022 3333 
Q 2194 3503 2194 3750 
Q 2194 3997 2020 4172 
Q 1847 4347 1600 4347 
z
M 1600 4750 
Q 1800 4750 1984 4673 
Q 2169 4597 2303 4453 
Q 2447 4313 2519 4134 
Q 2591 3956 2591 3750 
Q 2591 3338 2302 3052 
Q 2013 2766 1594 2766 
Q 1172 2766 890 3047 
Q 609 3328 609 3750 
Q 609 4169 896 4459 
Q 1184 4750 1600 4750 
z
" transform="scale(0.015625)"/>
       <path id="DejaVuSans-29" d="M 513 4856 
L 1013 4856 
Q 1481 4119 1714 3412 
Q 1947 2706 1947 2009 
Q 1947 1309 1714 600 
Q 1481 -109 1013 -844 
L 513 -844 
Q 928 -128 1133 580 
Q 1338 1288 1338 2009 
Q 1338 2731 1133 3434 
Q 928 4138 513 4856 
z
" transform="scale(0.015625)"/>
      </defs>
      <use xlink:href="#DejaVuSans-4c"/>
      <use xlink:href="#DejaVuSans-6f" transform="translate(53.962891 0)"/>
      <use xlink:href="#DejaVuSans-6e" transform="translate(115.144531 0)"/>
      <use xlink:href="#DejaVuSans-67" transform="translate(178.523438 0)"/>
      <use xlink:href="#DejaVuSans-69" transform="translate(242 0)"/>
      <use xlink:href="#DejaVuSans-74" transform="translate(269.783203 0)"/>
      <use xlink:href="#DejaVuSans-75" transform="translate(308.992188 0)"/>
      <use xlink:href="#DejaVuSans-64" transform="translate(372.371094 0)"/>
      <use xlink:href="#DejaVuSans-65" transform="translate(435.847656 0)"/>
      <use xlink:href="#DejaVuSans-20" transform="translate(497.371094 0)"/>
      <use xlink:href="#DejaVuSans-28" transform="translate(529.158203 0)"/>
      <use xlink:href="#DejaVuSans-b0" transform="translate(568.171875 0)"/>
      <use xlink:href="#DejaVuSans-29" transform="translate(618.171875 0)"/>
     </g>
    </g>
   </g>
   <g id="matplotlib.axis_2">
    <g id="ytick_1">
     <g id="line2d_13">
      <path d="M 90 599.681641 
L 648 599.681641 
" clip-path="url(#pbcbe3ed8ca)" style="fill: none; stroke: #b0b0b0; stroke-width: 0.8; stroke-linecap: square"/>
     </g>
     <g id="line2d_14">
      <defs>
       <path id="m98258e79c3" d="M 0 0 
L -3.5 0 
" style="stroke: #000000; stroke-width: 0.8"/>
      </defs>
      <g>
       <use xlink:href="#m98258e79c3" x="90" y="599.681641" style="stroke: #000000; stroke-width: 0.8"/>
      </g>
     </g>
     <g id="text_8">
      <!-- −16.14 -->
      <g transform="translate(45.992188 603.480859) scale(0.1 -0.1)">
       <defs>
        <path id="DejaVuSans-31" d="M 794 531 
L 1825 531 
L 1825 4091 
L 703 3866 
L 703 4441 
L 1819 4666 
L 2450 4666 
L 2450 531 
L 3481 531 
L 3481 0 
L 794 0 
L 794 531 
z
" transform="scale(0.015625)"/>
       </defs>
       <use xlink:href="#DejaVuSans-2212"/>
       <use xlink:href="#DejaVuSans-31" transform="translate(83.789062 0)"/>
       <use xlink:href="#DejaVuSans-36" transform="translate(147.412109 0)"/>
       <use xlink:href="#DejaVuSans-2e" transform="translate(211.035156 0)"/>
       <use xlink:href="#DejaVuSans-31" transform="translate(242.822266 0)"/>
       <use xlink:href="#DejaVuSans-34" transform="translate(306.445312 0)"/>
      </g>
     </g>
    </g>
    <g id="ytick_2">
     <g id="line2d_15">
      <path d="M 90 553.322348 
L 648 553.322348 
" clip-path="url(#pbcbe3ed8ca)" style="fill: none; stroke: #b0b0b0; stroke-width: 0.8; stroke-linecap: square"/>
     </g>
     <g id="line2d_16">
      <g>
       <use xlink:href="#m98258e79c3" x="90" y="553.322348" style="stroke: #000000; stroke-width: 0.8"/>
      </g>
     </g>
     <g id="text_9">
      <!-- −16.13 -->
      <g transform="translate(45.992188 557.121567) scale(0.1 -0.1)">
       <use xlink:href="#DejaVuSans-2212"/>
       <use xlink:href="#DejaVuSans-31" transform="translate(83.789062 0)"/>
       <use xlink:href="#DejaVuSans-36" transform="translate(147.412109 0)"/>
       <use xlink:href="#DejaVuSans-2e" transform="translate(211.035156 0)"/>
       <use xlink:href="#DejaVuSans-31" transform="translate(242.822266 0)"/>
       <use xlink:href="#DejaVuSans-33" transform="translate(306.445312 0)"/>
      </g>
     </g>
    </g>
    <g id="ytick_3">
     <g id="line2d_17">
      <path d="M 90 506.963056 
L 648 506.963056 
" clip-path="url(#pbcbe3ed8ca)" style="fill: none; stroke: #b0b0b0; stroke-width: 0.8; stroke-linecap: square"/>
     </g>
     <g id="line2d_18">
      <g>
       <use xlink:href="#m98258e79c3" x="90" y="506.963056" style="stroke: #000000; stroke-width: 0.8"/>
      </g>
     </g>
     <g id="text_10">
      <!-- −16.12 -->
      <g transform="translate(45.992188 510.762275) scale(0.1 -0.1)">
       <use xlink:href="#DejaVuSans-2212"/>
       <use xlink:href="#DejaVuSans-31" transform="translate(83.789062 0)"/>
       <use xlink:href="#DejaVuSans-36" transform="translate(147.412109 0)"/>
       <use xlink:href="#DejaVuSans-2e" transform="translate(211.035156 0)"/>
       <use xlink:href="#DejaVuSans-31" transform="translate(242.822266 0)"/>
       <use xlink:href="#DejaVuSans-32" transform="translate(306.445312 0)"/>
      </g>
     </g>
    </g>
    <g id="ytick_4">
     <g id="line2d_19">
      <path d="M 90 460.603764 
L 648 460.603764 
" clip-path="url(#pbcbe3ed8ca)" style="fill: none; stroke: #b0b0b0; stroke-width: 0.8; stroke-linecap: square"/>
     </g>
     <g id="line2d_20">
      <g>
       <use xlink:href="#m98258e79c3" x="90" y="460.603764" style="stroke: #000000; stroke-width: 0.8"/>
      </g>
     </g>
     <g id="text_11">
      <!-- −16.11 -->
      <g transform="translate(45.992188 464.402983) scale(0.1 -0.1)">
       <use xlink:href="#DejaVuSans-2212"/>
       <use xlink:href="#DejaVuSans-31" transform="translate(83.789062 0)"/>
       <use xlink:href="#DejaVuSans-36" transform="translate(147.412109 0)"/>
       <use xlink:href="#DejaVuSans-2e" transform="translate(211.035156 0)"/>
       <use xlink:href="#DejaVuSans-31" transform="translate(242.822266 0)"/>
       <use xlink:href="#DejaVuSans-31" transform="translate(306.445312 0)"/>
      </g>
     </g>
    </g>
    <g id="ytick_5">
     <g id="line2d_21">
      <path d="M 90 414.244472 
L 648 414.244472 
" clip-path="url(#pbcbe3ed8ca)" style="fill: none; stroke: #b0b0b0; stroke-width: 0.8; stroke-linecap: square"/>
     </g>
     <g id="line2d_22">
      <g>
       <use xlink:href="#m98258e79c3" x="90" y="414.244472" style="stroke: #000000; stroke-width: 0.8"/>
      </g>
     </g>
     <g id="text_12">
      <!-- −16.10 -->
      <g transform="translate(45.992188 418.04369) scale(0.1 -0.1)">
       <use xlink:href="#DejaVuSans-2212"/>
       <use xlink:href="#DejaVuSans-31" transform="translate(83.789062 0)"/>
       <use xlink:href="#DejaVuSans-36" transform="translate(147.412109 0)"/>
       <use xlink:href="#DejaVuSans-2e" transform="translate(211.035156 0)"/>
       <use xlink:href="#DejaVuSans-31" transform="translate(242.822266 0)"/>
       <use xlink:href="#DejaVuSans-30" transform="translate(306.445312 0)"/>
      </g>
     </g>
    </g>
    <g id="ytick_6">
     <g id="line2d_23">
      <path d="M 90 367.88518 
L 648 367.88518 
" clip-path="url(#pbcbe3ed8ca)" style="fill: none; stroke: #b0b0b0; stroke-width: 0.8; stroke-linecap: square"/>
     </g>
     <g id="line2d_24">
      <g>
       <use xlink:href="#m98258e79c3" x="90" y="367.88518" style="stroke: #000000; stroke-width: 0.8"/>
      </g>
     </g>
     <g id="text_13">
      <!-- −16.09 -->
      <g transform="translate(45.992188 371.684398) scale(0.1 -0.1)">
       <defs>
        <path id="DejaVuSans-39" d="M 703 97 
L 703 672 
Q 941 559 1184 500 
Q 1428 441 1663 441 
Q 2288 441 2617 861 
Q 2947 1281 2994 2138 
Q 2813 1869 2534 1725 
Q 2256 1581 1919 1581 
Q 1219 1581 811 2004 
Q 403 2428 403 3163 
Q 403 3881 828 4315 
Q 1253 4750 1959 4750 
Q 2769 4750 3195 4129 
Q 3622 3509 3622 2328 
Q 3622 1225 3098 567 
Q 2575 -91 1691 -91 
Q 1453 -91 1209 -44 
Q 966 3 703 97 
z
M 1959 2075 
Q 2384 2075 2632 2365 
Q 2881 2656 2881 3163 
Q 2881 3666 2632 3958 
Q 2384 4250 1959 4250 
Q 1534 4250 1286 3958 
Q 1038 3666 1038 3163 
Q 1038 2656 1286 2365 
Q 1534 2075 1959 2075 
z
" transform="scale(0.015625)"/>
       </defs>
       <use xlink:href="#DejaVuSans-2212"/>
       <use xlink:href="#DejaVuSans-31" transform="translate(83.789062 0)"/>
       <use xlink:href="#DejaVuSans-36" transform="translate(147.412109 0)"/>
       <use xlink:href="#DejaVuSans-2e" transform="translate(211.035156 0)"/>
       <use xlink:href="#DejaVuSans-30" transform="translate(242.822266 0)"/>
       <use xlink:href="#DejaVuSans-39" transform="translate(306.445312 0)"/>
      </g>
     </g>
    </g>
    <g id="ytick_7">
     <g id="line2d_25">
      <path d="M 90 321.525887 
L 648 321.525887 
" clip-path="url(#pbcbe3ed8ca)" style="fill: none; stroke: #b0b0b0; stroke-width: 0.8; stroke-linecap: square"/>
     </g>
     <g id="line2d_26">
      <g>
       <use xlink:href="#m98258e79c3" x="90" y="321.525887" style="stroke: #000000; stroke-width: 0.8"/>
      </g>
     </g>
     <g id="text_14">
      <!-- −16.08 -->
      <g transform="translate(45.992188 325.325106) scale(0.1 -0.1)">
       <use xlink:href="#DejaVuSans-2212"/>
       <use xlink:href="#DejaVuSans-31" transform="translate(83.789062 0)"/>
       <use xlink:href="#DejaVuSans-36" transform="translate(147.412109 0)"/>
       <use xlink:href="#DejaVuSans-2e" transform="translate(211.035156 0)"/>
       <use xlink:href="#DejaVuSans-30" transform="translate(242.822266 0)"/>
       <use xlink:href="#DejaVuSans-38" transform="translate(306.445312 0)"/>
      </g>
     </g>
    </g>
    <g id="ytick_8">
     <g id="line2d_27">
      <path d="M 90 275.166595 
L 648 275.166595 
" clip-path="url(#pbcbe3ed8ca)" style="fill: none; stroke: #b0b0b0; stroke-width: 0.8; stroke-linecap: square"/>
     </g>
     <g id="line2d_28">
      <g>
       <use xlink:href="#m98258e79c3" x="90" y="275.166595" style="stroke: #000000; stroke-width: 0.8"/>
      </g>
     </g>
     <g id="text_15">
      <!-- −16.07 -->
      <g transform="translate(45.992188 278.965814) scale(0.1 -0.1)">
       <use xlink:href="#DejaVuSans-2212"/>
       <use xlink:href="#DejaVuSans-31" transform="translate(83.789062 0)"/>
       <use xlink:href="#DejaVuSans-36" transform="translate(147.412109 0)"/>
       <use xlink:href="#DejaVuSans-2e" transform="translate(211.035156 0)"/>
       <use xlink:href="#DejaVuSans-30" transform="translate(242.822266 0)"/>
       <use xlink:href="#DejaVuSans-37" transform="translate(306.445312 0)"/>
      </g>
     </g>
    </g>
    <g id="ytick_9">
     <g id="line2d_29">
      <path d="M 90 228.807303 
L 648 228.807303 
" clip-path="url(#pbcbe3ed8ca)" style="fill: none; stroke: #b0b0b0; stroke-width: 0.8; stroke-linecap: square"/>
     </g>
     <g id="line2d_30">
      <g>
       <use xlink:href="#m98258e79c3" x="90" y="228.807303" style="stroke: #000000; stroke-width: 0.8"/>
      </g>
     </g>
     <g id="text_16">
      <!-- −16.06 -->
      <g transform="translate(45.992188 232.606522) scale(0.1 -0.1)">
       <use xlink:href="#DejaVuSans-2212"/>
       <use xlink:href="#DejaVuSans-31" transform="translate(83.789062 0)"/>
       <use xlink:href="#DejaVuSans-36" transform="translate(147.412109 0)"/>
       <use xlink:href="#DejaVuSans-2e" transform="translate(211.035156 0)"/>
       <use xlink:href="#DejaVuSans-30" transform="translate(242.822266 0)"/>
       <use xlink:href="#DejaVuSans-36" transform="translate(306.445312 0)"/>
      </g>
     </g>
    </g>
    <g id="text_17">
     <!-- Latitude (°) -->
     <g transform="translate(39.9125 464.889531) rotate(-90) scale(0.1 -0.1)">
      <defs>
       <path id="DejaVuSans-61" d="M 2194 1759 
Q 1497 1759 1228 1600 
Q 959 1441 959 1056 
Q 959 750 1161 570 
Q 1363 391 1709 391 
Q 2188 391 2477 730 
Q 2766 1069 2766 1631 
L 2766 1759 
L 2194 1759 
z
M 3341 1997 
L 3341 0 
L 2766 0 
L 2766 531 
Q 2569 213 2275 61 
Q 1981 -91 1556 -91 
Q 1019 -91 701 211 
Q 384 513 384 1019 
Q 384 1609 779 1909 
Q 1175 2209 1959 2209 
L 2766 2209 
L 2766 2266 
Q 2766 2663 2505 2880 
Q 2244 3097 1772 3097 
Q 1472 3097 1187 3025 
Q 903 2953 641 2809 
L 641 3341 
Q 956 3463 1253 3523 
Q 1550 3584 1831 3584 
Q 2591 3584 2966 3190 
Q 3341 2797 3341 1997 
z
" transform="scale(0.015625)"/>
      </defs>
      <use xlink:href="#DejaVuSans-4c"/>
      <use xlink:href="#DejaVuSans-61" transform="translate(55.712891 0)"/>
      <use xlink:href="#DejaVuSans-74" transform="translate(116.992188 0)"/>
      <use xlink:href="#DejaVuSans-69" transform="translate(156.201172 0)"/>
      <use xlink:href="#DejaVuSans-74" transform="translate(183.984375 0)"/>
      <use xlink:href="#DejaVuSans-75" transform="translate(223.193359 0)"/>
      <use xlink:href="#DejaVuSans-64" transform="translate(286.572266 0)"/>
      <use xlink:href="#DejaVuSans-65" transform="translate(350.048828 0)"/>
      <use xlink:href="#DejaVuSans-20" transform="translate(411.572266 0)"/>
      <use xlink:href="#DejaVuSans-28" transform="translate(443.359375 0)"/>
      <use xlink:href="#DejaVuSans-b0" transform="translate(482.373047 0)"/>
      <use xlink:href="#DejaVuSans-29" transform="translate(532.373047 0)"/>
     </g>
    </g>
   </g>
   <g id="patch_3">
    <path d="M 90 644.121337 
L 90 228.518663 
" style="fill: none; stroke: #000000; stroke-width: 0.8; stroke-linejoin: miter; stroke-linecap: square"/>
   </g>
   <g id="patch_4">
    <path d="M 648 644.121337 
L 648 228.518663 
" style="fill: none; stroke: #000000; stroke-width: 0.8; stroke-linejoin: miter; stroke-linecap: square"/>
   </g>
   <g id="patch_5">
    <path d="M 90 644.121337 
L 648 644.121337 
" style="fill: none; stroke: #000000; stroke-width: 0.8; stroke-linejoin: miter; stroke-linecap: square"/>
   </g>
   <g id="patch_6">
    <path d="M 90 228.518663 
L 648 228.518663 
" style="fill: none; stroke: #000000; stroke-width: 0.8; stroke-linejoin: miter; stroke-linecap: square"/>
   </g>
   <g id="legend_1">
    <g id="patch_7">
     <path d="M 279.8375 766.533746 
L 458.1625 766.533746 
Q 460.1625 766.533746 460.1625 764.533746 
L 460.1625 734.241871 
Q 460.1625 732.241871 458.1625 732.241871 
L 279.8375 732.241871 
Q 277.8375 732.241871 277.8375 734.241871 
L 277.8375 764.533746 
Q 277.8375 766.533746 279.8375 766.533746 
z
" style="fill: #ffffff; opacity: 0.8; stroke: #cccccc; stroke-linejoin: miter"/>
    </g>
    <g id="text_18">
     <!-- Legenda -->
     <g transform="translate(343.280625 745.359996) scale(0.12 -0.12)">
      <use xlink:href="#DejaVuSans-4c"/>
      <use xlink:href="#DejaVuSans-65" transform="translate(53.962891 0)"/>
      <use xlink:href="#DejaVuSans-67" transform="translate(115.486328 0)"/>
      <use xlink:href="#DejaVuSans-65" transform="translate(178.962891 0)"/>
      <use xlink:href="#DejaVuSans-6e" transform="translate(240.486328 0)"/>
      <use xlink:href="#DejaVuSans-64" transform="translate(303.865234 0)"/>
      <use xlink:href="#DejaVuSans-61" transform="translate(367.341797 0)"/>
     </g>
    </g>
    <g id="patch_8">
     <path d="M 281.8375 760.454059 
L 301.8375 760.454059 
L 301.8375 753.454059 
L 281.8375 753.454059 
L 281.8375 760.454059 
z
" style="fill: none; stroke: #000000; stroke-linejoin: miter"/>
    </g>
    <g id="text_19">
     <!-- Gleba Federal -->
     <g transform="translate(309.8375 760.454059) scale(0.1 -0.1)">
      <defs>
       <path id="DejaVuSans-47" d="M 3809 666 
L 3809 1919 
L 2778 1919 
L 2778 2438 
L 4434 2438 
L 4434 434 
Q 4069 175 3628 42 
Q 3188 -91 2688 -91 
Q 1594 -91 976 548 
Q 359 1188 359 2328 
Q 359 3472 976 4111 
Q 1594 4750 2688 4750 
Q 3144 4750 3555 4637 
Q 3966 4525 4313 4306 
L 4313 3634 
Q 3963 3931 3569 4081 
Q 3175 4231 2741 4231 
Q 1884 4231 1454 3753 
Q 1025 3275 1025 2328 
Q 1025 1384 1454 906 
Q 1884 428 2741 428 
Q 3075 428 3337 486 
Q 3600 544 3809 666 
z
" transform="scale(0.015625)"/>
       <path id="DejaVuSans-6c" d="M 603 4863 
L 1178 4863 
L 1178 0 
L 603 0 
L 603 4863 
z
" transform="scale(0.015625)"/>
       <path id="DejaVuSans-62" d="M 3116 1747 
Q 3116 2381 2855 2742 
Q 2594 3103 2138 3103 
Q 1681 3103 1420 2742 
Q 1159 2381 1159 1747 
Q 1159 1113 1420 752 
Q 1681 391 2138 391 
Q 2594 391 2855 752 
Q 3116 1113 3116 1747 
z
M 1159 2969 
Q 1341 3281 1617 3432 
Q 1894 3584 2278 3584 
Q 2916 3584 3314 3078 
Q 3713 2572 3713 1747 
Q 3713 922 3314 415 
Q 2916 -91 2278 -91 
Q 1894 -91 1617 61 
Q 1341 213 1159 525 
L 1159 0 
L 581 0 
L 581 4863 
L 1159 4863 
L 1159 2969 
z
" transform="scale(0.015625)"/>
       <path id="DejaVuSans-46" d="M 628 4666 
L 3309 4666 
L 3309 4134 
L 1259 4134 
L 1259 2759 
L 3109 2759 
L 3109 2228 
L 1259 2228 
L 1259 0 
L 628 0 
L 628 4666 
z
" transform="scale(0.015625)"/>
       <path id="DejaVuSans-72" d="M 2631 2963 
Q 2534 3019 2420 3045 
Q 2306 3072 2169 3072 
Q 1681 3072 1420 2755 
Q 1159 2438 1159 1844 
L 1159 0 
L 581 0 
L 581 3500 
L 1159 3500 
L 1159 2956 
Q 1341 3275 1631 3429 
Q 1922 3584 2338 3584 
Q 2397 3584 2469 3576 
Q 2541 3569 2628 3553 
L 2631 2963 
z
" transform="scale(0.015625)"/>
      </defs>
      <use xlink:href="#DejaVuSans-47"/>
      <use xlink:href="#DejaVuSans-6c" transform="translate(77.490234 0)"/>
      <use xlink:href="#DejaVuSans-65" transform="translate(105.273438 0)"/>
      <use xlink:href="#DejaVuSans-62" transform="translate(166.796875 0)"/>
      <use xlink:href="#DejaVuSans-61" transform="translate(230.273438 0)"/>
      <use xlink:href="#DejaVuSans-20" transform="translate(291.552734 0)"/>
      <use xlink:href="#DejaVuSans-46" transform="translate(323.339844 0)"/>
      <use xlink:href="#DejaVuSans-65" transform="translate(375.359375 0)"/>
      <use xlink:href="#DejaVuSans-64" transform="translate(436.882812 0)"/>
      <use xlink:href="#DejaVuSans-65" transform="translate(500.359375 0)"/>
      <use xlink:href="#DejaVuSans-72" transform="translate(561.882812 0)"/>
      <use xlink:href="#DejaVuSans-61" transform="translate(602.996094 0)"/>
      <use xlink:href="#DejaVuSans-6c" transform="translate(664.275391 0)"/>
     </g>
    </g>
    <g id="patch_9">
     <path d="M 399.045312 760.454059 
L 419.045312 760.454059 
L 419.045312 753.454059 
L 399.045312 753.454059 
z
" style="fill: #e0bd1f; opacity: 0.6"/>
    </g>
    <g id="text_20">
     <!-- SIGEF -->
     <g transform="translate(427.045312 760.454059) scale(0.1 -0.1)">
      <defs>
       <path id="DejaVuSans-53" d="M 3425 4513 
L 3425 3897 
Q 3066 4069 2747 4153 
Q 2428 4238 2131 4238 
Q 1616 4238 1336 4038 
Q 1056 3838 1056 3469 
Q 1056 3159 1242 3001 
Q 1428 2844 1947 2747 
L 2328 2669 
Q 3034 2534 3370 2195 
Q 3706 1856 3706 1288 
Q 3706 609 3251 259 
Q 2797 -91 1919 -91 
Q 1588 -91 1214 -16 
Q 841 59 441 206 
L 441 856 
Q 825 641 1194 531 
Q 1563 422 1919 422 
Q 2459 422 2753 634 
Q 3047 847 3047 1241 
Q 3047 1584 2836 1778 
Q 2625 1972 2144 2069 
L 1759 2144 
Q 1053 2284 737 2584 
Q 422 2884 422 3419 
Q 422 4038 858 4394 
Q 1294 4750 2059 4750 
Q 2388 4750 2728 4690 
Q 3069 4631 3425 4513 
z
" transform="scale(0.015625)"/>
       <path id="DejaVuSans-49" d="M 628 4666 
L 1259 4666 
L 1259 0 
L 628 0 
L 628 4666 
z
" transform="scale(0.015625)"/>
       <path id="DejaVuSans-45" d="M 628 4666 
L 3578 4666 
L 3578 4134 
L 1259 4134 
L 1259 2753 
L 3481 2753 
L 3481 2222 
L 1259 2222 
L 1259 531 
L 3634 531 
L 3634 0 
L 628 0 
L 628 4666 
z
" transform="scale(0.015625)"/>
      </defs>
      <use xlink:href="#DejaVuSans-53"/>
      <use xlink:href="#DejaVuSans-49" transform="translate(63.476562 0)"/>
      <use xlink:href="#DejaVuSans-47" transform="translate(92.96875 0)"/>
      <use xlink:href="#DejaVuSans-45" transform="translate(170.458984 0)"/>
      <use xlink:href="#DejaVuSans-46" transform="translate(233.642578 0)"/>
     </g>
    </g>
   </g>
  </g>
 </g>
 <defs>
  <clipPath id="pbcbe3ed8ca">
   <rect x="90" y="228.518663" width="558" height="415.602673"/>
  </clipPath>
 </defs>
</svg>
