<?xml version="1.0" encoding="utf-8" standalone="no"?>
<!DOCTYPE svg PUBLIC "-//W3C//DTD SVG 1.1//EN"
  "http://www.w3.org/Graphics/SVG/1.1/DTD/svg11.dtd">
<svg xmlns:xlink="http://www.w3.org/1999/xlink" width="720pt" height="864pt" viewBox="0 0 720 864" xmlns="http://www.w3.org/2000/svg" version="1.1">
 <metadata>
  <rdf:RDF xmlns:dc="http://purl.org/dc/elements/1.1/" xmlns:cc="http://creativecommons.org/ns#" xmlns:rdf="http://www.w3.org/1999/02/22-rdf-syntax-ns#">
   <cc:Work>
    <dc:type rdf:resource="http://purl.org/dc/dcmitype/StillImage"/>
    <dc:date>2025-06-16T17:43:37.351199</dc:date>
    <dc:format>image/svg+xml</dc:format>
    <dc:creator>
     <cc:Agent>
      <dc:title>Matplotlib v3.10.1, https://matplotlib.org/</dc:title>
     </cc:Agent>
    </dc:creator>
   </cc:Work>
  </rdf:RDF>
 </metadata>
 <defs>
  <style type="text/css">*{stroke-linejoin: round; stroke-linecap: butt}</style>
 </defs>
 <g id="figure_1">
  <g id="patch_1">
   <path d="M 0 864 
L 720 864 
L 720 0 
L 0 0 
z
" style="fill: #ffffff"/>
  </g>
  <g id="axes_1">
   <g id="patch_2">
    <path d="M 90 620.110496 
L 648 620.110496 
L 648 252.529504 
L 90 252.529504 
z
" style="fill: #ffffff"/>
   </g>
   <g id="PatchCollection_1">
    <path d="M 261.07025 284.544116 
L 261.390746 284.807864 
L 262.533379 285.379525 
L 264.230155 285.809476 
L 265.660295 285.827026 
L 266.930187 286.13004 
L 267.612921 286.766217 
L 269.343366 288.707045 
L 270.026124 289.038138 
L 272.32082 289.057077 
L 272.881022 289.682042 
L 273.750959 291.699306 
L 273.575222 292.527695 
L 272.015788 293.250863 
L 271.205117 293.631726 
L 269.923784 294.241263 
L 269.379071 294.926554 
L 269.060586 295.395796 
L 268.92591 296.044624 
L 268.997951 296.560858 
L 268.833 296.747439 
L 268.783842 296.88632 
L 268.619545 297.253876 
L 268.270106 297.758192 
L 267.755014 298.208496 
L 267.379299 298.710009 
L 267.037229 299.18627 
L 267.155737 299.513147 
L 267.572538 299.972566 
L 267.400169 300.176696 
L 267.132176 300.296639 
L 266.722792 300.240506 
L 266.646704 300.213866 
L 266.375365 299.960647 
L 265.971363 299.842118 
L 265.838045 300.002741 
L 265.364038 300.429889 
L 265.174145 300.742044 
L 265.140476 300.836736 
L 265.120963 301.493266 
L 265.129713 301.994072 
L 265.096044 302.512427 
L 264.967453 303.056715 
L 264.824027 303.396899 
L 264.795061 303.569465 
L 264.6631 304.099739 
L 264.645599 304.69102 
L 264.467825 305.463301 
L 264.405893 305.971834 
L 264.492744 306.328153 
L 264.832778 306.780552 
L 265.327 307.397817 
L 265.757933 307.86918 
L 266.376044 308.635123 
L 267.121413 309.474723 
L 267.715285 310.549286 
L 267.824363 310.794096 
L 268.255272 311.635085 
L 268.518563 312.51539 
L 268.541445 312.892744 
L 268.628974 313.378121 
L 268.618212 313.509301 
L 268.851179 314.300495 
L 268.717861 314.860237 
L 268.600687 315.169564 
L 268.598675 315.632493 
L 268.644464 316.176099 
L 268.82088 316.610975 
L 268.896968 317.206472 
L 268.976401 317.746569 
L 268.84781 318.709623 
L 268.791259 318.852721 
L 268.653893 319.559753 
L 268.651202 319.71126 
L 268.606092 320.32711 
L 268.585876 320.578914 
L 268.565685 320.633634 
L 268.517205 321.291552 
L 268.604056 321.877934 
L 268.703705 322.342278 
L 268.799331 322.921665 
L 269.592501 323.719879 
L 269.649731 323.815278 
L 269.840957 324.086728 
L 269.852398 324.56299 
L 269.834219 325.04064 
L 269.902235 325.358401 
L 269.851065 325.725224 
L 269.729188 326.291986 
L 269.579048 328.088327 
L 269.572988 329.164304 
L 269.744677 329.781543 
L 270.036232 330.25081 
L 269.970906 330.799315 
L 270.055066 331.24823 
L 270.373551 331.692221 
L 270.812555 332.1727 
L 271.08593 332.449755 
L 271.188949 332.780116 
L 271.412487 333.241657 
L 271.335066 333.536969 
L 270.37692 334.298695 
L 270.222053 334.746196 
L 270.198492 334.796016 
L 269.933213 334.913156 
L 269.819408 334.913156 
L 269.70696 334.932776 
L 268.484894 335.284196 
L 267.954312 335.515674 
L 267.791373 335.792729 
L 267.734119 336.380525 
L 267.177286 336.922718 
L 266.947688 337.233433 
L 266.646049 337.433347 
L 266.439334 337.55329 
L 266.019163 337.593969 
L 265.702715 337.649395 
L 265.352573 337.774944 
L 264.756011 338.313627 
L 264.433502 338.813044 
L 264.682637 339.335591 
L 264.824706 339.616182 
L 265.011884 339.80905 
L 265.107486 340.411593 
L 265.232053 341.333942 
L 265.42934 343.170281 
L 265.971363 343.729997 
L 266.386128 343.953066 
L 267.043968 343.915871 
L 267.575907 343.883625 
L 267.841186 344.002154 
L 268.375137 344.831932 
L 269.135995 345.69888 
L 269.914355 346.256526 
L 267.699796 346.410836 
L 266.307349 347.113651 
L 265.772743 348.115995 
L 265.374801 351.504547 
L 265.413172 351.90296 
L 266.529554 352.644359 
L 267.809553 354.137686 
L 267.305901 354.665157 
L 267.328105 355.32449 
L 267.757704 357.114518 
L 268.557613 358.251527 
L 268.972378 358.729178 
L 269.087516 359.77008 
L 270.014004 360.468704 
L 270.910872 361.834362 
L 271.399034 364.515907 
L 271.336423 366.341009 
L 272.423838 368.521016 
L 275.695513 368.745474 
L 279.501818 369.787083 
L 282.106902 371.274805 
L 282.911514 371.932724 
L 283.540411 372.225208 
L 283.730281 372.315001 
L 284.604266 372.512793 
L 284.683045 372.542261 
L 285.921279 372.599076 
L 286.56363 372.631347 
L 288.536471 373.160914 
L 289.439399 372.979939 
L 290.442654 372.621524 
L 291.294411 371.765081 
L 291.666756 371.330913 
L 292.290928 371.243923 
L 292.771673 370.865863 
L 293.581011 370.815361 
L 294.687284 370.686302 
L 295.368685 370.597923 
L 295.963914 370.694029 
L 297.426365 371.396137 
L 297.911837 371.640947 
L 298.353532 372.056884 
L 298.389892 372.151575 
L 298.493589 372.383027 
L 298.634979 372.484739 
L 299.509619 372.654477 
L 300.347244 372.773738 
L 300.754592 373.045188 
L 300.840788 373.189675 
L 301.094625 373.969658 
L 301.174083 374.458545 
L 301.178786 374.6325 
L 301.124925 375.149442 
L 301.098673 375.507175 
L 301.104055 375.975003 
L 301.138402 376.113884 
L 301.395609 376.501792 
L 301.994862 376.813922 
L 303.052656 377.076937 
L 303.926642 377.119031 
L 304.284176 377.25511 
L 305.247024 377.20039 
L 306.044242 376.961919 
L 312.118967 374.66265 
L 321.483546 371.206753 
L 333.752861 366.954031 
L 336.592924 365.959439 
L 337.718056 365.569435 
L 344.472849 366.301718 
L 357.95211 372.919614 
L 365.58828 375.066669 
L 371.253621 377.81975 
L 374.717202 381.0547 
L 379.17662 384.822726 
L 384.083139 390.120568 
L 390.416428 398.419079 
L 391.787301 401.096408 
L 391.757681 404.984377 
L 391.354357 409.852242 
L 396.507975 412.506415 
L 400.449609 414.309751 
L 407.103395 418.699259 
L 408.520761 421.217353 
L 408.623779 424.037073 
L 409.447928 428.226642 
L 409.39877 430.417886 
L 410.079492 433.694929 
L 412.070513 436.06432 
L 413.225945 436.955129 
L 416.252532 437.091915 
L 417.95132 439.311895 
L 419.702636 440.012614 
L 421.432402 444.09628 
L 427.378535 448.391802 
L 430.303437 451.414213 
L 431.885754 453.398524 
L 432.91526 454.738248 
L 433.171813 454.797159 
L 433.352253 454.690549 
L 433.148906 455.277638 
L 433.47413 455.32463 
L 434.027594 455.069316 
L 434.148138 455.390561 
L 434.403309 455.479647 
L 434.526543 455.941895 
L 434.302326 456.564739 
L 434.570296 456.737988 
L 434.552116 457.463276 
L 434.954761 457.916383 
L 435.065197 457.890425 
L 435.356073 458.033523 
L 435.469854 457.849745 
L 435.727739 458.175914 
L 435.76342 458.293054 
L 435.434173 458.090338 
L 435.128486 458.57362 
L 435.770159 458.641646 
L 436.369411 459.263809 
L 435.800458 459.208408 
L 435.881928 459.535966 
L 435.450341 459.387262 
L 435.442923 459.751308 
L 435.193788 459.544375 
L 435.012669 459.689569 
L 435.207944 460.113232 
L 435.44159 460.121641 
L 435.543251 460.578965 
L 435.882606 460.535482 
L 435.659068 461.020178 
L 436.206473 461.389829 
L 436.096715 461.604464 
L 436.15666 461.802963 
L 435.941872 461.939042 
L 435.922335 462.202765 
L 436.178864 462.286245 
L 436.079893 462.582946 
L 435.848259 462.804575 
L 436.095382 463.080949 
L 436.404438 462.909797 
L 436.489955 463.348182 
L 436.140492 463.592285 
L 436.485229 463.705915 
L 436.571425 464.232679 
L 436.879802 464.308432 
L 437.065647 464.127457 
L 437.374024 464.434688 
L 437.134997 464.658439 
L 437.603622 464.781184 
L 437.54169 465.032989 
L 437.542344 465.319867 
L 436.928281 465.693028 
L 436.815155 465.942737 
L 436.557948 466.081618 
L 436.302098 466.042353 
L 436.135111 466.522125 
L 436.295359 466.737441 
L 436.139135 467.064317 
L 436.13242 467.356094 
L 436.313539 467.805009 
L 436.137123 467.969141 
L 436.23207 468.599031 
L 435.958016 468.936412 
L 436.097394 469.059158 
L 436.193674 469.344622 
L 436.362697 469.515774 
L 436.494658 469.860174 
L 436.417891 470.124604 
L 436.653573 470.38204 
L 436.93502 470.41219 
L 436.972712 470.718713 
L 437.258886 470.710986 
L 437.311413 471.274946 
L 437.54169 471.340169 
L 437.491174 472.090002 
L 434.377736 494.832143 
L 435.004598 496.492406 
L 435.878558 496.678305 
L 436.34316 497.150349 
L 436.143183 497.366398 
L 435.820674 497.22681 
L 435.838175 497.622394 
L 436.212532 497.858089 
L 436.258321 497.654665 
L 436.467049 497.550858 
L 436.918173 497.570503 
L 437.367285 497.464575 
L 437.65884 498.388363 
L 437.985397 499.143094 
L 437.994826 499.515548 
L 437.726832 499.87116 
L 438.023768 500.426686 
L 437.605634 500.419666 
L 437.489841 500.905043 
L 437.590169 501.570007 
L 437.399597 501.850572 
L 437.684413 502.096771 
L 437.798218 502.476927 
L 438.027137 502.894985 
L 438.013684 503.36703 
L 438.141621 503.456823 
L 438.064176 503.991314 
L 438.423068 504.167365 
L 438.423722 504.353946 
L 438.103226 504.352532 
L 438.011648 504.614866 
L 438.320049 504.881417 
L 438.291762 505.430629 
L 438.435842 505.598953 
L 438.35573 506.116602 
L 438.833785 506.525544 
L 439.107838 507.06352 
L 439.688233 507.27116 
L 439.342139 507.442287 
L 438.842535 508.109346 
L 438.807533 508.628409 
L 439.363009 508.582098 
L 439.410155 508.776406 
L 439.1792 509.059774 
L 439.560296 510.394575 
L 439.369748 510.955706 
L 439.051263 510.989391 
L 438.818296 511.373057 
L 439.148222 511.662031 
L 439.103112 512.465876 
L 438.781257 512.168468 
L 438.319371 512.160059 
L 437.83322 512.595642 
L 438.205565 512.991226 
L 438.032543 513.513799 
L 437.519462 513.293558 
L 437.083827 513.861709 
L 437.303996 514.122629 
L 437.893819 514.356202 
L 437.809659 515.761858 
L 437.483781 515.998233 
L 437.850067 516.332811 
L 437.686449 516.513079 
L 437.914035 517.098047 
L 438.264831 516.954974 
L 438.345622 517.078402 
L 437.92075 517.614989 
L 437.420491 517.772126 
L 437.501282 518.044258 
L 437.312746 518.442671 
L 437.395573 518.988373 
L 437.217145 519.602127 
L 437.353154 520.386302 
L 437.02187 520.287418 
L 436.742436 520.840141 
L 436.45762 520.958669 
L 436.120955 521.248351 
L 435.209956 521.352158 
L 434.948046 521.791957 
L 435.181014 522.715038 
L 434.91639 522.917047 
L 435.082019 524.077893 
L 434.740652 523.828184 
L 434.416786 524.171171 
L 434.11985 524.197129 
L 433.980472 524.283412 
L 428.335323 473.093028 
L 403.852591 493.917496 
L 403.724654 494.292071 
L 400.652277 503.611133 
L 387.844988 499.681777 
L 373.434512 494.14266 
L 369.638994 497.973108 
L 365.523633 501.772723 
L 346.899505 488.783105 
L 312.261714 464.542713 
L 312.068451 464.591094 
L 299.629484 469.073879 
L 291.085683 472.192395 
L 285.528742 471.452411 
L 281.71771 473.600147 
L 278.556471 475.120821 
L 264.628752 466.426726 
L 241.900705 488.917062 
L 235.924296 475.659529 
L 225.494505 475.585165 
L 215.410808 475.484867 
L 212.45626 471.584272 
L 212.066414 471.976372 
L 202.004266 473.513182 
L 195.986771 479.344075 
L 193.698135 479.828771 
L 193.751996 480.061637 
L 187.182394 482.170108 
L 156.637058 403.750581 
L 115.363636 357.48417 
L 116.550046 351.923994 
L 128.482696 346.081157 
L 261.07025 284.544116 
" clip-path="url(#pd1164d5bde)" style="fill: #e0bd1f; stroke: #0000ff; stroke-width: 0.5"/>
    <path d="M 470.145361 431.364804 
L 474.466759 442.946671 
L 480.415583 452.831787 
L 480.751569 452.596118 
L 489.611818 461.701959 
L 514.524804 458.194145 
L 512.281302 532.471096 
L 512.41799 533.059574 
L 513.417197 532.272597 
L 515.655996 531.82507 
L 519.073787 531.021958 
L 519.175448 531.060542 
L 520.792791 530.357701 
L 524.108219 529.548276 
L 526.961784 528.385309 
L 528.377089 528.041616 
L 532.390788 525.726237 
L 535.386398 523.119738 
L 536.225356 523.226374 
L 536.432072 523.174457 
L 536.797024 522.80973 
L 539.218275 522.141963 
L 541.868494 523.608651 
L 541.669196 523.91727 
L 542.802399 524.990444 
L 542.91012 525.274519 
L 543.710708 525.848276 
L 543.829216 526.21722 
L 544.033895 526.423447 
L 544.724047 526.991597 
L 545.2149 527.430689 
L 545.783877 527.138887 
L 545.662679 527.420867 
L 545.85456 528.101234 
L 546.420823 528.221177 
L 547.525763 529.699076 
L 548.125695 530.205513 
L 548.447525 530.839594 
L 548.976773 530.695082 
L 549.197621 531.025468 
L 549.791492 531.362141 
L 550.143646 531.327774 
L 550.166528 531.884714 
L 550.806189 532.784614 
L 551.807432 532.391832 
L 552.408018 532.563666 
L 553.465812 532.187727 
L 554.024682 531.531198 
L 555.104025 530.907621 
L 555.806975 530.010498 
L 557.762291 529.339247 
L 558.122517 528.969595 
L 558.31847 529.234732 
L 558.761499 529.012396 
L 559.362109 529.773415 
L 559.628745 529.534943 
L 561.829851 530.599001 
L 561.52482 530.618647 
L 561.624493 531.068243 
L 561.346391 531.275858 
L 562.032519 531.887517 
L 561.592157 531.859463 
L 561.267613 531.950644 
L 561.4824 532.352542 
L 562.102547 532.14422 
L 562.865418 532.203156 
L 563.224965 532.77411 
L 562.379946 532.997153 
L 562.604163 533.440462 
L 562.482965 533.68454 
L 562.773841 534.013511 
L 562.7018 534.314429 
L 563.522579 534.713524 
L 563.419561 535.209431 
L 564.094902 535.742508 
L 564.863178 535.930503 
L 565.297455 535.45914 
L 565.626727 535.6864 
L 566.153261 535.304123 
L 565.959344 534.965353 
L 567.226544 534.386673 
L 567.205674 534.740189 
L 567.564542 535.122466 
L 567.890444 534.412631 
L 568.288362 534.594288 
L 568.129472 535.02285 
L 568.011643 535.52156 
L 568.089064 536.300154 
L 567.684407 536.190034 
L 567.569269 536.483225 
L 568.274909 537.08294 
L 568.037894 537.390145 
L 568.462088 537.921833 
L 568.991313 538.10349 
L 569.301047 538.878574 
L 570.247751 538.868751 
L 570.035654 540.031693 
L 569.892228 540.567598 
L 570.323815 541.520828 
L 570.69953 542.701319 
L 570.291503 543.035897 
L 571.495415 543.941428 
L 572.792236 543.975795 
L 572.815118 544.572707 
L 573.860114 545.776328 
L 573.732856 546.14247 
L 573.310698 546.739382 
L 573.788074 547.485704 
L 574.243246 547.210038 
L 574.291047 547.728393 
L 575.041797 547.490603 
L 575.645098 547.723494 
L 575.845754 549.100364 
L 575.904341 549.407594 
L 576.730502 549.205585 
L 577.281954 549.084228 
L 577.284644 548.732126 
L 578.166701 548.259374 
L 578.232003 548.549762 
L 579.611652 548.89136 
L 580.006903 549.297474 
L 580.452646 549.122812 
L 581.121249 549.649576 
L 581.6552 550.242296 
L 582.826097 549.756893 
L 582.892077 550.056397 
L 583.474507 550.351002 
L 583.773479 550.76204 
L 585.16389 551.654239 
L 585.670887 552.079317 
L 586.112606 552.35357 
L 586.732729 552.656583 
L 587.741366 552.369705 
L 589.507491 552.240621 
L 589.586949 552.637645 
L 589.398413 553.081636 
L 589.942472 553.971739 
L 591.029209 554.478858 
L 590.731594 555.625689 
L 591.140978 555.945545 
L 591.074997 556.38744 
L 590.923499 556.841254 
L 591.264867 556.94996 
L 591.605579 556.773202 
L 591.891728 557.099371 
L 591.645308 557.43256 
L 592.066787 557.682243 
L 592.169806 557.931952 
L 591.954364 558.524672 
L 592.28698 558.575174 
L 592.870744 559.566282 
L 594.250392 559.363565 
L 594.792415 559.606254 
L 595.061742 560.133018 
L 595.894641 560.090243 
L 596.673679 561.132534 
L 596.354516 561.667025 
L 597.695793 562.920467 
L 599.056583 562.375471 
L 599.881386 562.606923 
L 600.471234 563.041117 
L 600.457078 563.462659 
L 600.992386 563.734816 
L 601.160028 564.263676 
L 600.873879 564.349959 
L 601.016626 564.855689 
L 600.781622 565.475049 
L 600.614635 565.531865 
L 600.541262 565.205696 
L 599.915733 564.509193 
L 598.992615 564.752564 
L 598.841117 565.323543 
L 598.241185 565.524845 
L 598.113927 566.062139 
L 596.616449 567.143721 
L 596.961186 567.798837 
L 596.556529 569.062101 
L 597.203582 569.560104 
L 597.323448 569.842791 
L 596.897896 570.335895 
L 597.365867 570.668351 
L 598.103819 571.04573 
L 598.206159 571.792027 
L 598.826306 572.597261 
L 599.514422 572.728441 
L 599.962855 573.316919 
L 599.855813 573.889994 
L 599.738638 574.216137 
L 600.026824 574.382391 
L 600.935811 574.914054 
L 601.358672 575.61197 
L 602.413775 576.2685 
L 604.027725 575.514475 
L 604.388629 576.314785 
L 603.427114 580.082837 
L 602.182141 580.016199 
L 600.224789 580.23293 
L 598.356978 579.977615 
L 597.938844 579.551856 
L 597.155782 579.702656 
L 595.905428 580.615207 
L 594.638227 580.901378 
L 594.401211 581.555105 
L 594.199877 583.522598 
L 593.369014 584.927547 
L 591.662809 584.012193 
L 590.949072 584.010779 
L 589.163434 585.409414 
L 588.307628 585.728564 
L 587.641038 586.345121 
L 585.628468 586.392795 
L 584.844048 588.304888 
L 584.188244 588.490761 
L 583.179608 588.877937 
L 581.582481 590.171351 
L 579.608961 591.145641 
L 578.971991 592.605991 
L 577.43144 593.763327 
L 576.928467 595.445331 
L 575.882114 595.819199 
L 574.66138 595.783418 
L 573.533558 595.411671 
L 572.789546 595.417277 
L 572.356601 595.880231 
L 572.218556 597.210815 
L 572.256273 597.80702 
L 572.147849 598.6396 
L 571.77148 599.719794 
L 571.347286 600.630956 
L 571.069863 601.327459 
L 570.585749 601.74481 
L 569.70774 601.73077 
L 568.943512 601.85844 
L 568.473529 601.779883 
L 567.631201 601.611534 
L 567.059557 601.529468 
L 566.399027 601.30501 
L 566.380847 600.979548 
L 566.3162 600.550279 
L 566.689903 599.893749 
L 566.592944 599.264566 
L 565.713578 598.868275 
L 565.106908 598.723081 
L 563.422251 598.621369 
L 562.808188 598.746236 
L 562.490382 599.463091 
L 562.75903 600.591665 
L 562.699788 601.099491 
L 562.987974 601.549113 
L 563.028357 601.978383 
L 562.813569 602.117264 
L 561.813683 602.385911 
L 561.362559 602.748543 
L 560.747139 603.160262 
L 560.343815 603.402269 
L 560.072476 603.294952 
L 559.461758 603.018578 
L 559.222731 602.45674 
L 558.916366 601.915255 
L 558.608668 601.630472 
L 557.897646 601.529468 
L 557.306465 601.652921 
L 556.853304 602.136202 
L 556.233181 602.726094 
L 555.781378 602.983504 
L 555.670288 603.104861 
L 553.902126 602.496031 
L 554.522274 600.789458 
L 553.330482 600.84698 
L 553.258442 600.528538 
L 552.036351 599.498846 
L 550.785997 598.681694 
L 550.245307 598.579301 
L 550.528111 599.422386 
L 550.532135 599.857286 
L 551.495662 600.542577 
L 551.818873 601.018132 
L 549.741001 601.281173 
L 548.578152 601.819856 
L 547.150703 600.933263 
L 546.810693 600.84698 
L 546.414108 600.168002 
L 545.964317 600.117499 
L 544.408277 598.251718 
L 543.942997 597.955724 
L 543.247464 598.155637 
L 542.619245 598.77078 
L 541.923712 599.187424 
L 541.563462 599.425214 
L 541.116386 600.074017 
L 540.785103 600.990078 
L 540.667952 601.630472 
L 540.486834 601.898412 
L 540.191231 602.022572 
L 539.95087 601.892099 
L 539.332081 601.779883 
L 538.802177 601.845814 
L 537.889821 602.139005 
L 536.712186 601.772157 
L 535.488083 600.838571 
L 535.131881 601.691504 
L 534.780406 601.618554 
L 533.629023 601.711832 
L 532.930121 601.809326 
L 532.721393 601.031465 
L 532.38068 599.793452 
L 531.627918 599.611088 
L 530.920241 599.674897 
L 530.113594 599.860089 
L 529.435562 600.133635 
L 529.450372 600.938162 
L 529.455099 600.97114 
L 528.287548 601.588379 
L 527.354321 601.465633 
L 526.6608 601.032146 
L 525.731621 599.853777 
L 524.786929 599.46799 
L 524.298112 599.413977 
L 523.448367 599.77171 
L 523.298226 599.82292 
L 522.590549 600.271127 
L 521.831048 600.600074 
L 521.108561 601.156306 
L 521.0372 601.294481 
L 520.816352 601.439675 
L 518.74454 600.807714 
L 519.217868 600.207293 
L 518.444235 599.41327 
L 517.807265 599.776609 
L 516.564983 599.855165 
L 515.216991 599.818703 
L 515.686974 600.360188 
L 513.414506 601.06722 
L 511.460523 601.154918 
L 510.877414 601.384274 
L 509.632441 600.70671 
L 506.611913 600.901699 
L 506.436854 601.290971 
L 502.87091 602.271574 
L 501.038125 602.746421 
L 500.402513 602.750638 
L 498.980445 602.496031 
L 498.490271 602.368361 
L 497.66142 602.30594 
L 496.376039 602.254024 
L 496.007742 602.296825 
L 495.63942 602.230894 
L 495.308137 602.044313 
L 494.123763 601.282562 
L 492.90909 600.407888 
L 491.386039 600.734057 
L 489.436759 599.742949 
L 489.265748 598.954558 
L 488.862424 598.519658 
L 488.239586 598.104428 
L 487.515087 597.834392 
L 486.94211 597.84631 
L 486.786564 597.905928 
L 486.310522 598.270656 
L 485.555723 598.720278 
L 484.786114 599.169193 
L 484.684453 599.311584 
L 484.143084 599.479201 
L 482.065213 599.635632 
L 481.4296 599.937232 
L 480.911138 599.810976 
L 480.66942 599.360672 
L 481.799934 598.344314 
L 479.37798 599.048543 
L 479.182705 597.393179 
L 479.542276 596.134838 
L 479.104605 595.770793 
L 478.501304 595.84445 
L 477.968032 595.81079 
L 477.869061 594.790922 
L 478.109446 593.984981 
L 478.060288 593.632879 
L 477.390328 593.106115 
L 476.582348 593.528365 
L 475.891517 594.170855 
L 474.299093 593.652499 
L 474.298414 593.225351 
L 474.736086 593.071723 
L 474.657986 592.542863 
L 474.808126 591.563674 
L 474.249935 590.958354 
L 473.171949 590.884014 
L 472.212471 590.907851 
L 471.541832 590.940829 
L 471.017989 591.038324 
L 470.470585 591.313965 
L 470.03158 591.54264 
L 469.531298 591.517389 
L 468.886911 591.510369 
L 468.012272 591.594531 
L 467.081735 591.900373 
L 465.527707 592.091145 
L 464.6544 592.110791 
L 464.545322 592.028017 
L 464.604588 591.75937 
L 464.733179 591.490042 
L 464.931145 591.385527 
L 465.05976 591.262781 
L 465.234819 590.961156 
L 464.879975 590.411944 
L 464.326511 590.110344 
L 463.850468 589.926567 
L 474.121344 580.217501 
L 476.275304 581.971042 
L 528.867287 542.934893 
L 491.281663 536.569483 
L 485.156448 507.229066 
L 484.718776 507.272549 
L 447.298152 508.8311 
L 439.424287 507.715858 
L 439.854541 507.292901 
L 439.205451 506.883252 
L 439.021642 506.491859 
L 438.847916 506.253387 
L 438.569839 506.090669 
L 438.50318 505.924415 
L 438.633129 505.729426 
L 438.479619 505.445351 
L 438.454701 504.882806 
L 438.25676 504.510351 
L 438.603508 504.513154 
L 438.666798 504.19052 
L 438.631796 504.001818 
L 438.614295 503.97937 
L 438.297822 503.862937 
L 438.269534 503.785795 
L 438.205565 503.477175 
L 438.200184 503.414048 
L 438.177302 503.206407 
L 438.203554 502.871148 
L 438.196161 502.780648 
L 437.973956 502.491674 
L 437.915368 502.180933 
L 437.71001 501.886353 
L 437.688461 501.875824 
L 437.715391 501.739745 
L 437.880366 501.691339 
L 437.990778 501.471805 
L 437.936239 501.426909 
L 437.671639 501.093745 
L 437.68577 501.028496 
L 437.778026 500.821588 
L 437.998874 500.65185 
L 438.060128 500.653946 
L 438.23858 500.562057 
L 438.052734 500.082285 
L 438.076295 499.792604 
L 438.182005 499.613043 
L 438.196815 499.54431 
L 438.233853 499.288288 
L 438.181326 498.995779 
L 438.159801 498.938964 
L 437.953764 498.560904 
L 437.918059 498.442375 
L 437.879009 497.958386 
L 437.84534 497.886143 
L 437.577371 497.505961 
L 437.57468 497.465282 
L 437.456851 497.324305 
L 437.313425 497.205751 
L 436.708767 497.255571 
L 436.546506 497.155248 
L 436.515528 497.087929 
L 436.024675 496.538716 
L 435.512273 495.862541 
L 435.282675 495.103593 
L 435.175608 494.148973 
L 435.321725 493.186627 
L 435.600481 492.527976 
L 435.723037 491.752917 
L 435.521023 490.775142 
L 435.598469 490.38024 
L 435.66445 489.126091 
L 436.016603 488.851131 
L 436.658954 487.874771 
L 436.815155 486.932044 
L 437.503973 484.618762 
L 438.212304 483.212424 
L 437.827839 479.731958 
L 437.82716 477.623487 
L 438.132847 475.875553 
L 437.943656 473.881419 
L 438.217031 473.551059 
L 438.091106 471.71472 
L 437.811671 471.321938 
L 437.528891 470.618416 
L 437.095947 470.089531 
L 436.766021 469.238718 
L 436.871051 467.928462 
L 437.145759 467.481668 
L 437.582073 466.874934 
L 437.566584 466.493363 
L 437.391525 465.949757 
L 437.841971 465.603261 
L 437.899225 465.523997 
L 437.743 464.400321 
L 437.188179 463.966128 
L 436.879123 463.895298 
L 436.809773 463.804117 
L 436.720232 463.516531 
L 436.720232 463.144784 
L 436.391639 462.638347 
L 436.450227 462.373917 
L 436.44213 462.018987 
L 436.38827 461.798746 
L 436.39702 461.685823 
L 436.511504 461.442427 
L 436.413867 461.1808 
L 435.957337 460.947227 
L 436.027366 460.675777 
L 436.023996 460.404328 
L 435.867117 460.248604 
L 435.624721 460.149013 
L 435.558062 459.955413 
L 435.620018 459.744288 
L 435.846247 459.749894 
L 435.950623 459.794083 
L 436.275822 459.69169 
L 436.475799 459.616618 
L 436.641453 459.533163 
L 436.606427 459.310801 
L 436.329028 459.030943 
L 435.958016 458.578518 
L 435.918966 458.140133 
L 435.807197 457.858154 
L 435.498141 457.717176 
L 435.116367 457.689829 
L 434.875982 457.532717 
L 434.849052 457.081681 
L 434.704293 456.467245 
L 434.813371 456.040071 
L 434.82011 455.897705 
L 434.70565 455.486667 
L 434.463253 455.185749 
L 434.258549 454.996366 
L 433.729325 454.864504 
L 433.441818 454.94306 
L 433.481547 454.543941 
L 433.120643 454.63232 
L 432.91526 454.738248 
L 470.005305 431.3669 
L 470.145361 431.364804 
" clip-path="url(#pd1164d5bde)" style="fill: #e0bd1f; stroke: #0000ff; stroke-width: 0.5"/>
    <path d="M 504.256618 581.320825 
L 504.779128 584.233822 
L 508.803566 600.704589 
L 506.642891 600.811906 
L 506.298131 601.497904 
L 505.30971 602.094816 
L 503.882261 602.395027 
L 501.961923 602.564058 
L 500.846899 602.828488 
L 497.812918 602.350837 
L 496.656807 602.392224 
L 496.015135 602.488304 
L 495.329686 602.298214 
L 492.869361 600.461193 
L 491.39479 600.787362 
L 490.5592 600.527831 
L 490.260228 600.366501 
L 489.440807 599.776609 
L 489.225341 599.364182 
L 489.019982 598.669776 
L 488.286733 598.130386 
L 487.385139 597.823155 
L 486.565038 598.511956 
L 484.750433 599.460263 
L 482.857728 599.637728 
L 481.43903 599.954074 
L 480.902388 599.893042 
L 480.858611 599.749262 
L 492.553591 590.708645 
L 504.256618 581.320825 
" clip-path="url(#pd1164d5bde)" style="fill: #e0bd1f; stroke: #0000ff; stroke-width: 0.5"/>
    <path d="M 589.507491 552.240621 
L 589.586949 552.637645 
L 589.398413 553.081636 
L 589.942472 553.971739 
L 591.029209 554.478858 
L 590.731594 555.625689 
L 591.140978 555.945545 
L 591.074997 556.38744 
L 590.923499 556.841254 
L 591.264867 556.94996 
L 591.605579 556.773202 
L 591.891728 557.099371 
L 591.645308 557.43256 
L 592.066787 557.682243 
L 592.169806 557.931952 
L 591.954364 558.524672 
L 592.28698 558.575174 
L 592.870744 559.566282 
L 594.250392 559.363565 
L 594.792415 559.606254 
L 595.061742 560.133018 
L 595.894641 560.090243 
L 596.673679 561.132534 
L 596.354516 561.667025 
L 597.695793 562.920467 
L 599.056583 562.375471 
L 599.881386 562.606923 
L 600.471234 563.041117 
L 600.457078 563.462659 
L 600.992386 563.734816 
L 601.160028 564.263676 
L 600.873879 564.349959 
L 601.016626 564.855689 
L 600.781622 565.475049 
L 600.614635 565.531865 
L 600.541262 565.205696 
L 599.915733 564.509193 
L 598.992615 564.752564 
L 598.841117 565.323543 
L 598.241185 565.524845 
L 598.113927 566.062139 
L 596.616449 567.143721 
L 596.961186 567.798837 
L 596.556529 569.062101 
L 597.203582 569.560104 
L 597.323448 569.842791 
L 596.897896 570.335895 
L 597.365867 570.668351 
L 598.103819 571.04573 
L 598.206159 571.792027 
L 598.826306 572.597261 
L 599.514422 572.728441 
L 599.962855 573.316919 
L 599.855813 573.889994 
L 599.738638 574.216137 
L 600.026824 574.382391 
L 600.935811 574.914054 
L 601.358672 575.61197 
L 602.413775 576.2685 
L 604.027725 575.514475 
L 604.388629 576.314785 
L 603.427114 580.082837 
L 602.182141 580.016199 
L 600.224789 580.23293 
L 598.356978 579.977615 
L 597.938844 579.551856 
L 597.155782 579.702656 
L 595.905428 580.615207 
L 594.638227 580.901378 
L 594.401211 581.555105 
L 594.199877 583.522598 
L 593.369014 584.927547 
L 591.662809 584.012193 
L 590.949072 584.010779 
L 589.163434 585.409414 
L 588.307628 585.728564 
L 587.641038 586.345121 
L 585.628468 586.392795 
L 584.844048 588.304888 
L 584.188244 588.490761 
L 583.179608 588.877937 
L 581.582481 590.171351 
L 579.608961 591.145641 
L 578.971991 592.605991 
L 577.43144 593.763327 
L 576.928467 595.445331 
L 575.882114 595.819199 
L 574.66138 595.783418 
L 573.533558 595.411671 
L 572.789546 595.417277 
L 572.356601 595.880231 
L 572.218556 597.210815 
L 572.256273 597.80702 
L 572.147849 598.6396 
L 571.77148 599.719794 
L 571.347286 600.630956 
L 571.069863 601.327459 
L 570.585749 601.74481 
L 569.70774 601.73077 
L 568.943512 601.85844 
L 568.473529 601.779883 
L 567.631201 601.611534 
L 567.059557 601.529468 
L 566.399027 601.30501 
L 566.380847 600.979548 
L 566.3162 600.550279 
L 566.689903 599.893749 
L 566.592944 599.264566 
L 565.713578 598.868275 
L 565.106908 598.723081 
L 565.052368 597.975369 
L 564.148108 586.639701 
L 564.162918 583.324099 
L 564.751409 580.625737 
L 565.079977 579.755961 
L 565.411939 579.030697 
L 565.834097 578.231776 
L 566.79629 576.751782 
L 568.835791 574.0415 
L 576.592481 563.593132 
L 577.985583 562.07877 
L 583.018681 559.454747 
L 584.184196 558.528863 
L 588.399885 552.80458 
L 588.830138 552.290442 
L 589.507491 552.240621 
" clip-path="url(#pd1164d5bde)" style="fill: #e0bd1f; stroke: #0000ff; stroke-width: 0.5"/>
    <path d="M 488.071266 586.101018 
L 492.553591 590.708645 
L 480.858611 599.749262 
L 480.501755 599.359258 
L 481.135355 598.967184 
L 480.735401 598.615763 
L 479.629127 599.140432 
L 479.291129 599.153057 
L 479.390779 598.080591 
L 479.1733 597.819645 
L 479.445996 596.111001 
L 479.161835 595.803064 
L 478.414454 595.879524 
L 477.922922 595.803064 
L 477.993629 593.794209 
L 488.071266 586.101018 
" clip-path="url(#pd1164d5bde)" style="fill: #e0bd1f; stroke: #0000ff; stroke-width: 0.5"/>
    <path d="M 461.621753 568.707878 
L 474.121344 580.217501 
L 463.850468 589.926567 
L 463.919818 590.25622 
L 463.869981 590.933102 
L 463.834979 591.189124 
L 463.820823 591.220688 
L 463.603345 591.333611 
L 462.99602 591.626095 
L 462.6149 591.719398 
L 462.577886 591.719398 
L 462.193421 591.643644 
L 461.789418 591.647861 
L 461.489792 591.967692 
L 461.128888 592.329642 
L 460.718825 592.629828 
L 460.629963 592.676139 
L 460.126311 592.899182 
L 459.545893 592.916731 
L 459.190394 592.671922 
L 458.896149 591.893353 
L 458.521767 591.600844 
L 458.034962 591.614883 
L 457.707727 591.762173 
L 457.519869 591.701848 
L 457.437721 591.651346 
L 457.409434 591.598041 
L 457.36636 591.344141 
L 457.431661 590.872777 
L 457.566991 590.18678 
L 457.47139 589.613023 
L 456.400143 589.270037 
L 454.784836 589.552698 
L 453.757341 588.467606 
L 453.072571 587.700249 
L 453.605165 586.839614 
L 452.587099 586.253914 
L 451.035761 584.971029 
L 450.335502 585.781162 
L 449.55244 586.525364 
L 448.370756 586.817873 
L 448.35997 586.802444 
L 449.019167 586.136799 
L 448.36872 585.34207 
L 446.737925 585.600894 
L 445.43977 585.943198 
L 445.63839 584.29695 
L 444.412275 583.92591 
L 444.733451 583.235013 
L 445.352919 582.1001 
L 444.66747 581.548792 
L 443.915362 582.114847 
L 442.49533 581.390265 
L 441.745913 581.353096 
L 441.650966 581.242269 
L 461.621753 568.707878 
" clip-path="url(#pd1164d5bde)" style="fill: #e0bd1f; stroke: #0000ff; stroke-width: 0.5"/>
    <path d="M 510.259303 556.719897 
L 518.869083 567.084103 
L 503.811554 578.778893 
L 504.256618 581.320825 
L 492.553591 590.708645 
L 488.071266 586.101018 
L 480.760998 578.614761 
L 510.259303 556.719897 
" clip-path="url(#pd1164d5bde)" style="fill: #e0bd1f; stroke: #0000ff; stroke-width: 0.5"/>
    <path d="M 492.597343 543.899335 
L 495.502054 547.852553 
L 507.536389 552.484724 
L 510.259303 556.719897 
L 480.760998 578.614761 
L 476.275304 581.971042 
L 474.121344 580.217501 
L 461.621753 568.707878 
L 458.31573 565.663726 
L 481.441041 550.966853 
L 492.597343 543.899335 
" clip-path="url(#pd1164d5bde)" style="fill: #e0bd1f; stroke: #0000ff; stroke-width: 0.5"/>
    <path d="M 602.183635 490.456425 
L 602.12371 511.110251 
L 602.012634 527.426026 
L 601.049423 529.267278 
L 590.74414 536.71892 
L 588.393996 541.5243 
L 588.781819 550.418194 
L 588.226598 551.846001 
L 588.126596 551.978635 
L 587.586246 551.859468 
L 586.678181 552.045665 
L 585.528647 551.015618 
L 583.055707 549.592038 
L 580.195003 548.51311 
L 579.519878 548.294661 
L 577.952892 547.902454 
L 576.502738 548.792732 
L 575.958926 547.395456 
L 573.888094 546.458804 
L 574.302104 545.909232 
L 573.229309 543.856635 
L 571.600942 543.163135 
L 570.460545 540.579423 
L 570.792227 539.066662 
L 569.12385 537.851637 
L 568.792828 535.835062 
L 568.48264 534.330485 
L 567.341391 534.204771 
L 566.039747 534.513967 
L 565.183265 535.199154 
L 564.404583 535.615292 
L 563.72373 534.524879 
L 563.044496 533.404359 
L 562.708789 531.8092 
L 562.082088 530.591924 
L 560.976553 529.920685 
L 559.509553 529.086606 
L 558.862031 528.906704 
L 560.698627 526.275552 
L 561.84826 526.34613 
L 560.768105 492.465284 
L 602.183635 490.456425 
" clip-path="url(#pd1164d5bde)" style="fill: #e0bd1f; stroke: #0000ff; stroke-width: 0.5"/>
    <path d="M 444.083028 269.237731 
L 463.447823 282.154373 
L 487.694194 298.326343 
L 490.839968 300.179499 
L 491.022444 300.27909 
L 491.111331 299.955042 
L 491.249352 299.820377 
L 491.497808 300.054632 
L 491.546288 299.69551 
L 491.677594 299.640109 
L 491.915264 299.536984 
L 492.169101 299.038273 
L 492.192008 298.508706 
L 492.132742 298.099789 
L 492.002139 297.500075 
L 491.966434 297.300868 
L 491.841212 296.991542 
L 492.082251 296.551743 
L 492.258667 296.587524 
L 492.514517 296.588912 
L 492.744139 296.392534 
L 492.307146 296.071264 
L 492.280895 295.709339 
L 492.303777 295.498921 
L 492.192008 295.113842 
L 492.11861 294.934281 
L 491.812924 295.02266 
L 491.589386 295.188181 
L 491.585338 294.535161 
L 491.651318 294.002791 
L 491.862761 293.93686 
L 492.229046 294.024532 
L 492.412855 293.651371 
L 492.462013 292.858056 
L 492.158339 292.39091 
L 492.377853 292.059842 
L 492.578485 291.639006 
L 492.700362 291.419447 
L 493.39255 291.569566 
L 493.712368 291.829072 
L 493.999196 292.054236 
L 494.277297 291.916769 
L 494.604533 291.861343 
L 495.318245 291.440482 
L 494.556708 290.651383 
L 494.337218 290.404503 
L 494.393769 290.235447 
L 494.427438 290.114797 
L 494.632796 290.419224 
L 495.151258 290.356097 
L 495.846136 289.618915 
L 496.172693 289.623813 
L 496.591506 289.855972 
L 496.849391 290.39117 
L 496.828521 290.891976 
L 497.19614 291.083481 
L 497.550984 291.011919 
L 497.874196 290.678756 
L 498.32801 290.073435 
L 499.08819 289.808298 
L 499.394555 290.186358 
L 499.925792 290.119014 
L 500.429443 289.66169 
L 500.577572 289.572604 
L 500.570179 289.923317 
L 501.048233 289.976622 
L 501.306119 289.765497 
L 500.970812 289.240147 
L 501.355277 288.202022 
L 501.587566 287.746113 
L 501.962602 287.01032 
L 502.407011 286.454795 
L 502.202307 285.658676 
L 502.519435 285.544339 
L 502.787429 284.584114 
L 502.437965 283.589497 
L 502.84061 283.381882 
L 503.514618 283.42044 
L 504.209497 282.866329 
L 504.476787 281.940445 
L 504.693611 281.832421 
L 504.816821 281.758789 
L 505.092887 280.846237 
L 505.336641 280.51517 
L 505.591157 280.194606 
L 506.228781 279.659434 
L 506.445605 279.165622 
L 506.962709 278.686558 
L 507.234727 277.754361 
L 507.348532 276.961778 
L 507.555224 276.856557 
L 507.840718 276.610358 
L 507.599679 275.879464 
L 507.415846 275.673263 
L 507.019261 275.702024 
L 506.846214 275.742703 
L 506.535825 275.295884 
L 506.702812 275.227151 
L 507.281873 274.968326 
L 507.833325 274.462597 
L 508.040017 274.527845 
L 508.414398 274.62534 
L 508.564539 274.374925 
L 508.36861 274.201676 
L 508.185455 273.315083 
L 508.566575 273.431516 
L 508.621769 273.711375 
L 508.635924 273.767508 
L 509.0352 273.81238 
L 509.021723 273.308064 
L 509.297134 272.918767 
L 509.264798 272.322562 
L 508.843973 272.284685 
L 508.548395 272.278372 
L 508.427851 272.005534 
L 508.318773 271.905918 
L 508.833866 271.776859 
L 508.716037 271.433166 
L 508.738943 271.133662 
L 509.097157 270.998291 
L 509.899756 271.149798 
L 510.202073 271.142071 
L 510.212835 270.292648 
L 522.630278 284.70686 
L 528.608044 291.646001 
L 531.596939 295.11523 
L 538.434535 303.051817 
L 539.057372 303.788999 
L 543.920114 309.54275 
L 543.82987 311.004513 
L 545.425664 313.394964 
L 548.552579 314.992098 
L 562.171218 330.926278 
L 563.125316 334.036361 
L 557.994604 355.450746 
L 581.490225 364.373516 
L 580.831052 365.204001 
L 580.37251 367.066273 
L 579.569911 368.589043 
L 578.436028 370.057119 
L 577.735769 372.352878 
L 577.332445 373.884082 
L 576.16962 376.684156 
L 575.213511 377.659128 
L 574.609532 378.643923 
L 573.559155 380.007484 
L 572.899278 381.194995 
L 572.575412 382.013536 
L 572.187578 383.78604 
L 571.8617 385.224649 
L 570.440311 387.591944 
L 571.129784 388.56482 
L 571.531774 391.327699 
L 571.85564 392.434558 
L 572.015888 395.029113 
L 572.359292 396.363207 
L 572.648131 398.015061 
L 572.653537 400.233652 
L 572.916804 401.542494 
L 573.011072 403.141043 
L 572.643429 405.469754 
L 572.419891 406.448236 
L 571.589683 407.959795 
L 571.557347 409.079254 
L 571.252339 409.387192 
L 571.201169 410.747951 
L 569.976388 413.140497 
L 572.327635 413.952043 
L 572.768675 414.368687 
L 573.079743 414.246623 
L 575.175794 414.68011 
L 577.190376 415.607382 
L 578.32089 415.774317 
L 580.035846 416.29689 
L 581.057959 417.01935 
L 582.251762 417.308324 
L 583.793671 417.363044 
L 587.200676 417.28729 
L 589.941115 417.734791 
L 590.488519 417.527176 
L 591.655392 417.706737 
L 594.041665 417.831604 
L 595.061063 417.877182 
L 595.92225 418.319784 
L 597.526115 418.348545 
L 598.540812 417.717267 
L 600.226801 417.150505 
L 601.757269 417.06003 
L 604.898995 416.512232 
L 606.114347 416.94289 
L 608.193576 417.095104 
L 609.155745 417.356024 
L 611.089536 417.089498 
L 611.226903 416.576041 
L 616.26337 417.892611 
L 622.636364 417.558033 
L 622.095019 424.382862 
L 619.535724 431.398463 
L 618.604509 432.520044 
L 613.432033 435.680654 
L 612.162141 438.392349 
L 611.52585 441.449833 
L 609.565129 450.862198 
L 609.273598 452.260833 
L 607.640767 455.281148 
L 606.972843 455.921542 
L 606.012686 458.52592 
L 602.3875 467.005381 
L 601.355302 469.940827 
L 600.095519 473.522297 
L 598.888917 482.152583 
L 598.736062 483.29237 
L 598.90843 485.940255 
L 599.119873 486.894875 
L 602.186844 489.99165 
L 602.183635 490.456425 
L 575.971655 491.639994 
L 560.768105 492.465284 
L 561.84826 526.34613 
L 560.698627 526.275552 
L 558.862031 528.906704 
L 558.515078 528.952071 
L 558.168984 528.90927 
L 557.701014 529.1737 
L 557.243829 529.122516 
L 556.608896 529.45568 
L 555.850049 529.884242 
L 555.459524 530.138875 
L 554.991578 530.516228 
L 554.967992 530.824847 
L 554.280531 531.088596 
L 553.620679 531.536803 
L 553.419369 531.771084 
L 553.246322 532.125988 
L 552.382445 532.420593 
L 551.266063 532.22419 
L 550.769829 532.559475 
L 550.208269 531.792118 
L 550.283679 531.401432 
L 550.265499 531.323557 
L 549.736953 531.232376 
L 549.443387 530.847296 
L 549.378061 530.639681 
L 549.20705 530.500092 
L 549.025931 530.417319 
L 548.730329 530.678971 
L 548.211188 530.210411 
L 547.96678 530.016811 
L 547.703513 529.850582 
L 547.25777 528.731805 
L 547.049042 528.212061 
L 546.918414 527.979195 
L 545.993938 527.989725 
L 545.946138 527.574469 
L 545.885538 527.408241 
L 545.853227 527.202722 
L 545.79733 527.044902 
L 545.129407 527.305823 
L 544.957014 526.979679 
L 544.824375 526.728556 
L 544.495127 526.170228 
L 544.049384 526.29507 
L 544.169225 525.684851 
L 543.537661 525.303962 
L 543.189555 525.314492 
L 543.246106 524.866284 
L 543.260238 524.749851 
L 542.722942 524.864895 
L 541.904175 523.922876 
L 541.908877 523.471158 
L 541.373593 522.091461 
L 540.862548 522.053584 
L 540.127262 522.326448 
L 539.912475 521.169794 
L 538.853347 522.100577 
L 537.79691 522.106208 
L 536.191033 523.022951 
L 534.696246 523.004012 
L 533.123359 524.821388 
L 531.414463 526.125331 
L 529.014737 527.417357 
L 526.82037 528.093532 
L 523.444319 529.391163 
L 522.990504 529.300663 
L 522.384512 529.476032 
L 518.679214 530.831867 
L 515.696403 531.409134 
L 511.72985 532.841429 
L 510.352892 532.99435 
L 506.626724 532.96069 
L 504.029032 533.476925 
L 495.527651 534.223929 
L 491.444627 536.479008 
L 485.329494 507.18417 
L 477.037496 480.826191 
L 480.352269 472.822967 
L 480.930675 452.548419 
L 474.872094 442.696255 
L 470.609284 431.265213 
L 458.890089 391.929535 
L 451.957547 383.513884 
L 448.115561 383.227005 
L 446.956082 382.730391 
L 443.439998 379.953472 
L 437.287828 362.800218 
L 438.254724 353.833258 
L 437.732892 350.801732 
L 436.871051 349.86744 
L 430.382895 348.576829 
L 425.829209 347.453153 
L 423.084746 345.839882 
L 421.187315 344.147348 
L 417.473945 335.453935 
L 415.358356 332.571112 
L 413.452173 328.580017 
L 413.433315 319.976397 
L 420.453386 315.39541 
L 428.56829 299.54471 
L 444.083028 269.237731 
" clip-path="url(#pd1164d5bde)" style="fill: #e0bd1f; stroke: #0000ff; stroke-width: 0.5"/>
    <path d="M 412.753926 320.419681 
L 412.772784 328.73713 
L 414.773913 332.926724 
L 416.746755 335.552136 
L 420.622409 344.558387 
L 422.684792 346.396796 
L 425.572002 348.094254 
L 430.236124 349.245277 
L 436.522945 350.495916 
L 437.09728 351.118079 
L 437.567941 353.855 
L 436.594307 362.882991 
L 442.866997 380.370823 
L 446.606643 383.323793 
L 447.951265 383.901766 
L 451.618192 384.17463 
L 458.278037 392.259896 
L 469.964243 431.48404 
L 474.259364 442.999976 
L 480.245226 452.732878 
L 479.675595 472.677091 
L 476.313021 480.79392 
L 484.644045 507.275352 
L 447.298152 508.8311 
L 439.424287 507.715858 
L 439.81011 507.277473 
L 439.088301 506.88608 
L 438.92335 506.38035 
L 438.430461 506.047161 
L 438.529456 505.671197 
L 438.371219 505.276319 
L 438.38872 504.844222 
L 438.161813 504.410054 
L 438.551659 504.427578 
L 438.557719 504.019368 
L 438.173254 503.997627 
L 438.118036 502.983364 
L 437.86352 501.578416 
L 437.58074 500.891736 
L 437.822458 500.49052 
L 438.111322 500.493323 
L 437.862865 499.848712 
L 438.272903 499.404014 
L 437.804957 498.093758 
L 437.410384 497.365691 
L 436.852193 497.46109 
L 436.649525 497.279408 
L 436.172804 496.6376 
L 434.397249 494.816714 
L 437.19962 477.738532 
L 437.646041 476.294318 
L 437.427885 475.282858 
L 437.459542 474.902677 
L 437.479054 474.293846 
L 437.563215 473.959976 
L 437.621123 473.653452 
L 438.097166 473.556664 
L 438.008958 471.786988 
L 437.502615 472.107526 
L 437.660852 471.320524 
L 437.466256 471.098188 
L 437.360547 470.626117 
L 436.638763 469.928201 
L 436.26775 469.254854 
L 436.069131 468.899924 
L 436.366721 468.623575 
L 436.1506 467.970555 
L 436.42126 467.859728 
L 436.399711 466.780242 
L 436.315551 466.173507 
L 436.972712 465.963089 
L 437.082469 465.731612 
L 437.672293 465.370369 
L 437.720772 465.079299 
L 437.705307 464.768559 
L 437.426551 464.384893 
L 437.131627 463.968249 
L 436.773414 464.125362 
L 436.519576 463.472342 
L 436.45425 462.793364 
L 436.23476 462.720413 
L 436.40914 462.438434 
L 436.264381 462.174711 
L 436.29805 461.890635 
L 436.159351 461.638124 
L 436.407807 461.310566 
L 435.799125 460.996315 
L 435.962743 460.459022 
L 435.59779 460.386096 
L 435.42341 459.982078 
L 435.173596 459.699391 
L 435.494772 459.851605 
L 435.50488 459.509301 
L 436.050272 459.634168 
L 436.573437 459.418119 
L 435.819317 458.52241 
L 435.840866 458.102963 
L 435.500832 457.761366 
L 434.926497 457.781718 
L 434.668612 457.444338 
L 434.624156 456.702232 
L 434.654456 456.011335 
L 434.525864 455.377936 
L 434.142732 454.99427 
L 433.327335 454.450663 
L 433.113226 454.647066 
L 432.899795 454.693352 
L 414.367899 461.835209 
L 403.812862 493.892245 
L 359.396381 465.719694 
L 344.455348 454.670197 
L 332.078288 444.097694 
L 328.939253 441.857361 
L 324.637392 439.004689 
L 322.942652 438.045146 
L 322.507672 436.438188 
L 331.505966 435.668028 
L 363.120538 433.01734 
L 370.657059 430.353344 
L 371.000463 430.274106 
L 377.922218 427.855602 
L 389.995603 425.639814 
L 393.426848 427.690055 
L 397.581258 430.173101 
L 409.532088 426.36788 
L 409.648559 426.337023 
L 409.55766 425.789199 
L 408.872236 424.844402 
L 408.833161 424.104392 
L 408.968516 423.088741 
L 408.965825 422.145333 
L 408.656091 421.744117 
L 408.812291 421.448123 
L 408.553072 420.640087 
L 408.258827 419.639864 
L 407.619167 418.736428 
L 406.77616 417.971167 
L 405.677982 417.59591 
L 404.476762 416.605509 
L 403.93406 416.284971 
L 402.824441 415.862696 
L 402.100597 415.123419 
L 401.877737 414.7797 
L 401.310796 414.143523 
L 401.034052 414.003934 
L 400.837444 413.90644 
L 399.756767 413.462449 
L 399.284773 413.342506 
L 399.163574 413.02265 
L 397.738816 412.281958 
L 397.103882 411.744664 
L 397.157064 411.526519 
L 396.760479 411.079018 
L 395.976738 410.748658 
L 395.875732 410.327797 
L 395.385557 409.951833 
L 395.437406 409.728789 
L 395.190283 409.52327 
L 394.830736 409.004915 
L 394.62402 408.952998 
L 394.235507 408.41222 
L 394.7203 408.331542 
L 394.784947 408.080445 
L 394.599102 407.949972 
L 394.604483 407.567013 
L 394.378933 407.386746 
L 394.150668 407.057774 
L 393.76756 406.698652 
L 393.583727 405.821175 
L 393.259182 405.676662 
L 392.947436 405.292996 
L 393.132602 405.114142 
L 392.812784 404.679242 
L 392.923196 404.369234 
L 392.804688 403.973624 
L 392.544112 403.600463 
L 392.593949 403.204878 
L 392.544112 402.16395 
L 392.249891 401.255616 
L 391.783932 400.037248 
L 391.479603 398.743834 
L 391.274245 398.498342 
L 391.085709 397.923879 
L 391.102531 397.573166 
L 390.938235 396.861917 
L 390.668253 396.354091 
L 389.694619 395.355964 
L 389.580814 394.972298 
L 388.905473 394.7815 
L 388.700793 394.333999 
L 388.644897 394.228096 
L 387.939256 393.683075 
L 387.567589 393.32817 
L 387.507669 393.077048 
L 387.203994 392.537658 
L 386.937358 391.974431 
L 386.616183 391.359263 
L 386.600694 390.880905 
L 386.226991 390.027265 
L 385.775867 389.493506 
L 385.421022 389.400203 
L 382.407912 386.708861 
L 380.725946 384.139557 
L 378.701256 381.805921 
L 374.67614 378.63761 
L 374.12333 378.577992 
L 373.352364 378.176776 
L 372.862868 377.684379 
L 371.609823 376.567016 
L 371.503435 376.040959 
L 370.694097 375.633431 
L 370.558743 375.343724 
L 370.645618 374.462762 
L 371.062395 374.078364 
L 371.154651 372.541554 
L 370.552029 368.149269 
L 371.11897 366.314344 
L 372.033339 364.404373 
L 373.577259 359.13812 
L 374.305128 357.437859 
L 374.373144 355.688536 
L 375.321836 354.035268 
L 375.603961 351.898743 
L 375.278083 348.846157 
L 375.808665 348.797069 
L 376.388381 345.101286 
L 376.638873 344.175402 
L 376.810563 343.661971 
L 405.489446 325.183738 
L 409.799403 322.368236 
L 412.753926 320.419681 
" clip-path="url(#pd1164d5bde)" style="fill: #e0bd1f; stroke: #0000ff; stroke-width: 0.5"/>
   </g>
   <g id="PatchCollection_2">
    <path d="M 470.145361 431.364804 
L 474.466759 442.946671 
L 480.415583 452.831787 
L 480.751569 452.596118 
L 489.611818 461.701959 
L 514.524804 458.194145 
L 512.281302 532.471096 
L 512.41799 533.059574 
L 513.417197 532.272597 
L 515.655996 531.82507 
L 519.175448 531.060542 
L 520.792791 530.357701 
L 524.108219 529.548276 
L 526.961784 528.385309 
L 528.377089 528.041616 
L 532.390788 525.726237 
L 535.386398 523.119738 
L 536.432072 523.174457 
L 536.797024 522.80973 
L 539.218275 522.141963 
L 541.868494 523.608651 
L 541.669196 523.91727 
L 542.802399 524.990444 
L 542.91012 525.274519 
L 543.710708 525.848276 
L 543.829216 526.21722 
L 544.724047 526.991597 
L 545.2149 527.430689 
L 545.783877 527.138887 
L 545.662679 527.420867 
L 545.85456 528.101234 
L 546.420823 528.221177 
L 547.525763 529.699076 
L 548.125695 530.205513 
L 548.447525 530.839594 
L 548.976773 530.695082 
L 549.197621 531.025468 
L 549.791492 531.362141 
L 550.143646 531.327774 
L 550.166528 531.884714 
L 550.806189 532.784614 
L 551.807432 532.391832 
L 552.408018 532.563666 
L 553.465812 532.187727 
L 554.024682 531.531198 
L 555.104025 530.907621 
L 555.806975 530.010498 
L 557.762291 529.339247 
L 558.122517 528.969595 
L 558.31847 529.234732 
L 558.761499 529.012396 
L 559.362109 529.773415 
L 559.628745 529.534943 
L 561.829851 530.599001 
L 561.52482 530.618647 
L 561.624493 531.068243 
L 561.346391 531.275858 
L 562.032519 531.887517 
L 561.592157 531.859463 
L 561.267613 531.950644 
L 561.4824 532.352542 
L 562.102547 532.14422 
L 562.865418 532.203156 
L 563.224965 532.77411 
L 562.379946 532.997153 
L 562.604163 533.440462 
L 562.482965 533.68454 
L 562.773841 534.013511 
L 562.7018 534.314429 
L 563.522579 534.713524 
L 563.419561 535.209431 
L 564.094902 535.742508 
L 564.863178 535.930503 
L 565.297455 535.45914 
L 565.626727 535.6864 
L 566.153261 535.304123 
L 565.959344 534.965353 
L 567.226544 534.386673 
L 567.205674 534.740189 
L 567.564542 535.122466 
L 567.890444 534.412631 
L 568.288362 534.594288 
L 568.011643 535.52156 
L 568.089064 536.300154 
L 567.684407 536.190034 
L 567.569269 536.483225 
L 568.274909 537.08294 
L 568.037894 537.390145 
L 568.462088 537.921833 
L 568.991313 538.10349 
L 569.301047 538.878574 
L 570.247751 538.868751 
L 569.892228 540.567598 
L 570.323815 541.520828 
L 570.69953 542.701319 
L 570.291503 543.035897 
L 571.495415 543.941428 
L 572.792236 543.975795 
L 572.815118 544.572707 
L 573.860114 545.776328 
L 573.732856 546.14247 
L 573.310698 546.739382 
L 573.788074 547.485704 
L 574.243246 547.210038 
L 574.291047 547.728393 
L 575.041797 547.490603 
L 575.645098 547.723494 
L 575.904341 549.407594 
L 577.281954 549.084228 
L 577.284644 548.732126 
L 578.166701 548.259374 
L 578.232003 548.549762 
L 579.611652 548.89136 
L 580.006903 549.297474 
L 580.452646 549.122812 
L 581.121249 549.649576 
L 581.6552 550.242296 
L 582.826097 549.756893 
L 582.892077 550.056397 
L 583.474507 550.351002 
L 583.773479 550.76204 
L 586.732729 552.656583 
L 587.741366 552.369705 
L 589.507491 552.240621 
L 589.586949 552.637645 
L 589.398413 553.081636 
L 589.942472 553.971739 
L 591.029209 554.478858 
L 590.731594 555.625689 
L 591.140978 555.945545 
L 590.923499 556.841254 
L 591.264867 556.94996 
L 591.605579 556.773202 
L 591.891728 557.099371 
L 591.645308 557.43256 
L 592.066787 557.682243 
L 592.169806 557.931952 
L 591.954364 558.524672 
L 592.28698 558.575174 
L 592.870744 559.566282 
L 594.250392 559.363565 
L 594.792415 559.606254 
L 595.061742 560.133018 
L 595.894641 560.090243 
L 596.673679 561.132534 
L 596.354516 561.667025 
L 597.695793 562.920467 
L 599.056583 562.375471 
L 599.881386 562.606923 
L 600.471234 563.041117 
L 600.457078 563.462659 
L 600.992386 563.734816 
L 601.160028 564.263676 
L 600.873879 564.349959 
L 601.016626 564.855689 
L 600.781622 565.475049 
L 600.614635 565.531865 
L 600.541262 565.205696 
L 599.915733 564.509193 
L 598.992615 564.752564 
L 598.841117 565.323543 
L 598.241185 565.524845 
L 598.113927 566.062139 
L 596.616449 567.143721 
L 596.961186 567.798837 
L 596.556529 569.062101 
L 597.203582 569.560104 
L 597.323448 569.842791 
L 596.897896 570.335895 
L 597.365867 570.668351 
L 598.103819 571.04573 
L 598.206159 571.792027 
L 598.826306 572.597261 
L 599.514422 572.728441 
L 599.962855 573.316919 
L 599.738638 574.216137 
L 600.935811 574.914054 
L 601.358672 575.61197 
L 602.413775 576.2685 
L 604.027725 575.514475 
L 604.388629 576.314785 
L 603.427114 580.082837 
L 602.182141 580.016199 
L 600.224789 580.23293 
L 598.356978 579.977615 
L 597.938844 579.551856 
L 597.155782 579.702656 
L 595.905428 580.615207 
L 594.638227 580.901378 
L 594.401211 581.555105 
L 594.199877 583.522598 
L 593.369014 584.927547 
L 591.662809 584.012193 
L 590.949072 584.010779 
L 589.163434 585.409414 
L 588.307628 585.728564 
L 587.641038 586.345121 
L 585.628468 586.392795 
L 584.844048 588.304888 
L 583.179608 588.877937 
L 581.582481 590.171351 
L 579.608961 591.145641 
L 578.971991 592.605991 
L 577.43144 593.763327 
L 576.928467 595.445331 
L 575.882114 595.819199 
L 574.66138 595.783418 
L 573.533558 595.411671 
L 572.789546 595.417277 
L 572.356601 595.880231 
L 572.147849 598.6396 
L 571.347286 600.630956 
L 571.069863 601.327459 
L 570.585749 601.74481 
L 569.70774 601.73077 
L 568.943512 601.85844 
L 567.059557 601.529468 
L 566.399027 601.30501 
L 566.3162 600.550279 
L 566.689903 599.893749 
L 566.592944 599.264566 
L 565.713578 598.868275 
L 565.106908 598.723081 
L 563.422251 598.621369 
L 562.808188 598.746236 
L 562.490382 599.463091 
L 562.75903 600.591665 
L 562.699788 601.099491 
L 562.987974 601.549113 
L 563.028357 601.978383 
L 562.813569 602.117264 
L 561.813683 602.385911 
L 560.747139 603.160262 
L 560.343815 603.402269 
L 559.461758 603.018578 
L 558.916366 601.915255 
L 558.608668 601.630472 
L 557.897646 601.529468 
L 557.306465 601.652921 
L 556.233181 602.726094 
L 555.670288 603.104861 
L 553.902126 602.496031 
L 554.522274 600.789458 
L 553.330482 600.84698 
L 553.258442 600.528538 
L 552.036351 599.498846 
L 550.785997 598.681694 
L 550.245307 598.579301 
L 550.528111 599.422386 
L 550.532135 599.857286 
L 551.495662 600.542577 
L 551.818873 601.018132 
L 549.741001 601.281173 
L 548.578152 601.819856 
L 546.810693 600.84698 
L 546.414108 600.168002 
L 545.964317 600.117499 
L 544.408277 598.251718 
L 543.942997 597.955724 
L 543.247464 598.155637 
L 542.619245 598.77078 
L 541.563462 599.425214 
L 541.116386 600.074017 
L 540.486834 601.898412 
L 540.191231 602.022572 
L 539.95087 601.892099 
L 539.332081 601.779883 
L 538.802177 601.845814 
L 537.889821 602.139005 
L 536.712186 601.772157 
L 535.488083 600.838571 
L 535.131881 601.691504 
L 534.780406 601.618554 
L 532.930121 601.809326 
L 532.38068 599.793452 
L 531.627918 599.611088 
L 530.920241 599.674897 
L 530.113594 599.860089 
L 529.435562 600.133635 
L 529.455099 600.97114 
L 528.287548 601.588379 
L 527.354321 601.465633 
L 526.6608 601.032146 
L 525.731621 599.853777 
L 524.786929 599.46799 
L 524.298112 599.413977 
L 523.298226 599.82292 
L 522.590549 600.271127 
L 521.831048 600.600074 
L 520.816352 601.439675 
L 518.74454 600.807714 
L 519.217868 600.207293 
L 518.444235 599.41327 
L 517.807265 599.776609 
L 516.564983 599.855165 
L 515.216991 599.818703 
L 515.686974 600.360188 
L 513.414506 601.06722 
L 511.460523 601.154918 
L 510.877414 601.384274 
L 509.632441 600.70671 
L 506.611913 600.901699 
L 506.436854 601.290971 
L 501.038125 602.746421 
L 500.402513 602.750638 
L 497.66142 602.30594 
L 495.63942 602.230894 
L 494.123763 601.282562 
L 492.90909 600.407888 
L 491.386039 600.734057 
L 489.436759 599.742949 
L 489.265748 598.954558 
L 488.862424 598.519658 
L 488.239586 598.104428 
L 487.515087 597.834392 
L 486.786564 597.905928 
L 485.555723 598.720278 
L 484.143084 599.479201 
L 482.065213 599.635632 
L 481.4296 599.937232 
L 480.911138 599.810976 
L 480.66942 599.360672 
L 481.799934 598.344314 
L 479.37798 599.048543 
L 479.182705 597.393179 
L 479.542276 596.134838 
L 479.104605 595.770793 
L 477.968032 595.81079 
L 477.869061 594.790922 
L 478.109446 593.984981 
L 478.060288 593.632879 
L 477.390328 593.106115 
L 476.582348 593.528365 
L 475.891517 594.170855 
L 474.299093 593.652499 
L 474.298414 593.225351 
L 474.736086 593.071723 
L 474.657986 592.542863 
L 474.808126 591.563674 
L 474.249935 590.958354 
L 472.212471 590.907851 
L 471.017989 591.038324 
L 470.03158 591.54264 
L 468.886911 591.510369 
L 468.012272 591.594531 
L 467.081735 591.900373 
L 464.6544 592.110791 
L 464.545322 592.028017 
L 464.733179 591.490042 
L 465.05976 591.262781 
L 465.234819 590.961156 
L 464.879975 590.411944 
L 463.850468 589.926567 
L 474.121344 580.217501 
L 476.275304 581.971042 
L 528.867287 542.934893 
L 491.281663 536.569483 
L 485.156448 507.229066 
L 484.718776 507.272549 
L 447.298152 508.8311 
L 439.424287 507.715858 
L 439.854541 507.292901 
L 439.205451 506.883252 
L 438.847916 506.253387 
L 438.50318 505.924415 
L 438.633129 505.729426 
L 438.479619 505.445351 
L 438.454701 504.882806 
L 438.25676 504.510351 
L 438.603508 504.513154 
L 438.614295 503.97937 
L 438.269534 503.785795 
L 438.177302 503.206407 
L 438.196161 502.780648 
L 437.973956 502.491674 
L 437.915368 502.180933 
L 437.715391 501.739745 
L 437.880366 501.691339 
L 437.936239 501.426909 
L 437.68577 501.028496 
L 437.778026 500.821588 
L 438.23858 500.562057 
L 438.052734 500.082285 
L 438.196815 499.54431 
L 438.181326 498.995779 
L 437.456851 497.324305 
L 437.313425 497.205751 
L 436.708767 497.255571 
L 436.515528 497.087929 
L 435.512273 495.862541 
L 435.282675 495.103593 
L 435.175608 494.148973 
L 435.321725 493.186627 
L 435.600481 492.527976 
L 435.723037 491.752917 
L 435.521023 490.775142 
L 435.598469 490.38024 
L 435.66445 489.126091 
L 436.016603 488.851131 
L 436.658954 487.874771 
L 436.815155 486.932044 
L 437.503973 484.618762 
L 438.212304 483.212424 
L 437.827839 479.731958 
L 437.82716 477.623487 
L 438.132847 475.875553 
L 437.943656 473.881419 
L 438.217031 473.551059 
L 438.091106 471.71472 
L 437.811671 471.321938 
L 437.528891 470.618416 
L 437.095947 470.089531 
L 436.766021 469.238718 
L 436.871051 467.928462 
L 437.582073 466.874934 
L 437.566584 466.493363 
L 437.391525 465.949757 
L 437.899225 465.523997 
L 437.743 464.400321 
L 437.188179 463.966128 
L 436.809773 463.804117 
L 436.450227 462.373917 
L 436.413867 461.1808 
L 435.957337 460.947227 
L 436.023996 460.404328 
L 435.558062 459.955413 
L 435.620018 459.744288 
L 436.275822 459.69169 
L 436.641453 459.533163 
L 436.606427 459.310801 
L 435.958016 458.578518 
L 435.807197 457.858154 
L 435.498141 457.717176 
L 435.116367 457.689829 
L 434.875982 457.532717 
L 434.70565 455.486667 
L 434.258549 454.996366 
L 433.729325 454.864504 
L 433.441818 454.94306 
L 433.481547 454.543941 
L 432.91526 454.738248 
L 470.145361 431.364804 
L 470.145361 431.364804 
" clip-path="url(#pd1164d5bde)" style="fill: none; stroke: #000000"/>
   </g>
   <g id="matplotlib.axis_1">
    <g id="xtick_1">
     <g id="line2d_1">
      <path d="M 187.635531 620.110496 
L 187.635531 252.529504 
" clip-path="url(#pd1164d5bde)" style="fill: none; stroke: #b0b0b0; stroke-width: 0.8; stroke-linecap: square"/>
     </g>
     <g id="line2d_2">
      <defs>
       <path id="m6ebe60ef55" d="M 0 0 
L 0 3.5 
" style="stroke: #000000; stroke-width: 0.8"/>
      </defs>
      <g>
       <use xlink:href="#m6ebe60ef55" x="187.635531" y="620.110496" style="stroke: #000000; stroke-width: 0.8"/>
      </g>
     </g>
     <g id="text_1">
      <!-- 52.90 -->
      <g transform="translate(176.502466 658.651878) rotate(-45) scale(0.1 -0.1)">
       <defs>
        <path id="DejaVuSans-2212" d="M 678 2272 
L 4684 2272 
L 4684 1741 
L 678 1741 
L 678 2272 
z
" transform="scale(0.015625)"/>
        <path id="DejaVuSans-35" d="M 691 4666 
L 3169 4666 
L 3169 4134 
L 1269 4134 
L 1269 2991 
Q 1406 3038 1543 3061 
Q 1681 3084 1819 3084 
Q 2600 3084 3056 2656 
Q 3513 2228 3513 1497 
Q 3513 744 3044 326 
Q 2575 -91 1722 -91 
Q 1428 -91 1123 -41 
Q 819 9 494 109 
L 494 744 
Q 775 591 1075 516 
Q 1375 441 1709 441 
Q 2250 441 2565 725 
Q 2881 1009 2881 1497 
Q 2881 1984 2565 2268 
Q 2250 2553 1709 2553 
Q 1456 2553 1204 2497 
Q 953 2441 691 2322 
L 691 4666 
z
" transform="scale(0.015625)"/>
        <path id="DejaVuSans-32" d="M 1228 531 
L 3431 531 
L 3431 0 
L 469 0 
L 469 531 
Q 828 903 1448 1529 
Q 2069 2156 2228 2338 
Q 2531 2678 2651 2914 
Q 2772 3150 2772 3378 
Q 2772 3750 2511 3984 
Q 2250 4219 1831 4219 
Q 1534 4219 1204 4116 
Q 875 4013 500 3803 
L 500 4441 
Q 881 4594 1212 4672 
Q 1544 4750 1819 4750 
Q 2544 4750 2975 4387 
Q 3406 4025 3406 3419 
Q 3406 3131 3298 2873 
Q 3191 2616 2906 2266 
Q 2828 2175 2409 1742 
Q 1991 1309 1228 531 
z
" transform="scale(0.015625)"/>
        <path id="DejaVuSans-2e" d="M 684 794 
L 1344 794 
L 1344 0 
L 684 0 
L 684 794 
z
" transform="scale(0.015625)"/>
        <path id="DejaVuSans-39" d="M 703 97 
L 703 672 
Q 941 559 1184 500 
Q 1428 441 1663 441 
Q 2288 441 2617 861 
Q 2947 1281 2994 2138 
Q 2813 1869 2534 1725 
Q 2256 1581 1919 1581 
Q 1219 1581 811 2004 
Q 403 2428 403 3163 
Q 403 3881 828 4315 
Q 1253 4750 1959 4750 
Q 2769 4750 3195 4129 
Q 3622 3509 3622 2328 
Q 3622 1225 3098 567 
Q 2575 -91 1691 -91 
Q 1453 -91 1209 -44 
Q 966 3 703 97 
z
M 1959 2075 
Q 2384 2075 2632 2365 
Q 2881 2656 2881 3163 
Q 2881 3666 2632 3958 
Q 2384 4250 1959 4250 
Q 1534 4250 1286 3958 
Q 1038 3666 1038 3163 
Q 1038 2656 1286 2365 
Q 1534 2075 1959 2075 
z
" transform="scale(0.015625)"/>
        <path id="DejaVuSans-30" d="M 2034 4250 
Q 1547 4250 1301 3770 
Q 1056 3291 1056 2328 
Q 1056 1369 1301 889 
Q 1547 409 2034 409 
Q 2525 409 2770 889 
Q 3016 1369 3016 2328 
Q 3016 3291 2770 3770 
Q 2525 4250 2034 4250 
z
M 2034 4750 
Q 2819 4750 3233 4129 
Q 3647 3509 3647 2328 
Q 3647 1150 3233 529 
Q 2819 -91 2034 -91 
Q 1250 -91 836 529 
Q 422 1150 422 2328 
Q 422 3509 836 4129 
Q 1250 4750 2034 4750 
z
" transform="scale(0.015625)"/>
       </defs>
       <use xlink:href="#DejaVuSans-2212"/>
       <use xlink:href="#DejaVuSans-35" transform="translate(83.789062 0)"/>
       <use xlink:href="#DejaVuSans-32" transform="translate(147.412109 0)"/>
       <use xlink:href="#DejaVuSans-2e" transform="translate(211.035156 0)"/>
       <use xlink:href="#DejaVuSans-39" transform="translate(242.822266 0)"/>
       <use xlink:href="#DejaVuSans-30" transform="translate(306.445312 0)"/>
      </g>
     </g>
    </g>
    <g id="xtick_2">
     <g id="line2d_3">
      <path d="M 308.833815 620.110496 
L 308.833815 252.529504 
" clip-path="url(#pd1164d5bde)" style="fill: none; stroke: #b0b0b0; stroke-width: 0.8; stroke-linecap: square"/>
     </g>
     <g id="line2d_4">
      <g>
       <use xlink:href="#m6ebe60ef55" x="308.833815" y="620.110496" style="stroke: #000000; stroke-width: 0.8"/>
      </g>
     </g>
     <g id="text_2">
      <!-- 52.85 -->
      <g transform="translate(297.70075 658.651878) rotate(-45) scale(0.1 -0.1)">
       <defs>
        <path id="DejaVuSans-38" d="M 2034 2216 
Q 1584 2216 1326 1975 
Q 1069 1734 1069 1313 
Q 1069 891 1326 650 
Q 1584 409 2034 409 
Q 2484 409 2743 651 
Q 3003 894 3003 1313 
Q 3003 1734 2745 1975 
Q 2488 2216 2034 2216 
z
M 1403 2484 
Q 997 2584 770 2862 
Q 544 3141 544 3541 
Q 544 4100 942 4425 
Q 1341 4750 2034 4750 
Q 2731 4750 3128 4425 
Q 3525 4100 3525 3541 
Q 3525 3141 3298 2862 
Q 3072 2584 2669 2484 
Q 3125 2378 3379 2068 
Q 3634 1759 3634 1313 
Q 3634 634 3220 271 
Q 2806 -91 2034 -91 
Q 1263 -91 848 271 
Q 434 634 434 1313 
Q 434 1759 690 2068 
Q 947 2378 1403 2484 
z
M 1172 3481 
Q 1172 3119 1398 2916 
Q 1625 2713 2034 2713 
Q 2441 2713 2670 2916 
Q 2900 3119 2900 3481 
Q 2900 3844 2670 4047 
Q 2441 4250 2034 4250 
Q 1625 4250 1398 4047 
Q 1172 3844 1172 3481 
z
" transform="scale(0.015625)"/>
       </defs>
       <use xlink:href="#DejaVuSans-2212"/>
       <use xlink:href="#DejaVuSans-35" transform="translate(83.789062 0)"/>
       <use xlink:href="#DejaVuSans-32" transform="translate(147.412109 0)"/>
       <use xlink:href="#DejaVuSans-2e" transform="translate(211.035156 0)"/>
       <use xlink:href="#DejaVuSans-38" transform="translate(242.822266 0)"/>
       <use xlink:href="#DejaVuSans-35" transform="translate(306.445312 0)"/>
      </g>
     </g>
    </g>
    <g id="xtick_3">
     <g id="line2d_5">
      <path d="M 430.032099 620.110496 
L 430.032099 252.529504 
" clip-path="url(#pd1164d5bde)" style="fill: none; stroke: #b0b0b0; stroke-width: 0.8; stroke-linecap: square"/>
     </g>
     <g id="line2d_6">
      <g>
       <use xlink:href="#m6ebe60ef55" x="430.032099" y="620.110496" style="stroke: #000000; stroke-width: 0.8"/>
      </g>
     </g>
     <g id="text_3">
      <!-- 52.80 -->
      <g transform="translate(418.899034 658.651878) rotate(-45) scale(0.1 -0.1)">
       <use xlink:href="#DejaVuSans-2212"/>
       <use xlink:href="#DejaVuSans-35" transform="translate(83.789062 0)"/>
       <use xlink:href="#DejaVuSans-32" transform="translate(147.412109 0)"/>
       <use xlink:href="#DejaVuSans-2e" transform="translate(211.035156 0)"/>
       <use xlink:href="#DejaVuSans-38" transform="translate(242.822266 0)"/>
       <use xlink:href="#DejaVuSans-30" transform="translate(306.445312 0)"/>
      </g>
     </g>
    </g>
    <g id="xtick_4">
     <g id="line2d_7">
      <path d="M 551.230383 620.110496 
L 551.230383 252.529504 
" clip-path="url(#pd1164d5bde)" style="fill: none; stroke: #b0b0b0; stroke-width: 0.8; stroke-linecap: square"/>
     </g>
     <g id="line2d_8">
      <g>
       <use xlink:href="#m6ebe60ef55" x="551.230383" y="620.110496" style="stroke: #000000; stroke-width: 0.8"/>
      </g>
     </g>
     <g id="text_4">
      <!-- 52.75 -->
      <g transform="translate(540.097318 658.651878) rotate(-45) scale(0.1 -0.1)">
       <defs>
        <path id="DejaVuSans-37" d="M 525 4666 
L 3525 4666 
L 3525 4397 
L 1831 0 
L 1172 0 
L 2766 4134 
L 525 4134 
L 525 4666 
z
" transform="scale(0.015625)"/>
       </defs>
       <use xlink:href="#DejaVuSans-2212"/>
       <use xlink:href="#DejaVuSans-35" transform="translate(83.789062 0)"/>
       <use xlink:href="#DejaVuSans-32" transform="translate(147.412109 0)"/>
       <use xlink:href="#DejaVuSans-2e" transform="translate(211.035156 0)"/>
       <use xlink:href="#DejaVuSans-37" transform="translate(242.822266 0)"/>
       <use xlink:href="#DejaVuSans-35" transform="translate(306.445312 0)"/>
      </g>
     </g>
    </g>
    <g id="text_5">
     <!-- Longitude () -->
     <g transform="translate(336.139844 671.720877) scale(0.1 -0.1)">
      <defs>
       <path id="DejaVuSans-4c" d="M 628 4666 
L 1259 4666 
L 1259 531 
L 3531 531 
L 3531 0 
L 628 0 
L 628 4666 
z
" transform="scale(0.015625)"/>
       <path id="DejaVuSans-6f" d="M 1959 3097 
Q 1497 3097 1228 2736 
Q 959 2375 959 1747 
Q 959 1119 1226 758 
Q 1494 397 1959 397 
Q 2419 397 2687 759 
Q 2956 1122 2956 1747 
Q 2956 2369 2687 2733 
Q 2419 3097 1959 3097 
z
M 1959 3584 
Q 2709 3584 3137 3096 
Q 3566 2609 3566 1747 
Q 3566 888 3137 398 
Q 2709 -91 1959 -91 
Q 1206 -91 779 398 
Q 353 888 353 1747 
Q 353 2609 779 3096 
Q 1206 3584 1959 3584 
z
" transform="scale(0.015625)"/>
       <path id="DejaVuSans-6e" d="M 3513 2113 
L 3513 0 
L 2938 0 
L 2938 2094 
Q 2938 2591 2744 2837 
Q 2550 3084 2163 3084 
Q 1697 3084 1428 2787 
Q 1159 2491 1159 1978 
L 1159 0 
L 581 0 
L 581 3500 
L 1159 3500 
L 1159 2956 
Q 1366 3272 1645 3428 
Q 1925 3584 2291 3584 
Q 2894 3584 3203 3211 
Q 3513 2838 3513 2113 
z
" transform="scale(0.015625)"/>
       <path id="DejaVuSans-67" d="M 2906 1791 
Q 2906 2416 2648 2759 
Q 2391 3103 1925 3103 
Q 1463 3103 1205 2759 
Q 947 2416 947 1791 
Q 947 1169 1205 825 
Q 1463 481 1925 481 
Q 2391 481 2648 825 
Q 2906 1169 2906 1791 
z
M 3481 434 
Q 3481 -459 3084 -895 
Q 2688 -1331 1869 -1331 
Q 1566 -1331 1297 -1286 
Q 1028 -1241 775 -1147 
L 775 -588 
Q 1028 -725 1275 -790 
Q 1522 -856 1778 -856 
Q 2344 -856 2625 -561 
Q 2906 -266 2906 331 
L 2906 616 
Q 2728 306 2450 153 
Q 2172 0 1784 0 
Q 1141 0 747 490 
Q 353 981 353 1791 
Q 353 2603 747 3093 
Q 1141 3584 1784 3584 
Q 2172 3584 2450 3431 
Q 2728 3278 2906 2969 
L 2906 3500 
L 3481 3500 
L 3481 434 
z
" transform="scale(0.015625)"/>
       <path id="DejaVuSans-69" d="M 603 3500 
L 1178 3500 
L 1178 0 
L 603 0 
L 603 3500 
z
M 603 4863 
L 1178 4863 
L 1178 4134 
L 603 4134 
L 603 4863 
z
" transform="scale(0.015625)"/>
       <path id="DejaVuSans-74" d="M 1172 4494 
L 1172 3500 
L 2356 3500 
L 2356 3053 
L 1172 3053 
L 1172 1153 
Q 1172 725 1289 603 
Q 1406 481 1766 481 
L 2356 481 
L 2356 0 
L 1766 0 
Q 1100 0 847 248 
Q 594 497 594 1153 
L 594 3053 
L 172 3053 
L 172 3500 
L 594 3500 
L 594 4494 
L 1172 4494 
z
" transform="scale(0.015625)"/>
       <path id="DejaVuSans-75" d="M 544 1381 
L 544 3500 
L 1119 3500 
L 1119 1403 
Q 1119 906 1312 657 
Q 1506 409 1894 409 
Q 2359 409 2629 706 
Q 2900 1003 2900 1516 
L 2900 3500 
L 3475 3500 
L 3475 0 
L 2900 0 
L 2900 538 
Q 2691 219 2414 64 
Q 2138 -91 1772 -91 
Q 1169 -91 856 284 
Q 544 659 544 1381 
z
M 1991 3584 
L 1991 3584 
z
" transform="scale(0.015625)"/>
       <path id="DejaVuSans-64" d="M 2906 2969 
L 2906 4863 
L 3481 4863 
L 3481 0 
L 2906 0 
L 2906 525 
Q 2725 213 2448 61 
Q 2172 -91 1784 -91 
Q 1150 -91 751 415 
Q 353 922 353 1747 
Q 353 2572 751 3078 
Q 1150 3584 1784 3584 
Q 2172 3584 2448 3432 
Q 2725 3281 2906 2969 
z
M 947 1747 
Q 947 1113 1208 752 
Q 1469 391 1925 391 
Q 2381 391 2643 752 
Q 2906 1113 2906 1747 
Q 2906 2381 2643 2742 
Q 2381 3103 1925 3103 
Q 1469 3103 1208 2742 
Q 947 2381 947 1747 
z
" transform="scale(0.015625)"/>
       <path id="DejaVuSans-65" d="M 3597 1894 
L 3597 1613 
L 953 1613 
Q 991 1019 1311 708 
Q 1631 397 2203 397 
Q 2534 397 2845 478 
Q 3156 559 3463 722 
L 3463 178 
Q 3153 47 2828 -22 
Q 2503 -91 2169 -91 
Q 1331 -91 842 396 
Q 353 884 353 1716 
Q 353 2575 817 3079 
Q 1281 3584 2069 3584 
Q 2775 3584 3186 3129 
Q 3597 2675 3597 1894 
z
M 3022 2063 
Q 3016 2534 2758 2815 
Q 2500 3097 2075 3097 
Q 1594 3097 1305 2825 
Q 1016 2553 972 2059 
L 3022 2063 
z
" transform="scale(0.015625)"/>
       <path id="DejaVuSans-20" transform="scale(0.015625)"/>
       <path id="DejaVuSans-28" d="M 1984 4856 
Q 1566 4138 1362 3434 
Q 1159 2731 1159 2009 
Q 1159 1288 1364 580 
Q 1569 -128 1984 -844 
L 1484 -844 
Q 1016 -109 783 600 
Q 550 1309 550 2009 
Q 550 2706 781 3412 
Q 1013 4119 1484 4856 
L 1984 4856 
z
" transform="scale(0.015625)"/>
       <path id="DejaVuSans-b0" d="M 1600 4347 
Q 1350 4347 1178 4173 
Q 1006 4000 1006 3750 
Q 1006 3503 1178 3333 
Q 1350 3163 1600 3163 
Q 1850 3163 2022 3333 
Q 2194 3503 2194 3750 
Q 2194 3997 2020 4172 
Q 1847 4347 1600 4347 
z
M 1600 4750 
Q 1800 4750 1984 4673 
Q 2169 4597 2303 4453 
Q 2447 4313 2519 4134 
Q 2591 3956 2591 3750 
Q 2591 3338 2302 3052 
Q 2013 2766 1594 2766 
Q 1172 2766 890 3047 
Q 609 3328 609 3750 
Q 609 4169 896 4459 
Q 1184 4750 1600 4750 
z
" transform="scale(0.015625)"/>
       <path id="DejaVuSans-29" d="M 513 4856 
L 1013 4856 
Q 1481 4119 1714 3412 
Q 1947 2706 1947 2009 
Q 1947 1309 1714 600 
Q 1481 -109 1013 -844 
L 513 -844 
Q 928 -128 1133 580 
Q 1338 1288 1338 2009 
Q 1338 2731 1133 3434 
Q 928 4138 513 4856 
z
" transform="scale(0.015625)"/>
      </defs>
      <use xlink:href="#DejaVuSans-4c"/>
      <use xlink:href="#DejaVuSans-6f" transform="translate(53.962891 0)"/>
      <use xlink:href="#DejaVuSans-6e" transform="translate(115.144531 0)"/>
      <use xlink:href="#DejaVuSans-67" transform="translate(178.523438 0)"/>
      <use xlink:href="#DejaVuSans-69" transform="translate(242 0)"/>
      <use xlink:href="#DejaVuSans-74" transform="translate(269.783203 0)"/>
      <use xlink:href="#DejaVuSans-75" transform="translate(308.992188 0)"/>
      <use xlink:href="#DejaVuSans-64" transform="translate(372.371094 0)"/>
      <use xlink:href="#DejaVuSans-65" transform="translate(435.847656 0)"/>
      <use xlink:href="#DejaVuSans-20" transform="translate(497.371094 0)"/>
      <use xlink:href="#DejaVuSans-28" transform="translate(529.158203 0)"/>
      <use xlink:href="#DejaVuSans-b0" transform="translate(568.171875 0)"/>
      <use xlink:href="#DejaVuSans-29" transform="translate(618.171875 0)"/>
     </g>
    </g>
   </g>
   <g id="matplotlib.axis_2">
    <g id="ytick_1">
     <g id="line2d_9">
      <path d="M 90 588.363798 
L 648 588.363798 
" clip-path="url(#pd1164d5bde)" style="fill: none; stroke: #b0b0b0; stroke-width: 0.8; stroke-linecap: square"/>
     </g>
     <g id="line2d_10">
      <defs>
       <path id="mee3d9889d1" d="M 0 0 
L -3.5 0 
" style="stroke: #000000; stroke-width: 0.8"/>
      </defs>
      <g>
       <use xlink:href="#mee3d9889d1" x="90" y="588.363798" style="stroke: #000000; stroke-width: 0.8"/>
      </g>
     </g>
     <g id="text_6">
      <!-- 16.30 -->
      <g transform="translate(45.992188 592.163017) scale(0.1 -0.1)">
       <defs>
        <path id="DejaVuSans-31" d="M 794 531 
L 1825 531 
L 1825 4091 
L 703 3866 
L 703 4441 
L 1819 4666 
L 2450 4666 
L 2450 531 
L 3481 531 
L 3481 0 
L 794 0 
L 794 531 
z
" transform="scale(0.015625)"/>
        <path id="DejaVuSans-36" d="M 2113 2584 
Q 1688 2584 1439 2293 
Q 1191 2003 1191 1497 
Q 1191 994 1439 701 
Q 1688 409 2113 409 
Q 2538 409 2786 701 
Q 3034 994 3034 1497 
Q 3034 2003 2786 2293 
Q 2538 2584 2113 2584 
z
M 3366 4563 
L 3366 3988 
Q 3128 4100 2886 4159 
Q 2644 4219 2406 4219 
Q 1781 4219 1451 3797 
Q 1122 3375 1075 2522 
Q 1259 2794 1537 2939 
Q 1816 3084 2150 3084 
Q 2853 3084 3261 2657 
Q 3669 2231 3669 1497 
Q 3669 778 3244 343 
Q 2819 -91 2113 -91 
Q 1303 -91 875 529 
Q 447 1150 447 2328 
Q 447 3434 972 4092 
Q 1497 4750 2381 4750 
Q 2619 4750 2861 4703 
Q 3103 4656 3366 4563 
z
" transform="scale(0.015625)"/>
        <path id="DejaVuSans-33" d="M 2597 2516 
Q 3050 2419 3304 2112 
Q 3559 1806 3559 1356 
Q 3559 666 3084 287 
Q 2609 -91 1734 -91 
Q 1441 -91 1130 -33 
Q 819 25 488 141 
L 488 750 
Q 750 597 1062 519 
Q 1375 441 1716 441 
Q 2309 441 2620 675 
Q 2931 909 2931 1356 
Q 2931 1769 2642 2001 
Q 2353 2234 1838 2234 
L 1294 2234 
L 1294 2753 
L 1863 2753 
Q 2328 2753 2575 2939 
Q 2822 3125 2822 3475 
Q 2822 3834 2567 4026 
Q 2313 4219 1838 4219 
Q 1578 4219 1281 4162 
Q 984 4106 628 3988 
L 628 4550 
Q 988 4650 1302 4700 
Q 1616 4750 1894 4750 
Q 2613 4750 3031 4423 
Q 3450 4097 3450 3541 
Q 3450 3153 3228 2886 
Q 3006 2619 2597 2516 
z
" transform="scale(0.015625)"/>
       </defs>
       <use xlink:href="#DejaVuSans-2212"/>
       <use xlink:href="#DejaVuSans-31" transform="translate(83.789062 0)"/>
       <use xlink:href="#DejaVuSans-36" transform="translate(147.412109 0)"/>
       <use xlink:href="#DejaVuSans-2e" transform="translate(211.035156 0)"/>
       <use xlink:href="#DejaVuSans-33" transform="translate(242.822266 0)"/>
       <use xlink:href="#DejaVuSans-30" transform="translate(306.445312 0)"/>
      </g>
     </g>
    </g>
    <g id="ytick_2">
     <g id="line2d_11">
      <path d="M 90 537.861508 
L 648 537.861508 
" clip-path="url(#pd1164d5bde)" style="fill: none; stroke: #b0b0b0; stroke-width: 0.8; stroke-linecap: square"/>
     </g>
     <g id="line2d_12">
      <g>
       <use xlink:href="#mee3d9889d1" x="90" y="537.861508" style="stroke: #000000; stroke-width: 0.8"/>
      </g>
     </g>
     <g id="text_7">
      <!-- 16.28 -->
      <g transform="translate(45.992188 541.660727) scale(0.1 -0.1)">
       <use xlink:href="#DejaVuSans-2212"/>
       <use xlink:href="#DejaVuSans-31" transform="translate(83.789062 0)"/>
       <use xlink:href="#DejaVuSans-36" transform="translate(147.412109 0)"/>
       <use xlink:href="#DejaVuSans-2e" transform="translate(211.035156 0)"/>
       <use xlink:href="#DejaVuSans-32" transform="translate(242.822266 0)"/>
       <use xlink:href="#DejaVuSans-38" transform="translate(306.445312 0)"/>
      </g>
     </g>
    </g>
    <g id="ytick_3">
     <g id="line2d_13">
      <path d="M 90 487.359218 
L 648 487.359218 
" clip-path="url(#pd1164d5bde)" style="fill: none; stroke: #b0b0b0; stroke-width: 0.8; stroke-linecap: square"/>
     </g>
     <g id="line2d_14">
      <g>
       <use xlink:href="#mee3d9889d1" x="90" y="487.359218" style="stroke: #000000; stroke-width: 0.8"/>
      </g>
     </g>
     <g id="text_8">
      <!-- 16.26 -->
      <g transform="translate(45.992188 491.158437) scale(0.1 -0.1)">
       <use xlink:href="#DejaVuSans-2212"/>
       <use xlink:href="#DejaVuSans-31" transform="translate(83.789062 0)"/>
       <use xlink:href="#DejaVuSans-36" transform="translate(147.412109 0)"/>
       <use xlink:href="#DejaVuSans-2e" transform="translate(211.035156 0)"/>
       <use xlink:href="#DejaVuSans-32" transform="translate(242.822266 0)"/>
       <use xlink:href="#DejaVuSans-36" transform="translate(306.445312 0)"/>
      </g>
     </g>
    </g>
    <g id="ytick_4">
     <g id="line2d_15">
      <path d="M 90 436.856928 
L 648 436.856928 
" clip-path="url(#pd1164d5bde)" style="fill: none; stroke: #b0b0b0; stroke-width: 0.8; stroke-linecap: square"/>
     </g>
     <g id="line2d_16">
      <g>
       <use xlink:href="#mee3d9889d1" x="90" y="436.856928" style="stroke: #000000; stroke-width: 0.8"/>
      </g>
     </g>
     <g id="text_9">
      <!-- 16.24 -->
      <g transform="translate(45.992188 440.656146) scale(0.1 -0.1)">
       <defs>
        <path id="DejaVuSans-34" d="M 2419 4116 
L 825 1625 
L 2419 1625 
L 2419 4116 
z
M 2253 4666 
L 3047 4666 
L 3047 1625 
L 3713 1625 
L 3713 1100 
L 3047 1100 
L 3047 0 
L 2419 0 
L 2419 1100 
L 313 1100 
L 313 1709 
L 2253 4666 
z
" transform="scale(0.015625)"/>
       </defs>
       <use xlink:href="#DejaVuSans-2212"/>
       <use xlink:href="#DejaVuSans-31" transform="translate(83.789062 0)"/>
       <use xlink:href="#DejaVuSans-36" transform="translate(147.412109 0)"/>
       <use xlink:href="#DejaVuSans-2e" transform="translate(211.035156 0)"/>
       <use xlink:href="#DejaVuSans-32" transform="translate(242.822266 0)"/>
       <use xlink:href="#DejaVuSans-34" transform="translate(306.445312 0)"/>
      </g>
     </g>
    </g>
    <g id="ytick_5">
     <g id="line2d_17">
      <path d="M 90 386.354637 
L 648 386.354637 
" clip-path="url(#pd1164d5bde)" style="fill: none; stroke: #b0b0b0; stroke-width: 0.8; stroke-linecap: square"/>
     </g>
     <g id="line2d_18">
      <g>
       <use xlink:href="#mee3d9889d1" x="90" y="386.354637" style="stroke: #000000; stroke-width: 0.8"/>
      </g>
     </g>
     <g id="text_10">
      <!-- 16.22 -->
      <g transform="translate(45.992188 390.153856) scale(0.1 -0.1)">
       <use xlink:href="#DejaVuSans-2212"/>
       <use xlink:href="#DejaVuSans-31" transform="translate(83.789062 0)"/>
       <use xlink:href="#DejaVuSans-36" transform="translate(147.412109 0)"/>
       <use xlink:href="#DejaVuSans-2e" transform="translate(211.035156 0)"/>
       <use xlink:href="#DejaVuSans-32" transform="translate(242.822266 0)"/>
       <use xlink:href="#DejaVuSans-32" transform="translate(306.445312 0)"/>
      </g>
     </g>
    </g>
    <g id="ytick_6">
     <g id="line2d_19">
      <path d="M 90 335.852347 
L 648 335.852347 
" clip-path="url(#pd1164d5bde)" style="fill: none; stroke: #b0b0b0; stroke-width: 0.8; stroke-linecap: square"/>
     </g>
     <g id="line2d_20">
      <g>
       <use xlink:href="#mee3d9889d1" x="90" y="335.852347" style="stroke: #000000; stroke-width: 0.8"/>
      </g>
     </g>
     <g id="text_11">
      <!-- 16.20 -->
      <g transform="translate(45.992188 339.651566) scale(0.1 -0.1)">
       <use xlink:href="#DejaVuSans-2212"/>
       <use xlink:href="#DejaVuSans-31" transform="translate(83.789062 0)"/>
       <use xlink:href="#DejaVuSans-36" transform="translate(147.412109 0)"/>
       <use xlink:href="#DejaVuSans-2e" transform="translate(211.035156 0)"/>
       <use xlink:href="#DejaVuSans-32" transform="translate(242.822266 0)"/>
       <use xlink:href="#DejaVuSans-30" transform="translate(306.445312 0)"/>
      </g>
     </g>
    </g>
    <g id="ytick_7">
     <g id="line2d_21">
      <path d="M 90 285.350057 
L 648 285.350057 
" clip-path="url(#pd1164d5bde)" style="fill: none; stroke: #b0b0b0; stroke-width: 0.8; stroke-linecap: square"/>
     </g>
     <g id="line2d_22">
      <g>
       <use xlink:href="#mee3d9889d1" x="90" y="285.350057" style="stroke: #000000; stroke-width: 0.8"/>
      </g>
     </g>
     <g id="text_12">
      <!-- 16.18 -->
      <g transform="translate(45.992188 289.149276) scale(0.1 -0.1)">
       <use xlink:href="#DejaVuSans-2212"/>
       <use xlink:href="#DejaVuSans-31" transform="translate(83.789062 0)"/>
       <use xlink:href="#DejaVuSans-36" transform="translate(147.412109 0)"/>
       <use xlink:href="#DejaVuSans-2e" transform="translate(211.035156 0)"/>
       <use xlink:href="#DejaVuSans-31" transform="translate(242.822266 0)"/>
       <use xlink:href="#DejaVuSans-38" transform="translate(306.445312 0)"/>
      </g>
     </g>
    </g>
    <g id="text_13">
     <!-- Latitude () -->
     <g transform="translate(39.9125 464.889531) rotate(-90) scale(0.1 -0.1)">
      <defs>
       <path id="DejaVuSans-61" d="M 2194 1759 
Q 1497 1759 1228 1600 
Q 959 1441 959 1056 
Q 959 750 1161 570 
Q 1363 391 1709 391 
Q 2188 391 2477 730 
Q 2766 1069 2766 1631 
L 2766 1759 
L 2194 1759 
z
M 3341 1997 
L 3341 0 
L 2766 0 
L 2766 531 
Q 2569 213 2275 61 
Q 1981 -91 1556 -91 
Q 1019 -91 701 211 
Q 384 513 384 1019 
Q 384 1609 779 1909 
Q 1175 2209 1959 2209 
L 2766 2209 
L 2766 2266 
Q 2766 2663 2505 2880 
Q 2244 3097 1772 3097 
Q 1472 3097 1187 3025 
Q 903 2953 641 2809 
L 641 3341 
Q 956 3463 1253 3523 
Q 1550 3584 1831 3584 
Q 2591 3584 2966 3190 
Q 3341 2797 3341 1997 
z
" transform="scale(0.015625)"/>
      </defs>
      <use xlink:href="#DejaVuSans-4c"/>
      <use xlink:href="#DejaVuSans-61" transform="translate(55.712891 0)"/>
      <use xlink:href="#DejaVuSans-74" transform="translate(116.992188 0)"/>
      <use xlink:href="#DejaVuSans-69" transform="translate(156.201172 0)"/>
      <use xlink:href="#DejaVuSans-74" transform="translate(183.984375 0)"/>
      <use xlink:href="#DejaVuSans-75" transform="translate(223.193359 0)"/>
      <use xlink:href="#DejaVuSans-64" transform="translate(286.572266 0)"/>
      <use xlink:href="#DejaVuSans-65" transform="translate(350.048828 0)"/>
      <use xlink:href="#DejaVuSans-20" transform="translate(411.572266 0)"/>
      <use xlink:href="#DejaVuSans-28" transform="translate(443.359375 0)"/>
      <use xlink:href="#DejaVuSans-b0" transform="translate(482.373047 0)"/>
      <use xlink:href="#DejaVuSans-29" transform="translate(532.373047 0)"/>
     </g>
    </g>
   </g>
   <g id="patch_3">
    <path d="M 90 620.110496 
L 90 252.529504 
" style="fill: none; stroke: #000000; stroke-width: 0.8; stroke-linejoin: miter; stroke-linecap: square"/>
   </g>
   <g id="patch_4">
    <path d="M 648 620.110496 
L 648 252.529504 
" style="fill: none; stroke: #000000; stroke-width: 0.8; stroke-linejoin: miter; stroke-linecap: square"/>
   </g>
   <g id="patch_5">
    <path d="M 90 620.110496 
L 648 620.110496 
" style="fill: none; stroke: #000000; stroke-width: 0.8; stroke-linejoin: miter; stroke-linecap: square"/>
   </g>
   <g id="patch_6">
    <path d="M 90 252.529504 
L 648 252.529504 
" style="fill: none; stroke: #000000; stroke-width: 0.8; stroke-linejoin: miter; stroke-linecap: square"/>
   </g>
   <g id="legend_1">
    <g id="patch_7">
     <path d="M 279.8375 732.91857 
L 458.1625 732.91857 
Q 460.1625 732.91857 460.1625 730.91857 
L 460.1625 700.626695 
Q 460.1625 698.626695 458.1625 698.626695 
L 279.8375 698.626695 
Q 277.8375 698.626695 277.8375 700.626695 
L 277.8375 730.91857 
Q 277.8375 732.91857 279.8375 732.91857 
z
" style="fill: #ffffff; opacity: 0.8; stroke: #cccccc; stroke-linejoin: miter"/>
    </g>
    <g id="text_14">
     <!-- Legenda -->
     <g transform="translate(343.280625 711.74482) scale(0.12 -0.12)">
      <use xlink:href="#DejaVuSans-4c"/>
      <use xlink:href="#DejaVuSans-65" transform="translate(53.962891 0)"/>
      <use xlink:href="#DejaVuSans-67" transform="translate(115.486328 0)"/>
      <use xlink:href="#DejaVuSans-65" transform="translate(178.962891 0)"/>
      <use xlink:href="#DejaVuSans-6e" transform="translate(240.486328 0)"/>
      <use xlink:href="#DejaVuSans-64" transform="translate(303.865234 0)"/>
      <use xlink:href="#DejaVuSans-61" transform="translate(367.341797 0)"/>
     </g>
    </g>
    <g id="patch_8">
     <path d="M 281.8375 726.838882 
L 301.8375 726.838882 
L 301.8375 719.838882 
L 281.8375 719.838882 
L 281.8375 726.838882 
z
" style="fill: none; stroke: #000000; stroke-linejoin: miter"/>
    </g>
    <g id="text_15">
     <!-- Gleba Federal -->
     <g transform="translate(309.8375 726.838882) scale(0.1 -0.1)">
      <defs>
       <path id="DejaVuSans-47" d="M 3809 666 
L 3809 1919 
L 2778 1919 
L 2778 2438 
L 4434 2438 
L 4434 434 
Q 4069 175 3628 42 
Q 3188 -91 2688 -91 
Q 1594 -91 976 548 
Q 359 1188 359 2328 
Q 359 3472 976 4111 
Q 1594 4750 2688 4750 
Q 3144 4750 3555 4637 
Q 3966 4525 4313 4306 
L 4313 3634 
Q 3963 3931 3569 4081 
Q 3175 4231 2741 4231 
Q 1884 4231 1454 3753 
Q 1025 3275 1025 2328 
Q 1025 1384 1454 906 
Q 1884 428 2741 428 
Q 3075 428 3337 486 
Q 3600 544 3809 666 
z
" transform="scale(0.015625)"/>
       <path id="DejaVuSans-6c" d="M 603 4863 
L 1178 4863 
L 1178 0 
L 603 0 
L 603 4863 
z
" transform="scale(0.015625)"/>
       <path id="DejaVuSans-62" d="M 3116 1747 
Q 3116 2381 2855 2742 
Q 2594 3103 2138 3103 
Q 1681 3103 1420 2742 
Q 1159 2381 1159 1747 
Q 1159 1113 1420 752 
Q 1681 391 2138 391 
Q 2594 391 2855 752 
Q 3116 1113 3116 1747 
z
M 1159 2969 
Q 1341 3281 1617 3432 
Q 1894 3584 2278 3584 
Q 2916 3584 3314 3078 
Q 3713 2572 3713 1747 
Q 3713 922 3314 415 
Q 2916 -91 2278 -91 
Q 1894 -91 1617 61 
Q 1341 213 1159 525 
L 1159 0 
L 581 0 
L 581 4863 
L 1159 4863 
L 1159 2969 
z
" transform="scale(0.015625)"/>
       <path id="DejaVuSans-46" d="M 628 4666 
L 3309 4666 
L 3309 4134 
L 1259 4134 
L 1259 2759 
L 3109 2759 
L 3109 2228 
L 1259 2228 
L 1259 0 
L 628 0 
L 628 4666 
z
" transform="scale(0.015625)"/>
       <path id="DejaVuSans-72" d="M 2631 2963 
Q 2534 3019 2420 3045 
Q 2306 3072 2169 3072 
Q 1681 3072 1420 2755 
Q 1159 2438 1159 1844 
L 1159 0 
L 581 0 
L 581 3500 
L 1159 3500 
L 1159 2956 
Q 1341 3275 1631 3429 
Q 1922 3584 2338 3584 
Q 2397 3584 2469 3576 
Q 2541 3569 2628 3553 
L 2631 2963 
z
" transform="scale(0.015625)"/>
      </defs>
      <use xlink:href="#DejaVuSans-47"/>
      <use xlink:href="#DejaVuSans-6c" transform="translate(77.490234 0)"/>
      <use xlink:href="#DejaVuSans-65" transform="translate(105.273438 0)"/>
      <use xlink:href="#DejaVuSans-62" transform="translate(166.796875 0)"/>
      <use xlink:href="#DejaVuSans-61" transform="translate(230.273438 0)"/>
      <use xlink:href="#DejaVuSans-20" transform="translate(291.552734 0)"/>
      <use xlink:href="#DejaVuSans-46" transform="translate(323.339844 0)"/>
      <use xlink:href="#DejaVuSans-65" transform="translate(375.359375 0)"/>
      <use xlink:href="#DejaVuSans-64" transform="translate(436.882812 0)"/>
      <use xlink:href="#DejaVuSans-65" transform="translate(500.359375 0)"/>
      <use xlink:href="#DejaVuSans-72" transform="translate(561.882812 0)"/>
      <use xlink:href="#DejaVuSans-61" transform="translate(602.996094 0)"/>
      <use xlink:href="#DejaVuSans-6c" transform="translate(664.275391 0)"/>
     </g>
    </g>
    <g id="patch_9">
     <path d="M 399.045312 726.838882 
L 419.045312 726.838882 
L 419.045312 719.838882 
L 399.045312 719.838882 
z
" style="fill: #e0bd1f; opacity: 0.6"/>
    </g>
    <g id="text_16">
     <!-- SIGEF -->
     <g transform="translate(427.045312 726.838882) scale(0.1 -0.1)">
      <defs>
       <path id="DejaVuSans-53" d="M 3425 4513 
L 3425 3897 
Q 3066 4069 2747 4153 
Q 2428 4238 2131 4238 
Q 1616 4238 1336 4038 
Q 1056 3838 1056 3469 
Q 1056 3159 1242 3001 
Q 1428 2844 1947 2747 
L 2328 2669 
Q 3034 2534 3370 2195 
Q 3706 1856 3706 1288 
Q 3706 609 3251 259 
Q 2797 -91 1919 -91 
Q 1588 -91 1214 -16 
Q 841 59 441 206 
L 441 856 
Q 825 641 1194 531 
Q 1563 422 1919 422 
Q 2459 422 2753 634 
Q 3047 847 3047 1241 
Q 3047 1584 2836 1778 
Q 2625 1972 2144 2069 
L 1759 2144 
Q 1053 2284 737 2584 
Q 422 2884 422 3419 
Q 422 4038 858 4394 
Q 1294 4750 2059 4750 
Q 2388 4750 2728 4690 
Q 3069 4631 3425 4513 
z
" transform="scale(0.015625)"/>
       <path id="DejaVuSans-49" d="M 628 4666 
L 1259 4666 
L 1259 0 
L 628 0 
L 628 4666 
z
" transform="scale(0.015625)"/>
       <path id="DejaVuSans-45" d="M 628 4666 
L 3578 4666 
L 3578 4134 
L 1259 4134 
L 1259 2753 
L 3481 2753 
L 3481 2222 
L 1259 2222 
L 1259 531 
L 3634 531 
L 3634 0 
L 628 0 
L 628 4666 
z
" transform="scale(0.015625)"/>
      </defs>
      <use xlink:href="#DejaVuSans-53"/>
      <use xlink:href="#DejaVuSans-49" transform="translate(63.476562 0)"/>
      <use xlink:href="#DejaVuSans-47" transform="translate(92.96875 0)"/>
      <use xlink:href="#DejaVuSans-45" transform="translate(170.458984 0)"/>
      <use xlink:href="#DejaVuSans-46" transform="translate(233.642578 0)"/>
     </g>
    </g>
   </g>
  </g>
 </g>
 <defs>
  <clipPath id="pd1164d5bde">
   <rect x="90" y="252.529504" width="558" height="367.580993"/>
  </clipPath>
 </defs>
</svg>
