<?xml version="1.0" encoding="utf-8" standalone="no"?>
<!DOCTYPE svg PUBLIC "-//W3C//DTD SVG 1.1//EN"
  "http://www.w3.org/Graphics/SVG/1.1/DTD/svg11.dtd">
<svg xmlns:xlink="http://www.w3.org/1999/xlink" width="720pt" height="864pt" viewBox="0 0 720 864" xmlns="http://www.w3.org/2000/svg" version="1.1">
 <metadata>
  <rdf:RDF xmlns:dc="http://purl.org/dc/elements/1.1/" xmlns:cc="http://creativecommons.org/ns#" xmlns:rdf="http://www.w3.org/1999/02/22-rdf-syntax-ns#">
   <cc:Work>
    <dc:type rdf:resource="http://purl.org/dc/dcmitype/StillImage"/>
    <dc:date>2025-06-16T17:48:16.311906</dc:date>
    <dc:format>image/svg+xml</dc:format>
    <dc:creator>
     <cc:Agent>
      <dc:title>Matplotlib v3.10.1, https://matplotlib.org/</dc:title>
     </cc:Agent>
    </dc:creator>
   </cc:Work>
  </rdf:RDF>
 </metadata>
 <defs>
  <style type="text/css">*{stroke-linejoin: round; stroke-linecap: butt}</style>
 </defs>
 <g id="figure_1">
  <g id="patch_1">
   <path d="M 0 864 
L 720 864 
L 720 0 
L 0 0 
z
" style="fill: #ffffff"/>
  </g>
  <g id="axes_1">
   <g id="patch_2">
    <path d="M 90 750.071451 
L 648 750.071451 
L 648 122.568549 
L 90 122.568549 
z
" style="fill: #ffffff"/>
   </g>
   <g id="PatchCollection_1">
    <path d="M 217.368162 266.41724 
L 218.214642 270.169463 
L 218.970185 273.989871 
L 220.65576 277.421391 
L 223.171754 280.331707 
L 226.417227 282.552458 
L 228.423572 285.651426 
L 230.524548 286.652431 
L 232.765041 286.825321 
L 235.296187 289.483517 
L 238.675735 290.645012 
L 242.452022 290.358482 
L 244.441213 288.833029 
L 247.250357 289.847553 
L 249.042117 292.960049 
L 252.434096 293.619579 
L 256.217614 293.53107 
L 258.415282 293.539674 
L 259.051555 293.123109 
L 262.296649 294.16758 
L 263.625907 294.873533 
L 264.024243 294.98865 
L 265.687051 295.105185 
L 267.018119 294.002317 
L 270.479513 294.512702 
L 272.763901 295.455098 
L 274.128013 296.732732 
L 277.401577 295.796228 
L 281.187834 295.811344 
L 284.345238 298.002224 
L 288.22854 297.613319 
L 290.477694 296.521566 
L 293.496301 296.209835 
L 284.286782 305.820596 
L 279.014045 308.066207 
L 278.637213 308.237839 
L 252.088717 319.383655 
L 292.788891 387.428336 
L 322.037923 379.441068 
L 322.280852 379.470821 
L 322.72214 379.514552 
L 328.319686 380.408196 
L 334.559319 381.414789 
L 328.510038 384.771765 
L 328.181098 385.006685 
L 318.121076 390.656939 
L 318.985574 402.772107 
L 319.013437 403.192861 
L 320.835962 426.767392 
L 318.718622 425.208252 
L 316.55692 429.890348 
L 314.086013 430.557232 
L 312.471187 433.721668 
L 308.805752 434.655533 
L 305.112545 436.146718 
L 301.369395 435.522909 
L 299.130989 436.13156 
L 297.602683 438.474908 
L 297.589193 442.056159 
L 294.455159 442.79482 
L 291.583245 444.97062 
L 289.238425 447.772769 
L 289.909336 449.986223 
L 288.600068 452.246771 
L 289.221651 453.372706 
L 289.703503 456.682622 
L 290.99201 460.07278 
L 291.485256 463.758407 
L 292.674379 467.235967 
L 293.890446 470.703077 
L 293.898067 470.716941 
L 293.895819 474.486546 
L 293.739352 478.116176 
L 321.21627 495.370136 
L 292.432354 507.352653 
L 292.055422 507.52344 
L 242.772292 528.191284 
L 238.566154 536.855982 
L 235.130913 544.18268 
L 243.558226 563.422074 
L 265.054357 581.783892 
L 267.828341 582.223495 
L 268.23554 582.285182 
L 293.570426 585.808932 
L 327.398542 621.199125 
L 327.755766 621.558602 
L 329.636909 623.452799 
L 331.530107 620.593441 
L 331.835788 620.14161 
L 340.609001 607.601369 
L 375.025646 558.614791 
L 381.948686 576.21885 
L 386.339497 575.329713 
L 392.448808 574.197448 
L 416.576792 569.793181 
L 417.065301 565.117591 
L 418.108012 556.443985 
L 421.896038 525.762105 
L 416.163038 508.901503 
L 419.045091 509.867493 
L 420.353287 509.005732 
L 422.244753 509.426051 
L 425.669602 509.743274 
L 429.891589 510.397363 
L 429.900262 510.352248 
L 430.273779 510.446339 
L 433.642706 509.7485 
L 437.239154 509.877578 
L 439.338896 508.47882 
L 441.070286 509.534435 
L 443.254686 509.100293 
L 444.938561 509.750424 
L 448.47435 509.584925 
L 450.371865 508.47367 
L 452.176165 508.569766 
L 453.878504 510.275559 
L 450.426583 517.957713 
L 481.883444 554.590862 
L 468.871193 581.805536 
L 474.952097 585.920555 
L 475.136535 586.251583 
L 475.606605 585.386035 
L 475.806529 584.722045 
L 477.125392 584.783073 
L 479.924942 584.425395 
L 480.677633 583.98994 
L 480.971248 582.734785 
L 483.835456 580.608668 
L 487.31149 579.082671 
L 488.526646 578.766625 
L 488.603141 577.885129 
L 490.011649 576.924891 
L 491.067203 577.040868 
L 492.395886 574.199009 
L 493.017076 572.985468 
L 492.946387 571.348818 
L 495.29579 570.34794 
L 495.531415 569.648159 
L 497.628697 567.85065 
L 498.456259 566.427987 
L 499.410681 566.10633 
L 501.982181 563.401115 
L 502.852812 562.530325 
L 506.018711 560.656185 
L 509.05526 558.36882 
L 510.940069 556.954535 
L 512.607659 557.139953 
L 516.073368 555.760986 
L 518.131597 555.124623 
L 521.182352 553.003322 
L 522.155987 552.445202 
L 522.687458 551.337633 
L 524.520067 550.801279 
L 525.060505 550.751572 
L 528.158975 552.468353 
L 528.533616 551.343072 
L 529.039183 549.396416 
L 526.681514 546.552133 
L 525.230787 546.400563 
L 526.434278 542.886837 
L 524.4771 539.264891 
L 519.243595 538.667578 
L 521.541482 537.940449 
L 521.769906 535.929953 
L 522.802086 533.426973 
L 519.569112 531.809433 
L 519.031126 528.120557 
L 518.320957 527.097968 
L 510.369678 488.182393 
L 510.726798 481.51828 
L 510.717189 480.980006 
L 510.931113 478.658825 
L 531.096263 470.558967 
L 538.703729 487.255341 
L 544.15523 499.398406 
L 544.930509 517.792015 
L 569.724128 526.78343 
L 584.921073 532.268155 
L 577.315841 544.811664 
L 576.933863 545.597184 
L 568.274212 560.156047 
L 527.778485 627.444937 
L 583.534771 607.416101 
L 583.785813 607.334067 
L 588.04286 606.575298 
L 595.687596 620.961732 
L 622.636364 631.390273 
L 621.85242 635.365533 
L 612.42183 637.22405 
L 558.727508 648.154916 
L 558.078811 648.226347 
L 548.86673 643.310816 
L 548.078161 642.887219 
L 544.322512 640.864272 
L 504.158666 622.144707 
L 503.007099 623.658187 
L 502.755845 623.988714 
L 478.191572 651.543119 
L 481.922769 655.513792 
L 484.062884 657.768342 
L 494.124873 668.242324 
L 496.157128 667.537919 
L 518.045009 660.222959 
L 523.407614 678.542691 
L 514.2154 683.395857 
L 521.918459 689.478767 
L 520.886834 690.197834 
L 520.418321 692.117171 
L 517.987655 691.87447 
L 515.285949 692.944926 
L 515.25935 693.124253 
L 515.153582 693.434132 
L 514.355804 694.600232 
L 511.775541 696.365676 
L 510.409291 695.538446 
L 507.433351 698.091961 
L 504.683874 699.251325 
L 502.298516 700.963807 
L 501.032759 704.093652 
L 500.262259 704.371896 
L 497.120337 704.069529 
L 495.534883 703.213274 
L 494.089202 703.753759 
L 491.202171 701.785649 
L 487.722655 703.17961 
L 485.643434 702.226283 
L 484.857851 706.082664 
L 482.284715 706.333958 
L 479.535947 704.879734 
L 478.408144 704.288888 
L 477.417203 704.503726 
L 474.838769 706.70848 
L 471.883903 708.015468 
L 468.1052 707.644533 
L 465.729018 708.596072 
L 462.52978 709.028577 
L 460.282182 710.238036 
L 459.343459 711.482866 
L 456.997944 712.40086 
L 455.946892 713.078612 
L 454.455727 710.795229 
L 453.192861 707.967958 
L 451.930009 704.85288 
L 449.84541 704.437333 
L 447.189907 702.816252 
L 446.152128 702.856283 
L 445.079285 704.026985 
L 442.565754 703.237 
L 441.617467 701.121963 
L 439.763084 700.900136 
L 436.539301 702.021365 
L 433.30721 700.844981 
L 432.786545 700.375469 
L 432.143375 700.890168 
L 431.329887 703.335937 
L 429.483202 705.626427 
L 426.423671 706.658578 
L 423.013 707.79081 
L 419.912336 707.845048 
L 416.210934 709.263295 
L 413.428872 711.547046 
L 410.387111 716.235615 
L 409.785201 717.809074 
L 407.469601 719.852642 
L 405.23383 719.192008 
L 403.136732 719.440652 
L 399.923365 720.664423 
L 399.279295 721.548592 
L 395.236682 721.012478 
L 393.309887 720.71977 
L 390.659503 720.245632 
L 386.921344 719.744417 
L 384.343508 720.018879 
L 381.420072 719.796386 
L 378.479153 717.502245 
L 375.023676 718.02356 
L 371.063884 718.065161 
L 368.030334 717.780021 
L 365.026748 718.341953 
L 361.718389 718.703705 
L 360.738801 716.137884 
L 358.05858 714.211315 
L 354.853676 712.222134 
L 354.361169 708.555775 
L 352.812198 706.518199 
L 350.664645 705.289401 
L 299.805178 698.158122 
L 268.93579 693.80021 
L 270.245325 690.161037 
L 273.4189 688.027374 
L 276.270982 689.029458 
L 276.100444 686.989776 
L 273.369637 684.158494 
L 270.955861 681.255468 
L 268.356532 679.717019 
L 264.61552 678.988076 
L 261.042505 677.010887 
L 257.137993 678.346901 
L 254.349518 675.535812 
L 252.80653 672.048769 
L 256.188658 670.251482 
L 259.614988 668.832102 
L 263.092246 670.252508 
L 262.048336 666.523056 
L 260.734441 664.60302 
L 260.373471 664.10183 
L 259.382674 663.719865 
L 255.673889 664.674363 
L 248.729247 661.998129 
L 247.194437 658.326996 
L 248.777046 653.827906 
L 250.450592 652.273697 
L 251.715657 648.854924 
L 254.769266 648.540585 
L 255.069727 648.713375 
L 255.568363 652.589365 
L 256.140435 656.723892 
L 258.749097 655.209844 
L 261.41141 657.296818 
L 262.385856 653.938225 
L 262.656059 650.611656 
L 263.42517 647.496128 
L 263.252595 645.481104 
L 259.300589 642.717619 
L 258.674636 640.420814 
L 257.092908 637.430993 
L 254.185707 634.181614 
L 251.916032 631.11279 
L 253.056978 629.092751 
L 254.711734 625.717785 
L 254.58541 625.014196 
L 252.15268 627.686931 
L 252.153937 627.836528 
L 248.538321 628.27956 
L 245.334614 627.952176 
L 243.568043 627.107321 
L 241.015197 629.767848 
L 239.605942 633.397787 
L 238.351974 636.683516 
L 236.045838 638.305981 
L 235.109094 641.975351 
L 232.077849 643.946395 
L 231.512114 647.741316 
L 230.56593 651.211387 
L 228.917446 654.71326 
L 225.96925 656.029335 
L 222.544369 658.137302 
L 218.682161 659.939962 
L 215.763971 662.903676 
L 212.736456 666.331924 
L 210.011 667.311073 
L 208.224205 668.721937 
L 205.076711 670.202779 
L 204.56512 670.106833 
L 201.367419 671.115148 
L 198.512664 673.342856 
L 196.430732 674.509614 
L 193.169386 674.877401 
L 191.643478 676.100612 
L 190.823185 677.172419 
L 190.31308 676.847681 
L 188.368045 674.708597 
L 186.40345 676.4227 
L 185.138238 678.29464 
L 184.11029 679.59906 
L 181.121811 682.110937 
L 180.028341 681.540184 
L 178.984526 678.362358 
L 177.801245 679.163917 
L 177.395417 678.461294 
L 173.975228 676.883208 
L 169.899859 677.011517 
L 167.400492 676.734691 
L 168.261544 673.145205 
L 167.293824 669.941909 
L 166.083047 667.089385 
L 164.641339 664.601118 
L 163.248004 662.445035 
L 163.322198 661.050531 
L 163.330118 660.743064 
L 162.881483 660.112943 
L 160.006573 659.90497 
L 156.660337 650.240566 
L 156.430421 650.0347 
L 154.558571 640.662811 
L 154.01595 637.472118 
L 153.577844 635.456169 
L 154.75776 623.007838 
L 157.639803 596.185062 
L 157.81357 595.748658 
L 160.015815 594.420623 
L 163.63805 593.871306 
L 166.991169 592.638766 
L 169.812102 591.336139 
L 200.800509 512.419092 
L 202.066384 511.755356 
L 202.343783 509.814216 
L 202.13825 508.40793 
L 202.576115 507.395597 
L 202.40854 506.834223 
L 202.315003 505.955817 
L 202.558257 503.449908 
L 201.90034 501.964881 
L 200.72691 501.857805 
L 201.037654 500.780603 
L 200.458077 500.49636 
L 200.580721 499.945612 
L 201.527641 499.275216 
L 201.53252 497.659941 
L 116.505709 461.130062 
L 116.717534 460.140041 
L 115.363636 459.793403 
L 116.196356 456.706479 
L 115.833384 454.552914 
L 117.112041 454.66418 
L 116.403671 453.769531 
L 119.336287 453.413706 
L 121.720537 453.916704 
L 122.797052 452.987191 
L 122.275945 450.918375 
L 125.438166 450.037825 
L 125.284068 448.41798 
L 126.523013 447.58653 
L 127.574971 444.808597 
L 129.79433 441.364233 
L 130.146093 439.159643 
L 132.479212 437.65242 
L 132.199517 436.450615 
L 132.677615 432.39333 
L 134.566735 430.541122 
L 136.395696 427.816799 
L 139.676556 425.672152 
L 141.952919 424.922129 
L 144.258837 426.334508 
L 146.535123 427.331547 
L 147.737551 427.927041 
L 149.806169 426.903559 
L 151.345017 425.462125 
L 153.215425 423.695227 
L 154.70666 421.520838 
L 155.634309 419.454918 
L 155.222692 417.8498 
L 157.573093 416.189161 
L 160.857496 414.77914 
L 161.460224 413.96088 
L 164.550769 411.846638 
L 165.107836 410.462433 
L 163.954889 408.290652 
L 165.44413 405.026449 
L 167.494798 402.838139 
L 165.657669 401.23992 
L 167.536513 397.938991 
L 169.231147 394.508062 
L 171.151319 392.244692 
L 174.218971 391.904329 
L 176.082637 390.819134 
L 177.628144 387.410379 
L 178.865129 388.317479 
L 182.309305 389.758992 
L 182.698669 388.339884 
L 183.485681 387.891589 
L 186.352926 387.249389 
L 186.67985 384.317866 
L 188.490331 381.125879 
L 192.125285 379.675494 
L 194.08179 381.672188 
L 194.707122 381.606637 
L 198.294534 381.701242 
L 200.587856 380.613322 
L 201.31215 379.10181 
L 202.770296 378.673481 
L 205.675178 379.789887 
L 207.737056 378.750632 
L 206.035645 377.759136 
L 207.059436 376.442762 
L 208.994095 373.065979 
L 212.171104 370.867071 
L 213.107659 368.764825 
L 211.913845 368.174591 
L 208.959455 366.719729 
L 208.488014 365.418627 
L 207.348883 365.418772 
L 207.341418 364.922934 
L 209.501701 363.899856 
L 210.985723 360.406623 
L 211.521511 358.121898 
L 211.098545 356.464599 
L 208.066431 354.238271 
L 208.447456 351.635284 
L 204.777246 350.637338 
L 204.61698 349.416765 
L 206.208997 345.755619 
L 206.671141 341.926492 
L 207.279831 338.13373 
L 207.85823 334.26967 
L 208.370416 330.533123 
L 207.936084 330.214619 
L 204.167739 330.906651 
L 203.47416 328.747283 
L 201.268381 327.617678 
L 199.618573 325.706856 
L 197.814152 325.738949 
L 194.205089 327.294604 
L 192.324124 331.383861 
L 188.942814 331.224017 
L 187.417454 329.788417 
L 184.392064 330.059737 
L 181.15446 329.056504 
L 178.639461 329.404892 
L 175.111922 329.636056 
L 171.513773 329.413579 
L 173.48678 327.116281 
L 173.497826 325.419091 
L 169.765273 325.569886 
L 166.835928 325.333043 
L 167.137066 322.17979 
L 165.596677 319.033225 
L 168.161204 316.957755 
L 170.602571 314.406255 
L 172.962239 311.795472 
L 171.936894 311.217618 
L 170.206389 309.001433 
L 166.905831 307.446602 
L 164.513953 304.610698 
L 164.147689 303.04828 
L 165.848897 299.83679 
L 164.931295 296.51688 
L 161.736838 297.326757 
L 161.431302 294.272068 
L 161.020946 291.652033 
L 160.659587 288.082578 
L 161.061355 284.337625 
L 162.543739 281.035591 
L 162.445278 277.339341 
L 161.29874 273.917432 
L 162.253399 272.152857 
L 163.959324 271.809531 
L 167.886048 272.037619 
L 171.254496 270.264942 
L 172.702623 267.49128 
L 175.923986 265.510658 
L 179.198314 265.516541 
L 182.466535 265.654835 
L 185.505761 266.920073 
L 189.095529 268.112113 
L 193.434314 267.575515 
L 197.149793 266.626463 
L 198.821052 267.378831 
L 201.393274 267.009022 
L 203.564656 265.913393 
L 207.181262 265.932887 
L 207.520559 265.933742 
L 217.206137 262.503252 
L 217.368162 266.41724 
" clip-path="url(#p99bbb7cd93)" style="fill: #e0bd1f; stroke: #0000ff; stroke-width: 0.5"/>
    <path d="M 481.93672 245.817821 
L 484.648717 248.014944 
L 487.903688 250.44335 
L 490.002545 253.794955 
L 492.243322 256.719788 
L 495.218836 259.352233 
L 496.594852 260.804141 
L 498.403949 263.629787 
L 501.970541 266.087005 
L 504.137437 264.657707 
L 505.485793 264.0623 
L 510.024497 265.323983 
L 512.93052 264.936762 
L 513.545036 264.629643 
L 513.944996 264.183806 
L 514.050532 263.436893 
L 513.688414 262.070583 
L 513.780775 260.083665 
L 514.250483 258.449234 
L 514.751596 257.920805 
L 517.342582 257.226586 
L 517.799333 257.377865 
L 519.218542 258.186234 
L 520.584097 261.061842 
L 521.237428 263.432814 
L 521.894288 265.09146 
L 522.620877 265.877026 
L 523.493598 266.313616 
L 525.922792 266.30123 
L 528.174522 266.84486 
L 529.266325 267.243857 
L 530.051664 267.417445 
L 531.816076 268.138976 
L 533.159976 269.388172 
L 534.567137 272.146091 
L 536.065814 274.469845 
L 537.608504 277.104862 
L 539.382893 279.628218 
L 540.265762 280.860354 
L 542.13692 282.709498 
L 543.086121 283.416819 
L 543.972668 283.362522 
L 545.76317 282.482368 
L 546.01419 282.203502 
L 547.763893 283.040678 
L 558.586016 292.842284 
L 560.276987 307.735269 
L 562.493438 327.824043 
L 567.709695 331.316875 
L 564.597993 334.952745 
L 560.952921 336.003901 
L 550.932482 341.391241 
L 550.619477 341.536546 
L 536.545842 345.284563 
L 518.925114 341.216831 
L 515.979487 341.691286 
L 515.286788 341.856058 
L 507.046867 343.185507 
L 495.060114 345.245745 
L 452.679473 342.81394 
L 450.39575 353.399948 
L 488.613101 370.122259 
L 510.693306 368.029964 
L 501.636605 377.422203 
L 499.289879 379.831822 
L 502.034768 402.576285 
L 503.718836 402.25797 
L 515.039125 399.811735 
L 553.601243 403.092144 
L 558.899218 411.351333 
L 561.293853 415.107784 
L 526.208199 415.17979 
L 513.942876 412.784675 
L 513.108757 423.519929 
L 513.096652 423.991793 
L 510.123797 427.197197 
L 500.052816 438.389755 
L 503.103767 441.658701 
L 525.349007 444.101797 
L 523.551826 449.491912 
L 522.35795 453.132288 
L 516.187762 453.034916 
L 479.46018 453.078708 
L 482.584462 428.672996 
L 482.716114 428.25968 
L 485.090715 409.734793 
L 485.150283 408.510654 
L 487.026958 395.214944 
L 419.956257 394.762506 
L 411.556553 394.641889 
L 413.882078 389.670605 
L 418.434912 380.188818 
L 429.231252 358.395554 
L 427.891556 358.355072 
L 427.061298 357.824298 
L 424.929187 354.830626 
L 422.673109 352.534987 
L 421.581197 348.813303 
L 419.825896 345.706051 
L 418.637118 344.506268 
L 418.181755 342.905299 
L 416.091151 343.22592 
L 414.01238 341.155358 
L 410.697461 339.683766 
L 408.593525 337.217904 
L 406.314129 334.087121 
L 405.097546 333.644082 
L 402.475968 333.822345 
L 400.085599 331.3447 
L 400.942283 327.557415 
L 398.344308 325.756012 
L 396.307461 324.63629 
L 394.203332 324.411971 
L 391.754129 323.340487 
L 391.903397 322.028853 
L 391.060651 320.433392 
L 388.338607 320.299984 
L 386.308534 319.115973 
L 384.324883 316.943957 
L 383.4765 315.084589 
L 381.310185 314.172215 
L 379.95117 310.918155 
L 377.704413 308.163822 
L 375.220107 305.448523 
L 372.400961 302.900102 
L 370.9573 300.250531 
L 369.908625 296.545834 
L 369.73935 293.847043 
L 417.588676 315.899528 
L 447.179072 298.196048 
L 457.249904 299.837833 
L 457.514644 296.481377 
L 458.724682 292.751824 
L 459.713837 290.768691 
L 462.194737 289.000768 
L 462.714958 285.040247 
L 463.728018 281.432831 
L 465.991106 278.469174 
L 467.514386 274.835607 
L 467.032782 272.472578 
L 467.379191 269.128281 
L 469.181648 267.849661 
L 470.419169 265.576109 
L 468.742335 262.155891 
L 470.090047 260.78247 
L 472.18244 258.891129 
L 474.89098 259.503792 
L 476.613212 256.717166 
L 477.849591 254.945874 
L 478.608932 252.812362 
L 477.449401 250.856881 
L 477.237227 249.379785 
L 478.392073 247.604797 
L 480.532567 244.470023 
L 481.93672 245.817821 
" clip-path="url(#p99bbb7cd93)" style="fill: #e0bd1f; stroke: #0000ff; stroke-width: 0.5"/>
   </g>
   <g id="PatchCollection_2">
    <path d="M 286.799438 158.256266 
L 288.06617 158.273616 
L 288.874502 158.168421 
L 290.147516 157.720795 
L 291.196839 156.804527 
L 294.000858 153.93525 
L 294.923917 153.831619 
L 295.845408 153.844225 
L 299.738321 155.641955 
L 309.225574 161.238134 
L 312.429154 162.91011 
L 314.84479 163.175617 
L 320.487801 163.368878 
L 322.092741 163.972609 
L 323.915675 165.509436 
L 325.051789 166.687837 
L 325.246036 169.365629 
L 324.845475 173.431013 
L 325.15862 175.877894 
L 325.815459 178.445468 
L 326.495267 179.268854 
L 328.326342 180.224197 
L 333.209819 181.422181 
L 334.930345 182.027203 
L 337.999854 185.092944 
L 341.094654 186.298248 
L 344.203535 186.456815 
L 347.195594 186.730305 
L 349.261161 187.33998 
L 351.877213 187.12714 
L 353.225477 189.704358 
L 355.381623 192.176025 
L 355.711545 193.343689 
L 356.35579 196.841465 
L 356.918058 197.896021 
L 358.060541 198.609397 
L 358.732875 200.014505 
L 358.678537 204.084645 
L 359.006907 205.368555 
L 360.034405 206.080109 
L 360.831372 206.789049 
L 361.739192 207.848034 
L 362.173214 209.831495 
L 362.934588 213.214599 
L 363.248943 215.544712 
L 364.536233 222.657302 
L 366.9728 229.693937 
L 368.219971 231.222851 
L 369.250636 231.702164 
L 370.398134 232.066798 
L 372.241147 232.091806 
L 377.539392 232.279664 
L 379.021544 233.463206 
L 379.469912 234.399677 
L 379.876245 238.476082 
L 380.656417 240.463714 
L 381.560943 241.755688 
L 387.279415 244.97341 
L 389.088783 247.556568 
L 390.210925 249.781878 
L 392.929813 253.307738 
L 395.314823 255.898677 
L 396.682058 257.08063 
L 398.173645 257.565879 
L 401.519471 257.262586 
L 404.149273 255.890444 
L 403.679112 256.581957 
L 402.958215 258.782332 
L 401.052704 263.408822 
L 400.664926 266.543839 
L 400.171445 268.979814 
L 399.70127 269.671322 
L 398.770498 270.35659 
L 397.728592 270.691556 
L 394.152129 270.99195 
L 392.299388 271.664988 
L 387.539789 274.275433 
L 386.602773 275.425666 
L 386.584089 276.821394 
L 390.997751 282.812893 
L 391.332699 283.631563 
L 391.203413 284.676474 
L 390.7288 285.716967 
L 389.680896 286.516897 
L 388.629878 287.549575 
L 388.154742 288.589801 
L 389.495559 291.748479 
L 389.697843 293.844804 
L 389.107938 294.883473 
L 387.480742 295.90834 
L 386.320645 296.474203 
L 381.241459 297.102915 
L 379.15363 298.121763 
L 376.852465 297.805973 
L 375.93663 297.380233 
L 375.264176 295.975124 
L 375.053887 294.460546 
L 374.139694 293.866542 
L 371.489772 293.830288 
L 369.06079 294.495147 
L 364.84465 296.408383 
L 361.489229 297.409405 
L 359.410504 297.729924 
L 357.567033 297.704838 
L 355.273375 296.859755 
L 354.711307 295.805188 
L 354.605664 295.105897 
L 354.985658 292.552179 
L 355.81269 291.051461 
L 356.528867 289.200432 
L 356.317329 287.801843 
L 355.990249 286.40168 
L 355.425316 285.579871 
L 354.509599 285.101825 
L 353.243869 284.968329 
L 349.773483 285.968244 
L 347.694541 286.288722 
L 345.966386 286.265434 
L 342.282404 285.982428 
L 333.394923 287.024105 
L 330.626393 287.21884 
L 325.893135 287.852303 
L 323.808171 288.637666 
L 322.537739 288.853091 
L 320.118179 288.820014 
L 318.270041 289.143796 
L 315.026508 290.3786 
L 309.089308 294.833207 
L 304.215269 297.325557 
L 302.370253 297.416534 
L 300.873971 297.2795 
L 299.041558 296.440266 
L 296.162444 296.284517 
L 294.65986 296.612952 
L 289.547838 299.682961 
L 287.084021 300.128228 
L 285.243419 299.870367 
L 283.987427 299.039009 
L 282.385339 298.202894 
L 280.322442 297.360451 
L 278.024246 296.863573 
L 275.374385 296.82713 
L 269.962302 296.520142 
L 266.863994 295.547125 
L 263.986761 295.274714 
L 259.147423 295.208037 
L 256.838673 295.525005 
L 253.269976 295.243484 
L 251.666381 294.523523 
L 246.29903 290.960027 
L 244.007293 289.998056 
L 242.049963 289.854518 
L 239.510936 290.168494 
L 236.631919 290.012449 
L 234.793014 289.638211 
L 233.535257 288.922973 
L 230.456147 286.554116 
L 225.997733 283.933625 
L 221.574654 278.755386 
L 220.368911 274.202628 
L 219.244231 271.438428 
L 218.649678 265.107318 
L 218.679729 263.325835 
L 220.100354 260.553918 
L 223.550998 252.576735 
L 226.752202 245.99173 
L 227.00153 244.599511 
L 227.445772 237.394542 
L 227.352726 235.765328 
L 226.59561 232.149177 
L 225.239954 230.1532 
L 221.326932 221.376326 
L 220.198656 219.616271 
L 219.18883 217.625071 
L 216.079596 209.091563 
L 214.725606 206.979597 
L 208.808594 196.99803 
L 203.276833 188.663736 
L 202.324232 184.518183 
L 202.363625 181.638461 
L 203.195831 178.769462 
L 203.849924 177.338384 
L 211.530384 172.324489 
L 215.520368 170.459397 
L 222.344833 170.073573 
L 224.820152 170.107761 
L 239.795739 157.828999 
L 245.395773 152.919054 
L 248.404913 151.913852 
L 250.945413 151.4835 
L 253.59932 151.171217 
L 256.25033 151.091408 
L 258.779779 151.474968 
L 266.232149 154.136187 
L 268.647948 154.402144 
L 275.329095 154.493301 
L 277.741761 154.991705 
L 283.695495 157.748687 
L 286.799438 158.256266 
L 286.799438 158.256266 
" clip-path="url(#p99bbb7cd93)" style="fill: none; stroke: #000000"/>
   </g>
   <g id="matplotlib.axis_1">
    <g id="xtick_1">
     <g id="line2d_1">
      <path d="M 149.352098 750.071451 
L 149.352098 122.568549 
" clip-path="url(#p99bbb7cd93)" style="fill: none; stroke: #b0b0b0; stroke-width: 0.8; stroke-linecap: square"/>
     </g>
     <g id="line2d_2">
      <defs>
       <path id="mbbd34c8acb" d="M 0 0 
L 0 3.5 
" style="stroke: #000000; stroke-width: 0.8"/>
      </defs>
      <g>
       <use xlink:href="#mbbd34c8acb" x="149.352098" y="750.071451" style="stroke: #000000; stroke-width: 0.8"/>
      </g>
     </g>
     <g id="text_1">
      <!-- −53.875 -->
      <g transform="translate(135.96955 793.1118) rotate(-45) scale(0.1 -0.1)">
       <defs>
        <path id="DejaVuSans-2212" d="M 678 2272 
L 4684 2272 
L 4684 1741 
L 678 1741 
L 678 2272 
z
" transform="scale(0.015625)"/>
        <path id="DejaVuSans-35" d="M 691 4666 
L 3169 4666 
L 3169 4134 
L 1269 4134 
L 1269 2991 
Q 1406 3038 1543 3061 
Q 1681 3084 1819 3084 
Q 2600 3084 3056 2656 
Q 3513 2228 3513 1497 
Q 3513 744 3044 326 
Q 2575 -91 1722 -91 
Q 1428 -91 1123 -41 
Q 819 9 494 109 
L 494 744 
Q 775 591 1075 516 
Q 1375 441 1709 441 
Q 2250 441 2565 725 
Q 2881 1009 2881 1497 
Q 2881 1984 2565 2268 
Q 2250 2553 1709 2553 
Q 1456 2553 1204 2497 
Q 953 2441 691 2322 
L 691 4666 
z
" transform="scale(0.015625)"/>
        <path id="DejaVuSans-33" d="M 2597 2516 
Q 3050 2419 3304 2112 
Q 3559 1806 3559 1356 
Q 3559 666 3084 287 
Q 2609 -91 1734 -91 
Q 1441 -91 1130 -33 
Q 819 25 488 141 
L 488 750 
Q 750 597 1062 519 
Q 1375 441 1716 441 
Q 2309 441 2620 675 
Q 2931 909 2931 1356 
Q 2931 1769 2642 2001 
Q 2353 2234 1838 2234 
L 1294 2234 
L 1294 2753 
L 1863 2753 
Q 2328 2753 2575 2939 
Q 2822 3125 2822 3475 
Q 2822 3834 2567 4026 
Q 2313 4219 1838 4219 
Q 1578 4219 1281 4162 
Q 984 4106 628 3988 
L 628 4550 
Q 988 4650 1302 4700 
Q 1616 4750 1894 4750 
Q 2613 4750 3031 4423 
Q 3450 4097 3450 3541 
Q 3450 3153 3228 2886 
Q 3006 2619 2597 2516 
z
" transform="scale(0.015625)"/>
        <path id="DejaVuSans-2e" d="M 684 794 
L 1344 794 
L 1344 0 
L 684 0 
L 684 794 
z
" transform="scale(0.015625)"/>
        <path id="DejaVuSans-38" d="M 2034 2216 
Q 1584 2216 1326 1975 
Q 1069 1734 1069 1313 
Q 1069 891 1326 650 
Q 1584 409 2034 409 
Q 2484 409 2743 651 
Q 3003 894 3003 1313 
Q 3003 1734 2745 1975 
Q 2488 2216 2034 2216 
z
M 1403 2484 
Q 997 2584 770 2862 
Q 544 3141 544 3541 
Q 544 4100 942 4425 
Q 1341 4750 2034 4750 
Q 2731 4750 3128 4425 
Q 3525 4100 3525 3541 
Q 3525 3141 3298 2862 
Q 3072 2584 2669 2484 
Q 3125 2378 3379 2068 
Q 3634 1759 3634 1313 
Q 3634 634 3220 271 
Q 2806 -91 2034 -91 
Q 1263 -91 848 271 
Q 434 634 434 1313 
Q 434 1759 690 2068 
Q 947 2378 1403 2484 
z
M 1172 3481 
Q 1172 3119 1398 2916 
Q 1625 2713 2034 2713 
Q 2441 2713 2670 2916 
Q 2900 3119 2900 3481 
Q 2900 3844 2670 4047 
Q 2441 4250 2034 4250 
Q 1625 4250 1398 4047 
Q 1172 3844 1172 3481 
z
" transform="scale(0.015625)"/>
        <path id="DejaVuSans-37" d="M 525 4666 
L 3525 4666 
L 3525 4397 
L 1831 0 
L 1172 0 
L 2766 4134 
L 525 4134 
L 525 4666 
z
" transform="scale(0.015625)"/>
       </defs>
       <use xlink:href="#DejaVuSans-2212"/>
       <use xlink:href="#DejaVuSans-35" transform="translate(83.789062 0)"/>
       <use xlink:href="#DejaVuSans-33" transform="translate(147.412109 0)"/>
       <use xlink:href="#DejaVuSans-2e" transform="translate(211.035156 0)"/>
       <use xlink:href="#DejaVuSans-38" transform="translate(242.822266 0)"/>
       <use xlink:href="#DejaVuSans-37" transform="translate(306.445312 0)"/>
       <use xlink:href="#DejaVuSans-35" transform="translate(370.068359 0)"/>
      </g>
     </g>
    </g>
    <g id="xtick_2">
     <g id="line2d_3">
      <path d="M 218.552861 750.071451 
L 218.552861 122.568549 
" clip-path="url(#p99bbb7cd93)" style="fill: none; stroke: #b0b0b0; stroke-width: 0.8; stroke-linecap: square"/>
     </g>
     <g id="line2d_4">
      <g>
       <use xlink:href="#mbbd34c8acb" x="218.552861" y="750.071451" style="stroke: #000000; stroke-width: 0.8"/>
      </g>
     </g>
     <g id="text_2">
      <!-- −53.850 -->
      <g transform="translate(205.170313 793.1118) rotate(-45) scale(0.1 -0.1)">
       <defs>
        <path id="DejaVuSans-30" d="M 2034 4250 
Q 1547 4250 1301 3770 
Q 1056 3291 1056 2328 
Q 1056 1369 1301 889 
Q 1547 409 2034 409 
Q 2525 409 2770 889 
Q 3016 1369 3016 2328 
Q 3016 3291 2770 3770 
Q 2525 4250 2034 4250 
z
M 2034 4750 
Q 2819 4750 3233 4129 
Q 3647 3509 3647 2328 
Q 3647 1150 3233 529 
Q 2819 -91 2034 -91 
Q 1250 -91 836 529 
Q 422 1150 422 2328 
Q 422 3509 836 4129 
Q 1250 4750 2034 4750 
z
" transform="scale(0.015625)"/>
       </defs>
       <use xlink:href="#DejaVuSans-2212"/>
       <use xlink:href="#DejaVuSans-35" transform="translate(83.789062 0)"/>
       <use xlink:href="#DejaVuSans-33" transform="translate(147.412109 0)"/>
       <use xlink:href="#DejaVuSans-2e" transform="translate(211.035156 0)"/>
       <use xlink:href="#DejaVuSans-38" transform="translate(242.822266 0)"/>
       <use xlink:href="#DejaVuSans-35" transform="translate(306.445312 0)"/>
       <use xlink:href="#DejaVuSans-30" transform="translate(370.068359 0)"/>
      </g>
     </g>
    </g>
    <g id="xtick_3">
     <g id="line2d_5">
      <path d="M 287.753624 750.071451 
L 287.753624 122.568549 
" clip-path="url(#p99bbb7cd93)" style="fill: none; stroke: #b0b0b0; stroke-width: 0.8; stroke-linecap: square"/>
     </g>
     <g id="line2d_6">
      <g>
       <use xlink:href="#mbbd34c8acb" x="287.753624" y="750.071451" style="stroke: #000000; stroke-width: 0.8"/>
      </g>
     </g>
     <g id="text_3">
      <!-- −53.825 -->
      <g transform="translate(274.371076 793.1118) rotate(-45) scale(0.1 -0.1)">
       <defs>
        <path id="DejaVuSans-32" d="M 1228 531 
L 3431 531 
L 3431 0 
L 469 0 
L 469 531 
Q 828 903 1448 1529 
Q 2069 2156 2228 2338 
Q 2531 2678 2651 2914 
Q 2772 3150 2772 3378 
Q 2772 3750 2511 3984 
Q 2250 4219 1831 4219 
Q 1534 4219 1204 4116 
Q 875 4013 500 3803 
L 500 4441 
Q 881 4594 1212 4672 
Q 1544 4750 1819 4750 
Q 2544 4750 2975 4387 
Q 3406 4025 3406 3419 
Q 3406 3131 3298 2873 
Q 3191 2616 2906 2266 
Q 2828 2175 2409 1742 
Q 1991 1309 1228 531 
z
" transform="scale(0.015625)"/>
       </defs>
       <use xlink:href="#DejaVuSans-2212"/>
       <use xlink:href="#DejaVuSans-35" transform="translate(83.789062 0)"/>
       <use xlink:href="#DejaVuSans-33" transform="translate(147.412109 0)"/>
       <use xlink:href="#DejaVuSans-2e" transform="translate(211.035156 0)"/>
       <use xlink:href="#DejaVuSans-38" transform="translate(242.822266 0)"/>
       <use xlink:href="#DejaVuSans-32" transform="translate(306.445312 0)"/>
       <use xlink:href="#DejaVuSans-35" transform="translate(370.068359 0)"/>
      </g>
     </g>
    </g>
    <g id="xtick_4">
     <g id="line2d_7">
      <path d="M 356.954388 750.071451 
L 356.954388 122.568549 
" clip-path="url(#p99bbb7cd93)" style="fill: none; stroke: #b0b0b0; stroke-width: 0.8; stroke-linecap: square"/>
     </g>
     <g id="line2d_8">
      <g>
       <use xlink:href="#mbbd34c8acb" x="356.954388" y="750.071451" style="stroke: #000000; stroke-width: 0.8"/>
      </g>
     </g>
     <g id="text_4">
      <!-- −53.800 -->
      <g transform="translate(343.571839 793.1118) rotate(-45) scale(0.1 -0.1)">
       <use xlink:href="#DejaVuSans-2212"/>
       <use xlink:href="#DejaVuSans-35" transform="translate(83.789062 0)"/>
       <use xlink:href="#DejaVuSans-33" transform="translate(147.412109 0)"/>
       <use xlink:href="#DejaVuSans-2e" transform="translate(211.035156 0)"/>
       <use xlink:href="#DejaVuSans-38" transform="translate(242.822266 0)"/>
       <use xlink:href="#DejaVuSans-30" transform="translate(306.445312 0)"/>
       <use xlink:href="#DejaVuSans-30" transform="translate(370.068359 0)"/>
      </g>
     </g>
    </g>
    <g id="xtick_5">
     <g id="line2d_9">
      <path d="M 426.155151 750.071451 
L 426.155151 122.568549 
" clip-path="url(#p99bbb7cd93)" style="fill: none; stroke: #b0b0b0; stroke-width: 0.8; stroke-linecap: square"/>
     </g>
     <g id="line2d_10">
      <g>
       <use xlink:href="#mbbd34c8acb" x="426.155151" y="750.071451" style="stroke: #000000; stroke-width: 0.8"/>
      </g>
     </g>
     <g id="text_5">
      <!-- −53.775 -->
      <g transform="translate(412.772602 793.1118) rotate(-45) scale(0.1 -0.1)">
       <use xlink:href="#DejaVuSans-2212"/>
       <use xlink:href="#DejaVuSans-35" transform="translate(83.789062 0)"/>
       <use xlink:href="#DejaVuSans-33" transform="translate(147.412109 0)"/>
       <use xlink:href="#DejaVuSans-2e" transform="translate(211.035156 0)"/>
       <use xlink:href="#DejaVuSans-37" transform="translate(242.822266 0)"/>
       <use xlink:href="#DejaVuSans-37" transform="translate(306.445312 0)"/>
       <use xlink:href="#DejaVuSans-35" transform="translate(370.068359 0)"/>
      </g>
     </g>
    </g>
    <g id="xtick_6">
     <g id="line2d_11">
      <path d="M 495.355914 750.071451 
L 495.355914 122.568549 
" clip-path="url(#p99bbb7cd93)" style="fill: none; stroke: #b0b0b0; stroke-width: 0.8; stroke-linecap: square"/>
     </g>
     <g id="line2d_12">
      <g>
       <use xlink:href="#mbbd34c8acb" x="495.355914" y="750.071451" style="stroke: #000000; stroke-width: 0.8"/>
      </g>
     </g>
     <g id="text_6">
      <!-- −53.750 -->
      <g transform="translate(481.973365 793.1118) rotate(-45) scale(0.1 -0.1)">
       <use xlink:href="#DejaVuSans-2212"/>
       <use xlink:href="#DejaVuSans-35" transform="translate(83.789062 0)"/>
       <use xlink:href="#DejaVuSans-33" transform="translate(147.412109 0)"/>
       <use xlink:href="#DejaVuSans-2e" transform="translate(211.035156 0)"/>
       <use xlink:href="#DejaVuSans-37" transform="translate(242.822266 0)"/>
       <use xlink:href="#DejaVuSans-35" transform="translate(306.445312 0)"/>
       <use xlink:href="#DejaVuSans-30" transform="translate(370.068359 0)"/>
      </g>
     </g>
    </g>
    <g id="xtick_7">
     <g id="line2d_13">
      <path d="M 564.556677 750.071451 
L 564.556677 122.568549 
" clip-path="url(#p99bbb7cd93)" style="fill: none; stroke: #b0b0b0; stroke-width: 0.8; stroke-linecap: square"/>
     </g>
     <g id="line2d_14">
      <g>
       <use xlink:href="#mbbd34c8acb" x="564.556677" y="750.071451" style="stroke: #000000; stroke-width: 0.8"/>
      </g>
     </g>
     <g id="text_7">
      <!-- −53.725 -->
      <g transform="translate(551.174128 793.1118) rotate(-45) scale(0.1 -0.1)">
       <use xlink:href="#DejaVuSans-2212"/>
       <use xlink:href="#DejaVuSans-35" transform="translate(83.789062 0)"/>
       <use xlink:href="#DejaVuSans-33" transform="translate(147.412109 0)"/>
       <use xlink:href="#DejaVuSans-2e" transform="translate(211.035156 0)"/>
       <use xlink:href="#DejaVuSans-37" transform="translate(242.822266 0)"/>
       <use xlink:href="#DejaVuSans-32" transform="translate(306.445312 0)"/>
       <use xlink:href="#DejaVuSans-35" transform="translate(370.068359 0)"/>
      </g>
     </g>
    </g>
    <g id="xtick_8">
     <g id="line2d_15">
      <path d="M 633.75744 750.071451 
L 633.75744 122.568549 
" clip-path="url(#p99bbb7cd93)" style="fill: none; stroke: #b0b0b0; stroke-width: 0.8; stroke-linecap: square"/>
     </g>
     <g id="line2d_16">
      <g>
       <use xlink:href="#mbbd34c8acb" x="633.75744" y="750.071451" style="stroke: #000000; stroke-width: 0.8"/>
      </g>
     </g>
     <g id="text_8">
      <!-- −53.700 -->
      <g transform="translate(620.374891 793.1118) rotate(-45) scale(0.1 -0.1)">
       <use xlink:href="#DejaVuSans-2212"/>
       <use xlink:href="#DejaVuSans-35" transform="translate(83.789062 0)"/>
       <use xlink:href="#DejaVuSans-33" transform="translate(147.412109 0)"/>
       <use xlink:href="#DejaVuSans-2e" transform="translate(211.035156 0)"/>
       <use xlink:href="#DejaVuSans-37" transform="translate(242.822266 0)"/>
       <use xlink:href="#DejaVuSans-30" transform="translate(306.445312 0)"/>
       <use xlink:href="#DejaVuSans-30" transform="translate(370.068359 0)"/>
      </g>
     </g>
    </g>
    <g id="text_9">
     <!-- Longitude (°) -->
     <g transform="translate(336.139844 806.180798) scale(0.1 -0.1)">
      <defs>
       <path id="DejaVuSans-4c" d="M 628 4666 
L 1259 4666 
L 1259 531 
L 3531 531 
L 3531 0 
L 628 0 
L 628 4666 
z
" transform="scale(0.015625)"/>
       <path id="DejaVuSans-6f" d="M 1959 3097 
Q 1497 3097 1228 2736 
Q 959 2375 959 1747 
Q 959 1119 1226 758 
Q 1494 397 1959 397 
Q 2419 397 2687 759 
Q 2956 1122 2956 1747 
Q 2956 2369 2687 2733 
Q 2419 3097 1959 3097 
z
M 1959 3584 
Q 2709 3584 3137 3096 
Q 3566 2609 3566 1747 
Q 3566 888 3137 398 
Q 2709 -91 1959 -91 
Q 1206 -91 779 398 
Q 353 888 353 1747 
Q 353 2609 779 3096 
Q 1206 3584 1959 3584 
z
" transform="scale(0.015625)"/>
       <path id="DejaVuSans-6e" d="M 3513 2113 
L 3513 0 
L 2938 0 
L 2938 2094 
Q 2938 2591 2744 2837 
Q 2550 3084 2163 3084 
Q 1697 3084 1428 2787 
Q 1159 2491 1159 1978 
L 1159 0 
L 581 0 
L 581 3500 
L 1159 3500 
L 1159 2956 
Q 1366 3272 1645 3428 
Q 1925 3584 2291 3584 
Q 2894 3584 3203 3211 
Q 3513 2838 3513 2113 
z
" transform="scale(0.015625)"/>
       <path id="DejaVuSans-67" d="M 2906 1791 
Q 2906 2416 2648 2759 
Q 2391 3103 1925 3103 
Q 1463 3103 1205 2759 
Q 947 2416 947 1791 
Q 947 1169 1205 825 
Q 1463 481 1925 481 
Q 2391 481 2648 825 
Q 2906 1169 2906 1791 
z
M 3481 434 
Q 3481 -459 3084 -895 
Q 2688 -1331 1869 -1331 
Q 1566 -1331 1297 -1286 
Q 1028 -1241 775 -1147 
L 775 -588 
Q 1028 -725 1275 -790 
Q 1522 -856 1778 -856 
Q 2344 -856 2625 -561 
Q 2906 -266 2906 331 
L 2906 616 
Q 2728 306 2450 153 
Q 2172 0 1784 0 
Q 1141 0 747 490 
Q 353 981 353 1791 
Q 353 2603 747 3093 
Q 1141 3584 1784 3584 
Q 2172 3584 2450 3431 
Q 2728 3278 2906 2969 
L 2906 3500 
L 3481 3500 
L 3481 434 
z
" transform="scale(0.015625)"/>
       <path id="DejaVuSans-69" d="M 603 3500 
L 1178 3500 
L 1178 0 
L 603 0 
L 603 3500 
z
M 603 4863 
L 1178 4863 
L 1178 4134 
L 603 4134 
L 603 4863 
z
" transform="scale(0.015625)"/>
       <path id="DejaVuSans-74" d="M 1172 4494 
L 1172 3500 
L 2356 3500 
L 2356 3053 
L 1172 3053 
L 1172 1153 
Q 1172 725 1289 603 
Q 1406 481 1766 481 
L 2356 481 
L 2356 0 
L 1766 0 
Q 1100 0 847 248 
Q 594 497 594 1153 
L 594 3053 
L 172 3053 
L 172 3500 
L 594 3500 
L 594 4494 
L 1172 4494 
z
" transform="scale(0.015625)"/>
       <path id="DejaVuSans-75" d="M 544 1381 
L 544 3500 
L 1119 3500 
L 1119 1403 
Q 1119 906 1312 657 
Q 1506 409 1894 409 
Q 2359 409 2629 706 
Q 2900 1003 2900 1516 
L 2900 3500 
L 3475 3500 
L 3475 0 
L 2900 0 
L 2900 538 
Q 2691 219 2414 64 
Q 2138 -91 1772 -91 
Q 1169 -91 856 284 
Q 544 659 544 1381 
z
M 1991 3584 
L 1991 3584 
z
" transform="scale(0.015625)"/>
       <path id="DejaVuSans-64" d="M 2906 2969 
L 2906 4863 
L 3481 4863 
L 3481 0 
L 2906 0 
L 2906 525 
Q 2725 213 2448 61 
Q 2172 -91 1784 -91 
Q 1150 -91 751 415 
Q 353 922 353 1747 
Q 353 2572 751 3078 
Q 1150 3584 1784 3584 
Q 2172 3584 2448 3432 
Q 2725 3281 2906 2969 
z
M 947 1747 
Q 947 1113 1208 752 
Q 1469 391 1925 391 
Q 2381 391 2643 752 
Q 2906 1113 2906 1747 
Q 2906 2381 2643 2742 
Q 2381 3103 1925 3103 
Q 1469 3103 1208 2742 
Q 947 2381 947 1747 
z
" transform="scale(0.015625)"/>
       <path id="DejaVuSans-65" d="M 3597 1894 
L 3597 1613 
L 953 1613 
Q 991 1019 1311 708 
Q 1631 397 2203 397 
Q 2534 397 2845 478 
Q 3156 559 3463 722 
L 3463 178 
Q 3153 47 2828 -22 
Q 2503 -91 2169 -91 
Q 1331 -91 842 396 
Q 353 884 353 1716 
Q 353 2575 817 3079 
Q 1281 3584 2069 3584 
Q 2775 3584 3186 3129 
Q 3597 2675 3597 1894 
z
M 3022 2063 
Q 3016 2534 2758 2815 
Q 2500 3097 2075 3097 
Q 1594 3097 1305 2825 
Q 1016 2553 972 2059 
L 3022 2063 
z
" transform="scale(0.015625)"/>
       <path id="DejaVuSans-20" transform="scale(0.015625)"/>
       <path id="DejaVuSans-28" d="M 1984 4856 
Q 1566 4138 1362 3434 
Q 1159 2731 1159 2009 
Q 1159 1288 1364 580 
Q 1569 -128 1984 -844 
L 1484 -844 
Q 1016 -109 783 600 
Q 550 1309 550 2009 
Q 550 2706 781 3412 
Q 1013 4119 1484 4856 
L 1984 4856 
z
" transform="scale(0.015625)"/>
       <path id="DejaVuSans-b0" d="M 1600 4347 
Q 1350 4347 1178 4173 
Q 1006 4000 1006 3750 
Q 1006 3503 1178 3333 
Q 1350 3163 1600 3163 
Q 1850 3163 2022 3333 
Q 2194 3503 2194 3750 
Q 2194 3997 2020 4172 
Q 1847 4347 1600 4347 
z
M 1600 4750 
Q 1800 4750 1984 4673 
Q 2169 4597 2303 4453 
Q 2447 4313 2519 4134 
Q 2591 3956 2591 3750 
Q 2591 3338 2302 3052 
Q 2013 2766 1594 2766 
Q 1172 2766 890 3047 
Q 609 3328 609 3750 
Q 609 4169 896 4459 
Q 1184 4750 1600 4750 
z
" transform="scale(0.015625)"/>
       <path id="DejaVuSans-29" d="M 513 4856 
L 1013 4856 
Q 1481 4119 1714 3412 
Q 1947 2706 1947 2009 
Q 1947 1309 1714 600 
Q 1481 -109 1013 -844 
L 513 -844 
Q 928 -128 1133 580 
Q 1338 1288 1338 2009 
Q 1338 2731 1133 3434 
Q 928 4138 513 4856 
z
" transform="scale(0.015625)"/>
      </defs>
      <use xlink:href="#DejaVuSans-4c"/>
      <use xlink:href="#DejaVuSans-6f" transform="translate(53.962891 0)"/>
      <use xlink:href="#DejaVuSans-6e" transform="translate(115.144531 0)"/>
      <use xlink:href="#DejaVuSans-67" transform="translate(178.523438 0)"/>
      <use xlink:href="#DejaVuSans-69" transform="translate(242 0)"/>
      <use xlink:href="#DejaVuSans-74" transform="translate(269.783203 0)"/>
      <use xlink:href="#DejaVuSans-75" transform="translate(308.992188 0)"/>
      <use xlink:href="#DejaVuSans-64" transform="translate(372.371094 0)"/>
      <use xlink:href="#DejaVuSans-65" transform="translate(435.847656 0)"/>
      <use xlink:href="#DejaVuSans-20" transform="translate(497.371094 0)"/>
      <use xlink:href="#DejaVuSans-28" transform="translate(529.158203 0)"/>
      <use xlink:href="#DejaVuSans-b0" transform="translate(568.171875 0)"/>
      <use xlink:href="#DejaVuSans-29" transform="translate(618.171875 0)"/>
     </g>
    </g>
   </g>
   <g id="matplotlib.axis_2">
    <g id="ytick_1">
     <g id="line2d_17">
      <path d="M 90 707.093819 
L 648 707.093819 
" clip-path="url(#p99bbb7cd93)" style="fill: none; stroke: #b0b0b0; stroke-width: 0.8; stroke-linecap: square"/>
     </g>
     <g id="line2d_18">
      <defs>
       <path id="mbb0ce1df2f" d="M 0 0 
L -3.5 0 
" style="stroke: #000000; stroke-width: 0.8"/>
      </defs>
      <g>
       <use xlink:href="#mbb0ce1df2f" x="90" y="707.093819" style="stroke: #000000; stroke-width: 0.8"/>
      </g>
     </g>
     <g id="text_10">
      <!-- −16.200 -->
      <g transform="translate(39.629687 710.893037) scale(0.1 -0.1)">
       <defs>
        <path id="DejaVuSans-31" d="M 794 531 
L 1825 531 
L 1825 4091 
L 703 3866 
L 703 4441 
L 1819 4666 
L 2450 4666 
L 2450 531 
L 3481 531 
L 3481 0 
L 794 0 
L 794 531 
z
" transform="scale(0.015625)"/>
        <path id="DejaVuSans-36" d="M 2113 2584 
Q 1688 2584 1439 2293 
Q 1191 2003 1191 1497 
Q 1191 994 1439 701 
Q 1688 409 2113 409 
Q 2538 409 2786 701 
Q 3034 994 3034 1497 
Q 3034 2003 2786 2293 
Q 2538 2584 2113 2584 
z
M 3366 4563 
L 3366 3988 
Q 3128 4100 2886 4159 
Q 2644 4219 2406 4219 
Q 1781 4219 1451 3797 
Q 1122 3375 1075 2522 
Q 1259 2794 1537 2939 
Q 1816 3084 2150 3084 
Q 2853 3084 3261 2657 
Q 3669 2231 3669 1497 
Q 3669 778 3244 343 
Q 2819 -91 2113 -91 
Q 1303 -91 875 529 
Q 447 1150 447 2328 
Q 447 3434 972 4092 
Q 1497 4750 2381 4750 
Q 2619 4750 2861 4703 
Q 3103 4656 3366 4563 
z
" transform="scale(0.015625)"/>
       </defs>
       <use xlink:href="#DejaVuSans-2212"/>
       <use xlink:href="#DejaVuSans-31" transform="translate(83.789062 0)"/>
       <use xlink:href="#DejaVuSans-36" transform="translate(147.412109 0)"/>
       <use xlink:href="#DejaVuSans-2e" transform="translate(211.035156 0)"/>
       <use xlink:href="#DejaVuSans-32" transform="translate(242.822266 0)"/>
       <use xlink:href="#DejaVuSans-30" transform="translate(306.445312 0)"/>
       <use xlink:href="#DejaVuSans-30" transform="translate(370.068359 0)"/>
      </g>
     </g>
    </g>
    <g id="ytick_2">
     <g id="line2d_19">
      <path d="M 90 635.092465 
L 648 635.092465 
" clip-path="url(#p99bbb7cd93)" style="fill: none; stroke: #b0b0b0; stroke-width: 0.8; stroke-linecap: square"/>
     </g>
     <g id="line2d_20">
      <g>
       <use xlink:href="#mbb0ce1df2f" x="90" y="635.092465" style="stroke: #000000; stroke-width: 0.8"/>
      </g>
     </g>
     <g id="text_11">
      <!-- −16.175 -->
      <g transform="translate(39.629687 638.891684) scale(0.1 -0.1)">
       <use xlink:href="#DejaVuSans-2212"/>
       <use xlink:href="#DejaVuSans-31" transform="translate(83.789062 0)"/>
       <use xlink:href="#DejaVuSans-36" transform="translate(147.412109 0)"/>
       <use xlink:href="#DejaVuSans-2e" transform="translate(211.035156 0)"/>
       <use xlink:href="#DejaVuSans-31" transform="translate(242.822266 0)"/>
       <use xlink:href="#DejaVuSans-37" transform="translate(306.445312 0)"/>
       <use xlink:href="#DejaVuSans-35" transform="translate(370.068359 0)"/>
      </g>
     </g>
    </g>
    <g id="ytick_3">
     <g id="line2d_21">
      <path d="M 90 563.091112 
L 648 563.091112 
" clip-path="url(#p99bbb7cd93)" style="fill: none; stroke: #b0b0b0; stroke-width: 0.8; stroke-linecap: square"/>
     </g>
     <g id="line2d_22">
      <g>
       <use xlink:href="#mbb0ce1df2f" x="90" y="563.091112" style="stroke: #000000; stroke-width: 0.8"/>
      </g>
     </g>
     <g id="text_12">
      <!-- −16.150 -->
      <g transform="translate(39.629687 566.89033) scale(0.1 -0.1)">
       <use xlink:href="#DejaVuSans-2212"/>
       <use xlink:href="#DejaVuSans-31" transform="translate(83.789062 0)"/>
       <use xlink:href="#DejaVuSans-36" transform="translate(147.412109 0)"/>
       <use xlink:href="#DejaVuSans-2e" transform="translate(211.035156 0)"/>
       <use xlink:href="#DejaVuSans-31" transform="translate(242.822266 0)"/>
       <use xlink:href="#DejaVuSans-35" transform="translate(306.445312 0)"/>
       <use xlink:href="#DejaVuSans-30" transform="translate(370.068359 0)"/>
      </g>
     </g>
    </g>
    <g id="ytick_4">
     <g id="line2d_23">
      <path d="M 90 491.089758 
L 648 491.089758 
" clip-path="url(#p99bbb7cd93)" style="fill: none; stroke: #b0b0b0; stroke-width: 0.8; stroke-linecap: square"/>
     </g>
     <g id="line2d_24">
      <g>
       <use xlink:href="#mbb0ce1df2f" x="90" y="491.089758" style="stroke: #000000; stroke-width: 0.8"/>
      </g>
     </g>
     <g id="text_13">
      <!-- −16.125 -->
      <g transform="translate(39.629687 494.888977) scale(0.1 -0.1)">
       <use xlink:href="#DejaVuSans-2212"/>
       <use xlink:href="#DejaVuSans-31" transform="translate(83.789062 0)"/>
       <use xlink:href="#DejaVuSans-36" transform="translate(147.412109 0)"/>
       <use xlink:href="#DejaVuSans-2e" transform="translate(211.035156 0)"/>
       <use xlink:href="#DejaVuSans-31" transform="translate(242.822266 0)"/>
       <use xlink:href="#DejaVuSans-32" transform="translate(306.445312 0)"/>
       <use xlink:href="#DejaVuSans-35" transform="translate(370.068359 0)"/>
      </g>
     </g>
    </g>
    <g id="ytick_5">
     <g id="line2d_25">
      <path d="M 90 419.088405 
L 648 419.088405 
" clip-path="url(#p99bbb7cd93)" style="fill: none; stroke: #b0b0b0; stroke-width: 0.8; stroke-linecap: square"/>
     </g>
     <g id="line2d_26">
      <g>
       <use xlink:href="#mbb0ce1df2f" x="90" y="419.088405" style="stroke: #000000; stroke-width: 0.8"/>
      </g>
     </g>
     <g id="text_14">
      <!-- −16.100 -->
      <g transform="translate(39.629687 422.887624) scale(0.1 -0.1)">
       <use xlink:href="#DejaVuSans-2212"/>
       <use xlink:href="#DejaVuSans-31" transform="translate(83.789062 0)"/>
       <use xlink:href="#DejaVuSans-36" transform="translate(147.412109 0)"/>
       <use xlink:href="#DejaVuSans-2e" transform="translate(211.035156 0)"/>
       <use xlink:href="#DejaVuSans-31" transform="translate(242.822266 0)"/>
       <use xlink:href="#DejaVuSans-30" transform="translate(306.445312 0)"/>
       <use xlink:href="#DejaVuSans-30" transform="translate(370.068359 0)"/>
      </g>
     </g>
    </g>
    <g id="ytick_6">
     <g id="line2d_27">
      <path d="M 90 347.087052 
L 648 347.087052 
" clip-path="url(#p99bbb7cd93)" style="fill: none; stroke: #b0b0b0; stroke-width: 0.8; stroke-linecap: square"/>
     </g>
     <g id="line2d_28">
      <g>
       <use xlink:href="#mbb0ce1df2f" x="90" y="347.087052" style="stroke: #000000; stroke-width: 0.8"/>
      </g>
     </g>
     <g id="text_15">
      <!-- −16.075 -->
      <g transform="translate(39.629687 350.88627) scale(0.1 -0.1)">
       <use xlink:href="#DejaVuSans-2212"/>
       <use xlink:href="#DejaVuSans-31" transform="translate(83.789062 0)"/>
       <use xlink:href="#DejaVuSans-36" transform="translate(147.412109 0)"/>
       <use xlink:href="#DejaVuSans-2e" transform="translate(211.035156 0)"/>
       <use xlink:href="#DejaVuSans-30" transform="translate(242.822266 0)"/>
       <use xlink:href="#DejaVuSans-37" transform="translate(306.445312 0)"/>
       <use xlink:href="#DejaVuSans-35" transform="translate(370.068359 0)"/>
      </g>
     </g>
    </g>
    <g id="ytick_7">
     <g id="line2d_29">
      <path d="M 90 275.085698 
L 648 275.085698 
" clip-path="url(#p99bbb7cd93)" style="fill: none; stroke: #b0b0b0; stroke-width: 0.8; stroke-linecap: square"/>
     </g>
     <g id="line2d_30">
      <g>
       <use xlink:href="#mbb0ce1df2f" x="90" y="275.085698" style="stroke: #000000; stroke-width: 0.8"/>
      </g>
     </g>
     <g id="text_16">
      <!-- −16.050 -->
      <g transform="translate(39.629687 278.884917) scale(0.1 -0.1)">
       <use xlink:href="#DejaVuSans-2212"/>
       <use xlink:href="#DejaVuSans-31" transform="translate(83.789062 0)"/>
       <use xlink:href="#DejaVuSans-36" transform="translate(147.412109 0)"/>
       <use xlink:href="#DejaVuSans-2e" transform="translate(211.035156 0)"/>
       <use xlink:href="#DejaVuSans-30" transform="translate(242.822266 0)"/>
       <use xlink:href="#DejaVuSans-35" transform="translate(306.445312 0)"/>
       <use xlink:href="#DejaVuSans-30" transform="translate(370.068359 0)"/>
      </g>
     </g>
    </g>
    <g id="ytick_8">
     <g id="line2d_31">
      <path d="M 90 203.084345 
L 648 203.084345 
" clip-path="url(#p99bbb7cd93)" style="fill: none; stroke: #b0b0b0; stroke-width: 0.8; stroke-linecap: square"/>
     </g>
     <g id="line2d_32">
      <g>
       <use xlink:href="#mbb0ce1df2f" x="90" y="203.084345" style="stroke: #000000; stroke-width: 0.8"/>
      </g>
     </g>
     <g id="text_17">
      <!-- −16.025 -->
      <g transform="translate(39.629687 206.883563) scale(0.1 -0.1)">
       <use xlink:href="#DejaVuSans-2212"/>
       <use xlink:href="#DejaVuSans-31" transform="translate(83.789062 0)"/>
       <use xlink:href="#DejaVuSans-36" transform="translate(147.412109 0)"/>
       <use xlink:href="#DejaVuSans-2e" transform="translate(211.035156 0)"/>
       <use xlink:href="#DejaVuSans-30" transform="translate(242.822266 0)"/>
       <use xlink:href="#DejaVuSans-32" transform="translate(306.445312 0)"/>
       <use xlink:href="#DejaVuSans-35" transform="translate(370.068359 0)"/>
      </g>
     </g>
    </g>
    <g id="ytick_9">
     <g id="line2d_33">
      <path d="M 90 131.082991 
L 648 131.082991 
" clip-path="url(#p99bbb7cd93)" style="fill: none; stroke: #b0b0b0; stroke-width: 0.8; stroke-linecap: square"/>
     </g>
     <g id="line2d_34">
      <g>
       <use xlink:href="#mbb0ce1df2f" x="90" y="131.082991" style="stroke: #000000; stroke-width: 0.8"/>
      </g>
     </g>
     <g id="text_18">
      <!-- −16.000 -->
      <g transform="translate(39.629687 134.88221) scale(0.1 -0.1)">
       <use xlink:href="#DejaVuSans-2212"/>
       <use xlink:href="#DejaVuSans-31" transform="translate(83.789062 0)"/>
       <use xlink:href="#DejaVuSans-36" transform="translate(147.412109 0)"/>
       <use xlink:href="#DejaVuSans-2e" transform="translate(211.035156 0)"/>
       <use xlink:href="#DejaVuSans-30" transform="translate(242.822266 0)"/>
       <use xlink:href="#DejaVuSans-30" transform="translate(306.445312 0)"/>
       <use xlink:href="#DejaVuSans-30" transform="translate(370.068359 0)"/>
      </g>
     </g>
    </g>
    <g id="text_19">
     <!-- Latitude (°) -->
     <g transform="translate(33.55 464.889531) rotate(-90) scale(0.1 -0.1)">
      <defs>
       <path id="DejaVuSans-61" d="M 2194 1759 
Q 1497 1759 1228 1600 
Q 959 1441 959 1056 
Q 959 750 1161 570 
Q 1363 391 1709 391 
Q 2188 391 2477 730 
Q 2766 1069 2766 1631 
L 2766 1759 
L 2194 1759 
z
M 3341 1997 
L 3341 0 
L 2766 0 
L 2766 531 
Q 2569 213 2275 61 
Q 1981 -91 1556 -91 
Q 1019 -91 701 211 
Q 384 513 384 1019 
Q 384 1609 779 1909 
Q 1175 2209 1959 2209 
L 2766 2209 
L 2766 2266 
Q 2766 2663 2505 2880 
Q 2244 3097 1772 3097 
Q 1472 3097 1187 3025 
Q 903 2953 641 2809 
L 641 3341 
Q 956 3463 1253 3523 
Q 1550 3584 1831 3584 
Q 2591 3584 2966 3190 
Q 3341 2797 3341 1997 
z
" transform="scale(0.015625)"/>
      </defs>
      <use xlink:href="#DejaVuSans-4c"/>
      <use xlink:href="#DejaVuSans-61" transform="translate(55.712891 0)"/>
      <use xlink:href="#DejaVuSans-74" transform="translate(116.992188 0)"/>
      <use xlink:href="#DejaVuSans-69" transform="translate(156.201172 0)"/>
      <use xlink:href="#DejaVuSans-74" transform="translate(183.984375 0)"/>
      <use xlink:href="#DejaVuSans-75" transform="translate(223.193359 0)"/>
      <use xlink:href="#DejaVuSans-64" transform="translate(286.572266 0)"/>
      <use xlink:href="#DejaVuSans-65" transform="translate(350.048828 0)"/>
      <use xlink:href="#DejaVuSans-20" transform="translate(411.572266 0)"/>
      <use xlink:href="#DejaVuSans-28" transform="translate(443.359375 0)"/>
      <use xlink:href="#DejaVuSans-b0" transform="translate(482.373047 0)"/>
      <use xlink:href="#DejaVuSans-29" transform="translate(532.373047 0)"/>
     </g>
    </g>
   </g>
   <g id="patch_3">
    <path d="M 90 750.071451 
L 90 122.568549 
" style="fill: none; stroke: #000000; stroke-width: 0.8; stroke-linejoin: miter; stroke-linecap: square"/>
   </g>
   <g id="patch_4">
    <path d="M 648 750.071451 
L 648 122.568549 
" style="fill: none; stroke: #000000; stroke-width: 0.8; stroke-linejoin: miter; stroke-linecap: square"/>
   </g>
   <g id="patch_5">
    <path d="M 90 750.071451 
L 648 750.071451 
" style="fill: none; stroke: #000000; stroke-width: 0.8; stroke-linejoin: miter; stroke-linecap: square"/>
   </g>
   <g id="patch_6">
    <path d="M 90 122.568549 
L 648 122.568549 
" style="fill: none; stroke: #000000; stroke-width: 0.8; stroke-linejoin: miter; stroke-linecap: square"/>
   </g>
  </g>
 </g>
 <defs>
  <clipPath id="p99bbb7cd93">
   <rect x="90" y="122.568549" width="558" height="627.502902"/>
  </clipPath>
 </defs>
</svg>
