<?xml version="1.0" encoding="utf-8" standalone="no"?>
<!DOCTYPE svg PUBLIC "-//W3C//DTD SVG 1.1//EN"
  "http://www.w3.org/Graphics/SVG/1.1/DTD/svg11.dtd">
<svg xmlns:xlink="http://www.w3.org/1999/xlink" width="720pt" height="864pt" viewBox="0 0 720 864" xmlns="http://www.w3.org/2000/svg" version="1.1">
 <metadata>
  <rdf:RDF xmlns:dc="http://purl.org/dc/elements/1.1/" xmlns:cc="http://creativecommons.org/ns#" xmlns:rdf="http://www.w3.org/1999/02/22-rdf-syntax-ns#">
   <cc:Work>
    <dc:type rdf:resource="http://purl.org/dc/dcmitype/StillImage"/>
    <dc:date>2025-06-16T17:43:31.903708</dc:date>
    <dc:format>image/svg+xml</dc:format>
    <dc:creator>
     <cc:Agent>
      <dc:title>Matplotlib v3.10.1, https://matplotlib.org/</dc:title>
     </cc:Agent>
    </dc:creator>
   </cc:Work>
  </rdf:RDF>
 </metadata>
 <defs>
  <style type="text/css">*{stroke-linejoin: round; stroke-linecap: butt}</style>
 </defs>
 <g id="figure_1">
  <g id="patch_1">
   <path d="M 0 864 
L 720 864 
L 720 0 
L 0 0 
z
" style="fill: #ffffff"/>
  </g>
  <g id="axes_1">
   <g id="patch_2">
    <path d="M 90 649.688393 
L 648 649.688393 
L 648 222.951607 
L 90 222.951607 
z
" style="fill: #ffffff"/>
   </g>
   <g id="PatchCollection_1">
    <path d="M 199.789087 504.958302 
L 144.512362 438.995117 
L 151.841803 433.672464 
L 169.428717 420.863339 
L 224.239965 486.151251 
L 207.747896 498.850255 
L 199.789087 504.958302 
" clip-path="url(#p9cb640a811)" style="fill: #e0bd1f; stroke: #0000ff; stroke-width: 0.5"/>
    <path d="M 224.239962 486.15125 
L 169.428713 420.863338 
L 187.585032 407.644232 
L 206.323472 397.724644 
L 258.009043 459.85323 
L 242.185301 472.380359 
L 224.239962 486.15125 
" clip-path="url(#p9cb640a811)" style="fill: #e0bd1f; stroke: #0000ff; stroke-width: 0.5"/>
    <path d="M 177.949495 630.291267 
L 148.802363 596.856097 
L 122.027472 566.127668 
L 123.721699 564.778988 
L 150.263423 544.384168 
L 162.792435 534.845034 
L 193.279623 511.536093 
L 200.532466 505.830408 
L 208.584832 499.649375 
L 218.054952 492.394771 
L 224.976553 487.028511 
L 242.930389 473.237385 
L 258.752086 460.725716 
L 306.910432 519.271393 
L 301.514883 521.776194 
L 299.013406 523.302475 
L 291.651207 530.648598 
L 287.714108 536.231046 
L 284.064498 545.182887 
L 282.40671 547.999515 
L 275.015444 555.247703 
L 270.311283 559.956492 
L 266.461708 568.284018 
L 265.636368 571.842952 
L 264.882268 582.13309 
L 262.649981 585.21972 
L 258.402128 596.793932 
L 255.420632 600.987703 
L 252.072716 603.117807 
L 247.270585 607.0195 
L 243.351623 609.779997 
L 238.106637 613.362148 
L 229.161984 614.797929 
L 219.072031 615.740605 
L 209.819275 616.007755 
L 201.768499 618.264912 
L 197.39191 620.34597 
L 192.645084 623.162975 
L 187.868865 625.76181 
L 181.758982 628.19888 
L 177.949495 630.291267 
" clip-path="url(#p9cb640a811)" style="fill: #e0bd1f; stroke: #0000ff; stroke-width: 0.5"/>
    <path d="M 590.591999 297.388409 
L 591.910806 323.061555 
L 592.002398 324.84447 
L 590.568474 324.72915 
L 586.273664 324.383716 
L 585.188371 324.296417 
L 587.069849 320.706179 
L 590.141863 314.84399 
L 589.349486 297.760301 
L 590.591999 297.388409 
" clip-path="url(#p9cb640a811)" style="fill: #e0bd1f; stroke: #0000ff; stroke-width: 0.5"/>
    <path d="M 441.018264 325.425027 
L 431.212242 329.384552 
L 419.220071 343.516969 
L 411.421361 347.757567 
L 382.756616 333.466331 
L 391.07272 298.593997 
L 395.761703 301.178836 
L 408.546641 296.538393 
L 417.407641 293.32323 
L 441.018264 325.425027 
" clip-path="url(#p9cb640a811)" style="fill: #e0bd1f; stroke: #0000ff; stroke-width: 0.5"/>
    <path d="M 493.073638 324.632614 
L 506.048549 344.043354 
L 523.680005 370.416703 
L 521.68413 371.866492 
L 519.942266 373.131724 
L 517.861761 375.336128 
L 515.429798 376.353352 
L 512.578681 377.42779 
L 509.645751 379.14787 
L 507.291197 381.337906 
L 505.954585 383.816537 
L 504.728958 386.562429 
L 502.738522 389.888913 
L 501.303432 392.069685 
L 500.562203 393.526051 
L 466.348838 375.893667 
L 432.739552 358.568099 
L 411.97104 348.057941 
L 419.629916 344.037742 
L 431.603333 329.931942 
L 493.073638 324.632614 
" clip-path="url(#p9cb640a811)" style="fill: #e0bd1f; stroke: #0000ff; stroke-width: 0.5"/>
   </g>
   <g id="PatchCollection_2">
    <path d="M 605.62786 242.348733 
L 615.176245 289.521404 
L 622.636364 327.758047 
L 622.346902 327.923838 
L 613.144313 328.542825 
L 603.083199 326.155353 
L 598.554202 325.354504 
L 585.188616 324.296262 
L 583.496546 324.973427 
L 582.677952 324.862828 
L 581.695249 324.540588 
L 577.603698 324.598394 
L 575.606724 324.156 
L 574.183165 324.012716 
L 571.413236 324.568224 
L 569.288071 324.748719 
L 566.428316 324.737154 
L 566.346661 324.554603 
L 562.927768 325.579427 
L 560.968479 328.85836 
L 559.42709 330.287138 
L 557.733507 330.77689 
L 554.918097 331.009375 
L 551.640763 331.42306 
L 548.514297 333.02134 
L 545.709645 334.99722 
L 542.333659 337.716784 
L 540.845631 339.243438 
L 539.056581 342.136427 
L 537.827933 344.953775 
L 536.976281 347.7879 
L 536.146438 352.099611 
L 534.981941 354.428977 
L 533.160284 357.473224 
L 531.539181 362.44685 
L 530.243815 363.993477 
L 528.4939 364.099606 
L 527.303759 365.296601 
L 524.654032 369.406801 
L 523.680005 370.416703 
L 441.346137 325.817476 
L 441.018047 325.424889 
L 391.07272 298.593997 
L 382.756708 333.466553 
L 374.193474 369.941636 
L 361.817047 364.41144 
L 365.752759 343.870289 
L 332.854746 360.9773 
L 349.302093 390.278967 
L 369.649164 419.382278 
L 395.035383 411.953162 
L 407.032396 420.785515 
L 399.923805 423.394938 
L 397.850175 423.561062 
L 396.332525 423.524608 
L 394.385393 423.069894 
L 389.830371 421.695653 
L 386.804968 422.26345 
L 383.245386 423.299878 
L 378.406497 426.03293 
L 375.359931 427.342783 
L 372.701035 429.130509 
L 370.239664 431.138114 
L 364.059344 436.945818 
L 362.143791 439.36801 
L 360.027181 442.809401 
L 356.438649 450.172328 
L 353.764271 458.617218 
L 352.609574 462.748312 
L 347.367525 468.037543 
L 342.826778 477.293524 
L 342.210852 479.4685 
L 342.393608 482.325487 
L 344.806602 490.119959 
L 343.253323 496.778974 
L 341.946099 498.953692 
L 339.143974 501.173911 
L 335.38522 507.723121 
L 332.867003 509.090875 
L 322.24716 512.025322 
L 316.137977 514.193384 
L 312.624668 516.138648 
L 310.126693 517.808183 
L 306.945242 519.399354 
L 258.009047 459.853197 
L 204.383696 395.394695 
L 151.841833 433.672228 
L 121.90713 391.490666 
L 115.363636 355.030579 
L 288.067423 318.277894 
L 308.184954 314.489434 
L 307.597091 311.033331 
L 329.513712 306.342373 
L 318.922004 248.829462 
L 351.114886 281.20926 
L 359.236793 290.357943 
L 476.525825 267.088609 
L 526.168575 258.086676 
L 605.62786 242.348733 
L 605.62786 242.348733 
" clip-path="url(#p9cb640a811)" style="fill: none; stroke: #000000"/>
   </g>
   <g id="matplotlib.axis_1">
    <g id="xtick_1">
     <g id="line2d_1">
      <path d="M 161.267865 649.688393 
L 161.267865 222.951607 
" clip-path="url(#p9cb640a811)" style="fill: none; stroke: #b0b0b0; stroke-width: 0.8; stroke-linecap: square"/>
     </g>
     <g id="line2d_2">
      <defs>
       <path id="mf32a995832" d="M 0 0 
L 0 3.5 
" style="stroke: #000000; stroke-width: 0.8"/>
      </defs>
      <g>
       <use xlink:href="#mf32a995832" x="161.267865" y="649.688393" style="stroke: #000000; stroke-width: 0.8"/>
      </g>
     </g>
     <g id="text_1">
      <!-- −51.65 -->
      <g transform="translate(150.1348 688.229775) rotate(-45) scale(0.1 -0.1)">
       <defs>
        <path id="DejaVuSans-2212" d="M 678 2272 
L 4684 2272 
L 4684 1741 
L 678 1741 
L 678 2272 
z
" transform="scale(0.015625)"/>
        <path id="DejaVuSans-35" d="M 691 4666 
L 3169 4666 
L 3169 4134 
L 1269 4134 
L 1269 2991 
Q 1406 3038 1543 3061 
Q 1681 3084 1819 3084 
Q 2600 3084 3056 2656 
Q 3513 2228 3513 1497 
Q 3513 744 3044 326 
Q 2575 -91 1722 -91 
Q 1428 -91 1123 -41 
Q 819 9 494 109 
L 494 744 
Q 775 591 1075 516 
Q 1375 441 1709 441 
Q 2250 441 2565 725 
Q 2881 1009 2881 1497 
Q 2881 1984 2565 2268 
Q 2250 2553 1709 2553 
Q 1456 2553 1204 2497 
Q 953 2441 691 2322 
L 691 4666 
z
" transform="scale(0.015625)"/>
        <path id="DejaVuSans-31" d="M 794 531 
L 1825 531 
L 1825 4091 
L 703 3866 
L 703 4441 
L 1819 4666 
L 2450 4666 
L 2450 531 
L 3481 531 
L 3481 0 
L 794 0 
L 794 531 
z
" transform="scale(0.015625)"/>
        <path id="DejaVuSans-2e" d="M 684 794 
L 1344 794 
L 1344 0 
L 684 0 
L 684 794 
z
" transform="scale(0.015625)"/>
        <path id="DejaVuSans-36" d="M 2113 2584 
Q 1688 2584 1439 2293 
Q 1191 2003 1191 1497 
Q 1191 994 1439 701 
Q 1688 409 2113 409 
Q 2538 409 2786 701 
Q 3034 994 3034 1497 
Q 3034 2003 2786 2293 
Q 2538 2584 2113 2584 
z
M 3366 4563 
L 3366 3988 
Q 3128 4100 2886 4159 
Q 2644 4219 2406 4219 
Q 1781 4219 1451 3797 
Q 1122 3375 1075 2522 
Q 1259 2794 1537 2939 
Q 1816 3084 2150 3084 
Q 2853 3084 3261 2657 
Q 3669 2231 3669 1497 
Q 3669 778 3244 343 
Q 2819 -91 2113 -91 
Q 1303 -91 875 529 
Q 447 1150 447 2328 
Q 447 3434 972 4092 
Q 1497 4750 2381 4750 
Q 2619 4750 2861 4703 
Q 3103 4656 3366 4563 
z
" transform="scale(0.015625)"/>
       </defs>
       <use xlink:href="#DejaVuSans-2212"/>
       <use xlink:href="#DejaVuSans-35" transform="translate(83.789062 0)"/>
       <use xlink:href="#DejaVuSans-31" transform="translate(147.412109 0)"/>
       <use xlink:href="#DejaVuSans-2e" transform="translate(211.035156 0)"/>
       <use xlink:href="#DejaVuSans-36" transform="translate(242.822266 0)"/>
       <use xlink:href="#DejaVuSans-35" transform="translate(306.445312 0)"/>
      </g>
     </g>
    </g>
    <g id="xtick_2">
     <g id="line2d_3">
      <path d="M 248.662792 649.688393 
L 248.662792 222.951607 
" clip-path="url(#p9cb640a811)" style="fill: none; stroke: #b0b0b0; stroke-width: 0.8; stroke-linecap: square"/>
     </g>
     <g id="line2d_4">
      <g>
       <use xlink:href="#mf32a995832" x="248.662792" y="649.688393" style="stroke: #000000; stroke-width: 0.8"/>
      </g>
     </g>
     <g id="text_2">
      <!-- −51.60 -->
      <g transform="translate(237.529727 688.229775) rotate(-45) scale(0.1 -0.1)">
       <defs>
        <path id="DejaVuSans-30" d="M 2034 4250 
Q 1547 4250 1301 3770 
Q 1056 3291 1056 2328 
Q 1056 1369 1301 889 
Q 1547 409 2034 409 
Q 2525 409 2770 889 
Q 3016 1369 3016 2328 
Q 3016 3291 2770 3770 
Q 2525 4250 2034 4250 
z
M 2034 4750 
Q 2819 4750 3233 4129 
Q 3647 3509 3647 2328 
Q 3647 1150 3233 529 
Q 2819 -91 2034 -91 
Q 1250 -91 836 529 
Q 422 1150 422 2328 
Q 422 3509 836 4129 
Q 1250 4750 2034 4750 
z
" transform="scale(0.015625)"/>
       </defs>
       <use xlink:href="#DejaVuSans-2212"/>
       <use xlink:href="#DejaVuSans-35" transform="translate(83.789062 0)"/>
       <use xlink:href="#DejaVuSans-31" transform="translate(147.412109 0)"/>
       <use xlink:href="#DejaVuSans-2e" transform="translate(211.035156 0)"/>
       <use xlink:href="#DejaVuSans-36" transform="translate(242.822266 0)"/>
       <use xlink:href="#DejaVuSans-30" transform="translate(306.445312 0)"/>
      </g>
     </g>
    </g>
    <g id="xtick_3">
     <g id="line2d_5">
      <path d="M 336.057719 649.688393 
L 336.057719 222.951607 
" clip-path="url(#p9cb640a811)" style="fill: none; stroke: #b0b0b0; stroke-width: 0.8; stroke-linecap: square"/>
     </g>
     <g id="line2d_6">
      <g>
       <use xlink:href="#mf32a995832" x="336.057719" y="649.688393" style="stroke: #000000; stroke-width: 0.8"/>
      </g>
     </g>
     <g id="text_3">
      <!-- −51.55 -->
      <g transform="translate(324.924654 688.229775) rotate(-45) scale(0.1 -0.1)">
       <use xlink:href="#DejaVuSans-2212"/>
       <use xlink:href="#DejaVuSans-35" transform="translate(83.789062 0)"/>
       <use xlink:href="#DejaVuSans-31" transform="translate(147.412109 0)"/>
       <use xlink:href="#DejaVuSans-2e" transform="translate(211.035156 0)"/>
       <use xlink:href="#DejaVuSans-35" transform="translate(242.822266 0)"/>
       <use xlink:href="#DejaVuSans-35" transform="translate(306.445312 0)"/>
      </g>
     </g>
    </g>
    <g id="xtick_4">
     <g id="line2d_7">
      <path d="M 423.452646 649.688393 
L 423.452646 222.951607 
" clip-path="url(#p9cb640a811)" style="fill: none; stroke: #b0b0b0; stroke-width: 0.8; stroke-linecap: square"/>
     </g>
     <g id="line2d_8">
      <g>
       <use xlink:href="#mf32a995832" x="423.452646" y="649.688393" style="stroke: #000000; stroke-width: 0.8"/>
      </g>
     </g>
     <g id="text_4">
      <!-- −51.50 -->
      <g transform="translate(412.319581 688.229775) rotate(-45) scale(0.1 -0.1)">
       <use xlink:href="#DejaVuSans-2212"/>
       <use xlink:href="#DejaVuSans-35" transform="translate(83.789062 0)"/>
       <use xlink:href="#DejaVuSans-31" transform="translate(147.412109 0)"/>
       <use xlink:href="#DejaVuSans-2e" transform="translate(211.035156 0)"/>
       <use xlink:href="#DejaVuSans-35" transform="translate(242.822266 0)"/>
       <use xlink:href="#DejaVuSans-30" transform="translate(306.445312 0)"/>
      </g>
     </g>
    </g>
    <g id="xtick_5">
     <g id="line2d_9">
      <path d="M 510.847572 649.688393 
L 510.847572 222.951607 
" clip-path="url(#p9cb640a811)" style="fill: none; stroke: #b0b0b0; stroke-width: 0.8; stroke-linecap: square"/>
     </g>
     <g id="line2d_10">
      <g>
       <use xlink:href="#mf32a995832" x="510.847572" y="649.688393" style="stroke: #000000; stroke-width: 0.8"/>
      </g>
     </g>
     <g id="text_5">
      <!-- −51.45 -->
      <g transform="translate(499.714508 688.229775) rotate(-45) scale(0.1 -0.1)">
       <defs>
        <path id="DejaVuSans-34" d="M 2419 4116 
L 825 1625 
L 2419 1625 
L 2419 4116 
z
M 2253 4666 
L 3047 4666 
L 3047 1625 
L 3713 1625 
L 3713 1100 
L 3047 1100 
L 3047 0 
L 2419 0 
L 2419 1100 
L 313 1100 
L 313 1709 
L 2253 4666 
z
" transform="scale(0.015625)"/>
       </defs>
       <use xlink:href="#DejaVuSans-2212"/>
       <use xlink:href="#DejaVuSans-35" transform="translate(83.789062 0)"/>
       <use xlink:href="#DejaVuSans-31" transform="translate(147.412109 0)"/>
       <use xlink:href="#DejaVuSans-2e" transform="translate(211.035156 0)"/>
       <use xlink:href="#DejaVuSans-34" transform="translate(242.822266 0)"/>
       <use xlink:href="#DejaVuSans-35" transform="translate(306.445312 0)"/>
      </g>
     </g>
    </g>
    <g id="xtick_6">
     <g id="line2d_11">
      <path d="M 598.242499 649.688393 
L 598.242499 222.951607 
" clip-path="url(#p9cb640a811)" style="fill: none; stroke: #b0b0b0; stroke-width: 0.8; stroke-linecap: square"/>
     </g>
     <g id="line2d_12">
      <g>
       <use xlink:href="#mf32a995832" x="598.242499" y="649.688393" style="stroke: #000000; stroke-width: 0.8"/>
      </g>
     </g>
     <g id="text_6">
      <!-- −51.40 -->
      <g transform="translate(587.109435 688.229775) rotate(-45) scale(0.1 -0.1)">
       <use xlink:href="#DejaVuSans-2212"/>
       <use xlink:href="#DejaVuSans-35" transform="translate(83.789062 0)"/>
       <use xlink:href="#DejaVuSans-31" transform="translate(147.412109 0)"/>
       <use xlink:href="#DejaVuSans-2e" transform="translate(211.035156 0)"/>
       <use xlink:href="#DejaVuSans-34" transform="translate(242.822266 0)"/>
       <use xlink:href="#DejaVuSans-30" transform="translate(306.445312 0)"/>
      </g>
     </g>
    </g>
    <g id="text_7">
     <!-- Longitude (°) -->
     <g transform="translate(336.139844 701.298774) scale(0.1 -0.1)">
      <defs>
       <path id="DejaVuSans-4c" d="M 628 4666 
L 1259 4666 
L 1259 531 
L 3531 531 
L 3531 0 
L 628 0 
L 628 4666 
z
" transform="scale(0.015625)"/>
       <path id="DejaVuSans-6f" d="M 1959 3097 
Q 1497 3097 1228 2736 
Q 959 2375 959 1747 
Q 959 1119 1226 758 
Q 1494 397 1959 397 
Q 2419 397 2687 759 
Q 2956 1122 2956 1747 
Q 2956 2369 2687 2733 
Q 2419 3097 1959 3097 
z
M 1959 3584 
Q 2709 3584 3137 3096 
Q 3566 2609 3566 1747 
Q 3566 888 3137 398 
Q 2709 -91 1959 -91 
Q 1206 -91 779 398 
Q 353 888 353 1747 
Q 353 2609 779 3096 
Q 1206 3584 1959 3584 
z
" transform="scale(0.015625)"/>
       <path id="DejaVuSans-6e" d="M 3513 2113 
L 3513 0 
L 2938 0 
L 2938 2094 
Q 2938 2591 2744 2837 
Q 2550 3084 2163 3084 
Q 1697 3084 1428 2787 
Q 1159 2491 1159 1978 
L 1159 0 
L 581 0 
L 581 3500 
L 1159 3500 
L 1159 2956 
Q 1366 3272 1645 3428 
Q 1925 3584 2291 3584 
Q 2894 3584 3203 3211 
Q 3513 2838 3513 2113 
z
" transform="scale(0.015625)"/>
       <path id="DejaVuSans-67" d="M 2906 1791 
Q 2906 2416 2648 2759 
Q 2391 3103 1925 3103 
Q 1463 3103 1205 2759 
Q 947 2416 947 1791 
Q 947 1169 1205 825 
Q 1463 481 1925 481 
Q 2391 481 2648 825 
Q 2906 1169 2906 1791 
z
M 3481 434 
Q 3481 -459 3084 -895 
Q 2688 -1331 1869 -1331 
Q 1566 -1331 1297 -1286 
Q 1028 -1241 775 -1147 
L 775 -588 
Q 1028 -725 1275 -790 
Q 1522 -856 1778 -856 
Q 2344 -856 2625 -561 
Q 2906 -266 2906 331 
L 2906 616 
Q 2728 306 2450 153 
Q 2172 0 1784 0 
Q 1141 0 747 490 
Q 353 981 353 1791 
Q 353 2603 747 3093 
Q 1141 3584 1784 3584 
Q 2172 3584 2450 3431 
Q 2728 3278 2906 2969 
L 2906 3500 
L 3481 3500 
L 3481 434 
z
" transform="scale(0.015625)"/>
       <path id="DejaVuSans-69" d="M 603 3500 
L 1178 3500 
L 1178 0 
L 603 0 
L 603 3500 
z
M 603 4863 
L 1178 4863 
L 1178 4134 
L 603 4134 
L 603 4863 
z
" transform="scale(0.015625)"/>
       <path id="DejaVuSans-74" d="M 1172 4494 
L 1172 3500 
L 2356 3500 
L 2356 3053 
L 1172 3053 
L 1172 1153 
Q 1172 725 1289 603 
Q 1406 481 1766 481 
L 2356 481 
L 2356 0 
L 1766 0 
Q 1100 0 847 248 
Q 594 497 594 1153 
L 594 3053 
L 172 3053 
L 172 3500 
L 594 3500 
L 594 4494 
L 1172 4494 
z
" transform="scale(0.015625)"/>
       <path id="DejaVuSans-75" d="M 544 1381 
L 544 3500 
L 1119 3500 
L 1119 1403 
Q 1119 906 1312 657 
Q 1506 409 1894 409 
Q 2359 409 2629 706 
Q 2900 1003 2900 1516 
L 2900 3500 
L 3475 3500 
L 3475 0 
L 2900 0 
L 2900 538 
Q 2691 219 2414 64 
Q 2138 -91 1772 -91 
Q 1169 -91 856 284 
Q 544 659 544 1381 
z
M 1991 3584 
L 1991 3584 
z
" transform="scale(0.015625)"/>
       <path id="DejaVuSans-64" d="M 2906 2969 
L 2906 4863 
L 3481 4863 
L 3481 0 
L 2906 0 
L 2906 525 
Q 2725 213 2448 61 
Q 2172 -91 1784 -91 
Q 1150 -91 751 415 
Q 353 922 353 1747 
Q 353 2572 751 3078 
Q 1150 3584 1784 3584 
Q 2172 3584 2448 3432 
Q 2725 3281 2906 2969 
z
M 947 1747 
Q 947 1113 1208 752 
Q 1469 391 1925 391 
Q 2381 391 2643 752 
Q 2906 1113 2906 1747 
Q 2906 2381 2643 2742 
Q 2381 3103 1925 3103 
Q 1469 3103 1208 2742 
Q 947 2381 947 1747 
z
" transform="scale(0.015625)"/>
       <path id="DejaVuSans-65" d="M 3597 1894 
L 3597 1613 
L 953 1613 
Q 991 1019 1311 708 
Q 1631 397 2203 397 
Q 2534 397 2845 478 
Q 3156 559 3463 722 
L 3463 178 
Q 3153 47 2828 -22 
Q 2503 -91 2169 -91 
Q 1331 -91 842 396 
Q 353 884 353 1716 
Q 353 2575 817 3079 
Q 1281 3584 2069 3584 
Q 2775 3584 3186 3129 
Q 3597 2675 3597 1894 
z
M 3022 2063 
Q 3016 2534 2758 2815 
Q 2500 3097 2075 3097 
Q 1594 3097 1305 2825 
Q 1016 2553 972 2059 
L 3022 2063 
z
" transform="scale(0.015625)"/>
       <path id="DejaVuSans-20" transform="scale(0.015625)"/>
       <path id="DejaVuSans-28" d="M 1984 4856 
Q 1566 4138 1362 3434 
Q 1159 2731 1159 2009 
Q 1159 1288 1364 580 
Q 1569 -128 1984 -844 
L 1484 -844 
Q 1016 -109 783 600 
Q 550 1309 550 2009 
Q 550 2706 781 3412 
Q 1013 4119 1484 4856 
L 1984 4856 
z
" transform="scale(0.015625)"/>
       <path id="DejaVuSans-b0" d="M 1600 4347 
Q 1350 4347 1178 4173 
Q 1006 4000 1006 3750 
Q 1006 3503 1178 3333 
Q 1350 3163 1600 3163 
Q 1850 3163 2022 3333 
Q 2194 3503 2194 3750 
Q 2194 3997 2020 4172 
Q 1847 4347 1600 4347 
z
M 1600 4750 
Q 1800 4750 1984 4673 
Q 2169 4597 2303 4453 
Q 2447 4313 2519 4134 
Q 2591 3956 2591 3750 
Q 2591 3338 2302 3052 
Q 2013 2766 1594 2766 
Q 1172 2766 890 3047 
Q 609 3328 609 3750 
Q 609 4169 896 4459 
Q 1184 4750 1600 4750 
z
" transform="scale(0.015625)"/>
       <path id="DejaVuSans-29" d="M 513 4856 
L 1013 4856 
Q 1481 4119 1714 3412 
Q 1947 2706 1947 2009 
Q 1947 1309 1714 600 
Q 1481 -109 1013 -844 
L 513 -844 
Q 928 -128 1133 580 
Q 1338 1288 1338 2009 
Q 1338 2731 1133 3434 
Q 928 4138 513 4856 
z
" transform="scale(0.015625)"/>
      </defs>
      <use xlink:href="#DejaVuSans-4c"/>
      <use xlink:href="#DejaVuSans-6f" transform="translate(53.962891 0)"/>
      <use xlink:href="#DejaVuSans-6e" transform="translate(115.144531 0)"/>
      <use xlink:href="#DejaVuSans-67" transform="translate(178.523438 0)"/>
      <use xlink:href="#DejaVuSans-69" transform="translate(242 0)"/>
      <use xlink:href="#DejaVuSans-74" transform="translate(269.783203 0)"/>
      <use xlink:href="#DejaVuSans-75" transform="translate(308.992188 0)"/>
      <use xlink:href="#DejaVuSans-64" transform="translate(372.371094 0)"/>
      <use xlink:href="#DejaVuSans-65" transform="translate(435.847656 0)"/>
      <use xlink:href="#DejaVuSans-20" transform="translate(497.371094 0)"/>
      <use xlink:href="#DejaVuSans-28" transform="translate(529.158203 0)"/>
      <use xlink:href="#DejaVuSans-b0" transform="translate(568.171875 0)"/>
      <use xlink:href="#DejaVuSans-29" transform="translate(618.171875 0)"/>
     </g>
    </g>
   </g>
   <g id="matplotlib.axis_2">
    <g id="ytick_1">
     <g id="line2d_13">
      <path d="M 90 594.527768 
L 648 594.527768 
" clip-path="url(#p9cb640a811)" style="fill: none; stroke: #b0b0b0; stroke-width: 0.8; stroke-linecap: square"/>
     </g>
     <g id="line2d_14">
      <defs>
       <path id="me080280885" d="M 0 0 
L -3.5 0 
" style="stroke: #000000; stroke-width: 0.8"/>
      </defs>
      <g>
       <use xlink:href="#me080280885" x="90" y="594.527768" style="stroke: #000000; stroke-width: 0.8"/>
      </g>
     </g>
     <g id="text_8">
      <!-- −15.15 -->
      <g transform="translate(45.992188 598.326986) scale(0.1 -0.1)">
       <use xlink:href="#DejaVuSans-2212"/>
       <use xlink:href="#DejaVuSans-31" transform="translate(83.789062 0)"/>
       <use xlink:href="#DejaVuSans-35" transform="translate(147.412109 0)"/>
       <use xlink:href="#DejaVuSans-2e" transform="translate(211.035156 0)"/>
       <use xlink:href="#DejaVuSans-31" transform="translate(242.822266 0)"/>
       <use xlink:href="#DejaVuSans-35" transform="translate(306.445312 0)"/>
      </g>
     </g>
    </g>
    <g id="ytick_2">
     <g id="line2d_15">
      <path d="M 90 504.036347 
L 648 504.036347 
" clip-path="url(#p9cb640a811)" style="fill: none; stroke: #b0b0b0; stroke-width: 0.8; stroke-linecap: square"/>
     </g>
     <g id="line2d_16">
      <g>
       <use xlink:href="#me080280885" x="90" y="504.036347" style="stroke: #000000; stroke-width: 0.8"/>
      </g>
     </g>
     <g id="text_9">
      <!-- −15.10 -->
      <g transform="translate(45.992188 507.835566) scale(0.1 -0.1)">
       <use xlink:href="#DejaVuSans-2212"/>
       <use xlink:href="#DejaVuSans-31" transform="translate(83.789062 0)"/>
       <use xlink:href="#DejaVuSans-35" transform="translate(147.412109 0)"/>
       <use xlink:href="#DejaVuSans-2e" transform="translate(211.035156 0)"/>
       <use xlink:href="#DejaVuSans-31" transform="translate(242.822266 0)"/>
       <use xlink:href="#DejaVuSans-30" transform="translate(306.445312 0)"/>
      </g>
     </g>
    </g>
    <g id="ytick_3">
     <g id="line2d_17">
      <path d="M 90 413.544927 
L 648 413.544927 
" clip-path="url(#p9cb640a811)" style="fill: none; stroke: #b0b0b0; stroke-width: 0.8; stroke-linecap: square"/>
     </g>
     <g id="line2d_18">
      <g>
       <use xlink:href="#me080280885" x="90" y="413.544927" style="stroke: #000000; stroke-width: 0.8"/>
      </g>
     </g>
     <g id="text_10">
      <!-- −15.05 -->
      <g transform="translate(45.992188 417.344146) scale(0.1 -0.1)">
       <use xlink:href="#DejaVuSans-2212"/>
       <use xlink:href="#DejaVuSans-31" transform="translate(83.789062 0)"/>
       <use xlink:href="#DejaVuSans-35" transform="translate(147.412109 0)"/>
       <use xlink:href="#DejaVuSans-2e" transform="translate(211.035156 0)"/>
       <use xlink:href="#DejaVuSans-30" transform="translate(242.822266 0)"/>
       <use xlink:href="#DejaVuSans-35" transform="translate(306.445312 0)"/>
      </g>
     </g>
    </g>
    <g id="ytick_4">
     <g id="line2d_19">
      <path d="M 90 323.053507 
L 648 323.053507 
" clip-path="url(#p9cb640a811)" style="fill: none; stroke: #b0b0b0; stroke-width: 0.8; stroke-linecap: square"/>
     </g>
     <g id="line2d_20">
      <g>
       <use xlink:href="#me080280885" x="90" y="323.053507" style="stroke: #000000; stroke-width: 0.8"/>
      </g>
     </g>
     <g id="text_11">
      <!-- −15.00 -->
      <g transform="translate(45.992188 326.852725) scale(0.1 -0.1)">
       <use xlink:href="#DejaVuSans-2212"/>
       <use xlink:href="#DejaVuSans-31" transform="translate(83.789062 0)"/>
       <use xlink:href="#DejaVuSans-35" transform="translate(147.412109 0)"/>
       <use xlink:href="#DejaVuSans-2e" transform="translate(211.035156 0)"/>
       <use xlink:href="#DejaVuSans-30" transform="translate(242.822266 0)"/>
       <use xlink:href="#DejaVuSans-30" transform="translate(306.445312 0)"/>
      </g>
     </g>
    </g>
    <g id="ytick_5">
     <g id="line2d_21">
      <path d="M 90 232.562086 
L 648 232.562086 
" clip-path="url(#p9cb640a811)" style="fill: none; stroke: #b0b0b0; stroke-width: 0.8; stroke-linecap: square"/>
     </g>
     <g id="line2d_22">
      <g>
       <use xlink:href="#me080280885" x="90" y="232.562086" style="stroke: #000000; stroke-width: 0.8"/>
      </g>
     </g>
     <g id="text_12">
      <!-- −14.95 -->
      <g transform="translate(45.992188 236.361305) scale(0.1 -0.1)">
       <defs>
        <path id="DejaVuSans-39" d="M 703 97 
L 703 672 
Q 941 559 1184 500 
Q 1428 441 1663 441 
Q 2288 441 2617 861 
Q 2947 1281 2994 2138 
Q 2813 1869 2534 1725 
Q 2256 1581 1919 1581 
Q 1219 1581 811 2004 
Q 403 2428 403 3163 
Q 403 3881 828 4315 
Q 1253 4750 1959 4750 
Q 2769 4750 3195 4129 
Q 3622 3509 3622 2328 
Q 3622 1225 3098 567 
Q 2575 -91 1691 -91 
Q 1453 -91 1209 -44 
Q 966 3 703 97 
z
M 1959 2075 
Q 2384 2075 2632 2365 
Q 2881 2656 2881 3163 
Q 2881 3666 2632 3958 
Q 2384 4250 1959 4250 
Q 1534 4250 1286 3958 
Q 1038 3666 1038 3163 
Q 1038 2656 1286 2365 
Q 1534 2075 1959 2075 
z
" transform="scale(0.015625)"/>
       </defs>
       <use xlink:href="#DejaVuSans-2212"/>
       <use xlink:href="#DejaVuSans-31" transform="translate(83.789062 0)"/>
       <use xlink:href="#DejaVuSans-34" transform="translate(147.412109 0)"/>
       <use xlink:href="#DejaVuSans-2e" transform="translate(211.035156 0)"/>
       <use xlink:href="#DejaVuSans-39" transform="translate(242.822266 0)"/>
       <use xlink:href="#DejaVuSans-35" transform="translate(306.445312 0)"/>
      </g>
     </g>
    </g>
    <g id="text_13">
     <!-- Latitude (°) -->
     <g transform="translate(39.9125 464.889531) rotate(-90) scale(0.1 -0.1)">
      <defs>
       <path id="DejaVuSans-61" d="M 2194 1759 
Q 1497 1759 1228 1600 
Q 959 1441 959 1056 
Q 959 750 1161 570 
Q 1363 391 1709 391 
Q 2188 391 2477 730 
Q 2766 1069 2766 1631 
L 2766 1759 
L 2194 1759 
z
M 3341 1997 
L 3341 0 
L 2766 0 
L 2766 531 
Q 2569 213 2275 61 
Q 1981 -91 1556 -91 
Q 1019 -91 701 211 
Q 384 513 384 1019 
Q 384 1609 779 1909 
Q 1175 2209 1959 2209 
L 2766 2209 
L 2766 2266 
Q 2766 2663 2505 2880 
Q 2244 3097 1772 3097 
Q 1472 3097 1187 3025 
Q 903 2953 641 2809 
L 641 3341 
Q 956 3463 1253 3523 
Q 1550 3584 1831 3584 
Q 2591 3584 2966 3190 
Q 3341 2797 3341 1997 
z
" transform="scale(0.015625)"/>
      </defs>
      <use xlink:href="#DejaVuSans-4c"/>
      <use xlink:href="#DejaVuSans-61" transform="translate(55.712891 0)"/>
      <use xlink:href="#DejaVuSans-74" transform="translate(116.992188 0)"/>
      <use xlink:href="#DejaVuSans-69" transform="translate(156.201172 0)"/>
      <use xlink:href="#DejaVuSans-74" transform="translate(183.984375 0)"/>
      <use xlink:href="#DejaVuSans-75" transform="translate(223.193359 0)"/>
      <use xlink:href="#DejaVuSans-64" transform="translate(286.572266 0)"/>
      <use xlink:href="#DejaVuSans-65" transform="translate(350.048828 0)"/>
      <use xlink:href="#DejaVuSans-20" transform="translate(411.572266 0)"/>
      <use xlink:href="#DejaVuSans-28" transform="translate(443.359375 0)"/>
      <use xlink:href="#DejaVuSans-b0" transform="translate(482.373047 0)"/>
      <use xlink:href="#DejaVuSans-29" transform="translate(532.373047 0)"/>
     </g>
    </g>
   </g>
   <g id="patch_3">
    <path d="M 90 649.688393 
L 90 222.951607 
" style="fill: none; stroke: #000000; stroke-width: 0.8; stroke-linejoin: miter; stroke-linecap: square"/>
   </g>
   <g id="patch_4">
    <path d="M 648 649.688393 
L 648 222.951607 
" style="fill: none; stroke: #000000; stroke-width: 0.8; stroke-linejoin: miter; stroke-linecap: square"/>
   </g>
   <g id="patch_5">
    <path d="M 90 649.688393 
L 648 649.688393 
" style="fill: none; stroke: #000000; stroke-width: 0.8; stroke-linejoin: miter; stroke-linecap: square"/>
   </g>
   <g id="patch_6">
    <path d="M 90 222.951607 
L 648 222.951607 
" style="fill: none; stroke: #000000; stroke-width: 0.8; stroke-linejoin: miter; stroke-linecap: square"/>
   </g>
  </g>
 </g>
 <defs>
  <clipPath id="p9cb640a811">
   <rect x="90" y="222.951607" width="558" height="426.736786"/>
  </clipPath>
 </defs>
</svg>
