<?xml version="1.0" encoding="utf-8" standalone="no"?>
<!DOCTYPE svg PUBLIC "-//W3C//DTD SVG 1.1//EN"
  "http://www.w3.org/Graphics/SVG/1.1/DTD/svg11.dtd">
<svg xmlns:xlink="http://www.w3.org/1999/xlink" width="720pt" height="864pt" viewBox="0 0 720 864" xmlns="http://www.w3.org/2000/svg" version="1.1">
 <metadata>
  <rdf:RDF xmlns:dc="http://purl.org/dc/elements/1.1/" xmlns:cc="http://creativecommons.org/ns#" xmlns:rdf="http://www.w3.org/1999/02/22-rdf-syntax-ns#">
   <cc:Work>
    <dc:type rdf:resource="http://purl.org/dc/dcmitype/StillImage"/>
    <dc:date>2025-06-16T17:42:26.223369</dc:date>
    <dc:format>image/svg+xml</dc:format>
    <dc:creator>
     <cc:Agent>
      <dc:title>Matplotlib v3.10.1, https://matplotlib.org/</dc:title>
     </cc:Agent>
    </dc:creator>
   </cc:Work>
  </rdf:RDF>
 </metadata>
 <defs>
  <style type="text/css">*{stroke-linejoin: round; stroke-linecap: butt}</style>
 </defs>
 <g id="figure_1">
  <g id="patch_1">
   <path d="M 0 864 
L 720 864 
L 720 0 
L 0 0 
z
" style="fill: #ffffff"/>
  </g>
  <g id="axes_1">
   <g id="patch_2">
    <path d="M 90 699.617713 
L 648 699.617713 
L 648 173.022287 
L 90 173.022287 
z
" style="fill: #ffffff"/>
   </g>
   <g id="PatchCollection_1">
    <path d="M 568.799683 470.555639 
L 570.981182 472.428892 
L 574.059244 479.840853 
L 576.950344 480.78217 
L 579.281861 484.725293 
L 580.883556 484.647531 
L 581.423582 485.31896 
L 583.118322 488.807396 
L 584.955134 489.499036 
L 586.324885 488.709066 
L 587.643024 491.957251 
L 591.026211 491.564083 
L 527.485936 539.061262 
L 446.494091 599.467411 
L 444.294136 598.031466 
L 442.955082 598.634453 
L 441.221457 597.39236 
L 440.836598 595.684347 
L 440.415507 593.56449 
L 439.05553 594.283479 
L 439.26337 592.212682 
L 437.597887 591.048494 
L 436.58949 592.54844 
L 433.857968 593.259641 
L 433.569881 591.405061 
L 505.594272 527.029741 
L 506.476892 526.253591 
L 568.799683 470.555639 
" clip-path="url(#pc5e6afca96)" style="fill: #e0bd1f; stroke: #0000ff; stroke-width: 0.5"/>
    <path d="M 565.995109 468.226991 
L 567.289962 469.358363 
L 568.799683 470.555639 
L 506.476892 526.253591 
L 499.742396 517.941958 
L 565.995109 468.226991 
" clip-path="url(#pc5e6afca96)" style="fill: #e0bd1f; stroke: #0000ff; stroke-width: 0.5"/>
    <path d="M 514.858995 196.958443 
L 516.576432 206.347601 
L 490.454963 249.420943 
L 480.959793 285.699331 
L 453.375771 305.847013 
L 446.942655 315.987276 
L 461.981013 339.041424 
L 466.523971 341.916573 
L 462.399754 350.026575 
L 461.99805 350.821047 
L 459.600443 354.09245 
L 456.845147 356.130001 
L 455.811078 359.364762 
L 455.756473 362.21326 
L 454.898523 364.609591 
L 452.59072 366.032061 
L 450.640544 369.702513 
L 447.421962 371.031597 
L 444.222786 373.330918 
L 441.086967 375.480109 
L 437.072142 378.919897 
L 434.727302 384.098889 
L 432.132395 386.559279 
L 429.833408 391.364793 
L 428.871511 394.894277 
L 430.883332 397.605497 
L 429.368283 398.50067 
L 435.483082 398.894313 
L 436.296955 403.421516 
L 438.511404 404.195886 
L 437.095037 406.810096 
L 435.257559 408.210554 
L 434.644538 410.848489 
L 436.783199 411.337298 
L 437.588257 415.062714 
L 442.346559 417.817826 
L 444.635018 418.207779 
L 448.427872 420.263651 
L 453.76926 421.292477 
L 454.340043 419.745515 
L 458.416576 418.711219 
L 459.459523 421.837964 
L 461.59996 423.308016 
L 464.506705 422.729512 
L 466.620695 421.109396 
L 470.949133 422.222447 
L 474.005677 423.416032 
L 475.533029 423.284225 
L 478.127999 422.566597 
L 481.008297 424.459489 
L 483.405967 428.093364 
L 487.494803 428.358825 
L 490.801477 429.968 
L 492.711126 433.395003 
L 497.627979 435.320846 
L 499.290987 437.418765 
L 503.874883 440.025659 
L 506.323606 441.30347 
L 509.214495 441.539604 
L 511.314406 441.56524 
L 513.285764 440.479671 
L 516.359875 440.843922 
L 516.703423 445.318072 
L 520.062925 445.859933 
L 519.902599 448.24895 
L 524.689059 450.497063 
L 527.888298 452.682832 
L 531.542007 453.393144 
L 533.976651 455.879171 
L 534.875063 455.020575 
L 535.678409 457.125875 
L 536.608595 459.617372 
L 540.956377 460.750589 
L 541.726236 462.354229 
L 544.011144 463.668682 
L 545.594877 465.140513 
L 545.129816 467.503893 
L 546.362961 468.150147 
L 551.017317 465.145983 
L 552.560587 463.578987 
L 555.472596 463.194503 
L 557.655334 464.646234 
L 560.743524 464.333191 
L 563.204614 466.10159 
L 565.919321 466.886967 
L 565.995109 468.226991 
L 567.289962 469.358363 
L 568.799683 470.555639 
L 506.476892 526.253591 
L 505.594272 527.029741 
L 433.569881 591.405061 
L 432.789493 590.835717 
L 433.8606 589.254024 
L 434.764339 584.681018 
L 433.360276 583.386732 
L 432.209895 582.568469 
L 432.801797 581.286968 
L 433.518827 578.894327 
L 431.448851 579.287905 
L 431.415365 577.263206 
L 427.779286 575.432527 
L 425.540168 573.202735 
L 422.326913 574.171193 
L 423.480782 575.260452 
L 422.122509 574.762482 
L 420.522921 575.511216 
L 421.183571 573.285115 
L 420.609236 571.615571 
L 420.05786 571.738218 
L 419.354908 571.840765 
L 413.337079 575.829796 
L 410.757964 577.874596 
L 410.051525 580.014693 
L 406.780113 578.264549 
L 401.366489 579.663162 
L 399.752759 580.924496 
L 396.47602 580.214184 
L 394.404331 581.285123 
L 392.905137 583.016945 
L 391.102921 582.345121 
L 389.276098 584.433879 
L 386.341132 583.137747 
L 383.168339 584.931849 
L 384.094973 582.315794 
L 383.457282 581.903894 
L 381.424279 582.476929 
L 378.198657 580.153816 
L 374.522053 580.56934 
L 367.813576 578.343239 
L 361.616013 576.703022 
L 356.244627 575.641179 
L 351.391259 575.172536 
L 347.735774 576.435716 
L 345.739745 572.977607 
L 343.791345 570.365243 
L 339.584484 567.877371 
L 338.097594 565.548788 
L 331.984634 559.904845 
L 327.251003 557.97162 
L 320.824366 555.694311 
L 314.600357 553.232075 
L 313.30024 550.293816 
L 312.06887 546.914462 
L 310.895594 543.046233 
L 310.344154 540.618795 
L 307.810892 535.937773 
L 306.619985 531.970754 
L 301.97622 526.681966 
L 295.438661 523.566162 
L 293.58184 522.163859 
L 289.790602 519.638665 
L 284.234379 518.20231 
L 278.641022 523.211006 
L 218.74406 577.153344 
L 217.889661 576.347866 
L 213.177149 571.231154 
L 206.991889 566.114441 
L 200.063217 561.451741 
L 193.86039 557.296105 
L 186.607576 552.466865 
L 180.344818 548.24348 
L 170.386048 542.196797 
L 169.359019 541.600038 
L 165.249 540.236157 
L 154.546817 538.478763 
L 145.065476 537.050824 
L 144.211077 536.964753 
L 143.946804 536.14649 
L 134.16948 535.320846 
L 133.988035 535.661372 
L 131.044316 535.364804 
L 130.898069 534.945524 
L 126.048188 534.187629 
L 125.671154 534.885156 
L 115.363636 533.925859 
L 156.054826 466.207761 
L 156.703109 465.127728 
L 174.770867 434.890626 
L 185.980413 404.631577 
L 186.958164 402.804589 
L 187.315728 402.138235 
L 196.450033 383.447165 
L 205.820389 355.119431 
L 231.512668 342.575745 
L 253.302883 322.78263 
L 264.540587 313.781212 
L 281.598883 299.280576 
L 291.682718 287.716222 
L 301.815894 283.767524 
L 318.720967 264.876898 
L 327.571593 262.581201 
L 343.386153 255.10849 
L 356.420809 246.793594 
L 365.981426 242.956537 
L 371.173079 237.028811 
L 381.207572 232.653518 
L 392.114159 224.549184 
L 403.547388 219.516696 
L 416.486914 214.974798 
L 448.341557 209.286962 
L 455.906417 201.354648 
L 514.858995 196.958443 
" clip-path="url(#pc5e6afca96)" style="fill: #e0bd1f; stroke: #0000ff; stroke-width: 0.5"/>
    <path d="M 502.414522 523.12174 
L 505.594272 527.029741 
L 433.569881 591.405061 
L 432.789493 590.835717 
L 433.8606 589.254024 
L 434.764339 584.681018 
L 433.360276 583.386732 
L 432.209895 582.568469 
L 432.801797 581.286968 
L 502.414522 523.12174 
" clip-path="url(#pc5e6afca96)" style="fill: #e0bd1f; stroke: #0000ff; stroke-width: 0.5"/>
    <path d="M 418.509898 552.784482 
L 419.809619 558.476602 
L 420.416505 561.37448 
L 419.338181 566.317342 
L 419.061235 569.820771 
L 419.354908 571.840765 
L 413.337079 575.829796 
L 410.757964 577.874596 
L 410.051525 580.014693 
L 406.780113 578.264549 
L 401.366489 579.663162 
L 399.752759 580.924496 
L 396.47602 580.214184 
L 394.404331 581.285123 
L 392.905137 583.016945 
L 383.809097 569.439943 
L 418.509898 552.784482 
" clip-path="url(#pc5e6afca96)" style="fill: #e0bd1f; stroke: #0000ff; stroke-width: 0.5"/>
    <path d="M 495.13716 514.212287 
L 498.628041 518.508446 
L 427.779286 575.432527 
L 425.540168 573.202735 
L 422.326913 574.171193 
L 423.480782 575.260452 
L 422.122509 574.762482 
L 420.522921 575.511216 
L 421.183571 573.285115 
L 420.609236 571.615571 
L 495.13716 514.212287 
" clip-path="url(#pc5e6afca96)" style="fill: #e0bd1f; stroke: #0000ff; stroke-width: 0.5"/>
    <path d="M 498.628041 518.508446 
L 502.414522 523.12174 
L 432.801797 581.286968 
L 433.518827 578.894327 
L 431.448851 579.287905 
L 431.415365 577.263206 
L 427.779286 575.432527 
L 498.628041 518.508446 
" clip-path="url(#pc5e6afca96)" style="fill: #e0bd1f; stroke: #0000ff; stroke-width: 0.5"/>
    <path d="M 491.6641 509.910288 
L 495.13716 514.212287 
L 420.609236 571.615571 
L 420.05786 571.738218 
L 419.775899 569.796578 
L 420.04248 566.422331 
L 421.143409 561.377176 
L 491.6641 509.910288 
" clip-path="url(#pc5e6afca96)" style="fill: #e0bd1f; stroke: #0000ff; stroke-width: 0.5"/>
    <path d="M 284.414908 518.249672 
L 289.790602 519.638665 
L 294.678291 523.859428 
L 305.211948 532.144254 
L 307.744589 535.998084 
L 310.932017 545.52167 
L 314.469186 554.047642 
L 317.892953 555.924866 
L 321.006666 556.5967 
L 326.517214 558.284927 
L 329.571401 560.195253 
L 334.681568 563.6193 
L 338.513109 567.132002 
L 341.877707 569.610945 
L 344.559983 572.147021 
L 347.664146 576.923292 
L 351.441301 576.348884 
L 352.014666 575.447545 
L 355.204679 576.138305 
L 360.194538 577.641068 
L 361.146032 576.843643 
L 363.237636 580.309497 
L 364.865173 579.509079 
L 366.547936 580.218404 
L 368.175447 578.995075 
L 370.572692 581.157421 
L 372.562057 580.080774 
L 374.037393 580.910739 
L 373.502207 582.027383 
L 375.830191 583.167707 
L 377.310107 580.862241 
L 379.837562 584.311477 
L 382.172662 583.23069 
L 383.426701 582.168523 
L 382.4755 584.63317 
L 383.270863 585.351139 
L 384.520618 584.822041 
L 385.876023 585.619583 
L 386.300011 583.719479 
L 386.455414 584.87135 
L 387.989384 585.52838 
L 389.96222 585.299191 
L 391.197611 582.825808 
L 392.813206 583.92001 
L 394.873959 583.646161 
L 394.65886 581.539056 
L 398.45197 581.397062 
L 400.239003 581.327379 
L 401.450471 579.913466 
L 404.982602 579.931045 
L 408.111571 580.125083 
L 410.342429 580.333678 
L 411.016603 578.630684 
L 412.930075 578.252729 
L 415.70667 575.296903 
L 419.926772 572.552485 
L 420.717337 573.110171 
L 419.559658 575.568642 
L 422.22471 576.42176 
L 422.151558 575.012551 
L 423.887865 575.773404 
L 425.680427 574.214615 
L 426.219097 575.418599 
L 427.480427 575.868778 
L 428.067084 577.325054 
L 430.194102 578.256599 
L 430.985237 577.702215 
L 431.11675 580.264403 
L 432.986999 579.286303 
L 431.57732 583.009368 
L 432.786654 583.446671 
L 431.426283 584.739255 
L 434.039272 584.818841 
L 430.896913 585.87741 
L 432.970617 587.245782 
L 432.14993 588.308045 
L 433.627758 589.04147 
L 432.323623 590.762715 
L 433.538671 592.175724 
L 433.112405 593.470657 
L 435.381753 594.111323 
L 437.491607 591.524268 
L 438.783956 592.372545 
L 438.792543 594.649158 
L 440.325928 594.27983 
L 440.788696 597.740177 
L 442.659753 599.054706 
L 444.321337 598.551653 
L 446.533283 601.513723 
L 445.70829 601.997593 
L 446.124268 603.571803 
L 343.246648 675.681557 
L 343.429998 671.371606 
L 343.9183 668.921011 
L 343.379695 668.139307 
L 339.002192 669.958493 
L 335.211313 668.216897 
L 333.032797 664.559183 
L 332.993666 661.680775 
L 331.753303 660.680279 
L 330.818739 658.529377 
L 328.811275 657.935646 
L 324.318673 658.266659 
L 322.786016 657.58514 
L 322.159074 655.043285 
L 319.061658 653.192186 
L 315.022985 652.612071 
L 314.405385 650.938722 
L 311.361674 651.910124 
L 309.614425 650.086424 
L 309.372283 648.055964 
L 307.184303 645.936088 
L 306.063918 645.645826 
L 298.128589 639.427158 
L 294.959669 638.160418 
L 291.333894 635.011789 
L 282.695029 625.470346 
L 281.142187 604.024683 
L 278.915051 601.595355 
L 268.48084 614.272698 
L 254.984659 619.460055 
L 247.487644 624.373713 
L 218.444169 577.604509 
L 284.414908 518.249672 
" clip-path="url(#pc5e6afca96)" style="fill: #e0bd1f; stroke: #0000ff; stroke-width: 0.5"/>
    <path d="M 591.026211 491.564083 
L 592.234079 492.215664 
L 592.242474 493.949064 
L 593.303786 493.865203 
L 593.200826 495.696718 
L 594.539106 495.971548 
L 595.585801 497.173594 
L 594.584747 498.674328 
L 597.777838 498.821288 
L 599.403277 499.52397 
L 600.303472 497.968933 
L 599.897628 500.211758 
L 600.351789 503.691681 
L 602.954203 502.866057 
L 601.741188 504.46184 
L 602.377982 506.845229 
L 603.855218 507.144232 
L 602.778581 508.967893 
L 601.139076 507.89224 
L 599.861979 509.159379 
L 600.916714 512.063251 
L 598.787553 514.593289 
L 601.342395 515.378579 
L 603.719714 517.381351 
L 602.626805 518.54611 
L 604.98028 520.048965 
L 604.745768 522.077933 
L 607.226724 523.200442 
L 607.801958 521.994611 
L 609.203908 523.100797 
L 610.282627 526.051288 
L 610.273763 527.888811 
L 611.962761 528.565111 
L 612.708578 527.694606 
L 614.438494 531.077226 
L 615.914599 532.249434 
L 615.768122 535.268979 
L 616.634219 536.398299 
L 616.598212 537.961041 
L 614.821132 537.791042 
L 614.786964 539.519388 
L 612.653762 539.752589 
L 613.014622 540.926107 
L 614.20235 541.587659 
L 613.012006 544.55539 
L 617.200796 543.75072 
L 616.793448 542.097386 
L 619.542134 541.360891 
L 620.50204 544.905024 
L 621.268671 549.458655 
L 622.636364 550.910074 
L 619.739651 549.807978 
L 619.611443 552.401758 
L 620.733014 553.921186 
L 618.623965 555.132619 
L 617.037073 557.651499 
L 476.213301 608.658911 
L 479.453099 605.308868 
L 481.801926 603.94864 
L 486.979287 601.541831 
L 489.229268 601.387086 
L 492.784506 597.264259 
L 494.354526 596.730724 
L 501.808048 590.333907 
L 502.044249 588.256737 
L 508.809892 584.533733 
L 517.037153 574.471199 
L 518.460105 570.936339 
L 517.665822 566.062027 
L 521.60074 562.74526 
L 528.831649 551.011506 
L 527.485936 539.061262 
L 591.026211 491.564083 
" clip-path="url(#pc5e6afca96)" style="fill: #e0bd1f; stroke: #0000ff; stroke-width: 0.5"/>
   </g>
   <g id="PatchCollection_2">
    <path d="M 611.252819 537.290286 
L 438.5726 606.107538 
L 434.151319 596.801902 
L 431.619115 591.611651 
L 429.370855 586.711667 
L 423.420853 580.636231 
L 421.163522 576.885175 
L 420.051419 572.56732 
L 418.263794 563.547487 
L 593.319653 482.876238 
L 594.251552 497.194346 
L 595.078293 501.510143 
L 596.4426 510.713965 
L 599.258703 516.193001 
L 604.639287 522.26319 
L 609.161459 528.615792 
L 611.252819 537.290286 
" clip-path="url(#pc5e6afca96)" style="fill: none; stroke: #000000"/>
   </g>
   <g id="matplotlib.axis_1">
    <g id="xtick_1">
     <g id="line2d_1">
      <path d="M 118.191106 699.617713 
L 118.191106 173.022287 
" clip-path="url(#pc5e6afca96)" style="fill: none; stroke: #b0b0b0; stroke-width: 0.8; stroke-linecap: square"/>
     </g>
     <g id="line2d_2">
      <defs>
       <path id="me364da90d0" d="M 0 0 
L 0 3.5 
" style="stroke: #000000; stroke-width: 0.8"/>
      </defs>
      <g>
       <use xlink:href="#me364da90d0" x="118.191106" y="699.617713" style="stroke: #000000; stroke-width: 0.8"/>
      </g>
     </g>
     <g id="text_1">
      <!-- −52.51 -->
      <g transform="translate(107.058041 738.159095) rotate(-45) scale(0.1 -0.1)">
       <defs>
        <path id="DejaVuSans-2212" d="M 678 2272 
L 4684 2272 
L 4684 1741 
L 678 1741 
L 678 2272 
z
" transform="scale(0.015625)"/>
        <path id="DejaVuSans-35" d="M 691 4666 
L 3169 4666 
L 3169 4134 
L 1269 4134 
L 1269 2991 
Q 1406 3038 1543 3061 
Q 1681 3084 1819 3084 
Q 2600 3084 3056 2656 
Q 3513 2228 3513 1497 
Q 3513 744 3044 326 
Q 2575 -91 1722 -91 
Q 1428 -91 1123 -41 
Q 819 9 494 109 
L 494 744 
Q 775 591 1075 516 
Q 1375 441 1709 441 
Q 2250 441 2565 725 
Q 2881 1009 2881 1497 
Q 2881 1984 2565 2268 
Q 2250 2553 1709 2553 
Q 1456 2553 1204 2497 
Q 953 2441 691 2322 
L 691 4666 
z
" transform="scale(0.015625)"/>
        <path id="DejaVuSans-32" d="M 1228 531 
L 3431 531 
L 3431 0 
L 469 0 
L 469 531 
Q 828 903 1448 1529 
Q 2069 2156 2228 2338 
Q 2531 2678 2651 2914 
Q 2772 3150 2772 3378 
Q 2772 3750 2511 3984 
Q 2250 4219 1831 4219 
Q 1534 4219 1204 4116 
Q 875 4013 500 3803 
L 500 4441 
Q 881 4594 1212 4672 
Q 1544 4750 1819 4750 
Q 2544 4750 2975 4387 
Q 3406 4025 3406 3419 
Q 3406 3131 3298 2873 
Q 3191 2616 2906 2266 
Q 2828 2175 2409 1742 
Q 1991 1309 1228 531 
z
" transform="scale(0.015625)"/>
        <path id="DejaVuSans-2e" d="M 684 794 
L 1344 794 
L 1344 0 
L 684 0 
L 684 794 
z
" transform="scale(0.015625)"/>
        <path id="DejaVuSans-31" d="M 794 531 
L 1825 531 
L 1825 4091 
L 703 3866 
L 703 4441 
L 1819 4666 
L 2450 4666 
L 2450 531 
L 3481 531 
L 3481 0 
L 794 0 
L 794 531 
z
" transform="scale(0.015625)"/>
       </defs>
       <use xlink:href="#DejaVuSans-2212"/>
       <use xlink:href="#DejaVuSans-35" transform="translate(83.789062 0)"/>
       <use xlink:href="#DejaVuSans-32" transform="translate(147.412109 0)"/>
       <use xlink:href="#DejaVuSans-2e" transform="translate(211.035156 0)"/>
       <use xlink:href="#DejaVuSans-35" transform="translate(242.822266 0)"/>
       <use xlink:href="#DejaVuSans-31" transform="translate(306.445312 0)"/>
      </g>
     </g>
    </g>
    <g id="xtick_2">
     <g id="line2d_3">
      <path d="M 181.611449 699.617713 
L 181.611449 173.022287 
" clip-path="url(#pc5e6afca96)" style="fill: none; stroke: #b0b0b0; stroke-width: 0.8; stroke-linecap: square"/>
     </g>
     <g id="line2d_4">
      <g>
       <use xlink:href="#me364da90d0" x="181.611449" y="699.617713" style="stroke: #000000; stroke-width: 0.8"/>
      </g>
     </g>
     <g id="text_2">
      <!-- −52.50 -->
      <g transform="translate(170.478384 738.159095) rotate(-45) scale(0.1 -0.1)">
       <defs>
        <path id="DejaVuSans-30" d="M 2034 4250 
Q 1547 4250 1301 3770 
Q 1056 3291 1056 2328 
Q 1056 1369 1301 889 
Q 1547 409 2034 409 
Q 2525 409 2770 889 
Q 3016 1369 3016 2328 
Q 3016 3291 2770 3770 
Q 2525 4250 2034 4250 
z
M 2034 4750 
Q 2819 4750 3233 4129 
Q 3647 3509 3647 2328 
Q 3647 1150 3233 529 
Q 2819 -91 2034 -91 
Q 1250 -91 836 529 
Q 422 1150 422 2328 
Q 422 3509 836 4129 
Q 1250 4750 2034 4750 
z
" transform="scale(0.015625)"/>
       </defs>
       <use xlink:href="#DejaVuSans-2212"/>
       <use xlink:href="#DejaVuSans-35" transform="translate(83.789062 0)"/>
       <use xlink:href="#DejaVuSans-32" transform="translate(147.412109 0)"/>
       <use xlink:href="#DejaVuSans-2e" transform="translate(211.035156 0)"/>
       <use xlink:href="#DejaVuSans-35" transform="translate(242.822266 0)"/>
       <use xlink:href="#DejaVuSans-30" transform="translate(306.445312 0)"/>
      </g>
     </g>
    </g>
    <g id="xtick_3">
     <g id="line2d_5">
      <path d="M 245.031792 699.617713 
L 245.031792 173.022287 
" clip-path="url(#pc5e6afca96)" style="fill: none; stroke: #b0b0b0; stroke-width: 0.8; stroke-linecap: square"/>
     </g>
     <g id="line2d_6">
      <g>
       <use xlink:href="#me364da90d0" x="245.031792" y="699.617713" style="stroke: #000000; stroke-width: 0.8"/>
      </g>
     </g>
     <g id="text_3">
      <!-- −52.49 -->
      <g transform="translate(233.898727 738.159095) rotate(-45) scale(0.1 -0.1)">
       <defs>
        <path id="DejaVuSans-34" d="M 2419 4116 
L 825 1625 
L 2419 1625 
L 2419 4116 
z
M 2253 4666 
L 3047 4666 
L 3047 1625 
L 3713 1625 
L 3713 1100 
L 3047 1100 
L 3047 0 
L 2419 0 
L 2419 1100 
L 313 1100 
L 313 1709 
L 2253 4666 
z
" transform="scale(0.015625)"/>
        <path id="DejaVuSans-39" d="M 703 97 
L 703 672 
Q 941 559 1184 500 
Q 1428 441 1663 441 
Q 2288 441 2617 861 
Q 2947 1281 2994 2138 
Q 2813 1869 2534 1725 
Q 2256 1581 1919 1581 
Q 1219 1581 811 2004 
Q 403 2428 403 3163 
Q 403 3881 828 4315 
Q 1253 4750 1959 4750 
Q 2769 4750 3195 4129 
Q 3622 3509 3622 2328 
Q 3622 1225 3098 567 
Q 2575 -91 1691 -91 
Q 1453 -91 1209 -44 
Q 966 3 703 97 
z
M 1959 2075 
Q 2384 2075 2632 2365 
Q 2881 2656 2881 3163 
Q 2881 3666 2632 3958 
Q 2384 4250 1959 4250 
Q 1534 4250 1286 3958 
Q 1038 3666 1038 3163 
Q 1038 2656 1286 2365 
Q 1534 2075 1959 2075 
z
" transform="scale(0.015625)"/>
       </defs>
       <use xlink:href="#DejaVuSans-2212"/>
       <use xlink:href="#DejaVuSans-35" transform="translate(83.789062 0)"/>
       <use xlink:href="#DejaVuSans-32" transform="translate(147.412109 0)"/>
       <use xlink:href="#DejaVuSans-2e" transform="translate(211.035156 0)"/>
       <use xlink:href="#DejaVuSans-34" transform="translate(242.822266 0)"/>
       <use xlink:href="#DejaVuSans-39" transform="translate(306.445312 0)"/>
      </g>
     </g>
    </g>
    <g id="xtick_4">
     <g id="line2d_7">
      <path d="M 308.452135 699.617713 
L 308.452135 173.022287 
" clip-path="url(#pc5e6afca96)" style="fill: none; stroke: #b0b0b0; stroke-width: 0.8; stroke-linecap: square"/>
     </g>
     <g id="line2d_8">
      <g>
       <use xlink:href="#me364da90d0" x="308.452135" y="699.617713" style="stroke: #000000; stroke-width: 0.8"/>
      </g>
     </g>
     <g id="text_4">
      <!-- −52.48 -->
      <g transform="translate(297.31907 738.159095) rotate(-45) scale(0.1 -0.1)">
       <defs>
        <path id="DejaVuSans-38" d="M 2034 2216 
Q 1584 2216 1326 1975 
Q 1069 1734 1069 1313 
Q 1069 891 1326 650 
Q 1584 409 2034 409 
Q 2484 409 2743 651 
Q 3003 894 3003 1313 
Q 3003 1734 2745 1975 
Q 2488 2216 2034 2216 
z
M 1403 2484 
Q 997 2584 770 2862 
Q 544 3141 544 3541 
Q 544 4100 942 4425 
Q 1341 4750 2034 4750 
Q 2731 4750 3128 4425 
Q 3525 4100 3525 3541 
Q 3525 3141 3298 2862 
Q 3072 2584 2669 2484 
Q 3125 2378 3379 2068 
Q 3634 1759 3634 1313 
Q 3634 634 3220 271 
Q 2806 -91 2034 -91 
Q 1263 -91 848 271 
Q 434 634 434 1313 
Q 434 1759 690 2068 
Q 947 2378 1403 2484 
z
M 1172 3481 
Q 1172 3119 1398 2916 
Q 1625 2713 2034 2713 
Q 2441 2713 2670 2916 
Q 2900 3119 2900 3481 
Q 2900 3844 2670 4047 
Q 2441 4250 2034 4250 
Q 1625 4250 1398 4047 
Q 1172 3844 1172 3481 
z
" transform="scale(0.015625)"/>
       </defs>
       <use xlink:href="#DejaVuSans-2212"/>
       <use xlink:href="#DejaVuSans-35" transform="translate(83.789062 0)"/>
       <use xlink:href="#DejaVuSans-32" transform="translate(147.412109 0)"/>
       <use xlink:href="#DejaVuSans-2e" transform="translate(211.035156 0)"/>
       <use xlink:href="#DejaVuSans-34" transform="translate(242.822266 0)"/>
       <use xlink:href="#DejaVuSans-38" transform="translate(306.445312 0)"/>
      </g>
     </g>
    </g>
    <g id="xtick_5">
     <g id="line2d_9">
      <path d="M 371.872478 699.617713 
L 371.872478 173.022287 
" clip-path="url(#pc5e6afca96)" style="fill: none; stroke: #b0b0b0; stroke-width: 0.8; stroke-linecap: square"/>
     </g>
     <g id="line2d_10">
      <g>
       <use xlink:href="#me364da90d0" x="371.872478" y="699.617713" style="stroke: #000000; stroke-width: 0.8"/>
      </g>
     </g>
     <g id="text_5">
      <!-- −52.47 -->
      <g transform="translate(360.739413 738.159095) rotate(-45) scale(0.1 -0.1)">
       <defs>
        <path id="DejaVuSans-37" d="M 525 4666 
L 3525 4666 
L 3525 4397 
L 1831 0 
L 1172 0 
L 2766 4134 
L 525 4134 
L 525 4666 
z
" transform="scale(0.015625)"/>
       </defs>
       <use xlink:href="#DejaVuSans-2212"/>
       <use xlink:href="#DejaVuSans-35" transform="translate(83.789062 0)"/>
       <use xlink:href="#DejaVuSans-32" transform="translate(147.412109 0)"/>
       <use xlink:href="#DejaVuSans-2e" transform="translate(211.035156 0)"/>
       <use xlink:href="#DejaVuSans-34" transform="translate(242.822266 0)"/>
       <use xlink:href="#DejaVuSans-37" transform="translate(306.445312 0)"/>
      </g>
     </g>
    </g>
    <g id="xtick_6">
     <g id="line2d_11">
      <path d="M 435.292821 699.617713 
L 435.292821 173.022287 
" clip-path="url(#pc5e6afca96)" style="fill: none; stroke: #b0b0b0; stroke-width: 0.8; stroke-linecap: square"/>
     </g>
     <g id="line2d_12">
      <g>
       <use xlink:href="#me364da90d0" x="435.292821" y="699.617713" style="stroke: #000000; stroke-width: 0.8"/>
      </g>
     </g>
     <g id="text_6">
      <!-- −52.46 -->
      <g transform="translate(424.159756 738.159095) rotate(-45) scale(0.1 -0.1)">
       <defs>
        <path id="DejaVuSans-36" d="M 2113 2584 
Q 1688 2584 1439 2293 
Q 1191 2003 1191 1497 
Q 1191 994 1439 701 
Q 1688 409 2113 409 
Q 2538 409 2786 701 
Q 3034 994 3034 1497 
Q 3034 2003 2786 2293 
Q 2538 2584 2113 2584 
z
M 3366 4563 
L 3366 3988 
Q 3128 4100 2886 4159 
Q 2644 4219 2406 4219 
Q 1781 4219 1451 3797 
Q 1122 3375 1075 2522 
Q 1259 2794 1537 2939 
Q 1816 3084 2150 3084 
Q 2853 3084 3261 2657 
Q 3669 2231 3669 1497 
Q 3669 778 3244 343 
Q 2819 -91 2113 -91 
Q 1303 -91 875 529 
Q 447 1150 447 2328 
Q 447 3434 972 4092 
Q 1497 4750 2381 4750 
Q 2619 4750 2861 4703 
Q 3103 4656 3366 4563 
z
" transform="scale(0.015625)"/>
       </defs>
       <use xlink:href="#DejaVuSans-2212"/>
       <use xlink:href="#DejaVuSans-35" transform="translate(83.789062 0)"/>
       <use xlink:href="#DejaVuSans-32" transform="translate(147.412109 0)"/>
       <use xlink:href="#DejaVuSans-2e" transform="translate(211.035156 0)"/>
       <use xlink:href="#DejaVuSans-34" transform="translate(242.822266 0)"/>
       <use xlink:href="#DejaVuSans-36" transform="translate(306.445312 0)"/>
      </g>
     </g>
    </g>
    <g id="xtick_7">
     <g id="line2d_13">
      <path d="M 498.713164 699.617713 
L 498.713164 173.022287 
" clip-path="url(#pc5e6afca96)" style="fill: none; stroke: #b0b0b0; stroke-width: 0.8; stroke-linecap: square"/>
     </g>
     <g id="line2d_14">
      <g>
       <use xlink:href="#me364da90d0" x="498.713164" y="699.617713" style="stroke: #000000; stroke-width: 0.8"/>
      </g>
     </g>
     <g id="text_7">
      <!-- −52.45 -->
      <g transform="translate(487.5801 738.159095) rotate(-45) scale(0.1 -0.1)">
       <use xlink:href="#DejaVuSans-2212"/>
       <use xlink:href="#DejaVuSans-35" transform="translate(83.789062 0)"/>
       <use xlink:href="#DejaVuSans-32" transform="translate(147.412109 0)"/>
       <use xlink:href="#DejaVuSans-2e" transform="translate(211.035156 0)"/>
       <use xlink:href="#DejaVuSans-34" transform="translate(242.822266 0)"/>
       <use xlink:href="#DejaVuSans-35" transform="translate(306.445312 0)"/>
      </g>
     </g>
    </g>
    <g id="xtick_8">
     <g id="line2d_15">
      <path d="M 562.133507 699.617713 
L 562.133507 173.022287 
" clip-path="url(#pc5e6afca96)" style="fill: none; stroke: #b0b0b0; stroke-width: 0.8; stroke-linecap: square"/>
     </g>
     <g id="line2d_16">
      <g>
       <use xlink:href="#me364da90d0" x="562.133507" y="699.617713" style="stroke: #000000; stroke-width: 0.8"/>
      </g>
     </g>
     <g id="text_8">
      <!-- −52.44 -->
      <g transform="translate(551.000443 738.159095) rotate(-45) scale(0.1 -0.1)">
       <use xlink:href="#DejaVuSans-2212"/>
       <use xlink:href="#DejaVuSans-35" transform="translate(83.789062 0)"/>
       <use xlink:href="#DejaVuSans-32" transform="translate(147.412109 0)"/>
       <use xlink:href="#DejaVuSans-2e" transform="translate(211.035156 0)"/>
       <use xlink:href="#DejaVuSans-34" transform="translate(242.822266 0)"/>
       <use xlink:href="#DejaVuSans-34" transform="translate(306.445312 0)"/>
      </g>
     </g>
    </g>
    <g id="xtick_9">
     <g id="line2d_17">
      <path d="M 625.553851 699.617713 
L 625.553851 173.022287 
" clip-path="url(#pc5e6afca96)" style="fill: none; stroke: #b0b0b0; stroke-width: 0.8; stroke-linecap: square"/>
     </g>
     <g id="line2d_18">
      <g>
       <use xlink:href="#me364da90d0" x="625.553851" y="699.617713" style="stroke: #000000; stroke-width: 0.8"/>
      </g>
     </g>
     <g id="text_9">
      <!-- −52.43 -->
      <g transform="translate(614.420786 738.159095) rotate(-45) scale(0.1 -0.1)">
       <defs>
        <path id="DejaVuSans-33" d="M 2597 2516 
Q 3050 2419 3304 2112 
Q 3559 1806 3559 1356 
Q 3559 666 3084 287 
Q 2609 -91 1734 -91 
Q 1441 -91 1130 -33 
Q 819 25 488 141 
L 488 750 
Q 750 597 1062 519 
Q 1375 441 1716 441 
Q 2309 441 2620 675 
Q 2931 909 2931 1356 
Q 2931 1769 2642 2001 
Q 2353 2234 1838 2234 
L 1294 2234 
L 1294 2753 
L 1863 2753 
Q 2328 2753 2575 2939 
Q 2822 3125 2822 3475 
Q 2822 3834 2567 4026 
Q 2313 4219 1838 4219 
Q 1578 4219 1281 4162 
Q 984 4106 628 3988 
L 628 4550 
Q 988 4650 1302 4700 
Q 1616 4750 1894 4750 
Q 2613 4750 3031 4423 
Q 3450 4097 3450 3541 
Q 3450 3153 3228 2886 
Q 3006 2619 2597 2516 
z
" transform="scale(0.015625)"/>
       </defs>
       <use xlink:href="#DejaVuSans-2212"/>
       <use xlink:href="#DejaVuSans-35" transform="translate(83.789062 0)"/>
       <use xlink:href="#DejaVuSans-32" transform="translate(147.412109 0)"/>
       <use xlink:href="#DejaVuSans-2e" transform="translate(211.035156 0)"/>
       <use xlink:href="#DejaVuSans-34" transform="translate(242.822266 0)"/>
       <use xlink:href="#DejaVuSans-33" transform="translate(306.445312 0)"/>
      </g>
     </g>
    </g>
    <g id="text_10">
     <!-- Longitude (°) -->
     <g transform="translate(336.139844 751.228094) scale(0.1 -0.1)">
      <defs>
       <path id="DejaVuSans-4c" d="M 628 4666 
L 1259 4666 
L 1259 531 
L 3531 531 
L 3531 0 
L 628 0 
L 628 4666 
z
" transform="scale(0.015625)"/>
       <path id="DejaVuSans-6f" d="M 1959 3097 
Q 1497 3097 1228 2736 
Q 959 2375 959 1747 
Q 959 1119 1226 758 
Q 1494 397 1959 397 
Q 2419 397 2687 759 
Q 2956 1122 2956 1747 
Q 2956 2369 2687 2733 
Q 2419 3097 1959 3097 
z
M 1959 3584 
Q 2709 3584 3137 3096 
Q 3566 2609 3566 1747 
Q 3566 888 3137 398 
Q 2709 -91 1959 -91 
Q 1206 -91 779 398 
Q 353 888 353 1747 
Q 353 2609 779 3096 
Q 1206 3584 1959 3584 
z
" transform="scale(0.015625)"/>
       <path id="DejaVuSans-6e" d="M 3513 2113 
L 3513 0 
L 2938 0 
L 2938 2094 
Q 2938 2591 2744 2837 
Q 2550 3084 2163 3084 
Q 1697 3084 1428 2787 
Q 1159 2491 1159 1978 
L 1159 0 
L 581 0 
L 581 3500 
L 1159 3500 
L 1159 2956 
Q 1366 3272 1645 3428 
Q 1925 3584 2291 3584 
Q 2894 3584 3203 3211 
Q 3513 2838 3513 2113 
z
" transform="scale(0.015625)"/>
       <path id="DejaVuSans-67" d="M 2906 1791 
Q 2906 2416 2648 2759 
Q 2391 3103 1925 3103 
Q 1463 3103 1205 2759 
Q 947 2416 947 1791 
Q 947 1169 1205 825 
Q 1463 481 1925 481 
Q 2391 481 2648 825 
Q 2906 1169 2906 1791 
z
M 3481 434 
Q 3481 -459 3084 -895 
Q 2688 -1331 1869 -1331 
Q 1566 -1331 1297 -1286 
Q 1028 -1241 775 -1147 
L 775 -588 
Q 1028 -725 1275 -790 
Q 1522 -856 1778 -856 
Q 2344 -856 2625 -561 
Q 2906 -266 2906 331 
L 2906 616 
Q 2728 306 2450 153 
Q 2172 0 1784 0 
Q 1141 0 747 490 
Q 353 981 353 1791 
Q 353 2603 747 3093 
Q 1141 3584 1784 3584 
Q 2172 3584 2450 3431 
Q 2728 3278 2906 2969 
L 2906 3500 
L 3481 3500 
L 3481 434 
z
" transform="scale(0.015625)"/>
       <path id="DejaVuSans-69" d="M 603 3500 
L 1178 3500 
L 1178 0 
L 603 0 
L 603 3500 
z
M 603 4863 
L 1178 4863 
L 1178 4134 
L 603 4134 
L 603 4863 
z
" transform="scale(0.015625)"/>
       <path id="DejaVuSans-74" d="M 1172 4494 
L 1172 3500 
L 2356 3500 
L 2356 3053 
L 1172 3053 
L 1172 1153 
Q 1172 725 1289 603 
Q 1406 481 1766 481 
L 2356 481 
L 2356 0 
L 1766 0 
Q 1100 0 847 248 
Q 594 497 594 1153 
L 594 3053 
L 172 3053 
L 172 3500 
L 594 3500 
L 594 4494 
L 1172 4494 
z
" transform="scale(0.015625)"/>
       <path id="DejaVuSans-75" d="M 544 1381 
L 544 3500 
L 1119 3500 
L 1119 1403 
Q 1119 906 1312 657 
Q 1506 409 1894 409 
Q 2359 409 2629 706 
Q 2900 1003 2900 1516 
L 2900 3500 
L 3475 3500 
L 3475 0 
L 2900 0 
L 2900 538 
Q 2691 219 2414 64 
Q 2138 -91 1772 -91 
Q 1169 -91 856 284 
Q 544 659 544 1381 
z
M 1991 3584 
L 1991 3584 
z
" transform="scale(0.015625)"/>
       <path id="DejaVuSans-64" d="M 2906 2969 
L 2906 4863 
L 3481 4863 
L 3481 0 
L 2906 0 
L 2906 525 
Q 2725 213 2448 61 
Q 2172 -91 1784 -91 
Q 1150 -91 751 415 
Q 353 922 353 1747 
Q 353 2572 751 3078 
Q 1150 3584 1784 3584 
Q 2172 3584 2448 3432 
Q 2725 3281 2906 2969 
z
M 947 1747 
Q 947 1113 1208 752 
Q 1469 391 1925 391 
Q 2381 391 2643 752 
Q 2906 1113 2906 1747 
Q 2906 2381 2643 2742 
Q 2381 3103 1925 3103 
Q 1469 3103 1208 2742 
Q 947 2381 947 1747 
z
" transform="scale(0.015625)"/>
       <path id="DejaVuSans-65" d="M 3597 1894 
L 3597 1613 
L 953 1613 
Q 991 1019 1311 708 
Q 1631 397 2203 397 
Q 2534 397 2845 478 
Q 3156 559 3463 722 
L 3463 178 
Q 3153 47 2828 -22 
Q 2503 -91 2169 -91 
Q 1331 -91 842 396 
Q 353 884 353 1716 
Q 353 2575 817 3079 
Q 1281 3584 2069 3584 
Q 2775 3584 3186 3129 
Q 3597 2675 3597 1894 
z
M 3022 2063 
Q 3016 2534 2758 2815 
Q 2500 3097 2075 3097 
Q 1594 3097 1305 2825 
Q 1016 2553 972 2059 
L 3022 2063 
z
" transform="scale(0.015625)"/>
       <path id="DejaVuSans-20" transform="scale(0.015625)"/>
       <path id="DejaVuSans-28" d="M 1984 4856 
Q 1566 4138 1362 3434 
Q 1159 2731 1159 2009 
Q 1159 1288 1364 580 
Q 1569 -128 1984 -844 
L 1484 -844 
Q 1016 -109 783 600 
Q 550 1309 550 2009 
Q 550 2706 781 3412 
Q 1013 4119 1484 4856 
L 1984 4856 
z
" transform="scale(0.015625)"/>
       <path id="DejaVuSans-b0" d="M 1600 4347 
Q 1350 4347 1178 4173 
Q 1006 4000 1006 3750 
Q 1006 3503 1178 3333 
Q 1350 3163 1600 3163 
Q 1850 3163 2022 3333 
Q 2194 3503 2194 3750 
Q 2194 3997 2020 4172 
Q 1847 4347 1600 4347 
z
M 1600 4750 
Q 1800 4750 1984 4673 
Q 2169 4597 2303 4453 
Q 2447 4313 2519 4134 
Q 2591 3956 2591 3750 
Q 2591 3338 2302 3052 
Q 2013 2766 1594 2766 
Q 1172 2766 890 3047 
Q 609 3328 609 3750 
Q 609 4169 896 4459 
Q 1184 4750 1600 4750 
z
" transform="scale(0.015625)"/>
       <path id="DejaVuSans-29" d="M 513 4856 
L 1013 4856 
Q 1481 4119 1714 3412 
Q 1947 2706 1947 2009 
Q 1947 1309 1714 600 
Q 1481 -109 1013 -844 
L 513 -844 
Q 928 -128 1133 580 
Q 1338 1288 1338 2009 
Q 1338 2731 1133 3434 
Q 928 4138 513 4856 
z
" transform="scale(0.015625)"/>
      </defs>
      <use xlink:href="#DejaVuSans-4c"/>
      <use xlink:href="#DejaVuSans-6f" transform="translate(53.962891 0)"/>
      <use xlink:href="#DejaVuSans-6e" transform="translate(115.144531 0)"/>
      <use xlink:href="#DejaVuSans-67" transform="translate(178.523438 0)"/>
      <use xlink:href="#DejaVuSans-69" transform="translate(242 0)"/>
      <use xlink:href="#DejaVuSans-74" transform="translate(269.783203 0)"/>
      <use xlink:href="#DejaVuSans-75" transform="translate(308.992188 0)"/>
      <use xlink:href="#DejaVuSans-64" transform="translate(372.371094 0)"/>
      <use xlink:href="#DejaVuSans-65" transform="translate(435.847656 0)"/>
      <use xlink:href="#DejaVuSans-20" transform="translate(497.371094 0)"/>
      <use xlink:href="#DejaVuSans-28" transform="translate(529.158203 0)"/>
      <use xlink:href="#DejaVuSans-b0" transform="translate(568.171875 0)"/>
      <use xlink:href="#DejaVuSans-29" transform="translate(618.171875 0)"/>
     </g>
    </g>
   </g>
   <g id="matplotlib.axis_2">
    <g id="ytick_1">
     <g id="line2d_19">
      <path d="M 90 679.87188 
L 648 679.87188 
" clip-path="url(#pc5e6afca96)" style="fill: none; stroke: #b0b0b0; stroke-width: 0.8; stroke-linecap: square"/>
     </g>
     <g id="line2d_20">
      <defs>
       <path id="mb3cda6f6a2" d="M 0 0 
L -3.5 0 
" style="stroke: #000000; stroke-width: 0.8"/>
      </defs>
      <g>
       <use xlink:href="#mb3cda6f6a2" x="90" y="679.87188" style="stroke: #000000; stroke-width: 0.8"/>
      </g>
     </g>
     <g id="text_11">
      <!-- −15.80 -->
      <g transform="translate(45.992188 683.671098) scale(0.1 -0.1)">
       <use xlink:href="#DejaVuSans-2212"/>
       <use xlink:href="#DejaVuSans-31" transform="translate(83.789062 0)"/>
       <use xlink:href="#DejaVuSans-35" transform="translate(147.412109 0)"/>
       <use xlink:href="#DejaVuSans-2e" transform="translate(211.035156 0)"/>
       <use xlink:href="#DejaVuSans-38" transform="translate(242.822266 0)"/>
       <use xlink:href="#DejaVuSans-30" transform="translate(306.445312 0)"/>
      </g>
     </g>
    </g>
    <g id="ytick_2">
     <g id="line2d_21">
      <path d="M 90 613.967985 
L 648 613.967985 
" clip-path="url(#pc5e6afca96)" style="fill: none; stroke: #b0b0b0; stroke-width: 0.8; stroke-linecap: square"/>
     </g>
     <g id="line2d_22">
      <g>
       <use xlink:href="#mb3cda6f6a2" x="90" y="613.967985" style="stroke: #000000; stroke-width: 0.8"/>
      </g>
     </g>
     <g id="text_12">
      <!-- −15.79 -->
      <g transform="translate(45.992188 617.767203) scale(0.1 -0.1)">
       <use xlink:href="#DejaVuSans-2212"/>
       <use xlink:href="#DejaVuSans-31" transform="translate(83.789062 0)"/>
       <use xlink:href="#DejaVuSans-35" transform="translate(147.412109 0)"/>
       <use xlink:href="#DejaVuSans-2e" transform="translate(211.035156 0)"/>
       <use xlink:href="#DejaVuSans-37" transform="translate(242.822266 0)"/>
       <use xlink:href="#DejaVuSans-39" transform="translate(306.445312 0)"/>
      </g>
     </g>
    </g>
    <g id="ytick_3">
     <g id="line2d_23">
      <path d="M 90 548.064089 
L 648 548.064089 
" clip-path="url(#pc5e6afca96)" style="fill: none; stroke: #b0b0b0; stroke-width: 0.8; stroke-linecap: square"/>
     </g>
     <g id="line2d_24">
      <g>
       <use xlink:href="#mb3cda6f6a2" x="90" y="548.064089" style="stroke: #000000; stroke-width: 0.8"/>
      </g>
     </g>
     <g id="text_13">
      <!-- −15.78 -->
      <g transform="translate(45.992188 551.863308) scale(0.1 -0.1)">
       <use xlink:href="#DejaVuSans-2212"/>
       <use xlink:href="#DejaVuSans-31" transform="translate(83.789062 0)"/>
       <use xlink:href="#DejaVuSans-35" transform="translate(147.412109 0)"/>
       <use xlink:href="#DejaVuSans-2e" transform="translate(211.035156 0)"/>
       <use xlink:href="#DejaVuSans-37" transform="translate(242.822266 0)"/>
       <use xlink:href="#DejaVuSans-38" transform="translate(306.445312 0)"/>
      </g>
     </g>
    </g>
    <g id="ytick_4">
     <g id="line2d_25">
      <path d="M 90 482.160194 
L 648 482.160194 
" clip-path="url(#pc5e6afca96)" style="fill: none; stroke: #b0b0b0; stroke-width: 0.8; stroke-linecap: square"/>
     </g>
     <g id="line2d_26">
      <g>
       <use xlink:href="#mb3cda6f6a2" x="90" y="482.160194" style="stroke: #000000; stroke-width: 0.8"/>
      </g>
     </g>
     <g id="text_14">
      <!-- −15.77 -->
      <g transform="translate(45.992188 485.959413) scale(0.1 -0.1)">
       <use xlink:href="#DejaVuSans-2212"/>
       <use xlink:href="#DejaVuSans-31" transform="translate(83.789062 0)"/>
       <use xlink:href="#DejaVuSans-35" transform="translate(147.412109 0)"/>
       <use xlink:href="#DejaVuSans-2e" transform="translate(211.035156 0)"/>
       <use xlink:href="#DejaVuSans-37" transform="translate(242.822266 0)"/>
       <use xlink:href="#DejaVuSans-37" transform="translate(306.445312 0)"/>
      </g>
     </g>
    </g>
    <g id="ytick_5">
     <g id="line2d_27">
      <path d="M 90 416.256299 
L 648 416.256299 
" clip-path="url(#pc5e6afca96)" style="fill: none; stroke: #b0b0b0; stroke-width: 0.8; stroke-linecap: square"/>
     </g>
     <g id="line2d_28">
      <g>
       <use xlink:href="#mb3cda6f6a2" x="90" y="416.256299" style="stroke: #000000; stroke-width: 0.8"/>
      </g>
     </g>
     <g id="text_15">
      <!-- −15.76 -->
      <g transform="translate(45.992188 420.055518) scale(0.1 -0.1)">
       <use xlink:href="#DejaVuSans-2212"/>
       <use xlink:href="#DejaVuSans-31" transform="translate(83.789062 0)"/>
       <use xlink:href="#DejaVuSans-35" transform="translate(147.412109 0)"/>
       <use xlink:href="#DejaVuSans-2e" transform="translate(211.035156 0)"/>
       <use xlink:href="#DejaVuSans-37" transform="translate(242.822266 0)"/>
       <use xlink:href="#DejaVuSans-36" transform="translate(306.445312 0)"/>
      </g>
     </g>
    </g>
    <g id="ytick_6">
     <g id="line2d_29">
      <path d="M 90 350.352404 
L 648 350.352404 
" clip-path="url(#pc5e6afca96)" style="fill: none; stroke: #b0b0b0; stroke-width: 0.8; stroke-linecap: square"/>
     </g>
     <g id="line2d_30">
      <g>
       <use xlink:href="#mb3cda6f6a2" x="90" y="350.352404" style="stroke: #000000; stroke-width: 0.8"/>
      </g>
     </g>
     <g id="text_16">
      <!-- −15.75 -->
      <g transform="translate(45.992188 354.151623) scale(0.1 -0.1)">
       <use xlink:href="#DejaVuSans-2212"/>
       <use xlink:href="#DejaVuSans-31" transform="translate(83.789062 0)"/>
       <use xlink:href="#DejaVuSans-35" transform="translate(147.412109 0)"/>
       <use xlink:href="#DejaVuSans-2e" transform="translate(211.035156 0)"/>
       <use xlink:href="#DejaVuSans-37" transform="translate(242.822266 0)"/>
       <use xlink:href="#DejaVuSans-35" transform="translate(306.445312 0)"/>
      </g>
     </g>
    </g>
    <g id="ytick_7">
     <g id="line2d_31">
      <path d="M 90 284.448509 
L 648 284.448509 
" clip-path="url(#pc5e6afca96)" style="fill: none; stroke: #b0b0b0; stroke-width: 0.8; stroke-linecap: square"/>
     </g>
     <g id="line2d_32">
      <g>
       <use xlink:href="#mb3cda6f6a2" x="90" y="284.448509" style="stroke: #000000; stroke-width: 0.8"/>
      </g>
     </g>
     <g id="text_17">
      <!-- −15.74 -->
      <g transform="translate(45.992188 288.247728) scale(0.1 -0.1)">
       <use xlink:href="#DejaVuSans-2212"/>
       <use xlink:href="#DejaVuSans-31" transform="translate(83.789062 0)"/>
       <use xlink:href="#DejaVuSans-35" transform="translate(147.412109 0)"/>
       <use xlink:href="#DejaVuSans-2e" transform="translate(211.035156 0)"/>
       <use xlink:href="#DejaVuSans-37" transform="translate(242.822266 0)"/>
       <use xlink:href="#DejaVuSans-34" transform="translate(306.445312 0)"/>
      </g>
     </g>
    </g>
    <g id="ytick_8">
     <g id="line2d_33">
      <path d="M 90 218.544614 
L 648 218.544614 
" clip-path="url(#pc5e6afca96)" style="fill: none; stroke: #b0b0b0; stroke-width: 0.8; stroke-linecap: square"/>
     </g>
     <g id="line2d_34">
      <g>
       <use xlink:href="#mb3cda6f6a2" x="90" y="218.544614" style="stroke: #000000; stroke-width: 0.8"/>
      </g>
     </g>
     <g id="text_18">
      <!-- −15.73 -->
      <g transform="translate(45.992188 222.343833) scale(0.1 -0.1)">
       <use xlink:href="#DejaVuSans-2212"/>
       <use xlink:href="#DejaVuSans-31" transform="translate(83.789062 0)"/>
       <use xlink:href="#DejaVuSans-35" transform="translate(147.412109 0)"/>
       <use xlink:href="#DejaVuSans-2e" transform="translate(211.035156 0)"/>
       <use xlink:href="#DejaVuSans-37" transform="translate(242.822266 0)"/>
       <use xlink:href="#DejaVuSans-33" transform="translate(306.445312 0)"/>
      </g>
     </g>
    </g>
    <g id="text_19">
     <!-- Latitude (°) -->
     <g transform="translate(39.9125 464.889531) rotate(-90) scale(0.1 -0.1)">
      <defs>
       <path id="DejaVuSans-61" d="M 2194 1759 
Q 1497 1759 1228 1600 
Q 959 1441 959 1056 
Q 959 750 1161 570 
Q 1363 391 1709 391 
Q 2188 391 2477 730 
Q 2766 1069 2766 1631 
L 2766 1759 
L 2194 1759 
z
M 3341 1997 
L 3341 0 
L 2766 0 
L 2766 531 
Q 2569 213 2275 61 
Q 1981 -91 1556 -91 
Q 1019 -91 701 211 
Q 384 513 384 1019 
Q 384 1609 779 1909 
Q 1175 2209 1959 2209 
L 2766 2209 
L 2766 2266 
Q 2766 2663 2505 2880 
Q 2244 3097 1772 3097 
Q 1472 3097 1187 3025 
Q 903 2953 641 2809 
L 641 3341 
Q 956 3463 1253 3523 
Q 1550 3584 1831 3584 
Q 2591 3584 2966 3190 
Q 3341 2797 3341 1997 
z
" transform="scale(0.015625)"/>
      </defs>
      <use xlink:href="#DejaVuSans-4c"/>
      <use xlink:href="#DejaVuSans-61" transform="translate(55.712891 0)"/>
      <use xlink:href="#DejaVuSans-74" transform="translate(116.992188 0)"/>
      <use xlink:href="#DejaVuSans-69" transform="translate(156.201172 0)"/>
      <use xlink:href="#DejaVuSans-74" transform="translate(183.984375 0)"/>
      <use xlink:href="#DejaVuSans-75" transform="translate(223.193359 0)"/>
      <use xlink:href="#DejaVuSans-64" transform="translate(286.572266 0)"/>
      <use xlink:href="#DejaVuSans-65" transform="translate(350.048828 0)"/>
      <use xlink:href="#DejaVuSans-20" transform="translate(411.572266 0)"/>
      <use xlink:href="#DejaVuSans-28" transform="translate(443.359375 0)"/>
      <use xlink:href="#DejaVuSans-b0" transform="translate(482.373047 0)"/>
      <use xlink:href="#DejaVuSans-29" transform="translate(532.373047 0)"/>
     </g>
    </g>
   </g>
   <g id="patch_3">
    <path d="M 90 699.617713 
L 90 173.022287 
" style="fill: none; stroke: #000000; stroke-width: 0.8; stroke-linejoin: miter; stroke-linecap: square"/>
   </g>
   <g id="patch_4">
    <path d="M 648 699.617713 
L 648 173.022287 
" style="fill: none; stroke: #000000; stroke-width: 0.8; stroke-linejoin: miter; stroke-linecap: square"/>
   </g>
   <g id="patch_5">
    <path d="M 90 699.617713 
L 648 699.617713 
" style="fill: none; stroke: #000000; stroke-width: 0.8; stroke-linejoin: miter; stroke-linecap: square"/>
   </g>
   <g id="patch_6">
    <path d="M 90 173.022287 
L 648 173.022287 
" style="fill: none; stroke: #000000; stroke-width: 0.8; stroke-linejoin: miter; stroke-linecap: square"/>
   </g>
   <g id="legend_1">
    <g id="patch_7">
     <path d="M 279.8375 844.228673 
L 458.1625 844.228673 
Q 460.1625 844.228673 460.1625 842.228673 
L 460.1625 811.936798 
Q 460.1625 809.936798 458.1625 809.936798 
L 279.8375 809.936798 
Q 277.8375 809.936798 277.8375 811.936798 
L 277.8375 842.228673 
Q 277.8375 844.228673 279.8375 844.228673 
z
" style="fill: #ffffff; opacity: 0.8; stroke: #cccccc; stroke-linejoin: miter"/>
    </g>
    <g id="text_20">
     <!-- Legenda -->
     <g transform="translate(343.280625 823.054923) scale(0.12 -0.12)">
      <use xlink:href="#DejaVuSans-4c"/>
      <use xlink:href="#DejaVuSans-65" transform="translate(53.962891 0)"/>
      <use xlink:href="#DejaVuSans-67" transform="translate(115.486328 0)"/>
      <use xlink:href="#DejaVuSans-65" transform="translate(178.962891 0)"/>
      <use xlink:href="#DejaVuSans-6e" transform="translate(240.486328 0)"/>
      <use xlink:href="#DejaVuSans-64" transform="translate(303.865234 0)"/>
      <use xlink:href="#DejaVuSans-61" transform="translate(367.341797 0)"/>
     </g>
    </g>
    <g id="patch_8">
     <path d="M 281.8375 838.148986 
L 301.8375 838.148986 
L 301.8375 831.148986 
L 281.8375 831.148986 
L 281.8375 838.148986 
z
" style="fill: none; stroke: #000000; stroke-linejoin: miter"/>
    </g>
    <g id="text_21">
     <!-- Gleba Federal -->
     <g transform="translate(309.8375 838.148986) scale(0.1 -0.1)">
      <defs>
       <path id="DejaVuSans-47" d="M 3809 666 
L 3809 1919 
L 2778 1919 
L 2778 2438 
L 4434 2438 
L 4434 434 
Q 4069 175 3628 42 
Q 3188 -91 2688 -91 
Q 1594 -91 976 548 
Q 359 1188 359 2328 
Q 359 3472 976 4111 
Q 1594 4750 2688 4750 
Q 3144 4750 3555 4637 
Q 3966 4525 4313 4306 
L 4313 3634 
Q 3963 3931 3569 4081 
Q 3175 4231 2741 4231 
Q 1884 4231 1454 3753 
Q 1025 3275 1025 2328 
Q 1025 1384 1454 906 
Q 1884 428 2741 428 
Q 3075 428 3337 486 
Q 3600 544 3809 666 
z
" transform="scale(0.015625)"/>
       <path id="DejaVuSans-6c" d="M 603 4863 
L 1178 4863 
L 1178 0 
L 603 0 
L 603 4863 
z
" transform="scale(0.015625)"/>
       <path id="DejaVuSans-62" d="M 3116 1747 
Q 3116 2381 2855 2742 
Q 2594 3103 2138 3103 
Q 1681 3103 1420 2742 
Q 1159 2381 1159 1747 
Q 1159 1113 1420 752 
Q 1681 391 2138 391 
Q 2594 391 2855 752 
Q 3116 1113 3116 1747 
z
M 1159 2969 
Q 1341 3281 1617 3432 
Q 1894 3584 2278 3584 
Q 2916 3584 3314 3078 
Q 3713 2572 3713 1747 
Q 3713 922 3314 415 
Q 2916 -91 2278 -91 
Q 1894 -91 1617 61 
Q 1341 213 1159 525 
L 1159 0 
L 581 0 
L 581 4863 
L 1159 4863 
L 1159 2969 
z
" transform="scale(0.015625)"/>
       <path id="DejaVuSans-46" d="M 628 4666 
L 3309 4666 
L 3309 4134 
L 1259 4134 
L 1259 2759 
L 3109 2759 
L 3109 2228 
L 1259 2228 
L 1259 0 
L 628 0 
L 628 4666 
z
" transform="scale(0.015625)"/>
       <path id="DejaVuSans-72" d="M 2631 2963 
Q 2534 3019 2420 3045 
Q 2306 3072 2169 3072 
Q 1681 3072 1420 2755 
Q 1159 2438 1159 1844 
L 1159 0 
L 581 0 
L 581 3500 
L 1159 3500 
L 1159 2956 
Q 1341 3275 1631 3429 
Q 1922 3584 2338 3584 
Q 2397 3584 2469 3576 
Q 2541 3569 2628 3553 
L 2631 2963 
z
" transform="scale(0.015625)"/>
      </defs>
      <use xlink:href="#DejaVuSans-47"/>
      <use xlink:href="#DejaVuSans-6c" transform="translate(77.490234 0)"/>
      <use xlink:href="#DejaVuSans-65" transform="translate(105.273438 0)"/>
      <use xlink:href="#DejaVuSans-62" transform="translate(166.796875 0)"/>
      <use xlink:href="#DejaVuSans-61" transform="translate(230.273438 0)"/>
      <use xlink:href="#DejaVuSans-20" transform="translate(291.552734 0)"/>
      <use xlink:href="#DejaVuSans-46" transform="translate(323.339844 0)"/>
      <use xlink:href="#DejaVuSans-65" transform="translate(375.359375 0)"/>
      <use xlink:href="#DejaVuSans-64" transform="translate(436.882812 0)"/>
      <use xlink:href="#DejaVuSans-65" transform="translate(500.359375 0)"/>
      <use xlink:href="#DejaVuSans-72" transform="translate(561.882812 0)"/>
      <use xlink:href="#DejaVuSans-61" transform="translate(602.996094 0)"/>
      <use xlink:href="#DejaVuSans-6c" transform="translate(664.275391 0)"/>
     </g>
    </g>
    <g id="patch_9">
     <path d="M 399.045312 838.148986 
L 419.045312 838.148986 
L 419.045312 831.148986 
L 399.045312 831.148986 
z
" style="fill: #e0bd1f; opacity: 0.6"/>
    </g>
    <g id="text_22">
     <!-- SIGEF -->
     <g transform="translate(427.045312 838.148986) scale(0.1 -0.1)">
      <defs>
       <path id="DejaVuSans-53" d="M 3425 4513 
L 3425 3897 
Q 3066 4069 2747 4153 
Q 2428 4238 2131 4238 
Q 1616 4238 1336 4038 
Q 1056 3838 1056 3469 
Q 1056 3159 1242 3001 
Q 1428 2844 1947 2747 
L 2328 2669 
Q 3034 2534 3370 2195 
Q 3706 1856 3706 1288 
Q 3706 609 3251 259 
Q 2797 -91 1919 -91 
Q 1588 -91 1214 -16 
Q 841 59 441 206 
L 441 856 
Q 825 641 1194 531 
Q 1563 422 1919 422 
Q 2459 422 2753 634 
Q 3047 847 3047 1241 
Q 3047 1584 2836 1778 
Q 2625 1972 2144 2069 
L 1759 2144 
Q 1053 2284 737 2584 
Q 422 2884 422 3419 
Q 422 4038 858 4394 
Q 1294 4750 2059 4750 
Q 2388 4750 2728 4690 
Q 3069 4631 3425 4513 
z
" transform="scale(0.015625)"/>
       <path id="DejaVuSans-49" d="M 628 4666 
L 1259 4666 
L 1259 0 
L 628 0 
L 628 4666 
z
" transform="scale(0.015625)"/>
       <path id="DejaVuSans-45" d="M 628 4666 
L 3578 4666 
L 3578 4134 
L 1259 4134 
L 1259 2753 
L 3481 2753 
L 3481 2222 
L 1259 2222 
L 1259 531 
L 3634 531 
L 3634 0 
L 628 0 
L 628 4666 
z
" transform="scale(0.015625)"/>
      </defs>
      <use xlink:href="#DejaVuSans-53"/>
      <use xlink:href="#DejaVuSans-49" transform="translate(63.476562 0)"/>
      <use xlink:href="#DejaVuSans-47" transform="translate(92.96875 0)"/>
      <use xlink:href="#DejaVuSans-45" transform="translate(170.458984 0)"/>
      <use xlink:href="#DejaVuSans-46" transform="translate(233.642578 0)"/>
     </g>
    </g>
   </g>
  </g>
 </g>
 <defs>
  <clipPath id="pc5e6afca96">
   <rect x="90" y="173.022287" width="558" height="526.595426"/>
  </clipPath>
 </defs>
</svg>
