<?xml version="1.0" encoding="utf-8" standalone="no"?>
<!DOCTYPE svg PUBLIC "-//W3C//DTD SVG 1.1//EN"
  "http://www.w3.org/Graphics/SVG/1.1/DTD/svg11.dtd">
<svg xmlns:xlink="http://www.w3.org/1999/xlink" width="720pt" height="864pt" viewBox="0 0 720 864" xmlns="http://www.w3.org/2000/svg" version="1.1">
 <metadata>
  <rdf:RDF xmlns:dc="http://purl.org/dc/elements/1.1/" xmlns:cc="http://creativecommons.org/ns#" xmlns:rdf="http://www.w3.org/1999/02/22-rdf-syntax-ns#">
   <cc:Work>
    <dc:type rdf:resource="http://purl.org/dc/dcmitype/StillImage"/>
    <dc:date>2025-06-16T17:47:45.364070</dc:date>
    <dc:format>image/svg+xml</dc:format>
    <dc:creator>
     <cc:Agent>
      <dc:title>Matplotlib v3.10.1, https://matplotlib.org/</dc:title>
     </cc:Agent>
    </dc:creator>
   </cc:Work>
  </rdf:RDF>
 </metadata>
 <defs>
  <style type="text/css">*{stroke-linejoin: round; stroke-linecap: butt}</style>
 </defs>
 <g id="figure_1">
  <g id="patch_1">
   <path d="M 0 864 
L 720 864 
L 720 0 
L 0 0 
z
" style="fill: #ffffff"/>
  </g>
  <g id="axes_1">
   <g id="patch_2">
    <path d="M 90 621.49969 
L 648 621.49969 
L 648 251.14031 
L 90 251.14031 
z
" style="fill: #ffffff"/>
   </g>
   <g id="PatchCollection_1">
    <defs>
     <path id="m34252e70a7" d="M 605.803948 -590.268271 
L 610.206554 -486.713576 
L 612.988117 -428.247324 
L 614.847529 -391.393851 
L 614.889773 -390.604484 
L 617.820723 -344.974156 
L 618.994982 -326.692861 
L 620.10661 -309.385978 
L 621.291675 -290.935853 
L 622.636364 -270.000505 
L 524.682838 -259.334827 
L 520.572237 -268.674624 
L 515.905161 -279.460788 
L 508.267027 -297.113897 
L 511.795542 -315.019645 
L 515.502494 -333.831724 
L 524.604189 -380.026313 
L 525.400636 -383.996186 
L 525.563769 -384.811603 
L 532.763568 -419.952771 
L 543.754434 -473.604758 
L 566.058377 -581.73021 
L 566.667501 -577.607459 
L 567.232879 -576.138671 
L 568.029538 -575.898769 
L 569.879388 -576.58921 
L 570.805329 -581.171363 
L 576.234471 -586.005035 
L 579.286375 -586.745974 
L 576.586111 -582.823723 
L 576.23168 -581.543335 
L 577.009449 -580.388971 
L 582.367748 -579.162319 
L 584.282432 -580.351282 
L 587.162435 -585.132627 
L 590.41093 -587.847958 
L 592.247341 -586.304252 
L 593.616487 -586.225688 
L 600.750629 -589.555765 
L 605.803948 -590.268271 
" style="stroke: #0000ff; stroke-width: 0.5"/>
    </defs>
    <g clip-path="url(#p4e8469ab45)">
     <use xlink:href="#m34252e70a7" x="0" y="864" style="fill: #e0bd1f; stroke: #0000ff; stroke-width: 0.5"/>
    </g>
   </g>
   <g id="PatchCollection_2">
    <path d="M 503.918684 267.974827 
L 503.986431 268.144326 
L 503.815907 268.959088 
L 503.069472 270.622563 
L 503.175782 271.292059 
L 504.988715 271.846536 
L 506.438354 271.031775 
L 507.660237 270.599551 
L 509.613332 270.978515 
L 511.265077 270.857438 
L 516.144365 271.460338 
L 518.058897 271.445824 
L 519.189651 270.82597 
L 520.37764 269.536578 
L 520.580922 269.672168 
L 520.920834 270.316254 
L 520.614775 272.624993 
L 520.682521 273.643162 
L 520.988581 275.408319 
L 521.938256 277.919288 
L 522.549198 280.228027 
L 522.85408 282.603362 
L 523.160139 282.908451 
L 524.38198 282.977444 
L 525.502221 282.77286 
L 526.28255 281.754692 
L 526.621285 281.110605 
L 527.028985 280.600889 
L 527.36772 280.499207 
L 528.589602 281.042788 
L 530.049755 281.280104 
L 531.825303 281.025834 
L 534.036601 281.938704 
L 535.245616 281.706226 
L 536.696433 280.229247 
L 537.821342 278.496778 
L 538.295613 274.830829 
L 538.872659 274.117749 
L 540.534918 273.270299 
L 542.469341 272.658901 
L 544.403764 272.353812 
L 549.121822 272.455494 
L 549.833227 272.387721 
L 551.598262 271.674641 
L 552.141457 272.217002 
L 551.904321 272.930082 
L 551.699903 274.016067 
L 551.972068 275.000328 
L 553.057238 275.815133 
L 554.527946 276.464057 
L 557.105985 277.037886 
L 559.838232 277.353871 
L 564.018983 277.342975 
L 564.900912 277.715881 
L 565.206971 278.088743 
L 565.580777 279.311539 
L 566.667124 286.39274 
L 567.232522 287.861308 
L 568.029168 288.101021 
L 569.879486 287.410909 
L 570.805822 282.828517 
L 576.234108 277.99434 
L 579.28646 277.25341 
L 576.585711 281.175981 
L 576.231795 282.456875 
L 577.00977 283.610635 
L 582.367954 284.837048 
L 584.282528 283.648161 
L 587.161959 278.867243 
L 590.410528 276.15169 
L 592.246843 277.696486 
L 593.61591 277.773978 
L 600.750819 274.44463 
L 605.804163 273.73155 
L 610.206826 377.286227 
L 614.847802 472.605944 
L 567.802546 475.983714 
L 525.564164 479.188368 
L 524.255822 479.560053 
L 520.765449 481.184783 
L 517.136093 482.323985 
L 510.776803 481.591553 
L 479.440536 477.264608 
L 459.826452 474.338413 
L 364.056147 459.98594 
L 364.035121 460.783748 
L 363.191754 521.021856 
L 271.707332 500.846064 
L 115.363636 468.585307 
L 116.954615 401.305965 
L 117.240826 400.365245 
L 117.674221 369.298258 
L 373.354499 420.725093 
L 371.356997 283.692965 
L 371.702754 285.590095 
L 372.212054 286.33704 
L 373.433894 286.472674 
L 374.888244 285.550128 
L 375.390521 284.553752 
L 376.28065 283.301928 
L 376.955806 282.941139 
L 377.395046 282.240132 
L 378.051531 281.863652 
L 378.797966 279.379356 
L 377.274734 278.031866 
L 376.343729 277.76792 
L 376.013153 277.104483 
L 376.0809 276.257033 
L 376.453529 275.679543 
L 376.827335 275.849042 
L 377.37053 276.426531 
L 377.777011 277.036709 
L 378.727864 278.02097 
L 379.474299 278.361144 
L 381.102705 278.666233 
L 384.225116 278.835731 
L 386.499451 279.074267 
L 387.449127 279.58272 
L 390.163879 284.165112 
L 391.725674 285.590095 
L 392.932333 286.446 
L 394.968398 287.232955 
L 396.948364 286.99686 
L 397.731006 286.085254 
L 398.171382 284.27891 
L 398.089631 282.522252 
L 397.755565 281.467734 
L 398.115326 280.294623 
L 398.410872 279.71831 
L 398.681859 279.955626 
L 402.994614 284.758336 
L 404.835596 284.906042 
L 407.233734 283.960528 
L 408.320123 283.791029 
L 409.269798 284.19902 
L 409.880739 285.251098 
L 409.982381 285.964178 
L 409.643604 287.490843 
L 408.658857 289.323773 
L 406.500167 291.599824 
L 407.421835 293.073229 
L 409.406469 294.889249 
L 410.330451 295.177384 
L 411.241606 294.358961 
L 411.672646 292.695485 
L 410.933234 289.832269 
L 411.170369 289.459364 
L 411.676137 289.010229 
L 413.813842 287.696647 
L 414.768186 286.709946 
L 416.362697 284.402428 
L 417.279656 284.504109 
L 417.788956 284.707516 
L 418.602002 285.861276 
L 419.145155 287.456934 
L 420.039951 288.716036 
L 420.481505 288.942412 
L 421.404351 288.970262 
L 422.073661 288.335895 
L 422.056167 287.504136 
L 421.58892 286.33704 
L 421.113472 284.843107 
L 421.487278 284.402428 
L 422.064325 284.402428 
L 422.776908 285.013782 
L 423.115642 285.657868 
L 423.421702 286.709946 
L 423.489448 287.863705 
L 423.897107 288.407286 
L 425.08396 288.746284 
L 426.916742 288.576785 
L 428.685309 287.510194 
L 429.851093 286.593707 
L 430.716664 285.559804 
L 431.833415 285.576758 
L 432.596208 287.007756 
L 433.181413 287.770478 
L 434.009641 289.154275 
L 434.823822 290.81653 
L 435.231481 291.936424 
L 436.872713 293.632544 
L 438.679801 293.998171 
L 440.137641 295.711289 
L 441.518356 296.541785 
L 443.034608 296.274222 
L 443.240203 295.229423 
L 443.070815 294.132585 
L 441.660873 292.811724 
L 441.34081 292.825061 
L 441.670209 292.547779 
L 442.286995 292.426746 
L 443.831254 292.527207 
L 444.624409 292.218501 
L 445.436278 292.315345 
L 448.040054 291.128897 
L 448.629927 290.518719 
L 449.246713 288.746284 
L 450.809685 286.126398 
L 451.922904 285.054969 
L 453.391257 283.979879 
L 455.010285 283.822497 
L 459.242382 281.875725 
L 461.808773 278.706199 
L 461.987497 278.036704 
L 462.19776 277.853912 
L 463.126452 277.546382 
L 470.438908 278.997995 
L 472.262396 278.738888 
L 474.145389 279.580323 
L 475.076393 280.364837 
L 476.007397 280.586375 
L 477.235125 280.32243 
L 478.677742 279.669888 
L 480.016405 279.430175 
L 481.018689 279.438674 
L 482.244061 279.977418 
L 483.218254 279.909601 
L 483.986893 278.997995 
L 484.405107 277.104483 
L 484.407419 275.536674 
L 484.035968 275.197677 
L 483.539494 273.637147 
L 484.177307 273.065672 
L 485.016006 272.658901 
L 485.423706 271.606824 
L 485.965723 271.029334 
L 486.576623 270.961561 
L 488.715506 272.183093 
L 489.766823 274.049976 
L 490.920917 274.016067 
L 491.767815 273.757003 
L 493.723265 272.90951 
L 494.830638 272.269085 
L 496.129603 271.771485 
L 496.992861 271.863491 
L 498.448346 271.424032 
L 499.494995 271.848977 
L 501.430596 271.960335 
L 502.24011 270.925212 
L 503.544878 268.212099 
L 503.918684 267.974827 
L 503.918684 267.974827 
" clip-path="url(#p4e8469ab45)" style="fill: none; stroke: #000000"/>
   </g>
   <g id="matplotlib.axis_1">
    <g id="xtick_1">
     <g id="line2d_1">
      <path d="M 173.601927 621.49969 
L 173.601927 251.14031 
" clip-path="url(#p4e8469ab45)" style="fill: none; stroke: #b0b0b0; stroke-width: 0.8; stroke-linecap: square"/>
     </g>
     <g id="line2d_2">
      <defs>
       <path id="m81d71a405c" d="M 0 0 
L 0 3.5 
" style="stroke: #000000; stroke-width: 0.8"/>
      </defs>
      <g>
       <use xlink:href="#m81d71a405c" x="173.601927" y="621.49969" style="stroke: #000000; stroke-width: 0.8"/>
      </g>
     </g>
     <g id="text_1">
      <!-- −59.66 -->
      <g transform="translate(162.468862 660.041072) rotate(-45) scale(0.1 -0.1)">
       <defs>
        <path id="DejaVuSans-2212" d="M 678 2272 
L 4684 2272 
L 4684 1741 
L 678 1741 
L 678 2272 
z
" transform="scale(0.015625)"/>
        <path id="DejaVuSans-35" d="M 691 4666 
L 3169 4666 
L 3169 4134 
L 1269 4134 
L 1269 2991 
Q 1406 3038 1543 3061 
Q 1681 3084 1819 3084 
Q 2600 3084 3056 2656 
Q 3513 2228 3513 1497 
Q 3513 744 3044 326 
Q 2575 -91 1722 -91 
Q 1428 -91 1123 -41 
Q 819 9 494 109 
L 494 744 
Q 775 591 1075 516 
Q 1375 441 1709 441 
Q 2250 441 2565 725 
Q 2881 1009 2881 1497 
Q 2881 1984 2565 2268 
Q 2250 2553 1709 2553 
Q 1456 2553 1204 2497 
Q 953 2441 691 2322 
L 691 4666 
z
" transform="scale(0.015625)"/>
        <path id="DejaVuSans-39" d="M 703 97 
L 703 672 
Q 941 559 1184 500 
Q 1428 441 1663 441 
Q 2288 441 2617 861 
Q 2947 1281 2994 2138 
Q 2813 1869 2534 1725 
Q 2256 1581 1919 1581 
Q 1219 1581 811 2004 
Q 403 2428 403 3163 
Q 403 3881 828 4315 
Q 1253 4750 1959 4750 
Q 2769 4750 3195 4129 
Q 3622 3509 3622 2328 
Q 3622 1225 3098 567 
Q 2575 -91 1691 -91 
Q 1453 -91 1209 -44 
Q 966 3 703 97 
z
M 1959 2075 
Q 2384 2075 2632 2365 
Q 2881 2656 2881 3163 
Q 2881 3666 2632 3958 
Q 2384 4250 1959 4250 
Q 1534 4250 1286 3958 
Q 1038 3666 1038 3163 
Q 1038 2656 1286 2365 
Q 1534 2075 1959 2075 
z
" transform="scale(0.015625)"/>
        <path id="DejaVuSans-2e" d="M 684 794 
L 1344 794 
L 1344 0 
L 684 0 
L 684 794 
z
" transform="scale(0.015625)"/>
        <path id="DejaVuSans-36" d="M 2113 2584 
Q 1688 2584 1439 2293 
Q 1191 2003 1191 1497 
Q 1191 994 1439 701 
Q 1688 409 2113 409 
Q 2538 409 2786 701 
Q 3034 994 3034 1497 
Q 3034 2003 2786 2293 
Q 2538 2584 2113 2584 
z
M 3366 4563 
L 3366 3988 
Q 3128 4100 2886 4159 
Q 2644 4219 2406 4219 
Q 1781 4219 1451 3797 
Q 1122 3375 1075 2522 
Q 1259 2794 1537 2939 
Q 1816 3084 2150 3084 
Q 2853 3084 3261 2657 
Q 3669 2231 3669 1497 
Q 3669 778 3244 343 
Q 2819 -91 2113 -91 
Q 1303 -91 875 529 
Q 447 1150 447 2328 
Q 447 3434 972 4092 
Q 1497 4750 2381 4750 
Q 2619 4750 2861 4703 
Q 3103 4656 3366 4563 
z
" transform="scale(0.015625)"/>
       </defs>
       <use xlink:href="#DejaVuSans-2212"/>
       <use xlink:href="#DejaVuSans-35" transform="translate(83.789062 0)"/>
       <use xlink:href="#DejaVuSans-39" transform="translate(147.412109 0)"/>
       <use xlink:href="#DejaVuSans-2e" transform="translate(211.035156 0)"/>
       <use xlink:href="#DejaVuSans-36" transform="translate(242.822266 0)"/>
       <use xlink:href="#DejaVuSans-36" transform="translate(306.445312 0)"/>
      </g>
     </g>
    </g>
    <g id="xtick_2">
     <g id="line2d_3">
      <path d="M 257.707281 621.49969 
L 257.707281 251.14031 
" clip-path="url(#p4e8469ab45)" style="fill: none; stroke: #b0b0b0; stroke-width: 0.8; stroke-linecap: square"/>
     </g>
     <g id="line2d_4">
      <g>
       <use xlink:href="#m81d71a405c" x="257.707281" y="621.49969" style="stroke: #000000; stroke-width: 0.8"/>
      </g>
     </g>
     <g id="text_2">
      <!-- −59.64 -->
      <g transform="translate(246.574216 660.041072) rotate(-45) scale(0.1 -0.1)">
       <defs>
        <path id="DejaVuSans-34" d="M 2419 4116 
L 825 1625 
L 2419 1625 
L 2419 4116 
z
M 2253 4666 
L 3047 4666 
L 3047 1625 
L 3713 1625 
L 3713 1100 
L 3047 1100 
L 3047 0 
L 2419 0 
L 2419 1100 
L 313 1100 
L 313 1709 
L 2253 4666 
z
" transform="scale(0.015625)"/>
       </defs>
       <use xlink:href="#DejaVuSans-2212"/>
       <use xlink:href="#DejaVuSans-35" transform="translate(83.789062 0)"/>
       <use xlink:href="#DejaVuSans-39" transform="translate(147.412109 0)"/>
       <use xlink:href="#DejaVuSans-2e" transform="translate(211.035156 0)"/>
       <use xlink:href="#DejaVuSans-36" transform="translate(242.822266 0)"/>
       <use xlink:href="#DejaVuSans-34" transform="translate(306.445312 0)"/>
      </g>
     </g>
    </g>
    <g id="xtick_3">
     <g id="line2d_5">
      <path d="M 341.812636 621.49969 
L 341.812636 251.14031 
" clip-path="url(#p4e8469ab45)" style="fill: none; stroke: #b0b0b0; stroke-width: 0.8; stroke-linecap: square"/>
     </g>
     <g id="line2d_6">
      <g>
       <use xlink:href="#m81d71a405c" x="341.812636" y="621.49969" style="stroke: #000000; stroke-width: 0.8"/>
      </g>
     </g>
     <g id="text_3">
      <!-- −59.62 -->
      <g transform="translate(330.679571 660.041072) rotate(-45) scale(0.1 -0.1)">
       <defs>
        <path id="DejaVuSans-32" d="M 1228 531 
L 3431 531 
L 3431 0 
L 469 0 
L 469 531 
Q 828 903 1448 1529 
Q 2069 2156 2228 2338 
Q 2531 2678 2651 2914 
Q 2772 3150 2772 3378 
Q 2772 3750 2511 3984 
Q 2250 4219 1831 4219 
Q 1534 4219 1204 4116 
Q 875 4013 500 3803 
L 500 4441 
Q 881 4594 1212 4672 
Q 1544 4750 1819 4750 
Q 2544 4750 2975 4387 
Q 3406 4025 3406 3419 
Q 3406 3131 3298 2873 
Q 3191 2616 2906 2266 
Q 2828 2175 2409 1742 
Q 1991 1309 1228 531 
z
" transform="scale(0.015625)"/>
       </defs>
       <use xlink:href="#DejaVuSans-2212"/>
       <use xlink:href="#DejaVuSans-35" transform="translate(83.789062 0)"/>
       <use xlink:href="#DejaVuSans-39" transform="translate(147.412109 0)"/>
       <use xlink:href="#DejaVuSans-2e" transform="translate(211.035156 0)"/>
       <use xlink:href="#DejaVuSans-36" transform="translate(242.822266 0)"/>
       <use xlink:href="#DejaVuSans-32" transform="translate(306.445312 0)"/>
      </g>
     </g>
    </g>
    <g id="xtick_4">
     <g id="line2d_7">
      <path d="M 425.917991 621.49969 
L 425.917991 251.14031 
" clip-path="url(#p4e8469ab45)" style="fill: none; stroke: #b0b0b0; stroke-width: 0.8; stroke-linecap: square"/>
     </g>
     <g id="line2d_8">
      <g>
       <use xlink:href="#m81d71a405c" x="425.917991" y="621.49969" style="stroke: #000000; stroke-width: 0.8"/>
      </g>
     </g>
     <g id="text_4">
      <!-- −59.60 -->
      <g transform="translate(414.784926 660.041072) rotate(-45) scale(0.1 -0.1)">
       <defs>
        <path id="DejaVuSans-30" d="M 2034 4250 
Q 1547 4250 1301 3770 
Q 1056 3291 1056 2328 
Q 1056 1369 1301 889 
Q 1547 409 2034 409 
Q 2525 409 2770 889 
Q 3016 1369 3016 2328 
Q 3016 3291 2770 3770 
Q 2525 4250 2034 4250 
z
M 2034 4750 
Q 2819 4750 3233 4129 
Q 3647 3509 3647 2328 
Q 3647 1150 3233 529 
Q 2819 -91 2034 -91 
Q 1250 -91 836 529 
Q 422 1150 422 2328 
Q 422 3509 836 4129 
Q 1250 4750 2034 4750 
z
" transform="scale(0.015625)"/>
       </defs>
       <use xlink:href="#DejaVuSans-2212"/>
       <use xlink:href="#DejaVuSans-35" transform="translate(83.789062 0)"/>
       <use xlink:href="#DejaVuSans-39" transform="translate(147.412109 0)"/>
       <use xlink:href="#DejaVuSans-2e" transform="translate(211.035156 0)"/>
       <use xlink:href="#DejaVuSans-36" transform="translate(242.822266 0)"/>
       <use xlink:href="#DejaVuSans-30" transform="translate(306.445312 0)"/>
      </g>
     </g>
    </g>
    <g id="xtick_5">
     <g id="line2d_9">
      <path d="M 510.023345 621.49969 
L 510.023345 251.14031 
" clip-path="url(#p4e8469ab45)" style="fill: none; stroke: #b0b0b0; stroke-width: 0.8; stroke-linecap: square"/>
     </g>
     <g id="line2d_10">
      <g>
       <use xlink:href="#m81d71a405c" x="510.023345" y="621.49969" style="stroke: #000000; stroke-width: 0.8"/>
      </g>
     </g>
     <g id="text_5">
      <!-- −59.58 -->
      <g transform="translate(498.89028 660.041072) rotate(-45) scale(0.1 -0.1)">
       <defs>
        <path id="DejaVuSans-38" d="M 2034 2216 
Q 1584 2216 1326 1975 
Q 1069 1734 1069 1313 
Q 1069 891 1326 650 
Q 1584 409 2034 409 
Q 2484 409 2743 651 
Q 3003 894 3003 1313 
Q 3003 1734 2745 1975 
Q 2488 2216 2034 2216 
z
M 1403 2484 
Q 997 2584 770 2862 
Q 544 3141 544 3541 
Q 544 4100 942 4425 
Q 1341 4750 2034 4750 
Q 2731 4750 3128 4425 
Q 3525 4100 3525 3541 
Q 3525 3141 3298 2862 
Q 3072 2584 2669 2484 
Q 3125 2378 3379 2068 
Q 3634 1759 3634 1313 
Q 3634 634 3220 271 
Q 2806 -91 2034 -91 
Q 1263 -91 848 271 
Q 434 634 434 1313 
Q 434 1759 690 2068 
Q 947 2378 1403 2484 
z
M 1172 3481 
Q 1172 3119 1398 2916 
Q 1625 2713 2034 2713 
Q 2441 2713 2670 2916 
Q 2900 3119 2900 3481 
Q 2900 3844 2670 4047 
Q 2441 4250 2034 4250 
Q 1625 4250 1398 4047 
Q 1172 3844 1172 3481 
z
" transform="scale(0.015625)"/>
       </defs>
       <use xlink:href="#DejaVuSans-2212"/>
       <use xlink:href="#DejaVuSans-35" transform="translate(83.789062 0)"/>
       <use xlink:href="#DejaVuSans-39" transform="translate(147.412109 0)"/>
       <use xlink:href="#DejaVuSans-2e" transform="translate(211.035156 0)"/>
       <use xlink:href="#DejaVuSans-35" transform="translate(242.822266 0)"/>
       <use xlink:href="#DejaVuSans-38" transform="translate(306.445312 0)"/>
      </g>
     </g>
    </g>
    <g id="xtick_6">
     <g id="line2d_11">
      <path d="M 594.1287 621.49969 
L 594.1287 251.14031 
" clip-path="url(#p4e8469ab45)" style="fill: none; stroke: #b0b0b0; stroke-width: 0.8; stroke-linecap: square"/>
     </g>
     <g id="line2d_12">
      <g>
       <use xlink:href="#m81d71a405c" x="594.1287" y="621.49969" style="stroke: #000000; stroke-width: 0.8"/>
      </g>
     </g>
     <g id="text_6">
      <!-- −59.56 -->
      <g transform="translate(582.995635 660.041072) rotate(-45) scale(0.1 -0.1)">
       <use xlink:href="#DejaVuSans-2212"/>
       <use xlink:href="#DejaVuSans-35" transform="translate(83.789062 0)"/>
       <use xlink:href="#DejaVuSans-39" transform="translate(147.412109 0)"/>
       <use xlink:href="#DejaVuSans-2e" transform="translate(211.035156 0)"/>
       <use xlink:href="#DejaVuSans-35" transform="translate(242.822266 0)"/>
       <use xlink:href="#DejaVuSans-36" transform="translate(306.445312 0)"/>
      </g>
     </g>
    </g>
    <g id="text_7">
     <!-- Longitude (°) -->
     <g transform="translate(336.139844 673.11007) scale(0.1 -0.1)">
      <defs>
       <path id="DejaVuSans-4c" d="M 628 4666 
L 1259 4666 
L 1259 531 
L 3531 531 
L 3531 0 
L 628 0 
L 628 4666 
z
" transform="scale(0.015625)"/>
       <path id="DejaVuSans-6f" d="M 1959 3097 
Q 1497 3097 1228 2736 
Q 959 2375 959 1747 
Q 959 1119 1226 758 
Q 1494 397 1959 397 
Q 2419 397 2687 759 
Q 2956 1122 2956 1747 
Q 2956 2369 2687 2733 
Q 2419 3097 1959 3097 
z
M 1959 3584 
Q 2709 3584 3137 3096 
Q 3566 2609 3566 1747 
Q 3566 888 3137 398 
Q 2709 -91 1959 -91 
Q 1206 -91 779 398 
Q 353 888 353 1747 
Q 353 2609 779 3096 
Q 1206 3584 1959 3584 
z
" transform="scale(0.015625)"/>
       <path id="DejaVuSans-6e" d="M 3513 2113 
L 3513 0 
L 2938 0 
L 2938 2094 
Q 2938 2591 2744 2837 
Q 2550 3084 2163 3084 
Q 1697 3084 1428 2787 
Q 1159 2491 1159 1978 
L 1159 0 
L 581 0 
L 581 3500 
L 1159 3500 
L 1159 2956 
Q 1366 3272 1645 3428 
Q 1925 3584 2291 3584 
Q 2894 3584 3203 3211 
Q 3513 2838 3513 2113 
z
" transform="scale(0.015625)"/>
       <path id="DejaVuSans-67" d="M 2906 1791 
Q 2906 2416 2648 2759 
Q 2391 3103 1925 3103 
Q 1463 3103 1205 2759 
Q 947 2416 947 1791 
Q 947 1169 1205 825 
Q 1463 481 1925 481 
Q 2391 481 2648 825 
Q 2906 1169 2906 1791 
z
M 3481 434 
Q 3481 -459 3084 -895 
Q 2688 -1331 1869 -1331 
Q 1566 -1331 1297 -1286 
Q 1028 -1241 775 -1147 
L 775 -588 
Q 1028 -725 1275 -790 
Q 1522 -856 1778 -856 
Q 2344 -856 2625 -561 
Q 2906 -266 2906 331 
L 2906 616 
Q 2728 306 2450 153 
Q 2172 0 1784 0 
Q 1141 0 747 490 
Q 353 981 353 1791 
Q 353 2603 747 3093 
Q 1141 3584 1784 3584 
Q 2172 3584 2450 3431 
Q 2728 3278 2906 2969 
L 2906 3500 
L 3481 3500 
L 3481 434 
z
" transform="scale(0.015625)"/>
       <path id="DejaVuSans-69" d="M 603 3500 
L 1178 3500 
L 1178 0 
L 603 0 
L 603 3500 
z
M 603 4863 
L 1178 4863 
L 1178 4134 
L 603 4134 
L 603 4863 
z
" transform="scale(0.015625)"/>
       <path id="DejaVuSans-74" d="M 1172 4494 
L 1172 3500 
L 2356 3500 
L 2356 3053 
L 1172 3053 
L 1172 1153 
Q 1172 725 1289 603 
Q 1406 481 1766 481 
L 2356 481 
L 2356 0 
L 1766 0 
Q 1100 0 847 248 
Q 594 497 594 1153 
L 594 3053 
L 172 3053 
L 172 3500 
L 594 3500 
L 594 4494 
L 1172 4494 
z
" transform="scale(0.015625)"/>
       <path id="DejaVuSans-75" d="M 544 1381 
L 544 3500 
L 1119 3500 
L 1119 1403 
Q 1119 906 1312 657 
Q 1506 409 1894 409 
Q 2359 409 2629 706 
Q 2900 1003 2900 1516 
L 2900 3500 
L 3475 3500 
L 3475 0 
L 2900 0 
L 2900 538 
Q 2691 219 2414 64 
Q 2138 -91 1772 -91 
Q 1169 -91 856 284 
Q 544 659 544 1381 
z
M 1991 3584 
L 1991 3584 
z
" transform="scale(0.015625)"/>
       <path id="DejaVuSans-64" d="M 2906 2969 
L 2906 4863 
L 3481 4863 
L 3481 0 
L 2906 0 
L 2906 525 
Q 2725 213 2448 61 
Q 2172 -91 1784 -91 
Q 1150 -91 751 415 
Q 353 922 353 1747 
Q 353 2572 751 3078 
Q 1150 3584 1784 3584 
Q 2172 3584 2448 3432 
Q 2725 3281 2906 2969 
z
M 947 1747 
Q 947 1113 1208 752 
Q 1469 391 1925 391 
Q 2381 391 2643 752 
Q 2906 1113 2906 1747 
Q 2906 2381 2643 2742 
Q 2381 3103 1925 3103 
Q 1469 3103 1208 2742 
Q 947 2381 947 1747 
z
" transform="scale(0.015625)"/>
       <path id="DejaVuSans-65" d="M 3597 1894 
L 3597 1613 
L 953 1613 
Q 991 1019 1311 708 
Q 1631 397 2203 397 
Q 2534 397 2845 478 
Q 3156 559 3463 722 
L 3463 178 
Q 3153 47 2828 -22 
Q 2503 -91 2169 -91 
Q 1331 -91 842 396 
Q 353 884 353 1716 
Q 353 2575 817 3079 
Q 1281 3584 2069 3584 
Q 2775 3584 3186 3129 
Q 3597 2675 3597 1894 
z
M 3022 2063 
Q 3016 2534 2758 2815 
Q 2500 3097 2075 3097 
Q 1594 3097 1305 2825 
Q 1016 2553 972 2059 
L 3022 2063 
z
" transform="scale(0.015625)"/>
       <path id="DejaVuSans-20" transform="scale(0.015625)"/>
       <path id="DejaVuSans-28" d="M 1984 4856 
Q 1566 4138 1362 3434 
Q 1159 2731 1159 2009 
Q 1159 1288 1364 580 
Q 1569 -128 1984 -844 
L 1484 -844 
Q 1016 -109 783 600 
Q 550 1309 550 2009 
Q 550 2706 781 3412 
Q 1013 4119 1484 4856 
L 1984 4856 
z
" transform="scale(0.015625)"/>
       <path id="DejaVuSans-b0" d="M 1600 4347 
Q 1350 4347 1178 4173 
Q 1006 4000 1006 3750 
Q 1006 3503 1178 3333 
Q 1350 3163 1600 3163 
Q 1850 3163 2022 3333 
Q 2194 3503 2194 3750 
Q 2194 3997 2020 4172 
Q 1847 4347 1600 4347 
z
M 1600 4750 
Q 1800 4750 1984 4673 
Q 2169 4597 2303 4453 
Q 2447 4313 2519 4134 
Q 2591 3956 2591 3750 
Q 2591 3338 2302 3052 
Q 2013 2766 1594 2766 
Q 1172 2766 890 3047 
Q 609 3328 609 3750 
Q 609 4169 896 4459 
Q 1184 4750 1600 4750 
z
" transform="scale(0.015625)"/>
       <path id="DejaVuSans-29" d="M 513 4856 
L 1013 4856 
Q 1481 4119 1714 3412 
Q 1947 2706 1947 2009 
Q 1947 1309 1714 600 
Q 1481 -109 1013 -844 
L 513 -844 
Q 928 -128 1133 580 
Q 1338 1288 1338 2009 
Q 1338 2731 1133 3434 
Q 928 4138 513 4856 
z
" transform="scale(0.015625)"/>
      </defs>
      <use xlink:href="#DejaVuSans-4c"/>
      <use xlink:href="#DejaVuSans-6f" transform="translate(53.962891 0)"/>
      <use xlink:href="#DejaVuSans-6e" transform="translate(115.144531 0)"/>
      <use xlink:href="#DejaVuSans-67" transform="translate(178.523438 0)"/>
      <use xlink:href="#DejaVuSans-69" transform="translate(242 0)"/>
      <use xlink:href="#DejaVuSans-74" transform="translate(269.783203 0)"/>
      <use xlink:href="#DejaVuSans-75" transform="translate(308.992188 0)"/>
      <use xlink:href="#DejaVuSans-64" transform="translate(372.371094 0)"/>
      <use xlink:href="#DejaVuSans-65" transform="translate(435.847656 0)"/>
      <use xlink:href="#DejaVuSans-20" transform="translate(497.371094 0)"/>
      <use xlink:href="#DejaVuSans-28" transform="translate(529.158203 0)"/>
      <use xlink:href="#DejaVuSans-b0" transform="translate(568.171875 0)"/>
      <use xlink:href="#DejaVuSans-29" transform="translate(618.171875 0)"/>
     </g>
    </g>
   </g>
   <g id="matplotlib.axis_2">
    <g id="ytick_1">
     <g id="line2d_13">
      <path d="M 90 596.288034 
L 648 596.288034 
" clip-path="url(#p4e8469ab45)" style="fill: none; stroke: #b0b0b0; stroke-width: 0.8; stroke-linecap: square"/>
     </g>
     <g id="line2d_14">
      <defs>
       <path id="m2ad1356126" d="M 0 0 
L -3.5 0 
" style="stroke: #000000; stroke-width: 0.8"/>
      </defs>
      <g>
       <use xlink:href="#m2ad1356126" x="90" y="596.288034" style="stroke: #000000; stroke-width: 0.8"/>
      </g>
     </g>
     <g id="text_8">
      <!-- −15.28 -->
      <g transform="translate(45.992188 600.087253) scale(0.1 -0.1)">
       <defs>
        <path id="DejaVuSans-31" d="M 794 531 
L 1825 531 
L 1825 4091 
L 703 3866 
L 703 4441 
L 1819 4666 
L 2450 4666 
L 2450 531 
L 3481 531 
L 3481 0 
L 794 0 
L 794 531 
z
" transform="scale(0.015625)"/>
       </defs>
       <use xlink:href="#DejaVuSans-2212"/>
       <use xlink:href="#DejaVuSans-31" transform="translate(83.789062 0)"/>
       <use xlink:href="#DejaVuSans-35" transform="translate(147.412109 0)"/>
       <use xlink:href="#DejaVuSans-2e" transform="translate(211.035156 0)"/>
       <use xlink:href="#DejaVuSans-32" transform="translate(242.822266 0)"/>
       <use xlink:href="#DejaVuSans-38" transform="translate(306.445312 0)"/>
      </g>
     </g>
    </g>
    <g id="ytick_2">
     <g id="line2d_15">
      <path d="M 90 552.703902 
L 648 552.703902 
" clip-path="url(#p4e8469ab45)" style="fill: none; stroke: #b0b0b0; stroke-width: 0.8; stroke-linecap: square"/>
     </g>
     <g id="line2d_16">
      <g>
       <use xlink:href="#m2ad1356126" x="90" y="552.703902" style="stroke: #000000; stroke-width: 0.8"/>
      </g>
     </g>
     <g id="text_9">
      <!-- −15.27 -->
      <g transform="translate(45.992188 556.503121) scale(0.1 -0.1)">
       <defs>
        <path id="DejaVuSans-37" d="M 525 4666 
L 3525 4666 
L 3525 4397 
L 1831 0 
L 1172 0 
L 2766 4134 
L 525 4134 
L 525 4666 
z
" transform="scale(0.015625)"/>
       </defs>
       <use xlink:href="#DejaVuSans-2212"/>
       <use xlink:href="#DejaVuSans-31" transform="translate(83.789062 0)"/>
       <use xlink:href="#DejaVuSans-35" transform="translate(147.412109 0)"/>
       <use xlink:href="#DejaVuSans-2e" transform="translate(211.035156 0)"/>
       <use xlink:href="#DejaVuSans-32" transform="translate(242.822266 0)"/>
       <use xlink:href="#DejaVuSans-37" transform="translate(306.445312 0)"/>
      </g>
     </g>
    </g>
    <g id="ytick_3">
     <g id="line2d_17">
      <path d="M 90 509.11977 
L 648 509.11977 
" clip-path="url(#p4e8469ab45)" style="fill: none; stroke: #b0b0b0; stroke-width: 0.8; stroke-linecap: square"/>
     </g>
     <g id="line2d_18">
      <g>
       <use xlink:href="#m2ad1356126" x="90" y="509.11977" style="stroke: #000000; stroke-width: 0.8"/>
      </g>
     </g>
     <g id="text_10">
      <!-- −15.26 -->
      <g transform="translate(45.992188 512.918989) scale(0.1 -0.1)">
       <use xlink:href="#DejaVuSans-2212"/>
       <use xlink:href="#DejaVuSans-31" transform="translate(83.789062 0)"/>
       <use xlink:href="#DejaVuSans-35" transform="translate(147.412109 0)"/>
       <use xlink:href="#DejaVuSans-2e" transform="translate(211.035156 0)"/>
       <use xlink:href="#DejaVuSans-32" transform="translate(242.822266 0)"/>
       <use xlink:href="#DejaVuSans-36" transform="translate(306.445312 0)"/>
      </g>
     </g>
    </g>
    <g id="ytick_4">
     <g id="line2d_19">
      <path d="M 90 465.535639 
L 648 465.535639 
" clip-path="url(#p4e8469ab45)" style="fill: none; stroke: #b0b0b0; stroke-width: 0.8; stroke-linecap: square"/>
     </g>
     <g id="line2d_20">
      <g>
       <use xlink:href="#m2ad1356126" x="90" y="465.535639" style="stroke: #000000; stroke-width: 0.8"/>
      </g>
     </g>
     <g id="text_11">
      <!-- −15.25 -->
      <g transform="translate(45.992188 469.334857) scale(0.1 -0.1)">
       <use xlink:href="#DejaVuSans-2212"/>
       <use xlink:href="#DejaVuSans-31" transform="translate(83.789062 0)"/>
       <use xlink:href="#DejaVuSans-35" transform="translate(147.412109 0)"/>
       <use xlink:href="#DejaVuSans-2e" transform="translate(211.035156 0)"/>
       <use xlink:href="#DejaVuSans-32" transform="translate(242.822266 0)"/>
       <use xlink:href="#DejaVuSans-35" transform="translate(306.445312 0)"/>
      </g>
     </g>
    </g>
    <g id="ytick_5">
     <g id="line2d_21">
      <path d="M 90 421.951507 
L 648 421.951507 
" clip-path="url(#p4e8469ab45)" style="fill: none; stroke: #b0b0b0; stroke-width: 0.8; stroke-linecap: square"/>
     </g>
     <g id="line2d_22">
      <g>
       <use xlink:href="#m2ad1356126" x="90" y="421.951507" style="stroke: #000000; stroke-width: 0.8"/>
      </g>
     </g>
     <g id="text_12">
      <!-- −15.24 -->
      <g transform="translate(45.992188 425.750726) scale(0.1 -0.1)">
       <use xlink:href="#DejaVuSans-2212"/>
       <use xlink:href="#DejaVuSans-31" transform="translate(83.789062 0)"/>
       <use xlink:href="#DejaVuSans-35" transform="translate(147.412109 0)"/>
       <use xlink:href="#DejaVuSans-2e" transform="translate(211.035156 0)"/>
       <use xlink:href="#DejaVuSans-32" transform="translate(242.822266 0)"/>
       <use xlink:href="#DejaVuSans-34" transform="translate(306.445312 0)"/>
      </g>
     </g>
    </g>
    <g id="ytick_6">
     <g id="line2d_23">
      <path d="M 90 378.367375 
L 648 378.367375 
" clip-path="url(#p4e8469ab45)" style="fill: none; stroke: #b0b0b0; stroke-width: 0.8; stroke-linecap: square"/>
     </g>
     <g id="line2d_24">
      <g>
       <use xlink:href="#m2ad1356126" x="90" y="378.367375" style="stroke: #000000; stroke-width: 0.8"/>
      </g>
     </g>
     <g id="text_13">
      <!-- −15.23 -->
      <g transform="translate(45.992188 382.166594) scale(0.1 -0.1)">
       <defs>
        <path id="DejaVuSans-33" d="M 2597 2516 
Q 3050 2419 3304 2112 
Q 3559 1806 3559 1356 
Q 3559 666 3084 287 
Q 2609 -91 1734 -91 
Q 1441 -91 1130 -33 
Q 819 25 488 141 
L 488 750 
Q 750 597 1062 519 
Q 1375 441 1716 441 
Q 2309 441 2620 675 
Q 2931 909 2931 1356 
Q 2931 1769 2642 2001 
Q 2353 2234 1838 2234 
L 1294 2234 
L 1294 2753 
L 1863 2753 
Q 2328 2753 2575 2939 
Q 2822 3125 2822 3475 
Q 2822 3834 2567 4026 
Q 2313 4219 1838 4219 
Q 1578 4219 1281 4162 
Q 984 4106 628 3988 
L 628 4550 
Q 988 4650 1302 4700 
Q 1616 4750 1894 4750 
Q 2613 4750 3031 4423 
Q 3450 4097 3450 3541 
Q 3450 3153 3228 2886 
Q 3006 2619 2597 2516 
z
" transform="scale(0.015625)"/>
       </defs>
       <use xlink:href="#DejaVuSans-2212"/>
       <use xlink:href="#DejaVuSans-31" transform="translate(83.789062 0)"/>
       <use xlink:href="#DejaVuSans-35" transform="translate(147.412109 0)"/>
       <use xlink:href="#DejaVuSans-2e" transform="translate(211.035156 0)"/>
       <use xlink:href="#DejaVuSans-32" transform="translate(242.822266 0)"/>
       <use xlink:href="#DejaVuSans-33" transform="translate(306.445312 0)"/>
      </g>
     </g>
    </g>
    <g id="ytick_7">
     <g id="line2d_25">
      <path d="M 90 334.783243 
L 648 334.783243 
" clip-path="url(#p4e8469ab45)" style="fill: none; stroke: #b0b0b0; stroke-width: 0.8; stroke-linecap: square"/>
     </g>
     <g id="line2d_26">
      <g>
       <use xlink:href="#m2ad1356126" x="90" y="334.783243" style="stroke: #000000; stroke-width: 0.8"/>
      </g>
     </g>
     <g id="text_14">
      <!-- −15.22 -->
      <g transform="translate(45.992188 338.582462) scale(0.1 -0.1)">
       <use xlink:href="#DejaVuSans-2212"/>
       <use xlink:href="#DejaVuSans-31" transform="translate(83.789062 0)"/>
       <use xlink:href="#DejaVuSans-35" transform="translate(147.412109 0)"/>
       <use xlink:href="#DejaVuSans-2e" transform="translate(211.035156 0)"/>
       <use xlink:href="#DejaVuSans-32" transform="translate(242.822266 0)"/>
       <use xlink:href="#DejaVuSans-32" transform="translate(306.445312 0)"/>
      </g>
     </g>
    </g>
    <g id="ytick_8">
     <g id="line2d_27">
      <path d="M 90 291.199111 
L 648 291.199111 
" clip-path="url(#p4e8469ab45)" style="fill: none; stroke: #b0b0b0; stroke-width: 0.8; stroke-linecap: square"/>
     </g>
     <g id="line2d_28">
      <g>
       <use xlink:href="#m2ad1356126" x="90" y="291.199111" style="stroke: #000000; stroke-width: 0.8"/>
      </g>
     </g>
     <g id="text_15">
      <!-- −15.21 -->
      <g transform="translate(45.992188 294.99833) scale(0.1 -0.1)">
       <use xlink:href="#DejaVuSans-2212"/>
       <use xlink:href="#DejaVuSans-31" transform="translate(83.789062 0)"/>
       <use xlink:href="#DejaVuSans-35" transform="translate(147.412109 0)"/>
       <use xlink:href="#DejaVuSans-2e" transform="translate(211.035156 0)"/>
       <use xlink:href="#DejaVuSans-32" transform="translate(242.822266 0)"/>
       <use xlink:href="#DejaVuSans-31" transform="translate(306.445312 0)"/>
      </g>
     </g>
    </g>
    <g id="text_16">
     <!-- Latitude (°) -->
     <g transform="translate(39.9125 464.889531) rotate(-90) scale(0.1 -0.1)">
      <defs>
       <path id="DejaVuSans-61" d="M 2194 1759 
Q 1497 1759 1228 1600 
Q 959 1441 959 1056 
Q 959 750 1161 570 
Q 1363 391 1709 391 
Q 2188 391 2477 730 
Q 2766 1069 2766 1631 
L 2766 1759 
L 2194 1759 
z
M 3341 1997 
L 3341 0 
L 2766 0 
L 2766 531 
Q 2569 213 2275 61 
Q 1981 -91 1556 -91 
Q 1019 -91 701 211 
Q 384 513 384 1019 
Q 384 1609 779 1909 
Q 1175 2209 1959 2209 
L 2766 2209 
L 2766 2266 
Q 2766 2663 2505 2880 
Q 2244 3097 1772 3097 
Q 1472 3097 1187 3025 
Q 903 2953 641 2809 
L 641 3341 
Q 956 3463 1253 3523 
Q 1550 3584 1831 3584 
Q 2591 3584 2966 3190 
Q 3341 2797 3341 1997 
z
" transform="scale(0.015625)"/>
      </defs>
      <use xlink:href="#DejaVuSans-4c"/>
      <use xlink:href="#DejaVuSans-61" transform="translate(55.712891 0)"/>
      <use xlink:href="#DejaVuSans-74" transform="translate(116.992188 0)"/>
      <use xlink:href="#DejaVuSans-69" transform="translate(156.201172 0)"/>
      <use xlink:href="#DejaVuSans-74" transform="translate(183.984375 0)"/>
      <use xlink:href="#DejaVuSans-75" transform="translate(223.193359 0)"/>
      <use xlink:href="#DejaVuSans-64" transform="translate(286.572266 0)"/>
      <use xlink:href="#DejaVuSans-65" transform="translate(350.048828 0)"/>
      <use xlink:href="#DejaVuSans-20" transform="translate(411.572266 0)"/>
      <use xlink:href="#DejaVuSans-28" transform="translate(443.359375 0)"/>
      <use xlink:href="#DejaVuSans-b0" transform="translate(482.373047 0)"/>
      <use xlink:href="#DejaVuSans-29" transform="translate(532.373047 0)"/>
     </g>
    </g>
   </g>
   <g id="patch_3">
    <path d="M 90 621.49969 
L 90 251.14031 
" style="fill: none; stroke: #000000; stroke-width: 0.8; stroke-linejoin: miter; stroke-linecap: square"/>
   </g>
   <g id="patch_4">
    <path d="M 648 621.49969 
L 648 251.14031 
" style="fill: none; stroke: #000000; stroke-width: 0.8; stroke-linejoin: miter; stroke-linecap: square"/>
   </g>
   <g id="patch_5">
    <path d="M 90 621.49969 
L 648 621.49969 
" style="fill: none; stroke: #000000; stroke-width: 0.8; stroke-linejoin: miter; stroke-linecap: square"/>
   </g>
   <g id="patch_6">
    <path d="M 90 251.14031 
L 648 251.14031 
" style="fill: none; stroke: #000000; stroke-width: 0.8; stroke-linejoin: miter; stroke-linecap: square"/>
   </g>
  </g>
 </g>
 <defs>
  <clipPath id="p4e8469ab45">
   <rect x="90" y="251.14031" width="558" height="370.35938"/>
  </clipPath>
 </defs>
</svg>
