<?xml version="1.0" encoding="utf-8" standalone="no"?>
<!DOCTYPE svg PUBLIC "-//W3C//DTD SVG 1.1//EN"
  "http://www.w3.org/Graphics/SVG/1.1/DTD/svg11.dtd">
<svg xmlns:xlink="http://www.w3.org/1999/xlink" width="720pt" height="864pt" viewBox="0 0 720 864" xmlns="http://www.w3.org/2000/svg" version="1.1">
 <metadata>
  <rdf:RDF xmlns:dc="http://purl.org/dc/elements/1.1/" xmlns:cc="http://creativecommons.org/ns#" xmlns:rdf="http://www.w3.org/1999/02/22-rdf-syntax-ns#">
   <cc:Work>
    <dc:type rdf:resource="http://purl.org/dc/dcmitype/StillImage"/>
    <dc:date>2025-06-16T17:48:36.195254</dc:date>
    <dc:format>image/svg+xml</dc:format>
    <dc:creator>
     <cc:Agent>
      <dc:title>Matplotlib v3.10.1, https://matplotlib.org/</dc:title>
     </cc:Agent>
    </dc:creator>
   </cc:Work>
  </rdf:RDF>
 </metadata>
 <defs>
  <style type="text/css">*{stroke-linejoin: round; stroke-linecap: butt}</style>
 </defs>
 <g id="figure_1">
  <g id="patch_1">
   <path d="M 0 864 
L 720 864 
L 720 0 
L 0 0 
z
" style="fill: #ffffff"/>
  </g>
  <g id="axes_1">
   <g id="patch_2">
    <path d="M 99.548144 768.96 
L 638.451856 768.96 
L 638.451856 103.68 
L 99.548144 103.68 
z
" style="fill: #ffffff"/>
   </g>
   <g id="PatchCollection_1">
    <path d="M 333.726623 316.903434 
L 362.592709 345.564618 
L 362.333929 349.139534 
L 362.353565 374.559866 
L 365.797763 379.776747 
L 367.175259 386.325792 
L 331.965378 413.100259 
L 320.98585 392.964913 
L 310.707996 373.939677 
L 301.504018 357.078185 
L 290.383473 336.618579 
L 304.020761 339.388876 
L 309.974947 331.965981 
L 333.726623 316.903434 
" clip-path="url(#p25393190ca)" style="fill: #e0bd1f; stroke: #0000ff; stroke-width: 0.5"/>
    <path d="M 418.360772 133.92 
L 416.729323 174.112164 
L 413.521209 173.73872 
L 412.76027 176.210339 
L 410.559874 176.437965 
L 408.205119 176.907298 
L 405.48032 177.615011 
L 403.406769 177.93507 
L 402.65607 178.226707 
L 400.431614 178.294303 
L 398.121525 177.910233 
L 395.729136 177.885269 
L 394.913412 178.386736 
L 393.974298 178.774391 
L 393.504803 180.691157 
L 394.299922 182.839133 
L 392.61702 184.108612 
L 392.459329 185.520454 
L 389.936764 185.602261 
L 385.491307 187.52978 
L 383.277215 189.154909 
L 380.223338 187.138541 
L 377.025466 187.618628 
L 377.834404 191.743797 
L 380.73059 195.655679 
L 383.527324 197.284392 
L 384.068878 199.30076 
L 383.081767 201.338507 
L 379.260163 200.737438 
L 376.343371 199.361187 
L 380.16843 208.073944 
L 395.040256 241.029204 
L 286.303723 308.44067 
L 287.252269 333.912379 
L 185.926461 398.918231 
L 180.647811 402.872803 
L 179.318573 403.20996 
L 179.825948 401.769697 
L 180.8713 401.495855 
L 184.768294 398.07123 
L 186.427258 396.901225 
L 186.99275 395.859243 
L 186.71167 394.707032 
L 185.851402 393.910471 
L 183.603008 393.355746 
L 181.385338 394.237699 
L 179.380267 396.456728 
L 176.785767 397.000827 
L 173.656499 398.643751 
L 171.767908 397.800973 
L 170.448386 397.70854 
L 166.832349 398.512271 
L 163.531694 399.635932 
L 157.78041 401.51365 
L 155.621103 401.471018 
L 154.102679 400.254796 
L 153.917595 396.133085 
L 153.228715 391.520659 
L 153.900444 390.005759 
L 152.916787 386.748332 
L 149.948665 384.241123 
L 147.234108 383.569 
L 145.239278 382.484387 
L 143.316508 381.186358 
L 142.319032 378.181394 
L 142.110011 372.331494 
L 139.642231 367.018525 
L 139.309698 363.817941 
L 139.847921 361.2681 
L 137.620009 356.13654 
L 135.23453 343.334204 
L 132.780447 338.992036 
L 132.112049 336.267955 
L 127.553567 319.65334 
L 126.319677 316.623539 
L 125.733579 312.039535 
L 124.043767 306.3247 
L 129.808747 302.494754 
L 126.134594 301.150509 
L 127.461025 300.492596 
L 127.827737 299.151808 
L 126.377917 296.584299 
L 126.179137 293.600587 
L 128.35214 289.663869 
L 128.081301 289.037963 
L 128.400138 288.355214 
L 129.068413 288.671688 
L 129.339252 288.341004 
L 129.154168 286.612688 
L 130.052193 282.967607 
L 128.554375 279.912842 
L 127.803676 275.190188 
L 129.390705 271.015219 
L 129.263861 268.319559 
L 130.384603 268.924085 
L 132.07096 268.251963 
L 133.839495 268.799647 
L 136.478661 270.837394 
L 138.901897 269.126874 
L 142.970279 267.956869 
L 146.198998 265.709291 
L 152.608315 262.910572 
L 155.439475 263.924133 
L 158.986908 263.849368 
L 162.349257 262.818139 
L 165.173508 261.271233 
L 164.693648 255.054931 
L 165.780088 251.829511 
L 168.285624 248.899184 
L 169.718294 248.077658 
L 169.543451 245.48877 
L 170.770555 244.165777 
L 172.189528 243.507993 
L 172.851016 243.877724 
L 172.778957 241.840104 
L 173.269181 241.167982 
L 174.496161 241.342221 
L 175.027474 238.724784 
L 176.014586 237.981608 
L 176.422387 236.150106 
L 177.179872 234.421791 
L 178.053836 235.353545 
L 179.205548 234.695633 
L 181.261949 234.290311 
L 182.944851 234.332943 
L 184.192437 233.63944 
L 185.721103 233.180733 
L 188.408268 233.582598 
L 191.787769 235.133089 
L 194.731953 237.81441 
L 197.436269 238.79238 
L 200.747166 238.75679 
L 202.550002 239.311643 
L 205.401644 238.202065 
L 206.782984 237.633129 
L 208.976593 238.287456 
L 212.438271 238.870603 
L 214.919747 237.981608 
L 221.84668 232.284569 
L 223.618669 231.132359 
L 226.302379 231.52347 
L 228.057217 233.707037 
L 229.795028 233.710621 
L 231.587623 233.714206 
L 232.149659 231.018546 
L 233.945709 229.684927 
L 236.207799 230.250406 
L 264.923128 185.189769 
L 308.815301 170.523926 
L 418.360772 133.92 
" clip-path="url(#p25393190ca)" style="fill: #e0bd1f; stroke: #0000ff; stroke-width: 0.5"/>
    <path d="M 363.876364 346.722497 
L 376.540685 359.571827 
L 370.070765 382.627038 
L 368.537141 384.993103 
L 367.307333 379.137187 
L 363.961979 374.071145 
L 363.943157 349.386694 
L 363.876364 346.722497 
" clip-path="url(#p25393190ca)" style="fill: #e0bd1f; stroke: #0000ff; stroke-width: 0.5"/>
    <path d="M 349.050726 278.504473 
L 392.217522 301.740784 
L 376.540685 359.571827 
L 363.876364 346.722497 
L 366.72183 340.453149 
L 366.009829 327.477477 
L 367.254033 321.417946 
L 368.509975 316.326782 
L 365.827961 311.082219 
L 362.570892 308.30763 
L 356.36359 307.41445 
L 351.294569 309.173986 
L 347.260027 306.990649 
L 350.271275 300.125354 
L 350.011763 295.802219 
L 349.362568 289.93038 
L 349.050726 278.504473 
" clip-path="url(#p25393190ca)" style="fill: #e0bd1f; stroke: #0000ff; stroke-width: 0.5"/>
    <path d="M 323.563249 304.337211 
L 328.313187 306.087143 
L 332.810277 306.288496 
L 338.261475 307.555316 
L 342.348238 306.058842 
L 346.181593 308.246002 
L 351.153486 310.936077 
L 356.520693 309.073651 
L 361.884323 309.845855 
L 364.543197 312.110023 
L 366.801737 316.526985 
L 365.684243 321.059415 
L 364.390048 327.356515 
L 365.099135 340.250059 
L 362.592709 345.564618 
L 333.726623 316.903434 
L 321.422789 304.862268 
L 323.563249 304.337211 
" clip-path="url(#p25393190ca)" style="fill: #e0bd1f; stroke: #0000ff; stroke-width: 0.5"/>
    <path d="M 347.602045 277.726171 
L 347.75481 290.033785 
L 348.407706 295.940308 
L 348.641033 299.8309 
L 345.849142 306.19471 
L 342.496114 304.281658 
L 338.159374 305.86909 
L 333.02951 304.67624 
L 328.63364 304.479917 
L 324.116592 302.816186 
L 320.174473 303.657818 
L 347.602045 277.726171 
" clip-path="url(#p25393190ca)" style="fill: #e0bd1f; stroke: #0000ff; stroke-width: 0.5"/>
    <path d="M 320.174473 303.657818 
L 321.422789 304.862268 
L 333.726623 316.903434 
L 309.974947 331.965981 
L 304.020761 339.388876 
L 290.383473 336.618579 
L 287.252269 333.912379 
L 320.174473 303.657818 
" clip-path="url(#p25393190ca)" style="fill: #e0bd1f; stroke: #0000ff; stroke-width: 0.5"/>
    <path d="M 287.252269 333.912379 
L 290.383473 336.618579 
L 301.504018 357.078185 
L 159.518263 491.91805 
L 156.957055 492.955208 
L 149.928028 481.939893 
L 142.516212 471.404092 
L 168.442512 458.903557 
L 167.084665 452.467616 
L 164.484649 438.900639 
L 173.330359 438.432533 
L 191.85955 437.750367 
L 197.611255 433.540025 
L 205.591336 427.605335 
L 206.501854 418.317809 
L 207.22471 415.909238 
L 199.294885 407.178978 
L 180.647811 402.872803 
L 185.926461 398.918231 
L 287.252269 333.912379 
" clip-path="url(#p25393190ca)" style="fill: #e0bd1f; stroke: #0000ff; stroke-width: 0.5"/>
    <path d="M 476.497584 574.811057 
L 479.853024 578.875799 
L 481.844399 578.097033 
L 482.379043 578.89001 
L 482.917143 583.246388 
L 482.046633 585.493838 
L 484.637802 585.177365 
L 487.019826 586.90568 
L 483.702143 590.262708 
L 489.665902 589.551539 
L 497.343411 592.961953 
L 502.889129 598.470414 
L 504.105867 602.083617 
L 506.525648 603.090008 
L 509.637765 606.898703 
L 511.440601 607.158335 
L 513.192108 611.546591 
L 522.645061 617.677502 
L 524.533529 618.161174 
L 525.907959 620.369577 
L 525.129991 623.488354 
L 526.6209 622.890869 
L 527.340628 624.174687 
L 530.517894 623.239476 
L 530.432262 625.305645 
L 541.156738 632.848269 
L 543.511493 637.570923 
L 544.255282 635.426532 
L 547.360489 636.464929 
L 549.156539 635.94221 
L 547.422183 640.533255 
L 550.109349 639.043192 
L 558.695123 638.982765 
L 558.640339 637.937198 
L 562.811503 639.441472 
L 563.335906 637.538917 
L 566.132764 638.648496 
L 568.641632 638.001209 
L 567.781364 640.803513 
L 570.221751 639.555285 
L 569.968064 642.410974 
L 571.997195 644.34195 
L 574.920774 642.350419 
L 574.961985 640.700454 
L 582.385806 642.812839 
L 583.530609 646.496967 
L 588.610163 648.250247 
L 588.13709 651.372609 
L 590.505541 649.491306 
L 592.764176 651.713919 
L 592.976776 648.300048 
L 598.347527 651.322808 
L 598.608125 654.957263 
L 601.68594 653.950871 
L 602.943767 659.217496 
L 604.880357 656.930871 
L 613.956233 738.72 
L 554.709043 711.788879 
L 544.251827 714.367141 
L 532.756047 712.364984 
L 463.174907 653.908111 
L 435.384995 604.896546 
L 427.097451 603.321091 
L 434.312252 589.587129 
L 438.951268 590.630323 
L 436.871372 587.252309 
L 455.939367 578.492581 
L 458.65187 582.356414 
L 465.460179 576.44827 
L 466.770338 576.205104 
L 467.788297 578.178712 
L 468.597235 577.801811 
L 470.245835 575.358741 
L 471.397425 576.937653 
L 476.497584 574.811057 
" clip-path="url(#p25393190ca)" style="fill: #e0bd1f; stroke: #0000ff; stroke-width: 0.5"/>
    <path d="M 337.977854 614.292534 
L 352.050576 650.297839 
L 356.124291 659.890585 
L 351.713554 668.972868 
L 341.804343 668.311046 
L 337.096521 675.477136 
L 336.283582 677.511523 
L 314.859087 631.155611 
L 320.458898 626.907935 
L 337.977854 614.292534 
" clip-path="url(#p25393190ca)" style="fill: #e0bd1f; stroke: #0000ff; stroke-width: 0.5"/>
    <path d="M 357.43254 594.597596 
L 367.751371 631.440808 
L 370.655677 641.816347 
L 367.428985 642.901504 
L 357.684539 655.660306 
L 356.124291 659.890585 
L 352.050576 650.297839 
L 337.977854 614.292534 
L 349.453783 606.331894 
L 357.43254 594.597596 
" clip-path="url(#p25393190ca)" style="fill: #e0bd1f; stroke: #0000ff; stroke-width: 0.5"/>
    <path d="M 402.959062 551.230764 
L 410.810085 604.465685 
L 411.667791 610.195911 
L 408.893249 611.305494 
L 392.142489 622.476211 
L 390.666411 622.841324 
L 390.207125 618.579874 
L 381.488553 560.403801 
L 389.541451 556.400291 
L 397.733349 553.625663 
L 402.959062 551.230764 
" clip-path="url(#p25393190ca)" style="fill: #e0bd1f; stroke: #0000ff; stroke-width: 0.5"/>
    <path d="M 329.062087 493.477053 
L 356.854173 592.577078 
L 348.293005 605.169631 
L 337.361618 612.748999 
L 296.436197 507.705621 
L 299.59984 499.631259 
L 329.062087 493.477053 
" clip-path="url(#p25393190ca)" style="fill: #e0bd1f; stroke: #0000ff; stroke-width: 0.5"/>
    <path d="M 402.959062 551.230764 
L 405.787607 552.143312 
L 410.969162 554.969341 
L 416.162641 554.123948 
L 415.224967 558.401651 
L 415.683137 564.373225 
L 415.393485 570.75653 
L 414.317404 576.686381 
L 412.362374 583.334408 
L 412.465819 590.472633 
L 413.99719 597.111878 
L 416.802429 602.323026 
L 421.173781 604.266485 
L 424.699494 604.284007 
L 424.396984 606.75542 
L 418.555912 604.326615 
L 411.667791 610.195911 
L 410.810085 604.465685 
L 402.959062 551.230764 
" clip-path="url(#p25393190ca)" style="fill: #e0bd1f; stroke: #0000ff; stroke-width: 0.5"/>
    <path d="M 424.783545 453.388963 
L 426.976034 453.822618 
L 432.660792 588.845926 
L 424.290764 595.212331 
L 424.596347 602.623257 
L 421.455968 602.621358 
L 417.955654 601.064764 
L 415.516508 596.532375 
L 414.071907 590.275465 
L 413.976166 583.557191 
L 415.88519 577.063397 
L 416.996622 570.938895 
L 417.296234 564.348404 
L 416.848296 558.516757 
L 417.764832 554.335247 
L 421.310482 546.961392 
L 423.663119 541.682642 
L 420.158852 537.407005 
L 412.263095 535.12895 
L 403.419683 532.671684 
L 399.990485 530.299959 
L 396.151109 506.824366 
L 399.770122 502.994038 
L 404.969417 498.595327 
L 411.515575 489.900798 
L 416.499583 480.345548 
L 418.203574 470.858843 
L 415.666519 461.001267 
L 412.010457 454.374458 
L 424.783545 453.388963 
" clip-path="url(#p25393190ca)" style="fill: #e0bd1f; stroke: #0000ff; stroke-width: 0.5"/>
    <path d="M 426.976034 453.822618 
L 444.737945 457.454433 
L 462.946278 455.69439 
L 465.460179 576.44827 
L 458.65187 582.356414 
L 455.939367 578.492581 
L 436.871372 587.252309 
L 438.951268 590.630323 
L 432.660792 588.845926 
L 426.976034 453.822618 
" clip-path="url(#p25393190ca)" style="fill: #e0bd1f; stroke: #0000ff; stroke-width: 0.5"/>
    <path d="M 499.409838 452.155068 
L 562.650791 573.414616 
L 557.48575 574.213801 
L 501.456696 543.592707 
L 500.35047 542.966974 
L 499.044308 549.783716 
L 495.412588 548.952524 
L 491.893696 554.483082 
L 487.740432 556.195524 
L 476.741829 567.643937 
L 475.397641 565.633839 
L 469.242373 569.354903 
L 465.460179 576.44827 
L 462.946278 455.69439 
L 488.672118 452.535521 
L 488.87364 453.659814 
L 499.409838 452.155068 
" clip-path="url(#p25393190ca)" style="fill: #e0bd1f; stroke: #0000ff; stroke-width: 0.5"/>
    <path d="M 388.737592 456.207921 
L 395.946193 504.303528 
L 393.137255 508.368453 
L 391.087276 514.307905 
L 391.015791 521.747126 
L 396.006652 528.339665 
L 400.288456 532.963574 
L 402.595193 549.607833 
L 397.135768 552.11903 
L 388.955346 554.890098 
L 381.225612 558.432995 
L 376.475343 526.824319 
L 354.553035 487.694689 
L 350.74439 459.276975 
L 388.737592 456.207921 
" clip-path="url(#p25393190ca)" style="fill: #e0bd1f; stroke: #0000ff; stroke-width: 0.5"/>
    <path d="M 400.288456 532.963574 
L 402.639404 534.135413 
L 411.827339 536.688449 
L 419.235663 538.825528 
L 421.784969 541.937393 
L 419.851976 546.276941 
L 416.926892 552.359502 
L 411.253336 553.281388 
L 406.376575 550.620848 
L 402.595193 549.607833 
L 400.288456 532.963574 
" clip-path="url(#p25393190ca)" style="fill: #e0bd1f; stroke: #0000ff; stroke-width: 0.5"/>
    <path d="M 396.151109 506.824366 
L 399.990485 530.299959 
L 397.187374 527.22584 
L 392.630806 521.20742 
L 392.694555 514.588607 
L 394.559917 509.185094 
L 396.151109 506.824366 
" clip-path="url(#p25393190ca)" style="fill: #e0bd1f; stroke: #0000ff; stroke-width: 0.5"/>
    <path d="M 410.238395 454.506909 
L 414.168442 461.644242 
L 416.556305 470.919785 
L 414.959453 479.813276 
L 410.152306 489.02934 
L 403.796311 497.472518 
L 398.630156 501.843209 
L 395.946193 504.303528 
L 388.737592 456.207921 
L 410.238395 454.506909 
" clip-path="url(#p25393190ca)" style="fill: #e0bd1f; stroke: #0000ff; stroke-width: 0.5"/>
    <path d="M 296.436197 507.705621 
L 337.361618 612.748999 
L 319.537229 625.579573 
L 314.14502 629.598915 
L 277.711481 551.763428 
L 280.228332 549.229252 
L 296.436197 507.705621 
" clip-path="url(#p25393190ca)" style="fill: #e0bd1f; stroke: #0000ff; stroke-width: 0.5"/>
    <path d="M 232.293225 577.59111 
L 236.989864 580.006868 
L 240.858866 582.617369 
L 245.105995 587.080971 
L 250.197929 589.612942 
L 253.535036 588.687939 
L 258.526394 588.171797 
L 288.835937 640.290199 
L 289.651309 641.707301 
L 247.470336 662.108934 
L 247.781996 660.860466 
L 253.255273 656.426418 
L 257.412711 651.167911 
L 261.18558 648.504066 
L 264.025434 643.905621 
L 265.441611 641.957013 
L 264.920916 637.919292 
L 262.473245 630.008202 
L 259.910456 624.424804 
L 254.791283 622.421836 
L 249.62377 624.4828 
L 242.859534 627.710367 
L 234.47057 626.253495 
L 234.580003 618.44486 
L 233.394287 613.878665 
L 232.738863 610.904112 
L 231.38818 602.659698 
L 236.017374 595.564944 
L 242.096722 590.528226 
L 242.133817 587.278934 
L 241.822012 584.747296 
L 239.773763 584.23837 
L 234.557764 585.011854 
L 230.638028 584.263427 
L 232.293225 577.59111 
" clip-path="url(#p25393190ca)" style="fill: #e0bd1f; stroke: #0000ff; stroke-width: 0.5"/>
    <path d="M 314.859087 631.155611 
L 336.283582 677.511523 
L 336.295522 681.934846 
L 330.024717 684.243724 
L 327.526338 692.25299 
L 327.209083 695.856108 
L 324.4681 700.909756 
L 319.718883 693.27395 
L 289.651309 641.707301 
L 299.351387 635.53154 
L 301.047639 635.236572 
L 304.365585 635.764904 
L 308.950055 634.795815 
L 314.859087 631.155611 
" clip-path="url(#p25393190ca)" style="fill: #e0bd1f; stroke: #0000ff; stroke-width: 0.5"/>
    <path d="M 277.711481 551.763428 
L 314.14502 629.598915 
L 308.307562 633.276766 
L 304.324712 634.118721 
L 301.035549 633.594802 
L 298.761639 633.991268 
L 293.20713 637.526975 
L 288.835937 640.290199 
L 258.526394 588.171797 
L 256.103751 585.84909 
L 254.690287 583.154403 
L 247.699728 577.624735 
L 236.561488 568.012522 
L 277.711481 551.763428 
" clip-path="url(#p25393190ca)" style="fill: #e0bd1f; stroke: #0000ff; stroke-width: 0.5"/>
    <path d="M 289.651309 641.707301 
L 319.718883 693.27395 
L 324.4681 700.909756 
L 322.212767 705.391663 
L 318.346436 707.233629 
L 316.53355 701.696777 
L 314.940394 700.695088 
L 305.615246 703.312499 
L 300.07068 704.780502 
L 299.044253 711.089473 
L 293.935671 706.178844 
L 285.687294 711.359135 
L 280.879079 701.789095 
L 274.947418 707.226314 
L 278.319299 710.852862 
L 277.490468 715.892225 
L 275.056195 724.355701 
L 269.615511 724.790778 
L 263.339946 723.034811 
L 258.174618 721.350403 
L 256.223035 713.043382 
L 259.624991 704.807599 
L 264.511457 695.627019 
L 264.533825 694.602859 
L 265.597991 685.282955 
L 267.062835 678.846921 
L 267.567348 671.141804 
L 262.679552 665.899697 
L 254.510962 666.282138 
L 251.378204 669.678259 
L 253.716287 676.914452 
L 252.994704 678.088446 
L 249.291402 673.63587 
L 247.199209 664.961937 
L 247.470336 662.108934 
L 289.651309 641.707301 
" clip-path="url(#p25393190ca)" style="fill: #e0bd1f; stroke: #0000ff; stroke-width: 0.5"/>
    <path d="M 381.488553 560.403801 
L 390.207125 618.579874 
L 390.666411 622.841324 
L 381.608318 627.935379 
L 372.9716 641.037677 
L 372.0592 641.434431 
L 370.655677 641.816347 
L 367.751371 631.440808 
L 357.43254 594.597596 
L 373.343781 570.80763 
L 381.488553 560.403801 
" clip-path="url(#p25393190ca)" style="fill: #e0bd1f; stroke: #0000ff; stroke-width: 0.5"/>
    <path d="M 354.553035 487.694689 
L 376.475343 526.824319 
L 381.225612 558.432995 
L 372.046502 569.845411 
L 356.854173 592.577078 
L 329.062087 493.477053 
L 354.553035 487.694689 
" clip-path="url(#p25393190ca)" style="fill: #e0bd1f; stroke: #0000ff; stroke-width: 0.5"/>
    <path d="M 310.707996 373.939677 
L 320.98585 392.964913 
L 192.523724 574.389569 
L 180.932915 569.68986 
L 177.344993 566.352863 
L 175.921872 559.181532 
L 175.350092 558.513514 
L 164.941193 553.934564 
L 163.671965 548.933886 
L 310.707996 373.939677 
" clip-path="url(#p25393190ca)" style="fill: #e0bd1f; stroke: #0000ff; stroke-width: 0.5"/>
    <path d="M 320.98585 392.964913 
L 331.965378 413.100259 
L 331.555088 413.438866 
L 299.59984 499.631259 
L 296.436197 507.705621 
L 280.228332 549.229252 
L 277.711481 551.763428 
L 236.561488 568.012522 
L 230.718149 566.498526 
L 224.363035 566.698447 
L 218.738018 570.338653 
L 215.955071 566.858049 
L 212.316226 565.207315 
L 210.38476 565.411403 
L 202.36974 573.063473 
L 194.83938 576.086007 
L 192.523724 574.389569 
L 320.98585 392.964913 
" clip-path="url(#p25393190ca)" style="fill: #e0bd1f; stroke: #0000ff; stroke-width: 0.5"/>
    <path d="M 367.175259 386.325792 
L 367.375908 387.183984 
L 376.002273 410.928195 
L 385.163023 420.758275 
L 396.242902 435.100342 
L 407.929014 451.483476 
L 410.238395 454.506909 
L 388.737592 456.207921 
L 350.74439 459.276975 
L 354.553035 487.694689 
L 329.062087 493.477053 
L 299.59984 499.631259 
L 331.555088 413.438866 
L 331.965378 413.100259 
L 367.175259 386.325792 
" clip-path="url(#p25393190ca)" style="fill: #e0bd1f; stroke: #0000ff; stroke-width: 0.5"/>
    <path d="M 301.504018 357.078185 
L 310.707996 373.939677 
L 163.671965 548.933886 
L 161.460648 548.291882 
L 164.507542 537.081717 
L 163.610178 536.074772 
L 161.061806 533.838518 
L 149.05109 531.599351 
L 146.41181 528.721585 
L 143.967246 522.746079 
L 140.53532 510.834041 
L 145.322689 503.968521 
L 152.031948 504.886221 
L 156.360161 497.504559 
L 156.957055 492.955208 
L 159.518263 491.91805 
L 301.504018 357.078185 
" clip-path="url(#p25393190ca)" style="fill: #e0bd1f; stroke: #0000ff; stroke-width: 0.5"/>
    <path d="M 347.602045 277.726171 
L 349.050726 278.504473 
L 392.217522 301.740784 
L 376.540685 359.571827 
L 370.070765 382.627038 
L 368.537141 384.993103 
L 367.175259 386.325792 
L 367.375908 387.183984 
L 376.002273 410.928195 
L 385.163023 420.758275 
L 396.242902 435.100342 
L 407.929014 451.483476 
L 410.238395 454.506909 
L 412.010457 454.374458 
L 424.783545 453.388963 
L 426.976034 453.822618 
L 444.737945 457.454433 
L 462.946278 455.69439 
L 465.460179 576.44827 
L 458.65187 582.356414 
L 455.939367 578.492581 
L 436.871372 587.252309 
L 438.951268 590.630323 
L 432.660792 588.845926 
L 424.290764 595.212331 
L 424.596347 602.623257 
L 424.699494 604.284007 
L 424.396984 606.75542 
L 418.555912 604.326615 
L 411.667791 610.195911 
L 408.893249 611.305494 
L 392.142489 622.476211 
L 390.666411 622.841324 
L 381.608318 627.935379 
L 372.9716 641.037677 
L 372.0592 641.434431 
L 370.655677 641.816347 
L 367.428985 642.901504 
L 357.684539 655.660306 
L 356.124291 659.890585 
L 351.713554 668.972868 
L 341.804343 668.311046 
L 337.096521 675.477136 
L 336.283582 677.511523 
L 336.295522 681.934846 
L 330.024717 684.243724 
L 327.526338 692.25299 
L 327.209083 695.856108 
L 324.4681 700.909756 
L 322.212767 705.391663 
L 318.346436 707.233629 
L 316.53355 701.696777 
L 314.940394 700.695088 
L 305.615246 703.312499 
L 300.07068 704.780502 
L 299.044253 711.089473 
L 293.935671 706.178844 
L 285.687294 711.359135 
L 280.879079 701.789095 
L 274.947418 707.226314 
L 278.319299 710.852862 
L 277.490468 715.892225 
L 275.056195 724.355701 
L 269.615511 724.790778 
L 263.339946 723.034811 
L 258.174618 721.350403 
L 256.223035 713.043382 
L 259.624991 704.807599 
L 264.511457 695.627019 
L 264.533825 694.602859 
L 265.597991 685.282955 
L 267.062835 678.846921 
L 267.567348 671.141804 
L 262.679552 665.899697 
L 254.510962 666.282138 
L 251.378204 669.678259 
L 253.716287 676.914452 
L 252.994704 678.088446 
L 249.291402 673.63587 
L 247.199209 664.961937 
L 247.470336 662.108934 
L 247.781996 660.860466 
L 253.255273 656.426418 
L 257.412711 651.167911 
L 261.18558 648.504066 
L 264.025434 643.905621 
L 265.441611 641.957013 
L 264.920916 637.919292 
L 262.473245 630.008202 
L 259.910456 624.424804 
L 254.791283 622.421836 
L 249.62377 624.4828 
L 242.859534 627.710367 
L 234.47057 626.253495 
L 234.580003 618.44486 
L 233.394287 613.878665 
L 232.738863 610.904112 
L 231.38818 602.659698 
L 236.017374 595.564944 
L 242.096722 590.528226 
L 242.133817 587.278934 
L 241.822012 584.747296 
L 239.773763 584.23837 
L 234.557764 585.011854 
L 230.638028 584.263427 
L 232.293225 577.59111 
L 236.989864 580.006868 
L 240.858866 582.617369 
L 245.105995 587.080971 
L 250.197929 589.612942 
L 253.535036 588.687939 
L 258.526394 588.171797 
L 256.103751 585.84909 
L 254.690287 583.154403 
L 247.699728 577.624735 
L 236.561488 568.012522 
L 230.718149 566.498526 
L 224.363035 566.698447 
L 218.738018 570.338653 
L 215.955071 566.858049 
L 212.316226 565.207315 
L 210.38476 565.411403 
L 202.36974 573.063473 
L 194.83938 576.086007 
L 192.523724 574.389569 
L 180.932915 569.68986 
L 177.344993 566.352863 
L 175.921872 559.181532 
L 175.350092 558.513514 
L 164.941193 553.934564 
L 163.671965 548.933886 
L 161.460648 548.291882 
L 164.507542 537.081717 
L 163.610178 536.074772 
L 161.061806 533.838518 
L 149.05109 531.599351 
L 146.41181 528.721585 
L 143.967246 522.746079 
L 140.53532 510.834041 
L 145.322689 503.968521 
L 152.031948 504.886221 
L 156.360161 497.504559 
L 156.957055 492.955208 
L 149.928028 481.939893 
L 142.516212 471.404092 
L 168.442512 458.903557 
L 167.084665 452.467616 
L 164.484649 438.900639 
L 173.330359 438.432533 
L 191.85955 437.750367 
L 197.611255 433.540025 
L 205.591336 427.605335 
L 206.501854 418.317809 
L 207.22471 415.909238 
L 199.294885 407.178978 
L 180.647811 402.872803 
L 185.926461 398.918231 
L 287.252269 333.912379 
L 320.174473 303.657818 
L 347.602045 277.726171 
" clip-path="url(#p25393190ca)" style="fill: #e0bd1f; stroke: #0000ff; stroke-width: 0.5"/>
   </g>
   <g id="PatchCollection_2">
    <path d="M 347.602045 277.726171 
L 392.217522 301.740784 
L 376.540685 359.571827 
L 370.070765 382.627038 
L 368.537141 384.993103 
L 367.175259 386.325792 
L 367.375908 387.183984 
L 376.002273 410.928195 
L 385.163023 420.758275 
L 396.242902 435.100342 
L 407.929014 451.483476 
L 410.238395 454.506909 
L 424.783545 453.388963 
L 426.976034 453.822618 
L 444.737945 457.454433 
L 462.946278 455.69439 
L 465.460179 576.44827 
L 458.65187 582.356414 
L 455.939367 578.492581 
L 436.871372 587.252309 
L 438.951268 590.630323 
L 432.660792 588.845926 
L 424.290764 595.212331 
L 424.699494 604.284007 
L 424.396984 606.75542 
L 418.555912 604.326615 
L 411.667791 610.195911 
L 408.893249 611.305494 
L 392.142489 622.476211 
L 390.666411 622.841324 
L 381.608318 627.935379 
L 372.9716 641.037677 
L 372.0592 641.434431 
L 370.655677 641.816347 
L 367.428985 642.901504 
L 357.684539 655.660306 
L 356.124291 659.890585 
L 351.713554 668.972868 
L 341.804343 668.311046 
L 337.096521 675.477136 
L 336.283582 677.511523 
L 336.295522 681.934846 
L 330.024717 684.243724 
L 327.526338 692.25299 
L 327.209083 695.856108 
L 324.4681 700.909756 
L 322.212767 705.391663 
L 318.346436 707.233629 
L 316.53355 701.696777 
L 314.940394 700.695088 
L 300.07068 704.780502 
L 299.044253 711.089473 
L 293.935671 706.178844 
L 285.687294 711.359135 
L 280.879079 701.789095 
L 274.947418 707.226314 
L 278.319299 710.852862 
L 277.490468 715.892225 
L 275.056195 724.355701 
L 269.615511 724.790778 
L 263.339946 723.034811 
L 258.174618 721.350403 
L 256.223035 713.043382 
L 259.624991 704.807599 
L 264.511457 695.627019 
L 264.533825 694.602859 
L 265.597991 685.282955 
L 267.062835 678.846921 
L 267.567348 671.141804 
L 262.679552 665.899697 
L 254.510962 666.282138 
L 251.378204 669.678259 
L 253.716287 676.914452 
L 252.994704 678.088446 
L 249.291402 673.63587 
L 247.199209 664.961937 
L 247.470336 662.108934 
L 247.781996 660.860466 
L 253.255273 656.426418 
L 257.412711 651.167911 
L 261.18558 648.504066 
L 264.025434 643.905621 
L 265.441611 641.957013 
L 264.920916 637.919292 
L 262.473245 630.008202 
L 259.910456 624.424804 
L 254.791283 622.421836 
L 249.62377 624.4828 
L 242.859534 627.710367 
L 234.47057 626.253495 
L 234.580003 618.44486 
L 233.394287 613.878665 
L 232.738863 610.904112 
L 231.38818 602.659698 
L 236.017374 595.564944 
L 242.096722 590.528226 
L 242.133817 587.278934 
L 241.822012 584.747296 
L 239.773763 584.23837 
L 234.557764 585.011854 
L 230.638028 584.263427 
L 232.293225 577.59111 
L 236.989864 580.006868 
L 240.858866 582.617369 
L 245.105995 587.080971 
L 250.197929 589.612942 
L 253.535036 588.687939 
L 258.526394 588.171797 
L 256.103751 585.84909 
L 254.690287 583.154403 
L 247.699728 577.624735 
L 236.561488 568.012522 
L 230.718149 566.498526 
L 224.363035 566.698447 
L 218.738018 570.338653 
L 215.955071 566.858049 
L 212.316226 565.207315 
L 210.38476 565.411403 
L 202.36974 573.063473 
L 194.83938 576.086007 
L 192.523724 574.389569 
L 180.932915 569.68986 
L 177.344993 566.352863 
L 175.921872 559.181532 
L 175.350092 558.513514 
L 164.941193 553.934564 
L 163.671965 548.933886 
L 161.460648 548.291882 
L 164.507542 537.081717 
L 163.610178 536.074772 
L 161.061806 533.838518 
L 149.05109 531.599351 
L 146.41181 528.721585 
L 143.967246 522.746079 
L 140.53532 510.834041 
L 145.322689 503.968521 
L 152.031948 504.886221 
L 156.360161 497.504559 
L 156.957055 492.955208 
L 149.928028 481.939893 
L 142.516212 471.404092 
L 168.442512 458.903557 
L 167.084665 452.467616 
L 164.484649 438.900639 
L 173.330359 438.432533 
L 191.85955 437.750367 
L 205.591336 427.605335 
L 206.501854 418.317809 
L 207.22471 415.909238 
L 199.294885 407.178978 
L 180.647811 402.872803 
L 185.926461 398.918231 
L 287.252269 333.912379 
L 320.174473 303.657818 
L 347.602045 277.726171 
L 347.602045 277.726171 
" clip-path="url(#p25393190ca)" style="fill: none; stroke: #000000"/>
   </g>
   <g id="matplotlib.axis_1">
    <g id="xtick_1">
     <g id="line2d_1">
      <path d="M 105.847349 768.96 
L 105.847349 103.68 
" clip-path="url(#p25393190ca)" style="fill: none; stroke: #b0b0b0; stroke-width: 0.8; stroke-linecap: square"/>
     </g>
     <g id="line2d_2">
      <defs>
       <path id="m0febf45ae6" d="M 0 0 
L 0 3.5 
" style="stroke: #000000; stroke-width: 0.8"/>
      </defs>
      <g>
       <use xlink:href="#m0febf45ae6" x="105.847349" y="768.96" style="stroke: #000000; stroke-width: 0.8"/>
      </g>
     </g>
     <g id="text_1">
      <!-- −55.425 -->
      <g transform="translate(92.4648 812.000349) rotate(-45) scale(0.1 -0.1)">
       <defs>
        <path id="DejaVuSans-2212" d="M 678 2272 
L 4684 2272 
L 4684 1741 
L 678 1741 
L 678 2272 
z
" transform="scale(0.015625)"/>
        <path id="DejaVuSans-35" d="M 691 4666 
L 3169 4666 
L 3169 4134 
L 1269 4134 
L 1269 2991 
Q 1406 3038 1543 3061 
Q 1681 3084 1819 3084 
Q 2600 3084 3056 2656 
Q 3513 2228 3513 1497 
Q 3513 744 3044 326 
Q 2575 -91 1722 -91 
Q 1428 -91 1123 -41 
Q 819 9 494 109 
L 494 744 
Q 775 591 1075 516 
Q 1375 441 1709 441 
Q 2250 441 2565 725 
Q 2881 1009 2881 1497 
Q 2881 1984 2565 2268 
Q 2250 2553 1709 2553 
Q 1456 2553 1204 2497 
Q 953 2441 691 2322 
L 691 4666 
z
" transform="scale(0.015625)"/>
        <path id="DejaVuSans-2e" d="M 684 794 
L 1344 794 
L 1344 0 
L 684 0 
L 684 794 
z
" transform="scale(0.015625)"/>
        <path id="DejaVuSans-34" d="M 2419 4116 
L 825 1625 
L 2419 1625 
L 2419 4116 
z
M 2253 4666 
L 3047 4666 
L 3047 1625 
L 3713 1625 
L 3713 1100 
L 3047 1100 
L 3047 0 
L 2419 0 
L 2419 1100 
L 313 1100 
L 313 1709 
L 2253 4666 
z
" transform="scale(0.015625)"/>
        <path id="DejaVuSans-32" d="M 1228 531 
L 3431 531 
L 3431 0 
L 469 0 
L 469 531 
Q 828 903 1448 1529 
Q 2069 2156 2228 2338 
Q 2531 2678 2651 2914 
Q 2772 3150 2772 3378 
Q 2772 3750 2511 3984 
Q 2250 4219 1831 4219 
Q 1534 4219 1204 4116 
Q 875 4013 500 3803 
L 500 4441 
Q 881 4594 1212 4672 
Q 1544 4750 1819 4750 
Q 2544 4750 2975 4387 
Q 3406 4025 3406 3419 
Q 3406 3131 3298 2873 
Q 3191 2616 2906 2266 
Q 2828 2175 2409 1742 
Q 1991 1309 1228 531 
z
" transform="scale(0.015625)"/>
       </defs>
       <use xlink:href="#DejaVuSans-2212"/>
       <use xlink:href="#DejaVuSans-35" transform="translate(83.789062 0)"/>
       <use xlink:href="#DejaVuSans-35" transform="translate(147.412109 0)"/>
       <use xlink:href="#DejaVuSans-2e" transform="translate(211.035156 0)"/>
       <use xlink:href="#DejaVuSans-34" transform="translate(242.822266 0)"/>
       <use xlink:href="#DejaVuSans-32" transform="translate(306.445312 0)"/>
       <use xlink:href="#DejaVuSans-35" transform="translate(370.068359 0)"/>
      </g>
     </g>
    </g>
    <g id="xtick_2">
     <g id="line2d_3">
      <path d="M 167.541835 768.96 
L 167.541835 103.68 
" clip-path="url(#p25393190ca)" style="fill: none; stroke: #b0b0b0; stroke-width: 0.8; stroke-linecap: square"/>
     </g>
     <g id="line2d_4">
      <g>
       <use xlink:href="#m0febf45ae6" x="167.541835" y="768.96" style="stroke: #000000; stroke-width: 0.8"/>
      </g>
     </g>
     <g id="text_2">
      <!-- −55.420 -->
      <g transform="translate(154.159287 812.000349) rotate(-45) scale(0.1 -0.1)">
       <defs>
        <path id="DejaVuSans-30" d="M 2034 4250 
Q 1547 4250 1301 3770 
Q 1056 3291 1056 2328 
Q 1056 1369 1301 889 
Q 1547 409 2034 409 
Q 2525 409 2770 889 
Q 3016 1369 3016 2328 
Q 3016 3291 2770 3770 
Q 2525 4250 2034 4250 
z
M 2034 4750 
Q 2819 4750 3233 4129 
Q 3647 3509 3647 2328 
Q 3647 1150 3233 529 
Q 2819 -91 2034 -91 
Q 1250 -91 836 529 
Q 422 1150 422 2328 
Q 422 3509 836 4129 
Q 1250 4750 2034 4750 
z
" transform="scale(0.015625)"/>
       </defs>
       <use xlink:href="#DejaVuSans-2212"/>
       <use xlink:href="#DejaVuSans-35" transform="translate(83.789062 0)"/>
       <use xlink:href="#DejaVuSans-35" transform="translate(147.412109 0)"/>
       <use xlink:href="#DejaVuSans-2e" transform="translate(211.035156 0)"/>
       <use xlink:href="#DejaVuSans-34" transform="translate(242.822266 0)"/>
       <use xlink:href="#DejaVuSans-32" transform="translate(306.445312 0)"/>
       <use xlink:href="#DejaVuSans-30" transform="translate(370.068359 0)"/>
      </g>
     </g>
    </g>
    <g id="xtick_3">
     <g id="line2d_5">
      <path d="M 229.236322 768.96 
L 229.236322 103.68 
" clip-path="url(#p25393190ca)" style="fill: none; stroke: #b0b0b0; stroke-width: 0.8; stroke-linecap: square"/>
     </g>
     <g id="line2d_6">
      <g>
       <use xlink:href="#m0febf45ae6" x="229.236322" y="768.96" style="stroke: #000000; stroke-width: 0.8"/>
      </g>
     </g>
     <g id="text_3">
      <!-- −55.415 -->
      <g transform="translate(215.853774 812.000349) rotate(-45) scale(0.1 -0.1)">
       <defs>
        <path id="DejaVuSans-31" d="M 794 531 
L 1825 531 
L 1825 4091 
L 703 3866 
L 703 4441 
L 1819 4666 
L 2450 4666 
L 2450 531 
L 3481 531 
L 3481 0 
L 794 0 
L 794 531 
z
" transform="scale(0.015625)"/>
       </defs>
       <use xlink:href="#DejaVuSans-2212"/>
       <use xlink:href="#DejaVuSans-35" transform="translate(83.789062 0)"/>
       <use xlink:href="#DejaVuSans-35" transform="translate(147.412109 0)"/>
       <use xlink:href="#DejaVuSans-2e" transform="translate(211.035156 0)"/>
       <use xlink:href="#DejaVuSans-34" transform="translate(242.822266 0)"/>
       <use xlink:href="#DejaVuSans-31" transform="translate(306.445312 0)"/>
       <use xlink:href="#DejaVuSans-35" transform="translate(370.068359 0)"/>
      </g>
     </g>
    </g>
    <g id="xtick_4">
     <g id="line2d_7">
      <path d="M 290.930809 768.96 
L 290.930809 103.68 
" clip-path="url(#p25393190ca)" style="fill: none; stroke: #b0b0b0; stroke-width: 0.8; stroke-linecap: square"/>
     </g>
     <g id="line2d_8">
      <g>
       <use xlink:href="#m0febf45ae6" x="290.930809" y="768.96" style="stroke: #000000; stroke-width: 0.8"/>
      </g>
     </g>
     <g id="text_4">
      <!-- −55.410 -->
      <g transform="translate(277.548261 812.000349) rotate(-45) scale(0.1 -0.1)">
       <use xlink:href="#DejaVuSans-2212"/>
       <use xlink:href="#DejaVuSans-35" transform="translate(83.789062 0)"/>
       <use xlink:href="#DejaVuSans-35" transform="translate(147.412109 0)"/>
       <use xlink:href="#DejaVuSans-2e" transform="translate(211.035156 0)"/>
       <use xlink:href="#DejaVuSans-34" transform="translate(242.822266 0)"/>
       <use xlink:href="#DejaVuSans-31" transform="translate(306.445312 0)"/>
       <use xlink:href="#DejaVuSans-30" transform="translate(370.068359 0)"/>
      </g>
     </g>
    </g>
    <g id="xtick_5">
     <g id="line2d_9">
      <path d="M 352.625296 768.96 
L 352.625296 103.68 
" clip-path="url(#p25393190ca)" style="fill: none; stroke: #b0b0b0; stroke-width: 0.8; stroke-linecap: square"/>
     </g>
     <g id="line2d_10">
      <g>
       <use xlink:href="#m0febf45ae6" x="352.625296" y="768.96" style="stroke: #000000; stroke-width: 0.8"/>
      </g>
     </g>
     <g id="text_5">
      <!-- −55.405 -->
      <g transform="translate(339.242748 812.000349) rotate(-45) scale(0.1 -0.1)">
       <use xlink:href="#DejaVuSans-2212"/>
       <use xlink:href="#DejaVuSans-35" transform="translate(83.789062 0)"/>
       <use xlink:href="#DejaVuSans-35" transform="translate(147.412109 0)"/>
       <use xlink:href="#DejaVuSans-2e" transform="translate(211.035156 0)"/>
       <use xlink:href="#DejaVuSans-34" transform="translate(242.822266 0)"/>
       <use xlink:href="#DejaVuSans-30" transform="translate(306.445312 0)"/>
       <use xlink:href="#DejaVuSans-35" transform="translate(370.068359 0)"/>
      </g>
     </g>
    </g>
    <g id="xtick_6">
     <g id="line2d_11">
      <path d="M 414.319783 768.96 
L 414.319783 103.68 
" clip-path="url(#p25393190ca)" style="fill: none; stroke: #b0b0b0; stroke-width: 0.8; stroke-linecap: square"/>
     </g>
     <g id="line2d_12">
      <g>
       <use xlink:href="#m0febf45ae6" x="414.319783" y="768.96" style="stroke: #000000; stroke-width: 0.8"/>
      </g>
     </g>
     <g id="text_6">
      <!-- −55.400 -->
      <g transform="translate(400.937235 812.000349) rotate(-45) scale(0.1 -0.1)">
       <use xlink:href="#DejaVuSans-2212"/>
       <use xlink:href="#DejaVuSans-35" transform="translate(83.789062 0)"/>
       <use xlink:href="#DejaVuSans-35" transform="translate(147.412109 0)"/>
       <use xlink:href="#DejaVuSans-2e" transform="translate(211.035156 0)"/>
       <use xlink:href="#DejaVuSans-34" transform="translate(242.822266 0)"/>
       <use xlink:href="#DejaVuSans-30" transform="translate(306.445312 0)"/>
       <use xlink:href="#DejaVuSans-30" transform="translate(370.068359 0)"/>
      </g>
     </g>
    </g>
    <g id="xtick_7">
     <g id="line2d_13">
      <path d="M 476.01427 768.96 
L 476.01427 103.68 
" clip-path="url(#p25393190ca)" style="fill: none; stroke: #b0b0b0; stroke-width: 0.8; stroke-linecap: square"/>
     </g>
     <g id="line2d_14">
      <g>
       <use xlink:href="#m0febf45ae6" x="476.01427" y="768.96" style="stroke: #000000; stroke-width: 0.8"/>
      </g>
     </g>
     <g id="text_7">
      <!-- −55.395 -->
      <g transform="translate(462.631722 812.000349) rotate(-45) scale(0.1 -0.1)">
       <defs>
        <path id="DejaVuSans-33" d="M 2597 2516 
Q 3050 2419 3304 2112 
Q 3559 1806 3559 1356 
Q 3559 666 3084 287 
Q 2609 -91 1734 -91 
Q 1441 -91 1130 -33 
Q 819 25 488 141 
L 488 750 
Q 750 597 1062 519 
Q 1375 441 1716 441 
Q 2309 441 2620 675 
Q 2931 909 2931 1356 
Q 2931 1769 2642 2001 
Q 2353 2234 1838 2234 
L 1294 2234 
L 1294 2753 
L 1863 2753 
Q 2328 2753 2575 2939 
Q 2822 3125 2822 3475 
Q 2822 3834 2567 4026 
Q 2313 4219 1838 4219 
Q 1578 4219 1281 4162 
Q 984 4106 628 3988 
L 628 4550 
Q 988 4650 1302 4700 
Q 1616 4750 1894 4750 
Q 2613 4750 3031 4423 
Q 3450 4097 3450 3541 
Q 3450 3153 3228 2886 
Q 3006 2619 2597 2516 
z
" transform="scale(0.015625)"/>
        <path id="DejaVuSans-39" d="M 703 97 
L 703 672 
Q 941 559 1184 500 
Q 1428 441 1663 441 
Q 2288 441 2617 861 
Q 2947 1281 2994 2138 
Q 2813 1869 2534 1725 
Q 2256 1581 1919 1581 
Q 1219 1581 811 2004 
Q 403 2428 403 3163 
Q 403 3881 828 4315 
Q 1253 4750 1959 4750 
Q 2769 4750 3195 4129 
Q 3622 3509 3622 2328 
Q 3622 1225 3098 567 
Q 2575 -91 1691 -91 
Q 1453 -91 1209 -44 
Q 966 3 703 97 
z
M 1959 2075 
Q 2384 2075 2632 2365 
Q 2881 2656 2881 3163 
Q 2881 3666 2632 3958 
Q 2384 4250 1959 4250 
Q 1534 4250 1286 3958 
Q 1038 3666 1038 3163 
Q 1038 2656 1286 2365 
Q 1534 2075 1959 2075 
z
" transform="scale(0.015625)"/>
       </defs>
       <use xlink:href="#DejaVuSans-2212"/>
       <use xlink:href="#DejaVuSans-35" transform="translate(83.789062 0)"/>
       <use xlink:href="#DejaVuSans-35" transform="translate(147.412109 0)"/>
       <use xlink:href="#DejaVuSans-2e" transform="translate(211.035156 0)"/>
       <use xlink:href="#DejaVuSans-33" transform="translate(242.822266 0)"/>
       <use xlink:href="#DejaVuSans-39" transform="translate(306.445312 0)"/>
       <use xlink:href="#DejaVuSans-35" transform="translate(370.068359 0)"/>
      </g>
     </g>
    </g>
    <g id="xtick_8">
     <g id="line2d_15">
      <path d="M 537.708757 768.96 
L 537.708757 103.68 
" clip-path="url(#p25393190ca)" style="fill: none; stroke: #b0b0b0; stroke-width: 0.8; stroke-linecap: square"/>
     </g>
     <g id="line2d_16">
      <g>
       <use xlink:href="#m0febf45ae6" x="537.708757" y="768.96" style="stroke: #000000; stroke-width: 0.8"/>
      </g>
     </g>
     <g id="text_8">
      <!-- −55.390 -->
      <g transform="translate(524.326208 812.000349) rotate(-45) scale(0.1 -0.1)">
       <use xlink:href="#DejaVuSans-2212"/>
       <use xlink:href="#DejaVuSans-35" transform="translate(83.789062 0)"/>
       <use xlink:href="#DejaVuSans-35" transform="translate(147.412109 0)"/>
       <use xlink:href="#DejaVuSans-2e" transform="translate(211.035156 0)"/>
       <use xlink:href="#DejaVuSans-33" transform="translate(242.822266 0)"/>
       <use xlink:href="#DejaVuSans-39" transform="translate(306.445312 0)"/>
       <use xlink:href="#DejaVuSans-30" transform="translate(370.068359 0)"/>
      </g>
     </g>
    </g>
    <g id="xtick_9">
     <g id="line2d_17">
      <path d="M 599.403244 768.96 
L 599.403244 103.68 
" clip-path="url(#p25393190ca)" style="fill: none; stroke: #b0b0b0; stroke-width: 0.8; stroke-linecap: square"/>
     </g>
     <g id="line2d_18">
      <g>
       <use xlink:href="#m0febf45ae6" x="599.403244" y="768.96" style="stroke: #000000; stroke-width: 0.8"/>
      </g>
     </g>
     <g id="text_9">
      <!-- −55.385 -->
      <g transform="translate(586.020695 812.000349) rotate(-45) scale(0.1 -0.1)">
       <defs>
        <path id="DejaVuSans-38" d="M 2034 2216 
Q 1584 2216 1326 1975 
Q 1069 1734 1069 1313 
Q 1069 891 1326 650 
Q 1584 409 2034 409 
Q 2484 409 2743 651 
Q 3003 894 3003 1313 
Q 3003 1734 2745 1975 
Q 2488 2216 2034 2216 
z
M 1403 2484 
Q 997 2584 770 2862 
Q 544 3141 544 3541 
Q 544 4100 942 4425 
Q 1341 4750 2034 4750 
Q 2731 4750 3128 4425 
Q 3525 4100 3525 3541 
Q 3525 3141 3298 2862 
Q 3072 2584 2669 2484 
Q 3125 2378 3379 2068 
Q 3634 1759 3634 1313 
Q 3634 634 3220 271 
Q 2806 -91 2034 -91 
Q 1263 -91 848 271 
Q 434 634 434 1313 
Q 434 1759 690 2068 
Q 947 2378 1403 2484 
z
M 1172 3481 
Q 1172 3119 1398 2916 
Q 1625 2713 2034 2713 
Q 2441 2713 2670 2916 
Q 2900 3119 2900 3481 
Q 2900 3844 2670 4047 
Q 2441 4250 2034 4250 
Q 1625 4250 1398 4047 
Q 1172 3844 1172 3481 
z
" transform="scale(0.015625)"/>
       </defs>
       <use xlink:href="#DejaVuSans-2212"/>
       <use xlink:href="#DejaVuSans-35" transform="translate(83.789062 0)"/>
       <use xlink:href="#DejaVuSans-35" transform="translate(147.412109 0)"/>
       <use xlink:href="#DejaVuSans-2e" transform="translate(211.035156 0)"/>
       <use xlink:href="#DejaVuSans-33" transform="translate(242.822266 0)"/>
       <use xlink:href="#DejaVuSans-38" transform="translate(306.445312 0)"/>
       <use xlink:href="#DejaVuSans-35" transform="translate(370.068359 0)"/>
      </g>
     </g>
    </g>
    <g id="text_10">
     <!-- Longitude (°) -->
     <g transform="translate(336.139844 825.069347) scale(0.1 -0.1)">
      <defs>
       <path id="DejaVuSans-4c" d="M 628 4666 
L 1259 4666 
L 1259 531 
L 3531 531 
L 3531 0 
L 628 0 
L 628 4666 
z
" transform="scale(0.015625)"/>
       <path id="DejaVuSans-6f" d="M 1959 3097 
Q 1497 3097 1228 2736 
Q 959 2375 959 1747 
Q 959 1119 1226 758 
Q 1494 397 1959 397 
Q 2419 397 2687 759 
Q 2956 1122 2956 1747 
Q 2956 2369 2687 2733 
Q 2419 3097 1959 3097 
z
M 1959 3584 
Q 2709 3584 3137 3096 
Q 3566 2609 3566 1747 
Q 3566 888 3137 398 
Q 2709 -91 1959 -91 
Q 1206 -91 779 398 
Q 353 888 353 1747 
Q 353 2609 779 3096 
Q 1206 3584 1959 3584 
z
" transform="scale(0.015625)"/>
       <path id="DejaVuSans-6e" d="M 3513 2113 
L 3513 0 
L 2938 0 
L 2938 2094 
Q 2938 2591 2744 2837 
Q 2550 3084 2163 3084 
Q 1697 3084 1428 2787 
Q 1159 2491 1159 1978 
L 1159 0 
L 581 0 
L 581 3500 
L 1159 3500 
L 1159 2956 
Q 1366 3272 1645 3428 
Q 1925 3584 2291 3584 
Q 2894 3584 3203 3211 
Q 3513 2838 3513 2113 
z
" transform="scale(0.015625)"/>
       <path id="DejaVuSans-67" d="M 2906 1791 
Q 2906 2416 2648 2759 
Q 2391 3103 1925 3103 
Q 1463 3103 1205 2759 
Q 947 2416 947 1791 
Q 947 1169 1205 825 
Q 1463 481 1925 481 
Q 2391 481 2648 825 
Q 2906 1169 2906 1791 
z
M 3481 434 
Q 3481 -459 3084 -895 
Q 2688 -1331 1869 -1331 
Q 1566 -1331 1297 -1286 
Q 1028 -1241 775 -1147 
L 775 -588 
Q 1028 -725 1275 -790 
Q 1522 -856 1778 -856 
Q 2344 -856 2625 -561 
Q 2906 -266 2906 331 
L 2906 616 
Q 2728 306 2450 153 
Q 2172 0 1784 0 
Q 1141 0 747 490 
Q 353 981 353 1791 
Q 353 2603 747 3093 
Q 1141 3584 1784 3584 
Q 2172 3584 2450 3431 
Q 2728 3278 2906 2969 
L 2906 3500 
L 3481 3500 
L 3481 434 
z
" transform="scale(0.015625)"/>
       <path id="DejaVuSans-69" d="M 603 3500 
L 1178 3500 
L 1178 0 
L 603 0 
L 603 3500 
z
M 603 4863 
L 1178 4863 
L 1178 4134 
L 603 4134 
L 603 4863 
z
" transform="scale(0.015625)"/>
       <path id="DejaVuSans-74" d="M 1172 4494 
L 1172 3500 
L 2356 3500 
L 2356 3053 
L 1172 3053 
L 1172 1153 
Q 1172 725 1289 603 
Q 1406 481 1766 481 
L 2356 481 
L 2356 0 
L 1766 0 
Q 1100 0 847 248 
Q 594 497 594 1153 
L 594 3053 
L 172 3053 
L 172 3500 
L 594 3500 
L 594 4494 
L 1172 4494 
z
" transform="scale(0.015625)"/>
       <path id="DejaVuSans-75" d="M 544 1381 
L 544 3500 
L 1119 3500 
L 1119 1403 
Q 1119 906 1312 657 
Q 1506 409 1894 409 
Q 2359 409 2629 706 
Q 2900 1003 2900 1516 
L 2900 3500 
L 3475 3500 
L 3475 0 
L 2900 0 
L 2900 538 
Q 2691 219 2414 64 
Q 2138 -91 1772 -91 
Q 1169 -91 856 284 
Q 544 659 544 1381 
z
M 1991 3584 
L 1991 3584 
z
" transform="scale(0.015625)"/>
       <path id="DejaVuSans-64" d="M 2906 2969 
L 2906 4863 
L 3481 4863 
L 3481 0 
L 2906 0 
L 2906 525 
Q 2725 213 2448 61 
Q 2172 -91 1784 -91 
Q 1150 -91 751 415 
Q 353 922 353 1747 
Q 353 2572 751 3078 
Q 1150 3584 1784 3584 
Q 2172 3584 2448 3432 
Q 2725 3281 2906 2969 
z
M 947 1747 
Q 947 1113 1208 752 
Q 1469 391 1925 391 
Q 2381 391 2643 752 
Q 2906 1113 2906 1747 
Q 2906 2381 2643 2742 
Q 2381 3103 1925 3103 
Q 1469 3103 1208 2742 
Q 947 2381 947 1747 
z
" transform="scale(0.015625)"/>
       <path id="DejaVuSans-65" d="M 3597 1894 
L 3597 1613 
L 953 1613 
Q 991 1019 1311 708 
Q 1631 397 2203 397 
Q 2534 397 2845 478 
Q 3156 559 3463 722 
L 3463 178 
Q 3153 47 2828 -22 
Q 2503 -91 2169 -91 
Q 1331 -91 842 396 
Q 353 884 353 1716 
Q 353 2575 817 3079 
Q 1281 3584 2069 3584 
Q 2775 3584 3186 3129 
Q 3597 2675 3597 1894 
z
M 3022 2063 
Q 3016 2534 2758 2815 
Q 2500 3097 2075 3097 
Q 1594 3097 1305 2825 
Q 1016 2553 972 2059 
L 3022 2063 
z
" transform="scale(0.015625)"/>
       <path id="DejaVuSans-20" transform="scale(0.015625)"/>
       <path id="DejaVuSans-28" d="M 1984 4856 
Q 1566 4138 1362 3434 
Q 1159 2731 1159 2009 
Q 1159 1288 1364 580 
Q 1569 -128 1984 -844 
L 1484 -844 
Q 1016 -109 783 600 
Q 550 1309 550 2009 
Q 550 2706 781 3412 
Q 1013 4119 1484 4856 
L 1984 4856 
z
" transform="scale(0.015625)"/>
       <path id="DejaVuSans-b0" d="M 1600 4347 
Q 1350 4347 1178 4173 
Q 1006 4000 1006 3750 
Q 1006 3503 1178 3333 
Q 1350 3163 1600 3163 
Q 1850 3163 2022 3333 
Q 2194 3503 2194 3750 
Q 2194 3997 2020 4172 
Q 1847 4347 1600 4347 
z
M 1600 4750 
Q 1800 4750 1984 4673 
Q 2169 4597 2303 4453 
Q 2447 4313 2519 4134 
Q 2591 3956 2591 3750 
Q 2591 3338 2302 3052 
Q 2013 2766 1594 2766 
Q 1172 2766 890 3047 
Q 609 3328 609 3750 
Q 609 4169 896 4459 
Q 1184 4750 1600 4750 
z
" transform="scale(0.015625)"/>
       <path id="DejaVuSans-29" d="M 513 4856 
L 1013 4856 
Q 1481 4119 1714 3412 
Q 1947 2706 1947 2009 
Q 1947 1309 1714 600 
Q 1481 -109 1013 -844 
L 513 -844 
Q 928 -128 1133 580 
Q 1338 1288 1338 2009 
Q 1338 2731 1133 3434 
Q 928 4138 513 4856 
z
" transform="scale(0.015625)"/>
      </defs>
      <use xlink:href="#DejaVuSans-4c"/>
      <use xlink:href="#DejaVuSans-6f" transform="translate(53.962891 0)"/>
      <use xlink:href="#DejaVuSans-6e" transform="translate(115.144531 0)"/>
      <use xlink:href="#DejaVuSans-67" transform="translate(178.523438 0)"/>
      <use xlink:href="#DejaVuSans-69" transform="translate(242 0)"/>
      <use xlink:href="#DejaVuSans-74" transform="translate(269.783203 0)"/>
      <use xlink:href="#DejaVuSans-75" transform="translate(308.992188 0)"/>
      <use xlink:href="#DejaVuSans-64" transform="translate(372.371094 0)"/>
      <use xlink:href="#DejaVuSans-65" transform="translate(435.847656 0)"/>
      <use xlink:href="#DejaVuSans-20" transform="translate(497.371094 0)"/>
      <use xlink:href="#DejaVuSans-28" transform="translate(529.158203 0)"/>
      <use xlink:href="#DejaVuSans-b0" transform="translate(568.171875 0)"/>
      <use xlink:href="#DejaVuSans-29" transform="translate(618.171875 0)"/>
     </g>
    </g>
   </g>
   <g id="matplotlib.axis_2">
    <g id="ytick_1">
     <g id="line2d_19">
      <path d="M 99.548144 712.482381 
L 638.451856 712.482381 
" clip-path="url(#p25393190ca)" style="fill: none; stroke: #b0b0b0; stroke-width: 0.8; stroke-linecap: square"/>
     </g>
     <g id="line2d_20">
      <defs>
       <path id="m7235c9ea04" d="M 0 0 
L -3.5 0 
" style="stroke: #000000; stroke-width: 0.8"/>
      </defs>
      <g>
       <use xlink:href="#m7235c9ea04" x="99.548144" y="712.482381" style="stroke: #000000; stroke-width: 0.8"/>
      </g>
     </g>
     <g id="text_11">
      <!-- −15.48 -->
      <g transform="translate(55.540332 716.2816) scale(0.1 -0.1)">
       <use xlink:href="#DejaVuSans-2212"/>
       <use xlink:href="#DejaVuSans-31" transform="translate(83.789062 0)"/>
       <use xlink:href="#DejaVuSans-35" transform="translate(147.412109 0)"/>
       <use xlink:href="#DejaVuSans-2e" transform="translate(211.035156 0)"/>
       <use xlink:href="#DejaVuSans-34" transform="translate(242.822266 0)"/>
       <use xlink:href="#DejaVuSans-38" transform="translate(306.445312 0)"/>
      </g>
     </g>
    </g>
    <g id="ytick_2">
     <g id="line2d_21">
      <path d="M 99.548144 584.459026 
L 638.451856 584.459026 
" clip-path="url(#p25393190ca)" style="fill: none; stroke: #b0b0b0; stroke-width: 0.8; stroke-linecap: square"/>
     </g>
     <g id="line2d_22">
      <g>
       <use xlink:href="#m7235c9ea04" x="99.548144" y="584.459026" style="stroke: #000000; stroke-width: 0.8"/>
      </g>
     </g>
     <g id="text_12">
      <!-- −15.47 -->
      <g transform="translate(55.540332 588.258244) scale(0.1 -0.1)">
       <defs>
        <path id="DejaVuSans-37" d="M 525 4666 
L 3525 4666 
L 3525 4397 
L 1831 0 
L 1172 0 
L 2766 4134 
L 525 4134 
L 525 4666 
z
" transform="scale(0.015625)"/>
       </defs>
       <use xlink:href="#DejaVuSans-2212"/>
       <use xlink:href="#DejaVuSans-31" transform="translate(83.789062 0)"/>
       <use xlink:href="#DejaVuSans-35" transform="translate(147.412109 0)"/>
       <use xlink:href="#DejaVuSans-2e" transform="translate(211.035156 0)"/>
       <use xlink:href="#DejaVuSans-34" transform="translate(242.822266 0)"/>
       <use xlink:href="#DejaVuSans-37" transform="translate(306.445312 0)"/>
      </g>
     </g>
    </g>
    <g id="ytick_3">
     <g id="line2d_23">
      <path d="M 99.548144 456.43567 
L 638.451856 456.43567 
" clip-path="url(#p25393190ca)" style="fill: none; stroke: #b0b0b0; stroke-width: 0.8; stroke-linecap: square"/>
     </g>
     <g id="line2d_24">
      <g>
       <use xlink:href="#m7235c9ea04" x="99.548144" y="456.43567" style="stroke: #000000; stroke-width: 0.8"/>
      </g>
     </g>
     <g id="text_13">
      <!-- −15.46 -->
      <g transform="translate(55.540332 460.234889) scale(0.1 -0.1)">
       <defs>
        <path id="DejaVuSans-36" d="M 2113 2584 
Q 1688 2584 1439 2293 
Q 1191 2003 1191 1497 
Q 1191 994 1439 701 
Q 1688 409 2113 409 
Q 2538 409 2786 701 
Q 3034 994 3034 1497 
Q 3034 2003 2786 2293 
Q 2538 2584 2113 2584 
z
M 3366 4563 
L 3366 3988 
Q 3128 4100 2886 4159 
Q 2644 4219 2406 4219 
Q 1781 4219 1451 3797 
Q 1122 3375 1075 2522 
Q 1259 2794 1537 2939 
Q 1816 3084 2150 3084 
Q 2853 3084 3261 2657 
Q 3669 2231 3669 1497 
Q 3669 778 3244 343 
Q 2819 -91 2113 -91 
Q 1303 -91 875 529 
Q 447 1150 447 2328 
Q 447 3434 972 4092 
Q 1497 4750 2381 4750 
Q 2619 4750 2861 4703 
Q 3103 4656 3366 4563 
z
" transform="scale(0.015625)"/>
       </defs>
       <use xlink:href="#DejaVuSans-2212"/>
       <use xlink:href="#DejaVuSans-31" transform="translate(83.789062 0)"/>
       <use xlink:href="#DejaVuSans-35" transform="translate(147.412109 0)"/>
       <use xlink:href="#DejaVuSans-2e" transform="translate(211.035156 0)"/>
       <use xlink:href="#DejaVuSans-34" transform="translate(242.822266 0)"/>
       <use xlink:href="#DejaVuSans-36" transform="translate(306.445312 0)"/>
      </g>
     </g>
    </g>
    <g id="ytick_4">
     <g id="line2d_25">
      <path d="M 99.548144 328.412314 
L 638.451856 328.412314 
" clip-path="url(#p25393190ca)" style="fill: none; stroke: #b0b0b0; stroke-width: 0.8; stroke-linecap: square"/>
     </g>
     <g id="line2d_26">
      <g>
       <use xlink:href="#m7235c9ea04" x="99.548144" y="328.412314" style="stroke: #000000; stroke-width: 0.8"/>
      </g>
     </g>
     <g id="text_14">
      <!-- −15.45 -->
      <g transform="translate(55.540332 332.211533) scale(0.1 -0.1)">
       <use xlink:href="#DejaVuSans-2212"/>
       <use xlink:href="#DejaVuSans-31" transform="translate(83.789062 0)"/>
       <use xlink:href="#DejaVuSans-35" transform="translate(147.412109 0)"/>
       <use xlink:href="#DejaVuSans-2e" transform="translate(211.035156 0)"/>
       <use xlink:href="#DejaVuSans-34" transform="translate(242.822266 0)"/>
       <use xlink:href="#DejaVuSans-35" transform="translate(306.445312 0)"/>
      </g>
     </g>
    </g>
    <g id="ytick_5">
     <g id="line2d_27">
      <path d="M 99.548144 200.388958 
L 638.451856 200.388958 
" clip-path="url(#p25393190ca)" style="fill: none; stroke: #b0b0b0; stroke-width: 0.8; stroke-linecap: square"/>
     </g>
     <g id="line2d_28">
      <g>
       <use xlink:href="#m7235c9ea04" x="99.548144" y="200.388958" style="stroke: #000000; stroke-width: 0.8"/>
      </g>
     </g>
     <g id="text_15">
      <!-- −15.44 -->
      <g transform="translate(55.540332 204.188177) scale(0.1 -0.1)">
       <use xlink:href="#DejaVuSans-2212"/>
       <use xlink:href="#DejaVuSans-31" transform="translate(83.789062 0)"/>
       <use xlink:href="#DejaVuSans-35" transform="translate(147.412109 0)"/>
       <use xlink:href="#DejaVuSans-2e" transform="translate(211.035156 0)"/>
       <use xlink:href="#DejaVuSans-34" transform="translate(242.822266 0)"/>
       <use xlink:href="#DejaVuSans-34" transform="translate(306.445312 0)"/>
      </g>
     </g>
    </g>
    <g id="text_16">
     <!-- Latitude (°) -->
     <g transform="translate(49.460644 464.889531) rotate(-90) scale(0.1 -0.1)">
      <defs>
       <path id="DejaVuSans-61" d="M 2194 1759 
Q 1497 1759 1228 1600 
Q 959 1441 959 1056 
Q 959 750 1161 570 
Q 1363 391 1709 391 
Q 2188 391 2477 730 
Q 2766 1069 2766 1631 
L 2766 1759 
L 2194 1759 
z
M 3341 1997 
L 3341 0 
L 2766 0 
L 2766 531 
Q 2569 213 2275 61 
Q 1981 -91 1556 -91 
Q 1019 -91 701 211 
Q 384 513 384 1019 
Q 384 1609 779 1909 
Q 1175 2209 1959 2209 
L 2766 2209 
L 2766 2266 
Q 2766 2663 2505 2880 
Q 2244 3097 1772 3097 
Q 1472 3097 1187 3025 
Q 903 2953 641 2809 
L 641 3341 
Q 956 3463 1253 3523 
Q 1550 3584 1831 3584 
Q 2591 3584 2966 3190 
Q 3341 2797 3341 1997 
z
" transform="scale(0.015625)"/>
      </defs>
      <use xlink:href="#DejaVuSans-4c"/>
      <use xlink:href="#DejaVuSans-61" transform="translate(55.712891 0)"/>
      <use xlink:href="#DejaVuSans-74" transform="translate(116.992188 0)"/>
      <use xlink:href="#DejaVuSans-69" transform="translate(156.201172 0)"/>
      <use xlink:href="#DejaVuSans-74" transform="translate(183.984375 0)"/>
      <use xlink:href="#DejaVuSans-75" transform="translate(223.193359 0)"/>
      <use xlink:href="#DejaVuSans-64" transform="translate(286.572266 0)"/>
      <use xlink:href="#DejaVuSans-65" transform="translate(350.048828 0)"/>
      <use xlink:href="#DejaVuSans-20" transform="translate(411.572266 0)"/>
      <use xlink:href="#DejaVuSans-28" transform="translate(443.359375 0)"/>
      <use xlink:href="#DejaVuSans-b0" transform="translate(482.373047 0)"/>
      <use xlink:href="#DejaVuSans-29" transform="translate(532.373047 0)"/>
     </g>
    </g>
   </g>
   <g id="patch_3">
    <path d="M 99.548144 768.96 
L 99.548144 103.68 
" style="fill: none; stroke: #000000; stroke-width: 0.8; stroke-linejoin: miter; stroke-linecap: square"/>
   </g>
   <g id="patch_4">
    <path d="M 638.451856 768.96 
L 638.451856 103.68 
" style="fill: none; stroke: #000000; stroke-width: 0.8; stroke-linejoin: miter; stroke-linecap: square"/>
   </g>
   <g id="patch_5">
    <path d="M 99.548144 768.96 
L 638.451856 768.96 
" style="fill: none; stroke: #000000; stroke-width: 0.8; stroke-linejoin: miter; stroke-linecap: square"/>
   </g>
   <g id="patch_6">
    <path d="M 99.548144 103.68 
L 638.451856 103.68 
" style="fill: none; stroke: #000000; stroke-width: 0.8; stroke-linejoin: miter; stroke-linecap: square"/>
   </g>
   <g id="legend_1">
    <g id="patch_7">
     <path d="M 279.8375 941.307875 
L 458.1625 941.307875 
Q 460.1625 941.307875 460.1625 939.307875 
L 460.1625 909.016 
Q 460.1625 907.016 458.1625 907.016 
L 279.8375 907.016 
Q 277.8375 907.016 277.8375 909.016 
L 277.8375 939.307875 
Q 277.8375 941.307875 279.8375 941.307875 
z
" style="fill: #ffffff; opacity: 0.8; stroke: #cccccc; stroke-linejoin: miter"/>
    </g>
    <g id="text_17">
     <!-- Legenda -->
     <g transform="translate(343.280625 920.134125) scale(0.12 -0.12)">
      <use xlink:href="#DejaVuSans-4c"/>
      <use xlink:href="#DejaVuSans-65" transform="translate(53.962891 0)"/>
      <use xlink:href="#DejaVuSans-67" transform="translate(115.486328 0)"/>
      <use xlink:href="#DejaVuSans-65" transform="translate(178.962891 0)"/>
      <use xlink:href="#DejaVuSans-6e" transform="translate(240.486328 0)"/>
      <use xlink:href="#DejaVuSans-64" transform="translate(303.865234 0)"/>
      <use xlink:href="#DejaVuSans-61" transform="translate(367.341797 0)"/>
     </g>
    </g>
    <g id="patch_8">
     <path style="fill: none; stroke: #000000; stroke-linejoin: miter"/>
    </g>
    <g id="text_18">
     <!-- Gleba Federal -->
     <g transform="translate(309.8375 935.228187) scale(0.1 -0.1)">
      <defs>
       <path id="DejaVuSans-47" d="M 3809 666 
L 3809 1919 
L 2778 1919 
L 2778 2438 
L 4434 2438 
L 4434 434 
Q 4069 175 3628 42 
Q 3188 -91 2688 -91 
Q 1594 -91 976 548 
Q 359 1188 359 2328 
Q 359 3472 976 4111 
Q 1594 4750 2688 4750 
Q 3144 4750 3555 4637 
Q 3966 4525 4313 4306 
L 4313 3634 
Q 3963 3931 3569 4081 
Q 3175 4231 2741 4231 
Q 1884 4231 1454 3753 
Q 1025 3275 1025 2328 
Q 1025 1384 1454 906 
Q 1884 428 2741 428 
Q 3075 428 3337 486 
Q 3600 544 3809 666 
z
" transform="scale(0.015625)"/>
       <path id="DejaVuSans-6c" d="M 603 4863 
L 1178 4863 
L 1178 0 
L 603 0 
L 603 4863 
z
" transform="scale(0.015625)"/>
       <path id="DejaVuSans-62" d="M 3116 1747 
Q 3116 2381 2855 2742 
Q 2594 3103 2138 3103 
Q 1681 3103 1420 2742 
Q 1159 2381 1159 1747 
Q 1159 1113 1420 752 
Q 1681 391 2138 391 
Q 2594 391 2855 752 
Q 3116 1113 3116 1747 
z
M 1159 2969 
Q 1341 3281 1617 3432 
Q 1894 3584 2278 3584 
Q 2916 3584 3314 3078 
Q 3713 2572 3713 1747 
Q 3713 922 3314 415 
Q 2916 -91 2278 -91 
Q 1894 -91 1617 61 
Q 1341 213 1159 525 
L 1159 0 
L 581 0 
L 581 4863 
L 1159 4863 
L 1159 2969 
z
" transform="scale(0.015625)"/>
       <path id="DejaVuSans-46" d="M 628 4666 
L 3309 4666 
L 3309 4134 
L 1259 4134 
L 1259 2759 
L 3109 2759 
L 3109 2228 
L 1259 2228 
L 1259 0 
L 628 0 
L 628 4666 
z
" transform="scale(0.015625)"/>
       <path id="DejaVuSans-72" d="M 2631 2963 
Q 2534 3019 2420 3045 
Q 2306 3072 2169 3072 
Q 1681 3072 1420 2755 
Q 1159 2438 1159 1844 
L 1159 0 
L 581 0 
L 581 3500 
L 1159 3500 
L 1159 2956 
Q 1341 3275 1631 3429 
Q 1922 3584 2338 3584 
Q 2397 3584 2469 3576 
Q 2541 3569 2628 3553 
L 2631 2963 
z
" transform="scale(0.015625)"/>
      </defs>
      <use xlink:href="#DejaVuSans-47"/>
      <use xlink:href="#DejaVuSans-6c" transform="translate(77.490234 0)"/>
      <use xlink:href="#DejaVuSans-65" transform="translate(105.273438 0)"/>
      <use xlink:href="#DejaVuSans-62" transform="translate(166.796875 0)"/>
      <use xlink:href="#DejaVuSans-61" transform="translate(230.273438 0)"/>
      <use xlink:href="#DejaVuSans-20" transform="translate(291.552734 0)"/>
      <use xlink:href="#DejaVuSans-46" transform="translate(323.339844 0)"/>
      <use xlink:href="#DejaVuSans-65" transform="translate(375.359375 0)"/>
      <use xlink:href="#DejaVuSans-64" transform="translate(436.882812 0)"/>
      <use xlink:href="#DejaVuSans-65" transform="translate(500.359375 0)"/>
      <use xlink:href="#DejaVuSans-72" transform="translate(561.882812 0)"/>
      <use xlink:href="#DejaVuSans-61" transform="translate(602.996094 0)"/>
      <use xlink:href="#DejaVuSans-6c" transform="translate(664.275391 0)"/>
     </g>
    </g>
    <g id="patch_9">
     <path d="M 399.045312 935.228187 
L 419.045312 935.228187 
L 419.045312 928.228187 
L 399.045312 928.228187 
z
" style="fill: #e0bd1f; opacity: 0.6"/>
    </g>
    <g id="text_19">
     <!-- SIGEF -->
     <g transform="translate(427.045312 935.228187) scale(0.1 -0.1)">
      <defs>
       <path id="DejaVuSans-53" d="M 3425 4513 
L 3425 3897 
Q 3066 4069 2747 4153 
Q 2428 4238 2131 4238 
Q 1616 4238 1336 4038 
Q 1056 3838 1056 3469 
Q 1056 3159 1242 3001 
Q 1428 2844 1947 2747 
L 2328 2669 
Q 3034 2534 3370 2195 
Q 3706 1856 3706 1288 
Q 3706 609 3251 259 
Q 2797 -91 1919 -91 
Q 1588 -91 1214 -16 
Q 841 59 441 206 
L 441 856 
Q 825 641 1194 531 
Q 1563 422 1919 422 
Q 2459 422 2753 634 
Q 3047 847 3047 1241 
Q 3047 1584 2836 1778 
Q 2625 1972 2144 2069 
L 1759 2144 
Q 1053 2284 737 2584 
Q 422 2884 422 3419 
Q 422 4038 858 4394 
Q 1294 4750 2059 4750 
Q 2388 4750 2728 4690 
Q 3069 4631 3425 4513 
z
" transform="scale(0.015625)"/>
       <path id="DejaVuSans-49" d="M 628 4666 
L 1259 4666 
L 1259 0 
L 628 0 
L 628 4666 
z
" transform="scale(0.015625)"/>
       <path id="DejaVuSans-45" d="M 628 4666 
L 3578 4666 
L 3578 4134 
L 1259 4134 
L 1259 2753 
L 3481 2753 
L 3481 2222 
L 1259 2222 
L 1259 531 
L 3634 531 
L 3634 0 
L 628 0 
L 628 4666 
z
" transform="scale(0.015625)"/>
      </defs>
      <use xlink:href="#DejaVuSans-53"/>
      <use xlink:href="#DejaVuSans-49" transform="translate(63.476562 0)"/>
      <use xlink:href="#DejaVuSans-47" transform="translate(92.96875 0)"/>
      <use xlink:href="#DejaVuSans-45" transform="translate(170.458984 0)"/>
      <use xlink:href="#DejaVuSans-46" transform="translate(233.642578 0)"/>
     </g>
    </g>
   </g>
  </g>
 </g>
 <defs>
  <clipPath id="p25393190ca">
   <rect x="99.548144" y="103.68" width="538.903712" height="665.28"/>
  </clipPath>
 </defs>
</svg>
