<?xml version="1.0" encoding="utf-8" standalone="no"?>
<!DOCTYPE svg PUBLIC "-//W3C//DTD SVG 1.1//EN"
  "http://www.w3.org/Graphics/SVG/1.1/DTD/svg11.dtd">
<svg xmlns:xlink="http://www.w3.org/1999/xlink" width="720pt" height="864pt" viewBox="0 0 720 864" xmlns="http://www.w3.org/2000/svg" version="1.1">
 <metadata>
  <rdf:RDF xmlns:dc="http://purl.org/dc/elements/1.1/" xmlns:cc="http://creativecommons.org/ns#" xmlns:rdf="http://www.w3.org/1999/02/22-rdf-syntax-ns#">
   <cc:Work>
    <dc:type rdf:resource="http://purl.org/dc/dcmitype/StillImage"/>
    <dc:date>2025-06-16T17:49:03.837724</dc:date>
    <dc:format>image/svg+xml</dc:format>
    <dc:creator>
     <cc:Agent>
      <dc:title>Matplotlib v3.10.1, https://matplotlib.org/</dc:title>
     </cc:Agent>
    </dc:creator>
   </cc:Work>
  </rdf:RDF>
 </metadata>
 <defs>
  <style type="text/css">*{stroke-linejoin: round; stroke-linecap: butt}</style>
 </defs>
 <g id="figure_1">
  <g id="patch_1">
   <path d="M 0 864 
L 720 864 
L 720 0 
L 0 0 
z
" style="fill: #ffffff"/>
  </g>
  <g id="axes_1">
   <g id="patch_2">
    <path d="M 90 626.349888 
L 648 626.349888 
L 648 246.290112 
L 90 246.290112 
z
" style="fill: #ffffff"/>
   </g>
   <g id="PatchCollection_1">
    <path d="M 291.302594 494.767012 
L 320.568059 513.823374 
L 320.381448 514.88532 
L 318.140306 520.111621 
L 286.953505 497.918661 
L 291.302594 494.767012 
" clip-path="url(#p8e76869b29)" style="fill: #e0bd1f; stroke: #0000ff; stroke-width: 0.5"/>
    <path d="M 324.640451 509.077495 
L 367.765229 579.007559 
L 350.116638 609.074444 
L 302.227112 539.858455 
L 301.645434 538.81163 
L 303.311315 537.723434 
L 303.745645 536.457392 
L 305.541523 533.952858 
L 307.518847 532.323209 
L 308.800618 530.427726 
L 310.498025 528.997613 
L 311.326147 527.19468 
L 312.324156 525.387162 
L 313.874215 523.726656 
L 315.033076 522.113405 
L 317.218879 521.276607 
L 318.123582 520.480473 
L 318.97744 518.473443 
L 320.481819 516.719088 
L 320.991433 513.474228 
L 322.674061 511.61747 
L 323.515062 510.501062 
L 324.640451 509.077495 
" clip-path="url(#p8e76869b29)" style="fill: #e0bd1f; stroke: #0000ff; stroke-width: 0.5"/>
    <path d="M 447.015289 525.782926 
L 449.914666 534.714189 
L 444.603635 537.302081 
L 441.703586 528.370157 
L 444.361036 527.07588 
L 447.015289 525.782926 
" clip-path="url(#p8e76869b29)" style="fill: #e0bd1f; stroke: #0000ff; stroke-width: 0.5"/>
    <path d="M 449.670816 524.489972 
L 452.568919 533.419912 
L 449.914666 534.714189 
L 447.015289 525.782926 
L 449.670816 524.489972 
" clip-path="url(#p8e76869b29)" style="fill: #e0bd1f; stroke: #0000ff; stroke-width: 0.5"/>
    <path d="M 454.981221 521.903403 
L 457.879973 530.834666 
L 455.224446 532.129581 
L 452.327617 523.196356 
L 454.981221 521.903403 
" clip-path="url(#p8e76869b29)" style="fill: #e0bd1f; stroke: #0000ff; stroke-width: 0.5"/>
    <path d="M 457.637374 520.609787 
L 460.535477 529.541688 
L 457.879973 530.834666 
L 454.981221 521.903403 
L 457.637374 520.609787 
" clip-path="url(#p8e76869b29)" style="fill: #e0bd1f; stroke: #0000ff; stroke-width: 0.5"/>
    <path d="M 535.15528 489.688361 
L 541.743565 493.980069 
L 527.065164 510.76229 
L 525.223605 510.734055 
L 522.858906 510.860723 
L 520.256795 512.701059 
L 519.825037 513.213662 
L 518.791656 513.625161 
L 516.259687 513.328516 
L 513.758573 513.070572 
L 535.15528 489.688361 
" clip-path="url(#p8e76869b29)" style="fill: #e0bd1f; stroke: #0000ff; stroke-width: 0.5"/>
    <path d="M 597.371898 464.027401 
L 605.813323 469.700005 
L 572.849314 485.860676 
L 569.599879 484.09713 
L 571.120357 478.904286 
L 568.839952 477.112528 
L 574.228861 465.556631 
L 582.651639 470.106921 
L 589.183959 475.850408 
L 595.276807 472.574714 
L 597.371898 464.027401 
" clip-path="url(#p8e76869b29)" style="fill: #e0bd1f; stroke: #0000ff; stroke-width: 0.5"/>
    <path d="M 379.537813 389.469595 
L 387.547503 394.592856 
L 357.239647 418.299948 
L 349.03628 413.346665 
L 354.025606 409.408073 
L 354.111824 409.343096 
L 359.35723 405.212198 
L 379.537813 389.469595 
" clip-path="url(#p8e76869b29)" style="fill: #e0bd1f; stroke: #0000ff; stroke-width: 0.5"/>
    <path d="M 355.677982 454.34069 
L 366.332242 460.407097 
L 371.842764 463.50823 
L 377.397043 466.642181 
L 382.890839 469.661279 
L 388.503654 472.723025 
L 399.635376 478.757936 
L 410.891281 484.749514 
L 416.514404 487.696429 
L 424.888908 490.696483 
L 424.966763 490.785748 
L 428.764427 494.727625 
L 431.629081 495.837464 
L 423.345914 495.134541 
L 420.87635 494.0923 
L 413.250816 492.218483 
L 412.231588 491.013472 
L 406.497787 488.328469 
L 395.96449 482.300127 
L 395.755363 481.966717 
L 352.30566 457.169466 
L 355.677982 454.34069 
" clip-path="url(#p8e76869b29)" style="fill: #e0bd1f; stroke: #0000ff; stroke-width: 0.5"/>
    <path d="M 381.615508 433.352765 
L 392.581212 439.865452 
L 366.332242 460.407097 
L 355.677982 454.34069 
L 355.219839 454.076201 
L 381.615508 433.352765 
" clip-path="url(#p8e76869b29)" style="fill: #e0bd1f; stroke: #0000ff; stroke-width: 0.5"/>
    <path d="M 387.547503 394.592856 
L 396.772019 400.52931 
L 366.860526 423.993558 
L 357.239647 418.299948 
L 387.547503 394.592856 
" clip-path="url(#p8e76869b29)" style="fill: #e0bd1f; stroke: #0000ff; stroke-width: 0.5"/>
    <path d="M 373.362594 486.732278 
L 373.837461 486.777572 
L 380.930889 529.137395 
L 378.311382 529.776665 
L 371.157496 486.900956 
L 373.362594 486.732278 
" clip-path="url(#p8e76869b29)" style="fill: #e0bd1f; stroke: #0000ff; stroke-width: 0.5"/>
    <path d="M 398.098822 443.171366 
L 403.599035 446.443138 
L 377.397043 466.642181 
L 371.842764 463.50823 
L 398.098822 443.171366 
" clip-path="url(#p8e76869b29)" style="fill: #e0bd1f; stroke: #0000ff; stroke-width: 0.5"/>
    <path d="M 376.626182 488.789209 
L 382.257668 489.998143 
L 382.553661 489.997481 
L 388.993323 527.208455 
L 384.070271 528.372118 
L 376.626182 488.789209 
" clip-path="url(#p8e76869b29)" style="fill: #e0bd1f; stroke: #0000ff; stroke-width: 0.5"/>
    <path d="M 384.140412 528.810553 
L 386.972242 547.293967 
L 381.500336 548.808762 
L 378.382821 530.199341 
L 384.140412 528.810553 
" clip-path="url(#p8e76869b29)" style="fill: #e0bd1f; stroke: #0000ff; stroke-width: 0.5"/>
    <path d="M 389.063465 527.642283 
L 396.487609 571.139542 
L 385.731032 574.044423 
L 383.136635 558.541381 
L 381.500336 548.808762 
L 386.972242 547.293967 
L 384.140412 528.810553 
L 389.063465 527.642283 
" clip-path="url(#p8e76869b29)" style="fill: #e0bd1f; stroke: #0000ff; stroke-width: 0.5"/>
    <path d="M 382.553661 489.997481 
L 387.831265 490.340083 
L 388.062908 490.36045 
L 394.341047 525.841995 
L 388.993323 527.208455 
L 382.553661 489.997481 
" clip-path="url(#p8e76869b29)" style="fill: #e0bd1f; stroke: #0000ff; stroke-width: 0.5"/>
    <path d="M 409.07159 449.711649 
L 414.643891 453.049697 
L 399.608992 464.371301 
L 388.503654 472.723025 
L 382.890839 469.661279 
L 409.07159 449.711649 
" clip-path="url(#p8e76869b29)" style="fill: #e0bd1f; stroke: #0000ff; stroke-width: 0.5"/>
    <path d="M 394.412485 526.263347 
L 401.523911 569.78225 
L 396.487609 571.139542 
L 389.063465 527.642283 
L 394.412485 526.263347 
" clip-path="url(#p8e76869b29)" style="fill: #e0bd1f; stroke: #0000ff; stroke-width: 0.5"/>
    <path d="M 419.590085 415.037367 
L 427.620368 420.206584 
L 415.928858 429.374124 
L 413.791307 424.567852 
L 393.860388 440.162121 
L 390.1908 437.985751 
L 419.590085 415.037367 
" clip-path="url(#p8e76869b29)" style="fill: #e0bd1f; stroke: #0000ff; stroke-width: 0.5"/>
    <path d="M 413.791307 424.567852 
L 415.928858 429.374124 
L 398.452076 442.891779 
L 393.860388 440.162121 
L 413.791307 424.567852 
" clip-path="url(#p8e76869b29)" style="fill: #e0bd1f; stroke: #0000ff; stroke-width: 0.5"/>
    <path d="M 396.488906 360.522403 
L 399.137993 362.242616 
L 407.1052 367.542446 
L 405.544184 368.786845 
L 394.803706 361.830455 
L 396.488906 360.522403 
" clip-path="url(#p8e76869b29)" style="fill: #e0bd1f; stroke: #0000ff; stroke-width: 0.5"/>
    <path d="M 425.065211 376.045788 
L 433.094846 380.968214 
L 424.013183 388.263922 
L 403.905961 404.511897 
L 395.840932 399.422755 
L 418.774193 381.073239 
L 425.065211 376.045788 
" clip-path="url(#p8e76869b29)" style="fill: #e0bd1f; stroke: #0000ff; stroke-width: 0.5"/>
    <path d="M 397.990065 359.306877 
L 408.857969 366.146452 
L 407.1052 367.542446 
L 399.137993 362.242616 
L 396.488906 360.522403 
L 397.990065 359.306877 
" clip-path="url(#p8e76869b29)" style="fill: #e0bd1f; stroke: #0000ff; stroke-width: 0.5"/>
    <path d="M 354.773927 402.334867 
L 359.35723 405.212198 
L 354.111824 409.343096 
L 350.80962 407.352464 
L 354.773927 402.334867 
" clip-path="url(#p8e76869b29)" style="fill: #e0bd1f; stroke: #0000ff; stroke-width: 0.5"/>
    <path d="M 352.161509 457.548809 
L 362.752739 463.590288 
L 359.097281 466.694044 
L 349.226088 460.055304 
L 352.161509 457.548809 
" clip-path="url(#p8e76869b29)" style="fill: #e0bd1f; stroke: #0000ff; stroke-width: 0.5"/>
    <path d="M 398.90056 490.639375 
L 404.757896 523.246896 
L 399.473875 524.586444 
L 394.777948 492.404882 
L 398.90056 490.639375 
" clip-path="url(#p8e76869b29)" style="fill: #e0bd1f; stroke: #0000ff; stroke-width: 0.5"/>
    <path d="M 411.641525 409.856998 
L 419.590085 415.037367 
L 390.1908 437.985751 
L 381.988082 433.062664 
L 411.641525 409.856998 
" clip-path="url(#p8e76869b29)" style="fill: #e0bd1f; stroke: #0000ff; stroke-width: 0.5"/>
    <path d="M 403.599035 446.443138 
L 409.07159 449.711649 
L 382.890839 469.661279 
L 377.397043 466.642181 
L 403.599035 446.443138 
" clip-path="url(#p8e76869b29)" style="fill: #e0bd1f; stroke: #0000ff; stroke-width: 0.5"/>
    <path d="M 387.80231 367.375091 
L 398.88446 374.095182 
L 395.412393 376.905576 
L 394.736136 377.424723 
L 383.6617 370.558921 
L 384.324452 370.022691 
L 387.80231 367.375091 
" clip-path="url(#p8e76869b29)" style="fill: #e0bd1f; stroke: #0000ff; stroke-width: 0.5"/>
    <path d="M 417.070972 371.278904 
L 425.065211 376.045788 
L 418.774193 381.073239 
L 410.80247 376.230864 
L 417.070972 371.278904 
" clip-path="url(#p8e76869b29)" style="fill: #e0bd1f; stroke: #0000ff; stroke-width: 0.5"/>
    <path d="M 410.80247 376.230864 
L 418.774193 381.073239 
L 395.840932 399.422755 
L 387.876945 394.334274 
L 410.80247 376.230864 
" clip-path="url(#p8e76869b29)" style="fill: #e0bd1f; stroke: #0000ff; stroke-width: 0.5"/>
    <path d="M 392.581212 439.865452 
L 398.098822 443.171366 
L 371.842764 463.50823 
L 366.332242 460.407097 
L 392.581212 439.865452 
" clip-path="url(#p8e76869b29)" style="fill: #e0bd1f; stroke: #0000ff; stroke-width: 0.5"/>
    <path d="M 362.752739 463.590288 
L 395.413042 482.222014 
L 395.96449 482.300127 
L 406.497787 488.328469 
L 400.778787 489.761205 
L 400.195187 489.870813 
L 396.001808 491.59235 
L 359.097281 466.694044 
L 362.752739 463.590288 
" clip-path="url(#p8e76869b29)" style="fill: #e0bd1f; stroke: #0000ff; stroke-width: 0.5"/>
    <path d="M 417.559367 454.7929 
L 425.487333 459.595887 
L 399.635376 478.757936 
L 388.503654 472.723025 
L 399.608992 464.371301 
L 400.461576 464.543264 
L 401.204106 464.762481 
L 402.758682 465.016479 
L 404.028222 465.259962 
L 417.559367 454.7929 
" clip-path="url(#p8e76869b29)" style="fill: #e0bd1f; stroke: #0000ff; stroke-width: 0.5"/>
    <path d="M 396.772019 400.52931 
L 411.641525 409.856998 
L 381.988082 433.062664 
L 366.860526 423.993558 
L 396.772019 400.52931 
" clip-path="url(#p8e76869b29)" style="fill: #e0bd1f; stroke: #0000ff; stroke-width: 0.5"/>
    <path d="M 342.796734 283.971342 
L 370.696133 298.892884 
L 387.313915 307.492036 
L 393.261986 310.893761 
L 429.042398 334.437444 
L 429.610571 334.814825 
L 454.772095 351.184224 
L 495.243268 377.846737 
L 511.293526 388.484439 
L 519.321214 393.704857 
L 543.332911 409.5505 
L 562.36362 421.884149 
L 563.130612 422.256285 
L 622.636364 461.454606 
L 545.896406 499.069873 
L 545.147436 499.426249 
L 543.202287 507.615201 
L 543.172683 509.345291 
L 552.408133 518.100646 
L 557.735912 523.197018 
L 556.141446 527.010904 
L 554.915664 527.604218 
L 552.602458 526.829774 
L 551.590319 525.443609 
L 552.069031 523.28496 
L 552.396551 522.358235 
L 551.507947 521.21097 
L 550.861293 520.604518 
L 547.24767 519.117959 
L 544.198976 518.335623 
L 541.84653 518.02714 
L 541.200502 517.710127 
L 538.902747 516.647543 
L 533.7976 515.409051 
L 532.712725 514.702867 
L 530.132482 512.081494 
L 527.761365 511.112098 
L 527.065164 510.76229 
L 525.223605 510.734055 
L 522.858906 510.860723 
L 520.256795 512.701059 
L 519.825037 513.213662 
L 518.791656 513.625161 
L 516.259687 513.328516 
L 442.473798 549.270801 
L 444.900902 557.727549 
L 438.672937 559.489772 
L 432.396073 561.252019 
L 432.169573 561.312388 
L 411.617736 567.019796 
L 404.132461 569.06359 
L 401.523911 569.78225 
L 396.487609 571.139542 
L 385.731032 574.044423 
L 383.136635 558.541381 
L 381.500336 548.808762 
L 378.382821 530.199341 
L 378.311382 529.776665 
L 371.157496 486.900956 
L 371.082212 486.441516 
L 370.586751 486.671248 
L 370.08228 486.994805 
L 364.589132 489.058943 
L 362.819661 490.579006 
L 361.575208 491.266831 
L 360.710416 492.039976 
L 360.548267 492.610986 
L 359.405504 493.411681 
L 358.6147 494.507108 
L 357.496376 495.315033 
L 356.831701 495.813175 
L 356.286044 496.520044 
L 355.222411 496.454407 
L 354.465078 496.265385 
L 353.589331 497.069388 
L 352.000657 497.979715 
L 350.778742 498.580898 
L 349.105773 499.356689 
L 347.424419 498.908401 
L 345.841536 498.986514 
L 343.715567 501.463475 
L 342.907389 502.237281 
L 341.469931 502.178212 
L 340.190106 502.638952 
L 340.249291 503.391115 
L 338.966895 504.576422 
L 339.21591 504.802208 
L 339.170879 506.119451 
L 338.395525 506.92936 
L 337.905856 506.789555 
L 337.300365 506.286144 
L 336.620888 506.186388 
L 335.896357 505.692168 
L 333.920307 505.578637 
L 332.114143 505.471651 
L 331.542751 505.597019 
L 331.147684 506.108936 
L 329.972747 506.507323 
L 329.430958 506.654996 
L 328.524332 506.553279 
L 327.909183 506.886027 
L 326.671192 506.992352 
L 324.702879 508.581975 
L 324.413951 509.094554 
L 323.803967 509.364311 
L 322.5029 511.357566 
L 321.523585 512.00012 
L 321.461157 512.399806 
L 320.568059 513.823374 
L 320.381448 514.88532 
L 320.297802 516.649504 
L 318.140306 520.111621 
L 286.953505 497.918661 
L 286.567427 497.632506 
L 251.370638 472.698098 
L 250.660908 472.281329 
L 220.903203 451.628114 
L 208.222047 442.843862 
L 342.796734 283.971342 
" clip-path="url(#p8e76869b29)" style="fill: #e0bd1f; stroke: #0000ff; stroke-width: 0.5"/>
    <path d="M 232.379146 436.927751 
L 270.915478 460.04023 
L 266.773571 463.329722 
L 262.594994 466.71831 
L 257.852113 469.014802 
L 222.460999 449.516721 
L 228.68125 440.866367 
L 232.244677 437.074763 
L 232.379146 436.927751 
" clip-path="url(#p8e76869b29)" style="fill: #e0bd1f; stroke: #0000ff; stroke-width: 0.5"/>
    <path d="M 266.961456 388.406349 
L 283.019427 397.509575 
L 256.48929 418.141785 
L 232.112131 436.770887 
L 232.244677 437.074763 
L 228.68125 440.866367 
L 248.361856 413.865174 
L 266.961456 388.406349 
" clip-path="url(#p8e76869b29)" style="fill: #e0bd1f; stroke: #0000ff; stroke-width: 0.5"/>
    <path d="M 249.433203 423.99292 
L 287.428998 446.676792 
L 279.188314 453.302395 
L 241.120455 430.485924 
L 249.433203 423.99292 
" clip-path="url(#p8e76869b29)" style="fill: #e0bd1f; stroke: #0000ff; stroke-width: 0.5"/>
    <path d="M 257.691885 417.698766 
L 295.751405 439.981629 
L 287.428998 446.676792 
L 249.433203 423.99292 
L 257.691885 417.698766 
" clip-path="url(#p8e76869b29)" style="fill: #e0bd1f; stroke: #0000ff; stroke-width: 0.5"/>
    <path d="M 269.396274 461.733531 
L 296.213416 490.523197 
L 286.567427 497.632506 
L 251.370638 472.698098 
L 262.818274 467.228951 
L 269.396274 461.733531 
" clip-path="url(#p8e76869b29)" style="fill: #e0bd1f; stroke: #0000ff; stroke-width: 0.5"/>
    <path d="M 273.48092 458.440092 
L 300.712424 487.393191 
L 296.213416 490.523197 
L 269.396274 461.733531 
L 273.48092 458.440092 
" clip-path="url(#p8e76869b29)" style="fill: #e0bd1f; stroke: #0000ff; stroke-width: 0.5"/>
    <path d="M 277.658848 455.052143 
L 304.789982 484.218553 
L 300.712424 487.393191 
L 273.48092 458.440092 
L 277.658848 455.052143 
" clip-path="url(#p8e76869b29)" style="fill: #e0bd1f; stroke: #0000ff; stroke-width: 0.5"/>
    <path d="M 303.46318 381.67376 
L 341.845702 403.299656 
L 312.293255 426.637897 
L 274.912586 404.345181 
L 282.741456 398.274828 
L 294.558446 388.895962 
L 303.46318 381.67376 
" clip-path="url(#p8e76869b29)" style="fill: #e0bd1f; stroke: #0000ff; stroke-width: 0.5"/>
    <path d="M 281.830985 451.728532 
L 309.177662 480.969085 
L 304.789982 484.218553 
L 277.658848 455.052143 
L 281.830985 451.728532 
" clip-path="url(#p8e76869b29)" style="fill: #e0bd1f; stroke: #0000ff; stroke-width: 0.5"/>
    <path d="M 285.901454 448.423941 
L 313.315053 477.6842 
L 309.177662 480.969085 
L 281.830985 451.728532 
L 285.901454 448.423941 
" clip-path="url(#p8e76869b29)" style="fill: #e0bd1f; stroke: #0000ff; stroke-width: 0.5"/>
    <path d="M 293.644107 351.65217 
L 318.092055 368.986357 
L 309.922138 375.694658 
L 287.672223 359.849675 
L 293.644107 351.65217 
" clip-path="url(#p8e76869b29)" style="fill: #e0bd1f; stroke: #0000ff; stroke-width: 0.5"/>
    <path d="M 298.300771 438.476687 
L 319.142161 460.758889 
L 314.814313 463.804899 
L 321.973991 471.451737 
L 317.617814 474.58765 
L 289.973869 445.202047 
L 298.300771 438.476687 
" clip-path="url(#p8e76869b29)" style="fill: #e0bd1f; stroke: #0000ff; stroke-width: 0.5"/>
    <path d="M 299.696417 343.424492 
L 308.731125 349.907668 
L 305.080809 353.340888 
L 296.692129 347.426761 
L 299.696417 343.424492 
" clip-path="url(#p8e76869b29)" style="fill: #e0bd1f; stroke: #0000ff; stroke-width: 0.5"/>
    <path d="M 302.416271 435.215406 
L 330.608467 465.345943 
L 326.282542 468.382762 
L 319.142161 460.758889 
L 298.300771 438.476687 
L 302.416271 435.215406 
" clip-path="url(#p8e76869b29)" style="fill: #e0bd1f; stroke: #0000ff; stroke-width: 0.5"/>
    <path d="M 307.750489 332.288625 
L 338.837569 352.324897 
L 322.431485 365.577403 
L 305.080809 353.340888 
L 308.731125 349.907668 
L 299.696417 343.424492 
L 307.750489 332.288625 
" clip-path="url(#p8e76869b29)" style="fill: #e0bd1f; stroke: #0000ff; stroke-width: 0.5"/>
    <path d="M 305.090469 484.534242 
L 326.671192 506.992352 
L 324.702879 508.581975 
L 324.413951 509.094554 
L 323.803967 509.364311 
L 322.5029 511.357566 
L 301.008417 487.718733 
L 305.090469 484.534242 
" clip-path="url(#p8e76869b29)" style="fill: #e0bd1f; stroke: #0000ff; stroke-width: 0.5"/>
    <path d="M 312.565435 374.060402 
L 350.472464 396.428608 
L 342.059323 402.968868 
L 303.780391 381.38236 
L 312.565435 374.060402 
" clip-path="url(#p8e76869b29)" style="fill: #e0bd1f; stroke: #0000ff; stroke-width: 0.5"/>
    <path d="M 309.471733 481.288059 
L 331.542751 505.597019 
L 331.147684 506.108936 
L 329.972747 506.507323 
L 329.430958 506.654996 
L 328.524332 506.553279 
L 327.909183 506.886027 
L 326.671192 506.992352 
L 305.090469 484.534242 
L 309.471733 481.288059 
" clip-path="url(#p8e76869b29)" style="fill: #e0bd1f; stroke: #0000ff; stroke-width: 0.5"/>
    <path d="M 312.470855 325.72013 
L 347.322126 345.625151 
L 343.049595 348.980281 
L 309.419613 329.792644 
L 312.470855 325.72013 
" clip-path="url(#p8e76869b29)" style="fill: #e0bd1f; stroke: #0000ff; stroke-width: 0.5"/>
    <path d="M 313.609123 477.99462 
L 338.966895 504.576422 
L 339.21591 504.802208 
L 339.170879 506.119451 
L 338.395525 506.92936 
L 337.905856 506.789555 
L 337.300365 506.286144 
L 336.620888 506.186388 
L 335.896357 505.692168 
L 333.920307 505.578637 
L 332.114143 505.471651 
L 331.542751 505.597019 
L 309.471733 481.288059 
L 313.609123 477.99462 
" clip-path="url(#p8e76869b29)" style="fill: #e0bd1f; stroke: #0000ff; stroke-width: 0.5"/>
    <path d="M 337.779726 407.077462 
L 343.172504 410.320361 
L 317.015543 431.287304 
L 311.669117 427.712956 
L 337.779726 407.077462 
" clip-path="url(#p8e76869b29)" style="fill: #e0bd1f; stroke: #0000ff; stroke-width: 0.5"/>
    <path d="M 311.669117 427.712956 
L 317.015543 431.287304 
L 322.489395 434.596479 
L 327.822965 437.945065 
L 333.296818 441.195832 
L 338.755845 444.538487 
L 344.196874 447.730846 
L 333.907451 455.961171 
L 311.669117 427.712956 
" clip-path="url(#p8e76869b29)" style="fill: #e0bd1f; stroke: #0000ff; stroke-width: 0.5"/>
    <path d="M 315.468055 321.704747 
L 325.222778 327.295316 
L 351.412539 342.352717 
L 347.322126 345.625151 
L 312.470855 325.72013 
L 315.468055 321.704747 
" clip-path="url(#p8e76869b29)" style="fill: #e0bd1f; stroke: #0000ff; stroke-width: 0.5"/>
    <path d="M 319.142161 460.758889 
L 326.282542 468.382762 
L 321.973991 471.451737 
L 314.814313 463.804899 
L 319.142161 460.758889 
" clip-path="url(#p8e76869b29)" style="fill: #e0bd1f; stroke: #0000ff; stroke-width: 0.5"/>
    <path d="M 333.224105 357.308377 
L 371.222494 379.946317 
L 354.619515 393.080684 
L 316.657794 370.675075 
L 333.224105 357.308377 
" clip-path="url(#p8e76869b29)" style="fill: #e0bd1f; stroke: #0000ff; stroke-width: 0.5"/>
    <path d="M 343.172504 410.320361 
L 348.703619 413.60657 
L 322.489395 434.596479 
L 317.015543 431.287304 
L 343.172504 410.320361 
" clip-path="url(#p8e76869b29)" style="fill: #e0bd1f; stroke: #0000ff; stroke-width: 0.5"/>
    <path d="M 322.281566 471.82255 
L 347.424419 498.908401 
L 345.841536 498.986514 
L 343.715567 501.463475 
L 342.907389 502.237281 
L 317.926686 474.916477 
L 322.281566 471.82255 
" clip-path="url(#p8e76869b29)" style="fill: #e0bd1f; stroke: #0000ff; stroke-width: 0.5"/>
    <path d="M 348.703619 413.60657 
L 354.208974 416.941357 
L 327.822965 437.945065 
L 322.489395 434.596479 
L 348.703619 413.60657 
" clip-path="url(#p8e76869b29)" style="fill: #e0bd1f; stroke: #0000ff; stroke-width: 0.5"/>
    <path d="M 328.034015 323.829915 
L 354.14013 340.148774 
L 351.412539 342.352717 
L 325.222778 327.295316 
L 328.034015 323.829915 
" clip-path="url(#p8e76869b29)" style="fill: #e0bd1f; stroke: #0000ff; stroke-width: 0.5"/>
    <path d="M 330.89158 465.653103 
L 355.893549 496.042907 
L 354.465078 496.265385 
L 353.589331 497.069388 
L 352.000657 497.979715 
L 326.507745 468.643966 
L 330.89158 465.653103 
" clip-path="url(#p8e76869b29)" style="fill: #e0bd1f; stroke: #0000ff; stroke-width: 0.5"/>
    <path d="M 354.208974 416.941357 
L 359.616554 420.164574 
L 333.296818 441.195832 
L 327.822965 437.945065 
L 354.208974 416.941357 
" clip-path="url(#p8e76869b29)" style="fill: #e0bd1f; stroke: #0000ff; stroke-width: 0.5"/>
    <path d="M 335.238747 462.520474 
L 346.17934 477.499762 
L 358.554218 494.424411 
L 355.893549 496.042907 
L 330.89158 465.653103 
L 335.238747 462.520474 
" clip-path="url(#p8e76869b29)" style="fill: #e0bd1f; stroke: #0000ff; stroke-width: 0.5"/>
    <path d="M 287.672223 359.849675 
L 309.922138 375.694658 
L 299.910038 383.976159 
L 291.469238 378.051519 
L 280.249376 370.176933 
L 287.672223 359.849675 
" clip-path="url(#p8e76869b29)" style="fill: #e0bd1f; stroke: #0000ff; stroke-width: 0.5"/>
    <path d="M 275.90221 376.193461 
L 294.253466 388.661008 
L 287.176786 394.263391 
L 270.07318 384.21572 
L 275.90221 376.193461 
" clip-path="url(#p8e76869b29)" style="fill: #e0bd1f; stroke: #0000ff; stroke-width: 0.5"/>
    <path d="M 257.102494 385.152298 
L 266.193167 388.543508 
L 227.99531 440.901809 
L 222.051108 449.28765 
L 220.650967 451.453529 
L 208.222047 442.843862 
L 257.102494 385.152298 
" clip-path="url(#p8e76869b29)" style="fill: #e0bd1f; stroke: #0000ff; stroke-width: 0.5"/>
    <path d="M 338.201849 289.417523 
L 317.799282 317.356593 
L 310.951674 326.715776 
L 294.714156 349.496806 
L 289.409542 347.048057 
L 307.946737 325.133384 
L 324.339316 305.784936 
L 338.201849 289.417523 
" clip-path="url(#p8e76869b29)" style="fill: #e0bd1f; stroke: #0000ff; stroke-width: 0.5"/>
    <path d="M 311.335158 427.982052 
L 337.028834 460.697859 
L 330.608467 465.345943 
L 302.416271 435.215406 
L 311.335158 427.982052 
" clip-path="url(#p8e76869b29)" style="fill: #e0bd1f; stroke: #0000ff; stroke-width: 0.5"/>
    <path d="M 274.912586 404.345181 
L 312.293255 426.637897 
L 295.751405 439.981629 
L 257.691885 417.698766 
L 274.912586 404.345181 
" clip-path="url(#p8e76869b29)" style="fill: #e0bd1f; stroke: #0000ff; stroke-width: 0.5"/>
    <path d="M 289.973869 445.202047 
L 317.617814 474.58765 
L 313.315053 477.6842 
L 285.901454 448.423941 
L 289.973869 445.202047 
" clip-path="url(#p8e76869b29)" style="fill: #e0bd1f; stroke: #0000ff; stroke-width: 0.5"/>
    <path d="M 316.657794 370.675075 
L 354.619515 393.080684 
L 350.472464 396.428608 
L 312.565435 374.060402 
L 316.657794 370.675075 
" clip-path="url(#p8e76869b29)" style="fill: #e0bd1f; stroke: #0000ff; stroke-width: 0.5"/>
    <path d="M 178.923781 423.142961 
L 180.756329 423.88461 
L 220.903203 451.628114 
L 250.660908 472.281329 
L 235.266964 495.396406 
L 166.164122 442.68043 
L 167.494793 440.866367 
L 169.364658 439.394221 
L 173.61465 434.175126 
L 176.94194 427.088784 
L 178.923781 423.142961 
" clip-path="url(#p8e76869b29)" style="fill: #e0bd1f; stroke: #0000ff; stroke-width: 0.5"/>
    <path d="M 359.616554 420.164574 
L 365.166964 423.492131 
L 338.755845 444.538487 
L 333.296818 441.195832 
L 359.616554 420.164574 
" clip-path="url(#p8e76869b29)" style="fill: #e0bd1f; stroke: #0000ff; stroke-width: 0.5"/>
    <path d="M 337.292003 461.03323 
L 341.590895 466.596911 
L 348.967436 475.275476 
L 348.798198 475.410673 
L 346.17934 477.499762 
L 335.238747 462.520474 
L 337.292003 461.03323 
" clip-path="url(#p8e76869b29)" style="fill: #e0bd1f; stroke: #0000ff; stroke-width: 0.5"/>
    <path d="M 343.772203 402.288273 
L 344.355804 402.897324 
L 343.942067 403.227473 
L 350.80962 407.352464 
L 354.111824 409.343096 
L 354.025606 409.408073 
L 349.03628 413.346665 
L 338.116257 406.808366 
L 343.772203 402.288273 
" clip-path="url(#p8e76869b29)" style="fill: #e0bd1f; stroke: #0000ff; stroke-width: 0.5"/>
    <path d="M 365.166964 423.492131 
L 370.615707 426.746844 
L 344.196874 447.730846 
L 338.755845 444.538487 
L 365.166964 423.492131 
" clip-path="url(#p8e76869b29)" style="fill: #e0bd1f; stroke: #0000ff; stroke-width: 0.5"/>
    <path d="M 343.756753 464.734908 
L 357.273744 476.166759 
L 370.08228 486.994805 
L 364.589132 489.058943 
L 362.819661 490.579006 
L 361.575208 491.266831 
L 348.967436 475.275476 
L 341.910052 466.318624 
L 343.756753 464.734908 
" clip-path="url(#p8e76869b29)" style="fill: #e0bd1f; stroke: #0000ff; stroke-width: 0.5"/>
    <path d="M 348.739639 398.366716 
L 354.773927 402.334867 
L 350.80962 407.352464 
L 343.942067 403.227473 
L 344.355804 402.897324 
L 343.772203 402.288273 
L 348.739639 398.366716 
" clip-path="url(#p8e76869b29)" style="fill: #e0bd1f; stroke: #0000ff; stroke-width: 0.5"/>
    <path d="M 349.226088 460.055304 
L 359.097281 466.694044 
L 396.001808 491.59235 
L 394.786333 492.398975 
L 384.721464 489.254533 
L 360.736801 473.204108 
L 357.433972 476.0296 
L 343.917629 464.595764 
L 349.226088 460.055304 
" clip-path="url(#p8e76869b29)" style="fill: #e0bd1f; stroke: #0000ff; stroke-width: 0.5"/>
    <path d="M 370.615707 426.746844 
L 381.615508 433.352765 
L 355.219839 454.076201 
L 344.196874 447.730846 
L 370.615707 426.746844 
" clip-path="url(#p8e76869b29)" style="fill: #e0bd1f; stroke: #0000ff; stroke-width: 0.5"/>
    <path d="M 349.863754 344.103126 
L 387.926494 366.701703 
L 383.707379 369.982004 
L 345.685177 347.402472 
L 349.863754 344.103126 
" clip-path="url(#p8e76869b29)" style="fill: #e0bd1f; stroke: #0000ff; stroke-width: 0.5"/>
    <path d="M 348.967436 475.275476 
L 361.575208 491.266831 
L 360.710416 492.039976 
L 360.548267 492.610986 
L 359.405504 493.411681 
L 358.554218 494.424411 
L 346.17934 477.499762 
L 348.798198 475.410673 
L 348.967436 475.275476 
" clip-path="url(#p8e76869b29)" style="fill: #e0bd1f; stroke: #0000ff; stroke-width: 0.5"/>
    <path d="M 452.572139 377.261952 
L 460.442195 382.445605 
L 449.889579 390.855098 
L 458.346455 395.951447 
L 427.915712 419.972268 
L 411.965825 409.591187 
L 429.300425 395.789338 
L 441.731267 385.890663 
L 452.572139 377.261952 
" clip-path="url(#p8e76869b29)" style="fill: #e0bd1f; stroke: #0000ff; stroke-width: 0.5"/>
    <path d="M 511.293526 388.484439 
L 519.321214 393.704857 
L 491.015792 415.628059 
L 485.679002 412.438984 
L 482.769317 410.664923 
L 511.293526 388.484439 
" clip-path="url(#p8e76869b29)" style="fill: #e0bd1f; stroke: #0000ff; stroke-width: 0.5"/>
    <path d="M 543.332911 409.5505 
L 562.36362 421.884149 
L 562.323083 422.351434 
L 545.904768 496.212884 
L 524.605884 482.312579 
L 552.003407 452.838371 
L 532.05127 440.594649 
L 523.672249 435.555385 
L 515.56476 430.703819 
L 543.332911 409.5505 
" clip-path="url(#p8e76869b29)" style="fill: #e0bd1f; stroke: #0000ff; stroke-width: 0.5"/>
    <path d="M 543.172683 509.345291 
L 552.408133 518.100646 
L 557.735912 523.197018 
L 556.141446 527.010904 
L 552.66294 526.850117 
L 552.396551 522.358235 
L 552.386266 522.187573 
L 551.507947 521.21097 
L 550.861293 520.604518 
L 547.24767 519.117959 
L 544.198976 518.335623 
L 541.84653 518.02714 
L 541.200502 517.710127 
L 543.172683 509.345291 
" clip-path="url(#p8e76869b29)" style="fill: #e0bd1f; stroke: #0000ff; stroke-width: 0.5"/>
    <path d="M 345.685177 347.402472 
L 383.707379 369.982004 
L 375.337995 376.568882 
L 337.552601 353.92305 
L 345.685177 347.402472 
" clip-path="url(#p8e76869b29)" style="fill: #e0bd1f; stroke: #0000ff; stroke-width: 0.5"/>
    <path d="M 519.321214 393.704857 
L 543.332911 409.5505 
L 515.56476 430.703819 
L 499.186334 420.627275 
L 491.015792 415.628059 
L 519.321214 393.704857 
" clip-path="url(#p8e76869b29)" style="fill: #e0bd1f; stroke: #0000ff; stroke-width: 0.5"/>
    <path d="M 344.196874 447.730846 
L 355.219839 454.076201 
L 355.677982 454.34069 
L 352.30566 457.169466 
L 352.103598 457.056573 
L 341.653323 465.98193 
L 333.907451 455.961171 
L 344.196874 447.730846 
" clip-path="url(#p8e76869b29)" style="fill: #e0bd1f; stroke: #0000ff; stroke-width: 0.5"/>
    <path d="M 454.772095 351.184224 
L 495.243268 377.846737 
L 495.375165 377.934042 
L 466.427583 400.797083 
L 458.346455 395.951447 
L 449.889579 390.855098 
L 460.442195 382.445605 
L 452.572139 377.261952 
L 441.731267 385.890663 
L 433.282105 381.006278 
L 425.381797 375.780639 
L 454.772095 351.184224 
" clip-path="url(#p8e76869b29)" style="fill: #e0bd1f; stroke: #0000ff; stroke-width: 0.5"/>
    <path d="M 495.375165 377.934042 
L 511.293526 388.484439 
L 482.769317 410.664923 
L 466.427583 400.797083 
L 495.375165 377.934042 
" clip-path="url(#p8e76869b29)" style="fill: #e0bd1f; stroke: #0000ff; stroke-width: 0.5"/>
    <path d="M 368.631295 382.547346 
L 379.537813 389.469595 
L 359.35723 405.212198 
L 354.773927 402.334867 
L 348.739639 398.366716 
L 368.631295 382.547346 
" clip-path="url(#p8e76869b29)" style="fill: #e0bd1f; stroke: #0000ff; stroke-width: 0.5"/>
    <path d="M 343.917629 464.595764 
L 357.433972 476.0296 
L 360.736801 473.204108 
L 384.721464 489.254533 
L 382.5112 489.990275 
L 373.872207 486.77821 
L 371.082212 486.441516 
L 370.586751 486.671248 
L 370.08228 486.994805 
L 357.273744 476.166759 
L 343.756753 464.734908 
L 343.917629 464.595764 
" clip-path="url(#p8e76869b29)" style="fill: #e0bd1f; stroke: #0000ff; stroke-width: 0.5"/>
    <path d="M 404.865355 523.663003 
L 411.218778 564.349868 
L 411.617736 567.019796 
L 404.132461 569.06359 
L 396.968267 525.643121 
L 404.865355 523.663003 
" clip-path="url(#p8e76869b29)" style="fill: #e0bd1f; stroke: #0000ff; stroke-width: 0.5"/>
    <path d="M 404.442608 489.052374 
L 409.814144 521.927668 
L 404.757896 523.246896 
L 398.90056 490.639375 
L 400.536859 489.832749 
L 404.442608 489.052374 
" clip-path="url(#p8e76869b29)" style="fill: #e0bd1f; stroke: #0000ff; stroke-width: 0.5"/>
    <path d="M 414.643891 453.049697 
L 417.559367 454.7929 
L 404.028222 465.259962 
L 402.758682 465.016479 
L 401.204106 464.762481 
L 400.461576 464.543264 
L 399.608992 464.371301 
L 414.643891 453.049697 
" clip-path="url(#p8e76869b29)" style="fill: #e0bd1f; stroke: #0000ff; stroke-width: 0.5"/>
    <path d="M 425.487333 459.595887 
L 436.521881 466.114504 
L 410.891281 484.749514 
L 399.635376 478.757936 
L 425.487333 459.595887 
" clip-path="url(#p8e76869b29)" style="fill: #e0bd1f; stroke: #0000ff; stroke-width: 0.5"/>
    <path d="M 424.013183 388.263922 
L 429.300425 395.789338 
L 411.965825 409.591187 
L 403.905961 404.511897 
L 424.013183 388.263922 
" clip-path="url(#p8e76869b29)" style="fill: #e0bd1f; stroke: #0000ff; stroke-width: 0.5"/>
    <path d="M 409.86946 522.360858 
L 416.244796 561.886021 
L 411.218778 564.349868 
L 404.865355 523.663003 
L 409.86946 522.360858 
" clip-path="url(#p8e76869b29)" style="fill: #e0bd1f; stroke: #0000ff; stroke-width: 0.5"/>
    <path d="M 409.312244 490.143193 
L 411.012245 490.815283 
L 412.595777 491.677031 
L 413.468305 492.565692 
L 419.486494 494.009603 
L 421.245704 494.711865 
L 422.785478 495.188365 
L 423.888351 495.294689 
L 428.48773 517.666818 
L 414.773217 520.678685 
L 409.312244 490.143193 
" clip-path="url(#p8e76869b29)" style="fill: #e0bd1f; stroke: #0000ff; stroke-width: 0.5"/>
    <path d="M 436.521881 466.114504 
L 441.950679 469.319339 
L 416.514404 487.696429 
L 410.891281 484.749514 
L 436.521881 466.114504 
" clip-path="url(#p8e76869b29)" style="fill: #e0bd1f; stroke: #0000ff; stroke-width: 0.5"/>
    <path d="M 431.106588 554.594259 
L 432.169573 561.312388 
L 411.617736 567.019796 
L 411.218778 564.349868 
L 416.244796 561.886021 
L 421.178782 559.439894 
L 423.64962 558.285422 
L 427.297991 556.569131 
L 431.106588 554.594259 
" clip-path="url(#p8e76869b29)" style="fill: #e0bd1f; stroke: #0000ff; stroke-width: 0.5"/>
    <path d="M 417.46993 520.529051 
L 423.64962 558.285422 
L 421.178782 559.439894 
L 414.921862 521.085601 
L 417.46993 520.529051 
" clip-path="url(#p8e76869b29)" style="fill: #e0bd1f; stroke: #0000ff; stroke-width: 0.5"/>
    <path d="M 441.950679 469.319339 
L 447.485014 472.532042 
L 424.888908 490.696483 
L 416.514404 487.696429 
L 441.950679 469.319339 
" clip-path="url(#p8e76869b29)" style="fill: #e0bd1f; stroke: #0000ff; stroke-width: 0.5"/>
    <path d="M 421.330624 519.675832 
L 425.18555 543.529275 
L 427.297991 556.569131 
L 423.64962 558.285422 
L 417.46993 520.529051 
L 421.330624 519.675832 
" clip-path="url(#p8e76869b29)" style="fill: #e0bd1f; stroke: #0000ff; stroke-width: 0.5"/>
    <path d="M 439.80926 428.096906 
L 447.078991 432.794868 
L 419.3044 453.412004 
L 418.648713 451.423333 
L 418.65001 450.249817 
L 419.220105 447.19464 
L 419.173128 445.051089 
L 418.963376 444.210984 
L 439.80926 428.096906 
" clip-path="url(#p8e76869b29)" style="fill: #e0bd1f; stroke: #0000ff; stroke-width: 0.5"/>
    <path d="M 435.693759 425.430924 
L 439.80926 428.096906 
L 418.963376 444.210984 
L 418.900948 442.589203 
L 418.976232 440.246779 
L 419.210446 438.174111 
L 435.693759 425.430924 
" clip-path="url(#p8e76869b29)" style="fill: #e0bd1f; stroke: #0000ff; stroke-width: 0.5"/>
    <path d="M 447.078991 432.794868 
L 451.778763 435.761465 
L 423.077602 457.645942 
L 418.974309 455.178834 
L 419.133888 453.827449 
L 419.3044 453.412004 
L 447.078991 432.794868 
" clip-path="url(#p8e76869b29)" style="fill: #e0bd1f; stroke: #0000ff; stroke-width: 0.5"/>
    <path d="M 425.391457 518.783226 
L 427.434405 531.365627 
L 427.749694 531.346583 
L 427.880965 531.995045 
L 427.552797 532.097423 
L 429.10288 541.618055 
L 425.18555 543.529275 
L 421.330624 519.675832 
L 425.391457 518.783226 
" clip-path="url(#p8e76869b29)" style="fill: #e0bd1f; stroke: #0000ff; stroke-width: 0.5"/>
    <path d="M 433.094846 380.968214 
L 433.282105 381.006278 
L 441.731267 385.890663 
L 429.300425 395.789338 
L 424.013183 388.263922 
L 433.094846 380.968214 
" clip-path="url(#p8e76869b29)" style="fill: #e0bd1f; stroke: #0000ff; stroke-width: 0.5"/>
    <path d="M 404.442608 489.052374 
L 409.312244 490.143193 
L 414.773217 520.678685 
L 409.814144 521.927668 
L 404.442608 489.052374 
" clip-path="url(#p8e76869b29)" style="fill: #e0bd1f; stroke: #0000ff; stroke-width: 0.5"/>
    <path d="M 428.469083 518.120989 
L 433.159196 537.141271 
L 436.78827 551.837688 
L 431.300264 554.494503 
L 431.191531 554.543058 
L 429.10288 541.618055 
L 427.552797 532.097423 
L 427.880965 531.995045 
L 427.749694 531.346583 
L 427.434405 531.365627 
L 425.391457 518.783226 
L 428.469083 518.120989 
" clip-path="url(#p8e76869b29)" style="fill: #e0bd1f; stroke: #0000ff; stroke-width: 0.5"/>
    <path d="M 438.160104 534.794263 
L 442.473798 549.270801 
L 436.78827 551.837688 
L 433.159196 537.141271 
L 438.160104 534.794263 
" clip-path="url(#p8e76869b29)" style="fill: #e0bd1f; stroke: #0000ff; stroke-width: 0.5"/>
    <path d="M 443.556727 492.483657 
L 448.140029 512.561916 
L 442.042039 514.39833 
L 437.669786 495.322263 
L 443.095387 493.422857 
L 443.556727 492.483657 
" clip-path="url(#p8e76869b29)" style="fill: #e0bd1f; stroke: #0000ff; stroke-width: 0.5"/>
    <path d="M 427.620368 420.206584 
L 435.693759 425.430924 
L 419.210446 438.174111 
L 406.693386 447.822734 
L 398.452076 442.891779 
L 415.928858 429.374124 
L 427.620368 420.206584 
" clip-path="url(#p8e76869b29)" style="fill: #e0bd1f; stroke: #0000ff; stroke-width: 0.5"/>
    <path d="M 447.226338 513.40136 
L 450.644989 524.014796 
L 449.670816 524.489972 
L 447.015289 525.782926 
L 444.361036 527.07588 
L 441.703586 528.370157 
L 437.415628 530.457922 
L 433.40886 517.023625 
L 438.291376 515.850771 
L 442.792955 514.734363 
L 447.226338 513.40136 
" clip-path="url(#p8e76869b29)" style="fill: #e0bd1f; stroke: #0000ff; stroke-width: 0.5"/>
    <path d="M 441.703586 528.370157 
L 444.603635 537.302081 
L 440.10655 539.490926 
L 437.415628 530.457922 
L 441.703586 528.370157 
" clip-path="url(#p8e76869b29)" style="fill: #e0bd1f; stroke: #0000ff; stroke-width: 0.5"/>
    <path d="M 419.210446 438.174111 
L 418.976232 440.246779 
L 418.900948 442.589203 
L 418.963376 444.210984 
L 419.173128 445.051089 
L 419.220105 447.19464 
L 418.65001 450.249817 
L 418.648713 451.423333 
L 419.3044 453.412004 
L 419.133888 453.827449 
L 418.974309 455.178834 
L 406.693386 447.822734 
L 419.210446 438.174111 
" clip-path="url(#p8e76869b29)" style="fill: #e0bd1f; stroke: #0000ff; stroke-width: 0.5"/>
    <path d="M 414.921862 521.085601 
L 421.178782 559.439894 
L 416.244796 561.886021 
L 409.86946 522.360858 
L 414.921862 521.085601 
" clip-path="url(#p8e76869b29)" style="fill: #e0bd1f; stroke: #0000ff; stroke-width: 0.5"/>
    <path d="M 429.10288 541.618055 
L 431.191531 554.543058 
L 431.106588 554.594259 
L 427.297991 556.569131 
L 425.18555 543.529275 
L 429.10288 541.618055 
" clip-path="url(#p8e76869b29)" style="fill: #e0bd1f; stroke: #0000ff; stroke-width: 0.5"/>
    <path d="M 451.778763 435.761465 
L 457.133551 439.234734 
L 428.580387 460.945288 
L 423.077602 457.645942 
L 451.778763 435.761465 
" clip-path="url(#p8e76869b29)" style="fill: #e0bd1f; stroke: #0000ff; stroke-width: 0.5"/>
    <path d="M 423.888351 495.294689 
L 432.012565 497.121227 
L 437.669786 495.322263 
L 442.042039 514.39833 
L 428.48773 517.666818 
L 423.888351 495.294689 
" clip-path="url(#p8e76869b29)" style="fill: #e0bd1f; stroke: #0000ff; stroke-width: 0.5"/>
    <path d="M 447.485014 472.532042 
L 455.769432 477.281206 
L 431.629081 495.837464 
L 428.764427 494.727625 
L 424.966763 490.785748 
L 424.888908 490.696483 
L 447.485014 472.532042 
" clip-path="url(#p8e76869b29)" style="fill: #e0bd1f; stroke: #0000ff; stroke-width: 0.5"/>
    <path d="M 458.346455 395.951447 
L 466.427583 400.797083 
L 436.050234 425.155921 
L 427.915712 419.972268 
L 458.346455 395.951447 
" clip-path="url(#p8e76869b29)" style="fill: #e0bd1f; stroke: #0000ff; stroke-width: 0.5"/>
    <path d="M 457.133551 439.234734 
L 459.796815 440.952325 
L 431.237211 462.521136 
L 428.580387 460.945288 
L 457.133551 439.234734 
" clip-path="url(#p8e76869b29)" style="fill: #e0bd1f; stroke: #0000ff; stroke-width: 0.5"/>
    <path d="M 459.975041 441.073109 
L 467.869558 446.159606 
L 439.489477 467.40089 
L 431.43281 462.634667 
L 459.975041 441.073109 
" clip-path="url(#p8e76869b29)" style="fill: #e0bd1f; stroke: #0000ff; stroke-width: 0.5"/>
    <path d="M 455.769432 477.281206 
L 464.985608 482.474712 
L 453.8616 490.664963 
L 450.269218 491.576614 
L 443.471806 492.389784 
L 432.689471 496.5673 
L 431.629081 495.837464 
L 455.769432 477.281206 
" clip-path="url(#p8e76869b29)" style="fill: #e0bd1f; stroke: #0000ff; stroke-width: 0.5"/>
    <path d="M 466.427583 400.797083 
L 482.769317 410.664923 
L 452.124281 435.461536 
L 436.050234 425.155921 
L 466.427583 400.797083 
" clip-path="url(#p8e76869b29)" style="fill: #e0bd1f; stroke: #0000ff; stroke-width: 0.5"/>
    <path d="M 442.473798 549.270801 
L 444.900902 557.727549 
L 438.672937 559.489772 
L 436.78827 551.837688 
L 442.473798 549.270801 
" clip-path="url(#p8e76869b29)" style="fill: #e0bd1f; stroke: #0000ff; stroke-width: 0.5"/>
    <path d="M 482.769317 410.664923 
L 485.679002 412.438984 
L 455.239248 437.483663 
L 452.124281 435.461536 
L 482.769317 410.664923 
" clip-path="url(#p8e76869b29)" style="fill: #e0bd1f; stroke: #0000ff; stroke-width: 0.5"/>
    <path d="M 500.000303 466.971669 
L 508.235844 472.220937 
L 480.81064 490.989844 
L 472.45029 486.46056 
L 472.629164 486.337176 
L 500.000303 466.971669 
" clip-path="url(#p8e76869b29)" style="fill: #e0bd1f; stroke: #0000ff; stroke-width: 0.5"/>
    <path d="M 508.235844 472.220937 
L 508.785995 472.559616 
L 499.69787 479.030316 
L 507.695978 483.635729 
L 510.93126 482.760867 
L 518.962168 488.174228 
L 522.596385 481.607694 
L 524.344012 482.642728 
L 501.751775 508.746707 
L 500.812974 507.857385 
L 502.113392 498.884773 
L 501.113461 497.788709 
L 497.355061 494.813606 
L 495.973591 494.492648 
L 490.175439 494.501201 
L 487.979977 494.723679 
L 480.81064 490.989844 
L 508.235844 472.220937 
" clip-path="url(#p8e76869b29)" style="fill: #e0bd1f; stroke: #0000ff; stroke-width: 0.5"/>
    <path d="M 532.05127 440.594649 
L 552.003407 452.838371 
L 524.605884 482.312579 
L 500.367062 466.693383 
L 532.05127 440.594649 
" clip-path="url(#p8e76869b29)" style="fill: #e0bd1f; stroke: #0000ff; stroke-width: 0.5"/>
    <path d="M 524.344012 482.642728 
L 530.061715 486.361465 
L 504.359677 515.244319 
L 502.108899 513.021356 
L 501.751775 508.746707 
L 524.344012 482.642728 
" clip-path="url(#p8e76869b29)" style="fill: #e0bd1f; stroke: #0000ff; stroke-width: 0.5"/>
    <path d="M 530.061715 486.361465 
L 535.15528 489.688361 
L 513.758573 513.070572 
L 512.884123 513.650112 
L 507.994542 514.668725 
L 504.359677 515.244319 
L 530.061715 486.361465 
" clip-path="url(#p8e76869b29)" style="fill: #e0bd1f; stroke: #0000ff; stroke-width: 0.5"/>
    <path d="M 516.524779 477.630376 
L 522.596385 481.607694 
L 518.962168 488.174228 
L 510.93126 482.760867 
L 516.524779 477.630376 
" clip-path="url(#p8e76869b29)" style="fill: #e0bd1f; stroke: #0000ff; stroke-width: 0.5"/>
    <path d="M 541.743565 493.980069 
L 545.810837 496.631614 
L 545.147436 499.426249 
L 543.202287 507.615201 
L 543.172683 509.345291 
L 541.200502 517.710127 
L 538.902747 516.647543 
L 533.7976 515.409051 
L 532.712725 514.702867 
L 530.132482 512.081494 
L 527.761365 511.112098 
L 527.065164 510.76229 
L 541.743565 493.980069 
" clip-path="url(#p8e76869b29)" style="fill: #e0bd1f; stroke: #0000ff; stroke-width: 0.5"/>
    <path d="M 451.466671 491.727571 
L 457.223637 509.85787 
L 455.255973 510.499101 
L 450.179132 491.876544 
L 450.558771 491.78794 
L 451.366949 491.739385 
L 451.466671 491.727571 
" clip-path="url(#p8e76869b29)" style="fill: #e0bd1f; stroke: #0000ff; stroke-width: 0.5"/>
    <path d="M 499.186334 420.627275 
L 515.56476 430.703819 
L 523.672249 435.555385 
L 492.332286 461.423087 
L 476.372114 450.920583 
L 468.202845 445.876735 
L 498.838222 420.911468 
L 499.186334 420.627275 
" clip-path="url(#p8e76869b29)" style="fill: #e0bd1f; stroke: #0000ff; stroke-width: 0.5"/>
    <path d="M 491.015792 415.628059 
L 499.186334 420.627275 
L 498.838222 420.911468 
L 468.202845 445.876735 
L 460.123037 440.658964 
L 491.015792 415.628059 
" clip-path="url(#p8e76869b29)" style="fill: #e0bd1f; stroke: #0000ff; stroke-width: 0.5"/>
    <path d="M 523.672249 435.555385 
L 532.05127 440.594649 
L 500.367062 466.693383 
L 492.332286 461.423087 
L 523.672249 435.555385 
" clip-path="url(#p8e76869b29)" style="fill: #e0bd1f; stroke: #0000ff; stroke-width: 0.5"/>
    <path d="M 464.985608 482.474712 
L 467.258277 483.754529 
L 461.899597 493.686046 
L 461.418313 492.865622 
L 461.052179 491.100114 
L 453.8616 490.664963 
L 464.985608 482.474712 
" clip-path="url(#p8e76869b29)" style="fill: #e0bd1f; stroke: #0000ff; stroke-width: 0.5"/>
    <path d="M 451.808344 512.053921 
L 454.981221 521.903403 
L 452.327617 523.196356 
L 450.644989 524.014796 
L 447.226338 513.40136 
L 451.808344 512.053921 
" clip-path="url(#p8e76869b29)" style="fill: #e0bd1f; stroke: #0000ff; stroke-width: 0.5"/>
    <path d="M 457.40638 510.430179 
L 460.289056 519.317471 
L 457.637374 520.609787 
L 454.981221 521.903403 
L 451.808344 512.053921 
L 457.40638 510.430179 
" clip-path="url(#p8e76869b29)" style="fill: #e0bd1f; stroke: #0000ff; stroke-width: 0.5"/>
    <path d="M 460.289056 519.317471 
L 463.191004 528.248073 
L 460.535477 529.541688 
L 457.637374 520.609787 
L 460.289056 519.317471 
" clip-path="url(#p8e76869b29)" style="fill: #e0bd1f; stroke: #0000ff; stroke-width: 0.5"/>
    <path d="M 452.327617 523.196356 
L 455.224446 532.129581 
L 452.568919 533.419912 
L 449.670816 524.489972 
L 450.644989 524.014796 
L 452.327617 523.196356 
" clip-path="url(#p8e76869b29)" style="fill: #e0bd1f; stroke: #0000ff; stroke-width: 0.5"/>
    <path d="M 469.953693 507.178089 
L 471.328097 511.40286 
L 459.303278 514.518429 
L 457.935938 510.293021 
L 469.953693 507.178089 
" clip-path="url(#p8e76869b29)" style="fill: #e0bd1f; stroke: #0000ff; stroke-width: 0.5"/>
    <path d="M 471.328097 511.40286 
L 472.698657 515.622362 
L 460.671266 518.740554 
L 459.303278 514.518429 
L 471.328097 511.40286 
" clip-path="url(#p8e76869b29)" style="fill: #e0bd1f; stroke: #0000ff; stroke-width: 0.5"/>
    <path d="M 452.734289 533.928569 
L 455.631743 542.862454 
L 442.951885 549.037808 
L 440.259689 540.004167 
L 444.769005 537.809415 
L 447.423235 536.516461 
L 450.078762 535.221522 
L 452.734289 533.928569 
" clip-path="url(#p8e76869b29)" style="fill: #e0bd1f; stroke: #0000ff; stroke-width: 0.5"/>
    <path d="M 479.225834 506.567715 
L 486.664757 527.745984 
L 478.001974 531.966148 
L 475.809732 525.216523 
L 475.438479 524.067958 
L 474.755133 521.957864 
L 474.067919 519.843849 
L 473.384574 517.733755 
L 472.698657 515.622362 
L 471.328097 511.40286 
L 469.953693 507.178089 
L 479.225834 506.567715 
" clip-path="url(#p8e76869b29)" style="fill: #e0bd1f; stroke: #0000ff; stroke-width: 0.5"/>
    <path d="M 475.438479 524.067958 
L 475.809732 525.216523 
L 464.39492 530.247234 
L 463.405273 527.190096 
L 475.438479 524.067958 
" clip-path="url(#p8e76869b29)" style="fill: #e0bd1f; stroke: #0000ff; stroke-width: 0.5"/>
    <path d="M 463.3551 528.75543 
L 466.251257 537.689315 
L 463.59895 538.982269 
L 460.700221 530.049683 
L 463.3551 528.75543 
" clip-path="url(#p8e76869b29)" style="fill: #e0bd1f; stroke: #0000ff; stroke-width: 0.5"/>
    <path d="M 474.067919 519.843849 
L 474.755133 521.957864 
L 475.438479 524.067958 
L 463.405273 527.190096 
L 462.037957 522.964002 
L 474.067919 519.843849 
" clip-path="url(#p8e76869b29)" style="fill: #e0bd1f; stroke: #0000ff; stroke-width: 0.5"/>
    <path d="M 472.698657 515.622362 
L 473.384574 517.733755 
L 474.067919 519.843849 
L 462.037957 522.964002 
L 460.671266 518.740554 
L 472.698657 515.622362 
" clip-path="url(#p8e76869b29)" style="fill: #e0bd1f; stroke: #0000ff; stroke-width: 0.5"/>
    <path d="M 508.785995 472.559616 
L 516.524779 477.630376 
L 510.93126 482.760867 
L 507.695978 483.635729 
L 499.69787 479.030316 
L 508.785995 472.559616 
" clip-path="url(#p8e76869b29)" style="fill: #e0bd1f; stroke: #0000ff; stroke-width: 0.5"/>
    <path d="M 475.98219 451.213968 
L 484.007307 456.558407 
L 456.109182 477.018679 
L 447.809939 472.257701 
L 475.98219 451.213968 
" clip-path="url(#p8e76869b29)" style="fill: #e0bd1f; stroke: #0000ff; stroke-width: 0.5"/>
    <path d="M 484.007307 456.558407 
L 500.000303 466.971669 
L 472.629164 486.337176 
L 456.109182 477.018679 
L 484.007307 456.558407 
" clip-path="url(#p8e76869b29)" style="fill: #e0bd1f; stroke: #0000ff; stroke-width: 0.5"/>
    <path d="M 450.179132 491.876544 
L 455.255973 510.499101 
L 448.140029 512.561916 
L 443.556727 492.483657 
L 450.179132 491.876544 
" clip-path="url(#p8e76869b29)" style="fill: #e0bd1f; stroke: #0000ff; stroke-width: 0.5"/>
    <path d="M 475.809732 525.216523 
L 478.001974 531.966148 
L 466.730641 537.456323 
L 464.39492 530.247234 
L 475.809732 525.216523 
" clip-path="url(#p8e76869b29)" style="fill: #e0bd1f; stroke: #0000ff; stroke-width: 0.5"/>
    <path d="M 408.857969 366.146452 
L 417.070972 371.278904 
L 387.876945 394.334274 
L 369.022516 382.265775 
L 380.033899 373.501867 
L 391.0009 380.403772 
L 393.349501 378.542455 
L 394.736136 377.424723 
L 395.412393 376.905576 
L 398.88446 374.095182 
L 402.197598 371.454788 
L 405.544184 368.786845 
L 407.1052 367.542446 
L 408.857969 366.146452 
" clip-path="url(#p8e76869b29)" style="fill: #e0bd1f; stroke: #0000ff; stroke-width: 0.5"/>
    <path d="M 280.249376 370.176933 
L 291.469238 378.051519 
L 289.495134 379.313615 
L 298.272464 385.311785 
L 294.253466 388.661008 
L 275.90221 376.193461 
L 280.249376 370.176933 
" clip-path="url(#p8e76869b29)" style="fill: #e0bd1f; stroke: #0000ff; stroke-width: 0.5"/>
    <path d="M 140.503293 263.565556 
L 148.096003 268.643547 
L 182.084405 294.174554 
L 289.385752 347.036243 
L 257.099923 385.150975 
L 203.553176 364.262145 
L 122.485348 307.916035 
L 115.363636 302.933217 
L 140.503293 263.565556 
" clip-path="url(#p8e76869b29)" style="fill: #e0bd1f; stroke: #0000ff; stroke-width: 0.5"/>
    <path d="M 382.384446 371.592632 
L 393.349501 378.542455 
L 391.0009 380.403772 
L 380.033899 373.501867 
L 382.384446 371.592632 
" clip-path="url(#p8e76869b29)" style="fill: #e0bd1f; stroke: #0000ff; stroke-width: 0.5"/>
    <path d="M 337.552601 353.92305 
L 375.337995 376.568882 
L 371.222494 379.946317 
L 333.224105 357.308377 
L 337.552601 353.92305 
" clip-path="url(#p8e76869b29)" style="fill: #e0bd1f; stroke: #0000ff; stroke-width: 0.5"/>
    <path d="M 391.158533 364.758326 
L 402.197598 371.454788 
L 398.88446 374.095182 
L 387.80231 367.375091 
L 391.158533 364.758326 
" clip-path="url(#p8e76869b29)" style="fill: #e0bd1f; stroke: #0000ff; stroke-width: 0.5"/>
    <path d="M 342.796734 283.971342 
L 370.757264 298.875163 
L 386.164064 306.762862 
L 393.267129 310.892461 
L 429.057849 334.430214 
L 392.354086 363.020368 
L 354.522989 340.212451 
L 318.292797 317.605345 
L 326.113304 307.010291 
L 342.796734 283.971342 
" clip-path="url(#p8e76869b29)" style="fill: #e0bd1f; stroke: #0000ff; stroke-width: 0.5"/>
    <path d="M 309.419613 329.792644 
L 343.049595 348.980281 
L 338.837569 352.324897 
L 307.750489 332.288625 
L 309.419613 329.792644 
" clip-path="url(#p8e76869b29)" style="fill: #e0bd1f; stroke: #0000ff; stroke-width: 0.5"/>
    <path d="M 383.6617 370.558921 
L 394.736136 377.424723 
L 393.349501 378.542455 
L 382.384446 371.592632 
L 383.6617 370.558921 
" clip-path="url(#p8e76869b29)" style="fill: #e0bd1f; stroke: #0000ff; stroke-width: 0.5"/>
    <path d="M 296.692129 347.426761 
L 305.080809 353.340888 
L 322.431485 365.577403 
L 318.092055 368.986357 
L 293.644107 351.65217 
L 296.692129 347.426761 
" clip-path="url(#p8e76869b29)" style="fill: #e0bd1f; stroke: #0000ff; stroke-width: 0.5"/>
    <path d="M 289.409542 347.048057 
L 294.714156 349.496806 
L 266.193167 388.543508 
L 257.102494 385.152298 
L 289.409542 347.048057 
" clip-path="url(#p8e76869b29)" style="fill: #e0bd1f; stroke: #0000ff; stroke-width: 0.5"/>
    <path d="M 429.610571 334.814825 
L 454.772095 351.184224 
L 425.381797 375.780639 
L 398.324024 359.037143 
L 429.610571 334.814825 
" clip-path="url(#p8e76869b29)" style="fill: #e0bd1f; stroke: #0000ff; stroke-width: 0.5"/>
    <path d="M 394.803706 361.830455 
L 405.544184 368.786845 
L 402.197598 371.454788 
L 391.158533 364.758326 
L 394.803706 361.830455 
" clip-path="url(#p8e76869b29)" style="fill: #e0bd1f; stroke: #0000ff; stroke-width: 0.5"/>
   </g>
   <g id="PatchCollection_2">
    <path d="M 342.796734 283.971342 
L 370.696133 298.892884 
L 387.313915 307.492036 
L 393.261986 310.893761 
L 429.042398 334.437444 
L 429.610571 334.814825 
L 454.772095 351.184224 
L 495.243268 377.846737 
L 511.293526 388.484439 
L 519.321214 393.704857 
L 543.332911 409.5505 
L 562.36362 421.884149 
L 563.130612 422.256285 
L 622.636364 461.454606 
L 545.896406 499.069873 
L 545.147436 499.426249 
L 543.202287 507.615201 
L 543.172683 509.345291 
L 552.408133 518.100646 
L 557.735912 523.197018 
L 556.141446 527.010904 
L 554.915664 527.604218 
L 552.602458 526.829774 
L 551.590319 525.443609 
L 552.069031 523.28496 
L 552.396551 522.358235 
L 551.507947 521.21097 
L 550.861293 520.604518 
L 547.24767 519.117959 
L 544.198976 518.335623 
L 541.84653 518.02714 
L 541.200502 517.710127 
L 538.902747 516.647543 
L 533.7976 515.409051 
L 532.712725 514.702867 
L 530.132482 512.081494 
L 527.761365 511.112098 
L 527.065164 510.76229 
L 525.223605 510.734055 
L 522.858906 510.860723 
L 520.256795 512.701059 
L 519.825037 513.213662 
L 518.791656 513.625161 
L 516.259687 513.328516 
L 442.473798 549.270801 
L 444.900902 557.727549 
L 438.672937 559.489772 
L 432.396073 561.252019 
L 432.169573 561.312388 
L 411.617736 567.019796 
L 404.132461 569.06359 
L 401.523911 569.78225 
L 396.487609 571.139542 
L 385.731032 574.044423 
L 383.136635 558.541381 
L 381.500336 548.808762 
L 378.382821 530.199341 
L 378.311382 529.776665 
L 371.157496 486.900956 
L 371.082212 486.441516 
L 370.586751 486.671248 
L 370.08228 486.994805 
L 364.589132 489.058943 
L 362.819661 490.579006 
L 361.575208 491.266831 
L 360.710416 492.039976 
L 360.548267 492.610986 
L 359.405504 493.411681 
L 358.6147 494.507108 
L 357.496376 495.315033 
L 356.831701 495.813175 
L 356.286044 496.520044 
L 355.222411 496.454407 
L 354.465078 496.265385 
L 353.589331 497.069388 
L 352.000657 497.979715 
L 350.778742 498.580898 
L 349.105773 499.356689 
L 347.424419 498.908401 
L 345.841536 498.986514 
L 343.715567 501.463475 
L 342.907389 502.237281 
L 341.469931 502.178212 
L 340.190106 502.638952 
L 340.249291 503.391115 
L 338.966895 504.576422 
L 339.21591 504.802208 
L 339.170879 506.119451 
L 338.395525 506.92936 
L 337.905856 506.789555 
L 337.300365 506.286144 
L 336.620888 506.186388 
L 335.896357 505.692168 
L 333.920307 505.578637 
L 332.114143 505.471651 
L 331.542751 505.597019 
L 331.147684 506.108936 
L 329.972747 506.507323 
L 329.430958 506.654996 
L 328.524332 506.553279 
L 327.909183 506.886027 
L 326.671192 506.992352 
L 324.702879 508.581975 
L 324.413951 509.094554 
L 323.803967 509.364311 
L 322.5029 511.357566 
L 321.523585 512.00012 
L 321.461157 512.399806 
L 320.568059 513.823374 
L 320.381448 514.88532 
L 320.297802 516.649504 
L 318.140306 520.111621 
L 286.953505 497.918661 
L 286.567427 497.632506 
L 251.370638 472.698098 
L 250.660908 472.281329 
L 220.903203 451.628114 
L 208.222047 442.843862 
L 342.796734 283.971342 
" clip-path="url(#p8e76869b29)" style="fill: none; stroke: #000000"/>
   </g>
   <g id="matplotlib.axis_1">
    <g id="xtick_1">
     <g id="line2d_1">
      <path d="M 122.176499 626.349888 
L 122.176499 246.290112 
" clip-path="url(#p8e76869b29)" style="fill: none; stroke: #b0b0b0; stroke-width: 0.8; stroke-linecap: square"/>
     </g>
     <g id="line2d_2">
      <defs>
       <path id="m0910fb16f8" d="M 0 0 
L 0 3.5 
" style="stroke: #000000; stroke-width: 0.8"/>
      </defs>
      <g>
       <use xlink:href="#m0910fb16f8" x="122.176499" y="626.349888" style="stroke: #000000; stroke-width: 0.8"/>
      </g>
     </g>
     <g id="text_1">
      <!-- 55.20 -->
      <g transform="translate(111.043434 664.89127) rotate(-45) scale(0.1 -0.1)">
       <defs>
        <path id="DejaVuSans-2212" d="M 678 2272 
L 4684 2272 
L 4684 1741 
L 678 1741 
L 678 2272 
z
" transform="scale(0.015625)"/>
        <path id="DejaVuSans-35" d="M 691 4666 
L 3169 4666 
L 3169 4134 
L 1269 4134 
L 1269 2991 
Q 1406 3038 1543 3061 
Q 1681 3084 1819 3084 
Q 2600 3084 3056 2656 
Q 3513 2228 3513 1497 
Q 3513 744 3044 326 
Q 2575 -91 1722 -91 
Q 1428 -91 1123 -41 
Q 819 9 494 109 
L 494 744 
Q 775 591 1075 516 
Q 1375 441 1709 441 
Q 2250 441 2565 725 
Q 2881 1009 2881 1497 
Q 2881 1984 2565 2268 
Q 2250 2553 1709 2553 
Q 1456 2553 1204 2497 
Q 953 2441 691 2322 
L 691 4666 
z
" transform="scale(0.015625)"/>
        <path id="DejaVuSans-2e" d="M 684 794 
L 1344 794 
L 1344 0 
L 684 0 
L 684 794 
z
" transform="scale(0.015625)"/>
        <path id="DejaVuSans-32" d="M 1228 531 
L 3431 531 
L 3431 0 
L 469 0 
L 469 531 
Q 828 903 1448 1529 
Q 2069 2156 2228 2338 
Q 2531 2678 2651 2914 
Q 2772 3150 2772 3378 
Q 2772 3750 2511 3984 
Q 2250 4219 1831 4219 
Q 1534 4219 1204 4116 
Q 875 4013 500 3803 
L 500 4441 
Q 881 4594 1212 4672 
Q 1544 4750 1819 4750 
Q 2544 4750 2975 4387 
Q 3406 4025 3406 3419 
Q 3406 3131 3298 2873 
Q 3191 2616 2906 2266 
Q 2828 2175 2409 1742 
Q 1991 1309 1228 531 
z
" transform="scale(0.015625)"/>
        <path id="DejaVuSans-30" d="M 2034 4250 
Q 1547 4250 1301 3770 
Q 1056 3291 1056 2328 
Q 1056 1369 1301 889 
Q 1547 409 2034 409 
Q 2525 409 2770 889 
Q 3016 1369 3016 2328 
Q 3016 3291 2770 3770 
Q 2525 4250 2034 4250 
z
M 2034 4750 
Q 2819 4750 3233 4129 
Q 3647 3509 3647 2328 
Q 3647 1150 3233 529 
Q 2819 -91 2034 -91 
Q 1250 -91 836 529 
Q 422 1150 422 2328 
Q 422 3509 836 4129 
Q 1250 4750 2034 4750 
z
" transform="scale(0.015625)"/>
       </defs>
       <use xlink:href="#DejaVuSans-2212"/>
       <use xlink:href="#DejaVuSans-35" transform="translate(83.789062 0)"/>
       <use xlink:href="#DejaVuSans-35" transform="translate(147.412109 0)"/>
       <use xlink:href="#DejaVuSans-2e" transform="translate(211.035156 0)"/>
       <use xlink:href="#DejaVuSans-32" transform="translate(242.822266 0)"/>
       <use xlink:href="#DejaVuSans-30" transform="translate(306.445312 0)"/>
      </g>
     </g>
    </g>
    <g id="xtick_2">
     <g id="line2d_3">
      <path d="M 237.997775 626.349888 
L 237.997775 246.290112 
" clip-path="url(#p8e76869b29)" style="fill: none; stroke: #b0b0b0; stroke-width: 0.8; stroke-linecap: square"/>
     </g>
     <g id="line2d_4">
      <g>
       <use xlink:href="#m0910fb16f8" x="237.997775" y="626.349888" style="stroke: #000000; stroke-width: 0.8"/>
      </g>
     </g>
     <g id="text_2">
      <!-- 55.15 -->
      <g transform="translate(226.86471 664.89127) rotate(-45) scale(0.1 -0.1)">
       <defs>
        <path id="DejaVuSans-31" d="M 794 531 
L 1825 531 
L 1825 4091 
L 703 3866 
L 703 4441 
L 1819 4666 
L 2450 4666 
L 2450 531 
L 3481 531 
L 3481 0 
L 794 0 
L 794 531 
z
" transform="scale(0.015625)"/>
       </defs>
       <use xlink:href="#DejaVuSans-2212"/>
       <use xlink:href="#DejaVuSans-35" transform="translate(83.789062 0)"/>
       <use xlink:href="#DejaVuSans-35" transform="translate(147.412109 0)"/>
       <use xlink:href="#DejaVuSans-2e" transform="translate(211.035156 0)"/>
       <use xlink:href="#DejaVuSans-31" transform="translate(242.822266 0)"/>
       <use xlink:href="#DejaVuSans-35" transform="translate(306.445312 0)"/>
      </g>
     </g>
    </g>
    <g id="xtick_3">
     <g id="line2d_5">
      <path d="M 353.819051 626.349888 
L 353.819051 246.290112 
" clip-path="url(#p8e76869b29)" style="fill: none; stroke: #b0b0b0; stroke-width: 0.8; stroke-linecap: square"/>
     </g>
     <g id="line2d_6">
      <g>
       <use xlink:href="#m0910fb16f8" x="353.819051" y="626.349888" style="stroke: #000000; stroke-width: 0.8"/>
      </g>
     </g>
     <g id="text_3">
      <!-- 55.10 -->
      <g transform="translate(342.685986 664.89127) rotate(-45) scale(0.1 -0.1)">
       <use xlink:href="#DejaVuSans-2212"/>
       <use xlink:href="#DejaVuSans-35" transform="translate(83.789062 0)"/>
       <use xlink:href="#DejaVuSans-35" transform="translate(147.412109 0)"/>
       <use xlink:href="#DejaVuSans-2e" transform="translate(211.035156 0)"/>
       <use xlink:href="#DejaVuSans-31" transform="translate(242.822266 0)"/>
       <use xlink:href="#DejaVuSans-30" transform="translate(306.445312 0)"/>
      </g>
     </g>
    </g>
    <g id="xtick_4">
     <g id="line2d_7">
      <path d="M 469.640327 626.349888 
L 469.640327 246.290112 
" clip-path="url(#p8e76869b29)" style="fill: none; stroke: #b0b0b0; stroke-width: 0.8; stroke-linecap: square"/>
     </g>
     <g id="line2d_8">
      <g>
       <use xlink:href="#m0910fb16f8" x="469.640327" y="626.349888" style="stroke: #000000; stroke-width: 0.8"/>
      </g>
     </g>
     <g id="text_4">
      <!-- 55.05 -->
      <g transform="translate(458.507262 664.89127) rotate(-45) scale(0.1 -0.1)">
       <use xlink:href="#DejaVuSans-2212"/>
       <use xlink:href="#DejaVuSans-35" transform="translate(83.789062 0)"/>
       <use xlink:href="#DejaVuSans-35" transform="translate(147.412109 0)"/>
       <use xlink:href="#DejaVuSans-2e" transform="translate(211.035156 0)"/>
       <use xlink:href="#DejaVuSans-30" transform="translate(242.822266 0)"/>
       <use xlink:href="#DejaVuSans-35" transform="translate(306.445312 0)"/>
      </g>
     </g>
    </g>
    <g id="xtick_5">
     <g id="line2d_9">
      <path d="M 585.461602 626.349888 
L 585.461602 246.290112 
" clip-path="url(#p8e76869b29)" style="fill: none; stroke: #b0b0b0; stroke-width: 0.8; stroke-linecap: square"/>
     </g>
     <g id="line2d_10">
      <g>
       <use xlink:href="#m0910fb16f8" x="585.461602" y="626.349888" style="stroke: #000000; stroke-width: 0.8"/>
      </g>
     </g>
     <g id="text_5">
      <!-- 55.00 -->
      <g transform="translate(574.328538 664.89127) rotate(-45) scale(0.1 -0.1)">
       <use xlink:href="#DejaVuSans-2212"/>
       <use xlink:href="#DejaVuSans-35" transform="translate(83.789062 0)"/>
       <use xlink:href="#DejaVuSans-35" transform="translate(147.412109 0)"/>
       <use xlink:href="#DejaVuSans-2e" transform="translate(211.035156 0)"/>
       <use xlink:href="#DejaVuSans-30" transform="translate(242.822266 0)"/>
       <use xlink:href="#DejaVuSans-30" transform="translate(306.445312 0)"/>
      </g>
     </g>
    </g>
    <g id="text_6">
     <!-- Longitude () -->
     <g transform="translate(336.139844 677.960268) scale(0.1 -0.1)">
      <defs>
       <path id="DejaVuSans-4c" d="M 628 4666 
L 1259 4666 
L 1259 531 
L 3531 531 
L 3531 0 
L 628 0 
L 628 4666 
z
" transform="scale(0.015625)"/>
       <path id="DejaVuSans-6f" d="M 1959 3097 
Q 1497 3097 1228 2736 
Q 959 2375 959 1747 
Q 959 1119 1226 758 
Q 1494 397 1959 397 
Q 2419 397 2687 759 
Q 2956 1122 2956 1747 
Q 2956 2369 2687 2733 
Q 2419 3097 1959 3097 
z
M 1959 3584 
Q 2709 3584 3137 3096 
Q 3566 2609 3566 1747 
Q 3566 888 3137 398 
Q 2709 -91 1959 -91 
Q 1206 -91 779 398 
Q 353 888 353 1747 
Q 353 2609 779 3096 
Q 1206 3584 1959 3584 
z
" transform="scale(0.015625)"/>
       <path id="DejaVuSans-6e" d="M 3513 2113 
L 3513 0 
L 2938 0 
L 2938 2094 
Q 2938 2591 2744 2837 
Q 2550 3084 2163 3084 
Q 1697 3084 1428 2787 
Q 1159 2491 1159 1978 
L 1159 0 
L 581 0 
L 581 3500 
L 1159 3500 
L 1159 2956 
Q 1366 3272 1645 3428 
Q 1925 3584 2291 3584 
Q 2894 3584 3203 3211 
Q 3513 2838 3513 2113 
z
" transform="scale(0.015625)"/>
       <path id="DejaVuSans-67" d="M 2906 1791 
Q 2906 2416 2648 2759 
Q 2391 3103 1925 3103 
Q 1463 3103 1205 2759 
Q 947 2416 947 1791 
Q 947 1169 1205 825 
Q 1463 481 1925 481 
Q 2391 481 2648 825 
Q 2906 1169 2906 1791 
z
M 3481 434 
Q 3481 -459 3084 -895 
Q 2688 -1331 1869 -1331 
Q 1566 -1331 1297 -1286 
Q 1028 -1241 775 -1147 
L 775 -588 
Q 1028 -725 1275 -790 
Q 1522 -856 1778 -856 
Q 2344 -856 2625 -561 
Q 2906 -266 2906 331 
L 2906 616 
Q 2728 306 2450 153 
Q 2172 0 1784 0 
Q 1141 0 747 490 
Q 353 981 353 1791 
Q 353 2603 747 3093 
Q 1141 3584 1784 3584 
Q 2172 3584 2450 3431 
Q 2728 3278 2906 2969 
L 2906 3500 
L 3481 3500 
L 3481 434 
z
" transform="scale(0.015625)"/>
       <path id="DejaVuSans-69" d="M 603 3500 
L 1178 3500 
L 1178 0 
L 603 0 
L 603 3500 
z
M 603 4863 
L 1178 4863 
L 1178 4134 
L 603 4134 
L 603 4863 
z
" transform="scale(0.015625)"/>
       <path id="DejaVuSans-74" d="M 1172 4494 
L 1172 3500 
L 2356 3500 
L 2356 3053 
L 1172 3053 
L 1172 1153 
Q 1172 725 1289 603 
Q 1406 481 1766 481 
L 2356 481 
L 2356 0 
L 1766 0 
Q 1100 0 847 248 
Q 594 497 594 1153 
L 594 3053 
L 172 3053 
L 172 3500 
L 594 3500 
L 594 4494 
L 1172 4494 
z
" transform="scale(0.015625)"/>
       <path id="DejaVuSans-75" d="M 544 1381 
L 544 3500 
L 1119 3500 
L 1119 1403 
Q 1119 906 1312 657 
Q 1506 409 1894 409 
Q 2359 409 2629 706 
Q 2900 1003 2900 1516 
L 2900 3500 
L 3475 3500 
L 3475 0 
L 2900 0 
L 2900 538 
Q 2691 219 2414 64 
Q 2138 -91 1772 -91 
Q 1169 -91 856 284 
Q 544 659 544 1381 
z
M 1991 3584 
L 1991 3584 
z
" transform="scale(0.015625)"/>
       <path id="DejaVuSans-64" d="M 2906 2969 
L 2906 4863 
L 3481 4863 
L 3481 0 
L 2906 0 
L 2906 525 
Q 2725 213 2448 61 
Q 2172 -91 1784 -91 
Q 1150 -91 751 415 
Q 353 922 353 1747 
Q 353 2572 751 3078 
Q 1150 3584 1784 3584 
Q 2172 3584 2448 3432 
Q 2725 3281 2906 2969 
z
M 947 1747 
Q 947 1113 1208 752 
Q 1469 391 1925 391 
Q 2381 391 2643 752 
Q 2906 1113 2906 1747 
Q 2906 2381 2643 2742 
Q 2381 3103 1925 3103 
Q 1469 3103 1208 2742 
Q 947 2381 947 1747 
z
" transform="scale(0.015625)"/>
       <path id="DejaVuSans-65" d="M 3597 1894 
L 3597 1613 
L 953 1613 
Q 991 1019 1311 708 
Q 1631 397 2203 397 
Q 2534 397 2845 478 
Q 3156 559 3463 722 
L 3463 178 
Q 3153 47 2828 -22 
Q 2503 -91 2169 -91 
Q 1331 -91 842 396 
Q 353 884 353 1716 
Q 353 2575 817 3079 
Q 1281 3584 2069 3584 
Q 2775 3584 3186 3129 
Q 3597 2675 3597 1894 
z
M 3022 2063 
Q 3016 2534 2758 2815 
Q 2500 3097 2075 3097 
Q 1594 3097 1305 2825 
Q 1016 2553 972 2059 
L 3022 2063 
z
" transform="scale(0.015625)"/>
       <path id="DejaVuSans-20" transform="scale(0.015625)"/>
       <path id="DejaVuSans-28" d="M 1984 4856 
Q 1566 4138 1362 3434 
Q 1159 2731 1159 2009 
Q 1159 1288 1364 580 
Q 1569 -128 1984 -844 
L 1484 -844 
Q 1016 -109 783 600 
Q 550 1309 550 2009 
Q 550 2706 781 3412 
Q 1013 4119 1484 4856 
L 1984 4856 
z
" transform="scale(0.015625)"/>
       <path id="DejaVuSans-b0" d="M 1600 4347 
Q 1350 4347 1178 4173 
Q 1006 4000 1006 3750 
Q 1006 3503 1178 3333 
Q 1350 3163 1600 3163 
Q 1850 3163 2022 3333 
Q 2194 3503 2194 3750 
Q 2194 3997 2020 4172 
Q 1847 4347 1600 4347 
z
M 1600 4750 
Q 1800 4750 1984 4673 
Q 2169 4597 2303 4453 
Q 2447 4313 2519 4134 
Q 2591 3956 2591 3750 
Q 2591 3338 2302 3052 
Q 2013 2766 1594 2766 
Q 1172 2766 890 3047 
Q 609 3328 609 3750 
Q 609 4169 896 4459 
Q 1184 4750 1600 4750 
z
" transform="scale(0.015625)"/>
       <path id="DejaVuSans-29" d="M 513 4856 
L 1013 4856 
Q 1481 4119 1714 3412 
Q 1947 2706 1947 2009 
Q 1947 1309 1714 600 
Q 1481 -109 1013 -844 
L 513 -844 
Q 928 -128 1133 580 
Q 1338 1288 1338 2009 
Q 1338 2731 1133 3434 
Q 928 4138 513 4856 
z
" transform="scale(0.015625)"/>
      </defs>
      <use xlink:href="#DejaVuSans-4c"/>
      <use xlink:href="#DejaVuSans-6f" transform="translate(53.962891 0)"/>
      <use xlink:href="#DejaVuSans-6e" transform="translate(115.144531 0)"/>
      <use xlink:href="#DejaVuSans-67" transform="translate(178.523438 0)"/>
      <use xlink:href="#DejaVuSans-69" transform="translate(242 0)"/>
      <use xlink:href="#DejaVuSans-74" transform="translate(269.783203 0)"/>
      <use xlink:href="#DejaVuSans-75" transform="translate(308.992188 0)"/>
      <use xlink:href="#DejaVuSans-64" transform="translate(372.371094 0)"/>
      <use xlink:href="#DejaVuSans-65" transform="translate(435.847656 0)"/>
      <use xlink:href="#DejaVuSans-20" transform="translate(497.371094 0)"/>
      <use xlink:href="#DejaVuSans-28" transform="translate(529.158203 0)"/>
      <use xlink:href="#DejaVuSans-b0" transform="translate(568.171875 0)"/>
      <use xlink:href="#DejaVuSans-29" transform="translate(618.171875 0)"/>
     </g>
    </g>
   </g>
   <g id="matplotlib.axis_2">
    <g id="ytick_1">
     <g id="line2d_11">
      <path d="M 90 602.52563 
L 648 602.52563 
" clip-path="url(#p8e76869b29)" style="fill: none; stroke: #b0b0b0; stroke-width: 0.8; stroke-linecap: square"/>
     </g>
     <g id="line2d_12">
      <defs>
       <path id="m4e1f1226bf" d="M 0 0 
L -3.5 0 
" style="stroke: #000000; stroke-width: 0.8"/>
      </defs>
      <g>
       <use xlink:href="#m4e1f1226bf" x="90" y="602.52563" style="stroke: #000000; stroke-width: 0.8"/>
      </g>
     </g>
     <g id="text_7">
      <!-- 11.44 -->
      <g transform="translate(45.992188 606.324849) scale(0.1 -0.1)">
       <defs>
        <path id="DejaVuSans-34" d="M 2419 4116 
L 825 1625 
L 2419 1625 
L 2419 4116 
z
M 2253 4666 
L 3047 4666 
L 3047 1625 
L 3713 1625 
L 3713 1100 
L 3047 1100 
L 3047 0 
L 2419 0 
L 2419 1100 
L 313 1100 
L 313 1709 
L 2253 4666 
z
" transform="scale(0.015625)"/>
       </defs>
       <use xlink:href="#DejaVuSans-2212"/>
       <use xlink:href="#DejaVuSans-31" transform="translate(83.789062 0)"/>
       <use xlink:href="#DejaVuSans-31" transform="translate(147.412109 0)"/>
       <use xlink:href="#DejaVuSans-2e" transform="translate(211.035156 0)"/>
       <use xlink:href="#DejaVuSans-34" transform="translate(242.822266 0)"/>
       <use xlink:href="#DejaVuSans-34" transform="translate(306.445312 0)"/>
      </g>
     </g>
    </g>
    <g id="ytick_2">
     <g id="line2d_13">
      <path d="M 90 555.27027 
L 648 555.27027 
" clip-path="url(#p8e76869b29)" style="fill: none; stroke: #b0b0b0; stroke-width: 0.8; stroke-linecap: square"/>
     </g>
     <g id="line2d_14">
      <g>
       <use xlink:href="#m4e1f1226bf" x="90" y="555.27027" style="stroke: #000000; stroke-width: 0.8"/>
      </g>
     </g>
     <g id="text_8">
      <!-- 11.42 -->
      <g transform="translate(45.992188 559.069489) scale(0.1 -0.1)">
       <use xlink:href="#DejaVuSans-2212"/>
       <use xlink:href="#DejaVuSans-31" transform="translate(83.789062 0)"/>
       <use xlink:href="#DejaVuSans-31" transform="translate(147.412109 0)"/>
       <use xlink:href="#DejaVuSans-2e" transform="translate(211.035156 0)"/>
       <use xlink:href="#DejaVuSans-34" transform="translate(242.822266 0)"/>
       <use xlink:href="#DejaVuSans-32" transform="translate(306.445312 0)"/>
      </g>
     </g>
    </g>
    <g id="ytick_3">
     <g id="line2d_15">
      <path d="M 90 508.014911 
L 648 508.014911 
" clip-path="url(#p8e76869b29)" style="fill: none; stroke: #b0b0b0; stroke-width: 0.8; stroke-linecap: square"/>
     </g>
     <g id="line2d_16">
      <g>
       <use xlink:href="#m4e1f1226bf" x="90" y="508.014911" style="stroke: #000000; stroke-width: 0.8"/>
      </g>
     </g>
     <g id="text_9">
      <!-- 11.40 -->
      <g transform="translate(45.992188 511.814129) scale(0.1 -0.1)">
       <use xlink:href="#DejaVuSans-2212"/>
       <use xlink:href="#DejaVuSans-31" transform="translate(83.789062 0)"/>
       <use xlink:href="#DejaVuSans-31" transform="translate(147.412109 0)"/>
       <use xlink:href="#DejaVuSans-2e" transform="translate(211.035156 0)"/>
       <use xlink:href="#DejaVuSans-34" transform="translate(242.822266 0)"/>
       <use xlink:href="#DejaVuSans-30" transform="translate(306.445312 0)"/>
      </g>
     </g>
    </g>
    <g id="ytick_4">
     <g id="line2d_17">
      <path d="M 90 460.759551 
L 648 460.759551 
" clip-path="url(#p8e76869b29)" style="fill: none; stroke: #b0b0b0; stroke-width: 0.8; stroke-linecap: square"/>
     </g>
     <g id="line2d_18">
      <g>
       <use xlink:href="#m4e1f1226bf" x="90" y="460.759551" style="stroke: #000000; stroke-width: 0.8"/>
      </g>
     </g>
     <g id="text_10">
      <!-- 11.38 -->
      <g transform="translate(45.992188 464.558769) scale(0.1 -0.1)">
       <defs>
        <path id="DejaVuSans-33" d="M 2597 2516 
Q 3050 2419 3304 2112 
Q 3559 1806 3559 1356 
Q 3559 666 3084 287 
Q 2609 -91 1734 -91 
Q 1441 -91 1130 -33 
Q 819 25 488 141 
L 488 750 
Q 750 597 1062 519 
Q 1375 441 1716 441 
Q 2309 441 2620 675 
Q 2931 909 2931 1356 
Q 2931 1769 2642 2001 
Q 2353 2234 1838 2234 
L 1294 2234 
L 1294 2753 
L 1863 2753 
Q 2328 2753 2575 2939 
Q 2822 3125 2822 3475 
Q 2822 3834 2567 4026 
Q 2313 4219 1838 4219 
Q 1578 4219 1281 4162 
Q 984 4106 628 3988 
L 628 4550 
Q 988 4650 1302 4700 
Q 1616 4750 1894 4750 
Q 2613 4750 3031 4423 
Q 3450 4097 3450 3541 
Q 3450 3153 3228 2886 
Q 3006 2619 2597 2516 
z
" transform="scale(0.015625)"/>
        <path id="DejaVuSans-38" d="M 2034 2216 
Q 1584 2216 1326 1975 
Q 1069 1734 1069 1313 
Q 1069 891 1326 650 
Q 1584 409 2034 409 
Q 2484 409 2743 651 
Q 3003 894 3003 1313 
Q 3003 1734 2745 1975 
Q 2488 2216 2034 2216 
z
M 1403 2484 
Q 997 2584 770 2862 
Q 544 3141 544 3541 
Q 544 4100 942 4425 
Q 1341 4750 2034 4750 
Q 2731 4750 3128 4425 
Q 3525 4100 3525 3541 
Q 3525 3141 3298 2862 
Q 3072 2584 2669 2484 
Q 3125 2378 3379 2068 
Q 3634 1759 3634 1313 
Q 3634 634 3220 271 
Q 2806 -91 2034 -91 
Q 1263 -91 848 271 
Q 434 634 434 1313 
Q 434 1759 690 2068 
Q 947 2378 1403 2484 
z
M 1172 3481 
Q 1172 3119 1398 2916 
Q 1625 2713 2034 2713 
Q 2441 2713 2670 2916 
Q 2900 3119 2900 3481 
Q 2900 3844 2670 4047 
Q 2441 4250 2034 4250 
Q 1625 4250 1398 4047 
Q 1172 3844 1172 3481 
z
" transform="scale(0.015625)"/>
       </defs>
       <use xlink:href="#DejaVuSans-2212"/>
       <use xlink:href="#DejaVuSans-31" transform="translate(83.789062 0)"/>
       <use xlink:href="#DejaVuSans-31" transform="translate(147.412109 0)"/>
       <use xlink:href="#DejaVuSans-2e" transform="translate(211.035156 0)"/>
       <use xlink:href="#DejaVuSans-33" transform="translate(242.822266 0)"/>
       <use xlink:href="#DejaVuSans-38" transform="translate(306.445312 0)"/>
      </g>
     </g>
    </g>
    <g id="ytick_5">
     <g id="line2d_19">
      <path d="M 90 413.504191 
L 648 413.504191 
" clip-path="url(#p8e76869b29)" style="fill: none; stroke: #b0b0b0; stroke-width: 0.8; stroke-linecap: square"/>
     </g>
     <g id="line2d_20">
      <g>
       <use xlink:href="#m4e1f1226bf" x="90" y="413.504191" style="stroke: #000000; stroke-width: 0.8"/>
      </g>
     </g>
     <g id="text_11">
      <!-- 11.36 -->
      <g transform="translate(45.992188 417.30341) scale(0.1 -0.1)">
       <defs>
        <path id="DejaVuSans-36" d="M 2113 2584 
Q 1688 2584 1439 2293 
Q 1191 2003 1191 1497 
Q 1191 994 1439 701 
Q 1688 409 2113 409 
Q 2538 409 2786 701 
Q 3034 994 3034 1497 
Q 3034 2003 2786 2293 
Q 2538 2584 2113 2584 
z
M 3366 4563 
L 3366 3988 
Q 3128 4100 2886 4159 
Q 2644 4219 2406 4219 
Q 1781 4219 1451 3797 
Q 1122 3375 1075 2522 
Q 1259 2794 1537 2939 
Q 1816 3084 2150 3084 
Q 2853 3084 3261 2657 
Q 3669 2231 3669 1497 
Q 3669 778 3244 343 
Q 2819 -91 2113 -91 
Q 1303 -91 875 529 
Q 447 1150 447 2328 
Q 447 3434 972 4092 
Q 1497 4750 2381 4750 
Q 2619 4750 2861 4703 
Q 3103 4656 3366 4563 
z
" transform="scale(0.015625)"/>
       </defs>
       <use xlink:href="#DejaVuSans-2212"/>
       <use xlink:href="#DejaVuSans-31" transform="translate(83.789062 0)"/>
       <use xlink:href="#DejaVuSans-31" transform="translate(147.412109 0)"/>
       <use xlink:href="#DejaVuSans-2e" transform="translate(211.035156 0)"/>
       <use xlink:href="#DejaVuSans-33" transform="translate(242.822266 0)"/>
       <use xlink:href="#DejaVuSans-36" transform="translate(306.445312 0)"/>
      </g>
     </g>
    </g>
    <g id="ytick_6">
     <g id="line2d_21">
      <path d="M 90 366.248831 
L 648 366.248831 
" clip-path="url(#p8e76869b29)" style="fill: none; stroke: #b0b0b0; stroke-width: 0.8; stroke-linecap: square"/>
     </g>
     <g id="line2d_22">
      <g>
       <use xlink:href="#m4e1f1226bf" x="90" y="366.248831" style="stroke: #000000; stroke-width: 0.8"/>
      </g>
     </g>
     <g id="text_12">
      <!-- 11.34 -->
      <g transform="translate(45.992188 370.04805) scale(0.1 -0.1)">
       <use xlink:href="#DejaVuSans-2212"/>
       <use xlink:href="#DejaVuSans-31" transform="translate(83.789062 0)"/>
       <use xlink:href="#DejaVuSans-31" transform="translate(147.412109 0)"/>
       <use xlink:href="#DejaVuSans-2e" transform="translate(211.035156 0)"/>
       <use xlink:href="#DejaVuSans-33" transform="translate(242.822266 0)"/>
       <use xlink:href="#DejaVuSans-34" transform="translate(306.445312 0)"/>
      </g>
     </g>
    </g>
    <g id="ytick_7">
     <g id="line2d_23">
      <path d="M 90 318.993471 
L 648 318.993471 
" clip-path="url(#p8e76869b29)" style="fill: none; stroke: #b0b0b0; stroke-width: 0.8; stroke-linecap: square"/>
     </g>
     <g id="line2d_24">
      <g>
       <use xlink:href="#m4e1f1226bf" x="90" y="318.993471" style="stroke: #000000; stroke-width: 0.8"/>
      </g>
     </g>
     <g id="text_13">
      <!-- 11.32 -->
      <g transform="translate(45.992188 322.79269) scale(0.1 -0.1)">
       <use xlink:href="#DejaVuSans-2212"/>
       <use xlink:href="#DejaVuSans-31" transform="translate(83.789062 0)"/>
       <use xlink:href="#DejaVuSans-31" transform="translate(147.412109 0)"/>
       <use xlink:href="#DejaVuSans-2e" transform="translate(211.035156 0)"/>
       <use xlink:href="#DejaVuSans-33" transform="translate(242.822266 0)"/>
       <use xlink:href="#DejaVuSans-32" transform="translate(306.445312 0)"/>
      </g>
     </g>
    </g>
    <g id="ytick_8">
     <g id="line2d_25">
      <path d="M 90 271.738111 
L 648 271.738111 
" clip-path="url(#p8e76869b29)" style="fill: none; stroke: #b0b0b0; stroke-width: 0.8; stroke-linecap: square"/>
     </g>
     <g id="line2d_26">
      <g>
       <use xlink:href="#m4e1f1226bf" x="90" y="271.738111" style="stroke: #000000; stroke-width: 0.8"/>
      </g>
     </g>
     <g id="text_14">
      <!-- 11.30 -->
      <g transform="translate(45.992188 275.53733) scale(0.1 -0.1)">
       <use xlink:href="#DejaVuSans-2212"/>
       <use xlink:href="#DejaVuSans-31" transform="translate(83.789062 0)"/>
       <use xlink:href="#DejaVuSans-31" transform="translate(147.412109 0)"/>
       <use xlink:href="#DejaVuSans-2e" transform="translate(211.035156 0)"/>
       <use xlink:href="#DejaVuSans-33" transform="translate(242.822266 0)"/>
       <use xlink:href="#DejaVuSans-30" transform="translate(306.445312 0)"/>
      </g>
     </g>
    </g>
    <g id="text_15">
     <!-- Latitude () -->
     <g transform="translate(39.9125 464.889531) rotate(-90) scale(0.1 -0.1)">
      <defs>
       <path id="DejaVuSans-61" d="M 2194 1759 
Q 1497 1759 1228 1600 
Q 959 1441 959 1056 
Q 959 750 1161 570 
Q 1363 391 1709 391 
Q 2188 391 2477 730 
Q 2766 1069 2766 1631 
L 2766 1759 
L 2194 1759 
z
M 3341 1997 
L 3341 0 
L 2766 0 
L 2766 531 
Q 2569 213 2275 61 
Q 1981 -91 1556 -91 
Q 1019 -91 701 211 
Q 384 513 384 1019 
Q 384 1609 779 1909 
Q 1175 2209 1959 2209 
L 2766 2209 
L 2766 2266 
Q 2766 2663 2505 2880 
Q 2244 3097 1772 3097 
Q 1472 3097 1187 3025 
Q 903 2953 641 2809 
L 641 3341 
Q 956 3463 1253 3523 
Q 1550 3584 1831 3584 
Q 2591 3584 2966 3190 
Q 3341 2797 3341 1997 
z
" transform="scale(0.015625)"/>
      </defs>
      <use xlink:href="#DejaVuSans-4c"/>
      <use xlink:href="#DejaVuSans-61" transform="translate(55.712891 0)"/>
      <use xlink:href="#DejaVuSans-74" transform="translate(116.992188 0)"/>
      <use xlink:href="#DejaVuSans-69" transform="translate(156.201172 0)"/>
      <use xlink:href="#DejaVuSans-74" transform="translate(183.984375 0)"/>
      <use xlink:href="#DejaVuSans-75" transform="translate(223.193359 0)"/>
      <use xlink:href="#DejaVuSans-64" transform="translate(286.572266 0)"/>
      <use xlink:href="#DejaVuSans-65" transform="translate(350.048828 0)"/>
      <use xlink:href="#DejaVuSans-20" transform="translate(411.572266 0)"/>
      <use xlink:href="#DejaVuSans-28" transform="translate(443.359375 0)"/>
      <use xlink:href="#DejaVuSans-b0" transform="translate(482.373047 0)"/>
      <use xlink:href="#DejaVuSans-29" transform="translate(532.373047 0)"/>
     </g>
    </g>
   </g>
   <g id="patch_3">
    <path d="M 90 626.349888 
L 90 246.290112 
" style="fill: none; stroke: #000000; stroke-width: 0.8; stroke-linejoin: miter; stroke-linecap: square"/>
   </g>
   <g id="patch_4">
    <path d="M 648 626.349888 
L 648 246.290112 
" style="fill: none; stroke: #000000; stroke-width: 0.8; stroke-linejoin: miter; stroke-linecap: square"/>
   </g>
   <g id="patch_5">
    <path d="M 90 626.349888 
L 648 626.349888 
" style="fill: none; stroke: #000000; stroke-width: 0.8; stroke-linejoin: miter; stroke-linecap: square"/>
   </g>
   <g id="patch_6">
    <path d="M 90 246.290112 
L 648 246.290112 
" style="fill: none; stroke: #000000; stroke-width: 0.8; stroke-linejoin: miter; stroke-linecap: square"/>
   </g>
   <g id="legend_1">
    <g id="patch_7">
     <path d="M 279.8375 741.653718 
L 458.1625 741.653718 
Q 460.1625 741.653718 460.1625 739.653718 
L 460.1625 709.361843 
Q 460.1625 707.361843 458.1625 707.361843 
L 279.8375 707.361843 
Q 277.8375 707.361843 277.8375 709.361843 
L 277.8375 739.653718 
Q 277.8375 741.653718 279.8375 741.653718 
z
" style="fill: #ffffff; opacity: 0.8; stroke: #cccccc; stroke-linejoin: miter"/>
    </g>
    <g id="text_16">
     <!-- Legenda -->
     <g transform="translate(343.280625 720.479968) scale(0.12 -0.12)">
      <use xlink:href="#DejaVuSans-4c"/>
      <use xlink:href="#DejaVuSans-65" transform="translate(53.962891 0)"/>
      <use xlink:href="#DejaVuSans-67" transform="translate(115.486328 0)"/>
      <use xlink:href="#DejaVuSans-65" transform="translate(178.962891 0)"/>
      <use xlink:href="#DejaVuSans-6e" transform="translate(240.486328 0)"/>
      <use xlink:href="#DejaVuSans-64" transform="translate(303.865234 0)"/>
      <use xlink:href="#DejaVuSans-61" transform="translate(367.341797 0)"/>
     </g>
    </g>
    <g id="patch_8">
     <path d="M 281.8375 735.574031 
L 301.8375 735.574031 
L 301.8375 728.574031 
L 281.8375 728.574031 
L 281.8375 735.574031 
z
" style="fill: none; stroke: #000000; stroke-linejoin: miter"/>
    </g>
    <g id="text_17">
     <!-- Gleba Federal -->
     <g transform="translate(309.8375 735.574031) scale(0.1 -0.1)">
      <defs>
       <path id="DejaVuSans-47" d="M 3809 666 
L 3809 1919 
L 2778 1919 
L 2778 2438 
L 4434 2438 
L 4434 434 
Q 4069 175 3628 42 
Q 3188 -91 2688 -91 
Q 1594 -91 976 548 
Q 359 1188 359 2328 
Q 359 3472 976 4111 
Q 1594 4750 2688 4750 
Q 3144 4750 3555 4637 
Q 3966 4525 4313 4306 
L 4313 3634 
Q 3963 3931 3569 4081 
Q 3175 4231 2741 4231 
Q 1884 4231 1454 3753 
Q 1025 3275 1025 2328 
Q 1025 1384 1454 906 
Q 1884 428 2741 428 
Q 3075 428 3337 486 
Q 3600 544 3809 666 
z
" transform="scale(0.015625)"/>
       <path id="DejaVuSans-6c" d="M 603 4863 
L 1178 4863 
L 1178 0 
L 603 0 
L 603 4863 
z
" transform="scale(0.015625)"/>
       <path id="DejaVuSans-62" d="M 3116 1747 
Q 3116 2381 2855 2742 
Q 2594 3103 2138 3103 
Q 1681 3103 1420 2742 
Q 1159 2381 1159 1747 
Q 1159 1113 1420 752 
Q 1681 391 2138 391 
Q 2594 391 2855 752 
Q 3116 1113 3116 1747 
z
M 1159 2969 
Q 1341 3281 1617 3432 
Q 1894 3584 2278 3584 
Q 2916 3584 3314 3078 
Q 3713 2572 3713 1747 
Q 3713 922 3314 415 
Q 2916 -91 2278 -91 
Q 1894 -91 1617 61 
Q 1341 213 1159 525 
L 1159 0 
L 581 0 
L 581 4863 
L 1159 4863 
L 1159 2969 
z
" transform="scale(0.015625)"/>
       <path id="DejaVuSans-46" d="M 628 4666 
L 3309 4666 
L 3309 4134 
L 1259 4134 
L 1259 2759 
L 3109 2759 
L 3109 2228 
L 1259 2228 
L 1259 0 
L 628 0 
L 628 4666 
z
" transform="scale(0.015625)"/>
       <path id="DejaVuSans-72" d="M 2631 2963 
Q 2534 3019 2420 3045 
Q 2306 3072 2169 3072 
Q 1681 3072 1420 2755 
Q 1159 2438 1159 1844 
L 1159 0 
L 581 0 
L 581 3500 
L 1159 3500 
L 1159 2956 
Q 1341 3275 1631 3429 
Q 1922 3584 2338 3584 
Q 2397 3584 2469 3576 
Q 2541 3569 2628 3553 
L 2631 2963 
z
" transform="scale(0.015625)"/>
      </defs>
      <use xlink:href="#DejaVuSans-47"/>
      <use xlink:href="#DejaVuSans-6c" transform="translate(77.490234 0)"/>
      <use xlink:href="#DejaVuSans-65" transform="translate(105.273438 0)"/>
      <use xlink:href="#DejaVuSans-62" transform="translate(166.796875 0)"/>
      <use xlink:href="#DejaVuSans-61" transform="translate(230.273438 0)"/>
      <use xlink:href="#DejaVuSans-20" transform="translate(291.552734 0)"/>
      <use xlink:href="#DejaVuSans-46" transform="translate(323.339844 0)"/>
      <use xlink:href="#DejaVuSans-65" transform="translate(375.359375 0)"/>
      <use xlink:href="#DejaVuSans-64" transform="translate(436.882812 0)"/>
      <use xlink:href="#DejaVuSans-65" transform="translate(500.359375 0)"/>
      <use xlink:href="#DejaVuSans-72" transform="translate(561.882812 0)"/>
      <use xlink:href="#DejaVuSans-61" transform="translate(602.996094 0)"/>
      <use xlink:href="#DejaVuSans-6c" transform="translate(664.275391 0)"/>
     </g>
    </g>
    <g id="patch_9">
     <path d="M 399.045312 735.574031 
L 419.045312 735.574031 
L 419.045312 728.574031 
L 399.045312 728.574031 
z
" style="fill: #e0bd1f; opacity: 0.6"/>
    </g>
    <g id="text_18">
     <!-- SIGEF -->
     <g transform="translate(427.045312 735.574031) scale(0.1 -0.1)">
      <defs>
       <path id="DejaVuSans-53" d="M 3425 4513 
L 3425 3897 
Q 3066 4069 2747 4153 
Q 2428 4238 2131 4238 
Q 1616 4238 1336 4038 
Q 1056 3838 1056 3469 
Q 1056 3159 1242 3001 
Q 1428 2844 1947 2747 
L 2328 2669 
Q 3034 2534 3370 2195 
Q 3706 1856 3706 1288 
Q 3706 609 3251 259 
Q 2797 -91 1919 -91 
Q 1588 -91 1214 -16 
Q 841 59 441 206 
L 441 856 
Q 825 641 1194 531 
Q 1563 422 1919 422 
Q 2459 422 2753 634 
Q 3047 847 3047 1241 
Q 3047 1584 2836 1778 
Q 2625 1972 2144 2069 
L 1759 2144 
Q 1053 2284 737 2584 
Q 422 2884 422 3419 
Q 422 4038 858 4394 
Q 1294 4750 2059 4750 
Q 2388 4750 2728 4690 
Q 3069 4631 3425 4513 
z
" transform="scale(0.015625)"/>
       <path id="DejaVuSans-49" d="M 628 4666 
L 1259 4666 
L 1259 0 
L 628 0 
L 628 4666 
z
" transform="scale(0.015625)"/>
       <path id="DejaVuSans-45" d="M 628 4666 
L 3578 4666 
L 3578 4134 
L 1259 4134 
L 1259 2753 
L 3481 2753 
L 3481 2222 
L 1259 2222 
L 1259 531 
L 3634 531 
L 3634 0 
L 628 0 
L 628 4666 
z
" transform="scale(0.015625)"/>
      </defs>
      <use xlink:href="#DejaVuSans-53"/>
      <use xlink:href="#DejaVuSans-49" transform="translate(63.476562 0)"/>
      <use xlink:href="#DejaVuSans-47" transform="translate(92.96875 0)"/>
      <use xlink:href="#DejaVuSans-45" transform="translate(170.458984 0)"/>
      <use xlink:href="#DejaVuSans-46" transform="translate(233.642578 0)"/>
     </g>
    </g>
   </g>
  </g>
 </g>
 <defs>
  <clipPath id="p8e76869b29">
   <rect x="90" y="246.290112" width="558" height="380.059776"/>
  </clipPath>
 </defs>
</svg>
