<?xml version="1.0" encoding="utf-8" standalone="no"?>
<!DOCTYPE svg PUBLIC "-//W3C//DTD SVG 1.1//EN"
  "http://www.w3.org/Graphics/SVG/1.1/DTD/svg11.dtd">
<svg xmlns:xlink="http://www.w3.org/1999/xlink" width="720pt" height="864pt" viewBox="0 0 720 864" xmlns="http://www.w3.org/2000/svg" version="1.1">
 <metadata>
  <rdf:RDF xmlns:dc="http://purl.org/dc/elements/1.1/" xmlns:cc="http://creativecommons.org/ns#" xmlns:rdf="http://www.w3.org/1999/02/22-rdf-syntax-ns#">
   <cc:Work>
    <dc:type rdf:resource="http://purl.org/dc/dcmitype/StillImage"/>
    <dc:date>2025-06-16T17:49:45.002018</dc:date>
    <dc:format>image/svg+xml</dc:format>
    <dc:creator>
     <cc:Agent>
      <dc:title>Matplotlib v3.10.1, https://matplotlib.org/</dc:title>
     </cc:Agent>
    </dc:creator>
   </cc:Work>
  </rdf:RDF>
 </metadata>
 <defs>
  <style type="text/css">*{stroke-linejoin: round; stroke-linecap: butt}</style>
 </defs>
 <g id="figure_1">
  <g id="patch_1">
   <path d="M 0 864 
L 720 864 
L 720 0 
L 0 0 
z
" style="fill: #ffffff"/>
  </g>
  <g id="axes_1">
   <g id="patch_2">
    <path d="M 90 605.186636 
L 648 605.186636 
L 648 267.453364 
L 90 267.453364 
z
" style="fill: #ffffff"/>
   </g>
   <g id="PatchCollection_1">
    <path d="M 200.366875 358.529295 
L 206.010679 361.100997 
L 216.34011 364.393798 
L 221.546382 368.783557 
L 231.303232 375.693056 
L 241.423562 376.691886 
L 239.579293 381.393667 
L 231.15798 386.151933 
L 227.530377 390.269982 
L 231.529641 395.623895 
L 237.549402 398.315996 
L 240.256494 398.59214 
L 245.996584 394.27795 
L 247.230766 394.482764 
L 250.209951 391.645769 
L 252.104672 393.139094 
L 250.657984 396.173971 
L 252.945815 397.998425 
L 254.792876 398.310165 
L 254.684267 396.232467 
L 258.196405 395.782511 
L 310.37587 442.628266 
L 309.875945 444.161541 
L 273.807584 554.612142 
L 259.306668 537.707031 
L 240.544796 539.913442 
L 227.378299 532.093801 
L 202.857781 525.872814 
L 185.279811 529.709497 
L 148.808797 493.801793 
L 148.444198 492.819921 
L 135.778286 457.720875 
L 115.363636 393.532227 
L 120.63481 384.983081 
L 144.259382 346.814107 
L 147.660865 344.540488 
L 156.727358 341.71543 
L 162.745074 343.302974 
L 172.687459 346.595573 
L 177.806539 343.525243 
L 200.366875 358.529295 
" clip-path="url(#p91e2e68e2a)" style="fill: #e0bd1f; stroke: #0000ff; stroke-width: 0.5"/>
    <path d="M 281.262164 295.100532 
L 315.960855 344.597962 
L 315.615534 345.740181 
L 314.47572 347.616811 
L 314.098345 349.151129 
L 312.861242 352.026184 
L 312.613998 355.647263 
L 313.330833 356.960543 
L 311.456103 362.130426 
L 310.510264 363.082402 
L 310.280819 365.062799 
L 310.304501 366.042126 
L 309.606279 368.576837 
L 306.696331 367.752203 
L 300.681862 372.779777 
L 298.624817 378.784916 
L 241.423562 376.691888 
L 231.303231 375.693058 
L 221.546381 368.783559 
L 216.34011 364.3938 
L 206.010679 361.100999 
L 200.366875 358.529297 
L 207.891663 356.750981 
L 219.291115 356.949051 
L 224.050703 348.443478 
L 231.25367 344.214174 
L 241.857998 330.934977 
L 253.327088 325.999809 
L 251.130762 322.002753 
L 255.61003 315.07561 
L 259.485316 314.54456 
L 281.262164 295.100532 
" clip-path="url(#p91e2e68e2a)" style="fill: #e0bd1f; stroke: #0000ff; stroke-width: 0.5"/>
    <path d="M 309.606218 368.57684 
L 312.182271 373.249216 
L 320.493587 374.84374 
L 331.317757 370.685222 
L 328.28567 367.037844 
L 334.486617 362.851988 
L 339.511893 364.875301 
L 347.126309 362.898192 
L 353.189489 365.209039 
L 355.019481 376.431642 
L 358.516188 374.269434 
L 363.254718 369.167342 
L 364.105551 371.18923 
L 363.673359 374.260483 
L 365.605753 377.923484 
L 364.186053 382.938989 
L 367.316585 388.064153 
L 369.364187 389.434365 
L 369.247334 391.172501 
L 369.284115 391.642323 
L 369.612122 393.009744 
L 369.646644 394.267604 
L 370.321967 394.991856 
L 372.744097 397.025397 
L 375.130979 399.750965 
L 375.95039 401.223034 
L 376.752051 402.916293 
L 376.918374 403.450499 
L 378.370513 410.313362 
L 391.694871 439.173243 
L 388.074876 445.093382 
L 388.033196 449.47371 
L 378.665431 455.597348 
L 376.448437 459.378704 
L 378.08187 461.621177 
L 373.615219 465.534887 
L 367.685726 467.13216 
L 379.317637 488.318848 
L 379.817302 489.139362 
L 382.959555 488.71 
L 383.458241 487.959658 
L 384.832013 488.30634 
L 385.290244 484.245321 
L 384.173413 483.832611 
L 384.868057 482.631995 
L 385.814054 482.032425 
L 386.707452 482.135296 
L 387.33201 479.797529 
L 389.336141 478.719804 
L 390.838501 478.271462 
L 391.370386 478.487243 
L 392.73119 478.436935 
L 392.302422 476.855122 
L 393.796519 475.083006 
L 394.80635 475.167399 
L 394.943999 476.075899 
L 396.428953 475.683898 
L 395.933949 473.216447 
L 398.515382 471.230163 
L 402.051211 470.011236 
L 401.598232 468.445964 
L 403.852864 467.915943 
L 405.196273 467.954422 
L 408.085368 467.548435 
L 408.792573 466.796643 
L 408.665639 466.241432 
L 436.525973 476.60199 
L 456.311165 447.937434 
L 477.174134 463.582596 
L 548.568343 475.920037 
L 497.200645 532.700499 
L 490.083329 534.118296 
L 473.439415 533.715702 
L 461.241902 533.545671 
L 454.685021 534.05541 
L 452.454601 541.755137 
L 442.472164 542.582507 
L 437.950676 542.257771 
L 434.197597 549.867559 
L 431.367448 548.727183 
L 415.665229 552.916798 
L 404.372608 560.748469 
L 389.288298 570.063149 
L 386.391966 571.772296 
L 369.632206 572.760524 
L 370.965508 578.293444 
L 357.126605 585.220546 
L 353.344737 589.773494 
L 348.808208 589.835123 
L 345.787722 589.00053 
L 349.671353 580.661702 
L 350.297087 575.879862 
L 349.643463 572.692811 
L 345.085528 573.495002 
L 343.915929 573.10197 
L 273.807524 554.612146 
L 309.875884 444.161546 
L 310.375809 442.628271 
L 258.196345 395.782516 
L 260.004444 394.304827 
L 262.104149 394.331071 
L 267.491537 389.798473 
L 269.190923 394.571098 
L 271.533058 391.801091 
L 276.230358 397.864352 
L 279.809973 399.999665 
L 281.696052 399.694987 
L 282.622849 397.95102 
L 283.827573 400.878384 
L 286.733296 402.51518 
L 288.036791 399.884813 
L 293.313154 400.409136 
L 289.247664 391.144032 
L 290.908898 387.916109 
L 298.263832 386.409705 
L 298.624757 378.784919 
L 300.681801 372.779779 
L 306.696271 367.752206 
L 309.606218 368.57684 
" clip-path="url(#p91e2e68e2a)" style="fill: #e0bd1f; stroke: #0000ff; stroke-width: 0.5"/>
    <path d="M 362.230138 282.804877 
L 387.027571 309.871387 
L 389.515325 314.900645 
L 390.917748 315.761814 
L 397.789507 317.812527 
L 411.276162 326.941203 
L 412.860245 328.412147 
L 423.031616 339.328669 
L 428.860552 344.340454 
L 450.33754 360.454363 
L 451.935422 361.018339 
L 486.534888 364.224325 
L 487.386285 364.67972 
L 493.492027 374.53693 
L 493.489839 377.987886 
L 492.746438 378.102234 
L 492.871682 377.227192 
L 492.625069 375.783921 
L 491.979323 374.80943 
L 490.337269 375.656872 
L 489.183623 377.437229 
L 484.751244 380.748748 
L 483.519325 382.988116 
L 481.491969 383.919999 
L 480.166024 386.390051 
L 480.996194 387.758817 
L 479.916522 391.805815 
L 476.782892 395.680732 
L 472.714619 396.500102 
L 463.321018 405.261012 
L 463.794036 409.95105 
L 461.814162 416.174206 
L 457.36092 418.962159 
L 454.728802 413.256132 
L 452.545661 412.306835 
L 450.723527 412.974159 
L 450.0236 414.920345 
L 452.54014 418.010593 
L 451.2925 419.556652 
L 445.118119 419.904524 
L 442.713423 422.622841 
L 440.922199 426.672969 
L 435.508953 428.671776 
L 433.746984 430.686727 
L 432.056599 434.133315 
L 426.856373 438.89493 
L 424.76843 437.441177 
L 421.857643 436.427487 
L 420.657599 438.064934 
L 420.795696 440.150651 
L 423.059742 445.941086 
L 419.456246 445.483084 
L 419.163154 446.633187 
L 419.224193 448.818987 
L 419.955105 451.521908 
L 418.091429 453.185628 
L 417.527007 454.195012 
L 417.625034 454.847271 
L 413.655539 454.564868 
L 413.003179 453.543832 
L 412.296336 453.446147 
L 410.957798 454.962754 
L 411.789113 458.265147 
L 409.265677 458.492478 
L 407.826204 457.537409 
L 406.423622 458.542263 
L 406.002344 460.234013 
L 407.278013 462.585173 
L 408.318562 466.866914 
L 405.174585 467.778822 
L 403.50904 467.692252 
L 401.23532 468.349629 
L 401.893898 469.913579 
L 398.016375 471.083258 
L 395.560586 473.307534 
L 396.038726 475.591227 
L 395.022371 474.99073 
L 393.764059 474.847096 
L 392.192343 476.02867 
L 392.111697 477.109553 
L 392.404942 478.384037 
L 390.771295 478.036999 
L 389.17746 478.36704 
L 387.202946 479.475292 
L 386.379711 481.843476 
L 385.225128 481.894238 
L 384.708743 482.332815 
L 384.006517 484.014719 
L 385.029663 484.425321 
L 384.680823 488.091481 
L 383.488942 487.224685 
L 382.884943 488.42174 
L 379.317614 488.31892 
L 367.68568 467.132164 
L 373.615196 465.534776 
L 378.081779 461.621066 
L 376.448368 459.378799 
L 378.665545 455.597261 
L 388.033151 449.473668 
L 388.074807 445.09334 
L 391.69478 439.173269 
L 378.370536 410.313366 
L 376.918282 403.450594 
L 376.75196 402.916319 
L 375.950412 401.223084 
L 375.130957 399.750877 
L 372.74421 397.025402 
L 370.321876 394.991813 
L 369.64653 394.267607 
L 369.612031 393.009701 
L 369.284025 391.642212 
L 369.24722 391.172436 
L 369.36421 389.434323 
L 367.316539 388.064156 
L 364.185984 382.938946 
L 365.605867 377.923374 
L 363.673381 374.26051 
L 364.105438 371.189118 
L 363.25474 369.167391 
L 358.516233 374.269415 
L 355.019412 376.431691 
L 353.189534 365.209112 
L 347.126309 362.898173 
L 339.511802 364.875327 
L 334.486708 362.851878 
L 328.285647 367.037916 
L 331.31787 370.685295 
L 320.4937 374.843676 
L 312.182179 373.249287 
L 309.606218 368.576935 
L 310.304531 366.042018 
L 310.28069 365.062873 
L 310.510271 363.082317 
L 311.455928 362.130501 
L 313.330772 356.960527 
L 312.613824 355.647223 
L 312.861136 352.026167 
L 314.098194 349.151089 
L 314.475727 347.616772 
L 315.615563 345.740302 
L 315.960704 344.597854 
L 319.648762 333.460337 
L 325.443818 319.528403 
L 335.246429 310.022594 
L 349.327154 296.17401 
L 355.73063 289.603527 
L 362.230138 282.804877 
" clip-path="url(#p91e2e68e2a)" style="fill: #e0bd1f; stroke: #0000ff; stroke-width: 0.5"/>
    <path d="M 622.636364 333.145455 
L 621.959835 353.10605 
L 621.316209 377.299091 
L 605.006672 394.428233 
L 621.580512 405.989716 
L 617.320554 415.334149 
L 607.677714 436.661313 
L 606.626849 436.838488 
L 605.339187 437.281493 
L 604.595976 437.838233 
L 603.384132 437.970957 
L 602.153125 438.290696 
L 601.891977 438.733179 
L 601.060841 438.822464 
L 599.540308 440.76827 
L 599.276159 441.449716 
L 599.736425 442.140514 
L 599.286516 443.922102 
L 600.420296 443.930808 
L 597.891628 446.225285 
L 596.709275 447.251869 
L 595.688887 447.088274 
L 594.754768 449.184046 
L 594.357978 450.106811 
L 594.298683 450.857015 
L 594.848275 451.0063 
L 594.405722 451.490973 
L 593.628164 451.575741 
L 592.450708 451.196565 
L 591.725225 452.969454 
L 592.44049 454.207629 
L 593.877851 455.105169 
L 594.096487 456.128413 
L 594.450401 456.704632 
L 593.834994 457.04211 
L 593.241833 456.651888 
L 592.379755 456.354822 
L 590.691983 455.990399 
L 590.804831 457.340107 
L 590.353817 458.408933 
L 589.650903 458.824689 
L 588.909303 459.304456 
L 588.006992 459.794005 
L 589.511877 461.645471 
L 591.717539 465.133381 
L 595.50102 472.425137 
L 601.144406 483.667115 
L 601.17163 484.294834 
L 579.893219 513.058169 
L 566.39941 531.019368 
L 564.252887 529.994202 
L 539.824668 539.140131 
L 513.082081 531.765146 
L 506.210023 534.433209 
L 501.853844 536.218603 
L 501.119843 533.907337 
L 497.200657 532.70036 
L 548.568327 475.919909 
L 477.174168 463.58243 
L 456.311326 447.937336 
L 436.526116 476.601956 
L 408.665715 466.241432 
L 408.148771 464.765586 
L 407.767681 462.453783 
L 407.164564 461.170688 
L 406.397148 460.140639 
L 406.731311 458.747329 
L 407.156441 458.242306 
L 408.003031 457.995964 
L 409.195443 458.807263 
L 410.140077 458.914918 
L 410.880892 458.819934 
L 411.977375 458.409648 
L 412.33112 458.020216 
L 411.966689 456.413265 
L 411.365955 454.999076 
L 412.388959 453.716295 
L 412.889997 453.805155 
L 413.588039 454.874329 
L 416.40611 455.201714 
L 417.557765 455.15191 
L 417.933348 454.866222 
L 417.987852 454.134637 
L 418.13563 453.51043 
L 418.858748 452.871456 
L 420.223515 451.781807 
L 419.704074 449.322473 
L 419.491746 448.804723 
L 419.408909 446.529444 
L 419.718245 445.681682 
L 423.096121 446.608921 
L 423.632226 444.937768 
L 422.799806 443.104461 
L 421.401894 440.434214 
L 420.920172 438.371205 
L 421.711544 437.50456 
L 424.830317 438.212386 
L 427.716637 439.866891 
L 429.095952 437.981818 
L 432.728206 434.37712 
L 433.979107 431.474863 
L 435.960573 429.3436 
L 437.581206 428.7964 
L 440.678444 428.040653 
L 441.679951 426.917932 
L 441.845331 425.591065 
L 445.637272 420.642416 
L 448.720505 420.529848 
L 451.719535 420.098858 
L 453.011913 418.82745 
L 453.14986 417.563757 
L 451.352229 415.988609 
L 450.888144 415.176659 
L 451.203079 413.638057 
L 452.459906 412.816676 
L 453.421406 412.849226 
L 454.139866 413.726708 
L 457.354165 419.723809 
L 462.402268 416.463576 
L 464.274067 409.856195 
L 463.920088 405.464961 
L 466.223086 403.882887 
L 472.785433 396.885916 
L 477.037875 396.169403 
L 480.301506 392.068343 
L 481.141384 390.01696 
L 481.398285 387.730578 
L 480.614759 386.680463 
L 482.016074 383.983422 
L 483.699109 383.46546 
L 485.458056 380.814743 
L 487.806251 379.451333 
L 489.380432 377.901105 
L 490.836823 375.656592 
L 491.654345 375.198397 
L 492.462332 376.481935 
L 492.275848 377.498207 
L 492.6185 378.475606 
L 493.338202 378.653248 
L 493.997957 378.065476 
L 493.782721 375.784289 
L 494.041929 375.213755 
L 494.915524 374.854345 
L 495.610218 373.775541 
L 496.246761 371.489059 
L 497.277521 370.818952 
L 498.732147 371.489107 
L 499.522198 370.962668 
L 499.588717 368.847663 
L 500.51015 367.239929 
L 501.419919 366.636032 
L 503.406629 367.56891 
L 504.138683 367.404887 
L 505.230437 366.795151 
L 506.203506 367.717702 
L 507.094999 367.437735 
L 507.303257 366.274925 
L 508.747882 365.107948 
L 510.417954 365.157006 
L 510.899999 363.677902 
L 512.207602 363.714673 
L 513.000028 363.242204 
L 514.422277 363.947942 
L 516.358304 364.116854 
L 518.915527 366.42203 
L 522.444102 365.670285 
L 523.204081 363.441807 
L 524.240849 362.426272 
L 524.681799 361.910121 
L 526.094331 358.575643 
L 526.910438 356.57681 
L 528.680251 356.154305 
L 529.178062 356.032485 
L 530.010504 354.854053 
L 528.828481 354.206681 
L 529.198529 352.798248 
L 530.589151 352.329278 
L 531.097926 352.155122 
L 531.524856 352.378161 
L 531.032437 352.631658 
L 529.981507 353.276499 
L 529.993748 354.195213 
L 531.2094 354.451861 
L 532.906637 353.017848 
L 533.877425 352.02466 
L 534.376366 352.183045 
L 536.007313 351.425578 
L 536.503072 351.356962 
L 537.243464 350.323934 
L 537.982815 349.634364 
L 538.590477 348.495269 
L 539.762595 348.062668 
L 541.215447 347.69416 
L 541.553304 347.106904 
L 541.895261 346.502594 
L 543.038407 346.351294 
L 543.651616 346.829958 
L 544.201868 346.904899 
L 546.695278 345.199823 
L 546.693714 344.705296 
L 545.674086 343.471354 
L 546.455037 342.567959 
L 547.291934 342.02517 
L 548.350306 341.549336 
L 549.794693 340.658248 
L 552.07147 341.439604 
L 552.740983 341.25341 
L 553.14269 340.671103 
L 553.536238 339.963711 
L 554.512321 338.307975 
L 557.014844 336.559208 
L 556.177252 335.75387 
L 557.623012 334.917385 
L 557.793653 334.32058 
L 556.919659 334.154743 
L 557.975542 332.566902 
L 559.250932 333.379472 
L 559.580975 333.012344 
L 559.506687 332.121145 
L 560.656596 331.476377 
L 560.532 330.908793 
L 561.526294 330.290176 
L 562.749966 330.242471 
L 563.306893 330.2164 
L 563.592606 329.663815 
L 564.420816 329.514043 
L 565.791516 330.089856 
L 566.080588 329.560199 
L 565.539862 328.587066 
L 568.638399 329.317687 
L 569.195064 328.956465 
L 569.935334 329.015532 
L 569.886698 329.878145 
L 570.312829 330.423922 
L 572.173424 330.994957 
L 572.779444 330.864277 
L 573.112268 331.981447 
L 573.704085 331.886552 
L 573.838369 332.619558 
L 573.059865 332.894062 
L 572.617715 333.950705 
L 571.985254 334.123247 
L 571.552964 333.657568 
L 571.128863 333.538787 
L 570.8012 334.337035 
L 570.073615 335.339765 
L 570.889696 336.888355 
L 571.579666 337.154025 
L 572.395705 337.457557 
L 573.770692 337.29194 
L 574.857457 338.038572 
L 576.232148 337.900039 
L 578.070733 337.885524 
L 578.98199 337.717914 
L 578.741564 336.729422 
L 579.056841 335.60809 
L 579.739063 335.797936 
L 580.114711 336.121498 
L 580.78213 336.510091 
L 583.128828 336.531682 
L 584.055091 336.803482 
L 585.24748 337.013656 
L 587.362174 337.393494 
L 588.49542 337.314323 
L 590.599234 336.433934 
L 590.706638 337.087832 
L 591.148891 337.820776 
L 592.754826 338.780006 
L 593.19987 338.630349 
L 593.72281 337.510861 
L 594.701118 337.640404 
L 595.302466 336.501285 
L 595.154179 335.000262 
L 595.503251 334.255851 
L 596.018937 334.874092 
L 597.285101 335.768891 
L 598.17519 335.619022 
L 598.840863 334.888518 
L 599.522637 334.386463 
L 601.745242 333.997849 
L 602.622546 334.949995 
L 603.489565 336.552319 
L 603.881055 336.598222 
L 604.803865 336.024134 
L 605.380802 336.073081 
L 605.891784 335.675079 
L 605.758497 334.876491 
L 606.362145 334.43711 
L 608.162055 334.28844 
L 608.791083 334.060664 
L 609.884377 333.878919 
L 608.841717 334.762257 
L 609.826532 334.921051 
L 610.520164 334.506501 
L 611.011808 332.226246 
L 611.764963 333.781402 
L 612.510406 335.176038 
L 613.467039 332.980041 
L 615.063047 332.425101 
L 615.639401 331.714164 
L 615.222006 331.071832 
L 616.942515 330.565498 
L 616.273849 331.148704 
L 616.556503 331.697804 
L 617.775999 331.790891 
L 618.775255 332.008853 
L 618.348304 332.531876 
L 619.380461 333.690219 
L 620.140623 333.060201 
L 620.240898 332.084414 
L 621.207896 331.134874 
L 621.982762 331.269952 
L 621.56679 331.811699 
L 622.408662 332.586257 
L 622.636364 333.145455 
" clip-path="url(#p91e2e68e2a)" style="fill: #e0bd1f; stroke: #0000ff; stroke-width: 0.5"/>
   </g>
   <g id="PatchCollection_2">
    <path d="M 309.606218 368.57684 
L 312.182271 373.249216 
L 320.493587 374.84374 
L 331.317757 370.685222 
L 328.28567 367.037844 
L 334.486617 362.851988 
L 339.511893 364.875301 
L 347.126309 362.898192 
L 353.189489 365.209039 
L 355.019481 376.431642 
L 358.516188 374.269434 
L 363.254718 369.167342 
L 364.105551 371.18923 
L 363.673359 374.260483 
L 365.605753 377.923484 
L 364.186053 382.938989 
L 367.316585 388.064153 
L 369.364187 389.434365 
L 369.247334 391.172501 
L 369.284115 391.642323 
L 369.612122 393.009744 
L 369.646644 394.267604 
L 370.321967 394.991856 
L 372.744097 397.025397 
L 375.130979 399.750965 
L 375.95039 401.223034 
L 376.752051 402.916293 
L 376.918374 403.450499 
L 378.370513 410.313362 
L 391.694871 439.173243 
L 388.074876 445.093382 
L 388.033196 449.47371 
L 378.665431 455.597348 
L 376.448437 459.378704 
L 378.08187 461.621177 
L 373.615219 465.534887 
L 367.685726 467.13216 
L 379.317637 488.318848 
L 379.817302 489.139362 
L 382.959555 488.71 
L 383.458241 487.959658 
L 384.832013 488.30634 
L 385.290244 484.245321 
L 384.173413 483.832611 
L 384.868057 482.631995 
L 385.814054 482.032425 
L 386.707452 482.135296 
L 387.33201 479.797529 
L 389.336141 478.719804 
L 390.838501 478.271462 
L 391.370386 478.487243 
L 392.73119 478.436935 
L 392.302422 476.855122 
L 393.796519 475.083006 
L 394.80635 475.167399 
L 394.943999 476.075899 
L 396.428953 475.683898 
L 395.933949 473.216447 
L 398.515382 471.230163 
L 402.051211 470.011236 
L 401.598232 468.445964 
L 403.852864 467.915943 
L 405.196273 467.954422 
L 408.085368 467.548435 
L 408.792573 466.796643 
L 408.665639 466.241432 
L 436.525973 476.60199 
L 456.311165 447.937434 
L 477.174134 463.582596 
L 548.568343 475.920037 
L 497.200645 532.700499 
L 490.083329 534.118296 
L 473.439415 533.715702 
L 461.241902 533.545671 
L 454.685021 534.05541 
L 452.454601 541.755137 
L 442.472164 542.582507 
L 437.950676 542.257771 
L 434.197597 549.867559 
L 431.367448 548.727183 
L 415.665229 552.916798 
L 404.372608 560.748469 
L 389.288298 570.063149 
L 386.391966 571.772296 
L 369.632206 572.760524 
L 370.965508 578.293444 
L 357.126605 585.220546 
L 353.344737 589.773494 
L 348.808208 589.835123 
L 345.787722 589.00053 
L 349.671353 580.661702 
L 350.297087 575.879862 
L 349.643463 572.692811 
L 345.085528 573.495002 
L 343.915929 573.10197 
L 273.807524 554.612146 
L 309.875884 444.161546 
L 310.375809 442.628271 
L 258.196345 395.782516 
L 260.004444 394.304827 
L 262.104149 394.331071 
L 267.491537 389.798473 
L 269.190923 394.571098 
L 271.533058 391.801091 
L 276.230358 397.864352 
L 279.809973 399.999665 
L 281.696052 399.694987 
L 282.622849 397.95102 
L 283.827573 400.878384 
L 286.733296 402.51518 
L 288.036791 399.884813 
L 293.313154 400.409136 
L 289.247664 391.144032 
L 290.908898 387.916109 
L 298.263832 386.409705 
L 298.624757 378.784919 
L 300.681801 372.779779 
L 306.696271 367.752206 
L 309.606218 368.57684 
" clip-path="url(#p91e2e68e2a)" style="fill: none; stroke: #000000"/>
   </g>
   <g id="matplotlib.axis_1">
    <g id="xtick_1">
     <g id="line2d_1">
      <path d="M 123.678789 605.186636 
L 123.678789 267.453364 
" clip-path="url(#p91e2e68e2a)" style="fill: none; stroke: #b0b0b0; stroke-width: 0.8; stroke-linecap: square"/>
     </g>
     <g id="line2d_2">
      <defs>
       <path id="m81f4abcf44" d="M 0 0 
L 0 3.5 
" style="stroke: #000000; stroke-width: 0.8"/>
      </defs>
      <g>
       <use xlink:href="#m81f4abcf44" x="123.678789" y="605.186636" style="stroke: #000000; stroke-width: 0.8"/>
      </g>
     </g>
     <g id="text_1">
      <!-- −52.45 -->
      <g transform="translate(112.545724 643.728018) rotate(-45) scale(0.1 -0.1)">
       <defs>
        <path id="DejaVuSans-2212" d="M 678 2272 
L 4684 2272 
L 4684 1741 
L 678 1741 
L 678 2272 
z
" transform="scale(0.015625)"/>
        <path id="DejaVuSans-35" d="M 691 4666 
L 3169 4666 
L 3169 4134 
L 1269 4134 
L 1269 2991 
Q 1406 3038 1543 3061 
Q 1681 3084 1819 3084 
Q 2600 3084 3056 2656 
Q 3513 2228 3513 1497 
Q 3513 744 3044 326 
Q 2575 -91 1722 -91 
Q 1428 -91 1123 -41 
Q 819 9 494 109 
L 494 744 
Q 775 591 1075 516 
Q 1375 441 1709 441 
Q 2250 441 2565 725 
Q 2881 1009 2881 1497 
Q 2881 1984 2565 2268 
Q 2250 2553 1709 2553 
Q 1456 2553 1204 2497 
Q 953 2441 691 2322 
L 691 4666 
z
" transform="scale(0.015625)"/>
        <path id="DejaVuSans-32" d="M 1228 531 
L 3431 531 
L 3431 0 
L 469 0 
L 469 531 
Q 828 903 1448 1529 
Q 2069 2156 2228 2338 
Q 2531 2678 2651 2914 
Q 2772 3150 2772 3378 
Q 2772 3750 2511 3984 
Q 2250 4219 1831 4219 
Q 1534 4219 1204 4116 
Q 875 4013 500 3803 
L 500 4441 
Q 881 4594 1212 4672 
Q 1544 4750 1819 4750 
Q 2544 4750 2975 4387 
Q 3406 4025 3406 3419 
Q 3406 3131 3298 2873 
Q 3191 2616 2906 2266 
Q 2828 2175 2409 1742 
Q 1991 1309 1228 531 
z
" transform="scale(0.015625)"/>
        <path id="DejaVuSans-2e" d="M 684 794 
L 1344 794 
L 1344 0 
L 684 0 
L 684 794 
z
" transform="scale(0.015625)"/>
        <path id="DejaVuSans-34" d="M 2419 4116 
L 825 1625 
L 2419 1625 
L 2419 4116 
z
M 2253 4666 
L 3047 4666 
L 3047 1625 
L 3713 1625 
L 3713 1100 
L 3047 1100 
L 3047 0 
L 2419 0 
L 2419 1100 
L 313 1100 
L 313 1709 
L 2253 4666 
z
" transform="scale(0.015625)"/>
       </defs>
       <use xlink:href="#DejaVuSans-2212"/>
       <use xlink:href="#DejaVuSans-35" transform="translate(83.789062 0)"/>
       <use xlink:href="#DejaVuSans-32" transform="translate(147.412109 0)"/>
       <use xlink:href="#DejaVuSans-2e" transform="translate(211.035156 0)"/>
       <use xlink:href="#DejaVuSans-34" transform="translate(242.822266 0)"/>
       <use xlink:href="#DejaVuSans-35" transform="translate(306.445312 0)"/>
      </g>
     </g>
    </g>
    <g id="xtick_2">
     <g id="line2d_3">
      <path d="M 245.419052 605.186636 
L 245.419052 267.453364 
" clip-path="url(#p91e2e68e2a)" style="fill: none; stroke: #b0b0b0; stroke-width: 0.8; stroke-linecap: square"/>
     </g>
     <g id="line2d_4">
      <g>
       <use xlink:href="#m81f4abcf44" x="245.419052" y="605.186636" style="stroke: #000000; stroke-width: 0.8"/>
      </g>
     </g>
     <g id="text_2">
      <!-- −52.40 -->
      <g transform="translate(234.285987 643.728018) rotate(-45) scale(0.1 -0.1)">
       <defs>
        <path id="DejaVuSans-30" d="M 2034 4250 
Q 1547 4250 1301 3770 
Q 1056 3291 1056 2328 
Q 1056 1369 1301 889 
Q 1547 409 2034 409 
Q 2525 409 2770 889 
Q 3016 1369 3016 2328 
Q 3016 3291 2770 3770 
Q 2525 4250 2034 4250 
z
M 2034 4750 
Q 2819 4750 3233 4129 
Q 3647 3509 3647 2328 
Q 3647 1150 3233 529 
Q 2819 -91 2034 -91 
Q 1250 -91 836 529 
Q 422 1150 422 2328 
Q 422 3509 836 4129 
Q 1250 4750 2034 4750 
z
" transform="scale(0.015625)"/>
       </defs>
       <use xlink:href="#DejaVuSans-2212"/>
       <use xlink:href="#DejaVuSans-35" transform="translate(83.789062 0)"/>
       <use xlink:href="#DejaVuSans-32" transform="translate(147.412109 0)"/>
       <use xlink:href="#DejaVuSans-2e" transform="translate(211.035156 0)"/>
       <use xlink:href="#DejaVuSans-34" transform="translate(242.822266 0)"/>
       <use xlink:href="#DejaVuSans-30" transform="translate(306.445312 0)"/>
      </g>
     </g>
    </g>
    <g id="xtick_3">
     <g id="line2d_5">
      <path d="M 367.159314 605.186636 
L 367.159314 267.453364 
" clip-path="url(#p91e2e68e2a)" style="fill: none; stroke: #b0b0b0; stroke-width: 0.8; stroke-linecap: square"/>
     </g>
     <g id="line2d_6">
      <g>
       <use xlink:href="#m81f4abcf44" x="367.159314" y="605.186636" style="stroke: #000000; stroke-width: 0.8"/>
      </g>
     </g>
     <g id="text_3">
      <!-- −52.35 -->
      <g transform="translate(356.02625 643.728018) rotate(-45) scale(0.1 -0.1)">
       <defs>
        <path id="DejaVuSans-33" d="M 2597 2516 
Q 3050 2419 3304 2112 
Q 3559 1806 3559 1356 
Q 3559 666 3084 287 
Q 2609 -91 1734 -91 
Q 1441 -91 1130 -33 
Q 819 25 488 141 
L 488 750 
Q 750 597 1062 519 
Q 1375 441 1716 441 
Q 2309 441 2620 675 
Q 2931 909 2931 1356 
Q 2931 1769 2642 2001 
Q 2353 2234 1838 2234 
L 1294 2234 
L 1294 2753 
L 1863 2753 
Q 2328 2753 2575 2939 
Q 2822 3125 2822 3475 
Q 2822 3834 2567 4026 
Q 2313 4219 1838 4219 
Q 1578 4219 1281 4162 
Q 984 4106 628 3988 
L 628 4550 
Q 988 4650 1302 4700 
Q 1616 4750 1894 4750 
Q 2613 4750 3031 4423 
Q 3450 4097 3450 3541 
Q 3450 3153 3228 2886 
Q 3006 2619 2597 2516 
z
" transform="scale(0.015625)"/>
       </defs>
       <use xlink:href="#DejaVuSans-2212"/>
       <use xlink:href="#DejaVuSans-35" transform="translate(83.789062 0)"/>
       <use xlink:href="#DejaVuSans-32" transform="translate(147.412109 0)"/>
       <use xlink:href="#DejaVuSans-2e" transform="translate(211.035156 0)"/>
       <use xlink:href="#DejaVuSans-33" transform="translate(242.822266 0)"/>
       <use xlink:href="#DejaVuSans-35" transform="translate(306.445312 0)"/>
      </g>
     </g>
    </g>
    <g id="xtick_4">
     <g id="line2d_7">
      <path d="M 488.899577 605.186636 
L 488.899577 267.453364 
" clip-path="url(#p91e2e68e2a)" style="fill: none; stroke: #b0b0b0; stroke-width: 0.8; stroke-linecap: square"/>
     </g>
     <g id="line2d_8">
      <g>
       <use xlink:href="#m81f4abcf44" x="488.899577" y="605.186636" style="stroke: #000000; stroke-width: 0.8"/>
      </g>
     </g>
     <g id="text_4">
      <!-- −52.30 -->
      <g transform="translate(477.766512 643.728018) rotate(-45) scale(0.1 -0.1)">
       <use xlink:href="#DejaVuSans-2212"/>
       <use xlink:href="#DejaVuSans-35" transform="translate(83.789062 0)"/>
       <use xlink:href="#DejaVuSans-32" transform="translate(147.412109 0)"/>
       <use xlink:href="#DejaVuSans-2e" transform="translate(211.035156 0)"/>
       <use xlink:href="#DejaVuSans-33" transform="translate(242.822266 0)"/>
       <use xlink:href="#DejaVuSans-30" transform="translate(306.445312 0)"/>
      </g>
     </g>
    </g>
    <g id="xtick_5">
     <g id="line2d_9">
      <path d="M 610.63984 605.186636 
L 610.63984 267.453364 
" clip-path="url(#p91e2e68e2a)" style="fill: none; stroke: #b0b0b0; stroke-width: 0.8; stroke-linecap: square"/>
     </g>
     <g id="line2d_10">
      <g>
       <use xlink:href="#m81f4abcf44" x="610.63984" y="605.186636" style="stroke: #000000; stroke-width: 0.8"/>
      </g>
     </g>
     <g id="text_5">
      <!-- −52.25 -->
      <g transform="translate(599.506775 643.728018) rotate(-45) scale(0.1 -0.1)">
       <use xlink:href="#DejaVuSans-2212"/>
       <use xlink:href="#DejaVuSans-35" transform="translate(83.789062 0)"/>
       <use xlink:href="#DejaVuSans-32" transform="translate(147.412109 0)"/>
       <use xlink:href="#DejaVuSans-2e" transform="translate(211.035156 0)"/>
       <use xlink:href="#DejaVuSans-32" transform="translate(242.822266 0)"/>
       <use xlink:href="#DejaVuSans-35" transform="translate(306.445312 0)"/>
      </g>
     </g>
    </g>
    <g id="text_6">
     <!-- Longitude (°) -->
     <g transform="translate(336.139844 656.797016) scale(0.1 -0.1)">
      <defs>
       <path id="DejaVuSans-4c" d="M 628 4666 
L 1259 4666 
L 1259 531 
L 3531 531 
L 3531 0 
L 628 0 
L 628 4666 
z
" transform="scale(0.015625)"/>
       <path id="DejaVuSans-6f" d="M 1959 3097 
Q 1497 3097 1228 2736 
Q 959 2375 959 1747 
Q 959 1119 1226 758 
Q 1494 397 1959 397 
Q 2419 397 2687 759 
Q 2956 1122 2956 1747 
Q 2956 2369 2687 2733 
Q 2419 3097 1959 3097 
z
M 1959 3584 
Q 2709 3584 3137 3096 
Q 3566 2609 3566 1747 
Q 3566 888 3137 398 
Q 2709 -91 1959 -91 
Q 1206 -91 779 398 
Q 353 888 353 1747 
Q 353 2609 779 3096 
Q 1206 3584 1959 3584 
z
" transform="scale(0.015625)"/>
       <path id="DejaVuSans-6e" d="M 3513 2113 
L 3513 0 
L 2938 0 
L 2938 2094 
Q 2938 2591 2744 2837 
Q 2550 3084 2163 3084 
Q 1697 3084 1428 2787 
Q 1159 2491 1159 1978 
L 1159 0 
L 581 0 
L 581 3500 
L 1159 3500 
L 1159 2956 
Q 1366 3272 1645 3428 
Q 1925 3584 2291 3584 
Q 2894 3584 3203 3211 
Q 3513 2838 3513 2113 
z
" transform="scale(0.015625)"/>
       <path id="DejaVuSans-67" d="M 2906 1791 
Q 2906 2416 2648 2759 
Q 2391 3103 1925 3103 
Q 1463 3103 1205 2759 
Q 947 2416 947 1791 
Q 947 1169 1205 825 
Q 1463 481 1925 481 
Q 2391 481 2648 825 
Q 2906 1169 2906 1791 
z
M 3481 434 
Q 3481 -459 3084 -895 
Q 2688 -1331 1869 -1331 
Q 1566 -1331 1297 -1286 
Q 1028 -1241 775 -1147 
L 775 -588 
Q 1028 -725 1275 -790 
Q 1522 -856 1778 -856 
Q 2344 -856 2625 -561 
Q 2906 -266 2906 331 
L 2906 616 
Q 2728 306 2450 153 
Q 2172 0 1784 0 
Q 1141 0 747 490 
Q 353 981 353 1791 
Q 353 2603 747 3093 
Q 1141 3584 1784 3584 
Q 2172 3584 2450 3431 
Q 2728 3278 2906 2969 
L 2906 3500 
L 3481 3500 
L 3481 434 
z
" transform="scale(0.015625)"/>
       <path id="DejaVuSans-69" d="M 603 3500 
L 1178 3500 
L 1178 0 
L 603 0 
L 603 3500 
z
M 603 4863 
L 1178 4863 
L 1178 4134 
L 603 4134 
L 603 4863 
z
" transform="scale(0.015625)"/>
       <path id="DejaVuSans-74" d="M 1172 4494 
L 1172 3500 
L 2356 3500 
L 2356 3053 
L 1172 3053 
L 1172 1153 
Q 1172 725 1289 603 
Q 1406 481 1766 481 
L 2356 481 
L 2356 0 
L 1766 0 
Q 1100 0 847 248 
Q 594 497 594 1153 
L 594 3053 
L 172 3053 
L 172 3500 
L 594 3500 
L 594 4494 
L 1172 4494 
z
" transform="scale(0.015625)"/>
       <path id="DejaVuSans-75" d="M 544 1381 
L 544 3500 
L 1119 3500 
L 1119 1403 
Q 1119 906 1312 657 
Q 1506 409 1894 409 
Q 2359 409 2629 706 
Q 2900 1003 2900 1516 
L 2900 3500 
L 3475 3500 
L 3475 0 
L 2900 0 
L 2900 538 
Q 2691 219 2414 64 
Q 2138 -91 1772 -91 
Q 1169 -91 856 284 
Q 544 659 544 1381 
z
M 1991 3584 
L 1991 3584 
z
" transform="scale(0.015625)"/>
       <path id="DejaVuSans-64" d="M 2906 2969 
L 2906 4863 
L 3481 4863 
L 3481 0 
L 2906 0 
L 2906 525 
Q 2725 213 2448 61 
Q 2172 -91 1784 -91 
Q 1150 -91 751 415 
Q 353 922 353 1747 
Q 353 2572 751 3078 
Q 1150 3584 1784 3584 
Q 2172 3584 2448 3432 
Q 2725 3281 2906 2969 
z
M 947 1747 
Q 947 1113 1208 752 
Q 1469 391 1925 391 
Q 2381 391 2643 752 
Q 2906 1113 2906 1747 
Q 2906 2381 2643 2742 
Q 2381 3103 1925 3103 
Q 1469 3103 1208 2742 
Q 947 2381 947 1747 
z
" transform="scale(0.015625)"/>
       <path id="DejaVuSans-65" d="M 3597 1894 
L 3597 1613 
L 953 1613 
Q 991 1019 1311 708 
Q 1631 397 2203 397 
Q 2534 397 2845 478 
Q 3156 559 3463 722 
L 3463 178 
Q 3153 47 2828 -22 
Q 2503 -91 2169 -91 
Q 1331 -91 842 396 
Q 353 884 353 1716 
Q 353 2575 817 3079 
Q 1281 3584 2069 3584 
Q 2775 3584 3186 3129 
Q 3597 2675 3597 1894 
z
M 3022 2063 
Q 3016 2534 2758 2815 
Q 2500 3097 2075 3097 
Q 1594 3097 1305 2825 
Q 1016 2553 972 2059 
L 3022 2063 
z
" transform="scale(0.015625)"/>
       <path id="DejaVuSans-20" transform="scale(0.015625)"/>
       <path id="DejaVuSans-28" d="M 1984 4856 
Q 1566 4138 1362 3434 
Q 1159 2731 1159 2009 
Q 1159 1288 1364 580 
Q 1569 -128 1984 -844 
L 1484 -844 
Q 1016 -109 783 600 
Q 550 1309 550 2009 
Q 550 2706 781 3412 
Q 1013 4119 1484 4856 
L 1984 4856 
z
" transform="scale(0.015625)"/>
       <path id="DejaVuSans-b0" d="M 1600 4347 
Q 1350 4347 1178 4173 
Q 1006 4000 1006 3750 
Q 1006 3503 1178 3333 
Q 1350 3163 1600 3163 
Q 1850 3163 2022 3333 
Q 2194 3503 2194 3750 
Q 2194 3997 2020 4172 
Q 1847 4347 1600 4347 
z
M 1600 4750 
Q 1800 4750 1984 4673 
Q 2169 4597 2303 4453 
Q 2447 4313 2519 4134 
Q 2591 3956 2591 3750 
Q 2591 3338 2302 3052 
Q 2013 2766 1594 2766 
Q 1172 2766 890 3047 
Q 609 3328 609 3750 
Q 609 4169 896 4459 
Q 1184 4750 1600 4750 
z
" transform="scale(0.015625)"/>
       <path id="DejaVuSans-29" d="M 513 4856 
L 1013 4856 
Q 1481 4119 1714 3412 
Q 1947 2706 1947 2009 
Q 1947 1309 1714 600 
Q 1481 -109 1013 -844 
L 513 -844 
Q 928 -128 1133 580 
Q 1338 1288 1338 2009 
Q 1338 2731 1133 3434 
Q 928 4138 513 4856 
z
" transform="scale(0.015625)"/>
      </defs>
      <use xlink:href="#DejaVuSans-4c"/>
      <use xlink:href="#DejaVuSans-6f" transform="translate(53.962891 0)"/>
      <use xlink:href="#DejaVuSans-6e" transform="translate(115.144531 0)"/>
      <use xlink:href="#DejaVuSans-67" transform="translate(178.523438 0)"/>
      <use xlink:href="#DejaVuSans-69" transform="translate(242 0)"/>
      <use xlink:href="#DejaVuSans-74" transform="translate(269.783203 0)"/>
      <use xlink:href="#DejaVuSans-75" transform="translate(308.992188 0)"/>
      <use xlink:href="#DejaVuSans-64" transform="translate(372.371094 0)"/>
      <use xlink:href="#DejaVuSans-65" transform="translate(435.847656 0)"/>
      <use xlink:href="#DejaVuSans-20" transform="translate(497.371094 0)"/>
      <use xlink:href="#DejaVuSans-28" transform="translate(529.158203 0)"/>
      <use xlink:href="#DejaVuSans-b0" transform="translate(568.171875 0)"/>
      <use xlink:href="#DejaVuSans-29" transform="translate(618.171875 0)"/>
     </g>
    </g>
   </g>
   <g id="matplotlib.axis_2">
    <g id="ytick_1">
     <g id="line2d_11">
      <path d="M 90 581.320632 
L 648 581.320632 
" clip-path="url(#p91e2e68e2a)" style="fill: none; stroke: #b0b0b0; stroke-width: 0.8; stroke-linecap: square"/>
     </g>
     <g id="line2d_12">
      <defs>
       <path id="md38cf4586d" d="M 0 0 
L -3.5 0 
" style="stroke: #000000; stroke-width: 0.8"/>
      </defs>
      <g>
       <use xlink:href="#md38cf4586d" x="90" y="581.320632" style="stroke: #000000; stroke-width: 0.8"/>
      </g>
     </g>
     <g id="text_7">
      <!-- −15.76 -->
      <g transform="translate(45.992188 585.119851) scale(0.1 -0.1)">
       <defs>
        <path id="DejaVuSans-31" d="M 794 531 
L 1825 531 
L 1825 4091 
L 703 3866 
L 703 4441 
L 1819 4666 
L 2450 4666 
L 2450 531 
L 3481 531 
L 3481 0 
L 794 0 
L 794 531 
z
" transform="scale(0.015625)"/>
        <path id="DejaVuSans-37" d="M 525 4666 
L 3525 4666 
L 3525 4397 
L 1831 0 
L 1172 0 
L 2766 4134 
L 525 4134 
L 525 4666 
z
" transform="scale(0.015625)"/>
        <path id="DejaVuSans-36" d="M 2113 2584 
Q 1688 2584 1439 2293 
Q 1191 2003 1191 1497 
Q 1191 994 1439 701 
Q 1688 409 2113 409 
Q 2538 409 2786 701 
Q 3034 994 3034 1497 
Q 3034 2003 2786 2293 
Q 2538 2584 2113 2584 
z
M 3366 4563 
L 3366 3988 
Q 3128 4100 2886 4159 
Q 2644 4219 2406 4219 
Q 1781 4219 1451 3797 
Q 1122 3375 1075 2522 
Q 1259 2794 1537 2939 
Q 1816 3084 2150 3084 
Q 2853 3084 3261 2657 
Q 3669 2231 3669 1497 
Q 3669 778 3244 343 
Q 2819 -91 2113 -91 
Q 1303 -91 875 529 
Q 447 1150 447 2328 
Q 447 3434 972 4092 
Q 1497 4750 2381 4750 
Q 2619 4750 2861 4703 
Q 3103 4656 3366 4563 
z
" transform="scale(0.015625)"/>
       </defs>
       <use xlink:href="#DejaVuSans-2212"/>
       <use xlink:href="#DejaVuSans-31" transform="translate(83.789062 0)"/>
       <use xlink:href="#DejaVuSans-35" transform="translate(147.412109 0)"/>
       <use xlink:href="#DejaVuSans-2e" transform="translate(211.035156 0)"/>
       <use xlink:href="#DejaVuSans-37" transform="translate(242.822266 0)"/>
       <use xlink:href="#DejaVuSans-36" transform="translate(306.445312 0)"/>
      </g>
     </g>
    </g>
    <g id="ytick_2">
     <g id="line2d_13">
      <path d="M 90 530.73276 
L 648 530.73276 
" clip-path="url(#p91e2e68e2a)" style="fill: none; stroke: #b0b0b0; stroke-width: 0.8; stroke-linecap: square"/>
     </g>
     <g id="line2d_14">
      <g>
       <use xlink:href="#md38cf4586d" x="90" y="530.73276" style="stroke: #000000; stroke-width: 0.8"/>
      </g>
     </g>
     <g id="text_8">
      <!-- −15.74 -->
      <g transform="translate(45.992188 534.531979) scale(0.1 -0.1)">
       <use xlink:href="#DejaVuSans-2212"/>
       <use xlink:href="#DejaVuSans-31" transform="translate(83.789062 0)"/>
       <use xlink:href="#DejaVuSans-35" transform="translate(147.412109 0)"/>
       <use xlink:href="#DejaVuSans-2e" transform="translate(211.035156 0)"/>
       <use xlink:href="#DejaVuSans-37" transform="translate(242.822266 0)"/>
       <use xlink:href="#DejaVuSans-34" transform="translate(306.445312 0)"/>
      </g>
     </g>
    </g>
    <g id="ytick_3">
     <g id="line2d_15">
      <path d="M 90 480.144888 
L 648 480.144888 
" clip-path="url(#p91e2e68e2a)" style="fill: none; stroke: #b0b0b0; stroke-width: 0.8; stroke-linecap: square"/>
     </g>
     <g id="line2d_16">
      <g>
       <use xlink:href="#md38cf4586d" x="90" y="480.144888" style="stroke: #000000; stroke-width: 0.8"/>
      </g>
     </g>
     <g id="text_9">
      <!-- −15.72 -->
      <g transform="translate(45.992188 483.944107) scale(0.1 -0.1)">
       <use xlink:href="#DejaVuSans-2212"/>
       <use xlink:href="#DejaVuSans-31" transform="translate(83.789062 0)"/>
       <use xlink:href="#DejaVuSans-35" transform="translate(147.412109 0)"/>
       <use xlink:href="#DejaVuSans-2e" transform="translate(211.035156 0)"/>
       <use xlink:href="#DejaVuSans-37" transform="translate(242.822266 0)"/>
       <use xlink:href="#DejaVuSans-32" transform="translate(306.445312 0)"/>
      </g>
     </g>
    </g>
    <g id="ytick_4">
     <g id="line2d_17">
      <path d="M 90 429.557016 
L 648 429.557016 
" clip-path="url(#p91e2e68e2a)" style="fill: none; stroke: #b0b0b0; stroke-width: 0.8; stroke-linecap: square"/>
     </g>
     <g id="line2d_18">
      <g>
       <use xlink:href="#md38cf4586d" x="90" y="429.557016" style="stroke: #000000; stroke-width: 0.8"/>
      </g>
     </g>
     <g id="text_10">
      <!-- −15.70 -->
      <g transform="translate(45.992188 433.356234) scale(0.1 -0.1)">
       <use xlink:href="#DejaVuSans-2212"/>
       <use xlink:href="#DejaVuSans-31" transform="translate(83.789062 0)"/>
       <use xlink:href="#DejaVuSans-35" transform="translate(147.412109 0)"/>
       <use xlink:href="#DejaVuSans-2e" transform="translate(211.035156 0)"/>
       <use xlink:href="#DejaVuSans-37" transform="translate(242.822266 0)"/>
       <use xlink:href="#DejaVuSans-30" transform="translate(306.445312 0)"/>
      </g>
     </g>
    </g>
    <g id="ytick_5">
     <g id="line2d_19">
      <path d="M 90 378.969143 
L 648 378.969143 
" clip-path="url(#p91e2e68e2a)" style="fill: none; stroke: #b0b0b0; stroke-width: 0.8; stroke-linecap: square"/>
     </g>
     <g id="line2d_20">
      <g>
       <use xlink:href="#md38cf4586d" x="90" y="378.969143" style="stroke: #000000; stroke-width: 0.8"/>
      </g>
     </g>
     <g id="text_11">
      <!-- −15.68 -->
      <g transform="translate(45.992188 382.768362) scale(0.1 -0.1)">
       <defs>
        <path id="DejaVuSans-38" d="M 2034 2216 
Q 1584 2216 1326 1975 
Q 1069 1734 1069 1313 
Q 1069 891 1326 650 
Q 1584 409 2034 409 
Q 2484 409 2743 651 
Q 3003 894 3003 1313 
Q 3003 1734 2745 1975 
Q 2488 2216 2034 2216 
z
M 1403 2484 
Q 997 2584 770 2862 
Q 544 3141 544 3541 
Q 544 4100 942 4425 
Q 1341 4750 2034 4750 
Q 2731 4750 3128 4425 
Q 3525 4100 3525 3541 
Q 3525 3141 3298 2862 
Q 3072 2584 2669 2484 
Q 3125 2378 3379 2068 
Q 3634 1759 3634 1313 
Q 3634 634 3220 271 
Q 2806 -91 2034 -91 
Q 1263 -91 848 271 
Q 434 634 434 1313 
Q 434 1759 690 2068 
Q 947 2378 1403 2484 
z
M 1172 3481 
Q 1172 3119 1398 2916 
Q 1625 2713 2034 2713 
Q 2441 2713 2670 2916 
Q 2900 3119 2900 3481 
Q 2900 3844 2670 4047 
Q 2441 4250 2034 4250 
Q 1625 4250 1398 4047 
Q 1172 3844 1172 3481 
z
" transform="scale(0.015625)"/>
       </defs>
       <use xlink:href="#DejaVuSans-2212"/>
       <use xlink:href="#DejaVuSans-31" transform="translate(83.789062 0)"/>
       <use xlink:href="#DejaVuSans-35" transform="translate(147.412109 0)"/>
       <use xlink:href="#DejaVuSans-2e" transform="translate(211.035156 0)"/>
       <use xlink:href="#DejaVuSans-36" transform="translate(242.822266 0)"/>
       <use xlink:href="#DejaVuSans-38" transform="translate(306.445312 0)"/>
      </g>
     </g>
    </g>
    <g id="ytick_6">
     <g id="line2d_21">
      <path d="M 90 328.381271 
L 648 328.381271 
" clip-path="url(#p91e2e68e2a)" style="fill: none; stroke: #b0b0b0; stroke-width: 0.8; stroke-linecap: square"/>
     </g>
     <g id="line2d_22">
      <g>
       <use xlink:href="#md38cf4586d" x="90" y="328.381271" style="stroke: #000000; stroke-width: 0.8"/>
      </g>
     </g>
     <g id="text_12">
      <!-- −15.66 -->
      <g transform="translate(45.992188 332.18049) scale(0.1 -0.1)">
       <use xlink:href="#DejaVuSans-2212"/>
       <use xlink:href="#DejaVuSans-31" transform="translate(83.789062 0)"/>
       <use xlink:href="#DejaVuSans-35" transform="translate(147.412109 0)"/>
       <use xlink:href="#DejaVuSans-2e" transform="translate(211.035156 0)"/>
       <use xlink:href="#DejaVuSans-36" transform="translate(242.822266 0)"/>
       <use xlink:href="#DejaVuSans-36" transform="translate(306.445312 0)"/>
      </g>
     </g>
    </g>
    <g id="ytick_7">
     <g id="line2d_23">
      <path d="M 90 277.793399 
L 648 277.793399 
" clip-path="url(#p91e2e68e2a)" style="fill: none; stroke: #b0b0b0; stroke-width: 0.8; stroke-linecap: square"/>
     </g>
     <g id="line2d_24">
      <g>
       <use xlink:href="#md38cf4586d" x="90" y="277.793399" style="stroke: #000000; stroke-width: 0.8"/>
      </g>
     </g>
     <g id="text_13">
      <!-- −15.64 -->
      <g transform="translate(45.992188 281.592618) scale(0.1 -0.1)">
       <use xlink:href="#DejaVuSans-2212"/>
       <use xlink:href="#DejaVuSans-31" transform="translate(83.789062 0)"/>
       <use xlink:href="#DejaVuSans-35" transform="translate(147.412109 0)"/>
       <use xlink:href="#DejaVuSans-2e" transform="translate(211.035156 0)"/>
       <use xlink:href="#DejaVuSans-36" transform="translate(242.822266 0)"/>
       <use xlink:href="#DejaVuSans-34" transform="translate(306.445312 0)"/>
      </g>
     </g>
    </g>
    <g id="text_14">
     <!-- Latitude (°) -->
     <g transform="translate(39.9125 464.889531) rotate(-90) scale(0.1 -0.1)">
      <defs>
       <path id="DejaVuSans-61" d="M 2194 1759 
Q 1497 1759 1228 1600 
Q 959 1441 959 1056 
Q 959 750 1161 570 
Q 1363 391 1709 391 
Q 2188 391 2477 730 
Q 2766 1069 2766 1631 
L 2766 1759 
L 2194 1759 
z
M 3341 1997 
L 3341 0 
L 2766 0 
L 2766 531 
Q 2569 213 2275 61 
Q 1981 -91 1556 -91 
Q 1019 -91 701 211 
Q 384 513 384 1019 
Q 384 1609 779 1909 
Q 1175 2209 1959 2209 
L 2766 2209 
L 2766 2266 
Q 2766 2663 2505 2880 
Q 2244 3097 1772 3097 
Q 1472 3097 1187 3025 
Q 903 2953 641 2809 
L 641 3341 
Q 956 3463 1253 3523 
Q 1550 3584 1831 3584 
Q 2591 3584 2966 3190 
Q 3341 2797 3341 1997 
z
" transform="scale(0.015625)"/>
      </defs>
      <use xlink:href="#DejaVuSans-4c"/>
      <use xlink:href="#DejaVuSans-61" transform="translate(55.712891 0)"/>
      <use xlink:href="#DejaVuSans-74" transform="translate(116.992188 0)"/>
      <use xlink:href="#DejaVuSans-69" transform="translate(156.201172 0)"/>
      <use xlink:href="#DejaVuSans-74" transform="translate(183.984375 0)"/>
      <use xlink:href="#DejaVuSans-75" transform="translate(223.193359 0)"/>
      <use xlink:href="#DejaVuSans-64" transform="translate(286.572266 0)"/>
      <use xlink:href="#DejaVuSans-65" transform="translate(350.048828 0)"/>
      <use xlink:href="#DejaVuSans-20" transform="translate(411.572266 0)"/>
      <use xlink:href="#DejaVuSans-28" transform="translate(443.359375 0)"/>
      <use xlink:href="#DejaVuSans-b0" transform="translate(482.373047 0)"/>
      <use xlink:href="#DejaVuSans-29" transform="translate(532.373047 0)"/>
     </g>
    </g>
   </g>
   <g id="patch_3">
    <path d="M 90 605.186636 
L 90 267.453364 
" style="fill: none; stroke: #000000; stroke-width: 0.8; stroke-linejoin: miter; stroke-linecap: square"/>
   </g>
   <g id="patch_4">
    <path d="M 648 605.186636 
L 648 267.453364 
" style="fill: none; stroke: #000000; stroke-width: 0.8; stroke-linejoin: miter; stroke-linecap: square"/>
   </g>
   <g id="patch_5">
    <path d="M 90 605.186636 
L 648 605.186636 
" style="fill: none; stroke: #000000; stroke-width: 0.8; stroke-linejoin: miter; stroke-linecap: square"/>
   </g>
   <g id="patch_6">
    <path d="M 90 267.453364 
L 648 267.453364 
" style="fill: none; stroke: #000000; stroke-width: 0.8; stroke-linejoin: miter; stroke-linecap: square"/>
   </g>
  </g>
 </g>
 <defs>
  <clipPath id="p91e2e68e2a">
   <rect x="90" y="267.453364" width="558" height="337.733271"/>
  </clipPath>
 </defs>
</svg>
