<?xml version="1.0" encoding="utf-8" standalone="no"?>
<!DOCTYPE svg PUBLIC "-//W3C//DTD SVG 1.1//EN"
  "http://www.w3.org/Graphics/SVG/1.1/DTD/svg11.dtd">
<svg xmlns:xlink="http://www.w3.org/1999/xlink" width="720pt" height="864pt" viewBox="0 0 720 864" xmlns="http://www.w3.org/2000/svg" version="1.1">
 <metadata>
  <rdf:RDF xmlns:dc="http://purl.org/dc/elements/1.1/" xmlns:cc="http://creativecommons.org/ns#" xmlns:rdf="http://www.w3.org/1999/02/22-rdf-syntax-ns#">
   <cc:Work>
    <dc:type rdf:resource="http://purl.org/dc/dcmitype/StillImage"/>
    <dc:date>2025-06-16T17:45:49.034415</dc:date>
    <dc:format>image/svg+xml</dc:format>
    <dc:creator>
     <cc:Agent>
      <dc:title>Matplotlib v3.10.1, https://matplotlib.org/</dc:title>
     </cc:Agent>
    </dc:creator>
   </cc:Work>
  </rdf:RDF>
 </metadata>
 <defs>
  <style type="text/css">*{stroke-linejoin: round; stroke-linecap: butt}</style>
 </defs>
 <g id="figure_1">
  <g id="patch_1">
   <path d="M 0 864 
L 720 864 
L 720 0 
L 0 0 
z
" style="fill: #ffffff"/>
  </g>
  <g id="axes_1">
   <g id="patch_2">
    <path d="M 90 555.84912 
L 648 555.84912 
L 648 316.79088 
L 90 316.79088 
z
" style="fill: #ffffff"/>
   </g>
   <g id="PatchCollection_1">
    <defs>
     <path id="mcbad4b982a" d="M 292.482161 -459.53897 
L 308.330494 -456.137127 
L 310.963996 -455.569032 
L 342.148266 -448.83541 
L 342.034495 -446.548522 
L 341.543912 -444.280378 
L 340.934621 -441.828935 
L 340.428099 -440.491803 
L 339.769912 -438.732056 
L 333.786701 -425.620786 
L 333.218237 -424.372017 
L 332.840778 -423.300457 
L 330.479766 -423.814707 
L 313.796578 -427.460028 
L 287.034578 -433.208821 
L 292.482161 -459.53897 
" style="stroke: #0000ff; stroke-width: 0.5"/>
    </defs>
    <g clip-path="url(#pcd95a151b6)">
     <use xlink:href="#mcbad4b982a" x="0" y="864" style="fill: #e0bd1f; stroke: #0000ff; stroke-width: 0.5"/>
    </g>
   </g>
   <g id="PatchCollection_2">
    <path d="M 115.684583 327.657164 
L 411.843176 351.804846 
L 447.303337 354.675832 
L 550.195503 363.004489 
L 550.577376 363.373664 
L 550.382223 363.583611 
L 550.233143 364.01808 
L 550.55063 364.616279 
L 551.01472 364.990481 
L 551.406489 364.812177 
L 551.428777 365.332027 
L 551.367351 365.939267 
L 551.641261 367.369227 
L 551.877014 368.378297 
L 552.633308 368.823307 
L 553.020637 368.952899 
L 553.132558 369.261284 
L 553.433214 369.467723 
L 553.928007 369.486799 
L 554.152366 369.360733 
L 554.206838 369.111603 
L 554.725417 369.277865 
L 555.009205 369.728896 
L 554.886871 369.910726 
L 554.844773 370.374813 
L 555.546114 370.992612 
L 555.996331 371.057399 
L 556.279138 371.457223 
L 556.865062 371.470278 
L 557.179073 371.310056 
L 557.909619 371.226174 
L 558.200843 371.031795 
L 558.475234 371.613413 
L 558.867503 372.038841 
L 559.447988 371.710856 
L 559.848672 371.350233 
L 559.992795 371.06644 
L 560.252834 371.300002 
L 560.391019 371.828894 
L 560.955154 372.064969 
L 560.879375 372.54061 
L 561.328094 372.908772 
L 561.857068 372.836445 
L 562.419724 372.431125 
L 562.869441 372.382901 
L 563.137878 372.200076 
L 563.158686 371.905741 
L 563.428121 371.881132 
L 564.964511 372.295511 
L 565.145293 372.570752 
L 566.092282 372.79728 
L 566.208679 373.40754 
L 566.223032 373.848536 
L 565.937746 374.982153 
L 565.997175 375.447759 
L 566.364195 376.10221 
L 566.335952 376.456829 
L 566.529126 376.708961 
L 566.871862 376.807905 
L 567.186871 377.301645 
L 567.680665 377.359398 
L 568.012007 377.235846 
L 568.019442 376.881244 
L 568.197746 376.868189 
L 568.450349 377.008323 
L 568.543459 377.422685 
L 569.004071 377.970164 
L 569.437457 378.048024 
L 569.626655 377.773272 
L 569.67469 377.408617 
L 570.087267 377.355384 
L 570.166523 377.162506 
L 569.963453 376.900321 
L 569.660836 376.780782 
L 569.707391 376.223774 
L 570.003072 376.534165 
L 570.095701 376.764219 
L 570.450311 376.817958 
L 571.15363 376.590417 
L 571.447832 376.983207 
L 570.957496 377.401601 
L 570.810396 377.989747 
L 571.315084 378.229836 
L 571.657338 378.247918 
L 571.716268 378.014356 
L 571.662295 377.427711 
L 571.993138 377.303652 
L 572.165005 377.424203 
L 572.369074 377.787339 
L 572.585499 378.575903 
L 572.96985 378.856677 
L 573.322 378.914936 
L 573.712789 378.6191 
L 574.001034 378.62664 
L 574.531488 379.696466 
L 574.814795 379.978252 
L 575.799424 380.098785 
L 575.873224 380.458413 
L 576.460646 380.483529 
L 576.87768 380.682428 
L 577.474998 381.878337 
L 577.781074 381.983302 
L 577.89797 382.386127 
L 578.547299 382.789459 
L 578.534907 383.077755 
L 578.365019 383.352507 
L 578.768681 383.782437 
L 578.684985 384.09988 
L 578.987103 384.285218 
L 579.243664 384.124996 
L 579.384827 383.749293 
L 579.700318 383.790483 
L 580.47248 383.583538 
L 580.747353 384.029054 
L 580.796387 384.965291 
L 581.172822 385.568517 
L 581.682468 385.801066 
L 582.510582 385.334467 
L 582.740397 385.46254 
L 582.8459 386.269185 
L 583.4026 385.91961 
L 583.774559 385.8739 
L 584.277768 386.11549 
L 584.808222 386.184309 
L 585.237149 386.051698 
L 585.538286 386.092888 
L 585.539766 386.32343 
L 585.356024 386.67051 
L 586.218818 387.183833 
L 586.467445 387.931712 
L 586.927077 388.144661 
L 587.499628 388.068826 
L 587.559057 388.385763 
L 586.801266 388.592691 
L 586.813658 389.016618 
L 588.704658 389.5882 
L 590.569912 390.715291 
L 590.598636 391.697727 
L 590.989425 392.698769 
L 590.791811 393.576223 
L 590.657084 395.154363 
L 590.253423 395.624488 
L 590.113757 396.387448 
L 590.149917 397.467833 
L 590.361903 398.810404 
L 590.427269 399.978178 
L 590.753672 401.027426 
L 590.766046 402.006355 
L 591.817557 403.467957 
L 592.557999 404.268075 
L 592.397525 404.713085 
L 592.104323 404.796967 
L 591.648649 405.112385 
L 591.930476 405.718124 
L 592.308373 406.093827 
L 592.494112 407.029051 
L 592.88984 407.535847 
L 592.990385 407.97885 
L 592.863094 408.445956 
L 592.170188 409.184307 
L 592.641712 409.548455 
L 592.207346 410.553494 
L 592.01715 411.425938 
L 592.152358 412.131633 
L 592.079556 413.528449 
L 592.131068 413.922722 
L 593.761068 414.316507 
L 594.007216 414.511898 
L 594.132528 414.769563 
L 594.375716 417.051879 
L 594.084974 417.481321 
L 593.694685 417.812307 
L 593.600095 418.306048 
L 593.884383 419.32264 
L 593.100844 420.38997 
L 593.347991 420.976615 
L 594.735783 421.007264 
L 595.231075 421.321687 
L 595.579766 421.768705 
L 595.730326 422.793832 
L 596.623324 423.340317 
L 597.215703 423.902352 
L 597.096329 424.527674 
L 596.795691 425.207258 
L 596.645612 425.020908 
L 595.864054 425.157027 
L 595.158274 425.405145 
L 594.73926 426.756757 
L 594.183041 427.191225 
L 593.79573 427.699521 
L 593.280129 428.620679 
L 593.195934 429.374598 
L 593.274191 429.917557 
L 593.616927 430.66493 
L 593.806125 431.120482 
L 594.20335 431.757376 
L 594.834349 432.104437 
L 595.417795 431.801061 
L 596.31575 431.959276 
L 596.29644 432.544927 
L 596.11268 432.933178 
L 596.139426 433.471617 
L 596.96458 434.337534 
L 597.534653 434.240091 
L 598.408841 434.351095 
L 598.795171 434.653459 
L 599.089372 435.143673 
L 599.198833 435.822245 
L 599.181983 436.771538 
L 599.012113 437.510883 
L 598.653509 437.946346 
L 598.509386 439.242211 
L 598.095329 440.262836 
L 597.921483 441.575771 
L 597.088893 443.144363 
L 596.844225 443.925893 
L 596.688209 446.601487 
L 596.766966 447.457351 
L 597.067105 448.251448 
L 598.143364 449.454391 
L 598.137926 450.201764 
L 599.582186 451.777897 
L 600.229037 452.659889 
L 600.234475 453.053167 
L 600.014074 453.303292 
L 600.40882 453.572511 
L 601.850103 455.586114 
L 602.046737 458.037693 
L 603.20917 459.038229 
L 603.35529 459.706242 
L 603.909012 460.186421 
L 604.770826 462.284393 
L 605.788138 463.222638 
L 606.472129 463.443651 
L 607.668761 465.407529 
L 608.811385 466.171483 
L 609.877249 465.891216 
L 609.805429 464.099115 
L 610.102108 464.339692 
L 610.887626 465.32164 
L 612.371024 467.030367 
L 613.620131 466.930411 
L 614.35961 467.12479 
L 615.320453 468.172519 
L 616.233779 471.904902 
L 616.633464 472.966192 
L 616.706284 473.314772 
L 617.020794 473.492588 
L 617.886048 473.6071 
L 617.964805 474.176676 
L 618.680998 474.261551 
L 618.883569 474.144526 
L 619.048 474.203292 
L 619.205496 474.693 
L 619.904857 475.299752 
L 619.866718 476.023022 
L 620.147047 476.572002 
L 621.38328 477.024046 
L 621.489763 477.278692 
L 621.646278 478.417354 
L 621.366948 479.064265 
L 621.47393 479.937723 
L 621.80973 480.648933 
L 622.211894 480.682095 
L 622.411505 480.910124 
L 622.417942 481.417914 
L 622.157422 481.407878 
L 622.017257 481.634895 
L 622.101452 481.884025 
L 621.877574 481.980455 
L 621.035089 481.474672 
L 620.681958 481.703208 
L 620.577454 481.98899 
L 620.925147 482.771532 
L 621.619034 483.143221 
L 621.260946 483.592245 
L 621.16238 484.746458 
L 620.834497 485.515946 
L 620.723057 486.515975 
L 620.467494 487.219139 
L 619.779046 486.795736 
L 619.5314 486.880612 
L 619.536357 487.61795 
L 619.347658 487.71438 
L 619.1223 489.479359 
L 619.313976 489.799315 
L 619.358552 490.652666 
L 619.585889 491.007773 
L 619.666126 491.235803 
L 619.466016 491.391505 
L 619.099013 491.274986 
L 618.177771 491.400057 
L 617.540834 491.642154 
L 617.530439 491.856622 
L 617.635442 492.119802 
L 617.928645 493.81748 
L 618.132214 494.18765 
L 618.434332 494.437793 
L 618.793918 494.511114 
L 618.945476 494.728095 
L 619.515049 495.279083 
L 619.91921 495.300184 
L 620.242136 495.620629 
L 620.663129 496.4308 
L 620.77259 496.776361 
L 620.58439 497.100332 
L 619.884049 497.212836 
L 619.422438 497.466487 
L 619.284752 498.17267 
L 619.606198 498.278159 
L 620.188645 498.345966 
L 620.332786 498.548373 
L 620.630946 498.713622 
L 620.999428 498.758827 
L 621.333266 498.924076 
L 621.407548 499.265116 
L 622.636364 500.017516 
L 622.166836 501.303834 
L 622.238158 502.879461 
L 621.732471 503.257171 
L 621.235199 503.260678 
L 621.342663 503.472633 
L 621.758218 503.970388 
L 621.781005 504.19339 
L 622.408028 504.58316 
L 622.56802 504.784067 
L 622.444188 505.242638 
L 621.749302 505.675606 
L 620.135154 506.133671 
L 619.844911 507.111587 
L 619.263944 507.123141 
L 546.029632 507.202502 
L 518.205829 508.912729 
L 498.854913 507.165832 
L 403.520349 507.108585 
L 371.943751 506.995574 
L 331.730796 507.022191 
L 289.485695 516.550771 
L 246.490702 525.597184 
L 223.863955 531.243701 
L 160.056473 544.982836 
L 159.484903 543.315789 
L 158.352192 540.964165 
L 157.338821 539.981711 
L 156.510207 538.753164 
L 156.584988 536.688336 
L 157.004002 531.777113 
L 156.89702 530.513903 
L 157.015895 529.541521 
L 157.410142 528.938277 
L 158.242732 526.631352 
L 158.444304 525.083861 
L 157.641937 524.012516 
L 156.299702 524.233005 
L 155.774205 523.748324 
L 155.678117 522.197307 
L 156.142706 518.411185 
L 156.13429 517.202221 
L 155.386894 516.538223 
L 154.512706 516.234341 
L 152.677675 514.75415 
L 151.467189 512.94648 
L 150.619247 510.513471 
L 149.818859 509.321594 
L 148.787176 509.247748 
L 148.429089 509.030767 
L 148.436506 508.591778 
L 149.512783 506.086966 
L 149.527636 505.189405 
L 148.710416 502.805615 
L 147.902593 501.982895 
L 148.141324 500.425857 
L 148.270095 498.585549 
L 148.979851 497.952688 
L 151.101666 497.950174 
L 151.481043 495.646251 
L 151.573672 494.524169 
L 151.095711 492.764217 
L 150.869372 491.268458 
L 150.464711 489.706393 
L 150.022429 489.356312 
L 148.259201 489.176995 
L 147.459812 489.254349 
L 145.59306 489.816891 
L 144.912047 490.218704 
L 144.596057 489.967566 
L 144.862514 489.441188 
L 145.362763 488.850529 
L 146.83327 486.624466 
L 149.539529 481.686627 
L 152.210109 481.223029 
L 152.592981 481.552532 
L 153.241311 481.702195 
L 153.898557 481.276786 
L 154.647432 481.208473 
L 155.384915 481.382763 
L 156.001542 481.168783 
L 158.080279 480.569084 
L 159.648354 478.883448 
L 160.052996 476.568983 
L 160.183764 472.164067 
L 159.773166 470.467402 
L 159.795454 468.330246 
L 160.398228 467.188076 
L 163.362528 466.431155 
L 165.39865 466.17349 
L 169.057336 466.396999 
L 171.250972 466.24381 
L 171.273759 464.229195 
L 171.027111 463.449672 
L 169.226243 462.3045 
L 169.136592 461.831861 
L 169.551648 461.339133 
L 171.779946 461.168351 
L 174.008743 461.137214 
L 174.787342 460.204503 
L 174.49808 458.437011 
L 173.239558 457.673545 
L 171.597184 457.641902 
L 170.633845 456.736819 
L 169.1242 454.731245 
L 167.58485 453.531321 
L 167.005363 452.711621 
L 165.716138 450.048575 
L 165.226284 449.701008 
L 164.402128 449.682926 
L 163.334285 449.86425 
L 163.029189 448.740668 
L 162.97026 447.165041 
L 162.537374 445.466857 
L 161.41406 444.698382 
L 159.74692 444.508017 
L 157.330904 444.73856 
L 156.823719 445.711467 
L 156.812325 446.492996 
L 155.197196 446.753175 
L 154.490917 445.599956 
L 153.322528 445.231287 
L 151.495414 443.787766 
L 150.395868 442.252824 
L 150.138826 440.815324 
L 148.978853 439.164857 
L 148.583607 438.041275 
L 148.668301 436.63945 
L 148.473165 435.186382 
L 147.177485 434.271228 
L 146.424152 433.009031 
L 148.661864 432.855336 
L 150.709879 432.201879 
L 152.864395 431.070757 
L 152.886683 429.553914 
L 152.089754 428.839179 
L 150.301777 428.802509 
L 148.639095 429.000396 
L 148.09279 428.581007 
L 147.448418 424.690916 
L 146.489037 422.804392 
L 145.541067 421.390995 
L 143.638655 420.432661 
L 139.556979 418.939922 
L 139.069621 418.051402 
L 138.640212 413.731363 
L 138.142941 406.764353 
L 138.067162 404.531762 
L 137.208825 403.142486 
L 136.325223 402.862725 
L 134.93941 402.791392 
L 134.361902 401.092213 
L 134.823014 399.188602 
L 133.411953 391.932302 
L 132.71409 389.636406 
L 131.780474 389.026147 
L 131.902808 388.650462 
L 132.709633 387.927192 
L 132.731921 387.462075 
L 132.128166 385.842257 
L 132.159369 384.920593 
L 132.549159 382.508686 
L 133.024624 382.37658 
L 133.192533 382.87334 
L 133.572427 383.617694 
L 134.335157 383.982349 
L 135.046892 383.433875 
L 135.381711 382.713118 
L 134.66106 380.164078 
L 134.235111 379.364467 
L 133.556076 379.193196 
L 132.300015 379.044022 
L 131.226235 378.801419 
L 130.430804 379.110327 
L 129.08313 380.725625 
L 128.82755 380.203768 
L 127.966253 379.965179 
L 127.246602 380.207782 
L 126.700297 380.112346 
L 126.687423 379.646235 
L 127.04699 378.750699 
L 126.650764 377.908379 
L 125.891992 377.643192 
L 124.707752 377.92496 
L 123.657739 378.060573 
L 123.496267 377.730074 
L 123.792465 377.500545 
L 124.358081 377.655234 
L 124.912302 377.609541 
L 125.611164 377.226805 
L 125.837503 376.530657 
L 125.518535 375.638123 
L 124.069318 374.772712 
L 123.87716 374.231254 
L 125.264951 373.601918 
L 125.259495 372.62299 
L 124.962816 372.00369 
L 123.350165 371.750039 
L 121.678068 372.117695 
L 121.122367 371.941905 
L 121.015384 371.469265 
L 122.594353 367.955383 
L 121.713729 365.65146 
L 121.894511 365.309913 
L 121.376931 364.023107 
L 120.955938 363.630823 
L 120.465602 363.679553 
L 120.203603 363.589145 
L 119.926234 363.136594 
L 120.160008 362.852313 
L 120.367036 362.188803 
L 120.481454 361.359049 
L 119.797962 360.346977 
L 121.945024 361.644849 
L 122.72908 361.640329 
L 123.417029 361.074767 
L 123.411573 360.139036 
L 121.688481 358.571456 
L 121.61814 357.762298 
L 121.001013 357.508647 
L 120.182296 357.041034 
L 120.272446 356.702996 
L 122.166424 356.590998 
L 123.017325 355.919965 
L 123.355621 354.96514 
L 123.475477 353.944027 
L 123.855852 353.073083 
L 124.443756 353.255419 
L 125.168863 354.043477 
L 126.653742 354.237349 
L 127.280765 353.755669 
L 127.498206 352.194617 
L 126.894452 351.041398 
L 125.487332 350.627525 
L 127.289198 350.463795 
L 127.411033 349.362814 
L 126.730501 347.208572 
L 125.626997 344.865971 
L 125.818674 344.326538 
L 127.002914 344.365721 
L 128.156931 343.889068 
L 129.357522 343.770018 
L 129.575944 343.119581 
L 129.21536 342.293841 
L 128.386248 341.247124 
L 126.671073 340.78754 
L 124.78749 340.782514 
L 123.780073 340.205398 
L 124.253077 338.520287 
L 125.149553 338.282204 
L 125.957858 337.840214 
L 126.349627 337.109909 
L 126.006392 336.160111 
L 125.135681 335.825092 
L 124.114393 336.238965 
L 123.458146 336.276648 
L 123.068338 335.608617 
L 123.08073 334.462939 
L 122.850415 332.997322 
L 123.055465 331.753188 
L 122.526009 330.630618 
L 122.00793 330.244374 
L 121.345246 330.265457 
L 120.909882 330.85664 
L 120.67461 331.783819 
L 120.238764 332.288607 
L 119.877699 332.333812 
L 119.900986 331.926972 
L 120.285319 331.448818 
L 120.26403 330.756178 
L 119.942085 330.074604 
L 119.828166 328.295558 
L 118.512677 327.929403 
L 117.379967 327.970593 
L 116.655857 328.363871 
L 115.939165 329.059513 
L 115.48647 329.244851 
L 115.363636 328.961057 
L 115.579099 328.365878 
L 115.684583 327.657164 
L 115.684583 327.657164 
" clip-path="url(#pcd95a151b6)" style="fill: none; stroke: #000000"/>
   </g>
   <g id="matplotlib.axis_1">
    <g id="xtick_1">
     <g id="line2d_1">
      <path d="M 113.142275 555.84912 
L 113.142275 316.79088 
" clip-path="url(#pcd95a151b6)" style="fill: none; stroke: #b0b0b0; stroke-width: 0.8; stroke-linecap: square"/>
     </g>
     <g id="line2d_2">
      <defs>
       <path id="m278dbfbe84" d="M 0 0 
L 0 3.5 
" style="stroke: #000000; stroke-width: 0.8"/>
      </defs>
      <g>
       <use xlink:href="#m278dbfbe84" x="113.142275" y="555.84912" style="stroke: #000000; stroke-width: 0.8"/>
      </g>
     </g>
     <g id="text_1">
      <!-- −55.00 -->
      <g transform="translate(102.00921 594.390502) rotate(-45) scale(0.1 -0.1)">
       <defs>
        <path id="DejaVuSans-2212" d="M 678 2272 
L 4684 2272 
L 4684 1741 
L 678 1741 
L 678 2272 
z
" transform="scale(0.015625)"/>
        <path id="DejaVuSans-35" d="M 691 4666 
L 3169 4666 
L 3169 4134 
L 1269 4134 
L 1269 2991 
Q 1406 3038 1543 3061 
Q 1681 3084 1819 3084 
Q 2600 3084 3056 2656 
Q 3513 2228 3513 1497 
Q 3513 744 3044 326 
Q 2575 -91 1722 -91 
Q 1428 -91 1123 -41 
Q 819 9 494 109 
L 494 744 
Q 775 591 1075 516 
Q 1375 441 1709 441 
Q 2250 441 2565 725 
Q 2881 1009 2881 1497 
Q 2881 1984 2565 2268 
Q 2250 2553 1709 2553 
Q 1456 2553 1204 2497 
Q 953 2441 691 2322 
L 691 4666 
z
" transform="scale(0.015625)"/>
        <path id="DejaVuSans-2e" d="M 684 794 
L 1344 794 
L 1344 0 
L 684 0 
L 684 794 
z
" transform="scale(0.015625)"/>
        <path id="DejaVuSans-30" d="M 2034 4250 
Q 1547 4250 1301 3770 
Q 1056 3291 1056 2328 
Q 1056 1369 1301 889 
Q 1547 409 2034 409 
Q 2525 409 2770 889 
Q 3016 1369 3016 2328 
Q 3016 3291 2770 3770 
Q 2525 4250 2034 4250 
z
M 2034 4750 
Q 2819 4750 3233 4129 
Q 3647 3509 3647 2328 
Q 3647 1150 3233 529 
Q 2819 -91 2034 -91 
Q 1250 -91 836 529 
Q 422 1150 422 2328 
Q 422 3509 836 4129 
Q 1250 4750 2034 4750 
z
" transform="scale(0.015625)"/>
       </defs>
       <use xlink:href="#DejaVuSans-2212"/>
       <use xlink:href="#DejaVuSans-35" transform="translate(83.789062 0)"/>
       <use xlink:href="#DejaVuSans-35" transform="translate(147.412109 0)"/>
       <use xlink:href="#DejaVuSans-2e" transform="translate(211.035156 0)"/>
       <use xlink:href="#DejaVuSans-30" transform="translate(242.822266 0)"/>
       <use xlink:href="#DejaVuSans-30" transform="translate(306.445312 0)"/>
      </g>
     </g>
    </g>
    <g id="xtick_2">
     <g id="line2d_3">
      <path d="M 202.294156 555.84912 
L 202.294156 316.79088 
" clip-path="url(#pcd95a151b6)" style="fill: none; stroke: #b0b0b0; stroke-width: 0.8; stroke-linecap: square"/>
     </g>
     <g id="line2d_4">
      <g>
       <use xlink:href="#m278dbfbe84" x="202.294156" y="555.84912" style="stroke: #000000; stroke-width: 0.8"/>
      </g>
     </g>
     <g id="text_2">
      <!-- −54.95 -->
      <g transform="translate(191.161092 594.390502) rotate(-45) scale(0.1 -0.1)">
       <defs>
        <path id="DejaVuSans-34" d="M 2419 4116 
L 825 1625 
L 2419 1625 
L 2419 4116 
z
M 2253 4666 
L 3047 4666 
L 3047 1625 
L 3713 1625 
L 3713 1100 
L 3047 1100 
L 3047 0 
L 2419 0 
L 2419 1100 
L 313 1100 
L 313 1709 
L 2253 4666 
z
" transform="scale(0.015625)"/>
        <path id="DejaVuSans-39" d="M 703 97 
L 703 672 
Q 941 559 1184 500 
Q 1428 441 1663 441 
Q 2288 441 2617 861 
Q 2947 1281 2994 2138 
Q 2813 1869 2534 1725 
Q 2256 1581 1919 1581 
Q 1219 1581 811 2004 
Q 403 2428 403 3163 
Q 403 3881 828 4315 
Q 1253 4750 1959 4750 
Q 2769 4750 3195 4129 
Q 3622 3509 3622 2328 
Q 3622 1225 3098 567 
Q 2575 -91 1691 -91 
Q 1453 -91 1209 -44 
Q 966 3 703 97 
z
M 1959 2075 
Q 2384 2075 2632 2365 
Q 2881 2656 2881 3163 
Q 2881 3666 2632 3958 
Q 2384 4250 1959 4250 
Q 1534 4250 1286 3958 
Q 1038 3666 1038 3163 
Q 1038 2656 1286 2365 
Q 1534 2075 1959 2075 
z
" transform="scale(0.015625)"/>
       </defs>
       <use xlink:href="#DejaVuSans-2212"/>
       <use xlink:href="#DejaVuSans-35" transform="translate(83.789062 0)"/>
       <use xlink:href="#DejaVuSans-34" transform="translate(147.412109 0)"/>
       <use xlink:href="#DejaVuSans-2e" transform="translate(211.035156 0)"/>
       <use xlink:href="#DejaVuSans-39" transform="translate(242.822266 0)"/>
       <use xlink:href="#DejaVuSans-35" transform="translate(306.445312 0)"/>
      </g>
     </g>
    </g>
    <g id="xtick_3">
     <g id="line2d_5">
      <path d="M 291.446038 555.84912 
L 291.446038 316.79088 
" clip-path="url(#pcd95a151b6)" style="fill: none; stroke: #b0b0b0; stroke-width: 0.8; stroke-linecap: square"/>
     </g>
     <g id="line2d_6">
      <g>
       <use xlink:href="#m278dbfbe84" x="291.446038" y="555.84912" style="stroke: #000000; stroke-width: 0.8"/>
      </g>
     </g>
     <g id="text_3">
      <!-- −54.90 -->
      <g transform="translate(280.312973 594.390502) rotate(-45) scale(0.1 -0.1)">
       <use xlink:href="#DejaVuSans-2212"/>
       <use xlink:href="#DejaVuSans-35" transform="translate(83.789062 0)"/>
       <use xlink:href="#DejaVuSans-34" transform="translate(147.412109 0)"/>
       <use xlink:href="#DejaVuSans-2e" transform="translate(211.035156 0)"/>
       <use xlink:href="#DejaVuSans-39" transform="translate(242.822266 0)"/>
       <use xlink:href="#DejaVuSans-30" transform="translate(306.445312 0)"/>
      </g>
     </g>
    </g>
    <g id="xtick_4">
     <g id="line2d_7">
      <path d="M 380.59792 555.84912 
L 380.59792 316.79088 
" clip-path="url(#pcd95a151b6)" style="fill: none; stroke: #b0b0b0; stroke-width: 0.8; stroke-linecap: square"/>
     </g>
     <g id="line2d_8">
      <g>
       <use xlink:href="#m278dbfbe84" x="380.59792" y="555.84912" style="stroke: #000000; stroke-width: 0.8"/>
      </g>
     </g>
     <g id="text_4">
      <!-- −54.85 -->
      <g transform="translate(369.464855 594.390502) rotate(-45) scale(0.1 -0.1)">
       <defs>
        <path id="DejaVuSans-38" d="M 2034 2216 
Q 1584 2216 1326 1975 
Q 1069 1734 1069 1313 
Q 1069 891 1326 650 
Q 1584 409 2034 409 
Q 2484 409 2743 651 
Q 3003 894 3003 1313 
Q 3003 1734 2745 1975 
Q 2488 2216 2034 2216 
z
M 1403 2484 
Q 997 2584 770 2862 
Q 544 3141 544 3541 
Q 544 4100 942 4425 
Q 1341 4750 2034 4750 
Q 2731 4750 3128 4425 
Q 3525 4100 3525 3541 
Q 3525 3141 3298 2862 
Q 3072 2584 2669 2484 
Q 3125 2378 3379 2068 
Q 3634 1759 3634 1313 
Q 3634 634 3220 271 
Q 2806 -91 2034 -91 
Q 1263 -91 848 271 
Q 434 634 434 1313 
Q 434 1759 690 2068 
Q 947 2378 1403 2484 
z
M 1172 3481 
Q 1172 3119 1398 2916 
Q 1625 2713 2034 2713 
Q 2441 2713 2670 2916 
Q 2900 3119 2900 3481 
Q 2900 3844 2670 4047 
Q 2441 4250 2034 4250 
Q 1625 4250 1398 4047 
Q 1172 3844 1172 3481 
z
" transform="scale(0.015625)"/>
       </defs>
       <use xlink:href="#DejaVuSans-2212"/>
       <use xlink:href="#DejaVuSans-35" transform="translate(83.789062 0)"/>
       <use xlink:href="#DejaVuSans-34" transform="translate(147.412109 0)"/>
       <use xlink:href="#DejaVuSans-2e" transform="translate(211.035156 0)"/>
       <use xlink:href="#DejaVuSans-38" transform="translate(242.822266 0)"/>
       <use xlink:href="#DejaVuSans-35" transform="translate(306.445312 0)"/>
      </g>
     </g>
    </g>
    <g id="xtick_5">
     <g id="line2d_9">
      <path d="M 469.749802 555.84912 
L 469.749802 316.79088 
" clip-path="url(#pcd95a151b6)" style="fill: none; stroke: #b0b0b0; stroke-width: 0.8; stroke-linecap: square"/>
     </g>
     <g id="line2d_10">
      <g>
       <use xlink:href="#m278dbfbe84" x="469.749802" y="555.84912" style="stroke: #000000; stroke-width: 0.8"/>
      </g>
     </g>
     <g id="text_5">
      <!-- −54.80 -->
      <g transform="translate(458.616737 594.390502) rotate(-45) scale(0.1 -0.1)">
       <use xlink:href="#DejaVuSans-2212"/>
       <use xlink:href="#DejaVuSans-35" transform="translate(83.789062 0)"/>
       <use xlink:href="#DejaVuSans-34" transform="translate(147.412109 0)"/>
       <use xlink:href="#DejaVuSans-2e" transform="translate(211.035156 0)"/>
       <use xlink:href="#DejaVuSans-38" transform="translate(242.822266 0)"/>
       <use xlink:href="#DejaVuSans-30" transform="translate(306.445312 0)"/>
      </g>
     </g>
    </g>
    <g id="xtick_6">
     <g id="line2d_11">
      <path d="M 558.901683 555.84912 
L 558.901683 316.79088 
" clip-path="url(#pcd95a151b6)" style="fill: none; stroke: #b0b0b0; stroke-width: 0.8; stroke-linecap: square"/>
     </g>
     <g id="line2d_12">
      <g>
       <use xlink:href="#m278dbfbe84" x="558.901683" y="555.84912" style="stroke: #000000; stroke-width: 0.8"/>
      </g>
     </g>
     <g id="text_6">
      <!-- −54.75 -->
      <g transform="translate(547.768619 594.390502) rotate(-45) scale(0.1 -0.1)">
       <defs>
        <path id="DejaVuSans-37" d="M 525 4666 
L 3525 4666 
L 3525 4397 
L 1831 0 
L 1172 0 
L 2766 4134 
L 525 4134 
L 525 4666 
z
" transform="scale(0.015625)"/>
       </defs>
       <use xlink:href="#DejaVuSans-2212"/>
       <use xlink:href="#DejaVuSans-35" transform="translate(83.789062 0)"/>
       <use xlink:href="#DejaVuSans-34" transform="translate(147.412109 0)"/>
       <use xlink:href="#DejaVuSans-2e" transform="translate(211.035156 0)"/>
       <use xlink:href="#DejaVuSans-37" transform="translate(242.822266 0)"/>
       <use xlink:href="#DejaVuSans-35" transform="translate(306.445312 0)"/>
      </g>
     </g>
    </g>
    <g id="text_7">
     <!-- Longitude (°) -->
     <g transform="translate(336.139844 607.4595) scale(0.1 -0.1)">
      <defs>
       <path id="DejaVuSans-4c" d="M 628 4666 
L 1259 4666 
L 1259 531 
L 3531 531 
L 3531 0 
L 628 0 
L 628 4666 
z
" transform="scale(0.015625)"/>
       <path id="DejaVuSans-6f" d="M 1959 3097 
Q 1497 3097 1228 2736 
Q 959 2375 959 1747 
Q 959 1119 1226 758 
Q 1494 397 1959 397 
Q 2419 397 2687 759 
Q 2956 1122 2956 1747 
Q 2956 2369 2687 2733 
Q 2419 3097 1959 3097 
z
M 1959 3584 
Q 2709 3584 3137 3096 
Q 3566 2609 3566 1747 
Q 3566 888 3137 398 
Q 2709 -91 1959 -91 
Q 1206 -91 779 398 
Q 353 888 353 1747 
Q 353 2609 779 3096 
Q 1206 3584 1959 3584 
z
" transform="scale(0.015625)"/>
       <path id="DejaVuSans-6e" d="M 3513 2113 
L 3513 0 
L 2938 0 
L 2938 2094 
Q 2938 2591 2744 2837 
Q 2550 3084 2163 3084 
Q 1697 3084 1428 2787 
Q 1159 2491 1159 1978 
L 1159 0 
L 581 0 
L 581 3500 
L 1159 3500 
L 1159 2956 
Q 1366 3272 1645 3428 
Q 1925 3584 2291 3584 
Q 2894 3584 3203 3211 
Q 3513 2838 3513 2113 
z
" transform="scale(0.015625)"/>
       <path id="DejaVuSans-67" d="M 2906 1791 
Q 2906 2416 2648 2759 
Q 2391 3103 1925 3103 
Q 1463 3103 1205 2759 
Q 947 2416 947 1791 
Q 947 1169 1205 825 
Q 1463 481 1925 481 
Q 2391 481 2648 825 
Q 2906 1169 2906 1791 
z
M 3481 434 
Q 3481 -459 3084 -895 
Q 2688 -1331 1869 -1331 
Q 1566 -1331 1297 -1286 
Q 1028 -1241 775 -1147 
L 775 -588 
Q 1028 -725 1275 -790 
Q 1522 -856 1778 -856 
Q 2344 -856 2625 -561 
Q 2906 -266 2906 331 
L 2906 616 
Q 2728 306 2450 153 
Q 2172 0 1784 0 
Q 1141 0 747 490 
Q 353 981 353 1791 
Q 353 2603 747 3093 
Q 1141 3584 1784 3584 
Q 2172 3584 2450 3431 
Q 2728 3278 2906 2969 
L 2906 3500 
L 3481 3500 
L 3481 434 
z
" transform="scale(0.015625)"/>
       <path id="DejaVuSans-69" d="M 603 3500 
L 1178 3500 
L 1178 0 
L 603 0 
L 603 3500 
z
M 603 4863 
L 1178 4863 
L 1178 4134 
L 603 4134 
L 603 4863 
z
" transform="scale(0.015625)"/>
       <path id="DejaVuSans-74" d="M 1172 4494 
L 1172 3500 
L 2356 3500 
L 2356 3053 
L 1172 3053 
L 1172 1153 
Q 1172 725 1289 603 
Q 1406 481 1766 481 
L 2356 481 
L 2356 0 
L 1766 0 
Q 1100 0 847 248 
Q 594 497 594 1153 
L 594 3053 
L 172 3053 
L 172 3500 
L 594 3500 
L 594 4494 
L 1172 4494 
z
" transform="scale(0.015625)"/>
       <path id="DejaVuSans-75" d="M 544 1381 
L 544 3500 
L 1119 3500 
L 1119 1403 
Q 1119 906 1312 657 
Q 1506 409 1894 409 
Q 2359 409 2629 706 
Q 2900 1003 2900 1516 
L 2900 3500 
L 3475 3500 
L 3475 0 
L 2900 0 
L 2900 538 
Q 2691 219 2414 64 
Q 2138 -91 1772 -91 
Q 1169 -91 856 284 
Q 544 659 544 1381 
z
M 1991 3584 
L 1991 3584 
z
" transform="scale(0.015625)"/>
       <path id="DejaVuSans-64" d="M 2906 2969 
L 2906 4863 
L 3481 4863 
L 3481 0 
L 2906 0 
L 2906 525 
Q 2725 213 2448 61 
Q 2172 -91 1784 -91 
Q 1150 -91 751 415 
Q 353 922 353 1747 
Q 353 2572 751 3078 
Q 1150 3584 1784 3584 
Q 2172 3584 2448 3432 
Q 2725 3281 2906 2969 
z
M 947 1747 
Q 947 1113 1208 752 
Q 1469 391 1925 391 
Q 2381 391 2643 752 
Q 2906 1113 2906 1747 
Q 2906 2381 2643 2742 
Q 2381 3103 1925 3103 
Q 1469 3103 1208 2742 
Q 947 2381 947 1747 
z
" transform="scale(0.015625)"/>
       <path id="DejaVuSans-65" d="M 3597 1894 
L 3597 1613 
L 953 1613 
Q 991 1019 1311 708 
Q 1631 397 2203 397 
Q 2534 397 2845 478 
Q 3156 559 3463 722 
L 3463 178 
Q 3153 47 2828 -22 
Q 2503 -91 2169 -91 
Q 1331 -91 842 396 
Q 353 884 353 1716 
Q 353 2575 817 3079 
Q 1281 3584 2069 3584 
Q 2775 3584 3186 3129 
Q 3597 2675 3597 1894 
z
M 3022 2063 
Q 3016 2534 2758 2815 
Q 2500 3097 2075 3097 
Q 1594 3097 1305 2825 
Q 1016 2553 972 2059 
L 3022 2063 
z
" transform="scale(0.015625)"/>
       <path id="DejaVuSans-20" transform="scale(0.015625)"/>
       <path id="DejaVuSans-28" d="M 1984 4856 
Q 1566 4138 1362 3434 
Q 1159 2731 1159 2009 
Q 1159 1288 1364 580 
Q 1569 -128 1984 -844 
L 1484 -844 
Q 1016 -109 783 600 
Q 550 1309 550 2009 
Q 550 2706 781 3412 
Q 1013 4119 1484 4856 
L 1984 4856 
z
" transform="scale(0.015625)"/>
       <path id="DejaVuSans-b0" d="M 1600 4347 
Q 1350 4347 1178 4173 
Q 1006 4000 1006 3750 
Q 1006 3503 1178 3333 
Q 1350 3163 1600 3163 
Q 1850 3163 2022 3333 
Q 2194 3503 2194 3750 
Q 2194 3997 2020 4172 
Q 1847 4347 1600 4347 
z
M 1600 4750 
Q 1800 4750 1984 4673 
Q 2169 4597 2303 4453 
Q 2447 4313 2519 4134 
Q 2591 3956 2591 3750 
Q 2591 3338 2302 3052 
Q 2013 2766 1594 2766 
Q 1172 2766 890 3047 
Q 609 3328 609 3750 
Q 609 4169 896 4459 
Q 1184 4750 1600 4750 
z
" transform="scale(0.015625)"/>
       <path id="DejaVuSans-29" d="M 513 4856 
L 1013 4856 
Q 1481 4119 1714 3412 
Q 1947 2706 1947 2009 
Q 1947 1309 1714 600 
Q 1481 -109 1013 -844 
L 513 -844 
Q 928 -128 1133 580 
Q 1338 1288 1338 2009 
Q 1338 2731 1133 3434 
Q 928 4138 513 4856 
z
" transform="scale(0.015625)"/>
      </defs>
      <use xlink:href="#DejaVuSans-4c"/>
      <use xlink:href="#DejaVuSans-6f" transform="translate(53.962891 0)"/>
      <use xlink:href="#DejaVuSans-6e" transform="translate(115.144531 0)"/>
      <use xlink:href="#DejaVuSans-67" transform="translate(178.523438 0)"/>
      <use xlink:href="#DejaVuSans-69" transform="translate(242 0)"/>
      <use xlink:href="#DejaVuSans-74" transform="translate(269.783203 0)"/>
      <use xlink:href="#DejaVuSans-75" transform="translate(308.992188 0)"/>
      <use xlink:href="#DejaVuSans-64" transform="translate(372.371094 0)"/>
      <use xlink:href="#DejaVuSans-65" transform="translate(435.847656 0)"/>
      <use xlink:href="#DejaVuSans-20" transform="translate(497.371094 0)"/>
      <use xlink:href="#DejaVuSans-28" transform="translate(529.158203 0)"/>
      <use xlink:href="#DejaVuSans-b0" transform="translate(568.171875 0)"/>
      <use xlink:href="#DejaVuSans-29" transform="translate(618.171875 0)"/>
     </g>
    </g>
   </g>
   <g id="matplotlib.axis_2">
    <g id="ytick_1">
     <g id="line2d_13">
      <path d="M 90 535.597897 
L 648 535.597897 
" clip-path="url(#pcd95a151b6)" style="fill: none; stroke: #b0b0b0; stroke-width: 0.8; stroke-linecap: square"/>
     </g>
     <g id="line2d_14">
      <defs>
       <path id="mb11b102ada" d="M 0 0 
L -3.5 0 
" style="stroke: #000000; stroke-width: 0.8"/>
      </defs>
      <g>
       <use xlink:href="#mb11b102ada" x="90" y="535.597897" style="stroke: #000000; stroke-width: 0.8"/>
      </g>
     </g>
     <g id="text_8">
      <!-- −9.62 -->
      <g transform="translate(52.354687 539.397116) scale(0.1 -0.1)">
       <defs>
        <path id="DejaVuSans-36" d="M 2113 2584 
Q 1688 2584 1439 2293 
Q 1191 2003 1191 1497 
Q 1191 994 1439 701 
Q 1688 409 2113 409 
Q 2538 409 2786 701 
Q 3034 994 3034 1497 
Q 3034 2003 2786 2293 
Q 2538 2584 2113 2584 
z
M 3366 4563 
L 3366 3988 
Q 3128 4100 2886 4159 
Q 2644 4219 2406 4219 
Q 1781 4219 1451 3797 
Q 1122 3375 1075 2522 
Q 1259 2794 1537 2939 
Q 1816 3084 2150 3084 
Q 2853 3084 3261 2657 
Q 3669 2231 3669 1497 
Q 3669 778 3244 343 
Q 2819 -91 2113 -91 
Q 1303 -91 875 529 
Q 447 1150 447 2328 
Q 447 3434 972 4092 
Q 1497 4750 2381 4750 
Q 2619 4750 2861 4703 
Q 3103 4656 3366 4563 
z
" transform="scale(0.015625)"/>
        <path id="DejaVuSans-32" d="M 1228 531 
L 3431 531 
L 3431 0 
L 469 0 
L 469 531 
Q 828 903 1448 1529 
Q 2069 2156 2228 2338 
Q 2531 2678 2651 2914 
Q 2772 3150 2772 3378 
Q 2772 3750 2511 3984 
Q 2250 4219 1831 4219 
Q 1534 4219 1204 4116 
Q 875 4013 500 3803 
L 500 4441 
Q 881 4594 1212 4672 
Q 1544 4750 1819 4750 
Q 2544 4750 2975 4387 
Q 3406 4025 3406 3419 
Q 3406 3131 3298 2873 
Q 3191 2616 2906 2266 
Q 2828 2175 2409 1742 
Q 1991 1309 1228 531 
z
" transform="scale(0.015625)"/>
       </defs>
       <use xlink:href="#DejaVuSans-2212"/>
       <use xlink:href="#DejaVuSans-39" transform="translate(83.789062 0)"/>
       <use xlink:href="#DejaVuSans-2e" transform="translate(147.412109 0)"/>
       <use xlink:href="#DejaVuSans-36" transform="translate(179.199219 0)"/>
       <use xlink:href="#DejaVuSans-32" transform="translate(242.822266 0)"/>
      </g>
     </g>
    </g>
    <g id="ytick_2">
     <g id="line2d_15">
      <path d="M 90 499.434379 
L 648 499.434379 
" clip-path="url(#pcd95a151b6)" style="fill: none; stroke: #b0b0b0; stroke-width: 0.8; stroke-linecap: square"/>
     </g>
     <g id="line2d_16">
      <g>
       <use xlink:href="#mb11b102ada" x="90" y="499.434379" style="stroke: #000000; stroke-width: 0.8"/>
      </g>
     </g>
     <g id="text_9">
      <!-- −9.60 -->
      <g transform="translate(52.354687 503.233598) scale(0.1 -0.1)">
       <use xlink:href="#DejaVuSans-2212"/>
       <use xlink:href="#DejaVuSans-39" transform="translate(83.789062 0)"/>
       <use xlink:href="#DejaVuSans-2e" transform="translate(147.412109 0)"/>
       <use xlink:href="#DejaVuSans-36" transform="translate(179.199219 0)"/>
       <use xlink:href="#DejaVuSans-30" transform="translate(242.822266 0)"/>
      </g>
     </g>
    </g>
    <g id="ytick_3">
     <g id="line2d_17">
      <path d="M 90 463.270862 
L 648 463.270862 
" clip-path="url(#pcd95a151b6)" style="fill: none; stroke: #b0b0b0; stroke-width: 0.8; stroke-linecap: square"/>
     </g>
     <g id="line2d_18">
      <g>
       <use xlink:href="#mb11b102ada" x="90" y="463.270862" style="stroke: #000000; stroke-width: 0.8"/>
      </g>
     </g>
     <g id="text_10">
      <!-- −9.58 -->
      <g transform="translate(52.354687 467.07008) scale(0.1 -0.1)">
       <use xlink:href="#DejaVuSans-2212"/>
       <use xlink:href="#DejaVuSans-39" transform="translate(83.789062 0)"/>
       <use xlink:href="#DejaVuSans-2e" transform="translate(147.412109 0)"/>
       <use xlink:href="#DejaVuSans-35" transform="translate(179.199219 0)"/>
       <use xlink:href="#DejaVuSans-38" transform="translate(242.822266 0)"/>
      </g>
     </g>
    </g>
    <g id="ytick_4">
     <g id="line2d_19">
      <path d="M 90 427.107344 
L 648 427.107344 
" clip-path="url(#pcd95a151b6)" style="fill: none; stroke: #b0b0b0; stroke-width: 0.8; stroke-linecap: square"/>
     </g>
     <g id="line2d_20">
      <g>
       <use xlink:href="#mb11b102ada" x="90" y="427.107344" style="stroke: #000000; stroke-width: 0.8"/>
      </g>
     </g>
     <g id="text_11">
      <!-- −9.56 -->
      <g transform="translate(52.354687 430.906563) scale(0.1 -0.1)">
       <use xlink:href="#DejaVuSans-2212"/>
       <use xlink:href="#DejaVuSans-39" transform="translate(83.789062 0)"/>
       <use xlink:href="#DejaVuSans-2e" transform="translate(147.412109 0)"/>
       <use xlink:href="#DejaVuSans-35" transform="translate(179.199219 0)"/>
       <use xlink:href="#DejaVuSans-36" transform="translate(242.822266 0)"/>
      </g>
     </g>
    </g>
    <g id="ytick_5">
     <g id="line2d_21">
      <path d="M 90 390.943826 
L 648 390.943826 
" clip-path="url(#pcd95a151b6)" style="fill: none; stroke: #b0b0b0; stroke-width: 0.8; stroke-linecap: square"/>
     </g>
     <g id="line2d_22">
      <g>
       <use xlink:href="#mb11b102ada" x="90" y="390.943826" style="stroke: #000000; stroke-width: 0.8"/>
      </g>
     </g>
     <g id="text_12">
      <!-- −9.54 -->
      <g transform="translate(52.354687 394.743045) scale(0.1 -0.1)">
       <use xlink:href="#DejaVuSans-2212"/>
       <use xlink:href="#DejaVuSans-39" transform="translate(83.789062 0)"/>
       <use xlink:href="#DejaVuSans-2e" transform="translate(147.412109 0)"/>
       <use xlink:href="#DejaVuSans-35" transform="translate(179.199219 0)"/>
       <use xlink:href="#DejaVuSans-34" transform="translate(242.822266 0)"/>
      </g>
     </g>
    </g>
    <g id="ytick_6">
     <g id="line2d_23">
      <path d="M 90 354.780308 
L 648 354.780308 
" clip-path="url(#pcd95a151b6)" style="fill: none; stroke: #b0b0b0; stroke-width: 0.8; stroke-linecap: square"/>
     </g>
     <g id="line2d_24">
      <g>
       <use xlink:href="#mb11b102ada" x="90" y="354.780308" style="stroke: #000000; stroke-width: 0.8"/>
      </g>
     </g>
     <g id="text_13">
      <!-- −9.52 -->
      <g transform="translate(52.354687 358.579527) scale(0.1 -0.1)">
       <use xlink:href="#DejaVuSans-2212"/>
       <use xlink:href="#DejaVuSans-39" transform="translate(83.789062 0)"/>
       <use xlink:href="#DejaVuSans-2e" transform="translate(147.412109 0)"/>
       <use xlink:href="#DejaVuSans-35" transform="translate(179.199219 0)"/>
       <use xlink:href="#DejaVuSans-32" transform="translate(242.822266 0)"/>
      </g>
     </g>
    </g>
    <g id="ytick_7">
     <g id="line2d_25">
      <path d="M 90 318.61679 
L 648 318.61679 
" clip-path="url(#pcd95a151b6)" style="fill: none; stroke: #b0b0b0; stroke-width: 0.8; stroke-linecap: square"/>
     </g>
     <g id="line2d_26">
      <g>
       <use xlink:href="#mb11b102ada" x="90" y="318.61679" style="stroke: #000000; stroke-width: 0.8"/>
      </g>
     </g>
     <g id="text_14">
      <!-- −9.50 -->
      <g transform="translate(52.354687 322.416009) scale(0.1 -0.1)">
       <use xlink:href="#DejaVuSans-2212"/>
       <use xlink:href="#DejaVuSans-39" transform="translate(83.789062 0)"/>
       <use xlink:href="#DejaVuSans-2e" transform="translate(147.412109 0)"/>
       <use xlink:href="#DejaVuSans-35" transform="translate(179.199219 0)"/>
       <use xlink:href="#DejaVuSans-30" transform="translate(242.822266 0)"/>
      </g>
     </g>
    </g>
    <g id="text_15">
     <!-- Latitude (°) -->
     <g transform="translate(46.275 464.889531) rotate(-90) scale(0.1 -0.1)">
      <defs>
       <path id="DejaVuSans-61" d="M 2194 1759 
Q 1497 1759 1228 1600 
Q 959 1441 959 1056 
Q 959 750 1161 570 
Q 1363 391 1709 391 
Q 2188 391 2477 730 
Q 2766 1069 2766 1631 
L 2766 1759 
L 2194 1759 
z
M 3341 1997 
L 3341 0 
L 2766 0 
L 2766 531 
Q 2569 213 2275 61 
Q 1981 -91 1556 -91 
Q 1019 -91 701 211 
Q 384 513 384 1019 
Q 384 1609 779 1909 
Q 1175 2209 1959 2209 
L 2766 2209 
L 2766 2266 
Q 2766 2663 2505 2880 
Q 2244 3097 1772 3097 
Q 1472 3097 1187 3025 
Q 903 2953 641 2809 
L 641 3341 
Q 956 3463 1253 3523 
Q 1550 3584 1831 3584 
Q 2591 3584 2966 3190 
Q 3341 2797 3341 1997 
z
" transform="scale(0.015625)"/>
      </defs>
      <use xlink:href="#DejaVuSans-4c"/>
      <use xlink:href="#DejaVuSans-61" transform="translate(55.712891 0)"/>
      <use xlink:href="#DejaVuSans-74" transform="translate(116.992188 0)"/>
      <use xlink:href="#DejaVuSans-69" transform="translate(156.201172 0)"/>
      <use xlink:href="#DejaVuSans-74" transform="translate(183.984375 0)"/>
      <use xlink:href="#DejaVuSans-75" transform="translate(223.193359 0)"/>
      <use xlink:href="#DejaVuSans-64" transform="translate(286.572266 0)"/>
      <use xlink:href="#DejaVuSans-65" transform="translate(350.048828 0)"/>
      <use xlink:href="#DejaVuSans-20" transform="translate(411.572266 0)"/>
      <use xlink:href="#DejaVuSans-28" transform="translate(443.359375 0)"/>
      <use xlink:href="#DejaVuSans-b0" transform="translate(482.373047 0)"/>
      <use xlink:href="#DejaVuSans-29" transform="translate(532.373047 0)"/>
     </g>
    </g>
   </g>
   <g id="patch_3">
    <path d="M 90 555.84912 
L 90 316.79088 
" style="fill: none; stroke: #000000; stroke-width: 0.8; stroke-linejoin: miter; stroke-linecap: square"/>
   </g>
   <g id="patch_4">
    <path d="M 648 555.84912 
L 648 316.79088 
" style="fill: none; stroke: #000000; stroke-width: 0.8; stroke-linejoin: miter; stroke-linecap: square"/>
   </g>
   <g id="patch_5">
    <path d="M 90 555.84912 
L 648 555.84912 
" style="fill: none; stroke: #000000; stroke-width: 0.8; stroke-linejoin: miter; stroke-linecap: square"/>
   </g>
   <g id="patch_6">
    <path d="M 90 316.79088 
L 648 316.79088 
" style="fill: none; stroke: #000000; stroke-width: 0.8; stroke-linejoin: miter; stroke-linecap: square"/>
   </g>
  </g>
 </g>
 <defs>
  <clipPath id="pcd95a151b6">
   <rect x="90" y="316.79088" width="558" height="239.05824"/>
  </clipPath>
 </defs>
</svg>
