<?xml version="1.0" encoding="utf-8" standalone="no"?>
<!DOCTYPE svg PUBLIC "-//W3C//DTD SVG 1.1//EN"
  "http://www.w3.org/Graphics/SVG/1.1/DTD/svg11.dtd">
<svg xmlns:xlink="http://www.w3.org/1999/xlink" width="720pt" height="864pt" viewBox="0 0 720 864" xmlns="http://www.w3.org/2000/svg" version="1.1">
 <metadata>
  <rdf:RDF xmlns:dc="http://purl.org/dc/elements/1.1/" xmlns:cc="http://creativecommons.org/ns#" xmlns:rdf="http://www.w3.org/1999/02/22-rdf-syntax-ns#">
   <cc:Work>
    <dc:type rdf:resource="http://purl.org/dc/dcmitype/StillImage"/>
    <dc:date>2025-06-16T17:45:33.244626</dc:date>
    <dc:format>image/svg+xml</dc:format>
    <dc:creator>
     <cc:Agent>
      <dc:title>Matplotlib v3.10.1, https://matplotlib.org/</dc:title>
     </cc:Agent>
    </dc:creator>
   </cc:Work>
  </rdf:RDF>
 </metadata>
 <defs>
  <style type="text/css">*{stroke-linejoin: round; stroke-linecap: butt}</style>
 </defs>
 <g id="figure_1">
  <g id="patch_1">
   <path d="M 0 864 
L 720 864 
L 720 0 
L 0 0 
z
" style="fill: #ffffff"/>
  </g>
  <g id="axes_1">
   <g id="patch_2">
    <path d="M 90 662.236831 
L 648 662.236831 
L 648 210.403169 
L 90 210.403169 
z
" style="fill: #ffffff"/>
   </g>
   <g id="PatchCollection_1">
    <path d="M 340.134255 417.104946 
L 344.414887 421.021332 
L 345.464802 422.650275 
L 371.623264 451.756159 
L 371.811075 451.916449 
L 386.726705 463.140568 
L 409.820233 450.974871 
L 430.68202 469.3728 
L 436.582837 474.583382 
L 436.656299 474.499548 
L 444.184315 481.107637 
L 466.583981 500.838633 
L 443.452604 517.022798 
L 397.620085 515.473279 
L 397.073422 513.744605 
L 380.968449 502.613619 
L 370.12108 494.963726 
L 359.003643 487.129138 
L 358.096243 486.415588 
L 345.889034 476.635683 
L 345.444438 476.280092 
L 337.892401 470.21798 
L 330.809666 464.543169 
L 334.381437 447.086902 
L 340.134255 417.104946 
" clip-path="url(#pb168db4f42)" style="fill: #e0bd1f; stroke: #0000ff; stroke-width: 0.5"/>
    <path d="M 352.831837 350.763001 
L 346.152499 385.811511 
L 340.134263 417.104943 
L 334.381445 447.086898 
L 330.809674 464.543165 
L 329.973363 468.739308 
L 272.249013 458.400222 
L 251.361983 454.663383 
L 226.734746 449.673555 
L 156.217995 435.895688 
L 126.874386 426.992698 
L 126.895098 426.910424 
L 115.447961 423.780126 
L 115.363636 423.66782 
L 133.618348 326.488972 
L 229.248539 337.482745 
L 234.964654 338.047464 
L 311.358872 346.716496 
L 352.831837 350.763001 
" clip-path="url(#pb168db4f42)" style="fill: #e0bd1f; stroke: #0000ff; stroke-width: 0.5"/>
    <path d="M 269.368964 250.343201 
L 275.92395 256.614329 
L 304.97987 284.908301 
L 355.197284 295.165109 
L 350.353385 323.215545 
L 357.776929 324.21864 
L 352.831839 350.762996 
L 311.358874 346.71649 
L 234.964656 338.04746 
L 230.262287 329.230545 
L 261.50096 267.573935 
L 269.368964 250.343201 
" clip-path="url(#pb168db4f42)" style="fill: #e0bd1f; stroke: #0000ff; stroke-width: 0.5"/>
    <path d="M 455.078993 235.10094 
L 446.560311 298.715824 
L 436.919748 308.937864 
L 433.993948 312.113931 
L 429.315662 317.178866 
L 424.598135 315.637903 
L 431.447131 235.719506 
L 433.445416 235.668162 
L 446.217903 235.33408 
L 455.078993 235.10094 
" clip-path="url(#pb168db4f42)" style="fill: #e0bd1f; stroke: #0000ff; stroke-width: 0.5"/>
    <path d="M 431.447131 235.719506 
L 424.598135 315.637903 
L 410.46114 311.103138 
L 405.96114 309.674881 
L 410.202039 236.244001 
L 417.140716 236.069055 
L 431.447131 235.719506 
" clip-path="url(#pb168db4f42)" style="fill: #e0bd1f; stroke: #0000ff; stroke-width: 0.5"/>
    <path d="M 388.790817 236.72177 
L 396.767122 236.584899 
L 401.159953 236.498836 
L 410.202039 236.244001 
L 405.96114 309.674881 
L 391.369421 305.180596 
L 383.174435 302.779541 
L 388.790817 236.72177 
" clip-path="url(#pb168db4f42)" style="fill: #e0bd1f; stroke: #0000ff; stroke-width: 0.5"/>
    <path d="M 365.167876 237.105614 
L 369.363153 237.033046 
L 377.21858 236.911786 
L 388.790817 236.72177 
L 383.174435 302.779541 
L 368.216954 298.398067 
L 362.887454 296.839847 
L 355.197282 295.165117 
L 365.167876 237.105614 
" clip-path="url(#pb168db4f42)" style="fill: #e0bd1f; stroke: #0000ff; stroke-width: 0.5"/>
    <path d="M 478.563751 234.449861 
L 478.408022 235.292685 
L 476.275852 258.693894 
L 473.888057 285.230701 
L 472.537318 300.067271 
L 463.636249 299.596755 
L 452.784455 299.033666 
L 446.560311 298.715824 
L 455.078993 235.10094 
L 469.200523 234.705716 
L 478.563751 234.449861 
" clip-path="url(#pb168db4f42)" style="fill: #e0bd1f; stroke: #0000ff; stroke-width: 0.5"/>
    <path d="M 512.942877 412.019034 
L 540.167204 413.352183 
L 547.364758 413.70465 
L 557.021005 414.177281 
L 560.630589 414.35509 
L 561.557806 414.398847 
L 561.69734 415.082689 
L 566.410238 416.436364 
L 575.032463 423.796148 
L 573.90641 423.777651 
L 558.923272 423.490476 
L 545.727679 423.276268 
L 530.87196 423.068571 
L 512.942877 412.019034 
" clip-path="url(#pb168db4f42)" style="fill: #e0bd1f; stroke: #0000ff; stroke-width: 0.5"/>
    <path d="M 516.295525 329.635498 
L 518.754416 333.910308 
L 527.041456 348.285161 
L 528.999581 365.892029 
L 533.856914 369.872013 
L 530.593409 382.525553 
L 516.000676 377.31933 
L 516.044076 376.75318 
L 505.165022 332.827198 
L 516.295525 329.635498 
" clip-path="url(#pb168db4f42)" style="fill: #e0bd1f; stroke: #0000ff; stroke-width: 0.5"/>
    <path d="M 516.044076 376.75318 
L 516.000676 377.31933 
L 510.435314 375.551945 
L 491.425807 370.536402 
L 490.245651 369.998832 
L 482.84218 366.688556 
L 487.822259 359.937119 
L 476.137145 350.024793 
L 478.078611 348.383975 
L 485.76542 341.899908 
L 491.495949 337.085358 
L 492.189802 336.503356 
L 498.610707 334.701397 
L 505.165022 332.827198 
L 516.044076 376.75318 
" clip-path="url(#pb168db4f42)" style="fill: #e0bd1f; stroke: #0000ff; stroke-width: 0.5"/>
    <path d="M 491.352698 370.817073 
L 510.354188 375.830497 
L 515.973439 377.669596 
L 514.605354 395.972768 
L 490.445568 370.403983 
L 491.352698 370.817073 
" clip-path="url(#pb168db4f42)" style="fill: #e0bd1f; stroke: #0000ff; stroke-width: 0.5"/>
   </g>
   <g id="PatchCollection_2">
    <path d="M 622.274855 230.941063 
L 622.636364 231.776766 
L 622.60408 233.018621 
L 622.277024 233.737718 
L 619.89229 235.96032 
L 616.331603 236.973422 
L 614.534304 237.365616 
L 613.521879 238.215277 
L 612.411014 239.784034 
L 612.345925 242.006617 
L 614.632743 246.843995 
L 614.632743 247.693656 
L 615.253003 248.44567 
L 615.677994 247.988224 
L 615.580079 246.28836 
L 616.363867 245.863248 
L 618.519983 245.961438 
L 619.696479 246.223088 
L 620.545899 247.040374 
L 620.970329 247.988224 
L 620.447442 250.668272 
L 619.794375 252.367574 
L 619.565757 253.577054 
L 619.33712 258.185158 
L 618.847039 259.753915 
L 619.33712 259.885021 
L 619.925097 259.067715 
L 620.872433 259.231177 
L 619.532931 261.420862 
L 617.344009 261.780139 
L 616.756033 261.35559 
L 616.004527 260.473032 
L 613.979134 262.205251 
L 613.031817 262.826158 
L 613.227629 264.166182 
L 612.836005 265.04876 
L 612.280293 265.146949 
L 611.790231 264.52546 
L 610.875701 265.375683 
L 610.287725 266.192406 
L 609.438304 268.610825 
L 609.438304 269.755033 
L 609.862753 270.604694 
L 609.569026 271.389062 
L 608.751889 272.467456 
L 607.673831 273.382369 
L 606.171344 273.513475 
L 606.595773 273.938025 
L 608.915417 274.069131 
L 608.719605 273.448203 
L 609.666941 272.467456 
L 611.823037 274.624224 
L 614.7355 276.944996 
L 615.449357 276.65099 
L 616.07016 278.317395 
L 617.474731 278.415564 
L 616.135249 280.703438 
L 616.233145 283.088939 
L 615.972244 287.271931 
L 615.318635 288.187406 
L 615.612362 289.461596 
L 615.416551 290.442363 
L 614.305667 292.010558 
L 614.142681 293.415855 
L 613.489072 292.860761 
L 610.548626 294.527166 
L 609.24195 295.834273 
L 608.163912 297.337758 
L 608.425355 298.383235 
L 609.405498 299.690905 
L 610.320008 300.31127 
L 611.398589 302.108761 
L 612.313118 302.827857 
L 612.574562 302.500935 
L 611.953759 301.390206 
L 611.071513 300.050182 
L 610.516362 299.494526 
L 611.137145 297.925769 
L 613.35835 299.102332 
L 614.795748 301.324934 
L 615.122824 303.187135 
L 614.338493 304.919353 
L 612.86827 306.553383 
L 612.345925 308.023951 
L 612.80318 310.474724 
L 613.586968 310.801647 
L 615.580079 312.664409 
L 616.429499 313.154793 
L 618.259062 313.644614 
L 620.284456 313.873327 
L 620.610989 313.481153 
L 619.925097 313.056604 
L 619.206398 312.794953 
L 619.33712 312.468031 
L 620.741711 312.958415 
L 621.198966 313.709886 
L 621.16614 314.854094 
L 620.643796 316.161201 
L 618.748601 317.27195 
L 616.821665 318.873063 
L 616.690943 319.592159 
L 617.213288 321.258564 
L 616.756033 323.25187 
L 615.873806 325.800813 
L 614.795748 327.336673 
L 614.175488 327.336673 
L 612.606826 324.722439 
L 610.973617 326.944479 
L 610.875701 328.546153 
L 610.254918 328.840159 
L 609.666941 328.741969 
L 608.751889 328.349775 
L 607.608741 329.493421 
L 606.040622 331.22564 
L 602.740836 335.506258 
L 601.891415 337.074474 
L 601.074801 339.06778 
L 601.140433 340.244343 
L 601.597688 341.28982 
L 602.577831 342.531655 
L 603.361619 342.401111 
L 604.276672 341.714912 
L 604.962564 342.074189 
L 605.06048 342.760388 
L 604.505309 343.675301 
L 602.969996 344.361501 
L 598.755157 345.341706 
L 597.61201 346.256618 
L 596.436056 347.400284 
L 595.945994 348.642119 
L 593.103464 350.145043 
L 590.261475 352.007805 
L 587.418944 353.707107 
L 585.850825 354.850773 
L 582.616671 356.353696 
L 579.08879 359.457751 
L 577.062873 360.764859 
L 576.73634 361.451058 
L 577.22642 361.483413 
L 577.552954 361.810335 
L 575.691108 363.574909 
L 573.959441 365.502381 
L 571.509075 367.528605 
L 570.104503 369.162072 
L 569.516507 370.828457 
L 568.438469 373.409774 
L 567.458326 374.618712 
L 567.392694 375.860547 
L 567.621855 376.317451 
L 568.667087 375.795275 
L 568.536365 376.480912 
L 569.091535 377.10182 
L 568.569191 378.539491 
L 568.046303 379.389132 
L 568.144199 380.140603 
L 568.765002 379.421486 
L 569.320696 378.147859 
L 569.548791 377.167092 
L 568.99362 376.252179 
L 569.189974 375.239619 
L 570.725287 371.579928 
L 571.737713 373.017579 
L 572.489218 374.422896 
L 573.04493 375.991091 
L 573.11002 377.10182 
L 571.966873 378.768224 
L 570.235225 380.565152 
L 569.092078 382.329726 
L 566.30873 388.145623 
L 566.364659 390.67896 
L 565.070901 394.589697 
L 566.91983 398.676187 
L 566.903156 396.019556 
L 566.57608 394.157355 
L 567.915582 395.82374 
L 568.99362 398.045217 
L 569.712338 400.23434 
L 570.790377 401.149273 
L 573.04493 401.279817 
L 574.710965 402.292919 
L 576.605618 402.227084 
L 577.716482 404.285663 
L 578.85963 405.755689 
L 579.70905 405.625145 
L 580.591296 405.952047 
L 581.204004 406.887626 
L 580.134022 409.937556 
L 580.264744 411.669213 
L 579.872578 413.662519 
L 579.023158 415.52472 
L 577.259227 417.811469 
L 576.834255 419.314413 
L 576.409806 421.405346 
L 575.032657 423.79641 
L 571.999156 427.775774 
L 570.496669 430.454718 
L 569.026446 431.434922 
L 569.091535 432.64384 
L 569.84306 432.807302 
L 570.300315 432.284563 
L 570.006588 433.166579 
L 566.282353 440.386105 
L 565.465216 443.032694 
L 566.380269 445.319443 
L 567.752576 447.11583 
L 568.405643 451.656974 
L 569.059252 451.85279 
L 569.973782 453.845534 
L 570.921098 454.466462 
L 571.215368 455.968823 
L 571.117452 457.177761 
L 573.142827 459.660326 
L 573.077214 460.444695 
L 572.456953 461.130332 
L 570.888292 461.881804 
L 570.13731 463.35181 
L 569.516507 465.246385 
L 570.006588 466.096026 
L 570.528933 466.096026 
L 571.019014 465.377471 
L 571.248174 466.096026 
L 570.856009 467.860037 
L 571.606991 470.70188 
L 572.424128 471.159346 
L 573.763629 470.473167 
L 573.959441 471.420434 
L 573.175652 472.498828 
L 571.672623 472.400639 
L 570.235225 472.825188 
L 568.99362 474.066461 
L 568.63428 475.242482 
L 567.621855 476.026308 
L 567.850492 477.332853 
L 567.850492 478.868693 
L 567.360411 479.913608 
L 566.706802 479.913608 
L 565.759466 481.351259 
L 564.15854 484.388918 
L 563.929903 485.238016 
L 564.289262 485.564939 
L 564.126257 486.022405 
L 562.296694 487.32895 
L 558.180294 487.197864 
L 555.599226 486.969673 
L 554.227441 487.230761 
L 551.31982 489.419341 
L 548.215865 491.183352 
L 542.793332 495.233571 
L 542.66261 496.311382 
L 541.943892 497.552675 
L 541.192387 498.304147 
L 540.996575 500.917257 
L 542.629784 502.713623 
L 543.772932 503.628555 
L 545.014518 504.9351 
L 545.63532 505.065644 
L 545.341051 504.151274 
L 544.132271 502.713623 
L 544.818706 502.354345 
L 546.190471 502.910001 
L 546.84408 504.020187 
L 546.811274 505.098561 
L 546.386825 506.731486 
L 546.451915 508.282952 
L 547.497689 509.589496 
L 549.784527 511.157712 
L 549.653805 509.785312 
L 551.156292 510.765517 
L 552.070803 512.463694 
L 551.940623 514.227725 
L 551.02557 515.730086 
L 549.653805 515.795358 
L 548.085666 516.187553 
L 546.778991 517.232467 
L 545.929028 519.192294 
L 546.125382 522.393414 
L 545.275961 522.719774 
L 544.230729 523.961067 
L 544.557262 527.162167 
L 545.863938 528.860364 
L 547.236246 529.252558 
L 549.849617 528.990908 
L 550.530648 530.44308 
L 548.869474 532.780039 
L 548.020034 534.87041 
L 548.216388 537.875151 
L 549.196008 542.186458 
L 548.935087 544.015179 
L 549.457451 545.452288 
L 553.769644 551.461771 
L 553.312388 553.095238 
L 553.704554 554.858707 
L 555.468504 554.597619 
L 555.337782 555.642534 
L 553.051487 555.707806 
L 552.790044 557.01435 
L 554.031087 560.345452 
L 555.468504 563.480758 
L 556.252835 567.204034 
L 554.57549 569.508096 
L 553.906834 571.601258 
L 553.638922 573.670441 
L 553.835276 576.348261 
L 554.292531 580.071557 
L 552.397878 581.051199 
L 551.287014 582.87992 
L 551.227308 585.25315 
L 552.985855 586.341566 
L 553.181667 589.476851 
L 557.036623 590.97867 
L 553.181667 591.370864 
L 553.508742 592.464863 
L 554.292531 593.281045 
L 553.933191 594.228332 
L 552.626515 594.750508 
L 550.339678 596.351058 
L 549.620979 597.951066 
L 549.065809 598.76781 
L 549.751701 599.257611 
L 551.058377 599.388155 
L 551.548458 599.943248 
L 551.646354 600.531259 
L 552.462968 600.727075 
L 552.59369 601.477984 
L 552.23435 602.621088 
L 551.581264 603.731254 
L 550.927655 605.233635 
L 550.241782 606.311466 
L 548.902281 606.539637 
L 547.007628 606.604909 
L 545.537405 606.931832 
L 544.295819 607.747993 
L 543.903653 608.498902 
L 543.772932 609.282729 
L 544.459347 610.392915 
L 546.027486 611.11147 
L 547.987228 611.731835 
L 549.294446 611.69946 
L 550.796933 612.94019 
L 551.907797 614.180921 
L 553.018681 616.956929 
L 553.933191 616.695279 
L 553.965997 617.348561 
L 553.214492 618.164743 
L 553.933191 619.797668 
L 554.358163 622.181482 
L 557.232977 620.907834 
L 558.539653 619.797668 
L 559.029714 620.189842 
L 558.147487 623.291668 
L 558.506827 625.316205 
L 558.343841 626.688042 
L 557.820954 627.602412 
L 557.036623 627.830583 
L 555.828386 627.373679 
L 554.65189 626.720397 
L 553.802469 627.373679 
L 553.018681 628.28805 
L 552.267156 629.920392 
L 553.018681 629.888037 
L 553.181667 630.54132 
L 553.181667 631.19404 
L 552.365072 632.141327 
L 551.38491 632.304226 
L 550.11106 631.977866 
L 548.150756 632.173682 
L 546.811274 633.283869 
L 545.831132 634.557496 
L 544.883796 635.243134 
L 544.100007 636.092232 
L 544.916602 636.320965 
L 545.341051 636.320965 
L 545.863938 636.549698 
L 546.027486 635.994043 
L 546.092575 635.373678 
L 546.484741 635.341323 
L 546.549831 636.190421 
L 546.288387 637.137147 
L 545.929028 637.659323 
L 545.178046 638.083872 
L 544.720791 638.900595 
L 544.78588 639.977865 
L 545.308767 640.467686 
L 545.863938 640.532958 
L 546.419109 641.120968 
L 546.575103 641.698937 
L 424.612212 601.62582 
L 397.073487 513.744592 
L 380.968349 502.613766 
L 358.096334 486.415704 
L 345.444305 476.280126 
L 329.973409 468.739261 
L 334.381367 447.086809 
L 352.831964 350.763179 
L 357.776792 324.218679 
L 350.353634 323.215599 
L 355.197332 295.164823 
L 369.760166 238.783184 
L 421.513079 236.995735 
L 431.44687 235.719316 
L 478.77945 234.43898 
L 495.291278 233.715405 
L 495.517766 234.009972 
L 520.801936 233.21275 
L 543.570129 237.094486 
L 543.822412 236.827253 
L 547.172763 234.500898 
L 565.343093 231.809683 
L 622.274855 230.941063 
L 622.274855 230.941063 
" clip-path="url(#pb168db4f42)" style="fill: none; stroke: #000000"/>
   </g>
   <g id="matplotlib.axis_1">
    <g id="xtick_1">
     <g id="line2d_1">
      <path d="M 97.171334 662.236831 
L 97.171334 210.403169 
" clip-path="url(#pb168db4f42)" style="fill: none; stroke: #b0b0b0; stroke-width: 0.8; stroke-linecap: square"/>
     </g>
     <g id="line2d_2">
      <defs>
       <path id="m9ea6a3951f" d="M 0 0 
L 0 3.5 
" style="stroke: #000000; stroke-width: 0.8"/>
      </defs>
      <g>
       <use xlink:href="#m9ea6a3951f" x="97.171334" y="662.236831" style="stroke: #000000; stroke-width: 0.8"/>
      </g>
     </g>
     <g id="text_1">
      <!-- −60.25 -->
      <g transform="translate(86.038269 700.778212) rotate(-45) scale(0.1 -0.1)">
       <defs>
        <path id="DejaVuSans-2212" d="M 678 2272 
L 4684 2272 
L 4684 1741 
L 678 1741 
L 678 2272 
z
" transform="scale(0.015625)"/>
        <path id="DejaVuSans-36" d="M 2113 2584 
Q 1688 2584 1439 2293 
Q 1191 2003 1191 1497 
Q 1191 994 1439 701 
Q 1688 409 2113 409 
Q 2538 409 2786 701 
Q 3034 994 3034 1497 
Q 3034 2003 2786 2293 
Q 2538 2584 2113 2584 
z
M 3366 4563 
L 3366 3988 
Q 3128 4100 2886 4159 
Q 2644 4219 2406 4219 
Q 1781 4219 1451 3797 
Q 1122 3375 1075 2522 
Q 1259 2794 1537 2939 
Q 1816 3084 2150 3084 
Q 2853 3084 3261 2657 
Q 3669 2231 3669 1497 
Q 3669 778 3244 343 
Q 2819 -91 2113 -91 
Q 1303 -91 875 529 
Q 447 1150 447 2328 
Q 447 3434 972 4092 
Q 1497 4750 2381 4750 
Q 2619 4750 2861 4703 
Q 3103 4656 3366 4563 
z
" transform="scale(0.015625)"/>
        <path id="DejaVuSans-30" d="M 2034 4250 
Q 1547 4250 1301 3770 
Q 1056 3291 1056 2328 
Q 1056 1369 1301 889 
Q 1547 409 2034 409 
Q 2525 409 2770 889 
Q 3016 1369 3016 2328 
Q 3016 3291 2770 3770 
Q 2525 4250 2034 4250 
z
M 2034 4750 
Q 2819 4750 3233 4129 
Q 3647 3509 3647 2328 
Q 3647 1150 3233 529 
Q 2819 -91 2034 -91 
Q 1250 -91 836 529 
Q 422 1150 422 2328 
Q 422 3509 836 4129 
Q 1250 4750 2034 4750 
z
" transform="scale(0.015625)"/>
        <path id="DejaVuSans-2e" d="M 684 794 
L 1344 794 
L 1344 0 
L 684 0 
L 684 794 
z
" transform="scale(0.015625)"/>
        <path id="DejaVuSans-32" d="M 1228 531 
L 3431 531 
L 3431 0 
L 469 0 
L 469 531 
Q 828 903 1448 1529 
Q 2069 2156 2228 2338 
Q 2531 2678 2651 2914 
Q 2772 3150 2772 3378 
Q 2772 3750 2511 3984 
Q 2250 4219 1831 4219 
Q 1534 4219 1204 4116 
Q 875 4013 500 3803 
L 500 4441 
Q 881 4594 1212 4672 
Q 1544 4750 1819 4750 
Q 2544 4750 2975 4387 
Q 3406 4025 3406 3419 
Q 3406 3131 3298 2873 
Q 3191 2616 2906 2266 
Q 2828 2175 2409 1742 
Q 1991 1309 1228 531 
z
" transform="scale(0.015625)"/>
        <path id="DejaVuSans-35" d="M 691 4666 
L 3169 4666 
L 3169 4134 
L 1269 4134 
L 1269 2991 
Q 1406 3038 1543 3061 
Q 1681 3084 1819 3084 
Q 2600 3084 3056 2656 
Q 3513 2228 3513 1497 
Q 3513 744 3044 326 
Q 2575 -91 1722 -91 
Q 1428 -91 1123 -41 
Q 819 9 494 109 
L 494 744 
Q 775 591 1075 516 
Q 1375 441 1709 441 
Q 2250 441 2565 725 
Q 2881 1009 2881 1497 
Q 2881 1984 2565 2268 
Q 2250 2553 1709 2553 
Q 1456 2553 1204 2497 
Q 953 2441 691 2322 
L 691 4666 
z
" transform="scale(0.015625)"/>
       </defs>
       <use xlink:href="#DejaVuSans-2212"/>
       <use xlink:href="#DejaVuSans-36" transform="translate(83.789062 0)"/>
       <use xlink:href="#DejaVuSans-30" transform="translate(147.412109 0)"/>
       <use xlink:href="#DejaVuSans-2e" transform="translate(211.035156 0)"/>
       <use xlink:href="#DejaVuSans-32" transform="translate(242.822266 0)"/>
       <use xlink:href="#DejaVuSans-35" transform="translate(306.445312 0)"/>
      </g>
     </g>
    </g>
    <g id="xtick_2">
     <g id="line2d_3">
      <path d="M 194.002293 662.236831 
L 194.002293 210.403169 
" clip-path="url(#pb168db4f42)" style="fill: none; stroke: #b0b0b0; stroke-width: 0.8; stroke-linecap: square"/>
     </g>
     <g id="line2d_4">
      <g>
       <use xlink:href="#m9ea6a3951f" x="194.002293" y="662.236831" style="stroke: #000000; stroke-width: 0.8"/>
      </g>
     </g>
     <g id="text_2">
      <!-- −60.20 -->
      <g transform="translate(182.869228 700.778212) rotate(-45) scale(0.1 -0.1)">
       <use xlink:href="#DejaVuSans-2212"/>
       <use xlink:href="#DejaVuSans-36" transform="translate(83.789062 0)"/>
       <use xlink:href="#DejaVuSans-30" transform="translate(147.412109 0)"/>
       <use xlink:href="#DejaVuSans-2e" transform="translate(211.035156 0)"/>
       <use xlink:href="#DejaVuSans-32" transform="translate(242.822266 0)"/>
       <use xlink:href="#DejaVuSans-30" transform="translate(306.445312 0)"/>
      </g>
     </g>
    </g>
    <g id="xtick_3">
     <g id="line2d_5">
      <path d="M 290.833251 662.236831 
L 290.833251 210.403169 
" clip-path="url(#pb168db4f42)" style="fill: none; stroke: #b0b0b0; stroke-width: 0.8; stroke-linecap: square"/>
     </g>
     <g id="line2d_6">
      <g>
       <use xlink:href="#m9ea6a3951f" x="290.833251" y="662.236831" style="stroke: #000000; stroke-width: 0.8"/>
      </g>
     </g>
     <g id="text_3">
      <!-- −60.15 -->
      <g transform="translate(279.700186 700.778212) rotate(-45) scale(0.1 -0.1)">
       <defs>
        <path id="DejaVuSans-31" d="M 794 531 
L 1825 531 
L 1825 4091 
L 703 3866 
L 703 4441 
L 1819 4666 
L 2450 4666 
L 2450 531 
L 3481 531 
L 3481 0 
L 794 0 
L 794 531 
z
" transform="scale(0.015625)"/>
       </defs>
       <use xlink:href="#DejaVuSans-2212"/>
       <use xlink:href="#DejaVuSans-36" transform="translate(83.789062 0)"/>
       <use xlink:href="#DejaVuSans-30" transform="translate(147.412109 0)"/>
       <use xlink:href="#DejaVuSans-2e" transform="translate(211.035156 0)"/>
       <use xlink:href="#DejaVuSans-31" transform="translate(242.822266 0)"/>
       <use xlink:href="#DejaVuSans-35" transform="translate(306.445312 0)"/>
      </g>
     </g>
    </g>
    <g id="xtick_4">
     <g id="line2d_7">
      <path d="M 387.66421 662.236831 
L 387.66421 210.403169 
" clip-path="url(#pb168db4f42)" style="fill: none; stroke: #b0b0b0; stroke-width: 0.8; stroke-linecap: square"/>
     </g>
     <g id="line2d_8">
      <g>
       <use xlink:href="#m9ea6a3951f" x="387.66421" y="662.236831" style="stroke: #000000; stroke-width: 0.8"/>
      </g>
     </g>
     <g id="text_4">
      <!-- −60.10 -->
      <g transform="translate(376.531145 700.778212) rotate(-45) scale(0.1 -0.1)">
       <use xlink:href="#DejaVuSans-2212"/>
       <use xlink:href="#DejaVuSans-36" transform="translate(83.789062 0)"/>
       <use xlink:href="#DejaVuSans-30" transform="translate(147.412109 0)"/>
       <use xlink:href="#DejaVuSans-2e" transform="translate(211.035156 0)"/>
       <use xlink:href="#DejaVuSans-31" transform="translate(242.822266 0)"/>
       <use xlink:href="#DejaVuSans-30" transform="translate(306.445312 0)"/>
      </g>
     </g>
    </g>
    <g id="xtick_5">
     <g id="line2d_9">
      <path d="M 484.495168 662.236831 
L 484.495168 210.403169 
" clip-path="url(#pb168db4f42)" style="fill: none; stroke: #b0b0b0; stroke-width: 0.8; stroke-linecap: square"/>
     </g>
     <g id="line2d_10">
      <g>
       <use xlink:href="#m9ea6a3951f" x="484.495168" y="662.236831" style="stroke: #000000; stroke-width: 0.8"/>
      </g>
     </g>
     <g id="text_5">
      <!-- −60.05 -->
      <g transform="translate(473.362104 700.778212) rotate(-45) scale(0.1 -0.1)">
       <use xlink:href="#DejaVuSans-2212"/>
       <use xlink:href="#DejaVuSans-36" transform="translate(83.789062 0)"/>
       <use xlink:href="#DejaVuSans-30" transform="translate(147.412109 0)"/>
       <use xlink:href="#DejaVuSans-2e" transform="translate(211.035156 0)"/>
       <use xlink:href="#DejaVuSans-30" transform="translate(242.822266 0)"/>
       <use xlink:href="#DejaVuSans-35" transform="translate(306.445312 0)"/>
      </g>
     </g>
    </g>
    <g id="xtick_6">
     <g id="line2d_11">
      <path d="M 581.326127 662.236831 
L 581.326127 210.403169 
" clip-path="url(#pb168db4f42)" style="fill: none; stroke: #b0b0b0; stroke-width: 0.8; stroke-linecap: square"/>
     </g>
     <g id="line2d_12">
      <g>
       <use xlink:href="#m9ea6a3951f" x="581.326127" y="662.236831" style="stroke: #000000; stroke-width: 0.8"/>
      </g>
     </g>
     <g id="text_6">
      <!-- −60.00 -->
      <g transform="translate(570.193062 700.778212) rotate(-45) scale(0.1 -0.1)">
       <use xlink:href="#DejaVuSans-2212"/>
       <use xlink:href="#DejaVuSans-36" transform="translate(83.789062 0)"/>
       <use xlink:href="#DejaVuSans-30" transform="translate(147.412109 0)"/>
       <use xlink:href="#DejaVuSans-2e" transform="translate(211.035156 0)"/>
       <use xlink:href="#DejaVuSans-30" transform="translate(242.822266 0)"/>
       <use xlink:href="#DejaVuSans-30" transform="translate(306.445312 0)"/>
      </g>
     </g>
    </g>
    <g id="text_7">
     <!-- Longitude (°) -->
     <g transform="translate(336.139844 713.847211) scale(0.1 -0.1)">
      <defs>
       <path id="DejaVuSans-4c" d="M 628 4666 
L 1259 4666 
L 1259 531 
L 3531 531 
L 3531 0 
L 628 0 
L 628 4666 
z
" transform="scale(0.015625)"/>
       <path id="DejaVuSans-6f" d="M 1959 3097 
Q 1497 3097 1228 2736 
Q 959 2375 959 1747 
Q 959 1119 1226 758 
Q 1494 397 1959 397 
Q 2419 397 2687 759 
Q 2956 1122 2956 1747 
Q 2956 2369 2687 2733 
Q 2419 3097 1959 3097 
z
M 1959 3584 
Q 2709 3584 3137 3096 
Q 3566 2609 3566 1747 
Q 3566 888 3137 398 
Q 2709 -91 1959 -91 
Q 1206 -91 779 398 
Q 353 888 353 1747 
Q 353 2609 779 3096 
Q 1206 3584 1959 3584 
z
" transform="scale(0.015625)"/>
       <path id="DejaVuSans-6e" d="M 3513 2113 
L 3513 0 
L 2938 0 
L 2938 2094 
Q 2938 2591 2744 2837 
Q 2550 3084 2163 3084 
Q 1697 3084 1428 2787 
Q 1159 2491 1159 1978 
L 1159 0 
L 581 0 
L 581 3500 
L 1159 3500 
L 1159 2956 
Q 1366 3272 1645 3428 
Q 1925 3584 2291 3584 
Q 2894 3584 3203 3211 
Q 3513 2838 3513 2113 
z
" transform="scale(0.015625)"/>
       <path id="DejaVuSans-67" d="M 2906 1791 
Q 2906 2416 2648 2759 
Q 2391 3103 1925 3103 
Q 1463 3103 1205 2759 
Q 947 2416 947 1791 
Q 947 1169 1205 825 
Q 1463 481 1925 481 
Q 2391 481 2648 825 
Q 2906 1169 2906 1791 
z
M 3481 434 
Q 3481 -459 3084 -895 
Q 2688 -1331 1869 -1331 
Q 1566 -1331 1297 -1286 
Q 1028 -1241 775 -1147 
L 775 -588 
Q 1028 -725 1275 -790 
Q 1522 -856 1778 -856 
Q 2344 -856 2625 -561 
Q 2906 -266 2906 331 
L 2906 616 
Q 2728 306 2450 153 
Q 2172 0 1784 0 
Q 1141 0 747 490 
Q 353 981 353 1791 
Q 353 2603 747 3093 
Q 1141 3584 1784 3584 
Q 2172 3584 2450 3431 
Q 2728 3278 2906 2969 
L 2906 3500 
L 3481 3500 
L 3481 434 
z
" transform="scale(0.015625)"/>
       <path id="DejaVuSans-69" d="M 603 3500 
L 1178 3500 
L 1178 0 
L 603 0 
L 603 3500 
z
M 603 4863 
L 1178 4863 
L 1178 4134 
L 603 4134 
L 603 4863 
z
" transform="scale(0.015625)"/>
       <path id="DejaVuSans-74" d="M 1172 4494 
L 1172 3500 
L 2356 3500 
L 2356 3053 
L 1172 3053 
L 1172 1153 
Q 1172 725 1289 603 
Q 1406 481 1766 481 
L 2356 481 
L 2356 0 
L 1766 0 
Q 1100 0 847 248 
Q 594 497 594 1153 
L 594 3053 
L 172 3053 
L 172 3500 
L 594 3500 
L 594 4494 
L 1172 4494 
z
" transform="scale(0.015625)"/>
       <path id="DejaVuSans-75" d="M 544 1381 
L 544 3500 
L 1119 3500 
L 1119 1403 
Q 1119 906 1312 657 
Q 1506 409 1894 409 
Q 2359 409 2629 706 
Q 2900 1003 2900 1516 
L 2900 3500 
L 3475 3500 
L 3475 0 
L 2900 0 
L 2900 538 
Q 2691 219 2414 64 
Q 2138 -91 1772 -91 
Q 1169 -91 856 284 
Q 544 659 544 1381 
z
M 1991 3584 
L 1991 3584 
z
" transform="scale(0.015625)"/>
       <path id="DejaVuSans-64" d="M 2906 2969 
L 2906 4863 
L 3481 4863 
L 3481 0 
L 2906 0 
L 2906 525 
Q 2725 213 2448 61 
Q 2172 -91 1784 -91 
Q 1150 -91 751 415 
Q 353 922 353 1747 
Q 353 2572 751 3078 
Q 1150 3584 1784 3584 
Q 2172 3584 2448 3432 
Q 2725 3281 2906 2969 
z
M 947 1747 
Q 947 1113 1208 752 
Q 1469 391 1925 391 
Q 2381 391 2643 752 
Q 2906 1113 2906 1747 
Q 2906 2381 2643 2742 
Q 2381 3103 1925 3103 
Q 1469 3103 1208 2742 
Q 947 2381 947 1747 
z
" transform="scale(0.015625)"/>
       <path id="DejaVuSans-65" d="M 3597 1894 
L 3597 1613 
L 953 1613 
Q 991 1019 1311 708 
Q 1631 397 2203 397 
Q 2534 397 2845 478 
Q 3156 559 3463 722 
L 3463 178 
Q 3153 47 2828 -22 
Q 2503 -91 2169 -91 
Q 1331 -91 842 396 
Q 353 884 353 1716 
Q 353 2575 817 3079 
Q 1281 3584 2069 3584 
Q 2775 3584 3186 3129 
Q 3597 2675 3597 1894 
z
M 3022 2063 
Q 3016 2534 2758 2815 
Q 2500 3097 2075 3097 
Q 1594 3097 1305 2825 
Q 1016 2553 972 2059 
L 3022 2063 
z
" transform="scale(0.015625)"/>
       <path id="DejaVuSans-20" transform="scale(0.015625)"/>
       <path id="DejaVuSans-28" d="M 1984 4856 
Q 1566 4138 1362 3434 
Q 1159 2731 1159 2009 
Q 1159 1288 1364 580 
Q 1569 -128 1984 -844 
L 1484 -844 
Q 1016 -109 783 600 
Q 550 1309 550 2009 
Q 550 2706 781 3412 
Q 1013 4119 1484 4856 
L 1984 4856 
z
" transform="scale(0.015625)"/>
       <path id="DejaVuSans-b0" d="M 1600 4347 
Q 1350 4347 1178 4173 
Q 1006 4000 1006 3750 
Q 1006 3503 1178 3333 
Q 1350 3163 1600 3163 
Q 1850 3163 2022 3333 
Q 2194 3503 2194 3750 
Q 2194 3997 2020 4172 
Q 1847 4347 1600 4347 
z
M 1600 4750 
Q 1800 4750 1984 4673 
Q 2169 4597 2303 4453 
Q 2447 4313 2519 4134 
Q 2591 3956 2591 3750 
Q 2591 3338 2302 3052 
Q 2013 2766 1594 2766 
Q 1172 2766 890 3047 
Q 609 3328 609 3750 
Q 609 4169 896 4459 
Q 1184 4750 1600 4750 
z
" transform="scale(0.015625)"/>
       <path id="DejaVuSans-29" d="M 513 4856 
L 1013 4856 
Q 1481 4119 1714 3412 
Q 1947 2706 1947 2009 
Q 1947 1309 1714 600 
Q 1481 -109 1013 -844 
L 513 -844 
Q 928 -128 1133 580 
Q 1338 1288 1338 2009 
Q 1338 2731 1133 3434 
Q 928 4138 513 4856 
z
" transform="scale(0.015625)"/>
      </defs>
      <use xlink:href="#DejaVuSans-4c"/>
      <use xlink:href="#DejaVuSans-6f" transform="translate(53.962891 0)"/>
      <use xlink:href="#DejaVuSans-6e" transform="translate(115.144531 0)"/>
      <use xlink:href="#DejaVuSans-67" transform="translate(178.523438 0)"/>
      <use xlink:href="#DejaVuSans-69" transform="translate(242 0)"/>
      <use xlink:href="#DejaVuSans-74" transform="translate(269.783203 0)"/>
      <use xlink:href="#DejaVuSans-75" transform="translate(308.992188 0)"/>
      <use xlink:href="#DejaVuSans-64" transform="translate(372.371094 0)"/>
      <use xlink:href="#DejaVuSans-65" transform="translate(435.847656 0)"/>
      <use xlink:href="#DejaVuSans-20" transform="translate(497.371094 0)"/>
      <use xlink:href="#DejaVuSans-28" transform="translate(529.158203 0)"/>
      <use xlink:href="#DejaVuSans-b0" transform="translate(568.171875 0)"/>
      <use xlink:href="#DejaVuSans-29" transform="translate(618.171875 0)"/>
     </g>
    </g>
   </g>
   <g id="matplotlib.axis_2">
    <g id="ytick_1">
     <g id="line2d_13">
      <path d="M 90 614.371716 
L 648 614.371716 
" clip-path="url(#pb168db4f42)" style="fill: none; stroke: #b0b0b0; stroke-width: 0.8; stroke-linecap: square"/>
     </g>
     <g id="line2d_14">
      <defs>
       <path id="m64f653d5d3" d="M 0 0 
L -3.5 0 
" style="stroke: #000000; stroke-width: 0.8"/>
      </defs>
      <g>
       <use xlink:href="#m64f653d5d3" x="90" y="614.371716" style="stroke: #000000; stroke-width: 0.8"/>
      </g>
     </g>
     <g id="text_8">
      <!-- −15.450 -->
      <g transform="translate(39.629687 618.170935) scale(0.1 -0.1)">
       <defs>
        <path id="DejaVuSans-34" d="M 2419 4116 
L 825 1625 
L 2419 1625 
L 2419 4116 
z
M 2253 4666 
L 3047 4666 
L 3047 1625 
L 3713 1625 
L 3713 1100 
L 3047 1100 
L 3047 0 
L 2419 0 
L 2419 1100 
L 313 1100 
L 313 1709 
L 2253 4666 
z
" transform="scale(0.015625)"/>
       </defs>
       <use xlink:href="#DejaVuSans-2212"/>
       <use xlink:href="#DejaVuSans-31" transform="translate(83.789062 0)"/>
       <use xlink:href="#DejaVuSans-35" transform="translate(147.412109 0)"/>
       <use xlink:href="#DejaVuSans-2e" transform="translate(211.035156 0)"/>
       <use xlink:href="#DejaVuSans-34" transform="translate(242.822266 0)"/>
       <use xlink:href="#DejaVuSans-35" transform="translate(306.445312 0)"/>
       <use xlink:href="#DejaVuSans-30" transform="translate(370.068359 0)"/>
      </g>
     </g>
    </g>
    <g id="ytick_2">
     <g id="line2d_15">
      <path d="M 90 564.162479 
L 648 564.162479 
" clip-path="url(#pb168db4f42)" style="fill: none; stroke: #b0b0b0; stroke-width: 0.8; stroke-linecap: square"/>
     </g>
     <g id="line2d_16">
      <g>
       <use xlink:href="#m64f653d5d3" x="90" y="564.162479" style="stroke: #000000; stroke-width: 0.8"/>
      </g>
     </g>
     <g id="text_9">
      <!-- −15.425 -->
      <g transform="translate(39.629687 567.961697) scale(0.1 -0.1)">
       <use xlink:href="#DejaVuSans-2212"/>
       <use xlink:href="#DejaVuSans-31" transform="translate(83.789062 0)"/>
       <use xlink:href="#DejaVuSans-35" transform="translate(147.412109 0)"/>
       <use xlink:href="#DejaVuSans-2e" transform="translate(211.035156 0)"/>
       <use xlink:href="#DejaVuSans-34" transform="translate(242.822266 0)"/>
       <use xlink:href="#DejaVuSans-32" transform="translate(306.445312 0)"/>
       <use xlink:href="#DejaVuSans-35" transform="translate(370.068359 0)"/>
      </g>
     </g>
    </g>
    <g id="ytick_3">
     <g id="line2d_17">
      <path d="M 90 513.953241 
L 648 513.953241 
" clip-path="url(#pb168db4f42)" style="fill: none; stroke: #b0b0b0; stroke-width: 0.8; stroke-linecap: square"/>
     </g>
     <g id="line2d_18">
      <g>
       <use xlink:href="#m64f653d5d3" x="90" y="513.953241" style="stroke: #000000; stroke-width: 0.8"/>
      </g>
     </g>
     <g id="text_10">
      <!-- −15.400 -->
      <g transform="translate(39.629687 517.75246) scale(0.1 -0.1)">
       <use xlink:href="#DejaVuSans-2212"/>
       <use xlink:href="#DejaVuSans-31" transform="translate(83.789062 0)"/>
       <use xlink:href="#DejaVuSans-35" transform="translate(147.412109 0)"/>
       <use xlink:href="#DejaVuSans-2e" transform="translate(211.035156 0)"/>
       <use xlink:href="#DejaVuSans-34" transform="translate(242.822266 0)"/>
       <use xlink:href="#DejaVuSans-30" transform="translate(306.445312 0)"/>
       <use xlink:href="#DejaVuSans-30" transform="translate(370.068359 0)"/>
      </g>
     </g>
    </g>
    <g id="ytick_4">
     <g id="line2d_19">
      <path d="M 90 463.744004 
L 648 463.744004 
" clip-path="url(#pb168db4f42)" style="fill: none; stroke: #b0b0b0; stroke-width: 0.8; stroke-linecap: square"/>
     </g>
     <g id="line2d_20">
      <g>
       <use xlink:href="#m64f653d5d3" x="90" y="463.744004" style="stroke: #000000; stroke-width: 0.8"/>
      </g>
     </g>
     <g id="text_11">
      <!-- −15.375 -->
      <g transform="translate(39.629687 467.543223) scale(0.1 -0.1)">
       <defs>
        <path id="DejaVuSans-33" d="M 2597 2516 
Q 3050 2419 3304 2112 
Q 3559 1806 3559 1356 
Q 3559 666 3084 287 
Q 2609 -91 1734 -91 
Q 1441 -91 1130 -33 
Q 819 25 488 141 
L 488 750 
Q 750 597 1062 519 
Q 1375 441 1716 441 
Q 2309 441 2620 675 
Q 2931 909 2931 1356 
Q 2931 1769 2642 2001 
Q 2353 2234 1838 2234 
L 1294 2234 
L 1294 2753 
L 1863 2753 
Q 2328 2753 2575 2939 
Q 2822 3125 2822 3475 
Q 2822 3834 2567 4026 
Q 2313 4219 1838 4219 
Q 1578 4219 1281 4162 
Q 984 4106 628 3988 
L 628 4550 
Q 988 4650 1302 4700 
Q 1616 4750 1894 4750 
Q 2613 4750 3031 4423 
Q 3450 4097 3450 3541 
Q 3450 3153 3228 2886 
Q 3006 2619 2597 2516 
z
" transform="scale(0.015625)"/>
        <path id="DejaVuSans-37" d="M 525 4666 
L 3525 4666 
L 3525 4397 
L 1831 0 
L 1172 0 
L 2766 4134 
L 525 4134 
L 525 4666 
z
" transform="scale(0.015625)"/>
       </defs>
       <use xlink:href="#DejaVuSans-2212"/>
       <use xlink:href="#DejaVuSans-31" transform="translate(83.789062 0)"/>
       <use xlink:href="#DejaVuSans-35" transform="translate(147.412109 0)"/>
       <use xlink:href="#DejaVuSans-2e" transform="translate(211.035156 0)"/>
       <use xlink:href="#DejaVuSans-33" transform="translate(242.822266 0)"/>
       <use xlink:href="#DejaVuSans-37" transform="translate(306.445312 0)"/>
       <use xlink:href="#DejaVuSans-35" transform="translate(370.068359 0)"/>
      </g>
     </g>
    </g>
    <g id="ytick_5">
     <g id="line2d_21">
      <path d="M 90 413.534767 
L 648 413.534767 
" clip-path="url(#pb168db4f42)" style="fill: none; stroke: #b0b0b0; stroke-width: 0.8; stroke-linecap: square"/>
     </g>
     <g id="line2d_22">
      <g>
       <use xlink:href="#m64f653d5d3" x="90" y="413.534767" style="stroke: #000000; stroke-width: 0.8"/>
      </g>
     </g>
     <g id="text_12">
      <!-- −15.350 -->
      <g transform="translate(39.629687 417.333986) scale(0.1 -0.1)">
       <use xlink:href="#DejaVuSans-2212"/>
       <use xlink:href="#DejaVuSans-31" transform="translate(83.789062 0)"/>
       <use xlink:href="#DejaVuSans-35" transform="translate(147.412109 0)"/>
       <use xlink:href="#DejaVuSans-2e" transform="translate(211.035156 0)"/>
       <use xlink:href="#DejaVuSans-33" transform="translate(242.822266 0)"/>
       <use xlink:href="#DejaVuSans-35" transform="translate(306.445312 0)"/>
       <use xlink:href="#DejaVuSans-30" transform="translate(370.068359 0)"/>
      </g>
     </g>
    </g>
    <g id="ytick_6">
     <g id="line2d_23">
      <path d="M 90 363.32553 
L 648 363.32553 
" clip-path="url(#pb168db4f42)" style="fill: none; stroke: #b0b0b0; stroke-width: 0.8; stroke-linecap: square"/>
     </g>
     <g id="line2d_24">
      <g>
       <use xlink:href="#m64f653d5d3" x="90" y="363.32553" style="stroke: #000000; stroke-width: 0.8"/>
      </g>
     </g>
     <g id="text_13">
      <!-- −15.325 -->
      <g transform="translate(39.629687 367.124748) scale(0.1 -0.1)">
       <use xlink:href="#DejaVuSans-2212"/>
       <use xlink:href="#DejaVuSans-31" transform="translate(83.789062 0)"/>
       <use xlink:href="#DejaVuSans-35" transform="translate(147.412109 0)"/>
       <use xlink:href="#DejaVuSans-2e" transform="translate(211.035156 0)"/>
       <use xlink:href="#DejaVuSans-33" transform="translate(242.822266 0)"/>
       <use xlink:href="#DejaVuSans-32" transform="translate(306.445312 0)"/>
       <use xlink:href="#DejaVuSans-35" transform="translate(370.068359 0)"/>
      </g>
     </g>
    </g>
    <g id="ytick_7">
     <g id="line2d_25">
      <path d="M 90 313.116292 
L 648 313.116292 
" clip-path="url(#pb168db4f42)" style="fill: none; stroke: #b0b0b0; stroke-width: 0.8; stroke-linecap: square"/>
     </g>
     <g id="line2d_26">
      <g>
       <use xlink:href="#m64f653d5d3" x="90" y="313.116292" style="stroke: #000000; stroke-width: 0.8"/>
      </g>
     </g>
     <g id="text_14">
      <!-- −15.300 -->
      <g transform="translate(39.629687 316.915511) scale(0.1 -0.1)">
       <use xlink:href="#DejaVuSans-2212"/>
       <use xlink:href="#DejaVuSans-31" transform="translate(83.789062 0)"/>
       <use xlink:href="#DejaVuSans-35" transform="translate(147.412109 0)"/>
       <use xlink:href="#DejaVuSans-2e" transform="translate(211.035156 0)"/>
       <use xlink:href="#DejaVuSans-33" transform="translate(242.822266 0)"/>
       <use xlink:href="#DejaVuSans-30" transform="translate(306.445312 0)"/>
       <use xlink:href="#DejaVuSans-30" transform="translate(370.068359 0)"/>
      </g>
     </g>
    </g>
    <g id="ytick_8">
     <g id="line2d_27">
      <path d="M 90 262.907055 
L 648 262.907055 
" clip-path="url(#pb168db4f42)" style="fill: none; stroke: #b0b0b0; stroke-width: 0.8; stroke-linecap: square"/>
     </g>
     <g id="line2d_28">
      <g>
       <use xlink:href="#m64f653d5d3" x="90" y="262.907055" style="stroke: #000000; stroke-width: 0.8"/>
      </g>
     </g>
     <g id="text_15">
      <!-- −15.275 -->
      <g transform="translate(39.629687 266.706274) scale(0.1 -0.1)">
       <use xlink:href="#DejaVuSans-2212"/>
       <use xlink:href="#DejaVuSans-31" transform="translate(83.789062 0)"/>
       <use xlink:href="#DejaVuSans-35" transform="translate(147.412109 0)"/>
       <use xlink:href="#DejaVuSans-2e" transform="translate(211.035156 0)"/>
       <use xlink:href="#DejaVuSans-32" transform="translate(242.822266 0)"/>
       <use xlink:href="#DejaVuSans-37" transform="translate(306.445312 0)"/>
       <use xlink:href="#DejaVuSans-35" transform="translate(370.068359 0)"/>
      </g>
     </g>
    </g>
    <g id="ytick_9">
     <g id="line2d_29">
      <path d="M 90 212.697818 
L 648 212.697818 
" clip-path="url(#pb168db4f42)" style="fill: none; stroke: #b0b0b0; stroke-width: 0.8; stroke-linecap: square"/>
     </g>
     <g id="line2d_30">
      <g>
       <use xlink:href="#m64f653d5d3" x="90" y="212.697818" style="stroke: #000000; stroke-width: 0.8"/>
      </g>
     </g>
     <g id="text_16">
      <!-- −15.250 -->
      <g transform="translate(39.629687 216.497037) scale(0.1 -0.1)">
       <use xlink:href="#DejaVuSans-2212"/>
       <use xlink:href="#DejaVuSans-31" transform="translate(83.789062 0)"/>
       <use xlink:href="#DejaVuSans-35" transform="translate(147.412109 0)"/>
       <use xlink:href="#DejaVuSans-2e" transform="translate(211.035156 0)"/>
       <use xlink:href="#DejaVuSans-32" transform="translate(242.822266 0)"/>
       <use xlink:href="#DejaVuSans-35" transform="translate(306.445312 0)"/>
       <use xlink:href="#DejaVuSans-30" transform="translate(370.068359 0)"/>
      </g>
     </g>
    </g>
    <g id="text_17">
     <!-- Latitude (°) -->
     <g transform="translate(33.55 464.889531) rotate(-90) scale(0.1 -0.1)">
      <defs>
       <path id="DejaVuSans-61" d="M 2194 1759 
Q 1497 1759 1228 1600 
Q 959 1441 959 1056 
Q 959 750 1161 570 
Q 1363 391 1709 391 
Q 2188 391 2477 730 
Q 2766 1069 2766 1631 
L 2766 1759 
L 2194 1759 
z
M 3341 1997 
L 3341 0 
L 2766 0 
L 2766 531 
Q 2569 213 2275 61 
Q 1981 -91 1556 -91 
Q 1019 -91 701 211 
Q 384 513 384 1019 
Q 384 1609 779 1909 
Q 1175 2209 1959 2209 
L 2766 2209 
L 2766 2266 
Q 2766 2663 2505 2880 
Q 2244 3097 1772 3097 
Q 1472 3097 1187 3025 
Q 903 2953 641 2809 
L 641 3341 
Q 956 3463 1253 3523 
Q 1550 3584 1831 3584 
Q 2591 3584 2966 3190 
Q 3341 2797 3341 1997 
z
" transform="scale(0.015625)"/>
      </defs>
      <use xlink:href="#DejaVuSans-4c"/>
      <use xlink:href="#DejaVuSans-61" transform="translate(55.712891 0)"/>
      <use xlink:href="#DejaVuSans-74" transform="translate(116.992188 0)"/>
      <use xlink:href="#DejaVuSans-69" transform="translate(156.201172 0)"/>
      <use xlink:href="#DejaVuSans-74" transform="translate(183.984375 0)"/>
      <use xlink:href="#DejaVuSans-75" transform="translate(223.193359 0)"/>
      <use xlink:href="#DejaVuSans-64" transform="translate(286.572266 0)"/>
      <use xlink:href="#DejaVuSans-65" transform="translate(350.048828 0)"/>
      <use xlink:href="#DejaVuSans-20" transform="translate(411.572266 0)"/>
      <use xlink:href="#DejaVuSans-28" transform="translate(443.359375 0)"/>
      <use xlink:href="#DejaVuSans-b0" transform="translate(482.373047 0)"/>
      <use xlink:href="#DejaVuSans-29" transform="translate(532.373047 0)"/>
     </g>
    </g>
   </g>
   <g id="patch_3">
    <path d="M 90 662.236831 
L 90 210.403169 
" style="fill: none; stroke: #000000; stroke-width: 0.8; stroke-linejoin: miter; stroke-linecap: square"/>
   </g>
   <g id="patch_4">
    <path d="M 648 662.236831 
L 648 210.403169 
" style="fill: none; stroke: #000000; stroke-width: 0.8; stroke-linejoin: miter; stroke-linecap: square"/>
   </g>
   <g id="patch_5">
    <path d="M 90 662.236831 
L 648 662.236831 
" style="fill: none; stroke: #000000; stroke-width: 0.8; stroke-linejoin: miter; stroke-linecap: square"/>
   </g>
   <g id="patch_6">
    <path d="M 90 210.403169 
L 648 210.403169 
" style="fill: none; stroke: #000000; stroke-width: 0.8; stroke-linejoin: miter; stroke-linecap: square"/>
   </g>
  </g>
 </g>
 <defs>
  <clipPath id="pb168db4f42">
   <rect x="90" y="210.403169" width="558" height="451.833661"/>
  </clipPath>
 </defs>
</svg>
