<?xml version="1.0" encoding="utf-8" standalone="no"?>
<!DOCTYPE svg PUBLIC "-//W3C//DTD SVG 1.1//EN"
  "http://www.w3.org/Graphics/SVG/1.1/DTD/svg11.dtd">
<svg xmlns:xlink="http://www.w3.org/1999/xlink" width="720pt" height="864pt" viewBox="0 0 720 864" xmlns="http://www.w3.org/2000/svg" version="1.1">
 <metadata>
  <rdf:RDF xmlns:dc="http://purl.org/dc/elements/1.1/" xmlns:cc="http://creativecommons.org/ns#" xmlns:rdf="http://www.w3.org/1999/02/22-rdf-syntax-ns#">
   <cc:Work>
    <dc:type rdf:resource="http://purl.org/dc/dcmitype/StillImage"/>
    <dc:date>2025-06-16T17:43:09.455390</dc:date>
    <dc:format>image/svg+xml</dc:format>
    <dc:creator>
     <cc:Agent>
      <dc:title>Matplotlib v3.10.1, https://matplotlib.org/</dc:title>
     </cc:Agent>
    </dc:creator>
   </cc:Work>
  </rdf:RDF>
 </metadata>
 <defs>
  <style type="text/css">*{stroke-linejoin: round; stroke-linecap: butt}</style>
 </defs>
 <g id="figure_1">
  <g id="patch_1">
   <path d="M 0 864 
L 720 864 
L 720 0 
L 0 0 
z
" style="fill: #ffffff"/>
  </g>
  <g id="axes_1">
   <g id="patch_2">
    <path d="M 90 719.633583 
L 648 719.633583 
L 648 153.006417 
L 90 153.006417 
z
" style="fill: #ffffff"/>
   </g>
   <g id="PatchCollection_1">
    <path d="M 218.676668 191.855794 
L 234.010497 199.154715 
L 236.848069 197.452602 
L 251.978698 197.327491 
L 267.435349 197.585041 
L 274.095789 199.956681 
L 279.515764 203.937197 
L 281.268865 203.76061 
L 281.616236 204.121199 
L 279.551232 204.442498 
L 273.930354 200.317181 
L 267.364497 197.97256 
L 251.947993 197.70768 
L 236.916625 197.842592 
L 234.393252 199.265081 
L 241.04425 202.438687 
L 218.856222 227.320198 
L 200.061101 213.82849 
L 209.178741 206.154323 
L 211.763525 202.220426 
L 188.044479 202.492634 
L 178.473318 196.287575 
L 175.359311 195.110364 
L 176.053883 194.94605 
L 178.766252 196.003095 
L 188.172063 202.102732 
L 211.992667 201.92853 
L 218.676668 191.855794 
" clip-path="url(#p2530648aa2)" style="fill: #e0bd1f; stroke: #0000ff; stroke-width: 0.5"/>
    <path d="M 175.359311 195.110364 
L 178.473318 196.287575 
L 188.044479 202.492634 
L 211.763525 202.220426 
L 209.178741 206.154323 
L 200.061101 213.82849 
L 218.856222 227.320198 
L 241.04425 202.438687 
L 234.393252 199.265081 
L 236.916625 197.842592 
L 251.947993 197.70768 
L 267.364497 197.97256 
L 273.930354 200.317181 
L 279.551232 204.442498 
L 281.616236 204.121199 
L 274.910886 382.178791 
L 315.196997 433.741932 
L 307.312762 460.568363 
L 294.651156 501.727581 
L 268.81284 590.315 
L 386.512255 633.720834 
L 367.937681 643.277313 
L 367.11232 646.325903 
L 366.592431 647.614717 
L 352.895941 654.521176 
L 339.164068 659.149233 
L 337.876396 660.247951 
L 330.788377 662.700556 
L 325.382521 665.839903 
L 314.053496 674.507279 
L 299.369414 687.842002 
L 287.804102 693.877803 
L 278.81881 689.11245 
L 267.997658 682.049006 
L 255.867655 679.250558 
L 249.521499 673.023514 
L 239.848695 665.241453 
L 230.119159 658.491891 
L 219.876901 651.423591 
L 207.12556 643.217193 
L 194.676595 632.945798 
L 182.111783 623.770649 
L 165.601366 610.1171 
L 150.562938 603.237659 
L 142.061959 597.768346 
L 129.537379 593.552353 
L 115.363636 591.41619 
L 116.100822 589.483544 
L 119.410968 587.190397 
L 115.703863 582.937585 
L 119.415646 581.971306 
L 122.881702 574.949537 
L 121.775966 571.461961 
L 124.112726 569.867742 
L 123.467657 562.929409 
L 119.373118 559.022442 
L 123.281042 552.047291 
L 123.911822 545.6411 
L 126.480105 542.516586 
L 126.640777 538.084716 
L 123.17234 527.03334 
L 129.046007 527.229615 
L 132.091458 522.626104 
L 126.947916 515.972252 
L 129.764225 513.387208 
L 129.816194 507.72418 
L 135.751272 503.586679 
L 134.4636 495.865893 
L 131.607145 493.624309 
L 134.983381 487.58842 
L 137.662663 486.08991 
L 139.106243 471.303297 
L 135.153494 466.658111 
L 136.50734 458.620971 
L 133.752442 457.019424 
L 133.199575 461.061303 
L 130.751817 455.172686 
L 132.554591 454.125354 
L 136.561691 453.549065 
L 133.882409 448.943082 
L 137.915451 445.41136 
L 136.412842 441.239513 
L 143.569417 442.804243 
L 144.35619 437.234452 
L 141.225598 437.457657 
L 144.082053 433.49427 
L 142.846436 432.027634 
L 139.980455 434.955962 
L 138.839251 432.748635 
L 138.617168 429.648578 
L 136.100939 427.110153 
L 137.435817 422.911377 
L 134.810886 418.994609 
L 130.376122 415.48496 
L 132.70344 412.809151 
L 142.929111 412.524671 
L 142.718851 410.854431 
L 138.581784 407.489495 
L 140.096217 407.428219 
L 143.973436 408.625032 
L 144.646743 407.241744 
L 140.549909 402.893312 
L 145.92021 401.568916 
L 143.545771 398.436985 
L 147.817482 400.124353 
L 148.594814 399.231622 
L 144.644362 395.226561 
L 144.937382 394.829243 
L 147.732426 395.692572 
L 149.246943 395.187359 
L 148.084475 391.01304 
L 148.500317 387.905567 
L 147.533989 383.483586 
L 150.220331 383.017575 
L 149.161887 379.135153 
L 152.318421 376.057169 
L 152.578269 377.926068 
L 154.685801 378.399407 
L 156.325521 375.578886 
L 160.897312 378.151657 
L 162.451976 376.758569 
L 161.613148 375.782489 
L 159.007185 374.423748 
L 158.995362 372.800127 
L 163.137107 370.796404 
L 163.581272 365.327091 
L 165.582483 364.669838 
L 165.327314 363.389589 
L 163.801059 362.173087 
L 163.316661 357.005471 
L 165.695864 354.523465 
L 163.76559 351.882002 
L 164.970586 349.753168 
L 164.488571 344.634644 
L 166.376316 342.405244 
L 166.830008 337.870425 
L 170.142451 336.021215 
L 169.646316 335.138285 
L 165.655717 333.759854 
L 166.279522 330.635339 
L 164.646861 328.236682 
L 166.605544 322.706094 
L 166.475577 318.620068 
L 169.020215 318.696088 
L 169.903868 313.123825 
L 168.911513 311.605715 
L 167.290675 309.562702 
L 167.073355 308.223561 
L 165.346196 306.268841 
L 163.897938 302.734735 
L 162.359775 300.336078 
L 164.346782 298.003641 
L 168.412996 298.364229 
L 169.275385 296.289343 
L 168.070388 292.458396 
L 168.564227 287.136267 
L 165.934533 288.781961 
L 165.523454 286.660456 
L 166.570075 282.819708 
L 166.801599 275.133269 
L 166.128291 273.953585 
L 166.674014 267.596486 
L 161.676941 265.082606 
L 163.311983 261.572957 
L 162.537033 256.407814 
L 166.473196 256.258245 
L 165.301371 253.528489 
L 163.042609 252.611212 
L 163.56239 250.440704 
L 166.199144 249.680413 
L 166.6906 243.865344 
L 164.616156 241.716821 
L 167.278937 238.295466 
L 165.747918 236.438839 
L 167.283615 232.782094 
L 166.492163 231.852545 
L 162.688178 233.360855 
L 162.674059 225.777454 
L 163.122902 223.310193 
L 166.912683 223.476978 
L 166.78748 220.031077 
L 170.830049 217.88017 
L 170.17086 215.030247 
L 173.556537 216.084907 
L 175.697156 214.539779 
L 175.172612 210.309041 
L 173.825911 210.002488 
L 173.979438 208.15319 
L 173.003669 202.546581 
L 170.938666 201.482208 
L 174.284281 197.661062 
L 175.359311 195.110364 
" clip-path="url(#p2530648aa2)" style="fill: #e0bd1f; stroke: #0000ff; stroke-width: 0.5"/>
    <path d="M 294.651156 501.727581 
L 453.83683 557.514132 
L 433.524895 613.881827 
L 469.612528 628.018516 
L 467.913693 631.309904 
L 462.975734 640.676384 
L 458.16389 649.960711 
L 453.565159 658.840207 
L 417.619869 645.400993 
L 386.512255 633.720834 
L 268.81284 590.315 
L 294.651156 501.727581 
" clip-path="url(#p2530648aa2)" style="fill: #e0bd1f; stroke: #0000ff; stroke-width: 0.5"/>
    <path d="M 281.616236 204.121199 
L 333.98744 227.85234 
L 355.976945 234.643577 
L 400.255952 242.204905 
L 428.464029 254.20296 
L 443.032349 268.09437 
L 472.804446 251.191195 
L 495.280646 230.103813 
L 522.054584 233.58406 
L 564.776629 301.31463 
L 622.636364 390.228204 
L 612.394106 420.291987 
L 604.254702 441.906655 
L 603.68763 443.74112 
L 601.509246 449.725446 
L 592.80983 473.861323 
L 538.919431 626.944343 
L 517.511117 614.293891 
L 485.140031 597.866439 
L 473.064379 621.224895 
L 468.109833 630.748272 
L 462.975734 640.676384 
L 458.151155 649.986356 
L 453.565159 658.840207 
L 386.512255 633.720834 
L 268.81284 590.315 
L 294.651156 501.727581 
L 307.15915 460.38436 
L 318.840225 422.639081 
L 274.910886 382.178791 
L 281.616236 204.121199 
" clip-path="url(#p2530648aa2)" style="fill: #e0bd1f; stroke: #0000ff; stroke-width: 0.5"/>
    <path d="M 281.616236 204.121199 
L 333.98744 227.85234 
L 355.976945 234.643577 
L 400.255952 242.204905 
L 428.464029 254.20296 
L 443.032349 268.09437 
L 467.649082 305.739083 
L 274.910886 382.178791 
L 281.616236 204.121199 
" clip-path="url(#p2530648aa2)" style="fill: #e0bd1f; stroke: #0000ff; stroke-width: 0.5"/>
    <path d="M 467.649082 305.739083 
L 486.233943 314.092577 
L 503.847799 319.839042 
L 507.105891 338.836704 
L 508.582558 347.087248 
L 493.269993 341.485496 
L 473.430547 396.337553 
L 315.196997 433.741932 
L 274.910886 382.178791 
L 467.649082 305.739083 
" clip-path="url(#p2530648aa2)" style="fill: #e0bd1f; stroke: #0000ff; stroke-width: 0.5"/>
    <path d="M 473.430547 396.337553 
L 448.182949 466.312267 
L 307.312762 460.568363 
L 315.196997 433.741932 
L 473.430547 396.337553 
" clip-path="url(#p2530648aa2)" style="fill: #e0bd1f; stroke: #0000ff; stroke-width: 0.5"/>
    <path d="M 386.512255 633.720834 
L 417.619869 645.400993 
L 413.216339 654.0015 
L 400.277613 649.144713 
L 399.266244 645.622627 
L 391.569487 645.859626 
L 384.818694 643.342991 
L 383.013723 645.4177 
L 367.11232 646.325903 
L 367.937681 643.277313 
L 386.512255 633.720834 
" clip-path="url(#p2530648aa2)" style="fill: #e0bd1f; stroke: #0000ff; stroke-width: 0.5"/>
    <path d="M 493.269993 341.485496 
L 508.582558 347.087248 
L 510.212837 356.735736 
L 510.356923 357.584321 
L 512.247135 368.363401 
L 515.413111 386.431602 
L 505.742604 413.20647 
L 504.388844 416.956452 
L 498.725437 432.638269 
L 498.18201 434.139251 
L 492.518688 449.818684 
L 491.164843 453.568666 
L 486.004801 467.854923 
L 484.367462 472.384886 
L 475.620754 469.206337 
L 449.149277 542.649025 
L 423.930003 533.427258 
L 448.182949 466.312267 
L 473.430547 396.337553 
L 493.269993 341.485496 
" clip-path="url(#p2530648aa2)" style="fill: #e0bd1f; stroke: #0000ff; stroke-width: 0.5"/>
    <path d="M 462.975734 640.676384 
L 505.574757 662.098103 
L 506.289935 662.456613 
L 505.964008 663.30118 
L 504.635404 667.017966 
L 502.651045 672.432695 
L 458.16389 649.960711 
L 462.975734 640.676384 
" clip-path="url(#p2530648aa2)" style="fill: #e0bd1f; stroke: #0000ff; stroke-width: 0.5"/>
    <path d="M 517.792314 338.324163 
L 521.532421 338.863722 
L 531.264339 343.234228 
L 531.902264 343.51138 
L 532.329928 343.707567 
L 532.86621 355.470143 
L 516.620404 356.377619 
L 510.212837 356.735736 
L 508.582558 347.087248 
L 507.105891 338.836704 
L 516.738548 338.446802 
L 517.792314 338.324163 
" clip-path="url(#p2530648aa2)" style="fill: #e0bd1f; stroke: #0000ff; stroke-width: 0.5"/>
    <path d="M 564.776629 301.31463 
L 622.636364 390.228204 
L 612.394106 420.291987 
L 592.712951 414.261042 
L 596.661022 402.608832 
L 601.16196 394.736093 
L 603.678189 396.256676 
L 606.359853 392.219742 
L 610.045609 386.335981 
L 607.522236 382.303902 
L 604.954038 378.647069 
L 597.766757 382.097915 
L 593.258759 375.559285 
L 600.38701 371.904923 
L 588.762583 354.552867 
L 592.894887 351.786381 
L 561.142842 303.575903 
L 564.776629 301.31463 
" clip-path="url(#p2530648aa2)" style="fill: #e0bd1f; stroke: #0000ff; stroke-width: 0.5"/>
    <path d="M 573.49731 422.420821 
L 573.849359 422.587606 
L 595.99707 430.52418 
L 593.211467 437.332546 
L 599.397036 439.937191 
L 604.557079 442.012077 
L 603.907331 443.814757 
L 594.555871 439.878299 
L 593.336756 442.953899 
L 591.968706 446.409601 
L 601.769179 449.85303 
L 598.329066 459.194876 
L 593.074441 457.276974 
L 591.808034 456.815908 
L 587.342564 455.187343 
L 586.076241 454.723804 
L 583.838743 453.907094 
L 581.603627 453.092855 
L 580.337219 452.629317 
L 578.099806 451.812606 
L 575.864689 450.998367 
L 574.598282 450.534829 
L 572.360869 449.718118 
L 570.125752 448.90388 
L 568.856963 448.440341 
L 565.017595 447.039837 
L 568.242685 437.146159 
L 573.49731 422.420821 
" clip-path="url(#p2530648aa2)" style="fill: #e0bd1f; stroke: #0000ff; stroke-width: 0.5"/>
    <path d="M 307.312762 460.568363 
L 448.182949 466.312267 
L 423.930003 533.427258 
L 449.149277 542.649025 
L 446.299882 550.56591 
L 455.174175 553.793551 
L 453.83683 557.514132 
L 294.651156 501.727581 
L 307.312762 460.568363 
" clip-path="url(#p2530648aa2)" style="fill: #e0bd1f; stroke: #0000ff; stroke-width: 0.5"/>
    <path d="M 477.376032 178.762197 
L 477.90948 179.595441 
L 476.256849 181.434314 
L 479.774942 186.936138 
L 481.77465 185.640861 
L 484.442762 189.813445 
L 490.282733 183.317439 
L 497.392937 194.436075 
L 491.552963 200.932105 
L 501.353941 216.25819 
L 496.69777 219.760006 
L 495.576853 219.779149 
L 470.672517 220.20698 
L 471.040819 241.92735 
L 476.034302 247.966341 
L 466.059876 256.599215 
L 461.819155 261.72273 
L 459.875169 261.264542 
L 457.580963 265.829697 
L 453.884532 266.572101 
L 452.555515 270.700562 
L 447.698454 271.365068 
L 444.366396 269.898169 
L 442.770096 266.658728 
L 428.202463 253.772907 
L 406.992234 244.829103 
L 406.386041 243.072488 
L 404.337427 243.560635 
L 405.539376 241.665798 
L 403.063582 240.659912 
L 400.526979 241.670031 
L 399.704508 240.97406 
L 404.093963 234.943002 
L 406.663928 232.238657 
L 423.647492 213.324689 
L 433.000643 228.153921 
L 444.644927 215.190399 
L 466.680967 190.658196 
L 477.376032 178.762197 
" clip-path="url(#p2530648aa2)" style="fill: #e0bd1f; stroke: #0000ff; stroke-width: 0.5"/>
    <path d="M 481.715548 267.598771 
L 500.763787 285.989609 
L 503.943802 289.068643 
L 500.553254 292.331473 
L 474.365304 307.945586 
L 460.621401 279.285047 
L 481.715548 267.598771 
" clip-path="url(#p2530648aa2)" style="fill: #e0bd1f; stroke: #0000ff; stroke-width: 0.5"/>
    <path d="M 497.392937 194.436075 
L 501.871211 201.439267 
L 496.215248 205.027808 
L 498.500552 208.550155 
L 504.039658 204.830154 
L 513.8014 220.095854 
L 503.337132 223.909818 
L 496.753281 230.484831 
L 476.034302 247.966341 
L 471.040819 241.92735 
L 470.672517 220.20698 
L 495.576853 219.779149 
L 496.69777 219.760006 
L 501.353941 216.25819 
L 491.552963 200.932105 
L 497.392937 194.436075 
" clip-path="url(#p2530648aa2)" style="fill: #e0bd1f; stroke: #0000ff; stroke-width: 0.5"/>
   </g>
   <g id="PatchCollection_2">
    <path d="M 281.616236 204.121199 
L 333.98744 227.85234 
L 355.976945 234.643577 
L 400.255952 242.204905 
L 428.464029 254.20296 
L 443.032349 268.09437 
L 472.804446 251.191195 
L 495.280646 230.103813 
L 522.054584 233.58406 
L 564.776629 301.31463 
L 622.636364 390.228204 
L 612.394106 420.291987 
L 604.254702 441.906655 
L 603.68763 443.74112 
L 601.509246 449.725446 
L 592.80983 473.861323 
L 538.919431 626.944343 
L 517.511117 614.293891 
L 485.140031 597.866439 
L 473.064379 621.224895 
L 468.109833 630.748272 
L 462.975734 640.676384 
L 458.151155 649.986356 
L 453.565159 658.840207 
L 386.512255 633.720834 
L 268.81284 590.315 
L 294.651156 501.727581 
L 307.15915 460.38436 
L 318.840225 422.639081 
L 274.910886 382.178791 
L 281.616236 204.121199 
" clip-path="url(#p2530648aa2)" style="fill: none; stroke: #000000"/>
   </g>
   <g id="matplotlib.axis_1">
    <g id="xtick_1">
     <g id="line2d_1">
      <path d="M 125.234962 719.633583 
L 125.234962 153.006417 
" clip-path="url(#p2530648aa2)" style="fill: none; stroke: #b0b0b0; stroke-width: 0.8; stroke-linecap: square"/>
     </g>
     <g id="line2d_2">
      <defs>
       <path id="m96c9cb516b" d="M 0 0 
L 0 3.5 
" style="stroke: #000000; stroke-width: 0.8"/>
      </defs>
      <g>
       <use xlink:href="#m96c9cb516b" x="125.234962" y="719.633583" style="stroke: #000000; stroke-width: 0.8"/>
      </g>
     </g>
     <g id="text_1">
      <!-- −55.23 -->
      <g transform="translate(114.101897 758.174965) rotate(-45) scale(0.1 -0.1)">
       <defs>
        <path id="DejaVuSans-2212" d="M 678 2272 
L 4684 2272 
L 4684 1741 
L 678 1741 
L 678 2272 
z
" transform="scale(0.015625)"/>
        <path id="DejaVuSans-35" d="M 691 4666 
L 3169 4666 
L 3169 4134 
L 1269 4134 
L 1269 2991 
Q 1406 3038 1543 3061 
Q 1681 3084 1819 3084 
Q 2600 3084 3056 2656 
Q 3513 2228 3513 1497 
Q 3513 744 3044 326 
Q 2575 -91 1722 -91 
Q 1428 -91 1123 -41 
Q 819 9 494 109 
L 494 744 
Q 775 591 1075 516 
Q 1375 441 1709 441 
Q 2250 441 2565 725 
Q 2881 1009 2881 1497 
Q 2881 1984 2565 2268 
Q 2250 2553 1709 2553 
Q 1456 2553 1204 2497 
Q 953 2441 691 2322 
L 691 4666 
z
" transform="scale(0.015625)"/>
        <path id="DejaVuSans-2e" d="M 684 794 
L 1344 794 
L 1344 0 
L 684 0 
L 684 794 
z
" transform="scale(0.015625)"/>
        <path id="DejaVuSans-32" d="M 1228 531 
L 3431 531 
L 3431 0 
L 469 0 
L 469 531 
Q 828 903 1448 1529 
Q 2069 2156 2228 2338 
Q 2531 2678 2651 2914 
Q 2772 3150 2772 3378 
Q 2772 3750 2511 3984 
Q 2250 4219 1831 4219 
Q 1534 4219 1204 4116 
Q 875 4013 500 3803 
L 500 4441 
Q 881 4594 1212 4672 
Q 1544 4750 1819 4750 
Q 2544 4750 2975 4387 
Q 3406 4025 3406 3419 
Q 3406 3131 3298 2873 
Q 3191 2616 2906 2266 
Q 2828 2175 2409 1742 
Q 1991 1309 1228 531 
z
" transform="scale(0.015625)"/>
        <path id="DejaVuSans-33" d="M 2597 2516 
Q 3050 2419 3304 2112 
Q 3559 1806 3559 1356 
Q 3559 666 3084 287 
Q 2609 -91 1734 -91 
Q 1441 -91 1130 -33 
Q 819 25 488 141 
L 488 750 
Q 750 597 1062 519 
Q 1375 441 1716 441 
Q 2309 441 2620 675 
Q 2931 909 2931 1356 
Q 2931 1769 2642 2001 
Q 2353 2234 1838 2234 
L 1294 2234 
L 1294 2753 
L 1863 2753 
Q 2328 2753 2575 2939 
Q 2822 3125 2822 3475 
Q 2822 3834 2567 4026 
Q 2313 4219 1838 4219 
Q 1578 4219 1281 4162 
Q 984 4106 628 3988 
L 628 4550 
Q 988 4650 1302 4700 
Q 1616 4750 1894 4750 
Q 2613 4750 3031 4423 
Q 3450 4097 3450 3541 
Q 3450 3153 3228 2886 
Q 3006 2619 2597 2516 
z
" transform="scale(0.015625)"/>
       </defs>
       <use xlink:href="#DejaVuSans-2212"/>
       <use xlink:href="#DejaVuSans-35" transform="translate(83.789062 0)"/>
       <use xlink:href="#DejaVuSans-35" transform="translate(147.412109 0)"/>
       <use xlink:href="#DejaVuSans-2e" transform="translate(211.035156 0)"/>
       <use xlink:href="#DejaVuSans-32" transform="translate(242.822266 0)"/>
       <use xlink:href="#DejaVuSans-33" transform="translate(306.445312 0)"/>
      </g>
     </g>
    </g>
    <g id="xtick_2">
     <g id="line2d_3">
      <path d="M 210.291536 719.633583 
L 210.291536 153.006417 
" clip-path="url(#p2530648aa2)" style="fill: none; stroke: #b0b0b0; stroke-width: 0.8; stroke-linecap: square"/>
     </g>
     <g id="line2d_4">
      <g>
       <use xlink:href="#m96c9cb516b" x="210.291536" y="719.633583" style="stroke: #000000; stroke-width: 0.8"/>
      </g>
     </g>
     <g id="text_2">
      <!-- −55.22 -->
      <g transform="translate(199.158471 758.174965) rotate(-45) scale(0.1 -0.1)">
       <use xlink:href="#DejaVuSans-2212"/>
       <use xlink:href="#DejaVuSans-35" transform="translate(83.789062 0)"/>
       <use xlink:href="#DejaVuSans-35" transform="translate(147.412109 0)"/>
       <use xlink:href="#DejaVuSans-2e" transform="translate(211.035156 0)"/>
       <use xlink:href="#DejaVuSans-32" transform="translate(242.822266 0)"/>
       <use xlink:href="#DejaVuSans-32" transform="translate(306.445312 0)"/>
      </g>
     </g>
    </g>
    <g id="xtick_3">
     <g id="line2d_5">
      <path d="M 295.348109 719.633583 
L 295.348109 153.006417 
" clip-path="url(#p2530648aa2)" style="fill: none; stroke: #b0b0b0; stroke-width: 0.8; stroke-linecap: square"/>
     </g>
     <g id="line2d_6">
      <g>
       <use xlink:href="#m96c9cb516b" x="295.348109" y="719.633583" style="stroke: #000000; stroke-width: 0.8"/>
      </g>
     </g>
     <g id="text_3">
      <!-- −55.21 -->
      <g transform="translate(284.215045 758.174965) rotate(-45) scale(0.1 -0.1)">
       <defs>
        <path id="DejaVuSans-31" d="M 794 531 
L 1825 531 
L 1825 4091 
L 703 3866 
L 703 4441 
L 1819 4666 
L 2450 4666 
L 2450 531 
L 3481 531 
L 3481 0 
L 794 0 
L 794 531 
z
" transform="scale(0.015625)"/>
       </defs>
       <use xlink:href="#DejaVuSans-2212"/>
       <use xlink:href="#DejaVuSans-35" transform="translate(83.789062 0)"/>
       <use xlink:href="#DejaVuSans-35" transform="translate(147.412109 0)"/>
       <use xlink:href="#DejaVuSans-2e" transform="translate(211.035156 0)"/>
       <use xlink:href="#DejaVuSans-32" transform="translate(242.822266 0)"/>
       <use xlink:href="#DejaVuSans-31" transform="translate(306.445312 0)"/>
      </g>
     </g>
    </g>
    <g id="xtick_4">
     <g id="line2d_7">
      <path d="M 380.404683 719.633583 
L 380.404683 153.006417 
" clip-path="url(#p2530648aa2)" style="fill: none; stroke: #b0b0b0; stroke-width: 0.8; stroke-linecap: square"/>
     </g>
     <g id="line2d_8">
      <g>
       <use xlink:href="#m96c9cb516b" x="380.404683" y="719.633583" style="stroke: #000000; stroke-width: 0.8"/>
      </g>
     </g>
     <g id="text_4">
      <!-- −55.20 -->
      <g transform="translate(369.271618 758.174965) rotate(-45) scale(0.1 -0.1)">
       <defs>
        <path id="DejaVuSans-30" d="M 2034 4250 
Q 1547 4250 1301 3770 
Q 1056 3291 1056 2328 
Q 1056 1369 1301 889 
Q 1547 409 2034 409 
Q 2525 409 2770 889 
Q 3016 1369 3016 2328 
Q 3016 3291 2770 3770 
Q 2525 4250 2034 4250 
z
M 2034 4750 
Q 2819 4750 3233 4129 
Q 3647 3509 3647 2328 
Q 3647 1150 3233 529 
Q 2819 -91 2034 -91 
Q 1250 -91 836 529 
Q 422 1150 422 2328 
Q 422 3509 836 4129 
Q 1250 4750 2034 4750 
z
" transform="scale(0.015625)"/>
       </defs>
       <use xlink:href="#DejaVuSans-2212"/>
       <use xlink:href="#DejaVuSans-35" transform="translate(83.789062 0)"/>
       <use xlink:href="#DejaVuSans-35" transform="translate(147.412109 0)"/>
       <use xlink:href="#DejaVuSans-2e" transform="translate(211.035156 0)"/>
       <use xlink:href="#DejaVuSans-32" transform="translate(242.822266 0)"/>
       <use xlink:href="#DejaVuSans-30" transform="translate(306.445312 0)"/>
      </g>
     </g>
    </g>
    <g id="xtick_5">
     <g id="line2d_9">
      <path d="M 465.461257 719.633583 
L 465.461257 153.006417 
" clip-path="url(#p2530648aa2)" style="fill: none; stroke: #b0b0b0; stroke-width: 0.8; stroke-linecap: square"/>
     </g>
     <g id="line2d_10">
      <g>
       <use xlink:href="#m96c9cb516b" x="465.461257" y="719.633583" style="stroke: #000000; stroke-width: 0.8"/>
      </g>
     </g>
     <g id="text_5">
      <!-- −55.19 -->
      <g transform="translate(454.328192 758.174965) rotate(-45) scale(0.1 -0.1)">
       <defs>
        <path id="DejaVuSans-39" d="M 703 97 
L 703 672 
Q 941 559 1184 500 
Q 1428 441 1663 441 
Q 2288 441 2617 861 
Q 2947 1281 2994 2138 
Q 2813 1869 2534 1725 
Q 2256 1581 1919 1581 
Q 1219 1581 811 2004 
Q 403 2428 403 3163 
Q 403 3881 828 4315 
Q 1253 4750 1959 4750 
Q 2769 4750 3195 4129 
Q 3622 3509 3622 2328 
Q 3622 1225 3098 567 
Q 2575 -91 1691 -91 
Q 1453 -91 1209 -44 
Q 966 3 703 97 
z
M 1959 2075 
Q 2384 2075 2632 2365 
Q 2881 2656 2881 3163 
Q 2881 3666 2632 3958 
Q 2384 4250 1959 4250 
Q 1534 4250 1286 3958 
Q 1038 3666 1038 3163 
Q 1038 2656 1286 2365 
Q 1534 2075 1959 2075 
z
" transform="scale(0.015625)"/>
       </defs>
       <use xlink:href="#DejaVuSans-2212"/>
       <use xlink:href="#DejaVuSans-35" transform="translate(83.789062 0)"/>
       <use xlink:href="#DejaVuSans-35" transform="translate(147.412109 0)"/>
       <use xlink:href="#DejaVuSans-2e" transform="translate(211.035156 0)"/>
       <use xlink:href="#DejaVuSans-31" transform="translate(242.822266 0)"/>
       <use xlink:href="#DejaVuSans-39" transform="translate(306.445312 0)"/>
      </g>
     </g>
    </g>
    <g id="xtick_6">
     <g id="line2d_11">
      <path d="M 550.51783 719.633583 
L 550.51783 153.006417 
" clip-path="url(#p2530648aa2)" style="fill: none; stroke: #b0b0b0; stroke-width: 0.8; stroke-linecap: square"/>
     </g>
     <g id="line2d_12">
      <g>
       <use xlink:href="#m96c9cb516b" x="550.51783" y="719.633583" style="stroke: #000000; stroke-width: 0.8"/>
      </g>
     </g>
     <g id="text_6">
      <!-- −55.18 -->
      <g transform="translate(539.384766 758.174965) rotate(-45) scale(0.1 -0.1)">
       <defs>
        <path id="DejaVuSans-38" d="M 2034 2216 
Q 1584 2216 1326 1975 
Q 1069 1734 1069 1313 
Q 1069 891 1326 650 
Q 1584 409 2034 409 
Q 2484 409 2743 651 
Q 3003 894 3003 1313 
Q 3003 1734 2745 1975 
Q 2488 2216 2034 2216 
z
M 1403 2484 
Q 997 2584 770 2862 
Q 544 3141 544 3541 
Q 544 4100 942 4425 
Q 1341 4750 2034 4750 
Q 2731 4750 3128 4425 
Q 3525 4100 3525 3541 
Q 3525 3141 3298 2862 
Q 3072 2584 2669 2484 
Q 3125 2378 3379 2068 
Q 3634 1759 3634 1313 
Q 3634 634 3220 271 
Q 2806 -91 2034 -91 
Q 1263 -91 848 271 
Q 434 634 434 1313 
Q 434 1759 690 2068 
Q 947 2378 1403 2484 
z
M 1172 3481 
Q 1172 3119 1398 2916 
Q 1625 2713 2034 2713 
Q 2441 2713 2670 2916 
Q 2900 3119 2900 3481 
Q 2900 3844 2670 4047 
Q 2441 4250 2034 4250 
Q 1625 4250 1398 4047 
Q 1172 3844 1172 3481 
z
" transform="scale(0.015625)"/>
       </defs>
       <use xlink:href="#DejaVuSans-2212"/>
       <use xlink:href="#DejaVuSans-35" transform="translate(83.789062 0)"/>
       <use xlink:href="#DejaVuSans-35" transform="translate(147.412109 0)"/>
       <use xlink:href="#DejaVuSans-2e" transform="translate(211.035156 0)"/>
       <use xlink:href="#DejaVuSans-31" transform="translate(242.822266 0)"/>
       <use xlink:href="#DejaVuSans-38" transform="translate(306.445312 0)"/>
      </g>
     </g>
    </g>
    <g id="xtick_7">
     <g id="line2d_13">
      <path d="M 635.574404 719.633583 
L 635.574404 153.006417 
" clip-path="url(#p2530648aa2)" style="fill: none; stroke: #b0b0b0; stroke-width: 0.8; stroke-linecap: square"/>
     </g>
     <g id="line2d_14">
      <g>
       <use xlink:href="#m96c9cb516b" x="635.574404" y="719.633583" style="stroke: #000000; stroke-width: 0.8"/>
      </g>
     </g>
     <g id="text_7">
      <!-- −55.17 -->
      <g transform="translate(624.441339 758.174965) rotate(-45) scale(0.1 -0.1)">
       <defs>
        <path id="DejaVuSans-37" d="M 525 4666 
L 3525 4666 
L 3525 4397 
L 1831 0 
L 1172 0 
L 2766 4134 
L 525 4134 
L 525 4666 
z
" transform="scale(0.015625)"/>
       </defs>
       <use xlink:href="#DejaVuSans-2212"/>
       <use xlink:href="#DejaVuSans-35" transform="translate(83.789062 0)"/>
       <use xlink:href="#DejaVuSans-35" transform="translate(147.412109 0)"/>
       <use xlink:href="#DejaVuSans-2e" transform="translate(211.035156 0)"/>
       <use xlink:href="#DejaVuSans-31" transform="translate(242.822266 0)"/>
       <use xlink:href="#DejaVuSans-37" transform="translate(306.445312 0)"/>
      </g>
     </g>
    </g>
    <g id="text_8">
     <!-- Longitude (°) -->
     <g transform="translate(336.139844 771.243963) scale(0.1 -0.1)">
      <defs>
       <path id="DejaVuSans-4c" d="M 628 4666 
L 1259 4666 
L 1259 531 
L 3531 531 
L 3531 0 
L 628 0 
L 628 4666 
z
" transform="scale(0.015625)"/>
       <path id="DejaVuSans-6f" d="M 1959 3097 
Q 1497 3097 1228 2736 
Q 959 2375 959 1747 
Q 959 1119 1226 758 
Q 1494 397 1959 397 
Q 2419 397 2687 759 
Q 2956 1122 2956 1747 
Q 2956 2369 2687 2733 
Q 2419 3097 1959 3097 
z
M 1959 3584 
Q 2709 3584 3137 3096 
Q 3566 2609 3566 1747 
Q 3566 888 3137 398 
Q 2709 -91 1959 -91 
Q 1206 -91 779 398 
Q 353 888 353 1747 
Q 353 2609 779 3096 
Q 1206 3584 1959 3584 
z
" transform="scale(0.015625)"/>
       <path id="DejaVuSans-6e" d="M 3513 2113 
L 3513 0 
L 2938 0 
L 2938 2094 
Q 2938 2591 2744 2837 
Q 2550 3084 2163 3084 
Q 1697 3084 1428 2787 
Q 1159 2491 1159 1978 
L 1159 0 
L 581 0 
L 581 3500 
L 1159 3500 
L 1159 2956 
Q 1366 3272 1645 3428 
Q 1925 3584 2291 3584 
Q 2894 3584 3203 3211 
Q 3513 2838 3513 2113 
z
" transform="scale(0.015625)"/>
       <path id="DejaVuSans-67" d="M 2906 1791 
Q 2906 2416 2648 2759 
Q 2391 3103 1925 3103 
Q 1463 3103 1205 2759 
Q 947 2416 947 1791 
Q 947 1169 1205 825 
Q 1463 481 1925 481 
Q 2391 481 2648 825 
Q 2906 1169 2906 1791 
z
M 3481 434 
Q 3481 -459 3084 -895 
Q 2688 -1331 1869 -1331 
Q 1566 -1331 1297 -1286 
Q 1028 -1241 775 -1147 
L 775 -588 
Q 1028 -725 1275 -790 
Q 1522 -856 1778 -856 
Q 2344 -856 2625 -561 
Q 2906 -266 2906 331 
L 2906 616 
Q 2728 306 2450 153 
Q 2172 0 1784 0 
Q 1141 0 747 490 
Q 353 981 353 1791 
Q 353 2603 747 3093 
Q 1141 3584 1784 3584 
Q 2172 3584 2450 3431 
Q 2728 3278 2906 2969 
L 2906 3500 
L 3481 3500 
L 3481 434 
z
" transform="scale(0.015625)"/>
       <path id="DejaVuSans-69" d="M 603 3500 
L 1178 3500 
L 1178 0 
L 603 0 
L 603 3500 
z
M 603 4863 
L 1178 4863 
L 1178 4134 
L 603 4134 
L 603 4863 
z
" transform="scale(0.015625)"/>
       <path id="DejaVuSans-74" d="M 1172 4494 
L 1172 3500 
L 2356 3500 
L 2356 3053 
L 1172 3053 
L 1172 1153 
Q 1172 725 1289 603 
Q 1406 481 1766 481 
L 2356 481 
L 2356 0 
L 1766 0 
Q 1100 0 847 248 
Q 594 497 594 1153 
L 594 3053 
L 172 3053 
L 172 3500 
L 594 3500 
L 594 4494 
L 1172 4494 
z
" transform="scale(0.015625)"/>
       <path id="DejaVuSans-75" d="M 544 1381 
L 544 3500 
L 1119 3500 
L 1119 1403 
Q 1119 906 1312 657 
Q 1506 409 1894 409 
Q 2359 409 2629 706 
Q 2900 1003 2900 1516 
L 2900 3500 
L 3475 3500 
L 3475 0 
L 2900 0 
L 2900 538 
Q 2691 219 2414 64 
Q 2138 -91 1772 -91 
Q 1169 -91 856 284 
Q 544 659 544 1381 
z
M 1991 3584 
L 1991 3584 
z
" transform="scale(0.015625)"/>
       <path id="DejaVuSans-64" d="M 2906 2969 
L 2906 4863 
L 3481 4863 
L 3481 0 
L 2906 0 
L 2906 525 
Q 2725 213 2448 61 
Q 2172 -91 1784 -91 
Q 1150 -91 751 415 
Q 353 922 353 1747 
Q 353 2572 751 3078 
Q 1150 3584 1784 3584 
Q 2172 3584 2448 3432 
Q 2725 3281 2906 2969 
z
M 947 1747 
Q 947 1113 1208 752 
Q 1469 391 1925 391 
Q 2381 391 2643 752 
Q 2906 1113 2906 1747 
Q 2906 2381 2643 2742 
Q 2381 3103 1925 3103 
Q 1469 3103 1208 2742 
Q 947 2381 947 1747 
z
" transform="scale(0.015625)"/>
       <path id="DejaVuSans-65" d="M 3597 1894 
L 3597 1613 
L 953 1613 
Q 991 1019 1311 708 
Q 1631 397 2203 397 
Q 2534 397 2845 478 
Q 3156 559 3463 722 
L 3463 178 
Q 3153 47 2828 -22 
Q 2503 -91 2169 -91 
Q 1331 -91 842 396 
Q 353 884 353 1716 
Q 353 2575 817 3079 
Q 1281 3584 2069 3584 
Q 2775 3584 3186 3129 
Q 3597 2675 3597 1894 
z
M 3022 2063 
Q 3016 2534 2758 2815 
Q 2500 3097 2075 3097 
Q 1594 3097 1305 2825 
Q 1016 2553 972 2059 
L 3022 2063 
z
" transform="scale(0.015625)"/>
       <path id="DejaVuSans-20" transform="scale(0.015625)"/>
       <path id="DejaVuSans-28" d="M 1984 4856 
Q 1566 4138 1362 3434 
Q 1159 2731 1159 2009 
Q 1159 1288 1364 580 
Q 1569 -128 1984 -844 
L 1484 -844 
Q 1016 -109 783 600 
Q 550 1309 550 2009 
Q 550 2706 781 3412 
Q 1013 4119 1484 4856 
L 1984 4856 
z
" transform="scale(0.015625)"/>
       <path id="DejaVuSans-b0" d="M 1600 4347 
Q 1350 4347 1178 4173 
Q 1006 4000 1006 3750 
Q 1006 3503 1178 3333 
Q 1350 3163 1600 3163 
Q 1850 3163 2022 3333 
Q 2194 3503 2194 3750 
Q 2194 3997 2020 4172 
Q 1847 4347 1600 4347 
z
M 1600 4750 
Q 1800 4750 1984 4673 
Q 2169 4597 2303 4453 
Q 2447 4313 2519 4134 
Q 2591 3956 2591 3750 
Q 2591 3338 2302 3052 
Q 2013 2766 1594 2766 
Q 1172 2766 890 3047 
Q 609 3328 609 3750 
Q 609 4169 896 4459 
Q 1184 4750 1600 4750 
z
" transform="scale(0.015625)"/>
       <path id="DejaVuSans-29" d="M 513 4856 
L 1013 4856 
Q 1481 4119 1714 3412 
Q 1947 2706 1947 2009 
Q 1947 1309 1714 600 
Q 1481 -109 1013 -844 
L 513 -844 
Q 928 -128 1133 580 
Q 1338 1288 1338 2009 
Q 1338 2731 1133 3434 
Q 928 4138 513 4856 
z
" transform="scale(0.015625)"/>
      </defs>
      <use xlink:href="#DejaVuSans-4c"/>
      <use xlink:href="#DejaVuSans-6f" transform="translate(53.962891 0)"/>
      <use xlink:href="#DejaVuSans-6e" transform="translate(115.144531 0)"/>
      <use xlink:href="#DejaVuSans-67" transform="translate(178.523438 0)"/>
      <use xlink:href="#DejaVuSans-69" transform="translate(242 0)"/>
      <use xlink:href="#DejaVuSans-74" transform="translate(269.783203 0)"/>
      <use xlink:href="#DejaVuSans-75" transform="translate(308.992188 0)"/>
      <use xlink:href="#DejaVuSans-64" transform="translate(372.371094 0)"/>
      <use xlink:href="#DejaVuSans-65" transform="translate(435.847656 0)"/>
      <use xlink:href="#DejaVuSans-20" transform="translate(497.371094 0)"/>
      <use xlink:href="#DejaVuSans-28" transform="translate(529.158203 0)"/>
      <use xlink:href="#DejaVuSans-b0" transform="translate(568.171875 0)"/>
      <use xlink:href="#DejaVuSans-29" transform="translate(618.171875 0)"/>
     </g>
    </g>
   </g>
   <g id="matplotlib.axis_2">
    <g id="ytick_1">
     <g id="line2d_15">
      <path d="M 90 684.773818 
L 648 684.773818 
" clip-path="url(#p2530648aa2)" style="fill: none; stroke: #b0b0b0; stroke-width: 0.8; stroke-linecap: square"/>
     </g>
     <g id="line2d_16">
      <defs>
       <path id="m4fb51de0e4" d="M 0 0 
L -3.5 0 
" style="stroke: #000000; stroke-width: 0.8"/>
      </defs>
      <g>
       <use xlink:href="#m4fb51de0e4" x="90" y="684.773818" style="stroke: #000000; stroke-width: 0.8"/>
      </g>
     </g>
     <g id="text_9">
      <!-- −15.59 -->
      <g transform="translate(45.992188 688.573037) scale(0.1 -0.1)">
       <use xlink:href="#DejaVuSans-2212"/>
       <use xlink:href="#DejaVuSans-31" transform="translate(83.789062 0)"/>
       <use xlink:href="#DejaVuSans-35" transform="translate(147.412109 0)"/>
       <use xlink:href="#DejaVuSans-2e" transform="translate(211.035156 0)"/>
       <use xlink:href="#DejaVuSans-35" transform="translate(242.822266 0)"/>
       <use xlink:href="#DejaVuSans-39" transform="translate(306.445312 0)"/>
      </g>
     </g>
    </g>
    <g id="ytick_2">
     <g id="line2d_17">
      <path d="M 90 596.480768 
L 648 596.480768 
" clip-path="url(#p2530648aa2)" style="fill: none; stroke: #b0b0b0; stroke-width: 0.8; stroke-linecap: square"/>
     </g>
     <g id="line2d_18">
      <g>
       <use xlink:href="#m4fb51de0e4" x="90" y="596.480768" style="stroke: #000000; stroke-width: 0.8"/>
      </g>
     </g>
     <g id="text_10">
      <!-- −15.58 -->
      <g transform="translate(45.992188 600.279987) scale(0.1 -0.1)">
       <use xlink:href="#DejaVuSans-2212"/>
       <use xlink:href="#DejaVuSans-31" transform="translate(83.789062 0)"/>
       <use xlink:href="#DejaVuSans-35" transform="translate(147.412109 0)"/>
       <use xlink:href="#DejaVuSans-2e" transform="translate(211.035156 0)"/>
       <use xlink:href="#DejaVuSans-35" transform="translate(242.822266 0)"/>
       <use xlink:href="#DejaVuSans-38" transform="translate(306.445312 0)"/>
      </g>
     </g>
    </g>
    <g id="ytick_3">
     <g id="line2d_19">
      <path d="M 90 508.187718 
L 648 508.187718 
" clip-path="url(#p2530648aa2)" style="fill: none; stroke: #b0b0b0; stroke-width: 0.8; stroke-linecap: square"/>
     </g>
     <g id="line2d_20">
      <g>
       <use xlink:href="#m4fb51de0e4" x="90" y="508.187718" style="stroke: #000000; stroke-width: 0.8"/>
      </g>
     </g>
     <g id="text_11">
      <!-- −15.57 -->
      <g transform="translate(45.992188 511.986937) scale(0.1 -0.1)">
       <use xlink:href="#DejaVuSans-2212"/>
       <use xlink:href="#DejaVuSans-31" transform="translate(83.789062 0)"/>
       <use xlink:href="#DejaVuSans-35" transform="translate(147.412109 0)"/>
       <use xlink:href="#DejaVuSans-2e" transform="translate(211.035156 0)"/>
       <use xlink:href="#DejaVuSans-35" transform="translate(242.822266 0)"/>
       <use xlink:href="#DejaVuSans-37" transform="translate(306.445312 0)"/>
      </g>
     </g>
    </g>
    <g id="ytick_4">
     <g id="line2d_21">
      <path d="M 90 419.894668 
L 648 419.894668 
" clip-path="url(#p2530648aa2)" style="fill: none; stroke: #b0b0b0; stroke-width: 0.8; stroke-linecap: square"/>
     </g>
     <g id="line2d_22">
      <g>
       <use xlink:href="#m4fb51de0e4" x="90" y="419.894668" style="stroke: #000000; stroke-width: 0.8"/>
      </g>
     </g>
     <g id="text_12">
      <!-- −15.56 -->
      <g transform="translate(45.992188 423.693887) scale(0.1 -0.1)">
       <defs>
        <path id="DejaVuSans-36" d="M 2113 2584 
Q 1688 2584 1439 2293 
Q 1191 2003 1191 1497 
Q 1191 994 1439 701 
Q 1688 409 2113 409 
Q 2538 409 2786 701 
Q 3034 994 3034 1497 
Q 3034 2003 2786 2293 
Q 2538 2584 2113 2584 
z
M 3366 4563 
L 3366 3988 
Q 3128 4100 2886 4159 
Q 2644 4219 2406 4219 
Q 1781 4219 1451 3797 
Q 1122 3375 1075 2522 
Q 1259 2794 1537 2939 
Q 1816 3084 2150 3084 
Q 2853 3084 3261 2657 
Q 3669 2231 3669 1497 
Q 3669 778 3244 343 
Q 2819 -91 2113 -91 
Q 1303 -91 875 529 
Q 447 1150 447 2328 
Q 447 3434 972 4092 
Q 1497 4750 2381 4750 
Q 2619 4750 2861 4703 
Q 3103 4656 3366 4563 
z
" transform="scale(0.015625)"/>
       </defs>
       <use xlink:href="#DejaVuSans-2212"/>
       <use xlink:href="#DejaVuSans-31" transform="translate(83.789062 0)"/>
       <use xlink:href="#DejaVuSans-35" transform="translate(147.412109 0)"/>
       <use xlink:href="#DejaVuSans-2e" transform="translate(211.035156 0)"/>
       <use xlink:href="#DejaVuSans-35" transform="translate(242.822266 0)"/>
       <use xlink:href="#DejaVuSans-36" transform="translate(306.445312 0)"/>
      </g>
     </g>
    </g>
    <g id="ytick_5">
     <g id="line2d_23">
      <path d="M 90 331.601618 
L 648 331.601618 
" clip-path="url(#p2530648aa2)" style="fill: none; stroke: #b0b0b0; stroke-width: 0.8; stroke-linecap: square"/>
     </g>
     <g id="line2d_24">
      <g>
       <use xlink:href="#m4fb51de0e4" x="90" y="331.601618" style="stroke: #000000; stroke-width: 0.8"/>
      </g>
     </g>
     <g id="text_13">
      <!-- −15.55 -->
      <g transform="translate(45.992188 335.400837) scale(0.1 -0.1)">
       <use xlink:href="#DejaVuSans-2212"/>
       <use xlink:href="#DejaVuSans-31" transform="translate(83.789062 0)"/>
       <use xlink:href="#DejaVuSans-35" transform="translate(147.412109 0)"/>
       <use xlink:href="#DejaVuSans-2e" transform="translate(211.035156 0)"/>
       <use xlink:href="#DejaVuSans-35" transform="translate(242.822266 0)"/>
       <use xlink:href="#DejaVuSans-35" transform="translate(306.445312 0)"/>
      </g>
     </g>
    </g>
    <g id="ytick_6">
     <g id="line2d_25">
      <path d="M 90 243.308568 
L 648 243.308568 
" clip-path="url(#p2530648aa2)" style="fill: none; stroke: #b0b0b0; stroke-width: 0.8; stroke-linecap: square"/>
     </g>
     <g id="line2d_26">
      <g>
       <use xlink:href="#m4fb51de0e4" x="90" y="243.308568" style="stroke: #000000; stroke-width: 0.8"/>
      </g>
     </g>
     <g id="text_14">
      <!-- −15.54 -->
      <g transform="translate(45.992188 247.107787) scale(0.1 -0.1)">
       <defs>
        <path id="DejaVuSans-34" d="M 2419 4116 
L 825 1625 
L 2419 1625 
L 2419 4116 
z
M 2253 4666 
L 3047 4666 
L 3047 1625 
L 3713 1625 
L 3713 1100 
L 3047 1100 
L 3047 0 
L 2419 0 
L 2419 1100 
L 313 1100 
L 313 1709 
L 2253 4666 
z
" transform="scale(0.015625)"/>
       </defs>
       <use xlink:href="#DejaVuSans-2212"/>
       <use xlink:href="#DejaVuSans-31" transform="translate(83.789062 0)"/>
       <use xlink:href="#DejaVuSans-35" transform="translate(147.412109 0)"/>
       <use xlink:href="#DejaVuSans-2e" transform="translate(211.035156 0)"/>
       <use xlink:href="#DejaVuSans-35" transform="translate(242.822266 0)"/>
       <use xlink:href="#DejaVuSans-34" transform="translate(306.445312 0)"/>
      </g>
     </g>
    </g>
    <g id="ytick_7">
     <g id="line2d_27">
      <path d="M 90 155.015519 
L 648 155.015519 
" clip-path="url(#p2530648aa2)" style="fill: none; stroke: #b0b0b0; stroke-width: 0.8; stroke-linecap: square"/>
     </g>
     <g id="line2d_28">
      <g>
       <use xlink:href="#m4fb51de0e4" x="90" y="155.015519" style="stroke: #000000; stroke-width: 0.8"/>
      </g>
     </g>
     <g id="text_15">
      <!-- −15.53 -->
      <g transform="translate(45.992188 158.814737) scale(0.1 -0.1)">
       <use xlink:href="#DejaVuSans-2212"/>
       <use xlink:href="#DejaVuSans-31" transform="translate(83.789062 0)"/>
       <use xlink:href="#DejaVuSans-35" transform="translate(147.412109 0)"/>
       <use xlink:href="#DejaVuSans-2e" transform="translate(211.035156 0)"/>
       <use xlink:href="#DejaVuSans-35" transform="translate(242.822266 0)"/>
       <use xlink:href="#DejaVuSans-33" transform="translate(306.445312 0)"/>
      </g>
     </g>
    </g>
    <g id="text_16">
     <!-- Latitude (°) -->
     <g transform="translate(39.9125 464.889531) rotate(-90) scale(0.1 -0.1)">
      <defs>
       <path id="DejaVuSans-61" d="M 2194 1759 
Q 1497 1759 1228 1600 
Q 959 1441 959 1056 
Q 959 750 1161 570 
Q 1363 391 1709 391 
Q 2188 391 2477 730 
Q 2766 1069 2766 1631 
L 2766 1759 
L 2194 1759 
z
M 3341 1997 
L 3341 0 
L 2766 0 
L 2766 531 
Q 2569 213 2275 61 
Q 1981 -91 1556 -91 
Q 1019 -91 701 211 
Q 384 513 384 1019 
Q 384 1609 779 1909 
Q 1175 2209 1959 2209 
L 2766 2209 
L 2766 2266 
Q 2766 2663 2505 2880 
Q 2244 3097 1772 3097 
Q 1472 3097 1187 3025 
Q 903 2953 641 2809 
L 641 3341 
Q 956 3463 1253 3523 
Q 1550 3584 1831 3584 
Q 2591 3584 2966 3190 
Q 3341 2797 3341 1997 
z
" transform="scale(0.015625)"/>
      </defs>
      <use xlink:href="#DejaVuSans-4c"/>
      <use xlink:href="#DejaVuSans-61" transform="translate(55.712891 0)"/>
      <use xlink:href="#DejaVuSans-74" transform="translate(116.992188 0)"/>
      <use xlink:href="#DejaVuSans-69" transform="translate(156.201172 0)"/>
      <use xlink:href="#DejaVuSans-74" transform="translate(183.984375 0)"/>
      <use xlink:href="#DejaVuSans-75" transform="translate(223.193359 0)"/>
      <use xlink:href="#DejaVuSans-64" transform="translate(286.572266 0)"/>
      <use xlink:href="#DejaVuSans-65" transform="translate(350.048828 0)"/>
      <use xlink:href="#DejaVuSans-20" transform="translate(411.572266 0)"/>
      <use xlink:href="#DejaVuSans-28" transform="translate(443.359375 0)"/>
      <use xlink:href="#DejaVuSans-b0" transform="translate(482.373047 0)"/>
      <use xlink:href="#DejaVuSans-29" transform="translate(532.373047 0)"/>
     </g>
    </g>
   </g>
   <g id="patch_3">
    <path d="M 90 719.633583 
L 90 153.006417 
" style="fill: none; stroke: #000000; stroke-width: 0.8; stroke-linejoin: miter; stroke-linecap: square"/>
   </g>
   <g id="patch_4">
    <path d="M 648 719.633583 
L 648 153.006417 
" style="fill: none; stroke: #000000; stroke-width: 0.8; stroke-linejoin: miter; stroke-linecap: square"/>
   </g>
   <g id="patch_5">
    <path d="M 90 719.633583 
L 648 719.633583 
" style="fill: none; stroke: #000000; stroke-width: 0.8; stroke-linejoin: miter; stroke-linecap: square"/>
   </g>
   <g id="patch_6">
    <path d="M 90 153.006417 
L 648 153.006417 
" style="fill: none; stroke: #000000; stroke-width: 0.8; stroke-linejoin: miter; stroke-linecap: square"/>
   </g>
   <g id="legend_1">
    <g id="patch_7">
     <path d="M 279.8375 872.250891 
L 458.1625 872.250891 
Q 460.1625 872.250891 460.1625 870.250891 
L 460.1625 839.959016 
Q 460.1625 837.959016 458.1625 837.959016 
L 279.8375 837.959016 
Q 277.8375 837.959016 277.8375 839.959016 
L 277.8375 870.250891 
Q 277.8375 872.250891 279.8375 872.250891 
z
" style="fill: #ffffff; opacity: 0.8; stroke: #cccccc; stroke-linejoin: miter"/>
    </g>
    <g id="text_17">
     <!-- Legenda -->
     <g transform="translate(343.280625 851.077141) scale(0.12 -0.12)">
      <use xlink:href="#DejaVuSans-4c"/>
      <use xlink:href="#DejaVuSans-65" transform="translate(53.962891 0)"/>
      <use xlink:href="#DejaVuSans-67" transform="translate(115.486328 0)"/>
      <use xlink:href="#DejaVuSans-65" transform="translate(178.962891 0)"/>
      <use xlink:href="#DejaVuSans-6e" transform="translate(240.486328 0)"/>
      <use xlink:href="#DejaVuSans-64" transform="translate(303.865234 0)"/>
      <use xlink:href="#DejaVuSans-61" transform="translate(367.341797 0)"/>
     </g>
    </g>
    <g id="patch_8">
     <path d="M 301.8375 865 
L 301.8375 859.171204 
L 281.8375 859.171204 
L 281.8375 865 
" style="fill: none; stroke: #000000; stroke-linejoin: miter"/>
    </g>
    <g id="text_18">
     <!-- Gleba Federal -->
     <g transform="translate(309.8375 866.171204) scale(0.1 -0.1)">
      <defs>
       <path id="DejaVuSans-47" d="M 3809 666 
L 3809 1919 
L 2778 1919 
L 2778 2438 
L 4434 2438 
L 4434 434 
Q 4069 175 3628 42 
Q 3188 -91 2688 -91 
Q 1594 -91 976 548 
Q 359 1188 359 2328 
Q 359 3472 976 4111 
Q 1594 4750 2688 4750 
Q 3144 4750 3555 4637 
Q 3966 4525 4313 4306 
L 4313 3634 
Q 3963 3931 3569 4081 
Q 3175 4231 2741 4231 
Q 1884 4231 1454 3753 
Q 1025 3275 1025 2328 
Q 1025 1384 1454 906 
Q 1884 428 2741 428 
Q 3075 428 3337 486 
Q 3600 544 3809 666 
z
" transform="scale(0.015625)"/>
       <path id="DejaVuSans-6c" d="M 603 4863 
L 1178 4863 
L 1178 0 
L 603 0 
L 603 4863 
z
" transform="scale(0.015625)"/>
       <path id="DejaVuSans-62" d="M 3116 1747 
Q 3116 2381 2855 2742 
Q 2594 3103 2138 3103 
Q 1681 3103 1420 2742 
Q 1159 2381 1159 1747 
Q 1159 1113 1420 752 
Q 1681 391 2138 391 
Q 2594 391 2855 752 
Q 3116 1113 3116 1747 
z
M 1159 2969 
Q 1341 3281 1617 3432 
Q 1894 3584 2278 3584 
Q 2916 3584 3314 3078 
Q 3713 2572 3713 1747 
Q 3713 922 3314 415 
Q 2916 -91 2278 -91 
Q 1894 -91 1617 61 
Q 1341 213 1159 525 
L 1159 0 
L 581 0 
L 581 4863 
L 1159 4863 
L 1159 2969 
z
" transform="scale(0.015625)"/>
       <path id="DejaVuSans-46" d="M 628 4666 
L 3309 4666 
L 3309 4134 
L 1259 4134 
L 1259 2759 
L 3109 2759 
L 3109 2228 
L 1259 2228 
L 1259 0 
L 628 0 
L 628 4666 
z
" transform="scale(0.015625)"/>
       <path id="DejaVuSans-72" d="M 2631 2963 
Q 2534 3019 2420 3045 
Q 2306 3072 2169 3072 
Q 1681 3072 1420 2755 
Q 1159 2438 1159 1844 
L 1159 0 
L 581 0 
L 581 3500 
L 1159 3500 
L 1159 2956 
Q 1341 3275 1631 3429 
Q 1922 3584 2338 3584 
Q 2397 3584 2469 3576 
Q 2541 3569 2628 3553 
L 2631 2963 
z
" transform="scale(0.015625)"/>
      </defs>
      <use xlink:href="#DejaVuSans-47"/>
      <use xlink:href="#DejaVuSans-6c" transform="translate(77.490234 0)"/>
      <use xlink:href="#DejaVuSans-65" transform="translate(105.273438 0)"/>
      <use xlink:href="#DejaVuSans-62" transform="translate(166.796875 0)"/>
      <use xlink:href="#DejaVuSans-61" transform="translate(230.273438 0)"/>
      <use xlink:href="#DejaVuSans-20" transform="translate(291.552734 0)"/>
      <use xlink:href="#DejaVuSans-46" transform="translate(323.339844 0)"/>
      <use xlink:href="#DejaVuSans-65" transform="translate(375.359375 0)"/>
      <use xlink:href="#DejaVuSans-64" transform="translate(436.882812 0)"/>
      <use xlink:href="#DejaVuSans-65" transform="translate(500.359375 0)"/>
      <use xlink:href="#DejaVuSans-72" transform="translate(561.882812 0)"/>
      <use xlink:href="#DejaVuSans-61" transform="translate(602.996094 0)"/>
      <use xlink:href="#DejaVuSans-6c" transform="translate(664.275391 0)"/>
     </g>
    </g>
    <g id="patch_9">
     <path d="M 399.045312 866.171204 
L 419.045312 866.171204 
L 419.045312 859.171204 
L 399.045312 859.171204 
z
" style="fill: #e0bd1f; opacity: 0.6"/>
    </g>
    <g id="text_19">
     <!-- SIGEF -->
     <g transform="translate(427.045312 866.171204) scale(0.1 -0.1)">
      <defs>
       <path id="DejaVuSans-53" d="M 3425 4513 
L 3425 3897 
Q 3066 4069 2747 4153 
Q 2428 4238 2131 4238 
Q 1616 4238 1336 4038 
Q 1056 3838 1056 3469 
Q 1056 3159 1242 3001 
Q 1428 2844 1947 2747 
L 2328 2669 
Q 3034 2534 3370 2195 
Q 3706 1856 3706 1288 
Q 3706 609 3251 259 
Q 2797 -91 1919 -91 
Q 1588 -91 1214 -16 
Q 841 59 441 206 
L 441 856 
Q 825 641 1194 531 
Q 1563 422 1919 422 
Q 2459 422 2753 634 
Q 3047 847 3047 1241 
Q 3047 1584 2836 1778 
Q 2625 1972 2144 2069 
L 1759 2144 
Q 1053 2284 737 2584 
Q 422 2884 422 3419 
Q 422 4038 858 4394 
Q 1294 4750 2059 4750 
Q 2388 4750 2728 4690 
Q 3069 4631 3425 4513 
z
" transform="scale(0.015625)"/>
       <path id="DejaVuSans-49" d="M 628 4666 
L 1259 4666 
L 1259 0 
L 628 0 
L 628 4666 
z
" transform="scale(0.015625)"/>
       <path id="DejaVuSans-45" d="M 628 4666 
L 3578 4666 
L 3578 4134 
L 1259 4134 
L 1259 2753 
L 3481 2753 
L 3481 2222 
L 1259 2222 
L 1259 531 
L 3634 531 
L 3634 0 
L 628 0 
L 628 4666 
z
" transform="scale(0.015625)"/>
      </defs>
      <use xlink:href="#DejaVuSans-53"/>
      <use xlink:href="#DejaVuSans-49" transform="translate(63.476562 0)"/>
      <use xlink:href="#DejaVuSans-47" transform="translate(92.96875 0)"/>
      <use xlink:href="#DejaVuSans-45" transform="translate(170.458984 0)"/>
      <use xlink:href="#DejaVuSans-46" transform="translate(233.642578 0)"/>
     </g>
    </g>
   </g>
  </g>
 </g>
 <defs>
  <clipPath id="p2530648aa2">
   <rect x="90" y="153.006417" width="558" height="566.627166"/>
  </clipPath>
 </defs>
</svg>
