<?xml version="1.0" encoding="utf-8" standalone="no"?>
<!DOCTYPE svg PUBLIC "-//W3C//DTD SVG 1.1//EN"
  "http://www.w3.org/Graphics/SVG/1.1/DTD/svg11.dtd">
<svg xmlns:xlink="http://www.w3.org/1999/xlink" width="720pt" height="864pt" viewBox="0 0 720 864" xmlns="http://www.w3.org/2000/svg" version="1.1">
 <metadata>
  <rdf:RDF xmlns:dc="http://purl.org/dc/elements/1.1/" xmlns:cc="http://creativecommons.org/ns#" xmlns:rdf="http://www.w3.org/1999/02/22-rdf-syntax-ns#">
   <cc:Work>
    <dc:type rdf:resource="http://purl.org/dc/dcmitype/StillImage"/>
    <dc:date>2025-06-16T17:43:47.699091</dc:date>
    <dc:format>image/svg+xml</dc:format>
    <dc:creator>
     <cc:Agent>
      <dc:title>Matplotlib v3.10.1, https://matplotlib.org/</dc:title>
     </cc:Agent>
    </dc:creator>
   </cc:Work>
  </rdf:RDF>
 </metadata>
 <defs>
  <style type="text/css">*{stroke-linejoin: round; stroke-linecap: butt}</style>
 </defs>
 <g id="figure_1">
  <g id="patch_1">
   <path d="M 0 864 
L 720 864 
L 720 0 
L 0 0 
z
" style="fill: #ffffff"/>
  </g>
  <g id="axes_1">
   <g id="patch_2">
    <path d="M 90 618.626401 
L 648 618.626401 
L 648 254.013599 
L 90 254.013599 
z
" style="fill: #ffffff"/>
   </g>
   <g id="PatchCollection_1">
    <path d="M 206.148859 270.681524 
L 220.152643 271.823739 
L 220.154879 271.823739 
L 230.77175 272.704504 
L 293.379597 277.881905 
L 460.912966 291.599266 
L 493.323128 294.229651 
L 492.756872 314.162275 
L 353.9885 332.611833 
L 268.091509 306.318759 
L 255.225827 340.674264 
L 203.742413 325.973486 
L 184.750215 359.883787 
L 170.016951 372.495229 
L 155.202634 377.329512 
L 116.071193 390.091245 
L 206.148859 270.681524 
" clip-path="url(#pdd9110e68b)" style="fill: #b3e2cd; fill-opacity: 0.65"/>
    <path d="M 194.379353 346.601988 
L 219.130812 357.392351 
L 216.293944 364.707861 
L 214.189911 360.46567 
L 213.11274 361.474608 
L 212.479406 361.786534 
L 212.143454 362.175023 
L 211.270313 363.042744 
L 209.96787 364.195735 
L 209.484904 364.577986 
L 209.612353 365.812078 
L 209.295407 366.353694 
L 209.387081 366.691141 
L 210.28258 367.412541 
L 210.374814 367.794791 
L 209.507263 368.205399 
L 209.024297 368.15379 
L 206.597727 368.56383 
L 206.575368 368.798625 
L 196.886977 368.031288 
L 184.808909 358.786375 
L 185.959308 358.08199 
L 186.697732 357.506345 
L 187.025858 358.400722 
L 187.324917 358.670112 
L 188.134891 358.651396 
L 189.316034 357.944176 
L 189.404355 357.368531 
L 189.18579 354.822649 
L 189.27411 353.289109 
L 189.734717 352.251247 
L 190.099177 351.217922 
L 190.954989 351.278605 
L 191.928188 351.218489 
L 192.441899 350.77442 
L 193.708008 348.212092 
L 194.379353 346.601988 
" clip-path="url(#pdd9110e68b)" style="fill: #fff2ae; fill-opacity: 0.65"/>
    <path d="M 218.311334 357.252268 
L 193.986384 346.640553 
L 194.134516 346.282689 
L 194.487797 345.606661 
L 194.642637 344.844995 
L 194.735988 344.464445 
L 194.403949 343.957991 
L 193.250196 342.788553 
L 193.37541 342.582115 
L 193.801918 342.866251 
L 194.007067 343.087435 
L 194.197682 343.515057 
L 194.340224 343.768 
L 194.956789 344.510951 
L 195.09989 345.002092 
L 195.101567 345.52556 
L 194.962379 346.270779 
L 195.263115 346.793113 
L 195.721485 347.26724 
L 196.163086 347.408457 
L 196.698597 347.390876 
L 196.932814 346.866841 
L 197.088212 346.200454 
L 197.334726 345.64636 
L 197.407395 343.807133 
L 197.64217 343.203698 
L 197.214544 342.46018 
L 196.975297 341.573177 
L 196.372707 340.211479 
L 196.258673 339.038638 
L 195.989241 338.452785 
L 195.95626 337.961644 
L 196.174266 337.231737 
L 196.67512 336.285752 
L 197.287212 335.459432 
L 197.931167 335.045421 
L 198.765178 334.725556 
L 199.172122 333.836284 
L 199.751793 332.863075 
L 199.639996 332.356054 
L 199.700925 331.753187 
L 199.525962 331.230853 
L 199.256529 330.708519 
L 199.302925 330.422681 
L 199.523167 330.311522 
L 199.979302 330.230422 
L 200.561768 330.006969 
L 201.143675 329.78295 
L 201.741793 329.717729 
L 202.22979 329.585586 
L 202.543383 329.14095 
L 202.730644 328.569275 
L 203.028585 328.140519 
L 203.342736 327.854114 
L 203.481925 327.171848 
L 203.589809 326.31547 
L 203.650739 325.807881 
L 203.540059 325.68141 
L 203.553475 324.777959 
L 203.544531 324.445049 
L 203.24659 323.974325 
L 227.306021 333.959352 
L 224.445117 341.325338 
L 218.311334 357.252268 
" clip-path="url(#pdd9110e68b)" style="fill: #cbd5e8; fill-opacity: 0.65"/>
    <path d="M 184.477429 365.889776 
L 184.466808 365.939117 
L 184.334887 366.781883 
L 184.238181 367.271323 
L 183.73062 368.274023 
L 183.21076 369.496772 
L 182.546682 370.564692 
L 182.33203 371.052431 
L 182.310789 371.765323 
L 183.103435 373.530256 
L 183.520999 374.374157 
L 184.123589 375.952501 
L 184.986108 377.169579 
L 185.343861 377.693047 
L 185.838566 379.235662 
L 186.484757 380.665983 
L 187.463546 381.933536 
L 188.447366 383.493732 
L 188.739158 383.98941 
L 188.751456 384.439718 
L 188.160605 384.743703 
L 186.708352 385.050525 
L 186.055454 385.310274 
L 185.5764 385.615394 
L 185.261131 385.783834 
L 184.902819 385.845085 
L 183.74683 385.121417 
L 183.38237 384.038184 
L 183.185606 382.931698 
L 182.679721 382.39632 
L 182.134707 382.160958 
L 181.786457 381.960191 
L 181.651182 381.422545 
L 181.312994 380.813439 
L 180.931205 379.966702 
L 180.229115 379.176679 
L 178.974744 377.529144 
L 178.139615 376.609247 
L 177.09766 376.027363 
L 175.814782 375.511835 
L 174.304394 374.878909 
L 171.943785 373.780931 
L 170.206448 373.449155 
L 169.072261 373.544434 
L 168.65246 373.65219 
L 169.740811 372.72095 
L 179.871362 364.049414 
L 184.477429 365.889776 
" clip-path="url(#pdd9110e68b)" style="fill: #cccccc; fill-opacity: 0.65"/>
   </g>
   <g id="PatchCollection_2">
    <path d="M 206.650054 270.586908 
L 621.836233 304.938125 
L 622.415407 305.88698 
L 622.636364 306.635443 
L 621.956259 307.0452 
L 621.349292 306.642374 
L 619.940641 307.118611 
L 619.587081 307.729702 
L 619.369539 308.86713 
L 618.39814 309.950522 
L 618.648757 310.304984 
L 618.598135 310.628093 
L 618.357149 310.73695 
L 617.864306 310.339324 
L 617.39817 310.177848 
L 616.911543 310.531839 
L 616.902845 311.094246 
L 615.728192 312.138098 
L 615.344513 311.816718 
L 614.847785 310.66228 
L 614.291127 310.969794 
L 614.146567 311.177899 
L 613.722977 311.30094 
L 613.244577 310.406751 
L 613.064147 310.376976 
L 612.180324 309.821499 
L 612.234982 310.1706 
L 612.157188 310.07088 
L 612.022097 310.282928 
L 611.597892 309.86687 
L 611.298363 309.819134 
L 611.178494 310.042994 
L 610.915769 309.846702 
L 610.72028 309.986122 
L 610.576184 309.830006 
L 610.190638 310.212035 
L 610.372153 310.694102 
L 610.769499 310.536404 
L 610.916854 310.740262 
L 610.38411 311.362066 
L 610.464693 311.539296 
L 610.369822 311.765516 
L 609.88552 311.837197 
L 609.182435 312.909405 
L 609.073902 313.961445 
L 608.25576 314.093305 
L 607.835121 314.347729 
L 607.907013 314.730705 
L 608.16772 314.733853 
L 608.262278 314.457061 
L 608.403423 314.591439 
L 608.242563 314.919908 
L 608.7118 315.517768 
L 608.430908 315.693892 
L 609.379327 318.800078 
L 609.338488 319.280727 
L 609.588635 319.432277 
L 609.988312 319.178954 
L 610.367804 319.209676 
L 610.065486 319.429754 
L 609.863004 320.074873 
L 609.426528 319.520343 
L 609.156039 319.620062 
L 609.760217 321.156217 
L 609.795461 321.679873 
L 610.184115 322.072616 
L 610.027134 322.442832 
L 610.838908 324.10108 
L 611.542764 326.233836 
L 611.288894 326.622478 
L 611.147129 327.262085 
L 610.346221 327.473815 
L 609.041916 328.856213 
L 609.047037 329.563717 
L 607.938685 328.992326 
L 607.166196 328.767836 
L 606.36653 329.111113 
L 605.725867 329.971115 
L 605.825401 330.327153 
L 605.71391 331.190302 
L 605.989989 331.96917 
L 607.094461 332.785219 
L 607.347868 333.188833 
L 608.118651 333.554167 
L 608.289764 333.470984 
L 608.377961 332.86147 
L 608.524852 332.897069 
L 608.64286 333.28367 
L 608.594256 333.65168 
L 608.451406 333.798036 
L 608.441311 333.999052 
L 608.582148 334.07278 
L 608.964586 334.035445 
L 609.188025 333.840724 
L 609.200138 333.488787 
L 609.289112 333.531163 
L 609.629626 333.989127 
L 609.559445 334.343118 
L 609.398735 334.465994 
L 609.330723 334.713487 
L 609.571245 334.815101 
L 610.040639 334.788003 
L 610.168122 335.066371 
L 609.888158 335.961978 
L 610.254609 336.057921 
L 610.548078 335.475975 
L 610.680994 335.87549 
L 610.551186 336.168354 
L 610.519351 336.534317 
L 610.204456 336.846554 
L 610.458019 336.960458 
L 610.809092 336.76952 
L 610.703974 338.006669 
L 610.996823 338.393423 
L 611.629877 339.010344 
L 611.760149 340.407868 
L 611.700992 340.754451 
L 611.862321 340.982095 
L 612.624564 341.36806 
L 612.439634 341.694794 
L 611.799279 341.973639 
L 611.757824 342.227433 
L 611.91263 342.452399 
L 612.154706 342.562991 
L 612.131726 342.833323 
L 611.705648 343.276008 
L 611.592609 343.525866 
L 611.670247 343.744685 
L 611.955175 343.9791 
L 611.824433 344.335767 
L 611.172127 344.520717 
L 611.21778 344.771675 
L 611.551149 344.820041 
L 611.615589 344.970962 
L 611.263896 345.216408 
L 611.191999 345.418371 
L 611.644629 345.968812 
L 611.406746 346.502234 
L 611.367309 346.894347 
L 611.45426 347.503703 
L 611.948808 348.091325 
L 612.371158 348.898861 
L 612.409666 349.267189 
L 612.778442 349.823931 
L 612.671771 350.047162 
L 612.303459 349.943183 
L 612.052378 350.14074 
L 612.186378 350.852651 
L 611.690276 351.610568 
L 612.009369 351.983461 
L 612.50702 351.544718 
L 612.538541 351.735027 
L 611.813874 352.412915 
L 612.073032 352.474353 
L 612.807169 352.120051 
L 612.925333 352.224183 
L 612.787912 352.75288 
L 612.527674 353.135069 
L 612.547546 353.423521 
L 613.377337 353.511268 
L 613.122841 353.807286 
L 612.641334 353.883532 
L 612.452211 354.133543 
L 612.729844 354.460282 
L 612.682017 354.650903 
L 612.404853 355.266559 
L 612.147406 356.110653 
L 612.090573 355.814795 
L 611.906733 355.625274 
L 611.40333 356.150035 
L 611.912787 356.779717 
L 612.313861 356.513474 
L 612.832323 356.523087 
L 613.203274 356.343021 
L 613.201563 356.435969 
L 612.985112 356.60201 
L 612.808566 356.940875 
L 612.91431 357.044536 
L 613.299386 357.22665 
L 613.534788 357.907062 
L 613.126726 358.007411 
L 613.830425 358.470417 
L 613.124702 358.825667 
L 613.027656 358.873873 
L 613.121443 359.321594 
L 612.946759 359.715596 
L 613.265696 360.076046 
L 613.40063 360.517626 
L 613.585096 360.61451 
L 613.812415 360.346066 
L 614.239113 360.610891 
L 614.38833 361.158179 
L 614.175137 361.477194 
L 614.341593 362.21715 
L 614.604781 362.706777 
L 615.601799 363.701475 
L 615.831141 364.713498 
L 616.149921 364.697902 
L 616.029895 365.076313 
L 616.338116 365.438493 
L 615.840459 365.602333 
L 615.695586 365.856281 
L 615.977875 366.476514 
L 615.938282 366.775044 
L 616.071819 366.959681 
L 616.208922 366.935895 
L 616.76667 366.587576 
L 616.811702 366.739127 
L 616.538725 367.040027 
L 616.18284 367.198508 
L 616.175539 367.52556 
L 615.98005 367.766117 
L 616.045111 367.936105 
L 616.227559 367.852294 
L 616.520871 367.956584 
L 616.569162 368.439911 
L 616.835766 368.700953 
L 616.640277 368.923078 
L 616.731426 369.271238 
L 616.486712 369.287782 
L 616.547736 369.582223 
L 617.250352 370.10336 
L 617.297402 370.347229 
L 617.179237 370.481448 
L 616.94089 370.38141 
L 616.81263 370.480506 
L 616.835146 370.839533 
L 616.555652 371.169261 
L 616.557049 371.435186 
L 616.429415 371.290878 
L 616.309233 371.050321 
L 616.16436 371.129879 
L 615.982381 371.738764 
L 615.703814 371.60911 
L 615.574319 371.772004 
L 615.525095 372.190268 
L 615.255383 372.412869 
L 615.011759 372.410663 
L 614.978376 372.597348 
L 615.156006 373.077997 
L 615.049177 373.008047 
L 614.861916 372.615304 
L 614.5509 372.75394 
L 614.662547 373.175982 
L 614.978063 373.412921 
L 614.791735 373.607324 
L 614.458047 373.464751 
L 614.236005 373.606536 
L 614.14688 374.014087 
L 613.838967 374.79453 
L 613.809156 375.337882 
L 613.621274 375.139543 
L 613.345972 375.074475 
L 613.175011 375.338353 
L 613.30653 375.591518 
L 613.091633 375.77442 
L 612.956542 375.536063 
L 612.701268 375.423741 
L 612.436995 375.70258 
L 611.793538 377.024329 
L 611.514351 377.11633 
L 611.421654 377.427468 
L 611.642141 377.606434 
L 611.894156 377.588631 
L 612.163242 377.734669 
L 611.718382 378.195468 
L 611.881579 378.292829 
L 612.100982 378.258954 
L 612.441188 377.995082 
L 612.595838 378.043442 
L 612.288394 378.339771 
L 612.192589 378.667923 
L 612.27613 379.076738 
L 612.229079 379.412609 
L 611.610156 379.616461 
L 612.070701 380.207702 
L 612.015736 380.60108 
L 612.430315 380.557756 
L 612.505471 380.909535 
L 612.773786 380.924501 
L 613.130141 380.644086 
L 613.066165 380.841007 
L 612.574098 381.605067 
L 613.047534 381.946455 
L 613.593632 382.189065 
L 613.717079 382.458609 
L 613.854495 382.285791 
L 613.941603 381.859649 
L 614.520776 382.184024 
L 614.392679 382.577708 
L 614.730246 382.950289 
L 615.331466 382.85687 
L 615.662203 383.862122 
L 615.290012 384.208076 
L 614.95477 385.397012 
L 615.386588 385.542109 
L 615.196381 386.476468 
L 615.007566 386.727739 
L 615.07697 386.960112 
L 615.516553 387.039664 
L 615.332243 387.556389 
L 614.756642 387.895254 
L 612.638075 388.61899 
L 611.994774 388.475152 
L 611.679253 388.763451 
L 611.681114 389.115389 
L 611.288894 388.773688 
L 611.160483 389.10184 
L 611.446808 389.411406 
L 612.016664 389.51475 
L 611.311874 390.018085 
L 609.989553 390.639259 
L 609.683199 391.132193 
L 609.584443 390.928023 
L 609.356498 390.863749 
L 609.349981 391.191272 
L 609.555409 391.574878 
L 609.2166 392.076165 
L 609.066137 392.838495 
L 609.329169 393.369239 
L 608.933221 393.854454 
L 609.065204 394.213957 
L 608.748291 394.240267 
L 608.285728 394.431046 
L 607.781397 394.425533 
L 607.351747 394.673497 
L 607.114646 394.437347 
L 606.879251 394.512334 
L 607.043532 394.830719 
L 607.395225 395.213537 
L 606.861548 395.765079 
L 606.970863 396.443914 
L 606.875679 396.919363 
L 607.422867 397.350388 
L 606.761243 398.336419 
L 606.608292 398.749171 
L 606.445414 398.591949 
L 606.308613 398.871105 
L 606.358922 399.132777 
L 604.93847 400.255239 
L 604.943753 400.848527 
L 604.699972 400.874361 
L 604.359296 401.066558 
L 604.245945 401.604392 
L 604.61519 401.722549 
L 605.084741 402.342306 
L 604.95524 402.441237 
L 604.642363 402.508976 
L 604.242999 403.100064 
L 604.138809 404.139027 
L 602.525506 404.529405 
L 602.290882 405.157039 
L 602.245078 406.205773 
L 603.032319 407.091138 
L 602.834811 407.806043 
L 602.28281 408.08993 
L 602.117288 408.800111 
L 601.847106 410.496329 
L 601.455194 410.770126 
L 601.170579 410.582971 
L 600.942014 410.255449 
L 600.521839 410.060416 
L 599.826211 409.95676 
L 599.388182 409.18687 
L 598.697675 409.034531 
L 598.40079 410.205353 
L 598.070987 412.293521 
L 595.653825 411.984907 
L 595.376192 412.232083 
L 595.773387 412.586861 
L 597.237937 413.300978 
L 597.117755 413.824481 
L 598.305606 416.439298 
L 598.260574 416.828105 
L 597.994903 416.674819 
L 594.158687 415.49549 
L 593.179523 414.952296 
L 592.157664 415.94447 
L 591.44961 415.754008 
L 590.839999 416.7977 
L 590.375111 418.084315 
L 589.890809 418.846015 
L 588.186978 420.517177 
L 588.638205 421.273364 
L 587.951426 423.425652 
L 587.524269 423.995308 
L 587.531407 424.20499 
L 587.836212 424.352287 
L 588.048628 424.316212 
L 588.100804 424.464773 
L 588.01074 424.577095 
L 587.781091 424.506203 
L 587.398647 424.214915 
L 587.163252 424.282972 
L 587.135615 424.64421 
L 587.261544 425.035847 
L 587.14291 425.115564 
L 586.986086 425.058221 
L 586.520884 424.331655 
L 586.381601 424.359694 
L 586.235951 424.659806 
L 586.079283 424.687375 
L 585.620599 424.096134 
L 585.013789 423.92158 
L 584.402468 424.039261 
L 584.332287 423.695196 
L 584.100927 423.655655 
L 583.983383 423.82186 
L 584.088971 424.403647 
L 584.331823 424.525264 
L 584.017699 424.925732 
L 583.82112 424.809468 
L 583.706997 424.605928 
L 583.536813 424.581507 
L 583.448772 424.681227 
L 583.436195 424.880831 
L 583.665693 425.366834 
L 583.585417 425.485933 
L 583.452187 425.409846 
L 583.072701 424.881143 
L 582.91292 424.96196 
L 582.972855 425.301143 
L 583.108409 425.652609 
L 582.689324 426.09986 
L 582.667121 426.476853 
L 582.464332 426.616114 
L 582.141516 426.436207 
L 581.594327 426.894012 
L 581.714202 427.189241 
L 581.888573 427.316217 
L 582.226605 427.41326 
L 582.214341 427.528576 
L 581.788112 427.73574 
L 580.971524 427.888238 
L 580.802894 428.168812 
L 580.843577 428.458212 
L 580.62138 428.48578 
L 580.044844 427.858934 
L 579.617525 428.2887 
L 579.352475 428.263649 
L 578.947052 428.711847 
L 578.492253 428.838665 
L 578.29583 429.412421 
L 578.111364 429.169811 
L 578.240088 428.774073 
L 577.930006 428.867969 
L 577.340893 429.394301 
L 577.170866 429.382017 
L 577.192761 429.201003 
L 577.437006 429.018572 
L 577.295861 428.884353 
L 576.817618 428.745404 
L 576.380981 428.975725 
L 575.994038 429.434159 
L 576.101643 430.036272 
L 575.829606 430.24832 
L 576.11298 431.089413 
L 575.822926 431.038059 
L 575.389402 430.661854 
L 575.301669 432.01826 
L 574.614577 432.568225 
L 574.362261 433.082902 
L 574.744078 433.594274 
L 574.091923 433.281718 
L 574.136491 433.689581 
L 574.471414 433.94464 
L 574.423749 434.23451 
L 573.82206 434.217966 
L 574.217075 434.735797 
L 574.029193 435.056071 
L 574.398902 436.533147 
L 573.800628 436.386797 
L 573.877489 437.363845 
L 574.191143 437.948156 
L 574.407444 438.667792 
L 574.332137 439.263757 
L 573.396138 440.371252 
L 572.986836 440.264755 
L 572.605326 440.474125 
L 572.712618 440.97053 
L 572.929383 441.180053 
L 572.780166 441.381546 
L 572.541976 441.491349 
L 572.285769 441.282138 
L 572.071956 441.664956 
L 572.112795 441.977511 
L 571.770879 442.245801 
L 570.942178 442.585925 
L 569.810226 443.101862 
L 569.62576 443.478067 
L 569.949973 443.585035 
L 570.246081 443.948791 
L 569.8992 444.523177 
L 570.782089 444.508681 
L 570.914072 444.754915 
L 570.248876 445.110477 
L 569.956033 445.401605 
L 569.008547 445.528429 
L 569.055284 446.354244 
L 568.882461 447.108849 
L 568.405147 447.376033 
L 567.978297 447.406437 
L 567.717904 447.621638 
L 567.965564 448.120719 
L 567.707652 448.177904 
L 567.456884 448.393257 
L 567.546792 448.692269 
L 568.124098 448.409489 
L 568.393033 448.849803 
L 568.517565 449.32321 
L 568.191797 449.583776 
L 567.743522 449.722095 
L 567.584054 450.082698 
L 567.964479 450.308924 
L 568.110593 450.742625 
L 567.762466 450.854164 
L 567.396172 450.84298 
L 567.064815 451.713537 
L 566.347135 452.050825 
L 565.304314 451.768044 
L 565.267515 452.222543 
L 565.593126 452.588506 
L 564.670946 452.23215 
L 564.611632 452.010178 
L 564.162887 452.121717 
L 562.935756 453.859206 
L 562.136709 455.548335 
L 562.217455 455.988967 
L 562.787931 456.269071 
L 562.690421 456.397936 
L 562.272577 456.541609 
L 561.762344 455.886094 
L 561.636571 456.235513 
L 562.013575 457.033918 
L 561.863582 457.129544 
L 561.660328 457.025411 
L 561.389219 457.079448 
L 561.499619 457.579159 
L 561.321983 457.382549 
L 561.294811 457.175385 
L 561.133945 457.044473 
L 560.966869 457.634455 
L 560.63412 457.794201 
L 560.410055 458.078399 
L 560.523563 458.501229 
L 560.017058 458.630094 
L 560.379624 459.158167 
L 560.426981 459.473711 
L 560.185062 459.488207 
L 559.828086 459.397936 
L 559.879016 459.762951 
L 560.132579 460.09741 
L 559.642066 459.871496 
L 559.619863 460.241553 
L 559.311022 460.595226 
L 559.234317 460.951105 
L 559.306209 461.579369 
L 558.882775 462.535943 
L 558.418814 462.062383 
L 558.066031 462.076873 
L 557.610919 462.581314 
L 557.609678 462.840462 
L 557.20643 462.63771 
L 557.03501 462.692853 
L 557.067152 463.296537 
L 556.682998 463.241241 
L 556.239072 464.235468 
L 556.340618 464.476343 
L 556.59465 464.689961 
L 556.129135 464.898701 
L 556.266708 466.214461 
L 556.72135 466.45786 
L 556.269347 466.732292 
L 555.932092 467.278162 
L 554.084171 468.284673 
L 553.377827 469.060545 
L 553.221617 470.268867 
L 552.28345 470.741797 
L 552.380804 471.177387 
L 552.277704 471.40456 
L 552.523502 471.525077 
L 552.194168 471.691276 
L 551.911102 471.33398 
L 551.675237 471.262934 
L 551.150408 471.611094 
L 550.753683 471.415744 
L 550.565337 471.676627 
L 550.692037 472.123566 
L 551.027587 472.513473 
L 551.42059 471.981623 
L 551.651949 472.474085 
L 551.575239 472.833276 
L 551.260965 472.762384 
L 550.987373 472.98435 
L 550.775735 473.677364 
L 550.144228 473.633252 
L 550.134295 474.238831 
L 549.476707 474.444101 
L 549.153114 474.257104 
L 548.920513 474.506803 
L 548.915851 474.865518 
L 548.65018 475.340808 
L 548.919736 475.639032 
L 549.404502 475.787905 
L 548.546918 476.279268 
L 548.30112 476.288875 
L 548.05408 476.592923 
L 548.183268 476.8045 
L 548.192581 477.448989 
L 548.343044 477.86946 
L 548.200966 478.243294 
L 548.151283 478.774515 
L 547.860296 479.004206 
L 547.057063 478.819569 
L 546.615149 479.401202 
L 545.630088 479.48076 
L 544.207462 480.14037 
L 543.636516 480.210633 
L 543.905608 480.806127 
L 543.759494 481.250071 
L 543.796135 481.596496 
L 544.219105 481.59429 
L 544.115849 481.853756 
L 543.690554 482.259735 
L 542.043242 482.478872 
L 541.682387 482.700056 
L 541.928185 483.023477 
L 541.907687 483.291297 
L 541.55273 482.937618 
L 541.514221 482.209481 
L 541.121067 482.062179 
L 540.887533 482.458387 
L 540.927752 482.986931 
L 540.417362 483.239148 
L 540.080728 483.169674 
L 539.889895 483.997695 
L 539.25063 483.631891 
L 538.988062 484.160276 
L 538.646766 484.588777 
L 538.213236 484.694963 
L 538.103149 485.413333 
L 537.061256 484.559161 
L 536.653351 484.650221 
L 536.83207 485.088647 
L 537.351466 485.519201 
L 536.642171 485.522825 
L 536.241253 485.332516 
L 535.81347 486.513581 
L 536.543884 486.360771 
L 536.893095 487.008408 
L 536.750084 487.630054 
L 536.377428 487.673695 
L 536.062527 487.90055 
L 536.361899 488.402626 
L 535.542517 489.094375 
L 535.260848 489.536113 
L 535.00899 489.539419 
L 534.222683 489.689711 
L 533.640402 489.536584 
L 533.081721 489.515634 
L 533.401434 490.123412 
L 533.115573 490.007308 
L 532.865269 489.259633 
L 532.655961 489.296497 
L 532.405344 489.533748 
L 531.869185 489.121314 
L 531.325412 489.470104 
L 531.318111 489.194883 
L 531.577577 488.843887 
L 531.230848 488.744326 
L 529.966292 488.84074 
L 530.177467 488.555906 
L 530.101227 487.755454 
L 529.270044 486.927432 
L 528.680154 486.784706 
L 528.055015 487.119477 
L 527.593849 487.909687 
L 526.589844 488.875397 
L 526.690619 489.261051 
L 526.499629 489.470416 
L 526.036602 489.452301 
L 526.012845 489.926332 
L 526.228056 490.211948 
L 525.546403 490.396115 
L 525.271101 490.111758 
L 524.95667 490.274334 
L 524.615217 491.014766 
L 524.559475 491.694702 
L 524.004678 490.588307 
L 523.764777 491.12977 
L 523.953749 491.696278 
L 523.912289 491.984101 
L 523.577365 492.020018 
L 523.055795 492.37369 
L 523.008281 491.929746 
L 522.741057 492.2349 
L 522.574288 492.758556 
L 522.694163 493.18375 
L 522.516835 493.376424 
L 522.01654 493.740022 
L 522.288583 494.067856 
L 522.290294 494.423264 
L 522.431902 494.808759 
L 522.36995 494.962992 
L 522.170111 494.801199 
L 521.86065 494.833492 
L 521.726179 494.983471 
L 522.150698 495.266564 
L 522.584691 495.316665 
L 522.557362 495.488224 
L 522.810774 495.583531 
L 522.684845 495.632056 
L 522.125543 495.671438 
L 521.831303 495.952647 
L 522.178027 496.407299 
L 522.553946 496.567833 
L 522.455972 497.024691 
L 522.032846 497.140324 
L 521.468888 497.617667 
L 521.701802 497.993867 
L 522.256134 498.08335 
L 522.58454 498.283737 
L 522.326628 499.096638 
L 521.613918 499.782245 
L 519.862729 499.021492 
L 518.837292 499.374688 
L 518.598951 500.062502 
L 519.110733 501.16039 
L 518.654693 501.661518 
L 518.557798 500.889735 
L 518.363863 500.395066 
L 517.443706 500.345759 
L 517.847732 499.964829 
L 517.609228 499.660781 
L 516.764691 500.469582 
L 516.759878 501.062558 
L 517.012507 501.325642 
L 517.391843 501.269087 
L 517.732826 500.828455 
L 517.951608 500.988672 
L 517.68283 501.302645 
L 517.597428 501.671755 
L 516.846052 501.42395 
L 516.380386 501.613465 
L 516.476191 502.192263 
L 516.988907 502.29939 
L 516.66997 502.589101 
L 514.74938 501.262316 
L 513.684194 501.228917 
L 513.957171 500.958897 
L 514.064463 500.589628 
L 513.627211 500.359308 
L 512.898351 500.244462 
L 512.471966 500.457139 
L 512.324303 500.903442 
L 511.977104 500.955585 
L 512.097136 501.411348 
L 512.515287 501.5692 
L 512.003969 501.955954 
L 511.76252 502.597296 
L 511.522305 502.471737 
L 511.662522 501.733828 
L 511.385823 501.331473 
L 511.073874 501.345021 
L 510.65153 501.892468 
L 510.476069 502.595401 
L 510.10698 502.743016 
L 509.906828 503.002011 
L 510.164584 503.110397 
L 511.504759 503.251863 
L 511.362843 503.844369 
L 511.712362 504.10667 
L 511.943101 504.08335 
L 511.730221 504.202925 
L 511.404918 504.419226 
L 511.268586 504.941781 
L 510.609293 505.676695 
L 510.751991 506.286209 
L 509.14117 507.129985 
L 508.172102 506.777101 
L 507.131919 506.934482 
L 506.811429 507.485864 
L 507.199618 507.688928 
L 507.74665 507.593303 
L 508.123347 508.50057 
L 508.395384 509.60806 
L 508.353773 510.947611 
L 509.066948 512.299287 
L 508.520693 513.111083 
L 507.902233 513.568888 
L 508.58591 513.815122 
L 509.045365 514.249771 
L 508.669289 514.597454 
L 507.999279 514.372017 
L 507.676156 514.896308 
L 507.81047 515.426105 
L 506.819036 515.641776 
L 506.932701 516.663101 
L 507.376477 517.355791 
L 506.472 517.322551 
L 506.320452 516.74423 
L 505.785997 516.871677 
L 506.25974 518.609166 
L 505.99251 518.760404 
L 505.07422 518.699437 
L 504.132168 518.776471 
L 503.564951 518.11072 
L 503.085305 518.083304 
L 502.859379 518.292674 
L 502.662805 519.307533 
L 501.800252 520.650862 
L 501.025896 521.158768 
L 500.963943 522.072177 
L 500.444084 522.320141 
L 500.974659 522.569205 
L 501.517963 522.104152 
L 501.619978 523.041347 
L 501.358651 523.638736 
L 501.326353 524.187442 
L 501.695134 524.423904 
L 501.408339 524.911172 
L 501.162541 525.557709 
L 500.584765 525.97282 
L 500.384306 527.228401 
L 499.845966 527.424693 
L 499.612432 527.838391 
L 499.850002 528.351492 
L 500.618304 529.277186 
L 501.152915 530.858559 
L 500.991116 532.340206 
L 501.351356 533.654389 
L 501.500729 535.097755 
L 501.397316 535.90892 
L 501.158192 536.137035 
L 501.236137 536.527571 
L 501.523089 536.87069 
L 501.89528 536.829572 
L 502.638114 536.586962 
L 502.795408 537.02287 
L 502.395731 537.65917 
L 501.460046 538.368722 
L 501.302752 538.250564 
L 500.844538 538.36305 
L 500.704634 538.624563 
L 500.562405 539.345775 
L 500.705568 540.18561 
L 500.606655 540.31684 
L 500.235397 540.065882 
L 499.980587 540.014998 
L 499.544425 540.333378 
L 499.499393 540.678073 
L 499.779664 541.208823 
L 499.977485 541.836452 
L 499.312596 542.421233 
L 498.884819 542.490866 
L 498.58576 542.33065 
L 498.430948 541.945155 
L 498.198347 541.89033 
L 497.946646 541.991626 
L 497.845871 542.262434 
L 497.892765 542.610912 
L 498.478926 543.44051 
L 498.377067 543.590955 
L 498.152231 543.56008 
L 498.006116 543.345356 
L 497.728484 542.447384 
L 497.530976 542.401701 
L 497.315458 542.479365 
L 496.968108 543.722973 
L 496.304309 544.107368 
L 495.576377 544.356591 
L 494.505914 545.906612 
L 494.901868 545.982705 
L 495.219251 545.871954 
L 495.034784 546.216173 
L 494.562126 546.304238 
L 494.479362 546.858615 
L 493.940408 547.134777 
L 494.209963 547.575574 
L 493.865252 547.626616 
L 493.564795 548.041568 
L 493.506878 548.892275 
L 493.705789 549.23697 
L 492.212199 550.59936 
L 492.066706 550.990214 
L 492.378811 551.370984 
L 493.312943 552.076283 
L 493.19214 552.328659 
L 492.881281 552.624518 
L 492.330984 552.697457 
L 491.58318 553.002765 
L 490.776062 553.532091 
L 490.452162 553.90026 
L 490.796404 554.530571 
L 490.751534 554.836508 
L 490.929013 555.197429 
L 490.290676 555.500695 
L 490.39533 554.992789 
L 490.068634 554.783736 
L 489.821746 555.065887 
L 489.965221 555.853103 
L 490.228103 556.224737 
L 489.510266 556.526579 
L 489.807614 556.938389 
L 490.885535 556.635441 
L 491.110992 557.025507 
L 490.855254 557.469445 
L 490.43182 557.723239 
L 491.005404 558.045725 
L 491.635977 561.321728 
L 491.50803 562.118086 
L 491.74948 562.583457 
L 493.203784 563.15516 
L 493.478001 563.69993 
L 493.310304 564.009179 
L 492.147915 563.3535 
L 491.605853 563.394617 
L 491.026987 563.686381 
L 490.806656 564.22122 
L 491.638302 564.99631 
L 492.578801 565.412998 
L 492.82631 565.985807 
L 492.584083 566.481741 
L 492.718084 566.933557 
L 493.013414 567.04919 
L 492.727866 567.354815 
L 493.512004 568.675617 
L 492.770254 569.687328 
L 492.916989 570.193969 
L 492.316233 570.430749 
L 490.719856 569.4036 
L 490.531197 569.583196 
L 490.493153 569.794455 
L 490.843767 570.427125 
L 491.028233 570.589865 
L 490.799355 570.535517 
L 490.546877 570.244382 
L 490.339431 570.011856 
L 490.190678 570.089049 
L 490.004351 570.348514 
L 489.342105 570.996946 
L 489.359183 571.654508 
L 489.648152 572.06663 
L 489.245059 572.115307 
L 488.87597 572.795873 
L 489.337136 573.519291 
L 488.448965 574.288074 
L 487.534241 575.286866 
L 486.744206 575.433381 
L 485.77374 575.951523 
L 484.413844 576.982926 
L 483.311082 577.216553 
L 482.671196 577.553058 
L 482.896346 578.388798 
L 483.687935 578.818246 
L 484.083727 579.722831 
L 484.260899 580.506581 
L 482.501789 582.234933 
L 482.437975 582.905891 
L 482.820105 583.064372 
L 483.518221 583.066737 
L 483.915874 583.497762 
L 483.796782 584.147923 
L 483.460768 584.965231 
L 483.583276 585.711176 
L 483.925813 586.751086 
L 483.497879 587.575483 
L 483.046647 587.820299 
L 482.360337 587.893868 
L 482.112985 588.063539 
L 482.013295 588.358762 
L 482.209718 588.618857 
L 482.56235 588.741268 
L 482.756129 589.103131 
L 482.58471 589.75345 
L 482.237667 590.182269 
L 481.611443 590.414954 
L 480.585548 590.248908 
L 479.228911 589.659402 
L 478.761848 589.690118 
L 478.013267 590.091686 
L 476.290341 592.72777 
L 475.879484 592.828755 
L 475.476543 592.520612 
L 475.552007 591.262196 
L 475.982741 590.30641 
L 475.584618 589.58268 
L 474.897218 589.398831 
L 474.409188 589.535732 
L 473.908736 589.815994 
L 473.535304 589.288397 
L 472.647753 589.825131 
L 471.982244 589.209945 
L 471.253853 590.335079 
L 470.719242 591.579475 
L 470.203883 590.995482 
L 469.681385 591.298271 
L 469.144135 590.813369 
L 469.11836 590.258674 
L 468.868056 590.264663 
L 468.550674 590.827859 
L 468.577539 591.576798 
L 468.457356 591.798929 
L 467.785793 591.475184 
L 467.343571 591.483221 
L 467.206155 591.957728 
L 467.123084 592.830014 
L 467.323386 593.349892 
L 467.313911 593.746412 
L 466.599339 594.037859 
L 466.726822 594.72709 
L 466.31705 594.630206 
L 466.192675 594.162788 
L 465.96411 593.795254 
L 464.814461 593.955782 
L 464.429686 594.153651 
L 464.035912 594.530009 
L 464.137928 593.95027 
L 463.902376 593.847079 
L 463.343074 594.445568 
L 463.461082 594.778603 
L 463.422579 595.152914 
L 462.633628 593.777293 
L 461.984111 593.738223 
L 461.469065 594.343325 
L 461.920917 595.14866 
L 462.198081 596.079401 
L 461.101222 597.328834 
L 460.736482 596.915612 
L 459.872224 597.493145 
L 459.121469 597.408863 
L 458.983583 597.82508 
L 458.929395 598.673739 
L 458.44199 599.256944 
L 458.247892 598.519035 
L 457.692945 598.036027 
L 457.212059 598.465475 
L 457.466398 599.37116 
L 458.079268 599.766268 
L 458.064047 600.09426 
L 457.273234 600.355144 
L 456.801979 600.35735 
L 456.395622 600.552383 
L 456.409597 601.061389 
L 456.17125 601.173399 
L 455.489597 600.925435 
L 455.074704 600.535369 
L 455.305594 599.83133 
L 454.806389 599.149817 
L 453.819305 599.58746 
L 453.461865 601.472882 
L 453.122587 601.176552 
L 453.444783 600.49504 
L 453.22088 599.795095 
L 452.504597 599.64055 
L 451.664717 600.452034 
L 450.973745 600.06748 
L 450.768624 600.450298 
L 450.852322 600.947332 
L 450.316621 600.221396 
L 449.800646 599.734287 
L 450.248765 599.004568 
L 449.727978 598.765111 
L 448.913252 598.753456 
L 447.986258 598.506434 
L 446.743286 599.168726 
L 445.516462 599.011186 
L 444.548791 599.343909 
L 443.713103 599.948064 
L 443.580807 599.22481 
L 443.20458 599.006462 
L 442.873843 599.639921 
L 442.951017 600.329464 
L 442.369977 599.728145 
L 441.871079 598.986924 
L 441.460843 599.388962 
L 441.43243 599.966496 
L 441.249361 600.638401 
L 441.650435 601.036339 
L 440.941604 601.209316 
L 440.362123 601.673268 
L 439.18638 600.819567 
L 438.552241 601.228224 
L 438.333922 601.805599 
L 437.954279 601.129604 
L 437.442335 601.131964 
L 437.368269 601.999531 
L 436.915958 601.391906 
L 436.487862 601.073991 
L 436.335851 600.518672 
L 435.879498 600.397997 
L 435.366939 600.770731 
L 434.655 600.661239 
L 434.9862 599.502078 
L 434.548328 599.382191 
L 433.33843 599.489158 
L 432.470752 599.742794 
L 432.287062 599.330831 
L 431.847479 599.168408 
L 430.968783 599.273329 
L 430.441472 598.79252 
L 429.63342 598.52313 
L 428.612489 599.484746 
L 426.355416 601.050517 
L 425.757924 600.90385 
L 425.229987 600.92307 
L 423.862639 598.807175 
L 422.742801 598.219241 
L 422.007574 597.526544 
L 421.492064 596.12619 
L 421.349208 595.144254 
L 420.974686 594.919287 
L 420.005461 595.040751 
L 419.017292 595.800716 
L 419.238719 597.072675 
L 419.788076 598.466893 
L 420.214775 599.009298 
L 419.876586 599.152971 
L 418.660166 598.951166 
L 417.58613 598.274537 
L 417.268435 597.347108 
L 417.558024 596.651575 
L 416.261014 595.634981 
L 415.277507 594.609726 
L 414.735596 594.541823 
L 414.003941 595.088481 
L 412.800567 595.549281 
L 411.606813 595.80434 
L 410.457315 597.024157 
L 409.124591 597.617763 
L 408.010498 597.420047 
L 407.856933 596.031507 
L 408.584859 594.858161 
L 408.922734 594.092054 
L 408.512811 593.754919 
L 407.261141 593.77178 
L 406.872957 593.411801 
L 407.09236 592.438377 
L 407.687526 592.137635 
L 407.383811 591.68802 
L 406.469395 591.941973 
L 406.326232 591.138843 
L 405.488683 591.458329 
L 405.227668 591.814837 
L 405.00547 592.463263 
L 404.31015 593.106182 
L 402.405547 593.972955 
L 401.180742 594.204535 
L 400.19444 594.588612 
L 399.898019 595.372839 
L 400.556072 596.410859 
L 399.449587 597.512683 
L 399.354095 598.730294 
L 398.547754 598.850811 
L 397.588776 598.622226 
L 397.044846 599.349104 
L 397.615484 600.321745 
L 398.454124 600.505277 
L 399.087486 600.854384 
L 398.344964 602.053092 
L 397.252605 600.881164 
L 396.046123 599.085073 
L 396.167234 595.767158 
L 395.724084 590.725462 
L 394.331582 587.892921 
L 390.139475 583.287921 
L 387.49841 577.274372 
L 383.946971 574.242545 
L 384.551142 569.608088 
L 384.862315 564.06794 
L 383.826475 561.855314 
L 381.402326 558.856415 
L 378.794336 553.908608 
L 377.174823 552.312274 
L 374.249759 549.706594 
L 371.243484 546.052179 
L 370.354072 544.27798 
L 370.092124 541.505935 
L 368.582855 538.413304 
L 365.237464 533.338051 
L 363.349637 530.209339 
L 358.868566 526.646143 
L 356.122841 525.768021 
L 354.401469 525.472009 
L 348.749317 523.715929 
L 342.855559 525.856716 
L 342.088654 526.910015 
L 341.955118 528.357952 
L 340.211229 529.829986 
L 337.09953 531.543378 
L 335.894909 533.04188 
L 330.887142 534.170167 
L 328.896992 534.231611 
L 326.474083 531.432309 
L 324.479114 527.374756 
L 323.279776 523.63653 
L 322.970622 520.670711 
L 321.237601 516.516586 
L 315.335771 503.795374 
L 313.451515 498.995812 
L 311.453751 495.893568 
L 306.332169 490.911422 
L 304.40335 488.154027 
L 303.317822 485.419005 
L 301.871439 482.339764 
L 300.769924 480.460491 
L 300.220405 477.417167 
L 298.046716 475.424778 
L 296.889922 473.861367 
L 296.303292 471.708137 
L 294.853186 471.048363 
L 292.041937 468.382186 
L 286.836668 464.436802 
L 285.375684 462.857005 
L 282.488044 461.249958 
L 278.896078 462.054188 
L 273.532582 460.678726 
L 269.590778 457.476757 
L 266.141354 452.484685 
L 264.761116 450.163362 
L 263.664565 447.45748 
L 262.325944 445.592702 
L 259.080394 442.60987 
L 257.469574 440.223955 
L 254.184587 438.528684 
L 252.391939 439.119454 
L 250.667151 440.094302 
L 246.726281 440.475231 
L 244.474485 440.314697 
L 238.22251 437.522803 
L 236.828767 437.387949 
L 230.703336 435.668103 
L 228.224221 435.700714 
L 224.615172 435.19439 
L 221.621788 432.263076 
L 219.030719 425.981867 
L 214.717971 418.609864 
L 211.026002 411.469912 
L 209.82123 409.691776 
L 204.116438 404.786823 
L 200.931913 403.450584 
L 196.862784 398.7101 
L 194.220165 393.13183 
L 190.700867 389.253237 
L 185.846515 385.833396 
L 185.348551 385.628909 
L 183.880429 384.6747 
L 183.444105 382.700272 
L 181.583298 380.935532 
L 180.00524 378.395543 
L 178.294891 376.373068 
L 176.603017 375.45241 
L 171.280048 373.431041 
L 169.539732 373.277596 
L 167.753142 374.013775 
L 166.157694 375.786392 
L 166.14496 377.311681 
L 166.929719 378.143638 
L 167.25098 378.746851 
L 164.864255 380.747271 
L 163.428432 381.564896 
L 161.562187 381.779779 
L 160.184743 381.370181 
L 159.25325 380.972237 
L 157.741035 381.843265 
L 157.021801 383.12799 
L 157.332347 384.421064 
L 157.080182 385.413714 
L 155.996365 385.644193 
L 154.842053 386.182498 
L 153.530917 386.34382 
L 152.780782 387.458087 
L 150.499337 387.48865 
L 150.067206 387.040141 
L 149.351857 385.739348 
L 146.544957 385.125104 
L 145.499804 385.651124 
L 144.263506 385.731312 
L 142.367601 385.555811 
L 139.944698 385.472158 
L 138.643959 385.57409 
L 137.060781 386.123896 
L 134.463971 386.730104 
L 132.509836 387.023915 
L 128.391644 388.320607 
L 123.319135 389.04812 
L 117.989642 390.296612 
L 116.715148 390.769701 
L 115.363636 390.936377 
L 206.650054 270.586908 
L 206.650054 270.586908 
" clip-path="url(#pdd9110e68b)" style="fill: none; stroke: #000000; stroke-width: 2"/>
   </g>
   <g id="matplotlib.axis_1">
    <g id="xtick_1">
     <g id="line2d_1">
      <path d="M 145.983793 618.626401 
L 145.983793 254.013599 
" clip-path="url(#pdd9110e68b)" style="fill: none; stroke: #b0b0b0; stroke-width: 0.8; stroke-linecap: square"/>
     </g>
     <g id="line2d_2">
      <defs>
       <path id="m245d5a2018" d="M 0 0 
L 0 3.5 
" style="stroke: #000000; stroke-width: 0.8"/>
      </defs>
      <g>
       <use xlink:href="#m245d5a2018" x="145.983793" y="618.626401" style="stroke: #000000; stroke-width: 0.8"/>
      </g>
     </g>
     <g id="text_1">
      <!-- −56.0 -->
      <g transform="translate(137.100212 652.668816) rotate(-45) scale(0.1 -0.1)">
       <defs>
        <path id="DejaVuSans-2212" d="M 678 2272 
L 4684 2272 
L 4684 1741 
L 678 1741 
L 678 2272 
z
" transform="scale(0.015625)"/>
        <path id="DejaVuSans-35" d="M 691 4666 
L 3169 4666 
L 3169 4134 
L 1269 4134 
L 1269 2991 
Q 1406 3038 1543 3061 
Q 1681 3084 1819 3084 
Q 2600 3084 3056 2656 
Q 3513 2228 3513 1497 
Q 3513 744 3044 326 
Q 2575 -91 1722 -91 
Q 1428 -91 1123 -41 
Q 819 9 494 109 
L 494 744 
Q 775 591 1075 516 
Q 1375 441 1709 441 
Q 2250 441 2565 725 
Q 2881 1009 2881 1497 
Q 2881 1984 2565 2268 
Q 2250 2553 1709 2553 
Q 1456 2553 1204 2497 
Q 953 2441 691 2322 
L 691 4666 
z
" transform="scale(0.015625)"/>
        <path id="DejaVuSans-36" d="M 2113 2584 
Q 1688 2584 1439 2293 
Q 1191 2003 1191 1497 
Q 1191 994 1439 701 
Q 1688 409 2113 409 
Q 2538 409 2786 701 
Q 3034 994 3034 1497 
Q 3034 2003 2786 2293 
Q 2538 2584 2113 2584 
z
M 3366 4563 
L 3366 3988 
Q 3128 4100 2886 4159 
Q 2644 4219 2406 4219 
Q 1781 4219 1451 3797 
Q 1122 3375 1075 2522 
Q 1259 2794 1537 2939 
Q 1816 3084 2150 3084 
Q 2853 3084 3261 2657 
Q 3669 2231 3669 1497 
Q 3669 778 3244 343 
Q 2819 -91 2113 -91 
Q 1303 -91 875 529 
Q 447 1150 447 2328 
Q 447 3434 972 4092 
Q 1497 4750 2381 4750 
Q 2619 4750 2861 4703 
Q 3103 4656 3366 4563 
z
" transform="scale(0.015625)"/>
        <path id="DejaVuSans-2e" d="M 684 794 
L 1344 794 
L 1344 0 
L 684 0 
L 684 794 
z
" transform="scale(0.015625)"/>
        <path id="DejaVuSans-30" d="M 2034 4250 
Q 1547 4250 1301 3770 
Q 1056 3291 1056 2328 
Q 1056 1369 1301 889 
Q 1547 409 2034 409 
Q 2525 409 2770 889 
Q 3016 1369 3016 2328 
Q 3016 3291 2770 3770 
Q 2525 4250 2034 4250 
z
M 2034 4750 
Q 2819 4750 3233 4129 
Q 3647 3509 3647 2328 
Q 3647 1150 3233 529 
Q 2819 -91 2034 -91 
Q 1250 -91 836 529 
Q 422 1150 422 2328 
Q 422 3509 836 4129 
Q 1250 4750 2034 4750 
z
" transform="scale(0.015625)"/>
       </defs>
       <use xlink:href="#DejaVuSans-2212"/>
       <use xlink:href="#DejaVuSans-35" transform="translate(83.789062 0)"/>
       <use xlink:href="#DejaVuSans-36" transform="translate(147.412109 0)"/>
       <use xlink:href="#DejaVuSans-2e" transform="translate(211.035156 0)"/>
       <use xlink:href="#DejaVuSans-30" transform="translate(242.822266 0)"/>
      </g>
     </g>
    </g>
    <g id="xtick_2">
     <g id="line2d_3">
      <path d="M 257.781523 618.626401 
L 257.781523 254.013599 
" clip-path="url(#pdd9110e68b)" style="fill: none; stroke: #b0b0b0; stroke-width: 0.8; stroke-linecap: square"/>
     </g>
     <g id="line2d_4">
      <g>
       <use xlink:href="#m245d5a2018" x="257.781523" y="618.626401" style="stroke: #000000; stroke-width: 0.8"/>
      </g>
     </g>
     <g id="text_2">
      <!-- −55.8 -->
      <g transform="translate(248.897941 652.668816) rotate(-45) scale(0.1 -0.1)">
       <defs>
        <path id="DejaVuSans-38" d="M 2034 2216 
Q 1584 2216 1326 1975 
Q 1069 1734 1069 1313 
Q 1069 891 1326 650 
Q 1584 409 2034 409 
Q 2484 409 2743 651 
Q 3003 894 3003 1313 
Q 3003 1734 2745 1975 
Q 2488 2216 2034 2216 
z
M 1403 2484 
Q 997 2584 770 2862 
Q 544 3141 544 3541 
Q 544 4100 942 4425 
Q 1341 4750 2034 4750 
Q 2731 4750 3128 4425 
Q 3525 4100 3525 3541 
Q 3525 3141 3298 2862 
Q 3072 2584 2669 2484 
Q 3125 2378 3379 2068 
Q 3634 1759 3634 1313 
Q 3634 634 3220 271 
Q 2806 -91 2034 -91 
Q 1263 -91 848 271 
Q 434 634 434 1313 
Q 434 1759 690 2068 
Q 947 2378 1403 2484 
z
M 1172 3481 
Q 1172 3119 1398 2916 
Q 1625 2713 2034 2713 
Q 2441 2713 2670 2916 
Q 2900 3119 2900 3481 
Q 2900 3844 2670 4047 
Q 2441 4250 2034 4250 
Q 1625 4250 1398 4047 
Q 1172 3844 1172 3481 
z
" transform="scale(0.015625)"/>
       </defs>
       <use xlink:href="#DejaVuSans-2212"/>
       <use xlink:href="#DejaVuSans-35" transform="translate(83.789062 0)"/>
       <use xlink:href="#DejaVuSans-35" transform="translate(147.412109 0)"/>
       <use xlink:href="#DejaVuSans-2e" transform="translate(211.035156 0)"/>
       <use xlink:href="#DejaVuSans-38" transform="translate(242.822266 0)"/>
      </g>
     </g>
    </g>
    <g id="xtick_3">
     <g id="line2d_5">
      <path d="M 369.579252 618.626401 
L 369.579252 254.013599 
" clip-path="url(#pdd9110e68b)" style="fill: none; stroke: #b0b0b0; stroke-width: 0.8; stroke-linecap: square"/>
     </g>
     <g id="line2d_6">
      <g>
       <use xlink:href="#m245d5a2018" x="369.579252" y="618.626401" style="stroke: #000000; stroke-width: 0.8"/>
      </g>
     </g>
     <g id="text_3">
      <!-- −55.6 -->
      <g transform="translate(360.695671 652.668816) rotate(-45) scale(0.1 -0.1)">
       <use xlink:href="#DejaVuSans-2212"/>
       <use xlink:href="#DejaVuSans-35" transform="translate(83.789062 0)"/>
       <use xlink:href="#DejaVuSans-35" transform="translate(147.412109 0)"/>
       <use xlink:href="#DejaVuSans-2e" transform="translate(211.035156 0)"/>
       <use xlink:href="#DejaVuSans-36" transform="translate(242.822266 0)"/>
      </g>
     </g>
    </g>
    <g id="xtick_4">
     <g id="line2d_7">
      <path d="M 481.376981 618.626401 
L 481.376981 254.013599 
" clip-path="url(#pdd9110e68b)" style="fill: none; stroke: #b0b0b0; stroke-width: 0.8; stroke-linecap: square"/>
     </g>
     <g id="line2d_8">
      <g>
       <use xlink:href="#m245d5a2018" x="481.376981" y="618.626401" style="stroke: #000000; stroke-width: 0.8"/>
      </g>
     </g>
     <g id="text_4">
      <!-- −55.4 -->
      <g transform="translate(472.4934 652.668816) rotate(-45) scale(0.1 -0.1)">
       <defs>
        <path id="DejaVuSans-34" d="M 2419 4116 
L 825 1625 
L 2419 1625 
L 2419 4116 
z
M 2253 4666 
L 3047 4666 
L 3047 1625 
L 3713 1625 
L 3713 1100 
L 3047 1100 
L 3047 0 
L 2419 0 
L 2419 1100 
L 313 1100 
L 313 1709 
L 2253 4666 
z
" transform="scale(0.015625)"/>
       </defs>
       <use xlink:href="#DejaVuSans-2212"/>
       <use xlink:href="#DejaVuSans-35" transform="translate(83.789062 0)"/>
       <use xlink:href="#DejaVuSans-35" transform="translate(147.412109 0)"/>
       <use xlink:href="#DejaVuSans-2e" transform="translate(211.035156 0)"/>
       <use xlink:href="#DejaVuSans-34" transform="translate(242.822266 0)"/>
      </g>
     </g>
    </g>
    <g id="xtick_5">
     <g id="line2d_9">
      <path d="M 593.174711 618.626401 
L 593.174711 254.013599 
" clip-path="url(#pdd9110e68b)" style="fill: none; stroke: #b0b0b0; stroke-width: 0.8; stroke-linecap: square"/>
     </g>
     <g id="line2d_10">
      <g>
       <use xlink:href="#m245d5a2018" x="593.174711" y="618.626401" style="stroke: #000000; stroke-width: 0.8"/>
      </g>
     </g>
     <g id="text_5">
      <!-- −55.2 -->
      <g transform="translate(584.291129 652.668816) rotate(-45) scale(0.1 -0.1)">
       <defs>
        <path id="DejaVuSans-32" d="M 1228 531 
L 3431 531 
L 3431 0 
L 469 0 
L 469 531 
Q 828 903 1448 1529 
Q 2069 2156 2228 2338 
Q 2531 2678 2651 2914 
Q 2772 3150 2772 3378 
Q 2772 3750 2511 3984 
Q 2250 4219 1831 4219 
Q 1534 4219 1204 4116 
Q 875 4013 500 3803 
L 500 4441 
Q 881 4594 1212 4672 
Q 1544 4750 1819 4750 
Q 2544 4750 2975 4387 
Q 3406 4025 3406 3419 
Q 3406 3131 3298 2873 
Q 3191 2616 2906 2266 
Q 2828 2175 2409 1742 
Q 1991 1309 1228 531 
z
" transform="scale(0.015625)"/>
       </defs>
       <use xlink:href="#DejaVuSans-2212"/>
       <use xlink:href="#DejaVuSans-35" transform="translate(83.789062 0)"/>
       <use xlink:href="#DejaVuSans-35" transform="translate(147.412109 0)"/>
       <use xlink:href="#DejaVuSans-2e" transform="translate(211.035156 0)"/>
       <use xlink:href="#DejaVuSans-32" transform="translate(242.822266 0)"/>
      </g>
     </g>
    </g>
    <g id="text_6">
     <!-- Longitude (°) -->
     <g transform="translate(336.139844 665.737815) scale(0.1 -0.1)">
      <defs>
       <path id="DejaVuSans-4c" d="M 628 4666 
L 1259 4666 
L 1259 531 
L 3531 531 
L 3531 0 
L 628 0 
L 628 4666 
z
" transform="scale(0.015625)"/>
       <path id="DejaVuSans-6f" d="M 1959 3097 
Q 1497 3097 1228 2736 
Q 959 2375 959 1747 
Q 959 1119 1226 758 
Q 1494 397 1959 397 
Q 2419 397 2687 759 
Q 2956 1122 2956 1747 
Q 2956 2369 2687 2733 
Q 2419 3097 1959 3097 
z
M 1959 3584 
Q 2709 3584 3137 3096 
Q 3566 2609 3566 1747 
Q 3566 888 3137 398 
Q 2709 -91 1959 -91 
Q 1206 -91 779 398 
Q 353 888 353 1747 
Q 353 2609 779 3096 
Q 1206 3584 1959 3584 
z
" transform="scale(0.015625)"/>
       <path id="DejaVuSans-6e" d="M 3513 2113 
L 3513 0 
L 2938 0 
L 2938 2094 
Q 2938 2591 2744 2837 
Q 2550 3084 2163 3084 
Q 1697 3084 1428 2787 
Q 1159 2491 1159 1978 
L 1159 0 
L 581 0 
L 581 3500 
L 1159 3500 
L 1159 2956 
Q 1366 3272 1645 3428 
Q 1925 3584 2291 3584 
Q 2894 3584 3203 3211 
Q 3513 2838 3513 2113 
z
" transform="scale(0.015625)"/>
       <path id="DejaVuSans-67" d="M 2906 1791 
Q 2906 2416 2648 2759 
Q 2391 3103 1925 3103 
Q 1463 3103 1205 2759 
Q 947 2416 947 1791 
Q 947 1169 1205 825 
Q 1463 481 1925 481 
Q 2391 481 2648 825 
Q 2906 1169 2906 1791 
z
M 3481 434 
Q 3481 -459 3084 -895 
Q 2688 -1331 1869 -1331 
Q 1566 -1331 1297 -1286 
Q 1028 -1241 775 -1147 
L 775 -588 
Q 1028 -725 1275 -790 
Q 1522 -856 1778 -856 
Q 2344 -856 2625 -561 
Q 2906 -266 2906 331 
L 2906 616 
Q 2728 306 2450 153 
Q 2172 0 1784 0 
Q 1141 0 747 490 
Q 353 981 353 1791 
Q 353 2603 747 3093 
Q 1141 3584 1784 3584 
Q 2172 3584 2450 3431 
Q 2728 3278 2906 2969 
L 2906 3500 
L 3481 3500 
L 3481 434 
z
" transform="scale(0.015625)"/>
       <path id="DejaVuSans-69" d="M 603 3500 
L 1178 3500 
L 1178 0 
L 603 0 
L 603 3500 
z
M 603 4863 
L 1178 4863 
L 1178 4134 
L 603 4134 
L 603 4863 
z
" transform="scale(0.015625)"/>
       <path id="DejaVuSans-74" d="M 1172 4494 
L 1172 3500 
L 2356 3500 
L 2356 3053 
L 1172 3053 
L 1172 1153 
Q 1172 725 1289 603 
Q 1406 481 1766 481 
L 2356 481 
L 2356 0 
L 1766 0 
Q 1100 0 847 248 
Q 594 497 594 1153 
L 594 3053 
L 172 3053 
L 172 3500 
L 594 3500 
L 594 4494 
L 1172 4494 
z
" transform="scale(0.015625)"/>
       <path id="DejaVuSans-75" d="M 544 1381 
L 544 3500 
L 1119 3500 
L 1119 1403 
Q 1119 906 1312 657 
Q 1506 409 1894 409 
Q 2359 409 2629 706 
Q 2900 1003 2900 1516 
L 2900 3500 
L 3475 3500 
L 3475 0 
L 2900 0 
L 2900 538 
Q 2691 219 2414 64 
Q 2138 -91 1772 -91 
Q 1169 -91 856 284 
Q 544 659 544 1381 
z
M 1991 3584 
L 1991 3584 
z
" transform="scale(0.015625)"/>
       <path id="DejaVuSans-64" d="M 2906 2969 
L 2906 4863 
L 3481 4863 
L 3481 0 
L 2906 0 
L 2906 525 
Q 2725 213 2448 61 
Q 2172 -91 1784 -91 
Q 1150 -91 751 415 
Q 353 922 353 1747 
Q 353 2572 751 3078 
Q 1150 3584 1784 3584 
Q 2172 3584 2448 3432 
Q 2725 3281 2906 2969 
z
M 947 1747 
Q 947 1113 1208 752 
Q 1469 391 1925 391 
Q 2381 391 2643 752 
Q 2906 1113 2906 1747 
Q 2906 2381 2643 2742 
Q 2381 3103 1925 3103 
Q 1469 3103 1208 2742 
Q 947 2381 947 1747 
z
" transform="scale(0.015625)"/>
       <path id="DejaVuSans-65" d="M 3597 1894 
L 3597 1613 
L 953 1613 
Q 991 1019 1311 708 
Q 1631 397 2203 397 
Q 2534 397 2845 478 
Q 3156 559 3463 722 
L 3463 178 
Q 3153 47 2828 -22 
Q 2503 -91 2169 -91 
Q 1331 -91 842 396 
Q 353 884 353 1716 
Q 353 2575 817 3079 
Q 1281 3584 2069 3584 
Q 2775 3584 3186 3129 
Q 3597 2675 3597 1894 
z
M 3022 2063 
Q 3016 2534 2758 2815 
Q 2500 3097 2075 3097 
Q 1594 3097 1305 2825 
Q 1016 2553 972 2059 
L 3022 2063 
z
" transform="scale(0.015625)"/>
       <path id="DejaVuSans-20" transform="scale(0.015625)"/>
       <path id="DejaVuSans-28" d="M 1984 4856 
Q 1566 4138 1362 3434 
Q 1159 2731 1159 2009 
Q 1159 1288 1364 580 
Q 1569 -128 1984 -844 
L 1484 -844 
Q 1016 -109 783 600 
Q 550 1309 550 2009 
Q 550 2706 781 3412 
Q 1013 4119 1484 4856 
L 1984 4856 
z
" transform="scale(0.015625)"/>
       <path id="DejaVuSans-b0" d="M 1600 4347 
Q 1350 4347 1178 4173 
Q 1006 4000 1006 3750 
Q 1006 3503 1178 3333 
Q 1350 3163 1600 3163 
Q 1850 3163 2022 3333 
Q 2194 3503 2194 3750 
Q 2194 3997 2020 4172 
Q 1847 4347 1600 4347 
z
M 1600 4750 
Q 1800 4750 1984 4673 
Q 2169 4597 2303 4453 
Q 2447 4313 2519 4134 
Q 2591 3956 2591 3750 
Q 2591 3338 2302 3052 
Q 2013 2766 1594 2766 
Q 1172 2766 890 3047 
Q 609 3328 609 3750 
Q 609 4169 896 4459 
Q 1184 4750 1600 4750 
z
" transform="scale(0.015625)"/>
       <path id="DejaVuSans-29" d="M 513 4856 
L 1013 4856 
Q 1481 4119 1714 3412 
Q 1947 2706 1947 2009 
Q 1947 1309 1714 600 
Q 1481 -109 1013 -844 
L 513 -844 
Q 928 -128 1133 580 
Q 1338 1288 1338 2009 
Q 1338 2731 1133 3434 
Q 928 4138 513 4856 
z
" transform="scale(0.015625)"/>
      </defs>
      <use xlink:href="#DejaVuSans-4c"/>
      <use xlink:href="#DejaVuSans-6f" transform="translate(53.962891 0)"/>
      <use xlink:href="#DejaVuSans-6e" transform="translate(115.144531 0)"/>
      <use xlink:href="#DejaVuSans-67" transform="translate(178.523438 0)"/>
      <use xlink:href="#DejaVuSans-69" transform="translate(242 0)"/>
      <use xlink:href="#DejaVuSans-74" transform="translate(269.783203 0)"/>
      <use xlink:href="#DejaVuSans-75" transform="translate(308.992188 0)"/>
      <use xlink:href="#DejaVuSans-64" transform="translate(372.371094 0)"/>
      <use xlink:href="#DejaVuSans-65" transform="translate(435.847656 0)"/>
      <use xlink:href="#DejaVuSans-20" transform="translate(497.371094 0)"/>
      <use xlink:href="#DejaVuSans-28" transform="translate(529.158203 0)"/>
      <use xlink:href="#DejaVuSans-b0" transform="translate(568.171875 0)"/>
      <use xlink:href="#DejaVuSans-29" transform="translate(618.171875 0)"/>
     </g>
    </g>
   </g>
   <g id="matplotlib.axis_2">
    <g id="ytick_1">
     <g id="line2d_11">
      <path d="M 90 592.531637 
L 648 592.531637 
" clip-path="url(#pdd9110e68b)" style="fill: none; stroke: #b0b0b0; stroke-width: 0.8; stroke-linecap: square"/>
     </g>
     <g id="line2d_12">
      <defs>
       <path id="m311eda89cf" d="M 0 0 
L -3.5 0 
" style="stroke: #000000; stroke-width: 0.8"/>
      </defs>
      <g>
       <use xlink:href="#m311eda89cf" x="90" y="592.531637" style="stroke: #000000; stroke-width: 0.8"/>
      </g>
     </g>
     <g id="text_7">
      <!-- −10.0 -->
      <g transform="translate(52.354687 596.330856) scale(0.1 -0.1)">
       <defs>
        <path id="DejaVuSans-31" d="M 794 531 
L 1825 531 
L 1825 4091 
L 703 3866 
L 703 4441 
L 1819 4666 
L 2450 4666 
L 2450 531 
L 3481 531 
L 3481 0 
L 794 0 
L 794 531 
z
" transform="scale(0.015625)"/>
       </defs>
       <use xlink:href="#DejaVuSans-2212"/>
       <use xlink:href="#DejaVuSans-31" transform="translate(83.789062 0)"/>
       <use xlink:href="#DejaVuSans-30" transform="translate(147.412109 0)"/>
       <use xlink:href="#DejaVuSans-2e" transform="translate(211.035156 0)"/>
       <use xlink:href="#DejaVuSans-30" transform="translate(242.822266 0)"/>
      </g>
     </g>
    </g>
    <g id="ytick_2">
     <g id="line2d_13">
      <path d="M 90 535.817861 
L 648 535.817861 
" clip-path="url(#pdd9110e68b)" style="fill: none; stroke: #b0b0b0; stroke-width: 0.8; stroke-linecap: square"/>
     </g>
     <g id="line2d_14">
      <g>
       <use xlink:href="#m311eda89cf" x="90" y="535.817861" style="stroke: #000000; stroke-width: 0.8"/>
      </g>
     </g>
     <g id="text_8">
      <!-- −9.9 -->
      <g transform="translate(58.717187 539.61708) scale(0.1 -0.1)">
       <defs>
        <path id="DejaVuSans-39" d="M 703 97 
L 703 672 
Q 941 559 1184 500 
Q 1428 441 1663 441 
Q 2288 441 2617 861 
Q 2947 1281 2994 2138 
Q 2813 1869 2534 1725 
Q 2256 1581 1919 1581 
Q 1219 1581 811 2004 
Q 403 2428 403 3163 
Q 403 3881 828 4315 
Q 1253 4750 1959 4750 
Q 2769 4750 3195 4129 
Q 3622 3509 3622 2328 
Q 3622 1225 3098 567 
Q 2575 -91 1691 -91 
Q 1453 -91 1209 -44 
Q 966 3 703 97 
z
M 1959 2075 
Q 2384 2075 2632 2365 
Q 2881 2656 2881 3163 
Q 2881 3666 2632 3958 
Q 2384 4250 1959 4250 
Q 1534 4250 1286 3958 
Q 1038 3666 1038 3163 
Q 1038 2656 1286 2365 
Q 1534 2075 1959 2075 
z
" transform="scale(0.015625)"/>
       </defs>
       <use xlink:href="#DejaVuSans-2212"/>
       <use xlink:href="#DejaVuSans-39" transform="translate(83.789062 0)"/>
       <use xlink:href="#DejaVuSans-2e" transform="translate(147.412109 0)"/>
       <use xlink:href="#DejaVuSans-39" transform="translate(179.199219 0)"/>
      </g>
     </g>
    </g>
    <g id="ytick_3">
     <g id="line2d_15">
      <path d="M 90 479.104085 
L 648 479.104085 
" clip-path="url(#pdd9110e68b)" style="fill: none; stroke: #b0b0b0; stroke-width: 0.8; stroke-linecap: square"/>
     </g>
     <g id="line2d_16">
      <g>
       <use xlink:href="#m311eda89cf" x="90" y="479.104085" style="stroke: #000000; stroke-width: 0.8"/>
      </g>
     </g>
     <g id="text_9">
      <!-- −9.8 -->
      <g transform="translate(58.717187 482.903303) scale(0.1 -0.1)">
       <use xlink:href="#DejaVuSans-2212"/>
       <use xlink:href="#DejaVuSans-39" transform="translate(83.789062 0)"/>
       <use xlink:href="#DejaVuSans-2e" transform="translate(147.412109 0)"/>
       <use xlink:href="#DejaVuSans-38" transform="translate(179.199219 0)"/>
      </g>
     </g>
    </g>
    <g id="ytick_4">
     <g id="line2d_17">
      <path d="M 90 422.390308 
L 648 422.390308 
" clip-path="url(#pdd9110e68b)" style="fill: none; stroke: #b0b0b0; stroke-width: 0.8; stroke-linecap: square"/>
     </g>
     <g id="line2d_18">
      <g>
       <use xlink:href="#m311eda89cf" x="90" y="422.390308" style="stroke: #000000; stroke-width: 0.8"/>
      </g>
     </g>
     <g id="text_10">
      <!-- −9.7 -->
      <g transform="translate(58.717187 426.189527) scale(0.1 -0.1)">
       <defs>
        <path id="DejaVuSans-37" d="M 525 4666 
L 3525 4666 
L 3525 4397 
L 1831 0 
L 1172 0 
L 2766 4134 
L 525 4134 
L 525 4666 
z
" transform="scale(0.015625)"/>
       </defs>
       <use xlink:href="#DejaVuSans-2212"/>
       <use xlink:href="#DejaVuSans-39" transform="translate(83.789062 0)"/>
       <use xlink:href="#DejaVuSans-2e" transform="translate(147.412109 0)"/>
       <use xlink:href="#DejaVuSans-37" transform="translate(179.199219 0)"/>
      </g>
     </g>
    </g>
    <g id="ytick_5">
     <g id="line2d_19">
      <path d="M 90 365.676532 
L 648 365.676532 
" clip-path="url(#pdd9110e68b)" style="fill: none; stroke: #b0b0b0; stroke-width: 0.8; stroke-linecap: square"/>
     </g>
     <g id="line2d_20">
      <g>
       <use xlink:href="#m311eda89cf" x="90" y="365.676532" style="stroke: #000000; stroke-width: 0.8"/>
      </g>
     </g>
     <g id="text_11">
      <!-- −9.6 -->
      <g transform="translate(58.717187 369.475751) scale(0.1 -0.1)">
       <use xlink:href="#DejaVuSans-2212"/>
       <use xlink:href="#DejaVuSans-39" transform="translate(83.789062 0)"/>
       <use xlink:href="#DejaVuSans-2e" transform="translate(147.412109 0)"/>
       <use xlink:href="#DejaVuSans-36" transform="translate(179.199219 0)"/>
      </g>
     </g>
    </g>
    <g id="ytick_6">
     <g id="line2d_21">
      <path d="M 90 308.962756 
L 648 308.962756 
" clip-path="url(#pdd9110e68b)" style="fill: none; stroke: #b0b0b0; stroke-width: 0.8; stroke-linecap: square"/>
     </g>
     <g id="line2d_22">
      <g>
       <use xlink:href="#m311eda89cf" x="90" y="308.962756" style="stroke: #000000; stroke-width: 0.8"/>
      </g>
     </g>
     <g id="text_12">
      <!-- −9.5 -->
      <g transform="translate(58.717187 312.761974) scale(0.1 -0.1)">
       <use xlink:href="#DejaVuSans-2212"/>
       <use xlink:href="#DejaVuSans-39" transform="translate(83.789062 0)"/>
       <use xlink:href="#DejaVuSans-2e" transform="translate(147.412109 0)"/>
       <use xlink:href="#DejaVuSans-35" transform="translate(179.199219 0)"/>
      </g>
     </g>
    </g>
    <g id="text_13">
     <!-- Latitude (°) -->
     <g transform="translate(46.275 464.889531) rotate(-90) scale(0.1 -0.1)">
      <defs>
       <path id="DejaVuSans-61" d="M 2194 1759 
Q 1497 1759 1228 1600 
Q 959 1441 959 1056 
Q 959 750 1161 570 
Q 1363 391 1709 391 
Q 2188 391 2477 730 
Q 2766 1069 2766 1631 
L 2766 1759 
L 2194 1759 
z
M 3341 1997 
L 3341 0 
L 2766 0 
L 2766 531 
Q 2569 213 2275 61 
Q 1981 -91 1556 -91 
Q 1019 -91 701 211 
Q 384 513 384 1019 
Q 384 1609 779 1909 
Q 1175 2209 1959 2209 
L 2766 2209 
L 2766 2266 
Q 2766 2663 2505 2880 
Q 2244 3097 1772 3097 
Q 1472 3097 1187 3025 
Q 903 2953 641 2809 
L 641 3341 
Q 956 3463 1253 3523 
Q 1550 3584 1831 3584 
Q 2591 3584 2966 3190 
Q 3341 2797 3341 1997 
z
" transform="scale(0.015625)"/>
      </defs>
      <use xlink:href="#DejaVuSans-4c"/>
      <use xlink:href="#DejaVuSans-61" transform="translate(55.712891 0)"/>
      <use xlink:href="#DejaVuSans-74" transform="translate(116.992188 0)"/>
      <use xlink:href="#DejaVuSans-69" transform="translate(156.201172 0)"/>
      <use xlink:href="#DejaVuSans-74" transform="translate(183.984375 0)"/>
      <use xlink:href="#DejaVuSans-75" transform="translate(223.193359 0)"/>
      <use xlink:href="#DejaVuSans-64" transform="translate(286.572266 0)"/>
      <use xlink:href="#DejaVuSans-65" transform="translate(350.048828 0)"/>
      <use xlink:href="#DejaVuSans-20" transform="translate(411.572266 0)"/>
      <use xlink:href="#DejaVuSans-28" transform="translate(443.359375 0)"/>
      <use xlink:href="#DejaVuSans-b0" transform="translate(482.373047 0)"/>
      <use xlink:href="#DejaVuSans-29" transform="translate(532.373047 0)"/>
     </g>
    </g>
   </g>
   <g id="patch_3">
    <path d="M 90 618.626401 
L 90 254.013599 
" style="fill: none; stroke: #000000; stroke-width: 0.8; stroke-linejoin: miter; stroke-linecap: square"/>
   </g>
   <g id="patch_4">
    <path d="M 648 618.626401 
L 648 254.013599 
" style="fill: none; stroke: #000000; stroke-width: 0.8; stroke-linejoin: miter; stroke-linecap: square"/>
   </g>
   <g id="patch_5">
    <path d="M 90 618.626401 
L 648 618.626401 
" style="fill: none; stroke: #000000; stroke-width: 0.8; stroke-linejoin: miter; stroke-linecap: square"/>
   </g>
   <g id="patch_6">
    <path d="M 90 254.013599 
L 648 254.013599 
" style="fill: none; stroke: #000000; stroke-width: 0.8; stroke-linejoin: miter; stroke-linecap: square"/>
   </g>
   <g id="legend_1">
    <g id="patch_7">
     <path d="M -177.001563 728.905212 
L 915.001563 728.905212 
Q 917.001563 728.905212 917.001563 726.905212 
L 917.001563 698.548962 
Q 917.001563 696.548962 915.001563 696.548962 
L -177.001563 696.548962 
Q -179.001563 696.548962 -179.001563 698.548962 
L -179.001563 726.905212 
Q -179.001563 728.905212 -177.001563 728.905212 
z
" style="fill: #ffffff; opacity: 0.8; stroke: #cccccc; stroke-linejoin: miter"/>
    </g>
    <g id="line2d_23">
     <defs>
      <path id="mc0cde08388" d="M 0 5 
C 1.326016 5 2.597899 4.473168 3.535534 3.535534 
C 4.473168 2.597899 5 1.326016 5 0 
C 5 -1.326016 4.473168 -2.597899 3.535534 -3.535534 
C 2.597899 -4.473168 1.326016 -5 0 -5 
C -1.326016 -5 -2.597899 -4.473168 -3.535534 -3.535534 
C -4.473168 -2.597899 -5 -1.326016 -5 0 
C -5 1.326016 -4.473168 2.597899 -3.535534 3.535534 
C -2.597899 4.473168 -1.326016 5 0 5 
z
"/>
     </defs>
     <g/>
    </g>
    <g id="text_14">
     <!-- PARQUE ESTADUAL CRISTALINO -->
     <g transform="translate(-147.001563 708.147399) scale(0.1 -0.1)">
      <defs>
       <path id="DejaVuSans-50" d="M 1259 4147 
L 1259 2394 
L 2053 2394 
Q 2494 2394 2734 2622 
Q 2975 2850 2975 3272 
Q 2975 3691 2734 3919 
Q 2494 4147 2053 4147 
L 1259 4147 
z
M 628 4666 
L 2053 4666 
Q 2838 4666 3239 4311 
Q 3641 3956 3641 3272 
Q 3641 2581 3239 2228 
Q 2838 1875 2053 1875 
L 1259 1875 
L 1259 0 
L 628 0 
L 628 4666 
z
" transform="scale(0.015625)"/>
       <path id="DejaVuSans-41" d="M 2188 4044 
L 1331 1722 
L 3047 1722 
L 2188 4044 
z
M 1831 4666 
L 2547 4666 
L 4325 0 
L 3669 0 
L 3244 1197 
L 1141 1197 
L 716 0 
L 50 0 
L 1831 4666 
z
" transform="scale(0.015625)"/>
       <path id="DejaVuSans-52" d="M 2841 2188 
Q 3044 2119 3236 1894 
Q 3428 1669 3622 1275 
L 4263 0 
L 3584 0 
L 2988 1197 
Q 2756 1666 2539 1819 
Q 2322 1972 1947 1972 
L 1259 1972 
L 1259 0 
L 628 0 
L 628 4666 
L 2053 4666 
Q 2853 4666 3247 4331 
Q 3641 3997 3641 3322 
Q 3641 2881 3436 2590 
Q 3231 2300 2841 2188 
z
M 1259 4147 
L 1259 2491 
L 2053 2491 
Q 2509 2491 2742 2702 
Q 2975 2913 2975 3322 
Q 2975 3731 2742 3939 
Q 2509 4147 2053 4147 
L 1259 4147 
z
" transform="scale(0.015625)"/>
       <path id="DejaVuSans-51" d="M 2522 4238 
Q 1834 4238 1429 3725 
Q 1025 3213 1025 2328 
Q 1025 1447 1429 934 
Q 1834 422 2522 422 
Q 3209 422 3611 934 
Q 4013 1447 4013 2328 
Q 4013 3213 3611 3725 
Q 3209 4238 2522 4238 
z
M 3406 84 
L 4238 -825 
L 3475 -825 
L 2784 -78 
Q 2681 -84 2626 -87 
Q 2572 -91 2522 -91 
Q 1538 -91 948 567 
Q 359 1225 359 2328 
Q 359 3434 948 4092 
Q 1538 4750 2522 4750 
Q 3503 4750 4090 4092 
Q 4678 3434 4678 2328 
Q 4678 1516 4351 937 
Q 4025 359 3406 84 
z
" transform="scale(0.015625)"/>
       <path id="DejaVuSans-55" d="M 556 4666 
L 1191 4666 
L 1191 1831 
Q 1191 1081 1462 751 
Q 1734 422 2344 422 
Q 2950 422 3222 751 
Q 3494 1081 3494 1831 
L 3494 4666 
L 4128 4666 
L 4128 1753 
Q 4128 841 3676 375 
Q 3225 -91 2344 -91 
Q 1459 -91 1007 375 
Q 556 841 556 1753 
L 556 4666 
z
" transform="scale(0.015625)"/>
       <path id="DejaVuSans-45" d="M 628 4666 
L 3578 4666 
L 3578 4134 
L 1259 4134 
L 1259 2753 
L 3481 2753 
L 3481 2222 
L 1259 2222 
L 1259 531 
L 3634 531 
L 3634 0 
L 628 0 
L 628 4666 
z
" transform="scale(0.015625)"/>
       <path id="DejaVuSans-53" d="M 3425 4513 
L 3425 3897 
Q 3066 4069 2747 4153 
Q 2428 4238 2131 4238 
Q 1616 4238 1336 4038 
Q 1056 3838 1056 3469 
Q 1056 3159 1242 3001 
Q 1428 2844 1947 2747 
L 2328 2669 
Q 3034 2534 3370 2195 
Q 3706 1856 3706 1288 
Q 3706 609 3251 259 
Q 2797 -91 1919 -91 
Q 1588 -91 1214 -16 
Q 841 59 441 206 
L 441 856 
Q 825 641 1194 531 
Q 1563 422 1919 422 
Q 2459 422 2753 634 
Q 3047 847 3047 1241 
Q 3047 1584 2836 1778 
Q 2625 1972 2144 2069 
L 1759 2144 
Q 1053 2284 737 2584 
Q 422 2884 422 3419 
Q 422 4038 858 4394 
Q 1294 4750 2059 4750 
Q 2388 4750 2728 4690 
Q 3069 4631 3425 4513 
z
" transform="scale(0.015625)"/>
       <path id="DejaVuSans-54" d="M -19 4666 
L 3928 4666 
L 3928 4134 
L 2272 4134 
L 2272 0 
L 1638 0 
L 1638 4134 
L -19 4134 
L -19 4666 
z
" transform="scale(0.015625)"/>
       <path id="DejaVuSans-44" d="M 1259 4147 
L 1259 519 
L 2022 519 
Q 2988 519 3436 956 
Q 3884 1394 3884 2338 
Q 3884 3275 3436 3711 
Q 2988 4147 2022 4147 
L 1259 4147 
z
M 628 4666 
L 1925 4666 
Q 3281 4666 3915 4102 
Q 4550 3538 4550 2338 
Q 4550 1131 3912 565 
Q 3275 0 1925 0 
L 628 0 
L 628 4666 
z
" transform="scale(0.015625)"/>
       <path id="DejaVuSans-43" d="M 4122 4306 
L 4122 3641 
Q 3803 3938 3442 4084 
Q 3081 4231 2675 4231 
Q 1875 4231 1450 3742 
Q 1025 3253 1025 2328 
Q 1025 1406 1450 917 
Q 1875 428 2675 428 
Q 3081 428 3442 575 
Q 3803 722 4122 1019 
L 4122 359 
Q 3791 134 3420 21 
Q 3050 -91 2638 -91 
Q 1578 -91 968 557 
Q 359 1206 359 2328 
Q 359 3453 968 4101 
Q 1578 4750 2638 4750 
Q 3056 4750 3426 4639 
Q 3797 4528 4122 4306 
z
" transform="scale(0.015625)"/>
       <path id="DejaVuSans-49" d="M 628 4666 
L 1259 4666 
L 1259 0 
L 628 0 
L 628 4666 
z
" transform="scale(0.015625)"/>
       <path id="DejaVuSans-4e" d="M 628 4666 
L 1478 4666 
L 3547 763 
L 3547 4666 
L 4159 4666 
L 4159 0 
L 3309 0 
L 1241 3903 
L 1241 0 
L 628 0 
L 628 4666 
z
" transform="scale(0.015625)"/>
       <path id="DejaVuSans-4f" d="M 2522 4238 
Q 1834 4238 1429 3725 
Q 1025 3213 1025 2328 
Q 1025 1447 1429 934 
Q 1834 422 2522 422 
Q 3209 422 3611 934 
Q 4013 1447 4013 2328 
Q 4013 3213 3611 3725 
Q 3209 4238 2522 4238 
z
M 2522 4750 
Q 3503 4750 4090 4092 
Q 4678 3434 4678 2328 
Q 4678 1225 4090 567 
Q 3503 -91 2522 -91 
Q 1538 -91 948 565 
Q 359 1222 359 2328 
Q 359 3434 948 4092 
Q 1538 4750 2522 4750 
z
" transform="scale(0.015625)"/>
      </defs>
      <use xlink:href="#DejaVuSans-50"/>
      <use xlink:href="#DejaVuSans-41" transform="translate(53.927734 0)"/>
      <use xlink:href="#DejaVuSans-52" transform="translate(122.335938 0)"/>
      <use xlink:href="#DejaVuSans-51" transform="translate(191.818359 0)"/>
      <use xlink:href="#DejaVuSans-55" transform="translate(270.529297 0)"/>
      <use xlink:href="#DejaVuSans-45" transform="translate(343.722656 0)"/>
      <use xlink:href="#DejaVuSans-20" transform="translate(406.90625 0)"/>
      <use xlink:href="#DejaVuSans-45" transform="translate(438.693359 0)"/>
      <use xlink:href="#DejaVuSans-53" transform="translate(501.876953 0)"/>
      <use xlink:href="#DejaVuSans-54" transform="translate(565.353516 0)"/>
      <use xlink:href="#DejaVuSans-41" transform="translate(618.6875 0)"/>
      <use xlink:href="#DejaVuSans-44" transform="translate(687.095703 0)"/>
      <use xlink:href="#DejaVuSans-55" transform="translate(764.097656 0)"/>
      <use xlink:href="#DejaVuSans-41" transform="translate(837.291016 0)"/>
      <use xlink:href="#DejaVuSans-4c" transform="translate(905.699219 0)"/>
      <use xlink:href="#DejaVuSans-20" transform="translate(961.412109 0)"/>
      <use xlink:href="#DejaVuSans-43" transform="translate(993.199219 0)"/>
      <use xlink:href="#DejaVuSans-52" transform="translate(1063.023438 0)"/>
      <use xlink:href="#DejaVuSans-49" transform="translate(1132.505859 0)"/>
      <use xlink:href="#DejaVuSans-53" transform="translate(1161.998047 0)"/>
      <use xlink:href="#DejaVuSans-54" transform="translate(1225.474609 0)"/>
      <use xlink:href="#DejaVuSans-41" transform="translate(1278.808594 0)"/>
      <use xlink:href="#DejaVuSans-4c" transform="translate(1347.216797 0)"/>
      <use xlink:href="#DejaVuSans-49" transform="translate(1402.929688 0)"/>
      <use xlink:href="#DejaVuSans-4e" transform="translate(1432.421875 0)"/>
      <use xlink:href="#DejaVuSans-4f" transform="translate(1507.226562 0)"/>
     </g>
    </g>
    <g id="line2d_24">
     <defs>
      <path id="m739f0d512f" d="M 0 5 
C 1.326016 5 2.597899 4.473168 3.535534 3.535534 
C 4.473168 2.597899 5 1.326016 5 0 
C 5 -1.326016 4.473168 -2.597899 3.535534 -3.535534 
C 2.597899 -4.473168 1.326016 -5 0 -5 
C -1.326016 -5 -2.597899 -4.473168 -3.535534 -3.535534 
C -4.473168 -2.597899 -5 -1.326016 -5 0 
C -5 1.326016 -4.473168 2.597899 -3.535534 3.535534 
C -2.597899 4.473168 -1.326016 5 0 5 
z
"/>
     </defs>
     <g/>
    </g>
    <g id="text_15">
     <!-- RESERVA PARTICULAR DO PATRIMÔNIO NATURAL CRISTALINO I -->
     <g transform="translate(-147.001563 722.825524) scale(0.1 -0.1)">
      <defs>
       <path id="DejaVuSans-56" d="M 1831 0 
L 50 4666 
L 709 4666 
L 2188 738 
L 3669 4666 
L 4325 4666 
L 2547 0 
L 1831 0 
z
" transform="scale(0.015625)"/>
       <path id="DejaVuSans-4d" d="M 628 4666 
L 1569 4666 
L 2759 1491 
L 3956 4666 
L 4897 4666 
L 4897 0 
L 4281 0 
L 4281 4097 
L 3078 897 
L 2444 897 
L 1241 4097 
L 1241 0 
L 628 0 
L 628 4666 
z
" transform="scale(0.015625)"/>
       <path id="DejaVuSans-d4" d="M 2522 4238 
Q 1834 4238 1429 3725 
Q 1025 3213 1025 2328 
Q 1025 1447 1429 934 
Q 1834 422 2522 422 
Q 3209 422 3611 934 
Q 4013 1447 4013 2328 
Q 4013 3213 3611 3725 
Q 3209 4238 2522 4238 
z
M 2522 4750 
Q 3503 4750 4090 4092 
Q 4678 3434 4678 2328 
Q 4678 1225 4090 567 
Q 3503 -91 2522 -91 
Q 1538 -91 948 565 
Q 359 1222 359 2328 
Q 359 3434 948 4092 
Q 1538 4750 2522 4750 
z
M 2228 5941 
L 2816 5941 
L 3475 5110 
L 3041 5110 
L 2522 5666 
L 2003 5110 
L 1569 5110 
L 2228 5941 
z
" transform="scale(0.015625)"/>
      </defs>
      <use xlink:href="#DejaVuSans-52"/>
      <use xlink:href="#DejaVuSans-45" transform="translate(69.482422 0)"/>
      <use xlink:href="#DejaVuSans-53" transform="translate(132.666016 0)"/>
      <use xlink:href="#DejaVuSans-45" transform="translate(196.142578 0)"/>
      <use xlink:href="#DejaVuSans-52" transform="translate(259.326172 0)"/>
      <use xlink:href="#DejaVuSans-56" transform="translate(323.308594 0)"/>
      <use xlink:href="#DejaVuSans-41" transform="translate(385.341797 0)"/>
      <use xlink:href="#DejaVuSans-20" transform="translate(453.75 0)"/>
      <use xlink:href="#DejaVuSans-50" transform="translate(485.537109 0)"/>
      <use xlink:href="#DejaVuSans-41" transform="translate(539.464844 0)"/>
      <use xlink:href="#DejaVuSans-52" transform="translate(607.873047 0)"/>
      <use xlink:href="#DejaVuSans-54" transform="translate(670.105469 0)"/>
      <use xlink:href="#DejaVuSans-49" transform="translate(731.189453 0)"/>
      <use xlink:href="#DejaVuSans-43" transform="translate(760.681641 0)"/>
      <use xlink:href="#DejaVuSans-55" transform="translate(830.505859 0)"/>
      <use xlink:href="#DejaVuSans-4c" transform="translate(903.699219 0)"/>
      <use xlink:href="#DejaVuSans-41" transform="translate(961.662109 0)"/>
      <use xlink:href="#DejaVuSans-52" transform="translate(1030.070312 0)"/>
      <use xlink:href="#DejaVuSans-20" transform="translate(1099.552734 0)"/>
      <use xlink:href="#DejaVuSans-44" transform="translate(1131.339844 0)"/>
      <use xlink:href="#DejaVuSans-4f" transform="translate(1208.341797 0)"/>
      <use xlink:href="#DejaVuSans-20" transform="translate(1287.052734 0)"/>
      <use xlink:href="#DejaVuSans-50" transform="translate(1318.839844 0)"/>
      <use xlink:href="#DejaVuSans-41" transform="translate(1372.767578 0)"/>
      <use xlink:href="#DejaVuSans-54" transform="translate(1433.425781 0)"/>
      <use xlink:href="#DejaVuSans-52" transform="translate(1494.509766 0)"/>
      <use xlink:href="#DejaVuSans-49" transform="translate(1563.992188 0)"/>
      <use xlink:href="#DejaVuSans-4d" transform="translate(1593.484375 0)"/>
      <use xlink:href="#DejaVuSans-d4" transform="translate(1679.763672 0)"/>
      <use xlink:href="#DejaVuSans-4e" transform="translate(1758.474609 0)"/>
      <use xlink:href="#DejaVuSans-49" transform="translate(1833.279297 0)"/>
      <use xlink:href="#DejaVuSans-4f" transform="translate(1862.771484 0)"/>
      <use xlink:href="#DejaVuSans-20" transform="translate(1941.482422 0)"/>
      <use xlink:href="#DejaVuSans-4e" transform="translate(1973.269531 0)"/>
      <use xlink:href="#DejaVuSans-41" transform="translate(2048.074219 0)"/>
      <use xlink:href="#DejaVuSans-54" transform="translate(2108.732422 0)"/>
      <use xlink:href="#DejaVuSans-55" transform="translate(2169.816406 0)"/>
      <use xlink:href="#DejaVuSans-52" transform="translate(2243.009766 0)"/>
      <use xlink:href="#DejaVuSans-41" transform="translate(2308.492188 0)"/>
      <use xlink:href="#DejaVuSans-4c" transform="translate(2376.900391 0)"/>
      <use xlink:href="#DejaVuSans-20" transform="translate(2432.613281 0)"/>
      <use xlink:href="#DejaVuSans-43" transform="translate(2464.400391 0)"/>
      <use xlink:href="#DejaVuSans-52" transform="translate(2534.224609 0)"/>
      <use xlink:href="#DejaVuSans-49" transform="translate(2603.707031 0)"/>
      <use xlink:href="#DejaVuSans-53" transform="translate(2633.199219 0)"/>
      <use xlink:href="#DejaVuSans-54" transform="translate(2696.675781 0)"/>
      <use xlink:href="#DejaVuSans-41" transform="translate(2750.009766 0)"/>
      <use xlink:href="#DejaVuSans-4c" transform="translate(2818.417969 0)"/>
      <use xlink:href="#DejaVuSans-49" transform="translate(2874.130859 0)"/>
      <use xlink:href="#DejaVuSans-4e" transform="translate(2903.623047 0)"/>
      <use xlink:href="#DejaVuSans-4f" transform="translate(2978.427734 0)"/>
      <use xlink:href="#DejaVuSans-20" transform="translate(3057.138672 0)"/>
      <use xlink:href="#DejaVuSans-49" transform="translate(3088.925781 0)"/>
     </g>
    </g>
    <g id="line2d_25">
     <defs>
      <path id="m38baaaba48" d="M 0 5 
C 1.326016 5 2.597899 4.473168 3.535534 3.535534 
C 4.473168 2.597899 5 1.326016 5 0 
C 5 -1.326016 4.473168 -2.597899 3.535534 -3.535534 
C 2.597899 -4.473168 1.326016 -5 0 -5 
C -1.326016 -5 -2.597899 -4.473168 -3.535534 -3.535534 
C -4.473168 -2.597899 -5 -1.326016 -5 0 
C -5 1.326016 -4.473168 2.597899 -3.535534 3.535534 
C -2.597899 4.473168 -1.326016 5 0 5 
z
"/>
     </defs>
     <g>
      <use xlink:href="#m38baaaba48" x="194.846875" y="704.647399" style="fill: #fff2ae; fill-opacity: 0.65"/>
     </g>
    </g>
    <g id="text_16">
     <!-- RESERVA PARTICULAR DO PATRIMÔNIO NATURAL CRISTALINO III -->
     <g transform="translate(212.846875 708.147399) scale(0.1 -0.1)">
      <use xlink:href="#DejaVuSans-52"/>
      <use xlink:href="#DejaVuSans-45" transform="translate(69.482422 0)"/>
      <use xlink:href="#DejaVuSans-53" transform="translate(132.666016 0)"/>
      <use xlink:href="#DejaVuSans-45" transform="translate(196.142578 0)"/>
      <use xlink:href="#DejaVuSans-52" transform="translate(259.326172 0)"/>
      <use xlink:href="#DejaVuSans-56" transform="translate(323.308594 0)"/>
      <use xlink:href="#DejaVuSans-41" transform="translate(385.341797 0)"/>
      <use xlink:href="#DejaVuSans-20" transform="translate(453.75 0)"/>
      <use xlink:href="#DejaVuSans-50" transform="translate(485.537109 0)"/>
      <use xlink:href="#DejaVuSans-41" transform="translate(539.464844 0)"/>
      <use xlink:href="#DejaVuSans-52" transform="translate(607.873047 0)"/>
      <use xlink:href="#DejaVuSans-54" transform="translate(670.105469 0)"/>
      <use xlink:href="#DejaVuSans-49" transform="translate(731.189453 0)"/>
      <use xlink:href="#DejaVuSans-43" transform="translate(760.681641 0)"/>
      <use xlink:href="#DejaVuSans-55" transform="translate(830.505859 0)"/>
      <use xlink:href="#DejaVuSans-4c" transform="translate(903.699219 0)"/>
      <use xlink:href="#DejaVuSans-41" transform="translate(961.662109 0)"/>
      <use xlink:href="#DejaVuSans-52" transform="translate(1030.070312 0)"/>
      <use xlink:href="#DejaVuSans-20" transform="translate(1099.552734 0)"/>
      <use xlink:href="#DejaVuSans-44" transform="translate(1131.339844 0)"/>
      <use xlink:href="#DejaVuSans-4f" transform="translate(1208.341797 0)"/>
      <use xlink:href="#DejaVuSans-20" transform="translate(1287.052734 0)"/>
      <use xlink:href="#DejaVuSans-50" transform="translate(1318.839844 0)"/>
      <use xlink:href="#DejaVuSans-41" transform="translate(1372.767578 0)"/>
      <use xlink:href="#DejaVuSans-54" transform="translate(1433.425781 0)"/>
      <use xlink:href="#DejaVuSans-52" transform="translate(1494.509766 0)"/>
      <use xlink:href="#DejaVuSans-49" transform="translate(1563.992188 0)"/>
      <use xlink:href="#DejaVuSans-4d" transform="translate(1593.484375 0)"/>
      <use xlink:href="#DejaVuSans-d4" transform="translate(1679.763672 0)"/>
      <use xlink:href="#DejaVuSans-4e" transform="translate(1758.474609 0)"/>
      <use xlink:href="#DejaVuSans-49" transform="translate(1833.279297 0)"/>
      <use xlink:href="#DejaVuSans-4f" transform="translate(1862.771484 0)"/>
      <use xlink:href="#DejaVuSans-20" transform="translate(1941.482422 0)"/>
      <use xlink:href="#DejaVuSans-4e" transform="translate(1973.269531 0)"/>
      <use xlink:href="#DejaVuSans-41" transform="translate(2048.074219 0)"/>
      <use xlink:href="#DejaVuSans-54" transform="translate(2108.732422 0)"/>
      <use xlink:href="#DejaVuSans-55" transform="translate(2169.816406 0)"/>
      <use xlink:href="#DejaVuSans-52" transform="translate(2243.009766 0)"/>
      <use xlink:href="#DejaVuSans-41" transform="translate(2308.492188 0)"/>
      <use xlink:href="#DejaVuSans-4c" transform="translate(2376.900391 0)"/>
      <use xlink:href="#DejaVuSans-20" transform="translate(2432.613281 0)"/>
      <use xlink:href="#DejaVuSans-43" transform="translate(2464.400391 0)"/>
      <use xlink:href="#DejaVuSans-52" transform="translate(2534.224609 0)"/>
      <use xlink:href="#DejaVuSans-49" transform="translate(2603.707031 0)"/>
      <use xlink:href="#DejaVuSans-53" transform="translate(2633.199219 0)"/>
      <use xlink:href="#DejaVuSans-54" transform="translate(2696.675781 0)"/>
      <use xlink:href="#DejaVuSans-41" transform="translate(2750.009766 0)"/>
      <use xlink:href="#DejaVuSans-4c" transform="translate(2818.417969 0)"/>
      <use xlink:href="#DejaVuSans-49" transform="translate(2874.130859 0)"/>
      <use xlink:href="#DejaVuSans-4e" transform="translate(2903.623047 0)"/>
      <use xlink:href="#DejaVuSans-4f" transform="translate(2978.427734 0)"/>
      <use xlink:href="#DejaVuSans-20" transform="translate(3057.138672 0)"/>
      <use xlink:href="#DejaVuSans-49" transform="translate(3088.925781 0)"/>
      <use xlink:href="#DejaVuSans-49" transform="translate(3118.417969 0)"/>
      <use xlink:href="#DejaVuSans-49" transform="translate(3147.910156 0)"/>
     </g>
    </g>
    <g id="line2d_26">
     <defs>
      <path id="md63b50f99c" d="M 0 5 
C 1.326016 5 2.597899 4.473168 3.535534 3.535534 
C 4.473168 2.597899 5 1.326016 5 0 
C 5 -1.326016 4.473168 -2.597899 3.535534 -3.535534 
C 2.597899 -4.473168 1.326016 -5 0 -5 
C -1.326016 -5 -2.597899 -4.473168 -3.535534 -3.535534 
C -4.473168 -2.597899 -5 -1.326016 -5 0 
C -5 1.326016 -4.473168 2.597899 -3.535534 3.535534 
C -2.597899 4.473168 -1.326016 5 0 5 
z
"/>
     </defs>
     <g>
      <use xlink:href="#md63b50f99c" x="560.595312" y="704.647399" style="fill: #cccccc; fill-opacity: 0.65"/>
     </g>
    </g>
    <g id="text_17">
     <!-- RESERVA PARTICULAR DO PATRIMÔNIO NATURAL LOTE CRISTALINO -->
     <g transform="translate(578.595312 708.147399) scale(0.1 -0.1)">
      <use xlink:href="#DejaVuSans-52"/>
      <use xlink:href="#DejaVuSans-45" transform="translate(69.482422 0)"/>
      <use xlink:href="#DejaVuSans-53" transform="translate(132.666016 0)"/>
      <use xlink:href="#DejaVuSans-45" transform="translate(196.142578 0)"/>
      <use xlink:href="#DejaVuSans-52" transform="translate(259.326172 0)"/>
      <use xlink:href="#DejaVuSans-56" transform="translate(323.308594 0)"/>
      <use xlink:href="#DejaVuSans-41" transform="translate(385.341797 0)"/>
      <use xlink:href="#DejaVuSans-20" transform="translate(453.75 0)"/>
      <use xlink:href="#DejaVuSans-50" transform="translate(485.537109 0)"/>
      <use xlink:href="#DejaVuSans-41" transform="translate(539.464844 0)"/>
      <use xlink:href="#DejaVuSans-52" transform="translate(607.873047 0)"/>
      <use xlink:href="#DejaVuSans-54" transform="translate(670.105469 0)"/>
      <use xlink:href="#DejaVuSans-49" transform="translate(731.189453 0)"/>
      <use xlink:href="#DejaVuSans-43" transform="translate(760.681641 0)"/>
      <use xlink:href="#DejaVuSans-55" transform="translate(830.505859 0)"/>
      <use xlink:href="#DejaVuSans-4c" transform="translate(903.699219 0)"/>
      <use xlink:href="#DejaVuSans-41" transform="translate(961.662109 0)"/>
      <use xlink:href="#DejaVuSans-52" transform="translate(1030.070312 0)"/>
      <use xlink:href="#DejaVuSans-20" transform="translate(1099.552734 0)"/>
      <use xlink:href="#DejaVuSans-44" transform="translate(1131.339844 0)"/>
      <use xlink:href="#DejaVuSans-4f" transform="translate(1208.341797 0)"/>
      <use xlink:href="#DejaVuSans-20" transform="translate(1287.052734 0)"/>
      <use xlink:href="#DejaVuSans-50" transform="translate(1318.839844 0)"/>
      <use xlink:href="#DejaVuSans-41" transform="translate(1372.767578 0)"/>
      <use xlink:href="#DejaVuSans-54" transform="translate(1433.425781 0)"/>
      <use xlink:href="#DejaVuSans-52" transform="translate(1494.509766 0)"/>
      <use xlink:href="#DejaVuSans-49" transform="translate(1563.992188 0)"/>
      <use xlink:href="#DejaVuSans-4d" transform="translate(1593.484375 0)"/>
      <use xlink:href="#DejaVuSans-d4" transform="translate(1679.763672 0)"/>
      <use xlink:href="#DejaVuSans-4e" transform="translate(1758.474609 0)"/>
      <use xlink:href="#DejaVuSans-49" transform="translate(1833.279297 0)"/>
      <use xlink:href="#DejaVuSans-4f" transform="translate(1862.771484 0)"/>
      <use xlink:href="#DejaVuSans-20" transform="translate(1941.482422 0)"/>
      <use xlink:href="#DejaVuSans-4e" transform="translate(1973.269531 0)"/>
      <use xlink:href="#DejaVuSans-41" transform="translate(2048.074219 0)"/>
      <use xlink:href="#DejaVuSans-54" transform="translate(2108.732422 0)"/>
      <use xlink:href="#DejaVuSans-55" transform="translate(2169.816406 0)"/>
      <use xlink:href="#DejaVuSans-52" transform="translate(2243.009766 0)"/>
      <use xlink:href="#DejaVuSans-41" transform="translate(2308.492188 0)"/>
      <use xlink:href="#DejaVuSans-4c" transform="translate(2376.900391 0)"/>
      <use xlink:href="#DejaVuSans-20" transform="translate(2432.613281 0)"/>
      <use xlink:href="#DejaVuSans-4c" transform="translate(2464.400391 0)"/>
      <use xlink:href="#DejaVuSans-4f" transform="translate(2516.488281 0)"/>
      <use xlink:href="#DejaVuSans-54" transform="translate(2595.199219 0)"/>
      <use xlink:href="#DejaVuSans-45" transform="translate(2656.283203 0)"/>
      <use xlink:href="#DejaVuSans-20" transform="translate(2719.466797 0)"/>
      <use xlink:href="#DejaVuSans-43" transform="translate(2751.253906 0)"/>
      <use xlink:href="#DejaVuSans-52" transform="translate(2821.078125 0)"/>
      <use xlink:href="#DejaVuSans-49" transform="translate(2890.560547 0)"/>
      <use xlink:href="#DejaVuSans-53" transform="translate(2920.052734 0)"/>
      <use xlink:href="#DejaVuSans-54" transform="translate(2983.529297 0)"/>
      <use xlink:href="#DejaVuSans-41" transform="translate(3036.863281 0)"/>
      <use xlink:href="#DejaVuSans-4c" transform="translate(3105.271484 0)"/>
      <use xlink:href="#DejaVuSans-49" transform="translate(3160.984375 0)"/>
      <use xlink:href="#DejaVuSans-4e" transform="translate(3190.476562 0)"/>
      <use xlink:href="#DejaVuSans-4f" transform="translate(3265.28125 0)"/>
     </g>
    </g>
   </g>
  </g>
 </g>
 <defs>
  <clipPath id="pdd9110e68b">
   <rect x="90" y="254.013599" width="558" height="364.612802"/>
  </clipPath>
 </defs>
</svg>
