<?xml version="1.0" encoding="utf-8" standalone="no"?>
<!DOCTYPE svg PUBLIC "-//W3C//DTD SVG 1.1//EN"
  "http://www.w3.org/Graphics/SVG/1.1/DTD/svg11.dtd">
<svg xmlns:xlink="http://www.w3.org/1999/xlink" width="720pt" height="864pt" viewBox="0 0 720 864" xmlns="http://www.w3.org/2000/svg" version="1.1">
 <metadata>
  <rdf:RDF xmlns:dc="http://purl.org/dc/elements/1.1/" xmlns:cc="http://creativecommons.org/ns#" xmlns:rdf="http://www.w3.org/1999/02/22-rdf-syntax-ns#">
   <cc:Work>
    <dc:type rdf:resource="http://purl.org/dc/dcmitype/StillImage"/>
    <dc:date>2025-06-16T17:45:03.047862</dc:date>
    <dc:format>image/svg+xml</dc:format>
    <dc:creator>
     <cc:Agent>
      <dc:title>Matplotlib v3.10.1, https://matplotlib.org/</dc:title>
     </cc:Agent>
    </dc:creator>
   </cc:Work>
  </rdf:RDF>
 </metadata>
 <defs>
  <style type="text/css">*{stroke-linejoin: round; stroke-linecap: butt}</style>
 </defs>
 <g id="figure_1">
  <g id="patch_1">
   <path d="M 0 864 
L 720 864 
L 720 0 
L 0 0 
z
" style="fill: #ffffff"/>
  </g>
  <g id="axes_1">
   <g id="patch_2">
    <path d="M 166.098678 768.96 
L 571.901322 768.96 
L 571.901322 103.68 
L 166.098678 103.68 
z
" style="fill: #ffffff"/>
   </g>
   <g id="PatchCollection_1">
    <path d="M 232.472855 738.72 
L 184.544253 704.215128 
L 210.676316 651.87715 
L 269.459142 525.745381 
L 301.478591 456.994728 
L 317.324613 435.752285 
L 322.426524 429.009814 
L 350.48777 341.692979 
L 360.343635 311.01199 
L 462.359837 174.513519 
L 495.299831 133.92 
L 495.451054 136.238106 
L 495.835716 137.692065 
L 498.52835 139.243565 
L 500.25933 141.762848 
L 501.028654 143.895017 
L 500.930286 147.770719 
L 501.79651 149.416711 
L 500.833386 150.094921 
L 501.31348 151.257784 
L 501.121149 153.098857 
L 501.215112 156.005252 
L 499.867327 158.038357 
L 499.865858 160.944752 
L 499.095066 163.464035 
L 497.650381 164.81893 
L 497.265719 166.562463 
L 495.628703 168.597092 
L 495.338004 169.855971 
L 495.819566 171.8906 
L 496.10586 174.700979 
L 495.838652 178.04021 
L 525.398905 157.315949 
L 525.369542 157.2748 
L 533.583986 152.150887 
L 553.455747 166.696581 
L 531.591671 206.486917 
L 472.534296 311.621617 
L 412.480029 431.614444 
L 391.06962 479.340596 
L 296.370807 623.194213 
L 263.896224 683.079369 
L 232.472855 738.72 
" clip-path="url(#p42f26d9b23)" style="fill: #b3e2cd; fill-opacity: 0.65"/>
   </g>
   <g id="PatchCollection_2">
    <path d="M 463.310913 172.577375 
L 393.087346 269.66054 
L 384.358911 278.49095 
L 358.547571 312.954322 
L 353.88692 327.957921 
L 317.966036 435.210792 
L 316.218424 435.143074 
L 313.171412 434.115792 
L 310.563414 432.876629 
L 309.761961 431.805305 
L 310.358988 429.464014 
L 310.397 428.634173 
L 310.178533 428.356299 
L 309.749422 428.428033 
L 308.441795 427.132392 
L 308.086395 426.683926 
L 307.729763 426.743473 
L 307.632244 426.604065 
L 307.321344 426.555363 
L 306.957422 426.642045 
L 306.380002 426.926904 
L 304.120472 427.666668 
L 303.808853 427.147149 
L 303.873547 426.610959 
L 303.793397 426.122422 
L 303.515242 425.693188 
L 303.352786 424.685521 
L 303.442794 424.299959 
L 303.764973 423.92733 
L 303.693374 423.386719 
L 303.414368 422.986557 
L 303.091063 422.761333 
L 302.691889 422.769158 
L 301.639707 423.664836 
L 301.689832 424.17332 
L 301.503713 424.136462 
L 301.287021 423.376472 
L 301.491942 422.75763 
L 301.608074 422.035488 
L 301.489131 421.575566 
L 301.159776 421.249888 
L 300.754085 421.207136 
L 299.641486 421.737608 
L 299.418024 421.531093 
L 299.311333 421.267528 
L 298.973213 420.942527 
L 297.892011 419.719157 
L 297.854861 419.497418 
L 297.505129 418.653778 
L 297.753412 418.463362 
L 298.085146 418.367561 
L 298.563787 418.090047 
L 298.915427 417.707535 
L 299.033734 417.746799 
L 299.154036 417.963808 
L 299.1565 418.212651 
L 299.343484 418.577992 
L 299.683263 418.763969 
L 299.970567 418.712482 
L 300.641527 418.062195 
L 301.080587 418.025619 
L 301.213182 417.902173 
L 301.506114 417.839118 
L 301.819139 417.440577 
L 301.815558 416.959012 
L 301.556602 416.644574 
L 300.826753 416.542076 
L 300.435389 416.306715 
L 299.969369 415.702833 
L 299.745 415.204763 
L 299.855403 414.957699 
L 300.045244 414.968107 
L 300.039457 414.749986 
L 300.275169 414.651182 
L 300.563672 414.626702 
L 300.951738 414.371542 
L 301.033407 414.09496 
L 300.990746 413.777317 
L 300.682845 413.629681 
L 300.100702 412.500982 
L 299.848178 412.196194 
L 299.446765 412.011664 
L 298.927053 411.907192 
L 298.76327 411.992986 
L 298.486481 411.956025 
L 298.328493 411.38638 
L 298.507433 411.09544 
L 298.677266 410.369088 
L 298.506999 410.003489 
L 298.072505 410.0081 
L 297.823742 410.26796 
L 297.37497 410.302177 
L 296.521942 409.87918 
L 296.296819 409.697049 
L 295.952574 409.228052 
L 295.688827 409.043672 
L 295.604546 408.835521 
L 295.64361 408.443841 
L 295.121321 407.833687 
L 295.344017 407.366157 
L 295.248944 407.132778 
L 295.07444 407.007885 
L 294.870043 407.03521 
L 294.172754 407.723761 
L 294.175686 408.040395 
L 293.985383 408.079999 
L 293.754333 407.932995 
L 293.477276 407.162872 
L 293.601377 407.039696 
L 294.042807 406.95353 
L 294.158527 406.607682 
L 294.091246 406.387424 
L 293.252137 405.90243 
L 293.072909 405.838844 
L 292.840889 405.947431 
L 292.4254 406.474676 
L 292.336624 406.124599 
L 292.595505 406.003368 
L 292.918484 405.523002 
L 293.034625 405.290828 
L 292.927282 405.008245 
L 292.731677 404.891731 
L 292.396973 404.838027 
L 291.563979 405.129594 
L 291.198423 405.468817 
L 290.955492 405.535916 
L 290.731749 405.713266 
L 290.713514 406.091328 
L 289.693007 406.977633 
L 289.41959 406.869984 
L 288.40208 405.843137 
L 287.143899 406.025075 
L 286.756335 406.200578 
L 286.184806 406.740586 
L 285.271275 406.42372 
L 284.974023 406.439219 
L 284.44026 406.772176 
L 284.224435 407.443628 
L 284.029843 407.63823 
L 283.782297 407.666462 
L 283.470198 407.371099 
L 283.579945 406.87079 
L 284.150682 405.477205 
L 284.624277 404.341854 
L 285.080498 403.779945 
L 285.248467 403.149634 
L 285.009305 403.036647 
L 283.572499 403.23848 
L 283.251526 403.395594 
L 283.222226 403.739885 
L 283.389583 404.1172 
L 283.382438 404.491693 
L 283.165502 404.584168 
L 281.839037 404.121307 
L 281.276755 404.244516 
L 281.005427 403.994805 
L 281.232929 403.76814 
L 281.46881 403.75767 
L 282.062693 403.432229 
L 281.854759 402.731346 
L 281.606502 402.313288 
L 281.407995 401.988708 
L 281.281796 401.440035 
L 281.373021 401.320545 
L 282.134912 401.15844 
L 282.855151 400.888536 
L 282.872309 400.38371 
L 282.6468 400.074668 
L 282.696601 399.531851 
L 283.190319 398.994928 
L 283.116639 398.749032 
L 282.910943 398.719168 
L 282.759065 398.462984 
L 282.442459 398.165272 
L 282.264492 397.609788 
L 282.017923 396.801937 
L 282.052413 395.880468 
L 281.857839 395.828294 
L 281.214296 394.111143 
L 280.331379 392.477345 
L 279.707504 391.641215 
L 279.071283 391.05887 
L 277.249054 390.833772 
L 276.385922 390.568334 
L 275.123668 389.72358 
L 274.91001 389.483439 
L 274.77999 389.168306 
L 275.061558 388.735032 
L 275.647854 389.016677 
L 275.873847 388.902585 
L 276.151846 388.591107 
L 276.321963 388.587452 
L 276.499146 388.74777 
L 276.63658 389.281577 
L 276.900511 389.402316 
L 277.848291 389.313331 
L 277.939967 389.040486 
L 277.766306 388.21274 
L 277.640677 387.421426 
L 277.577951 386.9504 
L 277.606502 386.31414 
L 275.41369 385.841817 
L 274.722065 384.64074 
L 274.024361 384.181767 
L 273.380606 384.083443 
L 272.877233 384.337466 
L 272.35329 384.266151 
L 272.009295 384.100807 
L 270.984495 383.781423 
L 270.580547 383.35628 
L 270.438278 382.981882 
L 270.647349 382.584761 
L 270.2238 382.288423 
L 269.839039 382.312758 
L 269.500064 382.189993 
L 269.221863 381.870269 
L 268.88592 381.732075 
L 268.77754 381.538354 
L 269.155158 381.302098 
L 269.426137 380.676604 
L 269.284869 379.469707 
L 268.437027 378.7081 
L 268.510955 378.506471 
L 268.726742 378.332848 
L 269.629104 378.858632 
L 269.777792 378.559817 
L 269.568366 377.654587 
L 269.597505 377.111334 
L 269.934607 376.850363 
L 269.788299 375.848622 
L 269.608459 375.628222 
L 269.292189 375.536349 
L 269.31173 375.345126 
L 268.827503 375.289562 
L 268.709277 374.971684 
L 268.817452 374.877433 
L 269.198076 374.754301 
L 269.504391 374.466977 
L 269.52409 373.343634 
L 269.238753 373.270261 
L 268.801816 373.413028 
L 268.600743 373.768133 
L 268.70707 373.958406 
L 268.458341 374.079355 
L 268.474173 373.898048 
L 268.281731 373.680802 
L 267.956761 373.650369 
L 267.761337 373.40749 
L 267.870503 373.172561 
L 268.123001 373.105905 
L 268.25465 373.193972 
L 268.523468 373.10901 
L 267.996799 371.677189 
L 267.288664 371.155083 
L 267.223151 370.284611 
L 266.19129 369.503483 
L 265.759533 369.330034 
L 265.403638 368.715762 
L 265.68205 368.396303 
L 265.995879 368.347498 
L 266.322383 367.78394 
L 266.617989 367.740624 
L 266.475729 367.141633 
L 266.196906 367.01012 
L 265.904598 367.157193 
L 265.233413 367.235322 
L 264.671741 367.017483 
L 264.295354 367.040857 
L 264.104603 366.903388 
L 264.163398 366.644699 
L 264.354851 366.542284 
L 264.653096 366.807336 
L 264.934936 366.822288 
L 265.690125 365.797537 
L 265.686357 365.516036 
L 264.85311 364.840829 
L 264.391351 365.019108 
L 264.053081 365.34676 
L 263.846612 365.296765 
L 263.770224 365.155992 
L 263.326949 364.888004 
L 263.140394 365.016741 
L 262.95176 364.941829 
L 262.633869 364.505344 
L 262.5934 364.223523 
L 262.865526 363.778122 
L 263.015927 362.860104 
L 263.201 362.709456 
L 263.807791 362.532598 
L 264.635816 362.424903 
L 264.939385 362.587725 
L 266.111987 362.709449 
L 266.335397 362.339905 
L 266.302627 362.030812 
L 265.416998 361.641723 
L 265.398258 361.396855 
L 265.559698 361.082074 
L 266.09218 360.627069 
L 267.258918 360.040011 
L 268.113626 359.831204 
L 268.506117 359.50568 
L 268.393904 359.089431 
L 268.515488 359.00112 
L 269.638976 358.725534 
L 269.880001 358.96516 
L 269.872737 359.313198 
L 270.270549 360.4923 
L 270.640619 360.819988 
L 271.044791 360.689305 
L 270.944638 359.574634 
L 271.060856 359.391933 
L 271.853151 359.26337 
L 271.808402 359.003314 
L 271.291043 358.959563 
L 271.284906 358.708235 
L 271.576528 358.553302 
L 271.803234 358.167361 
L 272.123882 358.13399 
L 272.5371 358.570304 
L 273.14396 358.208518 
L 272.810097 357.953076 
L 272.809964 357.718427 
L 273.167208 357.313765 
L 274.083947 356.986934 
L 275.174259 356.962196 
L 275.323027 356.582223 
L 275.266596 356.355636 
L 275.393702 356.227371 
L 275.583917 356.354361 
L 275.894794 356.24216 
L 275.882704 355.809223 
L 275.424022 355.136556 
L 275.254685 354.609599 
L 274.621658 354.176471 
L 274.596977 353.969074 
L 274.977829 353.514009 
L 274.78973 353.221127 
L 274.118544 353.557899 
L 274.027807 353.505432 
L 273.687426 352.859222 
L 273.562693 352.834822 
L 273.531756 352.706782 
L 273.786074 352.360418 
L 274.172679 352.250652 
L 274.176081 351.921899 
L 273.842182 351.238219 
L 273.970422 350.960734 
L 274.391127 350.734304 
L 274.501904 349.936105 
L 274.414573 348.392937 
L 274.195238 347.881488 
L 274.256523 347.707263 
L 274.668253 347.30666 
L 274.508166 346.953599 
L 274.103501 346.938372 
L 273.819378 346.7844 
L 273.775895 346.612529 
L 273.862876 346.481186 
L 275.173667 345.386115 
L 275.353816 345.333695 
L 275.503463 345.480616 
L 275.58777 345.758906 
L 275.825605 345.911719 
L 276.237715 345.884101 
L 276.312741 345.669658 
L 277.074946 345.359719 
L 277.175039 345.023364 
L 277.029664 344.618652 
L 277.159847 344.314437 
L 277.098562 344.140203 
L 278.027055 344.031351 
L 278.035842 344.480957 
L 277.894961 344.799351 
L 278.12266 345.072161 
L 278.445875 344.822325 
L 278.566497 344.495501 
L 278.577489 344.112883 
L 279.100365 343.985497 
L 279.336921 344.17909 
L 279.666213 344.706648 
L 279.977328 344.850174 
L 280.224671 344.601486 
L 280.304954 344.103209 
L 281.117932 343.816881 
L 281.651189 343.475521 
L 282.10223 343.64842 
L 282.359231 343.334707 
L 282.009781 341.644352 
L 282.474641 340.166728 
L 282.794247 340.307368 
L 282.826571 340.659311 
L 283.086011 341.433972 
L 283.585047 341.430972 
L 284.114354 341.064664 
L 284.520711 341.032344 
L 284.963682 340.478546 
L 284.87369 339.898638 
L 284.251078 339.233234 
L 283.989015 339.309262 
L 283.67493 339.607203 
L 283.251623 339.258386 
L 283.334429 339.179531 
L 285.280431 337.975893 
L 285.405597 337.738633 
L 285.365563 337.420438 
L 284.839827 336.829139 
L 284.105507 336.969929 
L 283.958474 336.692394 
L 284.962077 335.91011 
L 285.099371 335.604936 
L 285.368109 335.318101 
L 285.258503 335.004924 
L 284.964183 335.029108 
L 284.26421 335.315165 
L 284.22663 335.127457 
L 284.477922 334.88869 
L 284.710482 334.861955 
L 285.333911 334.329584 
L 284.721722 333.779107 
L 284.813002 333.713351 
L 284.716218 333.563327 
L 284.321731 333.762521 
L 284.14105 334.285209 
L 284.066316 334.490974 
L 283.785959 334.402051 
L 283.257776 334.039884 
L 283.153735 333.652171 
L 283.31977 333.006286 
L 283.631562 332.909923 
L 284.13052 332.962588 
L 284.28927 332.576145 
L 284.000699 332.009784 
L 284.345077 331.918006 
L 284.75068 331.577043 
L 285.053014 331.487007 
L 285.008555 331.207663 
L 284.793852 330.949478 
L 283.931296 330.915406 
L 284.177452 330.733815 
L 285.234512 330.726363 
L 286.054694 330.572855 
L 286.490835 330.34863 
L 286.687199 330.117515 
L 286.485345 329.520805 
L 285.732238 329.101615 
L 284.781519 329.285972 
L 284.935655 329.099726 
L 285.760068 328.834893 
L 285.899068 328.59131 
L 286.173301 328.523286 
L 286.80167 327.368676 
L 286.653499 326.64995 
L 286.778687 326.388438 
L 287.089663 326.039923 
L 287.015938 325.845008 
L 286.814165 325.779051 
L 286.35624 325.89812 
L 286.333235 325.538334 
L 286.118115 325.168543 
L 286.718439 325.063968 
L 286.904119 324.591576 
L 287.137505 324.555057 
L 287.208352 324.391311 
L 287.027489 324.121454 
L 286.792152 324.068962 
L 286.792501 323.882813 
L 286.90583 323.692248 
L 287.175084 323.782946 
L 287.16036 323.966185 
L 287.543511 324.089532 
L 287.844335 323.995771 
L 287.955647 323.771996 
L 287.903077 323.518409 
L 287.570554 323.068843 
L 287.471125 322.59874 
L 287.275432 322.485392 
L 286.59177 322.664964 
L 286.498391 322.65342 
L 286.397103 322.493058 
L 286.44028 322.216709 
L 286.600152 321.919551 
L 286.797129 321.866455 
L 287.204466 322.033096 
L 287.538177 321.919118 
L 287.692573 321.739623 
L 287.658408 321.558257 
L 287.278281 321.066473 
L 287.29259 320.647344 
L 287.434123 320.579992 
L 287.448341 320.239263 
L 287.19806 320.20439 
L 287.11289 320.320583 
L 286.967331 320.315593 
L 286.743918 320.015512 
L 286.587929 319.671417 
L 286.478956 318.806958 
L 286.969492 317.940161 
L 287.11663 317.999992 
L 287.645641 318.337076 
L 287.753025 318.193626 
L 287.689803 317.916052 
L 287.383704 317.596448 
L 287.311541 317.474287 
L 287.472936 317.279919 
L 287.618617 317.055495 
L 287.475774 316.711416 
L 287.496183 316.585778 
L 287.07977 316.339487 
L 287.016935 316.443306 
L 286.820231 316.379973 
L 286.982168 316.309889 
L 287.289916 315.781282 
L 287.249329 315.589161 
L 287.061863 315.470587 
L 286.528509 315.703932 
L 286.427401 316.107115 
L 286.365984 316.04821 
L 286.223423 315.818493 
L 286.266363 315.629086 
L 286.435157 315.430456 
L 286.518887 315.015954 
L 286.398718 314.843307 
L 285.744325 314.947543 
L 285.617064 314.750774 
L 285.603771 314.64053 
L 286.217302 314.22485 
L 286.100203 314.002052 
L 285.419753 313.663688 
L 285.404108 313.334912 
L 285.163564 312.934088 
L 285.223538 312.9365 
L 285.492884 312.938603 
L 286.163867 313.652011 
L 286.64565 313.129669 
L 286.701257 312.8791 
L 286.321807 312.284665 
L 286.055608 312.285321 
L 285.938642 312.426693 
L 285.508059 312.361986 
L 285.24539 312.149766 
L 285.265216 312.055819 
L 286.708057 311.719361 
L 287.284382 311.262713 
L 287.23484 310.99728 
L 286.857047 310.99271 
L 286.513861 311.141123 
L 286.386819 311.113005 
L 286.225096 310.757743 
L 286.296073 310.597855 
L 286.803442 310.328794 
L 286.666121 309.94931 
L 286.517947 309.960575 
L 286.349826 309.692524 
L 286.654483 309.467595 
L 287.198731 309.99939 
L 287.464706 309.833388 
L 288.422678 308.755211 
L 288.971981 307.486416 
L 289.437477 307.307414 
L 289.505623 307.105635 
L 289.918153 306.417452 
L 290.037603 306.49778 
L 290.126799 306.813964 
L 290.101309 307.196154 
L 290.303599 307.401273 
L 290.559791 307.407491 
L 290.705201 307.295499 
L 291.065351 306.67036 
L 290.985353 306.453806 
L 290.818403 306.359783 
L 290.630588 305.947863 
L 290.170427 305.769593 
L 290.16793 305.555608 
L 290.603369 305.071236 
L 290.76541 305.145963 
L 291.660529 304.655224 
L 292.126899 304.302884 
L 292.434558 304.323488 
L 292.811139 304.05785 
L 292.696363 303.839742 
L 292.301921 303.670506 
L 292.309342 303.524323 
L 292.561828 303.413278 
L 293.032337 303.641849 
L 293.299771 303.265306 
L 294.10515 302.689444 
L 293.963206 302.398416 
L 293.582961 302.02362 
L 293.763817 301.925583 
L 294.386147 301.815231 
L 294.564615 301.647885 
L 293.193854 300.760092 
L 293.237117 300.521219 
L 293.436067 300.405153 
L 293.564071 299.814745 
L 294.260737 299.468587 
L 294.899735 299.018058 
L 294.82947 298.791044 
L 294.640757 298.56872 
L 294.807085 298.481 
L 294.949013 298.540546 
L 295.410003 298.458118 
L 295.34006 297.326123 
L 295.533254 297.212529 
L 295.632044 296.660255 
L 295.796329 296.43819 
L 295.610623 296.221794 
L 294.644461 296.228972 
L 294.667832 296.144811 
L 295.177442 295.680357 
L 295.314334 295.711375 
L 295.904426 295.519965 
L 295.820904 295.27034 
L 295.781177 294.794243 
L 295.92534 294.688723 
L 296.244911 294.701621 
L 296.576396 293.848543 
L 296.421242 293.493982 
L 296.670277 293.028819 
L 296.720482 293.070763 
L 298.33808 293.229236 
L 298.479409 293.333974 
L 298.594256 293.612569 
L 298.846439 293.642888 
L 299.175955 293.327999 
L 299.731625 292.057124 
L 299.957759 291.493553 
L 299.860222 291.16193 
L 299.677226 291.095727 
L 299.725906 290.906187 
L 300.397566 290.489578 
L 300.369856 290.286863 
L 299.556032 289.988753 
L 299.295922 289.449305 
L 299.109507 288.509806 
L 298.590687 287.532046 
L 299.348541 287.419905 
L 299.43254 287.236054 
L 299.187215 286.826141 
L 298.789767 286.542685 
L 299.014656 285.738951 
L 298.218604 285.355016 
L 298.278512 285.163835 
L 298.54056 285.058308 
L 298.37492 284.777727 
L 298.411839 284.574533 
L 298.226995 283.705445 
L 298.379088 283.605031 
L 298.708378 283.610634 
L 298.780139 283.472652 
L 298.731462 283.287412 
L 298.814013 283.286258 
L 324.405537 301.083121 
L 338.386653 248.515086 
L 279.907578 211.026014 
L 279.554324 209.385139 
L 280.298885 209.248087 
L 280.407959 209.03368 
L 280.363706 208.711757 
L 280.499879 207.909169 
L 280.667165 207.78329 
L 280.563217 206.522416 
L 280.715262 205.486986 
L 280.66652 204.54667 
L 280.944432 204.638761 
L 281.251612 204.514698 
L 281.548944 204.265099 
L 281.686894 204.411866 
L 281.884104 205.282221 
L 282.137094 205.143902 
L 282.799558 203.415583 
L 283.114351 203.097247 
L 283.53877 202.915585 
L 284.008429 201.835878 
L 283.917299 201.445146 
L 283.631604 201.099658 
L 283.583189 200.823476 
L 283.804045 200.531899 
L 284.729424 200.860766 
L 285.226934 200.680427 
L 285.440203 200.197867 
L 286.33673 199.657396 
L 285.8994 199.401848 
L 285.711203 199.263844 
L 285.17235 198.489272 
L 284.685278 198.282579 
L 284.599955 197.961712 
L 284.686865 197.851996 
L 284.881816 197.826731 
L 285.025261 197.594863 
L 284.990689 197.302439 
L 284.732787 196.95409 
L 284.827591 196.883515 
L 285.821003 196.480394 
L 285.882455 196.60902 
L 285.838418 196.814686 
L 286.138567 197.087712 
L 286.406989 196.852681 
L 286.75032 196.588111 
L 287.03921 196.288342 
L 287.011448 196.144874 
L 287.463362 195.365104 
L 288.077604 194.838221 
L 288.882643 193.474772 
L 288.981958 192.922359 
L 289.35507 192.704117 
L 289.396665 192.476402 
L 289.801586 192.088992 
L 289.914699 191.315308 
L 290.114959 191.190839 
L 290.131591 191.0076 
L 289.99467 190.921052 
L 290.152417 190.50222 
L 290.152972 190.130195 
L 290.419001 190.06808 
L 290.688624 190.340517 
L 291.517249 189.774739 
L 291.560586 190.19063 
L 291.717669 190.363318 
L 292.217806 189.895959 
L 292.656429 189.843958 
L 292.829604 190.071089 
L 293.014969 190.536055 
L 293.237531 190.542094 
L 293.408225 190.293029 
L 293.826463 190.232461 
L 294.139346 189.887105 
L 294.444249 189.57784 
L 294.323447 189.397065 
L 294.784878 188.402897 
L 295.379398 188.110491 
L 295.572771 188.145017 
L 295.733795 188.344851 
L 296.134586 188.338686 
L 296.385007 188.153918 
L 296.819871 188.032187 
L 297.041403 187.72944 
L 297.14203 187.711088 
L 297.249359 187.821438 
L 297.400784 187.7884 
L 297.52049 187.59756 
L 297.712227 187.501599 
L 298.287613 187.552945 
L 298.413907 187.344889 
L 298.828701 187.55024 
L 299.488191 186.671199 
L 299.563582 186.321992 
L 299.340613 186.065322 
L 299.12146 185.699391 
L 299.165339 185.628617 
L 299.453047 185.513608 
L 299.467193 185.34511 
L 299.290422 185.150083 
L 299.325291 184.932831 
L 299.001366 184.621623 
L 298.940151 184.524139 
L 299.002053 184.244224 
L 298.724847 183.770065 
L 299.723881 183.179377 
L 299.80654 182.943438 
L 299.570957 182.332228 
L 299.720816 182.227124 
L 299.65862 182.02561 
L 298.666158 180.495207 
L 298.644784 180.140656 
L 298.491422 179.446588 
L 298.700078 179.519847 
L 298.895842 179.741214 
L 299.660073 179.695076 
L 300.115241 180.14642 
L 300.675153 180.192095 
L 300.969865 179.925251 
L 301.063866 179.452606 
L 301.01993 178.697344 
L 300.936135 178.219543 
L 301.005026 178.179936 
L 301.313793 178.327985 
L 301.5789 178.096243 
L 301.360848 177.223808 
L 302.294412 176.805624 
L 324.166151 190.468472 
L 315.356274 203.399325 
L 346.100699 223.235481 
L 366.605405 235.650697 
L 391.135603 217.253726 
L 439.670371 183.224288 
L 450.092701 173.724858 
L 463.310913 172.577375 
L 463.310913 172.577375 
" clip-path="url(#p42f26d9b23)" style="fill: none; stroke: #000000; stroke-width: 2"/>
   </g>
   <g id="matplotlib.axis_1">
    <g id="xtick_1">
     <g id="line2d_1">
      <path d="M 205.950258 768.96 
L 205.950258 103.68 
" clip-path="url(#p42f26d9b23)" style="fill: none; stroke: #b0b0b0; stroke-width: 0.8; stroke-linecap: square"/>
     </g>
     <g id="line2d_2">
      <defs>
       <path id="m13ff4ce3ba" d="M 0 0 
L 0 3.5 
" style="stroke: #000000; stroke-width: 0.8"/>
      </defs>
      <g>
       <use xlink:href="#m13ff4ce3ba" x="205.950258" y="768.96" style="stroke: #000000; stroke-width: 0.8"/>
      </g>
     </g>
     <g id="text_1">
      <!-- −57.30 -->
      <g transform="translate(194.817193 807.501382) rotate(-45) scale(0.1 -0.1)">
       <defs>
        <path id="DejaVuSans-2212" d="M 678 2272 
L 4684 2272 
L 4684 1741 
L 678 1741 
L 678 2272 
z
" transform="scale(0.015625)"/>
        <path id="DejaVuSans-35" d="M 691 4666 
L 3169 4666 
L 3169 4134 
L 1269 4134 
L 1269 2991 
Q 1406 3038 1543 3061 
Q 1681 3084 1819 3084 
Q 2600 3084 3056 2656 
Q 3513 2228 3513 1497 
Q 3513 744 3044 326 
Q 2575 -91 1722 -91 
Q 1428 -91 1123 -41 
Q 819 9 494 109 
L 494 744 
Q 775 591 1075 516 
Q 1375 441 1709 441 
Q 2250 441 2565 725 
Q 2881 1009 2881 1497 
Q 2881 1984 2565 2268 
Q 2250 2553 1709 2553 
Q 1456 2553 1204 2497 
Q 953 2441 691 2322 
L 691 4666 
z
" transform="scale(0.015625)"/>
        <path id="DejaVuSans-37" d="M 525 4666 
L 3525 4666 
L 3525 4397 
L 1831 0 
L 1172 0 
L 2766 4134 
L 525 4134 
L 525 4666 
z
" transform="scale(0.015625)"/>
        <path id="DejaVuSans-2e" d="M 684 794 
L 1344 794 
L 1344 0 
L 684 0 
L 684 794 
z
" transform="scale(0.015625)"/>
        <path id="DejaVuSans-33" d="M 2597 2516 
Q 3050 2419 3304 2112 
Q 3559 1806 3559 1356 
Q 3559 666 3084 287 
Q 2609 -91 1734 -91 
Q 1441 -91 1130 -33 
Q 819 25 488 141 
L 488 750 
Q 750 597 1062 519 
Q 1375 441 1716 441 
Q 2309 441 2620 675 
Q 2931 909 2931 1356 
Q 2931 1769 2642 2001 
Q 2353 2234 1838 2234 
L 1294 2234 
L 1294 2753 
L 1863 2753 
Q 2328 2753 2575 2939 
Q 2822 3125 2822 3475 
Q 2822 3834 2567 4026 
Q 2313 4219 1838 4219 
Q 1578 4219 1281 4162 
Q 984 4106 628 3988 
L 628 4550 
Q 988 4650 1302 4700 
Q 1616 4750 1894 4750 
Q 2613 4750 3031 4423 
Q 3450 4097 3450 3541 
Q 3450 3153 3228 2886 
Q 3006 2619 2597 2516 
z
" transform="scale(0.015625)"/>
        <path id="DejaVuSans-30" d="M 2034 4250 
Q 1547 4250 1301 3770 
Q 1056 3291 1056 2328 
Q 1056 1369 1301 889 
Q 1547 409 2034 409 
Q 2525 409 2770 889 
Q 3016 1369 3016 2328 
Q 3016 3291 2770 3770 
Q 2525 4250 2034 4250 
z
M 2034 4750 
Q 2819 4750 3233 4129 
Q 3647 3509 3647 2328 
Q 3647 1150 3233 529 
Q 2819 -91 2034 -91 
Q 1250 -91 836 529 
Q 422 1150 422 2328 
Q 422 3509 836 4129 
Q 1250 4750 2034 4750 
z
" transform="scale(0.015625)"/>
       </defs>
       <use xlink:href="#DejaVuSans-2212"/>
       <use xlink:href="#DejaVuSans-35" transform="translate(83.789062 0)"/>
       <use xlink:href="#DejaVuSans-37" transform="translate(147.412109 0)"/>
       <use xlink:href="#DejaVuSans-2e" transform="translate(211.035156 0)"/>
       <use xlink:href="#DejaVuSans-33" transform="translate(242.822266 0)"/>
       <use xlink:href="#DejaVuSans-30" transform="translate(306.445312 0)"/>
      </g>
     </g>
    </g>
    <g id="xtick_2">
     <g id="line2d_3">
      <path d="M 279.359053 768.96 
L 279.359053 103.68 
" clip-path="url(#p42f26d9b23)" style="fill: none; stroke: #b0b0b0; stroke-width: 0.8; stroke-linecap: square"/>
     </g>
     <g id="line2d_4">
      <g>
       <use xlink:href="#m13ff4ce3ba" x="279.359053" y="768.96" style="stroke: #000000; stroke-width: 0.8"/>
      </g>
     </g>
     <g id="text_2">
      <!-- −57.25 -->
      <g transform="translate(268.225988 807.501382) rotate(-45) scale(0.1 -0.1)">
       <defs>
        <path id="DejaVuSans-32" d="M 1228 531 
L 3431 531 
L 3431 0 
L 469 0 
L 469 531 
Q 828 903 1448 1529 
Q 2069 2156 2228 2338 
Q 2531 2678 2651 2914 
Q 2772 3150 2772 3378 
Q 2772 3750 2511 3984 
Q 2250 4219 1831 4219 
Q 1534 4219 1204 4116 
Q 875 4013 500 3803 
L 500 4441 
Q 881 4594 1212 4672 
Q 1544 4750 1819 4750 
Q 2544 4750 2975 4387 
Q 3406 4025 3406 3419 
Q 3406 3131 3298 2873 
Q 3191 2616 2906 2266 
Q 2828 2175 2409 1742 
Q 1991 1309 1228 531 
z
" transform="scale(0.015625)"/>
       </defs>
       <use xlink:href="#DejaVuSans-2212"/>
       <use xlink:href="#DejaVuSans-35" transform="translate(83.789062 0)"/>
       <use xlink:href="#DejaVuSans-37" transform="translate(147.412109 0)"/>
       <use xlink:href="#DejaVuSans-2e" transform="translate(211.035156 0)"/>
       <use xlink:href="#DejaVuSans-32" transform="translate(242.822266 0)"/>
       <use xlink:href="#DejaVuSans-35" transform="translate(306.445312 0)"/>
      </g>
     </g>
    </g>
    <g id="xtick_3">
     <g id="line2d_5">
      <path d="M 352.767847 768.96 
L 352.767847 103.68 
" clip-path="url(#p42f26d9b23)" style="fill: none; stroke: #b0b0b0; stroke-width: 0.8; stroke-linecap: square"/>
     </g>
     <g id="line2d_6">
      <g>
       <use xlink:href="#m13ff4ce3ba" x="352.767847" y="768.96" style="stroke: #000000; stroke-width: 0.8"/>
      </g>
     </g>
     <g id="text_3">
      <!-- −57.20 -->
      <g transform="translate(341.634782 807.501382) rotate(-45) scale(0.1 -0.1)">
       <use xlink:href="#DejaVuSans-2212"/>
       <use xlink:href="#DejaVuSans-35" transform="translate(83.789062 0)"/>
       <use xlink:href="#DejaVuSans-37" transform="translate(147.412109 0)"/>
       <use xlink:href="#DejaVuSans-2e" transform="translate(211.035156 0)"/>
       <use xlink:href="#DejaVuSans-32" transform="translate(242.822266 0)"/>
       <use xlink:href="#DejaVuSans-30" transform="translate(306.445312 0)"/>
      </g>
     </g>
    </g>
    <g id="xtick_4">
     <g id="line2d_7">
      <path d="M 426.176642 768.96 
L 426.176642 103.68 
" clip-path="url(#p42f26d9b23)" style="fill: none; stroke: #b0b0b0; stroke-width: 0.8; stroke-linecap: square"/>
     </g>
     <g id="line2d_8">
      <g>
       <use xlink:href="#m13ff4ce3ba" x="426.176642" y="768.96" style="stroke: #000000; stroke-width: 0.8"/>
      </g>
     </g>
     <g id="text_4">
      <!-- −57.15 -->
      <g transform="translate(415.043577 807.501382) rotate(-45) scale(0.1 -0.1)">
       <defs>
        <path id="DejaVuSans-31" d="M 794 531 
L 1825 531 
L 1825 4091 
L 703 3866 
L 703 4441 
L 1819 4666 
L 2450 4666 
L 2450 531 
L 3481 531 
L 3481 0 
L 794 0 
L 794 531 
z
" transform="scale(0.015625)"/>
       </defs>
       <use xlink:href="#DejaVuSans-2212"/>
       <use xlink:href="#DejaVuSans-35" transform="translate(83.789062 0)"/>
       <use xlink:href="#DejaVuSans-37" transform="translate(147.412109 0)"/>
       <use xlink:href="#DejaVuSans-2e" transform="translate(211.035156 0)"/>
       <use xlink:href="#DejaVuSans-31" transform="translate(242.822266 0)"/>
       <use xlink:href="#DejaVuSans-35" transform="translate(306.445312 0)"/>
      </g>
     </g>
    </g>
    <g id="xtick_5">
     <g id="line2d_9">
      <path d="M 499.585437 768.96 
L 499.585437 103.68 
" clip-path="url(#p42f26d9b23)" style="fill: none; stroke: #b0b0b0; stroke-width: 0.8; stroke-linecap: square"/>
     </g>
     <g id="line2d_10">
      <g>
       <use xlink:href="#m13ff4ce3ba" x="499.585437" y="768.96" style="stroke: #000000; stroke-width: 0.8"/>
      </g>
     </g>
     <g id="text_5">
      <!-- −57.10 -->
      <g transform="translate(488.452372 807.501382) rotate(-45) scale(0.1 -0.1)">
       <use xlink:href="#DejaVuSans-2212"/>
       <use xlink:href="#DejaVuSans-35" transform="translate(83.789062 0)"/>
       <use xlink:href="#DejaVuSans-37" transform="translate(147.412109 0)"/>
       <use xlink:href="#DejaVuSans-2e" transform="translate(211.035156 0)"/>
       <use xlink:href="#DejaVuSans-31" transform="translate(242.822266 0)"/>
       <use xlink:href="#DejaVuSans-30" transform="translate(306.445312 0)"/>
      </g>
     </g>
    </g>
    <g id="text_6">
     <!-- Longitude (°) -->
     <g transform="translate(336.139844 820.57038) scale(0.1 -0.1)">
      <defs>
       <path id="DejaVuSans-4c" d="M 628 4666 
L 1259 4666 
L 1259 531 
L 3531 531 
L 3531 0 
L 628 0 
L 628 4666 
z
" transform="scale(0.015625)"/>
       <path id="DejaVuSans-6f" d="M 1959 3097 
Q 1497 3097 1228 2736 
Q 959 2375 959 1747 
Q 959 1119 1226 758 
Q 1494 397 1959 397 
Q 2419 397 2687 759 
Q 2956 1122 2956 1747 
Q 2956 2369 2687 2733 
Q 2419 3097 1959 3097 
z
M 1959 3584 
Q 2709 3584 3137 3096 
Q 3566 2609 3566 1747 
Q 3566 888 3137 398 
Q 2709 -91 1959 -91 
Q 1206 -91 779 398 
Q 353 888 353 1747 
Q 353 2609 779 3096 
Q 1206 3584 1959 3584 
z
" transform="scale(0.015625)"/>
       <path id="DejaVuSans-6e" d="M 3513 2113 
L 3513 0 
L 2938 0 
L 2938 2094 
Q 2938 2591 2744 2837 
Q 2550 3084 2163 3084 
Q 1697 3084 1428 2787 
Q 1159 2491 1159 1978 
L 1159 0 
L 581 0 
L 581 3500 
L 1159 3500 
L 1159 2956 
Q 1366 3272 1645 3428 
Q 1925 3584 2291 3584 
Q 2894 3584 3203 3211 
Q 3513 2838 3513 2113 
z
" transform="scale(0.015625)"/>
       <path id="DejaVuSans-67" d="M 2906 1791 
Q 2906 2416 2648 2759 
Q 2391 3103 1925 3103 
Q 1463 3103 1205 2759 
Q 947 2416 947 1791 
Q 947 1169 1205 825 
Q 1463 481 1925 481 
Q 2391 481 2648 825 
Q 2906 1169 2906 1791 
z
M 3481 434 
Q 3481 -459 3084 -895 
Q 2688 -1331 1869 -1331 
Q 1566 -1331 1297 -1286 
Q 1028 -1241 775 -1147 
L 775 -588 
Q 1028 -725 1275 -790 
Q 1522 -856 1778 -856 
Q 2344 -856 2625 -561 
Q 2906 -266 2906 331 
L 2906 616 
Q 2728 306 2450 153 
Q 2172 0 1784 0 
Q 1141 0 747 490 
Q 353 981 353 1791 
Q 353 2603 747 3093 
Q 1141 3584 1784 3584 
Q 2172 3584 2450 3431 
Q 2728 3278 2906 2969 
L 2906 3500 
L 3481 3500 
L 3481 434 
z
" transform="scale(0.015625)"/>
       <path id="DejaVuSans-69" d="M 603 3500 
L 1178 3500 
L 1178 0 
L 603 0 
L 603 3500 
z
M 603 4863 
L 1178 4863 
L 1178 4134 
L 603 4134 
L 603 4863 
z
" transform="scale(0.015625)"/>
       <path id="DejaVuSans-74" d="M 1172 4494 
L 1172 3500 
L 2356 3500 
L 2356 3053 
L 1172 3053 
L 1172 1153 
Q 1172 725 1289 603 
Q 1406 481 1766 481 
L 2356 481 
L 2356 0 
L 1766 0 
Q 1100 0 847 248 
Q 594 497 594 1153 
L 594 3053 
L 172 3053 
L 172 3500 
L 594 3500 
L 594 4494 
L 1172 4494 
z
" transform="scale(0.015625)"/>
       <path id="DejaVuSans-75" d="M 544 1381 
L 544 3500 
L 1119 3500 
L 1119 1403 
Q 1119 906 1312 657 
Q 1506 409 1894 409 
Q 2359 409 2629 706 
Q 2900 1003 2900 1516 
L 2900 3500 
L 3475 3500 
L 3475 0 
L 2900 0 
L 2900 538 
Q 2691 219 2414 64 
Q 2138 -91 1772 -91 
Q 1169 -91 856 284 
Q 544 659 544 1381 
z
M 1991 3584 
L 1991 3584 
z
" transform="scale(0.015625)"/>
       <path id="DejaVuSans-64" d="M 2906 2969 
L 2906 4863 
L 3481 4863 
L 3481 0 
L 2906 0 
L 2906 525 
Q 2725 213 2448 61 
Q 2172 -91 1784 -91 
Q 1150 -91 751 415 
Q 353 922 353 1747 
Q 353 2572 751 3078 
Q 1150 3584 1784 3584 
Q 2172 3584 2448 3432 
Q 2725 3281 2906 2969 
z
M 947 1747 
Q 947 1113 1208 752 
Q 1469 391 1925 391 
Q 2381 391 2643 752 
Q 2906 1113 2906 1747 
Q 2906 2381 2643 2742 
Q 2381 3103 1925 3103 
Q 1469 3103 1208 2742 
Q 947 2381 947 1747 
z
" transform="scale(0.015625)"/>
       <path id="DejaVuSans-65" d="M 3597 1894 
L 3597 1613 
L 953 1613 
Q 991 1019 1311 708 
Q 1631 397 2203 397 
Q 2534 397 2845 478 
Q 3156 559 3463 722 
L 3463 178 
Q 3153 47 2828 -22 
Q 2503 -91 2169 -91 
Q 1331 -91 842 396 
Q 353 884 353 1716 
Q 353 2575 817 3079 
Q 1281 3584 2069 3584 
Q 2775 3584 3186 3129 
Q 3597 2675 3597 1894 
z
M 3022 2063 
Q 3016 2534 2758 2815 
Q 2500 3097 2075 3097 
Q 1594 3097 1305 2825 
Q 1016 2553 972 2059 
L 3022 2063 
z
" transform="scale(0.015625)"/>
       <path id="DejaVuSans-20" transform="scale(0.015625)"/>
       <path id="DejaVuSans-28" d="M 1984 4856 
Q 1566 4138 1362 3434 
Q 1159 2731 1159 2009 
Q 1159 1288 1364 580 
Q 1569 -128 1984 -844 
L 1484 -844 
Q 1016 -109 783 600 
Q 550 1309 550 2009 
Q 550 2706 781 3412 
Q 1013 4119 1484 4856 
L 1984 4856 
z
" transform="scale(0.015625)"/>
       <path id="DejaVuSans-b0" d="M 1600 4347 
Q 1350 4347 1178 4173 
Q 1006 4000 1006 3750 
Q 1006 3503 1178 3333 
Q 1350 3163 1600 3163 
Q 1850 3163 2022 3333 
Q 2194 3503 2194 3750 
Q 2194 3997 2020 4172 
Q 1847 4347 1600 4347 
z
M 1600 4750 
Q 1800 4750 1984 4673 
Q 2169 4597 2303 4453 
Q 2447 4313 2519 4134 
Q 2591 3956 2591 3750 
Q 2591 3338 2302 3052 
Q 2013 2766 1594 2766 
Q 1172 2766 890 3047 
Q 609 3328 609 3750 
Q 609 4169 896 4459 
Q 1184 4750 1600 4750 
z
" transform="scale(0.015625)"/>
       <path id="DejaVuSans-29" d="M 513 4856 
L 1013 4856 
Q 1481 4119 1714 3412 
Q 1947 2706 1947 2009 
Q 1947 1309 1714 600 
Q 1481 -109 1013 -844 
L 513 -844 
Q 928 -128 1133 580 
Q 1338 1288 1338 2009 
Q 1338 2731 1133 3434 
Q 928 4138 513 4856 
z
" transform="scale(0.015625)"/>
      </defs>
      <use xlink:href="#DejaVuSans-4c"/>
      <use xlink:href="#DejaVuSans-6f" transform="translate(53.962891 0)"/>
      <use xlink:href="#DejaVuSans-6e" transform="translate(115.144531 0)"/>
      <use xlink:href="#DejaVuSans-67" transform="translate(178.523438 0)"/>
      <use xlink:href="#DejaVuSans-69" transform="translate(242 0)"/>
      <use xlink:href="#DejaVuSans-74" transform="translate(269.783203 0)"/>
      <use xlink:href="#DejaVuSans-75" transform="translate(308.992188 0)"/>
      <use xlink:href="#DejaVuSans-64" transform="translate(372.371094 0)"/>
      <use xlink:href="#DejaVuSans-65" transform="translate(435.847656 0)"/>
      <use xlink:href="#DejaVuSans-20" transform="translate(497.371094 0)"/>
      <use xlink:href="#DejaVuSans-28" transform="translate(529.158203 0)"/>
      <use xlink:href="#DejaVuSans-b0" transform="translate(568.171875 0)"/>
      <use xlink:href="#DejaVuSans-29" transform="translate(618.171875 0)"/>
     </g>
    </g>
   </g>
   <g id="matplotlib.axis_2">
    <g id="ytick_1">
     <g id="line2d_11">
      <path d="M 166.098678 738.619412 
L 571.901322 738.619412 
" clip-path="url(#p42f26d9b23)" style="fill: none; stroke: #b0b0b0; stroke-width: 0.8; stroke-linecap: square"/>
     </g>
     <g id="line2d_12">
      <defs>
       <path id="m002606401b" d="M 0 0 
L -3.5 0 
" style="stroke: #000000; stroke-width: 0.8"/>
      </defs>
      <g>
       <use xlink:href="#m002606401b" x="166.098678" y="738.619412" style="stroke: #000000; stroke-width: 0.8"/>
      </g>
     </g>
     <g id="text_7">
      <!-- −15.85 -->
      <g transform="translate(122.090866 742.41863) scale(0.1 -0.1)">
       <defs>
        <path id="DejaVuSans-38" d="M 2034 2216 
Q 1584 2216 1326 1975 
Q 1069 1734 1069 1313 
Q 1069 891 1326 650 
Q 1584 409 2034 409 
Q 2484 409 2743 651 
Q 3003 894 3003 1313 
Q 3003 1734 2745 1975 
Q 2488 2216 2034 2216 
z
M 1403 2484 
Q 997 2584 770 2862 
Q 544 3141 544 3541 
Q 544 4100 942 4425 
Q 1341 4750 2034 4750 
Q 2731 4750 3128 4425 
Q 3525 4100 3525 3541 
Q 3525 3141 3298 2862 
Q 3072 2584 2669 2484 
Q 3125 2378 3379 2068 
Q 3634 1759 3634 1313 
Q 3634 634 3220 271 
Q 2806 -91 2034 -91 
Q 1263 -91 848 271 
Q 434 634 434 1313 
Q 434 1759 690 2068 
Q 947 2378 1403 2484 
z
M 1172 3481 
Q 1172 3119 1398 2916 
Q 1625 2713 2034 2713 
Q 2441 2713 2670 2916 
Q 2900 3119 2900 3481 
Q 2900 3844 2670 4047 
Q 2441 4250 2034 4250 
Q 1625 4250 1398 4047 
Q 1172 3844 1172 3481 
z
" transform="scale(0.015625)"/>
       </defs>
       <use xlink:href="#DejaVuSans-2212"/>
       <use xlink:href="#DejaVuSans-31" transform="translate(83.789062 0)"/>
       <use xlink:href="#DejaVuSans-35" transform="translate(147.412109 0)"/>
       <use xlink:href="#DejaVuSans-2e" transform="translate(211.035156 0)"/>
       <use xlink:href="#DejaVuSans-38" transform="translate(242.822266 0)"/>
       <use xlink:href="#DejaVuSans-35" transform="translate(306.445312 0)"/>
      </g>
     </g>
    </g>
    <g id="ytick_2">
     <g id="line2d_13">
      <path d="M 166.098678 662.416072 
L 571.901322 662.416072 
" clip-path="url(#p42f26d9b23)" style="fill: none; stroke: #b0b0b0; stroke-width: 0.8; stroke-linecap: square"/>
     </g>
     <g id="line2d_14">
      <g>
       <use xlink:href="#m002606401b" x="166.098678" y="662.416072" style="stroke: #000000; stroke-width: 0.8"/>
      </g>
     </g>
     <g id="text_8">
      <!-- −15.80 -->
      <g transform="translate(122.090866 666.21529) scale(0.1 -0.1)">
       <use xlink:href="#DejaVuSans-2212"/>
       <use xlink:href="#DejaVuSans-31" transform="translate(83.789062 0)"/>
       <use xlink:href="#DejaVuSans-35" transform="translate(147.412109 0)"/>
       <use xlink:href="#DejaVuSans-2e" transform="translate(211.035156 0)"/>
       <use xlink:href="#DejaVuSans-38" transform="translate(242.822266 0)"/>
       <use xlink:href="#DejaVuSans-30" transform="translate(306.445312 0)"/>
      </g>
     </g>
    </g>
    <g id="ytick_3">
     <g id="line2d_15">
      <path d="M 166.098678 586.212732 
L 571.901322 586.212732 
" clip-path="url(#p42f26d9b23)" style="fill: none; stroke: #b0b0b0; stroke-width: 0.8; stroke-linecap: square"/>
     </g>
     <g id="line2d_16">
      <g>
       <use xlink:href="#m002606401b" x="166.098678" y="586.212732" style="stroke: #000000; stroke-width: 0.8"/>
      </g>
     </g>
     <g id="text_9">
      <!-- −15.75 -->
      <g transform="translate(122.090866 590.01195) scale(0.1 -0.1)">
       <use xlink:href="#DejaVuSans-2212"/>
       <use xlink:href="#DejaVuSans-31" transform="translate(83.789062 0)"/>
       <use xlink:href="#DejaVuSans-35" transform="translate(147.412109 0)"/>
       <use xlink:href="#DejaVuSans-2e" transform="translate(211.035156 0)"/>
       <use xlink:href="#DejaVuSans-37" transform="translate(242.822266 0)"/>
       <use xlink:href="#DejaVuSans-35" transform="translate(306.445312 0)"/>
      </g>
     </g>
    </g>
    <g id="ytick_4">
     <g id="line2d_17">
      <path d="M 166.098678 510.009392 
L 571.901322 510.009392 
" clip-path="url(#p42f26d9b23)" style="fill: none; stroke: #b0b0b0; stroke-width: 0.8; stroke-linecap: square"/>
     </g>
     <g id="line2d_18">
      <g>
       <use xlink:href="#m002606401b" x="166.098678" y="510.009392" style="stroke: #000000; stroke-width: 0.8"/>
      </g>
     </g>
     <g id="text_10">
      <!-- −15.70 -->
      <g transform="translate(122.090866 513.808611) scale(0.1 -0.1)">
       <use xlink:href="#DejaVuSans-2212"/>
       <use xlink:href="#DejaVuSans-31" transform="translate(83.789062 0)"/>
       <use xlink:href="#DejaVuSans-35" transform="translate(147.412109 0)"/>
       <use xlink:href="#DejaVuSans-2e" transform="translate(211.035156 0)"/>
       <use xlink:href="#DejaVuSans-37" transform="translate(242.822266 0)"/>
       <use xlink:href="#DejaVuSans-30" transform="translate(306.445312 0)"/>
      </g>
     </g>
    </g>
    <g id="ytick_5">
     <g id="line2d_19">
      <path d="M 166.098678 433.806052 
L 571.901322 433.806052 
" clip-path="url(#p42f26d9b23)" style="fill: none; stroke: #b0b0b0; stroke-width: 0.8; stroke-linecap: square"/>
     </g>
     <g id="line2d_20">
      <g>
       <use xlink:href="#m002606401b" x="166.098678" y="433.806052" style="stroke: #000000; stroke-width: 0.8"/>
      </g>
     </g>
     <g id="text_11">
      <!-- −15.65 -->
      <g transform="translate(122.090866 437.605271) scale(0.1 -0.1)">
       <defs>
        <path id="DejaVuSans-36" d="M 2113 2584 
Q 1688 2584 1439 2293 
Q 1191 2003 1191 1497 
Q 1191 994 1439 701 
Q 1688 409 2113 409 
Q 2538 409 2786 701 
Q 3034 994 3034 1497 
Q 3034 2003 2786 2293 
Q 2538 2584 2113 2584 
z
M 3366 4563 
L 3366 3988 
Q 3128 4100 2886 4159 
Q 2644 4219 2406 4219 
Q 1781 4219 1451 3797 
Q 1122 3375 1075 2522 
Q 1259 2794 1537 2939 
Q 1816 3084 2150 3084 
Q 2853 3084 3261 2657 
Q 3669 2231 3669 1497 
Q 3669 778 3244 343 
Q 2819 -91 2113 -91 
Q 1303 -91 875 529 
Q 447 1150 447 2328 
Q 447 3434 972 4092 
Q 1497 4750 2381 4750 
Q 2619 4750 2861 4703 
Q 3103 4656 3366 4563 
z
" transform="scale(0.015625)"/>
       </defs>
       <use xlink:href="#DejaVuSans-2212"/>
       <use xlink:href="#DejaVuSans-31" transform="translate(83.789062 0)"/>
       <use xlink:href="#DejaVuSans-35" transform="translate(147.412109 0)"/>
       <use xlink:href="#DejaVuSans-2e" transform="translate(211.035156 0)"/>
       <use xlink:href="#DejaVuSans-36" transform="translate(242.822266 0)"/>
       <use xlink:href="#DejaVuSans-35" transform="translate(306.445312 0)"/>
      </g>
     </g>
    </g>
    <g id="ytick_6">
     <g id="line2d_21">
      <path d="M 166.098678 357.602712 
L 571.901322 357.602712 
" clip-path="url(#p42f26d9b23)" style="fill: none; stroke: #b0b0b0; stroke-width: 0.8; stroke-linecap: square"/>
     </g>
     <g id="line2d_22">
      <g>
       <use xlink:href="#m002606401b" x="166.098678" y="357.602712" style="stroke: #000000; stroke-width: 0.8"/>
      </g>
     </g>
     <g id="text_12">
      <!-- −15.60 -->
      <g transform="translate(122.090866 361.401931) scale(0.1 -0.1)">
       <use xlink:href="#DejaVuSans-2212"/>
       <use xlink:href="#DejaVuSans-31" transform="translate(83.789062 0)"/>
       <use xlink:href="#DejaVuSans-35" transform="translate(147.412109 0)"/>
       <use xlink:href="#DejaVuSans-2e" transform="translate(211.035156 0)"/>
       <use xlink:href="#DejaVuSans-36" transform="translate(242.822266 0)"/>
       <use xlink:href="#DejaVuSans-30" transform="translate(306.445312 0)"/>
      </g>
     </g>
    </g>
    <g id="ytick_7">
     <g id="line2d_23">
      <path d="M 166.098678 281.399372 
L 571.901322 281.399372 
" clip-path="url(#p42f26d9b23)" style="fill: none; stroke: #b0b0b0; stroke-width: 0.8; stroke-linecap: square"/>
     </g>
     <g id="line2d_24">
      <g>
       <use xlink:href="#m002606401b" x="166.098678" y="281.399372" style="stroke: #000000; stroke-width: 0.8"/>
      </g>
     </g>
     <g id="text_13">
      <!-- −15.55 -->
      <g transform="translate(122.090866 285.198591) scale(0.1 -0.1)">
       <use xlink:href="#DejaVuSans-2212"/>
       <use xlink:href="#DejaVuSans-31" transform="translate(83.789062 0)"/>
       <use xlink:href="#DejaVuSans-35" transform="translate(147.412109 0)"/>
       <use xlink:href="#DejaVuSans-2e" transform="translate(211.035156 0)"/>
       <use xlink:href="#DejaVuSans-35" transform="translate(242.822266 0)"/>
       <use xlink:href="#DejaVuSans-35" transform="translate(306.445312 0)"/>
      </g>
     </g>
    </g>
    <g id="ytick_8">
     <g id="line2d_25">
      <path d="M 166.098678 205.196032 
L 571.901322 205.196032 
" clip-path="url(#p42f26d9b23)" style="fill: none; stroke: #b0b0b0; stroke-width: 0.8; stroke-linecap: square"/>
     </g>
     <g id="line2d_26">
      <g>
       <use xlink:href="#m002606401b" x="166.098678" y="205.196032" style="stroke: #000000; stroke-width: 0.8"/>
      </g>
     </g>
     <g id="text_14">
      <!-- −15.50 -->
      <g transform="translate(122.090866 208.995251) scale(0.1 -0.1)">
       <use xlink:href="#DejaVuSans-2212"/>
       <use xlink:href="#DejaVuSans-31" transform="translate(83.789062 0)"/>
       <use xlink:href="#DejaVuSans-35" transform="translate(147.412109 0)"/>
       <use xlink:href="#DejaVuSans-2e" transform="translate(211.035156 0)"/>
       <use xlink:href="#DejaVuSans-35" transform="translate(242.822266 0)"/>
       <use xlink:href="#DejaVuSans-30" transform="translate(306.445312 0)"/>
      </g>
     </g>
    </g>
    <g id="ytick_9">
     <g id="line2d_27">
      <path d="M 166.098678 128.992692 
L 571.901322 128.992692 
" clip-path="url(#p42f26d9b23)" style="fill: none; stroke: #b0b0b0; stroke-width: 0.8; stroke-linecap: square"/>
     </g>
     <g id="line2d_28">
      <g>
       <use xlink:href="#m002606401b" x="166.098678" y="128.992692" style="stroke: #000000; stroke-width: 0.8"/>
      </g>
     </g>
     <g id="text_15">
      <!-- −15.45 -->
      <g transform="translate(122.090866 132.791911) scale(0.1 -0.1)">
       <defs>
        <path id="DejaVuSans-34" d="M 2419 4116 
L 825 1625 
L 2419 1625 
L 2419 4116 
z
M 2253 4666 
L 3047 4666 
L 3047 1625 
L 3713 1625 
L 3713 1100 
L 3047 1100 
L 3047 0 
L 2419 0 
L 2419 1100 
L 313 1100 
L 313 1709 
L 2253 4666 
z
" transform="scale(0.015625)"/>
       </defs>
       <use xlink:href="#DejaVuSans-2212"/>
       <use xlink:href="#DejaVuSans-31" transform="translate(83.789062 0)"/>
       <use xlink:href="#DejaVuSans-35" transform="translate(147.412109 0)"/>
       <use xlink:href="#DejaVuSans-2e" transform="translate(211.035156 0)"/>
       <use xlink:href="#DejaVuSans-34" transform="translate(242.822266 0)"/>
       <use xlink:href="#DejaVuSans-35" transform="translate(306.445312 0)"/>
      </g>
     </g>
    </g>
    <g id="text_16">
     <!-- Latitude (°) -->
     <g transform="translate(116.011178 464.889531) rotate(-90) scale(0.1 -0.1)">
      <defs>
       <path id="DejaVuSans-61" d="M 2194 1759 
Q 1497 1759 1228 1600 
Q 959 1441 959 1056 
Q 959 750 1161 570 
Q 1363 391 1709 391 
Q 2188 391 2477 730 
Q 2766 1069 2766 1631 
L 2766 1759 
L 2194 1759 
z
M 3341 1997 
L 3341 0 
L 2766 0 
L 2766 531 
Q 2569 213 2275 61 
Q 1981 -91 1556 -91 
Q 1019 -91 701 211 
Q 384 513 384 1019 
Q 384 1609 779 1909 
Q 1175 2209 1959 2209 
L 2766 2209 
L 2766 2266 
Q 2766 2663 2505 2880 
Q 2244 3097 1772 3097 
Q 1472 3097 1187 3025 
Q 903 2953 641 2809 
L 641 3341 
Q 956 3463 1253 3523 
Q 1550 3584 1831 3584 
Q 2591 3584 2966 3190 
Q 3341 2797 3341 1997 
z
" transform="scale(0.015625)"/>
      </defs>
      <use xlink:href="#DejaVuSans-4c"/>
      <use xlink:href="#DejaVuSans-61" transform="translate(55.712891 0)"/>
      <use xlink:href="#DejaVuSans-74" transform="translate(116.992188 0)"/>
      <use xlink:href="#DejaVuSans-69" transform="translate(156.201172 0)"/>
      <use xlink:href="#DejaVuSans-74" transform="translate(183.984375 0)"/>
      <use xlink:href="#DejaVuSans-75" transform="translate(223.193359 0)"/>
      <use xlink:href="#DejaVuSans-64" transform="translate(286.572266 0)"/>
      <use xlink:href="#DejaVuSans-65" transform="translate(350.048828 0)"/>
      <use xlink:href="#DejaVuSans-20" transform="translate(411.572266 0)"/>
      <use xlink:href="#DejaVuSans-28" transform="translate(443.359375 0)"/>
      <use xlink:href="#DejaVuSans-b0" transform="translate(482.373047 0)"/>
      <use xlink:href="#DejaVuSans-29" transform="translate(532.373047 0)"/>
     </g>
    </g>
   </g>
   <g id="patch_3">
    <path d="M 166.098678 768.96 
L 166.098678 103.68 
" style="fill: none; stroke: #000000; stroke-width: 0.8; stroke-linejoin: miter; stroke-linecap: square"/>
   </g>
   <g id="patch_4">
    <path d="M 571.901322 768.96 
L 571.901322 103.68 
" style="fill: none; stroke: #000000; stroke-width: 0.8; stroke-linejoin: miter; stroke-linecap: square"/>
   </g>
   <g id="patch_5">
    <path d="M 166.098678 768.96 
L 571.901322 768.96 
" style="fill: none; stroke: #000000; stroke-width: 0.8; stroke-linejoin: miter; stroke-linecap: square"/>
   </g>
   <g id="patch_6">
    <path d="M 166.098678 103.68 
L 571.901322 103.68 
" style="fill: none; stroke: #000000; stroke-width: 0.8; stroke-linejoin: miter; stroke-linecap: square"/>
   </g>
   <g id="legend_1">
    <g id="patch_7">
     <path d="M 238.547656 926.217562 
L 499.452344 926.217562 
Q 501.452344 926.217562 501.452344 924.217562 
L 501.452344 909.016 
Q 501.452344 907.016 499.452344 907.016 
L 238.547656 907.016 
Q 236.547656 907.016 236.547656 909.016 
L 236.547656 924.217562 
Q 236.547656 926.217562 238.547656 926.217562 
z
" style="fill: #ffffff; opacity: 0.8; stroke: #cccccc; stroke-linejoin: miter"/>
    </g>
    <g id="line2d_29">
     <defs>
      <path id="mcd679235a5" d="M 0 5 
C 1.326016 5 2.597899 4.473168 3.535534 3.535534 
C 4.473168 2.597899 5 1.326016 5 0 
C 5 -1.326016 4.473168 -2.597899 3.535534 -3.535534 
C 2.597899 -4.473168 1.326016 -5 0 -5 
C -1.326016 -5 -2.597899 -4.473168 -3.535534 -3.535534 
C -4.473168 -2.597899 -5 -1.326016 -5 0 
C -5 1.326016 -4.473168 2.597899 -3.535534 3.535534 
C -2.597899 4.473168 -1.326016 5 0 5 
z
"/>
     </defs>
     <g>
      <use xlink:href="#mcd679235a5" x="250.547656" y="916.637875" style="fill: #b3e2cd; fill-opacity: 0.65"/>
     </g>
    </g>
    <g id="text_17">
     <!-- ESTAÇÃO ECOLÓGICA DA SERRA DAS ARARAS -->
     <g transform="translate(268.547656 920.137875) scale(0.1 -0.1)">
      <defs>
       <path id="DejaVuSans-45" d="M 628 4666 
L 3578 4666 
L 3578 4134 
L 1259 4134 
L 1259 2753 
L 3481 2753 
L 3481 2222 
L 1259 2222 
L 1259 531 
L 3634 531 
L 3634 0 
L 628 0 
L 628 4666 
z
" transform="scale(0.015625)"/>
       <path id="DejaVuSans-53" d="M 3425 4513 
L 3425 3897 
Q 3066 4069 2747 4153 
Q 2428 4238 2131 4238 
Q 1616 4238 1336 4038 
Q 1056 3838 1056 3469 
Q 1056 3159 1242 3001 
Q 1428 2844 1947 2747 
L 2328 2669 
Q 3034 2534 3370 2195 
Q 3706 1856 3706 1288 
Q 3706 609 3251 259 
Q 2797 -91 1919 -91 
Q 1588 -91 1214 -16 
Q 841 59 441 206 
L 441 856 
Q 825 641 1194 531 
Q 1563 422 1919 422 
Q 2459 422 2753 634 
Q 3047 847 3047 1241 
Q 3047 1584 2836 1778 
Q 2625 1972 2144 2069 
L 1759 2144 
Q 1053 2284 737 2584 
Q 422 2884 422 3419 
Q 422 4038 858 4394 
Q 1294 4750 2059 4750 
Q 2388 4750 2728 4690 
Q 3069 4631 3425 4513 
z
" transform="scale(0.015625)"/>
       <path id="DejaVuSans-54" d="M -19 4666 
L 3928 4666 
L 3928 4134 
L 2272 4134 
L 2272 0 
L 1638 0 
L 1638 4134 
L -19 4134 
L -19 4666 
z
" transform="scale(0.015625)"/>
       <path id="DejaVuSans-41" d="M 2188 4044 
L 1331 1722 
L 3047 1722 
L 2188 4044 
z
M 1831 4666 
L 2547 4666 
L 4325 0 
L 3669 0 
L 3244 1197 
L 1141 1197 
L 716 0 
L 50 0 
L 1831 4666 
z
" transform="scale(0.015625)"/>
       <path id="DejaVuSans-c7" d="M 4122 4306 
L 4122 3641 
Q 3803 3938 3442 4084 
Q 3081 4231 2675 4231 
Q 1875 4231 1450 3742 
Q 1025 3253 1025 2328 
Q 1025 1406 1450 917 
Q 1875 428 2675 428 
Q 3081 428 3442 575 
Q 3803 722 4122 1019 
L 4122 359 
Q 3791 134 3420 21 
Q 3050 -91 2638 -91 
Q 1578 -91 968 557 
Q 359 1206 359 2328 
Q 359 3453 968 4101 
Q 1578 4750 2638 4750 
Q 3056 4750 3426 4639 
Q 3797 4528 4122 4306 
z
M 2803 0 
Q 2975 -194 3059 -358 
Q 3144 -522 3144 -672 
Q 3144 -950 2956 -1092 
Q 2769 -1234 2400 -1234 
Q 2256 -1234 2120 -1215 
Q 1984 -1197 1850 -1159 
L 1850 -750 
Q 1956 -803 2072 -826 
Q 2188 -850 2334 -850 
Q 2519 -850 2612 -775 
Q 2706 -700 2706 -556 
Q 2706 -463 2639 -327 
Q 2572 -191 2431 0 
L 2803 0 
z
" transform="scale(0.015625)"/>
       <path id="DejaVuSans-c3" d="M 2188 4044 
L 1331 1722 
L 3047 1722 
L 2188 4044 
z
M 1831 4666 
L 2547 4666 
L 4325 0 
L 3669 0 
L 3244 1197 
L 1141 1197 
L 716 0 
L 50 0 
L 1831 4666 
z
M 2175 5344 
L 1997 5447 
Q 1919 5491 1870 5508 
Q 1822 5525 1784 5525 
Q 1672 5525 1609 5447 
Q 1547 5369 1547 5229 
L 1547 5210 
L 1156 5210 
Q 1156 5525 1317 5709 
Q 1478 5894 1747 5894 
Q 1859 5894 1954 5869 
Q 2050 5844 2200 5760 
L 2378 5666 
Q 2450 5625 2503 5606 
Q 2556 5588 2603 5588 
Q 2703 5588 2765 5667 
Q 2828 5747 2828 5875 
L 2828 5894 
L 3219 5894 
Q 3213 5582 3052 5396 
Q 2891 5210 2628 5210 
Q 2522 5210 2430 5235 
Q 2338 5260 2175 5344 
z
" transform="scale(0.015625)"/>
       <path id="DejaVuSans-4f" d="M 2522 4238 
Q 1834 4238 1429 3725 
Q 1025 3213 1025 2328 
Q 1025 1447 1429 934 
Q 1834 422 2522 422 
Q 3209 422 3611 934 
Q 4013 1447 4013 2328 
Q 4013 3213 3611 3725 
Q 3209 4238 2522 4238 
z
M 2522 4750 
Q 3503 4750 4090 4092 
Q 4678 3434 4678 2328 
Q 4678 1225 4090 567 
Q 3503 -91 2522 -91 
Q 1538 -91 948 565 
Q 359 1222 359 2328 
Q 359 3434 948 4092 
Q 1538 4750 2522 4750 
z
" transform="scale(0.015625)"/>
       <path id="DejaVuSans-43" d="M 4122 4306 
L 4122 3641 
Q 3803 3938 3442 4084 
Q 3081 4231 2675 4231 
Q 1875 4231 1450 3742 
Q 1025 3253 1025 2328 
Q 1025 1406 1450 917 
Q 1875 428 2675 428 
Q 3081 428 3442 575 
Q 3803 722 4122 1019 
L 4122 359 
Q 3791 134 3420 21 
Q 3050 -91 2638 -91 
Q 1578 -91 968 557 
Q 359 1206 359 2328 
Q 359 3453 968 4101 
Q 1578 4750 2638 4750 
Q 3056 4750 3426 4639 
Q 3797 4528 4122 4306 
z
" transform="scale(0.015625)"/>
       <path id="DejaVuSans-d3" d="M 2522 4238 
Q 1834 4238 1429 3725 
Q 1025 3213 1025 2328 
Q 1025 1447 1429 934 
Q 1834 422 2522 422 
Q 3209 422 3611 934 
Q 4013 1447 4013 2328 
Q 4013 3213 3611 3725 
Q 3209 4238 2522 4238 
z
M 2522 4750 
Q 3503 4750 4090 4092 
Q 4678 3434 4678 2328 
Q 4678 1225 4090 567 
Q 3503 -91 2522 -91 
Q 1538 -91 948 565 
Q 359 1222 359 2328 
Q 359 3434 948 4092 
Q 1538 4750 2522 4750 
z
M 2694 5935 
L 3272 5935 
L 2559 5110 
L 2081 5110 
L 2694 5935 
z
" transform="scale(0.015625)"/>
       <path id="DejaVuSans-47" d="M 3809 666 
L 3809 1919 
L 2778 1919 
L 2778 2438 
L 4434 2438 
L 4434 434 
Q 4069 175 3628 42 
Q 3188 -91 2688 -91 
Q 1594 -91 976 548 
Q 359 1188 359 2328 
Q 359 3472 976 4111 
Q 1594 4750 2688 4750 
Q 3144 4750 3555 4637 
Q 3966 4525 4313 4306 
L 4313 3634 
Q 3963 3931 3569 4081 
Q 3175 4231 2741 4231 
Q 1884 4231 1454 3753 
Q 1025 3275 1025 2328 
Q 1025 1384 1454 906 
Q 1884 428 2741 428 
Q 3075 428 3337 486 
Q 3600 544 3809 666 
z
" transform="scale(0.015625)"/>
       <path id="DejaVuSans-49" d="M 628 4666 
L 1259 4666 
L 1259 0 
L 628 0 
L 628 4666 
z
" transform="scale(0.015625)"/>
       <path id="DejaVuSans-44" d="M 1259 4147 
L 1259 519 
L 2022 519 
Q 2988 519 3436 956 
Q 3884 1394 3884 2338 
Q 3884 3275 3436 3711 
Q 2988 4147 2022 4147 
L 1259 4147 
z
M 628 4666 
L 1925 4666 
Q 3281 4666 3915 4102 
Q 4550 3538 4550 2338 
Q 4550 1131 3912 565 
Q 3275 0 1925 0 
L 628 0 
L 628 4666 
z
" transform="scale(0.015625)"/>
       <path id="DejaVuSans-52" d="M 2841 2188 
Q 3044 2119 3236 1894 
Q 3428 1669 3622 1275 
L 4263 0 
L 3584 0 
L 2988 1197 
Q 2756 1666 2539 1819 
Q 2322 1972 1947 1972 
L 1259 1972 
L 1259 0 
L 628 0 
L 628 4666 
L 2053 4666 
Q 2853 4666 3247 4331 
Q 3641 3997 3641 3322 
Q 3641 2881 3436 2590 
Q 3231 2300 2841 2188 
z
M 1259 4147 
L 1259 2491 
L 2053 2491 
Q 2509 2491 2742 2702 
Q 2975 2913 2975 3322 
Q 2975 3731 2742 3939 
Q 2509 4147 2053 4147 
L 1259 4147 
z
" transform="scale(0.015625)"/>
      </defs>
      <use xlink:href="#DejaVuSans-45"/>
      <use xlink:href="#DejaVuSans-53" transform="translate(63.183594 0)"/>
      <use xlink:href="#DejaVuSans-54" transform="translate(126.660156 0)"/>
      <use xlink:href="#DejaVuSans-41" transform="translate(179.994141 0)"/>
      <use xlink:href="#DejaVuSans-c7" transform="translate(246.652344 0)"/>
      <use xlink:href="#DejaVuSans-c3" transform="translate(316.476562 0)"/>
      <use xlink:href="#DejaVuSans-4f" transform="translate(383.134766 0)"/>
      <use xlink:href="#DejaVuSans-20" transform="translate(461.845703 0)"/>
      <use xlink:href="#DejaVuSans-45" transform="translate(493.632812 0)"/>
      <use xlink:href="#DejaVuSans-43" transform="translate(556.816406 0)"/>
      <use xlink:href="#DejaVuSans-4f" transform="translate(626.640625 0)"/>
      <use xlink:href="#DejaVuSans-4c" transform="translate(705.351562 0)"/>
      <use xlink:href="#DejaVuSans-d3" transform="translate(757.439453 0)"/>
      <use xlink:href="#DejaVuSans-47" transform="translate(836.150391 0)"/>
      <use xlink:href="#DejaVuSans-49" transform="translate(913.640625 0)"/>
      <use xlink:href="#DejaVuSans-43" transform="translate(943.132812 0)"/>
      <use xlink:href="#DejaVuSans-41" transform="translate(1012.957031 0)"/>
      <use xlink:href="#DejaVuSans-20" transform="translate(1081.365234 0)"/>
      <use xlink:href="#DejaVuSans-44" transform="translate(1113.152344 0)"/>
      <use xlink:href="#DejaVuSans-41" transform="translate(1188.404297 0)"/>
      <use xlink:href="#DejaVuSans-20" transform="translate(1256.8125 0)"/>
      <use xlink:href="#DejaVuSans-53" transform="translate(1288.599609 0)"/>
      <use xlink:href="#DejaVuSans-45" transform="translate(1352.076172 0)"/>
      <use xlink:href="#DejaVuSans-52" transform="translate(1415.259766 0)"/>
      <use xlink:href="#DejaVuSans-52" transform="translate(1484.742188 0)"/>
      <use xlink:href="#DejaVuSans-41" transform="translate(1550.224609 0)"/>
      <use xlink:href="#DejaVuSans-20" transform="translate(1618.632812 0)"/>
      <use xlink:href="#DejaVuSans-44" transform="translate(1650.419922 0)"/>
      <use xlink:href="#DejaVuSans-41" transform="translate(1725.671875 0)"/>
      <use xlink:href="#DejaVuSans-53" transform="translate(1794.080078 0)"/>
      <use xlink:href="#DejaVuSans-20" transform="translate(1857.556641 0)"/>
      <use xlink:href="#DejaVuSans-41" transform="translate(1889.34375 0)"/>
      <use xlink:href="#DejaVuSans-52" transform="translate(1957.751953 0)"/>
      <use xlink:href="#DejaVuSans-41" transform="translate(2023.234375 0)"/>
      <use xlink:href="#DejaVuSans-52" transform="translate(2091.642578 0)"/>
      <use xlink:href="#DejaVuSans-41" transform="translate(2157.125 0)"/>
      <use xlink:href="#DejaVuSans-53" transform="translate(2225.533203 0)"/>
     </g>
    </g>
   </g>
  </g>
 </g>
 <defs>
  <clipPath id="p42f26d9b23">
   <rect x="166.098678" y="103.68" width="405.802643" height="665.28"/>
  </clipPath>
 </defs>
</svg>
