<?xml version="1.0" encoding="utf-8" standalone="no"?>
<!DOCTYPE svg PUBLIC "-//W3C//DTD SVG 1.1//EN"
  "http://www.w3.org/Graphics/SVG/1.1/DTD/svg11.dtd">
<svg xmlns:xlink="http://www.w3.org/1999/xlink" width="720pt" height="864pt" viewBox="0 0 720 864" xmlns="http://www.w3.org/2000/svg" version="1.1">
 <metadata>
  <rdf:RDF xmlns:dc="http://purl.org/dc/elements/1.1/" xmlns:cc="http://creativecommons.org/ns#" xmlns:rdf="http://www.w3.org/1999/02/22-rdf-syntax-ns#">
   <cc:Work>
    <dc:type rdf:resource="http://purl.org/dc/dcmitype/StillImage"/>
    <dc:date>2025-06-16T17:30:31.379349</dc:date>
    <dc:format>image/svg+xml</dc:format>
    <dc:creator>
     <cc:Agent>
      <dc:title>Matplotlib v3.10.1, https://matplotlib.org/</dc:title>
     </cc:Agent>
    </dc:creator>
   </cc:Work>
  </rdf:RDF>
 </metadata>
 <defs>
  <style type="text/css">*{stroke-linejoin: round; stroke-linecap: butt}</style>
 </defs>
 <g id="figure_1">
  <g id="patch_1">
   <path d="M 0 864 
L 720 864 
L 720 0 
L 0 0 
z
" style="fill: #ffffff"/>
  </g>
  <g id="axes_1">
   <g id="patch_2">
    <path d="M 90 750.965046 
L 648 750.965046 
L 648 121.674954 
L 90 121.674954 
z
" style="fill: #ffffff"/>
   </g>
   <g id="PatchCollection_1">
    <path d="M 265.585092 573.694688 
L 267.092265 578.195964 
L 267.378432 578.971767 
L 267.667811 579.558293 
L 268.452347 580.863219 
L 268.612316 581.087299 
L 269.513414 582.139808 
L 270.736822 583.204462 
L 270.850172 583.276456 
L 272.308325 584.266669 
L 273.897508 585.282774 
L 276.477787 586.977611 
L 277.464107 587.594077 
L 279.511464 588.950756 
L 280.861881 589.837434 
L 282.50732 590.895593 
L 283.079654 591.343781 
L 283.758885 591.995836 
L 284.471076 592.892212 
L 285.28617 594.118649 
L 285.719429 594.992367 
L 286.200116 596.592551 
L 287.540926 602.297606 
L 289.746632 611.71596 
L 290.385668 614.4795 
L 290.450778 614.741615 
L 290.807698 616.200228 
L 291.233722 617.557723 
L 291.875971 619.013132 
L 292.813241 620.597939 
L 294.874257 623.504681 
L 298.262424 628.132937 
L 301.201214 632.128593 
L 302.496996 633.984427 
L 303.006622 634.869474 
L 303.590213 635.819234 
L 305.898012 640.373894 
L 305.973569 640.504136 
L 306.796679 641.7945 
L 307.504877 642.767705 
L 308.367371 643.80405 
L 308.846467 644.41807 
L 311.986231 647.811822 
L 315.367135 651.534819 
L 320.222281 656.909813 
L 320.868551 657.656521 
L 321.047012 657.834497 
L 323.429557 660.380393 
L 331.731527 668.99784 
L 332.685668 670.11183 
L 333.459758 671.157873 
L 334.33675 672.539628 
L 336.805299 676.659876 
L 337.806088 678.029487 
L 338.6485 678.878128 
L 338.789977 679.034262 
L 341.682148 681.363389 
L 343.059912 682.610038 
L 350.005822 690.212195 
L 350.42221 690.554401 
L 352.74931 693.040448 
L 343.374206 710.010808 
L 338.886427 718.143662 
L 336.525585 722.360951 
L 334.938803 722.102884 
L 329.91084 721.267988 
L 326.315304 720.700887 
L 323.183585 720.794725 
L 322.553375 720.658017 
L 321.532532 720.595721 
L 323.148223 705.76923 
L 323.344364 699.89913 
L 323.413497 699.660489 
L 326.09908 690.064159 
L 326.354718 689.599778 
L 326.253435 688.592585 
L 326.152933 687.379079 
L 325.822578 686.887205 
L 325.206027 686.075784 
L 324.827432 685.291885 
L 324.864415 684.761159 
L 324.150603 684.606657 
L 324.222948 684.223998 
L 323.670726 684.240977 
L 323.221378 683.659314 
L 322.564632 682.986231 
L 321.59443 682.565536 
L 321.294575 682.153783 
L 320.693332 681.969312 
L 319.871004 682.230611 
L 319.302692 682.127891 
L 317.97557 682.556654 
L 316.560824 683.302546 
L 315.227278 684.163333 
L 314.388079 685.291885 
L 313.489383 686.828957 
L 313.04889 687.661435 
L 313.008695 688.090198 
L 312.028018 688.820713 
L 311.057787 688.877359 
L 310.745113 688.340984 
L 311.30619 687.785212 
L 311.405042 687.133972 
L 310.926785 686.322522 
L 310.629361 686.047475 
L 310.261213 684.53708 
L 310.331127 683.793605 
L 310.712963 683.266957 
L 311.461327 682.366533 
L 311.284487 681.585866 
L 311.290101 681.119884 
L 310.747515 680.716983 
L 310.07792 679.485682 
L 309.417991 679.163717 
L 308.573149 679.119216 
L 308.618986 678.358762 
L 308.265278 677.777914 
L 307.871404 677.430029 
L 306.906006 677.429213 
L 306.203452 677.079726 
L 305.348192 677.467249 
L 304.39324 676.971327 
L 303.522701 677.404953 
L 303.502589 678.94124 
L 303.453568 679.425017 
L 302.899725 679.690365 
L 303.064498 681.524356 
L 303.150501 681.773541 
L 302.511465 682.248435 
L 302.704395 683.182818 
L 303.124805 683.602697 
L 301.751035 684.563787 
L 300.292101 684.702912 
L 299.808982 684.150373 
L 298.6756 683.05176 
L 298.018854 682.504056 
L 296.699777 682.484659 
L 295.387124 683.860764 
L 295.262517 684.724754 
L 294.934564 685.014392 
L 294.76574 684.897896 
L 294.934564 684.583183 
L 294.920095 684.360706 
L 294.813979 684.004753 
L 294.478792 683.782275 
L 294.010952 683.724028 
L 293.535097 683.957834 
L 293.107453 683.998288 
L 292.458751 683.157742 
L 292.113117 682.576866 
L 291.869546 681.934538 
L 291.726477 681.371456 
L 291.632429 680.766348 
L 291.212019 679.691996 
L 291.008643 679.243808 
L 291.506231 678.647583 
L 291.968427 678.462326 
L 292.187863 678.208278 
L 291.569721 677.964773 
L 288.577858 676.54175 
L 287.377745 676.465707 
L 285.700937 676.492414 
L 284.487165 675.915585 
L 278.076606 672.740263 
L 276.763954 676.341115 
L 256.266272 668.766479 
L 236.060371 659.893383 
L 259.34816 638.310959 
L 259.70265 637.907273 
L 271.731158 626.599912 
L 267.990932 621.886673 
L 267.874399 621.741868 
L 257.75015 609.050306 
L 256.316103 607.261632 
L 255.467267 606.243081 
L 252.602413 602.846912 
L 249.828396 599.456422 
L 246.892789 595.756054 
L 244.929033 593.229554 
L 265.585092 573.694688 
" clip-path="url(#pa66852586e)" style="fill: #b3e2cd; fill-opacity: 0.65"/>
    <path d="M 358.164723 586.89752 
L 372.532399 603.175372 
L 372.895714 604.332232 
L 392.920753 628.07067 
L 347.004323 668.764848 
L 339.01986 676.223017 
L 338.548027 675.490056 
L 336.11403 671.4289 
L 335.182374 669.961375 
L 334.319069 668.793972 
L 333.275683 667.576447 
L 332.753209 667.117745 
L 329.072451 663.270942 
L 324.95282 658.937158 
L 323.997869 657.998727 
L 316.970788 650.340739 
L 310.461348 643.057342 
L 309.941276 642.415801 
L 309.151907 641.468458 
L 308.524938 640.60607 
L 307.708223 639.314919 
L 305.004959 634.39056 
L 312.35438 627.561788 
L 358.164723 586.89752 
" clip-path="url(#pa66852586e)" style="fill: #b3e2cd; fill-opacity: 0.65"/>
    <path d="M 149.167851 385.573615 
L 149.642896 386.177936 
L 154.375866 388.761053 
L 157.445687 392.506709 
L 158.685185 392.458974 
L 159.919879 391.715528 
L 162.911741 389.214891 
L 165.721931 387.327515 
L 173.579386 389.502111 
L 174.39286 390.976888 
L 175.603419 392.253505 
L 176.163687 392.573053 
L 176.799539 392.896649 
L 177.109812 393.053597 
L 182.460114 395.957893 
L 183.336297 396.684389 
L 185.842638 398.913155 
L 187.258976 400.007748 
L 189.178515 401.00929 
L 190.759654 402.370018 
L 201.667657 402.009202 
L 206.379705 400.811888 
L 215.321521 400.092673 
L 217.372091 398.069377 
L 219.642907 399.680919 
L 221.437058 406.470025 
L 222.147657 408.825014 
L 220.1646 410.565168 
L 210.73327 422.443677 
L 208.745379 424.986341 
L 210.774246 427.691632 
L 211.877099 429.41239 
L 214.54584 432.789948 
L 215.270069 432.890251 
L 218.80935 433.255931 
L 222.084168 433.097351 
L 229.650623 429.762663 
L 230.620043 429.183446 
L 235.160865 426.458729 
L 235.938195 425.979816 
L 236.213887 425.80181 
L 242.241829 421.445368 
L 252.04695 415.778349 
L 278.046077 425.830934 
L 282.315201 427.193293 
L 294.086509 437.249956 
L 305.511372 447.861575 
L 324.980948 451.832126 
L 330.33125 462.609606 
L 331.270922 463.744623 
L 326.726078 489.220769 
L 325.874811 492.115366 
L 322.608039 496.605312 
L 291.734493 503.460733 
L 287.383359 507.319652 
L 282.339335 508.895605 
L 278.997006 507.91509 
L 270.571239 510.088055 
L 270.141193 506.719379 
L 269.602629 503.514962 
L 268.16618 488.585693 
L 268.118751 488.26696 
L 267.853477 485.413632 
L 268.13484 484.287498 
L 274.469813 465.064111 
L 274.571096 464.784988 
L 274.896648 463.869215 
L 274.973825 463.675861 
L 275.029299 463.487372 
L 274.428027 463.078006 
L 273.876586 462.321599 
L 273.255231 462.008517 
L 272.968254 462.230179 
L 272.683707 462.449424 
L 271.908808 463.04728 
L 271.192594 463.142719 
L 270.200689 463.793173 
L 269.510983 464.197675 
L 268.980464 464.67254 
L 268.769044 464.810879 
L 267.824539 464.453295 
L 267.064919 464.935471 
L 265.932347 465.165229 
L 265.057756 465.17816 
L 263.897837 464.784172 
L 263.082743 464.594867 
L 262.78856 463.765651 
L 261.500013 462.811842 
L 261.406775 462.141992 
L 260.863378 461.495616 
L 260.410008 461.242384 
L 260.382691 461.608063 
L 260.040239 463.749487 
L 258.883533 467.780703 
L 258.767781 468.143965 
L 255.5364 478.442502 
L 252.79051 487.424784 
L 252.124938 489.513639 
L 249.438515 498.390754 
L 247.998072 502.94623 
L 242.278811 493.945309 
L 238.174431 487.453122 
L 235.835292 483.728493 
L 235.662475 483.458282 
L 233.705143 480.332324 
L 230.2117 474.85863 
L 222.84538 482.074896 
L 217.491865 487.075297 
L 217.151034 487.474149 
L 210.245318 493.997091 
L 206.639336 504.993787 
L 207.023573 511.196394 
L 204.244723 514.156491 
L 199.535077 513.603137 
L 198.101058 520.940762 
L 197.052869 520.31218 
L 195.085091 522.982669 
L 194.434769 524.249559 
L 193.573085 525.671767 
L 193.088375 526.980742 
L 192.355261 527.089956 
L 191.631813 527.019564 
L 190.43008 526.635303 
L 189.164046 526.445182 
L 188.55716 526.04633 
L 188.889946 517.290574 
L 171.311782 518.964384 
L 168.720218 522.046655 
L 166.685737 520.739312 
L 165.471126 519.495895 
L 164.363469 517.383596 
L 163.953506 515.269695 
L 163.16735 506.78249 
L 165.839303 495.326277 
L 166.783808 491.318506 
L 167.163994 488.825965 
L 166.972686 484.167769 
L 166.96467 483.856318 
L 166.930899 481.900968 
L 165.165686 476.294614 
L 164.959099 475.994463 
L 162.386026 472.970439 
L 161.415014 472.044939 
L 152.00776 463.916949 
L 150.627595 462.434862 
L 150.266681 462.263352 
L 146.804578 459.550779 
L 140.07249 455.191104 
L 139.817663 455.041436 
L 134.809001 451.908168 
L 138.046025 448.562151 
L 140.785491 444.599696 
L 141.242074 443.939545 
L 138.953547 433.666899 
L 139.509011 433.036686 
L 147.906621 424.449995 
L 148.695989 423.565763 
L 151.164567 419.538566 
L 135.920709 409.863747 
L 134.657077 409.841118 
L 134.412725 408.918851 
L 135.322649 407.955344 
L 148.134102 390.568366 
L 149.167851 385.573615 
" clip-path="url(#pa66852586e)" style="fill: #cccccc; fill-opacity: 0.65"/>
    <path d="M 432.256237 431.976896 
L 434.330913 433.979981 
L 435.677336 434.908713 
L 437.776927 435.748443 
L 439.110501 436.239501 
L 441.300928 437.309019 
L 445.211569 435.343155 
L 446.514586 434.693517 
L 448.045083 434.500978 
L 451.633385 434.417655 
L 453.845515 435.359319 
L 457.120333 436.490288 
L 460.101748 438.871168 
L 461.117787 439.503827 
L 462.044611 440.029659 
L 463.876526 440.515067 
L 466.812133 440.604856 
L 469.759778 441.01827 
L 472.689742 442.146006 
L 473.141492 442.297276 
L 474.943688 442.817458 
L 479.152534 444.246977 
L 485.504407 444.614258 
L 494.303936 444.822174 
L 494.661637 444.836736 
L 496.595674 444.729939 
L 498.906685 444.547914 
L 501.060939 444.075466 
L 504.979625 444.731569 
L 510.57671 446.954685 
L 512.424715 449.265173 
L 513.726111 449.602544 
L 520.898692 451.872579 
L 527.537542 449.993271 
L 532.113755 450.089555 
L 546.122109 454.366722 
L 547.755481 454.86911 
L 549.939512 457.478933 
L 553.620241 460.989996 
L 559.507516 465.347254 
L 567.923617 473.638658 
L 568.163947 473.845758 
L 567.600468 474.501046 
L 564.798322 477.740296 
L 562.74373 480.15595 
L 560.495399 482.730999 
L 557.985845 485.653904 
L 555.828378 488.232973 
L 554.50525 489.785452 
L 553.861381 490.5734 
L 543.05631 503.355566 
L 537.423863 510.031438 
L 533.258394 515.068244 
L 532.946502 526.019652 
L 533.035746 526.928144 
L 532.887844 538.157044 
L 532.86371 541.05569 
L 532.805053 547.926487 
L 532.801031 549.030779 
L 532.778517 556.362725 
L 532.793796 556.534236 
L 532.862119 571.506346 
L 532.595253 586.702564 
L 531.740774 608.869097 
L 531.473099 615.774698 
L 531.489969 616.449412 
L 531.145116 620.139238 
L 531.111375 621.841385 
L 531.077604 627.381394 
L 530.395161 628.238919 
L 529.312391 630.963636 
L 529.241667 632.096236 
L 529.18136 632.885815 
L 528.717572 632.309802 
L 528.081719 631.372973 
L 528.183812 630.897292 
L 528.126747 630.657835 
L 527.622735 630.210463 
L 527.085792 628.855385 
L 526.80767 627.636229 
L 526.379215 626.254444 
L 525.729732 625.26263 
L 525.022345 623.825044 
L 524.459676 622.831598 
L 524.093119 621.871295 
L 523.765166 621.604345 
L 523.38333 621.599482 
L 521.909117 620.395703 
L 520.579564 619.608542 
L 519.238784 618.923314 
L 517.715521 618.617513 
L 515.993715 618.692769 
L 514.606315 618.626425 
L 513.664212 617.822284 
L 512.497059 617.36035 
L 511.215746 617.321499 
L 509.899071 617.170229 
L 508.477091 617.349807 
L 507.79786 617.754309 
L 505.625896 619.047906 
L 505.279451 618.686275 
L 497.47828 609.85203 
L 491.789549 603.500599 
L 488.821821 599.748448 
L 475.17276 584.976972 
L 466.272759 575.264146 
L 465.968911 574.912242 
L 458.977192 567.10945 
L 448.258095 576.873243 
L 442.46649 582.144672 
L 442.230964 582.379265 
L 438.333981 585.871717 
L 437.246408 586.892685 
L 427.34964 595.867686 
L 428.063452 596.667808 
L 417.677951 605.908972 
L 405.153447 617.150803 
L 399.861021 621.775041 
L 392.920753 628.07067 
L 372.895714 604.332232 
L 372.532399 603.175372 
L 358.164723 586.89752 
L 363.71435 581.953735 
L 369.376545 576.887805 
L 378.677684 580.970803 
L 380.263626 580.023489 
L 382.311794 565.341774 
L 384.105945 563.74322 
L 398.82649 550.838064 
L 400.651199 548.999238 
L 415.120968 536.190365 
L 423.319225 528.760533 
L 432.66296 524.114453 
L 435.979564 521.702847 
L 440.718147 509.557359 
L 432.107526 480.936646 
L 429.95084 476.641654 
L 424.723524 470.918805 
L 424.526601 467.731367 
L 427.688069 462.282777 
L 417.17394 453.594938 
L 431.48293 433.348953 
L 432.256237 431.976896 
" clip-path="url(#pa66852586e)" style="fill: #cbd5e8; fill-opacity: 0.65"/>
    <path d="M 526.835797 150.279049 
L 529.379122 151.742526 
L 531.446562 153.311169 
L 533.559841 154.666247 
L 535.967302 156.207397 
L 537.27272 157.246946 
L 538.676209 157.301961 
L 540.744489 157.489665 
L 543.639062 156.924981 
L 545.110902 158.867372 
L 546.78606 160.516921 
L 547.015162 162.059673 
L 548.298877 163.345989 
L 549.017521 164.706717 
L 549.851078 166.149166 
L 550.687065 167.48077 
L 551.576906 168.903794 
L 552.941011 169.31316 
L 554.276988 170.258056 
L 555.656342 171.282257 
L 556.910338 173.054767 
L 558.427958 173.786098 
L 559.678713 173.507003 
L 560.583023 171.963436 
L 561.722858 170.16017 
L 562.989702 169.580138 
L 564.275038 169.609262 
L 566.036228 168.720167 
L 567.017687 168.233157 
L 567.908338 168.478264 
L 569.541739 167.999351 
L 570.843135 167.94352 
L 572.331817 168.097236 
L 574.219206 167.995302 
L 575.654064 167.776873 
L 578.11859 166.941978 
L 580.245527 165.986568 
L 580.694875 165.919408 
L 583.263115 165.284361 
L 584.065332 165.59986 
L 585.203576 165.616024 
L 587.299144 166.419378 
L 587.540313 166.564998 
L 589.894731 167.570588 
L 592.141442 169.434519 
L 593.435603 172.274887 
L 593.762775 172.537818 
L 594.405834 174.84184 
L 593.925146 177.630455 
L 593.993469 180.161818 
L 593.6237 181.340521 
L 594.340724 182.600131 
L 595.192772 185.345875 
L 595.629271 187.702495 
L 596.154957 188.527663 
L 596.171857 188.606123 
L 596.944326 190.123799 
L 597.786738 191.502351 
L 599.290699 192.342081 
L 600.521371 192.801598 
L 601.535008 193.285375 
L 602.20058 194.255376 
L 603.46019 194.455196 
L 604.794546 194.897704 
L 606.51314 195.286829 
L 607.729314 196.45097 
L 608.524325 197.830337 
L 608.672227 199.20318 
L 609.578939 200.559073 
L 610.014628 201.974001 
L 610.541935 203.930167 
L 610.934188 206.258449 
L 611.177759 207.277 
L 611.727579 208.89661 
L 612.434967 210.589845 
L 612.916436 212.240997 
L 613.298271 214.034535 
L 613.468687 215.4236 
L 613.747619 217.256776 
L 613.151961 218.481611 
L 613.287825 219.885209 
L 613.963033 221.754819 
L 615.181638 222.90035 
L 616.306194 223.81452 
L 617.673511 223.990079 
L 619.169456 224.596002 
L 620.653335 224.799084 
L 621.92015 224.903435 
L 622.636364 226.885463 
L 622.082521 228.493773 
L 620.904111 230.112567 
L 619.687908 231.219276 
L 618.5288 232.31384 
L 617.364049 233.511154 
L 616.302982 234.631638 
L 615.194515 235.535266 
L 613.851304 236.651702 
L 612.34413 237.883789 
L 610.698691 239.193579 
L 608.446338 240.545395 
L 606.411857 241.585759 
L 604.70371 242.843767 
L 603.362929 243.804856 
L 602.37823 245.121898 
L 601.322806 246.674377 
L 600.620252 248.298036 
L 600.880693 249.630455 
L 601.170882 251.031636 
L 601.841258 252.931156 
L 602.261668 254.886506 
L 603.365331 255.341975 
L 604.25196 256.894426 
L 604.97862 258.075575 
L 605.374896 259.06739 
L 605.828266 260.599658 
L 605.847568 260.640082 
L 606.044491 262.040476 
L 606.12569 263.945646 
L 606.23823 265.440693 
L 606.419873 266.880696 
L 606.267168 268.242239 
L 606.181946 269.706531 
L 606.304122 271.81155 
L 606.410237 273.623698 
L 606.452833 274.528957 
L 604.31707 275.516753 
L 595.401761 279.686336 
L 592.585957 285.918854 
L 589.080447 291.138501 
L 586.240509 294.020138 
L 580.613704 298.424344 
L 574.681431 309.264906 
L 578.967455 310.221947 
L 595.008697 308.699407 
L 597.565681 319.812598 
L 597.835787 321.751785 
L 598.12916 323.531577 
L 598.487672 325.703726 
L 599.707087 334.431202 
L 599.756918 335.903562 
L 599.068861 342.153088 
L 598.561637 346.719864 
L 598.199103 350.040806 
L 597.797994 353.713652 
L 597.417779 357.113054 
L 588.081278 357.065349 
L 584.103935 357.061301 
L 578.478723 357.027313 
L 569.674361 357.02973 
L 559.034034 357.12683 
L 558.729404 357.137343 
L 555.919214 357.269216 
L 546.526429 358.147768 
L 537.685896 359.544901 
L 536.056546 359.783571 
L 529.618641 360.827984 
L 525.974084 360.819888 
L 518.431734 362.077895 
L 517.536279 361.992941 
L 508.625803 366.840442 
L 507.340467 367.811259 
L 507.879841 369.141231 
L 508.682058 369.982592 
L 509.518856 371.238153 
L 508.694125 371.567428 
L 507.285804 371.683924 
L 506.067199 371.599785 
L 504.791529 372.119967 
L 504.161319 373.263081 
L 503.24416 373.348035 
L 502.46764 374.392448 
L 501.948378 374.354412 
L 480.225639 379.442215 
L 447.757296 386.848572 
L 447.008122 387.155189 
L 449.937305 373.661933 
L 451.739472 361.546384 
L 451.993489 347.87189 
L 452.020835 347.389714 
L 453.609208 344.611613 
L 458.06886 334.423106 
L 458.340558 332.398178 
L 459.313971 325.744179 
L 460.28099 323.151335 
L 461.67001 312.920773 
L 461.788163 312.485516 
L 463.41433 309.046477 
L 466.66099 294.719112 
L 467.417398 291.267141 
L 469.27666 283.224077 
L 469.580508 270.777651 
L 470.918076 257.408142 
L 473.310287 249.107826 
L 474.901062 242.041228 
L 477.089087 245.257819 
L 480.216003 246.201114 
L 482.707065 246.556251 
L 484.834812 245.142925 
L 487.14102 243.844494 
L 489.829005 241.992708 
L 492.476824 240.832586 
L 494.274216 239.928143 
L 496.042641 239.007506 
L 498.111702 238.053698 
L 499.465331 236.255296 
L 501.511097 233.826682 
L 504.005372 231.309065 
L 506.545485 229.013139 
L 508.692534 226.836942 
L 510.782488 224.632407 
L 511.435183 223.71745 
L 512.459266 221.354365 
L 514.398917 218.580312 
L 516.482447 217.881338 
L 517.578066 215.642029 
L 519.739583 212.310574 
L 521.89624 208.414434 
L 522.809404 205.600744 
L 523.713714 201.126174 
L 524.508697 196.921001 
L 524.745033 192.673773 
L 524.371242 189.654584 
L 523.820611 188.165216 
L 523.118085 185.478535 
L 522.687229 181.987713 
L 522.41472 180.955445 
L 522.726613 178.023628 
L 523.748266 174.477791 
L 525.138097 169.709565 
L 526.224889 168.843944 
L 526.347875 164.821611 
L 526.297234 160.74668 
L 526.090646 156.595706 
L 526.540775 152.049958 
L 526.835797 150.279049 
M 537.501011 200.131127 
L 533.413531 213.981151 
L 528.76176 230.301057 
L 527.236906 235.702728 
L 526.882416 235.951097 
L 526.499799 237.3798 
L 523.659051 247.77299 
L 519.770923 249.742087 
L 519.287805 249.78819 
L 518.577234 249.588371 
L 517.782252 250.3181 
L 516.683392 251.495987 
L 515.609477 251.75487 
L 515.431827 252.299341 
L 516.521832 252.913361 
L 517.39159 253.601821 
L 518.660025 254.509497 
L 519.543442 255.574967 
L 519.287023 255.879952 
L 518.819994 256.506116 
L 517.680159 256.671162 
L 517.072462 257.302976 
L 517.005732 257.912161 
L 516.461554 258.463069 
L 516.09821 259.059323 
L 516.443063 259.19603 
L 517.032268 259.348115 
L 526.90412 263.444074 
L 531.390307 265.264319 
L 537.521933 265.869455 
L 540.626306 266.058761 
L 541.020991 266.078187 
L 548.974114 266.607252 
L 558.825854 270.273632 
L 572.93471 268.878131 
L 576.355808 268.573931 
L 582.598353 257.554577 
L 589.434936 246.43894 
L 594.671889 238.382944 
L 588.182561 233.529764 
L 583.560539 230.104471 
L 582.941586 229.658729 
L 579.098486 226.773831 
L 575.656465 223.656756 
L 574.806009 223.004701 
L 570.554566 219.784906 
L 565.568389 216.029523 
L 561.472053 212.701329 
L 558.731806 210.478184 
L 557.174773 209.221021 
L 556.225464 208.422531 
L 555.268111 207.671774 
L 554.308327 206.874915 
L 553.08408 205.805427 
L 551.983658 204.903401 
L 550.959574 204.09926 
L 548.96688 202.521705 
L 544.692894 201.617233 
L 537.501011 200.131127 
" clip-path="url(#pa66852586e)" style="fill: #fff2ae; fill-opacity: 0.65"/>
   </g>
   <g id="PatchCollection_2">
    <path d="M 432.306019 333.710362 
L 464.12467 356.338397 
L 473.224598 361.712654 
L 488.669142 370.833666 
L 502.6753 379.104938 
L 543.733231 403.349956 
L 571.240416 379.648809 
L 571.382494 407.195316 
L 573.134576 441.538871 
L 560.189715 469.685967 
L 557.339143 472.183513 
L 545.455925 487.470146 
L 533.056558 500.869576 
L 526.954447 508.215969 
L 501.622985 541.035034 
L 489.03885 551.946479 
L 483.587872 563.237225 
L 481.704665 565.800611 
L 480.375866 567.609347 
L 469.659352 582.196308 
L 463.291331 591.339707 
L 460.394607 595.954475 
L 457.287931 600.903638 
L 457.224478 602.878096 
L 456.201364 634.713542 
L 451.313923 628.420527 
L 446.796301 626.706915 
L 440.75624 626.811635 
L 438.217108 623.529744 
L 436.119496 620.791797 
L 435.156449 618.040935 
L 426.796627 629.0327 
L 421.649262 640.641287 
L 421.471783 648.746119 
L 412.550064 658.897285 
L 411.489502 662.189224 
L 414.348687 669.161124 
L 414.770088 673.928685 
L 411.85517 703.705378 
L 403.043419 713.387467 
L 399.124955 714.235716 
L 388.316791 715.31943 
L 367.61594 647.61811 
L 342.789329 655.275061 
L 302.229049 665.512313 
L 295.755243 660.558879 
L 288.511493 659.55253 
L 285.159085 658.105332 
L 276.500999 651.868432 
L 266.054802 647.131758 
L 253.435796 638.836487 
L 243.758913 635.63525 
L 238.059385 630.669489 
L 191.420144 608.150936 
L 173.854038 603.209569 
L 158.746064 587.860195 
L 147.320722 565.012593 
L 153.333571 558.828393 
L 140.707651 547.979737 
L 133.350812 535.146567 
L 120.253781 526.093331 
L 115.363636 503.699582 
L 115.896843 491.194019 
L 138.381796 483.625387 
L 137.556192 472.68631 
L 130.308963 457.419221 
L 130.923986 447.737741 
L 128.124204 441.357243 
L 135.561525 440.819351 
L 158.314248 426.651627 
L 177.113026 413.136497 
L 188.207664 402.252916 
L 193.855917 399.695062 
L 197.160589 402.837478 
L 202.35125 403.3555 
L 211.85231 402.01446 
L 214.571396 401.790483 
L 232.533135 394.056002 
L 246.166816 395.411991 
L 247.434895 392.51499 
L 253.357233 397.612003 
L 263.027495 414.509048 
L 279.885425 392.182194 
L 281.478671 375.637801 
L 284.183952 364.212036 
L 298.422352 365.677854 
L 309.475687 375.818293 
L 313.63829 377.011425 
L 337.142899 380.299947 
L 341.423554 380.774868 
L 343.42983 384.397564 
L 349.05853 373.857844 
L 350.463788 373.175989 
L 359.416798 369.145704 
L 374.430516 362.698353 
L 381.417061 355.418222 
L 386.517654 353.383222 
L 394.9414 339.123045 
L 400.928687 343.715721 
L 410.643291 336.114558 
L 421.338725 345.160171 
L 432.306019 333.710362 
" clip-path="url(#pa66852586e)" style="fill: none; stroke: #000000; stroke-width: 2"/>
   </g>
   <g id="matplotlib.axis_1">
    <g id="xtick_1">
     <g id="line2d_1">
      <path d="M 148.109996 750.965046 
L 148.109996 121.674954 
" clip-path="url(#pa66852586e)" style="fill: none; stroke: #b0b0b0; stroke-width: 0.8; stroke-linecap: square"/>
     </g>
     <g id="line2d_2">
      <defs>
       <path id="m6a08f80cc6" d="M 0 0 
L 0 3.5 
" style="stroke: #000000; stroke-width: 0.8"/>
      </defs>
      <g>
       <use xlink:href="#m6a08f80cc6" x="148.109996" y="750.965046" style="stroke: #000000; stroke-width: 0.8"/>
      </g>
     </g>
     <g id="text_1">
      <!-- −48.500 -->
      <g transform="translate(134.727448 794.005394) rotate(-45) scale(0.1 -0.1)">
       <defs>
        <path id="DejaVuSans-2212" d="M 678 2272 
L 4684 2272 
L 4684 1741 
L 678 1741 
L 678 2272 
z
" transform="scale(0.015625)"/>
        <path id="DejaVuSans-34" d="M 2419 4116 
L 825 1625 
L 2419 1625 
L 2419 4116 
z
M 2253 4666 
L 3047 4666 
L 3047 1625 
L 3713 1625 
L 3713 1100 
L 3047 1100 
L 3047 0 
L 2419 0 
L 2419 1100 
L 313 1100 
L 313 1709 
L 2253 4666 
z
" transform="scale(0.015625)"/>
        <path id="DejaVuSans-38" d="M 2034 2216 
Q 1584 2216 1326 1975 
Q 1069 1734 1069 1313 
Q 1069 891 1326 650 
Q 1584 409 2034 409 
Q 2484 409 2743 651 
Q 3003 894 3003 1313 
Q 3003 1734 2745 1975 
Q 2488 2216 2034 2216 
z
M 1403 2484 
Q 997 2584 770 2862 
Q 544 3141 544 3541 
Q 544 4100 942 4425 
Q 1341 4750 2034 4750 
Q 2731 4750 3128 4425 
Q 3525 4100 3525 3541 
Q 3525 3141 3298 2862 
Q 3072 2584 2669 2484 
Q 3125 2378 3379 2068 
Q 3634 1759 3634 1313 
Q 3634 634 3220 271 
Q 2806 -91 2034 -91 
Q 1263 -91 848 271 
Q 434 634 434 1313 
Q 434 1759 690 2068 
Q 947 2378 1403 2484 
z
M 1172 3481 
Q 1172 3119 1398 2916 
Q 1625 2713 2034 2713 
Q 2441 2713 2670 2916 
Q 2900 3119 2900 3481 
Q 2900 3844 2670 4047 
Q 2441 4250 2034 4250 
Q 1625 4250 1398 4047 
Q 1172 3844 1172 3481 
z
" transform="scale(0.015625)"/>
        <path id="DejaVuSans-2e" d="M 684 794 
L 1344 794 
L 1344 0 
L 684 0 
L 684 794 
z
" transform="scale(0.015625)"/>
        <path id="DejaVuSans-35" d="M 691 4666 
L 3169 4666 
L 3169 4134 
L 1269 4134 
L 1269 2991 
Q 1406 3038 1543 3061 
Q 1681 3084 1819 3084 
Q 2600 3084 3056 2656 
Q 3513 2228 3513 1497 
Q 3513 744 3044 326 
Q 2575 -91 1722 -91 
Q 1428 -91 1123 -41 
Q 819 9 494 109 
L 494 744 
Q 775 591 1075 516 
Q 1375 441 1709 441 
Q 2250 441 2565 725 
Q 2881 1009 2881 1497 
Q 2881 1984 2565 2268 
Q 2250 2553 1709 2553 
Q 1456 2553 1204 2497 
Q 953 2441 691 2322 
L 691 4666 
z
" transform="scale(0.015625)"/>
        <path id="DejaVuSans-30" d="M 2034 4250 
Q 1547 4250 1301 3770 
Q 1056 3291 1056 2328 
Q 1056 1369 1301 889 
Q 1547 409 2034 409 
Q 2525 409 2770 889 
Q 3016 1369 3016 2328 
Q 3016 3291 2770 3770 
Q 2525 4250 2034 4250 
z
M 2034 4750 
Q 2819 4750 3233 4129 
Q 3647 3509 3647 2328 
Q 3647 1150 3233 529 
Q 2819 -91 2034 -91 
Q 1250 -91 836 529 
Q 422 1150 422 2328 
Q 422 3509 836 4129 
Q 1250 4750 2034 4750 
z
" transform="scale(0.015625)"/>
       </defs>
       <use xlink:href="#DejaVuSans-2212"/>
       <use xlink:href="#DejaVuSans-34" transform="translate(83.789062 0)"/>
       <use xlink:href="#DejaVuSans-38" transform="translate(147.412109 0)"/>
       <use xlink:href="#DejaVuSans-2e" transform="translate(211.035156 0)"/>
       <use xlink:href="#DejaVuSans-35" transform="translate(242.822266 0)"/>
       <use xlink:href="#DejaVuSans-30" transform="translate(306.445312 0)"/>
       <use xlink:href="#DejaVuSans-30" transform="translate(370.068359 0)"/>
      </g>
     </g>
    </g>
    <g id="xtick_2">
     <g id="line2d_3">
      <path d="M 220.454789 750.965046 
L 220.454789 121.674954 
" clip-path="url(#pa66852586e)" style="fill: none; stroke: #b0b0b0; stroke-width: 0.8; stroke-linecap: square"/>
     </g>
     <g id="line2d_4">
      <g>
       <use xlink:href="#m6a08f80cc6" x="220.454789" y="750.965046" style="stroke: #000000; stroke-width: 0.8"/>
      </g>
     </g>
     <g id="text_2">
      <!-- −48.475 -->
      <g transform="translate(207.072241 794.005394) rotate(-45) scale(0.1 -0.1)">
       <defs>
        <path id="DejaVuSans-37" d="M 525 4666 
L 3525 4666 
L 3525 4397 
L 1831 0 
L 1172 0 
L 2766 4134 
L 525 4134 
L 525 4666 
z
" transform="scale(0.015625)"/>
       </defs>
       <use xlink:href="#DejaVuSans-2212"/>
       <use xlink:href="#DejaVuSans-34" transform="translate(83.789062 0)"/>
       <use xlink:href="#DejaVuSans-38" transform="translate(147.412109 0)"/>
       <use xlink:href="#DejaVuSans-2e" transform="translate(211.035156 0)"/>
       <use xlink:href="#DejaVuSans-34" transform="translate(242.822266 0)"/>
       <use xlink:href="#DejaVuSans-37" transform="translate(306.445312 0)"/>
       <use xlink:href="#DejaVuSans-35" transform="translate(370.068359 0)"/>
      </g>
     </g>
    </g>
    <g id="xtick_3">
     <g id="line2d_5">
      <path d="M 292.799582 750.965046 
L 292.799582 121.674954 
" clip-path="url(#pa66852586e)" style="fill: none; stroke: #b0b0b0; stroke-width: 0.8; stroke-linecap: square"/>
     </g>
     <g id="line2d_6">
      <g>
       <use xlink:href="#m6a08f80cc6" x="292.799582" y="750.965046" style="stroke: #000000; stroke-width: 0.8"/>
      </g>
     </g>
     <g id="text_3">
      <!-- −48.450 -->
      <g transform="translate(279.417034 794.005394) rotate(-45) scale(0.1 -0.1)">
       <use xlink:href="#DejaVuSans-2212"/>
       <use xlink:href="#DejaVuSans-34" transform="translate(83.789062 0)"/>
       <use xlink:href="#DejaVuSans-38" transform="translate(147.412109 0)"/>
       <use xlink:href="#DejaVuSans-2e" transform="translate(211.035156 0)"/>
       <use xlink:href="#DejaVuSans-34" transform="translate(242.822266 0)"/>
       <use xlink:href="#DejaVuSans-35" transform="translate(306.445312 0)"/>
       <use xlink:href="#DejaVuSans-30" transform="translate(370.068359 0)"/>
      </g>
     </g>
    </g>
    <g id="xtick_4">
     <g id="line2d_7">
      <path d="M 365.144375 750.965046 
L 365.144375 121.674954 
" clip-path="url(#pa66852586e)" style="fill: none; stroke: #b0b0b0; stroke-width: 0.8; stroke-linecap: square"/>
     </g>
     <g id="line2d_8">
      <g>
       <use xlink:href="#m6a08f80cc6" x="365.144375" y="750.965046" style="stroke: #000000; stroke-width: 0.8"/>
      </g>
     </g>
     <g id="text_4">
      <!-- −48.425 -->
      <g transform="translate(351.761827 794.005394) rotate(-45) scale(0.1 -0.1)">
       <defs>
        <path id="DejaVuSans-32" d="M 1228 531 
L 3431 531 
L 3431 0 
L 469 0 
L 469 531 
Q 828 903 1448 1529 
Q 2069 2156 2228 2338 
Q 2531 2678 2651 2914 
Q 2772 3150 2772 3378 
Q 2772 3750 2511 3984 
Q 2250 4219 1831 4219 
Q 1534 4219 1204 4116 
Q 875 4013 500 3803 
L 500 4441 
Q 881 4594 1212 4672 
Q 1544 4750 1819 4750 
Q 2544 4750 2975 4387 
Q 3406 4025 3406 3419 
Q 3406 3131 3298 2873 
Q 3191 2616 2906 2266 
Q 2828 2175 2409 1742 
Q 1991 1309 1228 531 
z
" transform="scale(0.015625)"/>
       </defs>
       <use xlink:href="#DejaVuSans-2212"/>
       <use xlink:href="#DejaVuSans-34" transform="translate(83.789062 0)"/>
       <use xlink:href="#DejaVuSans-38" transform="translate(147.412109 0)"/>
       <use xlink:href="#DejaVuSans-2e" transform="translate(211.035156 0)"/>
       <use xlink:href="#DejaVuSans-34" transform="translate(242.822266 0)"/>
       <use xlink:href="#DejaVuSans-32" transform="translate(306.445312 0)"/>
       <use xlink:href="#DejaVuSans-35" transform="translate(370.068359 0)"/>
      </g>
     </g>
    </g>
    <g id="xtick_5">
     <g id="line2d_9">
      <path d="M 437.489168 750.965046 
L 437.489168 121.674954 
" clip-path="url(#pa66852586e)" style="fill: none; stroke: #b0b0b0; stroke-width: 0.8; stroke-linecap: square"/>
     </g>
     <g id="line2d_10">
      <g>
       <use xlink:href="#m6a08f80cc6" x="437.489168" y="750.965046" style="stroke: #000000; stroke-width: 0.8"/>
      </g>
     </g>
     <g id="text_5">
      <!-- −48.400 -->
      <g transform="translate(424.10662 794.005394) rotate(-45) scale(0.1 -0.1)">
       <use xlink:href="#DejaVuSans-2212"/>
       <use xlink:href="#DejaVuSans-34" transform="translate(83.789062 0)"/>
       <use xlink:href="#DejaVuSans-38" transform="translate(147.412109 0)"/>
       <use xlink:href="#DejaVuSans-2e" transform="translate(211.035156 0)"/>
       <use xlink:href="#DejaVuSans-34" transform="translate(242.822266 0)"/>
       <use xlink:href="#DejaVuSans-30" transform="translate(306.445312 0)"/>
       <use xlink:href="#DejaVuSans-30" transform="translate(370.068359 0)"/>
      </g>
     </g>
    </g>
    <g id="xtick_6">
     <g id="line2d_11">
      <path d="M 509.833961 750.965046 
L 509.833961 121.674954 
" clip-path="url(#pa66852586e)" style="fill: none; stroke: #b0b0b0; stroke-width: 0.8; stroke-linecap: square"/>
     </g>
     <g id="line2d_12">
      <g>
       <use xlink:href="#m6a08f80cc6" x="509.833961" y="750.965046" style="stroke: #000000; stroke-width: 0.8"/>
      </g>
     </g>
     <g id="text_6">
      <!-- −48.375 -->
      <g transform="translate(496.451412 794.005394) rotate(-45) scale(0.1 -0.1)">
       <defs>
        <path id="DejaVuSans-33" d="M 2597 2516 
Q 3050 2419 3304 2112 
Q 3559 1806 3559 1356 
Q 3559 666 3084 287 
Q 2609 -91 1734 -91 
Q 1441 -91 1130 -33 
Q 819 25 488 141 
L 488 750 
Q 750 597 1062 519 
Q 1375 441 1716 441 
Q 2309 441 2620 675 
Q 2931 909 2931 1356 
Q 2931 1769 2642 2001 
Q 2353 2234 1838 2234 
L 1294 2234 
L 1294 2753 
L 1863 2753 
Q 2328 2753 2575 2939 
Q 2822 3125 2822 3475 
Q 2822 3834 2567 4026 
Q 2313 4219 1838 4219 
Q 1578 4219 1281 4162 
Q 984 4106 628 3988 
L 628 4550 
Q 988 4650 1302 4700 
Q 1616 4750 1894 4750 
Q 2613 4750 3031 4423 
Q 3450 4097 3450 3541 
Q 3450 3153 3228 2886 
Q 3006 2619 2597 2516 
z
" transform="scale(0.015625)"/>
       </defs>
       <use xlink:href="#DejaVuSans-2212"/>
       <use xlink:href="#DejaVuSans-34" transform="translate(83.789062 0)"/>
       <use xlink:href="#DejaVuSans-38" transform="translate(147.412109 0)"/>
       <use xlink:href="#DejaVuSans-2e" transform="translate(211.035156 0)"/>
       <use xlink:href="#DejaVuSans-33" transform="translate(242.822266 0)"/>
       <use xlink:href="#DejaVuSans-37" transform="translate(306.445312 0)"/>
       <use xlink:href="#DejaVuSans-35" transform="translate(370.068359 0)"/>
      </g>
     </g>
    </g>
    <g id="xtick_7">
     <g id="line2d_13">
      <path d="M 582.178754 750.965046 
L 582.178754 121.674954 
" clip-path="url(#pa66852586e)" style="fill: none; stroke: #b0b0b0; stroke-width: 0.8; stroke-linecap: square"/>
     </g>
     <g id="line2d_14">
      <g>
       <use xlink:href="#m6a08f80cc6" x="582.178754" y="750.965046" style="stroke: #000000; stroke-width: 0.8"/>
      </g>
     </g>
     <g id="text_7">
      <!-- −48.350 -->
      <g transform="translate(568.796205 794.005394) rotate(-45) scale(0.1 -0.1)">
       <use xlink:href="#DejaVuSans-2212"/>
       <use xlink:href="#DejaVuSans-34" transform="translate(83.789062 0)"/>
       <use xlink:href="#DejaVuSans-38" transform="translate(147.412109 0)"/>
       <use xlink:href="#DejaVuSans-2e" transform="translate(211.035156 0)"/>
       <use xlink:href="#DejaVuSans-33" transform="translate(242.822266 0)"/>
       <use xlink:href="#DejaVuSans-35" transform="translate(306.445312 0)"/>
       <use xlink:href="#DejaVuSans-30" transform="translate(370.068359 0)"/>
      </g>
     </g>
    </g>
    <g id="text_8">
     <!-- Longitude (°) -->
     <g transform="translate(336.139844 807.074393) scale(0.1 -0.1)">
      <defs>
       <path id="DejaVuSans-4c" d="M 628 4666 
L 1259 4666 
L 1259 531 
L 3531 531 
L 3531 0 
L 628 0 
L 628 4666 
z
" transform="scale(0.015625)"/>
       <path id="DejaVuSans-6f" d="M 1959 3097 
Q 1497 3097 1228 2736 
Q 959 2375 959 1747 
Q 959 1119 1226 758 
Q 1494 397 1959 397 
Q 2419 397 2687 759 
Q 2956 1122 2956 1747 
Q 2956 2369 2687 2733 
Q 2419 3097 1959 3097 
z
M 1959 3584 
Q 2709 3584 3137 3096 
Q 3566 2609 3566 1747 
Q 3566 888 3137 398 
Q 2709 -91 1959 -91 
Q 1206 -91 779 398 
Q 353 888 353 1747 
Q 353 2609 779 3096 
Q 1206 3584 1959 3584 
z
" transform="scale(0.015625)"/>
       <path id="DejaVuSans-6e" d="M 3513 2113 
L 3513 0 
L 2938 0 
L 2938 2094 
Q 2938 2591 2744 2837 
Q 2550 3084 2163 3084 
Q 1697 3084 1428 2787 
Q 1159 2491 1159 1978 
L 1159 0 
L 581 0 
L 581 3500 
L 1159 3500 
L 1159 2956 
Q 1366 3272 1645 3428 
Q 1925 3584 2291 3584 
Q 2894 3584 3203 3211 
Q 3513 2838 3513 2113 
z
" transform="scale(0.015625)"/>
       <path id="DejaVuSans-67" d="M 2906 1791 
Q 2906 2416 2648 2759 
Q 2391 3103 1925 3103 
Q 1463 3103 1205 2759 
Q 947 2416 947 1791 
Q 947 1169 1205 825 
Q 1463 481 1925 481 
Q 2391 481 2648 825 
Q 2906 1169 2906 1791 
z
M 3481 434 
Q 3481 -459 3084 -895 
Q 2688 -1331 1869 -1331 
Q 1566 -1331 1297 -1286 
Q 1028 -1241 775 -1147 
L 775 -588 
Q 1028 -725 1275 -790 
Q 1522 -856 1778 -856 
Q 2344 -856 2625 -561 
Q 2906 -266 2906 331 
L 2906 616 
Q 2728 306 2450 153 
Q 2172 0 1784 0 
Q 1141 0 747 490 
Q 353 981 353 1791 
Q 353 2603 747 3093 
Q 1141 3584 1784 3584 
Q 2172 3584 2450 3431 
Q 2728 3278 2906 2969 
L 2906 3500 
L 3481 3500 
L 3481 434 
z
" transform="scale(0.015625)"/>
       <path id="DejaVuSans-69" d="M 603 3500 
L 1178 3500 
L 1178 0 
L 603 0 
L 603 3500 
z
M 603 4863 
L 1178 4863 
L 1178 4134 
L 603 4134 
L 603 4863 
z
" transform="scale(0.015625)"/>
       <path id="DejaVuSans-74" d="M 1172 4494 
L 1172 3500 
L 2356 3500 
L 2356 3053 
L 1172 3053 
L 1172 1153 
Q 1172 725 1289 603 
Q 1406 481 1766 481 
L 2356 481 
L 2356 0 
L 1766 0 
Q 1100 0 847 248 
Q 594 497 594 1153 
L 594 3053 
L 172 3053 
L 172 3500 
L 594 3500 
L 594 4494 
L 1172 4494 
z
" transform="scale(0.015625)"/>
       <path id="DejaVuSans-75" d="M 544 1381 
L 544 3500 
L 1119 3500 
L 1119 1403 
Q 1119 906 1312 657 
Q 1506 409 1894 409 
Q 2359 409 2629 706 
Q 2900 1003 2900 1516 
L 2900 3500 
L 3475 3500 
L 3475 0 
L 2900 0 
L 2900 538 
Q 2691 219 2414 64 
Q 2138 -91 1772 -91 
Q 1169 -91 856 284 
Q 544 659 544 1381 
z
M 1991 3584 
L 1991 3584 
z
" transform="scale(0.015625)"/>
       <path id="DejaVuSans-64" d="M 2906 2969 
L 2906 4863 
L 3481 4863 
L 3481 0 
L 2906 0 
L 2906 525 
Q 2725 213 2448 61 
Q 2172 -91 1784 -91 
Q 1150 -91 751 415 
Q 353 922 353 1747 
Q 353 2572 751 3078 
Q 1150 3584 1784 3584 
Q 2172 3584 2448 3432 
Q 2725 3281 2906 2969 
z
M 947 1747 
Q 947 1113 1208 752 
Q 1469 391 1925 391 
Q 2381 391 2643 752 
Q 2906 1113 2906 1747 
Q 2906 2381 2643 2742 
Q 2381 3103 1925 3103 
Q 1469 3103 1208 2742 
Q 947 2381 947 1747 
z
" transform="scale(0.015625)"/>
       <path id="DejaVuSans-65" d="M 3597 1894 
L 3597 1613 
L 953 1613 
Q 991 1019 1311 708 
Q 1631 397 2203 397 
Q 2534 397 2845 478 
Q 3156 559 3463 722 
L 3463 178 
Q 3153 47 2828 -22 
Q 2503 -91 2169 -91 
Q 1331 -91 842 396 
Q 353 884 353 1716 
Q 353 2575 817 3079 
Q 1281 3584 2069 3584 
Q 2775 3584 3186 3129 
Q 3597 2675 3597 1894 
z
M 3022 2063 
Q 3016 2534 2758 2815 
Q 2500 3097 2075 3097 
Q 1594 3097 1305 2825 
Q 1016 2553 972 2059 
L 3022 2063 
z
" transform="scale(0.015625)"/>
       <path id="DejaVuSans-20" transform="scale(0.015625)"/>
       <path id="DejaVuSans-28" d="M 1984 4856 
Q 1566 4138 1362 3434 
Q 1159 2731 1159 2009 
Q 1159 1288 1364 580 
Q 1569 -128 1984 -844 
L 1484 -844 
Q 1016 -109 783 600 
Q 550 1309 550 2009 
Q 550 2706 781 3412 
Q 1013 4119 1484 4856 
L 1984 4856 
z
" transform="scale(0.015625)"/>
       <path id="DejaVuSans-b0" d="M 1600 4347 
Q 1350 4347 1178 4173 
Q 1006 4000 1006 3750 
Q 1006 3503 1178 3333 
Q 1350 3163 1600 3163 
Q 1850 3163 2022 3333 
Q 2194 3503 2194 3750 
Q 2194 3997 2020 4172 
Q 1847 4347 1600 4347 
z
M 1600 4750 
Q 1800 4750 1984 4673 
Q 2169 4597 2303 4453 
Q 2447 4313 2519 4134 
Q 2591 3956 2591 3750 
Q 2591 3338 2302 3052 
Q 2013 2766 1594 2766 
Q 1172 2766 890 3047 
Q 609 3328 609 3750 
Q 609 4169 896 4459 
Q 1184 4750 1600 4750 
z
" transform="scale(0.015625)"/>
       <path id="DejaVuSans-29" d="M 513 4856 
L 1013 4856 
Q 1481 4119 1714 3412 
Q 1947 2706 1947 2009 
Q 1947 1309 1714 600 
Q 1481 -109 1013 -844 
L 513 -844 
Q 928 -128 1133 580 
Q 1338 1288 1338 2009 
Q 1338 2731 1133 3434 
Q 928 4138 513 4856 
z
" transform="scale(0.015625)"/>
      </defs>
      <use xlink:href="#DejaVuSans-4c"/>
      <use xlink:href="#DejaVuSans-6f" transform="translate(53.962891 0)"/>
      <use xlink:href="#DejaVuSans-6e" transform="translate(115.144531 0)"/>
      <use xlink:href="#DejaVuSans-67" transform="translate(178.523438 0)"/>
      <use xlink:href="#DejaVuSans-69" transform="translate(242 0)"/>
      <use xlink:href="#DejaVuSans-74" transform="translate(269.783203 0)"/>
      <use xlink:href="#DejaVuSans-75" transform="translate(308.992188 0)"/>
      <use xlink:href="#DejaVuSans-64" transform="translate(372.371094 0)"/>
      <use xlink:href="#DejaVuSans-65" transform="translate(435.847656 0)"/>
      <use xlink:href="#DejaVuSans-20" transform="translate(497.371094 0)"/>
      <use xlink:href="#DejaVuSans-28" transform="translate(529.158203 0)"/>
      <use xlink:href="#DejaVuSans-b0" transform="translate(568.171875 0)"/>
      <use xlink:href="#DejaVuSans-29" transform="translate(618.171875 0)"/>
     </g>
    </g>
   </g>
   <g id="matplotlib.axis_2">
    <g id="ytick_1">
     <g id="line2d_15">
      <path d="M 90 731.662809 
L 648 731.662809 
" clip-path="url(#pa66852586e)" style="fill: none; stroke: #b0b0b0; stroke-width: 0.8; stroke-linecap: square"/>
     </g>
     <g id="line2d_16">
      <defs>
       <path id="m4671be5d84" d="M 0 0 
L -3.5 0 
" style="stroke: #000000; stroke-width: 0.8"/>
      </defs>
      <g>
       <use xlink:href="#m4671be5d84" x="90" y="731.662809" style="stroke: #000000; stroke-width: 0.8"/>
      </g>
     </g>
     <g id="text_9">
      <!-- −6.550 -->
      <g transform="translate(45.992188 735.462028) scale(0.1 -0.1)">
       <defs>
        <path id="DejaVuSans-36" d="M 2113 2584 
Q 1688 2584 1439 2293 
Q 1191 2003 1191 1497 
Q 1191 994 1439 701 
Q 1688 409 2113 409 
Q 2538 409 2786 701 
Q 3034 994 3034 1497 
Q 3034 2003 2786 2293 
Q 2538 2584 2113 2584 
z
M 3366 4563 
L 3366 3988 
Q 3128 4100 2886 4159 
Q 2644 4219 2406 4219 
Q 1781 4219 1451 3797 
Q 1122 3375 1075 2522 
Q 1259 2794 1537 2939 
Q 1816 3084 2150 3084 
Q 2853 3084 3261 2657 
Q 3669 2231 3669 1497 
Q 3669 778 3244 343 
Q 2819 -91 2113 -91 
Q 1303 -91 875 529 
Q 447 1150 447 2328 
Q 447 3434 972 4092 
Q 1497 4750 2381 4750 
Q 2619 4750 2861 4703 
Q 3103 4656 3366 4563 
z
" transform="scale(0.015625)"/>
       </defs>
       <use xlink:href="#DejaVuSans-2212"/>
       <use xlink:href="#DejaVuSans-36" transform="translate(83.789062 0)"/>
       <use xlink:href="#DejaVuSans-2e" transform="translate(147.412109 0)"/>
       <use xlink:href="#DejaVuSans-35" transform="translate(179.199219 0)"/>
       <use xlink:href="#DejaVuSans-35" transform="translate(242.822266 0)"/>
       <use xlink:href="#DejaVuSans-30" transform="translate(306.445312 0)"/>
      </g>
     </g>
    </g>
    <g id="ytick_2">
     <g id="line2d_17">
      <path d="M 90 658.853019 
L 648 658.853019 
" clip-path="url(#pa66852586e)" style="fill: none; stroke: #b0b0b0; stroke-width: 0.8; stroke-linecap: square"/>
     </g>
     <g id="line2d_18">
      <g>
       <use xlink:href="#m4671be5d84" x="90" y="658.853019" style="stroke: #000000; stroke-width: 0.8"/>
      </g>
     </g>
     <g id="text_10">
      <!-- −6.525 -->
      <g transform="translate(45.992188 662.652237) scale(0.1 -0.1)">
       <use xlink:href="#DejaVuSans-2212"/>
       <use xlink:href="#DejaVuSans-36" transform="translate(83.789062 0)"/>
       <use xlink:href="#DejaVuSans-2e" transform="translate(147.412109 0)"/>
       <use xlink:href="#DejaVuSans-35" transform="translate(179.199219 0)"/>
       <use xlink:href="#DejaVuSans-32" transform="translate(242.822266 0)"/>
       <use xlink:href="#DejaVuSans-35" transform="translate(306.445312 0)"/>
      </g>
     </g>
    </g>
    <g id="ytick_3">
     <g id="line2d_19">
      <path d="M 90 586.043228 
L 648 586.043228 
" clip-path="url(#pa66852586e)" style="fill: none; stroke: #b0b0b0; stroke-width: 0.8; stroke-linecap: square"/>
     </g>
     <g id="line2d_20">
      <g>
       <use xlink:href="#m4671be5d84" x="90" y="586.043228" style="stroke: #000000; stroke-width: 0.8"/>
      </g>
     </g>
     <g id="text_11">
      <!-- −6.500 -->
      <g transform="translate(45.992188 589.842447) scale(0.1 -0.1)">
       <use xlink:href="#DejaVuSans-2212"/>
       <use xlink:href="#DejaVuSans-36" transform="translate(83.789062 0)"/>
       <use xlink:href="#DejaVuSans-2e" transform="translate(147.412109 0)"/>
       <use xlink:href="#DejaVuSans-35" transform="translate(179.199219 0)"/>
       <use xlink:href="#DejaVuSans-30" transform="translate(242.822266 0)"/>
       <use xlink:href="#DejaVuSans-30" transform="translate(306.445312 0)"/>
      </g>
     </g>
    </g>
    <g id="ytick_4">
     <g id="line2d_21">
      <path d="M 90 513.233438 
L 648 513.233438 
" clip-path="url(#pa66852586e)" style="fill: none; stroke: #b0b0b0; stroke-width: 0.8; stroke-linecap: square"/>
     </g>
     <g id="line2d_22">
      <g>
       <use xlink:href="#m4671be5d84" x="90" y="513.233438" style="stroke: #000000; stroke-width: 0.8"/>
      </g>
     </g>
     <g id="text_12">
      <!-- −6.475 -->
      <g transform="translate(45.992188 517.032656) scale(0.1 -0.1)">
       <use xlink:href="#DejaVuSans-2212"/>
       <use xlink:href="#DejaVuSans-36" transform="translate(83.789062 0)"/>
       <use xlink:href="#DejaVuSans-2e" transform="translate(147.412109 0)"/>
       <use xlink:href="#DejaVuSans-34" transform="translate(179.199219 0)"/>
       <use xlink:href="#DejaVuSans-37" transform="translate(242.822266 0)"/>
       <use xlink:href="#DejaVuSans-35" transform="translate(306.445312 0)"/>
      </g>
     </g>
    </g>
    <g id="ytick_5">
     <g id="line2d_23">
      <path d="M 90 440.423647 
L 648 440.423647 
" clip-path="url(#pa66852586e)" style="fill: none; stroke: #b0b0b0; stroke-width: 0.8; stroke-linecap: square"/>
     </g>
     <g id="line2d_24">
      <g>
       <use xlink:href="#m4671be5d84" x="90" y="440.423647" style="stroke: #000000; stroke-width: 0.8"/>
      </g>
     </g>
     <g id="text_13">
      <!-- −6.450 -->
      <g transform="translate(45.992188 444.222866) scale(0.1 -0.1)">
       <use xlink:href="#DejaVuSans-2212"/>
       <use xlink:href="#DejaVuSans-36" transform="translate(83.789062 0)"/>
       <use xlink:href="#DejaVuSans-2e" transform="translate(147.412109 0)"/>
       <use xlink:href="#DejaVuSans-34" transform="translate(179.199219 0)"/>
       <use xlink:href="#DejaVuSans-35" transform="translate(242.822266 0)"/>
       <use xlink:href="#DejaVuSans-30" transform="translate(306.445312 0)"/>
      </g>
     </g>
    </g>
    <g id="ytick_6">
     <g id="line2d_25">
      <path d="M 90 367.613857 
L 648 367.613857 
" clip-path="url(#pa66852586e)" style="fill: none; stroke: #b0b0b0; stroke-width: 0.8; stroke-linecap: square"/>
     </g>
     <g id="line2d_26">
      <g>
       <use xlink:href="#m4671be5d84" x="90" y="367.613857" style="stroke: #000000; stroke-width: 0.8"/>
      </g>
     </g>
     <g id="text_14">
      <!-- −6.425 -->
      <g transform="translate(45.992188 371.413075) scale(0.1 -0.1)">
       <use xlink:href="#DejaVuSans-2212"/>
       <use xlink:href="#DejaVuSans-36" transform="translate(83.789062 0)"/>
       <use xlink:href="#DejaVuSans-2e" transform="translate(147.412109 0)"/>
       <use xlink:href="#DejaVuSans-34" transform="translate(179.199219 0)"/>
       <use xlink:href="#DejaVuSans-32" transform="translate(242.822266 0)"/>
       <use xlink:href="#DejaVuSans-35" transform="translate(306.445312 0)"/>
      </g>
     </g>
    </g>
    <g id="ytick_7">
     <g id="line2d_27">
      <path d="M 90 294.804066 
L 648 294.804066 
" clip-path="url(#pa66852586e)" style="fill: none; stroke: #b0b0b0; stroke-width: 0.8; stroke-linecap: square"/>
     </g>
     <g id="line2d_28">
      <g>
       <use xlink:href="#m4671be5d84" x="90" y="294.804066" style="stroke: #000000; stroke-width: 0.8"/>
      </g>
     </g>
     <g id="text_15">
      <!-- −6.400 -->
      <g transform="translate(45.992188 298.603285) scale(0.1 -0.1)">
       <use xlink:href="#DejaVuSans-2212"/>
       <use xlink:href="#DejaVuSans-36" transform="translate(83.789062 0)"/>
       <use xlink:href="#DejaVuSans-2e" transform="translate(147.412109 0)"/>
       <use xlink:href="#DejaVuSans-34" transform="translate(179.199219 0)"/>
       <use xlink:href="#DejaVuSans-30" transform="translate(242.822266 0)"/>
       <use xlink:href="#DejaVuSans-30" transform="translate(306.445312 0)"/>
      </g>
     </g>
    </g>
    <g id="ytick_8">
     <g id="line2d_29">
      <path d="M 90 221.994276 
L 648 221.994276 
" clip-path="url(#pa66852586e)" style="fill: none; stroke: #b0b0b0; stroke-width: 0.8; stroke-linecap: square"/>
     </g>
     <g id="line2d_30">
      <g>
       <use xlink:href="#m4671be5d84" x="90" y="221.994276" style="stroke: #000000; stroke-width: 0.8"/>
      </g>
     </g>
     <g id="text_16">
      <!-- −6.375 -->
      <g transform="translate(45.992188 225.793494) scale(0.1 -0.1)">
       <use xlink:href="#DejaVuSans-2212"/>
       <use xlink:href="#DejaVuSans-36" transform="translate(83.789062 0)"/>
       <use xlink:href="#DejaVuSans-2e" transform="translate(147.412109 0)"/>
       <use xlink:href="#DejaVuSans-33" transform="translate(179.199219 0)"/>
       <use xlink:href="#DejaVuSans-37" transform="translate(242.822266 0)"/>
       <use xlink:href="#DejaVuSans-35" transform="translate(306.445312 0)"/>
      </g>
     </g>
    </g>
    <g id="ytick_9">
     <g id="line2d_31">
      <path d="M 90 149.184485 
L 648 149.184485 
" clip-path="url(#pa66852586e)" style="fill: none; stroke: #b0b0b0; stroke-width: 0.8; stroke-linecap: square"/>
     </g>
     <g id="line2d_32">
      <g>
       <use xlink:href="#m4671be5d84" x="90" y="149.184485" style="stroke: #000000; stroke-width: 0.8"/>
      </g>
     </g>
     <g id="text_17">
      <!-- −6.350 -->
      <g transform="translate(45.992188 152.983704) scale(0.1 -0.1)">
       <use xlink:href="#DejaVuSans-2212"/>
       <use xlink:href="#DejaVuSans-36" transform="translate(83.789062 0)"/>
       <use xlink:href="#DejaVuSans-2e" transform="translate(147.412109 0)"/>
       <use xlink:href="#DejaVuSans-33" transform="translate(179.199219 0)"/>
       <use xlink:href="#DejaVuSans-35" transform="translate(242.822266 0)"/>
       <use xlink:href="#DejaVuSans-30" transform="translate(306.445312 0)"/>
      </g>
     </g>
    </g>
    <g id="text_18">
     <!-- Latitude (°) -->
     <g transform="translate(39.9125 464.889531) rotate(-90) scale(0.1 -0.1)">
      <defs>
       <path id="DejaVuSans-61" d="M 2194 1759 
Q 1497 1759 1228 1600 
Q 959 1441 959 1056 
Q 959 750 1161 570 
Q 1363 391 1709 391 
Q 2188 391 2477 730 
Q 2766 1069 2766 1631 
L 2766 1759 
L 2194 1759 
z
M 3341 1997 
L 3341 0 
L 2766 0 
L 2766 531 
Q 2569 213 2275 61 
Q 1981 -91 1556 -91 
Q 1019 -91 701 211 
Q 384 513 384 1019 
Q 384 1609 779 1909 
Q 1175 2209 1959 2209 
L 2766 2209 
L 2766 2266 
Q 2766 2663 2505 2880 
Q 2244 3097 1772 3097 
Q 1472 3097 1187 3025 
Q 903 2953 641 2809 
L 641 3341 
Q 956 3463 1253 3523 
Q 1550 3584 1831 3584 
Q 2591 3584 2966 3190 
Q 3341 2797 3341 1997 
z
" transform="scale(0.015625)"/>
      </defs>
      <use xlink:href="#DejaVuSans-4c"/>
      <use xlink:href="#DejaVuSans-61" transform="translate(55.712891 0)"/>
      <use xlink:href="#DejaVuSans-74" transform="translate(116.992188 0)"/>
      <use xlink:href="#DejaVuSans-69" transform="translate(156.201172 0)"/>
      <use xlink:href="#DejaVuSans-74" transform="translate(183.984375 0)"/>
      <use xlink:href="#DejaVuSans-75" transform="translate(223.193359 0)"/>
      <use xlink:href="#DejaVuSans-64" transform="translate(286.572266 0)"/>
      <use xlink:href="#DejaVuSans-65" transform="translate(350.048828 0)"/>
      <use xlink:href="#DejaVuSans-20" transform="translate(411.572266 0)"/>
      <use xlink:href="#DejaVuSans-28" transform="translate(443.359375 0)"/>
      <use xlink:href="#DejaVuSans-b0" transform="translate(482.373047 0)"/>
      <use xlink:href="#DejaVuSans-29" transform="translate(532.373047 0)"/>
     </g>
    </g>
   </g>
   <g id="patch_3">
    <path d="M 90 750.965046 
L 90 121.674954 
" style="fill: none; stroke: #000000; stroke-width: 0.8; stroke-linejoin: miter; stroke-linecap: square"/>
   </g>
   <g id="patch_4">
    <path d="M 648 750.965046 
L 648 121.674954 
" style="fill: none; stroke: #000000; stroke-width: 0.8; stroke-linejoin: miter; stroke-linecap: square"/>
   </g>
   <g id="patch_5">
    <path d="M 90 750.965046 
L 648 750.965046 
" style="fill: none; stroke: #000000; stroke-width: 0.8; stroke-linejoin: miter; stroke-linecap: square"/>
   </g>
   <g id="patch_6">
    <path d="M 90 121.674954 
L 648 121.674954 
" style="fill: none; stroke: #000000; stroke-width: 0.8; stroke-linejoin: miter; stroke-linecap: square"/>
   </g>
   <g id="legend_1">
    <g id="patch_7">
     <path d="M 189.690625 914.179314 
L 548.309375 914.179314 
Q 550.309375 914.179314 550.309375 912.179314 
L 550.309375 883.823064 
Q 550.309375 881.823064 548.309375 881.823064 
L 189.690625 881.823064 
Q 187.690625 881.823064 187.690625 883.823064 
L 187.690625 912.179314 
Q 187.690625 914.179314 189.690625 914.179314 
z
" style="fill: #ffffff; opacity: 0.8; stroke: #cccccc; stroke-linejoin: miter"/>
    </g>
    <g id="line2d_33">
     <defs>
      <path id="m7a224b4569" d="M 0 5 
C 1.326016 5 2.597899 4.473168 3.535534 3.535534 
C 4.473168 2.597899 5 1.326016 5 0 
C 5 -1.326016 4.473168 -2.597899 3.535534 -3.535534 
C 2.597899 -4.473168 1.326016 -5 0 -5 
C -1.326016 -5 -2.597899 -4.473168 -3.535534 -3.535534 
C -4.473168 -2.597899 -5 -1.326016 -5 0 
C -5 1.326016 -4.473168 2.597899 -3.535534 3.535534 
C -2.597899 4.473168 -1.326016 5 0 5 
z
"/>
     </defs>
     <g>
      <use xlink:href="#m7a224b4569" x="201.690625" y="889.921502" style="fill: #b3e2cd; fill-opacity: 0.65"/>
     </g>
    </g>
    <g id="text_19">
     <!-- PA BARRA DO LONTRA -->
     <g transform="translate(219.690625 893.421502) scale(0.1 -0.1)">
      <defs>
       <path id="DejaVuSans-50" d="M 1259 4147 
L 1259 2394 
L 2053 2394 
Q 2494 2394 2734 2622 
Q 2975 2850 2975 3272 
Q 2975 3691 2734 3919 
Q 2494 4147 2053 4147 
L 1259 4147 
z
M 628 4666 
L 2053 4666 
Q 2838 4666 3239 4311 
Q 3641 3956 3641 3272 
Q 3641 2581 3239 2228 
Q 2838 1875 2053 1875 
L 1259 1875 
L 1259 0 
L 628 0 
L 628 4666 
z
" transform="scale(0.015625)"/>
       <path id="DejaVuSans-41" d="M 2188 4044 
L 1331 1722 
L 3047 1722 
L 2188 4044 
z
M 1831 4666 
L 2547 4666 
L 4325 0 
L 3669 0 
L 3244 1197 
L 1141 1197 
L 716 0 
L 50 0 
L 1831 4666 
z
" transform="scale(0.015625)"/>
       <path id="DejaVuSans-42" d="M 1259 2228 
L 1259 519 
L 2272 519 
Q 2781 519 3026 730 
Q 3272 941 3272 1375 
Q 3272 1813 3026 2020 
Q 2781 2228 2272 2228 
L 1259 2228 
z
M 1259 4147 
L 1259 2741 
L 2194 2741 
Q 2656 2741 2882 2914 
Q 3109 3088 3109 3444 
Q 3109 3797 2882 3972 
Q 2656 4147 2194 4147 
L 1259 4147 
z
M 628 4666 
L 2241 4666 
Q 2963 4666 3353 4366 
Q 3744 4066 3744 3513 
Q 3744 3084 3544 2831 
Q 3344 2578 2956 2516 
Q 3422 2416 3680 2098 
Q 3938 1781 3938 1306 
Q 3938 681 3513 340 
Q 3088 0 2303 0 
L 628 0 
L 628 4666 
z
" transform="scale(0.015625)"/>
       <path id="DejaVuSans-52" d="M 2841 2188 
Q 3044 2119 3236 1894 
Q 3428 1669 3622 1275 
L 4263 0 
L 3584 0 
L 2988 1197 
Q 2756 1666 2539 1819 
Q 2322 1972 1947 1972 
L 1259 1972 
L 1259 0 
L 628 0 
L 628 4666 
L 2053 4666 
Q 2853 4666 3247 4331 
Q 3641 3997 3641 3322 
Q 3641 2881 3436 2590 
Q 3231 2300 2841 2188 
z
M 1259 4147 
L 1259 2491 
L 2053 2491 
Q 2509 2491 2742 2702 
Q 2975 2913 2975 3322 
Q 2975 3731 2742 3939 
Q 2509 4147 2053 4147 
L 1259 4147 
z
" transform="scale(0.015625)"/>
       <path id="DejaVuSans-44" d="M 1259 4147 
L 1259 519 
L 2022 519 
Q 2988 519 3436 956 
Q 3884 1394 3884 2338 
Q 3884 3275 3436 3711 
Q 2988 4147 2022 4147 
L 1259 4147 
z
M 628 4666 
L 1925 4666 
Q 3281 4666 3915 4102 
Q 4550 3538 4550 2338 
Q 4550 1131 3912 565 
Q 3275 0 1925 0 
L 628 0 
L 628 4666 
z
" transform="scale(0.015625)"/>
       <path id="DejaVuSans-4f" d="M 2522 4238 
Q 1834 4238 1429 3725 
Q 1025 3213 1025 2328 
Q 1025 1447 1429 934 
Q 1834 422 2522 422 
Q 3209 422 3611 934 
Q 4013 1447 4013 2328 
Q 4013 3213 3611 3725 
Q 3209 4238 2522 4238 
z
M 2522 4750 
Q 3503 4750 4090 4092 
Q 4678 3434 4678 2328 
Q 4678 1225 4090 567 
Q 3503 -91 2522 -91 
Q 1538 -91 948 565 
Q 359 1222 359 2328 
Q 359 3434 948 4092 
Q 1538 4750 2522 4750 
z
" transform="scale(0.015625)"/>
       <path id="DejaVuSans-4e" d="M 628 4666 
L 1478 4666 
L 3547 763 
L 3547 4666 
L 4159 4666 
L 4159 0 
L 3309 0 
L 1241 3903 
L 1241 0 
L 628 0 
L 628 4666 
z
" transform="scale(0.015625)"/>
       <path id="DejaVuSans-54" d="M -19 4666 
L 3928 4666 
L 3928 4134 
L 2272 4134 
L 2272 0 
L 1638 0 
L 1638 4134 
L -19 4134 
L -19 4666 
z
" transform="scale(0.015625)"/>
      </defs>
      <use xlink:href="#DejaVuSans-50"/>
      <use xlink:href="#DejaVuSans-41" transform="translate(53.927734 0)"/>
      <use xlink:href="#DejaVuSans-20" transform="translate(122.335938 0)"/>
      <use xlink:href="#DejaVuSans-42" transform="translate(154.123047 0)"/>
      <use xlink:href="#DejaVuSans-41" transform="translate(222.726562 0)"/>
      <use xlink:href="#DejaVuSans-52" transform="translate(291.134766 0)"/>
      <use xlink:href="#DejaVuSans-52" transform="translate(360.617188 0)"/>
      <use xlink:href="#DejaVuSans-41" transform="translate(426.099609 0)"/>
      <use xlink:href="#DejaVuSans-20" transform="translate(494.507812 0)"/>
      <use xlink:href="#DejaVuSans-44" transform="translate(526.294922 0)"/>
      <use xlink:href="#DejaVuSans-4f" transform="translate(603.296875 0)"/>
      <use xlink:href="#DejaVuSans-20" transform="translate(682.007812 0)"/>
      <use xlink:href="#DejaVuSans-4c" transform="translate(713.794922 0)"/>
      <use xlink:href="#DejaVuSans-4f" transform="translate(765.882812 0)"/>
      <use xlink:href="#DejaVuSans-4e" transform="translate(844.59375 0)"/>
      <use xlink:href="#DejaVuSans-54" transform="translate(919.398438 0)"/>
      <use xlink:href="#DejaVuSans-52" transform="translate(980.482422 0)"/>
      <use xlink:href="#DejaVuSans-41" transform="translate(1045.964844 0)"/>
     </g>
    </g>
    <g id="line2d_34">
     <defs>
      <path id="mdbc671609c" d="M 0 5 
C 1.326016 5 2.597899 4.473168 3.535534 3.535534 
C 4.473168 2.597899 5 1.326016 5 0 
C 5 -1.326016 4.473168 -2.597899 3.535534 -3.535534 
C 2.597899 -4.473168 1.326016 -5 0 -5 
C -1.326016 -5 -2.597899 -4.473168 -3.535534 -3.535534 
C -4.473168 -2.597899 -5 -1.326016 -5 0 
C -5 1.326016 -4.473168 2.597899 -3.535534 3.535534 
C -2.597899 4.473168 -1.326016 5 0 5 
z
"/>
     </defs>
     <g>
      <use xlink:href="#mdbc671609c" x="201.690625" y="904.599627" style="fill: #cbd5e8; fill-opacity: 0.65"/>
     </g>
    </g>
    <g id="text_20">
     <!-- PA CAÇADOR -->
     <g transform="translate(219.690625 908.099627) scale(0.1 -0.1)">
      <defs>
       <path id="DejaVuSans-43" d="M 4122 4306 
L 4122 3641 
Q 3803 3938 3442 4084 
Q 3081 4231 2675 4231 
Q 1875 4231 1450 3742 
Q 1025 3253 1025 2328 
Q 1025 1406 1450 917 
Q 1875 428 2675 428 
Q 3081 428 3442 575 
Q 3803 722 4122 1019 
L 4122 359 
Q 3791 134 3420 21 
Q 3050 -91 2638 -91 
Q 1578 -91 968 557 
Q 359 1206 359 2328 
Q 359 3453 968 4101 
Q 1578 4750 2638 4750 
Q 3056 4750 3426 4639 
Q 3797 4528 4122 4306 
z
" transform="scale(0.015625)"/>
       <path id="DejaVuSans-c7" d="M 4122 4306 
L 4122 3641 
Q 3803 3938 3442 4084 
Q 3081 4231 2675 4231 
Q 1875 4231 1450 3742 
Q 1025 3253 1025 2328 
Q 1025 1406 1450 917 
Q 1875 428 2675 428 
Q 3081 428 3442 575 
Q 3803 722 4122 1019 
L 4122 359 
Q 3791 134 3420 21 
Q 3050 -91 2638 -91 
Q 1578 -91 968 557 
Q 359 1206 359 2328 
Q 359 3453 968 4101 
Q 1578 4750 2638 4750 
Q 3056 4750 3426 4639 
Q 3797 4528 4122 4306 
z
M 2803 0 
Q 2975 -194 3059 -358 
Q 3144 -522 3144 -672 
Q 3144 -950 2956 -1092 
Q 2769 -1234 2400 -1234 
Q 2256 -1234 2120 -1215 
Q 1984 -1197 1850 -1159 
L 1850 -750 
Q 1956 -803 2072 -826 
Q 2188 -850 2334 -850 
Q 2519 -850 2612 -775 
Q 2706 -700 2706 -556 
Q 2706 -463 2639 -327 
Q 2572 -191 2431 0 
L 2803 0 
z
" transform="scale(0.015625)"/>
      </defs>
      <use xlink:href="#DejaVuSans-50"/>
      <use xlink:href="#DejaVuSans-41" transform="translate(53.927734 0)"/>
      <use xlink:href="#DejaVuSans-20" transform="translate(122.335938 0)"/>
      <use xlink:href="#DejaVuSans-43" transform="translate(154.123047 0)"/>
      <use xlink:href="#DejaVuSans-41" transform="translate(223.947266 0)"/>
      <use xlink:href="#DejaVuSans-c7" transform="translate(290.605469 0)"/>
      <use xlink:href="#DejaVuSans-41" transform="translate(360.429688 0)"/>
      <use xlink:href="#DejaVuSans-44" transform="translate(428.837891 0)"/>
      <use xlink:href="#DejaVuSans-4f" transform="translate(505.839844 0)"/>
      <use xlink:href="#DejaVuSans-52" transform="translate(584.550781 0)"/>
     </g>
    </g>
    <g id="line2d_35">
     <defs>
      <path id="mb6b14c0f6f" d="M 0 5 
C 1.326016 5 2.597899 4.473168 3.535534 3.535534 
C 4.473168 2.597899 5 1.326016 5 0 
C 5 -1.326016 4.473168 -2.597899 3.535534 -3.535534 
C 2.597899 -4.473168 1.326016 -5 0 -5 
C -1.326016 -5 -2.597899 -4.473168 -3.535534 -3.535534 
C -4.473168 -2.597899 -5 -1.326016 -5 0 
C -5 1.326016 -4.473168 2.597899 -3.535534 3.535534 
C -2.597899 4.473168 -1.326016 5 0 5 
z
"/>
     </defs>
     <g>
      <use xlink:href="#mb6b14c0f6f" x="361.128125" y="889.921502" style="fill: #fff2ae; fill-opacity: 0.65"/>
     </g>
    </g>
    <g id="text_21">
     <!-- PA LIMEIRA -->
     <g transform="translate(379.128125 893.421502) scale(0.1 -0.1)">
      <defs>
       <path id="DejaVuSans-49" d="M 628 4666 
L 1259 4666 
L 1259 0 
L 628 0 
L 628 4666 
z
" transform="scale(0.015625)"/>
       <path id="DejaVuSans-4d" d="M 628 4666 
L 1569 4666 
L 2759 1491 
L 3956 4666 
L 4897 4666 
L 4897 0 
L 4281 0 
L 4281 4097 
L 3078 897 
L 2444 897 
L 1241 4097 
L 1241 0 
L 628 0 
L 628 4666 
z
" transform="scale(0.015625)"/>
       <path id="DejaVuSans-45" d="M 628 4666 
L 3578 4666 
L 3578 4134 
L 1259 4134 
L 1259 2753 
L 3481 2753 
L 3481 2222 
L 1259 2222 
L 1259 531 
L 3634 531 
L 3634 0 
L 628 0 
L 628 4666 
z
" transform="scale(0.015625)"/>
      </defs>
      <use xlink:href="#DejaVuSans-50"/>
      <use xlink:href="#DejaVuSans-41" transform="translate(53.927734 0)"/>
      <use xlink:href="#DejaVuSans-20" transform="translate(122.335938 0)"/>
      <use xlink:href="#DejaVuSans-4c" transform="translate(154.123047 0)"/>
      <use xlink:href="#DejaVuSans-49" transform="translate(209.835938 0)"/>
      <use xlink:href="#DejaVuSans-4d" transform="translate(239.328125 0)"/>
      <use xlink:href="#DejaVuSans-45" transform="translate(325.607422 0)"/>
      <use xlink:href="#DejaVuSans-49" transform="translate(388.791016 0)"/>
      <use xlink:href="#DejaVuSans-52" transform="translate(418.283203 0)"/>
      <use xlink:href="#DejaVuSans-41" transform="translate(483.765625 0)"/>
     </g>
    </g>
    <g id="line2d_36">
     <defs>
      <path id="m07e368bb65" d="M 0 5 
C 1.326016 5 2.597899 4.473168 3.535534 3.535534 
C 4.473168 2.597899 5 1.326016 5 0 
C 5 -1.326016 4.473168 -2.597899 3.535534 -3.535534 
C 2.597899 -4.473168 1.326016 -5 0 -5 
C -1.326016 -5 -2.597899 -4.473168 -3.535534 -3.535534 
C -4.473168 -2.597899 -5 -1.326016 -5 0 
C -5 1.326016 -4.473168 2.597899 -3.535534 3.535534 
C -2.597899 4.473168 -1.326016 5 0 5 
z
"/>
     </defs>
     <g>
      <use xlink:href="#m07e368bb65" x="464.346875" y="889.921502" style="fill: #cccccc; fill-opacity: 0.65"/>
     </g>
    </g>
    <g id="text_22">
     <!-- PA RECANTO -->
     <g transform="translate(482.346875 893.421502) scale(0.1 -0.1)">
      <use xlink:href="#DejaVuSans-50"/>
      <use xlink:href="#DejaVuSans-41" transform="translate(53.927734 0)"/>
      <use xlink:href="#DejaVuSans-20" transform="translate(122.335938 0)"/>
      <use xlink:href="#DejaVuSans-52" transform="translate(154.123047 0)"/>
      <use xlink:href="#DejaVuSans-45" transform="translate(223.605469 0)"/>
      <use xlink:href="#DejaVuSans-43" transform="translate(286.789062 0)"/>
      <use xlink:href="#DejaVuSans-41" transform="translate(356.613281 0)"/>
      <use xlink:href="#DejaVuSans-4e" transform="translate(425.021484 0)"/>
      <use xlink:href="#DejaVuSans-54" transform="translate(499.826172 0)"/>
      <use xlink:href="#DejaVuSans-4f" transform="translate(560.910156 0)"/>
     </g>
    </g>
   </g>
  </g>
 </g>
 <defs>
  <clipPath id="pa66852586e">
   <rect x="90" y="121.674954" width="558" height="629.290091"/>
  </clipPath>
 </defs>
</svg>
