<?xml version="1.0" encoding="utf-8" standalone="no"?>
<!DOCTYPE svg PUBLIC "-//W3C//DTD SVG 1.1//EN"
  "http://www.w3.org/Graphics/SVG/1.1/DTD/svg11.dtd">
<svg xmlns:xlink="http://www.w3.org/1999/xlink" width="720pt" height="864pt" viewBox="0 0 720 864" xmlns="http://www.w3.org/2000/svg" version="1.1">
 <metadata>
  <rdf:RDF xmlns:dc="http://purl.org/dc/elements/1.1/" xmlns:cc="http://creativecommons.org/ns#" xmlns:rdf="http://www.w3.org/1999/02/22-rdf-syntax-ns#">
   <cc:Work>
    <dc:type rdf:resource="http://purl.org/dc/dcmitype/StillImage"/>
    <dc:date>2025-06-16T17:34:07.924413</dc:date>
    <dc:format>image/svg+xml</dc:format>
    <dc:creator>
     <cc:Agent>
      <dc:title>Matplotlib v3.10.1, https://matplotlib.org/</dc:title>
     </cc:Agent>
    </dc:creator>
   </cc:Work>
  </rdf:RDF>
 </metadata>
 <defs>
  <style type="text/css">*{stroke-linejoin: round; stroke-linecap: butt}</style>
 </defs>
 <g id="figure_1">
  <g id="patch_1">
   <path d="M 0 864 
L 720 864 
L 720 0 
L 0 0 
z
" style="fill: #ffffff"/>
  </g>
  <g id="axes_1">
   <g id="patch_2">
    <path d="M 93.181918 768.96 
L 644.818082 768.96 
L 644.818082 103.68 
L 93.181918 103.68 
z
" style="fill: #ffffff"/>
   </g>
   <g id="PatchCollection_1">
    <path d="M 507.584595 541.619954 
L 511.588466 542.509337 
L 518.112264 545.055063 
L 520.488662 546.65853 
L 526.848377 550.725287 
L 528.891181 552.651055 
L 531.065373 554.028163 
L 535.780069 567.831326 
L 535.89025 568.141935 
L 537.622477 573.16758 
L 544.808014 594.271492 
L 548.898482 606.029585 
L 551.276101 613.153197 
L 557.609791 631.540999 
L 564.490179 651.456631 
L 565.614525 654.860984 
L 565.88334 655.586139 
L 570.591366 669.149414 
L 579.782784 696.512177 
L 579.93719 696.935955 
L 585.681156 713.768892 
L 585.77863 714.067213 
L 585.785278 714.086278 
L 585.851888 714.291093 
L 589.771603 726.290269 
L 557.836822 738.72 
L 557.835013 738.562547 
L 556.799073 713.093557 
L 556.323802 702.772245 
L 556.297145 702.141814 
L 556.296557 702.117834 
L 555.927216 701.88718 
L 555.820654 699.76645 
L 555.327815 699.224588 
L 555.101372 699.316854 
L 554.719346 699.719708 
L 553.616796 699.45832 
L 553.744545 698.667957 
L 554.005514 698.036308 
L 554.243443 697.272405 
L 553.536891 696.88122 
L 552.589945 696.798806 
L 551.765932 696.722527 
L 551.150183 696.406381 
L 550.379418 695.986301 
L 549.735835 695.704609 
L 549.172158 695.202713 
L 548.595142 694.267828 
L 547.943669 694.261074 
L 547.215319 694.730355 
L 546.763044 695.384788 
L 546.204205 695.866977 
L 545.733163 695.857766 
L 545.151308 695.374934 
L 544.659079 694.943783 
L 544.029403 694.512631 
L 543.946467 694.329959 
L 543.409425 694.620264 
L 542.64169 694.945621 
L 541.949654 695.180571 
L 541.24733 695.397697 
L 540.562574 695.208248 
L 540.066095 694.529836 
L 539.78697 693.682899 
L 539.635616 692.918397 
L 539.094323 692.641621 
L 538.591197 692.251056 
L 538.395639 691.662429 
L 538.152239 691.033858 
L 538.138311 690.474149 
L 538.289077 689.905207 
L 538.45013 689.175137 
L 538.543375 688.646183 
L 538.717136 687.900746 
L 539.0574 687.149752 
L 539.467304 686.344021 
L 539.584743 685.584413 
L 538.781305 684.802065 
L 538.157688 685.170488 
L 537.365148 685.41589 
L 536.729412 685.585033 
L 536.418225 685.111435 
L 536.518118 684.266956 
L 536.841424 683.749096 
L 536.857183 683.079894 
L 536.510859 681.972788 
L 536.181494 681.435841 
L 535.670477 680.722997 
L 535.16613 680.114088 
L 534.169554 679.635575 
L 533.455721 679.209339 
L 532.597792 678.456506 
L 532.0002 677.767022 
L 531.451671 677.169185 
L 531.08717 676.699882 
L 530.511984 675.978425 
L 530.097852 675.496213 
L 529.277479 675.0423 
L 528.695623 674.157234 
L 528.498845 673.936433 
L 528.175539 674.470922 
L 527.888546 675.292639 
L 527.281886 676.426803 
L 527.112964 676.489532 
L 526.801755 676.303183 
L 526.395491 675.784681 
L 525.790641 675.386123 
L 525.384988 674.793821 
L 524.945441 674.626537 
L 524.46228 674.587168 
L 523.780531 674.598859 
L 523.045513 674.75815 
L 522.81543 674.931589 
L 522.479416 675.534962 
L 522.300795 675.734241 
L 520.800482 676.323466 
L 520.405117 676.283499 
L 519.517523 676.127264 
L 518.612972 676.093453 
L 517.902757 675.394736 
L 517.28581 675.182548 
L 517.058146 674.998015 
L 516.693666 673.887831 
L 516.411534 673.548326 
L 516.283785 673.293071 
L 516.035545 672.795493 
L 515.936241 672.364961 
L 515.488804 671.088091 
L 514.90636 670.275607 
L 514.588503 670.087997 
L 514.227053 669.875189 
L 513.906755 669.501851 
L 513.396348 668.287111 
L 513.519258 667.817831 
L 512.852048 667.307941 
L 512.081915 666.928447 
L 512.066767 666.90077 
L 511.800981 666.408107 
L 511.331748 665.910529 
L 511.067161 665.312692 
L 510.494417 664.633039 
L 509.973722 664.57031 
L 509.304071 664.650265 
L 509.238682 664.658259 
L 508.572692 664.834178 
L 508.33777 664.486657 
L 508.260872 663.807026 
L 508.529099 663.279911 
L 507.314559 663.290982 
L 505.960152 663.265762 
L 505.308068 663.253473 
L 503.786569 662.6501 
L 503.95669 661.801303 
L 502.80087 661.653704 
L 501.163109 661.444571 
L 500.425671 661.511618 
L 499.857765 661.838214 
L 498.695886 661.84437 
L 498.376808 661.451347 
L 497.421405 660.273496 
L 497.804042 659.242669 
L 496.713022 659.006479 
L 495.496651 659.451159 
L 494.983825 659.536672 
L 494.633884 659.270347 
L 494.193116 658.935137 
L 493.415093 658.158324 
L 492.898649 657.373497 
L 492.376734 657.126855 
L 492.09944 656.995242 
L 491.484301 656.879616 
L 490.866133 656.537631 
L 490.398709 656.233177 
L 489.432408 656.29285 
L 488.7543 656.281779 
L 488.165187 656.615748 
L 487.672348 656.398025 
L 487.195246 656.521024 
L 486.650946 656.821781 
L 485.985545 656.393087 
L 485.707641 655.607041 
L 485.519952 654.727511 
L 485.475748 653.424203 
L 485.372216 652.794392 
L 485.519952 652.060624 
L 485.64709 651.948674 
L 486.391808 651.304094 
L 486.145988 650.626921 
L 486.199869 649.931282 
L 486.349436 649.142158 
L 486.099976 648.827253 
L 486.864071 648.115627 
L 486.574658 647.440292 
L 486.574658 646.293196 
L 486.908863 645.189167 
L 486.98757 645.023101 
L 485.842669 644.246909 
L 484.298742 643.363681 
L 484.31025 643.27695 
L 484.349615 642.96758 
L 484.612981 642.492764 
L 484.86364 641.829098 
L 484.975652 641.173448 
L 484.830945 640.376951 
L 484.589964 639.625358 
L 484.92297 639.155436 
L 485.062227 638.129524 
L 484.531244 637.577809 
L 484.596023 637.224774 
L 484.648705 636.663228 
L 484.749209 636.256056 
L 484.952024 635.96637 
L 485.10218 635.468172 
L 484.592383 634.918915 
L 484.476143 634.292159 
L 484.692908 633.200441 
L 484.154646 632.983316 
L 483.39722 632.948265 
L 483.147782 633.793363 
L 482.61377 633.868403 
L 482.337675 633.638966 
L 481.541495 633.540567 
L 481.092249 633.323441 
L 480.865196 632.778501 
L 479.99395 632.9046 
L 479.961865 632.586617 
L 479.93401 632.310438 
L 479.866201 631.599432 
L 479.369722 631.410006 
L 478.743685 631.435226 
L 478.261135 631.430908 
L 477.838524 631.210727 
L 477.596344 631.260547 
L 477.228834 631.137525 
L 476.369685 630.372404 
L 475.692187 630.508932 
L 475.341025 629.712435 
L 474.905707 629.262839 
L 474.81669 629.030945 
L 474.728306 628.798452 
L 474.2167 628.452171 
L 473.61124 628.515542 
L 473.85039 628.270739 
L 473.567036 628.249837 
L 472.807192 628.130513 
L 472.76179 627.581875 
L 472.422114 627.357376 
L 472.720616 626.680801 
L 472.56924 626.127867 
L 472.481466 625.805589 
L 472.749671 624.91067 
L 471.980737 624.516407 
L 471.592652 624.829475 
L 471.104652 624.756915 
L 470.116555 623.967791 
L 470.232185 623.546471 
L 469.624915 623.387778 
L 468.775465 623.019975 
L 467.206123 622.502093 
L 466.67089 621.763409 
L 466.019417 621.796002 
L 465.771788 621.657614 
L 465.097319 621.972542 
L 465.429715 622.249916 
L 464.916889 622.436286 
L 464.471283 622.224098 
L 464.348373 621.59059 
L 464.080756 621.606576 
L 464.264805 620.776866 
L 464.516685 620.562818 
L 464.761284 620.525907 
L 463.723535 619.90347 
L 463.109595 620.001892 
L 462.554397 619.839501 
L 462.158421 619.75401 
L 462.024635 620.116278 
L 461.660134 620.306346 
L 461.155786 620.127349 
L 461.540253 619.720177 
L 460.886361 619.846897 
L 460.16527 619.960065 
L 459.933988 619.718959 
L 459.439929 619.496918 
L 459.206838 619.391743 
L 458.655258 619.053455 
L 458.968886 618.953196 
L 458.862934 618.582935 
L 458.016514 618.680117 
L 457.762825 618.66413 
L 456.893388 618.780376 
L 456.289148 618.662292 
L 455.54262 618.327681 
L 454.99407 618.542969 
L 454.810021 618.352303 
L 454.441291 617.799967 
L 454.188213 617.541037 
L 454.191831 617.708941 
L 454.306262 618.359056 
L 453.153493 619.142024 
L 452.230764 618.700421 
L 451.759111 618.518966 
L 451.350428 618.060137 
L 450.491301 617.143696 
L 449.610355 616.443141 
L 449.481386 616.340424 
L 448.865637 616.109792 
L 448.412773 615.680478 
L 447.564522 616.03659 
L 446.773791 615.323746 
L 446.046031 614.879663 
L 445.468426 614.230788 
L 445.004053 613.663086 
L 444.445825 612.797085 
L 444.174568 611.873868 
L 443.185251 611.523912 
L 442.34064 611.352908 
L 442.143862 611.878186 
L 441.700065 611.918773 
L 440.765849 611.445175 
L 440.326302 610.161551 
L 440.338399 609.745766 
L 439.898831 608.837938 
L 439.326675 608.535322 
L 438.45423 608.107868 
L 438.519009 607.809569 
L 438.495403 607.20066 
L 438.420925 607.036432 
L 438.041297 606.200566 
L 437.816074 605.856743 
L 438.072792 605.171577 
L 437.901451 604.669061 
L 437.655631 604.39906 
L 437.142805 603.864571 
L 437.48187 602.919235 
L 437.331714 602.40319 
L 437.123428 601.928972 
L 436.494972 601.216748 
L 436.824948 601.197684 
L 436.805571 601.17738 
L 436.173474 600.516813 
L 436.117153 599.60345 
L 436.642708 598.884429 
L 436.938158 598.128519 
L 436.942408 597.827142 
L 437.343811 597.37201 
L 437.102242 596.969134 
L 437.272363 596.788322 
L 438.581368 593.995955 
L 439.165033 593.261567 
L 439.868577 591.983478 
L 441.373119 590.77857 
L 442.286149 586.149026 
L 443.304521 584.094723 
L 443.998388 582.413139 
L 445.02343 579.438099 
L 446.003658 576.905903 
L 448.246858 572.976294 
L 448.47875 572.642922 
L 449.613995 571.129264 
L 451.639841 568.32153 
L 452.86711 566.208174 
L 457.79552 563.294646 
L 460.510983 561.535586 
L 462.65187 559.328126 
L 464.467643 558.278212 
L 464.812135 558.080793 
L 466.254949 557.231399 
L 469.217453 555.895475 
L 472.985203 555.179554 
L 473.968461 554.806835 
L 474.345648 554.562032 
L 474.854246 554.2053 
L 474.896008 554.176382 
L 476.561014 551.769665 
L 479.100907 549.5942 
L 482.022847 548.734355 
L 485.443664 547.952605 
L 487.772241 546.688045 
L 490.693571 546.058832 
L 500.265838 543.067186 
L 500.760486 543.056115 
L 505.7319 541.733123 
L 507.584595 541.619954 
" clip-path="url(#p42bc4f51b0)" style="fill: #b3e2cd; fill-opacity: 0.65"/>
   </g>
   <g id="PatchCollection_2">
    <path d="M 133.157662 395.253184 
L 118.256289 369.288838 
L 132.063593 351.603749 
L 155.1658 332.665943 
L 185.276322 317.178585 
L 204.906845 300.61225 
L 209.354724 277.154769 
L 225.412538 251.252704 
L 246.172643 231.163264 
L 265.840642 219.279416 
L 286.898021 233.141951 
L 311.486628 251.655351 
L 336.076402 270.167523 
L 347.779756 278.257663 
L 352.264564 259.483621 
L 369.678016 255.813367 
L 385.854694 243.958197 
L 392.622318 220.480195 
L 407.645466 209.80614 
L 432.013241 203.729798 
L 433.165552 202.548461 
L 492.251621 133.92 
L 523.539278 140.011216 
L 536.751533 152.860309 
L 520.673618 165.422396 
L 508.086703 179.679213 
L 510.77318 193.998877 
L 506.073884 210.003789 
L 586.962846 207.52565 
L 561.034677 299.912047 
L 570.257757 310.506744 
L 580.569693 345.430871 
L 596.880961 367.764768 
L 595.830352 373.472674 
L 601.146545 375.949685 
L 605.405079 375.081503 
L 605.437983 380.624743 
L 608.915912 384.30193 
L 614.280511 385.055147 
L 619.743711 386.84582 
L 614.082573 397.931859 
L 613.842721 407.072109 
L 605.891037 420.275268 
L 601.433795 426.679686 
L 603.034483 440.273726 
L 604.812906 451.178296 
L 601.664097 465.102835 
L 596.918238 475.756814 
L 599.14206 485.932247 
L 557.170414 504.031181 
L 514.906168 523.168379 
L 482.339321 540.305997 
L 469.766522 569.743364 
L 458.633137 565.697386 
L 447.908956 560.88229 
L 435.486217 522.009403 
L 426.962488 536.479072 
L 415.104441 551.268893 
L 406.194744 565.463855 
L 390.979383 556.775083 
L 386.147958 568.944614 
L 371.321135 565.572429 
L 359.813477 561.107446 
L 356.290479 556.216979 
L 347.997465 559.187856 
L 342.373968 559.923019 
L 340.974093 547.197956 
L 342.999852 540.646896 
L 341.690912 536.338258 
L 340.318806 533.545803 
L 337.974514 531.209675 
L 329.825226 534.07128 
L 327.663501 510.287262 
L 324.671354 489.563376 
L 295.214609 477.55749 
L 286.04891 487.332866 
L 286.795852 497.404083 
L 278.911129 506.463338 
L 269.12857 475.459966 
L 265.499532 463.971719 
L 250.450971 452.568807 
L 240.006607 455.589699 
L 200.309559 465.897225 
L 175.781899 465.993092 
L 166.897796 459.712015 
L 158.324742 449.578357 
L 157.732817 440.591108 
L 145.916827 422.175473 
L 150.495643 401.014634 
L 133.157662 395.253184 
" clip-path="url(#p42bc4f51b0)" style="fill: none; stroke: #000000; stroke-width: 2"/>
   </g>
   <g id="matplotlib.axis_1">
    <g id="xtick_1">
     <g id="line2d_1">
      <path d="M 167.608315 768.96 
L 167.608315 103.68 
" clip-path="url(#p42bc4f51b0)" style="fill: none; stroke: #b0b0b0; stroke-width: 0.8; stroke-linecap: square"/>
     </g>
     <g id="line2d_2">
      <defs>
       <path id="m6116944893" d="M 0 0 
L 0 3.5 
" style="stroke: #000000; stroke-width: 0.8"/>
      </defs>
      <g>
       <use xlink:href="#m6116944893" x="167.608315" y="768.96" style="stroke: #000000; stroke-width: 0.8"/>
      </g>
     </g>
     <g id="text_1">
      <!-- −48.15 -->
      <g transform="translate(156.475251 807.501382) rotate(-45) scale(0.1 -0.1)">
       <defs>
        <path id="DejaVuSans-2212" d="M 678 2272 
L 4684 2272 
L 4684 1741 
L 678 1741 
L 678 2272 
z
" transform="scale(0.015625)"/>
        <path id="DejaVuSans-34" d="M 2419 4116 
L 825 1625 
L 2419 1625 
L 2419 4116 
z
M 2253 4666 
L 3047 4666 
L 3047 1625 
L 3713 1625 
L 3713 1100 
L 3047 1100 
L 3047 0 
L 2419 0 
L 2419 1100 
L 313 1100 
L 313 1709 
L 2253 4666 
z
" transform="scale(0.015625)"/>
        <path id="DejaVuSans-38" d="M 2034 2216 
Q 1584 2216 1326 1975 
Q 1069 1734 1069 1313 
Q 1069 891 1326 650 
Q 1584 409 2034 409 
Q 2484 409 2743 651 
Q 3003 894 3003 1313 
Q 3003 1734 2745 1975 
Q 2488 2216 2034 2216 
z
M 1403 2484 
Q 997 2584 770 2862 
Q 544 3141 544 3541 
Q 544 4100 942 4425 
Q 1341 4750 2034 4750 
Q 2731 4750 3128 4425 
Q 3525 4100 3525 3541 
Q 3525 3141 3298 2862 
Q 3072 2584 2669 2484 
Q 3125 2378 3379 2068 
Q 3634 1759 3634 1313 
Q 3634 634 3220 271 
Q 2806 -91 2034 -91 
Q 1263 -91 848 271 
Q 434 634 434 1313 
Q 434 1759 690 2068 
Q 947 2378 1403 2484 
z
M 1172 3481 
Q 1172 3119 1398 2916 
Q 1625 2713 2034 2713 
Q 2441 2713 2670 2916 
Q 2900 3119 2900 3481 
Q 2900 3844 2670 4047 
Q 2441 4250 2034 4250 
Q 1625 4250 1398 4047 
Q 1172 3844 1172 3481 
z
" transform="scale(0.015625)"/>
        <path id="DejaVuSans-2e" d="M 684 794 
L 1344 794 
L 1344 0 
L 684 0 
L 684 794 
z
" transform="scale(0.015625)"/>
        <path id="DejaVuSans-31" d="M 794 531 
L 1825 531 
L 1825 4091 
L 703 3866 
L 703 4441 
L 1819 4666 
L 2450 4666 
L 2450 531 
L 3481 531 
L 3481 0 
L 794 0 
L 794 531 
z
" transform="scale(0.015625)"/>
        <path id="DejaVuSans-35" d="M 691 4666 
L 3169 4666 
L 3169 4134 
L 1269 4134 
L 1269 2991 
Q 1406 3038 1543 3061 
Q 1681 3084 1819 3084 
Q 2600 3084 3056 2656 
Q 3513 2228 3513 1497 
Q 3513 744 3044 326 
Q 2575 -91 1722 -91 
Q 1428 -91 1123 -41 
Q 819 9 494 109 
L 494 744 
Q 775 591 1075 516 
Q 1375 441 1709 441 
Q 2250 441 2565 725 
Q 2881 1009 2881 1497 
Q 2881 1984 2565 2268 
Q 2250 2553 1709 2553 
Q 1456 2553 1204 2497 
Q 953 2441 691 2322 
L 691 4666 
z
" transform="scale(0.015625)"/>
       </defs>
       <use xlink:href="#DejaVuSans-2212"/>
       <use xlink:href="#DejaVuSans-34" transform="translate(83.789062 0)"/>
       <use xlink:href="#DejaVuSans-38" transform="translate(147.412109 0)"/>
       <use xlink:href="#DejaVuSans-2e" transform="translate(211.035156 0)"/>
       <use xlink:href="#DejaVuSans-31" transform="translate(242.822266 0)"/>
       <use xlink:href="#DejaVuSans-35" transform="translate(306.445312 0)"/>
      </g>
     </g>
    </g>
    <g id="xtick_2">
     <g id="line2d_3">
      <path d="M 276.590399 768.96 
L 276.590399 103.68 
" clip-path="url(#p42bc4f51b0)" style="fill: none; stroke: #b0b0b0; stroke-width: 0.8; stroke-linecap: square"/>
     </g>
     <g id="line2d_4">
      <g>
       <use xlink:href="#m6116944893" x="276.590399" y="768.96" style="stroke: #000000; stroke-width: 0.8"/>
      </g>
     </g>
     <g id="text_2">
      <!-- −48.10 -->
      <g transform="translate(265.457334 807.501382) rotate(-45) scale(0.1 -0.1)">
       <defs>
        <path id="DejaVuSans-30" d="M 2034 4250 
Q 1547 4250 1301 3770 
Q 1056 3291 1056 2328 
Q 1056 1369 1301 889 
Q 1547 409 2034 409 
Q 2525 409 2770 889 
Q 3016 1369 3016 2328 
Q 3016 3291 2770 3770 
Q 2525 4250 2034 4250 
z
M 2034 4750 
Q 2819 4750 3233 4129 
Q 3647 3509 3647 2328 
Q 3647 1150 3233 529 
Q 2819 -91 2034 -91 
Q 1250 -91 836 529 
Q 422 1150 422 2328 
Q 422 3509 836 4129 
Q 1250 4750 2034 4750 
z
" transform="scale(0.015625)"/>
       </defs>
       <use xlink:href="#DejaVuSans-2212"/>
       <use xlink:href="#DejaVuSans-34" transform="translate(83.789062 0)"/>
       <use xlink:href="#DejaVuSans-38" transform="translate(147.412109 0)"/>
       <use xlink:href="#DejaVuSans-2e" transform="translate(211.035156 0)"/>
       <use xlink:href="#DejaVuSans-31" transform="translate(242.822266 0)"/>
       <use xlink:href="#DejaVuSans-30" transform="translate(306.445312 0)"/>
      </g>
     </g>
    </g>
    <g id="xtick_3">
     <g id="line2d_5">
      <path d="M 385.572483 768.96 
L 385.572483 103.68 
" clip-path="url(#p42bc4f51b0)" style="fill: none; stroke: #b0b0b0; stroke-width: 0.8; stroke-linecap: square"/>
     </g>
     <g id="line2d_6">
      <g>
       <use xlink:href="#m6116944893" x="385.572483" y="768.96" style="stroke: #000000; stroke-width: 0.8"/>
      </g>
     </g>
     <g id="text_3">
      <!-- −48.05 -->
      <g transform="translate(374.439418 807.501382) rotate(-45) scale(0.1 -0.1)">
       <use xlink:href="#DejaVuSans-2212"/>
       <use xlink:href="#DejaVuSans-34" transform="translate(83.789062 0)"/>
       <use xlink:href="#DejaVuSans-38" transform="translate(147.412109 0)"/>
       <use xlink:href="#DejaVuSans-2e" transform="translate(211.035156 0)"/>
       <use xlink:href="#DejaVuSans-30" transform="translate(242.822266 0)"/>
       <use xlink:href="#DejaVuSans-35" transform="translate(306.445312 0)"/>
      </g>
     </g>
    </g>
    <g id="xtick_4">
     <g id="line2d_7">
      <path d="M 494.554566 768.96 
L 494.554566 103.68 
" clip-path="url(#p42bc4f51b0)" style="fill: none; stroke: #b0b0b0; stroke-width: 0.8; stroke-linecap: square"/>
     </g>
     <g id="line2d_8">
      <g>
       <use xlink:href="#m6116944893" x="494.554566" y="768.96" style="stroke: #000000; stroke-width: 0.8"/>
      </g>
     </g>
     <g id="text_4">
      <!-- −48.00 -->
      <g transform="translate(483.421502 807.501382) rotate(-45) scale(0.1 -0.1)">
       <use xlink:href="#DejaVuSans-2212"/>
       <use xlink:href="#DejaVuSans-34" transform="translate(83.789062 0)"/>
       <use xlink:href="#DejaVuSans-38" transform="translate(147.412109 0)"/>
       <use xlink:href="#DejaVuSans-2e" transform="translate(211.035156 0)"/>
       <use xlink:href="#DejaVuSans-30" transform="translate(242.822266 0)"/>
       <use xlink:href="#DejaVuSans-30" transform="translate(306.445312 0)"/>
      </g>
     </g>
    </g>
    <g id="xtick_5">
     <g id="line2d_9">
      <path d="M 603.53665 768.96 
L 603.53665 103.68 
" clip-path="url(#p42bc4f51b0)" style="fill: none; stroke: #b0b0b0; stroke-width: 0.8; stroke-linecap: square"/>
     </g>
     <g id="line2d_10">
      <g>
       <use xlink:href="#m6116944893" x="603.53665" y="768.96" style="stroke: #000000; stroke-width: 0.8"/>
      </g>
     </g>
     <g id="text_5">
      <!-- −47.95 -->
      <g transform="translate(592.403585 807.501382) rotate(-45) scale(0.1 -0.1)">
       <defs>
        <path id="DejaVuSans-37" d="M 525 4666 
L 3525 4666 
L 3525 4397 
L 1831 0 
L 1172 0 
L 2766 4134 
L 525 4134 
L 525 4666 
z
" transform="scale(0.015625)"/>
        <path id="DejaVuSans-39" d="M 703 97 
L 703 672 
Q 941 559 1184 500 
Q 1428 441 1663 441 
Q 2288 441 2617 861 
Q 2947 1281 2994 2138 
Q 2813 1869 2534 1725 
Q 2256 1581 1919 1581 
Q 1219 1581 811 2004 
Q 403 2428 403 3163 
Q 403 3881 828 4315 
Q 1253 4750 1959 4750 
Q 2769 4750 3195 4129 
Q 3622 3509 3622 2328 
Q 3622 1225 3098 567 
Q 2575 -91 1691 -91 
Q 1453 -91 1209 -44 
Q 966 3 703 97 
z
M 1959 2075 
Q 2384 2075 2632 2365 
Q 2881 2656 2881 3163 
Q 2881 3666 2632 3958 
Q 2384 4250 1959 4250 
Q 1534 4250 1286 3958 
Q 1038 3666 1038 3163 
Q 1038 2656 1286 2365 
Q 1534 2075 1959 2075 
z
" transform="scale(0.015625)"/>
       </defs>
       <use xlink:href="#DejaVuSans-2212"/>
       <use xlink:href="#DejaVuSans-34" transform="translate(83.789062 0)"/>
       <use xlink:href="#DejaVuSans-37" transform="translate(147.412109 0)"/>
       <use xlink:href="#DejaVuSans-2e" transform="translate(211.035156 0)"/>
       <use xlink:href="#DejaVuSans-39" transform="translate(242.822266 0)"/>
       <use xlink:href="#DejaVuSans-35" transform="translate(306.445312 0)"/>
      </g>
     </g>
    </g>
    <g id="text_6">
     <!-- Longitude (°) -->
     <g transform="translate(336.139844 820.57038) scale(0.1 -0.1)">
      <defs>
       <path id="DejaVuSans-4c" d="M 628 4666 
L 1259 4666 
L 1259 531 
L 3531 531 
L 3531 0 
L 628 0 
L 628 4666 
z
" transform="scale(0.015625)"/>
       <path id="DejaVuSans-6f" d="M 1959 3097 
Q 1497 3097 1228 2736 
Q 959 2375 959 1747 
Q 959 1119 1226 758 
Q 1494 397 1959 397 
Q 2419 397 2687 759 
Q 2956 1122 2956 1747 
Q 2956 2369 2687 2733 
Q 2419 3097 1959 3097 
z
M 1959 3584 
Q 2709 3584 3137 3096 
Q 3566 2609 3566 1747 
Q 3566 888 3137 398 
Q 2709 -91 1959 -91 
Q 1206 -91 779 398 
Q 353 888 353 1747 
Q 353 2609 779 3096 
Q 1206 3584 1959 3584 
z
" transform="scale(0.015625)"/>
       <path id="DejaVuSans-6e" d="M 3513 2113 
L 3513 0 
L 2938 0 
L 2938 2094 
Q 2938 2591 2744 2837 
Q 2550 3084 2163 3084 
Q 1697 3084 1428 2787 
Q 1159 2491 1159 1978 
L 1159 0 
L 581 0 
L 581 3500 
L 1159 3500 
L 1159 2956 
Q 1366 3272 1645 3428 
Q 1925 3584 2291 3584 
Q 2894 3584 3203 3211 
Q 3513 2838 3513 2113 
z
" transform="scale(0.015625)"/>
       <path id="DejaVuSans-67" d="M 2906 1791 
Q 2906 2416 2648 2759 
Q 2391 3103 1925 3103 
Q 1463 3103 1205 2759 
Q 947 2416 947 1791 
Q 947 1169 1205 825 
Q 1463 481 1925 481 
Q 2391 481 2648 825 
Q 2906 1169 2906 1791 
z
M 3481 434 
Q 3481 -459 3084 -895 
Q 2688 -1331 1869 -1331 
Q 1566 -1331 1297 -1286 
Q 1028 -1241 775 -1147 
L 775 -588 
Q 1028 -725 1275 -790 
Q 1522 -856 1778 -856 
Q 2344 -856 2625 -561 
Q 2906 -266 2906 331 
L 2906 616 
Q 2728 306 2450 153 
Q 2172 0 1784 0 
Q 1141 0 747 490 
Q 353 981 353 1791 
Q 353 2603 747 3093 
Q 1141 3584 1784 3584 
Q 2172 3584 2450 3431 
Q 2728 3278 2906 2969 
L 2906 3500 
L 3481 3500 
L 3481 434 
z
" transform="scale(0.015625)"/>
       <path id="DejaVuSans-69" d="M 603 3500 
L 1178 3500 
L 1178 0 
L 603 0 
L 603 3500 
z
M 603 4863 
L 1178 4863 
L 1178 4134 
L 603 4134 
L 603 4863 
z
" transform="scale(0.015625)"/>
       <path id="DejaVuSans-74" d="M 1172 4494 
L 1172 3500 
L 2356 3500 
L 2356 3053 
L 1172 3053 
L 1172 1153 
Q 1172 725 1289 603 
Q 1406 481 1766 481 
L 2356 481 
L 2356 0 
L 1766 0 
Q 1100 0 847 248 
Q 594 497 594 1153 
L 594 3053 
L 172 3053 
L 172 3500 
L 594 3500 
L 594 4494 
L 1172 4494 
z
" transform="scale(0.015625)"/>
       <path id="DejaVuSans-75" d="M 544 1381 
L 544 3500 
L 1119 3500 
L 1119 1403 
Q 1119 906 1312 657 
Q 1506 409 1894 409 
Q 2359 409 2629 706 
Q 2900 1003 2900 1516 
L 2900 3500 
L 3475 3500 
L 3475 0 
L 2900 0 
L 2900 538 
Q 2691 219 2414 64 
Q 2138 -91 1772 -91 
Q 1169 -91 856 284 
Q 544 659 544 1381 
z
M 1991 3584 
L 1991 3584 
z
" transform="scale(0.015625)"/>
       <path id="DejaVuSans-64" d="M 2906 2969 
L 2906 4863 
L 3481 4863 
L 3481 0 
L 2906 0 
L 2906 525 
Q 2725 213 2448 61 
Q 2172 -91 1784 -91 
Q 1150 -91 751 415 
Q 353 922 353 1747 
Q 353 2572 751 3078 
Q 1150 3584 1784 3584 
Q 2172 3584 2448 3432 
Q 2725 3281 2906 2969 
z
M 947 1747 
Q 947 1113 1208 752 
Q 1469 391 1925 391 
Q 2381 391 2643 752 
Q 2906 1113 2906 1747 
Q 2906 2381 2643 2742 
Q 2381 3103 1925 3103 
Q 1469 3103 1208 2742 
Q 947 2381 947 1747 
z
" transform="scale(0.015625)"/>
       <path id="DejaVuSans-65" d="M 3597 1894 
L 3597 1613 
L 953 1613 
Q 991 1019 1311 708 
Q 1631 397 2203 397 
Q 2534 397 2845 478 
Q 3156 559 3463 722 
L 3463 178 
Q 3153 47 2828 -22 
Q 2503 -91 2169 -91 
Q 1331 -91 842 396 
Q 353 884 353 1716 
Q 353 2575 817 3079 
Q 1281 3584 2069 3584 
Q 2775 3584 3186 3129 
Q 3597 2675 3597 1894 
z
M 3022 2063 
Q 3016 2534 2758 2815 
Q 2500 3097 2075 3097 
Q 1594 3097 1305 2825 
Q 1016 2553 972 2059 
L 3022 2063 
z
" transform="scale(0.015625)"/>
       <path id="DejaVuSans-20" transform="scale(0.015625)"/>
       <path id="DejaVuSans-28" d="M 1984 4856 
Q 1566 4138 1362 3434 
Q 1159 2731 1159 2009 
Q 1159 1288 1364 580 
Q 1569 -128 1984 -844 
L 1484 -844 
Q 1016 -109 783 600 
Q 550 1309 550 2009 
Q 550 2706 781 3412 
Q 1013 4119 1484 4856 
L 1984 4856 
z
" transform="scale(0.015625)"/>
       <path id="DejaVuSans-b0" d="M 1600 4347 
Q 1350 4347 1178 4173 
Q 1006 4000 1006 3750 
Q 1006 3503 1178 3333 
Q 1350 3163 1600 3163 
Q 1850 3163 2022 3333 
Q 2194 3503 2194 3750 
Q 2194 3997 2020 4172 
Q 1847 4347 1600 4347 
z
M 1600 4750 
Q 1800 4750 1984 4673 
Q 2169 4597 2303 4453 
Q 2447 4313 2519 4134 
Q 2591 3956 2591 3750 
Q 2591 3338 2302 3052 
Q 2013 2766 1594 2766 
Q 1172 2766 890 3047 
Q 609 3328 609 3750 
Q 609 4169 896 4459 
Q 1184 4750 1600 4750 
z
" transform="scale(0.015625)"/>
       <path id="DejaVuSans-29" d="M 513 4856 
L 1013 4856 
Q 1481 4119 1714 3412 
Q 1947 2706 1947 2009 
Q 1947 1309 1714 600 
Q 1481 -109 1013 -844 
L 513 -844 
Q 928 -128 1133 580 
Q 1338 1288 1338 2009 
Q 1338 2731 1133 3434 
Q 928 4138 513 4856 
z
" transform="scale(0.015625)"/>
      </defs>
      <use xlink:href="#DejaVuSans-4c"/>
      <use xlink:href="#DejaVuSans-6f" transform="translate(53.962891 0)"/>
      <use xlink:href="#DejaVuSans-6e" transform="translate(115.144531 0)"/>
      <use xlink:href="#DejaVuSans-67" transform="translate(178.523438 0)"/>
      <use xlink:href="#DejaVuSans-69" transform="translate(242 0)"/>
      <use xlink:href="#DejaVuSans-74" transform="translate(269.783203 0)"/>
      <use xlink:href="#DejaVuSans-75" transform="translate(308.992188 0)"/>
      <use xlink:href="#DejaVuSans-64" transform="translate(372.371094 0)"/>
      <use xlink:href="#DejaVuSans-65" transform="translate(435.847656 0)"/>
      <use xlink:href="#DejaVuSans-20" transform="translate(497.371094 0)"/>
      <use xlink:href="#DejaVuSans-28" transform="translate(529.158203 0)"/>
      <use xlink:href="#DejaVuSans-b0" transform="translate(568.171875 0)"/>
      <use xlink:href="#DejaVuSans-29" transform="translate(618.171875 0)"/>
     </g>
    </g>
   </g>
   <g id="matplotlib.axis_2">
    <g id="ytick_1">
     <g id="line2d_11">
      <path d="M 93.181918 710.379308 
L 644.818082 710.379308 
" clip-path="url(#p42bc4f51b0)" style="fill: none; stroke: #b0b0b0; stroke-width: 0.8; stroke-linecap: square"/>
     </g>
     <g id="line2d_12">
      <defs>
       <path id="m78478a3e9c" d="M 0 0 
L -3.5 0 
" style="stroke: #000000; stroke-width: 0.8"/>
      </defs>
      <g>
       <use xlink:href="#m78478a3e9c" x="93.181918" y="710.379308" style="stroke: #000000; stroke-width: 0.8"/>
      </g>
     </g>
     <g id="text_7">
      <!-- −10.30 -->
      <g transform="translate(49.174105 714.178527) scale(0.1 -0.1)">
       <defs>
        <path id="DejaVuSans-33" d="M 2597 2516 
Q 3050 2419 3304 2112 
Q 3559 1806 3559 1356 
Q 3559 666 3084 287 
Q 2609 -91 1734 -91 
Q 1441 -91 1130 -33 
Q 819 25 488 141 
L 488 750 
Q 750 597 1062 519 
Q 1375 441 1716 441 
Q 2309 441 2620 675 
Q 2931 909 2931 1356 
Q 2931 1769 2642 2001 
Q 2353 2234 1838 2234 
L 1294 2234 
L 1294 2753 
L 1863 2753 
Q 2328 2753 2575 2939 
Q 2822 3125 2822 3475 
Q 2822 3834 2567 4026 
Q 2313 4219 1838 4219 
Q 1578 4219 1281 4162 
Q 984 4106 628 3988 
L 628 4550 
Q 988 4650 1302 4700 
Q 1616 4750 1894 4750 
Q 2613 4750 3031 4423 
Q 3450 4097 3450 3541 
Q 3450 3153 3228 2886 
Q 3006 2619 2597 2516 
z
" transform="scale(0.015625)"/>
       </defs>
       <use xlink:href="#DejaVuSans-2212"/>
       <use xlink:href="#DejaVuSans-31" transform="translate(83.789062 0)"/>
       <use xlink:href="#DejaVuSans-30" transform="translate(147.412109 0)"/>
       <use xlink:href="#DejaVuSans-2e" transform="translate(211.035156 0)"/>
       <use xlink:href="#DejaVuSans-33" transform="translate(242.822266 0)"/>
       <use xlink:href="#DejaVuSans-30" transform="translate(306.445312 0)"/>
      </g>
     </g>
    </g>
    <g id="ytick_2">
     <g id="line2d_13">
      <path d="M 93.181918 599.668637 
L 644.818082 599.668637 
" clip-path="url(#p42bc4f51b0)" style="fill: none; stroke: #b0b0b0; stroke-width: 0.8; stroke-linecap: square"/>
     </g>
     <g id="line2d_14">
      <g>
       <use xlink:href="#m78478a3e9c" x="93.181918" y="599.668637" style="stroke: #000000; stroke-width: 0.8"/>
      </g>
     </g>
     <g id="text_8">
      <!-- −10.25 -->
      <g transform="translate(49.174105 603.467856) scale(0.1 -0.1)">
       <defs>
        <path id="DejaVuSans-32" d="M 1228 531 
L 3431 531 
L 3431 0 
L 469 0 
L 469 531 
Q 828 903 1448 1529 
Q 2069 2156 2228 2338 
Q 2531 2678 2651 2914 
Q 2772 3150 2772 3378 
Q 2772 3750 2511 3984 
Q 2250 4219 1831 4219 
Q 1534 4219 1204 4116 
Q 875 4013 500 3803 
L 500 4441 
Q 881 4594 1212 4672 
Q 1544 4750 1819 4750 
Q 2544 4750 2975 4387 
Q 3406 4025 3406 3419 
Q 3406 3131 3298 2873 
Q 3191 2616 2906 2266 
Q 2828 2175 2409 1742 
Q 1991 1309 1228 531 
z
" transform="scale(0.015625)"/>
       </defs>
       <use xlink:href="#DejaVuSans-2212"/>
       <use xlink:href="#DejaVuSans-31" transform="translate(83.789062 0)"/>
       <use xlink:href="#DejaVuSans-30" transform="translate(147.412109 0)"/>
       <use xlink:href="#DejaVuSans-2e" transform="translate(211.035156 0)"/>
       <use xlink:href="#DejaVuSans-32" transform="translate(242.822266 0)"/>
       <use xlink:href="#DejaVuSans-35" transform="translate(306.445312 0)"/>
      </g>
     </g>
    </g>
    <g id="ytick_3">
     <g id="line2d_15">
      <path d="M 93.181918 488.957966 
L 644.818082 488.957966 
" clip-path="url(#p42bc4f51b0)" style="fill: none; stroke: #b0b0b0; stroke-width: 0.8; stroke-linecap: square"/>
     </g>
     <g id="line2d_16">
      <g>
       <use xlink:href="#m78478a3e9c" x="93.181918" y="488.957966" style="stroke: #000000; stroke-width: 0.8"/>
      </g>
     </g>
     <g id="text_9">
      <!-- −10.20 -->
      <g transform="translate(49.174105 492.757184) scale(0.1 -0.1)">
       <use xlink:href="#DejaVuSans-2212"/>
       <use xlink:href="#DejaVuSans-31" transform="translate(83.789062 0)"/>
       <use xlink:href="#DejaVuSans-30" transform="translate(147.412109 0)"/>
       <use xlink:href="#DejaVuSans-2e" transform="translate(211.035156 0)"/>
       <use xlink:href="#DejaVuSans-32" transform="translate(242.822266 0)"/>
       <use xlink:href="#DejaVuSans-30" transform="translate(306.445312 0)"/>
      </g>
     </g>
    </g>
    <g id="ytick_4">
     <g id="line2d_17">
      <path d="M 93.181918 378.247294 
L 644.818082 378.247294 
" clip-path="url(#p42bc4f51b0)" style="fill: none; stroke: #b0b0b0; stroke-width: 0.8; stroke-linecap: square"/>
     </g>
     <g id="line2d_18">
      <g>
       <use xlink:href="#m78478a3e9c" x="93.181918" y="378.247294" style="stroke: #000000; stroke-width: 0.8"/>
      </g>
     </g>
     <g id="text_10">
      <!-- −10.15 -->
      <g transform="translate(49.174105 382.046513) scale(0.1 -0.1)">
       <use xlink:href="#DejaVuSans-2212"/>
       <use xlink:href="#DejaVuSans-31" transform="translate(83.789062 0)"/>
       <use xlink:href="#DejaVuSans-30" transform="translate(147.412109 0)"/>
       <use xlink:href="#DejaVuSans-2e" transform="translate(211.035156 0)"/>
       <use xlink:href="#DejaVuSans-31" transform="translate(242.822266 0)"/>
       <use xlink:href="#DejaVuSans-35" transform="translate(306.445312 0)"/>
      </g>
     </g>
    </g>
    <g id="ytick_5">
     <g id="line2d_19">
      <path d="M 93.181918 267.536623 
L 644.818082 267.536623 
" clip-path="url(#p42bc4f51b0)" style="fill: none; stroke: #b0b0b0; stroke-width: 0.8; stroke-linecap: square"/>
     </g>
     <g id="line2d_20">
      <g>
       <use xlink:href="#m78478a3e9c" x="93.181918" y="267.536623" style="stroke: #000000; stroke-width: 0.8"/>
      </g>
     </g>
     <g id="text_11">
      <!-- −10.10 -->
      <g transform="translate(49.174105 271.335842) scale(0.1 -0.1)">
       <use xlink:href="#DejaVuSans-2212"/>
       <use xlink:href="#DejaVuSans-31" transform="translate(83.789062 0)"/>
       <use xlink:href="#DejaVuSans-30" transform="translate(147.412109 0)"/>
       <use xlink:href="#DejaVuSans-2e" transform="translate(211.035156 0)"/>
       <use xlink:href="#DejaVuSans-31" transform="translate(242.822266 0)"/>
       <use xlink:href="#DejaVuSans-30" transform="translate(306.445312 0)"/>
      </g>
     </g>
    </g>
    <g id="ytick_6">
     <g id="line2d_21">
      <path d="M 93.181918 156.825952 
L 644.818082 156.825952 
" clip-path="url(#p42bc4f51b0)" style="fill: none; stroke: #b0b0b0; stroke-width: 0.8; stroke-linecap: square"/>
     </g>
     <g id="line2d_22">
      <g>
       <use xlink:href="#m78478a3e9c" x="93.181918" y="156.825952" style="stroke: #000000; stroke-width: 0.8"/>
      </g>
     </g>
     <g id="text_12">
      <!-- −10.05 -->
      <g transform="translate(49.174105 160.625171) scale(0.1 -0.1)">
       <use xlink:href="#DejaVuSans-2212"/>
       <use xlink:href="#DejaVuSans-31" transform="translate(83.789062 0)"/>
       <use xlink:href="#DejaVuSans-30" transform="translate(147.412109 0)"/>
       <use xlink:href="#DejaVuSans-2e" transform="translate(211.035156 0)"/>
       <use xlink:href="#DejaVuSans-30" transform="translate(242.822266 0)"/>
       <use xlink:href="#DejaVuSans-35" transform="translate(306.445312 0)"/>
      </g>
     </g>
    </g>
    <g id="text_13">
     <!-- Latitude (°) -->
     <g transform="translate(43.094418 464.889531) rotate(-90) scale(0.1 -0.1)">
      <defs>
       <path id="DejaVuSans-61" d="M 2194 1759 
Q 1497 1759 1228 1600 
Q 959 1441 959 1056 
Q 959 750 1161 570 
Q 1363 391 1709 391 
Q 2188 391 2477 730 
Q 2766 1069 2766 1631 
L 2766 1759 
L 2194 1759 
z
M 3341 1997 
L 3341 0 
L 2766 0 
L 2766 531 
Q 2569 213 2275 61 
Q 1981 -91 1556 -91 
Q 1019 -91 701 211 
Q 384 513 384 1019 
Q 384 1609 779 1909 
Q 1175 2209 1959 2209 
L 2766 2209 
L 2766 2266 
Q 2766 2663 2505 2880 
Q 2244 3097 1772 3097 
Q 1472 3097 1187 3025 
Q 903 2953 641 2809 
L 641 3341 
Q 956 3463 1253 3523 
Q 1550 3584 1831 3584 
Q 2591 3584 2966 3190 
Q 3341 2797 3341 1997 
z
" transform="scale(0.015625)"/>
      </defs>
      <use xlink:href="#DejaVuSans-4c"/>
      <use xlink:href="#DejaVuSans-61" transform="translate(55.712891 0)"/>
      <use xlink:href="#DejaVuSans-74" transform="translate(116.992188 0)"/>
      <use xlink:href="#DejaVuSans-69" transform="translate(156.201172 0)"/>
      <use xlink:href="#DejaVuSans-74" transform="translate(183.984375 0)"/>
      <use xlink:href="#DejaVuSans-75" transform="translate(223.193359 0)"/>
      <use xlink:href="#DejaVuSans-64" transform="translate(286.572266 0)"/>
      <use xlink:href="#DejaVuSans-65" transform="translate(350.048828 0)"/>
      <use xlink:href="#DejaVuSans-20" transform="translate(411.572266 0)"/>
      <use xlink:href="#DejaVuSans-28" transform="translate(443.359375 0)"/>
      <use xlink:href="#DejaVuSans-b0" transform="translate(482.373047 0)"/>
      <use xlink:href="#DejaVuSans-29" transform="translate(532.373047 0)"/>
     </g>
    </g>
   </g>
   <g id="patch_3">
    <path d="M 93.181918 768.96 
L 93.181918 103.68 
" style="fill: none; stroke: #000000; stroke-width: 0.8; stroke-linejoin: miter; stroke-linecap: square"/>
   </g>
   <g id="patch_4">
    <path d="M 644.818082 768.96 
L 644.818082 103.68 
" style="fill: none; stroke: #000000; stroke-width: 0.8; stroke-linejoin: miter; stroke-linecap: square"/>
   </g>
   <g id="patch_5">
    <path d="M 93.181918 768.96 
L 644.818082 768.96 
" style="fill: none; stroke: #000000; stroke-width: 0.8; stroke-linejoin: miter; stroke-linecap: square"/>
   </g>
   <g id="patch_6">
    <path d="M 93.181918 103.68 
L 644.818082 103.68 
" style="fill: none; stroke: #000000; stroke-width: 0.8; stroke-linejoin: miter; stroke-linecap: square"/>
   </g>
   <g id="legend_1">
    <g id="patch_7">
     <path d="M 315.058594 924.694125 
L 422.941406 924.694125 
Q 424.941406 924.694125 424.941406 922.694125 
L 424.941406 909.016 
Q 424.941406 907.016 422.941406 907.016 
L 315.058594 907.016 
Q 313.058594 907.016 313.058594 909.016 
L 313.058594 922.694125 
Q 313.058594 924.694125 315.058594 924.694125 
z
" style="fill: #ffffff; opacity: 0.8; stroke: #cccccc; stroke-linejoin: miter"/>
    </g>
    <g id="line2d_23">
     <defs>
      <path id="m7326cfc664" d="M 0 5 
C 1.326016 5 2.597899 4.473168 3.535534 3.535534 
C 4.473168 2.597899 5 1.326016 5 0 
C 5 -1.326016 4.473168 -2.597899 3.535534 -3.535534 
C 2.597899 -4.473168 1.326016 -5 0 -5 
C -1.326016 -5 -2.597899 -4.473168 -3.535534 -3.535534 
C -4.473168 -2.597899 -5 -1.326016 -5 0 
C -5 1.326016 -4.473168 2.597899 -3.535534 3.535534 
C -2.597899 4.473168 -1.326016 5 0 5 
z
"/>
     </defs>
     <g>
      <use xlink:href="#m7326cfc664" x="327.058594" y="915.114438" style="fill: #b3e2cd; fill-opacity: 0.65"/>
     </g>
    </g>
    <g id="text_14">
     <!-- PA ENTRE RIOS -->
     <g transform="translate(345.058594 918.614438) scale(0.1 -0.1)">
      <defs>
       <path id="DejaVuSans-50" d="M 1259 4147 
L 1259 2394 
L 2053 2394 
Q 2494 2394 2734 2622 
Q 2975 2850 2975 3272 
Q 2975 3691 2734 3919 
Q 2494 4147 2053 4147 
L 1259 4147 
z
M 628 4666 
L 2053 4666 
Q 2838 4666 3239 4311 
Q 3641 3956 3641 3272 
Q 3641 2581 3239 2228 
Q 2838 1875 2053 1875 
L 1259 1875 
L 1259 0 
L 628 0 
L 628 4666 
z
" transform="scale(0.015625)"/>
       <path id="DejaVuSans-41" d="M 2188 4044 
L 1331 1722 
L 3047 1722 
L 2188 4044 
z
M 1831 4666 
L 2547 4666 
L 4325 0 
L 3669 0 
L 3244 1197 
L 1141 1197 
L 716 0 
L 50 0 
L 1831 4666 
z
" transform="scale(0.015625)"/>
       <path id="DejaVuSans-45" d="M 628 4666 
L 3578 4666 
L 3578 4134 
L 1259 4134 
L 1259 2753 
L 3481 2753 
L 3481 2222 
L 1259 2222 
L 1259 531 
L 3634 531 
L 3634 0 
L 628 0 
L 628 4666 
z
" transform="scale(0.015625)"/>
       <path id="DejaVuSans-4e" d="M 628 4666 
L 1478 4666 
L 3547 763 
L 3547 4666 
L 4159 4666 
L 4159 0 
L 3309 0 
L 1241 3903 
L 1241 0 
L 628 0 
L 628 4666 
z
" transform="scale(0.015625)"/>
       <path id="DejaVuSans-54" d="M -19 4666 
L 3928 4666 
L 3928 4134 
L 2272 4134 
L 2272 0 
L 1638 0 
L 1638 4134 
L -19 4134 
L -19 4666 
z
" transform="scale(0.015625)"/>
       <path id="DejaVuSans-52" d="M 2841 2188 
Q 3044 2119 3236 1894 
Q 3428 1669 3622 1275 
L 4263 0 
L 3584 0 
L 2988 1197 
Q 2756 1666 2539 1819 
Q 2322 1972 1947 1972 
L 1259 1972 
L 1259 0 
L 628 0 
L 628 4666 
L 2053 4666 
Q 2853 4666 3247 4331 
Q 3641 3997 3641 3322 
Q 3641 2881 3436 2590 
Q 3231 2300 2841 2188 
z
M 1259 4147 
L 1259 2491 
L 2053 2491 
Q 2509 2491 2742 2702 
Q 2975 2913 2975 3322 
Q 2975 3731 2742 3939 
Q 2509 4147 2053 4147 
L 1259 4147 
z
" transform="scale(0.015625)"/>
       <path id="DejaVuSans-49" d="M 628 4666 
L 1259 4666 
L 1259 0 
L 628 0 
L 628 4666 
z
" transform="scale(0.015625)"/>
       <path id="DejaVuSans-4f" d="M 2522 4238 
Q 1834 4238 1429 3725 
Q 1025 3213 1025 2328 
Q 1025 1447 1429 934 
Q 1834 422 2522 422 
Q 3209 422 3611 934 
Q 4013 1447 4013 2328 
Q 4013 3213 3611 3725 
Q 3209 4238 2522 4238 
z
M 2522 4750 
Q 3503 4750 4090 4092 
Q 4678 3434 4678 2328 
Q 4678 1225 4090 567 
Q 3503 -91 2522 -91 
Q 1538 -91 948 565 
Q 359 1222 359 2328 
Q 359 3434 948 4092 
Q 1538 4750 2522 4750 
z
" transform="scale(0.015625)"/>
       <path id="DejaVuSans-53" d="M 3425 4513 
L 3425 3897 
Q 3066 4069 2747 4153 
Q 2428 4238 2131 4238 
Q 1616 4238 1336 4038 
Q 1056 3838 1056 3469 
Q 1056 3159 1242 3001 
Q 1428 2844 1947 2747 
L 2328 2669 
Q 3034 2534 3370 2195 
Q 3706 1856 3706 1288 
Q 3706 609 3251 259 
Q 2797 -91 1919 -91 
Q 1588 -91 1214 -16 
Q 841 59 441 206 
L 441 856 
Q 825 641 1194 531 
Q 1563 422 1919 422 
Q 2459 422 2753 634 
Q 3047 847 3047 1241 
Q 3047 1584 2836 1778 
Q 2625 1972 2144 2069 
L 1759 2144 
Q 1053 2284 737 2584 
Q 422 2884 422 3419 
Q 422 4038 858 4394 
Q 1294 4750 2059 4750 
Q 2388 4750 2728 4690 
Q 3069 4631 3425 4513 
z
" transform="scale(0.015625)"/>
      </defs>
      <use xlink:href="#DejaVuSans-50"/>
      <use xlink:href="#DejaVuSans-41" transform="translate(53.927734 0)"/>
      <use xlink:href="#DejaVuSans-20" transform="translate(122.335938 0)"/>
      <use xlink:href="#DejaVuSans-45" transform="translate(154.123047 0)"/>
      <use xlink:href="#DejaVuSans-4e" transform="translate(217.306641 0)"/>
      <use xlink:href="#DejaVuSans-54" transform="translate(292.111328 0)"/>
      <use xlink:href="#DejaVuSans-52" transform="translate(353.195312 0)"/>
      <use xlink:href="#DejaVuSans-45" transform="translate(422.677734 0)"/>
      <use xlink:href="#DejaVuSans-20" transform="translate(485.861328 0)"/>
      <use xlink:href="#DejaVuSans-52" transform="translate(517.648438 0)"/>
      <use xlink:href="#DejaVuSans-49" transform="translate(587.130859 0)"/>
      <use xlink:href="#DejaVuSans-4f" transform="translate(616.623047 0)"/>
      <use xlink:href="#DejaVuSans-53" transform="translate(695.333984 0)"/>
     </g>
    </g>
   </g>
  </g>
 </g>
 <defs>
  <clipPath id="p42bc4f51b0">
   <rect x="93.181918" y="103.68" width="551.636164" height="665.28"/>
  </clipPath>
 </defs>
</svg>
