<?xml version="1.0" encoding="utf-8" standalone="no"?>
<!DOCTYPE svg PUBLIC "-//W3C//DTD SVG 1.1//EN"
  "http://www.w3.org/Graphics/SVG/1.1/DTD/svg11.dtd">
<svg xmlns:xlink="http://www.w3.org/1999/xlink" width="720pt" height="864pt" viewBox="0 0 720 864" xmlns="http://www.w3.org/2000/svg" version="1.1">
 <metadata>
  <rdf:RDF xmlns:dc="http://purl.org/dc/elements/1.1/" xmlns:cc="http://creativecommons.org/ns#" xmlns:rdf="http://www.w3.org/1999/02/22-rdf-syntax-ns#">
   <cc:Work>
    <dc:type rdf:resource="http://purl.org/dc/dcmitype/StillImage"/>
    <dc:date>2025-06-16T17:35:08.097698</dc:date>
    <dc:format>image/svg+xml</dc:format>
    <dc:creator>
     <cc:Agent>
      <dc:title>Matplotlib v3.10.1, https://matplotlib.org/</dc:title>
     </cc:Agent>
    </dc:creator>
   </cc:Work>
  </rdf:RDF>
 </metadata>
 <defs>
  <style type="text/css">*{stroke-linejoin: round; stroke-linecap: butt}</style>
 </defs>
 <g id="figure_1">
  <g id="patch_1">
   <path d="M 0 864 
L 720 864 
L 720 0 
L 0 0 
z
" style="fill: #ffffff"/>
  </g>
  <g id="axes_1">
   <g id="patch_2">
    <path d="M 90 712.879328 
L 648 712.879328 
L 648 159.760672 
L 90 159.760672 
z
" style="fill: #ffffff"/>
   </g>
   <g id="PatchCollection_1">
    <path d="M 197.407301 324.428158 
L 197.711057 324.613115 
L 189.960066 339.822156 
L 211.139169 393.853939 
L 140.0298 528.496879 
L 115.363636 393.221302 
L 127.741643 460.924503 
L 197.407301 324.428158 
" clip-path="url(#p659075c814)" style="fill: #e0bd1f; stroke: #0000ff; stroke-width: 0.5"/>
    <path d="M 211.139169 393.853939 
L 220.008295 420.536631 
L 230.33609 438.826672 
L 290.31994 405.530679 
L 291.40868 406.665847 
L 197.576515 459.277729 
L 183.019855 546.524432 
L 213.052889 559.171815 
L 140.0298 528.496879 
L 211.139169 393.853939 
" clip-path="url(#p659075c814)" style="fill: #e0bd1f; stroke: #0000ff; stroke-width: 0.5"/>
    <path d="M 302.426743 184.902429 
L 304.106411 185.935935 
L 304.222868 187.830034 
L 306.555311 187.453817 
L 307.345985 186.221845 
L 308.259625 186.331441 
L 306.809636 187.780622 
L 308.210253 189.195867 
L 309.827999 189.068798 
L 310.934802 190.425794 
L 314.257396 190.397698 
L 316.232229 187.953589 
L 317.586369 188.466907 
L 315.43965 189.655024 
L 319.422512 192.340512 
L 320.840102 193.370376 
L 324.125102 192.016038 
L 325.90162 192.289729 
L 327.644682 194.336889 
L 328.604147 193.288698 
L 330.071651 196.862112 
L 331.610666 197.418451 
L 335.679428 194.396033 
L 336.069762 194.96273 
L 334.059144 196.508833 
L 336.732754 196.84078 
L 339.604468 200.027288 
L 342.915584 200.053436 
L 344.507853 202.126275 
L 345.338612 200.534778 
L 347.477187 200.926188 
L 350.47974 203.105823 
L 352.545127 205.489542 
L 354.646842 204.996485 
L 355.856725 206.619515 
L 359.142505 206.934448 
L 360.111284 209.305644 
L 362.416181 209.123278 
L 366.217163 210.053903 
L 367.729654 207.938293 
L 368.428418 209.885611 
L 367.742606 213.738804 
L 370.778472 214.627376 
L 371.306533 211.882306 
L 372.626261 212.155117 
L 373.239777 215.227662 
L 376.690458 216.946025 
L 377.070128 214.666714 
L 378.195077 214.016971 
L 379.17868 215.207392 
L 282.679479 309.304615 
L 254.379437 336.963899 
L 250.834087 334.998987 
L 249.256149 337.091739 
L 248.219173 337.225161 
L 248.516606 335.478464 
L 250.443488 334.078634 
L 248.424058 332.308627 
L 248.648385 330.740286 
L 245.69417 330.034124 
L 243.305444 328.97909 
L 243.48147 325.350741 
L 245.108395 323.595547 
L 242.07689 322.197774 
L 240.597304 319.696014 
L 237.670889 318.425323 
L 235.018466 319.53822 
L 234.868295 319.478604 
L 235.319885 315.026198 
L 232.254196 317.539001 
L 231.929794 317.022195 
L 236.111226 313.489179 
L 230.146491 314.807956 
L 226.439739 317.397738 
L 225.259459 319.962243 
L 224.405644 320.131923 
L 222.625631 319.033949 
L 219.767872 320.162085 
L 214.983565 317.815276 
L 213.336192 315.825107 
L 211.87729 319.169613 
L 210.821314 319.317242 
L 208.472034 319.11046 
L 205.15214 318.546915 
L 202.710238 321.118376 
L 200.962388 322.214938 
L 199.880776 321.056594 
L 197.974665 321.638815 
L 198.124583 323.919723 
L 196.80944 322.028262 
L 193.323214 320.189447 
L 191.994249 322.048037 
L 190.416223 319.906628 
L 188.809373 322.163891 
L 186.303862 323.157846 
L 183.752783 321.964655 
L 182.142462 321.933416 
L 182.505689 319.580191 
L 177.644793 318.108775 
L 175.223863 316.800173 
L 173.571619 315.456267 
L 173.04119 310.999089 
L 170.953855 311.281173 
L 168.693985 312.449446 
L 166.02887 312.059615 
L 161.933698 308.347396 
L 159.790443 308.977206 
L 157.567515 306.920091 
L 156.5446 310.474586 
L 154.508243 309.29095 
L 154.273406 305.311195 
L 153.357878 305.485701 
L 152.268666 308.303328 
L 150.189327 307.26511 
L 149.203213 306.220323 
L 147.856336 306.644633 
L 146.802271 304.348337 
L 145.513324 302.101347 
L 144.032733 300.218657 
L 146.357907 298.050132 
L 174.717439 218.642371 
L 201.200772 228.038799 
L 271.294925 252.402214 
L 293.388817 186.311296 
L 294.753441 185.667048 
L 298.398907 187.721183 
L 299.775484 186.084862 
L 302.426743 184.902429 
" clip-path="url(#p659075c814)" style="fill: #e0bd1f; stroke: #0000ff; stroke-width: 0.5"/>
    <path d="M 338.070877 382.638717 
L 339.534351 383.512367 
L 342.04808 384.520803 
L 344.995983 384.26986 
L 347.820114 383.558633 
L 350.173906 382.944943 
L 351.581356 385.358299 
L 349.876708 386.138396 
L 349.843485 387.336774 
L 350.913213 387.948238 
L 353.306515 388.389024 
L 354.908197 387.562048 
L 357.698906 386.389455 
L 360.348457 386.990927 
L 362.942854 386.854922 
L 364.543686 386.078221 
L 367.510803 385.750872 
L 367.65563 388.593855 
L 368.242531 390.69488 
L 369.629656 389.535229 
L 370.624528 387.371662 
L 373.117207 388.629865 
L 374.261631 390.161145 
L 376.82719 391.20144 
L 376.864106 393.60891 
L 376.764898 395.961217 
L 377.627308 398.049392 
L 379.573262 397.974061 
L 382.112421 397.085304 
L 383.806239 396.580354 
L 385.733481 396.471227 
L 387.767355 396.058138 
L 225.668888 482.163789 
L 221.670628 481.998396 
L 213.052889 559.171815 
L 183.019855 546.524432 
L 197.576515 459.277729 
L 291.40868 406.665847 
L 323.797385 388.511769 
L 325.484442 388.711362 
L 327.629125 388.340086 
L 331.226779 388.566278 
L 332.510343 387.349044 
L 332.719534 385.796606 
L 334.883962 383.919703 
L 335.656583 383.375319 
L 338.070877 382.638717 
" clip-path="url(#p659075c814)" style="fill: #e0bd1f; stroke: #0000ff; stroke-width: 0.5"/>
    <path d="M 244.842757 330.027544 
L 245.532939 330.518027 
L 248.082546 331.127571 
L 247.884701 332.509905 
L 249.631753 334.04133 
L 248.053689 335.187835 
L 247.606184 337.816644 
L 249.530957 337.56927 
L 251.004138 335.614376 
L 253.907598 337.401507 
L 254.987261 338.709529 
L 256.575502 341.06153 
L 258.870259 344.015206 
L 257.987159 347.650866 
L 258.597166 351.022894 
L 259.93243 350.529084 
L 263.206901 350.269682 
L 265.492787 352.931895 
L 269.014015 354.378307 
L 270.896834 351.800839 
L 272.377712 354.935271 
L 273.656849 357.509855 
L 275.951486 356.853651 
L 277.888167 358.671534 
L 281.83172 359.246157 
L 284.419534 360.366685 
L 284.423493 363.437577 
L 285.79729 364.237204 
L 211.139169 393.853939 
L 244.842757 330.027544 
" clip-path="url(#p659075c814)" style="fill: #e0bd1f; stroke: #0000ff; stroke-width: 0.5"/>
    <path d="M 285.79729 364.237204 
L 287.401807 365.121357 
L 290.538401 365.984074 
L 290.623733 368.356892 
L 293.468452 367.393505 
L 295.88485 368.372514 
L 296.214261 370.11001 
L 282.34029 397.22313 
L 220.008295 420.536631 
L 211.139169 393.853939 
L 285.79729 364.237204 
" clip-path="url(#p659075c814)" style="fill: #e0bd1f; stroke: #0000ff; stroke-width: 0.5"/>
    <path d="M 282.34029 397.22313 
L 290.31994 405.530679 
L 230.33609 438.826672 
L 220.008295 420.536631 
L 282.34029 397.22313 
" clip-path="url(#p659075c814)" style="fill: #e0bd1f; stroke: #0000ff; stroke-width: 0.5"/>
    <path d="M 387.767355 396.058138 
L 389.239955 396.953161 
L 391.581906 397.139407 
L 391.213054 399.847996 
L 391.549038 401.329012 
L 392.785984 401.72936 
L 395.9397 401.953402 
L 396.317715 400.289857 
L 397.91349 399.210361 
L 399.537469 400.177397 
L 401.440129 399.886489 
L 400.445056 401.704906 
L 400.721068 403.603165 
L 402.350124 402.553984 
L 402.603876 403.375073 
L 402.880427 407.086708 
L 401.407966 405.814898 
L 400.357737 407.605945 
L 400.843542 409.584936 
L 402.360439 411.075682 
L 403.028972 409.982195 
L 404.684629 410.588065 
L 404.65765 411.792617 
L 407.338847 412.324919 
L 411.382123 412.545051 
L 410.053262 412.976791 
L 407.412096 414.597162 
L 409.657135 418.84906 
L 411.877219 420.32849 
L 414.042151 422.990596 
L 414.826422 421.31459 
L 418.506772 423.886232 
L 421.177665 423.169542 
L 423.756371 425.047458 
L 422.269241 427.495716 
L 422.974163 430.720227 
L 425.998269 432.252721 
L 428.166574 432.291322 
L 428.622642 434.265384 
L 432.00476 432.563404 
L 431.4479 434.356763 
L 432.100623 436.469811 
L 432.372683 440.571247 
L 434.553791 443.105559 
L 435.84538 443.938853 
L 437.771754 442.359765 
L 439.870828 441.355347 
L 439.236211 443.495439 
L 438.979731 448.727993 
L 441.112703 449.874573 
L 443.038537 447.29389 
L 443.308887 448.771306 
L 445.727778 447.045937 
L 446.523097 448.961014 
L 446.207269 450.597096 
L 445.465941 452.220332 
L 447.041305 452.51026 
L 449.180556 454.578733 
L 448.954897 457.184826 
L 447.8266 461.3727 
L 449.815145 463.688325 
L 451.129541 461.869773 
L 450.062504 458.537175 
L 451.605204 458.002509 
L 453.991918 460.662733 
L 453.870978 461.518131 
L 451.717113 461.859104 
L 453.222391 464.57064 
L 454.492196 463.812116 
L 456.431694 467.693384 
L 456.304528 469.64362 
L 459.147906 472.163973 
L 460.76316 474.465315 
L 463.998749 476.964229 
L 463.823995 475.02192 
L 463.667243 473.387951 
L 465.287857 474.740205 
L 464.853805 476.00807 
L 466.873372 479.347682 
L 470.383733 483.203639 
L 473.976429 482.417237 
L 475.634286 480.496167 
L 478.315035 479.327402 
L 480.89178 480.63241 
L 482.466376 481.181602 
L 483.245187 485.04852 
L 485.518162 484.827158 
L 489.399051 484.990401 
L 488.995313 486.556935 
L 490.316365 487.931202 
L 492.255232 490.382066 
L 492.52065 488.471157 
L 494.116401 488.888029 
L 496.670029 490.870471 
L 498.169901 496.102621 
L 495.25092 495.526629 
L 496.176558 497.247734 
L 498.411457 500.639177 
L 497.469524 502.114433 
L 498.119489 505.217181 
L 500.74419 506.158643 
L 502.414551 506.266075 
L 504.142361 508.706824 
L 506.855893 506.87745 
L 510.220206 508.593133 
L 512.06926 509.436746 
L 514.183139 510.562998 
L 518.475645 508.161962 
L 522.331706 507.696527 
L 524.602573 506.400104 
L 525.616473 508.839251 
L 529.52429 507.996711 
L 532.777442 508.309186 
L 534.269974 505.842748 
L 535.975682 506.645916 
L 537.417817 504.898328 
L 541.658257 504.221645 
L 545.37914 503.973863 
L 545.915688 502.577732 
L 544.137316 501.32984 
L 545.742432 501.215033 
L 548.838641 504.452345 
L 549.468769 506.412366 
L 552.43333 507.801477 
L 555.633541 506.491233 
L 558.525484 505.555588 
L 556.438473 504.219653 
L 557.839415 502.536123 
L 559.020956 503.645624 
L 562.916469 504.506288 
L 564.446054 502.546343 
L 567.411873 502.370063 
L 566.875893 500.884034 
L 568.619619 499.276494 
L 571.275217 501.015327 
L 573.722697 499.397538 
L 575.147482 496.772726 
L 577.912957 496.801511 
L 577.966734 494.996889 
L 576.369943 492.115406 
L 578.123609 492.169194 
L 578.109172 493.288358 
L 580.449023 493.085707 
L 580.880903 494.027192 
L 583.051289 491.846639 
L 584.238986 487.695109 
L 585.855777 483.398197 
L 588.353851 481.5033 
L 591.061061 481.554999 
L 592.411621 484.760442 
L 595.24058 485.794939 
L 594.609788 483.525375 
L 596.43553 483.523373 
L 600.628487 483.198778 
L 599.488515 480.016426 
L 599.764236 478.259114 
L 602.118612 475.176464 
L 602.936757 477.525732 
L 603.941017 481.61836 
L 602.354166 480.890833 
L 601.406571 482.93502 
L 602.076519 484.981783 
L 605.015939 485.204991 
L 606.720516 483.036695 
L 607.076582 481.691869 
L 608.749619 482.771397 
L 607.931666 483.526291 
L 608.767521 486.423411 
L 609.881943 488.065969 
L 612.039321 489.53645 
L 613.375827 489.268347 
L 614.547544 487.159599 
L 615.788966 488.927961 
L 617.178673 490.41923 
L 617.772598 489.649239 
L 617.057262 486.530554 
L 618.773517 486.817827 
L 621.196782 487.866478 
L 622.636364 488.948465 
L 558.710897 573.743436 
L 558.289705 574.198904 
L 509.963983 637.810424 
L 503.075405 646.831783 
L 501.834044 648.470322 
L 450.567543 658.448515 
L 456.128788 687.737571 
L 429.383582 664.850475 
L 410.468069 648.593675 
L 377.295248 620.043682 
L 353.345678 599.525105 
L 327.629393 577.437099 
L 288.812381 544.191217 
L 225.668888 482.163789 
L 387.767355 396.058138 
" clip-path="url(#p659075c814)" style="fill: #e0bd1f; stroke: #0000ff; stroke-width: 0.5"/>
    <path d="M 379.17868 215.207392 
L 379.909663 215.569928 
L 380.583442 216.852471 
L 379.150748 217.564951 
L 378.412099 218.861056 
L 378.987389 220.397235 
L 378.722428 221.701985 
L 380.921661 222.503709 
L 383.26999 223.171273 
L 385.164326 223.028463 
L 386.726441 223.088625 
L 388.94478 224.198676 
L 391.299303 224.463974 
L 390.315596 226.197009 
L 389.325185 228.138537 
L 390.213179 228.984886 
L 391.211083 228.599664 
L 392.916774 227.123005 
L 395.096719 228.290884 
L 396.85302 227.238756 
L 399.019472 227.996577 
L 401.128097 230.066457 
L 400.623928 231.849341 
L 402.208179 232.257353 
L 402.342222 234.166584 
L 402.7096 235.953047 
L 403.349877 238.476888 
L 404.70305 239.413828 
L 286.842551 363.1586 
L 284.984027 363.106238 
L 284.980405 359.99467 
L 281.985293 358.697893 
L 278.142278 358.1374 
L 276.102363 356.222924 
L 273.950616 356.838224 
L 272.882584 354.687853 
L 271.000824 350.704876 
L 268.821101 353.689044 
L 265.829183 352.460011 
L 263.44614 349.683659 
L 259.811521 349.972176 
L 259.029629 350.261238 
L 258.560828 347.668019 
L 259.480153 343.883583 
L 257.028833 340.728535 
L 255.436062 338.369215 
L 254.379437 336.963899 
L 282.679479 309.304615 
L 379.17868 215.207392 
" clip-path="url(#p659075c814)" style="fill: #e0bd1f; stroke: #0000ff; stroke-width: 0.5"/>
    <path d="M 296.214261 370.11001 
L 296.54699 371.656603 
L 296.886599 372.923747 
L 298.591403 375.180273 
L 299.547076 373.873261 
L 300.659714 372.75709 
L 302.468588 374.930319 
L 303.263856 376.947326 
L 304.373054 378.714379 
L 305.931091 378.502605 
L 306.649566 380.661899 
L 307.961866 381.948165 
L 309.77418 382.409893 
L 311.762258 381.642658 
L 313.002864 379.955465 
L 315.212842 379.431248 
L 315.559209 381.989782 
L 317.579725 382.357777 
L 317.120687 384.787897 
L 318.156532 386.527205 
L 320.419406 387.910578 
L 321.144639 387.093039 
L 321.453531 384.845199 
L 322.153207 382.644225 
L 321.878472 384.244621 
L 322.644682 386.357048 
L 323.767579 388.50422 
L 323.797385 388.511769 
L 291.40868 406.665847 
L 290.31994 405.530679 
L 282.34029 397.22313 
L 296.214261 370.11001 
" clip-path="url(#p659075c814)" style="fill: #e0bd1f; stroke: #0000ff; stroke-width: 0.5"/>
    <path d="M 406.419271 238.420101 
L 407.008043 239.953366 
L 407.72628 240.342512 
L 409.077291 239.978457 
L 411.019021 239.373817 
L 412.134542 240.666288 
L 413.970931 240.394408 
L 415.472033 240.683113 
L 416.714259 241.447237 
L 418.910041 240.610674 
L 420.668784 242.020978 
L 422.293422 243.535415 
L 424.322929 243.174875 
L 425.543559 241.464784 
L 427.953437 240.578988 
L 430.33082 240.51137 
L 431.976922 241.646054 
L 434.017064 240.574781 
L 435.757302 240.371211 
L 437.879728 242.088457 
L 439.163862 243.424024 
L 441.107162 244.717459 
L 442.747882 245.085007 
L 444.095549 245.129946 
L 444.850019 246.583171 
L 444.723665 249.088716 
L 445.14638 250.121821 
L 447.279152 251.274645 
L 449.659193 251.380415 
L 451.691559 251.432782 
L 452.774642 252.437302 
L 456.071188 271.390206 
L 316.445533 380.734342 
L 315.685285 378.738205 
L 312.674829 379.452685 
L 311.409186 381.174281 
L 309.739694 381.819132 
L 308.244707 381.437678 
L 307.139274 380.352984 
L 306.316363 377.880963 
L 304.655222 378.105462 
L 303.765732 376.690212 
L 302.956924 374.637846 
L 300.697042 371.921313 
L 299.120267 373.504536 
L 298.583833 374.237968 
L 297.399421 372.669569 
L 297.092879 371.527313 
L 296.37398 367.962713 
L 293.485618 366.792469 
L 291.157468 367.580507 
L 291.084569 365.549457 
L 287.616523 364.594841 
L 286.842551 363.1586 
L 404.70305 239.413828 
L 406.419271 238.420101 
" clip-path="url(#p659075c814)" style="fill: #e0bd1f; stroke: #0000ff; stroke-width: 0.5"/>
    <path d="M 456.071188 271.390206 
L 470.150658 352.225995 
L 417.760226 380.09765 
L 389.098519 395.33434 
L 387.656523 395.504013 
L 385.661894 395.909537 
L 383.709407 396.0205 
L 381.940508 396.547904 
L 379.468003 397.412559 
L 377.995635 397.469978 
L 377.330626 395.860309 
L 377.425384 393.616491 
L 377.38293 390.817565 
L 374.615998 389.695924 
L 373.486275 388.184333 
L 370.358187 386.605433 
L 369.173663 389.182455 
L 368.549094 389.704554 
L 368.212986 388.501471 
L 368.039944 385.124235 
L 364.386857 385.527176 
L 362.800577 386.296452 
L 360.396386 386.422916 
L 357.647934 385.798836 
L 354.671887 387.049296 
L 353.22019 387.799168 
L 351.107231 387.409914 
L 350.414157 387.013269 
L 350.428192 386.506459 
L 352.380279 385.613121 
L 350.443051 382.290954 
L 347.681829 383.010872 
L 344.90366 383.711108 
L 342.132463 383.946938 
L 339.782975 383.003679 
L 338.144383 382.025933 
L 335.407923 382.860938 
L 334.539143 383.473086 
L 332.191503 385.50806 
L 331.980708 387.075195 
L 331.019293 387.987266 
L 327.599055 387.77251 
L 325.470071 388.140874 
L 324.126696 387.97834 
L 323.158454 386.126859 
L 322.457464 384.191971 
L 322.827998 382.075971 
L 321.740888 382.076395 
L 320.903506 384.719813 
L 320.612713 386.844406 
L 320.311517 387.18391 
L 318.567485 386.116914 
L 317.711858 384.738203 
L 318.237264 381.903326 
L 316.061416 381.507038 
L 316.445533 380.734342 
L 456.071188 271.390206 
" clip-path="url(#p659075c814)" style="fill: #e0bd1f; stroke: #0000ff; stroke-width: 0.5"/>
    <path d="M 232.936853 315.061044 
L 230.822466 316.848906 
L 232.049433 318.803424 
L 234.273051 316.980819 
L 233.962438 320.034075 
L 235.083616 320.476744 
L 237.701396 318.99264 
L 240.247544 320.096564 
L 241.723628 322.594358 
L 244.261236 323.764332 
L 242.986473 325.140769 
L 242.783371 329.30326 
L 244.842757 330.027544 
L 211.139169 393.853939 
L 189.960066 339.822156 
L 197.711057 324.613115 
L 198.059144 324.767587 
L 198.970462 322.042396 
L 199.676957 321.827186 
L 199.839082 323.606361 
L 200.849309 323.083894 
L 203.13774 321.648406 
L 205.392013 319.275526 
L 208.386939 319.782371 
L 210.839215 319.999394 
L 212.342637 319.78937 
L 213.51505 317.10061 
L 214.559435 318.360755 
L 217.163577 319.667829 
L 219.73866 320.901979 
L 222.559542 319.78762 
L 224.277985 320.848177 
L 225.726792 320.560042 
L 226.984538 317.826165 
L 227.904333 317.083238 
L 230.45386 315.609569 
L 232.936853 315.061044 
" clip-path="url(#p659075c814)" style="fill: #e0bd1f; stroke: #0000ff; stroke-width: 0.5"/>
   </g>
   <g id="PatchCollection_2">
    <path d="M 201.68714 328.77184 
L 247.47892 328.77184 
L 272.5213 343.327334 
L 294.701694 362.249477 
L 324.037054 378.988295 
L 346.217447 390.632691 
L 364.104862 396.454888 
L 394.215043 406.334419 
L 412.15784 417.033105 
L 434.431656 435.283806 
L 450.518302 454.163841 
L 464.748796 472.414542 
L 480.216724 484.371897 
L 496.922086 505.139936 
L 518.577186 524.649306 
L 543.738349 555.906253 
L 498.379719 618.102721 
L 455.055676 627.771541 
L 327.535037 541.928967 
L 286.513233 513.788345 
L 216.394569 466.240397 
L 211.386093 412.465932 
L 201.68714 328.77184 
" clip-path="url(#p659075c814)" style="fill: none; stroke: #000000"/>
   </g>
   <g id="matplotlib.axis_1">
    <g id="xtick_1">
     <g id="line2d_1">
      <path d="M 196.809999 712.879328 
L 196.809999 159.760672 
" clip-path="url(#p659075c814)" style="fill: none; stroke: #b0b0b0; stroke-width: 0.8; stroke-linecap: square"/>
     </g>
     <g id="line2d_2">
      <defs>
       <path id="md695bd24c2" d="M 0 0 
L 0 3.5 
" style="stroke: #000000; stroke-width: 0.8"/>
      </defs>
      <g>
       <use xlink:href="#md695bd24c2" x="196.809999" y="712.879328" style="stroke: #000000; stroke-width: 0.8"/>
      </g>
     </g>
     <g id="text_1">
      <!-- −49.28 -->
      <g transform="translate(185.676934 751.42071) rotate(-45) scale(0.1 -0.1)">
       <defs>
        <path id="DejaVuSans-2212" d="M 678 2272 
L 4684 2272 
L 4684 1741 
L 678 1741 
L 678 2272 
z
" transform="scale(0.015625)"/>
        <path id="DejaVuSans-34" d="M 2419 4116 
L 825 1625 
L 2419 1625 
L 2419 4116 
z
M 2253 4666 
L 3047 4666 
L 3047 1625 
L 3713 1625 
L 3713 1100 
L 3047 1100 
L 3047 0 
L 2419 0 
L 2419 1100 
L 313 1100 
L 313 1709 
L 2253 4666 
z
" transform="scale(0.015625)"/>
        <path id="DejaVuSans-39" d="M 703 97 
L 703 672 
Q 941 559 1184 500 
Q 1428 441 1663 441 
Q 2288 441 2617 861 
Q 2947 1281 2994 2138 
Q 2813 1869 2534 1725 
Q 2256 1581 1919 1581 
Q 1219 1581 811 2004 
Q 403 2428 403 3163 
Q 403 3881 828 4315 
Q 1253 4750 1959 4750 
Q 2769 4750 3195 4129 
Q 3622 3509 3622 2328 
Q 3622 1225 3098 567 
Q 2575 -91 1691 -91 
Q 1453 -91 1209 -44 
Q 966 3 703 97 
z
M 1959 2075 
Q 2384 2075 2632 2365 
Q 2881 2656 2881 3163 
Q 2881 3666 2632 3958 
Q 2384 4250 1959 4250 
Q 1534 4250 1286 3958 
Q 1038 3666 1038 3163 
Q 1038 2656 1286 2365 
Q 1534 2075 1959 2075 
z
" transform="scale(0.015625)"/>
        <path id="DejaVuSans-2e" d="M 684 794 
L 1344 794 
L 1344 0 
L 684 0 
L 684 794 
z
" transform="scale(0.015625)"/>
        <path id="DejaVuSans-32" d="M 1228 531 
L 3431 531 
L 3431 0 
L 469 0 
L 469 531 
Q 828 903 1448 1529 
Q 2069 2156 2228 2338 
Q 2531 2678 2651 2914 
Q 2772 3150 2772 3378 
Q 2772 3750 2511 3984 
Q 2250 4219 1831 4219 
Q 1534 4219 1204 4116 
Q 875 4013 500 3803 
L 500 4441 
Q 881 4594 1212 4672 
Q 1544 4750 1819 4750 
Q 2544 4750 2975 4387 
Q 3406 4025 3406 3419 
Q 3406 3131 3298 2873 
Q 3191 2616 2906 2266 
Q 2828 2175 2409 1742 
Q 1991 1309 1228 531 
z
" transform="scale(0.015625)"/>
        <path id="DejaVuSans-38" d="M 2034 2216 
Q 1584 2216 1326 1975 
Q 1069 1734 1069 1313 
Q 1069 891 1326 650 
Q 1584 409 2034 409 
Q 2484 409 2743 651 
Q 3003 894 3003 1313 
Q 3003 1734 2745 1975 
Q 2488 2216 2034 2216 
z
M 1403 2484 
Q 997 2584 770 2862 
Q 544 3141 544 3541 
Q 544 4100 942 4425 
Q 1341 4750 2034 4750 
Q 2731 4750 3128 4425 
Q 3525 4100 3525 3541 
Q 3525 3141 3298 2862 
Q 3072 2584 2669 2484 
Q 3125 2378 3379 2068 
Q 3634 1759 3634 1313 
Q 3634 634 3220 271 
Q 2806 -91 2034 -91 
Q 1263 -91 848 271 
Q 434 634 434 1313 
Q 434 1759 690 2068 
Q 947 2378 1403 2484 
z
M 1172 3481 
Q 1172 3119 1398 2916 
Q 1625 2713 2034 2713 
Q 2441 2713 2670 2916 
Q 2900 3119 2900 3481 
Q 2900 3844 2670 4047 
Q 2441 4250 2034 4250 
Q 1625 4250 1398 4047 
Q 1172 3844 1172 3481 
z
" transform="scale(0.015625)"/>
       </defs>
       <use xlink:href="#DejaVuSans-2212"/>
       <use xlink:href="#DejaVuSans-34" transform="translate(83.789062 0)"/>
       <use xlink:href="#DejaVuSans-39" transform="translate(147.412109 0)"/>
       <use xlink:href="#DejaVuSans-2e" transform="translate(211.035156 0)"/>
       <use xlink:href="#DejaVuSans-32" transform="translate(242.822266 0)"/>
       <use xlink:href="#DejaVuSans-38" transform="translate(306.445312 0)"/>
      </g>
     </g>
    </g>
    <g id="xtick_2">
     <g id="line2d_3">
      <path d="M 319.678753 712.879328 
L 319.678753 159.760672 
" clip-path="url(#p659075c814)" style="fill: none; stroke: #b0b0b0; stroke-width: 0.8; stroke-linecap: square"/>
     </g>
     <g id="line2d_4">
      <g>
       <use xlink:href="#md695bd24c2" x="319.678753" y="712.879328" style="stroke: #000000; stroke-width: 0.8"/>
      </g>
     </g>
     <g id="text_2">
      <!-- −49.26 -->
      <g transform="translate(308.545688 751.42071) rotate(-45) scale(0.1 -0.1)">
       <defs>
        <path id="DejaVuSans-36" d="M 2113 2584 
Q 1688 2584 1439 2293 
Q 1191 2003 1191 1497 
Q 1191 994 1439 701 
Q 1688 409 2113 409 
Q 2538 409 2786 701 
Q 3034 994 3034 1497 
Q 3034 2003 2786 2293 
Q 2538 2584 2113 2584 
z
M 3366 4563 
L 3366 3988 
Q 3128 4100 2886 4159 
Q 2644 4219 2406 4219 
Q 1781 4219 1451 3797 
Q 1122 3375 1075 2522 
Q 1259 2794 1537 2939 
Q 1816 3084 2150 3084 
Q 2853 3084 3261 2657 
Q 3669 2231 3669 1497 
Q 3669 778 3244 343 
Q 2819 -91 2113 -91 
Q 1303 -91 875 529 
Q 447 1150 447 2328 
Q 447 3434 972 4092 
Q 1497 4750 2381 4750 
Q 2619 4750 2861 4703 
Q 3103 4656 3366 4563 
z
" transform="scale(0.015625)"/>
       </defs>
       <use xlink:href="#DejaVuSans-2212"/>
       <use xlink:href="#DejaVuSans-34" transform="translate(83.789062 0)"/>
       <use xlink:href="#DejaVuSans-39" transform="translate(147.412109 0)"/>
       <use xlink:href="#DejaVuSans-2e" transform="translate(211.035156 0)"/>
       <use xlink:href="#DejaVuSans-32" transform="translate(242.822266 0)"/>
       <use xlink:href="#DejaVuSans-36" transform="translate(306.445312 0)"/>
      </g>
     </g>
    </g>
    <g id="xtick_3">
     <g id="line2d_5">
      <path d="M 442.547507 712.879328 
L 442.547507 159.760672 
" clip-path="url(#p659075c814)" style="fill: none; stroke: #b0b0b0; stroke-width: 0.8; stroke-linecap: square"/>
     </g>
     <g id="line2d_6">
      <g>
       <use xlink:href="#md695bd24c2" x="442.547507" y="712.879328" style="stroke: #000000; stroke-width: 0.8"/>
      </g>
     </g>
     <g id="text_3">
      <!-- −49.24 -->
      <g transform="translate(431.414442 751.42071) rotate(-45) scale(0.1 -0.1)">
       <use xlink:href="#DejaVuSans-2212"/>
       <use xlink:href="#DejaVuSans-34" transform="translate(83.789062 0)"/>
       <use xlink:href="#DejaVuSans-39" transform="translate(147.412109 0)"/>
       <use xlink:href="#DejaVuSans-2e" transform="translate(211.035156 0)"/>
       <use xlink:href="#DejaVuSans-32" transform="translate(242.822266 0)"/>
       <use xlink:href="#DejaVuSans-34" transform="translate(306.445312 0)"/>
      </g>
     </g>
    </g>
    <g id="xtick_4">
     <g id="line2d_7">
      <path d="M 565.416261 712.879328 
L 565.416261 159.760672 
" clip-path="url(#p659075c814)" style="fill: none; stroke: #b0b0b0; stroke-width: 0.8; stroke-linecap: square"/>
     </g>
     <g id="line2d_8">
      <g>
       <use xlink:href="#md695bd24c2" x="565.416261" y="712.879328" style="stroke: #000000; stroke-width: 0.8"/>
      </g>
     </g>
     <g id="text_4">
      <!-- −49.22 -->
      <g transform="translate(554.283197 751.42071) rotate(-45) scale(0.1 -0.1)">
       <use xlink:href="#DejaVuSans-2212"/>
       <use xlink:href="#DejaVuSans-34" transform="translate(83.789062 0)"/>
       <use xlink:href="#DejaVuSans-39" transform="translate(147.412109 0)"/>
       <use xlink:href="#DejaVuSans-2e" transform="translate(211.035156 0)"/>
       <use xlink:href="#DejaVuSans-32" transform="translate(242.822266 0)"/>
       <use xlink:href="#DejaVuSans-32" transform="translate(306.445312 0)"/>
      </g>
     </g>
    </g>
    <g id="text_5">
     <!-- Longitude (°) -->
     <g transform="translate(336.139844 764.489708) scale(0.1 -0.1)">
      <defs>
       <path id="DejaVuSans-4c" d="M 628 4666 
L 1259 4666 
L 1259 531 
L 3531 531 
L 3531 0 
L 628 0 
L 628 4666 
z
" transform="scale(0.015625)"/>
       <path id="DejaVuSans-6f" d="M 1959 3097 
Q 1497 3097 1228 2736 
Q 959 2375 959 1747 
Q 959 1119 1226 758 
Q 1494 397 1959 397 
Q 2419 397 2687 759 
Q 2956 1122 2956 1747 
Q 2956 2369 2687 2733 
Q 2419 3097 1959 3097 
z
M 1959 3584 
Q 2709 3584 3137 3096 
Q 3566 2609 3566 1747 
Q 3566 888 3137 398 
Q 2709 -91 1959 -91 
Q 1206 -91 779 398 
Q 353 888 353 1747 
Q 353 2609 779 3096 
Q 1206 3584 1959 3584 
z
" transform="scale(0.015625)"/>
       <path id="DejaVuSans-6e" d="M 3513 2113 
L 3513 0 
L 2938 0 
L 2938 2094 
Q 2938 2591 2744 2837 
Q 2550 3084 2163 3084 
Q 1697 3084 1428 2787 
Q 1159 2491 1159 1978 
L 1159 0 
L 581 0 
L 581 3500 
L 1159 3500 
L 1159 2956 
Q 1366 3272 1645 3428 
Q 1925 3584 2291 3584 
Q 2894 3584 3203 3211 
Q 3513 2838 3513 2113 
z
" transform="scale(0.015625)"/>
       <path id="DejaVuSans-67" d="M 2906 1791 
Q 2906 2416 2648 2759 
Q 2391 3103 1925 3103 
Q 1463 3103 1205 2759 
Q 947 2416 947 1791 
Q 947 1169 1205 825 
Q 1463 481 1925 481 
Q 2391 481 2648 825 
Q 2906 1169 2906 1791 
z
M 3481 434 
Q 3481 -459 3084 -895 
Q 2688 -1331 1869 -1331 
Q 1566 -1331 1297 -1286 
Q 1028 -1241 775 -1147 
L 775 -588 
Q 1028 -725 1275 -790 
Q 1522 -856 1778 -856 
Q 2344 -856 2625 -561 
Q 2906 -266 2906 331 
L 2906 616 
Q 2728 306 2450 153 
Q 2172 0 1784 0 
Q 1141 0 747 490 
Q 353 981 353 1791 
Q 353 2603 747 3093 
Q 1141 3584 1784 3584 
Q 2172 3584 2450 3431 
Q 2728 3278 2906 2969 
L 2906 3500 
L 3481 3500 
L 3481 434 
z
" transform="scale(0.015625)"/>
       <path id="DejaVuSans-69" d="M 603 3500 
L 1178 3500 
L 1178 0 
L 603 0 
L 603 3500 
z
M 603 4863 
L 1178 4863 
L 1178 4134 
L 603 4134 
L 603 4863 
z
" transform="scale(0.015625)"/>
       <path id="DejaVuSans-74" d="M 1172 4494 
L 1172 3500 
L 2356 3500 
L 2356 3053 
L 1172 3053 
L 1172 1153 
Q 1172 725 1289 603 
Q 1406 481 1766 481 
L 2356 481 
L 2356 0 
L 1766 0 
Q 1100 0 847 248 
Q 594 497 594 1153 
L 594 3053 
L 172 3053 
L 172 3500 
L 594 3500 
L 594 4494 
L 1172 4494 
z
" transform="scale(0.015625)"/>
       <path id="DejaVuSans-75" d="M 544 1381 
L 544 3500 
L 1119 3500 
L 1119 1403 
Q 1119 906 1312 657 
Q 1506 409 1894 409 
Q 2359 409 2629 706 
Q 2900 1003 2900 1516 
L 2900 3500 
L 3475 3500 
L 3475 0 
L 2900 0 
L 2900 538 
Q 2691 219 2414 64 
Q 2138 -91 1772 -91 
Q 1169 -91 856 284 
Q 544 659 544 1381 
z
M 1991 3584 
L 1991 3584 
z
" transform="scale(0.015625)"/>
       <path id="DejaVuSans-64" d="M 2906 2969 
L 2906 4863 
L 3481 4863 
L 3481 0 
L 2906 0 
L 2906 525 
Q 2725 213 2448 61 
Q 2172 -91 1784 -91 
Q 1150 -91 751 415 
Q 353 922 353 1747 
Q 353 2572 751 3078 
Q 1150 3584 1784 3584 
Q 2172 3584 2448 3432 
Q 2725 3281 2906 2969 
z
M 947 1747 
Q 947 1113 1208 752 
Q 1469 391 1925 391 
Q 2381 391 2643 752 
Q 2906 1113 2906 1747 
Q 2906 2381 2643 2742 
Q 2381 3103 1925 3103 
Q 1469 3103 1208 2742 
Q 947 2381 947 1747 
z
" transform="scale(0.015625)"/>
       <path id="DejaVuSans-65" d="M 3597 1894 
L 3597 1613 
L 953 1613 
Q 991 1019 1311 708 
Q 1631 397 2203 397 
Q 2534 397 2845 478 
Q 3156 559 3463 722 
L 3463 178 
Q 3153 47 2828 -22 
Q 2503 -91 2169 -91 
Q 1331 -91 842 396 
Q 353 884 353 1716 
Q 353 2575 817 3079 
Q 1281 3584 2069 3584 
Q 2775 3584 3186 3129 
Q 3597 2675 3597 1894 
z
M 3022 2063 
Q 3016 2534 2758 2815 
Q 2500 3097 2075 3097 
Q 1594 3097 1305 2825 
Q 1016 2553 972 2059 
L 3022 2063 
z
" transform="scale(0.015625)"/>
       <path id="DejaVuSans-20" transform="scale(0.015625)"/>
       <path id="DejaVuSans-28" d="M 1984 4856 
Q 1566 4138 1362 3434 
Q 1159 2731 1159 2009 
Q 1159 1288 1364 580 
Q 1569 -128 1984 -844 
L 1484 -844 
Q 1016 -109 783 600 
Q 550 1309 550 2009 
Q 550 2706 781 3412 
Q 1013 4119 1484 4856 
L 1984 4856 
z
" transform="scale(0.015625)"/>
       <path id="DejaVuSans-b0" d="M 1600 4347 
Q 1350 4347 1178 4173 
Q 1006 4000 1006 3750 
Q 1006 3503 1178 3333 
Q 1350 3163 1600 3163 
Q 1850 3163 2022 3333 
Q 2194 3503 2194 3750 
Q 2194 3997 2020 4172 
Q 1847 4347 1600 4347 
z
M 1600 4750 
Q 1800 4750 1984 4673 
Q 2169 4597 2303 4453 
Q 2447 4313 2519 4134 
Q 2591 3956 2591 3750 
Q 2591 3338 2302 3052 
Q 2013 2766 1594 2766 
Q 1172 2766 890 3047 
Q 609 3328 609 3750 
Q 609 4169 896 4459 
Q 1184 4750 1600 4750 
z
" transform="scale(0.015625)"/>
       <path id="DejaVuSans-29" d="M 513 4856 
L 1013 4856 
Q 1481 4119 1714 3412 
Q 1947 2706 1947 2009 
Q 1947 1309 1714 600 
Q 1481 -109 1013 -844 
L 513 -844 
Q 928 -128 1133 580 
Q 1338 1288 1338 2009 
Q 1338 2731 1133 3434 
Q 928 4138 513 4856 
z
" transform="scale(0.015625)"/>
      </defs>
      <use xlink:href="#DejaVuSans-4c"/>
      <use xlink:href="#DejaVuSans-6f" transform="translate(53.962891 0)"/>
      <use xlink:href="#DejaVuSans-6e" transform="translate(115.144531 0)"/>
      <use xlink:href="#DejaVuSans-67" transform="translate(178.523438 0)"/>
      <use xlink:href="#DejaVuSans-69" transform="translate(242 0)"/>
      <use xlink:href="#DejaVuSans-74" transform="translate(269.783203 0)"/>
      <use xlink:href="#DejaVuSans-75" transform="translate(308.992188 0)"/>
      <use xlink:href="#DejaVuSans-64" transform="translate(372.371094 0)"/>
      <use xlink:href="#DejaVuSans-65" transform="translate(435.847656 0)"/>
      <use xlink:href="#DejaVuSans-20" transform="translate(497.371094 0)"/>
      <use xlink:href="#DejaVuSans-28" transform="translate(529.158203 0)"/>
      <use xlink:href="#DejaVuSans-b0" transform="translate(568.171875 0)"/>
      <use xlink:href="#DejaVuSans-29" transform="translate(618.171875 0)"/>
     </g>
    </g>
   </g>
   <g id="matplotlib.axis_2">
    <g id="ytick_1">
     <g id="line2d_9">
      <path d="M 90 669.17531 
L 648 669.17531 
" clip-path="url(#p659075c814)" style="fill: none; stroke: #b0b0b0; stroke-width: 0.8; stroke-linecap: square"/>
     </g>
     <g id="line2d_10">
      <defs>
       <path id="m4f429c177a" d="M 0 0 
L -3.5 0 
" style="stroke: #000000; stroke-width: 0.8"/>
      </defs>
      <g>
       <use xlink:href="#m4f429c177a" x="90" y="669.17531" style="stroke: #000000; stroke-width: 0.8"/>
      </g>
     </g>
     <g id="text_6">
      <!-- −10.57 -->
      <g transform="translate(45.992188 672.974529) scale(0.1 -0.1)">
       <defs>
        <path id="DejaVuSans-31" d="M 794 531 
L 1825 531 
L 1825 4091 
L 703 3866 
L 703 4441 
L 1819 4666 
L 2450 4666 
L 2450 531 
L 3481 531 
L 3481 0 
L 794 0 
L 794 531 
z
" transform="scale(0.015625)"/>
        <path id="DejaVuSans-30" d="M 2034 4250 
Q 1547 4250 1301 3770 
Q 1056 3291 1056 2328 
Q 1056 1369 1301 889 
Q 1547 409 2034 409 
Q 2525 409 2770 889 
Q 3016 1369 3016 2328 
Q 3016 3291 2770 3770 
Q 2525 4250 2034 4250 
z
M 2034 4750 
Q 2819 4750 3233 4129 
Q 3647 3509 3647 2328 
Q 3647 1150 3233 529 
Q 2819 -91 2034 -91 
Q 1250 -91 836 529 
Q 422 1150 422 2328 
Q 422 3509 836 4129 
Q 1250 4750 2034 4750 
z
" transform="scale(0.015625)"/>
        <path id="DejaVuSans-35" d="M 691 4666 
L 3169 4666 
L 3169 4134 
L 1269 4134 
L 1269 2991 
Q 1406 3038 1543 3061 
Q 1681 3084 1819 3084 
Q 2600 3084 3056 2656 
Q 3513 2228 3513 1497 
Q 3513 744 3044 326 
Q 2575 -91 1722 -91 
Q 1428 -91 1123 -41 
Q 819 9 494 109 
L 494 744 
Q 775 591 1075 516 
Q 1375 441 1709 441 
Q 2250 441 2565 725 
Q 2881 1009 2881 1497 
Q 2881 1984 2565 2268 
Q 2250 2553 1709 2553 
Q 1456 2553 1204 2497 
Q 953 2441 691 2322 
L 691 4666 
z
" transform="scale(0.015625)"/>
        <path id="DejaVuSans-37" d="M 525 4666 
L 3525 4666 
L 3525 4397 
L 1831 0 
L 1172 0 
L 2766 4134 
L 525 4134 
L 525 4666 
z
" transform="scale(0.015625)"/>
       </defs>
       <use xlink:href="#DejaVuSans-2212"/>
       <use xlink:href="#DejaVuSans-31" transform="translate(83.789062 0)"/>
       <use xlink:href="#DejaVuSans-30" transform="translate(147.412109 0)"/>
       <use xlink:href="#DejaVuSans-2e" transform="translate(211.035156 0)"/>
       <use xlink:href="#DejaVuSans-35" transform="translate(242.822266 0)"/>
       <use xlink:href="#DejaVuSans-37" transform="translate(306.445312 0)"/>
      </g>
     </g>
    </g>
    <g id="ytick_2">
     <g id="line2d_11">
      <path d="M 90 606.6867 
L 648 606.6867 
" clip-path="url(#p659075c814)" style="fill: none; stroke: #b0b0b0; stroke-width: 0.8; stroke-linecap: square"/>
     </g>
     <g id="line2d_12">
      <g>
       <use xlink:href="#m4f429c177a" x="90" y="606.6867" style="stroke: #000000; stroke-width: 0.8"/>
      </g>
     </g>
     <g id="text_7">
      <!-- −10.56 -->
      <g transform="translate(45.992188 610.485919) scale(0.1 -0.1)">
       <use xlink:href="#DejaVuSans-2212"/>
       <use xlink:href="#DejaVuSans-31" transform="translate(83.789062 0)"/>
       <use xlink:href="#DejaVuSans-30" transform="translate(147.412109 0)"/>
       <use xlink:href="#DejaVuSans-2e" transform="translate(211.035156 0)"/>
       <use xlink:href="#DejaVuSans-35" transform="translate(242.822266 0)"/>
       <use xlink:href="#DejaVuSans-36" transform="translate(306.445312 0)"/>
      </g>
     </g>
    </g>
    <g id="ytick_3">
     <g id="line2d_13">
      <path d="M 90 544.198091 
L 648 544.198091 
" clip-path="url(#p659075c814)" style="fill: none; stroke: #b0b0b0; stroke-width: 0.8; stroke-linecap: square"/>
     </g>
     <g id="line2d_14">
      <g>
       <use xlink:href="#m4f429c177a" x="90" y="544.198091" style="stroke: #000000; stroke-width: 0.8"/>
      </g>
     </g>
     <g id="text_8">
      <!-- −10.55 -->
      <g transform="translate(45.992188 547.997309) scale(0.1 -0.1)">
       <use xlink:href="#DejaVuSans-2212"/>
       <use xlink:href="#DejaVuSans-31" transform="translate(83.789062 0)"/>
       <use xlink:href="#DejaVuSans-30" transform="translate(147.412109 0)"/>
       <use xlink:href="#DejaVuSans-2e" transform="translate(211.035156 0)"/>
       <use xlink:href="#DejaVuSans-35" transform="translate(242.822266 0)"/>
       <use xlink:href="#DejaVuSans-35" transform="translate(306.445312 0)"/>
      </g>
     </g>
    </g>
    <g id="ytick_4">
     <g id="line2d_15">
      <path d="M 90 481.709481 
L 648 481.709481 
" clip-path="url(#p659075c814)" style="fill: none; stroke: #b0b0b0; stroke-width: 0.8; stroke-linecap: square"/>
     </g>
     <g id="line2d_16">
      <g>
       <use xlink:href="#m4f429c177a" x="90" y="481.709481" style="stroke: #000000; stroke-width: 0.8"/>
      </g>
     </g>
     <g id="text_9">
      <!-- −10.54 -->
      <g transform="translate(45.992188 485.508699) scale(0.1 -0.1)">
       <use xlink:href="#DejaVuSans-2212"/>
       <use xlink:href="#DejaVuSans-31" transform="translate(83.789062 0)"/>
       <use xlink:href="#DejaVuSans-30" transform="translate(147.412109 0)"/>
       <use xlink:href="#DejaVuSans-2e" transform="translate(211.035156 0)"/>
       <use xlink:href="#DejaVuSans-35" transform="translate(242.822266 0)"/>
       <use xlink:href="#DejaVuSans-34" transform="translate(306.445312 0)"/>
      </g>
     </g>
    </g>
    <g id="ytick_5">
     <g id="line2d_17">
      <path d="M 90 419.220871 
L 648 419.220871 
" clip-path="url(#p659075c814)" style="fill: none; stroke: #b0b0b0; stroke-width: 0.8; stroke-linecap: square"/>
     </g>
     <g id="line2d_18">
      <g>
       <use xlink:href="#m4f429c177a" x="90" y="419.220871" style="stroke: #000000; stroke-width: 0.8"/>
      </g>
     </g>
     <g id="text_10">
      <!-- −10.53 -->
      <g transform="translate(45.992188 423.020089) scale(0.1 -0.1)">
       <defs>
        <path id="DejaVuSans-33" d="M 2597 2516 
Q 3050 2419 3304 2112 
Q 3559 1806 3559 1356 
Q 3559 666 3084 287 
Q 2609 -91 1734 -91 
Q 1441 -91 1130 -33 
Q 819 25 488 141 
L 488 750 
Q 750 597 1062 519 
Q 1375 441 1716 441 
Q 2309 441 2620 675 
Q 2931 909 2931 1356 
Q 2931 1769 2642 2001 
Q 2353 2234 1838 2234 
L 1294 2234 
L 1294 2753 
L 1863 2753 
Q 2328 2753 2575 2939 
Q 2822 3125 2822 3475 
Q 2822 3834 2567 4026 
Q 2313 4219 1838 4219 
Q 1578 4219 1281 4162 
Q 984 4106 628 3988 
L 628 4550 
Q 988 4650 1302 4700 
Q 1616 4750 1894 4750 
Q 2613 4750 3031 4423 
Q 3450 4097 3450 3541 
Q 3450 3153 3228 2886 
Q 3006 2619 2597 2516 
z
" transform="scale(0.015625)"/>
       </defs>
       <use xlink:href="#DejaVuSans-2212"/>
       <use xlink:href="#DejaVuSans-31" transform="translate(83.789062 0)"/>
       <use xlink:href="#DejaVuSans-30" transform="translate(147.412109 0)"/>
       <use xlink:href="#DejaVuSans-2e" transform="translate(211.035156 0)"/>
       <use xlink:href="#DejaVuSans-35" transform="translate(242.822266 0)"/>
       <use xlink:href="#DejaVuSans-33" transform="translate(306.445312 0)"/>
      </g>
     </g>
    </g>
    <g id="ytick_6">
     <g id="line2d_19">
      <path d="M 90 356.732261 
L 648 356.732261 
" clip-path="url(#p659075c814)" style="fill: none; stroke: #b0b0b0; stroke-width: 0.8; stroke-linecap: square"/>
     </g>
     <g id="line2d_20">
      <g>
       <use xlink:href="#m4f429c177a" x="90" y="356.732261" style="stroke: #000000; stroke-width: 0.8"/>
      </g>
     </g>
     <g id="text_11">
      <!-- −10.52 -->
      <g transform="translate(45.992188 360.53148) scale(0.1 -0.1)">
       <use xlink:href="#DejaVuSans-2212"/>
       <use xlink:href="#DejaVuSans-31" transform="translate(83.789062 0)"/>
       <use xlink:href="#DejaVuSans-30" transform="translate(147.412109 0)"/>
       <use xlink:href="#DejaVuSans-2e" transform="translate(211.035156 0)"/>
       <use xlink:href="#DejaVuSans-35" transform="translate(242.822266 0)"/>
       <use xlink:href="#DejaVuSans-32" transform="translate(306.445312 0)"/>
      </g>
     </g>
    </g>
    <g id="ytick_7">
     <g id="line2d_21">
      <path d="M 90 294.243651 
L 648 294.243651 
" clip-path="url(#p659075c814)" style="fill: none; stroke: #b0b0b0; stroke-width: 0.8; stroke-linecap: square"/>
     </g>
     <g id="line2d_22">
      <g>
       <use xlink:href="#m4f429c177a" x="90" y="294.243651" style="stroke: #000000; stroke-width: 0.8"/>
      </g>
     </g>
     <g id="text_12">
      <!-- −10.51 -->
      <g transform="translate(45.992188 298.04287) scale(0.1 -0.1)">
       <use xlink:href="#DejaVuSans-2212"/>
       <use xlink:href="#DejaVuSans-31" transform="translate(83.789062 0)"/>
       <use xlink:href="#DejaVuSans-30" transform="translate(147.412109 0)"/>
       <use xlink:href="#DejaVuSans-2e" transform="translate(211.035156 0)"/>
       <use xlink:href="#DejaVuSans-35" transform="translate(242.822266 0)"/>
       <use xlink:href="#DejaVuSans-31" transform="translate(306.445312 0)"/>
      </g>
     </g>
    </g>
    <g id="ytick_8">
     <g id="line2d_23">
      <path d="M 90 231.755041 
L 648 231.755041 
" clip-path="url(#p659075c814)" style="fill: none; stroke: #b0b0b0; stroke-width: 0.8; stroke-linecap: square"/>
     </g>
     <g id="line2d_24">
      <g>
       <use xlink:href="#m4f429c177a" x="90" y="231.755041" style="stroke: #000000; stroke-width: 0.8"/>
      </g>
     </g>
     <g id="text_13">
      <!-- −10.50 -->
      <g transform="translate(45.992188 235.55426) scale(0.1 -0.1)">
       <use xlink:href="#DejaVuSans-2212"/>
       <use xlink:href="#DejaVuSans-31" transform="translate(83.789062 0)"/>
       <use xlink:href="#DejaVuSans-30" transform="translate(147.412109 0)"/>
       <use xlink:href="#DejaVuSans-2e" transform="translate(211.035156 0)"/>
       <use xlink:href="#DejaVuSans-35" transform="translate(242.822266 0)"/>
       <use xlink:href="#DejaVuSans-30" transform="translate(306.445312 0)"/>
      </g>
     </g>
    </g>
    <g id="ytick_9">
     <g id="line2d_25">
      <path d="M 90 169.266431 
L 648 169.266431 
" clip-path="url(#p659075c814)" style="fill: none; stroke: #b0b0b0; stroke-width: 0.8; stroke-linecap: square"/>
     </g>
     <g id="line2d_26">
      <g>
       <use xlink:href="#m4f429c177a" x="90" y="169.266431" style="stroke: #000000; stroke-width: 0.8"/>
      </g>
     </g>
     <g id="text_14">
      <!-- −10.49 -->
      <g transform="translate(45.992188 173.06565) scale(0.1 -0.1)">
       <use xlink:href="#DejaVuSans-2212"/>
       <use xlink:href="#DejaVuSans-31" transform="translate(83.789062 0)"/>
       <use xlink:href="#DejaVuSans-30" transform="translate(147.412109 0)"/>
       <use xlink:href="#DejaVuSans-2e" transform="translate(211.035156 0)"/>
       <use xlink:href="#DejaVuSans-34" transform="translate(242.822266 0)"/>
       <use xlink:href="#DejaVuSans-39" transform="translate(306.445312 0)"/>
      </g>
     </g>
    </g>
    <g id="text_15">
     <!-- Latitude (°) -->
     <g transform="translate(39.9125 464.889531) rotate(-90) scale(0.1 -0.1)">
      <defs>
       <path id="DejaVuSans-61" d="M 2194 1759 
Q 1497 1759 1228 1600 
Q 959 1441 959 1056 
Q 959 750 1161 570 
Q 1363 391 1709 391 
Q 2188 391 2477 730 
Q 2766 1069 2766 1631 
L 2766 1759 
L 2194 1759 
z
M 3341 1997 
L 3341 0 
L 2766 0 
L 2766 531 
Q 2569 213 2275 61 
Q 1981 -91 1556 -91 
Q 1019 -91 701 211 
Q 384 513 384 1019 
Q 384 1609 779 1909 
Q 1175 2209 1959 2209 
L 2766 2209 
L 2766 2266 
Q 2766 2663 2505 2880 
Q 2244 3097 1772 3097 
Q 1472 3097 1187 3025 
Q 903 2953 641 2809 
L 641 3341 
Q 956 3463 1253 3523 
Q 1550 3584 1831 3584 
Q 2591 3584 2966 3190 
Q 3341 2797 3341 1997 
z
" transform="scale(0.015625)"/>
      </defs>
      <use xlink:href="#DejaVuSans-4c"/>
      <use xlink:href="#DejaVuSans-61" transform="translate(55.712891 0)"/>
      <use xlink:href="#DejaVuSans-74" transform="translate(116.992188 0)"/>
      <use xlink:href="#DejaVuSans-69" transform="translate(156.201172 0)"/>
      <use xlink:href="#DejaVuSans-74" transform="translate(183.984375 0)"/>
      <use xlink:href="#DejaVuSans-75" transform="translate(223.193359 0)"/>
      <use xlink:href="#DejaVuSans-64" transform="translate(286.572266 0)"/>
      <use xlink:href="#DejaVuSans-65" transform="translate(350.048828 0)"/>
      <use xlink:href="#DejaVuSans-20" transform="translate(411.572266 0)"/>
      <use xlink:href="#DejaVuSans-28" transform="translate(443.359375 0)"/>
      <use xlink:href="#DejaVuSans-b0" transform="translate(482.373047 0)"/>
      <use xlink:href="#DejaVuSans-29" transform="translate(532.373047 0)"/>
     </g>
    </g>
   </g>
   <g id="patch_3">
    <path d="M 90 712.879328 
L 90 159.760672 
" style="fill: none; stroke: #000000; stroke-width: 0.8; stroke-linejoin: miter; stroke-linecap: square"/>
   </g>
   <g id="patch_4">
    <path d="M 648 712.879328 
L 648 159.760672 
" style="fill: none; stroke: #000000; stroke-width: 0.8; stroke-linejoin: miter; stroke-linecap: square"/>
   </g>
   <g id="patch_5">
    <path d="M 90 712.879328 
L 648 712.879328 
" style="fill: none; stroke: #000000; stroke-width: 0.8; stroke-linejoin: miter; stroke-linecap: square"/>
   </g>
   <g id="patch_6">
    <path d="M 90 159.760672 
L 648 159.760672 
" style="fill: none; stroke: #000000; stroke-width: 0.8; stroke-linejoin: miter; stroke-linecap: square"/>
   </g>
   <g id="legend_1">
    <g id="patch_7">
     <path d="M 279.8375 862.794934 
L 458.1625 862.794934 
Q 460.1625 862.794934 460.1625 860.794934 
L 460.1625 830.503059 
Q 460.1625 828.503059 458.1625 828.503059 
L 279.8375 828.503059 
Q 277.8375 828.503059 277.8375 830.503059 
L 277.8375 860.794934 
Q 277.8375 862.794934 279.8375 862.794934 
z
" style="fill: #ffffff; opacity: 0.8; stroke: #cccccc; stroke-linejoin: miter"/>
    </g>
    <g id="text_16">
     <!-- Legenda -->
     <g transform="translate(343.280625 841.621184) scale(0.12 -0.12)">
      <use xlink:href="#DejaVuSans-4c"/>
      <use xlink:href="#DejaVuSans-65" transform="translate(53.962891 0)"/>
      <use xlink:href="#DejaVuSans-67" transform="translate(115.486328 0)"/>
      <use xlink:href="#DejaVuSans-65" transform="translate(178.962891 0)"/>
      <use xlink:href="#DejaVuSans-6e" transform="translate(240.486328 0)"/>
      <use xlink:href="#DejaVuSans-64" transform="translate(303.865234 0)"/>
      <use xlink:href="#DejaVuSans-61" transform="translate(367.341797 0)"/>
     </g>
    </g>
    <g id="patch_8">
     <path d="M 281.8375 856.715246 
L 301.8375 856.715246 
L 301.8375 849.715246 
L 281.8375 849.715246 
L 281.8375 856.715246 
z
" style="fill: none; stroke: #000000; stroke-linejoin: miter"/>
    </g>
    <g id="text_17">
     <!-- Gleba Federal -->
     <g transform="translate(309.8375 856.715246) scale(0.1 -0.1)">
      <defs>
       <path id="DejaVuSans-47" d="M 3809 666 
L 3809 1919 
L 2778 1919 
L 2778 2438 
L 4434 2438 
L 4434 434 
Q 4069 175 3628 42 
Q 3188 -91 2688 -91 
Q 1594 -91 976 548 
Q 359 1188 359 2328 
Q 359 3472 976 4111 
Q 1594 4750 2688 4750 
Q 3144 4750 3555 4637 
Q 3966 4525 4313 4306 
L 4313 3634 
Q 3963 3931 3569 4081 
Q 3175 4231 2741 4231 
Q 1884 4231 1454 3753 
Q 1025 3275 1025 2328 
Q 1025 1384 1454 906 
Q 1884 428 2741 428 
Q 3075 428 3337 486 
Q 3600 544 3809 666 
z
" transform="scale(0.015625)"/>
       <path id="DejaVuSans-6c" d="M 603 4863 
L 1178 4863 
L 1178 0 
L 603 0 
L 603 4863 
z
" transform="scale(0.015625)"/>
       <path id="DejaVuSans-62" d="M 3116 1747 
Q 3116 2381 2855 2742 
Q 2594 3103 2138 3103 
Q 1681 3103 1420 2742 
Q 1159 2381 1159 1747 
Q 1159 1113 1420 752 
Q 1681 391 2138 391 
Q 2594 391 2855 752 
Q 3116 1113 3116 1747 
z
M 1159 2969 
Q 1341 3281 1617 3432 
Q 1894 3584 2278 3584 
Q 2916 3584 3314 3078 
Q 3713 2572 3713 1747 
Q 3713 922 3314 415 
Q 2916 -91 2278 -91 
Q 1894 -91 1617 61 
Q 1341 213 1159 525 
L 1159 0 
L 581 0 
L 581 4863 
L 1159 4863 
L 1159 2969 
z
" transform="scale(0.015625)"/>
       <path id="DejaVuSans-46" d="M 628 4666 
L 3309 4666 
L 3309 4134 
L 1259 4134 
L 1259 2759 
L 3109 2759 
L 3109 2228 
L 1259 2228 
L 1259 0 
L 628 0 
L 628 4666 
z
" transform="scale(0.015625)"/>
       <path id="DejaVuSans-72" d="M 2631 2963 
Q 2534 3019 2420 3045 
Q 2306 3072 2169 3072 
Q 1681 3072 1420 2755 
Q 1159 2438 1159 1844 
L 1159 0 
L 581 0 
L 581 3500 
L 1159 3500 
L 1159 2956 
Q 1341 3275 1631 3429 
Q 1922 3584 2338 3584 
Q 2397 3584 2469 3576 
Q 2541 3569 2628 3553 
L 2631 2963 
z
" transform="scale(0.015625)"/>
      </defs>
      <use xlink:href="#DejaVuSans-47"/>
      <use xlink:href="#DejaVuSans-6c" transform="translate(77.490234 0)"/>
      <use xlink:href="#DejaVuSans-65" transform="translate(105.273438 0)"/>
      <use xlink:href="#DejaVuSans-62" transform="translate(166.796875 0)"/>
      <use xlink:href="#DejaVuSans-61" transform="translate(230.273438 0)"/>
      <use xlink:href="#DejaVuSans-20" transform="translate(291.552734 0)"/>
      <use xlink:href="#DejaVuSans-46" transform="translate(323.339844 0)"/>
      <use xlink:href="#DejaVuSans-65" transform="translate(375.359375 0)"/>
      <use xlink:href="#DejaVuSans-64" transform="translate(436.882812 0)"/>
      <use xlink:href="#DejaVuSans-65" transform="translate(500.359375 0)"/>
      <use xlink:href="#DejaVuSans-72" transform="translate(561.882812 0)"/>
      <use xlink:href="#DejaVuSans-61" transform="translate(602.996094 0)"/>
      <use xlink:href="#DejaVuSans-6c" transform="translate(664.275391 0)"/>
     </g>
    </g>
    <g id="patch_9">
     <path d="M 399.045312 856.715246 
L 419.045312 856.715246 
L 419.045312 849.715246 
L 399.045312 849.715246 
z
" style="fill: #e0bd1f; opacity: 0.6"/>
    </g>
    <g id="text_18">
     <!-- SIGEF -->
     <g transform="translate(427.045312 856.715246) scale(0.1 -0.1)">
      <defs>
       <path id="DejaVuSans-53" d="M 3425 4513 
L 3425 3897 
Q 3066 4069 2747 4153 
Q 2428 4238 2131 4238 
Q 1616 4238 1336 4038 
Q 1056 3838 1056 3469 
Q 1056 3159 1242 3001 
Q 1428 2844 1947 2747 
L 2328 2669 
Q 3034 2534 3370 2195 
Q 3706 1856 3706 1288 
Q 3706 609 3251 259 
Q 2797 -91 1919 -91 
Q 1588 -91 1214 -16 
Q 841 59 441 206 
L 441 856 
Q 825 641 1194 531 
Q 1563 422 1919 422 
Q 2459 422 2753 634 
Q 3047 847 3047 1241 
Q 3047 1584 2836 1778 
Q 2625 1972 2144 2069 
L 1759 2144 
Q 1053 2284 737 2584 
Q 422 2884 422 3419 
Q 422 4038 858 4394 
Q 1294 4750 2059 4750 
Q 2388 4750 2728 4690 
Q 3069 4631 3425 4513 
z
" transform="scale(0.015625)"/>
       <path id="DejaVuSans-49" d="M 628 4666 
L 1259 4666 
L 1259 0 
L 628 0 
L 628 4666 
z
" transform="scale(0.015625)"/>
       <path id="DejaVuSans-45" d="M 628 4666 
L 3578 4666 
L 3578 4134 
L 1259 4134 
L 1259 2753 
L 3481 2753 
L 3481 2222 
L 1259 2222 
L 1259 531 
L 3634 531 
L 3634 0 
L 628 0 
L 628 4666 
z
" transform="scale(0.015625)"/>
      </defs>
      <use xlink:href="#DejaVuSans-53"/>
      <use xlink:href="#DejaVuSans-49" transform="translate(63.476562 0)"/>
      <use xlink:href="#DejaVuSans-47" transform="translate(92.96875 0)"/>
      <use xlink:href="#DejaVuSans-45" transform="translate(170.458984 0)"/>
      <use xlink:href="#DejaVuSans-46" transform="translate(233.642578 0)"/>
     </g>
    </g>
   </g>
  </g>
 </g>
 <defs>
  <clipPath id="p659075c814">
   <rect x="90" y="159.760672" width="558" height="553.118655"/>
  </clipPath>
 </defs>
</svg>
