<?xml version="1.0" encoding="utf-8" standalone="no"?>
<!DOCTYPE svg PUBLIC "-//W3C//DTD SVG 1.1//EN"
  "http://www.w3.org/Graphics/SVG/1.1/DTD/svg11.dtd">
<svg xmlns:xlink="http://www.w3.org/1999/xlink" width="720pt" height="864pt" viewBox="0 0 720 864" xmlns="http://www.w3.org/2000/svg" version="1.1">
 <metadata>
  <rdf:RDF xmlns:dc="http://purl.org/dc/elements/1.1/" xmlns:cc="http://creativecommons.org/ns#" xmlns:rdf="http://www.w3.org/1999/02/22-rdf-syntax-ns#">
   <cc:Work>
    <dc:type rdf:resource="http://purl.org/dc/dcmitype/StillImage"/>
    <dc:date>2025-06-16T17:34:40.044744</dc:date>
    <dc:format>image/svg+xml</dc:format>
    <dc:creator>
     <cc:Agent>
      <dc:title>Matplotlib v3.10.1, https://matplotlib.org/</dc:title>
     </cc:Agent>
    </dc:creator>
   </cc:Work>
  </rdf:RDF>
 </metadata>
 <defs>
  <style type="text/css">*{stroke-linejoin: round; stroke-linecap: butt}</style>
 </defs>
 <g id="figure_1">
  <g id="patch_1">
   <path d="M 0 864 
L 720 864 
L 720 0 
L 0 0 
z
" style="fill: #ffffff"/>
  </g>
  <g id="axes_1">
   <g id="patch_2">
    <path d="M 90 691.819094 
L 648 691.819094 
L 648 180.820906 
L 90 180.820906 
z
" style="fill: #ffffff"/>
   </g>
   <g id="PatchCollection_1">
    <defs>
     <path id="m6007da11f5" d="M 581.542905 -423.50972 
L 591.134762 -348.357692 
L 622.636364 -350.859559 
L 617.108679 -322.761604 
L 619.639374 -321.507127 
L 584.617071 -195.408096 
L 494.663969 -196.805497 
L 318.494357 -199.158619 
L 315.535292 -202.83304 
L 307.929774 -209.658519 
L 302.291427 -209.456954 
L 296.516292 -215.107188 
L 293.358511 -218.251931 
L 289.104828 -223.051556 
L 289.663907 -230.75035 
L 292.407438 -233.520643 
L 289.843938 -237.155574 
L 294.35588 -239.394896 
L 293.951088 -242.876419 
L 291.976365 -248.708135 
L 282.22091 -248.097497 
L 279.483719 -248.501488 
L 275.191376 -245.597592 
L 270.805506 -246.264199 
L 269.288987 -245.070637 
L 267.709795 -247.577681 
L 264.335549 -246.5067 
L 264.790033 -247.819288 
L 267.139123 -248.279489 
L 266.779248 -250.217718 
L 261.080611 -252.246715 
L 257.407081 -253.99375 
L 257.713593 -256.474728 
L 255.87637 -258.302329 
L 256.638896 -259.504545 
L 255.142724 -261.720453 
L 252.375925 -261.062849 
L 248.876374 -260.093223 
L 248.541666 -260.696604 
L 250.41909 -262.190188 
L 248.28292 -264.737622 
L 244.709909 -262.034389 
L 244.542778 -263.323308 
L 248.258029 -266.689387 
L 245.193704 -266.513437 
L 244.301333 -269.751633 
L 244.483496 -271.884514 
L 240.781019 -269.609599 
L 239.57389 -270.274411 
L 239.479175 -272.814821 
L 237.897987 -274.202979 
L 234.453299 -276.75575 
L 233.86459 -278.712934 
L 228.690551 -278.145055 
L 229.763274 -280.344326 
L 226.005619 -280.75593 
L 227.597298 -282.525716 
L 224.14884 -283.806672 
L 227.233719 -284.87271 
L 224.205172 -287.23271 
L 225.33117 -289.555153 
L 223.890648 -289.308228 
L 223.301493 -290.756335 
L 226.427477 -291.188918 
L 225.375313 -293.623655 
L 223.515279 -292.672875 
L 224.519731 -294.980881 
L 226.095218 -293.952825 
L 227.183894 -295.760657 
L 225.518627 -298.583652 
L 224.555989 -297.726695 
L 221.600444 -303.595926 
L 226.437226 -302.763074 
L 228.328638 -304.558095 
L 230.294607 -304.900567 
L 231.749287 -302.927419 
L 233.466537 -300.956309 
L 235.171524 -301.032499 
L 236.402418 -303.285759 
L 238.319733 -303.760077 
L 239.68809 -303.077235 
L 240.346836 -303.499282 
L 241.137205 -303.49922 
L 242.38444 -302.732124 
L 243.218898 -302.335937 
L 243.821966 -303.109408 
L 243.403339 -303.943401 
L 243.481824 -304.840956 
L 245.123359 -303.488959 
L 247.078526 -303.288719 
L 247.946507 -303.599353 
L 249.614568 -305.218483 
L 249.7536 -307.660439 
L 249.934129 -309.77254 
L 248.791079 -311.325538 
L 249.444568 -312.40335 
L 250.306725 -313.830213 
L 250.925843 -312.951922 
L 251.62617 -312.150576 
L 254.338274 -312.543126 
L 255.285444 -313.046475 
L 256.905458 -310.451709 
L 257.865255 -310.314809 
L 259.13446 -311.226675 
L 259.539208 -313.289761 
L 260.611648 -314.794799 
L 261.224679 -316.978025 
L 261.225537 -319.101847 
L 261.657077 -321.089971 
L 260.627312 -322.131034 
L 261.827689 -323.388938 
L 261.190826 -324.955611 
L 262.037281 -325.19232 
L 265.523641 -324.898005 
L 267.149647 -325.252146 
L 267.027931 -326.363249 
L 266.493941 -327.03126 
L 266.758011 -327.951596 
L 267.274715 -327.895083 
L 271.108711 -329.299825 
L 271.563182 -329.07766 
L 272.002545 -327.716604 
L 271.91589 -326.646657 
L 273.647528 -325.716376 
L 274.739139 -326.001427 
L 275.869276 -328.203712 
L 276.344755 -328.796114 
L 278.752683 -331.572711 
L 280.315291 -331.077129 
L 280.653283 -327.590763 
L 282.353224 -328.571996 
L 282.05393 -330.442538 
L 283.625966 -330.20465 
L 283.90475 -329.480736 
L 288.69778 -326.565967 
L 291.568892 -325.337299 
L 296.141802 -327.040034 
L 300.621975 -328.464253 
L 300.806775 -327.963375 
L 302.129983 -327.412442 
L 303.700269 -327.974859 
L 304.042308 -328.631412 
L 304.433373 -331.206143 
L 305.285861 -332.260438 
L 305.775264 -331.561237 
L 304.870281 -329.673626 
L 304.515199 -328.049216 
L 305.283373 -327.503734 
L 309.101698 -328.222626 
L 309.747668 -329.519593 
L 310.946902 -329.212285 
L 311.347372 -327.461689 
L 311.718975 -326.85678 
L 313.241746 -325.397192 
L 314.06631 -324.821127 
L 315.149246 -325.159179 
L 315.069221 -326.195844 
L 315.113664 -327.489135 
L 316.133742 -326.82014 
L 316.858285 -326.37471 
L 321.270767 -328.75132 
L 322.122951 -329.199767 
L 321.90186 -329.965121 
L 320.669736 -331.574076 
L 320.451521 -332.299677 
L 321.723937 -331.797944 
L 322.497645 -331.644917 
L 323.297272 -332.580023 
L 322.771931 -334.79341 
L 322.2902 -334.948665 
L 321.247007 -334.283842 
L 319.895612 -336.012708 
L 320.454199 -337.163314 
L 319.610058 -340.909494 
L 319.863943 -341.766136 
L 321.826431 -344.197578 
L 323.576412 -345.318794 
L 323.444035 -346.371931 
L 323.646132 -347.224278 
L 327.461116 -347.105329 
L 330.786661 -348.853097 
L 331.7879 -351.516849 
L 333.086335 -353.02772 
L 332.145319 -354.783837 
L 331.314979 -356.390384 
L 330.816311 -357.823526 
L 329.253178 -359.717689 
L 328.621365 -360.296697 
L 327.617766 -360.2035 
L 324.975995 -359.817462 
L 325.794104 -360.670927 
L 324.834023 -362.096388 
L 323.268761 -362.526952 
L 324.507402 -366.596531 
L 324.003775 -368.780003 
L 324.577087 -372.071734 
L 326.086071 -375.215404 
L 325.236892 -377.181997 
L 326.466777 -377.900545 
L 332.426746 -379.055472 
L 333.329162 -378.743264 
L 332.831086 -376.809529 
L 337.724853 -374.500923 
L 342.344614 -376.336612 
L 344.420943 -376.268464 
L 345.379161 -378.417576 
L 344.401221 -380.47263 
L 343.300134 -382.489811 
L 344.485469 -384.32877 
L 347.168162 -385.054907 
L 347.944511 -388.452612 
L 352.525869 -392.562128 
L 357.058866 -395.445512 
L 359.476551 -390.191514 
L 357.84523 -383.844153 
L 359.974782 -382.308344 
L 361.099558 -382.978986 
L 363.657058 -381.322076 
L 366.852301 -384.482749 
L 369.880516 -384.485438 
L 372.308375 -386.685125 
L 374.439765 -385.932843 
L 379.318078 -387.545726 
L 381.253058 -387.758248 
L 384.47119 -386.345389 
L 385.439296 -383.747652 
L 386.227787 -381.084292 
L 385.953868 -375.798331 
L 387.494656 -373.540851 
L 389.524481 -369.70879 
L 391.129995 -369.37355 
L 394.389705 -372.539087 
L 395.417455 -371.112327 
L 396.830836 -373.924021 
L 399.426309 -376.064237 
L 401.923431 -377.481781 
L 405.518565 -379.490292 
L 406.446425 -377.739894 
L 407.743216 -374.744726 
L 408.99224 -374.259267 
L 413.351443 -377.476248 
L 414.911109 -376.665703 
L 418.911516 -374.633788 
L 420.898962 -374.5948 
L 421.670917 -375.877987 
L 420.299032 -378.511642 
L 417.472644 -382.352433 
L 417.870926 -383.208645 
L 420.393997 -382.020482 
L 425.25768 -381.198091 
L 426.282763 -382.443072 
L 425.898256 -384.152621 
L 424.423016 -386.743653 
L 423.014567 -389.254675 
L 423.626243 -391.404765 
L 427.334817 -392.512095 
L 430.096683 -394.641885 
L 428.86383 -395.35766 
L 427.821137 -400.314207 
L 428.985803 -401.275465 
L 431.321716 -400.102509 
L 432.603832 -399.443603 
L 434.584874 -399.297204 
L 435.929015 -398.547212 
L 442.298892 -398.54197 
L 443.985185 -399.640801 
L 444.003285 -406.238922 
L 445.890349 -407.891371 
L 448.116892 -407.803511 
L 452.165828 -404.718041 
L 455.79435 -406.91598 
L 455.065331 -412.118366 
L 451.456297 -413.271034 
L 452.669269 -414.944945 
L 452.323173 -416.976867 
L 449.426682 -417.059694 
L 451.468322 -421.075939 
L 450.828968 -423.463544 
L 455.760847 -424.679686 
L 456.925213 -426.474378 
L 458.653509 -429.386591 
L 457.369401 -432.386207 
L 460.498561 -431.010065 
L 462.139041 -432.557151 
L 461.670185 -433.195884 
L 459.766779 -433.362182 
L 459.377208 -434.964748 
L 464.331407 -433.385151 
L 465.660133 -434.003204 
L 465.571416 -435.228482 
L 467.212093 -434.588615 
L 467.888588 -434.887996 
L 472.428549 -435.783585 
L 475.861534 -438.781058 
L 477.633141 -440.993584 
L 478.241361 -444.411905 
L 481.750765 -447.400579 
L 480.72053 -450.594856 
L 481.000147 -454.403544 
L 479.016304 -457.099634 
L 477.692877 -459.636762 
L 477.137675 -461.615676 
L 475.82262 -464.579733 
L 477.903354 -467.498998 
L 481.767989 -468.249442 
L 484.900338 -470.787248 
L 486.386822 -472.594111 
L 486.640202 -471.509498 
L 487.743637 -471.629912 
L 488.046351 -473.744504 
L 489.806179 -475.077141 
L 493.250416 -475.862561 
L 493.659925 -475.450603 
L 492.164664 -473.716594 
L 492.713441 -472.071281 
L 493.546436 -472.548841 
L 494.005318 -473.107155 
L 496.644188 -470.269326 
L 496.550409 -469.238239 
L 496.73028 -468.329047 
L 499.081955 -470.730343 
L 502.024717 -469.312903 
L 502.609908 -468.461027 
L 503.709796 -466.726347 
L 502.461191 -464.506008 
L 503.017748 -463.52713 
L 505.299766 -463.470612 
L 507.064251 -464.472316 
L 508.656179 -461.542718 
L 508.019024 -457.270033 
L 507.031599 -455.772932 
L 505.340248 -453.012049 
L 505.240497 -451.524445 
L 503.099964 -451.344983 
L 502.400489 -449.999477 
L 499.825745 -446.384662 
L 500.553336 -445.509809 
L 502.960035 -446.317093 
L 502.778633 -445.399913 
L 501.059492 -445.161648 
L 500.463914 -442.767724 
L 500.613629 -441.694403 
L 502.120523 -442.107224 
L 502.178207 -440.792055 
L 501.924547 -434.980858 
L 501.654644 -430.457249 
L 498.144119 -431.159248 
L 497.900054 -428.147086 
L 503.020643 -425.859853 
L 506.584826 -423.071565 
L 505.085323 -421.310114 
L 509.758171 -419.584867 
L 514.77064 -417.893567 
L 515.03788 -415.345933 
L 515.505998 -414.260017 
L 516.614608 -414.75787 
L 516.840309 -412.682807 
L 518.611796 -411.838777 
L 518.625164 -410.1654 
L 517.498664 -410.50571 
L 516.897577 -408.297346 
L 518.268013 -404.631963 
L 522.449183 -403.47684 
L 523.280727 -404.407355 
L 526.481445 -406.041561 
L 529.864631 -409.128978 
L 528.172265 -411.240401 
L 528.721177 -415.644662 
L 528.396629 -420.437202 
L 530.140411 -422.879387 
L 532.449926 -423.285314 
L 537.857308 -425.478158 
L 537.749128 -428.071848 
L 541.241773 -433.26382 
L 545.334792 -434.075068 
L 549.168399 -433.309351 
L 549.294259 -434.471877 
L 553.645295 -434.023149 
L 557.177201 -435.617489 
L 556.533206 -432.332841 
L 562.707171 -431.453645 
L 562.763321 -429.684213 
L 566.795479 -430.6087 
L 570.446375 -430.708005 
L 571.968926 -428.726811 
L 576.468251 -429.503563 
L 581.542905 -423.50972 
" style="stroke: #0000ff; stroke-width: 0.5"/>
    </defs>
    <g clip-path="url(#p64e99032d6)">
     <use xlink:href="#m6007da11f5" x="0" y="864" style="fill: #e0bd1f; stroke: #0000ff; stroke-width: 0.5"/>
    </g>
   </g>
   <g id="PatchCollection_2">
    <path d="M 200.789256 204.048096 
L 264.152196 258.112937 
L 274.645422 312.58736 
L 314.600397 323.646078 
L 323.075695 335.114377 
L 382.402779 382.625904 
L 405.810744 412.115817 
L 394.913933 417.440385 
L 396.124689 426.451192 
L 395.721104 440.786566 
L 386.842221 446.520716 
L 378.366923 451.845284 
L 376.75258 460.85609 
L 374.734652 471.095644 
L 369.891625 485.021436 
L 361.012742 489.526839 
L 352.94103 495.260989 
L 348.905174 503.043049 
L 342.851389 505.09096 
L 330.743821 508.777199 
L 322.672109 502.633467 
L 316.618325 498.128064 
L 334.779677 452.664448 
L 344.062146 432.594924 
L 247.336129 349.313224 
L 241.416874 344.671294 
L 231.192705 335.933541 
L 224.33175 281.459119 
L 151.282755 293.746582 
L 115.363636 287.193268 
L 200.789256 204.048096 
" clip-path="url(#p64e99032d6)" style="fill: none; stroke: #000000"/>
   </g>
   <g id="matplotlib.axis_1">
    <g id="xtick_1">
     <g id="line2d_1">
      <path d="M 153.238469 691.819094 
L 153.238469 180.820906 
" clip-path="url(#p64e99032d6)" style="fill: none; stroke: #b0b0b0; stroke-width: 0.8; stroke-linecap: square"/>
     </g>
     <g id="line2d_2">
      <defs>
       <path id="m666bd8f2b7" d="M 0 0 
L 0 3.5 
" style="stroke: #000000; stroke-width: 0.8"/>
      </defs>
      <g>
       <use xlink:href="#m666bd8f2b7" x="153.238469" y="691.819094" style="stroke: #000000; stroke-width: 0.8"/>
      </g>
     </g>
     <g id="text_1">
      <!-- −49.00 -->
      <g transform="translate(142.105404 730.360476) rotate(-45) scale(0.1 -0.1)">
       <defs>
        <path id="DejaVuSans-2212" d="M 678 2272 
L 4684 2272 
L 4684 1741 
L 678 1741 
L 678 2272 
z
" transform="scale(0.015625)"/>
        <path id="DejaVuSans-34" d="M 2419 4116 
L 825 1625 
L 2419 1625 
L 2419 4116 
z
M 2253 4666 
L 3047 4666 
L 3047 1625 
L 3713 1625 
L 3713 1100 
L 3047 1100 
L 3047 0 
L 2419 0 
L 2419 1100 
L 313 1100 
L 313 1709 
L 2253 4666 
z
" transform="scale(0.015625)"/>
        <path id="DejaVuSans-39" d="M 703 97 
L 703 672 
Q 941 559 1184 500 
Q 1428 441 1663 441 
Q 2288 441 2617 861 
Q 2947 1281 2994 2138 
Q 2813 1869 2534 1725 
Q 2256 1581 1919 1581 
Q 1219 1581 811 2004 
Q 403 2428 403 3163 
Q 403 3881 828 4315 
Q 1253 4750 1959 4750 
Q 2769 4750 3195 4129 
Q 3622 3509 3622 2328 
Q 3622 1225 3098 567 
Q 2575 -91 1691 -91 
Q 1453 -91 1209 -44 
Q 966 3 703 97 
z
M 1959 2075 
Q 2384 2075 2632 2365 
Q 2881 2656 2881 3163 
Q 2881 3666 2632 3958 
Q 2384 4250 1959 4250 
Q 1534 4250 1286 3958 
Q 1038 3666 1038 3163 
Q 1038 2656 1286 2365 
Q 1534 2075 1959 2075 
z
" transform="scale(0.015625)"/>
        <path id="DejaVuSans-2e" d="M 684 794 
L 1344 794 
L 1344 0 
L 684 0 
L 684 794 
z
" transform="scale(0.015625)"/>
        <path id="DejaVuSans-30" d="M 2034 4250 
Q 1547 4250 1301 3770 
Q 1056 3291 1056 2328 
Q 1056 1369 1301 889 
Q 1547 409 2034 409 
Q 2525 409 2770 889 
Q 3016 1369 3016 2328 
Q 3016 3291 2770 3770 
Q 2525 4250 2034 4250 
z
M 2034 4750 
Q 2819 4750 3233 4129 
Q 3647 3509 3647 2328 
Q 3647 1150 3233 529 
Q 2819 -91 2034 -91 
Q 1250 -91 836 529 
Q 422 1150 422 2328 
Q 422 3509 836 4129 
Q 1250 4750 2034 4750 
z
" transform="scale(0.015625)"/>
       </defs>
       <use xlink:href="#DejaVuSans-2212"/>
       <use xlink:href="#DejaVuSans-34" transform="translate(83.789062 0)"/>
       <use xlink:href="#DejaVuSans-39" transform="translate(147.412109 0)"/>
       <use xlink:href="#DejaVuSans-2e" transform="translate(211.035156 0)"/>
       <use xlink:href="#DejaVuSans-30" transform="translate(242.822266 0)"/>
       <use xlink:href="#DejaVuSans-30" transform="translate(306.445312 0)"/>
      </g>
     </g>
    </g>
    <g id="xtick_2">
     <g id="line2d_3">
      <path d="M 249.581766 691.819094 
L 249.581766 180.820906 
" clip-path="url(#p64e99032d6)" style="fill: none; stroke: #b0b0b0; stroke-width: 0.8; stroke-linecap: square"/>
     </g>
     <g id="line2d_4">
      <g>
       <use xlink:href="#m666bd8f2b7" x="249.581766" y="691.819094" style="stroke: #000000; stroke-width: 0.8"/>
      </g>
     </g>
     <g id="text_2">
      <!-- −48.98 -->
      <g transform="translate(238.448701 730.360476) rotate(-45) scale(0.1 -0.1)">
       <defs>
        <path id="DejaVuSans-38" d="M 2034 2216 
Q 1584 2216 1326 1975 
Q 1069 1734 1069 1313 
Q 1069 891 1326 650 
Q 1584 409 2034 409 
Q 2484 409 2743 651 
Q 3003 894 3003 1313 
Q 3003 1734 2745 1975 
Q 2488 2216 2034 2216 
z
M 1403 2484 
Q 997 2584 770 2862 
Q 544 3141 544 3541 
Q 544 4100 942 4425 
Q 1341 4750 2034 4750 
Q 2731 4750 3128 4425 
Q 3525 4100 3525 3541 
Q 3525 3141 3298 2862 
Q 3072 2584 2669 2484 
Q 3125 2378 3379 2068 
Q 3634 1759 3634 1313 
Q 3634 634 3220 271 
Q 2806 -91 2034 -91 
Q 1263 -91 848 271 
Q 434 634 434 1313 
Q 434 1759 690 2068 
Q 947 2378 1403 2484 
z
M 1172 3481 
Q 1172 3119 1398 2916 
Q 1625 2713 2034 2713 
Q 2441 2713 2670 2916 
Q 2900 3119 2900 3481 
Q 2900 3844 2670 4047 
Q 2441 4250 2034 4250 
Q 1625 4250 1398 4047 
Q 1172 3844 1172 3481 
z
" transform="scale(0.015625)"/>
       </defs>
       <use xlink:href="#DejaVuSans-2212"/>
       <use xlink:href="#DejaVuSans-34" transform="translate(83.789062 0)"/>
       <use xlink:href="#DejaVuSans-38" transform="translate(147.412109 0)"/>
       <use xlink:href="#DejaVuSans-2e" transform="translate(211.035156 0)"/>
       <use xlink:href="#DejaVuSans-39" transform="translate(242.822266 0)"/>
       <use xlink:href="#DejaVuSans-38" transform="translate(306.445312 0)"/>
      </g>
     </g>
    </g>
    <g id="xtick_3">
     <g id="line2d_5">
      <path d="M 345.925063 691.819094 
L 345.925063 180.820906 
" clip-path="url(#p64e99032d6)" style="fill: none; stroke: #b0b0b0; stroke-width: 0.8; stroke-linecap: square"/>
     </g>
     <g id="line2d_6">
      <g>
       <use xlink:href="#m666bd8f2b7" x="345.925063" y="691.819094" style="stroke: #000000; stroke-width: 0.8"/>
      </g>
     </g>
     <g id="text_3">
      <!-- −48.96 -->
      <g transform="translate(334.791998 730.360476) rotate(-45) scale(0.1 -0.1)">
       <defs>
        <path id="DejaVuSans-36" d="M 2113 2584 
Q 1688 2584 1439 2293 
Q 1191 2003 1191 1497 
Q 1191 994 1439 701 
Q 1688 409 2113 409 
Q 2538 409 2786 701 
Q 3034 994 3034 1497 
Q 3034 2003 2786 2293 
Q 2538 2584 2113 2584 
z
M 3366 4563 
L 3366 3988 
Q 3128 4100 2886 4159 
Q 2644 4219 2406 4219 
Q 1781 4219 1451 3797 
Q 1122 3375 1075 2522 
Q 1259 2794 1537 2939 
Q 1816 3084 2150 3084 
Q 2853 3084 3261 2657 
Q 3669 2231 3669 1497 
Q 3669 778 3244 343 
Q 2819 -91 2113 -91 
Q 1303 -91 875 529 
Q 447 1150 447 2328 
Q 447 3434 972 4092 
Q 1497 4750 2381 4750 
Q 2619 4750 2861 4703 
Q 3103 4656 3366 4563 
z
" transform="scale(0.015625)"/>
       </defs>
       <use xlink:href="#DejaVuSans-2212"/>
       <use xlink:href="#DejaVuSans-34" transform="translate(83.789062 0)"/>
       <use xlink:href="#DejaVuSans-38" transform="translate(147.412109 0)"/>
       <use xlink:href="#DejaVuSans-2e" transform="translate(211.035156 0)"/>
       <use xlink:href="#DejaVuSans-39" transform="translate(242.822266 0)"/>
       <use xlink:href="#DejaVuSans-36" transform="translate(306.445312 0)"/>
      </g>
     </g>
    </g>
    <g id="xtick_4">
     <g id="line2d_7">
      <path d="M 442.26836 691.819094 
L 442.26836 180.820906 
" clip-path="url(#p64e99032d6)" style="fill: none; stroke: #b0b0b0; stroke-width: 0.8; stroke-linecap: square"/>
     </g>
     <g id="line2d_8">
      <g>
       <use xlink:href="#m666bd8f2b7" x="442.26836" y="691.819094" style="stroke: #000000; stroke-width: 0.8"/>
      </g>
     </g>
     <g id="text_4">
      <!-- −48.94 -->
      <g transform="translate(431.135295 730.360476) rotate(-45) scale(0.1 -0.1)">
       <use xlink:href="#DejaVuSans-2212"/>
       <use xlink:href="#DejaVuSans-34" transform="translate(83.789062 0)"/>
       <use xlink:href="#DejaVuSans-38" transform="translate(147.412109 0)"/>
       <use xlink:href="#DejaVuSans-2e" transform="translate(211.035156 0)"/>
       <use xlink:href="#DejaVuSans-39" transform="translate(242.822266 0)"/>
       <use xlink:href="#DejaVuSans-34" transform="translate(306.445312 0)"/>
      </g>
     </g>
    </g>
    <g id="xtick_5">
     <g id="line2d_9">
      <path d="M 538.611657 691.819094 
L 538.611657 180.820906 
" clip-path="url(#p64e99032d6)" style="fill: none; stroke: #b0b0b0; stroke-width: 0.8; stroke-linecap: square"/>
     </g>
     <g id="line2d_10">
      <g>
       <use xlink:href="#m666bd8f2b7" x="538.611657" y="691.819094" style="stroke: #000000; stroke-width: 0.8"/>
      </g>
     </g>
     <g id="text_5">
      <!-- −48.92 -->
      <g transform="translate(527.478592 730.360476) rotate(-45) scale(0.1 -0.1)">
       <defs>
        <path id="DejaVuSans-32" d="M 1228 531 
L 3431 531 
L 3431 0 
L 469 0 
L 469 531 
Q 828 903 1448 1529 
Q 2069 2156 2228 2338 
Q 2531 2678 2651 2914 
Q 2772 3150 2772 3378 
Q 2772 3750 2511 3984 
Q 2250 4219 1831 4219 
Q 1534 4219 1204 4116 
Q 875 4013 500 3803 
L 500 4441 
Q 881 4594 1212 4672 
Q 1544 4750 1819 4750 
Q 2544 4750 2975 4387 
Q 3406 4025 3406 3419 
Q 3406 3131 3298 2873 
Q 3191 2616 2906 2266 
Q 2828 2175 2409 1742 
Q 1991 1309 1228 531 
z
" transform="scale(0.015625)"/>
       </defs>
       <use xlink:href="#DejaVuSans-2212"/>
       <use xlink:href="#DejaVuSans-34" transform="translate(83.789062 0)"/>
       <use xlink:href="#DejaVuSans-38" transform="translate(147.412109 0)"/>
       <use xlink:href="#DejaVuSans-2e" transform="translate(211.035156 0)"/>
       <use xlink:href="#DejaVuSans-39" transform="translate(242.822266 0)"/>
       <use xlink:href="#DejaVuSans-32" transform="translate(306.445312 0)"/>
      </g>
     </g>
    </g>
    <g id="xtick_6">
     <g id="line2d_11">
      <path d="M 634.954954 691.819094 
L 634.954954 180.820906 
" clip-path="url(#p64e99032d6)" style="fill: none; stroke: #b0b0b0; stroke-width: 0.8; stroke-linecap: square"/>
     </g>
     <g id="line2d_12">
      <g>
       <use xlink:href="#m666bd8f2b7" x="634.954954" y="691.819094" style="stroke: #000000; stroke-width: 0.8"/>
      </g>
     </g>
     <g id="text_6">
      <!-- −48.90 -->
      <g transform="translate(623.821889 730.360476) rotate(-45) scale(0.1 -0.1)">
       <use xlink:href="#DejaVuSans-2212"/>
       <use xlink:href="#DejaVuSans-34" transform="translate(83.789062 0)"/>
       <use xlink:href="#DejaVuSans-38" transform="translate(147.412109 0)"/>
       <use xlink:href="#DejaVuSans-2e" transform="translate(211.035156 0)"/>
       <use xlink:href="#DejaVuSans-39" transform="translate(242.822266 0)"/>
       <use xlink:href="#DejaVuSans-30" transform="translate(306.445312 0)"/>
      </g>
     </g>
    </g>
    <g id="text_7">
     <!-- Longitude (°) -->
     <g transform="translate(336.139844 743.429474) scale(0.1 -0.1)">
      <defs>
       <path id="DejaVuSans-4c" d="M 628 4666 
L 1259 4666 
L 1259 531 
L 3531 531 
L 3531 0 
L 628 0 
L 628 4666 
z
" transform="scale(0.015625)"/>
       <path id="DejaVuSans-6f" d="M 1959 3097 
Q 1497 3097 1228 2736 
Q 959 2375 959 1747 
Q 959 1119 1226 758 
Q 1494 397 1959 397 
Q 2419 397 2687 759 
Q 2956 1122 2956 1747 
Q 2956 2369 2687 2733 
Q 2419 3097 1959 3097 
z
M 1959 3584 
Q 2709 3584 3137 3096 
Q 3566 2609 3566 1747 
Q 3566 888 3137 398 
Q 2709 -91 1959 -91 
Q 1206 -91 779 398 
Q 353 888 353 1747 
Q 353 2609 779 3096 
Q 1206 3584 1959 3584 
z
" transform="scale(0.015625)"/>
       <path id="DejaVuSans-6e" d="M 3513 2113 
L 3513 0 
L 2938 0 
L 2938 2094 
Q 2938 2591 2744 2837 
Q 2550 3084 2163 3084 
Q 1697 3084 1428 2787 
Q 1159 2491 1159 1978 
L 1159 0 
L 581 0 
L 581 3500 
L 1159 3500 
L 1159 2956 
Q 1366 3272 1645 3428 
Q 1925 3584 2291 3584 
Q 2894 3584 3203 3211 
Q 3513 2838 3513 2113 
z
" transform="scale(0.015625)"/>
       <path id="DejaVuSans-67" d="M 2906 1791 
Q 2906 2416 2648 2759 
Q 2391 3103 1925 3103 
Q 1463 3103 1205 2759 
Q 947 2416 947 1791 
Q 947 1169 1205 825 
Q 1463 481 1925 481 
Q 2391 481 2648 825 
Q 2906 1169 2906 1791 
z
M 3481 434 
Q 3481 -459 3084 -895 
Q 2688 -1331 1869 -1331 
Q 1566 -1331 1297 -1286 
Q 1028 -1241 775 -1147 
L 775 -588 
Q 1028 -725 1275 -790 
Q 1522 -856 1778 -856 
Q 2344 -856 2625 -561 
Q 2906 -266 2906 331 
L 2906 616 
Q 2728 306 2450 153 
Q 2172 0 1784 0 
Q 1141 0 747 490 
Q 353 981 353 1791 
Q 353 2603 747 3093 
Q 1141 3584 1784 3584 
Q 2172 3584 2450 3431 
Q 2728 3278 2906 2969 
L 2906 3500 
L 3481 3500 
L 3481 434 
z
" transform="scale(0.015625)"/>
       <path id="DejaVuSans-69" d="M 603 3500 
L 1178 3500 
L 1178 0 
L 603 0 
L 603 3500 
z
M 603 4863 
L 1178 4863 
L 1178 4134 
L 603 4134 
L 603 4863 
z
" transform="scale(0.015625)"/>
       <path id="DejaVuSans-74" d="M 1172 4494 
L 1172 3500 
L 2356 3500 
L 2356 3053 
L 1172 3053 
L 1172 1153 
Q 1172 725 1289 603 
Q 1406 481 1766 481 
L 2356 481 
L 2356 0 
L 1766 0 
Q 1100 0 847 248 
Q 594 497 594 1153 
L 594 3053 
L 172 3053 
L 172 3500 
L 594 3500 
L 594 4494 
L 1172 4494 
z
" transform="scale(0.015625)"/>
       <path id="DejaVuSans-75" d="M 544 1381 
L 544 3500 
L 1119 3500 
L 1119 1403 
Q 1119 906 1312 657 
Q 1506 409 1894 409 
Q 2359 409 2629 706 
Q 2900 1003 2900 1516 
L 2900 3500 
L 3475 3500 
L 3475 0 
L 2900 0 
L 2900 538 
Q 2691 219 2414 64 
Q 2138 -91 1772 -91 
Q 1169 -91 856 284 
Q 544 659 544 1381 
z
M 1991 3584 
L 1991 3584 
z
" transform="scale(0.015625)"/>
       <path id="DejaVuSans-64" d="M 2906 2969 
L 2906 4863 
L 3481 4863 
L 3481 0 
L 2906 0 
L 2906 525 
Q 2725 213 2448 61 
Q 2172 -91 1784 -91 
Q 1150 -91 751 415 
Q 353 922 353 1747 
Q 353 2572 751 3078 
Q 1150 3584 1784 3584 
Q 2172 3584 2448 3432 
Q 2725 3281 2906 2969 
z
M 947 1747 
Q 947 1113 1208 752 
Q 1469 391 1925 391 
Q 2381 391 2643 752 
Q 2906 1113 2906 1747 
Q 2906 2381 2643 2742 
Q 2381 3103 1925 3103 
Q 1469 3103 1208 2742 
Q 947 2381 947 1747 
z
" transform="scale(0.015625)"/>
       <path id="DejaVuSans-65" d="M 3597 1894 
L 3597 1613 
L 953 1613 
Q 991 1019 1311 708 
Q 1631 397 2203 397 
Q 2534 397 2845 478 
Q 3156 559 3463 722 
L 3463 178 
Q 3153 47 2828 -22 
Q 2503 -91 2169 -91 
Q 1331 -91 842 396 
Q 353 884 353 1716 
Q 353 2575 817 3079 
Q 1281 3584 2069 3584 
Q 2775 3584 3186 3129 
Q 3597 2675 3597 1894 
z
M 3022 2063 
Q 3016 2534 2758 2815 
Q 2500 3097 2075 3097 
Q 1594 3097 1305 2825 
Q 1016 2553 972 2059 
L 3022 2063 
z
" transform="scale(0.015625)"/>
       <path id="DejaVuSans-20" transform="scale(0.015625)"/>
       <path id="DejaVuSans-28" d="M 1984 4856 
Q 1566 4138 1362 3434 
Q 1159 2731 1159 2009 
Q 1159 1288 1364 580 
Q 1569 -128 1984 -844 
L 1484 -844 
Q 1016 -109 783 600 
Q 550 1309 550 2009 
Q 550 2706 781 3412 
Q 1013 4119 1484 4856 
L 1984 4856 
z
" transform="scale(0.015625)"/>
       <path id="DejaVuSans-b0" d="M 1600 4347 
Q 1350 4347 1178 4173 
Q 1006 4000 1006 3750 
Q 1006 3503 1178 3333 
Q 1350 3163 1600 3163 
Q 1850 3163 2022 3333 
Q 2194 3503 2194 3750 
Q 2194 3997 2020 4172 
Q 1847 4347 1600 4347 
z
M 1600 4750 
Q 1800 4750 1984 4673 
Q 2169 4597 2303 4453 
Q 2447 4313 2519 4134 
Q 2591 3956 2591 3750 
Q 2591 3338 2302 3052 
Q 2013 2766 1594 2766 
Q 1172 2766 890 3047 
Q 609 3328 609 3750 
Q 609 4169 896 4459 
Q 1184 4750 1600 4750 
z
" transform="scale(0.015625)"/>
       <path id="DejaVuSans-29" d="M 513 4856 
L 1013 4856 
Q 1481 4119 1714 3412 
Q 1947 2706 1947 2009 
Q 1947 1309 1714 600 
Q 1481 -109 1013 -844 
L 513 -844 
Q 928 -128 1133 580 
Q 1338 1288 1338 2009 
Q 1338 2731 1133 3434 
Q 928 4138 513 4856 
z
" transform="scale(0.015625)"/>
      </defs>
      <use xlink:href="#DejaVuSans-4c"/>
      <use xlink:href="#DejaVuSans-6f" transform="translate(53.962891 0)"/>
      <use xlink:href="#DejaVuSans-6e" transform="translate(115.144531 0)"/>
      <use xlink:href="#DejaVuSans-67" transform="translate(178.523438 0)"/>
      <use xlink:href="#DejaVuSans-69" transform="translate(242 0)"/>
      <use xlink:href="#DejaVuSans-74" transform="translate(269.783203 0)"/>
      <use xlink:href="#DejaVuSans-75" transform="translate(308.992188 0)"/>
      <use xlink:href="#DejaVuSans-64" transform="translate(372.371094 0)"/>
      <use xlink:href="#DejaVuSans-65" transform="translate(435.847656 0)"/>
      <use xlink:href="#DejaVuSans-20" transform="translate(497.371094 0)"/>
      <use xlink:href="#DejaVuSans-28" transform="translate(529.158203 0)"/>
      <use xlink:href="#DejaVuSans-b0" transform="translate(568.171875 0)"/>
      <use xlink:href="#DejaVuSans-29" transform="translate(618.171875 0)"/>
     </g>
    </g>
   </g>
   <g id="matplotlib.axis_2">
    <g id="ytick_1">
     <g id="line2d_13">
      <path d="M 90 667.792029 
L 648 667.792029 
" clip-path="url(#p64e99032d6)" style="fill: none; stroke: #b0b0b0; stroke-width: 0.8; stroke-linecap: square"/>
     </g>
     <g id="line2d_14">
      <defs>
       <path id="mbcd2896968" d="M 0 0 
L -3.5 0 
" style="stroke: #000000; stroke-width: 0.8"/>
      </defs>
      <g>
       <use xlink:href="#mbcd2896968" x="90" y="667.792029" style="stroke: #000000; stroke-width: 0.8"/>
      </g>
     </g>
     <g id="text_8">
      <!-- −9.88 -->
      <g transform="translate(52.354687 671.591247) scale(0.1 -0.1)">
       <use xlink:href="#DejaVuSans-2212"/>
       <use xlink:href="#DejaVuSans-39" transform="translate(83.789062 0)"/>
       <use xlink:href="#DejaVuSans-2e" transform="translate(147.412109 0)"/>
       <use xlink:href="#DejaVuSans-38" transform="translate(179.199219 0)"/>
       <use xlink:href="#DejaVuSans-38" transform="translate(242.822266 0)"/>
      </g>
     </g>
    </g>
    <g id="ytick_2">
     <g id="line2d_15">
      <path d="M 90 570.017252 
L 648 570.017252 
" clip-path="url(#p64e99032d6)" style="fill: none; stroke: #b0b0b0; stroke-width: 0.8; stroke-linecap: square"/>
     </g>
     <g id="line2d_16">
      <g>
       <use xlink:href="#mbcd2896968" x="90" y="570.017252" style="stroke: #000000; stroke-width: 0.8"/>
      </g>
     </g>
     <g id="text_9">
      <!-- −9.86 -->
      <g transform="translate(52.354687 573.816471) scale(0.1 -0.1)">
       <use xlink:href="#DejaVuSans-2212"/>
       <use xlink:href="#DejaVuSans-39" transform="translate(83.789062 0)"/>
       <use xlink:href="#DejaVuSans-2e" transform="translate(147.412109 0)"/>
       <use xlink:href="#DejaVuSans-38" transform="translate(179.199219 0)"/>
       <use xlink:href="#DejaVuSans-36" transform="translate(242.822266 0)"/>
      </g>
     </g>
    </g>
    <g id="ytick_3">
     <g id="line2d_17">
      <path d="M 90 472.242475 
L 648 472.242475 
" clip-path="url(#p64e99032d6)" style="fill: none; stroke: #b0b0b0; stroke-width: 0.8; stroke-linecap: square"/>
     </g>
     <g id="line2d_18">
      <g>
       <use xlink:href="#mbcd2896968" x="90" y="472.242475" style="stroke: #000000; stroke-width: 0.8"/>
      </g>
     </g>
     <g id="text_10">
      <!-- −9.84 -->
      <g transform="translate(52.354687 476.041694) scale(0.1 -0.1)">
       <use xlink:href="#DejaVuSans-2212"/>
       <use xlink:href="#DejaVuSans-39" transform="translate(83.789062 0)"/>
       <use xlink:href="#DejaVuSans-2e" transform="translate(147.412109 0)"/>
       <use xlink:href="#DejaVuSans-38" transform="translate(179.199219 0)"/>
       <use xlink:href="#DejaVuSans-34" transform="translate(242.822266 0)"/>
      </g>
     </g>
    </g>
    <g id="ytick_4">
     <g id="line2d_19">
      <path d="M 90 374.467698 
L 648 374.467698 
" clip-path="url(#p64e99032d6)" style="fill: none; stroke: #b0b0b0; stroke-width: 0.8; stroke-linecap: square"/>
     </g>
     <g id="line2d_20">
      <g>
       <use xlink:href="#mbcd2896968" x="90" y="374.467698" style="stroke: #000000; stroke-width: 0.8"/>
      </g>
     </g>
     <g id="text_11">
      <!-- −9.82 -->
      <g transform="translate(52.354687 378.266917) scale(0.1 -0.1)">
       <use xlink:href="#DejaVuSans-2212"/>
       <use xlink:href="#DejaVuSans-39" transform="translate(83.789062 0)"/>
       <use xlink:href="#DejaVuSans-2e" transform="translate(147.412109 0)"/>
       <use xlink:href="#DejaVuSans-38" transform="translate(179.199219 0)"/>
       <use xlink:href="#DejaVuSans-32" transform="translate(242.822266 0)"/>
      </g>
     </g>
    </g>
    <g id="ytick_5">
     <g id="line2d_21">
      <path d="M 90 276.692921 
L 648 276.692921 
" clip-path="url(#p64e99032d6)" style="fill: none; stroke: #b0b0b0; stroke-width: 0.8; stroke-linecap: square"/>
     </g>
     <g id="line2d_22">
      <g>
       <use xlink:href="#mbcd2896968" x="90" y="276.692921" style="stroke: #000000; stroke-width: 0.8"/>
      </g>
     </g>
     <g id="text_12">
      <!-- −9.80 -->
      <g transform="translate(52.354687 280.49214) scale(0.1 -0.1)">
       <use xlink:href="#DejaVuSans-2212"/>
       <use xlink:href="#DejaVuSans-39" transform="translate(83.789062 0)"/>
       <use xlink:href="#DejaVuSans-2e" transform="translate(147.412109 0)"/>
       <use xlink:href="#DejaVuSans-38" transform="translate(179.199219 0)"/>
       <use xlink:href="#DejaVuSans-30" transform="translate(242.822266 0)"/>
      </g>
     </g>
    </g>
    <g id="text_13">
     <!-- Latitude (°) -->
     <g transform="translate(46.275 464.889531) rotate(-90) scale(0.1 -0.1)">
      <defs>
       <path id="DejaVuSans-61" d="M 2194 1759 
Q 1497 1759 1228 1600 
Q 959 1441 959 1056 
Q 959 750 1161 570 
Q 1363 391 1709 391 
Q 2188 391 2477 730 
Q 2766 1069 2766 1631 
L 2766 1759 
L 2194 1759 
z
M 3341 1997 
L 3341 0 
L 2766 0 
L 2766 531 
Q 2569 213 2275 61 
Q 1981 -91 1556 -91 
Q 1019 -91 701 211 
Q 384 513 384 1019 
Q 384 1609 779 1909 
Q 1175 2209 1959 2209 
L 2766 2209 
L 2766 2266 
Q 2766 2663 2505 2880 
Q 2244 3097 1772 3097 
Q 1472 3097 1187 3025 
Q 903 2953 641 2809 
L 641 3341 
Q 956 3463 1253 3523 
Q 1550 3584 1831 3584 
Q 2591 3584 2966 3190 
Q 3341 2797 3341 1997 
z
" transform="scale(0.015625)"/>
      </defs>
      <use xlink:href="#DejaVuSans-4c"/>
      <use xlink:href="#DejaVuSans-61" transform="translate(55.712891 0)"/>
      <use xlink:href="#DejaVuSans-74" transform="translate(116.992188 0)"/>
      <use xlink:href="#DejaVuSans-69" transform="translate(156.201172 0)"/>
      <use xlink:href="#DejaVuSans-74" transform="translate(183.984375 0)"/>
      <use xlink:href="#DejaVuSans-75" transform="translate(223.193359 0)"/>
      <use xlink:href="#DejaVuSans-64" transform="translate(286.572266 0)"/>
      <use xlink:href="#DejaVuSans-65" transform="translate(350.048828 0)"/>
      <use xlink:href="#DejaVuSans-20" transform="translate(411.572266 0)"/>
      <use xlink:href="#DejaVuSans-28" transform="translate(443.359375 0)"/>
      <use xlink:href="#DejaVuSans-b0" transform="translate(482.373047 0)"/>
      <use xlink:href="#DejaVuSans-29" transform="translate(532.373047 0)"/>
     </g>
    </g>
   </g>
   <g id="patch_3">
    <path d="M 90 691.819094 
L 90 180.820906 
" style="fill: none; stroke: #000000; stroke-width: 0.8; stroke-linejoin: miter; stroke-linecap: square"/>
   </g>
   <g id="patch_4">
    <path d="M 648 691.819094 
L 648 180.820906 
" style="fill: none; stroke: #000000; stroke-width: 0.8; stroke-linejoin: miter; stroke-linecap: square"/>
   </g>
   <g id="patch_5">
    <path d="M 90 691.819094 
L 648 691.819094 
" style="fill: none; stroke: #000000; stroke-width: 0.8; stroke-linejoin: miter; stroke-linecap: square"/>
   </g>
   <g id="patch_6">
    <path d="M 90 180.820906 
L 648 180.820906 
" style="fill: none; stroke: #000000; stroke-width: 0.8; stroke-linejoin: miter; stroke-linecap: square"/>
   </g>
  </g>
 </g>
 <defs>
  <clipPath id="p64e99032d6">
   <rect x="90" y="180.820906" width="558" height="510.998188"/>
  </clipPath>
 </defs>
</svg>
