<?xml version="1.0" encoding="utf-8" standalone="no"?>
<!DOCTYPE svg PUBLIC "-//W3C//DTD SVG 1.1//EN"
  "http://www.w3.org/Graphics/SVG/1.1/DTD/svg11.dtd">
<svg xmlns:xlink="http://www.w3.org/1999/xlink" width="720pt" height="864pt" viewBox="0 0 720 864" xmlns="http://www.w3.org/2000/svg" version="1.1">
 <metadata>
  <rdf:RDF xmlns:dc="http://purl.org/dc/elements/1.1/" xmlns:cc="http://creativecommons.org/ns#" xmlns:rdf="http://www.w3.org/1999/02/22-rdf-syntax-ns#">
   <cc:Work>
    <dc:type rdf:resource="http://purl.org/dc/dcmitype/StillImage"/>
    <dc:date>2025-06-16T17:36:33.678029</dc:date>
    <dc:format>image/svg+xml</dc:format>
    <dc:creator>
     <cc:Agent>
      <dc:title>Matplotlib v3.10.1, https://matplotlib.org/</dc:title>
     </cc:Agent>
    </dc:creator>
   </cc:Work>
  </rdf:RDF>
 </metadata>
 <defs>
  <style type="text/css">*{stroke-linejoin: round; stroke-linecap: butt}</style>
 </defs>
 <g id="figure_1">
  <g id="patch_1">
   <path d="M 0 864 
L 720 864 
L 720 0 
L 0 0 
z
" style="fill: #ffffff"/>
  </g>
  <g id="axes_1">
   <g id="patch_2">
    <path d="M 156.38278 768.96 
L 581.61722 768.96 
L 581.61722 103.68 
L 156.38278 103.68 
z
" style="fill: #ffffff"/>
   </g>
   <g id="PatchCollection_1">
    <path d="M 467.872203 345.668643 
L 465.668194 346.467329 
L 462.412048 347.227195 
L 459.552591 348.747574 
L 457.785211 348.930639 
L 455.849887 350.119067 
L 456.456321 353.623265 
L 454.867143 363.46384 
L 464.365167 360.08057 
L 465.964938 359.559258 
L 468.101221 359.14406 
L 472.980969 358.934147 
L 475.114103 358.343527 
L 480.069064 355.973973 
L 483.920029 353.66647 
L 486.083166 352.60475 
L 489.665347 351.822288 
L 490.883361 350.930855 
L 493.798179 348.484579 
L 496.067861 345.868816 
L 499.231628 341.641016 
L 501.541571 338.212695 
L 502.81048 336.231595 
L 503.584418 334.837463 
L 504.980816 340.220874 
L 507.135466 343.368021 
L 509.271944 344.535813 
L 512.520783 346.801734 
L 516.703398 347.871199 
L 520.176776 348.868073 
L 522.467827 349.717617 
L 525.638024 351.984144 
L 527.940082 354.021235 
L 528.422685 355.125222 
L 531.983643 357.071301 
L 533.594603 358.520406 
L 534.095568 361.603678 
L 534.834927 364.922245 
L 534.945955 368.40507 
L 534.733268 370.94079 
L 537.888991 371.623726 
L 540.974086 373.178263 
L 545.002456 374.565525 
L 548.559212 376.03637 
L 551.887921 378.38029 
L 553.256566 381.613654 
L 554.057884 383.110459 
L 555.9459 382.934253 
L 557.045886 382.686316 
L 558.9339 382.510098 
L 560.356192 383.050879 
L 562.288382 384.191919 
L 536.310023 434.268781 
L 534.971535 433.464368 
L 533.649418 432.694338 
L 531.013728 432.071606 
L 528.888126 431.471032 
L 526.660964 431.492016 
L 525.374218 431.63905 
L 524.488719 431.647387 
L 523.093885 431.714483 
L 522.158974 432.181996 
L 520.872971 432.409958 
L 519.936056 432.661619 
L 518.325542 432.622796 
L 515.654745 431.831647 
L 512.358887 430.918175 
L 510.942003 430.054508 
L 509.996588 429.388789 
L 508.118243 429.4064 
L 507.045528 429.483915 
L 505.765318 428.88878 
L 503.408659 427.966426 
L 501.329057 427.985891 
L 499.337594 428.058361 
L 508.009718 453.044514 
L 511.392726 452.200935 
L 514.864084 450.312693 
L 521.956308 449.340488 
L 526.646801 447.239836 
L 530.185732 443.775728 
L 532.354702 443.211312 
L 534.220258 443.917683 
L 535.43881 444.810112 
L 537.240594 445.210286 
L 539.03427 444.741359 
L 541.720066 443.53388 
L 544.599651 442.676304 
L 547.14447 458.938225 
L 549.656498 463.024571 
L 548.867383 465.244657 
L 548.89311 467.989523 
L 550.059556 469.784439 
L 549.732169 473.182812 
L 548.529085 475.144713 
L 546.659061 474.945752 
L 545.439851 475.793809 
L 544.882002 477.605103 
L 543.541284 480.218463 
L 543.122384 481.522757 
L 542.858683 484.053659 
L 542.871544 485.426096 
L 542.739353 486.655432 
L 542.53532 487.885447 
L 542.191649 489.550229 
L 542.780655 491.061678 
L 543.373058 492.93429 
L 542.244467 495.184447 
L 539.955003 497.13024 
L 537.954033 498.305072 
L 536.445177 498.319387 
L 534.782479 497.251549 
L 533.199066 496.977596 
L 531.690211 496.991892 
L 530.624614 498.302313 
L 530.567626 499.892144 
L 530.437437 501.338187 
L 529.947317 502.7154 
L 529.379934 503.51542 
L 528.528524 504.679333 
L 528.403056 506.631017 
L 528.718843 509.66213 
L 528.749255 512.912667 
L 528.854215 514.477695 
L 529.621424 516.296281 
L 530.268339 517.917544 
L 530.833329 519.222039 
L 531.322704 520.884484 
L 531.334603 522.154533 
L 531.737962 523.063634 
L 532.597578 524.863738 
L 529.598853 525.647864 
L 526.642882 532.666467 
L 525.927067 543.779304 
L 522.169204 549.970751 
L 522.92085 563.058983 
L 547.993544 580.085126 
L 516.012983 591.580395 
L 541.612006 621.000311 
L 538.295344 622.769373 
L 536.510032 623.640307 
L 534.532348 624.133583 
L 532.380214 626.146488 
L 530.507644 627.777221 
L 528.248546 628.462911 
L 525.895051 629.149491 
L 524.214797 631.157865 
L 522.248671 632.884343 
L 519.53722 635.661531 
L 517.468622 636.535109 
L 514.744614 637.984165 
L 513.906678 639.225505 
L 512.972559 640.278013 
L 511.75614 641.428081 
L 511.105195 642.477893 
L 509.324182 643.823079 
L 507.918956 644.974938 
L 506.519956 646.790856 
L 505.113821 647.847842 
L 502.445815 648.972479 
L 506.573492 654.451609 
L 506.792325 654.539809 
L 503.794402 676.613919 
L 499.666436 686.555162 
L 498.005891 698.623607 
L 498.584685 700.040841 
L 499.351676 701.029162 
L 499.942725 701.902021 
L 499.953203 703.014676 
L 500.955521 704.235013 
L 502.254205 705.97961 
L 503.433032 707.373951 
L 503.507876 709.130215 
L 503.708436 710.783599 
L 504.722666 719.713263 
L 507.845293 733.572461 
L 506.104981 732.808199 
L 504.04088 732.022409 
L 501.444193 730.799493 
L 499.801675 729.300145 
L 498.378732 726.763548 
L 494.535894 726.402547 
L 491.163327 726.381081 
L 486.945307 726.663319 
L 486.063609 727.06904 
L 479.310985 731.317708 
L 477.846354 733.119694 
L 477.060885 733.557206 
L 473.169614 732.766741 
L 470.458986 732.058605 
L 469.960895 731.261816 
L 469.087209 729.807822 
L 468.000216 730.405661 
L 466.520949 731.402345 
L 466.025745 732.610545 
L 467.947908 734.875102 
L 468.936656 736.440647 
L 470.022675 737.445414 
L 464.187232 736.594864 
L 462.734703 736.591588 
L 461.685658 737.278584 
L 459.66681 737.471659 
L 458.230043 737.831607 
L 455.811067 737.749708 
L 454.12712 738.72 
L 454.022445 736.9722 
L 454.045607 734.111953 
L 451.767157 731.146158 
L 454.505617 730.167356 
L 457.257263 730.100047 
L 457.243065 728.821525 
L 452.9596 725.924337 
L 453.183025 724.119094 
L 453.977736 720.623737 
L 453.629088 717.640462 
L 453.687702 716.800323 
L 451.907599 712.257254 
L 450.10776 712.979597 
L 447.292738 713.652447 
L 447.694299 710.708967 
L 449.30217 708.006221 
L 453.36027 707.613051 
L 454.542928 703.432837 
L 453.488908 700.500814 
L 455.406778 699.481825 
L 457.14458 698.891439 
L 458.466739 695.096632 
L 458.800758 692.79655 
L 461.392238 693.579148 
L 463.595909 696.994697 
L 466.194286 699.583501 
L 469.276318 694.795569 
L 469.631335 692.460367 
L 466.906968 690.960885 
L 464.933422 690.280313 
L 463.743319 688.917326 
L 462.362027 686.386298 
L 463.122014 683.810574 
L 458.488211 673.148224 
L 456.204172 673.620106 
L 452.866052 674.454608 
L 450.756036 675.344798 
L 449.063379 677.070801 
L 446.939068 675.95792 
L 445.173967 674.205026 
L 444.039406 672.725434 
L 443.821146 670.744053 
L 442.658677 666.775059 
L 438.582683 665.12652 
L 435.090435 669.940077 
L 433.741755 672.148739 
L 433.063221 677.207686 
L 432.89884 679.121156 
L 428.048059 682.792964 
L 432.148752 684.198919 
L 431.423891 689.175772 
L 435.6568 688.015876 
L 435.771207 688.575217 
L 433.11856 690.799904 
L 426.037436 693.8063 
L 423.159296 694.762345 
L 417.334837 701.771316 
L 419.45462 706.84328 
L 415.785497 709.828672 
L 414.380017 709.960279 
L 407.470965 716.117152 
L 405.553903 720.144259 
L 404.252494 723.27699 
L 403.016621 721.980623 
L 397.126175 720.014246 
L 394.211471 717.296487 
L 396.847998 713.222144 
L 394.610104 710.354953 
L 385.896479 712.892163 
L 381.290969 708.428724 
L 376.766897 705.864346 
L 378.897991 701.691863 
L 376.599084 696.70761 
L 376.38831 695.757519 
L 375.155442 692.738561 
L 372.541599 689.383751 
L 370.038389 691.300227 
L 363.889834 693.840432 
L 361.7985 691.837868 
L 361.152845 688.561066 
L 359.85866 686.858412 
L 358.765524 683.950282 
L 363.639762 680.594077 
L 357.796516 673.099408 
L 354.952114 671.517693 
L 353.185968 668.634963 
L 353.083384 665.920553 
L 349.315026 663.16487 
L 345.466087 661.022841 
L 341.693423 660.446305 
L 337.281271 658.781256 
L 324.413712 659.268103 
L 315.354181 658.865508 
L 314.847301 658.374912 
L 312.962173 655.937531 
L 309.508546 654.787385 
L 300.753579 653.626364 
L 302.474449 650.455479 
L 301.817907 646.877703 
L 302.160519 643.245531 
L 297.762743 640.471541 
L 295.199987 639.247093 
L 292.250499 635.847436 
L 292.840262 633.081113 
L 297.492691 626.363984 
L 293.071278 625.5432 
L 292.26258 625.069984 
L 289.812341 621.004135 
L 292.177619 620.672808 
L 293.199872 620.948336 
L 295.119952 620.247781 
L 295.566083 619.446589 
L 296.974776 618.579801 
L 298.551894 617.540671 
L 300.698041 616.781124 
L 302.218491 615.742492 
L 304.149084 613.901749 
L 305.268635 613.374515 
L 300.384216 606.826191 
L 303.556657 589.102037 
L 306.817266 588.895195 
L 325.792823 587.721662 
L 327.623374 583.625252 
L 342.931463 549.393731 
L 359.47201 529.513167 
L 374.508678 512.648309 
L 374.515766 506.373317 
L 376.23485 507.610771 
L 381.011408 521.01604 
L 381.075984 521.058854 
L 393.420857 529.379768 
L 408.982151 508.500479 
L 412.398704 503.916061 
L 411.982186 503.657727 
L 411.125339 502.286156 
L 411.107045 500.270207 
L 411.301762 498.464523 
L 411.292135 497.403495 
L 411.339023 495.846432 
L 417.79169 473.680086 
L 405.45917 472.855443 
L 402.104732 471.246908 
L 406.318047 456.314246 
L 409.220235 447.509249 
L 411.132473 443.036513 
L 411.720462 441.794875 
L 412.946122 441.337692 
L 413.794072 441.471823 
L 414.920949 441.238522 
L 415.826264 441.027518 
L 416.827873 440.972699 
L 416.392849 435.531274 
L 410.222696 437.916871 
L 405.238987 437.539163 
L 403.488685 436.853368 
L 400.118506 435.929984 
L 398.812108 435.432249 
L 397.113544 434.466924 
L 395.944186 432.144369 
L 400.328732 427.532389 
L 397.903329 417.941238 
L 392.410353 421.827662 
L 391.14942 422.707061 
L 390.537255 423.934223 
L 388.006121 425.157865 
L 384.659683 429.621272 
L 382.759285 428.558182 
L 376.244012 427.56169 
L 372.164338 429.436527 
L 369.653921 429.056312 
L 366.839551 429.745909 
L 364.862243 428.938567 
L 365.007571 428.024831 
L 362.511075 425.234348 
L 360.716396 428.157174 
L 358.376988 427.106326 
L 356.03188 424.629926 
L 353.119467 423.141226 
L 348.04137 428.798453 
L 346.447632 428.60011 
L 345.74184 428.136101 
L 345.311689 427.105183 
L 345.583573 426.114991 
L 344.873614 425.180658 
L 343.832068 423.778946 
L 343.637049 422.887021 
L 343.109198 421.386619 
L 342.821051 420.542563 
L 342.019648 419.844221 
L 340.196307 419.954657 
L 339.311771 420.432951 
L 338.514536 420.204923 
L 337.403331 419.710876 
L 338.125568 417.849398 
L 340.791289 416.11029 
L 343.763499 412.4419 
L 343.59714 411.295077 
L 343.799041 410.455154 
L 344.295967 408.281804 
L 342.829455 407.512113 
L 343.037946 406.94981 
L 342.182161 406.865223 
L 340.072961 406.440464 
L 339.333485 405.655198 
L 337.108117 403.381564 
L 335.860668 402.835108 
L 333.831892 401.145759 
L 332.46253 400.658687 
L 331.160898 400.075127 
L 330.796828 399.560638 
L 329.639098 399.16507 
L 328.350399 399.070743 
L 327.177409 399.867141 
L 325.762981 400.652001 
L 324.365298 401.597231 
L 322.778433 402.232562 
L 321.742998 402.661147 
L 320.97496 401.537498 
L 320.247209 399.762835 
L 319.551412 398.520052 
L 318.335987 397.42187 
L 316.382759 397.311415 
L 314.9508 397.583704 
L 313.626885 398.877671 
L 312.594364 400.185508 
L 311.967943 398.370999 
L 312.627626 397.374938 
L 312.749349 396.511663 
L 314.056397 394.684449 
L 314.616743 393.664951 
L 315.312788 393.095738 
L 315.503175 394.223375 
L 316.380178 395.235813 
L 317.001162 395.832037 
L 317.762175 395.31172 
L 318.082564 394.940866 
L 318.564624 393.533318 
L 318.162795 392.097003 
L 317.946666 390.191679 
L 319.705662 391.320608 
L 320.222737 392.497826 
L 321.462599 393.457517 
L 322.417286 393.482805 
L 322.856478 391.671148 
L 323.828818 391.338061 
L 324.393671 392.15683 
L 325.68323 393.108891 
L 327.5174 393.260889 
L 329.398681 393.050857 
L 329.579668 392.157497 
L 329.529256 390.905793 
L 328.191572 390.134205 
L 326.937941 386.583139 
L 325.337584 386.08933 
L 324.172669 384.962844 
L 323.383816 383.674953 
L 322.675202 383.771263 
L 321.05699 383.576984 
L 320.133671 383.261405 
L 316.513174 382.714113 
L 314.991785 383.103704 
L 313.497005 383.219821 
L 312.489664 382.279746 
L 311.771694 380.662498 
L 311.072397 379.576929 
L 308.994285 380.367062 
L 308.073421 381.025222 
L 307.105163 382.148024 
L 306.408308 382.827155 
L 305.095287 382.834925 
L 302.427511 382.926594 
L 302.511025 385.650984 
L 305.117703 386.584966 
L 305.837302 387.516334 
L 303.797603 387.807474 
L 301.612291 386.569985 
L 299.319216 385.736891 
L 297.342858 388.610745 
L 298.198968 389.424169 
L 295.343262 389.410344 
L 292.324146 392.502251 
L 295.903912 394.727203 
L 299.981358 393.85084 
L 300.598277 394.438332 
L 299.119223 396.20119 
L 298.949209 398.403007 
L 298.086586 399.096013 
L 296.1924 401.89085 
L 294.030255 401.493385 
L 289.922299 400.840396 
L 289.421371 398.788257 
L 286.03959 397.777318 
L 283.139107 395.495404 
L 282.36376 394.712073 
L 282.565145 393.357248 
L 273.761144 390.804003 
L 273.387756 392.692646 
L 272.199517 392.526627 
L 270.820053 391.922361 
L 269.242794 391.284173 
L 267.310475 392.232285 
L 268.599159 393.902045 
L 267.507294 395.578906 
L 265.934025 398.109038 
L 263.741906 399.169418 
L 262.342745 397.508831 
L 260.324839 395.39543 
L 257.943768 394.141176 
L 257.587307 395.976992 
L 255.699197 396.363799 
L 254.434568 395.138799 
L 254.305955 393.951843 
L 252.239692 393.558641 
L 250.573007 396.524913 
L 249.021397 397.204343 
L 248.804538 399.011361 
L 248.154692 400.835066 
L 247.79822 403.342659 
L 245.644063 402.983439 
L 246.157043 400.356016 
L 247.130281 399.641565 
L 246.930264 397.840789 
L 247.952296 394.749346 
L 247.814197 391.382126 
L 240.5107 392.046932 
L 240.615574 390.39552 
L 227.588462 386.220404 
L 232.111362 370.733981 
L 237.697598 373.437926 
L 246.182654 369.340871 
L 252.224027 371.239043 
L 254.144173 365.394113 
L 254.660958 360.500351 
L 260.632707 346.771524 
L 263.645647 341.806787 
L 270.445233 337.502314 
L 277.598599 338.32656 
L 282.810673 327.371762 
L 282.155062 323.461386 
L 282.616686 323.154366 
L 282.876109 323.067651 
L 283.12547 323.284988 
L 283.531198 323.468626 
L 283.951179 323.477765 
L 284.158301 323.753817 
L 284.71193 324.175048 
L 285.251157 324.064019 
L 285.766191 324.112722 
L 286.243939 324.153258 
L 286.6149 324.348168 
L 286.980682 324.541415 
L 286.992683 324.675588 
L 287.036955 325.257364 
L 287.60699 325.294752 
L 288.193657 325.326143 
L 288.700861 325.000148 
L 289.024146 324.813981 
L 289.437011 324.714983 
L 289.798033 324.980816 
L 290.072053 324.578301 
L 290.317774 324.12766 
L 290.624933 323.652341 
L 290.752437 323.159716 
L 290.950518 322.837953 
L 291.335108 322.704116 
L 291.71418 322.651217 
L 292.107209 322.901237 
L 292.653547 322.609764 
L 292.969204 322.182373 
L 293.23591 321.855579 
L 293.431086 321.544726 
L 293.688509 321.378712 
L 293.892394 321.44936 
L 294.318557 321.616899 
L 294.65766 321.547141 
L 294.807878 321.70833 
L 295.062817 322.173109 
L 295.30326 322.553334 
L 295.266852 323.02068 
L 295.469914 323.527279 
L 295.652829 323.917632 
L 295.591826 324.239167 
L 295.91999 324.465087 
L 296.470514 324.661705 
L 296.905719 324.688021 
L 297.383118 324.551747 
L 297.652574 324.636725 
L 298.017898 324.848492 
L 298.509738 324.990329 
L 298.994606 325.198042 
L 299.216436 324.61348 
L 299.394515 324.444671 
L 299.929144 324.379695 
L 300.391615 324.113562 
L 300.817262 323.844885 
L 301.499443 323.523948 
L 301.216369 322.973572 
L 301.213753 322.423283 
L 300.850712 322.259611 
L 300.910755 322.152889 
L 301.237494 322.130644 
L 301.732833 322.20412 
L 302.191963 322.087637 
L 302.561806 321.597032 
L 302.822182 321.343247 
L 303.126621 320.919949 
L 303.428118 320.406681 
L 303.396102 320.126105 
L 302.98769 319.623163 
L 302.647009 319.174252 
L 302.367972 318.882397 
L 302.431311 318.588712 
L 302.068182 318.305255 
L 301.65911 318.011908 
L 301.404444 317.658019 
L 301.113901 317.332452 
L 301.116206 317.323402 
L 301.828676 317.246332 
L 301.446141 316.642554 
L 301.684831 316.336138 
L 301.556187 315.956016 
L 312.434353 311.210671 
L 314.383374 309.282854 
L 316.842464 306.755255 
L 314.026878 302.941035 
L 314.162545 302.884961 
L 314.287465 302.832203 
L 314.399234 302.352382 
L 314.432006 301.830814 
L 314.445593 301.317173 
L 314.668193 300.922009 
L 314.635298 300.501137 
L 314.72465 300.480664 
L 315.197888 300.820252 
L 315.420508 300.675442 
L 315.533853 300.729371 
L 315.543875 301.234909 
L 315.85485 300.963564 
L 316.154984 300.521973 
L 316.452786 300.108303 
L 316.641627 299.635798 
L 317.062299 299.572161 
L 317.606462 299.647446 
L 318.177085 299.633221 
L 318.687418 299.667052 
L 319.191016 299.687171 
L 319.688921 299.492503 
L 319.964942 299.530524 
L 320.463861 299.862477 
L 320.820822 299.814107 
L 320.935996 299.493126 
L 321.06166 299.210161 
L 321.03223 298.974955 
L 320.781915 296.974424 
L 320.680069 295.975919 
L 320.547546 294.683745 
L 312.435345 285.12237 
L 311.374739 284.718998 
L 306.972238 278.922689 
L 306.063892 278.301358 
L 305.84574 278.459907 
L 305.636523 278.630943 
L 305.235584 278.907553 
L 304.979461 279.261355 
L 304.721475 279.540235 
L 304.488805 280.025342 
L 304.499601 280.441959 
L 304.210345 280.840412 
L 303.82467 281.16697 
L 303.517544 281.264597 
L 303.373475 281.470068 
L 303.261048 281.532503 
L 302.906272 281.633914 
L 302.659083 281.582452 
L 302.369827 281.797004 
L 301.933895 282.073992 
L 301.494985 282.358547 
L 301.057564 282.647266 
L 300.602647 282.408118 
L 300.227023 282.503096 
L 299.871875 282.208323 
L 299.610167 282.262056 
L 299.576662 282.436876 
L 299.403183 282.567045 
L 299.09308 282.399414 
L 298.653425 282.439146 
L 298.183244 282.494771 
L 297.683282 282.369521 
L 297.110726 282.525043 
L 296.846412 282.843654 
L 296.822587 283.392332 
L 296.839711 283.948957 
L 293.071936 286.461523 
L 290.674498 289.05658 
L 290.593714 289.101988 
L 291.278324 288.025444 
L 291.277208 287.014742 
L 291.186373 285.964686 
L 290.842393 284.991445 
L 290.378168 284.032961 
L 289.892724 283.091884 
L 289.12063 282.472067 
L 288.22308 282.167456 
L 287.37802 281.493528 
L 286.760791 280.657646 
L 285.964499 279.948527 
L 285.120184 279.750625 
L 284.088988 279.488016 
L 283.224198 279.009342 
L 282.383605 278.543155 
L 281.524399 278.255193 
L 280.705026 277.698569 
L 280.034562 277.238437 
L 279.48881 276.62089 
L 278.232016 277.018209 
L 277.699666 277.160108 
L 277.34489 277.975557 
L 276.553437 278.43796 
L 275.595951 278.713434 
L 274.491789 278.466718 
L 273.510478 278.235895 
L 272.840014 278.792519 
L 272.838153 279.256436 
L 272.611811 279.978799 
L 272.586124 281.114751 
L 271.519562 281.259678 
L 270.566915 281.437147 
L 269.664525 280.903227 
L 268.900621 281.15751 
L 268.044393 280.3992 
L 267.264109 279.697649 
L 266.36842 279.114537 
L 266.000986 278.518559 
L 265.250856 278.136376 
L 261.136867 278.815223 
L 260.993914 279.284438 
L 260.681949 279.890254 
L 259.459777 280.033288 
L 258.794525 279.355955 
L 257.862354 278.820899 
L 256.67108 278.498504 
L 255.570269 278.764518 
L 255.065094 279.931877 
L 254.500728 280.771544 
L 253.911048 281.642996 
L 253.365296 281.605534 
L 252.443175 281.128752 
L 250.89787 281.062154 
L 249.867418 281.834844 
L 250.049832 282.736568 
L 249.560293 284.01896 
L 249.457173 285.319138 
L 249.713297 286.506552 
L 249.906879 287.712509 
L 250.090038 288.57942 
L 249.875236 289.676397 
L 248.844784 289.968142 
L 248.474373 290.704506 
L 249.655967 292.13296 
L 249.982823 293.380919 
L 250.782093 293.739262 
L 252.328515 293.226532 
L 252.040004 294.34697 
L 253.045513 295.247559 
L 254.171639 295.531736 
L 254.409149 295.597199 
L 255.381154 296.586711 
L 256.117138 297.82294 
L 255.59335 299.44135 
L 255.303721 300.989757 
L 254.283321 300.48573 
L 253.112522 299.566978 
L 252.158386 298.748502 
L 251.190849 299.157173 
L 249.842476 298.413998 
L 248.517556 297.890673 
L 246.94098 297.349185 
L 245.408332 297.162256 
L 244.246096 296.846293 
L 243.337377 295.351997 
L 242.350854 294.57855 
L 241.350928 294.027224 
L 240.183852 293.670015 
L 239.389794 294.015115 
L 238.8634 294.689421 
L 238.114014 295.433731 
L 237.192266 295.587361 
L 236.426873 296.35324 
L 235.973445 297.164148 
L 235.441094 296.884133 
L 234.680913 296.238206 
L 234.276624 295.450759 
L 233.781873 294.521412 
L 233.046634 293.740398 
L 232.506838 293.263615 
L 231.652844 293.088038 
L 231.244088 292.559416 
L 231.239249 291.555903 
L 231.376617 290.569796 
L 231.449955 289.547742 
L 231.540417 288.595691 
L 231.271636 287.646667 
L 230.597078 286.766891 
L 229.683892 287.043122 
L 229.016779 287.520282 
L 228.33068 288.160154 
L 227.764452 288.029228 
L 227.108507 288.446223 
L 226.682255 289.220427 
L 225.994294 289.377841 
L 225.548683 290.521361 
L 224.762815 289.835703 
L 224.409528 290.028686 
L 223.85298 290.766185 
L 223.350039 291.605095 
L 223.102477 291.806024 
L 222.453233 291.153287 
L 221.772346 291.720128 
L 221.074334 292.205613 
L 220.153703 292.413354 
L 219.154522 292.628663 
L 218.788205 293.526224 
L 218.729386 293.87927 
L 217.783813 293.740776 
L 217.192271 294.038576 
L 216.932424 294.619039 
L 216.374387 294.623201 
L 215.91798 293.973491 
L 215.378166 293.591946 
L 215.223319 294.013223 
L 215.242305 294.785913 
L 215.673397 295.272533 
L 216.136877 295.925271 
L 216.404913 296.449353 
L 216.75969 297.113064 
L 216.610036 297.641308 
L 216.74182 297.979975 
L 217.058252 298.5979 
L 217.417124 299.375509 
L 217.563799 300.23296 
L 217.04969 300.619683 
L 216.487558 300.718067 
L 215.741523 300.959485 
L 215.007773 301.373453 
L 214.193239 301.630007 
L 213.445715 301.882021 
L 213.045522 301.341668 
L 212.287946 301.573248 
L 212.096225 301.857425 
L 211.740705 302.778069 
L 211.270524 303.457672 
L 211.229574 303.871262 
L 211.052744 304.637141 
L 210.670047 305.009485 
L 210.612345 306.146573 
L 210.205078 306.921911 
L 209.972036 307.186033 
L 209.51414 307.883422 
L 209.129582 308.786281 
L 208.84107 309.618001 
L 208.533945 310.066403 
L 208.335896 310.257116 
L 208.144175 310.834174 
L 208.097641 310.876555 
L 208.015369 311.621621 
L 207.851568 312.322794 
L 207.835933 312.855957 
L 207.629321 313.427718 
L 207.147228 313.928339 
L 206.612644 314.408905 
L 205.884106 314.721841 
L 205.377442 314.803575 
L 204.791484 314.591293 
L 204.539083 314.239382 
L 204.427773 313.787196 
L 203.960943 313.703192 
L 203.510865 314.168244 
L 202.916717 314.690055 
L 202.526575 315.11424 
L 202.010605 315.265221 
L 201.640193 315.33863 
L 200.885596 316.291438 
L 200.47684 317.189756 
L 200.120202 318.078614 
L 199.854027 318.889144 
L 199.485105 319.785949 
L 199.316093 320.082235 
L 199.169789 320.476904 
L 198.94717 320.885575 
L 198.639673 321.861086 
L 198.314306 322.698104 
L 197.997502 323.50485 
L 197.881725 323.930926 
L 197.359053 324.385761 
L 196.99162 324.664263 
L 196.835638 324.63891 
L 196.755227 323.982388 
L 196.731773 323.519607 
L 196.407151 322.624694 
L 196.355405 321.842166 
L 196.292863 320.952551 
L 195.866983 320.406144 
L 195.261295 319.406793 
L 195.184979 318.746488 
L 195.053939 318.130455 
L 195.071436 317.270355 
L 195.49136 316.886659 
L 195.639152 316.504855 
L 194.836159 316.418958 
L 194.174258 316.143106 
L 193.526875 315.822602 
L 193.077169 315.575886 
L 192.779723 314.794115 
L 193.32138 314.27533 
L 193.045154 313.697137 
L 192.445794 313.666109 
L 192.069426 313.30663 
L 191.777192 312.581618 
L 191.196818 312.356471 
L 190.255712 312.381446 
L 189.950076 311.995101 
L 189.750537 311.364689 
L 189.135542 311.485019 
L 188.99929 311.342742 
L 188.272986 311.141433 
L 187.484884 311.33366 
L 186.556063 311.075214 
L 185.541991 310.467884 
L 184.846213 309.750062 
L 184.23159 309.125704 
L 183.60766 308.71098 
L 183.090945 307.970832 
L 182.947993 307.168249 
L 182.63305 306.40956 
L 182.386977 305.738281 
L 181.770865 305.549838 
L 182.458453 304.846017 
L 182.603268 304.284473 
L 182.888801 304.045704 
L 183.100997 303.453888 
L 183.102114 303.045975 
L 182.959533 302.187388 
L 182.538864 301.334857 
L 182.820675 300.503137 
L 183.66983 299.913592 
L 184.250204 299.491299 
L 184.6705 298.963054 
L 185.187215 298.461298 
L 185.556137 297.824075 
L 185.770939 297.074846 
L 185.810027 296.590495 
L 185.862518 295.882133 
L 185.823802 294.940299 
L 185.92841 294.243668 
L 185.759026 293.601525 
L 185.667819 292.968086 
L 185.393454 292.642663 
L 185.043145 292.308537 
L 185.46977 291.760995 
L 185.72031 291.242589 
L 185.823432 290.953498 
L 185.493894 288.438435 
L 183.830851 284.630759 
L 182.260839 280.810804 
L 181.731484 279.461871 
L 181.065064 277.917366 
L 179.004707 274.662928 
L 175.711618 271.576941 
L 183.051596 269.698719 
L 185.082932 271.353722 
L 185.555336 272.776598 
L 185.480971 275.743253 
L 186.487449 278.591226 
L 187.099946 280.067152 
L 187.89452 282.489719 
L 188.470913 284.876199 
L 188.802239 286.927327 
L 189.942912 290.206857 
L 191.095035 291.954102 
L 191.179269 292.491083 
L 210.825887 287.123848 
L 212.648256 288.050896 
L 215.255707 289.20802 
L 216.90982 287.664904 
L 217.715752 285.260298 
L 218.551885 284.600204 
L 220.173879 283.656675 
L 219.715429 281.66122 
L 219.718098 279.500889 
L 220.883509 277.746636 
L 221.911366 275.515747 
L 222.840265 273.719097 
L 223.493183 271.880886 
L 222.957391 268.762004 
L 222.790466 266.233752 
L 223.445384 265.321481 
L 227.021549 261.699515 
L 226.310195 258.72147 
L 223.10535 256.248532 
L 221.560722 254.592695 
L 220.043783 253.154694 
L 217.710023 251.162271 
L 213.263559 250.594887 
L 221.529294 245.726788 
L 218.681951 242.681154 
L 218.437034 241.534781 
L 217.722034 239.113074 
L 216.544906 237.090004 
L 214.108643 234.548359 
L 216.432198 232.986318 
L 217.860637 230.474925 
L 220.087932 229.930201 
L 221.581251 229.127259 
L 221.814826 227.666673 
L 222.462566 224.581345 
L 225.783351 227.404612 
L 227.727654 224.268488 
L 227.612936 222.327158 
L 227.078425 219.777915 
L 223.792942 217.854737 
L 222.652451 214.953744 
L 221.781854 211.799033 
L 219.60792 209.468192 
L 216.972366 208.102662 
L 212.966289 205.700793 
L 210.423684 203.680522 
L 213.4919 200.602257 
L 215.085666 198.69245 
L 216.178331 197.707141 
L 216.450326 195.084618 
L 215.12286 191.500669 
L 213.924054 188.881343 
L 212.614487 186.842787 
L 210.505858 183.323959 
L 210.107567 181.323479 
L 208.234944 178.35246 
L 203.699281 178.313556 
L 203.926458 174.652318 
L 204.356028 172.837557 
L 206.463665 164.482654 
L 204.471603 162.797282 
L 203.692193 159.70782 
L 202.05367 158.569443 
L 198.646768 157.442809 
L 195.505484 158.515322 
L 190.300364 155.919598 
L 191.249363 153.062457 
L 187.887795 149.373073 
L 186.32351 147.845842 
L 184.631566 147.13386 
L 183.097157 145.355515 
L 181.846702 143.110634 
L 223.208984 138.611684 
L 235.303155 133.92 
L 235.494649 134.926138 
L 235.633073 135.496331 
L 235.337849 136.137457 
L 235.211331 136.978802 
L 235.116797 137.651821 
L 235.798719 139.292895 
L 236.169539 139.693046 
L 236.412993 140.833717 
L 236.822202 141.653207 
L 237.835603 142.988943 
L 238.250617 144.665907 
L 238.395297 145.975473 
L 238.468631 146.747884 
L 238.949891 148.357057 
L 239.392356 149.327964 
L 239.912919 150.860835 
L 240.025345 152.305115 
L 240.236275 153.546889 
L 240.785497 155.289914 
L 240.735183 157.239746 
L 240.544718 158.417743 
L 240.254045 159.596598 
L 240.06813 161.312321 
L 240.486957 162.982918 
L 241.672856 164.955742 
L 242.652369 166.224518 
L 244.265129 167.319797 
L 246.081736 168.816637 
L 247.190323 169.546522 
L 249.37182 170.737711 
L 250.748501 171.566108 
L 252.467764 172.780726 
L 254.115685 174.077311 
L 255.466697 175.813379 
L 256.177327 176.882769 
L 256.157077 178.429005 
L 256.354041 180.377747 
L 256.602159 181.572585 
L 256.057855 182.854062 
L 255.46592 184.001382 
L 254.326364 185.798708 
L 252.781751 186.973909 
L 251.865391 188.90337 
L 251.25803 190.606732 
L 251.048498 192.083222 
L 250.61613 193.47226 
L 250.451394 194.993053 
L 251.172303 196.193391 
L 251.181867 197.611304 
L 251.151904 199.309682 
L 251.161411 200.426785 
L 251.303026 201.408684 
L 251.710756 202.343597 
L 252.080542 204.038525 
L 252.266961 205.064723 
L 253.167845 206.531621 
L 253.487137 207.511982 
L 253.941584 208.71461 
L 254.837531 209.600611 
L 255.246808 210.714252 
L 255.66116 212.214919 
L 256.29443 213.550055 
L 256.66311 215.110917 
L 256.899306 216.7623 
L 257.056587 219.576229 
L 257.1626 220.491068 
L 257.224948 222.590826 
L 256.885631 224.470624 
L 256.721317 226.036099 
L 256.291253 227.69325 
L 256.929904 229.653953 
L 257.255725 231.393929 
L 257.580787 233.044536 
L 258.084673 234.827653 
L 258.580923 235.717094 
L 258.862742 236.993945 
L 259.634304 238.908799 
L 260.662069 239.614874 
L 262.572486 239.642979 
L 264.21562 239.584022 
L 265.681073 239.526603 
L 268.126049 239.728784 
L 270.258938 239.799607 
L 272.125694 239.917421 
L 274.080517 239.945087 
L 275.55326 240.736618 
L 277.961495 241.832793 
L 281.628866 244.70542 
L 282.212474 245.415308 
L 284.083066 246.841908 
L 285.790807 248.127347 
L 287.499258 249.494041 
L 289.286401 250.616221 
L 290.35355 251.211545 
L 294.372974 256.495675 
L 296.85737 257.898086 
L 296.947793 258.085855 
L 302.53819 254.844873 
L 317.451594 210.577929 
L 328.112094 214.122499 
L 325.296747 227.141133 
L 332.561971 238.470849 
L 332.925928 244.000012 
L 338.197181 250.234476 
L 346.622371 254.150913 
L 359.375365 254.373715 
L 383.838288 248.056128 
L 390.640984 246.506627 
L 398.823834 252.855146 
L 401.055198 259.922971 
L 407.07014 278.996966 
L 411.918169 273.423494 
L 411.4589 267.227458 
L 417.094558 261.213415 
L 435.206444 268.599721 
L 437.046207 281.34952 
L 438.375378 295.981997 
L 443.386069 294.221467 
L 444.827497 295.658705 
L 445.67115 297.376698 
L 446.475979 300.027467 
L 445.230412 304.057828 
L 446.091145 311.886577 
L 449.548831 311.434296 
L 454.647894 309.606545 
L 456.814067 312.615266 
L 463.889713 315.36222 
L 466.015482 315.26684 
L 466.558847 318.125107 
L 465.839174 323.434112 
L 467.744023 326.876311 
L 480.383439 330.144756 
L 481.39647 340.137996 
L 478.940768 340.951856 
L 477.406726 342.467154 
L 475.429952 343.930943 
L 474.215385 344.108956 
L 472.664593 343.789704 
L 469.40984 344.542513 
L 467.872203 345.668643 
" clip-path="url(#pe7ffc34d45)" style="fill: #e0bd1f; stroke: #0000ff; stroke-width: 0.5"/>
    <path d="M 432.530953 363.644506 
L 434.848235 375.099053 
L 436.385328 380.868883 
L 437.745398 384.888632 
L 441.08584 394.989651 
L 443.874555 407.425124 
L 437.631394 407.891535 
L 430.529632 406.03903 
L 425.549103 393.953094 
L 423.275819 390.136857 
L 423.986215 398.970346 
L 424.25469 402.596932 
L 423.532639 402.28846 
L 422.896869 402.183938 
L 422.257232 402.080373 
L 421.635673 401.970993 
L 420.966944 401.870473 
L 420.553493 401.688516 
L 420.027708 401.383299 
L 419.463665 401.054386 
L 418.920338 400.726082 
L 418.325831 400.364417 
L 417.847766 400.056927 
L 417.389292 400.194537 
L 416.762532 400.317478 
L 416.14107 400.438253 
L 415.217029 400.615962 
L 414.446782 400.45675 
L 413.92786 400.074292 
L 413.379576 399.664931 
L 412.830599 399.254554 
L 412.294145 398.855382 
L 411.759592 398.455516 
L 411.190737 398.031177 
L 410.653199 397.628063 
L 410.381269 397.24791 
L 410.150875 396.539998 
L 409.818618 395.49457 
L 409.860305 394.878079 
L 409.896932 394.393454 
L 409.949641 393.694895 
L 409.625426 393.183879 
L 409.203392 392.530492 
L 408.735466 392.116031 
L 408.467008 391.881889 
L 408.334507 391.262482 
L 408.207125 390.667197 
L 408.066969 390.0121 
L 407.921272 389.338889 
L 407.859507 389.051375 
L 407.679392 388.445458 
L 407.436614 387.628649 
L 407.474765 386.9364 
L 407.541937 385.745109 
L 407.440405 385.091615 
L 407.337554 384.439524 
L 407.295232 383.987932 
L 407.228916 383.746076 
L 407.082889 382.715902 
L 406.95786 381.995211 
L 406.90683 381.534899 
L 407.061763 380.941878 
L 407.258208 380.260221 
L 407.413806 379.784861 
L 407.328254 379.324434 
L 407.088284 378.862471 
L 406.737167 378.347116 
L 406.370782 377.80842 
L 406.010452 377.27149 
L 405.679387 376.784869 
L 405.47396 376.480104 
L 404.933843 376.190222 
L 404.394144 375.900421 
L 403.851582 375.608972 
L 403.27302 375.301225 
L 402.728707 375.009297 
L 402.20333 374.726931 
L 401.70169 374.459201 
L 401.232551 374.20193 
L 401.858079 373.915895 
L 402.507824 373.621873 
L 403.159434 373.327304 
L 403.773145 373.048856 
L 404.390164 372.770032 
L 404.969636 372.50682 
L 405.333154 372.344301 
L 405.925059 372.212179 
L 406.577092 372.068803 
L 407.190389 371.934098 
L 407.580756 371.851161 
L 408.24236 371.842714 
L 408.994053 371.83683 
L 409.638836 371.877315 
L 410.308545 371.918002 
L 410.940103 371.956008 
L 411.612893 371.998117 
L 412.259862 372.03982 
L 412.899673 372.075323 
L 413.732307 372.125939 
L 414.366268 371.926972 
L 414.938358 371.745378 
L 415.368453 371.607127 
L 415.869068 371.193225 
L 416.352008 370.789083 
L 416.882369 370.363723 
L 417.891741 369.551729 
L 418.164825 369.333162 
L 418.576691 368.915527 
L 419.014341 368.475199 
L 419.401923 368.089498 
L 419.901394 367.674324 
L 420.361733 367.294184 
L 420.519925 367.169671 
L 420.991172 367.027582 
L 421.461467 366.644275 
L 421.967836 366.234069 
L 422.505929 365.798544 
L 422.982519 365.412791 
L 423.246021 365.201791 
L 423.859026 364.985322 
L 424.64242 364.71085 
L 425.273875 364.602278 
L 425.978849 364.484789 
L 426.639622 364.372835 
L 427.17921 364.281405 
L 427.659387 364.105586 
L 428.009867 364.108398 
L 428.350574 364.115877 
L 428.979923 364.009917 
L 429.605619 363.900149 
L 430.189367 363.786802 
L 430.81378 363.738167 
L 431.444079 363.699739 
L 432.024411 363.667084 
L 432.530953 363.644506 
" clip-path="url(#pe7ffc34d45)" style="fill: #e0bd1f; stroke: #0000ff; stroke-width: 0.5"/>
    <path d="M 298.01532 331.158717 
L 303.786785 332.01366 
L 308.840019 334.077098 
L 314.631138 338.491233 
L 319.610413 339.607322 
L 322.687848 340.898384 
L 325.853199 341.953954 
L 327.029327 342.629822 
L 330.468089 344.500185 
L 335.082347 344.468058 
L 337.326229 344.835943 
L 339.594739 344.280254 
L 341.115685 348.198288 
L 343.322842 351.011718 
L 348.475513 354.706724 
L 348.592848 354.787879 
L 348.870454 353.915713 
L 350.721424 353.500662 
L 352.754511 353.111415 
L 353.162763 353.412089 
L 369.093589 363.062424 
L 360.855761 379.618372 
L 356.503526 388.564329 
L 357.628208 391.688096 
L 357.963806 392.612713 
L 358.000269 392.71268 
L 352.254739 394.468624 
L 350.592549 394.973343 
L 344.465386 396.854087 
L 344.365016 396.6192 
L 343.563088 394.732583 
L 344.492077 386.565093 
L 343.739542 384.993438 
L 342.663405 384.803348 
L 342.575143 383.780135 
L 342.946809 382.178716 
L 336.350935 379.737961 
L 336.874943 366.130133 
L 332.196169 367.552056 
L 320.745837 366.939923 
L 319.8709 367.606591 
L 316.490216 368.645158 
L 312.26437 368.702255 
L 311.237583 368.992449 
L 304.819091 369.834885 
L 309.931857 353.930035 
L 312.20904 351.040589 
L 310.130343 349.4935 
L 309.723773 347.844091 
L 308.440713 346.360087 
L 307.607329 344.463398 
L 306.320495 343.189121 
L 305.508984 341.331487 
L 304.320405 339.043254 
L 303.882989 338.057304 
L 301.911932 336.942145 
L 298.202528 335.99701 
L 297.491709 335.084592 
L 295.826266 334.108966 
L 294.437401 333.28165 
L 294.579268 333.191177 
L 296.48565 333.001832 
L 296.986985 332.190835 
L 298.01532 331.158717 
" clip-path="url(#pe7ffc34d45)" style="fill: #e0bd1f; stroke: #0000ff; stroke-width: 0.5"/>
   </g>
   <g id="PatchCollection_2">
    <path d="M 467.872203 345.668643 
L 465.668194 346.467329 
L 462.412048 347.227195 
L 459.552591 348.747574 
L 457.785211 348.930639 
L 455.849887 350.119067 
L 456.456321 353.623265 
L 454.867143 363.46384 
L 465.964938 359.559258 
L 468.101221 359.14406 
L 472.980969 358.934147 
L 475.114103 358.343527 
L 480.069064 355.973973 
L 483.920029 353.66647 
L 486.083166 352.60475 
L 489.665347 351.822288 
L 490.883361 350.930855 
L 493.798179 348.484579 
L 496.067861 345.868816 
L 499.231628 341.641016 
L 502.81048 336.231595 
L 503.584418 334.837463 
L 504.980816 340.220874 
L 507.135466 343.368021 
L 509.271944 344.535813 
L 512.520783 346.801734 
L 520.176776 348.868073 
L 522.467827 349.717617 
L 525.638024 351.984144 
L 527.940082 354.021235 
L 528.422685 355.125222 
L 531.983643 357.071301 
L 533.594603 358.520406 
L 534.095568 361.603678 
L 534.834927 364.922245 
L 534.945955 368.40507 
L 534.733268 370.94079 
L 537.888991 371.623726 
L 540.974086 373.178263 
L 545.002456 374.565525 
L 548.559212 376.03637 
L 551.887921 378.38029 
L 553.256566 381.613654 
L 554.057884 383.110459 
L 555.9459 382.934253 
L 557.045886 382.686316 
L 558.9339 382.510098 
L 560.356192 383.050879 
L 562.288382 384.191919 
L 536.310023 434.268781 
L 533.649418 432.694338 
L 528.888126 431.471032 
L 526.660964 431.492016 
L 524.488719 431.647387 
L 523.093885 431.714483 
L 522.158974 432.181996 
L 519.936056 432.661619 
L 518.325542 432.622796 
L 512.358887 430.918175 
L 509.996588 429.388789 
L 507.045528 429.483915 
L 505.765318 428.88878 
L 503.408659 427.966426 
L 499.337594 428.058361 
L 508.009718 453.044514 
L 511.392726 452.200935 
L 514.864084 450.312693 
L 521.956308 449.340488 
L 526.646801 447.239836 
L 530.185732 443.775728 
L 532.354702 443.211312 
L 534.220258 443.917683 
L 535.43881 444.810112 
L 537.240594 445.210286 
L 539.03427 444.741359 
L 541.720066 443.53388 
L 544.599651 442.676304 
L 547.14447 458.938225 
L 549.656498 463.024571 
L 548.867383 465.244657 
L 548.89311 467.989523 
L 550.059556 469.784439 
L 549.732169 473.182812 
L 548.529085 475.144713 
L 546.659061 474.945752 
L 545.439851 475.793809 
L 544.882002 477.605103 
L 543.541284 480.218463 
L 543.122384 481.522757 
L 542.858683 484.053659 
L 542.871544 485.426096 
L 542.53532 487.885447 
L 542.191649 489.550229 
L 542.780655 491.061678 
L 543.373058 492.93429 
L 542.244467 495.184447 
L 539.955003 497.13024 
L 537.954033 498.305072 
L 536.445177 498.319387 
L 534.782479 497.251549 
L 533.199066 496.977596 
L 531.690211 496.991892 
L 530.624614 498.302313 
L 530.437437 501.338187 
L 529.947317 502.7154 
L 528.528524 504.679333 
L 528.403056 506.631017 
L 528.718843 509.66213 
L 528.854215 514.477695 
L 530.833329 519.222039 
L 531.322704 520.884484 
L 531.334603 522.154533 
L 532.597578 524.863738 
L 529.598853 525.647864 
L 526.642882 532.666467 
L 525.927067 543.779304 
L 522.169204 549.970751 
L 522.92085 563.058983 
L 547.993544 580.085126 
L 516.012983 591.580395 
L 541.612006 621.000311 
L 536.510032 623.640307 
L 534.532348 624.133583 
L 530.507644 627.777221 
L 525.895051 629.149491 
L 524.214797 631.157865 
L 522.248671 632.884343 
L 519.53722 635.661531 
L 517.468622 636.535109 
L 514.744614 637.984165 
L 513.906678 639.225505 
L 512.972559 640.278013 
L 511.75614 641.428081 
L 511.105195 642.477893 
L 507.918956 644.974938 
L 506.519956 646.790856 
L 505.113821 647.847842 
L 502.445815 648.972479 
L 506.573492 654.451609 
L 506.792325 654.539809 
L 503.794402 676.613919 
L 499.666436 686.555162 
L 498.005891 698.623607 
L 498.584685 700.040841 
L 499.942725 701.902021 
L 499.953203 703.014676 
L 503.433032 707.373951 
L 503.507876 709.130215 
L 504.722666 719.713263 
L 507.845293 733.572461 
L 501.444193 730.799493 
L 499.801675 729.300145 
L 498.378732 726.763548 
L 494.535894 726.402547 
L 491.163327 726.381081 
L 486.945307 726.663319 
L 486.063609 727.06904 
L 479.310985 731.317708 
L 477.846354 733.119694 
L 477.060885 733.557206 
L 473.169614 732.766741 
L 470.458986 732.058605 
L 469.087209 729.807822 
L 468.000216 730.405661 
L 466.520949 731.402345 
L 466.025745 732.610545 
L 467.947908 734.875102 
L 468.936656 736.440647 
L 470.022675 737.445414 
L 464.187232 736.594864 
L 462.734703 736.591588 
L 461.685658 737.278584 
L 459.66681 737.471659 
L 458.230043 737.831607 
L 455.811067 737.749708 
L 454.12712 738.72 
L 454.022445 736.9722 
L 454.045607 734.111953 
L 451.767157 731.146158 
L 454.505617 730.167356 
L 457.257263 730.100047 
L 457.243065 728.821525 
L 452.9596 725.924337 
L 453.183025 724.119094 
L 453.977736 720.623737 
L 453.629088 717.640462 
L 453.687702 716.800323 
L 451.907599 712.257254 
L 450.10776 712.979597 
L 447.292738 713.652447 
L 447.694299 710.708967 
L 449.30217 708.006221 
L 453.36027 707.613051 
L 454.542928 703.432837 
L 453.488908 700.500814 
L 455.406778 699.481825 
L 457.14458 698.891439 
L 458.466739 695.096632 
L 458.800758 692.79655 
L 461.392238 693.579148 
L 463.595909 696.994697 
L 466.194286 699.583501 
L 469.276318 694.795569 
L 469.631335 692.460367 
L 466.906968 690.960885 
L 464.933422 690.280313 
L 463.743319 688.917326 
L 462.362027 686.386298 
L 463.122014 683.810574 
L 458.488211 673.148224 
L 456.204172 673.620106 
L 452.866052 674.454608 
L 450.756036 675.344798 
L 449.063379 677.070801 
L 446.939068 675.95792 
L 445.173967 674.205026 
L 444.039406 672.725434 
L 443.821146 670.744053 
L 442.658677 666.775059 
L 438.582683 665.12652 
L 435.090435 669.940077 
L 433.741755 672.148739 
L 432.89884 679.121156 
L 428.048059 682.792964 
L 432.148752 684.198919 
L 431.423891 689.175772 
L 435.6568 688.015876 
L 435.771207 688.575217 
L 433.11856 690.799904 
L 426.037436 693.8063 
L 423.159296 694.762345 
L 417.334837 701.771316 
L 419.45462 706.84328 
L 415.785497 709.828672 
L 414.380017 709.960279 
L 407.470965 716.117152 
L 405.553903 720.144259 
L 404.252494 723.27699 
L 403.016621 721.980623 
L 397.126175 720.014246 
L 394.211471 717.296487 
L 396.847998 713.222144 
L 394.610104 710.354953 
L 385.896479 712.892163 
L 381.290969 708.428724 
L 376.766897 705.864346 
L 378.897991 701.691863 
L 376.599084 696.70761 
L 376.38831 695.757519 
L 375.155442 692.738561 
L 372.541599 689.383751 
L 370.038389 691.300227 
L 363.889834 693.840432 
L 361.7985 691.837868 
L 361.152845 688.561066 
L 359.85866 686.858412 
L 358.765524 683.950282 
L 363.639762 680.594077 
L 357.796516 673.099408 
L 354.952114 671.517693 
L 353.185968 668.634963 
L 353.083384 665.920553 
L 349.315026 663.16487 
L 345.466087 661.022841 
L 341.693423 660.446305 
L 337.281271 658.781256 
L 324.413712 659.268103 
L 315.354181 658.865508 
L 314.847301 658.374912 
L 312.962173 655.937531 
L 309.508546 654.787385 
L 300.753579 653.626364 
L 302.474449 650.455479 
L 301.817907 646.877703 
L 302.160519 643.245531 
L 297.762743 640.471541 
L 295.199987 639.247093 
L 292.250499 635.847436 
L 292.840262 633.081113 
L 297.492691 626.363984 
L 293.071278 625.5432 
L 292.26258 625.069984 
L 289.812341 621.004135 
L 292.177619 620.672808 
L 293.199872 620.948336 
L 295.119952 620.247781 
L 295.566083 619.446589 
L 298.551894 617.540671 
L 300.698041 616.781124 
L 302.218491 615.742492 
L 304.149084 613.901749 
L 305.268635 613.374515 
L 300.384216 606.826191 
L 303.556657 589.102037 
L 325.792823 587.721662 
L 342.931463 549.393731 
L 359.47201 529.513167 
L 374.508678 512.648309 
L 374.515766 506.373317 
L 376.23485 507.610771 
L 381.075984 521.058854 
L 393.420857 529.379768 
L 412.398704 503.916061 
L 411.982186 503.657727 
L 411.125339 502.286156 
L 411.107045 500.270207 
L 411.301762 498.464523 
L 411.339023 495.846432 
L 417.79169 473.680086 
L 405.45917 472.855443 
L 402.104732 471.246908 
L 406.318047 456.314246 
L 409.220235 447.509249 
L 411.720462 441.794875 
L 412.946122 441.337692 
L 413.794072 441.471823 
L 415.826264 441.027518 
L 416.827873 440.972699 
L 416.392849 435.531274 
L 410.222696 437.916871 
L 405.238987 437.539163 
L 403.488685 436.853368 
L 400.118506 435.929984 
L 398.812108 435.432249 
L 397.113544 434.466924 
L 395.944186 432.144369 
L 400.328732 427.532389 
L 397.903329 417.941238 
L 391.14942 422.707061 
L 390.537255 423.934223 
L 388.006121 425.157865 
L 384.659683 429.621272 
L 382.759285 428.558182 
L 376.244012 427.56169 
L 372.164338 429.436527 
L 369.653921 429.056312 
L 366.839551 429.745909 
L 364.862243 428.938567 
L 365.007571 428.024831 
L 362.511075 425.234348 
L 360.716396 428.157174 
L 358.376988 427.106326 
L 356.03188 424.629926 
L 353.119467 423.141226 
L 348.04137 428.798453 
L 346.447632 428.60011 
L 345.74184 428.136101 
L 345.311689 427.105183 
L 345.583573 426.114991 
L 343.832068 423.778946 
L 343.637049 422.887021 
L 342.821051 420.542563 
L 342.019648 419.844221 
L 340.196307 419.954657 
L 339.311771 420.432951 
L 338.514536 420.204923 
L 337.403331 419.710876 
L 338.125568 417.849398 
L 340.791289 416.11029 
L 343.763499 412.4419 
L 343.59714 411.295077 
L 344.295967 408.281804 
L 342.829455 407.512113 
L 343.037946 406.94981 
L 342.182161 406.865223 
L 340.072961 406.440464 
L 337.108117 403.381564 
L 335.860668 402.835108 
L 333.831892 401.145759 
L 332.46253 400.658687 
L 331.160898 400.075127 
L 330.796828 399.560638 
L 329.639098 399.16507 
L 328.350399 399.070743 
L 327.177409 399.867141 
L 325.762981 400.652001 
L 324.365298 401.597231 
L 321.742998 402.661147 
L 320.97496 401.537498 
L 320.247209 399.762835 
L 319.551412 398.520052 
L 318.335987 397.42187 
L 316.382759 397.311415 
L 314.9508 397.583704 
L 313.626885 398.877671 
L 312.594364 400.185508 
L 311.967943 398.370999 
L 312.627626 397.374938 
L 312.749349 396.511663 
L 314.056397 394.684449 
L 314.616743 393.664951 
L 315.312788 393.095738 
L 315.503175 394.223375 
L 317.001162 395.832037 
L 317.762175 395.31172 
L 318.082564 394.940866 
L 318.564624 393.533318 
L 318.162795 392.097003 
L 317.946666 390.191679 
L 319.705662 391.320608 
L 320.222737 392.497826 
L 321.462599 393.457517 
L 322.417286 393.482805 
L 322.856478 391.671148 
L 323.828818 391.338061 
L 324.393671 392.15683 
L 325.68323 393.108891 
L 327.5174 393.260889 
L 329.398681 393.050857 
L 329.579668 392.157497 
L 329.529256 390.905793 
L 328.191572 390.134205 
L 326.937941 386.583139 
L 325.337584 386.08933 
L 324.172669 384.962844 
L 323.383816 383.674953 
L 322.675202 383.771263 
L 321.05699 383.576984 
L 320.133671 383.261405 
L 316.513174 382.714113 
L 314.991785 383.103704 
L 313.497005 383.219821 
L 312.489664 382.279746 
L 311.771694 380.662498 
L 311.072397 379.576929 
L 308.994285 380.367062 
L 308.073421 381.025222 
L 306.408308 382.827155 
L 302.427511 382.926594 
L 302.511025 385.650984 
L 305.117703 386.584966 
L 305.837302 387.516334 
L 303.797603 387.807474 
L 301.612291 386.569985 
L 299.319216 385.736891 
L 297.342858 388.610745 
L 298.198968 389.424169 
L 295.343262 389.410344 
L 292.324146 392.502251 
L 295.903912 394.727203 
L 299.981358 393.85084 
L 300.598277 394.438332 
L 299.119223 396.20119 
L 298.949209 398.403007 
L 298.086586 399.096013 
L 296.1924 401.89085 
L 289.922299 400.840396 
L 289.421371 398.788257 
L 286.03959 397.777318 
L 283.139107 395.495404 
L 282.36376 394.712073 
L 282.565145 393.357248 
L 273.761144 390.804003 
L 273.387756 392.692646 
L 272.199517 392.526627 
L 269.242794 391.284173 
L 267.310475 392.232285 
L 268.599159 393.902045 
L 265.934025 398.109038 
L 263.741906 399.169418 
L 262.342745 397.508831 
L 260.324839 395.39543 
L 257.943768 394.141176 
L 257.587307 395.976992 
L 255.699197 396.363799 
L 254.434568 395.138799 
L 254.305955 393.951843 
L 252.239692 393.558641 
L 250.573007 396.524913 
L 249.021397 397.204343 
L 248.804538 399.011361 
L 248.154692 400.835066 
L 247.79822 403.342659 
L 245.644063 402.983439 
L 246.157043 400.356016 
L 247.130281 399.641565 
L 246.930264 397.840789 
L 247.952296 394.749346 
L 247.814197 391.382126 
L 240.5107 392.046932 
L 240.615574 390.39552 
L 227.588462 386.220404 
L 232.111362 370.733981 
L 237.697598 373.437926 
L 246.182654 369.340871 
L 252.224027 371.239043 
L 254.144173 365.394113 
L 254.660958 360.500351 
L 260.632707 346.771524 
L 263.645647 341.806787 
L 270.445233 337.502314 
L 277.598599 338.32656 
L 282.810673 327.371762 
L 282.155062 323.461386 
L 282.876109 323.067651 
L 283.12547 323.284988 
L 283.531198 323.468626 
L 283.951179 323.477765 
L 284.158301 323.753817 
L 284.71193 324.175048 
L 285.251157 324.064019 
L 286.243939 324.153258 
L 286.980682 324.541415 
L 287.036955 325.257364 
L 288.193657 325.326143 
L 289.024146 324.813981 
L 289.437011 324.714983 
L 289.798033 324.980816 
L 290.624933 323.652341 
L 290.752437 323.159716 
L 290.950518 322.837953 
L 291.71418 322.651217 
L 292.107209 322.901237 
L 292.653547 322.609764 
L 293.688509 321.378712 
L 294.318557 321.616899 
L 294.65766 321.547141 
L 294.807878 321.70833 
L 295.30326 322.553334 
L 295.266852 323.02068 
L 295.652829 323.917632 
L 295.591826 324.239167 
L 295.91999 324.465087 
L 296.470514 324.661705 
L 296.905719 324.688021 
L 297.383118 324.551747 
L 298.509738 324.990329 
L 298.994606 325.198042 
L 299.394515 324.444671 
L 299.929144 324.379695 
L 301.499443 323.523948 
L 301.216369 322.973572 
L 301.213753 322.423283 
L 300.850712 322.259611 
L 300.910755 322.152889 
L 302.191963 322.087637 
L 303.428118 320.406681 
L 303.396102 320.126105 
L 302.367972 318.882397 
L 302.431311 318.588712 
L 301.404444 317.658019 
L 301.116206 317.323402 
L 301.828676 317.246332 
L 301.446141 316.642554 
L 301.684831 316.336138 
L 301.556187 315.956016 
L 312.434353 311.210671 
L 316.842464 306.755255 
L 314.026878 302.941035 
L 314.287465 302.832203 
L 314.432006 301.830814 
L 314.445593 301.317173 
L 314.668193 300.922009 
L 314.72465 300.480664 
L 315.197888 300.820252 
L 315.533853 300.729371 
L 315.543875 301.234909 
L 315.85485 300.963564 
L 316.641627 299.635798 
L 317.062299 299.572161 
L 318.177085 299.633221 
L 319.191016 299.687171 
L 319.688921 299.492503 
L 319.964942 299.530524 
L 320.463861 299.862477 
L 320.820822 299.814107 
L 321.03223 298.974955 
L 320.547546 294.683745 
L 312.435345 285.12237 
L 311.374739 284.718998 
L 306.972238 278.922689 
L 306.063892 278.301358 
L 305.235584 278.907553 
L 304.488805 280.025342 
L 304.499601 280.441959 
L 304.210345 280.840412 
L 303.82467 281.16697 
L 303.517544 281.264597 
L 303.261048 281.532503 
L 302.906272 281.633914 
L 302.659083 281.582452 
L 301.057564 282.647266 
L 300.602647 282.408118 
L 300.227023 282.503096 
L 299.871875 282.208323 
L 299.610167 282.262056 
L 299.576662 282.436876 
L 299.403183 282.567045 
L 299.09308 282.399414 
L 298.183244 282.494771 
L 297.683282 282.369521 
L 297.110726 282.525043 
L 296.846412 282.843654 
L 296.839711 283.948957 
L 293.071936 286.461523 
L 290.593714 289.101988 
L 291.278324 288.025444 
L 291.186373 285.964686 
L 290.842393 284.991445 
L 289.892724 283.091884 
L 289.12063 282.472067 
L 288.22308 282.167456 
L 287.37802 281.493528 
L 286.760791 280.657646 
L 285.964499 279.948527 
L 284.088988 279.488016 
L 282.383605 278.543155 
L 281.524399 278.255193 
L 280.034562 277.238437 
L 279.48881 276.62089 
L 277.699666 277.160108 
L 277.34489 277.975557 
L 276.553437 278.43796 
L 275.595951 278.713434 
L 273.510478 278.235895 
L 272.840014 278.792519 
L 272.838153 279.256436 
L 272.611811 279.978799 
L 272.586124 281.114751 
L 270.566915 281.437147 
L 269.664525 280.903227 
L 268.900621 281.15751 
L 267.264109 279.697649 
L 266.36842 279.114537 
L 266.000986 278.518559 
L 265.250856 278.136376 
L 261.136867 278.815223 
L 260.993914 279.284438 
L 260.681949 279.890254 
L 259.459777 280.033288 
L 258.794525 279.355955 
L 257.862354 278.820899 
L 256.67108 278.498504 
L 255.570269 278.764518 
L 255.065094 279.931877 
L 253.911048 281.642996 
L 253.365296 281.605534 
L 252.443175 281.128752 
L 250.89787 281.062154 
L 249.867418 281.834844 
L 250.049832 282.736568 
L 249.560293 284.01896 
L 249.457173 285.319138 
L 250.090038 288.57942 
L 249.875236 289.676397 
L 248.844784 289.968142 
L 248.474373 290.704506 
L 249.655967 292.13296 
L 249.982823 293.380919 
L 250.782093 293.739262 
L 252.328515 293.226532 
L 252.040004 294.34697 
L 253.045513 295.247559 
L 254.409149 295.597199 
L 255.381154 296.586711 
L 256.117138 297.82294 
L 255.59335 299.44135 
L 255.303721 300.989757 
L 254.283321 300.48573 
L 252.158386 298.748502 
L 251.190849 299.157173 
L 249.842476 298.413998 
L 246.94098 297.349185 
L 245.408332 297.162256 
L 244.246096 296.846293 
L 243.337377 295.351997 
L 242.350854 294.57855 
L 241.350928 294.027224 
L 240.183852 293.670015 
L 239.389794 294.015115 
L 238.8634 294.689421 
L 238.114014 295.433731 
L 237.192266 295.587361 
L 236.426873 296.35324 
L 235.973445 297.164148 
L 235.441094 296.884133 
L 234.680913 296.238206 
L 233.781873 294.521412 
L 232.506838 293.263615 
L 231.652844 293.088038 
L 231.244088 292.559416 
L 231.239249 291.555903 
L 231.540417 288.595691 
L 231.271636 287.646667 
L 230.597078 286.766891 
L 229.683892 287.043122 
L 229.016779 287.520282 
L 228.33068 288.160154 
L 227.764452 288.029228 
L 227.108507 288.446223 
L 226.682255 289.220427 
L 225.994294 289.377841 
L 225.548683 290.521361 
L 224.762815 289.835703 
L 224.409528 290.028686 
L 223.102477 291.806024 
L 222.453233 291.153287 
L 221.074334 292.205613 
L 219.154522 292.628663 
L 218.729386 293.87927 
L 217.783813 293.740776 
L 217.192271 294.038576 
L 216.932424 294.619039 
L 216.374387 294.623201 
L 215.91798 293.973491 
L 215.378166 293.591946 
L 215.223319 294.013223 
L 215.242305 294.785913 
L 216.136877 295.925271 
L 216.75969 297.113064 
L 216.610036 297.641308 
L 217.058252 298.5979 
L 217.417124 299.375509 
L 217.563799 300.23296 
L 217.04969 300.619683 
L 215.741523 300.959485 
L 215.007773 301.373453 
L 213.445715 301.882021 
L 213.045522 301.341668 
L 212.287946 301.573248 
L 212.096225 301.857425 
L 211.740705 302.778069 
L 211.270524 303.457672 
L 211.052744 304.637141 
L 210.670047 305.009485 
L 210.612345 306.146573 
L 209.972036 307.186033 
L 209.51414 307.883422 
L 208.533945 310.066403 
L 208.335896 310.257116 
L 208.097641 310.876555 
L 207.835933 312.855957 
L 207.629321 313.427718 
L 206.612644 314.408905 
L 205.884106 314.721841 
L 205.377442 314.803575 
L 204.791484 314.591293 
L 204.539083 314.239382 
L 204.427773 313.787196 
L 203.960943 313.703192 
L 202.526575 315.11424 
L 201.640193 315.33863 
L 200.885596 316.291438 
L 200.120202 318.078614 
L 199.485105 319.785949 
L 198.94717 320.885575 
L 198.314306 322.698104 
L 197.881725 323.930926 
L 196.99162 324.664263 
L 196.835638 324.63891 
L 196.731773 323.519607 
L 196.407151 322.624694 
L 196.292863 320.952551 
L 195.866983 320.406144 
L 195.261295 319.406793 
L 195.071436 317.270355 
L 195.49136 316.886659 
L 195.639152 316.504855 
L 194.836159 316.418958 
L 193.077169 315.575886 
L 192.779723 314.794115 
L 193.32138 314.27533 
L 193.045154 313.697137 
L 192.445794 313.666109 
L 192.069426 313.30663 
L 191.777192 312.581618 
L 191.196818 312.356471 
L 190.255712 312.381446 
L 189.950076 311.995101 
L 189.750537 311.364689 
L 189.135542 311.485019 
L 188.99929 311.342742 
L 188.272986 311.141433 
L 187.484884 311.33366 
L 186.556063 311.075214 
L 185.541991 310.467884 
L 184.23159 309.125704 
L 183.60766 308.71098 
L 183.090945 307.970832 
L 182.947993 307.168249 
L 182.386977 305.738281 
L 181.770865 305.549838 
L 182.458453 304.846017 
L 182.603268 304.284473 
L 182.888801 304.045704 
L 183.100997 303.453888 
L 183.102114 303.045975 
L 182.959533 302.187388 
L 182.538864 301.334857 
L 182.820675 300.503137 
L 184.250204 299.491299 
L 185.556137 297.824075 
L 185.810027 296.590495 
L 185.92841 294.243668 
L 185.393454 292.642663 
L 185.043145 292.308537 
L 185.46977 291.760995 
L 185.823432 290.953498 
L 185.493894 288.438435 
L 182.260839 280.810804 
L 181.065064 277.917366 
L 179.004707 274.662928 
L 175.711618 271.576941 
L 183.051596 269.698719 
L 185.082932 271.353722 
L 185.555336 272.776598 
L 185.480971 275.743253 
L 187.89452 282.489719 
L 188.470913 284.876199 
L 188.802239 286.927327 
L 189.942912 290.206857 
L 191.095035 291.954102 
L 191.179269 292.491083 
L 210.825887 287.123848 
L 212.648256 288.050896 
L 215.255707 289.20802 
L 216.90982 287.664904 
L 217.715752 285.260298 
L 218.551885 284.600204 
L 220.173879 283.656675 
L 219.715429 281.66122 
L 219.718098 279.500889 
L 220.883509 277.746636 
L 223.493183 271.880886 
L 222.957391 268.762004 
L 222.790466 266.233752 
L 223.445384 265.321481 
L 227.021549 261.699515 
L 226.310195 258.72147 
L 223.10535 256.248532 
L 221.560722 254.592695 
L 220.043783 253.154694 
L 217.710023 251.162271 
L 213.263559 250.594887 
L 221.529294 245.726788 
L 218.681951 242.681154 
L 218.437034 241.534781 
L 217.722034 239.113074 
L 216.544906 237.090004 
L 214.108643 234.548359 
L 216.432198 232.986318 
L 217.860637 230.474925 
L 220.087932 229.930201 
L 221.581251 229.127259 
L 221.814826 227.666673 
L 222.462566 224.581345 
L 225.783351 227.404612 
L 227.727654 224.268488 
L 227.612936 222.327158 
L 227.078425 219.777915 
L 223.792942 217.854737 
L 222.652451 214.953744 
L 221.781854 211.799033 
L 219.60792 209.468192 
L 216.972366 208.102662 
L 212.966289 205.700793 
L 210.423684 203.680522 
L 213.4919 200.602257 
L 215.085666 198.69245 
L 216.178331 197.707141 
L 216.450326 195.084618 
L 215.12286 191.500669 
L 213.924054 188.881343 
L 212.614487 186.842787 
L 210.505858 183.323959 
L 210.107567 181.323479 
L 208.234944 178.35246 
L 203.699281 178.313556 
L 203.926458 174.652318 
L 204.356028 172.837557 
L 206.463665 164.482654 
L 204.471603 162.797282 
L 203.692193 159.70782 
L 202.05367 158.569443 
L 198.646768 157.442809 
L 195.505484 158.515322 
L 190.300364 155.919598 
L 191.249363 153.062457 
L 187.887795 149.373073 
L 186.32351 147.845842 
L 184.631566 147.13386 
L 183.097157 145.355515 
L 181.846702 143.110634 
L 223.208984 138.611684 
L 235.303155 133.92 
L 235.633073 135.496331 
L 235.337849 136.137457 
L 235.116797 137.651821 
L 235.798719 139.292895 
L 236.169539 139.693046 
L 236.412993 140.833717 
L 236.822202 141.653207 
L 237.835603 142.988943 
L 238.250617 144.665907 
L 238.468631 146.747884 
L 238.949891 148.357057 
L 239.392356 149.327964 
L 239.912919 150.860835 
L 240.025345 152.305115 
L 240.236275 153.546889 
L 240.785497 155.289914 
L 240.735183 157.239746 
L 240.06813 161.312321 
L 240.486957 162.982918 
L 241.672856 164.955742 
L 242.652369 166.224518 
L 244.265129 167.319797 
L 246.081736 168.816637 
L 247.190323 169.546522 
L 250.748501 171.566108 
L 254.115685 174.077311 
L 256.177327 176.882769 
L 256.157077 178.429005 
L 256.354041 180.377747 
L 256.602159 181.572585 
L 255.46592 184.001382 
L 254.326364 185.798708 
L 252.781751 186.973909 
L 251.865391 188.90337 
L 251.25803 190.606732 
L 251.048498 192.083222 
L 250.61613 193.47226 
L 250.451394 194.993053 
L 251.172303 196.193391 
L 251.303026 201.408684 
L 251.710756 202.343597 
L 252.266961 205.064723 
L 253.167845 206.531621 
L 253.941584 208.71461 
L 254.837531 209.600611 
L 255.246808 210.714252 
L 255.66116 212.214919 
L 256.29443 213.550055 
L 256.66311 215.110917 
L 256.899306 216.7623 
L 257.224948 222.590826 
L 256.885631 224.470624 
L 256.721317 226.036099 
L 256.291253 227.69325 
L 256.929904 229.653953 
L 257.580787 233.044536 
L 258.084673 234.827653 
L 258.580923 235.717094 
L 258.862742 236.993945 
L 259.634304 238.908799 
L 260.662069 239.614874 
L 264.21562 239.584022 
L 265.681073 239.526603 
L 270.258938 239.799607 
L 274.080517 239.945087 
L 275.55326 240.736618 
L 277.961495 241.832793 
L 281.628866 244.70542 
L 282.212474 245.415308 
L 287.499258 249.494041 
L 290.35355 251.211545 
L 294.372974 256.495675 
L 296.85737 257.898086 
L 296.947793 258.085855 
L 302.53819 254.844873 
L 317.451594 210.577929 
L 328.112094 214.122499 
L 325.296747 227.141133 
L 332.561971 238.470849 
L 332.925928 244.000012 
L 338.197181 250.234476 
L 346.622371 254.150913 
L 359.375365 254.373715 
L 383.838288 248.056128 
L 390.640984 246.506627 
L 398.823834 252.855146 
L 407.07014 278.996966 
L 411.918169 273.423494 
L 411.4589 267.227458 
L 417.094558 261.213415 
L 435.206444 268.599721 
L 437.046207 281.34952 
L 438.375378 295.981997 
L 443.386069 294.221467 
L 444.827497 295.658705 
L 445.67115 297.376698 
L 446.475979 300.027467 
L 445.230412 304.057828 
L 446.091145 311.886577 
L 449.548831 311.434296 
L 454.647894 309.606545 
L 456.814067 312.615266 
L 463.889713 315.36222 
L 466.015482 315.26684 
L 466.558847 318.125107 
L 465.839174 323.434112 
L 467.744023 326.876311 
L 480.383439 330.144756 
L 481.39647 340.137996 
L 478.940768 340.951856 
L 477.406726 342.467154 
L 475.429952 343.930943 
L 474.215385 344.108956 
L 472.664593 343.789704 
L 469.40984 344.542513 
L 467.872203 345.668643 
L 467.872203 345.668643 
" clip-path="url(#pe7ffc34d45)" style="fill: none; stroke: #000000"/>
   </g>
   <g id="matplotlib.axis_1">
    <g id="xtick_1">
     <g id="line2d_1">
      <path d="M 204.615771 768.96 
L 204.615771 103.68 
" clip-path="url(#pe7ffc34d45)" style="fill: none; stroke: #b0b0b0; stroke-width: 0.8; stroke-linecap: square"/>
     </g>
     <g id="line2d_2">
      <defs>
       <path id="m3ac76d7eb1" d="M 0 0 
L 0 3.5 
" style="stroke: #000000; stroke-width: 0.8"/>
      </defs>
      <g>
       <use xlink:href="#m3ac76d7eb1" x="204.615771" y="768.96" style="stroke: #000000; stroke-width: 0.8"/>
      </g>
     </g>
     <g id="text_1">
      <!-- 48.25 -->
      <g transform="translate(193.482707 807.501382) rotate(-45) scale(0.1 -0.1)">
       <defs>
        <path id="DejaVuSans-2212" d="M 678 2272 
L 4684 2272 
L 4684 1741 
L 678 1741 
L 678 2272 
z
" transform="scale(0.015625)"/>
        <path id="DejaVuSans-34" d="M 2419 4116 
L 825 1625 
L 2419 1625 
L 2419 4116 
z
M 2253 4666 
L 3047 4666 
L 3047 1625 
L 3713 1625 
L 3713 1100 
L 3047 1100 
L 3047 0 
L 2419 0 
L 2419 1100 
L 313 1100 
L 313 1709 
L 2253 4666 
z
" transform="scale(0.015625)"/>
        <path id="DejaVuSans-38" d="M 2034 2216 
Q 1584 2216 1326 1975 
Q 1069 1734 1069 1313 
Q 1069 891 1326 650 
Q 1584 409 2034 409 
Q 2484 409 2743 651 
Q 3003 894 3003 1313 
Q 3003 1734 2745 1975 
Q 2488 2216 2034 2216 
z
M 1403 2484 
Q 997 2584 770 2862 
Q 544 3141 544 3541 
Q 544 4100 942 4425 
Q 1341 4750 2034 4750 
Q 2731 4750 3128 4425 
Q 3525 4100 3525 3541 
Q 3525 3141 3298 2862 
Q 3072 2584 2669 2484 
Q 3125 2378 3379 2068 
Q 3634 1759 3634 1313 
Q 3634 634 3220 271 
Q 2806 -91 2034 -91 
Q 1263 -91 848 271 
Q 434 634 434 1313 
Q 434 1759 690 2068 
Q 947 2378 1403 2484 
z
M 1172 3481 
Q 1172 3119 1398 2916 
Q 1625 2713 2034 2713 
Q 2441 2713 2670 2916 
Q 2900 3119 2900 3481 
Q 2900 3844 2670 4047 
Q 2441 4250 2034 4250 
Q 1625 4250 1398 4047 
Q 1172 3844 1172 3481 
z
" transform="scale(0.015625)"/>
        <path id="DejaVuSans-2e" d="M 684 794 
L 1344 794 
L 1344 0 
L 684 0 
L 684 794 
z
" transform="scale(0.015625)"/>
        <path id="DejaVuSans-32" d="M 1228 531 
L 3431 531 
L 3431 0 
L 469 0 
L 469 531 
Q 828 903 1448 1529 
Q 2069 2156 2228 2338 
Q 2531 2678 2651 2914 
Q 2772 3150 2772 3378 
Q 2772 3750 2511 3984 
Q 2250 4219 1831 4219 
Q 1534 4219 1204 4116 
Q 875 4013 500 3803 
L 500 4441 
Q 881 4594 1212 4672 
Q 1544 4750 1819 4750 
Q 2544 4750 2975 4387 
Q 3406 4025 3406 3419 
Q 3406 3131 3298 2873 
Q 3191 2616 2906 2266 
Q 2828 2175 2409 1742 
Q 1991 1309 1228 531 
z
" transform="scale(0.015625)"/>
        <path id="DejaVuSans-35" d="M 691 4666 
L 3169 4666 
L 3169 4134 
L 1269 4134 
L 1269 2991 
Q 1406 3038 1543 3061 
Q 1681 3084 1819 3084 
Q 2600 3084 3056 2656 
Q 3513 2228 3513 1497 
Q 3513 744 3044 326 
Q 2575 -91 1722 -91 
Q 1428 -91 1123 -41 
Q 819 9 494 109 
L 494 744 
Q 775 591 1075 516 
Q 1375 441 1709 441 
Q 2250 441 2565 725 
Q 2881 1009 2881 1497 
Q 2881 1984 2565 2268 
Q 2250 2553 1709 2553 
Q 1456 2553 1204 2497 
Q 953 2441 691 2322 
L 691 4666 
z
" transform="scale(0.015625)"/>
       </defs>
       <use xlink:href="#DejaVuSans-2212"/>
       <use xlink:href="#DejaVuSans-34" transform="translate(83.789062 0)"/>
       <use xlink:href="#DejaVuSans-38" transform="translate(147.412109 0)"/>
       <use xlink:href="#DejaVuSans-2e" transform="translate(211.035156 0)"/>
       <use xlink:href="#DejaVuSans-32" transform="translate(242.822266 0)"/>
       <use xlink:href="#DejaVuSans-35" transform="translate(306.445312 0)"/>
      </g>
     </g>
    </g>
    <g id="xtick_2">
     <g id="line2d_3">
      <path d="M 271.624915 768.96 
L 271.624915 103.68 
" clip-path="url(#pe7ffc34d45)" style="fill: none; stroke: #b0b0b0; stroke-width: 0.8; stroke-linecap: square"/>
     </g>
     <g id="line2d_4">
      <g>
       <use xlink:href="#m3ac76d7eb1" x="271.624915" y="768.96" style="stroke: #000000; stroke-width: 0.8"/>
      </g>
     </g>
     <g id="text_2">
      <!-- 48.20 -->
      <g transform="translate(260.49185 807.501382) rotate(-45) scale(0.1 -0.1)">
       <defs>
        <path id="DejaVuSans-30" d="M 2034 4250 
Q 1547 4250 1301 3770 
Q 1056 3291 1056 2328 
Q 1056 1369 1301 889 
Q 1547 409 2034 409 
Q 2525 409 2770 889 
Q 3016 1369 3016 2328 
Q 3016 3291 2770 3770 
Q 2525 4250 2034 4250 
z
M 2034 4750 
Q 2819 4750 3233 4129 
Q 3647 3509 3647 2328 
Q 3647 1150 3233 529 
Q 2819 -91 2034 -91 
Q 1250 -91 836 529 
Q 422 1150 422 2328 
Q 422 3509 836 4129 
Q 1250 4750 2034 4750 
z
" transform="scale(0.015625)"/>
       </defs>
       <use xlink:href="#DejaVuSans-2212"/>
       <use xlink:href="#DejaVuSans-34" transform="translate(83.789062 0)"/>
       <use xlink:href="#DejaVuSans-38" transform="translate(147.412109 0)"/>
       <use xlink:href="#DejaVuSans-2e" transform="translate(211.035156 0)"/>
       <use xlink:href="#DejaVuSans-32" transform="translate(242.822266 0)"/>
       <use xlink:href="#DejaVuSans-30" transform="translate(306.445312 0)"/>
      </g>
     </g>
    </g>
    <g id="xtick_3">
     <g id="line2d_5">
      <path d="M 338.634058 768.96 
L 338.634058 103.68 
" clip-path="url(#pe7ffc34d45)" style="fill: none; stroke: #b0b0b0; stroke-width: 0.8; stroke-linecap: square"/>
     </g>
     <g id="line2d_6">
      <g>
       <use xlink:href="#m3ac76d7eb1" x="338.634058" y="768.96" style="stroke: #000000; stroke-width: 0.8"/>
      </g>
     </g>
     <g id="text_3">
      <!-- 48.15 -->
      <g transform="translate(327.500994 807.501382) rotate(-45) scale(0.1 -0.1)">
       <defs>
        <path id="DejaVuSans-31" d="M 794 531 
L 1825 531 
L 1825 4091 
L 703 3866 
L 703 4441 
L 1819 4666 
L 2450 4666 
L 2450 531 
L 3481 531 
L 3481 0 
L 794 0 
L 794 531 
z
" transform="scale(0.015625)"/>
       </defs>
       <use xlink:href="#DejaVuSans-2212"/>
       <use xlink:href="#DejaVuSans-34" transform="translate(83.789062 0)"/>
       <use xlink:href="#DejaVuSans-38" transform="translate(147.412109 0)"/>
       <use xlink:href="#DejaVuSans-2e" transform="translate(211.035156 0)"/>
       <use xlink:href="#DejaVuSans-31" transform="translate(242.822266 0)"/>
       <use xlink:href="#DejaVuSans-35" transform="translate(306.445312 0)"/>
      </g>
     </g>
    </g>
    <g id="xtick_4">
     <g id="line2d_7">
      <path d="M 405.643202 768.96 
L 405.643202 103.68 
" clip-path="url(#pe7ffc34d45)" style="fill: none; stroke: #b0b0b0; stroke-width: 0.8; stroke-linecap: square"/>
     </g>
     <g id="line2d_8">
      <g>
       <use xlink:href="#m3ac76d7eb1" x="405.643202" y="768.96" style="stroke: #000000; stroke-width: 0.8"/>
      </g>
     </g>
     <g id="text_4">
      <!-- 48.10 -->
      <g transform="translate(394.510137 807.501382) rotate(-45) scale(0.1 -0.1)">
       <use xlink:href="#DejaVuSans-2212"/>
       <use xlink:href="#DejaVuSans-34" transform="translate(83.789062 0)"/>
       <use xlink:href="#DejaVuSans-38" transform="translate(147.412109 0)"/>
       <use xlink:href="#DejaVuSans-2e" transform="translate(211.035156 0)"/>
       <use xlink:href="#DejaVuSans-31" transform="translate(242.822266 0)"/>
       <use xlink:href="#DejaVuSans-30" transform="translate(306.445312 0)"/>
      </g>
     </g>
    </g>
    <g id="xtick_5">
     <g id="line2d_9">
      <path d="M 472.652346 768.96 
L 472.652346 103.68 
" clip-path="url(#pe7ffc34d45)" style="fill: none; stroke: #b0b0b0; stroke-width: 0.8; stroke-linecap: square"/>
     </g>
     <g id="line2d_10">
      <g>
       <use xlink:href="#m3ac76d7eb1" x="472.652346" y="768.96" style="stroke: #000000; stroke-width: 0.8"/>
      </g>
     </g>
     <g id="text_5">
      <!-- 48.05 -->
      <g transform="translate(461.519281 807.501382) rotate(-45) scale(0.1 -0.1)">
       <use xlink:href="#DejaVuSans-2212"/>
       <use xlink:href="#DejaVuSans-34" transform="translate(83.789062 0)"/>
       <use xlink:href="#DejaVuSans-38" transform="translate(147.412109 0)"/>
       <use xlink:href="#DejaVuSans-2e" transform="translate(211.035156 0)"/>
       <use xlink:href="#DejaVuSans-30" transform="translate(242.822266 0)"/>
       <use xlink:href="#DejaVuSans-35" transform="translate(306.445312 0)"/>
      </g>
     </g>
    </g>
    <g id="xtick_6">
     <g id="line2d_11">
      <path d="M 539.661489 768.96 
L 539.661489 103.68 
" clip-path="url(#pe7ffc34d45)" style="fill: none; stroke: #b0b0b0; stroke-width: 0.8; stroke-linecap: square"/>
     </g>
     <g id="line2d_12">
      <g>
       <use xlink:href="#m3ac76d7eb1" x="539.661489" y="768.96" style="stroke: #000000; stroke-width: 0.8"/>
      </g>
     </g>
     <g id="text_6">
      <!-- 48.00 -->
      <g transform="translate(528.528424 807.501382) rotate(-45) scale(0.1 -0.1)">
       <use xlink:href="#DejaVuSans-2212"/>
       <use xlink:href="#DejaVuSans-34" transform="translate(83.789062 0)"/>
       <use xlink:href="#DejaVuSans-38" transform="translate(147.412109 0)"/>
       <use xlink:href="#DejaVuSans-2e" transform="translate(211.035156 0)"/>
       <use xlink:href="#DejaVuSans-30" transform="translate(242.822266 0)"/>
       <use xlink:href="#DejaVuSans-30" transform="translate(306.445312 0)"/>
      </g>
     </g>
    </g>
    <g id="text_7">
     <!-- Longitude () -->
     <g transform="translate(336.139844 820.57038) scale(0.1 -0.1)">
      <defs>
       <path id="DejaVuSans-4c" d="M 628 4666 
L 1259 4666 
L 1259 531 
L 3531 531 
L 3531 0 
L 628 0 
L 628 4666 
z
" transform="scale(0.015625)"/>
       <path id="DejaVuSans-6f" d="M 1959 3097 
Q 1497 3097 1228 2736 
Q 959 2375 959 1747 
Q 959 1119 1226 758 
Q 1494 397 1959 397 
Q 2419 397 2687 759 
Q 2956 1122 2956 1747 
Q 2956 2369 2687 2733 
Q 2419 3097 1959 3097 
z
M 1959 3584 
Q 2709 3584 3137 3096 
Q 3566 2609 3566 1747 
Q 3566 888 3137 398 
Q 2709 -91 1959 -91 
Q 1206 -91 779 398 
Q 353 888 353 1747 
Q 353 2609 779 3096 
Q 1206 3584 1959 3584 
z
" transform="scale(0.015625)"/>
       <path id="DejaVuSans-6e" d="M 3513 2113 
L 3513 0 
L 2938 0 
L 2938 2094 
Q 2938 2591 2744 2837 
Q 2550 3084 2163 3084 
Q 1697 3084 1428 2787 
Q 1159 2491 1159 1978 
L 1159 0 
L 581 0 
L 581 3500 
L 1159 3500 
L 1159 2956 
Q 1366 3272 1645 3428 
Q 1925 3584 2291 3584 
Q 2894 3584 3203 3211 
Q 3513 2838 3513 2113 
z
" transform="scale(0.015625)"/>
       <path id="DejaVuSans-67" d="M 2906 1791 
Q 2906 2416 2648 2759 
Q 2391 3103 1925 3103 
Q 1463 3103 1205 2759 
Q 947 2416 947 1791 
Q 947 1169 1205 825 
Q 1463 481 1925 481 
Q 2391 481 2648 825 
Q 2906 1169 2906 1791 
z
M 3481 434 
Q 3481 -459 3084 -895 
Q 2688 -1331 1869 -1331 
Q 1566 -1331 1297 -1286 
Q 1028 -1241 775 -1147 
L 775 -588 
Q 1028 -725 1275 -790 
Q 1522 -856 1778 -856 
Q 2344 -856 2625 -561 
Q 2906 -266 2906 331 
L 2906 616 
Q 2728 306 2450 153 
Q 2172 0 1784 0 
Q 1141 0 747 490 
Q 353 981 353 1791 
Q 353 2603 747 3093 
Q 1141 3584 1784 3584 
Q 2172 3584 2450 3431 
Q 2728 3278 2906 2969 
L 2906 3500 
L 3481 3500 
L 3481 434 
z
" transform="scale(0.015625)"/>
       <path id="DejaVuSans-69" d="M 603 3500 
L 1178 3500 
L 1178 0 
L 603 0 
L 603 3500 
z
M 603 4863 
L 1178 4863 
L 1178 4134 
L 603 4134 
L 603 4863 
z
" transform="scale(0.015625)"/>
       <path id="DejaVuSans-74" d="M 1172 4494 
L 1172 3500 
L 2356 3500 
L 2356 3053 
L 1172 3053 
L 1172 1153 
Q 1172 725 1289 603 
Q 1406 481 1766 481 
L 2356 481 
L 2356 0 
L 1766 0 
Q 1100 0 847 248 
Q 594 497 594 1153 
L 594 3053 
L 172 3053 
L 172 3500 
L 594 3500 
L 594 4494 
L 1172 4494 
z
" transform="scale(0.015625)"/>
       <path id="DejaVuSans-75" d="M 544 1381 
L 544 3500 
L 1119 3500 
L 1119 1403 
Q 1119 906 1312 657 
Q 1506 409 1894 409 
Q 2359 409 2629 706 
Q 2900 1003 2900 1516 
L 2900 3500 
L 3475 3500 
L 3475 0 
L 2900 0 
L 2900 538 
Q 2691 219 2414 64 
Q 2138 -91 1772 -91 
Q 1169 -91 856 284 
Q 544 659 544 1381 
z
M 1991 3584 
L 1991 3584 
z
" transform="scale(0.015625)"/>
       <path id="DejaVuSans-64" d="M 2906 2969 
L 2906 4863 
L 3481 4863 
L 3481 0 
L 2906 0 
L 2906 525 
Q 2725 213 2448 61 
Q 2172 -91 1784 -91 
Q 1150 -91 751 415 
Q 353 922 353 1747 
Q 353 2572 751 3078 
Q 1150 3584 1784 3584 
Q 2172 3584 2448 3432 
Q 2725 3281 2906 2969 
z
M 947 1747 
Q 947 1113 1208 752 
Q 1469 391 1925 391 
Q 2381 391 2643 752 
Q 2906 1113 2906 1747 
Q 2906 2381 2643 2742 
Q 2381 3103 1925 3103 
Q 1469 3103 1208 2742 
Q 947 2381 947 1747 
z
" transform="scale(0.015625)"/>
       <path id="DejaVuSans-65" d="M 3597 1894 
L 3597 1613 
L 953 1613 
Q 991 1019 1311 708 
Q 1631 397 2203 397 
Q 2534 397 2845 478 
Q 3156 559 3463 722 
L 3463 178 
Q 3153 47 2828 -22 
Q 2503 -91 2169 -91 
Q 1331 -91 842 396 
Q 353 884 353 1716 
Q 353 2575 817 3079 
Q 1281 3584 2069 3584 
Q 2775 3584 3186 3129 
Q 3597 2675 3597 1894 
z
M 3022 2063 
Q 3016 2534 2758 2815 
Q 2500 3097 2075 3097 
Q 1594 3097 1305 2825 
Q 1016 2553 972 2059 
L 3022 2063 
z
" transform="scale(0.015625)"/>
       <path id="DejaVuSans-20" transform="scale(0.015625)"/>
       <path id="DejaVuSans-28" d="M 1984 4856 
Q 1566 4138 1362 3434 
Q 1159 2731 1159 2009 
Q 1159 1288 1364 580 
Q 1569 -128 1984 -844 
L 1484 -844 
Q 1016 -109 783 600 
Q 550 1309 550 2009 
Q 550 2706 781 3412 
Q 1013 4119 1484 4856 
L 1984 4856 
z
" transform="scale(0.015625)"/>
       <path id="DejaVuSans-b0" d="M 1600 4347 
Q 1350 4347 1178 4173 
Q 1006 4000 1006 3750 
Q 1006 3503 1178 3333 
Q 1350 3163 1600 3163 
Q 1850 3163 2022 3333 
Q 2194 3503 2194 3750 
Q 2194 3997 2020 4172 
Q 1847 4347 1600 4347 
z
M 1600 4750 
Q 1800 4750 1984 4673 
Q 2169 4597 2303 4453 
Q 2447 4313 2519 4134 
Q 2591 3956 2591 3750 
Q 2591 3338 2302 3052 
Q 2013 2766 1594 2766 
Q 1172 2766 890 3047 
Q 609 3328 609 3750 
Q 609 4169 896 4459 
Q 1184 4750 1600 4750 
z
" transform="scale(0.015625)"/>
       <path id="DejaVuSans-29" d="M 513 4856 
L 1013 4856 
Q 1481 4119 1714 3412 
Q 1947 2706 1947 2009 
Q 1947 1309 1714 600 
Q 1481 -109 1013 -844 
L 513 -844 
Q 928 -128 1133 580 
Q 1338 1288 1338 2009 
Q 1338 2731 1133 3434 
Q 928 4138 513 4856 
z
" transform="scale(0.015625)"/>
      </defs>
      <use xlink:href="#DejaVuSans-4c"/>
      <use xlink:href="#DejaVuSans-6f" transform="translate(53.962891 0)"/>
      <use xlink:href="#DejaVuSans-6e" transform="translate(115.144531 0)"/>
      <use xlink:href="#DejaVuSans-67" transform="translate(178.523438 0)"/>
      <use xlink:href="#DejaVuSans-69" transform="translate(242 0)"/>
      <use xlink:href="#DejaVuSans-74" transform="translate(269.783203 0)"/>
      <use xlink:href="#DejaVuSans-75" transform="translate(308.992188 0)"/>
      <use xlink:href="#DejaVuSans-64" transform="translate(372.371094 0)"/>
      <use xlink:href="#DejaVuSans-65" transform="translate(435.847656 0)"/>
      <use xlink:href="#DejaVuSans-20" transform="translate(497.371094 0)"/>
      <use xlink:href="#DejaVuSans-28" transform="translate(529.158203 0)"/>
      <use xlink:href="#DejaVuSans-b0" transform="translate(568.171875 0)"/>
      <use xlink:href="#DejaVuSans-29" transform="translate(618.171875 0)"/>
     </g>
    </g>
   </g>
   <g id="matplotlib.axis_2">
    <g id="ytick_1">
     <g id="line2d_13">
      <path d="M 156.38278 676.897693 
L 581.61722 676.897693 
" clip-path="url(#pe7ffc34d45)" style="fill: none; stroke: #b0b0b0; stroke-width: 0.8; stroke-linecap: square"/>
     </g>
     <g id="line2d_14">
      <defs>
       <path id="m849552d8ad" d="M 0 0 
L -3.5 0 
" style="stroke: #000000; stroke-width: 0.8"/>
      </defs>
      <g>
       <use xlink:href="#m849552d8ad" x="156.38278" y="676.897693" style="stroke: #000000; stroke-width: 0.8"/>
      </g>
     </g>
     <g id="text_8">
      <!-- 10.5 -->
      <g transform="translate(118.737467 680.696912) scale(0.1 -0.1)">
       <use xlink:href="#DejaVuSans-2212"/>
       <use xlink:href="#DejaVuSans-31" transform="translate(83.789062 0)"/>
       <use xlink:href="#DejaVuSans-30" transform="translate(147.412109 0)"/>
       <use xlink:href="#DejaVuSans-2e" transform="translate(211.035156 0)"/>
       <use xlink:href="#DejaVuSans-35" transform="translate(242.822266 0)"/>
      </g>
     </g>
    </g>
    <g id="ytick_2">
     <g id="line2d_15">
      <path d="M 156.38278 540.674213 
L 581.61722 540.674213 
" clip-path="url(#pe7ffc34d45)" style="fill: none; stroke: #b0b0b0; stroke-width: 0.8; stroke-linecap: square"/>
     </g>
     <g id="line2d_16">
      <g>
       <use xlink:href="#m849552d8ad" x="156.38278" y="540.674213" style="stroke: #000000; stroke-width: 0.8"/>
      </g>
     </g>
     <g id="text_9">
      <!-- 10.4 -->
      <g transform="translate(118.737467 544.473432) scale(0.1 -0.1)">
       <use xlink:href="#DejaVuSans-2212"/>
       <use xlink:href="#DejaVuSans-31" transform="translate(83.789062 0)"/>
       <use xlink:href="#DejaVuSans-30" transform="translate(147.412109 0)"/>
       <use xlink:href="#DejaVuSans-2e" transform="translate(211.035156 0)"/>
       <use xlink:href="#DejaVuSans-34" transform="translate(242.822266 0)"/>
      </g>
     </g>
    </g>
    <g id="ytick_3">
     <g id="line2d_17">
      <path d="M 156.38278 404.450733 
L 581.61722 404.450733 
" clip-path="url(#pe7ffc34d45)" style="fill: none; stroke: #b0b0b0; stroke-width: 0.8; stroke-linecap: square"/>
     </g>
     <g id="line2d_18">
      <g>
       <use xlink:href="#m849552d8ad" x="156.38278" y="404.450733" style="stroke: #000000; stroke-width: 0.8"/>
      </g>
     </g>
     <g id="text_10">
      <!-- 10.3 -->
      <g transform="translate(118.737467 408.249952) scale(0.1 -0.1)">
       <defs>
        <path id="DejaVuSans-33" d="M 2597 2516 
Q 3050 2419 3304 2112 
Q 3559 1806 3559 1356 
Q 3559 666 3084 287 
Q 2609 -91 1734 -91 
Q 1441 -91 1130 -33 
Q 819 25 488 141 
L 488 750 
Q 750 597 1062 519 
Q 1375 441 1716 441 
Q 2309 441 2620 675 
Q 2931 909 2931 1356 
Q 2931 1769 2642 2001 
Q 2353 2234 1838 2234 
L 1294 2234 
L 1294 2753 
L 1863 2753 
Q 2328 2753 2575 2939 
Q 2822 3125 2822 3475 
Q 2822 3834 2567 4026 
Q 2313 4219 1838 4219 
Q 1578 4219 1281 4162 
Q 984 4106 628 3988 
L 628 4550 
Q 988 4650 1302 4700 
Q 1616 4750 1894 4750 
Q 2613 4750 3031 4423 
Q 3450 4097 3450 3541 
Q 3450 3153 3228 2886 
Q 3006 2619 2597 2516 
z
" transform="scale(0.015625)"/>
       </defs>
       <use xlink:href="#DejaVuSans-2212"/>
       <use xlink:href="#DejaVuSans-31" transform="translate(83.789062 0)"/>
       <use xlink:href="#DejaVuSans-30" transform="translate(147.412109 0)"/>
       <use xlink:href="#DejaVuSans-2e" transform="translate(211.035156 0)"/>
       <use xlink:href="#DejaVuSans-33" transform="translate(242.822266 0)"/>
      </g>
     </g>
    </g>
    <g id="ytick_4">
     <g id="line2d_19">
      <path d="M 156.38278 268.227253 
L 581.61722 268.227253 
" clip-path="url(#pe7ffc34d45)" style="fill: none; stroke: #b0b0b0; stroke-width: 0.8; stroke-linecap: square"/>
     </g>
     <g id="line2d_20">
      <g>
       <use xlink:href="#m849552d8ad" x="156.38278" y="268.227253" style="stroke: #000000; stroke-width: 0.8"/>
      </g>
     </g>
     <g id="text_11">
      <!-- 10.2 -->
      <g transform="translate(118.737467 272.026472) scale(0.1 -0.1)">
       <use xlink:href="#DejaVuSans-2212"/>
       <use xlink:href="#DejaVuSans-31" transform="translate(83.789062 0)"/>
       <use xlink:href="#DejaVuSans-30" transform="translate(147.412109 0)"/>
       <use xlink:href="#DejaVuSans-2e" transform="translate(211.035156 0)"/>
       <use xlink:href="#DejaVuSans-32" transform="translate(242.822266 0)"/>
      </g>
     </g>
    </g>
    <g id="ytick_5">
     <g id="line2d_21">
      <path d="M 156.38278 132.003773 
L 581.61722 132.003773 
" clip-path="url(#pe7ffc34d45)" style="fill: none; stroke: #b0b0b0; stroke-width: 0.8; stroke-linecap: square"/>
     </g>
     <g id="line2d_22">
      <g>
       <use xlink:href="#m849552d8ad" x="156.38278" y="132.003773" style="stroke: #000000; stroke-width: 0.8"/>
      </g>
     </g>
     <g id="text_12">
      <!-- 10.1 -->
      <g transform="translate(118.737467 135.802992) scale(0.1 -0.1)">
       <use xlink:href="#DejaVuSans-2212"/>
       <use xlink:href="#DejaVuSans-31" transform="translate(83.789062 0)"/>
       <use xlink:href="#DejaVuSans-30" transform="translate(147.412109 0)"/>
       <use xlink:href="#DejaVuSans-2e" transform="translate(211.035156 0)"/>
       <use xlink:href="#DejaVuSans-31" transform="translate(242.822266 0)"/>
      </g>
     </g>
    </g>
    <g id="text_13">
     <!-- Latitude () -->
     <g transform="translate(112.65778 464.889531) rotate(-90) scale(0.1 -0.1)">
      <defs>
       <path id="DejaVuSans-61" d="M 2194 1759 
Q 1497 1759 1228 1600 
Q 959 1441 959 1056 
Q 959 750 1161 570 
Q 1363 391 1709 391 
Q 2188 391 2477 730 
Q 2766 1069 2766 1631 
L 2766 1759 
L 2194 1759 
z
M 3341 1997 
L 3341 0 
L 2766 0 
L 2766 531 
Q 2569 213 2275 61 
Q 1981 -91 1556 -91 
Q 1019 -91 701 211 
Q 384 513 384 1019 
Q 384 1609 779 1909 
Q 1175 2209 1959 2209 
L 2766 2209 
L 2766 2266 
Q 2766 2663 2505 2880 
Q 2244 3097 1772 3097 
Q 1472 3097 1187 3025 
Q 903 2953 641 2809 
L 641 3341 
Q 956 3463 1253 3523 
Q 1550 3584 1831 3584 
Q 2591 3584 2966 3190 
Q 3341 2797 3341 1997 
z
" transform="scale(0.015625)"/>
      </defs>
      <use xlink:href="#DejaVuSans-4c"/>
      <use xlink:href="#DejaVuSans-61" transform="translate(55.712891 0)"/>
      <use xlink:href="#DejaVuSans-74" transform="translate(116.992188 0)"/>
      <use xlink:href="#DejaVuSans-69" transform="translate(156.201172 0)"/>
      <use xlink:href="#DejaVuSans-74" transform="translate(183.984375 0)"/>
      <use xlink:href="#DejaVuSans-75" transform="translate(223.193359 0)"/>
      <use xlink:href="#DejaVuSans-64" transform="translate(286.572266 0)"/>
      <use xlink:href="#DejaVuSans-65" transform="translate(350.048828 0)"/>
      <use xlink:href="#DejaVuSans-20" transform="translate(411.572266 0)"/>
      <use xlink:href="#DejaVuSans-28" transform="translate(443.359375 0)"/>
      <use xlink:href="#DejaVuSans-b0" transform="translate(482.373047 0)"/>
      <use xlink:href="#DejaVuSans-29" transform="translate(532.373047 0)"/>
     </g>
    </g>
   </g>
   <g id="patch_3">
    <path d="M 156.38278 768.96 
L 156.38278 103.68 
" style="fill: none; stroke: #000000; stroke-width: 0.8; stroke-linejoin: miter; stroke-linecap: square"/>
   </g>
   <g id="patch_4">
    <path d="M 581.61722 768.96 
L 581.61722 103.68 
" style="fill: none; stroke: #000000; stroke-width: 0.8; stroke-linejoin: miter; stroke-linecap: square"/>
   </g>
   <g id="patch_5">
    <path d="M 156.38278 768.96 
L 581.61722 768.96 
" style="fill: none; stroke: #000000; stroke-width: 0.8; stroke-linejoin: miter; stroke-linecap: square"/>
   </g>
   <g id="patch_6">
    <path d="M 156.38278 103.68 
L 581.61722 103.68 
" style="fill: none; stroke: #000000; stroke-width: 0.8; stroke-linejoin: miter; stroke-linecap: square"/>
   </g>
  </g>
 </g>
 <defs>
  <clipPath id="pe7ffc34d45">
   <rect x="156.38278" y="103.68" width="425.234441" height="665.28"/>
  </clipPath>
 </defs>
</svg>
