<?xml version="1.0" encoding="utf-8" standalone="no"?>
<!DOCTYPE svg PUBLIC "-//W3C//DTD SVG 1.1//EN"
  "http://www.w3.org/Graphics/SVG/1.1/DTD/svg11.dtd">
<svg xmlns:xlink="http://www.w3.org/1999/xlink" width="720pt" height="864pt" viewBox="0 0 720 864" xmlns="http://www.w3.org/2000/svg" version="1.1">
 <metadata>
  <rdf:RDF xmlns:dc="http://purl.org/dc/elements/1.1/" xmlns:cc="http://creativecommons.org/ns#" xmlns:rdf="http://www.w3.org/1999/02/22-rdf-syntax-ns#">
   <cc:Work>
    <dc:type rdf:resource="http://purl.org/dc/dcmitype/StillImage"/>
    <dc:date>2025-06-16T17:30:30.752456</dc:date>
    <dc:format>image/svg+xml</dc:format>
    <dc:creator>
     <cc:Agent>
      <dc:title>Matplotlib v3.10.1, https://matplotlib.org/</dc:title>
     </cc:Agent>
    </dc:creator>
   </cc:Work>
  </rdf:RDF>
 </metadata>
 <defs>
  <style type="text/css">*{stroke-linejoin: round; stroke-linecap: butt}</style>
 </defs>
 <g id="figure_1">
  <g id="patch_1">
   <path d="M 0 864 
L 720 864 
L 720 0 
L 0 0 
z
" style="fill: #ffffff"/>
  </g>
  <g id="axes_1">
   <g id="patch_2">
    <path d="M 90 683.302376 
L 648 683.302376 
L 648 189.337624 
L 90 189.337624 
z
" style="fill: #ffffff"/>
   </g>
   <g id="PatchCollection_1">
    <path d="M 365.955298 350.103601 
L 369.690765 350.137369 
L 372.647406 351.106406 
L 374.096268 352.896659 
L 376.864347 352.709619 
L 378.127324 354.063707 
L 375.023803 355.83481 
L 376.230574 358.439874 
L 378.289611 361.065963 
L 381.206398 362.579729 
L 384.097759 362.3151 
L 386.911142 362.64178 
L 388.875915 363.976717 
L 388.862304 366.816289 
L 389.120716 369.65954 
L 389.574936 372.456244 
L 388.764384 375.258401 
L 388.240346 378.079742 
L 389.360066 379.627276 
L 392.244181 380.064361 
L 395.825521 379.794279 
L 398.495679 378.769564 
L 400.858466 377.369849 
L 402.543969 374.978268 
L 404.848722 371.906029 
L 408.84531 370.578383 
L 411.519091 370.083813 
L 414.959002 370.086573 
L 416.29271 366.959542 
L 418.888514 366.294356 
L 421.690114 366.538915 
L 424.6368 366.965948 
L 424.751041 368.305451 
L 424.252365 368.728805 
L 334.165607 446.113934 
L 304.190185 394.819793 
L 305.466773 391.131608 
L 306.323576 390.229189 
L 309.178674 390.583232 
L 311.607654 391.576905 
L 314.014864 391.586037 
L 315.906163 391.908118 
L 318.463909 391.683663 
L 319.916395 390.893455 
L 323.664559 391.813218 
L 326.574981 390.894375 
L 328.097252 388.487289 
L 329.682126 386.47442 
L 330.838141 384.088325 
L 330.418357 381.318064 
L 329.26505 378.605321 
L 329.917853 375.865182 
L 333.678714 376.661763 
L 336.634474 375.533969 
L 337.041561 373.410663 
L 336.079591 372.563889 
L 334.073137 372.284675 
L 331.800111 371.384096 
L 331.735745 369.358416 
L 333.071249 368.280815 
L 335.263588 370.13128 
L 337.547483 371.811129 
L 340.341837 372.280142 
L 341.554059 370.206109 
L 341.030022 367.978771 
L 341.387235 365.827182 
L 342.057272 364.332567 
L 343.787199 363.682886 
L 346.083791 364.909259 
L 348.191789 366.996957 
L 348.233503 368.896728 
L 345.949608 370.992638 
L 344.822609 373.401531 
L 345.584201 374.918056 
L 347.014949 375.555879 
L 348.349571 375.242897 
L 350.54462 373.514694 
L 352.017049 370.956143 
L 351.744144 369.163163 
L 351.84386 367.101908 
L 352.455862 364.440245 
L 352.893795 361.548641 
L 355.248421 358.883332 
L 357.532317 356.504561 
L 359.929538 354.653144 
L 362.53533 352.626577 
L 363.441094 350.519695 
L 365.955298 350.103601 
" clip-path="url(#p47541c345e)" style="fill: #e0bd1f; stroke: #0000ff; stroke-width: 0.5"/>
    <path d="M 232.991193 358.389682 
L 269.742151 372.706255 
L 260.485965 432.152323 
L 213.978317 380.147402 
L 232.991193 358.389682 
" clip-path="url(#p47541c345e)" style="fill: #e0bd1f; stroke: #0000ff; stroke-width: 0.5"/>
    <path d="M 488.736564 211.790568 
L 504.533473 260.160256 
L 517.427238 260.683108 
L 521.828237 259.854599 
L 525.385097 257.556998 
L 527.635438 252.651605 
L 531.032754 250.048347 
L 534.028367 245.455017 
L 541.444041 246.201404 
L 544.891198 245.394772 
L 546.288359 246.956004 
L 547.997461 246.32186 
L 548.863306 246.965136 
L 551.059268 245.648462 
L 558.26004 247.195997 
L 560.027144 252.174379 
L 567.39203 253.242881 
L 575.183947 257.004056 
L 584.971449 254.534919 
L 585.377656 253.630693 
L 588.259942 252.983738 
L 589.241888 255.304136 
L 601.564418 259.456768 
L 606.653569 264.048259 
L 609.631067 263.805573 
L 614.139028 262.171351 
L 621.017054 259.123716 
L 622.636364 273.201184 
L 622.429621 273.545208 
L 609.669158 276.248819 
L 609.332769 276.012506 
L 543.925605 285.258491 
L 553.196283 315.444592 
L 553.112887 315.463776 
L 440.214302 362.342495 
L 439.611374 362.618063 
L 439.421865 362.814235 
L 438.758193 362.28409 
L 438.107186 362.059635 
L 437.370988 362.011249 
L 435.959302 362.399981 
L 434.627389 363.080671 
L 434.01085 363.564269 
L 433.011703 364.557942 
L 431.857515 365.315301 
L 430.74775 366.222286 
L 429.824753 367.364698 
L 428.762153 368.368389 
L 427.687738 369.380326 
L 427.192685 369.827429 
L 426.695837 370.070148 
L 426.297824 370.040026 
L 426.044863 369.738015 
L 425.909765 369.217889 
L 425.687616 368.030771 
L 425.61509 367.369264 
L 425.443729 366.602773 
L 424.854412 366.078113 
L 423.491686 365.580817 
L 422.00927 365.244118 
L 420.66195 365.378239 
L 419.442483 365.25417 
L 418.142328 365.017824 
L 417.314542 365.128228 
L 415.862056 365.830829 
L 415.156638 366.297116 
L 414.6326 366.887472 
L 414.138461 367.579101 
L 413.957113 368.289027 
L 413.752231 368.939595 
L 413.511053 369.296365 
L 413.079485 369.342911 
L 412.407621 369.228861 
L 410.925237 368.97609 
L 410.074765 368.987948 
L 409.331288 369.155838 
L 408.511662 369.377567 
L 407.122661 370.03454 
L 406.469859 370.418706 
L 405.824302 370.676929 
L 404.756252 370.942445 
L 404.236719 371.103962 
L 403.56035 371.42151 
L 403.101561 371.750884 
L 402.654587 372.392353 
L 402.212117 373.088581 
L 401.962779 373.980062 
L 401.541199 375.308594 
L 400.750557 376.346054 
L 400.216532 376.715602 
L 399.564644 377.10522 
L 398.940858 377.539578 
L 398.278068 377.842509 
L 396.081224 378.510421 
L 394.579778 378.831615 
L 393.851707 378.933808 
L 393.120927 378.939293 
L 392.385643 378.921029 
L 390.897775 378.823403 
L 390.209623 378.709353 
L 389.650204 378.439271 
L 389.321975 378.016771 
L 389.31202 377.322415 
L 389.367312 376.473802 
L 390.416333 373.395158 
L 390.629408 372.613162 
L 390.653888 371.771875 
L 390.555054 370.936073 
L 390.415419 370.073795 
L 389.957576 368.445945 
L 389.995635 366.918481 
L 390.147052 365.350876 
L 390.092674 363.661009 
L 389.695541 362.883579 
L 389.137036 362.274958 
L 388.412588 361.785874 
L 387.624688 361.434591 
L 386.065241 360.834182 
L 385.185753 360.695495 
L 384.412377 360.800414 
L 383.615403 360.952799 
L 382.00334 361.285852 
L 381.267142 361.482024 
L 380.694112 361.403549 
L 380.305139 360.991133 
L 379.255237 359.851448 
L 378.66951 359.300346 
L 377.546167 358.224551 
L 377.324932 357.744599 
L 377.200704 357.359514 
L 377.235172 356.931594 
L 377.851711 356.181527 
L 378.993202 355.610322 
L 379.577101 354.823793 
L 379.476472 353.894898 
L 379.045785 353.003417 
L 378.229782 352.388424 
L 377.256943 352.202271 
L 376.302219 352.136573 
L 375.439051 352.210483 
L 374.850614 352.132007 
L 374.013754 351.096387 
L 372.7952 349.921127 
L 372.032694 349.420184 
L 371.197662 349.11814 
L 370.294607 349.117253 
L 369.387016 349.210314 
L 367.822117 349.344435 
L 366.057723 349.202102 
L 364.364092 349.296082 
L 363.52449 349.57073 
L 362.918852 350.070752 
L 362.443742 350.796183 
L 361.834482 351.951339 
L 361.345761 352.332778 
L 360.044693 353.143024 
L 358.791671 354.075565 
L 357.571289 355.182402 
L 355.682698 356.749087 
L 354.485001 357.93072 
L 353.317203 359.091395 
L 352.157564 360.366089 
L 351.269035 361.926401 
L 351.017902 363.680159 
L 351.119445 365.395583 
L 350.840176 366.902977 
L 350.359648 368.499784 
L 350.482962 370.309221 
L 350.864656 371.730814 
L 350.611695 372.170625 
L 350.029624 372.681619 
L 349.453884 373.325814 
L 348.680509 374.242851 
L 348.306943 374.357822 
L 347.974209 374.312195 
L 347.483694 374.003778 
L 347.304173 373.769272 
L 347.302345 373.235481 
L 347.519043 372.600417 
L 348.121971 371.304701 
L 348.565355 370.770909 
L 349.569953 369.536357 
L 349.861886 367.986064 
L 349.686902 366.941311 
L 349.14018 366.238711 
L 347.961512 365.196685 
L 347.346768 364.668346 
L 346.140911 363.51043 
L 344.679352 362.624436 
L 343.806228 362.484829 
L 342.925859 362.479343 
L 342.088998 362.722982 
L 341.297475 363.106227 
L 340.57306 363.670108 
L 340.043539 364.45667 
L 339.579331 366.928533 
L 339.729835 368.636665 
L 340.212191 370.210675 
L 340.274762 370.843012 
L 340.038121 371.226225 
L 339.584782 371.391388 
L 338.994551 371.332063 
L 338.394331 371.061062 
L 337.191184 370.056451 
L 335.202845 368.487006 
L 333.797491 367.520729 
L 332.844595 367.23603 
L 331.880798 367.51797 
L 331.1446 368.090095 
L 330.470026 368.764413 
L 329.984961 369.629418 
L 329.861647 370.597534 
L 330.13726 371.547419 
L 330.781902 372.208039 
L 331.539904 372.60495 
L 332.298787 372.987276 
L 334.678775 373.694442 
L 335.90278 374.191739 
L 335.926379 374.471872 
L 335.711476 374.93632 
L 335.217337 375.306754 
L 334.605335 375.551313 
L 333.931675 375.628869 
L 332.473771 375.387989 
L 330.996805 374.741954 
L 330.05295 374.618771 
L 329.091894 374.921702 
L 328.539721 375.705505 
L 328.290383 376.558683 
L 328.220566 377.389 
L 328.187012 378.224834 
L 328.34659 379.8855 
L 328.650339 380.720415 
L 329.091894 381.444006 
L 329.945956 382.724184 
L 330.067475 383.329159 
L 329.947784 383.998911 
L 329.690286 384.663177 
L 329.262341 385.244401 
L 328.727402 385.842083 
L 328.20516 386.489005 
L 327.268584 387.814811 
L 326.554124 389.239163 
L 325.568556 390.330495 
L 324.935696 390.524827 
L 324.200412 390.680859 
L 323.514969 390.699122 
L 322.985448 390.45821 
L 322.30908 390.019319 
L 320.590936 389.32585 
L 319.696074 389.541206 
L 318.861009 389.826793 
L 317.99696 390.012027 
L 317.08395 390.19634 
L 315.511773 390.48012 
L 314.690319 390.478314 
L 313.881594 390.507483 
L 312.237804 390.425362 
L 309.952081 389.838651 
L 308.515002 389.197215 
L 307.660908 388.85595 
L 306.765132 388.750079 
L 305.963621 388.771069 
L 305.151241 388.759211 
L 304.346139 388.734574 
L 303.65616 388.64608 
L 303.15657 388.264674 
L 302.343308 386.940674 
L 301.442963 385.803749 
L 300.37129 384.56555 
L 299.606074 384.075547 
L 298.766472 383.836474 
L 297.893349 383.835554 
L 297.02659 383.962383 
L 295.490676 384.627569 
L 293.955676 385.433281 
L 293.382679 385.485314 
L 292.664596 385.494413 
L 292.017244 385.398626 
L 289.975408 384.267153 
L 288.035148 382.748821 
L 286.629795 381.973231 
L 284.870851 380.414725 
L 283.719372 379.22488 
L 282.991334 378.73215 
L 282.240611 378.455695 
L 280.766355 377.995813 
L 280.124421 377.701062 
L 279.650258 377.303232 
L 279.471619 376.80137 
L 279.538727 376.249347 
L 279.717334 375.704618 
L 281.100916 373.917091 
L 281.702963 372.4389 
L 282.128166 371.740865 
L 282.484498 371.077486 
L 282.930591 370.532756 
L 284.127374 369.671398 
L 286.246273 368.46237 
L 286.780299 367.747024 
L 287.164734 367.001523 
L 287.404084 366.199456 
L 287.670656 364.620913 
L 287.957171 363.077945 
L 288.173869 361.492076 
L 288.11763 360.617939 
L 287.916371 359.848722 
L 287.457581 358.268339 
L 287.03055 357.521031 
L 286.564515 356.884128 
L 285.510957 355.616727 
L 285.065778 355.07745 
L 284.83276 354.522669 
L 284.951537 353.928666 
L 285.18276 353.343762 
L 285.654214 352.763458 
L 286.17737 352.199544 
L 287.314324 351.12191 
L 287.884612 350.499625 
L 288.261801 349.791538 
L 288.591826 348.979453 
L 288.728751 348.104397 
L 288.656192 347.212917 
L 288.412305 346.322356 
L 287.446712 344.942711 
L 286.252606 343.971868 
L 285.532728 342.693496 
L 285.164612 341.310205 
L 284.898954 339.107504 
L 284.835502 337.618374 
L 284.888999 336.123759 
L 284.994165 335.425725 
L 285.234429 334.745034 
L 285.543597 334.063424 
L 285.90538 333.435653 
L 286.929888 332.306019 
L 288.116749 331.262154 
L 288.716935 330.709212 
L 289.754173 329.63887 
L 290.271879 329.425354 
L 290.888418 329.423547 
L 291.616489 329.485598 
L 292.285611 329.548536 
L 292.765225 329.798581 
L 293.952967 330.788574 
L 295.501578 331.487529 
L 296.403686 331.336063 
L 297.146249 330.913596 
L 297.751005 330.32416 
L 298.227029 329.612427 
L 298.513511 328.775705 
L 298.427374 327.228171 
L 298.363922 325.818404 
L 298.579705 325.280967 
L 299.693093 323.425016 
L 300.388523 322.182219 
L 300.470124 321.363761 
L 300.365839 320.562614 
L 300.082979 319.789751 
L 299.669527 319.067999 
L 298.731123 317.807891 
L 297.402866 315.739344 
L 296.754567 315.063186 
L 296.044644 314.544013 
L 294.598524 313.822229 
L 293.118849 313.197217 
L 292.582996 312.8459 
L 292.371749 312.32308 
L 292.159588 310.782838 
L 292.003633 309.946084 
L 291.727106 309.170494 
L 291.308203 308.396743 
L 292.670928 307.00248 
L 377.72386 236.355931 
L 488.736564 211.790568 
" clip-path="url(#p47541c345e)" style="fill: #e0bd1f; stroke: #0000ff; stroke-width: 0.5"/>
    <path d="M 256.81666 267.623313 
L 257.855693 271.784124 
L 259.929255 272.329807 
L 261.446107 273.145538 
L 259.961895 278.270853 
L 260.607452 280.735391 
L 257.135815 282.165228 
L 255.628004 285.078743 
L 255.46934 288.828059 
L 255.800279 292.019834 
L 257.198386 295.10853 
L 260.530388 294.854872 
L 263.545977 294.999045 
L 265.779998 298.704541 
L 267.586988 299.467353 
L 270.851915 300.536775 
L 271.854685 304.890146 
L 275.769706 306.395699 
L 278.87685 303.350823 
L 280.365599 304.173847 
L 213.978317 380.147402 
L 197.514081 358.552118 
L 199.251254 356.149598 
L 199.604877 353.328258 
L 199.14426 353.063662 
L 198.093443 354.641285 
L 196.830466 350.382815 
L 196.84313 348.43837 
L 199.833358 346.26763 
L 198.301981 343.503775 
L 197.802391 341.254559 
L 197.589349 339.274506 
L 195.886611 336.966886 
L 193.386932 339.621224 
L 192.568187 335.340876 
L 191.716835 334.615446 
L 194.157598 333.652815 
L 196.191242 329.77759 
L 199.331059 328.541199 
L 200.05456 325.752707 
L 201.682944 325.703434 
L 203.692139 323.126619 
L 205.042168 320.31441 
L 201.950429 318.182892 
L 205.810125 317.508607 
L 207.364154 314.716468 
L 205.820994 312.950852 
L 203.970494 313.215448 
L 200.572265 314.13705 
L 202.837131 312.599535 
L 200.030994 310.219845 
L 199.262156 311.59857 
L 197.928415 310.509997 
L 198.233078 305.558978 
L 199.776238 303.101699 
L 199.137927 300.237491 
L 201.852509 298.07861 
L 203.366652 295.447069 
L 203.076514 292.568243 
L 205.206282 288.566156 
L 208.582708 289.587225 
L 210.321709 292.100149 
L 214.195015 290.185793 
L 217.300332 286.766804 
L 214.295645 286.931047 
L 211.668114 284.472849 
L 210.06692 283.439954 
L 210.313549 281.480892 
L 208.968939 279.121272 
L 211.5448 277.987073 
L 214.847818 276.554509 
L 217.488012 276.580032 
L 217.180673 275.32541 
L 221.127387 275.288915 
L 225.02971 273.117255 
L 228.904812 272.84898 
L 232.31391 273.286065 
L 235.118219 272.087088 
L 237.02313 273.112689 
L 239.511059 270.548652 
L 238.083053 269.338737 
L 239.418556 268.031162 
L 242.528443 268.805865 
L 244.675445 268.91719 
L 245.87497 267.97187 
L 247.801652 267.912545 
L 250.604166 267.637898 
L 249.968597 269.964701 
L 251.492695 269.564112 
L 252.41207 270.757603 
L 252.815535 269.78584 
L 256.81666 267.623313 
" clip-path="url(#p47541c345e)" style="fill: #e0bd1f; stroke: #0000ff; stroke-width: 0.5"/>
    <path d="M 280.365599 304.173847 
L 279.592224 308.649481 
L 282.764649 313.216367 
L 287.004242 312.437131 
L 288.795827 309.088372 
L 290.287317 309.617597 
L 291.744307 314.186323 
L 295.997512 316.203758 
L 298.798231 320.711353 
L 296.033775 330.015743 
L 290.069706 327.537474 
L 285.768455 331.40268 
L 283.216192 337.922225 
L 284.604279 344.157102 
L 287.317065 347.754033 
L 286.241736 350.075318 
L 284.458312 351.267923 
L 283.259702 354.727053 
L 285.549962 357.5548 
L 286.880928 361.311408 
L 285.761208 367.321798 
L 280.526091 370.716151 
L 269.742151 372.706255 
L 232.991193 358.389682 
L 280.365599 304.173847 
" clip-path="url(#p47541c345e)" style="fill: #e0bd1f; stroke: #0000ff; stroke-width: 0.5"/>
    <path d="M 242.997188 233.070143 
L 244.609251 233.850299 
L 247.429913 236.236394 
L 248.943142 236.838609 
L 249.67118 238.71739 
L 248.937691 239.525829 
L 247.77443 240.522228 
L 247.720933 242.048772 
L 248.716456 244.209493 
L 251.957817 245.684957 
L 253.593447 247.264421 
L 254.242626 249.88683 
L 253.376749 252.820414 
L 252.746631 255.235712 
L 253.55356 256.445628 
L 255.378699 259.608234 
L 256.241834 262.491626 
L 256.090417 264.723497 
L 256.431343 267.096814 
L 252.537179 269.532183 
L 252.319568 270.056842 
L 251.629588 269.159909 
L 250.472691 269.464646 
L 251.081985 267.232775 
L 247.778967 267.556696 
L 245.748033 267.619667 
L 244.561205 268.554934 
L 242.580112 268.451822 
L 239.312476 267.637898 
L 237.556274 269.357888 
L 238.991526 270.574209 
L 236.956055 272.672878 
L 235.135453 271.692903 
L 232.264036 272.920163 
L 228.9148 272.491291 
L 224.927253 272.766858 
L 221.034917 274.933952 
L 216.730043 274.973206 
L 217.035588 276.219616 
L 214.776173 276.197739 
L 211.404284 277.660393 
L 208.465758 278.954269 
L 209.947261 281.554801 
L 209.687935 283.618783 
L 211.450502 284.755709 
L 214.165084 287.295109 
L 216.455344 287.170087 
L 213.979198 289.895641 
L 210.438658 291.64572 
L 208.802115 289.281535 
L 205.031299 288.140963 
L 202.713849 292.49614 
L 203.003074 295.368593 
L 201.580486 297.841343 
L 198.743537 300.096964 
L 199.399048 303.036002 
L 197.885819 305.445814 
L 197.563955 310.671514 
L 199.365494 312.141493 
L 200.129828 310.77006 
L 202.250523 312.567606 
L 199.759004 314.203668 
L 200.089028 314.70369 
L 204.042107 313.564925 
L 205.681359 313.330418 
L 206.932586 314.762095 
L 205.583439 317.186492 
L 201.032883 317.982153 
L 204.591538 320.434866 
L 203.390218 322.936852 
L 201.507046 325.352117 
L 199.778947 325.405069 
L 199.034556 328.27565 
L 195.940109 329.493811 
L 193.906433 333.369036 
L 191.035929 334.501395 
L 192.244528 335.531563 
L 193.169321 340.369452 
L 195.853971 337.519828 
L 197.247509 339.409547 
L 197.452424 341.312932 
L 197.968334 343.63241 
L 199.370945 346.164518 
L 196.490454 348.254976 
L 196.475929 350.433927 
L 197.969215 355.467069 
L 199.12523 354.014434 
L 198.911274 356.013638 
L 197.423407 357.869588 
L 161.06413 304.730468 
L 180.485921 286.058717 
L 180.586551 286.152697 
L 194.418719 272.948446 
L 198.932099 255.237519 
L 200.503362 255.379885 
L 202.706571 254.890801 
L 203.882529 253.993835 
L 204.853573 251.546608 
L 205.986022 248.504458 
L 207.945311 246.910377 
L 210.038817 245.842795 
L 210.321709 247.560059 
L 209.326185 248.925119 
L 209.223727 250.28466 
L 209.522939 251.889713 
L 211.016225 253.444539 
L 213.563037 253.810441 
L 215.890474 253.599651 
L 218.640405 252.595039 
L 219.958707 250.812079 
L 220.390275 248.527255 
L 219.334922 247.17136 
L 219.524397 245.685844 
L 220.536241 244.788911 
L 222.307882 244.912093 
L 225.003402 246.052665 
L 227.369812 245.80722 
L 229.542208 244.959527 
L 230.967505 243.822601 
L 231.987509 241.54783 
L 233.371972 239.637153 
L 234.083723 237.419867 
L 235.221591 235.500026 
L 237.367679 234.646879 
L 239.764901 234.447948 
L 241.398735 233.284579 
L 242.997188 233.070143 
" clip-path="url(#p47541c345e)" style="fill: #e0bd1f; stroke: #0000ff; stroke-width: 0.5"/>
    <path d="M 334.165607 446.113934 
L 345.565172 459.320025 
L 346.225221 459.862948 
L 453.037336 580.771631 
L 364.578048 660.849432 
L 300.435656 588.888016 
L 299.742967 588.131576 
L 246.062651 528.533124 
L 300.022236 476.26538 
L 334.165607 446.113934 
" clip-path="url(#p47541c345e)" style="fill: #e0bd1f; stroke: #0000ff; stroke-width: 0.5"/>
    <path d="M 202.139905 516.621796 
L 236.687687 589.003873 
L 247.875973 592.917433 
L 243.640916 602.430773 
L 238.928073 613.096577 
L 232.947651 626.629315 
L 225.85025 640.496026 
L 219.523516 640.347287 
L 191.705966 566.502524 
L 178.25549 572.874282 
L 165.838663 524.191611 
L 193.747769 519.632937 
L 202.139905 516.621796 
" clip-path="url(#p47541c345e)" style="fill: #e0bd1f; stroke: #0000ff; stroke-width: 0.5"/>
    <path d="M 197.514081 358.552118 
L 213.978317 380.147402 
L 260.485965 432.152323 
L 300.022236 476.26538 
L 246.062651 528.533124 
L 299.742967 588.131576 
L 296.086359 588.167151 
L 291.821403 588.983803 
L 288.362431 589.961971 
L 286.356891 591.831619 
L 287.04958 595.861036 
L 288.216464 598.950652 
L 289.67711 601.79479 
L 290.619137 605.555964 
L 292.911192 608.881007 
L 294.088978 611.872963 
L 278.551363 603.08686 
L 236.687687 589.003873 
L 202.139905 516.621796 
L 193.747769 519.632937 
L 165.838663 524.191611 
L 164.220235 519.761605 
L 161.88467 519.107358 
L 160.595385 518.505143 
L 156.443724 516.90285 
L 154.699305 515.809711 
L 151.770767 513.677306 
L 150.965633 513.243867 
L 148.945568 511.877921 
L 144.290726 509.466269 
L 141.36307 508.727173 
L 136.731827 507.563771 
L 123.677571 506.305503 
L 124.324041 504.850109 
L 125.399337 505.766226 
L 126.720349 502.258709 
L 125.571612 501.033289 
L 125.814585 499.993989 
L 123.970418 497.363368 
L 120.654736 498.542274 
L 120.073545 497.196365 
L 120.536872 497.626157 
L 121.309366 495.185303 
L 119.230353 493.788314 
L 120.118883 491.006228 
L 121.798968 491.586565 
L 121.249504 490.309113 
L 122.219634 488.13834 
L 123.562416 488.125562 
L 124.412887 488.656627 
L 125.772904 487.862773 
L 126.34861 485.691113 
L 125.873533 483.514001 
L 125.75567 480.265627 
L 126.564427 479.057519 
L 125.9787 476.812869 
L 127.601632 473.621981 
L 130.176579 471.240451 
L 130.156636 467.971087 
L 128.718675 468.201028 
L 129.326141 466.696361 
L 128.341486 463.678848 
L 125.233428 463.255462 
L 126.684086 461.68421 
L 127.782981 458.722343 
L 129.025101 458.048945 
L 127.957965 455.786032 
L 131.764163 457.347264 
L 133.130511 458.840073 
L 153.315722 447.738104 
L 159.080328 438.864426 
L 158.97242 438.406351 
L 161.03149 437.007556 
L 167.971141 433.326664 
L 169.150722 433.177038 
L 177.906437 428.501553 
L 164.940145 394.190215 
L 194.2972 389.616036 
L 193.593642 386.407803 
L 193.322533 386.142287 
L 193.406875 383.20233 
L 192.630758 375.99569 
L 194.904698 370.352089 
L 197.514081 358.552118 
" clip-path="url(#p47541c345e)" style="fill: #e0bd1f; stroke: #0000ff; stroke-width: 0.5"/>
   </g>
   <g id="PatchCollection_2">
    <path d="M 274.952562 302.267464 
L 277.37176 304.269587 
L 278.665044 304.6592 
L 281.024277 304.980313 
L 282.070953 305.327479 
L 283.214082 306.432053 
L 284.291806 308.235165 
L 285.451386 309.856124 
L 286.362694 310.464539 
L 288.296811 309.975847 
L 290.431324 308.563802 
L 290.961413 308.464303 
L 291.898871 308.584268 
L 293.727063 308.991358 
L 294.933896 309.513979 
L 295.76205 310.072661 
L 296.719654 311.024634 
L 297.264974 311.853812 
L 297.609639 312.815101 
L 297.730471 313.853111 
L 297.62889 315.30536 
L 297.387483 317.735785 
L 297.529331 318.99577 
L 298.092254 321.613763 
L 299.401506 327.366083 
L 299.477996 328.412562 
L 299.333673 328.830704 
L 298.872489 329.313072 
L 298.121909 329.661064 
L 296.834081 329.930268 
L 294.694017 330.090505 
L 291.006941 330.348041 
L 289.854746 330.674785 
L 289.295515 331.066127 
L 289.053702 331.512642 
L 288.977062 332.007135 
L 289.037679 333.190497 
L 289.362616 334.649527 
L 289.816002 335.776545 
L 290.238123 336.350326 
L 290.718057 336.69012 
L 291.981318 337.272427 
L 296.363775 339.041803 
L 296.437667 339.262205 
L 296.323927 339.428867 
L 295.644531 339.790606 
L 294.245428 340.184409 
L 289.282648 341.40138 
L 288.217306 341.990915 
L 287.276737 342.777935 
L 286.142781 344.062229 
L 285.510348 345.009271 
L 285.294343 345.767122 
L 285.315566 346.582094 
L 285.602933 347.653316 
L 286.27653 349.108112 
L 288.351429 353.159458 
L 288.527299 354.102621 
L 288.439199 354.781617 
L 288.159873 355.115061 
L 287.663152 355.30719 
L 286.297547 355.454243 
L 284.715949 355.647162 
L 284.229776 355.883381 
L 284.037913 356.106822 
L 283.959589 356.746089 
L 284.208066 357.552968 
L 284.422635 357.93544 
L 286.230979 365.757194 
L 281.271897 374.064504 
L 280.526164 375.637079 
L 280.158665 376.917054 
L 280.096243 377.906155 
L 280.217161 378.602905 
L 280.532113 379.295548 
L 281.174762 380.144877 
L 282.263394 381.122105 
L 283.823534 382.174508 
L 290.43414 385.995807 
L 291.147958 386.335033 
L 290.827352 390.758813 
L 331.18203 432.475066 
L 265.469451 532.878939 
L 331.429238 577.527249 
L 330.658722 578.961313 
L 329.964303 579.792359 
L 329.122322 580.481019 
L 328.022205 581.079461 
L 326.655302 581.542553 
L 324.840616 581.893688 
L 323.810138 581.837464 
L 321.099609 581.35451 
L 316.360075 583.110545 
L 313.454097 584.779394 
L 312.117815 585.301903 
L 310.900596 585.551127 
L 309.28337 585.732493 
L 288.295583 578.202975 
L 287.42043 579.281701 
L 232.974911 534.34857 
L 243.084884 520.643384 
L 234.876994 509.967524 
L 230.0131 498.57952 
L 200.747521 513.501721 
L 192.353019 518.622309 
L 174.549048 524.654876 
L 169.27287 525.138177 
L 167.206233 524.140135 
L 162.695069 524.288827 
L 156.152665 523.365311 
L 147.456914 519.987972 
L 139.90467 518.404546 
L 129.005654 519.092146 
L 118.167838 527.513957 
L 116.744803 525.674336 
L 115.82301 525.91406 
L 115.60535 524.938724 
L 115.404343 523.828943 
L 115.36835 523.39998 
L 115.609739 522.732642 
L 116.292867 521.806287 
L 117.668687 520.118979 
L 118.033288 519.274389 
L 118.106139 518.388295 
L 117.99265 516.571055 
L 117.951518 514.731264 
L 118.184295 513.451372 
L 118.68477 511.890277 
L 119.303992 510.650768 
L 120.135303 509.511249 
L 120.808164 508.905146 
L 121.198121 508.791346 
L 121.985079 508.872407 
L 123.850262 509.282726 
L 124.347269 509.167513 
L 125.230672 508.583757 
L 126.195801 507.698125 
L 126.79654 506.870079 
L 127.140968 506.050444 
L 127.266529 505.147012 
L 127.186892 504.059504 
L 126.843412 502.69554 
L 126.232452 501.19316 
L 125.695259 500.269838 
L 125.075301 499.777469 
L 123.6179 499.030279 
L 122.401812 498.326593 
L 122.022842 497.900145 
L 121.952794 497.440031 
L 122.134772 497.120243 
L 122.89276 496.124602 
L 123.034889 495.281703 
L 123.143896 493.403175 
L 123.012858 491.696726 
L 122.758005 490.769957 
L 122.364681 490.264001 
L 120.406478 488.253163 
L 120.415049 487.830864 
L 120.611823 487.228566 
L 121.196652 486.271043 
L 121.56597 485.914413 
L 122.008529 485.922694 
L 122.621383 486.344491 
L 123.431135 487.215205 
L 124.826123 488.72108 
L 125.155165 488.802188 
L 125.334054 488.613959 
L 125.867278 486.762761 
L 126.759432 482.730539 
L 127.517248 479.80621 
L 129.952767 471.309404 
L 129.957312 469.733789 
L 129.697023 467.296546 
L 129.435232 466.57057 
L 128.829859 465.625398 
L 127.348514 463.468343 
L 127.191521 462.799603 
L 127.31974 462.133479 
L 127.785002 461.368715 
L 129.274829 459.244875 
L 129.581548 458.162436 
L 129.986337 455.560018 
L 130.384706 453.90618 
L 130.814964 452.940811 
L 131.435199 452.057365 
L 132.442075 450.965798 
L 133.808367 449.839297 
L 135.21532 448.945275 
L 137.072783 448.014619 
L 139.200619 447.171136 
L 141.618217 446.495406 
L 144.242719 445.978575 
L 145.332502 445.989621 
L 146.199968 446.185004 
L 146.493532 446.660002 
L 146.607158 447.569053 
L 146.75278 449.306802 
L 147.009024 449.605416 
L 147.694502 449.833946 
L 148.769896 449.9153 
L 149.53083 449.794063 
L 150.139517 449.469858 
L 150.386084 449.165597 
L 150.748797 448.030268 
L 150.919101 446.885437 
L 150.876853 445.466685 
L 150.450612 438.543754 
L 150.438355 437.359198 
L 150.223461 436.612976 
L 149.720247 435.885402 
L 148.925539 435.185131 
L 146.812595 433.465449 
L 146.090918 432.356692 
L 145.204498 430.432624 
L 144.186059 428.309307 
L 143.431886 427.249403 
L 142.669454 426.537795 
L 141.867423 426.054088 
L 141.085164 425.827598 
L 140.318555 425.835674 
L 139.158418 426.106311 
L 137.314617 426.563058 
L 136.108946 426.520787 
L 131.007261 426.148763 
L 129.497177 426.417521 
L 127.641276 426.987626 
L 125.708031 427.762093 
L 125.226594 428.240303 
L 124.708498 429.117787 
L 124.019898 430.303203 
L 123.581703 430.619846 
L 123.07075 430.693827 
L 122.122203 430.567216 
L 120.995251 430.141391 
L 119.875078 429.470285 
L 118.63861 428.486232 
L 117.554227 427.450901 
L 117.110515 426.711584 
L 116.980566 426.11782 
L 117.061292 425.165698 
L 117.457499 423.963442 
L 118.410931 422.064725 
L 119.260325 420.231554 
L 119.542868 419.125021 
L 119.636014 417.739238 
L 119.5143 415.736327 
L 119.39238 413.176017 
L 119.536022 411.877807 
L 119.829687 410.857024 
L 120.281872 409.934308 
L 121.074808 408.891619 
L 122.149143 407.838518 
L 123.363587 406.931677 
L 124.860061 406.127596 
L 126.449825 405.555912 
L 128.136215 405.182614 
L 130.225481 404.959815 
L 132.855341 404.917583 
L 138.546151 405.122475 
L 139.411348 405.455449 
L 140.820154 406.310529 
L 142.962048 407.662978 
L 143.882796 407.984157 
L 144.660749 408.00229 
L 145.059522 407.846621 
L 145.300181 407.536101 
L 145.42434 406.964913 
L 145.347376 405.917028 
L 144.915213 403.961315 
L 144.573631 402.088465 
L 144.648727 401.577565 
L 144.906036 401.358758 
L 145.317209 401.284171 
L 146.253825 401.31546 
L 148.787114 401.458035 
L 149.368241 401.305318 
L 149.6421 401.045053 
L 149.673493 400.765921 
L 149.364023 400.374244 
L 148.191199 399.305372 
L 148.190582 398.938947 
L 150.043269 395.063817 
L 151.687244 392.116324 
L 155.226666 386.013732 
L 155.274286 385.263461 
L 155.05539 384.331598 
L 154.526664 383.064669 
L 153.755967 381.154771 
L 153.664554 380.311353 
L 153.810644 379.730415 
L 154.26491 379.13698 
L 165.321389 367.011145 
L 165.787799 366.899945 
L 166.44722 366.936462 
L 167.569633 367.189595 
L 168.823741 367.380526 
L 169.412276 367.258286 
L 169.886247 366.891385 
L 170.343029 366.228469 
L 171.42338 364.528645 
L 171.983106 364.210273 
L 172.684592 364.074136 
L 173.699541 364.088937 
L 177.379171 364.334697 
L 178.243262 364.071616 
L 179.992929 363.324991 
L 180.86329 362.743996 
L 181.532884 362.077066 
L 182.054273 361.252418 
L 182.280371 360.498847 
L 182.31322 359.595464 
L 182.095017 358.412181 
L 181.153244 354.497254 
L 181.263723 353.738294 
L 181.986088 351.399166 
L 183.902591 345.65754 
L 185.446556 341.751793 
L 186.881719 338.692939 
L 188.353879 336.031008 
L 190.005832 333.50256 
L 191.392434 331.74513 
L 193.476193 329.480808 
L 197.210682 325.465602 
L 198.694961 323.498268 
L 200.600344 320.582307 
L 202.451503 317.340068 
L 204.373518 313.533962 
L 204.797708 312.286121 
L 205.055937 310.829726 
L 205.129396 309.097531 
L 204.983552 307.262696 
L 204.750267 306.56123 
L 204.315408 305.948997 
L 203.509463 305.191766 
L 200.553371 302.656237 
L 200.267287 302.044446 
L 200.16049 301.257687 
L 200.168722 300.120397 
L 200.364758 298.780131 
L 200.7234 297.575708 
L 201.333725 296.351718 
L 202.092584 295.393886 
L 203.120365 294.436264 
L 204.685431 293.31057 
L 208.495438 290.700464 
L 209.501449 289.687251 
L 210.756252 288.002632 
L 211.958972 286.002046 
L 213.010537 283.814004 
L 213.276727 282.980342 
L 213.236773 282.215995 
L 212.923021 281.137947 
L 212.330581 279.194664 
L 212.356422 278.370076 
L 212.56911 277.833921 
L 213.272005 277.023126 
L 214.206812 276.235214 
L 215.316315 275.560722 
L 216.607295 275.016499 
L 218.118997 274.589487 
L 219.892917 274.303683 
L 222.042617 274.319215 
L 223.582974 274.24482 
L 224.840513 273.968757 
L 226.329927 273.423146 
L 228.39167 272.426378 
L 231.696463 270.833427 
L 233.169597 270.397626 
L 233.822559 270.375075 
L 234.062492 270.600977 
L 234.193396 270.867136 
L 234.567281 272.317056 
L 234.817102 273.001677 
L 235.127324 273.19937 
L 236.080501 273.050294 
L 237.366836 272.626544 
L 238.513498 272.045694 
L 239.355016 271.402261 
L 239.732565 270.865057 
L 240.076054 269.940695 
L 240.638042 268.334807 
L 241.12372 267.799171 
L 241.909508 267.514176 
L 243.366555 267.225789 
L 245.241947 267.101088 
L 247.320745 267.185682 
L 250.255587 267.526024 
L 251.272527 267.824141 
L 252.999274 268.330087 
L 253.749928 268.324524 
L 254.858213 268.068372 
L 256.067651 267.560921 
L 257.297679 266.792655 
L 259.609217 264.934285 
L 261.708351 263.236524 
L 262.238206 263.511114 
L 262.468329 263.932907 
L 261.895766 263.556816 
L 262.708859 267.398183 
L 260.429914 268.367533 
L 259.902251 268.849733 
L 259.79339 269.409366 
L 259.919735 270.337985 
L 260.389945 271.723888 
L 262.329323 276.773215 
L 262.46467 277.959883 
L 262.328554 278.824676 
L 262.063927 279.370815 
L 261.6573 279.776746 
L 261.087886 280.005612 
L 259.560949 280.261913 
L 258.846732 280.509647 
L 258.469352 280.801403 
L 257.277872 282.395297 
L 256.418318 283.938357 
L 255.904191 285.378138 
L 255.690148 286.582912 
L 255.702182 287.742903 
L 255.932886 288.703698 
L 256.35634 289.530062 
L 257.333233 290.871048 
L 258.400833 292.001667 
L 259.773388 293.101819 
L 261.307336 294.002995 
L 262.515628 294.479127 
L 265.449108 295.435086 
L 268.343954 297.003562 
L 270.78585 298.517097 
L 272.061169 299.430957 
L 274.952562 302.267464 
M 274.749486 302.06048 
L 274.627803 301.935069 
L 274.749486 302.06048 
M 274.547058 301.851715 
L 274.414066 301.713574 
L 274.547058 301.851715 
" clip-path="url(#p47541c345e)" style="fill: none; stroke: #000000"/>
   </g>
   <g id="matplotlib.axis_1">
    <g id="xtick_1">
     <g id="line2d_1">
      <path d="M 135.424394 683.302376 
L 135.424394 189.337624 
" clip-path="url(#p47541c345e)" style="fill: none; stroke: #b0b0b0; stroke-width: 0.8; stroke-linecap: square"/>
     </g>
     <g id="line2d_2">
      <defs>
       <path id="m1a7579bd9f" d="M 0 0 
L 0 3.5 
" style="stroke: #000000; stroke-width: 0.8"/>
      </defs>
      <g>
       <use xlink:href="#m1a7579bd9f" x="135.424394" y="683.302376" style="stroke: #000000; stroke-width: 0.8"/>
      </g>
     </g>
     <g id="text_1">
      <!-- −48.34 -->
      <g transform="translate(124.291329 721.843758) rotate(-45) scale(0.1 -0.1)">
       <defs>
        <path id="DejaVuSans-2212" d="M 678 2272 
L 4684 2272 
L 4684 1741 
L 678 1741 
L 678 2272 
z
" transform="scale(0.015625)"/>
        <path id="DejaVuSans-34" d="M 2419 4116 
L 825 1625 
L 2419 1625 
L 2419 4116 
z
M 2253 4666 
L 3047 4666 
L 3047 1625 
L 3713 1625 
L 3713 1100 
L 3047 1100 
L 3047 0 
L 2419 0 
L 2419 1100 
L 313 1100 
L 313 1709 
L 2253 4666 
z
" transform="scale(0.015625)"/>
        <path id="DejaVuSans-38" d="M 2034 2216 
Q 1584 2216 1326 1975 
Q 1069 1734 1069 1313 
Q 1069 891 1326 650 
Q 1584 409 2034 409 
Q 2484 409 2743 651 
Q 3003 894 3003 1313 
Q 3003 1734 2745 1975 
Q 2488 2216 2034 2216 
z
M 1403 2484 
Q 997 2584 770 2862 
Q 544 3141 544 3541 
Q 544 4100 942 4425 
Q 1341 4750 2034 4750 
Q 2731 4750 3128 4425 
Q 3525 4100 3525 3541 
Q 3525 3141 3298 2862 
Q 3072 2584 2669 2484 
Q 3125 2378 3379 2068 
Q 3634 1759 3634 1313 
Q 3634 634 3220 271 
Q 2806 -91 2034 -91 
Q 1263 -91 848 271 
Q 434 634 434 1313 
Q 434 1759 690 2068 
Q 947 2378 1403 2484 
z
M 1172 3481 
Q 1172 3119 1398 2916 
Q 1625 2713 2034 2713 
Q 2441 2713 2670 2916 
Q 2900 3119 2900 3481 
Q 2900 3844 2670 4047 
Q 2441 4250 2034 4250 
Q 1625 4250 1398 4047 
Q 1172 3844 1172 3481 
z
" transform="scale(0.015625)"/>
        <path id="DejaVuSans-2e" d="M 684 794 
L 1344 794 
L 1344 0 
L 684 0 
L 684 794 
z
" transform="scale(0.015625)"/>
        <path id="DejaVuSans-33" d="M 2597 2516 
Q 3050 2419 3304 2112 
Q 3559 1806 3559 1356 
Q 3559 666 3084 287 
Q 2609 -91 1734 -91 
Q 1441 -91 1130 -33 
Q 819 25 488 141 
L 488 750 
Q 750 597 1062 519 
Q 1375 441 1716 441 
Q 2309 441 2620 675 
Q 2931 909 2931 1356 
Q 2931 1769 2642 2001 
Q 2353 2234 1838 2234 
L 1294 2234 
L 1294 2753 
L 1863 2753 
Q 2328 2753 2575 2939 
Q 2822 3125 2822 3475 
Q 2822 3834 2567 4026 
Q 2313 4219 1838 4219 
Q 1578 4219 1281 4162 
Q 984 4106 628 3988 
L 628 4550 
Q 988 4650 1302 4700 
Q 1616 4750 1894 4750 
Q 2613 4750 3031 4423 
Q 3450 4097 3450 3541 
Q 3450 3153 3228 2886 
Q 3006 2619 2597 2516 
z
" transform="scale(0.015625)"/>
       </defs>
       <use xlink:href="#DejaVuSans-2212"/>
       <use xlink:href="#DejaVuSans-34" transform="translate(83.789062 0)"/>
       <use xlink:href="#DejaVuSans-38" transform="translate(147.412109 0)"/>
       <use xlink:href="#DejaVuSans-2e" transform="translate(211.035156 0)"/>
       <use xlink:href="#DejaVuSans-33" transform="translate(242.822266 0)"/>
       <use xlink:href="#DejaVuSans-34" transform="translate(306.445312 0)"/>
      </g>
     </g>
    </g>
    <g id="xtick_2">
     <g id="line2d_3">
      <path d="M 200.704654 683.302376 
L 200.704654 189.337624 
" clip-path="url(#p47541c345e)" style="fill: none; stroke: #b0b0b0; stroke-width: 0.8; stroke-linecap: square"/>
     </g>
     <g id="line2d_4">
      <g>
       <use xlink:href="#m1a7579bd9f" x="200.704654" y="683.302376" style="stroke: #000000; stroke-width: 0.8"/>
      </g>
     </g>
     <g id="text_2">
      <!-- −48.32 -->
      <g transform="translate(189.571589 721.843758) rotate(-45) scale(0.1 -0.1)">
       <defs>
        <path id="DejaVuSans-32" d="M 1228 531 
L 3431 531 
L 3431 0 
L 469 0 
L 469 531 
Q 828 903 1448 1529 
Q 2069 2156 2228 2338 
Q 2531 2678 2651 2914 
Q 2772 3150 2772 3378 
Q 2772 3750 2511 3984 
Q 2250 4219 1831 4219 
Q 1534 4219 1204 4116 
Q 875 4013 500 3803 
L 500 4441 
Q 881 4594 1212 4672 
Q 1544 4750 1819 4750 
Q 2544 4750 2975 4387 
Q 3406 4025 3406 3419 
Q 3406 3131 3298 2873 
Q 3191 2616 2906 2266 
Q 2828 2175 2409 1742 
Q 1991 1309 1228 531 
z
" transform="scale(0.015625)"/>
       </defs>
       <use xlink:href="#DejaVuSans-2212"/>
       <use xlink:href="#DejaVuSans-34" transform="translate(83.789062 0)"/>
       <use xlink:href="#DejaVuSans-38" transform="translate(147.412109 0)"/>
       <use xlink:href="#DejaVuSans-2e" transform="translate(211.035156 0)"/>
       <use xlink:href="#DejaVuSans-33" transform="translate(242.822266 0)"/>
       <use xlink:href="#DejaVuSans-32" transform="translate(306.445312 0)"/>
      </g>
     </g>
    </g>
    <g id="xtick_3">
     <g id="line2d_5">
      <path d="M 265.984913 683.302376 
L 265.984913 189.337624 
" clip-path="url(#p47541c345e)" style="fill: none; stroke: #b0b0b0; stroke-width: 0.8; stroke-linecap: square"/>
     </g>
     <g id="line2d_6">
      <g>
       <use xlink:href="#m1a7579bd9f" x="265.984913" y="683.302376" style="stroke: #000000; stroke-width: 0.8"/>
      </g>
     </g>
     <g id="text_3">
      <!-- −48.30 -->
      <g transform="translate(254.851848 721.843758) rotate(-45) scale(0.1 -0.1)">
       <defs>
        <path id="DejaVuSans-30" d="M 2034 4250 
Q 1547 4250 1301 3770 
Q 1056 3291 1056 2328 
Q 1056 1369 1301 889 
Q 1547 409 2034 409 
Q 2525 409 2770 889 
Q 3016 1369 3016 2328 
Q 3016 3291 2770 3770 
Q 2525 4250 2034 4250 
z
M 2034 4750 
Q 2819 4750 3233 4129 
Q 3647 3509 3647 2328 
Q 3647 1150 3233 529 
Q 2819 -91 2034 -91 
Q 1250 -91 836 529 
Q 422 1150 422 2328 
Q 422 3509 836 4129 
Q 1250 4750 2034 4750 
z
" transform="scale(0.015625)"/>
       </defs>
       <use xlink:href="#DejaVuSans-2212"/>
       <use xlink:href="#DejaVuSans-34" transform="translate(83.789062 0)"/>
       <use xlink:href="#DejaVuSans-38" transform="translate(147.412109 0)"/>
       <use xlink:href="#DejaVuSans-2e" transform="translate(211.035156 0)"/>
       <use xlink:href="#DejaVuSans-33" transform="translate(242.822266 0)"/>
       <use xlink:href="#DejaVuSans-30" transform="translate(306.445312 0)"/>
      </g>
     </g>
    </g>
    <g id="xtick_4">
     <g id="line2d_7">
      <path d="M 331.265172 683.302376 
L 331.265172 189.337624 
" clip-path="url(#p47541c345e)" style="fill: none; stroke: #b0b0b0; stroke-width: 0.8; stroke-linecap: square"/>
     </g>
     <g id="line2d_8">
      <g>
       <use xlink:href="#m1a7579bd9f" x="331.265172" y="683.302376" style="stroke: #000000; stroke-width: 0.8"/>
      </g>
     </g>
     <g id="text_4">
      <!-- −48.28 -->
      <g transform="translate(320.132107 721.843758) rotate(-45) scale(0.1 -0.1)">
       <use xlink:href="#DejaVuSans-2212"/>
       <use xlink:href="#DejaVuSans-34" transform="translate(83.789062 0)"/>
       <use xlink:href="#DejaVuSans-38" transform="translate(147.412109 0)"/>
       <use xlink:href="#DejaVuSans-2e" transform="translate(211.035156 0)"/>
       <use xlink:href="#DejaVuSans-32" transform="translate(242.822266 0)"/>
       <use xlink:href="#DejaVuSans-38" transform="translate(306.445312 0)"/>
      </g>
     </g>
    </g>
    <g id="xtick_5">
     <g id="line2d_9">
      <path d="M 396.545432 683.302376 
L 396.545432 189.337624 
" clip-path="url(#p47541c345e)" style="fill: none; stroke: #b0b0b0; stroke-width: 0.8; stroke-linecap: square"/>
     </g>
     <g id="line2d_10">
      <g>
       <use xlink:href="#m1a7579bd9f" x="396.545432" y="683.302376" style="stroke: #000000; stroke-width: 0.8"/>
      </g>
     </g>
     <g id="text_5">
      <!-- −48.26 -->
      <g transform="translate(385.412367 721.843758) rotate(-45) scale(0.1 -0.1)">
       <defs>
        <path id="DejaVuSans-36" d="M 2113 2584 
Q 1688 2584 1439 2293 
Q 1191 2003 1191 1497 
Q 1191 994 1439 701 
Q 1688 409 2113 409 
Q 2538 409 2786 701 
Q 3034 994 3034 1497 
Q 3034 2003 2786 2293 
Q 2538 2584 2113 2584 
z
M 3366 4563 
L 3366 3988 
Q 3128 4100 2886 4159 
Q 2644 4219 2406 4219 
Q 1781 4219 1451 3797 
Q 1122 3375 1075 2522 
Q 1259 2794 1537 2939 
Q 1816 3084 2150 3084 
Q 2853 3084 3261 2657 
Q 3669 2231 3669 1497 
Q 3669 778 3244 343 
Q 2819 -91 2113 -91 
Q 1303 -91 875 529 
Q 447 1150 447 2328 
Q 447 3434 972 4092 
Q 1497 4750 2381 4750 
Q 2619 4750 2861 4703 
Q 3103 4656 3366 4563 
z
" transform="scale(0.015625)"/>
       </defs>
       <use xlink:href="#DejaVuSans-2212"/>
       <use xlink:href="#DejaVuSans-34" transform="translate(83.789062 0)"/>
       <use xlink:href="#DejaVuSans-38" transform="translate(147.412109 0)"/>
       <use xlink:href="#DejaVuSans-2e" transform="translate(211.035156 0)"/>
       <use xlink:href="#DejaVuSans-32" transform="translate(242.822266 0)"/>
       <use xlink:href="#DejaVuSans-36" transform="translate(306.445312 0)"/>
      </g>
     </g>
    </g>
    <g id="xtick_6">
     <g id="line2d_11">
      <path d="M 461.825691 683.302376 
L 461.825691 189.337624 
" clip-path="url(#p47541c345e)" style="fill: none; stroke: #b0b0b0; stroke-width: 0.8; stroke-linecap: square"/>
     </g>
     <g id="line2d_12">
      <g>
       <use xlink:href="#m1a7579bd9f" x="461.825691" y="683.302376" style="stroke: #000000; stroke-width: 0.8"/>
      </g>
     </g>
     <g id="text_6">
      <!-- −48.24 -->
      <g transform="translate(450.692626 721.843758) rotate(-45) scale(0.1 -0.1)">
       <use xlink:href="#DejaVuSans-2212"/>
       <use xlink:href="#DejaVuSans-34" transform="translate(83.789062 0)"/>
       <use xlink:href="#DejaVuSans-38" transform="translate(147.412109 0)"/>
       <use xlink:href="#DejaVuSans-2e" transform="translate(211.035156 0)"/>
       <use xlink:href="#DejaVuSans-32" transform="translate(242.822266 0)"/>
       <use xlink:href="#DejaVuSans-34" transform="translate(306.445312 0)"/>
      </g>
     </g>
    </g>
    <g id="xtick_7">
     <g id="line2d_13">
      <path d="M 527.10595 683.302376 
L 527.10595 189.337624 
" clip-path="url(#p47541c345e)" style="fill: none; stroke: #b0b0b0; stroke-width: 0.8; stroke-linecap: square"/>
     </g>
     <g id="line2d_14">
      <g>
       <use xlink:href="#m1a7579bd9f" x="527.10595" y="683.302376" style="stroke: #000000; stroke-width: 0.8"/>
      </g>
     </g>
     <g id="text_7">
      <!-- −48.22 -->
      <g transform="translate(515.972885 721.843758) rotate(-45) scale(0.1 -0.1)">
       <use xlink:href="#DejaVuSans-2212"/>
       <use xlink:href="#DejaVuSans-34" transform="translate(83.789062 0)"/>
       <use xlink:href="#DejaVuSans-38" transform="translate(147.412109 0)"/>
       <use xlink:href="#DejaVuSans-2e" transform="translate(211.035156 0)"/>
       <use xlink:href="#DejaVuSans-32" transform="translate(242.822266 0)"/>
       <use xlink:href="#DejaVuSans-32" transform="translate(306.445312 0)"/>
      </g>
     </g>
    </g>
    <g id="xtick_8">
     <g id="line2d_15">
      <path d="M 592.38621 683.302376 
L 592.38621 189.337624 
" clip-path="url(#p47541c345e)" style="fill: none; stroke: #b0b0b0; stroke-width: 0.8; stroke-linecap: square"/>
     </g>
     <g id="line2d_16">
      <g>
       <use xlink:href="#m1a7579bd9f" x="592.38621" y="683.302376" style="stroke: #000000; stroke-width: 0.8"/>
      </g>
     </g>
     <g id="text_8">
      <!-- −48.20 -->
      <g transform="translate(581.253145 721.843758) rotate(-45) scale(0.1 -0.1)">
       <use xlink:href="#DejaVuSans-2212"/>
       <use xlink:href="#DejaVuSans-34" transform="translate(83.789062 0)"/>
       <use xlink:href="#DejaVuSans-38" transform="translate(147.412109 0)"/>
       <use xlink:href="#DejaVuSans-2e" transform="translate(211.035156 0)"/>
       <use xlink:href="#DejaVuSans-32" transform="translate(242.822266 0)"/>
       <use xlink:href="#DejaVuSans-30" transform="translate(306.445312 0)"/>
      </g>
     </g>
    </g>
    <g id="text_9">
     <!-- Longitude (°) -->
     <g transform="translate(336.139844 734.912756) scale(0.1 -0.1)">
      <defs>
       <path id="DejaVuSans-4c" d="M 628 4666 
L 1259 4666 
L 1259 531 
L 3531 531 
L 3531 0 
L 628 0 
L 628 4666 
z
" transform="scale(0.015625)"/>
       <path id="DejaVuSans-6f" d="M 1959 3097 
Q 1497 3097 1228 2736 
Q 959 2375 959 1747 
Q 959 1119 1226 758 
Q 1494 397 1959 397 
Q 2419 397 2687 759 
Q 2956 1122 2956 1747 
Q 2956 2369 2687 2733 
Q 2419 3097 1959 3097 
z
M 1959 3584 
Q 2709 3584 3137 3096 
Q 3566 2609 3566 1747 
Q 3566 888 3137 398 
Q 2709 -91 1959 -91 
Q 1206 -91 779 398 
Q 353 888 353 1747 
Q 353 2609 779 3096 
Q 1206 3584 1959 3584 
z
" transform="scale(0.015625)"/>
       <path id="DejaVuSans-6e" d="M 3513 2113 
L 3513 0 
L 2938 0 
L 2938 2094 
Q 2938 2591 2744 2837 
Q 2550 3084 2163 3084 
Q 1697 3084 1428 2787 
Q 1159 2491 1159 1978 
L 1159 0 
L 581 0 
L 581 3500 
L 1159 3500 
L 1159 2956 
Q 1366 3272 1645 3428 
Q 1925 3584 2291 3584 
Q 2894 3584 3203 3211 
Q 3513 2838 3513 2113 
z
" transform="scale(0.015625)"/>
       <path id="DejaVuSans-67" d="M 2906 1791 
Q 2906 2416 2648 2759 
Q 2391 3103 1925 3103 
Q 1463 3103 1205 2759 
Q 947 2416 947 1791 
Q 947 1169 1205 825 
Q 1463 481 1925 481 
Q 2391 481 2648 825 
Q 2906 1169 2906 1791 
z
M 3481 434 
Q 3481 -459 3084 -895 
Q 2688 -1331 1869 -1331 
Q 1566 -1331 1297 -1286 
Q 1028 -1241 775 -1147 
L 775 -588 
Q 1028 -725 1275 -790 
Q 1522 -856 1778 -856 
Q 2344 -856 2625 -561 
Q 2906 -266 2906 331 
L 2906 616 
Q 2728 306 2450 153 
Q 2172 0 1784 0 
Q 1141 0 747 490 
Q 353 981 353 1791 
Q 353 2603 747 3093 
Q 1141 3584 1784 3584 
Q 2172 3584 2450 3431 
Q 2728 3278 2906 2969 
L 2906 3500 
L 3481 3500 
L 3481 434 
z
" transform="scale(0.015625)"/>
       <path id="DejaVuSans-69" d="M 603 3500 
L 1178 3500 
L 1178 0 
L 603 0 
L 603 3500 
z
M 603 4863 
L 1178 4863 
L 1178 4134 
L 603 4134 
L 603 4863 
z
" transform="scale(0.015625)"/>
       <path id="DejaVuSans-74" d="M 1172 4494 
L 1172 3500 
L 2356 3500 
L 2356 3053 
L 1172 3053 
L 1172 1153 
Q 1172 725 1289 603 
Q 1406 481 1766 481 
L 2356 481 
L 2356 0 
L 1766 0 
Q 1100 0 847 248 
Q 594 497 594 1153 
L 594 3053 
L 172 3053 
L 172 3500 
L 594 3500 
L 594 4494 
L 1172 4494 
z
" transform="scale(0.015625)"/>
       <path id="DejaVuSans-75" d="M 544 1381 
L 544 3500 
L 1119 3500 
L 1119 1403 
Q 1119 906 1312 657 
Q 1506 409 1894 409 
Q 2359 409 2629 706 
Q 2900 1003 2900 1516 
L 2900 3500 
L 3475 3500 
L 3475 0 
L 2900 0 
L 2900 538 
Q 2691 219 2414 64 
Q 2138 -91 1772 -91 
Q 1169 -91 856 284 
Q 544 659 544 1381 
z
M 1991 3584 
L 1991 3584 
z
" transform="scale(0.015625)"/>
       <path id="DejaVuSans-64" d="M 2906 2969 
L 2906 4863 
L 3481 4863 
L 3481 0 
L 2906 0 
L 2906 525 
Q 2725 213 2448 61 
Q 2172 -91 1784 -91 
Q 1150 -91 751 415 
Q 353 922 353 1747 
Q 353 2572 751 3078 
Q 1150 3584 1784 3584 
Q 2172 3584 2448 3432 
Q 2725 3281 2906 2969 
z
M 947 1747 
Q 947 1113 1208 752 
Q 1469 391 1925 391 
Q 2381 391 2643 752 
Q 2906 1113 2906 1747 
Q 2906 2381 2643 2742 
Q 2381 3103 1925 3103 
Q 1469 3103 1208 2742 
Q 947 2381 947 1747 
z
" transform="scale(0.015625)"/>
       <path id="DejaVuSans-65" d="M 3597 1894 
L 3597 1613 
L 953 1613 
Q 991 1019 1311 708 
Q 1631 397 2203 397 
Q 2534 397 2845 478 
Q 3156 559 3463 722 
L 3463 178 
Q 3153 47 2828 -22 
Q 2503 -91 2169 -91 
Q 1331 -91 842 396 
Q 353 884 353 1716 
Q 353 2575 817 3079 
Q 1281 3584 2069 3584 
Q 2775 3584 3186 3129 
Q 3597 2675 3597 1894 
z
M 3022 2063 
Q 3016 2534 2758 2815 
Q 2500 3097 2075 3097 
Q 1594 3097 1305 2825 
Q 1016 2553 972 2059 
L 3022 2063 
z
" transform="scale(0.015625)"/>
       <path id="DejaVuSans-20" transform="scale(0.015625)"/>
       <path id="DejaVuSans-28" d="M 1984 4856 
Q 1566 4138 1362 3434 
Q 1159 2731 1159 2009 
Q 1159 1288 1364 580 
Q 1569 -128 1984 -844 
L 1484 -844 
Q 1016 -109 783 600 
Q 550 1309 550 2009 
Q 550 2706 781 3412 
Q 1013 4119 1484 4856 
L 1984 4856 
z
" transform="scale(0.015625)"/>
       <path id="DejaVuSans-b0" d="M 1600 4347 
Q 1350 4347 1178 4173 
Q 1006 4000 1006 3750 
Q 1006 3503 1178 3333 
Q 1350 3163 1600 3163 
Q 1850 3163 2022 3333 
Q 2194 3503 2194 3750 
Q 2194 3997 2020 4172 
Q 1847 4347 1600 4347 
z
M 1600 4750 
Q 1800 4750 1984 4673 
Q 2169 4597 2303 4453 
Q 2447 4313 2519 4134 
Q 2591 3956 2591 3750 
Q 2591 3338 2302 3052 
Q 2013 2766 1594 2766 
Q 1172 2766 890 3047 
Q 609 3328 609 3750 
Q 609 4169 896 4459 
Q 1184 4750 1600 4750 
z
" transform="scale(0.015625)"/>
       <path id="DejaVuSans-29" d="M 513 4856 
L 1013 4856 
Q 1481 4119 1714 3412 
Q 1947 2706 1947 2009 
Q 1947 1309 1714 600 
Q 1481 -109 1013 -844 
L 513 -844 
Q 928 -128 1133 580 
Q 1338 1288 1338 2009 
Q 1338 2731 1133 3434 
Q 928 4138 513 4856 
z
" transform="scale(0.015625)"/>
      </defs>
      <use xlink:href="#DejaVuSans-4c"/>
      <use xlink:href="#DejaVuSans-6f" transform="translate(53.962891 0)"/>
      <use xlink:href="#DejaVuSans-6e" transform="translate(115.144531 0)"/>
      <use xlink:href="#DejaVuSans-67" transform="translate(178.523438 0)"/>
      <use xlink:href="#DejaVuSans-69" transform="translate(242 0)"/>
      <use xlink:href="#DejaVuSans-74" transform="translate(269.783203 0)"/>
      <use xlink:href="#DejaVuSans-75" transform="translate(308.992188 0)"/>
      <use xlink:href="#DejaVuSans-64" transform="translate(372.371094 0)"/>
      <use xlink:href="#DejaVuSans-65" transform="translate(435.847656 0)"/>
      <use xlink:href="#DejaVuSans-20" transform="translate(497.371094 0)"/>
      <use xlink:href="#DejaVuSans-28" transform="translate(529.158203 0)"/>
      <use xlink:href="#DejaVuSans-b0" transform="translate(568.171875 0)"/>
      <use xlink:href="#DejaVuSans-29" transform="translate(618.171875 0)"/>
     </g>
    </g>
   </g>
   <g id="matplotlib.axis_2">
    <g id="ytick_1">
     <g id="line2d_17">
      <path d="M 90 622.232157 
L 648 622.232157 
" clip-path="url(#p47541c345e)" style="fill: none; stroke: #b0b0b0; stroke-width: 0.8; stroke-linecap: square"/>
     </g>
     <g id="line2d_18">
      <defs>
       <path id="m1ffb3c23ad" d="M 0 0 
L -3.5 0 
" style="stroke: #000000; stroke-width: 0.8"/>
      </defs>
      <g>
       <use xlink:href="#m1ffb3c23ad" x="90" y="622.232157" style="stroke: #000000; stroke-width: 0.8"/>
      </g>
     </g>
     <g id="text_10">
      <!-- −6.52 -->
      <g transform="translate(52.354687 626.031376) scale(0.1 -0.1)">
       <defs>
        <path id="DejaVuSans-35" d="M 691 4666 
L 3169 4666 
L 3169 4134 
L 1269 4134 
L 1269 2991 
Q 1406 3038 1543 3061 
Q 1681 3084 1819 3084 
Q 2600 3084 3056 2656 
Q 3513 2228 3513 1497 
Q 3513 744 3044 326 
Q 2575 -91 1722 -91 
Q 1428 -91 1123 -41 
Q 819 9 494 109 
L 494 744 
Q 775 591 1075 516 
Q 1375 441 1709 441 
Q 2250 441 2565 725 
Q 2881 1009 2881 1497 
Q 2881 1984 2565 2268 
Q 2250 2553 1709 2553 
Q 1456 2553 1204 2497 
Q 953 2441 691 2322 
L 691 4666 
z
" transform="scale(0.015625)"/>
       </defs>
       <use xlink:href="#DejaVuSans-2212"/>
       <use xlink:href="#DejaVuSans-36" transform="translate(83.789062 0)"/>
       <use xlink:href="#DejaVuSans-2e" transform="translate(147.412109 0)"/>
       <use xlink:href="#DejaVuSans-35" transform="translate(179.199219 0)"/>
       <use xlink:href="#DejaVuSans-32" transform="translate(242.822266 0)"/>
      </g>
     </g>
    </g>
    <g id="ytick_2">
     <g id="line2d_19">
      <path d="M 90 556.534788 
L 648 556.534788 
" clip-path="url(#p47541c345e)" style="fill: none; stroke: #b0b0b0; stroke-width: 0.8; stroke-linecap: square"/>
     </g>
     <g id="line2d_20">
      <g>
       <use xlink:href="#m1ffb3c23ad" x="90" y="556.534788" style="stroke: #000000; stroke-width: 0.8"/>
      </g>
     </g>
     <g id="text_11">
      <!-- −6.50 -->
      <g transform="translate(52.354687 560.334007) scale(0.1 -0.1)">
       <use xlink:href="#DejaVuSans-2212"/>
       <use xlink:href="#DejaVuSans-36" transform="translate(83.789062 0)"/>
       <use xlink:href="#DejaVuSans-2e" transform="translate(147.412109 0)"/>
       <use xlink:href="#DejaVuSans-35" transform="translate(179.199219 0)"/>
       <use xlink:href="#DejaVuSans-30" transform="translate(242.822266 0)"/>
      </g>
     </g>
    </g>
    <g id="ytick_3">
     <g id="line2d_21">
      <path d="M 90 490.837418 
L 648 490.837418 
" clip-path="url(#p47541c345e)" style="fill: none; stroke: #b0b0b0; stroke-width: 0.8; stroke-linecap: square"/>
     </g>
     <g id="line2d_22">
      <g>
       <use xlink:href="#m1ffb3c23ad" x="90" y="490.837418" style="stroke: #000000; stroke-width: 0.8"/>
      </g>
     </g>
     <g id="text_12">
      <!-- −6.48 -->
      <g transform="translate(52.354687 494.636637) scale(0.1 -0.1)">
       <use xlink:href="#DejaVuSans-2212"/>
       <use xlink:href="#DejaVuSans-36" transform="translate(83.789062 0)"/>
       <use xlink:href="#DejaVuSans-2e" transform="translate(147.412109 0)"/>
       <use xlink:href="#DejaVuSans-34" transform="translate(179.199219 0)"/>
       <use xlink:href="#DejaVuSans-38" transform="translate(242.822266 0)"/>
      </g>
     </g>
    </g>
    <g id="ytick_4">
     <g id="line2d_23">
      <path d="M 90 425.140049 
L 648 425.140049 
" clip-path="url(#p47541c345e)" style="fill: none; stroke: #b0b0b0; stroke-width: 0.8; stroke-linecap: square"/>
     </g>
     <g id="line2d_24">
      <g>
       <use xlink:href="#m1ffb3c23ad" x="90" y="425.140049" style="stroke: #000000; stroke-width: 0.8"/>
      </g>
     </g>
     <g id="text_13">
      <!-- −6.46 -->
      <g transform="translate(52.354687 428.939267) scale(0.1 -0.1)">
       <use xlink:href="#DejaVuSans-2212"/>
       <use xlink:href="#DejaVuSans-36" transform="translate(83.789062 0)"/>
       <use xlink:href="#DejaVuSans-2e" transform="translate(147.412109 0)"/>
       <use xlink:href="#DejaVuSans-34" transform="translate(179.199219 0)"/>
       <use xlink:href="#DejaVuSans-36" transform="translate(242.822266 0)"/>
      </g>
     </g>
    </g>
    <g id="ytick_5">
     <g id="line2d_25">
      <path d="M 90 359.442679 
L 648 359.442679 
" clip-path="url(#p47541c345e)" style="fill: none; stroke: #b0b0b0; stroke-width: 0.8; stroke-linecap: square"/>
     </g>
     <g id="line2d_26">
      <g>
       <use xlink:href="#m1ffb3c23ad" x="90" y="359.442679" style="stroke: #000000; stroke-width: 0.8"/>
      </g>
     </g>
     <g id="text_14">
      <!-- −6.44 -->
      <g transform="translate(52.354687 363.241898) scale(0.1 -0.1)">
       <use xlink:href="#DejaVuSans-2212"/>
       <use xlink:href="#DejaVuSans-36" transform="translate(83.789062 0)"/>
       <use xlink:href="#DejaVuSans-2e" transform="translate(147.412109 0)"/>
       <use xlink:href="#DejaVuSans-34" transform="translate(179.199219 0)"/>
       <use xlink:href="#DejaVuSans-34" transform="translate(242.822266 0)"/>
      </g>
     </g>
    </g>
    <g id="ytick_6">
     <g id="line2d_27">
      <path d="M 90 293.74531 
L 648 293.74531 
" clip-path="url(#p47541c345e)" style="fill: none; stroke: #b0b0b0; stroke-width: 0.8; stroke-linecap: square"/>
     </g>
     <g id="line2d_28">
      <g>
       <use xlink:href="#m1ffb3c23ad" x="90" y="293.74531" style="stroke: #000000; stroke-width: 0.8"/>
      </g>
     </g>
     <g id="text_15">
      <!-- −6.42 -->
      <g transform="translate(52.354687 297.544528) scale(0.1 -0.1)">
       <use xlink:href="#DejaVuSans-2212"/>
       <use xlink:href="#DejaVuSans-36" transform="translate(83.789062 0)"/>
       <use xlink:href="#DejaVuSans-2e" transform="translate(147.412109 0)"/>
       <use xlink:href="#DejaVuSans-34" transform="translate(179.199219 0)"/>
       <use xlink:href="#DejaVuSans-32" transform="translate(242.822266 0)"/>
      </g>
     </g>
    </g>
    <g id="ytick_7">
     <g id="line2d_29">
      <path d="M 90 228.04794 
L 648 228.04794 
" clip-path="url(#p47541c345e)" style="fill: none; stroke: #b0b0b0; stroke-width: 0.8; stroke-linecap: square"/>
     </g>
     <g id="line2d_30">
      <g>
       <use xlink:href="#m1ffb3c23ad" x="90" y="228.04794" style="stroke: #000000; stroke-width: 0.8"/>
      </g>
     </g>
     <g id="text_16">
      <!-- −6.40 -->
      <g transform="translate(52.354687 231.847159) scale(0.1 -0.1)">
       <use xlink:href="#DejaVuSans-2212"/>
       <use xlink:href="#DejaVuSans-36" transform="translate(83.789062 0)"/>
       <use xlink:href="#DejaVuSans-2e" transform="translate(147.412109 0)"/>
       <use xlink:href="#DejaVuSans-34" transform="translate(179.199219 0)"/>
       <use xlink:href="#DejaVuSans-30" transform="translate(242.822266 0)"/>
      </g>
     </g>
    </g>
    <g id="text_17">
     <!-- Latitude (°) -->
     <g transform="translate(46.275 464.889531) rotate(-90) scale(0.1 -0.1)">
      <defs>
       <path id="DejaVuSans-61" d="M 2194 1759 
Q 1497 1759 1228 1600 
Q 959 1441 959 1056 
Q 959 750 1161 570 
Q 1363 391 1709 391 
Q 2188 391 2477 730 
Q 2766 1069 2766 1631 
L 2766 1759 
L 2194 1759 
z
M 3341 1997 
L 3341 0 
L 2766 0 
L 2766 531 
Q 2569 213 2275 61 
Q 1981 -91 1556 -91 
Q 1019 -91 701 211 
Q 384 513 384 1019 
Q 384 1609 779 1909 
Q 1175 2209 1959 2209 
L 2766 2209 
L 2766 2266 
Q 2766 2663 2505 2880 
Q 2244 3097 1772 3097 
Q 1472 3097 1187 3025 
Q 903 2953 641 2809 
L 641 3341 
Q 956 3463 1253 3523 
Q 1550 3584 1831 3584 
Q 2591 3584 2966 3190 
Q 3341 2797 3341 1997 
z
" transform="scale(0.015625)"/>
      </defs>
      <use xlink:href="#DejaVuSans-4c"/>
      <use xlink:href="#DejaVuSans-61" transform="translate(55.712891 0)"/>
      <use xlink:href="#DejaVuSans-74" transform="translate(116.992188 0)"/>
      <use xlink:href="#DejaVuSans-69" transform="translate(156.201172 0)"/>
      <use xlink:href="#DejaVuSans-74" transform="translate(183.984375 0)"/>
      <use xlink:href="#DejaVuSans-75" transform="translate(223.193359 0)"/>
      <use xlink:href="#DejaVuSans-64" transform="translate(286.572266 0)"/>
      <use xlink:href="#DejaVuSans-65" transform="translate(350.048828 0)"/>
      <use xlink:href="#DejaVuSans-20" transform="translate(411.572266 0)"/>
      <use xlink:href="#DejaVuSans-28" transform="translate(443.359375 0)"/>
      <use xlink:href="#DejaVuSans-b0" transform="translate(482.373047 0)"/>
      <use xlink:href="#DejaVuSans-29" transform="translate(532.373047 0)"/>
     </g>
    </g>
   </g>
   <g id="patch_3">
    <path d="M 90 683.302376 
L 90 189.337624 
" style="fill: none; stroke: #000000; stroke-width: 0.8; stroke-linejoin: miter; stroke-linecap: square"/>
   </g>
   <g id="patch_4">
    <path d="M 648 683.302376 
L 648 189.337624 
" style="fill: none; stroke: #000000; stroke-width: 0.8; stroke-linejoin: miter; stroke-linecap: square"/>
   </g>
   <g id="patch_5">
    <path d="M 90 683.302376 
L 648 683.302376 
" style="fill: none; stroke: #000000; stroke-width: 0.8; stroke-linejoin: miter; stroke-linecap: square"/>
   </g>
   <g id="patch_6">
    <path d="M 90 189.337624 
L 648 189.337624 
" style="fill: none; stroke: #000000; stroke-width: 0.8; stroke-linejoin: miter; stroke-linecap: square"/>
   </g>
   <g id="legend_1">
    <g id="patch_7">
     <path d="M 279.8375 821.387201 
L 458.1625 821.387201 
Q 460.1625 821.387201 460.1625 819.387201 
L 460.1625 789.095326 
Q 460.1625 787.095326 458.1625 787.095326 
L 279.8375 787.095326 
Q 277.8375 787.095326 277.8375 789.095326 
L 277.8375 819.387201 
Q 277.8375 821.387201 279.8375 821.387201 
z
" style="fill: #ffffff; opacity: 0.8; stroke: #cccccc; stroke-linejoin: miter"/>
    </g>
    <g id="text_18">
     <!-- Legenda -->
     <g transform="translate(343.280625 800.213451) scale(0.12 -0.12)">
      <use xlink:href="#DejaVuSans-4c"/>
      <use xlink:href="#DejaVuSans-65" transform="translate(53.962891 0)"/>
      <use xlink:href="#DejaVuSans-67" transform="translate(115.486328 0)"/>
      <use xlink:href="#DejaVuSans-65" transform="translate(178.962891 0)"/>
      <use xlink:href="#DejaVuSans-6e" transform="translate(240.486328 0)"/>
      <use xlink:href="#DejaVuSans-64" transform="translate(303.865234 0)"/>
      <use xlink:href="#DejaVuSans-61" transform="translate(367.341797 0)"/>
     </g>
    </g>
    <g id="patch_8">
     <path d="M 281.8375 815.307514 
L 301.8375 815.307514 
L 301.8375 808.307514 
L 281.8375 808.307514 
L 281.8375 815.307514 
z
" style="fill: none; stroke: #000000; stroke-linejoin: miter"/>
    </g>
    <g id="text_19">
     <!-- Gleba Federal -->
     <g transform="translate(309.8375 815.307514) scale(0.1 -0.1)">
      <defs>
       <path id="DejaVuSans-47" d="M 3809 666 
L 3809 1919 
L 2778 1919 
L 2778 2438 
L 4434 2438 
L 4434 434 
Q 4069 175 3628 42 
Q 3188 -91 2688 -91 
Q 1594 -91 976 548 
Q 359 1188 359 2328 
Q 359 3472 976 4111 
Q 1594 4750 2688 4750 
Q 3144 4750 3555 4637 
Q 3966 4525 4313 4306 
L 4313 3634 
Q 3963 3931 3569 4081 
Q 3175 4231 2741 4231 
Q 1884 4231 1454 3753 
Q 1025 3275 1025 2328 
Q 1025 1384 1454 906 
Q 1884 428 2741 428 
Q 3075 428 3337 486 
Q 3600 544 3809 666 
z
" transform="scale(0.015625)"/>
       <path id="DejaVuSans-6c" d="M 603 4863 
L 1178 4863 
L 1178 0 
L 603 0 
L 603 4863 
z
" transform="scale(0.015625)"/>
       <path id="DejaVuSans-62" d="M 3116 1747 
Q 3116 2381 2855 2742 
Q 2594 3103 2138 3103 
Q 1681 3103 1420 2742 
Q 1159 2381 1159 1747 
Q 1159 1113 1420 752 
Q 1681 391 2138 391 
Q 2594 391 2855 752 
Q 3116 1113 3116 1747 
z
M 1159 2969 
Q 1341 3281 1617 3432 
Q 1894 3584 2278 3584 
Q 2916 3584 3314 3078 
Q 3713 2572 3713 1747 
Q 3713 922 3314 415 
Q 2916 -91 2278 -91 
Q 1894 -91 1617 61 
Q 1341 213 1159 525 
L 1159 0 
L 581 0 
L 581 4863 
L 1159 4863 
L 1159 2969 
z
" transform="scale(0.015625)"/>
       <path id="DejaVuSans-46" d="M 628 4666 
L 3309 4666 
L 3309 4134 
L 1259 4134 
L 1259 2759 
L 3109 2759 
L 3109 2228 
L 1259 2228 
L 1259 0 
L 628 0 
L 628 4666 
z
" transform="scale(0.015625)"/>
       <path id="DejaVuSans-72" d="M 2631 2963 
Q 2534 3019 2420 3045 
Q 2306 3072 2169 3072 
Q 1681 3072 1420 2755 
Q 1159 2438 1159 1844 
L 1159 0 
L 581 0 
L 581 3500 
L 1159 3500 
L 1159 2956 
Q 1341 3275 1631 3429 
Q 1922 3584 2338 3584 
Q 2397 3584 2469 3576 
Q 2541 3569 2628 3553 
L 2631 2963 
z
" transform="scale(0.015625)"/>
      </defs>
      <use xlink:href="#DejaVuSans-47"/>
      <use xlink:href="#DejaVuSans-6c" transform="translate(77.490234 0)"/>
      <use xlink:href="#DejaVuSans-65" transform="translate(105.273438 0)"/>
      <use xlink:href="#DejaVuSans-62" transform="translate(166.796875 0)"/>
      <use xlink:href="#DejaVuSans-61" transform="translate(230.273438 0)"/>
      <use xlink:href="#DejaVuSans-20" transform="translate(291.552734 0)"/>
      <use xlink:href="#DejaVuSans-46" transform="translate(323.339844 0)"/>
      <use xlink:href="#DejaVuSans-65" transform="translate(375.359375 0)"/>
      <use xlink:href="#DejaVuSans-64" transform="translate(436.882812 0)"/>
      <use xlink:href="#DejaVuSans-65" transform="translate(500.359375 0)"/>
      <use xlink:href="#DejaVuSans-72" transform="translate(561.882812 0)"/>
      <use xlink:href="#DejaVuSans-61" transform="translate(602.996094 0)"/>
      <use xlink:href="#DejaVuSans-6c" transform="translate(664.275391 0)"/>
     </g>
    </g>
    <g id="patch_9">
     <path d="M 399.045312 815.307514 
L 419.045312 815.307514 
L 419.045312 808.307514 
L 399.045312 808.307514 
z
" style="fill: #e0bd1f; opacity: 0.6"/>
    </g>
    <g id="text_20">
     <!-- SIGEF -->
     <g transform="translate(427.045312 815.307514) scale(0.1 -0.1)">
      <defs>
       <path id="DejaVuSans-53" d="M 3425 4513 
L 3425 3897 
Q 3066 4069 2747 4153 
Q 2428 4238 2131 4238 
Q 1616 4238 1336 4038 
Q 1056 3838 1056 3469 
Q 1056 3159 1242 3001 
Q 1428 2844 1947 2747 
L 2328 2669 
Q 3034 2534 3370 2195 
Q 3706 1856 3706 1288 
Q 3706 609 3251 259 
Q 2797 -91 1919 -91 
Q 1588 -91 1214 -16 
Q 841 59 441 206 
L 441 856 
Q 825 641 1194 531 
Q 1563 422 1919 422 
Q 2459 422 2753 634 
Q 3047 847 3047 1241 
Q 3047 1584 2836 1778 
Q 2625 1972 2144 2069 
L 1759 2144 
Q 1053 2284 737 2584 
Q 422 2884 422 3419 
Q 422 4038 858 4394 
Q 1294 4750 2059 4750 
Q 2388 4750 2728 4690 
Q 3069 4631 3425 4513 
z
" transform="scale(0.015625)"/>
       <path id="DejaVuSans-49" d="M 628 4666 
L 1259 4666 
L 1259 0 
L 628 0 
L 628 4666 
z
" transform="scale(0.015625)"/>
       <path id="DejaVuSans-45" d="M 628 4666 
L 3578 4666 
L 3578 4134 
L 1259 4134 
L 1259 2753 
L 3481 2753 
L 3481 2222 
L 1259 2222 
L 1259 531 
L 3634 531 
L 3634 0 
L 628 0 
L 628 4666 
z
" transform="scale(0.015625)"/>
      </defs>
      <use xlink:href="#DejaVuSans-53"/>
      <use xlink:href="#DejaVuSans-49" transform="translate(63.476562 0)"/>
      <use xlink:href="#DejaVuSans-47" transform="translate(92.96875 0)"/>
      <use xlink:href="#DejaVuSans-45" transform="translate(170.458984 0)"/>
      <use xlink:href="#DejaVuSans-46" transform="translate(233.642578 0)"/>
     </g>
    </g>
   </g>
  </g>
 </g>
 <defs>
  <clipPath id="p47541c345e">
   <rect x="90" y="189.337624" width="558" height="493.964751"/>
  </clipPath>
 </defs>
</svg>
