<?xml version="1.0" encoding="utf-8" standalone="no"?>
<!DOCTYPE svg PUBLIC "-//W3C//DTD SVG 1.1//EN"
  "http://www.w3.org/Graphics/SVG/1.1/DTD/svg11.dtd">
<svg xmlns:xlink="http://www.w3.org/1999/xlink" width="720pt" height="864pt" viewBox="0 0 720 864" xmlns="http://www.w3.org/2000/svg" version="1.1">
 <metadata>
  <rdf:RDF xmlns:dc="http://purl.org/dc/elements/1.1/" xmlns:cc="http://creativecommons.org/ns#" xmlns:rdf="http://www.w3.org/1999/02/22-rdf-syntax-ns#">
   <cc:Work>
    <dc:type rdf:resource="http://purl.org/dc/dcmitype/StillImage"/>
    <dc:date>2025-06-16T17:35:40.391791</dc:date>
    <dc:format>image/svg+xml</dc:format>
    <dc:creator>
     <cc:Agent>
      <dc:title>Matplotlib v3.10.1, https://matplotlib.org/</dc:title>
     </cc:Agent>
    </dc:creator>
   </cc:Work>
  </rdf:RDF>
 </metadata>
 <defs>
  <style type="text/css">*{stroke-linejoin: round; stroke-linecap: butt}</style>
 </defs>
 <g id="figure_1">
  <g id="patch_1">
   <path d="M 0 864 
L 720 864 
L 720 0 
L 0 0 
z
" style="fill: #ffffff"/>
  </g>
  <g id="axes_1">
   <g id="patch_2">
    <path d="M 90 716.576063 
L 648 716.576063 
L 648 156.063937 
L 90 156.063937 
z
" style="fill: #ffffff"/>
   </g>
   <g id="PatchCollection_1">
    <path d="M 263.367675 518.527214 
L 264.782706 527.912279 
L 218.684973 541.651871 
L 217.834606 536.648218 
L 263.367675 518.527214 
" clip-path="url(#p8911e61490)" style="fill: #e0bd1f; stroke: #0000ff; stroke-width: 0.5"/>
    <path d="M 200.873926 532.914926 
L 210.405534 533.512217 
L 206.730967 541.206137 
L 201.089449 543.488614 
L 200.873926 532.914926 
" clip-path="url(#p8911e61490)" style="fill: #e0bd1f; stroke: #0000ff; stroke-width: 0.5"/>
    <path d="M 172.004109 479.695593 
L 181.14564 496.03072 
L 196.15004 513.026962 
L 201.708705 512.737812 
L 211.152545 512.21332 
L 221.95872 575.421004 
L 194.570216 579.249028 
L 194.170415 579.300899 
L 197.42366 571.823331 
L 203.071041 565.363874 
L 204.106703 563.378553 
L 206.730967 541.206137 
L 210.405534 533.512217 
L 200.873926 532.914926 
L 201.089449 543.488614 
L 150.839341 563.887106 
L 141.613938 527.800604 
L 159.466938 511.29694 
L 161.438769 480.777494 
L 170.369657 480.660829 
L 172.004109 479.695593 
" clip-path="url(#p8911e61490)" style="fill: #e0bd1f; stroke: #0000ff; stroke-width: 0.5"/>
    <path d="M 404.675179 457.223043 
L 405.884447 457.395528 
L 406.877174 457.360636 
L 406.512445 459.081719 
L 406.409089 460.088811 
L 406.75335 461.149784 
L 407.97136 461.158758 
L 408.850023 462.175829 
L 409.997818 462.76813 
L 410.572207 463.586798 
L 411.081262 464.453316 
L 411.541553 465.243051 
L 412.336345 465.38165 
L 413.402235 465.280922 
L 414.107328 465.033628 
L 414.821163 464.40744 
L 415.534998 464.7644 
L 416.833965 464.22397 
L 418.076374 464.111289 
L 419.193977 463.37339 
L 419.725465 463.559875 
L 420.515377 463.879933 
L 420.457836 464.600889 
L 421.373538 465.332794 
L 422.42872 466.03476 
L 423.220563 465.877208 
L 424.474663 465.514253 
L 425.566883 465.783481 
L 426.443616 466.400731 
L 427.559217 465.932059 
L 428.45252 465.124375 
L 428.877704 463.891922 
L 430.118147 463.510014 
L 430.917819 463.844036 
L 431.774049 464.419394 
L 432.52106 464.280795 
L 433.75564 464.794338 
L 434.128198 464.248883 
L 434.775715 464.146181 
L 435.591958 464.077367 
L 436.639311 463.891922 
L 437.268327 464.28679 
L 438.280573 463.844036 
L 439.102679 463.723386 
L 438.954456 462.752192 
L 440.030106 462.998481 
L 440.370435 462.200777 
L 441.304673 461.744059 
L 441.561167 460.852628 
L 442.208684 460.647225 
L 442.956678 459.854475 
L 443.541775 459.904336 
L 444.701296 460.028001 
L 445.430753 460.855607 
L 446.091928 460.535549 
L 447.162697 460.732983 
L 447.80537 461.457888 
L 448.404124 462.337365 
L 448.888814 462.719274 
L 449.674829 462.733238 
L 450.488158 462.868857 
L 451.386306 462.803022 
L 451.948021 463.702458 
L 452.655045 463.090198 
L 453.089988 463.483091 
L 453.14946 464.884081 
L 453.416661 465.772532 
L 453.831137 467.049857 
L 454.384075 467.763813 
L 455.12424 468.083871 
L 455.865389 468.804827 
L 456.387117 468.381027 
L 456.916674 469.077034 
L 457.625629 468.484733 
L 458.548176 468.703095 
L 459.109892 469.462927 
L 458.82124 470.575736 
L 459.485328 471.160068 
L 460.581481 471.670595 
L 461.80925 471.607775 
L 463.051659 471.776312 
L 463.755734 471.31762 
L 464.602204 470.301518 
L 465.45552 470.347394 
L 466.254209 470.439147 
L 467.18943 470.197812 
L 468.038814 469.997398 
L 468.4845 470.71236 
L 468.824829 471.354522 
L 469.472382 472.069447 
L 470.132573 471.924854 
L 470.811301 471.61377 
L 471.130214 472.082406 
L 471.902573 472.854192 
L 472.420404 473.411602 
L 473.292222 473.537241 
L 473.483381 472.546088 
L 474.283017 472.307768 
L 474.566824 471.413321 
L 475.209462 471.327599 
L 475.484492 472.151221 
L 476.099816 472.856203 
L 477.121822 472.687666 
L 477.94003 473.476432 
L 478.509539 474.327981 
L 479.236083 474.813596 
L 480.097158 475.134659 
L 481.128923 475.085803 
L 481.819377 474.397765 
L 482.585873 474.507466 
L 482.867713 474.925272 
L 483.611811 475.563449 
L 483.545493 476.475809 
L 483.956037 477.569663 
L 485.056051 478.209851 
L 486.034208 478.87592 
L 487.366316 479.021519 
L 488.334678 479.49317 
L 488.406859 480.287895 
L 489.229912 480.715644 
L 489.120694 480.836294 
L 488.848613 482.124602 
L 489.728259 482.602248 
L 490.454768 482.836584 
L 491.050607 483.157647 
L 490.748299 483.637268 
L 490.16415 484.290414 
L 490.088108 485.082123 
L 490.935561 485.244665 
L 491.466066 485.782116 
L 492.231579 486.610763 
L 493.034165 487.48324 
L 493.78897 488.250037 
L 494.624732 488.899199 
L 494.91728 489.592191 
L 495.275198 490.185498 
L 495.929562 489.992048 
L 497.348455 490.332065 
L 497.943346 490.6392 
L 499.263764 491.193594 
L 499.473424 492.438037 
L 499.726968 493.681474 
L 500.800687 494.240858 
L 501.704698 495.007654 
L 502.257636 496.044684 
L 503.306956 496.03772 
L 503.77504 496.524304 
L 503.766263 497.221317 
L 504.689759 498.359038 
L 505.703023 497.880423 
L 506.8089 497.18341 
L 508.338977 497.526442 
L 508.172218 498.276295 
L 508.780732 498.611322 
L 509.936356 498.850648 
L 510.67947 499.625413 
L 511.247013 501.080249 
L 512.762486 501.756298 
L 513.557278 502.296763 
L 513.100884 503.152297 
L 513.987341 504.029801 
L 515.020055 504.429622 
L 516.042096 505.050856 
L 517.138214 505.745858 
L 518.240194 506.301257 
L 518.274318 506.705099 
L 518.000271 507.718221 
L 518.238228 508.121058 
L 518.682931 509.459227 
L 518.389399 510.650794 
L 517.984684 511.865298 
L 518.295769 513.130669 
L 517.975907 513.876537 
L 517.659942 514.709169 
L 517.570208 515.900736 
L 517.064102 517.11524 
L 516.327799 517.760417 
L 515.618844 518.3856 
L 514.839674 519.013798 
L 514.371555 519.583161 
L 513.578729 519.984024 
L 512.860014 520.352973 
L 511.98623 520.275184 
L 510.813053 520.727882 
L 510.689195 521.728009 
L 511.197301 522.107944 
L 512.494302 522.648374 
L 513.682084 522.614487 
L 514.737267 522.543698 
L 491.456306 559.327177 
L 515.158553 574.282278 
L 523.503326 579.423524 
L 548.572824 595.324942 
L 553.032387 593.403445 
L 567.310314 553.713275 
L 567.729635 554.087215 
L 569.179773 552.895613 
L 569.748299 553.554718 
L 570.850279 553.833925 
L 571.388613 554.581804 
L 572.353079 554.800166 
L 573.00839 555.348601 
L 574.042122 555.036476 
L 574.575541 555.59787 
L 575.6151 555.907984 
L 576.118327 556.98389 
L 576.860458 557.446567 
L 577.864911 558.265235 
L 577.879515 559.455796 
L 577.242741 560.68728 
L 577.060359 561.428159 
L 577.560636 562.147105 
L 577.891241 562.993665 
L 578.433437 564.094519 
L 579.11901 565.083662 
L 580.507711 565.638092 
L 581.444863 566.465698 
L 582.918383 566.911431 
L 584.229076 567.277366 
L 585.173038 568.083075 
L 586.260414 569.061269 
L 587.488183 569.666529 
L 588.461425 570.165103 
L 589.297188 569.687457 
L 589.836469 570.226918 
L 590.747291 572.846396 
L 590.972574 573.82757 
L 591.899018 574.475727 
L 592.472424 575.363174 
L 593.659258 575.653365 
L 594.35066 576.79805 
L 594.767066 576.528822 
L 595.138641 576.898777 
L 595.797849 576.984535 
L 595.429224 578.108292 
L 596.105037 578.630809 
L 596.735036 579.190193 
L 596.905692 579.783499 
L 597.913059 579.714684 
L 597.521999 580.44562 
L 597.915025 580.780647 
L 598.582062 581.650145 
L 599.343677 582.002151 
L 599.96002 582.941433 
L 600.109225 583.838859 
L 600.192113 585.04342 
L 601.238519 585.439293 
L 601.724157 586.111357 
L 601.28142 586.453384 
L 600.746035 587.099531 
L 601.015167 587.900214 
L 600.714825 588.339953 
L 600.884498 588.613165 
L 601.31263 588.351942 
L 601.812908 589.138662 
L 602.405834 589.877567 
L 601.739745 590.034114 
L 602.218572 590.889648 
L 602.673035 590.770003 
L 603.004587 591.10205 
L 604.152417 591.610568 
L 603.063111 591.811986 
L 604.354284 592.051312 
L 603.524385 592.463123 
L 603.954448 592.608721 
L 604.409859 593.107295 
L 604.147537 593.473229 
L 604.484953 594.350732 
L 605.295333 595.203287 
L 605.648371 595.303978 
L 605.99358 595.731763 
L 605.79561 596.303136 
L 606.402193 596.958257 
L 606.502634 597.602394 
L 607.412508 597.601389 
L 608.050266 598.156788 
L 608.870405 599.118038 
L 608.410115 599.28356 
L 608.362334 600.434275 
L 608.888942 600.526997 
L 608.716355 600.997643 
L 609.467228 601.363614 
L 610.268866 602.294926 
L 610.041652 602.878253 
L 610.429762 603.455621 
L 610.977821 603.33594 
L 611.13482 604.141649 
L 611.572712 605.039075 
L 611.622424 605.747037 
L 611.186533 606.016265 
L 611.83212 606.782056 
L 612.628843 607.507966 
L 613.5153 607.981627 
L 613.398287 608.599846 
L 613.800054 609.421493 
L 614.261328 610.230182 
L 614.600709 610.427616 
L 615.236536 610.467497 
L 615.232639 610.920195 
L 614.916674 611.561352 
L 615.272626 612.325169 
L 614.993699 613.278415 
L 615.475441 613.82387 
L 616.3824 613.605509 
L 617.263977 613.592514 
L 616.956789 614.189805 
L 617.270788 614.722301 
L 618.062666 615.019421 
L 617.85104 615.700496 
L 618.620485 616.332678 
L 619.469869 616.169131 
L 619.198771 616.947918 
L 619.299213 618.165402 
L 619.516667 619.113694 
L 620.357309 619.836624 
L 621.311066 620.053981 
L 621.54804 620.824798 
L 621.345191 620.908546 
L 621.331534 621.514811 
L 621.473894 622.500974 
L 622.014159 623.743406 
L 622.210197 624.964911 
L 622.636364 625.896224 
L 622.205317 627.193507 
L 621.540211 628.468857 
L 620.842947 629.58267 
L 620.18079 630.601751 
L 619.132453 632.06355 
L 618.22746 633.33689 
L 617.288342 634.443739 
L 616.597923 635.918497 
L 616.11713 637.650529 
L 615.641252 639.09438 
L 615.00539 640.156322 
L 614.025337 641.171418 
L 613.220785 641.956163 
L 612.430873 642.714991 
L 611.208967 642.341087 
L 610.950507 643.803892 
L 610.385878 645.171964 
L 609.703254 646.904965 
L 608.667591 648.861354 
L 607.281804 649.838579 
L 606.460716 650.509638 
L 605.400654 651.577575 
L 604.275293 651.999365 
L 604.208975 651.997391 
L 599.563098 683.08821 
L 602.19519 691.098239 
L 573.199549 681.115847 
L 580.179038 627.299223 
L 577.595744 626.986129 
L 493.272121 615.954754 
L 349.944021 596.636153 
L 330.717944 594.050597 
L 331.052445 593.062424 
L 331.357667 591.779104 
L 331.105106 590.150779 
L 330.698424 588.510464 
L 330.421498 586.851231 
L 329.518436 584.816084 
L 328.729506 583.714225 
L 326.79861 581.197447 
L 325.889719 579.752592 
L 325.003262 578.470278 
L 325.044232 577.753342 
L 324.221144 576.74722 
L 323.569729 575.815871 
L 323.034345 574.73397 
L 322.591607 573.471615 
L 321.610536 572.085595 
L 321.238997 570.549991 
L 320.888908 568.967542 
L 320.831367 567.964399 
L 320.804054 566.114697 
L 320.834281 564.269015 
L 320.881114 562.311621 
L 320.967899 560.899683 
L 320.881114 558.87448 
L 320.908392 557.459526 
L 320.484192 555.84617 
L 319.87273 553.89976 
L 319.32274 552.219564 
L 318.735642 550.618161 
L 318.323132 549.295965 
L 317.699979 548.033574 
L 317.314783 546.277599 
L 317.190925 545.026192 
L 317.231895 543.750842 
L 316.804746 541.850309 
L 316.438086 540.614841 
L 316.158211 539.29864 
L 316.24791 538.118023 
L 315.970001 536.776873 
L 315.352676 535.470616 
L 314.844605 534.119487 
L 314.547176 532.773348 
L 314.561816 531.390307 
L 314.424301 529.917524 
L 314.32091 528.928381 
L 314.869952 527.980089 
L 315.113772 526.618012 
L 315.189814 525.198068 
L 315.466775 523.927708 
L 315.528212 522.880699 
L 315.851023 521.288271 
L 316.063597 519.805544 
L 316.133812 518.500291 
L 316.236219 517.506123 
L 316.431275 516.14803 
L 316.599965 514.608442 
L 316.561944 512.904338 
L 316.567772 511.662875 
L 316.645815 510.165179 
L 316.631176 508.584704 
L 316.339575 507.533746 
L 316.364958 506.259401 
L 316.275224 504.87435 
L 316.295691 503.295886 
L 316.374682 501.635648 
L 315.936825 500.063178 
L 315.707645 499.132834 
L 315.166432 498.051939 
L 314.913836 496.782583 
L 314.603734 495.343687 
L 314.163911 493.932753 
L 313.929886 492.505846 
L 313.385725 491.120795 
L 312.983923 489.850471 
L 312.527529 488.39262 
L 311.951174 487.060445 
L 311.534767 485.79809 
L 311.059872 484.282409 
L 310.45522 483.156642 
L 309.939355 481.859359 
L 309.575609 480.492292 
L 309.369846 479.444314 
L 309.090919 477.838891 
L 307.67006 475.643213 
L 308.857842 475.408877 
L 309.708244 474.892354 
L 310.797516 474.523405 
L 312.151109 474.844504 
L 312.717705 475.983229 
L 312.453417 477.203729 
L 312.506078 478.131057 
L 313.587591 478.793178 
L 314.78415 479.425361 
L 314.856295 480.750571 
L 313.839169 481.176346 
L 313.212119 482.533434 
L 313.173115 484.212625 
L 313.808942 485.660461 
L 314.865072 485.527857 
L 315.736925 484.246512 
L 315.964139 482.998121 
L 317.134367 483.55054 
L 318.073485 483.522613 
L 319.566524 484.138821 
L 320.021935 484.639405 
L 320.070699 485.684404 
L 320.702629 486.372442 
L 321.061495 487.340657 
L 320.31645 488.031675 
L 321.243877 487.986804 
L 321.967472 488.189227 
L 321.720738 488.766559 
L 322.115694 489.104602 
L 319.907837 489.29902 
L 320.166261 490.604308 
L 320.811847 491.411992 
L 322.182012 491.129769 
L 323.151357 490.512556 
L 324.510778 489.409727 
L 325.415772 488.925117 
L 326.167663 488.075542 
L 325.424549 487.199044 
L 324.806276 486.592814 
L 324.932065 485.497955 
L 325.393338 484.709189 
L 326.012594 483.705077 
L 327.172115 483.181591 
L 327.424677 482.829584 
L 328.002015 483.54853 
L 328.707073 484.778004 
L 329.478449 485.540816 
L 330.207906 485.18583 
L 330.89348 486.025426 
L 331.883292 486.226844 
L 332.039344 484.926582 
L 332.304579 484.889679 
L 332.793166 484.224579 
L 333.114011 484.409054 
L 333.02526 486.112189 
L 332.650806 487.396477 
L 334.081425 487.702607 
L 333.937064 488.03268 
L 333.182259 488.939081 
L 334.097013 489.570258 
L 335.355992 489.780651 
L 336.060103 490.474648 
L 337.16598 490.837639 
L 338.039763 491.431915 
L 338.915477 491.177656 
L 339.691733 490.638195 
L 339.568858 490.491628 
L 340.21153 489.966131 
L 341.132111 489.801579 
L 340.697168 490.439756 
L 339.740497 491.320239 
L 340.290521 492.57563 
L 341.476338 492.914678 
L 342.54616 492.433047 
L 343.713474 492.749156 
L 344.741308 492.322376 
L 344.25079 491.281362 
L 343.671521 490.387921 
L 344.828128 490.33605 
L 345.733087 490.362973 
L 346.111472 491.12381 
L 346.471321 492.329341 
L 347.287564 493.022369 
L 347.874627 492.294449 
L 348.270566 491.442899 
L 349.240894 491.119826 
L 350.394552 490.683066 
L 351.107439 490.663108 
L 352.19966 490.991171 
L 353.379648 491.881633 
L 353.885789 492.935606 
L 354.959472 493.464082 
L 355.175979 492.877775 
L 355.02091 491.880628 
L 355.843016 491.869679 
L 356.70897 491.745009 
L 357.371127 490.733933 
L 357.5652 489.818558 
L 357.020055 488.795493 
L 357.40139 488.413584 
L 358.378529 487.902051 
L 359.412225 488.374672 
L 360.327962 488.186212 
L 360.644874 486.979677 
L 359.837409 485.769157 
L 360.17679 484.856762 
L 361.141255 484.94751 
L 362.252012 484.270456 
L 362.676248 483.292261 
L 362.919049 482.028901 
L 362.296879 481.423641 
L 363.239894 480.647834 
L 363.908897 480.965954 
L 364.724157 480.466375 
L 365.883678 479.944862 
L 366.862783 479.54899 
L 367.211889 478.33348 
L 367.634158 477.832932 
L 368.287539 476.950439 
L 368.153921 476.232498 
L 368.853151 475.61428 
L 368.854134 474.570286 
L 369.251021 473.574143 
L 369.729848 472.880146 
L 370.102371 471.925859 
L 370.631928 471.490105 
L 371.275548 471.297661 
L 371.902598 471.032418 
L 372.031336 470.151971 
L 371.473518 469.301391 
L 372.194199 468.953405 
L 372.2371 467.757818 
L 372.736395 467.106682 
L 373.404415 466.126513 
L 373.643319 465.761548 
L 373.903709 465.268969 
L 373.683306 464.840179 
L 374.064606 464.240913 
L 374.492738 463.522973 
L 374.631201 462.624542 
L 375.157809 461.814884 
L 375.743924 461.849776 
L 376.692802 461.236511 
L 376.274429 460.390956 
L 376.649865 459.613175 
L 377.345199 459.55933 
L 378.362325 459.137539 
L 379.515983 459.687984 
L 380.087458 460.111749 
L 379.996776 461.095938 
L 381.03437 460.949335 
L 382.037874 461.245485 
L 382.35577 461.906601 
L 382.838494 462.932646 
L 383.598179 463.55388 
L 384.597752 463.277688 
L 385.494952 464.021547 
L 386.47016 463.632638 
L 387.594538 463.850031 
L 388.206984 463.509009 
L 388.039241 462.674403 
L 388.456631 461.685224 
L 389.362573 461.902616 
L 389.881387 463.031363 
L 390.650832 462.877831 
L 390.775638 462.073127 
L 390.643986 461.074005 
L 391.02532 461.058031 
L 392.127265 461.011185 
L 393.10149 461.065031 
L 393.342396 460.52356 
L 393.942133 460.484683 
L 394.965122 460.676122 
L 395.809626 460.412889 
L 396.621971 459.808634 
L 396.953559 458.938131 
L 396.982803 458.096525 
L 397.824393 458.281 
L 398.65331 458.513326 
L 399.447119 459.036848 
L 400.429173 459.73982 
L 400.788039 460.893515 
L 401.610144 460.395946 
L 402.468305 459.687984 
L 403.25432 459.073714 
L 403.85504 457.991849 
L 404.675179 457.223043 
" clip-path="url(#p8911e61490)" style="fill: #e0bd1f; stroke: #0000ff; stroke-width: 0.5"/>
    <path d="M 212.552937 299.792598 
L 213.86556 300.079775 
L 213.982572 302.165788 
L 213.967933 304.206929 
L 213.853834 306.716742 
L 213.967933 309.21855 
L 214.715927 310.979515 
L 213.596393 311.871952 
L 197.986358 314.625039 
L 197.816685 312.223922 
L 197.636269 309.822805 
L 205.49249 305.673718 
L 205.423224 301.933462 
L 208.91934 300.588292 
L 212.552937 299.792598 
" clip-path="url(#p8911e61490)" style="fill: #e0bd1f; stroke: #0000ff; stroke-width: 0.5"/>
    <path d="M 234.607075 298.884188 
L 240.271027 301.135722 
L 240.081869 301.937446 
L 237.595085 300.946293 
L 236.045488 311.239769 
L 237.854492 328.701668 
L 234.370102 328.964901 
L 233.844477 329.797532 
L 233.494388 324.346172 
L 233.035045 318.464048 
L 232.601085 314.048712 
L 232.651815 308.162567 
L 232.440188 302.812939 
L 233.991716 299.808537 
L 234.607075 298.884188 
" clip-path="url(#p8911e61490)" style="fill: #e0bd1f; stroke: #0000ff; stroke-width: 0.5"/>
    <path d="M 236.612083 288.456098 
L 242.572515 290.898102 
L 240.271027 301.135722 
L 234.607075 298.884188 
L 233.991716 299.808537 
L 234.461767 296.726381 
L 234.816736 294.601492 
L 233.450504 291.609079 
L 236.612083 288.456098 
" clip-path="url(#p8911e61490)" style="fill: #e0bd1f; stroke: #0000ff; stroke-width: 0.5"/>
    <path d="M 317.169474 263.505683 
L 317.384998 264.950539 
L 324.68147 286.014095 
L 311.30657 295.95061 
L 291.031208 311.045315 
L 238.857962 353.227314 
L 237.98811 351.764509 
L 236.992435 346.733934 
L 235.455511 341.603673 
L 234.434453 335.238913 
L 233.844477 329.797532 
L 234.370102 328.964901 
L 237.854492 328.701668 
L 236.045488 311.239769 
L 237.595085 300.946293 
L 240.081869 301.937446 
L 240.271027 301.135722 
L 242.572515 290.898102 
L 290.19348 310.519818 
L 291.716747 305.165165 
L 309.049984 275.192143 
L 317.169474 263.505683 
" clip-path="url(#p8911e61490)" style="fill: #e0bd1f; stroke: #0000ff; stroke-width: 0.5"/>
    <path d="M 391.572396 181.541761 
L 391.682597 182.03933 
L 391.864944 182.948745 
L 391.8113 183.559964 
L 391.795713 184.514251 
L 392.500771 185.503394 
L 393.162928 186.176463 
L 394.065008 186.828605 
L 394.955362 187.399978 
L 395.6653 188.471899 
L 396.1139 188.792963 
L 394.873457 189.547805 
L 363.857184 225.997263 
L 345.745796 241.088952 
L 331.913555 257.458001 
L 317.169474 263.505683 
L 309.049984 275.192143 
L 291.716747 305.165165 
L 290.19348 310.519818 
L 242.572515 290.898102 
L 236.612083 288.456098 
L 236.628654 283.267002 
L 236.831503 281.23882 
L 238.192891 278.551531 
L 238.973043 275.589021 
L 240.595769 271.178675 
L 240.897129 268.786532 
L 242.376512 267.611909 
L 241.638277 266.732432 
L 242.05177 264.901683 
L 242.008834 262.457669 
L 242.016663 260.461399 
L 242.309211 258.060282 
L 242.63785 256.387085 
L 243.211256 256.882679 
L 243.724242 257.59563 
L 244.599957 257.453047 
L 245.524435 257.100036 
L 245.89601 258.0204 
L 245.689263 259.250879 
L 245.558594 260.011681 
L 246.125154 260.38361 
L 246.564977 260.87023 
L 246.976504 261.800574 
L 246.902393 262.63518 
L 246.330953 263.428899 
L 246.207095 263.991262 
L 246.108584 264.7451 
L 246.632278 264.960482 
L 247.247637 265.604654 
L 247.892241 266.481152 
L 248.557312 267.373589 
L 249.71585 267.517177 
L 250.67059 268.043643 
L 251.267413 268.818444 
L 252.044651 269.083688 
L 252.36353 268.763594 
L 286.811497 239.896381 
L 297.893685 250.015361 
L 267.957942 275.41151 
L 285.245329 292.702933 
L 316.483936 256.840788 
L 314.750974 241.241514 
L 334.7855 199.925029 
L 335.116105 199.819348 
L 391.572396 181.541761 
" clip-path="url(#p8911e61490)" style="fill: #e0bd1f; stroke: #0000ff; stroke-width: 0.5"/>
    <path d="M 311.30657 295.95061 
L 324.147032 314.74472 
L 246.517197 378.415081 
L 246.207095 379.663508 
L 245.276754 376.557409 
L 244.458545 373.250897 
L 242.985025 369.623286 
L 242.003006 366.900101 
L 241.361317 363.184757 
L 240.234972 359.481403 
L 239.217811 356.001365 
L 237.98811 351.764509 
L 238.857962 353.227314 
L 291.031208 311.045315 
L 311.30657 295.95061 
" clip-path="url(#p8911e61490)" style="fill: #e0bd1f; stroke: #0000ff; stroke-width: 0.5"/>
    <path d="M 324.68147 286.014095 
L 336.573054 320.320714 
L 251.47121 404.585026 
L 250.131308 402.198878 
L 249.54909 398.785644 
L 249.000049 395.08326 
L 248.475407 390.641001 
L 247.295418 386.811003 
L 246.75905 383.096665 
L 246.207095 379.663508 
L 246.517197 378.415081 
L 324.147032 314.74472 
L 311.30657 295.95061 
L 324.68147 286.014095 
" clip-path="url(#p8911e61490)" style="fill: #e0bd1f; stroke: #0000ff; stroke-width: 0.5"/>
    <path d="M 336.573054 320.320714 
L 336.594505 332.908621 
L 259.003673 416.517776 
L 256.769485 414.111705 
L 255.407115 412.122399 
L 254.148135 410.221866 
L 252.917452 408.282421 
L 252.029029 406.274161 
L 251.47121 404.585026 
L 336.573054 320.320714 
" clip-path="url(#p8911e61490)" style="fill: #e0bd1f; stroke: #0000ff; stroke-width: 0.5"/>
    <path d="M 336.573054 320.320714 
L 343.994332 341.083166 
L 292.519333 396.857184 
L 291.52464 396.044511 
L 264.945568 424.857878 
L 263.540297 422.89151 
L 261.601606 420.803487 
L 259.756512 417.874899 
L 259.003673 416.517776 
L 336.594505 332.908621 
L 336.573054 320.320714 
" clip-path="url(#p8911e61490)" style="fill: #e0bd1f; stroke: #0000ff; stroke-width: 0.5"/>
    <path d="M 291.52464 396.044511 
L 292.519333 396.857184 
L 265.869063 425.728382 
L 265.147435 425.14107 
L 264.945568 424.857878 
L 291.52464 396.044511 
" clip-path="url(#p8911e61490)" style="fill: #e0bd1f; stroke: #0000ff; stroke-width: 0.5"/>
    <path d="M 125.043335 224.870491 
L 177.912828 232.803736 
L 178.818804 245.043621 
L 179.070383 247.457697 
L 179.593094 249.947551 
L 180.630723 254.370856 
L 181.166108 258.622681 
L 181.429412 260.531218 
L 181.487935 262.14558 
L 181.301656 263.859664 
L 180.790636 265.362349 
L 180.20259 266.554921 
L 179.345413 267.790389 
L 178.580848 268.693774 
L 177.747051 269.527411 
L 173.599521 273.724349 
L 158.106533 290.501225 
L 156.925562 292.109627 
L 150.773023 294.635379 
L 148.20142 286.772922 
L 142.611545 287.107985 
L 140.370546 280.688374 
L 168.745949 275.149282 
L 168.634764 271.42098 
L 165.844724 270.105748 
L 164.933903 262.661097 
L 136.51753 269.734788 
L 135.131778 270.071825 
L 125.043335 224.870491 
" clip-path="url(#p8911e61490)" style="fill: #e0bd1f; stroke: #0000ff; stroke-width: 0.5"/>
    <path d="M 156.504275 293.225415 
L 162.331089 315.216335 
L 161.823018 316.642273 
L 144.187472 310.409147 
L 142.474065 296.328534 
L 145.356753 294.943483 
L 150.773023 294.635379 
L 156.504275 293.225415 
" clip-path="url(#p8911e61490)" style="fill: #e0bd1f; stroke: #0000ff; stroke-width: 0.5"/>
   </g>
   <g id="PatchCollection_2">
    <path d="M 115.363636 292.214161 
L 227.68929 265.551924 
L 240.72709 296.316043 
L 261.78815 320.927338 
L 274.825949 360.920693 
L 282.84921 399.888577 
L 290.872471 433.729107 
L 317.950977 473.722462 
L 338.009129 492.180933 
L 341.017852 517.817699 
L 186.443074 578.091552 
L 168.318451 504.532922 
L 115.363636 292.214161 
" clip-path="url(#p8911e61490)" style="fill: none; stroke: #000000"/>
   </g>
   <g id="matplotlib.axis_1">
    <g id="xtick_1">
     <g id="line2d_1">
      <path d="M 121.67206 716.576063 
L 121.67206 156.063937 
" clip-path="url(#p8911e61490)" style="fill: none; stroke: #b0b0b0; stroke-width: 0.8; stroke-linecap: square"/>
     </g>
     <g id="line2d_2">
      <defs>
       <path id="m422fb5f418" d="M 0 0 
L 0 3.5 
" style="stroke: #000000; stroke-width: 0.8"/>
      </defs>
      <g>
       <use xlink:href="#m422fb5f418" x="121.67206" y="716.576063" style="stroke: #000000; stroke-width: 0.8"/>
      </g>
     </g>
     <g id="text_1">
      <!-- −48.56 -->
      <g transform="translate(110.538995 755.117445) rotate(-45) scale(0.1 -0.1)">
       <defs>
        <path id="DejaVuSans-2212" d="M 678 2272 
L 4684 2272 
L 4684 1741 
L 678 1741 
L 678 2272 
z
" transform="scale(0.015625)"/>
        <path id="DejaVuSans-34" d="M 2419 4116 
L 825 1625 
L 2419 1625 
L 2419 4116 
z
M 2253 4666 
L 3047 4666 
L 3047 1625 
L 3713 1625 
L 3713 1100 
L 3047 1100 
L 3047 0 
L 2419 0 
L 2419 1100 
L 313 1100 
L 313 1709 
L 2253 4666 
z
" transform="scale(0.015625)"/>
        <path id="DejaVuSans-38" d="M 2034 2216 
Q 1584 2216 1326 1975 
Q 1069 1734 1069 1313 
Q 1069 891 1326 650 
Q 1584 409 2034 409 
Q 2484 409 2743 651 
Q 3003 894 3003 1313 
Q 3003 1734 2745 1975 
Q 2488 2216 2034 2216 
z
M 1403 2484 
Q 997 2584 770 2862 
Q 544 3141 544 3541 
Q 544 4100 942 4425 
Q 1341 4750 2034 4750 
Q 2731 4750 3128 4425 
Q 3525 4100 3525 3541 
Q 3525 3141 3298 2862 
Q 3072 2584 2669 2484 
Q 3125 2378 3379 2068 
Q 3634 1759 3634 1313 
Q 3634 634 3220 271 
Q 2806 -91 2034 -91 
Q 1263 -91 848 271 
Q 434 634 434 1313 
Q 434 1759 690 2068 
Q 947 2378 1403 2484 
z
M 1172 3481 
Q 1172 3119 1398 2916 
Q 1625 2713 2034 2713 
Q 2441 2713 2670 2916 
Q 2900 3119 2900 3481 
Q 2900 3844 2670 4047 
Q 2441 4250 2034 4250 
Q 1625 4250 1398 4047 
Q 1172 3844 1172 3481 
z
" transform="scale(0.015625)"/>
        <path id="DejaVuSans-2e" d="M 684 794 
L 1344 794 
L 1344 0 
L 684 0 
L 684 794 
z
" transform="scale(0.015625)"/>
        <path id="DejaVuSans-35" d="M 691 4666 
L 3169 4666 
L 3169 4134 
L 1269 4134 
L 1269 2991 
Q 1406 3038 1543 3061 
Q 1681 3084 1819 3084 
Q 2600 3084 3056 2656 
Q 3513 2228 3513 1497 
Q 3513 744 3044 326 
Q 2575 -91 1722 -91 
Q 1428 -91 1123 -41 
Q 819 9 494 109 
L 494 744 
Q 775 591 1075 516 
Q 1375 441 1709 441 
Q 2250 441 2565 725 
Q 2881 1009 2881 1497 
Q 2881 1984 2565 2268 
Q 2250 2553 1709 2553 
Q 1456 2553 1204 2497 
Q 953 2441 691 2322 
L 691 4666 
z
" transform="scale(0.015625)"/>
        <path id="DejaVuSans-36" d="M 2113 2584 
Q 1688 2584 1439 2293 
Q 1191 2003 1191 1497 
Q 1191 994 1439 701 
Q 1688 409 2113 409 
Q 2538 409 2786 701 
Q 3034 994 3034 1497 
Q 3034 2003 2786 2293 
Q 2538 2584 2113 2584 
z
M 3366 4563 
L 3366 3988 
Q 3128 4100 2886 4159 
Q 2644 4219 2406 4219 
Q 1781 4219 1451 3797 
Q 1122 3375 1075 2522 
Q 1259 2794 1537 2939 
Q 1816 3084 2150 3084 
Q 2853 3084 3261 2657 
Q 3669 2231 3669 1497 
Q 3669 778 3244 343 
Q 2819 -91 2113 -91 
Q 1303 -91 875 529 
Q 447 1150 447 2328 
Q 447 3434 972 4092 
Q 1497 4750 2381 4750 
Q 2619 4750 2861 4703 
Q 3103 4656 3366 4563 
z
" transform="scale(0.015625)"/>
       </defs>
       <use xlink:href="#DejaVuSans-2212"/>
       <use xlink:href="#DejaVuSans-34" transform="translate(83.789062 0)"/>
       <use xlink:href="#DejaVuSans-38" transform="translate(147.412109 0)"/>
       <use xlink:href="#DejaVuSans-2e" transform="translate(211.035156 0)"/>
       <use xlink:href="#DejaVuSans-35" transform="translate(242.822266 0)"/>
       <use xlink:href="#DejaVuSans-36" transform="translate(306.445312 0)"/>
      </g>
     </g>
    </g>
    <g id="xtick_2">
     <g id="line2d_3">
      <path d="M 191.88648 716.576063 
L 191.88648 156.063937 
" clip-path="url(#p8911e61490)" style="fill: none; stroke: #b0b0b0; stroke-width: 0.8; stroke-linecap: square"/>
     </g>
     <g id="line2d_4">
      <g>
       <use xlink:href="#m422fb5f418" x="191.88648" y="716.576063" style="stroke: #000000; stroke-width: 0.8"/>
      </g>
     </g>
     <g id="text_2">
      <!-- −48.54 -->
      <g transform="translate(180.753416 755.117445) rotate(-45) scale(0.1 -0.1)">
       <use xlink:href="#DejaVuSans-2212"/>
       <use xlink:href="#DejaVuSans-34" transform="translate(83.789062 0)"/>
       <use xlink:href="#DejaVuSans-38" transform="translate(147.412109 0)"/>
       <use xlink:href="#DejaVuSans-2e" transform="translate(211.035156 0)"/>
       <use xlink:href="#DejaVuSans-35" transform="translate(242.822266 0)"/>
       <use xlink:href="#DejaVuSans-34" transform="translate(306.445312 0)"/>
      </g>
     </g>
    </g>
    <g id="xtick_3">
     <g id="line2d_5">
      <path d="M 262.100901 716.576063 
L 262.100901 156.063937 
" clip-path="url(#p8911e61490)" style="fill: none; stroke: #b0b0b0; stroke-width: 0.8; stroke-linecap: square"/>
     </g>
     <g id="line2d_6">
      <g>
       <use xlink:href="#m422fb5f418" x="262.100901" y="716.576063" style="stroke: #000000; stroke-width: 0.8"/>
      </g>
     </g>
     <g id="text_3">
      <!-- −48.52 -->
      <g transform="translate(250.967836 755.117445) rotate(-45) scale(0.1 -0.1)">
       <defs>
        <path id="DejaVuSans-32" d="M 1228 531 
L 3431 531 
L 3431 0 
L 469 0 
L 469 531 
Q 828 903 1448 1529 
Q 2069 2156 2228 2338 
Q 2531 2678 2651 2914 
Q 2772 3150 2772 3378 
Q 2772 3750 2511 3984 
Q 2250 4219 1831 4219 
Q 1534 4219 1204 4116 
Q 875 4013 500 3803 
L 500 4441 
Q 881 4594 1212 4672 
Q 1544 4750 1819 4750 
Q 2544 4750 2975 4387 
Q 3406 4025 3406 3419 
Q 3406 3131 3298 2873 
Q 3191 2616 2906 2266 
Q 2828 2175 2409 1742 
Q 1991 1309 1228 531 
z
" transform="scale(0.015625)"/>
       </defs>
       <use xlink:href="#DejaVuSans-2212"/>
       <use xlink:href="#DejaVuSans-34" transform="translate(83.789062 0)"/>
       <use xlink:href="#DejaVuSans-38" transform="translate(147.412109 0)"/>
       <use xlink:href="#DejaVuSans-2e" transform="translate(211.035156 0)"/>
       <use xlink:href="#DejaVuSans-35" transform="translate(242.822266 0)"/>
       <use xlink:href="#DejaVuSans-32" transform="translate(306.445312 0)"/>
      </g>
     </g>
    </g>
    <g id="xtick_4">
     <g id="line2d_7">
      <path d="M 332.315322 716.576063 
L 332.315322 156.063937 
" clip-path="url(#p8911e61490)" style="fill: none; stroke: #b0b0b0; stroke-width: 0.8; stroke-linecap: square"/>
     </g>
     <g id="line2d_8">
      <g>
       <use xlink:href="#m422fb5f418" x="332.315322" y="716.576063" style="stroke: #000000; stroke-width: 0.8"/>
      </g>
     </g>
     <g id="text_4">
      <!-- −48.50 -->
      <g transform="translate(321.182257 755.117445) rotate(-45) scale(0.1 -0.1)">
       <defs>
        <path id="DejaVuSans-30" d="M 2034 4250 
Q 1547 4250 1301 3770 
Q 1056 3291 1056 2328 
Q 1056 1369 1301 889 
Q 1547 409 2034 409 
Q 2525 409 2770 889 
Q 3016 1369 3016 2328 
Q 3016 3291 2770 3770 
Q 2525 4250 2034 4250 
z
M 2034 4750 
Q 2819 4750 3233 4129 
Q 3647 3509 3647 2328 
Q 3647 1150 3233 529 
Q 2819 -91 2034 -91 
Q 1250 -91 836 529 
Q 422 1150 422 2328 
Q 422 3509 836 4129 
Q 1250 4750 2034 4750 
z
" transform="scale(0.015625)"/>
       </defs>
       <use xlink:href="#DejaVuSans-2212"/>
       <use xlink:href="#DejaVuSans-34" transform="translate(83.789062 0)"/>
       <use xlink:href="#DejaVuSans-38" transform="translate(147.412109 0)"/>
       <use xlink:href="#DejaVuSans-2e" transform="translate(211.035156 0)"/>
       <use xlink:href="#DejaVuSans-35" transform="translate(242.822266 0)"/>
       <use xlink:href="#DejaVuSans-30" transform="translate(306.445312 0)"/>
      </g>
     </g>
    </g>
    <g id="xtick_5">
     <g id="line2d_9">
      <path d="M 402.529742 716.576063 
L 402.529742 156.063937 
" clip-path="url(#p8911e61490)" style="fill: none; stroke: #b0b0b0; stroke-width: 0.8; stroke-linecap: square"/>
     </g>
     <g id="line2d_10">
      <g>
       <use xlink:href="#m422fb5f418" x="402.529742" y="716.576063" style="stroke: #000000; stroke-width: 0.8"/>
      </g>
     </g>
     <g id="text_5">
      <!-- −48.48 -->
      <g transform="translate(391.396678 755.117445) rotate(-45) scale(0.1 -0.1)">
       <use xlink:href="#DejaVuSans-2212"/>
       <use xlink:href="#DejaVuSans-34" transform="translate(83.789062 0)"/>
       <use xlink:href="#DejaVuSans-38" transform="translate(147.412109 0)"/>
       <use xlink:href="#DejaVuSans-2e" transform="translate(211.035156 0)"/>
       <use xlink:href="#DejaVuSans-34" transform="translate(242.822266 0)"/>
       <use xlink:href="#DejaVuSans-38" transform="translate(306.445312 0)"/>
      </g>
     </g>
    </g>
    <g id="xtick_6">
     <g id="line2d_11">
      <path d="M 472.744163 716.576063 
L 472.744163 156.063937 
" clip-path="url(#p8911e61490)" style="fill: none; stroke: #b0b0b0; stroke-width: 0.8; stroke-linecap: square"/>
     </g>
     <g id="line2d_12">
      <g>
       <use xlink:href="#m422fb5f418" x="472.744163" y="716.576063" style="stroke: #000000; stroke-width: 0.8"/>
      </g>
     </g>
     <g id="text_6">
      <!-- −48.46 -->
      <g transform="translate(461.611098 755.117445) rotate(-45) scale(0.1 -0.1)">
       <use xlink:href="#DejaVuSans-2212"/>
       <use xlink:href="#DejaVuSans-34" transform="translate(83.789062 0)"/>
       <use xlink:href="#DejaVuSans-38" transform="translate(147.412109 0)"/>
       <use xlink:href="#DejaVuSans-2e" transform="translate(211.035156 0)"/>
       <use xlink:href="#DejaVuSans-34" transform="translate(242.822266 0)"/>
       <use xlink:href="#DejaVuSans-36" transform="translate(306.445312 0)"/>
      </g>
     </g>
    </g>
    <g id="xtick_7">
     <g id="line2d_13">
      <path d="M 542.958584 716.576063 
L 542.958584 156.063937 
" clip-path="url(#p8911e61490)" style="fill: none; stroke: #b0b0b0; stroke-width: 0.8; stroke-linecap: square"/>
     </g>
     <g id="line2d_14">
      <g>
       <use xlink:href="#m422fb5f418" x="542.958584" y="716.576063" style="stroke: #000000; stroke-width: 0.8"/>
      </g>
     </g>
     <g id="text_7">
      <!-- −48.44 -->
      <g transform="translate(531.825519 755.117445) rotate(-45) scale(0.1 -0.1)">
       <use xlink:href="#DejaVuSans-2212"/>
       <use xlink:href="#DejaVuSans-34" transform="translate(83.789062 0)"/>
       <use xlink:href="#DejaVuSans-38" transform="translate(147.412109 0)"/>
       <use xlink:href="#DejaVuSans-2e" transform="translate(211.035156 0)"/>
       <use xlink:href="#DejaVuSans-34" transform="translate(242.822266 0)"/>
       <use xlink:href="#DejaVuSans-34" transform="translate(306.445312 0)"/>
      </g>
     </g>
    </g>
    <g id="xtick_8">
     <g id="line2d_15">
      <path d="M 613.173004 716.576063 
L 613.173004 156.063937 
" clip-path="url(#p8911e61490)" style="fill: none; stroke: #b0b0b0; stroke-width: 0.8; stroke-linecap: square"/>
     </g>
     <g id="line2d_16">
      <g>
       <use xlink:href="#m422fb5f418" x="613.173004" y="716.576063" style="stroke: #000000; stroke-width: 0.8"/>
      </g>
     </g>
     <g id="text_8">
      <!-- −48.42 -->
      <g transform="translate(602.03994 755.117445) rotate(-45) scale(0.1 -0.1)">
       <use xlink:href="#DejaVuSans-2212"/>
       <use xlink:href="#DejaVuSans-34" transform="translate(83.789062 0)"/>
       <use xlink:href="#DejaVuSans-38" transform="translate(147.412109 0)"/>
       <use xlink:href="#DejaVuSans-2e" transform="translate(211.035156 0)"/>
       <use xlink:href="#DejaVuSans-34" transform="translate(242.822266 0)"/>
       <use xlink:href="#DejaVuSans-32" transform="translate(306.445312 0)"/>
      </g>
     </g>
    </g>
    <g id="text_9">
     <!-- Longitude (°) -->
     <g transform="translate(336.139844 768.186444) scale(0.1 -0.1)">
      <defs>
       <path id="DejaVuSans-4c" d="M 628 4666 
L 1259 4666 
L 1259 531 
L 3531 531 
L 3531 0 
L 628 0 
L 628 4666 
z
" transform="scale(0.015625)"/>
       <path id="DejaVuSans-6f" d="M 1959 3097 
Q 1497 3097 1228 2736 
Q 959 2375 959 1747 
Q 959 1119 1226 758 
Q 1494 397 1959 397 
Q 2419 397 2687 759 
Q 2956 1122 2956 1747 
Q 2956 2369 2687 2733 
Q 2419 3097 1959 3097 
z
M 1959 3584 
Q 2709 3584 3137 3096 
Q 3566 2609 3566 1747 
Q 3566 888 3137 398 
Q 2709 -91 1959 -91 
Q 1206 -91 779 398 
Q 353 888 353 1747 
Q 353 2609 779 3096 
Q 1206 3584 1959 3584 
z
" transform="scale(0.015625)"/>
       <path id="DejaVuSans-6e" d="M 3513 2113 
L 3513 0 
L 2938 0 
L 2938 2094 
Q 2938 2591 2744 2837 
Q 2550 3084 2163 3084 
Q 1697 3084 1428 2787 
Q 1159 2491 1159 1978 
L 1159 0 
L 581 0 
L 581 3500 
L 1159 3500 
L 1159 2956 
Q 1366 3272 1645 3428 
Q 1925 3584 2291 3584 
Q 2894 3584 3203 3211 
Q 3513 2838 3513 2113 
z
" transform="scale(0.015625)"/>
       <path id="DejaVuSans-67" d="M 2906 1791 
Q 2906 2416 2648 2759 
Q 2391 3103 1925 3103 
Q 1463 3103 1205 2759 
Q 947 2416 947 1791 
Q 947 1169 1205 825 
Q 1463 481 1925 481 
Q 2391 481 2648 825 
Q 2906 1169 2906 1791 
z
M 3481 434 
Q 3481 -459 3084 -895 
Q 2688 -1331 1869 -1331 
Q 1566 -1331 1297 -1286 
Q 1028 -1241 775 -1147 
L 775 -588 
Q 1028 -725 1275 -790 
Q 1522 -856 1778 -856 
Q 2344 -856 2625 -561 
Q 2906 -266 2906 331 
L 2906 616 
Q 2728 306 2450 153 
Q 2172 0 1784 0 
Q 1141 0 747 490 
Q 353 981 353 1791 
Q 353 2603 747 3093 
Q 1141 3584 1784 3584 
Q 2172 3584 2450 3431 
Q 2728 3278 2906 2969 
L 2906 3500 
L 3481 3500 
L 3481 434 
z
" transform="scale(0.015625)"/>
       <path id="DejaVuSans-69" d="M 603 3500 
L 1178 3500 
L 1178 0 
L 603 0 
L 603 3500 
z
M 603 4863 
L 1178 4863 
L 1178 4134 
L 603 4134 
L 603 4863 
z
" transform="scale(0.015625)"/>
       <path id="DejaVuSans-74" d="M 1172 4494 
L 1172 3500 
L 2356 3500 
L 2356 3053 
L 1172 3053 
L 1172 1153 
Q 1172 725 1289 603 
Q 1406 481 1766 481 
L 2356 481 
L 2356 0 
L 1766 0 
Q 1100 0 847 248 
Q 594 497 594 1153 
L 594 3053 
L 172 3053 
L 172 3500 
L 594 3500 
L 594 4494 
L 1172 4494 
z
" transform="scale(0.015625)"/>
       <path id="DejaVuSans-75" d="M 544 1381 
L 544 3500 
L 1119 3500 
L 1119 1403 
Q 1119 906 1312 657 
Q 1506 409 1894 409 
Q 2359 409 2629 706 
Q 2900 1003 2900 1516 
L 2900 3500 
L 3475 3500 
L 3475 0 
L 2900 0 
L 2900 538 
Q 2691 219 2414 64 
Q 2138 -91 1772 -91 
Q 1169 -91 856 284 
Q 544 659 544 1381 
z
M 1991 3584 
L 1991 3584 
z
" transform="scale(0.015625)"/>
       <path id="DejaVuSans-64" d="M 2906 2969 
L 2906 4863 
L 3481 4863 
L 3481 0 
L 2906 0 
L 2906 525 
Q 2725 213 2448 61 
Q 2172 -91 1784 -91 
Q 1150 -91 751 415 
Q 353 922 353 1747 
Q 353 2572 751 3078 
Q 1150 3584 1784 3584 
Q 2172 3584 2448 3432 
Q 2725 3281 2906 2969 
z
M 947 1747 
Q 947 1113 1208 752 
Q 1469 391 1925 391 
Q 2381 391 2643 752 
Q 2906 1113 2906 1747 
Q 2906 2381 2643 2742 
Q 2381 3103 1925 3103 
Q 1469 3103 1208 2742 
Q 947 2381 947 1747 
z
" transform="scale(0.015625)"/>
       <path id="DejaVuSans-65" d="M 3597 1894 
L 3597 1613 
L 953 1613 
Q 991 1019 1311 708 
Q 1631 397 2203 397 
Q 2534 397 2845 478 
Q 3156 559 3463 722 
L 3463 178 
Q 3153 47 2828 -22 
Q 2503 -91 2169 -91 
Q 1331 -91 842 396 
Q 353 884 353 1716 
Q 353 2575 817 3079 
Q 1281 3584 2069 3584 
Q 2775 3584 3186 3129 
Q 3597 2675 3597 1894 
z
M 3022 2063 
Q 3016 2534 2758 2815 
Q 2500 3097 2075 3097 
Q 1594 3097 1305 2825 
Q 1016 2553 972 2059 
L 3022 2063 
z
" transform="scale(0.015625)"/>
       <path id="DejaVuSans-20" transform="scale(0.015625)"/>
       <path id="DejaVuSans-28" d="M 1984 4856 
Q 1566 4138 1362 3434 
Q 1159 2731 1159 2009 
Q 1159 1288 1364 580 
Q 1569 -128 1984 -844 
L 1484 -844 
Q 1016 -109 783 600 
Q 550 1309 550 2009 
Q 550 2706 781 3412 
Q 1013 4119 1484 4856 
L 1984 4856 
z
" transform="scale(0.015625)"/>
       <path id="DejaVuSans-b0" d="M 1600 4347 
Q 1350 4347 1178 4173 
Q 1006 4000 1006 3750 
Q 1006 3503 1178 3333 
Q 1350 3163 1600 3163 
Q 1850 3163 2022 3333 
Q 2194 3503 2194 3750 
Q 2194 3997 2020 4172 
Q 1847 4347 1600 4347 
z
M 1600 4750 
Q 1800 4750 1984 4673 
Q 2169 4597 2303 4453 
Q 2447 4313 2519 4134 
Q 2591 3956 2591 3750 
Q 2591 3338 2302 3052 
Q 2013 2766 1594 2766 
Q 1172 2766 890 3047 
Q 609 3328 609 3750 
Q 609 4169 896 4459 
Q 1184 4750 1600 4750 
z
" transform="scale(0.015625)"/>
       <path id="DejaVuSans-29" d="M 513 4856 
L 1013 4856 
Q 1481 4119 1714 3412 
Q 1947 2706 1947 2009 
Q 1947 1309 1714 600 
Q 1481 -109 1013 -844 
L 513 -844 
Q 928 -128 1133 580 
Q 1338 1288 1338 2009 
Q 1338 2731 1133 3434 
Q 928 4138 513 4856 
z
" transform="scale(0.015625)"/>
      </defs>
      <use xlink:href="#DejaVuSans-4c"/>
      <use xlink:href="#DejaVuSans-6f" transform="translate(53.962891 0)"/>
      <use xlink:href="#DejaVuSans-6e" transform="translate(115.144531 0)"/>
      <use xlink:href="#DejaVuSans-67" transform="translate(178.523438 0)"/>
      <use xlink:href="#DejaVuSans-69" transform="translate(242 0)"/>
      <use xlink:href="#DejaVuSans-74" transform="translate(269.783203 0)"/>
      <use xlink:href="#DejaVuSans-75" transform="translate(308.992188 0)"/>
      <use xlink:href="#DejaVuSans-64" transform="translate(372.371094 0)"/>
      <use xlink:href="#DejaVuSans-65" transform="translate(435.847656 0)"/>
      <use xlink:href="#DejaVuSans-20" transform="translate(497.371094 0)"/>
      <use xlink:href="#DejaVuSans-28" transform="translate(529.158203 0)"/>
      <use xlink:href="#DejaVuSans-b0" transform="translate(568.171875 0)"/>
      <use xlink:href="#DejaVuSans-29" transform="translate(618.171875 0)"/>
     </g>
    </g>
   </g>
   <g id="matplotlib.axis_2">
    <g id="ytick_1">
     <g id="line2d_17">
      <path d="M 90 704.270442 
L 648 704.270442 
" clip-path="url(#p8911e61490)" style="fill: none; stroke: #b0b0b0; stroke-width: 0.8; stroke-linecap: square"/>
     </g>
     <g id="line2d_18">
      <defs>
       <path id="m31a0266072" d="M 0 0 
L -3.5 0 
" style="stroke: #000000; stroke-width: 0.8"/>
      </defs>
      <g>
       <use xlink:href="#m31a0266072" x="90" y="704.270442" style="stroke: #000000; stroke-width: 0.8"/>
      </g>
     </g>
     <g id="text_10">
      <!-- −12.12 -->
      <g transform="translate(45.992188 708.069661) scale(0.1 -0.1)">
       <defs>
        <path id="DejaVuSans-31" d="M 794 531 
L 1825 531 
L 1825 4091 
L 703 3866 
L 703 4441 
L 1819 4666 
L 2450 4666 
L 2450 531 
L 3481 531 
L 3481 0 
L 794 0 
L 794 531 
z
" transform="scale(0.015625)"/>
       </defs>
       <use xlink:href="#DejaVuSans-2212"/>
       <use xlink:href="#DejaVuSans-31" transform="translate(83.789062 0)"/>
       <use xlink:href="#DejaVuSans-32" transform="translate(147.412109 0)"/>
       <use xlink:href="#DejaVuSans-2e" transform="translate(211.035156 0)"/>
       <use xlink:href="#DejaVuSans-31" transform="translate(242.822266 0)"/>
       <use xlink:href="#DejaVuSans-32" transform="translate(306.445312 0)"/>
      </g>
     </g>
    </g>
    <g id="ytick_2">
     <g id="line2d_19">
      <path d="M 90 632.476366 
L 648 632.476366 
" clip-path="url(#p8911e61490)" style="fill: none; stroke: #b0b0b0; stroke-width: 0.8; stroke-linecap: square"/>
     </g>
     <g id="line2d_20">
      <g>
       <use xlink:href="#m31a0266072" x="90" y="632.476366" style="stroke: #000000; stroke-width: 0.8"/>
      </g>
     </g>
     <g id="text_11">
      <!-- −12.10 -->
      <g transform="translate(45.992188 636.275585) scale(0.1 -0.1)">
       <use xlink:href="#DejaVuSans-2212"/>
       <use xlink:href="#DejaVuSans-31" transform="translate(83.789062 0)"/>
       <use xlink:href="#DejaVuSans-32" transform="translate(147.412109 0)"/>
       <use xlink:href="#DejaVuSans-2e" transform="translate(211.035156 0)"/>
       <use xlink:href="#DejaVuSans-31" transform="translate(242.822266 0)"/>
       <use xlink:href="#DejaVuSans-30" transform="translate(306.445312 0)"/>
      </g>
     </g>
    </g>
    <g id="ytick_3">
     <g id="line2d_21">
      <path d="M 90 560.68229 
L 648 560.68229 
" clip-path="url(#p8911e61490)" style="fill: none; stroke: #b0b0b0; stroke-width: 0.8; stroke-linecap: square"/>
     </g>
     <g id="line2d_22">
      <g>
       <use xlink:href="#m31a0266072" x="90" y="560.68229" style="stroke: #000000; stroke-width: 0.8"/>
      </g>
     </g>
     <g id="text_12">
      <!-- −12.08 -->
      <g transform="translate(45.992188 564.481509) scale(0.1 -0.1)">
       <use xlink:href="#DejaVuSans-2212"/>
       <use xlink:href="#DejaVuSans-31" transform="translate(83.789062 0)"/>
       <use xlink:href="#DejaVuSans-32" transform="translate(147.412109 0)"/>
       <use xlink:href="#DejaVuSans-2e" transform="translate(211.035156 0)"/>
       <use xlink:href="#DejaVuSans-30" transform="translate(242.822266 0)"/>
       <use xlink:href="#DejaVuSans-38" transform="translate(306.445312 0)"/>
      </g>
     </g>
    </g>
    <g id="ytick_4">
     <g id="line2d_23">
      <path d="M 90 488.888215 
L 648 488.888215 
" clip-path="url(#p8911e61490)" style="fill: none; stroke: #b0b0b0; stroke-width: 0.8; stroke-linecap: square"/>
     </g>
     <g id="line2d_24">
      <g>
       <use xlink:href="#m31a0266072" x="90" y="488.888215" style="stroke: #000000; stroke-width: 0.8"/>
      </g>
     </g>
     <g id="text_13">
      <!-- −12.06 -->
      <g transform="translate(45.992188 492.687433) scale(0.1 -0.1)">
       <use xlink:href="#DejaVuSans-2212"/>
       <use xlink:href="#DejaVuSans-31" transform="translate(83.789062 0)"/>
       <use xlink:href="#DejaVuSans-32" transform="translate(147.412109 0)"/>
       <use xlink:href="#DejaVuSans-2e" transform="translate(211.035156 0)"/>
       <use xlink:href="#DejaVuSans-30" transform="translate(242.822266 0)"/>
       <use xlink:href="#DejaVuSans-36" transform="translate(306.445312 0)"/>
      </g>
     </g>
    </g>
    <g id="ytick_5">
     <g id="line2d_25">
      <path d="M 90 417.094139 
L 648 417.094139 
" clip-path="url(#p8911e61490)" style="fill: none; stroke: #b0b0b0; stroke-width: 0.8; stroke-linecap: square"/>
     </g>
     <g id="line2d_26">
      <g>
       <use xlink:href="#m31a0266072" x="90" y="417.094139" style="stroke: #000000; stroke-width: 0.8"/>
      </g>
     </g>
     <g id="text_14">
      <!-- −12.04 -->
      <g transform="translate(45.992188 420.893358) scale(0.1 -0.1)">
       <use xlink:href="#DejaVuSans-2212"/>
       <use xlink:href="#DejaVuSans-31" transform="translate(83.789062 0)"/>
       <use xlink:href="#DejaVuSans-32" transform="translate(147.412109 0)"/>
       <use xlink:href="#DejaVuSans-2e" transform="translate(211.035156 0)"/>
       <use xlink:href="#DejaVuSans-30" transform="translate(242.822266 0)"/>
       <use xlink:href="#DejaVuSans-34" transform="translate(306.445312 0)"/>
      </g>
     </g>
    </g>
    <g id="ytick_6">
     <g id="line2d_27">
      <path d="M 90 345.300063 
L 648 345.300063 
" clip-path="url(#p8911e61490)" style="fill: none; stroke: #b0b0b0; stroke-width: 0.8; stroke-linecap: square"/>
     </g>
     <g id="line2d_28">
      <g>
       <use xlink:href="#m31a0266072" x="90" y="345.300063" style="stroke: #000000; stroke-width: 0.8"/>
      </g>
     </g>
     <g id="text_15">
      <!-- −12.02 -->
      <g transform="translate(45.992188 349.099282) scale(0.1 -0.1)">
       <use xlink:href="#DejaVuSans-2212"/>
       <use xlink:href="#DejaVuSans-31" transform="translate(83.789062 0)"/>
       <use xlink:href="#DejaVuSans-32" transform="translate(147.412109 0)"/>
       <use xlink:href="#DejaVuSans-2e" transform="translate(211.035156 0)"/>
       <use xlink:href="#DejaVuSans-30" transform="translate(242.822266 0)"/>
       <use xlink:href="#DejaVuSans-32" transform="translate(306.445312 0)"/>
      </g>
     </g>
    </g>
    <g id="ytick_7">
     <g id="line2d_29">
      <path d="M 90 273.505987 
L 648 273.505987 
" clip-path="url(#p8911e61490)" style="fill: none; stroke: #b0b0b0; stroke-width: 0.8; stroke-linecap: square"/>
     </g>
     <g id="line2d_30">
      <g>
       <use xlink:href="#m31a0266072" x="90" y="273.505987" style="stroke: #000000; stroke-width: 0.8"/>
      </g>
     </g>
     <g id="text_16">
      <!-- −12.00 -->
      <g transform="translate(45.992188 277.305206) scale(0.1 -0.1)">
       <use xlink:href="#DejaVuSans-2212"/>
       <use xlink:href="#DejaVuSans-31" transform="translate(83.789062 0)"/>
       <use xlink:href="#DejaVuSans-32" transform="translate(147.412109 0)"/>
       <use xlink:href="#DejaVuSans-2e" transform="translate(211.035156 0)"/>
       <use xlink:href="#DejaVuSans-30" transform="translate(242.822266 0)"/>
       <use xlink:href="#DejaVuSans-30" transform="translate(306.445312 0)"/>
      </g>
     </g>
    </g>
    <g id="ytick_8">
     <g id="line2d_31">
      <path d="M 90 201.711912 
L 648 201.711912 
" clip-path="url(#p8911e61490)" style="fill: none; stroke: #b0b0b0; stroke-width: 0.8; stroke-linecap: square"/>
     </g>
     <g id="line2d_32">
      <g>
       <use xlink:href="#m31a0266072" x="90" y="201.711912" style="stroke: #000000; stroke-width: 0.8"/>
      </g>
     </g>
     <g id="text_17">
      <!-- −11.98 -->
      <g transform="translate(45.992188 205.51113) scale(0.1 -0.1)">
       <defs>
        <path id="DejaVuSans-39" d="M 703 97 
L 703 672 
Q 941 559 1184 500 
Q 1428 441 1663 441 
Q 2288 441 2617 861 
Q 2947 1281 2994 2138 
Q 2813 1869 2534 1725 
Q 2256 1581 1919 1581 
Q 1219 1581 811 2004 
Q 403 2428 403 3163 
Q 403 3881 828 4315 
Q 1253 4750 1959 4750 
Q 2769 4750 3195 4129 
Q 3622 3509 3622 2328 
Q 3622 1225 3098 567 
Q 2575 -91 1691 -91 
Q 1453 -91 1209 -44 
Q 966 3 703 97 
z
M 1959 2075 
Q 2384 2075 2632 2365 
Q 2881 2656 2881 3163 
Q 2881 3666 2632 3958 
Q 2384 4250 1959 4250 
Q 1534 4250 1286 3958 
Q 1038 3666 1038 3163 
Q 1038 2656 1286 2365 
Q 1534 2075 1959 2075 
z
" transform="scale(0.015625)"/>
       </defs>
       <use xlink:href="#DejaVuSans-2212"/>
       <use xlink:href="#DejaVuSans-31" transform="translate(83.789062 0)"/>
       <use xlink:href="#DejaVuSans-31" transform="translate(147.412109 0)"/>
       <use xlink:href="#DejaVuSans-2e" transform="translate(211.035156 0)"/>
       <use xlink:href="#DejaVuSans-39" transform="translate(242.822266 0)"/>
       <use xlink:href="#DejaVuSans-38" transform="translate(306.445312 0)"/>
      </g>
     </g>
    </g>
    <g id="text_18">
     <!-- Latitude (°) -->
     <g transform="translate(39.9125 464.889531) rotate(-90) scale(0.1 -0.1)">
      <defs>
       <path id="DejaVuSans-61" d="M 2194 1759 
Q 1497 1759 1228 1600 
Q 959 1441 959 1056 
Q 959 750 1161 570 
Q 1363 391 1709 391 
Q 2188 391 2477 730 
Q 2766 1069 2766 1631 
L 2766 1759 
L 2194 1759 
z
M 3341 1997 
L 3341 0 
L 2766 0 
L 2766 531 
Q 2569 213 2275 61 
Q 1981 -91 1556 -91 
Q 1019 -91 701 211 
Q 384 513 384 1019 
Q 384 1609 779 1909 
Q 1175 2209 1959 2209 
L 2766 2209 
L 2766 2266 
Q 2766 2663 2505 2880 
Q 2244 3097 1772 3097 
Q 1472 3097 1187 3025 
Q 903 2953 641 2809 
L 641 3341 
Q 956 3463 1253 3523 
Q 1550 3584 1831 3584 
Q 2591 3584 2966 3190 
Q 3341 2797 3341 1997 
z
" transform="scale(0.015625)"/>
      </defs>
      <use xlink:href="#DejaVuSans-4c"/>
      <use xlink:href="#DejaVuSans-61" transform="translate(55.712891 0)"/>
      <use xlink:href="#DejaVuSans-74" transform="translate(116.992188 0)"/>
      <use xlink:href="#DejaVuSans-69" transform="translate(156.201172 0)"/>
      <use xlink:href="#DejaVuSans-74" transform="translate(183.984375 0)"/>
      <use xlink:href="#DejaVuSans-75" transform="translate(223.193359 0)"/>
      <use xlink:href="#DejaVuSans-64" transform="translate(286.572266 0)"/>
      <use xlink:href="#DejaVuSans-65" transform="translate(350.048828 0)"/>
      <use xlink:href="#DejaVuSans-20" transform="translate(411.572266 0)"/>
      <use xlink:href="#DejaVuSans-28" transform="translate(443.359375 0)"/>
      <use xlink:href="#DejaVuSans-b0" transform="translate(482.373047 0)"/>
      <use xlink:href="#DejaVuSans-29" transform="translate(532.373047 0)"/>
     </g>
    </g>
   </g>
   <g id="patch_3">
    <path d="M 90 716.576063 
L 90 156.063937 
" style="fill: none; stroke: #000000; stroke-width: 0.8; stroke-linejoin: miter; stroke-linecap: square"/>
   </g>
   <g id="patch_4">
    <path d="M 648 716.576063 
L 648 156.063937 
" style="fill: none; stroke: #000000; stroke-width: 0.8; stroke-linejoin: miter; stroke-linecap: square"/>
   </g>
   <g id="patch_5">
    <path d="M 90 716.576063 
L 648 716.576063 
" style="fill: none; stroke: #000000; stroke-width: 0.8; stroke-linejoin: miter; stroke-linecap: square"/>
   </g>
   <g id="patch_6">
    <path d="M 90 156.063937 
L 648 156.063937 
" style="fill: none; stroke: #000000; stroke-width: 0.8; stroke-linejoin: miter; stroke-linecap: square"/>
   </g>
   <g id="legend_1">
    <g id="patch_7">
     <path d="M 279.8375 867.970363 
L 458.1625 867.970363 
Q 460.1625 867.970363 460.1625 865.970363 
L 460.1625 835.678488 
Q 460.1625 833.678488 458.1625 833.678488 
L 279.8375 833.678488 
Q 277.8375 833.678488 277.8375 835.678488 
L 277.8375 865.970363 
Q 277.8375 867.970363 279.8375 867.970363 
z
" style="fill: #ffffff; opacity: 0.8; stroke: #cccccc; stroke-linejoin: miter"/>
    </g>
    <g id="text_19">
     <!-- Legenda -->
     <g transform="translate(343.280625 846.796613) scale(0.12 -0.12)">
      <use xlink:href="#DejaVuSans-4c"/>
      <use xlink:href="#DejaVuSans-65" transform="translate(53.962891 0)"/>
      <use xlink:href="#DejaVuSans-67" transform="translate(115.486328 0)"/>
      <use xlink:href="#DejaVuSans-65" transform="translate(178.962891 0)"/>
      <use xlink:href="#DejaVuSans-6e" transform="translate(240.486328 0)"/>
      <use xlink:href="#DejaVuSans-64" transform="translate(303.865234 0)"/>
      <use xlink:href="#DejaVuSans-61" transform="translate(367.341797 0)"/>
     </g>
    </g>
    <g id="patch_8">
     <path d="M 281.8375 861.890676 
L 301.8375 861.890676 
L 301.8375 854.890676 
L 281.8375 854.890676 
L 281.8375 861.890676 
z
" style="fill: none; stroke: #000000; stroke-linejoin: miter"/>
    </g>
    <g id="text_20">
     <!-- Gleba Federal -->
     <g transform="translate(309.8375 861.890676) scale(0.1 -0.1)">
      <defs>
       <path id="DejaVuSans-47" d="M 3809 666 
L 3809 1919 
L 2778 1919 
L 2778 2438 
L 4434 2438 
L 4434 434 
Q 4069 175 3628 42 
Q 3188 -91 2688 -91 
Q 1594 -91 976 548 
Q 359 1188 359 2328 
Q 359 3472 976 4111 
Q 1594 4750 2688 4750 
Q 3144 4750 3555 4637 
Q 3966 4525 4313 4306 
L 4313 3634 
Q 3963 3931 3569 4081 
Q 3175 4231 2741 4231 
Q 1884 4231 1454 3753 
Q 1025 3275 1025 2328 
Q 1025 1384 1454 906 
Q 1884 428 2741 428 
Q 3075 428 3337 486 
Q 3600 544 3809 666 
z
" transform="scale(0.015625)"/>
       <path id="DejaVuSans-6c" d="M 603 4863 
L 1178 4863 
L 1178 0 
L 603 0 
L 603 4863 
z
" transform="scale(0.015625)"/>
       <path id="DejaVuSans-62" d="M 3116 1747 
Q 3116 2381 2855 2742 
Q 2594 3103 2138 3103 
Q 1681 3103 1420 2742 
Q 1159 2381 1159 1747 
Q 1159 1113 1420 752 
Q 1681 391 2138 391 
Q 2594 391 2855 752 
Q 3116 1113 3116 1747 
z
M 1159 2969 
Q 1341 3281 1617 3432 
Q 1894 3584 2278 3584 
Q 2916 3584 3314 3078 
Q 3713 2572 3713 1747 
Q 3713 922 3314 415 
Q 2916 -91 2278 -91 
Q 1894 -91 1617 61 
Q 1341 213 1159 525 
L 1159 0 
L 581 0 
L 581 4863 
L 1159 4863 
L 1159 2969 
z
" transform="scale(0.015625)"/>
       <path id="DejaVuSans-46" d="M 628 4666 
L 3309 4666 
L 3309 4134 
L 1259 4134 
L 1259 2759 
L 3109 2759 
L 3109 2228 
L 1259 2228 
L 1259 0 
L 628 0 
L 628 4666 
z
" transform="scale(0.015625)"/>
       <path id="DejaVuSans-72" d="M 2631 2963 
Q 2534 3019 2420 3045 
Q 2306 3072 2169 3072 
Q 1681 3072 1420 2755 
Q 1159 2438 1159 1844 
L 1159 0 
L 581 0 
L 581 3500 
L 1159 3500 
L 1159 2956 
Q 1341 3275 1631 3429 
Q 1922 3584 2338 3584 
Q 2397 3584 2469 3576 
Q 2541 3569 2628 3553 
L 2631 2963 
z
" transform="scale(0.015625)"/>
      </defs>
      <use xlink:href="#DejaVuSans-47"/>
      <use xlink:href="#DejaVuSans-6c" transform="translate(77.490234 0)"/>
      <use xlink:href="#DejaVuSans-65" transform="translate(105.273438 0)"/>
      <use xlink:href="#DejaVuSans-62" transform="translate(166.796875 0)"/>
      <use xlink:href="#DejaVuSans-61" transform="translate(230.273438 0)"/>
      <use xlink:href="#DejaVuSans-20" transform="translate(291.552734 0)"/>
      <use xlink:href="#DejaVuSans-46" transform="translate(323.339844 0)"/>
      <use xlink:href="#DejaVuSans-65" transform="translate(375.359375 0)"/>
      <use xlink:href="#DejaVuSans-64" transform="translate(436.882812 0)"/>
      <use xlink:href="#DejaVuSans-65" transform="translate(500.359375 0)"/>
      <use xlink:href="#DejaVuSans-72" transform="translate(561.882812 0)"/>
      <use xlink:href="#DejaVuSans-61" transform="translate(602.996094 0)"/>
      <use xlink:href="#DejaVuSans-6c" transform="translate(664.275391 0)"/>
     </g>
    </g>
    <g id="patch_9">
     <path d="M 399.045312 861.890676 
L 419.045312 861.890676 
L 419.045312 854.890676 
L 399.045312 854.890676 
z
" style="fill: #e0bd1f; opacity: 0.6"/>
    </g>
    <g id="text_21">
     <!-- SIGEF -->
     <g transform="translate(427.045312 861.890676) scale(0.1 -0.1)">
      <defs>
       <path id="DejaVuSans-53" d="M 3425 4513 
L 3425 3897 
Q 3066 4069 2747 4153 
Q 2428 4238 2131 4238 
Q 1616 4238 1336 4038 
Q 1056 3838 1056 3469 
Q 1056 3159 1242 3001 
Q 1428 2844 1947 2747 
L 2328 2669 
Q 3034 2534 3370 2195 
Q 3706 1856 3706 1288 
Q 3706 609 3251 259 
Q 2797 -91 1919 -91 
Q 1588 -91 1214 -16 
Q 841 59 441 206 
L 441 856 
Q 825 641 1194 531 
Q 1563 422 1919 422 
Q 2459 422 2753 634 
Q 3047 847 3047 1241 
Q 3047 1584 2836 1778 
Q 2625 1972 2144 2069 
L 1759 2144 
Q 1053 2284 737 2584 
Q 422 2884 422 3419 
Q 422 4038 858 4394 
Q 1294 4750 2059 4750 
Q 2388 4750 2728 4690 
Q 3069 4631 3425 4513 
z
" transform="scale(0.015625)"/>
       <path id="DejaVuSans-49" d="M 628 4666 
L 1259 4666 
L 1259 0 
L 628 0 
L 628 4666 
z
" transform="scale(0.015625)"/>
       <path id="DejaVuSans-45" d="M 628 4666 
L 3578 4666 
L 3578 4134 
L 1259 4134 
L 1259 2753 
L 3481 2753 
L 3481 2222 
L 1259 2222 
L 1259 531 
L 3634 531 
L 3634 0 
L 628 0 
L 628 4666 
z
" transform="scale(0.015625)"/>
      </defs>
      <use xlink:href="#DejaVuSans-53"/>
      <use xlink:href="#DejaVuSans-49" transform="translate(63.476562 0)"/>
      <use xlink:href="#DejaVuSans-47" transform="translate(92.96875 0)"/>
      <use xlink:href="#DejaVuSans-45" transform="translate(170.458984 0)"/>
      <use xlink:href="#DejaVuSans-46" transform="translate(233.642578 0)"/>
     </g>
    </g>
   </g>
  </g>
 </g>
 <defs>
  <clipPath id="p8911e61490">
   <rect x="90" y="156.063937" width="558" height="560.512126"/>
  </clipPath>
 </defs>
</svg>
