<?xml version="1.0" encoding="utf-8" standalone="no"?>
<!DOCTYPE svg PUBLIC "-//W3C//DTD SVG 1.1//EN"
  "http://www.w3.org/Graphics/SVG/1.1/DTD/svg11.dtd">
<svg xmlns:xlink="http://www.w3.org/1999/xlink" width="720pt" height="864pt" viewBox="0 0 720 864" xmlns="http://www.w3.org/2000/svg" version="1.1">
 <metadata>
  <rdf:RDF xmlns:dc="http://purl.org/dc/elements/1.1/" xmlns:cc="http://creativecommons.org/ns#" xmlns:rdf="http://www.w3.org/1999/02/22-rdf-syntax-ns#">
   <cc:Work>
    <dc:type rdf:resource="http://purl.org/dc/dcmitype/StillImage"/>
    <dc:date>2025-06-16T17:31:24.315810</dc:date>
    <dc:format>image/svg+xml</dc:format>
    <dc:creator>
     <cc:Agent>
      <dc:title>Matplotlib v3.10.1, https://matplotlib.org/</dc:title>
     </cc:Agent>
    </dc:creator>
   </cc:Work>
  </rdf:RDF>
 </metadata>
 <defs>
  <style type="text/css">*{stroke-linejoin: round; stroke-linecap: butt}</style>
 </defs>
 <g id="figure_1">
  <g id="patch_1">
   <path d="M 0 864 
L 720 864 
L 720 0 
L 0 0 
z
" style="fill: #ffffff"/>
  </g>
  <g id="axes_1">
   <g id="patch_2">
    <path d="M 90 582.053389 
L 648 582.053389 
L 648 290.586611 
L 90 290.586611 
z
" style="fill: #ffffff"/>
   </g>
   <g id="PatchCollection_1">
    <path d="M 142.626757 434.355176 
L 164.349148 437.64291 
L 164.537437 440.552967 
L 170.406121 443.254281 
L 166.058256 450.516568 
L 178.364155 459.579366 
L 177.572593 462.830208 
L 173.889179 463.042727 
L 170.929615 463.936565 
L 153.144283 473.298224 
L 151.164833 475.710985 
L 151.930027 477.07725 
L 145.207093 481.028325 
L 143.802239 478.25994 
L 130.455654 473.626197 
L 127.747717 473.05245 
L 124.880867 473.98696 
L 122.269684 473.81999 
L 122.351526 473.291795 
L 121.447078 472.478477 
L 121.267087 471.337071 
L 120.639843 471.061886 
L 120.237739 470.672055 
L 120.171383 470.105245 
L 119.934544 469.191677 
L 120.078752 468.204946 
L 120.758936 466.906058 
L 120.6172 465.869547 
L 120.410744 464.928599 
L 120.366411 464.230656 
L 120.058509 463.67516 
L 119.455892 462.91093 
L 120.00115 461.820016 
L 120.267726 460.817616 
L 120.673798 459.913355 
L 120.82284 459.270496 
L 120.612528 458.429989 
L 119.839617 457.676635 
L 120.9731 456.971281 
L 120.359923 456.157422 
L 119.814591 455.581452 
L 119.616425 454.790604 
L 119.872864 453.770547 
L 119.691207 452.979643 
L 119.04368 452.511531 
L 118.676629 452.040222 
L 118.457855 451.008059 
L 118.386164 450.291886 
L 118.55216 449.189058 
L 118.840314 448.108681 
L 118.411206 446.934628 
L 118.193787 447.270863 
L 117.987342 448.166003 
L 117.167517 447.642819 
L 116.569988 446.93824 
L 115.844201 446.240218 
L 115.363636 445.90769 
L 132.719852 437.001599 
L 132.577574 440.252881 
L 142.626757 434.355176 
" clip-path="url(#p1196cfb4f2)" style="fill: #e0bd1f; stroke: #0000ff; stroke-width: 0.5"/>
    <path d="M 260.152062 510.181402 
L 273.183905 511.109492 
L 273.838449 510.566829 
L 281.889391 511.027178 
L 286.479246 516.627914 
L 288.612467 517.852133 
L 289.210579 517.931876 
L 296.722446 512.972373 
L 302.885554 512.99669 
L 310.217027 516.328818 
L 311.954502 517.102622 
L 329.482673 512.516783 
L 330.41513 516.14607 
L 331.811601 521.563515 
L 333.300925 527.309036 
L 339.25673 550.974451 
L 300.624597 561.094523 
L 271.056495 568.804899 
L 274.109397 560.88704 
L 274.554855 558.147353 
L 274.929523 555.516481 
L 276.790264 549.098843 
L 277.368154 547.257562 
L 278.369965 539.108351 
L 277.015264 537.338555 
L 272.694609 533.821783 
L 271.603841 533.891602 
L 269.035245 533.886256 
L 263.625094 533.085013 
L 263.663038 530.545547 
L 263.85266 514.07081 
L 260.152062 510.181402 
" clip-path="url(#p1196cfb4f2)" style="fill: #e0bd1f; stroke: #0000ff; stroke-width: 0.5"/>
    <path d="M 286.010356 421.539685 
L 298.734285 467.324259 
L 287.842975 468.92971 
L 286.016277 487.929523 
L 285.694781 488.001621 
L 285.94019 487.752049 
L 285.489277 487.172094 
L 284.930388 487.427911 
L 284.095808 487.595796 
L 283.346223 487.702551 
L 283.307997 487.368533 
L 282.793779 487.230673 
L 282.549233 487.700262 
L 281.599205 486.879992 
L 280.6771 486.511279 
L 280.080357 486.012631 
L 279.238399 486.278802 
L 278.81192 486.232544 
L 278.817268 486.630203 
L 278.117002 486.848806 
L 278.011955 486.344666 
L 277.146933 486.666287 
L 276.292285 486.686115 
L 276.144198 487.158358 
L 275.959305 486.836892 
L 275.708205 487.085571 
L 270.759029 471.75094 
L 264.205476 473.326919 
L 260.339051 473.344413 
L 260.132324 472.73698 
L 254.820825 454.985229 
L 272.219842 440.889758 
L 273.896321 433.886336 
L 271.098347 431.041521 
L 286.010356 421.539685 
" clip-path="url(#p1196cfb4f2)" style="fill: #e0bd1f; stroke: #0000ff; stroke-width: 0.5"/>
    <path d="M 240.891302 382.295215 
L 240.853542 382.238034 
L 186.545057 340.729744 
L 201.458539 338.429964 
L 200.712926 329.220494 
L 233.682179 324.738242 
L 233.844763 324.712854 
L 234.11699 325.336614 
L 234.14784 326.226195 
L 233.892935 327.027365 
L 234.010428 327.825055 
L 233.978582 328.630755 
L 234.277798 329.246406 
L 234.608405 329.971914 
L 234.546733 330.72822 
L 234.16664 331.232691 
L 233.728269 332.110374 
L 233.959068 332.754758 
L 234.251148 333.350933 
L 234.784261 333.747088 
L 234.861904 334.405009 
L 234.966121 335.253604 
L 235.4672 335.670041 
L 235.931171 335.621394 
L 236.838908 335.669674 
L 237.36692 334.836299 
L 237.324409 334.167127 
L 237.877305 333.699733 
L 238.398223 333.705329 
L 239.068726 333.774523 
L 239.7291 334.115937 
L 240.452038 334.25451 
L 241.071724 334.705703 
L 241.329495 335.266928 
L 241.631871 335.473684 
L 242.152298 335.917061 
L 242.263211 336.299912 
L 242.045812 336.972105 
L 242.374219 337.715065 
L 242.586659 338.472725 
L 243.127427 338.939042 
L 243.33566 339.437652 
L 243.389549 339.964148 
L 243.512834 340.800103 
L 243.56091 341.043954 
L 243.619331 341.817674 
L 244.244937 342.589823 
L 244.426695 343.077175 
L 244.673184 342.987067 
L 244.959713 343.27938 
L 245.8268 343.946141 
L 246.323518 344.132796 
L 246.789058 344.761688 
L 247.335456 345.418407 
L 247.640905 346.201306 
L 248.017776 346.546552 
L 248.410729 347.156946 
L 249.009541 347.623413 
L 249.028856 348.037203 
L 249.578648 348.730741 
L 249.83525 349.44465 
L 250.58502 350.253531 
L 251.195126 350.825691 
L 251.57657 351.348109 
L 252.233361 351.779191 
L 252.643722 352.296074 
L 253.06001 352.074138 
L 253.441676 352.475552 
L 253.431675 352.947781 
L 253.595267 353.507246 
L 253.887424 353.225754 
L 254.058519 353.75046 
L 254.162361 354.709599 
L 254.215179 355.548692 
L 254.236935 356.394352 
L 253.758017 356.732999 
L 253.302064 356.746807 
L 252.974716 356.589565 
L 252.909419 357.21189 
L 252.415918 357.662304 
L 252.923276 357.737293 
L 253.023648 358.104049 
L 253.618544 358.613043 
L 253.495275 359.098485 
L 254.242057 359.583686 
L 254.55943 360.030337 
L 254.798797 360.022853 
L 254.848438 360.697204 
L 254.41209 361.07449 
L 254.341291 361.712303 
L 253.719592 362.285189 
L 253.94332 362.510215 
L 253.835847 363.378527 
L 253.537967 363.891433 
L 252.93758 364.591309 
L 253.067626 364.777889 
L 252.907102 365.453283 
L 252.344283 366.202283 
L 252.140396 366.90922 
L 252.365906 367.830529 
L 251.733337 368.092348 
L 251.18557 368.562186 
L 250.977762 368.955375 
L 251.302889 369.825234 
L 250.737374 370.031766 
L 250.074061 370.193794 
L 249.454425 370.396823 
L 249.373634 371.108766 
L 249.172568 371.387786 
L 249.257521 371.737166 
L 248.934887 372.25337 
L 248.806703 372.728157 
L 248.432221 373.109285 
L 247.975143 373.709206 
L 247.36754 374.306363 
L 246.821189 375.014643 
L 246.348212 375.643443 
L 245.791636 376.205854 
L 245.240715 376.712645 
L 244.96323 377.20566 
L 244.655983 377.826667 
L 244.563293 378.275599 
L 243.911234 379.167855 
L 243.585903 379.651226 
L 243.304615 379.609681 
L 242.991554 380.064546 
L 242.614648 380.658493 
L 242.444238 381.272322 
L 241.81587 381.34858 
L 241.490791 381.859243 
L 240.891302 382.295215 
" clip-path="url(#p1196cfb4f2)" style="fill: #e0bd1f; stroke: #0000ff; stroke-width: 0.5"/>
   </g>
   <g id="PatchCollection_2">
    <path d="M 237.924475 384.910607 
L 238.380522 384.230657 
L 238.752736 384.068368 
L 239.481759 383.790091 
L 240.087731 383.282954 
L 240.640746 382.780817 
L 242.394357 381.859133 
L 242.698634 381.418643 
L 243.219065 380.390685 
L 243.808955 379.662997 
L 244.776601 378.756046 
L 245.537296 377.504085 
L 246.348432 375.820162 
L 246.737623 375.04692 
L 247.284294 374.37691 
L 248.430715 373.165431 
L 250.41742 370.322546 
L 250.471727 370.004526 
L 250.480655 369.662952 
L 250.762745 369.433125 
L 251.079089 369.437535 
L 251.671258 369.577986 
L 252.509833 369.566102 
L 252.595746 369.126109 
L 252.463864 368.640004 
L 252.172623 367.931826 
L 252.324951 367.494935 
L 254.432369 362.588886 
L 254.495463 361.778057 
L 255.653752 361.665069 
L 256.917386 362.349121 
L 257.670961 363.484146 
L 258.519239 363.834208 
L 259.788633 365.635441 
L 263.797077 367.973047 
L 265.72947 368.186343 
L 267.432764 369.099675 
L 268.473338 369.0832 
L 269.092439 369.424221 
L 269.457976 369.847769 
L 269.457261 370.138052 
L 269.665945 370.766055 
L 269.931782 370.704348 
L 400.610901 316.116057 
L 406.850642 313.024229 
L 410.881785 308.792659 
L 413.241329 308.595817 
L 414.533945 306.296144 
L 416.015814 304.792964 
L 418.968667 304.128983 
L 424.968993 305.405093 
L 432.752707 308.091952 
L 435.317548 307.619845 
L 438.653648 305.903396 
L 442.131963 307.786289 
L 445.259008 307.759375 
L 449.93904 306.481367 
L 451.855775 308.60268 
L 456.347872 311.489385 
L 461.493782 312.4576 
L 464.181779 313.334503 
L 463.412493 314.803873 
L 464.306896 314.908657 
L 465.456978 317.588841 
L 467.423399 318.978285 
L 470.752332 320.343227 
L 473.386933 321.501826 
L 478.372142 323.258861 
L 480.83346 323.743825 
L 482.798963 325.020692 
L 484.808257 324.890726 
L 485.976568 324.374254 
L 486.87532 324.985279 
L 488.390733 325.872232 
L 489.004979 325.866891 
L 489.835344 325.015805 
L 490.104409 323.832053 
L 490.658468 323.320916 
L 491.834491 323.70449 
L 492.894971 323.639007 
L 493.449508 323.184121 
L 494.845027 323.115719 
L 496.175523 321.978985 
L 496.721356 320.511538 
L 498.450454 320.271452 
L 499.85128 320.821826 
L 502.16296 323.389521 
L 503.835735 323.093651 
L 504.16061 321.909414 
L 504.147058 320.334328 
L 505.369718 319.64858 
L 505.581459 318.296559 
L 506.131621 317.335388 
L 508.366154 317.428411 
L 510.264199 317.35559 
L 511.447964 318.639171 
L 511.912125 320.660374 
L 514.495765 322.381774 
L 515.846099 323.55137 
L 515.690224 324.9029 
L 516.810898 325.343159 
L 517.641212 324.492044 
L 518.816268 324.763052 
L 519.594622 324.362446 
L 520.154473 324.526318 
L 520.958886 325.403674 
L 523.258996 326.62119 
L 526.111672 327.158775 
L 527.468359 329.059614 
L 529.042573 330.28346 
L 531.060592 331.165868 
L 533.571431 330.918813 
L 536.075928 329.940471 
L 537.256843 330.88646 
L 537.098587 331.956721 
L 537.886192 332.624881 
L 539.007375 333.121338 
L 538.568948 334.081547 
L 537.571633 334.99041 
L 538.308769 336.27783 
L 539.597966 336.829064 
L 543.254231 333.823171 
L 544.189347 332.183519 
L 542.499035 330.45444 
L 543.377336 328.702776 
L 545.670644 329.132659 
L 547.565266 328.665942 
L 548.678137 328.206102 
L 550.68785 328.132155 
L 552.25867 328.962163 
L 553.766808 329.005134 
L 553.757028 327.880102 
L 554.462883 325.567393 
L 554.1744 324.501072 
L 554.779333 323.426883 
L 553.989775 322.533742 
L 554.090208 321.238972 
L 554.690252 319.602267 
L 555.855025 318.691916 
L 557.470898 318.283888 
L 558.74587 317.203795 
L 559.401735 315.566597 
L 560.071784 315.560692 
L 560.91913 316.678337 
L 561.586733 316.391173 
L 561.238986 314.93159 
L 561.669057 313.015011 
L 562.968972 314.803732 
L 565.36997 314.782553 
L 567.718559 315.155615 
L 569.084136 318.068844 
L 570.440901 319.969546 
L 572.840441 319.779577 
L 574.739402 319.819045 
L 576.419431 320.366741 
L 577.690922 318.892858 
L 579.709902 319.887586 
L 579.999405 321.066382 
L 581.985465 318.292299 
L 583.542509 317.547195 
L 584.259048 316.472003 
L 584.18994 314.95373 
L 584.861454 315.116547 
L 586.136354 314.036409 
L 585.337436 312.07456 
L 584.601244 310.899723 
L 585.71551 310.608581 
L 587.887217 309.914284 
L 591.571406 309.769122 
L 592.846771 308.745227 
L 592.168376 307.79491 
L 592.108112 307.289151 
L 593.117583 307.786494 
L 593.614688 307.163283 
L 592.822656 305.988955 
L 593.425036 304.633498 
L 594.646521 303.835101 
L 594.588763 305.127172 
L 597.355974 305.423972 
L 597.892279 305.954795 
L 596.996972 306.926787 
L 596.951313 307.784122 
L 598.610115 309.001235 
L 599.154871 310.496026 
L 598.414825 310.98462 
L 597.352993 311.154721 
L 597.251829 311.744759 
L 598.006888 312.969892 
L 598.548833 314.143358 
L 598.075065 314.683147 
L 594.999621 315.620937 
L 593.627711 316.811392 
L 593.692127 318.096219 
L 594.658438 319.158807 
L 594.617435 320.483901 
L 594.946733 321.659258 
L 595.647707 322.777756 
L 595.389398 323.63698 
L 592.585347 325.215063 
L 591.539431 327.206001 
L 592.512325 329.018347 
L 592.897608 330.514558 
L 591.63912 332.326173 
L 589.363849 333.578209 
L 588.579983 335.138357 
L 589.065498 335.937424 
L 588.063343 336.85681 
L 588.228934 337.551598 
L 589.611684 337.592885 
L 590.190396 336.891489 
L 591.410835 336.612862 
L 592.005499 337.732306 
L 591.116203 339.539939 
L 591.612053 341.517191 
L 591.145772 342.913848 
L 587.960555 343.477714 
L 587.64907 344.337413 
L 589.466544 345.446002 
L 589.684839 346.086762 
L 588.326 348.776747 
L 586.857536 351.092796 
L 586.291009 353.186602 
L 585.81439 353.405067 
L 584.800479 352.985601 
L 584.16436 353.20548 
L 583.861101 354.010609 
L 583.315109 353.612604 
L 582.200386 353.386484 
L 582.174837 354.507993 
L 581.905154 355.85417 
L 581.378085 356.74332 
L 581.672364 357.02129 
L 582.142679 357.203735 
L 582.498463 357.151884 
L 583.149515 356.871027 
L 583.74756 356.42933 
L 584.468617 356.162888 
L 584.748724 356.204161 
L 584.99049 356.503269 
L 585.09836 357.954115 
L 586.18801 358.829818 
L 586.823902 358.825981 
L 587.116307 358.418384 
L 587.65426 357.104355 
L 588.391873 356.265621 
L 590.303819 355.969701 
L 591.265041 356.443181 
L 592.233311 357.719971 
L 593.306041 358.781595 
L 594.266359 362.793028 
L 594.239517 363.317349 
L 592.104937 365.032032 
L 590.436492 367.531752 
L 591.118974 370.029418 
L 591.933541 372.554789 
L 590.438723 376.089276 
L 591.472314 377.750588 
L 592.630972 379.382213 
L 593.040433 380.24692 
L 592.171037 380.513069 
L 590.605788 381.601411 
L 591.649204 383.567227 
L 591.698207 384.042808 
L 592.150923 384.802551 
L 592.113758 386.62386 
L 592.334909 387.585938 
L 593.240197 387.738548 
L 595.038055 386.597808 
L 596.790275 386.314402 
L 598.444166 386.942352 
L 599.410636 388.004894 
L 599.371377 389.697855 
L 600.073893 390.976979 
L 602.036909 390.47744 
L 604.100594 389.334302 
L 604.48316 390.509159 
L 602.686262 391.757033 
L 602.110838 392.833329 
L 601.0767 396.163152 
L 597.917642 399.72617 
L 599.04412 400.840836 
L 599.212124 401.80338 
L 596.937591 403.16263 
L 597.957265 404.22469 
L 599.928326 404.926696 
L 600.72966 405.348004 
L 600.685931 406.419552 
L 599.475277 407.82287 
L 599.270618 408.735184 
L 600.343479 409.796761 
L 599.768512 410.926614 
L 598.50279 412.116193 
L 598.991246 413.236549 
L 600.009529 414.137937 
L 602.145832 415.190006 
L 603.413438 414.214633 
L 603.187523 412.717032 
L 602.538602 411.491002 
L 603.278746 411.002365 
L 603.925775 412.014182 
L 604.726649 412.381927 
L 606.055926 412.37004 
L 606.537302 412.68708 
L 605.331858 414.679499 
L 605.502245 415.909804 
L 607.296938 416.087378 
L 608.451444 417.72413 
L 609.389174 418.606435 
L 609.260787 420.689092 
L 608.030009 420.720572 
L 607.892279 421.67432 
L 608.973738 422.542261 
L 610.897681 423.480285 
L 609.386852 426.016472 
L 610.007575 426.247785 
L 610.568373 426.74818 
L 612.632386 429.683474 
L 615.202696 430.619175 
L 615.606871 431.045726 
L 616.224335 432.208579 
L 616.501327 433.07316 
L 616.62333 434.467789 
L 615.029129 435.444415 
L 613.733491 436.020449 
L 611.366154 437.597756 
L 611.35515 438.245402 
L 612.299529 441.115404 
L 614.214065 443.523086 
L 617.686388 445.148346 
L 618.752553 446.037637 
L 618.515302 447.292132 
L 621.125707 448.615372 
L 621.903107 451.88605 
L 622.636364 453.517215 
L 621.604413 454.4586 
L 620.806201 454.49017 
L 619.315625 455.827424 
L 618.395703 457.272671 
L 617.692359 457.626851 
L 617.067653 457.298237 
L 616.409273 456.603061 
L 615.234143 457.525817 
L 616.515208 460.302518 
L 615.085408 461.605328 
L 616.809398 462.746733 
L 619.185575 464.702285 
L 619.757633 467.444778 
L 619.059091 468.464076 
L 617.603852 468.135038 
L 616.218629 471.232699 
L 617.658308 471.93567 
L 618.021437 474.057022 
L 621.105962 475.385173 
L 618.235303 476.234644 
L 615.392035 476.40834 
L 611.656943 478.840257 
L 609.084587 480.033229 
L 608.288502 478.82577 
L 606.600982 477.490821 
L 602.336323 475.278914 
L 600.445333 476.195944 
L 599.894782 477.10095 
L 599.911711 479.013451 
L 600.590899 480.019941 
L 601.702961 479.447423 
L 603.479262 478.19389 
L 604.383857 479.423369 
L 603.6109 480.442884 
L 602.054015 481.244415 
L 601.729863 482.484921 
L 602.854884 483.374896 
L 602.75813 485.063396 
L 599.862762 486.101955 
L 597.196766 487.8135 
L 597.651558 488.709495 
L 599.005981 490.272473 
L 595.09725 490.420033 
L 595.440336 491.31703 
L 597.907846 492.419995 
L 596.574337 493.219519 
L 596.156396 496.486032 
L 594.81889 496.835554 
L 593.569194 494.484062 
L 593.441558 492.685058 
L 589.403187 490.808574 
L 587.817416 488.347558 
L 585.126519 487.246539 
L 583.775115 486.021016 
L 583.424105 484.223997 
L 581.499294 481.315941 
L 582.83182 480.403953 
L 584.278033 479.715967 
L 585.939705 478.125974 
L 586.151197 476.773965 
L 584.801807 475.77344 
L 581.566345 476.252391 
L 579.117766 477.286849 
L 575.207095 477.209245 
L 574.992604 478.223752 
L 574.326334 478.679738 
L 572.757503 478.13118 
L 573.530525 477.11169 
L 572.85534 476.55516 
L 571.747201 477.577635 
L 569.311456 480.074584 
L 566.530673 481.449494 
L 563.961421 481.472377 
L 561.885911 479.946712 
L 561.308599 477.814136 
L 560.520727 477.146079 
L 559.417496 478.731051 
L 558.873784 480.423557 
L 557.3089 480.324963 
L 557.296061 478.862429 
L 556.173069 478.197343 
L 555.065874 479.3323 
L 554.984537 480.217575 
L 554.40022 480.117244 
L 553.811629 480.132126 
L 553.193707 479.82199 
L 552.696446 479.566575 
L 551.350841 479.261227 
L 551.098174 478.633266 
L 550.629767 478.368725 
L 549.982514 478.532434 
L 549.11809 478.376883 
L 547.78526 478.958766 
L 547.448859 479.260743 
L 547.385939 479.582891 
L 547.476776 480.255512 
L 546.931721 480.568534 
L 546.538548 481.963692 
L 546.058781 482.337206 
L 545.608838 483.031432 
L 545.018355 483.246041 
L 543.361242 482.249012 
L 542.298751 480.955978 
L 541.484013 480.62614 
L 540.753963 479.510404 
L 541.76458 479.41486 
L 541.780199 478.695193 
L 542.946481 477.89775 
L 542.120382 476.720069 
L 540.847167 475.96345 
L 540.056548 475.963916 
L 539.257153 477.186484 
L 539.359149 477.8291 
L 539.671415 478.475312 
L 539.245131 478.764327 
L 538.664102 478.657273 
L 538.387043 475.542357 
L 534.714466 477.150048 
L 531.35341 476.054657 
L 530.015864 476.404024 
L 528.234429 477.094852 
L 526.683277 478.571232 
L 524.889072 477.799492 
L 523.869963 476.233308 
L 523.404496 474.099665 
L 521.499583 473.4414 
L 520.487353 472.662739 
L 521.36043 470.292252 
L 521.464297 469.391228 
L 520.901841 468.946136 
L 520.447177 468.05004 
L 521.452537 468.041171 
L 521.895442 467.587208 
L 521.105658 466.694069 
L 521.546604 466.015097 
L 522.668568 466.567766 
L 523.446591 466.110846 
L 522.987024 464.652229 
L 523.767985 464.532823 
L 523.886554 465.31937 
L 524.784122 465.7615 
L 525.562143 465.304579 
L 524.661632 464.524935 
L 525.210356 463.39496 
L 526.445982 464.171643 
L 526.998625 463.491685 
L 526.2059 462.261039 
L 526.534153 461.47055 
L 527.766832 461.909717 
L 530.555531 461.435032 
L 530.432052 460.085968 
L 527.957877 458.195097 
L 525.380833 457.31774 
L 523.483816 457.559503 
L 519.947457 461.978716 
L 517.936756 461.996441 
L 517.588913 460.536829 
L 518.914694 458.83744 
L 518.460043 457.941337 
L 517.570318 458.399232 
L 516.467945 460.096652 
L 515.460639 459.880496 
L 515.671331 458.415961 
L 514.88646 458.085332 
L 513.780167 459.332727 
L 512.663111 459.342562 
L 511.660694 459.688927 
L 512.016342 462.048591 
L 511.354906 463.067039 
L 510.115384 461.840295 
L 508.548565 461.516537 
L 508.563222 463.204122 
L 507.447135 463.326454 
L 506.54469 462.321762 
L 504.736884 459.974853 
L 502.203492 460.116755 
L 499.201073 461.718329 
L 498.18596 460.602093 
L 499.40108 459.01622 
L 498.170362 458.801994 
L 497.71574 457.905865 
L 498.597689 456.547947 
L 498.142093 455.539313 
L 496.568471 454.427971 
L 497.455294 453.632587 
L 498.786984 452.60827 
L 498.545058 450.472611 
L 500.099176 449.333827 
L 499.086041 448.442599 
L 497.313384 450.145872 
L 495.519293 449.374002 
L 493.289093 449.843612 
L 491.939876 448.842798 
L 491.046239 448.850627 
L 491.058888 450.313214 
L 489.500852 451.001953 
L 489.398875 452.127998 
L 490.202219 454.596298 
L 487.536836 456.419889 
L 482.765525 460.174671 
L 479.855301 459.525035 
L 477.944621 458.19155 
L 473.932854 459.351767 
L 473.724963 461.153841 
L 474.190231 463.287583 
L 473.875486 465.653171 
L 471.863753 465.55823 
L 469.854928 465.800804 
L 469.868505 467.375915 
L 470.779642 469.393251 
L 468.656184 469.299278 
L 465.519578 468.314005 
L 465.861491 469.098637 
L 465.873122 470.448735 
L 463.753531 470.804776 
L 460.622726 470.494527 
L 459.16371 469.719625 
L 457.396659 472.097877 
L 455.060394 473.243398 
L 449.694364 472.840034 
L 447.560248 471.508384 
L 446.535533 469.266939 
L 444.305166 469.736392 
L 442.736381 469.187429 
L 440.602289 467.855744 
L 438.925654 467.757777 
L 438.243822 466.413476 
L 437.777707 464.167158 
L 434.194291 463.185562 
L 433.27943 460.718087 
L 430.692742 458.71519 
L 431.330304 454.884039 
L 429.50643 450.624121 
L 432.387776 447.898739 
L 432.357014 444.298414 
L 425.856865 441.879216 
L 423.406981 442.800535 
L 423.873 445.046888 
L 421.877606 446.864429 
L 416.513681 446.685695 
L 414.747417 449.176359 
L 412.513232 449.195627 
L 409.133241 445.849164 
L 406.438838 444.29709 
L 405.291164 440.706329 
L 401.939916 440.735157 
L 398.602026 442.339135 
L 396.365939 442.133307 
L 395.061681 446.420291 
L 392.373015 445.543213 
L 392.162944 447.120307 
L 390.610443 448.483882 
L 387.764862 448.875901 
L 382.146963 445.098342 
L 381.526181 450.954766 
L 377.493153 449.63905 
L 372.324026 446.08258 
L 367.399246 444.999443 
L 362.740259 441.919449 
L 357.164174 443.092216 
L 356.484442 441.972782 
L 355.785793 438.603053 
L 352.86619 436.827545 
L 349.017036 430.784047 
L 346.32657 429.68168 
L 342.124984 434.893441 
L 334.556895 438.333369 
L 327.859822 439.065264 
L 321.142047 437.321719 
L 311.099158 438.756848 
L 305.753773 440.827389 
L 301.994799 445.585141 
L 297.546766 448.09817 
L 298.734309 467.324086 
L 287.842975 468.92971 
L 286.016277 487.929523 
L 285.694781 488.001621 
L 285.94019 487.752049 
L 285.489277 487.172094 
L 284.930388 487.427911 
L 283.346223 487.702551 
L 283.307997 487.368533 
L 282.793779 487.230673 
L 282.549233 487.700262 
L 281.599205 486.879992 
L 280.6771 486.511279 
L 280.080357 486.012631 
L 279.238399 486.278802 
L 278.81192 486.232544 
L 278.817268 486.630203 
L 278.109989 486.848865 
L 278.011955 486.344666 
L 277.146933 486.666287 
L 276.292285 486.686115 
L 276.144198 487.158358 
L 275.959305 486.836892 
L 275.708094 487.08538 
L 278.043503 493.314629 
L 276.720143 498.740697 
L 274.790681 501.528611 
L 274.582964 509.904868 
L 273.838449 510.566829 
L 260.896969 509.51936 
L 253.948469 506.017516 
L 251.990613 498.143932 
L 245.14242 489.409043 
L 230.10089 483.934011 
L 216.797705 478.873372 
L 189.095416 469.016918 
L 183.716777 471.659859 
L 176.721436 466.390777 
L 178.364164 459.579161 
L 166.058317 450.516369 
L 174.634897 435.88734 
L 178.051804 432.213688 
L 186.816266 434.187185 
L 194.554633 434.928695 
L 200.580096 432.709278 
L 205.380178 427.210653 
L 207.674133 420.409484 
L 221.157444 409.495143 
L 224.473269 405.192413 
L 226.125653 402.366043 
L 229.223543 398.740156 
L 231.243068 397.148466 
L 232.242839 395.483611 
L 232.258175 394.713227 
L 233.118493 393.175194 
L 234.676978 390.619661 
L 236.245242 388.419929 
L 236.831936 387.136464 
L 237.094936 386.399661 
L 237.924475 384.910607 
L 237.924475 384.910607 
" clip-path="url(#p1196cfb4f2)" style="fill: none; stroke: #000000"/>
   </g>
   <g id="matplotlib.axis_1">
    <g id="xtick_1">
     <g id="line2d_1">
      <path d="M 99.746577 582.053389 
L 99.746577 290.586611 
" clip-path="url(#p1196cfb4f2)" style="fill: none; stroke: #b0b0b0; stroke-width: 0.8; stroke-linecap: square"/>
     </g>
     <g id="line2d_2">
      <defs>
       <path id="mab0da8bcf2" d="M 0 0 
L 0 3.5 
" style="stroke: #000000; stroke-width: 0.8"/>
      </defs>
      <g>
       <use xlink:href="#mab0da8bcf2" x="99.746577" y="582.053389" style="stroke: #000000; stroke-width: 0.8"/>
      </g>
     </g>
     <g id="text_1">
      <!-- −48.30 -->
      <g transform="translate(88.613512 620.594771) rotate(-45) scale(0.1 -0.1)">
       <defs>
        <path id="DejaVuSans-2212" d="M 678 2272 
L 4684 2272 
L 4684 1741 
L 678 1741 
L 678 2272 
z
" transform="scale(0.015625)"/>
        <path id="DejaVuSans-34" d="M 2419 4116 
L 825 1625 
L 2419 1625 
L 2419 4116 
z
M 2253 4666 
L 3047 4666 
L 3047 1625 
L 3713 1625 
L 3713 1100 
L 3047 1100 
L 3047 0 
L 2419 0 
L 2419 1100 
L 313 1100 
L 313 1709 
L 2253 4666 
z
" transform="scale(0.015625)"/>
        <path id="DejaVuSans-38" d="M 2034 2216 
Q 1584 2216 1326 1975 
Q 1069 1734 1069 1313 
Q 1069 891 1326 650 
Q 1584 409 2034 409 
Q 2484 409 2743 651 
Q 3003 894 3003 1313 
Q 3003 1734 2745 1975 
Q 2488 2216 2034 2216 
z
M 1403 2484 
Q 997 2584 770 2862 
Q 544 3141 544 3541 
Q 544 4100 942 4425 
Q 1341 4750 2034 4750 
Q 2731 4750 3128 4425 
Q 3525 4100 3525 3541 
Q 3525 3141 3298 2862 
Q 3072 2584 2669 2484 
Q 3125 2378 3379 2068 
Q 3634 1759 3634 1313 
Q 3634 634 3220 271 
Q 2806 -91 2034 -91 
Q 1263 -91 848 271 
Q 434 634 434 1313 
Q 434 1759 690 2068 
Q 947 2378 1403 2484 
z
M 1172 3481 
Q 1172 3119 1398 2916 
Q 1625 2713 2034 2713 
Q 2441 2713 2670 2916 
Q 2900 3119 2900 3481 
Q 2900 3844 2670 4047 
Q 2441 4250 2034 4250 
Q 1625 4250 1398 4047 
Q 1172 3844 1172 3481 
z
" transform="scale(0.015625)"/>
        <path id="DejaVuSans-2e" d="M 684 794 
L 1344 794 
L 1344 0 
L 684 0 
L 684 794 
z
" transform="scale(0.015625)"/>
        <path id="DejaVuSans-33" d="M 2597 2516 
Q 3050 2419 3304 2112 
Q 3559 1806 3559 1356 
Q 3559 666 3084 287 
Q 2609 -91 1734 -91 
Q 1441 -91 1130 -33 
Q 819 25 488 141 
L 488 750 
Q 750 597 1062 519 
Q 1375 441 1716 441 
Q 2309 441 2620 675 
Q 2931 909 2931 1356 
Q 2931 1769 2642 2001 
Q 2353 2234 1838 2234 
L 1294 2234 
L 1294 2753 
L 1863 2753 
Q 2328 2753 2575 2939 
Q 2822 3125 2822 3475 
Q 2822 3834 2567 4026 
Q 2313 4219 1838 4219 
Q 1578 4219 1281 4162 
Q 984 4106 628 3988 
L 628 4550 
Q 988 4650 1302 4700 
Q 1616 4750 1894 4750 
Q 2613 4750 3031 4423 
Q 3450 4097 3450 3541 
Q 3450 3153 3228 2886 
Q 3006 2619 2597 2516 
z
" transform="scale(0.015625)"/>
        <path id="DejaVuSans-30" d="M 2034 4250 
Q 1547 4250 1301 3770 
Q 1056 3291 1056 2328 
Q 1056 1369 1301 889 
Q 1547 409 2034 409 
Q 2525 409 2770 889 
Q 3016 1369 3016 2328 
Q 3016 3291 2770 3770 
Q 2525 4250 2034 4250 
z
M 2034 4750 
Q 2819 4750 3233 4129 
Q 3647 3509 3647 2328 
Q 3647 1150 3233 529 
Q 2819 -91 2034 -91 
Q 1250 -91 836 529 
Q 422 1150 422 2328 
Q 422 3509 836 4129 
Q 1250 4750 2034 4750 
z
" transform="scale(0.015625)"/>
       </defs>
       <use xlink:href="#DejaVuSans-2212"/>
       <use xlink:href="#DejaVuSans-34" transform="translate(83.789062 0)"/>
       <use xlink:href="#DejaVuSans-38" transform="translate(147.412109 0)"/>
       <use xlink:href="#DejaVuSans-2e" transform="translate(211.035156 0)"/>
       <use xlink:href="#DejaVuSans-33" transform="translate(242.822266 0)"/>
       <use xlink:href="#DejaVuSans-30" transform="translate(306.445312 0)"/>
      </g>
     </g>
    </g>
    <g id="xtick_2">
     <g id="line2d_3">
      <path d="M 184.911453 582.053389 
L 184.911453 290.586611 
" clip-path="url(#p1196cfb4f2)" style="fill: none; stroke: #b0b0b0; stroke-width: 0.8; stroke-linecap: square"/>
     </g>
     <g id="line2d_4">
      <g>
       <use xlink:href="#mab0da8bcf2" x="184.911453" y="582.053389" style="stroke: #000000; stroke-width: 0.8"/>
      </g>
     </g>
     <g id="text_2">
      <!-- −48.25 -->
      <g transform="translate(173.778388 620.594771) rotate(-45) scale(0.1 -0.1)">
       <defs>
        <path id="DejaVuSans-32" d="M 1228 531 
L 3431 531 
L 3431 0 
L 469 0 
L 469 531 
Q 828 903 1448 1529 
Q 2069 2156 2228 2338 
Q 2531 2678 2651 2914 
Q 2772 3150 2772 3378 
Q 2772 3750 2511 3984 
Q 2250 4219 1831 4219 
Q 1534 4219 1204 4116 
Q 875 4013 500 3803 
L 500 4441 
Q 881 4594 1212 4672 
Q 1544 4750 1819 4750 
Q 2544 4750 2975 4387 
Q 3406 4025 3406 3419 
Q 3406 3131 3298 2873 
Q 3191 2616 2906 2266 
Q 2828 2175 2409 1742 
Q 1991 1309 1228 531 
z
" transform="scale(0.015625)"/>
        <path id="DejaVuSans-35" d="M 691 4666 
L 3169 4666 
L 3169 4134 
L 1269 4134 
L 1269 2991 
Q 1406 3038 1543 3061 
Q 1681 3084 1819 3084 
Q 2600 3084 3056 2656 
Q 3513 2228 3513 1497 
Q 3513 744 3044 326 
Q 2575 -91 1722 -91 
Q 1428 -91 1123 -41 
Q 819 9 494 109 
L 494 744 
Q 775 591 1075 516 
Q 1375 441 1709 441 
Q 2250 441 2565 725 
Q 2881 1009 2881 1497 
Q 2881 1984 2565 2268 
Q 2250 2553 1709 2553 
Q 1456 2553 1204 2497 
Q 953 2441 691 2322 
L 691 4666 
z
" transform="scale(0.015625)"/>
       </defs>
       <use xlink:href="#DejaVuSans-2212"/>
       <use xlink:href="#DejaVuSans-34" transform="translate(83.789062 0)"/>
       <use xlink:href="#DejaVuSans-38" transform="translate(147.412109 0)"/>
       <use xlink:href="#DejaVuSans-2e" transform="translate(211.035156 0)"/>
       <use xlink:href="#DejaVuSans-32" transform="translate(242.822266 0)"/>
       <use xlink:href="#DejaVuSans-35" transform="translate(306.445312 0)"/>
      </g>
     </g>
    </g>
    <g id="xtick_3">
     <g id="line2d_5">
      <path d="M 270.076329 582.053389 
L 270.076329 290.586611 
" clip-path="url(#p1196cfb4f2)" style="fill: none; stroke: #b0b0b0; stroke-width: 0.8; stroke-linecap: square"/>
     </g>
     <g id="line2d_6">
      <g>
       <use xlink:href="#mab0da8bcf2" x="270.076329" y="582.053389" style="stroke: #000000; stroke-width: 0.8"/>
      </g>
     </g>
     <g id="text_3">
      <!-- −48.20 -->
      <g transform="translate(258.943264 620.594771) rotate(-45) scale(0.1 -0.1)">
       <use xlink:href="#DejaVuSans-2212"/>
       <use xlink:href="#DejaVuSans-34" transform="translate(83.789062 0)"/>
       <use xlink:href="#DejaVuSans-38" transform="translate(147.412109 0)"/>
       <use xlink:href="#DejaVuSans-2e" transform="translate(211.035156 0)"/>
       <use xlink:href="#DejaVuSans-32" transform="translate(242.822266 0)"/>
       <use xlink:href="#DejaVuSans-30" transform="translate(306.445312 0)"/>
      </g>
     </g>
    </g>
    <g id="xtick_4">
     <g id="line2d_7">
      <path d="M 355.241204 582.053389 
L 355.241204 290.586611 
" clip-path="url(#p1196cfb4f2)" style="fill: none; stroke: #b0b0b0; stroke-width: 0.8; stroke-linecap: square"/>
     </g>
     <g id="line2d_8">
      <g>
       <use xlink:href="#mab0da8bcf2" x="355.241204" y="582.053389" style="stroke: #000000; stroke-width: 0.8"/>
      </g>
     </g>
     <g id="text_4">
      <!-- −48.15 -->
      <g transform="translate(344.10814 620.594771) rotate(-45) scale(0.1 -0.1)">
       <defs>
        <path id="DejaVuSans-31" d="M 794 531 
L 1825 531 
L 1825 4091 
L 703 3866 
L 703 4441 
L 1819 4666 
L 2450 4666 
L 2450 531 
L 3481 531 
L 3481 0 
L 794 0 
L 794 531 
z
" transform="scale(0.015625)"/>
       </defs>
       <use xlink:href="#DejaVuSans-2212"/>
       <use xlink:href="#DejaVuSans-34" transform="translate(83.789062 0)"/>
       <use xlink:href="#DejaVuSans-38" transform="translate(147.412109 0)"/>
       <use xlink:href="#DejaVuSans-2e" transform="translate(211.035156 0)"/>
       <use xlink:href="#DejaVuSans-31" transform="translate(242.822266 0)"/>
       <use xlink:href="#DejaVuSans-35" transform="translate(306.445312 0)"/>
      </g>
     </g>
    </g>
    <g id="xtick_5">
     <g id="line2d_9">
      <path d="M 440.40608 582.053389 
L 440.40608 290.586611 
" clip-path="url(#p1196cfb4f2)" style="fill: none; stroke: #b0b0b0; stroke-width: 0.8; stroke-linecap: square"/>
     </g>
     <g id="line2d_10">
      <g>
       <use xlink:href="#mab0da8bcf2" x="440.40608" y="582.053389" style="stroke: #000000; stroke-width: 0.8"/>
      </g>
     </g>
     <g id="text_5">
      <!-- −48.10 -->
      <g transform="translate(429.273015 620.594771) rotate(-45) scale(0.1 -0.1)">
       <use xlink:href="#DejaVuSans-2212"/>
       <use xlink:href="#DejaVuSans-34" transform="translate(83.789062 0)"/>
       <use xlink:href="#DejaVuSans-38" transform="translate(147.412109 0)"/>
       <use xlink:href="#DejaVuSans-2e" transform="translate(211.035156 0)"/>
       <use xlink:href="#DejaVuSans-31" transform="translate(242.822266 0)"/>
       <use xlink:href="#DejaVuSans-30" transform="translate(306.445312 0)"/>
      </g>
     </g>
    </g>
    <g id="xtick_6">
     <g id="line2d_11">
      <path d="M 525.570956 582.053389 
L 525.570956 290.586611 
" clip-path="url(#p1196cfb4f2)" style="fill: none; stroke: #b0b0b0; stroke-width: 0.8; stroke-linecap: square"/>
     </g>
     <g id="line2d_12">
      <g>
       <use xlink:href="#mab0da8bcf2" x="525.570956" y="582.053389" style="stroke: #000000; stroke-width: 0.8"/>
      </g>
     </g>
     <g id="text_6">
      <!-- −48.05 -->
      <g transform="translate(514.437891 620.594771) rotate(-45) scale(0.1 -0.1)">
       <use xlink:href="#DejaVuSans-2212"/>
       <use xlink:href="#DejaVuSans-34" transform="translate(83.789062 0)"/>
       <use xlink:href="#DejaVuSans-38" transform="translate(147.412109 0)"/>
       <use xlink:href="#DejaVuSans-2e" transform="translate(211.035156 0)"/>
       <use xlink:href="#DejaVuSans-30" transform="translate(242.822266 0)"/>
       <use xlink:href="#DejaVuSans-35" transform="translate(306.445312 0)"/>
      </g>
     </g>
    </g>
    <g id="xtick_7">
     <g id="line2d_13">
      <path d="M 610.735832 582.053389 
L 610.735832 290.586611 
" clip-path="url(#p1196cfb4f2)" style="fill: none; stroke: #b0b0b0; stroke-width: 0.8; stroke-linecap: square"/>
     </g>
     <g id="line2d_14">
      <g>
       <use xlink:href="#mab0da8bcf2" x="610.735832" y="582.053389" style="stroke: #000000; stroke-width: 0.8"/>
      </g>
     </g>
     <g id="text_7">
      <!-- −48.00 -->
      <g transform="translate(599.602767 620.594771) rotate(-45) scale(0.1 -0.1)">
       <use xlink:href="#DejaVuSans-2212"/>
       <use xlink:href="#DejaVuSans-34" transform="translate(83.789062 0)"/>
       <use xlink:href="#DejaVuSans-38" transform="translate(147.412109 0)"/>
       <use xlink:href="#DejaVuSans-2e" transform="translate(211.035156 0)"/>
       <use xlink:href="#DejaVuSans-30" transform="translate(242.822266 0)"/>
       <use xlink:href="#DejaVuSans-30" transform="translate(306.445312 0)"/>
      </g>
     </g>
    </g>
    <g id="text_8">
     <!-- Longitude (°) -->
     <g transform="translate(336.139844 633.66377) scale(0.1 -0.1)">
      <defs>
       <path id="DejaVuSans-4c" d="M 628 4666 
L 1259 4666 
L 1259 531 
L 3531 531 
L 3531 0 
L 628 0 
L 628 4666 
z
" transform="scale(0.015625)"/>
       <path id="DejaVuSans-6f" d="M 1959 3097 
Q 1497 3097 1228 2736 
Q 959 2375 959 1747 
Q 959 1119 1226 758 
Q 1494 397 1959 397 
Q 2419 397 2687 759 
Q 2956 1122 2956 1747 
Q 2956 2369 2687 2733 
Q 2419 3097 1959 3097 
z
M 1959 3584 
Q 2709 3584 3137 3096 
Q 3566 2609 3566 1747 
Q 3566 888 3137 398 
Q 2709 -91 1959 -91 
Q 1206 -91 779 398 
Q 353 888 353 1747 
Q 353 2609 779 3096 
Q 1206 3584 1959 3584 
z
" transform="scale(0.015625)"/>
       <path id="DejaVuSans-6e" d="M 3513 2113 
L 3513 0 
L 2938 0 
L 2938 2094 
Q 2938 2591 2744 2837 
Q 2550 3084 2163 3084 
Q 1697 3084 1428 2787 
Q 1159 2491 1159 1978 
L 1159 0 
L 581 0 
L 581 3500 
L 1159 3500 
L 1159 2956 
Q 1366 3272 1645 3428 
Q 1925 3584 2291 3584 
Q 2894 3584 3203 3211 
Q 3513 2838 3513 2113 
z
" transform="scale(0.015625)"/>
       <path id="DejaVuSans-67" d="M 2906 1791 
Q 2906 2416 2648 2759 
Q 2391 3103 1925 3103 
Q 1463 3103 1205 2759 
Q 947 2416 947 1791 
Q 947 1169 1205 825 
Q 1463 481 1925 481 
Q 2391 481 2648 825 
Q 2906 1169 2906 1791 
z
M 3481 434 
Q 3481 -459 3084 -895 
Q 2688 -1331 1869 -1331 
Q 1566 -1331 1297 -1286 
Q 1028 -1241 775 -1147 
L 775 -588 
Q 1028 -725 1275 -790 
Q 1522 -856 1778 -856 
Q 2344 -856 2625 -561 
Q 2906 -266 2906 331 
L 2906 616 
Q 2728 306 2450 153 
Q 2172 0 1784 0 
Q 1141 0 747 490 
Q 353 981 353 1791 
Q 353 2603 747 3093 
Q 1141 3584 1784 3584 
Q 2172 3584 2450 3431 
Q 2728 3278 2906 2969 
L 2906 3500 
L 3481 3500 
L 3481 434 
z
" transform="scale(0.015625)"/>
       <path id="DejaVuSans-69" d="M 603 3500 
L 1178 3500 
L 1178 0 
L 603 0 
L 603 3500 
z
M 603 4863 
L 1178 4863 
L 1178 4134 
L 603 4134 
L 603 4863 
z
" transform="scale(0.015625)"/>
       <path id="DejaVuSans-74" d="M 1172 4494 
L 1172 3500 
L 2356 3500 
L 2356 3053 
L 1172 3053 
L 1172 1153 
Q 1172 725 1289 603 
Q 1406 481 1766 481 
L 2356 481 
L 2356 0 
L 1766 0 
Q 1100 0 847 248 
Q 594 497 594 1153 
L 594 3053 
L 172 3053 
L 172 3500 
L 594 3500 
L 594 4494 
L 1172 4494 
z
" transform="scale(0.015625)"/>
       <path id="DejaVuSans-75" d="M 544 1381 
L 544 3500 
L 1119 3500 
L 1119 1403 
Q 1119 906 1312 657 
Q 1506 409 1894 409 
Q 2359 409 2629 706 
Q 2900 1003 2900 1516 
L 2900 3500 
L 3475 3500 
L 3475 0 
L 2900 0 
L 2900 538 
Q 2691 219 2414 64 
Q 2138 -91 1772 -91 
Q 1169 -91 856 284 
Q 544 659 544 1381 
z
M 1991 3584 
L 1991 3584 
z
" transform="scale(0.015625)"/>
       <path id="DejaVuSans-64" d="M 2906 2969 
L 2906 4863 
L 3481 4863 
L 3481 0 
L 2906 0 
L 2906 525 
Q 2725 213 2448 61 
Q 2172 -91 1784 -91 
Q 1150 -91 751 415 
Q 353 922 353 1747 
Q 353 2572 751 3078 
Q 1150 3584 1784 3584 
Q 2172 3584 2448 3432 
Q 2725 3281 2906 2969 
z
M 947 1747 
Q 947 1113 1208 752 
Q 1469 391 1925 391 
Q 2381 391 2643 752 
Q 2906 1113 2906 1747 
Q 2906 2381 2643 2742 
Q 2381 3103 1925 3103 
Q 1469 3103 1208 2742 
Q 947 2381 947 1747 
z
" transform="scale(0.015625)"/>
       <path id="DejaVuSans-65" d="M 3597 1894 
L 3597 1613 
L 953 1613 
Q 991 1019 1311 708 
Q 1631 397 2203 397 
Q 2534 397 2845 478 
Q 3156 559 3463 722 
L 3463 178 
Q 3153 47 2828 -22 
Q 2503 -91 2169 -91 
Q 1331 -91 842 396 
Q 353 884 353 1716 
Q 353 2575 817 3079 
Q 1281 3584 2069 3584 
Q 2775 3584 3186 3129 
Q 3597 2675 3597 1894 
z
M 3022 2063 
Q 3016 2534 2758 2815 
Q 2500 3097 2075 3097 
Q 1594 3097 1305 2825 
Q 1016 2553 972 2059 
L 3022 2063 
z
" transform="scale(0.015625)"/>
       <path id="DejaVuSans-20" transform="scale(0.015625)"/>
       <path id="DejaVuSans-28" d="M 1984 4856 
Q 1566 4138 1362 3434 
Q 1159 2731 1159 2009 
Q 1159 1288 1364 580 
Q 1569 -128 1984 -844 
L 1484 -844 
Q 1016 -109 783 600 
Q 550 1309 550 2009 
Q 550 2706 781 3412 
Q 1013 4119 1484 4856 
L 1984 4856 
z
" transform="scale(0.015625)"/>
       <path id="DejaVuSans-b0" d="M 1600 4347 
Q 1350 4347 1178 4173 
Q 1006 4000 1006 3750 
Q 1006 3503 1178 3333 
Q 1350 3163 1600 3163 
Q 1850 3163 2022 3333 
Q 2194 3503 2194 3750 
Q 2194 3997 2020 4172 
Q 1847 4347 1600 4347 
z
M 1600 4750 
Q 1800 4750 1984 4673 
Q 2169 4597 2303 4453 
Q 2447 4313 2519 4134 
Q 2591 3956 2591 3750 
Q 2591 3338 2302 3052 
Q 2013 2766 1594 2766 
Q 1172 2766 890 3047 
Q 609 3328 609 3750 
Q 609 4169 896 4459 
Q 1184 4750 1600 4750 
z
" transform="scale(0.015625)"/>
       <path id="DejaVuSans-29" d="M 513 4856 
L 1013 4856 
Q 1481 4119 1714 3412 
Q 1947 2706 1947 2009 
Q 1947 1309 1714 600 
Q 1481 -109 1013 -844 
L 513 -844 
Q 928 -128 1133 580 
Q 1338 1288 1338 2009 
Q 1338 2731 1133 3434 
Q 928 4138 513 4856 
z
" transform="scale(0.015625)"/>
      </defs>
      <use xlink:href="#DejaVuSans-4c"/>
      <use xlink:href="#DejaVuSans-6f" transform="translate(53.962891 0)"/>
      <use xlink:href="#DejaVuSans-6e" transform="translate(115.144531 0)"/>
      <use xlink:href="#DejaVuSans-67" transform="translate(178.523438 0)"/>
      <use xlink:href="#DejaVuSans-69" transform="translate(242 0)"/>
      <use xlink:href="#DejaVuSans-74" transform="translate(269.783203 0)"/>
      <use xlink:href="#DejaVuSans-75" transform="translate(308.992188 0)"/>
      <use xlink:href="#DejaVuSans-64" transform="translate(372.371094 0)"/>
      <use xlink:href="#DejaVuSans-65" transform="translate(435.847656 0)"/>
      <use xlink:href="#DejaVuSans-20" transform="translate(497.371094 0)"/>
      <use xlink:href="#DejaVuSans-28" transform="translate(529.158203 0)"/>
      <use xlink:href="#DejaVuSans-b0" transform="translate(568.171875 0)"/>
      <use xlink:href="#DejaVuSans-29" transform="translate(618.171875 0)"/>
     </g>
    </g>
   </g>
   <g id="matplotlib.axis_2">
    <g id="ytick_1">
     <g id="line2d_15">
      <path d="M 90 567.560697 
L 648 567.560697 
" clip-path="url(#p1196cfb4f2)" style="fill: none; stroke: #b0b0b0; stroke-width: 0.8; stroke-linecap: square"/>
     </g>
     <g id="line2d_16">
      <defs>
       <path id="mfe6d8fc378" d="M 0 0 
L -3.5 0 
" style="stroke: #000000; stroke-width: 0.8"/>
      </defs>
      <g>
       <use xlink:href="#mfe6d8fc378" x="90" y="567.560697" style="stroke: #000000; stroke-width: 0.8"/>
      </g>
     </g>
     <g id="text_9">
      <!-- −9.86 -->
      <g transform="translate(52.354687 571.359916) scale(0.1 -0.1)">
       <defs>
        <path id="DejaVuSans-39" d="M 703 97 
L 703 672 
Q 941 559 1184 500 
Q 1428 441 1663 441 
Q 2288 441 2617 861 
Q 2947 1281 2994 2138 
Q 2813 1869 2534 1725 
Q 2256 1581 1919 1581 
Q 1219 1581 811 2004 
Q 403 2428 403 3163 
Q 403 3881 828 4315 
Q 1253 4750 1959 4750 
Q 2769 4750 3195 4129 
Q 3622 3509 3622 2328 
Q 3622 1225 3098 567 
Q 2575 -91 1691 -91 
Q 1453 -91 1209 -44 
Q 966 3 703 97 
z
M 1959 2075 
Q 2384 2075 2632 2365 
Q 2881 2656 2881 3163 
Q 2881 3666 2632 3958 
Q 2384 4250 1959 4250 
Q 1534 4250 1286 3958 
Q 1038 3666 1038 3163 
Q 1038 2656 1286 2365 
Q 1534 2075 1959 2075 
z
" transform="scale(0.015625)"/>
        <path id="DejaVuSans-36" d="M 2113 2584 
Q 1688 2584 1439 2293 
Q 1191 2003 1191 1497 
Q 1191 994 1439 701 
Q 1688 409 2113 409 
Q 2538 409 2786 701 
Q 3034 994 3034 1497 
Q 3034 2003 2786 2293 
Q 2538 2584 2113 2584 
z
M 3366 4563 
L 3366 3988 
Q 3128 4100 2886 4159 
Q 2644 4219 2406 4219 
Q 1781 4219 1451 3797 
Q 1122 3375 1075 2522 
Q 1259 2794 1537 2939 
Q 1816 3084 2150 3084 
Q 2853 3084 3261 2657 
Q 3669 2231 3669 1497 
Q 3669 778 3244 343 
Q 2819 -91 2113 -91 
Q 1303 -91 875 529 
Q 447 1150 447 2328 
Q 447 3434 972 4092 
Q 1497 4750 2381 4750 
Q 2619 4750 2861 4703 
Q 3103 4656 3366 4563 
z
" transform="scale(0.015625)"/>
       </defs>
       <use xlink:href="#DejaVuSans-2212"/>
       <use xlink:href="#DejaVuSans-39" transform="translate(83.789062 0)"/>
       <use xlink:href="#DejaVuSans-2e" transform="translate(147.412109 0)"/>
       <use xlink:href="#DejaVuSans-38" transform="translate(179.199219 0)"/>
       <use xlink:href="#DejaVuSans-36" transform="translate(242.822266 0)"/>
      </g>
     </g>
    </g>
    <g id="ytick_2">
     <g id="line2d_17">
      <path d="M 90 532.993702 
L 648 532.993702 
" clip-path="url(#p1196cfb4f2)" style="fill: none; stroke: #b0b0b0; stroke-width: 0.8; stroke-linecap: square"/>
     </g>
     <g id="line2d_18">
      <g>
       <use xlink:href="#mfe6d8fc378" x="90" y="532.993702" style="stroke: #000000; stroke-width: 0.8"/>
      </g>
     </g>
     <g id="text_10">
      <!-- −9.84 -->
      <g transform="translate(52.354687 536.792921) scale(0.1 -0.1)">
       <use xlink:href="#DejaVuSans-2212"/>
       <use xlink:href="#DejaVuSans-39" transform="translate(83.789062 0)"/>
       <use xlink:href="#DejaVuSans-2e" transform="translate(147.412109 0)"/>
       <use xlink:href="#DejaVuSans-38" transform="translate(179.199219 0)"/>
       <use xlink:href="#DejaVuSans-34" transform="translate(242.822266 0)"/>
      </g>
     </g>
    </g>
    <g id="ytick_3">
     <g id="line2d_19">
      <path d="M 90 498.426707 
L 648 498.426707 
" clip-path="url(#p1196cfb4f2)" style="fill: none; stroke: #b0b0b0; stroke-width: 0.8; stroke-linecap: square"/>
     </g>
     <g id="line2d_20">
      <g>
       <use xlink:href="#mfe6d8fc378" x="90" y="498.426707" style="stroke: #000000; stroke-width: 0.8"/>
      </g>
     </g>
     <g id="text_11">
      <!-- −9.82 -->
      <g transform="translate(52.354687 502.225926) scale(0.1 -0.1)">
       <use xlink:href="#DejaVuSans-2212"/>
       <use xlink:href="#DejaVuSans-39" transform="translate(83.789062 0)"/>
       <use xlink:href="#DejaVuSans-2e" transform="translate(147.412109 0)"/>
       <use xlink:href="#DejaVuSans-38" transform="translate(179.199219 0)"/>
       <use xlink:href="#DejaVuSans-32" transform="translate(242.822266 0)"/>
      </g>
     </g>
    </g>
    <g id="ytick_4">
     <g id="line2d_21">
      <path d="M 90 463.859713 
L 648 463.859713 
" clip-path="url(#p1196cfb4f2)" style="fill: none; stroke: #b0b0b0; stroke-width: 0.8; stroke-linecap: square"/>
     </g>
     <g id="line2d_22">
      <g>
       <use xlink:href="#mfe6d8fc378" x="90" y="463.859713" style="stroke: #000000; stroke-width: 0.8"/>
      </g>
     </g>
     <g id="text_12">
      <!-- −9.80 -->
      <g transform="translate(52.354687 467.658932) scale(0.1 -0.1)">
       <use xlink:href="#DejaVuSans-2212"/>
       <use xlink:href="#DejaVuSans-39" transform="translate(83.789062 0)"/>
       <use xlink:href="#DejaVuSans-2e" transform="translate(147.412109 0)"/>
       <use xlink:href="#DejaVuSans-38" transform="translate(179.199219 0)"/>
       <use xlink:href="#DejaVuSans-30" transform="translate(242.822266 0)"/>
      </g>
     </g>
    </g>
    <g id="ytick_5">
     <g id="line2d_23">
      <path d="M 90 429.292718 
L 648 429.292718 
" clip-path="url(#p1196cfb4f2)" style="fill: none; stroke: #b0b0b0; stroke-width: 0.8; stroke-linecap: square"/>
     </g>
     <g id="line2d_24">
      <g>
       <use xlink:href="#mfe6d8fc378" x="90" y="429.292718" style="stroke: #000000; stroke-width: 0.8"/>
      </g>
     </g>
     <g id="text_13">
      <!-- −9.78 -->
      <g transform="translate(52.354687 433.091937) scale(0.1 -0.1)">
       <defs>
        <path id="DejaVuSans-37" d="M 525 4666 
L 3525 4666 
L 3525 4397 
L 1831 0 
L 1172 0 
L 2766 4134 
L 525 4134 
L 525 4666 
z
" transform="scale(0.015625)"/>
       </defs>
       <use xlink:href="#DejaVuSans-2212"/>
       <use xlink:href="#DejaVuSans-39" transform="translate(83.789062 0)"/>
       <use xlink:href="#DejaVuSans-2e" transform="translate(147.412109 0)"/>
       <use xlink:href="#DejaVuSans-37" transform="translate(179.199219 0)"/>
       <use xlink:href="#DejaVuSans-38" transform="translate(242.822266 0)"/>
      </g>
     </g>
    </g>
    <g id="ytick_6">
     <g id="line2d_25">
      <path d="M 90 394.725723 
L 648 394.725723 
" clip-path="url(#p1196cfb4f2)" style="fill: none; stroke: #b0b0b0; stroke-width: 0.8; stroke-linecap: square"/>
     </g>
     <g id="line2d_26">
      <g>
       <use xlink:href="#mfe6d8fc378" x="90" y="394.725723" style="stroke: #000000; stroke-width: 0.8"/>
      </g>
     </g>
     <g id="text_14">
      <!-- −9.76 -->
      <g transform="translate(52.354687 398.524942) scale(0.1 -0.1)">
       <use xlink:href="#DejaVuSans-2212"/>
       <use xlink:href="#DejaVuSans-39" transform="translate(83.789062 0)"/>
       <use xlink:href="#DejaVuSans-2e" transform="translate(147.412109 0)"/>
       <use xlink:href="#DejaVuSans-37" transform="translate(179.199219 0)"/>
       <use xlink:href="#DejaVuSans-36" transform="translate(242.822266 0)"/>
      </g>
     </g>
    </g>
    <g id="ytick_7">
     <g id="line2d_27">
      <path d="M 90 360.158729 
L 648 360.158729 
" clip-path="url(#p1196cfb4f2)" style="fill: none; stroke: #b0b0b0; stroke-width: 0.8; stroke-linecap: square"/>
     </g>
     <g id="line2d_28">
      <g>
       <use xlink:href="#mfe6d8fc378" x="90" y="360.158729" style="stroke: #000000; stroke-width: 0.8"/>
      </g>
     </g>
     <g id="text_15">
      <!-- −9.74 -->
      <g transform="translate(52.354687 363.957948) scale(0.1 -0.1)">
       <use xlink:href="#DejaVuSans-2212"/>
       <use xlink:href="#DejaVuSans-39" transform="translate(83.789062 0)"/>
       <use xlink:href="#DejaVuSans-2e" transform="translate(147.412109 0)"/>
       <use xlink:href="#DejaVuSans-37" transform="translate(179.199219 0)"/>
       <use xlink:href="#DejaVuSans-34" transform="translate(242.822266 0)"/>
      </g>
     </g>
    </g>
    <g id="ytick_8">
     <g id="line2d_29">
      <path d="M 90 325.591734 
L 648 325.591734 
" clip-path="url(#p1196cfb4f2)" style="fill: none; stroke: #b0b0b0; stroke-width: 0.8; stroke-linecap: square"/>
     </g>
     <g id="line2d_30">
      <g>
       <use xlink:href="#mfe6d8fc378" x="90" y="325.591734" style="stroke: #000000; stroke-width: 0.8"/>
      </g>
     </g>
     <g id="text_16">
      <!-- −9.72 -->
      <g transform="translate(52.354687 329.390953) scale(0.1 -0.1)">
       <use xlink:href="#DejaVuSans-2212"/>
       <use xlink:href="#DejaVuSans-39" transform="translate(83.789062 0)"/>
       <use xlink:href="#DejaVuSans-2e" transform="translate(147.412109 0)"/>
       <use xlink:href="#DejaVuSans-37" transform="translate(179.199219 0)"/>
       <use xlink:href="#DejaVuSans-32" transform="translate(242.822266 0)"/>
      </g>
     </g>
    </g>
    <g id="ytick_9">
     <g id="line2d_31">
      <path d="M 90 291.02474 
L 648 291.02474 
" clip-path="url(#p1196cfb4f2)" style="fill: none; stroke: #b0b0b0; stroke-width: 0.8; stroke-linecap: square"/>
     </g>
     <g id="line2d_32">
      <g>
       <use xlink:href="#mfe6d8fc378" x="90" y="291.02474" style="stroke: #000000; stroke-width: 0.8"/>
      </g>
     </g>
     <g id="text_17">
      <!-- −9.70 -->
      <g transform="translate(52.354687 294.823958) scale(0.1 -0.1)">
       <use xlink:href="#DejaVuSans-2212"/>
       <use xlink:href="#DejaVuSans-39" transform="translate(83.789062 0)"/>
       <use xlink:href="#DejaVuSans-2e" transform="translate(147.412109 0)"/>
       <use xlink:href="#DejaVuSans-37" transform="translate(179.199219 0)"/>
       <use xlink:href="#DejaVuSans-30" transform="translate(242.822266 0)"/>
      </g>
     </g>
    </g>
    <g id="text_18">
     <!-- Latitude (°) -->
     <g transform="translate(46.275 464.889531) rotate(-90) scale(0.1 -0.1)">
      <defs>
       <path id="DejaVuSans-61" d="M 2194 1759 
Q 1497 1759 1228 1600 
Q 959 1441 959 1056 
Q 959 750 1161 570 
Q 1363 391 1709 391 
Q 2188 391 2477 730 
Q 2766 1069 2766 1631 
L 2766 1759 
L 2194 1759 
z
M 3341 1997 
L 3341 0 
L 2766 0 
L 2766 531 
Q 2569 213 2275 61 
Q 1981 -91 1556 -91 
Q 1019 -91 701 211 
Q 384 513 384 1019 
Q 384 1609 779 1909 
Q 1175 2209 1959 2209 
L 2766 2209 
L 2766 2266 
Q 2766 2663 2505 2880 
Q 2244 3097 1772 3097 
Q 1472 3097 1187 3025 
Q 903 2953 641 2809 
L 641 3341 
Q 956 3463 1253 3523 
Q 1550 3584 1831 3584 
Q 2591 3584 2966 3190 
Q 3341 2797 3341 1997 
z
" transform="scale(0.015625)"/>
      </defs>
      <use xlink:href="#DejaVuSans-4c"/>
      <use xlink:href="#DejaVuSans-61" transform="translate(55.712891 0)"/>
      <use xlink:href="#DejaVuSans-74" transform="translate(116.992188 0)"/>
      <use xlink:href="#DejaVuSans-69" transform="translate(156.201172 0)"/>
      <use xlink:href="#DejaVuSans-74" transform="translate(183.984375 0)"/>
      <use xlink:href="#DejaVuSans-75" transform="translate(223.193359 0)"/>
      <use xlink:href="#DejaVuSans-64" transform="translate(286.572266 0)"/>
      <use xlink:href="#DejaVuSans-65" transform="translate(350.048828 0)"/>
      <use xlink:href="#DejaVuSans-20" transform="translate(411.572266 0)"/>
      <use xlink:href="#DejaVuSans-28" transform="translate(443.359375 0)"/>
      <use xlink:href="#DejaVuSans-b0" transform="translate(482.373047 0)"/>
      <use xlink:href="#DejaVuSans-29" transform="translate(532.373047 0)"/>
     </g>
    </g>
   </g>
   <g id="patch_3">
    <path d="M 90 582.053389 
L 90 290.586611 
" style="fill: none; stroke: #000000; stroke-width: 0.8; stroke-linejoin: miter; stroke-linecap: square"/>
   </g>
   <g id="patch_4">
    <path d="M 648 582.053389 
L 648 290.586611 
" style="fill: none; stroke: #000000; stroke-width: 0.8; stroke-linejoin: miter; stroke-linecap: square"/>
   </g>
   <g id="patch_5">
    <path d="M 90 582.053389 
L 648 582.053389 
" style="fill: none; stroke: #000000; stroke-width: 0.8; stroke-linejoin: miter; stroke-linecap: square"/>
   </g>
   <g id="patch_6">
    <path d="M 90 290.586611 
L 648 290.586611 
" style="fill: none; stroke: #000000; stroke-width: 0.8; stroke-linejoin: miter; stroke-linecap: square"/>
   </g>
  </g>
 </g>
 <defs>
  <clipPath id="p1196cfb4f2">
   <rect x="90" y="290.586611" width="558" height="291.466779"/>
  </clipPath>
 </defs>
</svg>
