<?xml version="1.0" encoding="utf-8" standalone="no"?>
<!DOCTYPE svg PUBLIC "-//W3C//DTD SVG 1.1//EN"
  "http://www.w3.org/Graphics/SVG/1.1/DTD/svg11.dtd">
<svg xmlns:xlink="http://www.w3.org/1999/xlink" width="720pt" height="864pt" viewBox="0 0 720 864" xmlns="http://www.w3.org/2000/svg" version="1.1">
 <metadata>
  <rdf:RDF xmlns:dc="http://purl.org/dc/elements/1.1/" xmlns:cc="http://creativecommons.org/ns#" xmlns:rdf="http://www.w3.org/1999/02/22-rdf-syntax-ns#">
   <cc:Work>
    <dc:type rdf:resource="http://purl.org/dc/dcmitype/StillImage"/>
    <dc:date>2025-06-16T17:36:51.707844</dc:date>
    <dc:format>image/svg+xml</dc:format>
    <dc:creator>
     <cc:Agent>
      <dc:title>Matplotlib v3.10.1, https://matplotlib.org/</dc:title>
     </cc:Agent>
    </dc:creator>
   </cc:Work>
  </rdf:RDF>
 </metadata>
 <defs>
  <style type="text/css">*{stroke-linejoin: round; stroke-linecap: butt}</style>
 </defs>
 <g id="figure_1">
  <g id="patch_1">
   <path d="M 0 864 
L 720 864 
L 720 0 
L 0 0 
z
" style="fill: #ffffff"/>
  </g>
  <g id="axes_1">
   <g id="patch_2">
    <path d="M 90 755.893196 
L 648 755.893196 
L 648 116.746804 
L 90 116.746804 
z
" style="fill: #ffffff"/>
   </g>
   <g id="PatchCollection_1">
    <path d="M 586.312845 392.971984 
L 587.05687 394.331292 
L 588.905088 395.458924 
L 588.985842 396.671655 
L 589.986346 398.515699 
L 590.522564 399.332114 
L 591.312567 398.533353 
L 591.684577 398.873958 
L 591.272293 399.837102 
L 592.38521 402.397769 
L 593.033944 403.070204 
L 593.861418 403.989266 
L 593.84699 405.08455 
L 594.91382 406.056574 
L 596.130535 405.519133 
L 596.222811 406.869924 
L 597.335727 409.662524 
L 596.012309 410.376081 
L 596.439021 411.262901 
L 597.71054 411.87952 
L 597.122423 413.456429 
L 598.307375 414.316821 
L 598.246861 414.557528 
L 596.289137 414.208149 
L 595.899897 414.719056 
L 595.069517 416.419226 
L 595.995079 416.953706 
L 594.089149 417.561552 
L 594.181425 418.662756 
L 593.924838 421.819428 
L 593.313575 423.948367 
L 593.134835 425.757208 
L 593.691294 426.949431 
L 592.809015 429.322036 
L 592.076724 430.443748 
L 591.214582 430.916493 
L 590.358253 432.361262 
L 588.856096 434.211226 
L 588.801291 436.428222 
L 591.407749 439.717035 
L 589.349134 441.408431 
L 587.821027 440.689059 
L 587.030921 441.649243 
L 587.985338 443.308396 
L 589.291422 444.033688 
L 591.583686 443.507981 
L 591.673055 446.397519 
L 591.892172 450.875594 
L 593.25877 450.517335 
L 594.570666 448.981548 
L 594.965719 451.145688 
L 593.619258 452.666782 
L 595.115603 454.79276 
L 594.106484 456.716194 
L 595.323198 457.470873 
L 594.328506 458.953804 
L 591.687483 459.62328 
L 590.473572 460.333877 
L 590.761921 461.006313 
L 594.017114 461.816808 
L 594.455347 462.633118 
L 595.516365 463.649118 
L 594.599522 464.295125 
L 594.443825 465.475614 
L 595.692302 466.843953 
L 596.885973 466.626714 
L 596.07573 467.801282 
L 595.193451 468.964117 
L 594.097868 467.739652 
L 592.001678 467.654448 
L 591.566352 468.57647 
L 592.437109 470.570308 
L 592.846486 471.765491 
L 593.094458 473.54209 
L 591.243438 472.813839 
L 590.332303 472.637616 
L 589.484589 473.492088 
L 589.571156 474.842879 
L 588.815718 476.38448 
L 589.654713 477.089263 
L 591.831554 476.666415 
L 592.440015 475.955817 
L 593.426091 475.732659 
L 593.198256 477.673641 
L 593.959403 478.378424 
L 595.415474 478.707295 
L 596.000788 480.278284 
L 596.975342 479.928799 
L 597.583699 478.939227 
L 598.457363 479.464828 
L 597.970034 480.654091 
L 594.997377 482.653849 
L 593.933453 484.641873 
L 594.380405 485.396447 
L 595.444329 485.669607 
L 595.040661 486.779585 
L 595.594213 488.33292 
L 595.101175 489.622081 
L 595.403952 490.846546 
L 596.583195 490.388494 
L 598.520783 489.472287 
L 599.855722 487.378551 
L 599.085857 485.822255 
L 600.397753 486.112964 
L 602.049897 486.347856 
L 601.493439 488.353534 
L 602.583313 488.882095 
L 603.629903 488.33884 
L 604.664971 487.795585 
L 606.605465 486.753157 
L 607.484837 486.224596 
L 607.614584 487.211208 
L 607.040792 487.349268 
L 606.723691 488.465061 
L 605.530019 488.670671 
L 606.720784 489.669017 
L 607.280149 491.906628 
L 608.225848 492.919668 
L 609.823187 493.421801 
L 611.746347 493.923934 
L 613.470527 494.981056 
L 613.946231 496.399397 
L 612.934205 498.613433 
L 611.273446 499.899634 
L 607.776093 500.918594 
L 607.654962 502.363257 
L 608.770784 503.793332 
L 612.09521 504.298425 
L 614.620914 504.045879 
L 618.072181 503.276505 
L 619.522439 504.318933 
L 619.28028 506.635828 
L 618.72953 510.050967 
L 615.474337 511.290125 
L 613.597367 515.260148 
L 613.807869 517.524186 
L 615.679026 518.064481 
L 617.192808 517.33623 
L 619.51673 515.959117 
L 621.206242 513.862421 
L 622.624842 515.063417 
L 622.636364 518.387538 
L 620.537371 519.855775 
L 618.533457 521.876041 
L 616.226869 522.844999 
L 613.706874 522.316438 
L 611.945223 522.874387 
L 610.345081 524.122425 
L 608.998516 526.465642 
L 609.25801 527.986736 
L 609.21483 529.863127 
L 608.142187 530.520974 
L 606.712169 530.591379 
L 604.886994 528.46244 
L 603.125343 527.746029 
L 600.844705 527.725415 
L 599.244459 528.688559 
L 595.484707 528.794271 
L 593.457749 528.806005 
L 592.618754 530.127408 
L 592.696602 531.516361 
L 594.518767 533.143166 
L 596.280522 534.11519 
L 595.703823 535.113536 
L 592.970524 534.755277 
L 589.888258 533.968356 
L 588.61103 534.520385 
L 587.449017 536.167698 
L 588.455333 538.537449 
L 586.984835 540.995258 
L 585.952672 540.90128 
L 583.876723 539.703243 
L 581.137611 537.723993 
L 578.63495 537.016356 
L 577.429653 538.31429 
L 577.674823 540.437309 
L 578.456107 543.094808 
L 580.044831 545.138543 
L 581.3423 548.166035 
L 581.924707 550.75017 
L 582.368753 552.470848 
L 584.211158 554.121227 
L 587.584576 555.527728 
L 589.389511 556.396894 
L 589.813316 557.242591 
L 583.971801 558.472976 
L 580.399507 557.697788 
L 577.680532 555.495486 
L 574.018764 556.725764 
L 573.188385 558.42012 
L 573.421929 560.337634 
L 574.831914 561.441798 
L 577.230777 561.283229 
L 580.537869 561.626794 
L 583.323067 562.901155 
L 585.223184 564.877445 
L 585.1799 567.432086 
L 585.644082 569.948671 
L 583.034718 573.410746 
L 581.924707 575.240096 
L 581.37977 577.374954 
L 582.951161 578.948904 
L 582.42636 579.533175 
L 579.675727 578.960638 
L 575.725714 577.063632 
L 574.007243 577.15761 
L 572.634833 578.279322 
L 573.139392 579.923782 
L 574.278258 580.819375 
L 576.178375 581.670993 
L 577.291291 582.663525 
L 578.32636 584.821746 
L 565.273826 587.479245 
L 563.993692 576.226814 
L 562.895203 568.016463 
L 561.658249 558.728482 
L 556.716347 537.671137 
L 552.734571 533.968356 
L 531.545457 522.102159 
L 486.699132 496.728268 
L 475.495673 491.682948 
L 555.279325 407.507389 
L 573.369176 399.292598 
L 586.312845 392.971984 
" clip-path="url(#p7bdba74e35)" style="fill: #e0bd1f; stroke: #0000ff; stroke-width: 0.5"/>
    <path d="M 540.390784 373.464843 
L 543.823262 375.569167 
L 547.269206 376.587588 
L 550.429933 378.74798 
L 554.362916 378.696971 
L 557.855447 379.825706 
L 560.315708 382.556206 
L 564.036694 383.865139 
L 567.174479 386.005675 
L 570.617623 386.425344 
L 573.964034 384.340172 
L 577.372039 385.960531 
L 579.698447 389.282445 
L 583.235751 390.328593 
L 586.312845 392.971984 
L 573.369176 399.292598 
L 555.279325 407.507389 
L 475.495673 491.682948 
L 443.192406 474.036459 
L 484.240896 426.735567 
L 540.390784 373.464843 
" clip-path="url(#p7bdba74e35)" style="fill: #e0bd1f; stroke: #0000ff; stroke-width: 0.5"/>
    <path d="M 506.267864 363.260675 
L 509.883441 364.546875 
L 513.141541 365.562875 
L 517.33963 367.224883 
L 519.637602 368.437719 
L 523.913436 367.101622 
L 527.609768 367.539165 
L 532.205713 368.020684 
L 535.668501 370.73696 
L 540.390784 373.464843 
L 484.240896 426.735567 
L 443.192406 474.036459 
L 433.471264 468.661674 
L 487.172033 404.512013 
L 491.407489 369.694426 
L 494.276348 366.73163 
L 498.627227 365.225231 
L 502.562916 363.962498 
L 506.267864 363.260675 
" clip-path="url(#p7bdba74e35)" style="fill: #e0bd1f; stroke: #0000ff; stroke-width: 0.5"/>
    <path d="M 463.142916 356.932636 
L 462.984313 357.790068 
L 463.552293 358.673927 
L 464.662407 360.089308 
L 466.908481 361.325613 
L 467.730142 362.359267 
L 467.297721 363.530875 
L 467.026706 363.66883 
L 471.221785 365.242779 
L 473.851391 365.283901 
L 476.423181 364.908094 
L 477.585194 365.049008 
L 480.260885 366.0445 
L 482.085956 366.998764 
L 484.698228 368.261497 
L 488.472408 370.272989 
L 491.407489 369.694426 
L 487.172033 404.512013 
L 433.471264 468.661674 
L 415.70456 459.311957 
L 371.186961 447.11985 
L 357.583782 443.502167 
L 368.289351 363.034556 
L 375.514797 361.886416 
L 377.233164 359.610749 
L 378.591251 359.199634 
L 382.333669 358.92362 
L 382.867084 359.058614 
L 384.441381 359.237796 
L 385.75608 359.496157 
L 386.064669 358.682807 
L 386.918092 359.240756 
L 388.437584 359.193714 
L 388.518234 360.109922 
L 389.613921 360.312467 
L 389.864799 360.846948 
L 391.885944 360.879296 
L 393.304544 361.120002 
L 392.860498 361.810092 
L 393.526463 362.300491 
L 395.913805 362.802624 
L 396.969114 361.513569 
L 398.788476 360.867456 
L 402.36949 362.300491 
L 403.690001 361.302145 
L 404.240751 360.791132 
L 404.892287 361.275717 
L 404.678984 363.178536 
L 405.763044 363.451591 
L 408.421402 364.135761 
L 409.606458 365.148801 
L 410.376324 364.082904 
L 411.486334 363.260675 
L 412.158111 362.752728 
L 413.095195 363.099252 
L 412.855942 364.264941 
L 413.893916 364.317797 
L 414.778998 363.880254 
L 417.134681 363.524955 
L 417.503682 364.165149 
L 418.325446 364.00362 
L 420.095816 365.944602 
L 421.358616 366.006338 
L 421.857467 364.532181 
L 422.88392 363.096292 
L 425.236594 362.649975 
L 426.600389 364.417695 
L 428.930124 364.097598 
L 430.426468 362.417937 
L 432.049757 362.949458 
L 434.575565 363.921376 
L 435.400132 363.971378 
L 438.975436 364.144535 
L 440.267092 364.182802 
L 441.345444 362.72038 
L 443.435822 363.228433 
L 446.13165 363.692404 
L 447.506967 363.137414 
L 447.79241 364.06525 
L 449.744425 363.154963 
L 451.183162 360.770624 
L 451.730902 360.462261 
L 452.310507 359.308201 
L 453.440757 360.104002 
L 454.660378 359.017492 
L 457.341778 359.25249 
L 460.054941 358.130778 
L 460.833422 357.07651 
L 463.142916 356.932636 
" clip-path="url(#p7bdba74e35)" style="fill: #e0bd1f; stroke: #0000ff; stroke-width: 0.5"/>
    <path d="M 263.125166 291.059231 
L 265.376949 294.697529 
L 265.988212 297.428392 
L 267.634544 299.29009 
L 266.74365 301.289848 
L 267.599979 303.116344 
L 270.056554 305.13661 
L 271.48377 306.402197 
L 274.10175 309.321017 
L 277.544401 312.926966 
L 281.566553 316.600465 
L 284.807319 320.461921 
L 288.20378 324.901834 
L 289.737699 324.702144 
L 291.219719 325.762226 
L 292.874666 326.284973 
L 292.646935 327.239237 
L 295.348472 328.316973 
L 297.245682 330.80121 
L 300.673906 333.758192 
L 304.165549 336.729869 
L 304.993023 335.866517 
L 305.491873 335.898865 
L 305.465924 337.516896 
L 305.001638 338.212799 
L 305.875301 339.237574 
L 306.797957 338.180452 
L 308.314542 339.278696 
L 308.372253 340.738159 
L 309.54859 341.815789 
L 309.283284 342.429554 
L 310.168469 343.395658 
L 311.039226 343.56892 
L 311.647583 344.617163 
L 312.293411 345.515717 
L 313.21316 347.03977 
L 312.656702 347.811997 
L 315.145039 348.998405 
L 315.156561 349.365438 
L 313.518844 349.27738 
L 314.966196 349.949815 
L 314.107064 351.097956 
L 315.874424 350.951122 
L 316.015693 351.544273 
L 317.391009 352.237322 
L 317.806199 353.223934 
L 316.872022 353.767189 
L 318.78366 355.032776 
L 318.181116 356.301322 
L 318.749095 356.609685 
L 319.394923 355.719905 
L 320.225303 358.271692 
L 320.972022 356.659581 
L 322.197455 358.306895 
L 323.665048 360.012984 
L 321.857207 360.591441 
L 322.307066 361.854174 
L 323.08264 360.867456 
L 323.864028 361.337347 
L 324.036954 362.215287 
L 323.618858 362.567731 
L 324.212891 363.633628 
L 326.026441 363.950764 
L 325.567967 364.76422 
L 326.522385 365.01666 
L 326.386826 366.846116 
L 326.949097 367.844462 
L 328.765553 368.061807 
L 330.276325 370.549004 
L 330.521391 372.363659 
L 332.911639 372.096525 
L 333.655556 371.588472 
L 334.768472 372.598658 
L 335.546954 372.857018 
L 336.403283 372.416516 
L 336.143789 371.588472 
L 336.729103 371.300723 
L 338.046708 371.327151 
L 338.911757 370.093807 
L 339.482643 369.996974 
L 340.344681 371.007055 
L 339.724802 372.924568 
L 340.978987 372.674982 
L 343.049228 371.177357 
L 345.572026 370.466759 
L 347.434672 370.311151 
L 347.933419 369.685652 
L 348.68595 369.929424 
L 349.891247 369.518309 
L 350.764806 369.371475 
L 351.370361 368.76067 
L 352.365052 368.793018 
L 353.818217 367.994256 
L 356.50543 368.296699 
L 356.13342 367.198455 
L 356.614936 366.540713 
L 357.915311 366.329289 
L 357.81442 365.486551 
L 360.423785 364.796462 
L 359.838471 365.71563 
L 360.637089 366.03562 
L 361.228215 365.004926 
L 362.335319 365.419001 
L 362.407459 364.344225 
L 363.321395 364.817076 
L 364.751517 364.426469 
L 364.64772 363.762808 
L 363.86353 363.751074 
L 363.938471 363.202005 
L 364.852408 362.92303 
L 366.8967 363.560263 
L 367.280128 362.391509 
L 368.289351 363.034556 
L 357.583782 443.502167 
L 330.916444 436.366592 
L 318.495311 432.778191 
L 271.968089 420.151501 
L 258.814664 413.664894 
L 250.138959 404.097938 
L 250.409974 403.105406 
L 259.189477 291.115047 
L 263.125166 291.059231 
" clip-path="url(#p7bdba74e35)" style="fill: #e0bd1f; stroke: #0000ff; stroke-width: 0.5"/>
    <path d="M 296.432637 145.798912 
L 298.44226 146.383289 
L 301.429344 147.810404 
L 300.841123 150.470864 
L 303.139096 149.175889 
L 304.220354 149.402007 
L 304.021374 151.554414 
L 306.872899 151.483904 
L 310.041628 153.216421 
L 311.310241 150.438516 
L 314.966196 153.228155 
L 316.263665 151.477984 
L 317.783156 153.069587 
L 318.599108 155.879735 
L 318.777951 159.488644 
L 321.098967 159.820475 
L 324.227319 159.979043 
L 325.614157 160.522298 
L 325.833274 163.828765 
L 328.69632 164.336712 
L 330.143776 165.731585 
L 330.071636 167.610937 
L 331.573793 168.444795 
L 334.849227 171.393003 
L 334.243776 173.172562 
L 335.944809 175.785979 
L 339.165438 175.697921 
L 340.95885 176.825448 
L 342.68303 176.561167 
L 345.955558 176.520045 
L 347.316446 177.976548 
L 350.626444 177.12789 
L 351.805687 175.859344 
L 352.886946 175.91812 
L 354.095045 178.399397 
L 355.41265 178.975 
L 357.975825 176.769632 
L 359.625063 178.281951 
L 361.153274 178.14685 
L 361.427091 181.256587 
L 361.124418 182.70717 
L 362.124922 183.629192 
L 361.075425 185.537931 
L 364.102783 186.101695 
L 364.941882 188.045637 
L 364.451646 191.87189 
L 366.882272 195.442532 
L 365.757834 197.665448 
L 368.53151 198.822468 
L 369.318606 202.387296 
L 367.2657 202.372602 
L 367.040874 204.909695 
L 369.206194 204.49858 
L 369.814551 205.44407 
L 351.329984 368.663732 
L 350.71872 369.280457 
L 349.8681 369.427291 
L 348.683148 369.829526 
L 347.90176 369.574125 
L 347.388482 370.220133 
L 345.554795 370.372781 
L 343.005944 371.089299 
L 340.941516 372.583964 
L 339.863164 372.801202 
L 340.451385 370.983586 
L 339.520114 369.894116 
L 338.856951 370.005748 
L 337.997716 371.230213 
L 336.708966 371.203785 
L 336.02847 371.538576 
L 336.29087 372.369579 
L 335.538338 372.754266 
L 334.817465 372.513454 
L 333.664171 371.468066 
L 332.877075 372.005506 
L 330.602145 372.260907 
L 330.365695 370.516656 
L 328.820358 367.973748 
L 327.009611 367.756404 
L 326.484914 366.825608 
L 326.623276 364.946256 
L 325.712142 364.702484 
L 326.176324 363.880254 
L 324.273405 363.545569 
L 323.73999 362.588239 
L 324.140752 362.253555 
L 323.950491 361.275717 
L 323.059597 360.741236 
L 322.338724 361.660298 
L 321.978339 360.653177 
L 323.832266 360.060026 
L 322.269491 358.248224 
L 320.951886 356.474585 
L 320.239731 358.013226 
L 319.426685 355.511441 
L 318.723146 356.486319 
L 318.307956 356.2602 
L 318.904792 355.000428 
L 317.050865 353.773003 
L 317.927331 353.265056 
L 317.463148 352.169772 
L 316.096447 351.479683 
L 315.94947 350.848369 
L 314.308847 350.986324 
L 315.113277 349.911653 
L 314.008976 349.40064 
L 315.257452 349.468191 
L 315.240118 348.93667 
L 312.797971 347.773835 
L 313.325677 347.042729 
L 312.371259 345.46286 
L 311.725431 344.564307 
L 311.09974 343.483716 
L 310.217461 343.307494 
L 309.3958 342.4119 
L 309.663909 341.792321 
L 308.464426 340.697037 
L 308.409724 339.2288 
L 306.783529 338.051271 
L 305.875301 339.090739 
L 305.119863 338.204025 
L 305.558096 337.546178 
L 305.586952 335.810807 
L 304.955552 335.769684 
L 304.159736 336.597728 
L 300.737326 333.684828 
L 297.317822 330.73662 
L 295.406183 328.237689 
L 292.759347 327.180567 
L 292.987079 326.223237 
L 291.262899 325.677128 
L 289.760742 324.602352 
L 288.244157 324.802042 
L 284.879354 320.403251 
L 281.632776 316.533021 
L 277.610624 312.859522 
L 274.170983 309.253466 
L 271.550096 306.331792 
L 270.117068 305.063246 
L 267.677827 303.057568 
L 266.847448 301.286888 
L 267.74706 299.272542 
L 266.074779 297.384416 
L 265.466318 294.659366 
L 263.191493 290.985867 
L 259.32213 289.083047 
L 259.189477 291.115047 
L 250.409974 403.105406 
L 250.138959 404.097938 
L 247.065412 400.019244 
L 238.415552 388.164782 
L 230.630741 377.543558 
L 206.503639 343.774425 
L 185.063646 313.417365 
L 171.06832 298.080319 
L 144.827694 282.094307 
L 137.466791 277.742452 
L 130.408563 272.107462 
L 127.052375 268.701098 
L 124.373881 265.153924 
L 122.332496 260.341058 
L 120.305538 246.607244 
L 118.679447 234.973086 
L 117.053252 223.148012 
L 115.626036 212.656075 
L 115.363636 208.010551 
L 138.181852 185.399871 
L 296.432637 145.798912 
" clip-path="url(#p7bdba74e35)" style="fill: #e0bd1f; stroke: #0000ff; stroke-width: 0.5"/>
   </g>
   <g id="PatchCollection_2">
    <path d="M 347.270029 588.775179 
L 344.141637 587.237914 
L 341.743735 584.194775 
L 341.300476 580.247305 
L 339.403925 580.129092 
L 337.813012 576.516172 
L 336.750725 575.129564 
L 335.483758 569.963529 
L 251.523407 439.60054 
L 250.138959 404.097938 
L 250.409974 403.105406 
L 259.189477 291.115047 
L 262.486656 292.458936 
L 264.733264 294.980428 
L 265.312744 297.517709 
L 266.844007 299.181432 
L 266.053766 301.121422 
L 266.831047 303.19913 
L 270.805309 306.772211 
L 275.859511 312.369264 
L 280.600148 316.85046 
L 284.840362 321.844942 
L 287.703238 325.428526 
L 289.724019 325.409366 
L 291.302021 326.665785 
L 292.160377 326.606791 
L 292.633335 327.206212 
L 294.984321 328.728645 
L 299.12044 333.393526 
L 303.648586 336.757871 
L 304.80768 336.441743 
L 305.340279 336.665539 
L 304.590818 337.562616 
L 304.701619 338.604096 
L 305.164868 339.515095 
L 306.303227 339.682287 
L 306.980004 339.116459 
L 307.995159 339.615378 
L 308.220584 340.757481 
L 309.11206 341.537278 
L 309.042949 342.249906 
L 309.326046 342.806627 
L 310.015326 343.575628 
L 310.888696 343.77076 
L 312.643052 346.322298 
L 313.015632 346.992593 
L 312.553921 347.594523 
L 312.597885 348.24251 
L 314.853756 349.047495 
L 313.604821 349.211915 
L 314.584711 349.990869 
L 314.121271 351.082298 
L 315.680653 351.022998 
L 315.932833 351.649937 
L 317.081204 352.211157 
L 317.677847 353.203525 
L 316.95359 353.420178 
L 316.799348 353.809413 
L 318.428238 354.933423 
L 317.856268 356.068792 
L 318.531582 356.863349 
L 319.313598 356.913137 
L 319.403946 355.939674 
L 319.847094 357.737647 
L 320.221747 358.291907 
L 320.991567 357.040236 
L 321.596643 357.921278 
L 323.305218 359.79782 
L 322.133489 360.114077 
L 321.568357 360.462715 
L 321.844845 361.661543 
L 322.398003 362.056774 
L 322.979578 361.440991 
L 323.49288 361.626823 
L 323.103435 362.526843 
L 323.87178 363.644717 
L 325.355208 364.240892 
L 325.380588 364.927195 
L 326.349285 365.184985 
L 325.948046 366.847944 
L 326.355722 367.89296 
L 328.559422 368.520433 
L 329.793355 370.797194 
L 329.963866 372.817065 
L 332.68909 372.486047 
L 333.573963 371.886451 
L 334.473677 372.869578 
L 335.632185 373.163703 
L 336.404997 372.736806 
L 336.761734 372.390145 
L 336.489351 371.629907 
L 338.041948 371.519802 
L 339.035304 370.366125 
L 339.451736 370.324027 
L 339.836359 370.930634 
L 339.462876 372.7745 
L 339.961694 373.309699 
L 341.001712 372.838545 
L 343.205603 371.465971 
L 345.585227 370.649541 
L 346.433155 371.287501 
L 348.245644 370.22735 
L 349.427717 370.130297 
L 351.742996 369.271566 
L 353.653728 368.459588 
L 354.997962 368.607719 
L 356.259706 368.483088 
L 356.672896 368.221706 
L 356.343537 367.195024 
L 356.70696 366.741025 
L 358.078181 366.3579 
L 358.054949 365.58576 
L 360.095266 364.954911 
L 359.672434 365.892199 
L 360.666813 366.236743 
L 361.329115 365.264996 
L 362.259706 365.626237 
L 362.619202 364.753914 
L 363.724568 365.000857 
L 365.031092 364.53789 
L 364.833084 363.880049 
L 364.109389 363.420296 
L 364.890529 363.187597 
L 365.997103 363.563254 
L 366.893912 363.731725 
L 368.289351 363.034556 
L 375.514797 361.886416 
L 377.233164 359.610749 
L 378.591251 359.199634 
L 382.333669 358.92362 
L 382.867084 359.058614 
L 385.75608 359.496157 
L 386.064669 358.682807 
L 386.918092 359.240756 
L 388.437584 359.193714 
L 388.518234 360.109922 
L 389.613921 360.312467 
L 389.864799 360.846948 
L 391.885944 360.879296 
L 393.304544 361.120002 
L 392.860498 361.810092 
L 393.526463 362.300491 
L 395.913805 362.802624 
L 396.969114 361.513569 
L 398.788476 360.867456 
L 402.36949 362.300491 
L 404.240751 360.791132 
L 404.892287 361.275717 
L 404.678984 363.178536 
L 408.421402 364.135761 
L 409.606458 365.148801 
L 410.376324 364.082904 
L 412.158111 362.752728 
L 413.095195 363.099252 
L 412.855942 364.264941 
L 413.893916 364.317797 
L 414.778998 363.880254 
L 417.134681 363.524955 
L 417.503682 364.165149 
L 418.325446 364.00362 
L 420.095816 365.944602 
L 421.358616 366.006338 
L 421.857467 364.532181 
L 422.88392 363.096292 
L 425.236594 362.649975 
L 426.600389 364.417695 
L 428.930124 364.097598 
L 430.426468 362.417937 
L 432.049757 362.949458 
L 434.575565 363.921376 
L 440.267092 364.182802 
L 441.345444 362.72038 
L 443.435822 363.228433 
L 446.13165 363.692404 
L 447.506967 363.137414 
L 447.79241 364.06525 
L 449.744425 363.154963 
L 451.183162 360.770624 
L 451.730902 360.462261 
L 452.310507 359.308201 
L 453.440757 360.104002 
L 454.660378 359.017492 
L 457.341778 359.25249 
L 460.054941 358.130778 
L 460.833422 357.07651 
L 463.142916 356.932636 
L 462.984313 357.790068 
L 463.552293 358.673927 
L 464.662407 360.089308 
L 466.908481 361.325613 
L 467.730142 362.359267 
L 467.297721 363.530875 
L 467.026706 363.66883 
L 471.221785 365.242779 
L 473.851391 365.283901 
L 476.423181 364.908094 
L 477.585194 365.049008 
L 480.260885 366.0445 
L 488.472408 370.272989 
L 491.407489 369.694426 
L 494.276348 366.73163 
L 502.562916 363.962498 
L 506.267864 363.260675 
L 509.883441 364.546875 
L 513.141541 365.562875 
L 517.33963 367.224883 
L 519.637602 368.437719 
L 523.913436 367.101622 
L 532.205713 368.020684 
L 535.668501 370.73696 
L 543.823262 375.569167 
L 547.269206 376.587588 
L 550.429933 378.74798 
L 554.362916 378.696971 
L 557.855447 379.825706 
L 560.315708 382.556206 
L 564.036694 383.865139 
L 567.174479 386.005675 
L 570.617623 386.425344 
L 573.964034 384.340172 
L 577.372039 385.960531 
L 579.698447 389.282445 
L 583.235751 390.328593 
L 586.312845 392.971984 
L 586.712264 394.645359 
L 587.832302 395.878962 
L 587.591563 397.468869 
L 589.236713 397.882184 
L 590.559835 398.051863 
L 591.630652 399.715016 
L 593.130771 402.822202 
L 595.144535 406.149731 
L 597.284735 409.323184 
L 596.184508 411.310187 
L 596.855563 412.397909 
L 597.251377 413.681357 
L 595.675235 416.056414 
L 594.219459 417.636516 
L 593.934884 421.350795 
L 592.708881 424.687926 
L 593.109162 426.443321 
L 592.320785 428.725009 
L 591.152019 431.353608 
L 590.011668 432.480152 
L 588.595262 435.969287 
L 589.889884 437.630292 
L 590.172439 440.459519 
L 589.624395 445.613746 
L 588.711789 448.282799 
L 589.845251 450.932234 
L 591.81825 452.200559 
L 594.272714 450.289067 
L 593.467296 455.274129 
L 592.547382 457.170907 
L 592.408342 458.244943 
L 593.223526 458.794931 
L 592.812694 460.429378 
L 593.667662 460.678627 
L 596.070184 462.286093 
L 594.721568 463.929535 
L 594.008289 465.137802 
L 594.870976 466.202231 
L 594.265887 467.581093 
L 593.308412 467.761908 
L 593.53434 469.111346 
L 593.007193 469.717115 
L 592.253316 471.140313 
L 593.324264 471.687847 
L 593.524208 472.544091 
L 592.779662 472.70141 
L 591.275156 475.891038 
L 591.779377 477.366532 
L 594.082036 477.430263 
L 598.513596 477.216122 
L 597.592058 478.941285 
L 595.905673 480.931233 
L 593.785706 482.152995 
L 593.901834 485.412896 
L 593.763826 488.846866 
L 594.83925 489.866344 
L 596.62755 489.634649 
L 597.775633 489.323278 
L 600.669388 488.780618 
L 602.624943 488.20405 
L 604.331238 488.316401 
L 605.577172 489.334238 
L 607.110115 489.147895 
L 607.38823 491.505169 
L 608.486192 492.653148 
L 611.520224 493.417826 
L 611.61625 494.553967 
L 613.836104 494.875923 
L 613.939247 496.762886 
L 613.186597 498.314799 
L 612.343814 499.352682 
L 609.109445 499.941532 
L 607.75981 501.477721 
L 608.055584 503.448652 
L 608.700885 504.064625 
L 610.111644 504.480164 
L 611.860574 504.5921 
L 613.877636 503.757484 
L 616.345736 503.283255 
L 618.755791 503.431748 
L 619.519454 505.290913 
L 619.559881 507.307201 
L 618.575224 509.118791 
L 618.075898 510.410826 
L 615.246479 510.995797 
L 614.192591 512.250247 
L 614.101068 513.838722 
L 613.643961 515.087443 
L 613.936693 516.736591 
L 614.356979 517.600252 
L 615.249226 518.032684 
L 615.858639 518.110264 
L 616.640373 518.627189 
L 617.874957 516.94669 
L 619.234148 516.418742 
L 619.86007 516.489013 
L 620.212984 515.741885 
L 620.389423 514.367135 
L 620.723798 513.663094 
L 622.287246 513.695755 
L 622.079045 514.718011 
L 621.340101 515.716759 
L 622.589884 516.639197 
L 622.337845 518.033743 
L 621.704456 519.174504 
L 619.872803 519.830946 
L 619.431399 521.236846 
L 618.014358 520.659277 
L 616.345893 520.541807 
L 613.438593 521.656725 
L 611.768349 523.350942 
L 610.465086 523.782999 
L 609.770428 524.457126 
L 609.248267 525.33937 
L 609.293386 526.101746 
L 608.983058 527.344291 
L 608.769808 528.833816 
L 607.877409 530.634986 
L 606.398212 530.496624 
L 605.895509 529.433516 
L 604.832752 529.253016 
L 604.283125 527.236846 
L 602.55565 526.891093 
L 601.804152 527.565764 
L 600.911725 527.364557 
L 600.377998 527.026415 
L 598.822839 526.869708 
L 597.457699 528.770764 
L 594.861618 528.738466 
L 594.24922 528.095954 
L 593.673267 527.30053 
L 593.311857 527.151435 
L 592.611956 527.272573 
L 592.828123 528.09052 
L 592.439839 529.104969 
L 593.179438 529.174153 
L 592.56164 529.961962 
L 592.477208 531.049777 
L 592.919819 531.7702 
L 595.854596 533.553712 
L 595.63592 534.471182 
L 594.752162 535.185263 
L 593.77223 535.747704 
L 592.990403 535.221239 
L 592.003246 535.020939 
L 590.849371 535.222713 
L 589.252884 534.704064 
L 588.082412 535.15391 
L 587.446749 536.056311 
L 587.738338 536.835394 
L 586.174882 537.803908 
L 586.044627 540.055449 
L 587.108652 540.369435 
L 586.79091 540.83017 
L 585.844351 540.915532 
L 585.32704 540.310247 
L 584.716266 539.83935 
L 584.095213 540.283924 
L 583.705842 541.183962 
L 583.344972 541.092072 
L 583.599376 539.945416 
L 582.386495 539.91891 
L 582.33777 538.775161 
L 581.814321 537.521544 
L 580.634637 536.998892 
L 579.658492 537.961769 
L 578.658165 538.37184 
L 577.69934 539.162918 
L 576.699013 539.572988 
L 578.694817 542.242755 
L 579.250573 544.907263 
L 580.000829 546.101494 
L 580.353227 547.299541 
L 580.15602 548.48379 
L 580.641219 549.699633 
L 581.894163 549.954597 
L 581.111084 551.297029 
L 582.709254 552.492659 
L 582.78193 553.164189 
L 583.234965 553.984631 
L 585.239517 554.575647 
L 586.765831 555.686148 
L 588.56748 555.859562 
L 589.727685 556.325185 
L 589.812319 557.258816 
L 589.216172 558.332472 
L 586.789312 558.165057 
L 585.27582 558.408423 
L 583.284351 558.198688 
L 583.025612 558.8877 
L 582.568751 559.163834 
L 582.474285 558.192157 
L 581.891473 557.673316 
L 581.267438 557.80326 
L 580.695371 558.418997 
L 580.826374 559.247297 
L 581.369218 559.547213 
L 580.902978 560.333568 
L 580.859948 560.791667 
L 581.074492 561.437998 
L 581.969638 561.925237 
L 584.057646 562.324749 
L 584.125136 563.115518 
L 584.500446 563.39797 
L 584.971755 564.480453 
L 585.348998 565.633763 
L 584.809618 566.033057 
L 583.466207 565.562835 
L 582.646909 565.748685 
L 582.943913 566.432365 
L 585.10259 567.212032 
L 585.95932 568.327977 
L 584.952088 569.189283 
L 584.150819 570.355204 
L 583.898787 572.333429 
L 583.205178 574.145564 
L 581.529142 575.864928 
L 578.287919 576.713603 
L 576.015572 576.224419 
L 574.163539 577.230091 
L 573.681694 579.959966 
L 576.842684 581.360399 
L 581.012205 582.035771 
L 583.187543 583.0028 
L 581.680399 584.686479 
L 580.950685 586.260501 
L 578.613565 587.86698 
L 577.412926 587.963664 
L 576.830327 587.202777 
L 576.441126 587.206511 
L 576.499941 586.269141 
L 575.500106 586.125439 
L 574.332666 586.153672 
L 574.067725 586.769396 
L 573.733161 587.181394 
L 572.625988 586.425538 
L 572.050648 586.431057 
L 571.737682 587.3368 
L 572.089021 588.696056 
L 572.081132 589.64997 
L 570.263082 588.883901 
L 568.640526 589.103859 
L 567.771838 591.439889 
L 567.64281 592.758457 
L 568.028959 594.219577 
L 569.165153 596.252619 
L 569.18225 598.057935 
L 569.662541 602.311537 
L 570.287535 603.974759 
L 570.938954 604.854217 
L 571.388924 605.905935 
L 567.102732 610.784383 
L 565.328774 623.610097 
L 562.932011 627.857236 
L 558.629653 631.032552 
L 556.484277 633.233335 
L 554.380182 639.794133 
L 555.523836 646.187516 
L 552.196181 652.215 
L 548.58873 657.291327 
L 547.558605 662.887986 
L 547.219059 667.243139 
L 546.290755 667.507535 
L 546.098009 668.599487 
L 546.808755 670.381121 
L 546.308989 671.220524 
L 545.513805 671.245184 
L 544.713782 670.758904 
L 544.692022 670.248127 
L 543.624469 670.10507 
L 540.839552 670.898257 
L 540.41273 671.558404 
L 538.469299 671.697301 
L 537.412345 671.471594 
L 536.457677 671.506318 
L 535.809867 671.679939 
L 535.127961 672.357061 
L 535.520057 673.624496 
L 536.679296 673.971738 
L 537.003202 676.142003 
L 533.815293 676.124641 
L 533.167482 677.131643 
L 532.349196 679.944306 
L 530.50805 682.409726 
L 523.586708 677.965025 
L 522.529754 678.833131 
L 523.32247 681.86282 
L 526.322855 685.890831 
L 527.447999 689.08546 
L 525.879616 690.266084 
L 523.484422 689.701815 
L 521.558039 690.760904 
L 523.356565 694.051025 
L 527.857142 694.398267 
L 528.334476 695.960858 
L 526.868379 697.87069 
L 524.5499 698.495726 
L 523.90209 699.650307 
L 524.422043 703.313714 
L 528.377095 705.466616 
L 528.854429 710.25856 
L 525.922235 710.91832 
L 523.961756 709.859231 
L 521.33642 710.01549 
L 520.53518 710.91832 
L 520.807943 713.105947 
L 522.222897 714.44283 
L 525.155091 716.074868 
L 525.59833 717.290217 
L 525.700616 718.783359 
L 520.927276 725.137893 
L 516.392604 724.13089 
L 510.886216 726.249068 
L 509.924304 726.841088 
L 509.539759 725.550272 
L 510.307885 724.452804 
L 509.823738 723.367338 
L 509.008876 723.102621 
L 508.521508 721.676528 
L 507.867976 720.575651 
L 507.665392 718.840236 
L 506.689044 717.606189 
L 508.050587 716.622266 
L 508.615158 715.475651 
L 508.488805 714.642249 
L 508.036895 713.386144 
L 508.790518 710.755855 
L 508.206452 709.841674 
L 508.292197 708.171627 
L 506.699548 707.982493 
L 504.272388 705.450811 
L 503.301209 702.973309 
L 499.165035 702.263483 
L 498.018517 699.140407 
L 493.533914 697.377867 
L 492.254601 694.528586 
L 493.191663 689.818523 
L 492.730427 687.574593 
L 493.434762 683.309615 
L 495.901277 679.266225 
L 498.494793 674.335905 
L 500.002697 669.143455 
L 501.525735 665.551956 
L 501.231148 663.033904 
L 502.515338 659.240297 
L 499.670968 657.325782 
L 499.064182 657.587086 
L 498.431315 655.089305 
L 498.710479 652.395429 
L 500.928756 650.739028 
L 498.806576 648.238475 
L 497.830602 645.250024 
L 496.262815 644.106794 
L 496.242212 641.926775 
L 494.949045 641.189706 
L 494.226726 639.970249 
L 493.72619 637.147573 
L 489.4923 635.041944 
L 485.994545 626.661144 
L 489.001077 624.247761 
L 486.016415 620.018084 
L 484.566006 616.96603 
L 484.547733 611.447529 
L 481.42636 610.659808 
L 482.212883 607.927012 
L 479.358407 606.727943 
L 478.384884 603.994948 
L 476.61567 603.023957 
L 473.345265 600.789848 
L 469.725449 599.189295 
L 466.337195 598.812898 
L 462.237348 594.764175 
L 456.814606 593.99842 
L 454.500364 592.657896 
L 449.9053 593.519386 
L 442.4789 595.634293 
L 435.577291 595.972739 
L 430.439421 596.703122 
L 424.353911 597.442544 
L 422.330971 598.279441 
L 419.330866 595.991585 
L 412.451062 598.646267 
L 405.806064 597.483291 
L 402.578841 599.830575 
L 399.747479 601.083965 
L 394.879047 601.675458 
L 393.481494 600.632736 
L 392.446113 602.107455 
L 387.990219 603.376327 
L 385.585355 603.194861 
L 383.479959 602.465478 
L 381.383539 602.689861 
L 378.728943 601.148122 
L 375.273625 600.840394 
L 368.963213 599.265354 
L 367.723673 597.028795 
L 364.593345 595.287176 
L 359.27468 594.792783 
L 355.621318 591.420956 
L 351.927275 594.522098 
L 349.277818 593.52534 
L 350.169197 591.132215 
L 347.270029 588.775179 
L 347.270029 588.775179 
" clip-path="url(#p7bdba74e35)" style="fill: none; stroke: #000000"/>
   </g>
   <g id="matplotlib.axis_1">
    <g id="xtick_1">
     <g id="line2d_1">
      <path d="M 177.68541 755.893196 
L 177.68541 116.746804 
" clip-path="url(#p7bdba74e35)" style="fill: none; stroke: #b0b0b0; stroke-width: 0.8; stroke-linecap: square"/>
     </g>
     <g id="line2d_2">
      <defs>
       <path id="m7523efd967" d="M 0 0 
L 0 3.5 
" style="stroke: #000000; stroke-width: 0.8"/>
      </defs>
      <g>
       <use xlink:href="#m7523efd967" x="177.68541" y="755.893196" style="stroke: #000000; stroke-width: 0.8"/>
      </g>
     </g>
     <g id="text_1">
      <!-- −48.16 -->
      <g transform="translate(166.552345 794.434578) rotate(-45) scale(0.1 -0.1)">
       <defs>
        <path id="DejaVuSans-2212" d="M 678 2272 
L 4684 2272 
L 4684 1741 
L 678 1741 
L 678 2272 
z
" transform="scale(0.015625)"/>
        <path id="DejaVuSans-34" d="M 2419 4116 
L 825 1625 
L 2419 1625 
L 2419 4116 
z
M 2253 4666 
L 3047 4666 
L 3047 1625 
L 3713 1625 
L 3713 1100 
L 3047 1100 
L 3047 0 
L 2419 0 
L 2419 1100 
L 313 1100 
L 313 1709 
L 2253 4666 
z
" transform="scale(0.015625)"/>
        <path id="DejaVuSans-38" d="M 2034 2216 
Q 1584 2216 1326 1975 
Q 1069 1734 1069 1313 
Q 1069 891 1326 650 
Q 1584 409 2034 409 
Q 2484 409 2743 651 
Q 3003 894 3003 1313 
Q 3003 1734 2745 1975 
Q 2488 2216 2034 2216 
z
M 1403 2484 
Q 997 2584 770 2862 
Q 544 3141 544 3541 
Q 544 4100 942 4425 
Q 1341 4750 2034 4750 
Q 2731 4750 3128 4425 
Q 3525 4100 3525 3541 
Q 3525 3141 3298 2862 
Q 3072 2584 2669 2484 
Q 3125 2378 3379 2068 
Q 3634 1759 3634 1313 
Q 3634 634 3220 271 
Q 2806 -91 2034 -91 
Q 1263 -91 848 271 
Q 434 634 434 1313 
Q 434 1759 690 2068 
Q 947 2378 1403 2484 
z
M 1172 3481 
Q 1172 3119 1398 2916 
Q 1625 2713 2034 2713 
Q 2441 2713 2670 2916 
Q 2900 3119 2900 3481 
Q 2900 3844 2670 4047 
Q 2441 4250 2034 4250 
Q 1625 4250 1398 4047 
Q 1172 3844 1172 3481 
z
" transform="scale(0.015625)"/>
        <path id="DejaVuSans-2e" d="M 684 794 
L 1344 794 
L 1344 0 
L 684 0 
L 684 794 
z
" transform="scale(0.015625)"/>
        <path id="DejaVuSans-31" d="M 794 531 
L 1825 531 
L 1825 4091 
L 703 3866 
L 703 4441 
L 1819 4666 
L 2450 4666 
L 2450 531 
L 3481 531 
L 3481 0 
L 794 0 
L 794 531 
z
" transform="scale(0.015625)"/>
        <path id="DejaVuSans-36" d="M 2113 2584 
Q 1688 2584 1439 2293 
Q 1191 2003 1191 1497 
Q 1191 994 1439 701 
Q 1688 409 2113 409 
Q 2538 409 2786 701 
Q 3034 994 3034 1497 
Q 3034 2003 2786 2293 
Q 2538 2584 2113 2584 
z
M 3366 4563 
L 3366 3988 
Q 3128 4100 2886 4159 
Q 2644 4219 2406 4219 
Q 1781 4219 1451 3797 
Q 1122 3375 1075 2522 
Q 1259 2794 1537 2939 
Q 1816 3084 2150 3084 
Q 2853 3084 3261 2657 
Q 3669 2231 3669 1497 
Q 3669 778 3244 343 
Q 2819 -91 2113 -91 
Q 1303 -91 875 529 
Q 447 1150 447 2328 
Q 447 3434 972 4092 
Q 1497 4750 2381 4750 
Q 2619 4750 2861 4703 
Q 3103 4656 3366 4563 
z
" transform="scale(0.015625)"/>
       </defs>
       <use xlink:href="#DejaVuSans-2212"/>
       <use xlink:href="#DejaVuSans-34" transform="translate(83.789062 0)"/>
       <use xlink:href="#DejaVuSans-38" transform="translate(147.412109 0)"/>
       <use xlink:href="#DejaVuSans-2e" transform="translate(211.035156 0)"/>
       <use xlink:href="#DejaVuSans-31" transform="translate(242.822266 0)"/>
       <use xlink:href="#DejaVuSans-36" transform="translate(306.445312 0)"/>
      </g>
     </g>
    </g>
    <g id="xtick_2">
     <g id="line2d_3">
      <path d="M 281.482893 755.893196 
L 281.482893 116.746804 
" clip-path="url(#p7bdba74e35)" style="fill: none; stroke: #b0b0b0; stroke-width: 0.8; stroke-linecap: square"/>
     </g>
     <g id="line2d_4">
      <g>
       <use xlink:href="#m7523efd967" x="281.482893" y="755.893196" style="stroke: #000000; stroke-width: 0.8"/>
      </g>
     </g>
     <g id="text_2">
      <!-- −48.15 -->
      <g transform="translate(270.349828 794.434578) rotate(-45) scale(0.1 -0.1)">
       <defs>
        <path id="DejaVuSans-35" d="M 691 4666 
L 3169 4666 
L 3169 4134 
L 1269 4134 
L 1269 2991 
Q 1406 3038 1543 3061 
Q 1681 3084 1819 3084 
Q 2600 3084 3056 2656 
Q 3513 2228 3513 1497 
Q 3513 744 3044 326 
Q 2575 -91 1722 -91 
Q 1428 -91 1123 -41 
Q 819 9 494 109 
L 494 744 
Q 775 591 1075 516 
Q 1375 441 1709 441 
Q 2250 441 2565 725 
Q 2881 1009 2881 1497 
Q 2881 1984 2565 2268 
Q 2250 2553 1709 2553 
Q 1456 2553 1204 2497 
Q 953 2441 691 2322 
L 691 4666 
z
" transform="scale(0.015625)"/>
       </defs>
       <use xlink:href="#DejaVuSans-2212"/>
       <use xlink:href="#DejaVuSans-34" transform="translate(83.789062 0)"/>
       <use xlink:href="#DejaVuSans-38" transform="translate(147.412109 0)"/>
       <use xlink:href="#DejaVuSans-2e" transform="translate(211.035156 0)"/>
       <use xlink:href="#DejaVuSans-31" transform="translate(242.822266 0)"/>
       <use xlink:href="#DejaVuSans-35" transform="translate(306.445312 0)"/>
      </g>
     </g>
    </g>
    <g id="xtick_3">
     <g id="line2d_5">
      <path d="M 385.280376 755.893196 
L 385.280376 116.746804 
" clip-path="url(#p7bdba74e35)" style="fill: none; stroke: #b0b0b0; stroke-width: 0.8; stroke-linecap: square"/>
     </g>
     <g id="line2d_6">
      <g>
       <use xlink:href="#m7523efd967" x="385.280376" y="755.893196" style="stroke: #000000; stroke-width: 0.8"/>
      </g>
     </g>
     <g id="text_3">
      <!-- −48.14 -->
      <g transform="translate(374.147311 794.434578) rotate(-45) scale(0.1 -0.1)">
       <use xlink:href="#DejaVuSans-2212"/>
       <use xlink:href="#DejaVuSans-34" transform="translate(83.789062 0)"/>
       <use xlink:href="#DejaVuSans-38" transform="translate(147.412109 0)"/>
       <use xlink:href="#DejaVuSans-2e" transform="translate(211.035156 0)"/>
       <use xlink:href="#DejaVuSans-31" transform="translate(242.822266 0)"/>
       <use xlink:href="#DejaVuSans-34" transform="translate(306.445312 0)"/>
      </g>
     </g>
    </g>
    <g id="xtick_4">
     <g id="line2d_7">
      <path d="M 489.077859 755.893196 
L 489.077859 116.746804 
" clip-path="url(#p7bdba74e35)" style="fill: none; stroke: #b0b0b0; stroke-width: 0.8; stroke-linecap: square"/>
     </g>
     <g id="line2d_8">
      <g>
       <use xlink:href="#m7523efd967" x="489.077859" y="755.893196" style="stroke: #000000; stroke-width: 0.8"/>
      </g>
     </g>
     <g id="text_4">
      <!-- −48.13 -->
      <g transform="translate(477.944794 794.434578) rotate(-45) scale(0.1 -0.1)">
       <defs>
        <path id="DejaVuSans-33" d="M 2597 2516 
Q 3050 2419 3304 2112 
Q 3559 1806 3559 1356 
Q 3559 666 3084 287 
Q 2609 -91 1734 -91 
Q 1441 -91 1130 -33 
Q 819 25 488 141 
L 488 750 
Q 750 597 1062 519 
Q 1375 441 1716 441 
Q 2309 441 2620 675 
Q 2931 909 2931 1356 
Q 2931 1769 2642 2001 
Q 2353 2234 1838 2234 
L 1294 2234 
L 1294 2753 
L 1863 2753 
Q 2328 2753 2575 2939 
Q 2822 3125 2822 3475 
Q 2822 3834 2567 4026 
Q 2313 4219 1838 4219 
Q 1578 4219 1281 4162 
Q 984 4106 628 3988 
L 628 4550 
Q 988 4650 1302 4700 
Q 1616 4750 1894 4750 
Q 2613 4750 3031 4423 
Q 3450 4097 3450 3541 
Q 3450 3153 3228 2886 
Q 3006 2619 2597 2516 
z
" transform="scale(0.015625)"/>
       </defs>
       <use xlink:href="#DejaVuSans-2212"/>
       <use xlink:href="#DejaVuSans-34" transform="translate(83.789062 0)"/>
       <use xlink:href="#DejaVuSans-38" transform="translate(147.412109 0)"/>
       <use xlink:href="#DejaVuSans-2e" transform="translate(211.035156 0)"/>
       <use xlink:href="#DejaVuSans-31" transform="translate(242.822266 0)"/>
       <use xlink:href="#DejaVuSans-33" transform="translate(306.445312 0)"/>
      </g>
     </g>
    </g>
    <g id="xtick_5">
     <g id="line2d_9">
      <path d="M 592.875342 755.893196 
L 592.875342 116.746804 
" clip-path="url(#p7bdba74e35)" style="fill: none; stroke: #b0b0b0; stroke-width: 0.8; stroke-linecap: square"/>
     </g>
     <g id="line2d_10">
      <g>
       <use xlink:href="#m7523efd967" x="592.875342" y="755.893196" style="stroke: #000000; stroke-width: 0.8"/>
      </g>
     </g>
     <g id="text_5">
      <!-- −48.12 -->
      <g transform="translate(581.742277 794.434578) rotate(-45) scale(0.1 -0.1)">
       <defs>
        <path id="DejaVuSans-32" d="M 1228 531 
L 3431 531 
L 3431 0 
L 469 0 
L 469 531 
Q 828 903 1448 1529 
Q 2069 2156 2228 2338 
Q 2531 2678 2651 2914 
Q 2772 3150 2772 3378 
Q 2772 3750 2511 3984 
Q 2250 4219 1831 4219 
Q 1534 4219 1204 4116 
Q 875 4013 500 3803 
L 500 4441 
Q 881 4594 1212 4672 
Q 1544 4750 1819 4750 
Q 2544 4750 2975 4387 
Q 3406 4025 3406 3419 
Q 3406 3131 3298 2873 
Q 3191 2616 2906 2266 
Q 2828 2175 2409 1742 
Q 1991 1309 1228 531 
z
" transform="scale(0.015625)"/>
       </defs>
       <use xlink:href="#DejaVuSans-2212"/>
       <use xlink:href="#DejaVuSans-34" transform="translate(83.789062 0)"/>
       <use xlink:href="#DejaVuSans-38" transform="translate(147.412109 0)"/>
       <use xlink:href="#DejaVuSans-2e" transform="translate(211.035156 0)"/>
       <use xlink:href="#DejaVuSans-31" transform="translate(242.822266 0)"/>
       <use xlink:href="#DejaVuSans-32" transform="translate(306.445312 0)"/>
      </g>
     </g>
    </g>
    <g id="text_6">
     <!-- Longitude (°) -->
     <g transform="translate(336.139844 807.503577) scale(0.1 -0.1)">
      <defs>
       <path id="DejaVuSans-4c" d="M 628 4666 
L 1259 4666 
L 1259 531 
L 3531 531 
L 3531 0 
L 628 0 
L 628 4666 
z
" transform="scale(0.015625)"/>
       <path id="DejaVuSans-6f" d="M 1959 3097 
Q 1497 3097 1228 2736 
Q 959 2375 959 1747 
Q 959 1119 1226 758 
Q 1494 397 1959 397 
Q 2419 397 2687 759 
Q 2956 1122 2956 1747 
Q 2956 2369 2687 2733 
Q 2419 3097 1959 3097 
z
M 1959 3584 
Q 2709 3584 3137 3096 
Q 3566 2609 3566 1747 
Q 3566 888 3137 398 
Q 2709 -91 1959 -91 
Q 1206 -91 779 398 
Q 353 888 353 1747 
Q 353 2609 779 3096 
Q 1206 3584 1959 3584 
z
" transform="scale(0.015625)"/>
       <path id="DejaVuSans-6e" d="M 3513 2113 
L 3513 0 
L 2938 0 
L 2938 2094 
Q 2938 2591 2744 2837 
Q 2550 3084 2163 3084 
Q 1697 3084 1428 2787 
Q 1159 2491 1159 1978 
L 1159 0 
L 581 0 
L 581 3500 
L 1159 3500 
L 1159 2956 
Q 1366 3272 1645 3428 
Q 1925 3584 2291 3584 
Q 2894 3584 3203 3211 
Q 3513 2838 3513 2113 
z
" transform="scale(0.015625)"/>
       <path id="DejaVuSans-67" d="M 2906 1791 
Q 2906 2416 2648 2759 
Q 2391 3103 1925 3103 
Q 1463 3103 1205 2759 
Q 947 2416 947 1791 
Q 947 1169 1205 825 
Q 1463 481 1925 481 
Q 2391 481 2648 825 
Q 2906 1169 2906 1791 
z
M 3481 434 
Q 3481 -459 3084 -895 
Q 2688 -1331 1869 -1331 
Q 1566 -1331 1297 -1286 
Q 1028 -1241 775 -1147 
L 775 -588 
Q 1028 -725 1275 -790 
Q 1522 -856 1778 -856 
Q 2344 -856 2625 -561 
Q 2906 -266 2906 331 
L 2906 616 
Q 2728 306 2450 153 
Q 2172 0 1784 0 
Q 1141 0 747 490 
Q 353 981 353 1791 
Q 353 2603 747 3093 
Q 1141 3584 1784 3584 
Q 2172 3584 2450 3431 
Q 2728 3278 2906 2969 
L 2906 3500 
L 3481 3500 
L 3481 434 
z
" transform="scale(0.015625)"/>
       <path id="DejaVuSans-69" d="M 603 3500 
L 1178 3500 
L 1178 0 
L 603 0 
L 603 3500 
z
M 603 4863 
L 1178 4863 
L 1178 4134 
L 603 4134 
L 603 4863 
z
" transform="scale(0.015625)"/>
       <path id="DejaVuSans-74" d="M 1172 4494 
L 1172 3500 
L 2356 3500 
L 2356 3053 
L 1172 3053 
L 1172 1153 
Q 1172 725 1289 603 
Q 1406 481 1766 481 
L 2356 481 
L 2356 0 
L 1766 0 
Q 1100 0 847 248 
Q 594 497 594 1153 
L 594 3053 
L 172 3053 
L 172 3500 
L 594 3500 
L 594 4494 
L 1172 4494 
z
" transform="scale(0.015625)"/>
       <path id="DejaVuSans-75" d="M 544 1381 
L 544 3500 
L 1119 3500 
L 1119 1403 
Q 1119 906 1312 657 
Q 1506 409 1894 409 
Q 2359 409 2629 706 
Q 2900 1003 2900 1516 
L 2900 3500 
L 3475 3500 
L 3475 0 
L 2900 0 
L 2900 538 
Q 2691 219 2414 64 
Q 2138 -91 1772 -91 
Q 1169 -91 856 284 
Q 544 659 544 1381 
z
M 1991 3584 
L 1991 3584 
z
" transform="scale(0.015625)"/>
       <path id="DejaVuSans-64" d="M 2906 2969 
L 2906 4863 
L 3481 4863 
L 3481 0 
L 2906 0 
L 2906 525 
Q 2725 213 2448 61 
Q 2172 -91 1784 -91 
Q 1150 -91 751 415 
Q 353 922 353 1747 
Q 353 2572 751 3078 
Q 1150 3584 1784 3584 
Q 2172 3584 2448 3432 
Q 2725 3281 2906 2969 
z
M 947 1747 
Q 947 1113 1208 752 
Q 1469 391 1925 391 
Q 2381 391 2643 752 
Q 2906 1113 2906 1747 
Q 2906 2381 2643 2742 
Q 2381 3103 1925 3103 
Q 1469 3103 1208 2742 
Q 947 2381 947 1747 
z
" transform="scale(0.015625)"/>
       <path id="DejaVuSans-65" d="M 3597 1894 
L 3597 1613 
L 953 1613 
Q 991 1019 1311 708 
Q 1631 397 2203 397 
Q 2534 397 2845 478 
Q 3156 559 3463 722 
L 3463 178 
Q 3153 47 2828 -22 
Q 2503 -91 2169 -91 
Q 1331 -91 842 396 
Q 353 884 353 1716 
Q 353 2575 817 3079 
Q 1281 3584 2069 3584 
Q 2775 3584 3186 3129 
Q 3597 2675 3597 1894 
z
M 3022 2063 
Q 3016 2534 2758 2815 
Q 2500 3097 2075 3097 
Q 1594 3097 1305 2825 
Q 1016 2553 972 2059 
L 3022 2063 
z
" transform="scale(0.015625)"/>
       <path id="DejaVuSans-20" transform="scale(0.015625)"/>
       <path id="DejaVuSans-28" d="M 1984 4856 
Q 1566 4138 1362 3434 
Q 1159 2731 1159 2009 
Q 1159 1288 1364 580 
Q 1569 -128 1984 -844 
L 1484 -844 
Q 1016 -109 783 600 
Q 550 1309 550 2009 
Q 550 2706 781 3412 
Q 1013 4119 1484 4856 
L 1984 4856 
z
" transform="scale(0.015625)"/>
       <path id="DejaVuSans-b0" d="M 1600 4347 
Q 1350 4347 1178 4173 
Q 1006 4000 1006 3750 
Q 1006 3503 1178 3333 
Q 1350 3163 1600 3163 
Q 1850 3163 2022 3333 
Q 2194 3503 2194 3750 
Q 2194 3997 2020 4172 
Q 1847 4347 1600 4347 
z
M 1600 4750 
Q 1800 4750 1984 4673 
Q 2169 4597 2303 4453 
Q 2447 4313 2519 4134 
Q 2591 3956 2591 3750 
Q 2591 3338 2302 3052 
Q 2013 2766 1594 2766 
Q 1172 2766 890 3047 
Q 609 3328 609 3750 
Q 609 4169 896 4459 
Q 1184 4750 1600 4750 
z
" transform="scale(0.015625)"/>
       <path id="DejaVuSans-29" d="M 513 4856 
L 1013 4856 
Q 1481 4119 1714 3412 
Q 1947 2706 1947 2009 
Q 1947 1309 1714 600 
Q 1481 -109 1013 -844 
L 513 -844 
Q 928 -128 1133 580 
Q 1338 1288 1338 2009 
Q 1338 2731 1133 3434 
Q 928 4138 513 4856 
z
" transform="scale(0.015625)"/>
      </defs>
      <use xlink:href="#DejaVuSans-4c"/>
      <use xlink:href="#DejaVuSans-6f" transform="translate(53.962891 0)"/>
      <use xlink:href="#DejaVuSans-6e" transform="translate(115.144531 0)"/>
      <use xlink:href="#DejaVuSans-67" transform="translate(178.523438 0)"/>
      <use xlink:href="#DejaVuSans-69" transform="translate(242 0)"/>
      <use xlink:href="#DejaVuSans-74" transform="translate(269.783203 0)"/>
      <use xlink:href="#DejaVuSans-75" transform="translate(308.992188 0)"/>
      <use xlink:href="#DejaVuSans-64" transform="translate(372.371094 0)"/>
      <use xlink:href="#DejaVuSans-65" transform="translate(435.847656 0)"/>
      <use xlink:href="#DejaVuSans-20" transform="translate(497.371094 0)"/>
      <use xlink:href="#DejaVuSans-28" transform="translate(529.158203 0)"/>
      <use xlink:href="#DejaVuSans-b0" transform="translate(568.171875 0)"/>
      <use xlink:href="#DejaVuSans-29" transform="translate(618.171875 0)"/>
     </g>
    </g>
   </g>
   <g id="matplotlib.axis_2">
    <g id="ytick_1">
     <g id="line2d_11">
      <path d="M 90 703.3281 
L 648 703.3281 
" clip-path="url(#p7bdba74e35)" style="fill: none; stroke: #b0b0b0; stroke-width: 0.8; stroke-linecap: square"/>
     </g>
     <g id="line2d_12">
      <defs>
       <path id="md74a0ec2c5" d="M 0 0 
L -3.5 0 
" style="stroke: #000000; stroke-width: 0.8"/>
      </defs>
      <g>
       <use xlink:href="#md74a0ec2c5" x="90" y="703.3281" style="stroke: #000000; stroke-width: 0.8"/>
      </g>
     </g>
     <g id="text_7">
      <!-- −10.94 -->
      <g transform="translate(45.992188 707.127319) scale(0.1 -0.1)">
       <defs>
        <path id="DejaVuSans-30" d="M 2034 4250 
Q 1547 4250 1301 3770 
Q 1056 3291 1056 2328 
Q 1056 1369 1301 889 
Q 1547 409 2034 409 
Q 2525 409 2770 889 
Q 3016 1369 3016 2328 
Q 3016 3291 2770 3770 
Q 2525 4250 2034 4250 
z
M 2034 4750 
Q 2819 4750 3233 4129 
Q 3647 3509 3647 2328 
Q 3647 1150 3233 529 
Q 2819 -91 2034 -91 
Q 1250 -91 836 529 
Q 422 1150 422 2328 
Q 422 3509 836 4129 
Q 1250 4750 2034 4750 
z
" transform="scale(0.015625)"/>
        <path id="DejaVuSans-39" d="M 703 97 
L 703 672 
Q 941 559 1184 500 
Q 1428 441 1663 441 
Q 2288 441 2617 861 
Q 2947 1281 2994 2138 
Q 2813 1869 2534 1725 
Q 2256 1581 1919 1581 
Q 1219 1581 811 2004 
Q 403 2428 403 3163 
Q 403 3881 828 4315 
Q 1253 4750 1959 4750 
Q 2769 4750 3195 4129 
Q 3622 3509 3622 2328 
Q 3622 1225 3098 567 
Q 2575 -91 1691 -91 
Q 1453 -91 1209 -44 
Q 966 3 703 97 
z
M 1959 2075 
Q 2384 2075 2632 2365 
Q 2881 2656 2881 3163 
Q 2881 3666 2632 3958 
Q 2384 4250 1959 4250 
Q 1534 4250 1286 3958 
Q 1038 3666 1038 3163 
Q 1038 2656 1286 2365 
Q 1534 2075 1959 2075 
z
" transform="scale(0.015625)"/>
       </defs>
       <use xlink:href="#DejaVuSans-2212"/>
       <use xlink:href="#DejaVuSans-31" transform="translate(83.789062 0)"/>
       <use xlink:href="#DejaVuSans-30" transform="translate(147.412109 0)"/>
       <use xlink:href="#DejaVuSans-2e" transform="translate(211.035156 0)"/>
       <use xlink:href="#DejaVuSans-39" transform="translate(242.822266 0)"/>
       <use xlink:href="#DejaVuSans-34" transform="translate(306.445312 0)"/>
      </g>
     </g>
    </g>
    <g id="ytick_2">
     <g id="line2d_13">
      <path d="M 90 597.615884 
L 648 597.615884 
" clip-path="url(#p7bdba74e35)" style="fill: none; stroke: #b0b0b0; stroke-width: 0.8; stroke-linecap: square"/>
     </g>
     <g id="line2d_14">
      <g>
       <use xlink:href="#md74a0ec2c5" x="90" y="597.615884" style="stroke: #000000; stroke-width: 0.8"/>
      </g>
     </g>
     <g id="text_8">
      <!-- −10.93 -->
      <g transform="translate(45.992188 601.415103) scale(0.1 -0.1)">
       <use xlink:href="#DejaVuSans-2212"/>
       <use xlink:href="#DejaVuSans-31" transform="translate(83.789062 0)"/>
       <use xlink:href="#DejaVuSans-30" transform="translate(147.412109 0)"/>
       <use xlink:href="#DejaVuSans-2e" transform="translate(211.035156 0)"/>
       <use xlink:href="#DejaVuSans-39" transform="translate(242.822266 0)"/>
       <use xlink:href="#DejaVuSans-33" transform="translate(306.445312 0)"/>
      </g>
     </g>
    </g>
    <g id="ytick_3">
     <g id="line2d_15">
      <path d="M 90 491.903668 
L 648 491.903668 
" clip-path="url(#p7bdba74e35)" style="fill: none; stroke: #b0b0b0; stroke-width: 0.8; stroke-linecap: square"/>
     </g>
     <g id="line2d_16">
      <g>
       <use xlink:href="#md74a0ec2c5" x="90" y="491.903668" style="stroke: #000000; stroke-width: 0.8"/>
      </g>
     </g>
     <g id="text_9">
      <!-- −10.92 -->
      <g transform="translate(45.992188 495.702886) scale(0.1 -0.1)">
       <use xlink:href="#DejaVuSans-2212"/>
       <use xlink:href="#DejaVuSans-31" transform="translate(83.789062 0)"/>
       <use xlink:href="#DejaVuSans-30" transform="translate(147.412109 0)"/>
       <use xlink:href="#DejaVuSans-2e" transform="translate(211.035156 0)"/>
       <use xlink:href="#DejaVuSans-39" transform="translate(242.822266 0)"/>
       <use xlink:href="#DejaVuSans-32" transform="translate(306.445312 0)"/>
      </g>
     </g>
    </g>
    <g id="ytick_4">
     <g id="line2d_17">
      <path d="M 90 386.191452 
L 648 386.191452 
" clip-path="url(#p7bdba74e35)" style="fill: none; stroke: #b0b0b0; stroke-width: 0.8; stroke-linecap: square"/>
     </g>
     <g id="line2d_18">
      <g>
       <use xlink:href="#md74a0ec2c5" x="90" y="386.191452" style="stroke: #000000; stroke-width: 0.8"/>
      </g>
     </g>
     <g id="text_10">
      <!-- −10.91 -->
      <g transform="translate(45.992188 389.99067) scale(0.1 -0.1)">
       <use xlink:href="#DejaVuSans-2212"/>
       <use xlink:href="#DejaVuSans-31" transform="translate(83.789062 0)"/>
       <use xlink:href="#DejaVuSans-30" transform="translate(147.412109 0)"/>
       <use xlink:href="#DejaVuSans-2e" transform="translate(211.035156 0)"/>
       <use xlink:href="#DejaVuSans-39" transform="translate(242.822266 0)"/>
       <use xlink:href="#DejaVuSans-31" transform="translate(306.445312 0)"/>
      </g>
     </g>
    </g>
    <g id="ytick_5">
     <g id="line2d_19">
      <path d="M 90 280.479236 
L 648 280.479236 
" clip-path="url(#p7bdba74e35)" style="fill: none; stroke: #b0b0b0; stroke-width: 0.8; stroke-linecap: square"/>
     </g>
     <g id="line2d_20">
      <g>
       <use xlink:href="#md74a0ec2c5" x="90" y="280.479236" style="stroke: #000000; stroke-width: 0.8"/>
      </g>
     </g>
     <g id="text_11">
      <!-- −10.90 -->
      <g transform="translate(45.992188 284.278454) scale(0.1 -0.1)">
       <use xlink:href="#DejaVuSans-2212"/>
       <use xlink:href="#DejaVuSans-31" transform="translate(83.789062 0)"/>
       <use xlink:href="#DejaVuSans-30" transform="translate(147.412109 0)"/>
       <use xlink:href="#DejaVuSans-2e" transform="translate(211.035156 0)"/>
       <use xlink:href="#DejaVuSans-39" transform="translate(242.822266 0)"/>
       <use xlink:href="#DejaVuSans-30" transform="translate(306.445312 0)"/>
      </g>
     </g>
    </g>
    <g id="ytick_6">
     <g id="line2d_21">
      <path d="M 90 174.767019 
L 648 174.767019 
" clip-path="url(#p7bdba74e35)" style="fill: none; stroke: #b0b0b0; stroke-width: 0.8; stroke-linecap: square"/>
     </g>
     <g id="line2d_22">
      <g>
       <use xlink:href="#md74a0ec2c5" x="90" y="174.767019" style="stroke: #000000; stroke-width: 0.8"/>
      </g>
     </g>
     <g id="text_12">
      <!-- −10.89 -->
      <g transform="translate(45.992188 178.566238) scale(0.1 -0.1)">
       <use xlink:href="#DejaVuSans-2212"/>
       <use xlink:href="#DejaVuSans-31" transform="translate(83.789062 0)"/>
       <use xlink:href="#DejaVuSans-30" transform="translate(147.412109 0)"/>
       <use xlink:href="#DejaVuSans-2e" transform="translate(211.035156 0)"/>
       <use xlink:href="#DejaVuSans-38" transform="translate(242.822266 0)"/>
       <use xlink:href="#DejaVuSans-39" transform="translate(306.445312 0)"/>
      </g>
     </g>
    </g>
    <g id="text_13">
     <!-- Latitude (°) -->
     <g transform="translate(39.9125 464.889531) rotate(-90) scale(0.1 -0.1)">
      <defs>
       <path id="DejaVuSans-61" d="M 2194 1759 
Q 1497 1759 1228 1600 
Q 959 1441 959 1056 
Q 959 750 1161 570 
Q 1363 391 1709 391 
Q 2188 391 2477 730 
Q 2766 1069 2766 1631 
L 2766 1759 
L 2194 1759 
z
M 3341 1997 
L 3341 0 
L 2766 0 
L 2766 531 
Q 2569 213 2275 61 
Q 1981 -91 1556 -91 
Q 1019 -91 701 211 
Q 384 513 384 1019 
Q 384 1609 779 1909 
Q 1175 2209 1959 2209 
L 2766 2209 
L 2766 2266 
Q 2766 2663 2505 2880 
Q 2244 3097 1772 3097 
Q 1472 3097 1187 3025 
Q 903 2953 641 2809 
L 641 3341 
Q 956 3463 1253 3523 
Q 1550 3584 1831 3584 
Q 2591 3584 2966 3190 
Q 3341 2797 3341 1997 
z
" transform="scale(0.015625)"/>
      </defs>
      <use xlink:href="#DejaVuSans-4c"/>
      <use xlink:href="#DejaVuSans-61" transform="translate(55.712891 0)"/>
      <use xlink:href="#DejaVuSans-74" transform="translate(116.992188 0)"/>
      <use xlink:href="#DejaVuSans-69" transform="translate(156.201172 0)"/>
      <use xlink:href="#DejaVuSans-74" transform="translate(183.984375 0)"/>
      <use xlink:href="#DejaVuSans-75" transform="translate(223.193359 0)"/>
      <use xlink:href="#DejaVuSans-64" transform="translate(286.572266 0)"/>
      <use xlink:href="#DejaVuSans-65" transform="translate(350.048828 0)"/>
      <use xlink:href="#DejaVuSans-20" transform="translate(411.572266 0)"/>
      <use xlink:href="#DejaVuSans-28" transform="translate(443.359375 0)"/>
      <use xlink:href="#DejaVuSans-b0" transform="translate(482.373047 0)"/>
      <use xlink:href="#DejaVuSans-29" transform="translate(532.373047 0)"/>
     </g>
    </g>
   </g>
   <g id="patch_3">
    <path d="M 90 755.893196 
L 90 116.746804 
" style="fill: none; stroke: #000000; stroke-width: 0.8; stroke-linejoin: miter; stroke-linecap: square"/>
   </g>
   <g id="patch_4">
    <path d="M 648 755.893196 
L 648 116.746804 
" style="fill: none; stroke: #000000; stroke-width: 0.8; stroke-linejoin: miter; stroke-linecap: square"/>
   </g>
   <g id="patch_5">
    <path d="M 90 755.893196 
L 648 755.893196 
" style="fill: none; stroke: #000000; stroke-width: 0.8; stroke-linejoin: miter; stroke-linecap: square"/>
   </g>
   <g id="patch_6">
    <path d="M 90 116.746804 
L 648 116.746804 
" style="fill: none; stroke: #000000; stroke-width: 0.8; stroke-linejoin: miter; stroke-linecap: square"/>
   </g>
   <g id="legend_1">
    <g id="patch_7">
     <path d="M 279.8375 923.01435 
L 458.1625 923.01435 
Q 460.1625 923.01435 460.1625 921.01435 
L 460.1625 890.722475 
Q 460.1625 888.722475 458.1625 888.722475 
L 279.8375 888.722475 
Q 277.8375 888.722475 277.8375 890.722475 
L 277.8375 921.01435 
Q 277.8375 923.01435 279.8375 923.01435 
z
" style="fill: #ffffff; opacity: 0.8; stroke: #cccccc; stroke-linejoin: miter"/>
    </g>
    <g id="text_14">
     <!-- Legenda -->
     <g transform="translate(343.280625 901.8406) scale(0.12 -0.12)">
      <use xlink:href="#DejaVuSans-4c"/>
      <use xlink:href="#DejaVuSans-65" transform="translate(53.962891 0)"/>
      <use xlink:href="#DejaVuSans-67" transform="translate(115.486328 0)"/>
      <use xlink:href="#DejaVuSans-65" transform="translate(178.962891 0)"/>
      <use xlink:href="#DejaVuSans-6e" transform="translate(240.486328 0)"/>
      <use xlink:href="#DejaVuSans-64" transform="translate(303.865234 0)"/>
      <use xlink:href="#DejaVuSans-61" transform="translate(367.341797 0)"/>
     </g>
    </g>
    <g id="patch_8">
     <path style="fill: none; stroke: #000000; stroke-linejoin: miter"/>
    </g>
    <g id="text_15">
     <!-- Gleba Federal -->
     <g transform="translate(309.8375 916.934663) scale(0.1 -0.1)">
      <defs>
       <path id="DejaVuSans-47" d="M 3809 666 
L 3809 1919 
L 2778 1919 
L 2778 2438 
L 4434 2438 
L 4434 434 
Q 4069 175 3628 42 
Q 3188 -91 2688 -91 
Q 1594 -91 976 548 
Q 359 1188 359 2328 
Q 359 3472 976 4111 
Q 1594 4750 2688 4750 
Q 3144 4750 3555 4637 
Q 3966 4525 4313 4306 
L 4313 3634 
Q 3963 3931 3569 4081 
Q 3175 4231 2741 4231 
Q 1884 4231 1454 3753 
Q 1025 3275 1025 2328 
Q 1025 1384 1454 906 
Q 1884 428 2741 428 
Q 3075 428 3337 486 
Q 3600 544 3809 666 
z
" transform="scale(0.015625)"/>
       <path id="DejaVuSans-6c" d="M 603 4863 
L 1178 4863 
L 1178 0 
L 603 0 
L 603 4863 
z
" transform="scale(0.015625)"/>
       <path id="DejaVuSans-62" d="M 3116 1747 
Q 3116 2381 2855 2742 
Q 2594 3103 2138 3103 
Q 1681 3103 1420 2742 
Q 1159 2381 1159 1747 
Q 1159 1113 1420 752 
Q 1681 391 2138 391 
Q 2594 391 2855 752 
Q 3116 1113 3116 1747 
z
M 1159 2969 
Q 1341 3281 1617 3432 
Q 1894 3584 2278 3584 
Q 2916 3584 3314 3078 
Q 3713 2572 3713 1747 
Q 3713 922 3314 415 
Q 2916 -91 2278 -91 
Q 1894 -91 1617 61 
Q 1341 213 1159 525 
L 1159 0 
L 581 0 
L 581 4863 
L 1159 4863 
L 1159 2969 
z
" transform="scale(0.015625)"/>
       <path id="DejaVuSans-46" d="M 628 4666 
L 3309 4666 
L 3309 4134 
L 1259 4134 
L 1259 2759 
L 3109 2759 
L 3109 2228 
L 1259 2228 
L 1259 0 
L 628 0 
L 628 4666 
z
" transform="scale(0.015625)"/>
       <path id="DejaVuSans-72" d="M 2631 2963 
Q 2534 3019 2420 3045 
Q 2306 3072 2169 3072 
Q 1681 3072 1420 2755 
Q 1159 2438 1159 1844 
L 1159 0 
L 581 0 
L 581 3500 
L 1159 3500 
L 1159 2956 
Q 1341 3275 1631 3429 
Q 1922 3584 2338 3584 
Q 2397 3584 2469 3576 
Q 2541 3569 2628 3553 
L 2631 2963 
z
" transform="scale(0.015625)"/>
      </defs>
      <use xlink:href="#DejaVuSans-47"/>
      <use xlink:href="#DejaVuSans-6c" transform="translate(77.490234 0)"/>
      <use xlink:href="#DejaVuSans-65" transform="translate(105.273438 0)"/>
      <use xlink:href="#DejaVuSans-62" transform="translate(166.796875 0)"/>
      <use xlink:href="#DejaVuSans-61" transform="translate(230.273438 0)"/>
      <use xlink:href="#DejaVuSans-20" transform="translate(291.552734 0)"/>
      <use xlink:href="#DejaVuSans-46" transform="translate(323.339844 0)"/>
      <use xlink:href="#DejaVuSans-65" transform="translate(375.359375 0)"/>
      <use xlink:href="#DejaVuSans-64" transform="translate(436.882812 0)"/>
      <use xlink:href="#DejaVuSans-65" transform="translate(500.359375 0)"/>
      <use xlink:href="#DejaVuSans-72" transform="translate(561.882812 0)"/>
      <use xlink:href="#DejaVuSans-61" transform="translate(602.996094 0)"/>
      <use xlink:href="#DejaVuSans-6c" transform="translate(664.275391 0)"/>
     </g>
    </g>
    <g id="patch_9">
     <path d="M 399.045312 916.934663 
L 419.045312 916.934663 
L 419.045312 909.934663 
L 399.045312 909.934663 
z
" style="fill: #e0bd1f; opacity: 0.6"/>
    </g>
    <g id="text_16">
     <!-- SIGEF -->
     <g transform="translate(427.045312 916.934663) scale(0.1 -0.1)">
      <defs>
       <path id="DejaVuSans-53" d="M 3425 4513 
L 3425 3897 
Q 3066 4069 2747 4153 
Q 2428 4238 2131 4238 
Q 1616 4238 1336 4038 
Q 1056 3838 1056 3469 
Q 1056 3159 1242 3001 
Q 1428 2844 1947 2747 
L 2328 2669 
Q 3034 2534 3370 2195 
Q 3706 1856 3706 1288 
Q 3706 609 3251 259 
Q 2797 -91 1919 -91 
Q 1588 -91 1214 -16 
Q 841 59 441 206 
L 441 856 
Q 825 641 1194 531 
Q 1563 422 1919 422 
Q 2459 422 2753 634 
Q 3047 847 3047 1241 
Q 3047 1584 2836 1778 
Q 2625 1972 2144 2069 
L 1759 2144 
Q 1053 2284 737 2584 
Q 422 2884 422 3419 
Q 422 4038 858 4394 
Q 1294 4750 2059 4750 
Q 2388 4750 2728 4690 
Q 3069 4631 3425 4513 
z
" transform="scale(0.015625)"/>
       <path id="DejaVuSans-49" d="M 628 4666 
L 1259 4666 
L 1259 0 
L 628 0 
L 628 4666 
z
" transform="scale(0.015625)"/>
       <path id="DejaVuSans-45" d="M 628 4666 
L 3578 4666 
L 3578 4134 
L 1259 4134 
L 1259 2753 
L 3481 2753 
L 3481 2222 
L 1259 2222 
L 1259 531 
L 3634 531 
L 3634 0 
L 628 0 
L 628 4666 
z
" transform="scale(0.015625)"/>
      </defs>
      <use xlink:href="#DejaVuSans-53"/>
      <use xlink:href="#DejaVuSans-49" transform="translate(63.476562 0)"/>
      <use xlink:href="#DejaVuSans-47" transform="translate(92.96875 0)"/>
      <use xlink:href="#DejaVuSans-45" transform="translate(170.458984 0)"/>
      <use xlink:href="#DejaVuSans-46" transform="translate(233.642578 0)"/>
     </g>
    </g>
   </g>
  </g>
 </g>
 <defs>
  <clipPath id="p7bdba74e35">
   <rect x="90" y="116.746804" width="558" height="639.146393"/>
  </clipPath>
 </defs>
</svg>
