<?xml version="1.0" encoding="utf-8" standalone="no"?>
<!DOCTYPE svg PUBLIC "-//W3C//DTD SVG 1.1//EN"
  "http://www.w3.org/Graphics/SVG/1.1/DTD/svg11.dtd">
<svg xmlns:xlink="http://www.w3.org/1999/xlink" width="720pt" height="864pt" viewBox="0 0 720 864" xmlns="http://www.w3.org/2000/svg" version="1.1">
 <metadata>
  <rdf:RDF xmlns:dc="http://purl.org/dc/elements/1.1/" xmlns:cc="http://creativecommons.org/ns#" xmlns:rdf="http://www.w3.org/1999/02/22-rdf-syntax-ns#">
   <cc:Work>
    <dc:type rdf:resource="http://purl.org/dc/dcmitype/StillImage"/>
    <dc:date>2025-06-16T17:32:10.859720</dc:date>
    <dc:format>image/svg+xml</dc:format>
    <dc:creator>
     <cc:Agent>
      <dc:title>Matplotlib v3.10.1, https://matplotlib.org/</dc:title>
     </cc:Agent>
    </dc:creator>
   </cc:Work>
  </rdf:RDF>
 </metadata>
 <defs>
  <style type="text/css">*{stroke-linejoin: round; stroke-linecap: butt}</style>
 </defs>
 <g id="figure_1">
  <g id="patch_1">
   <path d="M 0 864 
L 720 864 
L 720 0 
L 0 0 
z
" style="fill: #ffffff"/>
  </g>
  <g id="axes_1">
   <g id="patch_2">
    <path d="M 174.513877 768.96 
L 563.486123 768.96 
L 563.486123 103.68 
L 174.513877 103.68 
z
" style="fill: #ffffff"/>
   </g>
   <g id="PatchCollection_1">
    <path d="M 332.997794 340.315183 
L 380.907652 343.314677 
L 378.135502 364.772064 
L 331.662138 361.869842 
L 332.997794 340.315183 
" clip-path="url(#p472a29d2ae)" style="fill: #e0bd1f; stroke: #0000ff; stroke-width: 0.5"/>
    <path d="M 202.259276 133.92 
L 271.909085 159.398767 
L 306.777415 179.124089 
L 299.405302 189.174682 
L 297.343968 198.079665 
L 295.742143 207.718491 
L 315.803672 217.669942 
L 316.178179 212.524713 
L 316.754464 207.652397 
L 317.825766 204.219411 
L 318.857862 198.57456 
L 321.278807 187.327359 
L 344.694353 200.572976 
L 347.617778 155.654108 
L 428.655005 161.659726 
L 438.250958 162.460615 
L 432.372332 252.961306 
L 432.357403 253.104851 
L 390.525125 250.512398 
L 371.453628 249.444239 
L 341.394504 247.903897 
L 337.804176 262.701178 
L 325.375348 261.767147 
L 325.086751 265.021636 
L 324.823373 284.975503 
L 323.025384 339.650291 
L 320.165475 339.022254 
L 316.210895 336.004809 
L 304.278025 335.628911 
L 290.103527 337.461104 
L 286.130286 346.283945 
L 287.139921 353.516363 
L 286.903643 354.120804 
L 285.567988 354.625151 
L 284.782492 355.21164 
L 283.942828 355.87745 
L 283.603795 356.475262 
L 283.678508 356.712305 
L 284.651728 356.681162 
L 285.531573 356.592389 
L 284.664808 357.298795 
L 284.297765 358.132732 
L 283.963372 357.88151 
L 283.44408 357.624645 
L 283.183492 358.24136 
L 283.280632 359.039393 
L 284.015692 359.945103 
L 284.65082 360.381417 
L 284.185662 360.765814 
L 283.841014 360.878182 
L 283.418862 360.55614 
L 283.006965 360.093374 
L 282.576373 359.663656 
L 281.832907 359.532384 
L 281.110928 360.102826 
L 280.682219 360.268097 
L 280.338512 360.762958 
L 279.938753 361.210628 
L 279.349388 361.759344 
L 278.550812 362.227788 
L 278.051123 363.059821 
L 277.514984 363.084368 
L 277.684988 362.709423 
L 277.720462 361.827343 
L 277.073195 361.457124 
L 276.092511 361.372125 
L 276.309186 360.854587 
L 276.127985 360.031053 
L 275.212666 359.478563 
L 274.35898 359.264163 
L 273.944292 358.863718 
L 273.67624 358.105362 
L 274.533658 358.017508 
L 274.881097 357.733239 
L 274.656016 357.174153 
L 274.092811 356.615033 
L 273.096222 356.332668 
L 272.176229 356.891754 
L 271.61114 357.486743 
L 271.138518 358.11291 
L 270.563174 358.406631 
L 270.213852 358.321632 
L 270.04294 357.834285 
L 269.993445 357.322424 
L 270.119536 356.548938 
L 270.013048 355.631907 
L 269.503103 355.631907 
L 268.382273 355.767904 
L 268.131974 356.011544 
L 267.848017 356.730257 
L 267.320318 357.738917 
L 266.83929 358.220586 
L 266.159341 358.971395 
L 265.177715 359.615479 
L 264.289464 360.303967 
L 263.745861 360.485319 
L 263.504909 360.204824 
L 263.962569 359.902604 
L 264.419287 359.365209 
L 264.36885 358.823123 
L 264.569654 358.360358 
L 265.271089 358.134636 
L 265.671789 357.732287 
L 265.61483 357.1987 
L 265.136593 356.882302 
L 265.129128 356.616937 
L 265.461638 356.143768 
L 265.440152 355.539326 
L 264.97597 355.112464 
L 265.158078 354.899016 
L 265.583055 354.829147 
L 265.618562 354.305931 
L 265.665266 353.737359 
L 265.611098 353.340722 
L 265.762407 352.819375 
L 265.285111 352.358514 
L 264.59114 352.577606 
L 263.870102 352.979003 
L 263.198559 353.273675 
L 262.408389 352.862827 
L 261.85359 352.570058 
L 261.086755 352.657878 
L 260.588007 353.414365 
L 260.45351 352.774054 
L 260.359161 352.172469 
L 260.050927 351.434852 
L 259.516705 351.158131 
L 259.38779 350.65477 
L 260.389994 350.635867 
L 261.388432 350.970217 
L 261.758299 350.381823 
L 261.768588 349.306117 
L 261.099835 348.685628 
L 260.71783 348.234184 
L 259.879074 347.603325 
L 259.153362 347.193429 
L 258.302467 346.340622 
L 258.004523 344.902244 
L 258.702226 344.559428 
L 258.528523 343.731169 
L 258.222172 343.185275 
L 258.224022 342.768783 
L 258.597621 342.204019 
L 259.414891 342.027426 
L 260.481519 341.615659 
L 261.267015 341.130216 
L 262.192623 340.834592 
L 263.17519 340.834592 
L 264.048479 340.94509 
L 264.911512 341.008396 
L 265.432688 341.336082 
L 265.788533 341.163264 
L 265.751176 340.306683 
L 266.208836 339.317845 
L 266.281699 338.242138 
L 266.279816 337.290155 
L 266.121984 336.388254 
L 265.793207 335.581686 
L 265.764256 334.848829 
L 265.3262 334.449337 
L 264.870423 334.608012 
L 264.593965 335.346546 
L 264.173662 335.931132 
L 263.316244 335.195419 
L 262.824926 334.58156 
L 262.537271 334.152794 
L 262.238385 333.57953 
L 261.986204 333.154538 
L 261.241797 333.435951 
L 260.66272 333.727802 
L 260.016395 334.035666 
L 259.155245 334.331291 
L 258.393084 334.444611 
L 258.096989 333.453903 
L 258.237102 332.46605 
L 258.422035 331.735982 
L 257.95876 331.302489 
L 257.481498 330.891675 
L 256.766983 330.442135 
L 256.264469 329.952918 
L 256.243924 329.410797 
L 256.05805 328.796939 
L 255.672312 328.364398 
L 254.971819 327.887455 
L 254.718695 327.290562 
L 254.318937 327.479462 
L 254.937253 326.654977 
L 254.331075 326.47835 
L 253.791238 326.671977 
L 253.15611 326.612478 
L 252.40518 326.456659 
L 251.834476 326.37353 
L 251.498234 326.156308 
L 251.275944 325.656721 
L 250.849118 325.061732 
L 250.382111 324.74156 
L 249.85532 324.553611 
L 249.067033 324.432743 
L 248.175991 325.099505 
L 247.881779 326.015585 
L 247.687498 325.838992 
L 247.570755 325.354501 
L 247.325096 324.399696 
L 246.657285 323.928396 
L 246.476084 323.39481 
L 246.388292 322.361603 
L 247.590358 322.415424 
L 248.297408 323.108637 
L 248.80083 323.490212 
L 249.576071 323.689483 
L 250.10656 323.331537 
L 250.71647 322.534421 
L 250.845385 322.630776 
L 250.623096 322.913141 
L 250.871512 323.413714 
L 251.454354 323.03972 
L 252.175392 322.372924 
L 252.606925 321.829886 
L 252.93567 321.227349 
L 252.647073 320.825952 
L 252.151115 320.547361 
L 252.035313 320.561539 
L 251.343192 321.077174 
L 250.956514 321.455893 
L 250.35316 321.351073 
L 250.185039 321.40112 
L 250.02065 321.075304 
L 249.97862 320.522814 
L 250.057065 319.74178 
L 250.966803 318.497946 
L 249.817963 318.920117 
L 249.116528 318.881391 
L 249.346283 317.828362 
L 249.617159 317.241873 
L 249.475198 316.608158 
L 249.333203 315.567403 
L 248.702748 315.546629 
L 247.694021 315.781769 
L 247.050521 314.109203 
L 245.835375 312.672729 
L 245.034916 311.810471 
L 243.807632 311.151257 
L 242.814775 310.615766 
L 242.005003 310.353223 
L 240.977581 310.009455 
L 239.514927 309.887601 
L 238.689284 308.87612 
L 236.437401 308.221631 
L 235.625746 308.094134 
L 234.875724 308.453983 
L 234.64876 309.296386 
L 234.309727 310.125597 
L 233.875403 311.053984 
L 233.397199 311.750972 
L 232.951678 312.233559 
L 232.228757 312.257189 
L 231.168652 312.195786 
L 230.577437 311.886017 
L 230.279493 311.51012 
L 230.991184 311.330705 
L 231.721603 311.715069 
L 232.266114 311.175804 
L 231.981249 310.652588 
L 231.576817 309.956552 
L 230.951036 309.61751 
L 230.781032 308.527626 
L 229.986222 307.915637 
L 229.44541 307.533144 
L 229.506136 306.773836 
L 229.27544 305.724581 
L 229.705998 305.120139 
L 230.226232 304.953916 
L 230.576496 304.313606 
L 230.438267 303.883888 
L 229.803139 303.473073 
L 229.345479 302.868632 
L 228.931699 302.135741 
L 228.327405 301.377385 
L 228.121927 300.906119 
L 226.958159 300.429176 
L 226.120343 300.262001 
L 225.607574 300.176051 
L 224.951901 300.190228 
L 225.183539 299.689689 
L 225.476809 299.253341 
L 225.025707 298.56958 
L 224.406449 298.30231 
L 224.765119 297.623275 
L 225.196619 297.040559 
L 225.549673 296.265203 
L 225.878451 295.391589 
L 226.601372 294.539734 
L 226.493942 294.078838 
L 225.392749 293.690667 
L 224.798743 293.425302 
L 222.859734 294.650232 
L 222.569255 295.587085 
L 222.176994 296.744968 
L 221.891188 297.720547 
L 221.479291 298.864252 
L 220.945036 298.08604 
L 220.408898 297.458004 
L 220.010081 296.4522 
L 219.611264 295.77976 
L 218.666053 295.190414 
L 218.303651 295.130916 
L 219.360965 294.008936 
L 219.055522 292.982358 
L 219.59351 293.149533 
L 220.465891 293.287401 
L 221.557737 292.984262 
L 220.527524 291.676204 
L 219.70373 290.726125 
L 219.223643 290.21423 
L 218.445612 289.660822 
L 217.700297 289.638145 
L 216.91386 289.276425 
L 216.90078 288.329168 
L 217.535909 288.34049 
L 218.878995 288.081721 
L 219.328248 287.928723 
L 220.103489 287.813499 
L 220.776915 287.728501 
L 221.400812 287.397007 
L 222.147102 287.033418 
L 222.768209 286.528153 
L 223.585446 285.77731 
L 223.785342 285.089775 
L 224.172962 284.367288 
L 224.639969 283.438934 
L 225.033171 282.765542 
L 225.286294 282.130876 
L 225.531919 281.363068 
L 225.491772 280.859673 
L 224.639028 280.7709 
L 224.455944 280.007818 
L 224.795919 279.678194 
L 224.216842 279.519553 
L 224.11412 278.742293 
L 224.612868 278.147304 
L 223.983355 278.154852 
L 222.402075 280.099413 
L 222.074239 280.722757 
L 222.440373 281.232748 
L 222.417004 281.415971 
L 221.835137 280.752983 
L 221.639914 280.119268 
L 221.631508 279.306105 
L 221.316752 278.756437 
L 221.279395 277.699634 
L 221.32889 277.045146 
L 221.197218 276.193257 
L 220.460275 276.166839 
L 219.495462 276.574832 
L 218.835115 276.999824 
L 217.645187 277.540959 
L 217.880557 276.929922 
L 217.791823 276.476608 
L 217.338837 276.062937 
L 217.062345 275.829667 
L 216.272175 275.643623 
L 215.759406 275.500995 
L 214.949633 275.304581 
L 215.109349 274.667092 
L 213.526219 274.399789 
L 213.163817 274.089103 
L 212.340023 273.639529 
L 211.793629 272.844317 
L 211.076323 271.68079 
L 211.243503 270.906352 
L 212.268101 270.894078 
L 213.33567 270.864805 
L 213.104974 270.238672 
L 212.212049 270.176317 
L 211.36492 270.079045 
L 210.505619 270.010094 
L 209.784581 269.752277 
L 208.288303 268.929696 
L 208.03518 268.456526 
L 208.663785 267.69154 
L 209.234455 267.094647 
L 209.700521 266.696106 
L 210.006871 266.537431 
L 209.300762 265.940572 
L 208.809479 265.029184 
L 208.247214 264.573966 
L 207.659732 263.586114 
L 207.471032 262.83245 
L 207.027394 262.425409 
L 206.89478 261.392202 
L 207.303853 260.575265 
L 208.220113 259.673363 
L 209.866759 257.210277 
L 210.685913 256.823058 
L 211.712359 256.481194 
L 211.658191 255.792707 
L 212.645432 255.38944 
L 213.470167 255.582081 
L 214.499439 255.83235 
L 215.389539 255.866349 
L 216.475804 255.867301 
L 217.352825 255.612306 
L 218.229879 255.177862 
L 219.171358 254.219283 
L 219.334805 253.357025 
L 219.364697 252.74031 
L 219.023781 252.142499 
L 219.59351 251.433203 
L 220.365018 250.996889 
L 221.172 250.809893 
L 221.675422 250.108179 
L 221.891188 249.429143 
L 221.701581 248.603706 
L 221.162652 248.024765 
L 222.359103 247.256957 
L 222.882162 248.055942 
L 223.290326 248.318485 
L 223.832046 247.701771 
L 223.357575 246.770595 
L 222.924192 246.118929 
L 222.484253 245.452167 
L 221.731473 245.302944 
L 220.935688 245.460667 
L 220.048379 245.623116 
L 219.052731 245.931933 
L 218.327927 245.65239 
L 218.38492 244.893047 
L 217.779684 244.16019 
L 217.143615 244.245189 
L 216.910128 244.718324 
L 216.627113 244.238559 
L 216.498231 243.665295 
L 216.588815 242.800215 
L 215.629583 242.398818 
L 215.792122 241.579059 
L 216.443121 240.86225 
L 216.805523 240.141633 
L 217.51069 239.641094 
L 217.638631 239.074426 
L 217.389273 238.727836 
L 217.866536 237.957172 
L 218.389594 237.299862 
L 218.71928 237.620952 
L 218.775331 238.234845 
L 219.223643 238.446389 
L 219.603799 238.025171 
L 219.645829 237.244137 
L 219.601916 237.004271 
L 220.317372 237.06377 
L 220.147368 236.153335 
L 219.843842 235.325994 
L 219.52532 234.574233 
L 218.899539 234.033099 
L 217.908566 233.419206 
L 217.245429 233.115116 
L 216.608418 232.631542 
L 215.829479 232.274549 
L 215.567949 231.588917 
L 214.934704 231.472741 
L 214.435015 230.907025 
L 214.990722 230.930655 
L 215.30642 230.765384 
L 215.487621 230.249715 
L 214.548026 229.982446 
L 213.968008 229.794497 
L 213.571981 229.775594 
L 214.031524 229.008738 
L 213.876449 228.395797 
L 213.504733 228.012352 
L 214.19682 227.758308 
L 214.166021 226.955549 
L 213.988552 226.476735 
L 213.768111 225.883616 
L 213.968008 224.854183 
L 213.827895 224.076923 
L 213.366504 223.308162 
L 213.97174 222.802898 
L 213.844707 221.816915 
L 213.871809 221.339054 
L 213.522486 220.942383 
L 212.860257 220.964109 
L 213.184361 220.396489 
L 213.542089 220.044221 
L 214.252872 219.613585 
L 214.69651 219.041239 
L 215.199966 218.398107 
L 215.595958 218.11003 
L 215.567949 217.568896 
L 215.204606 217.057001 
L 214.80394 216.454464 
L 214.049244 215.8812 
L 213.838184 214.701592 
L 214.172544 213.606063 
L 213.422522 212.92798 
L 212.766849 212.572856 
L 212.782753 211.778596 
L 213.413208 211.533053 
L 213.953986 211.425377 
L 213.559843 210.852113 
L 212.970477 210.611295 
L 212.722028 210.092805 
L 212.340965 209.374092 
L 212.026208 209.007646 
L 211.665655 208.682782 
L 210.944617 208.46556 
L 210.887658 207.509803 
L 210.321628 207.211357 
L 209.79951 207.882845 
L 209.679976 206.714592 
L 209.951761 206.375516 
L 211.200531 205.82493 
L 210.75222 204.949445 
L 210.346846 204.328957 
L 209.85183 203.878465 
L 208.891656 203.23625 
L 208.014635 203.46765 
L 207.032068 203.164478 
L 205.834675 202.67339 
L 205.088386 202.323945 
L 204.416842 202.243672 
L 203.724755 202.542085 
L 202.87386 201.879097 
L 202.383518 200.91297 
L 202.618887 200.022356 
L 203.346482 199.674814 
L 204.064729 199.417949 
L 204.726925 199.742813 
L 205.160308 198.997649 
L 204.952039 198.157116 
L 204.419633 197.457306 
L 204.023641 196.361778 
L 203.732219 195.928286 
L 204.307564 195.061302 
L 204.368289 194.474812 
L 204.01241 193.978965 
L 203.42866 193.571925 
L 203.068141 192.477348 
L 202.921505 192.059904 
L 202.795415 191.231645 
L 202.141591 191.002149 
L 202.502144 190.157808 
L 201.513961 189.359774 
L 202.182714 189.375822 
L 202.128545 188.27652 
L 202.726283 187.913849 
L 202.297574 186.755047 
L 202.099561 186.016513 
L 202.49747 185.545247 
L 203.197964 185.175028 
L 203.569713 184.507314 
L 203.980669 184.628216 
L 204.565361 183.977502 
L 204.736273 182.991519 
L 204.104877 182.135857 
L 203.480038 181.86954 
L 202.940167 182.112261 
L 202.634758 181.500272 
L 202.30598 180.81838 
L 201.621357 180.27439 
L 201.088985 180.518064 
L 200.242764 180.166714 
L 199.381613 179.622724 
L 198.797863 179.519808 
L 198.893121 180.414162 
L 198.144981 182.031037 
L 197.11571 182.476803 
L 196.736496 181.706138 
L 196.7832 181.212195 
L 196.11633 180.900557 
L 195.869764 180.821202 
L 195.290654 181.699543 
L 195.202861 180.921331 
L 195.053435 179.516 
L 194.741469 178.834142 
L 194.136233 177.750888 
L 193.679515 176.783775 
L 193.674841 176.160464 
L 193.85231 175.51825 
L 194.327723 175.284028 
L 194.842342 175.122531 
L 195.368191 174.667313 
L 194.911473 173.857958 
L 194.307145 173.43011 
L 193.81307 172.648124 
L 193.953183 172.20144 
L 194.554687 171.599821 
L 195.414895 170.977462 
L 195.759544 170.388117 
L 196.336771 169.770484 
L 196.733705 168.598423 
L 197.263287 168.248059 
L 197.591123 168.016659 
L 197.950734 166.527316 
L 197.34923 165.525252 
L 196.904617 165.036987 
L 196.015458 164.249357 
L 194.930135 163.98491 
L 193.731801 164.034005 
L 193.474945 163.813961 
L 192.957535 163.76014 
L 192.939782 160.822015 
L 193.061199 158.812277 
L 192.194434 156.188647 
L 194.122212 154.466034 
L 194.960027 152.12572 
L 195.797842 150.808244 
L 196.330214 148.748459 
L 197.226872 145.830189 
L 198.097369 143.433232 
L 199.272335 142.192255 
L 200.176457 140.371384 
L 201.455119 138.785686 
L 201.967889 136.981849 
L 201.775491 135.596374 
L 202.259276 133.92 
" clip-path="url(#p472a29d2ae)" style="fill: #e0bd1f; stroke: #0000ff; stroke-width: 0.5"/>
    <path d="M 369.88731 271.194429 
L 381.446841 271.737006 
L 389.14387 272.027484 
L 388.168677 292.191492 
L 393.359187 292.627902 
L 393.21646 300.117869 
L 392.994811 313.192523 
L 414.360587 307.16217 
L 430.225782 302.549681 
L 428.878755 324.187711 
L 428.640984 327.722184 
L 427.430512 346.151722 
L 380.907652 343.314677 
L 332.997794 340.315183 
L 323.025384 339.650291 
L 324.822517 285.110897 
L 349.118731 286.860565 
L 349.058947 289.017656 
L 361.443895 290.022508 
L 369.88731 271.194429 
" clip-path="url(#p472a29d2ae)" style="fill: #e0bd1f; stroke: #0000ff; stroke-width: 0.5"/>
    <path d="M 390.525125 250.512398 
L 432.357403 253.104851 
L 433.275823 253.020359 
L 432.796892 260.402342 
L 432.772133 260.676349 
L 432.292084 268.500386 
L 414.044125 267.455719 
L 412.415977 291.936992 
L 430.781103 293.227328 
L 430.543324 297.441669 
L 430.535296 297.77032 
L 430.225782 302.549681 
L 414.360587 307.16217 
L 392.994811 313.192523 
L 393.21646 300.117869 
L 393.359187 292.627902 
L 388.168677 292.191492 
L 389.14387 272.027484 
L 390.525125 250.512398 
" clip-path="url(#p472a29d2ae)" style="fill: #e0bd1f; stroke: #0000ff; stroke-width: 0.5"/>
    <path d="M 433.275823 253.020359 
L 464.026757 255.308215 
L 460.989346 295.336816 
L 430.781103 293.227328 
L 432.292084 268.500386 
L 432.772133 260.676349 
L 432.796892 260.402342 
L 433.275823 253.020359 
" clip-path="url(#p472a29d2ae)" style="fill: #e0bd1f; stroke: #0000ff; stroke-width: 0.5"/>
    <path d="M 341.394504 247.903897 
L 371.454569 249.445191 
L 369.88731 271.194429 
L 361.443895 290.022508 
L 349.058947 289.017656 
L 349.118731 286.860565 
L 340.489441 262.994899 
L 337.804176 262.701178 
L 341.394504 247.903897 
" clip-path="url(#p472a29d2ae)" style="fill: #e0bd1f; stroke: #0000ff; stroke-width: 0.5"/>
    <path d="M 414.044125 267.455719 
L 432.292084 268.500386 
L 430.781103 293.227328 
L 412.415977 291.936992 
L 414.044125 267.455719 
" clip-path="url(#p472a29d2ae)" style="fill: #e0bd1f; stroke: #0000ff; stroke-width: 0.5"/>
    <path d="M 459.831193 323.444857 
L 481.347911 323.662079 
L 491.18579 330.9559 
L 489.836147 349.952105 
L 532.579104 352.56251 
L 506.605292 389.606712 
L 505.784323 390.789143 
L 507.797103 398.425779 
L 516.748614 432.98806 
L 519.881283 445.08239 
L 526.887261 472.398076 
L 541.793052 474.557989 
L 542.175057 474.589132 
L 545.805566 475.139752 
L 538.478274 564.220968 
L 537.812313 572.327 
L 536.99975 581.826973 
L 534.49192 613.064861 
L 533.013395 632.765636 
L 532.245653 642.779374 
L 530.866118 660.995497 
L 526.401559 726.534994 
L 522.714124 725.876732 
L 519.427355 728.328461 
L 519.488989 732.814476 
L 518.442905 734.115905 
L 514.235202 733.558689 
L 514.48271 731.584855 
L 513.385249 730.491196 
L 513.926061 729.749806 
L 512.737041 727.813745 
L 510.964304 726.688943 
L 510.819552 724.759478 
L 507.996024 723.482597 
L 506.005671 724.65085 
L 505.952444 727.4303 
L 504.656028 727.579523 
L 503.709876 722.791287 
L 499.626414 721.181042 
L 496.225693 722.218941 
L 495.016162 723.825413 
L 496.23504 725.773781 
L 498.746569 728.152787 
L 496.620778 729.770579 
L 493.371365 729.171816 
L 492.400936 729.94248 
L 491.564063 735.6317 
L 486.734312 735.555201 
L 485.494889 738.72 
L 483.654903 738.386602 
L 485.670474 734.137631 
L 488.74615 730.277748 
L 488.222184 728.174512 
L 484.969039 727.307528 
L 481.400197 725.445109 
L 483.529754 721.54368 
L 485.665801 716.745992 
L 482.817088 716.186906 
L 482.0671 712.66797 
L 479.524704 713.041011 
L 478.445938 716.147229 
L 476.682549 712.86061 
L 473.006277 710.600603 
L 469.750341 711.578085 
L 461.874806 711.033143 
L 457.479379 712.750112 
L 452.750501 712.105076 
L 449.743923 708.878908 
L 448.083255 704.677162 
L 450.776926 699.792572 
L 449.688813 695.44065 
L 450.292199 693.674586 
L 454.267323 692.510107 
L 454.854806 690.271791 
L 453.523858 687.855965 
L 449.322678 684.657201 
L 445.676332 682.292339 
L 443.100346 681.614256 
L 440.620559 684.015904 
L 438.480746 683.775087 
L 438.585351 679.24749 
L 437.263717 676.078951 
L 438.859019 672.730012 
L 443.540252 670.144154 
L 442.866825 667.382656 
L 439.449292 667.201337 
L 438.161316 665.633592 
L 440.684075 661.670759 
L 442.350324 658.214177 
L 441.191229 654.773609 
L 438.288348 654.211668 
L 435.496595 651.766568 
L 432.96543 649.725652 
L 461.380698 554.108972 
L 467.011849 519.480597 
L 473.331322 521.904005 
L 476.610627 525.502262 
L 477.959328 527.061542 
L 490.992451 531.132017 
L 500.692101 522.949486 
L 507.004109 523.52275 
L 514.225855 527.465727 
L 521.132844 499.650454 
L 526.73222 472.403719 
L 474.215841 465.04853 
L 447.384611 461.644817 
L 447.934737 457.852934 
L 435.606815 441.88077 
L 430.34274 424.910384 
L 429.174298 421.174225 
L 428.601744 419.091763 
L 428.450435 418.539273 
L 428.012379 419.987068 
L 427.66309 419.956843 
L 427.02887 420.35824 
L 426.097681 419.812346 
L 425.020764 420.268515 
L 424.05595 421.422591 
L 423.772935 422.486023 
L 423.089253 422.728745 
L 422.537244 422.425573 
L 422.646523 421.764488 
L 422.224371 421.001372 
L 422.121615 420.344062 
L 421.555618 420.043745 
L 421.040966 420.155161 
L 420.436671 419.614027 
L 419.67451 419.245678 
L 419.063693 419.844475 
L 418.583606 419.096489 
L 419.160799 418.648819 
L 419.330804 418.022652 
L 418.650854 417.919702 
L 417.720573 417.976379 
L 416.515715 418.057603 
L 415.940371 418.442918 
L 415.317381 418.338098 
L 414.672906 417.426711 
L 414.126512 417.032896 
L 413.271918 417.348342 
L 412.461171 417.327568 
L 411.690638 417.729883 
L 411.943761 418.378693 
L 410.772495 417.983009 
L 411.218957 417.037622 
L 410.902318 416.590904 
L 410.358748 416.383133 
L 409.506004 416.376538 
L 408.58507 416.529535 
L 408.490721 416.25754 
L 408.453364 415.415103 
L 407.652906 415.287605 
L 406.709578 416.346312 
L 405.621464 416.350086 
L 404.981662 416.654177 
L 404.627666 417.351164 
L 404.740677 418.051007 
L 405.305766 418.00283 
L 404.991951 418.354146 
L 404.319466 418.358872 
L 403.623613 418.018878 
L 402.54952 417.949009 
L 401.895697 418.735687 
L 400.826278 419.182405 
L 400.231298 419.303307 
L 399.808204 418.930266 
L 399.111442 419.4459 
L 398.261489 419.965343 
L 397.132286 419.410031 
L 396.724122 418.69414 
L 395.684561 418.734769 
L 395.122297 419.525255 
L 394.638478 420.298741 
L 393.903419 420.363884 
L 393.045059 419.921892 
L 392.904039 419.507303 
L 392.21565 419.760395 
L 391.248046 419.909618 
L 390.836149 420.697282 
L 389.964709 420.489511 
L 389.479949 420.546154 
L 389.139033 419.978569 
L 388.549701 419.130488 
L 389.594843 418.536417 
L 389.544407 417.756335 
L 388.653364 417.539113 
L 388.004215 417.740287 
L 387.588586 417.167023 
L 386.787219 417.085799 
L 385.934475 417.456018 
L 384.901472 417.735561 
L 384.135579 418.342824 
L 383.758248 419.194679 
L 383.668572 418.404193 
L 382.446903 415.91282 
L 381.383973 414.297849 
L 382.332009 413.388365 
L 381.873408 411.992487 
L 381.313934 411.441901 
L 380.823592 411.35782 
L 380.665726 410.630641 
L 380.034364 410.395467 
L 379.430977 410.902636 
L 378.381161 411.055633 
L 377.43595 410.895054 
L 377.476098 410.380338 
L 378.149524 409.819348 
L 378.057999 409.301809 
L 377.059527 409.381164 
L 376.883 408.69832 
L 377.721756 406.323089 
L 376.966152 406.291911 
L 375.159758 406.941708 
L 374.052983 407.018206 
L 373.318831 407.439391 
L 372.541741 407.3922 
L 372.738813 406.843483 
L 372.545474 406.258864 
L 372.215788 405.177513 
L 371.582509 403.524769 
L 370.462654 404.191531 
L 370.421565 403.557817 
L 370.984771 403.075195 
L 370.899769 402.624703 
L 370.337505 402.271484 
L 369.275517 402.249792 
L 368.840285 402.138342 
L 367.735359 402.451885 
L 367.485027 401.94662 
L 367.708258 401.379 
L 368.052906 400.539419 
L 368.07066 399.81598 
L 367.747497 399.567615 
L 367.307591 399.02172 
L 367.034832 398.126415 
L 366.680869 397.80529 
L 366.499668 397.008209 
L 366.157811 396.662537 
L 364.83621 396.697488 
L 363.782629 396.777761 
L 362.96445 396.446267 
L 362.279827 396.443445 
L 361.775464 396.934532 
L 361.376647 396.600216 
L 360.968482 397.310429 
L 360.552853 397.935644 
L 360.239004 398.850772 
L 359.814028 398.820546 
L 359.353577 398.100915 
L 358.559676 398.14151 
L 358.306552 397.725018 
L 358.701637 397.443571 
L 358.520436 396.949662 
L 357.878785 396.827808 
L 357.147458 396.851438 
L 356.398377 396.094951 
L 356.205979 396.736214 
L 355.796873 396.994983 
L 355.907093 398.017787 
L 355.703465 398.536277 
L 355.018842 398.354958 
L 353.813985 398.032916 
L 352.985517 397.672149 
L 352.667029 397.308525 
L 353.323643 397.111159 
L 354.39212 397.031804 
L 354.630314 396.49067 
L 354.125951 396.008049 
L 353.519773 395.801231 
L 353.066787 395.337513 
L 353.561803 395.096695 
L 353.761666 394.314709 
L 353.274114 394.120131 
L 352.808049 394.380804 
L 351.681637 394.348709 
L 352.349448 393.510046 
L 352.359737 392.788511 
L 351.711529 392.820606 
L 351.146474 393.069958 
L 350.557108 393.47795 
L 349.873426 393.555367 
L 349.765056 392.801737 
L 349.081374 393.131327 
L 348.409831 393.065232 
L 348.188449 392.380518 
L 348.978618 392.168974 
L 348.873106 391.238683 
L 348.631179 390.900593 
L 347.48234 391.840302 
L 347.293674 391.402084 
L 347.030296 391.216991 
L 346.401724 391.696757 
L 345.85718 391.186766 
L 344.932514 391.110267 
L 344.523407 392.105667 
L 344.66352 395.005067 
L 344.282456 394.607478 
L 343.943389 394.053084 
L 343.674396 393.073732 
L 343.192459 392.484386 
L 343.06731 391.777981 
L 342.600303 390.660693 
L 341.712993 390.764595 
L 340.889199 390.673001 
L 340.65383 390.341507 
L 340.153199 390.086512 
L 339.493794 390.330151 
L 338.752211 390.949688 
L 338.457999 390.897771 
L 338.296401 391.431357 
L 338.172193 392.357841 
L 337.925593 391.913979 
L 337.016797 391.369036 
L 336.403155 391.233991 
L 335.556026 390.935544 
L 334.567844 391.023365 
L 333.546037 391.082864 
L 333.123884 390.616324 
L 332.557854 390.107285 
L 331.814389 389.982609 
L 331.60612 390.669193 
L 331.349265 390.710774 
L 331.038241 389.73234 
L 330.687977 388.962628 
L 329.275759 389.696437 
L 329.183292 390.265926 
L 328.510808 390.292378 
L 328.50146 391.019591 
L 328.056881 390.82219 
L 328.019524 389.968432 
L 327.255514 389.110899 
L 326.734339 388.292092 
L 326.281353 388.361961 
L 325.451944 388.161738 
L 324.814025 388.52441 
L 324.063061 388.413912 
L 323.96313 387.840648 
L 323.85291 386.967986 
L 323.55779 386.029229 
L 323.162705 385.348289 
L 322.801245 385.201922 
L 323.079553 384.829798 
L 322.699431 384.19894 
L 321.573019 384.112989 
L 320.483022 384.464305 
L 319.652705 384.529482 
L 319.584515 383.964718 
L 319.902063 383.090186 
L 319.085767 382.747336 
L 318.813041 381.762306 
L 317.94066 381.104995 
L 317.338215 381.292944 
L 317.967761 382.2827 
L 318.089178 382.568839 
L 317.67634 383.246005 
L 316.846023 383.650224 
L 316.429453 383.506678 
L 316.478006 382.567921 
L 315.948424 381.786853 
L 315.188147 381.891707 
L 315.375871 382.65479 
L 314.99669 382.891833 
L 314.720198 382.403568 
L 314.185943 381.985206 
L 313.918832 381.634808 
L 314.250401 381.245719 
L 314.740743 380.39196 
L 313.708681 379.449395 
L 312.944671 379.32098 
L 311.575425 379.213304 
L 310.760037 379.471121 
L 310.197739 379.210482 
L 309.686852 379.08108 
L 309.648554 380.08974 
L 309.384234 380.05574 
L 308.580043 379.247303 
L 308.314782 378.756216 
L 307.813243 378.421866 
L 307.190253 378.323642 
L 306.724188 377.185614 
L 306.188991 377.588881 
L 305.239106 377.450061 
L 304.154725 377.07702 
L 303.791415 376.398902 
L 303.398179 375.719867 
L 303.919355 374.970928 
L 303.589669 373.989672 
L 303.863303 373.397504 
L 303.577497 373.17746 
L 303.183354 372.591923 
L 302.645366 372.396426 
L 302.486593 372.187704 
L 303.223535 371.114854 
L 303.001245 370.830551 
L 302.01397 370.930679 
L 302.013063 370.382915 
L 302.296986 370.082564 
L 302.227888 369.510253 
L 301.698306 369.548026 
L 300.880094 369.966422 
L 300.298227 370.054243 
L 299.676178 369.120212 
L 299.769553 368.767944 
L 300.405622 368.367499 
L 301.307862 368.639494 
L 301.512431 368.351451 
L 300.939878 367.484467 
L 300.061916 367.97841 
L 299.209171 368.182406 
L 298.424584 368.244727 
L 297.387848 368.52427 
L 297.082439 368.036005 
L 297.129143 367.394743 
L 297.005843 366.820527 
L 296.678006 365.53705 
L 297.005843 364.843837 
L 296.936711 363.734131 
L 297.163675 363.171271 
L 297.697022 362.039839 
L 297.75025 361.024584 
L 297.201065 360.535366 
L 295.726239 359.607931 
L 295.07524 359.516337 
L 294.391558 359.246212 
L 294.193545 358.6484 
L 293.80875 358.237586 
L 292.740239 358.325406 
L 291.991158 358.448178 
L 291.85572 358.843897 
L 292.739297 359.517255 
L 293.323048 359.888426 
L 293.26703 360.252967 
L 291.960325 359.75338 
L 290.916124 359.418112 
L 289.87189 359.225438 
L 289.726196 358.236634 
L 289.711267 357.285603 
L 289.911129 356.35249 
L 289.267595 354.976467 
L 288.73149 354.385251 
L 287.355688 354.136852 
L 286.903643 354.120804 
L 287.139921 353.516363 
L 286.130286 346.283945 
L 290.103527 337.461104 
L 304.278025 335.628911 
L 316.210895 336.004809 
L 320.165475 339.022254 
L 323.025384 339.650291 
L 332.997794 340.315183 
L 331.662138 361.869842 
L 378.135502 364.772064 
L 380.907652 343.314677 
L 427.430512 346.151722 
L 428.640984 327.722184 
L 459.765827 328.0395 
L 459.831193 323.444857 
" clip-path="url(#p472a29d2ae)" style="fill: #e0bd1f; stroke: #0000ff; stroke-width: 0.5"/>
   </g>
   <g id="PatchCollection_2">
    <path d="M 427.430512 346.151722 
L 380.907652 343.314677 
L 332.997794 340.315183 
L 323.025384 339.650291 
L 324.823373 284.975503 
L 349.483769 287.170318 
L 349.669847 263.44924 
L 337.804176 262.701178 
L 341.394504 247.903897 
L 371.453628 249.444239 
L 370.095584 271.332786 
L 389.14387 272.027484 
L 390.525125 250.512398 
L 432.357403 253.104851 
L 433.275823 253.020359 
L 432.292084 268.500386 
L 414.044125 267.455719 
L 412.415977 291.936992 
L 430.781103 293.227328 
L 428.640984 327.722184 
L 427.430512 346.151722 
" clip-path="url(#p472a29d2ae)" style="fill: none; stroke: #000000"/>
   </g>
   <g id="matplotlib.axis_1">
    <g id="xtick_1">
     <g id="line2d_1">
      <path d="M 217.240755 768.96 
L 217.240755 103.68 
" clip-path="url(#p472a29d2ae)" style="fill: none; stroke: #b0b0b0; stroke-width: 0.8; stroke-linecap: square"/>
     </g>
     <g id="line2d_2">
      <defs>
       <path id="mc2e6be6789" d="M 0 0 
L 0 3.5 
" style="stroke: #000000; stroke-width: 0.8"/>
      </defs>
      <g>
       <use xlink:href="#mc2e6be6789" x="217.240755" y="768.96" style="stroke: #000000; stroke-width: 0.8"/>
      </g>
     </g>
     <g id="text_1">
      <!-- −49.36 -->
      <g transform="translate(206.10769 807.501382) rotate(-45) scale(0.1 -0.1)">
       <defs>
        <path id="DejaVuSans-2212" d="M 678 2272 
L 4684 2272 
L 4684 1741 
L 678 1741 
L 678 2272 
z
" transform="scale(0.015625)"/>
        <path id="DejaVuSans-34" d="M 2419 4116 
L 825 1625 
L 2419 1625 
L 2419 4116 
z
M 2253 4666 
L 3047 4666 
L 3047 1625 
L 3713 1625 
L 3713 1100 
L 3047 1100 
L 3047 0 
L 2419 0 
L 2419 1100 
L 313 1100 
L 313 1709 
L 2253 4666 
z
" transform="scale(0.015625)"/>
        <path id="DejaVuSans-39" d="M 703 97 
L 703 672 
Q 941 559 1184 500 
Q 1428 441 1663 441 
Q 2288 441 2617 861 
Q 2947 1281 2994 2138 
Q 2813 1869 2534 1725 
Q 2256 1581 1919 1581 
Q 1219 1581 811 2004 
Q 403 2428 403 3163 
Q 403 3881 828 4315 
Q 1253 4750 1959 4750 
Q 2769 4750 3195 4129 
Q 3622 3509 3622 2328 
Q 3622 1225 3098 567 
Q 2575 -91 1691 -91 
Q 1453 -91 1209 -44 
Q 966 3 703 97 
z
M 1959 2075 
Q 2384 2075 2632 2365 
Q 2881 2656 2881 3163 
Q 2881 3666 2632 3958 
Q 2384 4250 1959 4250 
Q 1534 4250 1286 3958 
Q 1038 3666 1038 3163 
Q 1038 2656 1286 2365 
Q 1534 2075 1959 2075 
z
" transform="scale(0.015625)"/>
        <path id="DejaVuSans-2e" d="M 684 794 
L 1344 794 
L 1344 0 
L 684 0 
L 684 794 
z
" transform="scale(0.015625)"/>
        <path id="DejaVuSans-33" d="M 2597 2516 
Q 3050 2419 3304 2112 
Q 3559 1806 3559 1356 
Q 3559 666 3084 287 
Q 2609 -91 1734 -91 
Q 1441 -91 1130 -33 
Q 819 25 488 141 
L 488 750 
Q 750 597 1062 519 
Q 1375 441 1716 441 
Q 2309 441 2620 675 
Q 2931 909 2931 1356 
Q 2931 1769 2642 2001 
Q 2353 2234 1838 2234 
L 1294 2234 
L 1294 2753 
L 1863 2753 
Q 2328 2753 2575 2939 
Q 2822 3125 2822 3475 
Q 2822 3834 2567 4026 
Q 2313 4219 1838 4219 
Q 1578 4219 1281 4162 
Q 984 4106 628 3988 
L 628 4550 
Q 988 4650 1302 4700 
Q 1616 4750 1894 4750 
Q 2613 4750 3031 4423 
Q 3450 4097 3450 3541 
Q 3450 3153 3228 2886 
Q 3006 2619 2597 2516 
z
" transform="scale(0.015625)"/>
        <path id="DejaVuSans-36" d="M 2113 2584 
Q 1688 2584 1439 2293 
Q 1191 2003 1191 1497 
Q 1191 994 1439 701 
Q 1688 409 2113 409 
Q 2538 409 2786 701 
Q 3034 994 3034 1497 
Q 3034 2003 2786 2293 
Q 2538 2584 2113 2584 
z
M 3366 4563 
L 3366 3988 
Q 3128 4100 2886 4159 
Q 2644 4219 2406 4219 
Q 1781 4219 1451 3797 
Q 1122 3375 1075 2522 
Q 1259 2794 1537 2939 
Q 1816 3084 2150 3084 
Q 2853 3084 3261 2657 
Q 3669 2231 3669 1497 
Q 3669 778 3244 343 
Q 2819 -91 2113 -91 
Q 1303 -91 875 529 
Q 447 1150 447 2328 
Q 447 3434 972 4092 
Q 1497 4750 2381 4750 
Q 2619 4750 2861 4703 
Q 3103 4656 3366 4563 
z
" transform="scale(0.015625)"/>
       </defs>
       <use xlink:href="#DejaVuSans-2212"/>
       <use xlink:href="#DejaVuSans-34" transform="translate(83.789062 0)"/>
       <use xlink:href="#DejaVuSans-39" transform="translate(147.412109 0)"/>
       <use xlink:href="#DejaVuSans-2e" transform="translate(211.035156 0)"/>
       <use xlink:href="#DejaVuSans-33" transform="translate(242.822266 0)"/>
       <use xlink:href="#DejaVuSans-36" transform="translate(306.445312 0)"/>
      </g>
     </g>
    </g>
    <g id="xtick_2">
     <g id="line2d_3">
      <path d="M 284.489222 768.96 
L 284.489222 103.68 
" clip-path="url(#p472a29d2ae)" style="fill: none; stroke: #b0b0b0; stroke-width: 0.8; stroke-linecap: square"/>
     </g>
     <g id="line2d_4">
      <g>
       <use xlink:href="#mc2e6be6789" x="284.489222" y="768.96" style="stroke: #000000; stroke-width: 0.8"/>
      </g>
     </g>
     <g id="text_2">
      <!-- −49.34 -->
      <g transform="translate(273.356157 807.501382) rotate(-45) scale(0.1 -0.1)">
       <use xlink:href="#DejaVuSans-2212"/>
       <use xlink:href="#DejaVuSans-34" transform="translate(83.789062 0)"/>
       <use xlink:href="#DejaVuSans-39" transform="translate(147.412109 0)"/>
       <use xlink:href="#DejaVuSans-2e" transform="translate(211.035156 0)"/>
       <use xlink:href="#DejaVuSans-33" transform="translate(242.822266 0)"/>
       <use xlink:href="#DejaVuSans-34" transform="translate(306.445312 0)"/>
      </g>
     </g>
    </g>
    <g id="xtick_3">
     <g id="line2d_5">
      <path d="M 351.737688 768.96 
L 351.737688 103.68 
" clip-path="url(#p472a29d2ae)" style="fill: none; stroke: #b0b0b0; stroke-width: 0.8; stroke-linecap: square"/>
     </g>
     <g id="line2d_6">
      <g>
       <use xlink:href="#mc2e6be6789" x="351.737688" y="768.96" style="stroke: #000000; stroke-width: 0.8"/>
      </g>
     </g>
     <g id="text_3">
      <!-- −49.32 -->
      <g transform="translate(340.604624 807.501382) rotate(-45) scale(0.1 -0.1)">
       <defs>
        <path id="DejaVuSans-32" d="M 1228 531 
L 3431 531 
L 3431 0 
L 469 0 
L 469 531 
Q 828 903 1448 1529 
Q 2069 2156 2228 2338 
Q 2531 2678 2651 2914 
Q 2772 3150 2772 3378 
Q 2772 3750 2511 3984 
Q 2250 4219 1831 4219 
Q 1534 4219 1204 4116 
Q 875 4013 500 3803 
L 500 4441 
Q 881 4594 1212 4672 
Q 1544 4750 1819 4750 
Q 2544 4750 2975 4387 
Q 3406 4025 3406 3419 
Q 3406 3131 3298 2873 
Q 3191 2616 2906 2266 
Q 2828 2175 2409 1742 
Q 1991 1309 1228 531 
z
" transform="scale(0.015625)"/>
       </defs>
       <use xlink:href="#DejaVuSans-2212"/>
       <use xlink:href="#DejaVuSans-34" transform="translate(83.789062 0)"/>
       <use xlink:href="#DejaVuSans-39" transform="translate(147.412109 0)"/>
       <use xlink:href="#DejaVuSans-2e" transform="translate(211.035156 0)"/>
       <use xlink:href="#DejaVuSans-33" transform="translate(242.822266 0)"/>
       <use xlink:href="#DejaVuSans-32" transform="translate(306.445312 0)"/>
      </g>
     </g>
    </g>
    <g id="xtick_4">
     <g id="line2d_7">
      <path d="M 418.986155 768.96 
L 418.986155 103.68 
" clip-path="url(#p472a29d2ae)" style="fill: none; stroke: #b0b0b0; stroke-width: 0.8; stroke-linecap: square"/>
     </g>
     <g id="line2d_8">
      <g>
       <use xlink:href="#mc2e6be6789" x="418.986155" y="768.96" style="stroke: #000000; stroke-width: 0.8"/>
      </g>
     </g>
     <g id="text_4">
      <!-- −49.30 -->
      <g transform="translate(407.85309 807.501382) rotate(-45) scale(0.1 -0.1)">
       <defs>
        <path id="DejaVuSans-30" d="M 2034 4250 
Q 1547 4250 1301 3770 
Q 1056 3291 1056 2328 
Q 1056 1369 1301 889 
Q 1547 409 2034 409 
Q 2525 409 2770 889 
Q 3016 1369 3016 2328 
Q 3016 3291 2770 3770 
Q 2525 4250 2034 4250 
z
M 2034 4750 
Q 2819 4750 3233 4129 
Q 3647 3509 3647 2328 
Q 3647 1150 3233 529 
Q 2819 -91 2034 -91 
Q 1250 -91 836 529 
Q 422 1150 422 2328 
Q 422 3509 836 4129 
Q 1250 4750 2034 4750 
z
" transform="scale(0.015625)"/>
       </defs>
       <use xlink:href="#DejaVuSans-2212"/>
       <use xlink:href="#DejaVuSans-34" transform="translate(83.789062 0)"/>
       <use xlink:href="#DejaVuSans-39" transform="translate(147.412109 0)"/>
       <use xlink:href="#DejaVuSans-2e" transform="translate(211.035156 0)"/>
       <use xlink:href="#DejaVuSans-33" transform="translate(242.822266 0)"/>
       <use xlink:href="#DejaVuSans-30" transform="translate(306.445312 0)"/>
      </g>
     </g>
    </g>
    <g id="xtick_5">
     <g id="line2d_9">
      <path d="M 486.234622 768.96 
L 486.234622 103.68 
" clip-path="url(#p472a29d2ae)" style="fill: none; stroke: #b0b0b0; stroke-width: 0.8; stroke-linecap: square"/>
     </g>
     <g id="line2d_10">
      <g>
       <use xlink:href="#mc2e6be6789" x="486.234622" y="768.96" style="stroke: #000000; stroke-width: 0.8"/>
      </g>
     </g>
     <g id="text_5">
      <!-- −49.28 -->
      <g transform="translate(475.101557 807.501382) rotate(-45) scale(0.1 -0.1)">
       <defs>
        <path id="DejaVuSans-38" d="M 2034 2216 
Q 1584 2216 1326 1975 
Q 1069 1734 1069 1313 
Q 1069 891 1326 650 
Q 1584 409 2034 409 
Q 2484 409 2743 651 
Q 3003 894 3003 1313 
Q 3003 1734 2745 1975 
Q 2488 2216 2034 2216 
z
M 1403 2484 
Q 997 2584 770 2862 
Q 544 3141 544 3541 
Q 544 4100 942 4425 
Q 1341 4750 2034 4750 
Q 2731 4750 3128 4425 
Q 3525 4100 3525 3541 
Q 3525 3141 3298 2862 
Q 3072 2584 2669 2484 
Q 3125 2378 3379 2068 
Q 3634 1759 3634 1313 
Q 3634 634 3220 271 
Q 2806 -91 2034 -91 
Q 1263 -91 848 271 
Q 434 634 434 1313 
Q 434 1759 690 2068 
Q 947 2378 1403 2484 
z
M 1172 3481 
Q 1172 3119 1398 2916 
Q 1625 2713 2034 2713 
Q 2441 2713 2670 2916 
Q 2900 3119 2900 3481 
Q 2900 3844 2670 4047 
Q 2441 4250 2034 4250 
Q 1625 4250 1398 4047 
Q 1172 3844 1172 3481 
z
" transform="scale(0.015625)"/>
       </defs>
       <use xlink:href="#DejaVuSans-2212"/>
       <use xlink:href="#DejaVuSans-34" transform="translate(83.789062 0)"/>
       <use xlink:href="#DejaVuSans-39" transform="translate(147.412109 0)"/>
       <use xlink:href="#DejaVuSans-2e" transform="translate(211.035156 0)"/>
       <use xlink:href="#DejaVuSans-32" transform="translate(242.822266 0)"/>
       <use xlink:href="#DejaVuSans-38" transform="translate(306.445312 0)"/>
      </g>
     </g>
    </g>
    <g id="xtick_6">
     <g id="line2d_11">
      <path d="M 553.483089 768.96 
L 553.483089 103.68 
" clip-path="url(#p472a29d2ae)" style="fill: none; stroke: #b0b0b0; stroke-width: 0.8; stroke-linecap: square"/>
     </g>
     <g id="line2d_12">
      <g>
       <use xlink:href="#mc2e6be6789" x="553.483089" y="768.96" style="stroke: #000000; stroke-width: 0.8"/>
      </g>
     </g>
     <g id="text_6">
      <!-- −49.26 -->
      <g transform="translate(542.350024 807.501382) rotate(-45) scale(0.1 -0.1)">
       <use xlink:href="#DejaVuSans-2212"/>
       <use xlink:href="#DejaVuSans-34" transform="translate(83.789062 0)"/>
       <use xlink:href="#DejaVuSans-39" transform="translate(147.412109 0)"/>
       <use xlink:href="#DejaVuSans-2e" transform="translate(211.035156 0)"/>
       <use xlink:href="#DejaVuSans-32" transform="translate(242.822266 0)"/>
       <use xlink:href="#DejaVuSans-36" transform="translate(306.445312 0)"/>
      </g>
     </g>
    </g>
    <g id="text_7">
     <!-- Longitude (°) -->
     <g transform="translate(336.139844 820.57038) scale(0.1 -0.1)">
      <defs>
       <path id="DejaVuSans-4c" d="M 628 4666 
L 1259 4666 
L 1259 531 
L 3531 531 
L 3531 0 
L 628 0 
L 628 4666 
z
" transform="scale(0.015625)"/>
       <path id="DejaVuSans-6f" d="M 1959 3097 
Q 1497 3097 1228 2736 
Q 959 2375 959 1747 
Q 959 1119 1226 758 
Q 1494 397 1959 397 
Q 2419 397 2687 759 
Q 2956 1122 2956 1747 
Q 2956 2369 2687 2733 
Q 2419 3097 1959 3097 
z
M 1959 3584 
Q 2709 3584 3137 3096 
Q 3566 2609 3566 1747 
Q 3566 888 3137 398 
Q 2709 -91 1959 -91 
Q 1206 -91 779 398 
Q 353 888 353 1747 
Q 353 2609 779 3096 
Q 1206 3584 1959 3584 
z
" transform="scale(0.015625)"/>
       <path id="DejaVuSans-6e" d="M 3513 2113 
L 3513 0 
L 2938 0 
L 2938 2094 
Q 2938 2591 2744 2837 
Q 2550 3084 2163 3084 
Q 1697 3084 1428 2787 
Q 1159 2491 1159 1978 
L 1159 0 
L 581 0 
L 581 3500 
L 1159 3500 
L 1159 2956 
Q 1366 3272 1645 3428 
Q 1925 3584 2291 3584 
Q 2894 3584 3203 3211 
Q 3513 2838 3513 2113 
z
" transform="scale(0.015625)"/>
       <path id="DejaVuSans-67" d="M 2906 1791 
Q 2906 2416 2648 2759 
Q 2391 3103 1925 3103 
Q 1463 3103 1205 2759 
Q 947 2416 947 1791 
Q 947 1169 1205 825 
Q 1463 481 1925 481 
Q 2391 481 2648 825 
Q 2906 1169 2906 1791 
z
M 3481 434 
Q 3481 -459 3084 -895 
Q 2688 -1331 1869 -1331 
Q 1566 -1331 1297 -1286 
Q 1028 -1241 775 -1147 
L 775 -588 
Q 1028 -725 1275 -790 
Q 1522 -856 1778 -856 
Q 2344 -856 2625 -561 
Q 2906 -266 2906 331 
L 2906 616 
Q 2728 306 2450 153 
Q 2172 0 1784 0 
Q 1141 0 747 490 
Q 353 981 353 1791 
Q 353 2603 747 3093 
Q 1141 3584 1784 3584 
Q 2172 3584 2450 3431 
Q 2728 3278 2906 2969 
L 2906 3500 
L 3481 3500 
L 3481 434 
z
" transform="scale(0.015625)"/>
       <path id="DejaVuSans-69" d="M 603 3500 
L 1178 3500 
L 1178 0 
L 603 0 
L 603 3500 
z
M 603 4863 
L 1178 4863 
L 1178 4134 
L 603 4134 
L 603 4863 
z
" transform="scale(0.015625)"/>
       <path id="DejaVuSans-74" d="M 1172 4494 
L 1172 3500 
L 2356 3500 
L 2356 3053 
L 1172 3053 
L 1172 1153 
Q 1172 725 1289 603 
Q 1406 481 1766 481 
L 2356 481 
L 2356 0 
L 1766 0 
Q 1100 0 847 248 
Q 594 497 594 1153 
L 594 3053 
L 172 3053 
L 172 3500 
L 594 3500 
L 594 4494 
L 1172 4494 
z
" transform="scale(0.015625)"/>
       <path id="DejaVuSans-75" d="M 544 1381 
L 544 3500 
L 1119 3500 
L 1119 1403 
Q 1119 906 1312 657 
Q 1506 409 1894 409 
Q 2359 409 2629 706 
Q 2900 1003 2900 1516 
L 2900 3500 
L 3475 3500 
L 3475 0 
L 2900 0 
L 2900 538 
Q 2691 219 2414 64 
Q 2138 -91 1772 -91 
Q 1169 -91 856 284 
Q 544 659 544 1381 
z
M 1991 3584 
L 1991 3584 
z
" transform="scale(0.015625)"/>
       <path id="DejaVuSans-64" d="M 2906 2969 
L 2906 4863 
L 3481 4863 
L 3481 0 
L 2906 0 
L 2906 525 
Q 2725 213 2448 61 
Q 2172 -91 1784 -91 
Q 1150 -91 751 415 
Q 353 922 353 1747 
Q 353 2572 751 3078 
Q 1150 3584 1784 3584 
Q 2172 3584 2448 3432 
Q 2725 3281 2906 2969 
z
M 947 1747 
Q 947 1113 1208 752 
Q 1469 391 1925 391 
Q 2381 391 2643 752 
Q 2906 1113 2906 1747 
Q 2906 2381 2643 2742 
Q 2381 3103 1925 3103 
Q 1469 3103 1208 2742 
Q 947 2381 947 1747 
z
" transform="scale(0.015625)"/>
       <path id="DejaVuSans-65" d="M 3597 1894 
L 3597 1613 
L 953 1613 
Q 991 1019 1311 708 
Q 1631 397 2203 397 
Q 2534 397 2845 478 
Q 3156 559 3463 722 
L 3463 178 
Q 3153 47 2828 -22 
Q 2503 -91 2169 -91 
Q 1331 -91 842 396 
Q 353 884 353 1716 
Q 353 2575 817 3079 
Q 1281 3584 2069 3584 
Q 2775 3584 3186 3129 
Q 3597 2675 3597 1894 
z
M 3022 2063 
Q 3016 2534 2758 2815 
Q 2500 3097 2075 3097 
Q 1594 3097 1305 2825 
Q 1016 2553 972 2059 
L 3022 2063 
z
" transform="scale(0.015625)"/>
       <path id="DejaVuSans-20" transform="scale(0.015625)"/>
       <path id="DejaVuSans-28" d="M 1984 4856 
Q 1566 4138 1362 3434 
Q 1159 2731 1159 2009 
Q 1159 1288 1364 580 
Q 1569 -128 1984 -844 
L 1484 -844 
Q 1016 -109 783 600 
Q 550 1309 550 2009 
Q 550 2706 781 3412 
Q 1013 4119 1484 4856 
L 1984 4856 
z
" transform="scale(0.015625)"/>
       <path id="DejaVuSans-b0" d="M 1600 4347 
Q 1350 4347 1178 4173 
Q 1006 4000 1006 3750 
Q 1006 3503 1178 3333 
Q 1350 3163 1600 3163 
Q 1850 3163 2022 3333 
Q 2194 3503 2194 3750 
Q 2194 3997 2020 4172 
Q 1847 4347 1600 4347 
z
M 1600 4750 
Q 1800 4750 1984 4673 
Q 2169 4597 2303 4453 
Q 2447 4313 2519 4134 
Q 2591 3956 2591 3750 
Q 2591 3338 2302 3052 
Q 2013 2766 1594 2766 
Q 1172 2766 890 3047 
Q 609 3328 609 3750 
Q 609 4169 896 4459 
Q 1184 4750 1600 4750 
z
" transform="scale(0.015625)"/>
       <path id="DejaVuSans-29" d="M 513 4856 
L 1013 4856 
Q 1481 4119 1714 3412 
Q 1947 2706 1947 2009 
Q 1947 1309 1714 600 
Q 1481 -109 1013 -844 
L 513 -844 
Q 928 -128 1133 580 
Q 1338 1288 1338 2009 
Q 1338 2731 1133 3434 
Q 928 4138 513 4856 
z
" transform="scale(0.015625)"/>
      </defs>
      <use xlink:href="#DejaVuSans-4c"/>
      <use xlink:href="#DejaVuSans-6f" transform="translate(53.962891 0)"/>
      <use xlink:href="#DejaVuSans-6e" transform="translate(115.144531 0)"/>
      <use xlink:href="#DejaVuSans-67" transform="translate(178.523438 0)"/>
      <use xlink:href="#DejaVuSans-69" transform="translate(242 0)"/>
      <use xlink:href="#DejaVuSans-74" transform="translate(269.783203 0)"/>
      <use xlink:href="#DejaVuSans-75" transform="translate(308.992188 0)"/>
      <use xlink:href="#DejaVuSans-64" transform="translate(372.371094 0)"/>
      <use xlink:href="#DejaVuSans-65" transform="translate(435.847656 0)"/>
      <use xlink:href="#DejaVuSans-20" transform="translate(497.371094 0)"/>
      <use xlink:href="#DejaVuSans-28" transform="translate(529.158203 0)"/>
      <use xlink:href="#DejaVuSans-b0" transform="translate(568.171875 0)"/>
      <use xlink:href="#DejaVuSans-29" transform="translate(618.171875 0)"/>
     </g>
    </g>
   </g>
   <g id="matplotlib.axis_2">
    <g id="ytick_1">
     <g id="line2d_13">
      <path d="M 174.513877 741.204777 
L 563.486123 741.204777 
" clip-path="url(#p472a29d2ae)" style="fill: none; stroke: #b0b0b0; stroke-width: 0.8; stroke-linecap: square"/>
     </g>
     <g id="line2d_14">
      <defs>
       <path id="m327f1dc16b" d="M 0 0 
L -3.5 0 
" style="stroke: #000000; stroke-width: 0.8"/>
      </defs>
      <g>
       <use xlink:href="#m327f1dc16b" x="174.513877" y="741.204777" style="stroke: #000000; stroke-width: 0.8"/>
      </g>
     </g>
     <g id="text_8">
      <!-- −8.650 -->
      <g transform="translate(130.506064 745.003996) scale(0.1 -0.1)">
       <defs>
        <path id="DejaVuSans-35" d="M 691 4666 
L 3169 4666 
L 3169 4134 
L 1269 4134 
L 1269 2991 
Q 1406 3038 1543 3061 
Q 1681 3084 1819 3084 
Q 2600 3084 3056 2656 
Q 3513 2228 3513 1497 
Q 3513 744 3044 326 
Q 2575 -91 1722 -91 
Q 1428 -91 1123 -41 
Q 819 9 494 109 
L 494 744 
Q 775 591 1075 516 
Q 1375 441 1709 441 
Q 2250 441 2565 725 
Q 2881 1009 2881 1497 
Q 2881 1984 2565 2268 
Q 2250 2553 1709 2553 
Q 1456 2553 1204 2497 
Q 953 2441 691 2322 
L 691 4666 
z
" transform="scale(0.015625)"/>
       </defs>
       <use xlink:href="#DejaVuSans-2212"/>
       <use xlink:href="#DejaVuSans-38" transform="translate(83.789062 0)"/>
       <use xlink:href="#DejaVuSans-2e" transform="translate(147.412109 0)"/>
       <use xlink:href="#DejaVuSans-36" transform="translate(179.199219 0)"/>
       <use xlink:href="#DejaVuSans-35" transform="translate(242.822266 0)"/>
       <use xlink:href="#DejaVuSans-30" transform="translate(306.445312 0)"/>
      </g>
     </g>
    </g>
    <g id="ytick_2">
     <g id="line2d_15">
      <path d="M 174.513877 656.20631 
L 563.486123 656.20631 
" clip-path="url(#p472a29d2ae)" style="fill: none; stroke: #b0b0b0; stroke-width: 0.8; stroke-linecap: square"/>
     </g>
     <g id="line2d_16">
      <g>
       <use xlink:href="#m327f1dc16b" x="174.513877" y="656.20631" style="stroke: #000000; stroke-width: 0.8"/>
      </g>
     </g>
     <g id="text_9">
      <!-- −8.625 -->
      <g transform="translate(130.506064 660.005528) scale(0.1 -0.1)">
       <use xlink:href="#DejaVuSans-2212"/>
       <use xlink:href="#DejaVuSans-38" transform="translate(83.789062 0)"/>
       <use xlink:href="#DejaVuSans-2e" transform="translate(147.412109 0)"/>
       <use xlink:href="#DejaVuSans-36" transform="translate(179.199219 0)"/>
       <use xlink:href="#DejaVuSans-32" transform="translate(242.822266 0)"/>
       <use xlink:href="#DejaVuSans-35" transform="translate(306.445312 0)"/>
      </g>
     </g>
    </g>
    <g id="ytick_3">
     <g id="line2d_17">
      <path d="M 174.513877 571.207842 
L 563.486123 571.207842 
" clip-path="url(#p472a29d2ae)" style="fill: none; stroke: #b0b0b0; stroke-width: 0.8; stroke-linecap: square"/>
     </g>
     <g id="line2d_18">
      <g>
       <use xlink:href="#m327f1dc16b" x="174.513877" y="571.207842" style="stroke: #000000; stroke-width: 0.8"/>
      </g>
     </g>
     <g id="text_10">
      <!-- −8.600 -->
      <g transform="translate(130.506064 575.007061) scale(0.1 -0.1)">
       <use xlink:href="#DejaVuSans-2212"/>
       <use xlink:href="#DejaVuSans-38" transform="translate(83.789062 0)"/>
       <use xlink:href="#DejaVuSans-2e" transform="translate(147.412109 0)"/>
       <use xlink:href="#DejaVuSans-36" transform="translate(179.199219 0)"/>
       <use xlink:href="#DejaVuSans-30" transform="translate(242.822266 0)"/>
       <use xlink:href="#DejaVuSans-30" transform="translate(306.445312 0)"/>
      </g>
     </g>
    </g>
    <g id="ytick_4">
     <g id="line2d_19">
      <path d="M 174.513877 486.209375 
L 563.486123 486.209375 
" clip-path="url(#p472a29d2ae)" style="fill: none; stroke: #b0b0b0; stroke-width: 0.8; stroke-linecap: square"/>
     </g>
     <g id="line2d_20">
      <g>
       <use xlink:href="#m327f1dc16b" x="174.513877" y="486.209375" style="stroke: #000000; stroke-width: 0.8"/>
      </g>
     </g>
     <g id="text_11">
      <!-- −8.575 -->
      <g transform="translate(130.506064 490.008593) scale(0.1 -0.1)">
       <defs>
        <path id="DejaVuSans-37" d="M 525 4666 
L 3525 4666 
L 3525 4397 
L 1831 0 
L 1172 0 
L 2766 4134 
L 525 4134 
L 525 4666 
z
" transform="scale(0.015625)"/>
       </defs>
       <use xlink:href="#DejaVuSans-2212"/>
       <use xlink:href="#DejaVuSans-38" transform="translate(83.789062 0)"/>
       <use xlink:href="#DejaVuSans-2e" transform="translate(147.412109 0)"/>
       <use xlink:href="#DejaVuSans-35" transform="translate(179.199219 0)"/>
       <use xlink:href="#DejaVuSans-37" transform="translate(242.822266 0)"/>
       <use xlink:href="#DejaVuSans-35" transform="translate(306.445312 0)"/>
      </g>
     </g>
    </g>
    <g id="ytick_5">
     <g id="line2d_21">
      <path d="M 174.513877 401.210907 
L 563.486123 401.210907 
" clip-path="url(#p472a29d2ae)" style="fill: none; stroke: #b0b0b0; stroke-width: 0.8; stroke-linecap: square"/>
     </g>
     <g id="line2d_22">
      <g>
       <use xlink:href="#m327f1dc16b" x="174.513877" y="401.210907" style="stroke: #000000; stroke-width: 0.8"/>
      </g>
     </g>
     <g id="text_12">
      <!-- −8.550 -->
      <g transform="translate(130.506064 405.010126) scale(0.1 -0.1)">
       <use xlink:href="#DejaVuSans-2212"/>
       <use xlink:href="#DejaVuSans-38" transform="translate(83.789062 0)"/>
       <use xlink:href="#DejaVuSans-2e" transform="translate(147.412109 0)"/>
       <use xlink:href="#DejaVuSans-35" transform="translate(179.199219 0)"/>
       <use xlink:href="#DejaVuSans-35" transform="translate(242.822266 0)"/>
       <use xlink:href="#DejaVuSans-30" transform="translate(306.445312 0)"/>
      </g>
     </g>
    </g>
    <g id="ytick_6">
     <g id="line2d_23">
      <path d="M 174.513877 316.212439 
L 563.486123 316.212439 
" clip-path="url(#p472a29d2ae)" style="fill: none; stroke: #b0b0b0; stroke-width: 0.8; stroke-linecap: square"/>
     </g>
     <g id="line2d_24">
      <g>
       <use xlink:href="#m327f1dc16b" x="174.513877" y="316.212439" style="stroke: #000000; stroke-width: 0.8"/>
      </g>
     </g>
     <g id="text_13">
      <!-- −8.525 -->
      <g transform="translate(130.506064 320.011658) scale(0.1 -0.1)">
       <use xlink:href="#DejaVuSans-2212"/>
       <use xlink:href="#DejaVuSans-38" transform="translate(83.789062 0)"/>
       <use xlink:href="#DejaVuSans-2e" transform="translate(147.412109 0)"/>
       <use xlink:href="#DejaVuSans-35" transform="translate(179.199219 0)"/>
       <use xlink:href="#DejaVuSans-32" transform="translate(242.822266 0)"/>
       <use xlink:href="#DejaVuSans-35" transform="translate(306.445312 0)"/>
      </g>
     </g>
    </g>
    <g id="ytick_7">
     <g id="line2d_25">
      <path d="M 174.513877 231.213972 
L 563.486123 231.213972 
" clip-path="url(#p472a29d2ae)" style="fill: none; stroke: #b0b0b0; stroke-width: 0.8; stroke-linecap: square"/>
     </g>
     <g id="line2d_26">
      <g>
       <use xlink:href="#m327f1dc16b" x="174.513877" y="231.213972" style="stroke: #000000; stroke-width: 0.8"/>
      </g>
     </g>
     <g id="text_14">
      <!-- −8.500 -->
      <g transform="translate(130.506064 235.013191) scale(0.1 -0.1)">
       <use xlink:href="#DejaVuSans-2212"/>
       <use xlink:href="#DejaVuSans-38" transform="translate(83.789062 0)"/>
       <use xlink:href="#DejaVuSans-2e" transform="translate(147.412109 0)"/>
       <use xlink:href="#DejaVuSans-35" transform="translate(179.199219 0)"/>
       <use xlink:href="#DejaVuSans-30" transform="translate(242.822266 0)"/>
       <use xlink:href="#DejaVuSans-30" transform="translate(306.445312 0)"/>
      </g>
     </g>
    </g>
    <g id="ytick_8">
     <g id="line2d_27">
      <path d="M 174.513877 146.215504 
L 563.486123 146.215504 
" clip-path="url(#p472a29d2ae)" style="fill: none; stroke: #b0b0b0; stroke-width: 0.8; stroke-linecap: square"/>
     </g>
     <g id="line2d_28">
      <g>
       <use xlink:href="#m327f1dc16b" x="174.513877" y="146.215504" style="stroke: #000000; stroke-width: 0.8"/>
      </g>
     </g>
     <g id="text_15">
      <!-- −8.475 -->
      <g transform="translate(130.506064 150.014723) scale(0.1 -0.1)">
       <use xlink:href="#DejaVuSans-2212"/>
       <use xlink:href="#DejaVuSans-38" transform="translate(83.789062 0)"/>
       <use xlink:href="#DejaVuSans-2e" transform="translate(147.412109 0)"/>
       <use xlink:href="#DejaVuSans-34" transform="translate(179.199219 0)"/>
       <use xlink:href="#DejaVuSans-37" transform="translate(242.822266 0)"/>
       <use xlink:href="#DejaVuSans-35" transform="translate(306.445312 0)"/>
      </g>
     </g>
    </g>
    <g id="text_16">
     <!-- Latitude (°) -->
     <g transform="translate(124.426377 464.889531) rotate(-90) scale(0.1 -0.1)">
      <defs>
       <path id="DejaVuSans-61" d="M 2194 1759 
Q 1497 1759 1228 1600 
Q 959 1441 959 1056 
Q 959 750 1161 570 
Q 1363 391 1709 391 
Q 2188 391 2477 730 
Q 2766 1069 2766 1631 
L 2766 1759 
L 2194 1759 
z
M 3341 1997 
L 3341 0 
L 2766 0 
L 2766 531 
Q 2569 213 2275 61 
Q 1981 -91 1556 -91 
Q 1019 -91 701 211 
Q 384 513 384 1019 
Q 384 1609 779 1909 
Q 1175 2209 1959 2209 
L 2766 2209 
L 2766 2266 
Q 2766 2663 2505 2880 
Q 2244 3097 1772 3097 
Q 1472 3097 1187 3025 
Q 903 2953 641 2809 
L 641 3341 
Q 956 3463 1253 3523 
Q 1550 3584 1831 3584 
Q 2591 3584 2966 3190 
Q 3341 2797 3341 1997 
z
" transform="scale(0.015625)"/>
      </defs>
      <use xlink:href="#DejaVuSans-4c"/>
      <use xlink:href="#DejaVuSans-61" transform="translate(55.712891 0)"/>
      <use xlink:href="#DejaVuSans-74" transform="translate(116.992188 0)"/>
      <use xlink:href="#DejaVuSans-69" transform="translate(156.201172 0)"/>
      <use xlink:href="#DejaVuSans-74" transform="translate(183.984375 0)"/>
      <use xlink:href="#DejaVuSans-75" transform="translate(223.193359 0)"/>
      <use xlink:href="#DejaVuSans-64" transform="translate(286.572266 0)"/>
      <use xlink:href="#DejaVuSans-65" transform="translate(350.048828 0)"/>
      <use xlink:href="#DejaVuSans-20" transform="translate(411.572266 0)"/>
      <use xlink:href="#DejaVuSans-28" transform="translate(443.359375 0)"/>
      <use xlink:href="#DejaVuSans-b0" transform="translate(482.373047 0)"/>
      <use xlink:href="#DejaVuSans-29" transform="translate(532.373047 0)"/>
     </g>
    </g>
   </g>
   <g id="patch_3">
    <path d="M 174.513877 768.96 
L 174.513877 103.68 
" style="fill: none; stroke: #000000; stroke-width: 0.8; stroke-linejoin: miter; stroke-linecap: square"/>
   </g>
   <g id="patch_4">
    <path d="M 563.486123 768.96 
L 563.486123 103.68 
" style="fill: none; stroke: #000000; stroke-width: 0.8; stroke-linejoin: miter; stroke-linecap: square"/>
   </g>
   <g id="patch_5">
    <path d="M 174.513877 768.96 
L 563.486123 768.96 
" style="fill: none; stroke: #000000; stroke-width: 0.8; stroke-linejoin: miter; stroke-linecap: square"/>
   </g>
   <g id="patch_6">
    <path d="M 174.513877 103.68 
L 563.486123 103.68 
" style="fill: none; stroke: #000000; stroke-width: 0.8; stroke-linejoin: miter; stroke-linecap: square"/>
   </g>
   <g id="legend_1">
    <g id="patch_7">
     <path d="M 279.8375 941.307875 
L 458.1625 941.307875 
Q 460.1625 941.307875 460.1625 939.307875 
L 460.1625 909.016 
Q 460.1625 907.016 458.1625 907.016 
L 279.8375 907.016 
Q 277.8375 907.016 277.8375 909.016 
L 277.8375 939.307875 
Q 277.8375 941.307875 279.8375 941.307875 
z
" style="fill: #ffffff; opacity: 0.8; stroke: #cccccc; stroke-linejoin: miter"/>
    </g>
    <g id="text_17">
     <!-- Legenda -->
     <g transform="translate(343.280625 920.134125) scale(0.12 -0.12)">
      <use xlink:href="#DejaVuSans-4c"/>
      <use xlink:href="#DejaVuSans-65" transform="translate(53.962891 0)"/>
      <use xlink:href="#DejaVuSans-67" transform="translate(115.486328 0)"/>
      <use xlink:href="#DejaVuSans-65" transform="translate(178.962891 0)"/>
      <use xlink:href="#DejaVuSans-6e" transform="translate(240.486328 0)"/>
      <use xlink:href="#DejaVuSans-64" transform="translate(303.865234 0)"/>
      <use xlink:href="#DejaVuSans-61" transform="translate(367.341797 0)"/>
     </g>
    </g>
    <g id="patch_8">
     <path style="fill: none; stroke: #000000; stroke-linejoin: miter"/>
    </g>
    <g id="text_18">
     <!-- Gleba Federal -->
     <g transform="translate(309.8375 935.228187) scale(0.1 -0.1)">
      <defs>
       <path id="DejaVuSans-47" d="M 3809 666 
L 3809 1919 
L 2778 1919 
L 2778 2438 
L 4434 2438 
L 4434 434 
Q 4069 175 3628 42 
Q 3188 -91 2688 -91 
Q 1594 -91 976 548 
Q 359 1188 359 2328 
Q 359 3472 976 4111 
Q 1594 4750 2688 4750 
Q 3144 4750 3555 4637 
Q 3966 4525 4313 4306 
L 4313 3634 
Q 3963 3931 3569 4081 
Q 3175 4231 2741 4231 
Q 1884 4231 1454 3753 
Q 1025 3275 1025 2328 
Q 1025 1384 1454 906 
Q 1884 428 2741 428 
Q 3075 428 3337 486 
Q 3600 544 3809 666 
z
" transform="scale(0.015625)"/>
       <path id="DejaVuSans-6c" d="M 603 4863 
L 1178 4863 
L 1178 0 
L 603 0 
L 603 4863 
z
" transform="scale(0.015625)"/>
       <path id="DejaVuSans-62" d="M 3116 1747 
Q 3116 2381 2855 2742 
Q 2594 3103 2138 3103 
Q 1681 3103 1420 2742 
Q 1159 2381 1159 1747 
Q 1159 1113 1420 752 
Q 1681 391 2138 391 
Q 2594 391 2855 752 
Q 3116 1113 3116 1747 
z
M 1159 2969 
Q 1341 3281 1617 3432 
Q 1894 3584 2278 3584 
Q 2916 3584 3314 3078 
Q 3713 2572 3713 1747 
Q 3713 922 3314 415 
Q 2916 -91 2278 -91 
Q 1894 -91 1617 61 
Q 1341 213 1159 525 
L 1159 0 
L 581 0 
L 581 4863 
L 1159 4863 
L 1159 2969 
z
" transform="scale(0.015625)"/>
       <path id="DejaVuSans-46" d="M 628 4666 
L 3309 4666 
L 3309 4134 
L 1259 4134 
L 1259 2759 
L 3109 2759 
L 3109 2228 
L 1259 2228 
L 1259 0 
L 628 0 
L 628 4666 
z
" transform="scale(0.015625)"/>
       <path id="DejaVuSans-72" d="M 2631 2963 
Q 2534 3019 2420 3045 
Q 2306 3072 2169 3072 
Q 1681 3072 1420 2755 
Q 1159 2438 1159 1844 
L 1159 0 
L 581 0 
L 581 3500 
L 1159 3500 
L 1159 2956 
Q 1341 3275 1631 3429 
Q 1922 3584 2338 3584 
Q 2397 3584 2469 3576 
Q 2541 3569 2628 3553 
L 2631 2963 
z
" transform="scale(0.015625)"/>
      </defs>
      <use xlink:href="#DejaVuSans-47"/>
      <use xlink:href="#DejaVuSans-6c" transform="translate(77.490234 0)"/>
      <use xlink:href="#DejaVuSans-65" transform="translate(105.273438 0)"/>
      <use xlink:href="#DejaVuSans-62" transform="translate(166.796875 0)"/>
      <use xlink:href="#DejaVuSans-61" transform="translate(230.273438 0)"/>
      <use xlink:href="#DejaVuSans-20" transform="translate(291.552734 0)"/>
      <use xlink:href="#DejaVuSans-46" transform="translate(323.339844 0)"/>
      <use xlink:href="#DejaVuSans-65" transform="translate(375.359375 0)"/>
      <use xlink:href="#DejaVuSans-64" transform="translate(436.882812 0)"/>
      <use xlink:href="#DejaVuSans-65" transform="translate(500.359375 0)"/>
      <use xlink:href="#DejaVuSans-72" transform="translate(561.882812 0)"/>
      <use xlink:href="#DejaVuSans-61" transform="translate(602.996094 0)"/>
      <use xlink:href="#DejaVuSans-6c" transform="translate(664.275391 0)"/>
     </g>
    </g>
    <g id="patch_9">
     <path d="M 399.045312 935.228187 
L 419.045312 935.228187 
L 419.045312 928.228187 
L 399.045312 928.228187 
z
" style="fill: #e0bd1f; opacity: 0.6"/>
    </g>
    <g id="text_19">
     <!-- SIGEF -->
     <g transform="translate(427.045312 935.228187) scale(0.1 -0.1)">
      <defs>
       <path id="DejaVuSans-53" d="M 3425 4513 
L 3425 3897 
Q 3066 4069 2747 4153 
Q 2428 4238 2131 4238 
Q 1616 4238 1336 4038 
Q 1056 3838 1056 3469 
Q 1056 3159 1242 3001 
Q 1428 2844 1947 2747 
L 2328 2669 
Q 3034 2534 3370 2195 
Q 3706 1856 3706 1288 
Q 3706 609 3251 259 
Q 2797 -91 1919 -91 
Q 1588 -91 1214 -16 
Q 841 59 441 206 
L 441 856 
Q 825 641 1194 531 
Q 1563 422 1919 422 
Q 2459 422 2753 634 
Q 3047 847 3047 1241 
Q 3047 1584 2836 1778 
Q 2625 1972 2144 2069 
L 1759 2144 
Q 1053 2284 737 2584 
Q 422 2884 422 3419 
Q 422 4038 858 4394 
Q 1294 4750 2059 4750 
Q 2388 4750 2728 4690 
Q 3069 4631 3425 4513 
z
" transform="scale(0.015625)"/>
       <path id="DejaVuSans-49" d="M 628 4666 
L 1259 4666 
L 1259 0 
L 628 0 
L 628 4666 
z
" transform="scale(0.015625)"/>
       <path id="DejaVuSans-45" d="M 628 4666 
L 3578 4666 
L 3578 4134 
L 1259 4134 
L 1259 2753 
L 3481 2753 
L 3481 2222 
L 1259 2222 
L 1259 531 
L 3634 531 
L 3634 0 
L 628 0 
L 628 4666 
z
" transform="scale(0.015625)"/>
      </defs>
      <use xlink:href="#DejaVuSans-53"/>
      <use xlink:href="#DejaVuSans-49" transform="translate(63.476562 0)"/>
      <use xlink:href="#DejaVuSans-47" transform="translate(92.96875 0)"/>
      <use xlink:href="#DejaVuSans-45" transform="translate(170.458984 0)"/>
      <use xlink:href="#DejaVuSans-46" transform="translate(233.642578 0)"/>
     </g>
    </g>
   </g>
  </g>
 </g>
 <defs>
  <clipPath id="p472a29d2ae">
   <rect x="174.513877" y="103.68" width="388.972246" height="665.28"/>
  </clipPath>
 </defs>
</svg>
