<?xml version="1.0" encoding="utf-8" standalone="no"?>
<!DOCTYPE svg PUBLIC "-//W3C//DTD SVG 1.1//EN"
  "http://www.w3.org/Graphics/SVG/1.1/DTD/svg11.dtd">
<svg xmlns:xlink="http://www.w3.org/1999/xlink" width="720pt" height="864pt" viewBox="0 0 720 864" xmlns="http://www.w3.org/2000/svg" version="1.1">
 <metadata>
  <rdf:RDF xmlns:dc="http://purl.org/dc/elements/1.1/" xmlns:cc="http://creativecommons.org/ns#" xmlns:rdf="http://www.w3.org/1999/02/22-rdf-syntax-ns#">
   <cc:Work>
    <dc:type rdf:resource="http://purl.org/dc/dcmitype/StillImage"/>
    <dc:date>2025-06-16T17:33:22.870182</dc:date>
    <dc:format>image/svg+xml</dc:format>
    <dc:creator>
     <cc:Agent>
      <dc:title>Matplotlib v3.10.1, https://matplotlib.org/</dc:title>
     </cc:Agent>
    </dc:creator>
   </cc:Work>
  </rdf:RDF>
 </metadata>
 <defs>
  <style type="text/css">*{stroke-linejoin: round; stroke-linecap: butt}</style>
 </defs>
 <g id="figure_1">
  <g id="patch_1">
   <path d="M 0 864 
L 720 864 
L 720 0 
L 0 0 
z
" style="fill: #ffffff"/>
  </g>
  <g id="axes_1">
   <g id="patch_2">
    <path d="M 122.493778 768.96 
L 615.506222 768.96 
L 615.506222 103.68 
L 122.493778 103.68 
z
" style="fill: #ffffff"/>
   </g>
   <g id="PatchCollection_1">
    <path d="M 371.779746 145.079879 
L 376.243373 144.34171 
L 378.124569 141.123568 
L 379.3905 137.091899 
L 383.319773 139.996619 
L 385.819606 139.064916 
L 390.010156 135.029822 
L 392.476276 137.663937 
L 392.481333 141.656214 
L 402.419983 150.101482 
L 406.069436 144.74933 
L 410.152104 146.025283 
L 411.077531 148.856357 
L 411.697854 152.382783 
L 417.589234 155.092256 
L 420.362145 155.866391 
L 419.325464 159.161604 
L 432.529236 161.43948 
L 431.723491 163.650561 
L 432.841083 164.967618 
L 437.353594 172.136933 
L 444.320426 173.292997 
L 446.639894 180.890484 
L 446.338161 186.355673 
L 444.99469 190.077345 
L 446.766318 190.735018 
L 453.4921 182.707646 
L 456.80105 181.543018 
L 457.768619 187.354171 
L 464.467431 187.5066 
L 469.403042 195.292482 
L 473.950952 200.523033 
L 480.454227 199.819118 
L 487.34689 200.708003 
L 497.664813 202.946487 
L 501.973359 201.97368 
L 505.590785 201.31087 
L 508.480006 203.324991 
L 504.640073 210.150055 
L 487.648623 226.793963 
L 478.082504 240.795192 
L 472.560283 256.731759 
L 467.67187 286.429779 
L 434.162641 363.478499 
L 430.21314 375.49986 
L 423.741892 403.723255 
L 418.679856 420.356886 
L 412.552483 446.52848 
L 413.076723 465.253304 
L 421.837097 479.936183 
L 443.656276 496.586942 
L 471.316266 503.345211 
L 477.448696 509.814035 
L 479.147841 513.8046 
L 481.211089 528.766647 
L 478.382552 543.769799 
L 472.740649 557.844673 
L 457.598368 580.962544 
L 448.273298 605.1988 
L 446.319618 640.55383 
L 444.730041 685.869856 
L 435.083011 725.314787 
L 434.329521 725.854284 
L 426.732253 729.445791 
L 423.841346 731.369141 
L 421.916323 732.038802 
L 420.471712 732.710176 
L 418.927648 733.962151 
L 418.056162 735.313462 
L 416.994196 736.760684 
L 415.549586 737.140901 
L 414.106661 737.329297 
L 412.469886 737.903048 
L 411.026961 737.897909 
L 408.334963 737.985257 
L 406.893724 738.076029 
L 405.066468 738.165089 
L 402.854883 738.351772 
L 401.027628 738.538455 
L 399.296455 738.629228 
L 397.757448 738.72 
L 396.124044 738.713149 
L 394.104623 738.706298 
L 391.98912 738.699448 
L 389.587055 738.49735 
L 387.18499 738.004096 
L 384.110347 737.509129 
L 381.325637 736.918252 
L 378.921886 736.813778 
L 376.713672 736.320523 
L 374.793706 735.733071 
L 372.969822 735.243242 
L 371.528583 734.657503 
L 369.129889 733.58536 
L 366.825592 732.996195 
L 364.90394 732.79581 
L 362.692355 732.787247 
L 360.482455 732.778683 
L 358.269184 732.867743 
L 356.345846 733.054426 
L 354.806839 733.242822 
L 353.266146 733.816573 
L 351.824907 733.811435 
L 350.381982 733.902207 
L 348.170396 734.087177 
L 345.766646 734.078614 
L 343.458977 734.165961 
L 340.85969 734.931533 
L 339.032435 735.020593 
L 335.197559 735.392246 
L 333.37199 732.484101 
L 332.131344 730.447714 
L 331.371112 728.318842 
L 330.612565 725.80119 
L 330.041126 724.444741 
L 329.282579 721.928801 
L 328.522347 719.894127 
L 327.182247 718.534253 
L 324.593074 717.268576 
L 323.151835 716.778747 
L 320.941935 716.384828 
L 319.404613 716.377978 
L 318.148797 717.823487 
L 317.371708 719.85131 
L 315.733247 720.520971 
L 314.292008 720.515833 
L 313.046305 719.352918 
L 311.51404 717.99133 
L 310.750436 716.730792 
L 309.413708 714.792028 
L 308.554022 713.242045 
L 307.601624 711.400905 
L 306.937474 709.172697 
L 306.081159 707.043825 
L 305.127076 705.394506 
L 304.172992 703.940433 
L 303.313306 702.583984 
L 302.549702 701.323445 
L 301.690016 700.16053 
L 300.159437 698.509498 
L 298.822708 696.569022 
L 296.906113 695.113236 
L 295.178312 694.33225 
L 292.585767 693.743086 
L 290.566347 693.732809 
L 289.029025 693.729384 
L 287.297853 693.818444 
L 285.75716 694.392195 
L 284.31255 695.063568 
L 282.384155 696.312118 
L 280.747379 697.081116 
L 279.206686 697.461332 
L 277.571596 697.552105 
L 276.034275 697.545254 
L 274.213762 696.183667 
L 272.96806 695.019039 
L 271.626275 694.142142 
L 269.613597 692.782267 
L 267.3093 692.19139 
L 265.675896 692.186252 
L 264.325682 692.955249 
L 264.31894 694.597717 
L 264.310512 696.241898 
L 263.439025 697.882654 
L 262.087126 699.134629 
L 259.875541 699.223689 
L 257.08746 699.2117 
L 256.419938 697.951161 
L 255.464169 696.692335 
L 254.607854 694.947106 
L 253.943704 692.816521 
L 253.953818 690.398205 
L 253.963932 688.175135 
L 253.972361 686.33742 
L 253.979103 684.886773 
L 253.985846 683.437839 
L 253.225613 681.305541 
L 251.022456 679.459263 
L 248.622077 679.061919 
L 246.026161 678.955733 
L 244.58155 679.529483 
L 243.233023 680.200857 
L 241.40071 681.452832 
L 238.899191 681.63609 
L 237.265787 681.72515 
L 235.440218 681.524765 
L 234.196201 680.456048 
L 232.85273 679.774398 
L 231.607028 678.995124 
L 229.112251 677.631824 
L 227.579987 676.465483 
L 225.951639 675.29743 
L 224.321606 674.033466 
L 222.791027 672.673591 
L 221.258763 671.313716 
L 219.820895 670.147375 
L 218.000382 669.076945 
L 215.224101 667.737622 
L 214.335758 666.031785 
L 212.589415 664.343074 
L 212.929918 661.810007 
L 211.232459 661.157473 
L 210.145208 659.69655 
L 209.368119 658.338388 
L 208.85905 656.99564 
L 208.00442 655.440519 
L 207.03348 653.929927 
L 207.026738 652.306298 
L 206.898628 650.836812 
L 206.736804 649.089869 
L 206.848058 647.587841 
L 206.338989 646.075537 
L 206.8666 644.552957 
L 206.745233 643.008112 
L 205.850147 641.42045 
L 205.722037 639.920135 
L 205.715294 638.169767 
L 205.593927 636.469067 
L 205.386591 634.722125 
L 205.381534 633.250926 
L 205.374791 631.735196 
L 205.322536 630.032784 
L 205.047773 628.517054 
L 204.344853 626.929392 
L 203.412683 625.34173 
L 203.02161 623.952739 
L 202.783932 622.454137 
L 202.846302 620.703769 
L 203.188491 619.261685 
L 203.83747 617.756232 
L 204.751097 616.310723 
L 205.824862 614.752176 
L 206.467099 613.433406 
L 207.040223 611.679613 
L 207.490294 610.020018 
L 207.792027 608.160038 
L 207.741457 606.366853 
L 207.58132 604.864825 
L 207.380726 603.194954 
L 206.82783 601.576463 
L 206.473841 599.860349 
L 205.811377 598.008933 
L 205.566956 596.183207 
L 205.560214 594.449966 
L 205.246681 592.858878 
L 205.194426 591.264365 
L 205.69001 589.868524 
L 206.338989 588.315116 
L 206.325503 586.643532 
L 206.436757 585.01819 
L 206.891885 583.497323 
L 207.264416 582.101482 
L 207.567835 580.549786 
L 207.824055 578.722347 
L 207.933623 576.941151 
L 207.92688 575.442548 
L 208.107246 573.723009 
L 208.178043 572.25181 
L 208.132531 570.672711 
L 207.618404 569.114164 
L 207.072251 567.648103 
L 207.065508 566.130661 
L 206.94414 564.585816 
L 206.087825 563.229366 
L 205.927688 561.650267 
L 206.763775 560.360613 
L 208.223556 559.389519 
L 208.794995 557.914894 
L 209.283836 556.162813 
L 209.278779 554.38333 
L 208.918048 552.559317 
L 208.331438 550.9374 
L 207.476809 549.226425 
L 145.334964 440.307995 
L 144.903435 342.46381 
L 176.367959 314.521296 
L 176.207821 312.620212 
L 175.467817 311.000009 
L 174.03332 309.833668 
L 172.528026 308.562853 
L 171.410434 307.641426 
L 170.245643 306.567571 
L 169.544408 305.209409 
L 168.96117 303.310037 
L 168.605496 301.40724 
L 167.750867 299.838417 
L 166.779927 298.404897 
L 165.692676 296.973089 
L 164.644196 295.666308 
L 163.983417 293.768649 
L 163.706969 292.066237 
L 163.423778 290.427194 
L 163.10856 288.726494 
L 162.832112 287.058335 
L 162.594434 285.434707 
L 162.124134 283.610693 
L 161.571238 281.884303 
L 161.025084 280.447357 
L 160.554785 278.981296 
L 159.738926 276.927782 
L 159.037692 275.680945 
L 158.073494 274.262839 
L 157.404287 272.628934 
L 157.28292 271.203977 
L 157.159867 269.455322 
L 156.999729 267.941306 
L 156.376035 266.476957 
L 155.288784 264.860179 
L 154.395385 263.426658 
L 154.196477 261.880101 
L 154.112194 260.396912 
L 154.105451 258.893172 
L 154.209962 257.252416 
L 154.24199 255.594534 
L 154.157707 254.047976 
L 153.764948 252.225675 
L 153.333419 250.709946 
L 152.826036 249.324381 
L 152.588358 247.854894 
L 152.382707 246.214138 
L 152.30011 244.636752 
L 152.215827 242.809314 
L 152.202341 241.033255 
L 152.156829 239.483272 
L 151.996691 237.73633 
L 151.951178 236.189772 
L 152.170314 234.391449 
L 152.163571 232.611966 
L 152.305167 230.938669 
L 152.839521 229.309902 
L 153.867773 227.523568 
L 154.594293 226.09176 
L 155.46915 224.647964 
L 156.234439 223.246985 
L 156.883418 221.974457 
L 157.41103 220.563202 
L 157.945384 218.901894 
L 158.317915 217.305668 
L 158.619648 215.723144 
L 159.037692 214.313601 
L 159.701841 211.58015 
L 162.397211 210.528559 
L 163.745739 209.663652 
L 165.478597 208.896367 
L 167.406992 207.64953 
L 169.143221 206.109823 
L 170.785054 204.085425 
L 172.236407 201.963404 
L 173.301744 199.935581 
L 174.174916 198.296538 
L 174.373824 196.74998 
L 174.481706 194.429287 
L 174.490134 192.593285 
L 174.692413 190.657947 
L 174.796924 188.917855 
L 175.577385 186.502964 
L 177.227645 182.932009 
L 178.483462 181.101145 
L 179.933129 179.172657 
L 182.053689 177.730573 
L 182.969002 177.187651 
L 183.783176 174.594641 
L 184.84177 172.856262 
L 191.476527 174.515857 
L 199.530609 173.025818 
L 204.594331 170.27524 
L 210.682934 169.391493 
L 213.282221 166.774505 
L 216.441147 166.294952 
L 217.894186 167.546927 
L 226.307313 169.27503 
L 226.634331 171.720749 
L 236.11111 170.629767 
L 241.2844 168.381007 
L 248.273145 160.449546 
L 249.604816 162.515048 
L 249.879579 166.819035 
L 252.551349 169.629557 
L 250.921317 171.323406 
L 254.247123 174.099674 
L 255.108495 177.206491 
L 259.032711 182.197265 
L 263.245175 180.097509 
L 272.000491 177.526764 
L 272.791066 174.937178 
L 274.112623 173.202225 
L 276.132043 170.852416 
L 280.357992 171.379924 
L 286.635389 176.368986 
L 288.208109 170.74623 
L 286.662359 163.808128 
L 289.544837 159.930601 
L 302.050747 156.318541 
L 308.053381 155.116234 
L 310.666153 150.577609 
L 315.402857 152.939407 
L 317.1728 151.118819 
L 319.175364 153.442937 
L 321.562258 154.295856 
L 325.683696 156.424728 
L 328.14813 159.175306 
L 329.378662 157.236542 
L 333.88443 160.180654 
L 335.885308 159.59834 
L 343.968047 160.601975 
L 347.893948 159.591489 
L 347.538274 151.452793 
L 345.653706 151.105117 
L 341.304704 151.648039 
L 347.492761 144.706513 
L 351.914247 140.400814 
L 361.957407 137.876311 
L 366.033332 133.92 
L 369.613673 135.89473 
L 372.777657 142.637585 
L 371.779746 145.079879 
" clip-path="url(#pb82bda58dc)" style="fill: #b3e2cd; fill-opacity: 0.65"/>
   </g>
   <g id="PatchCollection_2">
    <path d="M 429.81906 357.493376 
L 442.818862 371.758284 
L 457.898631 397.11812 
L 474.018385 392.36315 
L 491.698115 392.36315 
L 501.057972 405.571398 
L 509.377844 408.213048 
L 511.457813 423.534615 
L 529.657535 439.912842 
L 534.337463 455.23441 
L 554.097161 464.744348 
L 569.176931 475.839276 
L 582.176732 481.122576 
L 589.456621 481.650905 
L 593.096565 491.160844 
L 522.897638 511.76571 
L 508.33786 499.085793 
L 495.338059 494.859153 
L 480.258289 487.990864 
L 473.498393 476.895936 
L 461.538576 483.235895 
L 449.058766 490.104184 
L 435.018981 489.575854 
L 427.2191 497.500803 
L 414.219299 489.047524 
L 403.299466 475.310946 
L 401.739489 453.64942 
L 406.419418 430.402904 
L 411.619338 415.081337 
L 417.859243 396.58979 
L 423.059164 380.739892 
L 429.81906 357.493376 
" clip-path="url(#pb82bda58dc)" style="fill: none; stroke: #000000; stroke-width: 2"/>
   </g>
   <g id="matplotlib.axis_1">
    <g id="xtick_1">
     <g id="line2d_1">
      <path d="M 196.737471 768.96 
L 196.737471 103.68 
" clip-path="url(#pb82bda58dc)" style="fill: none; stroke: #b0b0b0; stroke-width: 0.8; stroke-linecap: square"/>
     </g>
     <g id="line2d_2">
      <defs>
       <path id="mc87e633bf3" d="M 0 0 
L 0 3.5 
" style="stroke: #000000; stroke-width: 0.8"/>
      </defs>
      <g>
       <use xlink:href="#mc87e633bf3" x="196.737471" y="768.96" style="stroke: #000000; stroke-width: 0.8"/>
      </g>
     </g>
     <g id="text_1">
      <!-- −48.55 -->
      <g transform="translate(185.604406 807.501382) rotate(-45) scale(0.1 -0.1)">
       <defs>
        <path id="DejaVuSans-2212" d="M 678 2272 
L 4684 2272 
L 4684 1741 
L 678 1741 
L 678 2272 
z
" transform="scale(0.015625)"/>
        <path id="DejaVuSans-34" d="M 2419 4116 
L 825 1625 
L 2419 1625 
L 2419 4116 
z
M 2253 4666 
L 3047 4666 
L 3047 1625 
L 3713 1625 
L 3713 1100 
L 3047 1100 
L 3047 0 
L 2419 0 
L 2419 1100 
L 313 1100 
L 313 1709 
L 2253 4666 
z
" transform="scale(0.015625)"/>
        <path id="DejaVuSans-38" d="M 2034 2216 
Q 1584 2216 1326 1975 
Q 1069 1734 1069 1313 
Q 1069 891 1326 650 
Q 1584 409 2034 409 
Q 2484 409 2743 651 
Q 3003 894 3003 1313 
Q 3003 1734 2745 1975 
Q 2488 2216 2034 2216 
z
M 1403 2484 
Q 997 2584 770 2862 
Q 544 3141 544 3541 
Q 544 4100 942 4425 
Q 1341 4750 2034 4750 
Q 2731 4750 3128 4425 
Q 3525 4100 3525 3541 
Q 3525 3141 3298 2862 
Q 3072 2584 2669 2484 
Q 3125 2378 3379 2068 
Q 3634 1759 3634 1313 
Q 3634 634 3220 271 
Q 2806 -91 2034 -91 
Q 1263 -91 848 271 
Q 434 634 434 1313 
Q 434 1759 690 2068 
Q 947 2378 1403 2484 
z
M 1172 3481 
Q 1172 3119 1398 2916 
Q 1625 2713 2034 2713 
Q 2441 2713 2670 2916 
Q 2900 3119 2900 3481 
Q 2900 3844 2670 4047 
Q 2441 4250 2034 4250 
Q 1625 4250 1398 4047 
Q 1172 3844 1172 3481 
z
" transform="scale(0.015625)"/>
        <path id="DejaVuSans-2e" d="M 684 794 
L 1344 794 
L 1344 0 
L 684 0 
L 684 794 
z
" transform="scale(0.015625)"/>
        <path id="DejaVuSans-35" d="M 691 4666 
L 3169 4666 
L 3169 4134 
L 1269 4134 
L 1269 2991 
Q 1406 3038 1543 3061 
Q 1681 3084 1819 3084 
Q 2600 3084 3056 2656 
Q 3513 2228 3513 1497 
Q 3513 744 3044 326 
Q 2575 -91 1722 -91 
Q 1428 -91 1123 -41 
Q 819 9 494 109 
L 494 744 
Q 775 591 1075 516 
Q 1375 441 1709 441 
Q 2250 441 2565 725 
Q 2881 1009 2881 1497 
Q 2881 1984 2565 2268 
Q 2250 2553 1709 2553 
Q 1456 2553 1204 2497 
Q 953 2441 691 2322 
L 691 4666 
z
" transform="scale(0.015625)"/>
       </defs>
       <use xlink:href="#DejaVuSans-2212"/>
       <use xlink:href="#DejaVuSans-34" transform="translate(83.789062 0)"/>
       <use xlink:href="#DejaVuSans-38" transform="translate(147.412109 0)"/>
       <use xlink:href="#DejaVuSans-2e" transform="translate(211.035156 0)"/>
       <use xlink:href="#DejaVuSans-35" transform="translate(242.822266 0)"/>
       <use xlink:href="#DejaVuSans-35" transform="translate(306.445312 0)"/>
      </g>
     </g>
    </g>
    <g id="xtick_2">
     <g id="line2d_3">
      <path d="M 281.020456 768.96 
L 281.020456 103.68 
" clip-path="url(#pb82bda58dc)" style="fill: none; stroke: #b0b0b0; stroke-width: 0.8; stroke-linecap: square"/>
     </g>
     <g id="line2d_4">
      <g>
       <use xlink:href="#mc87e633bf3" x="281.020456" y="768.96" style="stroke: #000000; stroke-width: 0.8"/>
      </g>
     </g>
     <g id="text_2">
      <!-- −48.50 -->
      <g transform="translate(269.887391 807.501382) rotate(-45) scale(0.1 -0.1)">
       <defs>
        <path id="DejaVuSans-30" d="M 2034 4250 
Q 1547 4250 1301 3770 
Q 1056 3291 1056 2328 
Q 1056 1369 1301 889 
Q 1547 409 2034 409 
Q 2525 409 2770 889 
Q 3016 1369 3016 2328 
Q 3016 3291 2770 3770 
Q 2525 4250 2034 4250 
z
M 2034 4750 
Q 2819 4750 3233 4129 
Q 3647 3509 3647 2328 
Q 3647 1150 3233 529 
Q 2819 -91 2034 -91 
Q 1250 -91 836 529 
Q 422 1150 422 2328 
Q 422 3509 836 4129 
Q 1250 4750 2034 4750 
z
" transform="scale(0.015625)"/>
       </defs>
       <use xlink:href="#DejaVuSans-2212"/>
       <use xlink:href="#DejaVuSans-34" transform="translate(83.789062 0)"/>
       <use xlink:href="#DejaVuSans-38" transform="translate(147.412109 0)"/>
       <use xlink:href="#DejaVuSans-2e" transform="translate(211.035156 0)"/>
       <use xlink:href="#DejaVuSans-35" transform="translate(242.822266 0)"/>
       <use xlink:href="#DejaVuSans-30" transform="translate(306.445312 0)"/>
      </g>
     </g>
    </g>
    <g id="xtick_3">
     <g id="line2d_5">
      <path d="M 365.303442 768.96 
L 365.303442 103.68 
" clip-path="url(#pb82bda58dc)" style="fill: none; stroke: #b0b0b0; stroke-width: 0.8; stroke-linecap: square"/>
     </g>
     <g id="line2d_6">
      <g>
       <use xlink:href="#mc87e633bf3" x="365.303442" y="768.96" style="stroke: #000000; stroke-width: 0.8"/>
      </g>
     </g>
     <g id="text_3">
      <!-- −48.45 -->
      <g transform="translate(354.170377 807.501382) rotate(-45) scale(0.1 -0.1)">
       <use xlink:href="#DejaVuSans-2212"/>
       <use xlink:href="#DejaVuSans-34" transform="translate(83.789062 0)"/>
       <use xlink:href="#DejaVuSans-38" transform="translate(147.412109 0)"/>
       <use xlink:href="#DejaVuSans-2e" transform="translate(211.035156 0)"/>
       <use xlink:href="#DejaVuSans-34" transform="translate(242.822266 0)"/>
       <use xlink:href="#DejaVuSans-35" transform="translate(306.445312 0)"/>
      </g>
     </g>
    </g>
    <g id="xtick_4">
     <g id="line2d_7">
      <path d="M 449.586427 768.96 
L 449.586427 103.68 
" clip-path="url(#pb82bda58dc)" style="fill: none; stroke: #b0b0b0; stroke-width: 0.8; stroke-linecap: square"/>
     </g>
     <g id="line2d_8">
      <g>
       <use xlink:href="#mc87e633bf3" x="449.586427" y="768.96" style="stroke: #000000; stroke-width: 0.8"/>
      </g>
     </g>
     <g id="text_4">
      <!-- −48.40 -->
      <g transform="translate(438.453362 807.501382) rotate(-45) scale(0.1 -0.1)">
       <use xlink:href="#DejaVuSans-2212"/>
       <use xlink:href="#DejaVuSans-34" transform="translate(83.789062 0)"/>
       <use xlink:href="#DejaVuSans-38" transform="translate(147.412109 0)"/>
       <use xlink:href="#DejaVuSans-2e" transform="translate(211.035156 0)"/>
       <use xlink:href="#DejaVuSans-34" transform="translate(242.822266 0)"/>
       <use xlink:href="#DejaVuSans-30" transform="translate(306.445312 0)"/>
      </g>
     </g>
    </g>
    <g id="xtick_5">
     <g id="line2d_9">
      <path d="M 533.869412 768.96 
L 533.869412 103.68 
" clip-path="url(#pb82bda58dc)" style="fill: none; stroke: #b0b0b0; stroke-width: 0.8; stroke-linecap: square"/>
     </g>
     <g id="line2d_10">
      <g>
       <use xlink:href="#mc87e633bf3" x="533.869412" y="768.96" style="stroke: #000000; stroke-width: 0.8"/>
      </g>
     </g>
     <g id="text_5">
      <!-- −48.35 -->
      <g transform="translate(522.736347 807.501382) rotate(-45) scale(0.1 -0.1)">
       <defs>
        <path id="DejaVuSans-33" d="M 2597 2516 
Q 3050 2419 3304 2112 
Q 3559 1806 3559 1356 
Q 3559 666 3084 287 
Q 2609 -91 1734 -91 
Q 1441 -91 1130 -33 
Q 819 25 488 141 
L 488 750 
Q 750 597 1062 519 
Q 1375 441 1716 441 
Q 2309 441 2620 675 
Q 2931 909 2931 1356 
Q 2931 1769 2642 2001 
Q 2353 2234 1838 2234 
L 1294 2234 
L 1294 2753 
L 1863 2753 
Q 2328 2753 2575 2939 
Q 2822 3125 2822 3475 
Q 2822 3834 2567 4026 
Q 2313 4219 1838 4219 
Q 1578 4219 1281 4162 
Q 984 4106 628 3988 
L 628 4550 
Q 988 4650 1302 4700 
Q 1616 4750 1894 4750 
Q 2613 4750 3031 4423 
Q 3450 4097 3450 3541 
Q 3450 3153 3228 2886 
Q 3006 2619 2597 2516 
z
" transform="scale(0.015625)"/>
       </defs>
       <use xlink:href="#DejaVuSans-2212"/>
       <use xlink:href="#DejaVuSans-34" transform="translate(83.789062 0)"/>
       <use xlink:href="#DejaVuSans-38" transform="translate(147.412109 0)"/>
       <use xlink:href="#DejaVuSans-2e" transform="translate(211.035156 0)"/>
       <use xlink:href="#DejaVuSans-33" transform="translate(242.822266 0)"/>
       <use xlink:href="#DejaVuSans-35" transform="translate(306.445312 0)"/>
      </g>
     </g>
    </g>
    <g id="text_6">
     <!-- Longitude (°) -->
     <g transform="translate(336.139844 820.57038) scale(0.1 -0.1)">
      <defs>
       <path id="DejaVuSans-4c" d="M 628 4666 
L 1259 4666 
L 1259 531 
L 3531 531 
L 3531 0 
L 628 0 
L 628 4666 
z
" transform="scale(0.015625)"/>
       <path id="DejaVuSans-6f" d="M 1959 3097 
Q 1497 3097 1228 2736 
Q 959 2375 959 1747 
Q 959 1119 1226 758 
Q 1494 397 1959 397 
Q 2419 397 2687 759 
Q 2956 1122 2956 1747 
Q 2956 2369 2687 2733 
Q 2419 3097 1959 3097 
z
M 1959 3584 
Q 2709 3584 3137 3096 
Q 3566 2609 3566 1747 
Q 3566 888 3137 398 
Q 2709 -91 1959 -91 
Q 1206 -91 779 398 
Q 353 888 353 1747 
Q 353 2609 779 3096 
Q 1206 3584 1959 3584 
z
" transform="scale(0.015625)"/>
       <path id="DejaVuSans-6e" d="M 3513 2113 
L 3513 0 
L 2938 0 
L 2938 2094 
Q 2938 2591 2744 2837 
Q 2550 3084 2163 3084 
Q 1697 3084 1428 2787 
Q 1159 2491 1159 1978 
L 1159 0 
L 581 0 
L 581 3500 
L 1159 3500 
L 1159 2956 
Q 1366 3272 1645 3428 
Q 1925 3584 2291 3584 
Q 2894 3584 3203 3211 
Q 3513 2838 3513 2113 
z
" transform="scale(0.015625)"/>
       <path id="DejaVuSans-67" d="M 2906 1791 
Q 2906 2416 2648 2759 
Q 2391 3103 1925 3103 
Q 1463 3103 1205 2759 
Q 947 2416 947 1791 
Q 947 1169 1205 825 
Q 1463 481 1925 481 
Q 2391 481 2648 825 
Q 2906 1169 2906 1791 
z
M 3481 434 
Q 3481 -459 3084 -895 
Q 2688 -1331 1869 -1331 
Q 1566 -1331 1297 -1286 
Q 1028 -1241 775 -1147 
L 775 -588 
Q 1028 -725 1275 -790 
Q 1522 -856 1778 -856 
Q 2344 -856 2625 -561 
Q 2906 -266 2906 331 
L 2906 616 
Q 2728 306 2450 153 
Q 2172 0 1784 0 
Q 1141 0 747 490 
Q 353 981 353 1791 
Q 353 2603 747 3093 
Q 1141 3584 1784 3584 
Q 2172 3584 2450 3431 
Q 2728 3278 2906 2969 
L 2906 3500 
L 3481 3500 
L 3481 434 
z
" transform="scale(0.015625)"/>
       <path id="DejaVuSans-69" d="M 603 3500 
L 1178 3500 
L 1178 0 
L 603 0 
L 603 3500 
z
M 603 4863 
L 1178 4863 
L 1178 4134 
L 603 4134 
L 603 4863 
z
" transform="scale(0.015625)"/>
       <path id="DejaVuSans-74" d="M 1172 4494 
L 1172 3500 
L 2356 3500 
L 2356 3053 
L 1172 3053 
L 1172 1153 
Q 1172 725 1289 603 
Q 1406 481 1766 481 
L 2356 481 
L 2356 0 
L 1766 0 
Q 1100 0 847 248 
Q 594 497 594 1153 
L 594 3053 
L 172 3053 
L 172 3500 
L 594 3500 
L 594 4494 
L 1172 4494 
z
" transform="scale(0.015625)"/>
       <path id="DejaVuSans-75" d="M 544 1381 
L 544 3500 
L 1119 3500 
L 1119 1403 
Q 1119 906 1312 657 
Q 1506 409 1894 409 
Q 2359 409 2629 706 
Q 2900 1003 2900 1516 
L 2900 3500 
L 3475 3500 
L 3475 0 
L 2900 0 
L 2900 538 
Q 2691 219 2414 64 
Q 2138 -91 1772 -91 
Q 1169 -91 856 284 
Q 544 659 544 1381 
z
M 1991 3584 
L 1991 3584 
z
" transform="scale(0.015625)"/>
       <path id="DejaVuSans-64" d="M 2906 2969 
L 2906 4863 
L 3481 4863 
L 3481 0 
L 2906 0 
L 2906 525 
Q 2725 213 2448 61 
Q 2172 -91 1784 -91 
Q 1150 -91 751 415 
Q 353 922 353 1747 
Q 353 2572 751 3078 
Q 1150 3584 1784 3584 
Q 2172 3584 2448 3432 
Q 2725 3281 2906 2969 
z
M 947 1747 
Q 947 1113 1208 752 
Q 1469 391 1925 391 
Q 2381 391 2643 752 
Q 2906 1113 2906 1747 
Q 2906 2381 2643 2742 
Q 2381 3103 1925 3103 
Q 1469 3103 1208 2742 
Q 947 2381 947 1747 
z
" transform="scale(0.015625)"/>
       <path id="DejaVuSans-65" d="M 3597 1894 
L 3597 1613 
L 953 1613 
Q 991 1019 1311 708 
Q 1631 397 2203 397 
Q 2534 397 2845 478 
Q 3156 559 3463 722 
L 3463 178 
Q 3153 47 2828 -22 
Q 2503 -91 2169 -91 
Q 1331 -91 842 396 
Q 353 884 353 1716 
Q 353 2575 817 3079 
Q 1281 3584 2069 3584 
Q 2775 3584 3186 3129 
Q 3597 2675 3597 1894 
z
M 3022 2063 
Q 3016 2534 2758 2815 
Q 2500 3097 2075 3097 
Q 1594 3097 1305 2825 
Q 1016 2553 972 2059 
L 3022 2063 
z
" transform="scale(0.015625)"/>
       <path id="DejaVuSans-20" transform="scale(0.015625)"/>
       <path id="DejaVuSans-28" d="M 1984 4856 
Q 1566 4138 1362 3434 
Q 1159 2731 1159 2009 
Q 1159 1288 1364 580 
Q 1569 -128 1984 -844 
L 1484 -844 
Q 1016 -109 783 600 
Q 550 1309 550 2009 
Q 550 2706 781 3412 
Q 1013 4119 1484 4856 
L 1984 4856 
z
" transform="scale(0.015625)"/>
       <path id="DejaVuSans-b0" d="M 1600 4347 
Q 1350 4347 1178 4173 
Q 1006 4000 1006 3750 
Q 1006 3503 1178 3333 
Q 1350 3163 1600 3163 
Q 1850 3163 2022 3333 
Q 2194 3503 2194 3750 
Q 2194 3997 2020 4172 
Q 1847 4347 1600 4347 
z
M 1600 4750 
Q 1800 4750 1984 4673 
Q 2169 4597 2303 4453 
Q 2447 4313 2519 4134 
Q 2591 3956 2591 3750 
Q 2591 3338 2302 3052 
Q 2013 2766 1594 2766 
Q 1172 2766 890 3047 
Q 609 3328 609 3750 
Q 609 4169 896 4459 
Q 1184 4750 1600 4750 
z
" transform="scale(0.015625)"/>
       <path id="DejaVuSans-29" d="M 513 4856 
L 1013 4856 
Q 1481 4119 1714 3412 
Q 1947 2706 1947 2009 
Q 1947 1309 1714 600 
Q 1481 -109 1013 -844 
L 513 -844 
Q 928 -128 1133 580 
Q 1338 1288 1338 2009 
Q 1338 2731 1133 3434 
Q 928 4138 513 4856 
z
" transform="scale(0.015625)"/>
      </defs>
      <use xlink:href="#DejaVuSans-4c"/>
      <use xlink:href="#DejaVuSans-6f" transform="translate(53.962891 0)"/>
      <use xlink:href="#DejaVuSans-6e" transform="translate(115.144531 0)"/>
      <use xlink:href="#DejaVuSans-67" transform="translate(178.523438 0)"/>
      <use xlink:href="#DejaVuSans-69" transform="translate(242 0)"/>
      <use xlink:href="#DejaVuSans-74" transform="translate(269.783203 0)"/>
      <use xlink:href="#DejaVuSans-75" transform="translate(308.992188 0)"/>
      <use xlink:href="#DejaVuSans-64" transform="translate(372.371094 0)"/>
      <use xlink:href="#DejaVuSans-65" transform="translate(435.847656 0)"/>
      <use xlink:href="#DejaVuSans-20" transform="translate(497.371094 0)"/>
      <use xlink:href="#DejaVuSans-28" transform="translate(529.158203 0)"/>
      <use xlink:href="#DejaVuSans-b0" transform="translate(568.171875 0)"/>
      <use xlink:href="#DejaVuSans-29" transform="translate(618.171875 0)"/>
     </g>
    </g>
   </g>
   <g id="matplotlib.axis_2">
    <g id="ytick_1">
     <g id="line2d_11">
      <path d="M 122.493778 704.202475 
L 615.506222 704.202475 
" clip-path="url(#pb82bda58dc)" style="fill: none; stroke: #b0b0b0; stroke-width: 0.8; stroke-linecap: square"/>
     </g>
     <g id="line2d_12">
      <defs>
       <path id="me8114350aa" d="M 0 0 
L -3.5 0 
" style="stroke: #000000; stroke-width: 0.8"/>
      </defs>
      <g>
       <use xlink:href="#me8114350aa" x="122.493778" y="704.202475" style="stroke: #000000; stroke-width: 0.8"/>
      </g>
     </g>
     <g id="text_7">
      <!-- −10.35 -->
      <g transform="translate(78.485966 708.001693) scale(0.1 -0.1)">
       <defs>
        <path id="DejaVuSans-31" d="M 794 531 
L 1825 531 
L 1825 4091 
L 703 3866 
L 703 4441 
L 1819 4666 
L 2450 4666 
L 2450 531 
L 3481 531 
L 3481 0 
L 794 0 
L 794 531 
z
" transform="scale(0.015625)"/>
       </defs>
       <use xlink:href="#DejaVuSans-2212"/>
       <use xlink:href="#DejaVuSans-31" transform="translate(83.789062 0)"/>
       <use xlink:href="#DejaVuSans-30" transform="translate(147.412109 0)"/>
       <use xlink:href="#DejaVuSans-2e" transform="translate(211.035156 0)"/>
       <use xlink:href="#DejaVuSans-33" transform="translate(242.822266 0)"/>
       <use xlink:href="#DejaVuSans-35" transform="translate(306.445312 0)"/>
      </g>
     </g>
    </g>
    <g id="ytick_2">
     <g id="line2d_13">
      <path d="M 122.493778 618.568046 
L 615.506222 618.568046 
" clip-path="url(#pb82bda58dc)" style="fill: none; stroke: #b0b0b0; stroke-width: 0.8; stroke-linecap: square"/>
     </g>
     <g id="line2d_14">
      <g>
       <use xlink:href="#me8114350aa" x="122.493778" y="618.568046" style="stroke: #000000; stroke-width: 0.8"/>
      </g>
     </g>
     <g id="text_8">
      <!-- −10.30 -->
      <g transform="translate(78.485966 622.367265) scale(0.1 -0.1)">
       <use xlink:href="#DejaVuSans-2212"/>
       <use xlink:href="#DejaVuSans-31" transform="translate(83.789062 0)"/>
       <use xlink:href="#DejaVuSans-30" transform="translate(147.412109 0)"/>
       <use xlink:href="#DejaVuSans-2e" transform="translate(211.035156 0)"/>
       <use xlink:href="#DejaVuSans-33" transform="translate(242.822266 0)"/>
       <use xlink:href="#DejaVuSans-30" transform="translate(306.445312 0)"/>
      </g>
     </g>
    </g>
    <g id="ytick_3">
     <g id="line2d_15">
      <path d="M 122.493778 532.933618 
L 615.506222 532.933618 
" clip-path="url(#pb82bda58dc)" style="fill: none; stroke: #b0b0b0; stroke-width: 0.8; stroke-linecap: square"/>
     </g>
     <g id="line2d_16">
      <g>
       <use xlink:href="#me8114350aa" x="122.493778" y="532.933618" style="stroke: #000000; stroke-width: 0.8"/>
      </g>
     </g>
     <g id="text_9">
      <!-- −10.25 -->
      <g transform="translate(78.485966 536.732837) scale(0.1 -0.1)">
       <defs>
        <path id="DejaVuSans-32" d="M 1228 531 
L 3431 531 
L 3431 0 
L 469 0 
L 469 531 
Q 828 903 1448 1529 
Q 2069 2156 2228 2338 
Q 2531 2678 2651 2914 
Q 2772 3150 2772 3378 
Q 2772 3750 2511 3984 
Q 2250 4219 1831 4219 
Q 1534 4219 1204 4116 
Q 875 4013 500 3803 
L 500 4441 
Q 881 4594 1212 4672 
Q 1544 4750 1819 4750 
Q 2544 4750 2975 4387 
Q 3406 4025 3406 3419 
Q 3406 3131 3298 2873 
Q 3191 2616 2906 2266 
Q 2828 2175 2409 1742 
Q 1991 1309 1228 531 
z
" transform="scale(0.015625)"/>
       </defs>
       <use xlink:href="#DejaVuSans-2212"/>
       <use xlink:href="#DejaVuSans-31" transform="translate(83.789062 0)"/>
       <use xlink:href="#DejaVuSans-30" transform="translate(147.412109 0)"/>
       <use xlink:href="#DejaVuSans-2e" transform="translate(211.035156 0)"/>
       <use xlink:href="#DejaVuSans-32" transform="translate(242.822266 0)"/>
       <use xlink:href="#DejaVuSans-35" transform="translate(306.445312 0)"/>
      </g>
     </g>
    </g>
    <g id="ytick_4">
     <g id="line2d_17">
      <path d="M 122.493778 447.29919 
L 615.506222 447.29919 
" clip-path="url(#pb82bda58dc)" style="fill: none; stroke: #b0b0b0; stroke-width: 0.8; stroke-linecap: square"/>
     </g>
     <g id="line2d_18">
      <g>
       <use xlink:href="#me8114350aa" x="122.493778" y="447.29919" style="stroke: #000000; stroke-width: 0.8"/>
      </g>
     </g>
     <g id="text_10">
      <!-- −10.20 -->
      <g transform="translate(78.485966 451.098409) scale(0.1 -0.1)">
       <use xlink:href="#DejaVuSans-2212"/>
       <use xlink:href="#DejaVuSans-31" transform="translate(83.789062 0)"/>
       <use xlink:href="#DejaVuSans-30" transform="translate(147.412109 0)"/>
       <use xlink:href="#DejaVuSans-2e" transform="translate(211.035156 0)"/>
       <use xlink:href="#DejaVuSans-32" transform="translate(242.822266 0)"/>
       <use xlink:href="#DejaVuSans-30" transform="translate(306.445312 0)"/>
      </g>
     </g>
    </g>
    <g id="ytick_5">
     <g id="line2d_19">
      <path d="M 122.493778 361.664762 
L 615.506222 361.664762 
" clip-path="url(#pb82bda58dc)" style="fill: none; stroke: #b0b0b0; stroke-width: 0.8; stroke-linecap: square"/>
     </g>
     <g id="line2d_20">
      <g>
       <use xlink:href="#me8114350aa" x="122.493778" y="361.664762" style="stroke: #000000; stroke-width: 0.8"/>
      </g>
     </g>
     <g id="text_11">
      <!-- −10.15 -->
      <g transform="translate(78.485966 365.463981) scale(0.1 -0.1)">
       <use xlink:href="#DejaVuSans-2212"/>
       <use xlink:href="#DejaVuSans-31" transform="translate(83.789062 0)"/>
       <use xlink:href="#DejaVuSans-30" transform="translate(147.412109 0)"/>
       <use xlink:href="#DejaVuSans-2e" transform="translate(211.035156 0)"/>
       <use xlink:href="#DejaVuSans-31" transform="translate(242.822266 0)"/>
       <use xlink:href="#DejaVuSans-35" transform="translate(306.445312 0)"/>
      </g>
     </g>
    </g>
    <g id="ytick_6">
     <g id="line2d_21">
      <path d="M 122.493778 276.030334 
L 615.506222 276.030334 
" clip-path="url(#pb82bda58dc)" style="fill: none; stroke: #b0b0b0; stroke-width: 0.8; stroke-linecap: square"/>
     </g>
     <g id="line2d_22">
      <g>
       <use xlink:href="#me8114350aa" x="122.493778" y="276.030334" style="stroke: #000000; stroke-width: 0.8"/>
      </g>
     </g>
     <g id="text_12">
      <!-- −10.10 -->
      <g transform="translate(78.485966 279.829552) scale(0.1 -0.1)">
       <use xlink:href="#DejaVuSans-2212"/>
       <use xlink:href="#DejaVuSans-31" transform="translate(83.789062 0)"/>
       <use xlink:href="#DejaVuSans-30" transform="translate(147.412109 0)"/>
       <use xlink:href="#DejaVuSans-2e" transform="translate(211.035156 0)"/>
       <use xlink:href="#DejaVuSans-31" transform="translate(242.822266 0)"/>
       <use xlink:href="#DejaVuSans-30" transform="translate(306.445312 0)"/>
      </g>
     </g>
    </g>
    <g id="ytick_7">
     <g id="line2d_23">
      <path d="M 122.493778 190.395905 
L 615.506222 190.395905 
" clip-path="url(#pb82bda58dc)" style="fill: none; stroke: #b0b0b0; stroke-width: 0.8; stroke-linecap: square"/>
     </g>
     <g id="line2d_24">
      <g>
       <use xlink:href="#me8114350aa" x="122.493778" y="190.395905" style="stroke: #000000; stroke-width: 0.8"/>
      </g>
     </g>
     <g id="text_13">
      <!-- −10.05 -->
      <g transform="translate(78.485966 194.195124) scale(0.1 -0.1)">
       <use xlink:href="#DejaVuSans-2212"/>
       <use xlink:href="#DejaVuSans-31" transform="translate(83.789062 0)"/>
       <use xlink:href="#DejaVuSans-30" transform="translate(147.412109 0)"/>
       <use xlink:href="#DejaVuSans-2e" transform="translate(211.035156 0)"/>
       <use xlink:href="#DejaVuSans-30" transform="translate(242.822266 0)"/>
       <use xlink:href="#DejaVuSans-35" transform="translate(306.445312 0)"/>
      </g>
     </g>
    </g>
    <g id="ytick_8">
     <g id="line2d_25">
      <path d="M 122.493778 104.761477 
L 615.506222 104.761477 
" clip-path="url(#pb82bda58dc)" style="fill: none; stroke: #b0b0b0; stroke-width: 0.8; stroke-linecap: square"/>
     </g>
     <g id="line2d_26">
      <g>
       <use xlink:href="#me8114350aa" x="122.493778" y="104.761477" style="stroke: #000000; stroke-width: 0.8"/>
      </g>
     </g>
     <g id="text_14">
      <!-- −10.00 -->
      <g transform="translate(78.485966 108.560696) scale(0.1 -0.1)">
       <use xlink:href="#DejaVuSans-2212"/>
       <use xlink:href="#DejaVuSans-31" transform="translate(83.789062 0)"/>
       <use xlink:href="#DejaVuSans-30" transform="translate(147.412109 0)"/>
       <use xlink:href="#DejaVuSans-2e" transform="translate(211.035156 0)"/>
       <use xlink:href="#DejaVuSans-30" transform="translate(242.822266 0)"/>
       <use xlink:href="#DejaVuSans-30" transform="translate(306.445312 0)"/>
      </g>
     </g>
    </g>
    <g id="text_15">
     <!-- Latitude (°) -->
     <g transform="translate(72.406278 464.889531) rotate(-90) scale(0.1 -0.1)">
      <defs>
       <path id="DejaVuSans-61" d="M 2194 1759 
Q 1497 1759 1228 1600 
Q 959 1441 959 1056 
Q 959 750 1161 570 
Q 1363 391 1709 391 
Q 2188 391 2477 730 
Q 2766 1069 2766 1631 
L 2766 1759 
L 2194 1759 
z
M 3341 1997 
L 3341 0 
L 2766 0 
L 2766 531 
Q 2569 213 2275 61 
Q 1981 -91 1556 -91 
Q 1019 -91 701 211 
Q 384 513 384 1019 
Q 384 1609 779 1909 
Q 1175 2209 1959 2209 
L 2766 2209 
L 2766 2266 
Q 2766 2663 2505 2880 
Q 2244 3097 1772 3097 
Q 1472 3097 1187 3025 
Q 903 2953 641 2809 
L 641 3341 
Q 956 3463 1253 3523 
Q 1550 3584 1831 3584 
Q 2591 3584 2966 3190 
Q 3341 2797 3341 1997 
z
" transform="scale(0.015625)"/>
      </defs>
      <use xlink:href="#DejaVuSans-4c"/>
      <use xlink:href="#DejaVuSans-61" transform="translate(55.712891 0)"/>
      <use xlink:href="#DejaVuSans-74" transform="translate(116.992188 0)"/>
      <use xlink:href="#DejaVuSans-69" transform="translate(156.201172 0)"/>
      <use xlink:href="#DejaVuSans-74" transform="translate(183.984375 0)"/>
      <use xlink:href="#DejaVuSans-75" transform="translate(223.193359 0)"/>
      <use xlink:href="#DejaVuSans-64" transform="translate(286.572266 0)"/>
      <use xlink:href="#DejaVuSans-65" transform="translate(350.048828 0)"/>
      <use xlink:href="#DejaVuSans-20" transform="translate(411.572266 0)"/>
      <use xlink:href="#DejaVuSans-28" transform="translate(443.359375 0)"/>
      <use xlink:href="#DejaVuSans-b0" transform="translate(482.373047 0)"/>
      <use xlink:href="#DejaVuSans-29" transform="translate(532.373047 0)"/>
     </g>
    </g>
   </g>
   <g id="patch_3">
    <path d="M 122.493778 768.96 
L 122.493778 103.68 
" style="fill: none; stroke: #000000; stroke-width: 0.8; stroke-linejoin: miter; stroke-linecap: square"/>
   </g>
   <g id="patch_4">
    <path d="M 615.506222 768.96 
L 615.506222 103.68 
" style="fill: none; stroke: #000000; stroke-width: 0.8; stroke-linejoin: miter; stroke-linecap: square"/>
   </g>
   <g id="patch_5">
    <path d="M 122.493778 768.96 
L 615.506222 768.96 
" style="fill: none; stroke: #000000; stroke-width: 0.8; stroke-linejoin: miter; stroke-linecap: square"/>
   </g>
   <g id="patch_6">
    <path d="M 122.493778 103.68 
L 615.506222 103.68 
" style="fill: none; stroke: #000000; stroke-width: 0.8; stroke-linejoin: miter; stroke-linecap: square"/>
   </g>
   <g id="legend_1">
    <g id="patch_7">
     <path d="M 226.309375 926.217562 
L 511.690625 926.217562 
Q 513.690625 926.217562 513.690625 924.217562 
L 513.690625 909.016 
Q 513.690625 907.016 511.690625 907.016 
L 226.309375 907.016 
Q 224.309375 907.016 224.309375 909.016 
L 224.309375 924.217562 
Q 224.309375 926.217562 226.309375 926.217562 
z
" style="fill: #ffffff; opacity: 0.8; stroke: #cccccc; stroke-linejoin: miter"/>
    </g>
    <g id="line2d_27">
     <defs>
      <path id="m803d201e79" d="M 0 5 
C 1.326016 5 2.597899 4.473168 3.535534 3.535534 
C 4.473168 2.597899 5 1.326016 5 0 
C 5 -1.326016 4.473168 -2.597899 3.535534 -3.535534 
C 2.597899 -4.473168 1.326016 -5 0 -5 
C -1.326016 -5 -2.597899 -4.473168 -3.535534 -3.535534 
C -4.473168 -2.597899 -5 -1.326016 -5 0 
C -5 1.326016 -4.473168 2.597899 -3.535534 3.535534 
C -2.597899 4.473168 -1.326016 5 0 5 
z
"/>
     </defs>
     <g>
      <use xlink:href="#m803d201e79" x="238.309375" y="916.637875" style="fill: #b3e2cd; fill-opacity: 0.65"/>
     </g>
    </g>
    <g id="text_16">
     <!-- ÁREA DE PROTEÇÃO AMBIENTAL LAGO DE PALMAS -->
     <g transform="translate(256.309375 920.137875) scale(0.1 -0.1)">
      <defs>
       <path id="DejaVuSans-c1" d="M 2188 4044 
L 1331 1722 
L 3047 1722 
L 2188 4044 
z
M 1831 4666 
L 2547 4666 
L 4325 0 
L 3669 0 
L 3244 1197 
L 1141 1197 
L 716 0 
L 50 0 
L 1831 4666 
z
M 2359 5935 
L 2938 5935 
L 2225 5110 
L 1747 5110 
L 2359 5935 
z
" transform="scale(0.015625)"/>
       <path id="DejaVuSans-52" d="M 2841 2188 
Q 3044 2119 3236 1894 
Q 3428 1669 3622 1275 
L 4263 0 
L 3584 0 
L 2988 1197 
Q 2756 1666 2539 1819 
Q 2322 1972 1947 1972 
L 1259 1972 
L 1259 0 
L 628 0 
L 628 4666 
L 2053 4666 
Q 2853 4666 3247 4331 
Q 3641 3997 3641 3322 
Q 3641 2881 3436 2590 
Q 3231 2300 2841 2188 
z
M 1259 4147 
L 1259 2491 
L 2053 2491 
Q 2509 2491 2742 2702 
Q 2975 2913 2975 3322 
Q 2975 3731 2742 3939 
Q 2509 4147 2053 4147 
L 1259 4147 
z
" transform="scale(0.015625)"/>
       <path id="DejaVuSans-45" d="M 628 4666 
L 3578 4666 
L 3578 4134 
L 1259 4134 
L 1259 2753 
L 3481 2753 
L 3481 2222 
L 1259 2222 
L 1259 531 
L 3634 531 
L 3634 0 
L 628 0 
L 628 4666 
z
" transform="scale(0.015625)"/>
       <path id="DejaVuSans-41" d="M 2188 4044 
L 1331 1722 
L 3047 1722 
L 2188 4044 
z
M 1831 4666 
L 2547 4666 
L 4325 0 
L 3669 0 
L 3244 1197 
L 1141 1197 
L 716 0 
L 50 0 
L 1831 4666 
z
" transform="scale(0.015625)"/>
       <path id="DejaVuSans-44" d="M 1259 4147 
L 1259 519 
L 2022 519 
Q 2988 519 3436 956 
Q 3884 1394 3884 2338 
Q 3884 3275 3436 3711 
Q 2988 4147 2022 4147 
L 1259 4147 
z
M 628 4666 
L 1925 4666 
Q 3281 4666 3915 4102 
Q 4550 3538 4550 2338 
Q 4550 1131 3912 565 
Q 3275 0 1925 0 
L 628 0 
L 628 4666 
z
" transform="scale(0.015625)"/>
       <path id="DejaVuSans-50" d="M 1259 4147 
L 1259 2394 
L 2053 2394 
Q 2494 2394 2734 2622 
Q 2975 2850 2975 3272 
Q 2975 3691 2734 3919 
Q 2494 4147 2053 4147 
L 1259 4147 
z
M 628 4666 
L 2053 4666 
Q 2838 4666 3239 4311 
Q 3641 3956 3641 3272 
Q 3641 2581 3239 2228 
Q 2838 1875 2053 1875 
L 1259 1875 
L 1259 0 
L 628 0 
L 628 4666 
z
" transform="scale(0.015625)"/>
       <path id="DejaVuSans-4f" d="M 2522 4238 
Q 1834 4238 1429 3725 
Q 1025 3213 1025 2328 
Q 1025 1447 1429 934 
Q 1834 422 2522 422 
Q 3209 422 3611 934 
Q 4013 1447 4013 2328 
Q 4013 3213 3611 3725 
Q 3209 4238 2522 4238 
z
M 2522 4750 
Q 3503 4750 4090 4092 
Q 4678 3434 4678 2328 
Q 4678 1225 4090 567 
Q 3503 -91 2522 -91 
Q 1538 -91 948 565 
Q 359 1222 359 2328 
Q 359 3434 948 4092 
Q 1538 4750 2522 4750 
z
" transform="scale(0.015625)"/>
       <path id="DejaVuSans-54" d="M -19 4666 
L 3928 4666 
L 3928 4134 
L 2272 4134 
L 2272 0 
L 1638 0 
L 1638 4134 
L -19 4134 
L -19 4666 
z
" transform="scale(0.015625)"/>
       <path id="DejaVuSans-c7" d="M 4122 4306 
L 4122 3641 
Q 3803 3938 3442 4084 
Q 3081 4231 2675 4231 
Q 1875 4231 1450 3742 
Q 1025 3253 1025 2328 
Q 1025 1406 1450 917 
Q 1875 428 2675 428 
Q 3081 428 3442 575 
Q 3803 722 4122 1019 
L 4122 359 
Q 3791 134 3420 21 
Q 3050 -91 2638 -91 
Q 1578 -91 968 557 
Q 359 1206 359 2328 
Q 359 3453 968 4101 
Q 1578 4750 2638 4750 
Q 3056 4750 3426 4639 
Q 3797 4528 4122 4306 
z
M 2803 0 
Q 2975 -194 3059 -358 
Q 3144 -522 3144 -672 
Q 3144 -950 2956 -1092 
Q 2769 -1234 2400 -1234 
Q 2256 -1234 2120 -1215 
Q 1984 -1197 1850 -1159 
L 1850 -750 
Q 1956 -803 2072 -826 
Q 2188 -850 2334 -850 
Q 2519 -850 2612 -775 
Q 2706 -700 2706 -556 
Q 2706 -463 2639 -327 
Q 2572 -191 2431 0 
L 2803 0 
z
" transform="scale(0.015625)"/>
       <path id="DejaVuSans-c3" d="M 2188 4044 
L 1331 1722 
L 3047 1722 
L 2188 4044 
z
M 1831 4666 
L 2547 4666 
L 4325 0 
L 3669 0 
L 3244 1197 
L 1141 1197 
L 716 0 
L 50 0 
L 1831 4666 
z
M 2175 5344 
L 1997 5447 
Q 1919 5491 1870 5508 
Q 1822 5525 1784 5525 
Q 1672 5525 1609 5447 
Q 1547 5369 1547 5229 
L 1547 5210 
L 1156 5210 
Q 1156 5525 1317 5709 
Q 1478 5894 1747 5894 
Q 1859 5894 1954 5869 
Q 2050 5844 2200 5760 
L 2378 5666 
Q 2450 5625 2503 5606 
Q 2556 5588 2603 5588 
Q 2703 5588 2765 5667 
Q 2828 5747 2828 5875 
L 2828 5894 
L 3219 5894 
Q 3213 5582 3052 5396 
Q 2891 5210 2628 5210 
Q 2522 5210 2430 5235 
Q 2338 5260 2175 5344 
z
" transform="scale(0.015625)"/>
       <path id="DejaVuSans-4d" d="M 628 4666 
L 1569 4666 
L 2759 1491 
L 3956 4666 
L 4897 4666 
L 4897 0 
L 4281 0 
L 4281 4097 
L 3078 897 
L 2444 897 
L 1241 4097 
L 1241 0 
L 628 0 
L 628 4666 
z
" transform="scale(0.015625)"/>
       <path id="DejaVuSans-42" d="M 1259 2228 
L 1259 519 
L 2272 519 
Q 2781 519 3026 730 
Q 3272 941 3272 1375 
Q 3272 1813 3026 2020 
Q 2781 2228 2272 2228 
L 1259 2228 
z
M 1259 4147 
L 1259 2741 
L 2194 2741 
Q 2656 2741 2882 2914 
Q 3109 3088 3109 3444 
Q 3109 3797 2882 3972 
Q 2656 4147 2194 4147 
L 1259 4147 
z
M 628 4666 
L 2241 4666 
Q 2963 4666 3353 4366 
Q 3744 4066 3744 3513 
Q 3744 3084 3544 2831 
Q 3344 2578 2956 2516 
Q 3422 2416 3680 2098 
Q 3938 1781 3938 1306 
Q 3938 681 3513 340 
Q 3088 0 2303 0 
L 628 0 
L 628 4666 
z
" transform="scale(0.015625)"/>
       <path id="DejaVuSans-49" d="M 628 4666 
L 1259 4666 
L 1259 0 
L 628 0 
L 628 4666 
z
" transform="scale(0.015625)"/>
       <path id="DejaVuSans-4e" d="M 628 4666 
L 1478 4666 
L 3547 763 
L 3547 4666 
L 4159 4666 
L 4159 0 
L 3309 0 
L 1241 3903 
L 1241 0 
L 628 0 
L 628 4666 
z
" transform="scale(0.015625)"/>
       <path id="DejaVuSans-47" d="M 3809 666 
L 3809 1919 
L 2778 1919 
L 2778 2438 
L 4434 2438 
L 4434 434 
Q 4069 175 3628 42 
Q 3188 -91 2688 -91 
Q 1594 -91 976 548 
Q 359 1188 359 2328 
Q 359 3472 976 4111 
Q 1594 4750 2688 4750 
Q 3144 4750 3555 4637 
Q 3966 4525 4313 4306 
L 4313 3634 
Q 3963 3931 3569 4081 
Q 3175 4231 2741 4231 
Q 1884 4231 1454 3753 
Q 1025 3275 1025 2328 
Q 1025 1384 1454 906 
Q 1884 428 2741 428 
Q 3075 428 3337 486 
Q 3600 544 3809 666 
z
" transform="scale(0.015625)"/>
       <path id="DejaVuSans-53" d="M 3425 4513 
L 3425 3897 
Q 3066 4069 2747 4153 
Q 2428 4238 2131 4238 
Q 1616 4238 1336 4038 
Q 1056 3838 1056 3469 
Q 1056 3159 1242 3001 
Q 1428 2844 1947 2747 
L 2328 2669 
Q 3034 2534 3370 2195 
Q 3706 1856 3706 1288 
Q 3706 609 3251 259 
Q 2797 -91 1919 -91 
Q 1588 -91 1214 -16 
Q 841 59 441 206 
L 441 856 
Q 825 641 1194 531 
Q 1563 422 1919 422 
Q 2459 422 2753 634 
Q 3047 847 3047 1241 
Q 3047 1584 2836 1778 
Q 2625 1972 2144 2069 
L 1759 2144 
Q 1053 2284 737 2584 
Q 422 2884 422 3419 
Q 422 4038 858 4394 
Q 1294 4750 2059 4750 
Q 2388 4750 2728 4690 
Q 3069 4631 3425 4513 
z
" transform="scale(0.015625)"/>
      </defs>
      <use xlink:href="#DejaVuSans-c1"/>
      <use xlink:href="#DejaVuSans-52" transform="translate(68.408203 0)"/>
      <use xlink:href="#DejaVuSans-45" transform="translate(137.890625 0)"/>
      <use xlink:href="#DejaVuSans-41" transform="translate(201.074219 0)"/>
      <use xlink:href="#DejaVuSans-20" transform="translate(269.482422 0)"/>
      <use xlink:href="#DejaVuSans-44" transform="translate(301.269531 0)"/>
      <use xlink:href="#DejaVuSans-45" transform="translate(378.271484 0)"/>
      <use xlink:href="#DejaVuSans-20" transform="translate(441.455078 0)"/>
      <use xlink:href="#DejaVuSans-50" transform="translate(473.242188 0)"/>
      <use xlink:href="#DejaVuSans-52" transform="translate(533.544922 0)"/>
      <use xlink:href="#DejaVuSans-4f" transform="translate(603.027344 0)"/>
      <use xlink:href="#DejaVuSans-54" transform="translate(681.738281 0)"/>
      <use xlink:href="#DejaVuSans-45" transform="translate(742.822266 0)"/>
      <use xlink:href="#DejaVuSans-c7" transform="translate(806.005859 0)"/>
      <use xlink:href="#DejaVuSans-c3" transform="translate(875.830078 0)"/>
      <use xlink:href="#DejaVuSans-4f" transform="translate(942.488281 0)"/>
      <use xlink:href="#DejaVuSans-20" transform="translate(1021.199219 0)"/>
      <use xlink:href="#DejaVuSans-41" transform="translate(1052.986328 0)"/>
      <use xlink:href="#DejaVuSans-4d" transform="translate(1121.394531 0)"/>
      <use xlink:href="#DejaVuSans-42" transform="translate(1207.673828 0)"/>
      <use xlink:href="#DejaVuSans-49" transform="translate(1276.277344 0)"/>
      <use xlink:href="#DejaVuSans-45" transform="translate(1305.769531 0)"/>
      <use xlink:href="#DejaVuSans-4e" transform="translate(1368.953125 0)"/>
      <use xlink:href="#DejaVuSans-54" transform="translate(1443.757812 0)"/>
      <use xlink:href="#DejaVuSans-41" transform="translate(1497.091797 0)"/>
      <use xlink:href="#DejaVuSans-4c" transform="translate(1565.5 0)"/>
      <use xlink:href="#DejaVuSans-20" transform="translate(1621.212891 0)"/>
      <use xlink:href="#DejaVuSans-4c" transform="translate(1653 0)"/>
      <use xlink:href="#DejaVuSans-41" transform="translate(1710.962891 0)"/>
      <use xlink:href="#DejaVuSans-47" transform="translate(1777.621094 0)"/>
      <use xlink:href="#DejaVuSans-4f" transform="translate(1855.111328 0)"/>
      <use xlink:href="#DejaVuSans-20" transform="translate(1933.822266 0)"/>
      <use xlink:href="#DejaVuSans-44" transform="translate(1965.609375 0)"/>
      <use xlink:href="#DejaVuSans-45" transform="translate(2042.611328 0)"/>
      <use xlink:href="#DejaVuSans-20" transform="translate(2105.794922 0)"/>
      <use xlink:href="#DejaVuSans-50" transform="translate(2137.582031 0)"/>
      <use xlink:href="#DejaVuSans-41" transform="translate(2191.509766 0)"/>
      <use xlink:href="#DejaVuSans-4c" transform="translate(2259.917969 0)"/>
      <use xlink:href="#DejaVuSans-4d" transform="translate(2315.630859 0)"/>
      <use xlink:href="#DejaVuSans-41" transform="translate(2401.910156 0)"/>
      <use xlink:href="#DejaVuSans-53" transform="translate(2470.318359 0)"/>
     </g>
    </g>
   </g>
  </g>
 </g>
 <defs>
  <clipPath id="pb82bda58dc">
   <rect x="122.493778" y="103.68" width="493.012443" height="665.28"/>
  </clipPath>
 </defs>
</svg>
