<?xml version="1.0" encoding="utf-8" standalone="no"?>
<!DOCTYPE svg PUBLIC "-//W3C//DTD SVG 1.1//EN"
  "http://www.w3.org/Graphics/SVG/1.1/DTD/svg11.dtd">
<svg xmlns:xlink="http://www.w3.org/1999/xlink" width="720pt" height="864pt" viewBox="0 0 720 864" xmlns="http://www.w3.org/2000/svg" version="1.1">
 <metadata>
  <rdf:RDF xmlns:dc="http://purl.org/dc/elements/1.1/" xmlns:cc="http://creativecommons.org/ns#" xmlns:rdf="http://www.w3.org/1999/02/22-rdf-syntax-ns#">
   <cc:Work>
    <dc:type rdf:resource="http://purl.org/dc/dcmitype/StillImage"/>
    <dc:date>2025-06-16T17:29:41.009530</dc:date>
    <dc:format>image/svg+xml</dc:format>
    <dc:creator>
     <cc:Agent>
      <dc:title>Matplotlib v3.10.1, https://matplotlib.org/</dc:title>
     </cc:Agent>
    </dc:creator>
   </cc:Work>
  </rdf:RDF>
 </metadata>
 <defs>
  <style type="text/css">*{stroke-linejoin: round; stroke-linecap: butt}</style>
 </defs>
 <g id="figure_1">
  <g id="patch_1">
   <path d="M 0 864 
L 720 864 
L 720 0 
L 0 0 
z
" style="fill: #ffffff"/>
  </g>
  <g id="axes_1">
   <g id="patch_2">
    <path d="M 204.93646 768.96 
L 533.06354 768.96 
L 533.06354 103.68 
L 204.93646 103.68 
z
" style="fill: #ffffff"/>
   </g>
   <g id="PatchCollection_1">
    <path d="M 470.087073 488.484395 
L 339.451031 332.275291 
L 371.638311 262.93777 
L 315.178221 229.064887 
L 324.200642 143.285607 
L 412.606004 133.92 
L 509.249147 214.979303 
L 518.148673 371.026373 
L 495.456489 461.779165 
L 470.087073 488.484395 
" clip-path="url(#pc59f27bcb4)" style="fill: #b3e2cd; fill-opacity: 0.65"/>
   </g>
   <g id="PatchCollection_2">
    <path d="M 305.409181 332.881072 
L 306.149711 333.54509 
L 306.977933 333.976121 
L 308.489453 335.477326 
L 309.508332 335.30046 
L 311.213631 336.742893 
L 312.015609 337.187688 
L 313.173133 337.279304 
L 313.909977 337.806718 
L 314.80806 337.689157 
L 315.410456 336.871034 
L 316.316422 336.527902 
L 317.238139 336.712183 
L 318.10943 337.079677 
L 318.897758 337.232715 
L 320.086271 336.856737 
L 320.934458 337.085492 
L 321.681814 336.532667 
L 321.999546 335.970311 
L 322.044715 334.970043 
L 322.21225 334.322437 
L 322.614553 333.629825 
L 323.809891 333.315801 
L 324.441707 333.612878 
L 324.798841 334.134992 
L 324.986852 334.783645 
L 326.610226 336.226079 
L 326.992583 336.779437 
L 327.520391 337.216816 
L 328.256194 337.416443 
L 329.558679 336.691538 
L 330.403709 336.94517 
L 331.005065 336.772555 
L 331.184681 336.153525 
L 332.01606 336.172588 
L 332.242415 335.623481 
L 333.089032 335.667421 
L 333.596364 335.384661 
L 334.261796 335.515985 
L 335.139913 335.932186 
L 335.529605 335.619249 
L 335.034884 334.962093 
L 337.037968 334.402387 
L 337.944974 334.252 
L 338.361458 333.665815 
L 340.081466 333.33698 
L 340.407611 332.976386 
L 341.008968 333.61711 
L 340.556769 333.993602 
L 340.770002 334.507767 
L 340.639752 335.404791 
L 341.202235 336.738127 
L 343.553529 338.111724 
L 346.269841 339.16495 
L 347.845418 340.540644 
L 348.206239 342.772606 
L 349.131624 344.152551 
L 350.413632 345.251299 
L 350.668347 346.923554 
L 351.509709 347.931772 
L 353.455031 349.650065 
L 357.87874 352.680019 
L 359.538359 355.253512 
L 360.344535 357.553776 
L 361.057745 357.974742 
L 360.652814 359.190536 
L 361.464246 360.681141 
L 362.776183 361.851928 
L 364.236749 367.325633 
L 365.237762 369.495087 
L 365.22621 371.85784 
L 367.003997 373.720705 
L 365.866949 376.135347 
L 366.803904 376.688686 
L 367.374253 376.736343 
L 367.508701 377.449086 
L 367.17573 378.746432 
L 367.856911 379.256898 
L 367.875818 379.646087 
L 368.312778 380.225923 
L 368.084324 380.185147 
L 367.631086 381.122414 
L 367.917829 381.56351 
L 368.412039 381.802845 
L 368.847959 381.461829 
L 369.027046 381.492024 
L 369.086396 382.027368 
L 369.950332 382.460515 
L 370.030687 382.90531 
L 369.718192 383.088009 
L 369.83689 383.879654 
L 370.430362 384.155532 
L 371.165636 384.665465 
L 371.818457 385.477221 
L 371.731277 386.194196 
L 372.889331 386.726909 
L 373.053709 387.386695 
L 372.914534 391.865945 
L 367.367957 396.001014 
L 368.023917 398.473359 
L 366.919445 400.287519 
L 366.111171 402.800106 
L 366.508728 404.189582 
L 365.51664 405.196752 
L 366.487212 406.998197 
L 365.274536 408.067302 
L 362.522508 411.156027 
L 362.507799 412.170593 
L 362.172729 413.244998 
L 362.470514 413.982618 
L 361.441652 415.750703 
L 359.912302 416.34802 
L 359.408109 418.282906 
L 358.663381 417.966766 
L 357.86509 419.249814 
L 357.721699 419.957792 
L 357.128246 420.566223 
L 357.60406 421.541062 
L 359.380278 422.78545 
L 361.317187 423.684057 
L 362.176926 424.932677 
L 362.351305 426.390456 
L 362.194793 426.38041 
L 362.721032 428.329059 
L 362.558753 429.092624 
L 363.015149 429.462768 
L 363.384876 430.026191 
L 363.679522 430.701857 
L 364.853855 431.669834 
L 365.067069 432.331736 
L 364.988832 432.798244 
L 366.67995 433.604719 
L 366.938863 434.790318 
L 367.637382 436.419148 
L 368.794906 438.037894 
L 367.991359 439.554463 
L 366.484584 440.986297 
L 366.27345 441.422628 
L 366.230909 441.94844 
L 366.414193 443.224606 
L 366.407368 443.899224 
L 366.24456 445.680538 
L 366.050233 446.185172 
L 366.496666 446.590792 
L 366.481956 447.155264 
L 367.672568 447.384553 
L 367.990319 447.701207 
L 368.139457 448.120057 
L 367.899981 448.79414 
L 367.900511 449.524364 
L 368.241347 450.05071 
L 368.257116 450.457379 
L 368.555411 451.035634 
L 368.8175 451.262272 
L 369.121052 451.758423 
L 369.799605 451.662594 
L 370.020704 452.031137 
L 369.916715 452.293786 
L 370.625218 452.675044 
L 371.326346 452.74388 
L 371.227084 453.01606 
L 371.577923 453.074297 
L 371.646706 453.285572 
L 372.023277 453.44814 
L 372.180829 453.762144 
L 371.439788 455.9332 
L 370.886758 456.438367 
L 370.848944 456.707898 
L 370.499694 457.069044 
L 370.622589 457.383049 
L 370.123653 457.959168 
L 370.961857 458.400798 
L 371.105758 459.10666 
L 372.146702 459.946476 
L 371.449771 461.520234 
L 371.867824 461.921603 
L 371.143572 463.2057 
L 371.092636 463.992045 
L 371.180346 464.7371 
L 371.900911 465.715656 
L 371.844719 466.973808 
L 371.34841 468.984945 
L 370.603682 471.088213 
L 369.959786 471.565853 
L 369.600553 471.992653 
L 369.529651 472.692681 
L 369.537006 473.59022 
L 369.364744 473.88253 
L 369.323262 474.73348 
L 369.647291 475.799935 
L 370.348967 476.307752 
L 370.233408 476.960657 
L 371.347881 478.434315 
L 372.255417 480.134631 
L 372.977551 480.935807 
L 373.728065 480.486227 
L 374.664491 481.155545 
L 375.417084 481.048583 
L 377.157587 481.834928 
L 378.566159 483.143921 
L 377.855047 485.293264 
L 376.87661 486.641431 
L 377.146545 488.701293 
L 379.111834 488.59008 
L 379.434292 492.311064 
L 381.187406 493.574516 
L 388.623096 491.948335 
L 388.868376 494.005547 
L 389.589451 496.701881 
L 392.36827 498.453019 
L 393.786295 502.786667 
L 393.128218 505.288674 
L 392.667095 507.966479 
L 392.63034 512.096248 
L 393.921273 514.772471 
L 397.833434 521.721416 
L 399.161651 522.842963 
L 400.615921 523.186096 
L 401.631113 525.987276 
L 400.564456 527.695522 
L 403.153127 530.791129 
L 401.372201 532.264272 
L 400.856456 534.515278 
L 399.734117 534.451741 
L 398.219988 534.769978 
L 396.264682 536.53913 
L 396.142316 537.851287 
L 394.892866 537.706733 
L 395.265768 539.146517 
L 395.849787 539.628903 
L 394.906535 541.201079 
L 395.866066 543.084056 
L 396.257857 545.90325 
L 396.032013 546.395188 
L 396.210589 546.867529 
L 395.466391 547.341452 
L 395.698001 548.013934 
L 396.246834 548.365015 
L 396.449555 547.709461 
L 396.745752 547.592968 
L 396.841875 547.924453 
L 396.393363 548.603302 
L 396.872334 548.839472 
L 396.921171 549.355753 
L 396.168578 550.019257 
L 396.537775 551.154548 
L 397.268322 551.455323 
L 397.690591 551.456924 
L 397.773574 551.699976 
L 398.033016 551.739684 
L 398.375441 552.191361 
L 398.635942 552.01398 
L 398.594441 552.250665 
L 399.102302 552.696528 
L 399.954705 552.861212 
L 400.671583 552.735187 
L 400.417927 553.249352 
L 401.311282 553.032245 
L 401.464637 553.32772 
L 402.273951 553.219176 
L 402.602196 553.397623 
L 403.350611 553.333553 
L 404.337972 553.922387 
L 405.125241 554.620833 
L 405.59162 555.412478 
L 407.588407 556.772826 
L 407.837866 557.464371 
L 409.161886 557.545388 
L 409.711758 557.888006 
L 411.188093 558.074384 
L 411.948041 558.223189 
L 412.522076 558.471007 
L 413.211142 558.436579 
L 413.569316 558.984123 
L 414.50837 557.676713 
L 414.875468 557.476038 
L 415.029882 557.875825 
L 415.946342 557.543806 
L 416.617541 558.007664 
L 418.226224 558.471007 
L 418.796573 558.510715 
L 418.881125 558.83162 
L 419.871644 559.068305 
L 420.224051 559.347901 
L 420.601152 559.394491 
L 421.203018 559.650792 
L 421.459322 559.928786 
L 422.066955 560.193017 
L 422.126833 560.602869 
L 422.620514 561.119169 
L 422.641009 561.733414 
L 423.176701 561.240962 
L 423.332155 561.502543 
L 423.986545 561.880084 
L 424.514901 562.325947 
L 425.208675 561.812849 
L 425.880932 561.992346 
L 426.978049 561.946805 
L 427.625103 562.091378 
L 427.896097 562.660615 
L 428.167621 562.93596 
L 428.000086 563.065168 
L 428.301539 564.451995 
L 428.843016 564.412802 
L 428.72065 565.136677 
L 429.654978 565.806529 
L 429.639739 566.267737 
L 430.125025 566.177188 
L 431.463735 567.306666 
L 431.238439 567.848891 
L 431.763108 568.210572 
L 431.949021 567.960638 
L 432.641755 568.063882 
L 432.681138 568.400133 
L 433.158029 568.324949 
L 433.124413 568.790923 
L 433.441105 568.629422 
L 433.534052 568.951375 
L 434.004628 568.845462 
L 434.654292 569.234135 
L 434.94735 568.859759 
L 435.06342 569.075818 
L 435.350183 569.355928 
L 435.466253 569.983937 
L 435.716241 570.649556 
L 435.409532 570.613547 
L 435.604898 571.106018 
L 434.320281 571.499972 
L 436.068649 571.788032 
L 434.968375 573.564599 
L 435.353851 573.976568 
L 435.090741 573.973918 
L 435.590718 574.873573 
L 436.751929 575.995654 
L 437.512936 575.846849 
L 438.896305 577.077474 
L 439.118972 577.875467 
L 439.648898 578.455818 
L 440.22662 579.784922 
L 441.11576 580.371106 
L 441.11472 580.737553 
L 441.62364 581.244302 
L 442.136227 582.166737 
L 442.732308 582.239805 
L 442.978099 582.81011 
L 443.531129 583.693886 
L 442.726542 584.51889 
L 442.20554 585.311583 
L 442.117831 585.79927 
L 442.230233 586.14082 
L 441.606831 586.588798 
L 442.268047 586.948344 
L 442.094197 587.200394 
L 442.732308 587.740522 
L 442.978629 587.697631 
L 443.040077 588.437367 
L 442.997536 589.563146 
L 442.25018 589.592789 
L 442.384117 590.309249 
L 443.448165 590.900714 
L 444.243829 590.493511 
L 444.918185 590.824996 
L 445.295266 590.710619 
L 445.719104 591.28569 
L 446.670221 591.541457 
L 446.388204 591.618223 
L 447.758962 592.307137 
L 448.514183 592.880626 
L 448.7668 593.414902 
L 449.096632 593.772332 
L 449.987871 593.908422 
L 450.018349 594.434253 
L 450.486297 594.831924 
L 450.650145 594.791683 
L 450.415396 595.468931 
L 450.896995 595.521354 
L 451.498862 596.606357 
L 451.528791 597.513961 
L 451.703171 598.085849 
L 451.523025 599.428735 
L 452.135933 599.219558 
L 452.346519 600.476662 
L 453.468877 600.766303 
L 453.39166 601.209516 
L 455.180471 601.920677 
L 455.855886 601.633666 
L 456.049153 602.12242 
L 456.576961 601.673908 
L 456.67938 602.013342 
L 457.897842 600.778485 
L 458.159912 600.622283 
L 458.668302 600.473478 
L 458.733947 600.131928 
L 459.134662 599.437199 
L 459.717112 599.283114 
L 460.464978 599.715194 
L 461.397736 599.923837 
L 461.192387 600.762071 
L 461.326305 601.181455 
L 461.822614 601.483812 
L 462.241196 601.354604 
L 462.358836 601.555298 
L 462.685511 601.365203 
L 462.959662 601.543651 
L 463.340431 601.471097 
L 463.295262 601.78087 
L 463.663419 601.733746 
L 463.557332 602.072646 
L 464.265815 602.392484 
L 464.473792 601.866138 
L 464.644484 601.931791 
L 464.533141 602.332112 
L 465.827212 602.604826 
L 466.676458 603.124805 
L 467.713185 602.181724 
L 468.412744 601.783519 
L 469.380688 601.883085 
L 470.069735 602.322047 
L 470.006718 602.884936 
L 470.624864 603.070266 
L 471.126958 603.483836 
L 471.608028 603.626274 
L 471.176324 604.752567 
L 471.841227 604.652487 
L 471.760872 604.976042 
L 472.22986 605.587104 
L 472.203598 605.807909 
L 471.75036 606.038265 
L 471.74932 606.337972 
L 471.173167 606.357569 
L 472.07021 607.270987 
L 471.787644 607.696739 
L 472.234587 608.203488 
L 472.103826 608.298269 
L 472.060227 608.603275 
L 472.270832 608.88817 
L 471.914227 609.382205 
L 472.071249 609.565437 
L 471.331267 610.043592 
L 470.888522 610.186564 
L 469.830259 611.004153 
L 470.075521 611.097352 
L 469.330263 611.667123 
L 469.558736 612.422224 
L 469.522491 613.077778 
L 469.839713 613.798452 
L 470.559748 614.576333 
L 470.944184 615.247233 
L 472.296564 616.316338 
L 471.919483 616.260217 
L 470.55712 617.732827 
L 471.090713 617.967415 
L 470.603348 619.114354 
L 468.974717 619.074646 
L 468.76674 620.044204 
L 469.002019 620.604444 
L 468.603403 620.854378 
L 468.75256 621.31612 
L 468.498885 621.958959 
L 468.242581 621.976974 
L 468.302989 622.748488 
L 467.519918 623.221877 
L 468.116018 623.478178 
L 468.187978 623.965864 
L 467.50207 624.397963 
L 467.95425 624.857589 
L 467.925379 625.336811 
L 467.521506 625.46337 
L 467.505738 626.216355 
L 467.652267 626.787708 
L 466.856074 627.220322 
L 466.9774 628.149124 
L 466.446416 628.569023 
L 466.681184 628.934936 
L 466.665964 629.34902 
L 467.110789 629.686338 
L 467.091372 630.315929 
L 467.255749 631.020208 
L 466.962161 631.520076 
L 467.271499 631.76471 
L 467.201656 631.988699 
L 466.805139 631.96752 
L 467.136522 632.42768 
L 466.997347 633.095415 
L 467.368133 633.775847 
L 467.415929 634.34722 
L 467.195871 634.473759 
L 466.996307 635.000124 
L 466.819319 635.01812 
L 466.776778 635.758923 
L 466.25001 636.411828 
L 465.69802 636.669711 
L 465.789927 636.971534 
L 465.528916 637.369205 
L 465.182804 637.499481 
L 465.023664 637.783824 
L 464.027379 638.217505 
L 464.00953 638.53576 
L 463.649239 639.575737 
L 463.802593 639.784914 
L 463.685483 641.600657 
L 463.496924 644.345182 
L 463.538954 644.591398 
L 463.723297 644.927134 
L 464.08357 646.202214 
L 463.718571 646.697335 
L 464.005314 647.375651 
L 464.013198 649.501699 
L 463.80732 649.768046 
L 464.281054 651.132626 
L 464.622949 651.378328 
L 464.984281 652.394495 
L 465.128182 653.044216 
L 465.332491 653.171843 
L 465.723223 653.580094 
L 466.323521 654.317733 
L 466.738964 654.843545 
L 466.912795 655.353478 
L 467.31247 655.619291 
L 467.617081 655.98997 
L 467.901215 656.962712 
L 467.696906 657.415971 
L 467.973686 657.69875 
L 467.55932 658.498858 
L 467.631791 658.677306 
L 467.434307 658.979663 
L 467.058285 659.140115 
L 466.36765 660.061483 
L 466.415957 660.604242 
L 466.341388 660.757813 
L 466.139177 660.889137 
L 465.919138 661.230154 
L 465.345613 661.812106 
L 465.112962 661.907935 
L 464.910752 662.947398 
L 464.975357 663.50657 
L 464.961706 664.047747 
L 464.917577 664.355403 
L 465.017368 664.766323 
L 465.127653 664.965416 
L 465.357694 665.132751 
L 465.606643 666.647718 
L 466.318283 667.228603 
L 466.386027 668.009668 
L 466.431725 668.196046 
L 466.279411 668.379278 
L 465.431753 669.840222 
L 465.070421 670.014438 
L 464.888706 670.659927 
L 464.65078 671.291653 
L 463.985897 672.130954 
L 463.37089 673.435181 
L 463.54525 673.734888 
L 414.431745 669.148477 
L 410.974262 666.135867 
L 348.824158 738.72 
L 345.340663 734.26484 
L 312.332301 647.265505 
L 311.885888 646.90066 
L 300.039592 615.064553 
L 277.429445 558.438181 
L 271.982659 544.148929 
L 235.686452 391.594299 
L 247.520666 381.631279 
L 241.872199 373.636504 
L 232.343599 378.011442 
L 228.304856 361.648584 
L 220.153839 360.811398 
L 219.851327 353.710465 
L 306.845584 351.282593 
L 305.409181 332.881072 
L 305.409181 332.881072 
" clip-path="url(#pc59f27bcb4)" style="fill: none; stroke: #000000; stroke-width: 2"/>
   </g>
   <g id="matplotlib.axis_1">
    <g id="xtick_1">
     <g id="line2d_1">
      <path d="M 217.168102 768.96 
L 217.168102 103.68 
" clip-path="url(#pc59f27bcb4)" style="fill: none; stroke: #b0b0b0; stroke-width: 0.8; stroke-linecap: square"/>
     </g>
     <g id="line2d_2">
      <defs>
       <path id="m31c43e0173" d="M 0 0 
L 0 3.5 
" style="stroke: #000000; stroke-width: 0.8"/>
      </defs>
      <g>
       <use xlink:href="#m31c43e0173" x="217.168102" y="768.96" style="stroke: #000000; stroke-width: 0.8"/>
      </g>
     </g>
     <g id="text_1">
      <!-- −48.24 -->
      <g transform="translate(206.035037 807.501382) rotate(-45) scale(0.1 -0.1)">
       <defs>
        <path id="DejaVuSans-2212" d="M 678 2272 
L 4684 2272 
L 4684 1741 
L 678 1741 
L 678 2272 
z
" transform="scale(0.015625)"/>
        <path id="DejaVuSans-34" d="M 2419 4116 
L 825 1625 
L 2419 1625 
L 2419 4116 
z
M 2253 4666 
L 3047 4666 
L 3047 1625 
L 3713 1625 
L 3713 1100 
L 3047 1100 
L 3047 0 
L 2419 0 
L 2419 1100 
L 313 1100 
L 313 1709 
L 2253 4666 
z
" transform="scale(0.015625)"/>
        <path id="DejaVuSans-38" d="M 2034 2216 
Q 1584 2216 1326 1975 
Q 1069 1734 1069 1313 
Q 1069 891 1326 650 
Q 1584 409 2034 409 
Q 2484 409 2743 651 
Q 3003 894 3003 1313 
Q 3003 1734 2745 1975 
Q 2488 2216 2034 2216 
z
M 1403 2484 
Q 997 2584 770 2862 
Q 544 3141 544 3541 
Q 544 4100 942 4425 
Q 1341 4750 2034 4750 
Q 2731 4750 3128 4425 
Q 3525 4100 3525 3541 
Q 3525 3141 3298 2862 
Q 3072 2584 2669 2484 
Q 3125 2378 3379 2068 
Q 3634 1759 3634 1313 
Q 3634 634 3220 271 
Q 2806 -91 2034 -91 
Q 1263 -91 848 271 
Q 434 634 434 1313 
Q 434 1759 690 2068 
Q 947 2378 1403 2484 
z
M 1172 3481 
Q 1172 3119 1398 2916 
Q 1625 2713 2034 2713 
Q 2441 2713 2670 2916 
Q 2900 3119 2900 3481 
Q 2900 3844 2670 4047 
Q 2441 4250 2034 4250 
Q 1625 4250 1398 4047 
Q 1172 3844 1172 3481 
z
" transform="scale(0.015625)"/>
        <path id="DejaVuSans-2e" d="M 684 794 
L 1344 794 
L 1344 0 
L 684 0 
L 684 794 
z
" transform="scale(0.015625)"/>
        <path id="DejaVuSans-32" d="M 1228 531 
L 3431 531 
L 3431 0 
L 469 0 
L 469 531 
Q 828 903 1448 1529 
Q 2069 2156 2228 2338 
Q 2531 2678 2651 2914 
Q 2772 3150 2772 3378 
Q 2772 3750 2511 3984 
Q 2250 4219 1831 4219 
Q 1534 4219 1204 4116 
Q 875 4013 500 3803 
L 500 4441 
Q 881 4594 1212 4672 
Q 1544 4750 1819 4750 
Q 2544 4750 2975 4387 
Q 3406 4025 3406 3419 
Q 3406 3131 3298 2873 
Q 3191 2616 2906 2266 
Q 2828 2175 2409 1742 
Q 1991 1309 1228 531 
z
" transform="scale(0.015625)"/>
       </defs>
       <use xlink:href="#DejaVuSans-2212"/>
       <use xlink:href="#DejaVuSans-34" transform="translate(83.789062 0)"/>
       <use xlink:href="#DejaVuSans-38" transform="translate(147.412109 0)"/>
       <use xlink:href="#DejaVuSans-2e" transform="translate(211.035156 0)"/>
       <use xlink:href="#DejaVuSans-32" transform="translate(242.822266 0)"/>
       <use xlink:href="#DejaVuSans-34" transform="translate(306.445312 0)"/>
      </g>
     </g>
    </g>
    <g id="xtick_2">
     <g id="line2d_3">
      <path d="M 254.982107 768.96 
L 254.982107 103.68 
" clip-path="url(#pc59f27bcb4)" style="fill: none; stroke: #b0b0b0; stroke-width: 0.8; stroke-linecap: square"/>
     </g>
     <g id="line2d_4">
      <g>
       <use xlink:href="#m31c43e0173" x="254.982107" y="768.96" style="stroke: #000000; stroke-width: 0.8"/>
      </g>
     </g>
     <g id="text_2">
      <!-- −48.22 -->
      <g transform="translate(243.849042 807.501382) rotate(-45) scale(0.1 -0.1)">
       <use xlink:href="#DejaVuSans-2212"/>
       <use xlink:href="#DejaVuSans-34" transform="translate(83.789062 0)"/>
       <use xlink:href="#DejaVuSans-38" transform="translate(147.412109 0)"/>
       <use xlink:href="#DejaVuSans-2e" transform="translate(211.035156 0)"/>
       <use xlink:href="#DejaVuSans-32" transform="translate(242.822266 0)"/>
       <use xlink:href="#DejaVuSans-32" transform="translate(306.445312 0)"/>
      </g>
     </g>
    </g>
    <g id="xtick_3">
     <g id="line2d_5">
      <path d="M 292.796111 768.96 
L 292.796111 103.68 
" clip-path="url(#pc59f27bcb4)" style="fill: none; stroke: #b0b0b0; stroke-width: 0.8; stroke-linecap: square"/>
     </g>
     <g id="line2d_6">
      <g>
       <use xlink:href="#m31c43e0173" x="292.796111" y="768.96" style="stroke: #000000; stroke-width: 0.8"/>
      </g>
     </g>
     <g id="text_3">
      <!-- −48.20 -->
      <g transform="translate(281.663047 807.501382) rotate(-45) scale(0.1 -0.1)">
       <defs>
        <path id="DejaVuSans-30" d="M 2034 4250 
Q 1547 4250 1301 3770 
Q 1056 3291 1056 2328 
Q 1056 1369 1301 889 
Q 1547 409 2034 409 
Q 2525 409 2770 889 
Q 3016 1369 3016 2328 
Q 3016 3291 2770 3770 
Q 2525 4250 2034 4250 
z
M 2034 4750 
Q 2819 4750 3233 4129 
Q 3647 3509 3647 2328 
Q 3647 1150 3233 529 
Q 2819 -91 2034 -91 
Q 1250 -91 836 529 
Q 422 1150 422 2328 
Q 422 3509 836 4129 
Q 1250 4750 2034 4750 
z
" transform="scale(0.015625)"/>
       </defs>
       <use xlink:href="#DejaVuSans-2212"/>
       <use xlink:href="#DejaVuSans-34" transform="translate(83.789062 0)"/>
       <use xlink:href="#DejaVuSans-38" transform="translate(147.412109 0)"/>
       <use xlink:href="#DejaVuSans-2e" transform="translate(211.035156 0)"/>
       <use xlink:href="#DejaVuSans-32" transform="translate(242.822266 0)"/>
       <use xlink:href="#DejaVuSans-30" transform="translate(306.445312 0)"/>
      </g>
     </g>
    </g>
    <g id="xtick_4">
     <g id="line2d_7">
      <path d="M 330.610116 768.96 
L 330.610116 103.68 
" clip-path="url(#pc59f27bcb4)" style="fill: none; stroke: #b0b0b0; stroke-width: 0.8; stroke-linecap: square"/>
     </g>
     <g id="line2d_8">
      <g>
       <use xlink:href="#m31c43e0173" x="330.610116" y="768.96" style="stroke: #000000; stroke-width: 0.8"/>
      </g>
     </g>
     <g id="text_4">
      <!-- −48.18 -->
      <g transform="translate(319.477051 807.501382) rotate(-45) scale(0.1 -0.1)">
       <defs>
        <path id="DejaVuSans-31" d="M 794 531 
L 1825 531 
L 1825 4091 
L 703 3866 
L 703 4441 
L 1819 4666 
L 2450 4666 
L 2450 531 
L 3481 531 
L 3481 0 
L 794 0 
L 794 531 
z
" transform="scale(0.015625)"/>
       </defs>
       <use xlink:href="#DejaVuSans-2212"/>
       <use xlink:href="#DejaVuSans-34" transform="translate(83.789062 0)"/>
       <use xlink:href="#DejaVuSans-38" transform="translate(147.412109 0)"/>
       <use xlink:href="#DejaVuSans-2e" transform="translate(211.035156 0)"/>
       <use xlink:href="#DejaVuSans-31" transform="translate(242.822266 0)"/>
       <use xlink:href="#DejaVuSans-38" transform="translate(306.445312 0)"/>
      </g>
     </g>
    </g>
    <g id="xtick_5">
     <g id="line2d_9">
      <path d="M 368.424121 768.96 
L 368.424121 103.68 
" clip-path="url(#pc59f27bcb4)" style="fill: none; stroke: #b0b0b0; stroke-width: 0.8; stroke-linecap: square"/>
     </g>
     <g id="line2d_10">
      <g>
       <use xlink:href="#m31c43e0173" x="368.424121" y="768.96" style="stroke: #000000; stroke-width: 0.8"/>
      </g>
     </g>
     <g id="text_5">
      <!-- −48.16 -->
      <g transform="translate(357.291056 807.501382) rotate(-45) scale(0.1 -0.1)">
       <defs>
        <path id="DejaVuSans-36" d="M 2113 2584 
Q 1688 2584 1439 2293 
Q 1191 2003 1191 1497 
Q 1191 994 1439 701 
Q 1688 409 2113 409 
Q 2538 409 2786 701 
Q 3034 994 3034 1497 
Q 3034 2003 2786 2293 
Q 2538 2584 2113 2584 
z
M 3366 4563 
L 3366 3988 
Q 3128 4100 2886 4159 
Q 2644 4219 2406 4219 
Q 1781 4219 1451 3797 
Q 1122 3375 1075 2522 
Q 1259 2794 1537 2939 
Q 1816 3084 2150 3084 
Q 2853 3084 3261 2657 
Q 3669 2231 3669 1497 
Q 3669 778 3244 343 
Q 2819 -91 2113 -91 
Q 1303 -91 875 529 
Q 447 1150 447 2328 
Q 447 3434 972 4092 
Q 1497 4750 2381 4750 
Q 2619 4750 2861 4703 
Q 3103 4656 3366 4563 
z
" transform="scale(0.015625)"/>
       </defs>
       <use xlink:href="#DejaVuSans-2212"/>
       <use xlink:href="#DejaVuSans-34" transform="translate(83.789062 0)"/>
       <use xlink:href="#DejaVuSans-38" transform="translate(147.412109 0)"/>
       <use xlink:href="#DejaVuSans-2e" transform="translate(211.035156 0)"/>
       <use xlink:href="#DejaVuSans-31" transform="translate(242.822266 0)"/>
       <use xlink:href="#DejaVuSans-36" transform="translate(306.445312 0)"/>
      </g>
     </g>
    </g>
    <g id="xtick_6">
     <g id="line2d_11">
      <path d="M 406.238126 768.96 
L 406.238126 103.68 
" clip-path="url(#pc59f27bcb4)" style="fill: none; stroke: #b0b0b0; stroke-width: 0.8; stroke-linecap: square"/>
     </g>
     <g id="line2d_12">
      <g>
       <use xlink:href="#m31c43e0173" x="406.238126" y="768.96" style="stroke: #000000; stroke-width: 0.8"/>
      </g>
     </g>
     <g id="text_6">
      <!-- −48.14 -->
      <g transform="translate(395.105061 807.501382) rotate(-45) scale(0.1 -0.1)">
       <use xlink:href="#DejaVuSans-2212"/>
       <use xlink:href="#DejaVuSans-34" transform="translate(83.789062 0)"/>
       <use xlink:href="#DejaVuSans-38" transform="translate(147.412109 0)"/>
       <use xlink:href="#DejaVuSans-2e" transform="translate(211.035156 0)"/>
       <use xlink:href="#DejaVuSans-31" transform="translate(242.822266 0)"/>
       <use xlink:href="#DejaVuSans-34" transform="translate(306.445312 0)"/>
      </g>
     </g>
    </g>
    <g id="xtick_7">
     <g id="line2d_13">
      <path d="M 444.052131 768.96 
L 444.052131 103.68 
" clip-path="url(#pc59f27bcb4)" style="fill: none; stroke: #b0b0b0; stroke-width: 0.8; stroke-linecap: square"/>
     </g>
     <g id="line2d_14">
      <g>
       <use xlink:href="#m31c43e0173" x="444.052131" y="768.96" style="stroke: #000000; stroke-width: 0.8"/>
      </g>
     </g>
     <g id="text_7">
      <!-- −48.12 -->
      <g transform="translate(432.919066 807.501382) rotate(-45) scale(0.1 -0.1)">
       <use xlink:href="#DejaVuSans-2212"/>
       <use xlink:href="#DejaVuSans-34" transform="translate(83.789062 0)"/>
       <use xlink:href="#DejaVuSans-38" transform="translate(147.412109 0)"/>
       <use xlink:href="#DejaVuSans-2e" transform="translate(211.035156 0)"/>
       <use xlink:href="#DejaVuSans-31" transform="translate(242.822266 0)"/>
       <use xlink:href="#DejaVuSans-32" transform="translate(306.445312 0)"/>
      </g>
     </g>
    </g>
    <g id="xtick_8">
     <g id="line2d_15">
      <path d="M 481.866135 768.96 
L 481.866135 103.68 
" clip-path="url(#pc59f27bcb4)" style="fill: none; stroke: #b0b0b0; stroke-width: 0.8; stroke-linecap: square"/>
     </g>
     <g id="line2d_16">
      <g>
       <use xlink:href="#m31c43e0173" x="481.866135" y="768.96" style="stroke: #000000; stroke-width: 0.8"/>
      </g>
     </g>
     <g id="text_8">
      <!-- −48.10 -->
      <g transform="translate(470.733071 807.501382) rotate(-45) scale(0.1 -0.1)">
       <use xlink:href="#DejaVuSans-2212"/>
       <use xlink:href="#DejaVuSans-34" transform="translate(83.789062 0)"/>
       <use xlink:href="#DejaVuSans-38" transform="translate(147.412109 0)"/>
       <use xlink:href="#DejaVuSans-2e" transform="translate(211.035156 0)"/>
       <use xlink:href="#DejaVuSans-31" transform="translate(242.822266 0)"/>
       <use xlink:href="#DejaVuSans-30" transform="translate(306.445312 0)"/>
      </g>
     </g>
    </g>
    <g id="xtick_9">
     <g id="line2d_17">
      <path d="M 519.68014 768.96 
L 519.68014 103.68 
" clip-path="url(#pc59f27bcb4)" style="fill: none; stroke: #b0b0b0; stroke-width: 0.8; stroke-linecap: square"/>
     </g>
     <g id="line2d_18">
      <g>
       <use xlink:href="#m31c43e0173" x="519.68014" y="768.96" style="stroke: #000000; stroke-width: 0.8"/>
      </g>
     </g>
     <g id="text_9">
      <!-- −48.08 -->
      <g transform="translate(508.547075 807.501382) rotate(-45) scale(0.1 -0.1)">
       <use xlink:href="#DejaVuSans-2212"/>
       <use xlink:href="#DejaVuSans-34" transform="translate(83.789062 0)"/>
       <use xlink:href="#DejaVuSans-38" transform="translate(147.412109 0)"/>
       <use xlink:href="#DejaVuSans-2e" transform="translate(211.035156 0)"/>
       <use xlink:href="#DejaVuSans-30" transform="translate(242.822266 0)"/>
       <use xlink:href="#DejaVuSans-38" transform="translate(306.445312 0)"/>
      </g>
     </g>
    </g>
    <g id="text_10">
     <!-- Longitude (°) -->
     <g transform="translate(336.139844 820.57038) scale(0.1 -0.1)">
      <defs>
       <path id="DejaVuSans-4c" d="M 628 4666 
L 1259 4666 
L 1259 531 
L 3531 531 
L 3531 0 
L 628 0 
L 628 4666 
z
" transform="scale(0.015625)"/>
       <path id="DejaVuSans-6f" d="M 1959 3097 
Q 1497 3097 1228 2736 
Q 959 2375 959 1747 
Q 959 1119 1226 758 
Q 1494 397 1959 397 
Q 2419 397 2687 759 
Q 2956 1122 2956 1747 
Q 2956 2369 2687 2733 
Q 2419 3097 1959 3097 
z
M 1959 3584 
Q 2709 3584 3137 3096 
Q 3566 2609 3566 1747 
Q 3566 888 3137 398 
Q 2709 -91 1959 -91 
Q 1206 -91 779 398 
Q 353 888 353 1747 
Q 353 2609 779 3096 
Q 1206 3584 1959 3584 
z
" transform="scale(0.015625)"/>
       <path id="DejaVuSans-6e" d="M 3513 2113 
L 3513 0 
L 2938 0 
L 2938 2094 
Q 2938 2591 2744 2837 
Q 2550 3084 2163 3084 
Q 1697 3084 1428 2787 
Q 1159 2491 1159 1978 
L 1159 0 
L 581 0 
L 581 3500 
L 1159 3500 
L 1159 2956 
Q 1366 3272 1645 3428 
Q 1925 3584 2291 3584 
Q 2894 3584 3203 3211 
Q 3513 2838 3513 2113 
z
" transform="scale(0.015625)"/>
       <path id="DejaVuSans-67" d="M 2906 1791 
Q 2906 2416 2648 2759 
Q 2391 3103 1925 3103 
Q 1463 3103 1205 2759 
Q 947 2416 947 1791 
Q 947 1169 1205 825 
Q 1463 481 1925 481 
Q 2391 481 2648 825 
Q 2906 1169 2906 1791 
z
M 3481 434 
Q 3481 -459 3084 -895 
Q 2688 -1331 1869 -1331 
Q 1566 -1331 1297 -1286 
Q 1028 -1241 775 -1147 
L 775 -588 
Q 1028 -725 1275 -790 
Q 1522 -856 1778 -856 
Q 2344 -856 2625 -561 
Q 2906 -266 2906 331 
L 2906 616 
Q 2728 306 2450 153 
Q 2172 0 1784 0 
Q 1141 0 747 490 
Q 353 981 353 1791 
Q 353 2603 747 3093 
Q 1141 3584 1784 3584 
Q 2172 3584 2450 3431 
Q 2728 3278 2906 2969 
L 2906 3500 
L 3481 3500 
L 3481 434 
z
" transform="scale(0.015625)"/>
       <path id="DejaVuSans-69" d="M 603 3500 
L 1178 3500 
L 1178 0 
L 603 0 
L 603 3500 
z
M 603 4863 
L 1178 4863 
L 1178 4134 
L 603 4134 
L 603 4863 
z
" transform="scale(0.015625)"/>
       <path id="DejaVuSans-74" d="M 1172 4494 
L 1172 3500 
L 2356 3500 
L 2356 3053 
L 1172 3053 
L 1172 1153 
Q 1172 725 1289 603 
Q 1406 481 1766 481 
L 2356 481 
L 2356 0 
L 1766 0 
Q 1100 0 847 248 
Q 594 497 594 1153 
L 594 3053 
L 172 3053 
L 172 3500 
L 594 3500 
L 594 4494 
L 1172 4494 
z
" transform="scale(0.015625)"/>
       <path id="DejaVuSans-75" d="M 544 1381 
L 544 3500 
L 1119 3500 
L 1119 1403 
Q 1119 906 1312 657 
Q 1506 409 1894 409 
Q 2359 409 2629 706 
Q 2900 1003 2900 1516 
L 2900 3500 
L 3475 3500 
L 3475 0 
L 2900 0 
L 2900 538 
Q 2691 219 2414 64 
Q 2138 -91 1772 -91 
Q 1169 -91 856 284 
Q 544 659 544 1381 
z
M 1991 3584 
L 1991 3584 
z
" transform="scale(0.015625)"/>
       <path id="DejaVuSans-64" d="M 2906 2969 
L 2906 4863 
L 3481 4863 
L 3481 0 
L 2906 0 
L 2906 525 
Q 2725 213 2448 61 
Q 2172 -91 1784 -91 
Q 1150 -91 751 415 
Q 353 922 353 1747 
Q 353 2572 751 3078 
Q 1150 3584 1784 3584 
Q 2172 3584 2448 3432 
Q 2725 3281 2906 2969 
z
M 947 1747 
Q 947 1113 1208 752 
Q 1469 391 1925 391 
Q 2381 391 2643 752 
Q 2906 1113 2906 1747 
Q 2906 2381 2643 2742 
Q 2381 3103 1925 3103 
Q 1469 3103 1208 2742 
Q 947 2381 947 1747 
z
" transform="scale(0.015625)"/>
       <path id="DejaVuSans-65" d="M 3597 1894 
L 3597 1613 
L 953 1613 
Q 991 1019 1311 708 
Q 1631 397 2203 397 
Q 2534 397 2845 478 
Q 3156 559 3463 722 
L 3463 178 
Q 3153 47 2828 -22 
Q 2503 -91 2169 -91 
Q 1331 -91 842 396 
Q 353 884 353 1716 
Q 353 2575 817 3079 
Q 1281 3584 2069 3584 
Q 2775 3584 3186 3129 
Q 3597 2675 3597 1894 
z
M 3022 2063 
Q 3016 2534 2758 2815 
Q 2500 3097 2075 3097 
Q 1594 3097 1305 2825 
Q 1016 2553 972 2059 
L 3022 2063 
z
" transform="scale(0.015625)"/>
       <path id="DejaVuSans-20" transform="scale(0.015625)"/>
       <path id="DejaVuSans-28" d="M 1984 4856 
Q 1566 4138 1362 3434 
Q 1159 2731 1159 2009 
Q 1159 1288 1364 580 
Q 1569 -128 1984 -844 
L 1484 -844 
Q 1016 -109 783 600 
Q 550 1309 550 2009 
Q 550 2706 781 3412 
Q 1013 4119 1484 4856 
L 1984 4856 
z
" transform="scale(0.015625)"/>
       <path id="DejaVuSans-b0" d="M 1600 4347 
Q 1350 4347 1178 4173 
Q 1006 4000 1006 3750 
Q 1006 3503 1178 3333 
Q 1350 3163 1600 3163 
Q 1850 3163 2022 3333 
Q 2194 3503 2194 3750 
Q 2194 3997 2020 4172 
Q 1847 4347 1600 4347 
z
M 1600 4750 
Q 1800 4750 1984 4673 
Q 2169 4597 2303 4453 
Q 2447 4313 2519 4134 
Q 2591 3956 2591 3750 
Q 2591 3338 2302 3052 
Q 2013 2766 1594 2766 
Q 1172 2766 890 3047 
Q 609 3328 609 3750 
Q 609 4169 896 4459 
Q 1184 4750 1600 4750 
z
" transform="scale(0.015625)"/>
       <path id="DejaVuSans-29" d="M 513 4856 
L 1013 4856 
Q 1481 4119 1714 3412 
Q 1947 2706 1947 2009 
Q 1947 1309 1714 600 
Q 1481 -109 1013 -844 
L 513 -844 
Q 928 -128 1133 580 
Q 1338 1288 1338 2009 
Q 1338 2731 1133 3434 
Q 928 4138 513 4856 
z
" transform="scale(0.015625)"/>
      </defs>
      <use xlink:href="#DejaVuSans-4c"/>
      <use xlink:href="#DejaVuSans-6f" transform="translate(53.962891 0)"/>
      <use xlink:href="#DejaVuSans-6e" transform="translate(115.144531 0)"/>
      <use xlink:href="#DejaVuSans-67" transform="translate(178.523438 0)"/>
      <use xlink:href="#DejaVuSans-69" transform="translate(242 0)"/>
      <use xlink:href="#DejaVuSans-74" transform="translate(269.783203 0)"/>
      <use xlink:href="#DejaVuSans-75" transform="translate(308.992188 0)"/>
      <use xlink:href="#DejaVuSans-64" transform="translate(372.371094 0)"/>
      <use xlink:href="#DejaVuSans-65" transform="translate(435.847656 0)"/>
      <use xlink:href="#DejaVuSans-20" transform="translate(497.371094 0)"/>
      <use xlink:href="#DejaVuSans-28" transform="translate(529.158203 0)"/>
      <use xlink:href="#DejaVuSans-b0" transform="translate(568.171875 0)"/>
      <use xlink:href="#DejaVuSans-29" transform="translate(618.171875 0)"/>
     </g>
    </g>
   </g>
   <g id="matplotlib.axis_2">
    <g id="ytick_1">
     <g id="line2d_19">
      <path d="M 204.93646 759.141488 
L 533.06354 759.141488 
" clip-path="url(#pc59f27bcb4)" style="fill: none; stroke: #b0b0b0; stroke-width: 0.8; stroke-linecap: square"/>
     </g>
     <g id="line2d_20">
      <defs>
       <path id="m38958a569e" d="M 0 0 
L -3.5 0 
" style="stroke: #000000; stroke-width: 0.8"/>
      </defs>
      <g>
       <use xlink:href="#m38958a569e" x="204.93646" y="759.141488" style="stroke: #000000; stroke-width: 0.8"/>
      </g>
     </g>
     <g id="text_11">
      <!-- −7.45 -->
      <g transform="translate(167.291147 762.940707) scale(0.1 -0.1)">
       <defs>
        <path id="DejaVuSans-37" d="M 525 4666 
L 3525 4666 
L 3525 4397 
L 1831 0 
L 1172 0 
L 2766 4134 
L 525 4134 
L 525 4666 
z
" transform="scale(0.015625)"/>
        <path id="DejaVuSans-35" d="M 691 4666 
L 3169 4666 
L 3169 4134 
L 1269 4134 
L 1269 2991 
Q 1406 3038 1543 3061 
Q 1681 3084 1819 3084 
Q 2600 3084 3056 2656 
Q 3513 2228 3513 1497 
Q 3513 744 3044 326 
Q 2575 -91 1722 -91 
Q 1428 -91 1123 -41 
Q 819 9 494 109 
L 494 744 
Q 775 591 1075 516 
Q 1375 441 1709 441 
Q 2250 441 2565 725 
Q 2881 1009 2881 1497 
Q 2881 1984 2565 2268 
Q 2250 2553 1709 2553 
Q 1456 2553 1204 2497 
Q 953 2441 691 2322 
L 691 4666 
z
" transform="scale(0.015625)"/>
       </defs>
       <use xlink:href="#DejaVuSans-2212"/>
       <use xlink:href="#DejaVuSans-37" transform="translate(83.789062 0)"/>
       <use xlink:href="#DejaVuSans-2e" transform="translate(147.412109 0)"/>
       <use xlink:href="#DejaVuSans-34" transform="translate(179.199219 0)"/>
       <use xlink:href="#DejaVuSans-35" transform="translate(242.822266 0)"/>
      </g>
     </g>
    </g>
    <g id="ytick_2">
     <g id="line2d_21">
      <path d="M 204.93646 663.826941 
L 533.06354 663.826941 
" clip-path="url(#pc59f27bcb4)" style="fill: none; stroke: #b0b0b0; stroke-width: 0.8; stroke-linecap: square"/>
     </g>
     <g id="line2d_22">
      <g>
       <use xlink:href="#m38958a569e" x="204.93646" y="663.826941" style="stroke: #000000; stroke-width: 0.8"/>
      </g>
     </g>
     <g id="text_12">
      <!-- −7.40 -->
      <g transform="translate(167.291147 667.62616) scale(0.1 -0.1)">
       <use xlink:href="#DejaVuSans-2212"/>
       <use xlink:href="#DejaVuSans-37" transform="translate(83.789062 0)"/>
       <use xlink:href="#DejaVuSans-2e" transform="translate(147.412109 0)"/>
       <use xlink:href="#DejaVuSans-34" transform="translate(179.199219 0)"/>
       <use xlink:href="#DejaVuSans-30" transform="translate(242.822266 0)"/>
      </g>
     </g>
    </g>
    <g id="ytick_3">
     <g id="line2d_23">
      <path d="M 204.93646 568.512395 
L 533.06354 568.512395 
" clip-path="url(#pc59f27bcb4)" style="fill: none; stroke: #b0b0b0; stroke-width: 0.8; stroke-linecap: square"/>
     </g>
     <g id="line2d_24">
      <g>
       <use xlink:href="#m38958a569e" x="204.93646" y="568.512395" style="stroke: #000000; stroke-width: 0.8"/>
      </g>
     </g>
     <g id="text_13">
      <!-- −7.35 -->
      <g transform="translate(167.291147 572.311613) scale(0.1 -0.1)">
       <defs>
        <path id="DejaVuSans-33" d="M 2597 2516 
Q 3050 2419 3304 2112 
Q 3559 1806 3559 1356 
Q 3559 666 3084 287 
Q 2609 -91 1734 -91 
Q 1441 -91 1130 -33 
Q 819 25 488 141 
L 488 750 
Q 750 597 1062 519 
Q 1375 441 1716 441 
Q 2309 441 2620 675 
Q 2931 909 2931 1356 
Q 2931 1769 2642 2001 
Q 2353 2234 1838 2234 
L 1294 2234 
L 1294 2753 
L 1863 2753 
Q 2328 2753 2575 2939 
Q 2822 3125 2822 3475 
Q 2822 3834 2567 4026 
Q 2313 4219 1838 4219 
Q 1578 4219 1281 4162 
Q 984 4106 628 3988 
L 628 4550 
Q 988 4650 1302 4700 
Q 1616 4750 1894 4750 
Q 2613 4750 3031 4423 
Q 3450 4097 3450 3541 
Q 3450 3153 3228 2886 
Q 3006 2619 2597 2516 
z
" transform="scale(0.015625)"/>
       </defs>
       <use xlink:href="#DejaVuSans-2212"/>
       <use xlink:href="#DejaVuSans-37" transform="translate(83.789062 0)"/>
       <use xlink:href="#DejaVuSans-2e" transform="translate(147.412109 0)"/>
       <use xlink:href="#DejaVuSans-33" transform="translate(179.199219 0)"/>
       <use xlink:href="#DejaVuSans-35" transform="translate(242.822266 0)"/>
      </g>
     </g>
    </g>
    <g id="ytick_4">
     <g id="line2d_25">
      <path d="M 204.93646 473.197848 
L 533.06354 473.197848 
" clip-path="url(#pc59f27bcb4)" style="fill: none; stroke: #b0b0b0; stroke-width: 0.8; stroke-linecap: square"/>
     </g>
     <g id="line2d_26">
      <g>
       <use xlink:href="#m38958a569e" x="204.93646" y="473.197848" style="stroke: #000000; stroke-width: 0.8"/>
      </g>
     </g>
     <g id="text_14">
      <!-- −7.30 -->
      <g transform="translate(167.291147 476.997067) scale(0.1 -0.1)">
       <use xlink:href="#DejaVuSans-2212"/>
       <use xlink:href="#DejaVuSans-37" transform="translate(83.789062 0)"/>
       <use xlink:href="#DejaVuSans-2e" transform="translate(147.412109 0)"/>
       <use xlink:href="#DejaVuSans-33" transform="translate(179.199219 0)"/>
       <use xlink:href="#DejaVuSans-30" transform="translate(242.822266 0)"/>
      </g>
     </g>
    </g>
    <g id="ytick_5">
     <g id="line2d_27">
      <path d="M 204.93646 377.883301 
L 533.06354 377.883301 
" clip-path="url(#pc59f27bcb4)" style="fill: none; stroke: #b0b0b0; stroke-width: 0.8; stroke-linecap: square"/>
     </g>
     <g id="line2d_28">
      <g>
       <use xlink:href="#m38958a569e" x="204.93646" y="377.883301" style="stroke: #000000; stroke-width: 0.8"/>
      </g>
     </g>
     <g id="text_15">
      <!-- −7.25 -->
      <g transform="translate(167.291147 381.68252) scale(0.1 -0.1)">
       <use xlink:href="#DejaVuSans-2212"/>
       <use xlink:href="#DejaVuSans-37" transform="translate(83.789062 0)"/>
       <use xlink:href="#DejaVuSans-2e" transform="translate(147.412109 0)"/>
       <use xlink:href="#DejaVuSans-32" transform="translate(179.199219 0)"/>
       <use xlink:href="#DejaVuSans-35" transform="translate(242.822266 0)"/>
      </g>
     </g>
    </g>
    <g id="ytick_6">
     <g id="line2d_29">
      <path d="M 204.93646 282.568754 
L 533.06354 282.568754 
" clip-path="url(#pc59f27bcb4)" style="fill: none; stroke: #b0b0b0; stroke-width: 0.8; stroke-linecap: square"/>
     </g>
     <g id="line2d_30">
      <g>
       <use xlink:href="#m38958a569e" x="204.93646" y="282.568754" style="stroke: #000000; stroke-width: 0.8"/>
      </g>
     </g>
     <g id="text_16">
      <!-- −7.20 -->
      <g transform="translate(167.291147 286.367973) scale(0.1 -0.1)">
       <use xlink:href="#DejaVuSans-2212"/>
       <use xlink:href="#DejaVuSans-37" transform="translate(83.789062 0)"/>
       <use xlink:href="#DejaVuSans-2e" transform="translate(147.412109 0)"/>
       <use xlink:href="#DejaVuSans-32" transform="translate(179.199219 0)"/>
       <use xlink:href="#DejaVuSans-30" transform="translate(242.822266 0)"/>
      </g>
     </g>
    </g>
    <g id="ytick_7">
     <g id="line2d_31">
      <path d="M 204.93646 187.254208 
L 533.06354 187.254208 
" clip-path="url(#pc59f27bcb4)" style="fill: none; stroke: #b0b0b0; stroke-width: 0.8; stroke-linecap: square"/>
     </g>
     <g id="line2d_32">
      <g>
       <use xlink:href="#m38958a569e" x="204.93646" y="187.254208" style="stroke: #000000; stroke-width: 0.8"/>
      </g>
     </g>
     <g id="text_17">
      <!-- −7.15 -->
      <g transform="translate(167.291147 191.053427) scale(0.1 -0.1)">
       <use xlink:href="#DejaVuSans-2212"/>
       <use xlink:href="#DejaVuSans-37" transform="translate(83.789062 0)"/>
       <use xlink:href="#DejaVuSans-2e" transform="translate(147.412109 0)"/>
       <use xlink:href="#DejaVuSans-31" transform="translate(179.199219 0)"/>
       <use xlink:href="#DejaVuSans-35" transform="translate(242.822266 0)"/>
      </g>
     </g>
    </g>
    <g id="text_18">
     <!-- Latitude (°) -->
     <g transform="translate(161.21146 464.889531) rotate(-90) scale(0.1 -0.1)">
      <defs>
       <path id="DejaVuSans-61" d="M 2194 1759 
Q 1497 1759 1228 1600 
Q 959 1441 959 1056 
Q 959 750 1161 570 
Q 1363 391 1709 391 
Q 2188 391 2477 730 
Q 2766 1069 2766 1631 
L 2766 1759 
L 2194 1759 
z
M 3341 1997 
L 3341 0 
L 2766 0 
L 2766 531 
Q 2569 213 2275 61 
Q 1981 -91 1556 -91 
Q 1019 -91 701 211 
Q 384 513 384 1019 
Q 384 1609 779 1909 
Q 1175 2209 1959 2209 
L 2766 2209 
L 2766 2266 
Q 2766 2663 2505 2880 
Q 2244 3097 1772 3097 
Q 1472 3097 1187 3025 
Q 903 2953 641 2809 
L 641 3341 
Q 956 3463 1253 3523 
Q 1550 3584 1831 3584 
Q 2591 3584 2966 3190 
Q 3341 2797 3341 1997 
z
" transform="scale(0.015625)"/>
      </defs>
      <use xlink:href="#DejaVuSans-4c"/>
      <use xlink:href="#DejaVuSans-61" transform="translate(55.712891 0)"/>
      <use xlink:href="#DejaVuSans-74" transform="translate(116.992188 0)"/>
      <use xlink:href="#DejaVuSans-69" transform="translate(156.201172 0)"/>
      <use xlink:href="#DejaVuSans-74" transform="translate(183.984375 0)"/>
      <use xlink:href="#DejaVuSans-75" transform="translate(223.193359 0)"/>
      <use xlink:href="#DejaVuSans-64" transform="translate(286.572266 0)"/>
      <use xlink:href="#DejaVuSans-65" transform="translate(350.048828 0)"/>
      <use xlink:href="#DejaVuSans-20" transform="translate(411.572266 0)"/>
      <use xlink:href="#DejaVuSans-28" transform="translate(443.359375 0)"/>
      <use xlink:href="#DejaVuSans-b0" transform="translate(482.373047 0)"/>
      <use xlink:href="#DejaVuSans-29" transform="translate(532.373047 0)"/>
     </g>
    </g>
   </g>
   <g id="patch_3">
    <path d="M 204.93646 768.96 
L 204.93646 103.68 
" style="fill: none; stroke: #000000; stroke-width: 0.8; stroke-linejoin: miter; stroke-linecap: square"/>
   </g>
   <g id="patch_4">
    <path d="M 533.06354 768.96 
L 533.06354 103.68 
" style="fill: none; stroke: #000000; stroke-width: 0.8; stroke-linejoin: miter; stroke-linecap: square"/>
   </g>
   <g id="patch_5">
    <path d="M 204.93646 768.96 
L 533.06354 768.96 
" style="fill: none; stroke: #000000; stroke-width: 0.8; stroke-linejoin: miter; stroke-linecap: square"/>
   </g>
   <g id="patch_6">
    <path d="M 204.93646 103.68 
L 533.06354 103.68 
" style="fill: none; stroke: #000000; stroke-width: 0.8; stroke-linejoin: miter; stroke-linecap: square"/>
   </g>
   <g id="legend_1">
    <g id="patch_7">
     <path d="M 188.484375 926.217562 
L 549.515625 926.217562 
Q 551.515625 926.217562 551.515625 924.217562 
L 551.515625 909.016 
Q 551.515625 907.016 549.515625 907.016 
L 188.484375 907.016 
Q 186.484375 907.016 186.484375 909.016 
L 186.484375 924.217562 
Q 186.484375 926.217562 188.484375 926.217562 
z
" style="fill: #ffffff; opacity: 0.8; stroke: #cccccc; stroke-linejoin: miter"/>
    </g>
    <g id="line2d_33">
     <defs>
      <path id="m37299415be" d="M 0 5 
C 1.326016 5 2.597899 4.473168 3.535534 3.535534 
C 4.473168 2.597899 5 1.326016 5 0 
C 5 -1.326016 4.473168 -2.597899 3.535534 -3.535534 
C 2.597899 -4.473168 1.326016 -5 0 -5 
C -1.326016 -5 -2.597899 -4.473168 -3.535534 -3.535534 
C -4.473168 -2.597899 -5 -1.326016 -5 0 
C -5 1.326016 -4.473168 2.597899 -3.535534 3.535534 
C -2.597899 4.473168 -1.326016 5 0 5 
z
"/>
     </defs>
     <g>
      <use xlink:href="#m37299415be" x="200.484375" y="916.637875" style="fill: #b3e2cd; fill-opacity: 0.65"/>
     </g>
    </g>
    <g id="text_19">
     <!-- ÁREA DE PROTEÇÃO AMBIENTAL DAS NASCENTES DE ARAGUAINA -->
     <g transform="translate(218.484375 920.137875) scale(0.1 -0.1)">
      <defs>
       <path id="DejaVuSans-c1" d="M 2188 4044 
L 1331 1722 
L 3047 1722 
L 2188 4044 
z
M 1831 4666 
L 2547 4666 
L 4325 0 
L 3669 0 
L 3244 1197 
L 1141 1197 
L 716 0 
L 50 0 
L 1831 4666 
z
M 2359 5935 
L 2938 5935 
L 2225 5110 
L 1747 5110 
L 2359 5935 
z
" transform="scale(0.015625)"/>
       <path id="DejaVuSans-52" d="M 2841 2188 
Q 3044 2119 3236 1894 
Q 3428 1669 3622 1275 
L 4263 0 
L 3584 0 
L 2988 1197 
Q 2756 1666 2539 1819 
Q 2322 1972 1947 1972 
L 1259 1972 
L 1259 0 
L 628 0 
L 628 4666 
L 2053 4666 
Q 2853 4666 3247 4331 
Q 3641 3997 3641 3322 
Q 3641 2881 3436 2590 
Q 3231 2300 2841 2188 
z
M 1259 4147 
L 1259 2491 
L 2053 2491 
Q 2509 2491 2742 2702 
Q 2975 2913 2975 3322 
Q 2975 3731 2742 3939 
Q 2509 4147 2053 4147 
L 1259 4147 
z
" transform="scale(0.015625)"/>
       <path id="DejaVuSans-45" d="M 628 4666 
L 3578 4666 
L 3578 4134 
L 1259 4134 
L 1259 2753 
L 3481 2753 
L 3481 2222 
L 1259 2222 
L 1259 531 
L 3634 531 
L 3634 0 
L 628 0 
L 628 4666 
z
" transform="scale(0.015625)"/>
       <path id="DejaVuSans-41" d="M 2188 4044 
L 1331 1722 
L 3047 1722 
L 2188 4044 
z
M 1831 4666 
L 2547 4666 
L 4325 0 
L 3669 0 
L 3244 1197 
L 1141 1197 
L 716 0 
L 50 0 
L 1831 4666 
z
" transform="scale(0.015625)"/>
       <path id="DejaVuSans-44" d="M 1259 4147 
L 1259 519 
L 2022 519 
Q 2988 519 3436 956 
Q 3884 1394 3884 2338 
Q 3884 3275 3436 3711 
Q 2988 4147 2022 4147 
L 1259 4147 
z
M 628 4666 
L 1925 4666 
Q 3281 4666 3915 4102 
Q 4550 3538 4550 2338 
Q 4550 1131 3912 565 
Q 3275 0 1925 0 
L 628 0 
L 628 4666 
z
" transform="scale(0.015625)"/>
       <path id="DejaVuSans-50" d="M 1259 4147 
L 1259 2394 
L 2053 2394 
Q 2494 2394 2734 2622 
Q 2975 2850 2975 3272 
Q 2975 3691 2734 3919 
Q 2494 4147 2053 4147 
L 1259 4147 
z
M 628 4666 
L 2053 4666 
Q 2838 4666 3239 4311 
Q 3641 3956 3641 3272 
Q 3641 2581 3239 2228 
Q 2838 1875 2053 1875 
L 1259 1875 
L 1259 0 
L 628 0 
L 628 4666 
z
" transform="scale(0.015625)"/>
       <path id="DejaVuSans-4f" d="M 2522 4238 
Q 1834 4238 1429 3725 
Q 1025 3213 1025 2328 
Q 1025 1447 1429 934 
Q 1834 422 2522 422 
Q 3209 422 3611 934 
Q 4013 1447 4013 2328 
Q 4013 3213 3611 3725 
Q 3209 4238 2522 4238 
z
M 2522 4750 
Q 3503 4750 4090 4092 
Q 4678 3434 4678 2328 
Q 4678 1225 4090 567 
Q 3503 -91 2522 -91 
Q 1538 -91 948 565 
Q 359 1222 359 2328 
Q 359 3434 948 4092 
Q 1538 4750 2522 4750 
z
" transform="scale(0.015625)"/>
       <path id="DejaVuSans-54" d="M -19 4666 
L 3928 4666 
L 3928 4134 
L 2272 4134 
L 2272 0 
L 1638 0 
L 1638 4134 
L -19 4134 
L -19 4666 
z
" transform="scale(0.015625)"/>
       <path id="DejaVuSans-c7" d="M 4122 4306 
L 4122 3641 
Q 3803 3938 3442 4084 
Q 3081 4231 2675 4231 
Q 1875 4231 1450 3742 
Q 1025 3253 1025 2328 
Q 1025 1406 1450 917 
Q 1875 428 2675 428 
Q 3081 428 3442 575 
Q 3803 722 4122 1019 
L 4122 359 
Q 3791 134 3420 21 
Q 3050 -91 2638 -91 
Q 1578 -91 968 557 
Q 359 1206 359 2328 
Q 359 3453 968 4101 
Q 1578 4750 2638 4750 
Q 3056 4750 3426 4639 
Q 3797 4528 4122 4306 
z
M 2803 0 
Q 2975 -194 3059 -358 
Q 3144 -522 3144 -672 
Q 3144 -950 2956 -1092 
Q 2769 -1234 2400 -1234 
Q 2256 -1234 2120 -1215 
Q 1984 -1197 1850 -1159 
L 1850 -750 
Q 1956 -803 2072 -826 
Q 2188 -850 2334 -850 
Q 2519 -850 2612 -775 
Q 2706 -700 2706 -556 
Q 2706 -463 2639 -327 
Q 2572 -191 2431 0 
L 2803 0 
z
" transform="scale(0.015625)"/>
       <path id="DejaVuSans-c3" d="M 2188 4044 
L 1331 1722 
L 3047 1722 
L 2188 4044 
z
M 1831 4666 
L 2547 4666 
L 4325 0 
L 3669 0 
L 3244 1197 
L 1141 1197 
L 716 0 
L 50 0 
L 1831 4666 
z
M 2175 5344 
L 1997 5447 
Q 1919 5491 1870 5508 
Q 1822 5525 1784 5525 
Q 1672 5525 1609 5447 
Q 1547 5369 1547 5229 
L 1547 5210 
L 1156 5210 
Q 1156 5525 1317 5709 
Q 1478 5894 1747 5894 
Q 1859 5894 1954 5869 
Q 2050 5844 2200 5760 
L 2378 5666 
Q 2450 5625 2503 5606 
Q 2556 5588 2603 5588 
Q 2703 5588 2765 5667 
Q 2828 5747 2828 5875 
L 2828 5894 
L 3219 5894 
Q 3213 5582 3052 5396 
Q 2891 5210 2628 5210 
Q 2522 5210 2430 5235 
Q 2338 5260 2175 5344 
z
" transform="scale(0.015625)"/>
       <path id="DejaVuSans-4d" d="M 628 4666 
L 1569 4666 
L 2759 1491 
L 3956 4666 
L 4897 4666 
L 4897 0 
L 4281 0 
L 4281 4097 
L 3078 897 
L 2444 897 
L 1241 4097 
L 1241 0 
L 628 0 
L 628 4666 
z
" transform="scale(0.015625)"/>
       <path id="DejaVuSans-42" d="M 1259 2228 
L 1259 519 
L 2272 519 
Q 2781 519 3026 730 
Q 3272 941 3272 1375 
Q 3272 1813 3026 2020 
Q 2781 2228 2272 2228 
L 1259 2228 
z
M 1259 4147 
L 1259 2741 
L 2194 2741 
Q 2656 2741 2882 2914 
Q 3109 3088 3109 3444 
Q 3109 3797 2882 3972 
Q 2656 4147 2194 4147 
L 1259 4147 
z
M 628 4666 
L 2241 4666 
Q 2963 4666 3353 4366 
Q 3744 4066 3744 3513 
Q 3744 3084 3544 2831 
Q 3344 2578 2956 2516 
Q 3422 2416 3680 2098 
Q 3938 1781 3938 1306 
Q 3938 681 3513 340 
Q 3088 0 2303 0 
L 628 0 
L 628 4666 
z
" transform="scale(0.015625)"/>
       <path id="DejaVuSans-49" d="M 628 4666 
L 1259 4666 
L 1259 0 
L 628 0 
L 628 4666 
z
" transform="scale(0.015625)"/>
       <path id="DejaVuSans-4e" d="M 628 4666 
L 1478 4666 
L 3547 763 
L 3547 4666 
L 4159 4666 
L 4159 0 
L 3309 0 
L 1241 3903 
L 1241 0 
L 628 0 
L 628 4666 
z
" transform="scale(0.015625)"/>
       <path id="DejaVuSans-53" d="M 3425 4513 
L 3425 3897 
Q 3066 4069 2747 4153 
Q 2428 4238 2131 4238 
Q 1616 4238 1336 4038 
Q 1056 3838 1056 3469 
Q 1056 3159 1242 3001 
Q 1428 2844 1947 2747 
L 2328 2669 
Q 3034 2534 3370 2195 
Q 3706 1856 3706 1288 
Q 3706 609 3251 259 
Q 2797 -91 1919 -91 
Q 1588 -91 1214 -16 
Q 841 59 441 206 
L 441 856 
Q 825 641 1194 531 
Q 1563 422 1919 422 
Q 2459 422 2753 634 
Q 3047 847 3047 1241 
Q 3047 1584 2836 1778 
Q 2625 1972 2144 2069 
L 1759 2144 
Q 1053 2284 737 2584 
Q 422 2884 422 3419 
Q 422 4038 858 4394 
Q 1294 4750 2059 4750 
Q 2388 4750 2728 4690 
Q 3069 4631 3425 4513 
z
" transform="scale(0.015625)"/>
       <path id="DejaVuSans-43" d="M 4122 4306 
L 4122 3641 
Q 3803 3938 3442 4084 
Q 3081 4231 2675 4231 
Q 1875 4231 1450 3742 
Q 1025 3253 1025 2328 
Q 1025 1406 1450 917 
Q 1875 428 2675 428 
Q 3081 428 3442 575 
Q 3803 722 4122 1019 
L 4122 359 
Q 3791 134 3420 21 
Q 3050 -91 2638 -91 
Q 1578 -91 968 557 
Q 359 1206 359 2328 
Q 359 3453 968 4101 
Q 1578 4750 2638 4750 
Q 3056 4750 3426 4639 
Q 3797 4528 4122 4306 
z
" transform="scale(0.015625)"/>
       <path id="DejaVuSans-47" d="M 3809 666 
L 3809 1919 
L 2778 1919 
L 2778 2438 
L 4434 2438 
L 4434 434 
Q 4069 175 3628 42 
Q 3188 -91 2688 -91 
Q 1594 -91 976 548 
Q 359 1188 359 2328 
Q 359 3472 976 4111 
Q 1594 4750 2688 4750 
Q 3144 4750 3555 4637 
Q 3966 4525 4313 4306 
L 4313 3634 
Q 3963 3931 3569 4081 
Q 3175 4231 2741 4231 
Q 1884 4231 1454 3753 
Q 1025 3275 1025 2328 
Q 1025 1384 1454 906 
Q 1884 428 2741 428 
Q 3075 428 3337 486 
Q 3600 544 3809 666 
z
" transform="scale(0.015625)"/>
       <path id="DejaVuSans-55" d="M 556 4666 
L 1191 4666 
L 1191 1831 
Q 1191 1081 1462 751 
Q 1734 422 2344 422 
Q 2950 422 3222 751 
Q 3494 1081 3494 1831 
L 3494 4666 
L 4128 4666 
L 4128 1753 
Q 4128 841 3676 375 
Q 3225 -91 2344 -91 
Q 1459 -91 1007 375 
Q 556 841 556 1753 
L 556 4666 
z
" transform="scale(0.015625)"/>
      </defs>
      <use xlink:href="#DejaVuSans-c1"/>
      <use xlink:href="#DejaVuSans-52" transform="translate(68.408203 0)"/>
      <use xlink:href="#DejaVuSans-45" transform="translate(137.890625 0)"/>
      <use xlink:href="#DejaVuSans-41" transform="translate(201.074219 0)"/>
      <use xlink:href="#DejaVuSans-20" transform="translate(269.482422 0)"/>
      <use xlink:href="#DejaVuSans-44" transform="translate(301.269531 0)"/>
      <use xlink:href="#DejaVuSans-45" transform="translate(378.271484 0)"/>
      <use xlink:href="#DejaVuSans-20" transform="translate(441.455078 0)"/>
      <use xlink:href="#DejaVuSans-50" transform="translate(473.242188 0)"/>
      <use xlink:href="#DejaVuSans-52" transform="translate(533.544922 0)"/>
      <use xlink:href="#DejaVuSans-4f" transform="translate(603.027344 0)"/>
      <use xlink:href="#DejaVuSans-54" transform="translate(681.738281 0)"/>
      <use xlink:href="#DejaVuSans-45" transform="translate(742.822266 0)"/>
      <use xlink:href="#DejaVuSans-c7" transform="translate(806.005859 0)"/>
      <use xlink:href="#DejaVuSans-c3" transform="translate(875.830078 0)"/>
      <use xlink:href="#DejaVuSans-4f" transform="translate(942.488281 0)"/>
      <use xlink:href="#DejaVuSans-20" transform="translate(1021.199219 0)"/>
      <use xlink:href="#DejaVuSans-41" transform="translate(1052.986328 0)"/>
      <use xlink:href="#DejaVuSans-4d" transform="translate(1121.394531 0)"/>
      <use xlink:href="#DejaVuSans-42" transform="translate(1207.673828 0)"/>
      <use xlink:href="#DejaVuSans-49" transform="translate(1276.277344 0)"/>
      <use xlink:href="#DejaVuSans-45" transform="translate(1305.769531 0)"/>
      <use xlink:href="#DejaVuSans-4e" transform="translate(1368.953125 0)"/>
      <use xlink:href="#DejaVuSans-54" transform="translate(1443.757812 0)"/>
      <use xlink:href="#DejaVuSans-41" transform="translate(1497.091797 0)"/>
      <use xlink:href="#DejaVuSans-4c" transform="translate(1565.5 0)"/>
      <use xlink:href="#DejaVuSans-20" transform="translate(1621.212891 0)"/>
      <use xlink:href="#DejaVuSans-44" transform="translate(1653 0)"/>
      <use xlink:href="#DejaVuSans-41" transform="translate(1728.251953 0)"/>
      <use xlink:href="#DejaVuSans-53" transform="translate(1796.660156 0)"/>
      <use xlink:href="#DejaVuSans-20" transform="translate(1860.136719 0)"/>
      <use xlink:href="#DejaVuSans-4e" transform="translate(1891.923828 0)"/>
      <use xlink:href="#DejaVuSans-41" transform="translate(1966.728516 0)"/>
      <use xlink:href="#DejaVuSans-53" transform="translate(2035.136719 0)"/>
      <use xlink:href="#DejaVuSans-43" transform="translate(2098.613281 0)"/>
      <use xlink:href="#DejaVuSans-45" transform="translate(2168.4375 0)"/>
      <use xlink:href="#DejaVuSans-4e" transform="translate(2231.621094 0)"/>
      <use xlink:href="#DejaVuSans-54" transform="translate(2306.425781 0)"/>
      <use xlink:href="#DejaVuSans-45" transform="translate(2367.509766 0)"/>
      <use xlink:href="#DejaVuSans-53" transform="translate(2430.693359 0)"/>
      <use xlink:href="#DejaVuSans-20" transform="translate(2494.169922 0)"/>
      <use xlink:href="#DejaVuSans-44" transform="translate(2525.957031 0)"/>
      <use xlink:href="#DejaVuSans-45" transform="translate(2602.958984 0)"/>
      <use xlink:href="#DejaVuSans-20" transform="translate(2666.142578 0)"/>
      <use xlink:href="#DejaVuSans-41" transform="translate(2697.929688 0)"/>
      <use xlink:href="#DejaVuSans-52" transform="translate(2766.337891 0)"/>
      <use xlink:href="#DejaVuSans-41" transform="translate(2831.820312 0)"/>
      <use xlink:href="#DejaVuSans-47" transform="translate(2898.478516 0)"/>
      <use xlink:href="#DejaVuSans-55" transform="translate(2975.96875 0)"/>
      <use xlink:href="#DejaVuSans-41" transform="translate(3049.162109 0)"/>
      <use xlink:href="#DejaVuSans-49" transform="translate(3117.570312 0)"/>
      <use xlink:href="#DejaVuSans-4e" transform="translate(3147.0625 0)"/>
      <use xlink:href="#DejaVuSans-41" transform="translate(3221.867188 0)"/>
     </g>
    </g>
   </g>
  </g>
 </g>
 <defs>
  <clipPath id="pc59f27bcb4">
   <rect x="204.93646" y="103.68" width="328.127081" height="665.28"/>
  </clipPath>
 </defs>
</svg>
