<?xml version="1.0" encoding="utf-8" standalone="no"?>
<!DOCTYPE svg PUBLIC "-//W3C//DTD SVG 1.1//EN"
  "http://www.w3.org/Graphics/SVG/1.1/DTD/svg11.dtd">
<svg xmlns:xlink="http://www.w3.org/1999/xlink" width="720pt" height="864pt" viewBox="0 0 720 864" xmlns="http://www.w3.org/2000/svg" version="1.1">
 <metadata>
  <rdf:RDF xmlns:dc="http://purl.org/dc/elements/1.1/" xmlns:cc="http://creativecommons.org/ns#" xmlns:rdf="http://www.w3.org/1999/02/22-rdf-syntax-ns#">
   <cc:Work>
    <dc:type rdf:resource="http://purl.org/dc/dcmitype/StillImage"/>
    <dc:date>2025-06-16T17:31:24.602967</dc:date>
    <dc:format>image/svg+xml</dc:format>
    <dc:creator>
     <cc:Agent>
      <dc:title>Matplotlib v3.10.1, https://matplotlib.org/</dc:title>
     </cc:Agent>
    </dc:creator>
   </cc:Work>
  </rdf:RDF>
 </metadata>
 <defs>
  <style type="text/css">*{stroke-linejoin: round; stroke-linecap: butt}</style>
 </defs>
 <g id="figure_1">
  <g id="patch_1">
   <path d="M 0 864 
L 720 864 
L 720 0 
L 0 0 
z
" style="fill: #ffffff"/>
  </g>
  <g id="axes_1">
   <g id="patch_2">
    <path d="M 220.314922 768.96 
L 517.685078 768.96 
L 517.685078 103.68 
L 220.314922 103.68 
z
" style="fill: #ffffff"/>
   </g>
   <g id="PatchCollection_1">
    <path d="M 354.798078 185.690581 
L 348.45124 213.773156 
L 376.711371 240.267931 
L 360.513491 276.502872 
L 402.593271 313.870775 
L 390.294745 340.804676 
L 432.16921 357.400504 
L 425.416631 373.606824 
L 418.164615 391.283514 
L 388.796435 483.509941 
L 397.841698 493.595785 
L 407.757919 504.650022 
L 464.803689 568.204236 
L 449.17124 611.690962 
L 470.817298 640.973485 
L 469.141374 708.930539 
L 463.164429 738.72 
L 429.36161 685.678351 
L 404.557614 660.74078 
L 380.635167 645.416019 
L 348.24674 659.343184 
L 334.663367 654.592186 
L 304.074704 569.701069 
L 303.155675 565.509109 
L 312.161015 562.707302 
L 310.266741 542.097315 
L 307.156872 540.997432 
L 305.688707 542.703491 
L 304.941589 540.888271 
L 301.202739 542.465321 
L 297.612987 543.854647 
L 294.280694 531.166298 
L 284.49809 440.524365 
L 287.110152 401.299892 
L 265.253076 373.407522 
L 255.552761 361.170704 
L 241.570979 337.659672 
L 245.854891 310.291607 
L 258.105347 283.900205 
L 262.988909 256.147594 
L 262.367261 247.657821 
L 262.667901 231.728539 
L 254.60929 215.228641 
L 250.591799 210.751373 
L 238.551546 192.638037 
L 233.831747 172.62761 
L 238.826929 166.447591 
L 272.191416 151.996122 
L 309.844705 150.729189 
L 345.857918 135.193549 
L 348.810542 133.92 
L 369.55631 159.355414 
L 379.354394 171.365639 
L 354.798078 185.690581 
M 318.362829 378.581934 
L 318.051598 378.277605 
L 317.722442 378.018761 
L 317.332181 377.671429 
L 316.950067 377.308385 
L 316.620911 376.870086 
L 316.250204 376.357358 
L 315.912901 375.919886 
L 315.582116 375.638713 
L 301.506638 381.28533 
L 301.51723 381.487113 
L 301.589742 381.949395 
L 301.779576 382.291765 
L 302.048441 382.685407 
L 302.348266 383.10882 
L 302.701864 383.48675 
L 303.047314 383.879566 
L 303.289293 384.311249 
L 303.305588 384.953812 
L 303.176858 385.410305 
L 302.711641 385.818006 
L 302.14784 386.136393 
L 301.522933 386.418393 
L 301.063418 386.399373 
L 300.279637 386.539959 
L 299.831529 386.723549 
L 299.335351 386.892252 
L 298.9125 387.209813 
L 298.517351 387.495948 
L 298.213452 387.865607 
L 297.909553 388.435396 
L 297.727866 388.772804 
L 297.606469 389.372364 
L 297.551067 389.753602 
L 297.507071 390.186939 
L 297.688758 390.738535 
L 297.943772 391.39433 
L 298.250115 391.951714 
L 298.450542 392.324682 
L 298.658301 392.561198 
L 298.826952 392.761327 
L 299.161811 393.312096 
L 299.635176 393.599058 
L 299.935001 393.851286 
L 300.238085 394.169673 
L 300.484137 394.488888 
L 300.479249 395.100853 
L 300.201422 395.806266 
L 299.966776 396.413269 
L 299.903226 396.831721 
L 299.820123 397.415569 
L 299.659618 397.984531 
L 299.705244 398.48568 
L 299.793236 398.887592 
L 299.966776 399.446631 
L 300.238085 399.878314 
L 300.623458 400.307517 
L 301.01046 400.596132 
L 301.096823 400.72266 
L 301.218219 400.908731 
L 301.26303 401.565353 
L 301.205998 401.94659 
L 301.028384 402.359253 
L 300.678046 402.95964 
L 300.287784 403.493869 
L 300.102023 403.951189 
L 299.899967 404.63262 
L 299.862489 405.178427 
L 299.971664 405.61838 
L 300.07921 406.036005 
L 300.250306 406.542943 
L 300.61694 406.987858 
L 301.007201 407.321131 
L 301.433311 407.444351 
L 301.803204 407.582457 
L 302.126656 407.692445 
L 302.463959 407.809049 
L 302.907994 407.895882 
L 303.444908 407.94302 
L 304.056779 407.967829 
L 304.892704 407.908287 
L 305.498872 407.828897 
L 306.282654 407.657712 
L 306.49856 407.678386 
L 306.790238 407.705677 
L 306.971111 408.048046 
L 306.905116 408.421841 
L 306.75276 408.953589 
L 306.610995 409.335654 
L 306.461897 409.949272 
L 306.365757 410.646416 
L 306.427678 411.101255 
L 306.605291 411.734722 
L 306.882304 412.270604 
L 307.118579 412.596434 
L 307.488472 412.907379 
L 307.811109 413.420933 
L 307.903175 413.883215 
L 307.906434 414.301666 
L 307.636754 414.789584 
L 307.332041 415.16586 
L 307.050955 415.43711 
L 306.743798 415.760459 
L 306.352722 416.115233 
L 305.938018 416.394752 
L 305.429619 416.876881 
L 305.205565 417.335028 
L 305.045061 417.889104 
L 304.846264 418.467163 
L 304.577399 418.96914 
L 304.136624 419.653052 
L 304.025004 420.056618 
L 304.042929 420.56521 
L 304.073074 420.961334 
L 304.062483 421.469099 
L 304.016857 421.865222 
L 303.926421 422.329158 
L 303.70807 422.876619 
L 303.444094 423.476179 
L 303.267295 423.926883 
L 303.067683 424.466073 
L 302.892514 424.938279 
L 302.625278 425.657751 
L 302.428111 426.249042 
L 302.136433 426.864315 
L 301.949857 427.299306 
L 301.931933 427.868268 
L 302.081846 428.344608 
L 302.314047 428.760579 
L 302.270866 429.209629 
L 302.019925 429.689277 
L 301.751875 430.035782 
L 301.369761 430.360785 
L 300.980315 430.767659 
L 300.714709 431.15055 
L 300.428735 431.877465 
L 300.445029 431.997377 
L 300.50532 432.415002 
L 300.762779 432.943442 
L 300.96239 433.464439 
L 300.977056 434.092117 
L 300.972982 434.742123 
L 301.003942 435.145689 
L 301.254068 436.076868 
L 301.480566 436.389466 
L 301.78365 436.872422 
L 302.155987 437.406651 
L 302.411816 437.725865 
L 303.161378 438.183185 
L 303.624152 438.275807 
L 304.193656 438.405643 
L 304.680057 438.574347 
L 305.050764 438.734781 
L 305.8541 439.109402 
L 306.190588 439.345919 
L 306.537668 439.582435 
L 306.996368 439.77264 
L 307.637569 440.170417 
L 307.895842 440.534288 
L 308.330914 441.180986 
L 308.514231 441.926095 
L 308.550895 442.44213 
L 308.56556 442.896969 
L 308.560672 443.346019 
L 308.45394 443.839726 
L 308.367578 444.355761 
L 308.37491 444.871797 
L 308.399353 445.327463 
L 308.420536 445.715316 
L 308.585929 446.311568 
L 308.801835 446.952478 
L 309.252387 447.538806 
L 309.581543 447.797651 
L 309.900922 448.22768 
L 310.146159 448.540279 
L 310.599155 448.984367 
L 310.995935 449.45161 
L 311.146662 449.943663 
L 310.941347 450.558109 
L 310.499757 451.046854 
L 309.970175 451.320584 
L 309.407188 451.497558 
L 308.89553 451.576948 
L 308.386317 451.685282 
L 307.810294 451.794443 
L 307.195979 452.091329 
L 306.81468 452.625558 
L 306.663953 453.007623 
L 306.413827 453.510426 
L 306.167775 453.915646 
L 305.841064 454.411834 
L 305.728629 454.808784 
L 305.551016 455.22889 
L 305.346516 455.693653 
L 305.246302 456.313887 
L 305.269115 456.740609 
L 305.381549 457.419559 
L 305.662635 457.857031 
L 305.963275 458.3036 
L 306.399977 458.793172 
L 306.637066 459.11156 
L 307.138133 459.758258 
L 307.358928 460.129572 
L 307.44529 460.495097 
L 307.687268 461.277419 
L 307.866512 461.604903 
L 308.040052 461.977044 
L 308.341506 462.623742 
L 308.682068 463.100082 
L 308.522379 463.676487 
L 308.536229 464.288452 
L 308.746433 464.526622 
L 308.921602 464.718482 
L 309.060108 465.165878 
L 309.144841 465.874599 
L 309.181505 466.368306 
L 309.284977 466.882687 
L 309.455258 467.382183 
L 309.550583 467.918893 
L 309.795005 468.38779 
L 310.024762 468.938559 
L 310.34903 469.286717 
L 310.736032 469.560448 
L 311.402491 469.890413 
L 311.824527 470.111216 
L 312.314187 470.338635 
L 312.920354 470.617328 
L 313.213662 470.913386 
L 313.401867 471.234254 
L 313.643845 471.82968 
L 313.806793 472.194378 
L 314.051216 472.669891 
L 314.364077 473.339745 
L 314.557171 473.741657 
L 314.786928 474.098912 
L 315.125046 474.371815 
L 315.31488 474.700126 
L 315.820835 475.240144 
L 316.553288 475.548607 
L 317.007914 475.656942 
L 317.60186 475.70408 
L 318.150996 475.632132 
L 318.862266 475.535376 
L 319.696561 475.259991 
L 320.242438 475.300513 
L 320.61396 475.28232 
L 320.994445 475.256684 
L 321.638091 475.333593 
L 322.139972 475.613112 
L 322.592968 476.058027 
L 322.927012 476.412801 
L 323.135586 476.740285 
L 323.192618 477.457276 
L 323.233355 478.203212 
L 323.287128 478.868931 
L 323.329495 479.293998 
L 323.424819 480.010163 
L 323.448447 480.458386 
L 323.497331 481.010808 
L 323.530736 481.443318 
L 323.477778 482.056937 
L 323.430523 482.595301 
L 323.341716 483.089835 
L 323.213801 483.552944 
L 323.180397 483.987108 
L 323.1861 484.644557 
L 323.13966 485.018352 
L 323.032929 485.512885 
L 323.032114 486.387003 
L 323.420746 487.070915 
L 323.676575 487.374417 
L 324.136904 487.423208 
L 324.751219 487.486059 
L 325.52115 487.605971 
L 326.033622 487.728364 
L 326.484174 487.95661 
L 326.866288 488.311385 
L 327.103378 488.81088 
L 327.346171 489.436077 
L 327.409721 490.085256 
L 327.450458 490.487995 
L 327.491195 490.891561 
L 327.867606 491.321591 
L 328.27905 491.692077 
L 328.661164 492.061737 
L 328.836334 492.479362 
L 329.000097 492.865562 
L 329.548418 493.474219 
L 329.914237 493.889362 
L 330.121181 494.35826 
L 330.275982 494.752729 
L 330.546477 495.355597 
L 330.7412 495.787281 
L 330.911481 496.294219 
L 330.946515 496.943398 
L 330.850375 497.475146 
L 330.846302 497.931639 
L 330.847931 498.31205 
L 330.716758 498.902513 
L 330.512257 499.345774 
L 330.188805 499.729493 
L 329.948456 500.052842 
L 329.611153 500.347247 
L 329.207041 500.641651 
L 328.851814 501.146109 
L 328.547915 501.873024 
L 328.444443 502.255089 
L 328.424074 502.949752 
L 328.446073 503.36076 
L 328.66035 503.791617 
L 329.023724 504.356444 
L 329.391173 504.7873 
L 330.007118 505.065166 
L 330.418562 505.271083 
L 330.981549 505.625031 
L 331.588531 506.068292 
L 332.073303 506.206397 
L 332.570295 506.404046 
L 333.064843 506.548767 
L 333.446142 506.724914 
L 333.879585 506.796034 
L 334.584337 506.939101 
L 335.012076 507.09292 
L 335.356712 507.283952 
L 335.790969 507.548585 
L 336.111163 507.8157 
L 336.3564 508.127471 
L 336.505498 508.76838 
L 336.477796 509.508527 
L 336.334402 510.032832 
L 336.340105 510.488498 
L 336.437059 511.040094 
L 336.283888 511.59417 
L 336.180416 511.969619 
L 336.159232 512.455056 
L 336.490017 512.742845 
L 336.93894 512.410399 
L 341.961823 512.794118 
L 357.674117 509.721888 
L 357.744999 509.780604 
L 357.978015 509.96502 
L 358.225697 510.494287 
L 358.26399 511.016938 
L 358.285173 511.413061 
L 358.240362 511.830686 
L 358.164591 512.369877 
L 357.959276 512.805695 
L 357.848471 513.239033 
L 357.799587 513.755068 
L 357.793884 514.17352 
L 357.955203 514.702787 
L 358.204513 515.0741 
L 358.417161 515.483455 
L 358.461972 516.125192 
L 358.486414 516.587473 
L 358.551593 517.087796 
L 358.762612 517.46738 
L 358.377239 518.464717 
L 357.068764 527.471353 
L 356.447116 531.757588 
L 354.630242 536.479642 
L 355.84828 539.077185 
L 356.412896 538.751355 
L 356.774642 538.553707 
L 357.366144 538.189836 
L 357.82077 537.954974 
L 358.281099 537.636587 
L 358.757723 537.438938 
L 359.376112 537.223924 
L 359.759041 537.078375 
L 360.277216 536.946886 
L 360.801095 536.740968 
L 361.363267 536.556551 
L 361.842335 536.402733 
L 362.245632 536.279513 
L 362.850171 535.976011 
L 363.45145 535.798211 
L 364.02014 535.718821 
L 364.436473 535.655143 
L 365.134706 535.507941 
L 365.630884 535.324351 
L 366.043958 535.200305 
L 366.549098 534.994387 
L 367.197632 534.809143 
L 367.575673 534.739677 
L 368.036002 534.608187 
L 368.430337 534.484967 
L 368.959919 534.383249 
L 369.333885 534.24597 
L 370.179587 533.998703 
L 370.598364 533.786169 
L 371.202088 533.661295 
L 371.832698 533.490938 
L 372.165113 533.287501 
L 372.714249 533.027829 
L 373.159912 532.956709 
L 373.823112 532.877319 
L 374.263887 532.909571 
L 374.655778 532.921149 
L 375.032189 532.985653 
L 375.406155 533.027002 
L 375.811897 533.120451 
L 376.55657 533.114662 
L 377.130149 533.146914 
L 377.504115 533.157665 
L 378.156723 533.242017 
L 378.666752 533.304867 
L 379.339728 533.217207 
L 379.883976 533.047676 
L 380.479552 532.758234 
L 381.010763 532.529987 
L 381.713071 532.269489 
L 382.312721 532.061917 
L 382.749422 531.834497 
L 383.394698 531.582269 
L 383.944648 531.346579 
L 384.453862 531.057136 
L 384.867751 530.934743 
L 385.544801 530.577488 
L 386.000242 530.335183 
L 386.322065 530.122649 
L 386.739212 529.894403 
L 387.18895 529.554514 
L 387.372267 529.231165 
L 387.435817 528.820156 
L 396.973998 495.729392 
L 381.741587 496.266929 
L 381.176971 496.046952 
L 380.75249 495.789762 
L 380.459183 495.48626 
L 380.21802 494.904893 
L 379.943452 494.586506 
L 379.729989 494.169708 
L 379.248477 493.733063 
L 378.906286 493.586688 
L 378.332707 493.382424 
L 377.794978 493.148389 
L 377.269469 492.958183 
L 376.646192 492.739861 
L 376.128831 492.519884 
L 375.572362 492.278406 
L 375.060705 492.162629 
L 374.535196 491.980693 
L 374.105827 491.804547 
L 373.726158 491.673884 
L 373.224277 491.566376 
L 372.638478 491.49691 
L 372.172445 491.358805 
L 371.718634 491.071843 
L 371.317781 490.716241 
L 370.972331 490.338312 
L 370.682283 490.08691 
L 370.390605 489.81318 
L 369.952274 489.652746 
L 369.345292 489.71725 
L 368.976214 489.766042 
L 368.360269 489.67342 
L 367.934974 489.579971 
L 367.61641 489.336012 
L 366.955654 488.939062 
L 366.46518 488.689314 
L 366.065956 488.535496 
L 365.673251 488.345291 
L 365.305802 488.251015 
L 364.688228 488.301461 
L 364.153757 488.126141 
L 363.818899 487.755654 
L 363.570402 487.38434 
L 363.177697 487.185865 
L 362.7247 486.927848 
L 362.208969 486.738469 
L 361.757602 486.496164 
L 361.32253 486.410158 
L 360.758729 486.399408 
L 360.367653 486.209202 
L 360.10938 485.845331 
L 359.526025 485.64851 
L 359.122727 485.607161 
L 358.710468 485.386357 
L 358.393534 485.18044 
L 357.989422 484.929865 
L 357.456581 484.785143 
L 357.105427 484.653653 
L 356.824341 484.386539 
L 356.776271 484.304668 
L 356.603546 484.007782 
L 356.588881 483.559559 
L 356.543255 483.059237 
L 356.366456 482.611841 
L 356.076408 482.20414 
L 355.653557 481.78238 
L 355.29833 481.56075 
L 354.93577 481.205148 
L 354.771192 480.810679 
L 354.52351 480.461694 
L 354.115325 480.143306 
L 353.771504 479.96716 
L 353.181631 479.823265 
L 352.794629 479.72899 
L 352.386443 479.590884 
L 351.850343 479.385793 
L 351.571701 479.291517 
L 351.481265 479.262573 
L 351.039675 479.041769 
L 350.698298 478.723382 
L 350.589123 478.283429 
L 350.350403 477.740103 
L 350.003323 477.317517 
L 349.460705 477.180238 
L 348.939271 477.057018 
L 348.48383 476.927182 
L 348.275256 476.794866 
L 348.098457 476.684877 
L 347.77582 476.365663 
L 347.382299 475.972848 
L 347.12647 475.646191 
L 346.751689 475.245933 
L 346.537412 474.807634 
L 346.350836 474.352795 
L 346.174852 473.921111 
L 346.00946 473.496871 
L 345.970352 472.959334 
L 345.950798 472.585539 
L 345.983388 471.935533 
L 346.152039 471.546026 
L 346.326394 471.050665 
L 346.393203 470.512301 
L 346.405424 470.034307 
L 346.405424 470.011979 
L 346.400536 469.586084 
L 346.30684 469.070876 
L 346.191962 468.549051 
L 346.005386 467.915585 
L 345.927171 467.520289 
L 345.794368 466.82728 
L 345.738965 466.154945 
L 345.570314 465.670335 
L 345.301449 465.112124 
L 345.087987 464.680441 
L 344.969849 464.2562 
L 344.896522 463.778206 
L 344.817492 463.196839 
L 344.641508 462.764329 
L 344.562478 462.346704 
L 344.28954 461.900962 
L 344.080151 461.544534 
L 343.842247 461.210434 
L 343.588047 460.913548 
L 360.2487 461.06902 
L 357.034544 456.113758 
L 357.155941 453.220983 
L 355.084867 454.105852 
L 354.764674 454.54167 
L 354.441222 454.208397 
L 355.260037 442.067509 
L 353.895345 440.458206 
L 343.707814 434.478316 
L 343.500055 433.464439 
L 342.800192 433.552099 
L 342.615246 433.128685 
L 342.524809 432.695348 
L 342.491405 432.247952 
L 342.392006 431.650046 
L 342.381415 431.09845 
L 342.341492 430.7015 
L 342.096255 430.225987 
L 341.910494 429.771975 
L 341.534898 429.542902 
L 341.0542 429.465166 
L 340.556393 429.275787 
L 340.212572 429.083928 
L 339.787277 428.803582 
L 339.318801 428.427306 
L 338.921207 428.123805 
L 338.414437 427.934426 
L 338.038027 427.847593 
L 337.570365 427.671447 
L 337.061966 427.616866 
L 336.771918 427.603634 
L 337.148329 427.085945 
L 337.374012 426.687341 
L 337.616805 426.214308 
L 337.796863 425.660232 
L 338.167571 425.455141 
L 338.56272 425.534531 
L 339.012458 425.37327 
L 339.515968 425.159909 
L 339.899711 424.835733 
L 340.364114 424.241135 
L 340.867625 423.676308 
L 341.163376 423.308302 
L 341.424908 422.685586 
L 341.705179 421.846202 
L 341.817613 421.284683 
L 341.98708 420.708278 
L 342.096255 420.251785 
L 342.19158 419.87799 
L 342.414004 419.576143 
L 342.694276 419.290008 
L 343.082093 418.861632 
L 343.416137 418.530013 
L 343.697223 418.243052 
L 344.09889 417.896547 
L 344.641508 417.525233 
L 345.149907 417.035661 
L 345.47336 416.487374 
L 345.700672 416.097039 
L 345.954057 415.63145 
L 337.00086 410.60424 
L 327.448829 410.304047 
L 327.477345 409.870709 
L 327.376317 409.236416 
L 327.332321 408.758422 
L 327.148189 408.177882 
L 326.92332 407.716427 
L 326.682971 407.14333 
L 326.484174 406.652105 
L 326.320411 406.264251 
L 326.075174 405.780468 
L 326.021401 405.130462 
L 326.056435 404.705394 
L 326.200644 404.202591 
L 326.441808 403.70723 
L 326.6569 403.093611 
L 326.779111 402.508936 
L 326.946133 402.082215 
L 327.04879 401.686092 
L 327.180779 401.288314 
L 327.320099 400.689581 
L 327.426831 400.01642 
L 327.623183 399.588871 
L 327.807315 399.094337 
L 327.843978 398.526202 
L 328.113658 397.872888 
L 328.162542 397.170783 
L 328.053367 396.558818 
L 327.882271 396.217275 
L 327.521341 395.719433 
L 327.235366 395.363005 
L 326.911099 394.999961 
L 326.669936 394.590606 
L 326.488248 394.225908 
L 326.792147 393.857902 
L 327.232107 393.853767 
L 327.698954 393.865345 
L 328.156839 393.846324 
L 328.592726 393.804975 
L 328.885218 393.563497 
L 329.013133 392.920107 
L 328.974025 392.367685 
L 328.787449 391.905403 
L 328.560951 391.601075 
L 328.43874 391.101579 
L 328.353192 390.572312 
L 328.397188 390.14559 
L 328.555248 389.703156 
L 328.962619 389.116828 
L 329.296663 388.583426 
L 329.523976 388.208804 
L 329.619301 387.834182 
L 329.63641 387.266047 
L 329.569601 386.556499 
L 329.453093 385.968516 
L 329.244519 385.648475 
L 328.987876 385.126651 
L 328.795597 384.740451 
L 328.536509 384.353425 
L 328.317343 384.005266 
L 328.20165 383.624856 
L 328.025666 383.021161 
L 327.838275 382.537378 
L 327.584891 382.075923 
L 327.379576 381.875794 
L 327.252476 381.750093 
L 326.754669 381.358105 
L 326.440178 381.016562 
L 326.214495 380.712233 
L 325.878821 380.326861 
L 325.445379 380.084556 
L 324.901131 379.893524 
L 324.568717 379.546192 
L 324.36829 379.188937 
L 324.152384 379.003693 
L 322.024278 382.496029 
L 321.854812 382.333114 
L 321.68779 381.886545 
L 321.480031 381.387876 
L 321.18265 381.001676 
L 320.750837 380.601418 
L 320.414349 380.297917 
L 320.388277 380.238374 
L 320.132448 379.911717 
L 319.818773 379.570174 
L 319.316077 379.238556 
L 319.174312 379.135183 
L 318.831306 378.936708 
L 318.806863 378.921822 
L 318.362829 378.581934 
" clip-path="url(#pb8997613c1)" style="fill: #b3e2cd; fill-opacity: 0.65"/>
   </g>
   <g id="PatchCollection_2">
    <path d="M 405.356826 194.973155 
L 406.052306 195.437181 
L 406.47642 195.507929 
L 406.66245 195.608548 
L 406.881078 195.572938 
L 407.203805 195.937041 
L 407.31153 196.249226 
L 407.213533 196.746795 
L 407.313119 197.040604 
L 407.794493 197.381956 
L 408.056571 197.346586 
L 408.621227 197.574461 
L 408.831928 197.499578 
L 408.980618 197.263888 
L 409.651441 196.993613 
L 409.993299 196.601464 
L 410.683176 196.653679 
L 411.3175 197.473124 
L 411.445824 198.074359 
L 411.883656 198.191052 
L 412.299545 198.00207 
L 412.88921 198.683165 
L 413.433832 198.695096 
L 413.833155 198.882491 
L 414.487067 199.569979 
L 414.967258 199.394638 
L 415.518452 199.727983 
L 415.703475 200.214849 
L 416.4173 200.597228 
L 416.746088 201.034226 
L 416.731981 201.57796 
L 417.202951 201.495957 
L 417.626388 201.247168 
L 418.609285 200.976332 
L 418.974558 200.568127 
L 419.436247 199.68923 
L 419.033627 198.818379 
L 419.538318 198.513314 
L 419.690626 199.078877 
L 419.969903 199.524528 
L 420.417327 199.969261 
L 420.821308 200.195531 
L 421.257423 200.300508 
L 421.784512 200.990581 
L 422.251408 200.989432 
L 422.639315 200.636121 
L 422.678015 200.122476 
L 422.897311 199.600106 
L 423.225701 199.378194 
L 423.789681 199.439763 
L 424.209045 199.234622 
L 424.363846 198.726725 
L 424.788416 198.655282 
L 426.016191 197.886646 
L 425.695729 196.946874 
L 425.745966 196.930334 
L 426.410665 197.262276 
L 427.038236 197.236094 
L 427.841441 196.949859 
L 429.776672 196.452299 
L 430.338168 196.663865 
L 430.5964 196.923214 
L 430.701404 197.52117 
L 431.060347 197.795223 
L 431.302056 198.873282 
L 431.76012 198.827566 
L 431.920575 198.999851 
L 432.452651 198.854443 
L 432.750936 199.180414 
L 432.716537 199.55898 
L 433.414722 200.94647 
L 433.751031 201.096708 
L 433.951099 200.985297 
L 434.111782 200.522188 
L 434.491314 200.092159 
L 434.527749 199.596889 
L 434.848439 199.457452 
L 434.847315 199.015018 
L 435.296099 199.207977 
L 436.248891 199.381643 
L 436.528396 199.599188 
L 436.948216 199.406452 
L 437.235861 199.4903 
L 437.657041 199.39313 
L 438.098134 199.173062 
L 438.414067 199.410356 
L 438.590825 199.352012 
L 438.997514 198.893546 
L 438.454983 197.897712 
L 438.684625 197.750143 
L 438.998397 197.243279 
L 439.078538 196.812035 
L 439.261398 196.685689 
L 439.641157 196.717619 
L 440.196094 197.119853 
L 440.156482 197.266874 
L 440.443906 197.356924 
L 440.700778 197.636716 
L 441.419559 197.898595 
L 441.714903 197.831742 
L 441.751795 198.097294 
L 442.495247 198.162079 
L 442.685578 198.44417 
L 442.837438 198.964018 
L 442.973679 198.985611 
L 442.95363 199.51727 
L 441.801523 200.484382 
L 441.83021 201.329627 
L 441.580404 201.748919 
L 441.805284 202.913957 
L 441.347281 203.552825 
L 441.44858 203.914613 
L 441.875404 203.943046 
L 442.32097 203.851962 
L 442.561186 204.165937 
L 442.273798 204.405899 
L 441.76371 204.611224 
L 441.864304 204.960163 
L 442.201214 205.460438 
L 442.670281 205.620324 
L 443.410556 205.560541 
L 443.67354 206.062341 
L 443.820456 206.799322 
L 444.051893 207.365109 
L 444.878261 207.749063 
L 445.536821 209.329045 
L 447.001032 208.751132 
L 447.680694 209.314472 
L 447.896099 209.718869 
L 448.083855 210.880956 
L 448.466914 211.155656 
L 448.806919 210.713573 
L 448.914739 210.131529 
L 449.383177 209.656164 
L 449.846413 210.436756 
L 450.371935 212.933323 
L 450.759793 213.226191 
L 451.115447 213.127797 
L 452.454556 211.433226 
L 452.942058 211.589276 
L 454.370739 212.882601 
L 454.286549 211.369219 
L 454.492386 211.106148 
L 455.053212 211.387143 
L 456.385283 212.52135 
L 456.47014 211.78531 
L 456.307187 210.564861 
L 457.408357 210.651453 
L 459.135055 211.111585 
L 458.581646 209.978672 
L 458.777721 209.607692 
L 460.82941 210.53791 
L 461.322703 209.886167 
L 460.556923 208.655062 
L 460.671684 208.150762 
L 462.382024 208.784566 
L 462.647733 208.114948 
L 462.807451 206.873053 
L 462.438252 206.200458 
L 462.823873 205.387588 
L 463.252591 205.374871 
L 463.844563 204.489172 
L 464.367543 204.997847 
L 464.77219 205.220631 
L 465.730647 205.394026 
L 466.106415 205.974819 
L 466.543756 206.126993 
L 466.822285 205.878331 
L 467.589082 204.91601 
L 469.035032 204.446757 
L 469.539843 204.036199 
L 470.154874 203.374499 
L 470.274718 201.987134 
L 470.06319 201.9568 
L 469.871477 201.744091 
L 470.470129 201.489664 
L 471.374314 200.414461 
L 471.636792 201.144116 
L 473.128973 200.60988 
L 474.023806 200.795854 
L 474.871724 200.750944 
L 474.898071 201.177378 
L 474.521301 201.667257 
L 474.06877 202.029067 
L 474.400378 202.530497 
L 473.456026 203.271079 
L 473.443569 203.698989 
L 474.227155 203.954788 
L 474.52396 204.229685 
L 474.252927 204.884719 
L 474.266121 205.186606 
L 474.806989 205.306039 
L 474.388864 206.327681 
L 474.831157 206.20199 
L 475.712413 206.338397 
L 477.062224 206.028615 
L 477.995875 206.357251 
L 478.002519 206.567112 
L 478.453407 207.425984 
L 479.132298 207.555003 
L 479.495374 207.375506 
L 479.81017 206.934222 
L 480.343466 206.694957 
L 480.855908 206.865628 
L 481.382184 206.826331 
L 481.115272 206.099643 
L 481.084804 205.445203 
L 482.019857 205.448625 
L 482.448781 205.222005 
L 482.555815 205.695657 
L 482.918248 205.903877 
L 483.414746 205.734332 
L 484.217243 205.205303 
L 484.044949 205.751787 
L 483.756593 205.990094 
L 483.676971 206.373729 
L 484.16167 206.562492 
L 484.533793 206.562199 
L 485.739714 206.100055 
L 486.84822 205.622779 
L 487.27736 205.489903 
L 487.643786 204.869841 
L 488.097365 204.774325 
L 488.593282 204.862729 
L 488.997303 205.296177 
L 489.134979 205.759692 
L 489.903437 205.949748 
L 489.705668 206.42407 
L 489.32271 206.687795 
L 488.970037 206.552634 
L 489.167772 207.044902 
L 488.767656 207.102447 
L 488.834699 207.447359 
L 489.294865 207.851848 
L 489.154319 208.038355 
L 488.70142 207.497169 
L 488.443882 206.869019 
L 487.983359 206.772535 
L 487.302832 207.153854 
L 487.616478 207.86854 
L 487.053436 208.065349 
L 487.328401 208.572999 
L 486.770802 208.474756 
L 486.41019 208.126831 
L 486.216973 208.238425 
L 486.151274 208.678263 
L 485.86581 209.120863 
L 485.463723 208.841731 
L 485.077033 209.052669 
L 485.172085 209.751508 
L 484.780307 209.770278 
L 484.743553 210.117154 
L 484.930526 210.379284 
L 485.183241 211.033104 
L 485.643881 211.176206 
L 485.518865 212.371151 
L 485.736185 212.436691 
L 486.068524 212.298095 
L 487.147394 212.784916 
L 487.153733 212.994878 
L 486.64293 213.488766 
L 487.112311 214.052494 
L 487.812541 214.324247 
L 488.07167 213.733412 
L 488.431965 213.666335 
L 489.149166 213.917191 
L 489.797342 213.630039 
L 490.668211 213.038062 
L 491.779649 213.216549 
L 492.471503 212.999244 
L 492.571081 212.497077 
L 492.900375 212.459408 
L 493.212014 212.548077 
L 493.453039 212.290332 
L 493.964289 212.461244 
L 494.087405 212.706121 
L 494.290414 212.768839 
L 494.148967 213.085159 
L 494.299018 213.309585 
L 494.116605 213.694362 
L 494.253979 214.01413 
L 494.145569 214.375471 
L 493.57978 214.165285 
L 493.681851 214.565676 
L 493.943472 214.771966 
L 494.612693 214.892564 
L 494.816599 214.754277 
L 494.595942 214.140244 
L 495.00082 213.552626 
L 495.378998 213.552402 
L 495.988018 213.914429 
L 496.383168 214.477925 
L 495.825298 214.859485 
L 495.817826 215.203831 
L 495.334416 215.249547 
L 495.444406 215.629726 
L 496.591383 216.429142 
L 497.071624 216.889265 
L 497.374211 217.036972 
L 497.656658 216.934286 
L 498.550152 215.606066 
L 498.536799 215.130089 
L 498.69771 214.9856 
L 499.335246 214.70718 
L 499.748727 214.781608 
L 500.058329 214.703277 
L 500.282383 214.829854 
L 500.403242 215.130321 
L 501.492274 215.485236 
L 501.580315 215.547028 
L 502.141355 215.587914 
L 502.482186 216.004397 
L 502.448472 216.279368 
L 502.327613 216.245826 
L 501.651377 216.404788 
L 501.906668 216.845386 
L 502.212416 217.186747 
L 502.117141 217.511336 
L 501.923867 217.622284 
L 501.160952 217.697861 
L 500.992341 217.941134 
L 501.334532 218.178204 
L 501.841033 218.293981 
L 502.634502 218.308908 
L 502.673878 219.301979 
L 502.386233 219.601759 
L 502.342099 220.045111 
L 502.359754 220.294809 
L 502.457067 220.107589 
L 502.64084 219.678941 
L 502.956773 219.327243 
L 503.11339 219.424181 
L 503.228359 219.96195 
L 503.113162 220.508906 
L 503.533659 220.596657 
L 503.586845 221.408246 
L 503.903462 222.035833 
L 504.168253 222.045484 
L 503.651568 222.29978 
L 503.208666 222.242346 
L 502.910381 222.497329 
L 502.862857 223.002018 
L 502.513423 223.458693 
L 502.347753 222.724748 
L 502.091794 222.997883 
L 501.908477 223.981071 
L 500.814458 224.34471 
L 501.016563 223.885737 
L 500.318826 223.982683 
L 500.287369 223.814757 
L 500.106089 223.179819 
L 500.361372 222.543507 
L 500.259978 222.584856 
L 499.652091 223.73091 
L 499.732889 224.244786 
L 498.846629 224.380552 
L 498.779184 224.736608 
L 498.060859 225.645599 
L 498.419574 225.769183 
L 498.705638 226.235508 
L 499.15012 226.829561 
L 498.063344 227.254529 
L 497.877086 227.02964 
L 497.820054 226.480385 
L 497.719572 226.604432 
L 497.467678 226.877336 
L 496.748669 226.716993 
L 496.96231 226.141787 
L 497.22869 225.844761 
L 496.652937 225.801807 
L 496.487723 226.530922 
L 496.619215 227.729819 
L 496.371403 227.625752 
L 496.03102 227.172981 
L 495.533123 227.034693 
L 495.490797 228.151347 
L 495.376285 228.22026 
L 495.092162 227.315688 
L 494.657659 227.331314 
L 494.23139 227.62314 
L 493.748517 227.773618 
L 493.018163 227.855099 
L 493.047112 228.207512 
L 493.475191 228.721224 
L 492.972169 228.902504 
L 492.552426 229.410367 
L 491.784813 229.966483 
L 491.698413 230.566751 
L 491.451187 231.241354 
L 491.00364 231.483615 
L 490.711097 231.377147 
L 490.126993 231.751142 
L 490.741503 233.60235 
L 490.957643 234.770909 
L 490.806369 235.082239 
L 490.344324 234.977536 
L 490.159844 234.58055 
L 490.185516 234.007472 
L 490.013096 233.674599 
L 489.694541 233.463397 
L 489.476849 233.474302 
L 489.58263 234.096584 
L 489.518118 234.564948 
L 488.993728 234.834783 
L 488.213485 234.544525 
L 487.677179 234.549276 
L 487.572515 234.847375 
L 487.790108 235.196651 
L 488.148234 235.179041 
L 488.397804 235.461879 
L 488.478391 235.727684 
L 488.215169 235.959885 
L 487.433323 236.121241 
L 486.94698 236.023226 
L 487.034555 234.66303 
L 485.34161 234.367573 
L 485.423819 234.947539 
L 485.075535 235.671682 
L 484.754381 236.658547 
L 485.436467 237.722741 
L 485.248505 238.552648 
L 485.342324 239.8768 
L 484.49108 241.213596 
L 483.098766 241.46906 
L 481.843737 241.528372 
L 481.459404 241.750728 
L 481.401661 242.141343 
L 481.449233 242.609317 
L 481.736128 242.956693 
L 482.186213 242.90423 
L 483.114328 242.55746 
L 483.466293 242.554793 
L 483.652249 242.934884 
L 483.551993 243.767973 
L 483.067022 243.972846 
L 482.574935 243.804858 
L 481.518407 243.758176 
L 481.657437 244.305648 
L 481.934738 244.837478 
L 481.921888 245.065663 
L 482.23503 245.596802 
L 482.168005 246.105531 
L 481.561378 246.835677 
L 481.240911 247.02968 
L 481.059631 247.414889 
L 481.017939 247.884325 
L 482.079412 248.384712 
L 481.926563 248.932151 
L 480.779675 249.282577 
L 481.452413 250.433547 
L 480.962662 250.314723 
L 479.726543 250.399903 
L 480.751804 251.850255 
L 480.70936 252.065365 
L 480.509919 252.190486 
L 479.955574 252.369648 
L 479.495809 252.892057 
L 479.111116 253.520292 
L 478.70955 253.438677 
L 478.400923 253.113915 
L 477.871273 252.758116 
L 477.335048 252.821499 
L 476.999188 253.140571 
L 476.776082 254.003796 
L 477.106091 255.148176 
L 477.027571 255.465799 
L 476.37308 255.142406 
L 476.065514 255.480499 
L 475.263591 256.918866 
L 474.888598 256.948088 
L 474.506291 255.52649 
L 473.196523 255.154301 
L 472.242143 255.328653 
L 472.205031 255.651407 
L 472.723068 256.100275 
L 473.18906 256.614375 
L 473.285916 256.705119 
L 472.479322 256.705119 
L 472.221098 256.904967 
L 472.236488 258.006918 
L 471.880039 258.533199 
L 471.880943 258.810237 
L 471.604607 259.52512 
L 471.022523 259.841208 
L 470.429342 260.053237 
L 470.321845 260.32844 
L 470.470764 261.400983 
L 470.309624 261.407648 
L 469.665302 261.184364 
L 469.486963 260.989329 
L 469.986441 260.641543 
L 469.931217 260.348651 
L 469.132999 259.154352 
L 468.123403 259.519604 
L 468.388194 259.918622 
L 468.378458 260.302018 
L 468.574672 260.540461 
L 468.567658 261.08673 
L 468.013861 261.558795 
L 467.793881 261.819525 
L 467.73051 262.079569 
L 467.785734 262.916423 
L 467.49967 263.323942 
L 466.970316 263.407326 
L 466.727474 263.181743 
L 466.439373 263.102725 
L 466.379628 262.827291 
L 466.181149 262.678203 
L 466.068894 262.992687 
L 465.631198 262.75861 
L 465.198252 263.077684 
L 465.187384 262.941464 
L 464.982346 262.855781 
L 464.231879 263.079751 
L 463.31461 262.994754 
L 462.977177 263.099276 
L 462.93666 263.26215 
L 463.619234 263.532754 
L 463.890592 263.475321 
L 464.109212 264.065693 
L 463.990626 263.913165 
L 463.770418 263.840341 
L 462.935307 264.323669 
L 462.804492 264.229022 
L 462.783676 263.804045 
L 462.458683 263.838505 
L 462.000839 263.771197 
L 461.83005 263.877922 
L 460.895536 263.348438 
L 459.90237 263.18465 
L 459.061545 264.163506 
L 458.247338 264.808119 
L 456.825947 265.713543 
L 456.180501 265.825476 
L 455.433878 265.396371 
L 454.635059 264.403263 
L 454.240941 264.385203 
L 454.110009 263.835243 
L 453.951951 263.504186 
L 453.42911 263.191341 
L 453.052424 263.017437 
L 451.741508 263.064402 
L 450.528371 263.17535 
L 450.057089 263.203229 
L 449.815723 262.910698 
L 449.588213 262.847694 
L 448.958772 263.005076 
L 448.897519 262.951001 
L 449.122276 262.548834 
L 449.592154 261.739314 
L 449.74434 260.410525 
L 449.549963 260.376664 
L 449.157555 260.599284 
L 447.984786 260.502031 
L 447.978215 260.351181 
L 448.196123 259.808849 
L 448.203441 259.340599 
L 447.79949 259.214512 
L 447.285408 259.184264 
L 447.056931 259.284275 
L 446.18774 258.870144 
L 445.364821 259.062898 
L 445.055341 258.754445 
L 444.734595 258.447732 
L 444.503402 258.327155 
L 444.44706 257.274205 
L 444.099579 256.965334 
L 443.600259 255.838326 
L 443.248985 255.761152 
L 442.561649 256.966663 
L 441.553376 257.601831 
L 440.714832 258.506107 
L 440.423607 259.459554 
L 440.469095 260.651101 
L 441.03856 261.96384 
L 441.934159 262.980119 
L 441.707124 263.757281 
L 440.981711 264.129503 
L 439.564687 263.865505 
L 439.585433 264.247716 
L 440.138134 264.801412 
L 440.089649 265.5395 
L 439.170277 266.237278 
L 437.614416 266.971604 
L 436.77452 267.710613 
L 436.757831 268.79623 
L 437.07078 269.944407 
L 437.556175 270.195235 
L 437.751774 270.456651 
L 439.282748 271.109028 
L 439.965502 270.976597 
L 440.29454 271.244616 
L 440.707697 271.213596 
L 440.8631 271.590482 
L 441.505862 271.433967 
L 441.787973 271.699703 
L 441.93468 272.06643 
L 442.90039 272.599177 
L 442.997915 272.84837 
L 443.038316 274.228825 
L 443.175056 274.575466 
L 442.852098 274.961906 
L 442.893984 275.248714 
L 443.094286 275.581128 
L 442.986741 275.865879 
L 442.527415 275.751032 
L 442.346905 276.156101 
L 442.378576 276.988583 
L 442.670615 277.587049 
L 442.887971 277.736432 
L 443.564864 277.568478 
L 443.462749 277.708325 
L 443.072934 277.873472 
L 443.146954 278.26272 
L 443.574375 278.455912 
L 444.33514 278.502753 
L 444.597897 278.709186 
L 444.626283 279.10847 
L 445.038385 279.212145 
L 445.33315 279.411798 
L 445.507769 279.751754 
L 445.504818 279.994577 
L 445.967333 280.434736 
L 445.493359 280.67025 
L 445.446646 281.20018 
L 446.187726 281.338924 
L 446.08475 281.593753 
L 445.702808 281.699593 
L 445.675704 282.497399 
L 445.568114 282.836762 
L 445.83747 283.308119 
L 445.485257 283.461587 
L 444.925948 283.48583 
L 444.802133 283.880468 
L 445.546069 284.572241 
L 445.801004 285.152348 
L 445.939925 285.475134 
L 445.871616 285.627312 
L 447.030905 286.315741 
L 447.195659 286.6126 
L 447.461828 286.628796 
L 447.553837 286.779494 
L 447.474577 287.04719 
L 447.599981 287.154116 
L 448.095801 286.997743 
L 448.121614 287.167175 
L 447.99004 287.505255 
L 448.714543 288.128006 
L 449.018937 288.152306 
L 449.76761 289.011361 
L 449.827883 289.26842 
L 450.07508 289.407745 
L 450.399349 290.123872 
L 450.575533 290.248579 
L 450.911823 290.278647 
L 451.099399 291.298011 
L 451.950096 291.413911 
L 452.696269 291.079447 
L 452.73202 291.384512 
L 453.433154 291.63674 
L 454.222997 291.16513 
L 454.27822 291.476629 
L 454.48259 291.875183 
L 454.776345 291.916764 
L 454.789927 291.516828 
L 455.182136 291.444004 
L 455.464574 291.510849 
L 455.555039 291.923866 
L 455.816731 292.410472 
L 455.912472 292.748914 
L 455.886987 293.342808 
L 455.379766 294.309267 
L 454.057058 295.82322 
L 453.294601 297.373646 
L 452.891654 297.774182 
L 451.36626 298.989506 
L 451.297524 299.358343 
L 451.614574 300.013067 
L 452.511887 300.556203 
L 453.378208 300.939213 
L 454.739517 301.739397 
L 455.878417 302.65193 
L 457.248724 303.963865 
L 458.204405 305.264609 
L 458.061342 306.348653 
L 457.597644 306.736117 
L 456.788774 307.032547 
L 456.162523 307.445109 
L 455.260045 309.213024 
L 454.870427 309.623265 
L 454.574646 310.191271 
L 454.463646 310.783172 
L 454.359279 314.018641 
L 454.026633 315.478979 
L 453.781273 316.159312 
L 452.515346 318.364754 
L 452.331419 319.163569 
L 452.286894 320.869547 
L 452.239211 321.870912 
L 452.317913 323.033486 
L 451.587463 323.779431 
L 451.18355 323.734978 
L 451.186571 323.860383 
L 450.914889 323.873303 
L 450.818737 324.176778 
L 450.690416 324.211238 
L 450.077551 324.528244 
L 449.739881 324.279232 
L 449.152363 324.148528 
L 448.32676 324.630012 
L 447.596737 324.326792 
L 447.614909 324.769118 
L 446.356445 324.881195 
L 446.133764 325.38055 
L 445.735225 325.300086 
L 444.835633 325.695724 
L 444.380192 325.24342 
L 443.983887 325.369049 
L 443.944699 325.575434 
L 443.60332 325.263621 
L 443.451796 325.331516 
L 443.579371 325.746137 
L 442.905568 326.043489 
L 442.612717 326.310897 
L 441.700221 326.135805 
L 441.579858 326.295763 
L 441.645927 326.518034 
L 440.808275 326.798218 
L 440.284625 326.707339 
L 440.33176 327.03205 
L 440.530103 327.200715 
L 440.304598 327.529911 
L 439.851561 327.414804 
L 439.028789 327.390945 
L 438.544909 327.820422 
L 438.768329 328.150236 
L 438.173315 328.117205 
L 437.87662 327.727371 
L 437.21811 327.546003 
L 437.002183 327.326987 
L 436.449377 327.247188 
L 436.138576 327.62046 
L 435.811163 329.085424 
L 435.162067 329.091783 
L 433.747278 329.769517 
L 433.415355 330.723 
L 433.183521 331.102974 
L 431.909177 331.50567 
L 431.459039 331.331655 
L 431.250186 331.751098 
L 431.280183 332.215591 
L 430.46158 331.92041 
L 429.892746 331.860015 
L 429.529574 332.01634 
L 429.138001 332.400324 
L 428.945938 332.890293 
L 427.741901 333.716998 
L 426.73476 333.822318 
L 426.594898 334.684249 
L 426.196123 335.09474 
L 425.357286 335.49346 
L 425.315856 336.397265 
L 424.59941 337.335204 
L 424.082029 336.897672 
L 423.48496 336.75862 
L 422.094701 337.199197 
L 422.13844 336.708879 
L 421.561907 336.945875 
L 420.983726 337.388257 
L 420.421762 337.662029 
L 420.081493 337.996998 
L 419.345039 338.458911 
L 418.734137 338.524671 
L 416.201818 337.697287 
L 414.773701 336.961779 
L 413.833877 337.068511 
L 413.383657 336.803845 
L 412.516688 336.727992 
L 411.213636 335.536362 
L 410.28653 335.368407 
L 408.867582 335.367323 
L 407.364898 335.772879 
L 405.720876 335.850422 
L 404.16076 335.48908 
L 402.603525 335.38762 
L 401.411045 336.150741 
L 400.44124 337.552081 
L 398.617979 338.296895 
L 395.815703 338.71585 
L 391.441419 337.795471 
L 390.218549 337.143676 
L 388.180409 335.836181 
L 386.857801 335.913233 
L 385.290225 336.229747 
L 384.448291 335.769441 
L 383.41648 334.656204 
L 381.899041 334.543139 
L 380.858531 334.05102 
L 380.265437 332.95112 
L 378.925125 332.424643 
L 377.639876 331.523219 
L 376.081285 330.613386 
L 375.020813 329.267951 
L 374.716504 328.31501 
L 374.745027 327.049077 
L 375.2931 324.657088 
L 375.952508 323.602231 
L 375.488322 322.862559 
L 374.391845 322.445651 
L 371.792862 320.98335 
L 370.636812 320.962136 
L 369.944902 321.29503 
L 367.944487 321.411226 
L 366.248661 322.063861 
L 366.372796 322.460795 
L 366.063651 322.569452 
L 366.187214 322.76724 
L 366.055503 322.744498 
L 365.95366 322.611719 
L 365.710142 322.546478 
L 365.67189 322.277941 
L 365.429961 322.2258 
L 365.271534 322.460563 
L 364.979816 322.582774 
L 364.598248 322.325724 
L 364.459057 322.348466 
L 364.228445 321.930155 
L 364.035164 321.84056 
L 364.03109 321.519651 
L 363.8652 321.454179 
L 363.543606 321.608319 
L 363.30733 321.552953 
L 362.733394 322.120129 
L 362.51092 322.10956 
L 362.626573 321.979774 
L 362.491456 321.722261 
L 362.222591 321.703653 
L 362.125507 321.915683 
L 361.558349 322.094401 
L 361.334523 322.062472 
L 361.176105 322.297698 
L 360.667119 322.577721 
L 360.788646 322.786302 
L 360.144772 323.005229 
L 360.151567 323.35256 
L 360.008083 323.623396 
L 358.516201 324.014144 
L 357.801037 324.051813 
L 357.494605 323.903874 
L 357.002818 324.341719 
L 356.451735 324.362616 
L 356.489075 324.194467 
L 356.330876 324.097983 
L 355.859231 324.357795 
L 355.865569 324.537663 
L 355.737476 325.050622 
L 355.05649 325.558065 
L 355.201107 325.776528 
L 355.383519 325.849575 
L 355.396417 326.105253 
L 354.97139 326.515526 
L 354.315075 326.837585 
L 353.958846 326.923963 
L 353.534275 326.911781 
L 353.46389 326.450517 
L 353.343944 326.311535 
L 352.768198 326.553658 
L 352.715012 326.4342 
L 352.475339 326.470497 
L 352.507025 326.601209 
L 352.328458 326.605575 
L 352.288625 326.927866 
L 352.407895 327.058802 
L 352.33729 327.249007 
L 352.492995 327.432324 
L 352.43347 327.68547 
L 352.659789 327.954702 
L 352.925484 327.951022 
L 352.725872 328.030048 
L 352.71999 328.149042 
L 352.871622 328.29077 
L 352.286588 328.104245 
L 352.187239 327.985482 
L 352.173657 327.786089 
L 351.001789 327.66296 
L 350.841334 328.058529 
L 344.724205 331.687366 
L 344.26614 332.18424 
L 344.176747 332.23868 
L 343.909463 332.220304 
L 343.426956 332.377894 
L 342.924302 332.067776 
L 342.658606 331.720445 
L 342.917515 331.204037 
L 342.487967 330.832814 
L 342.539564 330.722785 
L 342.072896 330.659843 
L 342.265721 330.19972 
L 342.052756 330.198107 
L 341.790906 330.763216 
L 341.618906 330.713365 
L 341.686579 330.358682 
L 341.443509 330.3704 
L 340.935884 330.047184 
L 341.220815 329.718004 
L 338.856484 329.279705 
L 338.991136 328.935591 
L 338.751243 328.950063 
L 338.454995 329.19011 
L 338.327806 329.062391 
L 338.186807 328.158685 
L 338.294084 327.883714 
L 337.493372 327.975831 
L 337.355998 327.882796 
L 336.507306 328.132726 
L 336.179601 327.86074 
L 336.232103 328.085174 
L 336.094281 328.096893 
L 335.80165 327.821236 
L 335.541389 327.812503 
L 335.109796 327.33837 
L 334.959981 326.556875 
L 334.68138 326.501285 
L 334.314975 326.218499 
L 334.101333 325.791918 
L 334.102466 325.48869 
L 333.700977 325.40691 
L 333.241324 325.44252 
L 332.875367 324.880173 
L 333.020212 324.546851 
L 333.333659 324.318977 
L 333.258524 323.588249 
L 333.391375 323.476375 
L 332.952996 322.936308 
L 332.79571 322.951698 
L 332.485203 323.099182 
L 332.384037 322.897944 
L 332.567354 322.777578 
L 332.48271 322.693267 
L 332.023057 322.884167 
L 331.882515 323.082179 
L 331.744693 322.944346 
L 331.564765 323.233789 
L 331.645791 323.885036 
L 331.438937 323.716654 
L 331.213522 323.821871 
L 330.676021 324.482992 
L 330.475276 324.0741 
L 330.302742 323.294847 
L 330.413893 322.111062 
L 330.420361 320.9248 
L 329.686003 320.041776 
L 329.387321 319.532215 
L 329.355242 318.954802 
L 329.168726 318.568663 
L 328.14638 318.354227 
L 327.84592 318.10355 
L 327.314328 318.05315 
L 326.952996 318.594562 
L 326.550218 318.383345 
L 325.680832 318.410352 
L 325.435042 318.131532 
L 325.066987 318.058986 
L 325.06864 317.602902 
L 324.322766 317.087429 
L 324.579098 315.942316 
L 324.196518 315.596681 
L 323.204584 316.494829 
L 322.841815 316.322832 
L 322.743397 315.241911 
L 322.87976 314.989506 
L 322.985178 314.51316 
L 322.89051 313.166679 
L 322.606771 312.917337 
L 320.699926 313.282258 
L 319.476827 313.259396 
L 319.075283 313.112014 
L 319.081671 312.532532 
L 319.315078 311.734334 
L 318.841866 311.885736 
L 318.507955 311.821129 
L 318.606283 311.085485 
L 318.861616 310.810624 
L 318.537606 310.636503 
L 317.920293 310.543761 
L 317.458271 310.832374 
L 316.626458 310.870827 
L 316.282427 310.583872 
L 316.009366 310.199476 
L 315.219897 310.144672 
L 314.034394 310.550563 
L 313.898077 310.514579 
L 313.649303 310.015705 
L 313.333954 309.713383 
L 312.978298 309.729789 
L 311.520607 310.172346 
L 310.716737 310.038781 
L 310.306124 310.177115 
L 309.634791 310.787177 
L 308.934726 310.204293 
L 308.467799 309.507037 
L 307.975288 309.072914 
L 307.382176 308.926615 
L 307.519935 308.433574 
L 306.95815 307.895183 
L 306.786776 307.286051 
L 306.461148 307.182703 
L 305.920638 307.701537 
L 305.500042 306.998736 
L 304.178977 306.852342 
L 304.029649 306.538584 
L 304.536402 306.395322 
L 304.936727 306.111005 
L 305.28878 305.005759 
L 305.692056 304.62087 
L 305.915574 304.250789 
L 305.060083 303.806212 
L 304.762191 303.299469 
L 304.376764 303.325175 
L 304.305224 303.918771 
L 303.59178 304.322377 
L 302.287904 304.723344 
L 302.12482 304.097717 
L 301.372036 304.117906 
L 301.345042 303.611655 
L 300.684973 303.549072 
L 300.685972 303.151741 
L 300.236759 302.970604 
L 300.44685 302.157404 
L 299.423034 300.485785 
L 298.536671 300.499487 
L 298.30761 301.675829 
L 296.515892 300.877245 
L 295.367777 301.226207 
L 294.317962 301.702275 
L 293.164518 301.389892 
L 292.785048 301.72339 
L 292.319271 301.421501 
L 292.44838 300.829276 
L 292.411008 299.981727 
L 292.471967 298.72383 
L 291.912971 298.470457 
L 291.701522 299.008148 
L 291.289458 298.962172 
L 291.399222 298.336523 
L 291.260747 297.721682 
L 290.730163 297.157744 
L 290.518534 296.397613 
L 291.813517 296.339038 
L 291.798708 295.659562 
L 291.437832 295.040448 
L 290.956498 294.58342 
L 291.158799 294.032004 
L 291.430226 293.773496 
L 290.971671 293.296074 
L 291.210388 292.983568 
L 292.130772 293.440711 
L 292.875727 294.165974 
L 293.386687 293.932434 
L 293.463149 292.740758 
L 293.145002 292.103726 
L 294.048806 291.67713 
L 295.053655 291.534199 
L 295.023247 291.17399 
L 293.789645 290.80848 
L 294.921188 289.927362 
L 295.37729 288.686463 
L 295.453255 286.303567 
L 296.205527 285.988598 
L 296.206637 284.974084 
L 296.714405 284.387993 
L 297.001563 283.647832 
L 297.685137 283.178899 
L 297.666078 282.850351 
L 297.856353 282.450377 
L 297.625169 282.060634 
L 297.588246 281.361907 
L 297.097144 280.992204 
L 296.920357 280.514592 
L 296.224698 280.545329 
L 295.890932 280.765565 
L 296.121464 281.253375 
L 295.501544 281.315832 
L 295.024658 281.109886 
L 295.265141 280.628327 
L 295.62478 280.556207 
L 295.538474 279.931962 
L 295.892348 280.005519 
L 296.086963 279.748653 
L 296.292856 279.761126 
L 296.188467 279.443027 
L 296.024678 279.464838 
L 295.848578 279.696026 
L 295.348545 279.652295 
L 295.046936 279.327421 
L 295.108471 278.428957 
L 294.596765 278.061174 
L 294.633208 277.91967 
L 294.924698 277.73728 
L 295.231139 277.178837 
L 295.607729 276.357828 
L 295.293149 275.504435 
L 294.88713 275.064754 
L 294.607861 274.93152 
L 294.177173 274.943006 
L 294.122634 274.420628 
L 293.653025 274.065258 
L 293.645105 273.76571 
L 294.002231 273.197848 
L 293.366285 272.582897 
L 294.067411 271.955311 
L 294.727123 271.707903 
L 295.344974 271.341741 
L 295.898771 270.867832 
L 296.969024 270.776402 
L 296.852695 270.666827 
L 296.665084 269.114172 
L 296.241418 268.837134 
L 296.280339 268.129843 
L 296.741572 267.779527 
L 297.614706 267.455855 
L 297.405587 267.058442 
L 297.623986 266.774515 
L 297.564689 266.395708 
L 297.010217 265.41482 
L 297.502679 264.849256 
L 297.777655 265.008913 
L 298.015519 265.003166 
L 298.602353 263.765681 
L 298.900866 263.686432 
L 299.642281 263.124549 
L 299.699313 262.817185 
L 298.808979 262.478587 
L 298.051954 261.427173 
L 297.803001 260.942927 
L 297.48095 260.562979 
L 297.367114 259.995804 
L 297.721079 259.501229 
L 298.672966 258.766135 
L 299.0396 258.350114 
L 298.585381 258.130741 
L 297.947846 258.057 
L 298.515672 257.415172 
L 298.331679 257.147553 
L 298.302935 256.613688 
L 298.804905 255.434556 
L 299.392432 253.700653 
L 299.406006 252.438591 
L 299.235366 251.982834 
L 298.932323 251.616209 
L 297.461942 250.430634 
L 297.596147 249.962018 
L 298.289581 249.194531 
L 298.217167 248.877062 
L 298.616839 248.465185 
L 298.559359 248.07949 
L 298.71099 248.120152 
L 299.142347 247.655663 
L 299.058608 247.324408 
L 299.334268 247.194159 
L 298.869865 246.833968 
L 299.227447 246.772399 
L 299.299413 246.236243 
L 299.717644 246.033402 
L 299.646354 245.526877 
L 299.465303 245.088346 
L 299.420264 244.608929 
L 300.874129 244.946618 
L 301.865393 245.341269 
L 302.456309 245.361944 
L 302.814347 246.210747 
L 303.294132 246.472164 
L 304.044379 247.48705 
L 304.548835 247.624188 
L 305.841333 247.504971 
L 306.262285 247.150974 
L 306.465743 247.44088 
L 307.075894 247.479012 
L 307.278904 247.96578 
L 307.764579 248.030326 
L 308.277867 247.912258 
L 308.166068 247.505888 
L 308.60105 247.256645 
L 308.672788 246.885191 
L 310.473596 246.921255 
L 311.382481 246.329965 
L 311.7249 246.28931 
L 312.116204 246.491003 
L 312.299978 246.303551 
L 312.352023 246.354774 
L 312.766189 246.486868 
L 313.19823 246.39475 
L 313.657647 246.764361 
L 313.975396 246.816047 
L 314.246982 246.71566 
L 314.68128 245.719381 
L 314.392951 245.733853 
L 314.349729 245.572129 
L 314.826801 245.280164 
L 314.89515 245.460487 
L 315.161073 245.69434 
L 315.509604 245.253742 
L 315.389657 245.102818 
L 315.491728 244.971427 
L 316.552913 245.287149 
L 316.728709 245.627525 
L 317.18085 245.942301 
L 318.117269 246.050408 
L 318.780457 245.797927 
L 319.301326 246.037122 
L 319.281858 247.087114 
L 320.921525 246.720026 
L 322.832999 247.125709 
L 323.370729 245.189651 
L 324.093136 245.063768 
L 324.918738 245.162319 
L 325.334256 244.716436 
L 325.42976 244.041762 
L 325.667396 243.665486 
L 325.984013 243.758521 
L 326.376449 243.094184 
L 326.587826 243.484931 
L 327.46413 243.258653 
L 327.796585 242.973345 
L 328.635997 242.75948 
L 328.42462 243.118298 
L 329.198169 243.485155 
L 330.141617 243.725948 
L 330.184674 243.166572 
L 330.196909 241.80791 
L 331.307622 241.642863 
L 331.382797 241.369254 
L 331.352043 240.931184 
L 331.460701 240.759363 
L 332.063113 240.457726 
L 332.293328 240.440193 
L 332.406442 239.8685 
L 333.088789 239.352787 
L 334.047014 238.833626 
L 333.872749 238.304127 
L 334.541294 237.551121 
L 334.476791 237.292227 
L 335.797805 236.513716 
L 335.594119 236.34488 
L 335.5475 235.981927 
L 336.207212 235.393622 
L 336.242067 234.839314 
L 335.811386 234.470853 
L 335.797805 234.15154 
L 335.618562 234.114326 
L 335.782642 233.791804 
L 335.891272 233.899088 
L 335.984291 233.740117 
L 335.943098 233.008703 
L 335.745751 232.941627 
L 336.019146 232.803563 
L 336.345042 232.768193 
L 336.194535 232.356771 
L 336.416332 231.393339 
L 336.296834 231.230929 
L 337.170416 230.730606 
L 337.167703 230.403949 
L 336.950436 229.645427 
L 336.993886 229.225958 
L 336.780245 228.301585 
L 337.065176 227.972397 
L 337.295341 228.027987 
L 337.692307 227.454849 
L 337.723764 227.256142 
L 337.532072 226.752139 
L 337.838056 226.789353 
L 338.024763 226.420661 
L 337.955738 226.221499 
L 338.163269 226.244696 
L 338.279141 226.003499 
L 338.086773 225.60884 
L 338.241574 225.25715 
L 338.402265 225.30079 
L 338.514292 224.848482 
L 338.407015 224.781405 
L 338.268509 224.915789 
L 337.888522 224.76532 
L 337.669674 224.211476 
L 337.970672 224.114537 
L 337.884676 223.943402 
L 338.118686 223.841171 
L 338.051014 223.708631 
L 337.777399 223.506244 
L 339.121951 222.942757 
L 339.544028 222.467698 
L 339.564625 222.189056 
L 339.84888 222.004589 
L 339.646099 221.40273 
L 339.814253 221.231595 
L 339.67846 220.33524 
L 339.324048 219.534906 
L 339.466627 219.361008 
L 339.155901 218.685647 
L 339.560551 217.907137 
L 339.296216 217.807436 
L 339.203873 217.203518 
L 339.274487 216.764755 
L 339.529998 216.413752 
L 339.411184 215.881268 
L 339.560103 215.834172 
L 339.58703 215.497409 
L 339.891654 215.375661 
L 339.988518 214.994556 
L 353.933955 219.985841 
L 353.757197 218.559988 
L 355.396438 214.917551 
L 356.819494 213.753521 
L 361.10413 212.008704 
L 360.154818 208.834906 
L 362.716243 208.540106 
L 363.556158 206.702443 
L 364.298127 206.115902 
L 365.671838 205.997148 
L 367.335352 204.704718 
L 369.600955 204.153323 
L 373.6725 201.55273 
L 377.262977 201.114388 
L 378.551528 199.449367 
L 380.601259 198.599884 
L 383.821223 195.287287 
L 384.959795 194.974624 
L 385.961207 194.985837 
L 386.995459 195.218086 
L 387.652607 195.697891 
L 388.192102 195.278505 
L 389.024914 194.845715 
L 390.298591 194.946046 
L 390.427817 194.819469 
L 390.58828 194.86243 
L 390.692836 194.697953 
L 391.842983 194.841061 
L 392.142848 195.201947 
L 392.346086 195.422941 
L 393.368358 195.891102 
L 393.565257 195.624401 
L 394.67421 195.244214 
L 395.033601 195.300498 
L 395.617045 195.17875 
L 395.940449 195.237557 
L 396.402595 194.999114 
L 398.032078 194.992911 
L 398.60828 194.562187 
L 399.465568 193.930466 
L 400.424926 192.686093 
L 400.578146 192.443747 
L 400.628839 191.978794 
L 401.155928 191.787439 
L 401.293082 191.602063 
L 401.760874 191.365911 
L 403.021687 191.424494 
L 405.133 193.983533 
L 405.356826 194.973155 
L 405.356826 194.973155 
" clip-path="url(#pb8997613c1)" style="fill: none; stroke: #000000; stroke-width: 2"/>
   </g>
   <g id="matplotlib.axis_1">
    <g id="xtick_1">
     <g id="line2d_1">
      <path d="M 243.649385 768.96 
L 243.649385 103.68 
" clip-path="url(#pb8997613c1)" style="fill: none; stroke: #b0b0b0; stroke-width: 0.8; stroke-linecap: square"/>
     </g>
     <g id="line2d_2">
      <defs>
       <path id="md2b1cf6d59" d="M 0 0 
L 0 3.5 
" style="stroke: #000000; stroke-width: 0.8"/>
      </defs>
      <g>
       <use xlink:href="#md2b1cf6d59" x="243.649385" y="768.96" style="stroke: #000000; stroke-width: 0.8"/>
      </g>
     </g>
     <g id="text_1">
      <!-- 48.35 -->
      <g transform="translate(232.51632 807.501382) rotate(-45) scale(0.1 -0.1)">
       <defs>
        <path id="DejaVuSans-2212" d="M 678 2272 
L 4684 2272 
L 4684 1741 
L 678 1741 
L 678 2272 
z
" transform="scale(0.015625)"/>
        <path id="DejaVuSans-34" d="M 2419 4116 
L 825 1625 
L 2419 1625 
L 2419 4116 
z
M 2253 4666 
L 3047 4666 
L 3047 1625 
L 3713 1625 
L 3713 1100 
L 3047 1100 
L 3047 0 
L 2419 0 
L 2419 1100 
L 313 1100 
L 313 1709 
L 2253 4666 
z
" transform="scale(0.015625)"/>
        <path id="DejaVuSans-38" d="M 2034 2216 
Q 1584 2216 1326 1975 
Q 1069 1734 1069 1313 
Q 1069 891 1326 650 
Q 1584 409 2034 409 
Q 2484 409 2743 651 
Q 3003 894 3003 1313 
Q 3003 1734 2745 1975 
Q 2488 2216 2034 2216 
z
M 1403 2484 
Q 997 2584 770 2862 
Q 544 3141 544 3541 
Q 544 4100 942 4425 
Q 1341 4750 2034 4750 
Q 2731 4750 3128 4425 
Q 3525 4100 3525 3541 
Q 3525 3141 3298 2862 
Q 3072 2584 2669 2484 
Q 3125 2378 3379 2068 
Q 3634 1759 3634 1313 
Q 3634 634 3220 271 
Q 2806 -91 2034 -91 
Q 1263 -91 848 271 
Q 434 634 434 1313 
Q 434 1759 690 2068 
Q 947 2378 1403 2484 
z
M 1172 3481 
Q 1172 3119 1398 2916 
Q 1625 2713 2034 2713 
Q 2441 2713 2670 2916 
Q 2900 3119 2900 3481 
Q 2900 3844 2670 4047 
Q 2441 4250 2034 4250 
Q 1625 4250 1398 4047 
Q 1172 3844 1172 3481 
z
" transform="scale(0.015625)"/>
        <path id="DejaVuSans-2e" d="M 684 794 
L 1344 794 
L 1344 0 
L 684 0 
L 684 794 
z
" transform="scale(0.015625)"/>
        <path id="DejaVuSans-33" d="M 2597 2516 
Q 3050 2419 3304 2112 
Q 3559 1806 3559 1356 
Q 3559 666 3084 287 
Q 2609 -91 1734 -91 
Q 1441 -91 1130 -33 
Q 819 25 488 141 
L 488 750 
Q 750 597 1062 519 
Q 1375 441 1716 441 
Q 2309 441 2620 675 
Q 2931 909 2931 1356 
Q 2931 1769 2642 2001 
Q 2353 2234 1838 2234 
L 1294 2234 
L 1294 2753 
L 1863 2753 
Q 2328 2753 2575 2939 
Q 2822 3125 2822 3475 
Q 2822 3834 2567 4026 
Q 2313 4219 1838 4219 
Q 1578 4219 1281 4162 
Q 984 4106 628 3988 
L 628 4550 
Q 988 4650 1302 4700 
Q 1616 4750 1894 4750 
Q 2613 4750 3031 4423 
Q 3450 4097 3450 3541 
Q 3450 3153 3228 2886 
Q 3006 2619 2597 2516 
z
" transform="scale(0.015625)"/>
        <path id="DejaVuSans-35" d="M 691 4666 
L 3169 4666 
L 3169 4134 
L 1269 4134 
L 1269 2991 
Q 1406 3038 1543 3061 
Q 1681 3084 1819 3084 
Q 2600 3084 3056 2656 
Q 3513 2228 3513 1497 
Q 3513 744 3044 326 
Q 2575 -91 1722 -91 
Q 1428 -91 1123 -41 
Q 819 9 494 109 
L 494 744 
Q 775 591 1075 516 
Q 1375 441 1709 441 
Q 2250 441 2565 725 
Q 2881 1009 2881 1497 
Q 2881 1984 2565 2268 
Q 2250 2553 1709 2553 
Q 1456 2553 1204 2497 
Q 953 2441 691 2322 
L 691 4666 
z
" transform="scale(0.015625)"/>
       </defs>
       <use xlink:href="#DejaVuSans-2212"/>
       <use xlink:href="#DejaVuSans-34" transform="translate(83.789062 0)"/>
       <use xlink:href="#DejaVuSans-38" transform="translate(147.412109 0)"/>
       <use xlink:href="#DejaVuSans-2e" transform="translate(211.035156 0)"/>
       <use xlink:href="#DejaVuSans-33" transform="translate(242.822266 0)"/>
       <use xlink:href="#DejaVuSans-35" transform="translate(306.445312 0)"/>
      </g>
     </g>
    </g>
    <g id="xtick_2">
     <g id="line2d_3">
      <path d="M 284.38647 768.96 
L 284.38647 103.68 
" clip-path="url(#pb8997613c1)" style="fill: none; stroke: #b0b0b0; stroke-width: 0.8; stroke-linecap: square"/>
     </g>
     <g id="line2d_4">
      <g>
       <use xlink:href="#md2b1cf6d59" x="284.38647" y="768.96" style="stroke: #000000; stroke-width: 0.8"/>
      </g>
     </g>
     <g id="text_2">
      <!-- 48.30 -->
      <g transform="translate(273.253406 807.501382) rotate(-45) scale(0.1 -0.1)">
       <defs>
        <path id="DejaVuSans-30" d="M 2034 4250 
Q 1547 4250 1301 3770 
Q 1056 3291 1056 2328 
Q 1056 1369 1301 889 
Q 1547 409 2034 409 
Q 2525 409 2770 889 
Q 3016 1369 3016 2328 
Q 3016 3291 2770 3770 
Q 2525 4250 2034 4250 
z
M 2034 4750 
Q 2819 4750 3233 4129 
Q 3647 3509 3647 2328 
Q 3647 1150 3233 529 
Q 2819 -91 2034 -91 
Q 1250 -91 836 529 
Q 422 1150 422 2328 
Q 422 3509 836 4129 
Q 1250 4750 2034 4750 
z
" transform="scale(0.015625)"/>
       </defs>
       <use xlink:href="#DejaVuSans-2212"/>
       <use xlink:href="#DejaVuSans-34" transform="translate(83.789062 0)"/>
       <use xlink:href="#DejaVuSans-38" transform="translate(147.412109 0)"/>
       <use xlink:href="#DejaVuSans-2e" transform="translate(211.035156 0)"/>
       <use xlink:href="#DejaVuSans-33" transform="translate(242.822266 0)"/>
       <use xlink:href="#DejaVuSans-30" transform="translate(306.445312 0)"/>
      </g>
     </g>
    </g>
    <g id="xtick_3">
     <g id="line2d_5">
      <path d="M 325.123556 768.96 
L 325.123556 103.68 
" clip-path="url(#pb8997613c1)" style="fill: none; stroke: #b0b0b0; stroke-width: 0.8; stroke-linecap: square"/>
     </g>
     <g id="line2d_6">
      <g>
       <use xlink:href="#md2b1cf6d59" x="325.123556" y="768.96" style="stroke: #000000; stroke-width: 0.8"/>
      </g>
     </g>
     <g id="text_3">
      <!-- 48.25 -->
      <g transform="translate(313.990491 807.501382) rotate(-45) scale(0.1 -0.1)">
       <defs>
        <path id="DejaVuSans-32" d="M 1228 531 
L 3431 531 
L 3431 0 
L 469 0 
L 469 531 
Q 828 903 1448 1529 
Q 2069 2156 2228 2338 
Q 2531 2678 2651 2914 
Q 2772 3150 2772 3378 
Q 2772 3750 2511 3984 
Q 2250 4219 1831 4219 
Q 1534 4219 1204 4116 
Q 875 4013 500 3803 
L 500 4441 
Q 881 4594 1212 4672 
Q 1544 4750 1819 4750 
Q 2544 4750 2975 4387 
Q 3406 4025 3406 3419 
Q 3406 3131 3298 2873 
Q 3191 2616 2906 2266 
Q 2828 2175 2409 1742 
Q 1991 1309 1228 531 
z
" transform="scale(0.015625)"/>
       </defs>
       <use xlink:href="#DejaVuSans-2212"/>
       <use xlink:href="#DejaVuSans-34" transform="translate(83.789062 0)"/>
       <use xlink:href="#DejaVuSans-38" transform="translate(147.412109 0)"/>
       <use xlink:href="#DejaVuSans-2e" transform="translate(211.035156 0)"/>
       <use xlink:href="#DejaVuSans-32" transform="translate(242.822266 0)"/>
       <use xlink:href="#DejaVuSans-35" transform="translate(306.445312 0)"/>
      </g>
     </g>
    </g>
    <g id="xtick_4">
     <g id="line2d_7">
      <path d="M 365.860641 768.96 
L 365.860641 103.68 
" clip-path="url(#pb8997613c1)" style="fill: none; stroke: #b0b0b0; stroke-width: 0.8; stroke-linecap: square"/>
     </g>
     <g id="line2d_8">
      <g>
       <use xlink:href="#md2b1cf6d59" x="365.860641" y="768.96" style="stroke: #000000; stroke-width: 0.8"/>
      </g>
     </g>
     <g id="text_4">
      <!-- 48.20 -->
      <g transform="translate(354.727577 807.501382) rotate(-45) scale(0.1 -0.1)">
       <use xlink:href="#DejaVuSans-2212"/>
       <use xlink:href="#DejaVuSans-34" transform="translate(83.789062 0)"/>
       <use xlink:href="#DejaVuSans-38" transform="translate(147.412109 0)"/>
       <use xlink:href="#DejaVuSans-2e" transform="translate(211.035156 0)"/>
       <use xlink:href="#DejaVuSans-32" transform="translate(242.822266 0)"/>
       <use xlink:href="#DejaVuSans-30" transform="translate(306.445312 0)"/>
      </g>
     </g>
    </g>
    <g id="xtick_5">
     <g id="line2d_9">
      <path d="M 406.597727 768.96 
L 406.597727 103.68 
" clip-path="url(#pb8997613c1)" style="fill: none; stroke: #b0b0b0; stroke-width: 0.8; stroke-linecap: square"/>
     </g>
     <g id="line2d_10">
      <g>
       <use xlink:href="#md2b1cf6d59" x="406.597727" y="768.96" style="stroke: #000000; stroke-width: 0.8"/>
      </g>
     </g>
     <g id="text_5">
      <!-- 48.15 -->
      <g transform="translate(395.464662 807.501382) rotate(-45) scale(0.1 -0.1)">
       <defs>
        <path id="DejaVuSans-31" d="M 794 531 
L 1825 531 
L 1825 4091 
L 703 3866 
L 703 4441 
L 1819 4666 
L 2450 4666 
L 2450 531 
L 3481 531 
L 3481 0 
L 794 0 
L 794 531 
z
" transform="scale(0.015625)"/>
       </defs>
       <use xlink:href="#DejaVuSans-2212"/>
       <use xlink:href="#DejaVuSans-34" transform="translate(83.789062 0)"/>
       <use xlink:href="#DejaVuSans-38" transform="translate(147.412109 0)"/>
       <use xlink:href="#DejaVuSans-2e" transform="translate(211.035156 0)"/>
       <use xlink:href="#DejaVuSans-31" transform="translate(242.822266 0)"/>
       <use xlink:href="#DejaVuSans-35" transform="translate(306.445312 0)"/>
      </g>
     </g>
    </g>
    <g id="xtick_6">
     <g id="line2d_11">
      <path d="M 447.334812 768.96 
L 447.334812 103.68 
" clip-path="url(#pb8997613c1)" style="fill: none; stroke: #b0b0b0; stroke-width: 0.8; stroke-linecap: square"/>
     </g>
     <g id="line2d_12">
      <g>
       <use xlink:href="#md2b1cf6d59" x="447.334812" y="768.96" style="stroke: #000000; stroke-width: 0.8"/>
      </g>
     </g>
     <g id="text_6">
      <!-- 48.10 -->
      <g transform="translate(436.201747 807.501382) rotate(-45) scale(0.1 -0.1)">
       <use xlink:href="#DejaVuSans-2212"/>
       <use xlink:href="#DejaVuSans-34" transform="translate(83.789062 0)"/>
       <use xlink:href="#DejaVuSans-38" transform="translate(147.412109 0)"/>
       <use xlink:href="#DejaVuSans-2e" transform="translate(211.035156 0)"/>
       <use xlink:href="#DejaVuSans-31" transform="translate(242.822266 0)"/>
       <use xlink:href="#DejaVuSans-30" transform="translate(306.445312 0)"/>
      </g>
     </g>
    </g>
    <g id="xtick_7">
     <g id="line2d_13">
      <path d="M 488.071898 768.96 
L 488.071898 103.68 
" clip-path="url(#pb8997613c1)" style="fill: none; stroke: #b0b0b0; stroke-width: 0.8; stroke-linecap: square"/>
     </g>
     <g id="line2d_14">
      <g>
       <use xlink:href="#md2b1cf6d59" x="488.071898" y="768.96" style="stroke: #000000; stroke-width: 0.8"/>
      </g>
     </g>
     <g id="text_7">
      <!-- 48.05 -->
      <g transform="translate(476.938833 807.501382) rotate(-45) scale(0.1 -0.1)">
       <use xlink:href="#DejaVuSans-2212"/>
       <use xlink:href="#DejaVuSans-34" transform="translate(83.789062 0)"/>
       <use xlink:href="#DejaVuSans-38" transform="translate(147.412109 0)"/>
       <use xlink:href="#DejaVuSans-2e" transform="translate(211.035156 0)"/>
       <use xlink:href="#DejaVuSans-30" transform="translate(242.822266 0)"/>
       <use xlink:href="#DejaVuSans-35" transform="translate(306.445312 0)"/>
      </g>
     </g>
    </g>
    <g id="text_8">
     <!-- Longitude () -->
     <g transform="translate(336.139844 820.57038) scale(0.1 -0.1)">
      <defs>
       <path id="DejaVuSans-4c" d="M 628 4666 
L 1259 4666 
L 1259 531 
L 3531 531 
L 3531 0 
L 628 0 
L 628 4666 
z
" transform="scale(0.015625)"/>
       <path id="DejaVuSans-6f" d="M 1959 3097 
Q 1497 3097 1228 2736 
Q 959 2375 959 1747 
Q 959 1119 1226 758 
Q 1494 397 1959 397 
Q 2419 397 2687 759 
Q 2956 1122 2956 1747 
Q 2956 2369 2687 2733 
Q 2419 3097 1959 3097 
z
M 1959 3584 
Q 2709 3584 3137 3096 
Q 3566 2609 3566 1747 
Q 3566 888 3137 398 
Q 2709 -91 1959 -91 
Q 1206 -91 779 398 
Q 353 888 353 1747 
Q 353 2609 779 3096 
Q 1206 3584 1959 3584 
z
" transform="scale(0.015625)"/>
       <path id="DejaVuSans-6e" d="M 3513 2113 
L 3513 0 
L 2938 0 
L 2938 2094 
Q 2938 2591 2744 2837 
Q 2550 3084 2163 3084 
Q 1697 3084 1428 2787 
Q 1159 2491 1159 1978 
L 1159 0 
L 581 0 
L 581 3500 
L 1159 3500 
L 1159 2956 
Q 1366 3272 1645 3428 
Q 1925 3584 2291 3584 
Q 2894 3584 3203 3211 
Q 3513 2838 3513 2113 
z
" transform="scale(0.015625)"/>
       <path id="DejaVuSans-67" d="M 2906 1791 
Q 2906 2416 2648 2759 
Q 2391 3103 1925 3103 
Q 1463 3103 1205 2759 
Q 947 2416 947 1791 
Q 947 1169 1205 825 
Q 1463 481 1925 481 
Q 2391 481 2648 825 
Q 2906 1169 2906 1791 
z
M 3481 434 
Q 3481 -459 3084 -895 
Q 2688 -1331 1869 -1331 
Q 1566 -1331 1297 -1286 
Q 1028 -1241 775 -1147 
L 775 -588 
Q 1028 -725 1275 -790 
Q 1522 -856 1778 -856 
Q 2344 -856 2625 -561 
Q 2906 -266 2906 331 
L 2906 616 
Q 2728 306 2450 153 
Q 2172 0 1784 0 
Q 1141 0 747 490 
Q 353 981 353 1791 
Q 353 2603 747 3093 
Q 1141 3584 1784 3584 
Q 2172 3584 2450 3431 
Q 2728 3278 2906 2969 
L 2906 3500 
L 3481 3500 
L 3481 434 
z
" transform="scale(0.015625)"/>
       <path id="DejaVuSans-69" d="M 603 3500 
L 1178 3500 
L 1178 0 
L 603 0 
L 603 3500 
z
M 603 4863 
L 1178 4863 
L 1178 4134 
L 603 4134 
L 603 4863 
z
" transform="scale(0.015625)"/>
       <path id="DejaVuSans-74" d="M 1172 4494 
L 1172 3500 
L 2356 3500 
L 2356 3053 
L 1172 3053 
L 1172 1153 
Q 1172 725 1289 603 
Q 1406 481 1766 481 
L 2356 481 
L 2356 0 
L 1766 0 
Q 1100 0 847 248 
Q 594 497 594 1153 
L 594 3053 
L 172 3053 
L 172 3500 
L 594 3500 
L 594 4494 
L 1172 4494 
z
" transform="scale(0.015625)"/>
       <path id="DejaVuSans-75" d="M 544 1381 
L 544 3500 
L 1119 3500 
L 1119 1403 
Q 1119 906 1312 657 
Q 1506 409 1894 409 
Q 2359 409 2629 706 
Q 2900 1003 2900 1516 
L 2900 3500 
L 3475 3500 
L 3475 0 
L 2900 0 
L 2900 538 
Q 2691 219 2414 64 
Q 2138 -91 1772 -91 
Q 1169 -91 856 284 
Q 544 659 544 1381 
z
M 1991 3584 
L 1991 3584 
z
" transform="scale(0.015625)"/>
       <path id="DejaVuSans-64" d="M 2906 2969 
L 2906 4863 
L 3481 4863 
L 3481 0 
L 2906 0 
L 2906 525 
Q 2725 213 2448 61 
Q 2172 -91 1784 -91 
Q 1150 -91 751 415 
Q 353 922 353 1747 
Q 353 2572 751 3078 
Q 1150 3584 1784 3584 
Q 2172 3584 2448 3432 
Q 2725 3281 2906 2969 
z
M 947 1747 
Q 947 1113 1208 752 
Q 1469 391 1925 391 
Q 2381 391 2643 752 
Q 2906 1113 2906 1747 
Q 2906 2381 2643 2742 
Q 2381 3103 1925 3103 
Q 1469 3103 1208 2742 
Q 947 2381 947 1747 
z
" transform="scale(0.015625)"/>
       <path id="DejaVuSans-65" d="M 3597 1894 
L 3597 1613 
L 953 1613 
Q 991 1019 1311 708 
Q 1631 397 2203 397 
Q 2534 397 2845 478 
Q 3156 559 3463 722 
L 3463 178 
Q 3153 47 2828 -22 
Q 2503 -91 2169 -91 
Q 1331 -91 842 396 
Q 353 884 353 1716 
Q 353 2575 817 3079 
Q 1281 3584 2069 3584 
Q 2775 3584 3186 3129 
Q 3597 2675 3597 1894 
z
M 3022 2063 
Q 3016 2534 2758 2815 
Q 2500 3097 2075 3097 
Q 1594 3097 1305 2825 
Q 1016 2553 972 2059 
L 3022 2063 
z
" transform="scale(0.015625)"/>
       <path id="DejaVuSans-20" transform="scale(0.015625)"/>
       <path id="DejaVuSans-28" d="M 1984 4856 
Q 1566 4138 1362 3434 
Q 1159 2731 1159 2009 
Q 1159 1288 1364 580 
Q 1569 -128 1984 -844 
L 1484 -844 
Q 1016 -109 783 600 
Q 550 1309 550 2009 
Q 550 2706 781 3412 
Q 1013 4119 1484 4856 
L 1984 4856 
z
" transform="scale(0.015625)"/>
       <path id="DejaVuSans-b0" d="M 1600 4347 
Q 1350 4347 1178 4173 
Q 1006 4000 1006 3750 
Q 1006 3503 1178 3333 
Q 1350 3163 1600 3163 
Q 1850 3163 2022 3333 
Q 2194 3503 2194 3750 
Q 2194 3997 2020 4172 
Q 1847 4347 1600 4347 
z
M 1600 4750 
Q 1800 4750 1984 4673 
Q 2169 4597 2303 4453 
Q 2447 4313 2519 4134 
Q 2591 3956 2591 3750 
Q 2591 3338 2302 3052 
Q 2013 2766 1594 2766 
Q 1172 2766 890 3047 
Q 609 3328 609 3750 
Q 609 4169 896 4459 
Q 1184 4750 1600 4750 
z
" transform="scale(0.015625)"/>
       <path id="DejaVuSans-29" d="M 513 4856 
L 1013 4856 
Q 1481 4119 1714 3412 
Q 1947 2706 1947 2009 
Q 1947 1309 1714 600 
Q 1481 -109 1013 -844 
L 513 -844 
Q 928 -128 1133 580 
Q 1338 1288 1338 2009 
Q 1338 2731 1133 3434 
Q 928 4138 513 4856 
z
" transform="scale(0.015625)"/>
      </defs>
      <use xlink:href="#DejaVuSans-4c"/>
      <use xlink:href="#DejaVuSans-6f" transform="translate(53.962891 0)"/>
      <use xlink:href="#DejaVuSans-6e" transform="translate(115.144531 0)"/>
      <use xlink:href="#DejaVuSans-67" transform="translate(178.523438 0)"/>
      <use xlink:href="#DejaVuSans-69" transform="translate(242 0)"/>
      <use xlink:href="#DejaVuSans-74" transform="translate(269.783203 0)"/>
      <use xlink:href="#DejaVuSans-75" transform="translate(308.992188 0)"/>
      <use xlink:href="#DejaVuSans-64" transform="translate(372.371094 0)"/>
      <use xlink:href="#DejaVuSans-65" transform="translate(435.847656 0)"/>
      <use xlink:href="#DejaVuSans-20" transform="translate(497.371094 0)"/>
      <use xlink:href="#DejaVuSans-28" transform="translate(529.158203 0)"/>
      <use xlink:href="#DejaVuSans-b0" transform="translate(568.171875 0)"/>
      <use xlink:href="#DejaVuSans-29" transform="translate(618.171875 0)"/>
     </g>
    </g>
   </g>
   <g id="matplotlib.axis_2">
    <g id="ytick_1">
     <g id="line2d_15">
      <path d="M 220.314922 703.948813 
L 517.685078 703.948813 
" clip-path="url(#pb8997613c1)" style="fill: none; stroke: #b0b0b0; stroke-width: 0.8; stroke-linecap: square"/>
     </g>
     <g id="line2d_16">
      <defs>
       <path id="m9ef7a28b37" d="M 0 0 
L -3.5 0 
" style="stroke: #000000; stroke-width: 0.8"/>
      </defs>
      <g>
       <use xlink:href="#m9ef7a28b37" x="220.314922" y="703.948813" style="stroke: #000000; stroke-width: 0.8"/>
      </g>
     </g>
     <g id="text_9">
      <!-- 10.4 -->
      <g transform="translate(182.669609 707.748032) scale(0.1 -0.1)">
       <use xlink:href="#DejaVuSans-2212"/>
       <use xlink:href="#DejaVuSans-31" transform="translate(83.789062 0)"/>
       <use xlink:href="#DejaVuSans-30" transform="translate(147.412109 0)"/>
       <use xlink:href="#DejaVuSans-2e" transform="translate(211.035156 0)"/>
       <use xlink:href="#DejaVuSans-34" transform="translate(242.822266 0)"/>
      </g>
     </g>
    </g>
    <g id="ytick_2">
     <g id="line2d_17">
      <path d="M 220.314922 621.250847 
L 517.685078 621.250847 
" clip-path="url(#pb8997613c1)" style="fill: none; stroke: #b0b0b0; stroke-width: 0.8; stroke-linecap: square"/>
     </g>
     <g id="line2d_18">
      <g>
       <use xlink:href="#m9ef7a28b37" x="220.314922" y="621.250847" style="stroke: #000000; stroke-width: 0.8"/>
      </g>
     </g>
     <g id="text_10">
      <!-- 10.3 -->
      <g transform="translate(182.669609 625.050065) scale(0.1 -0.1)">
       <use xlink:href="#DejaVuSans-2212"/>
       <use xlink:href="#DejaVuSans-31" transform="translate(83.789062 0)"/>
       <use xlink:href="#DejaVuSans-30" transform="translate(147.412109 0)"/>
       <use xlink:href="#DejaVuSans-2e" transform="translate(211.035156 0)"/>
       <use xlink:href="#DejaVuSans-33" transform="translate(242.822266 0)"/>
      </g>
     </g>
    </g>
    <g id="ytick_3">
     <g id="line2d_19">
      <path d="M 220.314922 538.55288 
L 517.685078 538.55288 
" clip-path="url(#pb8997613c1)" style="fill: none; stroke: #b0b0b0; stroke-width: 0.8; stroke-linecap: square"/>
     </g>
     <g id="line2d_20">
      <g>
       <use xlink:href="#m9ef7a28b37" x="220.314922" y="538.55288" style="stroke: #000000; stroke-width: 0.8"/>
      </g>
     </g>
     <g id="text_11">
      <!-- 10.2 -->
      <g transform="translate(182.669609 542.352099) scale(0.1 -0.1)">
       <use xlink:href="#DejaVuSans-2212"/>
       <use xlink:href="#DejaVuSans-31" transform="translate(83.789062 0)"/>
       <use xlink:href="#DejaVuSans-30" transform="translate(147.412109 0)"/>
       <use xlink:href="#DejaVuSans-2e" transform="translate(211.035156 0)"/>
       <use xlink:href="#DejaVuSans-32" transform="translate(242.822266 0)"/>
      </g>
     </g>
    </g>
    <g id="ytick_4">
     <g id="line2d_21">
      <path d="M 220.314922 455.854914 
L 517.685078 455.854914 
" clip-path="url(#pb8997613c1)" style="fill: none; stroke: #b0b0b0; stroke-width: 0.8; stroke-linecap: square"/>
     </g>
     <g id="line2d_22">
      <g>
       <use xlink:href="#m9ef7a28b37" x="220.314922" y="455.854914" style="stroke: #000000; stroke-width: 0.8"/>
      </g>
     </g>
     <g id="text_12">
      <!-- 10.1 -->
      <g transform="translate(182.669609 459.654132) scale(0.1 -0.1)">
       <use xlink:href="#DejaVuSans-2212"/>
       <use xlink:href="#DejaVuSans-31" transform="translate(83.789062 0)"/>
       <use xlink:href="#DejaVuSans-30" transform="translate(147.412109 0)"/>
       <use xlink:href="#DejaVuSans-2e" transform="translate(211.035156 0)"/>
       <use xlink:href="#DejaVuSans-31" transform="translate(242.822266 0)"/>
      </g>
     </g>
    </g>
    <g id="ytick_5">
     <g id="line2d_23">
      <path d="M 220.314922 373.156947 
L 517.685078 373.156947 
" clip-path="url(#pb8997613c1)" style="fill: none; stroke: #b0b0b0; stroke-width: 0.8; stroke-linecap: square"/>
     </g>
     <g id="line2d_24">
      <g>
       <use xlink:href="#m9ef7a28b37" x="220.314922" y="373.156947" style="stroke: #000000; stroke-width: 0.8"/>
      </g>
     </g>
     <g id="text_13">
      <!-- 10.0 -->
      <g transform="translate(182.669609 376.956166) scale(0.1 -0.1)">
       <use xlink:href="#DejaVuSans-2212"/>
       <use xlink:href="#DejaVuSans-31" transform="translate(83.789062 0)"/>
       <use xlink:href="#DejaVuSans-30" transform="translate(147.412109 0)"/>
       <use xlink:href="#DejaVuSans-2e" transform="translate(211.035156 0)"/>
       <use xlink:href="#DejaVuSans-30" transform="translate(242.822266 0)"/>
      </g>
     </g>
    </g>
    <g id="ytick_6">
     <g id="line2d_25">
      <path d="M 220.314922 290.458981 
L 517.685078 290.458981 
" clip-path="url(#pb8997613c1)" style="fill: none; stroke: #b0b0b0; stroke-width: 0.8; stroke-linecap: square"/>
     </g>
     <g id="line2d_26">
      <g>
       <use xlink:href="#m9ef7a28b37" x="220.314922" y="290.458981" style="stroke: #000000; stroke-width: 0.8"/>
      </g>
     </g>
     <g id="text_14">
      <!-- 9.9 -->
      <g transform="translate(189.032109 294.258199) scale(0.1 -0.1)">
       <defs>
        <path id="DejaVuSans-39" d="M 703 97 
L 703 672 
Q 941 559 1184 500 
Q 1428 441 1663 441 
Q 2288 441 2617 861 
Q 2947 1281 2994 2138 
Q 2813 1869 2534 1725 
Q 2256 1581 1919 1581 
Q 1219 1581 811 2004 
Q 403 2428 403 3163 
Q 403 3881 828 4315 
Q 1253 4750 1959 4750 
Q 2769 4750 3195 4129 
Q 3622 3509 3622 2328 
Q 3622 1225 3098 567 
Q 2575 -91 1691 -91 
Q 1453 -91 1209 -44 
Q 966 3 703 97 
z
M 1959 2075 
Q 2384 2075 2632 2365 
Q 2881 2656 2881 3163 
Q 2881 3666 2632 3958 
Q 2384 4250 1959 4250 
Q 1534 4250 1286 3958 
Q 1038 3666 1038 3163 
Q 1038 2656 1286 2365 
Q 1534 2075 1959 2075 
z
" transform="scale(0.015625)"/>
       </defs>
       <use xlink:href="#DejaVuSans-2212"/>
       <use xlink:href="#DejaVuSans-39" transform="translate(83.789062 0)"/>
       <use xlink:href="#DejaVuSans-2e" transform="translate(147.412109 0)"/>
       <use xlink:href="#DejaVuSans-39" transform="translate(179.199219 0)"/>
      </g>
     </g>
    </g>
    <g id="ytick_7">
     <g id="line2d_27">
      <path d="M 220.314922 207.761014 
L 517.685078 207.761014 
" clip-path="url(#pb8997613c1)" style="fill: none; stroke: #b0b0b0; stroke-width: 0.8; stroke-linecap: square"/>
     </g>
     <g id="line2d_28">
      <g>
       <use xlink:href="#m9ef7a28b37" x="220.314922" y="207.761014" style="stroke: #000000; stroke-width: 0.8"/>
      </g>
     </g>
     <g id="text_15">
      <!-- 9.8 -->
      <g transform="translate(189.032109 211.560233) scale(0.1 -0.1)">
       <use xlink:href="#DejaVuSans-2212"/>
       <use xlink:href="#DejaVuSans-39" transform="translate(83.789062 0)"/>
       <use xlink:href="#DejaVuSans-2e" transform="translate(147.412109 0)"/>
       <use xlink:href="#DejaVuSans-38" transform="translate(179.199219 0)"/>
      </g>
     </g>
    </g>
    <g id="ytick_8">
     <g id="line2d_29">
      <path d="M 220.314922 125.063048 
L 517.685078 125.063048 
" clip-path="url(#pb8997613c1)" style="fill: none; stroke: #b0b0b0; stroke-width: 0.8; stroke-linecap: square"/>
     </g>
     <g id="line2d_30">
      <g>
       <use xlink:href="#m9ef7a28b37" x="220.314922" y="125.063048" style="stroke: #000000; stroke-width: 0.8"/>
      </g>
     </g>
     <g id="text_16">
      <!-- 9.7 -->
      <g transform="translate(189.032109 128.862267) scale(0.1 -0.1)">
       <defs>
        <path id="DejaVuSans-37" d="M 525 4666 
L 3525 4666 
L 3525 4397 
L 1831 0 
L 1172 0 
L 2766 4134 
L 525 4134 
L 525 4666 
z
" transform="scale(0.015625)"/>
       </defs>
       <use xlink:href="#DejaVuSans-2212"/>
       <use xlink:href="#DejaVuSans-39" transform="translate(83.789062 0)"/>
       <use xlink:href="#DejaVuSans-2e" transform="translate(147.412109 0)"/>
       <use xlink:href="#DejaVuSans-37" transform="translate(179.199219 0)"/>
      </g>
     </g>
    </g>
    <g id="text_17">
     <!-- Latitude () -->
     <g transform="translate(176.589922 464.889531) rotate(-90) scale(0.1 -0.1)">
      <defs>
       <path id="DejaVuSans-61" d="M 2194 1759 
Q 1497 1759 1228 1600 
Q 959 1441 959 1056 
Q 959 750 1161 570 
Q 1363 391 1709 391 
Q 2188 391 2477 730 
Q 2766 1069 2766 1631 
L 2766 1759 
L 2194 1759 
z
M 3341 1997 
L 3341 0 
L 2766 0 
L 2766 531 
Q 2569 213 2275 61 
Q 1981 -91 1556 -91 
Q 1019 -91 701 211 
Q 384 513 384 1019 
Q 384 1609 779 1909 
Q 1175 2209 1959 2209 
L 2766 2209 
L 2766 2266 
Q 2766 2663 2505 2880 
Q 2244 3097 1772 3097 
Q 1472 3097 1187 3025 
Q 903 2953 641 2809 
L 641 3341 
Q 956 3463 1253 3523 
Q 1550 3584 1831 3584 
Q 2591 3584 2966 3190 
Q 3341 2797 3341 1997 
z
" transform="scale(0.015625)"/>
      </defs>
      <use xlink:href="#DejaVuSans-4c"/>
      <use xlink:href="#DejaVuSans-61" transform="translate(55.712891 0)"/>
      <use xlink:href="#DejaVuSans-74" transform="translate(116.992188 0)"/>
      <use xlink:href="#DejaVuSans-69" transform="translate(156.201172 0)"/>
      <use xlink:href="#DejaVuSans-74" transform="translate(183.984375 0)"/>
      <use xlink:href="#DejaVuSans-75" transform="translate(223.193359 0)"/>
      <use xlink:href="#DejaVuSans-64" transform="translate(286.572266 0)"/>
      <use xlink:href="#DejaVuSans-65" transform="translate(350.048828 0)"/>
      <use xlink:href="#DejaVuSans-20" transform="translate(411.572266 0)"/>
      <use xlink:href="#DejaVuSans-28" transform="translate(443.359375 0)"/>
      <use xlink:href="#DejaVuSans-b0" transform="translate(482.373047 0)"/>
      <use xlink:href="#DejaVuSans-29" transform="translate(532.373047 0)"/>
     </g>
    </g>
   </g>
   <g id="patch_3">
    <path d="M 220.314922 768.96 
L 220.314922 103.68 
" style="fill: none; stroke: #000000; stroke-width: 0.8; stroke-linejoin: miter; stroke-linecap: square"/>
   </g>
   <g id="patch_4">
    <path d="M 517.685078 768.96 
L 517.685078 103.68 
" style="fill: none; stroke: #000000; stroke-width: 0.8; stroke-linejoin: miter; stroke-linecap: square"/>
   </g>
   <g id="patch_5">
    <path d="M 220.314922 768.96 
L 517.685078 768.96 
" style="fill: none; stroke: #000000; stroke-width: 0.8; stroke-linejoin: miter; stroke-linecap: square"/>
   </g>
   <g id="patch_6">
    <path d="M 220.314922 103.68 
L 517.685078 103.68 
" style="fill: none; stroke: #000000; stroke-width: 0.8; stroke-linejoin: miter; stroke-linecap: square"/>
   </g>
   <g id="legend_1">
    <g id="patch_7">
     <path d="M 220.723437 926.291 
L 517.276562 926.291 
Q 519.276562 926.291 519.276562 924.291 
L 519.276562 909.016 
Q 519.276562 907.016 517.276562 907.016 
L 220.723437 907.016 
Q 218.723437 907.016 218.723437 909.016 
L 218.723437 924.291 
Q 218.723437 926.291 220.723437 926.291 
z
" style="fill: #ffffff; opacity: 0.8; stroke: #cccccc; stroke-linejoin: miter"/>
    </g>
    <g id="line2d_31">
     <defs>
      <path id="m9096d449c1" d="M 0 5 
C 1.326016 5 2.597899 4.473168 3.535534 3.535534 
C 4.473168 2.597899 5 1.326016 5 0 
C 5 -1.326016 4.473168 -2.597899 3.535534 -3.535534 
C 2.597899 -4.473168 1.326016 -5 0 -5 
C -1.326016 -5 -2.597899 -4.473168 -3.535534 -3.535534 
C -4.473168 -2.597899 -5 -1.326016 -5 0 
C -5 1.326016 -4.473168 2.597899 -3.535534 3.535534 
C -2.597899 4.473168 -1.326016 5 0 5 
z
"/>
     </defs>
     <g>
      <use xlink:href="#m9096d449c1" x="232.723437" y="916.711313" style="fill: #b3e2cd; fill-opacity: 0.65"/>
     </g>
    </g>
    <g id="text_18">
     <!-- REA DE PROTEO AMBIENTAL SERRA DO LAJEADO -->
     <g transform="translate(250.723437 920.211313) scale(0.1 -0.1)">
      <defs>
       <path id="DejaVuSans-c1" d="M 2188 4044 
L 1331 1722 
L 3047 1722 
L 2188 4044 
z
M 1831 4666 
L 2547 4666 
L 4325 0 
L 3669 0 
L 3244 1197 
L 1141 1197 
L 716 0 
L 50 0 
L 1831 4666 
z
M 2359 5935 
L 2938 5935 
L 2225 5110 
L 1747 5110 
L 2359 5935 
z
" transform="scale(0.015625)"/>
       <path id="DejaVuSans-52" d="M 2841 2188 
Q 3044 2119 3236 1894 
Q 3428 1669 3622 1275 
L 4263 0 
L 3584 0 
L 2988 1197 
Q 2756 1666 2539 1819 
Q 2322 1972 1947 1972 
L 1259 1972 
L 1259 0 
L 628 0 
L 628 4666 
L 2053 4666 
Q 2853 4666 3247 4331 
Q 3641 3997 3641 3322 
Q 3641 2881 3436 2590 
Q 3231 2300 2841 2188 
z
M 1259 4147 
L 1259 2491 
L 2053 2491 
Q 2509 2491 2742 2702 
Q 2975 2913 2975 3322 
Q 2975 3731 2742 3939 
Q 2509 4147 2053 4147 
L 1259 4147 
z
" transform="scale(0.015625)"/>
       <path id="DejaVuSans-45" d="M 628 4666 
L 3578 4666 
L 3578 4134 
L 1259 4134 
L 1259 2753 
L 3481 2753 
L 3481 2222 
L 1259 2222 
L 1259 531 
L 3634 531 
L 3634 0 
L 628 0 
L 628 4666 
z
" transform="scale(0.015625)"/>
       <path id="DejaVuSans-41" d="M 2188 4044 
L 1331 1722 
L 3047 1722 
L 2188 4044 
z
M 1831 4666 
L 2547 4666 
L 4325 0 
L 3669 0 
L 3244 1197 
L 1141 1197 
L 716 0 
L 50 0 
L 1831 4666 
z
" transform="scale(0.015625)"/>
       <path id="DejaVuSans-44" d="M 1259 4147 
L 1259 519 
L 2022 519 
Q 2988 519 3436 956 
Q 3884 1394 3884 2338 
Q 3884 3275 3436 3711 
Q 2988 4147 2022 4147 
L 1259 4147 
z
M 628 4666 
L 1925 4666 
Q 3281 4666 3915 4102 
Q 4550 3538 4550 2338 
Q 4550 1131 3912 565 
Q 3275 0 1925 0 
L 628 0 
L 628 4666 
z
" transform="scale(0.015625)"/>
       <path id="DejaVuSans-50" d="M 1259 4147 
L 1259 2394 
L 2053 2394 
Q 2494 2394 2734 2622 
Q 2975 2850 2975 3272 
Q 2975 3691 2734 3919 
Q 2494 4147 2053 4147 
L 1259 4147 
z
M 628 4666 
L 2053 4666 
Q 2838 4666 3239 4311 
Q 3641 3956 3641 3272 
Q 3641 2581 3239 2228 
Q 2838 1875 2053 1875 
L 1259 1875 
L 1259 0 
L 628 0 
L 628 4666 
z
" transform="scale(0.015625)"/>
       <path id="DejaVuSans-4f" d="M 2522 4238 
Q 1834 4238 1429 3725 
Q 1025 3213 1025 2328 
Q 1025 1447 1429 934 
Q 1834 422 2522 422 
Q 3209 422 3611 934 
Q 4013 1447 4013 2328 
Q 4013 3213 3611 3725 
Q 3209 4238 2522 4238 
z
M 2522 4750 
Q 3503 4750 4090 4092 
Q 4678 3434 4678 2328 
Q 4678 1225 4090 567 
Q 3503 -91 2522 -91 
Q 1538 -91 948 565 
Q 359 1222 359 2328 
Q 359 3434 948 4092 
Q 1538 4750 2522 4750 
z
" transform="scale(0.015625)"/>
       <path id="DejaVuSans-54" d="M -19 4666 
L 3928 4666 
L 3928 4134 
L 2272 4134 
L 2272 0 
L 1638 0 
L 1638 4134 
L -19 4134 
L -19 4666 
z
" transform="scale(0.015625)"/>
       <path id="DejaVuSans-c7" d="M 4122 4306 
L 4122 3641 
Q 3803 3938 3442 4084 
Q 3081 4231 2675 4231 
Q 1875 4231 1450 3742 
Q 1025 3253 1025 2328 
Q 1025 1406 1450 917 
Q 1875 428 2675 428 
Q 3081 428 3442 575 
Q 3803 722 4122 1019 
L 4122 359 
Q 3791 134 3420 21 
Q 3050 -91 2638 -91 
Q 1578 -91 968 557 
Q 359 1206 359 2328 
Q 359 3453 968 4101 
Q 1578 4750 2638 4750 
Q 3056 4750 3426 4639 
Q 3797 4528 4122 4306 
z
M 2803 0 
Q 2975 -194 3059 -358 
Q 3144 -522 3144 -672 
Q 3144 -950 2956 -1092 
Q 2769 -1234 2400 -1234 
Q 2256 -1234 2120 -1215 
Q 1984 -1197 1850 -1159 
L 1850 -750 
Q 1956 -803 2072 -826 
Q 2188 -850 2334 -850 
Q 2519 -850 2612 -775 
Q 2706 -700 2706 -556 
Q 2706 -463 2639 -327 
Q 2572 -191 2431 0 
L 2803 0 
z
" transform="scale(0.015625)"/>
       <path id="DejaVuSans-c3" d="M 2188 4044 
L 1331 1722 
L 3047 1722 
L 2188 4044 
z
M 1831 4666 
L 2547 4666 
L 4325 0 
L 3669 0 
L 3244 1197 
L 1141 1197 
L 716 0 
L 50 0 
L 1831 4666 
z
M 2175 5344 
L 1997 5447 
Q 1919 5491 1870 5508 
Q 1822 5525 1784 5525 
Q 1672 5525 1609 5447 
Q 1547 5369 1547 5229 
L 1547 5210 
L 1156 5210 
Q 1156 5525 1317 5709 
Q 1478 5894 1747 5894 
Q 1859 5894 1954 5869 
Q 2050 5844 2200 5760 
L 2378 5666 
Q 2450 5625 2503 5606 
Q 2556 5588 2603 5588 
Q 2703 5588 2765 5667 
Q 2828 5747 2828 5875 
L 2828 5894 
L 3219 5894 
Q 3213 5582 3052 5396 
Q 2891 5210 2628 5210 
Q 2522 5210 2430 5235 
Q 2338 5260 2175 5344 
z
" transform="scale(0.015625)"/>
       <path id="DejaVuSans-4d" d="M 628 4666 
L 1569 4666 
L 2759 1491 
L 3956 4666 
L 4897 4666 
L 4897 0 
L 4281 0 
L 4281 4097 
L 3078 897 
L 2444 897 
L 1241 4097 
L 1241 0 
L 628 0 
L 628 4666 
z
" transform="scale(0.015625)"/>
       <path id="DejaVuSans-42" d="M 1259 2228 
L 1259 519 
L 2272 519 
Q 2781 519 3026 730 
Q 3272 941 3272 1375 
Q 3272 1813 3026 2020 
Q 2781 2228 2272 2228 
L 1259 2228 
z
M 1259 4147 
L 1259 2741 
L 2194 2741 
Q 2656 2741 2882 2914 
Q 3109 3088 3109 3444 
Q 3109 3797 2882 3972 
Q 2656 4147 2194 4147 
L 1259 4147 
z
M 628 4666 
L 2241 4666 
Q 2963 4666 3353 4366 
Q 3744 4066 3744 3513 
Q 3744 3084 3544 2831 
Q 3344 2578 2956 2516 
Q 3422 2416 3680 2098 
Q 3938 1781 3938 1306 
Q 3938 681 3513 340 
Q 3088 0 2303 0 
L 628 0 
L 628 4666 
z
" transform="scale(0.015625)"/>
       <path id="DejaVuSans-49" d="M 628 4666 
L 1259 4666 
L 1259 0 
L 628 0 
L 628 4666 
z
" transform="scale(0.015625)"/>
       <path id="DejaVuSans-4e" d="M 628 4666 
L 1478 4666 
L 3547 763 
L 3547 4666 
L 4159 4666 
L 4159 0 
L 3309 0 
L 1241 3903 
L 1241 0 
L 628 0 
L 628 4666 
z
" transform="scale(0.015625)"/>
       <path id="DejaVuSans-53" d="M 3425 4513 
L 3425 3897 
Q 3066 4069 2747 4153 
Q 2428 4238 2131 4238 
Q 1616 4238 1336 4038 
Q 1056 3838 1056 3469 
Q 1056 3159 1242 3001 
Q 1428 2844 1947 2747 
L 2328 2669 
Q 3034 2534 3370 2195 
Q 3706 1856 3706 1288 
Q 3706 609 3251 259 
Q 2797 -91 1919 -91 
Q 1588 -91 1214 -16 
Q 841 59 441 206 
L 441 856 
Q 825 641 1194 531 
Q 1563 422 1919 422 
Q 2459 422 2753 634 
Q 3047 847 3047 1241 
Q 3047 1584 2836 1778 
Q 2625 1972 2144 2069 
L 1759 2144 
Q 1053 2284 737 2584 
Q 422 2884 422 3419 
Q 422 4038 858 4394 
Q 1294 4750 2059 4750 
Q 2388 4750 2728 4690 
Q 3069 4631 3425 4513 
z
" transform="scale(0.015625)"/>
       <path id="DejaVuSans-4a" d="M 628 4666 
L 1259 4666 
L 1259 325 
Q 1259 -519 939 -900 
Q 619 -1281 -91 -1281 
L -331 -1281 
L -331 -750 
L -134 -750 
Q 284 -750 456 -515 
Q 628 -281 628 325 
L 628 4666 
z
" transform="scale(0.015625)"/>
      </defs>
      <use xlink:href="#DejaVuSans-c1"/>
      <use xlink:href="#DejaVuSans-52" transform="translate(68.408203 0)"/>
      <use xlink:href="#DejaVuSans-45" transform="translate(137.890625 0)"/>
      <use xlink:href="#DejaVuSans-41" transform="translate(201.074219 0)"/>
      <use xlink:href="#DejaVuSans-20" transform="translate(269.482422 0)"/>
      <use xlink:href="#DejaVuSans-44" transform="translate(301.269531 0)"/>
      <use xlink:href="#DejaVuSans-45" transform="translate(378.271484 0)"/>
      <use xlink:href="#DejaVuSans-20" transform="translate(441.455078 0)"/>
      <use xlink:href="#DejaVuSans-50" transform="translate(473.242188 0)"/>
      <use xlink:href="#DejaVuSans-52" transform="translate(533.544922 0)"/>
      <use xlink:href="#DejaVuSans-4f" transform="translate(603.027344 0)"/>
      <use xlink:href="#DejaVuSans-54" transform="translate(681.738281 0)"/>
      <use xlink:href="#DejaVuSans-45" transform="translate(742.822266 0)"/>
      <use xlink:href="#DejaVuSans-c7" transform="translate(806.005859 0)"/>
      <use xlink:href="#DejaVuSans-c3" transform="translate(875.830078 0)"/>
      <use xlink:href="#DejaVuSans-4f" transform="translate(942.488281 0)"/>
      <use xlink:href="#DejaVuSans-20" transform="translate(1021.199219 0)"/>
      <use xlink:href="#DejaVuSans-41" transform="translate(1052.986328 0)"/>
      <use xlink:href="#DejaVuSans-4d" transform="translate(1121.394531 0)"/>
      <use xlink:href="#DejaVuSans-42" transform="translate(1207.673828 0)"/>
      <use xlink:href="#DejaVuSans-49" transform="translate(1276.277344 0)"/>
      <use xlink:href="#DejaVuSans-45" transform="translate(1305.769531 0)"/>
      <use xlink:href="#DejaVuSans-4e" transform="translate(1368.953125 0)"/>
      <use xlink:href="#DejaVuSans-54" transform="translate(1443.757812 0)"/>
      <use xlink:href="#DejaVuSans-41" transform="translate(1497.091797 0)"/>
      <use xlink:href="#DejaVuSans-4c" transform="translate(1565.5 0)"/>
      <use xlink:href="#DejaVuSans-20" transform="translate(1621.212891 0)"/>
      <use xlink:href="#DejaVuSans-53" transform="translate(1653 0)"/>
      <use xlink:href="#DejaVuSans-45" transform="translate(1716.476562 0)"/>
      <use xlink:href="#DejaVuSans-52" transform="translate(1779.660156 0)"/>
      <use xlink:href="#DejaVuSans-52" transform="translate(1849.142578 0)"/>
      <use xlink:href="#DejaVuSans-41" transform="translate(1914.625 0)"/>
      <use xlink:href="#DejaVuSans-20" transform="translate(1983.033203 0)"/>
      <use xlink:href="#DejaVuSans-44" transform="translate(2014.820312 0)"/>
      <use xlink:href="#DejaVuSans-4f" transform="translate(2091.822266 0)"/>
      <use xlink:href="#DejaVuSans-20" transform="translate(2170.533203 0)"/>
      <use xlink:href="#DejaVuSans-4c" transform="translate(2202.320312 0)"/>
      <use xlink:href="#DejaVuSans-41" transform="translate(2260.283203 0)"/>
      <use xlink:href="#DejaVuSans-4a" transform="translate(2328.691406 0)"/>
      <use xlink:href="#DejaVuSans-45" transform="translate(2358.183594 0)"/>
      <use xlink:href="#DejaVuSans-41" transform="translate(2421.367188 0)"/>
      <use xlink:href="#DejaVuSans-44" transform="translate(2489.775391 0)"/>
      <use xlink:href="#DejaVuSans-4f" transform="translate(2566.777344 0)"/>
     </g>
    </g>
   </g>
  </g>
 </g>
 <defs>
  <clipPath id="pb8997613c1">
   <rect x="220.314922" y="103.68" width="297.370156" height="665.28"/>
  </clipPath>
 </defs>
</svg>
