<?xml version="1.0" encoding="utf-8" standalone="no"?>
<!DOCTYPE svg PUBLIC "-//W3C//DTD SVG 1.1//EN"
  "http://www.w3.org/Graphics/SVG/1.1/DTD/svg11.dtd">
<svg xmlns:xlink="http://www.w3.org/1999/xlink" width="720pt" height="864pt" viewBox="0 0 720 864" xmlns="http://www.w3.org/2000/svg" version="1.1">
 <metadata>
  <rdf:RDF xmlns:dc="http://purl.org/dc/elements/1.1/" xmlns:cc="http://creativecommons.org/ns#" xmlns:rdf="http://www.w3.org/1999/02/22-rdf-syntax-ns#">
   <cc:Work>
    <dc:type rdf:resource="http://purl.org/dc/dcmitype/StillImage"/>
    <dc:date>2025-06-16T17:19:50.921651</dc:date>
    <dc:format>image/svg+xml</dc:format>
    <dc:creator>
     <cc:Agent>
      <dc:title>Matplotlib v3.10.1, https://matplotlib.org/</dc:title>
     </cc:Agent>
    </dc:creator>
   </cc:Work>
  </rdf:RDF>
 </metadata>
 <defs>
  <style type="text/css">*{stroke-linejoin: round; stroke-linecap: butt}</style>
 </defs>
 <g id="figure_1">
  <g id="patch_1">
   <path d="M 0 864 
L 720 864 
L 720 0 
L 0 0 
z
" style="fill: #ffffff"/>
  </g>
  <g id="axes_1">
   <g id="patch_2">
    <path d="M 90 750.427736 
L 648 750.427736 
L 648 122.212264 
L 90 122.212264 
z
" style="fill: #ffffff"/>
   </g>
   <g id="PatchCollection_1">
    <path d="M 552.680916 155.934155 
L 561.045274 181.78568 
L 562.301429 182.771027 
L 562.690015 182.729633 
L 563.068794 182.81082 
L 563.446622 182.427552 
L 563.716616 182.208423 
L 564.311546 182.20723 
L 564.71778 182.506946 
L 565.015554 182.670304 
L 565.366897 182.560305 
L 565.690859 182.286404 
L 566.502025 182.230141 
L 566.908042 182.420594 
L 567.205436 182.392647 
L 567.772851 182.145601 
L 568.124409 182.144892 
L 568.449346 182.362821 
L 569.396942 182.934714 
L 569.478458 183.125819 
L 570.425106 183.205846 
L 570.83096 183.314315 
L 571.237198 183.614052 
L 571.237581 183.80532 
L 571.075532 183.914941 
L 570.77896 184.352712 
L 573.591436 184.40165 
L 574.221724 184.526881 
L 574.411179 184.608471 
L 574.871333 184.826114 
L 574.764277 185.372791 
L 574.603332 186.028869 
L 574.87508 186.684095 
L 575.766274 186.08115 
L 576.305654 185.369635 
L 576.549827 185.751669 
L 577.253186 185.886832 
L 578.470422 186.048282 
L 579.065901 186.320267 
L 580.364905 186.809412 
L 580.771987 187.518975 
L 581.691915 187.762967 
L 581.63661 187.161969 
L 582.068518 186.778575 
L 582.717685 186.859173 
L 583.800658 187.485352 
L 585.531344 187.481753 
L 585.963774 187.371562 
L 586.774868 187.287928 
L 587.477041 186.849273 
L 589.125486 186.299381 
L 590.011752 185.610326 
L 593.554901 185.958098 
L 593.393829 186.532193 
L 593.396383 187.761706 
L 592.827503 187.27109 
L 592.422046 187.353918 
L 592.097947 187.545863 
L 592.396976 188.310254 
L 592.587 188.665066 
L 592.533717 189.047671 
L 591.966876 189.54068 
L 592.617064 190.113099 
L 592.86151 190.631712 
L 592.348973 191.233864 
L 591.943739 191.425982 
L 591.267797 191.482067 
L 589.834414 191.403109 
L 589.740222 191.621885 
L 589.64603 191.840661 
L 590.052855 192.413597 
L 590.269395 192.52243 
L 591.189876 193.012273 
L 591.838879 193.010904 
L 592.217174 192.873502 
L 592.7036 192.708558 
L 592.542245 193.146053 
L 592.245652 193.55652 
L 591.786849 193.994644 
L 590.786229 193.969442 
L 589.378042 193.01609 
L 588.512803 193.072569 
L 588.242096 192.936535 
L 588.025015 192.581776 
L 587.401733 191.954661 
L 586.968678 191.764304 
L 586.427435 191.574172 
L 585.806128 191.903372 
L 586.94484 193.321753 
L 586.945009 193.403727 
L 586.106426 193.26888 
L 586.270331 194.060878 
L 586.406052 194.30652 
L 586.731348 194.688335 
L 587.110159 194.796829 
L 587.569878 194.795864 
L 587.678942 195.232824 
L 588.004952 195.942503 
L 587.978577 196.270459 
L 587.925518 196.762356 
L 588.007333 197.090084 
L 588.17099 197.772788 
L 587.981753 197.800501 
L 587.636904 196.738082 
L 587.365457 196.246867 
L 586.931345 195.564696 
L 586.362506 195.101385 
L 585.848368 194.938544 
L 585.578674 195.294293 
L 585.579633 195.758796 
L 585.904592 195.976694 
L 586.257028 196.413113 
L 585.87844 196.413907 
L 585.255577 195.978054 
L 584.307273 195.105688 
L 583.845133 193.931779 
L 583.68101 193.030487 
L 583.409685 192.59386 
L 583.408562 192.047412 
L 583.326362 191.528448 
L 582.434207 191.639594 
L 582.1919 192.159234 
L 582.629106 194.371475 
L 583.090008 194.944312 
L 583.171761 195.244697 
L 583.60561 195.817555 
L 582.46897 195.410082 
L 582.280799 195.956958 
L 582.311002 197.299 
L 582.366319 197.899997 
L 581.717746 198.119932 
L 580.960674 198.176172 
L 580.662905 198.040155 
L 580.207944 197.990055 
L 579.745529 196.530133 
L 574.205362 199.170757 
L 575.930985 203.177225 
L 578.292368 202.084554 
L 578.655657 201.811385 
L 579.200592 201.811386 
L 579.429922 201.641337 
L 579.724361 201.922007 
L 580.183589 201.67512 
L 580.859284 201.482443 
L 581.547278 201.100905 
L 582.114044 200.553236 
L 583.005635 200.141557 
L 583.492332 200.11319 
L 584.385784 200.603137 
L 584.98124 200.84778 
L 585.063282 201.284799 
L 585.064528 201.885873 
L 586.282696 202.484417 
L 586.743052 202.784 
L 587.150068 203.438877 
L 587.90803 203.792489 
L 588.610911 203.681712 
L 589.555202 202.614103 
L 590.364899 201.847365 
L 590.608731 202.065425 
L 590.745033 202.584266 
L 591.17808 202.747295 
L 591.366747 202.446343 
L 591.446795 201.927044 
L 591.716654 201.653233 
L 592.283737 201.269534 
L 592.932527 201.158833 
L 593.554349 201.075568 
L 594.095552 201.238331 
L 594.420233 201.319613 
L 594.77243 201.619412 
L 594.584598 202.330201 
L 594.721079 202.93101 
L 594.477704 202.93153 
L 594.152734 202.713615 
L 593.720722 203.042434 
L 593.397877 203.835454 
L 592.99332 204.355445 
L 592.697243 205.011806 
L 592.941079 205.229895 
L 593.346729 205.229029 
L 593.562449 204.928018 
L 594.183069 204.270931 
L 594.831804 204.132942 
L 595.291127 203.940697 
L 595.479385 203.448515 
L 595.533926 203.666974 
L 595.615696 203.967349 
L 595.859763 204.29469 
L 595.941649 204.649692 
L 596.214103 205.605384 
L 595.919204 205.810254 
L 594.945724 205.839654 
L 593.839099 206.852962 
L 592.46079 207.293061 
L 592.435147 207.948846 
L 592.787468 208.303305 
L 593.301803 208.548095 
L 593.438059 209.039617 
L 593.628974 209.804225 
L 593.359576 210.296616 
L 592.900589 210.652778 
L 591.882566 211.60965 
L 591.558449 211.801607 
L 591.315725 212.129992 
L 591.397037 212.211792 
L 591.938205 212.347236 
L 592.047003 212.647554 
L 591.993729 213.030194 
L 591.778006 213.331176 
L 591.076148 213.933782 
L 590.130524 214.372961 
L 589.103213 214.539107 
L 588.85945 214.375678 
L 588.372506 214.294775 
L 588.264826 214.540897 
L 588.587998 215.029461 
L 588.480172 215.015811 
L 587.999646 215.136978 
L 587.728794 214.937693 
L 587.607684 214.708699 
L 587.557127 214.258392 
L 587.715289 214.056492 
L 587.606654 213.898757 
L 587.202842 213.6322 
L 586.964856 213.631185 
L 586.83186 213.431339 
L 587.210225 213.321684 
L 587.210226 213.321684 
L 587.415402 213.059261 
L 587.49129 212.833972 
L 587.384638 212.627927 
L 587.051504 212.382268 
L 587.04906 212.002273 
L 587.139107 211.700635 
L 587.183089 211.595148 
L 587.084806 211.328114 
L 586.934896 211.229893 
L 586.694309 211.165377 
L 586.694308 211.165377 
L 585.270933 211.331354 
L 585.270932 211.331354 
L 583.364987 211.419672 
L 580.185417 211.585352 
L 578.948481 211.630307 
L 578.40578 211.654303 
L 577.656015 211.687737 
L 577.004605 211.729726 
L 576.348908 211.767333 
L 576.348907 211.767333 
L 576.268904 211.78139 
L 576.188902 211.795448 
L 575.474015 207.514716 
L 575.486408 207.378814 
L 577.13699 204.228682 
L 575.669821 204.807368 
L 574.736113 205.177577 
L 573.921302 205.50225 
L 573.101665 205.830584 
L 572.418315 205.914494 
L 571.578831 206.017207 
L 570.849858 205.968708 
L 569.97712 205.912219 
L 569.257257 205.526173 
L 568.459919 205.096642 
L 567.706844 204.693063 
L 566.981836 204.301234 
L 566.289761 203.929976 
L 565.462103 203.482339 
L 564.752469 203.093807 
L 563.933812 202.843952 
L 563.175661 202.744152 
L 562.361272 202.637032 
L 561.510487 202.522435 
L 560.738423 202.420815 
L 560.123216 202.337757 
L 559.469999 202.252525 
L 558.780187 202.160151 
L 558.589646 202.13486 
L 558.399105 202.10957 
L 557.94492 202.257584 
L 557.393439 202.537894 
L 556.695161 202.892481 
L 556.099502 203.195572 
L 555.562983 203.468109 
L 555.016918 203.742174 
L 554.441239 203.739645 
L 554.008551 203.619787 
L 553.684351 203.530607 
L 553.354464 203.432529 
L 553.080078 203.351982 
L 552.730658 203.167321 
L 552.462457 202.937303 
L 552.20354 202.715147 
L 551.895473 202.450978 
L 551.612237 202.212837 
L 551.468476 202.089541 
L 551.444275 201.86999 
L 551.404407 201.467267 
L 551.309963 200.970964 
L 551.271994 200.577071 
L 551.219053 200.056488 
L 551.168213 199.586512 
L 551.124278 199.185624 
L 551.089765 198.860557 
L 551.179696 198.714842 
L 551.267025 198.572519 
L 551.360449 198.42381 
L 551.66734 197.928869 
L 551.916584 197.530206 
L 552.16809 197.132048 
L 552.402908 196.757655 
L 552.52934 196.554313 
L 552.655772 196.350972 
L 552.776288 195.846531 
L 552.907414 195.289442 
L 552.973511 195.005818 
L 553.040394 194.725233 
L 553.100996 194.4723 
L 553.161701 194.223078 
L 553.217023 193.980436 
L 553.2571 193.811476 
L 553.341577 193.462196 
L 553.579596 193.582651 
L 553.786682 193.689679 
L 554.087187 193.84656 
L 554.551228 194.088426 
L 554.920601 194.281556 
L 555.121264 194.386914 
L 555.509112 194.592696 
L 556.543192 192.9988 
L 557.071383 191.917659 
L 557.137717 191.797232 
L 557.912466 189.886197 
L 558.979418 189.572873 
L 559.370001 186.762462 
L 557.689515 186.267654 
L 548.608913 183.59393 
L 548.478249 185.437263 
L 548.384383 186.754654 
L 548.369502 186.947679 
L 548.355411 187.157643 
L 548.314189 187.740638 
L 548.284075 188.165932 
L 548.266614 188.374261 
L 548.252491 188.5905 
L 548.23155 188.906078 
L 548.219601 189.067531 
L 548.196115 189.401132 
L 548.180443 189.622736 
L 548.526568 189.651301 
L 548.45627 190.409075 
L 548.397387 191.038908 
L 548.350071 191.542894 
L 548.271138 192.401991 
L 548.257703 192.549841 
L 548.202309 193.149342 
L 548.09161 194.339993 
L 548.064273 194.625322 
L 547.97343 195.610776 
L 547.954373 195.815358 
L 547.894141 196.461978 
L 547.857808 196.765638 
L 547.721582 198.068731 
L 547.41293 198.4933 
L 547.27454 198.725942 
L 547.217857 198.912788 
L 547.192952 199.223081 
L 547.285911 199.577971 
L 547.528354 200.841758 
L 547.746378 202.127794 
L 547.90554 202.763478 
L 548.08714 203.335451 
L 548.236504 204.026945 
L 548.31006 204.270598 
L 548.383616 204.514252 
L 546.723024 205.677079 
L 545.089705 206.847526 
L 545.233968 207.09144 
L 545.102971 207.220705 
L 544.744882 207.460088 
L 544.72497 207.474435 
L 544.367656 207.731757 
L 543.996979 208.074395 
L 543.728535 208.313601 
L 543.430528 208.639582 
L 543.143161 209.020726 
L 542.970892 209.337148 
L 542.907377 209.58886 
L 542.875987 209.911459 
L 542.831708 210.182469 
L 542.787333 210.421231 
L 542.576805 210.808679 
L 542.430328 211.202457 
L 542.433563 211.381832 
L 542.404543 211.384806 
L 542.359177 211.41661 
L 542.162241 211.705792 
L 542.134128 211.746209 
L 542.026878 211.85795 
L 541.90894 212.091898 
L 541.848824 212.345638 
L 541.831558 212.48388 
L 541.769191 212.621742 
L 541.677861 212.756146 
L 541.506184 212.867346 
L 541.324926 212.968809 
L 541.084086 213.259651 
L 540.956862 213.44846 
L 540.839622 213.598736 
L 540.777985 213.649708 
L 540.732994 213.636459 
L 540.665858 213.574746 
L 540.621869 213.442426 
L 540.573927 213.396968 
L 540.499891 213.389908 
L 540.415972 213.408513 
L 540.389903 213.443696 
L 540.385169 213.623881 
L 540.375046 213.678505 
L 540.345593 213.732967 
L 540.316358 213.761686 
L 540.267821 213.787024 
L 540.209838 213.786537 
L 540.151987 213.769959 
L 540.091051 213.737265 
L 540.042894 213.717552 
L 539.975328 213.707327 
L 539.923732 213.713329 
L 539.907086 213.777557 
L 539.916207 213.841996 
L 539.992737 213.935972 
L 540.124512 213.972479 
L 540.392022 213.958638 
L 540.491882 213.959478 
L 540.533599 213.979138 
L 540.552088 214.079058 
L 540.518985 214.184984 
L 540.488884 214.316679 
L 540.487531 214.477584 
L 540.45402 214.631777 
L 540.368369 214.856336 
L 540.247665 215.035545 
L 540.056739 215.136922 
L 539.882431 215.177292 
L 539.82415 215.212203 
L 539.804441 215.257094 
L 539.80409 215.298928 
L 539.832756 215.337788 
L 539.860222 215.388934 
L 539.989459 215.453691 
L 540.035661 215.490746 
L 540.050518 215.536477 
L 540.007605 215.616031 
L 539.870844 215.788668 
L 539.806171 215.881581 
L 539.77463 215.917159 
L 539.721529 215.995157 
L 539.615076 216.11314 
L 539.573654 216.159972 
L 539.421691 216.331987 
L 539.216144 216.639207 
L 538.954203 217.139049 
L 538.904908 217.254489 
L 538.869092 217.370764 
L 538.853656 217.420875 
L 538.838662 217.469552 
L 538.661778 217.815632 
L 538.613107 217.959802 
L 538.499776 218.306656 
L 538.320512 218.552945 
L 538.142629 218.635117 
L 537.994278 218.653174 
L 537.930122 218.620452 
L 537.878988 218.571747 
L 537.879693 218.488078 
L 537.928831 218.391946 
L 537.961887 218.29246 
L 538.04367 218.145112 
L 538.076587 218.061716 
L 538.106423 217.962201 
L 538.172236 217.798627 
L 538.270397 217.619235 
L 538.284829 217.435919 
L 538.28564 217.339636 
L 538.285458 216.978933 
L 538.251704 216.779118 
L 538.185709 216.582251 
L 538.119416 216.420779 
L 538.071935 216.320615 
L 538.02429 216.239759 
L 537.924969 216.174555 
L 537.777467 216.092856 
L 537.613311 216.075381 
L 537.452214 216.077243 
L 537.191554 216.042863 
L 536.450695 216.030181 
L 536.466393 216.078585 
L 536.414692 216.10011 
L 536.274247 216.078357 
L 536.157549 216.109537 
L 535.875254 216.3391 
L 535.015612 216.744985 
L 534.843482 216.739126 
L 534.665148 216.689938 
L 534.328737 216.505515 
L 534.117973 216.585801 
L 533.988186 216.545698 
L 533.872173 216.623429 
L 533.177833 216.705246 
L 533.036694 216.816929 
L 532.90201 217.101938 
L 532.668866 217.312846 
L 532.49551 217.331548 
L 532.154797 217.49741 
L 531.953776 217.794941 
L 531.880617 218.11198 
L 531.797203 218.206226 
L 531.580889 218.216544 
L 531.295534 218.123051 
L 531.216752 218.063771 
L 531.152856 218.088657 
L 531.177671 218.177719 
L 531.168268 218.430301 
L 531.251939 218.469749 
L 531.441975 218.488973 
L 531.61614 218.647275 
L 531.807223 218.73336 
L 531.937886 218.859645 
L 532.015061 218.988176 
L 532.417722 219.246568 
L 532.689405 219.457851 
L 533.042708 220.145906 
L 533.300909 220.547146 
L 533.325136 220.863994 
L 533.143524 221.169648 
L 533.240158 221.664395 
L 533.215161 222.147265 
L 533.19156 222.419533 
L 533.246172 222.7395 
L 532.910697 223.025034 
L 532.468091 222.83662 
L 532.749619 223.537759 
L 532.744708 223.779528 
L 532.466823 224.293926 
L 532.705958 224.462642 
L 532.732307 224.959604 
L 532.447202 225.455427 
L 531.814917 226.001278 
L 532.716919 227.054749 
L 532.980076 226.836187 
L 533.533405 226.706527 
L 533.711343 226.896255 
L 533.910399 226.532478 
L 534.486022 226.735207 
L 534.881061 226.927229 
L 535.03314 227.088782 
L 535.131731 227.277399 
L 534.963106 227.799239 
L 534.981231 227.925078 
L 535.216131 228.067812 
L 535.487088 228.362985 
L 535.860443 229.26024 
L 536.305169 229.226234 
L 536.434515 229.45745 
L 536.413302 229.729519 
L 536.558966 229.887449 
L 536.895766 229.899399 
L 537.024407 230.477226 
L 537.100073 230.93269 
L 536.996203 231.469909 
L 537.024158 231.613798 
L 536.926676 231.99165 
L 537.221863 232.26977 
L 537.454483 232.512102 
L 537.570908 232.691695 
L 537.794269 232.763173 
L 537.982275 233.023534 
L 538.526761 232.949614 
L 538.696335 232.913329 
L 538.857075 232.921995 
L 539.009068 233.020606 
L 539.223632 233.17301 
L 539.322282 233.388616 
L 539.43878 233.604186 
L 539.653324 233.72963 
L 539.850131 233.927034 
L 539.976022 234.102908 
L 539.975819 234.277445 
L 539.868831 234.35857 
L 539.770781 234.430722 
L 539.779865 234.511614 
L 539.976495 234.619121 
L 540.039286 234.767352 
L 540.012818 234.920271 
L 540.048761 235.046072 
L 540.129299 235.126821 
L 540.236393 235.099647 
L 540.334497 235.054485 
L 540.388178 235.108328 
L 540.468679 235.171104 
L 540.513137 235.090072 
L 540.441467 234.964342 
L 540.423442 234.874482 
L 540.476927 234.829411 
L 540.601958 234.847132 
L 540.727184 234.963768 
L 540.878844 235.148048 
L 540.986665 235.233 
L 541.129972 235.466488 
L 541.219558 235.610154 
L 541.344838 235.753781 
L 541.389707 235.879565 
L 541.541934 236.095061 
L 541.720825 236.25652 
L 541.908443 236.319079 
L 542.158681 236.426476 
L 542.337448 236.52503 
L 542.396911 236.621805 
L 542.299728 236.907145 
L 537.104101 237.651285 
L 536.84432 237.762906 
L 537.549436 246.46937 
L 549.276707 245.539199 
L 549.462265 245.315956 
L 556.847477 244.943889 
L 556.55059 232.665542 
L 556.513479 232.55392 
L 547.978135 232.58633 
L 547.963618 232.641099 
L 547.669004 232.668656 
L 547.401279 232.723148 
L 547.044397 232.849777 
L 546.615868 232.886591 
L 546.178479 232.923454 
L 545.830179 232.879195 
L 545.51752 232.807888 
L 545.440488 232.692016 
L 545.374249 232.592392 
L 545.284573 232.403763 
L 545.26601 232.044154 
L 545.255026 231.883266 
L 545.247626 231.774455 
L 545.166731 231.51387 
L 545.086012 231.32519 
L 544.978633 231.208519 
L 544.853748 231.262754 
L 544.773618 231.370784 
L 544.782739 231.46968 
L 544.827817 231.685391 
L 544.836974 231.802259 
L 544.838684 232.014164 
L 544.855465 232.125908 
L 544.784295 232.251909 
L 544.686126 232.27913 
L 544.48964 232.243517 
L 544.364613 232.234783 
L 544.266388 232.225994 
L 544.07001 232.244363 
L 543.864803 232.334705 
L 543.766685 232.379834 
L 543.713308 232.478857 
L 543.63309 232.541955 
L 543.59756 232.640925 
L 543.579909 232.739891 
L 543.562258 232.838793 
L 543.491158 232.991801 
L 543.428823 233.081839 
L 543.368414 233.159788 
L 543.301351 233.249478 
L 543.265924 233.185234 
L 543.259126 233.055222 
L 543.258894 232.938335 
L 543.205141 232.848499 
L 543.133561 232.767749 
L 543.053309 232.830848 
L 542.946341 232.920992 
L 542.884022 233.010996 
L 542.884218 233.109927 
L 542.804015 233.173009 
L 542.571858 233.173493 
L 542.473634 233.17369 
L 542.348604 233.155969 
L 542.214686 233.156239 
L 542.116374 233.111472 
L 542.018061 233.066705 
L 541.982138 232.967863 
L 541.973001 232.860012 
L 541.972751 232.734107 
L 541.963632 232.635259 
L 541.945464 232.47346 
L 541.842077 232.469288 
L 541.746527 232.535543 
L 541.651075 232.599893 
L 541.588809 232.716905 
L 541.633655 232.81573 
L 541.676136 232.925266 
L 541.76793 232.995285 
L 541.803888 233.1121 
L 541.786205 233.211051 
L 541.661281 233.247247 
L 541.545353 233.319404 
L 541.429335 233.346628 
L 541.271839 233.34877 
L 541.179364 233.356116 
L 541.072217 233.356332 
L 540.973993 233.356529 
L 540.86686 233.347757 
L 540.795246 233.266959 
L 540.714635 233.13226 
L 540.732287 233.03331 
L 540.7678 232.925369 
L 540.830048 232.799338 
L 540.889085 232.711108 
L 540.96466 232.580216 
L 541.052012 232.393338 
L 541.13265 232.313207 
L 541.212866 232.232136 
L 541.30192 232.124057 
L 541.391095 232.060941 
L 541.381944 231.962044 
L 541.25695 231.962295 
L 541.147562 231.969392 
L 540.977634 231.973042 
L 540.855076 231.918137 
L 540.756903 231.927352 
L 540.69469 232.071324 
L 540.775194 232.152072 
L 540.86485 232.331717 
L 540.847201 232.44864 
L 540.722598 232.64672 
L 540.687067 232.745706 
L 540.588894 232.75489 
L 540.454944 232.755158 
L 540.356645 232.701405 
L 540.293953 232.602615 
L 540.213487 232.557812 
L 540.115109 232.463603 
L 539.980804 232.284048 
L 539.909206 232.194295 
L 539.676887 232.104831 
L 539.578628 232.087055 
L 539.435662 232.024404 
L 539.310437 231.907766 
L 539.261272 231.880889 
L 539.108372 231.404437 
L 539.349562 231.385219 
L 539.649216 231.313897 
L 539.762758 231.289176 
L 539.94039 231.189646 
L 540.191567 231.105832 
L 540.55362 231.033865 
L 540.814277 230.986984 
L 540.911781 230.981435 
L 541.050754 231.012528 
L 541.202064 231.059168 
L 541.353661 230.923916 
L 550.681788 229.648159 
L 554.768961 227.503789 
L 555.230477 227.407908 
L 556.286448 227.16045 
L 557.179162 227.240599 
L 558.017591 227.238878 
L 558.504327 227.183214 
L 560.395536 226.168363 
L 560.888665 225.775474 
L 561.407588 225.364628 
L 561.92995 224.928059 
L 562.640995 224.657225 
L 562.960651 224.573003 
L 563.116659 224.410161 
L 563.207993 224.275739 
L 563.323956 223.893687 
L 563.545881 222.785085 
L 563.681439 222.371006 
L 563.868271 221.989542 
L 563.995875 221.755645 
L 564.058023 221.643509 
L 564.27929 221.381424 
L 564.534274 221.137732 
L 564.712962 221.014023 
L 564.863375 220.880972 
L 565.128204 220.802721 
L 565.505192 220.79622 
L 565.852864 220.828095 
L 566.496073 220.96223 
L 566.850457 220.961976 
L 567.040735 220.937817 
L 567.134559 220.890321 
L 567.208896 220.861973 
L 567.279822 220.856129 
L 567.464303 220.754669 
L 567.519514 220.790675 
L 567.63894 220.802312 
L 567.720935 220.774159 
L 568.029164 220.613477 
L 568.637622 220.225424 
L 568.975902 220.052787 
L 569.170243 219.912694 
L 569.344793 219.853257 
L 569.504776 219.869014 
L 569.665067 220.003016 
L 569.72583 220.02132 
L 569.859799 220.061685 
L 570.024966 220.168569 
L 570.104348 220.324462 
L 570.090797 220.897689 
L 570.101101 221.207772 
L 570.113286 221.444611 
L 570.212572 221.761362 
L 570.298146 221.87938 
L 570.359377 221.82957 
L 570.363043 221.685868 
L 570.330884 221.586521 
L 570.348945 221.296919 
L 570.36054 221.110997 
L 570.408353 221.00618 
L 570.408614 220.498503 
L 570.472444 220.4204 
L 570.589711 220.387975 
L 570.87964 220.368554 
L 571.169568 220.349134 
L 571.588033 220.267711 
L 571.97854 220.218559 
L 572.215891 220.23151 
L 572.421461 220.360014 
L 572.454747 220.416325 
L 572.50709 220.504875 
L 572.552834 220.708959 
L 572.566769 220.99901 
L 572.628287 221.096949 
L 572.724229 221.095385 
L 572.774377 220.826675 
L 572.795596 220.775602 
L 572.863457 220.708308 
L 572.939742 220.67143 
L 573.215059 220.538332 
L 573.374925 220.489661 
L 573.847139 220.378779 
L 574.332788 220.263335 
L 574.392555 220.253797 
L 574.48302 220.259511 
L 574.688526 220.255917 
L 574.846286 220.271692 
L 574.961017 220.298312 
L 575.238571 220.429371 
L 575.642494 220.420477 
L 576.013338 220.521786 
L 576.096006 220.526982 
L 576.151793 220.53039 
L 576.155391 221.155943 
L 576.301081 222.981764 
L 574.882831 224.70301 
L 575.629277 226.648767 
L 576.077146 227.02295 
L 576.450369 227.097787 
L 576.823593 227.322298 
L 577.196816 227.322299 
L 577.346105 228.070666 
L 577.868618 228.370014 
L 578.391131 228.744198 
L 578.316486 229.717076 
L 578.167195 230.989302 
L 577.570037 231.737669 
L 577.420748 232.18669 
L 577.793971 232.710548 
L 579.137575 233.982774 
L 579.510799 234.581468 
L 579.585443 235.329836 
L 580.1826 236.078205 
L 579.884003 236.452404 
L 579.605955 236.292691 
L 578.889432 235.281654 
L 578.809818 235.255048 
L 578.730204 235.228442 
L 576.846012 235.361472 
L 576.779667 235.348169 
L 576.713323 235.334866 
L 576.660265 233.605448 
L 570.874999 233.605445 
L 570.874998 236.425702 
L 572.78571 237.862453 
L 573.077627 238.820276 
L 573.52877 240.123981 
L 574.404521 241.081804 
L 575.313706 241.454338 
L 576.552639 241.207095 
L 576.840299 241.0472 
L 577.240618 240.767618 
L 577.987157 240.416636 
L 578.517916 239.778088 
L 578.374349 239.451632 
L 578.781555 239.148773 
L 578.894209 239.012024 
L 578.941944 238.886768 
L 579.809374 239.071677 
L 580.481177 239.221351 
L 581.00369 239.745209 
L 582.272649 240.718088 
L 582.272632 241.092286 
L 582.496566 241.24196 
L 583.168385 241.84064 
L 592.125752 239.221357 
L 593.170762 237.574963 
L 596.828354 234.955677 
L 597.948025 234.955678 
L 600.4113 236.153068 
L 602.949238 234.805992 
L 603.815547 233.536591 
L 604.348878 235.674275 
L 607.748499 237.030103 
L 610.046489 238.147722 
L 612.167762 238.709266 
L 614.132576 240.541231 
L 614.248988 242.6912 
L 615.219481 245.982026 
L 622.636364 319.297685 
L 550.075335 316.407641 
L 540.044922 323.413253 
L 540.297146 319.742413 
L 540.297146 319.74241 
L 538.100522 310.793946 
L 537.874879 309.874046 
L 537.595145 308.959254 
L 537.407418 307.845173 
L 537.328214 307.675019 
L 537.149844 307.047092 
L 536.99274 306.448836 
L 536.92525 306.099545 
L 536.765038 305.508952 
L 536.688991 305.213176 
L 536.520296 304.524105 
L 536.43319 304.177613 
L 536.306791 303.668961 
L 536.204287 303.261866 
L 536.075473 302.737516 
L 535.991989 302.396531 
L 535.844633 301.802502 
L 535.727589 301.328217 
L 535.620855 300.900076 
L 535.494196 300.387659 
L 535.416896 300.075436 
L 535.265444 299.445987 
L 535.140266 298.963381 
L 535.015811 298.455533 
L 534.865378 298.101449 
L 534.796046 297.57269 
L 534.658375 297.014584 
L 534.543121 296.529782 
L 534.416027 296.037608 
L 534.085206 294.701908 
L 533.857685 293.787187 
L 533.824081 293.726006 
L 533.567829 293.273288 
L 533.282613 292.758632 
L 532.993913 292.241549 
L 532.712871 291.718448 
L 532.456697 291.254535 
L 532.208499 290.799007 
L 531.941959 290.322753 
L 531.6831 289.852257 
L 531.472788 289.471007 
L 531.265994 289.091858 
L 531.009506 288.629175 
L 530.774376 288.211347 
L 530.498484 287.713048 
L 530.309041 287.356052 
L 530.086712 286.95776 
L 529.841886 286.50741 
L 529.603641 286.076545 
L 529.344212 285.606272 
L 529.159484 285.269574 
L 528.916241 284.819576 
L 528.670461 284.373735 
L 528.414542 283.916365 
L 528.183481 283.498524 
L 527.969334 283.09502 
L 527.695552 282.614424 
L 527.483896 282.231093 
L 527.244036 281.794029 
L 527.026721 281.400067 
L 526.790941 280.972403 
L 526.55911 280.5531 
L 526.369077 280.201906 
L 526.087422 279.695822 
L 525.881104 279.320782 
L 525.667795 278.946146 
L 525.410946 278.468884 
L 525.155813 277.995511 
L 524.723001 277.3366 
L 524.517138 276.993708 
L 524.313203 276.648183 
L 524.123338 276.329428 
L 523.898485 275.947544 
L 523.706131 275.624478 
L 523.480321 275.246457 
L 523.24837 274.858454 
L 523.095786 274.588319 
L 523.471231 273.861208 
L 524.230457 272.433715 
L 524.810567 271.384461 
L 525.444192 270.238421 
L 526.122151 269.012354 
L 526.80977 267.773279 
L 527.314617 266.862285 
L 528.369222 264.960467 
L 528.549004 264.959716 
L 529.068287 264.962175 
L 529.927547 264.965116 
L 530.553453 264.972645 
L 531.228552 264.962003 
L 531.893562 264.965461 
L 532.513327 264.383556 
L 532.627535 264.379756 
L 532.62527 264.48789 
L 532.815883 264.570913 
L 533.306465 264.643142 
L 533.297069 264.568154 
L 533.524448 264.347476 
L 533.412408 264.211154 
L 533.447142 263.986357 
L 533.87779 263.959368 
L 533.866114 263.856225 
L 533.71302 263.716256 
L 533.790645 263.527609 
L 534.147516 263.196852 
L 534.170171 263.006111 
L 534.385143 263.009828 
L 534.430336 263.037474 
L 534.382245 262.89833 
L 534.439118 262.820873 
L 534.618496 262.796664 
L 534.978443 262.9088 
L 535.116636 262.783844 
L 535.458425 262.677486 
L 535.583221 262.715936 
L 535.637148 262.648055 
L 535.832995 262.610803 
L 535.88203 262.690478 
L 535.973598 262.562957 
L 536.082904 262.492822 
L 536.218339 262.566839 
L 536.249133 262.675847 
L 536.266255 262.666825 
L 536.254987 262.494062 
L 536.33967 262.37181 
L 536.559376 262.343496 
L 536.624418 262.468362 
L 536.595322 262.579049 
L 536.633061 262.616702 
L 536.670401 262.471805 
L 536.82264 262.378127 
L 536.849886 262.260437 
L 536.846879 261.275665 
L 536.855984 261.07681 
L 536.683609 260.688018 
L 536.702248 260.407129 
L 536.594966 260.409489 
L 536.435397 260.204844 
L 536.440368 259.903674 
L 536.31517 259.904999 
L 536.11387 260.001858 
L 535.978141 259.924986 
L 535.972102 259.724669 
L 535.835881 259.724069 
L 535.631112 259.616549 
L 535.500924 259.539407 
L 535.493442 259.406506 
L 535.462807 259.264148 
L 535.514103 259.201593 
L 535.645337 259.189842 
L 535.64014 258.959157 
L 535.440428 259.028696 
L 535.350358 258.970158 
L 535.324658 258.8626 
L 535.374804 258.708074 
L 535.354728 258.690271 
L 535.204444 258.616445 
L 534.964861 258.434995 
L 534.877584 258.323181 
L 534.85659 258.200333 
L 534.911537 258.110876 
L 534.479816 258.290214 
L 533.805411 258.219814 
L 533.100229 258.210401 
L 532.392239 258.182209 
L 530.62446 258.091066 
L 529.969794 258.065161 
L 529.486087 258.092376 
L 528.809511 258.016973 
L 528.152363 257.991134 
L 527.338972 257.958241 
L 526.731442 257.933435 
L 525.947107 257.898014 
L 525.297084 257.87582 
L 524.436629 257.716454 
L 522.095293 256.725722 
L 521.234897 256.363675 
L 520.543401 256.074737 
L 520.613445 254.538352 
L 518.808239 254.656064 
L 516.097034 254.832844 
L 515.881005 254.093585 
L 515.022141 254.355974 
L 514.162036 253.454241 
L 514.449223 252.576032 
L 513.908588 252.186436 
L 513.412195 252.185357 
L 512.556123 253.166737 
L 511.815936 253.960808 
L 511.400647 254.556587 
L 510.480774 255.115396 
L 510.743068 255.167306 
L 510.725314 257.167329 
L 510.301465 259.847319 
L 510.117335 260.862433 
L 510.006331 261.474402 
L 509.865826 262.249007 
L 509.646288 263.018484 
L 509.434624 263.557897 
L 509.183907 264.127309 
L 508.975266 264.538237 
L 508.548363 265.291261 
L 508.075863 266.122212 
L 507.753802 266.732048 
L 507.455214 267.321027 
L 507.142275 267.918624 
L 506.572433 268.670741 
L 506.180142 269.569227 
L 505.841631 270.146137 
L 505.246544 271.099509 
L 504.747285 271.90073 
L 504.218496 272.712233 
L 503.892378 273.162936 
L 503.637768 273.468769 
L 503.260776 273.850981 
L 502.808019 274.21559 
L 502.143869 274.685846 
L 501.624744 275.071305 
L 501.338182 275.248287 
L 500.769536 275.4336 
L 500.390814 275.804845 
L 499.694624 275.975146 
L 498.959879 275.944411 
L 497.329178 275.733397 
L 496.247133 275.733397 
L 495.731874 276.146664 
L 495.52577 276.559932 
L 495.26814 276.714908 
L 495.989503 277.438127 
L 496.216532 277.839334 
L 495.696538 278.029706 
L 495.345974 278.308162 
L 495.051753 278.554908 
L 494.70687 278.524002 
L 494.606908 278.70729 
L 494.807857 278.883642 
L 494.557351 279.022981 
L 493.928465 279.142857 
L 494.021944 279.97192 
L 493.400265 280.114919 
L 492.97382 280.483323 
L 492.430457 280.638794 
L 492.215848 280.840518 
L 491.551326 281.081547 
L 491.173212 281.296236 
L 490.856755 281.724937 
L 490.700039 282.024223 
L 490.538327 282.082914 
L 490.42296 282.048084 
L 490.19445 281.956162 
L 489.947304 282.03466 
L 489.731646 282.236645 
L 489.03683 282.521625 
L 488.885156 282.538232 
L 488.717725 282.434568 
L 488.673035 282.332859 
L 488.497345 282.291819 
L 488.248455 282.515579 
L 488.09672 282.568346 
L 487.939891 282.516343 
L 487.855025 282.533906 
L 487.70437 282.66944 
L 487.224462 282.576424 
L 487.080822 282.607356 
L 487.02751 282.784796 
L 487.094988 282.920122 
L 487.105043 283.119309 
L 486.982657 283.306712 
L 486.657862 283.545889 
L 486.148405 283.505585 
L 486.018128 283.638863 
L 486.077254 283.806379 
L 485.915936 283.887601 
L 485.736958 283.890388 
L 485.837731 284.155218 
L 485.83592 284.479955 
L 485.850734 284.855062 
L 486.208124 284.804372 
L 486.478337 284.497425 
L 486.798049 284.399747 
L 486.933746 284.736183 
L 486.575258 284.855993 
L 486.412742 285.029115 
L 485.963409 285.246725 
L 486.014679 285.454822 
L 485.685043 285.838255 
L 485.389409 285.656511 
L 484.998485 285.782193 
L 484.656004 286.418041 
L 484.356619 286.60697 
L 483.920868 287.042903 
L 483.53469 287.440505 
L 482.25615 288.809295 
L 481.842247 289.118912 
L 481.719459 289.543645 
L 481.491701 289.832556 
L 480.215494 289.832578 
L 479.85817 290.274815 
L 479.763203 290.672761 
L 479.310642 291.079307 
L 478.890844 291.687314 
L 478.364516 291.977381 
L 478.35304 292.218789 
L 478.497094 292.399234 
L 477.745093 293.006997 
L 477.708363 293.160239 
L 477.851917 293.244325 
L 478.05037 293.630893 
L 477.428684 294.182261 
L 476.830908 294.445958 
L 476.137489 295.093217 
L 472.120711 297.542982 
L 467.791974 300.587692 
L 465.099416 300.426807 
L 463.918501 299.359202 
L 459.217212 296.156266 
L 457.983254 297.419548 
L 456.998219 298.427992 
L 456.280625 299.162639 
L 455.601065 299.858348 
L 454.779226 300.699717 
L 452.941521 302.581094 
L 451.299567 303.655912 
L 449.905726 304.568316 
L 448.139289 305.72462 
L 445.558968 307.41369 
L 442.912208 310.293176 
L 441.260571 313.943884 
L 441.001592 315.224987 
L 440.347317 318.461528 
L 439.63621 321.979201 
L 439.158871 324.340478 
L 438.854147 325.847874 
L 438.603557 327.087483 
L 438.165408 329.254901 
L 437.516519 332.464796 
L 437.342528 333.325486 
L 435.733206 336.416779 
L 434.352096 339.069707 
L 433.021872 340.840184 
L 431.119654 343.371962 
L 425.98148 350.210673 
L 422.949317 354.246364 
L 421.085213 356.727414 
L 419.406089 358.962263 
L 418.220674 360.540004 
L 415.296327 364.432197 
L 414.254411 365.818946 
L 412.882072 367.645476 
L 411.190174 369.897327 
L 410.195051 371.221798 
L 408.860096 372.99857 
L 406.623864 375.974908 
L 406.455082 376.834693 
L 407.200969 379.540279 
L 406.990754 379.615549 
L 406.811621 379.736463 
L 406.511433 379.93909 
L 406.330528 380.166786 
L 405.534263 380.598677 
L 404.285057 381.742283 
L 403.696433 381.96689 
L 403.479448 382.008115 
L 403.245378 382.20093 
L 402.977851 382.302463 
L 402.340043 382.460019 
L 401.684851 382.556441 
L 401.317585 382.641628 
L 400.702078 382.566173 
L 399.560291 382.4262 
L 397.736321 382.202596 
L 397.429686 382.092569 
L 396.518936 381.920086 
L 395.865254 381.611257 
L 395.404774 381.551146 
L 395.405574 381.368547 
L 395.205265 381.22834 
L 394.480054 380.881404 
L 394.274158 380.825779 
L 393.746546 380.506477 
L 393.474123 380.554601 
L 393.271036 380.52136 
L 393.102291 380.240649 
L 392.483039 379.927209 
L 390.412222 379.253432 
L 389.7407 379.066162 
L 388.257534 378.746863 
L 386.16002 378.55019 
L 384.657608 378.55942 
L 383.91223 378.649295 
L 383.161489 378.792294 
L 382.462489 378.989299 
L 380.965625 379.411171 
L 379.531809 379.96172 
L 377.995929 380.318445 
L 377.23784 380.504734 
L 376.90803 380.60806 
L 373.552966 381.776183 
L 371.674533 382.831967 
L 369.730377 384.017149 
L 369.181285 384.443976 
L 367.520817 385.874102 
L 366.79956 386.604582 
L 366.325496 386.980796 
L 365.336232 387.910961 
L 364.59044 388.560089 
L 364.31897 388.756524 
L 363.507316 389.295594 
L 363.560092 390.219503 
L 363.560094 392.146599 
L 365.217801 394.134807 
L 366.29298 396.565113 
L 366.282715 398.881825 
L 371.66347 398.915392 
L 376.908041 398.908706 
L 376.908044 403.330181 
L 375.319575 403.330182 
L 375.31958 411.765286 
L 384.675582 411.723936 
L 384.544448 411.957593 
L 384.875635 412.016771 
L 384.889969 412.125026 
L 384.764546 412.394132 
L 384.7301 412.891031 
L 385.051597 413.01684 
L 385.204772 413.187549 
L 385.283778 413.795584 
L 385.154036 414.065801 
L 385.009593 414.046122 
L 384.740077 413.790012 
L 384.534754 413.785718 
L 384.569035 413.945336 
L 384.900969 414.258416 
L 385.033388 414.627091 
L 385.193216 415.530778 
L 384.858992 415.977251 
L 384.843479 416.234963 
L 384.741159 416.805375 
L 384.880504 417.400752 
L 384.899185 418.064735 
L 385.1611 418.244864 
L 385.20753 418.418771 
L 385.130803 418.694902 
L 385.129133 418.804498 
L 385.351399 419.575152 
L 385.605233 419.956495 
L 385.699265 420.097763 
L 385.677184 420.29359 
L 385.432874 420.429469 
L 385.280109 420.616569 
L 385.252844 420.663274 
L 385.49458 421.354753 
L 385.455207 421.744678 
L 385.218163 422.132119 
L 385.053419 422.584657 
L 385.028397 422.784939 
L 384.895134 423.851625 
L 384.944492 424.271352 
L 385.030777 424.648921 
L 385.174584 426.041121 
L 385.215511 426.258615 
L 385.256439 426.476108 
L 385.335043 427.834468 
L 385.169314 429.254117 
L 385.101397 429.485465 
L 384.987985 429.871781 
L 384.924828 430.04026 
L 384.861672 430.208738 
L 384.838731 430.237137 
L 384.575029 430.574822 
L 384.293729 431.019536 
L 384.141001 431.258399 
L 383.908403 431.724843 
L 383.694167 432.006766 
L 383.135858 432.843057 
L 382.79277 433.498495 
L 382.605255 433.719308 
L 382.644287 434.229507 
L 382.780017 434.486491 
L 382.944994 434.956251 
L 383.236181 435.578882 
L 383.37764 435.850329 
L 383.675178 436.148407 
L 384.409326 436.685398 
L 384.639564 437.150274 
L 384.856742 438.624429 
L 384.665695 439.065107 
L 384.616683 439.453233 
L 384.647304 439.953462 
L 384.589226 440.426911 
L 384.34278 440.809797 
L 384.060958 440.944091 
L 384.062557 441.144879 
L 384.221378 441.3244 
L 384.254351 441.468704 
L 384.188491 441.89781 
L 384.042107 442.322058 
L 384.051611 442.697917 
L 384.244776 444.243311 
L 384.257079 444.295245 
L 383.287283 444.518041 
L 383.155922 444.551891 
L 377.464727 446.018462 
L 374.472653 447.103303 
L 371.283747 448.672266 
L 368.857041 450.280908 
L 366.299749 453.085818 
L 363.463719 457.009772 
L 361.236646 460.670595 
L 359.47376 464.738505 
L 357.728786 470.332786 
L 355.431812 477.626709 
L 354.219952 480.4704 
L 353.156924 482.145649 
L 351.474849 484.124072 
L 349.200273 485.930732 
L 347.203087 486.983974 
L 343.883184 488.10202 
L 338.298249 489.111861 
L 333.486696 489.674671 
L 326.889137 490.492868 
L 323.821319 491.149966 
L 321.203421 492.315583 
L 317.284004 495.453953 
L 312.966506 499.508432 
L 310.059595 502.566579 
L 306.261952 508.667111 
L 304.855278 514.963887 
L 300.22663 526.844927 
L 294.401143 538.761481 
L 292.189271 543.078764 
L 290.554318 546.707038 
L 289.826058 549.416306 
L 289.508641 552.878319 
L 289.783501 556.186069 
L 290.359167 558.809071 
L 292.436191 566.043273 
L 293.193109 568.73856 
L 293.787409 571.243404 
L 294.282447 574.109547 
L 294.008223 577.502229 
L 293.167102 580.252552 
L 291.989477 582.26115 
L 290.516651 583.397713 
L 289.026105 584.013504 
L 284.934471 585.112395 
L 280.705665 586.240817 
L 278.16498 587.243642 
L 276.85186 588.035245 
L 274.726893 590.094902 
L 270.986519 595.416653 
L 266.217101 602.284072 
L 263.588376 605.901753 
L 260.492917 610.550009 
L 257.688262 615.960726 
L 256.037544 618.741165 
L 253.983021 621.228564 
L 251.428262 623.280398 
L 248.778081 624.812971 
L 244.039525 626.941247 
L 238.577849 629.224516 
L 237.117439 629.928836 
L 235.65703 630.633156 
L 233.331126 632.120165 
L 229.995085 634.758844 
L 226.227945 638.011443 
L 223.096592 641.145114 
L 219.478071 645.559853 
L 217.845569 648.079108 
L 215.718352 650.896185 
L 213.653808 652.637157 
L 209.635409 654.160184 
L 205.251478 655.972454 
L 201.076332 658.068862 
L 197.567404 660.128871 
L 196.260843 660.895922 
L 192.706982 663.489776 
L 189.433124 666.549583 
L 186.716641 669.686944 
L 181.85734 676.290793 
L 177.491578 682.571997 
L 174.107153 688.080584 
L 171.027942 694.595459 
L 170.103131 697.259674 
L 169.17832 699.92389 
L 167.38669 707.538861 
L 165.735204 711.995553 
L 163.91162 714.818593 
L 160.356204 718.72857 
L 157.765605 721.823545 
L 157.725728 721.872488 
L 115.363636 680.756334 
L 115.623337 680.886711 
L 116.106803 681.210374 
L 116.697384 681.209898 
L 117.124313 681.004068 
L 117.453642 680.845292 
L 117.931723 680.614801 
L 118.313726 680.474704 
L 119.112532 680.18175 
L 119.380775 679.911483 
L 120.02503 678.989576 
L 120.915499 678.962695 
L 121.90453 678.540129 
L 122.548038 677.961219 
L 122.82346 677.350383 
L 123.324228 676.844142 
L 124.217264 675.245927 
L 124.374241 675.147178 
L 124.590466 674.629083 
L 124.670217 674.582618 
L 124.980935 674.2711 
L 126.305884 671.591371 
L 126.781725 670.633276 
L 126.975521 670.40922 
L 127.762284 669.495284 
L 127.979284 668.784036 
L 128.19211 668.503721 
L 128.339023 668.503332 
L 128.40057 668.598824 
L 128.521025 669.053314 
L 128.558583 669.404755 
L 128.554658 669.404901 
L 128.587795 669.76038 
L 128.788105 670.312645 
L 128.801435 670.317099 
L 128.803008 670.323541 
L 128.843837 670.331269 
L 128.88826 670.346115 
L 128.894217 670.340806 
L 129.209591 670.400505 
L 129.364742 670.26092 
L 129.602906 669.972105 
L 129.656857 669.901113 
L 129.576349 669.096812 
L 129.946885 668.991135 
L 130.284903 669.125017 
L 130.553338 669.199748 
L 131.006073 668.798071 
L 131.161198 668.658492 
L 131.280536 668.488673 
L 131.751736 667.662776 
L 131.751736 667.026837 
L 131.618198 666.608456 
L 131.326083 666.043642 
L 131.620879 665.99979 
L 131.634478 666.02014 
L 131.672448 666.047826 
L 132.223293 666.05201 
L 133.003656 665.487196 
L 133.141367 665.131572 
L 133.83827 664.365935 
L 134.263922 663.516622 
L 134.261836 662.870224 
L 134.128298 662.476946 
L 134.119952 662.464395 
L 134.324432 662.251021 
L 134.326855 662.252379 
L 134.332778 662.246837 
L 134.324432 661.828456 
L 134.040663 661.619266 
L 133.698472 661.682023 
L 133.701343 661.607185 
L 133.703985 661.601961 
L 133.702276 661.582867 
L 133.702645 661.573244 
L 133.694299 661.493751 
L 133.723633 661.449863 
L 133.959003 661.097715 
L 133.978067 661.060019 
L 133.978067 660.640255 
L 134.477904 660.760131 
L 135.767663 660.562249 
L 135.972146 660.558065 
L 135.976832 660.563682 
L 136.522999 660.574801 
L 136.728219 660.471928 
L 136.727482 660.466021 
L 136.92372 660.386635 
L 137.078757 660.247083 
L 137.118991 660.197436 
L 137.116214 659.715633 
L 136.940945 659.556648 
L 136.946615 659.549259 
L 136.909125 659.511673 
L 135.872379 659.648954 
L 135.865858 659.511673 
L 136.83088 658.740283 
L 137.199284 657.834881 
L 136.971069 656.841227 
L 136.632007 656.285565 
L 136.553762 655.94563 
L 136.781977 655.233075 
L 136.97759 655.095794 
L 137.753519 655.226538 
L 138.164305 654.736248 
L 138.431642 654.598967 
L 139.973721 654.321136 
L 140.723316 653.563243 
L 140.74313 653.531458 
L 140.74639 652.84046 
L 140.609462 652.533212 
L 140.615982 652.055997 
L 140.948861 650.749336 
L 141.222381 649.493414 
L 141.230017 649.496425 
L 141.259787 649.280861 
L 141.378431 649.074384 
L 141.697792 648.71588 
L 142.127731 648.418938 
L 142.918289 647.701329 
L 143.890461 646.820383 
L 144.344518 646.413112 
L 144.110826 645.777173 
L 143.902507 645.632581 
L 143.782323 644.837323 
L 144.29778 644.291085 
L 144.500758 644.256276 
L 145.184473 644.759671 
L 146.758888 644.7503 
L 147.62555 644.358026 
L 148.218459 643.418175 
L 148.312538 642.75022 
L 148.179733 641.183687 
L 149.038384 638.697501 
L 149.783526 638.435093 
L 150.686244 637.819236 
L 151.078846 637.299775 
L 151.621011 637.048077 
L 152.199231 635.292886 
L 152.452954 635.164359 
L 153.150023 635.242011 
L 153.251512 634.460141 
L 153.499893 634.149535 
L 153.597376 633.770649 
L 153.720231 633.569827 
L 154.168919 633.572504 
L 154.064759 633.494853 
L 154.182273 633.253865 
L 153.992648 632.841509 
L 154.163577 631.834718 
L 154.094561 630.975936 
L 154.044134 630.793069 
L 153.744268 630.185294 
L 153.808366 629.604246 
L 154.265066 629.438233 
L 156.157302 630.510626 
L 156.742199 630.577567 
L 156.774248 630.24554 
L 156.36028 629.720724 
L 156.338914 629.45296 
L 156.707479 629.396729 
L 157.389859 629.711352 
L 158.073574 629.561404 
L 158.908187 627.985615 
L 158.88148 627.436699 
L 158.630428 626.778001 
L 158.659806 626.405809 
L 159.704075 626.04165 
L 159.893699 625.3053 
L 160.98337 624.627858 
L 161.779257 624.860813 
L 162.668621 624.073587 
L 162.949051 623.227454 
L 162.911661 623.029309 
L 162.149158 622.645068 
L 162.03565 621.786885 
L 161.840685 621.63426 
L 161.553578 621.27144 
L 161.158305 620.336945 
L 161.688451 618.621918 
L 161.923478 618.340767 
L 162.509711 617.892262 
L 163.356343 616.992576 
L 163.373797 616.507603 
L 163.383757 616.482638 
L 163.421776 615.194543 
L 164.20431 614.024416 
L 164.83728 612.431222 
L 165.643851 611.250384 
L 165.83214 609.005185 
L 166.178003 607.994378 
L 166.541227 607.544535 
L 167.33845 607.658334 
L 168.135672 607.488304 
L 169.205313 607.034445 
L 169.380248 606.711789 
L 170.972022 606.259269 
L 171.368631 605.853607 
L 171.78794 604.994085 
L 171.649061 604.000682 
L 171.082859 603.524063 
L 170.12272 603.182664 
L 169.519128 602.478445 
L 169.443011 601.767533 
L 169.664684 601.159709 
L 171.834679 600.258684 
L 172.651932 599.725835 
L 173.429124 599.581242 
L 173.712225 599.62944 
L 174.204981 600.005648 
L 175.79542 601.934885 
L 177.005275 602.443636 
L 178.136343 602.428909 
L 178.781333 602.197294 
L 179.382254 601.372581 
L 179.482408 600.567952 
L 178.865462 599.194324 
L 178.78801 598.463329 
L 178.865462 597.788564 
L 179.302131 596.306492 
L 179.622623 596.038729 
L 180.843162 595.607629 
L 181.139616 595.173852 
L 181.129594 594.959429 
L 180.748349 594.361189 
L 179.69874 593.715879 
L 179.631971 593.215161 
L 179.765509 593.067891 
L 180.769716 592.778706 
L 182.031651 591.920523 
L 182.511053 591.394367 
L 182.926356 590.77985 
L 183.609665 589.759287 
L 184.880019 587.870597 
L 185.088339 587.254741 
L 185.151102 586.511697 
L 184.37391 584.340133 
L 184.454033 583.772474 
L 184.854647 582.942407 
L 185.456904 582.659916 
L 186.581295 582.408218 
L 187.032654 582.006572 
L 187.422585 581.580828 
L 187.676308 580.871254 
L 187.829877 579.6864 
L 187.990123 579.496288 
L 188.203784 579.39186 
L 188.564337 579.560551 
L 189.561866 580.316984 
L 190.140087 580.398651 
L 190.851845 580.28753 
L 191.492828 579.781456 
L 191.774593 578.850977 
L 192.279367 577.916482 
L 194.035394 576.04883 
L 195.584436 575.612375 
L 196.561936 575.727514 
L 197.494032 575.690027 
L 198.936244 575.280348 
L 199.726789 574.878703 
L 201.763246 572.83165 
L 202.499041 572.723205 
L 202.951735 572.791485 
L 203.572688 573.239989 
L 204.661023 573.651006 
L 206.80164 574.460992 
L 207.243651 574.772936 
L 207.20626 574.888075 
L 207.48402 574.914851 
L 208.413445 575.857379 
L 208.723254 575.964485 
L 210.075995 577.505465 
L 210.814461 577.739758 
L 211.327247 577.536258 
L 212.051024 576.406295 
L 212.770794 576.225554 
L 214.275769 576.904335 
L 215.83683 577.374261 
L 215.90627 577.451912 
L 216.48449 577.937903 
L 218.046886 578.237798 
L 218.627777 578.608651 
L 220.286321 579.387844 
L 220.342407 579.899272 
L 220.572092 579.899272 
L 220.924633 579.331613 
L 221.701825 578.83625 
L 222.130482 578.283318 
L 222.185233 577.816071 
L 222.381534 577.453251 
L 222.31876 576.068523 
L 223.475211 572.841021 
L 223.914552 572.191694 
L 224.344545 571.206324 
L 224.50212 570.320026 
L 224.471406 569.622502 
L 223.507261 567.922202 
L 223.676854 566.365156 
L 224.088152 565.575253 
L 224.53951 565.195029 
L 226.227432 562.886906 
L 228.422799 561.194639 
L 230.124075 560.356539 
L 230.908712 560.053493 
L 228.67999 562.562949 
L 231.361268 563.772145 
L 232.4226 564.160121 
L 233.55185 564.159546 
L 234.837452 564.045739 
L 236.766029 564.214452 
L 237.878019 564.016615 
L 238.636126 564.293718 
L 239.525717 564.135442 
L 239.522011 557.125204 
L 239.482522 556.803096 
L 239.067492 556.30608 
L 238.461025 555.160165 
L 236.609531 554.591804 
L 235.240024 553.215571 
L 235.245171 552.986804 
L 237.751774 550.572454 
L 238.638467 550.29398 
L 242.726069 547.754241 
L 245.211214 545.883912 
L 246.653426 544.662909 
L 249.688748 541.191353 
L 250.514013 540.080134 
L 252.306095 536.762541 
L 252.832235 535.255032 
L 253.869827 533.462354 
L 255.663244 529.198217 
L 257.391227 525.966309 
L 258.932257 524.188358 
L 260.195528 523.106593 
L 262.405584 520.815875 
L 263.095976 519.930916 
L 265.097713 516.07378 
L 265.602487 513.934348 
L 265.73075 512.379357 
L 265.916302 512.114894 
L 266.175366 511.271438 
L 266.087231 510.13612 
L 265.809471 509.36496 
L 265.813478 508.094422 
L 265.355442 506.138408 
L 265.323393 504.440786 
L 265.511681 502.980135 
L 266.768275 499.950389 
L 266.596011 497.780164 
L 266.932527 496.192326 
L 266.871821 495.322456 
L 266.360984 493.137142 
L 265.681275 488.067036 
L 265.371466 486.607724 
L 264.810606 481.595188 
L 265.232587 480.141231 
L 265.670592 479.426302 
L 266.048505 478.08079 
L 266.546602 476.895935 
L 267.179945 475.851923 
L 268.217164 474.506144 
L 270.555417 472.576907 
L 274.488115 470.46559 
L 275.249282 470.449524 
L 275.74738 470.169711 
L 277.359185 470.010392 
L 284.089507 467.584453 
L 286.975266 467.028843 
L 288.719274 466.911027 
L 289.740841 466.687444 
L 290.87725 466.675395 
L 291.200413 466.504026 
L 293.964652 465.885492 
L 295.302704 465.258925 
L 296.389705 464.442246 
L 297.331148 463.452859 
L 297.902692 462.272021 
L 298.167097 461.147414 
L 298.121694 459.690779 
L 297.794167 457.914227 
L 297.78447 457.824787 
L 297.684374 457.313322 
L 297.387234 456.488325 
L 296.817027 455.614077 
L 294.98889 453.674129 
L 293.296961 452.711519 
L 290.771755 451.88279 
L 289.429697 451.841287 
L 287.439979 451.570845 
L 285.414205 451.740875 
L 284.012055 452.000606 
L 283.005177 452.356732 
L 281.75526 453.018108 
L 280.678943 453.810689 
L 279.096516 455.330247 
L 276.715531 458.531362 
L 275.681946 459.937122 
L 274.939474 460.957301 
L 273.236863 462.300136 
L 272.350169 462.642874 
L 270.996093 462.723203 
L 269.260097 462.554512 
L 268.066266 462.091281 
L 266.447784 461.121976 
L 266.462473 460.957301 
L 266.182043 460.702926 
L 265.728596 459.887821 
L 265.704643 459.856222 
L 265.3501 458.923636 
L 265.088365 457.713344 
L 265.018926 456.254032 
L 265.745373 453.777218 
L 266.491851 452.212139 
L 266.625961 452.044743 
L 268.015261 453.092594 
L 268.70991 451.948903 
L 267.416205 450.984113 
L 267.902014 450.340471 
L 268.936935 449.418025 
L 270.986745 448.565198 
L 273.860486 447.831525 
L 275.444248 447.0443 
L 277.094779 445.751001 
L 280.156809 442.094688 
L 284.157611 436.533236 
L 287.660317 431.053452 
L 288.322666 430.282293 
L 289.981209 428.927409 
L 291.49019 428.0304 
L 293.373078 427.235142 
L 294.908767 427.004865 
L 296.612713 427.079839 
L 298.004181 427.435965 
L 300.114083 428.598059 
L 300.840531 429.441515 
L 302.302773 430.465711 
L 304.225722 432.364156 
L 305.427566 433.250453 
L 309.372282 435.405951 
L 314.418688 437.785032 
L 314.749703 438.145816 
L 315.602637 438.593089 
L 316.963231 438.925544 
L 321.044156 439.281134 
L 323.414084 438.548533 
L 323.999515 437.596579 
L 324.332827 437.469767 
L 324.428547 437.600007 
L 324.838776 437.512609 
L 325.278918 437.009641 
L 325.453265 436.471544 
L 325.762646 436.332735 
L 326.595924 435.802349 
L 327.039484 434.511085 
L 327.159135 434.576205 
L 327.829176 433.578839 
L 328.395642 432.549972 
L 328.941976 431.559699 
L 329.794002 430.010084 
L 330.326446 428.886762 
L 330.558909 427.599783 
L 330.719582 426.086597 
L 330.506775 424.056734 
L 330.2444 423.193892 
L 329.29489 421.301124 
L 328.454775 420.188084 
L 328.197527 419.326956 
L 327.239772 417.689305 
L 327.246308 416.011827 
L 327.812937 414.943343 
L 328.365037 414.305851 
L 331.404152 411.9958 
L 333.962101 410.504035 
L 334.843239 409.780002 
L 335.517554 408.910305 
L 336.069654 407.902657 
L 336.568766 406.310641 
L 338.459239 406.007319 
L 338.558377 405.851373 
L 337.565281 405.931916 
L 336.978995 405.763975 
L 336.712346 403.764101 
L 335.8389 399.512442 
L 335.656861 397.059299 
L 335.850865 396.088495 
L 336.590132 395.115977 
L 337.216586 394.597586 
L 338.522482 394.002937 
L 339.945465 393.553094 
L 341.088124 393.514536 
L 343.517877 394.168308 
L 347.822719 396.439801 
L 349.629437 397.029309 
L 350.119148 397.239236 
L 351.294283 397.185255 
L 351.856639 397.812464 
L 352.283106 397.830458 
L 352.557447 397.48515 
L 353.358249 397.316352 
L 354.209474 397.386613 
L 355.622201 397.282935 
L 355.972605 396.664294 
L 357.262263 395.217084 
L 358.15622 394.581306 
L 359.637319 393.3723 
L 361.117562 391.487243 
L 363.135106 389.059771 
L 370.693093 382.712886 
L 373.386921 381.34727 
L 376.802261 380.163828 
L 382.654756 378.694492 
L 384.308784 378.202207 
L 387.997658 378.39485 
L 389.945715 378.756677 
L 392.742495 379.07003 
L 395.337663 380.050781 
L 398.150868 380.459996 
L 400.725251 379.873858 
L 401.147047 379.640693 
L 401.770182 379.525729 
L 400.76588 378.658257 
L 401.007679 375.821956 
L 389.981749 375.264386 
L 389.183819 375.628014 
L 389.132617 376.305618 
L 384.113345 374.71767 
L 383.973297 374.704619 
L 384.413658 373.691327 
L 384.825398 372.365512 
L 384.929087 371.738708 
L 385.135079 371.101386 
L 385.310322 370.427935 
L 385.498505 369.82631 
L 385.723064 369.108389 
L 386.154861 367.727925 
L 386.186933 367.069798 
L 386.39949 365.711799 
L 386.704306 364.373897 
L 386.746638 363.72049 
L 387.016888 361.620219 
L 387.074865 361.021172 
L 387.288512 358.813654 
L 387.342339 357.412567 
L 387.242166 356.132913 
L 387.126991 354.661603 
L 386.946848 353.56744 
L 386.766372 352.471247 
L 386.411112 350.674803 
L 386.257765 349.428886 
L 385.931457 347.896902 
L 385.41513 346.421812 
L 384.938385 345.272756 
L 384.473319 344.151848 
L 383.866362 342.934847 
L 383.356451 341.91243 
L 382.972134 341.243914 
L 382.413112 340.271501 
L 381.791473 339.275271 
L 380.524984 337.452815 
L 379.296367 336.352286 
L 377.583514 334.673258 
L 376.512322 333.990871 
L 375.659089 333.304502 
L 374.852001 332.56614 
L 373.895598 331.900561 
L 373.047091 331.15687 
L 372.501705 330.802361 
L 371.533554 330.196456 
L 370.773726 329.702929 
L 370.073864 329.175084 
L 369.358856 328.394438 
L 368.69626 327.476397 
L 368.160323 326.733846 
L 367.794691 326.193953 
L 367.599616 325.905906 
L 366.889638 325.244327 
L 366.13382 324.961848 
L 365.70589 324.972982 
L 365.089892 325.095343 
L 364.574548 325.278035 
L 363.417037 325.437721 
L 362.409937 325.75958 
L 361.840073 326.367396 
L 360.396953 327.583312 
L 360.305583 326.421388 
L 357.201768 324.692654 
L 339.798384 321.682113 
L 335.873774 326.670677 
L 332.333495 326.799872 
L 322.978628 323.394477 
L 319.544866 323.446872 
L 319.917834 320.754523 
L 314.96742 317.472629 
L 313.04995 311.85572 
L 313.904745 310.546995 
L 320.645513 304.222721 
L 324.618073 307.353514 
L 327.890819 307.532796 
L 334.659767 302.056336 
L 336.151792 304.391932 
L 347.948969 308.475595 
L 349.078506 304.46079 
L 347.62103 302.978497 
L 343.7335 287.322726 
L 341.280424 286.058045 
L 340.866746 285.248714 
L 341.981539 284.202568 
L 348.533155 285.207324 
L 354.530232 285.181227 
L 359.56195 284.018694 
L 363.946821 281.101361 
L 367.293357 277.338226 
L 369.529096 274.101003 
L 372.492039 268.568998 
L 374.60942 262.205608 
L 375.879484 256.081147 
L 378.048073 251.495443 
L 382.796311 249.651301 
L 390.790827 245.931498 
L 396.94635 243.830226 
L 409.873685 242.1442 
L 415.163348 240.879251 
L 420.011133 236.422998 
L 422.911709 232.653852 
L 424.806658 227.703256 
L 425.525142 219.138243 
L 427.205986 213.379054 
L 429.825317 209.680678 
L 433.726287 207.572896 
L 438.137167 205.47418 
L 440.492484 203.769227 
L 445.670566 198.770457 
L 450.474391 194.583874 
L 454.843188 191.890533 
L 461.29746 188.176869 
L 464.30192 185.469986 
L 466.269246 183.139842 
L 475.939997 177.97207 
L 478.986266 185.879218 
L 487.14579 198.297915 
L 490.465595 205.101434 
L 494.800262 204.282814 
L 503.753345 202.88847 
L 500.091446 194.121123 
L 494.216165 194.896172 
L 493.259539 192.696425 
L 491.392136 190.380797 
L 492.109525 190.061137 
L 491.744572 189.1061 
L 488.992132 185.335916 
L 488.012636 185.572954 
L 487.497598 185.807038 
L 483.202977 176.312443 
L 481.078408 177.310344 
L 482.328495 172.367137 
L 482.073878 171.680164 
L 481.461506 171.412889 
L 482.325326 170.468617 
L 484.269263 168.552379 
L 485.808636 167.292675 
L 486.565007 166.799469 
L 487.337948 165.996389 
L 487.445815 165.804941 
L 487.607216 165.31277 
L 488.417271 164.573541 
L 489.497338 163.587879 
L 490.09145 163.094986 
L 490.982457 162.273627 
L 492.467973 161.177949 
L 493.926469 160.109666 
L 495.087795 159.233193 
L 496.492144 158.137651 
L 498.002836 157.194431 
L 499.895168 156.327039 
L 500.63002 156.074504 
L 500.826907 156.052805 
L 501.15222 156.084352 
L 502.000122 156.868861 
L 499.050779 160.391042 
L 498.788088 160.144947 
L 498.866511 160.620856 
L 499.3196 161.557874 
L 499.715221 161.919537 
L 500.301187 162.216882 
L 500.985709 162.400399 
L 502.25555 162.511819 
L 503.60302 162.644379 
L 505.500861 162.889659 
L 507.327846 162.957427 
L 507.962839 163.055755 
L 508.238117 163.15473 
L 508.943264 163.310463 
L 508.148245 164.652885 
L 509.664489 165.494396 
L 512.155462 165.792997 
L 515.51286 166.933108 
L 517.489393 168.073219 
L 517.963219 168.493974 
L 519.347339 166.921629 
L 520.174508 166.477972 
L 521.848227 164.866884 
L 523.70329 163.607793 
L 524.250146 161.69903 
L 523.43795 160.359455 
L 523.999149 159.808674 
L 524.558323 159.224507 
L 525.136169 158.620833 
L 526.640612 161.437391 
L 527.849511 160.598308 
L 527.571297 158.863398 
L 526.299597 157.429587 
L 527.650698 155.993915 
L 533.292396 152.981739 
L 539.330237 150.805352 
L 545.747969 150.767512 
L 549.236067 158.053009 
L 552.680916 155.934155 
M 561.330313 192.185772 
L 563.037274 195.978177 
L 563.556431 195.505241 
L 564.031796 195.088289 
L 562.383418 191.989297 
L 562.012759 191.996565 
L 561.330313 192.185772 
" clip-path="url(#p2905446f1a)" style="fill: #b3e2cd; fill-opacity: 0.65"/>
   </g>
   <g id="PatchCollection_2">
    <path d="M 308.381557 315.728678 
L 313.904759 310.546984 
L 313.049964 311.855709 
L 314.967434 317.472618 
L 319.917848 320.754513 
L 319.544879 323.446862 
L 322.978642 323.394466 
L 332.333509 326.799861 
L 335.873788 326.670666 
L 339.798398 321.682103 
L 357.201782 324.692643 
L 360.305597 326.421377 
L 360.531573 329.295522 
L 354.797225 332.645118 
L 344.66872 343.970501 
L 335.06575 345.746042 
L 335.085288 342.516069 
L 340.822683 340.489393 
L 341.864994 337.388627 
L 342.44257 330.47952 
L 339.889409 329.233443 
L 337.086231 334.429534 
L 334.420765 336.07108 
L 325.424831 338.447221 
L 321.885627 338.129001 
L 308.538741 334.959821 
L 300.060082 327.487298 
L 308.381557 315.728678 
" clip-path="url(#p2905446f1a)" style="fill: none; stroke: #000000; stroke-width: 2"/>
   </g>
   <g id="matplotlib.axis_1">
    <g id="xtick_1">
     <g id="line2d_1">
      <path d="M 145.982189 750.427736 
L 145.982189 122.212264 
" clip-path="url(#p2905446f1a)" style="fill: none; stroke: #b0b0b0; stroke-width: 0.8; stroke-linecap: square"/>
     </g>
     <g id="line2d_2">
      <defs>
       <path id="m4344a21c96" d="M 0 0 
L 0 3.5 
" style="stroke: #000000; stroke-width: 0.8"/>
      </defs>
      <g>
       <use xlink:href="#m4344a21c96" x="145.982189" y="750.427736" style="stroke: #000000; stroke-width: 0.8"/>
      </g>
     </g>
     <g id="text_1">
      <!-- 62.4 -->
      <g transform="translate(137.098608 784.470151) rotate(-45) scale(0.1 -0.1)">
       <defs>
        <path id="DejaVuSans-2212" d="M 678 2272 
L 4684 2272 
L 4684 1741 
L 678 1741 
L 678 2272 
z
" transform="scale(0.015625)"/>
        <path id="DejaVuSans-36" d="M 2113 2584 
Q 1688 2584 1439 2293 
Q 1191 2003 1191 1497 
Q 1191 994 1439 701 
Q 1688 409 2113 409 
Q 2538 409 2786 701 
Q 3034 994 3034 1497 
Q 3034 2003 2786 2293 
Q 2538 2584 2113 2584 
z
M 3366 4563 
L 3366 3988 
Q 3128 4100 2886 4159 
Q 2644 4219 2406 4219 
Q 1781 4219 1451 3797 
Q 1122 3375 1075 2522 
Q 1259 2794 1537 2939 
Q 1816 3084 2150 3084 
Q 2853 3084 3261 2657 
Q 3669 2231 3669 1497 
Q 3669 778 3244 343 
Q 2819 -91 2113 -91 
Q 1303 -91 875 529 
Q 447 1150 447 2328 
Q 447 3434 972 4092 
Q 1497 4750 2381 4750 
Q 2619 4750 2861 4703 
Q 3103 4656 3366 4563 
z
" transform="scale(0.015625)"/>
        <path id="DejaVuSans-32" d="M 1228 531 
L 3431 531 
L 3431 0 
L 469 0 
L 469 531 
Q 828 903 1448 1529 
Q 2069 2156 2228 2338 
Q 2531 2678 2651 2914 
Q 2772 3150 2772 3378 
Q 2772 3750 2511 3984 
Q 2250 4219 1831 4219 
Q 1534 4219 1204 4116 
Q 875 4013 500 3803 
L 500 4441 
Q 881 4594 1212 4672 
Q 1544 4750 1819 4750 
Q 2544 4750 2975 4387 
Q 3406 4025 3406 3419 
Q 3406 3131 3298 2873 
Q 3191 2616 2906 2266 
Q 2828 2175 2409 1742 
Q 1991 1309 1228 531 
z
" transform="scale(0.015625)"/>
        <path id="DejaVuSans-2e" d="M 684 794 
L 1344 794 
L 1344 0 
L 684 0 
L 684 794 
z
" transform="scale(0.015625)"/>
        <path id="DejaVuSans-34" d="M 2419 4116 
L 825 1625 
L 2419 1625 
L 2419 4116 
z
M 2253 4666 
L 3047 4666 
L 3047 1625 
L 3713 1625 
L 3713 1100 
L 3047 1100 
L 3047 0 
L 2419 0 
L 2419 1100 
L 313 1100 
L 313 1709 
L 2253 4666 
z
" transform="scale(0.015625)"/>
       </defs>
       <use xlink:href="#DejaVuSans-2212"/>
       <use xlink:href="#DejaVuSans-36" transform="translate(83.789062 0)"/>
       <use xlink:href="#DejaVuSans-32" transform="translate(147.412109 0)"/>
       <use xlink:href="#DejaVuSans-2e" transform="translate(211.035156 0)"/>
       <use xlink:href="#DejaVuSans-34" transform="translate(242.822266 0)"/>
      </g>
     </g>
    </g>
    <g id="xtick_2">
     <g id="line2d_3">
      <path d="M 217.548931 750.427736 
L 217.548931 122.212264 
" clip-path="url(#p2905446f1a)" style="fill: none; stroke: #b0b0b0; stroke-width: 0.8; stroke-linecap: square"/>
     </g>
     <g id="line2d_4">
      <g>
       <use xlink:href="#m4344a21c96" x="217.548931" y="750.427736" style="stroke: #000000; stroke-width: 0.8"/>
      </g>
     </g>
     <g id="text_2">
      <!-- 62.2 -->
      <g transform="translate(208.66535 784.470151) rotate(-45) scale(0.1 -0.1)">
       <use xlink:href="#DejaVuSans-2212"/>
       <use xlink:href="#DejaVuSans-36" transform="translate(83.789062 0)"/>
       <use xlink:href="#DejaVuSans-32" transform="translate(147.412109 0)"/>
       <use xlink:href="#DejaVuSans-2e" transform="translate(211.035156 0)"/>
       <use xlink:href="#DejaVuSans-32" transform="translate(242.822266 0)"/>
      </g>
     </g>
    </g>
    <g id="xtick_3">
     <g id="line2d_5">
      <path d="M 289.115673 750.427736 
L 289.115673 122.212264 
" clip-path="url(#p2905446f1a)" style="fill: none; stroke: #b0b0b0; stroke-width: 0.8; stroke-linecap: square"/>
     </g>
     <g id="line2d_6">
      <g>
       <use xlink:href="#m4344a21c96" x="289.115673" y="750.427736" style="stroke: #000000; stroke-width: 0.8"/>
      </g>
     </g>
     <g id="text_3">
      <!-- 62.0 -->
      <g transform="translate(280.232092 784.470151) rotate(-45) scale(0.1 -0.1)">
       <defs>
        <path id="DejaVuSans-30" d="M 2034 4250 
Q 1547 4250 1301 3770 
Q 1056 3291 1056 2328 
Q 1056 1369 1301 889 
Q 1547 409 2034 409 
Q 2525 409 2770 889 
Q 3016 1369 3016 2328 
Q 3016 3291 2770 3770 
Q 2525 4250 2034 4250 
z
M 2034 4750 
Q 2819 4750 3233 4129 
Q 3647 3509 3647 2328 
Q 3647 1150 3233 529 
Q 2819 -91 2034 -91 
Q 1250 -91 836 529 
Q 422 1150 422 2328 
Q 422 3509 836 4129 
Q 1250 4750 2034 4750 
z
" transform="scale(0.015625)"/>
       </defs>
       <use xlink:href="#DejaVuSans-2212"/>
       <use xlink:href="#DejaVuSans-36" transform="translate(83.789062 0)"/>
       <use xlink:href="#DejaVuSans-32" transform="translate(147.412109 0)"/>
       <use xlink:href="#DejaVuSans-2e" transform="translate(211.035156 0)"/>
       <use xlink:href="#DejaVuSans-30" transform="translate(242.822266 0)"/>
      </g>
     </g>
    </g>
    <g id="xtick_4">
     <g id="line2d_7">
      <path d="M 360.682415 750.427736 
L 360.682415 122.212264 
" clip-path="url(#p2905446f1a)" style="fill: none; stroke: #b0b0b0; stroke-width: 0.8; stroke-linecap: square"/>
     </g>
     <g id="line2d_8">
      <g>
       <use xlink:href="#m4344a21c96" x="360.682415" y="750.427736" style="stroke: #000000; stroke-width: 0.8"/>
      </g>
     </g>
     <g id="text_4">
      <!-- 61.8 -->
      <g transform="translate(351.798834 784.470151) rotate(-45) scale(0.1 -0.1)">
       <defs>
        <path id="DejaVuSans-31" d="M 794 531 
L 1825 531 
L 1825 4091 
L 703 3866 
L 703 4441 
L 1819 4666 
L 2450 4666 
L 2450 531 
L 3481 531 
L 3481 0 
L 794 0 
L 794 531 
z
" transform="scale(0.015625)"/>
        <path id="DejaVuSans-38" d="M 2034 2216 
Q 1584 2216 1326 1975 
Q 1069 1734 1069 1313 
Q 1069 891 1326 650 
Q 1584 409 2034 409 
Q 2484 409 2743 651 
Q 3003 894 3003 1313 
Q 3003 1734 2745 1975 
Q 2488 2216 2034 2216 
z
M 1403 2484 
Q 997 2584 770 2862 
Q 544 3141 544 3541 
Q 544 4100 942 4425 
Q 1341 4750 2034 4750 
Q 2731 4750 3128 4425 
Q 3525 4100 3525 3541 
Q 3525 3141 3298 2862 
Q 3072 2584 2669 2484 
Q 3125 2378 3379 2068 
Q 3634 1759 3634 1313 
Q 3634 634 3220 271 
Q 2806 -91 2034 -91 
Q 1263 -91 848 271 
Q 434 634 434 1313 
Q 434 1759 690 2068 
Q 947 2378 1403 2484 
z
M 1172 3481 
Q 1172 3119 1398 2916 
Q 1625 2713 2034 2713 
Q 2441 2713 2670 2916 
Q 2900 3119 2900 3481 
Q 2900 3844 2670 4047 
Q 2441 4250 2034 4250 
Q 1625 4250 1398 4047 
Q 1172 3844 1172 3481 
z
" transform="scale(0.015625)"/>
       </defs>
       <use xlink:href="#DejaVuSans-2212"/>
       <use xlink:href="#DejaVuSans-36" transform="translate(83.789062 0)"/>
       <use xlink:href="#DejaVuSans-31" transform="translate(147.412109 0)"/>
       <use xlink:href="#DejaVuSans-2e" transform="translate(211.035156 0)"/>
       <use xlink:href="#DejaVuSans-38" transform="translate(242.822266 0)"/>
      </g>
     </g>
    </g>
    <g id="xtick_5">
     <g id="line2d_9">
      <path d="M 432.249157 750.427736 
L 432.249157 122.212264 
" clip-path="url(#p2905446f1a)" style="fill: none; stroke: #b0b0b0; stroke-width: 0.8; stroke-linecap: square"/>
     </g>
     <g id="line2d_10">
      <g>
       <use xlink:href="#m4344a21c96" x="432.249157" y="750.427736" style="stroke: #000000; stroke-width: 0.8"/>
      </g>
     </g>
     <g id="text_5">
      <!-- 61.6 -->
      <g transform="translate(423.365576 784.470151) rotate(-45) scale(0.1 -0.1)">
       <use xlink:href="#DejaVuSans-2212"/>
       <use xlink:href="#DejaVuSans-36" transform="translate(83.789062 0)"/>
       <use xlink:href="#DejaVuSans-31" transform="translate(147.412109 0)"/>
       <use xlink:href="#DejaVuSans-2e" transform="translate(211.035156 0)"/>
       <use xlink:href="#DejaVuSans-36" transform="translate(242.822266 0)"/>
      </g>
     </g>
    </g>
    <g id="xtick_6">
     <g id="line2d_11">
      <path d="M 503.815899 750.427736 
L 503.815899 122.212264 
" clip-path="url(#p2905446f1a)" style="fill: none; stroke: #b0b0b0; stroke-width: 0.8; stroke-linecap: square"/>
     </g>
     <g id="line2d_12">
      <g>
       <use xlink:href="#m4344a21c96" x="503.815899" y="750.427736" style="stroke: #000000; stroke-width: 0.8"/>
      </g>
     </g>
     <g id="text_6">
      <!-- 61.4 -->
      <g transform="translate(494.932318 784.470151) rotate(-45) scale(0.1 -0.1)">
       <use xlink:href="#DejaVuSans-2212"/>
       <use xlink:href="#DejaVuSans-36" transform="translate(83.789062 0)"/>
       <use xlink:href="#DejaVuSans-31" transform="translate(147.412109 0)"/>
       <use xlink:href="#DejaVuSans-2e" transform="translate(211.035156 0)"/>
       <use xlink:href="#DejaVuSans-34" transform="translate(242.822266 0)"/>
      </g>
     </g>
    </g>
    <g id="xtick_7">
     <g id="line2d_13">
      <path d="M 575.382641 750.427736 
L 575.382641 122.212264 
" clip-path="url(#p2905446f1a)" style="fill: none; stroke: #b0b0b0; stroke-width: 0.8; stroke-linecap: square"/>
     </g>
     <g id="line2d_14">
      <g>
       <use xlink:href="#m4344a21c96" x="575.382641" y="750.427736" style="stroke: #000000; stroke-width: 0.8"/>
      </g>
     </g>
     <g id="text_7">
      <!-- 61.2 -->
      <g transform="translate(566.499059 784.470151) rotate(-45) scale(0.1 -0.1)">
       <use xlink:href="#DejaVuSans-2212"/>
       <use xlink:href="#DejaVuSans-36" transform="translate(83.789062 0)"/>
       <use xlink:href="#DejaVuSans-31" transform="translate(147.412109 0)"/>
       <use xlink:href="#DejaVuSans-2e" transform="translate(211.035156 0)"/>
       <use xlink:href="#DejaVuSans-32" transform="translate(242.822266 0)"/>
      </g>
     </g>
    </g>
    <g id="xtick_8">
     <g id="line2d_15">
      <path d="M 646.949383 750.427736 
L 646.949383 122.212264 
" clip-path="url(#p2905446f1a)" style="fill: none; stroke: #b0b0b0; stroke-width: 0.8; stroke-linecap: square"/>
     </g>
     <g id="line2d_16">
      <g>
       <use xlink:href="#m4344a21c96" x="646.949383" y="750.427736" style="stroke: #000000; stroke-width: 0.8"/>
      </g>
     </g>
     <g id="text_8">
      <!-- 61.0 -->
      <g transform="translate(638.065801 784.470151) rotate(-45) scale(0.1 -0.1)">
       <use xlink:href="#DejaVuSans-2212"/>
       <use xlink:href="#DejaVuSans-36" transform="translate(83.789062 0)"/>
       <use xlink:href="#DejaVuSans-31" transform="translate(147.412109 0)"/>
       <use xlink:href="#DejaVuSans-2e" transform="translate(211.035156 0)"/>
       <use xlink:href="#DejaVuSans-30" transform="translate(242.822266 0)"/>
      </g>
     </g>
    </g>
    <g id="text_9">
     <!-- Longitude () -->
     <g transform="translate(336.139844 797.53915) scale(0.1 -0.1)">
      <defs>
       <path id="DejaVuSans-4c" d="M 628 4666 
L 1259 4666 
L 1259 531 
L 3531 531 
L 3531 0 
L 628 0 
L 628 4666 
z
" transform="scale(0.015625)"/>
       <path id="DejaVuSans-6f" d="M 1959 3097 
Q 1497 3097 1228 2736 
Q 959 2375 959 1747 
Q 959 1119 1226 758 
Q 1494 397 1959 397 
Q 2419 397 2687 759 
Q 2956 1122 2956 1747 
Q 2956 2369 2687 2733 
Q 2419 3097 1959 3097 
z
M 1959 3584 
Q 2709 3584 3137 3096 
Q 3566 2609 3566 1747 
Q 3566 888 3137 398 
Q 2709 -91 1959 -91 
Q 1206 -91 779 398 
Q 353 888 353 1747 
Q 353 2609 779 3096 
Q 1206 3584 1959 3584 
z
" transform="scale(0.015625)"/>
       <path id="DejaVuSans-6e" d="M 3513 2113 
L 3513 0 
L 2938 0 
L 2938 2094 
Q 2938 2591 2744 2837 
Q 2550 3084 2163 3084 
Q 1697 3084 1428 2787 
Q 1159 2491 1159 1978 
L 1159 0 
L 581 0 
L 581 3500 
L 1159 3500 
L 1159 2956 
Q 1366 3272 1645 3428 
Q 1925 3584 2291 3584 
Q 2894 3584 3203 3211 
Q 3513 2838 3513 2113 
z
" transform="scale(0.015625)"/>
       <path id="DejaVuSans-67" d="M 2906 1791 
Q 2906 2416 2648 2759 
Q 2391 3103 1925 3103 
Q 1463 3103 1205 2759 
Q 947 2416 947 1791 
Q 947 1169 1205 825 
Q 1463 481 1925 481 
Q 2391 481 2648 825 
Q 2906 1169 2906 1791 
z
M 3481 434 
Q 3481 -459 3084 -895 
Q 2688 -1331 1869 -1331 
Q 1566 -1331 1297 -1286 
Q 1028 -1241 775 -1147 
L 775 -588 
Q 1028 -725 1275 -790 
Q 1522 -856 1778 -856 
Q 2344 -856 2625 -561 
Q 2906 -266 2906 331 
L 2906 616 
Q 2728 306 2450 153 
Q 2172 0 1784 0 
Q 1141 0 747 490 
Q 353 981 353 1791 
Q 353 2603 747 3093 
Q 1141 3584 1784 3584 
Q 2172 3584 2450 3431 
Q 2728 3278 2906 2969 
L 2906 3500 
L 3481 3500 
L 3481 434 
z
" transform="scale(0.015625)"/>
       <path id="DejaVuSans-69" d="M 603 3500 
L 1178 3500 
L 1178 0 
L 603 0 
L 603 3500 
z
M 603 4863 
L 1178 4863 
L 1178 4134 
L 603 4134 
L 603 4863 
z
" transform="scale(0.015625)"/>
       <path id="DejaVuSans-74" d="M 1172 4494 
L 1172 3500 
L 2356 3500 
L 2356 3053 
L 1172 3053 
L 1172 1153 
Q 1172 725 1289 603 
Q 1406 481 1766 481 
L 2356 481 
L 2356 0 
L 1766 0 
Q 1100 0 847 248 
Q 594 497 594 1153 
L 594 3053 
L 172 3053 
L 172 3500 
L 594 3500 
L 594 4494 
L 1172 4494 
z
" transform="scale(0.015625)"/>
       <path id="DejaVuSans-75" d="M 544 1381 
L 544 3500 
L 1119 3500 
L 1119 1403 
Q 1119 906 1312 657 
Q 1506 409 1894 409 
Q 2359 409 2629 706 
Q 2900 1003 2900 1516 
L 2900 3500 
L 3475 3500 
L 3475 0 
L 2900 0 
L 2900 538 
Q 2691 219 2414 64 
Q 2138 -91 1772 -91 
Q 1169 -91 856 284 
Q 544 659 544 1381 
z
M 1991 3584 
L 1991 3584 
z
" transform="scale(0.015625)"/>
       <path id="DejaVuSans-64" d="M 2906 2969 
L 2906 4863 
L 3481 4863 
L 3481 0 
L 2906 0 
L 2906 525 
Q 2725 213 2448 61 
Q 2172 -91 1784 -91 
Q 1150 -91 751 415 
Q 353 922 353 1747 
Q 353 2572 751 3078 
Q 1150 3584 1784 3584 
Q 2172 3584 2448 3432 
Q 2725 3281 2906 2969 
z
M 947 1747 
Q 947 1113 1208 752 
Q 1469 391 1925 391 
Q 2381 391 2643 752 
Q 2906 1113 2906 1747 
Q 2906 2381 2643 2742 
Q 2381 3103 1925 3103 
Q 1469 3103 1208 2742 
Q 947 2381 947 1747 
z
" transform="scale(0.015625)"/>
       <path id="DejaVuSans-65" d="M 3597 1894 
L 3597 1613 
L 953 1613 
Q 991 1019 1311 708 
Q 1631 397 2203 397 
Q 2534 397 2845 478 
Q 3156 559 3463 722 
L 3463 178 
Q 3153 47 2828 -22 
Q 2503 -91 2169 -91 
Q 1331 -91 842 396 
Q 353 884 353 1716 
Q 353 2575 817 3079 
Q 1281 3584 2069 3584 
Q 2775 3584 3186 3129 
Q 3597 2675 3597 1894 
z
M 3022 2063 
Q 3016 2534 2758 2815 
Q 2500 3097 2075 3097 
Q 1594 3097 1305 2825 
Q 1016 2553 972 2059 
L 3022 2063 
z
" transform="scale(0.015625)"/>
       <path id="DejaVuSans-20" transform="scale(0.015625)"/>
       <path id="DejaVuSans-28" d="M 1984 4856 
Q 1566 4138 1362 3434 
Q 1159 2731 1159 2009 
Q 1159 1288 1364 580 
Q 1569 -128 1984 -844 
L 1484 -844 
Q 1016 -109 783 600 
Q 550 1309 550 2009 
Q 550 2706 781 3412 
Q 1013 4119 1484 4856 
L 1984 4856 
z
" transform="scale(0.015625)"/>
       <path id="DejaVuSans-b0" d="M 1600 4347 
Q 1350 4347 1178 4173 
Q 1006 4000 1006 3750 
Q 1006 3503 1178 3333 
Q 1350 3163 1600 3163 
Q 1850 3163 2022 3333 
Q 2194 3503 2194 3750 
Q 2194 3997 2020 4172 
Q 1847 4347 1600 4347 
z
M 1600 4750 
Q 1800 4750 1984 4673 
Q 2169 4597 2303 4453 
Q 2447 4313 2519 4134 
Q 2591 3956 2591 3750 
Q 2591 3338 2302 3052 
Q 2013 2766 1594 2766 
Q 1172 2766 890 3047 
Q 609 3328 609 3750 
Q 609 4169 896 4459 
Q 1184 4750 1600 4750 
z
" transform="scale(0.015625)"/>
       <path id="DejaVuSans-29" d="M 513 4856 
L 1013 4856 
Q 1481 4119 1714 3412 
Q 1947 2706 1947 2009 
Q 1947 1309 1714 600 
Q 1481 -109 1013 -844 
L 513 -844 
Q 928 -128 1133 580 
Q 1338 1288 1338 2009 
Q 1338 2731 1133 3434 
Q 928 4138 513 4856 
z
" transform="scale(0.015625)"/>
      </defs>
      <use xlink:href="#DejaVuSans-4c"/>
      <use xlink:href="#DejaVuSans-6f" transform="translate(53.962891 0)"/>
      <use xlink:href="#DejaVuSans-6e" transform="translate(115.144531 0)"/>
      <use xlink:href="#DejaVuSans-67" transform="translate(178.523438 0)"/>
      <use xlink:href="#DejaVuSans-69" transform="translate(242 0)"/>
      <use xlink:href="#DejaVuSans-74" transform="translate(269.783203 0)"/>
      <use xlink:href="#DejaVuSans-75" transform="translate(308.992188 0)"/>
      <use xlink:href="#DejaVuSans-64" transform="translate(372.371094 0)"/>
      <use xlink:href="#DejaVuSans-65" transform="translate(435.847656 0)"/>
      <use xlink:href="#DejaVuSans-20" transform="translate(497.371094 0)"/>
      <use xlink:href="#DejaVuSans-28" transform="translate(529.158203 0)"/>
      <use xlink:href="#DejaVuSans-b0" transform="translate(568.171875 0)"/>
      <use xlink:href="#DejaVuSans-29" transform="translate(618.171875 0)"/>
     </g>
    </g>
   </g>
   <g id="matplotlib.axis_2">
    <g id="ytick_1">
     <g id="line2d_17">
      <path d="M 90 720.465725 
L 648 720.465725 
" clip-path="url(#p2905446f1a)" style="fill: none; stroke: #b0b0b0; stroke-width: 0.8; stroke-linecap: square"/>
     </g>
     <g id="line2d_18">
      <defs>
       <path id="m5f39c67472" d="M 0 0 
L -3.5 0 
" style="stroke: #000000; stroke-width: 0.8"/>
      </defs>
      <g>
       <use xlink:href="#m5f39c67472" x="90" y="720.465725" style="stroke: #000000; stroke-width: 0.8"/>
      </g>
     </g>
     <g id="text_10">
      <!-- 5.2 -->
      <g transform="translate(58.717187 724.264943) scale(0.1 -0.1)">
       <defs>
        <path id="DejaVuSans-35" d="M 691 4666 
L 3169 4666 
L 3169 4134 
L 1269 4134 
L 1269 2991 
Q 1406 3038 1543 3061 
Q 1681 3084 1819 3084 
Q 2600 3084 3056 2656 
Q 3513 2228 3513 1497 
Q 3513 744 3044 326 
Q 2575 -91 1722 -91 
Q 1428 -91 1123 -41 
Q 819 9 494 109 
L 494 744 
Q 775 591 1075 516 
Q 1375 441 1709 441 
Q 2250 441 2565 725 
Q 2881 1009 2881 1497 
Q 2881 1984 2565 2268 
Q 2250 2553 1709 2553 
Q 1456 2553 1204 2497 
Q 953 2441 691 2322 
L 691 4666 
z
" transform="scale(0.015625)"/>
       </defs>
       <use xlink:href="#DejaVuSans-2212"/>
       <use xlink:href="#DejaVuSans-35" transform="translate(83.789062 0)"/>
       <use xlink:href="#DejaVuSans-2e" transform="translate(147.412109 0)"/>
       <use xlink:href="#DejaVuSans-32" transform="translate(179.199219 0)"/>
      </g>
     </g>
    </g>
    <g id="ytick_2">
     <g id="line2d_19">
      <path d="M 90 648.714779 
L 648 648.714779 
" clip-path="url(#p2905446f1a)" style="fill: none; stroke: #b0b0b0; stroke-width: 0.8; stroke-linecap: square"/>
     </g>
     <g id="line2d_20">
      <g>
       <use xlink:href="#m5f39c67472" x="90" y="648.714779" style="stroke: #000000; stroke-width: 0.8"/>
      </g>
     </g>
     <g id="text_11">
      <!-- 5.0 -->
      <g transform="translate(58.717187 652.513998) scale(0.1 -0.1)">
       <use xlink:href="#DejaVuSans-2212"/>
       <use xlink:href="#DejaVuSans-35" transform="translate(83.789062 0)"/>
       <use xlink:href="#DejaVuSans-2e" transform="translate(147.412109 0)"/>
       <use xlink:href="#DejaVuSans-30" transform="translate(179.199219 0)"/>
      </g>
     </g>
    </g>
    <g id="ytick_3">
     <g id="line2d_21">
      <path d="M 90 576.963834 
L 648 576.963834 
" clip-path="url(#p2905446f1a)" style="fill: none; stroke: #b0b0b0; stroke-width: 0.8; stroke-linecap: square"/>
     </g>
     <g id="line2d_22">
      <g>
       <use xlink:href="#m5f39c67472" x="90" y="576.963834" style="stroke: #000000; stroke-width: 0.8"/>
      </g>
     </g>
     <g id="text_12">
      <!-- 4.8 -->
      <g transform="translate(58.717187 580.763053) scale(0.1 -0.1)">
       <use xlink:href="#DejaVuSans-2212"/>
       <use xlink:href="#DejaVuSans-34" transform="translate(83.789062 0)"/>
       <use xlink:href="#DejaVuSans-2e" transform="translate(147.412109 0)"/>
       <use xlink:href="#DejaVuSans-38" transform="translate(179.199219 0)"/>
      </g>
     </g>
    </g>
    <g id="ytick_4">
     <g id="line2d_23">
      <path d="M 90 505.212888 
L 648 505.212888 
" clip-path="url(#p2905446f1a)" style="fill: none; stroke: #b0b0b0; stroke-width: 0.8; stroke-linecap: square"/>
     </g>
     <g id="line2d_24">
      <g>
       <use xlink:href="#m5f39c67472" x="90" y="505.212888" style="stroke: #000000; stroke-width: 0.8"/>
      </g>
     </g>
     <g id="text_13">
      <!-- 4.6 -->
      <g transform="translate(58.717187 509.012107) scale(0.1 -0.1)">
       <use xlink:href="#DejaVuSans-2212"/>
       <use xlink:href="#DejaVuSans-34" transform="translate(83.789062 0)"/>
       <use xlink:href="#DejaVuSans-2e" transform="translate(147.412109 0)"/>
       <use xlink:href="#DejaVuSans-36" transform="translate(179.199219 0)"/>
      </g>
     </g>
    </g>
    <g id="ytick_5">
     <g id="line2d_25">
      <path d="M 90 433.461943 
L 648 433.461943 
" clip-path="url(#p2905446f1a)" style="fill: none; stroke: #b0b0b0; stroke-width: 0.8; stroke-linecap: square"/>
     </g>
     <g id="line2d_26">
      <g>
       <use xlink:href="#m5f39c67472" x="90" y="433.461943" style="stroke: #000000; stroke-width: 0.8"/>
      </g>
     </g>
     <g id="text_14">
      <!-- 4.4 -->
      <g transform="translate(58.717187 437.261162) scale(0.1 -0.1)">
       <use xlink:href="#DejaVuSans-2212"/>
       <use xlink:href="#DejaVuSans-34" transform="translate(83.789062 0)"/>
       <use xlink:href="#DejaVuSans-2e" transform="translate(147.412109 0)"/>
       <use xlink:href="#DejaVuSans-34" transform="translate(179.199219 0)"/>
      </g>
     </g>
    </g>
    <g id="ytick_6">
     <g id="line2d_27">
      <path d="M 90 361.710998 
L 648 361.710998 
" clip-path="url(#p2905446f1a)" style="fill: none; stroke: #b0b0b0; stroke-width: 0.8; stroke-linecap: square"/>
     </g>
     <g id="line2d_28">
      <g>
       <use xlink:href="#m5f39c67472" x="90" y="361.710998" style="stroke: #000000; stroke-width: 0.8"/>
      </g>
     </g>
     <g id="text_15">
      <!-- 4.2 -->
      <g transform="translate(58.717187 365.510216) scale(0.1 -0.1)">
       <use xlink:href="#DejaVuSans-2212"/>
       <use xlink:href="#DejaVuSans-34" transform="translate(83.789062 0)"/>
       <use xlink:href="#DejaVuSans-2e" transform="translate(147.412109 0)"/>
       <use xlink:href="#DejaVuSans-32" transform="translate(179.199219 0)"/>
      </g>
     </g>
    </g>
    <g id="ytick_7">
     <g id="line2d_29">
      <path d="M 90 289.960052 
L 648 289.960052 
" clip-path="url(#p2905446f1a)" style="fill: none; stroke: #b0b0b0; stroke-width: 0.8; stroke-linecap: square"/>
     </g>
     <g id="line2d_30">
      <g>
       <use xlink:href="#m5f39c67472" x="90" y="289.960052" style="stroke: #000000; stroke-width: 0.8"/>
      </g>
     </g>
     <g id="text_16">
      <!-- 4.0 -->
      <g transform="translate(58.717187 293.759271) scale(0.1 -0.1)">
       <use xlink:href="#DejaVuSans-2212"/>
       <use xlink:href="#DejaVuSans-34" transform="translate(83.789062 0)"/>
       <use xlink:href="#DejaVuSans-2e" transform="translate(147.412109 0)"/>
       <use xlink:href="#DejaVuSans-30" transform="translate(179.199219 0)"/>
      </g>
     </g>
    </g>
    <g id="ytick_8">
     <g id="line2d_31">
      <path d="M 90 218.209107 
L 648 218.209107 
" clip-path="url(#p2905446f1a)" style="fill: none; stroke: #b0b0b0; stroke-width: 0.8; stroke-linecap: square"/>
     </g>
     <g id="line2d_32">
      <g>
       <use xlink:href="#m5f39c67472" x="90" y="218.209107" style="stroke: #000000; stroke-width: 0.8"/>
      </g>
     </g>
     <g id="text_17">
      <!-- 3.8 -->
      <g transform="translate(58.717187 222.008326) scale(0.1 -0.1)">
       <defs>
        <path id="DejaVuSans-33" d="M 2597 2516 
Q 3050 2419 3304 2112 
Q 3559 1806 3559 1356 
Q 3559 666 3084 287 
Q 2609 -91 1734 -91 
Q 1441 -91 1130 -33 
Q 819 25 488 141 
L 488 750 
Q 750 597 1062 519 
Q 1375 441 1716 441 
Q 2309 441 2620 675 
Q 2931 909 2931 1356 
Q 2931 1769 2642 2001 
Q 2353 2234 1838 2234 
L 1294 2234 
L 1294 2753 
L 1863 2753 
Q 2328 2753 2575 2939 
Q 2822 3125 2822 3475 
Q 2822 3834 2567 4026 
Q 2313 4219 1838 4219 
Q 1578 4219 1281 4162 
Q 984 4106 628 3988 
L 628 4550 
Q 988 4650 1302 4700 
Q 1616 4750 1894 4750 
Q 2613 4750 3031 4423 
Q 3450 4097 3450 3541 
Q 3450 3153 3228 2886 
Q 3006 2619 2597 2516 
z
" transform="scale(0.015625)"/>
       </defs>
       <use xlink:href="#DejaVuSans-2212"/>
       <use xlink:href="#DejaVuSans-33" transform="translate(83.789062 0)"/>
       <use xlink:href="#DejaVuSans-2e" transform="translate(147.412109 0)"/>
       <use xlink:href="#DejaVuSans-38" transform="translate(179.199219 0)"/>
      </g>
     </g>
    </g>
    <g id="ytick_9">
     <g id="line2d_33">
      <path d="M 90 146.458162 
L 648 146.458162 
" clip-path="url(#p2905446f1a)" style="fill: none; stroke: #b0b0b0; stroke-width: 0.8; stroke-linecap: square"/>
     </g>
     <g id="line2d_34">
      <g>
       <use xlink:href="#m5f39c67472" x="90" y="146.458162" style="stroke: #000000; stroke-width: 0.8"/>
      </g>
     </g>
     <g id="text_18">
      <!-- 3.6 -->
      <g transform="translate(58.717187 150.25738) scale(0.1 -0.1)">
       <use xlink:href="#DejaVuSans-2212"/>
       <use xlink:href="#DejaVuSans-33" transform="translate(83.789062 0)"/>
       <use xlink:href="#DejaVuSans-2e" transform="translate(147.412109 0)"/>
       <use xlink:href="#DejaVuSans-36" transform="translate(179.199219 0)"/>
      </g>
     </g>
    </g>
    <g id="text_19">
     <!-- Latitude () -->
     <g transform="translate(52.6375 464.889531) rotate(-90) scale(0.1 -0.1)">
      <defs>
       <path id="DejaVuSans-61" d="M 2194 1759 
Q 1497 1759 1228 1600 
Q 959 1441 959 1056 
Q 959 750 1161 570 
Q 1363 391 1709 391 
Q 2188 391 2477 730 
Q 2766 1069 2766 1631 
L 2766 1759 
L 2194 1759 
z
M 3341 1997 
L 3341 0 
L 2766 0 
L 2766 531 
Q 2569 213 2275 61 
Q 1981 -91 1556 -91 
Q 1019 -91 701 211 
Q 384 513 384 1019 
Q 384 1609 779 1909 
Q 1175 2209 1959 2209 
L 2766 2209 
L 2766 2266 
Q 2766 2663 2505 2880 
Q 2244 3097 1772 3097 
Q 1472 3097 1187 3025 
Q 903 2953 641 2809 
L 641 3341 
Q 956 3463 1253 3523 
Q 1550 3584 1831 3584 
Q 2591 3584 2966 3190 
Q 3341 2797 3341 1997 
z
" transform="scale(0.015625)"/>
      </defs>
      <use xlink:href="#DejaVuSans-4c"/>
      <use xlink:href="#DejaVuSans-61" transform="translate(55.712891 0)"/>
      <use xlink:href="#DejaVuSans-74" transform="translate(116.992188 0)"/>
      <use xlink:href="#DejaVuSans-69" transform="translate(156.201172 0)"/>
      <use xlink:href="#DejaVuSans-74" transform="translate(183.984375 0)"/>
      <use xlink:href="#DejaVuSans-75" transform="translate(223.193359 0)"/>
      <use xlink:href="#DejaVuSans-64" transform="translate(286.572266 0)"/>
      <use xlink:href="#DejaVuSans-65" transform="translate(350.048828 0)"/>
      <use xlink:href="#DejaVuSans-20" transform="translate(411.572266 0)"/>
      <use xlink:href="#DejaVuSans-28" transform="translate(443.359375 0)"/>
      <use xlink:href="#DejaVuSans-b0" transform="translate(482.373047 0)"/>
      <use xlink:href="#DejaVuSans-29" transform="translate(532.373047 0)"/>
     </g>
    </g>
   </g>
   <g id="patch_3">
    <path d="M 90 750.427736 
L 90 122.212264 
" style="fill: none; stroke: #000000; stroke-width: 0.8; stroke-linejoin: miter; stroke-linecap: square"/>
   </g>
   <g id="patch_4">
    <path d="M 648 750.427736 
L 648 122.212264 
" style="fill: none; stroke: #000000; stroke-width: 0.8; stroke-linejoin: miter; stroke-linecap: square"/>
   </g>
   <g id="patch_5">
    <path d="M 90 750.427736 
L 648 750.427736 
" style="fill: none; stroke: #000000; stroke-width: 0.8; stroke-linejoin: miter; stroke-linecap: square"/>
   </g>
   <g id="patch_6">
    <path d="M 90 122.212264 
L 648 122.212264 
" style="fill: none; stroke: #000000; stroke-width: 0.8; stroke-linejoin: miter; stroke-linecap: square"/>
   </g>
   <g id="legend_1">
    <g id="patch_7">
     <path d="M 325.153125 898.748956 
L 412.846875 898.748956 
Q 414.846875 898.748956 414.846875 896.748956 
L 414.846875 883.070831 
Q 414.846875 881.070831 412.846875 881.070831 
L 325.153125 881.070831 
Q 323.153125 881.070831 323.153125 883.070831 
L 323.153125 896.748956 
Q 323.153125 898.748956 325.153125 898.748956 
z
" style="fill: #ffffff; opacity: 0.8; stroke: #cccccc; stroke-linejoin: miter"/>
    </g>
    <g id="line2d_35">
     <defs>
      <path id="m820b47d33a" d="M 0 5 
C 1.326016 5 2.597899 4.473168 3.535534 3.535534 
C 4.473168 2.597899 5 1.326016 5 0 
C 5 -1.326016 4.473168 -2.597899 3.535534 -3.535534 
C 2.597899 -4.473168 1.326016 -5 0 -5 
C -1.326016 -5 -2.597899 -4.473168 -3.535534 -3.535534 
C -4.473168 -2.597899 -5 -1.326016 -5 0 
C -5 1.326016 -4.473168 2.597899 -3.535534 3.535534 
C -2.597899 4.473168 -1.326016 5 0 5 
z
"/>
     </defs>
     <g>
      <use xlink:href="#m820b47d33a" x="337.153125" y="889.169269" style="fill: #b3e2cd; fill-opacity: 0.65"/>
     </g>
    </g>
    <g id="text_20">
     <!-- PAE PURUS -->
     <g transform="translate(355.153125 892.669269) scale(0.1 -0.1)">
      <defs>
       <path id="DejaVuSans-50" d="M 1259 4147 
L 1259 2394 
L 2053 2394 
Q 2494 2394 2734 2622 
Q 2975 2850 2975 3272 
Q 2975 3691 2734 3919 
Q 2494 4147 2053 4147 
L 1259 4147 
z
M 628 4666 
L 2053 4666 
Q 2838 4666 3239 4311 
Q 3641 3956 3641 3272 
Q 3641 2581 3239 2228 
Q 2838 1875 2053 1875 
L 1259 1875 
L 1259 0 
L 628 0 
L 628 4666 
z
" transform="scale(0.015625)"/>
       <path id="DejaVuSans-41" d="M 2188 4044 
L 1331 1722 
L 3047 1722 
L 2188 4044 
z
M 1831 4666 
L 2547 4666 
L 4325 0 
L 3669 0 
L 3244 1197 
L 1141 1197 
L 716 0 
L 50 0 
L 1831 4666 
z
" transform="scale(0.015625)"/>
       <path id="DejaVuSans-45" d="M 628 4666 
L 3578 4666 
L 3578 4134 
L 1259 4134 
L 1259 2753 
L 3481 2753 
L 3481 2222 
L 1259 2222 
L 1259 531 
L 3634 531 
L 3634 0 
L 628 0 
L 628 4666 
z
" transform="scale(0.015625)"/>
       <path id="DejaVuSans-55" d="M 556 4666 
L 1191 4666 
L 1191 1831 
Q 1191 1081 1462 751 
Q 1734 422 2344 422 
Q 2950 422 3222 751 
Q 3494 1081 3494 1831 
L 3494 4666 
L 4128 4666 
L 4128 1753 
Q 4128 841 3676 375 
Q 3225 -91 2344 -91 
Q 1459 -91 1007 375 
Q 556 841 556 1753 
L 556 4666 
z
" transform="scale(0.015625)"/>
       <path id="DejaVuSans-52" d="M 2841 2188 
Q 3044 2119 3236 1894 
Q 3428 1669 3622 1275 
L 4263 0 
L 3584 0 
L 2988 1197 
Q 2756 1666 2539 1819 
Q 2322 1972 1947 1972 
L 1259 1972 
L 1259 0 
L 628 0 
L 628 4666 
L 2053 4666 
Q 2853 4666 3247 4331 
Q 3641 3997 3641 3322 
Q 3641 2881 3436 2590 
Q 3231 2300 2841 2188 
z
M 1259 4147 
L 1259 2491 
L 2053 2491 
Q 2509 2491 2742 2702 
Q 2975 2913 2975 3322 
Q 2975 3731 2742 3939 
Q 2509 4147 2053 4147 
L 1259 4147 
z
" transform="scale(0.015625)"/>
       <path id="DejaVuSans-53" d="M 3425 4513 
L 3425 3897 
Q 3066 4069 2747 4153 
Q 2428 4238 2131 4238 
Q 1616 4238 1336 4038 
Q 1056 3838 1056 3469 
Q 1056 3159 1242 3001 
Q 1428 2844 1947 2747 
L 2328 2669 
Q 3034 2534 3370 2195 
Q 3706 1856 3706 1288 
Q 3706 609 3251 259 
Q 2797 -91 1919 -91 
Q 1588 -91 1214 -16 
Q 841 59 441 206 
L 441 856 
Q 825 641 1194 531 
Q 1563 422 1919 422 
Q 2459 422 2753 634 
Q 3047 847 3047 1241 
Q 3047 1584 2836 1778 
Q 2625 1972 2144 2069 
L 1759 2144 
Q 1053 2284 737 2584 
Q 422 2884 422 3419 
Q 422 4038 858 4394 
Q 1294 4750 2059 4750 
Q 2388 4750 2728 4690 
Q 3069 4631 3425 4513 
z
" transform="scale(0.015625)"/>
      </defs>
      <use xlink:href="#DejaVuSans-50"/>
      <use xlink:href="#DejaVuSans-41" transform="translate(53.927734 0)"/>
      <use xlink:href="#DejaVuSans-45" transform="translate(122.335938 0)"/>
      <use xlink:href="#DejaVuSans-20" transform="translate(185.519531 0)"/>
      <use xlink:href="#DejaVuSans-50" transform="translate(217.306641 0)"/>
      <use xlink:href="#DejaVuSans-55" transform="translate(277.609375 0)"/>
      <use xlink:href="#DejaVuSans-52" transform="translate(350.802734 0)"/>
      <use xlink:href="#DejaVuSans-55" transform="translate(420.285156 0)"/>
      <use xlink:href="#DejaVuSans-53" transform="translate(493.478516 0)"/>
     </g>
    </g>
   </g>
  </g>
 </g>
 <defs>
  <clipPath id="p2905446f1a">
   <rect x="90" y="122.212264" width="558" height="628.215473"/>
  </clipPath>
 </defs>
</svg>
