<?xml version="1.0" encoding="utf-8" standalone="no"?>
<!DOCTYPE svg PUBLIC "-//W3C//DTD SVG 1.1//EN"
  "http://www.w3.org/Graphics/SVG/1.1/DTD/svg11.dtd">
<svg xmlns:xlink="http://www.w3.org/1999/xlink" width="720pt" height="864pt" viewBox="0 0 720 864" xmlns="http://www.w3.org/2000/svg" version="1.1">
 <metadata>
  <rdf:RDF xmlns:dc="http://purl.org/dc/elements/1.1/" xmlns:cc="http://creativecommons.org/ns#" xmlns:rdf="http://www.w3.org/1999/02/22-rdf-syntax-ns#">
   <cc:Work>
    <dc:type rdf:resource="http://purl.org/dc/dcmitype/StillImage"/>
    <dc:date>2025-06-16T17:18:43.613014</dc:date>
    <dc:format>image/svg+xml</dc:format>
    <dc:creator>
     <cc:Agent>
      <dc:title>Matplotlib v3.10.1, https://matplotlib.org/</dc:title>
     </cc:Agent>
    </dc:creator>
   </cc:Work>
  </rdf:RDF>
 </metadata>
 <defs>
  <style type="text/css">*{stroke-linejoin: round; stroke-linecap: butt}</style>
 </defs>
 <g id="figure_1">
  <g id="patch_1">
   <path d="M 0 864 
L 720 864 
L 720 0 
L 0 0 
z
" style="fill: #ffffff"/>
  </g>
  <g id="axes_1">
   <g id="patch_2">
    <path d="M 90 680.005925 
L 648 680.005925 
L 648 192.634075 
L 90 192.634075 
z
" style="fill: #ffffff"/>
   </g>
   <g id="PatchCollection_1">
    <path d="M 512.674838 444.68696 
L 512.758154 445.330826 
L 512.746706 446.60889 
L 512.952588 447.533408 
L 513.023575 448.481974 
L 513.014488 449.430643 
L 513.197774 450.063788 
L 513.103884 450.857629 
L 512.905471 452.194807 
L 513.151725 452.76636 
L 513.390266 454.260069 
L 513.846524 455.440409 
L 514.032254 456.022499 
L 514.344542 456.527199 
L 515.032844 456.938076 
L 516.037252 457.62357 
L 516.636673 458.843994 
L 517.312663 459.549686 
L 518.263538 459.833852 
L 520.339433 461.367638 
L 520.975286 461.451324 
L 521.986671 462.987051 
L 523.163587 462.99701 
L 522.098753 464.130176 
L 521.846497 464.725114 
L 522.316526 465.732642 
L 522.898199 466.137504 
L 523.044515 466.288774 
L 523.168185 466.516769 
L 524.722478 466.145503 
L 525.692795 467.481787 
L 528.176255 468.775586 
L 530.227949 469.53625 
L 531.082342 469.553539 
L 531.781929 469.745364 
L 532.479201 470.10012 
L 533.314652 470.264553 
L 534.34705 469.586621 
L 534.773004 469.158905 
L 535.452078 469.173219 
L 535.449014 469.885582 
L 534.648979 471.545107 
L 534.486185 472.003655 
L 533.817208 472.948523 
L 532.687411 473.391837 
L 531.573238 475.612577 
L 530.637727 476.950382 
L 529.878386 478.286513 
L 529.212449 479.151503 
L 528.153852 479.630726 
L 527.299813 480.657364 
L 527.103396 481.6386 
L 526.746378 482.955035 
L 526.591224 483.352885 
L 526.368358 484.303218 
L 526.000117 484.821555 
L 523.868909 483.888859 
L 522.902836 484.540411 
L 521.54172 485.133123 
L 520.49958 485.20351 
L 519.44203 485.341196 
L 518.542889 484.665861 
L 516.752057 484.119754 
L 515.811444 484.34618 
L 514.326871 484.508094 
L 513.935659 484.860703 
L 512.900673 484.990622 
L 511.064206 484.524235 
L 510.195072 484.693394 
L 509.100218 484.553516 
L 508.168596 483.802442 
L 507.90387 482.356531 
L 506.977378 481.036111 
L 507.655574 479.335699 
L 506.940589 477.453559 
L 505.27623 476.867035 
L 504.424634 477.286426 
L 503.427817 477.655828 
L 502.570148 478.073628 
L 501.256688 477.903634 
L 499.859841 478.734062 
L 498.397351 479.126529 
L 498.083269 479.430042 
L 497.868549 479.742133 
L 496.960276 479.317248 
L 496.359311 480.257681 
L 495.230675 480.798126 
L 494.674528 480.710646 
L 494.179007 480.748362 
L 493.055579 480.042157 
L 491.345107 479.965084 
L 490.28734 480.03243 
L 489.482699 480.408701 
L 488.957885 481.454296 
L 488.247584 481.975672 
L 487.858536 482.309172 
L 487.528714 482.796503 
L 487.950007 483.902708 
L 488.110697 484.451855 
L 488.438289 485.366759 
L 488.717422 486.34054 
L 488.724283 486.530445 
L 489.011754 487.216626 
L 489.203843 487.547884 
L 489.612113 487.975809 
L 489.850603 488.956782 
L 489.930874 490.150372 
L 490.023689 491.597773 
L 489.900658 492.41365 
L 489.910642 493.112326 
L 491.706707 494.907739 
L 492.291352 495.646247 
L 492.832303 496.036004 
L 493.287416 496.50769 
L 493.768466 497.047704 
L 493.947946 497.305329 
L 494.531266 497.474854 
L 495.524098 497.869579 
L 496.398282 498.48736 
L 497.421573 499.047081 
L 498.83223 500.165326 
L 499.407356 500.886875 
L 500.190749 502.916577 
L 500.31534 503.565147 
L 500.719759 505.366144 
L 500.927363 505.807699 
L 501.700005 506.856389 
L 502.79173 507.255061 
L 503.048633 507.424188 
L 503.872422 508.26253 
L 504.227399 508.784434 
L 505.476772 510.152567 
L 506.138641 510.717268 
L 508.062357 512.525757 
L 508.60215 513.363042 
L 509.213992 513.748547 
L 509.200667 514.558722 
L 509.597646 515.098063 
L 510.427985 516.360528 
L 511.53469 516.413986 
L 511.622697 516.709524 
L 512.218206 517.220536 
L 512.738666 517.955994 
L 513.181764 518.774898 
L 514.585704 521.012435 
L 514.4651 522.172854 
L 514.460803 522.999869 
L 515.31929 523.851559 
L 516.637677 524.055167 
L 517.594191 524.632294 
L 518.078227 525.503677 
L 515.26508 529.648346 
L 514.562973 530.222755 
L 514.100725 532.249542 
L 514.675102 532.609873 
L 516.948244 535.052815 
L 517.378953 535.564427 
L 517.835127 535.823945 
L 518.24203 536.111538 
L 518.788188 536.563794 
L 520.491334 537.052384 
L 521.180799 537.30754 
L 522.050042 538.168658 
L 522.61216 539.811517 
L 522.624828 540.713846 
L 498.940014 543.625949 
L 498.742599 543.921896 
L 497.387092 546.160548 
L 496.154581 548.195741 
L 494.840494 550.359347 
L 493.506092 552.565959 
L 492.376293 554.420104 
L 491.239584 556.309518 
L 490.02791 558.305712 
L 488.81733 560.310057 
L 487.662769 562.209806 
L 486.430588 564.246387 
L 485.31812 566.080014 
L 484.132378 568.052078 
L 482.936016 570.009687 
L 481.693802 572.075424 
L 479.271684 576.078023 
L 478.141519 577.949323 
L 477.008118 579.820538 
L 475.81277 581.789623 
L 474.604171 583.785841 
L 473.397498 585.784871 
L 472.19094 587.771613 
L 470.955747 589.799269 
L 469.757055 591.794418 
L 468.568046 593.806878 
L 467.379465 595.822033 
L 446.734289 582.738769 
L 446.269295 582.490155 
L 426.960464 570.236199 
L 428.944664 567.64295 
L 430.981462 564.895814 
L 432.668975 562.670456 
L 434.530047 560.214014 
L 436.049696 558.014357 
L 438.067136 555.531211 
L 440.0857 552.864593 
L 442.109263 550.192963 
L 444.367216 547.208835 
L 446.630163 544.219692 
L 448.628455 541.515799 
L 450.643807 539.015609 
L 452.973766 535.709268 
L 455.393635 532.648904 
L 457.647057 529.675199 
L 459.871306 526.686014 
L 462.219156 523.402633 
L 456.251786 520.701785 
L 450.196837 517.917739 
L 447.650408 513.138475 
L 446.473463 510.570502 
L 445.080692 508.2279 
L 442.471072 503.367783 
L 439.897339 498.545241 
L 437.31723 493.64561 
L 434.758354 488.849662 
L 432.208065 483.981294 
L 429.636408 479.162751 
L 427.046041 474.255741 
L 448.196007 463.050653 
L 445.629179 458.195488 
L 468.640296 445.944243 
L 469.664353 446.812321 
L 466.911556 441.393985 
L 464.176117 436.269718 
L 465.898019 434.682638 
L 452.50299 408.818322 
L 456.859727 406.479018 
L 443.585867 380.817229 
L 441.477757 381.23788 
L 440.300379 378.983349 
L 439.151715 376.82641 
L 437.937997 374.537579 
L 436.752233 372.255229 
L 435.593333 370.059696 
L 434.427836 367.86272 
L 432.013938 363.27174 
L 430.772125 360.923611 
L 429.633851 358.762865 
L 427.029362 353.732973 
L 424.984169 349.909321 
L 422.635549 345.340789 
L 420.253149 340.721168 
L 417.870699 336.270524 
L 416.901866 334.42467 
L 416.352563 334.237501 
L 388.638477 325.91715 
L 388.898805 324.391666 
L 389.533985 322.795719 
L 390.325366 321.582659 
L 390.698625 320.873446 
L 390.534357 320.04919 
L 391.115621 318.432549 
L 391.92727 317.911296 
L 392.053269 317.353866 
L 392.720533 316.636794 
L 392.758741 315.391303 
L 392.976462 313.515495 
L 393.459275 312.699676 
L 393.82223 311.311063 
L 393.583546 310.954012 
L 393.86839 309.87299 
L 394.565453 308.597956 
L 395.479984 307.95901 
L 395.441722 307.15361 
L 396.123617 306.194127 
L 396.484157 304.74335 
L 397.117483 304.230931 
L 396.794504 303.23137 
L 397.35097 300.683656 
L 397.621825 299.995731 
L 398.308073 299.681531 
L 398.767239 298.474541 
L 399.237483 298.128017 
L 399.124643 296.935709 
L 399.41662 296.116332 
L 425.535185 306.902512 
L 424.301954 312.048743 
L 423.495068 314.404872 
L 424.804033 315.50631 
L 425.662218 316.841031 
L 426.264518 317.326672 
L 425.765817 317.880447 
L 424.708938 318.373092 
L 425.336277 320.859712 
L 426.51028 322.670329 
L 427.206024 322.677284 
L 427.418676 323.331809 
L 426.691111 323.804905 
L 427.159184 324.541705 
L 427.624553 324.658518 
L 429.994218 325.257572 
L 431.111669 324.658937 
L 432.555491 324.521056 
L 433.421794 325.966662 
L 433.418074 326.953532 
L 431.590491 328.11174 
L 430.584 329.504815 
L 430.468839 330.379294 
L 430.921899 331.413944 
L 430.377301 333.154978 
L 431.228773 333.979959 
L 430.627486 335.625233 
L 430.44927 337.368829 
L 432.568142 337.243885 
L 433.470511 338.237044 
L 434.542943 338.498867 
L 435.277646 338.907486 
L 436.787102 338.808829 
L 438.361976 339.00096 
L 438.919363 341.18274 
L 439.053958 342.078431 
L 439.251493 342.194759 
L 440.679097 343.288344 
L 441.692279 343.010357 
L 442.058208 343.865212 
L 440.923106 344.558011 
L 441.536926 346.309206 
L 441.664045 347.826133 
L 443.636745 349.406609 
L 444.320884 349.742125 
L 445.019232 351.588481 
L 445.92279 352.40382 
L 446.265858 353.465666 
L 447.373564 353.146548 
L 446.761572 354.376618 
L 447.197076 355.81622 
L 448.878777 355.53331 
L 451.105546 355.849213 
L 452.01327 355.789901 
L 452.603466 356.777939 
L 453.832693 356.560332 
L 455.507329 355.583618 
L 456.720508 355.478108 
L 457.37502 354.384448 
L 458.770499 354.736585 
L 458.387042 356.023894 
L 458.560876 356.720563 
L 458.696238 357.263052 
L 460.020565 357.463 
L 460.663169 358.899732 
L 462.809061 358.782277 
L 463.893455 359.407259 
L 464.562239 359.79904 
L 465.311134 360.23775 
L 465.945384 362.092995 
L 466.691989 364.284112 
L 467.389667 365.362913 
L 467.738713 366.879059 
L 467.897846 368.635978 
L 468.932302 368.771592 
L 471.225907 370.22284 
L 472.135863 370.087298 
L 472.807796 370.453983 
L 475.016659 370.90793 
L 475.959923 370.076284 
L 476.441249 369.256231 
L 477.848663 369.630931 
L 478.767772 369.288991 
L 480.833582 369.250768 
L 481.822757 368.808648 
L 482.245141 369.286389 
L 481.999061 370.469465 
L 482.149075 372.317496 
L 482.329868 374.575988 
L 483.224756 375.485568 
L 483.181937 377.761102 
L 482.82671 378.354531 
L 483.470971 378.841737 
L 484.621895 378.56983 
L 486.58572 377.315154 
L 487.252142 376.554981 
L 486.753942 375.571747 
L 487.31649 374.461781 
L 487.284808 372.655183 
L 488.219393 372.053228 
L 489.385614 372.639117 
L 492.190807 373.298451 
L 492.81288 372.292421 
L 493.780449 372.210228 
L 494.628792 373.038691 
L 493.888179 374.635901 
L 493.833018 375.964513 
L 494.97945 378.164242 
L 494.324099 379.302039 
L 495.381149 380.814968 
L 495.679994 382.167187 
L 496.007565 383.008588 
L 496.258398 383.228196 
L 496.077412 383.612636 
L 497.302778 384.045753 
L 497.765194 385.196601 
L 497.577685 385.954758 
L 498.525064 387.138983 
L 499.091708 387.680271 
L 499.841435 388.568062 
L 499.32913 389.209865 
L 500.693844 390.266666 
L 500.97022 390.736667 
L 501.161419 391.097721 
L 502.222875 391.193969 
L 503.32206 391.700193 
L 503.869821 393.164126 
L 504.916837 394.312356 
L 504.846756 395.188588 
L 504.291316 397.011543 
L 502.95336 398.002632 
L 500.611816 398.331062 
L 499.765659 398.335736 
L 498.430687 398.5054 
L 497.361947 399.363059 
L 497.348666 400.088233 
L 497.654108 401.729244 
L 498.378777 402.837896 
L 500.038286 403.846592 
L 500.52707 405.035345 
L 501.617654 406.147202 
L 502.875383 406.501057 
L 504.42833 406.646507 
L 505.070497 407.287363 
L 506.91213 407.955465 
L 507.866851 407.659238 
L 508.931346 407.769829 
L 509.18979 408.105002 
L 510.052434 408.23295 
L 511.139505 407.866217 
L 511.291149 408.616237 
L 511.777447 409.693488 
L 512.267613 410.005633 
L 512.99858 409.301993 
L 513.544578 409.498497 
L 514.374528 409.416276 
L 516.541455 411.141352 
L 518.701508 412.860955 
L 519.200694 414.614723 
L 519.081093 415.512877 
L 518.832736 415.611206 
L 519.174582 416.396278 
L 519.065534 417.88001 
L 518.988103 419.616884 
L 519.664409 420.413998 
L 520.164762 420.828773 
L 520.735028 421.789259 
L 521.271789 422.419698 
L 521.026531 423.17211 
L 520.256803 424.216555 
L 521.455131 425.603808 
L 521.67273 426.604648 
L 521.716033 427.334725 
L 521.599318 428.745457 
L 521.986835 430.186095 
L 521.285004 430.702653 
L 520.475032 430.849191 
L 519.076767 430.538014 
L 518.745347 429.890059 
L 518.460832 429.432633 
L 517.870801 429.65782 
L 516.749543 429.210091 
L 516.208754 429.494152 
L 515.621804 429.266106 
L 514.817049 429.162743 
L 514.360168 429.773546 
L 514.22641 430.9515 
L 514.56916 431.393138 
L 514.98634 431.557424 
L 515.687497 432.226281 
L 516.117665 433.075591 
L 516.315216 433.144272 
L 517.207091 433.74827 
L 517.087067 434.44094 
L 517.688914 435.081508 
L 517.524492 435.749864 
L 517.960912 436.158354 
L 518.064452 436.98456 
L 517.67638 437.438684 
L 517.313916 438.345735 
L 516.928347 438.768307 
L 516.906726 439.398471 
L 516.014943 440.031694 
L 515.640307 440.690139 
L 514.995062 440.918115 
L 513.802002 442.144465 
L 513.618727 443.190174 
L 513.252275 443.93383 
L 512.674838 444.68696 
" clip-path="url(#p107c54fedd)" style="fill: #b3e2cd; fill-opacity: 0.65"/>
   </g>
   <g id="PatchCollection_2">
    <path d="M 197.630672 653.59315 
L 211.068166 635.989134 
L 212.556676 620.607017 
L 237.116779 621.357394 
L 254.606546 625.484325 
L 255.350823 599.972521 
L 186.508131 578.58754 
L 164.116042 569.859377 
L 161.734653 549.532555 
L 146.117505 535.526855 
L 138.804628 531.400558 
L 123.93866 540.564442 
L 117.755184 531.33935 
L 137.608829 517.515953 
L 140.4665 509.307223 
L 134.071262 500.285761 
L 117.218686 512.804027 
L 117.981409 501.655051 
L 118.455359 484.121781 
L 121.761755 470.38595 
L 115.363636 461.465187 
L 127.53644 459.635194 
L 134.711349 452.517405 
L 143.226874 463.304801 
L 149.564291 471.032324 
L 159.76388 467.838077 
L 161.758311 461.011161 
L 169.425793 465.001105 
L 176.784826 457.297441 
L 188.407752 455.547675 
L 202.185465 451.288335 
L 209.718229 444.664138 
L 216.488813 449.549183 
L 224.536932 447.963651 
L 225.634871 441.672257 
L 219.23621 435.553156 
L 243.815208 438.64785 
L 335.696945 420.410378 
L 399.734684 421.014877 
L 399.734698 408.634147 
L 361.033925 409.384447 
L 385.22194 382.371976 
L 383.615191 318.022067 
L 414.929317 214.787341 
L 427.271955 264.567505 
L 431.601268 271.945375 
L 431.458142 275.815091 
L 429.597975 281.09612 
L 426.920161 283.500275 
L 434.708298 287.039219 
L 434.953587 292.171481 
L 438.283326 301.114089 
L 439.419996 308.730095 
L 441.979183 316.419389 
L 442.490038 323.257502 
L 439.17468 326.315286 
L 439.307544 330.002348 
L 438.699921 333.497626 
L 434.698021 336.32992 
L 441.515196 339.26734 
L 442.057695 343.58459 
L 439.741902 347.074249 
L 448.485668 352.516941 
L 457.786468 352.773919 
L 460.494937 356.049131 
L 470.725816 356.474522 
L 471.666125 350.471213 
L 477.415303 349.832576 
L 480.51721 354.205621 
L 482.915487 360.646987 
L 487.732984 363.98391 
L 490.776754 367.67178 
L 493.423888 370.220457 
L 493.437556 366.442539 
L 494.979432 361.836729 
L 498.107001 359.983111 
L 502.559443 364.137162 
L 503.256083 369.177015 
L 502.879889 374.392853 
L 501.613427 378.705915 
L 501.057843 384.100994 
L 501.694376 387.241719 
L 501.587051 391.415343 
L 502.849301 394.075825 
L 510.844983 395.650611 
L 517.646253 400.225021 
L 533.698925 396.253577 
L 530.349885 341.103049 
L 502.812788 348.981662 
L 500.580054 345.98027 
L 490.532768 320.843624 
L 540.829357 318.225123 
L 541.513605 309.963649 
L 549.700309 309.213312 
L 555.654296 290.454637 
L 552.000574 286.323197 
L 609.982322 324.883812 
L 622.636364 324.595518 
L 620.857089 339.970187 
L 562.352452 337.726524 
L 561.236007 402.256387 
L 588.773093 404.132288 
L 597.704004 436.397232 
L 495.101934 486.100687 
L 494.325164 485.378086 
L 492.761404 484.716666 
L 492.505889 483.932885 
L 494.590907 480.921411 
L 493.947008 479.476211 
L 492.12773 479.610811 
L 488.468731 482.474155 
L 484.707528 482.460627 
L 483.66502 484.02755 
L 483.532148 486.255883 
L 485.995327 486.648099 
L 487.283124 491.631591 
L 488.570923 494.643712 
L 493.88566 498.722349 
L 496.083097 502.922705 
L 497.994352 509.999933 
L 500.007813 511.904329 
L 464.856052 524.93805 
L 435.086246 508.805549 
L 403.827873 556.827735 
L 400.850898 550.449779 
L 386.338085 569.583617 
L 388.556584 574.256108 
L 387.437411 577.261462 
L 386.604433 582.252038 
L 197.630672 653.59315 
L 197.630672 653.59315 
" clip-path="url(#p107c54fedd)" style="fill: none; stroke: #000000; stroke-width: 2"/>
    <path d="M 193.57837 655.122969 
L 197.630672 653.59315 
L 194.379305 657.852659 
L 193.57837 655.122969 
" clip-path="url(#p107c54fedd)" style="fill: none; stroke: #000000; stroke-width: 2"/>
   </g>
   <g id="matplotlib.axis_1">
    <g id="xtick_1">
     <g id="line2d_1">
      <path d="M 92.337273 680.005925 
L 92.337273 192.634075 
" clip-path="url(#p107c54fedd)" style="fill: none; stroke: #b0b0b0; stroke-width: 0.8; stroke-linecap: square"/>
     </g>
     <g id="line2d_2">
      <defs>
       <path id="m9e7a3807f8" d="M 0 0 
L 0 3.5 
" style="stroke: #000000; stroke-width: 0.8"/>
      </defs>
      <g>
       <use xlink:href="#m9e7a3807f8" x="92.337273" y="680.005925" style="stroke: #000000; stroke-width: 0.8"/>
      </g>
     </g>
     <g id="text_1">
      <!-- −64.95 -->
      <g transform="translate(81.204208 718.547307) rotate(-45) scale(0.1 -0.1)">
       <defs>
        <path id="DejaVuSans-2212" d="M 678 2272 
L 4684 2272 
L 4684 1741 
L 678 1741 
L 678 2272 
z
" transform="scale(0.015625)"/>
        <path id="DejaVuSans-36" d="M 2113 2584 
Q 1688 2584 1439 2293 
Q 1191 2003 1191 1497 
Q 1191 994 1439 701 
Q 1688 409 2113 409 
Q 2538 409 2786 701 
Q 3034 994 3034 1497 
Q 3034 2003 2786 2293 
Q 2538 2584 2113 2584 
z
M 3366 4563 
L 3366 3988 
Q 3128 4100 2886 4159 
Q 2644 4219 2406 4219 
Q 1781 4219 1451 3797 
Q 1122 3375 1075 2522 
Q 1259 2794 1537 2939 
Q 1816 3084 2150 3084 
Q 2853 3084 3261 2657 
Q 3669 2231 3669 1497 
Q 3669 778 3244 343 
Q 2819 -91 2113 -91 
Q 1303 -91 875 529 
Q 447 1150 447 2328 
Q 447 3434 972 4092 
Q 1497 4750 2381 4750 
Q 2619 4750 2861 4703 
Q 3103 4656 3366 4563 
z
" transform="scale(0.015625)"/>
        <path id="DejaVuSans-34" d="M 2419 4116 
L 825 1625 
L 2419 1625 
L 2419 4116 
z
M 2253 4666 
L 3047 4666 
L 3047 1625 
L 3713 1625 
L 3713 1100 
L 3047 1100 
L 3047 0 
L 2419 0 
L 2419 1100 
L 313 1100 
L 313 1709 
L 2253 4666 
z
" transform="scale(0.015625)"/>
        <path id="DejaVuSans-2e" d="M 684 794 
L 1344 794 
L 1344 0 
L 684 0 
L 684 794 
z
" transform="scale(0.015625)"/>
        <path id="DejaVuSans-39" d="M 703 97 
L 703 672 
Q 941 559 1184 500 
Q 1428 441 1663 441 
Q 2288 441 2617 861 
Q 2947 1281 2994 2138 
Q 2813 1869 2534 1725 
Q 2256 1581 1919 1581 
Q 1219 1581 811 2004 
Q 403 2428 403 3163 
Q 403 3881 828 4315 
Q 1253 4750 1959 4750 
Q 2769 4750 3195 4129 
Q 3622 3509 3622 2328 
Q 3622 1225 3098 567 
Q 2575 -91 1691 -91 
Q 1453 -91 1209 -44 
Q 966 3 703 97 
z
M 1959 2075 
Q 2384 2075 2632 2365 
Q 2881 2656 2881 3163 
Q 2881 3666 2632 3958 
Q 2384 4250 1959 4250 
Q 1534 4250 1286 3958 
Q 1038 3666 1038 3163 
Q 1038 2656 1286 2365 
Q 1534 2075 1959 2075 
z
" transform="scale(0.015625)"/>
        <path id="DejaVuSans-35" d="M 691 4666 
L 3169 4666 
L 3169 4134 
L 1269 4134 
L 1269 2991 
Q 1406 3038 1543 3061 
Q 1681 3084 1819 3084 
Q 2600 3084 3056 2656 
Q 3513 2228 3513 1497 
Q 3513 744 3044 326 
Q 2575 -91 1722 -91 
Q 1428 -91 1123 -41 
Q 819 9 494 109 
L 494 744 
Q 775 591 1075 516 
Q 1375 441 1709 441 
Q 2250 441 2565 725 
Q 2881 1009 2881 1497 
Q 2881 1984 2565 2268 
Q 2250 2553 1709 2553 
Q 1456 2553 1204 2497 
Q 953 2441 691 2322 
L 691 4666 
z
" transform="scale(0.015625)"/>
       </defs>
       <use xlink:href="#DejaVuSans-2212"/>
       <use xlink:href="#DejaVuSans-36" transform="translate(83.789062 0)"/>
       <use xlink:href="#DejaVuSans-34" transform="translate(147.412109 0)"/>
       <use xlink:href="#DejaVuSans-2e" transform="translate(211.035156 0)"/>
       <use xlink:href="#DejaVuSans-39" transform="translate(242.822266 0)"/>
       <use xlink:href="#DejaVuSans-35" transform="translate(306.445312 0)"/>
      </g>
     </g>
    </g>
    <g id="xtick_2">
     <g id="line2d_3">
      <path d="M 159.319035 680.005925 
L 159.319035 192.634075 
" clip-path="url(#p107c54fedd)" style="fill: none; stroke: #b0b0b0; stroke-width: 0.8; stroke-linecap: square"/>
     </g>
     <g id="line2d_4">
      <g>
       <use xlink:href="#m9e7a3807f8" x="159.319035" y="680.005925" style="stroke: #000000; stroke-width: 0.8"/>
      </g>
     </g>
     <g id="text_2">
      <!-- −64.90 -->
      <g transform="translate(148.18597 718.547307) rotate(-45) scale(0.1 -0.1)">
       <defs>
        <path id="DejaVuSans-30" d="M 2034 4250 
Q 1547 4250 1301 3770 
Q 1056 3291 1056 2328 
Q 1056 1369 1301 889 
Q 1547 409 2034 409 
Q 2525 409 2770 889 
Q 3016 1369 3016 2328 
Q 3016 3291 2770 3770 
Q 2525 4250 2034 4250 
z
M 2034 4750 
Q 2819 4750 3233 4129 
Q 3647 3509 3647 2328 
Q 3647 1150 3233 529 
Q 2819 -91 2034 -91 
Q 1250 -91 836 529 
Q 422 1150 422 2328 
Q 422 3509 836 4129 
Q 1250 4750 2034 4750 
z
" transform="scale(0.015625)"/>
       </defs>
       <use xlink:href="#DejaVuSans-2212"/>
       <use xlink:href="#DejaVuSans-36" transform="translate(83.789062 0)"/>
       <use xlink:href="#DejaVuSans-34" transform="translate(147.412109 0)"/>
       <use xlink:href="#DejaVuSans-2e" transform="translate(211.035156 0)"/>
       <use xlink:href="#DejaVuSans-39" transform="translate(242.822266 0)"/>
       <use xlink:href="#DejaVuSans-30" transform="translate(306.445312 0)"/>
      </g>
     </g>
    </g>
    <g id="xtick_3">
     <g id="line2d_5">
      <path d="M 226.300798 680.005925 
L 226.300798 192.634075 
" clip-path="url(#p107c54fedd)" style="fill: none; stroke: #b0b0b0; stroke-width: 0.8; stroke-linecap: square"/>
     </g>
     <g id="line2d_6">
      <g>
       <use xlink:href="#m9e7a3807f8" x="226.300798" y="680.005925" style="stroke: #000000; stroke-width: 0.8"/>
      </g>
     </g>
     <g id="text_3">
      <!-- −64.85 -->
      <g transform="translate(215.167733 718.547307) rotate(-45) scale(0.1 -0.1)">
       <defs>
        <path id="DejaVuSans-38" d="M 2034 2216 
Q 1584 2216 1326 1975 
Q 1069 1734 1069 1313 
Q 1069 891 1326 650 
Q 1584 409 2034 409 
Q 2484 409 2743 651 
Q 3003 894 3003 1313 
Q 3003 1734 2745 1975 
Q 2488 2216 2034 2216 
z
M 1403 2484 
Q 997 2584 770 2862 
Q 544 3141 544 3541 
Q 544 4100 942 4425 
Q 1341 4750 2034 4750 
Q 2731 4750 3128 4425 
Q 3525 4100 3525 3541 
Q 3525 3141 3298 2862 
Q 3072 2584 2669 2484 
Q 3125 2378 3379 2068 
Q 3634 1759 3634 1313 
Q 3634 634 3220 271 
Q 2806 -91 2034 -91 
Q 1263 -91 848 271 
Q 434 634 434 1313 
Q 434 1759 690 2068 
Q 947 2378 1403 2484 
z
M 1172 3481 
Q 1172 3119 1398 2916 
Q 1625 2713 2034 2713 
Q 2441 2713 2670 2916 
Q 2900 3119 2900 3481 
Q 2900 3844 2670 4047 
Q 2441 4250 2034 4250 
Q 1625 4250 1398 4047 
Q 1172 3844 1172 3481 
z
" transform="scale(0.015625)"/>
       </defs>
       <use xlink:href="#DejaVuSans-2212"/>
       <use xlink:href="#DejaVuSans-36" transform="translate(83.789062 0)"/>
       <use xlink:href="#DejaVuSans-34" transform="translate(147.412109 0)"/>
       <use xlink:href="#DejaVuSans-2e" transform="translate(211.035156 0)"/>
       <use xlink:href="#DejaVuSans-38" transform="translate(242.822266 0)"/>
       <use xlink:href="#DejaVuSans-35" transform="translate(306.445312 0)"/>
      </g>
     </g>
    </g>
    <g id="xtick_4">
     <g id="line2d_7">
      <path d="M 293.28256 680.005925 
L 293.28256 192.634075 
" clip-path="url(#p107c54fedd)" style="fill: none; stroke: #b0b0b0; stroke-width: 0.8; stroke-linecap: square"/>
     </g>
     <g id="line2d_8">
      <g>
       <use xlink:href="#m9e7a3807f8" x="293.28256" y="680.005925" style="stroke: #000000; stroke-width: 0.8"/>
      </g>
     </g>
     <g id="text_4">
      <!-- −64.80 -->
      <g transform="translate(282.149496 718.547307) rotate(-45) scale(0.1 -0.1)">
       <use xlink:href="#DejaVuSans-2212"/>
       <use xlink:href="#DejaVuSans-36" transform="translate(83.789062 0)"/>
       <use xlink:href="#DejaVuSans-34" transform="translate(147.412109 0)"/>
       <use xlink:href="#DejaVuSans-2e" transform="translate(211.035156 0)"/>
       <use xlink:href="#DejaVuSans-38" transform="translate(242.822266 0)"/>
       <use xlink:href="#DejaVuSans-30" transform="translate(306.445312 0)"/>
      </g>
     </g>
    </g>
    <g id="xtick_5">
     <g id="line2d_9">
      <path d="M 360.264323 680.005925 
L 360.264323 192.634075 
" clip-path="url(#p107c54fedd)" style="fill: none; stroke: #b0b0b0; stroke-width: 0.8; stroke-linecap: square"/>
     </g>
     <g id="line2d_10">
      <g>
       <use xlink:href="#m9e7a3807f8" x="360.264323" y="680.005925" style="stroke: #000000; stroke-width: 0.8"/>
      </g>
     </g>
     <g id="text_5">
      <!-- −64.75 -->
      <g transform="translate(349.131258 718.547307) rotate(-45) scale(0.1 -0.1)">
       <defs>
        <path id="DejaVuSans-37" d="M 525 4666 
L 3525 4666 
L 3525 4397 
L 1831 0 
L 1172 0 
L 2766 4134 
L 525 4134 
L 525 4666 
z
" transform="scale(0.015625)"/>
       </defs>
       <use xlink:href="#DejaVuSans-2212"/>
       <use xlink:href="#DejaVuSans-36" transform="translate(83.789062 0)"/>
       <use xlink:href="#DejaVuSans-34" transform="translate(147.412109 0)"/>
       <use xlink:href="#DejaVuSans-2e" transform="translate(211.035156 0)"/>
       <use xlink:href="#DejaVuSans-37" transform="translate(242.822266 0)"/>
       <use xlink:href="#DejaVuSans-35" transform="translate(306.445312 0)"/>
      </g>
     </g>
    </g>
    <g id="xtick_6">
     <g id="line2d_11">
      <path d="M 427.246086 680.005925 
L 427.246086 192.634075 
" clip-path="url(#p107c54fedd)" style="fill: none; stroke: #b0b0b0; stroke-width: 0.8; stroke-linecap: square"/>
     </g>
     <g id="line2d_12">
      <g>
       <use xlink:href="#m9e7a3807f8" x="427.246086" y="680.005925" style="stroke: #000000; stroke-width: 0.8"/>
      </g>
     </g>
     <g id="text_6">
      <!-- −64.70 -->
      <g transform="translate(416.113021 718.547307) rotate(-45) scale(0.1 -0.1)">
       <use xlink:href="#DejaVuSans-2212"/>
       <use xlink:href="#DejaVuSans-36" transform="translate(83.789062 0)"/>
       <use xlink:href="#DejaVuSans-34" transform="translate(147.412109 0)"/>
       <use xlink:href="#DejaVuSans-2e" transform="translate(211.035156 0)"/>
       <use xlink:href="#DejaVuSans-37" transform="translate(242.822266 0)"/>
       <use xlink:href="#DejaVuSans-30" transform="translate(306.445312 0)"/>
      </g>
     </g>
    </g>
    <g id="xtick_7">
     <g id="line2d_13">
      <path d="M 494.227848 680.005925 
L 494.227848 192.634075 
" clip-path="url(#p107c54fedd)" style="fill: none; stroke: #b0b0b0; stroke-width: 0.8; stroke-linecap: square"/>
     </g>
     <g id="line2d_14">
      <g>
       <use xlink:href="#m9e7a3807f8" x="494.227848" y="680.005925" style="stroke: #000000; stroke-width: 0.8"/>
      </g>
     </g>
     <g id="text_7">
      <!-- −64.65 -->
      <g transform="translate(483.094784 718.547307) rotate(-45) scale(0.1 -0.1)">
       <use xlink:href="#DejaVuSans-2212"/>
       <use xlink:href="#DejaVuSans-36" transform="translate(83.789062 0)"/>
       <use xlink:href="#DejaVuSans-34" transform="translate(147.412109 0)"/>
       <use xlink:href="#DejaVuSans-2e" transform="translate(211.035156 0)"/>
       <use xlink:href="#DejaVuSans-36" transform="translate(242.822266 0)"/>
       <use xlink:href="#DejaVuSans-35" transform="translate(306.445312 0)"/>
      </g>
     </g>
    </g>
    <g id="xtick_8">
     <g id="line2d_15">
      <path d="M 561.209611 680.005925 
L 561.209611 192.634075 
" clip-path="url(#p107c54fedd)" style="fill: none; stroke: #b0b0b0; stroke-width: 0.8; stroke-linecap: square"/>
     </g>
     <g id="line2d_16">
      <g>
       <use xlink:href="#m9e7a3807f8" x="561.209611" y="680.005925" style="stroke: #000000; stroke-width: 0.8"/>
      </g>
     </g>
     <g id="text_8">
      <!-- −64.60 -->
      <g transform="translate(550.076546 718.547307) rotate(-45) scale(0.1 -0.1)">
       <use xlink:href="#DejaVuSans-2212"/>
       <use xlink:href="#DejaVuSans-36" transform="translate(83.789062 0)"/>
       <use xlink:href="#DejaVuSans-34" transform="translate(147.412109 0)"/>
       <use xlink:href="#DejaVuSans-2e" transform="translate(211.035156 0)"/>
       <use xlink:href="#DejaVuSans-36" transform="translate(242.822266 0)"/>
       <use xlink:href="#DejaVuSans-30" transform="translate(306.445312 0)"/>
      </g>
     </g>
    </g>
    <g id="xtick_9">
     <g id="line2d_17">
      <path d="M 628.191374 680.005925 
L 628.191374 192.634075 
" clip-path="url(#p107c54fedd)" style="fill: none; stroke: #b0b0b0; stroke-width: 0.8; stroke-linecap: square"/>
     </g>
     <g id="line2d_18">
      <g>
       <use xlink:href="#m9e7a3807f8" x="628.191374" y="680.005925" style="stroke: #000000; stroke-width: 0.8"/>
      </g>
     </g>
     <g id="text_9">
      <!-- −64.55 -->
      <g transform="translate(617.058309 718.547307) rotate(-45) scale(0.1 -0.1)">
       <use xlink:href="#DejaVuSans-2212"/>
       <use xlink:href="#DejaVuSans-36" transform="translate(83.789062 0)"/>
       <use xlink:href="#DejaVuSans-34" transform="translate(147.412109 0)"/>
       <use xlink:href="#DejaVuSans-2e" transform="translate(211.035156 0)"/>
       <use xlink:href="#DejaVuSans-35" transform="translate(242.822266 0)"/>
       <use xlink:href="#DejaVuSans-35" transform="translate(306.445312 0)"/>
      </g>
     </g>
    </g>
    <g id="text_10">
     <!-- Longitude (°) -->
     <g transform="translate(336.139844 731.616305) scale(0.1 -0.1)">
      <defs>
       <path id="DejaVuSans-4c" d="M 628 4666 
L 1259 4666 
L 1259 531 
L 3531 531 
L 3531 0 
L 628 0 
L 628 4666 
z
" transform="scale(0.015625)"/>
       <path id="DejaVuSans-6f" d="M 1959 3097 
Q 1497 3097 1228 2736 
Q 959 2375 959 1747 
Q 959 1119 1226 758 
Q 1494 397 1959 397 
Q 2419 397 2687 759 
Q 2956 1122 2956 1747 
Q 2956 2369 2687 2733 
Q 2419 3097 1959 3097 
z
M 1959 3584 
Q 2709 3584 3137 3096 
Q 3566 2609 3566 1747 
Q 3566 888 3137 398 
Q 2709 -91 1959 -91 
Q 1206 -91 779 398 
Q 353 888 353 1747 
Q 353 2609 779 3096 
Q 1206 3584 1959 3584 
z
" transform="scale(0.015625)"/>
       <path id="DejaVuSans-6e" d="M 3513 2113 
L 3513 0 
L 2938 0 
L 2938 2094 
Q 2938 2591 2744 2837 
Q 2550 3084 2163 3084 
Q 1697 3084 1428 2787 
Q 1159 2491 1159 1978 
L 1159 0 
L 581 0 
L 581 3500 
L 1159 3500 
L 1159 2956 
Q 1366 3272 1645 3428 
Q 1925 3584 2291 3584 
Q 2894 3584 3203 3211 
Q 3513 2838 3513 2113 
z
" transform="scale(0.015625)"/>
       <path id="DejaVuSans-67" d="M 2906 1791 
Q 2906 2416 2648 2759 
Q 2391 3103 1925 3103 
Q 1463 3103 1205 2759 
Q 947 2416 947 1791 
Q 947 1169 1205 825 
Q 1463 481 1925 481 
Q 2391 481 2648 825 
Q 2906 1169 2906 1791 
z
M 3481 434 
Q 3481 -459 3084 -895 
Q 2688 -1331 1869 -1331 
Q 1566 -1331 1297 -1286 
Q 1028 -1241 775 -1147 
L 775 -588 
Q 1028 -725 1275 -790 
Q 1522 -856 1778 -856 
Q 2344 -856 2625 -561 
Q 2906 -266 2906 331 
L 2906 616 
Q 2728 306 2450 153 
Q 2172 0 1784 0 
Q 1141 0 747 490 
Q 353 981 353 1791 
Q 353 2603 747 3093 
Q 1141 3584 1784 3584 
Q 2172 3584 2450 3431 
Q 2728 3278 2906 2969 
L 2906 3500 
L 3481 3500 
L 3481 434 
z
" transform="scale(0.015625)"/>
       <path id="DejaVuSans-69" d="M 603 3500 
L 1178 3500 
L 1178 0 
L 603 0 
L 603 3500 
z
M 603 4863 
L 1178 4863 
L 1178 4134 
L 603 4134 
L 603 4863 
z
" transform="scale(0.015625)"/>
       <path id="DejaVuSans-74" d="M 1172 4494 
L 1172 3500 
L 2356 3500 
L 2356 3053 
L 1172 3053 
L 1172 1153 
Q 1172 725 1289 603 
Q 1406 481 1766 481 
L 2356 481 
L 2356 0 
L 1766 0 
Q 1100 0 847 248 
Q 594 497 594 1153 
L 594 3053 
L 172 3053 
L 172 3500 
L 594 3500 
L 594 4494 
L 1172 4494 
z
" transform="scale(0.015625)"/>
       <path id="DejaVuSans-75" d="M 544 1381 
L 544 3500 
L 1119 3500 
L 1119 1403 
Q 1119 906 1312 657 
Q 1506 409 1894 409 
Q 2359 409 2629 706 
Q 2900 1003 2900 1516 
L 2900 3500 
L 3475 3500 
L 3475 0 
L 2900 0 
L 2900 538 
Q 2691 219 2414 64 
Q 2138 -91 1772 -91 
Q 1169 -91 856 284 
Q 544 659 544 1381 
z
M 1991 3584 
L 1991 3584 
z
" transform="scale(0.015625)"/>
       <path id="DejaVuSans-64" d="M 2906 2969 
L 2906 4863 
L 3481 4863 
L 3481 0 
L 2906 0 
L 2906 525 
Q 2725 213 2448 61 
Q 2172 -91 1784 -91 
Q 1150 -91 751 415 
Q 353 922 353 1747 
Q 353 2572 751 3078 
Q 1150 3584 1784 3584 
Q 2172 3584 2448 3432 
Q 2725 3281 2906 2969 
z
M 947 1747 
Q 947 1113 1208 752 
Q 1469 391 1925 391 
Q 2381 391 2643 752 
Q 2906 1113 2906 1747 
Q 2906 2381 2643 2742 
Q 2381 3103 1925 3103 
Q 1469 3103 1208 2742 
Q 947 2381 947 1747 
z
" transform="scale(0.015625)"/>
       <path id="DejaVuSans-65" d="M 3597 1894 
L 3597 1613 
L 953 1613 
Q 991 1019 1311 708 
Q 1631 397 2203 397 
Q 2534 397 2845 478 
Q 3156 559 3463 722 
L 3463 178 
Q 3153 47 2828 -22 
Q 2503 -91 2169 -91 
Q 1331 -91 842 396 
Q 353 884 353 1716 
Q 353 2575 817 3079 
Q 1281 3584 2069 3584 
Q 2775 3584 3186 3129 
Q 3597 2675 3597 1894 
z
M 3022 2063 
Q 3016 2534 2758 2815 
Q 2500 3097 2075 3097 
Q 1594 3097 1305 2825 
Q 1016 2553 972 2059 
L 3022 2063 
z
" transform="scale(0.015625)"/>
       <path id="DejaVuSans-20" transform="scale(0.015625)"/>
       <path id="DejaVuSans-28" d="M 1984 4856 
Q 1566 4138 1362 3434 
Q 1159 2731 1159 2009 
Q 1159 1288 1364 580 
Q 1569 -128 1984 -844 
L 1484 -844 
Q 1016 -109 783 600 
Q 550 1309 550 2009 
Q 550 2706 781 3412 
Q 1013 4119 1484 4856 
L 1984 4856 
z
" transform="scale(0.015625)"/>
       <path id="DejaVuSans-b0" d="M 1600 4347 
Q 1350 4347 1178 4173 
Q 1006 4000 1006 3750 
Q 1006 3503 1178 3333 
Q 1350 3163 1600 3163 
Q 1850 3163 2022 3333 
Q 2194 3503 2194 3750 
Q 2194 3997 2020 4172 
Q 1847 4347 1600 4347 
z
M 1600 4750 
Q 1800 4750 1984 4673 
Q 2169 4597 2303 4453 
Q 2447 4313 2519 4134 
Q 2591 3956 2591 3750 
Q 2591 3338 2302 3052 
Q 2013 2766 1594 2766 
Q 1172 2766 890 3047 
Q 609 3328 609 3750 
Q 609 4169 896 4459 
Q 1184 4750 1600 4750 
z
" transform="scale(0.015625)"/>
       <path id="DejaVuSans-29" d="M 513 4856 
L 1013 4856 
Q 1481 4119 1714 3412 
Q 1947 2706 1947 2009 
Q 1947 1309 1714 600 
Q 1481 -109 1013 -844 
L 513 -844 
Q 928 -128 1133 580 
Q 1338 1288 1338 2009 
Q 1338 2731 1133 3434 
Q 928 4138 513 4856 
z
" transform="scale(0.015625)"/>
      </defs>
      <use xlink:href="#DejaVuSans-4c"/>
      <use xlink:href="#DejaVuSans-6f" transform="translate(53.962891 0)"/>
      <use xlink:href="#DejaVuSans-6e" transform="translate(115.144531 0)"/>
      <use xlink:href="#DejaVuSans-67" transform="translate(178.523438 0)"/>
      <use xlink:href="#DejaVuSans-69" transform="translate(242 0)"/>
      <use xlink:href="#DejaVuSans-74" transform="translate(269.783203 0)"/>
      <use xlink:href="#DejaVuSans-75" transform="translate(308.992188 0)"/>
      <use xlink:href="#DejaVuSans-64" transform="translate(372.371094 0)"/>
      <use xlink:href="#DejaVuSans-65" transform="translate(435.847656 0)"/>
      <use xlink:href="#DejaVuSans-20" transform="translate(497.371094 0)"/>
      <use xlink:href="#DejaVuSans-28" transform="translate(529.158203 0)"/>
      <use xlink:href="#DejaVuSans-b0" transform="translate(568.171875 0)"/>
      <use xlink:href="#DejaVuSans-29" transform="translate(618.171875 0)"/>
     </g>
    </g>
   </g>
   <g id="matplotlib.axis_2">
    <g id="ytick_1">
     <g id="line2d_19">
      <path d="M 90 622.346246 
L 648 622.346246 
" clip-path="url(#p107c54fedd)" style="fill: none; stroke: #b0b0b0; stroke-width: 0.8; stroke-linecap: square"/>
     </g>
     <g id="line2d_20">
      <defs>
       <path id="m874da489fa" d="M 0 0 
L -3.5 0 
" style="stroke: #000000; stroke-width: 0.8"/>
      </defs>
      <g>
       <use xlink:href="#m874da489fa" x="90" y="622.346246" style="stroke: #000000; stroke-width: 0.8"/>
      </g>
     </g>
     <g id="text_11">
      <!-- −7.45 -->
      <g transform="translate(52.354687 626.145465) scale(0.1 -0.1)">
       <use xlink:href="#DejaVuSans-2212"/>
       <use xlink:href="#DejaVuSans-37" transform="translate(83.789062 0)"/>
       <use xlink:href="#DejaVuSans-2e" transform="translate(147.412109 0)"/>
       <use xlink:href="#DejaVuSans-34" transform="translate(179.199219 0)"/>
       <use xlink:href="#DejaVuSans-35" transform="translate(242.822266 0)"/>
      </g>
     </g>
    </g>
    <g id="ytick_2">
     <g id="line2d_21">
      <path d="M 90 554.815269 
L 648 554.815269 
" clip-path="url(#p107c54fedd)" style="fill: none; stroke: #b0b0b0; stroke-width: 0.8; stroke-linecap: square"/>
     </g>
     <g id="line2d_22">
      <g>
       <use xlink:href="#m874da489fa" x="90" y="554.815269" style="stroke: #000000; stroke-width: 0.8"/>
      </g>
     </g>
     <g id="text_12">
      <!-- −7.40 -->
      <g transform="translate(52.354687 558.614487) scale(0.1 -0.1)">
       <use xlink:href="#DejaVuSans-2212"/>
       <use xlink:href="#DejaVuSans-37" transform="translate(83.789062 0)"/>
       <use xlink:href="#DejaVuSans-2e" transform="translate(147.412109 0)"/>
       <use xlink:href="#DejaVuSans-34" transform="translate(179.199219 0)"/>
       <use xlink:href="#DejaVuSans-30" transform="translate(242.822266 0)"/>
      </g>
     </g>
    </g>
    <g id="ytick_3">
     <g id="line2d_23">
      <path d="M 90 487.284291 
L 648 487.284291 
" clip-path="url(#p107c54fedd)" style="fill: none; stroke: #b0b0b0; stroke-width: 0.8; stroke-linecap: square"/>
     </g>
     <g id="line2d_24">
      <g>
       <use xlink:href="#m874da489fa" x="90" y="487.284291" style="stroke: #000000; stroke-width: 0.8"/>
      </g>
     </g>
     <g id="text_13">
      <!-- −7.35 -->
      <g transform="translate(52.354687 491.08351) scale(0.1 -0.1)">
       <defs>
        <path id="DejaVuSans-33" d="M 2597 2516 
Q 3050 2419 3304 2112 
Q 3559 1806 3559 1356 
Q 3559 666 3084 287 
Q 2609 -91 1734 -91 
Q 1441 -91 1130 -33 
Q 819 25 488 141 
L 488 750 
Q 750 597 1062 519 
Q 1375 441 1716 441 
Q 2309 441 2620 675 
Q 2931 909 2931 1356 
Q 2931 1769 2642 2001 
Q 2353 2234 1838 2234 
L 1294 2234 
L 1294 2753 
L 1863 2753 
Q 2328 2753 2575 2939 
Q 2822 3125 2822 3475 
Q 2822 3834 2567 4026 
Q 2313 4219 1838 4219 
Q 1578 4219 1281 4162 
Q 984 4106 628 3988 
L 628 4550 
Q 988 4650 1302 4700 
Q 1616 4750 1894 4750 
Q 2613 4750 3031 4423 
Q 3450 4097 3450 3541 
Q 3450 3153 3228 2886 
Q 3006 2619 2597 2516 
z
" transform="scale(0.015625)"/>
       </defs>
       <use xlink:href="#DejaVuSans-2212"/>
       <use xlink:href="#DejaVuSans-37" transform="translate(83.789062 0)"/>
       <use xlink:href="#DejaVuSans-2e" transform="translate(147.412109 0)"/>
       <use xlink:href="#DejaVuSans-33" transform="translate(179.199219 0)"/>
       <use xlink:href="#DejaVuSans-35" transform="translate(242.822266 0)"/>
      </g>
     </g>
    </g>
    <g id="ytick_4">
     <g id="line2d_25">
      <path d="M 90 419.753314 
L 648 419.753314 
" clip-path="url(#p107c54fedd)" style="fill: none; stroke: #b0b0b0; stroke-width: 0.8; stroke-linecap: square"/>
     </g>
     <g id="line2d_26">
      <g>
       <use xlink:href="#m874da489fa" x="90" y="419.753314" style="stroke: #000000; stroke-width: 0.8"/>
      </g>
     </g>
     <g id="text_14">
      <!-- −7.30 -->
      <g transform="translate(52.354687 423.552533) scale(0.1 -0.1)">
       <use xlink:href="#DejaVuSans-2212"/>
       <use xlink:href="#DejaVuSans-37" transform="translate(83.789062 0)"/>
       <use xlink:href="#DejaVuSans-2e" transform="translate(147.412109 0)"/>
       <use xlink:href="#DejaVuSans-33" transform="translate(179.199219 0)"/>
       <use xlink:href="#DejaVuSans-30" transform="translate(242.822266 0)"/>
      </g>
     </g>
    </g>
    <g id="ytick_5">
     <g id="line2d_27">
      <path d="M 90 352.222336 
L 648 352.222336 
" clip-path="url(#p107c54fedd)" style="fill: none; stroke: #b0b0b0; stroke-width: 0.8; stroke-linecap: square"/>
     </g>
     <g id="line2d_28">
      <g>
       <use xlink:href="#m874da489fa" x="90" y="352.222336" style="stroke: #000000; stroke-width: 0.8"/>
      </g>
     </g>
     <g id="text_15">
      <!-- −7.25 -->
      <g transform="translate(52.354687 356.021555) scale(0.1 -0.1)">
       <defs>
        <path id="DejaVuSans-32" d="M 1228 531 
L 3431 531 
L 3431 0 
L 469 0 
L 469 531 
Q 828 903 1448 1529 
Q 2069 2156 2228 2338 
Q 2531 2678 2651 2914 
Q 2772 3150 2772 3378 
Q 2772 3750 2511 3984 
Q 2250 4219 1831 4219 
Q 1534 4219 1204 4116 
Q 875 4013 500 3803 
L 500 4441 
Q 881 4594 1212 4672 
Q 1544 4750 1819 4750 
Q 2544 4750 2975 4387 
Q 3406 4025 3406 3419 
Q 3406 3131 3298 2873 
Q 3191 2616 2906 2266 
Q 2828 2175 2409 1742 
Q 1991 1309 1228 531 
z
" transform="scale(0.015625)"/>
       </defs>
       <use xlink:href="#DejaVuSans-2212"/>
       <use xlink:href="#DejaVuSans-37" transform="translate(83.789062 0)"/>
       <use xlink:href="#DejaVuSans-2e" transform="translate(147.412109 0)"/>
       <use xlink:href="#DejaVuSans-32" transform="translate(179.199219 0)"/>
       <use xlink:href="#DejaVuSans-35" transform="translate(242.822266 0)"/>
      </g>
     </g>
    </g>
    <g id="ytick_6">
     <g id="line2d_29">
      <path d="M 90 284.691359 
L 648 284.691359 
" clip-path="url(#p107c54fedd)" style="fill: none; stroke: #b0b0b0; stroke-width: 0.8; stroke-linecap: square"/>
     </g>
     <g id="line2d_30">
      <g>
       <use xlink:href="#m874da489fa" x="90" y="284.691359" style="stroke: #000000; stroke-width: 0.8"/>
      </g>
     </g>
     <g id="text_16">
      <!-- −7.20 -->
      <g transform="translate(52.354687 288.490578) scale(0.1 -0.1)">
       <use xlink:href="#DejaVuSans-2212"/>
       <use xlink:href="#DejaVuSans-37" transform="translate(83.789062 0)"/>
       <use xlink:href="#DejaVuSans-2e" transform="translate(147.412109 0)"/>
       <use xlink:href="#DejaVuSans-32" transform="translate(179.199219 0)"/>
       <use xlink:href="#DejaVuSans-30" transform="translate(242.822266 0)"/>
      </g>
     </g>
    </g>
    <g id="ytick_7">
     <g id="line2d_31">
      <path d="M 90 217.160382 
L 648 217.160382 
" clip-path="url(#p107c54fedd)" style="fill: none; stroke: #b0b0b0; stroke-width: 0.8; stroke-linecap: square"/>
     </g>
     <g id="line2d_32">
      <g>
       <use xlink:href="#m874da489fa" x="90" y="217.160382" style="stroke: #000000; stroke-width: 0.8"/>
      </g>
     </g>
     <g id="text_17">
      <!-- −7.15 -->
      <g transform="translate(52.354687 220.9596) scale(0.1 -0.1)">
       <defs>
        <path id="DejaVuSans-31" d="M 794 531 
L 1825 531 
L 1825 4091 
L 703 3866 
L 703 4441 
L 1819 4666 
L 2450 4666 
L 2450 531 
L 3481 531 
L 3481 0 
L 794 0 
L 794 531 
z
" transform="scale(0.015625)"/>
       </defs>
       <use xlink:href="#DejaVuSans-2212"/>
       <use xlink:href="#DejaVuSans-37" transform="translate(83.789062 0)"/>
       <use xlink:href="#DejaVuSans-2e" transform="translate(147.412109 0)"/>
       <use xlink:href="#DejaVuSans-31" transform="translate(179.199219 0)"/>
       <use xlink:href="#DejaVuSans-35" transform="translate(242.822266 0)"/>
      </g>
     </g>
    </g>
    <g id="text_18">
     <!-- Latitude (°) -->
     <g transform="translate(46.275 464.889531) rotate(-90) scale(0.1 -0.1)">
      <defs>
       <path id="DejaVuSans-61" d="M 2194 1759 
Q 1497 1759 1228 1600 
Q 959 1441 959 1056 
Q 959 750 1161 570 
Q 1363 391 1709 391 
Q 2188 391 2477 730 
Q 2766 1069 2766 1631 
L 2766 1759 
L 2194 1759 
z
M 3341 1997 
L 3341 0 
L 2766 0 
L 2766 531 
Q 2569 213 2275 61 
Q 1981 -91 1556 -91 
Q 1019 -91 701 211 
Q 384 513 384 1019 
Q 384 1609 779 1909 
Q 1175 2209 1959 2209 
L 2766 2209 
L 2766 2266 
Q 2766 2663 2505 2880 
Q 2244 3097 1772 3097 
Q 1472 3097 1187 3025 
Q 903 2953 641 2809 
L 641 3341 
Q 956 3463 1253 3523 
Q 1550 3584 1831 3584 
Q 2591 3584 2966 3190 
Q 3341 2797 3341 1997 
z
" transform="scale(0.015625)"/>
      </defs>
      <use xlink:href="#DejaVuSans-4c"/>
      <use xlink:href="#DejaVuSans-61" transform="translate(55.712891 0)"/>
      <use xlink:href="#DejaVuSans-74" transform="translate(116.992188 0)"/>
      <use xlink:href="#DejaVuSans-69" transform="translate(156.201172 0)"/>
      <use xlink:href="#DejaVuSans-74" transform="translate(183.984375 0)"/>
      <use xlink:href="#DejaVuSans-75" transform="translate(223.193359 0)"/>
      <use xlink:href="#DejaVuSans-64" transform="translate(286.572266 0)"/>
      <use xlink:href="#DejaVuSans-65" transform="translate(350.048828 0)"/>
      <use xlink:href="#DejaVuSans-20" transform="translate(411.572266 0)"/>
      <use xlink:href="#DejaVuSans-28" transform="translate(443.359375 0)"/>
      <use xlink:href="#DejaVuSans-b0" transform="translate(482.373047 0)"/>
      <use xlink:href="#DejaVuSans-29" transform="translate(532.373047 0)"/>
     </g>
    </g>
   </g>
   <g id="patch_3">
    <path d="M 90 680.005925 
L 90 192.634075 
" style="fill: none; stroke: #000000; stroke-width: 0.8; stroke-linejoin: miter; stroke-linecap: square"/>
   </g>
   <g id="patch_4">
    <path d="M 648 680.005925 
L 648 192.634075 
" style="fill: none; stroke: #000000; stroke-width: 0.8; stroke-linejoin: miter; stroke-linecap: square"/>
   </g>
   <g id="patch_5">
    <path d="M 90 680.005925 
L 648 680.005925 
" style="fill: none; stroke: #000000; stroke-width: 0.8; stroke-linejoin: miter; stroke-linecap: square"/>
   </g>
   <g id="patch_6">
    <path d="M 90 192.634075 
L 648 192.634075 
" style="fill: none; stroke: #000000; stroke-width: 0.8; stroke-linejoin: miter; stroke-linecap: square"/>
   </g>
   <g id="legend_1">
    <g id="patch_7">
     <path d="M 328.951563 800.15842 
L 409.048438 800.15842 
Q 411.048438 800.15842 411.048438 798.15842 
L 411.048438 784.480295 
Q 411.048438 782.480295 409.048438 782.480295 
L 328.951563 782.480295 
Q 326.951563 782.480295 326.951563 784.480295 
L 326.951563 798.15842 
Q 326.951563 800.15842 328.951563 800.15842 
z
" style="fill: #ffffff; opacity: 0.8; stroke: #cccccc; stroke-linejoin: miter"/>
    </g>
    <g id="line2d_33">
     <defs>
      <path id="mef753a8837" d="M 0 5 
C 1.326016 5 2.597899 4.473168 3.535534 3.535534 
C 4.473168 2.597899 5 1.326016 5 0 
C 5 -1.326016 4.473168 -2.597899 3.535534 -3.535534 
C 2.597899 -4.473168 1.326016 -5 0 -5 
C -1.326016 -5 -2.597899 -4.473168 -3.535534 -3.535534 
C -4.473168 -2.597899 -5 -1.326016 -5 0 
C -5 1.326016 -4.473168 2.597899 -3.535534 3.535534 
C -2.597899 4.473168 -1.326016 5 0 5 
z
"/>
     </defs>
     <g>
      <use xlink:href="#mef753a8837" x="340.951563" y="790.578732" style="fill: #b3e2cd; fill-opacity: 0.65"/>
     </g>
    </g>
    <g id="text_19">
     <!-- PA UMARI -->
     <g transform="translate(358.951563 794.078732) scale(0.1 -0.1)">
      <defs>
       <path id="DejaVuSans-50" d="M 1259 4147 
L 1259 2394 
L 2053 2394 
Q 2494 2394 2734 2622 
Q 2975 2850 2975 3272 
Q 2975 3691 2734 3919 
Q 2494 4147 2053 4147 
L 1259 4147 
z
M 628 4666 
L 2053 4666 
Q 2838 4666 3239 4311 
Q 3641 3956 3641 3272 
Q 3641 2581 3239 2228 
Q 2838 1875 2053 1875 
L 1259 1875 
L 1259 0 
L 628 0 
L 628 4666 
z
" transform="scale(0.015625)"/>
       <path id="DejaVuSans-41" d="M 2188 4044 
L 1331 1722 
L 3047 1722 
L 2188 4044 
z
M 1831 4666 
L 2547 4666 
L 4325 0 
L 3669 0 
L 3244 1197 
L 1141 1197 
L 716 0 
L 50 0 
L 1831 4666 
z
" transform="scale(0.015625)"/>
       <path id="DejaVuSans-55" d="M 556 4666 
L 1191 4666 
L 1191 1831 
Q 1191 1081 1462 751 
Q 1734 422 2344 422 
Q 2950 422 3222 751 
Q 3494 1081 3494 1831 
L 3494 4666 
L 4128 4666 
L 4128 1753 
Q 4128 841 3676 375 
Q 3225 -91 2344 -91 
Q 1459 -91 1007 375 
Q 556 841 556 1753 
L 556 4666 
z
" transform="scale(0.015625)"/>
       <path id="DejaVuSans-4d" d="M 628 4666 
L 1569 4666 
L 2759 1491 
L 3956 4666 
L 4897 4666 
L 4897 0 
L 4281 0 
L 4281 4097 
L 3078 897 
L 2444 897 
L 1241 4097 
L 1241 0 
L 628 0 
L 628 4666 
z
" transform="scale(0.015625)"/>
       <path id="DejaVuSans-52" d="M 2841 2188 
Q 3044 2119 3236 1894 
Q 3428 1669 3622 1275 
L 4263 0 
L 3584 0 
L 2988 1197 
Q 2756 1666 2539 1819 
Q 2322 1972 1947 1972 
L 1259 1972 
L 1259 0 
L 628 0 
L 628 4666 
L 2053 4666 
Q 2853 4666 3247 4331 
Q 3641 3997 3641 3322 
Q 3641 2881 3436 2590 
Q 3231 2300 2841 2188 
z
M 1259 4147 
L 1259 2491 
L 2053 2491 
Q 2509 2491 2742 2702 
Q 2975 2913 2975 3322 
Q 2975 3731 2742 3939 
Q 2509 4147 2053 4147 
L 1259 4147 
z
" transform="scale(0.015625)"/>
       <path id="DejaVuSans-49" d="M 628 4666 
L 1259 4666 
L 1259 0 
L 628 0 
L 628 4666 
z
" transform="scale(0.015625)"/>
      </defs>
      <use xlink:href="#DejaVuSans-50"/>
      <use xlink:href="#DejaVuSans-41" transform="translate(53.927734 0)"/>
      <use xlink:href="#DejaVuSans-20" transform="translate(122.335938 0)"/>
      <use xlink:href="#DejaVuSans-55" transform="translate(154.123047 0)"/>
      <use xlink:href="#DejaVuSans-4d" transform="translate(227.316406 0)"/>
      <use xlink:href="#DejaVuSans-41" transform="translate(313.595703 0)"/>
      <use xlink:href="#DejaVuSans-52" transform="translate(382.003906 0)"/>
      <use xlink:href="#DejaVuSans-49" transform="translate(451.486328 0)"/>
     </g>
    </g>
   </g>
  </g>
 </g>
 <defs>
  <clipPath id="p107c54fedd">
   <rect x="90" y="192.634075" width="558" height="487.371849"/>
  </clipPath>
 </defs>
</svg>
