<?xml version="1.0" encoding="utf-8" standalone="no"?>
<!DOCTYPE svg PUBLIC "-//W3C//DTD SVG 1.1//EN"
  "http://www.w3.org/Graphics/SVG/1.1/DTD/svg11.dtd">
<svg xmlns:xlink="http://www.w3.org/1999/xlink" width="720pt" height="864pt" viewBox="0 0 720 864" xmlns="http://www.w3.org/2000/svg" version="1.1">
 <metadata>
  <rdf:RDF xmlns:dc="http://purl.org/dc/elements/1.1/" xmlns:cc="http://creativecommons.org/ns#" xmlns:rdf="http://www.w3.org/1999/02/22-rdf-syntax-ns#">
   <cc:Work>
    <dc:type rdf:resource="http://purl.org/dc/dcmitype/StillImage"/>
    <dc:date>2025-06-16T17:16:52.195082</dc:date>
    <dc:format>image/svg+xml</dc:format>
    <dc:creator>
     <cc:Agent>
      <dc:title>Matplotlib v3.10.1, https://matplotlib.org/</dc:title>
     </cc:Agent>
    </dc:creator>
   </cc:Work>
  </rdf:RDF>
 </metadata>
 <defs>
  <style type="text/css">*{stroke-linejoin: round; stroke-linecap: butt}</style>
 </defs>
 <g id="figure_1">
  <g id="patch_1">
   <path d="M 0 864 
L 720 864 
L 720 0 
L 0 0 
z
" style="fill: #ffffff"/>
  </g>
  <g id="axes_1">
   <g id="patch_2">
    <path d="M 90 692.444859 
L 648 692.444859 
L 648 180.195141 
L 90 180.195141 
z
" style="fill: #ffffff"/>
   </g>
   <g id="PatchCollection_1">
    <path d="M 319.598341 547.500238 
L 322.402421 561.716822 
L 309.255322 561.086805 
L 308.961847 572.223713 
L 316.514844 572.671758 
L 315.501325 589.697888 
L 243.293258 618.581759 
L 230.796118 623.645197 
L 220.339602 627.739663 
L 215.090007 629.71624 
L 213.349979 630.394441 
L 211.603932 631.072319 
L 209.864782 631.757998 
L 208.12276 632.442221 
L 206.382937 633.126018 
L 204.642844 633.807998 
L 202.902476 634.492359 
L 201.166408 635.174568 
L 199.425961 635.858797 
L 197.682906 636.544273 
L 195.942638 637.228643 
L 194.188156 637.918845 
L 192.462854 638.597587 
L 190.725998 639.281074 
L 188.983841 639.966917 
L 187.244066 640.65185 
L 185.515002 641.332883 
L 183.789397 642.012489 
L 182.027975 642.706196 
L 180.286272 643.392521 
L 178.526338 644.086392 
L 176.805063 644.764871 
L 175.066451 645.450304 
L 172.827644 646.333002 
L 171.09055 647.01849 
L 169.351218 647.704619 
L 167.589841 648.399937 
L 165.874203 649.077082 
L 164.182208 649.745423 
L 162.381571 650.456272 
L 160.700339 651.119593 
L 158.958342 651.807034 
L 157.217832 652.493759 
L 155.47691 653.180679 
L 153.735536 653.86754 
L 151.992326 654.555007 
L 150.251122 655.241438 
L 148.545873 655.913658 
L 146.765162 656.615284 
L 145.047131 657.292162 
L 143.296657 657.981498 
L 141.543543 658.6715 
L 139.798403 659.358362 
L 138.008106 660.062751 
L 136.318683 660.727222 
L 134.521454 661.433897 
L 132.838014 662.095891 
L 131.137409 662.764405 
L 129.343601 663.469149 
L 127.602881 664.152886 
L 124.094407 665.530085 
L 120.548793 666.92082 
L 116.559741 668.460223 
L 115.71577 669.160781 
L 115.812085 668.872397 
L 115.912188 668.677521 
L 116.491044 668.133076 
L 116.750031 667.676271 
L 116.80952 667.421071 
L 116.690085 667.141997 
L 116.068617 666.546142 
L 115.854215 666.134871 
L 115.783254 665.874599 
L 115.386808 664.420492 
L 115.363636 664.087572 
L 115.434415 663.734663 
L 115.755127 663.01178 
L 116.375076 661.995439 
L 116.593771 661.636909 
L 116.819179 661.372729 
L 116.920261 661.254259 
L 117.170063 661.085704 
L 117.390407 661.07958 
L 117.814404 661.173037 
L 118.674563 661.501392 
L 119.683826 661.886663 
L 120.407492 661.941068 
L 121.390607 661.804582 
L 122.191542 661.591411 
L 122.621083 661.406319 
L 123.143688 661.099186 
L 123.413865 660.940404 
L 124.011597 660.809913 
L 124.230354 660.620239 
L 124.343968 660.393924 
L 124.312115 659.970199 
L 124.385538 659.738964 
L 125.136693 658.864705 
L 125.371018 658.424845 
L 125.452597 657.993759 
L 125.43962 657.801191 
L 125.417073 657.466607 
L 125.278034 656.995333 
L 124.938562 656.478691 
L 124.470512 656.011678 
L 123.637629 655.309851 
L 123.289248 654.920704 
L 123.022073 654.259873 
L 122.669813 652.840428 
L 122.433166 652.454043 
L 122.287359 652.319585 
L 122.06439 652.113971 
L 121.883159 651.987602 
L 121.844771 651.633121 
L 122.008229 650.327554 
L 122.107039 649.842828 
L 122.134242 649.81393 
L 122.302313 649.635394 
L 122.5022 649.572315 
L 122.664997 649.711418 
L 123.012472 650.00832 
L 123.349295 649.990773 
L 123.660258 649.869083 
L 124.367531 649.592305 
L 124.771595 649.55795 
L 124.864335 649.604835 
L 124.869075 649.86881 
L 124.852661 650.168132 
L 124.89095 650.479335 
L 124.998015 650.652017 
L 125.038056 650.716597 
L 125.315905 650.731823 
L 125.748679 650.60327 
L 126.927388 650.253135 
L 127.296531 650.209574 
L 128.046085 650.2445 
L 128.2807 650.194763 
L 128.457575 650.102501 
L 128.697067 649.818603 
L 128.762649 649.74086 
L 129.872956 647.287488 
L 129.982795 647.10409 
L 130.233546 646.685409 
L 130.699505 646.167741 
L 131.56484 645.540586 
L 131.731128 645.360271 
L 131.984464 644.779288 
L 131.993384 644.73893 
L 132.175249 643.916042 
L 132.302058 643.001531 
L 132.412327 642.2063 
L 132.409302 641.499168 
L 132.060261 640.479507 
L 131.809986 640.193202 
L 131.568317 640.077781 
L 130.446108 640.60517 
L 129.823839 640.131483 
L 127.749577 640.230737 
L 127.69492 639.879023 
L 127.560784 639.571422 
L 127.374906 638.624869 
L 127.168772 637.89368 
L 126.614865 637.092779 
L 125.938351 635.327182 
L 125.716679 634.911062 
L 125.354188 634.531063 
L 125.261974 634.253191 
L 125.055388 633.775274 
L 125.041032 633.583852 
L 125.02593 633.382467 
L 125.206695 633.047618 
L 125.614664 632.758036 
L 126.551545 632.365244 
L 126.856227 632.106251 
L 127.014521 631.859011 
L 127.227393 631.323253 
L 127.727584 629.601799 
L 127.881699 629.240258 
L 128.456222 627.632274 
L 128.734424 626.677205 
L 128.751896 626.198465 
L 128.687754 625.639149 
L 128.666588 625.454575 
L 128.599803 624.573155 
L 128.660924 623.341719 
L 128.635048 622.87194 
L 126.140303 620.642493 
L 125.240981 620.213295 
L 124.947741 619.606126 
L 123.948248 618.950299 
L 123.884287 617.999859 
L 123.757105 617.662024 
L 123.750321 617.328754 
L 123.867989 616.931937 
L 124.134227 616.490749 
L 124.33583 616.289874 
L 124.752018 615.622951 
L 124.822013 615.334845 
L 124.927856 614.899187 
L 124.943746 614.563031 
L 124.920402 614.471416 
L 124.655349 613.431189 
L 124.482019 612.912303 
L 124.372454 612.186828 
L 124.418869 611.662433 
L 124.45952 611.189295 
L 124.461276 611.168861 
L 124.61089 610.946116 
L 124.655199 610.880149 
L 124.712316 610.840175 
L 125.120782 610.554298 
L 125.598564 610.310736 
L 125.921156 610.164151 
L 126.330287 609.978242 
L 127.28299 609.517785 
L 127.637898 609.346252 
L 128.12104 608.989252 
L 128.417927 608.579433 
L 128.390012 607.765677 
L 128.347348 606.522 
L 128.211565 606.08274 
L 128.285558 605.832056 
L 128.104746 605.244246 
L 128.061917 604.704385 
L 128.18178 604.343387 
L 128.569733 603.687585 
L 129.151181 602.840733 
L 129.183128 602.794204 
L 129.391597 602.633442 
L 129.608873 602.614112 
L 129.852585 602.688443 
L 130.289927 603.03753 
L 130.525166 603.377182 
L 130.583797 603.522891 
L 130.88752 604.277701 
L 131.069845 604.503192 
L 131.248738 604.610244 
L 131.537274 604.624858 
L 131.851183 604.528697 
L 132.218849 604.331275 
L 133.250453 603.777342 
L 133.290957 603.7756 
L 133.564911 603.763823 
L 133.80317 603.900964 
L 133.893204 604.026141 
L 133.880617 604.192555 
L 133.844333 604.219362 
L 133.656746 604.357954 
L 133.306854 604.669046 
L 133.186807 605.136048 
L 133.244817 605.500854 
L 133.409308 605.932431 
L 133.547992 606.101165 
L 133.881921 606.50745 
L 134.447688 606.845797 
L 134.960428 606.962123 
L 135.317482 606.963515 
L 135.783346 606.813726 
L 136.144159 606.60613 
L 136.583871 606.224993 
L 137.042488 605.757588 
L 137.433906 605.358669 
L 138.967504 603.918843 
L 139.308197 603.420513 
L 139.478802 603.101058 
L 139.79288 602.512948 
L 140.906492 601.207896 
L 141.345497 600.450052 
L 141.505596 599.838394 
L 141.505753 599.767425 
L 141.505805 599.743617 
L 141.506688 599.342016 
L 141.387601 598.893787 
L 140.953944 597.590608 
L 141.026106 597.314308 
L 140.972147 596.739987 
L 141.00025 596.459649 
L 141.141386 595.984425 
L 141.469987 595.45045 
L 141.638853 595.285244 
L 141.789832 595.206292 
L 141.909973 595.143465 
L 144.025138 594.54471 
L 144.627253 594.262387 
L 145.330686 593.720395 
L 145.432113 593.61401 
L 146.229467 592.777669 
L 147.040316 592.022302 
L 147.323204 591.842873 
L 147.700236 591.770894 
L 148.620999 591.689668 
L 148.970758 591.558159 
L 149.438634 591.295118 
L 149.541427 591.188397 
L 149.879037 589.453206 
L 149.638887 588.164809 
L 149.446713 587.5263 
L 149.329436 587.280471 
L 149.05753 586.8743 
L 148.475573 585.777032 
L 148.385009 584.712375 
L 148.225332 583.642444 
L 148.105596 583.205327 
L 148.253417 582.961733 
L 148.326794 582.658886 
L 149.016942 581.703514 
L 148.630764 580.507724 
L 147.827577 579.991322 
L 147.151385 579.55657 
L 146.751722 579.299609 
L 145.988022 578.808593 
L 144.758666 578.018185 
L 144.174007 576.906664 
L 143.424364 576.347413 
L 142.59065 575.845639 
L 141.965973 575.593925 
L 141.202363 575.286228 
L 141.011759 575.014949 
L 141.06199 574.691294 
L 140.930549 574.325522 
L 140.993462 573.658776 
L 141.55698 572.310599 
L 142.66891 570.421054 
L 142.877366 570.066815 
L 142.889767 570.045741 
L 143.370637 569.472289 
L 143.674569 569.225392 
L 143.794759 569.127757 
L 144.326645 568.791235 
L 144.841628 568.291547 
L 145.203318 567.787295 
L 146.255305 565.917806 
L 146.409204 565.503731 
L 146.43316 565.167162 
L 146.518137 564.315015 
L 146.554254 563.126557 
L 146.824346 562.083284 
L 146.913352 561.516374 
L 146.970701 561.152667 
L 146.889498 560.743741 
L 146.677197 560.221456 
L 146.314405 559.942813 
L 145.83779 559.846565 
L 145.173094 559.867084 
L 144.722082 559.935874 
L 144.280111 560.145024 
L 143.606581 560.649042 
L 143.234175 560.927722 
L 142.579738 561.295081 
L 142.079053 561.472371 
L 141.026254 561.352596 
L 140.495539 561.390194 
L 140.102707 561.582525 
L 139.817061 561.85681 
L 139.509675 562.638518 
L 139.474045 562.72913 
L 139.260175 563.038179 
L 139.159671 563.096479 
L 138.636074 563.400205 
L 138.27685 563.72449 
L 137.725193 564.818086 
L 137.671759 564.890946 
L 137.473093 565.16184 
L 137.12934 565.285372 
L 136.827903 565.278518 
L 136.392671 565.156211 
L 135.882677 564.920789 
L 135.490943 564.623867 
L 135.027272 564.13968 
L 133.511683 562.311138 
L 133.207099 561.804918 
L 133.125038 561.231387 
L 133.217302 560.809595 
L 133.225064 560.73622 
L 133.328714 559.756372 
L 133.252826 558.022264 
L 133.27141 556.997937 
L 133.366735 556.46048 
L 133.45307 556.234619 
L 133.514798 556.073134 
L 133.789722 555.81369 
L 134.55876 555.272561 
L 134.574376 555.225873 
L 134.699409 554.852057 
L 134.797977 554.541624 
L 134.76201 554.117487 
L 134.69516 553.555108 
L 134.53313 553.209735 
L 133.774702 552.508007 
L 133.02922 551.989256 
L 131.913443 552.214889 
L 130.526164 552.451593 
L 130.185647 552.144244 
L 129.474396 552.053719 
L 129.043241 551.921308 
L 128.778502 551.865401 
L 128.495606 551.754293 
L 128.211091 551.339172 
L 126.931025 549.834385 
L 125.577123 548.886267 
L 125.211598 548.276395 
L 125.163997 547.791182 
L 125.154722 547.69663 
L 125.252136 547.080069 
L 125.404543 546.777338 
L 125.724469 546.429312 
L 125.735739 546.423501 
L 126.13569 546.217281 
L 126.443644 546.161928 
L 126.734276 546.188502 
L 127.678666 546.56136 
L 127.890891 546.61569 
L 128.348612 546.732868 
L 128.683364 546.762621 
L 129.516264 546.628185 
L 130.460388 546.217755 
L 130.676336 546.069774 
L 130.898242 545.917711 
L 131.501044 545.406126 
L 132.113427 544.771142 
L 132.335312 544.541067 
L 133.286016 543.019926 
L 133.542304 542.609859 
L 133.734091 541.935456 
L 133.708049 541.278327 
L 133.24321 540.464519 
L 132.701797 539.364482 
L 132.359453 538.592133 
L 132.207814 538.052895 
L 132.146929 537.846838 
L 131.857674 536.867896 
L 131.885844 536.096351 
L 131.81811 534.998885 
L 131.814711 534.9438 
L 131.955626 533.752204 
L 132.198788 533.30089 
L 132.57513 532.832296 
L 132.611927 532.735689 
L 132.943842 532.450261 
L 133.896952 531.80103 
L 134.322733 531.25048 
L 134.463883 530.563416 
L 134.43596 530.259106 
L 134.406215 529.934933 
L 133.660057 527.867391 
L 132.555204 525.754142 
L 132.438756 525.608066 
L 131.878939 524.905807 
L 131.703201 524.685354 
L 131.387442 524.473059 
L 130.868147 524.275359 
L 130.179367 524.118042 
L 129.839425 524.091861 
L 129.530052 524.137856 
L 128.293467 524.579462 
L 127.905986 524.750005 
L 127.161711 524.82279 
L 126.537415 524.883842 
L 126.093063 524.927296 
L 125.679661 524.967724 
L 125.04704 525.507245 
L 124.800344 525.587135 
L 124.648487 525.532028 
L 124.545602 525.405082 
L 124.530734 525.401764 
L 124.45294 525.170211 
L 124.420565 524.888129 
L 124.451356 524.456656 
L 124.619726 523.877237 
L 124.942299 523.278835 
L 125.040299 523.153529 
L 125.226684 522.915212 
L 125.657004 522.43465 
L 126.467644 521.96207 
L 127.457605 521.445904 
L 127.600067 521.370832 
L 128.110536 521.101833 
L 128.625711 520.684152 
L 128.950502 520.225067 
L 129.104618 519.835286 
L 129.127472 519.777486 
L 129.328328 517.990154 
L 129.532777 516.819447 
L 130.034265 514.052217 
L 130.148852 512.702423 
L 130.22209 511.839693 
L 130.157035 509.734977 
L 130.149496 508.893053 
L 129.78907 508.216793 
L 129.588917 507.547669 
L 129.581481 507.537146 
L 128.51941 506.034104 
L 128.464804 505.861767 
L 128.304211 505.354931 
L 128.366812 504.966206 
L 128.435859 504.734366 
L 128.58606 504.534059 
L 129.627961 503.731795 
L 129.943206 503.430079 
L 130.559134 502.645479 
L 130.756694 502.269434 
L 131.473314 501.669802 
L 131.854922 501.123223 
L 132.171581 500.384562 
L 132.24866 500.065123 
L 132.410301 499.395238 
L 132.420279 498.781212 
L 132.433579 497.962805 
L 132.443928 497.840143 
L 132.487561 497.322947 
L 132.702025 496.898048 
L 133.20518 496.235919 
L 133.235909 496.111078 
L 133.370286 495.565146 
L 133.533101 494.654916 
L 133.25419 493.625103 
L 132.863993 492.907133 
L 132.052656 491.400368 
L 131.988146 491.306172 
L 131.737064 490.779804 
L 131.701561 490.12084 
L 131.7783 488.780783 
L 131.779074 488.775938 
L 132.030698 487.200271 
L 132.252107 486.413649 
L 132.739452 485.625635 
L 133.081915 485.071885 
L 133.23909 484.674322 
L 133.329557 483.933174 
L 133.254659 482.931383 
L 133.052094 481.893813 
L 132.850505 481.26606 
L 131.735626 479.466927 
L 131.514687 478.772609 
L 131.190952 478.055288 
L 130.571118 475.403556 
L 130.558969 475.325531 
L 130.448579 474.616576 
L 130.37838 474.165742 
L 130.302335 473.266488 
L 130.529154 472.442988 
L 130.844148 471.943583 
L 131.437065 471.513254 
L 131.6138 471.384983 
L 131.885329 471.228381 
L 132.522912 470.96363 
L 133.042912 470.830666 
L 133.15791 470.69549 
L 133.379292 470.153809 
L 133.501855 469.508934 
L 133.40876 468.773654 
L 133.388547 468.367161 
L 133.2128 467.754378 
L 132.912005 467.204935 
L 132.76698 466.76169 
L 132.692179 466.268378 
L 132.684921 466.206639 
L 132.687812 465.31804 
L 132.687906 465.288984 
L 132.764968 464.416706 
L 133.188348 463.892571 
L 134.200261 463.405833 
L 135.467424 463.146775 
L 136.130907 463.168695 
L 136.38895 463.17722 
L 136.602727 463.022974 
L 136.786255 462.76653 
L 137.002 462.147472 
L 137.014537 460.882505 
L 137.164242 460.472665 
L 137.225117 459.844259 
L 137.917129 458.363694 
L 138.277984 457.297089 
L 138.559694 456.040674 
L 138.561775 454.830682 
L 138.563293 453.947765 
L 138.731913 450.146778 
L 138.641099 449.380873 
L 138.515205 448.761263 
L 138.40079 448.198146 
L 138.256585 447.488411 
L 138.265787 444.598692 
L 138.134765 443.7643 
L 138.064617 443.317575 
L 138.030807 442.491945 
L 138.124297 441.910939 
L 138.271468 441.326272 
L 138.790616 439.263837 
L 139.279338 436.598035 
L 139.639456 434.193631 
L 139.756213 433.384486 
L 139.94068 433.067141 
L 140.33165 433.123672 
L 140.578121 432.971395 
L 140.997396 432.856362 
L 141.374169 432.85842 
L 142.258009 432.931187 
L 142.389214 433.083543 
L 142.417517 433.16244 
L 142.624245 433.253168 
L 143.494867 433.635264 
L 143.825315 433.515619 
L 144.178638 433.508972 
L 144.585953 433.633739 
L 145.195399 433.438549 
L 146.461484 433.363917 
L 148.01483 433.223349 
L 148.764208 432.84169 
L 149.365649 432.697893 
L 149.568624 432.505249 
L 149.900386 432.190372 
L 150.109999 431.890055 
L 150.261474 431.221516 
L 150.371352 429.93694 
L 150.48443 429.281268 
L 150.485088 428.839482 
L 150.470839 428.666152 
L 150.283894 428.413795 
L 149.943933 428.048946 
L 149.47922 427.667153 
L 148.946708 427.402959 
L 148.24527 427.310822 
L 147.555556 427.411072 
L 147.015561 427.692214 
L 146.308327 428.283583 
L 144.951034 429.20057 
L 144.668576 429.283361 
L 144.600305 429.303372 
L 144.455139 429.240146 
L 144.354767 429.124101 
L 144.325763 428.991004 
L 144.071046 427.822118 
L 143.981099 426.701321 
L 144.02384 425.554736 
L 143.969491 424.966579 
L 143.724074 424.565129 
L 143.211 423.98351 
L 142.916116 423.601127 
L 142.735059 423.130811 
L 142.630859 422.338018 
L 142.560578 421.147882 
L 142.508089 420.60209 
L 141.913788 419.778483 
L 141.058618 418.348049 
L 140.859145 418.01439 
L 140.588732 417.582175 
L 140.519427 417.471402 
L 140.216859 416.425419 
L 140.222797 415.284906 
L 140.413914 413.599173 
L 140.55552 412.945222 
L 140.840064 411.631158 
L 141.042148 410.350233 
L 141.144741 409.152461 
L 141.340495 408.030752 
L 141.53418 406.920899 
L 141.621519 406.592535 
L 141.722488 406.21293 
L 142.026442 405.425213 
L 142.641652 404.118826 
L 143.329969 402.216172 
L 144.135903 400.505807 
L 144.198629 400.327127 
L 144.646974 399.049988 
L 144.734019 398.700527 
L 144.879496 398.116479 
L 144.904792 398.014919 
L 144.962599 396.956381 
L 145.071125 395.671468 
L 145.15075 394.728723 
L 145.215375 392.773087 
L 145.36315 391.477207 
L 145.364468 391.370316 
L 145.390318 389.275132 
L 145.553488 388.788092 
L 145.991758 387.824287 
L 146.470495 386.987155 
L 147.327235 386.013675 
L 147.5115 385.863711 
L 147.857167 385.582388 
L 148.368681 385.166088 
L 149.074689 384.331302 
L 149.905009 383.158448 
L 150.039379 382.919588 
L 150.730073 381.691793 
L 151.079845 380.796648 
L 151.253209 380.35297 
L 151.252833 380.286905 
L 151.330987 380.153917 
L 151.428992 379.623736 
L 151.277042 378.917257 
L 150.704476 378.470723 
L 150.003241 378.235377 
L 149.244682 378.065613 
L 148.701256 378.001904 
L 147.681491 377.88235 
L 146.692608 377.822734 
L 146.117929 377.633773 
L 145.719167 377.302317 
L 145.506131 376.636097 
L 145.352667 374.377013 
L 145.242879 373.921288 
L 145.227 373.855377 
L 145.133675 373.64405 
L 144.857871 373.019518 
L 144.856516 372.780134 
L 144.999422 372.525396 
L 145.537563 371.999895 
L 146.25271 371.506085 
L 146.432894 371.476001 
L 146.715175 371.626729 
L 146.92202 372.037933 
L 147.054295 372.300895 
L 147.362636 372.56621 
L 147.77462 372.687141 
L 147.841131 372.68132 
L 148.599873 372.614918 
L 148.795068 372.597835 
L 149.244544 372.444305 
L 150.143311 372.137309 
L 150.393779 372.051754 
L 150.96096 371.816617 
L 152.319323 371.253474 
L 153.160797 370.769792 
L 154.349753 369.859715 
L 154.538071 369.647917 
L 154.75987 369.398463 
L 155.019661 369.106279 
L 155.231598 368.867917 
L 155.914894 367.851928 
L 156.064662 367.491871 
L 156.32719 366.702543 
L 156.429697 366.394339 
L 156.443023 366.123984 
L 156.476093 365.675855 
L 156.318468 365.23785 
L 155.405143 364.495848 
L 154.145948 363.193565 
L 154.061645 363.144638 
L 153.471103 362.801909 
L 153.005464 362.531668 
L 152.294899 361.858417 
L 151.400184 360.579409 
L 151.146666 360.011225 
L 151.121897 359.95571 
L 151.057029 359.715065 
L 151.045139 359.670959 
L 151.035464 359.235701 
L 151.198423 358.712412 
L 152.07486 357.397838 
L 152.936777 356.718187 
L 153.076853 356.582195 
L 153.410404 356.258368 
L 153.48341 356.163111 
L 153.714779 355.861224 
L 153.935355 355.315817 
L 153.919494 355.061995 
L 153.751855 354.758261 
L 153.168074 354.235603 
L 152.503576 354.108856 
L 152.243945 354.12487 
L 151.927185 354.249986 
L 151.525354 354.644083 
L 151.253924 355.124474 
L 150.927461 355.441964 
L 150.34492 355.771735 
L 149.963283 355.911801 
L 149.509081 355.97245 
L 149.011242 355.96804 
L 148.190281 355.60634 
L 147.777149 355.3625 
L 147.654624 355.290183 
L 145.652173 352.678925 
L 145.258366 351.954559 
L 145.150226 351.727276 
L 144.977826 351.43853 
L 144.960428 351.385618 
L 144.801625 350.902652 
L 144.768664 349.535238 
L 144.802404 349.293903 
L 144.851907 348.939833 
L 145.145287 347.86805 
L 145.6097 347.060075 
L 146.121562 346.349792 
L 147.270983 345.4726 
L 148.796573 344.132606 
L 149.298376 343.56381 
L 149.567691 343.146531 
L 149.709624 342.926619 
L 150.676893 341.731295 
L 150.719102 341.646341 
L 150.918639 341.244732 
L 151.193676 340.561305 
L 151.271642 340.367569 
L 151.319409 340.004397 
L 151.325545 339.050455 
L 151.197539 337.595332 
L 151.197473 337.594584 
L 150.963228 334.931678 
L 150.783638 333.658258 
L 150.703625 333.090898 
L 150.640166 332.640915 
L 150.672225 331.929769 
L 150.806959 331.515422 
L 151.082567 331.132978 
L 151.189827 331.056784 
L 152.462208 330.15292 
L 153.303503 329.662027 
L 154.739295 329.048044 
L 155.906201 328.729422 
L 157.920577 327.566005 
L 158.419355 327.277931 
L 159.625136 326.581514 
L 159.889909 326.42859 
L 160.365282 326.295256 
L 162.619719 326.300474 
L 163.031166 326.235598 
L 163.763533 326.120119 
L 164.343045 325.698243 
L 165.229972 324.258041 
L 165.931101 323.119527 
L 165.963234 323.06735 
L 166.058717 322.872518 
L 166.248474 322.485326 
L 166.336149 322.045915 
L 166.316924 321.800737 
L 166.293439 321.501224 
L 166.114111 321.053284 
L 165.882288 320.88048 
L 165.697955 320.812626 
L 165.034525 320.859948 
L 163.739429 321.462282 
L 163.544682 321.470659 
L 163.324623 321.461053 
L 162.687495 321.058389 
L 162.10163 320.786097 
L 162.002482 320.759747 
L 161.837593 320.715925 
L 160.901946 321.043211 
L 160.057381 320.946474 
L 159.558707 320.782452 
L 159.088169 320.502231 
L 158.410675 319.913669 
L 158.399523 319.903982 
L 156.644094 318.187279 
L 155.313657 317.636248 
L 154.602699 317.140533 
L 154.504994 317.043228 
L 154.264951 316.804169 
L 154.095506 316.609389 
L 153.51141 315.937962 
L 153.314469 315.554552 
L 152.988616 314.689437 
L 152.184522 314.091818 
L 152.051393 313.504912 
L 151.902222 313.277235 
L 151.401817 312.80124 
L 151.212781 312.541135 
L 150.811217 311.037996 
L 150.611549 310.704894 
L 150.447137 310.430609 
L 150.043359 309.920573 
L 149.796226 309.608403 
L 149.695252 309.480856 
L 149.213197 308.424347 
L 149.128476 306.491335 
L 149.112465 306.126016 
L 149.072687 305.21843 
L 149.265447 304.212489 
L 149.551829 303.819129 
L 150.026457 303.555266 
L 151.29401 302.986738 
L 151.951288 302.691931 
L 152.633639 302.097463 
L 152.701465 302.038372 
L 152.856861 301.44983 
L 152.9357 300.952703 
L 152.989302 300.614712 
L 153.24829 299.840582 
L 153.527482 299.461734 
L 154.015437 298.994663 
L 155.342949 298.388618 
L 155.475617 298.286707 
L 156.075617 297.825803 
L 156.440931 297.366688 
L 156.822289 296.548346 
L 157.062507 295.647368 
L 157.078108 295.565076 
L 157.297262 294.409072 
L 157.458678 292.968062 
L 157.403791 292.665416 
L 157.345845 292.345897 
L 157.232764 292.233262 
L 157.049182 291.969199 
L 156.501952 291.497069 
L 155.99255 291.281383 
L 155.402901 291.031717 
L 154.990569 290.714955 
L 154.924781 290.664416 
L 154.749587 290.393665 
L 154.531899 290.057242 
L 153.903578 289.273603 
L 153.490148 288.869674 
L 151.606158 287.977022 
L 150.970492 287.820992 
L 150.343097 287.846315 
L 149.382856 288.341426 
L 146.900475 290.114738 
L 146.427226 290.625288 
L 145.95153 291.349799 
L 145.90334 291.770863 
L 146.086672 292.306716 
L 146.231514 292.548025 
L 146.978559 293.792599 
L 147.285511 294.516416 
L 147.305315 294.831925 
L 147.220635 295.173361 
L 146.230373 296.114828 
L 145.846162 296.280765 
L 145.694256 296.346373 
L 145.312153 296.392045 
L 145.191983 296.359096 
L 144.871497 296.271225 
L 144.523526 295.961219 
L 144.238957 295.382412 
L 144.208565 295.22564 
L 144.068294 294.502083 
L 144.031019 294.30981 
L 143.680877 292.951432 
L 143.654104 292.885546 
L 143.495567 292.495401 
L 142.75488 290.631708 
L 142.249855 289.854291 
L 141.950147 289.035906 
L 141.94228 289.014426 
L 141.939589 288.999458 
L 141.826952 288.373013 
L 141.851115 288.057655 
L 141.9251 287.092071 
L 142.005195 286.046719 
L 141.951596 283.525851 
L 141.645487 281.361976 
L 141.584691 280.968882 
L 141.531684 280.626153 
L 141.564853 280.103605 
L 141.684867 279.88935 
L 142.011265 279.306642 
L 143.037884 278.42305 
L 144.846944 277.509684 
L 145.731225 276.975108 
L 147.372306 275.685404 
L 148.241742 275.085599 
L 149.450167 274.356703 
L 150.251084 273.873604 
L 152.14191 272.103654 
L 153.277667 271.400783 
L 153.491693 271.330493 
L 154.007467 271.161106 
L 154.49774 270.947746 
L 155.021702 270.396037 
L 155.153612 270.257141 
L 155.516033 269.875526 
L 156.16025 269.636118 
L 156.607117 269.575559 
L 156.761453 269.6182 
L 157.018903 269.689332 
L 157.251155 269.9492 
L 157.469512 270.303449 
L 157.758513 270.396125 
L 157.86712 270.365027 
L 157.978135 270.333239 
L 158.703542 269.77049 
L 159.116126 269.498083 
L 159.523573 269.229067 
L 160.499096 268.584977 
L 160.54327 268.555812 
L 161.960638 267.145466 
L 162.562437 266.538412 
L 164.548841 265.116112 
L 164.950732 264.758368 
L 165.555527 263.916994 
L 165.747843 263.393638 
L 165.889465 263.008239 
L 165.939329 262.613614 
L 166.058717 261.668768 
L 165.964373 261.374372 
L 165.809279 260.890409 
L 165.799085 260.858597 
L 165.607331 260.26023 
L 165.429853 259.477714 
L 165.466715 259.311114 
L 165.588163 258.762214 
L 165.653285 258.578806 
L 165.806869 258.146262 
L 165.893571 257.902081 
L 166.330248 256.672252 
L 166.364573 256.283138 
L 166.376408 256.148975 
L 166.398117 255.902877 
L 166.388982 255.803279 
L 166.371869 255.616708 
L 166.370251 255.599066 
L 166.786706 255.40715 
L 169.860537 253.853984 
L 169.795323 253.738246 
L 168.77 251.91782 
L 167.897013 250.367701 
L 167.076429 248.910086 
L 176.266251 243.6021 
L 176.472077 243.483085 
L 185.621709 238.158179 
L 186.34009 239.446027 
L 187.320759 241.203661 
L 188.339547 243.029778 
L 188.800947 243.856592 
L 190.373326 243.072518 
L 191.860068 242.32714 
L 193.20294 241.651777 
L 194.666343 240.90588 
L 196.297526 240.100855 
L 197.600706 239.446698 
L 199.012803 238.741066 
L 200.355771 238.06446 
L 201.876919 237.300838 
L 203.357477 236.558936 
L 204.772433 235.84848 
L 206.016724 235.225341 
L 207.613723 234.423858 
L 209.090456 233.670129 
L 210.279076 233.057192 
L 211.719239 232.312891 
L 213.112679 231.593024 
L 214.549676 230.85001 
L 214.848736 231.438134 
L 236.596694 220.408607 
L 269.977965 203.479219 
L 327.816225 544.923528 
L 319.598341 547.500238 
" clip-path="url(#pa7526856e4)" style="fill: #b3e2cd; fill-opacity: 0.65"/>
   </g>
   <g id="PatchCollection_2">
    <path d="M 318.723119 357.925421 
L 323.84774 366.09787 
L 322.31637 370.616036 
L 338.959565 378.374994 
L 343.708453 377.994913 
L 351.389144 366.504091 
L 360.60647 364.455642 
L 372.563045 371.674581 
L 404.232635 375.451429 
L 421.596747 382.953858 
L 430.952242 380.406074 
L 434.447903 373.182176 
L 608.489757 373.509002 
L 608.295234 373.867088 
L 607.872509 374.670259 
L 607.498089 375.955729 
L 607.296007 376.659826 
L 607.348416 377.386746 
L 607.438612 377.989125 
L 607.802522 378.215389 
L 609.35887 378.785347 
L 610.196925 379.256232 
L 610.769157 379.862083 
L 612.109623 381.328498 
L 612.514113 382.271762 
L 613.619145 383.212543 
L 614.683597 383.483464 
L 615.88655 383.52961 
L 616.801501 383.393649 
L 617.358615 383.416972 
L 617.660913 383.745453 
L 617.947934 384.595097 
L 618.135065 385.236508 
L 618.147385 385.840042 
L 617.886488 387.572085 
L 617.976685 388.701088 
L 617.6412 389.769225 
L 617.849357 390.305446 
L 618.194541 390.473489 
L 619.658391 390.996974 
L 620.165066 391.304282 
L 620.44305 391.616716 
L 620.497594 392.016816 
L 620.354166 392.81982 
L 620.412495 393.673102 
L 620.171478 394.783914 
L 620.10165 395.374379 
L 620.313752 396.267198 
L 620.646611 397.194582 
L 620.887794 397.654385 
L 621.39677 398.448458 
L 621.956026 399.282395 
L 622.636364 399.936708 
L 279.993209 584.89573 
L 231.518431 465.476112 
L 245.79236 439.190489 
L 243.015316 429.820883 
L 252.263361 426.968936 
L 260.484417 421.588391 
L 263.816109 413.183717 
L 274.31278 413.015674 
L 278.561067 409.755029 
L 288.885068 411.048936 
L 295.225128 383.731723 
L 303.404451 372.732792 
L 309.933285 358.211555 
L 318.723119 357.925421 
" clip-path="url(#pa7526856e4)" style="fill: none; stroke: #000000; stroke-width: 2"/>
   </g>
   <g id="matplotlib.axis_1">
    <g id="xtick_1">
     <g id="line2d_1">
      <path d="M 203.670458 692.444859 
L 203.670458 180.195141 
" clip-path="url(#pa7526856e4)" style="fill: none; stroke: #b0b0b0; stroke-width: 0.8; stroke-linecap: square"/>
     </g>
     <g id="line2d_2">
      <defs>
       <path id="mbc12af5b69" d="M 0 0 
L 0 3.5 
" style="stroke: #000000; stroke-width: 0.8"/>
      </defs>
      <g>
       <use xlink:href="#mbc12af5b69" x="203.670458" y="692.444859" style="stroke: #000000; stroke-width: 0.8"/>
      </g>
     </g>
     <g id="text_1">
      <!-- −60.0 -->
      <g transform="translate(194.786877 726.487274) rotate(-45) scale(0.1 -0.1)">
       <defs>
        <path id="DejaVuSans-2212" d="M 678 2272 
L 4684 2272 
L 4684 1741 
L 678 1741 
L 678 2272 
z
" transform="scale(0.015625)"/>
        <path id="DejaVuSans-36" d="M 2113 2584 
Q 1688 2584 1439 2293 
Q 1191 2003 1191 1497 
Q 1191 994 1439 701 
Q 1688 409 2113 409 
Q 2538 409 2786 701 
Q 3034 994 3034 1497 
Q 3034 2003 2786 2293 
Q 2538 2584 2113 2584 
z
M 3366 4563 
L 3366 3988 
Q 3128 4100 2886 4159 
Q 2644 4219 2406 4219 
Q 1781 4219 1451 3797 
Q 1122 3375 1075 2522 
Q 1259 2794 1537 2939 
Q 1816 3084 2150 3084 
Q 2853 3084 3261 2657 
Q 3669 2231 3669 1497 
Q 3669 778 3244 343 
Q 2819 -91 2113 -91 
Q 1303 -91 875 529 
Q 447 1150 447 2328 
Q 447 3434 972 4092 
Q 1497 4750 2381 4750 
Q 2619 4750 2861 4703 
Q 3103 4656 3366 4563 
z
" transform="scale(0.015625)"/>
        <path id="DejaVuSans-30" d="M 2034 4250 
Q 1547 4250 1301 3770 
Q 1056 3291 1056 2328 
Q 1056 1369 1301 889 
Q 1547 409 2034 409 
Q 2525 409 2770 889 
Q 3016 1369 3016 2328 
Q 3016 3291 2770 3770 
Q 2525 4250 2034 4250 
z
M 2034 4750 
Q 2819 4750 3233 4129 
Q 3647 3509 3647 2328 
Q 3647 1150 3233 529 
Q 2819 -91 2034 -91 
Q 1250 -91 836 529 
Q 422 1150 422 2328 
Q 422 3509 836 4129 
Q 1250 4750 2034 4750 
z
" transform="scale(0.015625)"/>
        <path id="DejaVuSans-2e" d="M 684 794 
L 1344 794 
L 1344 0 
L 684 0 
L 684 794 
z
" transform="scale(0.015625)"/>
       </defs>
       <use xlink:href="#DejaVuSans-2212"/>
       <use xlink:href="#DejaVuSans-36" transform="translate(83.789062 0)"/>
       <use xlink:href="#DejaVuSans-30" transform="translate(147.412109 0)"/>
       <use xlink:href="#DejaVuSans-2e" transform="translate(211.035156 0)"/>
       <use xlink:href="#DejaVuSans-30" transform="translate(242.822266 0)"/>
      </g>
     </g>
    </g>
    <g id="xtick_2">
     <g id="line2d_3">
      <path d="M 321.961332 692.444859 
L 321.961332 180.195141 
" clip-path="url(#pa7526856e4)" style="fill: none; stroke: #b0b0b0; stroke-width: 0.8; stroke-linecap: square"/>
     </g>
     <g id="line2d_4">
      <g>
       <use xlink:href="#mbc12af5b69" x="321.961332" y="692.444859" style="stroke: #000000; stroke-width: 0.8"/>
      </g>
     </g>
     <g id="text_2">
      <!-- −59.8 -->
      <g transform="translate(313.077751 726.487274) rotate(-45) scale(0.1 -0.1)">
       <defs>
        <path id="DejaVuSans-35" d="M 691 4666 
L 3169 4666 
L 3169 4134 
L 1269 4134 
L 1269 2991 
Q 1406 3038 1543 3061 
Q 1681 3084 1819 3084 
Q 2600 3084 3056 2656 
Q 3513 2228 3513 1497 
Q 3513 744 3044 326 
Q 2575 -91 1722 -91 
Q 1428 -91 1123 -41 
Q 819 9 494 109 
L 494 744 
Q 775 591 1075 516 
Q 1375 441 1709 441 
Q 2250 441 2565 725 
Q 2881 1009 2881 1497 
Q 2881 1984 2565 2268 
Q 2250 2553 1709 2553 
Q 1456 2553 1204 2497 
Q 953 2441 691 2322 
L 691 4666 
z
" transform="scale(0.015625)"/>
        <path id="DejaVuSans-39" d="M 703 97 
L 703 672 
Q 941 559 1184 500 
Q 1428 441 1663 441 
Q 2288 441 2617 861 
Q 2947 1281 2994 2138 
Q 2813 1869 2534 1725 
Q 2256 1581 1919 1581 
Q 1219 1581 811 2004 
Q 403 2428 403 3163 
Q 403 3881 828 4315 
Q 1253 4750 1959 4750 
Q 2769 4750 3195 4129 
Q 3622 3509 3622 2328 
Q 3622 1225 3098 567 
Q 2575 -91 1691 -91 
Q 1453 -91 1209 -44 
Q 966 3 703 97 
z
M 1959 2075 
Q 2384 2075 2632 2365 
Q 2881 2656 2881 3163 
Q 2881 3666 2632 3958 
Q 2384 4250 1959 4250 
Q 1534 4250 1286 3958 
Q 1038 3666 1038 3163 
Q 1038 2656 1286 2365 
Q 1534 2075 1959 2075 
z
" transform="scale(0.015625)"/>
        <path id="DejaVuSans-38" d="M 2034 2216 
Q 1584 2216 1326 1975 
Q 1069 1734 1069 1313 
Q 1069 891 1326 650 
Q 1584 409 2034 409 
Q 2484 409 2743 651 
Q 3003 894 3003 1313 
Q 3003 1734 2745 1975 
Q 2488 2216 2034 2216 
z
M 1403 2484 
Q 997 2584 770 2862 
Q 544 3141 544 3541 
Q 544 4100 942 4425 
Q 1341 4750 2034 4750 
Q 2731 4750 3128 4425 
Q 3525 4100 3525 3541 
Q 3525 3141 3298 2862 
Q 3072 2584 2669 2484 
Q 3125 2378 3379 2068 
Q 3634 1759 3634 1313 
Q 3634 634 3220 271 
Q 2806 -91 2034 -91 
Q 1263 -91 848 271 
Q 434 634 434 1313 
Q 434 1759 690 2068 
Q 947 2378 1403 2484 
z
M 1172 3481 
Q 1172 3119 1398 2916 
Q 1625 2713 2034 2713 
Q 2441 2713 2670 2916 
Q 2900 3119 2900 3481 
Q 2900 3844 2670 4047 
Q 2441 4250 2034 4250 
Q 1625 4250 1398 4047 
Q 1172 3844 1172 3481 
z
" transform="scale(0.015625)"/>
       </defs>
       <use xlink:href="#DejaVuSans-2212"/>
       <use xlink:href="#DejaVuSans-35" transform="translate(83.789062 0)"/>
       <use xlink:href="#DejaVuSans-39" transform="translate(147.412109 0)"/>
       <use xlink:href="#DejaVuSans-2e" transform="translate(211.035156 0)"/>
       <use xlink:href="#DejaVuSans-38" transform="translate(242.822266 0)"/>
      </g>
     </g>
    </g>
    <g id="xtick_3">
     <g id="line2d_5">
      <path d="M 440.252206 692.444859 
L 440.252206 180.195141 
" clip-path="url(#pa7526856e4)" style="fill: none; stroke: #b0b0b0; stroke-width: 0.8; stroke-linecap: square"/>
     </g>
     <g id="line2d_6">
      <g>
       <use xlink:href="#mbc12af5b69" x="440.252206" y="692.444859" style="stroke: #000000; stroke-width: 0.8"/>
      </g>
     </g>
     <g id="text_3">
      <!-- −59.6 -->
      <g transform="translate(431.368624 726.487274) rotate(-45) scale(0.1 -0.1)">
       <use xlink:href="#DejaVuSans-2212"/>
       <use xlink:href="#DejaVuSans-35" transform="translate(83.789062 0)"/>
       <use xlink:href="#DejaVuSans-39" transform="translate(147.412109 0)"/>
       <use xlink:href="#DejaVuSans-2e" transform="translate(211.035156 0)"/>
       <use xlink:href="#DejaVuSans-36" transform="translate(242.822266 0)"/>
      </g>
     </g>
    </g>
    <g id="xtick_4">
     <g id="line2d_7">
      <path d="M 558.54308 692.444859 
L 558.54308 180.195141 
" clip-path="url(#pa7526856e4)" style="fill: none; stroke: #b0b0b0; stroke-width: 0.8; stroke-linecap: square"/>
     </g>
     <g id="line2d_8">
      <g>
       <use xlink:href="#mbc12af5b69" x="558.54308" y="692.444859" style="stroke: #000000; stroke-width: 0.8"/>
      </g>
     </g>
     <g id="text_4">
      <!-- −59.4 -->
      <g transform="translate(549.659498 726.487274) rotate(-45) scale(0.1 -0.1)">
       <defs>
        <path id="DejaVuSans-34" d="M 2419 4116 
L 825 1625 
L 2419 1625 
L 2419 4116 
z
M 2253 4666 
L 3047 4666 
L 3047 1625 
L 3713 1625 
L 3713 1100 
L 3047 1100 
L 3047 0 
L 2419 0 
L 2419 1100 
L 313 1100 
L 313 1709 
L 2253 4666 
z
" transform="scale(0.015625)"/>
       </defs>
       <use xlink:href="#DejaVuSans-2212"/>
       <use xlink:href="#DejaVuSans-35" transform="translate(83.789062 0)"/>
       <use xlink:href="#DejaVuSans-39" transform="translate(147.412109 0)"/>
       <use xlink:href="#DejaVuSans-2e" transform="translate(211.035156 0)"/>
       <use xlink:href="#DejaVuSans-34" transform="translate(242.822266 0)"/>
      </g>
     </g>
    </g>
    <g id="text_5">
     <!-- Longitude (°) -->
     <g transform="translate(336.139844 739.556273) scale(0.1 -0.1)">
      <defs>
       <path id="DejaVuSans-4c" d="M 628 4666 
L 1259 4666 
L 1259 531 
L 3531 531 
L 3531 0 
L 628 0 
L 628 4666 
z
" transform="scale(0.015625)"/>
       <path id="DejaVuSans-6f" d="M 1959 3097 
Q 1497 3097 1228 2736 
Q 959 2375 959 1747 
Q 959 1119 1226 758 
Q 1494 397 1959 397 
Q 2419 397 2687 759 
Q 2956 1122 2956 1747 
Q 2956 2369 2687 2733 
Q 2419 3097 1959 3097 
z
M 1959 3584 
Q 2709 3584 3137 3096 
Q 3566 2609 3566 1747 
Q 3566 888 3137 398 
Q 2709 -91 1959 -91 
Q 1206 -91 779 398 
Q 353 888 353 1747 
Q 353 2609 779 3096 
Q 1206 3584 1959 3584 
z
" transform="scale(0.015625)"/>
       <path id="DejaVuSans-6e" d="M 3513 2113 
L 3513 0 
L 2938 0 
L 2938 2094 
Q 2938 2591 2744 2837 
Q 2550 3084 2163 3084 
Q 1697 3084 1428 2787 
Q 1159 2491 1159 1978 
L 1159 0 
L 581 0 
L 581 3500 
L 1159 3500 
L 1159 2956 
Q 1366 3272 1645 3428 
Q 1925 3584 2291 3584 
Q 2894 3584 3203 3211 
Q 3513 2838 3513 2113 
z
" transform="scale(0.015625)"/>
       <path id="DejaVuSans-67" d="M 2906 1791 
Q 2906 2416 2648 2759 
Q 2391 3103 1925 3103 
Q 1463 3103 1205 2759 
Q 947 2416 947 1791 
Q 947 1169 1205 825 
Q 1463 481 1925 481 
Q 2391 481 2648 825 
Q 2906 1169 2906 1791 
z
M 3481 434 
Q 3481 -459 3084 -895 
Q 2688 -1331 1869 -1331 
Q 1566 -1331 1297 -1286 
Q 1028 -1241 775 -1147 
L 775 -588 
Q 1028 -725 1275 -790 
Q 1522 -856 1778 -856 
Q 2344 -856 2625 -561 
Q 2906 -266 2906 331 
L 2906 616 
Q 2728 306 2450 153 
Q 2172 0 1784 0 
Q 1141 0 747 490 
Q 353 981 353 1791 
Q 353 2603 747 3093 
Q 1141 3584 1784 3584 
Q 2172 3584 2450 3431 
Q 2728 3278 2906 2969 
L 2906 3500 
L 3481 3500 
L 3481 434 
z
" transform="scale(0.015625)"/>
       <path id="DejaVuSans-69" d="M 603 3500 
L 1178 3500 
L 1178 0 
L 603 0 
L 603 3500 
z
M 603 4863 
L 1178 4863 
L 1178 4134 
L 603 4134 
L 603 4863 
z
" transform="scale(0.015625)"/>
       <path id="DejaVuSans-74" d="M 1172 4494 
L 1172 3500 
L 2356 3500 
L 2356 3053 
L 1172 3053 
L 1172 1153 
Q 1172 725 1289 603 
Q 1406 481 1766 481 
L 2356 481 
L 2356 0 
L 1766 0 
Q 1100 0 847 248 
Q 594 497 594 1153 
L 594 3053 
L 172 3053 
L 172 3500 
L 594 3500 
L 594 4494 
L 1172 4494 
z
" transform="scale(0.015625)"/>
       <path id="DejaVuSans-75" d="M 544 1381 
L 544 3500 
L 1119 3500 
L 1119 1403 
Q 1119 906 1312 657 
Q 1506 409 1894 409 
Q 2359 409 2629 706 
Q 2900 1003 2900 1516 
L 2900 3500 
L 3475 3500 
L 3475 0 
L 2900 0 
L 2900 538 
Q 2691 219 2414 64 
Q 2138 -91 1772 -91 
Q 1169 -91 856 284 
Q 544 659 544 1381 
z
M 1991 3584 
L 1991 3584 
z
" transform="scale(0.015625)"/>
       <path id="DejaVuSans-64" d="M 2906 2969 
L 2906 4863 
L 3481 4863 
L 3481 0 
L 2906 0 
L 2906 525 
Q 2725 213 2448 61 
Q 2172 -91 1784 -91 
Q 1150 -91 751 415 
Q 353 922 353 1747 
Q 353 2572 751 3078 
Q 1150 3584 1784 3584 
Q 2172 3584 2448 3432 
Q 2725 3281 2906 2969 
z
M 947 1747 
Q 947 1113 1208 752 
Q 1469 391 1925 391 
Q 2381 391 2643 752 
Q 2906 1113 2906 1747 
Q 2906 2381 2643 2742 
Q 2381 3103 1925 3103 
Q 1469 3103 1208 2742 
Q 947 2381 947 1747 
z
" transform="scale(0.015625)"/>
       <path id="DejaVuSans-65" d="M 3597 1894 
L 3597 1613 
L 953 1613 
Q 991 1019 1311 708 
Q 1631 397 2203 397 
Q 2534 397 2845 478 
Q 3156 559 3463 722 
L 3463 178 
Q 3153 47 2828 -22 
Q 2503 -91 2169 -91 
Q 1331 -91 842 396 
Q 353 884 353 1716 
Q 353 2575 817 3079 
Q 1281 3584 2069 3584 
Q 2775 3584 3186 3129 
Q 3597 2675 3597 1894 
z
M 3022 2063 
Q 3016 2534 2758 2815 
Q 2500 3097 2075 3097 
Q 1594 3097 1305 2825 
Q 1016 2553 972 2059 
L 3022 2063 
z
" transform="scale(0.015625)"/>
       <path id="DejaVuSans-20" transform="scale(0.015625)"/>
       <path id="DejaVuSans-28" d="M 1984 4856 
Q 1566 4138 1362 3434 
Q 1159 2731 1159 2009 
Q 1159 1288 1364 580 
Q 1569 -128 1984 -844 
L 1484 -844 
Q 1016 -109 783 600 
Q 550 1309 550 2009 
Q 550 2706 781 3412 
Q 1013 4119 1484 4856 
L 1984 4856 
z
" transform="scale(0.015625)"/>
       <path id="DejaVuSans-b0" d="M 1600 4347 
Q 1350 4347 1178 4173 
Q 1006 4000 1006 3750 
Q 1006 3503 1178 3333 
Q 1350 3163 1600 3163 
Q 1850 3163 2022 3333 
Q 2194 3503 2194 3750 
Q 2194 3997 2020 4172 
Q 1847 4347 1600 4347 
z
M 1600 4750 
Q 1800 4750 1984 4673 
Q 2169 4597 2303 4453 
Q 2447 4313 2519 4134 
Q 2591 3956 2591 3750 
Q 2591 3338 2302 3052 
Q 2013 2766 1594 2766 
Q 1172 2766 890 3047 
Q 609 3328 609 3750 
Q 609 4169 896 4459 
Q 1184 4750 1600 4750 
z
" transform="scale(0.015625)"/>
       <path id="DejaVuSans-29" d="M 513 4856 
L 1013 4856 
Q 1481 4119 1714 3412 
Q 1947 2706 1947 2009 
Q 1947 1309 1714 600 
Q 1481 -109 1013 -844 
L 513 -844 
Q 928 -128 1133 580 
Q 1338 1288 1338 2009 
Q 1338 2731 1133 3434 
Q 928 4138 513 4856 
z
" transform="scale(0.015625)"/>
      </defs>
      <use xlink:href="#DejaVuSans-4c"/>
      <use xlink:href="#DejaVuSans-6f" transform="translate(53.962891 0)"/>
      <use xlink:href="#DejaVuSans-6e" transform="translate(115.144531 0)"/>
      <use xlink:href="#DejaVuSans-67" transform="translate(178.523438 0)"/>
      <use xlink:href="#DejaVuSans-69" transform="translate(242 0)"/>
      <use xlink:href="#DejaVuSans-74" transform="translate(269.783203 0)"/>
      <use xlink:href="#DejaVuSans-75" transform="translate(308.992188 0)"/>
      <use xlink:href="#DejaVuSans-64" transform="translate(372.371094 0)"/>
      <use xlink:href="#DejaVuSans-65" transform="translate(435.847656 0)"/>
      <use xlink:href="#DejaVuSans-20" transform="translate(497.371094 0)"/>
      <use xlink:href="#DejaVuSans-28" transform="translate(529.158203 0)"/>
      <use xlink:href="#DejaVuSans-b0" transform="translate(568.171875 0)"/>
      <use xlink:href="#DejaVuSans-29" transform="translate(618.171875 0)"/>
     </g>
    </g>
   </g>
   <g id="matplotlib.axis_2">
    <g id="ytick_1">
     <g id="line2d_9">
      <path d="M 90 634.888274 
L 648 634.888274 
" clip-path="url(#pa7526856e4)" style="fill: none; stroke: #b0b0b0; stroke-width: 0.8; stroke-linecap: square"/>
     </g>
     <g id="line2d_10">
      <defs>
       <path id="mc74b15509e" d="M 0 0 
L -3.5 0 
" style="stroke: #000000; stroke-width: 0.8"/>
      </defs>
      <g>
       <use xlink:href="#mc74b15509e" x="90" y="634.888274" style="stroke: #000000; stroke-width: 0.8"/>
      </g>
     </g>
     <g id="text_6">
      <!-- −6.9 -->
      <g transform="translate(58.717187 638.687492) scale(0.1 -0.1)">
       <use xlink:href="#DejaVuSans-2212"/>
       <use xlink:href="#DejaVuSans-36" transform="translate(83.789062 0)"/>
       <use xlink:href="#DejaVuSans-2e" transform="translate(147.412109 0)"/>
       <use xlink:href="#DejaVuSans-39" transform="translate(179.199219 0)"/>
      </g>
     </g>
    </g>
    <g id="ytick_2">
     <g id="line2d_11">
      <path d="M 90 575.345185 
L 648 575.345185 
" clip-path="url(#pa7526856e4)" style="fill: none; stroke: #b0b0b0; stroke-width: 0.8; stroke-linecap: square"/>
     </g>
     <g id="line2d_12">
      <g>
       <use xlink:href="#mc74b15509e" x="90" y="575.345185" style="stroke: #000000; stroke-width: 0.8"/>
      </g>
     </g>
     <g id="text_7">
      <!-- −6.8 -->
      <g transform="translate(58.717187 579.144404) scale(0.1 -0.1)">
       <use xlink:href="#DejaVuSans-2212"/>
       <use xlink:href="#DejaVuSans-36" transform="translate(83.789062 0)"/>
       <use xlink:href="#DejaVuSans-2e" transform="translate(147.412109 0)"/>
       <use xlink:href="#DejaVuSans-38" transform="translate(179.199219 0)"/>
      </g>
     </g>
    </g>
    <g id="ytick_3">
     <g id="line2d_13">
      <path d="M 90 515.802097 
L 648 515.802097 
" clip-path="url(#pa7526856e4)" style="fill: none; stroke: #b0b0b0; stroke-width: 0.8; stroke-linecap: square"/>
     </g>
     <g id="line2d_14">
      <g>
       <use xlink:href="#mc74b15509e" x="90" y="515.802097" style="stroke: #000000; stroke-width: 0.8"/>
      </g>
     </g>
     <g id="text_8">
      <!-- −6.7 -->
      <g transform="translate(58.717187 519.601316) scale(0.1 -0.1)">
       <defs>
        <path id="DejaVuSans-37" d="M 525 4666 
L 3525 4666 
L 3525 4397 
L 1831 0 
L 1172 0 
L 2766 4134 
L 525 4134 
L 525 4666 
z
" transform="scale(0.015625)"/>
       </defs>
       <use xlink:href="#DejaVuSans-2212"/>
       <use xlink:href="#DejaVuSans-36" transform="translate(83.789062 0)"/>
       <use xlink:href="#DejaVuSans-2e" transform="translate(147.412109 0)"/>
       <use xlink:href="#DejaVuSans-37" transform="translate(179.199219 0)"/>
      </g>
     </g>
    </g>
    <g id="ytick_4">
     <g id="line2d_15">
      <path d="M 90 456.259009 
L 648 456.259009 
" clip-path="url(#pa7526856e4)" style="fill: none; stroke: #b0b0b0; stroke-width: 0.8; stroke-linecap: square"/>
     </g>
     <g id="line2d_16">
      <g>
       <use xlink:href="#mc74b15509e" x="90" y="456.259009" style="stroke: #000000; stroke-width: 0.8"/>
      </g>
     </g>
     <g id="text_9">
      <!-- −6.6 -->
      <g transform="translate(58.717187 460.058228) scale(0.1 -0.1)">
       <use xlink:href="#DejaVuSans-2212"/>
       <use xlink:href="#DejaVuSans-36" transform="translate(83.789062 0)"/>
       <use xlink:href="#DejaVuSans-2e" transform="translate(147.412109 0)"/>
       <use xlink:href="#DejaVuSans-36" transform="translate(179.199219 0)"/>
      </g>
     </g>
    </g>
    <g id="ytick_5">
     <g id="line2d_17">
      <path d="M 90 396.715921 
L 648 396.715921 
" clip-path="url(#pa7526856e4)" style="fill: none; stroke: #b0b0b0; stroke-width: 0.8; stroke-linecap: square"/>
     </g>
     <g id="line2d_18">
      <g>
       <use xlink:href="#mc74b15509e" x="90" y="396.715921" style="stroke: #000000; stroke-width: 0.8"/>
      </g>
     </g>
     <g id="text_10">
      <!-- −6.5 -->
      <g transform="translate(58.717187 400.515139) scale(0.1 -0.1)">
       <use xlink:href="#DejaVuSans-2212"/>
       <use xlink:href="#DejaVuSans-36" transform="translate(83.789062 0)"/>
       <use xlink:href="#DejaVuSans-2e" transform="translate(147.412109 0)"/>
       <use xlink:href="#DejaVuSans-35" transform="translate(179.199219 0)"/>
      </g>
     </g>
    </g>
    <g id="ytick_6">
     <g id="line2d_19">
      <path d="M 90 337.172833 
L 648 337.172833 
" clip-path="url(#pa7526856e4)" style="fill: none; stroke: #b0b0b0; stroke-width: 0.8; stroke-linecap: square"/>
     </g>
     <g id="line2d_20">
      <g>
       <use xlink:href="#mc74b15509e" x="90" y="337.172833" style="stroke: #000000; stroke-width: 0.8"/>
      </g>
     </g>
     <g id="text_11">
      <!-- −6.4 -->
      <g transform="translate(58.717187 340.972051) scale(0.1 -0.1)">
       <use xlink:href="#DejaVuSans-2212"/>
       <use xlink:href="#DejaVuSans-36" transform="translate(83.789062 0)"/>
       <use xlink:href="#DejaVuSans-2e" transform="translate(147.412109 0)"/>
       <use xlink:href="#DejaVuSans-34" transform="translate(179.199219 0)"/>
      </g>
     </g>
    </g>
    <g id="ytick_7">
     <g id="line2d_21">
      <path d="M 90 277.629744 
L 648 277.629744 
" clip-path="url(#pa7526856e4)" style="fill: none; stroke: #b0b0b0; stroke-width: 0.8; stroke-linecap: square"/>
     </g>
     <g id="line2d_22">
      <g>
       <use xlink:href="#mc74b15509e" x="90" y="277.629744" style="stroke: #000000; stroke-width: 0.8"/>
      </g>
     </g>
     <g id="text_12">
      <!-- −6.3 -->
      <g transform="translate(58.717187 281.428963) scale(0.1 -0.1)">
       <defs>
        <path id="DejaVuSans-33" d="M 2597 2516 
Q 3050 2419 3304 2112 
Q 3559 1806 3559 1356 
Q 3559 666 3084 287 
Q 2609 -91 1734 -91 
Q 1441 -91 1130 -33 
Q 819 25 488 141 
L 488 750 
Q 750 597 1062 519 
Q 1375 441 1716 441 
Q 2309 441 2620 675 
Q 2931 909 2931 1356 
Q 2931 1769 2642 2001 
Q 2353 2234 1838 2234 
L 1294 2234 
L 1294 2753 
L 1863 2753 
Q 2328 2753 2575 2939 
Q 2822 3125 2822 3475 
Q 2822 3834 2567 4026 
Q 2313 4219 1838 4219 
Q 1578 4219 1281 4162 
Q 984 4106 628 3988 
L 628 4550 
Q 988 4650 1302 4700 
Q 1616 4750 1894 4750 
Q 2613 4750 3031 4423 
Q 3450 4097 3450 3541 
Q 3450 3153 3228 2886 
Q 3006 2619 2597 2516 
z
" transform="scale(0.015625)"/>
       </defs>
       <use xlink:href="#DejaVuSans-2212"/>
       <use xlink:href="#DejaVuSans-36" transform="translate(83.789062 0)"/>
       <use xlink:href="#DejaVuSans-2e" transform="translate(147.412109 0)"/>
       <use xlink:href="#DejaVuSans-33" transform="translate(179.199219 0)"/>
      </g>
     </g>
    </g>
    <g id="ytick_8">
     <g id="line2d_23">
      <path d="M 90 218.086656 
L 648 218.086656 
" clip-path="url(#pa7526856e4)" style="fill: none; stroke: #b0b0b0; stroke-width: 0.8; stroke-linecap: square"/>
     </g>
     <g id="line2d_24">
      <g>
       <use xlink:href="#mc74b15509e" x="90" y="218.086656" style="stroke: #000000; stroke-width: 0.8"/>
      </g>
     </g>
     <g id="text_13">
      <!-- −6.2 -->
      <g transform="translate(58.717187 221.885875) scale(0.1 -0.1)">
       <defs>
        <path id="DejaVuSans-32" d="M 1228 531 
L 3431 531 
L 3431 0 
L 469 0 
L 469 531 
Q 828 903 1448 1529 
Q 2069 2156 2228 2338 
Q 2531 2678 2651 2914 
Q 2772 3150 2772 3378 
Q 2772 3750 2511 3984 
Q 2250 4219 1831 4219 
Q 1534 4219 1204 4116 
Q 875 4013 500 3803 
L 500 4441 
Q 881 4594 1212 4672 
Q 1544 4750 1819 4750 
Q 2544 4750 2975 4387 
Q 3406 4025 3406 3419 
Q 3406 3131 3298 2873 
Q 3191 2616 2906 2266 
Q 2828 2175 2409 1742 
Q 1991 1309 1228 531 
z
" transform="scale(0.015625)"/>
       </defs>
       <use xlink:href="#DejaVuSans-2212"/>
       <use xlink:href="#DejaVuSans-36" transform="translate(83.789062 0)"/>
       <use xlink:href="#DejaVuSans-2e" transform="translate(147.412109 0)"/>
       <use xlink:href="#DejaVuSans-32" transform="translate(179.199219 0)"/>
      </g>
     </g>
    </g>
    <g id="text_14">
     <!-- Latitude (°) -->
     <g transform="translate(52.6375 464.889531) rotate(-90) scale(0.1 -0.1)">
      <defs>
       <path id="DejaVuSans-61" d="M 2194 1759 
Q 1497 1759 1228 1600 
Q 959 1441 959 1056 
Q 959 750 1161 570 
Q 1363 391 1709 391 
Q 2188 391 2477 730 
Q 2766 1069 2766 1631 
L 2766 1759 
L 2194 1759 
z
M 3341 1997 
L 3341 0 
L 2766 0 
L 2766 531 
Q 2569 213 2275 61 
Q 1981 -91 1556 -91 
Q 1019 -91 701 211 
Q 384 513 384 1019 
Q 384 1609 779 1909 
Q 1175 2209 1959 2209 
L 2766 2209 
L 2766 2266 
Q 2766 2663 2505 2880 
Q 2244 3097 1772 3097 
Q 1472 3097 1187 3025 
Q 903 2953 641 2809 
L 641 3341 
Q 956 3463 1253 3523 
Q 1550 3584 1831 3584 
Q 2591 3584 2966 3190 
Q 3341 2797 3341 1997 
z
" transform="scale(0.015625)"/>
      </defs>
      <use xlink:href="#DejaVuSans-4c"/>
      <use xlink:href="#DejaVuSans-61" transform="translate(55.712891 0)"/>
      <use xlink:href="#DejaVuSans-74" transform="translate(116.992188 0)"/>
      <use xlink:href="#DejaVuSans-69" transform="translate(156.201172 0)"/>
      <use xlink:href="#DejaVuSans-74" transform="translate(183.984375 0)"/>
      <use xlink:href="#DejaVuSans-75" transform="translate(223.193359 0)"/>
      <use xlink:href="#DejaVuSans-64" transform="translate(286.572266 0)"/>
      <use xlink:href="#DejaVuSans-65" transform="translate(350.048828 0)"/>
      <use xlink:href="#DejaVuSans-20" transform="translate(411.572266 0)"/>
      <use xlink:href="#DejaVuSans-28" transform="translate(443.359375 0)"/>
      <use xlink:href="#DejaVuSans-b0" transform="translate(482.373047 0)"/>
      <use xlink:href="#DejaVuSans-29" transform="translate(532.373047 0)"/>
     </g>
    </g>
   </g>
   <g id="patch_3">
    <path d="M 90 692.444859 
L 90 180.195141 
" style="fill: none; stroke: #000000; stroke-width: 0.8; stroke-linejoin: miter; stroke-linecap: square"/>
   </g>
   <g id="patch_4">
    <path d="M 648 692.444859 
L 648 180.195141 
" style="fill: none; stroke: #000000; stroke-width: 0.8; stroke-linejoin: miter; stroke-linecap: square"/>
   </g>
   <g id="patch_5">
    <path d="M 90 692.444859 
L 648 692.444859 
" style="fill: none; stroke: #000000; stroke-width: 0.8; stroke-linejoin: miter; stroke-linecap: square"/>
   </g>
   <g id="patch_6">
    <path d="M 90 180.195141 
L 648 180.195141 
" style="fill: none; stroke: #000000; stroke-width: 0.8; stroke-linejoin: miter; stroke-linecap: square"/>
   </g>
   <g id="legend_1">
    <g id="patch_7">
     <path d="M 330.100781 817.572928 
L 407.899219 817.572928 
Q 409.899219 817.572928 409.899219 815.572928 
L 409.899219 801.894803 
Q 409.899219 799.894803 407.899219 799.894803 
L 330.100781 799.894803 
Q 328.100781 799.894803 328.100781 801.894803 
L 328.100781 815.572928 
Q 328.100781 817.572928 330.100781 817.572928 
z
" style="fill: #ffffff; opacity: 0.8; stroke: #cccccc; stroke-linejoin: miter"/>
    </g>
    <g id="line2d_25">
     <defs>
      <path id="m8d602e563d" d="M 0 5 
C 1.326016 5 2.597899 4.473168 3.535534 3.535534 
C 4.473168 2.597899 5 1.326016 5 0 
C 5 -1.326016 4.473168 -2.597899 3.535534 -3.535534 
C 2.597899 -4.473168 1.326016 -5 0 -5 
C -1.326016 -5 -2.597899 -4.473168 -3.535534 -3.535534 
C -4.473168 -2.597899 -5 -1.326016 -5 0 
C -5 1.326016 -4.473168 2.597899 -3.535534 3.535534 
C -2.597899 4.473168 -1.326016 5 0 5 
z
"/>
     </defs>
     <g>
      <use xlink:href="#m8d602e563d" x="342.100781" y="807.99324" style="fill: #b3e2cd; fill-opacity: 0.65"/>
     </g>
    </g>
    <g id="text_15">
     <!-- PA ACARI -->
     <g transform="translate(360.100781 811.49324) scale(0.1 -0.1)">
      <defs>
       <path id="DejaVuSans-50" d="M 1259 4147 
L 1259 2394 
L 2053 2394 
Q 2494 2394 2734 2622 
Q 2975 2850 2975 3272 
Q 2975 3691 2734 3919 
Q 2494 4147 2053 4147 
L 1259 4147 
z
M 628 4666 
L 2053 4666 
Q 2838 4666 3239 4311 
Q 3641 3956 3641 3272 
Q 3641 2581 3239 2228 
Q 2838 1875 2053 1875 
L 1259 1875 
L 1259 0 
L 628 0 
L 628 4666 
z
" transform="scale(0.015625)"/>
       <path id="DejaVuSans-41" d="M 2188 4044 
L 1331 1722 
L 3047 1722 
L 2188 4044 
z
M 1831 4666 
L 2547 4666 
L 4325 0 
L 3669 0 
L 3244 1197 
L 1141 1197 
L 716 0 
L 50 0 
L 1831 4666 
z
" transform="scale(0.015625)"/>
       <path id="DejaVuSans-43" d="M 4122 4306 
L 4122 3641 
Q 3803 3938 3442 4084 
Q 3081 4231 2675 4231 
Q 1875 4231 1450 3742 
Q 1025 3253 1025 2328 
Q 1025 1406 1450 917 
Q 1875 428 2675 428 
Q 3081 428 3442 575 
Q 3803 722 4122 1019 
L 4122 359 
Q 3791 134 3420 21 
Q 3050 -91 2638 -91 
Q 1578 -91 968 557 
Q 359 1206 359 2328 
Q 359 3453 968 4101 
Q 1578 4750 2638 4750 
Q 3056 4750 3426 4639 
Q 3797 4528 4122 4306 
z
" transform="scale(0.015625)"/>
       <path id="DejaVuSans-52" d="M 2841 2188 
Q 3044 2119 3236 1894 
Q 3428 1669 3622 1275 
L 4263 0 
L 3584 0 
L 2988 1197 
Q 2756 1666 2539 1819 
Q 2322 1972 1947 1972 
L 1259 1972 
L 1259 0 
L 628 0 
L 628 4666 
L 2053 4666 
Q 2853 4666 3247 4331 
Q 3641 3997 3641 3322 
Q 3641 2881 3436 2590 
Q 3231 2300 2841 2188 
z
M 1259 4147 
L 1259 2491 
L 2053 2491 
Q 2509 2491 2742 2702 
Q 2975 2913 2975 3322 
Q 2975 3731 2742 3939 
Q 2509 4147 2053 4147 
L 1259 4147 
z
" transform="scale(0.015625)"/>
       <path id="DejaVuSans-49" d="M 628 4666 
L 1259 4666 
L 1259 0 
L 628 0 
L 628 4666 
z
" transform="scale(0.015625)"/>
      </defs>
      <use xlink:href="#DejaVuSans-50"/>
      <use xlink:href="#DejaVuSans-41" transform="translate(53.927734 0)"/>
      <use xlink:href="#DejaVuSans-20" transform="translate(122.335938 0)"/>
      <use xlink:href="#DejaVuSans-41" transform="translate(154.123047 0)"/>
      <use xlink:href="#DejaVuSans-43" transform="translate(220.78125 0)"/>
      <use xlink:href="#DejaVuSans-41" transform="translate(290.605469 0)"/>
      <use xlink:href="#DejaVuSans-52" transform="translate(359.013672 0)"/>
      <use xlink:href="#DejaVuSans-49" transform="translate(428.496094 0)"/>
     </g>
    </g>
   </g>
  </g>
 </g>
 <defs>
  <clipPath id="pa7526856e4">
   <rect x="90" y="180.195141" width="558" height="512.249718"/>
  </clipPath>
 </defs>
</svg>
