<?xml version="1.0" encoding="utf-8" standalone="no"?>
<!DOCTYPE svg PUBLIC "-//W3C//DTD SVG 1.1//EN"
  "http://www.w3.org/Graphics/SVG/1.1/DTD/svg11.dtd">
<svg xmlns:xlink="http://www.w3.org/1999/xlink" width="720pt" height="864pt" viewBox="0 0 720 864" xmlns="http://www.w3.org/2000/svg" version="1.1">
 <metadata>
  <rdf:RDF xmlns:dc="http://purl.org/dc/elements/1.1/" xmlns:cc="http://creativecommons.org/ns#" xmlns:rdf="http://www.w3.org/1999/02/22-rdf-syntax-ns#">
   <cc:Work>
    <dc:type rdf:resource="http://purl.org/dc/dcmitype/StillImage"/>
    <dc:date>2025-06-16T17:17:24.772321</dc:date>
    <dc:format>image/svg+xml</dc:format>
    <dc:creator>
     <cc:Agent>
      <dc:title>Matplotlib v3.10.1, https://matplotlib.org/</dc:title>
     </cc:Agent>
    </dc:creator>
   </cc:Work>
  </rdf:RDF>
 </metadata>
 <defs>
  <style type="text/css">*{stroke-linejoin: round; stroke-linecap: butt}</style>
 </defs>
 <g id="figure_1">
  <g id="patch_1">
   <path d="M 0 864 
L 720 864 
L 720 0 
L 0 0 
z
" style="fill: #ffffff"/>
  </g>
  <g id="axes_1">
   <g id="patch_2">
    <path d="M 90 617.177924 
L 648 617.177924 
L 648 255.462076 
L 90 255.462076 
z
" style="fill: #ffffff"/>
   </g>
   <g id="PatchCollection_1">
    <defs>
     <path id="m07dd7adcbe" d="M 617.82511 -549.117133 
L 617.008298 -547.250555 
L 615.598156 -545.898569 
L 613.164974 -544.674902 
L 613.173451 -543.677904 
L 612.695207 -543.533995 
L 612.301755 -544.124423 
L 611.856284 -543.936787 
L 611.526574 -543.245524 
L 610.940006 -542.947902 
L 610.014116 -543.328516 
L 609.231192 -543.205589 
L 607.957605 -543.442707 
L 607.621781 -542.970556 
L 607.788555 -541.787788 
L 607.441948 -541.282739 
L 606.76293 -540.973874 
L 606.057836 -540.292421 
L 606.015283 -539.974561 
L 604.698963 -539.94861 
L 603.840368 -539.661116 
L 603.608486 -538.992074 
L 602.60802 -538.846581 
L 601.716679 -538.591865 
L 600.943003 -539.005844 
L 600.084558 -538.66358 
L 599.782478 -537.81902 
L 600.220611 -536.834285 
L 600.327891 -535.530818 
L 600.360993 -533.569735 
L 600.36307 -532.879493 
L 600.815819 -532.464535 
L 602.208818 -532.32636 
L 603.842327 -531.80546 
L 604.165198 -531.170982 
L 604.731027 -531.139852 
L 607.409605 -532.210834 
L 608.524652 -532.247138 
L 613.299259 -530.95808 
L 614.827929 -530.929942 
L 615.998379 -530.637758 
L 617.285378 -529.589954 
L 617.591915 -528.9664 
L 617.478724 -528.626405 
L 618.258497 -527.878587 
L 619.023501 -527.488086 
L 618.887128 -527.161172 
L 618.30546 -526.899281 
L 617.61839 -526.963545 
L 615.095901 -525.262418 
L 613.983565 -525.131692 
L 612.699996 -525.288195 
L 612.010884 -525.120051 
L 612.157102 -523.122861 
L 612.722494 -523.31829 
L 613.453117 -524.288939 
L 614.278806 -523.821139 
L 615.958981 -523.35046 
L 616.095425 -522.758781 
L 615.739261 -521.529209 
L 615.156704 -520.658616 
L 615.269267 -518.450219 
L 614.760024 -516.168035 
L 615.210974 -515.733433 
L 616.244386 -515.423623 
L 616.441443 -514.518704 
L 616.267763 -513.232528 
L 617.712104 -511.068211 
L 617.653649 -510.218395 
L 616.365736 -510.24792 
L 615.778952 -509.720659 
L 616.024292 -509.363679 
L 617.063413 -509.009178 
L 617.411451 -507.74698 
L 616.542356 -506.961712 
L 616.951943 -505.543206 
L 617.565373 -504.628403 
L 618.509906 -504.351864 
L 619.337033 -502.543379 
L 619.398092 -500.743686 
L 620.305785 -499.818635 
L 620.886725 -498.646615 
L 620.398197 -496.85638 
L 620.028646 -496.08384 
L 620.60804 -495.414889 
L 622.056272 -495.620656 
L 622.636364 -494.728124 
L 622.580044 -493.196375 
L 620.683749 -490.675061 
L 620.518503 -488.461022 
L 619.317741 -487.205165 
L 618.959942 -486.220258 
L 619.604253 -484.310592 
L 618.536803 -483.021617 
L 618.547634 -481.311203 
L 616.079528 -480.565647 
L 616.291822 -480.13031 
L 617.699827 -479.005594 
L 618.18874 -477.084263 
L 617.774517 -476.389842 
L 617.164988 -476.019015 
L 617.01275 -474.978855 
L 619.441614 -474.06975 
L 620.134629 -470.785186 
L 619.285686 -470.637183 
L 619.405521 -469.5867 
L 620.297455 -468.404488 
L 621.402616 -468.284983 
L 621.859792 -467.660379 
L 621.380547 -466.451499 
L 621.544878 -465.37879 
L 620.028803 -463.730659 
L 620.26936 -463.138901 
L 619.881257 -462.96999 
L 619.18153 -463.034873 
L 618.779095 -462.116898 
L 618.915309 -461.1559 
L 619.566155 -460.744305 
L 619.336578 -459.580924 
L 619.754177 -459.190958 
L 619.457019 -458.340393 
L 618.552551 -458.181037 
L 616.573104 -457.347558 
L 615.464666 -456.718035 
L 614.559983 -456.625771 
L 612.680511 -455.770266 
L 611.65623 -454.850356 
L 611.443082 -453.75411 
L 612.029408 -452.660357 
L 612.519042 -452.315319 
L 613.218449 -452.362224 
L 613.241382 -452.127523 
L 612.604801 -451.510667 
L 613.091343 -450.371893 
L 614.29764 -449.883767 
L 614.619832 -448.028997 
L 616.005435 -447.016009 
L 617.128018 -446.672973 
L 617.385219 -446.09245 
L 616.949964 -445.006681 
L 616.255643 -445.10512 
L 613.663751 -446.595043 
L 613.052646 -446.716102 
L 612.920739 -446.27969 
L 613.055714 -445.721141 
L 614.875247 -444.430028 
L 614.565748 -443.970706 
L 614.044332 -443.812558 
L 613.398598 -444.358332 
L 612.929153 -443.551944 
L 613.476887 -442.37982 
L 613.370158 -439.182179 
L 612.922745 -438.431757 
L 613.18101 -437.504676 
L 612.935441 -436.117658 
L 613.281664 -433.681634 
L 612.790271 -432.785743 
L 613.453105 -432.105879 
L 612.30326 -430.470081 
L 611.255934 -429.79604 
L 610.534127 -429.793784 
L 610.055867 -430.038238 
L 609.757244 -429.646026 
L 610.345791 -427.847982 
L 610.876062 -426.944103 
L 610.906618 -426.03867 
L 610.698183 -425.210739 
L 610.916447 -424.652451 
L 611.949624 -424.521538 
L 612.861637 -424.066035 
L 613.746868 -423.297437 
L 614.385194 -423.366514 
L 615.426738 -424.118806 
L 616.742007 -424.335346 
L 617.605103 -423.54433 
L 617.938644 -421.633711 
L 615.759044 -419.022055 
L 615.473541 -417.981468 
L 613.430772 -415.996305 
L 612.953561 -415.894189 
L 612.329243 -416.674789 
L 611.465757 -417.588795 
L 610.454742 -417.73096 
L 610.044402 -417.550809 
L 610.157627 -416.846855 
L 608.800619 -415.747032 
L 609.069457 -414.998858 
L 608.478947 -413.823175 
L 608.414378 -413.152209 
L 608.070461 -413.039341 
L 609.044316 -412.349259 
L 609.297084 -411.410976 
L 610.064871 -410.92149 
L 610.461529 -410.140174 
L 609.620178 -409.276724 
L 610.532417 -408.765331 
L 610.406463 -408.194783 
L 609.885885 -407.745977 
L 609.710928 -406.862261 
L 609.133092 -406.972247 
L 608.435997 -406.142788 
L 608.56675 -405.159411 
L 609.130724 -404.143845 
L 608.428969 -403.023709 
L 608.706714 -401.191161 
L 607.948353 -400.417407 
L 608.495785 -399.368261 
L 609.089218 -399.604883 
L 609.713145 -398.958434 
L 610.480751 -396.747323 
L 610.043416 -396.309952 
L 610.889205 -393.661006 
L 440.975025 -420.257032 
L 439.786404 -420.434251 
L 438.430031 -419.796557 
L 437.729589 -419.970934 
L 437.244621 -420.751874 
L 438.41639 -422.417916 
L 438.997971 -422.186866 
L 439.699652 -421.519232 
L 441.336608 -421.925102 
L 442.002942 -422.772429 
L 441.924979 -423.152752 
L 441.357289 -423.426118 
L 442.18868 -424.055419 
L 443.099664 -423.663152 
L 443.651067 -422.91057 
L 444.308567 -423.102535 
L 444.793136 -423.857786 
L 446.029073 -425.04484 
L 446.047644 -425.996193 
L 446.368953 -426.264803 
L 447.455802 -425.527716 
L 448.060144 -425.973227 
L 447.925604 -427.945964 
L 447.507964 -428.395874 
L 448.038573 -428.932805 
L 447.907636 -429.496204 
L 447.514674 -429.875708 
L 447.940483 -430.391592 
L 448.499137 -430.669019 
L 449.268901 -431.867887 
L 450.899836 -432.287441 
L 451.353424 -432.700261 
L 451.306821 -433.260947 
L 451.777298 -434.037311 
L 451.838898 -434.580068 
L 451.523337 -434.804746 
L 451.942111 -435.107763 
L 452.688318 -435.430032 
L 453.277125 -436.889882 
L 453.004052 -437.408841 
L 452.499957 -437.456853 
L 452.429061 -437.809007 
L 452.902639 -438.161525 
L 453.755334 -438.316952 
L 454.583831 -438.230389 
L 455.594437 -438.632798 
L 457.058197 -439.568691 
L 457.32993 -440.616577 
L 458.460177 -441.467939 
L 458.581239 -442.017903 
L 458.695287 -444.478041 
L 458.034154 -445.159301 
L 457.425145 -446.538865 
L 457.668552 -447.145518 
L 458.504307 -446.048418 
L 459.291807 -446.022301 
L 459.839768 -446.381315 
L 460.434222 -448.132273 
L 459.887056 -448.602968 
L 460.325371 -449.245862 
L 461.856842 -448.798408 
L 462.544175 -449.603548 
L 462.514749 -449.909146 
L 460.898219 -451.38908 
L 460.809612 -451.818696 
L 461.418868 -451.693453 
L 462.324367 -450.695208 
L 462.59955 -451.189201 
L 463.152811 -452.409738 
L 462.805125 -452.880955 
L 462.013528 -453.146646 
L 461.026706 -453.122907 
L 460.623431 -453.43895 
L 461.252942 -454.948603 
L 460.994866 -455.955604 
L 461.070811 -456.357468 
L 461.43522 -456.182253 
L 462.319862 -455.120533 
L 462.910954 -455.248929 
L 464.197993 -456.901257 
L 464.556442 -457.67029 
L 465.220892 -457.848217 
L 465.557539 -457.581331 
L 465.358918 -455.910737 
L 465.706769 -455.376105 
L 466.231559 -455.433862 
L 467.094319 -456.056259 
L 467.452301 -457.001466 
L 466.991767 -457.803574 
L 466.509244 -458.986139 
L 466.812121 -459.592962 
L 467.73526 -459.870217 
L 468.712465 -459.548663 
L 469.096452 -459.916103 
L 469.79379 -462.229276 
L 470.237389 -462.547557 
L 470.944757 -462.366222 
L 471.516237 -461.959036 
L 472.888673 -461.71605 
L 474.085385 -463.086304 
L 475.095239 -463.652737 
L 475.29181 -464.752548 
L 476.069163 -465.896189 
L 476.249422 -466.544967 
L 475.499236 -467.04327 
L 474.275114 -466.786326 
L 473.952413 -467.074375 
L 474.619662 -467.506003 
L 475.606804 -467.388852 
L 476.302254 -467.74304 
L 476.184916 -468.447399 
L 475.762089 -469.545548 
L 475.720852 -470.588355 
L 476.16644 -471.470375 
L 476.509587 -471.393782 
L 477.007416 -471.042777 
L 477.626582 -471.128995 
L 478.129143 -471.637708 
L 477.696955 -472.305981 
L 477.995312 -473.28627 
L 478.781352 -473.781642 
L 479.412163 -473.431006 
L 479.900777 -473.918533 
L 479.137082 -475.517992 
L 479.181726 -475.875693 
L 479.751601 -476.074419 
L 480.270696 -476.942556 
L 480.045794 -477.301331 
L 479.257099 -477.813624 
L 477.912186 -478.261011 
L 478.099252 -478.980277 
L 477.411757 -479.598542 
L 476.971783 -479.245029 
L 476.567952 -478.454723 
L 476.80052 -477.842282 
L 476.023131 -476.719784 
L 475.686425 -477.014845 
L 474.761204 -478.879749 
L 474.77005 -479.506927 
L 475.532834 -479.530104 
L 476.43656 -480.512008 
L 476.609773 -481.174859 
L 476.111916 -481.539959 
L 474.411252 -481.549516 
L 474.021786 -481.950143 
L 474.168959 -483.204845 
L 473.405833 -483.315559 
L 473.524012 -483.618884 
L 474.618242 -484.009369 
L 474.946185 -484.383714 
L 474.26859 -485.241606 
L 474.011148 -486.001963 
L 474.285657 -486.735553 
L 473.81606 -487.082639 
L 473.708786 -488.682498 
L 474.585443 -491.272808 
L 474.937924 -496.795496 
L 476.939362 -503.241111 
L 478.31483 -506.486032 
L 479.223317 -509.877517 
L 479.55767 -512.306713 
L 479.586381 -515.336886 
L 479.060048 -519.771715 
L 478.48657 -522.914476 
L 477.672425 -525.530654 
L 477.061567 -528.590809 
L 477.0101 -530.22714 
L 478.410627 -530.689882 
L 481.012818 -530.916086 
L 489.438332 -529.365965 
L 494.327709 -528.147087 
L 496.961118 -525.472769 
L 502.769975 -521.345728 
L 505.434998 -519.11824 
L 506.359135 -518.665577 
L 507.720079 -516.886455 
L 509.40869 -515.826545 
L 511.840088 -515.207373 
L 516.295511 -514.856956 
L 520.842958 -515.284496 
L 522.58414 -515.661401 
L 525.146388 -515.177613 
L 526.631501 -514.823794 
L 528.468382 -513.383196 
L 531.142893 -512.821683 
L 533.158386 -513.058115 
L 535.513 -514.910498 
L 536.821017 -517.038605 
L 537.97334 -519.885468 
L 537.900613 -526.729646 
L 537.952882 -529.867449 
L 537.079145 -536.432505 
L 536.298603 -539.73713 
L 535.306768 -542.149075 
L 534.255282 -544.820545 
L 531.84936 -548.411697 
L 530.710215 -550.210936 
L 531.675109 -552.295629 
L 534.46725 -553.63854 
L 536.676015 -552.832393 
L 540.0067 -549.76743 
L 541.212346 -543.022587 
L 541.428654 -539.66234 
L 543.414604 -534.921942 
L 547.977697 -528.686796 
L 550.900033 -526.38181 
L 552.742386 -524.11326 
L 555.269142 -522.83536 
L 557.692972 -523.218114 
L 560.251669 -524.491052 
L 562.31593 -526.988486 
L 563.279664 -529.818833 
L 563.556631 -534.033972 
L 563.003383 -537.094445 
L 562.648309 -541.067759 
L 560.287747 -546.043623 
L 558.637333 -549.874763 
L 558.618443 -553.038377 
L 560.403908 -553.439035 
L 563.537416 -552.736366 
L 566.737757 -552.686427 
L 569.803417 -555.068186 
L 571.205323 -555.705052 
L 573.514718 -558.203255 
L 575.127937 -560.422583 
L 579.660779 -564.548781 
L 583.512957 -566.438662 
L 588.462949 -568.845987 
L 591.689388 -569.864091 
L 594.698026 -571.494522 
L 596.50811 -573.457488 
L 596.55123 -575.454662 
L 596.045571 -577.153587 
L 592.691871 -579.358013 
L 590.637496 -580.340477 
L 581.237818 -582.42808 
L 576.845217 -584.155061 
L 575.467021 -585.535089 
L 577.046574 -588.246229 
L 581.074485 -591.345909 
L 584.07647 -590.931682 
L 590.749725 -592.096295 
L 597.393504 -591.950832 
L 602.141464 -590.789112 
L 608.747377 -584.397704 
L 609.798719 -579.077497 
L 610.093308 -575.931144 
L 611.623671 -571.005331 
L 614.477172 -565.207104 
L 616.672137 -558.893056 
L 617.552173 -557.421089 
L 616.988084 -554.034184 
L 617.092869 -551.908768 
L 617.145076 -550.218942 
L 617.82511 -549.117133 
" style="stroke: #0000ff; stroke-width: 0.5"/>
    </defs>
    <g clip-path="url(#pb548b2b447)">
     <use xlink:href="#m07dd7adcbe" x="0" y="864" style="fill: #e0bd1f; stroke: #0000ff; stroke-width: 0.5"/>
    </g>
   </g>
   <g id="PatchCollection_2">
    <path d="M 427.77742 356.448075 
L 430.300825 356.619478 
L 431.517375 356.903474 
L 432.591966 357.414814 
L 434.330876 358.723642 
L 437.647309 362.07975 
L 438.980938 363.159556 
L 441.078679 364.665965 
L 442.780858 365.625505 
L 444.097192 366.200937 
L 447.460552 368.134898 
L 449.281943 369.101879 
L 450.84073 369.792539 
L 453.831752 370.8361 
L 458.06847 371.701775 
L 461.718846 371.981691 
L 464.365021 371.998492 
L 465.790372 372.310817 
L 467.405334 373.647499 
L 468.724271 374.331202 
L 469.714726 375.323384 
L 472.268463 375.757427 
L 473.398983 377.456361 
L 473.316271 378.00635 
L 473.641682 379.076796 
L 473.444724 379.653429 
L 472.892979 380.113875 
L 472.547185 380.578158 
L 472.632746 381.367254 
L 473.244934 381.642123 
L 473.749521 381.48536 
L 473.848819 382.31167 
L 473.81754 382.94784 
L 474.380666 383.419322 
L 474.954459 383.432527 
L 474.646351 383.71628 
L 474.363602 384.218736 
L 474.200543 385.24165 
L 474.467405 385.833174 
L 476.053221 387.810348 
L 476.735082 387.876124 
L 477.227818 387.613968 
L 477.606316 387.206102 
L 477.78929 386.656831 
L 478.055922 386.496231 
L 479.07031 386.535838 
L 479.263232 386.492393 
L 479.55901 387.112713 
L 478.889947 387.369347 
L 478.621421 387.663186 
L 478.49912 388.152437 
L 479.006787 389.144619 
L 478.441058 389.522003 
L 478.039096 389.782716 
L 477.751603 390.117364 
L 477.411739 391.102589 
L 477.379265 391.551747 
L 477.306272 391.545024 
L 476.812589 391.149879 
L 476.105592 391.347218 
L 475.895605 391.798296 
L 475.712879 392.467358 
L 475.457621 392.748467 
L 475.183404 393.220917 
L 475.093815 393.821317 
L 475.200707 394.293282 
L 475.642489 394.930654 
L 475.754824 395.471525 
L 475.666899 395.64629 
L 474.768405 395.646048 
L 474.025393 396.062323 
L 473.636469 396.515803 
L 473.483119 397.06147 
L 473.7161 397.690683 
L 474.316914 397.930983 
L 475.640117 397.709161 
L 475.596747 397.822954 
L 475.014892 398.869159 
L 474.891175 399.489004 
L 473.851191 400.022183 
L 473.512274 400.702766 
L 472.878995 401.2722 
L 472.677302 401.248192 
L 471.305747 400.512635 
L 470.81633 400.497511 
L 469.811422 400.859771 
L 469.476771 401.172813 
L 469.321296 401.711757 
L 469.226725 402.749078 
L 468.861503 403.302187 
L 467.62765 403.20592 
L 466.897667 403.450791 
L 466.472711 403.900426 
L 466.280975 404.300617 
L 466.193997 404.91086 
L 466.357526 405.479335 
L 465.572331 405.173008 
L 465.017259 405.241187 
L 464.513149 405.646175 
L 463.951209 406.270107 
L 463.313894 407.393609 
L 462.873537 407.696808 
L 461.999462 406.714945 
L 461.618115 406.617235 
L 461.222791 406.738953 
L 460.821776 407.224842 
L 460.748067 407.539085 
L 460.801393 409.220977 
L 460.524804 410.127461 
L 460.441854 410.474355 
L 460.49518 411.090363 
L 460.827698 411.27377 
L 460.510589 411.533524 
L 460.496844 412.243629 
L 460.703272 412.754969 
L 461.730458 413.726747 
L 461.403862 413.923844 
L 460.263624 413.794209 
L 459.946746 413.921441 
L 459.531039 414.452702 
L 459.511602 414.741502 
L 459.768516 416.123315 
L 459.571328 416.59936 
L 459.206575 416.869432 
L 458.995642 416.185972 
L 458.785416 415.9171 
L 458.442233 415.751695 
L 458.048095 415.765376 
L 457.743299 415.938222 
L 457.446574 416.241905 
L 456.845999 417.540414 
L 457.151973 418.240442 
L 457.776242 419.094113 
L 458.176787 419.755493 
L 458.14526 421.114731 
L 458.170388 421.857496 
L 456.876809 422.888568 
L 456.737921 423.559316 
L 454.692082 424.738751 
L 453.801411 424.735631 
L 452.700524 425.058993 
L 452.375822 425.19103 
L 451.827387 425.561207 
L 451.641103 426.236276 
L 451.983339 426.821551 
L 452.478686 427.043132 
L 452.928991 427.064495 
L 452.776597 427.171323 
L 452.270594 427.734993 
L 451.36878 428.074688 
L 451.140074 428.800643 
L 451.410255 429.494431 
L 451.26118 429.971678 
L 451.220891 430.471247 
L 449.358733 431.225057 
L 448.669517 431.887629 
L 448.374209 432.362239 
L 447.245344 433.497746 
L 447.278765 433.997799 
L 447.470032 434.368935 
L 447.32024 434.809935 
L 447.306025 435.580545 
L 447.630958 436.094522 
L 447.635693 436.931626 
L 447.250566 436.680998 
L 446.70592 436.608982 
L 446.324103 436.768623 
L 446.003675 437.169289 
L 445.570426 438.476441 
L 444.155502 439.908189 
L 443.154143 439.081403 
L 442.335766 438.96233 
L 441.48681 439.304185 
L 440.97677 439.985969 
L 440.778874 440.620696 
L 441.344842 441.155086 
L 440.963025 441.335131 
L 440.388755 441.37378 
L 439.846251 440.859561 
L 438.938994 440.510265 
L 438.548406 440.518432 
L 438.07084 440.7849 
L 437.42879 441.658501 
L 437.363373 441.864949 
L 437.071853 442.10982 
L 436.896712 442.875383 
L 437.108832 443.732658 
L 437.420258 444.168612 
L 438.099039 444.677307 
L 438.666193 444.740206 
L 439.577247 444.467973 
L 440.246079 444.245909 
L 440.939083 444.172691 
L 441.112808 443.811632 
L 600.42176 468.681359 
L 417.773865 600.736295 
L 115.363636 461.886091 
L 116.745148 447.065233 
L 120.513072 412.146161 
L 121.740766 411.180381 
L 122.958741 412.027571 
L 126.357407 412.951098 
L 127.671847 413.122985 
L 128.323138 413.654488 
L 128.696184 413.731068 
L 129.88904 413.629521 
L 130.940158 413.842217 
L 131.433841 413.721224 
L 133.694173 414.222479 
L 134.826587 414.465907 
L 136.685186 414.719655 
L 139.154318 414.846411 
L 140.375851 414.794074 
L 144.680597 414.194633 
L 148.038736 413.189963 
L 149.065444 412.762894 
L 149.505092 412.586919 
L 149.966071 412.448167 
L 152.728618 410.626555 
L 155.407258 408.18726 
L 156.977426 406.519291 
L 159.745655 403.369882 
L 160.347416 403.008106 
L 161.58696 402.653295 
L 162.648744 402.556311 
L 163.742294 402.673216 
L 164.884904 403.393648 
L 165.918719 404.375753 
L 166.707481 405.639218 
L 166.872673 406.14119 
L 166.948038 407.313668 
L 166.674299 409.218574 
L 166.269018 410.236933 
L 165.670815 411.084123 
L 164.961216 411.701323 
L 163.628056 412.594127 
L 158.860676 415.40888 
L 157.677777 416.506455 
L 156.827404 417.532255 
L 156.508154 418.148738 
L 155.940053 420.257949 
L 155.741909 422.566166 
L 155.831736 423.326691 
L 156.48777 424.542856 
L 158.708759 427.354489 
L 159.77481 428.164948 
L 160.662161 428.556739 
L 163.895635 429.314861 
L 165.455138 429.332863 
L 166.202185 429.285814 
L 167.144757 429.354227 
L 169.226859 429.424325 
L 171.4476 429.605338 
L 173.68068 429.599332 
L 179.785955 429.2318 
L 180.962694 428.881786 
L 181.355884 428.713978 
L 181.857869 428.871216 
L 183.773354 428.83809 
L 184.586517 428.213924 
L 184.940843 427.778446 
L 185.072385 427.435631 
L 185.099159 426.260517 
L 184.747444 425.285854 
L 184.026471 424.514051 
L 183.006401 422.869607 
L 182.676724 422.533274 
L 181.981109 421.202598 
L 181.747898 420.914523 
L 181.263924 420.049565 
L 180.402886 419.258559 
L 179.596352 418.572454 
L 178.792668 417.328677 
L 178.077616 415.422085 
L 177.843219 414.350437 
L 177.751498 413.353692 
L 177.924744 411.945227 
L 178.286417 410.95136 
L 179.092473 409.844909 
L 180.151894 408.918979 
L 181.95907 407.698726 
L 185.627449 405.723956 
L 187.471834 404.875331 
L 189.885267 403.932117 
L 195.130452 402.178209 
L 199.409124 400.093249 
L 202.874631 398.117752 
L 203.09315 398.211383 
L 203.70131 398.933492 
L 204.962415 400.993969 
L 205.881054 403.246971 
L 207.483449 407.718898 
L 208.080704 410.307031 
L 208.367959 411.790866 
L 208.5424 413.87103 
L 208.790065 414.558337 
L 208.858092 415.087913 
L 208.741244 416.661299 
L 209.115475 417.594912 
L 209.965148 418.150657 
L 210.847278 418.317021 
L 212.828657 419.594167 
L 214.115598 420.42287 
L 215.15013 421.39489 
L 216.266904 422.036582 
L 216.383744 422.294893 
L 216.511497 422.449737 
L 216.450108 422.480702 
L 216.522632 422.937544 
L 216.39133 423.225385 
L 216.255292 423.549948 
L 216.121148 423.618127 
L 216.204807 423.785693 
L 216.12707 424.153709 
L 216.166889 424.332562 
L 216.38493 424.90127 
L 216.933604 425.772468 
L 217.010863 425.935229 
L 217.365667 426.12224 
L 217.311863 426.195458 
L 217.380359 426.718561 
L 217.297639 427.40515 
L 217.534178 427.63297 
L 218.124088 427.785887 
L 218.739585 429.19195 
L 218.959768 429.673034 
L 219.350595 430.467652 
L 220.536804 431.053887 
L 221.147336 431.655246 
L 221.327938 431.715024 
L 221.514461 431.70086 
L 221.891773 431.595475 
L 222.13233 431.964451 
L 222.282361 432.174511 
L 222.140632 432.425614 
L 222.254153 432.624387 
L 222.468167 432.662802 
L 222.85094 432.475307 
L 223.445107 432.435941 
L 223.654385 432.159145 
L 224.245481 431.922924 
L 224.283637 432.263095 
L 224.3071 432.624145 
L 224.418497 432.77587 
L 224.819512 432.870218 
L 225.520809 432.794831 
L 225.827022 432.752103 
L 226.121862 432.742744 
L 226.055737 433.012816 
L 226.208131 432.972724 
L 226.210972 433.004891 
L 226.468833 433.376027 
L 226.678351 434.657735 
L 226.433996 435.263182 
L 226.199838 435.508287 
L 225.708996 436.079639 
L 225.469616 436.458942 
L 224.772823 437.61341 
L 224.056586 437.822744 
L 224.016297 437.718077 
L 223.960359 437.869802 
L 223.144824 440.66319 
L 223.286314 440.842994 
L 223.222561 441.075619 
L 221.647657 442.3302 
L 221.480801 442.419501 
L 221.178385 442.578182 
L 221.067935 442.5633 
L 220.015631 443.098165 
L 219.53356 443.275091 
L 218.900042 444.061542 
L 218.687684 444.217104 
L 218.189735 444.742842 
L 217.634193 445.975099 
L 216.696357 446.455223 
L 216.404606 446.507319 
L 215.649973 446.763227 
L 214.15802 447.744131 
L 214.111809 447.846637 
L 213.82313 449.640879 
L 228.370572 442.546975 
L 248.269852 425.562892 
L 250.471404 427.136996 
L 252.062186 427.396508 
L 253.095302 427.426272 
L 254.067737 427.917208 
L 254.565925 427.680978 
L 255.416775 427.61184 
L 256.939308 427.071695 
L 257.709572 426.663587 
L 258.758088 425.464948 
L 259.720096 423.341331 
L 260.728324 419.537992 
L 261.655256 414.843534 
L 262.153674 413.252862 
L 264.382957 408.183898 
L 265.093981 406.171438 
L 265.218646 403.998853 
L 265.051081 402.926488 
L 264.526111 401.264284 
L 263.576662 399.658972 
L 262.488095 398.356617 
L 260.653906 396.746025 
L 259.718441 396.260379 
L 258.801227 395.580271 
L 257.149056 394.622659 
L 256.052665 394.36555 
L 255.262487 393.700566 
L 254.508332 392.477919 
L 254.619251 392.356443 
L 255.389285 392.152389 
L 257.530165 392.236652 
L 259.168352 391.667943 
L 259.772006 391.783172 
L 260.993531 391.771167 
L 261.501676 391.862629 
L 263.036529 392.23233 
L 263.902311 392.638278 
L 264.290288 392.854336 
L 264.573038 393.2202 
L 265.762097 393.860207 
L 266.635464 394.659388 
L 268.174583 396.653121 
L 269.886719 399.799643 
L 272.505634 403.415496 
L 273.712944 404.793705 
L 275.330747 406.21369 
L 276.731457 406.981414 
L 279.712044 407.91335 
L 281.475613 408.095314 
L 282.885324 408.067468 
L 284.514501 407.576057 
L 285.818515 406.882511 
L 287.182246 405.759009 
L 287.935453 403.980367 
L 288.219389 402.575756 
L 288.399982 400.54265 
L 288.750989 398.628851 
L 289.17452 397.034342 
L 289.591174 396.056083 
L 291.516146 393.85013 
L 292.556839 393.109526 
L 293.786187 392.807529 
L 295.307056 392.864663 
L 296.585704 393.255486 
L 299.952613 394.506705 
L 303.030382 394.891763 
L 306.168816 394.678834 
L 309.833406 393.285017 
L 312.867081 391.775489 
L 314.317559 390.906218 
L 316.222378 390.437614 
L 317.947074 390.427528 
L 324.687531 391.89432 
L 327.784728 393.413693 
L 328.09734 393.65159 
L 328.649563 394.405875 
L 328.916434 395.551224 
L 329.033282 398.378941 
L 328.232439 400.8953 
L 327.802739 402.779326 
L 326.976069 404.948549 
L 325.94367 408.13901 
L 325.162255 410.922797 
L 325.583414 414.076761 
L 327.306693 416.870634 
L 331.452876 417.575942 
L 333.586171 416.556148 
L 335.944853 415.552437 
L 338.619705 414.279138 
L 343.89878 410.842613 
L 349.43383 406.178637 
L 352.798368 403.792639 
L 355.020534 402.636253 
L 356.599712 402.318647 
L 357.577121 402.379143 
L 358.326063 402.628569 
L 359.367702 403.505523 
L 359.494269 404.342385 
L 359.283566 408.061946 
L 359.003905 409.263471 
L 355.778955 415.916141 
L 351.020107 421.292141 
L 348.213244 432.525484 
L 353.515074 441.626809 
L 385.028136 434.620764 
L 383.292775 417.936759 
L 385.250682 415.421368 
L 386.218612 414.409732 
L 387.677861 412.413356 
L 389.317712 408.834717 
L 390.157658 407.418335 
L 390.791884 405.70451 
L 391.441758 403.323075 
L 391.751759 401.712717 
L 392.065088 396.868937 
L 392.357316 391.912322 
L 392.817109 386.773986 
L 392.979222 380.634575 
L 392.944137 379.047266 
L 393.171427 376.691031 
L 393.76608 373.464809 
L 394.711971 370.224413 
L 396.294938 366.513979 
L 397.300793 364.90483 
L 399.668955 363.082501 
L 402.076467 362.575724 
L 404.860574 363.0088 
L 407.602029 363.980335 
L 410.139888 365.382076 
L 412.145199 367.161678 
L 413.927009 369.116277 
L 417.264773 372.99764 
L 420.214311 374.532378 
L 422.513746 375.134454 
L 425.9866 375.250408 
L 428.061594 374.265183 
L 429.467747 372.702599 
L 430.390413 369.552473 
L 430.442315 365.922939 
L 430.213609 364.434783 
L 429.011751 362.277564 
L 428.091218 361.271451 
L 427.069484 359.906923 
L 426.526741 358.88833 
L 426.463218 357.710814 
L 426.664203 357.147386 
L 427.77742 356.448075 
L 427.77742 356.448075 
" clip-path="url(#pb548b2b447)" style="fill: none; stroke: #000000"/>
   </g>
   <g id="matplotlib.axis_1">
    <g id="xtick_1">
     <g id="line2d_1">
      <path d="M 163.643226 617.177924 
L 163.643226 255.462076 
" clip-path="url(#pb548b2b447)" style="fill: none; stroke: #b0b0b0; stroke-width: 0.8; stroke-linecap: square"/>
     </g>
     <g id="line2d_2">
      <defs>
       <path id="m3af162ba5c" d="M 0 0 
L 0 3.5 
" style="stroke: #000000; stroke-width: 0.8"/>
      </defs>
      <g>
       <use xlink:href="#m3af162ba5c" x="163.643226" y="617.177924" style="stroke: #000000; stroke-width: 0.8"/>
      </g>
     </g>
     <g id="text_1">
      <!-- −68.4 -->
      <g transform="translate(154.759645 651.220339) rotate(-45) scale(0.1 -0.1)">
       <defs>
        <path id="DejaVuSans-2212" d="M 678 2272 
L 4684 2272 
L 4684 1741 
L 678 1741 
L 678 2272 
z
" transform="scale(0.015625)"/>
        <path id="DejaVuSans-36" d="M 2113 2584 
Q 1688 2584 1439 2293 
Q 1191 2003 1191 1497 
Q 1191 994 1439 701 
Q 1688 409 2113 409 
Q 2538 409 2786 701 
Q 3034 994 3034 1497 
Q 3034 2003 2786 2293 
Q 2538 2584 2113 2584 
z
M 3366 4563 
L 3366 3988 
Q 3128 4100 2886 4159 
Q 2644 4219 2406 4219 
Q 1781 4219 1451 3797 
Q 1122 3375 1075 2522 
Q 1259 2794 1537 2939 
Q 1816 3084 2150 3084 
Q 2853 3084 3261 2657 
Q 3669 2231 3669 1497 
Q 3669 778 3244 343 
Q 2819 -91 2113 -91 
Q 1303 -91 875 529 
Q 447 1150 447 2328 
Q 447 3434 972 4092 
Q 1497 4750 2381 4750 
Q 2619 4750 2861 4703 
Q 3103 4656 3366 4563 
z
" transform="scale(0.015625)"/>
        <path id="DejaVuSans-38" d="M 2034 2216 
Q 1584 2216 1326 1975 
Q 1069 1734 1069 1313 
Q 1069 891 1326 650 
Q 1584 409 2034 409 
Q 2484 409 2743 651 
Q 3003 894 3003 1313 
Q 3003 1734 2745 1975 
Q 2488 2216 2034 2216 
z
M 1403 2484 
Q 997 2584 770 2862 
Q 544 3141 544 3541 
Q 544 4100 942 4425 
Q 1341 4750 2034 4750 
Q 2731 4750 3128 4425 
Q 3525 4100 3525 3541 
Q 3525 3141 3298 2862 
Q 3072 2584 2669 2484 
Q 3125 2378 3379 2068 
Q 3634 1759 3634 1313 
Q 3634 634 3220 271 
Q 2806 -91 2034 -91 
Q 1263 -91 848 271 
Q 434 634 434 1313 
Q 434 1759 690 2068 
Q 947 2378 1403 2484 
z
M 1172 3481 
Q 1172 3119 1398 2916 
Q 1625 2713 2034 2713 
Q 2441 2713 2670 2916 
Q 2900 3119 2900 3481 
Q 2900 3844 2670 4047 
Q 2441 4250 2034 4250 
Q 1625 4250 1398 4047 
Q 1172 3844 1172 3481 
z
" transform="scale(0.015625)"/>
        <path id="DejaVuSans-2e" d="M 684 794 
L 1344 794 
L 1344 0 
L 684 0 
L 684 794 
z
" transform="scale(0.015625)"/>
        <path id="DejaVuSans-34" d="M 2419 4116 
L 825 1625 
L 2419 1625 
L 2419 4116 
z
M 2253 4666 
L 3047 4666 
L 3047 1625 
L 3713 1625 
L 3713 1100 
L 3047 1100 
L 3047 0 
L 2419 0 
L 2419 1100 
L 313 1100 
L 313 1709 
L 2253 4666 
z
" transform="scale(0.015625)"/>
       </defs>
       <use xlink:href="#DejaVuSans-2212"/>
       <use xlink:href="#DejaVuSans-36" transform="translate(83.789062 0)"/>
       <use xlink:href="#DejaVuSans-38" transform="translate(147.412109 0)"/>
       <use xlink:href="#DejaVuSans-2e" transform="translate(211.035156 0)"/>
       <use xlink:href="#DejaVuSans-34" transform="translate(242.822266 0)"/>
      </g>
     </g>
    </g>
    <g id="xtick_2">
     <g id="line2d_3">
      <path d="M 248.965467 617.177924 
L 248.965467 255.462076 
" clip-path="url(#pb548b2b447)" style="fill: none; stroke: #b0b0b0; stroke-width: 0.8; stroke-linecap: square"/>
     </g>
     <g id="line2d_4">
      <g>
       <use xlink:href="#m3af162ba5c" x="248.965467" y="617.177924" style="stroke: #000000; stroke-width: 0.8"/>
      </g>
     </g>
     <g id="text_2">
      <!-- −68.3 -->
      <g transform="translate(240.081886 651.220339) rotate(-45) scale(0.1 -0.1)">
       <defs>
        <path id="DejaVuSans-33" d="M 2597 2516 
Q 3050 2419 3304 2112 
Q 3559 1806 3559 1356 
Q 3559 666 3084 287 
Q 2609 -91 1734 -91 
Q 1441 -91 1130 -33 
Q 819 25 488 141 
L 488 750 
Q 750 597 1062 519 
Q 1375 441 1716 441 
Q 2309 441 2620 675 
Q 2931 909 2931 1356 
Q 2931 1769 2642 2001 
Q 2353 2234 1838 2234 
L 1294 2234 
L 1294 2753 
L 1863 2753 
Q 2328 2753 2575 2939 
Q 2822 3125 2822 3475 
Q 2822 3834 2567 4026 
Q 2313 4219 1838 4219 
Q 1578 4219 1281 4162 
Q 984 4106 628 3988 
L 628 4550 
Q 988 4650 1302 4700 
Q 1616 4750 1894 4750 
Q 2613 4750 3031 4423 
Q 3450 4097 3450 3541 
Q 3450 3153 3228 2886 
Q 3006 2619 2597 2516 
z
" transform="scale(0.015625)"/>
       </defs>
       <use xlink:href="#DejaVuSans-2212"/>
       <use xlink:href="#DejaVuSans-36" transform="translate(83.789062 0)"/>
       <use xlink:href="#DejaVuSans-38" transform="translate(147.412109 0)"/>
       <use xlink:href="#DejaVuSans-2e" transform="translate(211.035156 0)"/>
       <use xlink:href="#DejaVuSans-33" transform="translate(242.822266 0)"/>
      </g>
     </g>
    </g>
    <g id="xtick_3">
     <g id="line2d_5">
      <path d="M 334.287708 617.177924 
L 334.287708 255.462076 
" clip-path="url(#pb548b2b447)" style="fill: none; stroke: #b0b0b0; stroke-width: 0.8; stroke-linecap: square"/>
     </g>
     <g id="line2d_6">
      <g>
       <use xlink:href="#m3af162ba5c" x="334.287708" y="617.177924" style="stroke: #000000; stroke-width: 0.8"/>
      </g>
     </g>
     <g id="text_3">
      <!-- −68.2 -->
      <g transform="translate(325.404126 651.220339) rotate(-45) scale(0.1 -0.1)">
       <defs>
        <path id="DejaVuSans-32" d="M 1228 531 
L 3431 531 
L 3431 0 
L 469 0 
L 469 531 
Q 828 903 1448 1529 
Q 2069 2156 2228 2338 
Q 2531 2678 2651 2914 
Q 2772 3150 2772 3378 
Q 2772 3750 2511 3984 
Q 2250 4219 1831 4219 
Q 1534 4219 1204 4116 
Q 875 4013 500 3803 
L 500 4441 
Q 881 4594 1212 4672 
Q 1544 4750 1819 4750 
Q 2544 4750 2975 4387 
Q 3406 4025 3406 3419 
Q 3406 3131 3298 2873 
Q 3191 2616 2906 2266 
Q 2828 2175 2409 1742 
Q 1991 1309 1228 531 
z
" transform="scale(0.015625)"/>
       </defs>
       <use xlink:href="#DejaVuSans-2212"/>
       <use xlink:href="#DejaVuSans-36" transform="translate(83.789062 0)"/>
       <use xlink:href="#DejaVuSans-38" transform="translate(147.412109 0)"/>
       <use xlink:href="#DejaVuSans-2e" transform="translate(211.035156 0)"/>
       <use xlink:href="#DejaVuSans-32" transform="translate(242.822266 0)"/>
      </g>
     </g>
    </g>
    <g id="xtick_4">
     <g id="line2d_7">
      <path d="M 419.609948 617.177924 
L 419.609948 255.462076 
" clip-path="url(#pb548b2b447)" style="fill: none; stroke: #b0b0b0; stroke-width: 0.8; stroke-linecap: square"/>
     </g>
     <g id="line2d_8">
      <g>
       <use xlink:href="#m3af162ba5c" x="419.609948" y="617.177924" style="stroke: #000000; stroke-width: 0.8"/>
      </g>
     </g>
     <g id="text_4">
      <!-- −68.1 -->
      <g transform="translate(410.726367 651.220339) rotate(-45) scale(0.1 -0.1)">
       <defs>
        <path id="DejaVuSans-31" d="M 794 531 
L 1825 531 
L 1825 4091 
L 703 3866 
L 703 4441 
L 1819 4666 
L 2450 4666 
L 2450 531 
L 3481 531 
L 3481 0 
L 794 0 
L 794 531 
z
" transform="scale(0.015625)"/>
       </defs>
       <use xlink:href="#DejaVuSans-2212"/>
       <use xlink:href="#DejaVuSans-36" transform="translate(83.789062 0)"/>
       <use xlink:href="#DejaVuSans-38" transform="translate(147.412109 0)"/>
       <use xlink:href="#DejaVuSans-2e" transform="translate(211.035156 0)"/>
       <use xlink:href="#DejaVuSans-31" transform="translate(242.822266 0)"/>
      </g>
     </g>
    </g>
    <g id="xtick_5">
     <g id="line2d_9">
      <path d="M 504.932189 617.177924 
L 504.932189 255.462076 
" clip-path="url(#pb548b2b447)" style="fill: none; stroke: #b0b0b0; stroke-width: 0.8; stroke-linecap: square"/>
     </g>
     <g id="line2d_10">
      <g>
       <use xlink:href="#m3af162ba5c" x="504.932189" y="617.177924" style="stroke: #000000; stroke-width: 0.8"/>
      </g>
     </g>
     <g id="text_5">
      <!-- −68.0 -->
      <g transform="translate(496.048608 651.220339) rotate(-45) scale(0.1 -0.1)">
       <defs>
        <path id="DejaVuSans-30" d="M 2034 4250 
Q 1547 4250 1301 3770 
Q 1056 3291 1056 2328 
Q 1056 1369 1301 889 
Q 1547 409 2034 409 
Q 2525 409 2770 889 
Q 3016 1369 3016 2328 
Q 3016 3291 2770 3770 
Q 2525 4250 2034 4250 
z
M 2034 4750 
Q 2819 4750 3233 4129 
Q 3647 3509 3647 2328 
Q 3647 1150 3233 529 
Q 2819 -91 2034 -91 
Q 1250 -91 836 529 
Q 422 1150 422 2328 
Q 422 3509 836 4129 
Q 1250 4750 2034 4750 
z
" transform="scale(0.015625)"/>
       </defs>
       <use xlink:href="#DejaVuSans-2212"/>
       <use xlink:href="#DejaVuSans-36" transform="translate(83.789062 0)"/>
       <use xlink:href="#DejaVuSans-38" transform="translate(147.412109 0)"/>
       <use xlink:href="#DejaVuSans-2e" transform="translate(211.035156 0)"/>
       <use xlink:href="#DejaVuSans-30" transform="translate(242.822266 0)"/>
      </g>
     </g>
    </g>
    <g id="xtick_6">
     <g id="line2d_11">
      <path d="M 590.25443 617.177924 
L 590.25443 255.462076 
" clip-path="url(#pb548b2b447)" style="fill: none; stroke: #b0b0b0; stroke-width: 0.8; stroke-linecap: square"/>
     </g>
     <g id="line2d_12">
      <g>
       <use xlink:href="#m3af162ba5c" x="590.25443" y="617.177924" style="stroke: #000000; stroke-width: 0.8"/>
      </g>
     </g>
     <g id="text_6">
      <!-- −67.9 -->
      <g transform="translate(581.370848 651.220339) rotate(-45) scale(0.1 -0.1)">
       <defs>
        <path id="DejaVuSans-37" d="M 525 4666 
L 3525 4666 
L 3525 4397 
L 1831 0 
L 1172 0 
L 2766 4134 
L 525 4134 
L 525 4666 
z
" transform="scale(0.015625)"/>
        <path id="DejaVuSans-39" d="M 703 97 
L 703 672 
Q 941 559 1184 500 
Q 1428 441 1663 441 
Q 2288 441 2617 861 
Q 2947 1281 2994 2138 
Q 2813 1869 2534 1725 
Q 2256 1581 1919 1581 
Q 1219 1581 811 2004 
Q 403 2428 403 3163 
Q 403 3881 828 4315 
Q 1253 4750 1959 4750 
Q 2769 4750 3195 4129 
Q 3622 3509 3622 2328 
Q 3622 1225 3098 567 
Q 2575 -91 1691 -91 
Q 1453 -91 1209 -44 
Q 966 3 703 97 
z
M 1959 2075 
Q 2384 2075 2632 2365 
Q 2881 2656 2881 3163 
Q 2881 3666 2632 3958 
Q 2384 4250 1959 4250 
Q 1534 4250 1286 3958 
Q 1038 3666 1038 3163 
Q 1038 2656 1286 2365 
Q 1534 2075 1959 2075 
z
" transform="scale(0.015625)"/>
       </defs>
       <use xlink:href="#DejaVuSans-2212"/>
       <use xlink:href="#DejaVuSans-36" transform="translate(83.789062 0)"/>
       <use xlink:href="#DejaVuSans-37" transform="translate(147.412109 0)"/>
       <use xlink:href="#DejaVuSans-2e" transform="translate(211.035156 0)"/>
       <use xlink:href="#DejaVuSans-39" transform="translate(242.822266 0)"/>
      </g>
     </g>
    </g>
    <g id="text_7">
     <!-- Longitude (°) -->
     <g transform="translate(336.139844 664.289338) scale(0.1 -0.1)">
      <defs>
       <path id="DejaVuSans-4c" d="M 628 4666 
L 1259 4666 
L 1259 531 
L 3531 531 
L 3531 0 
L 628 0 
L 628 4666 
z
" transform="scale(0.015625)"/>
       <path id="DejaVuSans-6f" d="M 1959 3097 
Q 1497 3097 1228 2736 
Q 959 2375 959 1747 
Q 959 1119 1226 758 
Q 1494 397 1959 397 
Q 2419 397 2687 759 
Q 2956 1122 2956 1747 
Q 2956 2369 2687 2733 
Q 2419 3097 1959 3097 
z
M 1959 3584 
Q 2709 3584 3137 3096 
Q 3566 2609 3566 1747 
Q 3566 888 3137 398 
Q 2709 -91 1959 -91 
Q 1206 -91 779 398 
Q 353 888 353 1747 
Q 353 2609 779 3096 
Q 1206 3584 1959 3584 
z
" transform="scale(0.015625)"/>
       <path id="DejaVuSans-6e" d="M 3513 2113 
L 3513 0 
L 2938 0 
L 2938 2094 
Q 2938 2591 2744 2837 
Q 2550 3084 2163 3084 
Q 1697 3084 1428 2787 
Q 1159 2491 1159 1978 
L 1159 0 
L 581 0 
L 581 3500 
L 1159 3500 
L 1159 2956 
Q 1366 3272 1645 3428 
Q 1925 3584 2291 3584 
Q 2894 3584 3203 3211 
Q 3513 2838 3513 2113 
z
" transform="scale(0.015625)"/>
       <path id="DejaVuSans-67" d="M 2906 1791 
Q 2906 2416 2648 2759 
Q 2391 3103 1925 3103 
Q 1463 3103 1205 2759 
Q 947 2416 947 1791 
Q 947 1169 1205 825 
Q 1463 481 1925 481 
Q 2391 481 2648 825 
Q 2906 1169 2906 1791 
z
M 3481 434 
Q 3481 -459 3084 -895 
Q 2688 -1331 1869 -1331 
Q 1566 -1331 1297 -1286 
Q 1028 -1241 775 -1147 
L 775 -588 
Q 1028 -725 1275 -790 
Q 1522 -856 1778 -856 
Q 2344 -856 2625 -561 
Q 2906 -266 2906 331 
L 2906 616 
Q 2728 306 2450 153 
Q 2172 0 1784 0 
Q 1141 0 747 490 
Q 353 981 353 1791 
Q 353 2603 747 3093 
Q 1141 3584 1784 3584 
Q 2172 3584 2450 3431 
Q 2728 3278 2906 2969 
L 2906 3500 
L 3481 3500 
L 3481 434 
z
" transform="scale(0.015625)"/>
       <path id="DejaVuSans-69" d="M 603 3500 
L 1178 3500 
L 1178 0 
L 603 0 
L 603 3500 
z
M 603 4863 
L 1178 4863 
L 1178 4134 
L 603 4134 
L 603 4863 
z
" transform="scale(0.015625)"/>
       <path id="DejaVuSans-74" d="M 1172 4494 
L 1172 3500 
L 2356 3500 
L 2356 3053 
L 1172 3053 
L 1172 1153 
Q 1172 725 1289 603 
Q 1406 481 1766 481 
L 2356 481 
L 2356 0 
L 1766 0 
Q 1100 0 847 248 
Q 594 497 594 1153 
L 594 3053 
L 172 3053 
L 172 3500 
L 594 3500 
L 594 4494 
L 1172 4494 
z
" transform="scale(0.015625)"/>
       <path id="DejaVuSans-75" d="M 544 1381 
L 544 3500 
L 1119 3500 
L 1119 1403 
Q 1119 906 1312 657 
Q 1506 409 1894 409 
Q 2359 409 2629 706 
Q 2900 1003 2900 1516 
L 2900 3500 
L 3475 3500 
L 3475 0 
L 2900 0 
L 2900 538 
Q 2691 219 2414 64 
Q 2138 -91 1772 -91 
Q 1169 -91 856 284 
Q 544 659 544 1381 
z
M 1991 3584 
L 1991 3584 
z
" transform="scale(0.015625)"/>
       <path id="DejaVuSans-64" d="M 2906 2969 
L 2906 4863 
L 3481 4863 
L 3481 0 
L 2906 0 
L 2906 525 
Q 2725 213 2448 61 
Q 2172 -91 1784 -91 
Q 1150 -91 751 415 
Q 353 922 353 1747 
Q 353 2572 751 3078 
Q 1150 3584 1784 3584 
Q 2172 3584 2448 3432 
Q 2725 3281 2906 2969 
z
M 947 1747 
Q 947 1113 1208 752 
Q 1469 391 1925 391 
Q 2381 391 2643 752 
Q 2906 1113 2906 1747 
Q 2906 2381 2643 2742 
Q 2381 3103 1925 3103 
Q 1469 3103 1208 2742 
Q 947 2381 947 1747 
z
" transform="scale(0.015625)"/>
       <path id="DejaVuSans-65" d="M 3597 1894 
L 3597 1613 
L 953 1613 
Q 991 1019 1311 708 
Q 1631 397 2203 397 
Q 2534 397 2845 478 
Q 3156 559 3463 722 
L 3463 178 
Q 3153 47 2828 -22 
Q 2503 -91 2169 -91 
Q 1331 -91 842 396 
Q 353 884 353 1716 
Q 353 2575 817 3079 
Q 1281 3584 2069 3584 
Q 2775 3584 3186 3129 
Q 3597 2675 3597 1894 
z
M 3022 2063 
Q 3016 2534 2758 2815 
Q 2500 3097 2075 3097 
Q 1594 3097 1305 2825 
Q 1016 2553 972 2059 
L 3022 2063 
z
" transform="scale(0.015625)"/>
       <path id="DejaVuSans-20" transform="scale(0.015625)"/>
       <path id="DejaVuSans-28" d="M 1984 4856 
Q 1566 4138 1362 3434 
Q 1159 2731 1159 2009 
Q 1159 1288 1364 580 
Q 1569 -128 1984 -844 
L 1484 -844 
Q 1016 -109 783 600 
Q 550 1309 550 2009 
Q 550 2706 781 3412 
Q 1013 4119 1484 4856 
L 1984 4856 
z
" transform="scale(0.015625)"/>
       <path id="DejaVuSans-b0" d="M 1600 4347 
Q 1350 4347 1178 4173 
Q 1006 4000 1006 3750 
Q 1006 3503 1178 3333 
Q 1350 3163 1600 3163 
Q 1850 3163 2022 3333 
Q 2194 3503 2194 3750 
Q 2194 3997 2020 4172 
Q 1847 4347 1600 4347 
z
M 1600 4750 
Q 1800 4750 1984 4673 
Q 2169 4597 2303 4453 
Q 2447 4313 2519 4134 
Q 2591 3956 2591 3750 
Q 2591 3338 2302 3052 
Q 2013 2766 1594 2766 
Q 1172 2766 890 3047 
Q 609 3328 609 3750 
Q 609 4169 896 4459 
Q 1184 4750 1600 4750 
z
" transform="scale(0.015625)"/>
       <path id="DejaVuSans-29" d="M 513 4856 
L 1013 4856 
Q 1481 4119 1714 3412 
Q 1947 2706 1947 2009 
Q 1947 1309 1714 600 
Q 1481 -109 1013 -844 
L 513 -844 
Q 928 -128 1133 580 
Q 1338 1288 1338 2009 
Q 1338 2731 1133 3434 
Q 928 4138 513 4856 
z
" transform="scale(0.015625)"/>
      </defs>
      <use xlink:href="#DejaVuSans-4c"/>
      <use xlink:href="#DejaVuSans-6f" transform="translate(53.962891 0)"/>
      <use xlink:href="#DejaVuSans-6e" transform="translate(115.144531 0)"/>
      <use xlink:href="#DejaVuSans-67" transform="translate(178.523438 0)"/>
      <use xlink:href="#DejaVuSans-69" transform="translate(242 0)"/>
      <use xlink:href="#DejaVuSans-74" transform="translate(269.783203 0)"/>
      <use xlink:href="#DejaVuSans-75" transform="translate(308.992188 0)"/>
      <use xlink:href="#DejaVuSans-64" transform="translate(372.371094 0)"/>
      <use xlink:href="#DejaVuSans-65" transform="translate(435.847656 0)"/>
      <use xlink:href="#DejaVuSans-20" transform="translate(497.371094 0)"/>
      <use xlink:href="#DejaVuSans-28" transform="translate(529.158203 0)"/>
      <use xlink:href="#DejaVuSans-b0" transform="translate(568.171875 0)"/>
      <use xlink:href="#DejaVuSans-29" transform="translate(618.171875 0)"/>
     </g>
    </g>
   </g>
   <g id="matplotlib.axis_2">
    <g id="ytick_1">
     <g id="line2d_13">
      <path d="M 90 603.58706 
L 648 603.58706 
" clip-path="url(#pb548b2b447)" style="fill: none; stroke: #b0b0b0; stroke-width: 0.8; stroke-linecap: square"/>
     </g>
     <g id="line2d_14">
      <defs>
       <path id="mf2b810a4bc" d="M 0 0 
L -3.5 0 
" style="stroke: #000000; stroke-width: 0.8"/>
      </defs>
      <g>
       <use xlink:href="#mf2b810a4bc" x="90" y="603.58706" style="stroke: #000000; stroke-width: 0.8"/>
      </g>
     </g>
     <g id="text_8">
      <!-- −9.30 -->
      <g transform="translate(52.354687 607.386279) scale(0.1 -0.1)">
       <use xlink:href="#DejaVuSans-2212"/>
       <use xlink:href="#DejaVuSans-39" transform="translate(83.789062 0)"/>
       <use xlink:href="#DejaVuSans-2e" transform="translate(147.412109 0)"/>
       <use xlink:href="#DejaVuSans-33" transform="translate(179.199219 0)"/>
       <use xlink:href="#DejaVuSans-30" transform="translate(242.822266 0)"/>
      </g>
     </g>
    </g>
    <g id="ytick_2">
     <g id="line2d_15">
      <path d="M 90 560.375446 
L 648 560.375446 
" clip-path="url(#pb548b2b447)" style="fill: none; stroke: #b0b0b0; stroke-width: 0.8; stroke-linecap: square"/>
     </g>
     <g id="line2d_16">
      <g>
       <use xlink:href="#mf2b810a4bc" x="90" y="560.375446" style="stroke: #000000; stroke-width: 0.8"/>
      </g>
     </g>
     <g id="text_9">
      <!-- −9.25 -->
      <g transform="translate(52.354687 564.174665) scale(0.1 -0.1)">
       <defs>
        <path id="DejaVuSans-35" d="M 691 4666 
L 3169 4666 
L 3169 4134 
L 1269 4134 
L 1269 2991 
Q 1406 3038 1543 3061 
Q 1681 3084 1819 3084 
Q 2600 3084 3056 2656 
Q 3513 2228 3513 1497 
Q 3513 744 3044 326 
Q 2575 -91 1722 -91 
Q 1428 -91 1123 -41 
Q 819 9 494 109 
L 494 744 
Q 775 591 1075 516 
Q 1375 441 1709 441 
Q 2250 441 2565 725 
Q 2881 1009 2881 1497 
Q 2881 1984 2565 2268 
Q 2250 2553 1709 2553 
Q 1456 2553 1204 2497 
Q 953 2441 691 2322 
L 691 4666 
z
" transform="scale(0.015625)"/>
       </defs>
       <use xlink:href="#DejaVuSans-2212"/>
       <use xlink:href="#DejaVuSans-39" transform="translate(83.789062 0)"/>
       <use xlink:href="#DejaVuSans-2e" transform="translate(147.412109 0)"/>
       <use xlink:href="#DejaVuSans-32" transform="translate(179.199219 0)"/>
       <use xlink:href="#DejaVuSans-35" transform="translate(242.822266 0)"/>
      </g>
     </g>
    </g>
    <g id="ytick_3">
     <g id="line2d_17">
      <path d="M 90 517.163831 
L 648 517.163831 
" clip-path="url(#pb548b2b447)" style="fill: none; stroke: #b0b0b0; stroke-width: 0.8; stroke-linecap: square"/>
     </g>
     <g id="line2d_18">
      <g>
       <use xlink:href="#mf2b810a4bc" x="90" y="517.163831" style="stroke: #000000; stroke-width: 0.8"/>
      </g>
     </g>
     <g id="text_10">
      <!-- −9.20 -->
      <g transform="translate(52.354687 520.96305) scale(0.1 -0.1)">
       <use xlink:href="#DejaVuSans-2212"/>
       <use xlink:href="#DejaVuSans-39" transform="translate(83.789062 0)"/>
       <use xlink:href="#DejaVuSans-2e" transform="translate(147.412109 0)"/>
       <use xlink:href="#DejaVuSans-32" transform="translate(179.199219 0)"/>
       <use xlink:href="#DejaVuSans-30" transform="translate(242.822266 0)"/>
      </g>
     </g>
    </g>
    <g id="ytick_4">
     <g id="line2d_19">
      <path d="M 90 473.952217 
L 648 473.952217 
" clip-path="url(#pb548b2b447)" style="fill: none; stroke: #b0b0b0; stroke-width: 0.8; stroke-linecap: square"/>
     </g>
     <g id="line2d_20">
      <g>
       <use xlink:href="#mf2b810a4bc" x="90" y="473.952217" style="stroke: #000000; stroke-width: 0.8"/>
      </g>
     </g>
     <g id="text_11">
      <!-- −9.15 -->
      <g transform="translate(52.354687 477.751436) scale(0.1 -0.1)">
       <use xlink:href="#DejaVuSans-2212"/>
       <use xlink:href="#DejaVuSans-39" transform="translate(83.789062 0)"/>
       <use xlink:href="#DejaVuSans-2e" transform="translate(147.412109 0)"/>
       <use xlink:href="#DejaVuSans-31" transform="translate(179.199219 0)"/>
       <use xlink:href="#DejaVuSans-35" transform="translate(242.822266 0)"/>
      </g>
     </g>
    </g>
    <g id="ytick_5">
     <g id="line2d_21">
      <path d="M 90 430.740603 
L 648 430.740603 
" clip-path="url(#pb548b2b447)" style="fill: none; stroke: #b0b0b0; stroke-width: 0.8; stroke-linecap: square"/>
     </g>
     <g id="line2d_22">
      <g>
       <use xlink:href="#mf2b810a4bc" x="90" y="430.740603" style="stroke: #000000; stroke-width: 0.8"/>
      </g>
     </g>
     <g id="text_12">
      <!-- −9.10 -->
      <g transform="translate(52.354687 434.539821) scale(0.1 -0.1)">
       <use xlink:href="#DejaVuSans-2212"/>
       <use xlink:href="#DejaVuSans-39" transform="translate(83.789062 0)"/>
       <use xlink:href="#DejaVuSans-2e" transform="translate(147.412109 0)"/>
       <use xlink:href="#DejaVuSans-31" transform="translate(179.199219 0)"/>
       <use xlink:href="#DejaVuSans-30" transform="translate(242.822266 0)"/>
      </g>
     </g>
    </g>
    <g id="ytick_6">
     <g id="line2d_23">
      <path d="M 90 387.528988 
L 648 387.528988 
" clip-path="url(#pb548b2b447)" style="fill: none; stroke: #b0b0b0; stroke-width: 0.8; stroke-linecap: square"/>
     </g>
     <g id="line2d_24">
      <g>
       <use xlink:href="#mf2b810a4bc" x="90" y="387.528988" style="stroke: #000000; stroke-width: 0.8"/>
      </g>
     </g>
     <g id="text_13">
      <!-- −9.05 -->
      <g transform="translate(52.354687 391.328207) scale(0.1 -0.1)">
       <use xlink:href="#DejaVuSans-2212"/>
       <use xlink:href="#DejaVuSans-39" transform="translate(83.789062 0)"/>
       <use xlink:href="#DejaVuSans-2e" transform="translate(147.412109 0)"/>
       <use xlink:href="#DejaVuSans-30" transform="translate(179.199219 0)"/>
       <use xlink:href="#DejaVuSans-35" transform="translate(242.822266 0)"/>
      </g>
     </g>
    </g>
    <g id="ytick_7">
     <g id="line2d_25">
      <path d="M 90 344.317374 
L 648 344.317374 
" clip-path="url(#pb548b2b447)" style="fill: none; stroke: #b0b0b0; stroke-width: 0.8; stroke-linecap: square"/>
     </g>
     <g id="line2d_26">
      <g>
       <use xlink:href="#mf2b810a4bc" x="90" y="344.317374" style="stroke: #000000; stroke-width: 0.8"/>
      </g>
     </g>
     <g id="text_14">
      <!-- −9.00 -->
      <g transform="translate(52.354687 348.116592) scale(0.1 -0.1)">
       <use xlink:href="#DejaVuSans-2212"/>
       <use xlink:href="#DejaVuSans-39" transform="translate(83.789062 0)"/>
       <use xlink:href="#DejaVuSans-2e" transform="translate(147.412109 0)"/>
       <use xlink:href="#DejaVuSans-30" transform="translate(179.199219 0)"/>
       <use xlink:href="#DejaVuSans-30" transform="translate(242.822266 0)"/>
      </g>
     </g>
    </g>
    <g id="ytick_8">
     <g id="line2d_27">
      <path d="M 90 301.105759 
L 648 301.105759 
" clip-path="url(#pb548b2b447)" style="fill: none; stroke: #b0b0b0; stroke-width: 0.8; stroke-linecap: square"/>
     </g>
     <g id="line2d_28">
      <g>
       <use xlink:href="#mf2b810a4bc" x="90" y="301.105759" style="stroke: #000000; stroke-width: 0.8"/>
      </g>
     </g>
     <g id="text_15">
      <!-- −8.95 -->
      <g transform="translate(52.354687 304.904978) scale(0.1 -0.1)">
       <use xlink:href="#DejaVuSans-2212"/>
       <use xlink:href="#DejaVuSans-38" transform="translate(83.789062 0)"/>
       <use xlink:href="#DejaVuSans-2e" transform="translate(147.412109 0)"/>
       <use xlink:href="#DejaVuSans-39" transform="translate(179.199219 0)"/>
       <use xlink:href="#DejaVuSans-35" transform="translate(242.822266 0)"/>
      </g>
     </g>
    </g>
    <g id="ytick_9">
     <g id="line2d_29">
      <path d="M 90 257.894145 
L 648 257.894145 
" clip-path="url(#pb548b2b447)" style="fill: none; stroke: #b0b0b0; stroke-width: 0.8; stroke-linecap: square"/>
     </g>
     <g id="line2d_30">
      <g>
       <use xlink:href="#mf2b810a4bc" x="90" y="257.894145" style="stroke: #000000; stroke-width: 0.8"/>
      </g>
     </g>
     <g id="text_16">
      <!-- −8.90 -->
      <g transform="translate(52.354687 261.693364) scale(0.1 -0.1)">
       <use xlink:href="#DejaVuSans-2212"/>
       <use xlink:href="#DejaVuSans-38" transform="translate(83.789062 0)"/>
       <use xlink:href="#DejaVuSans-2e" transform="translate(147.412109 0)"/>
       <use xlink:href="#DejaVuSans-39" transform="translate(179.199219 0)"/>
       <use xlink:href="#DejaVuSans-30" transform="translate(242.822266 0)"/>
      </g>
     </g>
    </g>
    <g id="text_17">
     <!-- Latitude (°) -->
     <g transform="translate(46.275 464.889531) rotate(-90) scale(0.1 -0.1)">
      <defs>
       <path id="DejaVuSans-61" d="M 2194 1759 
Q 1497 1759 1228 1600 
Q 959 1441 959 1056 
Q 959 750 1161 570 
Q 1363 391 1709 391 
Q 2188 391 2477 730 
Q 2766 1069 2766 1631 
L 2766 1759 
L 2194 1759 
z
M 3341 1997 
L 3341 0 
L 2766 0 
L 2766 531 
Q 2569 213 2275 61 
Q 1981 -91 1556 -91 
Q 1019 -91 701 211 
Q 384 513 384 1019 
Q 384 1609 779 1909 
Q 1175 2209 1959 2209 
L 2766 2209 
L 2766 2266 
Q 2766 2663 2505 2880 
Q 2244 3097 1772 3097 
Q 1472 3097 1187 3025 
Q 903 2953 641 2809 
L 641 3341 
Q 956 3463 1253 3523 
Q 1550 3584 1831 3584 
Q 2591 3584 2966 3190 
Q 3341 2797 3341 1997 
z
" transform="scale(0.015625)"/>
      </defs>
      <use xlink:href="#DejaVuSans-4c"/>
      <use xlink:href="#DejaVuSans-61" transform="translate(55.712891 0)"/>
      <use xlink:href="#DejaVuSans-74" transform="translate(116.992188 0)"/>
      <use xlink:href="#DejaVuSans-69" transform="translate(156.201172 0)"/>
      <use xlink:href="#DejaVuSans-74" transform="translate(183.984375 0)"/>
      <use xlink:href="#DejaVuSans-75" transform="translate(223.193359 0)"/>
      <use xlink:href="#DejaVuSans-64" transform="translate(286.572266 0)"/>
      <use xlink:href="#DejaVuSans-65" transform="translate(350.048828 0)"/>
      <use xlink:href="#DejaVuSans-20" transform="translate(411.572266 0)"/>
      <use xlink:href="#DejaVuSans-28" transform="translate(443.359375 0)"/>
      <use xlink:href="#DejaVuSans-b0" transform="translate(482.373047 0)"/>
      <use xlink:href="#DejaVuSans-29" transform="translate(532.373047 0)"/>
     </g>
    </g>
   </g>
   <g id="patch_3">
    <path d="M 90 617.177924 
L 90 255.462076 
" style="fill: none; stroke: #000000; stroke-width: 0.8; stroke-linejoin: miter; stroke-linecap: square"/>
   </g>
   <g id="patch_4">
    <path d="M 648 617.177924 
L 648 255.462076 
" style="fill: none; stroke: #000000; stroke-width: 0.8; stroke-linejoin: miter; stroke-linecap: square"/>
   </g>
   <g id="patch_5">
    <path d="M 90 617.177924 
L 648 617.177924 
" style="fill: none; stroke: #000000; stroke-width: 0.8; stroke-linejoin: miter; stroke-linecap: square"/>
   </g>
   <g id="patch_6">
    <path d="M 90 255.462076 
L 648 255.462076 
" style="fill: none; stroke: #000000; stroke-width: 0.8; stroke-linejoin: miter; stroke-linecap: square"/>
   </g>
  </g>
 </g>
 <defs>
  <clipPath id="pb548b2b447">
   <rect x="90" y="255.462076" width="558" height="361.715849"/>
  </clipPath>
 </defs>
</svg>
