<?xml version="1.0" encoding="utf-8" standalone="no"?>
<!DOCTYPE svg PUBLIC "-//W3C//DTD SVG 1.1//EN"
  "http://www.w3.org/Graphics/SVG/1.1/DTD/svg11.dtd">
<svg xmlns:xlink="http://www.w3.org/1999/xlink" width="720pt" height="864pt" viewBox="0 0 720 864" xmlns="http://www.w3.org/2000/svg" version="1.1">
 <metadata>
  <rdf:RDF xmlns:dc="http://purl.org/dc/elements/1.1/" xmlns:cc="http://creativecommons.org/ns#" xmlns:rdf="http://www.w3.org/1999/02/22-rdf-syntax-ns#">
   <cc:Work>
    <dc:type rdf:resource="http://purl.org/dc/dcmitype/StillImage"/>
    <dc:date>2025-06-16T17:20:21.272069</dc:date>
    <dc:format>image/svg+xml</dc:format>
    <dc:creator>
     <cc:Agent>
      <dc:title>Matplotlib v3.10.1, https://matplotlib.org/</dc:title>
     </cc:Agent>
    </dc:creator>
   </cc:Work>
  </rdf:RDF>
 </metadata>
 <defs>
  <style type="text/css">*{stroke-linejoin: round; stroke-linecap: butt}</style>
 </defs>
 <g id="figure_1">
  <g id="patch_1">
   <path d="M 0 864 
L 720 864 
L 720 0 
L 0 0 
z
" style="fill: #ffffff"/>
  </g>
  <g id="axes_1">
   <g id="patch_2">
    <path d="M 115.21918 768.96 
L 622.78082 768.96 
L 622.78082 103.68 
L 115.21918 103.68 
z
" style="fill: #ffffff"/>
   </g>
   <g id="PatchCollection_1">
    <path d="M 211.792467 313.00214 
L 239.510487 317.071381 
L 222.573774 367.886462 
L 200.295028 361.890569 
L 184.056906 357.287303 
L 184.625384 357.07494 
L 186.038272 356.337932 
L 187.325035 354.728437 
L 188.069618 353.144201 
L 188.322749 351.013799 
L 188.360851 349.81054 
L 188.316425 348.758085 
L 188.208879 346.600208 
L 188.039766 345.893978 
L 186.931258 342.983654 
L 186.519187 341.038568 
L 186.29348 339.573633 
L 185.982942 338.294316 
L 185.843178 336.403872 
L 185.404646 335.077883 
L 185.137604 333.888005 
L 185.121133 332.77104 
L 185.529195 331.656876 
L 186.448405 329.220502 
L 187.060355 327.78762 
L 188.694564 325.011335 
L 190.077629 323.912403 
L 191.823215 321.757941 
L 195.102946 319.220462 
L 201.640307 316.056324 
L 208.61678 314.09 
L 211.792467 313.00214 
" clip-path="url(#p9cf6c74167)" style="fill: #e0bd1f; stroke: #0000ff; stroke-width: 0.5"/>
    <path d="M 331.775554 133.92 
L 434.132059 141.429203 
L 434.079998 141.569781 
L 434.005912 142.164308 
L 433.935941 142.464455 
L 433.788792 142.529764 
L 433.660564 142.642119 
L 433.59865 142.985622 
L 433.466095 143.069439 
L 433.392793 143.377827 
L 433.443177 143.521131 
L 433.710255 143.504452 
L 433.830383 143.540124 
L 433.923995 143.783651 
L 434.279556 143.980764 
L 434.259115 144.248158 
L 434.28524 144.393574 
L 434.256779 144.784751 
L 434.194152 145.032391 
L 433.941982 145.38267 
L 433.856476 145.685149 
L 433.9508 145.952326 
L 434.01422 146.078995 
L 434.021236 146.231213 
L 434.286845 146.342842 
L 434.480432 146.577592 
L 434.568603 146.696233 
L 434.678886 146.773744 
L 434.792262 146.828405 
L 435.028839 147.009232 
L 435.228374 147.196126 
L 435.375257 147.250162 
L 435.485263 147.338613 
L 435.644314 147.594689 
L 435.782939 147.637093 
L 435.913957 147.711969 
L 436.124944 147.932602 
L 436.224978 148.031466 
L 436.18134 148.325508 
L 436.122462 148.440812 
L 436.024553 148.542643 
L 435.9812 148.65318 
L 436.009234 148.770221 
L 436.114311 148.845947 
L 436.234199 148.889289 
L 436.463078 149.101579 
L 436.592952 149.156754 
L 436.725395 149.169202 
L 436.846132 149.17153 
L 436.877669 149.041726 
L 436.896501 148.906554 
L 437.022668 148.660567 
L 437.144163 148.552782 
L 437.266601 148.526788 
L 437.423776 148.534443 
L 437.574896 148.532717 
L 437.67987 148.642671 
L 438.026898 148.940955 
L 438.275416 149.17178 
L 438.641291 149.46262 
L 439.142897 149.857827 
L 439.415689 149.983543 
L 439.555149 149.996828 
L 439.842402 150.108093 
L 441.364791 151.776902 
L 440.990823 154.380754 
L 440.767204 158.648716 
L 443.324791 163.125534 
L 443.194953 167.49821 
L 443.615438 169.216281 
L 444.449471 172.441209 
L 448.690698 174.533644 
L 449.430812 176.965607 
L 447.848401 181.245697 
L 448.237419 186.099798 
L 447.955673 190.248 
L 449.096765 193.706867 
L 451.02838 195.571819 
L 454.112168 198.778398 
L 454.703571 200.468332 
L 457.397261 202.315595 
L 461.578123 203.351053 
L 463.735721 207.144591 
L 463.258878 209.731255 
L 462.974952 213.003197 
L 462.925636 215.43693 
L 462.559135 217.532241 
L 462.301174 220.004588 
L 465.603748 225.358086 
L 466.214338 227.738352 
L 465.327346 230.55302 
L 465.52365 232.436778 
L 465.254661 239.838367 
L 463.93111 245.151788 
L 458.824738 252.454788 
L 458.496994 256.887608 
L 456.778973 260.875748 
L 457.659694 265.224098 
L 457.71045 267.283591 
L 458.667074 269.476525 
L 457.799283 272.47685 
L 430.353685 266.632765 
L 429.198831 264.11962 
L 428.426481 259.629039 
L 408.032746 243.967988 
L 393.967988 265.717374 
L 395.557544 268.602118 
L 396.669962 275.170866 
L 405.134995 280.47025 
L 411.533489 280.612414 
L 420.193959 286.238183 
L 403.935502 320.921527 
L 416.856883 341.428247 
L 435.915115 338.171505 
L 461.738042 333.76861 
L 474.021495 360.799732 
L 479.847481 362.335723 
L 488.611241 364.733785 
L 493.283027 365.937986 
L 521.611006 373.678567 
L 527.934681 375.315841 
L 547.775139 380.586167 
L 562.719425 358.504446 
L 599.709837 376.38241 
L 598.035772 378.060751 
L 596.600181 379.220349 
L 595.5693 379.756299 
L 594.34857 380.025061 
L 592.07075 379.928295 
L 587.832912 379.594619 
L 581.48518 379.483915 
L 579.245442 379.509387 
L 577.352942 380.056283 
L 576.060016 380.927334 
L 575.240401 381.856727 
L 574.599567 383.042723 
L 573.961525 386.125794 
L 573.896515 386.642967 
L 573.507028 389.360558 
L 573.583769 391.538036 
L 574.214977 393.419702 
L 575.309967 395.008135 
L 577.361794 396.835057 
L 580.055845 399.097776 
L 582.250645 400.870149 
L 582.306653 401.038796 
L 583.237784 402.239893 
L 583.886246 403.755439 
L 584.115752 405.360488 
L 584.109552 407.991776 
L 584.089136 412.766006 
L 584.104623 414.987117 
L 584.272126 416.440451 
L 584.593689 417.827741 
L 585.430368 419.904217 
L 586.433406 421.749297 
L 588.158335 424.867427 
L 589.211169 426.736255 
L 594.851618 436.991518 
L 595.387382 438.217059 
L 595.370994 439.394912 
L 594.829267 440.488926 
L 584.448378 452.847396 
L 582.36163 455.409597 
L 581.629928 456.70089 
L 581.200245 458.020852 
L 580.985924 460.056207 
L 580.963982 469.131751 
L 580.942199 470.330225 
L 580.889411 478.645224 
L 580.83003 488.82081 
L 580.769398 498.043166 
L 580.747643 500.376578 
L 580.497647 502.040683 
L 580.045601 503.236254 
L 579.691717 503.956784 
L 570.76585 516.658243 
L 569.79314 517.864272 
L 568.485796 519.677358 
L 564.918784 524.736338 
L 562.503583 528.148073 
L 560.660817 530.746186 
L 559.400957 532.666786 
L 558.973055 533.584232 
L 558.541331 535.046638 
L 558.39879 536.006961 
L 558.334381 538.188349 
L 558.311262 544.472199 
L 558.295306 550.203766 
L 558.452698 551.547347 
L 558.817608 552.782741 
L 559.646924 554.639505 
L 560.799143 557.133499 
L 563.46099 562.895994 
L 563.898947 563.873143 
L 569.623294 576.436752 
L 571.217417 579.942964 
L 572.065348 581.638129 
L 574.207686 586.988783 
L 574.286875 587.33013 
L 575.572945 604.10206 
L 575.724306 606.378507 
L 576.068033 611.241579 
L 576.300413 616.431166 
L 576.259706 621.04082 
L 576.215303 625.191868 
L 576.196637 625.661212 
L 576.149887 629.255159 
L 576.180274 630.9681 
L 576.302743 632.134794 
L 576.521175 633.190855 
L 576.634047 633.729354 
L 576.744137 634.074372 
L 577.276925 636.281616 
L 578.015972 639.14065 
L 579.270331 643.969548 
L 580.706733 649.501202 
L 582.089422 655.067636 
L 582.886804 658.219772 
L 582.972236 658.736788 
L 583.616724 661.409738 
L 584.059247 663.191663 
L 584.158527 663.929668 
L 584.087765 665.058068 
L 583.786926 666.025963 
L 582.989667 667.266939 
L 582.109983 668.314692 
L 580.726137 669.90038 
L 576.590357 674.677788 
L 570.511402 681.742467 
L 567.669426 685.021569 
L 564.546327 688.697484 
L 563.416877 690.038721 
L 562.748447 691.124297 
L 562.268907 692.011145 
L 561.828714 693.42778 
L 561.008085 696.363223 
L 560.000785 700.104079 
L 558.643316 705.132897 
L 556.242408 713.948785 
L 553.940928 722.234649 
L 551.865535 729.887723 
L 550.503979 734.844388 
L 549.669218 737.849744 
L 549.428222 738.72 
L 516.193416 727.101843 
L 499.147775 719.704722 
L 408.578539 684.330973 
L 400.568142 680.071646 
L 345.899667 614.702506 
L 334.610819 608.819247 
L 310.465611 603.720837 
L 313.770825 578.007539 
L 330.986909 487.309535 
L 305.129839 487.398233 
L 207.235173 487.785245 
L 181.233858 488.176847 
L 176.532868 488.24753 
L 176.725464 488.155715 
L 177.345916 487.870048 
L 178.243326 487.569861 
L 179.11661 487.35135 
L 179.913845 487.136716 
L 180.478694 486.875377 
L 181.428519 486.101694 
L 182.153651 485.063688 
L 182.279145 483.490572 
L 182.113289 482.102578 
L 182.155443 481.289515 
L 182.670207 479.740404 
L 183.377454 477.281691 
L 184.017454 474.973753 
L 184.563609 473.083637 
L 185.078197 470.820194 
L 185.177206 469.614429 
L 185.286808 468.472746 
L 185.302867 465.720284 
L 185.137896 463.139386 
L 185.004325 460.500121 
L 183.728862 453.285479 
L 183.307561 450.867616 
L 183.252054 449.333999 
L 183.224093 444.474139 
L 182.627956 441.630118 
L 180.846091 437.163433 
L 178.474363 433.050083 
L 175.889032 430.031211 
L 174.435219 428.173611 
L 173.950957 426.264891 
L 173.73213 423.774255 
L 173.945494 422.069945 
L 174.032651 420.142347 
L 174.263116 418.668248 
L 174.2193 417.254448 
L 174.224615 415.242219 
L 174.203759 413.496738 
L 174.638339 411.998663 
L 174.711792 411.247244 
L 174.430964 410.412018 
L 173.577625 409.008533 
L 171.898622 407.541231 
L 170.398109 406.832522 
L 168.380901 406.360451 
L 166.520363 406.389128 
L 164.804765 407.027087 
L 163.32219 408.000792 
L 162.239286 409.057557 
L 161.535247 410.127467 
L 161.295644 410.844655 
L 161.154681 411.266607 
L 161.069186 412.509279 
L 161.258425 414.554911 
L 162.150453 417.080645 
L 163.636511 420.180778 
L 164.286129 421.99634 
L 164.340675 423.193588 
L 164.213564 424.131884 
L 163.913346 424.692204 
L 161.228352 425.791146 
L 159.690341 426.367567 
L 158.795726 426.438187 
L 157.692457 426.179958 
L 156.591897 425.421072 
L 155.702371 424.294007 
L 155.099047 423.771156 
L 153.128559 418.278689 
L 152.0507 415.097626 
L 151.721567 414.272611 
L 151.050894 413.471368 
L 149.224163 412.386569 
L 146.425231 411.661562 
L 145.121793 411.373096 
L 142.678782 410.553102 
L 141.517463 409.9622 
L 140.458418 409.379209 
L 139.064241 407.730809 
L 138.290163 405.916259 
L 138.319578 404.980378 
L 139.895185 402.609617 
L 141.232529 400.965478 
L 142.7633 398.020406 
L 145.252151 394.98518 
L 146.513249 393.910864 
L 147.787389 393.103633 
L 148.487399 392.885986 
L 148.873162 392.744868 
L 150.152068 392.682146 
L 152.974617 392.829543 
L 156.884961 393.173645 
L 160.041235 393.290488 
L 161.711988 393.215528 
L 163.278094 392.741596 
L 164.651415 392.044289 
L 166.019189 390.808059 
L 166.833328 389.621716 
L 167.239726 388.710523 
L 167.580325 387.564231 
L 168.283083 385.123764 
L 168.699873 382.33586 
L 169.212608 380.087932 
L 169.467057 378.324935 
L 169.714236 375.206749 
L 169.894782 372.718167 
L 170.031864 371.43835 
L 170.299497 370.141294 
L 171.184099 367.301154 
L 172.411828 364.133562 
L 174.178938 361.660772 
L 175.703354 360.090505 
L 178.829711 359.27961 
L 181.602784 358.204107 
L 184.056906 357.287303 
L 200.295028 361.890569 
L 222.573774 367.886462 
L 239.510487 317.071381 
L 211.792467 313.00214 
L 212.971957 312.598084 
L 215.059551 311.35032 
L 216.387117 310.156254 
L 217.669811 308.725559 
L 219.46651 306.497492 
L 220.473784 304.284315 
L 220.958208 302.826072 
L 221.502072 301.569903 
L 225.430695 292.587767 
L 226.569054 290.808179 
L 228.877511 288.446886 
L 231.662328 286.113844 
L 234.738595 283.46953 
L 236.007543 281.88771 
L 237.176157 279.817813 
L 238.941107 275.328864 
L 239.684661 272.2824 
L 239.563819 270.212617 
L 239.670108 268.214423 
L 238.79636 265.36914 
L 238.604198 262.868567 
L 237.530975 260.291236 
L 236.459307 258.471269 
L 235.428103 257.067928 
L 233.550319 255.363859 
L 231.034354 254.126306 
L 227.678634 252.912845 
L 224.464417 252.282842 
L 223.072245 251.938951 
L 222.114815 251.476258 
L 222.001918 251.333151 
L 221.703399 250.193326 
L 221.630156 248.301444 
L 221.584605 247.293319 
L 221.569248 246.340267 
L 222.129964 244.365196 
L 222.764108 243.130399 
L 223.716495 241.8921 
L 224.817681 240.741685 
L 226.064886 239.307948 
L 226.560818 239.00876 
L 228.352234 238.272081 
L 231.082443 237.633746 
L 232.829664 237.491096 
L 233.969193 237.281617 
L 234.565788 237.065924 
L 235.218124 236.759405 
L 235.709592 236.552882 
L 237.196998 236.11649 
L 239.230499 235.020245 
L 240.20165 234.105599 
L 240.855059 232.704084 
L 241.081971 231.904552 
L 241.287954 229.589128 
L 241.343856 222.720912 
L 241.622917 220.798597 
L 243.053013 215.935049 
L 243.786252 214.834326 
L 244.68854 212.207995 
L 245.792692 209.215969 
L 246.527926 207.6817 
L 248.148177 203.47171 
L 248.562745 201.38806 
L 248.460727 200.80913 
L 248.261455 199.678262 
L 247.68263 197.450165 
L 246.921167 195.703185 
L 245.529781 194.208624 
L 243.445744 192.612055 
L 241.436609 191.720767 
L 240.142208 191.115608 
L 237.693977 190.194126 
L 235.426207 189.254927 
L 233.843386 188.114155 
L 233.195343 186.624128 
L 232.776951 185.397286 
L 233.050378 183.626002 
L 233.315105 181.945129 
L 233.734878 180.74476 
L 234.229289 180.277859 
L 235.050431 180.077775 
L 236.921956 180.237949 
L 237.119989 180.239107 
L 238.635199 180.248025 
L 240.088061 180.127529 
L 241.82822 179.783639 
L 243.83165 179.664498 
L 245.640691 179.161867 
L 247.699871 178.441251 
L 250.555577 177.649239 
L 253.473807 176.747785 
L 257.502027 175.429172 
L 259.763553 174.351416 
L 261.188106 173.485317 
L 262.431741 172.944889 
L 263.165824 172.351571 
L 263.662619 171.563257 
L 263.830264 171.29723 
L 265.396151 170.023652 
L 266.975415 168.636821 
L 268.976396 166.205733 
L 271.03928 162.765743 
L 272.731143 160.145328 
L 275.151538 157.605022 
L 276.620455 156.234243 
L 278.048544 155.604036 
L 278.241556 155.54106 
L 279.148628 155.533176 
L 318.016479 175.353687 
L 331.775554 133.92 
" clip-path="url(#p9cf6c74167)" style="fill: #e0bd1f; stroke: #0000ff; stroke-width: 0.5"/>
   </g>
   <g id="PatchCollection_2">
    <path d="M 211.792467 313.00214 
L 239.510487 317.071381 
L 222.573774 367.886462 
L 200.295028 361.890569 
L 184.056906 357.287303 
L 184.625384 357.07494 
L 186.038272 356.337932 
L 187.325035 354.728437 
L 188.069618 353.144201 
L 188.322749 351.013799 
L 188.360851 349.81054 
L 188.316425 348.758085 
L 188.208879 346.600208 
L 188.039766 345.893978 
L 186.931258 342.983654 
L 186.519187 341.038568 
L 186.29348 339.573633 
L 185.982942 338.294316 
L 185.843178 336.403872 
L 185.404646 335.077883 
L 185.137604 333.888005 
L 185.121133 332.77104 
L 185.529195 331.656876 
L 186.448405 329.220502 
L 187.060355 327.78762 
L 188.694564 325.011335 
L 190.077629 323.912403 
L 191.823215 321.757941 
L 195.102946 319.220462 
L 201.640307 316.056324 
L 208.61678 314.09 
L 211.792467 313.00214 
" clip-path="url(#p9cf6c74167)" style="fill: none; stroke: #000000"/>
   </g>
   <g id="matplotlib.axis_1">
    <g id="xtick_1">
     <g id="line2d_1">
      <path d="M 170.397992 768.96 
L 170.397992 103.68 
" clip-path="url(#p9cf6c74167)" style="fill: none; stroke: #b0b0b0; stroke-width: 0.8; stroke-linecap: square"/>
     </g>
     <g id="line2d_2">
      <defs>
       <path id="me2a1b88931" d="M 0 0 
L 0 3.5 
" style="stroke: #000000; stroke-width: 0.8"/>
      </defs>
      <g>
       <use xlink:href="#me2a1b88931" x="170.397992" y="768.96" style="stroke: #000000; stroke-width: 0.8"/>
      </g>
     </g>
     <g id="text_1">
      <!-- −67.50 -->
      <g transform="translate(159.264928 807.501382) rotate(-45) scale(0.1 -0.1)">
       <defs>
        <path id="DejaVuSans-2212" d="M 678 2272 
L 4684 2272 
L 4684 1741 
L 678 1741 
L 678 2272 
z
" transform="scale(0.015625)"/>
        <path id="DejaVuSans-36" d="M 2113 2584 
Q 1688 2584 1439 2293 
Q 1191 2003 1191 1497 
Q 1191 994 1439 701 
Q 1688 409 2113 409 
Q 2538 409 2786 701 
Q 3034 994 3034 1497 
Q 3034 2003 2786 2293 
Q 2538 2584 2113 2584 
z
M 3366 4563 
L 3366 3988 
Q 3128 4100 2886 4159 
Q 2644 4219 2406 4219 
Q 1781 4219 1451 3797 
Q 1122 3375 1075 2522 
Q 1259 2794 1537 2939 
Q 1816 3084 2150 3084 
Q 2853 3084 3261 2657 
Q 3669 2231 3669 1497 
Q 3669 778 3244 343 
Q 2819 -91 2113 -91 
Q 1303 -91 875 529 
Q 447 1150 447 2328 
Q 447 3434 972 4092 
Q 1497 4750 2381 4750 
Q 2619 4750 2861 4703 
Q 3103 4656 3366 4563 
z
" transform="scale(0.015625)"/>
        <path id="DejaVuSans-37" d="M 525 4666 
L 3525 4666 
L 3525 4397 
L 1831 0 
L 1172 0 
L 2766 4134 
L 525 4134 
L 525 4666 
z
" transform="scale(0.015625)"/>
        <path id="DejaVuSans-2e" d="M 684 794 
L 1344 794 
L 1344 0 
L 684 0 
L 684 794 
z
" transform="scale(0.015625)"/>
        <path id="DejaVuSans-35" d="M 691 4666 
L 3169 4666 
L 3169 4134 
L 1269 4134 
L 1269 2991 
Q 1406 3038 1543 3061 
Q 1681 3084 1819 3084 
Q 2600 3084 3056 2656 
Q 3513 2228 3513 1497 
Q 3513 744 3044 326 
Q 2575 -91 1722 -91 
Q 1428 -91 1123 -41 
Q 819 9 494 109 
L 494 744 
Q 775 591 1075 516 
Q 1375 441 1709 441 
Q 2250 441 2565 725 
Q 2881 1009 2881 1497 
Q 2881 1984 2565 2268 
Q 2250 2553 1709 2553 
Q 1456 2553 1204 2497 
Q 953 2441 691 2322 
L 691 4666 
z
" transform="scale(0.015625)"/>
        <path id="DejaVuSans-30" d="M 2034 4250 
Q 1547 4250 1301 3770 
Q 1056 3291 1056 2328 
Q 1056 1369 1301 889 
Q 1547 409 2034 409 
Q 2525 409 2770 889 
Q 3016 1369 3016 2328 
Q 3016 3291 2770 3770 
Q 2525 4250 2034 4250 
z
M 2034 4750 
Q 2819 4750 3233 4129 
Q 3647 3509 3647 2328 
Q 3647 1150 3233 529 
Q 2819 -91 2034 -91 
Q 1250 -91 836 529 
Q 422 1150 422 2328 
Q 422 3509 836 4129 
Q 1250 4750 2034 4750 
z
" transform="scale(0.015625)"/>
       </defs>
       <use xlink:href="#DejaVuSans-2212"/>
       <use xlink:href="#DejaVuSans-36" transform="translate(83.789062 0)"/>
       <use xlink:href="#DejaVuSans-37" transform="translate(147.412109 0)"/>
       <use xlink:href="#DejaVuSans-2e" transform="translate(211.035156 0)"/>
       <use xlink:href="#DejaVuSans-35" transform="translate(242.822266 0)"/>
       <use xlink:href="#DejaVuSans-30" transform="translate(306.445312 0)"/>
      </g>
     </g>
    </g>
    <g id="xtick_2">
     <g id="line2d_3">
      <path d="M 265.302794 768.96 
L 265.302794 103.68 
" clip-path="url(#p9cf6c74167)" style="fill: none; stroke: #b0b0b0; stroke-width: 0.8; stroke-linecap: square"/>
     </g>
     <g id="line2d_4">
      <g>
       <use xlink:href="#me2a1b88931" x="265.302794" y="768.96" style="stroke: #000000; stroke-width: 0.8"/>
      </g>
     </g>
     <g id="text_2">
      <!-- −67.45 -->
      <g transform="translate(254.16973 807.501382) rotate(-45) scale(0.1 -0.1)">
       <defs>
        <path id="DejaVuSans-34" d="M 2419 4116 
L 825 1625 
L 2419 1625 
L 2419 4116 
z
M 2253 4666 
L 3047 4666 
L 3047 1625 
L 3713 1625 
L 3713 1100 
L 3047 1100 
L 3047 0 
L 2419 0 
L 2419 1100 
L 313 1100 
L 313 1709 
L 2253 4666 
z
" transform="scale(0.015625)"/>
       </defs>
       <use xlink:href="#DejaVuSans-2212"/>
       <use xlink:href="#DejaVuSans-36" transform="translate(83.789062 0)"/>
       <use xlink:href="#DejaVuSans-37" transform="translate(147.412109 0)"/>
       <use xlink:href="#DejaVuSans-2e" transform="translate(211.035156 0)"/>
       <use xlink:href="#DejaVuSans-34" transform="translate(242.822266 0)"/>
       <use xlink:href="#DejaVuSans-35" transform="translate(306.445312 0)"/>
      </g>
     </g>
    </g>
    <g id="xtick_3">
     <g id="line2d_5">
      <path d="M 360.207596 768.96 
L 360.207596 103.68 
" clip-path="url(#p9cf6c74167)" style="fill: none; stroke: #b0b0b0; stroke-width: 0.8; stroke-linecap: square"/>
     </g>
     <g id="line2d_6">
      <g>
       <use xlink:href="#me2a1b88931" x="360.207596" y="768.96" style="stroke: #000000; stroke-width: 0.8"/>
      </g>
     </g>
     <g id="text_3">
      <!-- −67.40 -->
      <g transform="translate(349.074532 807.501382) rotate(-45) scale(0.1 -0.1)">
       <use xlink:href="#DejaVuSans-2212"/>
       <use xlink:href="#DejaVuSans-36" transform="translate(83.789062 0)"/>
       <use xlink:href="#DejaVuSans-37" transform="translate(147.412109 0)"/>
       <use xlink:href="#DejaVuSans-2e" transform="translate(211.035156 0)"/>
       <use xlink:href="#DejaVuSans-34" transform="translate(242.822266 0)"/>
       <use xlink:href="#DejaVuSans-30" transform="translate(306.445312 0)"/>
      </g>
     </g>
    </g>
    <g id="xtick_4">
     <g id="line2d_7">
      <path d="M 455.112398 768.96 
L 455.112398 103.68 
" clip-path="url(#p9cf6c74167)" style="fill: none; stroke: #b0b0b0; stroke-width: 0.8; stroke-linecap: square"/>
     </g>
     <g id="line2d_8">
      <g>
       <use xlink:href="#me2a1b88931" x="455.112398" y="768.96" style="stroke: #000000; stroke-width: 0.8"/>
      </g>
     </g>
     <g id="text_4">
      <!-- −67.35 -->
      <g transform="translate(443.979334 807.501382) rotate(-45) scale(0.1 -0.1)">
       <defs>
        <path id="DejaVuSans-33" d="M 2597 2516 
Q 3050 2419 3304 2112 
Q 3559 1806 3559 1356 
Q 3559 666 3084 287 
Q 2609 -91 1734 -91 
Q 1441 -91 1130 -33 
Q 819 25 488 141 
L 488 750 
Q 750 597 1062 519 
Q 1375 441 1716 441 
Q 2309 441 2620 675 
Q 2931 909 2931 1356 
Q 2931 1769 2642 2001 
Q 2353 2234 1838 2234 
L 1294 2234 
L 1294 2753 
L 1863 2753 
Q 2328 2753 2575 2939 
Q 2822 3125 2822 3475 
Q 2822 3834 2567 4026 
Q 2313 4219 1838 4219 
Q 1578 4219 1281 4162 
Q 984 4106 628 3988 
L 628 4550 
Q 988 4650 1302 4700 
Q 1616 4750 1894 4750 
Q 2613 4750 3031 4423 
Q 3450 4097 3450 3541 
Q 3450 3153 3228 2886 
Q 3006 2619 2597 2516 
z
" transform="scale(0.015625)"/>
       </defs>
       <use xlink:href="#DejaVuSans-2212"/>
       <use xlink:href="#DejaVuSans-36" transform="translate(83.789062 0)"/>
       <use xlink:href="#DejaVuSans-37" transform="translate(147.412109 0)"/>
       <use xlink:href="#DejaVuSans-2e" transform="translate(211.035156 0)"/>
       <use xlink:href="#DejaVuSans-33" transform="translate(242.822266 0)"/>
       <use xlink:href="#DejaVuSans-35" transform="translate(306.445312 0)"/>
      </g>
     </g>
    </g>
    <g id="xtick_5">
     <g id="line2d_9">
      <path d="M 550.017201 768.96 
L 550.017201 103.68 
" clip-path="url(#p9cf6c74167)" style="fill: none; stroke: #b0b0b0; stroke-width: 0.8; stroke-linecap: square"/>
     </g>
     <g id="line2d_10">
      <g>
       <use xlink:href="#me2a1b88931" x="550.017201" y="768.96" style="stroke: #000000; stroke-width: 0.8"/>
      </g>
     </g>
     <g id="text_5">
      <!-- −67.30 -->
      <g transform="translate(538.884136 807.501382) rotate(-45) scale(0.1 -0.1)">
       <use xlink:href="#DejaVuSans-2212"/>
       <use xlink:href="#DejaVuSans-36" transform="translate(83.789062 0)"/>
       <use xlink:href="#DejaVuSans-37" transform="translate(147.412109 0)"/>
       <use xlink:href="#DejaVuSans-2e" transform="translate(211.035156 0)"/>
       <use xlink:href="#DejaVuSans-33" transform="translate(242.822266 0)"/>
       <use xlink:href="#DejaVuSans-30" transform="translate(306.445312 0)"/>
      </g>
     </g>
    </g>
    <g id="text_6">
     <!-- Longitude (°) -->
     <g transform="translate(336.139844 820.57038) scale(0.1 -0.1)">
      <defs>
       <path id="DejaVuSans-4c" d="M 628 4666 
L 1259 4666 
L 1259 531 
L 3531 531 
L 3531 0 
L 628 0 
L 628 4666 
z
" transform="scale(0.015625)"/>
       <path id="DejaVuSans-6f" d="M 1959 3097 
Q 1497 3097 1228 2736 
Q 959 2375 959 1747 
Q 959 1119 1226 758 
Q 1494 397 1959 397 
Q 2419 397 2687 759 
Q 2956 1122 2956 1747 
Q 2956 2369 2687 2733 
Q 2419 3097 1959 3097 
z
M 1959 3584 
Q 2709 3584 3137 3096 
Q 3566 2609 3566 1747 
Q 3566 888 3137 398 
Q 2709 -91 1959 -91 
Q 1206 -91 779 398 
Q 353 888 353 1747 
Q 353 2609 779 3096 
Q 1206 3584 1959 3584 
z
" transform="scale(0.015625)"/>
       <path id="DejaVuSans-6e" d="M 3513 2113 
L 3513 0 
L 2938 0 
L 2938 2094 
Q 2938 2591 2744 2837 
Q 2550 3084 2163 3084 
Q 1697 3084 1428 2787 
Q 1159 2491 1159 1978 
L 1159 0 
L 581 0 
L 581 3500 
L 1159 3500 
L 1159 2956 
Q 1366 3272 1645 3428 
Q 1925 3584 2291 3584 
Q 2894 3584 3203 3211 
Q 3513 2838 3513 2113 
z
" transform="scale(0.015625)"/>
       <path id="DejaVuSans-67" d="M 2906 1791 
Q 2906 2416 2648 2759 
Q 2391 3103 1925 3103 
Q 1463 3103 1205 2759 
Q 947 2416 947 1791 
Q 947 1169 1205 825 
Q 1463 481 1925 481 
Q 2391 481 2648 825 
Q 2906 1169 2906 1791 
z
M 3481 434 
Q 3481 -459 3084 -895 
Q 2688 -1331 1869 -1331 
Q 1566 -1331 1297 -1286 
Q 1028 -1241 775 -1147 
L 775 -588 
Q 1028 -725 1275 -790 
Q 1522 -856 1778 -856 
Q 2344 -856 2625 -561 
Q 2906 -266 2906 331 
L 2906 616 
Q 2728 306 2450 153 
Q 2172 0 1784 0 
Q 1141 0 747 490 
Q 353 981 353 1791 
Q 353 2603 747 3093 
Q 1141 3584 1784 3584 
Q 2172 3584 2450 3431 
Q 2728 3278 2906 2969 
L 2906 3500 
L 3481 3500 
L 3481 434 
z
" transform="scale(0.015625)"/>
       <path id="DejaVuSans-69" d="M 603 3500 
L 1178 3500 
L 1178 0 
L 603 0 
L 603 3500 
z
M 603 4863 
L 1178 4863 
L 1178 4134 
L 603 4134 
L 603 4863 
z
" transform="scale(0.015625)"/>
       <path id="DejaVuSans-74" d="M 1172 4494 
L 1172 3500 
L 2356 3500 
L 2356 3053 
L 1172 3053 
L 1172 1153 
Q 1172 725 1289 603 
Q 1406 481 1766 481 
L 2356 481 
L 2356 0 
L 1766 0 
Q 1100 0 847 248 
Q 594 497 594 1153 
L 594 3053 
L 172 3053 
L 172 3500 
L 594 3500 
L 594 4494 
L 1172 4494 
z
" transform="scale(0.015625)"/>
       <path id="DejaVuSans-75" d="M 544 1381 
L 544 3500 
L 1119 3500 
L 1119 1403 
Q 1119 906 1312 657 
Q 1506 409 1894 409 
Q 2359 409 2629 706 
Q 2900 1003 2900 1516 
L 2900 3500 
L 3475 3500 
L 3475 0 
L 2900 0 
L 2900 538 
Q 2691 219 2414 64 
Q 2138 -91 1772 -91 
Q 1169 -91 856 284 
Q 544 659 544 1381 
z
M 1991 3584 
L 1991 3584 
z
" transform="scale(0.015625)"/>
       <path id="DejaVuSans-64" d="M 2906 2969 
L 2906 4863 
L 3481 4863 
L 3481 0 
L 2906 0 
L 2906 525 
Q 2725 213 2448 61 
Q 2172 -91 1784 -91 
Q 1150 -91 751 415 
Q 353 922 353 1747 
Q 353 2572 751 3078 
Q 1150 3584 1784 3584 
Q 2172 3584 2448 3432 
Q 2725 3281 2906 2969 
z
M 947 1747 
Q 947 1113 1208 752 
Q 1469 391 1925 391 
Q 2381 391 2643 752 
Q 2906 1113 2906 1747 
Q 2906 2381 2643 2742 
Q 2381 3103 1925 3103 
Q 1469 3103 1208 2742 
Q 947 2381 947 1747 
z
" transform="scale(0.015625)"/>
       <path id="DejaVuSans-65" d="M 3597 1894 
L 3597 1613 
L 953 1613 
Q 991 1019 1311 708 
Q 1631 397 2203 397 
Q 2534 397 2845 478 
Q 3156 559 3463 722 
L 3463 178 
Q 3153 47 2828 -22 
Q 2503 -91 2169 -91 
Q 1331 -91 842 396 
Q 353 884 353 1716 
Q 353 2575 817 3079 
Q 1281 3584 2069 3584 
Q 2775 3584 3186 3129 
Q 3597 2675 3597 1894 
z
M 3022 2063 
Q 3016 2534 2758 2815 
Q 2500 3097 2075 3097 
Q 1594 3097 1305 2825 
Q 1016 2553 972 2059 
L 3022 2063 
z
" transform="scale(0.015625)"/>
       <path id="DejaVuSans-20" transform="scale(0.015625)"/>
       <path id="DejaVuSans-28" d="M 1984 4856 
Q 1566 4138 1362 3434 
Q 1159 2731 1159 2009 
Q 1159 1288 1364 580 
Q 1569 -128 1984 -844 
L 1484 -844 
Q 1016 -109 783 600 
Q 550 1309 550 2009 
Q 550 2706 781 3412 
Q 1013 4119 1484 4856 
L 1984 4856 
z
" transform="scale(0.015625)"/>
       <path id="DejaVuSans-b0" d="M 1600 4347 
Q 1350 4347 1178 4173 
Q 1006 4000 1006 3750 
Q 1006 3503 1178 3333 
Q 1350 3163 1600 3163 
Q 1850 3163 2022 3333 
Q 2194 3503 2194 3750 
Q 2194 3997 2020 4172 
Q 1847 4347 1600 4347 
z
M 1600 4750 
Q 1800 4750 1984 4673 
Q 2169 4597 2303 4453 
Q 2447 4313 2519 4134 
Q 2591 3956 2591 3750 
Q 2591 3338 2302 3052 
Q 2013 2766 1594 2766 
Q 1172 2766 890 3047 
Q 609 3328 609 3750 
Q 609 4169 896 4459 
Q 1184 4750 1600 4750 
z
" transform="scale(0.015625)"/>
       <path id="DejaVuSans-29" d="M 513 4856 
L 1013 4856 
Q 1481 4119 1714 3412 
Q 1947 2706 1947 2009 
Q 1947 1309 1714 600 
Q 1481 -109 1013 -844 
L 513 -844 
Q 928 -128 1133 580 
Q 1338 1288 1338 2009 
Q 1338 2731 1133 3434 
Q 928 4138 513 4856 
z
" transform="scale(0.015625)"/>
      </defs>
      <use xlink:href="#DejaVuSans-4c"/>
      <use xlink:href="#DejaVuSans-6f" transform="translate(53.962891 0)"/>
      <use xlink:href="#DejaVuSans-6e" transform="translate(115.144531 0)"/>
      <use xlink:href="#DejaVuSans-67" transform="translate(178.523438 0)"/>
      <use xlink:href="#DejaVuSans-69" transform="translate(242 0)"/>
      <use xlink:href="#DejaVuSans-74" transform="translate(269.783203 0)"/>
      <use xlink:href="#DejaVuSans-75" transform="translate(308.992188 0)"/>
      <use xlink:href="#DejaVuSans-64" transform="translate(372.371094 0)"/>
      <use xlink:href="#DejaVuSans-65" transform="translate(435.847656 0)"/>
      <use xlink:href="#DejaVuSans-20" transform="translate(497.371094 0)"/>
      <use xlink:href="#DejaVuSans-28" transform="translate(529.158203 0)"/>
      <use xlink:href="#DejaVuSans-b0" transform="translate(568.171875 0)"/>
      <use xlink:href="#DejaVuSans-29" transform="translate(618.171875 0)"/>
     </g>
    </g>
   </g>
   <g id="matplotlib.axis_2">
    <g id="ytick_1">
     <g id="line2d_11">
      <path d="M 115.21918 742.989715 
L 622.78082 742.989715 
" clip-path="url(#p9cf6c74167)" style="fill: none; stroke: #b0b0b0; stroke-width: 0.8; stroke-linecap: square"/>
     </g>
     <g id="line2d_12">
      <defs>
       <path id="m24fbf8f1a5" d="M 0 0 
L -3.5 0 
" style="stroke: #000000; stroke-width: 0.8"/>
      </defs>
      <g>
       <use xlink:href="#m24fbf8f1a5" x="115.21918" y="742.989715" style="stroke: #000000; stroke-width: 0.8"/>
      </g>
     </g>
     <g id="text_7">
      <!-- −9.55 -->
      <g transform="translate(77.573867 746.788934) scale(0.1 -0.1)">
       <defs>
        <path id="DejaVuSans-39" d="M 703 97 
L 703 672 
Q 941 559 1184 500 
Q 1428 441 1663 441 
Q 2288 441 2617 861 
Q 2947 1281 2994 2138 
Q 2813 1869 2534 1725 
Q 2256 1581 1919 1581 
Q 1219 1581 811 2004 
Q 403 2428 403 3163 
Q 403 3881 828 4315 
Q 1253 4750 1959 4750 
Q 2769 4750 3195 4129 
Q 3622 3509 3622 2328 
Q 3622 1225 3098 567 
Q 2575 -91 1691 -91 
Q 1453 -91 1209 -44 
Q 966 3 703 97 
z
M 1959 2075 
Q 2384 2075 2632 2365 
Q 2881 2656 2881 3163 
Q 2881 3666 2632 3958 
Q 2384 4250 1959 4250 
Q 1534 4250 1286 3958 
Q 1038 3666 1038 3163 
Q 1038 2656 1286 2365 
Q 1534 2075 1959 2075 
z
" transform="scale(0.015625)"/>
       </defs>
       <use xlink:href="#DejaVuSans-2212"/>
       <use xlink:href="#DejaVuSans-39" transform="translate(83.789062 0)"/>
       <use xlink:href="#DejaVuSans-2e" transform="translate(147.412109 0)"/>
       <use xlink:href="#DejaVuSans-35" transform="translate(179.199219 0)"/>
       <use xlink:href="#DejaVuSans-35" transform="translate(242.822266 0)"/>
      </g>
     </g>
    </g>
    <g id="ytick_2">
     <g id="line2d_13">
      <path d="M 115.21918 646.809621 
L 622.78082 646.809621 
" clip-path="url(#p9cf6c74167)" style="fill: none; stroke: #b0b0b0; stroke-width: 0.8; stroke-linecap: square"/>
     </g>
     <g id="line2d_14">
      <g>
       <use xlink:href="#m24fbf8f1a5" x="115.21918" y="646.809621" style="stroke: #000000; stroke-width: 0.8"/>
      </g>
     </g>
     <g id="text_8">
      <!-- −9.50 -->
      <g transform="translate(77.573867 650.60884) scale(0.1 -0.1)">
       <use xlink:href="#DejaVuSans-2212"/>
       <use xlink:href="#DejaVuSans-39" transform="translate(83.789062 0)"/>
       <use xlink:href="#DejaVuSans-2e" transform="translate(147.412109 0)"/>
       <use xlink:href="#DejaVuSans-35" transform="translate(179.199219 0)"/>
       <use xlink:href="#DejaVuSans-30" transform="translate(242.822266 0)"/>
      </g>
     </g>
    </g>
    <g id="ytick_3">
     <g id="line2d_15">
      <path d="M 115.21918 550.629526 
L 622.78082 550.629526 
" clip-path="url(#p9cf6c74167)" style="fill: none; stroke: #b0b0b0; stroke-width: 0.8; stroke-linecap: square"/>
     </g>
     <g id="line2d_16">
      <g>
       <use xlink:href="#m24fbf8f1a5" x="115.21918" y="550.629526" style="stroke: #000000; stroke-width: 0.8"/>
      </g>
     </g>
     <g id="text_9">
      <!-- −9.45 -->
      <g transform="translate(77.573867 554.428745) scale(0.1 -0.1)">
       <use xlink:href="#DejaVuSans-2212"/>
       <use xlink:href="#DejaVuSans-39" transform="translate(83.789062 0)"/>
       <use xlink:href="#DejaVuSans-2e" transform="translate(147.412109 0)"/>
       <use xlink:href="#DejaVuSans-34" transform="translate(179.199219 0)"/>
       <use xlink:href="#DejaVuSans-35" transform="translate(242.822266 0)"/>
      </g>
     </g>
    </g>
    <g id="ytick_4">
     <g id="line2d_17">
      <path d="M 115.21918 454.449432 
L 622.78082 454.449432 
" clip-path="url(#p9cf6c74167)" style="fill: none; stroke: #b0b0b0; stroke-width: 0.8; stroke-linecap: square"/>
     </g>
     <g id="line2d_18">
      <g>
       <use xlink:href="#m24fbf8f1a5" x="115.21918" y="454.449432" style="stroke: #000000; stroke-width: 0.8"/>
      </g>
     </g>
     <g id="text_10">
      <!-- −9.40 -->
      <g transform="translate(77.573867 458.24865) scale(0.1 -0.1)">
       <use xlink:href="#DejaVuSans-2212"/>
       <use xlink:href="#DejaVuSans-39" transform="translate(83.789062 0)"/>
       <use xlink:href="#DejaVuSans-2e" transform="translate(147.412109 0)"/>
       <use xlink:href="#DejaVuSans-34" transform="translate(179.199219 0)"/>
       <use xlink:href="#DejaVuSans-30" transform="translate(242.822266 0)"/>
      </g>
     </g>
    </g>
    <g id="ytick_5">
     <g id="line2d_19">
      <path d="M 115.21918 358.269337 
L 622.78082 358.269337 
" clip-path="url(#p9cf6c74167)" style="fill: none; stroke: #b0b0b0; stroke-width: 0.8; stroke-linecap: square"/>
     </g>
     <g id="line2d_20">
      <g>
       <use xlink:href="#m24fbf8f1a5" x="115.21918" y="358.269337" style="stroke: #000000; stroke-width: 0.8"/>
      </g>
     </g>
     <g id="text_11">
      <!-- −9.35 -->
      <g transform="translate(77.573867 362.068556) scale(0.1 -0.1)">
       <use xlink:href="#DejaVuSans-2212"/>
       <use xlink:href="#DejaVuSans-39" transform="translate(83.789062 0)"/>
       <use xlink:href="#DejaVuSans-2e" transform="translate(147.412109 0)"/>
       <use xlink:href="#DejaVuSans-33" transform="translate(179.199219 0)"/>
       <use xlink:href="#DejaVuSans-35" transform="translate(242.822266 0)"/>
      </g>
     </g>
    </g>
    <g id="ytick_6">
     <g id="line2d_21">
      <path d="M 115.21918 262.089243 
L 622.78082 262.089243 
" clip-path="url(#p9cf6c74167)" style="fill: none; stroke: #b0b0b0; stroke-width: 0.8; stroke-linecap: square"/>
     </g>
     <g id="line2d_22">
      <g>
       <use xlink:href="#m24fbf8f1a5" x="115.21918" y="262.089243" style="stroke: #000000; stroke-width: 0.8"/>
      </g>
     </g>
     <g id="text_12">
      <!-- −9.30 -->
      <g transform="translate(77.573867 265.888461) scale(0.1 -0.1)">
       <use xlink:href="#DejaVuSans-2212"/>
       <use xlink:href="#DejaVuSans-39" transform="translate(83.789062 0)"/>
       <use xlink:href="#DejaVuSans-2e" transform="translate(147.412109 0)"/>
       <use xlink:href="#DejaVuSans-33" transform="translate(179.199219 0)"/>
       <use xlink:href="#DejaVuSans-30" transform="translate(242.822266 0)"/>
      </g>
     </g>
    </g>
    <g id="ytick_7">
     <g id="line2d_23">
      <path d="M 115.21918 165.909148 
L 622.78082 165.909148 
" clip-path="url(#p9cf6c74167)" style="fill: none; stroke: #b0b0b0; stroke-width: 0.8; stroke-linecap: square"/>
     </g>
     <g id="line2d_24">
      <g>
       <use xlink:href="#m24fbf8f1a5" x="115.21918" y="165.909148" style="stroke: #000000; stroke-width: 0.8"/>
      </g>
     </g>
     <g id="text_13">
      <!-- −9.25 -->
      <g transform="translate(77.573867 169.708367) scale(0.1 -0.1)">
       <defs>
        <path id="DejaVuSans-32" d="M 1228 531 
L 3431 531 
L 3431 0 
L 469 0 
L 469 531 
Q 828 903 1448 1529 
Q 2069 2156 2228 2338 
Q 2531 2678 2651 2914 
Q 2772 3150 2772 3378 
Q 2772 3750 2511 3984 
Q 2250 4219 1831 4219 
Q 1534 4219 1204 4116 
Q 875 4013 500 3803 
L 500 4441 
Q 881 4594 1212 4672 
Q 1544 4750 1819 4750 
Q 2544 4750 2975 4387 
Q 3406 4025 3406 3419 
Q 3406 3131 3298 2873 
Q 3191 2616 2906 2266 
Q 2828 2175 2409 1742 
Q 1991 1309 1228 531 
z
" transform="scale(0.015625)"/>
       </defs>
       <use xlink:href="#DejaVuSans-2212"/>
       <use xlink:href="#DejaVuSans-39" transform="translate(83.789062 0)"/>
       <use xlink:href="#DejaVuSans-2e" transform="translate(147.412109 0)"/>
       <use xlink:href="#DejaVuSans-32" transform="translate(179.199219 0)"/>
       <use xlink:href="#DejaVuSans-35" transform="translate(242.822266 0)"/>
      </g>
     </g>
    </g>
    <g id="text_14">
     <!-- Latitude (°) -->
     <g transform="translate(71.49418 464.889531) rotate(-90) scale(0.1 -0.1)">
      <defs>
       <path id="DejaVuSans-61" d="M 2194 1759 
Q 1497 1759 1228 1600 
Q 959 1441 959 1056 
Q 959 750 1161 570 
Q 1363 391 1709 391 
Q 2188 391 2477 730 
Q 2766 1069 2766 1631 
L 2766 1759 
L 2194 1759 
z
M 3341 1997 
L 3341 0 
L 2766 0 
L 2766 531 
Q 2569 213 2275 61 
Q 1981 -91 1556 -91 
Q 1019 -91 701 211 
Q 384 513 384 1019 
Q 384 1609 779 1909 
Q 1175 2209 1959 2209 
L 2766 2209 
L 2766 2266 
Q 2766 2663 2505 2880 
Q 2244 3097 1772 3097 
Q 1472 3097 1187 3025 
Q 903 2953 641 2809 
L 641 3341 
Q 956 3463 1253 3523 
Q 1550 3584 1831 3584 
Q 2591 3584 2966 3190 
Q 3341 2797 3341 1997 
z
" transform="scale(0.015625)"/>
      </defs>
      <use xlink:href="#DejaVuSans-4c"/>
      <use xlink:href="#DejaVuSans-61" transform="translate(55.712891 0)"/>
      <use xlink:href="#DejaVuSans-74" transform="translate(116.992188 0)"/>
      <use xlink:href="#DejaVuSans-69" transform="translate(156.201172 0)"/>
      <use xlink:href="#DejaVuSans-74" transform="translate(183.984375 0)"/>
      <use xlink:href="#DejaVuSans-75" transform="translate(223.193359 0)"/>
      <use xlink:href="#DejaVuSans-64" transform="translate(286.572266 0)"/>
      <use xlink:href="#DejaVuSans-65" transform="translate(350.048828 0)"/>
      <use xlink:href="#DejaVuSans-20" transform="translate(411.572266 0)"/>
      <use xlink:href="#DejaVuSans-28" transform="translate(443.359375 0)"/>
      <use xlink:href="#DejaVuSans-b0" transform="translate(482.373047 0)"/>
      <use xlink:href="#DejaVuSans-29" transform="translate(532.373047 0)"/>
     </g>
    </g>
   </g>
   <g id="patch_3">
    <path d="M 115.21918 768.96 
L 115.21918 103.68 
" style="fill: none; stroke: #000000; stroke-width: 0.8; stroke-linejoin: miter; stroke-linecap: square"/>
   </g>
   <g id="patch_4">
    <path d="M 622.78082 768.96 
L 622.78082 103.68 
" style="fill: none; stroke: #000000; stroke-width: 0.8; stroke-linejoin: miter; stroke-linecap: square"/>
   </g>
   <g id="patch_5">
    <path d="M 115.21918 768.96 
L 622.78082 768.96 
" style="fill: none; stroke: #000000; stroke-width: 0.8; stroke-linejoin: miter; stroke-linecap: square"/>
   </g>
   <g id="patch_6">
    <path d="M 115.21918 103.68 
L 622.78082 103.68 
" style="fill: none; stroke: #000000; stroke-width: 0.8; stroke-linejoin: miter; stroke-linecap: square"/>
   </g>
  </g>
 </g>
 <defs>
  <clipPath id="p9cf6c74167">
   <rect x="115.21918" y="103.68" width="507.561641" height="665.28"/>
  </clipPath>
 </defs>
</svg>
