<?xml version="1.0" encoding="utf-8" standalone="no"?>
<!DOCTYPE svg PUBLIC "-//W3C//DTD SVG 1.1//EN"
  "http://www.w3.org/Graphics/SVG/1.1/DTD/svg11.dtd">
<svg xmlns:xlink="http://www.w3.org/1999/xlink" width="720pt" height="864pt" viewBox="0 0 720 864" xmlns="http://www.w3.org/2000/svg" version="1.1">
 <metadata>
  <rdf:RDF xmlns:dc="http://purl.org/dc/elements/1.1/" xmlns:cc="http://creativecommons.org/ns#" xmlns:rdf="http://www.w3.org/1999/02/22-rdf-syntax-ns#">
   <cc:Work>
    <dc:type rdf:resource="http://purl.org/dc/dcmitype/StillImage"/>
    <dc:date>2025-06-16T17:16:55.875620</dc:date>
    <dc:format>image/svg+xml</dc:format>
    <dc:creator>
     <cc:Agent>
      <dc:title>Matplotlib v3.10.1, https://matplotlib.org/</dc:title>
     </cc:Agent>
    </dc:creator>
   </cc:Work>
  </rdf:RDF>
 </metadata>
 <defs>
  <style type="text/css">*{stroke-linejoin: round; stroke-linecap: butt}</style>
 </defs>
 <g id="figure_1">
  <g id="patch_1">
   <path d="M 0 864 
L 720 864 
L 720 0 
L 0 0 
z
" style="fill: #ffffff"/>
  </g>
  <g id="axes_1">
   <g id="patch_2">
    <path d="M 138.117937 768.96 
L 599.882063 768.96 
L 599.882063 103.68 
L 138.117937 103.68 
z
" style="fill: #ffffff"/>
   </g>
   <g id="PatchCollection_1">
    <defs>
     <path id="mefc6df66b6" d="M 422.001369 -313.900522 
L 422.001369 -313.900522 
L 501.998884 -334.073505 
L 504.750056 -329.643891 
L 504.966716 -329.295053 
L 525.308133 -296.758349 
L 570.082341 -297.143885 
L 572.09762 -286.417173 
L 569.166827 -284.781176 
L 570.359281 -280.305044 
L 568.667133 -269.064722 
L 572.147312 -265.445377 
L 573.265595 -262.012368 
L 573.002271 -244.509139 
L 577.701336 -238.372456 
L 578.892784 -233.908496 
L 576.158501 -231.656682 
L 571.938228 -232.692828 
L 569.693414 -235.262377 
L 564.729822 -234.241451 
L 560.169081 -235.073926 
L 554.44857 -231.496669 
L 547.955649 -226.961909 
L 544.287248 -219.717611 
L 544.624666 -210.496911 
L 534.796626 -204.283306 
L 532.617194 -195.906477 
L 528.489069 -193.378981 
L 523.898379 -186.93435 
L 523.609268 -183.706057 
L 519.588952 -181.883413 
L 513.142569 -169.651182 
L 508.242667 -170.225668 
L 502.992868 -177.996217 
L 503.028559 -180.780254 
L 502.653317 -182.38713 
L 502.783925 -184.390515 
L 501.857239 -185.742635 
L 499.661305 -190.996026 
L 499.692362 -197.332329 
L 498.984772 -198.256942 
L 496.122251 -196.352118 
L 493.322346 -196.013864 
L 491.008456 -196.878872 
L 489.672862 -195.305422 
L 488.718883 -194.03154 
L 484.962718 -193.388304 
L 482.932692 -189.276572 
L 482.996393 -186.91479 
L 481.066398 -185.638018 
L 480.249184 -183.613479 
L 477.295013 -182.804197 
L 475.634951 -180.697556 
L 474.056521 -179.843478 
L 473.202625 -178.553973 
L 468.281663 -179.412284 
L 466.413235 -179.319305 
L 462.423564 -182.109843 
L 458.163608 -185.220696 
L 456.545006 -183.996936 
L 454.553645 -183.458051 
L 453.706729 -182.393869 
L 451.639777 -181.480157 
L 450.344064 -179.02645 
L 449.800796 -176.027184 
L 443.454429 -178.264636 
L 441.337903 -174.314721 
L 438.051776 -171.413428 
L 431.532559 -170.96663 
L 427.413735 -169.901729 
L 426.691709 -173.441589 
L 423.583142 -173.880463 
L 421.301625 -177.938887 
L 420.169945 -177.743492 
L 418.283968 -176.976553 
L 413.008669 -177.803078 
L 414.07512 -180.0859 
L 412.781936 -181.414818 
L 409.400412 -178.467749 
L 408.238652 -176.340458 
L 402.964072 -173.806297 
L 400.620728 -170.303971 
L 401.47121 -166.314105 
L 400.250539 -161.755613 
L 398.800685 -162.322294 
L 398.862749 -165.457048 
L 398.055289 -167.138985 
L 395.177354 -166.353834 
L 395.077578 -165.423684 
L 396.322274 -165.61161 
L 397.112677 -165.212732 
L 396.918236 -164.445732 
L 394.23967 -163.043702 
L 392.134521 -161.162735 
L 388.004222 -160.277055 
L 389.206815 -158.85906 
L 389.167561 -155.776613 
L 388.100881 -151.843785 
L 388.55018 -149.046129 
L 390.339685 -146.88897 
L 389.811893 -144.505191 
L 389.653755 -142.535506 
L 389.175634 -138.549425 
L 387.856637 -136.878625 
L 385.258012 -135.424313 
L 387.144288 -133.627293 
L 391.35577 -132.765926 
L 392.683061 -133.103957 
L 394.00033 -132.011297 
L 394.273608 -131.076752 
L 369.411819 -128.635812 
L 361.182308 -145.072229 
L 321.929065 -125.28 
L 297.32561 -174.647417 
L 277.712904 -164.746215 
L 261.321162 -197.627494 
L 254.48055 -194.213263 
L 252.8701 -193.400179 
L 251.749062 -193.384796 
L 252.23129 -193.077659 
L 251.404591 -192.660274 
L 251.050668 -193.451552 
L 250.029986 -193.504409 
L 249.598942 -194.625775 
L 250.121609 -195.545525 
L 250.429696 -196.221716 
L 250.362124 -196.586583 
L 249.97227 -196.937556 
L 249.79832 -196.396688 
L 249.342292 -195.909553 
L 248.657486 -195.841162 
L 247.998624 -196.556772 
L 247.688715 -197.448506 
L 247.030325 -197.758617 
L 246.479526 -197.933689 
L 245.861747 -197.960001 
L 246.117732 -197.243916 
L 246.601137 -197.285029 
L 247.326879 -196.79928 
L 247.542688 -195.988535 
L 246.375316 -195.149128 
L 245.811962 -194.567243 
L 246.147837 -194.445988 
L 246.536924 -194.757334 
L 247.462975 -195.245024 
L 248.792642 -195.097906 
L 248.76638 -194.584246 
L 247.974861 -193.893961 
L 247.948363 -193.583047 
L 248.713531 -193.840764 
L 248.821531 -193.354294 
L 248.08305 -193.245289 
L 247.626615 -193.109583 
L 248.056699 -192.812724 
L 248.526991 -192.583499 
L 248.178542 -191.974836 
L 248.35336 -191.772292 
L 248.87661 -192.19193 
L 249.400318 -192.219582 
L 249.293341 -191.827473 
L 249.402252 -191.649334 
L 247.985039 -190.933812 
L 247.65543 -191.433547 
L 247.319132 -191.919752 
L 246.634838 -191.405306 
L 246.339819 -191.040003 
L 245.882908 -191.309799 
L 245.600037 -192.039365 
L 245.290595 -192.525601 
L 245.022151 -192.403636 
L 244.969081 -191.849386 
L 245.34559 -191.430811 
L 245.386415 -190.971292 
L 244.943184 -191.024833 
L 244.822019 -191.281508 
L 244.540225 -191.091942 
L 244.339194 -190.740268 
L 243.627279 -190.874593 
L 243.883019 -190.374772 
L 243.93772 -189.536798 
L 243.989453 -189.034346 
L 243.408934 -189.002232 
L 242.35265 -189.872841 
L 241.572275 -191.128984 
L 241.222527 -191.628694 
L 240.994966 -190.993131 
L 241.251151 -190.114838 
L 240.960465 -189.393915 
L 240.365212 -189.762353 
L 240.162827 -190.573128 
L 239.906785 -191.329771 
L 240.590024 -192.763366 
L 240.414924 -193.209216 
L 239.663467 -192.69469 
L 239.570167 -192.086323 
L 239.39563 -192.045567 
L 239.099443 -192.680512 
L 238.763438 -192.909904 
L 238.817943 -192.234124 
L 238.751107 -191.963707 
L 239.047012 -191.572065 
L 238.805641 -191.260892 
L 238.389013 -191.530739 
L 238.080134 -191.530376 
L 238.120972 -191.05733 
L 238.349525 -190.841328 
L 238.134903 -190.624804 
L 237.14102 -190.704737 
L 237.20872 -190.231722 
L 236.56479 -189.636218 
L 237.196939 -188.812428 
L 237.318579 -188.150237 
L 236.982801 -187.686122 
L 236.002397 -188.216269 
L 235.410782 -188.823836 
L 235.437077 -189.31048 
L 235.987329 -189.622019 
L 235.705088 -189.810927 
L 234.84559 -189.809916 
L 234.06637 -190.06582 
L 233.892396 -189.538451 
L 233.946726 -189.011349 
L 234.336659 -188.606298 
L 234.511591 -188.309128 
L 233.706597 -187.632328 
L 234.901902 -187.579668 
L 235.411168 -187.265194 
L 234.929914 -186.592959 
L 235.642319 -186.05312 
L 235.535468 -185.552865 
L 234.782931 -185.957483 
L 234.527971 -185.78146 
L 234.971942 -185.106136 
L 234.494413 -184.122702 
L 233.941462 -183.843532 
L 233.146445 -184.292945 
L 232.849946 -185.184724 
L 232.460087 -185.522188 
L 232.111338 -185.156814 
L 232.2463 -184.589255 
L 232.555628 -184.211142 
L 232.179418 -184.359386 
L 231.750141 -183.953361 
L 232.059454 -183.588767 
L 231.810188 -182.767503 
L 227.97171 -180.829554 
L 228.126978 -181.461904 
L 228.032035 -182.259311 
L 227.695921 -182.569809 
L 226.917346 -182.257991 
L 226.784279 -181.203487 
L 226.287924 -180.729793 
L 226.210833 -179.940532 
L 225.276702 -179.468917 
L 225.737908 -180.201967 
L 224.675887 -181.092849 
L 223.964474 -180.767592 
L 223.76351 -180.348315 
L 222.944399 -180.239208 
L 222.353728 -180.022231 
L 221.466988 -180.318561 
L 221.481099 -179.737331 
L 222.744626 -178.806129 
L 223.623181 -178.634098 
L 220.483194 -177.047084 
L 220.113587 -177.708097 
L 219.710443 -177.910379 
L 219.119826 -177.63933 
L 218.461585 -177.773725 
L 218.341549 -177.057157 
L 218.181097 -176.448679 
L 217.638746 -175.603217 
L 200.984961 -167.181922 
L 200.629211 -167.887419 
L 199.618165 -167.176525 
L 198.678221 -169.1637 
L 197.754325 -170.694645 
L 196.630706 -172.302122 
L 195.64937 -173.750958 
L 194.600388 -175.225239 
L 193.578856 -176.681847 
L 193.52943 -176.756782 
L 192.602062 -178.101871 
L 191.563593 -179.59389 
L 190.614232 -180.953084 
L 186.379343 -187.041543 
L 185.334969 -188.52577 
L 184.596294 -189.545169 
L 183.844352 -190.571507 
L 182.321695 -192.665531 
L 181.725883 -193.484064 
L 180.921934 -194.580144 
L 180.112249 -195.702914 
L 179.333246 -196.780312 
L 178.058398 -198.492548 
L 176.499901 -200.647151 
L 172.763566 -205.777775 
L 167.628214 -212.855442 
L 166.89166 -213.859105 
L 164.744335 -216.828154 
L 164.643076 -216.947797 
L 163.405955 -218.644457 
L 162.145465 -220.387768 
L 161.081651 -221.844152 
L 160.339491 -222.975546 
L 159.895466 -223.553093 
L 159.107216 -224.962478 
L 159.12945 -227.002575 
L 159.20352 -228.54622 
L 159.231899 -230.360326 
L 159.247921 -232.230369 
L 159.255658 -233.369825 
L 159.526015 -233.264607 
L 159.727925 -232.610782 
L 159.803532 -231.76004 
L 159.568311 -231.221528 
L 159.920072 -230.94118 
L 160.149574 -230.735937 
L 160.310418 -230.898161 
L 160.292383 -231.679507 
L 160.239772 -232.536057 
L 160.273688 -233.120668 
L 160.463075 -233.491285 
L 160.888318 -233.763747 
L 160.853684 -233.896832 
L 160.410994 -233.82114 
L 160.088768 -234.034969 
L 160.244511 -234.201091 
L 160.864908 -234.174661 
L 161.186943 -234.151837 
L 161.428932 -234.205999 
L 161.796115 -234.499725 
L 161.922192 -234.928153 
L 161.565639 -234.968309 
L 161.272715 -234.632315 
L 160.542019 -235.431338 
L 161.202749 -235.598821 
L 162.157252 -235.628726 
L 162.030499 -235.877474 
L 162.634377 -235.768114 
L 163.207825 -235.688839 
L 162.806485 -236.167652 
L 161.938085 -236.288318 
L 161.72312 -236.606211 
L 161.908611 -237.01756 
L 162.558363 -237.035578 
L 163.018583 -236.827679 
L 163.223338 -237.016834 
L 162.719023 -237.38301 
L 162.385414 -237.481067 
L 162.413998 -237.648946 
L 162.787828 -237.579866 
L 162.632371 -237.782286 
L 162.333197 -237.949832 
L 161.93263 -238.529844 
L 162.269244 -238.655888 
L 161.642451 -238.678408 
L 161.670985 -238.898378 
L 161.992851 -239.043398 
L 162.424132 -239.026464 
L 162.631474 -238.685189 
L 163.2238 -238.627908 
L 163.321891 -238.286524 
L 163.464704 -237.890711 
L 163.638267 -238.171086 
L 163.476969 -238.466103 
L 163.61481 -238.628301 
L 164.01156 -238.640277 
L 163.970997 -238.952779 
L 164.095348 -239.297072 
L 164.45386 -239.103747 
L 164.759389 -238.328485 
L 164.13757 -237.934216 
L 165.320073 -237.731636 
L 165.225243 -238.236352 
L 164.879614 -239.30684 
L 165.742202 -238.792503 
L 165.973146 -237.849322 
L 166.457328 -237.512802 
L 176.781988 -216.77481 
L 216.071918 -236.56798 
L 216.329498 -236.226235 
L 216.828301 -236.006259 
L 217.167752 -236.470442 
L 217.643444 -236.676246 
L 218.301625 -235.749305 
L 218.453187 -235.29325 
L 218.219145 -235.163737 
L 218.81625 -234.852628 
L 218.975245 -234.510635 
L 219.194747 -234.100274 
L 219.466944 -233.864854 
L 219.700824 -234.146439 
L 219.254185 -235.043185 
L 218.959289 -235.316597 
L 219.404571 -235.704855 
L 219.555486 -235.864692 
L 220.008851 -235.751122 
L 220.265947 -235.50808 
L 220.719432 -235.280459 
L 220.870313 -235.470706 
L 221.051882 -235.212381 
L 221.097366 -235.060359 
L 221.399457 -235.129114 
L 221.444655 -235.250816 
L 221.709263 -235.045806 
L 221.807827 -234.70375 
L 221.996567 -234.810403 
L 221.799685 -235.2588 
L 221.565173 -235.577899 
L 221.610172 -235.88969 
L 221.754034 -235.570495 
L 221.93529 -235.608707 
L 222.139002 -235.844634 
L 222.221944 -235.989192 
L 222.131057 -236.2172 
L 222.395672 -236.004584 
L 222.327334 -236.339066 
L 222.183493 -236.63545 
L 221.971789 -236.817708 
L 221.903387 -237.213021 
L 221.631552 -237.106281 
L 221.488418 -236.733555 
L 221.19362 -236.915729 
L 220.747322 -237.493123 
L 220.845365 -237.645298 
L 221.170669 -237.18943 
L 221.480367 -237.20497 
L 221.502624 -237.592775 
L 221.585575 -237.729723 
L 221.819638 -237.836423 
L 222.068674 -238.072397 
L 222.099312 -237.669443 
L 222.220121 -237.722797 
L 222.311019 -237.487184 
L 222.462251 -237.342875 
L 222.243312 -237.220988 
L 222.167977 -237.023214 
L 222.22104 -236.848391 
L 222.364777 -236.650849 
L 222.553593 -236.681468 
L 222.598704 -236.886808 
L 222.77996 -236.92502 
L 222.86347 -236.529728 
L 223.037366 -236.385444 
L 223.248766 -236.49212 
L 223.172719 -236.971059 
L 223.474832 -237.017004 
L 223.761902 -237.002104 
L 224.086782 -236.949225 
L 224.109789 -236.622297 
L 224.39663 -236.820294 
L 224.570342 -236.850896 
L 224.857394 -236.851203 
L 225.280274 -236.988517 
L 225.09172 -236.706984 
L 225.205366 -236.387759 
L 225.31906 -236.022915 
L 225.462821 -235.802567 
L 225.704475 -235.871257 
L 225.772598 -235.742072 
L 225.561328 -235.51374 
L 225.546743 -235.019496 
L 225.509198 -234.80656 
L 225.3433 -234.532655 
L 225.079047 -234.403114 
L 224.860005 -234.380067 
L 224.716452 -234.402725 
L 224.354198 -234.082989 
L 224.595889 -234.121267 
L 224.799957 -234.015036 
L 225.026644 -233.954449 
L 225.155295 -233.734089 
L 225.004537 -233.429787 
L 224.808375 -233.20147 
L 224.528877 -233.201169 
L 224.354972 -233.353052 
L 224.256456 -233.649482 
L 224.293993 -233.870024 
L 224.044662 -233.91538 
L 224.06766 -233.596057 
L 223.954472 -233.48188 
L 223.742799 -233.633724 
L 223.493424 -233.717094 
L 223.282129 -233.511576 
L 222.738175 -233.571819 
L 222.806633 -233.123286 
L 223.343713 -232.424336 
L 224.567905 -232.015063 
L 225.187837 -231.544315 
L 225.301531 -231.187077 
L 225.067543 -231.011943 
L 225.354954 -230.6777 
L 224.939535 -230.624026 
L 224.524461 -230.251006 
L 224.977785 -230.175463 
L 225.219362 -230.320189 
L 225.574675 -230.062053 
L 225.673637 -229.355037 
L 225.651812 -228.571856 
L 225.213473 -228.761465 
L 225.470793 -228.31314 
L 225.826184 -227.986575 
L 226.030157 -227.97159 
L 225.999525 -228.359334 
L 226.036661 -228.952446 
L 226.058104 -230.09299 
L 226.397967 -230.154188 
L 226.276756 -230.481004 
L 226.525527 -230.960293 
L 226.661646 -230.823578 
L 227.137497 -230.869713 
L 227.205256 -231.082685 
L 226.766701 -231.477589 
L 227.060945 -231.820064 
L 227.634689 -232.155235 
L 227.642666 -231.759866 
L 227.356141 -231.265331 
L 227.469653 -231.075366 
L 227.794338 -231.204979 
L 228.005979 -231.083552 
L 228.17172 -231.50192 
L 228.216664 -231.859331 
L 228.466002 -231.806376 
L 228.421183 -231.334914 
L 228.564983 -231.076552 
L 228.519896 -230.856003 
L 228.746652 -230.726992 
L 228.981037 -230.529558 
L 228.822715 -230.240455 
L 229.064505 -230.179891 
L 229.26125 -229.860758 
L 229.593547 -229.937155 
L 229.668889 -230.119718 
L 229.260492 -230.567879 
L 229.192022 -231.024007 
L 229.562334 -230.864739 
L 229.683556 -230.53032 
L 229.970347 -230.773939 
L 230.122086 -230.158229 
L 230.756496 -230.272968 
L 231.104222 -230.045246 
L 231.247308 -230.455983 
L 231.345003 -230.927499 
L 232.100625 -230.715427 
L 232.433683 -230.077106 
L 232.419173 -229.522044 
L 232.743993 -229.522399 
L 232.971002 -229.157682 
L 232.744755 -228.815286 
L 233.085114 -228.41268 
L 233.394949 -228.298965 
L 233.484307 -229.492793 
L 233.960197 -229.500914 
L 234.217285 -229.265491 
L 234.188465 -227.972892 
L 234.475626 -227.866758 
L 234.732008 -228.285222 
L 235.162456 -228.399743 
L 235.178175 -227.837116 
L 234.861056 -227.699908 
L 234.642441 -227.289086 
L 234.937165 -227.175361 
L 234.787035 -226.300812 
L 235.066785 -226.065417 
L 235.17984 -226.301244 
L 235.277364 -226.924825 
L 235.617485 -226.742719 
L 235.746205 -226.418432 
L 235.323747 -225.900938 
L 235.324121 -225.556254 
L 234.861364 -225.048857 
L 235.334591 -225.191307 
L 235.817952 -225.272942 
L 235.85866 -224.887752 
L 235.748134 -224.644326 
L 236.312745 -224.107647 
L 236.413231 -224.32065 
L 236.231308 -224.898302 
L 236.099897 -225.334078 
L 236.381955 -225.293838 
L 236.411497 -225.912275 
L 236.622718 -226.176089 
L 237.267736 -225.791565 
L 237.801698 -225.650227 
L 237.822835 -224.737855 
L 236.583887 -224.837862 
L 236.664927 -224.412169 
L 237.41072 -223.977069 
L 238.43837 -223.684215 
L 238.871239 -223.88745 
L 238.911934 -223.512397 
L 238.529629 -223.126743 
L 239.113694 -223.218628 
L 239.254387 -223.502642 
L 239.445752 -223.502854 
L 239.940094 -222.753216 
L 240.383731 -222.317787 
L 241.180241 -221.558351 
L 242.218252 -221.001941 
L 242.349787 -220.454654 
L 242.10819 -220.34287 
L 242.36097 -219.451044 
L 242.06004 -218.345705 
L 242.452535 -218.619862 
L 242.855499 -218.539213 
L 243.076572 -218.995654 
L 243.317787 -219.452117 
L 243.377636 -219.979339 
L 243.386712 -220.881595 
L 243.668697 -220.902188 
L 244.192999 -220.385756 
L 244.605996 -220.335534 
L 244.797124 -220.548635 
L 244.726219 -220.913507 
L 245.269619 -221.339895 
L 244.373102 -221.460543 
L 244.352591 -221.795059 
L 245.057711 -221.704608 
L 245.057319 -222.059424 
L 243.868098 -222.747452 
L 243.637162 -222.098387 
L 243.22393 -222.361504 
L 243.515485 -222.838294 
L 243.595625 -223.233752 
L 243.797083 -223.213703 
L 243.888038 -222.92995 
L 244.210336 -222.930309 
L 244.270441 -223.224365 
L 244.804354 -223.123586 
L 245.610971 -222.323619 
L 245.369924 -221.715096 
L 245.672221 -221.583648 
L 245.732347 -221.857427 
L 246.004295 -221.847596 
L 246.045131 -221.350902 
L 246.891982 -220.601675 
L 247.06372 -220.135541 
L 247.32555 -220.166247 
L 247.344635 -221.119196 
L 246.790256 -221.513939 
L 246.759705 -221.818027 
L 247.051603 -221.980555 
L 247.665965 -221.991382 
L 247.676475 -221.59603 
L 247.988739 -221.55583 
L 247.978442 -221.758569 
L 248.49175 -222.073409 
L 248.895007 -221.719048 
L 249.328528 -221.324175 
L 249.006908 -220.715565 
L 248.644758 -220.329932 
L 248.323071 -219.782144 
L 248.706246 -219.377077 
L 248.796295 -219.914466 
L 249.380099 -220.229387 
L 250.115251 -220.301177 
L 250.707999 -221.62985 
L 251.623772 -222.299949 
L 251.039349 -222.542589 
L 250.79681 -223.282351 
L 244.602983 -252.629819 
L 241.871018 -255.105439 
L 240.064451 -257.87755 
L 239.602602 -259.323528 
L 239.097346 -261.048209 
L 238.905796 -262.076564 
L 240.998243 -265.284203 
L 241.051582 -267.993198 
L 243.235426 -270.760783 
L 242.455591 -274.921325 
L 249.554745 -270.269992 
L 422.001369 -313.900522 
" style="stroke: #0000ff; stroke-width: 0.5"/>
    </defs>
    <g clip-path="url(#p9dab0c90cf)">
     <use xlink:href="#mefc6df66b6" x="0" y="864" style="fill: #e0bd1f; stroke: #0000ff; stroke-width: 0.5"/>
    </g>
   </g>
   <g id="PatchCollection_2">
    <path d="M 312.090413 133.92 
L 319.561425 138.260349 
L 323.67961 140.309095 
L 333.326917 149.90661 
L 350.667226 167.156319 
L 351.032327 171.096054 
L 353.095236 176.623271 
L 356.252896 179.847026 
L 379.928366 189.553178 
L 396.058209 212.303124 
L 452.54418 383.203326 
L 461.744421 424.902929 
L 530.425904 548.518858 
L 524.227114 565.512529 
L 504.966716 534.704947 
L 504.750056 534.356109 
L 501.998884 529.926495 
L 500.599335 530.279419 
L 500.439339 530.024019 
L 249.733963 593.576798 
L 242.634858 588.925505 
L 239.881838 587.373323 
L 242.408513 581.341565 
L 241.674962 578.407196 
L 241.776845 576.226797 
L 241.634209 574.800368 
L 241.634208 574.127908 
L 244.419163 572.453945 
L 246.524547 568.381436 
L 249.74402 566.42519 
L 252.800482 565.121026 
L 254.430595 564.142903 
L 256.590494 563.00176 
L 257.97609 561.290044 
L 258.648512 558.416809 
L 259.182246 557.529145 
L 260.523144 555.299042 
L 264.333533 551.54957 
L 266.208164 547.555569 
L 266.218261 547.35046 
L 266.595316 539.68983 
L 267.349241 536.999991 
L 267.267735 535.451296 
L 266.411926 534.799214 
L 258.09835 532.557683 
L 257.038776 517.967349 
L 255.082641 516.377899 
L 253.636777 514.005729 
L 252.718977 510.957468 
L 247.414327 511.275574 
L 242.286254 508.634426 
L 241.659906 488.343301 
L 239.963343 481.85831 
L 241.674962 474.848429 
L 241.389692 468.001568 
L 234.543218 459.850544 
L 233.218749 455.224831 
L 228.063519 452.10707 
L 227.207709 450.802906 
L 249.678373 360.141993 
L 256.47051 318.254783 
L 258.090109 313.934693 
L 260.252404 309.704565 
L 262.160961 307.525094 
L 262.285785 301.373497 
L 258.337059 294.839004 
L 256.552369 288.047276 
L 257.138364 282.589066 
L 257.058144 278.43519 
L 258.074731 273.180341 
L 257.281387 269.800109 
L 254.206464 258.254186 
L 236.66011 257.122099 
L 242.439762 249.469065 
L 244.920788 242.962864 
L 249.502185 236.466494 
L 249.60133 229.817253 
L 250.864783 218.983491 
L 256.975132 211.471381 
L 261.250273 206.682655 
L 270.906437 210.270156 
L 276.846921 203.914022 
L 268.35675 184.668547 
L 226.358704 173.691057 
L 228.424961 169.456923 
L 226.169992 165.456081 
L 228.74642 163.037813 
L 236.774701 155.502369 
L 244.961208 151.300515 
L 250.643971 152.495835 
L 260.771208 152.070202 
L 266.336914 150.619906 
L 272.046948 148.268337 
L 278.169803 140.581809 
L 285.785376 134.904035 
L 290.493534 136.574602 
L 301.896028 135.173039 
L 312.090413 133.92 
" clip-path="url(#p9dab0c90cf)" style="fill: none; stroke: #000000"/>
   </g>
   <g id="matplotlib.axis_1">
    <g id="xtick_1">
     <g id="line2d_1">
      <path d="M 154.588458 768.96 
L 154.588458 103.68 
" clip-path="url(#p9dab0c90cf)" style="fill: none; stroke: #b0b0b0; stroke-width: 0.8; stroke-linecap: square"/>
     </g>
     <g id="line2d_2">
      <defs>
       <path id="m2c71951ef4" d="M 0 0 
L 0 3.5 
" style="stroke: #000000; stroke-width: 0.8"/>
      </defs>
      <g>
       <use xlink:href="#m2c71951ef4" x="154.588458" y="768.96" style="stroke: #000000; stroke-width: 0.8"/>
      </g>
     </g>
     <g id="text_1">
      <!-- −60.4 -->
      <g transform="translate(145.704876 803.002415) rotate(-45) scale(0.1 -0.1)">
       <defs>
        <path id="DejaVuSans-2212" d="M 678 2272 
L 4684 2272 
L 4684 1741 
L 678 1741 
L 678 2272 
z
" transform="scale(0.015625)"/>
        <path id="DejaVuSans-36" d="M 2113 2584 
Q 1688 2584 1439 2293 
Q 1191 2003 1191 1497 
Q 1191 994 1439 701 
Q 1688 409 2113 409 
Q 2538 409 2786 701 
Q 3034 994 3034 1497 
Q 3034 2003 2786 2293 
Q 2538 2584 2113 2584 
z
M 3366 4563 
L 3366 3988 
Q 3128 4100 2886 4159 
Q 2644 4219 2406 4219 
Q 1781 4219 1451 3797 
Q 1122 3375 1075 2522 
Q 1259 2794 1537 2939 
Q 1816 3084 2150 3084 
Q 2853 3084 3261 2657 
Q 3669 2231 3669 1497 
Q 3669 778 3244 343 
Q 2819 -91 2113 -91 
Q 1303 -91 875 529 
Q 447 1150 447 2328 
Q 447 3434 972 4092 
Q 1497 4750 2381 4750 
Q 2619 4750 2861 4703 
Q 3103 4656 3366 4563 
z
" transform="scale(0.015625)"/>
        <path id="DejaVuSans-30" d="M 2034 4250 
Q 1547 4250 1301 3770 
Q 1056 3291 1056 2328 
Q 1056 1369 1301 889 
Q 1547 409 2034 409 
Q 2525 409 2770 889 
Q 3016 1369 3016 2328 
Q 3016 3291 2770 3770 
Q 2525 4250 2034 4250 
z
M 2034 4750 
Q 2819 4750 3233 4129 
Q 3647 3509 3647 2328 
Q 3647 1150 3233 529 
Q 2819 -91 2034 -91 
Q 1250 -91 836 529 
Q 422 1150 422 2328 
Q 422 3509 836 4129 
Q 1250 4750 2034 4750 
z
" transform="scale(0.015625)"/>
        <path id="DejaVuSans-2e" d="M 684 794 
L 1344 794 
L 1344 0 
L 684 0 
L 684 794 
z
" transform="scale(0.015625)"/>
        <path id="DejaVuSans-34" d="M 2419 4116 
L 825 1625 
L 2419 1625 
L 2419 4116 
z
M 2253 4666 
L 3047 4666 
L 3047 1625 
L 3713 1625 
L 3713 1100 
L 3047 1100 
L 3047 0 
L 2419 0 
L 2419 1100 
L 313 1100 
L 313 1709 
L 2253 4666 
z
" transform="scale(0.015625)"/>
       </defs>
       <use xlink:href="#DejaVuSans-2212"/>
       <use xlink:href="#DejaVuSans-36" transform="translate(83.789062 0)"/>
       <use xlink:href="#DejaVuSans-30" transform="translate(147.412109 0)"/>
       <use xlink:href="#DejaVuSans-2e" transform="translate(211.035156 0)"/>
       <use xlink:href="#DejaVuSans-34" transform="translate(242.822266 0)"/>
      </g>
     </g>
    </g>
    <g id="xtick_2">
     <g id="line2d_3">
      <path d="M 236.094102 768.96 
L 236.094102 103.68 
" clip-path="url(#p9dab0c90cf)" style="fill: none; stroke: #b0b0b0; stroke-width: 0.8; stroke-linecap: square"/>
     </g>
     <g id="line2d_4">
      <g>
       <use xlink:href="#m2c71951ef4" x="236.094102" y="768.96" style="stroke: #000000; stroke-width: 0.8"/>
      </g>
     </g>
     <g id="text_2">
      <!-- −60.2 -->
      <g transform="translate(227.21052 803.002415) rotate(-45) scale(0.1 -0.1)">
       <defs>
        <path id="DejaVuSans-32" d="M 1228 531 
L 3431 531 
L 3431 0 
L 469 0 
L 469 531 
Q 828 903 1448 1529 
Q 2069 2156 2228 2338 
Q 2531 2678 2651 2914 
Q 2772 3150 2772 3378 
Q 2772 3750 2511 3984 
Q 2250 4219 1831 4219 
Q 1534 4219 1204 4116 
Q 875 4013 500 3803 
L 500 4441 
Q 881 4594 1212 4672 
Q 1544 4750 1819 4750 
Q 2544 4750 2975 4387 
Q 3406 4025 3406 3419 
Q 3406 3131 3298 2873 
Q 3191 2616 2906 2266 
Q 2828 2175 2409 1742 
Q 1991 1309 1228 531 
z
" transform="scale(0.015625)"/>
       </defs>
       <use xlink:href="#DejaVuSans-2212"/>
       <use xlink:href="#DejaVuSans-36" transform="translate(83.789062 0)"/>
       <use xlink:href="#DejaVuSans-30" transform="translate(147.412109 0)"/>
       <use xlink:href="#DejaVuSans-2e" transform="translate(211.035156 0)"/>
       <use xlink:href="#DejaVuSans-32" transform="translate(242.822266 0)"/>
      </g>
     </g>
    </g>
    <g id="xtick_3">
     <g id="line2d_5">
      <path d="M 317.599745 768.96 
L 317.599745 103.68 
" clip-path="url(#p9dab0c90cf)" style="fill: none; stroke: #b0b0b0; stroke-width: 0.8; stroke-linecap: square"/>
     </g>
     <g id="line2d_6">
      <g>
       <use xlink:href="#m2c71951ef4" x="317.599745" y="768.96" style="stroke: #000000; stroke-width: 0.8"/>
      </g>
     </g>
     <g id="text_3">
      <!-- −60.0 -->
      <g transform="translate(308.716164 803.002415) rotate(-45) scale(0.1 -0.1)">
       <use xlink:href="#DejaVuSans-2212"/>
       <use xlink:href="#DejaVuSans-36" transform="translate(83.789062 0)"/>
       <use xlink:href="#DejaVuSans-30" transform="translate(147.412109 0)"/>
       <use xlink:href="#DejaVuSans-2e" transform="translate(211.035156 0)"/>
       <use xlink:href="#DejaVuSans-30" transform="translate(242.822266 0)"/>
      </g>
     </g>
    </g>
    <g id="xtick_4">
     <g id="line2d_7">
      <path d="M 399.105389 768.96 
L 399.105389 103.68 
" clip-path="url(#p9dab0c90cf)" style="fill: none; stroke: #b0b0b0; stroke-width: 0.8; stroke-linecap: square"/>
     </g>
     <g id="line2d_8">
      <g>
       <use xlink:href="#m2c71951ef4" x="399.105389" y="768.96" style="stroke: #000000; stroke-width: 0.8"/>
      </g>
     </g>
     <g id="text_4">
      <!-- −59.8 -->
      <g transform="translate(390.221808 803.002415) rotate(-45) scale(0.1 -0.1)">
       <defs>
        <path id="DejaVuSans-35" d="M 691 4666 
L 3169 4666 
L 3169 4134 
L 1269 4134 
L 1269 2991 
Q 1406 3038 1543 3061 
Q 1681 3084 1819 3084 
Q 2600 3084 3056 2656 
Q 3513 2228 3513 1497 
Q 3513 744 3044 326 
Q 2575 -91 1722 -91 
Q 1428 -91 1123 -41 
Q 819 9 494 109 
L 494 744 
Q 775 591 1075 516 
Q 1375 441 1709 441 
Q 2250 441 2565 725 
Q 2881 1009 2881 1497 
Q 2881 1984 2565 2268 
Q 2250 2553 1709 2553 
Q 1456 2553 1204 2497 
Q 953 2441 691 2322 
L 691 4666 
z
" transform="scale(0.015625)"/>
        <path id="DejaVuSans-39" d="M 703 97 
L 703 672 
Q 941 559 1184 500 
Q 1428 441 1663 441 
Q 2288 441 2617 861 
Q 2947 1281 2994 2138 
Q 2813 1869 2534 1725 
Q 2256 1581 1919 1581 
Q 1219 1581 811 2004 
Q 403 2428 403 3163 
Q 403 3881 828 4315 
Q 1253 4750 1959 4750 
Q 2769 4750 3195 4129 
Q 3622 3509 3622 2328 
Q 3622 1225 3098 567 
Q 2575 -91 1691 -91 
Q 1453 -91 1209 -44 
Q 966 3 703 97 
z
M 1959 2075 
Q 2384 2075 2632 2365 
Q 2881 2656 2881 3163 
Q 2881 3666 2632 3958 
Q 2384 4250 1959 4250 
Q 1534 4250 1286 3958 
Q 1038 3666 1038 3163 
Q 1038 2656 1286 2365 
Q 1534 2075 1959 2075 
z
" transform="scale(0.015625)"/>
        <path id="DejaVuSans-38" d="M 2034 2216 
Q 1584 2216 1326 1975 
Q 1069 1734 1069 1313 
Q 1069 891 1326 650 
Q 1584 409 2034 409 
Q 2484 409 2743 651 
Q 3003 894 3003 1313 
Q 3003 1734 2745 1975 
Q 2488 2216 2034 2216 
z
M 1403 2484 
Q 997 2584 770 2862 
Q 544 3141 544 3541 
Q 544 4100 942 4425 
Q 1341 4750 2034 4750 
Q 2731 4750 3128 4425 
Q 3525 4100 3525 3541 
Q 3525 3141 3298 2862 
Q 3072 2584 2669 2484 
Q 3125 2378 3379 2068 
Q 3634 1759 3634 1313 
Q 3634 634 3220 271 
Q 2806 -91 2034 -91 
Q 1263 -91 848 271 
Q 434 634 434 1313 
Q 434 1759 690 2068 
Q 947 2378 1403 2484 
z
M 1172 3481 
Q 1172 3119 1398 2916 
Q 1625 2713 2034 2713 
Q 2441 2713 2670 2916 
Q 2900 3119 2900 3481 
Q 2900 3844 2670 4047 
Q 2441 4250 2034 4250 
Q 1625 4250 1398 4047 
Q 1172 3844 1172 3481 
z
" transform="scale(0.015625)"/>
       </defs>
       <use xlink:href="#DejaVuSans-2212"/>
       <use xlink:href="#DejaVuSans-35" transform="translate(83.789062 0)"/>
       <use xlink:href="#DejaVuSans-39" transform="translate(147.412109 0)"/>
       <use xlink:href="#DejaVuSans-2e" transform="translate(211.035156 0)"/>
       <use xlink:href="#DejaVuSans-38" transform="translate(242.822266 0)"/>
      </g>
     </g>
    </g>
    <g id="xtick_5">
     <g id="line2d_9">
      <path d="M 480.611033 768.96 
L 480.611033 103.68 
" clip-path="url(#p9dab0c90cf)" style="fill: none; stroke: #b0b0b0; stroke-width: 0.8; stroke-linecap: square"/>
     </g>
     <g id="line2d_10">
      <g>
       <use xlink:href="#m2c71951ef4" x="480.611033" y="768.96" style="stroke: #000000; stroke-width: 0.8"/>
      </g>
     </g>
     <g id="text_5">
      <!-- −59.6 -->
      <g transform="translate(471.727452 803.002415) rotate(-45) scale(0.1 -0.1)">
       <use xlink:href="#DejaVuSans-2212"/>
       <use xlink:href="#DejaVuSans-35" transform="translate(83.789062 0)"/>
       <use xlink:href="#DejaVuSans-39" transform="translate(147.412109 0)"/>
       <use xlink:href="#DejaVuSans-2e" transform="translate(211.035156 0)"/>
       <use xlink:href="#DejaVuSans-36" transform="translate(242.822266 0)"/>
      </g>
     </g>
    </g>
    <g id="xtick_6">
     <g id="line2d_11">
      <path d="M 562.116677 768.96 
L 562.116677 103.68 
" clip-path="url(#p9dab0c90cf)" style="fill: none; stroke: #b0b0b0; stroke-width: 0.8; stroke-linecap: square"/>
     </g>
     <g id="line2d_12">
      <g>
       <use xlink:href="#m2c71951ef4" x="562.116677" y="768.96" style="stroke: #000000; stroke-width: 0.8"/>
      </g>
     </g>
     <g id="text_6">
      <!-- −59.4 -->
      <g transform="translate(553.233096 803.002415) rotate(-45) scale(0.1 -0.1)">
       <use xlink:href="#DejaVuSans-2212"/>
       <use xlink:href="#DejaVuSans-35" transform="translate(83.789062 0)"/>
       <use xlink:href="#DejaVuSans-39" transform="translate(147.412109 0)"/>
       <use xlink:href="#DejaVuSans-2e" transform="translate(211.035156 0)"/>
       <use xlink:href="#DejaVuSans-34" transform="translate(242.822266 0)"/>
      </g>
     </g>
    </g>
    <g id="text_7">
     <!-- Longitude (°) -->
     <g transform="translate(336.139844 816.071414) scale(0.1 -0.1)">
      <defs>
       <path id="DejaVuSans-4c" d="M 628 4666 
L 1259 4666 
L 1259 531 
L 3531 531 
L 3531 0 
L 628 0 
L 628 4666 
z
" transform="scale(0.015625)"/>
       <path id="DejaVuSans-6f" d="M 1959 3097 
Q 1497 3097 1228 2736 
Q 959 2375 959 1747 
Q 959 1119 1226 758 
Q 1494 397 1959 397 
Q 2419 397 2687 759 
Q 2956 1122 2956 1747 
Q 2956 2369 2687 2733 
Q 2419 3097 1959 3097 
z
M 1959 3584 
Q 2709 3584 3137 3096 
Q 3566 2609 3566 1747 
Q 3566 888 3137 398 
Q 2709 -91 1959 -91 
Q 1206 -91 779 398 
Q 353 888 353 1747 
Q 353 2609 779 3096 
Q 1206 3584 1959 3584 
z
" transform="scale(0.015625)"/>
       <path id="DejaVuSans-6e" d="M 3513 2113 
L 3513 0 
L 2938 0 
L 2938 2094 
Q 2938 2591 2744 2837 
Q 2550 3084 2163 3084 
Q 1697 3084 1428 2787 
Q 1159 2491 1159 1978 
L 1159 0 
L 581 0 
L 581 3500 
L 1159 3500 
L 1159 2956 
Q 1366 3272 1645 3428 
Q 1925 3584 2291 3584 
Q 2894 3584 3203 3211 
Q 3513 2838 3513 2113 
z
" transform="scale(0.015625)"/>
       <path id="DejaVuSans-67" d="M 2906 1791 
Q 2906 2416 2648 2759 
Q 2391 3103 1925 3103 
Q 1463 3103 1205 2759 
Q 947 2416 947 1791 
Q 947 1169 1205 825 
Q 1463 481 1925 481 
Q 2391 481 2648 825 
Q 2906 1169 2906 1791 
z
M 3481 434 
Q 3481 -459 3084 -895 
Q 2688 -1331 1869 -1331 
Q 1566 -1331 1297 -1286 
Q 1028 -1241 775 -1147 
L 775 -588 
Q 1028 -725 1275 -790 
Q 1522 -856 1778 -856 
Q 2344 -856 2625 -561 
Q 2906 -266 2906 331 
L 2906 616 
Q 2728 306 2450 153 
Q 2172 0 1784 0 
Q 1141 0 747 490 
Q 353 981 353 1791 
Q 353 2603 747 3093 
Q 1141 3584 1784 3584 
Q 2172 3584 2450 3431 
Q 2728 3278 2906 2969 
L 2906 3500 
L 3481 3500 
L 3481 434 
z
" transform="scale(0.015625)"/>
       <path id="DejaVuSans-69" d="M 603 3500 
L 1178 3500 
L 1178 0 
L 603 0 
L 603 3500 
z
M 603 4863 
L 1178 4863 
L 1178 4134 
L 603 4134 
L 603 4863 
z
" transform="scale(0.015625)"/>
       <path id="DejaVuSans-74" d="M 1172 4494 
L 1172 3500 
L 2356 3500 
L 2356 3053 
L 1172 3053 
L 1172 1153 
Q 1172 725 1289 603 
Q 1406 481 1766 481 
L 2356 481 
L 2356 0 
L 1766 0 
Q 1100 0 847 248 
Q 594 497 594 1153 
L 594 3053 
L 172 3053 
L 172 3500 
L 594 3500 
L 594 4494 
L 1172 4494 
z
" transform="scale(0.015625)"/>
       <path id="DejaVuSans-75" d="M 544 1381 
L 544 3500 
L 1119 3500 
L 1119 1403 
Q 1119 906 1312 657 
Q 1506 409 1894 409 
Q 2359 409 2629 706 
Q 2900 1003 2900 1516 
L 2900 3500 
L 3475 3500 
L 3475 0 
L 2900 0 
L 2900 538 
Q 2691 219 2414 64 
Q 2138 -91 1772 -91 
Q 1169 -91 856 284 
Q 544 659 544 1381 
z
M 1991 3584 
L 1991 3584 
z
" transform="scale(0.015625)"/>
       <path id="DejaVuSans-64" d="M 2906 2969 
L 2906 4863 
L 3481 4863 
L 3481 0 
L 2906 0 
L 2906 525 
Q 2725 213 2448 61 
Q 2172 -91 1784 -91 
Q 1150 -91 751 415 
Q 353 922 353 1747 
Q 353 2572 751 3078 
Q 1150 3584 1784 3584 
Q 2172 3584 2448 3432 
Q 2725 3281 2906 2969 
z
M 947 1747 
Q 947 1113 1208 752 
Q 1469 391 1925 391 
Q 2381 391 2643 752 
Q 2906 1113 2906 1747 
Q 2906 2381 2643 2742 
Q 2381 3103 1925 3103 
Q 1469 3103 1208 2742 
Q 947 2381 947 1747 
z
" transform="scale(0.015625)"/>
       <path id="DejaVuSans-65" d="M 3597 1894 
L 3597 1613 
L 953 1613 
Q 991 1019 1311 708 
Q 1631 397 2203 397 
Q 2534 397 2845 478 
Q 3156 559 3463 722 
L 3463 178 
Q 3153 47 2828 -22 
Q 2503 -91 2169 -91 
Q 1331 -91 842 396 
Q 353 884 353 1716 
Q 353 2575 817 3079 
Q 1281 3584 2069 3584 
Q 2775 3584 3186 3129 
Q 3597 2675 3597 1894 
z
M 3022 2063 
Q 3016 2534 2758 2815 
Q 2500 3097 2075 3097 
Q 1594 3097 1305 2825 
Q 1016 2553 972 2059 
L 3022 2063 
z
" transform="scale(0.015625)"/>
       <path id="DejaVuSans-20" transform="scale(0.015625)"/>
       <path id="DejaVuSans-28" d="M 1984 4856 
Q 1566 4138 1362 3434 
Q 1159 2731 1159 2009 
Q 1159 1288 1364 580 
Q 1569 -128 1984 -844 
L 1484 -844 
Q 1016 -109 783 600 
Q 550 1309 550 2009 
Q 550 2706 781 3412 
Q 1013 4119 1484 4856 
L 1984 4856 
z
" transform="scale(0.015625)"/>
       <path id="DejaVuSans-b0" d="M 1600 4347 
Q 1350 4347 1178 4173 
Q 1006 4000 1006 3750 
Q 1006 3503 1178 3333 
Q 1350 3163 1600 3163 
Q 1850 3163 2022 3333 
Q 2194 3503 2194 3750 
Q 2194 3997 2020 4172 
Q 1847 4347 1600 4347 
z
M 1600 4750 
Q 1800 4750 1984 4673 
Q 2169 4597 2303 4453 
Q 2447 4313 2519 4134 
Q 2591 3956 2591 3750 
Q 2591 3338 2302 3052 
Q 2013 2766 1594 2766 
Q 1172 2766 890 3047 
Q 609 3328 609 3750 
Q 609 4169 896 4459 
Q 1184 4750 1600 4750 
z
" transform="scale(0.015625)"/>
       <path id="DejaVuSans-29" d="M 513 4856 
L 1013 4856 
Q 1481 4119 1714 3412 
Q 1947 2706 1947 2009 
Q 1947 1309 1714 600 
Q 1481 -109 1013 -844 
L 513 -844 
Q 928 -128 1133 580 
Q 1338 1288 1338 2009 
Q 1338 2731 1133 3434 
Q 928 4138 513 4856 
z
" transform="scale(0.015625)"/>
      </defs>
      <use xlink:href="#DejaVuSans-4c"/>
      <use xlink:href="#DejaVuSans-6f" transform="translate(53.962891 0)"/>
      <use xlink:href="#DejaVuSans-6e" transform="translate(115.144531 0)"/>
      <use xlink:href="#DejaVuSans-67" transform="translate(178.523438 0)"/>
      <use xlink:href="#DejaVuSans-69" transform="translate(242 0)"/>
      <use xlink:href="#DejaVuSans-74" transform="translate(269.783203 0)"/>
      <use xlink:href="#DejaVuSans-75" transform="translate(308.992188 0)"/>
      <use xlink:href="#DejaVuSans-64" transform="translate(372.371094 0)"/>
      <use xlink:href="#DejaVuSans-65" transform="translate(435.847656 0)"/>
      <use xlink:href="#DejaVuSans-20" transform="translate(497.371094 0)"/>
      <use xlink:href="#DejaVuSans-28" transform="translate(529.158203 0)"/>
      <use xlink:href="#DejaVuSans-b0" transform="translate(568.171875 0)"/>
      <use xlink:href="#DejaVuSans-29" transform="translate(618.171875 0)"/>
     </g>
    </g>
   </g>
   <g id="matplotlib.axis_2">
    <g id="ytick_1">
     <g id="line2d_13">
      <path d="M 138.117937 767.693223 
L 599.882063 767.693223 
" clip-path="url(#p9dab0c90cf)" style="fill: none; stroke: #b0b0b0; stroke-width: 0.8; stroke-linecap: square"/>
     </g>
     <g id="line2d_14">
      <defs>
       <path id="m30816812a6" d="M 0 0 
L -3.5 0 
" style="stroke: #000000; stroke-width: 0.8"/>
      </defs>
      <g>
       <use xlink:href="#m30816812a6" x="138.117937" y="767.693223" style="stroke: #000000; stroke-width: 0.8"/>
      </g>
     </g>
     <g id="text_8">
      <!-- −1.6 -->
      <g transform="translate(106.835125 771.492442) scale(0.1 -0.1)">
       <defs>
        <path id="DejaVuSans-31" d="M 794 531 
L 1825 531 
L 1825 4091 
L 703 3866 
L 703 4441 
L 1819 4666 
L 2450 4666 
L 2450 531 
L 3481 531 
L 3481 0 
L 794 0 
L 794 531 
z
" transform="scale(0.015625)"/>
       </defs>
       <use xlink:href="#DejaVuSans-2212"/>
       <use xlink:href="#DejaVuSans-31" transform="translate(83.789062 0)"/>
       <use xlink:href="#DejaVuSans-2e" transform="translate(147.412109 0)"/>
       <use xlink:href="#DejaVuSans-36" transform="translate(179.199219 0)"/>
      </g>
     </g>
    </g>
    <g id="ytick_2">
     <g id="line2d_15">
      <path d="M 138.117937 686.182977 
L 599.882063 686.182977 
" clip-path="url(#p9dab0c90cf)" style="fill: none; stroke: #b0b0b0; stroke-width: 0.8; stroke-linecap: square"/>
     </g>
     <g id="line2d_16">
      <g>
       <use xlink:href="#m30816812a6" x="138.117937" y="686.182977" style="stroke: #000000; stroke-width: 0.8"/>
      </g>
     </g>
     <g id="text_9">
      <!-- −1.4 -->
      <g transform="translate(106.835125 689.982196) scale(0.1 -0.1)">
       <use xlink:href="#DejaVuSans-2212"/>
       <use xlink:href="#DejaVuSans-31" transform="translate(83.789062 0)"/>
       <use xlink:href="#DejaVuSans-2e" transform="translate(147.412109 0)"/>
       <use xlink:href="#DejaVuSans-34" transform="translate(179.199219 0)"/>
      </g>
     </g>
    </g>
    <g id="ytick_3">
     <g id="line2d_17">
      <path d="M 138.117937 604.672731 
L 599.882063 604.672731 
" clip-path="url(#p9dab0c90cf)" style="fill: none; stroke: #b0b0b0; stroke-width: 0.8; stroke-linecap: square"/>
     </g>
     <g id="line2d_18">
      <g>
       <use xlink:href="#m30816812a6" x="138.117937" y="604.672731" style="stroke: #000000; stroke-width: 0.8"/>
      </g>
     </g>
     <g id="text_10">
      <!-- −1.2 -->
      <g transform="translate(106.835125 608.47195) scale(0.1 -0.1)">
       <use xlink:href="#DejaVuSans-2212"/>
       <use xlink:href="#DejaVuSans-31" transform="translate(83.789062 0)"/>
       <use xlink:href="#DejaVuSans-2e" transform="translate(147.412109 0)"/>
       <use xlink:href="#DejaVuSans-32" transform="translate(179.199219 0)"/>
      </g>
     </g>
    </g>
    <g id="ytick_4">
     <g id="line2d_19">
      <path d="M 138.117937 523.162485 
L 599.882063 523.162485 
" clip-path="url(#p9dab0c90cf)" style="fill: none; stroke: #b0b0b0; stroke-width: 0.8; stroke-linecap: square"/>
     </g>
     <g id="line2d_20">
      <g>
       <use xlink:href="#m30816812a6" x="138.117937" y="523.162485" style="stroke: #000000; stroke-width: 0.8"/>
      </g>
     </g>
     <g id="text_11">
      <!-- −1.0 -->
      <g transform="translate(106.835125 526.961704) scale(0.1 -0.1)">
       <use xlink:href="#DejaVuSans-2212"/>
       <use xlink:href="#DejaVuSans-31" transform="translate(83.789062 0)"/>
       <use xlink:href="#DejaVuSans-2e" transform="translate(147.412109 0)"/>
       <use xlink:href="#DejaVuSans-30" transform="translate(179.199219 0)"/>
      </g>
     </g>
    </g>
    <g id="ytick_5">
     <g id="line2d_21">
      <path d="M 138.117937 441.652239 
L 599.882063 441.652239 
" clip-path="url(#p9dab0c90cf)" style="fill: none; stroke: #b0b0b0; stroke-width: 0.8; stroke-linecap: square"/>
     </g>
     <g id="line2d_22">
      <g>
       <use xlink:href="#m30816812a6" x="138.117937" y="441.652239" style="stroke: #000000; stroke-width: 0.8"/>
      </g>
     </g>
     <g id="text_12">
      <!-- −0.8 -->
      <g transform="translate(106.835125 445.451458) scale(0.1 -0.1)">
       <use xlink:href="#DejaVuSans-2212"/>
       <use xlink:href="#DejaVuSans-30" transform="translate(83.789062 0)"/>
       <use xlink:href="#DejaVuSans-2e" transform="translate(147.412109 0)"/>
       <use xlink:href="#DejaVuSans-38" transform="translate(179.199219 0)"/>
      </g>
     </g>
    </g>
    <g id="ytick_6">
     <g id="line2d_23">
      <path d="M 138.117937 360.141993 
L 599.882063 360.141993 
" clip-path="url(#p9dab0c90cf)" style="fill: none; stroke: #b0b0b0; stroke-width: 0.8; stroke-linecap: square"/>
     </g>
     <g id="line2d_24">
      <g>
       <use xlink:href="#m30816812a6" x="138.117937" y="360.141993" style="stroke: #000000; stroke-width: 0.8"/>
      </g>
     </g>
     <g id="text_13">
      <!-- −0.6 -->
      <g transform="translate(106.835125 363.941212) scale(0.1 -0.1)">
       <use xlink:href="#DejaVuSans-2212"/>
       <use xlink:href="#DejaVuSans-30" transform="translate(83.789062 0)"/>
       <use xlink:href="#DejaVuSans-2e" transform="translate(147.412109 0)"/>
       <use xlink:href="#DejaVuSans-36" transform="translate(179.199219 0)"/>
      </g>
     </g>
    </g>
    <g id="ytick_7">
     <g id="line2d_25">
      <path d="M 138.117937 278.631747 
L 599.882063 278.631747 
" clip-path="url(#p9dab0c90cf)" style="fill: none; stroke: #b0b0b0; stroke-width: 0.8; stroke-linecap: square"/>
     </g>
     <g id="line2d_26">
      <g>
       <use xlink:href="#m30816812a6" x="138.117937" y="278.631747" style="stroke: #000000; stroke-width: 0.8"/>
      </g>
     </g>
     <g id="text_14">
      <!-- −0.4 -->
      <g transform="translate(106.835125 282.430966) scale(0.1 -0.1)">
       <use xlink:href="#DejaVuSans-2212"/>
       <use xlink:href="#DejaVuSans-30" transform="translate(83.789062 0)"/>
       <use xlink:href="#DejaVuSans-2e" transform="translate(147.412109 0)"/>
       <use xlink:href="#DejaVuSans-34" transform="translate(179.199219 0)"/>
      </g>
     </g>
    </g>
    <g id="ytick_8">
     <g id="line2d_27">
      <path d="M 138.117937 197.121501 
L 599.882063 197.121501 
" clip-path="url(#p9dab0c90cf)" style="fill: none; stroke: #b0b0b0; stroke-width: 0.8; stroke-linecap: square"/>
     </g>
     <g id="line2d_28">
      <g>
       <use xlink:href="#m30816812a6" x="138.117937" y="197.121501" style="stroke: #000000; stroke-width: 0.8"/>
      </g>
     </g>
     <g id="text_15">
      <!-- −0.2 -->
      <g transform="translate(106.835125 200.92072) scale(0.1 -0.1)">
       <use xlink:href="#DejaVuSans-2212"/>
       <use xlink:href="#DejaVuSans-30" transform="translate(83.789062 0)"/>
       <use xlink:href="#DejaVuSans-2e" transform="translate(147.412109 0)"/>
       <use xlink:href="#DejaVuSans-32" transform="translate(179.199219 0)"/>
      </g>
     </g>
    </g>
    <g id="ytick_9">
     <g id="line2d_29">
      <path d="M 138.117937 115.611255 
L 599.882063 115.611255 
" clip-path="url(#p9dab0c90cf)" style="fill: none; stroke: #b0b0b0; stroke-width: 0.8; stroke-linecap: square"/>
     </g>
     <g id="line2d_30">
      <g>
       <use xlink:href="#m30816812a6" x="138.117937" y="115.611255" style="stroke: #000000; stroke-width: 0.8"/>
      </g>
     </g>
     <g id="text_16">
      <!-- 0.0 -->
      <g transform="translate(115.214812 119.410474) scale(0.1 -0.1)">
       <use xlink:href="#DejaVuSans-30"/>
       <use xlink:href="#DejaVuSans-2e" transform="translate(63.623047 0)"/>
       <use xlink:href="#DejaVuSans-30" transform="translate(95.410156 0)"/>
      </g>
     </g>
    </g>
    <g id="text_17">
     <!-- Latitude (°) -->
     <g transform="translate(100.755437 464.889531) rotate(-90) scale(0.1 -0.1)">
      <defs>
       <path id="DejaVuSans-61" d="M 2194 1759 
Q 1497 1759 1228 1600 
Q 959 1441 959 1056 
Q 959 750 1161 570 
Q 1363 391 1709 391 
Q 2188 391 2477 730 
Q 2766 1069 2766 1631 
L 2766 1759 
L 2194 1759 
z
M 3341 1997 
L 3341 0 
L 2766 0 
L 2766 531 
Q 2569 213 2275 61 
Q 1981 -91 1556 -91 
Q 1019 -91 701 211 
Q 384 513 384 1019 
Q 384 1609 779 1909 
Q 1175 2209 1959 2209 
L 2766 2209 
L 2766 2266 
Q 2766 2663 2505 2880 
Q 2244 3097 1772 3097 
Q 1472 3097 1187 3025 
Q 903 2953 641 2809 
L 641 3341 
Q 956 3463 1253 3523 
Q 1550 3584 1831 3584 
Q 2591 3584 2966 3190 
Q 3341 2797 3341 1997 
z
" transform="scale(0.015625)"/>
      </defs>
      <use xlink:href="#DejaVuSans-4c"/>
      <use xlink:href="#DejaVuSans-61" transform="translate(55.712891 0)"/>
      <use xlink:href="#DejaVuSans-74" transform="translate(116.992188 0)"/>
      <use xlink:href="#DejaVuSans-69" transform="translate(156.201172 0)"/>
      <use xlink:href="#DejaVuSans-74" transform="translate(183.984375 0)"/>
      <use xlink:href="#DejaVuSans-75" transform="translate(223.193359 0)"/>
      <use xlink:href="#DejaVuSans-64" transform="translate(286.572266 0)"/>
      <use xlink:href="#DejaVuSans-65" transform="translate(350.048828 0)"/>
      <use xlink:href="#DejaVuSans-20" transform="translate(411.572266 0)"/>
      <use xlink:href="#DejaVuSans-28" transform="translate(443.359375 0)"/>
      <use xlink:href="#DejaVuSans-b0" transform="translate(482.373047 0)"/>
      <use xlink:href="#DejaVuSans-29" transform="translate(532.373047 0)"/>
     </g>
    </g>
   </g>
   <g id="patch_3">
    <path d="M 138.117937 768.96 
L 138.117937 103.68 
" style="fill: none; stroke: #000000; stroke-width: 0.8; stroke-linejoin: miter; stroke-linecap: square"/>
   </g>
   <g id="patch_4">
    <path d="M 599.882063 768.96 
L 599.882063 103.68 
" style="fill: none; stroke: #000000; stroke-width: 0.8; stroke-linejoin: miter; stroke-linecap: square"/>
   </g>
   <g id="patch_5">
    <path d="M 138.117937 768.96 
L 599.882063 768.96 
" style="fill: none; stroke: #000000; stroke-width: 0.8; stroke-linejoin: miter; stroke-linecap: square"/>
   </g>
   <g id="patch_6">
    <path d="M 138.117937 103.68 
L 599.882063 103.68 
" style="fill: none; stroke: #000000; stroke-width: 0.8; stroke-linejoin: miter; stroke-linecap: square"/>
   </g>
  </g>
 </g>
 <defs>
  <clipPath id="p9dab0c90cf">
   <rect x="138.117937" y="103.68" width="461.764126" height="665.28"/>
  </clipPath>
 </defs>
</svg>
