<?xml version="1.0" encoding="utf-8" standalone="no"?>
<!DOCTYPE svg PUBLIC "-//W3C//DTD SVG 1.1//EN"
  "http://www.w3.org/Graphics/SVG/1.1/DTD/svg11.dtd">
<svg xmlns:xlink="http://www.w3.org/1999/xlink" width="720pt" height="864pt" viewBox="0 0 720 864" xmlns="http://www.w3.org/2000/svg" version="1.1">
 <metadata>
  <rdf:RDF xmlns:dc="http://purl.org/dc/elements/1.1/" xmlns:cc="http://creativecommons.org/ns#" xmlns:rdf="http://www.w3.org/1999/02/22-rdf-syntax-ns#">
   <cc:Work>
    <dc:type rdf:resource="http://purl.org/dc/dcmitype/StillImage"/>
    <dc:date>2025-06-16T17:19:08.413731</dc:date>
    <dc:format>image/svg+xml</dc:format>
    <dc:creator>
     <cc:Agent>
      <dc:title>Matplotlib v3.10.1, https://matplotlib.org/</dc:title>
     </cc:Agent>
    </dc:creator>
   </cc:Work>
  </rdf:RDF>
 </metadata>
 <defs>
  <style type="text/css">*{stroke-linejoin: round; stroke-linecap: butt}</style>
 </defs>
 <g id="figure_1">
  <g id="patch_1">
   <path d="M 0 864 
L 720 864 
L 720 0 
L 0 0 
z
" style="fill: #ffffff"/>
  </g>
  <g id="axes_1">
   <g id="patch_2">
    <path d="M 162.303292 768.96 
L 575.696708 768.96 
L 575.696708 103.68 
L 162.303292 103.68 
z
" style="fill: #ffffff"/>
   </g>
   <g id="PatchCollection_1">
    <defs>
     <path id="m96ac23ebaa" d="M 445.18455 -718.145404 
L 446.588751 -717.954581 
L 447.964616 -717.525609 
L 449.282707 -716.963397 
L 450.44386 -716.167148 
L 451.505226 -715.24647 
L 452.738474 -714.512235 
L 453.82331 -713.643253 
L 455.020684 -713.033614 
L 456.159479 -712.434625 
L 455.049163 -712.297497 
L 454.027298 -712.172621 
L 453.55527 -711.711226 
L 453.307014 -711.731492 
L 453.108813 -711.348977 
L 453.015247 -710.008109 
L 453.172984 -709.525877 
L 453.805101 -709.03355 
L 453.316388 -708.34206 
L 452.946165 -708.22526 
L 452.056312 -707.679785 
L 451.220018 -707.548207 
L 451.025569 -707.202153 
L 450.455742 -706.766062 
L 450.34449 -706.409765 
L 449.890277 -706.357326 
L 449.720307 -706.58753 
L 449.229684 -706.676763 
L 448.329037 -706.663131 
L 447.514847 -706.539183 
L 447.145149 -706.548911 
L 446.661027 -706.347692 
L 446.132034 -706.294929 
L 445.961869 -706.185633 
L 446.038031 -705.963512 
L 445.929728 -705.856292 
L 445.578402 -706.040469 
L 445.025292 -705.932071 
L 443.847556 -704.919551 
L 443.214785 -704.650205 
L 443.095785 -704.501717 
L 442.248179 -704.008685 
L 441.167662 -703.124695 
L 440.69644 -702.542888 
L 439.896228 -702.136903 
L 439.583682 -701.70307 
L 439.509581 -701.057858 
L 439.571955 -700.969826 
L 439.386782 -700.435892 
L 446.217874 -680.163471 
L 446.403166 -679.591338 
L 446.826304 -679.548019 
L 447.031941 -679.610955 
L 448.005896 -679.016318 
L 449.385854 -678.906153 
L 449.681339 -679.077129 
L 449.790541 -679.400115 
L 450.214327 -679.999816 
L 450.174232 -680.255848 
L 450.446405 -680.574802 
L 451.259087 -680.444554 
L 451.91055 -680.3256 
L 452.069557 -680.136473 
L 452.236871 -680.078547 
L 452.507202 -680.119289 
L 452.834692 -680.356087 
L 453.149777 -680.400356 
L 453.402717 -680.175536 
L 453.924545 -680.234248 
L 454.634028 -680.711165 
L 455.204865 -680.540481 
L 455.472964 -680.994676 
L 455.892605 -680.997765 
L 456.075259 -681.323123 
L 456.407085 -681.451461 
L 456.897418 -681.4765 
L 457.43328 -681.58274 
L 457.574613 -681.856225 
L 457.783878 -681.905559 
L 457.907865 -682.155892 
L 458.475276 -681.975587 
L 458.696091 -682.000924 
L 459.230505 -682.603474 
L 459.610665 -682.428713 
L 459.787821 -682.180758 
L 460.066614 -682.064686 
L 460.136313 -681.830052 
L 460.385472 -681.756384 
L 460.593593 -681.546866 
L 460.64205 -681.283632 
L 460.944551 -680.968728 
L 461.166719 -680.961068 
L 461.256339 -680.705334 
L 461.905737 -680.502427 
L 462.424073 -680.725461 
L 462.911897 -680.539814 
L 463.273752 -680.818718 
L 463.30933 -681.083502 
L 463.560893 -681.358636 
L 464.425582 -681.423059 
L 464.514585 -681.614344 
L 464.70293 -681.643423 
L 465.170585 -682.55899 
L 465.505694 -682.804188 
L 465.422719 -683.173553 
L 465.590836 -683.694397 
L 465.972403 -683.678543 
L 466.349757 -683.238838 
L 466.507513 -683.642061 
L 466.7066 -683.796001 
L 466.680456 -684.14536 
L 466.313686 -684.535044 
L 466.283769 -684.835403 
L 466.511395 -685.553696 
L 467.050597 -686.323745 
L 467.212186 -686.734689 
L 467.741382 -686.927342 
L 468.07912 -687.481986 
L 468.299546 -687.651479 
L 468.34064 -688.942204 
L 468.845812 -689.247363 
L 469.036873 -689.556011 
L 469.268952 -689.613937 
L 469.618985 -689.956058 
L 470.221061 -689.986343 
L 470.483244 -689.91576 
L 471.350369 -689.969153 
L 471.582157 -690.09028 
L 472.086391 -690.16807 
L 472.557827 -689.848559 
L 472.727029 -689.370387 
L 472.315804 -688.727988 
L 472.360736 -688.3232 
L 472.704249 -687.995526 
L 472.768394 -687.782416 
L 473.508858 -687.464544 
L 473.938532 -687.544017 
L 474.15298 -687.455803 
L 474.645319 -687.732298 
L 474.786057 -688.223134 
L 474.91661 -688.307548 
L 474.898444 -689.222578 
L 474.857046 -689.435286 
L 475.262093 -690.201077 
L 475.746996 -690.136889 
L 476.169425 -690.440495 
L 476.756524 -690.557155 
L 477.100586 -690.409991 
L 477.584406 -690.70259 
L 477.780287 -691.181929 
L 478.611932 -691.322827 
L 479.001055 -691.041902 
L 479.335663 -691.182795 
L 480.02339 -691.139778 
L 480.191683 -691.257817 
L 480.530727 -691.071099 
L 481.461025 -691.17403 
L 481.466725 -691.374362 
L 482.294842 -691.260953 
L 482.942551 -690.890288 
L 483.176681 -690.992058 
L 483.532923 -690.776443 
L 483.669293 -690.367802 
L 483.490946 -690.127687 
L 483.545849 -689.8818 
L 483.179571 -689.516705 
L 482.865673 -689.514026 
L 482.660297 -689.258212 
L 481.520657 -688.786899 
L 481.025096 -688.100358 
L 480.765906 -687.960803 
L 481.045279 -686.180891 
L 481.205981 -685.680881 
L 481.441238 -685.155472 
L 481.748211 -684.673331 
L 481.952231 -684.240683 
L 481.778498 -683.776916 
L 481.151798 -683.046522 
L 481.023476 -682.383728 
L 480.843185 -682.346117 
L 480.792965 -682.123856 
L 480.979601 -680.926644 
L 480.630889 -680.355742 
L 480.432053 -680.363377 
L 480.311148 -680.212563 
L 480.334065 -680.054652 
L 479.70507 -679.76433 
L 479.448899 -680.110017 
L 479.191943 -679.575402 
L 478.656295 -679.338908 
L 478.218579 -678.915806 
L 477.968544 -678.865271 
L 477.361226 -678.318974 
L 477.038126 -678.318269 
L 476.476561 -677.585746 
L 475.95063 -677.610324 
L 475.961449 -677.230343 
L 475.83061 -677.229711 
L 475.409757 -676.375364 
L 475.253483 -676.331991 
L 475.15855 -675.822523 
L 475.474277 -675.682356 
L 475.61082 -675.181076 
L 474.844264 -674.855237 
L 474.325502 -674.67447 
L 473.994677 -674.402004 
L 473.880881 -673.682544 
L 473.610256 -672.870919 
L 473.240811 -672.600157 
L 473.087958 -672.451685 
L 473.061971 -672.222792 
L 472.736486 -672.053912 
L 472.675033 -671.324395 
L 472.7346 -670.762168 
L 472.779525 -670.083311 
L 472.404864 -669.728677 
L 471.933644 -670.241209 
L 471.281312 -670.076893 
L 471.319209 -669.629376 
L 470.693683 -668.947218 
L 470.369705 -669.108845 
L 469.51028 -668.84375 
L 467.988079 -668.157352 
L 466.739681 -667.293903 
L 466.142044 -666.46987 
L 465.622187 -666.260693 
L 465.267573 -665.17999 
L 464.644334 -664.557902 
L 464.693384 -664.14123 
L 465.226358 -663.863165 
L 465.881314 -663.082371 
L 466.577624 -662.76231 
L 466.403067 -662.307872 
L 465.843122 -662.015315 
L 465.480907 -662.121491 
L 464.931144 -660.864406 
L 464.619533 -659.978475 
L 463.87231 -659.11519 
L 463.645787 -658.347864 
L 463.259871 -657.82103 
L 462.435888 -658.067542 
L 461.525226 -658.19851 
L 461.005721 -658.474081 
L 460.395771 -659.131744 
L 459.634806 -659.467509 
L 459.197205 -660.09199 
L 459.029762 -660.964558 
L 458.602993 -661.42775 
L 458.234878 -662.095258 
L 457.708307 -662.303006 
L 456.983881 -662.121931 
L 456.204706 -661.66547 
L 455.594614 -661.217778 
L 455.101903 -660.919449 
L 454.478921 -660.995567 
L 454.23925 -661.114445 
L 453.837269 -660.910198 
L 453.624198 -660.1195 
L 453.435619 -659.317023 
L 453.212776 -658.972121 
L 452.45145 -658.789873 
L 451.68052 -658.673425 
L 451.36083 -658.38233 
L 451.375071 -658.043855 
L 451.055662 -657.323172 
L 450.3017 -656.829814 
L 449.98891 -657.131579 
L 449.394101 -657.137331 
L 448.679034 -656.726895 
L 448.129037 -656.39619 
L 447.429031 -655.899073 
L 447.168349 -655.253478 
L 447.137295 -654.466985 
L 447.574444 -653.857252 
L 448.056732 -653.94763 
L 448.46143 -653.790252 
L 448.472618 -653.58524 
L 447.564733 -653.513998 
L 446.073873 -653.06596 
L 444.364127 -652.691203 
L 443.352301 -652.692835 
L 443.035342 -652.881549 
L 441.789023 -652.877477 
L 441.39417 -653.274308 
L 440.789536 -653.481881 
L 439.809741 -653.060853 
L 439.64359 -653.197192 
L 438.984881 -652.675448 
L 438.690601 -652.184003 
L 438.582854 -651.51626 
L 438.218594 -650.352745 
L 438.169693 -648.985983 
L 438.365847 -646.944606 
L 438.364114 -646.115249 
L 438.579172 -645.284596 
L 438.838196 -643.659314 
L 439.098834 -642.169677 
L 439.302572 -641.12162 
L 439.54965 -639.696721 
L 439.51121 -638.152027 
L 439.576347 -636.541183 
L 439.327095 -636.172897 
L 438.934673 -635.430679 
L 438.46822 -635.109574 
L 438.462838 -635.332697 
L 437.710841 -635.10133 
L 435.763174 -635.821197 
L 433.42389 -635.720971 
L 434.054475 -634.972386 
L 447.266984 -614.120577 
L 448.29342 -612.500783 
L 519.553345 -500.090966 
L 510.402123 -482.891568 
L 508.890521 -482.516377 
L 488.873428 -477.548802 
L 485.981041 -476.83114 
L 490.900702 -454.51949 
L 498.114065 -443.600769 
L 498.710002 -443.25277 
L 499.718605 -442.809297 
L 500.494765 -442.320665 
L 501.002575 -442.041469 
L 501.092182 -441.085551 
L 501.40625 -440.429622 
L 502.376901 -440.306759 
L 503.45789 -439.875512 
L 503.89547 -439.232533 
L 503.941176 -438.612716 
L 504.712807 -437.49807 
L 504.76979 -437.054683 
L 503.844585 -436.248731 
L 504.242994 -434.478424 
L 504.676527 -433.795219 
L 505.348185 -433.513456 
L 506.04846 -432.794634 
L 506.468127 -432.033392 
L 506.563347 -431.187419 
L 506.418683 -430.342266 
L 506.127203 -429.547006 
L 506.128042 -428.621027 
L 506.088168 -427.61247 
L 505.737826 -425.901416 
L 506.891953 -423.646163 
L 507.800879 -423.478848 
L 510.068662 -422.510722 
L 511.785162 -422.727803 
L 512.265344 -422.065469 
L 513.502598 -421.473401 
L 513.623852 -420.944673 
L 513.093694 -420.350248 
L 513.437445 -418.714622 
L 514.30171 -418.472865 
L 514.399746 -417.825127 
L 514.593039 -417.60356 
L 515.488518 -417.673304 
L 516.303865 -416.75419 
L 516.756974 -416.643305 
L 517.571448 -416.689029 
L 518.786998 -416.611782 
L 518.765039 -415.927283 
L 519.707359 -415.153386 
L 520.668226 -414.360287 
L 521.679594 -413.638534 
L 522.656966 -413.599766 
L 523.143808 -413.288056 
L 523.614232 -412.596959 
L 523.969787 -411.851594 
L 525.086789 -411.666086 
L 526.016675 -410.545397 
L 526.729118 -410.376219 
L 526.941093 -409.293024 
L 527.017901 -408.495512 
L 528.371032 -407.768263 
L 528.736691 -406.267298 
L 530.027534 -405.836069 
L 530.003511 -403.406972 
L 532.861167 -401.82515 
L 532.043334 -400.400981 
L 532.956007 -398.74929 
L 532.159039 -397.211844 
L 532.99727 -395.908161 
L 534.03382 -394.269182 
L 535.249798 -394.663525 
L 536.27165 -394.936178 
L 536.806584 -394.980275 
L 536.935173 -394.687764 
L 536.820376 -394.172639 
L 536.888524 -393.561469 
L 537.250422 -392.940591 
L 537.707164 -391.70979 
L 537.823746 -391.231161 
L 538.056999 -390.703666 
L 537.509548 -389.756157 
L 537.570149 -389.463555 
L 537.946364 -389.439092 
L 538.395546 -390.072934 
L 538.614096 -390.548342 
L 538.966123 -390.938386 
L 539.172531 -391.450375 
L 539.068497 -391.894121 
L 538.765848 -392.298038 
L 538.685535 -392.738594 
L 538.953388 -393.379463 
L 539.289407 -393.690918 
L 540.885404 -393.826162 
L 541.667072 -393.644336 
L 543.147721 -393.082942 
L 544.265433 -392.293389 
L 544.802712 -391.327539 
L 544.898471 -390.20361 
L 544.819825 -388.869732 
L 543.56524 -388.182928 
L 543.141022 -387.664634 
L 542.495709 -386.815541 
L 543.305939 -386.360952 
L 543.510115 -386.009202 
L 543.9185 -385.466907 
L 544.69586 -385.016204 
L 543.97774 -384.858545 
L 543.663225 -384.448095 
L 543.684919 -384.101744 
L 543.466548 -383.720924 
L 543.661786 -383.259235 
L 542.465568 -383.066218 
L 542.462945 -383.405529 
L 542.387252 -383.885501 
L 541.847368 -383.895649 
L 541.517418 -383.785242 
L 541.39736 -383.353418 
L 541.504845 -383.11616 
L 541.440471 -382.793168 
L 541.432844 -382.673435 
L 541.283624 -382.475503 
L 541.032971 -382.414188 
L 541.017186 -382.074644 
L 541.209342 -382.04324 
L 541.639279 -381.881493 
L 541.848209 -381.637755 
L 541.697857 -381.292545 
L 541.737594 -380.942659 
L 542.400946 -381.027862 
L 543.551759 -380.507189 
L 544.725279 -379.307944 
L 544.819877 -378.91875 
L 544.744098 -378.390736 
L 544.397661 -377.763179 
L 544.370418 -377.199048 
L 544.515595 -376.843948 
L 544.851394 -376.488121 
L 545.377495 -376.49161 
L 545.316053 -376.056514 
L 545.070577 -375.976791 
L 544.682747 -376.228467 
L 543.790292 -377.133682 
L 543.031222 -377.691008 
L 542.636207 -377.928461 
L 542.307647 -378.044294 
L 542.078173 -378.15976 
L 541.654739 -378.104813 
L 541.133252 -378.082031 
L 540.976542 -377.869923 
L 540.970858 -377.660262 
L 541.196588 -377.448492 
L 541.402032 -377.345327 
L 541.516697 -377.240119 
L 541.107722 -376.804435 
L 540.604742 -375.78268 
L 540.386244 -375.388754 
L 540.058255 -374.980616 
L 539.991679 -374.655218 
L 540.139295 -374.302065 
L 540.459218 -374.071751 
L 540.751973 -374.063043 
L 541.201683 -373.952187 
L 541.635691 -374.20819 
L 541.835058 -374.632718 
L 543.673325 -374.080419 
L 544.824642 -373.796559 
L 544.422837 -373.316229 
L 544.371516 -372.90831 
L 544.399994 -372.38548 
L 544.678578 -371.881584 
L 544.753672 -371.586291 
L 544.954977 -371.229722 
L 545.051819 -370.680284 
L 545.40733 -370.743698 
L 545.557519 -371.243584 
L 545.720082 -371.245481 
L 545.869979 -371.008822 
L 545.853514 -370.716886 
L 545.648306 -370.542807 
L 545.134855 -370.270716 
L 544.243042 -369.750244 
L 543.755501 -369.455689 
L 543.277436 -369.244805 
L 542.76843 -369.237302 
L 542.029162 -369.108437 
L 540.964708 -369.090728 
L 540.330689 -368.956558 
L 540.214228 -368.859081 
L 539.769058 -369.03823 
L 539.598765 -369.387052 
L 539.643468 -370.098548 
L 539.61555 -370.605149 
L 539.529675 -370.96807 
L 539.423547 -371.176891 
L 538.848335 -372.068301 
L 538.736137 -372.64885 
L 538.376445 -373.428685 
L 538.13233 -373.673789 
L 537.419759 -374.04084 
L 536.871337 -374.179983 
L 536.424354 -374.168508 
L 535.864909 -373.933306 
L 535.384267 -373.609225 
L 534.644487 -372.63966 
L 534.183885 -372.259505 
L 532.838231 -371.909742 
L 532.562077 -371.366841 
L 532.517754 -371.105497 
L 532.307319 -370.40864 
L 531.852139 -370.046336 
L 530.72349 -369.649769 
L 530.226562 -369.540029 
L 529.967684 -369.435709 
L 529.31082 -369.6065 
L 529.010681 -369.500507 
L 528.664957 -369.224957 
L 527.773558 -368.321517 
L 527.248793 -367.992126 
L 526.108444 -366.98349 
L 525.730945 -366.829579 
L 525.155059 -366.84221 
L 524.624786 -367.226063 
L 524.11957 -367.391798 
L 523.801995 -367.444655 
L 523.279062 -367.39792 
L 522.754897 -367.216415 
L 522.5454 -367.233596 
L 522.192739 -367.422432 
L 521.540503 -367.416308 
L 521.201533 -367.503469 
L 520.985229 -367.62334 
L 520.61361 -367.635952 
L 520.169769 -367.524854 
L 519.906555 -367.363135 
L 519.445959 -366.846635 
L 519.009613 -366.678961 
L 518.55905 -366.424906 
L 518.054965 -366.070785 
L 517.653932 -366.052281 
L 516.910899 -365.611471 
L 516.652298 -365.767277 
L 516.317629 -365.681834 
L 516.174859 -365.474296 
L 515.797525 -364.615542 
L 515.497222 -364.48605 
L 515.188597 -364.534093 
L 514.820846 -364.651891 
L 514.607311 -364.628908 
L 514.453913 -364.483175 
L 514.362302 -364.133639 
L 513.757193 -363.816478 
L 513.571968 -363.491528 
L 513.119518 -363.118373 
L 512.523098 -362.770698 
L 512.148959 -362.37775 
L 511.871866 -362.270697 
L 511.480749 -362.348681 
L 510.666479 -362.17784 
L 510.266154 -362.307561 
L 510.033373 -362.261915 
L 509.667746 -361.97371 
L 509.508421 -361.947451 
L 509.226432 -361.996277 
L 508.812734 -361.885062 
L 508.807674 -361.772752 
L 505.656514 -326.53848 
L 503.205613 -298.841887 
L 451.497369 -245.341875 
L 406.232684 -176.065731 
L 381.745514 -125.28 
L 362.942294 -165.847388 
L 357.739145 -158.168449 
L 237.083687 -347.982396 
L 187.163735 -403.644199 
L 187.071293 -404.112494 
L 187.565877 -405.391817 
L 188.643366 -406.207183 
L 188.411733 -407.552525 
L 187.394073 -408.80445 
L 187.196715 -410.178711 
L 187.66551 -411.674868 
L 187.830299 -413.191366 
L 187.215849 -414.578608 
L 186.787515 -416.063532 
L 186.569346 -417.561552 
L 186.101391 -418.928233 
L 184.662249 -419.409653 
L 183.294456 -419.595038 
L 182.490816 -420.742512 
L 183.842658 -420.883649 
L 184.570417 -422.104774 
L 184.122779 -423.545811 
L 183.053572 -424.516365 
L 182.191872 -425.681347 
L 181.093902 -426.639744 
L 181.262025 -428.033638 
L 181.131241 -428.617325 
L 181.814874 -430.012372 
L 182.208089 -431.043174 
L 182.708209 -432.417599 
L 182.87294 -433.904089 
L 183.243079 -435.357269 
L 183.734144 -436.999089 
L 184.062619 -438.493194 
L 184.335008 -439.964287 
L 184.591417 -441.431476 
L 184.777731 -442.85083 
L 185.248067 -444.24077 
L 186.384678 -444.955174 
L 187.868563 -445.355376 
L 189.390533 -445.668058 
L 190.798753 -445.862147 
L 192.26014 -446.038665 
L 193.746584 -446.223399 
L 195.180031 -446.319805 
L 196.593118 -446.365496 
L 198.062433 -446.359822 
L 199.565349 -446.181672 
L 200.947371 -445.842792 
L 202.343972 -445.436746 
L 203.767601 -445.084781 
L 205.237482 -444.658789 
L 209.444247 -443.301706 
L 211.230735 -442.959554 
L 212.552374 -443.57289 
L 213.343917 -444.783582 
L 215.096033 -447.272605 
L 215.588222 -448.585304 
L 215.93486 -450.292633 
L 216.052918 -451.854004 
L 215.569705 -453.075795 
L 214.396509 -454.058131 
L 213.002382 -454.681634 
L 211.750141 -455.364888 
L 210.561517 -456.064769 
L 209.282854 -456.75753 
L 207.998232 -457.510147 
L 206.935245 -458.357596 
L 206.549024 -459.739717 
L 206.378486 -461.113989 
L 206.234068 -462.728104 
L 206.168844 -464.214965 
L 206.169989 -465.713568 
L 206.358699 -467.157211 
L 206.916552 -468.485207 
L 207.449702 -469.776262 
L 208.108294 -471.044709 
L 209.397666 -471.694218 
L 210.858404 -472.095817 
L 212.325789 -472.482507 
L 213.594359 -472.87929 
L 215.03046 -473.268761 
L 216.563171 -473.634619 
L 218.090979 -473.900189 
L 219.58449 -474.046046 
L 220.968255 -474.022685 
L 222.42973 -473.788291 
L 223.824436 -473.399096 
L 225.197201 -472.915278 
L 226.624659 -472.286095 
L 227.921365 -471.550188 
L 229.159653 -470.67884 
L 230.394782 -469.820444 
L 231.847856 -469.218788 
L 233.175552 -469.487245 
L 234.569048 -470.053258 
L 235.944956 -470.741158 
L 237.278618 -471.410064 
L 238.521797 -472.257336 
L 239.612412 -473.166635 
L 240.762901 -474.191556 
L 241.712335 -475.307407 
L 242.430699 -476.561954 
L 243.487514 -477.493372 
L 244.778593 -478.19068 
L 246.137053 -478.820887 
L 247.392202 -479.349354 
L 248.840276 -479.759198 
L 250.269606 -480.019387 
L 251.732303 -480.285039 
L 253.389569 -480.639827 
L 254.489152 -481.655583 
L 254.625312 -484.519174 
L 254.444258 -485.993268 
L 254.408948 -488.903742 
L 254.383987 -490.267009 
L 254.346222 -491.768549 
L 254.444691 -493.216127 
L 254.808007 -494.598884 
L 255.570484 -495.741702 
L 256.578139 -496.789206 
L 257.264247 -497.568123 
L 258.391868 -498.478244 
L 259.608509 -499.26195 
L 260.725073 -499.852885 
L 262.395649 -499.972359 
L 263.762862 -500.273556 
L 265.086053 -500.543585 
L 266.463836 -500.851335 
L 267.870882 -501.15088 
L 269.181779 -501.438265 
L 270.694121 -501.715429 
L 272.097001 -501.967948 
L 273.524848 -502.214307 
L 274.874946 -502.447464 
L 277.541968 -503.179131 
L 278.923959 -503.725065 
L 280.336346 -504.186021 
L 281.682468 -504.584845 
L 283.04932 -504.988101 
L 284.287636 -505.444077 
L 285.672371 -505.944471 
L 287.078234 -506.63643 
L 288.42978 -507.291132 
L 289.587152 -507.966228 
L 290.963553 -508.680606 
L 292.06175 -509.223089 
L 293.701342 -509.991405 
L 294.809371 -510.839434 
L 295.890437 -511.803294 
L 297.035923 -512.7913 
L 298.074122 -513.833004 
L 299.116872 -514.909676 
L 299.999274 -515.824992 
L 300.889537 -516.895715 
L 301.815743 -518.051445 
L 302.645145 -519.172836 
L 303.411928 -520.22194 
L 304.269754 -521.437852 
L 305.041184 -522.565102 
L 305.672724 -523.698065 
L 306.513054 -525.059495 
L 307.297423 -526.3199 
L 308.056428 -527.405644 
L 308.751862 -528.416894 
L 309.718481 -529.719126 
L 310.827935 -530.794953 
L 313.233447 -525.663316 
L 313.596795 -525.016515 
L 313.837045 -524.195071 
L 314.089619 -523.377377 
L 314.354463 -522.563625 
L 314.631494 -521.753988 
L 314.920683 -520.94867 
L 315.221913 -520.147831 
L 315.535171 -519.351678 
L 315.860333 -518.560369 
L 316.197354 -517.774101 
L 316.546141 -516.993046 
L 316.906613 -516.217379 
L 317.278697 -515.447282 
L 317.662282 -514.68292 
L 318.05732 -513.924485 
L 318.463667 -513.172124 
L 318.881281 -512.426032 
L 319.310019 -511.686355 
L 319.749811 -510.953278 
L 320.200542 -510.226956 
L 320.662108 -509.507557 
L 321.134412 -508.795247 
L 321.617323 -508.090171 
L 322.110761 -507.392513 
L 322.614571 -506.702401 
L 323.128685 -506.020021 
L 323.652938 -505.345498 
L 324.187247 -504.679004 
L 324.731459 -504.020672 
L 325.285463 -503.370665 
L 325.849131 -502.729117 
L 326.422326 -502.096173 
L 327.004933 -501.471986 
L 327.596793 -500.856671 
L 328.197801 -500.250399 
L 328.807782 -499.653265 
L 329.426638 -499.065449 
L 330.054189 -498.487036 
L 330.690321 -497.918189 
L 331.334865 -497.359009 
L 331.987692 -496.809641 
L 332.648644 -496.270192 
L 333.317571 -495.740788 
L 333.994328 -495.221549 
L 334.678744 -494.712577 
L 335.370688 -494.214006 
L 336.069974 -493.725916 
L 336.776471 -493.248456 
L 337.489994 -492.78168 
L 338.210408 -492.325749 
L 338.937521 -491.880709 
L 339.671196 -491.446701 
L 340.411244 -491.023784 
L 341.157515 -490.612081 
L 341.909825 -490.211662 
L 342.668015 -489.822626 
L 343.431911 -489.445055 
L 344.201343 -489.07903 
L 344.976135 -488.724636 
L 345.75611 -488.381941 
L 346.5411 -488.051036 
L 347.330919 -487.73197 
L 348.1254 -487.424842 
L 348.924352 -487.129684 
L 349.727613 -486.846606 
L 350.534984 -486.575614 
L 351.3463 -486.316829 
L 352.161365 -486.070243 
L 352.980013 -485.835972 
L 353.80204 -485.61401 
L 354.627283 -485.404457 
L 355.455542 -485.20731 
L 356.286638 -485.022654 
L 357.120384 -484.850498 
L 357.956596 -484.690903 
L 358.795084 -484.543885 
L 359.63566 -484.409487 
L 360.478142 -484.287734 
L 361.322335 -484.17865 
L 362.168057 -484.082269 
L 363.015112 -483.998597 
L 363.863319 -483.927671 
L 364.712484 -483.869481 
L 365.562418 -483.824073 
L 366.412933 -483.791416 
L 367.263838 -483.771562 
L 368.114941 -483.76447 
L 368.966057 -483.770188 
L 369.816994 -483.788662 
L 370.667864 -483.819966 
L 371.517873 -483.864001 
L 372.367135 -483.920829 
L 373.215458 -483.990386 
L 374.062651 -484.072702 
L 374.908534 -484.167716 
L 375.752909 -484.275446 
L 376.595591 -484.39584 
L 377.436392 -484.528891 
L 378.275125 -484.674557 
L 379.111601 -484.832815 
L 379.945631 -485.003629 
L 380.777034 -485.186955 
L 381.653767 -485.307265 
L 389.995739 -488.085042 
L 390.481736 -488.346056 
L 391.262275 -488.687515 
L 392.037656 -489.04067 
L 392.80769 -489.405476 
L 393.572215 -489.78183 
L 394.331046 -490.169666 
L 395.084022 -490.568886 
L 395.830969 -490.97941 
L 396.571717 -491.401153 
L 397.306104 -491.834003 
L 398.033954 -492.277892 
L 398.755119 -492.732692 
L 399.469413 -493.198337 
L 400.176698 -493.674684 
L 400.876788 -494.161677 
L 401.569551 -494.659156 
L 402.254804 -495.16706 
L 402.932415 -495.685235 
L 403.602208 -496.213597 
L 404.264048 -496.75201 
L 404.917772 -497.300365 
L 405.563238 -497.858537 
L 406.2003 -498.426398 
L 406.8288 -499.003835 
L 407.448613 -499.590697 
L 408.059573 -500.186885 
L 408.661574 -500.792226 
L 409.254432 -501.406632 
L 409.838058 -502.029923 
L 410.412282 -502.661993 
L 410.976997 -503.302674 
L 411.532054 -503.95184 
L 412.077341 -504.60934 
L 412.612723 -505.275025 
L 413.138074 -505.948751 
L 413.65329 -506.630357 
L 414.158221 -507.319708 
L 414.652791 -508.016623 
L 415.136838 -508.720976 
L 415.610294 -509.432578 
L 416.073014 -510.151296 
L 416.524918 -510.876946 
L 416.965887 -511.609377 
L 417.395817 -512.348418 
L 417.814625 -513.093901 
L 418.222182 -513.845668 
L 418.618436 -514.603526 
L 419.003239 -515.367334 
L 419.380763 -516.145743 
L 419.742342 -516.920956 
L 420.092237 -517.701577 
L 420.43038 -518.487427 
L 420.75666 -519.278334 
L 421.071046 -520.074104 
L 421.37341 -520.874577 
L 421.663735 -521.679551 
L 421.941911 -522.488856 
L 422.207897 -523.3023 
L 422.360135 -523.79274 
L 422.297077 -523.976656 
L 422.940259 -525.944731 
L 423.018706 -526.096873 
L 423.148658 -526.59376 
L 423.35279 -527.425105 
L 423.544369 -528.259468 
L 423.72339 -529.096651 
L 423.88979 -529.936464 
L 424.043532 -530.778717 
L 424.184595 -531.623215 
L 424.312912 -532.46977 
L 424.4285 -533.318176 
L 424.531275 -534.168254 
L 424.621267 -535.019794 
L 424.698421 -535.872613 
L 424.762729 -536.726509 
L 424.814184 -537.581286 
L 424.852749 -538.43675 
L 424.878458 -539.292703 
L 424.891245 -540.148952 
L 424.893045 -541.005292 
L 424.888514 -541.861625 
L 424.871104 -542.717791 
L 424.840806 -543.573593 
L 424.797621 -544.428834 
L 424.741586 -545.28332 
L 424.672666 -546.136851 
L 424.590932 -546.989236 
L 424.496354 -547.840275 
L 424.388993 -548.689777 
L 424.268856 -549.537545 
L 424.13597 -550.383384 
L 423.990384 -551.227104 
L 423.832098 -552.068504 
L 423.661194 -552.9074 
L 423.477664 -553.743591 
L 423.281595 -554.576894 
L 423.073005 -555.407113 
L 422.851953 -556.234062 
L 422.618498 -557.057549 
L 422.372673 -557.877384 
L 422.114575 -558.693386 
L 421.844206 -559.505359 
L 421.56169 -560.313129 
L 421.267052 -561.116501 
L 420.960383 -561.915301 
L 420.641749 -562.709343 
L 420.311214 -563.498443 
L 419.214235 -563.432409 
L 413.352902 -561.690424 
L 410.623415 -558.778401 
L 409.588372 -556.007588 
L 406.386991 -555.830247 
L 402.424184 -563.610618 
L 396.153637 -566.606173 
L 394.377174 -569.020079 
L 394.006893 -571.608851 
L 395.925449 -575.260868 
L 395.056487 -582.184973 
L 391.522866 -585.034928 
L 391.14834 -593.067723 
L 390.36727 -593.407335 
L 389.581247 -593.735163 
L 388.790443 -594.051126 
L 387.995033 -594.355158 
L 387.195198 -594.647182 
L 386.391118 -594.927151 
L 385.58297 -595.194981 
L 384.770942 -595.450645 
L 383.955203 -595.69405 
L 383.135951 -595.925185 
L 382.313353 -596.143953 
L 381.487609 -596.350363 
L 380.657285 -596.544667 
L 379.825781 -596.726142 
L 378.991674 -596.895071 
L 378.155159 -597.051477 
L 377.316417 -597.195274 
L 376.475637 -597.326475 
L 375.633004 -597.445014 
L 374.788709 -597.550897 
L 373.942941 -597.644075 
L 373.095883 -597.724552 
L 372.247729 -597.792289 
L 371.398664 -597.847287 
L 370.54888 -597.889525 
L 369.698566 -597.918996 
L 368.847909 -597.935699 
L 368.471347 -597.939026 
L 366.640912 -598.291866 
L 365.458376 -599.365941 
L 363.782681 -601.873158 
L 363.234102 -603.001075 
L 362.730511 -604.432572 
L 362.154209 -606.645589 
L 361.602601 -608.348321 
L 361.176185 -609.946027 
L 360.948876 -611.674138 
L 360.923709 -613.259309 
L 361.164135 -614.748936 
L 361.687042 -616.253886 
L 363.069156 -618.159384 
L 364.748056 -619.415239 
L 365.061299 -619.721833 
L 365.225143 -620.771564 
L 365.220287 -621.489583 
L 365.216606 -622.033636 
L 364.996025 -623.387194 
L 364.519858 -624.037088 
L 363.295562 -624.893149 
L 362.129502 -625.709718 
L 360.895672 -626.359805 
L 359.51201 -626.531394 
L 358.256957 -626.209454 
L 357.00188 -625.485965 
L 356.272608 -625.376633 
L 356.068216 -625.610451 
L 355.980674 -626.29386 
L 356.193959 -627.419049 
L 356.525635 -628.440383 
L 356.803135 -629.033267 
L 357.688202 -630.001236 
L 358.880337 -630.793695 
L 360.174216 -631.444454 
L 361.406494 -632.424373 
L 362.497783 -633.332897 
L 363.415107 -634.361973 
L 364.187609 -635.600785 
L 364.745897 -636.865251 
L 365.083839 -638.313987 
L 365.442778 -639.930411 
L 365.70267 -641.394676 
L 365.824918 -642.83477 
L 366.116805 -643.984061 
L 366.412649 -644.679837 
L 367.053532 -644.792744 
L 367.265158 -644.703102 
L 368.224668 -643.734795 
L 368.890662 -642.399527 
L 369.438562 -641.100483 
L 369.992221 -639.897064 
L 370.505465 -638.607375 
L 371.257256 -637.386989 
L 373.245909 -635.380246 
L 373.79668 -635.228207 
L 375.152591 -634.832994 
L 376.124841 -634.76906 
L 377.255969 -635.396229 
L 378.536519 -635.975232 
L 379.039455 -636.552965 
L 380.016093 -637.117 
L 380.910066 -638.154049 
L 381.625312 -638.523191 
L 382.258026 -639.323603 
L 382.965982 -639.725987 
L 384.060377 -640.603445 
L 385.214287 -641.437233 
L 386.296832 -642.357099 
L 387.388721 -643.257866 
L 388.53014 -644.090575 
L 388.143976 -644.911793 
L 388.46129 -645.872224 
L 389.163444 -647.083696 
L 389.801385 -648.345139 
L 390.545384 -649.55415 
L 393.818743 -654.062216 
L 394.618559 -655.236396 
L 395.445758 -656.377458 
L 396.26518 -657.454007 
L 397.121761 -658.640307 
L 397.958902 -658.788146 
L 398.25528 -659.387319 
L 398.821555 -660.693668 
L 399.491309 -662.02392 
L 400.223354 -663.282963 
L 401.046426 -664.451146 
L 401.871901 -665.553884 
L 402.767308 -666.670233 
L 403.673928 -667.727872 
L 404.616901 -668.782283 
L 405.600139 -669.838143 
L 406.567788 -670.922946 
L 407.282373 -672.102975 
L 407.570454 -673.46418 
L 408.329159 -674.66415 
L 409.044074 -675.881008 
L 409.75963 -677.108121 
L 410.391285 -678.401214 
L 410.865101 -679.708333 
L 411.261033 -681.037091 
L 411.658676 -682.378475 
L 411.991198 -683.730361 
L 412.424832 -685.060547 
L 412.835802 -686.400646 
L 412.870012 -687.820993 
L 412.824969 -689.238241 
L 413.06804 -690.611765 
L 413.419045 -691.941601 
L 414.323394 -694.635915 
L 414.763817 -695.420712 
L 414.256858 -696.28675 
L 414.219864 -696.64104 
L 414.548962 -699.449392 
L 414.788085 -700.055895 
L 415.656642 -701.214876 
L 416.406513 -702.401388 
L 417.023219 -703.638431 
L 417.723536 -704.859697 
L 418.306226 -705.67227 
L 418.783172 -706.017823 
L 419.930316 -706.421358 
L 421.371891 -706.411989 
L 422.781721 -706.613614 
L 424.080654 -707.191016 
L 424.641339 -707.457629 
L 426.061023 -708.059506 
L 427.146361 -708.967959 
L 428.243017 -709.794646 
L 429.44731 -710.5624 
L 430.677575 -711.267363 
L 431.881782 -712.028347 
L 433.062341 -712.710799 
L 434.244935 -713.471016 
L 435.511439 -714.133504 
L 436.726082 -714.842228 
L 437.95819 -715.526696 
L 439.253435 -716.152758 
L 440.233161 -716.671673 
L 441.373667 -717.165265 
L 442.455539 -717.589154 
L 443.780233 -717.996199 
L 445.18455 -718.145404 
" style="stroke: #0000ff; stroke-width: 0.5"/>
    </defs>
    <g clip-path="url(#p6121f291a9)">
     <use xlink:href="#m96ac23ebaa" x="0" y="864" style="fill: #e0bd1f; stroke: #0000ff; stroke-width: 0.5"/>
    </g>
   </g>
   <g id="PatchCollection_2">
    <path d="M 491.88153 133.92 
L 493.174913 134.295391 
L 500.018165 136.724573 
L 501.731503 136.929566 
L 502.611917 136.919565 
L 504.278703 136.422902 
L 504.559834 136.092264 
L 506.432529 135.373324 
L 507.224847 135.135637 
L 508.802843 134.92462 
L 511.033681 134.648972 
L 512.120639 134.61513 
L 514.274354 134.489226 
L 514.273833 134.538154 
L 514.286204 145.902758 
L 514.921527 146.586375 
L 514.957547 165.720818 
L 519.323236 165.64628 
L 519.824889 170.299883 
L 530.377415 169.466577 
L 531.590932 180.595052 
L 531.818546 180.569657 
L 532.511967 181.140702 
L 533.206389 180.169168 
L 533.813983 180.046524 
L 534.020586 179.84882 
L 533.94953 179.490839 
L 534.21034 179.170396 
L 534.457574 179.153395 
L 534.291701 178.778328 
L 534.100674 178.758171 
L 534.237545 178.591827 
L 533.932879 177.838299 
L 533.807313 178.061024 
L 533.885375 178.40085 
L 533.489558 178.4297 
L 533.438224 178.997417 
L 533.299377 179.106497 
L 533.21654 178.502532 
L 533.587485 177.490491 
L 532.998623 177.540489 
L 533.032113 177.360854 
L 533.177759 177.282462 
L 533.130367 177.173351 
L 532.715871 177.166971 
L 532.798527 177.002816 
L 532.825644 176.610596 
L 532.964534 176.576679 
L 533.394584 176.822221 
L 534.142971 176.945097 
L 534.434235 176.951969 
L 534.417292 177.037205 
L 534.217446 177.197401 
L 534.400299 177.258806 
L 534.556118 177.044022 
L 535.100107 176.913229 
L 535.084472 176.805464 
L 535.230482 176.751993 
L 535.284244 176.924821 
L 535.616197 176.583949 
L 535.63314 176.49189 
L 535.947733 176.537958 
L 536.215665 176.341975 
L 536.564465 176.321593 
L 536.876117 175.786374 
L 536.987858 175.830696 
L 536.896694 175.310313 
L 536.957518 174.937452 
L 537.126881 174.770427 
L 537.265805 174.330638 
L 536.869614 174.061242 
L 536.381905 174.432777 
L 536.554583 174.640764 
L 536.642544 175.152183 
L 535.988989 174.787285 
L 536.165203 174.159983 
L 536.655138 173.700383 
L 537.787374 173.921597 
L 537.932973 174.129579 
L 538.071831 174.109162 
L 538.187043 173.70685 
L 538.32248 173.798933 
L 538.512079 174.054679 
L 538.423967 174.508093 
L 538.623778 174.368362 
L 538.73224 173.792174 
L 538.380068 173.62167 
L 538.297042 173.090042 
L 540.3066 172.225486 
L 540.341022 172.616203 
L 540.442602 172.721897 
L 541.702457 172.207282 
L 542.024184 172.118693 
L 542.203734 171.675482 
L 541.980266 171.505 
L 541.722884 171.539047 
L 541.458685 171.852673 
L 541.313062 171.801497 
L 541.292815 171.426483 
L 541.91259 171.061753 
L 542.305418 171.058413 
L 542.434073 171.38914 
L 542.762591 171.19827 
L 542.874369 170.973256 
L 542.752642 170.375338 
L 542.057684 169.66144 
L 542.363687 169.268118 
L 542.132964 169.275278 
L 542.485221 168.83212 
L 542.892342 168.588565 
L 544.405707 169.041007 
L 544.591567 169.289271 
L 545.116455 169.388227 
L 546.135805 169.17698 
L 546.848337 169.115701 
L 547.054917 168.993008 
L 547.161115 168.69791 
L 547.65442 168.321421 
L 548.334443 168.362815 
L 548.941229 168.611387 
L 549.324081 168.319207 
L 550.603367 168.232212 
L 545.926801 172.60544 
L 546.052031 172.707709 
L 546.727636 173.424253 
L 547.118649 173.662465 
L 547.376207 174.030574 
L 547.626561 174.194405 
L 548.07691 174.753599 
L 549.729203 177.423337 
L 549.868002 177.887031 
L 550.589263 178.476942 
L 551.039656 178.749728 
L 553.291712 178.913649 
L 553.52713 179.324942 
L 554.389053 179.826083 
L 555.40141 179.226409 
L 556.708844 178.232141 
L 556.891657 178.726524 
L 556.906098 179.46613 
L 556.718813 179.984567 
L 556.447893 180.08682 
L 556.092231 180.608408 
L 555.702642 181.777791 
L 555.113322 182.336862 
L 555.231741 183.335823 
L 554.845638 183.686927 
L 554.381595 184.191459 
L 554.04972 184.170982 
L 553.873616 184.037994 
L 553.067601 184.037901 
L 552.844119 183.870823 
L 552.491921 183.782145 
L 551.997439 184.129837 
L 551.834834 184.477568 
L 551.587416 186.018577 
L 551.451933 186.240165 
L 551.272374 186.782236 
L 550.015837 187.419632 
L 549.128522 187.607012 
L 548.96258 187.392209 
L 548.241207 187.56599 
L 547.51309 187.470436 
L 546.951484 187.567818 
L 545.498521 188.154045 
L 545.356238 188.508597 
L 545.169946 188.655156 
L 544.970044 189.412002 
L 544.146936 190.291508 
L 544.154261 191.437353 
L 544.248309 191.910976 
L 543.923203 191.90071 
L 543.743715 191.846132 
L 543.130661 192.149461 
L 542.483651 193.315363 
L 542.381875 194.512032 
L 541.985474 195.490479 
L 541.998942 196.076876 
L 541.948061 196.520076 
L 541.155388 197.747327 
L 541.263736 197.96555 
L 541.394973 198.524875 
L 541.141583 199.407684 
L 541.199138 199.663409 
L 542.431792 200.43751 
L 543.556136 200.955903 
L 545.175008 201.854141 
L 546.323104 202.103167 
L 546.719301 202.40327 
L 546.53977 202.611204 
L 546.661649 203.037387 
L 546.388695 203.765448 
L 546.671525 205.072788 
L 546.915321 205.454655 
L 546.862437 205.852638 
L 546.969444 205.959244 
L 546.864362 206.709309 
L 546.396863 207.500202 
L 546.329075 208.0082 
L 545.712598 208.468364 
L 545.42181 209.934539 
L 545.049244 209.931061 
L 544.547961 210.125331 
L 544.307454 210.541242 
L 542.908671 210.523994 
L 541.750408 210.210154 
L 541.245751 210.199857 
L 540.842701 210.377066 
L 540.425993 211.028196 
L 540.310701 212.04756 
L 539.663718 212.545216 
L 539.419777 213.114559 
L 537.962711 214.473688 
L 538.131417 214.811531 
L 538.068049 215.255413 
L 537.014692 215.343874 
L 536.438842 215.711993 
L 536.356532 216.473532 
L 537.05785 218.277736 
L 536.993845 218.613427 
L 537.098795 218.818006 
L 537.393457 218.893075 
L 537.54242 219.271535 
L 537.748979 219.479528 
L 537.830279 219.332957 
L 537.640667 219.019261 
L 537.823582 219.012469 
L 537.715263 218.599931 
L 537.952327 218.685181 
L 538.311298 218.992082 
L 537.684539 220.052295 
L 537.081452 221.303427 
L 537.118493 222.476649 
L 537.01687 222.725126 
L 537.37918 223.260455 
L 537.42654 223.604786 
L 537.933806 223.902778 
L 538.171637 223.826542 
L 539.292749 223.871029 
L 539.163998 224.055131 
L 538.24935 224.989123 
L 538.073226 225.074333 
L 537.903782 225.578886 
L 537.680185 225.824316 
L 537.595496 226.049331 
L 537.490492 225.984542 
L 536.819893 225.745755 
L 536.61328 225.841206 
L 536.427006 225.735468 
L 536.345706 225.868422 
L 535.827505 225.660375 
L 535.69541 225.813759 
L 535.353349 225.602315 
L 535.258487 225.769379 
L 535.038329 225.799999 
L 534.845289 225.626091 
L 534.733496 225.799945 
L 534.181393 225.830535 
L 533.673357 225.721341 
L 533.524343 225.646324 
L 532.756367 225.690602 
L 532.515044 225.458622 
L 531.993438 225.434661 
L 531.820686 225.523265 
L 531.661526 225.417558 
L 531.343138 225.410676 
L 530.94351 225.209437 
L 530.648818 225.274182 
L 530.48628 225.18209 
L 530.442305 224.824085 
L 530.293258 224.93316 
L 529.968166 224.541047 
L 529.907174 224.646713 
L 529.703691 224.829312 
L 529.829261 224.851259 
L 529.771641 224.970571 
L 529.626019 224.960323 
L 529.575244 224.725066 
L 529.700641 224.312571 
L 529.511007 224.145454 
L 529.40944 223.913612 
L 528.434045 223.548634 
L 527.919308 223.071215 
L 527.743189 223.122306 
L 527.377336 223.381346 
L 527.207981 223.360874 
L 527.187763 222.914238 
L 526.544057 223.708489 
L 526.43911 223.517553 
L 526.374749 223.589133 
L 526.330651 223.872101 
L 526.218875 223.940247 
L 525.903879 224.001557 
L 525.748038 224.185619 
L 525.345564 224.617838 
L 524.101816 224.781921 
L 523.847723 225.170551 
L 522.90964 224.590756 
L 522.794448 224.716876 
L 522.445608 224.556573 
L 522.103517 224.672397 
L 521.480073 225.732576 
L 521.185326 226.046176 
L 521.412263 226.012141 
L 521.120906 226.387087 
L 520.667083 226.213114 
L 520.335106 226.496018 
L 520.04719 226.557329 
L 519.803282 226.772055 
L 519.593276 226.802696 
L 519.474694 226.983365 
L 519.860796 227.027783 
L 519.765879 227.409593 
L 519.399957 227.937955 
L 519.118785 228.145879 
L 518.692022 228.200334 
L 518.654838 227.838934 
L 517.794582 227.606889 
L 517.374529 227.84204 
L 517.415216 227.62727 
L 517.659339 226.461336 
L 517.432457 226.246505 
L 517.439268 226.099894 
L 517.2496 226.11007 
L 517.235989 226.355534 
L 516.870217 226.208867 
L 516.440283 225.257559 
L 516.535138 225.284842 
L 516.504696 225.090522 
L 516.396301 225.117759 
L 516.264231 225.005229 
L 516.46748 224.879131 
L 516.172812 224.831334 
L 516.003476 224.851734 
L 515.756297 224.486887 
L 515.251852 224.466131 
L 515.383827 224.009483 
L 515.488884 223.818592 
L 515.951708 224.042928 
L 516.179811 223.866482 
L 515.981709 223.682543 
L 516.18671 223.334643 
L 516.085108 223.29711 
L 516.085136 223.174362 
L 516.247725 223.143713 
L 516.068275 222.870943 
L 515.949744 222.833407 
L 515.715941 223.259515 
L 515.591438 223.168453 
L 515.36043 222.659396 
L 515.163931 222.908242 
L 515.069096 222.921837 
L 514.865821 223.160462 
L 514.703247 223.126311 
L 514.794676 223.252477 
L 514.856968 223.5474 
L 514.557477 223.760425 
L 514.428765 223.719488 
L 513.727597 224.053424 
L 513.64632 223.937479 
L 513.151854 223.814642 
L 513.239879 223.940807 
L 513.324507 224.159004 
L 513.226237 224.302196 
L 511.644767 223.265366 
L 511.373812 223.326673 
L 511.478838 223.152826 
L 511.377257 223.036876 
L 511.153675 223.156143 
L 510.673084 223.243546 
L 510.676137 223.053745 
L 510.256244 222.753623 
L 509.880283 222.787613 
L 509.781594 222.674661 
L 509.860032 222.453506 
L 510.053176 222.139892 
L 509.294632 221.58397 
L 508.573422 220.642828 
L 508.112891 220.366558 
L 508.417763 220.070015 
L 508.197752 219.524475 
L 507.706703 219.384561 
L 507.269793 219.346939 
L 506.193026 218.221581 
L 506.067845 217.696532 
L 505.634399 217.321383 
L 505.698855 216.997518 
L 505.278991 216.526915 
L 505.19778 216.27803 
L 505.309594 216.070074 
L 505.147101 215.742752 
L 504.788086 215.742658 
L 503.822982 215.166204 
L 503.619739 215.275252 
L 503.206661 214.787606 
L 503.128868 214.381891 
L 502.49566 213.85328 
L 502.157079 213.484975 
L 502.150344 213.324745 
L 501.60856 212.918875 
L 501.283559 212.359659 
L 500.294608 212.250285 
L 500.135408 212.349124 
L 500.297964 212.420762 
L 500.054061 212.618432 
L 499.752607 212.652433 
L 499.427377 213.041023 
L 499.765928 213.508184 
L 499.504999 214.053595 
L 498.640644 216.514891 
L 498.918323 216.736571 
L 499.283777 217.858354 
L 499.747701 218.236916 
L 500.005033 218.516537 
L 499.902487 218.730717 
L 500.113383 218.646137 
L 500.316505 218.990514 
L 500.407898 219.116683 
L 500.543289 219.501976 
L 500.356941 219.726951 
L 500.453147 219.985546 
L 501.413252 221.244399 
L 501.745136 221.336521 
L 501.850173 221.244518 
L 501.762032 221.466096 
L 501.74552 221.805074 
L 501.775322 222.447963 
L 501.626262 222.574095 
L 501.4128 222.911534 
L 501.284044 223.041068 
L 501.290772 223.225163 
L 500.884129 223.971696 
L 500.467472 224.213649 
L 500.308194 224.574995 
L 500.216696 224.721553 
L 500.297972 224.725001 
L 500.158533 225.128714 
L 500.054029 225.031772 
L 499.806753 225.185108 
L 499.464702 225.031607 
L 499.525757 224.731607 
L 499.275168 224.564457 
L 498.865302 224.646182 
L 498.61123 224.867712 
L 497.537762 224.062812 
L 497.527564 224.223037 
L 497.30984 224.070996 
L 497.361703 223.888889 
L 497.226238 223.871808 
L 496.413692 222.71581 
L 496.36639 222.320294 
L 496.034267 221.973851 
L 495.939837 221.566731 
L 496.011022 221.351944 
L 495.821462 220.997322 
L 495.726683 220.816599 
L 495.116989 220.959635 
L 494.5984 220.752953 
L 493.58616 220.696647 
L 493.244113 220.553359 
L 492.857968 220.703251 
L 491.665485 221.582501 
L 491.58746 221.994993 
L 491.252127 222.158543 
L 490.850579 223.248241 
L 490.514385 223.441478 
L 489.823861 224.148201 
L 489.085174 225.338301 
L 487.92187 226.232159 
L 487.426734 226.016767 
L 487.122886 225.869374 
L 486.774986 225.490746 
L 486.212238 225.475465 
L 486.234233 224.347231 
L 485.694107 224.007163 
L 485.881729 223.916591 
L 485.829338 223.508741 
L 485.612351 223.289526 
L 485.267023 222.149069 
L 485.124645 221.582562 
L 484.900066 219.9209 
L 484.570186 219.173066 
L 484.642586 218.814241 
L 484.527894 217.609631 
L 484.353912 217.355804 
L 482.571001 217.899016 
L 482.108638 218.454734 
L 481.598294 218.829198 
L 481.316162 218.817001 
L 480.831633 219.503762 
L 480.534505 219.471948 
L 480.093301 219.57602 
L 478.6395 218.606514 
L 478.581058 218.343674 
L 478.657683 218.085391 
L 478.266262 217.39645 
L 478.329361 217.138162 
L 477.880018 215.49078 
L 477.90815 214.98399 
L 477.796896 214.246789 
L 477.61247 213.789053 
L 476.253368 212.460811 
L 475.546576 212.478692 
L 475.357492 212.546593 
L 475.073895 212.522316 
L 474.629789 212.26839 
L 474.329672 212.292462 
L 474.143497 212.558242 
L 473.675261 212.703088 
L 473.38103 213.005111 
L 472.950832 213.038727 
L 472.462558 213.312933 
L 472.090257 213.771984 
L 471.719645 214.583945 
L 470.258595 216.393633 
L 469.604211 216.69549 
L 469.288934 217.068493 
L 468.283311 217.66478 
L 467.097388 218.865219 
L 466.999651 219.363645 
L 466.827081 219.39381 
L 466.629541 219.310125 
L 466.412059 217.72137 
L 466.160342 216.614164 
L 465.763111 215.458433 
L 464.982493 214.285972 
L 463.626454 212.950151 
L 461.826253 211.638303 
L 461.319956 211.205327 
L 460.524691 211.159714 
L 457.122842 211.196128 
L 455.907251 211.543034 
L 454.841806 211.61813 
L 453.617564 211.060249 
L 453.302411 211.105421 
L 452.979892 210.856057 
L 452.064517 210.931207 
L 448.471049 209.947843 
L 447.557154 209.482476 
L 447.688684 208.925499 
L 448.210899 208.742462 
L 449.011969 208.241176 
L 449.229714 207.856078 
L 449.732537 207.523994 
L 450.962936 207.68311 
L 452.043461 207.381466 
L 451.953595 206.973572 
L 451.730163 206.785508 
L 452.381716 206.101973 
L 452.531459 205.708366 
L 452.801626 205.542315 
L 453.064167 205.648155 
L 453.35664 205.995702 
L 454.375477 205.14578 
L 454.782775 204.485748 
L 455.218059 204.183828 
L 455.365229 203.902458 
L 455.959091 203.722262 
L 456.786874 203.235752 
L 457.161827 202.749602 
L 457.328357 203.132891 
L 457.764767 203.493394 
L 457.933597 203.436827 
L 458.130512 203.493539 
L 458.656347 204.178895 
L 458.578266 204.5801 
L 458.683292 204.891001 
L 459.180208 205.278274 
L 459.320703 205.750386 
L 459.724 205.665565 
L 460.174035 206.005632 
L 460.220707 206.600425 
L 460.520638 207.044253 
L 460.839586 206.855549 
L 461.336689 206.770791 
L 461.768063 206.827593 
L 461.664734 207.261844 
L 461.505119 207.762127 
L 461.945847 207.903913 
L 462.021014 207.55463 
L 462.217867 207.485255 
L 462.321034 207.771892 
L 462.74302 207.913669 
L 463.54027 207.715726 
L 463.606049 207.366439 
L 464.185911 206.643488 
L 464.61415 205.148207 
L 464.79425 205.057643 
L 465.51443 205.292044 
L 465.555136 204.718066 
L 465.251447 204.29876 
L 465.611626 204.174294 
L 465.35633 203.942608 
L 465.533039 203.664441 
L 465.803188 203.528608 
L 465.994474 203.630644 
L 466.129417 203.879926 
L 466.298304 203.664727 
L 466.140971 203.075574 
L 465.927299 202.622333 
L 466.917791 202.260173 
L 467.78473 201.274871 
L 468.122377 201.184362 
L 467.897429 200.85572 
L 467.503523 200.866908 
L 466.625828 200.56069 
L 466.175913 199.892128 
L 465.511967 199.755919 
L 465.275731 199.517932 
L 465.399691 199.019487 
L 465.726107 198.928976 
L 466.22123 199.031125 
L 466.300182 198.544024 
L 467.020888 197.298076 
L 467.977578 197.049195 
L 468.476856 196.550343 
L 469.789996 195.543072 
L 471.875969 194.796862 
L 472.499668 194.455761 
L 472.987157 193.579381 
L 472.996596 193.343368 
L 472.839238 192.797635 
L 473.019483 192.261439 
L 473.169655 191.936727 
L 473.447272 191.81599 
L 473.722115 191.435458 
L 474.197748 191.212024 
L 474.148593 190.502162 
L 474.10677 189.916076 
L 474.532982 189.759108 
L 475.181216 189.698927 
L 475.793585 189.197616 
L 475.8837 188.943876 
L 475.68593 188.061661 
L 476.266254 187.389921 
L 476.505737 186.904011 
L 478.358619 185.905501 
L 478.883315 185.102826 
L 479.425812 184.840926 
L 480.302345 184.103304 
L 480.818253 183.716391 
L 481.883905 182.005986 
L 481.884038 181.583224 
L 481.70127 181.194515 
L 481.990893 180.642018 
L 482.333176 180.075665 
L 482.135228 179.71761 
L 482.108316 179.094504 
L 482.333542 178.906516 
L 482.254933 178.392154 
L 481.966385 178.146654 
L 481.600684 177.989736 
L 481.388698 177.553517 
L 481.580354 176.454652 
L 481.781106 176.002865 
L 482.153315 175.652527 
L 483.347933 174.810031 
L 483.768213 174.236135 
L 483.873531 173.37517 
L 483.747627 173.037777 
L 481.399046 171.781509 
L 480.978883 171.985307 
L 480.67867 172.332641 
L 480.296105 172.264523 
L 479.545986 171.91688 
L 478.233069 172.075054 
L 477.715385 172.218384 
L 476.799846 173.011111 
L 476.234938 173.01472 
L 475.681226 173.20485 
L 475.181591 173.209222 
L 474.668281 173.662212 
L 474.481743 173.982746 
L 473.992899 174.273746 
L 473.758819 174.314459 
L 473.506207 174.739218 
L 473.573582 175.233196 
L 473.951572 175.586777 
L 473.783462 175.742294 
L 473.298843 175.686265 
L 472.974818 175.482224 
L 473.123836 174.095582 
L 473.041528 173.40826 
L 472.636604 172.886991 
L 472.269025 172.781132 
L 470.843517 173.082738 
L 470.400923 173.029717 
L 468.846244 173.375687 
L 468.223916 173.795829 
L 467.704225 174.711645 
L 467.696924 175.796547 
L 464.737528 179.48054 
L 463.878921 180.315724 
L 463.456732 181.432669 
L 463.242263 181.641743 
L 463.219589 182.076769 
L 463.039431 182.357675 
L 462.760279 182.502582 
L 461.036378 182.193784 
L 460.734898 181.915721 
L 459.805098 180.593652 
L 459.370049 180.366891 
L 459.074386 180.611498 
L 458.687227 180.688394 
L 458.435209 180.538746 
L 456.926961 181.340261 
L 456.562242 181.607475 
L 455.756455 181.743092 
L 455.288045 182.436248 
L 454.644334 182.426944 
L 453.833949 182.784609 
L 452.600342 183.413997 
L 451.965761 183.119208 
L 451.723988 182.74094 
L 451.362718 182.73831 
L 451.015891 183.345386 
L 450.450412 183.262916 
L 449.935371 183.825305 
L 449.7552 184.110714 
L 449.376995 184.332612 
L 449.277819 184.654306 
L 448.971672 184.785602 
L 448.674643 184.672182 
L 448.391162 184.363917 
L 447.468373 184.36807 
L 446.217883 183.836515 
L 439.386793 163.564102 
L 439.509573 162.942154 
L 439.583679 162.296919 
L 439.896231 161.863108 
L 440.696443 161.457109 
L 441.167662 160.875299 
L 442.248171 159.99131 
L 443.847545 159.080443 
L 445.025289 158.067915 
L 445.578414 157.959528 
L 445.929717 158.143705 
L 446.03804 158.036476 
L 445.961861 157.814362 
L 446.132023 157.705074 
L 446.661024 157.652311 
L 447.145146 157.451092 
L 447.514836 157.460806 
L 448.329039 157.336878 
L 449.720316 157.412455 
L 449.890286 157.642685 
L 450.344493 157.590229 
L 450.455748 157.233941 
L 451.025557 156.79785 
L 451.220024 156.451785 
L 452.056315 156.320206 
L 453.316402 155.657931 
L 453.805101 154.966436 
L 453.172995 154.474123 
L 453.015256 153.991899 
L 453.108825 152.651011 
L 453.307014 152.268493 
L 453.555262 152.288771 
L 454.02731 151.827373 
L 457.655227 151.350876 
L 459.033328 150.589653 
L 459.433451 150.167955 
L 463.023578 148.123689 
L 464.876106 147.279401 
L 465.699186 146.676265 
L 466.081531 146.55037 
L 473.276189 140.279584 
L 478.580215 136.132158 
L 479.833226 135.631369 
L 480.835587 135.382815 
L 481.333382 135.297729 
L 481.3909 135.417068 
L 482.524297 135.277166 
L 482.650668 135.345629 
L 482.71922 135.162243 
L 483.815508 134.909798 
L 489.771878 134.267187 
L 491.360056 133.930104 
L 491.88153 133.92 
L 491.88153 133.92 
" clip-path="url(#p6121f291a9)" style="fill: none; stroke: #000000"/>
   </g>
   <g id="matplotlib.axis_1">
    <g id="xtick_1">
     <g id="line2d_1">
      <path d="M 215.39984 768.96 
L 215.39984 103.68 
" clip-path="url(#p6121f291a9)" style="fill: none; stroke: #b0b0b0; stroke-width: 0.8; stroke-linecap: square"/>
     </g>
     <g id="line2d_2">
      <defs>
       <path id="ma7c7862a72" d="M 0 0 
L 0 3.5 
" style="stroke: #000000; stroke-width: 0.8"/>
      </defs>
      <g>
       <use xlink:href="#ma7c7862a72" x="215.39984" y="768.96" style="stroke: #000000; stroke-width: 0.8"/>
      </g>
     </g>
     <g id="text_1">
      <!-- 58.2 -->
      <g transform="translate(206.516259 803.002415) rotate(-45) scale(0.1 -0.1)">
       <defs>
        <path id="DejaVuSans-2212" d="M 678 2272 
L 4684 2272 
L 4684 1741 
L 678 1741 
L 678 2272 
z
" transform="scale(0.015625)"/>
        <path id="DejaVuSans-35" d="M 691 4666 
L 3169 4666 
L 3169 4134 
L 1269 4134 
L 1269 2991 
Q 1406 3038 1543 3061 
Q 1681 3084 1819 3084 
Q 2600 3084 3056 2656 
Q 3513 2228 3513 1497 
Q 3513 744 3044 326 
Q 2575 -91 1722 -91 
Q 1428 -91 1123 -41 
Q 819 9 494 109 
L 494 744 
Q 775 591 1075 516 
Q 1375 441 1709 441 
Q 2250 441 2565 725 
Q 2881 1009 2881 1497 
Q 2881 1984 2565 2268 
Q 2250 2553 1709 2553 
Q 1456 2553 1204 2497 
Q 953 2441 691 2322 
L 691 4666 
z
" transform="scale(0.015625)"/>
        <path id="DejaVuSans-38" d="M 2034 2216 
Q 1584 2216 1326 1975 
Q 1069 1734 1069 1313 
Q 1069 891 1326 650 
Q 1584 409 2034 409 
Q 2484 409 2743 651 
Q 3003 894 3003 1313 
Q 3003 1734 2745 1975 
Q 2488 2216 2034 2216 
z
M 1403 2484 
Q 997 2584 770 2862 
Q 544 3141 544 3541 
Q 544 4100 942 4425 
Q 1341 4750 2034 4750 
Q 2731 4750 3128 4425 
Q 3525 4100 3525 3541 
Q 3525 3141 3298 2862 
Q 3072 2584 2669 2484 
Q 3125 2378 3379 2068 
Q 3634 1759 3634 1313 
Q 3634 634 3220 271 
Q 2806 -91 2034 -91 
Q 1263 -91 848 271 
Q 434 634 434 1313 
Q 434 1759 690 2068 
Q 947 2378 1403 2484 
z
M 1172 3481 
Q 1172 3119 1398 2916 
Q 1625 2713 2034 2713 
Q 2441 2713 2670 2916 
Q 2900 3119 2900 3481 
Q 2900 3844 2670 4047 
Q 2441 4250 2034 4250 
Q 1625 4250 1398 4047 
Q 1172 3844 1172 3481 
z
" transform="scale(0.015625)"/>
        <path id="DejaVuSans-2e" d="M 684 794 
L 1344 794 
L 1344 0 
L 684 0 
L 684 794 
z
" transform="scale(0.015625)"/>
        <path id="DejaVuSans-32" d="M 1228 531 
L 3431 531 
L 3431 0 
L 469 0 
L 469 531 
Q 828 903 1448 1529 
Q 2069 2156 2228 2338 
Q 2531 2678 2651 2914 
Q 2772 3150 2772 3378 
Q 2772 3750 2511 3984 
Q 2250 4219 1831 4219 
Q 1534 4219 1204 4116 
Q 875 4013 500 3803 
L 500 4441 
Q 881 4594 1212 4672 
Q 1544 4750 1819 4750 
Q 2544 4750 2975 4387 
Q 3406 4025 3406 3419 
Q 3406 3131 3298 2873 
Q 3191 2616 2906 2266 
Q 2828 2175 2409 1742 
Q 1991 1309 1228 531 
z
" transform="scale(0.015625)"/>
       </defs>
       <use xlink:href="#DejaVuSans-2212"/>
       <use xlink:href="#DejaVuSans-35" transform="translate(83.789062 0)"/>
       <use xlink:href="#DejaVuSans-38" transform="translate(147.412109 0)"/>
       <use xlink:href="#DejaVuSans-2e" transform="translate(211.035156 0)"/>
       <use xlink:href="#DejaVuSans-32" transform="translate(242.822266 0)"/>
      </g>
     </g>
    </g>
    <g id="xtick_2">
     <g id="line2d_3">
      <path d="M 278.423002 768.96 
L 278.423002 103.68 
" clip-path="url(#p6121f291a9)" style="fill: none; stroke: #b0b0b0; stroke-width: 0.8; stroke-linecap: square"/>
     </g>
     <g id="line2d_4">
      <g>
       <use xlink:href="#ma7c7862a72" x="278.423002" y="768.96" style="stroke: #000000; stroke-width: 0.8"/>
      </g>
     </g>
     <g id="text_2">
      <!-- 58.0 -->
      <g transform="translate(269.539421 803.002415) rotate(-45) scale(0.1 -0.1)">
       <defs>
        <path id="DejaVuSans-30" d="M 2034 4250 
Q 1547 4250 1301 3770 
Q 1056 3291 1056 2328 
Q 1056 1369 1301 889 
Q 1547 409 2034 409 
Q 2525 409 2770 889 
Q 3016 1369 3016 2328 
Q 3016 3291 2770 3770 
Q 2525 4250 2034 4250 
z
M 2034 4750 
Q 2819 4750 3233 4129 
Q 3647 3509 3647 2328 
Q 3647 1150 3233 529 
Q 2819 -91 2034 -91 
Q 1250 -91 836 529 
Q 422 1150 422 2328 
Q 422 3509 836 4129 
Q 1250 4750 2034 4750 
z
" transform="scale(0.015625)"/>
       </defs>
       <use xlink:href="#DejaVuSans-2212"/>
       <use xlink:href="#DejaVuSans-35" transform="translate(83.789062 0)"/>
       <use xlink:href="#DejaVuSans-38" transform="translate(147.412109 0)"/>
       <use xlink:href="#DejaVuSans-2e" transform="translate(211.035156 0)"/>
       <use xlink:href="#DejaVuSans-30" transform="translate(242.822266 0)"/>
      </g>
     </g>
    </g>
    <g id="xtick_3">
     <g id="line2d_5">
      <path d="M 341.446165 768.96 
L 341.446165 103.68 
" clip-path="url(#p6121f291a9)" style="fill: none; stroke: #b0b0b0; stroke-width: 0.8; stroke-linecap: square"/>
     </g>
     <g id="line2d_6">
      <g>
       <use xlink:href="#ma7c7862a72" x="341.446165" y="768.96" style="stroke: #000000; stroke-width: 0.8"/>
      </g>
     </g>
     <g id="text_3">
      <!-- 57.8 -->
      <g transform="translate(332.562583 803.002415) rotate(-45) scale(0.1 -0.1)">
       <defs>
        <path id="DejaVuSans-37" d="M 525 4666 
L 3525 4666 
L 3525 4397 
L 1831 0 
L 1172 0 
L 2766 4134 
L 525 4134 
L 525 4666 
z
" transform="scale(0.015625)"/>
       </defs>
       <use xlink:href="#DejaVuSans-2212"/>
       <use xlink:href="#DejaVuSans-35" transform="translate(83.789062 0)"/>
       <use xlink:href="#DejaVuSans-37" transform="translate(147.412109 0)"/>
       <use xlink:href="#DejaVuSans-2e" transform="translate(211.035156 0)"/>
       <use xlink:href="#DejaVuSans-38" transform="translate(242.822266 0)"/>
      </g>
     </g>
    </g>
    <g id="xtick_4">
     <g id="line2d_7">
      <path d="M 404.469327 768.96 
L 404.469327 103.68 
" clip-path="url(#p6121f291a9)" style="fill: none; stroke: #b0b0b0; stroke-width: 0.8; stroke-linecap: square"/>
     </g>
     <g id="line2d_8">
      <g>
       <use xlink:href="#ma7c7862a72" x="404.469327" y="768.96" style="stroke: #000000; stroke-width: 0.8"/>
      </g>
     </g>
     <g id="text_4">
      <!-- 57.6 -->
      <g transform="translate(395.585746 803.002415) rotate(-45) scale(0.1 -0.1)">
       <defs>
        <path id="DejaVuSans-36" d="M 2113 2584 
Q 1688 2584 1439 2293 
Q 1191 2003 1191 1497 
Q 1191 994 1439 701 
Q 1688 409 2113 409 
Q 2538 409 2786 701 
Q 3034 994 3034 1497 
Q 3034 2003 2786 2293 
Q 2538 2584 2113 2584 
z
M 3366 4563 
L 3366 3988 
Q 3128 4100 2886 4159 
Q 2644 4219 2406 4219 
Q 1781 4219 1451 3797 
Q 1122 3375 1075 2522 
Q 1259 2794 1537 2939 
Q 1816 3084 2150 3084 
Q 2853 3084 3261 2657 
Q 3669 2231 3669 1497 
Q 3669 778 3244 343 
Q 2819 -91 2113 -91 
Q 1303 -91 875 529 
Q 447 1150 447 2328 
Q 447 3434 972 4092 
Q 1497 4750 2381 4750 
Q 2619 4750 2861 4703 
Q 3103 4656 3366 4563 
z
" transform="scale(0.015625)"/>
       </defs>
       <use xlink:href="#DejaVuSans-2212"/>
       <use xlink:href="#DejaVuSans-35" transform="translate(83.789062 0)"/>
       <use xlink:href="#DejaVuSans-37" transform="translate(147.412109 0)"/>
       <use xlink:href="#DejaVuSans-2e" transform="translate(211.035156 0)"/>
       <use xlink:href="#DejaVuSans-36" transform="translate(242.822266 0)"/>
      </g>
     </g>
    </g>
    <g id="xtick_5">
     <g id="line2d_9">
      <path d="M 467.492489 768.96 
L 467.492489 103.68 
" clip-path="url(#p6121f291a9)" style="fill: none; stroke: #b0b0b0; stroke-width: 0.8; stroke-linecap: square"/>
     </g>
     <g id="line2d_10">
      <g>
       <use xlink:href="#ma7c7862a72" x="467.492489" y="768.96" style="stroke: #000000; stroke-width: 0.8"/>
      </g>
     </g>
     <g id="text_5">
      <!-- 57.4 -->
      <g transform="translate(458.608908 803.002415) rotate(-45) scale(0.1 -0.1)">
       <defs>
        <path id="DejaVuSans-34" d="M 2419 4116 
L 825 1625 
L 2419 1625 
L 2419 4116 
z
M 2253 4666 
L 3047 4666 
L 3047 1625 
L 3713 1625 
L 3713 1100 
L 3047 1100 
L 3047 0 
L 2419 0 
L 2419 1100 
L 313 1100 
L 313 1709 
L 2253 4666 
z
" transform="scale(0.015625)"/>
       </defs>
       <use xlink:href="#DejaVuSans-2212"/>
       <use xlink:href="#DejaVuSans-35" transform="translate(83.789062 0)"/>
       <use xlink:href="#DejaVuSans-37" transform="translate(147.412109 0)"/>
       <use xlink:href="#DejaVuSans-2e" transform="translate(211.035156 0)"/>
       <use xlink:href="#DejaVuSans-34" transform="translate(242.822266 0)"/>
      </g>
     </g>
    </g>
    <g id="xtick_6">
     <g id="line2d_11">
      <path d="M 530.515652 768.96 
L 530.515652 103.68 
" clip-path="url(#p6121f291a9)" style="fill: none; stroke: #b0b0b0; stroke-width: 0.8; stroke-linecap: square"/>
     </g>
     <g id="line2d_12">
      <g>
       <use xlink:href="#ma7c7862a72" x="530.515652" y="768.96" style="stroke: #000000; stroke-width: 0.8"/>
      </g>
     </g>
     <g id="text_6">
      <!-- 57.2 -->
      <g transform="translate(521.63207 803.002415) rotate(-45) scale(0.1 -0.1)">
       <use xlink:href="#DejaVuSans-2212"/>
       <use xlink:href="#DejaVuSans-35" transform="translate(83.789062 0)"/>
       <use xlink:href="#DejaVuSans-37" transform="translate(147.412109 0)"/>
       <use xlink:href="#DejaVuSans-2e" transform="translate(211.035156 0)"/>
       <use xlink:href="#DejaVuSans-32" transform="translate(242.822266 0)"/>
      </g>
     </g>
    </g>
    <g id="text_7">
     <!-- Longitude () -->
     <g transform="translate(336.139844 816.071414) scale(0.1 -0.1)">
      <defs>
       <path id="DejaVuSans-4c" d="M 628 4666 
L 1259 4666 
L 1259 531 
L 3531 531 
L 3531 0 
L 628 0 
L 628 4666 
z
" transform="scale(0.015625)"/>
       <path id="DejaVuSans-6f" d="M 1959 3097 
Q 1497 3097 1228 2736 
Q 959 2375 959 1747 
Q 959 1119 1226 758 
Q 1494 397 1959 397 
Q 2419 397 2687 759 
Q 2956 1122 2956 1747 
Q 2956 2369 2687 2733 
Q 2419 3097 1959 3097 
z
M 1959 3584 
Q 2709 3584 3137 3096 
Q 3566 2609 3566 1747 
Q 3566 888 3137 398 
Q 2709 -91 1959 -91 
Q 1206 -91 779 398 
Q 353 888 353 1747 
Q 353 2609 779 3096 
Q 1206 3584 1959 3584 
z
" transform="scale(0.015625)"/>
       <path id="DejaVuSans-6e" d="M 3513 2113 
L 3513 0 
L 2938 0 
L 2938 2094 
Q 2938 2591 2744 2837 
Q 2550 3084 2163 3084 
Q 1697 3084 1428 2787 
Q 1159 2491 1159 1978 
L 1159 0 
L 581 0 
L 581 3500 
L 1159 3500 
L 1159 2956 
Q 1366 3272 1645 3428 
Q 1925 3584 2291 3584 
Q 2894 3584 3203 3211 
Q 3513 2838 3513 2113 
z
" transform="scale(0.015625)"/>
       <path id="DejaVuSans-67" d="M 2906 1791 
Q 2906 2416 2648 2759 
Q 2391 3103 1925 3103 
Q 1463 3103 1205 2759 
Q 947 2416 947 1791 
Q 947 1169 1205 825 
Q 1463 481 1925 481 
Q 2391 481 2648 825 
Q 2906 1169 2906 1791 
z
M 3481 434 
Q 3481 -459 3084 -895 
Q 2688 -1331 1869 -1331 
Q 1566 -1331 1297 -1286 
Q 1028 -1241 775 -1147 
L 775 -588 
Q 1028 -725 1275 -790 
Q 1522 -856 1778 -856 
Q 2344 -856 2625 -561 
Q 2906 -266 2906 331 
L 2906 616 
Q 2728 306 2450 153 
Q 2172 0 1784 0 
Q 1141 0 747 490 
Q 353 981 353 1791 
Q 353 2603 747 3093 
Q 1141 3584 1784 3584 
Q 2172 3584 2450 3431 
Q 2728 3278 2906 2969 
L 2906 3500 
L 3481 3500 
L 3481 434 
z
" transform="scale(0.015625)"/>
       <path id="DejaVuSans-69" d="M 603 3500 
L 1178 3500 
L 1178 0 
L 603 0 
L 603 3500 
z
M 603 4863 
L 1178 4863 
L 1178 4134 
L 603 4134 
L 603 4863 
z
" transform="scale(0.015625)"/>
       <path id="DejaVuSans-74" d="M 1172 4494 
L 1172 3500 
L 2356 3500 
L 2356 3053 
L 1172 3053 
L 1172 1153 
Q 1172 725 1289 603 
Q 1406 481 1766 481 
L 2356 481 
L 2356 0 
L 1766 0 
Q 1100 0 847 248 
Q 594 497 594 1153 
L 594 3053 
L 172 3053 
L 172 3500 
L 594 3500 
L 594 4494 
L 1172 4494 
z
" transform="scale(0.015625)"/>
       <path id="DejaVuSans-75" d="M 544 1381 
L 544 3500 
L 1119 3500 
L 1119 1403 
Q 1119 906 1312 657 
Q 1506 409 1894 409 
Q 2359 409 2629 706 
Q 2900 1003 2900 1516 
L 2900 3500 
L 3475 3500 
L 3475 0 
L 2900 0 
L 2900 538 
Q 2691 219 2414 64 
Q 2138 -91 1772 -91 
Q 1169 -91 856 284 
Q 544 659 544 1381 
z
M 1991 3584 
L 1991 3584 
z
" transform="scale(0.015625)"/>
       <path id="DejaVuSans-64" d="M 2906 2969 
L 2906 4863 
L 3481 4863 
L 3481 0 
L 2906 0 
L 2906 525 
Q 2725 213 2448 61 
Q 2172 -91 1784 -91 
Q 1150 -91 751 415 
Q 353 922 353 1747 
Q 353 2572 751 3078 
Q 1150 3584 1784 3584 
Q 2172 3584 2448 3432 
Q 2725 3281 2906 2969 
z
M 947 1747 
Q 947 1113 1208 752 
Q 1469 391 1925 391 
Q 2381 391 2643 752 
Q 2906 1113 2906 1747 
Q 2906 2381 2643 2742 
Q 2381 3103 1925 3103 
Q 1469 3103 1208 2742 
Q 947 2381 947 1747 
z
" transform="scale(0.015625)"/>
       <path id="DejaVuSans-65" d="M 3597 1894 
L 3597 1613 
L 953 1613 
Q 991 1019 1311 708 
Q 1631 397 2203 397 
Q 2534 397 2845 478 
Q 3156 559 3463 722 
L 3463 178 
Q 3153 47 2828 -22 
Q 2503 -91 2169 -91 
Q 1331 -91 842 396 
Q 353 884 353 1716 
Q 353 2575 817 3079 
Q 1281 3584 2069 3584 
Q 2775 3584 3186 3129 
Q 3597 2675 3597 1894 
z
M 3022 2063 
Q 3016 2534 2758 2815 
Q 2500 3097 2075 3097 
Q 1594 3097 1305 2825 
Q 1016 2553 972 2059 
L 3022 2063 
z
" transform="scale(0.015625)"/>
       <path id="DejaVuSans-20" transform="scale(0.015625)"/>
       <path id="DejaVuSans-28" d="M 1984 4856 
Q 1566 4138 1362 3434 
Q 1159 2731 1159 2009 
Q 1159 1288 1364 580 
Q 1569 -128 1984 -844 
L 1484 -844 
Q 1016 -109 783 600 
Q 550 1309 550 2009 
Q 550 2706 781 3412 
Q 1013 4119 1484 4856 
L 1984 4856 
z
" transform="scale(0.015625)"/>
       <path id="DejaVuSans-b0" d="M 1600 4347 
Q 1350 4347 1178 4173 
Q 1006 4000 1006 3750 
Q 1006 3503 1178 3333 
Q 1350 3163 1600 3163 
Q 1850 3163 2022 3333 
Q 2194 3503 2194 3750 
Q 2194 3997 2020 4172 
Q 1847 4347 1600 4347 
z
M 1600 4750 
Q 1800 4750 1984 4673 
Q 2169 4597 2303 4453 
Q 2447 4313 2519 4134 
Q 2591 3956 2591 3750 
Q 2591 3338 2302 3052 
Q 2013 2766 1594 2766 
Q 1172 2766 890 3047 
Q 609 3328 609 3750 
Q 609 4169 896 4459 
Q 1184 4750 1600 4750 
z
" transform="scale(0.015625)"/>
       <path id="DejaVuSans-29" d="M 513 4856 
L 1013 4856 
Q 1481 4119 1714 3412 
Q 1947 2706 1947 2009 
Q 1947 1309 1714 600 
Q 1481 -109 1013 -844 
L 513 -844 
Q 928 -128 1133 580 
Q 1338 1288 1338 2009 
Q 1338 2731 1133 3434 
Q 928 4138 513 4856 
z
" transform="scale(0.015625)"/>
      </defs>
      <use xlink:href="#DejaVuSans-4c"/>
      <use xlink:href="#DejaVuSans-6f" transform="translate(53.962891 0)"/>
      <use xlink:href="#DejaVuSans-6e" transform="translate(115.144531 0)"/>
      <use xlink:href="#DejaVuSans-67" transform="translate(178.523438 0)"/>
      <use xlink:href="#DejaVuSans-69" transform="translate(242 0)"/>
      <use xlink:href="#DejaVuSans-74" transform="translate(269.783203 0)"/>
      <use xlink:href="#DejaVuSans-75" transform="translate(308.992188 0)"/>
      <use xlink:href="#DejaVuSans-64" transform="translate(372.371094 0)"/>
      <use xlink:href="#DejaVuSans-65" transform="translate(435.847656 0)"/>
      <use xlink:href="#DejaVuSans-20" transform="translate(497.371094 0)"/>
      <use xlink:href="#DejaVuSans-28" transform="translate(529.158203 0)"/>
      <use xlink:href="#DejaVuSans-b0" transform="translate(568.171875 0)"/>
      <use xlink:href="#DejaVuSans-29" transform="translate(618.171875 0)"/>
     </g>
    </g>
   </g>
   <g id="matplotlib.axis_2">
    <g id="ytick_1">
     <g id="line2d_13">
      <path d="M 162.303292 752.548354 
L 575.696708 752.548354 
" clip-path="url(#p6121f291a9)" style="fill: none; stroke: #b0b0b0; stroke-width: 0.8; stroke-linecap: square"/>
     </g>
     <g id="line2d_14">
      <defs>
       <path id="mcf05f731fb" d="M 0 0 
L -3.5 0 
" style="stroke: #000000; stroke-width: 0.8"/>
      </defs>
      <g>
       <use xlink:href="#mcf05f731fb" x="162.303292" y="752.548354" style="stroke: #000000; stroke-width: 0.8"/>
      </g>
     </g>
     <g id="text_8">
      <!-- 4.75 -->
      <g transform="translate(124.657979 756.347573) scale(0.1 -0.1)">
       <use xlink:href="#DejaVuSans-2212"/>
       <use xlink:href="#DejaVuSans-34" transform="translate(83.789062 0)"/>
       <use xlink:href="#DejaVuSans-2e" transform="translate(147.412109 0)"/>
       <use xlink:href="#DejaVuSans-37" transform="translate(179.199219 0)"/>
       <use xlink:href="#DejaVuSans-35" transform="translate(242.822266 0)"/>
      </g>
     </g>
    </g>
    <g id="ytick_2">
     <g id="line2d_15">
      <path d="M 162.303292 673.665652 
L 575.696708 673.665652 
" clip-path="url(#p6121f291a9)" style="fill: none; stroke: #b0b0b0; stroke-width: 0.8; stroke-linecap: square"/>
     </g>
     <g id="line2d_16">
      <g>
       <use xlink:href="#mcf05f731fb" x="162.303292" y="673.665652" style="stroke: #000000; stroke-width: 0.8"/>
      </g>
     </g>
     <g id="text_9">
      <!-- 4.50 -->
      <g transform="translate(124.657979 677.464871) scale(0.1 -0.1)">
       <use xlink:href="#DejaVuSans-2212"/>
       <use xlink:href="#DejaVuSans-34" transform="translate(83.789062 0)"/>
       <use xlink:href="#DejaVuSans-2e" transform="translate(147.412109 0)"/>
       <use xlink:href="#DejaVuSans-35" transform="translate(179.199219 0)"/>
       <use xlink:href="#DejaVuSans-30" transform="translate(242.822266 0)"/>
      </g>
     </g>
    </g>
    <g id="ytick_3">
     <g id="line2d_17">
      <path d="M 162.303292 594.78295 
L 575.696708 594.78295 
" clip-path="url(#p6121f291a9)" style="fill: none; stroke: #b0b0b0; stroke-width: 0.8; stroke-linecap: square"/>
     </g>
     <g id="line2d_18">
      <g>
       <use xlink:href="#mcf05f731fb" x="162.303292" y="594.78295" style="stroke: #000000; stroke-width: 0.8"/>
      </g>
     </g>
     <g id="text_10">
      <!-- 4.25 -->
      <g transform="translate(124.657979 598.582169) scale(0.1 -0.1)">
       <use xlink:href="#DejaVuSans-2212"/>
       <use xlink:href="#DejaVuSans-34" transform="translate(83.789062 0)"/>
       <use xlink:href="#DejaVuSans-2e" transform="translate(147.412109 0)"/>
       <use xlink:href="#DejaVuSans-32" transform="translate(179.199219 0)"/>
       <use xlink:href="#DejaVuSans-35" transform="translate(242.822266 0)"/>
      </g>
     </g>
    </g>
    <g id="ytick_4">
     <g id="line2d_19">
      <path d="M 162.303292 515.900248 
L 575.696708 515.900248 
" clip-path="url(#p6121f291a9)" style="fill: none; stroke: #b0b0b0; stroke-width: 0.8; stroke-linecap: square"/>
     </g>
     <g id="line2d_20">
      <g>
       <use xlink:href="#mcf05f731fb" x="162.303292" y="515.900248" style="stroke: #000000; stroke-width: 0.8"/>
      </g>
     </g>
     <g id="text_11">
      <!-- 4.00 -->
      <g transform="translate(124.657979 519.699467) scale(0.1 -0.1)">
       <use xlink:href="#DejaVuSans-2212"/>
       <use xlink:href="#DejaVuSans-34" transform="translate(83.789062 0)"/>
       <use xlink:href="#DejaVuSans-2e" transform="translate(147.412109 0)"/>
       <use xlink:href="#DejaVuSans-30" transform="translate(179.199219 0)"/>
       <use xlink:href="#DejaVuSans-30" transform="translate(242.822266 0)"/>
      </g>
     </g>
    </g>
    <g id="ytick_5">
     <g id="line2d_21">
      <path d="M 162.303292 437.017546 
L 575.696708 437.017546 
" clip-path="url(#p6121f291a9)" style="fill: none; stroke: #b0b0b0; stroke-width: 0.8; stroke-linecap: square"/>
     </g>
     <g id="line2d_22">
      <g>
       <use xlink:href="#mcf05f731fb" x="162.303292" y="437.017546" style="stroke: #000000; stroke-width: 0.8"/>
      </g>
     </g>
     <g id="text_12">
      <!-- 3.75 -->
      <g transform="translate(124.657979 440.816765) scale(0.1 -0.1)">
       <defs>
        <path id="DejaVuSans-33" d="M 2597 2516 
Q 3050 2419 3304 2112 
Q 3559 1806 3559 1356 
Q 3559 666 3084 287 
Q 2609 -91 1734 -91 
Q 1441 -91 1130 -33 
Q 819 25 488 141 
L 488 750 
Q 750 597 1062 519 
Q 1375 441 1716 441 
Q 2309 441 2620 675 
Q 2931 909 2931 1356 
Q 2931 1769 2642 2001 
Q 2353 2234 1838 2234 
L 1294 2234 
L 1294 2753 
L 1863 2753 
Q 2328 2753 2575 2939 
Q 2822 3125 2822 3475 
Q 2822 3834 2567 4026 
Q 2313 4219 1838 4219 
Q 1578 4219 1281 4162 
Q 984 4106 628 3988 
L 628 4550 
Q 988 4650 1302 4700 
Q 1616 4750 1894 4750 
Q 2613 4750 3031 4423 
Q 3450 4097 3450 3541 
Q 3450 3153 3228 2886 
Q 3006 2619 2597 2516 
z
" transform="scale(0.015625)"/>
       </defs>
       <use xlink:href="#DejaVuSans-2212"/>
       <use xlink:href="#DejaVuSans-33" transform="translate(83.789062 0)"/>
       <use xlink:href="#DejaVuSans-2e" transform="translate(147.412109 0)"/>
       <use xlink:href="#DejaVuSans-37" transform="translate(179.199219 0)"/>
       <use xlink:href="#DejaVuSans-35" transform="translate(242.822266 0)"/>
      </g>
     </g>
    </g>
    <g id="ytick_6">
     <g id="line2d_23">
      <path d="M 162.303292 358.134844 
L 575.696708 358.134844 
" clip-path="url(#p6121f291a9)" style="fill: none; stroke: #b0b0b0; stroke-width: 0.8; stroke-linecap: square"/>
     </g>
     <g id="line2d_24">
      <g>
       <use xlink:href="#mcf05f731fb" x="162.303292" y="358.134844" style="stroke: #000000; stroke-width: 0.8"/>
      </g>
     </g>
     <g id="text_13">
      <!-- 3.50 -->
      <g transform="translate(124.657979 361.934063) scale(0.1 -0.1)">
       <use xlink:href="#DejaVuSans-2212"/>
       <use xlink:href="#DejaVuSans-33" transform="translate(83.789062 0)"/>
       <use xlink:href="#DejaVuSans-2e" transform="translate(147.412109 0)"/>
       <use xlink:href="#DejaVuSans-35" transform="translate(179.199219 0)"/>
       <use xlink:href="#DejaVuSans-30" transform="translate(242.822266 0)"/>
      </g>
     </g>
    </g>
    <g id="ytick_7">
     <g id="line2d_25">
      <path d="M 162.303292 279.252142 
L 575.696708 279.252142 
" clip-path="url(#p6121f291a9)" style="fill: none; stroke: #b0b0b0; stroke-width: 0.8; stroke-linecap: square"/>
     </g>
     <g id="line2d_26">
      <g>
       <use xlink:href="#mcf05f731fb" x="162.303292" y="279.252142" style="stroke: #000000; stroke-width: 0.8"/>
      </g>
     </g>
     <g id="text_14">
      <!-- 3.25 -->
      <g transform="translate(124.657979 283.051361) scale(0.1 -0.1)">
       <use xlink:href="#DejaVuSans-2212"/>
       <use xlink:href="#DejaVuSans-33" transform="translate(83.789062 0)"/>
       <use xlink:href="#DejaVuSans-2e" transform="translate(147.412109 0)"/>
       <use xlink:href="#DejaVuSans-32" transform="translate(179.199219 0)"/>
       <use xlink:href="#DejaVuSans-35" transform="translate(242.822266 0)"/>
      </g>
     </g>
    </g>
    <g id="ytick_8">
     <g id="line2d_27">
      <path d="M 162.303292 200.36944 
L 575.696708 200.36944 
" clip-path="url(#p6121f291a9)" style="fill: none; stroke: #b0b0b0; stroke-width: 0.8; stroke-linecap: square"/>
     </g>
     <g id="line2d_28">
      <g>
       <use xlink:href="#mcf05f731fb" x="162.303292" y="200.36944" style="stroke: #000000; stroke-width: 0.8"/>
      </g>
     </g>
     <g id="text_15">
      <!-- 3.00 -->
      <g transform="translate(124.657979 204.168659) scale(0.1 -0.1)">
       <use xlink:href="#DejaVuSans-2212"/>
       <use xlink:href="#DejaVuSans-33" transform="translate(83.789062 0)"/>
       <use xlink:href="#DejaVuSans-2e" transform="translate(147.412109 0)"/>
       <use xlink:href="#DejaVuSans-30" transform="translate(179.199219 0)"/>
       <use xlink:href="#DejaVuSans-30" transform="translate(242.822266 0)"/>
      </g>
     </g>
    </g>
    <g id="ytick_9">
     <g id="line2d_29">
      <path d="M 162.303292 121.486738 
L 575.696708 121.486738 
" clip-path="url(#p6121f291a9)" style="fill: none; stroke: #b0b0b0; stroke-width: 0.8; stroke-linecap: square"/>
     </g>
     <g id="line2d_30">
      <g>
       <use xlink:href="#mcf05f731fb" x="162.303292" y="121.486738" style="stroke: #000000; stroke-width: 0.8"/>
      </g>
     </g>
     <g id="text_16">
      <!-- 2.75 -->
      <g transform="translate(124.657979 125.285957) scale(0.1 -0.1)">
       <use xlink:href="#DejaVuSans-2212"/>
       <use xlink:href="#DejaVuSans-32" transform="translate(83.789062 0)"/>
       <use xlink:href="#DejaVuSans-2e" transform="translate(147.412109 0)"/>
       <use xlink:href="#DejaVuSans-37" transform="translate(179.199219 0)"/>
       <use xlink:href="#DejaVuSans-35" transform="translate(242.822266 0)"/>
      </g>
     </g>
    </g>
    <g id="text_17">
     <!-- Latitude () -->
     <g transform="translate(118.578292 464.889531) rotate(-90) scale(0.1 -0.1)">
      <defs>
       <path id="DejaVuSans-61" d="M 2194 1759 
Q 1497 1759 1228 1600 
Q 959 1441 959 1056 
Q 959 750 1161 570 
Q 1363 391 1709 391 
Q 2188 391 2477 730 
Q 2766 1069 2766 1631 
L 2766 1759 
L 2194 1759 
z
M 3341 1997 
L 3341 0 
L 2766 0 
L 2766 531 
Q 2569 213 2275 61 
Q 1981 -91 1556 -91 
Q 1019 -91 701 211 
Q 384 513 384 1019 
Q 384 1609 779 1909 
Q 1175 2209 1959 2209 
L 2766 2209 
L 2766 2266 
Q 2766 2663 2505 2880 
Q 2244 3097 1772 3097 
Q 1472 3097 1187 3025 
Q 903 2953 641 2809 
L 641 3341 
Q 956 3463 1253 3523 
Q 1550 3584 1831 3584 
Q 2591 3584 2966 3190 
Q 3341 2797 3341 1997 
z
" transform="scale(0.015625)"/>
      </defs>
      <use xlink:href="#DejaVuSans-4c"/>
      <use xlink:href="#DejaVuSans-61" transform="translate(55.712891 0)"/>
      <use xlink:href="#DejaVuSans-74" transform="translate(116.992188 0)"/>
      <use xlink:href="#DejaVuSans-69" transform="translate(156.201172 0)"/>
      <use xlink:href="#DejaVuSans-74" transform="translate(183.984375 0)"/>
      <use xlink:href="#DejaVuSans-75" transform="translate(223.193359 0)"/>
      <use xlink:href="#DejaVuSans-64" transform="translate(286.572266 0)"/>
      <use xlink:href="#DejaVuSans-65" transform="translate(350.048828 0)"/>
      <use xlink:href="#DejaVuSans-20" transform="translate(411.572266 0)"/>
      <use xlink:href="#DejaVuSans-28" transform="translate(443.359375 0)"/>
      <use xlink:href="#DejaVuSans-b0" transform="translate(482.373047 0)"/>
      <use xlink:href="#DejaVuSans-29" transform="translate(532.373047 0)"/>
     </g>
    </g>
   </g>
   <g id="patch_3">
    <path d="M 162.303292 768.96 
L 162.303292 103.68 
" style="fill: none; stroke: #000000; stroke-width: 0.8; stroke-linejoin: miter; stroke-linecap: square"/>
   </g>
   <g id="patch_4">
    <path d="M 575.696708 768.96 
L 575.696708 103.68 
" style="fill: none; stroke: #000000; stroke-width: 0.8; stroke-linejoin: miter; stroke-linecap: square"/>
   </g>
   <g id="patch_5">
    <path d="M 162.303292 768.96 
L 575.696708 768.96 
" style="fill: none; stroke: #000000; stroke-width: 0.8; stroke-linejoin: miter; stroke-linecap: square"/>
   </g>
   <g id="patch_6">
    <path d="M 162.303292 103.68 
L 575.696708 103.68 
" style="fill: none; stroke: #000000; stroke-width: 0.8; stroke-linejoin: miter; stroke-linecap: square"/>
   </g>
  </g>
 </g>
 <defs>
  <clipPath id="p6121f291a9">
   <rect x="162.303292" y="103.68" width="413.393416" height="665.28"/>
  </clipPath>
 </defs>
</svg>
