<?xml version="1.0" encoding="utf-8" standalone="no"?>
<!DOCTYPE svg PUBLIC "-//W3C//DTD SVG 1.1//EN"
  "http://www.w3.org/Graphics/SVG/1.1/DTD/svg11.dtd">
<svg xmlns:xlink="http://www.w3.org/1999/xlink" width="720pt" height="864pt" viewBox="0 0 720 864" xmlns="http://www.w3.org/2000/svg" version="1.1">
 <metadata>
  <rdf:RDF xmlns:dc="http://purl.org/dc/elements/1.1/" xmlns:cc="http://creativecommons.org/ns#" xmlns:rdf="http://www.w3.org/1999/02/22-rdf-syntax-ns#">
   <cc:Work>
    <dc:type rdf:resource="http://purl.org/dc/dcmitype/StillImage"/>
    <dc:date>2025-06-16T17:19:07.995108</dc:date>
    <dc:format>image/svg+xml</dc:format>
    <dc:creator>
     <cc:Agent>
      <dc:title>Matplotlib v3.10.1, https://matplotlib.org/</dc:title>
     </cc:Agent>
    </dc:creator>
   </cc:Work>
  </rdf:RDF>
 </metadata>
 <defs>
  <style type="text/css">*{stroke-linejoin: round; stroke-linecap: butt}</style>
 </defs>
 <g id="figure_1">
  <g id="patch_1">
   <path d="M 0 864 
L 720 864 
L 720 0 
L 0 0 
z
" style="fill: #ffffff"/>
  </g>
  <g id="axes_1">
   <g id="patch_2">
    <path d="M 90 660.310747 
L 648 660.310747 
L 648 212.329253 
L 90 212.329253 
z
" style="fill: #ffffff"/>
   </g>
   <g id="PatchCollection_1">
    <path d="M 557.883265 539.676726 
L 558.252634 539.649184 
L 558.823466 539.417344 
L 559.161977 538.950607 
L 559.473313 538.810191 
L 560.626874 538.921733 
L 561.004192 538.244346 
L 561.101497 537.362285 
L 560.768448 535.20945 
L 560.917546 534.531822 
L 560.993674 534.598935 
L 561.254673 534.289593 
L 561.631796 534.132134 
L 562.025922 534.107347 
L 562.265753 534.191878 
L 563.152233 535.000572 
L 563.961002 535.481773 
L 564.162597 536.103995 
L 563.895478 537.5472 
L 564.090417 538.276229 
L 564.792702 539.124636 
L 565.200903 539.907615 
L 565.401285 541.586144 
L 565.633314 541.891131 
L 565.93921 541.876617 
L 566.534116 541.371995 
L 567.833927 541.22989 
L 568.522868 540.920826 
L 569.198033 540.413305 
L 569.489701 540.315482 
L 569.999278 540.38768 
L 570.397591 540.723245 
L 570.615085 540.84525 
L 570.806082 540.773775 
L 570.708725 539.751467 
L 570.310659 538.589254 
L 569.89426 538.463831 
L 568.981598 539.565753 
L 568.019804 540.244318 
L 567.273095 540.530465 
L 566.573142 540.412926 
L 566.026768 539.803017 
L 565.647813 538.742364 
L 564.925398 537.342077 
L 564.901519 536.752539 
L 565.329422 535.75438 
L 565.535432 534.901521 
L 565.349501 534.292113 
L 565.057453 534.090637 
L 564.182511 533.9535 
L 563.910333 533.738156 
L 563.988187 533.190125 
L 564.319593 532.774464 
L 565.99488 531.445152 
L 566.547047 530.661726 
L 567.041453 528.786654 
L 567.372056 528.336525 
L 567.858109 528.571469 
L 568.209999 528.966512 
L 568.475198 528.865424 
L 568.59702 528.160544 
L 568.888725 527.7887 
L 569.822035 527.632248 
L 570.794166 527.925982 
L 571.105218 528.239194 
L 571.49397 529.080886 
L 571.913141 530.642191 
L 572.142077 530.928016 
L 572.449375 530.958131 
L 572.68175 530.424301 
L 572.765071 529.520148 
L 571.999552 528.709072 
L 571.933012 528.453154 
L 571.830993 527.472698 
L 571.475779 526.906491 
L 569.919352 526.927636 
L 569.233846 526.777808 
L 568.621348 526.524686 
L 568.434409 526.267837 
L 568.383458 525.929196 
L 568.553429 525.760209 
L 569.302753 525.766078 
L 569.596803 525.821394 
L 569.825021 525.653098 
L 569.811001 525.253838 
L 569.558964 524.590021 
L 569.628066 524.324391 
L 569.936265 524.146239 
L 570.541919 524.246229 
L 570.923328 524.487834 
L 572.778516 525.821389 
L 574.929353 526.554791 
L 575.169117 526.713075 
L 575.139409 526.821772 
L 575.052411 527.026226 
L 574.642439 527.190297 
L 574.006911 527.249305 
L 574.042195 527.465984 
L 574.286735 527.706601 
L 575.63556 528.161538 
L 575.662475 529.140039 
L 575.135796 530.425563 
L 574.293511 531.410464 
L 573.920058 532.133325 
L 573.806344 532.695164 
L 573.75774 533.507605 
L 573.912052 534.850878 
L 573.651349 535.207529 
L 572.759912 535.152282 
L 572.570502 535.413059 
L 572.700846 535.732808 
L 573.011306 535.947751 
L 574.882956 536.351677 
L 575.312969 536.632396 
L 575.599414 537.001648 
L 575.945975 538.557831 
L 576.06269 538.887046 
L 576.251922 538.962762 
L 576.403702 538.711475 
L 576.239285 536.683222 
L 576.02633 536.040121 
L 575.559358 535.294419 
L 575.031962 534.346514 
L 574.904263 532.80008 
L 574.91558 532.310908 
L 575.158614 531.661531 
L 575.304559 531.528044 
L 575.645844 531.525873 
L 575.926714 531.802153 
L 576.13437 532.553204 
L 577.559699 533.798821 
L 577.570166 534.163414 
L 577.812295 535.051525 
L 577.867798 536.466814 
L 578.126505 537.692188 
L 578.839994 539.495586 
L 579.732229 541.042661 
L 579.818904 541.644306 
L 579.658506 541.941463 
L 579.306424 541.943606 
L 578.900944 541.858412 
L 578.576687 542.039948 
L 578.369126 544.133278 
L 578.579378 544.398881 
L 579.463818 543.800868 
L 579.833938 543.755296 
L 580.119662 543.866088 
L 580.280367 544.446889 
L 580.194438 545.703773 
L 579.813391 546.873873 
L 579.307732 547.77416 
L 578.054662 548.875652 
L 577.207462 550.298782 
L 576.426137 550.498491 
L 576.050099 550.687104 
L 576.023405 551.146221 
L 576.286682 551.442013 
L 576.645014 551.51956 
L 577.348356 551.450141 
L 577.462986 551.438828 
L 577.769212 551.751789 
L 577.678478 552.151256 
L 576.935255 553.422891 
L 575.981922 554.526372 
L 574.985213 555.124768 
L 574.290201 555.309053 
L 572.248595 555.328338 
L 571.76254 555.034673 
L 571.645979 554.310458 
L 571.992321 553.727425 
L 572.307202 553.371049 
L 572.52229 552.73509 
L 572.560558 552.381392 
L 572.401003 552.117312 
L 571.676423 552.003407 
L 571.335215 551.922512 
L 570.990324 551.460865 
L 570.92428 550.871962 
L 570.635375 550.943764 
L 570.479799 551.139471 
L 570.58025 551.173139 
L 569.797871 551.312672 
L 569.605204 551.515701 
L 569.762819 552.516672 
L 569.721083 554.016587 
L 568.932958 555.820994 
L 568.599255 557.285257 
L 568.180949 557.480778 
L 567.678982 557.500279 
L 566.135177 557.091567 
L 564.85519 556.65626 
L 564.587509 556.814772 
L 564.470761 557.401944 
L 564.258468 557.678683 
L 563.498461 558.125999 
L 561.90125 558.391496 
L 561.126291 558.243083 
L 560.523627 557.597085 
L 559.976538 555.773119 
L 559.849001 555.195648 
L 559.628905 554.883986 
L 559.302319 554.932728 
L 559.105912 555.607396 
L 559.104407 556.383349 
L 558.811982 556.740997 
L 558.690323 557.088721 
L 559.08613 557.359595 
L 559.648651 557.616527 
L 559.880761 558.175281 
L 559.940181 558.47778 
L 559.751007 558.882531 
L 559.447733 559.269234 
L 559.028247 559.80412 
L 558.932915 560.120055 
L 559.171758 560.22968 
L 560.212246 559.476041 
L 561.035619 559.21067 
L 562.714536 559.089088 
L 563.931626 558.80493 
L 565.000555 558.720761 
L 565.324555 558.835144 
L 565.598256 559.104956 
L 565.563751 559.710636 
L 565.125208 560.887992 
L 565.326833 561.244653 
L 565.605004 561.131877 
L 566.197254 560.530836 
L 566.786036 559.410915 
L 566.737918 559.271916 
L 566.823189 559.320439 
L 567.134359 558.850733 
L 567.484383 558.615909 
L 567.884239 558.548226 
L 568.242666 558.811748 
L 568.257151 559.252991 
L 567.203477 561.893569 
L 566.433805 562.82394 
L 565.092067 563.567515 
L 564.581224 563.679181 
L 563.011565 563.567208 
L 562.34205 563.329412 
L 561.600277 563.111813 
L 559.753781 562.570143 
L 557.935583 562.299476 
L 556.27932 562.5155 
L 554.981308 562.998375 
L 554.069017 563.641168 
L 552.453088 566.30581 
L 551.811406 566.50144 
L 551.59753 566.462259 
L 551.480826 566.716689 
L 551.247487 566.794945 
L 551.516428 567.430773 
L 551.944232 568.284059 
L 551.996877 568.93264 
L 551.713666 569.86797 
L 551.074756 570.744475 
L 551.10454 570.80747 
L 549.255883 571.658232 
L 548.512248 572.202179 
L 548.138954 572.883367 
L 547.843575 574.533369 
L 547.668532 574.819283 
L 547.441156 574.917112 
L 547.065788 574.682176 
L 547.077672 573.807386 
L 546.916381 573.492327 
L 546.375033 573.527067 
L 545.29796 574.182628 
L 544.685092 573.890174 
L 544.168894 572.978864 
L 544.205246 572.547369 
L 544.592824 571.105888 
L 544.506469 569.97973 
L 544.242065 568.216061 
L 544.052086 567.454415 
L 544.419413 567.03638 
L 544.874136 567.124378 
L 545.36511 568.115367 
L 546.022701 569.225881 
L 546.284189 569.252272 
L 547.151801 568.631493 
L 548.087525 568.51049 
L 548.522352 568.352089 
L 548.37251 568.110265 
L 547.861004 567.91371 
L 546.839481 567.830966 
L 546.16296 567.450009 
L 546.172595 566.892004 
L 546.35023 566.697364 
L 546.639319 566.461474 
L 547.104412 566.381291 
L 547.370819 566.151653 
L 547.066323 565.90543 
L 546.522234 565.798589 
L 545.74082 565.716667 
L 545.046472 565.643872 
L 544.753463 565.149784 
L 544.948475 564.741582 
L 545.142445 564.50394 
L 545.604433 564.400519 
L 545.880171 564.200951 
L 546.284404 563.435866 
L 546.877765 562.981785 
L 546.829859 562.788743 
L 546.416243 562.783536 
L 545.531547 563.094752 
L 545.183299 563.066297 
L 544.559398 562.801 
L 544.075963 561.741722 
L 544.170453 560.903295 
L 545.901718 558.436451 
L 547.349769 557.362273 
L 547.618077 556.903594 
L 547.743357 556.264171 
L 547.596131 555.839805 
L 547.182968 555.614531 
L 547.023424 555.747096 
L 547.062668 556.159995 
L 547.090866 556.456678 
L 546.823972 557.128999 
L 546.357242 557.618248 
L 545.824505 557.86194 
L 545.102346 558.256085 
L 544.681066 558.870458 
L 544.476577 559.771073 
L 544.120819 560.005787 
L 543.935571 559.95012 
L 543.423366 559.566223 
L 542.954335 559.08567 
L 542.473716 558.918665 
L 542.14628 558.68695 
L 540.615048 558.259726 
L 538.905203 557.931026 
L 538.524987 558.01128 
L 538.394783 558.264341 
L 538.6164 558.560282 
L 539.031413 558.781604 
L 541.690452 559.281193 
L 542.767086 559.767129 
L 542.909789 560.33248 
L 542.740172 560.827628 
L 542.268654 561.315697 
L 542.372413 561.509637 
L 542.77895 561.512686 
L 543.186955 561.804416 
L 543.614894 562.40234 
L 543.754781 563.149973 
L 544.120251 563.568062 
L 544.057741 563.939665 
L 543.614543 564.605346 
L 543.54486 565.520979 
L 543.419654 565.788375 
L 544.061466 566.406128 
L 543.70787 567.537958 
L 543.652748 568.05013 
L 543.477841 568.324181 
L 543.186174 568.363279 
L 542.933449 568.069645 
L 542.579692 568.067694 
L 542.070219 568.81052 
L 541.183291 569.302454 
L 541.158244 569.576466 
L 541.831364 569.629977 
L 542.758212 569.576733 
L 543.020694 569.686423 
L 543.349179 570.113999 
L 543.205273 570.516306 
L 541.677644 571.435 
L 541.105784 571.770598 
L 539.529814 572.958666 
L 538.950838 572.84714 
L 538.586873 572.310565 
L 538.217575 572.128923 
L 538.012724 572.341684 
L 537.911492 572.924905 
L 537.53972 573.77157 
L 537.600683 574.027574 
L 537.839245 574.091183 
L 538.327607 574.155629 
L 538.432698 574.211018 
L 538.02208 575.475842 
L 537.712988 575.913743 
L 535.112539 576.877376 
L 534.504403 577.792207 
L 533.79152 578.263427 
L 532.971811 578.318103 
L 532.68676 578.465872 
L 532.154833 579.299761 
L 531.876976 579.456083 
L 531.413208 579.479158 
L 531.171081 579.27105 
L 530.495497 578.273376 
L 530.246142 577.811053 
L 530.313085 576.768577 
L 530.713146 575.755977 
L 531.335493 574.953593 
L 532.132751 574.640563 
L 533.606899 574.496093 
L 534.018151 574.162294 
L 534.195153 573.656513 
L 534.20173 573.11741 
L 533.832376 572.985395 
L 533.101713 573.436359 
L 531.355131 573.798795 
L 530.713428 574.092278 
L 530.29296 574.682683 
L 529.585375 575.853647 
L 528.976464 576.226201 
L 527.776941 576.636252 
L 527.273468 577.004834 
L 526.961681 577.44562 
L 526.288831 577.712336 
L 525.774033 577.61455 
L 525.262448 577.153316 
L 524.658169 576.158059 
L 525.506325 568.340871 
L 527.792098 556.235667 
L 520.016245 548.863684 
L 521.287903 545.395825 
L 528.111486 534.075482 
L 529.363058 528.044707 
L 527.303377 520.201489 
L 522.065667 496.161966 
L 522.446461 493.101791 
L 532.136173 487.672029 
L 536.512097 485.219921 
L 542.854304 477.551156 
L 544.195803 468.724495 
L 540.357045 459.656006 
L 537.316272 452.709812 
L 533.746327 446.830511 
L 537.969294 445.19725 
L 533.457264 435.46669 
L 542.665961 431.919132 
L 539.379058 425.373318 
L 536.526928 421.221403 
L 537.470552 421.315767 
L 538.205669 421.241706 
L 538.478439 421.120724 
L 541.563704 424.261513 
L 543.748347 423.149705 
L 546.644412 429.173922 
L 547.949121 423.353516 
L 548.038849 420.845496 
L 548.723142 419.360808 
L 550.567565 418.208372 
L 550.961897 417.460701 
L 551.694815 411.604442 
L 551.961182 410.531242 
L 552.350595 410.025855 
L 552.80154 409.728962 
L 553.477924 409.513184 
L 555.069675 409.43419 
L 556.636039 409.714008 
L 557.957711 410.189424 
L 559.293171 410.076416 
L 559.855979 409.814656 
L 562.795926 407.600502 
L 563.746213 406.884812 
L 565.753248 405.90624 
L 567.649651 405.552616 
L 568.396421 405.413364 
L 570.106868 405.497763 
L 571.340195 405.781706 
L 572.004991 406.150101 
L 572.347891 406.519929 
L 572.541413 407.29858 
L 572.61623 408.883879 
L 572.752792 409.089603 
L 573.016419 409.16308 
L 573.167002 408.885363 
L 573.34107 406.894036 
L 573.603948 406.175087 
L 574.917836 405.038071 
L 576.52387 404.000025 
L 577.281179 403.263166 
L 577.532688 402.405961 
L 577.43329 401.591345 
L 577.002779 401.052571 
L 575.113081 399.657226 
L 574.84343 398.871296 
L 574.903929 398.597387 
L 575.130261 398.395954 
L 575.615919 398.394294 
L 575.969855 398.602582 
L 579.609548 402.743612 
L 582.979578 405.362469 
L 583.350425 405.813609 
L 584.41631 407.116443 
L 585.002457 407.829499 
L 585.795801 409.045008 
L 586.243174 409.730442 
L 586.718313 410.67609 
L 586.841853 411.293804 
L 586.704209 411.877232 
L 586.340763 412.310672 
L 585.814671 412.623089 
L 583.905339 413.373989 
L 583.23809 413.944162 
L 582.449261 414.8496 
L 580.693594 416.041888 
L 580.218518 416.508704 
L 579.905234 417.083851 
L 579.358607 419.029168 
L 577.681711 420.696002 
L 577.075511 421.298565 
L 576.185034 422.590031 
L 575.790763 422.841593 
L 574.574238 423.107705 
L 574.279359 423.310854 
L 574.256064 423.599923 
L 574.458344 423.900607 
L 575.991919 425.140895 
L 576.826181 425.978778 
L 577.226793 426.820667 
L 577.751403 428.511431 
L 577.936103 428.77508 
L 578.493059 429.234477 
L 579.057732 429.470007 
L 580.956063 429.730499 
L 581.477789 430.115382 
L 581.925008 431.188066 
L 582.165435 433.707321 
L 582.524057 434.64556 
L 583.329314 435.524097 
L 583.726475 435.647863 
L 583.963452 435.566141 
L 598.254779 439.979215 
L 600.1912 448.194344 
L 600.883068 451.129545 
L 600.332902 453.087437 
L 600.137766 455.421561 
L 598.986475 458.596173 
L 597.825398 460.671172 
L 592.606729 463.264543 
L 591.451359 463.651799 
L 589.863968 463.739365 
L 585.29582 463.539037 
L 581.3308 463.762898 
L 579.588125 463.456219 
L 579.146419 463.214157 
L 578.734974 462.761886 
L 577.919278 461.16054 
L 577.776278 460.523106 
L 578.096007 459.431301 
L 577.967259 459.325364 
L 577.747528 459.40251 
L 577.268835 459.900568 
L 576.860088 460.702232 
L 576.128431 461.291983 
L 576.354712 461.550283 
L 577.613476 462.349777 
L 577.792366 462.762711 
L 576.826422 463.584117 
L 575.020174 465.437583 
L 574.80673 465.292895 
L 574.528141 464.463835 
L 574.18898 464.418075 
L 573.837348 466.057583 
L 573.499885 467.02444 
L 572.17649 468.914071 
L 570.693995 472.411446 
L 569.847672 473.669889 
L 567.488266 476.487951 
L 566.697617 476.96901 
L 566.186702 477.099303 
L 564.482614 477.255635 
L 564.476467 477.442311 
L 565.023502 478.096931 
L 565.857594 478.546308 
L 566.381728 478.422795 
L 567.046924 477.905862 
L 567.364421 477.969489 
L 567.44604 478.994685 
L 568.240561 481.441812 
L 568.065092 481.939962 
L 567.768107 482.225913 
L 564.081057 483.82637 
L 562.70515 484.801115 
L 562.066729 485.50559 
L 561.651805 486.255441 
L 561.148001 487.958997 
L 560.913328 489.8489 
L 560.406224 492.339456 
L 558.829274 496.793197 
L 558.624307 502.225534 
L 558.379448 503.430334 
L 558.025275 503.779317 
L 556.953762 503.074511 
L 555.725172 503.347501 
L 555.439621 503.257877 
L 554.830493 501.998854 
L 554.226258 501.581172 
L 553.429786 501.603846 
L 551.83726 502.112867 
L 551.427337 502.098387 
L 551.206559 501.96457 
L 551.035849 501.604463 
L 550.600381 499.757464 
L 549.208132 497.063798 
L 548.731522 495.976067 
L 548.523938 495.125084 
L 548.726074 494.792545 
L 549.122161 494.816758 
L 550.324802 495.297377 
L 550.618222 495.239173 
L 550.7693 495.008653 
L 550.704122 494.602636 
L 550.464396 494.212363 
L 549.934598 493.717802 
L 549.334637 493.388713 
L 548.862049 493.367816 
L 548.413168 493.600508 
L 547.998413 494.198907 
L 547.614124 494.739178 
L 547.294895 495.187979 
L 546.918953 495.49646 
L 546.410862 495.518929 
L 546.326052 495.476775 
L 545.299911 494.966732 
L 544.801616 494.954208 
L 544.505356 495.271574 
L 544.880924 495.801353 
L 546.864483 497.080435 
L 547.007049 497.207271 
L 547.333688 497.49787 
L 548.077683 498.15978 
L 548.672037 499.136631 
L 549.004535 500.299614 
L 549.025465 500.372821 
L 548.910838 501.548684 
L 548.362629 502.154345 
L 547.19758 502.717638 
L 547.052097 502.787978 
L 546.48599 502.774088 
L 545.551487 502.546724 
L 544.156837 501.777862 
L 543.634509 501.257179 
L 543.184555 500.5067 
L 542.934012 500.42164 
L 542.809368 500.674218 
L 542.857752 501.402323 
L 542.861387 501.457039 
L 542.722623 501.972566 
L 541.467681 503.497072 
L 540.941822 504.135884 
L 540.74764 504.47064 
L 540.733886 504.747757 
L 540.958177 504.783739 
L 541.050653 504.798575 
L 541.683543 504.363591 
L 542.914355 502.872924 
L 543.055319 502.702199 
L 543.173469 502.622407 
L 543.386208 502.478733 
L 546.050259 503.39374 
L 546.09139 503.407866 
L 547.017521 504.34103 
L 547.116958 504.441221 
L 547.309489 504.534188 
L 547.391118 504.573602 
L 547.928008 504.348194 
L 548.884858 503.262879 
L 549.048305 503.077487 
L 549.263334 503.000749 
L 549.76513 502.821671 
L 550.248687 503.171073 
L 550.50973 503.800254 
L 550.773599 504.436247 
L 550.797726 504.461729 
L 551.228127 504.916256 
L 551.27833 504.917032 
L 551.654575 504.922852 
L 551.759621 504.662872 
L 552.012123 504.037948 
L 552.336415 503.714546 
L 552.825065 503.57255 
L 553.204228 503.829643 
L 553.286923 504.156927 
L 553.245082 504.903711 
L 553.236111 505.063812 
L 553.402362 506.227971 
L 553.459136 506.625527 
L 553.180952 507.198208 
L 551.941759 508.743802 
L 551.858838 509.102481 
L 551.979124 509.397001 
L 552.010072 509.472777 
L 552.366645 509.380172 
L 552.906515 508.880971 
L 553.457573 508.060538 
L 554.076734 506.103789 
L 554.396715 505.968172 
L 554.477861 506.114286 
L 554.608511 506.34954 
L 554.767371 506.635585 
L 555.300567 508.675551 
L 555.742848 510.367674 
L 555.906199 514.438444 
L 555.910037 514.534112 
L 555.9273 514.632807 
L 555.912292 514.680294 
L 555.998285 515.038665 
L 556.155858 515.939588 
L 556.362259 516.553004 
L 556.998371 517.49351 
L 557.128593 517.9061 
L 557.09325 518.42767 
L 557.080967 518.484327 
L 556.724607 518.777043 
L 554.736221 518.414845 
L 553.786113 518.502433 
L 553.360963 518.788974 
L 552.829621 519.525289 
L 552.896149 519.557714 
L 552.794873 519.861053 
L 552.054596 520.632102 
L 551.137992 521.056735 
L 550.419122 520.871004 
L 549.764327 520.299216 
L 549.52634 519.525812 
L 548.642914 519.525877 
L 546.301685 517.474973 
L 545.397705 516.895822 
L 543.914252 516.439428 
L 542.479709 516.309942 
L 541.711485 516.4546 
L 541.500672 516.669952 
L 541.552294 516.868714 
L 541.724009 516.97471 
L 543.603728 517.13224 
L 545.165482 517.824611 
L 545.77396 518.534697 
L 545.89728 519.526073 
L 545.429331 519.526107 
L 545.948658 520.520326 
L 546.296694 520.895302 
L 547.467385 521.204036 
L 548.250508 521.19623 
L 548.899817 521.359093 
L 549.473791 521.937258 
L 549.598202 522.507379 
L 549.19694 523.599248 
L 549.104264 524.371182 
L 549.401887 525.817649 
L 548.423131 526.556311 
L 546.543906 527.468821 
L 546.261353 527.9925 
L 545.508032 529.44075 
L 544.694674 531.004421 
L 544.570663 531.242828 
L 544.780964 531.3463 
L 545.627597 530.459773 
L 546.925705 528.356785 
L 547.370847 527.972879 
L 548.296708 527.554451 
L 549.600592 527.475596 
L 549.879944 527.115365 
L 550.406683 524.481889 
L 550.769656 523.410788 
L 551.54686 522.559374 
L 552.85573 521.683156 
L 555.283946 520.863989 
L 555.618061 520.881267 
L 556.006886 521.155348 
L 556.317923 521.546856 
L 556.357578 521.7971 
L 556.434466 522.329791 
L 556.278804 523.093112 
L 555.95007 523.530338 
L 555.066341 524.064584 
L 555.036449 524.498278 
L 555.306369 524.854531 
L 555.364643 525.226425 
L 554.708485 526.401526 
L 554.749203 526.831358 
L 554.961507 526.897425 
L 555.225538 526.785553 
L 556.611611 524.570268 
L 556.823044 524.267573 
L 557.48419 523.797921 
L 559.029654 523.668371 
L 559.09481 523.283823 
L 557.873259 522.447447 
L 557.717761 522.114683 
L 557.756872 520.60757 
L 558.083871 519.934328 
L 558.279941 519.525788 
L 558.190497 519.525784 
L 558.190889 519.525505 
L 558.60605 518.903133 
L 558.794739 518.739685 
L 559.029513 518.52544 
L 559.711927 518.414274 
L 560.421105 518.612148 
L 561.672119 519.522248 
L 561.771555 519.727566 
L 562.317194 520.598852 
L 563.108739 521.487779 
L 563.383447 522.429193 
L 563.160204 523.339431 
L 563.423741 524.749161 
L 563.161443 525.345033 
L 562.501583 526.088416 
L 562.429481 526.34065 
L 562.736704 526.390299 
L 563.339915 525.96548 
L 563.79515 525.544874 
L 564.466592 524.327717 
L 564.911688 523.016107 
L 565.415176 522.337437 
L 565.771172 522.331743 
L 565.879745 522.441072 
L 566.054606 522.661435 
L 566.283878 523.756293 
L 566.251062 524.096478 
L 566.145686 524.961015 
L 564.998656 526.895701 
L 564.813674 528.535669 
L 564.527424 529.644175 
L 564.17223 530.369217 
L 563.658977 531.07435 
L 563.199386 531.823688 
L 562.912708 531.97356 
L 562.075738 532.375379 
L 561.077632 533.318822 
L 560.690948 533.350007 
L 560.174839 533.084524 
L 558.970269 531.976248 
L 558.601383 531.920146 
L 558.45188 532.169193 
L 558.700067 532.452781 
L 559.332558 532.779684 
L 559.602159 533.017103 
L 559.652863 533.584287 
L 559.915109 533.845488 
L 560.165873 534.015409 
L 560.062998 534.650958 
L 559.490086 535.150499 
L 559.488978 535.666078 
L 560.048798 536.814325 
L 560.17488 537.666009 
L 559.970851 537.98869 
L 559.27359 538.110866 
L 558.618055 538.472767 
L 558.182012 539.120897 
L 557.733419 539.359237 
L 557.686114 539.536143 
L 557.883265 539.676726 
" clip-path="url(#pa731745ed3)" style="fill: #b3e2cd; fill-opacity: 0.65"/>
   </g>
   <g id="PatchCollection_2">
    <path d="M 341.957455 232.692048 
L 344.661261 233.340306 
L 350.872551 235.549461 
L 361.16129 239.775905 
L 368.907102 242.706477 
L 371.713377 243.339932 
L 373.206185 243.796349 
L 377.079288 244.798001 
L 384.474921 245.682854 
L 388.275232 245.639687 
L 390.672461 245.022212 
L 392.134069 244.978336 
L 392.908852 244.522368 
L 394.560581 244.213738 
L 395.469922 243.495838 
L 395.864623 242.89253 
L 396.683426 242.068639 
L 398.517446 241.472579 
L 399.387537 241.627798 
L 400.636797 241.130292 
L 401.185549 240.627443 
L 402.384094 240.333358 
L 403.100506 239.833259 
L 403.743672 239.59794 
L 404.766924 238.965329 
L 406.199016 238.468725 
L 408.186969 237.93935 
L 410.540275 237.733878 
L 412.995839 237.219392 
L 414.998397 237.028494 
L 417.877866 236.602446 
L 422.540555 236.117774 
L 424.627819 235.838658 
L 427.580362 235.898216 
L 429.319681 235.692579 
L 438.616203 235.149115 
L 438.614886 236.164073 
L 438.667356 284.415688 
L 441.409729 287.366525 
L 441.565212 369.960456 
L 460.409729 369.638712 
L 462.575119 389.726012 
L 508.125157 386.129045 
L 512.989434 433.901532 
L 513.36331 434.165165 
L 514.345807 434.05555 
L 515.322026 434.857142 
L 516.096609 435.946416 
L 516.973586 436.638201 
L 517.338961 436.520467 
L 518.563254 434.624823 
L 518.895477 433.686194 
L 520.336439 432.326838 
L 522.038014 432.224118 
L 522.95912 431.797443 
L 523.850922 430.944052 
L 523.544211 429.398826 
L 524.669999 428.01563 
L 525.737184 427.942248 
L 525.021191 426.323268 
L 524.196623 426.236258 
L 524.787426 425.518234 
L 523.472336 422.265629 
L 522.930329 423.22702 
L 523.267283 424.693883 
L 522.641824 424.788903 
L 522.302448 424.620157 
L 521.558737 424.818413 
L 521.337153 427.268968 
L 520.737822 427.73981 
L 520.284843 426.238547 
L 520.380255 425.132791 
L 521.002806 423.419283 
L 521.07504 421.853173 
L 521.718893 421.548808 
L 521.981441 420.764313 
L 520.082532 421.140547 
L 519.439614 420.980128 
L 519.584173 420.204731 
L 520.212854 419.866355 
L 520.008289 419.395375 
L 518.721887 419.542277 
L 518.219116 419.367834 
L 518.575897 418.65926 
L 518.692951 416.966242 
L 519.292468 416.819838 
L 520.432546 417.747138 
L 521.148782 417.879722 
L 523.160023 418.372081 
L 525.636439 418.439778 
L 525.563308 418.807699 
L 524.700672 419.499186 
L 525.051394 419.881842 
L 525.489957 419.764241 
L 526.162552 418.837126 
L 527.434378 418.749114 
L 528.51068 418.272557 
L 528.443194 417.807391 
L 529.073446 417.576582 
L 529.305508 418.322592 
L 530.255888 417.70468 
L 530.738387 416.851217 
L 530.811522 416.453845 
L 532.169466 416.652698 
L 533.325993 415.806738 
L 534.831592 415.718757 
L 535.416477 414.453139 
L 536.176839 413.408481 
L 536.659168 413.599796 
L 536.265657 411.35356 
L 536.528205 409.744106 
L 537.259261 409.023142 
L 537.858928 407.124791 
L 537.055043 406.329895 
L 536.148769 405.961939 
L 534.15259 407.019088 
L 534.043571 407.565673 
L 534.788934 408.46345 
L 535.168618 410.670993 
L 532.347547 409.095909 
L 533.108176 406.388157 
L 534.555552 405.240477 
L 535.22298 404.404292 
L 536.792155 404.681666 
L 538.418192 405.290508 
L 540.110286 405.359163 
L 540.738764 406.256919 
L 541.338144 406.168788 
L 541.703722 405.477089 
L 541.835458 404.432207 
L 542.420074 404.829682 
L 542.843856 405.286031 
L 543.238479 405.933613 
L 542.71205 407.581718 
L 542.858142 407.890776 
L 543.325964 407.699612 
L 543.720628 407.287627 
L 544.056999 406.286888 
L 544.188802 404.800508 
L 543.38484 404.491348 
L 542.668653 404.064526 
L 542.138799 402.542309 
L 542.31027 401.769748 
L 550.984539 398.037891 
L 550.914032 398.914959 
L 551.13312 399.724423 
L 551.57159 400.180649 
L 554.524548 398.82715 
L 558.3985 397.576916 
L 559.173528 395.663794 
L 558.208926 394.927907 
L 557.097937 395.07487 
L 555.957519 396.428642 
L 555.328937 396.207739 
L 555.241539 394.588987 
L 556.580788 393.624619 
L 557.916803 393.01463 
L 559.027795 392.838218 
L 559.612446 393.000213 
L 559.831618 394.103926 
L 560.167788 394.427796 
L 560.781735 394.28076 
L 561.585836 393.603906 
L 562.068327 392.632633 
L 561.995447 391.293469 
L 561.542889 390.051717 
L 558.543102 386.970171 
L 559.863966 385.272392 
L 558.86805 385.303299 
L 559.292112 384.65584 
L 560.388565 383.390407 
L 562.145908 382.339101 
L 564.028477 382.890531 
L 565.344053 383.067414 
L 566.688864 383.376638 
L 568.678357 384.29207 
L 568.968951 384.951583 
L 569.48062 385.363701 
L 570.562288 385.672886 
L 571.746303 385.790847 
L 573.023405 385.396224 
L 573.807469 385.290731 
L 575.564132 384.709985 
L 576.146333 384.878998 
L 579.221983 384.614483 
L 580.113685 384.084878 
L 580.572089 382.81109 
L 582.701443 381.185972 
L 584.367827 381.142074 
L 585.636767 381.364648 
L 586.838108 381.907585 
L 587.29126 382.452152 
L 588.255963 382.43761 
L 589.480948 381.81846 
L 589.908545 381.176414 
L 595.430587 380.800902 
L 575.244167 399.677961 
L 575.784723 400.119408 
L 578.700974 403.212372 
L 580.388783 404.240619 
L 581.500533 405.829563 
L 582.581188 406.53674 
L 584.525122 408.950501 
L 590.678127 418.163824 
L 591.423515 419.179373 
L 591.759434 421.637037 
L 592.256381 422.47598 
L 593.235674 423.462108 
L 595.369708 425.022335 
L 597.313833 426.199816 
L 603.541073 426.597942 
L 605.266171 426.230208 
L 607.034845 426.907383 
L 608.051026 428.68273 
L 611.771524 430.845908 
L 616.141369 428.257414 
L 621.784912 423.965647 
L 622.574026 426.099654 
L 622.636364 429.292169 
L 622.047398 430.396898 
L 622.456675 430.573516 
L 621.827946 431.530007 
L 620.658519 431.971381 
L 619.123302 434.222817 
L 618.626029 436.283126 
L 618.435899 437.872521 
L 617.441638 439.270468 
L 614.897833 441.683701 
L 615.043853 442.816848 
L 615.688329 444.604102 
L 615.408989 445.995718 
L 614.98506 446.584293 
L 613.742373 447.511263 
L 613.026025 448.188154 
L 612.733554 448.747417 
L 611.739331 449.689076 
L 610.30679 449.600689 
L 609.546639 449.026644 
L 607.207705 449.247063 
L 606.067467 449.026245 
L 605.102807 448.305049 
L 603.582543 447.922273 
L 601.44811 449.423086 
L 600.746223 450.924067 
L 599.678241 457.575844 
L 599.093427 458.53233 
L 598.318361 460.872182 
L 595.818436 462.24048 
L 592.894513 463.623506 
L 591.988125 463.78518 
L 590.599293 464.491424 
L 589.064411 464.432329 
L 588.348124 463.505131 
L 587.068011 463.982936 
L 585.23431 464.255261 
L 582.091392 463.842801 
L 579.667217 464.26315 
L 574.711267 466.057913 
L 573.395494 466.7936 
L 572.781328 468.324028 
L 571.977197 468.95665 
L 571.65306 470.90126 
L 571.114317 472.223579 
L 569.988455 473.297775 
L 569.228194 474.416133 
L 568.292506 474.857497 
L 567.561368 476.019972 
L 567.33415 479.799336 
L 567.998946 483.010415 
L 567.618885 483.054473 
L 566.595626 482.966101 
L 565.820862 482.730517 
L 564.622001 483.201166 
L 563.174613 484.039836 
L 561.785472 486.659161 
L 561.054391 488.204352 
L 560.381791 489.072459 
L 560.323015 490.911997 
L 560.381188 493.207836 
L 559.942472 494.237887 
L 558.538599 497.048566 
L 558.231406 498.461357 
L 558.377374 499.682856 
L 558.069913 502.905621 
L 554.648336 508.203057 
L 555.116018 509.145019 
L 555.682504 511.559348 
L 554.588748 515.369996 
L 554.837183 516.473835 
L 558.696168 519.167508 
L 565.011176 522.052892 
L 569.381976 524.673051 
L 571.999049 525.930141 
L 576.954811 527.005063 
L 578.664994 528.300461 
L 578.124031 528.727096 
L 577.890052 529.19801 
L 578.416143 531.03763 
L 577.237935 534.18031 
L 577.436105 535.113973 
L 577.499097 537.248147 
L 577.845041 537.954367 
L 578.458773 539.823448 
L 579.511116 541.471779 
L 579.282842 543.189677 
L 579.74474 543.649843 
L 579.291155 546.887501 
L 578.26764 548.358974 
L 577.200231 549.447842 
L 577.273191 550.301395 
L 576.980584 552.494172 
L 574.319556 554.48047 
L 573.353815 560.278682 
L 573.06437 560.809225 
L 572.611226 560.750261 
L 571.456185 560.794209 
L 569.292396 561.632778 
L 568.707211 563.03062 
L 568.254247 563.428061 
L 567.567052 563.427961 
L 564.97946 563.574706 
L 564.043749 563.765928 
L 562.216389 563.353609 
L 557.216741 561.998918 
L 555.038388 561.954471 
L 553.298619 562.719395 
L 552.187328 564.014259 
L 551.499898 565.529999 
L 551.000491 568.586997 
L 551.002241 569.930091 
L 549.364568 571.357331 
L 548.209535 572.078228 
L 547.15656 574.535796 
L 540.867129 580.402488 
L 541.595347 581.860787 
L 541.321819 583.776805 
L 536.774997 584.158646 
L 534.289339 585.747635 
L 533.934047 589.034823 
L 534.741691 591.310576 
L 535.841899 595.05195 
L 536.961289 596.822679 
L 536.685013 598.271693 
L 537.13803 599.154759 
L 538.409941 599.478793 
L 539.052939 601.11242 
L 539.944552 602.010222 
L 540.295484 601.377548 
L 539.477025 600.023477 
L 540.266576 599.994159 
L 539.741859 598.90703 
L 539.799016 598.213437 
L 540.822305 598.581417 
L 542.371804 599.906158 
L 541.757655 600.759721 
L 540.88019 602.422546 
L 537.414286 608.161283 
L 537.06317 609.883092 
L 537.26762 612.692775 
L 537.223055 614.947313 
L 536.784398 616.019864 
L 538.348314 618.330614 
L 538.55274 619.81692 
L 540.742358 621.103204 
L 541.768959 620.774132 
L 545.058566 620.612762 
L 545.774959 620.377407 
L 546.608246 620.966161 
L 546.037996 621.304553 
L 546.05249 621.760836 
L 542.879354 625.321604 
L 541.344164 626.160228 
L 541.036859 627.955607 
L 539.998649 628.867873 
L 539.647604 629.397535 
L 539.282041 630.368812 
L 538.828792 630.089151 
L 535.934146 629.058425 
L 535.0423 629.470442 
L 534.238248 629.014023 
L 533.887316 629.587919 
L 533.127057 629.308204 
L 532.790865 628.866651 
L 532.33766 629.057809 
L 531.650498 628.689881 
L 531.460413 629.278467 
L 531.080309 629.351963 
L 530.480959 628.733791 
L 530.130098 628.17456 
L 529.603801 628.439267 
L 529.618269 629.013225 
L 529.194328 629.160398 
L 528.244016 629.29257 
L 527.41076 628.541895 
L 526.928201 629.292338 
L 525.305314 629.645321 
L 524.545047 629.424377 
L 523.492428 629.380077 
L 522.980826 628.909042 
L 522.352107 628.953042 
L 521.708886 628.629229 
L 519.735219 628.672985 
L 518.393917 628.820358 
L 517.352244 627.819012 
L 515.100729 627.715587 
L 514.355044 628.098045 
L 513.668026 627.64176 
L 512.951646 627.759302 
L 512.293706 627.612056 
L 511.811322 627.376494 
L 511.621275 627.052761 
L 510.568707 626.743407 
L 510.027709 627.052463 
L 509.296668 627.022876 
L 508.595074 626.625362 
L 508.682853 625.918962 
L 508.405255 625.080033 
L 507.761891 625.550856 
L 507.016415 624.814972 
L 506.358629 623.858297 
L 506.095357 624.314404 
L 505.437434 624.74111 
L 505.217024 625.102593 
L 505.759047 625.197329 
L 505.510331 625.712338 
L 504.881752 625.668105 
L 504.662581 624.652614 
L 505.203856 622.872076 
L 504.721489 622.562827 
L 504.385301 622.150718 
L 504.28307 621.591529 
L 503.946888 621.14997 
L 503.303647 620.973274 
L 502.558042 620.943681 
L 501.330055 620.045669 
L 500.365194 620.10438 
L 499.897355 620.001278 
L 499.736588 619.574539 
L 497.514724 617.513757 
L 496.754505 617.734293 
L 495.771119 618.642594 
L 495.1753 618.852442 
L 494.444275 618.764073 
L 494.54674 618.10179 
L 495.07326 617.336703 
L 494.357005 616.836168 
L 493.713548 617.777928 
L 493.070026 619.043384 
L 491.578444 620.264557 
L 491.125438 619.440377 
L 490.847625 619.749355 
L 490.94983 620.411555 
L 490.657277 620.970788 
L 490.174794 621.264938 
L 489.195263 621.220628 
L 488.815113 621.529585 
L 488.683411 622.074063 
L 488.142423 622.324089 
L 487.528188 622.794907 
L 486.972626 623.074502 
L 486.405144 624.189765 
L 481.036496 624.898032 
L 480.758592 625.633839 
L 479.939705 626.575554 
L 479.574234 626.32522 
L 476.299715 624.529108 
L 475.890464 624.072864 
L 475.393235 624.617264 
L 473.887467 623.925316 
L 472.410829 624.425271 
L 471.255303 626.529481 
L 470.71408 627.868632 
L 469.719728 629.001539 
L 468.491451 630.105069 
L 468.447451 630.355194 
L 468.88603 630.472963 
L 469.427027 630.208283 
L 468.759997 631.374036 
L 468.169382 631.826738 
L 466.692938 630.810969 
L 466.210453 631.075785 
L 465.669372 631.723182 
L 464.777472 632.296941 
L 464.031722 632.355675 
L 463.534682 632.561588 
L 463.139779 633.120669 
L 462.481853 633.488455 
L 461.575358 633.620715 
L 461.063502 634.400577 
L 461.765185 634.341834 
L 462.101434 634.430256 
L 462.481725 634.077195 
L 462.73011 634.592305 
L 462.729992 635.13681 
L 462.320402 636.240391 
L 461.252638 638.271049 
L 460.389996 638.815361 
L 460.053597 639.403903 
L 459.527217 639.418571 
L 458.021173 639.947952 
L 457.685092 639.65363 
L 457.758267 639.226816 
L 457.524587 638.093642 
L 456.281958 637.607634 
L 455.170884 637.29835 
L 454.469087 637.312977 
L 453.811289 637.092019 
L 453.19722 637.297901 
L 451.998125 638.107052 
L 451.925127 637.739104 
L 452.173752 637.179994 
L 452.378612 636.355953 
L 452.15955 635.561141 
L 452.569107 634.634136 
L 453.388067 633.456966 
L 453.242029 632.912428 
L 453.227511 632.147236 
L 452.248175 631.219914 
L 452.277574 630.587068 
L 451.45887 630.630994 
L 451.400118 631.69054 
L 450.669239 631.48435 
L 449.821263 631.057449 
L 449.382982 630.174361 
L 448.812859 629.850411 
L 448.549904 628.834904 
L 447.950696 627.760544 
L 447.760744 627.083535 
L 447.965447 626.951122 
L 448.243222 627.39268 
L 448.506619 626.465642 
L 448.243487 626.23011 
L 447.775601 626.347676 
L 447.205517 625.861938 
L 448.082845 625.317637 
L 447.512701 625.096697 
L 446.079969 625.199376 
L 445.714615 624.463552 
L 445.013021 623.624515 
L 443.243984 623.903686 
L 442.835581 623.534919 
L 443.331988 622.356324 
L 443.449298 621.122315 
L 443.858731 620.739816 
L 444.575008 621.063802 
L 445.130357 621.740896 
L 445.85651 621.708165 
L 446.841118 620.946531 
L 445.98601 620.152557 
L 446.31519 619.548368 
L 446.783042 619.033421 
L 446.870898 618.650847 
L 446.432335 618.488836 
L 446.432456 617.958995 
L 447.134271 617.826697 
L 446.827397 617.23801 
L 446.359676 616.649285 
L 445.848034 616.487257 
L 445.453103 617.16413 
L 445.233659 618.061728 
L 444.838822 618.326557 
L 444.301404 617.933487 
L 443.918263 616.310236 
L 443.304259 615.736139 
L 442.953279 616.383572 
L 442.456069 616.810286 
L 442.046712 616.868965 
L 441.169275 617.898992 
L 440.467525 617.75158 
L 441.022945 618.634697 
L 441.403032 618.634786 
L 441.131062 619.569214 
L 440.700923 620.032662 
L 439.838306 620.488738 
L 439.282722 620.312034 
L 437.630398 621.415313 
L 436.952108 621.967418 
L 436.256126 621.753468 
L 435.905291 621.252992 
L 435.02817 620.914301 
L 434.589657 620.546387 
L 434.004915 620.472562 
L 433.770927 620.722763 
L 433.756287 621.031793 
L 434.340945 621.45864 
L 434.545307 622.768504 
L 434.092003 622.827294 
L 433.200378 622.223677 
L 431.855485 621.531726 
L 431.124689 621.016371 
L 431.387871 620.516167 
L 430.510744 620.206922 
L 429.63352 620.30972 
L 429.034388 619.50015 
L 428.15731 618.999545 
L 427.718859 618.381372 
L 427.265578 618.351812 
L 426.79764 618.690179 
L 426.095997 618.616446 
L 426.549345 617.866032 
L 426.110867 617.365533 
L 425.658573 617.808393 
L 425.145775 617.88035 
L 424.25392 618.248061 
L 423.522841 618.40979 
L 423.071304 618.257626 
L 423.08448 617.438349 
L 422.280696 616.56995 
L 421.272012 616.14287 
L 419.649174 616.289589 
L 419.223181 615.802029 
L 419.561761 614.847416 
L 420.40991 613.994091 
L 420.395467 613.493697 
L 419.211432 612.816438 
L 417.121208 611.094056 
L 416.317375 609.960735 
L 415.630291 609.445508 
L 414.461187 607.826366 
L 414.0081 607.031614 
L 412.941028 606.633963 
L 412.020214 605.839092 
L 412.519935 605.18 
L 413.336198 604.559062 
L 413.014977 603.160942 
L 412.38652 602.204236 
L 410.983244 601.600477 
L 410.266903 601.600294 
L 408.380978 601.437902 
L 405.15472 598.200364 
L 404.639102 598.317165 
L 404.171393 597.77254 
L 404.025391 597.169101 
L 403.733106 596.580287 
L 403.528739 595.403003 
L 403.192761 594.31391 
L 401.321789 592.694577 
L 401.600017 591.296612 
L 400.518408 590.369232 
L 399.787669 589.265249 
L 399.437124 588.190938 
L 399.919768 587.293294 
L 399.218366 585.880409 
L 397.668677 585.880002 
L 396.616265 585.202762 
L 395.125257 584.554854 
L 393.502798 583.391734 
L 392.625498 583.862442 
L 392.113968 583.347252 
L 391.660858 582.71428 
L 391.573361 582.155091 
L 390.842446 581.757516 
L 390.798865 580.845072 
L 390.506655 580.006245 
L 388.833507 578.919255 
L 387.773407 577.72449 
L 386.72108 576.767538 
L 386.311919 576.1347 
L 386.282848 575.443067 
L 385.61048 574.927708 
L 384.462455 574.347408 
L 383.944237 573.691129 
L 382.541366 571.277267 
L 381.708063 571.11513 
L 381.021124 570.629339 
L 377.848642 570.863937 
L 377.585367 571.231795 
L 378.287041 571.54102 
L 377.745961 572.144272 
L 377.234231 572.394264 
L 376.517866 572.541189 
L 375.933005 572.541027 
L 375.07013 573.983058 
L 374.529148 574.218378 
L 375.418188 575.124034 
L 376.049209 575.528489 
L 375.990505 576.234884 
L 374.835143 577.868069 
L 374.864201 578.589151 
L 373.635202 581.797045 
L 372.231134 584.195344 
L 371.528744 586.446716 
L 370.911036 587.900026 
L 371.13321 589.213349 
L 372.331812 590.170231 
L 373.082098 592.66167 
L 373.443887 592.845859 
L 373.749015 593.422976 
L 373.909298 595.012415 
L 374.771771 595.527709 
L 375.172951 596.248772 
L 375.911824 596.64648 
L 377.0226 597.853467 
L 376.353492 598.371045 
L 376.579959 598.777975 
L 377.490294 598.412885 
L 377.76779 599.325271 
L 378.367071 599.899389 
L 378.76157 600.444 
L 379.345987 602.107118 
L 378.936419 602.504383 
L 378.541613 603.078225 
L 378.956889 604.194452 
L 381.902762 607.935561 
L 382.443404 608.995265 
L 383.101187 609.628295 
L 384.533768 610.025944 
L 384.98716 609.628812 
L 384.855394 610.276289 
L 384.606695 610.585253 
L 384.431099 611.262166 
L 384.727659 613.221174 
L 385.029946 613.469788 
L 385.190578 614.264468 
L 384.415541 614.926554 
L 383.976979 614.793974 
L 384.020647 615.367938 
L 383.859668 615.853497 
L 382.543459 617.383631 
L 382.572499 618.178274 
L 382.060545 619.193576 
L 381.680327 619.679074 
L 381.225109 620.920004 
L 380.817226 621.400689 
L 380.042267 621.753618 
L 379.01872 622.445081 
L 378.6236 623.695884 
L 378.331197 624.004834 
L 377.790185 624.284265 
L 377.936246 624.63745 
L 378.287073 624.652334 
L 378.175689 625.502756 
L 377.685185 626.394966 
L 377.234092 625.976513 
L 376.8208 626.532728 
L 376.166726 626.638389 
L 375.099502 626.343844 
L 374.69026 625.975799 
L 374.924381 625.284117 
L 374.953804 624.680849 
L 374.456827 624.194982 
L 373.872134 623.959347 
L 372.9217 624.076876 
L 372.102948 624.312114 
L 371.006242 625.268346 
L 370.026926 624.488096 
L 369.6467 624.546886 
L 368.755075 624.046242 
L 368.49204 623.516329 
L 367.834473 622.559597 
L 366.957462 621.897171 
L 366.372612 621.793993 
L 366.328593 622.485604 
L 365.388784 621.82932 
L 365.787988 621.322885 
L 365.612653 621.043252 
L 365.027916 620.969523 
L 364.10716 619.615335 
L 363.493533 618.261236 
L 362.645906 617.171988 
L 362.104969 617.186495 
L 361.520559 615.979649 
L 361.316378 614.272402 
L 359.88277 612.776979 
L 359.47516 611.019645 
L 359.78243 610.092518 
L 359.417303 608.738613 
L 358.964192 608.561786 
L 358.555078 607.781696 
L 357.253706 608.325817 
L 355.923334 608.399111 
L 353.684841 607.50697 
L 349.315499 607.26392 
L 347.839054 606.645418 
L 346.172255 607.29243 
L 342.399587 609.763663 
L 341.024895 611.087717 
L 341.041255 611.641217 
L 340.688101 612.868238 
L 339.240634 613.574206 
L 338.567473 615.693104 
L 337.507352 618.277893 
L 336.056168 619.112002 
L 333.075517 622.162574 
L 331.80516 624.483482 
L 329.886969 627.299645 
L 328.021002 628.655197 
L 326.566297 630.131628 
L 324.86556 631.157989 
L 323.894057 630.913217 
L 322.728304 630.228248 
L 321.416744 629.592026 
L 319.915029 627.957678 
L 317.485924 627.891717 
L 317.288674 625.33624 
L 317.580868 623.021687 
L 315.994164 622.303926 
L 315.249411 621.553783 
L 316.059281 621.162827 
L 315.833137 619.402342 
L 314.896509 618.456097 
L 314.311964 615.880903 
L 313.049886 612.522564 
L 312.791325 611.087979 
L 312.532975 608.610232 
L 311.82193 603.915405 
L 310.932823 602.15914 
L 310.398 600.687377 
L 310.710515 599.138507 
L 310.512706 596.449215 
L 309.955986 595.320976 
L 310.215444 593.938803 
L 309.464453 592.843153 
L 304.048791 594.61486 
L 301.768508 595.187934 
L 299.772715 597.586693 
L 297.569812 599.20307 
L 296.351987 599.150419 
L 295.465764 600.589552 
L 294.260514 602.114829 
L 292.977961 601.977503 
L 291.073499 602.426728 
L 289.402626 601.311291 
L 286.779734 599.98347 
L 284.798161 598.241853 
L 284.545893 597.107303 
L 284.876649 595.992421 
L 283.789035 594.231517 
L 283.187076 593.018604 
L 283.459443 591.903702 
L 282.915935 590.143107 
L 282.196559 588.656364 
L 281.519852 584.79277 
L 281.641285 582.605208 
L 281.161057 579.423074 
L 280.364981 577.447254 
L 278.616629 575.705714 
L 277.150477 573.814436 
L 275.48894 573.083428 
L 275.353234 572.242299 
L 274.498409 571.713893 
L 272.555295 571.478489 
L 270.631354 572.084171 
L 269.407208 571.979378 
L 267.490221 570.883303 
L 266.194764 570.987212 
L 265.391137 572.134452 
L 263.369997 572.759682 
L 262.099945 574.063364 
L 260.242994 574.208469 
L 258.135356 575.39208 
L 256.528318 577.373577 
L 254.928567 580.878409 
L 251.188242 585.169942 
L 248.621936 588.689937 
L 245.797286 589.992908 
L 244.436389 591.602978 
L 240.095615 594.176853 
L 237.730521 596.327587 
L 236.467182 597.240029 
L 234.976571 599.358555 
L 234.937199 600.890251 
L 234.554689 601.510012 
L 233.809787 601.640218 
L 232.957105 601.278993 
L 232.652717 599.528704 
L 232.277203 597.143452 
L 232.018346 594.421121 
L 230.931806 589.641863 
L 229.217159 584.653145 
L 227.349502 581.653213 
L 225.847617 579.592208 
L 223.775637 577.3485 
L 219.994264 573.826129 
L 218.310654 572.651841 
L 216.393982 570.851397 
L 214.010873 569.572592 
L 212.223687 568.16353 
L 210.038253 566.294589 
L 206.605486 566.097701 
L 201.572494 566.291261 
L 196.649602 566.647987 
L 194.829427 567.002615 
L 191.921388 566.254878 
L 186.674281 567.752301 
L 182.075285 568.076456 
L 176.790834 565.668359 
L 175.430474 565.863341 
L 174.03832 564.786962 
L 172.062568 565.144824 
L 170.087099 565.111349 
L 167.820293 564.523645 
L 163.092595 562.956688 
L 157.781544 562.237319 
L 152.533359 559.918244 
L 150.631045 558.857892 
L 151.198792 556.453697 
L 153.452938 555.663616 
L 156.910761 553.499814 
L 157.850657 551.837535 
L 160.021094 550.404095 
L 165.332119 551.09092 
L 169.996211 549.78887 
L 169.608305 548.028194 
L 168.643859 547.216413 
L 171.456291 544.265934 
L 172.102659 542.566925 
L 173.268834 541.850164 
L 174.402095 542.307025 
L 175.664557 543.807212 
L 178.741877 541.694081 
L 180.06237 540.13852 
L 180.913289 538.365043 
L 181.820477 537.289486 
L 182.625805 536.871739 
L 183.699381 535.986248 
L 184.334643 534.771714 
L 186.276643 534.538387 
L 186.89805 533.993897 
L 188.137297 533.249552 
L 189.23876 532.402387 
L 190.47118 531.893873 
L 190.988094 530.936071 
L 192.089669 529.795402 
L 192.808495 531.449872 
L 194.69226 533.005985 
L 195.421014 532.761813 
L 196.271 533.006612 
L 198.54077 535.964957 
L 198.203733 537.696758 
L 198.657078 539.038767 
L 199.709394 539.609799 
L 200.802021 540.710432 
L 201.408468 542.748305 
L 203.149301 542.382174 
L 205.091878 543.850077 
L 205.293341 546.417501 
L 206.587995 548.333288 
L 207.964734 547.518747 
L 210.110481 547.152889 
L 211.972509 547.398073 
L 211.648334 548.172242 
L 211.526489 549.272521 
L 210.837509 551.431998 
L 212.739918 552.044014 
L 213.064373 550.536335 
L 213.914091 550.236877 
L 214.359413 551.474146 
L 216.180915 552.086127 
L 219.622252 551.231705 
L 219.906185 549.724008 
L 220.659602 548.68915 
L 222.409163 546.603384 
L 223.090347 543.962857 
L 223.96544 541.909408 
L 224.257661 540.148994 
L 225.035065 539.758074 
L 228.143722 540.76987 
L 228.367536 539.6127 
L 228.319431 538.292288 
L 227.251096 537.31379 
L 227.008557 536.482354 
L 228.563269 535.945095 
L 227.461282 534.945022 
L 228.224049 533.744312 
L 229.390148 533.157989 
L 230.215834 533.598429 
L 230.798318 534.674454 
L 231.527322 533.745546 
L 231.382131 532.474138 
L 230.84819 531.202462 
L 230.055939 530.048362 
L 229.925876 529.246047 
L 230.703237 528.952957 
L 232.270581 528.655109 
L 234.201339 527.68278 
L 236.096924 525.140525 
L 236.874832 523.331491 
L 237.943485 523.429718 
L 239.400941 523.039038 
L 238.429953 521.620453 
L 236.729656 521.668745 
L 234.446698 521.129938 
L 232.94108 520.346952 
L 232.358511 519.173093 
L 230.999017 517.461103 
L 228.13309 516.873153 
L 227.11338 515.845881 
L 227.648452 513.694341 
L 229.057428 513.303652 
L 231.194629 513.744578 
L 231.535427 511.642005 
L 232.459092 509.88182 
L 232.84832 508.219272 
L 234.646357 506.263863 
L 238.775916 505.189568 
L 240.931054 503.036269 
L 244.218173 500.790347 
L 246.599228 498.688379 
L 253.097002 496.417585 
L 254.048732 495.858023 
L 255.603343 495.467357 
L 258.295542 493.994994 
L 259.305979 492.49382 
L 260.358786 491.638443 
L 260.440534 489.193345 
L 259.833875 487.563089 
L 259.761297 486.837683 
L 260.458051 485.598974 
L 260.539327 484.523191 
L 261.187542 483.121571 
L 262.385881 482.600408 
L 263.57224 480.957838 
L 265.625313 479.993385 
L 265.366662 478.623979 
L 265.367605 475.85294 
L 265.232605 474.39942 
L 266.392799 473.723848 
L 267.979112 473.617932 
L 269.870457 473.462093 
L 271.217884 472.523634 
L 272.513754 471.298183 
L 272.902733 470.20291 
L 272.29635 467.721841 
L 272.049062 466.394827 
L 274.554033 463.495255 
L 275.587762 461.397822 
L 280.748357 458.886402 
L 283.585737 457.087749 
L 284.522282 455.317789 
L 285.850591 453.622997 
L 288.192279 452.492504 
L 290.579777 450.103597 
L 291.975839 449.308557 
L 294.202759 447.638444 
L 298.275897 441.697447 
L 298.802653 440.255473 
L 298.803229 438.430616 
L 298.160301 437.606329 
L 298.014308 436.752752 
L 298.370247 435.93248 
L 298.681242 435.580546 
L 299.264469 434.367898 
L 300.741932 431.923231 
L 299.887489 430.377683 
L 299.771323 427.688044 
L 300.743512 426.876593 
L 300.404195 424.656344 
L 299.158676 423.596644 
L 297.580127 422.919305 
L 296.66509 421.036366 
L 296.908797 418.249007 
L 297.492373 416.293108 
L 298.35892 414.342967 
L 299.965562 412.830729 
L 305.122139 409.194094 
L 306.936277 406.716868 
L 307.390384 404.630558 
L 307.390884 403.000506 
L 306.847418 401.544146 
L 303.023382 399.579225 
L 298.134563 396.382765 
L 296.709757 396.121461 
L 294.896121 397.001154 
L 293.60025 398.500426 
L 291.948906 398.206392 
L 288.711011 396.705789 
L 287.221337 396.835672 
L 284.825109 396.574042 
L 283.043799 397.388548 
L 280.809212 398.007233 
L 278.08835 400.157967 
L 276.857282 401.429044 
L 274.418857 401.444624 
L 272.028757 402.26532 
L 269.872077 402.284189 
L 267.656372 404.239525 
L 266.851182 405.623111 
L 265.866538 406.346559 
L 264.741083 406.879217 
L 263.730673 407.054952 
L 262.640274 408.888428 
L 262.931096 411.020685 
L 264.562693 412.546921 
L 263.837045 413.21821 
L 261.745185 412.97636 
L 260.346531 412.095615 
L 260.833371 408.946463 
L 260.989767 406.110171 
L 260.634483 403.143339 
L 258.886626 400.893281 
L 257.299969 400.436338 
L 253.931821 401.282791 
L 251.146758 401.738222 
L 249.236299 401.509358 
L 246.321565 402.127752 
L 243.277431 402.485244 
L 239.839236 404.816285 
L 237.595987 408.769407 
L 237.564472 413.452394 
L 233.219114 419.088887 
L 230.592404 421.906407 
L 228.089357 425.592895 
L 226.649822 428.139884 
L 224.79022 429.35437 
L 221.084041 432.959445 
L 220.305955 435.371624 
L 219.261659 437.780746 
L 218.335903 438.683213 
L 218.23803 440.561005 
L 217.460377 441.77354 
L 216.255414 442.399032 
L 214.895435 442.202854 
L 213.671439 441.674286 
L 208.814187 441.066101 
L 207.512848 439.865843 
L 206.1534 437.941909 
L 204.92362 435.887538 
L 203.499359 434.159123 
L 201.621471 433.180309 
L 200.345236 434.236157 
L 198.674065 434.568077 
L 197.586228 433.922124 
L 194.107623 435.642116 
L 192.59159 436.756515 
L 191.075865 437.381865 
L 189.501553 438.535297 
L 187.538849 439.140876 
L 186.023372 439.120688 
L 184.6039 441.799967 
L 184.001475 442.112699 
L 181.222893 442.072537 
L 179.53225 442.717396 
L 177.724864 443.616402 
L 174.24608 445.688494 
L 172.39999 446.333157 
L 169.660818 445.060701 
L 168.617203 443.427905 
L 167.057781 443.416551 
L 165.873618 444.931261 
L 165.5607 446.037001 
L 163.119807 445.681015 
L 161.596526 447.091711 
L 160.118921 449.34054 
L 158.486396 450.298366 
L 158.058304 451.68696 
L 156.736819 452.2537 
L 155.454689 451.764122 
L 154.231042 450.433493 
L 153.04582 450.315574 
L 150.247821 450.451421 
L 144.850072 448.156959 
L 115.363636 360.65098 
L 116.162949 358.346324 
L 115.893615 357.966333 
L 116.213496 355.181175 
L 117.562625 353.308627 
L 121.016747 351.55613 
L 123.050765 349.044746 
L 127.714787 345.228999 
L 131.373544 343.100873 
L 131.887219 342.459872 
L 134.618495 341.297239 
L 139.702233 336.926655 
L 142.089799 336.458804 
L 143.6062 337.253805 
L 144.073779 336.79095 
L 143.744951 335.832192 
L 144.479455 335.360452 
L 146.762894 335.132699 
L 148.852609 334.264138 
L 150.448377 334.306065 
L 153.962891 333.77113 
L 157.850491 333.712198 
L 159.968343 334.097361 
L 160.702019 335.09115 
L 162.662605 334.864722 
L 163.14284 333.326801 
L 165.602426 331.444413 
L 166.44184 329.950621 
L 170.051695 329.382662 
L 173.89269 327.028143 
L 175.490868 326.523948 
L 177.600342 323.539103 
L 174.871852 321.414031 
L 174.190969 319.332512 
L 174.59486 313.544562 
L 175.450346 311.89342 
L 176.521908 311.98095 
L 178.559506 309.989323 
L 187.763086 308.858393 
L 192.231335 308.505714 
L 194.219432 307.932518 
L 198.590593 305.682611 
L 200.168012 304.646696 
L 201.895146 302.826435 
L 212.776468 296.513329 
L 217.391947 294.002351 
L 225.388396 290.357974 
L 228.941222 287.754536 
L 230.59162 287.211111 
L 235.110883 283.19469 
L 239.175468 279.914321 
L 240.906371 278.683357 
L 241.500181 277.92836 
L 248.581668 271.814372 
L 252.933583 267.689768 
L 259.980708 261.599607 
L 261.6474 260.143229 
L 265.112419 257.348304 
L 270.185648 252.964501 
L 278.16822 246.550725 
L 280.668095 244.932677 
L 284.542257 242.24084 
L 287.802048 240.784925 
L 289.950887 240.079181 
L 291.646413 239.829571 
L 294.277583 239.006296 
L 296.426316 238.639024 
L 296.674592 239.154152 
L 300.926049 238.395555 
L 301.566906 238.550264 
L 302.112388 238.845783 
L 302.408293 238.054195 
L 307.140429 236.964514 
L 312.709348 236.451112 
L 323.584124 235.21815 
L 326.478219 235.012959 
L 332.851132 234.190681 
L 339.706513 232.735661 
L 341.957455 232.692048 
L 341.957455 232.692048 
" clip-path="url(#pa731745ed3)" style="fill: none; stroke: #000000; stroke-width: 2"/>
   </g>
   <g id="matplotlib.axis_1">
    <g id="xtick_1">
     <g id="line2d_1">
      <path d="M 100.662114 660.310747 
L 100.662114 212.329253 
" clip-path="url(#pa731745ed3)" style="fill: none; stroke: #b0b0b0; stroke-width: 0.8; stroke-linecap: square"/>
     </g>
     <g id="line2d_2">
      <defs>
       <path id="mf5ca3fff99" d="M 0 0 
L 0 3.5 
" style="stroke: #000000; stroke-width: 0.8"/>
      </defs>
      <g>
       <use xlink:href="#mf5ca3fff99" x="100.662114" y="660.310747" style="stroke: #000000; stroke-width: 0.8"/>
      </g>
     </g>
     <g id="text_1">
      <!-- 57.50 -->
      <g transform="translate(89.529049 698.852129) rotate(-45) scale(0.1 -0.1)">
       <defs>
        <path id="DejaVuSans-2212" d="M 678 2272 
L 4684 2272 
L 4684 1741 
L 678 1741 
L 678 2272 
z
" transform="scale(0.015625)"/>
        <path id="DejaVuSans-35" d="M 691 4666 
L 3169 4666 
L 3169 4134 
L 1269 4134 
L 1269 2991 
Q 1406 3038 1543 3061 
Q 1681 3084 1819 3084 
Q 2600 3084 3056 2656 
Q 3513 2228 3513 1497 
Q 3513 744 3044 326 
Q 2575 -91 1722 -91 
Q 1428 -91 1123 -41 
Q 819 9 494 109 
L 494 744 
Q 775 591 1075 516 
Q 1375 441 1709 441 
Q 2250 441 2565 725 
Q 2881 1009 2881 1497 
Q 2881 1984 2565 2268 
Q 2250 2553 1709 2553 
Q 1456 2553 1204 2497 
Q 953 2441 691 2322 
L 691 4666 
z
" transform="scale(0.015625)"/>
        <path id="DejaVuSans-37" d="M 525 4666 
L 3525 4666 
L 3525 4397 
L 1831 0 
L 1172 0 
L 2766 4134 
L 525 4134 
L 525 4666 
z
" transform="scale(0.015625)"/>
        <path id="DejaVuSans-2e" d="M 684 794 
L 1344 794 
L 1344 0 
L 684 0 
L 684 794 
z
" transform="scale(0.015625)"/>
        <path id="DejaVuSans-30" d="M 2034 4250 
Q 1547 4250 1301 3770 
Q 1056 3291 1056 2328 
Q 1056 1369 1301 889 
Q 1547 409 2034 409 
Q 2525 409 2770 889 
Q 3016 1369 3016 2328 
Q 3016 3291 2770 3770 
Q 2525 4250 2034 4250 
z
M 2034 4750 
Q 2819 4750 3233 4129 
Q 3647 3509 3647 2328 
Q 3647 1150 3233 529 
Q 2819 -91 2034 -91 
Q 1250 -91 836 529 
Q 422 1150 422 2328 
Q 422 3509 836 4129 
Q 1250 4750 2034 4750 
z
" transform="scale(0.015625)"/>
       </defs>
       <use xlink:href="#DejaVuSans-2212"/>
       <use xlink:href="#DejaVuSans-35" transform="translate(83.789062 0)"/>
       <use xlink:href="#DejaVuSans-37" transform="translate(147.412109 0)"/>
       <use xlink:href="#DejaVuSans-2e" transform="translate(211.035156 0)"/>
       <use xlink:href="#DejaVuSans-35" transform="translate(242.822266 0)"/>
       <use xlink:href="#DejaVuSans-30" transform="translate(306.445312 0)"/>
      </g>
     </g>
    </g>
    <g id="xtick_2">
     <g id="line2d_3">
      <path d="M 168.672071 660.310747 
L 168.672071 212.329253 
" clip-path="url(#pa731745ed3)" style="fill: none; stroke: #b0b0b0; stroke-width: 0.8; stroke-linecap: square"/>
     </g>
     <g id="line2d_4">
      <g>
       <use xlink:href="#mf5ca3fff99" x="168.672071" y="660.310747" style="stroke: #000000; stroke-width: 0.8"/>
      </g>
     </g>
     <g id="text_2">
      <!-- 57.45 -->
      <g transform="translate(157.539006 698.852129) rotate(-45) scale(0.1 -0.1)">
       <defs>
        <path id="DejaVuSans-34" d="M 2419 4116 
L 825 1625 
L 2419 1625 
L 2419 4116 
z
M 2253 4666 
L 3047 4666 
L 3047 1625 
L 3713 1625 
L 3713 1100 
L 3047 1100 
L 3047 0 
L 2419 0 
L 2419 1100 
L 313 1100 
L 313 1709 
L 2253 4666 
z
" transform="scale(0.015625)"/>
       </defs>
       <use xlink:href="#DejaVuSans-2212"/>
       <use xlink:href="#DejaVuSans-35" transform="translate(83.789062 0)"/>
       <use xlink:href="#DejaVuSans-37" transform="translate(147.412109 0)"/>
       <use xlink:href="#DejaVuSans-2e" transform="translate(211.035156 0)"/>
       <use xlink:href="#DejaVuSans-34" transform="translate(242.822266 0)"/>
       <use xlink:href="#DejaVuSans-35" transform="translate(306.445312 0)"/>
      </g>
     </g>
    </g>
    <g id="xtick_3">
     <g id="line2d_5">
      <path d="M 236.682028 660.310747 
L 236.682028 212.329253 
" clip-path="url(#pa731745ed3)" style="fill: none; stroke: #b0b0b0; stroke-width: 0.8; stroke-linecap: square"/>
     </g>
     <g id="line2d_6">
      <g>
       <use xlink:href="#mf5ca3fff99" x="236.682028" y="660.310747" style="stroke: #000000; stroke-width: 0.8"/>
      </g>
     </g>
     <g id="text_3">
      <!-- 57.40 -->
      <g transform="translate(225.548963 698.852129) rotate(-45) scale(0.1 -0.1)">
       <use xlink:href="#DejaVuSans-2212"/>
       <use xlink:href="#DejaVuSans-35" transform="translate(83.789062 0)"/>
       <use xlink:href="#DejaVuSans-37" transform="translate(147.412109 0)"/>
       <use xlink:href="#DejaVuSans-2e" transform="translate(211.035156 0)"/>
       <use xlink:href="#DejaVuSans-34" transform="translate(242.822266 0)"/>
       <use xlink:href="#DejaVuSans-30" transform="translate(306.445312 0)"/>
      </g>
     </g>
    </g>
    <g id="xtick_4">
     <g id="line2d_7">
      <path d="M 304.691984 660.310747 
L 304.691984 212.329253 
" clip-path="url(#pa731745ed3)" style="fill: none; stroke: #b0b0b0; stroke-width: 0.8; stroke-linecap: square"/>
     </g>
     <g id="line2d_8">
      <g>
       <use xlink:href="#mf5ca3fff99" x="304.691984" y="660.310747" style="stroke: #000000; stroke-width: 0.8"/>
      </g>
     </g>
     <g id="text_4">
      <!-- 57.35 -->
      <g transform="translate(293.55892 698.852129) rotate(-45) scale(0.1 -0.1)">
       <defs>
        <path id="DejaVuSans-33" d="M 2597 2516 
Q 3050 2419 3304 2112 
Q 3559 1806 3559 1356 
Q 3559 666 3084 287 
Q 2609 -91 1734 -91 
Q 1441 -91 1130 -33 
Q 819 25 488 141 
L 488 750 
Q 750 597 1062 519 
Q 1375 441 1716 441 
Q 2309 441 2620 675 
Q 2931 909 2931 1356 
Q 2931 1769 2642 2001 
Q 2353 2234 1838 2234 
L 1294 2234 
L 1294 2753 
L 1863 2753 
Q 2328 2753 2575 2939 
Q 2822 3125 2822 3475 
Q 2822 3834 2567 4026 
Q 2313 4219 1838 4219 
Q 1578 4219 1281 4162 
Q 984 4106 628 3988 
L 628 4550 
Q 988 4650 1302 4700 
Q 1616 4750 1894 4750 
Q 2613 4750 3031 4423 
Q 3450 4097 3450 3541 
Q 3450 3153 3228 2886 
Q 3006 2619 2597 2516 
z
" transform="scale(0.015625)"/>
       </defs>
       <use xlink:href="#DejaVuSans-2212"/>
       <use xlink:href="#DejaVuSans-35" transform="translate(83.789062 0)"/>
       <use xlink:href="#DejaVuSans-37" transform="translate(147.412109 0)"/>
       <use xlink:href="#DejaVuSans-2e" transform="translate(211.035156 0)"/>
       <use xlink:href="#DejaVuSans-33" transform="translate(242.822266 0)"/>
       <use xlink:href="#DejaVuSans-35" transform="translate(306.445312 0)"/>
      </g>
     </g>
    </g>
    <g id="xtick_5">
     <g id="line2d_9">
      <path d="M 372.701941 660.310747 
L 372.701941 212.329253 
" clip-path="url(#pa731745ed3)" style="fill: none; stroke: #b0b0b0; stroke-width: 0.8; stroke-linecap: square"/>
     </g>
     <g id="line2d_10">
      <g>
       <use xlink:href="#mf5ca3fff99" x="372.701941" y="660.310747" style="stroke: #000000; stroke-width: 0.8"/>
      </g>
     </g>
     <g id="text_5">
      <!-- 57.30 -->
      <g transform="translate(361.568876 698.852129) rotate(-45) scale(0.1 -0.1)">
       <use xlink:href="#DejaVuSans-2212"/>
       <use xlink:href="#DejaVuSans-35" transform="translate(83.789062 0)"/>
       <use xlink:href="#DejaVuSans-37" transform="translate(147.412109 0)"/>
       <use xlink:href="#DejaVuSans-2e" transform="translate(211.035156 0)"/>
       <use xlink:href="#DejaVuSans-33" transform="translate(242.822266 0)"/>
       <use xlink:href="#DejaVuSans-30" transform="translate(306.445312 0)"/>
      </g>
     </g>
    </g>
    <g id="xtick_6">
     <g id="line2d_11">
      <path d="M 440.711898 660.310747 
L 440.711898 212.329253 
" clip-path="url(#pa731745ed3)" style="fill: none; stroke: #b0b0b0; stroke-width: 0.8; stroke-linecap: square"/>
     </g>
     <g id="line2d_12">
      <g>
       <use xlink:href="#mf5ca3fff99" x="440.711898" y="660.310747" style="stroke: #000000; stroke-width: 0.8"/>
      </g>
     </g>
     <g id="text_6">
      <!-- 57.25 -->
      <g transform="translate(429.578833 698.852129) rotate(-45) scale(0.1 -0.1)">
       <defs>
        <path id="DejaVuSans-32" d="M 1228 531 
L 3431 531 
L 3431 0 
L 469 0 
L 469 531 
Q 828 903 1448 1529 
Q 2069 2156 2228 2338 
Q 2531 2678 2651 2914 
Q 2772 3150 2772 3378 
Q 2772 3750 2511 3984 
Q 2250 4219 1831 4219 
Q 1534 4219 1204 4116 
Q 875 4013 500 3803 
L 500 4441 
Q 881 4594 1212 4672 
Q 1544 4750 1819 4750 
Q 2544 4750 2975 4387 
Q 3406 4025 3406 3419 
Q 3406 3131 3298 2873 
Q 3191 2616 2906 2266 
Q 2828 2175 2409 1742 
Q 1991 1309 1228 531 
z
" transform="scale(0.015625)"/>
       </defs>
       <use xlink:href="#DejaVuSans-2212"/>
       <use xlink:href="#DejaVuSans-35" transform="translate(83.789062 0)"/>
       <use xlink:href="#DejaVuSans-37" transform="translate(147.412109 0)"/>
       <use xlink:href="#DejaVuSans-2e" transform="translate(211.035156 0)"/>
       <use xlink:href="#DejaVuSans-32" transform="translate(242.822266 0)"/>
       <use xlink:href="#DejaVuSans-35" transform="translate(306.445312 0)"/>
      </g>
     </g>
    </g>
    <g id="xtick_7">
     <g id="line2d_13">
      <path d="M 508.721855 660.310747 
L 508.721855 212.329253 
" clip-path="url(#pa731745ed3)" style="fill: none; stroke: #b0b0b0; stroke-width: 0.8; stroke-linecap: square"/>
     </g>
     <g id="line2d_14">
      <g>
       <use xlink:href="#mf5ca3fff99" x="508.721855" y="660.310747" style="stroke: #000000; stroke-width: 0.8"/>
      </g>
     </g>
     <g id="text_7">
      <!-- 57.20 -->
      <g transform="translate(497.58879 698.852129) rotate(-45) scale(0.1 -0.1)">
       <use xlink:href="#DejaVuSans-2212"/>
       <use xlink:href="#DejaVuSans-35" transform="translate(83.789062 0)"/>
       <use xlink:href="#DejaVuSans-37" transform="translate(147.412109 0)"/>
       <use xlink:href="#DejaVuSans-2e" transform="translate(211.035156 0)"/>
       <use xlink:href="#DejaVuSans-32" transform="translate(242.822266 0)"/>
       <use xlink:href="#DejaVuSans-30" transform="translate(306.445312 0)"/>
      </g>
     </g>
    </g>
    <g id="xtick_8">
     <g id="line2d_15">
      <path d="M 576.731812 660.310747 
L 576.731812 212.329253 
" clip-path="url(#pa731745ed3)" style="fill: none; stroke: #b0b0b0; stroke-width: 0.8; stroke-linecap: square"/>
     </g>
     <g id="line2d_16">
      <g>
       <use xlink:href="#mf5ca3fff99" x="576.731812" y="660.310747" style="stroke: #000000; stroke-width: 0.8"/>
      </g>
     </g>
     <g id="text_8">
      <!-- 57.15 -->
      <g transform="translate(565.598747 698.852129) rotate(-45) scale(0.1 -0.1)">
       <defs>
        <path id="DejaVuSans-31" d="M 794 531 
L 1825 531 
L 1825 4091 
L 703 3866 
L 703 4441 
L 1819 4666 
L 2450 4666 
L 2450 531 
L 3481 531 
L 3481 0 
L 794 0 
L 794 531 
z
" transform="scale(0.015625)"/>
       </defs>
       <use xlink:href="#DejaVuSans-2212"/>
       <use xlink:href="#DejaVuSans-35" transform="translate(83.789062 0)"/>
       <use xlink:href="#DejaVuSans-37" transform="translate(147.412109 0)"/>
       <use xlink:href="#DejaVuSans-2e" transform="translate(211.035156 0)"/>
       <use xlink:href="#DejaVuSans-31" transform="translate(242.822266 0)"/>
       <use xlink:href="#DejaVuSans-35" transform="translate(306.445312 0)"/>
      </g>
     </g>
    </g>
    <g id="xtick_9">
     <g id="line2d_17">
      <path d="M 644.741768 660.310747 
L 644.741768 212.329253 
" clip-path="url(#pa731745ed3)" style="fill: none; stroke: #b0b0b0; stroke-width: 0.8; stroke-linecap: square"/>
     </g>
     <g id="line2d_18">
      <g>
       <use xlink:href="#mf5ca3fff99" x="644.741768" y="660.310747" style="stroke: #000000; stroke-width: 0.8"/>
      </g>
     </g>
     <g id="text_9">
      <!-- 57.10 -->
      <g transform="translate(633.608704 698.852129) rotate(-45) scale(0.1 -0.1)">
       <use xlink:href="#DejaVuSans-2212"/>
       <use xlink:href="#DejaVuSans-35" transform="translate(83.789062 0)"/>
       <use xlink:href="#DejaVuSans-37" transform="translate(147.412109 0)"/>
       <use xlink:href="#DejaVuSans-2e" transform="translate(211.035156 0)"/>
       <use xlink:href="#DejaVuSans-31" transform="translate(242.822266 0)"/>
       <use xlink:href="#DejaVuSans-30" transform="translate(306.445312 0)"/>
      </g>
     </g>
    </g>
    <g id="text_10">
     <!-- Longitude () -->
     <g transform="translate(336.139844 711.921128) scale(0.1 -0.1)">
      <defs>
       <path id="DejaVuSans-4c" d="M 628 4666 
L 1259 4666 
L 1259 531 
L 3531 531 
L 3531 0 
L 628 0 
L 628 4666 
z
" transform="scale(0.015625)"/>
       <path id="DejaVuSans-6f" d="M 1959 3097 
Q 1497 3097 1228 2736 
Q 959 2375 959 1747 
Q 959 1119 1226 758 
Q 1494 397 1959 397 
Q 2419 397 2687 759 
Q 2956 1122 2956 1747 
Q 2956 2369 2687 2733 
Q 2419 3097 1959 3097 
z
M 1959 3584 
Q 2709 3584 3137 3096 
Q 3566 2609 3566 1747 
Q 3566 888 3137 398 
Q 2709 -91 1959 -91 
Q 1206 -91 779 398 
Q 353 888 353 1747 
Q 353 2609 779 3096 
Q 1206 3584 1959 3584 
z
" transform="scale(0.015625)"/>
       <path id="DejaVuSans-6e" d="M 3513 2113 
L 3513 0 
L 2938 0 
L 2938 2094 
Q 2938 2591 2744 2837 
Q 2550 3084 2163 3084 
Q 1697 3084 1428 2787 
Q 1159 2491 1159 1978 
L 1159 0 
L 581 0 
L 581 3500 
L 1159 3500 
L 1159 2956 
Q 1366 3272 1645 3428 
Q 1925 3584 2291 3584 
Q 2894 3584 3203 3211 
Q 3513 2838 3513 2113 
z
" transform="scale(0.015625)"/>
       <path id="DejaVuSans-67" d="M 2906 1791 
Q 2906 2416 2648 2759 
Q 2391 3103 1925 3103 
Q 1463 3103 1205 2759 
Q 947 2416 947 1791 
Q 947 1169 1205 825 
Q 1463 481 1925 481 
Q 2391 481 2648 825 
Q 2906 1169 2906 1791 
z
M 3481 434 
Q 3481 -459 3084 -895 
Q 2688 -1331 1869 -1331 
Q 1566 -1331 1297 -1286 
Q 1028 -1241 775 -1147 
L 775 -588 
Q 1028 -725 1275 -790 
Q 1522 -856 1778 -856 
Q 2344 -856 2625 -561 
Q 2906 -266 2906 331 
L 2906 616 
Q 2728 306 2450 153 
Q 2172 0 1784 0 
Q 1141 0 747 490 
Q 353 981 353 1791 
Q 353 2603 747 3093 
Q 1141 3584 1784 3584 
Q 2172 3584 2450 3431 
Q 2728 3278 2906 2969 
L 2906 3500 
L 3481 3500 
L 3481 434 
z
" transform="scale(0.015625)"/>
       <path id="DejaVuSans-69" d="M 603 3500 
L 1178 3500 
L 1178 0 
L 603 0 
L 603 3500 
z
M 603 4863 
L 1178 4863 
L 1178 4134 
L 603 4134 
L 603 4863 
z
" transform="scale(0.015625)"/>
       <path id="DejaVuSans-74" d="M 1172 4494 
L 1172 3500 
L 2356 3500 
L 2356 3053 
L 1172 3053 
L 1172 1153 
Q 1172 725 1289 603 
Q 1406 481 1766 481 
L 2356 481 
L 2356 0 
L 1766 0 
Q 1100 0 847 248 
Q 594 497 594 1153 
L 594 3053 
L 172 3053 
L 172 3500 
L 594 3500 
L 594 4494 
L 1172 4494 
z
" transform="scale(0.015625)"/>
       <path id="DejaVuSans-75" d="M 544 1381 
L 544 3500 
L 1119 3500 
L 1119 1403 
Q 1119 906 1312 657 
Q 1506 409 1894 409 
Q 2359 409 2629 706 
Q 2900 1003 2900 1516 
L 2900 3500 
L 3475 3500 
L 3475 0 
L 2900 0 
L 2900 538 
Q 2691 219 2414 64 
Q 2138 -91 1772 -91 
Q 1169 -91 856 284 
Q 544 659 544 1381 
z
M 1991 3584 
L 1991 3584 
z
" transform="scale(0.015625)"/>
       <path id="DejaVuSans-64" d="M 2906 2969 
L 2906 4863 
L 3481 4863 
L 3481 0 
L 2906 0 
L 2906 525 
Q 2725 213 2448 61 
Q 2172 -91 1784 -91 
Q 1150 -91 751 415 
Q 353 922 353 1747 
Q 353 2572 751 3078 
Q 1150 3584 1784 3584 
Q 2172 3584 2448 3432 
Q 2725 3281 2906 2969 
z
M 947 1747 
Q 947 1113 1208 752 
Q 1469 391 1925 391 
Q 2381 391 2643 752 
Q 2906 1113 2906 1747 
Q 2906 2381 2643 2742 
Q 2381 3103 1925 3103 
Q 1469 3103 1208 2742 
Q 947 2381 947 1747 
z
" transform="scale(0.015625)"/>
       <path id="DejaVuSans-65" d="M 3597 1894 
L 3597 1613 
L 953 1613 
Q 991 1019 1311 708 
Q 1631 397 2203 397 
Q 2534 397 2845 478 
Q 3156 559 3463 722 
L 3463 178 
Q 3153 47 2828 -22 
Q 2503 -91 2169 -91 
Q 1331 -91 842 396 
Q 353 884 353 1716 
Q 353 2575 817 3079 
Q 1281 3584 2069 3584 
Q 2775 3584 3186 3129 
Q 3597 2675 3597 1894 
z
M 3022 2063 
Q 3016 2534 2758 2815 
Q 2500 3097 2075 3097 
Q 1594 3097 1305 2825 
Q 1016 2553 972 2059 
L 3022 2063 
z
" transform="scale(0.015625)"/>
       <path id="DejaVuSans-20" transform="scale(0.015625)"/>
       <path id="DejaVuSans-28" d="M 1984 4856 
Q 1566 4138 1362 3434 
Q 1159 2731 1159 2009 
Q 1159 1288 1364 580 
Q 1569 -128 1984 -844 
L 1484 -844 
Q 1016 -109 783 600 
Q 550 1309 550 2009 
Q 550 2706 781 3412 
Q 1013 4119 1484 4856 
L 1984 4856 
z
" transform="scale(0.015625)"/>
       <path id="DejaVuSans-b0" d="M 1600 4347 
Q 1350 4347 1178 4173 
Q 1006 4000 1006 3750 
Q 1006 3503 1178 3333 
Q 1350 3163 1600 3163 
Q 1850 3163 2022 3333 
Q 2194 3503 2194 3750 
Q 2194 3997 2020 4172 
Q 1847 4347 1600 4347 
z
M 1600 4750 
Q 1800 4750 1984 4673 
Q 2169 4597 2303 4453 
Q 2447 4313 2519 4134 
Q 2591 3956 2591 3750 
Q 2591 3338 2302 3052 
Q 2013 2766 1594 2766 
Q 1172 2766 890 3047 
Q 609 3328 609 3750 
Q 609 4169 896 4459 
Q 1184 4750 1600 4750 
z
" transform="scale(0.015625)"/>
       <path id="DejaVuSans-29" d="M 513 4856 
L 1013 4856 
Q 1481 4119 1714 3412 
Q 1947 2706 1947 2009 
Q 1947 1309 1714 600 
Q 1481 -109 1013 -844 
L 513 -844 
Q 928 -128 1133 580 
Q 1338 1288 1338 2009 
Q 1338 2731 1133 3434 
Q 928 4138 513 4856 
z
" transform="scale(0.015625)"/>
      </defs>
      <use xlink:href="#DejaVuSans-4c"/>
      <use xlink:href="#DejaVuSans-6f" transform="translate(53.962891 0)"/>
      <use xlink:href="#DejaVuSans-6e" transform="translate(115.144531 0)"/>
      <use xlink:href="#DejaVuSans-67" transform="translate(178.523438 0)"/>
      <use xlink:href="#DejaVuSans-69" transform="translate(242 0)"/>
      <use xlink:href="#DejaVuSans-74" transform="translate(269.783203 0)"/>
      <use xlink:href="#DejaVuSans-75" transform="translate(308.992188 0)"/>
      <use xlink:href="#DejaVuSans-64" transform="translate(372.371094 0)"/>
      <use xlink:href="#DejaVuSans-65" transform="translate(435.847656 0)"/>
      <use xlink:href="#DejaVuSans-20" transform="translate(497.371094 0)"/>
      <use xlink:href="#DejaVuSans-28" transform="translate(529.158203 0)"/>
      <use xlink:href="#DejaVuSans-b0" transform="translate(568.171875 0)"/>
      <use xlink:href="#DejaVuSans-29" transform="translate(618.171875 0)"/>
     </g>
    </g>
   </g>
   <g id="matplotlib.axis_2">
    <g id="ytick_1">
     <g id="line2d_19">
      <path d="M 90 655.72047 
L 648 655.72047 
" clip-path="url(#pa731745ed3)" style="fill: none; stroke: #b0b0b0; stroke-width: 0.8; stroke-linecap: square"/>
     </g>
     <g id="line2d_20">
      <defs>
       <path id="m685c1520be" d="M 0 0 
L -3.5 0 
" style="stroke: #000000; stroke-width: 0.8"/>
      </defs>
      <g>
       <use xlink:href="#m685c1520be" x="90" y="655.72047" style="stroke: #000000; stroke-width: 0.8"/>
      </g>
     </g>
     <g id="text_11">
      <!-- 3.10 -->
      <g transform="translate(52.354687 659.519689) scale(0.1 -0.1)">
       <use xlink:href="#DejaVuSans-2212"/>
       <use xlink:href="#DejaVuSans-33" transform="translate(83.789062 0)"/>
       <use xlink:href="#DejaVuSans-2e" transform="translate(147.412109 0)"/>
       <use xlink:href="#DejaVuSans-31" transform="translate(179.199219 0)"/>
       <use xlink:href="#DejaVuSans-30" transform="translate(242.822266 0)"/>
      </g>
     </g>
    </g>
    <g id="ytick_2">
     <g id="line2d_21">
      <path d="M 90 587.620946 
L 648 587.620946 
" clip-path="url(#pa731745ed3)" style="fill: none; stroke: #b0b0b0; stroke-width: 0.8; stroke-linecap: square"/>
     </g>
     <g id="line2d_22">
      <g>
       <use xlink:href="#m685c1520be" x="90" y="587.620946" style="stroke: #000000; stroke-width: 0.8"/>
      </g>
     </g>
     <g id="text_12">
      <!-- 3.05 -->
      <g transform="translate(52.354687 591.420165) scale(0.1 -0.1)">
       <use xlink:href="#DejaVuSans-2212"/>
       <use xlink:href="#DejaVuSans-33" transform="translate(83.789062 0)"/>
       <use xlink:href="#DejaVuSans-2e" transform="translate(147.412109 0)"/>
       <use xlink:href="#DejaVuSans-30" transform="translate(179.199219 0)"/>
       <use xlink:href="#DejaVuSans-35" transform="translate(242.822266 0)"/>
      </g>
     </g>
    </g>
    <g id="ytick_3">
     <g id="line2d_23">
      <path d="M 90 519.521423 
L 648 519.521423 
" clip-path="url(#pa731745ed3)" style="fill: none; stroke: #b0b0b0; stroke-width: 0.8; stroke-linecap: square"/>
     </g>
     <g id="line2d_24">
      <g>
       <use xlink:href="#m685c1520be" x="90" y="519.521423" style="stroke: #000000; stroke-width: 0.8"/>
      </g>
     </g>
     <g id="text_13">
      <!-- 3.00 -->
      <g transform="translate(52.354687 523.320642) scale(0.1 -0.1)">
       <use xlink:href="#DejaVuSans-2212"/>
       <use xlink:href="#DejaVuSans-33" transform="translate(83.789062 0)"/>
       <use xlink:href="#DejaVuSans-2e" transform="translate(147.412109 0)"/>
       <use xlink:href="#DejaVuSans-30" transform="translate(179.199219 0)"/>
       <use xlink:href="#DejaVuSans-30" transform="translate(242.822266 0)"/>
      </g>
     </g>
    </g>
    <g id="ytick_4">
     <g id="line2d_25">
      <path d="M 90 451.421899 
L 648 451.421899 
" clip-path="url(#pa731745ed3)" style="fill: none; stroke: #b0b0b0; stroke-width: 0.8; stroke-linecap: square"/>
     </g>
     <g id="line2d_26">
      <g>
       <use xlink:href="#m685c1520be" x="90" y="451.421899" style="stroke: #000000; stroke-width: 0.8"/>
      </g>
     </g>
     <g id="text_14">
      <!-- 2.95 -->
      <g transform="translate(52.354687 455.221118) scale(0.1 -0.1)">
       <defs>
        <path id="DejaVuSans-39" d="M 703 97 
L 703 672 
Q 941 559 1184 500 
Q 1428 441 1663 441 
Q 2288 441 2617 861 
Q 2947 1281 2994 2138 
Q 2813 1869 2534 1725 
Q 2256 1581 1919 1581 
Q 1219 1581 811 2004 
Q 403 2428 403 3163 
Q 403 3881 828 4315 
Q 1253 4750 1959 4750 
Q 2769 4750 3195 4129 
Q 3622 3509 3622 2328 
Q 3622 1225 3098 567 
Q 2575 -91 1691 -91 
Q 1453 -91 1209 -44 
Q 966 3 703 97 
z
M 1959 2075 
Q 2384 2075 2632 2365 
Q 2881 2656 2881 3163 
Q 2881 3666 2632 3958 
Q 2384 4250 1959 4250 
Q 1534 4250 1286 3958 
Q 1038 3666 1038 3163 
Q 1038 2656 1286 2365 
Q 1534 2075 1959 2075 
z
" transform="scale(0.015625)"/>
       </defs>
       <use xlink:href="#DejaVuSans-2212"/>
       <use xlink:href="#DejaVuSans-32" transform="translate(83.789062 0)"/>
       <use xlink:href="#DejaVuSans-2e" transform="translate(147.412109 0)"/>
       <use xlink:href="#DejaVuSans-39" transform="translate(179.199219 0)"/>
       <use xlink:href="#DejaVuSans-35" transform="translate(242.822266 0)"/>
      </g>
     </g>
    </g>
    <g id="ytick_5">
     <g id="line2d_27">
      <path d="M 90 383.322376 
L 648 383.322376 
" clip-path="url(#pa731745ed3)" style="fill: none; stroke: #b0b0b0; stroke-width: 0.8; stroke-linecap: square"/>
     </g>
     <g id="line2d_28">
      <g>
       <use xlink:href="#m685c1520be" x="90" y="383.322376" style="stroke: #000000; stroke-width: 0.8"/>
      </g>
     </g>
     <g id="text_15">
      <!-- 2.90 -->
      <g transform="translate(52.354687 387.121595) scale(0.1 -0.1)">
       <use xlink:href="#DejaVuSans-2212"/>
       <use xlink:href="#DejaVuSans-32" transform="translate(83.789062 0)"/>
       <use xlink:href="#DejaVuSans-2e" transform="translate(147.412109 0)"/>
       <use xlink:href="#DejaVuSans-39" transform="translate(179.199219 0)"/>
       <use xlink:href="#DejaVuSans-30" transform="translate(242.822266 0)"/>
      </g>
     </g>
    </g>
    <g id="ytick_6">
     <g id="line2d_29">
      <path d="M 90 315.222852 
L 648 315.222852 
" clip-path="url(#pa731745ed3)" style="fill: none; stroke: #b0b0b0; stroke-width: 0.8; stroke-linecap: square"/>
     </g>
     <g id="line2d_30">
      <g>
       <use xlink:href="#m685c1520be" x="90" y="315.222852" style="stroke: #000000; stroke-width: 0.8"/>
      </g>
     </g>
     <g id="text_16">
      <!-- 2.85 -->
      <g transform="translate(52.354687 319.022071) scale(0.1 -0.1)">
       <defs>
        <path id="DejaVuSans-38" d="M 2034 2216 
Q 1584 2216 1326 1975 
Q 1069 1734 1069 1313 
Q 1069 891 1326 650 
Q 1584 409 2034 409 
Q 2484 409 2743 651 
Q 3003 894 3003 1313 
Q 3003 1734 2745 1975 
Q 2488 2216 2034 2216 
z
M 1403 2484 
Q 997 2584 770 2862 
Q 544 3141 544 3541 
Q 544 4100 942 4425 
Q 1341 4750 2034 4750 
Q 2731 4750 3128 4425 
Q 3525 4100 3525 3541 
Q 3525 3141 3298 2862 
Q 3072 2584 2669 2484 
Q 3125 2378 3379 2068 
Q 3634 1759 3634 1313 
Q 3634 634 3220 271 
Q 2806 -91 2034 -91 
Q 1263 -91 848 271 
Q 434 634 434 1313 
Q 434 1759 690 2068 
Q 947 2378 1403 2484 
z
M 1172 3481 
Q 1172 3119 1398 2916 
Q 1625 2713 2034 2713 
Q 2441 2713 2670 2916 
Q 2900 3119 2900 3481 
Q 2900 3844 2670 4047 
Q 2441 4250 2034 4250 
Q 1625 4250 1398 4047 
Q 1172 3844 1172 3481 
z
" transform="scale(0.015625)"/>
       </defs>
       <use xlink:href="#DejaVuSans-2212"/>
       <use xlink:href="#DejaVuSans-32" transform="translate(83.789062 0)"/>
       <use xlink:href="#DejaVuSans-2e" transform="translate(147.412109 0)"/>
       <use xlink:href="#DejaVuSans-38" transform="translate(179.199219 0)"/>
       <use xlink:href="#DejaVuSans-35" transform="translate(242.822266 0)"/>
      </g>
     </g>
    </g>
    <g id="ytick_7">
     <g id="line2d_31">
      <path d="M 90 247.123329 
L 648 247.123329 
" clip-path="url(#pa731745ed3)" style="fill: none; stroke: #b0b0b0; stroke-width: 0.8; stroke-linecap: square"/>
     </g>
     <g id="line2d_32">
      <g>
       <use xlink:href="#m685c1520be" x="90" y="247.123329" style="stroke: #000000; stroke-width: 0.8"/>
      </g>
     </g>
     <g id="text_17">
      <!-- 2.80 -->
      <g transform="translate(52.354687 250.922547) scale(0.1 -0.1)">
       <use xlink:href="#DejaVuSans-2212"/>
       <use xlink:href="#DejaVuSans-32" transform="translate(83.789062 0)"/>
       <use xlink:href="#DejaVuSans-2e" transform="translate(147.412109 0)"/>
       <use xlink:href="#DejaVuSans-38" transform="translate(179.199219 0)"/>
       <use xlink:href="#DejaVuSans-30" transform="translate(242.822266 0)"/>
      </g>
     </g>
    </g>
    <g id="text_18">
     <!-- Latitude () -->
     <g transform="translate(46.275 464.889531) rotate(-90) scale(0.1 -0.1)">
      <defs>
       <path id="DejaVuSans-61" d="M 2194 1759 
Q 1497 1759 1228 1600 
Q 959 1441 959 1056 
Q 959 750 1161 570 
Q 1363 391 1709 391 
Q 2188 391 2477 730 
Q 2766 1069 2766 1631 
L 2766 1759 
L 2194 1759 
z
M 3341 1997 
L 3341 0 
L 2766 0 
L 2766 531 
Q 2569 213 2275 61 
Q 1981 -91 1556 -91 
Q 1019 -91 701 211 
Q 384 513 384 1019 
Q 384 1609 779 1909 
Q 1175 2209 1959 2209 
L 2766 2209 
L 2766 2266 
Q 2766 2663 2505 2880 
Q 2244 3097 1772 3097 
Q 1472 3097 1187 3025 
Q 903 2953 641 2809 
L 641 3341 
Q 956 3463 1253 3523 
Q 1550 3584 1831 3584 
Q 2591 3584 2966 3190 
Q 3341 2797 3341 1997 
z
" transform="scale(0.015625)"/>
      </defs>
      <use xlink:href="#DejaVuSans-4c"/>
      <use xlink:href="#DejaVuSans-61" transform="translate(55.712891 0)"/>
      <use xlink:href="#DejaVuSans-74" transform="translate(116.992188 0)"/>
      <use xlink:href="#DejaVuSans-69" transform="translate(156.201172 0)"/>
      <use xlink:href="#DejaVuSans-74" transform="translate(183.984375 0)"/>
      <use xlink:href="#DejaVuSans-75" transform="translate(223.193359 0)"/>
      <use xlink:href="#DejaVuSans-64" transform="translate(286.572266 0)"/>
      <use xlink:href="#DejaVuSans-65" transform="translate(350.048828 0)"/>
      <use xlink:href="#DejaVuSans-20" transform="translate(411.572266 0)"/>
      <use xlink:href="#DejaVuSans-28" transform="translate(443.359375 0)"/>
      <use xlink:href="#DejaVuSans-b0" transform="translate(482.373047 0)"/>
      <use xlink:href="#DejaVuSans-29" transform="translate(532.373047 0)"/>
     </g>
    </g>
   </g>
   <g id="patch_3">
    <path d="M 90 660.310747 
L 90 212.329253 
" style="fill: none; stroke: #000000; stroke-width: 0.8; stroke-linejoin: miter; stroke-linecap: square"/>
   </g>
   <g id="patch_4">
    <path d="M 648 660.310747 
L 648 212.329253 
" style="fill: none; stroke: #000000; stroke-width: 0.8; stroke-linejoin: miter; stroke-linecap: square"/>
   </g>
   <g id="patch_5">
    <path d="M 90 660.310747 
L 648 660.310747 
" style="fill: none; stroke: #000000; stroke-width: 0.8; stroke-linejoin: miter; stroke-linecap: square"/>
   </g>
   <g id="patch_6">
    <path d="M 90 212.329253 
L 648 212.329253 
" style="fill: none; stroke: #000000; stroke-width: 0.8; stroke-linejoin: miter; stroke-linecap: square"/>
   </g>
   <g id="legend_1">
    <g id="patch_7">
     <path d="M 323.345312 772.585171 
L 414.654687 772.585171 
Q 416.654687 772.585171 416.654687 770.585171 
L 416.654687 756.907046 
Q 416.654687 754.907046 414.654687 754.907046 
L 323.345312 754.907046 
Q 321.345312 754.907046 321.345312 756.907046 
L 321.345312 770.585171 
Q 321.345312 772.585171 323.345312 772.585171 
z
" style="fill: #ffffff; opacity: 0.8; stroke: #cccccc; stroke-linejoin: miter"/>
    </g>
    <g id="line2d_33">
     <defs>
      <path id="m434b48cfd6" d="M 0 5 
C 1.326016 5 2.597899 4.473168 3.535534 3.535534 
C 4.473168 2.597899 5 1.326016 5 0 
C 5 -1.326016 4.473168 -2.597899 3.535534 -3.535534 
C 2.597899 -4.473168 1.326016 -5 0 -5 
C -1.326016 -5 -2.597899 -4.473168 -3.535534 -3.535534 
C -4.473168 -2.597899 -5 -1.326016 -5 0 
C -5 1.326016 -4.473168 2.597899 -3.535534 3.535534 
C -2.597899 4.473168 -1.326016 5 0 5 
z
"/>
     </defs>
     <g>
      <use xlink:href="#m434b48cfd6" x="335.345312" y="763.005484" style="fill: #b3e2cd; fill-opacity: 0.65"/>
     </g>
    </g>
    <g id="text_19">
     <!-- RIO ANDIR -->
     <g transform="translate(353.345312 766.505484) scale(0.1 -0.1)">
      <defs>
       <path id="DejaVuSans-52" d="M 2841 2188 
Q 3044 2119 3236 1894 
Q 3428 1669 3622 1275 
L 4263 0 
L 3584 0 
L 2988 1197 
Q 2756 1666 2539 1819 
Q 2322 1972 1947 1972 
L 1259 1972 
L 1259 0 
L 628 0 
L 628 4666 
L 2053 4666 
Q 2853 4666 3247 4331 
Q 3641 3997 3641 3322 
Q 3641 2881 3436 2590 
Q 3231 2300 2841 2188 
z
M 1259 4147 
L 1259 2491 
L 2053 2491 
Q 2509 2491 2742 2702 
Q 2975 2913 2975 3322 
Q 2975 3731 2742 3939 
Q 2509 4147 2053 4147 
L 1259 4147 
z
" transform="scale(0.015625)"/>
       <path id="DejaVuSans-49" d="M 628 4666 
L 1259 4666 
L 1259 0 
L 628 0 
L 628 4666 
z
" transform="scale(0.015625)"/>
       <path id="DejaVuSans-4f" d="M 2522 4238 
Q 1834 4238 1429 3725 
Q 1025 3213 1025 2328 
Q 1025 1447 1429 934 
Q 1834 422 2522 422 
Q 3209 422 3611 934 
Q 4013 1447 4013 2328 
Q 4013 3213 3611 3725 
Q 3209 4238 2522 4238 
z
M 2522 4750 
Q 3503 4750 4090 4092 
Q 4678 3434 4678 2328 
Q 4678 1225 4090 567 
Q 3503 -91 2522 -91 
Q 1538 -91 948 565 
Q 359 1222 359 2328 
Q 359 3434 948 4092 
Q 1538 4750 2522 4750 
z
" transform="scale(0.015625)"/>
       <path id="DejaVuSans-41" d="M 2188 4044 
L 1331 1722 
L 3047 1722 
L 2188 4044 
z
M 1831 4666 
L 2547 4666 
L 4325 0 
L 3669 0 
L 3244 1197 
L 1141 1197 
L 716 0 
L 50 0 
L 1831 4666 
z
" transform="scale(0.015625)"/>
       <path id="DejaVuSans-4e" d="M 628 4666 
L 1478 4666 
L 3547 763 
L 3547 4666 
L 4159 4666 
L 4159 0 
L 3309 0 
L 1241 3903 
L 1241 0 
L 628 0 
L 628 4666 
z
" transform="scale(0.015625)"/>
       <path id="DejaVuSans-44" d="M 1259 4147 
L 1259 519 
L 2022 519 
Q 2988 519 3436 956 
Q 3884 1394 3884 2338 
Q 3884 3275 3436 3711 
Q 2988 4147 2022 4147 
L 1259 4147 
z
M 628 4666 
L 1925 4666 
Q 3281 4666 3915 4102 
Q 4550 3538 4550 2338 
Q 4550 1131 3912 565 
Q 3275 0 1925 0 
L 628 0 
L 628 4666 
z
" transform="scale(0.015625)"/>
       <path id="DejaVuSans-c1" d="M 2188 4044 
L 1331 1722 
L 3047 1722 
L 2188 4044 
z
M 1831 4666 
L 2547 4666 
L 4325 0 
L 3669 0 
L 3244 1197 
L 1141 1197 
L 716 0 
L 50 0 
L 1831 4666 
z
M 2359 5935 
L 2938 5935 
L 2225 5110 
L 1747 5110 
L 2359 5935 
z
" transform="scale(0.015625)"/>
      </defs>
      <use xlink:href="#DejaVuSans-52"/>
      <use xlink:href="#DejaVuSans-49" transform="translate(69.482422 0)"/>
      <use xlink:href="#DejaVuSans-4f" transform="translate(98.974609 0)"/>
      <use xlink:href="#DejaVuSans-20" transform="translate(177.685547 0)"/>
      <use xlink:href="#DejaVuSans-41" transform="translate(209.472656 0)"/>
      <use xlink:href="#DejaVuSans-4e" transform="translate(277.880859 0)"/>
      <use xlink:href="#DejaVuSans-44" transform="translate(352.685547 0)"/>
      <use xlink:href="#DejaVuSans-49" transform="translate(429.6875 0)"/>
      <use xlink:href="#DejaVuSans-52" transform="translate(459.179688 0)"/>
      <use xlink:href="#DejaVuSans-c1" transform="translate(524.662109 0)"/>
     </g>
    </g>
   </g>
  </g>
 </g>
 <defs>
  <clipPath id="pa731745ed3">
   <rect x="90" y="212.329253" width="558" height="447.981495"/>
  </clipPath>
 </defs>
</svg>
