<?xml version="1.0" encoding="utf-8" standalone="no"?>
<!DOCTYPE svg PUBLIC "-//W3C//DTD SVG 1.1//EN"
  "http://www.w3.org/Graphics/SVG/1.1/DTD/svg11.dtd">
<svg xmlns:xlink="http://www.w3.org/1999/xlink" width="720pt" height="864pt" viewBox="0 0 720 864" xmlns="http://www.w3.org/2000/svg" version="1.1">
 <metadata>
  <rdf:RDF xmlns:dc="http://purl.org/dc/elements/1.1/" xmlns:cc="http://creativecommons.org/ns#" xmlns:rdf="http://www.w3.org/1999/02/22-rdf-syntax-ns#">
   <cc:Work>
    <dc:type rdf:resource="http://purl.org/dc/dcmitype/StillImage"/>
    <dc:date>2025-06-16T17:54:40.355258</dc:date>
    <dc:format>image/svg+xml</dc:format>
    <dc:creator>
     <cc:Agent>
      <dc:title>Matplotlib v3.10.1, https://matplotlib.org/</dc:title>
     </cc:Agent>
    </dc:creator>
   </cc:Work>
  </rdf:RDF>
 </metadata>
 <defs>
  <style type="text/css">*{stroke-linejoin: round; stroke-linecap: butt}</style>
 </defs>
 <g id="figure_1">
  <g id="patch_1">
   <path d="M 0 864 
L 720 864 
L 720 0 
L 0 0 
z
" style="fill: #ffffff"/>
  </g>
  <g id="axes_1">
   <g id="patch_2">
    <path d="M 90 591.263038 
L 648 591.263038 
L 648 281.376962 
L 90 281.376962 
z
" style="fill: #ffffff"/>
   </g>
   <g id="PatchCollection_1">
    <path d="M 304.017932 411.197235 
L 306.353583 411.202518 
L 308.680707 411.196045 
L 311.000745 411.197941 
L 313.351419 411.195055 
L 314.772258 411.197282 
L 315.650436 411.198374 
L 316.636244 411.19717 
L 316.793491 411.196936 
L 317.979814 411.199732 
L 318.588902 411.199684 
L 320.31012 411.198814 
L 320.373183 411.196707 
L 322.24379 411.191659 
L 324.104449 411.210228 
L 324.952793 411.198191 
L 325.966 411.209035 
L 327.225063 411.191611 
L 327.828465 411.198141 
L 329.361343 411.208722 
L 329.696112 411.208576 
L 331.556075 411.208577 
L 331.698085 411.204702 
L 333.403803 411.210851 
L 334.268423 411.208537 
L 335.289548 411.208614 
L 336.601432 411.207783 
L 337.331618 411.212708 
L 338.923602 411.207223 
L 339.022456 411.208233 
L 340.586702 411.208443 
L 341.25082 411.208141 
L 342.756214 411.213264 
L 343.579347 411.210545 
L 344.16495 411.196018 
L 344.628384 411.200093 
L 345.981205 411.206567 
L 348.234798 411.209101 
L 350.575564 411.21237 
L 352.844702 411.189258 
L 354.033226 411.219759 
L 357.550749 411.214753 
L 358.709321 411.221038 
L 359.885552 411.227375 
L 359.869879 420.484431 
L 359.777511 420.673299 
L 359.775124 422.660949 
L 359.812637 424.350278 
L 359.8157 426.137119 
L 359.823477 427.772154 
L 359.808491 429.252056 
L 359.797439 430.822238 
L 359.866797 432.245148 
L 359.888316 433.53988 
L 359.858156 434.831341 
L 359.870482 436.195314 
L 359.875664 437.496383 
L 359.865322 438.748675 
L 359.859962 440.227898 
L 359.867551 442.372303 
L 359.871046 444.182748 
L 359.86348 444.867444 
L 359.862004 447.437161 
L 359.843195 450.795614 
L 359.860552 451.552862 
L 359.869276 453.9148 
L 359.862646 457.499037 
L 359.861537 460.744402 
L 359.865153 463.970475 
L 359.863482 464.827927 
L 359.867569 465.029748 
L 359.864855 468.26571 
L 359.860438 471.405839 
L 359.857807 473.953923 
L 359.862024 474.512754 
L 359.859229 474.686564 
L 359.862971 478.008564 
L 359.86228 481.31026 
L 359.863264 484.523074 
L 359.862867 487.446878 
L 359.863059 487.576854 
L 359.865807 489.081729 
L 357.702101 489.09444 
L 354.644981 489.108924 
L 351.741134 489.12878 
L 348.459457 489.151038 
L 345.151421 489.172286 
L 341.906942 489.199007 
L 338.758402 489.208841 
L 335.773327 489.225911 
L 331.619349 489.254677 
L 328.473895 489.268639 
L 325.259454 489.275476 
L 321.928148 489.305007 
L 318.650562 489.328842 
L 315.463963 489.334868 
L 312.433272 489.354927 
L 311.002869 489.361196 
L 303.720871 489.40372 
L 303.645254 487.050456 
L 303.675191 484.718794 
L 303.677979 482.363675 
L 303.874517 480.018879 
L 303.586292 477.66069 
L 303.575918 477.429817 
L 303.531899 475.032377 
L 303.556576 472.684735 
L 303.862457 470.251965 
L 303.526679 467.985853 
L 303.515286 465.637344 
L 303.515573 463.103532 
L 303.489077 460.771418 
L 303.358393 458.441399 
L 303.464415 456.067255 
L 303.455357 453.71526 
L 303.424534 450.951086 
L 303.427988 450.764671 
L 303.397461 448.284152 
L 303.419579 445.6822 
L 303.39564 443.177308 
L 303.401557 440.510305 
L 303.196206 438.630185 
L 303.311079 436.750538 
L 303.268182 434.756942 
L 303.067334 435.01176 
L 300.424331 435.028065 
L 297.947837 435.044951 
L 295.210086 435.062535 
L 292.723291 435.069622 
L 290.008976 435.080345 
L 287.386976 435.089826 
L 284.780106 435.096154 
L 284.501656 435.096802 
L 282.322083 435.101883 
L 279.375275 435.10856 
L 276.686729 435.112163 
L 274.38839 435.117426 
L 271.782171 435.125438 
L 269.152113 435.128678 
L 266.552711 435.136165 
L 264.012288 435.154052 
L 261.326588 435.332744 
L 258.762153 435.15548 
L 256.264031 435.161094 
L 253.563611 435.167449 
L 250.962139 435.171245 
L 248.353938 435.175503 
L 245.749099 435.179076 
L 243.125383 435.182757 
L 240.719065 435.216111 
L 240.713687 433.761143 
L 240.714212 432.824576 
L 240.737804 428.262464 
L 240.739979 421.49422 
L 240.856772 421.492404 
L 243.22106 421.470043 
L 245.382796 421.458578 
L 245.788209 421.453023 
L 247.667578 421.441978 
L 248.419881 421.414795 
L 249.973849 421.425509 
L 251.028387 421.380728 
L 252.264298 421.392407 
L 253.594283 421.346063 
L 254.563733 421.369336 
L 256.227281 421.319809 
L 256.458532 421.316923 
L 258.803295 421.301167 
L 259.349377 421.321285 
L 261.411426 421.269465 
L 261.710023 421.304914 
L 263.975032 421.262564 
L 266.259698 421.239159 
L 268.558393 421.223987 
L 269.095299 421.185325 
L 271.697818 421.154588 
L 273.11987 421.177302 
L 274.304526 421.164735 
L 275.402446 421.138508 
L 276.907754 421.115992 
L 277.698141 421.120458 
L 279.509725 421.09366 
L 279.965698 421.095864 
L 282.107951 421.068964 
L 283.327455 421.056296 
L 284.549955 421.046627 
L 284.704779 421.046507 
L 286.828832 421.030993 
L 287.280223 421.031597 
L 289.090778 421.006443 
L 289.881518 421.001662 
L 291.390033 420.996944 
L 292.479756 420.986102 
L 293.700187 420.971043 
L 295.104604 420.961627 
L 295.988295 420.94818 
L 297.699084 420.937194 
L 298.321731 420.932357 
L 300.298617 420.916962 
L 300.608732 420.917836 
L 302.891705 420.899262 
L 303.169827 420.834928 
L 303.165398 419.286675 
L 303.153737 417.673448 
L 303.139167 416.053738 
L 303.13095 414.433262 
L 303.120299 412.809969 
L 303.061836 411.199564 
L 304.017932 411.197235 
" clip-path="url(#p2713647471)" style="fill: #fdcdac; fill-opacity: 0.65"/>
    <path d="M 115.850299 437.527411 
L 134.419536 437.552479 
L 134.210468 438.758468 
L 143.42336 438.784979 
L 152.762289 438.806802 
L 153.36631 438.809507 
L 170.974846 438.841308 
L 170.978407 445.847 
L 170.97128 460.962293 
L 170.920591 469.125193 
L 170.97071 469.315002 
L 170.873909 477.390976 
L 170.96889 482.612891 
L 170.967994 485.608085 
L 169.354107 485.609344 
L 167.744254 485.620276 
L 166.132718 485.630826 
L 164.516108 485.624636 
L 162.922814 485.646709 
L 161.313333 485.657515 
L 159.705803 485.661726 
L 158.091005 485.679673 
L 156.480674 485.685284 
L 154.909967 485.691388 
L 153.261777 485.692059 
L 151.641152 485.690139 
L 150.13898 485.657266 
L 149.999802 485.643098 
L 136.627388 485.430509 
L 136.466548 485.429818 
L 128.792901 485.400354 
L 128.728608 485.403367 
L 128.777743 485.449849 
L 124.387738 485.522559 
L 123.289185 485.540494 
L 122.185677 485.557586 
L 121.080115 485.576465 
L 119.978383 485.59477 
L 118.876741 485.610438 
L 117.773892 485.631841 
L 116.671971 485.648912 
L 115.399487 485.662566 
L 115.381519 473.943757 
L 115.383826 473.859575 
L 115.363636 462.396022 
L 115.850299 437.527411 
" clip-path="url(#p2713647471)" style="fill: #cccccc; fill-opacity: 0.65"/>
    <path d="M 240.653781 411.311106 
L 302.629246 411.157794 
L 302.858423 420.821435 
L 240.658098 421.451588 
L 240.653781 411.311106 
" clip-path="url(#p2713647471)" style="fill: #f1e2cc; fill-opacity: 0.65"/>
    <path d="M 236.175724 371.099384 
L 291.319881 371.375149 
L 291.537942 410.76337 
L 236.297296 410.889424 
L 236.175724 371.099384 
" clip-path="url(#p2713647471)" style="fill: #e6f5c9; fill-opacity: 0.65"/>
    <path d="M 235.891662 408.41865 
L 203.761261 408.677279 
L 203.658734 381.951701 
L 203.376015 381.509957 
L 171.015682 381.420622 
L 170.986057 367.964222 
L 203.524496 368.005538 
L 203.800311 366.605274 
L 203.746992 346.859104 
L 235.81027 346.446491 
L 235.891662 408.41865 
" clip-path="url(#p2713647471)" style="fill: #b3e2cd; fill-opacity: 0.65"/>
    <path d="M 236.281902 295.531206 
L 291.347156 295.664886 
L 291.319187 371.070709 
L 236.191336 370.796134 
L 236.281902 295.531206 
" clip-path="url(#p2713647471)" style="fill: #f4cae4; fill-opacity: 0.65"/>
   </g>
   <g id="PatchCollection_2">
    <path d="M 622.636364 296.530566 
L 617.891783 315.723833 
L 607.826749 353.539864 
L 597.710897 391.405702 
L 593.03981 411.201669 
L 592.439959 411.203705 
L 575.363715 475.533458 
L 568.761963 498.362698 
L 565.316555 496.724123 
L 552.655599 490.370441 
L 545.882162 504.385327 
L 545.079637 505.780413 
L 539.275437 520.328658 
L 544.124207 525.040538 
L 534.599206 532.55456 
L 511.153414 509.36429 
L 502.960509 521.896979 
L 493.039475 537.773538 
L 482.032402 553.46373 
L 477.410813 550.562905 
L 470.697368 556.880272 
L 460.762745 550.680927 
L 456.785743 548.029853 
L 441.940058 572.063702 
L 439.960684 570.823802 
L 437.706218 570.014283 
L 435.842925 568.604708 
L 425.952641 562.381342 
L 423.982751 561.147258 
L 422.321699 559.8241 
L 420.337464 558.568 
L 420.186469 558.802018 
L 410.416398 574.550533 
L 406.564596 572.215828 
L 402.498825 569.553927 
L 388.59299 560.787277 
L 378.695246 577.177307 
L 358.359747 564.571743 
L 354.443927 570.832804 
L 353.219857 572.921363 
L 337.439875 562.822762 
L 332.312945 571.125385 
L 324.657509 566.339022 
L 324.667228 568.774798 
L 305.080701 568.889245 
L 304.28329 521.684996 
L 304.177959 519.517867 
L 304.010487 505.175249 
L 302.710189 505.20712 
L 240.936606 506.162852 
L 240.73008 482.773963 
L 170.968945 482.61291 
L 170.963276 381.424513 
L 170.720228 379.445934 
L 170.968108 375.301375 
L 170.969276 369.629977 
L 170.977087 317.005803 
L 170.976632 333.168631 
L 203.852134 333.166838 
L 236.123373 333.326993 
L 236.180689 295.463067 
L 203.810074 295.795038 
L 170.982527 295.595171 
L 170.981293 296.160594 
L 170.981409 295.591495 
L 236.179455 295.462693 
L 246.462957 295.760457 
L 253.936432 295.507598 
L 260.731282 295.833706 
L 262.810053 295.556458 
L 269.64033 295.572917 
L 278.472191 295.866196 
L 281.042196 295.50091 
L 285.701396 295.604458 
L 289.058264 295.615311 
L 291.33054 295.873619 
L 291.448814 296.632257 
L 309.669262 296.634455 
L 374.882777 296.646287 
L 386.602955 296.662333 
L 400.617878 296.655011 
L 435.592762 296.660496 
L 484.874099 296.656174 
L 498.874306 296.685289 
L 510.523657 296.654416 
L 622.636364 296.530566 
L 622.636364 296.530566 
" clip-path="url(#p2713647471)" style="fill: none; stroke: #000000; stroke-width: 2"/>
   </g>
   <g id="matplotlib.axis_1">
    <g id="xtick_1">
     <g id="line2d_1">
      <path d="M 133.120045 591.263038 
L 133.120045 281.376962 
" clip-path="url(#p2713647471)" style="fill: none; stroke: #b0b0b0; stroke-width: 0.8; stroke-linecap: square"/>
     </g>
     <g id="line2d_2">
      <defs>
       <path id="mb3a50c453e" d="M 0 0 
L 0 3.5 
" style="stroke: #000000; stroke-width: 0.8"/>
      </defs>
      <g>
       <use xlink:href="#mb3a50c453e" x="133.120045" y="591.263038" style="stroke: #000000; stroke-width: 0.8"/>
      </g>
     </g>
     <g id="text_1">
      <!-- −62.5 -->
      <g transform="translate(124.236464 625.305453) rotate(-45) scale(0.1 -0.1)">
       <defs>
        <path id="DejaVuSans-2212" d="M 678 2272 
L 4684 2272 
L 4684 1741 
L 678 1741 
L 678 2272 
z
" transform="scale(0.015625)"/>
        <path id="DejaVuSans-36" d="M 2113 2584 
Q 1688 2584 1439 2293 
Q 1191 2003 1191 1497 
Q 1191 994 1439 701 
Q 1688 409 2113 409 
Q 2538 409 2786 701 
Q 3034 994 3034 1497 
Q 3034 2003 2786 2293 
Q 2538 2584 2113 2584 
z
M 3366 4563 
L 3366 3988 
Q 3128 4100 2886 4159 
Q 2644 4219 2406 4219 
Q 1781 4219 1451 3797 
Q 1122 3375 1075 2522 
Q 1259 2794 1537 2939 
Q 1816 3084 2150 3084 
Q 2853 3084 3261 2657 
Q 3669 2231 3669 1497 
Q 3669 778 3244 343 
Q 2819 -91 2113 -91 
Q 1303 -91 875 529 
Q 447 1150 447 2328 
Q 447 3434 972 4092 
Q 1497 4750 2381 4750 
Q 2619 4750 2861 4703 
Q 3103 4656 3366 4563 
z
" transform="scale(0.015625)"/>
        <path id="DejaVuSans-32" d="M 1228 531 
L 3431 531 
L 3431 0 
L 469 0 
L 469 531 
Q 828 903 1448 1529 
Q 2069 2156 2228 2338 
Q 2531 2678 2651 2914 
Q 2772 3150 2772 3378 
Q 2772 3750 2511 3984 
Q 2250 4219 1831 4219 
Q 1534 4219 1204 4116 
Q 875 4013 500 3803 
L 500 4441 
Q 881 4594 1212 4672 
Q 1544 4750 1819 4750 
Q 2544 4750 2975 4387 
Q 3406 4025 3406 3419 
Q 3406 3131 3298 2873 
Q 3191 2616 2906 2266 
Q 2828 2175 2409 1742 
Q 1991 1309 1228 531 
z
" transform="scale(0.015625)"/>
        <path id="DejaVuSans-2e" d="M 684 794 
L 1344 794 
L 1344 0 
L 684 0 
L 684 794 
z
" transform="scale(0.015625)"/>
        <path id="DejaVuSans-35" d="M 691 4666 
L 3169 4666 
L 3169 4134 
L 1269 4134 
L 1269 2991 
Q 1406 3038 1543 3061 
Q 1681 3084 1819 3084 
Q 2600 3084 3056 2656 
Q 3513 2228 3513 1497 
Q 3513 744 3044 326 
Q 2575 -91 1722 -91 
Q 1428 -91 1123 -41 
Q 819 9 494 109 
L 494 744 
Q 775 591 1075 516 
Q 1375 441 1709 441 
Q 2250 441 2565 725 
Q 2881 1009 2881 1497 
Q 2881 1984 2565 2268 
Q 2250 2553 1709 2553 
Q 1456 2553 1204 2497 
Q 953 2441 691 2322 
L 691 4666 
z
" transform="scale(0.015625)"/>
       </defs>
       <use xlink:href="#DejaVuSans-2212"/>
       <use xlink:href="#DejaVuSans-36" transform="translate(83.789062 0)"/>
       <use xlink:href="#DejaVuSans-32" transform="translate(147.412109 0)"/>
       <use xlink:href="#DejaVuSans-2e" transform="translate(211.035156 0)"/>
       <use xlink:href="#DejaVuSans-35" transform="translate(242.822266 0)"/>
      </g>
     </g>
    </g>
    <g id="xtick_2">
     <g id="line2d_3">
      <path d="M 235.511331 591.263038 
L 235.511331 281.376962 
" clip-path="url(#p2713647471)" style="fill: none; stroke: #b0b0b0; stroke-width: 0.8; stroke-linecap: square"/>
     </g>
     <g id="line2d_4">
      <g>
       <use xlink:href="#mb3a50c453e" x="235.511331" y="591.263038" style="stroke: #000000; stroke-width: 0.8"/>
      </g>
     </g>
     <g id="text_2">
      <!-- −62.4 -->
      <g transform="translate(226.627749 625.305453) rotate(-45) scale(0.1 -0.1)">
       <defs>
        <path id="DejaVuSans-34" d="M 2419 4116 
L 825 1625 
L 2419 1625 
L 2419 4116 
z
M 2253 4666 
L 3047 4666 
L 3047 1625 
L 3713 1625 
L 3713 1100 
L 3047 1100 
L 3047 0 
L 2419 0 
L 2419 1100 
L 313 1100 
L 313 1709 
L 2253 4666 
z
" transform="scale(0.015625)"/>
       </defs>
       <use xlink:href="#DejaVuSans-2212"/>
       <use xlink:href="#DejaVuSans-36" transform="translate(83.789062 0)"/>
       <use xlink:href="#DejaVuSans-32" transform="translate(147.412109 0)"/>
       <use xlink:href="#DejaVuSans-2e" transform="translate(211.035156 0)"/>
       <use xlink:href="#DejaVuSans-34" transform="translate(242.822266 0)"/>
      </g>
     </g>
    </g>
    <g id="xtick_3">
     <g id="line2d_5">
      <path d="M 337.902617 591.263038 
L 337.902617 281.376962 
" clip-path="url(#p2713647471)" style="fill: none; stroke: #b0b0b0; stroke-width: 0.8; stroke-linecap: square"/>
     </g>
     <g id="line2d_6">
      <g>
       <use xlink:href="#mb3a50c453e" x="337.902617" y="591.263038" style="stroke: #000000; stroke-width: 0.8"/>
      </g>
     </g>
     <g id="text_3">
      <!-- −62.3 -->
      <g transform="translate(329.019035 625.305453) rotate(-45) scale(0.1 -0.1)">
       <defs>
        <path id="DejaVuSans-33" d="M 2597 2516 
Q 3050 2419 3304 2112 
Q 3559 1806 3559 1356 
Q 3559 666 3084 287 
Q 2609 -91 1734 -91 
Q 1441 -91 1130 -33 
Q 819 25 488 141 
L 488 750 
Q 750 597 1062 519 
Q 1375 441 1716 441 
Q 2309 441 2620 675 
Q 2931 909 2931 1356 
Q 2931 1769 2642 2001 
Q 2353 2234 1838 2234 
L 1294 2234 
L 1294 2753 
L 1863 2753 
Q 2328 2753 2575 2939 
Q 2822 3125 2822 3475 
Q 2822 3834 2567 4026 
Q 2313 4219 1838 4219 
Q 1578 4219 1281 4162 
Q 984 4106 628 3988 
L 628 4550 
Q 988 4650 1302 4700 
Q 1616 4750 1894 4750 
Q 2613 4750 3031 4423 
Q 3450 4097 3450 3541 
Q 3450 3153 3228 2886 
Q 3006 2619 2597 2516 
z
" transform="scale(0.015625)"/>
       </defs>
       <use xlink:href="#DejaVuSans-2212"/>
       <use xlink:href="#DejaVuSans-36" transform="translate(83.789062 0)"/>
       <use xlink:href="#DejaVuSans-32" transform="translate(147.412109 0)"/>
       <use xlink:href="#DejaVuSans-2e" transform="translate(211.035156 0)"/>
       <use xlink:href="#DejaVuSans-33" transform="translate(242.822266 0)"/>
      </g>
     </g>
    </g>
    <g id="xtick_4">
     <g id="line2d_7">
      <path d="M 440.293902 591.263038 
L 440.293902 281.376962 
" clip-path="url(#p2713647471)" style="fill: none; stroke: #b0b0b0; stroke-width: 0.8; stroke-linecap: square"/>
     </g>
     <g id="line2d_8">
      <g>
       <use xlink:href="#mb3a50c453e" x="440.293902" y="591.263038" style="stroke: #000000; stroke-width: 0.8"/>
      </g>
     </g>
     <g id="text_4">
      <!-- −62.2 -->
      <g transform="translate(431.410321 625.305453) rotate(-45) scale(0.1 -0.1)">
       <use xlink:href="#DejaVuSans-2212"/>
       <use xlink:href="#DejaVuSans-36" transform="translate(83.789062 0)"/>
       <use xlink:href="#DejaVuSans-32" transform="translate(147.412109 0)"/>
       <use xlink:href="#DejaVuSans-2e" transform="translate(211.035156 0)"/>
       <use xlink:href="#DejaVuSans-32" transform="translate(242.822266 0)"/>
      </g>
     </g>
    </g>
    <g id="xtick_5">
     <g id="line2d_9">
      <path d="M 542.685188 591.263038 
L 542.685188 281.376962 
" clip-path="url(#p2713647471)" style="fill: none; stroke: #b0b0b0; stroke-width: 0.8; stroke-linecap: square"/>
     </g>
     <g id="line2d_10">
      <g>
       <use xlink:href="#mb3a50c453e" x="542.685188" y="591.263038" style="stroke: #000000; stroke-width: 0.8"/>
      </g>
     </g>
     <g id="text_5">
      <!-- −62.1 -->
      <g transform="translate(533.801607 625.305453) rotate(-45) scale(0.1 -0.1)">
       <defs>
        <path id="DejaVuSans-31" d="M 794 531 
L 1825 531 
L 1825 4091 
L 703 3866 
L 703 4441 
L 1819 4666 
L 2450 4666 
L 2450 531 
L 3481 531 
L 3481 0 
L 794 0 
L 794 531 
z
" transform="scale(0.015625)"/>
       </defs>
       <use xlink:href="#DejaVuSans-2212"/>
       <use xlink:href="#DejaVuSans-36" transform="translate(83.789062 0)"/>
       <use xlink:href="#DejaVuSans-32" transform="translate(147.412109 0)"/>
       <use xlink:href="#DejaVuSans-2e" transform="translate(211.035156 0)"/>
       <use xlink:href="#DejaVuSans-31" transform="translate(242.822266 0)"/>
      </g>
     </g>
    </g>
    <g id="xtick_6">
     <g id="line2d_11">
      <path d="M 645.076474 591.263038 
L 645.076474 281.376962 
" clip-path="url(#p2713647471)" style="fill: none; stroke: #b0b0b0; stroke-width: 0.8; stroke-linecap: square"/>
     </g>
     <g id="line2d_12">
      <g>
       <use xlink:href="#mb3a50c453e" x="645.076474" y="591.263038" style="stroke: #000000; stroke-width: 0.8"/>
      </g>
     </g>
     <g id="text_6">
      <!-- −62.0 -->
      <g transform="translate(636.192893 625.305453) rotate(-45) scale(0.1 -0.1)">
       <defs>
        <path id="DejaVuSans-30" d="M 2034 4250 
Q 1547 4250 1301 3770 
Q 1056 3291 1056 2328 
Q 1056 1369 1301 889 
Q 1547 409 2034 409 
Q 2525 409 2770 889 
Q 3016 1369 3016 2328 
Q 3016 3291 2770 3770 
Q 2525 4250 2034 4250 
z
M 2034 4750 
Q 2819 4750 3233 4129 
Q 3647 3509 3647 2328 
Q 3647 1150 3233 529 
Q 2819 -91 2034 -91 
Q 1250 -91 836 529 
Q 422 1150 422 2328 
Q 422 3509 836 4129 
Q 1250 4750 2034 4750 
z
" transform="scale(0.015625)"/>
       </defs>
       <use xlink:href="#DejaVuSans-2212"/>
       <use xlink:href="#DejaVuSans-36" transform="translate(83.789062 0)"/>
       <use xlink:href="#DejaVuSans-32" transform="translate(147.412109 0)"/>
       <use xlink:href="#DejaVuSans-2e" transform="translate(211.035156 0)"/>
       <use xlink:href="#DejaVuSans-30" transform="translate(242.822266 0)"/>
      </g>
     </g>
    </g>
    <g id="text_7">
     <!-- Longitude (°) -->
     <g transform="translate(336.139844 638.374452) scale(0.1 -0.1)">
      <defs>
       <path id="DejaVuSans-4c" d="M 628 4666 
L 1259 4666 
L 1259 531 
L 3531 531 
L 3531 0 
L 628 0 
L 628 4666 
z
" transform="scale(0.015625)"/>
       <path id="DejaVuSans-6f" d="M 1959 3097 
Q 1497 3097 1228 2736 
Q 959 2375 959 1747 
Q 959 1119 1226 758 
Q 1494 397 1959 397 
Q 2419 397 2687 759 
Q 2956 1122 2956 1747 
Q 2956 2369 2687 2733 
Q 2419 3097 1959 3097 
z
M 1959 3584 
Q 2709 3584 3137 3096 
Q 3566 2609 3566 1747 
Q 3566 888 3137 398 
Q 2709 -91 1959 -91 
Q 1206 -91 779 398 
Q 353 888 353 1747 
Q 353 2609 779 3096 
Q 1206 3584 1959 3584 
z
" transform="scale(0.015625)"/>
       <path id="DejaVuSans-6e" d="M 3513 2113 
L 3513 0 
L 2938 0 
L 2938 2094 
Q 2938 2591 2744 2837 
Q 2550 3084 2163 3084 
Q 1697 3084 1428 2787 
Q 1159 2491 1159 1978 
L 1159 0 
L 581 0 
L 581 3500 
L 1159 3500 
L 1159 2956 
Q 1366 3272 1645 3428 
Q 1925 3584 2291 3584 
Q 2894 3584 3203 3211 
Q 3513 2838 3513 2113 
z
" transform="scale(0.015625)"/>
       <path id="DejaVuSans-67" d="M 2906 1791 
Q 2906 2416 2648 2759 
Q 2391 3103 1925 3103 
Q 1463 3103 1205 2759 
Q 947 2416 947 1791 
Q 947 1169 1205 825 
Q 1463 481 1925 481 
Q 2391 481 2648 825 
Q 2906 1169 2906 1791 
z
M 3481 434 
Q 3481 -459 3084 -895 
Q 2688 -1331 1869 -1331 
Q 1566 -1331 1297 -1286 
Q 1028 -1241 775 -1147 
L 775 -588 
Q 1028 -725 1275 -790 
Q 1522 -856 1778 -856 
Q 2344 -856 2625 -561 
Q 2906 -266 2906 331 
L 2906 616 
Q 2728 306 2450 153 
Q 2172 0 1784 0 
Q 1141 0 747 490 
Q 353 981 353 1791 
Q 353 2603 747 3093 
Q 1141 3584 1784 3584 
Q 2172 3584 2450 3431 
Q 2728 3278 2906 2969 
L 2906 3500 
L 3481 3500 
L 3481 434 
z
" transform="scale(0.015625)"/>
       <path id="DejaVuSans-69" d="M 603 3500 
L 1178 3500 
L 1178 0 
L 603 0 
L 603 3500 
z
M 603 4863 
L 1178 4863 
L 1178 4134 
L 603 4134 
L 603 4863 
z
" transform="scale(0.015625)"/>
       <path id="DejaVuSans-74" d="M 1172 4494 
L 1172 3500 
L 2356 3500 
L 2356 3053 
L 1172 3053 
L 1172 1153 
Q 1172 725 1289 603 
Q 1406 481 1766 481 
L 2356 481 
L 2356 0 
L 1766 0 
Q 1100 0 847 248 
Q 594 497 594 1153 
L 594 3053 
L 172 3053 
L 172 3500 
L 594 3500 
L 594 4494 
L 1172 4494 
z
" transform="scale(0.015625)"/>
       <path id="DejaVuSans-75" d="M 544 1381 
L 544 3500 
L 1119 3500 
L 1119 1403 
Q 1119 906 1312 657 
Q 1506 409 1894 409 
Q 2359 409 2629 706 
Q 2900 1003 2900 1516 
L 2900 3500 
L 3475 3500 
L 3475 0 
L 2900 0 
L 2900 538 
Q 2691 219 2414 64 
Q 2138 -91 1772 -91 
Q 1169 -91 856 284 
Q 544 659 544 1381 
z
M 1991 3584 
L 1991 3584 
z
" transform="scale(0.015625)"/>
       <path id="DejaVuSans-64" d="M 2906 2969 
L 2906 4863 
L 3481 4863 
L 3481 0 
L 2906 0 
L 2906 525 
Q 2725 213 2448 61 
Q 2172 -91 1784 -91 
Q 1150 -91 751 415 
Q 353 922 353 1747 
Q 353 2572 751 3078 
Q 1150 3584 1784 3584 
Q 2172 3584 2448 3432 
Q 2725 3281 2906 2969 
z
M 947 1747 
Q 947 1113 1208 752 
Q 1469 391 1925 391 
Q 2381 391 2643 752 
Q 2906 1113 2906 1747 
Q 2906 2381 2643 2742 
Q 2381 3103 1925 3103 
Q 1469 3103 1208 2742 
Q 947 2381 947 1747 
z
" transform="scale(0.015625)"/>
       <path id="DejaVuSans-65" d="M 3597 1894 
L 3597 1613 
L 953 1613 
Q 991 1019 1311 708 
Q 1631 397 2203 397 
Q 2534 397 2845 478 
Q 3156 559 3463 722 
L 3463 178 
Q 3153 47 2828 -22 
Q 2503 -91 2169 -91 
Q 1331 -91 842 396 
Q 353 884 353 1716 
Q 353 2575 817 3079 
Q 1281 3584 2069 3584 
Q 2775 3584 3186 3129 
Q 3597 2675 3597 1894 
z
M 3022 2063 
Q 3016 2534 2758 2815 
Q 2500 3097 2075 3097 
Q 1594 3097 1305 2825 
Q 1016 2553 972 2059 
L 3022 2063 
z
" transform="scale(0.015625)"/>
       <path id="DejaVuSans-20" transform="scale(0.015625)"/>
       <path id="DejaVuSans-28" d="M 1984 4856 
Q 1566 4138 1362 3434 
Q 1159 2731 1159 2009 
Q 1159 1288 1364 580 
Q 1569 -128 1984 -844 
L 1484 -844 
Q 1016 -109 783 600 
Q 550 1309 550 2009 
Q 550 2706 781 3412 
Q 1013 4119 1484 4856 
L 1984 4856 
z
" transform="scale(0.015625)"/>
       <path id="DejaVuSans-b0" d="M 1600 4347 
Q 1350 4347 1178 4173 
Q 1006 4000 1006 3750 
Q 1006 3503 1178 3333 
Q 1350 3163 1600 3163 
Q 1850 3163 2022 3333 
Q 2194 3503 2194 3750 
Q 2194 3997 2020 4172 
Q 1847 4347 1600 4347 
z
M 1600 4750 
Q 1800 4750 1984 4673 
Q 2169 4597 2303 4453 
Q 2447 4313 2519 4134 
Q 2591 3956 2591 3750 
Q 2591 3338 2302 3052 
Q 2013 2766 1594 2766 
Q 1172 2766 890 3047 
Q 609 3328 609 3750 
Q 609 4169 896 4459 
Q 1184 4750 1600 4750 
z
" transform="scale(0.015625)"/>
       <path id="DejaVuSans-29" d="M 513 4856 
L 1013 4856 
Q 1481 4119 1714 3412 
Q 1947 2706 1947 2009 
Q 1947 1309 1714 600 
Q 1481 -109 1013 -844 
L 513 -844 
Q 928 -128 1133 580 
Q 1338 1288 1338 2009 
Q 1338 2731 1133 3434 
Q 928 4138 513 4856 
z
" transform="scale(0.015625)"/>
      </defs>
      <use xlink:href="#DejaVuSans-4c"/>
      <use xlink:href="#DejaVuSans-6f" transform="translate(53.962891 0)"/>
      <use xlink:href="#DejaVuSans-6e" transform="translate(115.144531 0)"/>
      <use xlink:href="#DejaVuSans-67" transform="translate(178.523438 0)"/>
      <use xlink:href="#DejaVuSans-69" transform="translate(242 0)"/>
      <use xlink:href="#DejaVuSans-74" transform="translate(269.783203 0)"/>
      <use xlink:href="#DejaVuSans-75" transform="translate(308.992188 0)"/>
      <use xlink:href="#DejaVuSans-64" transform="translate(372.371094 0)"/>
      <use xlink:href="#DejaVuSans-65" transform="translate(435.847656 0)"/>
      <use xlink:href="#DejaVuSans-20" transform="translate(497.371094 0)"/>
      <use xlink:href="#DejaVuSans-28" transform="translate(529.158203 0)"/>
      <use xlink:href="#DejaVuSans-b0" transform="translate(568.171875 0)"/>
      <use xlink:href="#DejaVuSans-29" transform="translate(618.171875 0)"/>
     </g>
    </g>
   </g>
   <g id="matplotlib.axis_2">
    <g id="ytick_1">
     <g id="line2d_13">
      <path d="M 90 573.60293 
L 648 573.60293 
" clip-path="url(#p2713647471)" style="fill: none; stroke: #b0b0b0; stroke-width: 0.8; stroke-linecap: square"/>
     </g>
     <g id="line2d_14">
      <defs>
       <path id="mb8dafede01" d="M 0 0 
L -3.5 0 
" style="stroke: #000000; stroke-width: 0.8"/>
      </defs>
      <g>
       <use xlink:href="#mb8dafede01" x="90" y="573.60293" style="stroke: #000000; stroke-width: 0.8"/>
      </g>
     </g>
     <g id="text_8">
      <!-- −10.20 -->
      <g transform="translate(45.992188 577.402149) scale(0.1 -0.1)">
       <use xlink:href="#DejaVuSans-2212"/>
       <use xlink:href="#DejaVuSans-31" transform="translate(83.789062 0)"/>
       <use xlink:href="#DejaVuSans-30" transform="translate(147.412109 0)"/>
       <use xlink:href="#DejaVuSans-2e" transform="translate(211.035156 0)"/>
       <use xlink:href="#DejaVuSans-32" transform="translate(242.822266 0)"/>
       <use xlink:href="#DejaVuSans-30" transform="translate(306.445312 0)"/>
      </g>
     </g>
    </g>
    <g id="ytick_2">
     <g id="line2d_15">
      <path d="M 90 521.606596 
L 648 521.606596 
" clip-path="url(#p2713647471)" style="fill: none; stroke: #b0b0b0; stroke-width: 0.8; stroke-linecap: square"/>
     </g>
     <g id="line2d_16">
      <g>
       <use xlink:href="#mb8dafede01" x="90" y="521.606596" style="stroke: #000000; stroke-width: 0.8"/>
      </g>
     </g>
     <g id="text_9">
      <!-- −10.15 -->
      <g transform="translate(45.992188 525.405815) scale(0.1 -0.1)">
       <use xlink:href="#DejaVuSans-2212"/>
       <use xlink:href="#DejaVuSans-31" transform="translate(83.789062 0)"/>
       <use xlink:href="#DejaVuSans-30" transform="translate(147.412109 0)"/>
       <use xlink:href="#DejaVuSans-2e" transform="translate(211.035156 0)"/>
       <use xlink:href="#DejaVuSans-31" transform="translate(242.822266 0)"/>
       <use xlink:href="#DejaVuSans-35" transform="translate(306.445312 0)"/>
      </g>
     </g>
    </g>
    <g id="ytick_3">
     <g id="line2d_17">
      <path d="M 90 469.610262 
L 648 469.610262 
" clip-path="url(#p2713647471)" style="fill: none; stroke: #b0b0b0; stroke-width: 0.8; stroke-linecap: square"/>
     </g>
     <g id="line2d_18">
      <g>
       <use xlink:href="#mb8dafede01" x="90" y="469.610262" style="stroke: #000000; stroke-width: 0.8"/>
      </g>
     </g>
     <g id="text_10">
      <!-- −10.10 -->
      <g transform="translate(45.992188 473.409481) scale(0.1 -0.1)">
       <use xlink:href="#DejaVuSans-2212"/>
       <use xlink:href="#DejaVuSans-31" transform="translate(83.789062 0)"/>
       <use xlink:href="#DejaVuSans-30" transform="translate(147.412109 0)"/>
       <use xlink:href="#DejaVuSans-2e" transform="translate(211.035156 0)"/>
       <use xlink:href="#DejaVuSans-31" transform="translate(242.822266 0)"/>
       <use xlink:href="#DejaVuSans-30" transform="translate(306.445312 0)"/>
      </g>
     </g>
    </g>
    <g id="ytick_4">
     <g id="line2d_19">
      <path d="M 90 417.613928 
L 648 417.613928 
" clip-path="url(#p2713647471)" style="fill: none; stroke: #b0b0b0; stroke-width: 0.8; stroke-linecap: square"/>
     </g>
     <g id="line2d_20">
      <g>
       <use xlink:href="#mb8dafede01" x="90" y="417.613928" style="stroke: #000000; stroke-width: 0.8"/>
      </g>
     </g>
     <g id="text_11">
      <!-- −10.05 -->
      <g transform="translate(45.992188 421.413147) scale(0.1 -0.1)">
       <use xlink:href="#DejaVuSans-2212"/>
       <use xlink:href="#DejaVuSans-31" transform="translate(83.789062 0)"/>
       <use xlink:href="#DejaVuSans-30" transform="translate(147.412109 0)"/>
       <use xlink:href="#DejaVuSans-2e" transform="translate(211.035156 0)"/>
       <use xlink:href="#DejaVuSans-30" transform="translate(242.822266 0)"/>
       <use xlink:href="#DejaVuSans-35" transform="translate(306.445312 0)"/>
      </g>
     </g>
    </g>
    <g id="ytick_5">
     <g id="line2d_21">
      <path d="M 90 365.617594 
L 648 365.617594 
" clip-path="url(#p2713647471)" style="fill: none; stroke: #b0b0b0; stroke-width: 0.8; stroke-linecap: square"/>
     </g>
     <g id="line2d_22">
      <g>
       <use xlink:href="#mb8dafede01" x="90" y="365.617594" style="stroke: #000000; stroke-width: 0.8"/>
      </g>
     </g>
     <g id="text_12">
      <!-- −10.00 -->
      <g transform="translate(45.992188 369.416813) scale(0.1 -0.1)">
       <use xlink:href="#DejaVuSans-2212"/>
       <use xlink:href="#DejaVuSans-31" transform="translate(83.789062 0)"/>
       <use xlink:href="#DejaVuSans-30" transform="translate(147.412109 0)"/>
       <use xlink:href="#DejaVuSans-2e" transform="translate(211.035156 0)"/>
       <use xlink:href="#DejaVuSans-30" transform="translate(242.822266 0)"/>
       <use xlink:href="#DejaVuSans-30" transform="translate(306.445312 0)"/>
      </g>
     </g>
    </g>
    <g id="ytick_6">
     <g id="line2d_23">
      <path d="M 90 313.62126 
L 648 313.62126 
" clip-path="url(#p2713647471)" style="fill: none; stroke: #b0b0b0; stroke-width: 0.8; stroke-linecap: square"/>
     </g>
     <g id="line2d_24">
      <g>
       <use xlink:href="#mb8dafede01" x="90" y="313.62126" style="stroke: #000000; stroke-width: 0.8"/>
      </g>
     </g>
     <g id="text_13">
      <!-- −9.95 -->
      <g transform="translate(52.354687 317.420479) scale(0.1 -0.1)">
       <defs>
        <path id="DejaVuSans-39" d="M 703 97 
L 703 672 
Q 941 559 1184 500 
Q 1428 441 1663 441 
Q 2288 441 2617 861 
Q 2947 1281 2994 2138 
Q 2813 1869 2534 1725 
Q 2256 1581 1919 1581 
Q 1219 1581 811 2004 
Q 403 2428 403 3163 
Q 403 3881 828 4315 
Q 1253 4750 1959 4750 
Q 2769 4750 3195 4129 
Q 3622 3509 3622 2328 
Q 3622 1225 3098 567 
Q 2575 -91 1691 -91 
Q 1453 -91 1209 -44 
Q 966 3 703 97 
z
M 1959 2075 
Q 2384 2075 2632 2365 
Q 2881 2656 2881 3163 
Q 2881 3666 2632 3958 
Q 2384 4250 1959 4250 
Q 1534 4250 1286 3958 
Q 1038 3666 1038 3163 
Q 1038 2656 1286 2365 
Q 1534 2075 1959 2075 
z
" transform="scale(0.015625)"/>
       </defs>
       <use xlink:href="#DejaVuSans-2212"/>
       <use xlink:href="#DejaVuSans-39" transform="translate(83.789062 0)"/>
       <use xlink:href="#DejaVuSans-2e" transform="translate(147.412109 0)"/>
       <use xlink:href="#DejaVuSans-39" transform="translate(179.199219 0)"/>
       <use xlink:href="#DejaVuSans-35" transform="translate(242.822266 0)"/>
      </g>
     </g>
    </g>
    <g id="text_14">
     <!-- Latitude (°) -->
     <g transform="translate(39.9125 464.889531) rotate(-90) scale(0.1 -0.1)">
      <defs>
       <path id="DejaVuSans-61" d="M 2194 1759 
Q 1497 1759 1228 1600 
Q 959 1441 959 1056 
Q 959 750 1161 570 
Q 1363 391 1709 391 
Q 2188 391 2477 730 
Q 2766 1069 2766 1631 
L 2766 1759 
L 2194 1759 
z
M 3341 1997 
L 3341 0 
L 2766 0 
L 2766 531 
Q 2569 213 2275 61 
Q 1981 -91 1556 -91 
Q 1019 -91 701 211 
Q 384 513 384 1019 
Q 384 1609 779 1909 
Q 1175 2209 1959 2209 
L 2766 2209 
L 2766 2266 
Q 2766 2663 2505 2880 
Q 2244 3097 1772 3097 
Q 1472 3097 1187 3025 
Q 903 2953 641 2809 
L 641 3341 
Q 956 3463 1253 3523 
Q 1550 3584 1831 3584 
Q 2591 3584 2966 3190 
Q 3341 2797 3341 1997 
z
" transform="scale(0.015625)"/>
      </defs>
      <use xlink:href="#DejaVuSans-4c"/>
      <use xlink:href="#DejaVuSans-61" transform="translate(55.712891 0)"/>
      <use xlink:href="#DejaVuSans-74" transform="translate(116.992188 0)"/>
      <use xlink:href="#DejaVuSans-69" transform="translate(156.201172 0)"/>
      <use xlink:href="#DejaVuSans-74" transform="translate(183.984375 0)"/>
      <use xlink:href="#DejaVuSans-75" transform="translate(223.193359 0)"/>
      <use xlink:href="#DejaVuSans-64" transform="translate(286.572266 0)"/>
      <use xlink:href="#DejaVuSans-65" transform="translate(350.048828 0)"/>
      <use xlink:href="#DejaVuSans-20" transform="translate(411.572266 0)"/>
      <use xlink:href="#DejaVuSans-28" transform="translate(443.359375 0)"/>
      <use xlink:href="#DejaVuSans-b0" transform="translate(482.373047 0)"/>
      <use xlink:href="#DejaVuSans-29" transform="translate(532.373047 0)"/>
     </g>
    </g>
   </g>
   <g id="patch_3">
    <path d="M 90 591.263038 
L 90 281.376962 
" style="fill: none; stroke: #000000; stroke-width: 0.8; stroke-linejoin: miter; stroke-linecap: square"/>
   </g>
   <g id="patch_4">
    <path d="M 648 591.263038 
L 648 281.376962 
" style="fill: none; stroke: #000000; stroke-width: 0.8; stroke-linejoin: miter; stroke-linecap: square"/>
   </g>
   <g id="patch_5">
    <path d="M 90 591.263038 
L 648 591.263038 
" style="fill: none; stroke: #000000; stroke-width: 0.8; stroke-linejoin: miter; stroke-linecap: square"/>
   </g>
   <g id="patch_6">
    <path d="M 90 281.376962 
L 648 281.376962 
" style="fill: none; stroke: #000000; stroke-width: 0.8; stroke-linejoin: miter; stroke-linecap: square"/>
   </g>
   <g id="legend_1">
    <g id="patch_7">
     <path d="M 131.526563 690.596503 
L 606.473438 690.596503 
Q 608.473438 690.596503 608.473438 688.596503 
L 608.473438 660.240253 
Q 608.473438 658.240253 606.473438 658.240253 
L 131.526563 658.240253 
Q 129.526563 658.240253 129.526563 660.240253 
L 129.526563 688.596503 
Q 129.526563 690.596503 131.526563 690.596503 
z
" style="fill: #ffffff; opacity: 0.8; stroke: #cccccc; stroke-linejoin: miter"/>
    </g>
    <g id="line2d_25">
     <defs>
      <path id="m5a59602da1" d="M 0 5 
C 1.326016 5 2.597899 4.473168 3.535534 3.535534 
C 4.473168 2.597899 5 1.326016 5 0 
C 5 -1.326016 4.473168 -2.597899 3.535534 -3.535534 
C 2.597899 -4.473168 1.326016 -5 0 -5 
C -1.326016 -5 -2.597899 -4.473168 -3.535534 -3.535534 
C -4.473168 -2.597899 -5 -1.326016 -5 0 
C -5 1.326016 -4.473168 2.597899 -3.535534 3.535534 
C -2.597899 4.473168 -1.326016 5 0 5 
z
"/>
     </defs>
     <g>
      <use xlink:href="#m5a59602da1" x="143.526563" y="666.338691" style="fill: #b3e2cd; fill-opacity: 0.65"/>
     </g>
    </g>
    <g id="text_15">
     <!-- PA LAGOA NOVA -->
     <g transform="translate(161.526563 669.838691) scale(0.1 -0.1)">
      <defs>
       <path id="DejaVuSans-50" d="M 1259 4147 
L 1259 2394 
L 2053 2394 
Q 2494 2394 2734 2622 
Q 2975 2850 2975 3272 
Q 2975 3691 2734 3919 
Q 2494 4147 2053 4147 
L 1259 4147 
z
M 628 4666 
L 2053 4666 
Q 2838 4666 3239 4311 
Q 3641 3956 3641 3272 
Q 3641 2581 3239 2228 
Q 2838 1875 2053 1875 
L 1259 1875 
L 1259 0 
L 628 0 
L 628 4666 
z
" transform="scale(0.015625)"/>
       <path id="DejaVuSans-41" d="M 2188 4044 
L 1331 1722 
L 3047 1722 
L 2188 4044 
z
M 1831 4666 
L 2547 4666 
L 4325 0 
L 3669 0 
L 3244 1197 
L 1141 1197 
L 716 0 
L 50 0 
L 1831 4666 
z
" transform="scale(0.015625)"/>
       <path id="DejaVuSans-47" d="M 3809 666 
L 3809 1919 
L 2778 1919 
L 2778 2438 
L 4434 2438 
L 4434 434 
Q 4069 175 3628 42 
Q 3188 -91 2688 -91 
Q 1594 -91 976 548 
Q 359 1188 359 2328 
Q 359 3472 976 4111 
Q 1594 4750 2688 4750 
Q 3144 4750 3555 4637 
Q 3966 4525 4313 4306 
L 4313 3634 
Q 3963 3931 3569 4081 
Q 3175 4231 2741 4231 
Q 1884 4231 1454 3753 
Q 1025 3275 1025 2328 
Q 1025 1384 1454 906 
Q 1884 428 2741 428 
Q 3075 428 3337 486 
Q 3600 544 3809 666 
z
" transform="scale(0.015625)"/>
       <path id="DejaVuSans-4f" d="M 2522 4238 
Q 1834 4238 1429 3725 
Q 1025 3213 1025 2328 
Q 1025 1447 1429 934 
Q 1834 422 2522 422 
Q 3209 422 3611 934 
Q 4013 1447 4013 2328 
Q 4013 3213 3611 3725 
Q 3209 4238 2522 4238 
z
M 2522 4750 
Q 3503 4750 4090 4092 
Q 4678 3434 4678 2328 
Q 4678 1225 4090 567 
Q 3503 -91 2522 -91 
Q 1538 -91 948 565 
Q 359 1222 359 2328 
Q 359 3434 948 4092 
Q 1538 4750 2522 4750 
z
" transform="scale(0.015625)"/>
       <path id="DejaVuSans-4e" d="M 628 4666 
L 1478 4666 
L 3547 763 
L 3547 4666 
L 4159 4666 
L 4159 0 
L 3309 0 
L 1241 3903 
L 1241 0 
L 628 0 
L 628 4666 
z
" transform="scale(0.015625)"/>
       <path id="DejaVuSans-56" d="M 1831 0 
L 50 4666 
L 709 4666 
L 2188 738 
L 3669 4666 
L 4325 4666 
L 2547 0 
L 1831 0 
z
" transform="scale(0.015625)"/>
      </defs>
      <use xlink:href="#DejaVuSans-50"/>
      <use xlink:href="#DejaVuSans-41" transform="translate(53.927734 0)"/>
      <use xlink:href="#DejaVuSans-20" transform="translate(122.335938 0)"/>
      <use xlink:href="#DejaVuSans-4c" transform="translate(154.123047 0)"/>
      <use xlink:href="#DejaVuSans-41" transform="translate(212.085938 0)"/>
      <use xlink:href="#DejaVuSans-47" transform="translate(278.744141 0)"/>
      <use xlink:href="#DejaVuSans-4f" transform="translate(356.234375 0)"/>
      <use xlink:href="#DejaVuSans-41" transform="translate(433.195312 0)"/>
      <use xlink:href="#DejaVuSans-20" transform="translate(501.603516 0)"/>
      <use xlink:href="#DejaVuSans-4e" transform="translate(533.390625 0)"/>
      <use xlink:href="#DejaVuSans-4f" transform="translate(608.195312 0)"/>
      <use xlink:href="#DejaVuSans-56" transform="translate(685.15625 0)"/>
      <use xlink:href="#DejaVuSans-41" transform="translate(747.189453 0)"/>
     </g>
    </g>
    <g id="line2d_26">
     <defs>
      <path id="mb3b00879ff" d="M 0 5 
C 1.326016 5 2.597899 4.473168 3.535534 3.535534 
C 4.473168 2.597899 5 1.326016 5 0 
C 5 -1.326016 4.473168 -2.597899 3.535534 -3.535534 
C 2.597899 -4.473168 1.326016 -5 0 -5 
C -1.326016 -5 -2.597899 -4.473168 -3.535534 -3.535534 
C -4.473168 -2.597899 -5 -1.326016 -5 0 
C -5 1.326016 -4.473168 2.597899 -3.535534 3.535534 
C -2.597899 4.473168 -1.326016 5 0 5 
z
"/>
     </defs>
     <g>
      <use xlink:href="#mb3b00879ff" x="143.526563" y="681.016816" style="fill: #fdcdac; fill-opacity: 0.65"/>
     </g>
    </g>
    <g id="text_16">
     <!-- PA PRIMAVERA -->
     <g transform="translate(161.526563 684.516816) scale(0.1 -0.1)">
      <defs>
       <path id="DejaVuSans-52" d="M 2841 2188 
Q 3044 2119 3236 1894 
Q 3428 1669 3622 1275 
L 4263 0 
L 3584 0 
L 2988 1197 
Q 2756 1666 2539 1819 
Q 2322 1972 1947 1972 
L 1259 1972 
L 1259 0 
L 628 0 
L 628 4666 
L 2053 4666 
Q 2853 4666 3247 4331 
Q 3641 3997 3641 3322 
Q 3641 2881 3436 2590 
Q 3231 2300 2841 2188 
z
M 1259 4147 
L 1259 2491 
L 2053 2491 
Q 2509 2491 2742 2702 
Q 2975 2913 2975 3322 
Q 2975 3731 2742 3939 
Q 2509 4147 2053 4147 
L 1259 4147 
z
" transform="scale(0.015625)"/>
       <path id="DejaVuSans-49" d="M 628 4666 
L 1259 4666 
L 1259 0 
L 628 0 
L 628 4666 
z
" transform="scale(0.015625)"/>
       <path id="DejaVuSans-4d" d="M 628 4666 
L 1569 4666 
L 2759 1491 
L 3956 4666 
L 4897 4666 
L 4897 0 
L 4281 0 
L 4281 4097 
L 3078 897 
L 2444 897 
L 1241 4097 
L 1241 0 
L 628 0 
L 628 4666 
z
" transform="scale(0.015625)"/>
       <path id="DejaVuSans-45" d="M 628 4666 
L 3578 4666 
L 3578 4134 
L 1259 4134 
L 1259 2753 
L 3481 2753 
L 3481 2222 
L 1259 2222 
L 1259 531 
L 3634 531 
L 3634 0 
L 628 0 
L 628 4666 
z
" transform="scale(0.015625)"/>
      </defs>
      <use xlink:href="#DejaVuSans-50"/>
      <use xlink:href="#DejaVuSans-41" transform="translate(53.927734 0)"/>
      <use xlink:href="#DejaVuSans-20" transform="translate(122.335938 0)"/>
      <use xlink:href="#DejaVuSans-50" transform="translate(154.123047 0)"/>
      <use xlink:href="#DejaVuSans-52" transform="translate(214.425781 0)"/>
      <use xlink:href="#DejaVuSans-49" transform="translate(283.908203 0)"/>
      <use xlink:href="#DejaVuSans-4d" transform="translate(313.400391 0)"/>
      <use xlink:href="#DejaVuSans-41" transform="translate(399.679688 0)"/>
      <use xlink:href="#DejaVuSans-56" transform="translate(461.712891 0)"/>
      <use xlink:href="#DejaVuSans-45" transform="translate(530.121094 0)"/>
      <use xlink:href="#DejaVuSans-52" transform="translate(593.304688 0)"/>
      <use xlink:href="#DejaVuSans-41" transform="translate(658.787109 0)"/>
     </g>
    </g>
    <g id="line2d_27">
     <defs>
      <path id="m175e431013" d="M 0 5 
C 1.326016 5 2.597899 4.473168 3.535534 3.535534 
C 4.473168 2.597899 5 1.326016 5 0 
C 5 -1.326016 4.473168 -2.597899 3.535534 -3.535534 
C 2.597899 -4.473168 1.326016 -5 0 -5 
C -1.326016 -5 -2.597899 -4.473168 -3.535534 -3.535534 
C -4.473168 -2.597899 -5 -1.326016 -5 0 
C -5 1.326016 -4.473168 2.597899 -3.535534 3.535534 
C -2.597899 4.473168 -1.326016 5 0 5 
z
"/>
     </defs>
     <g>
      <use xlink:href="#m175e431013" x="273.085938" y="666.338691" style="fill: #f4cae4; fill-opacity: 0.65"/>
     </g>
    </g>
    <g id="text_17">
     <!-- PA RIO BRANCO -->
     <g transform="translate(291.085938 669.838691) scale(0.1 -0.1)">
      <defs>
       <path id="DejaVuSans-42" d="M 1259 2228 
L 1259 519 
L 2272 519 
Q 2781 519 3026 730 
Q 3272 941 3272 1375 
Q 3272 1813 3026 2020 
Q 2781 2228 2272 2228 
L 1259 2228 
z
M 1259 4147 
L 1259 2741 
L 2194 2741 
Q 2656 2741 2882 2914 
Q 3109 3088 3109 3444 
Q 3109 3797 2882 3972 
Q 2656 4147 2194 4147 
L 1259 4147 
z
M 628 4666 
L 2241 4666 
Q 2963 4666 3353 4366 
Q 3744 4066 3744 3513 
Q 3744 3084 3544 2831 
Q 3344 2578 2956 2516 
Q 3422 2416 3680 2098 
Q 3938 1781 3938 1306 
Q 3938 681 3513 340 
Q 3088 0 2303 0 
L 628 0 
L 628 4666 
z
" transform="scale(0.015625)"/>
       <path id="DejaVuSans-43" d="M 4122 4306 
L 4122 3641 
Q 3803 3938 3442 4084 
Q 3081 4231 2675 4231 
Q 1875 4231 1450 3742 
Q 1025 3253 1025 2328 
Q 1025 1406 1450 917 
Q 1875 428 2675 428 
Q 3081 428 3442 575 
Q 3803 722 4122 1019 
L 4122 359 
Q 3791 134 3420 21 
Q 3050 -91 2638 -91 
Q 1578 -91 968 557 
Q 359 1206 359 2328 
Q 359 3453 968 4101 
Q 1578 4750 2638 4750 
Q 3056 4750 3426 4639 
Q 3797 4528 4122 4306 
z
" transform="scale(0.015625)"/>
      </defs>
      <use xlink:href="#DejaVuSans-50"/>
      <use xlink:href="#DejaVuSans-41" transform="translate(53.927734 0)"/>
      <use xlink:href="#DejaVuSans-20" transform="translate(122.335938 0)"/>
      <use xlink:href="#DejaVuSans-52" transform="translate(154.123047 0)"/>
      <use xlink:href="#DejaVuSans-49" transform="translate(223.605469 0)"/>
      <use xlink:href="#DejaVuSans-4f" transform="translate(253.097656 0)"/>
      <use xlink:href="#DejaVuSans-20" transform="translate(331.808594 0)"/>
      <use xlink:href="#DejaVuSans-42" transform="translate(363.595703 0)"/>
      <use xlink:href="#DejaVuSans-52" transform="translate(432.199219 0)"/>
      <use xlink:href="#DejaVuSans-41" transform="translate(497.681641 0)"/>
      <use xlink:href="#DejaVuSans-4e" transform="translate(566.089844 0)"/>
      <use xlink:href="#DejaVuSans-43" transform="translate(640.894531 0)"/>
      <use xlink:href="#DejaVuSans-4f" transform="translate(710.71875 0)"/>
     </g>
    </g>
    <g id="line2d_28">
     <defs>
      <path id="m8450fdbcde" d="M 0 5 
C 1.326016 5 2.597899 4.473168 3.535534 3.535534 
C 4.473168 2.597899 5 1.326016 5 0 
C 5 -1.326016 4.473168 -2.597899 3.535534 -3.535534 
C 2.597899 -4.473168 1.326016 -5 0 -5 
C -1.326016 -5 -2.597899 -4.473168 -3.535534 -3.535534 
C -4.473168 -2.597899 -5 -1.326016 -5 0 
C -5 1.326016 -4.473168 2.597899 -3.535534 3.535534 
C -2.597899 4.473168 -1.326016 5 0 5 
z
"/>
     </defs>
     <g>
      <use xlink:href="#m8450fdbcde" x="273.085938" y="681.016816" style="fill: #e6f5c9; fill-opacity: 0.65"/>
     </g>
    </g>
    <g id="text_18">
     <!-- PA SANTA CATARINA -->
     <g transform="translate(291.085938 684.516816) scale(0.1 -0.1)">
      <defs>
       <path id="DejaVuSans-53" d="M 3425 4513 
L 3425 3897 
Q 3066 4069 2747 4153 
Q 2428 4238 2131 4238 
Q 1616 4238 1336 4038 
Q 1056 3838 1056 3469 
Q 1056 3159 1242 3001 
Q 1428 2844 1947 2747 
L 2328 2669 
Q 3034 2534 3370 2195 
Q 3706 1856 3706 1288 
Q 3706 609 3251 259 
Q 2797 -91 1919 -91 
Q 1588 -91 1214 -16 
Q 841 59 441 206 
L 441 856 
Q 825 641 1194 531 
Q 1563 422 1919 422 
Q 2459 422 2753 634 
Q 3047 847 3047 1241 
Q 3047 1584 2836 1778 
Q 2625 1972 2144 2069 
L 1759 2144 
Q 1053 2284 737 2584 
Q 422 2884 422 3419 
Q 422 4038 858 4394 
Q 1294 4750 2059 4750 
Q 2388 4750 2728 4690 
Q 3069 4631 3425 4513 
z
" transform="scale(0.015625)"/>
       <path id="DejaVuSans-54" d="M -19 4666 
L 3928 4666 
L 3928 4134 
L 2272 4134 
L 2272 0 
L 1638 0 
L 1638 4134 
L -19 4134 
L -19 4666 
z
" transform="scale(0.015625)"/>
      </defs>
      <use xlink:href="#DejaVuSans-50"/>
      <use xlink:href="#DejaVuSans-41" transform="translate(53.927734 0)"/>
      <use xlink:href="#DejaVuSans-20" transform="translate(122.335938 0)"/>
      <use xlink:href="#DejaVuSans-53" transform="translate(154.123047 0)"/>
      <use xlink:href="#DejaVuSans-41" transform="translate(219.474609 0)"/>
      <use xlink:href="#DejaVuSans-4e" transform="translate(287.882812 0)"/>
      <use xlink:href="#DejaVuSans-54" transform="translate(362.6875 0)"/>
      <use xlink:href="#DejaVuSans-41" transform="translate(416.021484 0)"/>
      <use xlink:href="#DejaVuSans-20" transform="translate(484.429688 0)"/>
      <use xlink:href="#DejaVuSans-43" transform="translate(516.216797 0)"/>
      <use xlink:href="#DejaVuSans-41" transform="translate(586.041016 0)"/>
      <use xlink:href="#DejaVuSans-54" transform="translate(646.699219 0)"/>
      <use xlink:href="#DejaVuSans-41" transform="translate(700.033203 0)"/>
      <use xlink:href="#DejaVuSans-52" transform="translate(768.441406 0)"/>
      <use xlink:href="#DejaVuSans-49" transform="translate(837.923828 0)"/>
      <use xlink:href="#DejaVuSans-4e" transform="translate(867.416016 0)"/>
      <use xlink:href="#DejaVuSans-41" transform="translate(942.220703 0)"/>
     </g>
    </g>
    <g id="line2d_29">
     <defs>
      <path id="md784096836" d="M 0 5 
C 1.326016 5 2.597899 4.473168 3.535534 3.535534 
C 4.473168 2.597899 5 1.326016 5 0 
C 5 -1.326016 4.473168 -2.597899 3.535534 -3.535534 
C 2.597899 -4.473168 1.326016 -5 0 -5 
C -1.326016 -5 -2.597899 -4.473168 -3.535534 -3.535534 
C -4.473168 -2.597899 -5 -1.326016 -5 0 
C -5 1.326016 -4.473168 2.597899 -3.535534 3.535534 
C -2.597899 4.473168 -1.326016 5 0 5 
z
"/>
     </defs>
     <g>
      <use xlink:href="#md784096836" x="422.148438" y="666.338691" style="fill: #f1e2cc; fill-opacity: 0.65"/>
     </g>
    </g>
    <g id="text_19">
     <!-- PA SANTA CATARINA EXPANSÃO I -->
     <g transform="translate(440.148438 669.838691) scale(0.1 -0.1)">
      <defs>
       <path id="DejaVuSans-58" d="M 403 4666 
L 1081 4666 
L 2241 2931 
L 3406 4666 
L 4084 4666 
L 2584 2425 
L 4184 0 
L 3506 0 
L 2194 1984 
L 872 0 
L 191 0 
L 1856 2491 
L 403 4666 
z
" transform="scale(0.015625)"/>
       <path id="DejaVuSans-c3" d="M 2188 4044 
L 1331 1722 
L 3047 1722 
L 2188 4044 
z
M 1831 4666 
L 2547 4666 
L 4325 0 
L 3669 0 
L 3244 1197 
L 1141 1197 
L 716 0 
L 50 0 
L 1831 4666 
z
M 2175 5344 
L 1997 5447 
Q 1919 5491 1870 5508 
Q 1822 5525 1784 5525 
Q 1672 5525 1609 5447 
Q 1547 5369 1547 5229 
L 1547 5210 
L 1156 5210 
Q 1156 5525 1317 5709 
Q 1478 5894 1747 5894 
Q 1859 5894 1954 5869 
Q 2050 5844 2200 5760 
L 2378 5666 
Q 2450 5625 2503 5606 
Q 2556 5588 2603 5588 
Q 2703 5588 2765 5667 
Q 2828 5747 2828 5875 
L 2828 5894 
L 3219 5894 
Q 3213 5582 3052 5396 
Q 2891 5210 2628 5210 
Q 2522 5210 2430 5235 
Q 2338 5260 2175 5344 
z
" transform="scale(0.015625)"/>
      </defs>
      <use xlink:href="#DejaVuSans-50"/>
      <use xlink:href="#DejaVuSans-41" transform="translate(53.927734 0)"/>
      <use xlink:href="#DejaVuSans-20" transform="translate(122.335938 0)"/>
      <use xlink:href="#DejaVuSans-53" transform="translate(154.123047 0)"/>
      <use xlink:href="#DejaVuSans-41" transform="translate(219.474609 0)"/>
      <use xlink:href="#DejaVuSans-4e" transform="translate(287.882812 0)"/>
      <use xlink:href="#DejaVuSans-54" transform="translate(362.6875 0)"/>
      <use xlink:href="#DejaVuSans-41" transform="translate(416.021484 0)"/>
      <use xlink:href="#DejaVuSans-20" transform="translate(484.429688 0)"/>
      <use xlink:href="#DejaVuSans-43" transform="translate(516.216797 0)"/>
      <use xlink:href="#DejaVuSans-41" transform="translate(586.041016 0)"/>
      <use xlink:href="#DejaVuSans-54" transform="translate(646.699219 0)"/>
      <use xlink:href="#DejaVuSans-41" transform="translate(700.033203 0)"/>
      <use xlink:href="#DejaVuSans-52" transform="translate(768.441406 0)"/>
      <use xlink:href="#DejaVuSans-49" transform="translate(837.923828 0)"/>
      <use xlink:href="#DejaVuSans-4e" transform="translate(867.416016 0)"/>
      <use xlink:href="#DejaVuSans-41" transform="translate(942.220703 0)"/>
      <use xlink:href="#DejaVuSans-20" transform="translate(1010.628906 0)"/>
      <use xlink:href="#DejaVuSans-45" transform="translate(1042.416016 0)"/>
      <use xlink:href="#DejaVuSans-58" transform="translate(1105.599609 0)"/>
      <use xlink:href="#DejaVuSans-50" transform="translate(1174.105469 0)"/>
      <use xlink:href="#DejaVuSans-41" transform="translate(1228.033203 0)"/>
      <use xlink:href="#DejaVuSans-4e" transform="translate(1296.441406 0)"/>
      <use xlink:href="#DejaVuSans-53" transform="translate(1371.246094 0)"/>
      <use xlink:href="#DejaVuSans-c3" transform="translate(1436.597656 0)"/>
      <use xlink:href="#DejaVuSans-4f" transform="translate(1503.255859 0)"/>
      <use xlink:href="#DejaVuSans-20" transform="translate(1581.966797 0)"/>
      <use xlink:href="#DejaVuSans-49" transform="translate(1613.753906 0)"/>
     </g>
    </g>
    <g id="line2d_30">
     <defs>
      <path id="m4832b1f2d5" d="M 0 5 
C 1.326016 5 2.597899 4.473168 3.535534 3.535534 
C 4.473168 2.597899 5 1.326016 5 0 
C 5 -1.326016 4.473168 -2.597899 3.535534 -3.535534 
C 2.597899 -4.473168 1.326016 -5 0 -5 
C -1.326016 -5 -2.597899 -4.473168 -3.535534 -3.535534 
C -4.473168 -2.597899 -5 -1.326016 -5 0 
C -5 1.326016 -4.473168 2.597899 -3.535534 3.535534 
C -2.597899 4.473168 -1.326016 5 0 5 
z
"/>
     </defs>
     <g>
      <use xlink:href="#m4832b1f2d5" x="422.148438" y="681.016816" style="fill: #cccccc; fill-opacity: 0.65"/>
     </g>
    </g>
    <g id="text_20">
     <!-- PA VALE ENCANTADO -->
     <g transform="translate(440.148438 684.516816) scale(0.1 -0.1)">
      <defs>
       <path id="DejaVuSans-44" d="M 1259 4147 
L 1259 519 
L 2022 519 
Q 2988 519 3436 956 
Q 3884 1394 3884 2338 
Q 3884 3275 3436 3711 
Q 2988 4147 2022 4147 
L 1259 4147 
z
M 628 4666 
L 1925 4666 
Q 3281 4666 3915 4102 
Q 4550 3538 4550 2338 
Q 4550 1131 3912 565 
Q 3275 0 1925 0 
L 628 0 
L 628 4666 
z
" transform="scale(0.015625)"/>
      </defs>
      <use xlink:href="#DejaVuSans-50"/>
      <use xlink:href="#DejaVuSans-41" transform="translate(53.927734 0)"/>
      <use xlink:href="#DejaVuSans-20" transform="translate(122.335938 0)"/>
      <use xlink:href="#DejaVuSans-56" transform="translate(154.123047 0)"/>
      <use xlink:href="#DejaVuSans-41" transform="translate(216.15625 0)"/>
      <use xlink:href="#DejaVuSans-4c" transform="translate(284.564453 0)"/>
      <use xlink:href="#DejaVuSans-45" transform="translate(340.277344 0)"/>
      <use xlink:href="#DejaVuSans-20" transform="translate(403.460938 0)"/>
      <use xlink:href="#DejaVuSans-45" transform="translate(435.248047 0)"/>
      <use xlink:href="#DejaVuSans-4e" transform="translate(498.431641 0)"/>
      <use xlink:href="#DejaVuSans-43" transform="translate(573.236328 0)"/>
      <use xlink:href="#DejaVuSans-41" transform="translate(643.060547 0)"/>
      <use xlink:href="#DejaVuSans-4e" transform="translate(711.46875 0)"/>
      <use xlink:href="#DejaVuSans-54" transform="translate(786.273438 0)"/>
      <use xlink:href="#DejaVuSans-41" transform="translate(839.607422 0)"/>
      <use xlink:href="#DejaVuSans-44" transform="translate(908.015625 0)"/>
      <use xlink:href="#DejaVuSans-4f" transform="translate(985.017578 0)"/>
     </g>
    </g>
   </g>
  </g>
 </g>
 <defs>
  <clipPath id="p2713647471">
   <rect x="90" y="281.376962" width="558" height="309.886076"/>
  </clipPath>
 </defs>
</svg>
