<?xml version="1.0" encoding="utf-8" standalone="no"?>
<!DOCTYPE svg PUBLIC "-//W3C//DTD SVG 1.1//EN"
  "http://www.w3.org/Graphics/SVG/1.1/DTD/svg11.dtd">
<svg xmlns:xlink="http://www.w3.org/1999/xlink" width="720pt" height="864pt" viewBox="0 0 720 864" xmlns="http://www.w3.org/2000/svg" version="1.1">
 <metadata>
  <rdf:RDF xmlns:dc="http://purl.org/dc/elements/1.1/" xmlns:cc="http://creativecommons.org/ns#" xmlns:rdf="http://www.w3.org/1999/02/22-rdf-syntax-ns#">
   <cc:Work>
    <dc:type rdf:resource="http://purl.org/dc/dcmitype/StillImage"/>
    <dc:date>2025-06-16T17:53:20.148591</dc:date>
    <dc:format>image/svg+xml</dc:format>
    <dc:creator>
     <cc:Agent>
      <dc:title>Matplotlib v3.10.1, https://matplotlib.org/</dc:title>
     </cc:Agent>
    </dc:creator>
   </cc:Work>
  </rdf:RDF>
 </metadata>
 <defs>
  <style type="text/css">*{stroke-linejoin: round; stroke-linecap: butt}</style>
 </defs>
 <g id="figure_1">
  <g id="patch_1">
   <path d="M 0 864 
L 720 864 
L 720 0 
L 0 0 
z
" style="fill: #ffffff"/>
  </g>
  <g id="axes_1">
   <g id="patch_2">
    <path d="M 90 751.087667 
L 648 751.087667 
L 648 121.552333 
L 90 121.552333 
z
" style="fill: #ffffff"/>
   </g>
   <g id="PatchCollection_1">
    <defs>
     <path id="ma9337dbaed" d="M 487.288649 -603.725331 
L 489.019068 -605.133074 
L 489.152092 -605.258658 
L 498.60113 -613.003342 
L 508.143788 -620.638542 
L 508.266517 -620.77481 
L 526.586572 -636.044307 
L 528.573275 -633.84895 
L 530.628237 -631.56012 
L 536.916221 -624.561457 
L 537.223019 -624.179339 
L 538.907662 -622.349414 
L 539.87846 -621.21838 
L 540.852448 -620.153179 
L 542.888899 -617.862165 
L 544.989079 -615.626191 
L 546.976236 -613.284626 
L 548.144871 -612.022044 
L 550.076896 -609.885339 
L 559.241335 -599.625449 
L 561.192481 -597.330072 
L 563.13542 -595.129072 
L 565.200093 -592.825707 
L 566.475114 -591.460146 
L 566.99826 -590.901618 
L 570.900577 -586.306607 
L 563.908047 -575.993246 
L 556.709224 -566.070738 
L 556.600591 -565.920999 
L 562.826306 -563.683415 
L 565.509077 -562.686544 
L 565.663333 -562.586519 
L 571.386437 -560.525097 
L 574.263656 -559.45524 
L 576.994743 -558.431506 
L 579.891613 -557.360047 
L 582.806319 -556.290218 
L 584.495461 -555.630058 
L 586.193569 -554.948364 
L 581.166623 -543.166931 
L 582.90901 -542.557504 
L 586.39348 -541.376272 
L 589.242303 -540.381923 
L 592.181123 -539.36768 
L 587.716116 -527.839398 
L 590.393716 -527.203564 
L 593.678009 -526.117553 
L 596.572501 -525.033942 
L 599.498271 -524.009533 
L 600.932503 -523.474132 
L 602.382902 -522.963006 
L 605.291737 -521.90181 
L 608.201752 -520.84715 
L 611.239132 -519.770599 
L 609.566778 -515.659675 
L 608.859005 -513.716672 
L 608.678372 -513.218784 
L 608.624254 -513.090844 
L 604.338067 -502.507514 
L 602.240326 -497.081691 
L 602.201929 -496.901568 
L 602.377169 -496.841674 
L 605.31794 -495.791398 
L 611.040031 -493.632121 
L 619.708694 -490.588295 
L 622.636364 -489.536706 
L 619.92913 -480.416966 
L 617.154577 -480.126821 
L 610.716046 -479.82904 
L 607.609408 -479.623553 
L 604.576965 -479.55259 
L 601.548578 -479.2744 
L 599.759437 -479.194233 
L 595.960797 -479.015188 
L 595.043618 -478.868743 
L 593.295984 -478.822848 
L 588.94552 -478.636871 
L 586.000846 -478.45781 
L 582.905554 -478.33777 
L 581.728084 -478.24504 
L 581.122633 -478.213348 
L 580.277259 -478.175971 
L 579.869593 -478.144309 
L 579.065616 -478.140283 
L 578.237517 -478.097824 
L 577.654696 -478.111063 
L 577.549633 -478.135727 
L 577.365725 -478.11256 
L 573.749991 -478.045044 
L 572.975861 -477.965031 
L 570.613407 -477.91484 
L 567.526802 -477.825402 
L 564.73393 -477.746558 
L 561.578729 -477.607554 
L 559.507894 -477.575942 
L 557.925047 -477.655933 
L 550.076943 -477.163972 
L 548.531127 -477.165689 
L 542.441601 -476.77252 
L 542.257587 -476.737332 
L 539.449129 -476.569069 
L 536.239858 -476.460816 
L 533.073347 -476.292879 
L 530.542678 -476.085704 
L 529.022499 -475.831141 
L 527.116975 -475.918868 
L 523.72866 -475.884981 
L 520.695305 -475.761453 
L 517.721363 -475.698842 
L 514.820269 -475.242794 
L 508.383179 -474.392676 
L 508.200506 -474.390278 
L 502.369886 -473.475288 
L 498.045328 -472.750358 
L 495.672428 -472.207895 
L 495.765145 -472.04769 
L 496.586101 -470.629188 
L 497.330075 -469.275498 
L 498.092149 -467.941808 
L 498.858046 -466.606461 
L 499.62095 -465.267589 
L 500.388213 -463.935404 
L 501.211471 -462.633799 
L 502.685067 -459.918774 
L 503.475319 -458.573669 
L 504.225884 -457.228305 
L 505.352602 -455.311192 
L 507.287369 -451.877408 
L 508.059227 -450.54329 
L 509.591763 -447.857615 
L 510.351349 -446.530158 
L 511.882373 -443.864032 
L 513.430671 -441.154444 
L 513.909006 -440.457702 
L 514.154602 -439.889789 
L 511.27855 -432.74237 
L 511.517315 -432.399095 
L 510.742524 -430.482023 
L 508.629697 -425.223875 
L 508.560644 -425.052049 
L 509.486229 -422.894536 
L 509.976752 -422.29991 
L 510.264212 -421.577692 
L 511.059558 -420.312863 
L 511.864786 -418.779769 
L 509.763746 -413.145129 
L 509.939778 -412.739308 
L 507.227889 -398.836435 
L 508.243847 -395.73123 
L 508.234922 -395.542118 
L 508.219275 -395.548337 
L 507.590012 -395.798506 
L 507.718396 -396.157218 
L 507.582534 -396.478325 
L 507.113607 -396.843766 
L 506.836632 -397.564585 
L 506.749272 -398.231886 
L 506.52667 -398.905101 
L 505.745708 -399.06425 
L 505.637003 -399.173736 
L 504.813063 -400.003801 
L 504.347809 -400.38409 
L 504.096251 -401.001752 
L 504.223159 -401.26763 
L 504.560823 -401.478423 
L 504.505215 -401.626642 
L 503.797834 -401.884829 
L 503.582039 -402.224324 
L 503.581369 -402.57042 
L 503.470178 -402.854497 
L 503.574313 -403.040111 
L 502.792175 -403.817302 
L 502.669659 -403.600751 
L 502.719334 -403.341275 
L 502.600425 -403.134435 
L 502.209788 -403.012724 
L 501.859044 -403.20981 
L 501.619417 -403.159901 
L 501.220834 -403.397933 
L 501.132352 -403.925313 
L 500.966058 -404.098039 
L 500.537024 -403.454452 
L 500.058125 -403.169228 
L 499.499614 -402.729343 
L 499.377543 -402.277943 
L 499.08668 -402.212178 
L 498.081132 -401.984962 
L 497.282123 -401.94634 
L 496.956063 -402.094041 
L 496.771048 -402.415062 
L 496.592887 -402.365277 
L 496.272915 -402.543892 
L 496.204643 -402.889859 
L 496.130413 -403.13693 
L 495.99481 -403.33444 
L 495.785774 -403.35876 
L 495.189015 -403.635732 
L 495.004134 -403.888772 
L 494.892534 -404.395345 
L 494.916688 -404.624064 
L 494.775361 -404.599072 
L 494.393846 -404.820835 
L 493.907457 -405.277251 
L 493.754524 -404.887599 
L 493.471963 -404.788175 
L 492.690951 -404.990639 
L 492.525281 -404.835816 
L 492.769733 -404.379616 
L 492.551181 -404.137487 
L 492.139328 -404.149065 
L 491.562027 -404.083385 
L 491.174179 -404.209038 
L 490.903307 -404.431018 
L 490.939424 -404.838988 
L 490.558537 -404.727022 
L 490.246843 -404.757149 
L 489.414918 -404.904092 
L 488.898562 -404.921661 
L 488.481555 -405.061726 
L 488.166647 -405.167498 
L 486.463684 -405.343536 
L 486.213984 -405.421436 
L 485.87326 -405.527843 
L 485.276976 -405.557633 
L 484.385003 -405.939154 
L 484.077738 -405.9015 
L 483.623792 -405.40623 
L 483.409338 -405.035011 
L 483.367014 -404.651751 
L 483.072652 -404.280384 
L 482.993164 -404.051564 
L 482.292901 -403.796873 
L 481.820144 -403.499343 
L 481.397485 -402.695117 
L 481.177634 -401.909807 
L 481.117654 -401.09389 
L 480.669533 -400.765506 
L 480.608447 -400.555261 
L 479.664511 -399.824738 
L 479.506737 -399.714129 
L 478.993264 -399.761208 
L 478.440987 -399.241047 
L 478.090391 -399.364012 
L 477.935791 -399.876699 
L 476.596989 -399.200597 
L 475.698833 -399.594506 
L 475.231261 -399.82233 
L 475.095431 -400.155823 
L 475.16237 -400.532946 
L 474.787693 -401.095792 
L 474.369349 -400.574771 
L 473.920961 -400.38855 
L 473.262961 -400.54805 
L 472.397989 -400.60848 
L 471.219265 -400.5398 
L 470.522091 -400.190843 
L 470.805635 -399.746364 
L 471.025036 -399.459062 
L 470.788268 -399.140658 
L 470.641433 -398.751032 
L 470.605669 -398.12057 
L 470.765752 -397.972529 
L 470.94833 -397.410258 
L 470.977983 -396.149703 
L 470.95195 -395.786003 
L 470.792304 -395.374661 
L 470.697019 -395.135619 
L 470.315937 -395.116396 
L 469.952836 -395.35678 
L 469.823213 -395.659386 
L 469.601593 -395.8444 
L 469.245449 -395.662803 
L 468.981303 -395.528094 
L 468.760588 -395.200141 
L 468.085135 -394.791034 
L 467.993386 -394.531295 
L 467.760527 -394.116797 
L 467.779403 -393.869616 
L 467.952065 -393.560905 
L 467.835868 -393.220778 
L 467.369179 -392.941832 
L 466.965736 -392.701379 
L 466.939697 -392.477542 
L 466.583403 -392.340942 
L 465.777699 -392.58673 
L 465.691186 -392.846153 
L 465.89351 -393.149348 
L 465.359124 -392.91355 
L 464.57208 -393.035769 
L 464.22133 -393.245283 
L 463.966838 -393.175924 
L 463.919284 -393.726821 
L 463.450432 -394.690134 
L 463.09238 -395.567118 
L 462.813219 -395.794005 
L 462.389737 -396.653633 
L 462.169526 -396.02903 
L 461.672078 -395.762404 
L 461.57982 -395.757175 
L 461.112753 -395.730525 
L 460.139272 -394.895035 
L 459.909543 -394.795194 
L 459.57118 -394.955295 
L 459.358198 -394.839785 
L 458.567407 -394.464502 
L 457.994642 -394.273711 
L 457.534174 -393.62002 
L 456.335662 -392.724395 
L 455.54315 -392.34022 
L 455.220931 -392.44084 
L 455.051118 -392.493886 
L 454.398006 -393.388922 
L 453.836856 -394.432448 
L 453.755326 -395.390268 
L 453.723297 -396.156581 
L 452.500263 -397.594033 
L 451.846062 -397.581055 
L 451.249528 -398.112237 
L 451.204882 -398.710979 
L 450.663083 -399.229215 
L 449.70097 -399.668067 
L 448.354654 -400.307389 
L 447.613563 -400.393351 
L 447.323227 -400.478216 
L 446.860134 -400.394933 
L 446.463092 -400.217202 
L 445.952104 -400.69842 
L 446.001891 -400.32768 
L 445.676961 -399.807985 
L 445.375935 -399.702417 
L 445.030977 -400.146832 
L 444.785304 -400.022816 
L 444.54736 -398.93467 
L 444.781523 -398.582777 
L 445.096654 -397.588256 
L 445.355122 -397.409455 
L 446.426361 -396.403837 
L 447.190157 -395.459514 
L 447.585012 -394.58874 
L 447.677428 -394.165723 
L 446.79339 -393.771603 
L 445.910158 -392.998691 
L 444.902221 -392.470566 
L 444.712391 -392.025262 
L 444.738047 -391.376363 
L 444.363253 -391.264493 
L 443.852713 -391.461419 
L 443.361364 -391.201028 
L 443.201953 -390.947368 
L 442.266083 -390.40196 
L 442.946452 -389.86775 
L 444.079305 -388.978272 
L 444.008036 -388.879347 
L 441.993627 -386.50956 
L 439.749073 -383.859202 
L 435.558339 -378.919839 
L 435.565295 -378.645453 
L 433.960494 -376.776653 
L 432.297334 -374.830455 
L 428.408741 -370.243859 
L 428.302938 -370.085918 
L 424.267011 -365.311743 
L 420.313699 -360.616073 
L 420.19137 -360.474909 
L 412.309887 -351.0908 
L 404.375542 -341.784146 
L 404.254318 -341.645292 
L 396.755328 -332.850687 
L 389.032044 -323.807278 
L 388.916667 -323.66671 
L 380.088795 -313.306733 
L 381.68929 -311.906173 
L 383.468486 -310.366805 
L 384.058367 -309.866133 
L 384.64821 -309.368813 
L 385.230308 -308.866157 
L 385.81122 -308.36944 
L 386.390604 -307.868403 
L 386.986818 -307.361587 
L 387.570058 -306.864218 
L 388.154063 -306.385714 
L 389.417362 -305.369687 
L 390.496305 -304.517727 
L 391.680536 -303.579162 
L 392.890132 -302.686827 
L 394.323324 -301.679176 
L 396.122222 -300.531172 
L 397.427886 -299.757142 
L 398.741539 -298.977756 
L 400.776625 -301.504567 
L 402.414387 -303.501513 
L 406.340513 -308.360558 
L 407.446925 -307.345443 
L 407.965138 -306.880801 
L 408.103533 -306.75719 
L 408.367125 -306.517439 
L 408.588721 -306.31522 
L 409.235769 -305.729071 
L 409.805489 -305.215168 
L 410.170727 -304.891278 
L 410.382398 -304.690623 
L 411.37891 -303.835666 
L 412.060547 -303.267385 
L 412.550709 -302.862293 
L 413.540905 -302.043871 
L 414.335597 -301.394363 
L 414.746581 -301.058605 
L 415.819631 -300.186639 
L 416.245612 -299.844134 
L 417.104529 -299.149502 
L 417.736267 -298.636801 
L 419.217991 -297.402353 
L 420.691467 -296.188021 
L 422.9222 -294.208964 
L 423.115308 -294.001069 
L 422.716761 -292.85822 
L 422.737235 -290.379241 
L 434.646909 -290.46427 
L 434.631291 -294.154604 
L 434.633879 -297.194777 
L 434.772811 -300.514661 
L 434.672309 -302.045921 
L 434.575464 -303.568311 
L 434.528544 -305.243803 
L 434.531963 -306.899767 
L 434.528227 -308.359048 
L 434.539269 -309.971261 
L 434.545859 -310.682681 
L 434.544539 -310.925925 
L 434.54869 -311.44908 
L 434.556091 -312.233083 
L 434.560464 -313.019708 
L 434.583437 -313.825967 
L 434.572287 -314.60172 
L 434.572158 -315.373313 
L 434.560212 -316.143113 
L 434.557664 -316.915697 
L 434.563637 -317.693895 
L 434.558239 -318.47268 
L 434.556836 -319.233536 
L 434.549619 -319.999969 
L 434.59071 -320.779053 
L 434.565203 -321.554678 
L 434.60554 -322.316671 
L 434.447723 -323.254087 
L 434.578041 -323.860654 
L 434.580327 -325.428765 
L 434.576668 -326.174662 
L 434.606042 -326.974319 
L 434.578811 -327.76391 
L 434.800954 -328.499048 
L 447.121095 -328.48288 
L 459.088107 -328.469387 
L 459.582863 -328.661627 
L 459.853782 -328.667788 
L 470.273469 -328.664934 
L 471.854077 -328.658975 
L 478.037637 -328.61729 
L 481.465985 -328.631068 
L 484.200679 -328.638177 
L 484.386367 -328.629106 
L 490.449163 -328.613673 
L 496.49022 -328.615133 
L 496.36222 -329.240348 
L 496.21293 -330.002255 
L 495.804471 -331.494535 
L 495.496161 -332.986385 
L 495.330902 -333.745617 
L 495.156773 -334.507002 
L 494.843366 -335.997441 
L 494.513465 -337.527701 
L 494.171976 -339.037389 
L 493.942928 -340.546399 
L 493.557309 -342.033218 
L 493.392405 -342.798603 
L 493.226999 -343.556948 
L 492.90739 -345.089692 
L 492.581819 -346.568576 
L 492.25835 -348.108935 
L 491.935016 -349.555441 
L 491.936187 -349.683765 
L 491.618376 -351.122137 
L 491.293911 -352.648523 
L 491.004649 -354.06836 
L 490.656896 -355.606292 
L 490.008135 -358.667934 
L 489.86264 -359.322555 
L 489.698003 -360.054109 
L 489.573032 -360.744775 
L 489.416979 -361.431656 
L 489.12279 -362.861452 
L 489.205013 -364.170852 
L 494.845707 -364.320411 
L 500.870593 -364.505984 
L 501.067742 -364.40924 
L 508.112237 -364.638047 
L 508.112083 -364.647633 
L 513.178558 -364.809056 
L 513.788097 -361.652097 
L 514.174623 -360.360581 
L 514.433164 -359.277761 
L 514.533225 -358.739661 
L 514.649559 -358.580322 
L 514.910022 -357.430575 
L 514.978685 -357.129982 
L 515.144294 -356.374407 
L 515.31432 -355.624775 
L 515.651932 -354.118028 
L 516.320213 -351.109963 
L 516.653425 -349.598142 
L 516.994677 -348.096475 
L 517.322544 -346.588168 
L 517.662088 -345.084708 
L 517.995606 -343.584696 
L 518.329869 -342.083946 
L 519.198354 -337.636059 
L 520.008011 -334.529669 
L 518.524237 -334.528415 
L 517.930389 -334.524788 
L 514.982936 -334.527122 
L 507.732526 -334.522414 
L 507.548427 -334.52353 
L 507.868126 -333.01927 
L 508.022179 -332.261134 
L 508.210647 -331.513326 
L 508.813867 -328.653313 
L 508.837042 -328.470979 
L 508.864701 -323.855052 
L 508.862903 -323.056248 
L 508.869524 -322.260058 
L 508.884946 -320.716752 
L 508.904317 -300.843416 
L 508.909229 -300.661788 
L 508.893167 -280.598315 
L 508.93972 -260.55565 
L 509.389114 -254.265764 
L 509.432258 -249.590696 
L 509.450869 -244.607064 
L 509.639644 -241.645576 
L 509.476603 -241.808774 
L 508.605975 -243.114932 
L 507.520847 -243.221699 
L 507.739294 -242.5137 
L 506.438651 -241.857027 
L 506.111753 -242.564871 
L 504.429476 -242.888433 
L 503.221937 -243.053382 
L 506.95047 -240.071911 
L 509.270981 -238.085023 
L 510.435907 -237.072163 
L 511.606675 -236.066121 
L 503.758846 -226.534714 
L 503.631428 -226.382302 
L 504.797117 -225.379858 
L 505.99968 -224.402772 
L 507.132169 -223.369808 
L 508.341554 -222.408697 
L 511.803279 -219.350049 
L 503.750925 -209.819877 
L 506.060309 -207.845928 
L 507.231104 -206.845741 
L 509.565453 -204.853039 
L 511.91176 -202.843211 
L 503.86326 -193.314385 
L 503.744542 -193.170704 
L 504.914269 -192.160123 
L 506.091899 -191.172742 
L 510.791179 -187.150716 
L 513.134822 -185.143879 
L 505.051211 -175.626905 
L 508.641435 -172.726786 
L 509.932583 -171.668225 
L 501.359953 -162.826248 
L 501.230978 -162.693239 
L 509.109038 -155.919895 
L 508.875361 -150.939686 
L 508.871154 -150.465102 
L 508.827413 -144.088073 
L 507.283877 -144.132321 
L 504.196562 -144.096015 
L 502.787517 -144.043728 
L 502.364832 -144.09034 
L 501.946571 -144.110634 
L 500.929313 -144.103152 
L 500.215724 -144.225696 
L 499.665895 -144.048399 
L 499.34307 -144.112213 
L 497.838957 -144.108164 
L 496.299069 -144.111409 
L 494.761596 -144.107132 
L 493.220649 -144.117013 
L 491.67651 -144.12177 
L 490.129431 -144.118624 
L 488.590767 -144.124591 
L 487.048014 -144.111836 
L 485.502075 -144.123685 
L 481.646263 -144.142317 
L 480.884777 -144.144946 
L 479.364711 -144.144039 
L 477.868038 -144.206041 
L 477.681283 -144.214773 
L 476.074382 -144.20761 
L 474.525056 -143.886737 
L 473.752586 -144.170203 
L 472.98131 -144.174699 
L 469.901521 -144.180056 
L 466.815318 -144.191012 
L 465.265073 -144.198938 
L 463.723729 -144.185013 
L 462.179608 -144.208796 
L 459.095129 -144.252079 
L 457.551913 -144.251674 
L 456.01137 -144.235588 
L 454.466663 -144.241941 
L 451.20353 -144.163965 
L 448.391331 -144.176253 
L 448.108679 -144.151104 
L 444.488924 -143.817813 
L 442.935583 -143.283966 
L 437.595404 -142.890032 
L 437.414103 -142.875019 
L 433.784565 -142.247422 
L 427.68922 -141.63169 
L 422.412192 -141.527576 
L 115.363636 -143.029059 
L 115.687719 -475.413054 
L 119.756033 -475.321007 
L 122.127513 -475.270329 
L 125.11847 -474.914568 
L 127.691614 -474.116291 
L 130.061251 -473.423721 
L 132.561359 -472.755975 
L 134.807649 -471.950654 
L 136.760884 -471.331983 
L 137.659494 -470.477543 
L 139.358824 -469.47573 
L 140.862899 -469.308976 
L 141.956735 -468.670594 
L 143.138615 -467.295558 
L 144.672043 -466.549215 
L 145.55108 -466.274244 
L 146.781663 -465.724417 
L 148.012288 -465.331709 
L 148.836176 -464.907605 
L 150.032558 -464.291226 
L 151.147325 -465.155353 
L 152.4853 -465.194906 
L 153.891734 -464.900477 
L 154.594925 -464.5765 
L 155.767018 -463.83011 
L 156.470339 -463.50614 
L 157.407901 -463.260777 
L 158.797767 -463.234559 
L 159.676864 -463.118246 
L 161.486761 -461.992973 
L 160.455522 -460.91372 
L 159.908838 -460.078654 
L 159.615899 -459.764241 
L 159.069053 -459.36139 
L 158.307309 -458.928951 
L 157.31124 -458.496588 
L 156.920659 -458.11343 
L 156.715615 -457.681113 
L 156.709151 -455.931185 
L 155.995551 -454.978663 
L 155.567414 -454.581161 
L 153.840444 -451.842549 
L 158.901612 -451.559214 
L 159.804035 -449.555463 
L 161.265156 -450.911764 
L 161.411395 -451.024224 
L 171.003326 -458.694987 
L 181.070112 -466.317416 
L 181.225736 -466.415431 
L 183.90201 -468.531965 
L 184.179133 -468.766677 
L 184.731475 -469.229489 
L 190.489765 -473.590901 
L 195.971501 -477.892539 
L 200.126765 -481.127103 
L 200.259444 -481.237546 
L 210.240197 -488.850215 
L 212.778195 -490.799448 
L 220.161397 -496.46625 
L 220.310765 -496.578631 
L 230.205923 -504.144711 
L 239.514905 -511.109533 
L 239.603682 -511.309903 
L 244.529994 -515.135367 
L 249.387008 -518.865475 
L 259.197013 -526.320357 
L 269.383856 -533.927917 
L 279.284185 -541.443225 
L 279.432135 -541.557254 
L 289.070339 -548.873741 
L 299.796901 -556.923021 
L 299.937047 -557.015179 
L 305.945311 -561.658887 
L 309.634382 -564.418835 
L 309.803517 -564.179127 
L 310.019603 -563.976609 
L 310.141383 -563.866711 
L 311.151636 -562.964817 
L 312.21995 -561.798207 
L 313.270977 -560.672378 
L 314.328468 -559.543347 
L 315.37583 -558.421111 
L 315.900923 -557.864385 
L 316.421731 -557.29616 
L 317.498305 -556.160738 
L 318.517792 -555.06136 
L 319.57086 -553.929759 
L 321.662779 -551.667548 
L 322.731474 -550.545745 
L 323.780399 -549.425783 
L 325.879521 -547.178892 
L 334.135202 -538.34661 
L 338.274216 -533.929165 
L 339.322943 -532.810402 
L 339.825749 -532.251061 
L 340.364303 -531.698127 
L 340.41369 -531.64509 
L 341.064392 -530.949635 
L 342.472824 -529.447478 
L 343.52221 -528.330285 
L 344.567066 -527.208209 
L 345.618877 -526.084788 
L 346.698402 -524.911033 
L 347.674789 -523.848725 
L 350.842111 -520.518905 
L 351.332839 -519.991101 
L 351.828237 -519.465715 
L 352.945207 -518.272572 
L 353.468795 -517.7081 
L 355.050377 -516.026388 
L 356.835474 -514.12472 
L 357.153386 -513.777383 
L 359.250339 -511.544279 
L 361.353863 -509.301627 
L 362.425665 -508.160278 
L 363.406134 -507.108688 
L 365.61642 -504.75509 
L 365.732718 -504.60925 
L 368.070323 -506.339332 
L 371.203741 -509.148772 
L 372.751909 -510.347488 
L 375.285559 -512.457882 
L 377.699057 -514.372474 
L 379.98044 -516.228575 
L 380.118017 -516.350699 
L 382.186145 -517.997765 
L 383.671485 -519.221818 
L 384.841078 -520.183776 
L 387.1488 -522.044811 
L 389.550796 -523.983689 
L 392.178307 -526.115552 
L 396.749735 -529.857463 
L 397.954232 -530.810394 
L 399.152671 -531.782978 
L 401.536192 -533.721534 
L 402.126958 -534.20155 
L 402.721879 -534.695604 
L 403.893387 -535.653281 
L 404.423054 -536.066343 
L 405.08019 -536.60357 
L 405.129094 -536.641713 
L 405.401116 -536.888769 
L 405.709353 -537.111773 
L 406.101242 -537.429831 
L 406.311699 -537.599048 
L 407.017034 -538.187403 
L 407.541759 -538.610972 
L 408.248494 -539.203782 
L 408.392612 -539.325562 
L 411.116965 -541.541795 
L 411.51756 -541.859752 
L 411.893729 -542.16142 
L 415.167153 -544.837663 
L 416.595833 -546.018662 
L 417.026681 -546.386304 
L 418.141428 -547.297313 
L 418.284679 -547.415637 
L 420.585737 -549.336113 
L 425.428702 -553.288078 
L 427.68678 -555.1098 
L 429.003518 -556.055912 
L 432.471845 -558.949536 
L 434.949354 -560.982805 
L 437.198291 -562.924144 
L 439.586008 -564.738843 
L 442.012486 -566.63954 
L 443.957897 -568.15277 
L 445.51579 -569.478178 
L 446.715866 -570.523159 
L 449.027794 -572.49606 
L 451.422201 -574.405279 
L 452.691164 -575.502756 
L 453.95 -576.476181 
L 456.304133 -578.394843 
L 457.458136 -579.383007 
L 458.611668 -580.315058 
L 459.656424 -581.137289 
L 460.850899 -582.106442 
L 470.16184 -589.874438 
L 470.317702 -589.981261 
L 475.362975 -594.148674 
L 475.950914 -594.675861 
L 476.407094 -595.080441 
L 476.633863 -595.265702 
L 478.784513 -596.785977 
L 479.501926 -597.359696 
L 479.975894 -597.734279 
L 480.3385 -598.054213 
L 481.023541 -598.628064 
L 482.120083 -599.509087 
L 482.813878 -600.093405 
L 483.206763 -600.405611 
L 484.260541 -601.255171 
L 487.288649 -603.725331 
" style="stroke: #0000ff; stroke-width: 0.5"/>
    </defs>
    <g clip-path="url(#pb89c51088f)">
     <use xlink:href="#ma9337dbaed" x="0" y="864" style="fill: #e0bd1f; stroke: #0000ff; stroke-width: 0.5"/>
    </g>
   </g>
   <g id="PatchCollection_2">
    <path d="M 470.924823 150.167576 
L 523.039251 230.634965 
L 522.336482 231.217371 
L 522.099866 231.540844 
L 520.63262 232.751793 
L 488.418241 259.041961 
L 467.430573 276.251847 
L 467.020176 276.542292 
L 449.092866 291.273907 
L 448.006738 292.138407 
L 442.394691 296.769002 
L 438.184067 300.102664 
L 427.71214 308.621417 
L 425.312597 310.552019 
L 396.707514 333.935089 
L 395.534311 334.745484 
L 394.206719 335.586824 
L 392.633939 337.236091 
L 366.375624 358.468731 
L 365.616363 359.244956 
L 318.517875 308.93863 
L 311.151615 301.035121 
L 309.634402 299.581189 
L 321.295562 290.476797 
L 470.924823 150.167576 
L 470.924823 150.167576 
" clip-path="url(#pb89c51088f)" style="fill: none; stroke: #000000"/>
   </g>
   <g id="matplotlib.axis_1">
    <g id="xtick_1">
     <g id="line2d_1">
      <path d="M 115.475687 751.087667 
L 115.475687 121.552333 
" clip-path="url(#pb89c51088f)" style="fill: none; stroke: #b0b0b0; stroke-width: 0.8; stroke-linecap: square"/>
     </g>
     <g id="line2d_2">
      <defs>
       <path id="m387b8973fa" d="M 0 0 
L 0 3.5 
" style="stroke: #000000; stroke-width: 0.8"/>
      </defs>
      <g>
       <use xlink:href="#m387b8973fa" x="115.475687" y="751.087667" style="stroke: #000000; stroke-width: 0.8"/>
      </g>
     </g>
     <g id="text_1">
      <!-- −63.0 -->
      <g transform="translate(106.592105 785.130081) rotate(-45) scale(0.1 -0.1)">
       <defs>
        <path id="DejaVuSans-2212" d="M 678 2272 
L 4684 2272 
L 4684 1741 
L 678 1741 
L 678 2272 
z
" transform="scale(0.015625)"/>
        <path id="DejaVuSans-36" d="M 2113 2584 
Q 1688 2584 1439 2293 
Q 1191 2003 1191 1497 
Q 1191 994 1439 701 
Q 1688 409 2113 409 
Q 2538 409 2786 701 
Q 3034 994 3034 1497 
Q 3034 2003 2786 2293 
Q 2538 2584 2113 2584 
z
M 3366 4563 
L 3366 3988 
Q 3128 4100 2886 4159 
Q 2644 4219 2406 4219 
Q 1781 4219 1451 3797 
Q 1122 3375 1075 2522 
Q 1259 2794 1537 2939 
Q 1816 3084 2150 3084 
Q 2853 3084 3261 2657 
Q 3669 2231 3669 1497 
Q 3669 778 3244 343 
Q 2819 -91 2113 -91 
Q 1303 -91 875 529 
Q 447 1150 447 2328 
Q 447 3434 972 4092 
Q 1497 4750 2381 4750 
Q 2619 4750 2861 4703 
Q 3103 4656 3366 4563 
z
" transform="scale(0.015625)"/>
        <path id="DejaVuSans-33" d="M 2597 2516 
Q 3050 2419 3304 2112 
Q 3559 1806 3559 1356 
Q 3559 666 3084 287 
Q 2609 -91 1734 -91 
Q 1441 -91 1130 -33 
Q 819 25 488 141 
L 488 750 
Q 750 597 1062 519 
Q 1375 441 1716 441 
Q 2309 441 2620 675 
Q 2931 909 2931 1356 
Q 2931 1769 2642 2001 
Q 2353 2234 1838 2234 
L 1294 2234 
L 1294 2753 
L 1863 2753 
Q 2328 2753 2575 2939 
Q 2822 3125 2822 3475 
Q 2822 3834 2567 4026 
Q 2313 4219 1838 4219 
Q 1578 4219 1281 4162 
Q 984 4106 628 3988 
L 628 4550 
Q 988 4650 1302 4700 
Q 1616 4750 1894 4750 
Q 2613 4750 3031 4423 
Q 3450 4097 3450 3541 
Q 3450 3153 3228 2886 
Q 3006 2619 2597 2516 
z
" transform="scale(0.015625)"/>
        <path id="DejaVuSans-2e" d="M 684 794 
L 1344 794 
L 1344 0 
L 684 0 
L 684 794 
z
" transform="scale(0.015625)"/>
        <path id="DejaVuSans-30" d="M 2034 4250 
Q 1547 4250 1301 3770 
Q 1056 3291 1056 2328 
Q 1056 1369 1301 889 
Q 1547 409 2034 409 
Q 2525 409 2770 889 
Q 3016 1369 3016 2328 
Q 3016 3291 2770 3770 
Q 2525 4250 2034 4250 
z
M 2034 4750 
Q 2819 4750 3233 4129 
Q 3647 3509 3647 2328 
Q 3647 1150 3233 529 
Q 2819 -91 2034 -91 
Q 1250 -91 836 529 
Q 422 1150 422 2328 
Q 422 3509 836 4129 
Q 1250 4750 2034 4750 
z
" transform="scale(0.015625)"/>
       </defs>
       <use xlink:href="#DejaVuSans-2212"/>
       <use xlink:href="#DejaVuSans-36" transform="translate(83.789062 0)"/>
       <use xlink:href="#DejaVuSans-33" transform="translate(147.412109 0)"/>
       <use xlink:href="#DejaVuSans-2e" transform="translate(211.035156 0)"/>
       <use xlink:href="#DejaVuSans-30" transform="translate(242.822266 0)"/>
      </g>
     </g>
    </g>
    <g id="xtick_2">
     <g id="line2d_3">
      <path d="M 182.601017 751.087667 
L 182.601017 121.552333 
" clip-path="url(#pb89c51088f)" style="fill: none; stroke: #b0b0b0; stroke-width: 0.8; stroke-linecap: square"/>
     </g>
     <g id="line2d_4">
      <g>
       <use xlink:href="#m387b8973fa" x="182.601017" y="751.087667" style="stroke: #000000; stroke-width: 0.8"/>
      </g>
     </g>
     <g id="text_2">
      <!-- −62.9 -->
      <g transform="translate(173.717435 785.130081) rotate(-45) scale(0.1 -0.1)">
       <defs>
        <path id="DejaVuSans-32" d="M 1228 531 
L 3431 531 
L 3431 0 
L 469 0 
L 469 531 
Q 828 903 1448 1529 
Q 2069 2156 2228 2338 
Q 2531 2678 2651 2914 
Q 2772 3150 2772 3378 
Q 2772 3750 2511 3984 
Q 2250 4219 1831 4219 
Q 1534 4219 1204 4116 
Q 875 4013 500 3803 
L 500 4441 
Q 881 4594 1212 4672 
Q 1544 4750 1819 4750 
Q 2544 4750 2975 4387 
Q 3406 4025 3406 3419 
Q 3406 3131 3298 2873 
Q 3191 2616 2906 2266 
Q 2828 2175 2409 1742 
Q 1991 1309 1228 531 
z
" transform="scale(0.015625)"/>
        <path id="DejaVuSans-39" d="M 703 97 
L 703 672 
Q 941 559 1184 500 
Q 1428 441 1663 441 
Q 2288 441 2617 861 
Q 2947 1281 2994 2138 
Q 2813 1869 2534 1725 
Q 2256 1581 1919 1581 
Q 1219 1581 811 2004 
Q 403 2428 403 3163 
Q 403 3881 828 4315 
Q 1253 4750 1959 4750 
Q 2769 4750 3195 4129 
Q 3622 3509 3622 2328 
Q 3622 1225 3098 567 
Q 2575 -91 1691 -91 
Q 1453 -91 1209 -44 
Q 966 3 703 97 
z
M 1959 2075 
Q 2384 2075 2632 2365 
Q 2881 2656 2881 3163 
Q 2881 3666 2632 3958 
Q 2384 4250 1959 4250 
Q 1534 4250 1286 3958 
Q 1038 3666 1038 3163 
Q 1038 2656 1286 2365 
Q 1534 2075 1959 2075 
z
" transform="scale(0.015625)"/>
       </defs>
       <use xlink:href="#DejaVuSans-2212"/>
       <use xlink:href="#DejaVuSans-36" transform="translate(83.789062 0)"/>
       <use xlink:href="#DejaVuSans-32" transform="translate(147.412109 0)"/>
       <use xlink:href="#DejaVuSans-2e" transform="translate(211.035156 0)"/>
       <use xlink:href="#DejaVuSans-39" transform="translate(242.822266 0)"/>
      </g>
     </g>
    </g>
    <g id="xtick_3">
     <g id="line2d_5">
      <path d="M 249.726347 751.087667 
L 249.726347 121.552333 
" clip-path="url(#pb89c51088f)" style="fill: none; stroke: #b0b0b0; stroke-width: 0.8; stroke-linecap: square"/>
     </g>
     <g id="line2d_6">
      <g>
       <use xlink:href="#m387b8973fa" x="249.726347" y="751.087667" style="stroke: #000000; stroke-width: 0.8"/>
      </g>
     </g>
     <g id="text_3">
      <!-- −62.8 -->
      <g transform="translate(240.842765 785.130081) rotate(-45) scale(0.1 -0.1)">
       <defs>
        <path id="DejaVuSans-38" d="M 2034 2216 
Q 1584 2216 1326 1975 
Q 1069 1734 1069 1313 
Q 1069 891 1326 650 
Q 1584 409 2034 409 
Q 2484 409 2743 651 
Q 3003 894 3003 1313 
Q 3003 1734 2745 1975 
Q 2488 2216 2034 2216 
z
M 1403 2484 
Q 997 2584 770 2862 
Q 544 3141 544 3541 
Q 544 4100 942 4425 
Q 1341 4750 2034 4750 
Q 2731 4750 3128 4425 
Q 3525 4100 3525 3541 
Q 3525 3141 3298 2862 
Q 3072 2584 2669 2484 
Q 3125 2378 3379 2068 
Q 3634 1759 3634 1313 
Q 3634 634 3220 271 
Q 2806 -91 2034 -91 
Q 1263 -91 848 271 
Q 434 634 434 1313 
Q 434 1759 690 2068 
Q 947 2378 1403 2484 
z
M 1172 3481 
Q 1172 3119 1398 2916 
Q 1625 2713 2034 2713 
Q 2441 2713 2670 2916 
Q 2900 3119 2900 3481 
Q 2900 3844 2670 4047 
Q 2441 4250 2034 4250 
Q 1625 4250 1398 4047 
Q 1172 3844 1172 3481 
z
" transform="scale(0.015625)"/>
       </defs>
       <use xlink:href="#DejaVuSans-2212"/>
       <use xlink:href="#DejaVuSans-36" transform="translate(83.789062 0)"/>
       <use xlink:href="#DejaVuSans-32" transform="translate(147.412109 0)"/>
       <use xlink:href="#DejaVuSans-2e" transform="translate(211.035156 0)"/>
       <use xlink:href="#DejaVuSans-38" transform="translate(242.822266 0)"/>
      </g>
     </g>
    </g>
    <g id="xtick_4">
     <g id="line2d_7">
      <path d="M 316.851677 751.087667 
L 316.851677 121.552333 
" clip-path="url(#pb89c51088f)" style="fill: none; stroke: #b0b0b0; stroke-width: 0.8; stroke-linecap: square"/>
     </g>
     <g id="line2d_8">
      <g>
       <use xlink:href="#m387b8973fa" x="316.851677" y="751.087667" style="stroke: #000000; stroke-width: 0.8"/>
      </g>
     </g>
     <g id="text_4">
      <!-- −62.7 -->
      <g transform="translate(307.968095 785.130081) rotate(-45) scale(0.1 -0.1)">
       <defs>
        <path id="DejaVuSans-37" d="M 525 4666 
L 3525 4666 
L 3525 4397 
L 1831 0 
L 1172 0 
L 2766 4134 
L 525 4134 
L 525 4666 
z
" transform="scale(0.015625)"/>
       </defs>
       <use xlink:href="#DejaVuSans-2212"/>
       <use xlink:href="#DejaVuSans-36" transform="translate(83.789062 0)"/>
       <use xlink:href="#DejaVuSans-32" transform="translate(147.412109 0)"/>
       <use xlink:href="#DejaVuSans-2e" transform="translate(211.035156 0)"/>
       <use xlink:href="#DejaVuSans-37" transform="translate(242.822266 0)"/>
      </g>
     </g>
    </g>
    <g id="xtick_5">
     <g id="line2d_9">
      <path d="M 383.977007 751.087667 
L 383.977007 121.552333 
" clip-path="url(#pb89c51088f)" style="fill: none; stroke: #b0b0b0; stroke-width: 0.8; stroke-linecap: square"/>
     </g>
     <g id="line2d_10">
      <g>
       <use xlink:href="#m387b8973fa" x="383.977007" y="751.087667" style="stroke: #000000; stroke-width: 0.8"/>
      </g>
     </g>
     <g id="text_5">
      <!-- −62.6 -->
      <g transform="translate(375.093426 785.130081) rotate(-45) scale(0.1 -0.1)">
       <use xlink:href="#DejaVuSans-2212"/>
       <use xlink:href="#DejaVuSans-36" transform="translate(83.789062 0)"/>
       <use xlink:href="#DejaVuSans-32" transform="translate(147.412109 0)"/>
       <use xlink:href="#DejaVuSans-2e" transform="translate(211.035156 0)"/>
       <use xlink:href="#DejaVuSans-36" transform="translate(242.822266 0)"/>
      </g>
     </g>
    </g>
    <g id="xtick_6">
     <g id="line2d_11">
      <path d="M 451.102337 751.087667 
L 451.102337 121.552333 
" clip-path="url(#pb89c51088f)" style="fill: none; stroke: #b0b0b0; stroke-width: 0.8; stroke-linecap: square"/>
     </g>
     <g id="line2d_12">
      <g>
       <use xlink:href="#m387b8973fa" x="451.102337" y="751.087667" style="stroke: #000000; stroke-width: 0.8"/>
      </g>
     </g>
     <g id="text_6">
      <!-- −62.5 -->
      <g transform="translate(442.218756 785.130081) rotate(-45) scale(0.1 -0.1)">
       <defs>
        <path id="DejaVuSans-35" d="M 691 4666 
L 3169 4666 
L 3169 4134 
L 1269 4134 
L 1269 2991 
Q 1406 3038 1543 3061 
Q 1681 3084 1819 3084 
Q 2600 3084 3056 2656 
Q 3513 2228 3513 1497 
Q 3513 744 3044 326 
Q 2575 -91 1722 -91 
Q 1428 -91 1123 -41 
Q 819 9 494 109 
L 494 744 
Q 775 591 1075 516 
Q 1375 441 1709 441 
Q 2250 441 2565 725 
Q 2881 1009 2881 1497 
Q 2881 1984 2565 2268 
Q 2250 2553 1709 2553 
Q 1456 2553 1204 2497 
Q 953 2441 691 2322 
L 691 4666 
z
" transform="scale(0.015625)"/>
       </defs>
       <use xlink:href="#DejaVuSans-2212"/>
       <use xlink:href="#DejaVuSans-36" transform="translate(83.789062 0)"/>
       <use xlink:href="#DejaVuSans-32" transform="translate(147.412109 0)"/>
       <use xlink:href="#DejaVuSans-2e" transform="translate(211.035156 0)"/>
       <use xlink:href="#DejaVuSans-35" transform="translate(242.822266 0)"/>
      </g>
     </g>
    </g>
    <g id="xtick_7">
     <g id="line2d_13">
      <path d="M 518.227667 751.087667 
L 518.227667 121.552333 
" clip-path="url(#pb89c51088f)" style="fill: none; stroke: #b0b0b0; stroke-width: 0.8; stroke-linecap: square"/>
     </g>
     <g id="line2d_14">
      <g>
       <use xlink:href="#m387b8973fa" x="518.227667" y="751.087667" style="stroke: #000000; stroke-width: 0.8"/>
      </g>
     </g>
     <g id="text_7">
      <!-- −62.4 -->
      <g transform="translate(509.344086 785.130081) rotate(-45) scale(0.1 -0.1)">
       <defs>
        <path id="DejaVuSans-34" d="M 2419 4116 
L 825 1625 
L 2419 1625 
L 2419 4116 
z
M 2253 4666 
L 3047 4666 
L 3047 1625 
L 3713 1625 
L 3713 1100 
L 3047 1100 
L 3047 0 
L 2419 0 
L 2419 1100 
L 313 1100 
L 313 1709 
L 2253 4666 
z
" transform="scale(0.015625)"/>
       </defs>
       <use xlink:href="#DejaVuSans-2212"/>
       <use xlink:href="#DejaVuSans-36" transform="translate(83.789062 0)"/>
       <use xlink:href="#DejaVuSans-32" transform="translate(147.412109 0)"/>
       <use xlink:href="#DejaVuSans-2e" transform="translate(211.035156 0)"/>
       <use xlink:href="#DejaVuSans-34" transform="translate(242.822266 0)"/>
      </g>
     </g>
    </g>
    <g id="xtick_8">
     <g id="line2d_15">
      <path d="M 585.352997 751.087667 
L 585.352997 121.552333 
" clip-path="url(#pb89c51088f)" style="fill: none; stroke: #b0b0b0; stroke-width: 0.8; stroke-linecap: square"/>
     </g>
     <g id="line2d_16">
      <g>
       <use xlink:href="#m387b8973fa" x="585.352997" y="751.087667" style="stroke: #000000; stroke-width: 0.8"/>
      </g>
     </g>
     <g id="text_8">
      <!-- −62.3 -->
      <g transform="translate(576.469416 785.130081) rotate(-45) scale(0.1 -0.1)">
       <use xlink:href="#DejaVuSans-2212"/>
       <use xlink:href="#DejaVuSans-36" transform="translate(83.789062 0)"/>
       <use xlink:href="#DejaVuSans-32" transform="translate(147.412109 0)"/>
       <use xlink:href="#DejaVuSans-2e" transform="translate(211.035156 0)"/>
       <use xlink:href="#DejaVuSans-33" transform="translate(242.822266 0)"/>
      </g>
     </g>
    </g>
    <g id="text_9">
     <!-- Longitude (°) -->
     <g transform="translate(336.139844 798.19908) scale(0.1 -0.1)">
      <defs>
       <path id="DejaVuSans-4c" d="M 628 4666 
L 1259 4666 
L 1259 531 
L 3531 531 
L 3531 0 
L 628 0 
L 628 4666 
z
" transform="scale(0.015625)"/>
       <path id="DejaVuSans-6f" d="M 1959 3097 
Q 1497 3097 1228 2736 
Q 959 2375 959 1747 
Q 959 1119 1226 758 
Q 1494 397 1959 397 
Q 2419 397 2687 759 
Q 2956 1122 2956 1747 
Q 2956 2369 2687 2733 
Q 2419 3097 1959 3097 
z
M 1959 3584 
Q 2709 3584 3137 3096 
Q 3566 2609 3566 1747 
Q 3566 888 3137 398 
Q 2709 -91 1959 -91 
Q 1206 -91 779 398 
Q 353 888 353 1747 
Q 353 2609 779 3096 
Q 1206 3584 1959 3584 
z
" transform="scale(0.015625)"/>
       <path id="DejaVuSans-6e" d="M 3513 2113 
L 3513 0 
L 2938 0 
L 2938 2094 
Q 2938 2591 2744 2837 
Q 2550 3084 2163 3084 
Q 1697 3084 1428 2787 
Q 1159 2491 1159 1978 
L 1159 0 
L 581 0 
L 581 3500 
L 1159 3500 
L 1159 2956 
Q 1366 3272 1645 3428 
Q 1925 3584 2291 3584 
Q 2894 3584 3203 3211 
Q 3513 2838 3513 2113 
z
" transform="scale(0.015625)"/>
       <path id="DejaVuSans-67" d="M 2906 1791 
Q 2906 2416 2648 2759 
Q 2391 3103 1925 3103 
Q 1463 3103 1205 2759 
Q 947 2416 947 1791 
Q 947 1169 1205 825 
Q 1463 481 1925 481 
Q 2391 481 2648 825 
Q 2906 1169 2906 1791 
z
M 3481 434 
Q 3481 -459 3084 -895 
Q 2688 -1331 1869 -1331 
Q 1566 -1331 1297 -1286 
Q 1028 -1241 775 -1147 
L 775 -588 
Q 1028 -725 1275 -790 
Q 1522 -856 1778 -856 
Q 2344 -856 2625 -561 
Q 2906 -266 2906 331 
L 2906 616 
Q 2728 306 2450 153 
Q 2172 0 1784 0 
Q 1141 0 747 490 
Q 353 981 353 1791 
Q 353 2603 747 3093 
Q 1141 3584 1784 3584 
Q 2172 3584 2450 3431 
Q 2728 3278 2906 2969 
L 2906 3500 
L 3481 3500 
L 3481 434 
z
" transform="scale(0.015625)"/>
       <path id="DejaVuSans-69" d="M 603 3500 
L 1178 3500 
L 1178 0 
L 603 0 
L 603 3500 
z
M 603 4863 
L 1178 4863 
L 1178 4134 
L 603 4134 
L 603 4863 
z
" transform="scale(0.015625)"/>
       <path id="DejaVuSans-74" d="M 1172 4494 
L 1172 3500 
L 2356 3500 
L 2356 3053 
L 1172 3053 
L 1172 1153 
Q 1172 725 1289 603 
Q 1406 481 1766 481 
L 2356 481 
L 2356 0 
L 1766 0 
Q 1100 0 847 248 
Q 594 497 594 1153 
L 594 3053 
L 172 3053 
L 172 3500 
L 594 3500 
L 594 4494 
L 1172 4494 
z
" transform="scale(0.015625)"/>
       <path id="DejaVuSans-75" d="M 544 1381 
L 544 3500 
L 1119 3500 
L 1119 1403 
Q 1119 906 1312 657 
Q 1506 409 1894 409 
Q 2359 409 2629 706 
Q 2900 1003 2900 1516 
L 2900 3500 
L 3475 3500 
L 3475 0 
L 2900 0 
L 2900 538 
Q 2691 219 2414 64 
Q 2138 -91 1772 -91 
Q 1169 -91 856 284 
Q 544 659 544 1381 
z
M 1991 3584 
L 1991 3584 
z
" transform="scale(0.015625)"/>
       <path id="DejaVuSans-64" d="M 2906 2969 
L 2906 4863 
L 3481 4863 
L 3481 0 
L 2906 0 
L 2906 525 
Q 2725 213 2448 61 
Q 2172 -91 1784 -91 
Q 1150 -91 751 415 
Q 353 922 353 1747 
Q 353 2572 751 3078 
Q 1150 3584 1784 3584 
Q 2172 3584 2448 3432 
Q 2725 3281 2906 2969 
z
M 947 1747 
Q 947 1113 1208 752 
Q 1469 391 1925 391 
Q 2381 391 2643 752 
Q 2906 1113 2906 1747 
Q 2906 2381 2643 2742 
Q 2381 3103 1925 3103 
Q 1469 3103 1208 2742 
Q 947 2381 947 1747 
z
" transform="scale(0.015625)"/>
       <path id="DejaVuSans-65" d="M 3597 1894 
L 3597 1613 
L 953 1613 
Q 991 1019 1311 708 
Q 1631 397 2203 397 
Q 2534 397 2845 478 
Q 3156 559 3463 722 
L 3463 178 
Q 3153 47 2828 -22 
Q 2503 -91 2169 -91 
Q 1331 -91 842 396 
Q 353 884 353 1716 
Q 353 2575 817 3079 
Q 1281 3584 2069 3584 
Q 2775 3584 3186 3129 
Q 3597 2675 3597 1894 
z
M 3022 2063 
Q 3016 2534 2758 2815 
Q 2500 3097 2075 3097 
Q 1594 3097 1305 2825 
Q 1016 2553 972 2059 
L 3022 2063 
z
" transform="scale(0.015625)"/>
       <path id="DejaVuSans-20" transform="scale(0.015625)"/>
       <path id="DejaVuSans-28" d="M 1984 4856 
Q 1566 4138 1362 3434 
Q 1159 2731 1159 2009 
Q 1159 1288 1364 580 
Q 1569 -128 1984 -844 
L 1484 -844 
Q 1016 -109 783 600 
Q 550 1309 550 2009 
Q 550 2706 781 3412 
Q 1013 4119 1484 4856 
L 1984 4856 
z
" transform="scale(0.015625)"/>
       <path id="DejaVuSans-b0" d="M 1600 4347 
Q 1350 4347 1178 4173 
Q 1006 4000 1006 3750 
Q 1006 3503 1178 3333 
Q 1350 3163 1600 3163 
Q 1850 3163 2022 3333 
Q 2194 3503 2194 3750 
Q 2194 3997 2020 4172 
Q 1847 4347 1600 4347 
z
M 1600 4750 
Q 1800 4750 1984 4673 
Q 2169 4597 2303 4453 
Q 2447 4313 2519 4134 
Q 2591 3956 2591 3750 
Q 2591 3338 2302 3052 
Q 2013 2766 1594 2766 
Q 1172 2766 890 3047 
Q 609 3328 609 3750 
Q 609 4169 896 4459 
Q 1184 4750 1600 4750 
z
" transform="scale(0.015625)"/>
       <path id="DejaVuSans-29" d="M 513 4856 
L 1013 4856 
Q 1481 4119 1714 3412 
Q 1947 2706 1947 2009 
Q 1947 1309 1714 600 
Q 1481 -109 1013 -844 
L 513 -844 
Q 928 -128 1133 580 
Q 1338 1288 1338 2009 
Q 1338 2731 1133 3434 
Q 928 4138 513 4856 
z
" transform="scale(0.015625)"/>
      </defs>
      <use xlink:href="#DejaVuSans-4c"/>
      <use xlink:href="#DejaVuSans-6f" transform="translate(53.962891 0)"/>
      <use xlink:href="#DejaVuSans-6e" transform="translate(115.144531 0)"/>
      <use xlink:href="#DejaVuSans-67" transform="translate(178.523438 0)"/>
      <use xlink:href="#DejaVuSans-69" transform="translate(242 0)"/>
      <use xlink:href="#DejaVuSans-74" transform="translate(269.783203 0)"/>
      <use xlink:href="#DejaVuSans-75" transform="translate(308.992188 0)"/>
      <use xlink:href="#DejaVuSans-64" transform="translate(372.371094 0)"/>
      <use xlink:href="#DejaVuSans-65" transform="translate(435.847656 0)"/>
      <use xlink:href="#DejaVuSans-20" transform="translate(497.371094 0)"/>
      <use xlink:href="#DejaVuSans-28" transform="translate(529.158203 0)"/>
      <use xlink:href="#DejaVuSans-b0" transform="translate(568.171875 0)"/>
      <use xlink:href="#DejaVuSans-29" transform="translate(618.171875 0)"/>
     </g>
    </g>
   </g>
   <g id="matplotlib.axis_2">
    <g id="ytick_1">
     <g id="line2d_17">
      <path d="M 90 652.274868 
L 648 652.274868 
" clip-path="url(#pb89c51088f)" style="fill: none; stroke: #b0b0b0; stroke-width: 0.8; stroke-linecap: square"/>
     </g>
     <g id="line2d_18">
      <defs>
       <path id="mbf98427b63" d="M 0 0 
L -3.5 0 
" style="stroke: #000000; stroke-width: 0.8"/>
      </defs>
      <g>
       <use xlink:href="#mbf98427b63" x="90" y="652.274868" style="stroke: #000000; stroke-width: 0.8"/>
      </g>
     </g>
     <g id="text_10">
      <!-- −11.4 -->
      <g transform="translate(52.354687 656.074086) scale(0.1 -0.1)">
       <defs>
        <path id="DejaVuSans-31" d="M 794 531 
L 1825 531 
L 1825 4091 
L 703 3866 
L 703 4441 
L 1819 4666 
L 2450 4666 
L 2450 531 
L 3481 531 
L 3481 0 
L 794 0 
L 794 531 
z
" transform="scale(0.015625)"/>
       </defs>
       <use xlink:href="#DejaVuSans-2212"/>
       <use xlink:href="#DejaVuSans-31" transform="translate(83.789062 0)"/>
       <use xlink:href="#DejaVuSans-31" transform="translate(147.412109 0)"/>
       <use xlink:href="#DejaVuSans-2e" transform="translate(211.035156 0)"/>
       <use xlink:href="#DejaVuSans-34" transform="translate(242.822266 0)"/>
      </g>
     </g>
    </g>
    <g id="ytick_2">
     <g id="line2d_19">
      <path d="M 90 515.595069 
L 648 515.595069 
" clip-path="url(#pb89c51088f)" style="fill: none; stroke: #b0b0b0; stroke-width: 0.8; stroke-linecap: square"/>
     </g>
     <g id="line2d_20">
      <g>
       <use xlink:href="#mbf98427b63" x="90" y="515.595069" style="stroke: #000000; stroke-width: 0.8"/>
      </g>
     </g>
     <g id="text_11">
      <!-- −11.2 -->
      <g transform="translate(52.354687 519.394288) scale(0.1 -0.1)">
       <use xlink:href="#DejaVuSans-2212"/>
       <use xlink:href="#DejaVuSans-31" transform="translate(83.789062 0)"/>
       <use xlink:href="#DejaVuSans-31" transform="translate(147.412109 0)"/>
       <use xlink:href="#DejaVuSans-2e" transform="translate(211.035156 0)"/>
       <use xlink:href="#DejaVuSans-32" transform="translate(242.822266 0)"/>
      </g>
     </g>
    </g>
    <g id="ytick_3">
     <g id="line2d_21">
      <path d="M 90 378.91527 
L 648 378.91527 
" clip-path="url(#pb89c51088f)" style="fill: none; stroke: #b0b0b0; stroke-width: 0.8; stroke-linecap: square"/>
     </g>
     <g id="line2d_22">
      <g>
       <use xlink:href="#mbf98427b63" x="90" y="378.91527" style="stroke: #000000; stroke-width: 0.8"/>
      </g>
     </g>
     <g id="text_12">
      <!-- −11.0 -->
      <g transform="translate(52.354687 382.714489) scale(0.1 -0.1)">
       <use xlink:href="#DejaVuSans-2212"/>
       <use xlink:href="#DejaVuSans-31" transform="translate(83.789062 0)"/>
       <use xlink:href="#DejaVuSans-31" transform="translate(147.412109 0)"/>
       <use xlink:href="#DejaVuSans-2e" transform="translate(211.035156 0)"/>
       <use xlink:href="#DejaVuSans-30" transform="translate(242.822266 0)"/>
      </g>
     </g>
    </g>
    <g id="ytick_4">
     <g id="line2d_23">
      <path d="M 90 242.235471 
L 648 242.235471 
" clip-path="url(#pb89c51088f)" style="fill: none; stroke: #b0b0b0; stroke-width: 0.8; stroke-linecap: square"/>
     </g>
     <g id="line2d_24">
      <g>
       <use xlink:href="#mbf98427b63" x="90" y="242.235471" style="stroke: #000000; stroke-width: 0.8"/>
      </g>
     </g>
     <g id="text_13">
      <!-- −10.8 -->
      <g transform="translate(52.354687 246.03469) scale(0.1 -0.1)">
       <use xlink:href="#DejaVuSans-2212"/>
       <use xlink:href="#DejaVuSans-31" transform="translate(83.789062 0)"/>
       <use xlink:href="#DejaVuSans-30" transform="translate(147.412109 0)"/>
       <use xlink:href="#DejaVuSans-2e" transform="translate(211.035156 0)"/>
       <use xlink:href="#DejaVuSans-38" transform="translate(242.822266 0)"/>
      </g>
     </g>
    </g>
    <g id="text_14">
     <!-- Latitude (°) -->
     <g transform="translate(46.275 464.889531) rotate(-90) scale(0.1 -0.1)">
      <defs>
       <path id="DejaVuSans-61" d="M 2194 1759 
Q 1497 1759 1228 1600 
Q 959 1441 959 1056 
Q 959 750 1161 570 
Q 1363 391 1709 391 
Q 2188 391 2477 730 
Q 2766 1069 2766 1631 
L 2766 1759 
L 2194 1759 
z
M 3341 1997 
L 3341 0 
L 2766 0 
L 2766 531 
Q 2569 213 2275 61 
Q 1981 -91 1556 -91 
Q 1019 -91 701 211 
Q 384 513 384 1019 
Q 384 1609 779 1909 
Q 1175 2209 1959 2209 
L 2766 2209 
L 2766 2266 
Q 2766 2663 2505 2880 
Q 2244 3097 1772 3097 
Q 1472 3097 1187 3025 
Q 903 2953 641 2809 
L 641 3341 
Q 956 3463 1253 3523 
Q 1550 3584 1831 3584 
Q 2591 3584 2966 3190 
Q 3341 2797 3341 1997 
z
" transform="scale(0.015625)"/>
      </defs>
      <use xlink:href="#DejaVuSans-4c"/>
      <use xlink:href="#DejaVuSans-61" transform="translate(55.712891 0)"/>
      <use xlink:href="#DejaVuSans-74" transform="translate(116.992188 0)"/>
      <use xlink:href="#DejaVuSans-69" transform="translate(156.201172 0)"/>
      <use xlink:href="#DejaVuSans-74" transform="translate(183.984375 0)"/>
      <use xlink:href="#DejaVuSans-75" transform="translate(223.193359 0)"/>
      <use xlink:href="#DejaVuSans-64" transform="translate(286.572266 0)"/>
      <use xlink:href="#DejaVuSans-65" transform="translate(350.048828 0)"/>
      <use xlink:href="#DejaVuSans-20" transform="translate(411.572266 0)"/>
      <use xlink:href="#DejaVuSans-28" transform="translate(443.359375 0)"/>
      <use xlink:href="#DejaVuSans-b0" transform="translate(482.373047 0)"/>
      <use xlink:href="#DejaVuSans-29" transform="translate(532.373047 0)"/>
     </g>
    </g>
   </g>
   <g id="patch_3">
    <path d="M 90 751.087667 
L 90 121.552333 
" style="fill: none; stroke: #000000; stroke-width: 0.8; stroke-linejoin: miter; stroke-linecap: square"/>
   </g>
   <g id="patch_4">
    <path d="M 648 751.087667 
L 648 121.552333 
" style="fill: none; stroke: #000000; stroke-width: 0.8; stroke-linejoin: miter; stroke-linecap: square"/>
   </g>
   <g id="patch_5">
    <path d="M 90 751.087667 
L 648 751.087667 
" style="fill: none; stroke: #000000; stroke-width: 0.8; stroke-linejoin: miter; stroke-linecap: square"/>
   </g>
   <g id="patch_6">
    <path d="M 90 121.552333 
L 648 121.552333 
" style="fill: none; stroke: #000000; stroke-width: 0.8; stroke-linejoin: miter; stroke-linecap: square"/>
   </g>
  </g>
 </g>
 <defs>
  <clipPath id="pb89c51088f">
   <rect x="90" y="121.552333" width="558" height="629.535333"/>
  </clipPath>
 </defs>
</svg>
