<?xml version="1.0" encoding="utf-8" standalone="no"?>
<!DOCTYPE svg PUBLIC "-//W3C//DTD SVG 1.1//EN"
  "http://www.w3.org/Graphics/SVG/1.1/DTD/svg11.dtd">
<svg xmlns:xlink="http://www.w3.org/1999/xlink" width="720pt" height="864pt" viewBox="0 0 720 864" xmlns="http://www.w3.org/2000/svg" version="1.1">
 <metadata>
  <rdf:RDF xmlns:dc="http://purl.org/dc/elements/1.1/" xmlns:cc="http://creativecommons.org/ns#" xmlns:rdf="http://www.w3.org/1999/02/22-rdf-syntax-ns#">
   <cc:Work>
    <dc:type rdf:resource="http://purl.org/dc/dcmitype/StillImage"/>
    <dc:date>2025-06-16T17:53:25.717573</dc:date>
    <dc:format>image/svg+xml</dc:format>
    <dc:creator>
     <cc:Agent>
      <dc:title>Matplotlib v3.10.1, https://matplotlib.org/</dc:title>
     </cc:Agent>
    </dc:creator>
   </cc:Work>
  </rdf:RDF>
 </metadata>
 <defs>
  <style type="text/css">*{stroke-linejoin: round; stroke-linecap: butt}</style>
 </defs>
 <g id="figure_1">
  <g id="patch_1">
   <path d="M 0 864 
L 720 864 
L 720 0 
L 0 0 
z
" style="fill: #ffffff"/>
  </g>
  <g id="axes_1">
   <g id="patch_2">
    <path d="M 152.538267 768.96 
L 585.461733 768.96 
L 585.461733 103.68 
L 152.538267 103.68 
z
" style="fill: #ffffff"/>
   </g>
   <g id="PatchCollection_1">
    <path d="M 270.797167 293.899678 
L 272.483323 307.55155 
L 184.838133 328.182659 
L 184.142027 313.864897 
L 270.797167 293.899678 
" clip-path="url(#pf206736187)" style="fill: #e0bd1f; stroke: #0000ff; stroke-width: 0.5"/>
    <path d="M 276.235471 336.862676 
L 277.712675 349.84961 
L 277.888208 351.11509 
L 243.189315 358.939817 
L 225.774983 362.866545 
L 208.407632 366.770125 
L 191.092666 370.658755 
L 189.368196 356.545545 
L 276.235471 336.862676 
" clip-path="url(#pf206736187)" style="fill: #e0bd1f; stroke: #0000ff; stroke-width: 0.5"/>
    <path d="M 245.323848 431.237877 
L 248.017982 491.297831 
L 239.211119 492.771568 
L 240.073237 514.151531 
L 195.176422 519.669698 
L 194.211641 498.225508 
L 211.957752 498.466782 
L 210.435838 438.446341 
L 245.323848 431.237877 
" clip-path="url(#pf206736187)" style="fill: #e0bd1f; stroke: #0000ff; stroke-width: 0.5"/>
    <path d="M 240.073237 514.151531 
L 240.718293 580.168891 
L 197.205204 565.323528 
L 195.176422 519.669698 
L 240.073237 514.151531 
" clip-path="url(#pf206736187)" style="fill: #e0bd1f; stroke: #0000ff; stroke-width: 0.5"/>
    <path d="M 200.493478 637.321554 
L 243.535164 645.901025 
L 246.996182 710.902477 
L 247.34946 716.833293 
L 240.339143 713.181186 
L 233.565759 710.800817 
L 230.1176 708.577928 
L 225.625383 701.618594 
L 221.371488 698.241673 
L 217.891696 699.89314 
L 215.873133 706.779855 
L 214.663277 714.653995 
L 213.197691 722.23936 
L 207.280454 722.600295 
L 204.483882 716.842842 
L 200.493478 637.321554 
" clip-path="url(#pf206736187)" style="fill: #e0bd1f; stroke: #0000ff; stroke-width: 0.5"/>
    <path d="M 251.30199 429.443165 
L 263.679433 623.492669 
L 242.518682 621.906557 
L 240.718293 580.168891 
L 240.073237 514.151531 
L 239.211119 492.771568 
L 248.017982 491.297831 
L 245.323848 431.237877 
L 251.30199 429.443165 
" clip-path="url(#pf206736187)" style="fill: #e0bd1f; stroke: #0000ff; stroke-width: 0.5"/>
    <path d="M 242.518682 621.906557 
L 263.679433 623.492669 
L 264.073777 623.494126 
L 271.566397 654.068711 
L 288.347439 650.952184 
L 290.729811 691.053784 
L 246.996182 710.902477 
L 243.535164 645.901025 
L 242.518682 621.906557 
" clip-path="url(#pf206736187)" style="fill: #e0bd1f; stroke: #0000ff; stroke-width: 0.5"/>
    <path d="M 290.729811 691.053784 
L 295.337808 696.095958 
L 298.760993 705.82167 
L 303.484585 712.344642 
L 304.28029 718.290748 
L 300.027979 726.619843 
L 292.686331 738.72 
L 288.622707 735.401284 
L 285.323187 729.551499 
L 280.295298 725.33297 
L 273.631907 724.868943 
L 267.317116 727.702701 
L 260.095424 727.30404 
L 253.16771 724.597319 
L 249.854831 721.320699 
L 247.34946 716.833293 
L 246.996182 710.902477 
L 290.729811 691.053784 
" clip-path="url(#pf206736187)" style="fill: #e0bd1f; stroke: #0000ff; stroke-width: 0.5"/>
    <path d="M 279.569361 423.500797 
L 282.304533 534.198757 
L 258.169371 532.373018 
L 251.825131 429.360146 
L 279.569361 423.500797 
" clip-path="url(#pf206736187)" style="fill: #e0bd1f; stroke: #0000ff; stroke-width: 0.5"/>
    <path d="M 258.169371 532.373018 
L 282.340273 534.217809 
L 288.080714 650.932863 
L 271.566397 654.068711 
L 264.073777 623.494126 
L 258.169371 532.373018 
" clip-path="url(#pf206736187)" style="fill: #e0bd1f; stroke: #0000ff; stroke-width: 0.5"/>
    <path d="M 314.577853 416.879566 
L 315.731446 482.466563 
L 298.090159 484.704205 
L 297.447729 420.233848 
L 314.577853 416.879566 
" clip-path="url(#pf206736187)" style="fill: #e0bd1f; stroke: #0000ff; stroke-width: 0.5"/>
    <path d="M 258.829889 194.688677 
L 260.531009 208.903235 
L 173.882999 228.884575 
L 172.216607 214.729927 
L 258.829889 194.688677 
" clip-path="url(#pf206736187)" style="fill: #e0bd1f; stroke: #0000ff; stroke-width: 0.5"/>
    <path d="M 260.531009 208.903235 
L 262.253598 224.560019 
L 175.508888 242.991893 
L 173.882999 228.884575 
L 260.531009 208.903235 
" clip-path="url(#pf206736187)" style="fill: #e0bd1f; stroke: #0000ff; stroke-width: 0.5"/>
    <path d="M 265.834804 251.504022 
L 267.558163 266.464084 
L 180.818203 285.398794 
L 178.915072 271.402262 
L 265.834804 251.504022 
" clip-path="url(#pf206736187)" style="fill: #e0bd1f; stroke: #0000ff; stroke-width: 0.5"/>
    <path d="M 301.500796 157.988281 
L 303.888505 181.965866 
L 308.091566 198.781971 
L 260.531009 208.903235 
L 258.829889 194.688677 
L 257.12672 180.475195 
L 255.421382 166.247748 
L 301.500796 157.988281 
" clip-path="url(#pf206736187)" style="fill: #e0bd1f; stroke: #0000ff; stroke-width: 0.5"/>
    <path d="M 382.420133 220.112031 
L 386.993018 253.853582 
L 370.17348 255.519211 
L 352.320563 257.712848 
L 352.15347 256.851711 
L 352.017788 255.854001 
L 351.972235 254.263858 
L 351.813776 253.206682 
L 351.178925 249.384368 
L 350.737264 246.487097 
L 350.452928 243.52045 
L 350.222858 240.445853 
L 350.117571 236.821796 
L 350.116516 235.3021 
L 349.563043 233.805555 
L 348.933622 232.63607 
L 348.609125 231.733068 
L 348.393197 228.792863 
L 347.934151 225.110411 
L 382.420133 220.112031 
" clip-path="url(#pf206736187)" style="fill: #e0bd1f; stroke: #0000ff; stroke-width: 0.5"/>
    <path d="M 367.712651 257.37962 
L 368.999043 265.487628 
L 363.360888 266.297041 
L 362.108431 266.510652 
L 361.034528 258.674908 
L 367.712651 257.37962 
" clip-path="url(#pf206736187)" style="fill: #e0bd1f; stroke: #0000ff; stroke-width: 0.5"/>
    <path d="M 377.917065 256.406305 
L 388.799754 328.748891 
L 380.525871 330.57243 
L 368.481215 257.209334 
L 377.917065 256.406305 
" clip-path="url(#pf206736187)" style="fill: #e0bd1f; stroke: #0000ff; stroke-width: 0.5"/>
    <path d="M 407.200631 133.92 
L 407.456548 176.482029 
L 396.47632 178.982163 
L 386.089535 181.004605 
L 396.1849 253.293467 
L 386.993018 253.853582 
L 379.873081 201.298144 
L 377.816125 183.269154 
L 371.161779 146.36991 
L 387.693939 146.507771 
L 407.200631 133.92 
" clip-path="url(#pf206736187)" style="fill: #e0bd1f; stroke: #0000ff; stroke-width: 0.5"/>
    <path d="M 407.456548 176.482029 
L 415.549486 254.472411 
L 405.425677 253.994742 
L 396.47632 178.982163 
L 407.456548 176.482029 
" clip-path="url(#pf206736187)" style="fill: #e0bd1f; stroke: #0000ff; stroke-width: 0.5"/>
    <path d="M 416.414661 176.077835 
L 425.557572 254.940199 
L 415.549486 254.472411 
L 407.456548 176.482029 
L 416.414661 176.077835 
" clip-path="url(#pf206736187)" style="fill: #e0bd1f; stroke: #0000ff; stroke-width: 0.5"/>
    <path d="M 436.568457 175.476672 
L 445.073788 251.946184 
L 435.903814 254.944178 
L 425.557572 254.940199 
L 416.414661 176.077835 
L 436.568457 175.476672 
" clip-path="url(#pf206736187)" style="fill: #e0bd1f; stroke: #0000ff; stroke-width: 0.5"/>
    <path d="M 452.082145 171.630818 
L 462.988697 248.187428 
L 445.073788 251.946184 
L 436.568457 175.476672 
L 452.082145 171.630818 
" clip-path="url(#pf206736187)" style="fill: #e0bd1f; stroke: #0000ff; stroke-width: 0.5"/>
    <path d="M 463.49221 248.990263 
L 467.170782 311.544307 
L 450.254767 315.199888 
L 446.081849 253.373136 
L 463.49221 248.990263 
" clip-path="url(#pf206736187)" style="fill: #e0bd1f; stroke: #0000ff; stroke-width: 0.5"/>
    <path d="M 342.858879 191.122373 
L 352.308627 260.21493 
L 337.901968 263.251894 
L 345.292504 338.385648 
L 327.930066 342.235797 
L 313.327721 345.48458 
L 313.307896 343.136504 
L 277.888208 351.11509 
L 277.712675 349.84961 
L 276.235471 336.862676 
L 274.310294 321.809753 
L 272.483323 307.55155 
L 270.797167 293.899678 
L 269.04344 278.808792 
L 267.558163 266.464084 
L 265.834804 251.504022 
L 264.087596 237.339665 
L 262.253598 224.560019 
L 260.531009 208.903235 
L 308.091566 198.781971 
L 325.630057 194.995976 
L 342.858879 191.122373 
" clip-path="url(#pf206736187)" style="fill: #e0bd1f; stroke: #0000ff; stroke-width: 0.5"/>
    <path d="M 444.72034 253.029321 
L 449.145306 315.23405 
L 433.633888 319.46856 
L 416.419076 323.524491 
L 397.513604 326.82107 
L 387.133141 254.688784 
L 396.029011 254.438391 
L 405.468556 255.035607 
L 435.925618 255.662853 
L 444.72034 253.029321 
" clip-path="url(#pf206736187)" style="fill: #e0bd1f; stroke: #0000ff; stroke-width: 0.5"/>
    <path d="M 387.133141 254.688784 
L 397.513604 326.82107 
L 388.799754 328.748891 
L 377.917065 256.406305 
L 387.133141 254.688784 
" clip-path="url(#pf206736187)" style="fill: #e0bd1f; stroke: #0000ff; stroke-width: 0.5"/>
    <path d="M 358.526451 267.32807 
L 366.724224 326.205024 
L 378.688926 323.719352 
L 379.750192 330.747448 
L 362.704877 334.525935 
L 353.201531 268.780339 
L 358.526451 267.32807 
" clip-path="url(#pf206736187)" style="fill: #e0bd1f; stroke: #0000ff; stroke-width: 0.5"/>
    <path d="M 345.292504 338.385648 
L 348.929285 405.790387 
L 331.021048 409.48493 
L 327.930066 342.235797 
L 345.292504 338.385648 
" clip-path="url(#pf206736187)" style="fill: #e0bd1f; stroke: #0000ff; stroke-width: 0.5"/>
    <path d="M 352.308627 260.21493 
L 352.362398 260.398598 
L 353.201531 268.780339 
L 362.704877 334.525935 
L 345.292504 338.385648 
L 337.901968 263.251894 
L 352.308627 260.21493 
" clip-path="url(#pf206736187)" style="fill: #e0bd1f; stroke: #0000ff; stroke-width: 0.5"/>
    <path d="M 367.368904 405.835121 
L 366.934642 479.375616 
L 350.01294 482.917764 
L 349.502086 483.024724 
L 349.659113 409.497696 
L 350.181559 409.419661 
L 367.368904 405.835121 
" clip-path="url(#pf206736187)" style="fill: #e0bd1f; stroke: #0000ff; stroke-width: 0.5"/>
    <path d="M 399.926831 472.348652 
L 400.390214 609.384346 
L 423.30565 603.10857 
L 424.113025 684.088255 
L 416.847513 691.040191 
L 410.039954 694.0311 
L 404.380557 695.095966 
L 397.402623 682.319716 
L 390.281428 677.719951 
L 378.418929 677.794838 
L 365.537425 552.92088 
L 349.659618 554.192804 
L 349.502086 483.024724 
L 350.01294 482.917764 
L 366.935192 479.380985 
L 384.306247 475.741468 
L 399.926831 472.348652 
" clip-path="url(#pf206736187)" style="fill: #e0bd1f; stroke: #0000ff; stroke-width: 0.5"/>
    <path d="M 357.45181 259.397765 
L 358.526451 267.32807 
L 353.201531 268.780339 
L 352.362398 260.398598 
L 357.45181 259.397765 
" clip-path="url(#pf206736187)" style="fill: #e0bd1f; stroke: #0000ff; stroke-width: 0.5"/>
    <path d="M 363.360888 266.297041 
L 368.497408 300.108842 
L 374.441973 298.670784 
L 378.688926 323.719352 
L 366.724224 326.205024 
L 358.526451 267.32807 
L 362.160464 266.877004 
L 362.108431 266.510652 
L 363.360888 266.297041 
" clip-path="url(#pf206736187)" style="fill: #e0bd1f; stroke: #0000ff; stroke-width: 0.5"/>
    <path d="M 379.750192 330.747448 
L 383.081003 383.936868 
L 383.298064 387.487188 
L 383.96331 398.761344 
L 366.500016 402.349087 
L 365.778356 389.453945 
L 365.568874 385.723049 
L 362.704877 334.525935 
L 379.750192 330.747448 
" clip-path="url(#pf206736187)" style="fill: #e0bd1f; stroke: #0000ff; stroke-width: 0.5"/>
    <path d="M 368.999043 265.487628 
L 374.441973 298.670784 
L 368.497408 300.108842 
L 363.360888 266.297041 
L 368.999043 265.487628 
" clip-path="url(#pf206736187)" style="fill: #e0bd1f; stroke: #0000ff; stroke-width: 0.5"/>
    <path d="M 382.184632 402.72352 
L 384.306247 475.741468 
L 366.935192 479.375475 
L 367.368904 405.835121 
L 382.184632 402.72352 
" clip-path="url(#pf206736187)" style="fill: #e0bd1f; stroke: #0000ff; stroke-width: 0.5"/>
    <path d="M 399.660936 399.084003 
L 399.926831 472.348652 
L 384.306247 475.741468 
L 382.184632 402.72352 
L 399.660936 399.084003 
" clip-path="url(#pf206736187)" style="fill: #e0bd1f; stroke: #0000ff; stroke-width: 0.5"/>
    <path d="M 503.920904 581.299096 
L 504.112961 586.2325 
L 512.02313 583.527937 
L 512.2532 635.7407 
L 499.362984 629.950558 
L 493.930415 614.616187 
L 485.871593 610.941466 
L 476.345542 614.585384 
L 462.825944 639.111514 
L 461.409738 645.602038 
L 466.204213 659.736081 
L 463.910075 668.321135 
L 461.508501 654.72339 
L 456.240837 644.303711 
L 449.148982 639.535502 
L 438.454179 640.158778 
L 432.487632 646.054649 
L 431.08881 651.906476 
L 435.427481 658.05896 
L 427.92432 668.04141 
L 424.113025 684.088255 
L 423.30565 603.10857 
L 455.832813 594.198678 
L 503.920904 581.299096 
" clip-path="url(#pf206736187)" style="fill: #e0bd1f; stroke: #0000ff; stroke-width: 0.5"/>
    <path d="M 506.493947 376.801025 
L 506.144485 450.162564 
L 488.725689 453.824083 
L 489.125079 380.443833 
L 506.493947 376.801025 
" clip-path="url(#pf206736187)" style="fill: #e0bd1f; stroke: #0000ff; stroke-width: 0.5"/>
    <path d="M 557.741097 510.557324 
L 556.688416 553.689529 
L 504.900841 564.279873 
L 505.021287 557.675928 
L 505.495531 522.134357 
L 522.921945 518.384749 
L 540.151926 514.498569 
L 557.741097 510.557324 
" clip-path="url(#pf206736187)" style="fill: #e0bd1f; stroke: #0000ff; stroke-width: 0.5"/>
    <path d="M 524.05491 373.158217 
L 523.547029 446.515355 
L 506.144485 450.162564 
L 506.493947 376.801025 
L 524.05491 373.158217 
" clip-path="url(#pf206736187)" style="fill: #e0bd1f; stroke: #0000ff; stroke-width: 0.5"/>
    <path d="M 541.572469 369.481276 
L 540.597924 442.923211 
L 523.547029 446.515355 
L 524.05491 373.158217 
L 541.572469 369.481276 
" clip-path="url(#pf206736187)" style="fill: #e0bd1f; stroke: #0000ff; stroke-width: 0.5"/>
    <path d="M 518.942296 225.360859 
L 533.873319 297.301192 
L 519.466456 300.155694 
L 509.206544 302.828343 
L 502.521797 232.131631 
L 518.942296 225.360859 
" clip-path="url(#pf206736187)" style="fill: #e0bd1f; stroke: #0000ff; stroke-width: 0.5"/>
    <path d="M 549.87337 217.64545 
L 565.783393 290.492007 
L 554.632743 293.412666 
L 550.102068 293.793242 
L 536.879392 296.386337 
L 533.873319 297.301192 
L 518.942296 225.360859 
L 537.429885 218.232639 
L 549.87337 217.64545 
" clip-path="url(#pf206736187)" style="fill: #e0bd1f; stroke: #0000ff; stroke-width: 0.5"/>
   </g>
   <g id="PatchCollection_2">
    <path d="M 445.062507 251.827355 
L 445.340674 252.878823 
L 450.245825 315.194582 
L 519.469692 300.160316 
L 533.875088 297.300453 
L 538.059077 296.985113 
L 540.821362 366.028279 
L 541.559515 369.45303 
L 540.607213 442.9233 
L 506.145284 450.169099 
L 505.50197 522.138698 
L 558.701518 509.717411 
L 557.505093 553.51418 
L 504.889159 564.269882 
L 504.751513 585.112366 
L 511.929117 583.518102 
L 511.235142 639.100798 
L 504.557881 635.94994 
L 501.28788 633.975645 
L 498.874802 632.039002 
L 496.178392 629.399829 
L 494.476305 626.932562 
L 492.799823 622.896666 
L 492.040401 619.028667 
L 490.518587 616.321714 
L 489.466162 615.135229 
L 488.112251 614.246012 
L 485.487251 613.760946 
L 483.067712 614.204693 
L 480.323958 615.431568 
L 477.533031 617.549593 
L 475.248985 620.204971 
L 465.559665 638.104738 
L 462.942079 643.678007 
L 462.624707 645.518398 
L 462.97708 647.920948 
L 466.110282 654.887203 
L 466.830673 658.554621 
L 466.600013 662.9047 
L 465.349223 668.021107 
L 464.828569 669.199136 
L 464.1644 669.62584 
L 463.389195 669.486839 
L 462.428033 668.715775 
L 462.014255 667.990683 
L 461.212587 665.221863 
L 460.185494 657.161522 
L 459.400959 654.266122 
L 458.087781 651.439204 
L 453.851395 645.34737 
L 451.260752 643.367321 
L 446.355084 641.912835 
L 442.520805 641.963114 
L 439.498656 642.930403 
L 437.57491 644.132897 
L 435.928368 645.681244 
L 434.988883 646.956204 
L 434.050659 648.954301 
L 433.790567 650.622659 
L 433.934632 651.750068 
L 434.501506 653.315614 
L 436.291005 656.295518 
L 436.689837 658.81375 
L 434.766314 662.317852 
L 430.505433 667.328367 
L 429.340993 669.300753 
L 428.207335 672.649696 
L 427.098751 678.29109 
L 425.645317 682.274488 
L 420.771054 688.28076 
L 417.516482 691.578425 
L 413.774551 693.944198 
L 408.435809 696.415888 
L 406.189009 696.944435 
L 404.770283 696.846162 
L 401.25987 694.380033 
L 399.614527 692.016022 
L 397.686381 686.908933 
L 396.343678 684.251227 
L 394.831062 682.3632 
L 393.531579 681.344854 
L 391.466021 680.260813 
L 388.727171 679.448784 
L 382.982283 678.976284 
L 379.481882 679.44631 
L 377.328636 680.275976 
L 374.771107 681.811341 
L 369.664914 685.846913 
L 361.0104 689.938799 
L 357.426334 690.895507 
L 350.25993 692.23365 
L 346.097436 693.447584 
L 343.515282 694.939766 
L 339.171183 698.126581 
L 336.337646 699.651614 
L 334.155815 699.904075 
L 329.882752 699.332277 
L 328.633278 698.599275 
L 328.030405 697.854895 
L 327.454837 696.480972 
L 327.44795 694.966648 
L 328.869177 690.259304 
L 331.119731 685.913029 
L 332.518213 682.533999 
L 333.249758 679.644322 
L 333.131347 677.232958 
L 332.171106 674.189845 
L 330.429453 671.738023 
L 328.447298 670.134539 
L 325.318968 669.083414 
L 323.621266 669.078298 
L 321.432892 669.661737 
L 318.73681 671.502587 
L 316.720959 673.753728 
L 313.818796 679.216378 
L 312.364959 680.502648 
L 309.668929 680.984911 
L 303.464972 680.52762 
L 301.172028 681.168118 
L 298.471511 682.686255 
L 296.177718 684.858694 
L 295.159947 687.175108 
L 294.821441 690.17835 
L 295.282883 694.932667 
L 297.360346 702.934328 
L 298.405469 704.942721 
L 302.115454 710.367548 
L 303.874664 716.274988 
L 304.024771 717.765226 
L 303.685167 719.126935 
L 301.054993 723.59593 
L 299.637064 726.959715 
L 298.600263 730.272035 
L 298.06835 733.608174 
L 297.232209 735.983647 
L 296.030738 737.722033 
L 294.29252 738.575793 
L 291.796074 738.488706 
L 290.326697 737.678308 
L 287.149424 731.983701 
L 285.492323 729.561217 
L 281.97694 725.986197 
L 279.79346 724.715604 
L 278.169774 724.365274 
L 275.885771 724.491686 
L 268.154215 726.946205 
L 263.385507 727.560958 
L 259.286695 727.118622 
L 254.385983 725.123614 
L 247.421255 718.819194 
L 239.204352 492.771615 
L 248.016186 491.296405 
L 281.153037 487.009969 
L 280.317885 424.015894 
L 279.088034 420.216916 
L 277.88929 351.117581 
L 276.233687 336.862683 
L 270.797162 293.899671 
L 264.087591 237.339658 
L 262.253592 224.560012 
L 260.531004 208.903227 
L 440.501026 216.562091 
L 445.062507 251.827355 
L 445.062507 251.827355 
" clip-path="url(#pf206736187)" style="fill: none; stroke: #000000"/>
   </g>
   <g id="matplotlib.axis_1">
    <g id="xtick_1">
     <g id="line2d_1">
      <path d="M 156.792888 768.96 
L 156.792888 103.68 
" clip-path="url(#pf206736187)" style="fill: none; stroke: #b0b0b0; stroke-width: 0.8; stroke-linecap: square"/>
     </g>
     <g id="line2d_2">
      <defs>
       <path id="m63d9a63247" d="M 0 0 
L 0 3.5 
" style="stroke: #000000; stroke-width: 0.8"/>
      </defs>
      <g>
       <use xlink:href="#m63d9a63247" x="156.792888" y="768.96" style="stroke: #000000; stroke-width: 0.8"/>
      </g>
     </g>
     <g id="text_1">
      <!-- −66.32 -->
      <g transform="translate(145.659823 807.501382) rotate(-45) scale(0.1 -0.1)">
       <defs>
        <path id="DejaVuSans-2212" d="M 678 2272 
L 4684 2272 
L 4684 1741 
L 678 1741 
L 678 2272 
z
" transform="scale(0.015625)"/>
        <path id="DejaVuSans-36" d="M 2113 2584 
Q 1688 2584 1439 2293 
Q 1191 2003 1191 1497 
Q 1191 994 1439 701 
Q 1688 409 2113 409 
Q 2538 409 2786 701 
Q 3034 994 3034 1497 
Q 3034 2003 2786 2293 
Q 2538 2584 2113 2584 
z
M 3366 4563 
L 3366 3988 
Q 3128 4100 2886 4159 
Q 2644 4219 2406 4219 
Q 1781 4219 1451 3797 
Q 1122 3375 1075 2522 
Q 1259 2794 1537 2939 
Q 1816 3084 2150 3084 
Q 2853 3084 3261 2657 
Q 3669 2231 3669 1497 
Q 3669 778 3244 343 
Q 2819 -91 2113 -91 
Q 1303 -91 875 529 
Q 447 1150 447 2328 
Q 447 3434 972 4092 
Q 1497 4750 2381 4750 
Q 2619 4750 2861 4703 
Q 3103 4656 3366 4563 
z
" transform="scale(0.015625)"/>
        <path id="DejaVuSans-2e" d="M 684 794 
L 1344 794 
L 1344 0 
L 684 0 
L 684 794 
z
" transform="scale(0.015625)"/>
        <path id="DejaVuSans-33" d="M 2597 2516 
Q 3050 2419 3304 2112 
Q 3559 1806 3559 1356 
Q 3559 666 3084 287 
Q 2609 -91 1734 -91 
Q 1441 -91 1130 -33 
Q 819 25 488 141 
L 488 750 
Q 750 597 1062 519 
Q 1375 441 1716 441 
Q 2309 441 2620 675 
Q 2931 909 2931 1356 
Q 2931 1769 2642 2001 
Q 2353 2234 1838 2234 
L 1294 2234 
L 1294 2753 
L 1863 2753 
Q 2328 2753 2575 2939 
Q 2822 3125 2822 3475 
Q 2822 3834 2567 4026 
Q 2313 4219 1838 4219 
Q 1578 4219 1281 4162 
Q 984 4106 628 3988 
L 628 4550 
Q 988 4650 1302 4700 
Q 1616 4750 1894 4750 
Q 2613 4750 3031 4423 
Q 3450 4097 3450 3541 
Q 3450 3153 3228 2886 
Q 3006 2619 2597 2516 
z
" transform="scale(0.015625)"/>
        <path id="DejaVuSans-32" d="M 1228 531 
L 3431 531 
L 3431 0 
L 469 0 
L 469 531 
Q 828 903 1448 1529 
Q 2069 2156 2228 2338 
Q 2531 2678 2651 2914 
Q 2772 3150 2772 3378 
Q 2772 3750 2511 3984 
Q 2250 4219 1831 4219 
Q 1534 4219 1204 4116 
Q 875 4013 500 3803 
L 500 4441 
Q 881 4594 1212 4672 
Q 1544 4750 1819 4750 
Q 2544 4750 2975 4387 
Q 3406 4025 3406 3419 
Q 3406 3131 3298 2873 
Q 3191 2616 2906 2266 
Q 2828 2175 2409 1742 
Q 1991 1309 1228 531 
z
" transform="scale(0.015625)"/>
       </defs>
       <use xlink:href="#DejaVuSans-2212"/>
       <use xlink:href="#DejaVuSans-36" transform="translate(83.789062 0)"/>
       <use xlink:href="#DejaVuSans-36" transform="translate(147.412109 0)"/>
       <use xlink:href="#DejaVuSans-2e" transform="translate(211.035156 0)"/>
       <use xlink:href="#DejaVuSans-33" transform="translate(242.822266 0)"/>
       <use xlink:href="#DejaVuSans-32" transform="translate(306.445312 0)"/>
      </g>
     </g>
    </g>
    <g id="xtick_2">
     <g id="line2d_3">
      <path d="M 234.928432 768.96 
L 234.928432 103.68 
" clip-path="url(#pf206736187)" style="fill: none; stroke: #b0b0b0; stroke-width: 0.8; stroke-linecap: square"/>
     </g>
     <g id="line2d_4">
      <g>
       <use xlink:href="#m63d9a63247" x="234.928432" y="768.96" style="stroke: #000000; stroke-width: 0.8"/>
      </g>
     </g>
     <g id="text_2">
      <!-- −66.30 -->
      <g transform="translate(223.795368 807.501382) rotate(-45) scale(0.1 -0.1)">
       <defs>
        <path id="DejaVuSans-30" d="M 2034 4250 
Q 1547 4250 1301 3770 
Q 1056 3291 1056 2328 
Q 1056 1369 1301 889 
Q 1547 409 2034 409 
Q 2525 409 2770 889 
Q 3016 1369 3016 2328 
Q 3016 3291 2770 3770 
Q 2525 4250 2034 4250 
z
M 2034 4750 
Q 2819 4750 3233 4129 
Q 3647 3509 3647 2328 
Q 3647 1150 3233 529 
Q 2819 -91 2034 -91 
Q 1250 -91 836 529 
Q 422 1150 422 2328 
Q 422 3509 836 4129 
Q 1250 4750 2034 4750 
z
" transform="scale(0.015625)"/>
       </defs>
       <use xlink:href="#DejaVuSans-2212"/>
       <use xlink:href="#DejaVuSans-36" transform="translate(83.789062 0)"/>
       <use xlink:href="#DejaVuSans-36" transform="translate(147.412109 0)"/>
       <use xlink:href="#DejaVuSans-2e" transform="translate(211.035156 0)"/>
       <use xlink:href="#DejaVuSans-33" transform="translate(242.822266 0)"/>
       <use xlink:href="#DejaVuSans-30" transform="translate(306.445312 0)"/>
      </g>
     </g>
    </g>
    <g id="xtick_3">
     <g id="line2d_5">
      <path d="M 313.063977 768.96 
L 313.063977 103.68 
" clip-path="url(#pf206736187)" style="fill: none; stroke: #b0b0b0; stroke-width: 0.8; stroke-linecap: square"/>
     </g>
     <g id="line2d_6">
      <g>
       <use xlink:href="#m63d9a63247" x="313.063977" y="768.96" style="stroke: #000000; stroke-width: 0.8"/>
      </g>
     </g>
     <g id="text_3">
      <!-- −66.28 -->
      <g transform="translate(301.930912 807.501382) rotate(-45) scale(0.1 -0.1)">
       <defs>
        <path id="DejaVuSans-38" d="M 2034 2216 
Q 1584 2216 1326 1975 
Q 1069 1734 1069 1313 
Q 1069 891 1326 650 
Q 1584 409 2034 409 
Q 2484 409 2743 651 
Q 3003 894 3003 1313 
Q 3003 1734 2745 1975 
Q 2488 2216 2034 2216 
z
M 1403 2484 
Q 997 2584 770 2862 
Q 544 3141 544 3541 
Q 544 4100 942 4425 
Q 1341 4750 2034 4750 
Q 2731 4750 3128 4425 
Q 3525 4100 3525 3541 
Q 3525 3141 3298 2862 
Q 3072 2584 2669 2484 
Q 3125 2378 3379 2068 
Q 3634 1759 3634 1313 
Q 3634 634 3220 271 
Q 2806 -91 2034 -91 
Q 1263 -91 848 271 
Q 434 634 434 1313 
Q 434 1759 690 2068 
Q 947 2378 1403 2484 
z
M 1172 3481 
Q 1172 3119 1398 2916 
Q 1625 2713 2034 2713 
Q 2441 2713 2670 2916 
Q 2900 3119 2900 3481 
Q 2900 3844 2670 4047 
Q 2441 4250 2034 4250 
Q 1625 4250 1398 4047 
Q 1172 3844 1172 3481 
z
" transform="scale(0.015625)"/>
       </defs>
       <use xlink:href="#DejaVuSans-2212"/>
       <use xlink:href="#DejaVuSans-36" transform="translate(83.789062 0)"/>
       <use xlink:href="#DejaVuSans-36" transform="translate(147.412109 0)"/>
       <use xlink:href="#DejaVuSans-2e" transform="translate(211.035156 0)"/>
       <use xlink:href="#DejaVuSans-32" transform="translate(242.822266 0)"/>
       <use xlink:href="#DejaVuSans-38" transform="translate(306.445312 0)"/>
      </g>
     </g>
    </g>
    <g id="xtick_4">
     <g id="line2d_7">
      <path d="M 391.199521 768.96 
L 391.199521 103.68 
" clip-path="url(#pf206736187)" style="fill: none; stroke: #b0b0b0; stroke-width: 0.8; stroke-linecap: square"/>
     </g>
     <g id="line2d_8">
      <g>
       <use xlink:href="#m63d9a63247" x="391.199521" y="768.96" style="stroke: #000000; stroke-width: 0.8"/>
      </g>
     </g>
     <g id="text_4">
      <!-- −66.26 -->
      <g transform="translate(380.066456 807.501382) rotate(-45) scale(0.1 -0.1)">
       <use xlink:href="#DejaVuSans-2212"/>
       <use xlink:href="#DejaVuSans-36" transform="translate(83.789062 0)"/>
       <use xlink:href="#DejaVuSans-36" transform="translate(147.412109 0)"/>
       <use xlink:href="#DejaVuSans-2e" transform="translate(211.035156 0)"/>
       <use xlink:href="#DejaVuSans-32" transform="translate(242.822266 0)"/>
       <use xlink:href="#DejaVuSans-36" transform="translate(306.445312 0)"/>
      </g>
     </g>
    </g>
    <g id="xtick_5">
     <g id="line2d_9">
      <path d="M 469.335065 768.96 
L 469.335065 103.68 
" clip-path="url(#pf206736187)" style="fill: none; stroke: #b0b0b0; stroke-width: 0.8; stroke-linecap: square"/>
     </g>
     <g id="line2d_10">
      <g>
       <use xlink:href="#m63d9a63247" x="469.335065" y="768.96" style="stroke: #000000; stroke-width: 0.8"/>
      </g>
     </g>
     <g id="text_5">
      <!-- −66.24 -->
      <g transform="translate(458.202 807.501382) rotate(-45) scale(0.1 -0.1)">
       <defs>
        <path id="DejaVuSans-34" d="M 2419 4116 
L 825 1625 
L 2419 1625 
L 2419 4116 
z
M 2253 4666 
L 3047 4666 
L 3047 1625 
L 3713 1625 
L 3713 1100 
L 3047 1100 
L 3047 0 
L 2419 0 
L 2419 1100 
L 313 1100 
L 313 1709 
L 2253 4666 
z
" transform="scale(0.015625)"/>
       </defs>
       <use xlink:href="#DejaVuSans-2212"/>
       <use xlink:href="#DejaVuSans-36" transform="translate(83.789062 0)"/>
       <use xlink:href="#DejaVuSans-36" transform="translate(147.412109 0)"/>
       <use xlink:href="#DejaVuSans-2e" transform="translate(211.035156 0)"/>
       <use xlink:href="#DejaVuSans-32" transform="translate(242.822266 0)"/>
       <use xlink:href="#DejaVuSans-34" transform="translate(306.445312 0)"/>
      </g>
     </g>
    </g>
    <g id="xtick_6">
     <g id="line2d_11">
      <path d="M 547.470609 768.96 
L 547.470609 103.68 
" clip-path="url(#pf206736187)" style="fill: none; stroke: #b0b0b0; stroke-width: 0.8; stroke-linecap: square"/>
     </g>
     <g id="line2d_12">
      <g>
       <use xlink:href="#m63d9a63247" x="547.470609" y="768.96" style="stroke: #000000; stroke-width: 0.8"/>
      </g>
     </g>
     <g id="text_6">
      <!-- −66.22 -->
      <g transform="translate(536.337544 807.501382) rotate(-45) scale(0.1 -0.1)">
       <use xlink:href="#DejaVuSans-2212"/>
       <use xlink:href="#DejaVuSans-36" transform="translate(83.789062 0)"/>
       <use xlink:href="#DejaVuSans-36" transform="translate(147.412109 0)"/>
       <use xlink:href="#DejaVuSans-2e" transform="translate(211.035156 0)"/>
       <use xlink:href="#DejaVuSans-32" transform="translate(242.822266 0)"/>
       <use xlink:href="#DejaVuSans-32" transform="translate(306.445312 0)"/>
      </g>
     </g>
    </g>
    <g id="text_7">
     <!-- Longitude (°) -->
     <g transform="translate(336.139844 820.57038) scale(0.1 -0.1)">
      <defs>
       <path id="DejaVuSans-4c" d="M 628 4666 
L 1259 4666 
L 1259 531 
L 3531 531 
L 3531 0 
L 628 0 
L 628 4666 
z
" transform="scale(0.015625)"/>
       <path id="DejaVuSans-6f" d="M 1959 3097 
Q 1497 3097 1228 2736 
Q 959 2375 959 1747 
Q 959 1119 1226 758 
Q 1494 397 1959 397 
Q 2419 397 2687 759 
Q 2956 1122 2956 1747 
Q 2956 2369 2687 2733 
Q 2419 3097 1959 3097 
z
M 1959 3584 
Q 2709 3584 3137 3096 
Q 3566 2609 3566 1747 
Q 3566 888 3137 398 
Q 2709 -91 1959 -91 
Q 1206 -91 779 398 
Q 353 888 353 1747 
Q 353 2609 779 3096 
Q 1206 3584 1959 3584 
z
" transform="scale(0.015625)"/>
       <path id="DejaVuSans-6e" d="M 3513 2113 
L 3513 0 
L 2938 0 
L 2938 2094 
Q 2938 2591 2744 2837 
Q 2550 3084 2163 3084 
Q 1697 3084 1428 2787 
Q 1159 2491 1159 1978 
L 1159 0 
L 581 0 
L 581 3500 
L 1159 3500 
L 1159 2956 
Q 1366 3272 1645 3428 
Q 1925 3584 2291 3584 
Q 2894 3584 3203 3211 
Q 3513 2838 3513 2113 
z
" transform="scale(0.015625)"/>
       <path id="DejaVuSans-67" d="M 2906 1791 
Q 2906 2416 2648 2759 
Q 2391 3103 1925 3103 
Q 1463 3103 1205 2759 
Q 947 2416 947 1791 
Q 947 1169 1205 825 
Q 1463 481 1925 481 
Q 2391 481 2648 825 
Q 2906 1169 2906 1791 
z
M 3481 434 
Q 3481 -459 3084 -895 
Q 2688 -1331 1869 -1331 
Q 1566 -1331 1297 -1286 
Q 1028 -1241 775 -1147 
L 775 -588 
Q 1028 -725 1275 -790 
Q 1522 -856 1778 -856 
Q 2344 -856 2625 -561 
Q 2906 -266 2906 331 
L 2906 616 
Q 2728 306 2450 153 
Q 2172 0 1784 0 
Q 1141 0 747 490 
Q 353 981 353 1791 
Q 353 2603 747 3093 
Q 1141 3584 1784 3584 
Q 2172 3584 2450 3431 
Q 2728 3278 2906 2969 
L 2906 3500 
L 3481 3500 
L 3481 434 
z
" transform="scale(0.015625)"/>
       <path id="DejaVuSans-69" d="M 603 3500 
L 1178 3500 
L 1178 0 
L 603 0 
L 603 3500 
z
M 603 4863 
L 1178 4863 
L 1178 4134 
L 603 4134 
L 603 4863 
z
" transform="scale(0.015625)"/>
       <path id="DejaVuSans-74" d="M 1172 4494 
L 1172 3500 
L 2356 3500 
L 2356 3053 
L 1172 3053 
L 1172 1153 
Q 1172 725 1289 603 
Q 1406 481 1766 481 
L 2356 481 
L 2356 0 
L 1766 0 
Q 1100 0 847 248 
Q 594 497 594 1153 
L 594 3053 
L 172 3053 
L 172 3500 
L 594 3500 
L 594 4494 
L 1172 4494 
z
" transform="scale(0.015625)"/>
       <path id="DejaVuSans-75" d="M 544 1381 
L 544 3500 
L 1119 3500 
L 1119 1403 
Q 1119 906 1312 657 
Q 1506 409 1894 409 
Q 2359 409 2629 706 
Q 2900 1003 2900 1516 
L 2900 3500 
L 3475 3500 
L 3475 0 
L 2900 0 
L 2900 538 
Q 2691 219 2414 64 
Q 2138 -91 1772 -91 
Q 1169 -91 856 284 
Q 544 659 544 1381 
z
M 1991 3584 
L 1991 3584 
z
" transform="scale(0.015625)"/>
       <path id="DejaVuSans-64" d="M 2906 2969 
L 2906 4863 
L 3481 4863 
L 3481 0 
L 2906 0 
L 2906 525 
Q 2725 213 2448 61 
Q 2172 -91 1784 -91 
Q 1150 -91 751 415 
Q 353 922 353 1747 
Q 353 2572 751 3078 
Q 1150 3584 1784 3584 
Q 2172 3584 2448 3432 
Q 2725 3281 2906 2969 
z
M 947 1747 
Q 947 1113 1208 752 
Q 1469 391 1925 391 
Q 2381 391 2643 752 
Q 2906 1113 2906 1747 
Q 2906 2381 2643 2742 
Q 2381 3103 1925 3103 
Q 1469 3103 1208 2742 
Q 947 2381 947 1747 
z
" transform="scale(0.015625)"/>
       <path id="DejaVuSans-65" d="M 3597 1894 
L 3597 1613 
L 953 1613 
Q 991 1019 1311 708 
Q 1631 397 2203 397 
Q 2534 397 2845 478 
Q 3156 559 3463 722 
L 3463 178 
Q 3153 47 2828 -22 
Q 2503 -91 2169 -91 
Q 1331 -91 842 396 
Q 353 884 353 1716 
Q 353 2575 817 3079 
Q 1281 3584 2069 3584 
Q 2775 3584 3186 3129 
Q 3597 2675 3597 1894 
z
M 3022 2063 
Q 3016 2534 2758 2815 
Q 2500 3097 2075 3097 
Q 1594 3097 1305 2825 
Q 1016 2553 972 2059 
L 3022 2063 
z
" transform="scale(0.015625)"/>
       <path id="DejaVuSans-20" transform="scale(0.015625)"/>
       <path id="DejaVuSans-28" d="M 1984 4856 
Q 1566 4138 1362 3434 
Q 1159 2731 1159 2009 
Q 1159 1288 1364 580 
Q 1569 -128 1984 -844 
L 1484 -844 
Q 1016 -109 783 600 
Q 550 1309 550 2009 
Q 550 2706 781 3412 
Q 1013 4119 1484 4856 
L 1984 4856 
z
" transform="scale(0.015625)"/>
       <path id="DejaVuSans-b0" d="M 1600 4347 
Q 1350 4347 1178 4173 
Q 1006 4000 1006 3750 
Q 1006 3503 1178 3333 
Q 1350 3163 1600 3163 
Q 1850 3163 2022 3333 
Q 2194 3503 2194 3750 
Q 2194 3997 2020 4172 
Q 1847 4347 1600 4347 
z
M 1600 4750 
Q 1800 4750 1984 4673 
Q 2169 4597 2303 4453 
Q 2447 4313 2519 4134 
Q 2591 3956 2591 3750 
Q 2591 3338 2302 3052 
Q 2013 2766 1594 2766 
Q 1172 2766 890 3047 
Q 609 3328 609 3750 
Q 609 4169 896 4459 
Q 1184 4750 1600 4750 
z
" transform="scale(0.015625)"/>
       <path id="DejaVuSans-29" d="M 513 4856 
L 1013 4856 
Q 1481 4119 1714 3412 
Q 1947 2706 1947 2009 
Q 1947 1309 1714 600 
Q 1481 -109 1013 -844 
L 513 -844 
Q 928 -128 1133 580 
Q 1338 1288 1338 2009 
Q 1338 2731 1133 3434 
Q 928 4138 513 4856 
z
" transform="scale(0.015625)"/>
      </defs>
      <use xlink:href="#DejaVuSans-4c"/>
      <use xlink:href="#DejaVuSans-6f" transform="translate(53.962891 0)"/>
      <use xlink:href="#DejaVuSans-6e" transform="translate(115.144531 0)"/>
      <use xlink:href="#DejaVuSans-67" transform="translate(178.523438 0)"/>
      <use xlink:href="#DejaVuSans-69" transform="translate(242 0)"/>
      <use xlink:href="#DejaVuSans-74" transform="translate(269.783203 0)"/>
      <use xlink:href="#DejaVuSans-75" transform="translate(308.992188 0)"/>
      <use xlink:href="#DejaVuSans-64" transform="translate(372.371094 0)"/>
      <use xlink:href="#DejaVuSans-65" transform="translate(435.847656 0)"/>
      <use xlink:href="#DejaVuSans-20" transform="translate(497.371094 0)"/>
      <use xlink:href="#DejaVuSans-28" transform="translate(529.158203 0)"/>
      <use xlink:href="#DejaVuSans-b0" transform="translate(568.171875 0)"/>
      <use xlink:href="#DejaVuSans-29" transform="translate(618.171875 0)"/>
     </g>
    </g>
   </g>
   <g id="matplotlib.axis_2">
    <g id="ytick_1">
     <g id="line2d_13">
      <path d="M 152.538267 722.770469 
L 585.461733 722.770469 
" clip-path="url(#pf206736187)" style="fill: none; stroke: #b0b0b0; stroke-width: 0.8; stroke-linecap: square"/>
     </g>
     <g id="line2d_14">
      <defs>
       <path id="meffb2d990c" d="M 0 0 
L -3.5 0 
" style="stroke: #000000; stroke-width: 0.8"/>
      </defs>
      <g>
       <use xlink:href="#meffb2d990c" x="152.538267" y="722.770469" style="stroke: #000000; stroke-width: 0.8"/>
      </g>
     </g>
     <g id="text_8">
      <!-- −9.84 -->
      <g transform="translate(114.892955 726.569688) scale(0.1 -0.1)">
       <defs>
        <path id="DejaVuSans-39" d="M 703 97 
L 703 672 
Q 941 559 1184 500 
Q 1428 441 1663 441 
Q 2288 441 2617 861 
Q 2947 1281 2994 2138 
Q 2813 1869 2534 1725 
Q 2256 1581 1919 1581 
Q 1219 1581 811 2004 
Q 403 2428 403 3163 
Q 403 3881 828 4315 
Q 1253 4750 1959 4750 
Q 2769 4750 3195 4129 
Q 3622 3509 3622 2328 
Q 3622 1225 3098 567 
Q 2575 -91 1691 -91 
Q 1453 -91 1209 -44 
Q 966 3 703 97 
z
M 1959 2075 
Q 2384 2075 2632 2365 
Q 2881 2656 2881 3163 
Q 2881 3666 2632 3958 
Q 2384 4250 1959 4250 
Q 1534 4250 1286 3958 
Q 1038 3666 1038 3163 
Q 1038 2656 1286 2365 
Q 1534 2075 1959 2075 
z
" transform="scale(0.015625)"/>
       </defs>
       <use xlink:href="#DejaVuSans-2212"/>
       <use xlink:href="#DejaVuSans-39" transform="translate(83.789062 0)"/>
       <use xlink:href="#DejaVuSans-2e" transform="translate(147.412109 0)"/>
       <use xlink:href="#DejaVuSans-38" transform="translate(179.199219 0)"/>
       <use xlink:href="#DejaVuSans-34" transform="translate(242.822266 0)"/>
      </g>
     </g>
    </g>
    <g id="ytick_2">
     <g id="line2d_15">
      <path d="M 152.538267 643.483327 
L 585.461733 643.483327 
" clip-path="url(#pf206736187)" style="fill: none; stroke: #b0b0b0; stroke-width: 0.8; stroke-linecap: square"/>
     </g>
     <g id="line2d_16">
      <g>
       <use xlink:href="#meffb2d990c" x="152.538267" y="643.483327" style="stroke: #000000; stroke-width: 0.8"/>
      </g>
     </g>
     <g id="text_9">
      <!-- −9.82 -->
      <g transform="translate(114.892955 647.282546) scale(0.1 -0.1)">
       <use xlink:href="#DejaVuSans-2212"/>
       <use xlink:href="#DejaVuSans-39" transform="translate(83.789062 0)"/>
       <use xlink:href="#DejaVuSans-2e" transform="translate(147.412109 0)"/>
       <use xlink:href="#DejaVuSans-38" transform="translate(179.199219 0)"/>
       <use xlink:href="#DejaVuSans-32" transform="translate(242.822266 0)"/>
      </g>
     </g>
    </g>
    <g id="ytick_3">
     <g id="line2d_17">
      <path d="M 152.538267 564.196185 
L 585.461733 564.196185 
" clip-path="url(#pf206736187)" style="fill: none; stroke: #b0b0b0; stroke-width: 0.8; stroke-linecap: square"/>
     </g>
     <g id="line2d_18">
      <g>
       <use xlink:href="#meffb2d990c" x="152.538267" y="564.196185" style="stroke: #000000; stroke-width: 0.8"/>
      </g>
     </g>
     <g id="text_10">
      <!-- −9.80 -->
      <g transform="translate(114.892955 567.995404) scale(0.1 -0.1)">
       <use xlink:href="#DejaVuSans-2212"/>
       <use xlink:href="#DejaVuSans-39" transform="translate(83.789062 0)"/>
       <use xlink:href="#DejaVuSans-2e" transform="translate(147.412109 0)"/>
       <use xlink:href="#DejaVuSans-38" transform="translate(179.199219 0)"/>
       <use xlink:href="#DejaVuSans-30" transform="translate(242.822266 0)"/>
      </g>
     </g>
    </g>
    <g id="ytick_4">
     <g id="line2d_19">
      <path d="M 152.538267 484.909043 
L 585.461733 484.909043 
" clip-path="url(#pf206736187)" style="fill: none; stroke: #b0b0b0; stroke-width: 0.8; stroke-linecap: square"/>
     </g>
     <g id="line2d_20">
      <g>
       <use xlink:href="#meffb2d990c" x="152.538267" y="484.909043" style="stroke: #000000; stroke-width: 0.8"/>
      </g>
     </g>
     <g id="text_11">
      <!-- −9.78 -->
      <g transform="translate(114.892955 488.708262) scale(0.1 -0.1)">
       <defs>
        <path id="DejaVuSans-37" d="M 525 4666 
L 3525 4666 
L 3525 4397 
L 1831 0 
L 1172 0 
L 2766 4134 
L 525 4134 
L 525 4666 
z
" transform="scale(0.015625)"/>
       </defs>
       <use xlink:href="#DejaVuSans-2212"/>
       <use xlink:href="#DejaVuSans-39" transform="translate(83.789062 0)"/>
       <use xlink:href="#DejaVuSans-2e" transform="translate(147.412109 0)"/>
       <use xlink:href="#DejaVuSans-37" transform="translate(179.199219 0)"/>
       <use xlink:href="#DejaVuSans-38" transform="translate(242.822266 0)"/>
      </g>
     </g>
    </g>
    <g id="ytick_5">
     <g id="line2d_21">
      <path d="M 152.538267 405.621902 
L 585.461733 405.621902 
" clip-path="url(#pf206736187)" style="fill: none; stroke: #b0b0b0; stroke-width: 0.8; stroke-linecap: square"/>
     </g>
     <g id="line2d_22">
      <g>
       <use xlink:href="#meffb2d990c" x="152.538267" y="405.621902" style="stroke: #000000; stroke-width: 0.8"/>
      </g>
     </g>
     <g id="text_12">
      <!-- −9.76 -->
      <g transform="translate(114.892955 409.42112) scale(0.1 -0.1)">
       <use xlink:href="#DejaVuSans-2212"/>
       <use xlink:href="#DejaVuSans-39" transform="translate(83.789062 0)"/>
       <use xlink:href="#DejaVuSans-2e" transform="translate(147.412109 0)"/>
       <use xlink:href="#DejaVuSans-37" transform="translate(179.199219 0)"/>
       <use xlink:href="#DejaVuSans-36" transform="translate(242.822266 0)"/>
      </g>
     </g>
    </g>
    <g id="ytick_6">
     <g id="line2d_23">
      <path d="M 152.538267 326.33476 
L 585.461733 326.33476 
" clip-path="url(#pf206736187)" style="fill: none; stroke: #b0b0b0; stroke-width: 0.8; stroke-linecap: square"/>
     </g>
     <g id="line2d_24">
      <g>
       <use xlink:href="#meffb2d990c" x="152.538267" y="326.33476" style="stroke: #000000; stroke-width: 0.8"/>
      </g>
     </g>
     <g id="text_13">
      <!-- −9.74 -->
      <g transform="translate(114.892955 330.133978) scale(0.1 -0.1)">
       <use xlink:href="#DejaVuSans-2212"/>
       <use xlink:href="#DejaVuSans-39" transform="translate(83.789062 0)"/>
       <use xlink:href="#DejaVuSans-2e" transform="translate(147.412109 0)"/>
       <use xlink:href="#DejaVuSans-37" transform="translate(179.199219 0)"/>
       <use xlink:href="#DejaVuSans-34" transform="translate(242.822266 0)"/>
      </g>
     </g>
    </g>
    <g id="ytick_7">
     <g id="line2d_25">
      <path d="M 152.538267 247.047618 
L 585.461733 247.047618 
" clip-path="url(#pf206736187)" style="fill: none; stroke: #b0b0b0; stroke-width: 0.8; stroke-linecap: square"/>
     </g>
     <g id="line2d_26">
      <g>
       <use xlink:href="#meffb2d990c" x="152.538267" y="247.047618" style="stroke: #000000; stroke-width: 0.8"/>
      </g>
     </g>
     <g id="text_14">
      <!-- −9.72 -->
      <g transform="translate(114.892955 250.846836) scale(0.1 -0.1)">
       <use xlink:href="#DejaVuSans-2212"/>
       <use xlink:href="#DejaVuSans-39" transform="translate(83.789062 0)"/>
       <use xlink:href="#DejaVuSans-2e" transform="translate(147.412109 0)"/>
       <use xlink:href="#DejaVuSans-37" transform="translate(179.199219 0)"/>
       <use xlink:href="#DejaVuSans-32" transform="translate(242.822266 0)"/>
      </g>
     </g>
    </g>
    <g id="ytick_8">
     <g id="line2d_27">
      <path d="M 152.538267 167.760476 
L 585.461733 167.760476 
" clip-path="url(#pf206736187)" style="fill: none; stroke: #b0b0b0; stroke-width: 0.8; stroke-linecap: square"/>
     </g>
     <g id="line2d_28">
      <g>
       <use xlink:href="#meffb2d990c" x="152.538267" y="167.760476" style="stroke: #000000; stroke-width: 0.8"/>
      </g>
     </g>
     <g id="text_15">
      <!-- −9.70 -->
      <g transform="translate(114.892955 171.559694) scale(0.1 -0.1)">
       <use xlink:href="#DejaVuSans-2212"/>
       <use xlink:href="#DejaVuSans-39" transform="translate(83.789062 0)"/>
       <use xlink:href="#DejaVuSans-2e" transform="translate(147.412109 0)"/>
       <use xlink:href="#DejaVuSans-37" transform="translate(179.199219 0)"/>
       <use xlink:href="#DejaVuSans-30" transform="translate(242.822266 0)"/>
      </g>
     </g>
    </g>
    <g id="text_16">
     <!-- Latitude (°) -->
     <g transform="translate(108.813267 464.889531) rotate(-90) scale(0.1 -0.1)">
      <defs>
       <path id="DejaVuSans-61" d="M 2194 1759 
Q 1497 1759 1228 1600 
Q 959 1441 959 1056 
Q 959 750 1161 570 
Q 1363 391 1709 391 
Q 2188 391 2477 730 
Q 2766 1069 2766 1631 
L 2766 1759 
L 2194 1759 
z
M 3341 1997 
L 3341 0 
L 2766 0 
L 2766 531 
Q 2569 213 2275 61 
Q 1981 -91 1556 -91 
Q 1019 -91 701 211 
Q 384 513 384 1019 
Q 384 1609 779 1909 
Q 1175 2209 1959 2209 
L 2766 2209 
L 2766 2266 
Q 2766 2663 2505 2880 
Q 2244 3097 1772 3097 
Q 1472 3097 1187 3025 
Q 903 2953 641 2809 
L 641 3341 
Q 956 3463 1253 3523 
Q 1550 3584 1831 3584 
Q 2591 3584 2966 3190 
Q 3341 2797 3341 1997 
z
" transform="scale(0.015625)"/>
      </defs>
      <use xlink:href="#DejaVuSans-4c"/>
      <use xlink:href="#DejaVuSans-61" transform="translate(55.712891 0)"/>
      <use xlink:href="#DejaVuSans-74" transform="translate(116.992188 0)"/>
      <use xlink:href="#DejaVuSans-69" transform="translate(156.201172 0)"/>
      <use xlink:href="#DejaVuSans-74" transform="translate(183.984375 0)"/>
      <use xlink:href="#DejaVuSans-75" transform="translate(223.193359 0)"/>
      <use xlink:href="#DejaVuSans-64" transform="translate(286.572266 0)"/>
      <use xlink:href="#DejaVuSans-65" transform="translate(350.048828 0)"/>
      <use xlink:href="#DejaVuSans-20" transform="translate(411.572266 0)"/>
      <use xlink:href="#DejaVuSans-28" transform="translate(443.359375 0)"/>
      <use xlink:href="#DejaVuSans-b0" transform="translate(482.373047 0)"/>
      <use xlink:href="#DejaVuSans-29" transform="translate(532.373047 0)"/>
     </g>
    </g>
   </g>
   <g id="patch_3">
    <path d="M 152.538267 768.96 
L 152.538267 103.68 
" style="fill: none; stroke: #000000; stroke-width: 0.8; stroke-linejoin: miter; stroke-linecap: square"/>
   </g>
   <g id="patch_4">
    <path d="M 585.461733 768.96 
L 585.461733 103.68 
" style="fill: none; stroke: #000000; stroke-width: 0.8; stroke-linejoin: miter; stroke-linecap: square"/>
   </g>
   <g id="patch_5">
    <path d="M 152.538267 768.96 
L 585.461733 768.96 
" style="fill: none; stroke: #000000; stroke-width: 0.8; stroke-linejoin: miter; stroke-linecap: square"/>
   </g>
   <g id="patch_6">
    <path d="M 152.538267 103.68 
L 585.461733 103.68 
" style="fill: none; stroke: #000000; stroke-width: 0.8; stroke-linejoin: miter; stroke-linecap: square"/>
   </g>
   <g id="legend_1">
    <g id="patch_7">
     <path d="M 279.8375 941.307875 
L 458.1625 941.307875 
Q 460.1625 941.307875 460.1625 939.307875 
L 460.1625 909.016 
Q 460.1625 907.016 458.1625 907.016 
L 279.8375 907.016 
Q 277.8375 907.016 277.8375 909.016 
L 277.8375 939.307875 
Q 277.8375 941.307875 279.8375 941.307875 
z
" style="fill: #ffffff; opacity: 0.8; stroke: #cccccc; stroke-linejoin: miter"/>
    </g>
    <g id="text_17">
     <!-- Legenda -->
     <g transform="translate(343.280625 920.134125) scale(0.12 -0.12)">
      <use xlink:href="#DejaVuSans-4c"/>
      <use xlink:href="#DejaVuSans-65" transform="translate(53.962891 0)"/>
      <use xlink:href="#DejaVuSans-67" transform="translate(115.486328 0)"/>
      <use xlink:href="#DejaVuSans-65" transform="translate(178.962891 0)"/>
      <use xlink:href="#DejaVuSans-6e" transform="translate(240.486328 0)"/>
      <use xlink:href="#DejaVuSans-64" transform="translate(303.865234 0)"/>
      <use xlink:href="#DejaVuSans-61" transform="translate(367.341797 0)"/>
     </g>
    </g>
    <g id="patch_8">
     <path style="fill: none; stroke: #000000; stroke-linejoin: miter"/>
    </g>
    <g id="text_18">
     <!-- Gleba Federal -->
     <g transform="translate(309.8375 935.228187) scale(0.1 -0.1)">
      <defs>
       <path id="DejaVuSans-47" d="M 3809 666 
L 3809 1919 
L 2778 1919 
L 2778 2438 
L 4434 2438 
L 4434 434 
Q 4069 175 3628 42 
Q 3188 -91 2688 -91 
Q 1594 -91 976 548 
Q 359 1188 359 2328 
Q 359 3472 976 4111 
Q 1594 4750 2688 4750 
Q 3144 4750 3555 4637 
Q 3966 4525 4313 4306 
L 4313 3634 
Q 3963 3931 3569 4081 
Q 3175 4231 2741 4231 
Q 1884 4231 1454 3753 
Q 1025 3275 1025 2328 
Q 1025 1384 1454 906 
Q 1884 428 2741 428 
Q 3075 428 3337 486 
Q 3600 544 3809 666 
z
" transform="scale(0.015625)"/>
       <path id="DejaVuSans-6c" d="M 603 4863 
L 1178 4863 
L 1178 0 
L 603 0 
L 603 4863 
z
" transform="scale(0.015625)"/>
       <path id="DejaVuSans-62" d="M 3116 1747 
Q 3116 2381 2855 2742 
Q 2594 3103 2138 3103 
Q 1681 3103 1420 2742 
Q 1159 2381 1159 1747 
Q 1159 1113 1420 752 
Q 1681 391 2138 391 
Q 2594 391 2855 752 
Q 3116 1113 3116 1747 
z
M 1159 2969 
Q 1341 3281 1617 3432 
Q 1894 3584 2278 3584 
Q 2916 3584 3314 3078 
Q 3713 2572 3713 1747 
Q 3713 922 3314 415 
Q 2916 -91 2278 -91 
Q 1894 -91 1617 61 
Q 1341 213 1159 525 
L 1159 0 
L 581 0 
L 581 4863 
L 1159 4863 
L 1159 2969 
z
" transform="scale(0.015625)"/>
       <path id="DejaVuSans-46" d="M 628 4666 
L 3309 4666 
L 3309 4134 
L 1259 4134 
L 1259 2759 
L 3109 2759 
L 3109 2228 
L 1259 2228 
L 1259 0 
L 628 0 
L 628 4666 
z
" transform="scale(0.015625)"/>
       <path id="DejaVuSans-72" d="M 2631 2963 
Q 2534 3019 2420 3045 
Q 2306 3072 2169 3072 
Q 1681 3072 1420 2755 
Q 1159 2438 1159 1844 
L 1159 0 
L 581 0 
L 581 3500 
L 1159 3500 
L 1159 2956 
Q 1341 3275 1631 3429 
Q 1922 3584 2338 3584 
Q 2397 3584 2469 3576 
Q 2541 3569 2628 3553 
L 2631 2963 
z
" transform="scale(0.015625)"/>
      </defs>
      <use xlink:href="#DejaVuSans-47"/>
      <use xlink:href="#DejaVuSans-6c" transform="translate(77.490234 0)"/>
      <use xlink:href="#DejaVuSans-65" transform="translate(105.273438 0)"/>
      <use xlink:href="#DejaVuSans-62" transform="translate(166.796875 0)"/>
      <use xlink:href="#DejaVuSans-61" transform="translate(230.273438 0)"/>
      <use xlink:href="#DejaVuSans-20" transform="translate(291.552734 0)"/>
      <use xlink:href="#DejaVuSans-46" transform="translate(323.339844 0)"/>
      <use xlink:href="#DejaVuSans-65" transform="translate(375.359375 0)"/>
      <use xlink:href="#DejaVuSans-64" transform="translate(436.882812 0)"/>
      <use xlink:href="#DejaVuSans-65" transform="translate(500.359375 0)"/>
      <use xlink:href="#DejaVuSans-72" transform="translate(561.882812 0)"/>
      <use xlink:href="#DejaVuSans-61" transform="translate(602.996094 0)"/>
      <use xlink:href="#DejaVuSans-6c" transform="translate(664.275391 0)"/>
     </g>
    </g>
    <g id="patch_9">
     <path d="M 399.045312 935.228187 
L 419.045312 935.228187 
L 419.045312 928.228187 
L 399.045312 928.228187 
z
" style="fill: #e0bd1f; opacity: 0.6"/>
    </g>
    <g id="text_19">
     <!-- SIGEF -->
     <g transform="translate(427.045312 935.228187) scale(0.1 -0.1)">
      <defs>
       <path id="DejaVuSans-53" d="M 3425 4513 
L 3425 3897 
Q 3066 4069 2747 4153 
Q 2428 4238 2131 4238 
Q 1616 4238 1336 4038 
Q 1056 3838 1056 3469 
Q 1056 3159 1242 3001 
Q 1428 2844 1947 2747 
L 2328 2669 
Q 3034 2534 3370 2195 
Q 3706 1856 3706 1288 
Q 3706 609 3251 259 
Q 2797 -91 1919 -91 
Q 1588 -91 1214 -16 
Q 841 59 441 206 
L 441 856 
Q 825 641 1194 531 
Q 1563 422 1919 422 
Q 2459 422 2753 634 
Q 3047 847 3047 1241 
Q 3047 1584 2836 1778 
Q 2625 1972 2144 2069 
L 1759 2144 
Q 1053 2284 737 2584 
Q 422 2884 422 3419 
Q 422 4038 858 4394 
Q 1294 4750 2059 4750 
Q 2388 4750 2728 4690 
Q 3069 4631 3425 4513 
z
" transform="scale(0.015625)"/>
       <path id="DejaVuSans-49" d="M 628 4666 
L 1259 4666 
L 1259 0 
L 628 0 
L 628 4666 
z
" transform="scale(0.015625)"/>
       <path id="DejaVuSans-45" d="M 628 4666 
L 3578 4666 
L 3578 4134 
L 1259 4134 
L 1259 2753 
L 3481 2753 
L 3481 2222 
L 1259 2222 
L 1259 531 
L 3634 531 
L 3634 0 
L 628 0 
L 628 4666 
z
" transform="scale(0.015625)"/>
      </defs>
      <use xlink:href="#DejaVuSans-53"/>
      <use xlink:href="#DejaVuSans-49" transform="translate(63.476562 0)"/>
      <use xlink:href="#DejaVuSans-47" transform="translate(92.96875 0)"/>
      <use xlink:href="#DejaVuSans-45" transform="translate(170.458984 0)"/>
      <use xlink:href="#DejaVuSans-46" transform="translate(233.642578 0)"/>
     </g>
    </g>
   </g>
  </g>
 </g>
 <defs>
  <clipPath id="pf206736187">
   <rect x="152.538267" y="103.68" width="432.923465" height="665.28"/>
  </clipPath>
 </defs>
</svg>
