<?xml version="1.0" encoding="utf-8" standalone="no"?>
<!DOCTYPE svg PUBLIC "-//W3C//DTD SVG 1.1//EN"
  "http://www.w3.org/Graphics/SVG/1.1/DTD/svg11.dtd">
<svg xmlns:xlink="http://www.w3.org/1999/xlink" width="720pt" height="864pt" viewBox="0 0 720 864" xmlns="http://www.w3.org/2000/svg" version="1.1">
 <metadata>
  <rdf:RDF xmlns:dc="http://purl.org/dc/elements/1.1/" xmlns:cc="http://creativecommons.org/ns#" xmlns:rdf="http://www.w3.org/1999/02/22-rdf-syntax-ns#">
   <cc:Work>
    <dc:type rdf:resource="http://purl.org/dc/dcmitype/StillImage"/>
    <dc:date>2025-06-16T17:40:28.937592</dc:date>
    <dc:format>image/svg+xml</dc:format>
    <dc:creator>
     <cc:Agent>
      <dc:title>Matplotlib v3.10.1, https://matplotlib.org/</dc:title>
     </cc:Agent>
    </dc:creator>
   </cc:Work>
  </rdf:RDF>
 </metadata>
 <defs>
  <style type="text/css">*{stroke-linejoin: round; stroke-linecap: butt}</style>
 </defs>
 <g id="figure_1">
  <g id="patch_1">
   <path d="M 0 864 
L 720 864 
L 720 0 
L 0 0 
z
" style="fill: #ffffff"/>
  </g>
  <g id="axes_1">
   <g id="patch_2">
    <path d="M 90 618.293579 
L 648 618.293579 
L 648 254.346421 
L 90 254.346421 
z
" style="fill: #ffffff"/>
   </g>
   <g id="PatchCollection_1">
    <path d="M 311.019147 560.522918 
L 310.102024 556.722947 
L 308.578555 552.648128 
L 307.273321 550.314933 
L 307.016548 549.855934 
L 306.844974 549.549233 
L 306.741519 549.364301 
L 306.097976 547.467866 
L 306.084659 547.428623 
L 306.055327 547.342186 
L 306.049782 547.325846 
L 305.795522 546.841351 
L 304.505069 544.382386 
L 304.308777 544.008349 
L 303.816036 543.069428 
L 302.883332 541.292154 
L 302.454575 540.475156 
L 299.586403 537.761682 
L 298.516083 536.74909 
L 297.03531 535.348185 
L 293.94375 532.774062 
L 293.417128 532.039853 
L 290.641879 528.170637 
L 290.236678 526.482803 
L 288.252127 523.852352 
L 288.114281 523.669642 
L 285.11048 520.530782 
L 284.600733 520.114467 
L 283.587362 519.286838 
L 283.450461 519.12489 
L 277.857192 512.508274 
L 277.788394 512.457146 
L 277.33994 512.123873 
L 274.387529 509.929758 
L 271.902728 508.642755 
L 269.926852 508.603829 
L 268.091828 509.305715 
L 265.05587 511.446879 
L 264.415867 511.683161 
L 263.405969 512.056003 
L 261.616322 512.114099 
L 261.151055 512.038203 
L 258.257809 511.566248 
L 254.902586 510.728957 
L 251.437203 509.864177 
L 251.28681 509.826647 
L 251.106694 509.781699 
L 250.54417 509.738433 
L 250.462502 509.732151 
L 248.779532 509.602854 
L 246.982198 508.848281 
L 242.255686 506.86394 
L 230.087538 496.916819 
L 227.647587 495.54427 
L 223.444669 492.078835 
L 221.099085 490.471284 
L 217.793683 487.507559 
L 216.605825 486.807033 
L 213.990703 485.264793 
L 210.854596 484.227039 
L 209.980014 483.937634 
L 208.145032 482.88082 
L 205.154829 481.597958 
L 203.29725 480.258344 
L 197.773929 477.550504 
L 194.233445 475.479674 
L 190.210942 473.601762 
L 184.637763 469.398261 
L 184.226841 469.160793 
L 182.345092 468.073353 
L 180.122567 466.926565 
L 178.401806 466.255285 
L 171.653724 465.201037 
L 166.197377 465.270502 
L 164.161798 465.460975 
L 157.133411 467.992563 
L 153.674075 468.591517 
L 148.562271 469.038917 
L 146.932114 469.181593 
L 140.22605 468.928493 
L 138.012596 468.844953 
L 136.12151 469.548986 
L 136.119336 469.547603 
L 135.169204 468.943098 
L 134.277989 468.376079 
L 134.088815 468.255721 
L 130.772524 465.489967 
L 127.882378 464.25342 
L 121.177075 456.178356 
L 119.103751 453.317634 
L 116.871363 449.619816 
L 115.758864 447.216418 
L 115.671753 445.968515 
L 115.983418 445.090075 
L 116.069995 443.653723 
L 115.363636 439.443282 
L 115.548829 438.103666 
L 116.408182 436.063235 
L 116.713393 434.159984 
L 116.234362 428.082816 
L 117.239781 429.267507 
L 118.225455 429.34077 
L 118.382397 429.870464 
L 117.89122 430.25703 
L 117.748136 430.665834 
L 117.990453 431.022643 
L 119.444394 431.126574 
L 119.797866 431.646054 
L 119.809928 431.98496 
L 119.192453 433.086621 
L 119.888313 433.421486 
L 119.726013 433.786898 
L 119.156082 433.996254 
L 119.81995 434.617702 
L 119.635907 435.888013 
L 119.794417 436.342906 
L 119.444964 436.785419 
L 119.5142 437.065493 
L 120.072229 437.134719 
L 120.475251 437.611032 
L 121.029642 437.683043 
L 121.349263 438.06843 
L 121.839749 438.166766 
L 121.884333 438.779684 
L 122.872094 438.921231 
L 124.11072 439.723634 
L 125.14365 440.074369 
L 126.353666 441.040353 
L 127.557532 441.525614 
L 128.660504 442.280702 
L 129.758238 442.555524 
L 130.258758 442.279858 
L 131.515449 440.890137 
L 132.97347 440.294325 
L 134.466224 438.033404 
L 136.81539 437.773654 
L 138.161145 438.468926 
L 139.126917 437.967953 
L 139.927312 438.669591 
L 140.396082 438.703885 
L 140.993756 438.106595 
L 140.838102 436.885185 
L 141.309604 437.009823 
L 141.762095 437.341995 
L 142.594355 437.42494 
L 143.169272 436.660447 
L 143.848149 436.576118 
L 144.028077 436.280731 
L 143.977494 435.52985 
L 144.275553 434.947038 
L 144.082593 434.074646 
L 144.727767 433.553039 
L 144.85418 433.268742 
L 145.303789 432.256429 
L 147.128952 430.886307 
L 147.764868 428.472135 
L 150.176364 427.98974 
L 151.065719 427.136805 
L 151.261971 426.134851 
L 150.782871 424.510762 
L 151.237408 423.625032 
L 151.802109 423.307921 
L 153.732313 423.421177 
L 155.1884 420.985103 
L 155.8232 420.712245 
L 156.625112 419.732233 
L 157.911448 419.164796 
L 158.744698 417.696881 
L 160.649098 417.018224 
L 161.818662 416.140048 
L 162.243959 414.207451 
L 163.161141 413.804262 
L 163.453159 413.260087 
L 163.514821 412.50309 
L 164.27669 412.243652 
L 164.697491 411.147308 
L 165.292272 410.585433 
L 165.177603 409.747641 
L 166.322539 409.251367 
L 167.125521 407.874627 
L 168.97456 406.704398 
L 169.440022 405.214541 
L 169.814112 404.674149 
L 170.007032 404.395638 
L 172.205525 403.434762 
L 172.53158 403.087498 
L 172.584021 402.370524 
L 173.178268 401.341746 
L 173.346552 400.383731 
L 173.571803 400.130588 
L 174.069899 399.709599 
L 176.438589 399.643744 
L 176.979904 399.421385 
L 179.020309 398.880407 
L 179.190737 398.460862 
L 179.401475 398.480707 
L 179.406042 398.481137 
L 180.331105 398.568254 
L 180.928153 398.144444 
L 181.718038 396.422536 
L 182.885593 395.855429 
L 183.118937 394.943121 
L 184.619931 392.470647 
L 186.105507 391.580237 
L 186.714384 389.675339 
L 187.509126 389.178482 
L 192.540386 389.351095 
L 192.584122 390.474328 
L 193.074643 391.455953 
L 193.387887 391.66379 
L 194.72857 391.870048 
L 197.054232 391.677503 
L 198.238109 392.426041 
L 198.565614 391.951284 
L 198.779009 389.41246 
L 198.54988 387.209662 
L 199.892308 385.388304 
L 200.214127 384.52699 
L 200.203241 381.181869 
L 199.87869 377.994897 
L 201.403141 372.769688 
L 201.349968 371.142933 
L 201.330743 370.55479 
L 201.361424 370.47925 
L 201.813845 369.36535 
L 203.23817 367.389636 
L 203.435244 366.052626 
L 203.040072 363.630444 
L 204.096972 361.106236 
L 204.421787 359.246515 
L 206.892381 356.124944 
L 206.945251 355.959307 
L 207.27334 354.931416 
L 207.359509 354.661453 
L 207.218463 352.907731 
L 207.66803 352.031448 
L 211.930093 353.947433 
L 217.90091 357.245472 
L 220.519363 358.043927 
L 223.204781 357.925876 
L 223.967231 357.783441 
L 224.566259 357.565595 
L 225.577652 356.883212 
L 228.333726 354.657255 
L 229.12618 354.35356 
L 233.812315 353.974272 
L 239.0775 353.673507 
L 239.758606 353.738222 
L 244.160449 354.762533 
L 246.589911 355.765755 
L 248.323024 355.959274 
L 249.562759 355.662517 
L 253.881705 353.257616 
L 255.492867 352.988758 
L 258.807365 353.235097 
L 260.572201 352.800978 
L 261.717953 352.775219 
L 264.693524 353.401352 
L 266.740873 353.311452 
L 272.281469 352.197701 
L 275.544664 351.218359 
L 276.616145 351.143788 
L 281.69715 352.032238 
L 282.831667 351.99489 
L 283.628517 353.750764 
L 287.19823 359.235038 
L 289.007237 362.833975 
L 289.111026 362.676118 
L 289.83617 361.570679 
L 291.580736 359.72955 
L 292.082363 358.679126 
L 293.227022 353.896653 
L 294.387981 352.569499 
L 294.659017 351.733711 
L 294.097521 351.264455 
L 293.242862 349.809722 
L 292.888994 347.172548 
L 293.260053 345.985937 
L 294.848197 344.036474 
L 295.432832 340.043293 
L 294.84506 338.056307 
L 297.746097 339.478864 
L 299.132471 340.551806 
L 301.441899 342.595984 
L 302.955727 344.937488 
L 304.532122 348.246558 
L 305.446756 351.719583 
L 306.157588 355.825942 
L 307.929804 360.070396 
L 310.508086 362.515394 
L 316.127731 363.438234 
L 318.244967 363.946845 
L 319.235475 364.685706 
L 320.024781 366.089507 
L 320.214376 369.108076 
L 321.803891 370.963382 
L 324.195699 372.938713 
L 329.750871 377.526176 
L 332.719734 380.999327 
L 334.475794 382.411241 
L 336.458466 384.54777 
L 337.505021 385.196016 
L 337.522332 385.192096 
L 339.4746 384.750075 
L 340.345449 384.895457 
L 341.891907 384.744539 
L 343.864266 383.818632 
L 347.071339 382.995329 
L 348.532841 382.91633 
L 348.641524 384.021237 
L 348.072944 385.789619 
L 346.630713 388.022323 
L 346.31715 389.152746 
L 345.268971 391.203495 
L 345.325805 391.774035 
L 346.776602 394.083683 
L 348.513583 395.491887 
L 348.920228 396.773337 
L 350.376469 399.461462 
L 351.506885 401.013493 
L 353.510001 403.052703 
L 356.915438 405.73295 
L 357.62958 406.872654 
L 358.856711 407.67828 
L 360.190143 407.786995 
L 361.160239 408.771788 
L 362.075468 410.763677 
L 362.586842 411.230803 
L 363.45599 411.595584 
L 364.636279 411.523006 
L 365.461141 410.389938 
L 365.364615 408.892194 
L 366.089404 407.137316 
L 367.883823 407.06694 
L 368.604605 406.449246 
L 369.939442 406.041827 
L 371.5841 404.337714 
L 371.269437 406.950777 
L 371.36738 407.932393 
L 370.846448 410.28045 
L 369.197523 411.884273 
L 368.629302 413.705317 
L 367.802284 415.151457 
L 366.515624 416.515872 
L 365.332639 417.285642 
L 362.611304 418.076372 
L 359.895219 417.807795 
L 359.277727 418.399673 
L 358.197364 418.605499 
L 356.549958 421.049079 
L 354.237689 421.996337 
L 354.234588 422.654573 
L 353.311436 423.899212 
L 352.943819 425.320834 
L 351.145634 426.039424 
L 350.265071 428.231071 
L 348.987563 428.174992 
L 348.772815 429.749024 
L 347.336426 430.054 
L 346.872579 430.570937 
L 347.224333 432.403431 
L 348.037987 434.267209 
L 348.137073 434.964708 
L 346.820694 435.52037 
L 346.819401 435.520916 
L 346.718913 435.563334 
L 346.649556 435.592492 
L 345.980749 435.627582 
L 344.333832 437.300329 
L 343.717237 437.504461 
L 342.997318 438.121319 
L 342.73916 438.585201 
L 340.216831 440.822863 
L 338.315497 441.977635 
L 337.442298 442.232637 
L 339.893289 468.537494 
L 339.90942 468.710615 
L 342.16749 492.908037 
L 342.580025 497.328758 
L 342.631158 497.876697 
L 342.689291 498.499643 
L 342.749089 499.140434 
L 342.89381 500.691266 
L 343.932235 502.297104 
L 343.846661 503.321597 
L 344.113739 503.808688 
L 343.542915 505.738277 
L 343.683713 506.321222 
L 344.037172 506.89375 
L 344.293598 507.680056 
L 344.349133 508.223789 
L 344.33465 508.728223 
L 344.249919 508.956937 
L 344.280007 509.146241 
L 344.480587 509.198002 
L 344.554804 509.990132 
L 344.793511 510.624722 
L 345.433987 512.327394 
L 346.206143 513.727595 
L 347.171174 515.477549 
L 348.906275 517.009173 
L 349.629715 517.174948 
L 351.343975 516.804545 
L 352.484822 516.821799 
L 352.926541 517.17584 
L 353.536943 518.445205 
L 354.325896 518.772959 
L 355.749226 521.546852 
L 355.849465 523.281088 
L 351.68464 526.73448 
L 350.957244 527.045024 
L 350.416934 528.149229 
L 351.278665 528.254772 
L 351.37885 530.273224 
L 350.97195 531.167863 
L 350.025967 532.003116 
L 349.371643 531.857503 
L 347.767163 532.127319 
L 347.53882 533.373862 
L 347.07431 534.116971 
L 345.821119 534.853207 
L 345.562181 535.861284 
L 343.533813 536.818316 
L 343.010191 536.982697 
L 341.854003 538.450824 
L 340.569797 538.70428 
L 340.512615 539.189528 
L 340.695771 540.76961 
L 340.957478 543.211938 
L 340.906636 543.960399 
L 340.16742 547.116475 
L 338.244579 554.642971 
L 337.082901 556.638334 
L 334.924873 559.917378 
L 333.281479 562.469908 
L 332.951739 563.048979 
L 332.748921 563.542367 
L 332.579754 564.214284 
L 332.478253 565.06528 
L 332.492543 565.302176 
L 332.51711 565.709458 
L 332.621451 567.439236 
L 333.326873 568.4947 
L 334.233192 569.85075 
L 335.608482 571.908483 
L 336.655924 573.474179 
L 338.471415 576.191391 
L 340.212455 578.797174 
L 340.240205 578.838708 
L 341.867235 581.275315 
L 355.418909 601.570029 
L 355.404009 601.582526 
L 355.203712 601.750526 
L 353.976279 601.405536 
L 352.831461 601.633933 
L 351.858334 601.553736 
L 350.290655 600.805088 
L 350.418792 599.969409 
L 350.11072 599.491148 
L 349.669504 599.486511 
L 348.84382 599.99501 
L 348.34355 599.877821 
L 347.913978 599.686034 
L 345.507783 597.980552 
L 344.195745 598.426691 
L 342.673538 597.558269 
L 341.372518 597.720534 
L 340.132935 598.737451 
L 338.436787 598.059812 
L 338.226118 598.411019 
L 338.198825 599.28685 
L 337.279918 600.437678 
L 336.450434 600.814195 
L 335.771638 600.766376 
L 335.290449 598.797491 
L 335.590299 596.873445 
L 335.431473 595.430373 
L 335.025156 594.326084 
L 333.910565 593.11927 
L 332.96304 592.987804 
L 330.4921 594.656153 
L 329.927802 594.593725 
L 329.761961 594.444771 
L 329.958979 592.791848 
L 329.08174 592.548186 
L 328.932725 592.673167 
L 327.980734 593.904117 
L 326.797256 594.734269 
L 326.046891 593.247803 
L 325.385894 593.108515 
L 323.494815 593.405197 
L 320.910652 590.853211 
L 320.148847 590.720072 
L 319.163895 589.574933 
L 318.483675 589.273091 
L 317.598728 589.158734 
L 316.967932 589.218033 
L 315.830473 590.065061 
L 315.058032 590.088348 
L 314.068684 589.040404 
L 312.833899 589.507556 
L 311.624232 585.056325 
L 311.400271 582.230721 
L 310.855852 578.805023 
L 310.440049 576.188631 
L 310.369773 575.234108 
L 310.29105 574.164876 
L 310.199961 572.927673 
L 310.145427 572.186977 
L 310.149367 572.016269 
L 310.24374 567.926537 
L 311.059508 563.438132 
L 311.019147 560.522918 
" clip-path="url(#p3d2a6e012e)" style="fill: #b3e2cd; fill-opacity: 0.65"/>
    <path d="M 548.216374 412.532708 
L 546.535036 412.265739 
L 544.755268 412.092761 
L 544.571694 412.095987 
L 544.668371 412.371086 
L 544.570483 412.575899 
L 544.358391 412.821674 
L 543.983152 413.092027 
L 543.697643 413.288648 
L 543.46108 413.49346 
L 543.126627 413.706466 
L 542.955323 413.804776 
L 542.686129 414.009589 
L 542.400621 414.247172 
L 541.951965 414.443792 
L 541.878549 414.673183 
L 541.821447 414.984498 
L 541.735992 415.255173 
L 541.715401 415.320391 
L 541.69093 415.730017 
L 541.633828 416.074103 
L 541.413579 416.196991 
L 541.119913 416.196991 
L 540.777304 416.213376 
L 540.709081 416.211396 
L 540.486219 416.204927 
L 540.475497 416.214054 
L 540.866205 422.241831 
L 535.666719 421.667928 
L 535.55403 421.653807 
L 535.602426 421.67786 
L 535.582614 421.822899 
L 535.522655 421.92828 
L 535.522655 422.048715 
L 535.496423 422.191732 
L 535.432716 422.323457 
L 535.361514 422.447656 
L 535.331534 422.515401 
L 535.380252 422.5982 
L 535.369009 422.775089 
L 535.11195 423.216549 
L 535.218234 423.367813 
L 535.448621 423.374259 
L 535.43008 423.548115 
L 535.42289 423.68187 
L 535.25729 423.629183 
L 535.087683 423.826246 
L 534.965414 423.950729 
L 534.850508 424.03025 
L 534.566317 423.924505 
L 534.563869 424.002212 
L 534.351429 424.349946 
L 533.981141 424.435623 
L 533.403617 424.432932 
L 532.881079 424.347178 
L 531.482486 424.367417 
L 530.200155 424.537959 
L 528.96066 425.055671 
L 528.254001 425.555513 
L 527.872474 426.11218 
L 527.812568 426.534249 
L 528.040621 427.664433 
L 528.043474 427.919531 
L 527.492672 428.626503 
L 527.530142 429.968147 
L 527.390772 430.620129 
L 527.237571 430.855448 
L 525.713629 431.431798 
L 524.85158 431.849118 
L 524.387302 432.178618 
L 523.921291 432.271326 
L 523.273121 432.141629 
L 522.09915 432.086068 
L 521.523423 431.835546 
L 520.898836 431.683133 
L 520.211715 431.717847 
L 518.938551 432.014254 
L 518.515683 432.112428 
L 517.964971 432.04942 
L 517.30173 431.760013 
L 516.271155 430.959386 
L 515.597174 430.774987 
L 514.723583 430.775125 
L 513.507425 431.004913 
L 512.730941 431.246281 
L 512.488057 431.24945 
L 511.826158 431.532139 
L 510.615649 432.310174 
L 509.821915 432.608078 
L 508.973897 433.011487 
L 508.512407 433.09909 
L 508.11344 433.121407 
L 507.562744 433.059754 
L 507.028425 432.822473 
L 506.025333 432.141953 
L 505.419633 431.997536 
L 504.559137 432.10378 
L 503.572242 432.384129 
L 501.835256 432.395228 
L 500.014298 432.273947 
L 499.124606 432.434101 
L 495.646047 433.36425 
L 494.188966 433.941167 
L 493.099822 434.095286 
L 492.59066 434.472011 
L 492.296281 434.791377 
L 491.998183 435.188664 
L 491.846377 435.551799 
L 491.252786 436.209371 
L 490.394096 436.768649 
L 488.964272 437.283884 
L 487.510974 437.666526 
L 486.626667 438.024519 
L 485.538166 438.320645 
L 484.490817 438.483914 
L 484.166134 438.59243 
L 482.713667 439.423102 
L 482.04155 439.903351 
L 481.374624 440.231903 
L 479.851639 440.531932 
L 479.143626 440.751446 
L 478.441454 441.084512 
L 477.369947 442.212418 
L 476.815729 442.454508 
L 476.123984 442.860305 
L 475.37913 443.43712 
L 473.545466 445.070582 
L 472.030804 446.579108 
L 471.453433 447.007468 
L 469.774667 448.557231 
L 469.181494 449.214388 
L 468.544213 450.110276 
L 467.549081 451.059621 
L 467.020353 451.080151 
L 465.682704 450.737176 
L 464.936065 450.782111 
L 464.484164 450.952061 
L 463.085726 451.783555 
L 462.000132 451.80888 
L 461.627792 451.754363 
L 461.436341 451.726246 
L 461.153353 451.684688 
L 461.133088 451.681712 
L 460.389102 451.572455 
L 459.684096 451.693433 
L 457.99052 452.738039 
L 457.428467 452.895462 
L 455.888179 452.880448 
L 455.21124 453.052886 
L 454.408914 453.409983 
L 453.896207 453.511875 
L 453.492594 453.448074 
L 452.757008 453.249573 
L 452.234152 452.847575 
L 451.471174 452.6173 
L 449.22634 452.349789 
L 448.395133 452.125295 
L 446.929347 451.00929 
L 446.055276 450.721109 
L 445.051853 449.508338 
L 444.232945 448.359043 
L 442.854191 447.316706 
L 442.087652 447.135449 
L 441.469655 447.165618 
L 439.618297 447.621279 
L 438.011396 447.840562 
L 437.302826 448.01285 
L 434.341254 448.38035 
L 433.547924 448.389065 
L 432.124684 449.014125 
L 430.914178 449.769734 
L 430.347569 450.014231 
L 428.893694 451.10702 
L 428.444278 451.881773 
L 427.96173 452.226618 
L 426.789394 452.283937 
L 426.228144 452.516005 
L 425.591108 452.984894 
L 424.617123 454.035314 
L 424.067291 454.473006 
L 422.950641 455.053474 
L 422.538749 455.36318 
L 421.68643 455.637397 
L 419.803976 456.816943 
L 417.569227 458.475563 
L 425.073469 460.700786 
L 424.594167 461.633524 
L 422.960588 463.269074 
L 421.629304 464.299642 
L 420.726382 464.725663 
L 420.198891 465.15305 
L 419.468751 466.160513 
L 418.966472 466.588085 
L 417.863216 467.013108 
L 416.909414 467.565254 
L 416.30781 467.71439 
L 415.55621 467.812478 
L 414.929229 468.113573 
L 413.976578 468.311937 
L 412.524063 468.40719 
L 411.39746 468.251397 
L 410.821699 468.249477 
L 409.467859 468.648375 
L 407.737586 469.248002 
L 407.061162 469.346626 
L 406.385003 469.34397 
L 406.218954 469.338027 
L 404.807511 469.287506 
L 403.831544 469.157527 
L 402.180041 468.746699 
L 401.629128 468.795358 
L 401.194447 468.909652 
L 400.832082 468.981148 
L 400.267287 469.092585 
L 399.797073 469.185269 
L 398.948113 469.519033 
L 398.172217 470.246577 
L 397.732163 470.791713 
L 397.338409 471.965564 
L 397.100409 472.376045 
L 396.71871 472.682696 
L 395.773047 473.018903 
L 395.253232 473.271158 
L 394.771453 473.648109 
L 394.378414 474.175323 
L 394.308238 474.464814 
L 394.60387 476.303888 
L 394.588472 476.697725 
L 388.71578 491.96209 
L 388.733975 492.606976 
L 388.726002 493.031939 
L 388.530547 493.337769 
L 387.806386 493.755276 
L 387.526842 494.268196 
L 386.743064 494.541043 
L 385.684208 495.33792 
L 385.605476 496.262109 
L 385.607591 496.936645 
L 385.320056 497.187495 
L 384.784666 497.618455 
L 384.277186 497.655368 
L 384.13509 497.823757 
L 383.992613 497.823203 
L 383.489585 497.821247 
L 382.990118 497.966993 
L 381.872556 498.643396 
L 381.577603 499.085708 
L 381.458302 499.617747 
L 381.426897 500.179982 
L 381.217981 501.066826 
L 381.165109 501.148962 
L 380.952048 501.479947 
L 380.569342 501.863191 
L 379.627681 502.569294 
L 378.251022 502.86496 
L 377.768144 503.310725 
L 377.288404 503.875162 
L 377.187055 504.247059 
L 377.201922 504.723088 
L 377.161203 505.147024 
L 376.976674 505.50059 
L 376.777513 505.691156 
L 376.552742 505.762383 
L 376.17268 505.803239 
L 375.383897 505.696898 
L 374.775181 504.99779 
L 374.60633 504.651325 
L 374.210394 504.124031 
L 373.998526 503.617623 
L 373.744757 502.552062 
L 373.51909 502.500005 
L 373.108354 502.669523 
L 372.474018 503.308995 
L 372.052185 504.638205 
L 371.783845 504.874907 
L 370.285678 504.919814 
L 369.317626 505.145424 
L 368.441153 505.611567 
L 368.09864 506.107587 
L 368.015869 506.502208 
L 367.890388 506.806549 
L 367.595413 507.039421 
L 367.242747 507.070343 
L 366.617163 507.25552 
L 365.84327 508.212795 
L 365.758954 508.425018 
L 365.446537 508.823086 
L 365.135975 508.931005 
L 363.978752 508.797525 
L 363.90183 508.78869 
L 363.428833 508.734364 
L 363.049421 508.876498 
L 362.694492 509.160908 
L 361.948838 510.979116 
L 361.696962 511.379732 
L 361.214389 511.688467 
L 360.788967 511.857694 
L 360.225492 512.230572 
L 359.590832 512.842576 
L 359.153479 513.511996 
L 358.63075 513.921556 
L 358.192746 514.114299 
L 357.813484 514.604785 
L 357.657669 515.027726 
L 357.346036 516.374134 
L 357.021683 517.271955 
L 356.33421 517.292357 
L 355.681814 517.167073 
L 355.198848 517.190263 
L 355.079006 517.276222 
L 354.795824 517.479339 
L 354.497603 517.87681 
L 354.314982 518.363764 
L 354.325896 518.772959 
L 353.536943 518.445205 
L 352.926541 517.17584 
L 352.484822 516.821799 
L 351.343975 516.804545 
L 349.629715 517.174948 
L 348.906275 517.009173 
L 347.171174 515.477549 
L 346.206143 513.727595 
L 345.433987 512.327394 
L 344.793511 510.624722 
L 344.554804 509.990132 
L 344.480587 509.198002 
L 344.280007 509.146241 
L 344.249919 508.956937 
L 344.33465 508.728223 
L 344.349133 508.223789 
L 344.293598 507.680056 
L 344.037172 506.89375 
L 343.683713 506.321222 
L 343.542915 505.738277 
L 344.113739 503.808688 
L 343.846661 503.321597 
L 343.932235 502.297104 
L 342.89381 500.691266 
L 342.749089 499.140434 
L 342.689291 498.499643 
L 342.631158 497.876697 
L 342.580025 497.328758 
L 342.16749 492.908037 
L 339.90942 468.710615 
L 339.893289 468.537494 
L 337.442298 442.232637 
L 338.315497 441.977635 
L 340.216831 440.822863 
L 342.73916 438.585201 
L 342.997318 438.121319 
L 343.717237 437.504461 
L 344.333832 437.300329 
L 345.980749 435.627582 
L 346.649556 435.592492 
L 346.718913 435.563334 
L 346.819401 435.520916 
L 346.820694 435.52037 
L 348.137073 434.964708 
L 348.037987 434.267209 
L 347.224333 432.403431 
L 346.872579 430.570937 
L 347.336426 430.054 
L 348.772815 429.749024 
L 348.987563 428.174992 
L 350.265071 428.231071 
L 351.145634 426.039424 
L 352.943819 425.320834 
L 353.311436 423.899212 
L 354.234588 422.654573 
L 354.237689 421.996337 
L 356.549958 421.049079 
L 358.197364 418.605499 
L 359.277727 418.399673 
L 359.895219 417.807795 
L 362.611304 418.076372 
L 365.332639 417.285642 
L 366.515624 416.515872 
L 367.802284 415.151457 
L 368.629302 413.705317 
L 369.197523 411.884273 
L 370.846448 410.28045 
L 371.36738 407.932393 
L 371.269437 406.950777 
L 371.5841 404.337714 
L 373.663528 402.706456 
L 374.546218 401.193328 
L 375.993063 399.809885 
L 377.121212 399.751163 
L 378.526855 400.925109 
L 379.210405 402.632859 
L 380.646427 403.902235 
L 381.774582 403.843021 
L 382.465853 403.34023 
L 383.469833 403.154009 
L 384.157667 403.535786 
L 384.217036 404.421516 
L 383.65088 404.923893 
L 381.956607 405.360379 
L 381.516703 405.926952 
L 381.70143 406.749026 
L 382.076456 407.192797 
L 382.672483 406.784049 
L 383.739058 406.535734 
L 384.367048 406.159185 
L 385.056355 406.161459 
L 385.618832 406.605513 
L 385.804521 407.301527 
L 385.80208 407.933094 
L 385.924466 408.881389 
L 386.110244 409.197925 
L 386.611919 409.010163 
L 387.179742 408.191532 
L 387.74488 408.067255 
L 388.244599 408.384101 
L 388.614813 409.965397 
L 389.390797 411.775619 
L 390.910623 414.955948 
L 392.093479 417.135276 
L 393.353806 418.115321 
L 394.097808 418.34335 
L 394.542608 421.22807 
L 395.410501 425.819921 
L 396.333464 427.811758 
L 397.592431 429.167065 
L 398.410834 429.32046 
L 400.496314 429.028469 
L 401.686569 429.407433 
L 402.728626 429.261895 
L 403.102823 428.812868 
L 402.808683 427.760647 
L 402.96067 426.936407 
L 403.334086 426.712403 
L 406.421722 426.912291 
L 407.617505 427.591336 
L 410.58818 427.527562 
L 412.075732 427.38268 
L 414.303864 428.966539 
L 415.560652 431.296849 
L 416.039935 432.552284 
L 420.064535 428.743624 
L 420.122202 428.689057 
L 430.592851 418.781303 
L 432.885301 416.612092 
L 435.494773 414.142859 
L 441.483073 408.476756 
L 441.913748 407.99922 
L 442.153302 406.928098 
L 442.039072 405.943748 
L 442.058342 404.590016 
L 442.118914 404.173313 
L 443.512587 402.68923 
L 443.897918 402.214029 
L 443.988456 401.559202 
L 444.346368 400.667341 
L 445.58245 399.698164 
L 446.38149 399.253771 
L 446.883017 399.225888 
L 448.245616 398.217776 
L 449.428853 397.745399 
L 450.242272 397.614252 
L 450.693976 397.292215 
L 450.981036 396.830941 
L 451.269239 395.743033 
L 451.401477 395.426975 
L 451.570869 395.129843 
L 451.715429 394.863321 
L 451.772841 394.699952 
L 451.796763 394.426071 
L 451.832645 394.291533 
L 451.892449 394.101738 
L 451.940293 393.988822 
L 452.071861 393.890321 
L 452.167548 393.863894 
L 452.287156 393.731758 
L 452.423509 393.565988 
L 452.526372 393.489109 
L 452.655549 393.371388 
L 452.686647 393.253667 
L 452.696216 393.05186 
L 452.669902 392.929334 
L 452.671876 392.886215 
L 452.679471 392.720319 
L 452.703393 392.571366 
L 452.684255 392.508902 
L 452.604358 392.451806 
L 452.50258 392.412443 
L 452.419767 392.363557 
L 452.367298 392.206741 
L 452.369194 392.067067 
L 452.464018 391.955963 
L 452.751018 391.829622 
L 452.760561 391.829595 
L 452.974802 391.828987 
L 453.169507 391.747087 
L 453.207856 391.71287 
L 453.299909 391.630736 
L 453.478001 391.503292 
L 453.642362 391.342032 
L 453.663855 391.14268 
L 453.619604 390.877299 
L 453.627836 390.6783 
L 453.685349 390.342728 
L 453.744772 390.076078 
L 453.983727 389.654517 
L 454.356701 389.373899 
L 455.32683 388.86031 
L 455.661476 388.683148 
L 456.885335 388.266665 
L 457.770941 387.987981 
L 459.044027 387.436317 
L 460.632198 386.653534 
L 461.850167 385.963644 
L 462.50393 385.309642 
L 462.325281 384.139749 
L 462.548812 383.340859 
L 463.184919 382.774079 
L 463.521884 382.018799 
L 463.450914 381.252917 
L 462.857758 380.75318 
L 463.015219 380.198093 
L 463.203876 379.973666 
L 464.038087 379.653398 
L 464.713334 378.91403 
L 464.81981 377.773984 
L 465.048055 376.462624 
L 464.741306 375.752827 
L 465.074261 374.643051 
L 465.070719 374.179031 
L 466.470428 373.432309 
L 466.488055 372.86603 
L 465.638716 372.87539 
L 465.617895 372.87562 
L 464.996348 371.83219 
L 465.324837 371.003498 
L 466.583399 370.559371 
L 467.201392 371.070137 
L 469.10318 370.685421 
L 469.665781 369.761779 
L 470.241061 368.731984 
L 470.305714 367.869241 
L 469.979903 366.982192 
L 470.025757 366.315565 
L 470.361428 365.818614 
L 470.735932 365.317567 
L 471.832513 365.563291 
L 472.113944 365.782918 
L 472.394277 366.156034 
L 472.544318 366.855836 
L 472.977287 367.317558 
L 473.737923 367.057379 
L 474.303727 366.534495 
L 475.612909 364.744175 
L 476.995696 363.534449 
L 477.584936 362.464309 
L 477.587489 361.806859 
L 476.982697 360.83388 
L 476.724932 359.91626 
L 477.162718 358.780412 
L 477.490236 358.257363 
L 478.039702 357.664124 
L 478.752804 357.160752 
L 479.17261 356.740252 
L 479.590996 356.699559 
L 479.801833 356.277643 
L 480.515877 355.563526 
L 480.60166 354.803942 
L 480.124211 353.524939 
L 479.750864 352.7231 
L 479.672261 351.332144 
L 480.093545 350.36509 
L 481.099495 349.609831 
L 482.565462 349.236296 
L 484.186394 349.170326 
L 485.81194 348.039172 
L 486.731782 347.117636 
L 486.926467 346.770674 
L 487.492491 345.761923 
L 487.658912 345.465331 
L 487.749479 345.223182 
L 488.044226 344.43512 
L 488.294572 343.765772 
L 488.249845 343.277264 
L 488.243199 343.204675 
L 487.146061 342.845372 
L 486.578023 342.045177 
L 486.626983 340.496673 
L 487.775832 338.065512 
L 488.482158 337.272741 
L 489.844694 336.700628 
L 491.282654 335.572888 
L 492.069732 334.541273 
L 492.206978 332.434203 
L 491.745289 331.883686 
L 491.641262 330.804115 
L 492.041599 329.269117 
L 493.210559 328.389448 
L 494.106426 325.864962 
L 493.794427 324.346522 
L 494.655065 322.897067 
L 496.670847 323.892587 
L 497.567082 323.819593 
L 497.775595 322.693786 
L 497.601804 322.04718 
L 497.067227 319.938428 
L 495.296196 317.627609 
L 496.270617 316.771482 
L 497.423573 316.408586 
L 498.301881 316.278294 
L 499.063611 317.932136 
L 500.097095 317.966477 
L 501.502398 317.158892 
L 502.260277 315.80533 
L 503.555929 314.805911 
L 505.499443 314.494101 
L 507.096645 313.12921 
L 506.953407 311.889486 
L 505.314568 309.80732 
L 505.639522 307.877169 
L 507.484295 306.295748 
L 508.190704 305.690183 
L 511.996992 302.877889 
L 513.539394 301.995731 
L 515.212338 301.413136 
L 516.150376 301.518126 
L 518.583766 301.789951 
L 522.648302 300.694944 
L 525.590654 300.833498 
L 527.630413 301.226712 
L 533.567465 303.057673 
L 535.107117 303.209745 
L 537.754734 301.704263 
L 539.226258 300.155511 
L 540.953895 298.865098 
L 543.599777 297.543334 
L 545.913203 296.92314 
L 547.697166 296.874709 
L 551.822089 296.126069 
L 554.105953 296.254984 
L 556.237144 296.757865 
L 558.802392 297.363223 
L 561.324076 296.044597 
L 564.498754 294.996027 
L 565.987134 293.917978 
L 577.525162 291.508458 
L 579.330906 290.209941 
L 582.763832 288.858619 
L 587.744096 285.064038 
L 589.68205 284.219319 
L 591.261506 282.80012 
L 592.75013 282.305529 
L 593.857328 280.21327 
L 596.407372 277.75837 
L 597.580903 277.019013 
L 599.642414 276.633654 
L 599.867182 275.937505 
L 600.647269 274.993596 
L 602.805772 273.449172 
L 603.796683 271.071737 
L 603.87265 270.889474 
L 605.486216 271.281434 
L 606.466704 271.676091 
L 606.850729 272.453108 
L 606.603259 273.252508 
L 606.460392 274.065891 
L 606.527882 275.056495 
L 607.190182 276.189941 
L 607.328462 277.074461 
L 607.204655 277.657778 
L 607.203038 278.186658 
L 608.635093 280.598876 
L 609.193877 281.095122 
L 609.507943 281.626071 
L 608.593077 282.685463 
L 607.923546 283.724342 
L 608.232726 286.129477 
L 607.914289 287.224996 
L 607.22654 288.019576 
L 606.979374 288.885382 
L 606.861418 293.1281 
L 607.385335 294.121513 
L 608.085284 294.829113 
L 609.134751 295.152854 
L 609.82269 295.808375 
L 610.624357 296.978226 
L 611.571272 297.265519 
L 612.376618 297.762687 
L 612.585331 298.542467 
L 612.283697 299.408864 
L 611.261409 301.242856 
L 610.452282 302.373969 
L 610.380236 302.866981 
L 610.973893 303.611876 
L 612.760602 304.608364 
L 612.899892 305.070213 
L 612.932324 306.024993 
L 613.553458 307.101528 
L 613.668942 307.690008 
L 613.796099 308.340173 
L 613.792384 309.506884 
L 614.06951 310.462638 
L 614.646459 311.225537 
L 616.605046 311.468677 
L 617.4433 312.035467 
L 618.390057 312.218738 
L 619.688458 312.255741 
L 619.933349 312.610182 
L 620.387489 313.035579 
L 620.560718 313.956269 
L 620.558529 314.840428 
L 620.728368 315.577092 
L 620.448121 316.382358 
L 620.447062 317.160281 
L 620.827834 318.577293 
L 620.878364 319.337705 
L 621.367523 319.903721 
L 622.067671 320.489839 
L 622.415797 321.270769 
L 622.176018 321.880083 
L 621.956288 322.437897 
L 621.354777 324.520949 
L 620.577637 326.341309 
L 620.154804 327.011721 
L 620.011352 327.754592 
L 620.044679 328.531221 
L 619.937571 329.204095 
L 619.444914 329.733806 
L 618.30142 330.618246 
L 617.775312 330.899251 
L 617.63318 331.429664 
L 617.912614 331.713654 
L 617.87652 332.137125 
L 617.489907 332.560816 
L 617.629708 333.020801 
L 617.873337 333.339984 
L 617.732481 333.695478 
L 617.731569 334.026986 
L 617.975964 334.249548 
L 618.537683 334.039569 
L 618.958449 334.217594 
L 618.957778 334.570617 
L 618.569841 334.957239 
L 617.971547 335.381451 
L 617.584932 336.052855 
L 617.475863 337.291689 
L 617.684262 338.317295 
L 618.17331 338.743177 
L 618.647307 338.76218 
L 619.80503 338.623406 
L 620.540223 339.263116 
L 620.641493 340.501429 
L 621.867586 341.31927 
L 622.636364 342.134405 
L 622.562174 343.373745 
L 622.174081 344.198555 
L 621.891646 345.047372 
L 621.887441 346.151324 
L 621.441801 348.88424 
L 620.948569 349.730839 
L 620.315846 350.19027 
L 619.787452 350.71905 
L 619.469276 351.566907 
L 619.570138 352.55752 
L 619.85018 353.302546 
L 619.846617 354.255863 
L 619.458842 355.189666 
L 619.386941 355.931756 
L 619.627985 356.958345 
L 619.627294 357.34754 
L 619.414596 357.914469 
L 619.413783 358.620509 
L 619.234529 359.432483 
L 618.198764 360.156522 
L 617.70559 360.720187 
L 617.491942 361.816432 
L 617.10399 362.487438 
L 616.366337 362.66145 
L 615.769631 362.695605 
L 615.55804 363.033597 
L 615.204482 363.952849 
L 615.00921 364.126054 
L 614.701663 364.398848 
L 614.606908 364.482895 
L 614.394953 364.870344 
L 614.034546 364.972825 
L 613.131763 364.72332 
L 612.675439 364.93585 
L 612.569413 365.289147 
L 613.02476 365.644398 
L 613.583401 365.893635 
L 613.759014 366.353209 
L 612.774626 367.165072 
L 612.791745 367.466165 
L 613.210121 367.997651 
L 613.279217 368.316018 
L 612.751983 368.702886 
L 611.662684 369.231134 
L 611.451083 369.690931 
L 611.799667 370.046001 
L 612.185839 370.279309 
L 612.184312 370.633726 
L 611.831992 371.376243 
L 611.797939 371.772235 
L 612.067627 372.283408 
L 612.983743 373.146756 
L 613.438749 373.71445 
L 613.612944 374.209291 
L 613.400812 374.988237 
L 613.468043 375.588219 
L 613.711532 376.58045 
L 613.762056 377.120635 
L 612.952799 377.898063 
L 611.159968 378.989223 
L 609.555735 380.388714 
L 608.886683 381.164578 
L 608.464909 381.516404 
L 607.550712 382.009767 
L 606.778019 382.29045 
L 604.951995 382.673188 
L 603.249705 382.934103 
L 601.70567 382.963826 
L 600.303196 382.499704 
L 599.320246 382.462207 
L 598.572168 382.813581 
L 597.903917 383.376986 
L 597.585127 384.331185 
L 597.057118 384.895767 
L 596.600237 385.142218 
L 596.004189 385.034436 
L 595.164267 384.429806 
L 594.148938 383.507513 
L 593.553327 383.151982 
L 592.746924 383.042883 
L 591.677195 382.704109 
L 589.960331 381.991128 
L 589.013433 381.775975 
L 588.293866 381.809217 
L 587.415998 381.947721 
L 586.469369 381.838337 
L 585.59266 381.588498 
L 584.892238 381.161294 
L 583.875694 380.946439 
L 583.067635 381.262746 
L 582.117526 382.072923 
L 581.272383 383.13151 
L 580.655976 384.031385 
L 580.513734 384.384675 
L 580.127415 384.631246 
L 579.249689 384.947423 
L 578.511594 385.333021 
L 577.526386 386.037823 
L 575.037929 388.457058 
L 574.684317 389.375544 
L 574.154865 390.47048 
L 573.66125 390.999444 
L 572.819044 391.173729 
L 572.379808 391.401667 
L 571.693064 392.65179 
L 571.603683 392.814449 
L 570.663144 393.826989 
L 569.92492 394.284509 
L 569.327326 394.777553 
L 569.080068 395.165925 
L 569.044464 395.342639 
L 568.30469 396.15373 
L 567.883125 396.364075 
L 567.286809 396.397768 
L 566.165118 396.005474 
L 565.707933 396.14523 
L 564.970228 396.567944 
L 562.94776 398.000663 
L 561.612101 398.844537 
L 560.417711 399.370829 
L 559.432511 400.039047 
L 558.693166 400.849242 
L 558.654724 402.084853 
L 558.776803 402.674286 
L 558.751159 402.799144 
L 558.493076 404.023475 
L 557.653298 405.032657 
L 557.147412 406.26893 
L 556.865293 407.392325 
L 555.657742 408.218783 
L 555.049746 408.480236 
L 554.10788 409.049536 
L 551.663683 411.380629 
L 550.832052 412.054043 
L 549.943078 412.599862 
L 548.955904 412.650134 
L 548.216374 412.532708 
" clip-path="url(#p3d2a6e012e)" style="fill: #cccccc; fill-opacity: 0.65"/>
   </g>
   <g id="PatchCollection_2">
    <path d="M 357.227039 417.897876 
L 357.898723 418.484025 
L 358.581068 418.858036 
L 359.015353 419.451197 
L 361.112365 424.598452 
L 360.20497 424.82916 
L 360.650794 426.45596 
L 350.729458 429.581218 
L 347.052452 430.698379 
L 346.870551 430.744057 
L 346.483146 430.862158 
L 342.832617 431.929832 
L 337.156701 433.605893 
L 334.557906 434.396543 
L 322.054768 437.744037 
L 321.706377 437.841412 
L 307.951792 441.728222 
L 307.453926 439.999849 
L 306.970084 438.201767 
L 306.467278 436.346662 
L 305.935267 434.361357 
L 305.41581 432.432546 
L 304.936776 430.555823 
L 310.603639 428.50266 
L 324.296724 425.602443 
L 324.574722 425.533276 
L 324.985497 425.433557 
L 333.585389 423.217282 
L 335.787356 422.623231 
L 339.25449 421.693498 
L 347.457609 419.619574 
L 351.260677 418.857926 
L 357.227039 417.897876 
" clip-path="url(#p3d2a6e012e)" style="fill: none; stroke: #000000; stroke-width: 2"/>
   </g>
   <g id="matplotlib.axis_1">
    <g id="xtick_1">
     <g id="line2d_1">
      <path d="M 150.1126 618.293579 
L 150.1126 254.346421 
" clip-path="url(#p3d2a6e012e)" style="fill: none; stroke: #b0b0b0; stroke-width: 0.8; stroke-linecap: square"/>
     </g>
     <g id="line2d_2">
      <defs>
       <path id="ma3707c8060" d="M 0 0 
L 0 3.5 
" style="stroke: #000000; stroke-width: 0.8"/>
      </defs>
      <g>
       <use xlink:href="#ma3707c8060" x="150.1126" y="618.293579" style="stroke: #000000; stroke-width: 0.8"/>
      </g>
     </g>
     <g id="text_1">
      <!-- −47.8 -->
      <g transform="translate(141.229019 652.335994) rotate(-45) scale(0.1 -0.1)">
       <defs>
        <path id="DejaVuSans-2212" d="M 678 2272 
L 4684 2272 
L 4684 1741 
L 678 1741 
L 678 2272 
z
" transform="scale(0.015625)"/>
        <path id="DejaVuSans-34" d="M 2419 4116 
L 825 1625 
L 2419 1625 
L 2419 4116 
z
M 2253 4666 
L 3047 4666 
L 3047 1625 
L 3713 1625 
L 3713 1100 
L 3047 1100 
L 3047 0 
L 2419 0 
L 2419 1100 
L 313 1100 
L 313 1709 
L 2253 4666 
z
" transform="scale(0.015625)"/>
        <path id="DejaVuSans-37" d="M 525 4666 
L 3525 4666 
L 3525 4397 
L 1831 0 
L 1172 0 
L 2766 4134 
L 525 4134 
L 525 4666 
z
" transform="scale(0.015625)"/>
        <path id="DejaVuSans-2e" d="M 684 794 
L 1344 794 
L 1344 0 
L 684 0 
L 684 794 
z
" transform="scale(0.015625)"/>
        <path id="DejaVuSans-38" d="M 2034 2216 
Q 1584 2216 1326 1975 
Q 1069 1734 1069 1313 
Q 1069 891 1326 650 
Q 1584 409 2034 409 
Q 2484 409 2743 651 
Q 3003 894 3003 1313 
Q 3003 1734 2745 1975 
Q 2488 2216 2034 2216 
z
M 1403 2484 
Q 997 2584 770 2862 
Q 544 3141 544 3541 
Q 544 4100 942 4425 
Q 1341 4750 2034 4750 
Q 2731 4750 3128 4425 
Q 3525 4100 3525 3541 
Q 3525 3141 3298 2862 
Q 3072 2584 2669 2484 
Q 3125 2378 3379 2068 
Q 3634 1759 3634 1313 
Q 3634 634 3220 271 
Q 2806 -91 2034 -91 
Q 1263 -91 848 271 
Q 434 634 434 1313 
Q 434 1759 690 2068 
Q 947 2378 1403 2484 
z
M 1172 3481 
Q 1172 3119 1398 2916 
Q 1625 2713 2034 2713 
Q 2441 2713 2670 2916 
Q 2900 3119 2900 3481 
Q 2900 3844 2670 4047 
Q 2441 4250 2034 4250 
Q 1625 4250 1398 4047 
Q 1172 3844 1172 3481 
z
" transform="scale(0.015625)"/>
       </defs>
       <use xlink:href="#DejaVuSans-2212"/>
       <use xlink:href="#DejaVuSans-34" transform="translate(83.789062 0)"/>
       <use xlink:href="#DejaVuSans-37" transform="translate(147.412109 0)"/>
       <use xlink:href="#DejaVuSans-2e" transform="translate(211.035156 0)"/>
       <use xlink:href="#DejaVuSans-38" transform="translate(242.822266 0)"/>
      </g>
     </g>
    </g>
    <g id="xtick_2">
     <g id="line2d_3">
      <path d="M 251.714713 618.293579 
L 251.714713 254.346421 
" clip-path="url(#p3d2a6e012e)" style="fill: none; stroke: #b0b0b0; stroke-width: 0.8; stroke-linecap: square"/>
     </g>
     <g id="line2d_4">
      <g>
       <use xlink:href="#ma3707c8060" x="251.714713" y="618.293579" style="stroke: #000000; stroke-width: 0.8"/>
      </g>
     </g>
     <g id="text_2">
      <!-- −47.6 -->
      <g transform="translate(242.831132 652.335994) rotate(-45) scale(0.1 -0.1)">
       <defs>
        <path id="DejaVuSans-36" d="M 2113 2584 
Q 1688 2584 1439 2293 
Q 1191 2003 1191 1497 
Q 1191 994 1439 701 
Q 1688 409 2113 409 
Q 2538 409 2786 701 
Q 3034 994 3034 1497 
Q 3034 2003 2786 2293 
Q 2538 2584 2113 2584 
z
M 3366 4563 
L 3366 3988 
Q 3128 4100 2886 4159 
Q 2644 4219 2406 4219 
Q 1781 4219 1451 3797 
Q 1122 3375 1075 2522 
Q 1259 2794 1537 2939 
Q 1816 3084 2150 3084 
Q 2853 3084 3261 2657 
Q 3669 2231 3669 1497 
Q 3669 778 3244 343 
Q 2819 -91 2113 -91 
Q 1303 -91 875 529 
Q 447 1150 447 2328 
Q 447 3434 972 4092 
Q 1497 4750 2381 4750 
Q 2619 4750 2861 4703 
Q 3103 4656 3366 4563 
z
" transform="scale(0.015625)"/>
       </defs>
       <use xlink:href="#DejaVuSans-2212"/>
       <use xlink:href="#DejaVuSans-34" transform="translate(83.789062 0)"/>
       <use xlink:href="#DejaVuSans-37" transform="translate(147.412109 0)"/>
       <use xlink:href="#DejaVuSans-2e" transform="translate(211.035156 0)"/>
       <use xlink:href="#DejaVuSans-36" transform="translate(242.822266 0)"/>
      </g>
     </g>
    </g>
    <g id="xtick_3">
     <g id="line2d_5">
      <path d="M 353.316826 618.293579 
L 353.316826 254.346421 
" clip-path="url(#p3d2a6e012e)" style="fill: none; stroke: #b0b0b0; stroke-width: 0.8; stroke-linecap: square"/>
     </g>
     <g id="line2d_6">
      <g>
       <use xlink:href="#ma3707c8060" x="353.316826" y="618.293579" style="stroke: #000000; stroke-width: 0.8"/>
      </g>
     </g>
     <g id="text_3">
      <!-- −47.4 -->
      <g transform="translate(344.433245 652.335994) rotate(-45) scale(0.1 -0.1)">
       <use xlink:href="#DejaVuSans-2212"/>
       <use xlink:href="#DejaVuSans-34" transform="translate(83.789062 0)"/>
       <use xlink:href="#DejaVuSans-37" transform="translate(147.412109 0)"/>
       <use xlink:href="#DejaVuSans-2e" transform="translate(211.035156 0)"/>
       <use xlink:href="#DejaVuSans-34" transform="translate(242.822266 0)"/>
      </g>
     </g>
    </g>
    <g id="xtick_4">
     <g id="line2d_7">
      <path d="M 454.918939 618.293579 
L 454.918939 254.346421 
" clip-path="url(#p3d2a6e012e)" style="fill: none; stroke: #b0b0b0; stroke-width: 0.8; stroke-linecap: square"/>
     </g>
     <g id="line2d_8">
      <g>
       <use xlink:href="#ma3707c8060" x="454.918939" y="618.293579" style="stroke: #000000; stroke-width: 0.8"/>
      </g>
     </g>
     <g id="text_4">
      <!-- −47.2 -->
      <g transform="translate(446.035358 652.335994) rotate(-45) scale(0.1 -0.1)">
       <defs>
        <path id="DejaVuSans-32" d="M 1228 531 
L 3431 531 
L 3431 0 
L 469 0 
L 469 531 
Q 828 903 1448 1529 
Q 2069 2156 2228 2338 
Q 2531 2678 2651 2914 
Q 2772 3150 2772 3378 
Q 2772 3750 2511 3984 
Q 2250 4219 1831 4219 
Q 1534 4219 1204 4116 
Q 875 4013 500 3803 
L 500 4441 
Q 881 4594 1212 4672 
Q 1544 4750 1819 4750 
Q 2544 4750 2975 4387 
Q 3406 4025 3406 3419 
Q 3406 3131 3298 2873 
Q 3191 2616 2906 2266 
Q 2828 2175 2409 1742 
Q 1991 1309 1228 531 
z
" transform="scale(0.015625)"/>
       </defs>
       <use xlink:href="#DejaVuSans-2212"/>
       <use xlink:href="#DejaVuSans-34" transform="translate(83.789062 0)"/>
       <use xlink:href="#DejaVuSans-37" transform="translate(147.412109 0)"/>
       <use xlink:href="#DejaVuSans-2e" transform="translate(211.035156 0)"/>
       <use xlink:href="#DejaVuSans-32" transform="translate(242.822266 0)"/>
      </g>
     </g>
    </g>
    <g id="xtick_5">
     <g id="line2d_9">
      <path d="M 556.521052 618.293579 
L 556.521052 254.346421 
" clip-path="url(#p3d2a6e012e)" style="fill: none; stroke: #b0b0b0; stroke-width: 0.8; stroke-linecap: square"/>
     </g>
     <g id="line2d_10">
      <g>
       <use xlink:href="#ma3707c8060" x="556.521052" y="618.293579" style="stroke: #000000; stroke-width: 0.8"/>
      </g>
     </g>
     <g id="text_5">
      <!-- −47.0 -->
      <g transform="translate(547.637471 652.335994) rotate(-45) scale(0.1 -0.1)">
       <defs>
        <path id="DejaVuSans-30" d="M 2034 4250 
Q 1547 4250 1301 3770 
Q 1056 3291 1056 2328 
Q 1056 1369 1301 889 
Q 1547 409 2034 409 
Q 2525 409 2770 889 
Q 3016 1369 3016 2328 
Q 3016 3291 2770 3770 
Q 2525 4250 2034 4250 
z
M 2034 4750 
Q 2819 4750 3233 4129 
Q 3647 3509 3647 2328 
Q 3647 1150 3233 529 
Q 2819 -91 2034 -91 
Q 1250 -91 836 529 
Q 422 1150 422 2328 
Q 422 3509 836 4129 
Q 1250 4750 2034 4750 
z
" transform="scale(0.015625)"/>
       </defs>
       <use xlink:href="#DejaVuSans-2212"/>
       <use xlink:href="#DejaVuSans-34" transform="translate(83.789062 0)"/>
       <use xlink:href="#DejaVuSans-37" transform="translate(147.412109 0)"/>
       <use xlink:href="#DejaVuSans-2e" transform="translate(211.035156 0)"/>
       <use xlink:href="#DejaVuSans-30" transform="translate(242.822266 0)"/>
      </g>
     </g>
    </g>
    <g id="text_6">
     <!-- Longitude (°) -->
     <g transform="translate(336.139844 665.404992) scale(0.1 -0.1)">
      <defs>
       <path id="DejaVuSans-4c" d="M 628 4666 
L 1259 4666 
L 1259 531 
L 3531 531 
L 3531 0 
L 628 0 
L 628 4666 
z
" transform="scale(0.015625)"/>
       <path id="DejaVuSans-6f" d="M 1959 3097 
Q 1497 3097 1228 2736 
Q 959 2375 959 1747 
Q 959 1119 1226 758 
Q 1494 397 1959 397 
Q 2419 397 2687 759 
Q 2956 1122 2956 1747 
Q 2956 2369 2687 2733 
Q 2419 3097 1959 3097 
z
M 1959 3584 
Q 2709 3584 3137 3096 
Q 3566 2609 3566 1747 
Q 3566 888 3137 398 
Q 2709 -91 1959 -91 
Q 1206 -91 779 398 
Q 353 888 353 1747 
Q 353 2609 779 3096 
Q 1206 3584 1959 3584 
z
" transform="scale(0.015625)"/>
       <path id="DejaVuSans-6e" d="M 3513 2113 
L 3513 0 
L 2938 0 
L 2938 2094 
Q 2938 2591 2744 2837 
Q 2550 3084 2163 3084 
Q 1697 3084 1428 2787 
Q 1159 2491 1159 1978 
L 1159 0 
L 581 0 
L 581 3500 
L 1159 3500 
L 1159 2956 
Q 1366 3272 1645 3428 
Q 1925 3584 2291 3584 
Q 2894 3584 3203 3211 
Q 3513 2838 3513 2113 
z
" transform="scale(0.015625)"/>
       <path id="DejaVuSans-67" d="M 2906 1791 
Q 2906 2416 2648 2759 
Q 2391 3103 1925 3103 
Q 1463 3103 1205 2759 
Q 947 2416 947 1791 
Q 947 1169 1205 825 
Q 1463 481 1925 481 
Q 2391 481 2648 825 
Q 2906 1169 2906 1791 
z
M 3481 434 
Q 3481 -459 3084 -895 
Q 2688 -1331 1869 -1331 
Q 1566 -1331 1297 -1286 
Q 1028 -1241 775 -1147 
L 775 -588 
Q 1028 -725 1275 -790 
Q 1522 -856 1778 -856 
Q 2344 -856 2625 -561 
Q 2906 -266 2906 331 
L 2906 616 
Q 2728 306 2450 153 
Q 2172 0 1784 0 
Q 1141 0 747 490 
Q 353 981 353 1791 
Q 353 2603 747 3093 
Q 1141 3584 1784 3584 
Q 2172 3584 2450 3431 
Q 2728 3278 2906 2969 
L 2906 3500 
L 3481 3500 
L 3481 434 
z
" transform="scale(0.015625)"/>
       <path id="DejaVuSans-69" d="M 603 3500 
L 1178 3500 
L 1178 0 
L 603 0 
L 603 3500 
z
M 603 4863 
L 1178 4863 
L 1178 4134 
L 603 4134 
L 603 4863 
z
" transform="scale(0.015625)"/>
       <path id="DejaVuSans-74" d="M 1172 4494 
L 1172 3500 
L 2356 3500 
L 2356 3053 
L 1172 3053 
L 1172 1153 
Q 1172 725 1289 603 
Q 1406 481 1766 481 
L 2356 481 
L 2356 0 
L 1766 0 
Q 1100 0 847 248 
Q 594 497 594 1153 
L 594 3053 
L 172 3053 
L 172 3500 
L 594 3500 
L 594 4494 
L 1172 4494 
z
" transform="scale(0.015625)"/>
       <path id="DejaVuSans-75" d="M 544 1381 
L 544 3500 
L 1119 3500 
L 1119 1403 
Q 1119 906 1312 657 
Q 1506 409 1894 409 
Q 2359 409 2629 706 
Q 2900 1003 2900 1516 
L 2900 3500 
L 3475 3500 
L 3475 0 
L 2900 0 
L 2900 538 
Q 2691 219 2414 64 
Q 2138 -91 1772 -91 
Q 1169 -91 856 284 
Q 544 659 544 1381 
z
M 1991 3584 
L 1991 3584 
z
" transform="scale(0.015625)"/>
       <path id="DejaVuSans-64" d="M 2906 2969 
L 2906 4863 
L 3481 4863 
L 3481 0 
L 2906 0 
L 2906 525 
Q 2725 213 2448 61 
Q 2172 -91 1784 -91 
Q 1150 -91 751 415 
Q 353 922 353 1747 
Q 353 2572 751 3078 
Q 1150 3584 1784 3584 
Q 2172 3584 2448 3432 
Q 2725 3281 2906 2969 
z
M 947 1747 
Q 947 1113 1208 752 
Q 1469 391 1925 391 
Q 2381 391 2643 752 
Q 2906 1113 2906 1747 
Q 2906 2381 2643 2742 
Q 2381 3103 1925 3103 
Q 1469 3103 1208 2742 
Q 947 2381 947 1747 
z
" transform="scale(0.015625)"/>
       <path id="DejaVuSans-65" d="M 3597 1894 
L 3597 1613 
L 953 1613 
Q 991 1019 1311 708 
Q 1631 397 2203 397 
Q 2534 397 2845 478 
Q 3156 559 3463 722 
L 3463 178 
Q 3153 47 2828 -22 
Q 2503 -91 2169 -91 
Q 1331 -91 842 396 
Q 353 884 353 1716 
Q 353 2575 817 3079 
Q 1281 3584 2069 3584 
Q 2775 3584 3186 3129 
Q 3597 2675 3597 1894 
z
M 3022 2063 
Q 3016 2534 2758 2815 
Q 2500 3097 2075 3097 
Q 1594 3097 1305 2825 
Q 1016 2553 972 2059 
L 3022 2063 
z
" transform="scale(0.015625)"/>
       <path id="DejaVuSans-20" transform="scale(0.015625)"/>
       <path id="DejaVuSans-28" d="M 1984 4856 
Q 1566 4138 1362 3434 
Q 1159 2731 1159 2009 
Q 1159 1288 1364 580 
Q 1569 -128 1984 -844 
L 1484 -844 
Q 1016 -109 783 600 
Q 550 1309 550 2009 
Q 550 2706 781 3412 
Q 1013 4119 1484 4856 
L 1984 4856 
z
" transform="scale(0.015625)"/>
       <path id="DejaVuSans-b0" d="M 1600 4347 
Q 1350 4347 1178 4173 
Q 1006 4000 1006 3750 
Q 1006 3503 1178 3333 
Q 1350 3163 1600 3163 
Q 1850 3163 2022 3333 
Q 2194 3503 2194 3750 
Q 2194 3997 2020 4172 
Q 1847 4347 1600 4347 
z
M 1600 4750 
Q 1800 4750 1984 4673 
Q 2169 4597 2303 4453 
Q 2447 4313 2519 4134 
Q 2591 3956 2591 3750 
Q 2591 3338 2302 3052 
Q 2013 2766 1594 2766 
Q 1172 2766 890 3047 
Q 609 3328 609 3750 
Q 609 4169 896 4459 
Q 1184 4750 1600 4750 
z
" transform="scale(0.015625)"/>
       <path id="DejaVuSans-29" d="M 513 4856 
L 1013 4856 
Q 1481 4119 1714 3412 
Q 1947 2706 1947 2009 
Q 1947 1309 1714 600 
Q 1481 -109 1013 -844 
L 513 -844 
Q 928 -128 1133 580 
Q 1338 1288 1338 2009 
Q 1338 2731 1133 3434 
Q 928 4138 513 4856 
z
" transform="scale(0.015625)"/>
      </defs>
      <use xlink:href="#DejaVuSans-4c"/>
      <use xlink:href="#DejaVuSans-6f" transform="translate(53.962891 0)"/>
      <use xlink:href="#DejaVuSans-6e" transform="translate(115.144531 0)"/>
      <use xlink:href="#DejaVuSans-67" transform="translate(178.523438 0)"/>
      <use xlink:href="#DejaVuSans-69" transform="translate(242 0)"/>
      <use xlink:href="#DejaVuSans-74" transform="translate(269.783203 0)"/>
      <use xlink:href="#DejaVuSans-75" transform="translate(308.992188 0)"/>
      <use xlink:href="#DejaVuSans-64" transform="translate(372.371094 0)"/>
      <use xlink:href="#DejaVuSans-65" transform="translate(435.847656 0)"/>
      <use xlink:href="#DejaVuSans-20" transform="translate(497.371094 0)"/>
      <use xlink:href="#DejaVuSans-28" transform="translate(529.158203 0)"/>
      <use xlink:href="#DejaVuSans-b0" transform="translate(568.171875 0)"/>
      <use xlink:href="#DejaVuSans-29" transform="translate(618.171875 0)"/>
     </g>
    </g>
   </g>
   <g id="matplotlib.axis_2">
    <g id="ytick_1">
     <g id="line2d_11">
      <path d="M 90 578.431489 
L 648 578.431489 
" clip-path="url(#p3d2a6e012e)" style="fill: none; stroke: #b0b0b0; stroke-width: 0.8; stroke-linecap: square"/>
     </g>
     <g id="line2d_12">
      <defs>
       <path id="m6295bb3497" d="M 0 0 
L -3.5 0 
" style="stroke: #000000; stroke-width: 0.8"/>
      </defs>
      <g>
       <use xlink:href="#m6295bb3497" x="90" y="578.431489" style="stroke: #000000; stroke-width: 0.8"/>
      </g>
     </g>
     <g id="text_7">
      <!-- −5.6 -->
      <g transform="translate(58.717187 582.230708) scale(0.1 -0.1)">
       <defs>
        <path id="DejaVuSans-35" d="M 691 4666 
L 3169 4666 
L 3169 4134 
L 1269 4134 
L 1269 2991 
Q 1406 3038 1543 3061 
Q 1681 3084 1819 3084 
Q 2600 3084 3056 2656 
Q 3513 2228 3513 1497 
Q 3513 744 3044 326 
Q 2575 -91 1722 -91 
Q 1428 -91 1123 -41 
Q 819 9 494 109 
L 494 744 
Q 775 591 1075 516 
Q 1375 441 1709 441 
Q 2250 441 2565 725 
Q 2881 1009 2881 1497 
Q 2881 1984 2565 2268 
Q 2250 2553 1709 2553 
Q 1456 2553 1204 2497 
Q 953 2441 691 2322 
L 691 4666 
z
" transform="scale(0.015625)"/>
       </defs>
       <use xlink:href="#DejaVuSans-2212"/>
       <use xlink:href="#DejaVuSans-35" transform="translate(83.789062 0)"/>
       <use xlink:href="#DejaVuSans-2e" transform="translate(147.412109 0)"/>
       <use xlink:href="#DejaVuSans-36" transform="translate(179.199219 0)"/>
      </g>
     </g>
    </g>
    <g id="ytick_2">
     <g id="line2d_13">
      <path d="M 90 527.41159 
L 648 527.41159 
" clip-path="url(#p3d2a6e012e)" style="fill: none; stroke: #b0b0b0; stroke-width: 0.8; stroke-linecap: square"/>
     </g>
     <g id="line2d_14">
      <g>
       <use xlink:href="#m6295bb3497" x="90" y="527.41159" style="stroke: #000000; stroke-width: 0.8"/>
      </g>
     </g>
     <g id="text_8">
      <!-- −5.5 -->
      <g transform="translate(58.717187 531.210809) scale(0.1 -0.1)">
       <use xlink:href="#DejaVuSans-2212"/>
       <use xlink:href="#DejaVuSans-35" transform="translate(83.789062 0)"/>
       <use xlink:href="#DejaVuSans-2e" transform="translate(147.412109 0)"/>
       <use xlink:href="#DejaVuSans-35" transform="translate(179.199219 0)"/>
      </g>
     </g>
    </g>
    <g id="ytick_3">
     <g id="line2d_15">
      <path d="M 90 476.391692 
L 648 476.391692 
" clip-path="url(#p3d2a6e012e)" style="fill: none; stroke: #b0b0b0; stroke-width: 0.8; stroke-linecap: square"/>
     </g>
     <g id="line2d_16">
      <g>
       <use xlink:href="#m6295bb3497" x="90" y="476.391692" style="stroke: #000000; stroke-width: 0.8"/>
      </g>
     </g>
     <g id="text_9">
      <!-- −5.4 -->
      <g transform="translate(58.717187 480.190911) scale(0.1 -0.1)">
       <use xlink:href="#DejaVuSans-2212"/>
       <use xlink:href="#DejaVuSans-35" transform="translate(83.789062 0)"/>
       <use xlink:href="#DejaVuSans-2e" transform="translate(147.412109 0)"/>
       <use xlink:href="#DejaVuSans-34" transform="translate(179.199219 0)"/>
      </g>
     </g>
    </g>
    <g id="ytick_4">
     <g id="line2d_17">
      <path d="M 90 425.371793 
L 648 425.371793 
" clip-path="url(#p3d2a6e012e)" style="fill: none; stroke: #b0b0b0; stroke-width: 0.8; stroke-linecap: square"/>
     </g>
     <g id="line2d_18">
      <g>
       <use xlink:href="#m6295bb3497" x="90" y="425.371793" style="stroke: #000000; stroke-width: 0.8"/>
      </g>
     </g>
     <g id="text_10">
      <!-- −5.3 -->
      <g transform="translate(58.717187 429.171012) scale(0.1 -0.1)">
       <defs>
        <path id="DejaVuSans-33" d="M 2597 2516 
Q 3050 2419 3304 2112 
Q 3559 1806 3559 1356 
Q 3559 666 3084 287 
Q 2609 -91 1734 -91 
Q 1441 -91 1130 -33 
Q 819 25 488 141 
L 488 750 
Q 750 597 1062 519 
Q 1375 441 1716 441 
Q 2309 441 2620 675 
Q 2931 909 2931 1356 
Q 2931 1769 2642 2001 
Q 2353 2234 1838 2234 
L 1294 2234 
L 1294 2753 
L 1863 2753 
Q 2328 2753 2575 2939 
Q 2822 3125 2822 3475 
Q 2822 3834 2567 4026 
Q 2313 4219 1838 4219 
Q 1578 4219 1281 4162 
Q 984 4106 628 3988 
L 628 4550 
Q 988 4650 1302 4700 
Q 1616 4750 1894 4750 
Q 2613 4750 3031 4423 
Q 3450 4097 3450 3541 
Q 3450 3153 3228 2886 
Q 3006 2619 2597 2516 
z
" transform="scale(0.015625)"/>
       </defs>
       <use xlink:href="#DejaVuSans-2212"/>
       <use xlink:href="#DejaVuSans-35" transform="translate(83.789062 0)"/>
       <use xlink:href="#DejaVuSans-2e" transform="translate(147.412109 0)"/>
       <use xlink:href="#DejaVuSans-33" transform="translate(179.199219 0)"/>
      </g>
     </g>
    </g>
    <g id="ytick_5">
     <g id="line2d_19">
      <path d="M 90 374.351895 
L 648 374.351895 
" clip-path="url(#p3d2a6e012e)" style="fill: none; stroke: #b0b0b0; stroke-width: 0.8; stroke-linecap: square"/>
     </g>
     <g id="line2d_20">
      <g>
       <use xlink:href="#m6295bb3497" x="90" y="374.351895" style="stroke: #000000; stroke-width: 0.8"/>
      </g>
     </g>
     <g id="text_11">
      <!-- −5.2 -->
      <g transform="translate(58.717187 378.151114) scale(0.1 -0.1)">
       <use xlink:href="#DejaVuSans-2212"/>
       <use xlink:href="#DejaVuSans-35" transform="translate(83.789062 0)"/>
       <use xlink:href="#DejaVuSans-2e" transform="translate(147.412109 0)"/>
       <use xlink:href="#DejaVuSans-32" transform="translate(179.199219 0)"/>
      </g>
     </g>
    </g>
    <g id="ytick_6">
     <g id="line2d_21">
      <path d="M 90 323.331996 
L 648 323.331996 
" clip-path="url(#p3d2a6e012e)" style="fill: none; stroke: #b0b0b0; stroke-width: 0.8; stroke-linecap: square"/>
     </g>
     <g id="line2d_22">
      <g>
       <use xlink:href="#m6295bb3497" x="90" y="323.331996" style="stroke: #000000; stroke-width: 0.8"/>
      </g>
     </g>
     <g id="text_12">
      <!-- −5.1 -->
      <g transform="translate(58.717187 327.131215) scale(0.1 -0.1)">
       <defs>
        <path id="DejaVuSans-31" d="M 794 531 
L 1825 531 
L 1825 4091 
L 703 3866 
L 703 4441 
L 1819 4666 
L 2450 4666 
L 2450 531 
L 3481 531 
L 3481 0 
L 794 0 
L 794 531 
z
" transform="scale(0.015625)"/>
       </defs>
       <use xlink:href="#DejaVuSans-2212"/>
       <use xlink:href="#DejaVuSans-35" transform="translate(83.789062 0)"/>
       <use xlink:href="#DejaVuSans-2e" transform="translate(147.412109 0)"/>
       <use xlink:href="#DejaVuSans-31" transform="translate(179.199219 0)"/>
      </g>
     </g>
    </g>
    <g id="ytick_7">
     <g id="line2d_23">
      <path d="M 90 272.312098 
L 648 272.312098 
" clip-path="url(#p3d2a6e012e)" style="fill: none; stroke: #b0b0b0; stroke-width: 0.8; stroke-linecap: square"/>
     </g>
     <g id="line2d_24">
      <g>
       <use xlink:href="#m6295bb3497" x="90" y="272.312098" style="stroke: #000000; stroke-width: 0.8"/>
      </g>
     </g>
     <g id="text_13">
      <!-- −5.0 -->
      <g transform="translate(58.717187 276.111317) scale(0.1 -0.1)">
       <use xlink:href="#DejaVuSans-2212"/>
       <use xlink:href="#DejaVuSans-35" transform="translate(83.789062 0)"/>
       <use xlink:href="#DejaVuSans-2e" transform="translate(147.412109 0)"/>
       <use xlink:href="#DejaVuSans-30" transform="translate(179.199219 0)"/>
      </g>
     </g>
    </g>
    <g id="text_14">
     <!-- Latitude (°) -->
     <g transform="translate(52.6375 464.889531) rotate(-90) scale(0.1 -0.1)">
      <defs>
       <path id="DejaVuSans-61" d="M 2194 1759 
Q 1497 1759 1228 1600 
Q 959 1441 959 1056 
Q 959 750 1161 570 
Q 1363 391 1709 391 
Q 2188 391 2477 730 
Q 2766 1069 2766 1631 
L 2766 1759 
L 2194 1759 
z
M 3341 1997 
L 3341 0 
L 2766 0 
L 2766 531 
Q 2569 213 2275 61 
Q 1981 -91 1556 -91 
Q 1019 -91 701 211 
Q 384 513 384 1019 
Q 384 1609 779 1909 
Q 1175 2209 1959 2209 
L 2766 2209 
L 2766 2266 
Q 2766 2663 2505 2880 
Q 2244 3097 1772 3097 
Q 1472 3097 1187 3025 
Q 903 2953 641 2809 
L 641 3341 
Q 956 3463 1253 3523 
Q 1550 3584 1831 3584 
Q 2591 3584 2966 3190 
Q 3341 2797 3341 1997 
z
" transform="scale(0.015625)"/>
      </defs>
      <use xlink:href="#DejaVuSans-4c"/>
      <use xlink:href="#DejaVuSans-61" transform="translate(55.712891 0)"/>
      <use xlink:href="#DejaVuSans-74" transform="translate(116.992188 0)"/>
      <use xlink:href="#DejaVuSans-69" transform="translate(156.201172 0)"/>
      <use xlink:href="#DejaVuSans-74" transform="translate(183.984375 0)"/>
      <use xlink:href="#DejaVuSans-75" transform="translate(223.193359 0)"/>
      <use xlink:href="#DejaVuSans-64" transform="translate(286.572266 0)"/>
      <use xlink:href="#DejaVuSans-65" transform="translate(350.048828 0)"/>
      <use xlink:href="#DejaVuSans-20" transform="translate(411.572266 0)"/>
      <use xlink:href="#DejaVuSans-28" transform="translate(443.359375 0)"/>
      <use xlink:href="#DejaVuSans-b0" transform="translate(482.373047 0)"/>
      <use xlink:href="#DejaVuSans-29" transform="translate(532.373047 0)"/>
     </g>
    </g>
   </g>
   <g id="patch_3">
    <path d="M 90 618.293579 
L 90 254.346421 
" style="fill: none; stroke: #000000; stroke-width: 0.8; stroke-linejoin: miter; stroke-linecap: square"/>
   </g>
   <g id="patch_4">
    <path d="M 648 618.293579 
L 648 254.346421 
" style="fill: none; stroke: #000000; stroke-width: 0.8; stroke-linejoin: miter; stroke-linecap: square"/>
   </g>
   <g id="patch_5">
    <path d="M 90 618.293579 
L 648 618.293579 
" style="fill: none; stroke: #000000; stroke-width: 0.8; stroke-linejoin: miter; stroke-linecap: square"/>
   </g>
   <g id="patch_6">
    <path d="M 90 254.346421 
L 648 254.346421 
" style="fill: none; stroke: #000000; stroke-width: 0.8; stroke-linejoin: miter; stroke-linecap: square"/>
   </g>
   <g id="legend_1">
    <g id="patch_7">
     <path d="M 274.93125 695.655965 
L 463.06875 695.655965 
Q 465.06875 695.655965 465.06875 693.655965 
L 465.06875 679.885653 
Q 465.06875 677.885653 463.06875 677.885653 
L 274.93125 677.885653 
Q 272.93125 677.885653 272.93125 679.885653 
L 272.93125 693.655965 
Q 272.93125 695.655965 274.93125 695.655965 
z
" style="fill: #ffffff; opacity: 0.8; stroke: #cccccc; stroke-linejoin: miter"/>
    </g>
    <g id="line2d_25">
     <defs>
      <path id="m4f8de7b17c" d="M 0 5 
C 1.326016 5 2.597899 4.473168 3.535534 3.535534 
C 4.473168 2.597899 5 1.326016 5 0 
C 5 -1.326016 4.473168 -2.597899 3.535534 -3.535534 
C 2.597899 -4.473168 1.326016 -5 0 -5 
C -1.326016 -5 -2.597899 -4.473168 -3.535534 -3.535534 
C -4.473168 -2.597899 -5 -1.326016 -5 0 
C -5 1.326016 -4.473168 2.597899 -3.535534 3.535534 
C -2.597899 4.473168 -1.326016 5 0 5 
z
"/>
     </defs>
     <g>
      <use xlink:href="#m4f8de7b17c" x="286.93125" y="686.076278" style="fill: #b3e2cd; fill-opacity: 0.65"/>
     </g>
    </g>
    <g id="text_15">
     <!-- Imperatriz -->
     <g transform="translate(304.93125 689.576278) scale(0.1 -0.1)">
      <defs>
       <path id="DejaVuSans-49" d="M 628 4666 
L 1259 4666 
L 1259 0 
L 628 0 
L 628 4666 
z
" transform="scale(0.015625)"/>
       <path id="DejaVuSans-6d" d="M 3328 2828 
Q 3544 3216 3844 3400 
Q 4144 3584 4550 3584 
Q 5097 3584 5394 3201 
Q 5691 2819 5691 2113 
L 5691 0 
L 5113 0 
L 5113 2094 
Q 5113 2597 4934 2840 
Q 4756 3084 4391 3084 
Q 3944 3084 3684 2787 
Q 3425 2491 3425 1978 
L 3425 0 
L 2847 0 
L 2847 2094 
Q 2847 2600 2669 2842 
Q 2491 3084 2119 3084 
Q 1678 3084 1418 2786 
Q 1159 2488 1159 1978 
L 1159 0 
L 581 0 
L 581 3500 
L 1159 3500 
L 1159 2956 
Q 1356 3278 1631 3431 
Q 1906 3584 2284 3584 
Q 2666 3584 2933 3390 
Q 3200 3197 3328 2828 
z
" transform="scale(0.015625)"/>
       <path id="DejaVuSans-70" d="M 1159 525 
L 1159 -1331 
L 581 -1331 
L 581 3500 
L 1159 3500 
L 1159 2969 
Q 1341 3281 1617 3432 
Q 1894 3584 2278 3584 
Q 2916 3584 3314 3078 
Q 3713 2572 3713 1747 
Q 3713 922 3314 415 
Q 2916 -91 2278 -91 
Q 1894 -91 1617 61 
Q 1341 213 1159 525 
z
M 3116 1747 
Q 3116 2381 2855 2742 
Q 2594 3103 2138 3103 
Q 1681 3103 1420 2742 
Q 1159 2381 1159 1747 
Q 1159 1113 1420 752 
Q 1681 391 2138 391 
Q 2594 391 2855 752 
Q 3116 1113 3116 1747 
z
" transform="scale(0.015625)"/>
       <path id="DejaVuSans-72" d="M 2631 2963 
Q 2534 3019 2420 3045 
Q 2306 3072 2169 3072 
Q 1681 3072 1420 2755 
Q 1159 2438 1159 1844 
L 1159 0 
L 581 0 
L 581 3500 
L 1159 3500 
L 1159 2956 
Q 1341 3275 1631 3429 
Q 1922 3584 2338 3584 
Q 2397 3584 2469 3576 
Q 2541 3569 2628 3553 
L 2631 2963 
z
" transform="scale(0.015625)"/>
       <path id="DejaVuSans-7a" d="M 353 3500 
L 3084 3500 
L 3084 2975 
L 922 459 
L 3084 459 
L 3084 0 
L 275 0 
L 275 525 
L 2438 3041 
L 353 3041 
L 353 3500 
z
" transform="scale(0.015625)"/>
      </defs>
      <use xlink:href="#DejaVuSans-49"/>
      <use xlink:href="#DejaVuSans-6d" transform="translate(29.492188 0)"/>
      <use xlink:href="#DejaVuSans-70" transform="translate(126.904297 0)"/>
      <use xlink:href="#DejaVuSans-65" transform="translate(190.380859 0)"/>
      <use xlink:href="#DejaVuSans-72" transform="translate(251.904297 0)"/>
      <use xlink:href="#DejaVuSans-61" transform="translate(293.017578 0)"/>
      <use xlink:href="#DejaVuSans-74" transform="translate(354.296875 0)"/>
      <use xlink:href="#DejaVuSans-72" transform="translate(393.505859 0)"/>
      <use xlink:href="#DejaVuSans-69" transform="translate(434.619141 0)"/>
      <use xlink:href="#DejaVuSans-7a" transform="translate(462.402344 0)"/>
     </g>
    </g>
    <g id="line2d_26">
     <defs>
      <path id="me043a283e3" d="M 0 5 
C 1.326016 5 2.597899 4.473168 3.535534 3.535534 
C 4.473168 2.597899 5 1.326016 5 0 
C 5 -1.326016 4.473168 -2.597899 3.535534 -3.535534 
C 2.597899 -4.473168 1.326016 -5 0 -5 
C -1.326016 -5 -2.597899 -4.473168 -3.535534 -3.535534 
C -4.473168 -2.597899 -5 -1.326016 -5 0 
C -5 1.326016 -4.473168 2.597899 -3.535534 3.535534 
C -2.597899 4.473168 -1.326016 5 0 5 
z
"/>
     </defs>
     <g>
      <use xlink:href="#me043a283e3" x="386.420312" y="686.076278" style="fill: #cccccc; fill-opacity: 0.65"/>
     </g>
    </g>
    <g id="text_16">
     <!-- João Lisboa -->
     <g transform="translate(404.420312 689.576278) scale(0.1 -0.1)">
      <defs>
       <path id="DejaVuSans-4a" d="M 628 4666 
L 1259 4666 
L 1259 325 
Q 1259 -519 939 -900 
Q 619 -1281 -91 -1281 
L -331 -1281 
L -331 -750 
L -134 -750 
Q 284 -750 456 -515 
Q 628 -281 628 325 
L 628 4666 
z
" transform="scale(0.015625)"/>
       <path id="DejaVuSans-e3" d="M 2194 1759 
Q 1497 1759 1228 1600 
Q 959 1441 959 1056 
Q 959 750 1161 570 
Q 1363 391 1709 391 
Q 2188 391 2477 730 
Q 2766 1069 2766 1631 
L 2766 1759 
L 2194 1759 
z
M 3341 1997 
L 3341 0 
L 2766 0 
L 2766 531 
Q 2569 213 2275 61 
Q 1981 -91 1556 -91 
Q 1019 -91 701 211 
Q 384 513 384 1019 
Q 384 1609 779 1909 
Q 1175 2209 1959 2209 
L 2766 2209 
L 2766 2266 
Q 2766 2663 2505 2880 
Q 2244 3097 1772 3097 
Q 1472 3097 1187 3025 
Q 903 2953 641 2809 
L 641 3341 
Q 956 3463 1253 3523 
Q 1550 3584 1831 3584 
Q 2591 3584 2966 3190 
Q 3341 2797 3341 1997 
z
M 1844 4281 
L 1666 4453 
Q 1597 4516 1545 4545 
Q 1494 4575 1453 4575 
Q 1334 4575 1278 4461 
Q 1222 4347 1216 4091 
L 825 4091 
Q 831 4513 990 4742 
Q 1150 4972 1434 4972 
Q 1553 4972 1653 4928 
Q 1753 4884 1869 4781 
L 2047 4609 
Q 2116 4547 2167 4517 
Q 2219 4488 2259 4488 
Q 2378 4488 2434 4602 
Q 2491 4716 2497 4972 
L 2888 4972 
Q 2881 4550 2722 4320 
Q 2563 4091 2278 4091 
Q 2159 4091 2059 4134 
Q 1959 4178 1844 4281 
z
" transform="scale(0.015625)"/>
       <path id="DejaVuSans-73" d="M 2834 3397 
L 2834 2853 
Q 2591 2978 2328 3040 
Q 2066 3103 1784 3103 
Q 1356 3103 1142 2972 
Q 928 2841 928 2578 
Q 928 2378 1081 2264 
Q 1234 2150 1697 2047 
L 1894 2003 
Q 2506 1872 2764 1633 
Q 3022 1394 3022 966 
Q 3022 478 2636 193 
Q 2250 -91 1575 -91 
Q 1294 -91 989 -36 
Q 684 19 347 128 
L 347 722 
Q 666 556 975 473 
Q 1284 391 1588 391 
Q 1994 391 2212 530 
Q 2431 669 2431 922 
Q 2431 1156 2273 1281 
Q 2116 1406 1581 1522 
L 1381 1569 
Q 847 1681 609 1914 
Q 372 2147 372 2553 
Q 372 3047 722 3315 
Q 1072 3584 1716 3584 
Q 2034 3584 2315 3537 
Q 2597 3491 2834 3397 
z
" transform="scale(0.015625)"/>
       <path id="DejaVuSans-62" d="M 3116 1747 
Q 3116 2381 2855 2742 
Q 2594 3103 2138 3103 
Q 1681 3103 1420 2742 
Q 1159 2381 1159 1747 
Q 1159 1113 1420 752 
Q 1681 391 2138 391 
Q 2594 391 2855 752 
Q 3116 1113 3116 1747 
z
M 1159 2969 
Q 1341 3281 1617 3432 
Q 1894 3584 2278 3584 
Q 2916 3584 3314 3078 
Q 3713 2572 3713 1747 
Q 3713 922 3314 415 
Q 2916 -91 2278 -91 
Q 1894 -91 1617 61 
Q 1341 213 1159 525 
L 1159 0 
L 581 0 
L 581 4863 
L 1159 4863 
L 1159 2969 
z
" transform="scale(0.015625)"/>
      </defs>
      <use xlink:href="#DejaVuSans-4a"/>
      <use xlink:href="#DejaVuSans-6f" transform="translate(29.492188 0)"/>
      <use xlink:href="#DejaVuSans-e3" transform="translate(90.673828 0)"/>
      <use xlink:href="#DejaVuSans-6f" transform="translate(151.953125 0)"/>
      <use xlink:href="#DejaVuSans-20" transform="translate(213.134766 0)"/>
      <use xlink:href="#DejaVuSans-4c" transform="translate(244.921875 0)"/>
      <use xlink:href="#DejaVuSans-69" transform="translate(300.634766 0)"/>
      <use xlink:href="#DejaVuSans-73" transform="translate(328.417969 0)"/>
      <use xlink:href="#DejaVuSans-62" transform="translate(380.517578 0)"/>
      <use xlink:href="#DejaVuSans-6f" transform="translate(443.994141 0)"/>
      <use xlink:href="#DejaVuSans-61" transform="translate(505.175781 0)"/>
     </g>
    </g>
   </g>
  </g>
 </g>
 <defs>
  <clipPath id="p3d2a6e012e">
   <rect x="90" y="254.346421" width="558" height="363.947158"/>
  </clipPath>
 </defs>
</svg>
