<?xml version="1.0" encoding="utf-8" standalone="no"?>
<!DOCTYPE svg PUBLIC "-//W3C//DTD SVG 1.1//EN"
  "http://www.w3.org/Graphics/SVG/1.1/DTD/svg11.dtd">
<svg xmlns:xlink="http://www.w3.org/1999/xlink" width="720pt" height="864pt" viewBox="0 0 720 864" xmlns="http://www.w3.org/2000/svg" version="1.1">
 <metadata>
  <rdf:RDF xmlns:dc="http://purl.org/dc/elements/1.1/" xmlns:cc="http://creativecommons.org/ns#" xmlns:rdf="http://www.w3.org/1999/02/22-rdf-syntax-ns#">
   <cc:Work>
    <dc:type rdf:resource="http://purl.org/dc/dcmitype/StillImage"/>
    <dc:date>2025-06-16T17:40:21.236986</dc:date>
    <dc:format>image/svg+xml</dc:format>
    <dc:creator>
     <cc:Agent>
      <dc:title>Matplotlib v3.10.1, https://matplotlib.org/</dc:title>
     </cc:Agent>
    </dc:creator>
   </cc:Work>
  </rdf:RDF>
 </metadata>
 <defs>
  <style type="text/css">*{stroke-linejoin: round; stroke-linecap: butt}</style>
 </defs>
 <g id="figure_1">
  <g id="patch_1">
   <path d="M 0 864 
L 720 864 
L 720 0 
L 0 0 
z
" style="fill: #ffffff"/>
  </g>
  <g id="axes_1">
   <g id="patch_2">
    <path d="M 152.047902 768.96 
L 585.952098 768.96 
L 585.952098 103.68 
L 152.047902 103.68 
z
" style="fill: #ffffff"/>
   </g>
   <g id="PatchCollection_1">
    <path d="M 343.782079 308.105854 
L 364.395834 309.849969 
L 365.190559 309.542071 
L 366.502868 309.336 
L 367.804981 310.218284 
L 369.710452 310.317207 
L 370.912362 309.82691 
L 372.116264 310.904945 
L 373.280232 310.937197 
L 372.679497 311.980236 
L 371.341939 310.865135 
L 369.851824 310.57368 
L 368.261979 311.058713 
L 367.370068 310.476862 
L 366.575531 309.798012 
L 364.988433 310.282098 
L 363.696787 311.44637 
L 362.851297 312.46444 
L 363.249779 314.888483 
L 363.250109 317.021118 
L 362.554614 319.059209 
L 361.561295 321.094804 
L 359.72502 322.209704 
L 355.754981 323.468533 
L 354.959863 324.923285 
L 353.371054 327.15329 
L 352.031845 329.432937 
L 350.443415 330.788668 
L 348.756246 331.468634 
L 347.862167 333.40821 
L 345.877458 334.570398 
L 344.387727 334.9594 
L 342.849503 336.462822 
L 340.962542 336.655525 
L 339.672693 336.266972 
L 338.481986 337.140443 
L 337.387833 338.108978 
L 336.594865 340.048516 
L 337.892703 340.135174 
L 339.126424 339.516427 
L 340.218025 340.388022 
L 340.019305 343.007507 
L 338.728589 344.171008 
L 336.942296 345.139203 
L 335.74988 346.206612 
L 335.898378 347.710511 
L 335.499706 349.551907 
L 334.408707 351.103037 
L 332.522752 352.849667 
L 331.728277 353.818896 
L 330.041876 354.304145 
L 328.302404 355.902078 
L 329.096432 357.065674 
L 330.189867 357.841205 
L 330.089543 359.00649 
L 327.608354 358.617187 
L 325.623412 358.034466 
L 324.382946 356.627495 
L 323.688627 354.689119 
L 322.298363 354.009835 
L 320.81044 354.397964 
L 318.426971 355.851483 
L 316.3816 356.380588 
L 316.104704 356.540688 
L 316.053791 356.868636 
L 316.194082 357.742519 
L 318.276638 358.616058 
L 318.973483 360.16755 
L 317.880565 362.980037 
L 316.341631 364.774486 
L 314.057688 366.614875 
L 310.286691 367.390089 
L 307.804915 366.129116 
L 307.253202 362.299568 
L 305.373886 360.164482 
L 303.425917 358.604366 
L 302.100767 357.54306 
L 300.310819 355.605496 
L 299.295979 354.781511 
L 299.147482 354.660907 
L 297.979935 353.712668 
L 296.821687 354.217015 
L 296.195351 354.489747 
L 293.534269 355.854611 
L 292.719001 357.590619 
L 291.825159 358.463049 
L 290.436243 358.462354 
L 289.245576 357.976713 
L 287.805867 358.316787 
L 287.010782 359.866935 
L 286.812165 361.225418 
L 286.116731 363.35815 
L 284.130893 364.232423 
L 281.501124 366.605053 
L 279.820535 366.122505 
L 278.821786 365.345884 
L 277.531033 365.054245 
L 275.843548 365.344684 
L 274.453511 366.508442 
L 272.914533 368.39725 
L 271.623538 369.174013 
L 269.638466 369.852555 
L 267.94978 371.207775 
L 267.94947 373.632747 
L 267.353753 374.989804 
L 265.914076 375.425973 
L 264.374407 375.427729 
L 264.140323 375.549914 
L 262.63849 377.657041 
L 261.941044 379.498132 
L 260.751584 380.952664 
L 258.615595 380.707958 
L 256.830986 381.486076 
L 254.447734 381.96926 
L 252.381147 379.951924 
L 251.074141 377.507966 
L 249.932589 376.973305 
L 248.144708 376.972957 
L 246.161581 377.846358 
L 244.472895 377.747128 
L 241.396676 378.424758 
L 240.475452 379.410095 
L 239.062684 380.510146 
L 237.573848 380.995299 
L 234.893928 380.41018 
L 232.809212 380.508851 
L 231.618355 381.282842 
L 232.265155 382.980667 
L 231.863794 385.017431 
L 230.475488 386.082505 
L 229.781884 385.759216 
L 229.33848 385.816728 
L 228.938652 385.365156 
L 228.191472 385.015872 
L 227.002699 383.172518 
L 225.762154 381.572102 
L 220.897607 381.569623 
L 216.827395 381.762261 
L 213.701443 384.623242 
L 209.43177 389.470022 
L 207.592969 391.168177 
L 206.815542 392.559274 
L 206.797495 395.143082 
L 207.392837 396.112369 
L 207.194825 396.985323 
L 207.194631 398.149054 
L 207.887919 399.894998 
L 207.838022 401.687749 
L 206.249136 403.916829 
L 206.149569 404.887607 
L 205.513884 405.657018 
L 205.0076 406.587063 
L 203.720249 406.819593 
L 203.672774 406.942666 
L 203.071575 407.214036 
L 202.872769 408.279141 
L 203.614407 410.074922 
L 203.417593 411.335793 
L 202.324763 412.984462 
L 200.537958 414.729795 
L 198.453075 414.728854 
L 197.659409 415.601438 
L 197.757353 416.376289 
L 197.344954 417.589036 
L 197.211906 417.975553 
L 195.721788 417.975943 
L 193.73589 418.943817 
L 192.245351 421.077794 
L 190.28058 423.312639 
L 190.13288 423.342492 
L 189.774831 423.750501 
L 188.124833 423.66834 
L 187.242567 424.143856 
L 187.331188 424.905097 
L 188.025584 425.392148 
L 190.011457 425.77924 
L 191.003884 426.556048 
L 190.726017 426.893716 
L 190.646836 427.514832 
L 189.832927 428.113179 
L 189.682885 427.932914 
L 188.963719 427.068883 
L 186.969998 426.995696 
L 183.69495 429.108412 
L 181.487676 430.003556 
L 180.596998 430.827766 
L 179.421161 431.543236 
L 178.38951 431.973618 
L 177.321823 432.295485 
L 175.720054 432.437927 
L 174.68772 432.25804 
L 173.833195 431.935454 
L 172.979991 431.289869 
L 172.303873 430.430223 
L 172.054666 429.606525 
L 171.948708 428.494997 
L 171.77082 427.814227 
L 171.770882 427.095065 
L 171.77121 426.129773 
L 172.662017 424.409815 
L 172.839883 423.728206 
L 172.840396 422.68972 
L 172.485562 421.328168 
L 172.627689 419.930505 
L 173.125946 418.569518 
L 173.589181 416.562925 
L 173.7345 412.477998 
L 174.518746 410.578901 
L 176.264283 409.110255 
L 176.90387 408.178816 
L 177.082128 407.533816 
L 177.1541 405.920948 
L 177.368166 404.451219 
L 177.937874 403.699821 
L 178.471297 403.269936 
L 181.427031 402.303391 
L 182.53029 401.408496 
L 184.061721 399.582481 
L 185.023333 399.04401 
L 185.949076 398.68614 
L 187.060417 398.410585 
L 187.78776 397.976937 
L 188.380817 397.353417 
L 188.784977 396.593639 
L 189.027657 395.59028 
L 189.082615 394.74983 
L 188.948388 393.013735 
L 188.706167 392.146068 
L 187.306132 388.944112 
L 186.984009 387.53377 
L 187.389405 384.333876 
L 188.44079 380.834766 
L 188.71151 378.041546 
L 188.684592 377.282428 
L 188.900625 375.817311 
L 189.575403 374.082296 
L 190.168473 373.457901 
L 191.192332 372.617867 
L 191.649948 371.777073 
L 192.108346 371.289431 
L 192.378756 370.204393 
L 192.459502 369.363697 
L 192.890733 368.549705 
L 193.322033 367.926015 
L 193.83412 367.383864 
L 194.482236 366.381077 
L 197.095983 363.66982 
L 197.63504 362.883131 
L 197.695528 360.566911 
L 197.643163 360.10998 
L 197.207664 358.566293 
L 197.104037 357.30201 
L 196.929777 356.512349 
L 196.633876 355.599467 
L 195.867043 353.826671 
L 195.518977 352.475146 
L 195.571324 351.456335 
L 195.049369 349.71861 
L 193.550286 347.699615 
L 193.254239 346.769335 
L 192.854644 345.224343 
L 191.831872 338.687328 
L 191.40534 337.295379 
L 191.250301 337.048053 
L 190.905517 335.464074 
L 190.887933 334.155001 
L 191.06947 333.367296 
L 192.362937 329.678413 
L 192.433168 329.252286 
L 192.913699 328.305191 
L 186.8716 310.869603 
L 186.854621 310.820608 
L 186.809283 310.689778 
L 186.786585 310.624276 
L 186.785608 310.621457 
L 186.874205 310.506404 
L 186.918502 310.448877 
L 186.9628 310.39135 
L 186.958725 310.37982 
L 186.914797 310.255602 
L 186.87087 310.131385 
L 182.671088 298.255249 
L 182.588815 298.022598 
L 182.577553 297.990755 
L 182.416313 297.534798 
L 181.91252 296.110172 
L 181.893102 296.055261 
L 181.885037 296.028439 
L 181.652194 295.254019 
L 181.194308 293.731111 
L 172.229229 263.806054 
L 172.097636 263.366802 
L 172.388226 263.550676 
L 172.678816 263.73455 
L 186.724688 272.622216 
L 190.847923 274.836708 
L 191.691679 275.289869 
L 193.726572 276.580483 
L 198.806085 279.802121 
L 207.314147 285.198288 
L 212.796352 288.67533 
L 227.959189 298.292231 
L 343.782079 308.105854 
" clip-path="url(#pca342baa84)" style="fill: #b3e2cd; fill-opacity: 0.65"/>
    <path d="M 521.39293 173.456452 
L 487.368517 260.630098 
L 473.97246 297.75969 
L 473.310779 297.588079 
L 472.967021 297.497375 
L 472.262699 298.377579 
L 472.114496 299.895812 
L 472.113409 302.686112 
L 472.112223 304.107782 
L 471.00972 304.696715 
L 469.908734 303.715859 
L 469.757352 302.294805 
L 470.360354 299.944578 
L 470.057873 297.398685 
L 467.95477 296.026534 
L 467.051135 295.832663 
L 465.698209 295.292235 
L 465.597211 294.213504 
L 465.097455 292.059034 
L 463.793764 290.296627 
L 461.940016 289.85537 
L 460.535661 289.953586 
L 459.533459 290.737131 
L 459.533249 291.716326 
L 459.934777 292.793884 
L 459.83362 293.969748 
L 459.081909 294.801071 
L 457.476632 295.390464 
L 456.574821 296.466502 
L 455.171123 297.447935 
L 453.567906 297.151367 
L 451.613277 297.006442 
L 447.504156 297.493916 
L 445.49931 297.200448 
L 443.842604 295.976359 
L 443.443634 294.60523 
L 442.741635 293.625725 
L 440.637166 294.11497 
L 439.53329 294.11507 
L 437.779449 294.55691 
L 437.77992 295.240826 
L 438.480643 297.00394 
L 439.484192 298.081003 
L 442.23999 299.012451 
L 443.04191 299.600531 
L 442.640258 300.873643 
L 441.838756 300.872556 
L 439.934437 299.795415 
L 437.678869 300.431589 
L 434.757241 301.779897 
L 434.069702 302.097191 
L 432.853588 302.542806 
L 431.664024 302.978097 
L 431.792765 303.926239 
L 431.863638 304.448189 
L 432.514535 305.280102 
L 432.213828 306.355653 
L 431.61345 307.337297 
L 431.613477 308.610982 
L 432.314586 309.589593 
L 433.216784 310.275414 
L 433.164153 311.793754 
L 432.062425 313.4589 
L 430.859984 314.437478 
L 429.557247 314.045544 
L 429.555602 313.067204 
L 430.559908 311.402117 
L 429.908075 310.570219 
L 428.904355 310.569346 
L 427.200749 313.703532 
L 426.901759 314.584326 
L 426.700274 315.56289 
L 425.84894 315.906122 
L 424.444122 315.418284 
L 422.840861 313.850743 
L 422.840026 311.498996 
L 423.192315 309.980346 
L 422.190435 308.707558 
L 420.684938 308.804982 
L 419.38301 309.491044 
L 418.780678 310.371242 
L 419.280719 311.645429 
L 419.232736 313.261615 
L 418.931143 314.339957 
L 417.727362 316.004352 
L 416.323095 316.296457 
L 414.521111 315.70835 
L 413.768905 315.856733 
L 414.570288 316.93405 
L 416.574818 319.187033 
L 417.175924 320.363274 
L 416.574446 321.144731 
L 414.919623 321.293076 
L 413.015845 319.822711 
L 411.511376 318.84391 
L 410.609032 319.233381 
L 411.011054 320.900852 
L 412.445378 322.303717 
L 411.261005 323.886581 
L 407.751647 323.887194 
L 406.649881 324.280515 
L 406.548657 325.356878 
L 408.102985 325.993184 
L 410.408709 326.581672 
L 411.411293 327.464927 
L 409.305055 329.324116 
L 406.748644 329.666292 
L 403.762423 328.499305 
L 402.104121 327.851256 
L 400.522471 327.233161 
L 400.231641 327.119509 
L 398.829803 325.748274 
L 397.577698 323.641235 
L 395.972303 321.681299 
L 393.968953 319.723514 
L 392.465484 318.841553 
L 389.308684 316.343892 
L 386.70179 313.503231 
L 384.747192 312.179482 
L 383.643765 310.219871 
L 382.439683 310.220038 
L 381.13763 309.43657 
L 380.537071 307.575234 
L 379.383374 306.644867 
L 378.080567 308.799592 
L 376.676256 310.366422 
L 375.273686 310.462758 
L 373.870477 310.952327 
L 373.280232 310.937197 
L 372.116264 310.904945 
L 370.912362 309.82691 
L 369.710452 310.317207 
L 367.804981 310.218284 
L 366.502868 309.336 
L 365.190559 309.542071 
L 364.395834 309.849969 
L 343.782079 308.105854 
L 227.959189 298.292231 
L 228.493317 297.837808 
L 229.807587 296.151695 
L 230.105508 295.418743 
L 230.165528 293.95535 
L 230.106807 292.660534 
L 229.689982 291.027996 
L 229.689369 289.846048 
L 229.80899 288.833079 
L 231.745905 285.877539 
L 231.986137 284.697814 
L 232.22718 281.263054 
L 232.404707 279.967764 
L 233.003023 278.842181 
L 233.985083 277.858309 
L 235.536343 276.901815 
L 237.026585 276.283486 
L 238.397893 276.002054 
L 239.446092 276.043959 
L 241.140891 275.945984 
L 242.21294 275.608928 
L 246.894009 273.274389 
L 251.066332 270.517651 
L 253.243196 268.688803 
L 254.054855 268.45127 
L 254.210072 268.405846 
L 255.44942 268.352578 
L 256.402169 268.689969 
L 257.355302 269.534129 
L 258.249273 270.717323 
L 258.488648 271.787079 
L 259.527945 273.447259 
L 260.483691 274.461516 
L 261.082954 274.741967 
L 262.450938 274.403841 
L 263.523883 273.505119 
L 264.59648 273.504682 
L 265.370745 273.729446 
L 265.788567 273.504903 
L 266.295789 272.745278 
L 266.533035 271.169605 
L 266.713043 268.072371 
L 267.01301 267.17208 
L 267.846784 266.158635 
L 269.814864 263.288183 
L 271.216549 261.797206 
L 272.289668 261.00921 
L 274.316278 260.728723 
L 275.210366 260.054075 
L 275.98644 258.87383 
L 276.463568 256.732399 
L 276.730924 256.534955 
L 277.984158 252.933399 
L 278.699581 251.752852 
L 279.117389 251.245689 
L 280.310729 250.626693 
L 281.145629 249.726719 
L 281.622267 248.939088 
L 282.24789 247.504229 
L 282.266803 246.056989 
L 282.308209 242.775556 
L 282.606569 241.143572 
L 282.367989 239.960441 
L 281.535525 238.384269 
L 281.207916 236.836117 
L 281.20797 235.147575 
L 281.745894 233.009269 
L 282.640363 231.995335 
L 283.353758 231.544785 
L 284.487369 231.209071 
L 285.560825 231.207804 
L 286.722605 231.686804 
L 287.437822 231.799687 
L 288.33354 231.573298 
L 289.405039 230.900667 
L 289.644201 229.885791 
L 289.702916 228.367763 
L 289.585129 227.127682 
L 289.764961 225.776781 
L 290.358945 224.201431 
L 290.987552 223.160838 
L 291.819534 222.430182 
L 294.444755 221.810214 
L 295.398411 221.305225 
L 296.65059 220.122322 
L 298.736736 218.8847 
L 300.794038 218.743125 
L 301.628217 218.238387 
L 302.34419 217.675344 
L 304.309527 217.056298 
L 306.398089 215.029341 
L 307.463564 214.30469 
L 308.03622 213.369872 
L 308.63354 211.569572 
L 309.527356 209.543238 
L 311.316454 208.191486 
L 312.806119 207.235928 
L 314.564302 205.351266 
L 315.817199 204.620264 
L 317.784929 203.776259 
L 319.153402 203.495051 
L 323.339925 203.715236 
L 323.466821 203.72224 
L 323.95416 203.747709 
L 325.26456 203.354562 
L 327.590157 202.454057 
L 328.721125 202.510797 
L 330.868512 203.130231 
L 331.940454 203.63751 
L 333.342067 203.834294 
L 335.368399 203.441528 
L 336.619058 202.765438 
L 337.514247 201.920855 
L 337.871079 200.907717 
L 338.290035 200.234199 
L 339.54162 199.275513 
L 340.018278 198.48712 
L 340.346026 196.940169 
L 340.464868 195.36323 
L 340.764561 194.238167 
L 341.836966 193.282149 
L 342.909322 192.888586 
L 344.162104 192.998115 
L 345.295238 193.845925 
L 346.487146 194.972097 
L 347.76737 196.012353 
L 348.602037 196.12591 
L 349.019115 196.014873 
L 349.555501 195.22592 
L 349.555675 192.693558 
L 349.974056 191.960625 
L 350.747893 191.678782 
L 353.01383 192.017196 
L 354.890178 192.552335 
L 355.486648 192.271293 
L 355.964207 191.764598 
L 355.964956 189.007299 
L 355.368742 185.910992 
L 355.547681 184.55851 
L 356.472309 182.391307 
L 357.24602 181.718069 
L 358.439653 181.605954 
L 360.704449 181.830099 
L 361.896441 181.548812 
L 362.491848 180.874558 
L 363.0886 179.581171 
L 363.533031 178.880028 
L 364.250417 178.369214 
L 364.966374 178.089784 
L 365.324271 177.468129 
L 366.218021 176.285288 
L 367.113029 175.610902 
L 368.841409 174.824229 
L 371.34446 174.316324 
L 373.222283 174.345764 
L 374.295739 173.783062 
L 374.771842 173.220637 
L 375.726543 172.826433 
L 376.678373 171.757376 
L 377.274726 170.801487 
L 377.9316 169.168308 
L 379.124911 168.266113 
L 382.730115 166.270761 
L 384.159009 165.875663 
L 387.55935 165.595076 
L 388.541629 165.391745 
L 389.435601 164.326944 
L 389.495472 163.20343 
L 388.661159 161.794992 
L 389.198692 160.837878 
L 391.582254 160.331188 
L 392.592535 159.603627 
L 393.668574 158.644083 
L 393.993407 157.264734 
L 393.697518 155.463404 
L 393.044031 153.26956 
L 392.567148 151.185571 
L 392.747485 149.495791 
L 393.462502 147.97828 
L 394.564773 146.878612 
L 395.51818 145.303958 
L 396.410281 144.232835 
L 396.989111 143.838652 
L 400.096521 142.350345 
L 402.963208 140.676906 
L 405.890931 139.900843 
L 407.270087 139.401153 
L 408.67131 138.52178 
L 409.561101 137.592451 
L 410.274931 136.427069 
L 411.104752 135.758923 
L 411.88884 135.483285 
L 412.540831 135.254131 
L 413.976265 133.92 
L 418.805696 134.911572 
L 420.590564 135.327988 
L 421.743733 135.973854 
L 422.422067 136.415763 
L 423.84657 137.979443 
L 425.169323 139.135205 
L 426.458158 139.237184 
L 427.916578 139.611107 
L 429.476748 140.494926 
L 431.003001 140.630898 
L 432.46142 139.781073 
L 433.852007 139.815065 
L 435.48001 140.121003 
L 436.836679 141.276765 
L 438.396849 141.412737 
L 442.73819 141.820654 
L 443.10099 143.623174 
L 447.423741 145.506857 
L 455.693352 147.673094 
L 458.042673 145.78941 
L 460.673912 146.825436 
L 462.92926 148.991672 
L 470.635033 148.803304 
L 476.179431 148.70912 
L 480.690127 149.180041 
L 483.227394 147.861462 
L 487.362199 147.767279 
L 490.212385 147.711308 
L 490.930526 147.75371 
L 491.615034 148.210568 
L 492.269621 148.52053 
L 492.997386 148.230983 
L 494.909801 148.231623 
L 497.293175 149.311912 
L 498.01304 149.436564 
L 499.353358 148.917092 
L 500.418164 148.792479 
L 501.09841 149.000703 
L 502.246804 149.623984 
L 503.057045 150.250546 
L 503.648395 150.95328 
L 504.350161 152.045287 
L 505.928578 152.754869 
L 508.169024 154.532134 
L 509.901378 155.100327 
L 511.90019 155.475773 
L 513.175642 155.933219 
L 513.983938 156.265404 
L 514.62919 156.839596 
L 515.44805 157.311537 
L 517.449291 158.026989 
L 518.514754 157.781663 
L 519.110269 157.782254 
L 520.726695 158.615709 
L 521.231172 158.984664 
L 521.681923 159.5909 
L 522.617464 161.180569 
L 523.987034 162.515518 
L 525.012539 164.186558 
L 521.39293 173.456452 
" clip-path="url(#pca342baa84)" style="fill: #cbd5e8; fill-opacity: 0.65"/>
    <path d="M 447.027917 502.029525 
L 377.491003 530.569758 
L 377.352091 530.626772 
L 310.897852 557.905031 
L 310.880954 558.560722 
L 310.259214 582.687428 
L 309.281884 620.612889 
L 306.089296 620.344404 
L 299.690076 619.357517 
L 297.570174 618.885402 
L 301.040549 582.687428 
L 301.932096 573.388083 
L 319.474471 390.97775 
L 319.879646 390.86754 
L 320.494733 390.699409 
L 321.65938 389.617489 
L 322.261864 388.935476 
L 322.820676 387.937454 
L 323.913827 387.505642 
L 324.889598 387.55153 
L 325.401097 386.871362 
L 325.726393 385.509877 
L 326.65566 384.962665 
L 327.167638 384.509318 
L 327.168947 383.646838 
L 327.864751 383.19163 
L 328.654787 382.512305 
L 328.689733 380.621484 
L 331.332421 379.081966 
L 333.186865 377.676662 
L 333.884534 377.404363 
L 334.862547 376.769795 
L 336.929021 374.522779 
L 338.135933 374.160273 
L 339.114385 373.388525 
L 340.18289 372.072617 
L 340.602867 370.618777 
L 342.135612 369.847831 
L 344.573579 369.779252 
L 346.156074 370.733568 
L 347.875525 371.50632 
L 348.943153 371.1873 
L 349.455096 370.18983 
L 349.547835 368.827134 
L 348.549581 365.398547 
L 348.364763 364.309363 
L 347.899132 362.903838 
L 345.947544 360.993861 
L 345.947944 359.586361 
L 346.646014 358.087677 
L 348.202441 357.29551 
L 349.539888 356.482694 
L 350.295839 355.342859 
L 350.992127 355.025801 
L 352.292747 355.021817 
L 353.455072 354.433926 
L 354.105827 353.254011 
L 354.942753 352.75629 
L 355.823769 352.436458 
L 356.917883 350.743601 
L 357.987359 349.883218 
L 358.592172 349.157387 
L 359.273123 348.054009 
L 358.777749 346.792391 
L 357.883787 346.01674 
L 356.792661 344.560834 
L 356.44568 343.155958 
L 357.439963 341.314152 
L 360.515838 337.530923 
L 360.914441 335.591796 
L 361.85904 334.379712 
L 364.139875 333.507205 
L 364.636961 331.7619 
L 364.734897 329.629199 
L 365.331698 327.1074 
L 366.721735 326.040855 
L 368.2601 326.28239 
L 369.748802 325.702288 
L 369.749447 323.763552 
L 370.4425 322.307127 
L 372.529427 319.981682 
L 372.827555 319.011165 
L 372.976017 317.509003 
L 371.784947 317.798027 
L 370.395758 317.308059 
L 371.786071 313.531004 
L 372.679497 311.980236 
L 373.280232 310.937197 
L 373.870477 310.952327 
L 375.273686 310.462758 
L 376.676256 310.366422 
L 378.080567 308.799592 
L 379.383374 306.644867 
L 380.537071 307.575234 
L 381.13763 309.43657 
L 382.439683 310.220038 
L 383.643765 310.219871 
L 384.747192 312.179482 
L 386.70179 313.503231 
L 389.308684 316.343892 
L 392.465484 318.841553 
L 393.968953 319.723514 
L 395.972303 321.681299 
L 397.577698 323.641235 
L 398.829803 325.748274 
L 400.231641 327.119509 
L 400.522471 327.233161 
L 402.104121 327.851256 
L 403.762423 328.499305 
L 406.748644 329.666292 
L 409.305055 329.324116 
L 411.411293 327.464927 
L 410.408709 326.581672 
L 408.102985 325.993184 
L 406.548657 325.356878 
L 406.649881 324.280515 
L 407.751647 323.887194 
L 411.261005 323.886581 
L 412.445378 322.303717 
L 411.011054 320.900852 
L 410.609032 319.233381 
L 411.511376 318.84391 
L 413.015845 319.822711 
L 414.919623 321.293076 
L 416.574446 321.144731 
L 417.175924 320.363274 
L 416.574818 319.187033 
L 414.570288 316.93405 
L 413.768905 315.856733 
L 414.521111 315.70835 
L 416.323095 316.296457 
L 417.727362 316.004352 
L 418.931143 314.339957 
L 419.232736 313.261615 
L 419.280719 311.645429 
L 418.780678 310.371242 
L 419.38301 309.491044 
L 420.684938 308.804982 
L 422.190435 308.707558 
L 423.192315 309.980346 
L 422.840026 311.498996 
L 422.840861 313.850743 
L 424.444122 315.418284 
L 425.84894 315.906122 
L 426.700274 315.56289 
L 426.901759 314.584326 
L 427.200749 313.703532 
L 428.904355 310.569346 
L 429.908075 310.570219 
L 430.559908 311.402117 
L 429.555602 313.067204 
L 429.557247 314.045544 
L 430.859984 314.437478 
L 432.062425 313.4589 
L 433.164153 311.793754 
L 433.216784 310.275414 
L 432.314586 309.589593 
L 431.613477 308.610982 
L 431.61345 307.337297 
L 432.213828 306.355653 
L 432.514535 305.280102 
L 431.863638 304.448189 
L 431.792765 303.926239 
L 431.664024 302.978097 
L 432.853588 302.542806 
L 434.069702 302.097191 
L 434.757241 301.779897 
L 437.678869 300.431589 
L 439.934437 299.795415 
L 441.838756 300.872556 
L 442.640258 300.873643 
L 443.04191 299.600531 
L 442.23999 299.012451 
L 439.484192 298.081003 
L 438.480643 297.00394 
L 437.77992 295.240826 
L 437.779449 294.55691 
L 439.53329 294.11507 
L 440.637166 294.11497 
L 442.741635 293.625725 
L 443.443634 294.60523 
L 443.842604 295.976359 
L 445.49931 297.200448 
L 447.504156 297.493916 
L 451.613277 297.006442 
L 453.567906 297.151367 
L 455.171123 297.447935 
L 456.574821 296.466502 
L 457.476632 295.390464 
L 459.081909 294.801071 
L 459.83362 293.969748 
L 459.934777 292.793884 
L 459.533249 291.716326 
L 459.533459 290.737131 
L 460.535661 289.953586 
L 461.940016 289.85537 
L 463.793764 290.296627 
L 465.097455 292.059034 
L 465.597211 294.213504 
L 465.698209 295.292235 
L 467.051135 295.832663 
L 467.95477 296.026534 
L 470.057873 297.398685 
L 470.360354 299.944578 
L 469.757352 302.294805 
L 469.908734 303.715859 
L 471.00972 304.696715 
L 472.112223 304.107782 
L 472.113409 302.686112 
L 472.114496 299.895812 
L 472.262699 298.377579 
L 472.967021 297.497375 
L 473.310779 297.588079 
L 473.315792 299.441206 
L 473.544181 301.295738 
L 475.610077 301.987093 
L 476.269069 301.441042 
L 478.113915 303.715329 
L 478.637299 303.572909 
L 500.351663 340.074265 
L 500.619348 340.524087 
L 521.820632 376.15116 
L 555.696195 437.737384 
L 566.22918 456.878473 
L 560.879557 466.068244 
L 554.32308 479.127484 
L 549.934635 488.249045 
L 546.697433 491.018732 
L 544.040682 493.291797 
L 541.389376 497.147372 
L 537.410702 504.860043 
L 536.988935 505.958937 
L 534.905927 511.386105 
L 532.254701 515.24096 
L 530.191928 518.503602 
L 526.655192 521.916464 
L 522.087793 525.920913 
L 518.551828 526.513741 
L 517.667341 527.700653 
L 517.0777 530.221801 
L 516.783635 533.632904 
L 515.899568 538.082436 
L 515.309516 542.086372 
L 514.278426 545.350038 
L 512.657546 548.908953 
L 511.809072 550.275631 
L 507.059611 548.939129 
L 499.207639 545.185019 
L 494.913584 542.34141 
L 492.483562 540.977008 
L 490.33794 539.554676 
L 486.891694 537.564828 
L 485.422807 537.337394 
L 484.406585 538.246973 
L 481.864927 538.715796 
L 480.168957 538.829971 
L 479.434975 539.14228 
L 478.559111 539.682842 
L 477.82237 539.910157 
L 477.005647 539.882341 
L 475.565258 539.995603 
L 474.206998 540.222264 
L 473.189841 540.108825 
L 472.853336 539.937807 
L 472.231819 539.426082 
L 470.904503 538.089023 
L 469.631462 537.351128 
L 468.503665 537.378741 
L 468.079214 537.578021 
L 467.458316 537.719978 
L 467.048647 537.499452 
L 466.780038 537.229874 
L 466.046202 535.934888 
L 464.492617 534.671519 
L 464.026191 534.131596 
L 463.800634 533.675955 
L 463.64526 533.163791 
L 463.645257 532.650882 
L 464.139344 530.207231 
L 464.012953 529.140707 
L 463.519272 528.031473 
L 462.014439 525.738972 
L 461.929953 525.234276 
L 461.999984 523.450682 
L 462.661156 521.750391 
L 462.904987 520.483347 
L 463.168299 519.746377 
L 463.188793 519.257021 
L 462.316168 518.214891 
L 459.352195 516.334662 
L 457.809181 515.618725 
L 456.690267 515.271305 
L 455.860122 515.189613 
L 454.701588 515.435072 
L 453.1394 516.191344 
L 449.747651 517.37576 
L 446.89397 518.668755 
L 446.504162 518.755186 
L 444.792633 518.958982 
L 443.003005 518.823475 
L 442.004318 518.456468 
L 439.997054 517.398872 
L 439.556208 517.355093 
L 438.547752 517.449918 
L 435.997612 518.328237 
L 434.379161 518.63892 
L 447.027917 502.029525 
" clip-path="url(#pca342baa84)" style="fill: #fff2ae; fill-opacity: 0.65"/>
    <path d="M 254.535714 728.27452 
L 246.633962 710.401678 
L 202.302982 683.287228 
L 202.125249 683.178439 
L 202.332912 682.400367 
L 204.065331 681.974584 
L 204.616609 681.169028 
L 204.93343 679.262637 
L 203.482671 677.84552 
L 202.837588 677.71614 
L 202.838242 676.587147 
L 202.581234 673.569828 
L 201.684641 671.439506 
L 202.00411 670.624559 
L 202.775623 670.371082 
L 203.347554 668.922148 
L 202.777062 667.609901 
L 203.934369 667.233354 
L 204.962408 667.233301 
L 205.733943 664.59745 
L 205.734675 663.216871 
L 204.773635 660.647174 
L 203.746278 659.515476 
L 202.45962 658.383802 
L 201.173894 659.386576 
L 200.531514 659.76216 
L 199.486957 659.081675 
L 198.180294 659.080108 
L 196.68232 658.903093 
L 196.182546 656.894715 
L 195.840629 656.310082 
L 197.364988 652.786011 
L 197.146514 651.366573 
L 198.093606 648.713283 
L 198.222226 647.333142 
L 200.66453 647.083835 
L 201.436414 645.324473 
L 200.794433 644.19593 
L 199.573754 643.379132 
L 200.216622 642.877312 
L 201.887304 643.128475 
L 202.531046 640.994469 
L 202.788559 639.113438 
L 203.174573 637.982171 
L 203.45985 637.660746 
L 203.514553 637.274078 
L 207.177708 634.08783 
L 207.679277 632.412821 
L 208.676622 629.894505 
L 209.177301 628.049348 
L 208.513096 625.86984 
L 208.845438 624.360408 
L 210.824898 624.68611 
L 212.691937 624.301226 
L 213.14816 623.284525 
L 213.674035 623.020027 
L 213.678267 621.35217 
L 215.889971 619.664526 
L 216.935305 618.277464 
L 217.643718 616.078844 
L 218.284361 615.454511 
L 220.598417 614.827055 
L 221.499597 612.942037 
L 221.855968 611.097572 
L 220.668725 609.096568 
L 219.670024 606.581234 
L 218.173489 605.406853 
L 217.56207 605.236759 
L 217.325678 604.969377 
L 215.14042 605.34382 
L 214.24086 604.968181 
L 213.856782 602.833277 
L 214.43587 598.755066 
L 212.508602 597.62269 
L 211.222968 596.994941 
L 209.938487 596.99478 
L 209.423755 595.365321 
L 206.790212 594.044566 
L 206.018397 595.047191 
L 204.991339 593.918069 
L 206.533827 592.411451 
L 207.432895 590.402947 
L 208.592049 587.515253 
L 209.49647 583.579973 
L 208.845381 582.687428 
L 208.530837 582.256234 
L 208.364288 580.071416 
L 208.471833 579.025488 
L 208.186777 574.869532 
L 208.145759 574.27152 
L 207.314319 573.200683 
L 206.926567 572.701565 
L 206.693856 572.082798 
L 206.203346 571.517053 
L 206.202011 570.780583 
L 206.027924 570.314901 
L 206.204644 570.071517 
L 206.203185 569.671727 
L 206.867433 568.665706 
L 207.69393 567.002931 
L 207.037961 565.480115 
L 205.372209 562.622062 
L 203.710882 560.443701 
L 202.046191 559.604765 
L 200.215167 560.609253 
L 200.063829 559.682209 
L 198.384652 558.951364 
L 196.556766 556.579799 
L 195.558723 555.745753 
L 195.329552 555.285198 
L 192.924383 552.481364 
L 192.66982 551.352262 
L 196.269234 546.961598 
L 196.847515 544.765282 
L 198.646784 543.010061 
L 198.776107 541.750722 
L 199.35674 540.304623 
L 199.057836 538.800885 
L 197.735313 537.088204 
L 196.979648 536.479408 
L 195.502985 534.531346 
L 196.916213 534.279711 
L 198.201551 530.76136 
L 198.460269 528.50618 
L 197.818728 526.496378 
L 198.011813 522.792668 
L 195.827765 520.533493 
L 192.103442 517.267329 
L 190.432743 514.504141 
L 191.011828 512.811045 
L 191.654998 512.685466 
L 193.840791 511.933715 
L 194.996884 511.180701 
L 196.927525 508.168107 
L 199.561466 507.103433 
L 201.632075 503.846179 
L 201.874508 503.464811 
L 202.179205 502.573574 
L 203.758227 497.954947 
L 204.064209 497.059952 
L 203.357838 494.365547 
L 201.301198 492.225716 
L 199.37401 491.845714 
L 198.475929 490.344437 
L 198.475249 488.587828 
L 196.835293 487.622055 
L 194.751995 487.970059 
L 192.756602 488.017066 
L 191.472872 488.518804 
L 189.544101 488.518462 
L 188.514554 490.400049 
L 186.137429 490.338434 
L 184.597827 489.207812 
L 182.410874 488.954837 
L 180.610796 488.953158 
L 178.94268 487.57221 
L 181.063225 485.752621 
L 181.576297 483.618293 
L 179.526511 482.220188 
L 179.135858 480.349454 
L 178.879348 478.470026 
L 177.531299 477.276065 
L 176.37768 473.886961 
L 176.377511 472.885087 
L 180.34192 469.510567 
L 180.941424 468.176868 
L 180.684183 467.296569 
L 179.398043 466.038816 
L 178.629542 464.78676 
L 178.058002 463.556483 
L 177.926199 463.433391 
L 177.343982 463.40455 
L 176.573072 462.27511 
L 177.345704 460.518772 
L 178.823687 459.325281 
L 179.207054 457.439334 
L 177.410805 456.186726 
L 175.484366 454.427623 
L 175.195887 453.725121 
L 175.24688 453.58736 
L 176.104007 451.279375 
L 176.104572 449.53272 
L 175.508886 448.272462 
L 174.617032 446.815741 
L 175.014211 445.557309 
L 174.716527 444.490739 
L 173.674676 442.114159 
L 173.973781 439.979274 
L 174.817488 439.688932 
L 175.966719 439.882255 
L 176.487566 440.205453 
L 176.951834 440.660061 
L 178.737143 442.019902 
L 180.242596 441.08422 
L 181.516188 440.670579 
L 183.324105 441.181102 
L 183.70034 441.115076 
L 184.247302 441.294351 
L 185.636637 440.421153 
L 186.772088 439.261412 
L 186.508037 438.15702 
L 185.190424 437.587549 
L 184.696417 437.462629 
L 183.768446 436.428078 
L 184.733346 434.858351 
L 188.371495 431.841629 
L 188.470265 429.802176 
L 188.968649 429.09219 
L 189.467033 428.382204 
L 189.732747 428.186837 
L 189.733856 428.186022 
L 189.814079 428.127038 
L 189.832927 428.113179 
L 190.646836 427.514832 
L 190.726017 426.893716 
L 191.003884 426.556048 
L 190.011457 425.77924 
L 188.025584 425.392148 
L 187.331188 424.905097 
L 187.242567 424.143856 
L 188.124833 423.66834 
L 189.774831 423.750501 
L 190.13288 423.342492 
L 190.28058 423.312639 
L 192.245351 421.077794 
L 193.73589 418.943817 
L 195.721788 417.975943 
L 197.211906 417.975553 
L 197.344954 417.589036 
L 197.757353 416.376289 
L 197.659409 415.601438 
L 198.453075 414.728854 
L 200.537958 414.729795 
L 202.324763 412.984462 
L 203.417593 411.335793 
L 203.614407 410.074922 
L 202.872769 408.279141 
L 203.071575 407.214036 
L 203.672774 406.942666 
L 203.720249 406.819593 
L 205.0076 406.587063 
L 205.513884 405.657018 
L 206.149569 404.887607 
L 206.249136 403.916829 
L 207.838022 401.687749 
L 207.887919 399.894998 
L 207.194631 398.149054 
L 207.194825 396.985323 
L 207.392837 396.112369 
L 206.797495 395.143082 
L 206.815542 392.559274 
L 207.592969 391.168177 
L 209.43177 389.470022 
L 213.701443 384.623242 
L 216.827395 381.762261 
L 220.897607 381.569623 
L 225.762154 381.572102 
L 227.002699 383.172518 
L 228.191472 385.015872 
L 228.938652 385.365156 
L 229.33848 385.816728 
L 229.781884 385.759216 
L 230.475488 386.082505 
L 231.863794 385.017431 
L 232.265155 382.980667 
L 231.618355 381.282842 
L 232.809212 380.508851 
L 234.893928 380.41018 
L 237.573848 380.995299 
L 239.062684 380.510146 
L 240.475452 379.410095 
L 241.396676 378.424758 
L 244.472895 377.747128 
L 246.161581 377.846358 
L 248.144708 376.972957 
L 249.932589 376.973305 
L 251.074141 377.507966 
L 252.381147 379.951924 
L 254.447734 381.96926 
L 256.830986 381.486076 
L 258.615595 380.707958 
L 260.751584 380.952664 
L 261.941044 379.498132 
L 262.63849 377.657041 
L 264.140323 375.549914 
L 264.374407 375.427729 
L 265.914076 375.425973 
L 267.353753 374.989804 
L 267.94947 373.632747 
L 267.94978 371.207775 
L 269.638466 369.852555 
L 271.623538 369.174013 
L 272.914533 368.39725 
L 274.453511 366.508442 
L 275.843548 365.344684 
L 277.531033 365.054245 
L 278.821786 365.345884 
L 279.820535 366.122505 
L 281.501124 366.605053 
L 284.130893 364.232423 
L 286.116731 363.35815 
L 286.812165 361.225418 
L 287.010782 359.866935 
L 287.805867 358.316787 
L 289.245576 357.976713 
L 290.436243 358.462354 
L 291.825159 358.463049 
L 292.719001 357.590619 
L 293.534269 355.854611 
L 296.195351 354.489747 
L 296.821687 354.217015 
L 297.979935 353.712668 
L 299.147482 354.660907 
L 299.295979 354.781511 
L 300.310819 355.605496 
L 302.100767 357.54306 
L 303.425917 358.604366 
L 305.373886 360.164482 
L 307.253202 362.299568 
L 307.804915 366.129116 
L 310.286691 367.390089 
L 314.057688 366.614875 
L 316.341631 364.774486 
L 317.880565 362.980037 
L 318.973483 360.16755 
L 318.276638 358.616058 
L 316.194082 357.742519 
L 316.053791 356.868636 
L 316.104704 356.540688 
L 316.3816 356.380588 
L 318.426971 355.851483 
L 320.81044 354.397964 
L 322.298363 354.009835 
L 323.688627 354.689119 
L 324.382946 356.627495 
L 325.623412 358.034466 
L 327.608354 358.617187 
L 330.089543 359.00649 
L 330.189867 357.841205 
L 329.096432 357.065674 
L 328.302404 355.902078 
L 330.041876 354.304145 
L 331.728277 353.818896 
L 332.522752 352.849667 
L 334.408707 351.103037 
L 335.499706 349.551907 
L 335.898378 347.710511 
L 335.74988 346.206612 
L 336.942296 345.139203 
L 338.728589 344.171008 
L 340.019305 343.007507 
L 340.218025 340.388022 
L 339.126424 339.516427 
L 337.892703 340.135174 
L 336.594865 340.048516 
L 337.387833 338.108978 
L 338.481986 337.140443 
L 339.672693 336.266972 
L 340.962542 336.655525 
L 342.849503 336.462822 
L 344.387727 334.9594 
L 345.877458 334.570398 
L 347.862167 333.40821 
L 348.756246 331.468634 
L 350.443415 330.788668 
L 352.031845 329.432937 
L 353.371054 327.15329 
L 354.959863 324.923285 
L 355.754981 323.468533 
L 359.72502 322.209704 
L 361.561295 321.094804 
L 362.554614 319.059209 
L 363.250109 317.021118 
L 363.249779 314.888483 
L 362.851297 312.46444 
L 363.696787 311.44637 
L 364.988433 310.282098 
L 366.575531 309.798012 
L 367.370068 310.476862 
L 368.261979 311.058713 
L 369.851824 310.57368 
L 371.341939 310.865135 
L 372.679497 311.980236 
L 371.786071 313.531004 
L 370.395758 317.308059 
L 371.784947 317.798027 
L 372.976017 317.509003 
L 372.827555 319.011165 
L 372.529427 319.981682 
L 370.4425 322.307127 
L 369.749447 323.763552 
L 369.748802 325.702288 
L 368.2601 326.28239 
L 366.721735 326.040855 
L 365.331698 327.1074 
L 364.734897 329.629199 
L 364.636961 331.7619 
L 364.139875 333.507205 
L 361.85904 334.379712 
L 360.914441 335.591796 
L 360.515838 337.530923 
L 357.439963 341.314152 
L 356.44568 343.155958 
L 356.792661 344.560834 
L 357.883787 346.01674 
L 358.777749 346.792391 
L 359.273123 348.054009 
L 358.592172 349.157387 
L 357.987359 349.883218 
L 356.917883 350.743601 
L 355.823769 352.436458 
L 354.942753 352.75629 
L 354.105827 353.254011 
L 353.455072 354.433926 
L 352.292747 355.021817 
L 350.992127 355.025801 
L 350.295839 355.342859 
L 349.539888 356.482694 
L 348.202441 357.29551 
L 346.646014 358.087677 
L 345.947944 359.586361 
L 345.947544 360.993861 
L 347.899132 362.903838 
L 348.364763 364.309363 
L 348.549581 365.398547 
L 349.547835 368.827134 
L 349.455096 370.18983 
L 348.943153 371.1873 
L 347.875525 371.50632 
L 346.156074 370.733568 
L 344.573579 369.779252 
L 342.135612 369.847831 
L 340.602867 370.618777 
L 340.18289 372.072617 
L 339.114385 373.388525 
L 338.135933 374.160273 
L 336.929021 374.522779 
L 334.862547 376.769795 
L 333.884534 377.404363 
L 333.186865 377.676662 
L 331.332421 379.081966 
L 328.689733 380.621484 
L 328.654787 382.512305 
L 327.864751 383.19163 
L 327.168947 383.646838 
L 327.167638 384.509318 
L 326.65566 384.962665 
L 325.726393 385.509877 
L 325.401097 386.871362 
L 324.889598 387.55153 
L 323.913827 387.505642 
L 322.820676 387.937454 
L 322.261864 388.935476 
L 321.65938 389.617489 
L 320.494733 390.699409 
L 319.879646 390.86754 
L 319.474471 390.97775 
L 301.932096 573.388083 
L 301.040549 582.687428 
L 297.570174 618.885402 
L 299.690076 619.357517 
L 306.089296 620.344404 
L 309.281884 620.612889 
L 309.281312 620.635469 
L 309.261251 621.426232 
L 308.732153 642.096574 
L 308.421714 654.217207 
L 264.235228 738.72 
L 262.31085 738.421887 
L 260.757212 737.303725 
L 258.908452 735.442339 
L 257.093542 733.443175 
L 256.5625 732.85822 
L 254.986555 729.294125 
L 254.535714 728.27452 
" clip-path="url(#pca342baa84)" style="fill: #cccccc; fill-opacity: 0.65"/>
   </g>
   <g id="PatchCollection_2">
    <path d="M 382.374116 309.242452 
L 382.678722 309.31443 
L 383.317955 309.768888 
L 383.802974 310.355797 
L 384.656386 311.790936 
L 385.006043 312.506595 
L 386.073806 313.812994 
L 387.284615 314.684032 
L 387.795948 315.191421 
L 388.950313 316.005699 
L 390.243684 317.588556 
L 391.311559 318.21341 
L 393.052642 319.065541 
L 394.041495 319.993286 
L 394.417504 320.39095 
L 395.916144 321.789974 
L 396.752424 322.988663 
L 398.756398 325.874047 
L 399.350572 326.506418 
L 400.839896 327.562904 
L 402.618238 328.46816 
L 403.588418 328.915058 
L 405.374642 329.34688 
L 406.010181 329.415098 
L 406.986892 329.86079 
L 407.822677 330.068821 
L 409.404667 329.933771 
L 409.814498 329.801256 
L 411.018652 329.079043 
L 411.804075 328.334652 
L 412.231145 327.821375 
L 412.376953 327.249834 
L 412.28663 326.743992 
L 411.785128 326.129416 
L 410.848705 325.573293 
L 410.26598 325.240134 
L 409.161542 324.909501 
L 408.331913 324.773588 
L 408.432474 324.285915 
L 408.81287 324.226252 
L 410.026838 324.381562 
L 410.488708 324.254792 
L 413.069865 324.294272 
L 413.366348 323.938634 
L 413.526943 323.486054 
L 413.314419 322.996768 
L 413.265586 322.303096 
L 413.143317 322.126633 
L 413.265672 321.593137 
L 412.550368 321.19692 
L 411.981799 320.160563 
L 411.578283 319.815763 
L 411.504938 319.577744 
L 411.54166 319.294561 
L 411.729148 319.237095 
L 412.40989 319.532679 
L 412.752272 319.783044 
L 413.147679 320.271519 
L 413.400348 320.292102 
L 414.288936 321.002262 
L 414.816746 321.517322 
L 415.80319 322.042804 
L 416.12932 322.112645 
L 417.684472 321.766042 
L 418.00659 321.540289 
L 418.238996 321.072441 
L 418.365431 320.206507 
L 417.497349 318.671416 
L 416.506929 317.571321 
L 414.662551 316.09971 
L 414.739983 315.993073 
L 415.061994 315.890445 
L 415.498189 315.906976 
L 418.043837 316.689075 
L 418.504507 316.557857 
L 418.71208 316.14083 
L 420.073992 330.014954 
L 421.334542 339.604499 
L 420.596126 343.405551 
L 417.505363 354.076975 
L 418.918542 361.372247 
L 418.706812 361.868147 
L 418.769584 362.132919 
L 416.886614 365.093248 
L 416.371191 365.35758 
L 416.366638 365.759819 
L 417.309093 366.222529 
L 417.873034 366.240741 
L 418.084126 367.284735 
L 417.745044 367.749515 
L 417.846692 368.187129 
L 418.333845 369.065725 
L 418.407613 369.668953 
L 417.988415 370.332204 
L 417.819312 370.35218 
L 417.704133 370.818282 
L 417.955104 371.324512 
L 417.744421 371.492511 
L 417.17328 371.679537 
L 416.922248 372.468988 
L 416.17123 372.797446 
L 416.159493 373.288093 
L 416.511889 373.793503 
L 416.445271 374.160925 
L 416.149802 374.361685 
L 416.170817 374.715139 
L 416.3616 374.886334 
L 417.039989 375.233664 
L 417.21274 375.476232 
L 417.336278 375.878485 
L 417.150772 376.182757 
L 416.320697 376.291896 
L 415.873424 376.39673 
L 415.551144 376.265975 
L 415.552779 376.433906 
L 415.955559 376.993941 
L 416.307637 377.088781 
L 417.089608 377.091745 
L 417.175018 377.216546 
L 417.411354 377.86173 
L 417.643136 378.138835 
L 417.914198 378.281988 
L 418.121699 378.604174 
L 417.927777 379.321793 
L 417.751474 379.561357 
L 417.305215 379.626198 
L 416.811091 379.338601 
L 416.422304 379.396876 
L 416.320759 379.638485 
L 415.97806 379.534297 
L 415.672107 379.730797 
L 415.267325 379.750558 
L 414.612572 380.104022 
L 415.014358 380.53038 
L 415.131655 380.832652 
L 415.066977 381.121015 
L 414.858238 381.152187 
L 414.813303 381.656624 
L 414.856319 381.812618 
L 415.016579 381.943539 
L 415.452052 382.107912 
L 416.96834 382.370176 
L 417.766741 382.668085 
L 417.7838 383.04172 
L 417.628466 383.247311 
L 416.945327 383.356653 
L 416.416256 383.85742 
L 416.128467 384.395062 
L 415.952464 384.419665 
L 415.962716 384.817647 
L 415.537999 385.423684 
L 414.897897 385.497295 
L 414.85731 385.023584 
L 414.521828 384.541967 
L 414.253052 384.493332 
L 413.893368 384.162332 
L 412.947057 384.256086 
L 412.598623 384.421196 
L 412.443461 384.711122 
L 412.418232 385.720279 
L 412.811758 386.032954 
L 413.103439 386.011884 
L 414.870687 386.947388 
L 414.972358 387.200686 
L 415.980672 387.681643 
L 415.947643 387.822168 
L 416.069636 388.077135 
L 415.946234 388.843178 
L 415.4663 389.032899 
L 414.057096 389.034577 
L 413.933743 389.375979 
L 414.087151 390.661773 
L 414.27692 390.871016 
L 414.180485 391.417011 
L 413.978628 391.54437 
L 413.845355 391.799027 
L 413.186971 392.441879 
L 413.316441 393.208139 
L 413.460299 393.626225 
L 413.197471 393.797919 
L 412.416228 394.481858 
L 412.00446 394.426724 
L 412.003385 394.197879 
L 411.675185 393.555181 
L 411.393409 393.031449 
L 411.367962 391.363799 
L 411.63972 391.110456 
L 411.828466 390.665841 
L 411.805895 390.270173 
L 411.016246 389.072152 
L 410.611952 388.831128 
L 409.468864 388.841812 
L 409.422194 388.507796 
L 409.216607 388.325952 
L 408.737773 387.094272 
L 408.443684 385.810773 
L 408.063304 385.545589 
L 407.754065 385.521109 
L 407.473488 385.712147 
L 407.134584 386.11934 
L 406.905426 386.182538 
L 406.784613 386.064674 
L 406.264799 386.043036 
L 406.303013 386.340022 
L 406.649891 386.844324 
L 407.067034 387.256893 
L 407.351839 387.794513 
L 407.83482 388.224865 
L 408.301581 388.93581 
L 408.224106 389.326096 
L 407.60359 390.087815 
L 407.41831 390.017897 
L 406.974239 389.481273 
L 406.68773 389.312749 
L 406.371229 389.266605 
L 406.039134 389.625845 
L 406.273924 390.800375 
L 406.789942 391.75267 
L 407.370212 392.191089 
L 407.309444 392.79143 
L 407.565621 393.572334 
L 407.393083 393.809118 
L 407.126422 393.746132 
L 406.84582 393.398661 
L 406.212358 393.274527 
L 405.791352 393.552566 
L 405.647955 393.853138 
L 405.680019 394.063843 
L 405.62937 394.627711 
L 405.370371 395.031951 
L 405.118506 395.0284 
L 404.842201 395.570945 
L 403.717104 401.245825 
L 403.836847 401.128364 
L 403.935239 401.128377 
L 404.142754 401.351603 
L 403.997589 402.475537 
L 404.304416 402.700998 
L 405.913692 403.040502 
L 406.591285 402.575217 
L 406.998108 402.498804 
L 407.119163 402.187305 
L 407.387613 401.949423 
L 407.781281 401.910686 
L 408.054181 402.107999 
L 408.343516 402.497315 
L 408.798483 402.739735 
L 408.62729 403.227213 
L 408.328076 403.851963 
L 408.249321 404.171521 
L 408.042189 404.529759 
L 408.216136 405.509781 
L 408.244607 406.495153 
L 408.231392 407.002462 
L 408.178023 407.26759 
L 407.764943 407.359278 
L 407.753838 407.188568 
L 406.905208 406.206513 
L 406.90525 405.891203 
L 406.587147 405.386071 
L 406.351107 405.29689 
L 406.03946 405.349617 
L 405.946652 405.534847 
L 405.336725 405.394514 
L 404.646429 405.938947 
L 404.534007 406.322841 
L 404.139303 406.53284 
L 403.964815 406.19464 
L 403.510503 405.861863 
L 403.221393 405.861824 
L 403.109281 405.989099 
L 402.826805 405.885654 
L 402.576561 406.114743 
L 402.299227 406.068047 
L 401.971851 406.154004 
L 401.766754 406.408187 
L 401.723833 406.913085 
L 401.556287 406.928892 
L 401.556265 407.084696 
L 401.701815 407.209322 
L 401.653328 407.403722 
L 402.125327 407.503213 
L 402.743919 408.172986 
L 402.566888 408.96207 
L 402.825456 409.745475 
L 403.394437 410.088543 
L 403.590458 410.3176 
L 403.76209 410.6982 
L 403.712754 411.048219 
L 403.850488 411.182194 
L 403.999462 411.836811 
L 403.809083 412.048597 
L 403.809042 412.350947 
L 403.163396 412.47602 
L 402.990547 412.251965 
L 402.639358 410.930502 
L 402.438891 410.939454 
L 401.938338 410.506782 
L 401.692322 410.737908 
L 400.574508 411.310051 
L 400.386469 411.220967 
L 400.359004 411.00045 
L 400.473809 410.693395 
L 400.353174 409.936115 
L 400.053163 409.622429 
L 399.637323 409.708465 
L 399.571466 409.158468 
L 399.714857 408.93853 
L 399.696142 408.625068 
L 399.83518 408.626754 
L 399.946837 408.470133 
L 399.712189 408.284025 
L 399.710297 408.006299 
L 399.552432 407.831033 
L 399.413011 407.936363 
L 399.243235 407.453191 
L 399.037017 407.162291 
L 398.836929 407.100886 
L 398.904009 407.442497 
L 398.681529 407.70797 
L 398.180934 407.597642 
L 398.064484 407.836284 
L 397.992516 408.244899 
L 398.158928 408.45044 
L 398.397116 408.958988 
L 398.82567 409.360639 
L 398.910686 409.675128 
L 399.110768 409.788468 
L 399.105857 410.055083 
L 399.263184 410.130554 
L 399.187365 410.468812 
L 398.909704 410.776122 
L 398.915003 411.021909 
L 398.574289 411.12323 
L 398.605065 411.334491 
L 398.816163 411.587343 
L 398.770913 412.297386 
L 398.207095 412.510876 
L 397.621622 413.035322 
L 397.582603 413.247684 
L 397.789484 413.402684 
L 398.004595 413.233765 
L 398.341794 413.288155 
L 398.36072 413.413319 
L 398.709017 413.66869 
L 399.523837 413.755919 
L 399.616432 413.794906 
L 399.73501 414.133839 
L 399.696332 414.535331 
L 399.815379 414.803353 
L 400.494792 415.233366 
L 400.745063 415.493352 
L 400.775389 416.303757 
L 400.806696 416.67619 
L 400.588006 416.785676 
L 400.48126 416.666795 
L 399.422268 416.738484 
L 399.360799 417.040084 
L 399.627371 417.786554 
L 399.601712 418.469105 
L 400.654514 420.616066 
L 400.876574 420.743202 
L 401.73545 420.82053 
L 401.909229 420.973117 
L 401.883079 421.219733 
L 401.598233 421.608231 
L 401.425261 422.266414 
L 401.548261 422.562301 
L 402.157129 422.454906 
L 402.12917 421.80697 
L 402.66139 421.375459 
L 404.164818 420.622938 
L 404.132513 420.835393 
L 404.420058 420.885886 
L 404.477309 421.177412 
L 404.311135 421.219141 
L 404.311361 421.590551 
L 404.518964 421.877747 
L 404.287825 422.924183 
L 404.619088 423.389972 
L 404.561716 424.001515 
L 404.109166 424.181697 
L 403.992444 424.377754 
L 403.996164 424.753424 
L 403.872169 425.014746 
L 403.903776 425.215083 
L 404.199745 425.544227 
L 404.507332 425.652767 
L 405.419937 425.568554 
L 405.755049 425.453066 
L 405.972593 425.67185 
L 406.089708 425.974585 
L 407.217165 426.321151 
L 407.544216 426.665666 
L 407.480523 427.104833 
L 406.709925 427.694618 
L 405.927401 428.066387 
L 405.428599 428.202683 
L 405.12687 429.678101 
L 404.794047 429.858022 
L 404.583356 429.27255 
L 404.373691 428.578857 
L 404.155989 428.164369 
L 403.855037 427.953813 
L 403.479196 428.001808 
L 402.792041 428.294991 
L 402.639586 428.20582 
L 402.570126 427.756822 
L 402.425861 427.6309 
L 402.576077 427.279322 
L 402.526114 426.819495 
L 401.881789 426.618703 
L 401.468381 427.017551 
L 400.710431 427.880151 
L 400.95844 428.571443 
L 400.894612 429.302776 
L 400.498598 429.588591 
L 400.541151 429.760694 
L 400.85996 429.847111 
L 401.352619 430.255158 
L 402.029807 430.231553 
L 402.376897 430.62921 
L 402.207251 431.172879 
L 401.838117 431.246888 
L 401.716145 431.502193 
L 401.389317 431.543528 
L 401.457666 432.039739 
L 401.774613 432.301308 
L 401.690349 432.519217 
L 401.420161 432.60296 
L 401.32145 432.886873 
L 401.583915 433.455042 
L 401.845425 433.616437 
L 402.013258 434.227917 
L 402.271361 434.426804 
L 396.906527 437.159595 
L 394.748162 437.046801 
L 392.646544 436.880224 
L 373.682907 447.923476 
L 330.520059 534.990063 
L 329.894275 534.680537 
L 322.23744 527.989519 
L 315.264422 522.034199 
L 315.166042 521.928918 
L 297.099459 506.13049 
L 293.416344 503.537335 
L 286.391105 497.312299 
L 277.033039 489.688025 
L 267.634355 479.71041 
L 264.253237 477.834586 
L 254.997147 477.548376 
L 254.724525 477.0944 
L 254.690139 476.472292 
L 253.762751 474.795763 
L 253.242594 474.253764 
L 252.609328 473.401699 
L 251.525486 471.537379 
L 232.790274 443.308798 
L 231.969762 442.078585 
L 206.443255 403.069494 
L 207.15819 403.365896 
L 208.122848 403.478536 
L 208.744671 403.411829 
L 209.206754 403.126775 
L 209.68501 402.347937 
L 209.656366 401.438944 
L 209.530273 400.724414 
L 209.218254 399.993617 
L 208.337059 398.681066 
L 207.586302 397.763574 
L 207.233713 397.347698 
L 207.139443 396.880351 
L 207.273294 395.425231 
L 207.475577 394.433838 
L 207.685534 393.84357 
L 207.677334 392.851083 
L 207.491775 392.065064 
L 207.379785 391.780451 
L 207.632221 390.676969 
L 208.110584 389.839533 
L 209.113391 388.904803 
L 210.021751 388.518909 
L 210.490744 388.431687 
L 210.94689 388.527941 
L 212.010158 388.232545 
L 212.536392 388.012683 
L 213.614864 386.830895 
L 214.273328 385.808555 
L 214.787164 384.474745 
L 215.024809 383.299602 
L 215.541829 382.590574 
L 216.81534 382.158143 
L 217.53779 381.687008 
L 218.276781 381.514614 
L 218.704163 381.556698 
L 220.69354 382.157356 
L 222.777359 381.930987 
L 223.80089 381.642042 
L 224.624482 381.728601 
L 225.133082 381.701093 
L 226.331779 382.253796 
L 226.761769 382.472971 
L 227.487177 382.499599 
L 227.740634 382.391927 
L 228.359288 382.964798 
L 228.935944 383.741225 
L 229.697437 386.720975 
L 230.269598 387.474441 
L 230.796822 387.869168 
L 231.622137 388.048758 
L 232.258656 387.996387 
L 232.695828 387.637807 
L 233.554885 386.420927 
L 233.944674 385.574558 
L 234.159936 384.728131 
L 233.901651 382.709838 
L 233.463481 381.621856 
L 233.201936 381.152234 
L 233.190873 380.390623 
L 233.316143 379.732185 
L 233.75434 379.033672 
L 234.317635 378.484152 
L 235.108343 378.175214 
L 235.773755 378.32429 
L 236.308225 378.765395 
L 237.00182 379.636003 
L 237.655502 381.102127 
L 238.172879 381.806598 
L 238.440164 381.875375 
L 239.247854 381.663826 
L 241.750938 380.095591 
L 242.035501 379.60902 
L 243.673911 378.447088 
L 245.39203 377.313875 
L 246.461336 377.045098 
L 247.126948 376.850624 
L 247.980043 376.982531 
L 248.844571 377.011499 
L 249.805664 377.292298 
L 250.806601 377.785103 
L 251.193212 378.249019 
L 251.659291 379.251279 
L 252.176717 379.82975 
L 253.245753 380.763504 
L 254.150244 383.367432 
L 254.709075 383.872317 
L 255.435079 384.069815 
L 257.204084 384.041376 
L 257.509596 383.896404 
L 258.524065 382.829236 
L 260.114933 381.315661 
L 260.498761 381.259583 
L 260.78341 381.076278 
L 261.238025 380.452 
L 261.403974 379.912063 
L 261.553379 379.975984 
L 262.001786 379.823554 
L 262.200365 379.64226 
L 262.77183 378.770657 
L 264.512071 378.016874 
L 265.650351 377.703936 
L 266.0352 377.611382 
L 266.827698 376.795477 
L 267.139098 375.985542 
L 267.215073 374.944843 
L 267.014814 373.936928 
L 267.12747 373.563979 
L 267.762528 372.475488 
L 269.259048 371.505278 
L 269.495211 370.750587 
L 269.546145 369.156193 
L 269.540578 369.006406 
L 271.223088 367.132627 
L 271.84651 366.841658 
L 273.096107 366.598912 
L 274.185513 366.732064 
L 275.395578 367.12816 
L 276.221 367.560898 
L 276.855513 367.727895 
L 277.624881 367.699781 
L 278.217496 367.411669 
L 278.728595 366.959492 
L 279.357766 366.145473 
L 279.647247 365.404957 
L 279.947849 364.681293 
L 280.113562 364.619128 
L 280.745289 364.882213 
L 281.873558 366.496743 
L 282.277707 367.443798 
L 283.02167 367.85392 
L 283.587449 367.854074 
L 283.899192 367.755289 
L 285.721873 366.319672 
L 286.331358 365.51129 
L 286.724738 364.42309 
L 286.955361 362.99556 
L 286.916471 361.576382 
L 286.826806 360.928984 
L 287.155505 360.326967 
L 287.38022 360.027364 
L 287.68354 359.428117 
L 288.163799 359.077757 
L 289.638098 358.532513 
L 290.800575 358.399974 
L 291.064599 358.269976 
L 292.185183 357.280925 
L 292.822871 356.167234 
L 293.168386 355.587807 
L 294.069869 354.867162 
L 295.600233 354.375708 
L 296.293814 354.381532 
L 298.632728 354.500808 
L 299.091223 354.381411 
L 300.471804 354.976273 
L 300.662553 355.544451 
L 301.431618 356.7009 
L 302.430917 357.9111 
L 305.170808 360.436196 
L 306.961939 361.519388 
L 307.155672 361.553318 
L 307.385849 361.838874 
L 308.261617 363.275198 
L 309.325543 364.230919 
L 309.625702 366.423066 
L 309.515855 367.0494 
L 309.796358 367.996506 
L 310.363468 368.590324 
L 311.093384 368.977739 
L 311.871159 369.17585 
L 312.578768 369.017716 
L 313.828434 368.461084 
L 314.42948 367.861898 
L 315.527751 366.287554 
L 315.859226 365.544164 
L 316.322689 365.029835 
L 318.212616 364.03232 
L 319.173022 363.752689 
L 319.6111 363.255293 
L 319.841556 362.330895 
L 319.791334 361.188789 
L 319.252599 359.534911 
L 319.050541 358.9073 
L 318.960147 357.317772 
L 319.04792 355.871867 
L 319.844113 354.283561 
L 322.209111 354.153477 
L 323.254622 354.422272 
L 324.119768 354.916075 
L 324.570446 354.789164 
L 325.622792 356.179594 
L 326.199533 356.90199 
L 327.352703 358.945741 
L 327.918671 359.326996 
L 328.261159 359.468618 
L 330.755887 359.893804 
L 330.902854 359.756177 
L 331.098335 359.792324 
L 331.451738 359.629006 
L 332.320757 358.816202 
L 333.348492 357.524263 
L 333.658718 356.72939 
L 333.598574 356.333064 
L 333.68423 355.662286 
L 333.176101 354.399087 
L 332.112938 352.805368 
L 332.127491 352.257329 
L 332.42319 351.883483 
L 334.409679 351.484725 
L 335.426407 351.325156 
L 336.389272 350.185671 
L 336.439714 349.927953 
L 336.520447 348.594707 
L 336.526526 348.545088 
L 336.750193 347.884521 
L 337.583267 346.512737 
L 337.767282 345.950105 
L 338.13555 343.220705 
L 338.840096 342.630317 
L 340.014092 342.248317 
L 341.333634 341.918281 
L 341.54993 341.762244 
L 341.921406 341.301389 
L 341.971891 340.822232 
L 341.827805 340.372196 
L 341.157384 339.551753 
L 338.565593 338.29896 
L 338.053837 337.242575 
L 338.035906 336.799786 
L 338.630949 336.142905 
L 339.096044 335.602179 
L 339.406124 335.460696 
L 339.734161 335.6386 
L 340.501967 336.382874 
L 340.873222 336.553566 
L 342.549572 336.866069 
L 344.23671 337.029712 
L 344.910863 337.113349 
L 345.088731 336.916756 
L 345.47325 336.975525 
L 346.039345 336.68523 
L 346.612667 336.108232 
L 347.142793 335.425967 
L 347.728858 334.087171 
L 347.824485 333.611263 
L 348.152728 332.729366 
L 348.374617 331.689238 
L 348.889714 331.203968 
L 349.602014 330.847416 
L 350.003755 330.748161 
L 353.527279 330.408624 
L 353.940682 329.900095 
L 354.249746 329.26546 
L 354.249868 328.609752 
L 353.949499 327.491667 
L 353.962164 326.63424 
L 354.379885 325.633954 
L 355.791159 324.318637 
L 357.37771 323.352172 
L 359.945408 321.986607 
L 361.264576 321.999529 
L 362.099562 321.940802 
L 362.316677 321.785315 
L 362.458595 321.545756 
L 362.671671 320.831301 
L 362.76379 319.343359 
L 363.315126 317.653779 
L 364.242962 315.559897 
L 364.05865 314.800008 
L 362.013402 313.156159 
L 361.996817 312.311316 
L 362.209884 311.63889 
L 363.203642 310.588248 
L 364.143043 310.142851 
L 364.497845 310.252245 
L 365.983809 311.202419 
L 366.973131 311.862466 
L 367.636877 311.950805 
L 368.947701 311.745145 
L 371.398411 310.83342 
L 372.419654 311.974487 
L 373.367183 312.413821 
L 374.690952 312.323225 
L 376.341872 311.630572 
L 377.08655 311.036269 
L 378.214893 310.033123 
L 379.455974 309.514624 
L 382.374116 309.242452 
L 382.374116 309.242452 
" clip-path="url(#pca342baa84)" style="fill: none; stroke: #000000; stroke-width: 2"/>
   </g>
   <g id="matplotlib.axis_1">
    <g id="xtick_1">
     <g id="line2d_1">
      <path d="M 164.884156 768.96 
L 164.884156 103.68 
" clip-path="url(#pca342baa84)" style="fill: none; stroke: #b0b0b0; stroke-width: 0.8; stroke-linecap: square"/>
     </g>
     <g id="line2d_2">
      <defs>
       <path id="mcd4a8921a9" d="M 0 0 
L 0 3.5 
" style="stroke: #000000; stroke-width: 0.8"/>
      </defs>
      <g>
       <use xlink:href="#mcd4a8921a9" x="164.884156" y="768.96" style="stroke: #000000; stroke-width: 0.8"/>
      </g>
     </g>
     <g id="text_1">
      <!-- 45.35 -->
      <g transform="translate(153.751091 807.501382) rotate(-45) scale(0.1 -0.1)">
       <defs>
        <path id="DejaVuSans-2212" d="M 678 2272 
L 4684 2272 
L 4684 1741 
L 678 1741 
L 678 2272 
z
" transform="scale(0.015625)"/>
        <path id="DejaVuSans-34" d="M 2419 4116 
L 825 1625 
L 2419 1625 
L 2419 4116 
z
M 2253 4666 
L 3047 4666 
L 3047 1625 
L 3713 1625 
L 3713 1100 
L 3047 1100 
L 3047 0 
L 2419 0 
L 2419 1100 
L 313 1100 
L 313 1709 
L 2253 4666 
z
" transform="scale(0.015625)"/>
        <path id="DejaVuSans-35" d="M 691 4666 
L 3169 4666 
L 3169 4134 
L 1269 4134 
L 1269 2991 
Q 1406 3038 1543 3061 
Q 1681 3084 1819 3084 
Q 2600 3084 3056 2656 
Q 3513 2228 3513 1497 
Q 3513 744 3044 326 
Q 2575 -91 1722 -91 
Q 1428 -91 1123 -41 
Q 819 9 494 109 
L 494 744 
Q 775 591 1075 516 
Q 1375 441 1709 441 
Q 2250 441 2565 725 
Q 2881 1009 2881 1497 
Q 2881 1984 2565 2268 
Q 2250 2553 1709 2553 
Q 1456 2553 1204 2497 
Q 953 2441 691 2322 
L 691 4666 
z
" transform="scale(0.015625)"/>
        <path id="DejaVuSans-2e" d="M 684 794 
L 1344 794 
L 1344 0 
L 684 0 
L 684 794 
z
" transform="scale(0.015625)"/>
        <path id="DejaVuSans-33" d="M 2597 2516 
Q 3050 2419 3304 2112 
Q 3559 1806 3559 1356 
Q 3559 666 3084 287 
Q 2609 -91 1734 -91 
Q 1441 -91 1130 -33 
Q 819 25 488 141 
L 488 750 
Q 750 597 1062 519 
Q 1375 441 1716 441 
Q 2309 441 2620 675 
Q 2931 909 2931 1356 
Q 2931 1769 2642 2001 
Q 2353 2234 1838 2234 
L 1294 2234 
L 1294 2753 
L 1863 2753 
Q 2328 2753 2575 2939 
Q 2822 3125 2822 3475 
Q 2822 3834 2567 4026 
Q 2313 4219 1838 4219 
Q 1578 4219 1281 4162 
Q 984 4106 628 3988 
L 628 4550 
Q 988 4650 1302 4700 
Q 1616 4750 1894 4750 
Q 2613 4750 3031 4423 
Q 3450 4097 3450 3541 
Q 3450 3153 3228 2886 
Q 3006 2619 2597 2516 
z
" transform="scale(0.015625)"/>
       </defs>
       <use xlink:href="#DejaVuSans-2212"/>
       <use xlink:href="#DejaVuSans-34" transform="translate(83.789062 0)"/>
       <use xlink:href="#DejaVuSans-35" transform="translate(147.412109 0)"/>
       <use xlink:href="#DejaVuSans-2e" transform="translate(211.035156 0)"/>
       <use xlink:href="#DejaVuSans-33" transform="translate(242.822266 0)"/>
       <use xlink:href="#DejaVuSans-35" transform="translate(306.445312 0)"/>
      </g>
     </g>
    </g>
    <g id="xtick_2">
     <g id="line2d_3">
      <path d="M 215.933311 768.96 
L 215.933311 103.68 
" clip-path="url(#pca342baa84)" style="fill: none; stroke: #b0b0b0; stroke-width: 0.8; stroke-linecap: square"/>
     </g>
     <g id="line2d_4">
      <g>
       <use xlink:href="#mcd4a8921a9" x="215.933311" y="768.96" style="stroke: #000000; stroke-width: 0.8"/>
      </g>
     </g>
     <g id="text_2">
      <!-- 45.30 -->
      <g transform="translate(204.800247 807.501382) rotate(-45) scale(0.1 -0.1)">
       <defs>
        <path id="DejaVuSans-30" d="M 2034 4250 
Q 1547 4250 1301 3770 
Q 1056 3291 1056 2328 
Q 1056 1369 1301 889 
Q 1547 409 2034 409 
Q 2525 409 2770 889 
Q 3016 1369 3016 2328 
Q 3016 3291 2770 3770 
Q 2525 4250 2034 4250 
z
M 2034 4750 
Q 2819 4750 3233 4129 
Q 3647 3509 3647 2328 
Q 3647 1150 3233 529 
Q 2819 -91 2034 -91 
Q 1250 -91 836 529 
Q 422 1150 422 2328 
Q 422 3509 836 4129 
Q 1250 4750 2034 4750 
z
" transform="scale(0.015625)"/>
       </defs>
       <use xlink:href="#DejaVuSans-2212"/>
       <use xlink:href="#DejaVuSans-34" transform="translate(83.789062 0)"/>
       <use xlink:href="#DejaVuSans-35" transform="translate(147.412109 0)"/>
       <use xlink:href="#DejaVuSans-2e" transform="translate(211.035156 0)"/>
       <use xlink:href="#DejaVuSans-33" transform="translate(242.822266 0)"/>
       <use xlink:href="#DejaVuSans-30" transform="translate(306.445312 0)"/>
      </g>
     </g>
    </g>
    <g id="xtick_3">
     <g id="line2d_5">
      <path d="M 266.982467 768.96 
L 266.982467 103.68 
" clip-path="url(#pca342baa84)" style="fill: none; stroke: #b0b0b0; stroke-width: 0.8; stroke-linecap: square"/>
     </g>
     <g id="line2d_6">
      <g>
       <use xlink:href="#mcd4a8921a9" x="266.982467" y="768.96" style="stroke: #000000; stroke-width: 0.8"/>
      </g>
     </g>
     <g id="text_3">
      <!-- 45.25 -->
      <g transform="translate(255.849402 807.501382) rotate(-45) scale(0.1 -0.1)">
       <defs>
        <path id="DejaVuSans-32" d="M 1228 531 
L 3431 531 
L 3431 0 
L 469 0 
L 469 531 
Q 828 903 1448 1529 
Q 2069 2156 2228 2338 
Q 2531 2678 2651 2914 
Q 2772 3150 2772 3378 
Q 2772 3750 2511 3984 
Q 2250 4219 1831 4219 
Q 1534 4219 1204 4116 
Q 875 4013 500 3803 
L 500 4441 
Q 881 4594 1212 4672 
Q 1544 4750 1819 4750 
Q 2544 4750 2975 4387 
Q 3406 4025 3406 3419 
Q 3406 3131 3298 2873 
Q 3191 2616 2906 2266 
Q 2828 2175 2409 1742 
Q 1991 1309 1228 531 
z
" transform="scale(0.015625)"/>
       </defs>
       <use xlink:href="#DejaVuSans-2212"/>
       <use xlink:href="#DejaVuSans-34" transform="translate(83.789062 0)"/>
       <use xlink:href="#DejaVuSans-35" transform="translate(147.412109 0)"/>
       <use xlink:href="#DejaVuSans-2e" transform="translate(211.035156 0)"/>
       <use xlink:href="#DejaVuSans-32" transform="translate(242.822266 0)"/>
       <use xlink:href="#DejaVuSans-35" transform="translate(306.445312 0)"/>
      </g>
     </g>
    </g>
    <g id="xtick_4">
     <g id="line2d_7">
      <path d="M 318.031622 768.96 
L 318.031622 103.68 
" clip-path="url(#pca342baa84)" style="fill: none; stroke: #b0b0b0; stroke-width: 0.8; stroke-linecap: square"/>
     </g>
     <g id="line2d_8">
      <g>
       <use xlink:href="#mcd4a8921a9" x="318.031622" y="768.96" style="stroke: #000000; stroke-width: 0.8"/>
      </g>
     </g>
     <g id="text_4">
      <!-- 45.20 -->
      <g transform="translate(306.898557 807.501382) rotate(-45) scale(0.1 -0.1)">
       <use xlink:href="#DejaVuSans-2212"/>
       <use xlink:href="#DejaVuSans-34" transform="translate(83.789062 0)"/>
       <use xlink:href="#DejaVuSans-35" transform="translate(147.412109 0)"/>
       <use xlink:href="#DejaVuSans-2e" transform="translate(211.035156 0)"/>
       <use xlink:href="#DejaVuSans-32" transform="translate(242.822266 0)"/>
       <use xlink:href="#DejaVuSans-30" transform="translate(306.445312 0)"/>
      </g>
     </g>
    </g>
    <g id="xtick_5">
     <g id="line2d_9">
      <path d="M 369.080777 768.96 
L 369.080777 103.68 
" clip-path="url(#pca342baa84)" style="fill: none; stroke: #b0b0b0; stroke-width: 0.8; stroke-linecap: square"/>
     </g>
     <g id="line2d_10">
      <g>
       <use xlink:href="#mcd4a8921a9" x="369.080777" y="768.96" style="stroke: #000000; stroke-width: 0.8"/>
      </g>
     </g>
     <g id="text_5">
      <!-- 45.15 -->
      <g transform="translate(357.947712 807.501382) rotate(-45) scale(0.1 -0.1)">
       <defs>
        <path id="DejaVuSans-31" d="M 794 531 
L 1825 531 
L 1825 4091 
L 703 3866 
L 703 4441 
L 1819 4666 
L 2450 4666 
L 2450 531 
L 3481 531 
L 3481 0 
L 794 0 
L 794 531 
z
" transform="scale(0.015625)"/>
       </defs>
       <use xlink:href="#DejaVuSans-2212"/>
       <use xlink:href="#DejaVuSans-34" transform="translate(83.789062 0)"/>
       <use xlink:href="#DejaVuSans-35" transform="translate(147.412109 0)"/>
       <use xlink:href="#DejaVuSans-2e" transform="translate(211.035156 0)"/>
       <use xlink:href="#DejaVuSans-31" transform="translate(242.822266 0)"/>
       <use xlink:href="#DejaVuSans-35" transform="translate(306.445312 0)"/>
      </g>
     </g>
    </g>
    <g id="xtick_6">
     <g id="line2d_11">
      <path d="M 420.129932 768.96 
L 420.129932 103.68 
" clip-path="url(#pca342baa84)" style="fill: none; stroke: #b0b0b0; stroke-width: 0.8; stroke-linecap: square"/>
     </g>
     <g id="line2d_12">
      <g>
       <use xlink:href="#mcd4a8921a9" x="420.129932" y="768.96" style="stroke: #000000; stroke-width: 0.8"/>
      </g>
     </g>
     <g id="text_6">
      <!-- 45.10 -->
      <g transform="translate(408.996868 807.501382) rotate(-45) scale(0.1 -0.1)">
       <use xlink:href="#DejaVuSans-2212"/>
       <use xlink:href="#DejaVuSans-34" transform="translate(83.789062 0)"/>
       <use xlink:href="#DejaVuSans-35" transform="translate(147.412109 0)"/>
       <use xlink:href="#DejaVuSans-2e" transform="translate(211.035156 0)"/>
       <use xlink:href="#DejaVuSans-31" transform="translate(242.822266 0)"/>
       <use xlink:href="#DejaVuSans-30" transform="translate(306.445312 0)"/>
      </g>
     </g>
    </g>
    <g id="xtick_7">
     <g id="line2d_13">
      <path d="M 471.179088 768.96 
L 471.179088 103.68 
" clip-path="url(#pca342baa84)" style="fill: none; stroke: #b0b0b0; stroke-width: 0.8; stroke-linecap: square"/>
     </g>
     <g id="line2d_14">
      <g>
       <use xlink:href="#mcd4a8921a9" x="471.179088" y="768.96" style="stroke: #000000; stroke-width: 0.8"/>
      </g>
     </g>
     <g id="text_7">
      <!-- 45.05 -->
      <g transform="translate(460.046023 807.501382) rotate(-45) scale(0.1 -0.1)">
       <use xlink:href="#DejaVuSans-2212"/>
       <use xlink:href="#DejaVuSans-34" transform="translate(83.789062 0)"/>
       <use xlink:href="#DejaVuSans-35" transform="translate(147.412109 0)"/>
       <use xlink:href="#DejaVuSans-2e" transform="translate(211.035156 0)"/>
       <use xlink:href="#DejaVuSans-30" transform="translate(242.822266 0)"/>
       <use xlink:href="#DejaVuSans-35" transform="translate(306.445312 0)"/>
      </g>
     </g>
    </g>
    <g id="xtick_8">
     <g id="line2d_15">
      <path d="M 522.228243 768.96 
L 522.228243 103.68 
" clip-path="url(#pca342baa84)" style="fill: none; stroke: #b0b0b0; stroke-width: 0.8; stroke-linecap: square"/>
     </g>
     <g id="line2d_16">
      <g>
       <use xlink:href="#mcd4a8921a9" x="522.228243" y="768.96" style="stroke: #000000; stroke-width: 0.8"/>
      </g>
     </g>
     <g id="text_8">
      <!-- 45.00 -->
      <g transform="translate(511.095178 807.501382) rotate(-45) scale(0.1 -0.1)">
       <use xlink:href="#DejaVuSans-2212"/>
       <use xlink:href="#DejaVuSans-34" transform="translate(83.789062 0)"/>
       <use xlink:href="#DejaVuSans-35" transform="translate(147.412109 0)"/>
       <use xlink:href="#DejaVuSans-2e" transform="translate(211.035156 0)"/>
       <use xlink:href="#DejaVuSans-30" transform="translate(242.822266 0)"/>
       <use xlink:href="#DejaVuSans-30" transform="translate(306.445312 0)"/>
      </g>
     </g>
    </g>
    <g id="xtick_9">
     <g id="line2d_17">
      <path d="M 573.277398 768.96 
L 573.277398 103.68 
" clip-path="url(#pca342baa84)" style="fill: none; stroke: #b0b0b0; stroke-width: 0.8; stroke-linecap: square"/>
     </g>
     <g id="line2d_18">
      <g>
       <use xlink:href="#mcd4a8921a9" x="573.277398" y="768.96" style="stroke: #000000; stroke-width: 0.8"/>
      </g>
     </g>
     <g id="text_9">
      <!-- 44.95 -->
      <g transform="translate(562.144333 807.501382) rotate(-45) scale(0.1 -0.1)">
       <defs>
        <path id="DejaVuSans-39" d="M 703 97 
L 703 672 
Q 941 559 1184 500 
Q 1428 441 1663 441 
Q 2288 441 2617 861 
Q 2947 1281 2994 2138 
Q 2813 1869 2534 1725 
Q 2256 1581 1919 1581 
Q 1219 1581 811 2004 
Q 403 2428 403 3163 
Q 403 3881 828 4315 
Q 1253 4750 1959 4750 
Q 2769 4750 3195 4129 
Q 3622 3509 3622 2328 
Q 3622 1225 3098 567 
Q 2575 -91 1691 -91 
Q 1453 -91 1209 -44 
Q 966 3 703 97 
z
M 1959 2075 
Q 2384 2075 2632 2365 
Q 2881 2656 2881 3163 
Q 2881 3666 2632 3958 
Q 2384 4250 1959 4250 
Q 1534 4250 1286 3958 
Q 1038 3666 1038 3163 
Q 1038 2656 1286 2365 
Q 1534 2075 1959 2075 
z
" transform="scale(0.015625)"/>
       </defs>
       <use xlink:href="#DejaVuSans-2212"/>
       <use xlink:href="#DejaVuSans-34" transform="translate(83.789062 0)"/>
       <use xlink:href="#DejaVuSans-34" transform="translate(147.412109 0)"/>
       <use xlink:href="#DejaVuSans-2e" transform="translate(211.035156 0)"/>
       <use xlink:href="#DejaVuSans-39" transform="translate(242.822266 0)"/>
       <use xlink:href="#DejaVuSans-35" transform="translate(306.445312 0)"/>
      </g>
     </g>
    </g>
    <g id="text_10">
     <!-- Longitude () -->
     <g transform="translate(336.139844 820.57038) scale(0.1 -0.1)">
      <defs>
       <path id="DejaVuSans-4c" d="M 628 4666 
L 1259 4666 
L 1259 531 
L 3531 531 
L 3531 0 
L 628 0 
L 628 4666 
z
" transform="scale(0.015625)"/>
       <path id="DejaVuSans-6f" d="M 1959 3097 
Q 1497 3097 1228 2736 
Q 959 2375 959 1747 
Q 959 1119 1226 758 
Q 1494 397 1959 397 
Q 2419 397 2687 759 
Q 2956 1122 2956 1747 
Q 2956 2369 2687 2733 
Q 2419 3097 1959 3097 
z
M 1959 3584 
Q 2709 3584 3137 3096 
Q 3566 2609 3566 1747 
Q 3566 888 3137 398 
Q 2709 -91 1959 -91 
Q 1206 -91 779 398 
Q 353 888 353 1747 
Q 353 2609 779 3096 
Q 1206 3584 1959 3584 
z
" transform="scale(0.015625)"/>
       <path id="DejaVuSans-6e" d="M 3513 2113 
L 3513 0 
L 2938 0 
L 2938 2094 
Q 2938 2591 2744 2837 
Q 2550 3084 2163 3084 
Q 1697 3084 1428 2787 
Q 1159 2491 1159 1978 
L 1159 0 
L 581 0 
L 581 3500 
L 1159 3500 
L 1159 2956 
Q 1366 3272 1645 3428 
Q 1925 3584 2291 3584 
Q 2894 3584 3203 3211 
Q 3513 2838 3513 2113 
z
" transform="scale(0.015625)"/>
       <path id="DejaVuSans-67" d="M 2906 1791 
Q 2906 2416 2648 2759 
Q 2391 3103 1925 3103 
Q 1463 3103 1205 2759 
Q 947 2416 947 1791 
Q 947 1169 1205 825 
Q 1463 481 1925 481 
Q 2391 481 2648 825 
Q 2906 1169 2906 1791 
z
M 3481 434 
Q 3481 -459 3084 -895 
Q 2688 -1331 1869 -1331 
Q 1566 -1331 1297 -1286 
Q 1028 -1241 775 -1147 
L 775 -588 
Q 1028 -725 1275 -790 
Q 1522 -856 1778 -856 
Q 2344 -856 2625 -561 
Q 2906 -266 2906 331 
L 2906 616 
Q 2728 306 2450 153 
Q 2172 0 1784 0 
Q 1141 0 747 490 
Q 353 981 353 1791 
Q 353 2603 747 3093 
Q 1141 3584 1784 3584 
Q 2172 3584 2450 3431 
Q 2728 3278 2906 2969 
L 2906 3500 
L 3481 3500 
L 3481 434 
z
" transform="scale(0.015625)"/>
       <path id="DejaVuSans-69" d="M 603 3500 
L 1178 3500 
L 1178 0 
L 603 0 
L 603 3500 
z
M 603 4863 
L 1178 4863 
L 1178 4134 
L 603 4134 
L 603 4863 
z
" transform="scale(0.015625)"/>
       <path id="DejaVuSans-74" d="M 1172 4494 
L 1172 3500 
L 2356 3500 
L 2356 3053 
L 1172 3053 
L 1172 1153 
Q 1172 725 1289 603 
Q 1406 481 1766 481 
L 2356 481 
L 2356 0 
L 1766 0 
Q 1100 0 847 248 
Q 594 497 594 1153 
L 594 3053 
L 172 3053 
L 172 3500 
L 594 3500 
L 594 4494 
L 1172 4494 
z
" transform="scale(0.015625)"/>
       <path id="DejaVuSans-75" d="M 544 1381 
L 544 3500 
L 1119 3500 
L 1119 1403 
Q 1119 906 1312 657 
Q 1506 409 1894 409 
Q 2359 409 2629 706 
Q 2900 1003 2900 1516 
L 2900 3500 
L 3475 3500 
L 3475 0 
L 2900 0 
L 2900 538 
Q 2691 219 2414 64 
Q 2138 -91 1772 -91 
Q 1169 -91 856 284 
Q 544 659 544 1381 
z
M 1991 3584 
L 1991 3584 
z
" transform="scale(0.015625)"/>
       <path id="DejaVuSans-64" d="M 2906 2969 
L 2906 4863 
L 3481 4863 
L 3481 0 
L 2906 0 
L 2906 525 
Q 2725 213 2448 61 
Q 2172 -91 1784 -91 
Q 1150 -91 751 415 
Q 353 922 353 1747 
Q 353 2572 751 3078 
Q 1150 3584 1784 3584 
Q 2172 3584 2448 3432 
Q 2725 3281 2906 2969 
z
M 947 1747 
Q 947 1113 1208 752 
Q 1469 391 1925 391 
Q 2381 391 2643 752 
Q 2906 1113 2906 1747 
Q 2906 2381 2643 2742 
Q 2381 3103 1925 3103 
Q 1469 3103 1208 2742 
Q 947 2381 947 1747 
z
" transform="scale(0.015625)"/>
       <path id="DejaVuSans-65" d="M 3597 1894 
L 3597 1613 
L 953 1613 
Q 991 1019 1311 708 
Q 1631 397 2203 397 
Q 2534 397 2845 478 
Q 3156 559 3463 722 
L 3463 178 
Q 3153 47 2828 -22 
Q 2503 -91 2169 -91 
Q 1331 -91 842 396 
Q 353 884 353 1716 
Q 353 2575 817 3079 
Q 1281 3584 2069 3584 
Q 2775 3584 3186 3129 
Q 3597 2675 3597 1894 
z
M 3022 2063 
Q 3016 2534 2758 2815 
Q 2500 3097 2075 3097 
Q 1594 3097 1305 2825 
Q 1016 2553 972 2059 
L 3022 2063 
z
" transform="scale(0.015625)"/>
       <path id="DejaVuSans-20" transform="scale(0.015625)"/>
       <path id="DejaVuSans-28" d="M 1984 4856 
Q 1566 4138 1362 3434 
Q 1159 2731 1159 2009 
Q 1159 1288 1364 580 
Q 1569 -128 1984 -844 
L 1484 -844 
Q 1016 -109 783 600 
Q 550 1309 550 2009 
Q 550 2706 781 3412 
Q 1013 4119 1484 4856 
L 1984 4856 
z
" transform="scale(0.015625)"/>
       <path id="DejaVuSans-b0" d="M 1600 4347 
Q 1350 4347 1178 4173 
Q 1006 4000 1006 3750 
Q 1006 3503 1178 3333 
Q 1350 3163 1600 3163 
Q 1850 3163 2022 3333 
Q 2194 3503 2194 3750 
Q 2194 3997 2020 4172 
Q 1847 4347 1600 4347 
z
M 1600 4750 
Q 1800 4750 1984 4673 
Q 2169 4597 2303 4453 
Q 2447 4313 2519 4134 
Q 2591 3956 2591 3750 
Q 2591 3338 2302 3052 
Q 2013 2766 1594 2766 
Q 1172 2766 890 3047 
Q 609 3328 609 3750 
Q 609 4169 896 4459 
Q 1184 4750 1600 4750 
z
" transform="scale(0.015625)"/>
       <path id="DejaVuSans-29" d="M 513 4856 
L 1013 4856 
Q 1481 4119 1714 3412 
Q 1947 2706 1947 2009 
Q 1947 1309 1714 600 
Q 1481 -109 1013 -844 
L 513 -844 
Q 928 -128 1133 580 
Q 1338 1288 1338 2009 
Q 1338 2731 1133 3434 
Q 928 4138 513 4856 
z
" transform="scale(0.015625)"/>
      </defs>
      <use xlink:href="#DejaVuSans-4c"/>
      <use xlink:href="#DejaVuSans-6f" transform="translate(53.962891 0)"/>
      <use xlink:href="#DejaVuSans-6e" transform="translate(115.144531 0)"/>
      <use xlink:href="#DejaVuSans-67" transform="translate(178.523438 0)"/>
      <use xlink:href="#DejaVuSans-69" transform="translate(242 0)"/>
      <use xlink:href="#DejaVuSans-74" transform="translate(269.783203 0)"/>
      <use xlink:href="#DejaVuSans-75" transform="translate(308.992188 0)"/>
      <use xlink:href="#DejaVuSans-64" transform="translate(372.371094 0)"/>
      <use xlink:href="#DejaVuSans-65" transform="translate(435.847656 0)"/>
      <use xlink:href="#DejaVuSans-20" transform="translate(497.371094 0)"/>
      <use xlink:href="#DejaVuSans-28" transform="translate(529.158203 0)"/>
      <use xlink:href="#DejaVuSans-b0" transform="translate(568.171875 0)"/>
      <use xlink:href="#DejaVuSans-29" transform="translate(618.171875 0)"/>
     </g>
    </g>
   </g>
   <g id="matplotlib.axis_2">
    <g id="ytick_1">
     <g id="line2d_19">
      <path d="M 152.047902 688.979608 
L 585.952098 688.979608 
" clip-path="url(#pca342baa84)" style="fill: none; stroke: #b0b0b0; stroke-width: 0.8; stroke-linecap: square"/>
     </g>
     <g id="line2d_20">
      <defs>
       <path id="me40f59fcff" d="M 0 0 
L -3.5 0 
" style="stroke: #000000; stroke-width: 0.8"/>
      </defs>
      <g>
       <use xlink:href="#me40f59fcff" x="152.047902" y="688.979608" style="stroke: #000000; stroke-width: 0.8"/>
      </g>
     </g>
     <g id="text_11">
      <!-- 4.1 -->
      <g transform="translate(120.765089 692.778827) scale(0.1 -0.1)">
       <use xlink:href="#DejaVuSans-2212"/>
       <use xlink:href="#DejaVuSans-34" transform="translate(83.789062 0)"/>
       <use xlink:href="#DejaVuSans-2e" transform="translate(147.412109 0)"/>
       <use xlink:href="#DejaVuSans-31" transform="translate(179.199219 0)"/>
      </g>
     </g>
    </g>
    <g id="ytick_2">
     <g id="line2d_21">
      <path d="M 152.047902 586.651662 
L 585.952098 586.651662 
" clip-path="url(#pca342baa84)" style="fill: none; stroke: #b0b0b0; stroke-width: 0.8; stroke-linecap: square"/>
     </g>
     <g id="line2d_22">
      <g>
       <use xlink:href="#me40f59fcff" x="152.047902" y="586.651662" style="stroke: #000000; stroke-width: 0.8"/>
      </g>
     </g>
     <g id="text_12">
      <!-- 4.0 -->
      <g transform="translate(120.765089 590.45088) scale(0.1 -0.1)">
       <use xlink:href="#DejaVuSans-2212"/>
       <use xlink:href="#DejaVuSans-34" transform="translate(83.789062 0)"/>
       <use xlink:href="#DejaVuSans-2e" transform="translate(147.412109 0)"/>
       <use xlink:href="#DejaVuSans-30" transform="translate(179.199219 0)"/>
      </g>
     </g>
    </g>
    <g id="ytick_3">
     <g id="line2d_23">
      <path d="M 152.047902 484.323715 
L 585.952098 484.323715 
" clip-path="url(#pca342baa84)" style="fill: none; stroke: #b0b0b0; stroke-width: 0.8; stroke-linecap: square"/>
     </g>
     <g id="line2d_24">
      <g>
       <use xlink:href="#me40f59fcff" x="152.047902" y="484.323715" style="stroke: #000000; stroke-width: 0.8"/>
      </g>
     </g>
     <g id="text_13">
      <!-- 3.9 -->
      <g transform="translate(120.765089 488.122934) scale(0.1 -0.1)">
       <use xlink:href="#DejaVuSans-2212"/>
       <use xlink:href="#DejaVuSans-33" transform="translate(83.789062 0)"/>
       <use xlink:href="#DejaVuSans-2e" transform="translate(147.412109 0)"/>
       <use xlink:href="#DejaVuSans-39" transform="translate(179.199219 0)"/>
      </g>
     </g>
    </g>
    <g id="ytick_4">
     <g id="line2d_25">
      <path d="M 152.047902 381.995769 
L 585.952098 381.995769 
" clip-path="url(#pca342baa84)" style="fill: none; stroke: #b0b0b0; stroke-width: 0.8; stroke-linecap: square"/>
     </g>
     <g id="line2d_26">
      <g>
       <use xlink:href="#me40f59fcff" x="152.047902" y="381.995769" style="stroke: #000000; stroke-width: 0.8"/>
      </g>
     </g>
     <g id="text_14">
      <!-- 3.8 -->
      <g transform="translate(120.765089 385.794988) scale(0.1 -0.1)">
       <defs>
        <path id="DejaVuSans-38" d="M 2034 2216 
Q 1584 2216 1326 1975 
Q 1069 1734 1069 1313 
Q 1069 891 1326 650 
Q 1584 409 2034 409 
Q 2484 409 2743 651 
Q 3003 894 3003 1313 
Q 3003 1734 2745 1975 
Q 2488 2216 2034 2216 
z
M 1403 2484 
Q 997 2584 770 2862 
Q 544 3141 544 3541 
Q 544 4100 942 4425 
Q 1341 4750 2034 4750 
Q 2731 4750 3128 4425 
Q 3525 4100 3525 3541 
Q 3525 3141 3298 2862 
Q 3072 2584 2669 2484 
Q 3125 2378 3379 2068 
Q 3634 1759 3634 1313 
Q 3634 634 3220 271 
Q 2806 -91 2034 -91 
Q 1263 -91 848 271 
Q 434 634 434 1313 
Q 434 1759 690 2068 
Q 947 2378 1403 2484 
z
M 1172 3481 
Q 1172 3119 1398 2916 
Q 1625 2713 2034 2713 
Q 2441 2713 2670 2916 
Q 2900 3119 2900 3481 
Q 2900 3844 2670 4047 
Q 2441 4250 2034 4250 
Q 1625 4250 1398 4047 
Q 1172 3844 1172 3481 
z
" transform="scale(0.015625)"/>
       </defs>
       <use xlink:href="#DejaVuSans-2212"/>
       <use xlink:href="#DejaVuSans-33" transform="translate(83.789062 0)"/>
       <use xlink:href="#DejaVuSans-2e" transform="translate(147.412109 0)"/>
       <use xlink:href="#DejaVuSans-38" transform="translate(179.199219 0)"/>
      </g>
     </g>
    </g>
    <g id="ytick_5">
     <g id="line2d_27">
      <path d="M 152.047902 279.667822 
L 585.952098 279.667822 
" clip-path="url(#pca342baa84)" style="fill: none; stroke: #b0b0b0; stroke-width: 0.8; stroke-linecap: square"/>
     </g>
     <g id="line2d_28">
      <g>
       <use xlink:href="#me40f59fcff" x="152.047902" y="279.667822" style="stroke: #000000; stroke-width: 0.8"/>
      </g>
     </g>
     <g id="text_15">
      <!-- 3.7 -->
      <g transform="translate(120.765089 283.467041) scale(0.1 -0.1)">
       <defs>
        <path id="DejaVuSans-37" d="M 525 4666 
L 3525 4666 
L 3525 4397 
L 1831 0 
L 1172 0 
L 2766 4134 
L 525 4134 
L 525 4666 
z
" transform="scale(0.015625)"/>
       </defs>
       <use xlink:href="#DejaVuSans-2212"/>
       <use xlink:href="#DejaVuSans-33" transform="translate(83.789062 0)"/>
       <use xlink:href="#DejaVuSans-2e" transform="translate(147.412109 0)"/>
       <use xlink:href="#DejaVuSans-37" transform="translate(179.199219 0)"/>
      </g>
     </g>
    </g>
    <g id="ytick_6">
     <g id="line2d_29">
      <path d="M 152.047902 177.339876 
L 585.952098 177.339876 
" clip-path="url(#pca342baa84)" style="fill: none; stroke: #b0b0b0; stroke-width: 0.8; stroke-linecap: square"/>
     </g>
     <g id="line2d_30">
      <g>
       <use xlink:href="#me40f59fcff" x="152.047902" y="177.339876" style="stroke: #000000; stroke-width: 0.8"/>
      </g>
     </g>
     <g id="text_16">
      <!-- 3.6 -->
      <g transform="translate(120.765089 181.139095) scale(0.1 -0.1)">
       <defs>
        <path id="DejaVuSans-36" d="M 2113 2584 
Q 1688 2584 1439 2293 
Q 1191 2003 1191 1497 
Q 1191 994 1439 701 
Q 1688 409 2113 409 
Q 2538 409 2786 701 
Q 3034 994 3034 1497 
Q 3034 2003 2786 2293 
Q 2538 2584 2113 2584 
z
M 3366 4563 
L 3366 3988 
Q 3128 4100 2886 4159 
Q 2644 4219 2406 4219 
Q 1781 4219 1451 3797 
Q 1122 3375 1075 2522 
Q 1259 2794 1537 2939 
Q 1816 3084 2150 3084 
Q 2853 3084 3261 2657 
Q 3669 2231 3669 1497 
Q 3669 778 3244 343 
Q 2819 -91 2113 -91 
Q 1303 -91 875 529 
Q 447 1150 447 2328 
Q 447 3434 972 4092 
Q 1497 4750 2381 4750 
Q 2619 4750 2861 4703 
Q 3103 4656 3366 4563 
z
" transform="scale(0.015625)"/>
       </defs>
       <use xlink:href="#DejaVuSans-2212"/>
       <use xlink:href="#DejaVuSans-33" transform="translate(83.789062 0)"/>
       <use xlink:href="#DejaVuSans-2e" transform="translate(147.412109 0)"/>
       <use xlink:href="#DejaVuSans-36" transform="translate(179.199219 0)"/>
      </g>
     </g>
    </g>
    <g id="text_17">
     <!-- Latitude () -->
     <g transform="translate(114.685402 464.889531) rotate(-90) scale(0.1 -0.1)">
      <defs>
       <path id="DejaVuSans-61" d="M 2194 1759 
Q 1497 1759 1228 1600 
Q 959 1441 959 1056 
Q 959 750 1161 570 
Q 1363 391 1709 391 
Q 2188 391 2477 730 
Q 2766 1069 2766 1631 
L 2766 1759 
L 2194 1759 
z
M 3341 1997 
L 3341 0 
L 2766 0 
L 2766 531 
Q 2569 213 2275 61 
Q 1981 -91 1556 -91 
Q 1019 -91 701 211 
Q 384 513 384 1019 
Q 384 1609 779 1909 
Q 1175 2209 1959 2209 
L 2766 2209 
L 2766 2266 
Q 2766 2663 2505 2880 
Q 2244 3097 1772 3097 
Q 1472 3097 1187 3025 
Q 903 2953 641 2809 
L 641 3341 
Q 956 3463 1253 3523 
Q 1550 3584 1831 3584 
Q 2591 3584 2966 3190 
Q 3341 2797 3341 1997 
z
" transform="scale(0.015625)"/>
      </defs>
      <use xlink:href="#DejaVuSans-4c"/>
      <use xlink:href="#DejaVuSans-61" transform="translate(55.712891 0)"/>
      <use xlink:href="#DejaVuSans-74" transform="translate(116.992188 0)"/>
      <use xlink:href="#DejaVuSans-69" transform="translate(156.201172 0)"/>
      <use xlink:href="#DejaVuSans-74" transform="translate(183.984375 0)"/>
      <use xlink:href="#DejaVuSans-75" transform="translate(223.193359 0)"/>
      <use xlink:href="#DejaVuSans-64" transform="translate(286.572266 0)"/>
      <use xlink:href="#DejaVuSans-65" transform="translate(350.048828 0)"/>
      <use xlink:href="#DejaVuSans-20" transform="translate(411.572266 0)"/>
      <use xlink:href="#DejaVuSans-28" transform="translate(443.359375 0)"/>
      <use xlink:href="#DejaVuSans-b0" transform="translate(482.373047 0)"/>
      <use xlink:href="#DejaVuSans-29" transform="translate(532.373047 0)"/>
     </g>
    </g>
   </g>
   <g id="patch_3">
    <path d="M 152.047902 768.96 
L 152.047902 103.68 
" style="fill: none; stroke: #000000; stroke-width: 0.8; stroke-linejoin: miter; stroke-linecap: square"/>
   </g>
   <g id="patch_4">
    <path d="M 585.952098 768.96 
L 585.952098 103.68 
" style="fill: none; stroke: #000000; stroke-width: 0.8; stroke-linejoin: miter; stroke-linecap: square"/>
   </g>
   <g id="patch_5">
    <path d="M 152.047902 768.96 
L 585.952098 768.96 
" style="fill: none; stroke: #000000; stroke-width: 0.8; stroke-linejoin: miter; stroke-linecap: square"/>
   </g>
   <g id="patch_6">
    <path d="M 152.047902 103.68 
L 585.952098 103.68 
" style="fill: none; stroke: #000000; stroke-width: 0.8; stroke-linejoin: miter; stroke-linecap: square"/>
   </g>
   <g id="legend_1">
    <g id="patch_7">
     <path d="M 205.107812 906.50825 
L 532.892187 906.50825 
Q 534.892187 906.50825 534.892187 904.50825 
L 534.892187 875.752 
Q 534.892187 873.752 532.892187 873.752 
L 205.107812 873.752 
Q 203.107812 873.752 203.107812 875.752 
L 203.107812 904.50825 
Q 203.107812 906.50825 205.107812 906.50825 
z
" style="fill: #ffffff; opacity: 0.8; stroke: #cccccc; stroke-linejoin: miter"/>
    </g>
    <g id="line2d_31">
     <defs>
      <path id="m8316d5367e" d="M 0 5 
C 1.326016 5 2.597899 4.473168 3.535534 3.535534 
C 4.473168 2.597899 5 1.326016 5 0 
C 5 -1.326016 4.473168 -2.597899 3.535534 -3.535534 
C 2.597899 -4.473168 1.326016 -5 0 -5 
C -1.326016 -5 -2.597899 -4.473168 -3.535534 -3.535534 
C -4.473168 -2.597899 -5 -1.326016 -5 0 
C -5 1.326016 -4.473168 2.597899 -3.535534 3.535534 
C -2.597899 4.473168 -1.326016 5 0 5 
z
"/>
     </defs>
     <g>
      <use xlink:href="#m8316d5367e" x="217.107812" y="881.850437" style="fill: #b3e2cd; fill-opacity: 0.65"/>
     </g>
    </g>
    <g id="text_18">
     <!-- Bela Vista do Maranho -->
     <g transform="translate(235.107812 885.350437) scale(0.1 -0.1)">
      <defs>
       <path id="DejaVuSans-42" d="M 1259 2228 
L 1259 519 
L 2272 519 
Q 2781 519 3026 730 
Q 3272 941 3272 1375 
Q 3272 1813 3026 2020 
Q 2781 2228 2272 2228 
L 1259 2228 
z
M 1259 4147 
L 1259 2741 
L 2194 2741 
Q 2656 2741 2882 2914 
Q 3109 3088 3109 3444 
Q 3109 3797 2882 3972 
Q 2656 4147 2194 4147 
L 1259 4147 
z
M 628 4666 
L 2241 4666 
Q 2963 4666 3353 4366 
Q 3744 4066 3744 3513 
Q 3744 3084 3544 2831 
Q 3344 2578 2956 2516 
Q 3422 2416 3680 2098 
Q 3938 1781 3938 1306 
Q 3938 681 3513 340 
Q 3088 0 2303 0 
L 628 0 
L 628 4666 
z
" transform="scale(0.015625)"/>
       <path id="DejaVuSans-6c" d="M 603 4863 
L 1178 4863 
L 1178 0 
L 603 0 
L 603 4863 
z
" transform="scale(0.015625)"/>
       <path id="DejaVuSans-56" d="M 1831 0 
L 50 4666 
L 709 4666 
L 2188 738 
L 3669 4666 
L 4325 4666 
L 2547 0 
L 1831 0 
z
" transform="scale(0.015625)"/>
       <path id="DejaVuSans-73" d="M 2834 3397 
L 2834 2853 
Q 2591 2978 2328 3040 
Q 2066 3103 1784 3103 
Q 1356 3103 1142 2972 
Q 928 2841 928 2578 
Q 928 2378 1081 2264 
Q 1234 2150 1697 2047 
L 1894 2003 
Q 2506 1872 2764 1633 
Q 3022 1394 3022 966 
Q 3022 478 2636 193 
Q 2250 -91 1575 -91 
Q 1294 -91 989 -36 
Q 684 19 347 128 
L 347 722 
Q 666 556 975 473 
Q 1284 391 1588 391 
Q 1994 391 2212 530 
Q 2431 669 2431 922 
Q 2431 1156 2273 1281 
Q 2116 1406 1581 1522 
L 1381 1569 
Q 847 1681 609 1914 
Q 372 2147 372 2553 
Q 372 3047 722 3315 
Q 1072 3584 1716 3584 
Q 2034 3584 2315 3537 
Q 2597 3491 2834 3397 
z
" transform="scale(0.015625)"/>
       <path id="DejaVuSans-4d" d="M 628 4666 
L 1569 4666 
L 2759 1491 
L 3956 4666 
L 4897 4666 
L 4897 0 
L 4281 0 
L 4281 4097 
L 3078 897 
L 2444 897 
L 1241 4097 
L 1241 0 
L 628 0 
L 628 4666 
z
" transform="scale(0.015625)"/>
       <path id="DejaVuSans-72" d="M 2631 2963 
Q 2534 3019 2420 3045 
Q 2306 3072 2169 3072 
Q 1681 3072 1420 2755 
Q 1159 2438 1159 1844 
L 1159 0 
L 581 0 
L 581 3500 
L 1159 3500 
L 1159 2956 
Q 1341 3275 1631 3429 
Q 1922 3584 2338 3584 
Q 2397 3584 2469 3576 
Q 2541 3569 2628 3553 
L 2631 2963 
z
" transform="scale(0.015625)"/>
       <path id="DejaVuSans-68" d="M 3513 2113 
L 3513 0 
L 2938 0 
L 2938 2094 
Q 2938 2591 2744 2837 
Q 2550 3084 2163 3084 
Q 1697 3084 1428 2787 
Q 1159 2491 1159 1978 
L 1159 0 
L 581 0 
L 581 4863 
L 1159 4863 
L 1159 2956 
Q 1366 3272 1645 3428 
Q 1925 3584 2291 3584 
Q 2894 3584 3203 3211 
Q 3513 2838 3513 2113 
z
" transform="scale(0.015625)"/>
       <path id="DejaVuSans-e3" d="M 2194 1759 
Q 1497 1759 1228 1600 
Q 959 1441 959 1056 
Q 959 750 1161 570 
Q 1363 391 1709 391 
Q 2188 391 2477 730 
Q 2766 1069 2766 1631 
L 2766 1759 
L 2194 1759 
z
M 3341 1997 
L 3341 0 
L 2766 0 
L 2766 531 
Q 2569 213 2275 61 
Q 1981 -91 1556 -91 
Q 1019 -91 701 211 
Q 384 513 384 1019 
Q 384 1609 779 1909 
Q 1175 2209 1959 2209 
L 2766 2209 
L 2766 2266 
Q 2766 2663 2505 2880 
Q 2244 3097 1772 3097 
Q 1472 3097 1187 3025 
Q 903 2953 641 2809 
L 641 3341 
Q 956 3463 1253 3523 
Q 1550 3584 1831 3584 
Q 2591 3584 2966 3190 
Q 3341 2797 3341 1997 
z
M 1844 4281 
L 1666 4453 
Q 1597 4516 1545 4545 
Q 1494 4575 1453 4575 
Q 1334 4575 1278 4461 
Q 1222 4347 1216 4091 
L 825 4091 
Q 831 4513 990 4742 
Q 1150 4972 1434 4972 
Q 1553 4972 1653 4928 
Q 1753 4884 1869 4781 
L 2047 4609 
Q 2116 4547 2167 4517 
Q 2219 4488 2259 4488 
Q 2378 4488 2434 4602 
Q 2491 4716 2497 4972 
L 2888 4972 
Q 2881 4550 2722 4320 
Q 2563 4091 2278 4091 
Q 2159 4091 2059 4134 
Q 1959 4178 1844 4281 
z
" transform="scale(0.015625)"/>
      </defs>
      <use xlink:href="#DejaVuSans-42"/>
      <use xlink:href="#DejaVuSans-65" transform="translate(68.603516 0)"/>
      <use xlink:href="#DejaVuSans-6c" transform="translate(130.126953 0)"/>
      <use xlink:href="#DejaVuSans-61" transform="translate(157.910156 0)"/>
      <use xlink:href="#DejaVuSans-20" transform="translate(219.189453 0)"/>
      <use xlink:href="#DejaVuSans-56" transform="translate(250.976562 0)"/>
      <use xlink:href="#DejaVuSans-69" transform="translate(317.134766 0)"/>
      <use xlink:href="#DejaVuSans-73" transform="translate(344.917969 0)"/>
      <use xlink:href="#DejaVuSans-74" transform="translate(397.017578 0)"/>
      <use xlink:href="#DejaVuSans-61" transform="translate(436.226562 0)"/>
      <use xlink:href="#DejaVuSans-20" transform="translate(497.505859 0)"/>
      <use xlink:href="#DejaVuSans-64" transform="translate(529.292969 0)"/>
      <use xlink:href="#DejaVuSans-6f" transform="translate(592.769531 0)"/>
      <use xlink:href="#DejaVuSans-20" transform="translate(653.951172 0)"/>
      <use xlink:href="#DejaVuSans-4d" transform="translate(685.738281 0)"/>
      <use xlink:href="#DejaVuSans-61" transform="translate(772.017578 0)"/>
      <use xlink:href="#DejaVuSans-72" transform="translate(833.296875 0)"/>
      <use xlink:href="#DejaVuSans-61" transform="translate(874.410156 0)"/>
      <use xlink:href="#DejaVuSans-6e" transform="translate(935.689453 0)"/>
      <use xlink:href="#DejaVuSans-68" transform="translate(999.068359 0)"/>
      <use xlink:href="#DejaVuSans-e3" transform="translate(1062.447266 0)"/>
      <use xlink:href="#DejaVuSans-6f" transform="translate(1123.726562 0)"/>
     </g>
    </g>
    <g id="line2d_32">
     <defs>
      <path id="m7d1d16ffb4" d="M 0 5 
C 1.326016 5 2.597899 4.473168 3.535534 3.535534 
C 4.473168 2.597899 5 1.326016 5 0 
C 5 -1.326016 4.473168 -2.597899 3.535534 -3.535534 
C 2.597899 -4.473168 1.326016 -5 0 -5 
C -1.326016 -5 -2.597899 -4.473168 -3.535534 -3.535534 
C -4.473168 -2.597899 -5 -1.326016 -5 0 
C -5 1.326016 -4.473168 2.597899 -3.535534 3.535534 
C -2.597899 4.473168 -1.326016 5 0 5 
z
"/>
     </defs>
     <g>
      <use xlink:href="#m7d1d16ffb4" x="217.107812" y="896.928562" style="fill: #cbd5e8; fill-opacity: 0.65"/>
     </g>
    </g>
    <g id="text_19">
     <!-- Igarap do Meio -->
     <g transform="translate(235.107812 900.428562) scale(0.1 -0.1)">
      <defs>
       <path id="DejaVuSans-49" d="M 628 4666 
L 1259 4666 
L 1259 0 
L 628 0 
L 628 4666 
z
" transform="scale(0.015625)"/>
       <path id="DejaVuSans-70" d="M 1159 525 
L 1159 -1331 
L 581 -1331 
L 581 3500 
L 1159 3500 
L 1159 2969 
Q 1341 3281 1617 3432 
Q 1894 3584 2278 3584 
Q 2916 3584 3314 3078 
Q 3713 2572 3713 1747 
Q 3713 922 3314 415 
Q 2916 -91 2278 -91 
Q 1894 -91 1617 61 
Q 1341 213 1159 525 
z
M 3116 1747 
Q 3116 2381 2855 2742 
Q 2594 3103 2138 3103 
Q 1681 3103 1420 2742 
Q 1159 2381 1159 1747 
Q 1159 1113 1420 752 
Q 1681 391 2138 391 
Q 2594 391 2855 752 
Q 3116 1113 3116 1747 
z
" transform="scale(0.015625)"/>
       <path id="DejaVuSans-e9" d="M 3597 1894 
L 3597 1613 
L 953 1613 
Q 991 1019 1311 708 
Q 1631 397 2203 397 
Q 2534 397 2845 478 
Q 3156 559 3463 722 
L 3463 178 
Q 3153 47 2828 -22 
Q 2503 -91 2169 -91 
Q 1331 -91 842 396 
Q 353 884 353 1716 
Q 353 2575 817 3079 
Q 1281 3584 2069 3584 
Q 2775 3584 3186 3129 
Q 3597 2675 3597 1894 
z
M 3022 2063 
Q 3016 2534 2758 2815 
Q 2500 3097 2075 3097 
Q 1594 3097 1305 2825 
Q 1016 2553 972 2059 
L 3022 2063 
z
M 2469 5119 
L 3091 5119 
L 2072 3944 
L 1594 3944 
L 2469 5119 
z
" transform="scale(0.015625)"/>
      </defs>
      <use xlink:href="#DejaVuSans-49"/>
      <use xlink:href="#DejaVuSans-67" transform="translate(29.492188 0)"/>
      <use xlink:href="#DejaVuSans-61" transform="translate(92.96875 0)"/>
      <use xlink:href="#DejaVuSans-72" transform="translate(154.248047 0)"/>
      <use xlink:href="#DejaVuSans-61" transform="translate(195.361328 0)"/>
      <use xlink:href="#DejaVuSans-70" transform="translate(256.640625 0)"/>
      <use xlink:href="#DejaVuSans-e9" transform="translate(320.117188 0)"/>
      <use xlink:href="#DejaVuSans-20" transform="translate(381.640625 0)"/>
      <use xlink:href="#DejaVuSans-64" transform="translate(413.427734 0)"/>
      <use xlink:href="#DejaVuSans-6f" transform="translate(476.904297 0)"/>
      <use xlink:href="#DejaVuSans-20" transform="translate(538.085938 0)"/>
      <use xlink:href="#DejaVuSans-4d" transform="translate(569.873047 0)"/>
      <use xlink:href="#DejaVuSans-65" transform="translate(656.152344 0)"/>
      <use xlink:href="#DejaVuSans-69" transform="translate(717.675781 0)"/>
      <use xlink:href="#DejaVuSans-6f" transform="translate(745.458984 0)"/>
     </g>
    </g>
    <g id="line2d_33">
     <defs>
      <path id="m33c4b95e4e" d="M 0 5 
C 1.326016 5 2.597899 4.473168 3.535534 3.535534 
C 4.473168 2.597899 5 1.326016 5 0 
C 5 -1.326016 4.473168 -2.597899 3.535534 -3.535534 
C 2.597899 -4.473168 1.326016 -5 0 -5 
C -1.326016 -5 -2.597899 -4.473168 -3.535534 -3.535534 
C -4.473168 -2.597899 -5 -1.326016 -5 0 
C -5 1.326016 -4.473168 2.597899 -3.535534 3.535534 
C -2.597899 4.473168 -1.326016 5 0 5 
z
"/>
     </defs>
     <g>
      <use xlink:href="#m33c4b95e4e" x="383.598438" y="881.850437" style="fill: #fff2ae; fill-opacity: 0.65"/>
     </g>
    </g>
    <g id="text_20">
     <!-- Pio XII -->
     <g transform="translate(401.598438 885.350437) scale(0.1 -0.1)">
      <defs>
       <path id="DejaVuSans-50" d="M 1259 4147 
L 1259 2394 
L 2053 2394 
Q 2494 2394 2734 2622 
Q 2975 2850 2975 3272 
Q 2975 3691 2734 3919 
Q 2494 4147 2053 4147 
L 1259 4147 
z
M 628 4666 
L 2053 4666 
Q 2838 4666 3239 4311 
Q 3641 3956 3641 3272 
Q 3641 2581 3239 2228 
Q 2838 1875 2053 1875 
L 1259 1875 
L 1259 0 
L 628 0 
L 628 4666 
z
" transform="scale(0.015625)"/>
       <path id="DejaVuSans-58" d="M 403 4666 
L 1081 4666 
L 2241 2931 
L 3406 4666 
L 4084 4666 
L 2584 2425 
L 4184 0 
L 3506 0 
L 2194 1984 
L 872 0 
L 191 0 
L 1856 2491 
L 403 4666 
z
" transform="scale(0.015625)"/>
      </defs>
      <use xlink:href="#DejaVuSans-50"/>
      <use xlink:href="#DejaVuSans-69" transform="translate(58.052734 0)"/>
      <use xlink:href="#DejaVuSans-6f" transform="translate(85.835938 0)"/>
      <use xlink:href="#DejaVuSans-20" transform="translate(147.017578 0)"/>
      <use xlink:href="#DejaVuSans-58" transform="translate(178.804688 0)"/>
      <use xlink:href="#DejaVuSans-49" transform="translate(247.310547 0)"/>
      <use xlink:href="#DejaVuSans-49" transform="translate(276.802734 0)"/>
     </g>
    </g>
    <g id="line2d_34">
     <defs>
      <path id="m9e7a6746ef" d="M 0 5 
C 1.326016 5 2.597899 4.473168 3.535534 3.535534 
C 4.473168 2.597899 5 1.326016 5 0 
C 5 -1.326016 4.473168 -2.597899 3.535534 -3.535534 
C 2.597899 -4.473168 1.326016 -5 0 -5 
C -1.326016 -5 -2.597899 -4.473168 -3.535534 -3.535534 
C -4.473168 -2.597899 -5 -1.326016 -5 0 
C -5 1.326016 -4.473168 2.597899 -3.535534 3.535534 
C -2.597899 4.473168 -1.326016 5 0 5 
z
"/>
     </defs>
     <g>
      <use xlink:href="#m9e7a6746ef" x="462.228125" y="881.850437" style="fill: #cccccc; fill-opacity: 0.65"/>
     </g>
    </g>
    <g id="text_21">
     <!-- Satubinha -->
     <g transform="translate(480.228125 885.350437) scale(0.1 -0.1)">
      <defs>
       <path id="DejaVuSans-53" d="M 3425 4513 
L 3425 3897 
Q 3066 4069 2747 4153 
Q 2428 4238 2131 4238 
Q 1616 4238 1336 4038 
Q 1056 3838 1056 3469 
Q 1056 3159 1242 3001 
Q 1428 2844 1947 2747 
L 2328 2669 
Q 3034 2534 3370 2195 
Q 3706 1856 3706 1288 
Q 3706 609 3251 259 
Q 2797 -91 1919 -91 
Q 1588 -91 1214 -16 
Q 841 59 441 206 
L 441 856 
Q 825 641 1194 531 
Q 1563 422 1919 422 
Q 2459 422 2753 634 
Q 3047 847 3047 1241 
Q 3047 1584 2836 1778 
Q 2625 1972 2144 2069 
L 1759 2144 
Q 1053 2284 737 2584 
Q 422 2884 422 3419 
Q 422 4038 858 4394 
Q 1294 4750 2059 4750 
Q 2388 4750 2728 4690 
Q 3069 4631 3425 4513 
z
" transform="scale(0.015625)"/>
       <path id="DejaVuSans-62" d="M 3116 1747 
Q 3116 2381 2855 2742 
Q 2594 3103 2138 3103 
Q 1681 3103 1420 2742 
Q 1159 2381 1159 1747 
Q 1159 1113 1420 752 
Q 1681 391 2138 391 
Q 2594 391 2855 752 
Q 3116 1113 3116 1747 
z
M 1159 2969 
Q 1341 3281 1617 3432 
Q 1894 3584 2278 3584 
Q 2916 3584 3314 3078 
Q 3713 2572 3713 1747 
Q 3713 922 3314 415 
Q 2916 -91 2278 -91 
Q 1894 -91 1617 61 
Q 1341 213 1159 525 
L 1159 0 
L 581 0 
L 581 4863 
L 1159 4863 
L 1159 2969 
z
" transform="scale(0.015625)"/>
      </defs>
      <use xlink:href="#DejaVuSans-53"/>
      <use xlink:href="#DejaVuSans-61" transform="translate(63.476562 0)"/>
      <use xlink:href="#DejaVuSans-74" transform="translate(124.755859 0)"/>
      <use xlink:href="#DejaVuSans-75" transform="translate(163.964844 0)"/>
      <use xlink:href="#DejaVuSans-62" transform="translate(227.34375 0)"/>
      <use xlink:href="#DejaVuSans-69" transform="translate(290.820312 0)"/>
      <use xlink:href="#DejaVuSans-6e" transform="translate(318.603516 0)"/>
      <use xlink:href="#DejaVuSans-68" transform="translate(381.982422 0)"/>
      <use xlink:href="#DejaVuSans-61" transform="translate(445.361328 0)"/>
     </g>
    </g>
   </g>
  </g>
 </g>
 <defs>
  <clipPath id="pca342baa84">
   <rect x="152.047902" y="103.68" width="433.904196" height="665.28"/>
  </clipPath>
 </defs>
</svg>
