<?xml version="1.0" encoding="utf-8" standalone="no"?>
<!DOCTYPE svg PUBLIC "-//W3C//DTD SVG 1.1//EN"
  "http://www.w3.org/Graphics/SVG/1.1/DTD/svg11.dtd">
<svg xmlns:xlink="http://www.w3.org/1999/xlink" width="720pt" height="864pt" viewBox="0 0 720 864" xmlns="http://www.w3.org/2000/svg" version="1.1">
 <metadata>
  <rdf:RDF xmlns:dc="http://purl.org/dc/elements/1.1/" xmlns:cc="http://creativecommons.org/ns#" xmlns:rdf="http://www.w3.org/1999/02/22-rdf-syntax-ns#">
   <cc:Work>
    <dc:type rdf:resource="http://purl.org/dc/dcmitype/StillImage"/>
    <dc:date>2025-06-16T17:40:33.706415</dc:date>
    <dc:format>image/svg+xml</dc:format>
    <dc:creator>
     <cc:Agent>
      <dc:title>Matplotlib v3.10.1, https://matplotlib.org/</dc:title>
     </cc:Agent>
    </dc:creator>
   </cc:Work>
  </rdf:RDF>
 </metadata>
 <defs>
  <style type="text/css">*{stroke-linejoin: round; stroke-linecap: butt}</style>
 </defs>
 <g id="figure_1">
  <g id="patch_1">
   <path d="M 0 864 
L 720 864 
L 720 0 
L 0 0 
z
" style="fill: #ffffff"/>
  </g>
  <g id="axes_1">
   <g id="patch_2">
    <path d="M 90 676.229733 
L 648 676.229733 
L 648 196.410267 
L 90 196.410267 
z
" style="fill: #ffffff"/>
   </g>
   <g id="PatchCollection_1">
    <path d="M 277.609742 601.696677 
L 272.441125 604.530962 
L 269.926159 608.808898 
L 268.147133 611.135225 
L 266.027284 612.461146 
L 263.94911 615.097046 
L 257.249951 618.806971 
L 253.660587 621.901913 
L 250.564818 622.395656 
L 242.853846 622.458835 
L 238.900058 626.580407 
L 234.104625 632.406253 
L 230.516515 631.971901 
L 225.95329 632.764709 
L 224.22876 632.993094 
L 223.453473 632.241743 
L 222.372685 628.22493 
L 221.027149 622.325987 
L 218.897583 619.793897 
L 216.06987 617.764819 
L 214.447128 614.809915 
L 216.359341 613.210809 
L 217.692292 611.722541 
L 214.169746 609.288576 
L 213.36461 607.388599 
L 216.812858 604.653773 
L 215.30276 601.482878 
L 216.54009 599.756087 
L 213.836003 597.476092 
L 215.117761 595.53166 
L 214.135225 593.096654 
L 211.160471 592.651844 
L 207.763838 593.16403 
L 204.631135 591.940476 
L 205.502783 588.617931 
L 210.410052 586.068063 
L 213.622484 583.78093 
L 217.834455 582.30089 
L 220.081278 579.995999 
L 236.686629 588.724223 
L 239.897089 590.327413 
L 241.726661 587.269731 
L 238.340694 585.307818 
L 233.942741 583.052895 
L 233.47841 582.830484 
L 227.627695 580.266335 
L 223.265197 577.874806 
L 227.148923 573.447435 
L 232.054669 572.484698 
L 233.702182 568.97461 
L 235.013527 565.585241 
L 234.996645 560.518523 
L 232.920078 557.740574 
L 232.177383 556.323916 
L 231.363759 552.99392 
L 289.985887 558.308852 
L 288.639077 560.286557 
L 288.60117 563.230419 
L 285.525607 566.810417 
L 284.975497 568.641658 
L 285.72228 570.589759 
L 282.890174 570.877668 
L 281.900932 574.157917 
L 282.320988 575.983626 
L 283.036737 579.063488 
L 283.570686 581.839495 
L 281.163775 583.810821 
L 285.23566 586.904645 
L 285.629901 591.568954 
L 283.151756 591.677388 
L 279.830047 591.884811 
L 278.416146 593.439502 
L 278.830506 595.106585 
L 279.711739 597.276145 
L 277.609742 601.696677 
" clip-path="url(#p77ecee7b21)" style="fill: #e0bd1f; stroke: #0000ff; stroke-width: 0.5"/>
    <path d="M 473.848583 591.612658 
L 478.727056 592.697538 
L 479.024173 593.109189 
L 479.553702 597.695316 
L 479.900381 599.814362 
L 482.924083 598.733207 
L 490.163361 597.906949 
L 494.534106 597.84563 
L 492.993127 601.026416 
L 492.064845 603.239656 
L 494.801951 605.823811 
L 494.491802 606.441236 
L 494.44015 607.480682 
L 494.595576 608.44891 
L 494.994497 609.325924 
L 495.426451 610.141871 
L 494.489304 610.94994 
L 493.271835 612.058268 
L 490.763644 611.970973 
L 489.731567 611.957397 
L 487.42984 612.31735 
L 485.676018 613.39144 
L 483.858073 613.806922 
L 481.411931 613.889439 
L 479.198405 614.009292 
L 479.534912 613.165099 
L 479.623044 612.208693 
L 474.016926 592.19912 
L 473.750379 591.647135 
L 473.848583 591.612658 
" clip-path="url(#p77ecee7b21)" style="fill: #e0bd1f; stroke: #0000ff; stroke-width: 0.5"/>
    <path d="M 367.939269 505.897268 
L 382.457601 515.972605 
L 383.581375 516.726819 
L 377.830802 519.676427 
L 377.573108 519.086636 
L 376.832524 519.437402 
L 369.890442 515.082073 
L 365.018332 512.33531 
L 367.939269 505.897268 
" clip-path="url(#p77ecee7b21)" style="fill: #e0bd1f; stroke: #0000ff; stroke-width: 0.5"/>
    <path d="M 358.72701 423.929613 
L 357.945477 443.75373 
L 357.29225 444.007487 
L 356.802601 444.028322 
L 355.470917 444.021119 
L 355.515397 443.091297 
L 356.027343 431.187133 
L 354.193926 425.793423 
L 358.72701 423.929613 
" clip-path="url(#p77ecee7b21)" style="fill: #e0bd1f; stroke: #0000ff; stroke-width: 0.5"/>
    <path d="M 280.05755 367.270376 
L 280.206241 377.552769 
L 280.208317 378.049621 
L 273.566783 378.163131 
L 235.005626 378.781611 
L 234.239744 378.902294 
L 236.221008 379.905823 
L 236.720548 381.561032 
L 236.728067 383.420452 
L 234.64723 383.820807 
L 234.991764 384.797534 
L 234.648518 386.528939 
L 233.998575 388.228247 
L 232.756198 389.530605 
L 211.997537 389.801328 
L 212.647205 387.504286 
L 212.929253 386.460927 
L 214.004126 377.188954 
L 209.691593 372.267509 
L 209.617195 368.366069 
L 241.891133 367.850875 
L 242.871238 367.824882 
L 280.05755 367.270376 
" clip-path="url(#p77ecee7b21)" style="fill: #e0bd1f; stroke: #0000ff; stroke-width: 0.5"/>
    <path d="M 575.466915 436.857204 
L 575.470341 436.292885 
L 577.340897 437.932492 
L 577.972511 438.488371 
L 591.665071 448.250496 
L 596.654405 451.335348 
L 600.230668 446.614062 
L 602.711609 443.46609 
L 603.330254 442.520873 
L 606.64647 437.936283 
L 607.460488 438.312387 
L 608.054864 438.623907 
L 610.060567 438.219567 
L 613.437833 437.203694 
L 615.955073 443.137088 
L 617.016431 444.443135 
L 618.951993 449.4341 
L 621.911757 456.909813 
L 622.636364 458.785577 
L 620.644169 461.249752 
L 619.444773 462.285875 
L 618.214396 463.348757 
L 616.367095 464.670462 
L 612.857579 467.181419 
L 611.247071 468.466803 
L 610.322948 469.345771 
L 609.449686 469.652588 
L 608.785438 470.896582 
L 604.531182 474.739446 
L 603.473158 475.1965 
L 602.131543 476.908308 
L 600.697133 478.207097 
L 585.808876 491.687188 
L 584.96733 492.334411 
L 583.975875 492.926512 
L 583.146747 493.316037 
L 581.874289 493.736319 
L 572.645245 493.901293 
L 565.204643 494.02241 
L 563.883201 493.211671 
L 560.749831 487.979671 
L 557.95613 485.230673 
L 555.715824 486.422994 
L 554.932909 486.724202 
L 549.631496 490.152912 
L 548.003832 491.49669 
L 542.359179 494.866951 
L 541.162442 489.69679 
L 540.969882 488.803468 
L 541.390788 488.492052 
L 541.971596 488.439724 
L 543.222955 487.330937 
L 543.511708 487.229959 
L 543.575112 485.355205 
L 543.828016 485.189051 
L 544.498224 483.561634 
L 544.910628 482.187854 
L 545.129255 481.785485 
L 545.136752 480.146399 
L 545.270972 479.718124 
L 545.616515 479.514695 
L 546.865654 478.55136 
L 547.011433 477.735899 
L 546.675475 477.430019 
L 546.671288 477.002945 
L 546.150744 476.725674 
L 546.691727 475.959402 
L 547.56513 475.303052 
L 547.929635 475.351219 
L 548.524901 474.64338 
L 549.127085 474.111874 
L 549.813747 473.536968 
L 550.329114 473.20708 
L 551.587109 472.156337 
L 551.957895 472.010953 
L 552.92798 470.695075 
L 552.944804 470.105425 
L 553.763536 469.853485 
L 554.472975 469.616478 
L 555.965316 469.466952 
L 556.796495 468.740884 
L 557.320469 467.739544 
L 558.109494 467.75671 
L 559.800133 467.532453 
L 560.435512 466.849045 
L 560.252441 466.424339 
L 560.092827 466.268022 
L 560.88578 465.701549 
L 561.205532 465.198293 
L 561.91439 465.277898 
L 561.700269 464.509809 
L 562.675715 463.679879 
L 563.751953 464.064569 
L 564.270077 464.043178 
L 565.290719 463.424338 
L 566.092295 463.88667 
L 566.602015 464.202612 
L 567.16398 464.822841 
L 568.043079 464.396201 
L 569.08878 464.173222 
L 569.508476 463.664167 
L 570.054525 463.329505 
L 570.755336 463.00416 
L 571.047608 462.353942 
L 571.259399 462.220654 
L 572.061664 461.906374 
L 572.683057 462.185012 
L 573.726709 461.77667 
L 573.663887 461.1796 
L 574.500029 460.322148 
L 574.762133 460.615473 
L 575.171896 460.380814 
L 575.895756 460.680104 
L 576.114252 460.67077 
L 576.636622 460.911854 
L 576.839141 460.792626 
L 577.083715 461.050804 
L 577.299401 460.914035 
L 577.419374 460.90785 
L 577.598221 460.656078 
L 578.216901 459.809043 
L 578.610424 459.152186 
L 579.237958 458.56752 
L 579.458007 458.114637 
L 579.352733 457.796438 
L 579.002497 458.018494 
L 578.53122 458.09638 
L 577.302873 457.757087 
L 577.391881 457.564341 
L 576.937665 457.355187 
L 576.723242 457.157084 
L 576.346836 456.717968 
L 576.304079 456.161698 
L 576.521236 455.314493 
L 576.513606 455.013346 
L 576.838652 454.800315 
L 577.415892 454.534895 
L 578.098901 454.834323 
L 578.294426 454.372601 
L 577.95445 454.188748 
L 578.10631 453.843595 
L 577.88067 453.480287 
L 577.594745 453.241248 
L 577.538833 452.335803 
L 577.018594 451.874824 
L 576.449833 451.440219 
L 576.167484 450.914165 
L 576.268593 449.994962 
L 575.710087 449.831957 
L 575.435881 449.440933 
L 574.828255 449.799993 
L 574.172947 449.835387 
L 573.864034 449.447763 
L 573.374172 449.244187 
L 573.14187 448.981895 
L 572.912258 449.030539 
L 572.49166 449.150158 
L 572.217195 449.167799 
L 572.018882 449.047572 
L 571.827227 449.188584 
L 571.384384 448.997685 
L 571.004461 449.035054 
L 570.665456 448.93301 
L 570.115673 449.388429 
L 569.669128 449.338074 
L 569.162854 449.426854 
L 569.073817 449.623648 
L 568.640718 449.544265 
L 568.22033 449.571143 
L 567.920206 449.620166 
L 567.576011 449.231574 
L 567.597587 448.729495 
L 567.128711 448.611699 
L 567.182496 448.45472 
L 566.92991 448.246511 
L 566.935332 448.072244 
L 566.674656 447.615702 
L 566.730418 447.348211 
L 566.537697 447.126132 
L 566.751334 446.241342 
L 567.135422 446.112435 
L 567.456199 445.784286 
L 567.768574 445.419873 
L 567.953083 444.861111 
L 567.705479 443.955952 
L 570.544478 444.953215 
L 570.915011 444.460544 
L 571.252866 443.926954 
L 571.81835 444.253795 
L 572.478966 444.386411 
L 572.960579 443.371001 
L 572.386797 442.332368 
L 572.46094 441.954077 
L 572.829935 441.941622 
L 572.947431 441.141984 
L 573.234509 440.618857 
L 573.178136 440.03257 
L 573.599512 439.72036 
L 573.962758 439.136335 
L 573.804328 439.017615 
L 573.743127 438.930531 
L 574.145163 438.612772 
L 574.478488 438.591174 
L 574.761053 438.569263 
L 575.463007 438.733802 
L 575.63797 438.421615 
L 575.924976 437.954734 
L 576.062193 437.540306 
L 575.995393 437.14959 
L 575.466915 436.857204 
" clip-path="url(#p77ecee7b21)" style="fill: #e0bd1f; stroke: #0000ff; stroke-width: 0.5"/>
   </g>
   <g id="PatchCollection_2">
    <path d="M 281.559506 218.220243 
L 410.069981 259.514643 
L 423.220565 263.906186 
L 436.777048 269.626268 
L 479.265894 284.124033 
L 509.835413 295.266104 
L 532.417798 302.257298 
L 548.458904 308.007846 
L 569.661401 315.359308 
L 584.646204 320.100705 
L 581.731418 340.404531 
L 582.109803 344.188145 
L 580.110872 348.616266 
L 578.594793 352.903186 
L 582.652071 357.684874 
L 585.787606 359.067644 
L 587.447288 360.897736 
L 588.039391 362.943545 
L 586.249408 367.203394 
L 585.053733 369.720622 
L 583.882072 371.396546 
L 581.333484 374.541229 
L 582.70265 377.836373 
L 582.631406 381.28866 
L 581.553129 383.751398 
L 578.18171 386.298272 
L 576.752756 390.392465 
L 577.193507 394.041923 
L 573.956097 396.323061 
L 575.706585 401.344535 
L 574.163184 405.294192 
L 573.612796 408.051205 
L 577.336367 411.25777 
L 577.340433 413.744604 
L 576.769367 414.914272 
L 573.565911 415.457592 
L 573.834647 418.079329 
L 573.342944 421.152112 
L 574.494312 423.535171 
L 574.364742 427.383641 
L 575.808474 430.582053 
L 578.216408 433.574036 
L 575.391337 437.453273 
L 572.073447 440.718409 
L 570.430018 443.970191 
L 568.835306 443.561026 
L 565.291871 446.775756 
L 567.729051 449.91775 
L 574.195304 450.399637 
L 576.852784 452.275694 
L 575.989726 455.972583 
L 578.426086 458.909716 
L 574.479548 459.865909 
L 570.394947 462.78451 
L 562.935247 462.895316 
L 557.346368 466.191207 
L 556.041801 468.217363 
L 554.782644 468.855199 
L 549.006254 473.313339 
L 547.709435 475.014466 
L 545.876261 476.015863 
L 544.617834 478.771022 
L 543.589405 480.75012 
L 542.576099 485.939478 
L 540.496329 488.671288 
L 539.683093 489.40919 
L 541.181068 493.994641 
L 542.936434 497.393689 
L 543.343182 498.719052 
L 542.153048 499.396914 
L 542.444309 501.974916 
L 542.297755 505.549511 
L 545.805017 507.921456 
L 549.238072 506.99751 
L 556.571524 506.517926 
L 560.150402 508.305404 
L 563.340928 510.517242 
L 563.303651 514.228595 
L 557.489228 517.943269 
L 555.566351 521.950751 
L 555.018528 524.803748 
L 557.178033 530.874811 
L 552.529383 530.427474 
L 549.669242 528.512125 
L 547.529299 538.351978 
L 549.197832 540.013826 
L 549.829816 541.718289 
L 549.917671 545.15686 
L 547.067497 546.566314 
L 543.196255 548.090284 
L 541.696788 550.08642 
L 541.183305 552.808223 
L 541.207664 554.440785 
L 541.852937 556.254586 
L 539.243072 556.052973 
L 536.5531 552.8338 
L 532.935099 553.969739 
L 529.730617 559.710845 
L 522.302667 561.533428 
L 519.944212 564.996619 
L 526.218853 573.88404 
L 524.289704 582.272558 
L 517.702656 586.595062 
L 518.51552 589.110422 
L 517.286263 592.71912 
L 509.636074 596.377464 
L 509.417904 600.364546 
L 505.632312 602.150916 
L 501.414447 600.778527 
L 497.916793 602.453716 
L 495.367102 604.975014 
L 493.451974 611.691317 
L 486.691793 611.465234 
L 482.133577 613.585906 
L 478.126134 613.616659 
L 448.908577 607.308787 
L 441.242521 607.667544 
L 408.821163 602.447419 
L 402.013739 602.683122 
L 385.55572 608.309076 
L 383.705563 609.564348 
L 378.522751 613.273098 
L 367.178288 619.365733 
L 363.404905 624.194497 
L 359.609466 630.604628 
L 351.10973 638.325539 
L 340.336587 646.001451 
L 330.301132 649.843691 
L 320.787891 652.769543 
L 310.066987 654.419757 
L 280.916374 650.7555 
L 272.813762 651.168456 
L 268.316241 650.733805 
L 239.776966 644.28698 
L 233.155592 645.431072 
L 228.925913 645.451085 
L 217.345908 644.158872 
L 203.351833 641.485124 
L 190.289234 640.38773 
L 177.817262 640.780217 
L 167.656147 637.588476 
L 156.975263 630.460793 
L 150.624471 628.215225 
L 141.431625 626.157569 
L 126.045624 618.730047 
L 117.254778 611.586808 
L 115.363636 608.061872 
L 118.818113 606.75063 
L 121.915986 606.765453 
L 123.828896 608.133773 
L 125.610029 607.316192 
L 128.200332 609.359025 
L 132.29268 610.183651 
L 135.19528 609.126658 
L 136.984892 607.690146 
L 139.877153 608.657454 
L 143.060675 607.859511 
L 149.030876 606.987454 
L 151.244269 606.098345 
L 152.975567 608.483258 
L 162.934393 610.863355 
L 169.505188 610.624317 
L 171.084032 608.532557 
L 175.938307 607.660873 
L 175.22991 605.911554 
L 175.629704 602.175746 
L 178.68844 600.318222 
L 184.365174 599.574769 
L 204.734288 592.134279 
L 205.736883 588.572666 
L 210.933728 586.917489 
L 217.63521 582.667647 
L 226.050994 575.255696 
L 231.011954 573.644255 
L 233.679029 571.1767 
L 234.452026 567.248911 
L 236.332456 563.299628 
L 236.17668 559.706874 
L 232.409174 556.184166 
L 231.747661 550.375505 
L 234.090996 548.572083 
L 231.739542 540.510075 
L 233.02343 537.376892 
L 232.281823 535.634631 
L 233.367104 532.441035 
L 232.90198 529.531321 
L 230.623988 527.643403 
L 230.787884 520.363393 
L 229.948442 516.835135 
L 230.817041 513.739004 
L 229.553172 512.239782 
L 230.120269 509.247536 
L 226.81305 505.492505 
L 225.512013 505.797843 
L 223.516947 504.75903 
L 214.651771 495.595502 
L 212.232754 490.760446 
L 211.418786 486.022867 
L 206.177276 480.53886 
L 204.716932 475.890967 
L 207.791921 467.959045 
L 206.736169 464.697631 
L 207.992735 461.207531 
L 207.740611 457.605145 
L 209.192463 454.278127 
L 211.791989 451.226478 
L 213.083997 447.783824 
L 215.693503 445.496015 
L 214.23094 441.979979 
L 221.974513 437.928414 
L 223.754915 433.356118 
L 222.997786 430.334116 
L 223.631245 421.381517 
L 219.963781 416.956359 
L 220.08781 413.217588 
L 224.011092 408.268016 
L 222.42672 402.174351 
L 226.217481 403.255801 
L 227.348916 401.227431 
L 227.12583 392.170106 
L 232.706391 392.110039 
L 233.344867 389.523895 
L 237.154543 382.118463 
L 233.64655 373.235177 
L 236.453163 365.202068 
L 238.892486 361.677893 
L 239.993276 357.103009 
L 249.024803 354.475334 
L 246.312319 350.37818 
L 247.853142 346.497088 
L 252.916351 345.703229 
L 255.937438 339.669605 
L 255.566442 336.944839 
L 260.552134 332.956637 
L 260.084432 324.197873 
L 263.597222 321.537964 
L 261.21992 318.837655 
L 265.341438 308.612734 
L 264.999611 305.760097 
L 271.001919 299.526714 
L 272.946217 289.578269 
L 271.092365 285.220929 
L 270.544556 279.006451 
L 274.090941 277.496557 
L 274.704825 273.035081 
L 277.325029 270.683523 
L 275.38295 264.592821 
L 277.793847 262.818686 
L 277.394053 244.647753 
L 278.821546 235.333808 
L 278.909029 230.741139 
L 282.084059 223.866584 
L 281.559506 218.220243 
L 281.559506 218.220243 
" clip-path="url(#p77ecee7b21)" style="fill: none; stroke: #000000"/>
   </g>
   <g id="matplotlib.axis_1">
    <g id="xtick_1">
     <g id="line2d_1">
      <path d="M 141.67822 676.229733 
L 141.67822 196.410267 
" clip-path="url(#p77ecee7b21)" style="fill: none; stroke: #b0b0b0; stroke-width: 0.8; stroke-linecap: square"/>
     </g>
     <g id="line2d_2">
      <defs>
       <path id="mf39552dcbe" d="M 0 0 
L 0 3.5 
" style="stroke: #000000; stroke-width: 0.8"/>
      </defs>
      <g>
       <use xlink:href="#mf39552dcbe" x="141.67822" y="676.229733" style="stroke: #000000; stroke-width: 0.8"/>
      </g>
     </g>
     <g id="text_1">
      <!-- −48.20 -->
      <g transform="translate(130.545155 714.771115) rotate(-45) scale(0.1 -0.1)">
       <defs>
        <path id="DejaVuSans-2212" d="M 678 2272 
L 4684 2272 
L 4684 1741 
L 678 1741 
L 678 2272 
z
" transform="scale(0.015625)"/>
        <path id="DejaVuSans-34" d="M 2419 4116 
L 825 1625 
L 2419 1625 
L 2419 4116 
z
M 2253 4666 
L 3047 4666 
L 3047 1625 
L 3713 1625 
L 3713 1100 
L 3047 1100 
L 3047 0 
L 2419 0 
L 2419 1100 
L 313 1100 
L 313 1709 
L 2253 4666 
z
" transform="scale(0.015625)"/>
        <path id="DejaVuSans-38" d="M 2034 2216 
Q 1584 2216 1326 1975 
Q 1069 1734 1069 1313 
Q 1069 891 1326 650 
Q 1584 409 2034 409 
Q 2484 409 2743 651 
Q 3003 894 3003 1313 
Q 3003 1734 2745 1975 
Q 2488 2216 2034 2216 
z
M 1403 2484 
Q 997 2584 770 2862 
Q 544 3141 544 3541 
Q 544 4100 942 4425 
Q 1341 4750 2034 4750 
Q 2731 4750 3128 4425 
Q 3525 4100 3525 3541 
Q 3525 3141 3298 2862 
Q 3072 2584 2669 2484 
Q 3125 2378 3379 2068 
Q 3634 1759 3634 1313 
Q 3634 634 3220 271 
Q 2806 -91 2034 -91 
Q 1263 -91 848 271 
Q 434 634 434 1313 
Q 434 1759 690 2068 
Q 947 2378 1403 2484 
z
M 1172 3481 
Q 1172 3119 1398 2916 
Q 1625 2713 2034 2713 
Q 2441 2713 2670 2916 
Q 2900 3119 2900 3481 
Q 2900 3844 2670 4047 
Q 2441 4250 2034 4250 
Q 1625 4250 1398 4047 
Q 1172 3844 1172 3481 
z
" transform="scale(0.015625)"/>
        <path id="DejaVuSans-2e" d="M 684 794 
L 1344 794 
L 1344 0 
L 684 0 
L 684 794 
z
" transform="scale(0.015625)"/>
        <path id="DejaVuSans-32" d="M 1228 531 
L 3431 531 
L 3431 0 
L 469 0 
L 469 531 
Q 828 903 1448 1529 
Q 2069 2156 2228 2338 
Q 2531 2678 2651 2914 
Q 2772 3150 2772 3378 
Q 2772 3750 2511 3984 
Q 2250 4219 1831 4219 
Q 1534 4219 1204 4116 
Q 875 4013 500 3803 
L 500 4441 
Q 881 4594 1212 4672 
Q 1544 4750 1819 4750 
Q 2544 4750 2975 4387 
Q 3406 4025 3406 3419 
Q 3406 3131 3298 2873 
Q 3191 2616 2906 2266 
Q 2828 2175 2409 1742 
Q 1991 1309 1228 531 
z
" transform="scale(0.015625)"/>
        <path id="DejaVuSans-30" d="M 2034 4250 
Q 1547 4250 1301 3770 
Q 1056 3291 1056 2328 
Q 1056 1369 1301 889 
Q 1547 409 2034 409 
Q 2525 409 2770 889 
Q 3016 1369 3016 2328 
Q 3016 3291 2770 3770 
Q 2525 4250 2034 4250 
z
M 2034 4750 
Q 2819 4750 3233 4129 
Q 3647 3509 3647 2328 
Q 3647 1150 3233 529 
Q 2819 -91 2034 -91 
Q 1250 -91 836 529 
Q 422 1150 422 2328 
Q 422 3509 836 4129 
Q 1250 4750 2034 4750 
z
" transform="scale(0.015625)"/>
       </defs>
       <use xlink:href="#DejaVuSans-2212"/>
       <use xlink:href="#DejaVuSans-34" transform="translate(83.789062 0)"/>
       <use xlink:href="#DejaVuSans-38" transform="translate(147.412109 0)"/>
       <use xlink:href="#DejaVuSans-2e" transform="translate(211.035156 0)"/>
       <use xlink:href="#DejaVuSans-32" transform="translate(242.822266 0)"/>
       <use xlink:href="#DejaVuSans-30" transform="translate(306.445312 0)"/>
      </g>
     </g>
    </g>
    <g id="xtick_2">
     <g id="line2d_3">
      <path d="M 208.124525 676.229733 
L 208.124525 196.410267 
" clip-path="url(#p77ecee7b21)" style="fill: none; stroke: #b0b0b0; stroke-width: 0.8; stroke-linecap: square"/>
     </g>
     <g id="line2d_4">
      <g>
       <use xlink:href="#mf39552dcbe" x="208.124525" y="676.229733" style="stroke: #000000; stroke-width: 0.8"/>
      </g>
     </g>
     <g id="text_2">
      <!-- −48.15 -->
      <g transform="translate(196.99146 714.771115) rotate(-45) scale(0.1 -0.1)">
       <defs>
        <path id="DejaVuSans-31" d="M 794 531 
L 1825 531 
L 1825 4091 
L 703 3866 
L 703 4441 
L 1819 4666 
L 2450 4666 
L 2450 531 
L 3481 531 
L 3481 0 
L 794 0 
L 794 531 
z
" transform="scale(0.015625)"/>
        <path id="DejaVuSans-35" d="M 691 4666 
L 3169 4666 
L 3169 4134 
L 1269 4134 
L 1269 2991 
Q 1406 3038 1543 3061 
Q 1681 3084 1819 3084 
Q 2600 3084 3056 2656 
Q 3513 2228 3513 1497 
Q 3513 744 3044 326 
Q 2575 -91 1722 -91 
Q 1428 -91 1123 -41 
Q 819 9 494 109 
L 494 744 
Q 775 591 1075 516 
Q 1375 441 1709 441 
Q 2250 441 2565 725 
Q 2881 1009 2881 1497 
Q 2881 1984 2565 2268 
Q 2250 2553 1709 2553 
Q 1456 2553 1204 2497 
Q 953 2441 691 2322 
L 691 4666 
z
" transform="scale(0.015625)"/>
       </defs>
       <use xlink:href="#DejaVuSans-2212"/>
       <use xlink:href="#DejaVuSans-34" transform="translate(83.789062 0)"/>
       <use xlink:href="#DejaVuSans-38" transform="translate(147.412109 0)"/>
       <use xlink:href="#DejaVuSans-2e" transform="translate(211.035156 0)"/>
       <use xlink:href="#DejaVuSans-31" transform="translate(242.822266 0)"/>
       <use xlink:href="#DejaVuSans-35" transform="translate(306.445312 0)"/>
      </g>
     </g>
    </g>
    <g id="xtick_3">
     <g id="line2d_5">
      <path d="M 274.570829 676.229733 
L 274.570829 196.410267 
" clip-path="url(#p77ecee7b21)" style="fill: none; stroke: #b0b0b0; stroke-width: 0.8; stroke-linecap: square"/>
     </g>
     <g id="line2d_6">
      <g>
       <use xlink:href="#mf39552dcbe" x="274.570829" y="676.229733" style="stroke: #000000; stroke-width: 0.8"/>
      </g>
     </g>
     <g id="text_3">
      <!-- −48.10 -->
      <g transform="translate(263.437765 714.771115) rotate(-45) scale(0.1 -0.1)">
       <use xlink:href="#DejaVuSans-2212"/>
       <use xlink:href="#DejaVuSans-34" transform="translate(83.789062 0)"/>
       <use xlink:href="#DejaVuSans-38" transform="translate(147.412109 0)"/>
       <use xlink:href="#DejaVuSans-2e" transform="translate(211.035156 0)"/>
       <use xlink:href="#DejaVuSans-31" transform="translate(242.822266 0)"/>
       <use xlink:href="#DejaVuSans-30" transform="translate(306.445312 0)"/>
      </g>
     </g>
    </g>
    <g id="xtick_4">
     <g id="line2d_7">
      <path d="M 341.017134 676.229733 
L 341.017134 196.410267 
" clip-path="url(#p77ecee7b21)" style="fill: none; stroke: #b0b0b0; stroke-width: 0.8; stroke-linecap: square"/>
     </g>
     <g id="line2d_8">
      <g>
       <use xlink:href="#mf39552dcbe" x="341.017134" y="676.229733" style="stroke: #000000; stroke-width: 0.8"/>
      </g>
     </g>
     <g id="text_4">
      <!-- −48.05 -->
      <g transform="translate(329.884069 714.771115) rotate(-45) scale(0.1 -0.1)">
       <use xlink:href="#DejaVuSans-2212"/>
       <use xlink:href="#DejaVuSans-34" transform="translate(83.789062 0)"/>
       <use xlink:href="#DejaVuSans-38" transform="translate(147.412109 0)"/>
       <use xlink:href="#DejaVuSans-2e" transform="translate(211.035156 0)"/>
       <use xlink:href="#DejaVuSans-30" transform="translate(242.822266 0)"/>
       <use xlink:href="#DejaVuSans-35" transform="translate(306.445312 0)"/>
      </g>
     </g>
    </g>
    <g id="xtick_5">
     <g id="line2d_9">
      <path d="M 407.463439 676.229733 
L 407.463439 196.410267 
" clip-path="url(#p77ecee7b21)" style="fill: none; stroke: #b0b0b0; stroke-width: 0.8; stroke-linecap: square"/>
     </g>
     <g id="line2d_10">
      <g>
       <use xlink:href="#mf39552dcbe" x="407.463439" y="676.229733" style="stroke: #000000; stroke-width: 0.8"/>
      </g>
     </g>
     <g id="text_5">
      <!-- −48.00 -->
      <g transform="translate(396.330374 714.771115) rotate(-45) scale(0.1 -0.1)">
       <use xlink:href="#DejaVuSans-2212"/>
       <use xlink:href="#DejaVuSans-34" transform="translate(83.789062 0)"/>
       <use xlink:href="#DejaVuSans-38" transform="translate(147.412109 0)"/>
       <use xlink:href="#DejaVuSans-2e" transform="translate(211.035156 0)"/>
       <use xlink:href="#DejaVuSans-30" transform="translate(242.822266 0)"/>
       <use xlink:href="#DejaVuSans-30" transform="translate(306.445312 0)"/>
      </g>
     </g>
    </g>
    <g id="xtick_6">
     <g id="line2d_11">
      <path d="M 473.909743 676.229733 
L 473.909743 196.410267 
" clip-path="url(#p77ecee7b21)" style="fill: none; stroke: #b0b0b0; stroke-width: 0.8; stroke-linecap: square"/>
     </g>
     <g id="line2d_12">
      <g>
       <use xlink:href="#mf39552dcbe" x="473.909743" y="676.229733" style="stroke: #000000; stroke-width: 0.8"/>
      </g>
     </g>
     <g id="text_6">
      <!-- −47.95 -->
      <g transform="translate(462.776679 714.771115) rotate(-45) scale(0.1 -0.1)">
       <defs>
        <path id="DejaVuSans-37" d="M 525 4666 
L 3525 4666 
L 3525 4397 
L 1831 0 
L 1172 0 
L 2766 4134 
L 525 4134 
L 525 4666 
z
" transform="scale(0.015625)"/>
        <path id="DejaVuSans-39" d="M 703 97 
L 703 672 
Q 941 559 1184 500 
Q 1428 441 1663 441 
Q 2288 441 2617 861 
Q 2947 1281 2994 2138 
Q 2813 1869 2534 1725 
Q 2256 1581 1919 1581 
Q 1219 1581 811 2004 
Q 403 2428 403 3163 
Q 403 3881 828 4315 
Q 1253 4750 1959 4750 
Q 2769 4750 3195 4129 
Q 3622 3509 3622 2328 
Q 3622 1225 3098 567 
Q 2575 -91 1691 -91 
Q 1453 -91 1209 -44 
Q 966 3 703 97 
z
M 1959 2075 
Q 2384 2075 2632 2365 
Q 2881 2656 2881 3163 
Q 2881 3666 2632 3958 
Q 2384 4250 1959 4250 
Q 1534 4250 1286 3958 
Q 1038 3666 1038 3163 
Q 1038 2656 1286 2365 
Q 1534 2075 1959 2075 
z
" transform="scale(0.015625)"/>
       </defs>
       <use xlink:href="#DejaVuSans-2212"/>
       <use xlink:href="#DejaVuSans-34" transform="translate(83.789062 0)"/>
       <use xlink:href="#DejaVuSans-37" transform="translate(147.412109 0)"/>
       <use xlink:href="#DejaVuSans-2e" transform="translate(211.035156 0)"/>
       <use xlink:href="#DejaVuSans-39" transform="translate(242.822266 0)"/>
       <use xlink:href="#DejaVuSans-35" transform="translate(306.445312 0)"/>
      </g>
     </g>
    </g>
    <g id="xtick_7">
     <g id="line2d_13">
      <path d="M 540.356048 676.229733 
L 540.356048 196.410267 
" clip-path="url(#p77ecee7b21)" style="fill: none; stroke: #b0b0b0; stroke-width: 0.8; stroke-linecap: square"/>
     </g>
     <g id="line2d_14">
      <g>
       <use xlink:href="#mf39552dcbe" x="540.356048" y="676.229733" style="stroke: #000000; stroke-width: 0.8"/>
      </g>
     </g>
     <g id="text_7">
      <!-- −47.90 -->
      <g transform="translate(529.222983 714.771115) rotate(-45) scale(0.1 -0.1)">
       <use xlink:href="#DejaVuSans-2212"/>
       <use xlink:href="#DejaVuSans-34" transform="translate(83.789062 0)"/>
       <use xlink:href="#DejaVuSans-37" transform="translate(147.412109 0)"/>
       <use xlink:href="#DejaVuSans-2e" transform="translate(211.035156 0)"/>
       <use xlink:href="#DejaVuSans-39" transform="translate(242.822266 0)"/>
       <use xlink:href="#DejaVuSans-30" transform="translate(306.445312 0)"/>
      </g>
     </g>
    </g>
    <g id="xtick_8">
     <g id="line2d_15">
      <path d="M 606.802353 676.229733 
L 606.802353 196.410267 
" clip-path="url(#p77ecee7b21)" style="fill: none; stroke: #b0b0b0; stroke-width: 0.8; stroke-linecap: square"/>
     </g>
     <g id="line2d_16">
      <g>
       <use xlink:href="#mf39552dcbe" x="606.802353" y="676.229733" style="stroke: #000000; stroke-width: 0.8"/>
      </g>
     </g>
     <g id="text_8">
      <!-- −47.85 -->
      <g transform="translate(595.669288 714.771115) rotate(-45) scale(0.1 -0.1)">
       <use xlink:href="#DejaVuSans-2212"/>
       <use xlink:href="#DejaVuSans-34" transform="translate(83.789062 0)"/>
       <use xlink:href="#DejaVuSans-37" transform="translate(147.412109 0)"/>
       <use xlink:href="#DejaVuSans-2e" transform="translate(211.035156 0)"/>
       <use xlink:href="#DejaVuSans-38" transform="translate(242.822266 0)"/>
       <use xlink:href="#DejaVuSans-35" transform="translate(306.445312 0)"/>
      </g>
     </g>
    </g>
    <g id="text_9">
     <!-- Longitude (°) -->
     <g transform="translate(336.139844 727.840113) scale(0.1 -0.1)">
      <defs>
       <path id="DejaVuSans-4c" d="M 628 4666 
L 1259 4666 
L 1259 531 
L 3531 531 
L 3531 0 
L 628 0 
L 628 4666 
z
" transform="scale(0.015625)"/>
       <path id="DejaVuSans-6f" d="M 1959 3097 
Q 1497 3097 1228 2736 
Q 959 2375 959 1747 
Q 959 1119 1226 758 
Q 1494 397 1959 397 
Q 2419 397 2687 759 
Q 2956 1122 2956 1747 
Q 2956 2369 2687 2733 
Q 2419 3097 1959 3097 
z
M 1959 3584 
Q 2709 3584 3137 3096 
Q 3566 2609 3566 1747 
Q 3566 888 3137 398 
Q 2709 -91 1959 -91 
Q 1206 -91 779 398 
Q 353 888 353 1747 
Q 353 2609 779 3096 
Q 1206 3584 1959 3584 
z
" transform="scale(0.015625)"/>
       <path id="DejaVuSans-6e" d="M 3513 2113 
L 3513 0 
L 2938 0 
L 2938 2094 
Q 2938 2591 2744 2837 
Q 2550 3084 2163 3084 
Q 1697 3084 1428 2787 
Q 1159 2491 1159 1978 
L 1159 0 
L 581 0 
L 581 3500 
L 1159 3500 
L 1159 2956 
Q 1366 3272 1645 3428 
Q 1925 3584 2291 3584 
Q 2894 3584 3203 3211 
Q 3513 2838 3513 2113 
z
" transform="scale(0.015625)"/>
       <path id="DejaVuSans-67" d="M 2906 1791 
Q 2906 2416 2648 2759 
Q 2391 3103 1925 3103 
Q 1463 3103 1205 2759 
Q 947 2416 947 1791 
Q 947 1169 1205 825 
Q 1463 481 1925 481 
Q 2391 481 2648 825 
Q 2906 1169 2906 1791 
z
M 3481 434 
Q 3481 -459 3084 -895 
Q 2688 -1331 1869 -1331 
Q 1566 -1331 1297 -1286 
Q 1028 -1241 775 -1147 
L 775 -588 
Q 1028 -725 1275 -790 
Q 1522 -856 1778 -856 
Q 2344 -856 2625 -561 
Q 2906 -266 2906 331 
L 2906 616 
Q 2728 306 2450 153 
Q 2172 0 1784 0 
Q 1141 0 747 490 
Q 353 981 353 1791 
Q 353 2603 747 3093 
Q 1141 3584 1784 3584 
Q 2172 3584 2450 3431 
Q 2728 3278 2906 2969 
L 2906 3500 
L 3481 3500 
L 3481 434 
z
" transform="scale(0.015625)"/>
       <path id="DejaVuSans-69" d="M 603 3500 
L 1178 3500 
L 1178 0 
L 603 0 
L 603 3500 
z
M 603 4863 
L 1178 4863 
L 1178 4134 
L 603 4134 
L 603 4863 
z
" transform="scale(0.015625)"/>
       <path id="DejaVuSans-74" d="M 1172 4494 
L 1172 3500 
L 2356 3500 
L 2356 3053 
L 1172 3053 
L 1172 1153 
Q 1172 725 1289 603 
Q 1406 481 1766 481 
L 2356 481 
L 2356 0 
L 1766 0 
Q 1100 0 847 248 
Q 594 497 594 1153 
L 594 3053 
L 172 3053 
L 172 3500 
L 594 3500 
L 594 4494 
L 1172 4494 
z
" transform="scale(0.015625)"/>
       <path id="DejaVuSans-75" d="M 544 1381 
L 544 3500 
L 1119 3500 
L 1119 1403 
Q 1119 906 1312 657 
Q 1506 409 1894 409 
Q 2359 409 2629 706 
Q 2900 1003 2900 1516 
L 2900 3500 
L 3475 3500 
L 3475 0 
L 2900 0 
L 2900 538 
Q 2691 219 2414 64 
Q 2138 -91 1772 -91 
Q 1169 -91 856 284 
Q 544 659 544 1381 
z
M 1991 3584 
L 1991 3584 
z
" transform="scale(0.015625)"/>
       <path id="DejaVuSans-64" d="M 2906 2969 
L 2906 4863 
L 3481 4863 
L 3481 0 
L 2906 0 
L 2906 525 
Q 2725 213 2448 61 
Q 2172 -91 1784 -91 
Q 1150 -91 751 415 
Q 353 922 353 1747 
Q 353 2572 751 3078 
Q 1150 3584 1784 3584 
Q 2172 3584 2448 3432 
Q 2725 3281 2906 2969 
z
M 947 1747 
Q 947 1113 1208 752 
Q 1469 391 1925 391 
Q 2381 391 2643 752 
Q 2906 1113 2906 1747 
Q 2906 2381 2643 2742 
Q 2381 3103 1925 3103 
Q 1469 3103 1208 2742 
Q 947 2381 947 1747 
z
" transform="scale(0.015625)"/>
       <path id="DejaVuSans-65" d="M 3597 1894 
L 3597 1613 
L 953 1613 
Q 991 1019 1311 708 
Q 1631 397 2203 397 
Q 2534 397 2845 478 
Q 3156 559 3463 722 
L 3463 178 
Q 3153 47 2828 -22 
Q 2503 -91 2169 -91 
Q 1331 -91 842 396 
Q 353 884 353 1716 
Q 353 2575 817 3079 
Q 1281 3584 2069 3584 
Q 2775 3584 3186 3129 
Q 3597 2675 3597 1894 
z
M 3022 2063 
Q 3016 2534 2758 2815 
Q 2500 3097 2075 3097 
Q 1594 3097 1305 2825 
Q 1016 2553 972 2059 
L 3022 2063 
z
" transform="scale(0.015625)"/>
       <path id="DejaVuSans-20" transform="scale(0.015625)"/>
       <path id="DejaVuSans-28" d="M 1984 4856 
Q 1566 4138 1362 3434 
Q 1159 2731 1159 2009 
Q 1159 1288 1364 580 
Q 1569 -128 1984 -844 
L 1484 -844 
Q 1016 -109 783 600 
Q 550 1309 550 2009 
Q 550 2706 781 3412 
Q 1013 4119 1484 4856 
L 1984 4856 
z
" transform="scale(0.015625)"/>
       <path id="DejaVuSans-b0" d="M 1600 4347 
Q 1350 4347 1178 4173 
Q 1006 4000 1006 3750 
Q 1006 3503 1178 3333 
Q 1350 3163 1600 3163 
Q 1850 3163 2022 3333 
Q 2194 3503 2194 3750 
Q 2194 3997 2020 4172 
Q 1847 4347 1600 4347 
z
M 1600 4750 
Q 1800 4750 1984 4673 
Q 2169 4597 2303 4453 
Q 2447 4313 2519 4134 
Q 2591 3956 2591 3750 
Q 2591 3338 2302 3052 
Q 2013 2766 1594 2766 
Q 1172 2766 890 3047 
Q 609 3328 609 3750 
Q 609 4169 896 4459 
Q 1184 4750 1600 4750 
z
" transform="scale(0.015625)"/>
       <path id="DejaVuSans-29" d="M 513 4856 
L 1013 4856 
Q 1481 4119 1714 3412 
Q 1947 2706 1947 2009 
Q 1947 1309 1714 600 
Q 1481 -109 1013 -844 
L 513 -844 
Q 928 -128 1133 580 
Q 1338 1288 1338 2009 
Q 1338 2731 1133 3434 
Q 928 4138 513 4856 
z
" transform="scale(0.015625)"/>
      </defs>
      <use xlink:href="#DejaVuSans-4c"/>
      <use xlink:href="#DejaVuSans-6f" transform="translate(53.962891 0)"/>
      <use xlink:href="#DejaVuSans-6e" transform="translate(115.144531 0)"/>
      <use xlink:href="#DejaVuSans-67" transform="translate(178.523438 0)"/>
      <use xlink:href="#DejaVuSans-69" transform="translate(242 0)"/>
      <use xlink:href="#DejaVuSans-74" transform="translate(269.783203 0)"/>
      <use xlink:href="#DejaVuSans-75" transform="translate(308.992188 0)"/>
      <use xlink:href="#DejaVuSans-64" transform="translate(372.371094 0)"/>
      <use xlink:href="#DejaVuSans-65" transform="translate(435.847656 0)"/>
      <use xlink:href="#DejaVuSans-20" transform="translate(497.371094 0)"/>
      <use xlink:href="#DejaVuSans-28" transform="translate(529.158203 0)"/>
      <use xlink:href="#DejaVuSans-b0" transform="translate(568.171875 0)"/>
      <use xlink:href="#DejaVuSans-29" transform="translate(618.171875 0)"/>
     </g>
    </g>
   </g>
   <g id="matplotlib.axis_2">
    <g id="ytick_1">
     <g id="line2d_17">
      <path d="M 90 630.545289 
L 648 630.545289 
" clip-path="url(#p77ecee7b21)" style="fill: none; stroke: #b0b0b0; stroke-width: 0.8; stroke-linecap: square"/>
     </g>
     <g id="line2d_18">
      <defs>
       <path id="ma1edb9a233" d="M 0 0 
L -3.5 0 
" style="stroke: #000000; stroke-width: 0.8"/>
      </defs>
      <g>
       <use xlink:href="#ma1edb9a233" x="90" y="630.545289" style="stroke: #000000; stroke-width: 0.8"/>
      </g>
     </g>
     <g id="text_10">
      <!-- −5.25 -->
      <g transform="translate(52.354687 634.344508) scale(0.1 -0.1)">
       <use xlink:href="#DejaVuSans-2212"/>
       <use xlink:href="#DejaVuSans-35" transform="translate(83.789062 0)"/>
       <use xlink:href="#DejaVuSans-2e" transform="translate(147.412109 0)"/>
       <use xlink:href="#DejaVuSans-32" transform="translate(179.199219 0)"/>
       <use xlink:href="#DejaVuSans-35" transform="translate(242.822266 0)"/>
      </g>
     </g>
    </g>
    <g id="ytick_2">
     <g id="line2d_19">
      <path d="M 90 563.834422 
L 648 563.834422 
" clip-path="url(#p77ecee7b21)" style="fill: none; stroke: #b0b0b0; stroke-width: 0.8; stroke-linecap: square"/>
     </g>
     <g id="line2d_20">
      <g>
       <use xlink:href="#ma1edb9a233" x="90" y="563.834422" style="stroke: #000000; stroke-width: 0.8"/>
      </g>
     </g>
     <g id="text_11">
      <!-- −5.20 -->
      <g transform="translate(52.354687 567.633641) scale(0.1 -0.1)">
       <use xlink:href="#DejaVuSans-2212"/>
       <use xlink:href="#DejaVuSans-35" transform="translate(83.789062 0)"/>
       <use xlink:href="#DejaVuSans-2e" transform="translate(147.412109 0)"/>
       <use xlink:href="#DejaVuSans-32" transform="translate(179.199219 0)"/>
       <use xlink:href="#DejaVuSans-30" transform="translate(242.822266 0)"/>
      </g>
     </g>
    </g>
    <g id="ytick_3">
     <g id="line2d_21">
      <path d="M 90 497.123555 
L 648 497.123555 
" clip-path="url(#p77ecee7b21)" style="fill: none; stroke: #b0b0b0; stroke-width: 0.8; stroke-linecap: square"/>
     </g>
     <g id="line2d_22">
      <g>
       <use xlink:href="#ma1edb9a233" x="90" y="497.123555" style="stroke: #000000; stroke-width: 0.8"/>
      </g>
     </g>
     <g id="text_12">
      <!-- −5.15 -->
      <g transform="translate(52.354687 500.922774) scale(0.1 -0.1)">
       <use xlink:href="#DejaVuSans-2212"/>
       <use xlink:href="#DejaVuSans-35" transform="translate(83.789062 0)"/>
       <use xlink:href="#DejaVuSans-2e" transform="translate(147.412109 0)"/>
       <use xlink:href="#DejaVuSans-31" transform="translate(179.199219 0)"/>
       <use xlink:href="#DejaVuSans-35" transform="translate(242.822266 0)"/>
      </g>
     </g>
    </g>
    <g id="ytick_4">
     <g id="line2d_23">
      <path d="M 90 430.412688 
L 648 430.412688 
" clip-path="url(#p77ecee7b21)" style="fill: none; stroke: #b0b0b0; stroke-width: 0.8; stroke-linecap: square"/>
     </g>
     <g id="line2d_24">
      <g>
       <use xlink:href="#ma1edb9a233" x="90" y="430.412688" style="stroke: #000000; stroke-width: 0.8"/>
      </g>
     </g>
     <g id="text_13">
      <!-- −5.10 -->
      <g transform="translate(52.354687 434.211907) scale(0.1 -0.1)">
       <use xlink:href="#DejaVuSans-2212"/>
       <use xlink:href="#DejaVuSans-35" transform="translate(83.789062 0)"/>
       <use xlink:href="#DejaVuSans-2e" transform="translate(147.412109 0)"/>
       <use xlink:href="#DejaVuSans-31" transform="translate(179.199219 0)"/>
       <use xlink:href="#DejaVuSans-30" transform="translate(242.822266 0)"/>
      </g>
     </g>
    </g>
    <g id="ytick_5">
     <g id="line2d_25">
      <path d="M 90 363.701821 
L 648 363.701821 
" clip-path="url(#p77ecee7b21)" style="fill: none; stroke: #b0b0b0; stroke-width: 0.8; stroke-linecap: square"/>
     </g>
     <g id="line2d_26">
      <g>
       <use xlink:href="#ma1edb9a233" x="90" y="363.701821" style="stroke: #000000; stroke-width: 0.8"/>
      </g>
     </g>
     <g id="text_14">
      <!-- −5.05 -->
      <g transform="translate(52.354687 367.50104) scale(0.1 -0.1)">
       <use xlink:href="#DejaVuSans-2212"/>
       <use xlink:href="#DejaVuSans-35" transform="translate(83.789062 0)"/>
       <use xlink:href="#DejaVuSans-2e" transform="translate(147.412109 0)"/>
       <use xlink:href="#DejaVuSans-30" transform="translate(179.199219 0)"/>
       <use xlink:href="#DejaVuSans-35" transform="translate(242.822266 0)"/>
      </g>
     </g>
    </g>
    <g id="ytick_6">
     <g id="line2d_27">
      <path d="M 90 296.990954 
L 648 296.990954 
" clip-path="url(#p77ecee7b21)" style="fill: none; stroke: #b0b0b0; stroke-width: 0.8; stroke-linecap: square"/>
     </g>
     <g id="line2d_28">
      <g>
       <use xlink:href="#ma1edb9a233" x="90" y="296.990954" style="stroke: #000000; stroke-width: 0.8"/>
      </g>
     </g>
     <g id="text_15">
      <!-- −5.00 -->
      <g transform="translate(52.354687 300.790172) scale(0.1 -0.1)">
       <use xlink:href="#DejaVuSans-2212"/>
       <use xlink:href="#DejaVuSans-35" transform="translate(83.789062 0)"/>
       <use xlink:href="#DejaVuSans-2e" transform="translate(147.412109 0)"/>
       <use xlink:href="#DejaVuSans-30" transform="translate(179.199219 0)"/>
       <use xlink:href="#DejaVuSans-30" transform="translate(242.822266 0)"/>
      </g>
     </g>
    </g>
    <g id="ytick_7">
     <g id="line2d_29">
      <path d="M 90 230.280087 
L 648 230.280087 
" clip-path="url(#p77ecee7b21)" style="fill: none; stroke: #b0b0b0; stroke-width: 0.8; stroke-linecap: square"/>
     </g>
     <g id="line2d_30">
      <g>
       <use xlink:href="#ma1edb9a233" x="90" y="230.280087" style="stroke: #000000; stroke-width: 0.8"/>
      </g>
     </g>
     <g id="text_16">
      <!-- −4.95 -->
      <g transform="translate(52.354687 234.079305) scale(0.1 -0.1)">
       <use xlink:href="#DejaVuSans-2212"/>
       <use xlink:href="#DejaVuSans-34" transform="translate(83.789062 0)"/>
       <use xlink:href="#DejaVuSans-2e" transform="translate(147.412109 0)"/>
       <use xlink:href="#DejaVuSans-39" transform="translate(179.199219 0)"/>
       <use xlink:href="#DejaVuSans-35" transform="translate(242.822266 0)"/>
      </g>
     </g>
    </g>
    <g id="text_17">
     <!-- Latitude (°) -->
     <g transform="translate(46.275 464.889531) rotate(-90) scale(0.1 -0.1)">
      <defs>
       <path id="DejaVuSans-61" d="M 2194 1759 
Q 1497 1759 1228 1600 
Q 959 1441 959 1056 
Q 959 750 1161 570 
Q 1363 391 1709 391 
Q 2188 391 2477 730 
Q 2766 1069 2766 1631 
L 2766 1759 
L 2194 1759 
z
M 3341 1997 
L 3341 0 
L 2766 0 
L 2766 531 
Q 2569 213 2275 61 
Q 1981 -91 1556 -91 
Q 1019 -91 701 211 
Q 384 513 384 1019 
Q 384 1609 779 1909 
Q 1175 2209 1959 2209 
L 2766 2209 
L 2766 2266 
Q 2766 2663 2505 2880 
Q 2244 3097 1772 3097 
Q 1472 3097 1187 3025 
Q 903 2953 641 2809 
L 641 3341 
Q 956 3463 1253 3523 
Q 1550 3584 1831 3584 
Q 2591 3584 2966 3190 
Q 3341 2797 3341 1997 
z
" transform="scale(0.015625)"/>
      </defs>
      <use xlink:href="#DejaVuSans-4c"/>
      <use xlink:href="#DejaVuSans-61" transform="translate(55.712891 0)"/>
      <use xlink:href="#DejaVuSans-74" transform="translate(116.992188 0)"/>
      <use xlink:href="#DejaVuSans-69" transform="translate(156.201172 0)"/>
      <use xlink:href="#DejaVuSans-74" transform="translate(183.984375 0)"/>
      <use xlink:href="#DejaVuSans-75" transform="translate(223.193359 0)"/>
      <use xlink:href="#DejaVuSans-64" transform="translate(286.572266 0)"/>
      <use xlink:href="#DejaVuSans-65" transform="translate(350.048828 0)"/>
      <use xlink:href="#DejaVuSans-20" transform="translate(411.572266 0)"/>
      <use xlink:href="#DejaVuSans-28" transform="translate(443.359375 0)"/>
      <use xlink:href="#DejaVuSans-b0" transform="translate(482.373047 0)"/>
      <use xlink:href="#DejaVuSans-29" transform="translate(532.373047 0)"/>
     </g>
    </g>
   </g>
   <g id="patch_3">
    <path d="M 90 676.229733 
L 90 196.410267 
" style="fill: none; stroke: #000000; stroke-width: 0.8; stroke-linejoin: miter; stroke-linecap: square"/>
   </g>
   <g id="patch_4">
    <path d="M 648 676.229733 
L 648 196.410267 
" style="fill: none; stroke: #000000; stroke-width: 0.8; stroke-linejoin: miter; stroke-linecap: square"/>
   </g>
   <g id="patch_5">
    <path d="M 90 676.229733 
L 648 676.229733 
" style="fill: none; stroke: #000000; stroke-width: 0.8; stroke-linejoin: miter; stroke-linecap: square"/>
   </g>
   <g id="patch_6">
    <path d="M 90 196.410267 
L 648 196.410267 
" style="fill: none; stroke: #000000; stroke-width: 0.8; stroke-linejoin: miter; stroke-linecap: square"/>
   </g>
  </g>
 </g>
 <defs>
  <clipPath id="p77ecee7b21">
   <rect x="90" y="196.410267" width="558" height="479.819466"/>
  </clipPath>
 </defs>
</svg>
