<?xml version="1.0" encoding="utf-8" standalone="no"?>
<!DOCTYPE svg PUBLIC "-//W3C//DTD SVG 1.1//EN"
  "http://www.w3.org/Graphics/SVG/1.1/DTD/svg11.dtd">
<svg xmlns:xlink="http://www.w3.org/1999/xlink" width="720pt" height="864pt" viewBox="0 0 720 864" xmlns="http://www.w3.org/2000/svg" version="1.1">
 <metadata>
  <rdf:RDF xmlns:dc="http://purl.org/dc/elements/1.1/" xmlns:cc="http://creativecommons.org/ns#" xmlns:rdf="http://www.w3.org/1999/02/22-rdf-syntax-ns#">
   <cc:Work>
    <dc:type rdf:resource="http://purl.org/dc/dcmitype/StillImage"/>
    <dc:date>2025-06-16T17:40:38.187176</dc:date>
    <dc:format>image/svg+xml</dc:format>
    <dc:creator>
     <cc:Agent>
      <dc:title>Matplotlib v3.10.1, https://matplotlib.org/</dc:title>
     </cc:Agent>
    </dc:creator>
   </cc:Work>
  </rdf:RDF>
 </metadata>
 <defs>
  <style type="text/css">*{stroke-linejoin: round; stroke-linecap: butt}</style>
 </defs>
 <g id="figure_1">
  <g id="patch_1">
   <path d="M 0 864 
L 720 864 
L 720 0 
L 0 0 
z
" style="fill: #ffffff"/>
  </g>
  <g id="axes_1">
   <g id="patch_2">
    <path d="M 90 698.517372 
L 648 698.517372 
L 648 174.122628 
L 90 174.122628 
z
" style="fill: #ffffff"/>
   </g>
   <g id="PatchCollection_1">
    <path d="M 530.910525 619.772222 
L 530.164187 619.594639 
L 527.459952 618.778647 
L 521.259936 616.552777 
L 518.717033 615.452394 
L 512.460057 612.874188 
L 504.385203 609.644105 
L 502.277179 609.467639 
L 497.966309 609.439706 
L 496.64092 609.182932 
L 496.023693 609.162932 
L 495.237942 609.304475 
L 493.055411 609.352825 
L 491.944486 608.852128 
L 490.437635 607.391965 
L 488.48826 605.753186 
L 487.804074 605.430212 
L 484.756386 605.342924 
L 482.245527 602.645839 
L 480.285248 601.905168 
L 475.983383 601.808879 
L 474.35318 602.071928 
L 472.468492 603.151358 
L 471.279317 603.167517 
L 476.115003 595.137615 
L 482.316655 594.25129 
L 487.566477 593.118747 
L 489.143265 593.198403 
L 507.796174 597.287706 
L 504.961695 578.466894 
L 501.554774 571.080394 
L 506.790813 571.778808 
L 526.527811 574.533221 
L 549.888067 588.098423 
L 547.993399 589.03281 
L 547.201106 589.125979 
L 546.989713 589.254596 
L 544.779394 592.349753 
L 539.334932 597.518375 
L 535.503564 600.049587 
L 533.934327 601.311974 
L 531.87541 604.746189 
L 531.396308 606.562661 
L 531.238287 610.58608 
L 531.195609 611.923433 
L 530.910525 619.772222 
" clip-path="url(#pe6d329195f)" style="fill: #e0bd1f; stroke: #0000ff; stroke-width: 0.5"/>
    <path d="M 517.88922 674.681247 
L 502.185231 669.316086 
L 469.221783 664.463274 
L 434.570061 659.301114 
L 435.500061 652.927075 
L 435.795684 650.903281 
L 437.041517 642.384105 
L 438.393819 633.437501 
L 439.460867 617.267719 
L 441.321205 617.351787 
L 441.327384 614.262189 
L 443.476698 613.951508 
L 444.039168 614.056365 
L 444.345726 613.733046 
L 447.175939 612.519335 
L 450.193288 610.883908 
L 452.608303 610.087924 
L 453.499147 609.946147 
L 453.779752 609.444196 
L 458.370643 605.950825 
L 460.178441 603.882819 
L 460.102956 603.723078 
L 460.616696 603.502903 
L 465.237475 602.673895 
L 465.992573 602.637625 
L 466.911299 602.917568 
L 471.014569 603.447181 
L 472.487604 603.357891 
L 474.407077 602.2721 
L 476.001533 602.015547 
L 480.269189 602.111977 
L 482.167289 602.837744 
L 484.694611 605.54098 
L 487.762888 605.633466 
L 488.380816 605.93018 
L 490.308542 607.553663 
L 491.883398 609.050187 
L 493.028092 609.558347 
L 495.248263 609.511667 
L 496.03264 609.370119 
L 496.601794 609.38661 
L 497.946132 609.646087 
L 502.262909 609.674597 
L 504.358847 609.849909 
L 512.409539 613.075334 
L 518.643188 615.64612 
L 521.188423 616.747343 
L 527.398182 618.976433 
L 530.14139 619.805023 
L 530.082039 622.962867 
L 530.79688 623.114053 
L 530.605365 629.211791 
L 529.921914 644.629427 
L 517.88922 674.681247 
" clip-path="url(#pe6d329195f)" style="fill: #e0bd1f; stroke: #0000ff; stroke-width: 0.5"/>
   </g>
   <g id="PatchCollection_2">
    <path d="M 321.958768 197.958753 
L 320.317794 205.882218 
L 401.100239 236.663424 
L 402.699465 227.956284 
L 437.092482 227.068665 
L 452.402379 233.788572 
L 453.175667 234.467579 
L 453.90895 235.194003 
L 461.080337 240.400103 
L 463.695462 239.296836 
L 465.233218 239.12815 
L 467.730242 239.674848 
L 474.849997 239.87313 
L 478.687656 239.927594 
L 476.781374 252.552614 
L 484.946478 252.040863 
L 497.70534 256.237865 
L 498.416711 255.224829 
L 505.415894 252.181331 
L 505.247576 250.718034 
L 509.97178 253.114599 
L 521.661355 251.519013 
L 535.101079 248.308499 
L 538.959609 250.395975 
L 540.917018 257.63084 
L 555.580038 263.071947 
L 558.558562 254.685707 
L 556.05632 254.423353 
L 555.578538 251.593257 
L 555.860082 243.440071 
L 557.475818 243.044513 
L 557.763731 234.684509 
L 563.510714 234.057443 
L 563.420109 229.972535 
L 594.593123 228.625657 
L 594.981992 247.308183 
L 594.773412 247.709851 
L 595.919046 247.865901 
L 597.586837 246.480785 
L 598.669389 246.989388 
L 599.884551 245.808526 
L 600.715735 244.725273 
L 599.524227 242.896121 
L 600.858268 241.199439 
L 602.333825 241.087151 
L 603.063453 242.756541 
L 603.869012 243.862108 
L 604.392355 245.375025 
L 606.014953 245.282496 
L 606.872328 244.057717 
L 607.941817 243.086929 
L 609.932913 242.122132 
L 611.873506 240.954406 
L 613.488136 240.442108 
L 616.639632 238.162884 
L 618.148468 237.429333 
L 621.389438 232.220623 
L 621.967075 232.084981 
L 622.636364 235.767732 
L 622.584564 237.801316 
L 622.291833 239.07326 
L 620.732043 242.672248 
L 619.688786 244.256629 
L 611.454449 253.148526 
L 605.841813 259.183198 
L 585.253652 254.919061 
L 585.50281 262.249912 
L 581.358283 272.141625 
L 598.038072 275.61815 
L 585.149582 332.415978 
L 520.515478 342.081886 
L 508.853745 343.583681 
L 480.23076 346.764415 
L 479.90883 361.312171 
L 479.971908 374.710728 
L 479.676476 378.719585 
L 479.595231 388.136906 
L 478.739345 406.389171 
L 478.354523 424.365009 
L 478.282223 431.670323 
L 477.985004 444.75369 
L 484.722422 443.466259 
L 502.210531 441.908889 
L 504.364485 446.786965 
L 506.087898 460.252244 
L 505.544483 464.600786 
L 506.066502 471.354939 
L 502.803428 473.634128 
L 496.505439 475.43661 
L 491.750953 476.155684 
L 484.098473 473.572699 
L 477.650107 473.049479 
L 476.688635 542.451221 
L 499.647356 537.000029 
L 508.995482 533.899766 
L 520.312165 530.688653 
L 518.758402 524.575833 
L 518.458995 522.069836 
L 518.517005 517.267822 
L 522.564692 515.479711 
L 535.594113 511.365392 
L 541.201509 512.928668 
L 545.404609 511.559625 
L 558.23199 507.845329 
L 556.862379 505.278108 
L 578.856093 506.395551 
L 580.098461 508.841971 
L 580.883645 510.915196 
L 588.156305 511.792168 
L 593.606542 517.981597 
L 597.271064 519.596832 
L 563.124268 572.203673 
L 561.790192 574.90265 
L 558.681233 581.456095 
L 556.826045 583.924717 
L 555.677777 584.911806 
L 553.739278 586.133824 
L 549.812442 588.100134 
L 547.065281 589.882519 
L 544.690337 592.767261 
L 542.005033 595.680237 
L 534.847629 600.703452 
L 533.233128 602.513978 
L 532.232927 604.356356 
L 531.575301 606.754193 
L 531.308633 613.541722 
L 530.924592 624.484764 
L 530.553774 629.883633 
L 489.080867 630.23429 
L 484.677029 630.099977 
L 470.499955 630.329923 
L 438.638497 629.414407 
L 441.307318 617.377476 
L 436.459668 615.414258 
L 436.346485 614.905713 
L 421.103864 604.804855 
L 418.177787 603.423414 
L 413.723391 600.498276 
L 409.426338 597.261117 
L 400.558457 592.147728 
L 400.020947 592.50854 
L 385.158789 595.498279 
L 382.630767 595.849346 
L 379.711879 596.374985 
L 361.24757 605.711753 
L 358.397979 606.765666 
L 350.34394 610.429923 
L 348.22745 611.237073 
L 341.652871 614.150233 
L 340.864447 613.943177 
L 339.775494 614.194648 
L 338.125498 616.029958 
L 334.988737 617.189342 
L 331.973833 620.577638 
L 326.69885 625.777926 
L 316.316802 636.869283 
L 313.590958 634.254168 
L 310.34205 631.452842 
L 303.146782 626.024002 
L 301.913472 627.808116 
L 291.205286 622.493641 
L 299.591004 601.494777 
L 291.295178 592.841796 
L 281.310386 579.785503 
L 279.603228 577.979383 
L 279.954851 572.793358 
L 283.876545 571.690594 
L 288.130572 567.318111 
L 291.602041 565.113629 
L 296.567223 557.829526 
L 302.185972 554.79673 
L 300.257207 552.34525 
L 293.766442 542.17368 
L 293.900733 541.579113 
L 293.829316 541.068183 
L 294.159224 538.714365 
L 285.062785 537.774948 
L 274.075389 537.143312 
L 267.384218 536.442667 
L 252.661652 533.377991 
L 249.213443 532.524789 
L 239.129258 529.146982 
L 238.345793 533.341234 
L 231.060245 532.485111 
L 193.342144 526.50021 
L 188.644068 525.69868 
L 189.532122 518.057691 
L 189.288299 516.539361 
L 188.77959 515.630488 
L 189.056939 513.706335 
L 191.554422 507.900913 
L 188.841327 506.978078 
L 187.015017 505.98873 
L 184.435791 504.321489 
L 182.544311 502.78766 
L 162.370083 487.215628 
L 154.277683 480.471929 
L 149.503712 476.737524 
L 149.3132 476.93692 
L 141.611144 482.928468 
L 141.451702 478.619197 
L 139.822725 478.950896 
L 139.232491 479.618402 
L 138.800041 480.654209 
L 137.953083 481.062771 
L 136.781555 477.535225 
L 137.302349 475.506951 
L 137.631194 474.973556 
L 139.652405 474.450922 
L 140.07885 474.324699 
L 140.779486 473.596685 
L 140.359681 472.692209 
L 139.596546 471.712035 
L 138.491558 469.94178 
L 137.406515 468.592335 
L 137.129035 469.719221 
L 137.114479 471.19757 
L 135.642508 470.01765 
L 133.822548 468.071128 
L 134.018958 467.150322 
L 133.844693 466.25629 
L 132.901477 466.072005 
L 131.676915 465.376488 
L 131.276106 463.412753 
L 130.599126 463.281027 
L 130.099967 464.276314 
L 129.115071 465.290141 
L 129.295607 466.260102 
L 129.09031 467.433051 
L 128.424045 467.694161 
L 126.996883 467.560771 
L 125.985759 467.719211 
L 125.0345 467.160756 
L 125.304776 466.051132 
L 125.345626 464.987542 
L 124.660703 464.457317 
L 123.321669 463.648628 
L 121.608463 460.39159 
L 121.402944 457.845517 
L 120.203898 454.833586 
L 119.139104 449.968874 
L 118.051793 447.038718 
L 115.363636 444.300453 
L 123.967491 430.874796 
L 138.41672 408.133794 
L 152.983904 385.567604 
L 155.840046 394.695218 
L 193.138368 385.970344 
L 193.79303 376.609938 
L 194.922672 368.603843 
L 197.24954 353.12615 
L 199.942285 339.123119 
L 200.389822 331.217315 
L 231.45254 331.133342 
L 226.838618 311.362472 
L 225.289113 304.975588 
L 221.342321 288.099955 
L 232.502895 279.367447 
L 240.818803 270.578375 
L 244.901674 266.78495 
L 259.463836 258.189204 
L 271.061817 249.360637 
L 284.958748 241.455747 
L 292.91956 231.284887 
L 300.531042 227.138141 
L 302.805745 223.8511 
L 303.364697 222.111204 
L 304.578524 219.849828 
L 303.040895 218.605269 
L 301.930372 216.189286 
L 300.789157 214.393059 
L 301.322448 212.397533 
L 301.691198 209.663813 
L 300.840398 207.202396 
L 299.902253 205.309629 
L 299.325424 204.617797 
L 300.271405 202.576188 
L 300.653644 200.752077 
L 300.446225 200.377374 
L 310.495265 200.728742 
L 321.958768 197.958753 
L 321.958768 197.958753 
" clip-path="url(#pe6d329195f)" style="fill: none; stroke: #000000"/>
   </g>
   <g id="matplotlib.axis_1">
    <g id="xtick_1">
     <g id="line2d_1">
      <path d="M 146.763326 698.517372 
L 146.763326 174.122628 
" clip-path="url(#pe6d329195f)" style="fill: none; stroke: #b0b0b0; stroke-width: 0.8; stroke-linecap: square"/>
     </g>
     <g id="line2d_2">
      <defs>
       <path id="me78cdfb2b3" d="M 0 0 
L 0 3.5 
" style="stroke: #000000; stroke-width: 0.8"/>
      </defs>
      <g>
       <use xlink:href="#me78cdfb2b3" x="146.763326" y="698.517372" style="stroke: #000000; stroke-width: 0.8"/>
      </g>
     </g>
     <g id="text_1">
      <!-- −47.80 -->
      <g transform="translate(135.630262 737.058754) rotate(-45) scale(0.1 -0.1)">
       <defs>
        <path id="DejaVuSans-2212" d="M 678 2272 
L 4684 2272 
L 4684 1741 
L 678 1741 
L 678 2272 
z
" transform="scale(0.015625)"/>
        <path id="DejaVuSans-34" d="M 2419 4116 
L 825 1625 
L 2419 1625 
L 2419 4116 
z
M 2253 4666 
L 3047 4666 
L 3047 1625 
L 3713 1625 
L 3713 1100 
L 3047 1100 
L 3047 0 
L 2419 0 
L 2419 1100 
L 313 1100 
L 313 1709 
L 2253 4666 
z
" transform="scale(0.015625)"/>
        <path id="DejaVuSans-37" d="M 525 4666 
L 3525 4666 
L 3525 4397 
L 1831 0 
L 1172 0 
L 2766 4134 
L 525 4134 
L 525 4666 
z
" transform="scale(0.015625)"/>
        <path id="DejaVuSans-2e" d="M 684 794 
L 1344 794 
L 1344 0 
L 684 0 
L 684 794 
z
" transform="scale(0.015625)"/>
        <path id="DejaVuSans-38" d="M 2034 2216 
Q 1584 2216 1326 1975 
Q 1069 1734 1069 1313 
Q 1069 891 1326 650 
Q 1584 409 2034 409 
Q 2484 409 2743 651 
Q 3003 894 3003 1313 
Q 3003 1734 2745 1975 
Q 2488 2216 2034 2216 
z
M 1403 2484 
Q 997 2584 770 2862 
Q 544 3141 544 3541 
Q 544 4100 942 4425 
Q 1341 4750 2034 4750 
Q 2731 4750 3128 4425 
Q 3525 4100 3525 3541 
Q 3525 3141 3298 2862 
Q 3072 2584 2669 2484 
Q 3125 2378 3379 2068 
Q 3634 1759 3634 1313 
Q 3634 634 3220 271 
Q 2806 -91 2034 -91 
Q 1263 -91 848 271 
Q 434 634 434 1313 
Q 434 1759 690 2068 
Q 947 2378 1403 2484 
z
M 1172 3481 
Q 1172 3119 1398 2916 
Q 1625 2713 2034 2713 
Q 2441 2713 2670 2916 
Q 2900 3119 2900 3481 
Q 2900 3844 2670 4047 
Q 2441 4250 2034 4250 
Q 1625 4250 1398 4047 
Q 1172 3844 1172 3481 
z
" transform="scale(0.015625)"/>
        <path id="DejaVuSans-30" d="M 2034 4250 
Q 1547 4250 1301 3770 
Q 1056 3291 1056 2328 
Q 1056 1369 1301 889 
Q 1547 409 2034 409 
Q 2525 409 2770 889 
Q 3016 1369 3016 2328 
Q 3016 3291 2770 3770 
Q 2525 4250 2034 4250 
z
M 2034 4750 
Q 2819 4750 3233 4129 
Q 3647 3509 3647 2328 
Q 3647 1150 3233 529 
Q 2819 -91 2034 -91 
Q 1250 -91 836 529 
Q 422 1150 422 2328 
Q 422 3509 836 4129 
Q 1250 4750 2034 4750 
z
" transform="scale(0.015625)"/>
       </defs>
       <use xlink:href="#DejaVuSans-2212"/>
       <use xlink:href="#DejaVuSans-34" transform="translate(83.789062 0)"/>
       <use xlink:href="#DejaVuSans-37" transform="translate(147.412109 0)"/>
       <use xlink:href="#DejaVuSans-2e" transform="translate(211.035156 0)"/>
       <use xlink:href="#DejaVuSans-38" transform="translate(242.822266 0)"/>
       <use xlink:href="#DejaVuSans-30" transform="translate(306.445312 0)"/>
      </g>
     </g>
    </g>
    <g id="xtick_2">
     <g id="line2d_3">
      <path d="M 222.990957 698.517372 
L 222.990957 174.122628 
" clip-path="url(#pe6d329195f)" style="fill: none; stroke: #b0b0b0; stroke-width: 0.8; stroke-linecap: square"/>
     </g>
     <g id="line2d_4">
      <g>
       <use xlink:href="#me78cdfb2b3" x="222.990957" y="698.517372" style="stroke: #000000; stroke-width: 0.8"/>
      </g>
     </g>
     <g id="text_2">
      <!-- −47.75 -->
      <g transform="translate(211.857892 737.058754) rotate(-45) scale(0.1 -0.1)">
       <defs>
        <path id="DejaVuSans-35" d="M 691 4666 
L 3169 4666 
L 3169 4134 
L 1269 4134 
L 1269 2991 
Q 1406 3038 1543 3061 
Q 1681 3084 1819 3084 
Q 2600 3084 3056 2656 
Q 3513 2228 3513 1497 
Q 3513 744 3044 326 
Q 2575 -91 1722 -91 
Q 1428 -91 1123 -41 
Q 819 9 494 109 
L 494 744 
Q 775 591 1075 516 
Q 1375 441 1709 441 
Q 2250 441 2565 725 
Q 2881 1009 2881 1497 
Q 2881 1984 2565 2268 
Q 2250 2553 1709 2553 
Q 1456 2553 1204 2497 
Q 953 2441 691 2322 
L 691 4666 
z
" transform="scale(0.015625)"/>
       </defs>
       <use xlink:href="#DejaVuSans-2212"/>
       <use xlink:href="#DejaVuSans-34" transform="translate(83.789062 0)"/>
       <use xlink:href="#DejaVuSans-37" transform="translate(147.412109 0)"/>
       <use xlink:href="#DejaVuSans-2e" transform="translate(211.035156 0)"/>
       <use xlink:href="#DejaVuSans-37" transform="translate(242.822266 0)"/>
       <use xlink:href="#DejaVuSans-35" transform="translate(306.445312 0)"/>
      </g>
     </g>
    </g>
    <g id="xtick_3">
     <g id="line2d_5">
      <path d="M 299.218588 698.517372 
L 299.218588 174.122628 
" clip-path="url(#pe6d329195f)" style="fill: none; stroke: #b0b0b0; stroke-width: 0.8; stroke-linecap: square"/>
     </g>
     <g id="line2d_6">
      <g>
       <use xlink:href="#me78cdfb2b3" x="299.218588" y="698.517372" style="stroke: #000000; stroke-width: 0.8"/>
      </g>
     </g>
     <g id="text_3">
      <!-- −47.70 -->
      <g transform="translate(288.085523 737.058754) rotate(-45) scale(0.1 -0.1)">
       <use xlink:href="#DejaVuSans-2212"/>
       <use xlink:href="#DejaVuSans-34" transform="translate(83.789062 0)"/>
       <use xlink:href="#DejaVuSans-37" transform="translate(147.412109 0)"/>
       <use xlink:href="#DejaVuSans-2e" transform="translate(211.035156 0)"/>
       <use xlink:href="#DejaVuSans-37" transform="translate(242.822266 0)"/>
       <use xlink:href="#DejaVuSans-30" transform="translate(306.445312 0)"/>
      </g>
     </g>
    </g>
    <g id="xtick_4">
     <g id="line2d_7">
      <path d="M 375.446218 698.517372 
L 375.446218 174.122628 
" clip-path="url(#pe6d329195f)" style="fill: none; stroke: #b0b0b0; stroke-width: 0.8; stroke-linecap: square"/>
     </g>
     <g id="line2d_8">
      <g>
       <use xlink:href="#me78cdfb2b3" x="375.446218" y="698.517372" style="stroke: #000000; stroke-width: 0.8"/>
      </g>
     </g>
     <g id="text_4">
      <!-- −47.65 -->
      <g transform="translate(364.313154 737.058754) rotate(-45) scale(0.1 -0.1)">
       <defs>
        <path id="DejaVuSans-36" d="M 2113 2584 
Q 1688 2584 1439 2293 
Q 1191 2003 1191 1497 
Q 1191 994 1439 701 
Q 1688 409 2113 409 
Q 2538 409 2786 701 
Q 3034 994 3034 1497 
Q 3034 2003 2786 2293 
Q 2538 2584 2113 2584 
z
M 3366 4563 
L 3366 3988 
Q 3128 4100 2886 4159 
Q 2644 4219 2406 4219 
Q 1781 4219 1451 3797 
Q 1122 3375 1075 2522 
Q 1259 2794 1537 2939 
Q 1816 3084 2150 3084 
Q 2853 3084 3261 2657 
Q 3669 2231 3669 1497 
Q 3669 778 3244 343 
Q 2819 -91 2113 -91 
Q 1303 -91 875 529 
Q 447 1150 447 2328 
Q 447 3434 972 4092 
Q 1497 4750 2381 4750 
Q 2619 4750 2861 4703 
Q 3103 4656 3366 4563 
z
" transform="scale(0.015625)"/>
       </defs>
       <use xlink:href="#DejaVuSans-2212"/>
       <use xlink:href="#DejaVuSans-34" transform="translate(83.789062 0)"/>
       <use xlink:href="#DejaVuSans-37" transform="translate(147.412109 0)"/>
       <use xlink:href="#DejaVuSans-2e" transform="translate(211.035156 0)"/>
       <use xlink:href="#DejaVuSans-36" transform="translate(242.822266 0)"/>
       <use xlink:href="#DejaVuSans-35" transform="translate(306.445312 0)"/>
      </g>
     </g>
    </g>
    <g id="xtick_5">
     <g id="line2d_9">
      <path d="M 451.673849 698.517372 
L 451.673849 174.122628 
" clip-path="url(#pe6d329195f)" style="fill: none; stroke: #b0b0b0; stroke-width: 0.8; stroke-linecap: square"/>
     </g>
     <g id="line2d_10">
      <g>
       <use xlink:href="#me78cdfb2b3" x="451.673849" y="698.517372" style="stroke: #000000; stroke-width: 0.8"/>
      </g>
     </g>
     <g id="text_5">
      <!-- −47.60 -->
      <g transform="translate(440.540784 737.058754) rotate(-45) scale(0.1 -0.1)">
       <use xlink:href="#DejaVuSans-2212"/>
       <use xlink:href="#DejaVuSans-34" transform="translate(83.789062 0)"/>
       <use xlink:href="#DejaVuSans-37" transform="translate(147.412109 0)"/>
       <use xlink:href="#DejaVuSans-2e" transform="translate(211.035156 0)"/>
       <use xlink:href="#DejaVuSans-36" transform="translate(242.822266 0)"/>
       <use xlink:href="#DejaVuSans-30" transform="translate(306.445312 0)"/>
      </g>
     </g>
    </g>
    <g id="xtick_6">
     <g id="line2d_11">
      <path d="M 527.90148 698.517372 
L 527.90148 174.122628 
" clip-path="url(#pe6d329195f)" style="fill: none; stroke: #b0b0b0; stroke-width: 0.8; stroke-linecap: square"/>
     </g>
     <g id="line2d_12">
      <g>
       <use xlink:href="#me78cdfb2b3" x="527.90148" y="698.517372" style="stroke: #000000; stroke-width: 0.8"/>
      </g>
     </g>
     <g id="text_6">
      <!-- −47.55 -->
      <g transform="translate(516.768415 737.058754) rotate(-45) scale(0.1 -0.1)">
       <use xlink:href="#DejaVuSans-2212"/>
       <use xlink:href="#DejaVuSans-34" transform="translate(83.789062 0)"/>
       <use xlink:href="#DejaVuSans-37" transform="translate(147.412109 0)"/>
       <use xlink:href="#DejaVuSans-2e" transform="translate(211.035156 0)"/>
       <use xlink:href="#DejaVuSans-35" transform="translate(242.822266 0)"/>
       <use xlink:href="#DejaVuSans-35" transform="translate(306.445312 0)"/>
      </g>
     </g>
    </g>
    <g id="xtick_7">
     <g id="line2d_13">
      <path d="M 604.12911 698.517372 
L 604.12911 174.122628 
" clip-path="url(#pe6d329195f)" style="fill: none; stroke: #b0b0b0; stroke-width: 0.8; stroke-linecap: square"/>
     </g>
     <g id="line2d_14">
      <g>
       <use xlink:href="#me78cdfb2b3" x="604.12911" y="698.517372" style="stroke: #000000; stroke-width: 0.8"/>
      </g>
     </g>
     <g id="text_7">
      <!-- −47.50 -->
      <g transform="translate(592.996046 737.058754) rotate(-45) scale(0.1 -0.1)">
       <use xlink:href="#DejaVuSans-2212"/>
       <use xlink:href="#DejaVuSans-34" transform="translate(83.789062 0)"/>
       <use xlink:href="#DejaVuSans-37" transform="translate(147.412109 0)"/>
       <use xlink:href="#DejaVuSans-2e" transform="translate(211.035156 0)"/>
       <use xlink:href="#DejaVuSans-35" transform="translate(242.822266 0)"/>
       <use xlink:href="#DejaVuSans-30" transform="translate(306.445312 0)"/>
      </g>
     </g>
    </g>
    <g id="text_8">
     <!-- Longitude (°) -->
     <g transform="translate(336.139844 750.127752) scale(0.1 -0.1)">
      <defs>
       <path id="DejaVuSans-4c" d="M 628 4666 
L 1259 4666 
L 1259 531 
L 3531 531 
L 3531 0 
L 628 0 
L 628 4666 
z
" transform="scale(0.015625)"/>
       <path id="DejaVuSans-6f" d="M 1959 3097 
Q 1497 3097 1228 2736 
Q 959 2375 959 1747 
Q 959 1119 1226 758 
Q 1494 397 1959 397 
Q 2419 397 2687 759 
Q 2956 1122 2956 1747 
Q 2956 2369 2687 2733 
Q 2419 3097 1959 3097 
z
M 1959 3584 
Q 2709 3584 3137 3096 
Q 3566 2609 3566 1747 
Q 3566 888 3137 398 
Q 2709 -91 1959 -91 
Q 1206 -91 779 398 
Q 353 888 353 1747 
Q 353 2609 779 3096 
Q 1206 3584 1959 3584 
z
" transform="scale(0.015625)"/>
       <path id="DejaVuSans-6e" d="M 3513 2113 
L 3513 0 
L 2938 0 
L 2938 2094 
Q 2938 2591 2744 2837 
Q 2550 3084 2163 3084 
Q 1697 3084 1428 2787 
Q 1159 2491 1159 1978 
L 1159 0 
L 581 0 
L 581 3500 
L 1159 3500 
L 1159 2956 
Q 1366 3272 1645 3428 
Q 1925 3584 2291 3584 
Q 2894 3584 3203 3211 
Q 3513 2838 3513 2113 
z
" transform="scale(0.015625)"/>
       <path id="DejaVuSans-67" d="M 2906 1791 
Q 2906 2416 2648 2759 
Q 2391 3103 1925 3103 
Q 1463 3103 1205 2759 
Q 947 2416 947 1791 
Q 947 1169 1205 825 
Q 1463 481 1925 481 
Q 2391 481 2648 825 
Q 2906 1169 2906 1791 
z
M 3481 434 
Q 3481 -459 3084 -895 
Q 2688 -1331 1869 -1331 
Q 1566 -1331 1297 -1286 
Q 1028 -1241 775 -1147 
L 775 -588 
Q 1028 -725 1275 -790 
Q 1522 -856 1778 -856 
Q 2344 -856 2625 -561 
Q 2906 -266 2906 331 
L 2906 616 
Q 2728 306 2450 153 
Q 2172 0 1784 0 
Q 1141 0 747 490 
Q 353 981 353 1791 
Q 353 2603 747 3093 
Q 1141 3584 1784 3584 
Q 2172 3584 2450 3431 
Q 2728 3278 2906 2969 
L 2906 3500 
L 3481 3500 
L 3481 434 
z
" transform="scale(0.015625)"/>
       <path id="DejaVuSans-69" d="M 603 3500 
L 1178 3500 
L 1178 0 
L 603 0 
L 603 3500 
z
M 603 4863 
L 1178 4863 
L 1178 4134 
L 603 4134 
L 603 4863 
z
" transform="scale(0.015625)"/>
       <path id="DejaVuSans-74" d="M 1172 4494 
L 1172 3500 
L 2356 3500 
L 2356 3053 
L 1172 3053 
L 1172 1153 
Q 1172 725 1289 603 
Q 1406 481 1766 481 
L 2356 481 
L 2356 0 
L 1766 0 
Q 1100 0 847 248 
Q 594 497 594 1153 
L 594 3053 
L 172 3053 
L 172 3500 
L 594 3500 
L 594 4494 
L 1172 4494 
z
" transform="scale(0.015625)"/>
       <path id="DejaVuSans-75" d="M 544 1381 
L 544 3500 
L 1119 3500 
L 1119 1403 
Q 1119 906 1312 657 
Q 1506 409 1894 409 
Q 2359 409 2629 706 
Q 2900 1003 2900 1516 
L 2900 3500 
L 3475 3500 
L 3475 0 
L 2900 0 
L 2900 538 
Q 2691 219 2414 64 
Q 2138 -91 1772 -91 
Q 1169 -91 856 284 
Q 544 659 544 1381 
z
M 1991 3584 
L 1991 3584 
z
" transform="scale(0.015625)"/>
       <path id="DejaVuSans-64" d="M 2906 2969 
L 2906 4863 
L 3481 4863 
L 3481 0 
L 2906 0 
L 2906 525 
Q 2725 213 2448 61 
Q 2172 -91 1784 -91 
Q 1150 -91 751 415 
Q 353 922 353 1747 
Q 353 2572 751 3078 
Q 1150 3584 1784 3584 
Q 2172 3584 2448 3432 
Q 2725 3281 2906 2969 
z
M 947 1747 
Q 947 1113 1208 752 
Q 1469 391 1925 391 
Q 2381 391 2643 752 
Q 2906 1113 2906 1747 
Q 2906 2381 2643 2742 
Q 2381 3103 1925 3103 
Q 1469 3103 1208 2742 
Q 947 2381 947 1747 
z
" transform="scale(0.015625)"/>
       <path id="DejaVuSans-65" d="M 3597 1894 
L 3597 1613 
L 953 1613 
Q 991 1019 1311 708 
Q 1631 397 2203 397 
Q 2534 397 2845 478 
Q 3156 559 3463 722 
L 3463 178 
Q 3153 47 2828 -22 
Q 2503 -91 2169 -91 
Q 1331 -91 842 396 
Q 353 884 353 1716 
Q 353 2575 817 3079 
Q 1281 3584 2069 3584 
Q 2775 3584 3186 3129 
Q 3597 2675 3597 1894 
z
M 3022 2063 
Q 3016 2534 2758 2815 
Q 2500 3097 2075 3097 
Q 1594 3097 1305 2825 
Q 1016 2553 972 2059 
L 3022 2063 
z
" transform="scale(0.015625)"/>
       <path id="DejaVuSans-20" transform="scale(0.015625)"/>
       <path id="DejaVuSans-28" d="M 1984 4856 
Q 1566 4138 1362 3434 
Q 1159 2731 1159 2009 
Q 1159 1288 1364 580 
Q 1569 -128 1984 -844 
L 1484 -844 
Q 1016 -109 783 600 
Q 550 1309 550 2009 
Q 550 2706 781 3412 
Q 1013 4119 1484 4856 
L 1984 4856 
z
" transform="scale(0.015625)"/>
       <path id="DejaVuSans-b0" d="M 1600 4347 
Q 1350 4347 1178 4173 
Q 1006 4000 1006 3750 
Q 1006 3503 1178 3333 
Q 1350 3163 1600 3163 
Q 1850 3163 2022 3333 
Q 2194 3503 2194 3750 
Q 2194 3997 2020 4172 
Q 1847 4347 1600 4347 
z
M 1600 4750 
Q 1800 4750 1984 4673 
Q 2169 4597 2303 4453 
Q 2447 4313 2519 4134 
Q 2591 3956 2591 3750 
Q 2591 3338 2302 3052 
Q 2013 2766 1594 2766 
Q 1172 2766 890 3047 
Q 609 3328 609 3750 
Q 609 4169 896 4459 
Q 1184 4750 1600 4750 
z
" transform="scale(0.015625)"/>
       <path id="DejaVuSans-29" d="M 513 4856 
L 1013 4856 
Q 1481 4119 1714 3412 
Q 1947 2706 1947 2009 
Q 1947 1309 1714 600 
Q 1481 -109 1013 -844 
L 513 -844 
Q 928 -128 1133 580 
Q 1338 1288 1338 2009 
Q 1338 2731 1133 3434 
Q 928 4138 513 4856 
z
" transform="scale(0.015625)"/>
      </defs>
      <use xlink:href="#DejaVuSans-4c"/>
      <use xlink:href="#DejaVuSans-6f" transform="translate(53.962891 0)"/>
      <use xlink:href="#DejaVuSans-6e" transform="translate(115.144531 0)"/>
      <use xlink:href="#DejaVuSans-67" transform="translate(178.523438 0)"/>
      <use xlink:href="#DejaVuSans-69" transform="translate(242 0)"/>
      <use xlink:href="#DejaVuSans-74" transform="translate(269.783203 0)"/>
      <use xlink:href="#DejaVuSans-75" transform="translate(308.992188 0)"/>
      <use xlink:href="#DejaVuSans-64" transform="translate(372.371094 0)"/>
      <use xlink:href="#DejaVuSans-65" transform="translate(435.847656 0)"/>
      <use xlink:href="#DejaVuSans-20" transform="translate(497.371094 0)"/>
      <use xlink:href="#DejaVuSans-28" transform="translate(529.158203 0)"/>
      <use xlink:href="#DejaVuSans-b0" transform="translate(568.171875 0)"/>
      <use xlink:href="#DejaVuSans-29" transform="translate(618.171875 0)"/>
     </g>
    </g>
   </g>
   <g id="matplotlib.axis_2">
    <g id="ytick_1">
     <g id="line2d_15">
      <path d="M 90 665.038946 
L 648 665.038946 
" clip-path="url(#pe6d329195f)" style="fill: none; stroke: #b0b0b0; stroke-width: 0.8; stroke-linecap: square"/>
     </g>
     <g id="line2d_16">
      <defs>
       <path id="me24a01de49" d="M 0 0 
L -3.5 0 
" style="stroke: #000000; stroke-width: 0.8"/>
      </defs>
      <g>
       <use xlink:href="#me24a01de49" x="90" y="665.038946" style="stroke: #000000; stroke-width: 0.8"/>
      </g>
     </g>
     <g id="text_9">
      <!-- −5.05 -->
      <g transform="translate(52.354687 668.838165) scale(0.1 -0.1)">
       <use xlink:href="#DejaVuSans-2212"/>
       <use xlink:href="#DejaVuSans-35" transform="translate(83.789062 0)"/>
       <use xlink:href="#DejaVuSans-2e" transform="translate(147.412109 0)"/>
       <use xlink:href="#DejaVuSans-30" transform="translate(179.199219 0)"/>
       <use xlink:href="#DejaVuSans-35" transform="translate(242.822266 0)"/>
      </g>
     </g>
    </g>
    <g id="ytick_2">
     <g id="line2d_17">
      <path d="M 90 588.533057 
L 648 588.533057 
" clip-path="url(#pe6d329195f)" style="fill: none; stroke: #b0b0b0; stroke-width: 0.8; stroke-linecap: square"/>
     </g>
     <g id="line2d_18">
      <g>
       <use xlink:href="#me24a01de49" x="90" y="588.533057" style="stroke: #000000; stroke-width: 0.8"/>
      </g>
     </g>
     <g id="text_10">
      <!-- −5.00 -->
      <g transform="translate(52.354687 592.332276) scale(0.1 -0.1)">
       <use xlink:href="#DejaVuSans-2212"/>
       <use xlink:href="#DejaVuSans-35" transform="translate(83.789062 0)"/>
       <use xlink:href="#DejaVuSans-2e" transform="translate(147.412109 0)"/>
       <use xlink:href="#DejaVuSans-30" transform="translate(179.199219 0)"/>
       <use xlink:href="#DejaVuSans-30" transform="translate(242.822266 0)"/>
      </g>
     </g>
    </g>
    <g id="ytick_3">
     <g id="line2d_19">
      <path d="M 90 512.027168 
L 648 512.027168 
" clip-path="url(#pe6d329195f)" style="fill: none; stroke: #b0b0b0; stroke-width: 0.8; stroke-linecap: square"/>
     </g>
     <g id="line2d_20">
      <g>
       <use xlink:href="#me24a01de49" x="90" y="512.027168" style="stroke: #000000; stroke-width: 0.8"/>
      </g>
     </g>
     <g id="text_11">
      <!-- −4.95 -->
      <g transform="translate(52.354687 515.826387) scale(0.1 -0.1)">
       <defs>
        <path id="DejaVuSans-39" d="M 703 97 
L 703 672 
Q 941 559 1184 500 
Q 1428 441 1663 441 
Q 2288 441 2617 861 
Q 2947 1281 2994 2138 
Q 2813 1869 2534 1725 
Q 2256 1581 1919 1581 
Q 1219 1581 811 2004 
Q 403 2428 403 3163 
Q 403 3881 828 4315 
Q 1253 4750 1959 4750 
Q 2769 4750 3195 4129 
Q 3622 3509 3622 2328 
Q 3622 1225 3098 567 
Q 2575 -91 1691 -91 
Q 1453 -91 1209 -44 
Q 966 3 703 97 
z
M 1959 2075 
Q 2384 2075 2632 2365 
Q 2881 2656 2881 3163 
Q 2881 3666 2632 3958 
Q 2384 4250 1959 4250 
Q 1534 4250 1286 3958 
Q 1038 3666 1038 3163 
Q 1038 2656 1286 2365 
Q 1534 2075 1959 2075 
z
" transform="scale(0.015625)"/>
       </defs>
       <use xlink:href="#DejaVuSans-2212"/>
       <use xlink:href="#DejaVuSans-34" transform="translate(83.789062 0)"/>
       <use xlink:href="#DejaVuSans-2e" transform="translate(147.412109 0)"/>
       <use xlink:href="#DejaVuSans-39" transform="translate(179.199219 0)"/>
       <use xlink:href="#DejaVuSans-35" transform="translate(242.822266 0)"/>
      </g>
     </g>
    </g>
    <g id="ytick_4">
     <g id="line2d_21">
      <path d="M 90 435.521279 
L 648 435.521279 
" clip-path="url(#pe6d329195f)" style="fill: none; stroke: #b0b0b0; stroke-width: 0.8; stroke-linecap: square"/>
     </g>
     <g id="line2d_22">
      <g>
       <use xlink:href="#me24a01de49" x="90" y="435.521279" style="stroke: #000000; stroke-width: 0.8"/>
      </g>
     </g>
     <g id="text_12">
      <!-- −4.90 -->
      <g transform="translate(52.354687 439.320498) scale(0.1 -0.1)">
       <use xlink:href="#DejaVuSans-2212"/>
       <use xlink:href="#DejaVuSans-34" transform="translate(83.789062 0)"/>
       <use xlink:href="#DejaVuSans-2e" transform="translate(147.412109 0)"/>
       <use xlink:href="#DejaVuSans-39" transform="translate(179.199219 0)"/>
       <use xlink:href="#DejaVuSans-30" transform="translate(242.822266 0)"/>
      </g>
     </g>
    </g>
    <g id="ytick_5">
     <g id="line2d_23">
      <path d="M 90 359.01539 
L 648 359.01539 
" clip-path="url(#pe6d329195f)" style="fill: none; stroke: #b0b0b0; stroke-width: 0.8; stroke-linecap: square"/>
     </g>
     <g id="line2d_24">
      <g>
       <use xlink:href="#me24a01de49" x="90" y="359.01539" style="stroke: #000000; stroke-width: 0.8"/>
      </g>
     </g>
     <g id="text_13">
      <!-- −4.85 -->
      <g transform="translate(52.354687 362.814609) scale(0.1 -0.1)">
       <use xlink:href="#DejaVuSans-2212"/>
       <use xlink:href="#DejaVuSans-34" transform="translate(83.789062 0)"/>
       <use xlink:href="#DejaVuSans-2e" transform="translate(147.412109 0)"/>
       <use xlink:href="#DejaVuSans-38" transform="translate(179.199219 0)"/>
       <use xlink:href="#DejaVuSans-35" transform="translate(242.822266 0)"/>
      </g>
     </g>
    </g>
    <g id="ytick_6">
     <g id="line2d_25">
      <path d="M 90 282.509502 
L 648 282.509502 
" clip-path="url(#pe6d329195f)" style="fill: none; stroke: #b0b0b0; stroke-width: 0.8; stroke-linecap: square"/>
     </g>
     <g id="line2d_26">
      <g>
       <use xlink:href="#me24a01de49" x="90" y="282.509502" style="stroke: #000000; stroke-width: 0.8"/>
      </g>
     </g>
     <g id="text_14">
      <!-- −4.80 -->
      <g transform="translate(52.354687 286.30872) scale(0.1 -0.1)">
       <use xlink:href="#DejaVuSans-2212"/>
       <use xlink:href="#DejaVuSans-34" transform="translate(83.789062 0)"/>
       <use xlink:href="#DejaVuSans-2e" transform="translate(147.412109 0)"/>
       <use xlink:href="#DejaVuSans-38" transform="translate(179.199219 0)"/>
       <use xlink:href="#DejaVuSans-30" transform="translate(242.822266 0)"/>
      </g>
     </g>
    </g>
    <g id="ytick_7">
     <g id="line2d_27">
      <path d="M 90 206.003613 
L 648 206.003613 
" clip-path="url(#pe6d329195f)" style="fill: none; stroke: #b0b0b0; stroke-width: 0.8; stroke-linecap: square"/>
     </g>
     <g id="line2d_28">
      <g>
       <use xlink:href="#me24a01de49" x="90" y="206.003613" style="stroke: #000000; stroke-width: 0.8"/>
      </g>
     </g>
     <g id="text_15">
      <!-- −4.75 -->
      <g transform="translate(52.354687 209.802831) scale(0.1 -0.1)">
       <use xlink:href="#DejaVuSans-2212"/>
       <use xlink:href="#DejaVuSans-34" transform="translate(83.789062 0)"/>
       <use xlink:href="#DejaVuSans-2e" transform="translate(147.412109 0)"/>
       <use xlink:href="#DejaVuSans-37" transform="translate(179.199219 0)"/>
       <use xlink:href="#DejaVuSans-35" transform="translate(242.822266 0)"/>
      </g>
     </g>
    </g>
    <g id="text_16">
     <!-- Latitude (°) -->
     <g transform="translate(46.275 464.889531) rotate(-90) scale(0.1 -0.1)">
      <defs>
       <path id="DejaVuSans-61" d="M 2194 1759 
Q 1497 1759 1228 1600 
Q 959 1441 959 1056 
Q 959 750 1161 570 
Q 1363 391 1709 391 
Q 2188 391 2477 730 
Q 2766 1069 2766 1631 
L 2766 1759 
L 2194 1759 
z
M 3341 1997 
L 3341 0 
L 2766 0 
L 2766 531 
Q 2569 213 2275 61 
Q 1981 -91 1556 -91 
Q 1019 -91 701 211 
Q 384 513 384 1019 
Q 384 1609 779 1909 
Q 1175 2209 1959 2209 
L 2766 2209 
L 2766 2266 
Q 2766 2663 2505 2880 
Q 2244 3097 1772 3097 
Q 1472 3097 1187 3025 
Q 903 2953 641 2809 
L 641 3341 
Q 956 3463 1253 3523 
Q 1550 3584 1831 3584 
Q 2591 3584 2966 3190 
Q 3341 2797 3341 1997 
z
" transform="scale(0.015625)"/>
      </defs>
      <use xlink:href="#DejaVuSans-4c"/>
      <use xlink:href="#DejaVuSans-61" transform="translate(55.712891 0)"/>
      <use xlink:href="#DejaVuSans-74" transform="translate(116.992188 0)"/>
      <use xlink:href="#DejaVuSans-69" transform="translate(156.201172 0)"/>
      <use xlink:href="#DejaVuSans-74" transform="translate(183.984375 0)"/>
      <use xlink:href="#DejaVuSans-75" transform="translate(223.193359 0)"/>
      <use xlink:href="#DejaVuSans-64" transform="translate(286.572266 0)"/>
      <use xlink:href="#DejaVuSans-65" transform="translate(350.048828 0)"/>
      <use xlink:href="#DejaVuSans-20" transform="translate(411.572266 0)"/>
      <use xlink:href="#DejaVuSans-28" transform="translate(443.359375 0)"/>
      <use xlink:href="#DejaVuSans-b0" transform="translate(482.373047 0)"/>
      <use xlink:href="#DejaVuSans-29" transform="translate(532.373047 0)"/>
     </g>
    </g>
   </g>
   <g id="patch_3">
    <path d="M 90 698.517372 
L 90 174.122628 
" style="fill: none; stroke: #000000; stroke-width: 0.8; stroke-linejoin: miter; stroke-linecap: square"/>
   </g>
   <g id="patch_4">
    <path d="M 648 698.517372 
L 648 174.122628 
" style="fill: none; stroke: #000000; stroke-width: 0.8; stroke-linejoin: miter; stroke-linecap: square"/>
   </g>
   <g id="patch_5">
    <path d="M 90 698.517372 
L 648 698.517372 
" style="fill: none; stroke: #000000; stroke-width: 0.8; stroke-linejoin: miter; stroke-linecap: square"/>
   </g>
   <g id="patch_6">
    <path d="M 90 174.122628 
L 648 174.122628 
" style="fill: none; stroke: #000000; stroke-width: 0.8; stroke-linejoin: miter; stroke-linecap: square"/>
   </g>
  </g>
 </g>
 <defs>
  <clipPath id="pe6d329195f">
   <rect x="90" y="174.122628" width="558" height="524.394744"/>
  </clipPath>
 </defs>
</svg>
