<?xml version="1.0" encoding="utf-8" standalone="no"?>
<!DOCTYPE svg PUBLIC "-//W3C//DTD SVG 1.1//EN"
  "http://www.w3.org/Graphics/SVG/1.1/DTD/svg11.dtd">
<svg xmlns:xlink="http://www.w3.org/1999/xlink" width="720pt" height="864pt" viewBox="0 0 720 864" xmlns="http://www.w3.org/2000/svg" version="1.1">
 <metadata>
  <rdf:RDF xmlns:dc="http://purl.org/dc/elements/1.1/" xmlns:cc="http://creativecommons.org/ns#" xmlns:rdf="http://www.w3.org/1999/02/22-rdf-syntax-ns#">
   <cc:Work>
    <dc:type rdf:resource="http://purl.org/dc/dcmitype/StillImage"/>
    <dc:date>2025-06-16T17:40:01.262217</dc:date>
    <dc:format>image/svg+xml</dc:format>
    <dc:creator>
     <cc:Agent>
      <dc:title>Matplotlib v3.10.1, https://matplotlib.org/</dc:title>
     </cc:Agent>
    </dc:creator>
   </cc:Work>
  </rdf:RDF>
 </metadata>
 <defs>
  <style type="text/css">*{stroke-linejoin: round; stroke-linecap: butt}</style>
 </defs>
 <g id="figure_1">
  <g id="patch_1">
   <path d="M 0 864 
L 720 864 
L 720 0 
L 0 0 
z
" style="fill: #ffffff"/>
  </g>
  <g id="axes_1">
   <g id="patch_2">
    <path d="M 142.066675 768.96 
L 595.933325 768.96 
L 595.933325 103.68 
L 142.066675 103.68 
z
" style="fill: #ffffff"/>
   </g>
   <g id="PatchCollection_1">
    <path d="M 358.13147 505.295272 
L 371.888441 510.142342 
L 396.826042 503.761099 
L 396.839361 504.574994 
L 397.122873 505.889453 
L 397.773617 507.026232 
L 398.603222 507.977686 
L 399.181661 509.150765 
L 399.537478 510.652459 
L 399.605977 511.563792 
L 399.889489 512.992885 
L 400.389915 514.271044 
L 401.47449 515.520545 
L 406.461629 520.254892 
L 408.594626 522.163533 
L 409.825713 523.342343 
L 410.906482 525.247163 
L 411.226146 526.853937 
L 411.214729 528.793147 
L 411.245174 530.363621 
L 411.530588 531.934094 
L 412.816855 536.324542 
L 413.713056 539.327929 
L 414.281982 541.521242 
L 414.384731 542.873913 
L 414.230607 544.444386 
L 412.078583 551.303267 
L 428.929445 559.851075 
L 424.912714 554.384987 
L 424.589245 553.259672 
L 424.53787 552.300575 
L 424.813771 551.259324 
L 425.474029 550.219984 
L 426.621395 549.268529 
L 428.120771 548.672437 
L 429.564968 548.569268 
L 430.984429 548.190978 
L 431.745533 547.648382 
L 432.704526 546.693106 
L 433.360978 545.625107 
L 433.749142 544.174999 
L 433.811933 542.531924 
L 433.600727 540.885029 
L 433.608338 539.29545 
L 434.021237 537.845341 
L 434.493122 536.28442 
L 435.45592 534.123586 
L 436.085734 533.139652 
L 436.797367 531.913078 
L 437.512806 531.078167 
L 438.104565 530.589066 
L 438.72106 530.145818 
L 439.415568 529.73696 
L 440.380268 529.331923 
L 441.244122 528.934528 
L 442.608403 528.495101 
L 443.424688 528.35181 
L 444.572053 528.38811 
L 445.373116 528.600181 
L 446.077138 529.001397 
L 447.216893 529.471393 
L 447.907595 529.547815 
L 448.86849 529.551636 
L 449.671456 529.154241 
L 450.160466 528.588718 
L 450.655184 527.950594 
L 450.767447 527.222674 
L 450.771252 526.599834 
L 450.575268 525.902482 
L 449.943551 524.75233 
L 449.203376 523.833355 
L 448.661089 522.937306 
L 448.411827 522.314466 
L 448.396605 521.580814 
L 448.636353 520.889195 
L 449.180543 520.21477 
L 449.800844 519.708474 
L 450.672309 519.547987 
L 451.488594 519.588109 
L 452.268726 519.773433 
L 453.395162 520.033268 
L 454.380792 520.002699 
L 472.934626 536.676083 
L 475.282635 551.152333 
L 475.170372 576.188203 
L 494.789753 584.87166 
L 491.893749 601.015822 
L 491.705375 601.430412 
L 491.24681 601.995935 
L 490.649342 602.538532 
L 489.479144 603.377264 
L 488.771316 603.828154 
L 487.915073 604.244654 
L 486.954178 604.718471 
L 485.63937 605.570577 
L 484.383546 606.623291 
L 483.361763 607.826939 
L 482.59495 608.915953 
L 482.083107 609.77188 
L 481.826234 610.614434 
L 481.677819 611.361459 
L 481.274433 611.997673 
L 480.711215 612.526896 
L 480.146095 612.941485 
L 479.093868 613.138272 
L 478.254749 613.245263 
L 477.310979 613.386644 
L 476.730637 613.82416 
L 476.163614 614.607487 
L 476.034226 615.045003 
L 476.138878 615.558941 
L 476.338668 616.250561 
L 476.606957 617.129415 
L 476.603152 617.77136 
L 476.273974 618.407574 
L 475.634646 619.009398 
L 475.050498 619.588295 
L 474.578613 620.136623 
L 474.430198 620.700236 
L 474.390239 621.359376 
L 474.042034 622.526723 
L 473.583468 623.164848 
L 472.907988 623.747566 
L 472.202063 623.833541 
L 471.619818 623.921426 
L 471.018545 624.230935 
L 470.438202 624.86906 
L 470.234607 625.470883 
L 470.266954 626.126203 
L 470.282176 626.985951 
L 470.27837 627.755903 
L 470.019595 628.502929 
L 469.526779 629.274792 
L 468.887451 629.804015 
L 468.307109 630.146003 
L 467.580254 630.419212 
L 466.507096 630.835713 
L 465.999058 631.177701 
L 465.22844 631.997328 
L 465.116177 632.853255 
L 465.152329 633.567801 
L 465.346411 634.555557 
L 465.342605 635.724814 
L 465.22844 636.47184 
L 464.826957 637.090859 
L 464.079171 637.784389 
L 463.348511 638.512309 
L 461.327777 640.090425 
L 459.708526 640.980742 
L 456.871508 642.371624 
L 455.124772 643.114828 
L 453.107844 643.764416 
L 452.160269 644.215306 
L 451.467663 645.19924 
L 451.083305 646.129679 
L 450.784572 647.335237 
L 450.455394 648.282871 
L 450.107188 648.93819 
L 449.540165 649.648915 
L 448.615423 650.210617 
L 447.431905 650.499111 
L 446.379677 650.732198 
L 445.359797 651.366501 
L 444.684316 652.02182 
L 444.100168 652.768846 
L 443.46084 653.676358 
L 442.98515 654.259076 
L 442.220239 654.878095 
L 440.981541 655.567804 
L 440.199506 656.110401 
L 439.432693 656.930027 
L 439.05214 657.549046 
L 438.517464 658.460379 
L 438.093148 659.958252 
L 437.600333 661.142794 
L 437.124642 662.163029 
L 436.156136 663.712486 
L 434.637732 665.752955 
L 434.072612 666.18665 
L 433.220174 666.641362 
L 432.529471 666.673841 
L 431.876824 666.616525 
L 430.805569 666.299373 
L 429.953131 665.877141 
L 428.996042 665.636412 
L 428.432824 665.504583 
L 427.544234 665.500762 
L 426.705116 665.697549 
L 425.649083 666.295552 
L 424.941256 666.987172 
L 424.465565 667.770498 
L 423.805307 669.264549 
L 423.565559 670.047875 
L 423.413338 671.400546 
L 423.500865 672.407407 
L 423.641669 673.04362 
L 424.001291 673.962596 
L 424.414191 674.858644 
L 424.865145 675.53689 
L 425.152462 676.196031 
L 425.401724 676.929683 
L 425.397919 677.78561 
L 425.304683 678.517351 
L 425.032588 679.082874 
L 424.720535 679.701893 
L 423.968944 680.741233 
L 422.694094 682.103456 
L 421.946308 682.686175 
L 421.126218 683.138975 
L 419.99788 683.589866 
L 418.801042 684.078967 
L 417.653677 684.566158 
L 416.673754 684.873756 
L 416.034426 685.015137 
L 415.073531 685.248225 
L 414.420884 685.263509 
L 413.785361 685.259688 
L 413.241171 685.240582 
L 412.605649 685.255867 
L 412.242221 685.569197 
L 411.956807 686.184395 
L 411.922557 687.088086 
L 411.905432 687.665072 
L 411.916849 688.528642 
L 411.637143 689.883223 
L 411.22234 691.169024 
L 410.537346 692.357387 
L 409.958906 693.341321 
L 409.16926 694.405499 
L 407.94959 695.662642 
L 406.693766 696.875842 
L 405.257181 697.83876 
L 404.711088 698.167375 
L 403.83772 698.637371 
L 403.143212 699.036676 
L 402.237497 699.661426 
L 401.706627 700.280445 
L 401.369838 700.717962 
L 401.147215 701.228079 
L 400.991188 701.795513 
L 400.8618 702.349573 
L 400.633469 703.016355 
L 400.349957 703.51883 
L 399.971308 703.983094 
L 399.446145 704.573455 
L 398.294974 705.553568 
L 397.667063 706.147749 
L 397.347399 706.508844 
L 397.271288 706.919612 
L 397.254163 707.36095 
L 397.315052 707.70676 
L 397.503425 708.071675 
L 397.766006 708.50537 
L 397.990532 708.879838 
L 398.135142 709.33646 
L 398.131337 709.810277 
L 397.849728 710.440759 
L 397.5548 710.840064 
L 397.174247 711.193516 
L 397.006804 711.533595 
L 396.94211 711.927168 
L 397.022026 712.353221 
L 397.119067 712.739153 
L 397.191372 713.193864 
L 397.189469 713.625649 
L 397.130484 714.128124 
L 397.022026 714.502592 
L 396.803209 714.812101 
L 396.447392 715.192301 
L 395.946966 715.585875 
L 395.627302 715.67185 
L 395.246749 715.625996 
L 394.818628 715.559127 
L 394.302979 715.585875 
L 393.947163 715.731077 
L 393.627499 716.048228 
L 393.309737 716.510582 
L 393.098531 716.959561 
L 392.82263 717.450573 
L 392.459203 717.78683 
L 392.158566 717.951138 
L 391.31374 718.144103 
L 388.739302 713.417399 
L 388.474819 712.553829 
L 385.868034 707.84623 
L 384.539906 696.016094 
L 372.898807 696.617918 
L 370.916129 688.979532 
L 369.567071 690.269154 
L 367.05923 691.931334 
L 364.880567 693.7177 
L 361.615428 688.815225 
L 357.273324 683.360599 
L 352.491683 676.312574 
L 348.020192 678.54983 
L 342.332836 681.87419 
L 341.817187 680.179531 
L 340.848681 674.979009 
L 338.474034 673.725687 
L 336.264927 671.641275 
L 331.433814 672.139929 
L 326.01665 669.247354 
L 324.022555 666.28791 
L 323.468851 663.190905 
L 324.753216 662.782047 
L 325.746458 663.292165 
L 326.146038 660.825642 
L 328.945001 656.299545 
L 328.99257 655.355733 
L 329.21329 654.150175 
L 329.801244 652.873926 
L 330.716472 651.563288 
L 331.98942 650.363461 
L 333.665754 649.238146 
L 335.593252 648.078442 
L 337.34189 647.211051 
L 338.833656 645.825901 
L 340.513795 644.081567 
L 342.553556 642.190121 
L 343.94067 640.917694 
L 345.508546 639.645266 
L 347.076422 637.864632 
L 348.499688 636.29798 
L 350.143674 634.041618 
L 351.673495 632.291553 
L 353.281329 630.182304 
L 354.636096 628.178135 
L 355.912849 626.542703 
L 357.117298 624.901539 
L 359.383487 622.261157 
L 356.428498 620.052559 
L 351.228249 616.590639 
L 350.276868 615.893288 
L 343.457368 614.450821 
L 338.660505 615.427113 
L 337.872761 615.820687 
L 331.538466 619.471751 
L 329.62619 620.325768 
L 325.714111 622.587861 
L 324.846451 621.181695 
L 320.89822 624.567192 
L 310.101947 612.672098 
L 307.067041 606.808615 
L 307.379094 606.707355 
L 308.617792 605.901103 
L 309.498771 604.903795 
L 309.422661 604.284776 
L 309.133441 603.12125 
L 310.206599 602.611133 
L 308.54739 601.566061 
L 307.441885 601.45907 
L 304.970197 600.478957 
L 301.70696 600.983342 
L 300.382638 601.927155 
L 299.166773 601.233625 
L 296.647515 603.690594 
L 294.571602 606.562153 
L 293.926566 607.158246 
L 292.887657 606.397846 
L 291.907735 605.148345 
L 290.398844 605.624073 
L 290.895465 607.334016 
L 289.628226 607.45056 
L 289.611101 606.915605 
L 288.326736 607.049344 
L 288.187835 604.061241 
L 291.51196 602.750603 
L 291.03627 600.880173 
L 292.332051 598.264627 
L 292.682159 594.502751 
L 294.023606 593.129065 
L 294.52213 592.59411 
L 295.8103 591.686598 
L 297.619827 590.983515 
L 296.263158 586.770748 
L 298.055559 586.071487 
L 298.927025 585.983601 
L 302.606967 585.761977 
L 305.714177 585.758156 
L 308.511238 586.216689 
L 310.046767 584.501013 
L 308.863249 582.389853 
L 306.903404 581.745998 
L 307.263026 580.272962 
L 308.899401 576.66202 
L 309.186718 576.123244 
L 309.966851 573.641437 
L 310.590957 572.248645 
L 311.353964 572.372831 
L 312.566024 572.638398 
L 317.722509 574.803053 
L 318.658668 572.47409 
L 322.334805 567.795149 
L 324.414524 566.115774 
L 326.985156 564.19567 
L 318.150631 558.456373 
L 319.817451 557.40939 
L 322.098862 553.882512 
L 312.362428 544.753896 
L 310.899204 542.006523 
L 312.30154 541.391325 
L 313.285268 540.737916 
L 317.549358 538.252288 
L 320.177073 536.744863 
L 326.225954 537.881641 
L 332.664901 540.512471 
L 331.941851 538.577082 
L 332.048406 514.414335 
L 341.98463 497.282418 
L 358.13147 505.295272 
" clip-path="url(#p50416ac90c)" style="fill: #b3e2cd; fill-opacity: 0.65"/>
   </g>
   <g id="PatchCollection_2">
    <path d="M 292.721698 133.92 
L 571.532909 347.313778 
L 571.482695 354.31276 
L 570.283422 359.479732 
L 570.868521 365.7092 
L 570.158163 369.662457 
L 573.815158 373.772263 
L 575.303023 379.670022 
L 573.80513 389.98169 
L 574.180926 390.411564 
L 570.325188 392.683534 
L 567.695152 397.016245 
L 566.326742 402.115814 
L 563.704108 403.827897 
L 560.716771 407.698885 
L 555.82085 409.431106 
L 552.621565 413.748953 
L 546.429139 414.08649 
L 543.146875 415.652607 
L 541.936508 415.365489 
L 542.899515 418.848005 
L 539.648951 422.862284 
L 540.618846 426.636159 
L 538.355605 428.006979 
L 535.426417 431.760163 
L 534.582333 432.575854 
L 533.751453 435.989895 
L 533.270473 442.803667 
L 532.694888 448.252465 
L 529.423716 447.74829 
L 530.418442 451.491385 
L 533.653138 452.681754 
L 529.483444 456.246519 
L 529.640422 461.541403 
L 531.162118 465.996714 
L 531.459672 471.26506 
L 529.138834 475.862058 
L 532.567517 479.874751 
L 531.352394 485.222175 
L 533.092888 489.74063 
L 533.660539 491.43676 
L 536.908973 493.278322 
L 540.011541 497.434307 
L 541.722448 498.566309 
L 542.199185 497.923083 
L 545.547 501.616294 
L 548.834021 509.010129 
L 549.306534 512.275052 
L 551.488888 515.876977 
L 550.948199 519.093066 
L 553.802857 522.355333 
L 554.690286 527.6587 
L 555.411223 532.965792 
L 555.588827 537.772415 
L 553.626851 546.692571 
L 550.808651 547.404786 
L 546.436541 551.553874 
L 543.985669 556.448058 
L 542.210278 563.063343 
L 536.688043 564.509 
L 533.405779 568.684626 
L 533.735603 571.602458 
L 531.813281 573.315574 
L 529.087041 572.965847 
L 525.811645 574.74266 
L 525.771478 575.473981 
L 524.491871 575.646447 
L 523.79525 574.454492 
L 515.348033 576.967918 
L 511.38026 576.019539 
L 509.356463 577.968837 
L 507.658248 577.224257 
L 505.036127 578.416231 
L 503.846901 580.488109 
L 504.613828 581.916247 
L 504.848496 582.634824 
L 504.196267 584.12771 
L 503.449433 586.236214 
L 503.560421 589.315393 
L 501.787161 591.219583 
L 497.264409 592.010322 
L 496.029726 593.789275 
L 498.411337 598.10074 
L 496.783962 600.202347 
L 494.998524 601.737686 
L 494.03605 602.889328 
L 491.823556 602.239205 
L 489.663921 602.537462 
L 488.67184 605.117241 
L 485.416537 605.658577 
L 485.041274 607.634928 
L 482.660177 608.221888 
L 481.298103 609.975354 
L 481.344626 610.649893 
L 479.779071 611.886976 
L 479.326119 614.089937 
L 476.8245 614.476289 
L 475.319739 618.336673 
L 472.821298 621.687571 
L 473.476704 623.108811 
L 470.175412 624.026927 
L 469.967155 626.730892 
L 468.926458 628.631891 
L 466.182789 631.028564 
L 464.762054 633.817969 
L 465.398946 635.111317 
L 463.35243 638.6193 
L 463.028961 640.259719 
L 460.877774 641.640627 
L 459.863487 642.118265 
L 458.274167 642.281197 
L 458.524685 643.660501 
L 455.874575 644.275603 
L 453.21809 644.573324 
L 449.655168 647.475242 
L 449.035724 649.863432 
L 446.727559 650.647809 
L 444.945318 652.121054 
L 444.783051 653.423955 
L 442.460615 654.849437 
L 441.279323 655.776589 
L 439.876036 657.272647 
L 438.296744 658.624362 
L 436.59008 659.599813 
L 432.252829 667.529654 
L 425.075191 667.137475 
L 423.437236 668.02057 
L 422.774428 670.492614 
L 425.657113 675.698332 
L 425.657646 678.338084 
L 424.165043 680.025197 
L 423.401807 681.644389 
L 419.786045 684.908777 
L 416.897538 686.681348 
L 414.145402 687.107516 
L 412.637463 685.252676 
L 410.70987 688.326009 
L 411.097824 691.525667 
L 408.478881 694.771484 
L 405.091964 697.299774 
L 403.223014 699.497444 
L 401.609377 702.75333 
L 398.295926 705.304986 
L 397.258387 707.516985 
L 399.235681 711.469171 
L 399.763165 714.256456 
L 398.727738 716.968904 
L 396.858807 720.049134 
L 399.843499 722.675091 
L 397.307022 726.607637 
L 395.755205 724.956061 
L 393.051704 726.702095 
L 391.367226 725.52659 
L 389.521547 725.036209 
L 386.177443 729.559975 
L 382.767274 732.934219 
L 380.052128 732.752717 
L 379.173698 732.021396 
L 378.828556 728.815375 
L 375.773044 727.983769 
L 373.911495 730.467487 
L 373.723331 733.247855 
L 371.782 734.30504 
L 367.300462 732.220418 
L 363.069461 735.659411 
L 358.351125 734.795402 
L 356.868036 735.893453 
L 354.674037 734.402688 
L 350.343674 734.30397 
L 347.136473 733.38637 
L 344.645434 735.117024 
L 343.99585 737.929777 
L 341.195612 738.72 
L 339.800259 737.355541 
L 338.244218 737.150157 
L 336.891145 734.138917 
L 333.846193 734.282744 
L 331.295445 733.054163 
L 329.399552 730.28864 
L 325.315482 728.831309 
L 322.96715 727.549635 
L 319.72294 725.437424 
L 316.459703 724.03529 
L 313.403658 721.993655 
L 312.319616 720.194546 
L 310.932712 720.169613 
L 310.245073 720.802751 
L 309.449623 718.44534 
L 306.916837 716.371857 
L 305.530447 712.46902 
L 305.864495 711.70799 
L 305.646743 711.327465 
L 306.560583 710.747938 
L 305.711209 707.738284 
L 303.799466 707.146548 
L 306.148331 704.565182 
L 306.126658 703.200189 
L 304.636681 702.49594 
L 308.195912 698.359596 
L 307.361855 695.059653 
L 304.021994 695.035236 
L 300.48337 695.265572 
L 298.908834 692.810513 
L 300.238142 693.044021 
L 302.576408 692.530292 
L 302.598614 691.914139 
L 301.063712 688.653993 
L 299.785703 688.948008 
L 297.98706 689.697364 
L 296.186838 683.65897 
L 296.434197 675.209556 
L 296.267172 667.467561 
L 295.169906 660.252057 
L 294.516098 652.916073 
L 293.301508 645.437849 
L 292.262923 637.261739 
L 290.74705 628.737506 
L 288.680441 621.836173 
L 286.044582 614.75863 
L 283.210532 607.779289 
L 279.097921 599.512963 
L 271.719428 590.11729 
L 265.109974 586.661312 
L 257.855161 584.561826 
L 251.27636 583.873512 
L 247.25942 583.813004 
L 241.09976 580.600622 
L 234.157323 575.060022 
L 229.498201 570.518755 
L 223.563162 565.431911 
L 216.259733 561.596995 
L 208.674581 559.614797 
L 192.061355 553.284509 
L 184.8594 552.314369 
L 177.777414 551.743859 
L 170.339193 551.515663 
L 162.696977 551.792693 
L 164.566441 547.275289 
L 168.547438 541.832338 
L 171.52684 537.026784 
L 177.144746 537.785694 
L 182.308633 538.733537 
L 190.047585 530.098379 
L 194.517497 527.284556 
L 198.378525 523.444882 
L 199.721019 518.469481 
L 202.317243 513.800303 
L 202.801382 513.738745 
L 207.774993 512.504853 
L 207.959979 507.352191 
L 210.826814 502.905382 
L 210.127549 496.245524 
L 203.200962 487.88686 
L 204.580464 480.113035 
L 209.523422 478.630772 
L 216.239107 481.887193 
L 221.540412 481.80865 
L 220.115452 476.556218 
L 218.74495 473.607607 
L 221.902469 469.310986 
L 226.258476 471.598426 
L 231.55952 473.573637 
L 232.535909 468.412523 
L 235.241958 461.261589 
L 243.421051 456.443057 
L 244.26925 450.453541 
L 240.682199 446.612046 
L 240.312759 445.859499 
L 242.455478 439.594475 
L 246.477708 436.439944 
L 251.830806 435.892782 
L 253.526377 436.274892 
L 256.546479 433.312486 
L 254.170138 428.756336 
L 253.557563 424.347222 
L 254.935486 419.387201 
L 259.463528 416.856255 
L 263.921281 413.855103 
L 264.931857 409.02989 
L 265.28069 403.678759 
L 259.602011 399.575315 
L 256.316035 397.911549 
L 240.731367 398.243775 
L 234.41842 399.010116 
L 232.999797 393.895149 
L 232.587012 390.955555 
L 234.133006 389.975327 
L 232.802652 382.890371 
L 231.206444 377.842254 
L 233.374013 374.116679 
L 237.53895 363.741867 
L 239.708632 359.64744 
L 242.036871 354.659849 
L 246.266806 351.596586 
L 250.327624 348.351838 
L 254.012114 345.713156 
L 258.762683 343.101528 
L 262.077181 340.152916 
L 267.798159 341.209031 
L 273.148079 341.152249 
L 273.856858 337.319988 
L 274.274419 337.296106 
L 279.477941 335.208293 
L 284.230089 335.348948 
L 288.742281 332.075524 
L 289.463751 329.403942 
L 283.311474 329.073837 
L 283.803547 324.388744 
L 280.772885 319.545495 
L 276.44197 317.803168 
L 271.516993 318.529177 
L 267.049212 316.029545 
L 269.926607 311.835884 
L 274.154964 312.028009 
L 277.385435 307.463912 
L 280.881761 301.77895 
L 283.735904 299.065432 
L 284.665613 295.469888 
L 281.175623 291.977285 
L 279.277085 288.189101 
L 279.96208 282.357658 
L 279.440418 271.346518 
L 281.943083 270.40026 
L 283.085255 268.034901 
L 283.174589 263.834343 
L 277.68512 259.45918 
L 278.854786 256.551416 
L 280.125413 251.301124 
L 280.48747 246.698815 
L 279.127509 244.084015 
L 278.446758 243.301205 
L 282.831026 239.739096 
L 282.137051 234.086518 
L 284.440459 229.090426 
L 288.814681 225.950759 
L 290.881309 221.057091 
L 291.594312 216.913314 
L 290.817871 212.60395 
L 291.768719 209.076327 
L 294.220124 205.143246 
L 296.02457 201.593346 
L 298.555244 195.163269 
L 296.832198 191.670685 
L 294.909875 189.077111 
L 290.517653 186.588083 
L 285.400821 179.635795 
L 287.146605 175.073283 
L 290.614922 168.433065 
L 289.672522 162.477455 
L 290.270827 160.265457 
L 292.721698 133.92 
L 292.721698 133.92 
" clip-path="url(#p50416ac90c)" style="fill: none; stroke: #000000; stroke-width: 2"/>
   </g>
   <g id="matplotlib.axis_1">
    <g id="xtick_1">
     <g id="line2d_1">
      <path d="M 229.306859 768.96 
L 229.306859 103.68 
" clip-path="url(#p50416ac90c)" style="fill: none; stroke: #b0b0b0; stroke-width: 0.8; stroke-linecap: square"/>
     </g>
     <g id="line2d_2">
      <defs>
       <path id="mf222c414c4" d="M 0 0 
L 0 3.5 
" style="stroke: #000000; stroke-width: 0.8"/>
      </defs>
      <g>
       <use xlink:href="#mf222c414c4" x="229.306859" y="768.96" style="stroke: #000000; stroke-width: 0.8"/>
      </g>
     </g>
     <g id="text_1">
      <!-- −47.90 -->
      <g transform="translate(218.173794 807.501382) rotate(-45) scale(0.1 -0.1)">
       <defs>
        <path id="DejaVuSans-2212" d="M 678 2272 
L 4684 2272 
L 4684 1741 
L 678 1741 
L 678 2272 
z
" transform="scale(0.015625)"/>
        <path id="DejaVuSans-34" d="M 2419 4116 
L 825 1625 
L 2419 1625 
L 2419 4116 
z
M 2253 4666 
L 3047 4666 
L 3047 1625 
L 3713 1625 
L 3713 1100 
L 3047 1100 
L 3047 0 
L 2419 0 
L 2419 1100 
L 313 1100 
L 313 1709 
L 2253 4666 
z
" transform="scale(0.015625)"/>
        <path id="DejaVuSans-37" d="M 525 4666 
L 3525 4666 
L 3525 4397 
L 1831 0 
L 1172 0 
L 2766 4134 
L 525 4134 
L 525 4666 
z
" transform="scale(0.015625)"/>
        <path id="DejaVuSans-2e" d="M 684 794 
L 1344 794 
L 1344 0 
L 684 0 
L 684 794 
z
" transform="scale(0.015625)"/>
        <path id="DejaVuSans-39" d="M 703 97 
L 703 672 
Q 941 559 1184 500 
Q 1428 441 1663 441 
Q 2288 441 2617 861 
Q 2947 1281 2994 2138 
Q 2813 1869 2534 1725 
Q 2256 1581 1919 1581 
Q 1219 1581 811 2004 
Q 403 2428 403 3163 
Q 403 3881 828 4315 
Q 1253 4750 1959 4750 
Q 2769 4750 3195 4129 
Q 3622 3509 3622 2328 
Q 3622 1225 3098 567 
Q 2575 -91 1691 -91 
Q 1453 -91 1209 -44 
Q 966 3 703 97 
z
M 1959 2075 
Q 2384 2075 2632 2365 
Q 2881 2656 2881 3163 
Q 2881 3666 2632 3958 
Q 2384 4250 1959 4250 
Q 1534 4250 1286 3958 
Q 1038 3666 1038 3163 
Q 1038 2656 1286 2365 
Q 1534 2075 1959 2075 
z
" transform="scale(0.015625)"/>
        <path id="DejaVuSans-30" d="M 2034 4250 
Q 1547 4250 1301 3770 
Q 1056 3291 1056 2328 
Q 1056 1369 1301 889 
Q 1547 409 2034 409 
Q 2525 409 2770 889 
Q 3016 1369 3016 2328 
Q 3016 3291 2770 3770 
Q 2525 4250 2034 4250 
z
M 2034 4750 
Q 2819 4750 3233 4129 
Q 3647 3509 3647 2328 
Q 3647 1150 3233 529 
Q 2819 -91 2034 -91 
Q 1250 -91 836 529 
Q 422 1150 422 2328 
Q 422 3509 836 4129 
Q 1250 4750 2034 4750 
z
" transform="scale(0.015625)"/>
       </defs>
       <use xlink:href="#DejaVuSans-2212"/>
       <use xlink:href="#DejaVuSans-34" transform="translate(83.789062 0)"/>
       <use xlink:href="#DejaVuSans-37" transform="translate(147.412109 0)"/>
       <use xlink:href="#DejaVuSans-2e" transform="translate(211.035156 0)"/>
       <use xlink:href="#DejaVuSans-39" transform="translate(242.822266 0)"/>
       <use xlink:href="#DejaVuSans-30" transform="translate(306.445312 0)"/>
      </g>
     </g>
    </g>
    <g id="xtick_2">
     <g id="line2d_3">
      <path d="M 324.444968 768.96 
L 324.444968 103.68 
" clip-path="url(#p50416ac90c)" style="fill: none; stroke: #b0b0b0; stroke-width: 0.8; stroke-linecap: square"/>
     </g>
     <g id="line2d_4">
      <g>
       <use xlink:href="#mf222c414c4" x="324.444968" y="768.96" style="stroke: #000000; stroke-width: 0.8"/>
      </g>
     </g>
     <g id="text_2">
      <!-- −47.85 -->
      <g transform="translate(313.311903 807.501382) rotate(-45) scale(0.1 -0.1)">
       <defs>
        <path id="DejaVuSans-38" d="M 2034 2216 
Q 1584 2216 1326 1975 
Q 1069 1734 1069 1313 
Q 1069 891 1326 650 
Q 1584 409 2034 409 
Q 2484 409 2743 651 
Q 3003 894 3003 1313 
Q 3003 1734 2745 1975 
Q 2488 2216 2034 2216 
z
M 1403 2484 
Q 997 2584 770 2862 
Q 544 3141 544 3541 
Q 544 4100 942 4425 
Q 1341 4750 2034 4750 
Q 2731 4750 3128 4425 
Q 3525 4100 3525 3541 
Q 3525 3141 3298 2862 
Q 3072 2584 2669 2484 
Q 3125 2378 3379 2068 
Q 3634 1759 3634 1313 
Q 3634 634 3220 271 
Q 2806 -91 2034 -91 
Q 1263 -91 848 271 
Q 434 634 434 1313 
Q 434 1759 690 2068 
Q 947 2378 1403 2484 
z
M 1172 3481 
Q 1172 3119 1398 2916 
Q 1625 2713 2034 2713 
Q 2441 2713 2670 2916 
Q 2900 3119 2900 3481 
Q 2900 3844 2670 4047 
Q 2441 4250 2034 4250 
Q 1625 4250 1398 4047 
Q 1172 3844 1172 3481 
z
" transform="scale(0.015625)"/>
        <path id="DejaVuSans-35" d="M 691 4666 
L 3169 4666 
L 3169 4134 
L 1269 4134 
L 1269 2991 
Q 1406 3038 1543 3061 
Q 1681 3084 1819 3084 
Q 2600 3084 3056 2656 
Q 3513 2228 3513 1497 
Q 3513 744 3044 326 
Q 2575 -91 1722 -91 
Q 1428 -91 1123 -41 
Q 819 9 494 109 
L 494 744 
Q 775 591 1075 516 
Q 1375 441 1709 441 
Q 2250 441 2565 725 
Q 2881 1009 2881 1497 
Q 2881 1984 2565 2268 
Q 2250 2553 1709 2553 
Q 1456 2553 1204 2497 
Q 953 2441 691 2322 
L 691 4666 
z
" transform="scale(0.015625)"/>
       </defs>
       <use xlink:href="#DejaVuSans-2212"/>
       <use xlink:href="#DejaVuSans-34" transform="translate(83.789062 0)"/>
       <use xlink:href="#DejaVuSans-37" transform="translate(147.412109 0)"/>
       <use xlink:href="#DejaVuSans-2e" transform="translate(211.035156 0)"/>
       <use xlink:href="#DejaVuSans-38" transform="translate(242.822266 0)"/>
       <use xlink:href="#DejaVuSans-35" transform="translate(306.445312 0)"/>
      </g>
     </g>
    </g>
    <g id="xtick_3">
     <g id="line2d_5">
      <path d="M 419.583078 768.96 
L 419.583078 103.68 
" clip-path="url(#p50416ac90c)" style="fill: none; stroke: #b0b0b0; stroke-width: 0.8; stroke-linecap: square"/>
     </g>
     <g id="line2d_6">
      <g>
       <use xlink:href="#mf222c414c4" x="419.583078" y="768.96" style="stroke: #000000; stroke-width: 0.8"/>
      </g>
     </g>
     <g id="text_3">
      <!-- −47.80 -->
      <g transform="translate(408.450013 807.501382) rotate(-45) scale(0.1 -0.1)">
       <use xlink:href="#DejaVuSans-2212"/>
       <use xlink:href="#DejaVuSans-34" transform="translate(83.789062 0)"/>
       <use xlink:href="#DejaVuSans-37" transform="translate(147.412109 0)"/>
       <use xlink:href="#DejaVuSans-2e" transform="translate(211.035156 0)"/>
       <use xlink:href="#DejaVuSans-38" transform="translate(242.822266 0)"/>
       <use xlink:href="#DejaVuSans-30" transform="translate(306.445312 0)"/>
      </g>
     </g>
    </g>
    <g id="xtick_4">
     <g id="line2d_7">
      <path d="M 514.721187 768.96 
L 514.721187 103.68 
" clip-path="url(#p50416ac90c)" style="fill: none; stroke: #b0b0b0; stroke-width: 0.8; stroke-linecap: square"/>
     </g>
     <g id="line2d_8">
      <g>
       <use xlink:href="#mf222c414c4" x="514.721187" y="768.96" style="stroke: #000000; stroke-width: 0.8"/>
      </g>
     </g>
     <g id="text_4">
      <!-- −47.75 -->
      <g transform="translate(503.588122 807.501382) rotate(-45) scale(0.1 -0.1)">
       <use xlink:href="#DejaVuSans-2212"/>
       <use xlink:href="#DejaVuSans-34" transform="translate(83.789062 0)"/>
       <use xlink:href="#DejaVuSans-37" transform="translate(147.412109 0)"/>
       <use xlink:href="#DejaVuSans-2e" transform="translate(211.035156 0)"/>
       <use xlink:href="#DejaVuSans-37" transform="translate(242.822266 0)"/>
       <use xlink:href="#DejaVuSans-35" transform="translate(306.445312 0)"/>
      </g>
     </g>
    </g>
    <g id="text_5">
     <!-- Longitude (°) -->
     <g transform="translate(336.139844 820.57038) scale(0.1 -0.1)">
      <defs>
       <path id="DejaVuSans-4c" d="M 628 4666 
L 1259 4666 
L 1259 531 
L 3531 531 
L 3531 0 
L 628 0 
L 628 4666 
z
" transform="scale(0.015625)"/>
       <path id="DejaVuSans-6f" d="M 1959 3097 
Q 1497 3097 1228 2736 
Q 959 2375 959 1747 
Q 959 1119 1226 758 
Q 1494 397 1959 397 
Q 2419 397 2687 759 
Q 2956 1122 2956 1747 
Q 2956 2369 2687 2733 
Q 2419 3097 1959 3097 
z
M 1959 3584 
Q 2709 3584 3137 3096 
Q 3566 2609 3566 1747 
Q 3566 888 3137 398 
Q 2709 -91 1959 -91 
Q 1206 -91 779 398 
Q 353 888 353 1747 
Q 353 2609 779 3096 
Q 1206 3584 1959 3584 
z
" transform="scale(0.015625)"/>
       <path id="DejaVuSans-6e" d="M 3513 2113 
L 3513 0 
L 2938 0 
L 2938 2094 
Q 2938 2591 2744 2837 
Q 2550 3084 2163 3084 
Q 1697 3084 1428 2787 
Q 1159 2491 1159 1978 
L 1159 0 
L 581 0 
L 581 3500 
L 1159 3500 
L 1159 2956 
Q 1366 3272 1645 3428 
Q 1925 3584 2291 3584 
Q 2894 3584 3203 3211 
Q 3513 2838 3513 2113 
z
" transform="scale(0.015625)"/>
       <path id="DejaVuSans-67" d="M 2906 1791 
Q 2906 2416 2648 2759 
Q 2391 3103 1925 3103 
Q 1463 3103 1205 2759 
Q 947 2416 947 1791 
Q 947 1169 1205 825 
Q 1463 481 1925 481 
Q 2391 481 2648 825 
Q 2906 1169 2906 1791 
z
M 3481 434 
Q 3481 -459 3084 -895 
Q 2688 -1331 1869 -1331 
Q 1566 -1331 1297 -1286 
Q 1028 -1241 775 -1147 
L 775 -588 
Q 1028 -725 1275 -790 
Q 1522 -856 1778 -856 
Q 2344 -856 2625 -561 
Q 2906 -266 2906 331 
L 2906 616 
Q 2728 306 2450 153 
Q 2172 0 1784 0 
Q 1141 0 747 490 
Q 353 981 353 1791 
Q 353 2603 747 3093 
Q 1141 3584 1784 3584 
Q 2172 3584 2450 3431 
Q 2728 3278 2906 2969 
L 2906 3500 
L 3481 3500 
L 3481 434 
z
" transform="scale(0.015625)"/>
       <path id="DejaVuSans-69" d="M 603 3500 
L 1178 3500 
L 1178 0 
L 603 0 
L 603 3500 
z
M 603 4863 
L 1178 4863 
L 1178 4134 
L 603 4134 
L 603 4863 
z
" transform="scale(0.015625)"/>
       <path id="DejaVuSans-74" d="M 1172 4494 
L 1172 3500 
L 2356 3500 
L 2356 3053 
L 1172 3053 
L 1172 1153 
Q 1172 725 1289 603 
Q 1406 481 1766 481 
L 2356 481 
L 2356 0 
L 1766 0 
Q 1100 0 847 248 
Q 594 497 594 1153 
L 594 3053 
L 172 3053 
L 172 3500 
L 594 3500 
L 594 4494 
L 1172 4494 
z
" transform="scale(0.015625)"/>
       <path id="DejaVuSans-75" d="M 544 1381 
L 544 3500 
L 1119 3500 
L 1119 1403 
Q 1119 906 1312 657 
Q 1506 409 1894 409 
Q 2359 409 2629 706 
Q 2900 1003 2900 1516 
L 2900 3500 
L 3475 3500 
L 3475 0 
L 2900 0 
L 2900 538 
Q 2691 219 2414 64 
Q 2138 -91 1772 -91 
Q 1169 -91 856 284 
Q 544 659 544 1381 
z
M 1991 3584 
L 1991 3584 
z
" transform="scale(0.015625)"/>
       <path id="DejaVuSans-64" d="M 2906 2969 
L 2906 4863 
L 3481 4863 
L 3481 0 
L 2906 0 
L 2906 525 
Q 2725 213 2448 61 
Q 2172 -91 1784 -91 
Q 1150 -91 751 415 
Q 353 922 353 1747 
Q 353 2572 751 3078 
Q 1150 3584 1784 3584 
Q 2172 3584 2448 3432 
Q 2725 3281 2906 2969 
z
M 947 1747 
Q 947 1113 1208 752 
Q 1469 391 1925 391 
Q 2381 391 2643 752 
Q 2906 1113 2906 1747 
Q 2906 2381 2643 2742 
Q 2381 3103 1925 3103 
Q 1469 3103 1208 2742 
Q 947 2381 947 1747 
z
" transform="scale(0.015625)"/>
       <path id="DejaVuSans-65" d="M 3597 1894 
L 3597 1613 
L 953 1613 
Q 991 1019 1311 708 
Q 1631 397 2203 397 
Q 2534 397 2845 478 
Q 3156 559 3463 722 
L 3463 178 
Q 3153 47 2828 -22 
Q 2503 -91 2169 -91 
Q 1331 -91 842 396 
Q 353 884 353 1716 
Q 353 2575 817 3079 
Q 1281 3584 2069 3584 
Q 2775 3584 3186 3129 
Q 3597 2675 3597 1894 
z
M 3022 2063 
Q 3016 2534 2758 2815 
Q 2500 3097 2075 3097 
Q 1594 3097 1305 2825 
Q 1016 2553 972 2059 
L 3022 2063 
z
" transform="scale(0.015625)"/>
       <path id="DejaVuSans-20" transform="scale(0.015625)"/>
       <path id="DejaVuSans-28" d="M 1984 4856 
Q 1566 4138 1362 3434 
Q 1159 2731 1159 2009 
Q 1159 1288 1364 580 
Q 1569 -128 1984 -844 
L 1484 -844 
Q 1016 -109 783 600 
Q 550 1309 550 2009 
Q 550 2706 781 3412 
Q 1013 4119 1484 4856 
L 1984 4856 
z
" transform="scale(0.015625)"/>
       <path id="DejaVuSans-b0" d="M 1600 4347 
Q 1350 4347 1178 4173 
Q 1006 4000 1006 3750 
Q 1006 3503 1178 3333 
Q 1350 3163 1600 3163 
Q 1850 3163 2022 3333 
Q 2194 3503 2194 3750 
Q 2194 3997 2020 4172 
Q 1847 4347 1600 4347 
z
M 1600 4750 
Q 1800 4750 1984 4673 
Q 2169 4597 2303 4453 
Q 2447 4313 2519 4134 
Q 2591 3956 2591 3750 
Q 2591 3338 2302 3052 
Q 2013 2766 1594 2766 
Q 1172 2766 890 3047 
Q 609 3328 609 3750 
Q 609 4169 896 4459 
Q 1184 4750 1600 4750 
z
" transform="scale(0.015625)"/>
       <path id="DejaVuSans-29" d="M 513 4856 
L 1013 4856 
Q 1481 4119 1714 3412 
Q 1947 2706 1947 2009 
Q 1947 1309 1714 600 
Q 1481 -109 1013 -844 
L 513 -844 
Q 928 -128 1133 580 
Q 1338 1288 1338 2009 
Q 1338 2731 1133 3434 
Q 928 4138 513 4856 
z
" transform="scale(0.015625)"/>
      </defs>
      <use xlink:href="#DejaVuSans-4c"/>
      <use xlink:href="#DejaVuSans-6f" transform="translate(53.962891 0)"/>
      <use xlink:href="#DejaVuSans-6e" transform="translate(115.144531 0)"/>
      <use xlink:href="#DejaVuSans-67" transform="translate(178.523438 0)"/>
      <use xlink:href="#DejaVuSans-69" transform="translate(242 0)"/>
      <use xlink:href="#DejaVuSans-74" transform="translate(269.783203 0)"/>
      <use xlink:href="#DejaVuSans-75" transform="translate(308.992188 0)"/>
      <use xlink:href="#DejaVuSans-64" transform="translate(372.371094 0)"/>
      <use xlink:href="#DejaVuSans-65" transform="translate(435.847656 0)"/>
      <use xlink:href="#DejaVuSans-20" transform="translate(497.371094 0)"/>
      <use xlink:href="#DejaVuSans-28" transform="translate(529.158203 0)"/>
      <use xlink:href="#DejaVuSans-b0" transform="translate(568.171875 0)"/>
      <use xlink:href="#DejaVuSans-29" transform="translate(618.171875 0)"/>
     </g>
    </g>
   </g>
   <g id="matplotlib.axis_2">
    <g id="ytick_1">
     <g id="line2d_9">
      <path d="M 142.066675 673.993165 
L 595.933325 673.993165 
" clip-path="url(#p50416ac90c)" style="fill: none; stroke: #b0b0b0; stroke-width: 0.8; stroke-linecap: square"/>
     </g>
     <g id="line2d_10">
      <defs>
       <path id="m60f5afc27e" d="M 0 0 
L -3.5 0 
" style="stroke: #000000; stroke-width: 0.8"/>
      </defs>
      <g>
       <use xlink:href="#m60f5afc27e" x="142.066675" y="673.993165" style="stroke: #000000; stroke-width: 0.8"/>
      </g>
     </g>
     <g id="text_6">
      <!-- −5.30 -->
      <g transform="translate(104.421363 677.792383) scale(0.1 -0.1)">
       <defs>
        <path id="DejaVuSans-33" d="M 2597 2516 
Q 3050 2419 3304 2112 
Q 3559 1806 3559 1356 
Q 3559 666 3084 287 
Q 2609 -91 1734 -91 
Q 1441 -91 1130 -33 
Q 819 25 488 141 
L 488 750 
Q 750 597 1062 519 
Q 1375 441 1716 441 
Q 2309 441 2620 675 
Q 2931 909 2931 1356 
Q 2931 1769 2642 2001 
Q 2353 2234 1838 2234 
L 1294 2234 
L 1294 2753 
L 1863 2753 
Q 2328 2753 2575 2939 
Q 2822 3125 2822 3475 
Q 2822 3834 2567 4026 
Q 2313 4219 1838 4219 
Q 1578 4219 1281 4162 
Q 984 4106 628 3988 
L 628 4550 
Q 988 4650 1302 4700 
Q 1616 4750 1894 4750 
Q 2613 4750 3031 4423 
Q 3450 4097 3450 3541 
Q 3450 3153 3228 2886 
Q 3006 2619 2597 2516 
z
" transform="scale(0.015625)"/>
       </defs>
       <use xlink:href="#DejaVuSans-2212"/>
       <use xlink:href="#DejaVuSans-35" transform="translate(83.789062 0)"/>
       <use xlink:href="#DejaVuSans-2e" transform="translate(147.412109 0)"/>
       <use xlink:href="#DejaVuSans-33" transform="translate(179.199219 0)"/>
       <use xlink:href="#DejaVuSans-30" transform="translate(242.822266 0)"/>
      </g>
     </g>
    </g>
    <g id="ytick_2">
     <g id="line2d_11">
      <path d="M 142.066675 578.46558 
L 595.933325 578.46558 
" clip-path="url(#p50416ac90c)" style="fill: none; stroke: #b0b0b0; stroke-width: 0.8; stroke-linecap: square"/>
     </g>
     <g id="line2d_12">
      <g>
       <use xlink:href="#m60f5afc27e" x="142.066675" y="578.46558" style="stroke: #000000; stroke-width: 0.8"/>
      </g>
     </g>
     <g id="text_7">
      <!-- −5.25 -->
      <g transform="translate(104.421363 582.264799) scale(0.1 -0.1)">
       <defs>
        <path id="DejaVuSans-32" d="M 1228 531 
L 3431 531 
L 3431 0 
L 469 0 
L 469 531 
Q 828 903 1448 1529 
Q 2069 2156 2228 2338 
Q 2531 2678 2651 2914 
Q 2772 3150 2772 3378 
Q 2772 3750 2511 3984 
Q 2250 4219 1831 4219 
Q 1534 4219 1204 4116 
Q 875 4013 500 3803 
L 500 4441 
Q 881 4594 1212 4672 
Q 1544 4750 1819 4750 
Q 2544 4750 2975 4387 
Q 3406 4025 3406 3419 
Q 3406 3131 3298 2873 
Q 3191 2616 2906 2266 
Q 2828 2175 2409 1742 
Q 1991 1309 1228 531 
z
" transform="scale(0.015625)"/>
       </defs>
       <use xlink:href="#DejaVuSans-2212"/>
       <use xlink:href="#DejaVuSans-35" transform="translate(83.789062 0)"/>
       <use xlink:href="#DejaVuSans-2e" transform="translate(147.412109 0)"/>
       <use xlink:href="#DejaVuSans-32" transform="translate(179.199219 0)"/>
       <use xlink:href="#DejaVuSans-35" transform="translate(242.822266 0)"/>
      </g>
     </g>
    </g>
    <g id="ytick_3">
     <g id="line2d_13">
      <path d="M 142.066675 482.937996 
L 595.933325 482.937996 
" clip-path="url(#p50416ac90c)" style="fill: none; stroke: #b0b0b0; stroke-width: 0.8; stroke-linecap: square"/>
     </g>
     <g id="line2d_14">
      <g>
       <use xlink:href="#m60f5afc27e" x="142.066675" y="482.937996" style="stroke: #000000; stroke-width: 0.8"/>
      </g>
     </g>
     <g id="text_8">
      <!-- −5.20 -->
      <g transform="translate(104.421363 486.737215) scale(0.1 -0.1)">
       <use xlink:href="#DejaVuSans-2212"/>
       <use xlink:href="#DejaVuSans-35" transform="translate(83.789062 0)"/>
       <use xlink:href="#DejaVuSans-2e" transform="translate(147.412109 0)"/>
       <use xlink:href="#DejaVuSans-32" transform="translate(179.199219 0)"/>
       <use xlink:href="#DejaVuSans-30" transform="translate(242.822266 0)"/>
      </g>
     </g>
    </g>
    <g id="ytick_4">
     <g id="line2d_15">
      <path d="M 142.066675 387.410412 
L 595.933325 387.410412 
" clip-path="url(#p50416ac90c)" style="fill: none; stroke: #b0b0b0; stroke-width: 0.8; stroke-linecap: square"/>
     </g>
     <g id="line2d_16">
      <g>
       <use xlink:href="#m60f5afc27e" x="142.066675" y="387.410412" style="stroke: #000000; stroke-width: 0.8"/>
      </g>
     </g>
     <g id="text_9">
      <!-- −5.15 -->
      <g transform="translate(104.421363 391.209631) scale(0.1 -0.1)">
       <defs>
        <path id="DejaVuSans-31" d="M 794 531 
L 1825 531 
L 1825 4091 
L 703 3866 
L 703 4441 
L 1819 4666 
L 2450 4666 
L 2450 531 
L 3481 531 
L 3481 0 
L 794 0 
L 794 531 
z
" transform="scale(0.015625)"/>
       </defs>
       <use xlink:href="#DejaVuSans-2212"/>
       <use xlink:href="#DejaVuSans-35" transform="translate(83.789062 0)"/>
       <use xlink:href="#DejaVuSans-2e" transform="translate(147.412109 0)"/>
       <use xlink:href="#DejaVuSans-31" transform="translate(179.199219 0)"/>
       <use xlink:href="#DejaVuSans-35" transform="translate(242.822266 0)"/>
      </g>
     </g>
    </g>
    <g id="ytick_5">
     <g id="line2d_17">
      <path d="M 142.066675 291.882828 
L 595.933325 291.882828 
" clip-path="url(#p50416ac90c)" style="fill: none; stroke: #b0b0b0; stroke-width: 0.8; stroke-linecap: square"/>
     </g>
     <g id="line2d_18">
      <g>
       <use xlink:href="#m60f5afc27e" x="142.066675" y="291.882828" style="stroke: #000000; stroke-width: 0.8"/>
      </g>
     </g>
     <g id="text_10">
      <!-- −5.10 -->
      <g transform="translate(104.421363 295.682046) scale(0.1 -0.1)">
       <use xlink:href="#DejaVuSans-2212"/>
       <use xlink:href="#DejaVuSans-35" transform="translate(83.789062 0)"/>
       <use xlink:href="#DejaVuSans-2e" transform="translate(147.412109 0)"/>
       <use xlink:href="#DejaVuSans-31" transform="translate(179.199219 0)"/>
       <use xlink:href="#DejaVuSans-30" transform="translate(242.822266 0)"/>
      </g>
     </g>
    </g>
    <g id="ytick_6">
     <g id="line2d_19">
      <path d="M 142.066675 196.355243 
L 595.933325 196.355243 
" clip-path="url(#p50416ac90c)" style="fill: none; stroke: #b0b0b0; stroke-width: 0.8; stroke-linecap: square"/>
     </g>
     <g id="line2d_20">
      <g>
       <use xlink:href="#m60f5afc27e" x="142.066675" y="196.355243" style="stroke: #000000; stroke-width: 0.8"/>
      </g>
     </g>
     <g id="text_11">
      <!-- −5.05 -->
      <g transform="translate(104.421363 200.154462) scale(0.1 -0.1)">
       <use xlink:href="#DejaVuSans-2212"/>
       <use xlink:href="#DejaVuSans-35" transform="translate(83.789062 0)"/>
       <use xlink:href="#DejaVuSans-2e" transform="translate(147.412109 0)"/>
       <use xlink:href="#DejaVuSans-30" transform="translate(179.199219 0)"/>
       <use xlink:href="#DejaVuSans-35" transform="translate(242.822266 0)"/>
      </g>
     </g>
    </g>
    <g id="text_12">
     <!-- Latitude (°) -->
     <g transform="translate(98.341675 464.889531) rotate(-90) scale(0.1 -0.1)">
      <defs>
       <path id="DejaVuSans-61" d="M 2194 1759 
Q 1497 1759 1228 1600 
Q 959 1441 959 1056 
Q 959 750 1161 570 
Q 1363 391 1709 391 
Q 2188 391 2477 730 
Q 2766 1069 2766 1631 
L 2766 1759 
L 2194 1759 
z
M 3341 1997 
L 3341 0 
L 2766 0 
L 2766 531 
Q 2569 213 2275 61 
Q 1981 -91 1556 -91 
Q 1019 -91 701 211 
Q 384 513 384 1019 
Q 384 1609 779 1909 
Q 1175 2209 1959 2209 
L 2766 2209 
L 2766 2266 
Q 2766 2663 2505 2880 
Q 2244 3097 1772 3097 
Q 1472 3097 1187 3025 
Q 903 2953 641 2809 
L 641 3341 
Q 956 3463 1253 3523 
Q 1550 3584 1831 3584 
Q 2591 3584 2966 3190 
Q 3341 2797 3341 1997 
z
" transform="scale(0.015625)"/>
      </defs>
      <use xlink:href="#DejaVuSans-4c"/>
      <use xlink:href="#DejaVuSans-61" transform="translate(55.712891 0)"/>
      <use xlink:href="#DejaVuSans-74" transform="translate(116.992188 0)"/>
      <use xlink:href="#DejaVuSans-69" transform="translate(156.201172 0)"/>
      <use xlink:href="#DejaVuSans-74" transform="translate(183.984375 0)"/>
      <use xlink:href="#DejaVuSans-75" transform="translate(223.193359 0)"/>
      <use xlink:href="#DejaVuSans-64" transform="translate(286.572266 0)"/>
      <use xlink:href="#DejaVuSans-65" transform="translate(350.048828 0)"/>
      <use xlink:href="#DejaVuSans-20" transform="translate(411.572266 0)"/>
      <use xlink:href="#DejaVuSans-28" transform="translate(443.359375 0)"/>
      <use xlink:href="#DejaVuSans-b0" transform="translate(482.373047 0)"/>
      <use xlink:href="#DejaVuSans-29" transform="translate(532.373047 0)"/>
     </g>
    </g>
   </g>
   <g id="patch_3">
    <path d="M 142.066675 768.96 
L 142.066675 103.68 
" style="fill: none; stroke: #000000; stroke-width: 0.8; stroke-linejoin: miter; stroke-linecap: square"/>
   </g>
   <g id="patch_4">
    <path d="M 595.933325 768.96 
L 595.933325 103.68 
" style="fill: none; stroke: #000000; stroke-width: 0.8; stroke-linejoin: miter; stroke-linecap: square"/>
   </g>
   <g id="patch_5">
    <path d="M 142.066675 768.96 
L 595.933325 768.96 
" style="fill: none; stroke: #000000; stroke-width: 0.8; stroke-linejoin: miter; stroke-linecap: square"/>
   </g>
   <g id="patch_6">
    <path d="M 142.066675 103.68 
L 595.933325 103.68 
" style="fill: none; stroke: #000000; stroke-width: 0.8; stroke-linejoin: miter; stroke-linecap: square"/>
   </g>
   <g id="legend_1">
    <g id="patch_7">
     <path d="M 262.539844 924.694125 
L 475.460156 924.694125 
Q 477.460156 924.694125 477.460156 922.694125 
L 477.460156 909.016 
Q 477.460156 907.016 475.460156 907.016 
L 262.539844 907.016 
Q 260.539844 907.016 260.539844 909.016 
L 260.539844 922.694125 
Q 260.539844 924.694125 262.539844 924.694125 
z
" style="fill: #ffffff; opacity: 0.8; stroke: #cccccc; stroke-linejoin: miter"/>
    </g>
    <g id="line2d_21">
     <defs>
      <path id="m2fa6798e29" d="M 0 5 
C 1.326016 5 2.597899 4.473168 3.535534 3.535534 
C 4.473168 2.597899 5 1.326016 5 0 
C 5 -1.326016 4.473168 -2.597899 3.535534 -3.535534 
C 2.597899 -4.473168 1.326016 -5 0 -5 
C -1.326016 -5 -2.597899 -4.473168 -3.535534 -3.535534 
C -4.473168 -2.597899 -5 -1.326016 -5 0 
C -5 1.326016 -4.473168 2.597899 -3.535534 3.535534 
C -2.597899 4.473168 -1.326016 5 0 5 
z
"/>
     </defs>
     <g>
      <use xlink:href="#m2fa6798e29" x="274.539844" y="915.114438" style="fill: #b3e2cd; fill-opacity: 0.65"/>
     </g>
    </g>
    <g id="text_13">
     <!-- RESERVA EXTRATIVISTA DO CIRIÁCO -->
     <g transform="translate(292.539844 918.614438) scale(0.1 -0.1)">
      <defs>
       <path id="DejaVuSans-52" d="M 2841 2188 
Q 3044 2119 3236 1894 
Q 3428 1669 3622 1275 
L 4263 0 
L 3584 0 
L 2988 1197 
Q 2756 1666 2539 1819 
Q 2322 1972 1947 1972 
L 1259 1972 
L 1259 0 
L 628 0 
L 628 4666 
L 2053 4666 
Q 2853 4666 3247 4331 
Q 3641 3997 3641 3322 
Q 3641 2881 3436 2590 
Q 3231 2300 2841 2188 
z
M 1259 4147 
L 1259 2491 
L 2053 2491 
Q 2509 2491 2742 2702 
Q 2975 2913 2975 3322 
Q 2975 3731 2742 3939 
Q 2509 4147 2053 4147 
L 1259 4147 
z
" transform="scale(0.015625)"/>
       <path id="DejaVuSans-45" d="M 628 4666 
L 3578 4666 
L 3578 4134 
L 1259 4134 
L 1259 2753 
L 3481 2753 
L 3481 2222 
L 1259 2222 
L 1259 531 
L 3634 531 
L 3634 0 
L 628 0 
L 628 4666 
z
" transform="scale(0.015625)"/>
       <path id="DejaVuSans-53" d="M 3425 4513 
L 3425 3897 
Q 3066 4069 2747 4153 
Q 2428 4238 2131 4238 
Q 1616 4238 1336 4038 
Q 1056 3838 1056 3469 
Q 1056 3159 1242 3001 
Q 1428 2844 1947 2747 
L 2328 2669 
Q 3034 2534 3370 2195 
Q 3706 1856 3706 1288 
Q 3706 609 3251 259 
Q 2797 -91 1919 -91 
Q 1588 -91 1214 -16 
Q 841 59 441 206 
L 441 856 
Q 825 641 1194 531 
Q 1563 422 1919 422 
Q 2459 422 2753 634 
Q 3047 847 3047 1241 
Q 3047 1584 2836 1778 
Q 2625 1972 2144 2069 
L 1759 2144 
Q 1053 2284 737 2584 
Q 422 2884 422 3419 
Q 422 4038 858 4394 
Q 1294 4750 2059 4750 
Q 2388 4750 2728 4690 
Q 3069 4631 3425 4513 
z
" transform="scale(0.015625)"/>
       <path id="DejaVuSans-56" d="M 1831 0 
L 50 4666 
L 709 4666 
L 2188 738 
L 3669 4666 
L 4325 4666 
L 2547 0 
L 1831 0 
z
" transform="scale(0.015625)"/>
       <path id="DejaVuSans-41" d="M 2188 4044 
L 1331 1722 
L 3047 1722 
L 2188 4044 
z
M 1831 4666 
L 2547 4666 
L 4325 0 
L 3669 0 
L 3244 1197 
L 1141 1197 
L 716 0 
L 50 0 
L 1831 4666 
z
" transform="scale(0.015625)"/>
       <path id="DejaVuSans-58" d="M 403 4666 
L 1081 4666 
L 2241 2931 
L 3406 4666 
L 4084 4666 
L 2584 2425 
L 4184 0 
L 3506 0 
L 2194 1984 
L 872 0 
L 191 0 
L 1856 2491 
L 403 4666 
z
" transform="scale(0.015625)"/>
       <path id="DejaVuSans-54" d="M -19 4666 
L 3928 4666 
L 3928 4134 
L 2272 4134 
L 2272 0 
L 1638 0 
L 1638 4134 
L -19 4134 
L -19 4666 
z
" transform="scale(0.015625)"/>
       <path id="DejaVuSans-49" d="M 628 4666 
L 1259 4666 
L 1259 0 
L 628 0 
L 628 4666 
z
" transform="scale(0.015625)"/>
       <path id="DejaVuSans-44" d="M 1259 4147 
L 1259 519 
L 2022 519 
Q 2988 519 3436 956 
Q 3884 1394 3884 2338 
Q 3884 3275 3436 3711 
Q 2988 4147 2022 4147 
L 1259 4147 
z
M 628 4666 
L 1925 4666 
Q 3281 4666 3915 4102 
Q 4550 3538 4550 2338 
Q 4550 1131 3912 565 
Q 3275 0 1925 0 
L 628 0 
L 628 4666 
z
" transform="scale(0.015625)"/>
       <path id="DejaVuSans-4f" d="M 2522 4238 
Q 1834 4238 1429 3725 
Q 1025 3213 1025 2328 
Q 1025 1447 1429 934 
Q 1834 422 2522 422 
Q 3209 422 3611 934 
Q 4013 1447 4013 2328 
Q 4013 3213 3611 3725 
Q 3209 4238 2522 4238 
z
M 2522 4750 
Q 3503 4750 4090 4092 
Q 4678 3434 4678 2328 
Q 4678 1225 4090 567 
Q 3503 -91 2522 -91 
Q 1538 -91 948 565 
Q 359 1222 359 2328 
Q 359 3434 948 4092 
Q 1538 4750 2522 4750 
z
" transform="scale(0.015625)"/>
       <path id="DejaVuSans-43" d="M 4122 4306 
L 4122 3641 
Q 3803 3938 3442 4084 
Q 3081 4231 2675 4231 
Q 1875 4231 1450 3742 
Q 1025 3253 1025 2328 
Q 1025 1406 1450 917 
Q 1875 428 2675 428 
Q 3081 428 3442 575 
Q 3803 722 4122 1019 
L 4122 359 
Q 3791 134 3420 21 
Q 3050 -91 2638 -91 
Q 1578 -91 968 557 
Q 359 1206 359 2328 
Q 359 3453 968 4101 
Q 1578 4750 2638 4750 
Q 3056 4750 3426 4639 
Q 3797 4528 4122 4306 
z
" transform="scale(0.015625)"/>
       <path id="DejaVuSans-c1" d="M 2188 4044 
L 1331 1722 
L 3047 1722 
L 2188 4044 
z
M 1831 4666 
L 2547 4666 
L 4325 0 
L 3669 0 
L 3244 1197 
L 1141 1197 
L 716 0 
L 50 0 
L 1831 4666 
z
M 2359 5935 
L 2938 5935 
L 2225 5110 
L 1747 5110 
L 2359 5935 
z
" transform="scale(0.015625)"/>
      </defs>
      <use xlink:href="#DejaVuSans-52"/>
      <use xlink:href="#DejaVuSans-45" transform="translate(69.482422 0)"/>
      <use xlink:href="#DejaVuSans-53" transform="translate(132.666016 0)"/>
      <use xlink:href="#DejaVuSans-45" transform="translate(196.142578 0)"/>
      <use xlink:href="#DejaVuSans-52" transform="translate(259.326172 0)"/>
      <use xlink:href="#DejaVuSans-56" transform="translate(323.308594 0)"/>
      <use xlink:href="#DejaVuSans-41" transform="translate(385.341797 0)"/>
      <use xlink:href="#DejaVuSans-20" transform="translate(453.75 0)"/>
      <use xlink:href="#DejaVuSans-45" transform="translate(485.537109 0)"/>
      <use xlink:href="#DejaVuSans-58" transform="translate(548.720703 0)"/>
      <use xlink:href="#DejaVuSans-54" transform="translate(615.476562 0)"/>
      <use xlink:href="#DejaVuSans-52" transform="translate(676.560547 0)"/>
      <use xlink:href="#DejaVuSans-41" transform="translate(742.042969 0)"/>
      <use xlink:href="#DejaVuSans-54" transform="translate(802.701172 0)"/>
      <use xlink:href="#DejaVuSans-49" transform="translate(863.785156 0)"/>
      <use xlink:href="#DejaVuSans-56" transform="translate(893.277344 0)"/>
      <use xlink:href="#DejaVuSans-49" transform="translate(961.685547 0)"/>
      <use xlink:href="#DejaVuSans-53" transform="translate(991.177734 0)"/>
      <use xlink:href="#DejaVuSans-54" transform="translate(1054.654297 0)"/>
      <use xlink:href="#DejaVuSans-41" transform="translate(1107.988281 0)"/>
      <use xlink:href="#DejaVuSans-20" transform="translate(1176.396484 0)"/>
      <use xlink:href="#DejaVuSans-44" transform="translate(1208.183594 0)"/>
      <use xlink:href="#DejaVuSans-4f" transform="translate(1285.185547 0)"/>
      <use xlink:href="#DejaVuSans-20" transform="translate(1363.896484 0)"/>
      <use xlink:href="#DejaVuSans-43" transform="translate(1395.683594 0)"/>
      <use xlink:href="#DejaVuSans-49" transform="translate(1465.507812 0)"/>
      <use xlink:href="#DejaVuSans-52" transform="translate(1495 0)"/>
      <use xlink:href="#DejaVuSans-49" transform="translate(1564.482422 0)"/>
      <use xlink:href="#DejaVuSans-c1" transform="translate(1593.974609 0)"/>
      <use xlink:href="#DejaVuSans-43" transform="translate(1660.632812 0)"/>
      <use xlink:href="#DejaVuSans-4f" transform="translate(1730.457031 0)"/>
     </g>
    </g>
   </g>
  </g>
 </g>
 <defs>
  <clipPath id="p50416ac90c">
   <rect x="142.066675" y="103.68" width="453.86665" height="665.28"/>
  </clipPath>
 </defs>
</svg>
