<?xml version="1.0" encoding="utf-8" standalone="no"?>
<!DOCTYPE svg PUBLIC "-//W3C//DTD SVG 1.1//EN"
  "http://www.w3.org/Graphics/SVG/1.1/DTD/svg11.dtd">
<svg xmlns:xlink="http://www.w3.org/1999/xlink" width="720pt" height="864pt" viewBox="0 0 720 864" xmlns="http://www.w3.org/2000/svg" version="1.1">
 <metadata>
  <rdf:RDF xmlns:dc="http://purl.org/dc/elements/1.1/" xmlns:cc="http://creativecommons.org/ns#" xmlns:rdf="http://www.w3.org/1999/02/22-rdf-syntax-ns#">
   <cc:Work>
    <dc:type rdf:resource="http://purl.org/dc/dcmitype/StillImage"/>
    <dc:date>2025-06-16T16:49:46.705847</dc:date>
    <dc:format>image/svg+xml</dc:format>
    <dc:creator>
     <cc:Agent>
      <dc:title>Matplotlib v3.10.1, https://matplotlib.org/</dc:title>
     </cc:Agent>
    </dc:creator>
   </cc:Work>
  </rdf:RDF>
 </metadata>
 <defs>
  <style type="text/css">*{stroke-linejoin: round; stroke-linecap: butt}</style>
 </defs>
 <g id="figure_1">
  <g id="patch_1">
   <path d="M 0 864 
L 720 864 
L 720 0 
L 0 0 
z
" style="fill: #ffffff"/>
  </g>
  <g id="axes_1">
   <g id="patch_2">
    <path d="M 170.993307 768.96 
L 567.006693 768.96 
L 567.006693 103.68 
L 170.993307 103.68 
z
" style="fill: #ffffff"/>
   </g>
   <g id="PatchCollection_1">
    <path d="M 254.214419 423.723139 
L 254.067259 423.437144 
L 252.888589 422.418427 
L 250.40863 420.691164 
L 249.623188 420.270201 
L 249.392991 420.146825 
L 246.005398 417.399064 
L 245.206939 416.846131 
L 244.771354 416.643976 
L 243.790654 416.414614 
L 242.688297 416.224847 
L 242.630469 416.214892 
L 242.13611 416.2158 
L 242.350474 417.324821 
L 241.552055 416.31713 
L 240.753637 415.309439 
L 239.678616 413.597821 
L 238.71177 412.627742 
L 237.903393 411.608345 
L 237.249439 410.613109 
L 236.956473 409.405214 
L 236.776037 406.903185 
L 236.582831 405.500377 
L 236.506319 404.074245 
L 236.634786 402.887209 
L 237.41828 400.422187 
L 237.590801 399.039549 
L 237.547393 397.801524 
L 237.289666 396.378232 
L 236.545703 393.721178 
L 236.227318 392.123364 
L 235.999725 391.17786 
L 235.548916 390.041796 
L 235.348512 389.739995 
L 234.167674 387.961692 
L 233.325514 387.021282 
L 232.65792 385.979759 
L 231.540418 383.724474 
L 231.253089 382.941443 
L 231.133004 382.614386 
L 230.079235 381.681647 
L 229.081595 381.05165 
L 227.989985 378.733445 
L 226.427892 376.551603 
L 225.504085 375.514543 
L 224.428844 374.660635 
L 221.992122 374.049805 
L 220.876868 373.241082 
L 219.88895 372.330262 
L 218.946102 371.257757 
L 217.020372 368.102104 
L 216.525901 367.138849 
L 216.43794 366.967496 
L 215.133329 364.569893 
L 213.254336 361.668854 
L 212.445578 360.640108 
L 211.645068 359.476716 
L 210.72047 358.541567 
L 209.672232 357.693867 
L 208.520283 357.174746 
L 207.169331 357.032679 
L 205.914621 357.073889 
L 204.70613 356.994049 
L 203.729782 356.182539 
L 203.261073 354.873161 
L 202.556523 353.801678 
L 201.67009 353.027133 
L 200.564673 352.289049 
L 199.696308 351.335525 
L 198.939055 350.228162 
L 198.019371 349.116462 
L 196.300015 347.341355 
L 195.508346 344.809024 
L 195.017555 343.671468 
L 194.584233 342.347135 
L 193.015424 338.581412 
L 191.914732 336.150807 
L 191.539769 334.893216 
L 191.114108 332.278105 
L 190.711097 330.886412 
L 189.502204 328.606795 
L 189.245791 328.00394 
L 188.993915 327.411754 
L 189.009443 326.786349 
L 189.02497 326.160942 
L 189.222448 324.93128 
L 189.235789 322.241319 
L 189.492409 319.706219 
L 189.528071 318.431039 
L 189.368487 315.832994 
L 189.502315 314.612738 
L 190.610175 312.430722 
L 190.658588 312.335367 
L 190.976914 311.173056 
L 191.557377 309.986046 
L 192.395275 308.985296 
L 193.367701 308.076018 
L 193.962974 307.4162 
L 194.283927 307.060411 
L 196.158088 303.787483 
L 196.734139 302.600727 
L 197.422279 301.55743 
L 198.278094 300.704354 
L 199.357536 299.903189 
L 200.450116 299.165025 
L 202.649734 297.803566 
L 203.622806 296.972846 
L 204.649201 295.978792 
L 205.750425 295.277943 
L 208.232319 294.054807 
L 209.406088 293.145573 
L 210.983918 290.976778 
L 211.611506 289.78281 
L 212.127043 288.545671 
L 212.299401 287.206934 
L 212.377266 285.950752 
L 212.600732 284.686938 
L 212.940042 283.441328 
L 214.032892 282.599891 
L 215.499606 282.428236 
L 216.868778 282.737651 
L 218.194758 282.425629 
L 219.273849 281.830854 
L 221.376326 280.450569 
L 222.279116 279.559207 
L 222.924629 278.520608 
L 224.054108 276.204402 
L 236.660949 248.802028 
L 258.292044 201.784428 
L 258.35847 201.736489 
L 283.075185 147.243846 
L 285.08491 142.806628 
L 285.137999 142.689414 
L 285.571438 142.42578 
L 286.458508 142.252246 
L 287.357075 141.553933 
L 288.555589 139.187182 
L 288.94697 138.72363 
L 289.700153 138.266825 
L 290.186691 137.581125 
L 290.688059 136.497566 
L 291.282304 136.00581 
L 292.710336 136.167581 
L 294.644664 136.264858 
L 296.722054 136.274084 
L 297.439722 136.562623 
L 297.861155 137.545094 
L 298.049577 138.656083 
L 298.462836 139.363217 
L 299.051578 139.71714 
L 299.839274 139.960678 
L 301.107605 139.625803 
L 302.504478 138.287807 
L 303.102567 137.13115 
L 303.816379 136.052725 
L 305.19683 135.1327 
L 306.525523 134.645598 
L 307.776079 134.365654 
L 308.829235 134.874655 
L 309.689304 136.087374 
L 309.827297 137.018806 
L 309.848977 137.826388 
L 310.084834 138.295351 
L 309.440092 138.877044 
L 308.627777 139.847896 
L 308.439191 140.762845 
L 308.425647 141.590102 
L 308.12855 142.628736 
L 306.818053 144.625437 
L 306.095231 146.076386 
L 306.36199 147.379947 
L 308.021995 148.055605 
L 309.771993 148.154374 
L 314.738096 146.762582 
L 316.393183 146.639076 
L 317.23616 147.425205 
L 317.553982 148.517372 
L 317.834274 150.637057 
L 318.220847 150.465978 
L 318.26719 149.729236 
L 318.543054 148.298982 
L 319.00332 147.300812 
L 319.518735 146.420172 
L 320.521649 145.580705 
L 321.689995 144.828239 
L 322.124763 143.87476 
L 322.718775 142.924243 
L 323.501313 141.985616 
L 324.06836 141.051708 
L 324.248629 140.8382 
L 324.756049 140.541856 
L 325.375424 140.006438 
L 325.809326 139.435696 
L 326.385566 138.891383 
L 327.55554 138.281522 
L 328.282546 137.753643 
L 329.078078 137.422449 
L 330.057456 137.185421 
L 331.261401 136.797527 
L 332.100478 136.376185 
L 334.10427 136.35728 
L 334.983413 135.913472 
L 335.862555 135.469664 
L 337.677689 134.030188 
L 338.79093 134.993172 
L 339.04474 135.070385 
L 339.796747 134.525842 
L 340.197416 134.096258 
L 340.794295 134.013398 
L 342.187581 134.271298 
L 343.412177 134.497974 
L 343.919313 134.496468 
L 345.037771 133.92 
L 345.364508 134.407735 
L 346.826452 135.022507 
L 349.518558 136.019749 
L 350.09861 136.43427 
L 350.705545 137.300731 
L 350.8647 137.806127 
L 351.686021 138.564826 
L 351.845455 139.24083 
L 352.128597 139.832968 
L 352.696453 140.477623 
L 353.672587 140.801265 
L 354.923868 141.336663 
L 355.680405 141.510431 
L 356.854344 142.064072 
L 358.028283 142.617713 
L 359.653018 143.824708 
L 359.972392 144.196603 
L 360.805569 144.804528 
L 361.910548 145.332397 
L 363.00707 145.653439 
L 363.854208 145.577702 
L 364.598599 145.387382 
L 365.84146 145.230578 
L 368.06738 145.448328 
L 369.272248 145.36329 
L 372.492544 145.912061 
L 374.122721 146.506945 
L 375.187771 146.440954 
L 374.548653 148.557461 
L 374.624738 149.548043 
L 374.698466 150.509233 
L 374.509215 151.621187 
L 374.096027 152.546682 
L 373.309222 153.315221 
L 371.757874 154.636842 
L 370.226464 157.041866 
L 369.680029 158.307206 
L 368.953283 160.752273 
L 368.768118 161.854156 
L 368.859454 162.76867 
L 369.044705 163.364667 
L 369.586219 164.221929 
L 370.269112 164.795556 
L 372.147967 165.939443 
L 373.059352 166.591517 
L 373.56272 167.307601 
L 373.614016 168.826726 
L 373.898434 169.951156 
L 374.393113 170.722285 
L 374.85363 172.043095 
L 375.330705 172.937154 
L 376.203793 174.23764 
L 376.46524 175.470858 
L 376.68465 175.939816 
L 377.028734 176.115562 
L 377.62277 176.111823 
L 378.915602 175.624831 
L 379.204817 175.667616 
L 379.411051 176.465473 
L 379.952874 177.803596 
L 380.424445 178.175147 
L 381.118505 178.552227 
L 381.916766 178.77001 
L 382.661272 178.854839 
L 384.195711 179.396244 
L 386.02369 180.682196 
L 386.938943 181.475969 
L 387.704801 181.968989 
L 387.902962 183.069266 
L 388.264799 183.599799 
L 389.420875 184.055511 
L 390.52603 184.146608 
L 391.55709 183.990342 
L 392.478363 183.994052 
L 393.548739 184.281412 
L 394.146447 184.632043 
L 394.967772 184.964591 
L 396.868131 185.086974 
L 398.806314 185.448417 
L 399.607487 185.916156 
L 400.282046 186.506366 
L 400.888224 186.848686 
L 401.662026 186.755701 
L 402.474374 186.439716 
L 403.262165 186.292685 
L 403.893826 187.089041 
L 404.41818 188.107727 
L 405.621852 189.086277 
L 406.507502 189.684856 
L 407.441509 190.158815 
L 408.193743 190.43722 
L 408.800353 190.426606 
L 411.052486 189.373708 
L 413.69732 189.08311 
L 414.312849 189.284141 
L 414.527325 190.188248 
L 414.371724 191.049211 
L 414.471139 191.538732 
L 415.128929 191.916743 
L 415.94638 192.240386 
L 416.561076 192.314396 
L 417.399648 192.088692 
L 417.824937 192.787829 
L 418.129625 193.087463 
L 418.470692 193.590745 
L 419.273603 194.050207 
L 421.719965 194.06493 
L 423.710886 194.578699 
L 424.490021 195.258414 
L 424.786583 195.751703 
L 424.980068 196.412714 
L 424.739901 196.648642 
L 423.913714 197.986418 
L 423.827645 199.424415 
L 423.673521 200.302536 
L 422.7734 202.562483 
L 422.623712 203.12823 
L 422.834699 203.674756 
L 423.122544 203.706141 
L 424.717432 203.5655 
L 426.132116 203.552987 
L 426.90577 203.459834 
L 427.271665 203.537548 
L 427.783082 203.857093 
L 428.140266 203.996079 
L 428.321571 204.900201 
L 429.059856 205.654317 
L 429.928889 206.300625 
L 430.66447 206.749671 
L 431.527644 207.158426 
L 433.686071 207.013465 
L 434.619649 207.117229 
L 438.206254 206.227632 
L 438.863499 206.206668 
L 439.337088 206.308508 
L 441.030107 205.769189 
L 442.195626 205.874371 
L 442.939549 205.854111 
L 443.52095 205.653678 
L 443.907702 205.211863 
L 444.586474 202.914957 
L 444.895928 202.245366 
L 448.009169 202.253017 
L 449.149644 202.326725 
L 451.944102 202.11497 
L 453.530447 201.652499 
L 454.961716 200.910675 
L 457.433898 201.058701 
L 458.269008 200.993948 
L 458.858605 200.789037 
L 459.51162 200.195819 
L 460.509182 199.786755 
L 461.433227 200.058604 
L 463.109774 200.318364 
L 464.254941 200.257913 
L 466.093019 200.306438 
L 467.620467 200.75772 
L 468.974619 201.722267 
L 470.131936 202.105421 
L 471.709692 202.220544 
L 472.660719 202.47547 
L 474.649602 203.281659 
L 474.813705 203.348173 
L 475.137251 203.814994 
L 475.648174 204.276505 
L 476.504357 204.460137 
L 477.415032 204.385249 
L 477.896837 204.472229 
L 479.011013 204.500629 
L 480.068274 204.740031 
L 480.4168 204.984793 
L 480.64901 204.959335 
L 480.645381 206.001924 
L 480.528201 207.107002 
L 479.767614 208.320352 
L 478.340286 208.568001 
L 477.806835 208.458151 
L 476.775407 208.041601 
L 476.33601 208.118471 
L 475.885722 208.427347 
L 475.82918 208.879465 
L 476.018383 209.343802 
L 476.005912 209.877964 
L 475.738667 210.532567 
L 475.042527 211.080208 
L 474.78246 211.166701 
L 474.417778 211.287872 
L 473.864718 211.765675 
L 473.545063 212.234583 
L 472.306947 212.661234 
L 471.631951 212.585546 
L 471.103335 212.022017 
L 470.505034 211.990653 
L 469.800241 212.582421 
L 469.392576 213.316696 
L 468.74755 214.264455 
L 468.209384 214.801486 
L 466.757081 215.549312 
L 466.369419 215.616475 
L 466.252923 215.705206 
L 465.643213 215.77111 
L 464.998171 214.975483 
L 464.404605 214.802489 
L 464.15615 215.024664 
L 463.651941 215.756984 
L 462.887018 216.330831 
L 462.529015 215.998616 
L 461.084978 216.531126 
L 461.19632 217.198711 
L 461.429441 217.813357 
L 461.442528 218.330647 
L 461.214341 219.47543 
L 461.193038 220.409713 
L 460.358741 222.785229 
L 458.913259 223.8251 
L 457.473235 225.380615 
L 457.246335 225.752511 
L 457.232851 226.177798 
L 456.707568 227.143359 
L 456.358865 229.186357 
L 456.437847 229.604916 
L 456.660819 230.007832 
L 457.030026 230.312025 
L 458.028414 231.447735 
L 458.488331 232.314832 
L 459.257073 232.685256 
L 459.877135 233.168806 
L 460.337299 233.688268 
L 460.685181 234.313418 
L 460.740763 234.90865 
L 460.324442 235.421165 
L 458.753714 237.01961 
L 458.354393 237.703044 
L 458.664011 238.450806 
L 458.716735 238.807196 
L 458.380707 240.2371 
L 458.466468 240.424085 
L 459.12546 241.123797 
L 459.132592 241.151391 
L 459.205414 241.434262 
L 458.780657 241.644009 
L 458.544483 241.874527 
L 458.720028 242.799508 
L 459.171388 243.702197 
L 459.322241 244.832241 
L 459.3354 246.351452 
L 459.494119 246.49657 
L 460.440232 246.670979 
L 460.594394 246.88673 
L 460.638092 247.365881 
L 460.431382 247.793125 
L 460.302478 248.431197 
L 460.396704 248.876838 
L 460.938666 249.03231 
L 461.536245 248.981889 
L 461.941625 249.038988 
L 461.570366 250.208135 
L 461.484142 251.196053 
L 461.119543 252.180383 
L 460.229078 253.162354 
L 458.535804 254.074615 
L 458.130845 254.711345 
L 458.135988 255.36156 
L 458.233978 255.886358 
L 458.118165 256.632022 
L 456.806784 257.263757 
L 456.440767 257.670192 
L 455.355216 260.254621 
L 454.803813 261.160284 
L 454.670082 261.579398 
L 454.150354 262.259123 
L 453.169659 262.981701 
L 452.623162 263.192252 
L 451.891839 263.612344 
L 451.668047 264.385217 
L 451.779576 266.030524 
L 450.760979 266.317604 
L 450.657732 267.04506 
L 450.839268 267.606767 
L 451.427754 268.730853 
L 451.169496 269.166364 
L 450.658668 269.472884 
L 449.822949 269.750762 
L 449.187001 270.164115 
L 448.972785 270.964285 
L 449.049998 272.235062 
L 449.178295 272.832087 
L 449.182547 273.544439 
L 449.010677 274.040888 
L 448.228639 274.754389 
L 448.030315 275.198402 
L 448.121769 276.159934 
L 448.056472 276.586456 
L 447.712577 276.804838 
L 446.706052 276.594332 
L 445.640307 276.772071 
L 445.347809 277.313041 
L 445.007992 278.263523 
L 445.261779 278.681794 
L 446.027032 279.230249 
L 445.911004 279.691522 
L 445.176125 280.513035 
L 444.779926 280.821391 
L 443.653121 281.374598 
L 443.692676 282.040498 
L 443.120161 282.570111 
L 443.039406 282.747553 
L 443.035142 283.263423 
L 443.259653 283.735797 
L 444.247482 284.45426 
L 444.092126 284.960659 
L 443.658259 285.694529 
L 443.28436 286.590242 
L 442.909809 287.148799 
L 442.514457 287.295905 
L 442.1397 286.937973 
L 441.861442 286.918159 
L 441.413433 287.67128 
L 441.370192 287.945157 
L 441.443971 288.765405 
L 441.649985 289.265233 
L 442.453865 289.572351 
L 442.256136 290.166101 
L 441.895644 290.582574 
L 441.456552 291.485798 
L 441.396591 292.740062 
L 441.206803 293.360694 
L 440.879616 293.674196 
L 440.513952 295.56989 
L 440.541248 296.70737 
L 440.583966 297.073583 
L 440.910133 298.08138 
L 441.087481 298.20477 
L 441.925064 298.505767 
L 442.449969 299.025954 
L 442.755138 299.988419 
L 443.929064 301.587791 
L 443.804574 301.844103 
L 442.979882 302.350721 
L 442.800792 302.285961 
L 442.488214 302.137768 
L 442.260895 302.135889 
L 441.865467 302.132755 
L 441.920661 303.013236 
L 441.576325 304.26486 
L 441.262331 305.052764 
L 441.172442 305.596106 
L 440.97524 306.030587 
L 440.334108 306.248553 
L 439.542491 306.660909 
L 439.125531 307.210385 
L 438.837793 308.21969 
L 439.061049 308.63924 
L 439.190731 309.191064 
L 439.143 309.457697 
L 438.360375 309.443356 
L 437.673011 309.199113 
L 436.85618 309.290389 
L 436.27964 309.757507 
L 436.300887 310.415931 
L 436.554198 311.662529 
L 437.199942 312.593247 
L 437.372063 313.090215 
L 437.341499 313.508556 
L 437.001842 314.138003 
L 436.658031 314.517327 
L 436.051583 314.79788 
L 435.570356 314.731442 
L 435.282789 314.587167 
L 434.912344 314.754378 
L 435.328774 315.344641 
L 435.866638 315.783168 
L 436.713235 316.820784 
L 437.613009 317.432563 
L 437.823266 318.305753 
L 437.958449 318.546053 
L 438.093632 318.786353 
L 438.5286 319.324447 
L 439.002049 319.770925 
L 439.065915 320.128929 
L 438.85479 321.522147 
L 439.6684 322.17694 
L 439.804754 322.614502 
L 439.791878 323.09484 
L 439.461068 323.662452 
L 439.336866 324.335707 
L 439.371448 325.128595 
L 439.134569 326.583968 
L 439.397131 326.701395 
L 439.71492 326.713318 
L 439.79729 327.211037 
L 439.539814 327.708428 
L 439.551887 328.277791 
L 439.810122 328.848761 
L 440.239354 329.464695 
L 440.691841 329.672414 
L 441.25075 330.120831 
L 441.770331 331.094507 
L 441.838802 331.575475 
L 441.568001 332.433531 
L 441.5253 332.568814 
L 441.463834 332.763544 
L 441.460849 332.773 
L 441.456836 333.446247 
L 441.455356 333.694674 
L 441.453008 334.088593 
L 441.533793 334.641556 
L 442.127583 335.11718 
L 442.014875 335.662773 
L 442.00246 336.395339 
L 442.333388 337.278885 
L 442.492183 338.141623 
L 442.346982 338.781127 
L 442.197181 339.13009 
L 441.757568 340.153576 
L 441.628996 341.105587 
L 441.370801 341.664854 
L 440.7214 342.7262 
L 439.61135 343.358455 
L 439.887668 344.045561 
L 439.436031 344.343654 
L 438.725789 344.579559 
L 437.870603 344.999674 
L 437.131557 345.155129 
L 436.876769 345.134786 
L 436.825687 344.753259 
L 436.563232 344.820755 
L 436.422692 345.081528 
L 436.132806 345.619416 
L 435.953 346.408157 
L 435.866604 347.244377 
L 436.188588 347.761789 
L 436.635996 347.872048 
L 436.975931 348.176354 
L 436.726921 348.592079 
L 436.231672 349.007144 
L 435.802669 349.491984 
L 435.781306 349.573804 
L 435.918577 349.875744 
L 436.430147 349.98612 
L 436.348755 350.244192 
L 435.819541 350.667659 
L 435.444919 351.260351 
L 434.886351 353.06124 
L 434.950735 353.764009 
L 435.09684 354.156434 
L 435.187931 354.334885 
L 435.682607 354.579545 
L 435.781175 354.703078 
L 435.80655 354.908111 
L 435.42776 355.003412 
L 434.637074 354.623966 
L 434.077677 354.496033 
L 433.557857 354.563607 
L 433.128085 354.9341 
L 432.813124 355.358427 
L 432.865388 355.953874 
L 433.089285 356.497825 
L 433.213648 357.192342 
L 433.811013 358.494668 
L 434.413203 359.007058 
L 435.221006 359.296202 
L 435.165566 359.428675 
L 434.736322 359.523368 
L 434.611082 359.638594 
L 434.933567 360.006402 
L 435.002663 360.185142 
L 434.826624 360.360386 
L 434.219931 360.561638 
L 434.189842 360.694266 
L 434.293908 360.881419 
L 434.589386 361.106497 
L 434.481958 361.470367 
L 434.229079 361.61023 
L 434.128798 361.743835 
L 433.78064 361.863181 
L 433.214529 362.709246 
L 432.817489 362.894264 
L 432.727411 362.734042 
L 432.796157 362.03225 
L 432.737202 361.82277 
L 432.585821 361.835955 
L 432.535932 361.899287 
L 432.4363 362.025766 
L 432.386476 362.200265 
L 432.289836 362.538728 
L 432.049258 363.912413 
L 431.82065 364.590592 
L 431.858753 365.228053 
L 431.983983 365.390193 
L 431.85944 365.594143 
L 431.600492 365.555783 
L 431.222425 365.296261 
L 431.136759 365.329633 
L 431.256536 365.898373 
L 431.171432 366.022174 
L 430.473911 366.242581 
L 430.057218 366.564924 
L 429.760977 366.937332 
L 429.528004 367.002551 
L 429.30549 366.939968 
L 429.021142 367.15604 
L 429.1635 368.574631 
L 429.008369 368.963042 
L 428.845581 368.984402 
L 428.831692 368.986225 
L 428.716398 368.376259 
L 428.55297 368.38681 
L 428.417136 368.60099 
L 428.341719 368.719901 
L 428.00297 368.776851 
L 427.667105 368.833315 
L 426.875747 369.243531 
L 426.673578 369.287598 
L 426.523701 369.080224 
L 426.389696 369.224755 
L 426.622225 370.127786 
L 426.339042 371.495331 
L 426.535973 372.265187 
L 426.436932 372.418557 
L 425.857229 372.182438 
L 425.655069 371.621653 
L 425.212218 372.016258 
L 424.540266 373.035 
L 424.312422 372.727091 
L 423.691121 373.110504 
L 423.419045 373.305988 
L 423.290081 373.315331 
L 423.20432 373.162051 
L 423.320216 372.73739 
L 423.251176 372.59877 
L 422.761012 373.005057 
L 422.712993 373.308649 
L 422.523982 373.462843 
L 422.394657 373.728045 
L 422.067919 374.05767 
L 421.695467 374.65713 
L 421.462897 374.895665 
L 421.298758 374.883442 
L 421.289708 375.226699 
L 421.105063 375.39801 
L 420.154868 375.428301 
L 419.764745 375.543173 
L 419.223144 375.418292 
L 418.950901 375.482924 
L 418.830741 375.64857 
L 419.127545 376.563315 
L 418.62407 376.63223 
L 418.276964 377.226167 
L 418.190888 379.065209 
L 418.130742 379.288038 
L 417.880566 379.404935 
L 417.57096 379.371827 
L 416.883171 379.118952 
L 416.585643 379.190465 
L 416.470829 379.654376 
L 416.259539 379.781269 
L 416.161229 380.032381 
L 416.190959 380.635834 
L 416.0752 380.767874 
L 415.730959 380.71602 
L 415.688122 380.8176 
L 415.588411 381.716881 
L 415.902177 381.714851 
L 415.90227 381.916737 
L 415.572047 382.101189 
L 415.347925 382.065946 
L 415.288328 381.791475 
L 415.19758 381.696221 
L 415.008643 381.659373 
L 414.676707 381.826997 
L 414.475114 381.81846 
L 414.290536 381.757763 
L 414.148682 381.591674 
L 413.908081 381.526509 
L 413.756239 381.582015 
L 413.75338 381.827675 
L 414.143379 382.385753 
L 414.160971 382.718858 
L 414.041042 382.82275 
L 413.701465 382.806657 
L 413.51612 382.884826 
L 412.079423 383.707542 
L 411.908342 383.8967 
L 412.032324 383.96675 
L 412.170319 383.908332 
L 412.2691 384.038962 
L 412.389277 384.712229 
L 412.806928 384.919855 
L 412.952599 384.930712 
L 413.077814 384.619326 
L 413.219116 384.655442 
L 413.318617 384.890903 
L 413.16371 385.456953 
L 413.163351 385.704889 
L 413.361382 385.852708 
L 413.589147 385.932347 
L 413.73133 385.855448 
L 413.89121 385.600659 
L 414.032709 385.649773 
L 414.027582 385.791156 
L 413.830122 385.942141 
L 413.134124 386.145474 
L 412.832794 386.342809 
L 412.734395 386.816838 
L 412.4506 387.545197 
L 412.629592 388.224369 
L 412.614032 388.694993 
L 412.420074 388.758685 
L 412.279037 388.723979 
L 412.153307 388.812284 
L 412.12242 389.929417 
L 412.014946 390.054433 
L 411.827057 390.089624 
L 411.147638 389.87486 
L 411.00962 389.934683 
L 411.065979 390.122954 
L 411.207777 390.255289 
L 411.233291 390.636758 
L 411.370159 390.9643 
L 411.349367 391.120692 
L 411.078073 391.47508 
L 410.894019 391.715507 
L 410.876494 392.034667 
L 410.149234 392.67257 
L 410.106208 392.820617 
L 410.20059 392.959699 
L 410.141189 393.037644 
L 410.084799 393.111636 
L 409.594567 393.023569 
L 409.078855 392.657023 
L 409.001987 392.772347 
L 409.053222 393.288194 
L 408.748525 393.647227 
L 408.734715 393.806064 
L 408.864372 394.07804 
L 408.722482 394.170462 
L 408.408785 394.111691 
L 408.270959 394.182948 
L 408.30928 394.321512 
L 408.636432 394.401424 
L 408.665704 394.573126 
L 408.545287 395.102926 
L 408.614242 395.440043 
L 408.529324 395.795189 
L 408.68762 396.22841 
L 408.516084 396.519962 
L 408.102729 396.29254 
L 407.943939 396.563974 
L 407.771088 396.632024 
L 407.792568 396.773582 
L 408.176275 397.474205 
L 408.266319 397.82206 
L 408.235829 397.980218 
L 408.085994 397.959423 
L 407.771868 397.564274 
L 407.441539 397.286835 
L 407.226257 397.202163 
L 407.049463 397.251677 
L 406.671542 397.572472 
L 406.490447 397.615315 
L 406.408917 397.483238 
L 406.249179 397.455308 
L 405.794215 398.039886 
L 405.497253 398.200459 
L 405.286101 398.314575 
L 405.027996 398.553249 
L 404.848002 398.598496 
L 404.688958 398.550648 
L 404.615317 398.413114 
L 404.460326 398.366989 
L 404.143508 398.58223 
L 404.048422 398.735843 
L 404.087831 398.919478 
L 404.259985 399.185111 
L 404.177607 399.34545 
L 403.751384 399.55019 
L 403.560887 399.531224 
L 402.181701 398.882798 
L 401.815754 398.507055 
L 401.476859 398.648812 
L 401.149653 398.98856 
L 400.892556 399.4685 
L 400.406845 399.989237 
L 400.169287 400.500383 
L 400.066306 400.597143 
L 399.611163 400.74359 
L 399.081595 400.683838 
L 398.944906 401.015988 
L 398.281853 401.4339 
L 398.106566 401.670144 
L 397.816728 401.787917 
L 397.542115 401.995356 
L 397.447203 402.120418 
L 397.46581 402.268731 
L 397.171939 402.422212 
L 397.202874 402.5918 
L 397.739753 403.181638 
L 397.447744 403.71668 
L 397.422692 403.894636 
L 397.143782 403.950465 
L 397.073558 404.092649 
L 397.082695 404.394871 
L 396.812083 404.609251 
L 396.842321 405.103877 
L 397.18946 405.38021 
L 397.246275 405.659175 
L 397.223798 406.093962 
L 397.663176 406.187583 
L 397.69745 406.340385 
L 397.585834 406.446964 
L 397.125046 406.388508 
L 396.274713 405.718486 
L 396.10215 405.718972 
L 395.964773 405.881871 
L 395.9522 406.281832 
L 396.192726 406.813105 
L 395.908437 406.996162 
L 395.900011 407.181013 
L 396.145651 407.540126 
L 395.874205 407.669592 
L 395.796282 407.808893 
L 395.879002 407.969239 
L 395.783092 408.256595 
L 395.869511 408.551024 
L 395.737044 408.610835 
L 395.594538 408.581722 
L 395.301921 409.156003 
L 394.907329 409.616555 
L 394.20568 409.96221 
L 393.676375 410.057211 
L 393.547965 410.177785 
L 393.487862 410.35365 
L 393.620945 410.770032 
L 394.150049 411.087509 
L 394.296881 411.945989 
L 394.253609 412.301655 
L 394.008532 412.667052 
L 393.479364 412.960086 
L 393.375787 413.137196 
L 393.24766 413.256356 
L 393.091893 413.278135 
L 392.889843 413.242516 
L 392.571519 412.954068 
L 392.417115 412.921471 
L 392.254236 412.998005 
L 392.207117 413.100222 
L 392.137508 413.411058 
L 392.571496 414.099524 
L 392.520671 414.330401 
L 392.382981 414.413046 
L 392.236963 414.403673 
L 391.879242 414.25549 
L 391.517919 414.001339 
L 391.312029 413.973315 
L 391.20882 414.096885 
L 391.208981 414.413441 
L 390.83107 414.824342 
L 390.658934 415.139667 
L 390.636476 415.322857 
L 390.916502 415.793968 
L 390.921175 416.903001 
L 390.125253 417.08235 
L 390.043987 417.274015 
L 390.05681 417.423697 
L 390.206489 417.8491 
L 390.107639 417.969306 
L 389.570768 417.954296 
L 389.217362 418.344446 
L 389.217617 418.704646 
L 388.965006 419.550638 
L 388.728777 419.765621 
L 388.556468 420.041803 
L 388.548 420.839825 
L 388.680456 421.141933 
L 388.453425 421.52154 
L 388.233442 421.698073 
L 388.190565 421.990016 
L 387.94579 422.3007 
L 387.847003 422.803977 
L 387.674191 423.04992 
L 387.73059 423.20274 
L 387.860206 423.312584 
L 387.894262 423.472164 
L 387.399991 423.946302 
L 387.471821 424.078329 
L 387.399596 424.198153 
L 387.588348 424.450527 
L 387.605786 424.600522 
L 387.146099 425.354444 
L 387.09412 425.564391 
L 387.081062 426.194282 
L 387.218802 426.521293 
L 387.024953 427.157215 
L 386.957171 427.830353 
L 387.516185 428.484321 
L 387.738732 429.128922 
L 387.902289 429.395525 
L 388.199036 429.469862 
L 388.396787 429.680919 
L 388.306855 431.273178 
L 388.126878 431.907507 
L 388.2989 432.167536 
L 388.611434 433.385579 
L 388.629759 433.548295 
L 388.500059 433.85839 
L 388.719929 434.056335 
L 388.431335 434.230656 
L 388.487179 434.616826 
L 388.39236 434.775468 
L 388.126614 434.892181 
L 387.675416 435.230858 
L 387.708892 435.587059 
L 387.618548 436.311306 
L 387.631868 436.759033 
L 387.893641 437.039216 
L 387.954151 437.2247 
L 387.769609 437.514047 
L 387.730606 437.885397 
L 387.566938 438.216282 
L 387.587963 438.373227 
L 388.069881 438.989653 
L 388.136244 439.219111 
L 388.164568 439.316924 
L 388.363699 439.416695 
L 388.465349 439.420688 
L 388.547404 439.535845 
L 388.895189 439.539521 
L 389.045742 439.646704 
L 389.114946 439.774339 
L 389.097461 440.059685 
L 389.282106 440.340577 
L 389.445608 440.402795 
L 390.004633 440.26704 
L 390.147677 440.287861 
L 390.439367 440.505969 
L 390.598794 440.510947 
L 390.752667 440.800654 
L 391.066431 440.660275 
L 391.406051 440.825336 
L 392.15473 440.860453 
L 393.729287 442.510482 
L 394.395242 443.701743 
L 395.264351 444.39612 
L 395.693434 444.154994 
L 396.523228 444.661061 
L 396.900915 444.762958 
L 397.386844 445.067214 
L 398.556934 445.21692 
L 399.052161 445.417972 
L 399.800113 445.563206 
L 400.31084 445.735121 
L 400.504992 445.849386 
L 400.951834 446.308876 
L 401.687764 446.787532 
L 402.598653 447.518606 
L 404.009722 447.893589 
L 404.353015 448.143116 
L 404.584999 448.464034 
L 404.766669 448.559979 
L 404.964431 448.561532 
L 405.282297 448.438071 
L 405.764248 448.49787 
L 406.167853 448.168764 
L 406.219365 448.023624 
L 406.35782 447.921483 
L 407.183596 448.175841 
L 407.82248 448.218798 
L 408.26125 448.436495 
L 408.464587 448.744632 
L 408.730319 449.37799 
L 409.369621 450.288059 
L 409.655721 450.838072 
L 411.052972 451.620844 
L 411.121775 452.014066 
L 411.07408 452.800189 
L 411.215434 453.269363 
L 411.645765 453.717269 
L 412.131337 453.887541 
L 412.466124 454.13713 
L 412.511867 454.377476 
L 412.50276 454.436322 
L 412.489397 454.522404 
L 412.376156 454.810084 
L 412.286094 454.971771 
L 411.702339 455.684461 
L 411.538637 455.985483 
L 411.55177 456.133912 
L 412.321519 457.598845 
L 412.625563 458.657859 
L 412.72138 458.798397 
L 412.715723 458.985967 
L 412.3118 459.39308 
L 412.471824 460.383405 
L 412.419365 461.024129 
L 411.92912 461.55494 
L 411.972244 461.827619 
L 412.303447 462.392519 
L 412.651423 462.766538 
L 413.571858 462.771797 
L 413.808739 463.00361 
L 413.94185 463.429646 
L 414.827575 463.786418 
L 416.152489 464.902108 
L 416.908886 465.279001 
L 417.432531 465.433857 
L 417.74296 465.381087 
L 418.314626 465.08546 
L 418.254044 463.663643 
L 418.95643 463.715335 
L 420.250148 463.952983 
L 420.752989 464.25601 
L 422.064494 465.765842 
L 422.760551 467.354594 
L 424.00376 468.769008 
L 424.295928 470.151508 
L 424.669868 470.864621 
L 424.906503 471.528884 
L 424.962261 472.82794 
L 425.366288 474.044374 
L 425.658278 474.638103 
L 425.921098 474.984948 
L 426.264861 475.192346 
L 426.681872 475.154418 
L 426.944948 474.666983 
L 427.103158 474.083166 
L 427.45221 473.517769 
L 427.718217 473.399522 
L 428.389028 473.590667 
L 428.978257 474.017188 
L 429.334737 474.41808 
L 429.748075 475.350741 
L 429.833901 476.531074 
L 430.074434 478.091126 
L 430.323741 478.571813 
L 430.775561 479.193917 
L 431.247494 479.522141 
L 432.387781 480.021699 
L 432.645632 480.73444 
L 432.641547 481.932253 
L 433.179261 483.320734 
L 433.587376 483.999194 
L 434.589943 485.157619 
L 435.144633 485.706537 
L 435.724404 486.117728 
L 436.167906 486.52911 
L 436.352379 487.037613 
L 436.15059 489.120404 
L 436.064482 489.771019 
L 435.741895 490.356843 
L 434.873539 490.705619 
L 434.078548 490.58694 
L 433.231186 490.123144 
L 432.512764 489.892092 
L 431.558469 490.062059 
L 431.128466 490.791067 
L 430.865749 492.029729 
L 430.9428 492.681739 
L 430.909105 493.496727 
L 430.435867 494.32135 
L 429.412145 495.181657 
L 428.789879 495.873955 
L 427.739972 497.280944 
L 427.40884 497.86493 
L 427.120662 498.547973 
L 427.202629 500.45602 
L 427.408727 501.695124 
L 427.653344 502.666066 
L 427.946612 503.665893 
L 428.238329 504.306568 
L 428.955993 505.24555 
L 429.80327 506.562963 
L 430.384911 507.123324 
L 431.085284 507.549595 
L 432.301182 508.499438 
L 433.389685 509.684041 
L 434.271108 511.720564 
L 434.585142 513.825293 
L 434.580922 517.431232 
L 433.940813 518.631888 
L 434.01754 519.485671 
L 434.284597 520.851278 
L 434.645352 521.870973 
L 435.657732 522.943046 
L 438.403019 525.503422 
L 440.724574 526.25491 
L 441.843481 526.321961 
L 443.28763 526.633162 
L 443.967776 527.157736 
L 444.568721 528.009701 
L 445.18467 529.111724 
L 445.931781 529.930937 
L 448.111983 531.916059 
L 448.623247 532.688269 
L 449.879139 534.101624 
L 452.536141 536.207122 
L 453.62412 536.905294 
L 454.863382 537.48057 
L 456.518007 537.866495 
L 457.923928 538.311309 
L 460.427297 540.282597 
L 461.975121 541.973519 
L 462.353488 543.010458 
L 463.295228 543.929823 
L 464.163119 544.446375 
L 464.855896 544.998764 
L 465.350353 545.82325 
L 465.745784 548.231165 
L 466.146219 549.508348 
L 467.105096 550.044863 
L 468.256903 550.068145 
L 469.129234 549.419852 
L 469.319185 548.523641 
L 469.862921 548.00003 
L 469.877624 547.985856 
L 469.968105 547.898703 
L 470.698818 547.864287 
L 471.45632 548.050209 
L 472.457851 548.427105 
L 474.556137 549.404769 
L 475.497704 550.431436 
L 475.648451 551.20671 
L 475.3514 552.831599 
L 475.200444 554.21848 
L 475.209347 555.241677 
L 474.936984 556.97002 
L 475.291822 557.429817 
L 477.651315 557.762115 
L 479.887968 558.429726 
L 480.141993 558.690151 
L 480.494134 559.443016 
L 481.452639 559.836373 
L 483.151235 559.394948 
L 484.195992 559.24643 
L 485.396345 559.197686 
L 487.183711 560.054362 
L 487.855257 560.286084 
L 488.946712 560.307379 
L 490.642183 558.841511 
L 491.582329 558.834649 
L 492.477541 559.672919 
L 493.952342 559.280908 
L 494.984553 559.381991 
L 496.550231 560.074783 
L 498.755132 560.831763 
L 499.099077 561.084219 
L 498.854086 562.549866 
L 499.580607 562.923159 
L 500.792391 562.875757 
L 502.323024 563.943756 
L 503.326231 565.350915 
L 504.895535 566.980369 
L 505.952434 567.410921 
L 506.735145 567.410241 
L 507.948683 567.041467 
L 509.061822 566.333118 
L 510.600247 565.630161 
L 511.508015 564.947778 
L 513.176027 563.498812 
L 513.412829 561.961019 
L 513.667478 560.985592 
L 514.033018 560.002771 
L 515.382756 558.878564 
L 515.682536 558.054907 
L 515.605704 557.741935 
L 515.572008 557.047732 
L 516.211209 556.34341 
L 517.377311 556.107378 
L 518.182406 556.338311 
L 518.799727 556.221682 
L 519.822801 556.152816 
L 520.537845 556.215126 
L 521.011648 556.665847 
L 521.409809 557.247716 
L 522.519813 558.230813 
L 523.263141 558.727207 
L 524.365393 559.309089 
L 524.703541 559.633342 
L 524.751398 560.105731 
L 524.948823 560.712145 
L 525.832432 561.93871 
L 526.273369 562.472617 
L 526.764174 562.91225 
L 527.249401 563.541259 
L 527.611135 566.418454 
L 528.17459 567.37727 
L 528.875312 567.2161 
L 529.696829 566.326098 
L 530.460725 566.344649 
L 531.604564 566.614019 
L 534.116078 567.060972 
L 535.781055 566.820267 
L 536.791294 567.089071 
L 537.393314 568.012721 
L 537.526014 569.384641 
L 537.823612 569.717246 
L 538.601087 569.903999 
L 539.35802 569.743027 
L 541.378523 568.269692 
L 542.269053 568.085393 
L 542.591578 568.692359 
L 542.75005 569.539994 
L 543.262059 570.470321 
L 543.546487 571.159064 
L 543.477238 571.968393 
L 542.681769 573.249054 
L 542.535671 574.278611 
L 543.382768 576.575238 
L 543.868814 577.150472 
L 545.837724 577.936129 
L 546.370906 578.609436 
L 546.521227 579.643632 
L 546.89037 580.527647 
L 547.316817 581.164878 
L 547.72986 581.45414 
L 548.133952 581.556609 
L 548.443401 581.514502 
L 548.826204 674.508387 
L 549.006085 674.561612 
L 548.919872 738.72 
L 540.186196 737.991722 
L 530.994533 737.225254 
L 530.766516 737.20624 
L 530.50306 737.183949 
L 469.146512 731.99244 
L 469.143352 731.994271 
L 468.916396 732.125822 
L 468.682106 732.261624 
L 467.142335 732.545337 
L 466.646827 732.489222 
L 466.098043 732.588207 
L 465.61674 732.87122 
L 465.122202 733.041364 
L 464.648777 733.000608 
L 463.606652 732.910893 
L 463.496153 732.901381 
L 463.354525 732.954417 
L 463.04474 733.070424 
L 462.451082 733.483662 
L 462.271502 733.580335 
L 462.253338 734.090575 
L 462.017285 734.474035 
L 461.956489 734.572796 
L 461.47876 734.898848 
L 461.436538 734.927665 
L 460.998097 735.110775 
L 460.250617 735.763415 
L 459.147475 736.480663 
L 458.964306 736.599756 
L 458.512164 736.833943 
L 457.991121 737.103817 
L 457.677587 737.266212 
L 457.197755 737.421262 
L 456.853246 737.807263 
L 456.694072 737.904792 
L 456.393556 738.088924 
L 455.911635 738.059552 
L 455.335093 737.875415 
L 454.148974 736.727338 
L 453.599128 735.678814 
L 453.623729 735.216627 
L 453.624101 735.20963 
L 453.655332 735.179882 
L 453.950405 734.898817 
L 454.019946 733.778753 
L 453.938102 733.2539 
L 453.706369 732.945541 
L 453.418884 732.562998 
L 453.288325 732.389268 
L 453.09151 731.808544 
L 452.974945 730.932866 
L 452.906454 730.036516 
L 452.906342 729.620834 
L 453.021554 727.597402 
L 452.962497 727.059875 
L 453.104132 726.067686 
L 453.035685 725.613307 
L 452.539972 724.138665 
L 452.252252 724.108048 
L 451.854246 724.065696 
L 451.607834 724.039475 
L 451.452342 723.600237 
L 451.242617 722.494935 
L 451.087605 721.941112 
L 450.872633 721.487417 
L 450.747924 720.87887 
L 450.572639 720.550704 
L 450.52048 720.453053 
L 449.677149 719.262357 
L 449.264098 718.396924 
L 449.087597 717.642787 
L 448.786465 716.356136 
L 448.559456 715.931737 
L 447.377105 714.187039 
L 447.119374 713.938211 
L 446.388047 713.23215 
L 446.202397 713.052913 
L 445.595901 712.967705 
L 444.070191 712.45724 
L 442.969609 712.343342 
L 442.474981 712.186799 
L 441.490856 711.619426 
L 440.530892 710.939347 
L 439.975939 710.753904 
L 439.456525 710.881267 
L 439.194685 711.050857 
L 439.017415 711.165672 
L 438.66469 711.603781 
L 438.114086 711.929946 
L 437.469062 711.978896 
L 437.001929 712.014346 
L 436.883744 711.994661 
L 435.986048 711.845143 
L 435.896296 711.830194 
L 434.981773 711.50381 
L 434.542488 711.347034 
L 433.893456 711.281643 
L 432.844417 711.17595 
L 431.664414 710.977555 
L 431.127571 710.820578 
L 430.632542 710.891539 
L 430.026926 710.876678 
L 427.924904 710.563965 
L 427.374352 710.379858 
L 427.040692 710.145755 
L 426.636311 709.862032 
L 426.200512 709.556265 
L 425.800402 709.430722 
L 425.748233 709.414353 
L 425.098934 709.386227 
L 423.930323 709.640703 
L 422.601392 710.405221 
L 422.063864 710.504003 
L 421.650826 710.49154 
L 421.092257 710.474686 
L 420.584518 710.53132 
L 420.487272 710.57912 
L 419.820487 710.906871 
L 419.578815 711.025662 
L 419.045726 711.097606 
L 418.57723 710.84065 
L 418.33142 710.419151 
L 418.211603 710.326065 
L 417.450059 709.734413 
L 417.084692 709.450557 
L 416.448359 709.237519 
L 414.852648 708.885115 
L 413.248253 707.468804 
L 413.086426 707.325948 
L 413.019581 707.171723 
L 412.763116 706.580005 
L 412.69948 706.511314 
L 412.302626 706.082935 
L 412.277031 705.510655 
L 412.269336 705.338612 
L 411.030729 704.913882 
L 410.711807 704.451775 
L 409.802663 703.809542 
L 409.507832 703.601269 
L 409.482597 703.567207 
L 409.21138 703.201114 
L 409.100377 703.051214 
L 409.048844 702.981623 
L 409.032212 702.657149 
L 409.031088 702.635201 
L 409.025572 702.527607 
L 409.013325 702.288675 
L 409.061046 702.076536 
L 409.191704 701.495712 
L 409.238988 701.285518 
L 409.293031 701.045273 
L 409.539185 700.688105 
L 409.856429 700.227787 
L 409.914467 700.089096 
L 410.162837 699.495581 
L 410.242962 699.30411 
L 410.209403 699.242455 
L 409.856028 698.593233 
L 409.540411 697.448655 
L 409.533128 697.422245 
L 409.20214 696.925678 
L 409.107849 696.784217 
L 409.000825 695.966811 
L 409.496321 695.327008 
L 410.096982 694.722982 
L 410.450562 694.225907 
L 411.289217 693.649409 
L 411.331595 693.620278 
L 411.346322 693.593337 
L 411.933563 692.518979 
L 411.966218 692.426816 
L 412.109671 692.021941 
L 412.285275 691.062678 
L 412.282546 689.890156 
L 411.185088 688.435778 
L 410.901879 688.260269 
L 410.156723 687.798482 
L 408.957406 687.231914 
L 408.585173 686.825937 
L 408.56672 686.805811 
L 408.670638 686.202229 
L 408.885345 685.634757 
L 408.959086 685.31404 
L 409.130414 684.568883 
L 408.704172 684.035267 
L 406.545285 683.045264 
L 406.182022 682.710928 
L 405.380224 681.80345 
L 405.096377 681.236001 
L 404.732352 680.834817 
L 404.421071 680.491761 
L 404.192835 679.659077 
L 404.154251 678.967649 
L 404.138167 678.679407 
L 404.117717 678.556812 
L 404.010763 677.915648 
L 403.996113 677.827823 
L 403.712743 677.189612 
L 403.144152 676.834601 
L 402.5088 676.550636 
L 401.661937 676.340295 
L 398.195698 674.524908 
L 396.953164 673.669547 
L 396.105595 672.609363 
L 395.529364 671.72497 
L 394.093462 670.57807 
L 393.229845 669.674949 
L 392.49285 668.700175 
L 391.526854 667.189994 
L 391.147139 666.651548 
L 390.860981 666.245769 
L 390.145763 665.23157 
L 389.123172 664.054734 
L 388.630918 663.597916 
L 388.171834 663.171881 
L 386.814332 662.124611 
L 386.329892 661.821969 
L 386.071675 661.660654 
L 384.872785 661.076608 
L 381.903716 660.030857 
L 381.177504 659.882958 
L 380.351998 659.816383 
L 379.81284 659.853296 
L 377.73734 660.089766 
L 375.486903 660.770054 
L 374.055973 661.291884 
L 373.547983 661.343562 
L 371.983457 661.057135 
L 371.415592 660.814778 
L 371.169918 660.587352 
L 370.985779 660.416889 
L 370.832617 660.136884 
L 370.736497 659.961161 
L 370.534774 659.364769 
L 370.422798 658.204261 
L 370.294471 657.742557 
L 370.058105 657.291466 
L 370.050302 657.283879 
L 369.589009 656.835323 
L 369.150459 656.631972 
L 368.671729 656.575958 
L 367.938448 656.490161 
L 366.394586 656.172467 
L 364.244351 655.8607 
L 363.075298 655.824819 
L 362.09807 656.009275 
L 360.757293 656.041127 
L 359.982992 656.023752 
L 359.419784 655.914244 
L 358.857669 655.669028 
L 356.767262 653.699469 
L 355.91097 653.003759 
L 355.313678 652.746904 
L 354.354715 652.676087 
L 353.930224 652.452021 
L 353.589494 652.025091 
L 353.357979 651.520229 
L 353.271273 650.984081 
L 353.284509 650.444618 
L 353.38689 649.866436 
L 353.623276 649.344612 
L 353.655302 649.273913 
L 354.238634 647.986206 
L 354.324137 647.597448 
L 354.385278 647.319455 
L 354.402103 646.86235 
L 354.265587 645.178924 
L 354.249527 645.070404 
L 353.968374 643.170644 
L 353.950861 642.762071 
L 353.942947 642.577443 
L 353.730773 642.065711 
L 353.42117 641.607879 
L 353.099299 641.261918 
L 352.171228 640.59987 
L 350.329962 640.55034 
L 348.760839 641.065428 
L 348.314022 641.127665 
L 347.823147 641.090798 
L 346.606206 640.834957 
L 346.294513 640.693862 
L 345.561943 640.362248 
L 345.208882 639.925319 
L 344.75637 639.570422 
L 343.738322 638.771987 
L 343.305003 638.432142 
L 341.700447 637.74505 
L 341.171629 637.56633 
L 339.847608 637.118864 
L 338.828651 636.568937 
L 338.774967 636.523411 
L 338.247412 636.076024 
L 337.400565 635.357866 
L 336.257814 635.113864 
L 335.105024 635.327517 
L 334.120637 635.734905 
L 333.443293 636.160488 
L 332.331804 636.858848 
L 331.759981 637.0751 
L 331.307571 637.159897 
L 329.656722 636.923639 
L 328.090911 636.881733 
L 327.606142 636.86876 
L 327.305098 636.773255 
L 327.06051 636.695661 
L 326.575012 636.412864 
L 326.389465 635.952215 
L 326.298598 635.447293 
L 325.787968 635.145618 
L 325.96707 634.656132 
L 325.706067 634.275241 
L 325.318879 634.02713 
L 325.422721 633.447975 
L 325.78322 632.26924 
L 326.079673 630.483469 
L 326.333546 629.848839 
L 326.470378 628.737698 
L 326.315745 628.295425 
L 326.273863 627.815259 
L 326.006349 626.829456 
L 325.971939 626.272978 
L 325.887155 626.042674 
L 325.761835 625.702261 
L 325.374371 625.219794 
L 325.36686 625.205877 
L 325.113099 624.735705 
L 324.988778 624.302065 
L 324.965762 624.221782 
L 324.971455 624.178711 
L 325.094366 623.248936 
L 325.077105 623.158374 
L 324.9968 622.737041 
L 324.661258 621.76218 
L 324.334176 621.4116 
L 323.839501 621.203719 
L 323.095008 620.224966 
L 322.299557 619.401458 
L 321.985887 618.973491 
L 321.79315 618.548091 
L 321.746645 618.370521 
L 321.657543 618.0303 
L 321.651844 618.008538 
L 321.612353 616.072547 
L 321.596195 615.280417 
L 321.943025 614.130077 
L 322.055716 613.517919 
L 322.248192 612.47235 
L 322.176453 611.144484 
L 322.054375 610.620919 
L 322.038574 610.553153 
L 321.780972 610.292601 
L 321.723904 610.234878 
L 321.684891 610.195419 
L 321.580447 610.136773 
L 320.945925 609.780487 
L 320.705557 609.645519 
L 320.244501 609.625608 
L 319.084259 609.323445 
L 318.697328 609.170464 
L 318.550762 609.112516 
L 318.137745 608.756607 
L 317.952692 608.235569 
L 317.957506 608.095987 
L 317.970318 607.724511 
L 318.117543 607.203675 
L 318.151109 606.746277 
L 318.045108 606.427666 
L 317.617702 605.143 
L 317.664662 604.636598 
L 317.686634 604.615307 
L 318.279776 604.040528 
L 318.647927 603.683774 
L 318.98922 603.276305 
L 319.470794 602.633254 
L 320.005072 601.406182 
L 320.308577 600.481176 
L 320.326733 599.83302 
L 320.198528 599.244335 
L 320.008711 598.809244 
L 319.655489 598.407767 
L 319.617189 598.386059 
L 317.760199 597.333512 
L 316.979329 596.790777 
L 316.340897 596.347041 
L 316.113382 595.736666 
L 316.121844 595.164959 
L 316.162458 595.043778 
L 316.271836 594.71742 
L 316.400812 594.567359 
L 316.964188 593.911887 
L 317.239279 593.495313 
L 317.459367 592.976565 
L 317.578562 592.407167 
L 317.522794 591.755643 
L 317.124113 590.822049 
L 316.568275 590.264358 
L 315.590534 589.545829 
L 314.865602 588.613253 
L 314.633337 588.061723 
L 314.024432 587.158092 
L 312.853458 585.823985 
L 312.61649 585.356275 
L 312.218455 583.897497 
L 312.02385 583.184279 
L 311.989337 582.217021 
L 312.083641 581.737764 
L 312.991216 580.444516 
L 314.621066 577.408929 
L 314.862027 576.660103 
L 314.881419 576.402516 
L 314.929414 575.764983 
L 314.952454 575.458926 
L 314.987046 574.999425 
L 314.728074 573.917105 
L 313.655413 571.406337 
L 313.624841 571.319307 
L 313.244914 570.237762 
L 313.064277 569.211107 
L 313.119634 567.966276 
L 313.196968 567.687743 
L 313.240295 567.393928 
L 313.417045 566.894952 
L 313.474401 566.802552 
L 313.888351 566.13568 
L 313.992464 565.967955 
L 314.784912 565.214497 
L 315.12311 564.782567 
L 315.131711 564.771582 
L 315.44614 564.195652 
L 315.610675 563.584162 
L 315.600539 563.280054 
L 315.568319 562.313323 
L 315.541242 561.500936 
L 315.717344 560.068289 
L 315.872721 559.517558 
L 316.34049 558.452975 
L 317.282714 556.81691 
L 318.443406 554.801498 
L 318.676184 554.214743 
L 319.032036 552.461501 
L 318.984763 551.940375 
L 318.793137 551.25585 
L 318.421853 550.335317 
L 317.952413 549.527873 
L 317.760607 549.197963 
L 316.474658 547.237025 
L 316.039273 546.720909 
L 315.42516 545.992924 
L 315.330289 545.905835 
L 315.072683 545.669357 
L 314.200276 545.070524 
L 313.524954 544.875859 
L 312.594964 544.73603 
L 311.073493 544.772864 
L 310.119396 544.634049 
L 309.312471 544.357665 
L 309.284924 544.34823 
L 308.489845 543.733969 
L 307.659624 542.771818 
L 307.100619 541.720106 
L 306.928839 540.997256 
L 306.9156 540.910221 
L 306.66278 539.248186 
L 306.391951 538.123176 
L 306.017014 536.565704 
L 305.952848 535.439816 
L 306.029707 534.404309 
L 306.000194 533.943951 
L 305.871885 533.397556 
L 305.600637 532.800859 
L 304.967684 532.010388 
L 302.30249 529.602317 
L 298.156919 526.223546 
L 297.979762 525.929694 
L 296.550552 523.559045 
L 295.822182 522.350886 
L 295.724971 522.153302 
L 294.227429 519.109505 
L 294.17413 519.024708 
L 294.073047 518.86389 
L 293.904972 518.59649 
L 293.546759 518.108834 
L 292.765096 517.312051 
L 291.891778 516.574266 
L 290.711591 514.931754 
L 290.060654 513.820136 
L 289.591394 512.039715 
L 289.577 511.90172 
L 289.460441 510.78431 
L 289.458286 510.702564 
L 289.419322 509.224841 
L 289.540859 507.547458 
L 289.406849 504.768095 
L 289.291425 503.743656 
L 289.390085 501.611652 
L 289.119403 499.631251 
L 289.102431 499.506735 
L 288.181805 496.388551 
L 286.053138 492.035021 
L 285.274593 490.739244 
L 284.475055 489.639058 
L 284.458508 489.612177 
L 283.934286 488.760614 
L 283.848575 488.466304 
L 283.804857 488.316187 
L 283.094459 486.956985 
L 282.557803 484.829118 
L 282.277728 484.140897 
L 282.195823 483.939634 
L 282.182052 483.832331 
L 281.887605 481.53808 
L 281.925962 480.591454 
L 281.676111 478.434778 
L 281.593641 478.062512 
L 281.406894 477.219544 
L 281.014068 475.44634 
L 280.738318 473.031443 
L 280.582604 472.291038 
L 280.381678 471.335656 
L 279.930099 469.619425 
L 279.54785 467.665056 
L 279.207098 466.727278 
L 278.820806 466.17057 
L 277.590674 465.031696 
L 276.538048 464.451546 
L 275.493155 464.292188 
L 275.484513 464.29087 
L 274.460035 464.405748 
L 274.332875 464.420007 
L 273.721775 464.362028 
L 273.247649 464.151737 
L 272.921349 463.792914 
L 272.701576 462.92821 
L 272.50497 462.154664 
L 272.500162 458.417486 
L 272.384413 457.272616 
L 272.062434 455.818454 
L 271.623426 454.569854 
L 271.199904 453.108673 
L 270.986783 452.37339 
L 269.075625 448.410505 
L 268.791937 447.673523 
L 268.201936 446.140785 
L 267.809568 445.246059 
L 267.220778 444.280806 
L 266.423392 443.286846 
L 265.553669 442.202717 
L 265.223674 441.599337 
L 264.912106 441.029651 
L 264.735629 440.706971 
L 264.645702 440.347197 
L 264.532322 439.893593 
L 264.035579 439.084447 
L 263.229907 437.977649 
L 262.482741 437.355079 
L 260.53405 435.553548 
L 259.647743 434.612445 
L 258.131528 432.659693 
L 257.633247 431.829813 
L 257.399353 431.440266 
L 257.296292 431.142691 
L 256.76613 429.611929 
L 256.501938 428.849114 
L 256.092963 427.668259 
L 256.042706 427.566902 
L 255.964434 427.409046 
L 255.116633 425.699238 
L 254.571632 424.417544 
L 254.214419 423.723139 
" clip-path="url(#pdcca2886b2)" style="fill: #b3e2cd; fill-opacity: 0.65"/>
   </g>
   <g id="PatchCollection_2">
    <path d="M 422.371934 553.555633 
L 422.394147 553.677036 
L 422.339965 553.654933 
L 421.901887 553.70983 
L 421.502984 554.019188 
L 421.130302 553.859638 
L 420.876667 553.694424 
L 420.053964 554.658531 
L 419.491643 554.870708 
L 418.75516 555.01029 
L 418.010408 555.26266 
L 417.317473 555.886009 
L 414.746106 558.289902 
L 414.097007 558.744371 
L 413.949862 559.067173 
L 413.600982 560.819762 
L 412.760047 561.829259 
L 412.44327 562.063567 
L 411.661296 562.799096 
L 409.64327 563.416511 
L 370.6451 608.03428 
L 370.412048 608.903854 
L 370.330583 609.679679 
L 370.22208 610.013931 
L 369.674643 610.445924 
L 368.635884 611.299896 
L 368.007389 612.119337 
L 367.458399 613.380885 
L 367.083588 613.715814 
L 366.7187 613.764878 
L 365.481088 613.581938 
L 365.063068 613.358444 
L 364.454895 613.224599 
L 363.895196 613.476042 
L 363.334054 613.861603 
L 361.929011 613.881214 
L 361.220201 613.661494 
L 360.436591 613.557425 
L 359.871184 613.360476 
L 359.486685 613.282049 
L 359.270231 613.212555 
L 359.039857 613.13585 
L 358.778622 612.995265 
L 358.45589 613.037529 
L 357.801971 613.5808 
L 357.101418 613.901167 
L 356.857059 613.820756 
L 356.226141 614.180712 
L 356.065049 614.500088 
L 355.921172 614.523171 
L 355.741283 614.637613 
L 355.544287 614.713038 
L 355.050772 614.675694 
L 354.809655 614.620029 
L 354.487657 614.595206 
L 354.413534 614.322596 
L 354.417204 613.983812 
L 354.225411 613.903987 
L 354.190245 613.593003 
L 354.109413 613.616799 
L 353.846497 613.634993 
L 353.583354 613.674365 
L 353.257094 613.720094 
L 352.988733 613.59352 
L 352.218084 612.303621 
L 352.082592 611.878571 
L 351.863927 611.69257 
L 351.816881 611.508507 
L 351.345924 611.333759 
L 351.133244 611.243113 
L 350.879642 611.049656 
L 350.354313 611.043699 
L 350.207646 611.003219 
L 350.017174 610.803419 
L 349.799037 610.892705 
L 349.498857 610.797532 
L 348.781809 611.029375 
L 347.23889 610.553021 
L 347.049904 610.540283 
L 346.943764 610.637889 
L 346.671492 610.553617 
L 346.537997 610.59091 
L 346.420315 610.783664 
L 345.933837 610.749877 
L 345.462229 610.638631 
L 345.179081 610.589514 
L 344.980774 610.788398 
L 344.700043 610.838124 
L 344.556904 610.476525 
L 343.122663 610.640082 
L 341.976565 609.762358 
L 341.944349 609.825504 
L 341.82748 609.944149 
L 341.668023 609.794099 
L 341.60116 609.186368 
L 341.290197 609.119267 
L 341.113133 608.979621 
L 340.893423 608.895923 
L 340.565506 608.779236 
L 338.424456 608.264111 
L 338.43045 608.355937 
L 338.348829 608.453799 
L 338.236156 608.508966 
L 338.139863 608.666641 
L 337.481783 608.323835 
L 337.25074 607.682475 
L 336.955564 607.456757 
L 336.837336 607.38129 
L 336.701376 607.326797 
L 336.515223 607.377578 
L 336.266503 607.385292 
L 335.806897 607.464677 
L 334.593602 606.624339 
L 334.32414 606.482637 
L 334.079155 606.36567 
L 333.897457 606.093679 
L 333.621395 605.687427 
L 333.432709 605.404841 
L 333.096864 605.164221 
L 333.080145 604.645723 
L 333.178837 604.222711 
L 333.214417 603.85246 
L 333.005239 603.220646 
L 333.048077 602.677592 
L 332.719494 602.274767 
L 332.944011 602.010754 
L 333.028284 601.862812 
L 332.90969 601.545113 
L 332.53542 601.244462 
L 332.184623 599.289744 
L 333.421648 596.192273 
L 333.362914 595.620759 
L 332.982215 594.92865 
L 332.761744 594.832932 
L 332.514191 594.084683 
L 332.584573 593.827357 
L 332.563716 593.721504 
L 332.798842 593.337583 
L 332.844657 593.119001 
L 332.683761 592.998737 
L 332.512001 593.139444 
L 332.466755 592.938309 
L 332.56556 592.377729 
L 332.754971 592.131261 
L 332.898762 591.962272 
L 332.836154 591.648228 
L 332.903365 591.144017 
L 333.057643 590.97858 
L 333.215255 590.936584 
L 333.268264 590.576946 
L 333.380573 590.369096 
L 333.373774 590.213883 
L 333.034564 589.909847 
L 333.034856 589.687647 
L 333.343522 589.268579 
L 333.462703 589.163024 
L 333.484226 588.764514 
L 333.708564 588.560418 
L 333.973443 587.957315 
L 333.886504 587.683233 
L 333.893745 587.228185 
L 334.072284 586.741572 
L 333.939851 586.021772 
L 334.107723 585.849125 
L 334.044822 585.810245 
L 333.971422 585.824274 
L 333.95054 585.654914 
L 334.160352 585.45762 
L 334.045077 585.341071 
L 334.20254 584.984951 
L 334.443906 584.614834 
L 333.724457 583.566293 
L 333.87142 583.238387 
L 333.40808 582.65646 
L 333.347628 582.334706 
L 333.246374 582.147634 
L 333.257007 581.865435 
L 333.120734 581.801777 
L 332.924971 581.900338 
L 332.85518 581.685069 
L 332.914684 581.505229 
L 332.869318 581.371121 
L 333.030341 580.838645 
L 333.208816 580.348509 
L 333.264855 580.112218 
L 333.27897 579.815916 
L 333.038017 579.434662 
L 333.23378 579.322003 
L 333.366603 579.258641 
L 333.199 578.962143 
L 333.087236 578.796218 
L 333.20619 578.514144 
L 333.283131 578.39076 
L 333.090995 578.235336 
L 332.884888 578.079887 
L 332.940818 578.023511 
L 332.870954 577.981102 
L 332.668266 577.956183 
L 332.79418 577.719973 
L 332.975969 577.600241 
L 332.909637 577.45553 
L 332.525335 577.208177 
L 332.224761 577.281931 
L 331.770516 577.172081 
L 331.627231 577.189562 
L 331.599341 577.037837 
L 331.588912 576.924951 
L 331.333766 577.026959 
L 331.309338 576.949331 
L 331.361906 576.642491 
L 331.218683 576.532977 
L 330.834321 576.469063 
L 330.670146 576.306617 
L 330.47102 576.193516 
L 330.600532 575.752713 
L 330.032493 575.503483 
L 332.130161 574.838266 
L 332.888676 574.234177 
L 336.690442 572.909318 
L 337.808577 572.506028 
L 337.967949 572.297617 
L 337.973564 571.876511 
L 337.966098 571.291041 
L 339.177215 567.591646 
L 339.769075 566.635634 
L 340.628456 565.693634 
L 341.381785 565.033587 
L 344.697925 562.556799 
L 345.61715 562.056055 
L 346.244437 562.157813 
L 346.601778 561.595719 
L 347.350457 560.126601 
L 347.867279 559.624248 
L 348.627796 559.122744 
L 349.423323 558.357677 
L 349.937432 558.222203 
L 350.392806 558.313622 
L 351.2559 558.710307 
L 353.313714 559.97817 
L 355.06268 561.321393 
L 356.536979 562.13893 
L 357.38721 562.965932 
L 358.005538 563.89914 
L 359.671634 566.973922 
L 361.060453 569.634099 
L 362.33554 570.523195 
L 362.334521 570.676105 
L 394.213843 555.902072 
L 394.219272 555.514441 
L 394.251936 554.986337 
L 394.698687 554.216435 
L 395.156 553.884806 
L 395.608553 553.806731 
L 396.345822 553.906358 
L 398.320916 554.500384 
L 400.026881 555.192686 
L 400.781503 555.135366 
L 401.688358 554.845655 
L 402.828939 554.292316 
L 403.479334 553.708225 
L 403.937349 553.010202 
L 406.158404 549.031983 
L 406.411555 548.262698 
L 406.670981 547.942537 
L 408.781349 545.883474 
L 409.842614 544.456056 
L 410.243435 543.63002 
L 410.365227 543.129239 
L 410.606472 540.624194 
L 411.005695 535.655591 
L 411.330187 534.755989 
L 411.455644 534.54327 
L 412.789151 532.517917 
L 413.760628 533.672699 
L 414.915082 535.598876 
L 415.706285 537.080263 
L 416.354297 537.78257 
L 417.492895 539.038097 
L 417.792773 539.628558 
L 417.789928 539.911136 
L 417.701171 540.607653 
L 417.775452 541.773984 
L 418.056349 542.339205 
L 418.878001 543.232847 
L 419.352021 543.938833 
L 419.553442 544.867583 
L 419.590735 545.728784 
L 419.552785 547.467044 
L 419.75311 548.354952 
L 420.309906 549.641243 
L 420.734794 550.112077 
L 422.218669 551.280797 
L 422.425017 551.830901 
L 422.454229 552.616926 
L 422.371934 553.555633 
L 422.371934 553.555633 
" clip-path="url(#pdcca2886b2)" style="fill: none; stroke: #000000; stroke-width: 2"/>
   </g>
   <g id="matplotlib.axis_1">
    <g id="xtick_1">
     <g id="line2d_1">
      <path d="M 186.169842 768.96 
L 186.169842 103.68 
" clip-path="url(#pdcca2886b2)" style="fill: none; stroke: #b0b0b0; stroke-width: 0.8; stroke-linecap: square"/>
     </g>
     <g id="line2d_2">
      <defs>
       <path id="mb9c00537fb" d="M 0 0 
L 0 3.5 
" style="stroke: #000000; stroke-width: 0.8"/>
      </defs>
      <g>
       <use xlink:href="#mb9c00537fb" x="186.169842" y="768.96" style="stroke: #000000; stroke-width: 0.8"/>
      </g>
     </g>
     <g id="text_1">
      <!-- 58.5 -->
      <g transform="translate(177.286261 803.002415) rotate(-45) scale(0.1 -0.1)">
       <defs>
        <path id="DejaVuSans-2212" d="M 678 2272 
L 4684 2272 
L 4684 1741 
L 678 1741 
L 678 2272 
z
" transform="scale(0.015625)"/>
        <path id="DejaVuSans-35" d="M 691 4666 
L 3169 4666 
L 3169 4134 
L 1269 4134 
L 1269 2991 
Q 1406 3038 1543 3061 
Q 1681 3084 1819 3084 
Q 2600 3084 3056 2656 
Q 3513 2228 3513 1497 
Q 3513 744 3044 326 
Q 2575 -91 1722 -91 
Q 1428 -91 1123 -41 
Q 819 9 494 109 
L 494 744 
Q 775 591 1075 516 
Q 1375 441 1709 441 
Q 2250 441 2565 725 
Q 2881 1009 2881 1497 
Q 2881 1984 2565 2268 
Q 2250 2553 1709 2553 
Q 1456 2553 1204 2497 
Q 953 2441 691 2322 
L 691 4666 
z
" transform="scale(0.015625)"/>
        <path id="DejaVuSans-38" d="M 2034 2216 
Q 1584 2216 1326 1975 
Q 1069 1734 1069 1313 
Q 1069 891 1326 650 
Q 1584 409 2034 409 
Q 2484 409 2743 651 
Q 3003 894 3003 1313 
Q 3003 1734 2745 1975 
Q 2488 2216 2034 2216 
z
M 1403 2484 
Q 997 2584 770 2862 
Q 544 3141 544 3541 
Q 544 4100 942 4425 
Q 1341 4750 2034 4750 
Q 2731 4750 3128 4425 
Q 3525 4100 3525 3541 
Q 3525 3141 3298 2862 
Q 3072 2584 2669 2484 
Q 3125 2378 3379 2068 
Q 3634 1759 3634 1313 
Q 3634 634 3220 271 
Q 2806 -91 2034 -91 
Q 1263 -91 848 271 
Q 434 634 434 1313 
Q 434 1759 690 2068 
Q 947 2378 1403 2484 
z
M 1172 3481 
Q 1172 3119 1398 2916 
Q 1625 2713 2034 2713 
Q 2441 2713 2670 2916 
Q 2900 3119 2900 3481 
Q 2900 3844 2670 4047 
Q 2441 4250 2034 4250 
Q 1625 4250 1398 4047 
Q 1172 3844 1172 3481 
z
" transform="scale(0.015625)"/>
        <path id="DejaVuSans-2e" d="M 684 794 
L 1344 794 
L 1344 0 
L 684 0 
L 684 794 
z
" transform="scale(0.015625)"/>
       </defs>
       <use xlink:href="#DejaVuSans-2212"/>
       <use xlink:href="#DejaVuSans-35" transform="translate(83.789062 0)"/>
       <use xlink:href="#DejaVuSans-38" transform="translate(147.412109 0)"/>
       <use xlink:href="#DejaVuSans-2e" transform="translate(211.035156 0)"/>
       <use xlink:href="#DejaVuSans-35" transform="translate(242.822266 0)"/>
      </g>
     </g>
    </g>
    <g id="xtick_2">
     <g id="line2d_3">
      <path d="M 263.565496 768.96 
L 263.565496 103.68 
" clip-path="url(#pdcca2886b2)" style="fill: none; stroke: #b0b0b0; stroke-width: 0.8; stroke-linecap: square"/>
     </g>
     <g id="line2d_4">
      <g>
       <use xlink:href="#mb9c00537fb" x="263.565496" y="768.96" style="stroke: #000000; stroke-width: 0.8"/>
      </g>
     </g>
     <g id="text_2">
      <!-- 58.0 -->
      <g transform="translate(254.681914 803.002415) rotate(-45) scale(0.1 -0.1)">
       <defs>
        <path id="DejaVuSans-30" d="M 2034 4250 
Q 1547 4250 1301 3770 
Q 1056 3291 1056 2328 
Q 1056 1369 1301 889 
Q 1547 409 2034 409 
Q 2525 409 2770 889 
Q 3016 1369 3016 2328 
Q 3016 3291 2770 3770 
Q 2525 4250 2034 4250 
z
M 2034 4750 
Q 2819 4750 3233 4129 
Q 3647 3509 3647 2328 
Q 3647 1150 3233 529 
Q 2819 -91 2034 -91 
Q 1250 -91 836 529 
Q 422 1150 422 2328 
Q 422 3509 836 4129 
Q 1250 4750 2034 4750 
z
" transform="scale(0.015625)"/>
       </defs>
       <use xlink:href="#DejaVuSans-2212"/>
       <use xlink:href="#DejaVuSans-35" transform="translate(83.789062 0)"/>
       <use xlink:href="#DejaVuSans-38" transform="translate(147.412109 0)"/>
       <use xlink:href="#DejaVuSans-2e" transform="translate(211.035156 0)"/>
       <use xlink:href="#DejaVuSans-30" transform="translate(242.822266 0)"/>
      </g>
     </g>
    </g>
    <g id="xtick_3">
     <g id="line2d_5">
      <path d="M 340.96115 768.96 
L 340.96115 103.68 
" clip-path="url(#pdcca2886b2)" style="fill: none; stroke: #b0b0b0; stroke-width: 0.8; stroke-linecap: square"/>
     </g>
     <g id="line2d_6">
      <g>
       <use xlink:href="#mb9c00537fb" x="340.96115" y="768.96" style="stroke: #000000; stroke-width: 0.8"/>
      </g>
     </g>
     <g id="text_3">
      <!-- 57.5 -->
      <g transform="translate(332.077568 803.002415) rotate(-45) scale(0.1 -0.1)">
       <defs>
        <path id="DejaVuSans-37" d="M 525 4666 
L 3525 4666 
L 3525 4397 
L 1831 0 
L 1172 0 
L 2766 4134 
L 525 4134 
L 525 4666 
z
" transform="scale(0.015625)"/>
       </defs>
       <use xlink:href="#DejaVuSans-2212"/>
       <use xlink:href="#DejaVuSans-35" transform="translate(83.789062 0)"/>
       <use xlink:href="#DejaVuSans-37" transform="translate(147.412109 0)"/>
       <use xlink:href="#DejaVuSans-2e" transform="translate(211.035156 0)"/>
       <use xlink:href="#DejaVuSans-35" transform="translate(242.822266 0)"/>
      </g>
     </g>
    </g>
    <g id="xtick_4">
     <g id="line2d_7">
      <path d="M 418.356803 768.96 
L 418.356803 103.68 
" clip-path="url(#pdcca2886b2)" style="fill: none; stroke: #b0b0b0; stroke-width: 0.8; stroke-linecap: square"/>
     </g>
     <g id="line2d_8">
      <g>
       <use xlink:href="#mb9c00537fb" x="418.356803" y="768.96" style="stroke: #000000; stroke-width: 0.8"/>
      </g>
     </g>
     <g id="text_4">
      <!-- 57.0 -->
      <g transform="translate(409.473222 803.002415) rotate(-45) scale(0.1 -0.1)">
       <use xlink:href="#DejaVuSans-2212"/>
       <use xlink:href="#DejaVuSans-35" transform="translate(83.789062 0)"/>
       <use xlink:href="#DejaVuSans-37" transform="translate(147.412109 0)"/>
       <use xlink:href="#DejaVuSans-2e" transform="translate(211.035156 0)"/>
       <use xlink:href="#DejaVuSans-30" transform="translate(242.822266 0)"/>
      </g>
     </g>
    </g>
    <g id="xtick_5">
     <g id="line2d_9">
      <path d="M 495.752457 768.96 
L 495.752457 103.68 
" clip-path="url(#pdcca2886b2)" style="fill: none; stroke: #b0b0b0; stroke-width: 0.8; stroke-linecap: square"/>
     </g>
     <g id="line2d_10">
      <g>
       <use xlink:href="#mb9c00537fb" x="495.752457" y="768.96" style="stroke: #000000; stroke-width: 0.8"/>
      </g>
     </g>
     <g id="text_5">
      <!-- 56.5 -->
      <g transform="translate(486.868876 803.002415) rotate(-45) scale(0.1 -0.1)">
       <defs>
        <path id="DejaVuSans-36" d="M 2113 2584 
Q 1688 2584 1439 2293 
Q 1191 2003 1191 1497 
Q 1191 994 1439 701 
Q 1688 409 2113 409 
Q 2538 409 2786 701 
Q 3034 994 3034 1497 
Q 3034 2003 2786 2293 
Q 2538 2584 2113 2584 
z
M 3366 4563 
L 3366 3988 
Q 3128 4100 2886 4159 
Q 2644 4219 2406 4219 
Q 1781 4219 1451 3797 
Q 1122 3375 1075 2522 
Q 1259 2794 1537 2939 
Q 1816 3084 2150 3084 
Q 2853 3084 3261 2657 
Q 3669 2231 3669 1497 
Q 3669 778 3244 343 
Q 2819 -91 2113 -91 
Q 1303 -91 875 529 
Q 447 1150 447 2328 
Q 447 3434 972 4092 
Q 1497 4750 2381 4750 
Q 2619 4750 2861 4703 
Q 3103 4656 3366 4563 
z
" transform="scale(0.015625)"/>
       </defs>
       <use xlink:href="#DejaVuSans-2212"/>
       <use xlink:href="#DejaVuSans-35" transform="translate(83.789062 0)"/>
       <use xlink:href="#DejaVuSans-36" transform="translate(147.412109 0)"/>
       <use xlink:href="#DejaVuSans-2e" transform="translate(211.035156 0)"/>
       <use xlink:href="#DejaVuSans-35" transform="translate(242.822266 0)"/>
      </g>
     </g>
    </g>
    <g id="text_6">
     <!-- Longitude () -->
     <g transform="translate(336.139844 816.071414) scale(0.1 -0.1)">
      <defs>
       <path id="DejaVuSans-4c" d="M 628 4666 
L 1259 4666 
L 1259 531 
L 3531 531 
L 3531 0 
L 628 0 
L 628 4666 
z
" transform="scale(0.015625)"/>
       <path id="DejaVuSans-6f" d="M 1959 3097 
Q 1497 3097 1228 2736 
Q 959 2375 959 1747 
Q 959 1119 1226 758 
Q 1494 397 1959 397 
Q 2419 397 2687 759 
Q 2956 1122 2956 1747 
Q 2956 2369 2687 2733 
Q 2419 3097 1959 3097 
z
M 1959 3584 
Q 2709 3584 3137 3096 
Q 3566 2609 3566 1747 
Q 3566 888 3137 398 
Q 2709 -91 1959 -91 
Q 1206 -91 779 398 
Q 353 888 353 1747 
Q 353 2609 779 3096 
Q 1206 3584 1959 3584 
z
" transform="scale(0.015625)"/>
       <path id="DejaVuSans-6e" d="M 3513 2113 
L 3513 0 
L 2938 0 
L 2938 2094 
Q 2938 2591 2744 2837 
Q 2550 3084 2163 3084 
Q 1697 3084 1428 2787 
Q 1159 2491 1159 1978 
L 1159 0 
L 581 0 
L 581 3500 
L 1159 3500 
L 1159 2956 
Q 1366 3272 1645 3428 
Q 1925 3584 2291 3584 
Q 2894 3584 3203 3211 
Q 3513 2838 3513 2113 
z
" transform="scale(0.015625)"/>
       <path id="DejaVuSans-67" d="M 2906 1791 
Q 2906 2416 2648 2759 
Q 2391 3103 1925 3103 
Q 1463 3103 1205 2759 
Q 947 2416 947 1791 
Q 947 1169 1205 825 
Q 1463 481 1925 481 
Q 2391 481 2648 825 
Q 2906 1169 2906 1791 
z
M 3481 434 
Q 3481 -459 3084 -895 
Q 2688 -1331 1869 -1331 
Q 1566 -1331 1297 -1286 
Q 1028 -1241 775 -1147 
L 775 -588 
Q 1028 -725 1275 -790 
Q 1522 -856 1778 -856 
Q 2344 -856 2625 -561 
Q 2906 -266 2906 331 
L 2906 616 
Q 2728 306 2450 153 
Q 2172 0 1784 0 
Q 1141 0 747 490 
Q 353 981 353 1791 
Q 353 2603 747 3093 
Q 1141 3584 1784 3584 
Q 2172 3584 2450 3431 
Q 2728 3278 2906 2969 
L 2906 3500 
L 3481 3500 
L 3481 434 
z
" transform="scale(0.015625)"/>
       <path id="DejaVuSans-69" d="M 603 3500 
L 1178 3500 
L 1178 0 
L 603 0 
L 603 3500 
z
M 603 4863 
L 1178 4863 
L 1178 4134 
L 603 4134 
L 603 4863 
z
" transform="scale(0.015625)"/>
       <path id="DejaVuSans-74" d="M 1172 4494 
L 1172 3500 
L 2356 3500 
L 2356 3053 
L 1172 3053 
L 1172 1153 
Q 1172 725 1289 603 
Q 1406 481 1766 481 
L 2356 481 
L 2356 0 
L 1766 0 
Q 1100 0 847 248 
Q 594 497 594 1153 
L 594 3053 
L 172 3053 
L 172 3500 
L 594 3500 
L 594 4494 
L 1172 4494 
z
" transform="scale(0.015625)"/>
       <path id="DejaVuSans-75" d="M 544 1381 
L 544 3500 
L 1119 3500 
L 1119 1403 
Q 1119 906 1312 657 
Q 1506 409 1894 409 
Q 2359 409 2629 706 
Q 2900 1003 2900 1516 
L 2900 3500 
L 3475 3500 
L 3475 0 
L 2900 0 
L 2900 538 
Q 2691 219 2414 64 
Q 2138 -91 1772 -91 
Q 1169 -91 856 284 
Q 544 659 544 1381 
z
M 1991 3584 
L 1991 3584 
z
" transform="scale(0.015625)"/>
       <path id="DejaVuSans-64" d="M 2906 2969 
L 2906 4863 
L 3481 4863 
L 3481 0 
L 2906 0 
L 2906 525 
Q 2725 213 2448 61 
Q 2172 -91 1784 -91 
Q 1150 -91 751 415 
Q 353 922 353 1747 
Q 353 2572 751 3078 
Q 1150 3584 1784 3584 
Q 2172 3584 2448 3432 
Q 2725 3281 2906 2969 
z
M 947 1747 
Q 947 1113 1208 752 
Q 1469 391 1925 391 
Q 2381 391 2643 752 
Q 2906 1113 2906 1747 
Q 2906 2381 2643 2742 
Q 2381 3103 1925 3103 
Q 1469 3103 1208 2742 
Q 947 2381 947 1747 
z
" transform="scale(0.015625)"/>
       <path id="DejaVuSans-65" d="M 3597 1894 
L 3597 1613 
L 953 1613 
Q 991 1019 1311 708 
Q 1631 397 2203 397 
Q 2534 397 2845 478 
Q 3156 559 3463 722 
L 3463 178 
Q 3153 47 2828 -22 
Q 2503 -91 2169 -91 
Q 1331 -91 842 396 
Q 353 884 353 1716 
Q 353 2575 817 3079 
Q 1281 3584 2069 3584 
Q 2775 3584 3186 3129 
Q 3597 2675 3597 1894 
z
M 3022 2063 
Q 3016 2534 2758 2815 
Q 2500 3097 2075 3097 
Q 1594 3097 1305 2825 
Q 1016 2553 972 2059 
L 3022 2063 
z
" transform="scale(0.015625)"/>
       <path id="DejaVuSans-20" transform="scale(0.015625)"/>
       <path id="DejaVuSans-28" d="M 1984 4856 
Q 1566 4138 1362 3434 
Q 1159 2731 1159 2009 
Q 1159 1288 1364 580 
Q 1569 -128 1984 -844 
L 1484 -844 
Q 1016 -109 783 600 
Q 550 1309 550 2009 
Q 550 2706 781 3412 
Q 1013 4119 1484 4856 
L 1984 4856 
z
" transform="scale(0.015625)"/>
       <path id="DejaVuSans-b0" d="M 1600 4347 
Q 1350 4347 1178 4173 
Q 1006 4000 1006 3750 
Q 1006 3503 1178 3333 
Q 1350 3163 1600 3163 
Q 1850 3163 2022 3333 
Q 2194 3503 2194 3750 
Q 2194 3997 2020 4172 
Q 1847 4347 1600 4347 
z
M 1600 4750 
Q 1800 4750 1984 4673 
Q 2169 4597 2303 4453 
Q 2447 4313 2519 4134 
Q 2591 3956 2591 3750 
Q 2591 3338 2302 3052 
Q 2013 2766 1594 2766 
Q 1172 2766 890 3047 
Q 609 3328 609 3750 
Q 609 4169 896 4459 
Q 1184 4750 1600 4750 
z
" transform="scale(0.015625)"/>
       <path id="DejaVuSans-29" d="M 513 4856 
L 1013 4856 
Q 1481 4119 1714 3412 
Q 1947 2706 1947 2009 
Q 1947 1309 1714 600 
Q 1481 -109 1013 -844 
L 513 -844 
Q 928 -128 1133 580 
Q 1338 1288 1338 2009 
Q 1338 2731 1133 3434 
Q 928 4138 513 4856 
z
" transform="scale(0.015625)"/>
      </defs>
      <use xlink:href="#DejaVuSans-4c"/>
      <use xlink:href="#DejaVuSans-6f" transform="translate(53.962891 0)"/>
      <use xlink:href="#DejaVuSans-6e" transform="translate(115.144531 0)"/>
      <use xlink:href="#DejaVuSans-67" transform="translate(178.523438 0)"/>
      <use xlink:href="#DejaVuSans-69" transform="translate(242 0)"/>
      <use xlink:href="#DejaVuSans-74" transform="translate(269.783203 0)"/>
      <use xlink:href="#DejaVuSans-75" transform="translate(308.992188 0)"/>
      <use xlink:href="#DejaVuSans-64" transform="translate(372.371094 0)"/>
      <use xlink:href="#DejaVuSans-65" transform="translate(435.847656 0)"/>
      <use xlink:href="#DejaVuSans-20" transform="translate(497.371094 0)"/>
      <use xlink:href="#DejaVuSans-28" transform="translate(529.158203 0)"/>
      <use xlink:href="#DejaVuSans-b0" transform="translate(568.171875 0)"/>
      <use xlink:href="#DejaVuSans-29" transform="translate(618.171875 0)"/>
     </g>
    </g>
   </g>
   <g id="matplotlib.axis_2">
    <g id="ytick_1">
     <g id="line2d_11">
      <path d="M 170.993307 752.738436 
L 567.006693 752.738436 
" clip-path="url(#pdcca2886b2)" style="fill: none; stroke: #b0b0b0; stroke-width: 0.8; stroke-linecap: square"/>
     </g>
     <g id="line2d_12">
      <defs>
       <path id="maa9e9a29cf" d="M 0 0 
L -3.5 0 
" style="stroke: #000000; stroke-width: 0.8"/>
      </defs>
      <g>
       <use xlink:href="#maa9e9a29cf" x="170.993307" y="752.738436" style="stroke: #000000; stroke-width: 0.8"/>
      </g>
     </g>
     <g id="text_7">
      <!-- 9.5 -->
      <g transform="translate(139.710494 756.537655) scale(0.1 -0.1)">
       <defs>
        <path id="DejaVuSans-39" d="M 703 97 
L 703 672 
Q 941 559 1184 500 
Q 1428 441 1663 441 
Q 2288 441 2617 861 
Q 2947 1281 2994 2138 
Q 2813 1869 2534 1725 
Q 2256 1581 1919 1581 
Q 1219 1581 811 2004 
Q 403 2428 403 3163 
Q 403 3881 828 4315 
Q 1253 4750 1959 4750 
Q 2769 4750 3195 4129 
Q 3622 3509 3622 2328 
Q 3622 1225 3098 567 
Q 2575 -91 1691 -91 
Q 1453 -91 1209 -44 
Q 966 3 703 97 
z
M 1959 2075 
Q 2384 2075 2632 2365 
Q 2881 2656 2881 3163 
Q 2881 3666 2632 3958 
Q 2384 4250 1959 4250 
Q 1534 4250 1286 3958 
Q 1038 3666 1038 3163 
Q 1038 2656 1286 2365 
Q 1534 2075 1959 2075 
z
" transform="scale(0.015625)"/>
       </defs>
       <use xlink:href="#DejaVuSans-2212"/>
       <use xlink:href="#DejaVuSans-39" transform="translate(83.789062 0)"/>
       <use xlink:href="#DejaVuSans-2e" transform="translate(147.412109 0)"/>
       <use xlink:href="#DejaVuSans-35" transform="translate(179.199219 0)"/>
      </g>
     </g>
    </g>
    <g id="ytick_2">
     <g id="line2d_13">
      <path d="M 170.993307 674.512499 
L 567.006693 674.512499 
" clip-path="url(#pdcca2886b2)" style="fill: none; stroke: #b0b0b0; stroke-width: 0.8; stroke-linecap: square"/>
     </g>
     <g id="line2d_14">
      <g>
       <use xlink:href="#maa9e9a29cf" x="170.993307" y="674.512499" style="stroke: #000000; stroke-width: 0.8"/>
      </g>
     </g>
     <g id="text_8">
      <!-- 9.0 -->
      <g transform="translate(139.710494 678.311717) scale(0.1 -0.1)">
       <use xlink:href="#DejaVuSans-2212"/>
       <use xlink:href="#DejaVuSans-39" transform="translate(83.789062 0)"/>
       <use xlink:href="#DejaVuSans-2e" transform="translate(147.412109 0)"/>
       <use xlink:href="#DejaVuSans-30" transform="translate(179.199219 0)"/>
      </g>
     </g>
    </g>
    <g id="ytick_3">
     <g id="line2d_15">
      <path d="M 170.993307 596.286561 
L 567.006693 596.286561 
" clip-path="url(#pdcca2886b2)" style="fill: none; stroke: #b0b0b0; stroke-width: 0.8; stroke-linecap: square"/>
     </g>
     <g id="line2d_16">
      <g>
       <use xlink:href="#maa9e9a29cf" x="170.993307" y="596.286561" style="stroke: #000000; stroke-width: 0.8"/>
      </g>
     </g>
     <g id="text_9">
      <!-- 8.5 -->
      <g transform="translate(139.710494 600.085779) scale(0.1 -0.1)">
       <use xlink:href="#DejaVuSans-2212"/>
       <use xlink:href="#DejaVuSans-38" transform="translate(83.789062 0)"/>
       <use xlink:href="#DejaVuSans-2e" transform="translate(147.412109 0)"/>
       <use xlink:href="#DejaVuSans-35" transform="translate(179.199219 0)"/>
      </g>
     </g>
    </g>
    <g id="ytick_4">
     <g id="line2d_17">
      <path d="M 170.993307 518.060623 
L 567.006693 518.060623 
" clip-path="url(#pdcca2886b2)" style="fill: none; stroke: #b0b0b0; stroke-width: 0.8; stroke-linecap: square"/>
     </g>
     <g id="line2d_18">
      <g>
       <use xlink:href="#maa9e9a29cf" x="170.993307" y="518.060623" style="stroke: #000000; stroke-width: 0.8"/>
      </g>
     </g>
     <g id="text_10">
      <!-- 8.0 -->
      <g transform="translate(139.710494 521.859842) scale(0.1 -0.1)">
       <use xlink:href="#DejaVuSans-2212"/>
       <use xlink:href="#DejaVuSans-38" transform="translate(83.789062 0)"/>
       <use xlink:href="#DejaVuSans-2e" transform="translate(147.412109 0)"/>
       <use xlink:href="#DejaVuSans-30" transform="translate(179.199219 0)"/>
      </g>
     </g>
    </g>
    <g id="ytick_5">
     <g id="line2d_19">
      <path d="M 170.993307 439.834685 
L 567.006693 439.834685 
" clip-path="url(#pdcca2886b2)" style="fill: none; stroke: #b0b0b0; stroke-width: 0.8; stroke-linecap: square"/>
     </g>
     <g id="line2d_20">
      <g>
       <use xlink:href="#maa9e9a29cf" x="170.993307" y="439.834685" style="stroke: #000000; stroke-width: 0.8"/>
      </g>
     </g>
     <g id="text_11">
      <!-- 7.5 -->
      <g transform="translate(139.710494 443.633904) scale(0.1 -0.1)">
       <use xlink:href="#DejaVuSans-2212"/>
       <use xlink:href="#DejaVuSans-37" transform="translate(83.789062 0)"/>
       <use xlink:href="#DejaVuSans-2e" transform="translate(147.412109 0)"/>
       <use xlink:href="#DejaVuSans-35" transform="translate(179.199219 0)"/>
      </g>
     </g>
    </g>
    <g id="ytick_6">
     <g id="line2d_21">
      <path d="M 170.993307 361.608747 
L 567.006693 361.608747 
" clip-path="url(#pdcca2886b2)" style="fill: none; stroke: #b0b0b0; stroke-width: 0.8; stroke-linecap: square"/>
     </g>
     <g id="line2d_22">
      <g>
       <use xlink:href="#maa9e9a29cf" x="170.993307" y="361.608747" style="stroke: #000000; stroke-width: 0.8"/>
      </g>
     </g>
     <g id="text_12">
      <!-- 7.0 -->
      <g transform="translate(139.710494 365.407966) scale(0.1 -0.1)">
       <use xlink:href="#DejaVuSans-2212"/>
       <use xlink:href="#DejaVuSans-37" transform="translate(83.789062 0)"/>
       <use xlink:href="#DejaVuSans-2e" transform="translate(147.412109 0)"/>
       <use xlink:href="#DejaVuSans-30" transform="translate(179.199219 0)"/>
      </g>
     </g>
    </g>
    <g id="ytick_7">
     <g id="line2d_23">
      <path d="M 170.993307 283.382809 
L 567.006693 283.382809 
" clip-path="url(#pdcca2886b2)" style="fill: none; stroke: #b0b0b0; stroke-width: 0.8; stroke-linecap: square"/>
     </g>
     <g id="line2d_24">
      <g>
       <use xlink:href="#maa9e9a29cf" x="170.993307" y="283.382809" style="stroke: #000000; stroke-width: 0.8"/>
      </g>
     </g>
     <g id="text_13">
      <!-- 6.5 -->
      <g transform="translate(139.710494 287.182028) scale(0.1 -0.1)">
       <use xlink:href="#DejaVuSans-2212"/>
       <use xlink:href="#DejaVuSans-36" transform="translate(83.789062 0)"/>
       <use xlink:href="#DejaVuSans-2e" transform="translate(147.412109 0)"/>
       <use xlink:href="#DejaVuSans-35" transform="translate(179.199219 0)"/>
      </g>
     </g>
    </g>
    <g id="ytick_8">
     <g id="line2d_25">
      <path d="M 170.993307 205.156871 
L 567.006693 205.156871 
" clip-path="url(#pdcca2886b2)" style="fill: none; stroke: #b0b0b0; stroke-width: 0.8; stroke-linecap: square"/>
     </g>
     <g id="line2d_26">
      <g>
       <use xlink:href="#maa9e9a29cf" x="170.993307" y="205.156871" style="stroke: #000000; stroke-width: 0.8"/>
      </g>
     </g>
     <g id="text_14">
      <!-- 6.0 -->
      <g transform="translate(139.710494 208.95609) scale(0.1 -0.1)">
       <use xlink:href="#DejaVuSans-2212"/>
       <use xlink:href="#DejaVuSans-36" transform="translate(83.789062 0)"/>
       <use xlink:href="#DejaVuSans-2e" transform="translate(147.412109 0)"/>
       <use xlink:href="#DejaVuSans-30" transform="translate(179.199219 0)"/>
      </g>
     </g>
    </g>
    <g id="ytick_9">
     <g id="line2d_27">
      <path d="M 170.993307 126.930933 
L 567.006693 126.930933 
" clip-path="url(#pdcca2886b2)" style="fill: none; stroke: #b0b0b0; stroke-width: 0.8; stroke-linecap: square"/>
     </g>
     <g id="line2d_28">
      <g>
       <use xlink:href="#maa9e9a29cf" x="170.993307" y="126.930933" style="stroke: #000000; stroke-width: 0.8"/>
      </g>
     </g>
     <g id="text_15">
      <!-- 5.5 -->
      <g transform="translate(139.710494 130.730152) scale(0.1 -0.1)">
       <use xlink:href="#DejaVuSans-2212"/>
       <use xlink:href="#DejaVuSans-35" transform="translate(83.789062 0)"/>
       <use xlink:href="#DejaVuSans-2e" transform="translate(147.412109 0)"/>
       <use xlink:href="#DejaVuSans-35" transform="translate(179.199219 0)"/>
      </g>
     </g>
    </g>
    <g id="text_16">
     <!-- Latitude () -->
     <g transform="translate(133.630807 464.889531) rotate(-90) scale(0.1 -0.1)">
      <defs>
       <path id="DejaVuSans-61" d="M 2194 1759 
Q 1497 1759 1228 1600 
Q 959 1441 959 1056 
Q 959 750 1161 570 
Q 1363 391 1709 391 
Q 2188 391 2477 730 
Q 2766 1069 2766 1631 
L 2766 1759 
L 2194 1759 
z
M 3341 1997 
L 3341 0 
L 2766 0 
L 2766 531 
Q 2569 213 2275 61 
Q 1981 -91 1556 -91 
Q 1019 -91 701 211 
Q 384 513 384 1019 
Q 384 1609 779 1909 
Q 1175 2209 1959 2209 
L 2766 2209 
L 2766 2266 
Q 2766 2663 2505 2880 
Q 2244 3097 1772 3097 
Q 1472 3097 1187 3025 
Q 903 2953 641 2809 
L 641 3341 
Q 956 3463 1253 3523 
Q 1550 3584 1831 3584 
Q 2591 3584 2966 3190 
Q 3341 2797 3341 1997 
z
" transform="scale(0.015625)"/>
      </defs>
      <use xlink:href="#DejaVuSans-4c"/>
      <use xlink:href="#DejaVuSans-61" transform="translate(55.712891 0)"/>
      <use xlink:href="#DejaVuSans-74" transform="translate(116.992188 0)"/>
      <use xlink:href="#DejaVuSans-69" transform="translate(156.201172 0)"/>
      <use xlink:href="#DejaVuSans-74" transform="translate(183.984375 0)"/>
      <use xlink:href="#DejaVuSans-75" transform="translate(223.193359 0)"/>
      <use xlink:href="#DejaVuSans-64" transform="translate(286.572266 0)"/>
      <use xlink:href="#DejaVuSans-65" transform="translate(350.048828 0)"/>
      <use xlink:href="#DejaVuSans-20" transform="translate(411.572266 0)"/>
      <use xlink:href="#DejaVuSans-28" transform="translate(443.359375 0)"/>
      <use xlink:href="#DejaVuSans-b0" transform="translate(482.373047 0)"/>
      <use xlink:href="#DejaVuSans-29" transform="translate(532.373047 0)"/>
     </g>
    </g>
   </g>
   <g id="patch_3">
    <path d="M 170.993307 768.96 
L 170.993307 103.68 
" style="fill: none; stroke: #000000; stroke-width: 0.8; stroke-linejoin: miter; stroke-linecap: square"/>
   </g>
   <g id="patch_4">
    <path d="M 567.006693 768.96 
L 567.006693 103.68 
" style="fill: none; stroke: #000000; stroke-width: 0.8; stroke-linejoin: miter; stroke-linecap: square"/>
   </g>
   <g id="patch_5">
    <path d="M 170.993307 768.96 
L 567.006693 768.96 
" style="fill: none; stroke: #000000; stroke-width: 0.8; stroke-linejoin: miter; stroke-linecap: square"/>
   </g>
   <g id="patch_6">
    <path d="M 170.993307 103.68 
L 567.006693 103.68 
" style="fill: none; stroke: #000000; stroke-width: 0.8; stroke-linejoin: miter; stroke-linecap: square"/>
   </g>
   <g id="legend_1">
    <g id="patch_7">
     <path d="M 319.34375 891.430125 
L 418.65625 891.430125 
Q 420.65625 891.430125 420.65625 889.430125 
L 420.65625 875.752 
Q 420.65625 873.752 418.65625 873.752 
L 319.34375 873.752 
Q 317.34375 873.752 317.34375 875.752 
L 317.34375 889.430125 
Q 317.34375 891.430125 319.34375 891.430125 
z
" style="fill: #ffffff; opacity: 0.8; stroke: #cccccc; stroke-linejoin: miter"/>
    </g>
    <g id="line2d_29">
     <defs>
      <path id="mdd3ef49514" d="M 0 5 
C 1.326016 5 2.597899 4.473168 3.535534 3.535534 
C 4.473168 2.597899 5 1.326016 5 0 
C 5 -1.326016 4.473168 -2.597899 3.535534 -3.535534 
C 2.597899 -4.473168 1.326016 -5 0 -5 
C -1.326016 -5 -2.597899 -4.473168 -3.535534 -3.535534 
C -4.473168 -2.597899 -5 -1.326016 -5 0 
C -5 1.326016 -4.473168 2.597899 -3.535534 3.535534 
C -2.597899 4.473168 -1.326016 5 0 5 
z
"/>
     </defs>
     <g>
      <use xlink:href="#mdd3ef49514" x="331.34375" y="881.850437" style="fill: #b3e2cd; fill-opacity: 0.65"/>
     </g>
    </g>
    <g id="text_17">
     <!-- Jacareacanga -->
     <g transform="translate(349.34375 885.350437) scale(0.1 -0.1)">
      <defs>
       <path id="DejaVuSans-4a" d="M 628 4666 
L 1259 4666 
L 1259 325 
Q 1259 -519 939 -900 
Q 619 -1281 -91 -1281 
L -331 -1281 
L -331 -750 
L -134 -750 
Q 284 -750 456 -515 
Q 628 -281 628 325 
L 628 4666 
z
" transform="scale(0.015625)"/>
       <path id="DejaVuSans-63" d="M 3122 3366 
L 3122 2828 
Q 2878 2963 2633 3030 
Q 2388 3097 2138 3097 
Q 1578 3097 1268 2742 
Q 959 2388 959 1747 
Q 959 1106 1268 751 
Q 1578 397 2138 397 
Q 2388 397 2633 464 
Q 2878 531 3122 666 
L 3122 134 
Q 2881 22 2623 -34 
Q 2366 -91 2075 -91 
Q 1284 -91 818 406 
Q 353 903 353 1747 
Q 353 2603 823 3093 
Q 1294 3584 2113 3584 
Q 2378 3584 2631 3529 
Q 2884 3475 3122 3366 
z
" transform="scale(0.015625)"/>
       <path id="DejaVuSans-72" d="M 2631 2963 
Q 2534 3019 2420 3045 
Q 2306 3072 2169 3072 
Q 1681 3072 1420 2755 
Q 1159 2438 1159 1844 
L 1159 0 
L 581 0 
L 581 3500 
L 1159 3500 
L 1159 2956 
Q 1341 3275 1631 3429 
Q 1922 3584 2338 3584 
Q 2397 3584 2469 3576 
Q 2541 3569 2628 3553 
L 2631 2963 
z
" transform="scale(0.015625)"/>
      </defs>
      <use xlink:href="#DejaVuSans-4a"/>
      <use xlink:href="#DejaVuSans-61" transform="translate(29.492188 0)"/>
      <use xlink:href="#DejaVuSans-63" transform="translate(90.771484 0)"/>
      <use xlink:href="#DejaVuSans-61" transform="translate(145.751953 0)"/>
      <use xlink:href="#DejaVuSans-72" transform="translate(207.03125 0)"/>
      <use xlink:href="#DejaVuSans-65" transform="translate(245.894531 0)"/>
      <use xlink:href="#DejaVuSans-61" transform="translate(307.417969 0)"/>
      <use xlink:href="#DejaVuSans-63" transform="translate(368.697266 0)"/>
      <use xlink:href="#DejaVuSans-61" transform="translate(423.677734 0)"/>
      <use xlink:href="#DejaVuSans-6e" transform="translate(484.957031 0)"/>
      <use xlink:href="#DejaVuSans-67" transform="translate(548.335938 0)"/>
      <use xlink:href="#DejaVuSans-61" transform="translate(611.8125 0)"/>
     </g>
    </g>
   </g>
  </g>
 </g>
 <defs>
  <clipPath id="pdcca2886b2">
   <rect x="170.993307" y="103.68" width="396.013387" height="665.28"/>
  </clipPath>
 </defs>
</svg>
