<?xml version="1.0" encoding="utf-8" standalone="no"?>
<!DOCTYPE svg PUBLIC "-//W3C//DTD SVG 1.1//EN"
  "http://www.w3.org/Graphics/SVG/1.1/DTD/svg11.dtd">
<svg xmlns:xlink="http://www.w3.org/1999/xlink" width="720pt" height="864pt" viewBox="0 0 720 864" xmlns="http://www.w3.org/2000/svg" version="1.1">
 <metadata>
  <rdf:RDF xmlns:dc="http://purl.org/dc/elements/1.1/" xmlns:cc="http://creativecommons.org/ns#" xmlns:rdf="http://www.w3.org/1999/02/22-rdf-syntax-ns#">
   <cc:Work>
    <dc:type rdf:resource="http://purl.org/dc/dcmitype/StillImage"/>
    <dc:date>2025-06-16T16:51:18.349002</dc:date>
    <dc:format>image/svg+xml</dc:format>
    <dc:creator>
     <cc:Agent>
      <dc:title>Matplotlib v3.10.1, https://matplotlib.org/</dc:title>
     </cc:Agent>
    </dc:creator>
   </cc:Work>
  </rdf:RDF>
 </metadata>
 <defs>
  <style type="text/css">*{stroke-linejoin: round; stroke-linecap: butt}</style>
 </defs>
 <g id="figure_1">
  <g id="patch_1">
   <path d="M 0 864 
L 720 864 
L 720 0 
L 0 0 
z
" style="fill: #ffffff"/>
  </g>
  <g id="axes_1">
   <g id="patch_2">
    <path d="M 90 672.615085 
L 648 672.615085 
L 648 200.024915 
L 90 200.024915 
z
" style="fill: #ffffff"/>
   </g>
   <g id="PatchCollection_1">
    <path d="M 594.141076 424.516133 
L 594.298575 426.393605 
L 594.433864 427.412577 
L 594.436023 427.764321 
L 594.243076 428.073735 
L 593.735514 428.348479 
L 593.576392 428.597137 
L 593.584745 428.974505 
L 593.83303 429.299066 
L 593.939775 429.693412 
L 593.946899 430.010815 
L 594.089681 430.750352 
L 594.470712 431.536273 
L 594.605786 431.909681 
L 594.91353 432.461067 
L 595.021764 432.769192 
L 595.037623 433.057418 
L 595.135163 433.448646 
L 595.358798 433.781713 
L 595.419205 434.349336 
L 595.516127 434.639941 
L 595.986824 435.42183 
L 596.218349 435.728606 
L 596.46341 435.900362 
L 596.800042 436.379763 
L 597.05944 437.381508 
L 597.262463 437.772071 
L 597.703445 438.902711 
L 597.90755 439.281731 
L 598.211189 439.62899 
L 598.441021 440.077621 
L 598.573247 440.497454 
L 598.882832 440.876098 
L 599.139825 441.485727 
L 599.458217 441.893434 
L 599.88271 443.139193 
L 600.106197 443.489828 
L 600.363685 443.762113 
L 600.602313 444.236051 
L 600.877514 444.582897 
L 601.191196 445.108834 
L 602.028475 446.222233 
L 602.560477 446.728912 
L 602.906816 446.960264 
L 603.234951 447.267556 
L 604.002928 447.591388 
L 604.234166 447.846239 
L 605.084411 448.180211 
L 605.590038 448.557875 
L 606.812573 449.225651 
L 607.121863 449.45953 
L 607.458816 449.61337 
L 607.670394 449.848443 
L 608.527975 450.386466 
L 608.876806 450.691589 
L 609.398587 450.939103 
L 609.77154 451.331714 
L 610.144416 451.620534 
L 610.381835 451.895798 
L 610.682319 452.144713 
L 611.028028 452.318379 
L 611.285944 452.562085 
L 612.411277 453.304218 
L 612.757009 453.480762 
L 613.32885 453.870071 
L 613.792883 454.073534 
L 614.352639 454.596109 
L 615.415254 455.233956 
L 615.575191 455.48087 
L 615.884295 455.727118 
L 616.133411 456.031408 
L 616.822995 456.447619 
L 617.106269 456.699217 
L 617.558666 456.969334 
L 620.802554 459.855366 
L 621.057986 460.245799 
L 621.704166 461.06096 
L 621.989204 461.540568 
L 622.094418 461.85701 
L 622.308692 462.10298 
L 622.391721 462.29877 
L 622.47475 462.49456 
L 622.635769 463.354932 
L 622.59998 464.943644 
L 622.636364 465.238042 
L 622.624846 467.023211 
L 622.538249 467.859526 
L 622.263009 468.861103 
L 621.738894 469.557266 
L 621.350301 469.96253 
L 621.048881 470.469573 
L 620.182338 471.152682 
L 619.73796 471.778279 
L 619.302693 472.078045 
L 617.089338 474.347164 
L 616.840055 474.827354 
L 616.379961 475.245488 
L 616.007435 475.870629 
L 615.282648 476.697561 
L 614.855657 476.944809 
L 614.573149 477.220815 
L 614.120034 477.785941 
L 613.59019 478.175702 
L 612.916867 478.871707 
L 612.430643 479.696813 
L 612.340509 480.028658 
L 612.340096 480.365975 
L 612.570587 481.829634 
L 612.872358 482.756007 
L 613.093351 483.236035 
L 613.253288 483.831491 
L 613.526508 484.297049 
L 613.696229 484.760109 
L 614.102135 486.138714 
L 614.36145 486.719389 
L 614.599217 487.035544 
L 614.804867 487.67365 
L 615.087603 488.141443 
L 615.36037 488.711646 
L 616.070903 490.556721 
L 616.263125 490.829633 
L 616.455347 491.102544 
L 615.788842 491.917032 
L 614.670645 493.161168 
L 613.792873 493.847601 
L 613.244121 494.778954 
L 612.783221 496.001783 
L 612.490953 497.030347 
L 612.118269 498.070396 
L 611.296194 499.80533 
L 610.321106 502.45319 
L 608.3903 506.268661 
L 607.645151 507.369716 
L 607.051117 508.411254 
L 606.723084 509.595774 
L 606.483388 510.747999 
L 606.077765 511.629734 
L 605.891447 512.591326 
L 604.589385 513.029503 
L 603.719383 513.681062 
L 602.938321 515.182565 
L 602.321615 516.14384 
L 601.425025 518.00363 
L 600.04341 518.678764 
L 598.395428 518.543457 
L 597.351919 518.561866 
L 595.95027 518.769461 
L 594.691688 518.872889 
L 593.586829 519.182606 
L 592.567763 518.981995 
L 591.424594 519.104831 
L 568.793669 521.533959 
L 537.504346 524.888921 
L 515.677771 527.226746 
L 505.986841 528.264733 
L 491.79768 528.625846 
L 448.854483 529.713883 
L 443.738631 529.842952 
L 433.107895 530.110593 
L 413.897885 530.66394 
L 332.600754 532.988076 
L 332.309804 534.00559 
L 332.132495 535.195658 
L 332.512038 536.849969 
L 332.999765 537.664386 
L 333.98325 539.869821 
L 334.737591 541.118288 
L 335.747096 541.698938 
L 336.350367 542.657004 
L 337.522529 543.324772 
L 340.451288 543.843752 
L 341.549676 543.846359 
L 342.010455 544.977758 
L 341.946392 545.933692 
L 341.637459 547.329373 
L 340.741909 548.665094 
L 340.015838 549.970732 
L 338.698287 552.901925 
L 337.712978 554.180149 
L 336.906998 555.021581 
L 335.515915 556.241446 
L 334.505326 557.055439 
L 333.700022 557.550534 
L 332.370406 557.869291 
L 331.270684 557.636091 
L 330.093157 557.319036 
L 328.789758 557.753077 
L 328.472399 559.088252 
L 328.586945 560.10703 
L 329.490449 561.26519 
L 330.439717 561.903572 
L 331.360147 562.368357 
L 332.86569 562.715315 
L 334.01784 563.064218 
L 337.073302 563.353188 
L 337.969542 563.703196 
L 339.156053 564.023008 
L 341.055136 564.860928 
L 342.533252 566.373628 
L 342.878528 567.445312 
L 342.046197 568.20035 
L 341.009385 568.434442 
L 340.07737 568.898255 
L 339.271927 569.422256 
L 338.148779 570.060878 
L 337.135183 570.438849 
L 336.356168 570.959526 
L 335.408964 571.279977 
L 334.108023 571.076253 
L 333.011235 571.076301 
L 331.537961 570.700924 
L 330.555445 570.876668 
L 329.606654 570.440347 
L 328.648259 569.773177 
L 327.666501 568.987215 
L 326.602996 568.552082 
L 324.49455 567.971468 
L 323.193976 567.828553 
L 320.277594 567.160838 
L 319.127497 567.189954 
L 318.115188 567.597281 
L 315.663385 568.439092 
L 314.44938 568.933818 
L 313.348404 569.485072 
L 312.45516 570.269275 
L 311.96861 571.226746 
L 311.853455 572.157365 
L 312.110247 573.374008 
L 312.658368 574.274727 
L 312.887492 574.763951 
L 313.120984 575.2625 
L 313.7843 576.190863 
L 313.845252 577.296001 
L 314.163618 578.19508 
L 314.448109 579.209509 
L 314.35905 580.225993 
L 313.386724 580.750027 
L 312.543345 580.083301 
L 311.596438 579.415406 
L 310.125414 577.555989 
L 309.255081 576.686179 
L 308.131839 575.84372 
L 306.855215 575.351631 
L 305.641171 575.263002 
L 304.402195 575.350285 
L 303.542898 575.931676 
L 303.277881 576.860537 
L 302.67476 577.645764 
L 301.690947 577.00455 
L 301.346136 575.990097 
L 300.19405 576.192924 
L 298.891028 576.136491 
L 298.368865 575.294154 
L 297.768054 574.906863 
L 297.422344 574.683875 
L 296.960995 574.716388 
L 296.180207 574.771415 
L 295.198993 575.091349 
L 294.275664 575.641891 
L 293.460271 576.425661 
L 292.566485 576.049458 
L 291.936261 575.322554 
L 291.157124 574.73007 
L 291.095719 574.683375 
L 290.113087 574.307342 
L 288.961209 573.523469 
L 288.321324 572.651396 
L 287.490504 572.159062 
L 286.967849 573.377992 
L 287.31259 574.394831 
L 287.606058 575.55656 
L 287.427238 576.484411 
L 286.826171 577.558284 
L 285.843248 577.61552 
L 282.633851 577.122068 
L 281.455827 576.775903 
L 280.383625 576.862456 
L 280.242496 577.907899 
L 280.791714 578.982272 
L 280.854752 579.968888 
L 280.615522 580.89708 
L 280.241356 582.03066 
L 279.782651 582.841388 
L 279.462801 583.859502 
L 279.321501 584.815753 
L 279.436221 585.89216 
L 279.666995 587.050792 
L 279.721585 588.0669 
L 281.094427 588.313548 
L 282.447794 589.166776 
L 281.643076 589.860735 
L 280.623233 590.60839 
L 279.5 591.330333 
L 279.348449 592.517577 
L 279.658122 593.419152 
L 280.23467 594.262707 
L 281.154871 595.313972 
L 281.847066 596.213756 
L 282.52935 597.408315 
L 282.695707 598.394072 
L 281.944742 599.405874 
L 280.676633 600.03944 
L 280.4631 601.460551 
L 280.516774 602.883679 
L 280.25184 603.837719 
L 279.612492 604.909548 
L 279.436182 606.244152 
L 279.808822 607.610414 
L 280.233455 608.482768 
L 280.77293 609.848112 
L 280.853519 610.921802 
L 280.756684 614.285011 
L 280.641396 615.302326 
L 280.287861 616.461814 
L 279.763777 617.359261 
L 279.356048 618.603053 
L 278.570046 619.469894 
L 277.443445 619.641174 
L 276.582657 618.970387 
L 275.202047 618.498435 
L 274.21887 619.075653 
L 273.64204 619.90469 
L 273.395771 621.118462 
L 273.021753 622.165789 
L 271.32991 623.133122 
L 270.646581 623.950911 
L 270.566504 624.515421 
L 270.480322 625.121245 
L 271.639776 626.176959 
L 272.328862 626.63421 
L 272.456893 626.692689 
L 273.235051 627.236915 
L 273.474613 628.234415 
L 273.483731 629.382997 
L 273.26232 630.455479 
L 272.959939 631.502136 
L 272.216076 632.666685 
L 271.933358 633.626636 
L 271.419867 634.41465 
L 269.966514 635.874661 
L 270.141758 636.889841 
L 271.073532 637.372877 
L 271.824751 637.978142 
L 271.312231 638.996809 
L 270.516006 639.581425 
L 269.595026 640.605517 
L 269.3199 641.796668 
L 268.957586 642.930276 
L 268.814284 643.976078 
L 268.786228 645.211773 
L 268.203893 646.038002 
L 267.220361 646.568524 
L 266.334949 647.156529 
L 265.387902 647.626802 
L 264.456669 647.199187 
L 263.711338 647.78613 
L 263.287885 648.631697 
L 262.490437 649.158015 
L 261.533797 648.820018 
L 260.548874 648.623337 
L 259.902656 647.757931 
L 257.945773 647.63006 
L 256.995333 647.955694 
L 256.456006 649.295268 
L 255.914471 650.227806 
L 255.056229 650.581806 
L 254.292768 649.95085 
L 253.285095 649.696518 
L 252.283273 650.631563 
L 251.307876 651.133713 
L 250.246229 651.113504 
L 249.227709 651.035315 
L 248.421243 650.375401 
L 246.020781 649.612095 
L 245.038337 649.821807 
L 244.194674 649.249252 
L 243.440728 648.614714 
L 242.370089 647.985918 
L 240.838175 647.708346 
L 239.650257 647.255979 
L 239.320893 647.315056 
L 239.061231 647.361631 
L 238.472205 647.467283 
L 236.07017 646.934209 
L 233.733366 646.548281 
L 232.410817 646.906988 
L 231.171724 646.510261 
L 229.036248 647.367558 
L 227.681826 647.466857 
L 226.734063 647.763493 
L 225.502585 648.266621 
L 224.288492 648.247072 
L 222.624477 649.049862 
L 221.51494 648.12316 
L 220.967149 647.343327 
L 220.382445 646.160051 
L 219.787284 645.120608 
L 218.715549 644.31782 
L 217.819704 644.033803 
L 216.784601 644.186487 
L 215.668456 644.631495 
L 214.196415 644.846516 
L 213.700302 644.038363 
L 212.426144 643.525311 
L 211.442359 643.533335 
L 210.4053 643.252612 
L 209.705715 642.589286 
L 208.553899 642.366893 
L 207.36693 642.523783 
L 206.507238 643.166065 
L 205.700894 643.666877 
L 204.495748 643.647143 
L 203.547147 644.008362 
L 203.050442 644.139713 
L 202.168937 644.234941 
L 201.161161 644.726104 
L 200.983972 644.739196 
L 200.80401 644.752494 
L 195.861543 644.582508 
L 194.002477 644.328729 
L 193.01844 644.401058 
L 192.325402 643.770523 
L 191.428868 643.399742 
L 190.383797 643.235017 
L 189.135815 642.140678 
L 188.896382 641.042048 
L 188.489404 640.088356 
L 187.390261 639.978164 
L 185.377481 640.834448 
L 184.633381 641.537015 
L 184.048078 640.642248 
L 183.128727 640.361043 
L 182.346643 641.005469 
L 181.392472 640.664371 
L 180.815814 639.768674 
L 179.479026 638.271282 
L 178.574207 637.958498 
L 177.370121 638.201059 
L 176.448497 638.612851 
L 175.65989 637.837447 
L 174.737242 637.4664 
L 173.897303 636.835622 
L 172.65625 637.222434 
L 171.912241 637.950962 
L 171.034923 640.219572 
L 170.238421 640.98042 
L 169.078174 640.671181 
L 166.720268 641.500469 
L 165.71003 641.334846 
L 164.781488 640.935483 
L 163.267158 640.98085 
L 162.157635 641.447826 
L 161.297393 642.006836 
L 160.819133 643.025701 
L 160.687044 644.299857 
L 159.792983 644.945093 
L 158.748368 644.34356 
L 157.50814 644.209075 
L 156.585633 643.808776 
L 156.000879 643.003086 
L 155.073789 642.311129 
L 153.938682 640.668656 
L 152.813676 640.619616 
L 152.181636 641.436515 
L 151.325518 642.197916 
L 150.286509 642.147288 
L 149.382327 641.36941 
L 148.195226 640.974107 
L 147.469274 640.227105 
L 147.176832 639.182549 
L 146.477069 638.435122 
L 143.783245 640.602632 
L 143.144448 639.91005 
L 143.191742 638.921867 
L 142.270562 638.784265 
L 141.427271 638.095264 
L 140.118305 636.337382 
L 139.276436 635.879967 
L 138.263492 635.858588 
L 137.518785 636.586775 
L 136.574208 636.30572 
L 136.270624 635.322101 
L 135.89196 634.39689 
L 136.662692 633.636528 
L 137.467906 633.110214 
L 138.096417 632.205852 
L 138.777078 630.7791 
L 139.115076 629.879031 
L 139.656859 628.946214 
L 140.462638 628.301206 
L 141.35756 627.831642 
L 141.862219 626.957343 
L 142.4658 626.197795 
L 143.535241 626.073936 
L 144.484986 626.182549 
L 146.504053 626.082958 
L 147.327953 625.204226 
L 147.699591 624.188204 
L 147.397472 622.970698 
L 147.220167 621.986791 
L 146.893035 620.888671 
L 146.486614 620.049973 
L 145.592467 619.592227 
L 145.377512 618.550158 
L 145.574271 617.59072 
L 146.202061 616.484234 
L 146.946533 615.900471 
L 147.601709 615.169279 
L 148.179114 614.355293 
L 149.180945 613.939807 
L 149.630522 612.921401 
L 149.366269 611.793812 
L 149.152813 610.460361 
L 149.436003 609.531995 
L 150.382467 609.030438 
L 151.130225 608.356856 
L 151.20878 607.400602 
L 151.083571 606.41645 
L 151.24373 604.356647 
L 150.171193 603.928044 
L 149.879041 602.973566 
L 149.817401 602.04686 
L 150.38449 600.880626 
L 150.978696 600.095171 
L 151.871768 600.347907 
L 153.147604 600.107867 
L 153.680425 599.117383 
L 154.027006 598.214718 
L 154.363308 596.965276 
L 154.726596 595.94731 
L 155.240707 595.075612 
L 155.9844 594.402071 
L 156.383167 593.52804 
L 156.7177 592.51224 
L 157.115617 591.580749 
L 158.46446 589.771719 
L 158.951998 588.274375 
L 158.950013 587.251533 
L 158.774401 586.062608 
L 157.958395 585.552487 
L 157.091395 585.204321 
L 156.187469 584.405829 
L 155.921458 583.433618 
L 156.15984 582.21094 
L 156.549753 581.347939 
L 157.709566 580.982014 
L 158.728681 580.601739 
L 159.534454 580.109858 
L 160.299089 579.372423 
L 160.936124 578.532217 
L 161.405625 577.415009 
L 161.803764 575.316306 
L 161.769249 574.037482 
L 161.33599 573.086585 
L 161.032278 572.103303 
L 160.892601 571.144652 
L 160.475759 569.278823 
L 160.65109 568.099492 
L 161.148216 566.98361 
L 161.551437 566.078694 
L 161.753047 565.626237 
L 161.954658 565.173779 
L 162.174542 563.254977 
L 162.380038 562.06829 
L 163.043626 560.149125 
L 163.06178 559.175867 
L 162.475935 558.110167 
L 161.52124 557.427675 
L 160.304931 557.433119 
L 159.366433 557.200163 
L 159.047867 556.15946 
L 159.232013 555.536487 
L 159.331347 555.224795 
L 159.401566 554.248972 
L 159.305125 553.235813 
L 159.269308 552.211684 
L 159.526145 548.261725 
L 159.552619 547.149804 
L 159.456535 546.208547 
L 158.614159 545.733109 
L 157.670186 545.608718 
L 155.62255 544.649683 
L 153.653694 544.185516 
L 152.573273 543.774099 
L 152.05801 544.89986 
L 151.686422 546.068562 
L 151.112239 546.824665 
L 150.312778 547.426447 
L 149.48956 547.927263 
L 148.338967 548.394361 
L 147.416782 548.194454 
L 147.141024 546.182004 
L 145.989799 545.880909 
L 145.034337 545.694998 
L 144.075513 545.401667 
L 143.154782 545.264681 
L 142.287554 544.879082 
L 141.886209 544.004436 
L 141.570362 543.08752 
L 141.429377 542.052551 
L 141.276806 540.172912 
L 140.718456 539.352688 
L 140.303163 538.502351 
L 140.42549 536.557915 
L 138.885455 534.500035 
L 138.601821 533.573998 
L 138.574485 532.609831 
L 138.745673 531.61213 
L 139.610619 529.586926 
L 138.937044 528.832754 
L 137.75829 528.778018 
L 137.254386 527.966176 
L 137.505328 527.054464 
L 137.847659 526.198366 
L 137.557467 525.018784 
L 136.62523 524.214063 
L 135.959911 523.497371 
L 135.341954 521.340509 
L 135.803645 520.491966 
L 136.812476 519.779591 
L 137.732951 519.240891 
L 137.981924 518.336414 
L 137.822388 517.372547 
L 137.5195 516.432138 
L 136.997277 515.495597 
L 136.332843 514.774266 
L 135.500179 514.300605 
L 134.846696 513.45272 
L 133.309071 511.926621 
L 132.275625 511.291524 
L 131.400091 510.9347 
L 131.007216 509.850256 
L 131.762306 508.968945 
L 132.728315 508.982273 
L 134.774084 509.313384 
L 135.765463 509.277201 
L 137.653802 508.526857 
L 138.594075 508.571466 
L 139.807109 508.537164 
L 140.932109 508.099515 
L 141.011068 507.168954 
L 140.62251 506.286978 
L 140.649951 505.342206 
L 140.82652 504.37973 
L 141.587469 503.533052 
L 142.544772 503.468128 
L 143.422626 503.12025 
L 144.048903 502.37554 
L 144.110487 501.416474 
L 143.641431 500.595511 
L 142.908253 499.983366 
L 142.518156 498.812604 
L 141.839191 498.400114 
L 141.489413 498.187613 
L 140.354592 497.756867 
L 139.59438 496.809816 
L 138.688536 496.083177 
L 137.830879 496.445085 
L 136.78551 496.677573 
L 135.792793 496.592435 
L 135.774925 495.66258 
L 135.606479 494.678517 
L 135.588205 493.719783 
L 135.632308 492.759907 
L 135.632531 490.768055 
L 135.952877 489.804943 
L 136.147039 488.778273 
L 135.962258 487.86648 
L 136.510436 487.073049 
L 137.333409 486.607065 
L 138.176138 486.057818 
L 138.93644 485.130322 
L 140.036444 485.506112 
L 140.747248 486.213416 
L 142.012391 487.669709 
L 142.570264 488.438032 
L 143.482115 488.641637 
L 144.449314 488.291376 
L 144.467908 487.222762 
L 144.37713 486.253111 
L 144.183974 485.338204 
L 144.163913 484.10486 
L 145.034212 483.292394 
L 144.059952 482.681572 
L 143.19895 482.333333 
L 142.365995 480.571895 
L 142.037661 479.698582 
L 141.187695 479.239958 
L 140.691614 478.260231 
L 140.719004 477.286581 
L 140.958055 475.408651 
L 141.417206 474.571732 
L 141.49928 473.612573 
L 140.11604 470.736438 
L 139.797617 469.551162 
L 139.790068 468.534053 
L 140.593816 467.620844 
L 142.393642 466.471969 
L 143.279018 464.495934 
L 143.44797 463.550554 
L 144.414878 461.819358 
L 144.890908 460.899212 
L 145.317588 459.932499 
L 145.802899 459.032243 
L 146.307925 458.238467 
L 146.565079 457.217915 
L 146.866155 456.318465 
L 147.47787 455.605378 
L 147.921268 454.451176 
L 147.532183 453.600648 
L 146.017779 451.588571 
L 146.257492 450.519004 
L 146.166568 449.422279 
L 145.228819 449.102599 
L 144.652771 448.20983 
L 144.812328 447.27894 
L 145.194107 446.428532 
L 145.803624 445.402711 
L 146.148817 443.253189 
L 146.610849 442.418901 
L 146.361388 441.273474 
L 146.078301 440.261611 
L 146.068832 439.319612 
L 145.990383 438.375889 
L 145.688979 437.175519 
L 145.574722 435.986185 
L 146.061866 434.973036 
L 145.778359 433.787604 
L 146.107266 432.665683 
L 146.796654 432.041543 
L 147.912746 430.384883 
L 148.673991 429.42573 
L 149.401729 428.359582 
L 148.799725 426.608627 
L 147.814843 426.194374 
L 146.309977 426.36569 
L 145.361259 427.712038 
L 144.059844 426.926284 
L 143.163318 425.036469 
L 143.297673 422.880915 
L 143.721737 421.074155 
L 145.191947 418.812742 
L 146.239249 418.429988 
L 147.131308 418.033162 
L 149.692371 417.42132 
L 150.729818 417.431061 
L 151.474775 416.293245 
L 151.456167 415.06414 
L 151.447319 414.479775 
L 151.989713 413.007544 
L 152.653067 411.462317 
L 152.157361 410.50247 
L 150.447525 409.807955 
L 149.719958 408.921849 
L 149.302555 407.439233 
L 148.019092 406.927419 
L 147.302238 405.91649 
L 147.576695 404.197028 
L 146.965689 403.137129 
L 146.618476 401.1748 
L 146.059894 400.209684 
L 143.998167 399.862792 
L 142.003828 399.131788 
L 140.453887 398.156324 
L 140.275625 396.660804 
L 138.894349 396.30813 
L 137.76099 395.166575 
L 137.698454 393.997195 
L 136.643373 392.456466 
L 134.719954 390.768825 
L 132.852132 389.320341 
L 130.680754 388.116528 
L 128.873958 387.537619 
L 126.029929 388.395976 
L 123.578002 391.019962 
L 122.654538 391.459528 
L 121.883126 389.619453 
L 121.068886 388.632119 
L 121.793542 385.326032 
L 121.174314 384.022516 
L 118.171549 383.979727 
L 117.118494 383.692251 
L 115.914289 383.690438 
L 115.363636 382.424442 
L 115.540557 379.209763 
L 116.764203 377.084953 
L 118.101479 375.724773 
L 119.012929 374.58002 
L 119.668066 372.411578 
L 120.058599 369.371109 
L 119.307523 366.950939 
L 119.119715 365.87758 
L 119.944586 363.026298 
L 120.006281 361.174749 
L 118.960406 360.343345 
L 117.889336 358.280227 
L 118.729721 355.784717 
L 116.319529 355.103348 
L 116.658676 354.103572 
L 116.977791 353.568006 
L 117.233271 352.921785 
L 117.393465 352.670174 
L 118.616623 351.822314 
L 119.058482 351.675593 
L 119.997706 351.54511 
L 120.944622 351.324773 
L 121.351097 350.945115 
L 121.706476 350.723639 
L 122.230465 350.273915 
L 122.691893 349.989349 
L 123.002363 350.039823 
L 123.275617 350.197882 
L 123.60426 350.488286 
L 123.754945 350.819826 
L 123.861272 351.48945 
L 123.957328 351.809363 
L 124.107102 352.054261 
L 124.232914 352.489581 
L 124.666179 353.157621 
L 124.956927 353.379722 
L 125.259389 353.511377 
L 127.093246 353.746419 
L 128.128637 354.034582 
L 129.53009 354.626263 
L 130.565147 354.82777 
L 131.771768 354.822958 
L 132.435214 354.770635 
L 133.030169 354.834972 
L 133.348697 354.741282 
L 133.923472 354.788081 
L 134.162597 354.957229 
L 135.126659 355.221668 
L 135.8726 355.831806 
L 136.086228 356.09087 
L 136.37723 356.300528 
L 136.687884 356.394585 
L 137.989847 356.594113 
L 138.317121 356.460238 
L 138.981686 356.038805 
L 139.303224 355.90784 
L 139.540906 355.713388 
L 140.161927 355.468297 
L 140.789552 355.72742 
L 140.923654 355.999216 
L 141.14324 356.238032 
L 141.285637 356.572463 
L 141.502411 356.934028 
L 141.610797 357.114811 
L 141.719184 357.295593 
L 142.061197 357.650875 
L 142.403209 358.006157 
L 143.092029 358.621105 
L 143.385316 358.753052 
L 143.759077 358.748939 
L 144.156019 358.865737 
L 146.193547 359.007642 
L 146.930161 359.287377 
L 147.249908 359.496895 
L 147.708699 360.060772 
L 147.965333 360.221739 
L 148.258425 360.232674 
L 148.560157 360.320104 
L 149.382651 360.449883 
L 151.092655 360.587585 
L 151.412033 360.704394 
L 151.774265 360.761537 
L 152.173442 360.718607 
L 153.246812 360.436977 
L 154.193546 360.100994 
L 154.96619 360.052199 
L 155.575742 360.097926 
L 155.894895 360.229746 
L 156.196603 360.240058 
L 156.451747 360.103571 
L 156.744472 360.024108 
L 157.144036 360.077046 
L 157.437856 360.266724 
L 158.424176 360.481564 
L 158.703456 360.628271 
L 159.040006 360.727959 
L 159.420099 360.937203 
L 160.624815 361.232566 
L 161.203442 361.513471 
L 162.565528 361.859862 
L 164.282405 361.847555 
L 164.56964 361.900943 
L 165.507276 362.220483 
L 166.144758 362.139579 
L 166.598856 361.968181 
L 167.324063 361.771111 
L 167.608463 361.763864 
L 169.661354 361.859278 
L 170.813394 362.125921 
L 171.354615 361.624376 
L 171.52269 361.346743 
L 171.709385 362.099368 
L 171.868677 362.407688 
L 172.223988 362.66523 
L 173.373748 361.615654 
L 173.487701 361.312258 
L 174.02075 360.920191 
L 174.755585 360.830198 
L 175.632717 360.343995 
L 175.924278 359.984991 
L 176.227963 359.778695 
L 176.422356 359.474676 
L 176.786085 359.268128 
L 176.997366 359.018615 
L 177.13976 358.715392 
L 177.379626 357.529291 
L 177.48398 357.197928 
L 177.690426 356.890972 
L 178.503214 356.271923 
L 179.895244 355.597026 
L 180.593884 355.373482 
L 181.126796 355.021845 
L 181.929891 354.008386 
L 183.173191 353.151035 
L 183.543277 353.025315 
L 184.626789 352.226388 
L 185.485823 351.749503 
L 185.787031 351.641686 
L 186.079151 351.420713 
L 186.281984 351.14554 
L 186.47858 350.752291 
L 187.167956 349.963107 
L 187.497161 349.74862 
L 187.726158 349.478825 
L 188.061094 349.330151 
L 188.781659 349.133654 
L 189.126314 348.973389 
L 190.002302 348.432329 
L 190.332545 348.330163 
L 191.527884 348.382879 
L 191.890403 348.442566 
L 192.518479 348.251361 
L 192.712927 348.033977 
L 193.36057 347.644316 
L 193.8743 347.52116 
L 194.256203 347.475946 
L 195.15875 347.518333 
L 196.878195 347.251474 
L 197.159732 347.25057 
L 197.76418 346.906999 
L 198.375085 346.66475 
L 198.95784 346.560929 
L 199.261572 346.372245 
L 199.535863 346.082335 
L 199.854247 345.962599 
L 200.199376 345.917823 
L 202.024674 345.959159 
L 203.486671 345.823007 
L 204.090473 345.60157 
L 204.417801 345.559463 
L 204.683054 345.716853 
L 204.984602 345.76119 
L 205.239253 345.584261 
L 205.469729 344.988471 
L 205.886997 344.406323 
L 206.144336 344.186073 
L 206.338649 343.939526 
L 206.471702 343.540208 
L 206.657468 343.242592 
L 206.949629 343.105062 
L 207.199247 342.893506 
L 207.483127 342.768138 
L 207.729258 342.547359 
L 209.023756 341.664362 
L 209.264092 341.432058 
L 209.556358 341.252082 
L 209.839407 340.930376 
L 210.371486 340.46295 
L 210.778848 340.258808 
L 211.106097 340.199952 
L 211.806052 339.89408 
L 212.214459 339.325836 
L 212.506849 339.24403 
L 213.354535 339.295268 
L 213.976926 339.058443 
L 214.783531 338.838442 
L 215.472516 338.792761 
L 215.80196 338.574512 
L 216.085134 338.284278 
L 216.12938 337.946561 
L 215.942317 337.121589 
L 215.823944 336.778504 
L 215.669932 336.499092 
L 215.534894 335.815373 
L 215.62557 335.451183 
L 215.799516 335.21368 
L 216.357922 334.86164 
L 216.71414 334.793709 
L 217.564831 334.879578 
L 218.510571 335.092077 
L 218.223492 334.595248 
L 212.523084 324.719926 
L 201.608618 305.811828 
L 180.05552 268.473486 
L 179.237327 267.09831 
L 175.228077 260.359772 
L 168.971525 249.839429 
L 152.121526 221.506287 
L 208.675541 237.908795 
L 219.480405 241.040035 
L 229.152231 243.841156 
L 252.776843 250.683233 
L 273.643254 256.726489 
L 290.836421 261.753638 
L 291.393982 261.91634 
L 297.591615 263.727014 
L 309.130993 267.09831 
L 341.309656 276.49949 
L 341.975456 276.694008 
L 393.745458 291.844663 
L 398.638023 293.275589 
L 398.771213 293.497416 
L 399.07305 293.608775 
L 399.363456 293.612847 
L 399.834863 293.746465 
L 401.234455 294.448339 
L 402.065392 294.624348 
L 403.059767 294.146286 
L 403.377453 293.910726 
L 403.76638 293.736568 
L 404.111644 293.621198 
L 405.477878 293.54009 
L 406.486441 293.622019 
L 406.902985 293.576125 
L 407.436392 293.403567 
L 408.851323 293.177069 
L 409.135442 293.069208 
L 410.261369 292.417369 
L 410.635798 292.334745 
L 411.419821 292.372744 
L 413.531308 292.805296 
L 413.990564 292.742449 
L 414.621219 292.428022 
L 414.913684 292.383017 
L 415.586001 292.426168 
L 416.985697 292.376294 
L 418.614156 292.41271 
L 419.08839 292.358727 
L 419.493205 292.264402 
L 419.820739 292.107847 
L 420.184314 291.803099 
L 421.005842 290.757461 
L 421.275477 290.625717 
L 422.015628 290.444334 
L 422.363145 290.439446 
L 422.938071 290.537593 
L 423.23168 290.668577 
L 423.976236 290.800795 
L 424.94205 290.893542 
L 425.226329 290.878575 
L 425.968953 290.674955 
L 426.899342 290.044834 
L 427.119496 289.780613 
L 427.385328 289.577043 
L 428.058829 288.690836 
L 428.324738 288.444566 
L 428.607024 288.082231 
L 429.141883 287.741727 
L 429.838863 287.60325 
L 430.442885 287.602855 
L 431.131934 287.487207 
L 432.480404 287.364248 
L 433.445711 286.070374 
L 433.747652 286.14389 
L 434.03775 286.145336 
L 435.228022 285.802444 
L 436.174638 285.615979 
L 436.548253 285.604601 
L 436.961114 285.455697 
L 437.796175 285.304693 
L 438.807528 285.316683 
L 439.506616 285.607768 
L 439.96745 285.868014 
L 440.241498 286.109282 
L 440.578064 286.214352 
L 441.794633 286.216312 
L 441.801626 286.216324 
L 442.473331 286.137957 
L 443.863278 286.099275 
L 444.182483 286.236449 
L 444.459755 286.431532 
L 444.741309 287.142723 
L 444.918526 287.432646 
L 445.123305 287.662421 
L 445.708314 287.997612 
L 446.495579 288.16936 
L 447.344681 288.473503 
L 447.638561 288.657243 
L 448.294829 288.93898 
L 450.183464 289.544839 
L 451.261838 290.14784 
L 453.229457 290.806921 
L 453.822376 290.939226 
L 454.513091 291.271247 
L 454.901554 291.355539 
L 455.211116 291.285022 
L 455.442892 291.110466 
L 455.894524 290.675443 
L 456.063112 290.443798 
L 456.629923 289.952227 
L 456.982955 289.558383 
L 457.24957 289.343839 
L 457.657471 288.837496 
L 457.906261 288.619582 
L 458.215154 288.473774 
L 458.429331 288.169489 
L 458.535419 287.560245 
L 458.731022 286.98834 
L 458.908222 286.756365 
L 459.507388 286.704289 
L 459.653498 286.400928 
L 459.740655 286.083153 
L 459.997268 285.76452 
L 460.537855 285.314632 
L 460.760218 285.039446 
L 460.890806 284.676449 
L 460.837664 283.757896 
L 460.697125 283.453101 
L 460.395534 283.220665 
L 460.103636 282.916346 
L 460.147642 282.526668 
L 460.280611 282.179815 
L 460.289906 281.683574 
L 460.121884 281.453345 
L 459.324481 280.743364 
L 458.696479 280.021273 
L 458.401614 279.119504 
L 458.500726 278.836 
L 458.703895 278.627556 
L 460.387684 278.774865 
L 460.697174 278.692531 
L 460.86643 278.076918 
L 461.043272 277.773119 
L 461.272172 277.599165 
L 462.077627 277.335185 
L 462.936801 276.84361 
L 463.15928 276.649207 
L 463.74458 276.412876 
L 464.906028 276.063441 
L 465.125659 275.816837 
L 465.455463 275.604872 
L 465.790608 275.484617 
L 466.047864 275.238401 
L 466.081355 274.52569 
L 466.197736 274.193065 
L 466.825922 274.148934 
L 466.870924 273.843498 
L 467.032582 273.433045 
L 467.402822 273.382137 
L 467.6343 273.150189 
L 467.271171 272.266394 
L 467.349486 271.902519 
L 467.517204 271.555213 
L 467.820985 271.424157 
L 468.05829 271.208913 
L 468.183279 270.932212 
L 468.634672 270.453665 
L 468.972497 270.238492 
L 469.299469 270.15088 
L 470.247223 270.148701 
L 470.849997 270.021331 
L 471.266995 269.557671 
L 471.371657 269.236651 
L 471.363639 268.838599 
L 471.026587 268.517496 
L 471.541734 268.269411 
L 473.640723 267.664292 
L 474.195007 267.09831 
L 475.32402 265.945469 
L 476.606516 263.965598 
L 478.194864 262.272664 
L 479.993044 260.100412 
L 481.614238 258.029744 
L 483.369279 256.367452 
L 485.407372 255.030568 
L 486.644931 255.563742 
L 487.248633 259.071189 
L 488.382386 266.989839 
L 488.469194 267.09831 
L 489.090492 267.874662 
L 489.321351 268.603268 
L 489.454868 270.015713 
L 490.287669 271.189199 
L 490.853746 272.377312 
L 490.774728 274.347834 
L 491.79261 275.649569 
L 492.758156 278.678498 
L 493.97178 280.112159 
L 494.308342 281.950995 
L 494.396587 283.978315 
L 494.026013 285.641978 
L 493.414372 287.900811 
L 493.642459 288.743333 
L 493.970986 289.957715 
L 494.999193 291.114791 
L 545.263386 291.54569 
L 558.627914 291.66026 
L 559.548713 295.671635 
L 560.081004 299.424142 
L 560.602114 303.481785 
L 560.81445 307.578608 
L 561.434566 311.693342 
L 562.381799 315.728079 
L 563.693007 319.593777 
L 564.261209 322.073692 
L 565.191606 324.436497 
L 567.670741 331.824426 
L 568.708348 335.49251 
L 570.632677 341.456573 
L 571.522937 343.170646 
L 572.163416 344.403723 
L 572.784523 346.519551 
L 573.102819 347.925169 
L 573.873254 350.573277 
L 575.644954 353.920006 
L 577.266728 357.656524 
L 580.430227 363.659001 
L 581.103208 364.666429 
L 582.519649 366.78679 
L 584.512644 370.506456 
L 585.496767 373.701478 
L 586.524988 376.566639 
L 586.817351 378.3967 
L 586.348056 379.160697 
L 586.338089 380.928258 
L 586.506493 382.683221 
L 587.279176 384.826421 
L 587.870872 385.953444 
L 588.232211 386.415788 
L 588.428551 387.011464 
L 588.71243 387.445147 
L 588.899705 387.916891 
L 589.243945 388.353093 
L 589.485105 388.801733 
L 589.751365 389.07405 
L 590.032567 389.539171 
L 590.089149 389.679825 
L 590.253934 390.088843 
L 590.57291 390.479056 
L 590.740722 390.768973 
L 590.919683 391.289775 
L 591.088334 391.623511 
L 591.333918 392.377457 
L 591.450735 393.172544 
L 591.45917 393.621999 
L 591.345983 394.346967 
L 591.140625 394.650664 
L 590.556633 395.929185 
L 589.489157 397.515974 
L 589.075923 398.231227 
L 589.111533 398.89879 
L 589.251074 399.21569 
L 589.503006 399.490677 
L 589.855482 400.287225 
L 590.061096 400.504824 
L 590.441507 401.214987 
L 590.786976 402.755463 
L 590.90075 403.945578 
L 590.920245 405.320795 
L 591.016926 406.580499 
L 591.094656 407.032705 
L 591.124035 407.710102 
L 591.210722 408.217323 
L 591.406836 408.8098 
L 591.653922 409.229832 
L 591.812676 409.868666 
L 592.142492 410.662442 
L 592.187173 410.970104 
L 592.318121 411.287043 
L 592.380693 411.606705 
L 592.523071 411.86533 
L 592.49513 412.943849 
L 592.612295 413.30931 
L 593.027191 413.961275 
L 593.240897 414.559976 
L 593.409213 414.829972 
L 593.593765 415.454223 
L 593.967472 416.182839 
L 594.310091 417.137979 
L 594.373782 419.099646 
L 593.957587 420.452439 
L 593.86916 421.548336 
L 593.912711 422.889939 
L 594.141076 424.516133 
" clip-path="url(#p8934c854cf)" style="fill: #b3e2cd; fill-opacity: 0.65"/>
   </g>
   <g id="PatchCollection_2">
    <path d="M 433.90305 359.626119 
L 432.878606 359.892332 
L 431.045356 353.035087 
L 424.249838 354.84583 
L 422.360786 347.928113 
L 443.050153 342.149848 
L 443.739634 342.467403 
L 443.952226 342.565868 
L 444.064944 342.618075 
L 444.0971 342.634213 
L 444.128192 342.652343 
L 444.158097 342.672393 
L 444.186699 342.694286 
L 444.213887 342.717935 
L 444.239554 342.743248 
L 444.263599 342.770126 
L 444.285928 342.798465 
L 444.306455 342.828153 
L 444.435 343.027049 
L 444.56703 343.23173 
L 444.59474 343.274565 
L 444.643551 343.344603 
L 444.697051 343.41108 
L 444.754983 343.473678 
L 444.817071 343.5321 
L 444.883018 343.586065 
L 444.95251 343.635316 
L 445.025215 343.679618 
L 445.100785 343.718759 
L 445.17886 343.752553 
L 445.259067 343.780838 
L 445.341022 343.803479 
L 445.476069 343.835779 
L 445.683754 343.885454 
L 445.796168 343.909591 
L 445.857393 343.9249 
L 445.913175 343.940674 
L 445.967903 343.959828 
L 446.021375 343.982291 
L 446.073393 344.00798 
L 446.123767 344.036801 
L 446.17231 344.068648 
L 446.36455 344.203314 
L 448.596415 345.815269 
L 449.314686 346.34428 
L 449.454441 346.44721 
L 449.512915 346.493332 
L 449.568242 346.543233 
L 449.620182 346.596697 
L 449.668509 346.653492 
L 449.713012 346.713369 
L 449.753498 346.77607 
L 449.789791 346.84132 
L 449.821733 346.908837 
L 449.849185 346.978326 
L 449.872028 347.049486 
L 449.918445 347.212242 
L 450.161657 348.069513 
L 450.165996 348.084535 
L 450.203079 348.199935 
L 450.246939 348.3129 
L 450.29742 348.423028 
L 450.354342 348.529926 
L 450.417501 348.633211 
L 450.486673 348.732517 
L 450.69131 349.008392 
L 450.970405 349.404656 
L 451.30825 349.710469 
L 451.856139 350.65396 
L 452.617881 351.334378 
L 454.416101 352.197954 
L 455.16391 353.088141 
L 455.605858 353.59145 
L 433.90305 359.626119 
" clip-path="url(#p8934c854cf)" style="fill: none; stroke: #000000; stroke-width: 2"/>
   </g>
   <g id="matplotlib.axis_1">
    <g id="xtick_1">
     <g id="line2d_1">
      <path d="M 114.31169 672.615085 
L 114.31169 200.024915 
" clip-path="url(#p8934c854cf)" style="fill: none; stroke: #b0b0b0; stroke-width: 0.8; stroke-linecap: square"/>
     </g>
     <g id="line2d_2">
      <defs>
       <path id="mb2c8f3b07f" d="M 0 0 
L 0 3.5 
" style="stroke: #000000; stroke-width: 0.8"/>
      </defs>
      <g>
       <use xlink:href="#mb2c8f3b07f" x="114.31169" y="672.615085" style="stroke: #000000; stroke-width: 0.8"/>
      </g>
     </g>
     <g id="text_1">
      <!-- −51.0 -->
      <g transform="translate(105.428109 706.6575) rotate(-45) scale(0.1 -0.1)">
       <defs>
        <path id="DejaVuSans-2212" d="M 678 2272 
L 4684 2272 
L 4684 1741 
L 678 1741 
L 678 2272 
z
" transform="scale(0.015625)"/>
        <path id="DejaVuSans-35" d="M 691 4666 
L 3169 4666 
L 3169 4134 
L 1269 4134 
L 1269 2991 
Q 1406 3038 1543 3061 
Q 1681 3084 1819 3084 
Q 2600 3084 3056 2656 
Q 3513 2228 3513 1497 
Q 3513 744 3044 326 
Q 2575 -91 1722 -91 
Q 1428 -91 1123 -41 
Q 819 9 494 109 
L 494 744 
Q 775 591 1075 516 
Q 1375 441 1709 441 
Q 2250 441 2565 725 
Q 2881 1009 2881 1497 
Q 2881 1984 2565 2268 
Q 2250 2553 1709 2553 
Q 1456 2553 1204 2497 
Q 953 2441 691 2322 
L 691 4666 
z
" transform="scale(0.015625)"/>
        <path id="DejaVuSans-31" d="M 794 531 
L 1825 531 
L 1825 4091 
L 703 3866 
L 703 4441 
L 1819 4666 
L 2450 4666 
L 2450 531 
L 3481 531 
L 3481 0 
L 794 0 
L 794 531 
z
" transform="scale(0.015625)"/>
        <path id="DejaVuSans-2e" d="M 684 794 
L 1344 794 
L 1344 0 
L 684 0 
L 684 794 
z
" transform="scale(0.015625)"/>
        <path id="DejaVuSans-30" d="M 2034 4250 
Q 1547 4250 1301 3770 
Q 1056 3291 1056 2328 
Q 1056 1369 1301 889 
Q 1547 409 2034 409 
Q 2525 409 2770 889 
Q 3016 1369 3016 2328 
Q 3016 3291 2770 3770 
Q 2525 4250 2034 4250 
z
M 2034 4750 
Q 2819 4750 3233 4129 
Q 3647 3509 3647 2328 
Q 3647 1150 3233 529 
Q 2819 -91 2034 -91 
Q 1250 -91 836 529 
Q 422 1150 422 2328 
Q 422 3509 836 4129 
Q 1250 4750 2034 4750 
z
" transform="scale(0.015625)"/>
       </defs>
       <use xlink:href="#DejaVuSans-2212"/>
       <use xlink:href="#DejaVuSans-35" transform="translate(83.789062 0)"/>
       <use xlink:href="#DejaVuSans-31" transform="translate(147.412109 0)"/>
       <use xlink:href="#DejaVuSans-2e" transform="translate(211.035156 0)"/>
       <use xlink:href="#DejaVuSans-30" transform="translate(242.822266 0)"/>
      </g>
     </g>
    </g>
    <g id="xtick_2">
     <g id="line2d_3">
      <path d="M 178.097742 672.615085 
L 178.097742 200.024915 
" clip-path="url(#p8934c854cf)" style="fill: none; stroke: #b0b0b0; stroke-width: 0.8; stroke-linecap: square"/>
     </g>
     <g id="line2d_4">
      <g>
       <use xlink:href="#mb2c8f3b07f" x="178.097742" y="672.615085" style="stroke: #000000; stroke-width: 0.8"/>
      </g>
     </g>
     <g id="text_2">
      <!-- −50.8 -->
      <g transform="translate(169.214161 706.6575) rotate(-45) scale(0.1 -0.1)">
       <defs>
        <path id="DejaVuSans-38" d="M 2034 2216 
Q 1584 2216 1326 1975 
Q 1069 1734 1069 1313 
Q 1069 891 1326 650 
Q 1584 409 2034 409 
Q 2484 409 2743 651 
Q 3003 894 3003 1313 
Q 3003 1734 2745 1975 
Q 2488 2216 2034 2216 
z
M 1403 2484 
Q 997 2584 770 2862 
Q 544 3141 544 3541 
Q 544 4100 942 4425 
Q 1341 4750 2034 4750 
Q 2731 4750 3128 4425 
Q 3525 4100 3525 3541 
Q 3525 3141 3298 2862 
Q 3072 2584 2669 2484 
Q 3125 2378 3379 2068 
Q 3634 1759 3634 1313 
Q 3634 634 3220 271 
Q 2806 -91 2034 -91 
Q 1263 -91 848 271 
Q 434 634 434 1313 
Q 434 1759 690 2068 
Q 947 2378 1403 2484 
z
M 1172 3481 
Q 1172 3119 1398 2916 
Q 1625 2713 2034 2713 
Q 2441 2713 2670 2916 
Q 2900 3119 2900 3481 
Q 2900 3844 2670 4047 
Q 2441 4250 2034 4250 
Q 1625 4250 1398 4047 
Q 1172 3844 1172 3481 
z
" transform="scale(0.015625)"/>
       </defs>
       <use xlink:href="#DejaVuSans-2212"/>
       <use xlink:href="#DejaVuSans-35" transform="translate(83.789062 0)"/>
       <use xlink:href="#DejaVuSans-30" transform="translate(147.412109 0)"/>
       <use xlink:href="#DejaVuSans-2e" transform="translate(211.035156 0)"/>
       <use xlink:href="#DejaVuSans-38" transform="translate(242.822266 0)"/>
      </g>
     </g>
    </g>
    <g id="xtick_3">
     <g id="line2d_5">
      <path d="M 241.883794 672.615085 
L 241.883794 200.024915 
" clip-path="url(#p8934c854cf)" style="fill: none; stroke: #b0b0b0; stroke-width: 0.8; stroke-linecap: square"/>
     </g>
     <g id="line2d_6">
      <g>
       <use xlink:href="#mb2c8f3b07f" x="241.883794" y="672.615085" style="stroke: #000000; stroke-width: 0.8"/>
      </g>
     </g>
     <g id="text_3">
      <!-- −50.6 -->
      <g transform="translate(233.000212 706.6575) rotate(-45) scale(0.1 -0.1)">
       <defs>
        <path id="DejaVuSans-36" d="M 2113 2584 
Q 1688 2584 1439 2293 
Q 1191 2003 1191 1497 
Q 1191 994 1439 701 
Q 1688 409 2113 409 
Q 2538 409 2786 701 
Q 3034 994 3034 1497 
Q 3034 2003 2786 2293 
Q 2538 2584 2113 2584 
z
M 3366 4563 
L 3366 3988 
Q 3128 4100 2886 4159 
Q 2644 4219 2406 4219 
Q 1781 4219 1451 3797 
Q 1122 3375 1075 2522 
Q 1259 2794 1537 2939 
Q 1816 3084 2150 3084 
Q 2853 3084 3261 2657 
Q 3669 2231 3669 1497 
Q 3669 778 3244 343 
Q 2819 -91 2113 -91 
Q 1303 -91 875 529 
Q 447 1150 447 2328 
Q 447 3434 972 4092 
Q 1497 4750 2381 4750 
Q 2619 4750 2861 4703 
Q 3103 4656 3366 4563 
z
" transform="scale(0.015625)"/>
       </defs>
       <use xlink:href="#DejaVuSans-2212"/>
       <use xlink:href="#DejaVuSans-35" transform="translate(83.789062 0)"/>
       <use xlink:href="#DejaVuSans-30" transform="translate(147.412109 0)"/>
       <use xlink:href="#DejaVuSans-2e" transform="translate(211.035156 0)"/>
       <use xlink:href="#DejaVuSans-36" transform="translate(242.822266 0)"/>
      </g>
     </g>
    </g>
    <g id="xtick_4">
     <g id="line2d_7">
      <path d="M 305.669845 672.615085 
L 305.669845 200.024915 
" clip-path="url(#p8934c854cf)" style="fill: none; stroke: #b0b0b0; stroke-width: 0.8; stroke-linecap: square"/>
     </g>
     <g id="line2d_8">
      <g>
       <use xlink:href="#mb2c8f3b07f" x="305.669845" y="672.615085" style="stroke: #000000; stroke-width: 0.8"/>
      </g>
     </g>
     <g id="text_4">
      <!-- −50.4 -->
      <g transform="translate(296.786264 706.6575) rotate(-45) scale(0.1 -0.1)">
       <defs>
        <path id="DejaVuSans-34" d="M 2419 4116 
L 825 1625 
L 2419 1625 
L 2419 4116 
z
M 2253 4666 
L 3047 4666 
L 3047 1625 
L 3713 1625 
L 3713 1100 
L 3047 1100 
L 3047 0 
L 2419 0 
L 2419 1100 
L 313 1100 
L 313 1709 
L 2253 4666 
z
" transform="scale(0.015625)"/>
       </defs>
       <use xlink:href="#DejaVuSans-2212"/>
       <use xlink:href="#DejaVuSans-35" transform="translate(83.789062 0)"/>
       <use xlink:href="#DejaVuSans-30" transform="translate(147.412109 0)"/>
       <use xlink:href="#DejaVuSans-2e" transform="translate(211.035156 0)"/>
       <use xlink:href="#DejaVuSans-34" transform="translate(242.822266 0)"/>
      </g>
     </g>
    </g>
    <g id="xtick_5">
     <g id="line2d_9">
      <path d="M 369.455897 672.615085 
L 369.455897 200.024915 
" clip-path="url(#p8934c854cf)" style="fill: none; stroke: #b0b0b0; stroke-width: 0.8; stroke-linecap: square"/>
     </g>
     <g id="line2d_10">
      <g>
       <use xlink:href="#mb2c8f3b07f" x="369.455897" y="672.615085" style="stroke: #000000; stroke-width: 0.8"/>
      </g>
     </g>
     <g id="text_5">
      <!-- −50.2 -->
      <g transform="translate(360.572316 706.6575) rotate(-45) scale(0.1 -0.1)">
       <defs>
        <path id="DejaVuSans-32" d="M 1228 531 
L 3431 531 
L 3431 0 
L 469 0 
L 469 531 
Q 828 903 1448 1529 
Q 2069 2156 2228 2338 
Q 2531 2678 2651 2914 
Q 2772 3150 2772 3378 
Q 2772 3750 2511 3984 
Q 2250 4219 1831 4219 
Q 1534 4219 1204 4116 
Q 875 4013 500 3803 
L 500 4441 
Q 881 4594 1212 4672 
Q 1544 4750 1819 4750 
Q 2544 4750 2975 4387 
Q 3406 4025 3406 3419 
Q 3406 3131 3298 2873 
Q 3191 2616 2906 2266 
Q 2828 2175 2409 1742 
Q 1991 1309 1228 531 
z
" transform="scale(0.015625)"/>
       </defs>
       <use xlink:href="#DejaVuSans-2212"/>
       <use xlink:href="#DejaVuSans-35" transform="translate(83.789062 0)"/>
       <use xlink:href="#DejaVuSans-30" transform="translate(147.412109 0)"/>
       <use xlink:href="#DejaVuSans-2e" transform="translate(211.035156 0)"/>
       <use xlink:href="#DejaVuSans-32" transform="translate(242.822266 0)"/>
      </g>
     </g>
    </g>
    <g id="xtick_6">
     <g id="line2d_11">
      <path d="M 433.241949 672.615085 
L 433.241949 200.024915 
" clip-path="url(#p8934c854cf)" style="fill: none; stroke: #b0b0b0; stroke-width: 0.8; stroke-linecap: square"/>
     </g>
     <g id="line2d_12">
      <g>
       <use xlink:href="#mb2c8f3b07f" x="433.241949" y="672.615085" style="stroke: #000000; stroke-width: 0.8"/>
      </g>
     </g>
     <g id="text_6">
      <!-- −50.0 -->
      <g transform="translate(424.358367 706.6575) rotate(-45) scale(0.1 -0.1)">
       <use xlink:href="#DejaVuSans-2212"/>
       <use xlink:href="#DejaVuSans-35" transform="translate(83.789062 0)"/>
       <use xlink:href="#DejaVuSans-30" transform="translate(147.412109 0)"/>
       <use xlink:href="#DejaVuSans-2e" transform="translate(211.035156 0)"/>
       <use xlink:href="#DejaVuSans-30" transform="translate(242.822266 0)"/>
      </g>
     </g>
    </g>
    <g id="xtick_7">
     <g id="line2d_13">
      <path d="M 497.028001 672.615085 
L 497.028001 200.024915 
" clip-path="url(#p8934c854cf)" style="fill: none; stroke: #b0b0b0; stroke-width: 0.8; stroke-linecap: square"/>
     </g>
     <g id="line2d_14">
      <g>
       <use xlink:href="#mb2c8f3b07f" x="497.028001" y="672.615085" style="stroke: #000000; stroke-width: 0.8"/>
      </g>
     </g>
     <g id="text_7">
      <!-- −49.8 -->
      <g transform="translate(488.144419 706.6575) rotate(-45) scale(0.1 -0.1)">
       <defs>
        <path id="DejaVuSans-39" d="M 703 97 
L 703 672 
Q 941 559 1184 500 
Q 1428 441 1663 441 
Q 2288 441 2617 861 
Q 2947 1281 2994 2138 
Q 2813 1869 2534 1725 
Q 2256 1581 1919 1581 
Q 1219 1581 811 2004 
Q 403 2428 403 3163 
Q 403 3881 828 4315 
Q 1253 4750 1959 4750 
Q 2769 4750 3195 4129 
Q 3622 3509 3622 2328 
Q 3622 1225 3098 567 
Q 2575 -91 1691 -91 
Q 1453 -91 1209 -44 
Q 966 3 703 97 
z
M 1959 2075 
Q 2384 2075 2632 2365 
Q 2881 2656 2881 3163 
Q 2881 3666 2632 3958 
Q 2384 4250 1959 4250 
Q 1534 4250 1286 3958 
Q 1038 3666 1038 3163 
Q 1038 2656 1286 2365 
Q 1534 2075 1959 2075 
z
" transform="scale(0.015625)"/>
       </defs>
       <use xlink:href="#DejaVuSans-2212"/>
       <use xlink:href="#DejaVuSans-34" transform="translate(83.789062 0)"/>
       <use xlink:href="#DejaVuSans-39" transform="translate(147.412109 0)"/>
       <use xlink:href="#DejaVuSans-2e" transform="translate(211.035156 0)"/>
       <use xlink:href="#DejaVuSans-38" transform="translate(242.822266 0)"/>
      </g>
     </g>
    </g>
    <g id="xtick_8">
     <g id="line2d_15">
      <path d="M 560.814052 672.615085 
L 560.814052 200.024915 
" clip-path="url(#p8934c854cf)" style="fill: none; stroke: #b0b0b0; stroke-width: 0.8; stroke-linecap: square"/>
     </g>
     <g id="line2d_16">
      <g>
       <use xlink:href="#mb2c8f3b07f" x="560.814052" y="672.615085" style="stroke: #000000; stroke-width: 0.8"/>
      </g>
     </g>
     <g id="text_8">
      <!-- −49.6 -->
      <g transform="translate(551.930471 706.6575) rotate(-45) scale(0.1 -0.1)">
       <use xlink:href="#DejaVuSans-2212"/>
       <use xlink:href="#DejaVuSans-34" transform="translate(83.789062 0)"/>
       <use xlink:href="#DejaVuSans-39" transform="translate(147.412109 0)"/>
       <use xlink:href="#DejaVuSans-2e" transform="translate(211.035156 0)"/>
       <use xlink:href="#DejaVuSans-36" transform="translate(242.822266 0)"/>
      </g>
     </g>
    </g>
    <g id="xtick_9">
     <g id="line2d_17">
      <path d="M 624.600104 672.615085 
L 624.600104 200.024915 
" clip-path="url(#p8934c854cf)" style="fill: none; stroke: #b0b0b0; stroke-width: 0.8; stroke-linecap: square"/>
     </g>
     <g id="line2d_18">
      <g>
       <use xlink:href="#mb2c8f3b07f" x="624.600104" y="672.615085" style="stroke: #000000; stroke-width: 0.8"/>
      </g>
     </g>
     <g id="text_9">
      <!-- −49.4 -->
      <g transform="translate(615.716523 706.6575) rotate(-45) scale(0.1 -0.1)">
       <use xlink:href="#DejaVuSans-2212"/>
       <use xlink:href="#DejaVuSans-34" transform="translate(83.789062 0)"/>
       <use xlink:href="#DejaVuSans-39" transform="translate(147.412109 0)"/>
       <use xlink:href="#DejaVuSans-2e" transform="translate(211.035156 0)"/>
       <use xlink:href="#DejaVuSans-34" transform="translate(242.822266 0)"/>
      </g>
     </g>
    </g>
    <g id="text_10">
     <!-- Longitude (°) -->
     <g transform="translate(336.139844 719.726498) scale(0.1 -0.1)">
      <defs>
       <path id="DejaVuSans-4c" d="M 628 4666 
L 1259 4666 
L 1259 531 
L 3531 531 
L 3531 0 
L 628 0 
L 628 4666 
z
" transform="scale(0.015625)"/>
       <path id="DejaVuSans-6f" d="M 1959 3097 
Q 1497 3097 1228 2736 
Q 959 2375 959 1747 
Q 959 1119 1226 758 
Q 1494 397 1959 397 
Q 2419 397 2687 759 
Q 2956 1122 2956 1747 
Q 2956 2369 2687 2733 
Q 2419 3097 1959 3097 
z
M 1959 3584 
Q 2709 3584 3137 3096 
Q 3566 2609 3566 1747 
Q 3566 888 3137 398 
Q 2709 -91 1959 -91 
Q 1206 -91 779 398 
Q 353 888 353 1747 
Q 353 2609 779 3096 
Q 1206 3584 1959 3584 
z
" transform="scale(0.015625)"/>
       <path id="DejaVuSans-6e" d="M 3513 2113 
L 3513 0 
L 2938 0 
L 2938 2094 
Q 2938 2591 2744 2837 
Q 2550 3084 2163 3084 
Q 1697 3084 1428 2787 
Q 1159 2491 1159 1978 
L 1159 0 
L 581 0 
L 581 3500 
L 1159 3500 
L 1159 2956 
Q 1366 3272 1645 3428 
Q 1925 3584 2291 3584 
Q 2894 3584 3203 3211 
Q 3513 2838 3513 2113 
z
" transform="scale(0.015625)"/>
       <path id="DejaVuSans-67" d="M 2906 1791 
Q 2906 2416 2648 2759 
Q 2391 3103 1925 3103 
Q 1463 3103 1205 2759 
Q 947 2416 947 1791 
Q 947 1169 1205 825 
Q 1463 481 1925 481 
Q 2391 481 2648 825 
Q 2906 1169 2906 1791 
z
M 3481 434 
Q 3481 -459 3084 -895 
Q 2688 -1331 1869 -1331 
Q 1566 -1331 1297 -1286 
Q 1028 -1241 775 -1147 
L 775 -588 
Q 1028 -725 1275 -790 
Q 1522 -856 1778 -856 
Q 2344 -856 2625 -561 
Q 2906 -266 2906 331 
L 2906 616 
Q 2728 306 2450 153 
Q 2172 0 1784 0 
Q 1141 0 747 490 
Q 353 981 353 1791 
Q 353 2603 747 3093 
Q 1141 3584 1784 3584 
Q 2172 3584 2450 3431 
Q 2728 3278 2906 2969 
L 2906 3500 
L 3481 3500 
L 3481 434 
z
" transform="scale(0.015625)"/>
       <path id="DejaVuSans-69" d="M 603 3500 
L 1178 3500 
L 1178 0 
L 603 0 
L 603 3500 
z
M 603 4863 
L 1178 4863 
L 1178 4134 
L 603 4134 
L 603 4863 
z
" transform="scale(0.015625)"/>
       <path id="DejaVuSans-74" d="M 1172 4494 
L 1172 3500 
L 2356 3500 
L 2356 3053 
L 1172 3053 
L 1172 1153 
Q 1172 725 1289 603 
Q 1406 481 1766 481 
L 2356 481 
L 2356 0 
L 1766 0 
Q 1100 0 847 248 
Q 594 497 594 1153 
L 594 3053 
L 172 3053 
L 172 3500 
L 594 3500 
L 594 4494 
L 1172 4494 
z
" transform="scale(0.015625)"/>
       <path id="DejaVuSans-75" d="M 544 1381 
L 544 3500 
L 1119 3500 
L 1119 1403 
Q 1119 906 1312 657 
Q 1506 409 1894 409 
Q 2359 409 2629 706 
Q 2900 1003 2900 1516 
L 2900 3500 
L 3475 3500 
L 3475 0 
L 2900 0 
L 2900 538 
Q 2691 219 2414 64 
Q 2138 -91 1772 -91 
Q 1169 -91 856 284 
Q 544 659 544 1381 
z
M 1991 3584 
L 1991 3584 
z
" transform="scale(0.015625)"/>
       <path id="DejaVuSans-64" d="M 2906 2969 
L 2906 4863 
L 3481 4863 
L 3481 0 
L 2906 0 
L 2906 525 
Q 2725 213 2448 61 
Q 2172 -91 1784 -91 
Q 1150 -91 751 415 
Q 353 922 353 1747 
Q 353 2572 751 3078 
Q 1150 3584 1784 3584 
Q 2172 3584 2448 3432 
Q 2725 3281 2906 2969 
z
M 947 1747 
Q 947 1113 1208 752 
Q 1469 391 1925 391 
Q 2381 391 2643 752 
Q 2906 1113 2906 1747 
Q 2906 2381 2643 2742 
Q 2381 3103 1925 3103 
Q 1469 3103 1208 2742 
Q 947 2381 947 1747 
z
" transform="scale(0.015625)"/>
       <path id="DejaVuSans-65" d="M 3597 1894 
L 3597 1613 
L 953 1613 
Q 991 1019 1311 708 
Q 1631 397 2203 397 
Q 2534 397 2845 478 
Q 3156 559 3463 722 
L 3463 178 
Q 3153 47 2828 -22 
Q 2503 -91 2169 -91 
Q 1331 -91 842 396 
Q 353 884 353 1716 
Q 353 2575 817 3079 
Q 1281 3584 2069 3584 
Q 2775 3584 3186 3129 
Q 3597 2675 3597 1894 
z
M 3022 2063 
Q 3016 2534 2758 2815 
Q 2500 3097 2075 3097 
Q 1594 3097 1305 2825 
Q 1016 2553 972 2059 
L 3022 2063 
z
" transform="scale(0.015625)"/>
       <path id="DejaVuSans-20" transform="scale(0.015625)"/>
       <path id="DejaVuSans-28" d="M 1984 4856 
Q 1566 4138 1362 3434 
Q 1159 2731 1159 2009 
Q 1159 1288 1364 580 
Q 1569 -128 1984 -844 
L 1484 -844 
Q 1016 -109 783 600 
Q 550 1309 550 2009 
Q 550 2706 781 3412 
Q 1013 4119 1484 4856 
L 1984 4856 
z
" transform="scale(0.015625)"/>
       <path id="DejaVuSans-b0" d="M 1600 4347 
Q 1350 4347 1178 4173 
Q 1006 4000 1006 3750 
Q 1006 3503 1178 3333 
Q 1350 3163 1600 3163 
Q 1850 3163 2022 3333 
Q 2194 3503 2194 3750 
Q 2194 3997 2020 4172 
Q 1847 4347 1600 4347 
z
M 1600 4750 
Q 1800 4750 1984 4673 
Q 2169 4597 2303 4453 
Q 2447 4313 2519 4134 
Q 2591 3956 2591 3750 
Q 2591 3338 2302 3052 
Q 2013 2766 1594 2766 
Q 1172 2766 890 3047 
Q 609 3328 609 3750 
Q 609 4169 896 4459 
Q 1184 4750 1600 4750 
z
" transform="scale(0.015625)"/>
       <path id="DejaVuSans-29" d="M 513 4856 
L 1013 4856 
Q 1481 4119 1714 3412 
Q 1947 2706 1947 2009 
Q 1947 1309 1714 600 
Q 1481 -109 1013 -844 
L 513 -844 
Q 928 -128 1133 580 
Q 1338 1288 1338 2009 
Q 1338 2731 1133 3434 
Q 928 4138 513 4856 
z
" transform="scale(0.015625)"/>
      </defs>
      <use xlink:href="#DejaVuSans-4c"/>
      <use xlink:href="#DejaVuSans-6f" transform="translate(53.962891 0)"/>
      <use xlink:href="#DejaVuSans-6e" transform="translate(115.144531 0)"/>
      <use xlink:href="#DejaVuSans-67" transform="translate(178.523438 0)"/>
      <use xlink:href="#DejaVuSans-69" transform="translate(242 0)"/>
      <use xlink:href="#DejaVuSans-74" transform="translate(269.783203 0)"/>
      <use xlink:href="#DejaVuSans-75" transform="translate(308.992188 0)"/>
      <use xlink:href="#DejaVuSans-64" transform="translate(372.371094 0)"/>
      <use xlink:href="#DejaVuSans-65" transform="translate(435.847656 0)"/>
      <use xlink:href="#DejaVuSans-20" transform="translate(497.371094 0)"/>
      <use xlink:href="#DejaVuSans-28" transform="translate(529.158203 0)"/>
      <use xlink:href="#DejaVuSans-b0" transform="translate(568.171875 0)"/>
      <use xlink:href="#DejaVuSans-29" transform="translate(618.171875 0)"/>
     </g>
    </g>
   </g>
   <g id="matplotlib.axis_2">
    <g id="ytick_1">
     <g id="line2d_19">
      <path d="M 90 652.113147 
L 648 652.113147 
" clip-path="url(#p8934c854cf)" style="fill: none; stroke: #b0b0b0; stroke-width: 0.8; stroke-linecap: square"/>
     </g>
     <g id="line2d_20">
      <defs>
       <path id="m435cbdae66" d="M 0 0 
L -3.5 0 
" style="stroke: #000000; stroke-width: 0.8"/>
      </defs>
      <g>
       <use xlink:href="#m435cbdae66" x="90" y="652.113147" style="stroke: #000000; stroke-width: 0.8"/>
      </g>
     </g>
     <g id="text_11">
      <!-- −5.2 -->
      <g transform="translate(58.717187 655.912365) scale(0.1 -0.1)">
       <use xlink:href="#DejaVuSans-2212"/>
       <use xlink:href="#DejaVuSans-35" transform="translate(83.789062 0)"/>
       <use xlink:href="#DejaVuSans-2e" transform="translate(147.412109 0)"/>
       <use xlink:href="#DejaVuSans-32" transform="translate(179.199219 0)"/>
      </g>
     </g>
    </g>
    <g id="ytick_2">
     <g id="line2d_21">
      <path d="M 90 588.150503 
L 648 588.150503 
" clip-path="url(#p8934c854cf)" style="fill: none; stroke: #b0b0b0; stroke-width: 0.8; stroke-linecap: square"/>
     </g>
     <g id="line2d_22">
      <g>
       <use xlink:href="#m435cbdae66" x="90" y="588.150503" style="stroke: #000000; stroke-width: 0.8"/>
      </g>
     </g>
     <g id="text_12">
      <!-- −5.0 -->
      <g transform="translate(58.717187 591.949721) scale(0.1 -0.1)">
       <use xlink:href="#DejaVuSans-2212"/>
       <use xlink:href="#DejaVuSans-35" transform="translate(83.789062 0)"/>
       <use xlink:href="#DejaVuSans-2e" transform="translate(147.412109 0)"/>
       <use xlink:href="#DejaVuSans-30" transform="translate(179.199219 0)"/>
      </g>
     </g>
    </g>
    <g id="ytick_3">
     <g id="line2d_23">
      <path d="M 90 524.187858 
L 648 524.187858 
" clip-path="url(#p8934c854cf)" style="fill: none; stroke: #b0b0b0; stroke-width: 0.8; stroke-linecap: square"/>
     </g>
     <g id="line2d_24">
      <g>
       <use xlink:href="#m435cbdae66" x="90" y="524.187858" style="stroke: #000000; stroke-width: 0.8"/>
      </g>
     </g>
     <g id="text_13">
      <!-- −4.8 -->
      <g transform="translate(58.717187 527.987077) scale(0.1 -0.1)">
       <use xlink:href="#DejaVuSans-2212"/>
       <use xlink:href="#DejaVuSans-34" transform="translate(83.789062 0)"/>
       <use xlink:href="#DejaVuSans-2e" transform="translate(147.412109 0)"/>
       <use xlink:href="#DejaVuSans-38" transform="translate(179.199219 0)"/>
      </g>
     </g>
    </g>
    <g id="ytick_4">
     <g id="line2d_25">
      <path d="M 90 460.225214 
L 648 460.225214 
" clip-path="url(#p8934c854cf)" style="fill: none; stroke: #b0b0b0; stroke-width: 0.8; stroke-linecap: square"/>
     </g>
     <g id="line2d_26">
      <g>
       <use xlink:href="#m435cbdae66" x="90" y="460.225214" style="stroke: #000000; stroke-width: 0.8"/>
      </g>
     </g>
     <g id="text_14">
      <!-- −4.6 -->
      <g transform="translate(58.717187 464.024433) scale(0.1 -0.1)">
       <use xlink:href="#DejaVuSans-2212"/>
       <use xlink:href="#DejaVuSans-34" transform="translate(83.789062 0)"/>
       <use xlink:href="#DejaVuSans-2e" transform="translate(147.412109 0)"/>
       <use xlink:href="#DejaVuSans-36" transform="translate(179.199219 0)"/>
      </g>
     </g>
    </g>
    <g id="ytick_5">
     <g id="line2d_27">
      <path d="M 90 396.26257 
L 648 396.26257 
" clip-path="url(#p8934c854cf)" style="fill: none; stroke: #b0b0b0; stroke-width: 0.8; stroke-linecap: square"/>
     </g>
     <g id="line2d_28">
      <g>
       <use xlink:href="#m435cbdae66" x="90" y="396.26257" style="stroke: #000000; stroke-width: 0.8"/>
      </g>
     </g>
     <g id="text_15">
      <!-- −4.4 -->
      <g transform="translate(58.717187 400.061789) scale(0.1 -0.1)">
       <use xlink:href="#DejaVuSans-2212"/>
       <use xlink:href="#DejaVuSans-34" transform="translate(83.789062 0)"/>
       <use xlink:href="#DejaVuSans-2e" transform="translate(147.412109 0)"/>
       <use xlink:href="#DejaVuSans-34" transform="translate(179.199219 0)"/>
      </g>
     </g>
    </g>
    <g id="ytick_6">
     <g id="line2d_29">
      <path d="M 90 332.299926 
L 648 332.299926 
" clip-path="url(#p8934c854cf)" style="fill: none; stroke: #b0b0b0; stroke-width: 0.8; stroke-linecap: square"/>
     </g>
     <g id="line2d_30">
      <g>
       <use xlink:href="#m435cbdae66" x="90" y="332.299926" style="stroke: #000000; stroke-width: 0.8"/>
      </g>
     </g>
     <g id="text_16">
      <!-- −4.2 -->
      <g transform="translate(58.717187 336.099144) scale(0.1 -0.1)">
       <use xlink:href="#DejaVuSans-2212"/>
       <use xlink:href="#DejaVuSans-34" transform="translate(83.789062 0)"/>
       <use xlink:href="#DejaVuSans-2e" transform="translate(147.412109 0)"/>
       <use xlink:href="#DejaVuSans-32" transform="translate(179.199219 0)"/>
      </g>
     </g>
    </g>
    <g id="ytick_7">
     <g id="line2d_31">
      <path d="M 90 268.337281 
L 648 268.337281 
" clip-path="url(#p8934c854cf)" style="fill: none; stroke: #b0b0b0; stroke-width: 0.8; stroke-linecap: square"/>
     </g>
     <g id="line2d_32">
      <g>
       <use xlink:href="#m435cbdae66" x="90" y="268.337281" style="stroke: #000000; stroke-width: 0.8"/>
      </g>
     </g>
     <g id="text_17">
      <!-- −4.0 -->
      <g transform="translate(58.717187 272.1365) scale(0.1 -0.1)">
       <use xlink:href="#DejaVuSans-2212"/>
       <use xlink:href="#DejaVuSans-34" transform="translate(83.789062 0)"/>
       <use xlink:href="#DejaVuSans-2e" transform="translate(147.412109 0)"/>
       <use xlink:href="#DejaVuSans-30" transform="translate(179.199219 0)"/>
      </g>
     </g>
    </g>
    <g id="ytick_8">
     <g id="line2d_33">
      <path d="M 90 204.374637 
L 648 204.374637 
" clip-path="url(#p8934c854cf)" style="fill: none; stroke: #b0b0b0; stroke-width: 0.8; stroke-linecap: square"/>
     </g>
     <g id="line2d_34">
      <g>
       <use xlink:href="#m435cbdae66" x="90" y="204.374637" style="stroke: #000000; stroke-width: 0.8"/>
      </g>
     </g>
     <g id="text_18">
      <!-- −3.8 -->
      <g transform="translate(58.717187 208.173856) scale(0.1 -0.1)">
       <defs>
        <path id="DejaVuSans-33" d="M 2597 2516 
Q 3050 2419 3304 2112 
Q 3559 1806 3559 1356 
Q 3559 666 3084 287 
Q 2609 -91 1734 -91 
Q 1441 -91 1130 -33 
Q 819 25 488 141 
L 488 750 
Q 750 597 1062 519 
Q 1375 441 1716 441 
Q 2309 441 2620 675 
Q 2931 909 2931 1356 
Q 2931 1769 2642 2001 
Q 2353 2234 1838 2234 
L 1294 2234 
L 1294 2753 
L 1863 2753 
Q 2328 2753 2575 2939 
Q 2822 3125 2822 3475 
Q 2822 3834 2567 4026 
Q 2313 4219 1838 4219 
Q 1578 4219 1281 4162 
Q 984 4106 628 3988 
L 628 4550 
Q 988 4650 1302 4700 
Q 1616 4750 1894 4750 
Q 2613 4750 3031 4423 
Q 3450 4097 3450 3541 
Q 3450 3153 3228 2886 
Q 3006 2619 2597 2516 
z
" transform="scale(0.015625)"/>
       </defs>
       <use xlink:href="#DejaVuSans-2212"/>
       <use xlink:href="#DejaVuSans-33" transform="translate(83.789062 0)"/>
       <use xlink:href="#DejaVuSans-2e" transform="translate(147.412109 0)"/>
       <use xlink:href="#DejaVuSans-38" transform="translate(179.199219 0)"/>
      </g>
     </g>
    </g>
    <g id="text_19">
     <!-- Latitude (°) -->
     <g transform="translate(52.6375 464.889531) rotate(-90) scale(0.1 -0.1)">
      <defs>
       <path id="DejaVuSans-61" d="M 2194 1759 
Q 1497 1759 1228 1600 
Q 959 1441 959 1056 
Q 959 750 1161 570 
Q 1363 391 1709 391 
Q 2188 391 2477 730 
Q 2766 1069 2766 1631 
L 2766 1759 
L 2194 1759 
z
M 3341 1997 
L 3341 0 
L 2766 0 
L 2766 531 
Q 2569 213 2275 61 
Q 1981 -91 1556 -91 
Q 1019 -91 701 211 
Q 384 513 384 1019 
Q 384 1609 779 1909 
Q 1175 2209 1959 2209 
L 2766 2209 
L 2766 2266 
Q 2766 2663 2505 2880 
Q 2244 3097 1772 3097 
Q 1472 3097 1187 3025 
Q 903 2953 641 2809 
L 641 3341 
Q 956 3463 1253 3523 
Q 1550 3584 1831 3584 
Q 2591 3584 2966 3190 
Q 3341 2797 3341 1997 
z
" transform="scale(0.015625)"/>
      </defs>
      <use xlink:href="#DejaVuSans-4c"/>
      <use xlink:href="#DejaVuSans-61" transform="translate(55.712891 0)"/>
      <use xlink:href="#DejaVuSans-74" transform="translate(116.992188 0)"/>
      <use xlink:href="#DejaVuSans-69" transform="translate(156.201172 0)"/>
      <use xlink:href="#DejaVuSans-74" transform="translate(183.984375 0)"/>
      <use xlink:href="#DejaVuSans-75" transform="translate(223.193359 0)"/>
      <use xlink:href="#DejaVuSans-64" transform="translate(286.572266 0)"/>
      <use xlink:href="#DejaVuSans-65" transform="translate(350.048828 0)"/>
      <use xlink:href="#DejaVuSans-20" transform="translate(411.572266 0)"/>
      <use xlink:href="#DejaVuSans-28" transform="translate(443.359375 0)"/>
      <use xlink:href="#DejaVuSans-b0" transform="translate(482.373047 0)"/>
      <use xlink:href="#DejaVuSans-29" transform="translate(532.373047 0)"/>
     </g>
    </g>
   </g>
   <g id="patch_3">
    <path d="M 90 672.615085 
L 90 200.024915 
" style="fill: none; stroke: #000000; stroke-width: 0.8; stroke-linejoin: miter; stroke-linecap: square"/>
   </g>
   <g id="patch_4">
    <path d="M 648 672.615085 
L 648 200.024915 
" style="fill: none; stroke: #000000; stroke-width: 0.8; stroke-linejoin: miter; stroke-linecap: square"/>
   </g>
   <g id="patch_5">
    <path d="M 90 672.615085 
L 648 672.615085 
" style="fill: none; stroke: #000000; stroke-width: 0.8; stroke-linejoin: miter; stroke-linecap: square"/>
   </g>
   <g id="patch_6">
    <path d="M 90 200.024915 
L 648 200.024915 
" style="fill: none; stroke: #000000; stroke-width: 0.8; stroke-linejoin: miter; stroke-linecap: square"/>
   </g>
   <g id="legend_1">
    <g id="patch_7">
     <path d="M 304.488281 766.181735 
L 433.511719 766.181735 
Q 435.511719 766.181735 435.511719 764.181735 
L 435.511719 750.50361 
Q 435.511719 748.50361 433.511719 748.50361 
L 304.488281 748.50361 
Q 302.488281 748.50361 302.488281 750.50361 
L 302.488281 764.181735 
Q 302.488281 766.181735 304.488281 766.181735 
z
" style="fill: #ffffff; opacity: 0.8; stroke: #cccccc; stroke-linejoin: miter"/>
    </g>
    <g id="line2d_35">
     <defs>
      <path id="m8db002f4b8" d="M 0 5 
C 1.326016 5 2.597899 4.473168 3.535534 3.535534 
C 4.473168 2.597899 5 1.326016 5 0 
C 5 -1.326016 4.473168 -2.597899 3.535534 -3.535534 
C 2.597899 -4.473168 1.326016 -5 0 -5 
C -1.326016 -5 -2.597899 -4.473168 -3.535534 -3.535534 
C -4.473168 -2.597899 -5 -1.326016 -5 0 
C -5 1.326016 -4.473168 2.597899 -3.535534 3.535534 
C -2.597899 4.473168 -1.326016 5 0 5 
z
"/>
     </defs>
     <g>
      <use xlink:href="#m8db002f4b8" x="316.488281" y="756.602048" style="fill: #b3e2cd; fill-opacity: 0.65"/>
     </g>
    </g>
    <g id="text_20">
     <!-- Novo Repartimento -->
     <g transform="translate(334.488281 760.102048) scale(0.1 -0.1)">
      <defs>
       <path id="DejaVuSans-4e" d="M 628 4666 
L 1478 4666 
L 3547 763 
L 3547 4666 
L 4159 4666 
L 4159 0 
L 3309 0 
L 1241 3903 
L 1241 0 
L 628 0 
L 628 4666 
z
" transform="scale(0.015625)"/>
       <path id="DejaVuSans-76" d="M 191 3500 
L 800 3500 
L 1894 563 
L 2988 3500 
L 3597 3500 
L 2284 0 
L 1503 0 
L 191 3500 
z
" transform="scale(0.015625)"/>
       <path id="DejaVuSans-52" d="M 2841 2188 
Q 3044 2119 3236 1894 
Q 3428 1669 3622 1275 
L 4263 0 
L 3584 0 
L 2988 1197 
Q 2756 1666 2539 1819 
Q 2322 1972 1947 1972 
L 1259 1972 
L 1259 0 
L 628 0 
L 628 4666 
L 2053 4666 
Q 2853 4666 3247 4331 
Q 3641 3997 3641 3322 
Q 3641 2881 3436 2590 
Q 3231 2300 2841 2188 
z
M 1259 4147 
L 1259 2491 
L 2053 2491 
Q 2509 2491 2742 2702 
Q 2975 2913 2975 3322 
Q 2975 3731 2742 3939 
Q 2509 4147 2053 4147 
L 1259 4147 
z
" transform="scale(0.015625)"/>
       <path id="DejaVuSans-70" d="M 1159 525 
L 1159 -1331 
L 581 -1331 
L 581 3500 
L 1159 3500 
L 1159 2969 
Q 1341 3281 1617 3432 
Q 1894 3584 2278 3584 
Q 2916 3584 3314 3078 
Q 3713 2572 3713 1747 
Q 3713 922 3314 415 
Q 2916 -91 2278 -91 
Q 1894 -91 1617 61 
Q 1341 213 1159 525 
z
M 3116 1747 
Q 3116 2381 2855 2742 
Q 2594 3103 2138 3103 
Q 1681 3103 1420 2742 
Q 1159 2381 1159 1747 
Q 1159 1113 1420 752 
Q 1681 391 2138 391 
Q 2594 391 2855 752 
Q 3116 1113 3116 1747 
z
" transform="scale(0.015625)"/>
       <path id="DejaVuSans-72" d="M 2631 2963 
Q 2534 3019 2420 3045 
Q 2306 3072 2169 3072 
Q 1681 3072 1420 2755 
Q 1159 2438 1159 1844 
L 1159 0 
L 581 0 
L 581 3500 
L 1159 3500 
L 1159 2956 
Q 1341 3275 1631 3429 
Q 1922 3584 2338 3584 
Q 2397 3584 2469 3576 
Q 2541 3569 2628 3553 
L 2631 2963 
z
" transform="scale(0.015625)"/>
       <path id="DejaVuSans-6d" d="M 3328 2828 
Q 3544 3216 3844 3400 
Q 4144 3584 4550 3584 
Q 5097 3584 5394 3201 
Q 5691 2819 5691 2113 
L 5691 0 
L 5113 0 
L 5113 2094 
Q 5113 2597 4934 2840 
Q 4756 3084 4391 3084 
Q 3944 3084 3684 2787 
Q 3425 2491 3425 1978 
L 3425 0 
L 2847 0 
L 2847 2094 
Q 2847 2600 2669 2842 
Q 2491 3084 2119 3084 
Q 1678 3084 1418 2786 
Q 1159 2488 1159 1978 
L 1159 0 
L 581 0 
L 581 3500 
L 1159 3500 
L 1159 2956 
Q 1356 3278 1631 3431 
Q 1906 3584 2284 3584 
Q 2666 3584 2933 3390 
Q 3200 3197 3328 2828 
z
" transform="scale(0.015625)"/>
      </defs>
      <use xlink:href="#DejaVuSans-4e"/>
      <use xlink:href="#DejaVuSans-6f" transform="translate(74.804688 0)"/>
      <use xlink:href="#DejaVuSans-76" transform="translate(135.986328 0)"/>
      <use xlink:href="#DejaVuSans-6f" transform="translate(195.166016 0)"/>
      <use xlink:href="#DejaVuSans-20" transform="translate(256.347656 0)"/>
      <use xlink:href="#DejaVuSans-52" transform="translate(288.134766 0)"/>
      <use xlink:href="#DejaVuSans-65" transform="translate(353.117188 0)"/>
      <use xlink:href="#DejaVuSans-70" transform="translate(414.640625 0)"/>
      <use xlink:href="#DejaVuSans-61" transform="translate(478.117188 0)"/>
      <use xlink:href="#DejaVuSans-72" transform="translate(539.396484 0)"/>
      <use xlink:href="#DejaVuSans-74" transform="translate(580.509766 0)"/>
      <use xlink:href="#DejaVuSans-69" transform="translate(619.71875 0)"/>
      <use xlink:href="#DejaVuSans-6d" transform="translate(647.501953 0)"/>
      <use xlink:href="#DejaVuSans-65" transform="translate(744.914062 0)"/>
      <use xlink:href="#DejaVuSans-6e" transform="translate(806.4375 0)"/>
      <use xlink:href="#DejaVuSans-74" transform="translate(869.816406 0)"/>
      <use xlink:href="#DejaVuSans-6f" transform="translate(909.025391 0)"/>
     </g>
    </g>
   </g>
  </g>
 </g>
 <defs>
  <clipPath id="p8934c854cf">
   <rect x="90" y="200.024915" width="558" height="472.590169"/>
  </clipPath>
 </defs>
</svg>
