<?xml version="1.0" encoding="utf-8" standalone="no"?>
<!DOCTYPE svg PUBLIC "-//W3C//DTD SVG 1.1//EN"
  "http://www.w3.org/Graphics/SVG/1.1/DTD/svg11.dtd">
<svg xmlns:xlink="http://www.w3.org/1999/xlink" width="720pt" height="864pt" viewBox="0 0 720 864" xmlns="http://www.w3.org/2000/svg" version="1.1">
 <metadata>
  <rdf:RDF xmlns:dc="http://purl.org/dc/elements/1.1/" xmlns:cc="http://creativecommons.org/ns#" xmlns:rdf="http://www.w3.org/1999/02/22-rdf-syntax-ns#">
   <cc:Work>
    <dc:type rdf:resource="http://purl.org/dc/dcmitype/StillImage"/>
    <dc:date>2025-06-16T16:48:55.856884</dc:date>
    <dc:format>image/svg+xml</dc:format>
    <dc:creator>
     <cc:Agent>
      <dc:title>Matplotlib v3.10.1, https://matplotlib.org/</dc:title>
     </cc:Agent>
    </dc:creator>
   </cc:Work>
  </rdf:RDF>
 </metadata>
 <defs>
  <style type="text/css">*{stroke-linejoin: round; stroke-linecap: butt}</style>
 </defs>
 <g id="figure_1">
  <g id="patch_1">
   <path d="M 0 864 
L 720 864 
L 720 0 
L 0 0 
z
" style="fill: #ffffff"/>
  </g>
  <g id="axes_1">
   <g id="patch_2">
    <path d="M 90 704.417153 
L 648 704.417153 
L 648 168.222847 
L 90 168.222847 
z
" style="fill: #ffffff"/>
   </g>
   <g id="PatchCollection_1">
    <path d="M 567.234513 384.37854 
L 567.383161 386.152186 
L 567.510846 387.114809 
L 567.512885 387.447101 
L 567.330781 387.739404 
L 566.851743 387.998955 
L 566.701564 388.233861 
L 566.709447 388.59036 
L 566.943778 388.896973 
L 567.044525 389.269511 
L 567.051249 389.569362 
L 567.186007 390.268002 
L 567.545624 391.010461 
L 567.673107 391.363219 
L 567.963557 391.884113 
L 568.065708 392.175198 
L 568.080676 392.447485 
L 568.172734 392.817077 
L 568.383801 393.131726 
L 568.440813 393.667959 
L 568.532288 393.942493 
L 568.976533 394.681143 
L 569.195046 394.970954 
L 569.426335 395.133212 
L 569.744049 395.586102 
L 569.98887 396.53245 
L 570.180483 396.901414 
L 570.596682 397.969528 
L 570.789317 398.327589 
L 571.075892 398.655644 
L 571.292808 399.079465 
L 571.417603 399.47608 
L 571.70979 399.833785 
L 571.95234 400.409701 
L 572.252839 400.794861 
L 572.653476 401.97173 
L 572.864403 402.302973 
L 573.107421 402.560201 
L 573.332639 403.00793 
L 573.592373 403.335596 
L 573.888428 403.832447 
L 574.678652 404.884275 
L 575.180757 405.362933 
L 575.507632 405.581491 
L 575.817326 405.87179 
L 576.542144 406.177714 
L 576.760387 406.418471 
L 577.562849 406.733975 
L 578.040061 407.090753 
L 579.193891 407.721601 
L 579.485799 407.942546 
L 579.803817 408.087879 
L 580.003504 408.309952 
L 580.81289 408.818222 
L 581.142118 409.106471 
L 581.634575 409.340298 
L 581.986569 409.711197 
L 582.33849 409.984045 
L 582.562566 410.244086 
L 582.846164 410.479236 
L 583.172445 410.643299 
L 583.415866 410.873527 
L 584.477957 411.57462 
L 584.804259 411.741401 
L 585.343963 412.10918 
L 585.781918 412.301391 
L 586.310217 412.795068 
L 587.313115 413.397641 
L 587.464063 413.630901 
L 587.755796 413.863531 
L 587.990912 414.150994 
L 588.641743 414.544187 
L 588.909097 414.781872 
L 589.336071 415.037052 
L 592.397657 417.763483 
L 592.638734 418.132325 
L 593.248599 418.902407 
L 593.517619 419.355492 
L 593.61692 419.654434 
L 593.819152 419.886802 
L 593.897515 420.071765 
L 593.975878 420.256728 
L 594.127848 421.06952 
L 594.09407 422.570375 
L 594.128409 422.848492 
L 594.117539 424.53494 
L 594.035808 425.325007 
L 593.776036 426.271195 
L 593.281376 426.92886 
L 592.914621 427.311712 
L 592.63014 427.790715 
L 591.812296 428.436048 
L 591.392891 429.027049 
L 590.982085 429.310238 
L 588.893118 431.453872 
L 588.657844 431.907508 
L 588.223607 432.302518 
L 587.872016 432.893088 
L 587.187961 433.67429 
L 586.784966 433.907865 
L 586.518335 434.168608 
L 586.090684 434.702482 
L 585.590616 435.070689 
L 584.955133 435.728204 
L 584.496234 436.507681 
L 584.411166 436.821174 
L 584.410776 437.139838 
L 584.628314 438.522556 
L 584.913126 439.397699 
L 585.121699 439.851181 
L 585.272648 440.413708 
L 585.530513 440.85352 
L 585.690696 441.290972 
L 586.073791 442.593339 
L 586.318533 443.141903 
L 586.542938 443.440574 
L 586.73703 444.043392 
L 587.003877 444.485316 
L 587.261315 445.023986 
L 587.931917 446.767026 
L 588.113336 447.024846 
L 588.294756 447.282666 
L 587.665707 448.052112 
L 586.610352 449.227446 
L 585.781909 449.875918 
L 585.263996 450.755766 
L 584.828998 451.910972 
L 584.553155 452.882655 
L 584.201415 453.865189 
L 583.42554 455.50418 
L 582.50525 458.00561 
L 580.682953 461.610083 
L 579.97968 462.650249 
L 579.41903 463.634189 
L 579.109431 464.753203 
L 578.883206 465.84171 
L 578.500378 466.674684 
L 578.324532 467.583099 
L 577.095643 467.997044 
L 576.274534 468.612572 
L 575.537366 470.03104 
L 574.955318 470.939156 
L 574.109115 472.696098 
L 572.805145 473.333896 
L 571.249777 473.206071 
L 570.264911 473.223463 
L 568.942033 473.419578 
L 567.754182 473.517286 
L 566.711414 473.809876 
L 565.749618 473.620358 
L 564.670693 473.736402 
L 543.311592 476.031197 
L 513.780681 479.200626 
L 493.180726 481.409168 
L 484.034412 482.389753 
L 470.64266 482.730896 
L 430.112805 483.758764 
L 425.284456 483.880695 
L 415.251152 484.133535 
L 397.120715 484.656282 
L 320.392359 486.851891 
L 320.11776 487.813135 
L 319.950415 488.937392 
L 320.308628 490.500218 
L 320.768946 491.269597 
L 321.69716 493.353069 
L 322.409109 494.532495 
L 323.361882 495.081035 
L 323.931249 495.986119 
L 325.037537 496.616958 
L 327.801705 497.107239 
L 328.838366 497.109702 
L 329.273249 498.178534 
L 329.212786 499.081603 
L 328.921215 500.400102 
L 328.075993 501.661956 
L 327.390726 502.895392 
L 326.147219 505.664487 
L 325.217284 506.872024 
L 324.456599 507.666924 
L 323.143692 508.819329 
L 322.189897 509.588308 
L 321.429849 510.056023 
L 320.174956 510.357153 
L 319.137037 510.13685 
L 318.025685 509.837328 
L 316.795535 510.247366 
L 316.496011 511.508704 
L 316.60412 512.471143 
L 317.456848 513.565256 
L 318.352769 514.168335 
L 319.221472 514.607417 
L 320.642406 514.935188 
L 321.729806 515.264796 
L 324.613557 515.537786 
L 325.459429 515.868438 
L 326.57926 516.170565 
L 328.371617 516.962147 
L 329.766665 518.391193 
L 330.092538 519.403612 
L 329.306982 520.116896 
L 328.328438 520.338042 
L 327.4488 520.776206 
L 326.688622 521.271229 
L 325.628593 521.874535 
L 324.67196 522.231604 
L 323.936724 522.723487 
L 323.042751 523.026217 
L 321.814922 522.833759 
L 320.779772 522.833804 
L 319.389294 522.479185 
L 318.461993 522.645211 
L 317.566523 522.233019 
L 316.661988 521.602744 
L 315.735404 520.860246 
L 314.731665 520.449177 
L 312.741711 519.900671 
L 311.514227 519.765659 
L 308.761742 519.134869 
L 307.676279 519.162375 
L 306.72086 519.547177 
L 304.406844 520.342435 
L 303.261065 520.809802 
L 302.221962 521.330572 
L 301.378916 522.071407 
L 300.91971 522.975929 
L 300.811026 523.855084 
L 301.053388 525.004446 
L 301.570704 525.855354 
L 301.786952 526.317523 
L 302.007323 526.788503 
L 302.633361 527.665527 
L 302.690888 528.709549 
L 302.991362 529.558909 
L 303.259865 530.517238 
L 303.175811 531.47751 
L 302.258128 531.972564 
L 301.462146 531.342709 
L 300.568453 530.711749 
L 299.180099 528.95516 
L 298.358677 528.133451 
L 297.29856 527.337581 
L 296.09368 526.872705 
L 294.947863 526.788976 
L 293.778516 526.871433 
L 292.96751 527.420673 
L 292.717387 528.298167 
L 292.14816 529.03997 
L 291.219636 528.434215 
L 290.894203 527.475863 
L 289.806863 527.667473 
L 288.577068 527.614161 
L 288.084249 526.818406 
L 287.517204 526.452532 
L 287.190922 526.241876 
L 286.7555 526.272591 
L 286.018591 526.324575 
L 285.09252 526.626816 
L 284.221081 527.146913 
L 283.451512 527.88734 
L 282.607955 527.531942 
L 282.013148 526.845236 
L 281.277798 526.285516 
L 281.219843 526.241403 
L 280.292434 525.886166 
L 279.20529 525.145642 
L 278.601365 524.321795 
L 277.817236 523.856688 
L 277.323953 525.00821 
L 277.649321 525.968816 
L 277.926296 527.066301 
L 277.757526 527.942841 
L 277.190238 528.957328 
L 276.262553 529.011398 
L 273.23352 528.545234 
L 272.121699 528.218213 
L 271.109753 528.29998 
L 270.976555 529.287608 
L 271.494908 530.302568 
L 271.554403 531.234624 
L 271.328618 532.111485 
L 270.97548 533.182378 
L 270.542553 533.948271 
L 270.240678 534.910083 
L 270.107319 535.813452 
L 270.215592 536.830333 
L 270.433397 537.924892 
L 270.484919 538.884809 
L 271.780609 539.117816 
L 273.057919 539.92386 
L 272.298425 540.579443 
L 271.335896 541.285752 
L 270.275786 541.967771 
L 270.132752 543.089359 
L 270.425022 543.941076 
L 270.969169 544.737981 
L 271.837656 545.731111 
L 272.490951 546.581136 
L 273.134891 547.709635 
L 273.2919 548.640878 
L 272.583138 549.596727 
L 271.386295 550.195256 
L 271.184762 551.537779 
L 271.235419 552.882206 
L 270.985375 553.783487 
L 270.381957 554.796043 
L 270.215555 556.056843 
L 270.567253 557.347549 
L 270.968022 558.17166 
L 271.47718 559.4615 
L 271.55324 560.475814 
L 271.461846 563.653035 
L 271.353038 564.614092 
L 271.019371 565.709459 
L 270.524739 566.557276 
L 270.139925 567.732285 
L 269.398095 568.55119 
L 268.334807 568.712997 
L 267.522394 568.079306 
L 266.219372 567.633453 
L 265.291447 568.17875 
L 264.747035 568.961941 
L 264.514605 570.10859 
L 264.161607 571.097999 
L 262.564843 572.011838 
L 261.919916 572.784402 
L 261.844339 573.317694 
L 261.763001 573.890015 
L 262.857295 574.887348 
L 263.507655 575.319312 
L 263.628492 575.374557 
L 264.362918 575.888687 
L 264.589017 576.831025 
L 264.597623 577.916089 
L 264.388654 578.929261 
L 264.103267 579.918038 
L 263.401208 581.018187 
L 263.134378 581.925052 
L 262.649745 582.669487 
L 261.278068 584.048758 
L 261.443464 585.007798 
L 262.322873 585.464122 
L 263.031875 586.035915 
L 262.548158 586.998249 
L 261.796679 587.550535 
L 260.927457 588.517994 
L 260.667793 589.643273 
L 260.32584 590.714192 
L 260.190591 591.70216 
L 260.164112 592.86952 
L 259.614503 593.650058 
L 258.686245 594.151241 
L 257.850591 594.70673 
L 256.956767 595.150996 
L 256.077868 594.747028 
L 255.374424 595.301512 
L 254.974768 596.100319 
L 254.222135 596.597531 
L 253.319257 596.278226 
L 252.389685 596.092422 
L 251.779783 595.274873 
L 249.932874 595.154073 
L 249.035847 595.461699 
L 248.52683 596.727194 
L 248.015728 597.608162 
L 247.205719 597.942585 
L 246.485162 597.346522 
L 245.534119 597.106255 
L 244.588598 597.989591 
L 243.668016 598.463972 
L 242.666032 598.44488 
L 241.704752 598.371015 
L 240.943608 597.747595 
L 238.678049 597.0265 
L 237.750816 597.224615 
L 236.954566 596.683723 
L 236.24299 596.084276 
L 235.232519 595.490252 
L 233.786697 595.22803 
L 232.665538 594.800679 
L 232.354684 594.856489 
L 232.109614 594.900489 
L 231.553691 595.000298 
L 229.286647 594.496704 
L 227.081167 594.132118 
L 225.832944 594.470988 
L 224.663486 594.096201 
L 222.64802 594.906088 
L 221.369715 594.999896 
L 220.475215 595.280128 
L 219.312944 595.755433 
L 218.167081 595.736964 
L 216.596581 596.495359 
L 215.549398 595.619904 
L 215.032392 594.883198 
L 214.480548 593.765357 
L 213.918834 592.783396 
L 212.907329 592.025004 
L 212.061829 591.756693 
L 211.084897 591.900934 
L 210.031478 592.321332 
L 208.642163 592.524462 
L 208.173931 591.761 
L 206.971379 591.276321 
L 206.042881 591.283902 
L 205.064103 591.018703 
L 204.403834 590.392059 
L 203.316748 590.181965 
L 202.196485 590.330178 
L 201.385106 590.936941 
L 200.624078 591.410058 
L 199.486659 591.391415 
L 198.591368 591.732659 
L 198.122577 591.856746 
L 197.290611 591.946707 
L 196.339471 592.410709 
L 196.17224 592.423077 
L 196.002391 592.435639 
L 191.337683 592.275054 
L 189.583094 592.035309 
L 188.654359 592.103638 
L 188.000268 591.507972 
L 187.154118 591.157696 
L 186.167778 591.002081 
L 184.989931 589.968259 
L 184.763953 588.930384 
L 184.379848 588.029433 
L 183.342474 587.925334 
L 181.44281 588.734265 
L 180.740527 589.397979 
L 180.188117 588.552693 
L 179.320432 588.28704 
L 178.5823 588.895828 
L 177.681752 588.573593 
L 177.137502 587.727429 
L 175.875839 586.312844 
L 175.021869 586.017357 
L 173.885451 586.246504 
L 173.015621 586.635524 
L 172.271333 585.903001 
L 171.400536 585.552473 
L 170.6078 584.956578 
L 169.436493 585.321998 
L 168.734295 586.010238 
L 167.906281 588.153392 
L 167.154542 588.872164 
L 166.059498 588.580027 
L 163.834103 589.363454 
L 162.88064 589.206991 
L 162.00428 588.829712 
L 160.575053 588.87257 
L 159.527884 589.313723 
L 158.715986 589.841819 
L 158.264603 590.804339 
L 158.139938 592.008034 
L 157.296121 592.617588 
L 156.310212 592.04932 
L 155.139683 591.922272 
L 154.26902 591.54411 
L 153.717128 590.782975 
L 152.842139 590.129284 
L 151.770824 588.577641 
L 150.709041 588.531313 
L 150.112521 589.303037 
L 149.304515 590.022332 
L 148.323896 589.974504 
L 147.470529 589.239643 
L 146.350141 588.8662 
L 145.664986 588.160509 
L 145.388979 587.173718 
L 144.728542 586.467623 
L 142.186106 588.515269 
L 141.583209 587.860987 
L 141.627845 586.927452 
L 140.758434 586.797459 
L 139.962534 586.146561 
L 138.727131 584.485891 
L 137.932573 584.053771 
L 136.976555 584.033574 
L 136.2737 584.721492 
L 135.382206 584.455979 
L 135.095683 583.526755 
L 134.7383 582.65271 
L 135.465717 581.934396 
L 136.22568 581.437187 
L 136.818869 580.582838 
L 137.461278 579.234986 
L 137.780282 578.384692 
L 138.291617 577.50346 
L 139.052112 576.894122 
L 139.896741 576.450526 
L 140.373039 575.624576 
L 140.9427 574.907032 
L 141.95204 574.790022 
L 142.848411 574.892629 
L 144.754009 574.798545 
L 145.531607 573.968408 
L 145.88236 573.008573 
L 145.59722 571.858396 
L 145.429878 570.9289 
L 145.12113 569.891506 
L 144.73755 569.099189 
L 143.893653 568.666758 
L 143.690778 567.682316 
L 143.876479 566.775935 
L 144.468988 565.730639 
L 145.171623 565.179158 
L 145.789978 564.488402 
L 146.334934 563.71943 
L 147.280463 563.326921 
L 147.704775 562.364834 
L 147.455373 561.299602 
L 147.253912 560.039891 
L 147.521188 559.162865 
L 148.414462 558.689045 
L 149.120197 558.052712 
L 149.194337 557.149339 
L 149.076166 556.219612 
L 149.227324 554.273718 
L 148.215062 553.868817 
L 147.939328 552.967123 
L 147.881152 552.091664 
L 148.416372 550.989924 
L 148.977184 550.247906 
L 149.820067 550.486664 
L 151.024203 550.259899 
L 151.52708 549.32419 
L 151.854183 548.471443 
L 152.171586 547.291097 
L 152.514458 546.329425 
L 152.999676 545.505932 
L 153.701575 544.869639 
L 154.077932 544.043943 
L 154.393665 543.084317 
L 154.76922 542.204338 
L 156.042259 540.495349 
L 156.502399 539.080809 
L 156.500525 538.114531 
L 156.334782 536.991355 
L 155.564634 536.509445 
L 154.746358 536.180533 
L 153.893232 535.426197 
L 153.64217 534.507751 
L 153.867156 533.352688 
L 154.235156 532.537411 
L 155.329789 532.191722 
L 156.291631 531.832477 
L 157.052122 531.367798 
L 157.773785 530.671144 
L 158.375019 529.877401 
L 158.818135 528.821976 
L 159.1939 526.839333 
L 159.161324 525.631229 
L 158.752413 524.732918 
L 158.46577 523.804012 
L 158.333943 522.898375 
L 157.940526 521.135728 
L 158.106004 520.021615 
L 158.575193 518.967443 
L 158.955753 518.112569 
L 159.146033 517.685133 
L 159.336313 517.257696 
L 159.54384 515.445006 
L 159.737788 514.323944 
L 160.364083 512.51091 
L 160.381217 511.591474 
L 159.828296 510.584709 
L 158.927253 509.939959 
L 157.779299 509.945102 
L 156.893543 509.725028 
L 156.592879 508.741877 
L 156.766677 508.153355 
L 156.860429 507.8589 
L 156.926701 506.937041 
L 156.83568 505.97991 
L 156.801876 505.012416 
L 157.044279 501.280894 
L 157.069266 500.230463 
L 156.978581 499.341259 
L 156.183546 498.892113 
L 155.292622 498.7746 
L 153.360061 497.868601 
L 151.501851 497.430102 
L 150.482148 497.041438 
L 149.995842 498.104943 
L 149.645137 499.209015 
L 149.103222 499.923305 
L 148.348689 500.491808 
L 147.571735 500.964928 
L 146.485804 501.406195 
L 145.615444 501.217343 
L 145.355183 499.316183 
L 144.268655 499.031739 
L 143.366889 498.85611 
L 142.461949 498.579 
L 141.592962 498.449589 
L 140.774471 498.085314 
L 140.395681 497.259037 
L 140.097583 496.392827 
L 139.964522 495.415093 
L 139.820526 493.639399 
L 139.293554 492.864535 
L 138.9016 492.061222 
L 139.017052 490.224315 
L 137.563565 488.280237 
L 137.29587 487.405411 
L 137.27007 486.494563 
L 137.431639 485.552036 
L 138.247976 483.638827 
L 137.612255 482.926362 
L 136.499744 482.874653 
L 136.02416 482.107706 
L 136.260999 481.246412 
L 136.584091 480.437658 
L 136.310207 479.323308 
L 135.430361 478.563088 
L 134.802432 477.88603 
L 134.219203 475.848444 
L 134.654948 475.046826 
L 135.607084 474.373846 
L 136.47583 473.864937 
L 136.71081 473.010479 
L 136.56024 472.099915 
L 136.274375 471.211511 
L 135.781499 470.326761 
L 135.154406 469.64532 
L 134.368536 469.197853 
L 133.751778 468.396857 
L 132.300565 466.955153 
L 131.325197 466.355177 
L 130.498867 466.018086 
L 130.12807 464.993612 
L 130.840726 464.161039 
L 131.752447 464.17363 
L 133.683246 464.48643 
L 134.618911 464.452248 
L 136.401129 463.743399 
L 137.28856 463.78554 
L 138.433423 463.753136 
L 139.4952 463.339689 
L 139.569721 462.460588 
L 139.203 461.627387 
L 139.228899 460.734862 
L 139.395544 459.825611 
L 140.113729 459.025755 
L 141.017233 458.964422 
L 141.845754 458.635781 
L 142.436835 457.932255 
L 142.494957 457.026226 
L 142.052262 456.250663 
L 141.360287 455.67237 
L 140.992114 454.566352 
L 140.351305 454.176673 
L 140.021184 453.975924 
L 138.950138 453.568999 
L 138.232649 452.67432 
L 137.377712 451.987865 
L 136.568254 452.329759 
L 135.581633 452.549391 
L 134.644705 452.468961 
L 134.627842 451.590527 
L 134.468862 450.660884 
L 134.451615 449.755169 
L 134.493239 448.848375 
L 134.49345 446.966674 
L 134.795793 446.056822 
L 134.979044 445.086929 
L 134.804647 444.225558 
L 135.322018 443.476005 
L 136.098741 443.03579 
L 136.89411 442.516917 
L 137.611685 441.640712 
L 138.64987 441.995721 
L 139.320728 442.66391 
L 140.514772 444.039669 
L 141.041293 444.765503 
L 141.901899 444.957848 
L 142.814744 444.626957 
L 142.832292 443.617439 
L 142.746616 442.70141 
L 142.564315 441.837099 
L 142.545381 440.671959 
L 143.366771 439.904423 
L 142.447263 439.32738 
L 141.634648 438.998399 
L 140.848504 437.334371 
L 140.538621 436.509352 
L 139.736422 436.07609 
L 139.26822 435.150543 
L 139.294071 434.230737 
L 139.519688 432.456658 
L 139.953035 431.666022 
L 140.030496 430.759905 
L 138.724993 428.042822 
L 138.424465 426.923093 
L 138.417339 425.962232 
L 139.175918 425.099524 
L 140.874597 424.014183 
L 141.710216 422.147424 
L 141.869673 421.254324 
L 142.782242 419.618865 
L 143.231521 418.749604 
L 143.634221 417.836351 
L 144.092259 416.98588 
L 144.568903 416.236 
L 144.811605 415.271885 
L 145.095762 414.422176 
L 145.673099 413.748523 
L 146.091579 412.65815 
L 145.72436 411.854657 
L 144.295063 409.95385 
L 144.521304 408.943431 
L 144.43549 407.907355 
L 143.550442 407.605354 
L 143.006766 406.761956 
L 143.157356 405.882545 
L 143.51768 405.079164 
L 144.092943 404.110073 
L 144.418737 402.079421 
L 144.854803 401.29127 
L 144.619361 400.209186 
L 144.352184 399.25328 
L 144.343247 398.363375 
L 144.269207 397.47184 
L 143.984741 396.337851 
L 143.876905 395.214288 
L 144.336672 394.257168 
L 144.069098 393.137291 
L 144.379521 392.077414 
L 145.030167 391.487789 
L 146.083535 389.922744 
L 146.801999 389.016633 
L 147.48884 388.009443 
L 146.920667 386.355317 
L 145.991135 385.963974 
L 144.57084 386.125815 
L 143.675439 387.397709 
L 142.447161 386.655408 
L 141.601018 384.870102 
L 141.727823 382.833752 
L 142.128055 381.126907 
L 143.515641 378.990552 
L 144.504086 378.628965 
L 145.346014 378.254083 
L 147.763148 377.676077 
L 148.742292 377.685279 
L 149.445384 376.610385 
L 149.427821 375.449251 
L 149.419471 374.897202 
L 149.931383 373.506387 
L 150.557458 372.046612 
L 150.08961 371.139846 
L 148.475864 370.483738 
L 147.789185 369.646634 
L 147.395239 368.246008 
L 146.183906 367.762498 
L 145.507338 366.807474 
L 145.76637 365.1831 
L 145.189702 364.181814 
L 144.862001 362.328004 
L 144.334811 361.416259 
L 142.38895 361.088551 
L 140.50669 360.397972 
L 139.043853 359.476452 
L 138.875609 358.063636 
L 137.571959 357.730465 
L 136.502293 356.652039 
L 136.443272 355.547326 
L 135.447484 354.091801 
L 133.632158 352.497488 
L 131.869306 351.129106 
L 129.819955 349.991865 
L 128.114699 349.44497 
L 125.4305 350.25586 
L 123.116367 352.734737 
L 122.2448 353.149995 
L 121.516741 351.411678 
L 120.74826 350.478944 
L 121.432191 347.355687 
L 120.847763 346.124256 
L 118.013748 346.083833 
L 117.019873 345.812255 
L 115.883343 345.810542 
L 115.363636 344.614557 
L 115.530615 341.577653 
L 116.685494 339.570347 
L 117.947617 338.285385 
L 118.807844 337.203938 
L 119.426164 335.155412 
L 119.794749 332.283084 
L 119.085883 329.996751 
L 118.908629 328.98275 
L 119.687144 326.289147 
L 119.745371 324.53999 
L 118.758273 323.754564 
L 117.747396 321.805538 
L 118.540553 319.448031 
L 116.26581 318.804343 
L 116.585897 317.859856 
L 116.887078 317.353907 
L 117.128201 316.743422 
L 117.279392 316.505725 
L 118.43381 315.704753 
L 118.850838 315.566145 
L 119.737278 315.442879 
L 120.63098 315.234726 
L 121.014611 314.876064 
L 121.350018 314.666836 
L 121.84456 314.241982 
L 122.280056 313.973153 
L 122.573078 314.020836 
L 122.830976 314.170153 
L 123.14115 314.444498 
L 123.283367 314.757703 
L 123.383717 315.390297 
L 123.474375 315.692518 
L 123.615732 315.923873 
L 123.734474 316.33512 
L 124.14339 316.966217 
L 124.417799 317.176035 
L 124.703263 317.300409 
L 126.43406 317.522453 
L 127.411263 317.79468 
L 128.733957 318.353641 
L 129.710845 318.544005 
L 130.849656 318.539459 
L 131.475817 318.490029 
L 132.037337 318.550809 
L 132.337964 318.4623 
L 132.880438 318.50651 
L 133.106124 318.666305 
L 134.016007 318.91612 
L 134.720028 319.492516 
L 134.92165 319.737254 
L 135.196298 319.935317 
L 135.489494 320.024173 
L 136.718288 320.212667 
L 137.02717 320.086195 
L 137.654387 319.688068 
L 137.957856 319.564346 
L 138.18218 319.380647 
L 138.7683 319.14911 
L 139.360655 319.393903 
L 139.48722 319.650668 
L 139.694465 319.876278 
L 139.82886 320.192214 
L 140.033451 320.533785 
L 140.135747 320.70457 
L 140.238042 320.875355 
L 140.560835 321.210989 
L 140.883626 321.546624 
L 141.533735 322.127565 
L 141.81054 322.252215 
L 142.163296 322.24833 
L 142.537931 322.358668 
L 144.460953 322.492726 
L 145.15617 322.756992 
L 145.457948 322.954923 
L 145.890956 323.487617 
L 146.133168 323.639682 
L 146.409788 323.650013 
L 146.694563 323.732607 
L 147.470835 323.855209 
L 149.084739 323.985296 
L 149.386168 324.095646 
L 149.728043 324.149629 
L 150.104787 324.109073 
L 151.117835 323.843018 
L 152.011364 323.525615 
L 152.740586 323.479518 
L 153.315883 323.522716 
L 153.6171 323.647246 
L 153.901853 323.656989 
L 154.142658 323.528049 
L 154.418932 323.45298 
L 154.796042 323.502991 
L 155.073349 323.68218 
L 156.004239 323.885139 
L 156.267825 324.023733 
L 156.585461 324.117908 
L 156.944193 324.315581 
L 158.081206 324.59461 
L 158.627315 324.85998 
L 159.912854 325.187216 
L 161.533245 325.175589 
L 161.804338 325.226025 
L 162.689279 325.527894 
L 163.290937 325.451464 
L 163.719515 325.289545 
L 164.403966 325.103372 
L 164.672384 325.096527 
L 166.609905 325.186664 
L 167.697202 325.438561 
L 168.208007 324.964753 
L 168.366637 324.702473 
L 168.54284 325.413477 
L 168.69318 325.704746 
L 169.028523 325.948047 
L 170.113668 324.956513 
L 170.221217 324.669895 
L 170.72431 324.299509 
L 171.417848 324.214493 
L 172.245686 323.755178 
L 172.520862 323.416027 
L 172.80748 323.221139 
L 172.990949 322.933932 
L 173.334237 322.738807 
L 173.533644 322.503093 
L 173.668036 322.216638 
L 173.894422 321.096129 
L 173.992912 320.783091 
L 174.187756 320.49311 
L 174.954866 319.908294 
L 176.268666 319.27072 
L 176.928043 319.059538 
L 177.431006 318.727347 
L 178.188969 317.769933 
L 179.362397 316.959995 
L 179.711685 316.841227 
L 180.734306 316.086481 
L 181.545063 315.635969 
L 181.829344 315.534113 
L 182.105046 315.325361 
L 182.29648 315.065405 
L 182.482028 314.693904 
L 183.132663 313.948362 
L 183.443367 313.745736 
L 183.659494 313.490861 
L 183.975607 313.350409 
L 184.655678 313.164779 
L 184.980963 313.013376 
L 185.807723 312.502237 
L 186.119407 312.405721 
L 187.247569 312.455521 
L 187.589715 312.511908 
L 188.182494 312.331277 
L 188.366015 312.125914 
L 188.977262 311.757801 
L 189.462121 311.641457 
L 189.822561 311.598743 
L 190.674386 311.638786 
L 192.297201 311.386684 
L 192.562916 311.385831 
L 193.133395 311.061259 
L 193.709968 310.832406 
L 194.259973 310.734327 
L 194.546636 310.556078 
L 194.805512 310.2822 
L 195.106004 310.169085 
L 195.431737 310.126785 
L 197.154456 310.165836 
L 198.53429 310.037213 
L 199.10416 309.828021 
L 199.413092 309.788243 
L 199.663438 309.936929 
L 199.948041 309.978814 
L 200.18838 309.811669 
L 200.405904 309.248827 
L 200.799722 308.698873 
L 201.042599 308.490802 
L 201.225992 308.25789 
L 201.351567 307.880655 
L 201.526894 307.599497 
L 201.802635 307.469572 
L 202.038225 307.269716 
L 202.306152 307.151281 
L 202.538451 306.942711 
L 203.7602 306.108545 
L 203.987029 305.889087 
L 204.26287 305.719064 
L 204.530013 305.415149 
L 205.03219 304.973572 
L 205.416658 304.780719 
L 205.725517 304.725118 
L 206.386135 304.43616 
L 206.77159 303.899341 
L 207.047549 303.822059 
L 207.847596 303.870463 
L 208.435009 303.646735 
L 209.196284 303.438901 
L 209.846549 303.395745 
L 210.157479 303.189566 
L 210.424739 302.915382 
L 210.466499 302.596341 
L 210.289949 301.816991 
L 210.178228 301.492878 
L 210.032871 301.228919 
L 209.905422 300.58301 
L 209.991002 300.23896 
L 210.155172 300.014591 
L 210.682197 299.682018 
L 211.018396 299.617845 
L 211.821279 299.698965 
L 212.71387 299.899713 
L 212.442925 299.430358 
L 207.062871 290.101151 
L 196.761781 272.238687 
L 176.419935 236.965188 
L 175.647723 235.66606 
L 171.863786 229.300169 
L 165.958844 219.36161 
L 150.055788 192.595315 
L 203.431554 208.090751 
L 213.629201 211.04883 
L 222.757485 213.695046 
L 245.05443 220.158751 
L 264.748181 225.86781 
L 280.975118 230.616953 
L 281.501345 230.770658 
L 287.35068 232.4812 
L 298.241563 235.66606 
L 328.611833 244.547347 
L 329.240217 244.731107 
L 378.100823 259.043918 
L 382.718434 260.395713 
L 382.844139 260.605273 
L 383.129013 260.710473 
L 383.403099 260.71432 
L 383.848014 260.840549 
L 385.16895 261.503609 
L 385.95319 261.669884 
L 386.891683 261.218259 
L 387.191515 260.995726 
L 387.558585 260.831199 
L 387.884446 260.722209 
L 389.1739 260.645587 
L 390.125783 260.722984 
L 390.518918 260.679629 
L 391.022348 260.516614 
L 392.357762 260.302641 
L 392.625914 260.200745 
L 393.688566 259.584953 
L 394.041953 259.506898 
L 394.781914 259.542796 
L 396.774739 259.951427 
L 397.208186 259.892056 
L 397.803399 259.595017 
L 398.079427 259.552501 
L 398.713962 259.593265 
L 400.034996 259.546149 
L 401.571939 259.580552 
L 402.019521 259.529554 
L 402.401586 259.440445 
L 402.710714 259.292548 
L 403.053857 259.004652 
L 403.829216 258.016839 
L 404.083697 257.892381 
L 404.782253 257.721029 
L 405.11024 257.716411 
L 405.652856 257.809131 
L 405.929965 257.932871 
L 406.632678 258.057777 
L 407.544215 258.145395 
L 407.812517 258.131256 
L 408.513408 257.938896 
L 409.391509 257.343621 
L 409.599291 257.094012 
L 409.850184 256.9017 
L 410.485835 256.064501 
L 410.7368 255.83185 
L 411.003222 255.489552 
L 411.508024 255.167878 
L 412.165834 255.037059 
L 412.735912 255.036686 
L 413.386237 254.927433 
L 414.658924 254.811274 
L 415.569983 253.588953 
L 415.854955 253.658403 
L 416.12875 253.659769 
L 417.252131 253.335839 
L 418.145548 253.159686 
L 418.498167 253.148937 
L 418.887825 253.008268 
L 419.675957 252.865614 
L 420.630474 252.876941 
L 421.290274 253.151929 
L 421.72521 253.397783 
L 421.983857 253.625709 
L 422.301508 253.724968 
L 423.449708 253.72682 
L 423.456308 253.726831 
L 424.090264 253.652798 
L 425.402099 253.616255 
L 425.703365 253.745843 
L 425.965054 253.930138 
L 426.230785 254.602 
L 426.398043 254.875889 
L 426.591314 255.092958 
L 427.143446 255.409613 
L 427.886468 255.571862 
L 428.687852 255.859186 
L 428.965216 256.032765 
L 429.584603 256.298922 
L 431.3671 256.871276 
L 432.38487 257.440931 
L 434.241912 258.063564 
L 434.80151 258.188552 
L 435.453408 258.502212 
L 435.82004 258.581843 
L 436.112205 258.515226 
L 436.330956 258.350323 
L 436.757207 257.939357 
L 436.91632 257.720522 
L 437.451277 257.256135 
L 437.784469 256.884071 
L 438.036101 256.681392 
L 438.421079 256.20305 
L 438.655887 255.997187 
L 438.947421 255.859442 
L 439.149562 255.571985 
L 439.249688 254.996432 
L 439.434298 254.456154 
L 439.60154 254.237008 
L 440.167034 254.187812 
L 440.304932 253.901227 
L 440.387191 253.601025 
L 440.629383 253.300012 
L 441.13959 252.875004 
L 441.349456 252.615036 
L 441.472705 252.272113 
L 441.42255 251.404356 
L 441.289909 251.116417 
L 441.005267 250.896834 
L 440.729774 250.609344 
L 440.771306 250.241217 
L 440.896803 249.913545 
L 440.905575 249.444746 
L 440.746996 249.227249 
L 439.994406 248.556531 
L 439.401696 247.874372 
L 439.123403 247.022472 
L 439.216944 246.754645 
L 439.408695 246.557729 
L 440.997858 246.696891 
L 441.289955 246.61911 
L 441.449699 246.037541 
L 441.616603 245.750543 
L 441.83264 245.586208 
L 442.592829 245.336827 
L 443.403719 244.872437 
L 443.613694 244.688784 
L 444.166101 244.465522 
L 445.262278 244.135411 
L 445.469566 243.902445 
L 445.780836 243.702202 
L 446.097146 243.588597 
L 446.339945 243.355997 
L 446.371553 242.6827 
L 446.481394 242.368469 
L 447.074277 242.326778 
L 447.11675 242.038233 
L 447.269323 241.650479 
L 447.618756 241.602386 
L 447.837225 241.383265 
L 447.494503 240.548345 
L 447.568417 240.204592 
L 447.726709 239.876493 
L 448.013419 239.752684 
L 448.237387 239.549343 
L 448.355352 239.287944 
L 448.781378 238.835861 
L 449.100217 238.632588 
L 449.408815 238.54982 
L 450.303306 238.547762 
L 450.872205 238.427435 
L 451.265768 237.989417 
L 451.364548 237.686149 
L 451.356981 237.310109 
L 451.038871 237.006764 
L 451.525068 236.772398 
L 453.506097 236.200742 
L 454.029231 235.66606 
L 455.094795 234.576972 
L 456.305216 232.70659 
L 457.804301 231.107276 
L 459.501427 229.055152 
L 461.031512 227.098993 
L 462.687922 225.528628 
L 464.611478 224.265675 
L 465.779487 224.769363 
L 466.349262 228.082846 
L 467.419301 235.563587 
L 467.50123 235.66606 
L 468.087612 236.399479 
L 468.305497 237.087793 
L 468.43151 238.422128 
L 469.21751 239.530719 
L 469.751774 240.653128 
L 469.677196 242.514679 
L 470.637875 243.744427 
L 471.549159 246.605853 
L 472.694579 247.960232 
L 473.012227 249.697379 
L 473.095512 251.612586 
L 472.745764 253.184247 
L 472.168497 255.318165 
L 472.383765 256.114094 
L 472.69383 257.26132 
L 473.664253 258.354409 
L 521.103675 258.761479 
L 533.717136 258.869713 
L 534.586189 262.659256 
L 535.088565 266.204245 
L 535.580389 270.037497 
L 535.780792 273.907763 
L 536.366059 277.794948 
L 537.260059 281.60656 
L 538.49758 285.258482 
L 539.033849 287.601255 
L 539.911959 289.833395 
L 542.25177 296.812765 
L 543.231065 300.278002 
L 545.047251 305.912246 
L 545.887479 307.53153 
L 546.491965 308.696416 
L 547.078166 310.695237 
L 547.378575 312.023123 
L 548.105712 314.524789 
L 549.777845 317.68644 
L 551.308477 321.216326 
L 554.294193 326.886861 
L 554.929353 327.838577 
L 556.266193 329.84168 
L 558.147184 333.355645 
L 559.076001 336.37398 
L 560.046438 339.080695 
L 560.32237 340.809552 
L 559.879449 341.5313 
L 559.870042 343.201113 
L 560.028982 344.859025 
L 560.758241 346.883704 
L 561.316685 347.948402 
L 561.657717 348.385178 
L 561.843023 348.947912 
L 562.110949 349.357612 
L 562.287699 349.803268 
L 562.612593 350.215348 
L 562.840201 350.639178 
L 563.091497 350.896436 
L 563.356896 351.335835 
L 563.410299 351.468711 
L 563.565823 351.855109 
L 563.866872 352.223743 
L 564.025254 352.497627 
L 564.194157 352.989629 
L 564.35333 353.304909 
L 564.585113 354.017162 
L 564.695365 354.768279 
L 564.703326 355.192879 
L 564.5965 355.877755 
L 564.402683 356.164658 
L 563.851511 357.372476 
L 562.844025 358.871514 
L 562.454014 359.547213 
L 562.487623 360.177859 
L 562.619321 360.477234 
L 562.857095 360.737014 
L 563.189763 361.489512 
L 563.383821 361.695078 
L 563.742854 362.365969 
L 564.068908 363.821255 
L 564.176289 364.945555 
L 564.194688 366.244722 
L 564.285935 367.434763 
L 564.359298 367.861961 
L 564.387025 368.501898 
L 564.46884 368.981069 
L 564.653933 369.540781 
L 564.887133 369.937585 
L 565.036966 370.541091 
L 565.348247 371.29097 
L 565.390417 371.581619 
L 565.514005 371.88103 
L 565.573061 372.183015 
L 565.707437 372.427338 
L 565.681066 373.446214 
L 565.791647 373.791465 
L 566.183227 374.407375 
L 566.384922 374.972968 
L 566.543779 375.228033 
L 566.717961 375.817762 
L 567.070665 376.506085 
L 567.39403 377.408405 
L 567.454142 379.26159 
L 567.061336 380.539572 
L 566.977879 381.574865 
L 567.018982 382.842276 
L 567.234513 384.37854 
" clip-path="url(#p36367a17ef)" style="fill: #cccccc; fill-opacity: 0.65"/>
    <path d="M 509.792777 664.938033 
L 509.518525 664.680073 
L 509.43523 663.694405 
L 509.000106 662.732764 
L 508.705788 661.555154 
L 507.861534 661.96438 
L 507.177174 662.477906 
L 507.015878 662.59893 
L 506.390008 663.549871 
L 506.985715 664.482869 
L 507.035347 665.741238 
L 506.216595 666.725165 
L 505.505132 667.902044 
L 505.153162 668.830617 
L 504.577904 669.679863 
L 503.706398 669.350675 
L 503.330803 668.473317 
L 502.402326 668.498987 
L 501.449104 668.905996 
L 500.762641 669.780282 
L 499.978859 670.682234 
L 498.806455 670.900621 
L 497.8539 670.980396 
L 496.576298 670.84014 
L 495.538856 671.247733 
L 494.668278 671.823072 
L 493.791065 672.614524 
L 493.053439 673.131978 
L 492.078202 673.542398 
L 491.171919 673.67659 
L 490.001832 674.113175 
L 488.967273 675.013638 
L 488.097599 675.256825 
L 487.831669 675.304339 
L 487.565739 675.351854 
L 487.03388 675.446883 
L 486.132337 675.445061 
L 483.657077 675.767383 
L 482.652275 675.409597 
L 481.422987 675.189345 
L 480.094136 675.103568 
L 479.082248 674.935997 
L 478.355536 674.333446 
L 477.453152 673.426661 
L 476.098792 672.793325 
L 474.567005 672.817359 
L 473.564333 672.761944 
L 472.586815 672.376363 
L 471.690869 671.687468 
L 471.172302 670.538702 
L 470.847522 669.52456 
L 470.303106 668.563437 
L 469.543102 667.849045 
L 468.814128 667.301197 
L 467.235155 665.982053 
L 466.942643 664.913159 
L 467.134635 663.955099 
L 467.568002 662.587179 
L 467.954375 661.57601 
L 467.727868 660.782698 
L 467.688075 660.643182 
L 466.783831 660.31423 
L 465.781398 660.282969 
L 465.126279 659.404571 
L 463.9832 659.019739 
L 462.60413 658.358831 
L 461.456669 657.726571 
L 460.587675 657.424851 
L 459.390909 657.53085 
L 458.464419 657.882979 
L 458.02934 658.649238 
L 458.019438 659.553484 
L 456.775396 659.578864 
L 455.814229 659.986004 
L 454.892743 659.8751 
L 453.939019 659.816461 
L 452.988174 660.144219 
L 452.711419 660.990891 
L 451.783468 661.975524 
L 450.82811 662.521871 
L 449.876863 662.792402 
L 448.333701 662.768813 
L 446.666407 662.78475 
L 445.629683 662.946835 
L 444.649744 663.435558 
L 443.665573 664.063296 
L 442.954913 664.610696 
L 442.60244 665.512682 
L 442.484293 666.524546 
L 442.509752 667.483932 
L 441.85713 668.221715 
L 440.987663 668.137122 
L 439.928154 668.106134 
L 438.863938 667.778115 
L 437.912183 668.019187 
L 436.849758 667.552151 
L 435.698502 667.285469 
L 435.220358 668.042513 
L 434.557386 668.780362 
L 434.087324 668.855828 
L 433.387971 668.968105 
L 432.653754 668.392544 
L 431.758286 668.11485 
L 430.888352 667.592241 
L 430.258987 666.933922 
L 429.968225 666.055573 
L 429.399804 665.124571 
L 428.38822 665.313665 
L 427.601717 665.940587 
L 426.673979 666.486691 
L 425.613046 666.648853 
L 424.649973 667.2745 
L 423.780069 667.162836 
L 422.776348 667.352132 
L 421.799064 667.431957 
L 421.412908 668.225187 
L 421.356674 669.127694 
L 420.619135 669.729215 
L 419.860497 670.467697 
L 419.441007 671.478651 
L 418.838534 672.379899 
L 418.760835 672.336536 
L 418.004292 671.913669 
L 417.314144 671.220255 
L 416.397918 670.924083 
L 416.180448 669.99067 
L 416.105792 669.089014 
L 415.252132 668.102578 
L 414.141104 667.670576 
L 411.773406 667.00238 
L 410.627359 666.944255 
L 409.952062 666.31119 
L 410.119457 665.326418 
L 409.188762 664.63697 
L 407.944097 664.114474 
L 407.015921 663.809302 
L 405.955677 664.077647 
L 405.135089 664.486696 
L 404.422629 665.526843 
L 403.519787 666.236255 
L 402.401604 666.368688 
L 401.17291 667.050794 
L 400.187108 667.953726 
L 398.310361 668.683405 
L 397.386046 668.598676 
L 396.51402 668.157618 
L 395.553954 667.962172 
L 394.74116 667.438668 
L 393.412045 665.56871 
L 392.817784 664.855687 
L 392.768332 663.924335 
L 392.056481 663.127294 
L 391.054837 662.711281 
L 389.908906 663.173905 
L 388.488544 663.196714 
L 387.400595 663.383916 
L 386.882945 662.285741 
L 387.217116 661.026427 
L 387.083245 660.011093 
L 386.539757 659.158402 
L 385.610871 659.540544 
L 383.504125 658.962847 
L 382.57391 659.089282 
L 382.40281 659.112538 
L 381.404095 658.901173 
L 379.936321 658.590537 
L 379.600896 657.919815 
L 379.14076 657.569746 
L 378.177758 657.541002 
L 376.956888 658.137322 
L 376.07853 658.437598 
L 375.125181 658.432767 
L 374.098467 657.992241 
L 373.169169 657.493841 
L 372.190866 657.407097 
L 371.514386 656.555422 
L 371.463627 655.350574 
L 371.353695 654.279947 
L 370.978476 653.347844 
L 370.26853 652.741158 
L 369.181896 652.655337 
L 367.141535 651.716813 
L 366.187269 651.602874 
L 365.040916 651.956296 
L 364.415322 652.72108 
L 364.030466 653.677631 
L 363.151784 654.362227 
L 361.899393 654.220433 
L 360.108096 653.500252 
L 357.741324 651.598855 
L 356.221585 650.909625 
L 355.209041 650.548448 
L 354.098219 650.54446 
L 352.952774 650.211081 
L 351.781502 650.534054 
L 351.28632 651.712404 
L 350.436107 652.175691 
L 349.373152 652.007809 
L 348.644713 651.428091 
L 348.126405 650.657864 
L 347.342998 649.970241 
L 346.520779 649.639993 
L 345.976686 650.376723 
L 345.37767 651.059541 
L 344.231079 650.891865 
L 343.504274 648.887064 
L 342.87737 648.116925 
L 341.657682 647.537722 
L 340.72485 647.369239 
L 339.453632 647.335598 
L 338.30356 647.305023 
L 337.073455 647.601549 
L 335.936502 647.76418 
L 335.059487 647.349404 
L 333.680874 645.987658 
L 332.954399 645.762837 
L 332.841693 645.672919 
L 332.755653 645.409999 
L 332.684909 645.310204 
L 332.499444 645.29869 
L 332.396196 645.229601 
L 332.403256 645.079571 
L 332.219046 645.00033 
L 332.059843 644.920692 
L 331.954273 644.820306 
L 331.915524 644.723719 
L 331.882041 644.452225 
L 331.882041 643.946137 
L 332.075477 643.413752 
L 331.345418 642.592353 
L 330.561345 641.819531 
L 329.364916 641.570495 
L 328.711231 640.800412 
L 328.686303 639.813586 
L 327.987008 639.043497 
L 327.139919 638.216764 
L 326.187929 637.96676 
L 325.149374 638.18241 
L 324.388479 638.645314 
L 323.841156 638.809471 
L 323.220369 638.995881 
L 322.147209 639.375865 
L 321.529536 638.717301 
L 320.987237 637.945948 
L 320.092567 637.286035 
L 319.079099 636.787146 
L 318.236306 636.538343 
L 317.451413 636.069156 
L 316.580555 635.436335 
L 315.55064 635.183449 
L 314.566301 635.014263 
L 313.719625 634.656935 
L 312.582515 634.322866 
L 311.436624 633.880046 
L 310.702346 633.191834 
L 310.325193 632.367351 
L 310.273721 631.462683 
L 309.162726 630.992088 
L 308.392893 631.648307 
L 307.465723 631.452008 
L 306.655807 630.873549 
L 305.426256 630.978681 
L 303.110107 631.48884 
L 301.996206 631.402402 
L 301.45403 630.630921 
L 300.50257 629.943908 
L 299.607573 629.720102 
L 297.533462 629.822213 
L 296.639217 629.680735 
L 295.878555 629.158903 
L 294.948245 628.413912 
L 294.05322 628.135534 
L 293.102878 628.106157 
L 292.47386 627.334577 
L 292.183001 626.29162 
L 292.239985 625.386531 
L 292.924892 623.552866 
L 292.851538 622.647988 
L 291.897296 622.454454 
L 290.727002 622.420045 
L 289.715721 622.745473 
L 288.919705 622.498571 
L 288.827909 622.470098 
L 288.461663 622.356498 
L 288.338297 621.941125 
L 288.316826 621.868833 
L 288.168179 621.36834 
L 287.380577 620.871405 
L 286.320747 620.73025 
L 285.41761 620.972407 
L 284.657628 621.462432 
L 283.537024 621.569487 
L 282.473996 621.343523 
L 281.412816 621.012008 
L 280.517472 621.145297 
L 278.385053 622.013747 
L 277.430699 622.229172 
L 276.479132 622.553656 
L 275.575905 622.687246 
L 274.764041 622.217102 
L 273.811745 622.268608 
L 273.485519 621.335374 
L 272.740512 622.12744 
L 271.847155 622.615741 
L 271.245088 621.738057 
L 271.226306 620.860335 
L 270.902895 619.844441 
L 270.333303 618.99165 
L 270.724107 617.160692 
L 270.29348 616.196665 
L 269.144508 615.888449 
L 265.564118 613.565777 
L 265.232464 613.350562 
L 264.738901 612.58402 
L 263.535725 611.014496 
L 263.685173 610.053721 
L 263.784693 608.902329 
L 263.317361 607.865641 
L 262.707312 606.993643 
L 262.773217 604.224987 
L 262.683773 603.268542 
L 263.083154 602.278835 
L 262.966743 601.404081 
L 262.958623 600.471454 
L 263.11629 599.567907 
L 263.677362 598.850017 
L 264.052311 597.860726 
L 263.853492 596.711265 
L 263.335423 595.865463 
L 263.209992 594.82713 
L 263.319031 593.866858 
L 263.142893 592.937888 
L 262.140367 592.864342 
L 261.210505 592.623762 
L 260.164112 592.86952 
L 260.190591 591.70216 
L 260.32584 590.714192 
L 260.667793 589.643273 
L 260.927457 588.517994 
L 261.796679 587.550535 
L 262.548158 586.998249 
L 263.031875 586.035915 
L 262.322873 585.464122 
L 261.443464 585.007798 
L 261.278068 584.048758 
L 262.649745 582.669487 
L 263.134378 581.925052 
L 263.401208 581.018187 
L 264.103267 579.918038 
L 264.388654 578.929261 
L 264.597623 577.916089 
L 264.589017 576.831025 
L 264.362918 575.888687 
L 263.628492 575.374557 
L 263.507655 575.319312 
L 262.857295 574.887348 
L 261.763001 573.890015 
L 261.844339 573.317694 
L 261.919916 572.784402 
L 262.564843 572.011838 
L 264.161607 571.097999 
L 264.514605 570.10859 
L 264.747035 568.961941 
L 265.291447 568.17875 
L 266.219372 567.633453 
L 267.522394 568.079306 
L 268.334807 568.712997 
L 269.398095 568.55119 
L 270.139925 567.732285 
L 270.524739 566.557276 
L 271.019371 565.709459 
L 271.353038 564.614092 
L 271.461846 563.653035 
L 271.55324 560.475814 
L 271.47718 559.4615 
L 270.968022 558.17166 
L 270.567253 557.347549 
L 270.215555 556.056843 
L 270.381957 554.796043 
L 270.985375 553.783487 
L 271.235419 552.882206 
L 271.184762 551.537779 
L 271.386295 550.195256 
L 272.583138 549.596727 
L 273.2919 548.640878 
L 273.134891 547.709635 
L 272.490951 546.581136 
L 271.837656 545.731111 
L 270.969169 544.737981 
L 270.425022 543.941076 
L 270.132752 543.089359 
L 270.275786 541.967771 
L 271.335896 541.285752 
L 272.298425 540.579443 
L 273.057919 539.92386 
L 271.780609 539.117816 
L 270.484919 538.884809 
L 270.433397 537.924892 
L 270.215592 536.830333 
L 270.107319 535.813452 
L 270.240678 534.910083 
L 270.542553 533.948271 
L 270.97548 533.182378 
L 271.328618 532.111485 
L 271.554403 531.234624 
L 271.494908 530.302568 
L 270.976555 529.287608 
L 271.109753 528.29998 
L 272.121699 528.218213 
L 273.23352 528.545234 
L 276.262553 529.011398 
L 277.190238 528.957328 
L 277.757526 527.942841 
L 277.926296 527.066301 
L 277.649321 525.968816 
L 277.323953 525.00821 
L 277.817236 523.856688 
L 278.601365 524.321795 
L 279.20529 525.145642 
L 280.292434 525.886166 
L 281.219843 526.241403 
L 281.277798 526.285516 
L 282.013148 526.845236 
L 282.607955 527.531942 
L 283.451512 527.88734 
L 284.221081 527.146913 
L 285.09252 526.626816 
L 286.018591 526.324575 
L 286.7555 526.272591 
L 287.190922 526.241876 
L 287.517204 526.452532 
L 288.084249 526.818406 
L 288.577068 527.614161 
L 289.806863 527.667473 
L 290.894203 527.475863 
L 291.219636 528.434215 
L 292.14816 529.03997 
L 292.717387 528.298167 
L 292.96751 527.420673 
L 293.778516 526.871433 
L 294.947863 526.788976 
L 296.09368 526.872705 
L 297.29856 527.337581 
L 298.358677 528.133451 
L 299.180099 528.95516 
L 300.568453 530.711749 
L 301.462146 531.342709 
L 302.258128 531.972564 
L 303.175811 531.47751 
L 303.259865 530.517238 
L 302.991362 529.558909 
L 302.690888 528.709549 
L 302.633361 527.665527 
L 302.007323 526.788503 
L 301.786952 526.317523 
L 301.570704 525.855354 
L 301.053388 525.004446 
L 300.811026 523.855084 
L 300.91971 522.975929 
L 301.378916 522.071407 
L 302.221962 521.330572 
L 303.261065 520.809802 
L 304.406844 520.342435 
L 306.72086 519.547177 
L 307.676279 519.162375 
L 308.761742 519.134869 
L 311.514227 519.765659 
L 312.741711 519.900671 
L 314.731665 520.449177 
L 315.735404 520.860246 
L 316.661988 521.602744 
L 317.566523 522.233019 
L 318.461993 522.645211 
L 319.389294 522.479185 
L 320.779772 522.833804 
L 321.814922 522.833759 
L 323.042751 523.026217 
L 323.936724 522.723487 
L 324.67196 522.231604 
L 325.628593 521.874535 
L 326.688622 521.271229 
L 327.4488 520.776206 
L 328.328438 520.338042 
L 329.306982 520.116896 
L 330.092538 519.403612 
L 329.766665 518.391193 
L 328.371617 516.962147 
L 326.57926 516.170565 
L 325.459429 515.868438 
L 324.613557 515.537786 
L 321.729806 515.264796 
L 320.642406 514.935188 
L 319.221472 514.607417 
L 318.352769 514.168335 
L 317.456848 513.565256 
L 316.60412 512.471143 
L 316.496011 511.508704 
L 316.795535 510.247366 
L 318.025685 509.837328 
L 319.137037 510.13685 
L 320.174956 510.357153 
L 321.429849 510.056023 
L 322.189897 509.588308 
L 323.143692 508.819329 
L 324.456599 507.666924 
L 325.217284 506.872024 
L 326.147219 505.664487 
L 327.390726 502.895392 
L 328.075993 501.661956 
L 328.921215 500.400102 
L 329.212786 499.081603 
L 329.273249 498.178534 
L 328.838366 497.109702 
L 327.801705 497.107239 
L 325.037537 496.616958 
L 323.931249 495.986119 
L 323.361882 495.081035 
L 322.409109 494.532495 
L 321.69716 493.353069 
L 320.768946 491.269597 
L 320.308628 490.500218 
L 319.950415 488.937392 
L 320.11776 487.813135 
L 320.392359 486.851891 
L 397.120715 484.656282 
L 415.251152 484.133535 
L 425.284456 483.880695 
L 430.112805 483.758764 
L 470.64266 482.730896 
L 484.034412 482.389753 
L 493.180726 481.409168 
L 513.780681 479.200626 
L 543.311592 476.031197 
L 564.670693 473.736402 
L 565.749618 473.620358 
L 566.711414 473.809876 
L 567.754182 473.517286 
L 568.942033 473.419578 
L 570.264911 473.223463 
L 571.249777 473.206071 
L 572.805145 473.333896 
L 574.109115 472.696098 
L 574.955318 470.939156 
L 575.537366 470.03104 
L 576.274534 468.612572 
L 577.095643 467.997044 
L 578.324532 467.583099 
L 578.500378 466.674684 
L 578.883206 465.84171 
L 579.109431 464.753203 
L 579.41903 463.634189 
L 579.97968 462.650249 
L 580.682953 461.610083 
L 582.50525 458.00561 
L 583.42554 455.50418 
L 584.201415 453.865189 
L 584.553155 452.882655 
L 584.828998 451.910972 
L 585.263996 450.755766 
L 585.781909 449.875918 
L 586.610352 449.227446 
L 587.665707 448.052112 
L 588.294756 447.282666 
L 589.924574 445.290053 
L 590.564291 444.451641 
L 590.179993 445.349929 
L 589.822266 446.662294 
L 589.663041 448.000865 
L 589.445155 449.12167 
L 589.261922 450.604478 
L 588.976102 452.123371 
L 588.526136 455.923228 
L 588.383563 461.447793 
L 588.441615 462.890343 
L 588.332923 466.16286 
L 588.048208 468.700377 
L 588.005885 472.8873 
L 588.090102 474.172252 
L 588.382872 476.174824 
L 588.750804 477.6428 
L 589.537314 479.620528 
L 590.253667 480.879702 
L 590.940185 481.691593 
L 591.310209 482.610192 
L 592.145419 484.998788 
L 592.395932 486.301649 
L 592.623427 487.852773 
L 592.906804 489.23711 
L 593.716912 491.829815 
L 593.919157 492.847565 
L 594.003365 493.543929 
L 594.111424 494.436493 
L 593.231709 500.428964 
L 593.164823 501.371473 
L 593.339674 504.742491 
L 593.274219 507.05 
L 593.381706 508.089087 
L 593.883523 509.246113 
L 594.007998 509.351745 
L 594.462502 509.738076 
L 595.348175 509.914453 
L 599.401879 510.970151 
L 602.698795 511.6832 
L 604.259548 512.110839 
L 605.29815 512.697316 
L 606.293698 513.493505 
L 607.522073 515.304396 
L 608.650628 516.843627 
L 611.050119 520.440893 
L 612.3217 522.978204 
L 614.739067 526.302848 
L 615.397105 527.289449 
L 616.820685 529.762929 
L 616.976213 529.995204 
L 617.388491 530.611261 
L 618.316838 531.394394 
L 619.195455 532.437114 
L 619.864226 533.357684 
L 620.02195 533.784094 
L 619.84576 534.970188 
L 619.562354 535.579467 
L 618.891826 536.333382 
L 618.43271 537.044674 
L 618.11658 537.632678 
L 617.576027 539.110582 
L 617.575183 539.259818 
L 617.56368 541.468391 
L 617.689876 542.575548 
L 617.755718 544.165407 
L 617.614031 545.618143 
L 617.671271 546.796865 
L 617.581337 549.416109 
L 617.588445 550.337307 
L 617.682774 551.193882 
L 617.85752 552.781594 
L 618.173398 553.642563 
L 618.557814 555.393508 
L 619.336705 558.396967 
L 619.745718 559.407018 
L 620.25701 562.143064 
L 620.359345 563.272966 
L 620.199095 564.69261 
L 619.864103 566.424236 
L 619.755056 567.451381 
L 619.738027 568.889595 
L 619.963795 570.039838 
L 620.181057 571.626115 
L 620.539377 574.953616 
L 620.523212 575.905196 
L 620.47166 578.971001 
L 620.484663 580.23471 
L 620.497614 581.49025 
L 620.371637 583.98284 
L 620.19786 585.095429 
L 620.198996 587.107543 
L 620.57499 588.512358 
L 620.898797 590.351345 
L 621.175987 591.496003 
L 621.51989 593.219916 
L 621.74356 594.135676 
L 622.020314 595.032524 
L 622.33596 596.563836 
L 622.636364 597.35185 
L 621.894319 596.468265 
L 619.76798 594.273388 
L 618.776121 593.455065 
L 617.838686 592.503709 
L 617.587849 591.656205 
L 617.203947 590.72989 
L 616.260153 589.795439 
L 616.202088 594.512147 
L 616.401761 595.823246 
L 616.685778 598.228435 
L 616.508894 599.651516 
L 615.966885 600.5294 
L 615.324441 601.411299 
L 614.596404 602.100215 
L 614.134456 603.195099 
L 614.255181 603.84505 
L 614.561368 605.490862 
L 615.616411 608.601351 
L 616.175817 610.076418 
L 616.424947 611.084588 
L 616.184898 612.07217 
L 615.573519 613.443773 
L 615.581503 614.593172 
L 615.64073 615.548568 
L 615.974423 616.640793 
L 616.686294 617.757412 
L 616.669399 618.770832 
L 615.939187 619.788512 
L 614.382502 621.187378 
L 613.500397 620.624291 
L 612.856728 621.669654 
L 611.878856 622.360508 
L 612.648851 623.256128 
L 611.676206 623.919989 
L 610.482065 623.684115 
L 609.487764 624.212244 
L 609.173212 624.382351 
L 607.615795 625.946274 
L 607.454136 626.958096 
L 608.198972 628.156209 
L 608.181192 629.415043 
L 608.758576 630.695824 
L 609.336594 631.404978 
L 609.972526 632.522179 
L 609.78728 633.534175 
L 608.984229 635.454679 
L 608.774024 636.469319 
L 607.848089 636.775857 
L 607.395771 637.62648 
L 606.58648 637.988784 
L 605.583958 638.296169 
L 604.410761 638.332503 
L 603.685373 639.021244 
L 603.223126 640.035352 
L 601.360588 641.117188 
L 601.175207 642.512674 
L 600.833731 643.334978 
L 600.048332 644.353985 
L 600.908697 647.218213 
L 601.467956 648.638584 
L 600.900142 649.734672 
L 600.606777 650.777489 
L 600.590557 651.872136 
L 598.501324 652.43288 
L 597.556671 652.933225 
L 596.107968 652.423713 
L 594.97067 652.841077 
L 595.054171 654.23485 
L 595.229476 655.518991 
L 594.994832 656.860425 
L 594.461849 657.823651 
L 594.711926 658.971328 
L 595.640844 660.058847 
L 596.576308 661.255784 
L 597.670932 662.342016 
L 598.255517 663.431838 
L 600.649121 664.3156 
L 600.872804 665.517897 
L 599.845565 666.12787 
L 598.51671 666.794066 
L 597.763501 667.401405 
L 596.920646 668.007523 
L 595.299108 669.087185 
L 594.894985 669.883056 
L 594.034525 671.036181 
L 593.244918 672.005211 
L 593.114121 672.165257 
L 591.677691 672.584987 
L 590.481363 672.788001 
L 589.753794 673.558021 
L 589.73837 673.673615 
L 589.579025 674.872626 
L 588.540579 674.79882 
L 587.528992 674.612593 
L 586.308822 674.537701 
L 585.306317 675.231645 
L 584.443771 675.755395 
L 583.382148 676.174978 
L 582.486576 676.317946 
L 581.42555 676.023662 
L 580.147674 675.897422 
L 579.000761 675.848351 
L 576.936779 676.191047 
L 575.775071 677.104071 
L 574.821273 676.945119 
L 573.709192 676.542219 
L 572.864266 676.848188 
L 572.295953 677.78425 
L 572.037665 678.878136 
L 570.816085 679.70745 
L 569.761948 680.044685 
L 568.776157 679.750034 
L 567.629165 679.292886 
L 567.18629 678.476352 
L 565.764404 677.980388 
L 564.828117 678.093629 
L 564.235066 677.242789 
L 563.992111 676.312787 
L 563.800499 675.05336 
L 562.796549 674.831508 
L 561.651408 675.349955 
L 560.565168 675.01975 
L 559.611425 674.607649 
L 559.234847 673.564481 
L 558.875136 672.744542 
L 556.893732 671.835578 
L 555.831933 671.093826 
L 554.61034 670.819853 
L 553.734386 671.7473 
L 552.921632 672.404611 
L 551.994503 673.0595 
L 551.173498 673.741116 
L 550.304062 674.042006 
L 549.32757 673.820132 
L 548.447217 673.410401 
L 547.687869 672.832516 
L 546.768809 672.365578 
L 545.839651 672.337277 
L 544.015471 671.37493 
L 542.929358 671.426217 
L 542.337813 670.686881 
L 542.745866 669.728008 
L 543.50601 669.264245 
L 543.700363 668.388938 
L 542.528679 667.539708 
L 541.141414 666.849489 
L 540.187642 666.793803 
L 538.747816 666.381799 
L 537.445571 666.214223 
L 536.568456 665.828332 
L 535.781844 665.223843 
L 535.054757 664.210287 
L 534.175482 663.936626 
L 533.114439 664.069091 
L 532.304406 663.603676 
L 530.093853 663.652644 
L 529.22559 664.116868 
L 528.272147 664.142285 
L 527.669224 664.906711 
L 527.803235 665.867407 
L 527.561268 666.742828 
L 526.793544 667.782242 
L 526.191591 668.682611 
L 525.404726 669.175677 
L 524.450733 669.090221 
L 523.775512 668.487306 
L 522.545427 668.155643 
L 521.78448 667.717337 
L 520.864829 667.495117 
L 519.962664 667.43895 
L 519.142785 667.875297 
L 518.356624 667.327902 
L 517.546122 666.832438 
L 516.666909 666.527895 
L 515.771136 665.84232 
L 515.071 665.128091 
L 513.948963 665.509366 
L 513.022391 666.221894 
L 512.126825 666.328829 
L 511.39228 665.778288 
L 510.306014 665.421236 
L 509.792777 664.938033 
" clip-path="url(#p36367a17ef)" style="fill: #b3e2cd; fill-opacity: 0.65"/>
   </g>
   <g id="PatchCollection_2">
    <path d="M 430.657783 483.130161 
L 488.494144 479.561962 
L 489.501252 552.992192 
L 489.448691 552.905074 
L 489.213929 552.579174 
L 489.217981 552.25003 
L 489.324272 551.458105 
L 489.152124 551.246009 
L 488.715578 551.186541 
L 488.201828 551.652538 
L 487.63216 551.47639 
L 487.619332 551.56042 
L 487.597254 551.979399 
L 487.593661 552.500369 
L 487.405814 552.987748 
L 487.298032 552.868223 
L 486.714639 552.342409 
L 484.482155 551.601105 
L 484.146518 551.238992 
L 483.825051 550.610194 
L 483.487989 550.375736 
L 483.024665 550.408644 
L 482.704753 550.517321 
L 482.154176 550.532312 
L 482.175427 550.478546 
L 482.027181 550.415522 
L 481.60476 550.33707 
L 480.913169 551.055723 
L 480.89466 550.986277 
L 480.785317 550.972017 
L 480.775153 551.041096 
L 480.68586 551.080684 
L 480.656041 551.043703 
L 480.562915 550.942811 
L 480.530037 550.826103 
L 480.372853 550.869279 
L 480.345019 551.100954 
L 479.588103 551.41394 
L 479.629629 551.937777 
L 479.511433 551.788503 
L 479.27488 551.806542 
L 479.152285 551.980849 
L 479.119957 551.961649 
L 478.983548 551.688715 
L 478.755921 551.62939 
L 478.388009 551.406824 
L 478.200331 551.091465 
L 477.499 550.32762 
L 477.374264 549.701445 
L 477.315261 549.420469 
L 476.970079 549.116693 
L 477.109164 548.87999 
L 476.971463 548.759399 
L 476.705181 548.832119 
L 475.818456 549.042285 
L 475.181311 548.879619 
L 475.072731 548.732861 
L 475.113747 548.477048 
L 475.184528 548.229346 
L 475.158563 548.082796 
L 475.206407 548.056751 
L 475.328753 547.89109 
L 475.188481 547.643373 
L 474.813735 547.898835 
L 474.460748 547.972878 
L 473.786896 548.266296 
L 473.171443 548.690214 
L 472.96271 549.276234 
L 472.744304 549.349878 
L 471.877503 549.312768 
L 471.747812 549.396295 
L 471.648356 549.530418 
L 471.542023 550.341542 
L 471.15458 550.419882 
L 470.883892 550.46463 
L 470.500712 550.246761 
L 470.457055 550.432981 
L 470.531206 551.278857 
L 470.320602 551.688773 
L 470.160613 551.832264 
L 470.152753 551.999698 
L 469.69922 552.148724 
L 469.479172 552.294348 
L 469.307299 552.383272 
L 468.939716 552.245049 
L 468.728558 552.271116 
L 468.331355 552.768206 
L 468.079113 552.556961 
L 467.972064 552.683599 
L 467.92739 552.992219 
L 468.182802 554.119922 
L 468.030967 555.03217 
L 467.538335 555.469786 
L 467.511875 555.435515 
L 466.831489 555.710087 
L 466.842729 556.307991 
L 467.213626 557.139219 
L 467.298951 557.71295 
L 467.102028 558.282893 
L 466.463887 558.421543 
L 466.244869 558.332458 
L 464.600302 558.130815 
L 464.233605 558.075668 
L 463.970691 557.97561 
L 463.75838 558.028604 
L 463.356972 558.449591 
L 463.194884 558.537715 
L 463.056363 558.66431 
L 462.838743 559.033608 
L 462.301716 559.414257 
L 460.877282 558.999752 
L 459.953148 559.382046 
L 459.527899 559.596771 
L 459.187979 559.559398 
L 458.718542 559.128703 
L 458.515739 558.835236 
L 457.620433 559.156472 
L 456.953401 559.301314 
L 456.715389 558.787437 
L 456.545397 558.738025 
L 455.552284 559.013247 
L 454.597417 558.772992 
L 454.014521 558.705515 
L 453.703537 558.783686 
L 453.149347 558.736594 
L 452.505313 558.975585 
L 452.437779 558.835747 
L 452.333448 558.679459 
L 452.219014 558.724124 
L 452.050729 558.768967 
L 451.820529 558.059661 
L 451.687256 558.086032 
L 451.633436 558.242205 
L 451.362391 558.387053 
L 450.329196 558.264128 
L 449.306175 558.552361 
L 449.098446 558.613415 
L 447.583852 558.19947 
L 447.144642 558.368966 
L 446.885854 558.68245 
L 446.791738 559.040888 
L 446.608908 559.034064 
L 446.452864 558.921465 
L 446.240515 558.658255 
L 446.045221 558.834024 
L 445.789401 558.994466 
L 445.00591 558.701611 
L 444.722741 558.739314 
L 444.46105 558.30123 
L 444.192134 558.112554 
L 444.086347 557.806443 
L 443.832513 557.63207 
L 443.162304 557.377934 
L 442.963473 557.644228 
L 442.814664 557.670764 
L 442.268195 557.437834 
L 442.213827 557.461655 
L 442.00309 557.372917 
L 441.767556 557.24149 
L 441.846169 557.118519 
L 441.697559 556.894032 
L 441.493899 557.017262 
L 441.480986 556.980869 
L 441.235744 556.804174 
L 441.100858 556.880908 
L 440.959734 556.67033 
L 440.737831 557.012391 
L 440.561511 556.955652 
L 440.482271 556.33903 
L 440.441333 556.288487 
L 440.110958 556.267622 
L 439.891194 555.91129 
L 439.69675 555.994359 
L 439.735732 556.112994 
L 439.708104 556.124422 
L 439.450933 556.091886 
L 439.037474 556.247405 
L 439.04113 556.186377 
L 439.07194 555.950452 
L 438.928189 555.872105 
L 438.541687 556.178792 
L 438.492612 556.546519 
L 438.655003 556.634071 
L 438.040999 557.40443 
L 437.666094 557.434119 
L 436.908614 558.060306 
L 436.755777 558.209592 
L 436.075783 558.210909 
L 435.999989 557.684623 
L 435.370444 557.588472 
L 433.667132 558.177708 
L 433.532206 557.890185 
L 433.64952 557.419723 
L 433.4752 557.210119 
L 432.668518 556.804541 
L 432.102408 555.764516 
L 431.901204 555.909665 
L 431.745496 555.852616 
L 431.595153 555.439593 
L 431.631481 555.13834 
L 431.107374 555.110131 
L 430.519234 555.395029 
L 430.093971 555.56706 
L 429.748546 555.82622 
L 429.532612 555.671043 
L 428.953383 555.494951 
L 428.738907 555.020784 
L 428.884733 554.840557 
L 428.727235 554.710958 
L 428.548512 554.766903 
L 428.288062 554.998131 
L 427.757042 555.551572 
L 427.283837 555.518424 
L 426.2347 554.905988 
L 426.025836 554.580838 
L 425.893195 554.572151 
L 425.031496 554.867158 
L 424.699767 555.030191 
L 424.056097 555.14415 
L 423.467246 554.788337 
L 422.505184 554.68552 
L 422.072611 555.126988 
L 421.178797 554.984873 
L 420.935751 554.727668 
L 420.510244 554.881409 
L 420.090524 554.961369 
L 419.943364 554.818294 
L 419.717977 554.488328 
L 419.458225 554.622168 
L 419.245375 554.854483 
L 419.052868 554.691469 
L 418.757969 554.487009 
L 417.741726 554.554673 
L 417.482968 554.470939 
L 417.357206 554.42633 
L 417.221279 554.316787 
L 416.732283 554.417441 
L 416.563598 554.483167 
L 415.987544 554.488203 
L 415.323036 554.532795 
L 414.596083 554.788781 
L 414.21254 554.737495 
L 414.065011 554.803203 
L 414.035156 555.261311 
L 414.007196 555.593031 
L 413.906257 555.563542 
L 413.5184 555.332617 
L 413.46396 555.186352 
L 412.938594 555.306512 
L 412.548999 555.722978 
L 412.38743 555.471746 
L 395.720412 527.43073 
L 421.213028 496.678807 
L 430.657783 483.130161 
L 430.657783 483.130161 
" clip-path="url(#p36367a17ef)" style="fill: none; stroke: #000000; stroke-width: 2"/>
   </g>
   <g id="matplotlib.axis_1">
    <g id="xtick_1">
     <g id="line2d_1">
      <path d="M 114.370808 704.417153 
L 114.370808 168.222847 
" clip-path="url(#p36367a17ef)" style="fill: none; stroke: #b0b0b0; stroke-width: 0.8; stroke-linecap: square"/>
     </g>
     <g id="line2d_2">
      <defs>
       <path id="mafb61091e4" d="M 0 0 
L 0 3.5 
" style="stroke: #000000; stroke-width: 0.8"/>
      </defs>
      <g>
       <use xlink:href="#mafb61091e4" x="114.370808" y="704.417153" style="stroke: #000000; stroke-width: 0.8"/>
      </g>
     </g>
     <g id="text_1">
      <!-- 51.00 -->
      <g transform="translate(103.237743 742.958535) rotate(-45) scale(0.1 -0.1)">
       <defs>
        <path id="DejaVuSans-2212" d="M 678 2272 
L 4684 2272 
L 4684 1741 
L 678 1741 
L 678 2272 
z
" transform="scale(0.015625)"/>
        <path id="DejaVuSans-35" d="M 691 4666 
L 3169 4666 
L 3169 4134 
L 1269 4134 
L 1269 2991 
Q 1406 3038 1543 3061 
Q 1681 3084 1819 3084 
Q 2600 3084 3056 2656 
Q 3513 2228 3513 1497 
Q 3513 744 3044 326 
Q 2575 -91 1722 -91 
Q 1428 -91 1123 -41 
Q 819 9 494 109 
L 494 744 
Q 775 591 1075 516 
Q 1375 441 1709 441 
Q 2250 441 2565 725 
Q 2881 1009 2881 1497 
Q 2881 1984 2565 2268 
Q 2250 2553 1709 2553 
Q 1456 2553 1204 2497 
Q 953 2441 691 2322 
L 691 4666 
z
" transform="scale(0.015625)"/>
        <path id="DejaVuSans-31" d="M 794 531 
L 1825 531 
L 1825 4091 
L 703 3866 
L 703 4441 
L 1819 4666 
L 2450 4666 
L 2450 531 
L 3481 531 
L 3481 0 
L 794 0 
L 794 531 
z
" transform="scale(0.015625)"/>
        <path id="DejaVuSans-2e" d="M 684 794 
L 1344 794 
L 1344 0 
L 684 0 
L 684 794 
z
" transform="scale(0.015625)"/>
        <path id="DejaVuSans-30" d="M 2034 4250 
Q 1547 4250 1301 3770 
Q 1056 3291 1056 2328 
Q 1056 1369 1301 889 
Q 1547 409 2034 409 
Q 2525 409 2770 889 
Q 3016 1369 3016 2328 
Q 3016 3291 2770 3770 
Q 2525 4250 2034 4250 
z
M 2034 4750 
Q 2819 4750 3233 4129 
Q 3647 3509 3647 2328 
Q 3647 1150 3233 529 
Q 2819 -91 2034 -91 
Q 1250 -91 836 529 
Q 422 1150 422 2328 
Q 422 3509 836 4129 
Q 1250 4750 2034 4750 
z
" transform="scale(0.015625)"/>
       </defs>
       <use xlink:href="#DejaVuSans-2212"/>
       <use xlink:href="#DejaVuSans-35" transform="translate(83.789062 0)"/>
       <use xlink:href="#DejaVuSans-31" transform="translate(147.412109 0)"/>
       <use xlink:href="#DejaVuSans-2e" transform="translate(211.035156 0)"/>
       <use xlink:href="#DejaVuSans-30" transform="translate(242.822266 0)"/>
       <use xlink:href="#DejaVuSans-30" transform="translate(306.445312 0)"/>
      </g>
     </g>
    </g>
    <g id="xtick_2">
     <g id="line2d_3">
      <path d="M 189.622524 704.417153 
L 189.622524 168.222847 
" clip-path="url(#p36367a17ef)" style="fill: none; stroke: #b0b0b0; stroke-width: 0.8; stroke-linecap: square"/>
     </g>
     <g id="line2d_4">
      <g>
       <use xlink:href="#mafb61091e4" x="189.622524" y="704.417153" style="stroke: #000000; stroke-width: 0.8"/>
      </g>
     </g>
     <g id="text_2">
      <!-- 50.75 -->
      <g transform="translate(178.489459 742.958535) rotate(-45) scale(0.1 -0.1)">
       <defs>
        <path id="DejaVuSans-37" d="M 525 4666 
L 3525 4666 
L 3525 4397 
L 1831 0 
L 1172 0 
L 2766 4134 
L 525 4134 
L 525 4666 
z
" transform="scale(0.015625)"/>
       </defs>
       <use xlink:href="#DejaVuSans-2212"/>
       <use xlink:href="#DejaVuSans-35" transform="translate(83.789062 0)"/>
       <use xlink:href="#DejaVuSans-30" transform="translate(147.412109 0)"/>
       <use xlink:href="#DejaVuSans-2e" transform="translate(211.035156 0)"/>
       <use xlink:href="#DejaVuSans-37" transform="translate(242.822266 0)"/>
       <use xlink:href="#DejaVuSans-35" transform="translate(306.445312 0)"/>
      </g>
     </g>
    </g>
    <g id="xtick_3">
     <g id="line2d_5">
      <path d="M 264.87424 704.417153 
L 264.87424 168.222847 
" clip-path="url(#p36367a17ef)" style="fill: none; stroke: #b0b0b0; stroke-width: 0.8; stroke-linecap: square"/>
     </g>
     <g id="line2d_6">
      <g>
       <use xlink:href="#mafb61091e4" x="264.87424" y="704.417153" style="stroke: #000000; stroke-width: 0.8"/>
      </g>
     </g>
     <g id="text_3">
      <!-- 50.50 -->
      <g transform="translate(253.741175 742.958535) rotate(-45) scale(0.1 -0.1)">
       <use xlink:href="#DejaVuSans-2212"/>
       <use xlink:href="#DejaVuSans-35" transform="translate(83.789062 0)"/>
       <use xlink:href="#DejaVuSans-30" transform="translate(147.412109 0)"/>
       <use xlink:href="#DejaVuSans-2e" transform="translate(211.035156 0)"/>
       <use xlink:href="#DejaVuSans-35" transform="translate(242.822266 0)"/>
       <use xlink:href="#DejaVuSans-30" transform="translate(306.445312 0)"/>
      </g>
     </g>
    </g>
    <g id="xtick_4">
     <g id="line2d_7">
      <path d="M 340.125956 704.417153 
L 340.125956 168.222847 
" clip-path="url(#p36367a17ef)" style="fill: none; stroke: #b0b0b0; stroke-width: 0.8; stroke-linecap: square"/>
     </g>
     <g id="line2d_8">
      <g>
       <use xlink:href="#mafb61091e4" x="340.125956" y="704.417153" style="stroke: #000000; stroke-width: 0.8"/>
      </g>
     </g>
     <g id="text_4">
      <!-- 50.25 -->
      <g transform="translate(328.992891 742.958535) rotate(-45) scale(0.1 -0.1)">
       <defs>
        <path id="DejaVuSans-32" d="M 1228 531 
L 3431 531 
L 3431 0 
L 469 0 
L 469 531 
Q 828 903 1448 1529 
Q 2069 2156 2228 2338 
Q 2531 2678 2651 2914 
Q 2772 3150 2772 3378 
Q 2772 3750 2511 3984 
Q 2250 4219 1831 4219 
Q 1534 4219 1204 4116 
Q 875 4013 500 3803 
L 500 4441 
Q 881 4594 1212 4672 
Q 1544 4750 1819 4750 
Q 2544 4750 2975 4387 
Q 3406 4025 3406 3419 
Q 3406 3131 3298 2873 
Q 3191 2616 2906 2266 
Q 2828 2175 2409 1742 
Q 1991 1309 1228 531 
z
" transform="scale(0.015625)"/>
       </defs>
       <use xlink:href="#DejaVuSans-2212"/>
       <use xlink:href="#DejaVuSans-35" transform="translate(83.789062 0)"/>
       <use xlink:href="#DejaVuSans-30" transform="translate(147.412109 0)"/>
       <use xlink:href="#DejaVuSans-2e" transform="translate(211.035156 0)"/>
       <use xlink:href="#DejaVuSans-32" transform="translate(242.822266 0)"/>
       <use xlink:href="#DejaVuSans-35" transform="translate(306.445312 0)"/>
      </g>
     </g>
    </g>
    <g id="xtick_5">
     <g id="line2d_9">
      <path d="M 415.377672 704.417153 
L 415.377672 168.222847 
" clip-path="url(#p36367a17ef)" style="fill: none; stroke: #b0b0b0; stroke-width: 0.8; stroke-linecap: square"/>
     </g>
     <g id="line2d_10">
      <g>
       <use xlink:href="#mafb61091e4" x="415.377672" y="704.417153" style="stroke: #000000; stroke-width: 0.8"/>
      </g>
     </g>
     <g id="text_5">
      <!-- 50.00 -->
      <g transform="translate(404.244607 742.958535) rotate(-45) scale(0.1 -0.1)">
       <use xlink:href="#DejaVuSans-2212"/>
       <use xlink:href="#DejaVuSans-35" transform="translate(83.789062 0)"/>
       <use xlink:href="#DejaVuSans-30" transform="translate(147.412109 0)"/>
       <use xlink:href="#DejaVuSans-2e" transform="translate(211.035156 0)"/>
       <use xlink:href="#DejaVuSans-30" transform="translate(242.822266 0)"/>
       <use xlink:href="#DejaVuSans-30" transform="translate(306.445312 0)"/>
      </g>
     </g>
    </g>
    <g id="xtick_6">
     <g id="line2d_11">
      <path d="M 490.629388 704.417153 
L 490.629388 168.222847 
" clip-path="url(#p36367a17ef)" style="fill: none; stroke: #b0b0b0; stroke-width: 0.8; stroke-linecap: square"/>
     </g>
     <g id="line2d_12">
      <g>
       <use xlink:href="#mafb61091e4" x="490.629388" y="704.417153" style="stroke: #000000; stroke-width: 0.8"/>
      </g>
     </g>
     <g id="text_6">
      <!-- 49.75 -->
      <g transform="translate(479.496323 742.958535) rotate(-45) scale(0.1 -0.1)">
       <defs>
        <path id="DejaVuSans-34" d="M 2419 4116 
L 825 1625 
L 2419 1625 
L 2419 4116 
z
M 2253 4666 
L 3047 4666 
L 3047 1625 
L 3713 1625 
L 3713 1100 
L 3047 1100 
L 3047 0 
L 2419 0 
L 2419 1100 
L 313 1100 
L 313 1709 
L 2253 4666 
z
" transform="scale(0.015625)"/>
        <path id="DejaVuSans-39" d="M 703 97 
L 703 672 
Q 941 559 1184 500 
Q 1428 441 1663 441 
Q 2288 441 2617 861 
Q 2947 1281 2994 2138 
Q 2813 1869 2534 1725 
Q 2256 1581 1919 1581 
Q 1219 1581 811 2004 
Q 403 2428 403 3163 
Q 403 3881 828 4315 
Q 1253 4750 1959 4750 
Q 2769 4750 3195 4129 
Q 3622 3509 3622 2328 
Q 3622 1225 3098 567 
Q 2575 -91 1691 -91 
Q 1453 -91 1209 -44 
Q 966 3 703 97 
z
M 1959 2075 
Q 2384 2075 2632 2365 
Q 2881 2656 2881 3163 
Q 2881 3666 2632 3958 
Q 2384 4250 1959 4250 
Q 1534 4250 1286 3958 
Q 1038 3666 1038 3163 
Q 1038 2656 1286 2365 
Q 1534 2075 1959 2075 
z
" transform="scale(0.015625)"/>
       </defs>
       <use xlink:href="#DejaVuSans-2212"/>
       <use xlink:href="#DejaVuSans-34" transform="translate(83.789062 0)"/>
       <use xlink:href="#DejaVuSans-39" transform="translate(147.412109 0)"/>
       <use xlink:href="#DejaVuSans-2e" transform="translate(211.035156 0)"/>
       <use xlink:href="#DejaVuSans-37" transform="translate(242.822266 0)"/>
       <use xlink:href="#DejaVuSans-35" transform="translate(306.445312 0)"/>
      </g>
     </g>
    </g>
    <g id="xtick_7">
     <g id="line2d_13">
      <path d="M 565.881104 704.417153 
L 565.881104 168.222847 
" clip-path="url(#p36367a17ef)" style="fill: none; stroke: #b0b0b0; stroke-width: 0.8; stroke-linecap: square"/>
     </g>
     <g id="line2d_14">
      <g>
       <use xlink:href="#mafb61091e4" x="565.881104" y="704.417153" style="stroke: #000000; stroke-width: 0.8"/>
      </g>
     </g>
     <g id="text_7">
      <!-- 49.50 -->
      <g transform="translate(554.748039 742.958535) rotate(-45) scale(0.1 -0.1)">
       <use xlink:href="#DejaVuSans-2212"/>
       <use xlink:href="#DejaVuSans-34" transform="translate(83.789062 0)"/>
       <use xlink:href="#DejaVuSans-39" transform="translate(147.412109 0)"/>
       <use xlink:href="#DejaVuSans-2e" transform="translate(211.035156 0)"/>
       <use xlink:href="#DejaVuSans-35" transform="translate(242.822266 0)"/>
       <use xlink:href="#DejaVuSans-30" transform="translate(306.445312 0)"/>
      </g>
     </g>
    </g>
    <g id="xtick_8">
     <g id="line2d_15">
      <path d="M 641.13282 704.417153 
L 641.13282 168.222847 
" clip-path="url(#p36367a17ef)" style="fill: none; stroke: #b0b0b0; stroke-width: 0.8; stroke-linecap: square"/>
     </g>
     <g id="line2d_16">
      <g>
       <use xlink:href="#mafb61091e4" x="641.13282" y="704.417153" style="stroke: #000000; stroke-width: 0.8"/>
      </g>
     </g>
     <g id="text_8">
      <!-- 49.25 -->
      <g transform="translate(629.999755 742.958535) rotate(-45) scale(0.1 -0.1)">
       <use xlink:href="#DejaVuSans-2212"/>
       <use xlink:href="#DejaVuSans-34" transform="translate(83.789062 0)"/>
       <use xlink:href="#DejaVuSans-39" transform="translate(147.412109 0)"/>
       <use xlink:href="#DejaVuSans-2e" transform="translate(211.035156 0)"/>
       <use xlink:href="#DejaVuSans-32" transform="translate(242.822266 0)"/>
       <use xlink:href="#DejaVuSans-35" transform="translate(306.445312 0)"/>
      </g>
     </g>
    </g>
    <g id="text_9">
     <!-- Longitude () -->
     <g transform="translate(336.139844 756.027534) scale(0.1 -0.1)">
      <defs>
       <path id="DejaVuSans-4c" d="M 628 4666 
L 1259 4666 
L 1259 531 
L 3531 531 
L 3531 0 
L 628 0 
L 628 4666 
z
" transform="scale(0.015625)"/>
       <path id="DejaVuSans-6f" d="M 1959 3097 
Q 1497 3097 1228 2736 
Q 959 2375 959 1747 
Q 959 1119 1226 758 
Q 1494 397 1959 397 
Q 2419 397 2687 759 
Q 2956 1122 2956 1747 
Q 2956 2369 2687 2733 
Q 2419 3097 1959 3097 
z
M 1959 3584 
Q 2709 3584 3137 3096 
Q 3566 2609 3566 1747 
Q 3566 888 3137 398 
Q 2709 -91 1959 -91 
Q 1206 -91 779 398 
Q 353 888 353 1747 
Q 353 2609 779 3096 
Q 1206 3584 1959 3584 
z
" transform="scale(0.015625)"/>
       <path id="DejaVuSans-6e" d="M 3513 2113 
L 3513 0 
L 2938 0 
L 2938 2094 
Q 2938 2591 2744 2837 
Q 2550 3084 2163 3084 
Q 1697 3084 1428 2787 
Q 1159 2491 1159 1978 
L 1159 0 
L 581 0 
L 581 3500 
L 1159 3500 
L 1159 2956 
Q 1366 3272 1645 3428 
Q 1925 3584 2291 3584 
Q 2894 3584 3203 3211 
Q 3513 2838 3513 2113 
z
" transform="scale(0.015625)"/>
       <path id="DejaVuSans-67" d="M 2906 1791 
Q 2906 2416 2648 2759 
Q 2391 3103 1925 3103 
Q 1463 3103 1205 2759 
Q 947 2416 947 1791 
Q 947 1169 1205 825 
Q 1463 481 1925 481 
Q 2391 481 2648 825 
Q 2906 1169 2906 1791 
z
M 3481 434 
Q 3481 -459 3084 -895 
Q 2688 -1331 1869 -1331 
Q 1566 -1331 1297 -1286 
Q 1028 -1241 775 -1147 
L 775 -588 
Q 1028 -725 1275 -790 
Q 1522 -856 1778 -856 
Q 2344 -856 2625 -561 
Q 2906 -266 2906 331 
L 2906 616 
Q 2728 306 2450 153 
Q 2172 0 1784 0 
Q 1141 0 747 490 
Q 353 981 353 1791 
Q 353 2603 747 3093 
Q 1141 3584 1784 3584 
Q 2172 3584 2450 3431 
Q 2728 3278 2906 2969 
L 2906 3500 
L 3481 3500 
L 3481 434 
z
" transform="scale(0.015625)"/>
       <path id="DejaVuSans-69" d="M 603 3500 
L 1178 3500 
L 1178 0 
L 603 0 
L 603 3500 
z
M 603 4863 
L 1178 4863 
L 1178 4134 
L 603 4134 
L 603 4863 
z
" transform="scale(0.015625)"/>
       <path id="DejaVuSans-74" d="M 1172 4494 
L 1172 3500 
L 2356 3500 
L 2356 3053 
L 1172 3053 
L 1172 1153 
Q 1172 725 1289 603 
Q 1406 481 1766 481 
L 2356 481 
L 2356 0 
L 1766 0 
Q 1100 0 847 248 
Q 594 497 594 1153 
L 594 3053 
L 172 3053 
L 172 3500 
L 594 3500 
L 594 4494 
L 1172 4494 
z
" transform="scale(0.015625)"/>
       <path id="DejaVuSans-75" d="M 544 1381 
L 544 3500 
L 1119 3500 
L 1119 1403 
Q 1119 906 1312 657 
Q 1506 409 1894 409 
Q 2359 409 2629 706 
Q 2900 1003 2900 1516 
L 2900 3500 
L 3475 3500 
L 3475 0 
L 2900 0 
L 2900 538 
Q 2691 219 2414 64 
Q 2138 -91 1772 -91 
Q 1169 -91 856 284 
Q 544 659 544 1381 
z
M 1991 3584 
L 1991 3584 
z
" transform="scale(0.015625)"/>
       <path id="DejaVuSans-64" d="M 2906 2969 
L 2906 4863 
L 3481 4863 
L 3481 0 
L 2906 0 
L 2906 525 
Q 2725 213 2448 61 
Q 2172 -91 1784 -91 
Q 1150 -91 751 415 
Q 353 922 353 1747 
Q 353 2572 751 3078 
Q 1150 3584 1784 3584 
Q 2172 3584 2448 3432 
Q 2725 3281 2906 2969 
z
M 947 1747 
Q 947 1113 1208 752 
Q 1469 391 1925 391 
Q 2381 391 2643 752 
Q 2906 1113 2906 1747 
Q 2906 2381 2643 2742 
Q 2381 3103 1925 3103 
Q 1469 3103 1208 2742 
Q 947 2381 947 1747 
z
" transform="scale(0.015625)"/>
       <path id="DejaVuSans-65" d="M 3597 1894 
L 3597 1613 
L 953 1613 
Q 991 1019 1311 708 
Q 1631 397 2203 397 
Q 2534 397 2845 478 
Q 3156 559 3463 722 
L 3463 178 
Q 3153 47 2828 -22 
Q 2503 -91 2169 -91 
Q 1331 -91 842 396 
Q 353 884 353 1716 
Q 353 2575 817 3079 
Q 1281 3584 2069 3584 
Q 2775 3584 3186 3129 
Q 3597 2675 3597 1894 
z
M 3022 2063 
Q 3016 2534 2758 2815 
Q 2500 3097 2075 3097 
Q 1594 3097 1305 2825 
Q 1016 2553 972 2059 
L 3022 2063 
z
" transform="scale(0.015625)"/>
       <path id="DejaVuSans-20" transform="scale(0.015625)"/>
       <path id="DejaVuSans-28" d="M 1984 4856 
Q 1566 4138 1362 3434 
Q 1159 2731 1159 2009 
Q 1159 1288 1364 580 
Q 1569 -128 1984 -844 
L 1484 -844 
Q 1016 -109 783 600 
Q 550 1309 550 2009 
Q 550 2706 781 3412 
Q 1013 4119 1484 4856 
L 1984 4856 
z
" transform="scale(0.015625)"/>
       <path id="DejaVuSans-b0" d="M 1600 4347 
Q 1350 4347 1178 4173 
Q 1006 4000 1006 3750 
Q 1006 3503 1178 3333 
Q 1350 3163 1600 3163 
Q 1850 3163 2022 3333 
Q 2194 3503 2194 3750 
Q 2194 3997 2020 4172 
Q 1847 4347 1600 4347 
z
M 1600 4750 
Q 1800 4750 1984 4673 
Q 2169 4597 2303 4453 
Q 2447 4313 2519 4134 
Q 2591 3956 2591 3750 
Q 2591 3338 2302 3052 
Q 2013 2766 1594 2766 
Q 1172 2766 890 3047 
Q 609 3328 609 3750 
Q 609 4169 896 4459 
Q 1184 4750 1600 4750 
z
" transform="scale(0.015625)"/>
       <path id="DejaVuSans-29" d="M 513 4856 
L 1013 4856 
Q 1481 4119 1714 3412 
Q 1947 2706 1947 2009 
Q 1947 1309 1714 600 
Q 1481 -109 1013 -844 
L 513 -844 
Q 928 -128 1133 580 
Q 1338 1288 1338 2009 
Q 1338 2731 1133 3434 
Q 928 4138 513 4856 
z
" transform="scale(0.015625)"/>
      </defs>
      <use xlink:href="#DejaVuSans-4c"/>
      <use xlink:href="#DejaVuSans-6f" transform="translate(53.962891 0)"/>
      <use xlink:href="#DejaVuSans-6e" transform="translate(115.144531 0)"/>
      <use xlink:href="#DejaVuSans-67" transform="translate(178.523438 0)"/>
      <use xlink:href="#DejaVuSans-69" transform="translate(242 0)"/>
      <use xlink:href="#DejaVuSans-74" transform="translate(269.783203 0)"/>
      <use xlink:href="#DejaVuSans-75" transform="translate(308.992188 0)"/>
      <use xlink:href="#DejaVuSans-64" transform="translate(372.371094 0)"/>
      <use xlink:href="#DejaVuSans-65" transform="translate(435.847656 0)"/>
      <use xlink:href="#DejaVuSans-20" transform="translate(497.371094 0)"/>
      <use xlink:href="#DejaVuSans-28" transform="translate(529.158203 0)"/>
      <use xlink:href="#DejaVuSans-b0" transform="translate(568.171875 0)"/>
      <use xlink:href="#DejaVuSans-29" transform="translate(618.171875 0)"/>
     </g>
    </g>
   </g>
   <g id="matplotlib.axis_2">
    <g id="ytick_1">
     <g id="line2d_17">
      <path d="M 90 659.814696 
L 648 659.814696 
" clip-path="url(#p36367a17ef)" style="fill: none; stroke: #b0b0b0; stroke-width: 0.8; stroke-linecap: square"/>
     </g>
     <g id="line2d_18">
      <defs>
       <path id="m665d054d14" d="M 0 0 
L -3.5 0 
" style="stroke: #000000; stroke-width: 0.8"/>
      </defs>
      <g>
       <use xlink:href="#m665d054d14" x="90" y="659.814696" style="stroke: #000000; stroke-width: 0.8"/>
      </g>
     </g>
     <g id="text_10">
      <!-- 5.4 -->
      <g transform="translate(58.717187 663.613915) scale(0.1 -0.1)">
       <use xlink:href="#DejaVuSans-2212"/>
       <use xlink:href="#DejaVuSans-35" transform="translate(83.789062 0)"/>
       <use xlink:href="#DejaVuSans-2e" transform="translate(147.412109 0)"/>
       <use xlink:href="#DejaVuSans-34" transform="translate(179.199219 0)"/>
      </g>
     </g>
    </g>
    <g id="ytick_2">
     <g id="line2d_19">
      <path d="M 90 599.389242 
L 648 599.389242 
" clip-path="url(#p36367a17ef)" style="fill: none; stroke: #b0b0b0; stroke-width: 0.8; stroke-linecap: square"/>
     </g>
     <g id="line2d_20">
      <g>
       <use xlink:href="#m665d054d14" x="90" y="599.389242" style="stroke: #000000; stroke-width: 0.8"/>
      </g>
     </g>
     <g id="text_11">
      <!-- 5.2 -->
      <g transform="translate(58.717187 603.188461) scale(0.1 -0.1)">
       <use xlink:href="#DejaVuSans-2212"/>
       <use xlink:href="#DejaVuSans-35" transform="translate(83.789062 0)"/>
       <use xlink:href="#DejaVuSans-2e" transform="translate(147.412109 0)"/>
       <use xlink:href="#DejaVuSans-32" transform="translate(179.199219 0)"/>
      </g>
     </g>
    </g>
    <g id="ytick_3">
     <g id="line2d_21">
      <path d="M 90 538.963787 
L 648 538.963787 
" clip-path="url(#p36367a17ef)" style="fill: none; stroke: #b0b0b0; stroke-width: 0.8; stroke-linecap: square"/>
     </g>
     <g id="line2d_22">
      <g>
       <use xlink:href="#m665d054d14" x="90" y="538.963787" style="stroke: #000000; stroke-width: 0.8"/>
      </g>
     </g>
     <g id="text_12">
      <!-- 5.0 -->
      <g transform="translate(58.717187 542.763006) scale(0.1 -0.1)">
       <use xlink:href="#DejaVuSans-2212"/>
       <use xlink:href="#DejaVuSans-35" transform="translate(83.789062 0)"/>
       <use xlink:href="#DejaVuSans-2e" transform="translate(147.412109 0)"/>
       <use xlink:href="#DejaVuSans-30" transform="translate(179.199219 0)"/>
      </g>
     </g>
    </g>
    <g id="ytick_4">
     <g id="line2d_23">
      <path d="M 90 478.538333 
L 648 478.538333 
" clip-path="url(#p36367a17ef)" style="fill: none; stroke: #b0b0b0; stroke-width: 0.8; stroke-linecap: square"/>
     </g>
     <g id="line2d_24">
      <g>
       <use xlink:href="#m665d054d14" x="90" y="478.538333" style="stroke: #000000; stroke-width: 0.8"/>
      </g>
     </g>
     <g id="text_13">
      <!-- 4.8 -->
      <g transform="translate(58.717187 482.337552) scale(0.1 -0.1)">
       <defs>
        <path id="DejaVuSans-38" d="M 2034 2216 
Q 1584 2216 1326 1975 
Q 1069 1734 1069 1313 
Q 1069 891 1326 650 
Q 1584 409 2034 409 
Q 2484 409 2743 651 
Q 3003 894 3003 1313 
Q 3003 1734 2745 1975 
Q 2488 2216 2034 2216 
z
M 1403 2484 
Q 997 2584 770 2862 
Q 544 3141 544 3541 
Q 544 4100 942 4425 
Q 1341 4750 2034 4750 
Q 2731 4750 3128 4425 
Q 3525 4100 3525 3541 
Q 3525 3141 3298 2862 
Q 3072 2584 2669 2484 
Q 3125 2378 3379 2068 
Q 3634 1759 3634 1313 
Q 3634 634 3220 271 
Q 2806 -91 2034 -91 
Q 1263 -91 848 271 
Q 434 634 434 1313 
Q 434 1759 690 2068 
Q 947 2378 1403 2484 
z
M 1172 3481 
Q 1172 3119 1398 2916 
Q 1625 2713 2034 2713 
Q 2441 2713 2670 2916 
Q 2900 3119 2900 3481 
Q 2900 3844 2670 4047 
Q 2441 4250 2034 4250 
Q 1625 4250 1398 4047 
Q 1172 3844 1172 3481 
z
" transform="scale(0.015625)"/>
       </defs>
       <use xlink:href="#DejaVuSans-2212"/>
       <use xlink:href="#DejaVuSans-34" transform="translate(83.789062 0)"/>
       <use xlink:href="#DejaVuSans-2e" transform="translate(147.412109 0)"/>
       <use xlink:href="#DejaVuSans-38" transform="translate(179.199219 0)"/>
      </g>
     </g>
    </g>
    <g id="ytick_5">
     <g id="line2d_25">
      <path d="M 90 418.112879 
L 648 418.112879 
" clip-path="url(#p36367a17ef)" style="fill: none; stroke: #b0b0b0; stroke-width: 0.8; stroke-linecap: square"/>
     </g>
     <g id="line2d_26">
      <g>
       <use xlink:href="#m665d054d14" x="90" y="418.112879" style="stroke: #000000; stroke-width: 0.8"/>
      </g>
     </g>
     <g id="text_14">
      <!-- 4.6 -->
      <g transform="translate(58.717187 421.912097) scale(0.1 -0.1)">
       <defs>
        <path id="DejaVuSans-36" d="M 2113 2584 
Q 1688 2584 1439 2293 
Q 1191 2003 1191 1497 
Q 1191 994 1439 701 
Q 1688 409 2113 409 
Q 2538 409 2786 701 
Q 3034 994 3034 1497 
Q 3034 2003 2786 2293 
Q 2538 2584 2113 2584 
z
M 3366 4563 
L 3366 3988 
Q 3128 4100 2886 4159 
Q 2644 4219 2406 4219 
Q 1781 4219 1451 3797 
Q 1122 3375 1075 2522 
Q 1259 2794 1537 2939 
Q 1816 3084 2150 3084 
Q 2853 3084 3261 2657 
Q 3669 2231 3669 1497 
Q 3669 778 3244 343 
Q 2819 -91 2113 -91 
Q 1303 -91 875 529 
Q 447 1150 447 2328 
Q 447 3434 972 4092 
Q 1497 4750 2381 4750 
Q 2619 4750 2861 4703 
Q 3103 4656 3366 4563 
z
" transform="scale(0.015625)"/>
       </defs>
       <use xlink:href="#DejaVuSans-2212"/>
       <use xlink:href="#DejaVuSans-34" transform="translate(83.789062 0)"/>
       <use xlink:href="#DejaVuSans-2e" transform="translate(147.412109 0)"/>
       <use xlink:href="#DejaVuSans-36" transform="translate(179.199219 0)"/>
      </g>
     </g>
    </g>
    <g id="ytick_6">
     <g id="line2d_27">
      <path d="M 90 357.687424 
L 648 357.687424 
" clip-path="url(#p36367a17ef)" style="fill: none; stroke: #b0b0b0; stroke-width: 0.8; stroke-linecap: square"/>
     </g>
     <g id="line2d_28">
      <g>
       <use xlink:href="#m665d054d14" x="90" y="357.687424" style="stroke: #000000; stroke-width: 0.8"/>
      </g>
     </g>
     <g id="text_15">
      <!-- 4.4 -->
      <g transform="translate(58.717187 361.486643) scale(0.1 -0.1)">
       <use xlink:href="#DejaVuSans-2212"/>
       <use xlink:href="#DejaVuSans-34" transform="translate(83.789062 0)"/>
       <use xlink:href="#DejaVuSans-2e" transform="translate(147.412109 0)"/>
       <use xlink:href="#DejaVuSans-34" transform="translate(179.199219 0)"/>
      </g>
     </g>
    </g>
    <g id="ytick_7">
     <g id="line2d_29">
      <path d="M 90 297.26197 
L 648 297.26197 
" clip-path="url(#p36367a17ef)" style="fill: none; stroke: #b0b0b0; stroke-width: 0.8; stroke-linecap: square"/>
     </g>
     <g id="line2d_30">
      <g>
       <use xlink:href="#m665d054d14" x="90" y="297.26197" style="stroke: #000000; stroke-width: 0.8"/>
      </g>
     </g>
     <g id="text_16">
      <!-- 4.2 -->
      <g transform="translate(58.717187 301.061188) scale(0.1 -0.1)">
       <use xlink:href="#DejaVuSans-2212"/>
       <use xlink:href="#DejaVuSans-34" transform="translate(83.789062 0)"/>
       <use xlink:href="#DejaVuSans-2e" transform="translate(147.412109 0)"/>
       <use xlink:href="#DejaVuSans-32" transform="translate(179.199219 0)"/>
      </g>
     </g>
    </g>
    <g id="ytick_8">
     <g id="line2d_31">
      <path d="M 90 236.836515 
L 648 236.836515 
" clip-path="url(#p36367a17ef)" style="fill: none; stroke: #b0b0b0; stroke-width: 0.8; stroke-linecap: square"/>
     </g>
     <g id="line2d_32">
      <g>
       <use xlink:href="#m665d054d14" x="90" y="236.836515" style="stroke: #000000; stroke-width: 0.8"/>
      </g>
     </g>
     <g id="text_17">
      <!-- 4.0 -->
      <g transform="translate(58.717187 240.635734) scale(0.1 -0.1)">
       <use xlink:href="#DejaVuSans-2212"/>
       <use xlink:href="#DejaVuSans-34" transform="translate(83.789062 0)"/>
       <use xlink:href="#DejaVuSans-2e" transform="translate(147.412109 0)"/>
       <use xlink:href="#DejaVuSans-30" transform="translate(179.199219 0)"/>
      </g>
     </g>
    </g>
    <g id="ytick_9">
     <g id="line2d_33">
      <path d="M 90 176.411061 
L 648 176.411061 
" clip-path="url(#p36367a17ef)" style="fill: none; stroke: #b0b0b0; stroke-width: 0.8; stroke-linecap: square"/>
     </g>
     <g id="line2d_34">
      <g>
       <use xlink:href="#m665d054d14" x="90" y="176.411061" style="stroke: #000000; stroke-width: 0.8"/>
      </g>
     </g>
     <g id="text_18">
      <!-- 3.8 -->
      <g transform="translate(58.717187 180.21028) scale(0.1 -0.1)">
       <defs>
        <path id="DejaVuSans-33" d="M 2597 2516 
Q 3050 2419 3304 2112 
Q 3559 1806 3559 1356 
Q 3559 666 3084 287 
Q 2609 -91 1734 -91 
Q 1441 -91 1130 -33 
Q 819 25 488 141 
L 488 750 
Q 750 597 1062 519 
Q 1375 441 1716 441 
Q 2309 441 2620 675 
Q 2931 909 2931 1356 
Q 2931 1769 2642 2001 
Q 2353 2234 1838 2234 
L 1294 2234 
L 1294 2753 
L 1863 2753 
Q 2328 2753 2575 2939 
Q 2822 3125 2822 3475 
Q 2822 3834 2567 4026 
Q 2313 4219 1838 4219 
Q 1578 4219 1281 4162 
Q 984 4106 628 3988 
L 628 4550 
Q 988 4650 1302 4700 
Q 1616 4750 1894 4750 
Q 2613 4750 3031 4423 
Q 3450 4097 3450 3541 
Q 3450 3153 3228 2886 
Q 3006 2619 2597 2516 
z
" transform="scale(0.015625)"/>
       </defs>
       <use xlink:href="#DejaVuSans-2212"/>
       <use xlink:href="#DejaVuSans-33" transform="translate(83.789062 0)"/>
       <use xlink:href="#DejaVuSans-2e" transform="translate(147.412109 0)"/>
       <use xlink:href="#DejaVuSans-38" transform="translate(179.199219 0)"/>
      </g>
     </g>
    </g>
    <g id="text_19">
     <!-- Latitude () -->
     <g transform="translate(52.6375 464.889531) rotate(-90) scale(0.1 -0.1)">
      <defs>
       <path id="DejaVuSans-61" d="M 2194 1759 
Q 1497 1759 1228 1600 
Q 959 1441 959 1056 
Q 959 750 1161 570 
Q 1363 391 1709 391 
Q 2188 391 2477 730 
Q 2766 1069 2766 1631 
L 2766 1759 
L 2194 1759 
z
M 3341 1997 
L 3341 0 
L 2766 0 
L 2766 531 
Q 2569 213 2275 61 
Q 1981 -91 1556 -91 
Q 1019 -91 701 211 
Q 384 513 384 1019 
Q 384 1609 779 1909 
Q 1175 2209 1959 2209 
L 2766 2209 
L 2766 2266 
Q 2766 2663 2505 2880 
Q 2244 3097 1772 3097 
Q 1472 3097 1187 3025 
Q 903 2953 641 2809 
L 641 3341 
Q 956 3463 1253 3523 
Q 1550 3584 1831 3584 
Q 2591 3584 2966 3190 
Q 3341 2797 3341 1997 
z
" transform="scale(0.015625)"/>
      </defs>
      <use xlink:href="#DejaVuSans-4c"/>
      <use xlink:href="#DejaVuSans-61" transform="translate(55.712891 0)"/>
      <use xlink:href="#DejaVuSans-74" transform="translate(116.992188 0)"/>
      <use xlink:href="#DejaVuSans-69" transform="translate(156.201172 0)"/>
      <use xlink:href="#DejaVuSans-74" transform="translate(183.984375 0)"/>
      <use xlink:href="#DejaVuSans-75" transform="translate(223.193359 0)"/>
      <use xlink:href="#DejaVuSans-64" transform="translate(286.572266 0)"/>
      <use xlink:href="#DejaVuSans-65" transform="translate(350.048828 0)"/>
      <use xlink:href="#DejaVuSans-20" transform="translate(411.572266 0)"/>
      <use xlink:href="#DejaVuSans-28" transform="translate(443.359375 0)"/>
      <use xlink:href="#DejaVuSans-b0" transform="translate(482.373047 0)"/>
      <use xlink:href="#DejaVuSans-29" transform="translate(532.373047 0)"/>
     </g>
    </g>
   </g>
   <g id="patch_3">
    <path d="M 90 704.417153 
L 90 168.222847 
" style="fill: none; stroke: #000000; stroke-width: 0.8; stroke-linejoin: miter; stroke-linecap: square"/>
   </g>
   <g id="patch_4">
    <path d="M 648 704.417153 
L 648 168.222847 
" style="fill: none; stroke: #000000; stroke-width: 0.8; stroke-linejoin: miter; stroke-linecap: square"/>
   </g>
   <g id="patch_5">
    <path d="M 90 704.417153 
L 648 704.417153 
" style="fill: none; stroke: #000000; stroke-width: 0.8; stroke-linejoin: miter; stroke-linecap: square"/>
   </g>
   <g id="patch_6">
    <path d="M 90 168.222847 
L 648 168.222847 
" style="fill: none; stroke: #000000; stroke-width: 0.8; stroke-linejoin: miter; stroke-linecap: square"/>
   </g>
   <g id="legend_1">
    <g id="patch_7">
     <path d="M 254.794531 807.524424 
L 483.205469 807.524424 
Q 485.205469 807.524424 485.205469 805.524424 
L 485.205469 791.846299 
Q 485.205469 789.846299 483.205469 789.846299 
L 254.794531 789.846299 
Q 252.794531 789.846299 252.794531 791.846299 
L 252.794531 805.524424 
Q 252.794531 807.524424 254.794531 807.524424 
z
" style="fill: #ffffff; opacity: 0.8; stroke: #cccccc; stroke-linejoin: miter"/>
    </g>
    <g id="line2d_35">
     <defs>
      <path id="md505fb8994" d="M 0 5 
C 1.326016 5 2.597899 4.473168 3.535534 3.535534 
C 4.473168 2.597899 5 1.326016 5 0 
C 5 -1.326016 4.473168 -2.597899 3.535534 -3.535534 
C 2.597899 -4.473168 1.326016 -5 0 -5 
C -1.326016 -5 -2.597899 -4.473168 -3.535534 -3.535534 
C -4.473168 -2.597899 -5 -1.326016 -5 0 
C -5 1.326016 -4.473168 2.597899 -3.535534 3.535534 
C -2.597899 4.473168 -1.326016 5 0 5 
z
"/>
     </defs>
     <g>
      <use xlink:href="#md505fb8994" x="266.794531" y="797.944737" style="fill: #b3e2cd; fill-opacity: 0.65"/>
     </g>
    </g>
    <g id="text_20">
     <!-- Itupiranga -->
     <g transform="translate(284.794531 801.444737) scale(0.1 -0.1)">
      <defs>
       <path id="DejaVuSans-49" d="M 628 4666 
L 1259 4666 
L 1259 0 
L 628 0 
L 628 4666 
z
" transform="scale(0.015625)"/>
       <path id="DejaVuSans-70" d="M 1159 525 
L 1159 -1331 
L 581 -1331 
L 581 3500 
L 1159 3500 
L 1159 2969 
Q 1341 3281 1617 3432 
Q 1894 3584 2278 3584 
Q 2916 3584 3314 3078 
Q 3713 2572 3713 1747 
Q 3713 922 3314 415 
Q 2916 -91 2278 -91 
Q 1894 -91 1617 61 
Q 1341 213 1159 525 
z
M 3116 1747 
Q 3116 2381 2855 2742 
Q 2594 3103 2138 3103 
Q 1681 3103 1420 2742 
Q 1159 2381 1159 1747 
Q 1159 1113 1420 752 
Q 1681 391 2138 391 
Q 2594 391 2855 752 
Q 3116 1113 3116 1747 
z
" transform="scale(0.015625)"/>
       <path id="DejaVuSans-72" d="M 2631 2963 
Q 2534 3019 2420 3045 
Q 2306 3072 2169 3072 
Q 1681 3072 1420 2755 
Q 1159 2438 1159 1844 
L 1159 0 
L 581 0 
L 581 3500 
L 1159 3500 
L 1159 2956 
Q 1341 3275 1631 3429 
Q 1922 3584 2338 3584 
Q 2397 3584 2469 3576 
Q 2541 3569 2628 3553 
L 2631 2963 
z
" transform="scale(0.015625)"/>
      </defs>
      <use xlink:href="#DejaVuSans-49"/>
      <use xlink:href="#DejaVuSans-74" transform="translate(29.492188 0)"/>
      <use xlink:href="#DejaVuSans-75" transform="translate(68.701172 0)"/>
      <use xlink:href="#DejaVuSans-70" transform="translate(132.080078 0)"/>
      <use xlink:href="#DejaVuSans-69" transform="translate(195.556641 0)"/>
      <use xlink:href="#DejaVuSans-72" transform="translate(223.339844 0)"/>
      <use xlink:href="#DejaVuSans-61" transform="translate(264.453125 0)"/>
      <use xlink:href="#DejaVuSans-6e" transform="translate(325.732422 0)"/>
      <use xlink:href="#DejaVuSans-67" transform="translate(389.111328 0)"/>
      <use xlink:href="#DejaVuSans-61" transform="translate(452.587891 0)"/>
     </g>
    </g>
    <g id="line2d_36">
     <defs>
      <path id="m29dcbfd7b2" d="M 0 5 
C 1.326016 5 2.597899 4.473168 3.535534 3.535534 
C 4.473168 2.597899 5 1.326016 5 0 
C 5 -1.326016 4.473168 -2.597899 3.535534 -3.535534 
C 2.597899 -4.473168 1.326016 -5 0 -5 
C -1.326016 -5 -2.597899 -4.473168 -3.535534 -3.535534 
C -4.473168 -2.597899 -5 -1.326016 -5 0 
C -5 1.326016 -4.473168 2.597899 -3.535534 3.535534 
C -2.597899 4.473168 -1.326016 5 0 5 
z
"/>
     </defs>
     <g>
      <use xlink:href="#m29dcbfd7b2" x="366.182031" y="797.944737" style="fill: #cccccc; fill-opacity: 0.65"/>
     </g>
    </g>
    <g id="text_21">
     <!-- Novo Repartimento -->
     <g transform="translate(384.182031 801.444737) scale(0.1 -0.1)">
      <defs>
       <path id="DejaVuSans-4e" d="M 628 4666 
L 1478 4666 
L 3547 763 
L 3547 4666 
L 4159 4666 
L 4159 0 
L 3309 0 
L 1241 3903 
L 1241 0 
L 628 0 
L 628 4666 
z
" transform="scale(0.015625)"/>
       <path id="DejaVuSans-76" d="M 191 3500 
L 800 3500 
L 1894 563 
L 2988 3500 
L 3597 3500 
L 2284 0 
L 1503 0 
L 191 3500 
z
" transform="scale(0.015625)"/>
       <path id="DejaVuSans-52" d="M 2841 2188 
Q 3044 2119 3236 1894 
Q 3428 1669 3622 1275 
L 4263 0 
L 3584 0 
L 2988 1197 
Q 2756 1666 2539 1819 
Q 2322 1972 1947 1972 
L 1259 1972 
L 1259 0 
L 628 0 
L 628 4666 
L 2053 4666 
Q 2853 4666 3247 4331 
Q 3641 3997 3641 3322 
Q 3641 2881 3436 2590 
Q 3231 2300 2841 2188 
z
M 1259 4147 
L 1259 2491 
L 2053 2491 
Q 2509 2491 2742 2702 
Q 2975 2913 2975 3322 
Q 2975 3731 2742 3939 
Q 2509 4147 2053 4147 
L 1259 4147 
z
" transform="scale(0.015625)"/>
       <path id="DejaVuSans-6d" d="M 3328 2828 
Q 3544 3216 3844 3400 
Q 4144 3584 4550 3584 
Q 5097 3584 5394 3201 
Q 5691 2819 5691 2113 
L 5691 0 
L 5113 0 
L 5113 2094 
Q 5113 2597 4934 2840 
Q 4756 3084 4391 3084 
Q 3944 3084 3684 2787 
Q 3425 2491 3425 1978 
L 3425 0 
L 2847 0 
L 2847 2094 
Q 2847 2600 2669 2842 
Q 2491 3084 2119 3084 
Q 1678 3084 1418 2786 
Q 1159 2488 1159 1978 
L 1159 0 
L 581 0 
L 581 3500 
L 1159 3500 
L 1159 2956 
Q 1356 3278 1631 3431 
Q 1906 3584 2284 3584 
Q 2666 3584 2933 3390 
Q 3200 3197 3328 2828 
z
" transform="scale(0.015625)"/>
      </defs>
      <use xlink:href="#DejaVuSans-4e"/>
      <use xlink:href="#DejaVuSans-6f" transform="translate(74.804688 0)"/>
      <use xlink:href="#DejaVuSans-76" transform="translate(135.986328 0)"/>
      <use xlink:href="#DejaVuSans-6f" transform="translate(195.166016 0)"/>
      <use xlink:href="#DejaVuSans-20" transform="translate(256.347656 0)"/>
      <use xlink:href="#DejaVuSans-52" transform="translate(288.134766 0)"/>
      <use xlink:href="#DejaVuSans-65" transform="translate(353.117188 0)"/>
      <use xlink:href="#DejaVuSans-70" transform="translate(414.640625 0)"/>
      <use xlink:href="#DejaVuSans-61" transform="translate(478.117188 0)"/>
      <use xlink:href="#DejaVuSans-72" transform="translate(539.396484 0)"/>
      <use xlink:href="#DejaVuSans-74" transform="translate(580.509766 0)"/>
      <use xlink:href="#DejaVuSans-69" transform="translate(619.71875 0)"/>
      <use xlink:href="#DejaVuSans-6d" transform="translate(647.501953 0)"/>
      <use xlink:href="#DejaVuSans-65" transform="translate(744.914062 0)"/>
      <use xlink:href="#DejaVuSans-6e" transform="translate(806.4375 0)"/>
      <use xlink:href="#DejaVuSans-74" transform="translate(869.816406 0)"/>
      <use xlink:href="#DejaVuSans-6f" transform="translate(909.025391 0)"/>
     </g>
    </g>
   </g>
  </g>
 </g>
 <defs>
  <clipPath id="p36367a17ef">
   <rect x="90" y="168.222847" width="558" height="536.194307"/>
  </clipPath>
 </defs>
</svg>
