<?xml version="1.0" encoding="utf-8" standalone="no"?>
<!DOCTYPE svg PUBLIC "-//W3C//DTD SVG 1.1//EN"
  "http://www.w3.org/Graphics/SVG/1.1/DTD/svg11.dtd">
<svg xmlns:xlink="http://www.w3.org/1999/xlink" width="720pt" height="864pt" viewBox="0 0 720 864" xmlns="http://www.w3.org/2000/svg" version="1.1">
 <metadata>
  <rdf:RDF xmlns:dc="http://purl.org/dc/elements/1.1/" xmlns:cc="http://creativecommons.org/ns#" xmlns:rdf="http://www.w3.org/1999/02/22-rdf-syntax-ns#">
   <cc:Work>
    <dc:type rdf:resource="http://purl.org/dc/dcmitype/StillImage"/>
    <dc:date>2025-06-16T16:48:30.462832</dc:date>
    <dc:format>image/svg+xml</dc:format>
    <dc:creator>
     <cc:Agent>
      <dc:title>Matplotlib v3.10.1, https://matplotlib.org/</dc:title>
     </cc:Agent>
    </dc:creator>
   </cc:Work>
  </rdf:RDF>
 </metadata>
 <defs>
  <style type="text/css">*{stroke-linejoin: round; stroke-linecap: butt}</style>
 </defs>
 <g id="figure_1">
  <g id="patch_1">
   <path d="M 0 864 
L 720 864 
L 720 0 
L 0 0 
z
" style="fill: #ffffff"/>
  </g>
  <g id="axes_1">
   <g id="patch_2">
    <path d="M 90 656.342132 
L 648 656.342132 
L 648 216.297868 
L 90 216.297868 
z
" style="fill: #ffffff"/>
   </g>
   <g id="PatchCollection_1">
    <path d="M 461.774871 634.203394 
L 461.774233 634.212898 
L 444.632194 633.129207 
L 399.147002 630.253709 
L 373.606975 628.502295 
L 330.68571 625.558958 
L 330.670201 625.573554 
L 280.407894 622.111463 
L 279.361939 622.039417 
L 278.279399 621.973349 
L 204.084943 617.445244 
L 191.443233 616.664699 
L 117.901725 612.123984 
L 117.863177 610.84585 
L 117.580646 609.81082 
L 116.832332 608.801613 
L 115.975545 608.149065 
L 115.363636 607.042356 
L 115.60692 605.945148 
L 116.431497 604.91023 
L 117.104757 603.738811 
L 118.901765 602.30252 
L 119.920855 601.750253 
L 120.535504 600.794185 
L 121.974051 596.843265 
L 121.923672 594.035085 
L 123.29574 591.75961 
L 124.297836 589.403836 
L 124.512314 585.895406 
L 125.443734 585.164178 
L 126.534234 583.947457 
L 127.398693 581.577742 
L 127.213842 579.987284 
L 126.845461 578.97506 
L 127.417472 577.564592 
L 127.660473 576.002726 
L 127.19404 574.687053 
L 129.262847 572.242683 
L 130.380251 571.977515 
L 131.042582 571.104653 
L 130.295121 567.088073 
L 130.274622 565.912941 
L 131.101305 560.607237 
L 132.431687 560.956841 
L 133.484197 560.202545 
L 132.978147 559.11138 
L 132.761923 558.020767 
L 133.423461 557.016303 
L 132.919298 556.119825 
L 131.694654 555.669129 
L 130.878406 554.733825 
L 131.724675 550.608719 
L 131.004551 549.487215 
L 131.372949 548.100817 
L 133.375093 544.856441 
L 131.928776 542.923798 
L 133.121935 542.274104 
L 134.268964 542.200886 
L 136.446033 540.368968 
L 138.362433 539.036133 
L 139.239041 538.192951 
L 139.81927 537.079944 
L 139.985937 535.871948 
L 140.617213 534.806248 
L 144.011037 535.442139 
L 145.350597 534.739623 
L 145.93305 533.514187 
L 146.888795 532.492605 
L 149.134167 531.109611 
L 150.638778 530.328865 
L 152.253397 529.793149 
L 153.594473 529.647757 
L 155.938049 528.99431 
L 156.917019 527.507205 
L 157.69568 524.899661 
L 159.214755 523.872794 
L 160.479539 523.879434 
L 162.567664 524.796436 
L 164.607681 526.69142 
L 167.203364 526.596739 
L 167.963462 527.365725 
L 168.018699 528.626287 
L 167.758434 529.932361 
L 167.767589 531.442754 
L 168.253337 532.37442 
L 169.159271 533.429415 
L 171.480299 534.845725 
L 172.519278 535.288609 
L 173.453776 536.088107 
L 174.182073 537.045573 
L 175.388873 536.459467 
L 177.051408 533.662659 
L 177.567276 532.403134 
L 178.293151 531.176761 
L 179.228941 530.204804 
L 178.722501 529.130562 
L 178.517315 527.866803 
L 179.481181 527.170638 
L 180.557933 526.674617 
L 179.812035 524.353241 
L 180.053663 523.159729 
L 179.723075 522.147421 
L 179.063602 520.945721 
L 178.905681 519.61176 
L 179.616426 517.290092 
L 180.093011 516.335747 
L 181.337486 514.932162 
L 182.709733 512.871403 
L 184.711367 512.159543 
L 185.703146 511.386291 
L 186.596492 510.388754 
L 187.870508 510.256742 
L 191.291332 510.439401 
L 192.700713 510.145143 
L 193.72298 509.596048 
L 194.730876 508.66219 
L 195.820456 507.43626 
L 196.676804 506.179953 
L 197.026891 503.833162 
L 197.14317 499.816596 
L 196.015063 499.432245 
L 194.713064 499.212323 
L 194.449847 498.215833 
L 194.800361 497.024954 
L 195.75332 496.315718 
L 199.047425 496.595394 
L 200.002012 496.046217 
L 200.923709 493.086252 
L 201.333701 490.706315 
L 200.991649 487.900135 
L 200.612 484.783677 
L 200.605458 482.389636 
L 200.79009 481.258438 
L 202.761467 476.55999 
L 203.102551 475.049332 
L 203.087034 473.796868 
L 203.539843 470.549829 
L 203.471803 469.263224 
L 203.658166 467.881308 
L 203.237062 466.661704 
L 202.401763 465.474385 
L 201.248078 462.999334 
L 199.049047 462.238987 
L 198.212026 461.180351 
L 198.521722 460.181636 
L 198.65172 458.832203 
L 197.405866 458.064496 
L 197.210107 456.651169 
L 198.182547 452.727062 
L 197.862925 450.542446 
L 198.786034 449.609085 
L 198.702503 448.47628 
L 198.272765 446.843639 
L 198.289519 445.431107 
L 198.60997 444.112756 
L 199.311351 442.985924 
L 199.495775 441.860502 
L 198.920443 440.568795 
L 198.532991 438.10328 
L 198.074906 436.849974 
L 195.577584 433.19279 
L 195.091464 432.165431 
L 195.122145 430.849152 
L 195.538638 429.625437 
L 196.142852 428.692199 
L 197.132651 427.981843 
L 199.971075 427.52422 
L 201.119948 427.069324 
L 202.041451 426.424186 
L 202.254908 425.266512 
L 202.189587 423.822971 
L 202.374603 422.341816 
L 202.664492 421.183832 
L 203.198191 420.282229 
L 203.615741 419.158732 
L 202.781486 418.355219 
L 202.209426 417.328916 
L 202.29519 415.820085 
L 202.966967 414.981388 
L 205.134347 413.657076 
L 205.796029 412.755378 
L 206.020386 411.725701 
L 205.473581 409.540102 
L 205.337868 407.389202 
L 204.91034 404.946449 
L 204.077403 403.82175 
L 202.101452 402.513687 
L 201.430789 401.642821 
L 202.345447 399.23255 
L 201.545842 398.399881 
L 199.475383 399.560609 
L 198.484964 399.856581 
L 197.326557 399.539455 
L 196.250732 398.80186 
L 194.742271 396.492062 
L 193.584239 394.276401 
L 192.876551 393.379181 
L 191.659744 392.162359 
L 190.511047 391.614837 
L 187.722903 389.504816 
L 187.373513 388.412524 
L 187.909524 385.839487 
L 187.306618 384.8136 
L 185.965741 385.589384 
L 184.555234 385.978584 
L 184.045617 385.771502 
L 183.535998 385.564419 
L 181.939116 384.090811 
L 181.230808 383.094861 
L 180.976758 381.969424 
L 181.094702 380.780487 
L 181.892515 379.881301 
L 181.893047 379.880701 
L 184.03137 378.137621 
L 184.981979 377.172563 
L 185.713153 376.238083 
L 186.313337 374.88486 
L 187.811484 373.079651 
L 188.987583 371.212987 
L 189.618183 370.087188 
L 189.83575 367.74152 
L 190.281874 366.677406 
L 191.455891 364.717263 
L 192.186257 363.97267 
L 192.700567 363.039613 
L 192.857142 361.914111 
L 192.593864 360.789428 
L 192.301744 358.477011 
L 192.331263 357.383911 
L 192.041263 355.776245 
L 191.33032 354.750567 
L 188.997581 352.828794 
L 188.966925 351.768509 
L 189.308087 350.67419 
L 189.854355 349.677176 
L 193.133307 345.28875 
L 193.347781 345.001408 
L 193.565808 342.468438 
L 193.946765 341.501248 
L 194.936752 340.759086 
L 197.102772 340.144207 
L 198.154848 340.010233 
L 199.203108 339.396301 
L 200.321152 339.074145 
L 201.565724 339.134879 
L 202.773468 338.807497 
L 203.936142 338.256972 
L 204.493445 337.064536 
L 206.408241 334.973859 
L 206.482915 333.525331 
L 204.968535 331.191169 
L 203.529368 329.902453 
L 202.257318 329.255967 
L 200.896495 327.726745 
L 198.978787 326.275608 
L 197.463407 324.587784 
L 196.502709 323.057844 
L 195.702764 320.884278 
L 195.227113 318.710356 
L 195.472196 317.503793 
L 195.151221 315.896358 
L 193.955425 315.168754 
L 192.671461 315.329768 
L 191.399609 315.086891 
L 190.515718 314.364139 
L 189.56147 313.961502 
L 188.278782 313.958832 
L 187.236966 314.200492 
L 186.209553 313.799045 
L 185.322912 312.348742 
L 185.243837 311.221895 
L 185.412656 309.933631 
L 185.810886 308.726819 
L 186.363699 307.841244 
L 187.491574 303.98054 
L 188.287225 302.3697 
L 189.248842 301.727791 
L 190.768332 299.794559 
L 191.806227 299.472567 
L 193.480107 299.555729 
L 194.445978 300.767756 
L 198.027726 303.339727 
L 199.233917 303.41947 
L 200.506348 302.535507 
L 201.303743 301.571752 
L 201.70339 300.604442 
L 201.714325 298.353665 
L 202.266707 296.984571 
L 203.781851 295.133909 
L 205.54324 292.075411 
L 209.060084 289.180273 
L 209.857989 288.134216 
L 211.69331 286.201237 
L 212.25864 285.1564 
L 212.658212 283.788857 
L 212.725819 282.401241 
L 210.43336 277.913811 
L 211.062022 275.014878 
L 211.541131 274.050793 
L 212.504374 273.165772 
L 212.823145 271.635906 
L 213.5424 270.025998 
L 213.144178 268.818209 
L 213.14265 267.371271 
L 213.774057 264.785163 
L 213.862973 262.623156 
L 213.619068 261.254676 
L 213.864339 260.044956 
L 214.339614 258.597744 
L 215.380028 257.871905 
L 216.098277 256.585415 
L 215.699809 255.217533 
L 215.856019 254.089537 
L 214.901264 253.204123 
L 214.582031 251.755872 
L 213.939997 250.226932 
L 213.630326 248.858965 
L 213.786937 247.250354 
L 214.825424 245.961664 
L 214.980093 244.593216 
L 214.903262 242.902571 
L 216.01994 242.099957 
L 217.217974 241.616241 
L 219.85125 241.21395 
L 220.734427 240.650108 
L 223.399855 239.892094 
L 224.603612 241.349239 
L 225.769511 241.230724 
L 226.44103 240.04451 
L 227.852235 239.539477 
L 228.93917 239.45135 
L 229.328628 238.070805 
L 230.253837 237.561012 
L 231.439728 237.922888 
L 233.897334 237.03862 
L 235.035719 237.464559 
L 236.092103 237.536074 
L 237.143866 237.027782 
L 238.193069 237.355478 
L 238.903357 236.29988 
L 240.020262 236.822319 
L 240.965331 237.727464 
L 242.53883 241.211262 
L 243.968966 242.989042 
L 243.821097 245.205816 
L 243.172349 247.228171 
L 243.248864 249.543331 
L 242.646473 250.569267 
L 242.861171 251.59814 
L 243.822127 251.219215 
L 245.123755 251.003666 
L 246.339265 251.073438 
L 247.290668 250.69457 
L 249.403188 250.385889 
L 250.490258 249.913042 
L 251.706084 249.630586 
L 252.882091 249.92826 
L 254.933317 248.812561 
L 256.178932 248.597378 
L 257.829276 248.638485 
L 259.19854 248.454268 
L 261.688743 249.144364 
L 262.514251 249.826158 
L 263.243153 250.632966 
L 263.203911 251.664504 
L 264.088582 252.537238 
L 268.358193 253.046499 
L 268.414668 254.108919 
L 268.092311 255.168106 
L 266.725463 255.188818 
L 265.788953 255.827977 
L 263.398329 256.360162 
L 262.338834 257.479278 
L 259.754503 261.932044 
L 259.30828 263.021723 
L 259.072363 264.079879 
L 259.072859 265.302549 
L 258.66668 269.253771 
L 259.170291 270.190511 
L 260.083474 271.031944 
L 261.199009 276.271225 
L 261.960269 277.505444 
L 262.885227 278.221876 
L 263.448356 279.382183 
L 263.39897 282.597238 
L 263.709168 283.597345 
L 264.690945 284.597241 
L 264.496961 285.755257 
L 263.913698 286.812821 
L 262.495424 288.764872 
L 261.815187 290.368792 
L 261.017514 291.585677 
L 260.815412 292.611546 
L 260.939879 293.769773 
L 262.213711 294.26105 
L 263.329641 294.204264 
L 264.313404 294.628168 
L 266.705768 295.027989 
L 266.568917 297.308282 
L 266.714172 298.661279 
L 267.385304 299.436433 
L 266.97721 303.099501 
L 267.123011 305.349222 
L 266.38559 306.921004 
L 265.196906 307.459654 
L 264.332956 308.097352 
L 263.721176 309.059785 
L 263.486852 310.374707 
L 263.99076 311.311676 
L 265.303277 311.800291 
L 266.954554 313.333849 
L 267.083158 313.453451 
L 267.163017 315.79913 
L 267.733803 316.735178 
L 267.40584 318.147259 
L 267.636076 321.717812 
L 268.074908 322.812487 
L 270.299568 325.140441 
L 270.805879 326.269092 
L 269.483859 328.704554 
L 270.134382 331.151603 
L 270.407158 334.045923 
L 271.544985 336.527176 
L 272.81834 337.275588 
L 275.045018 337.515054 
L 278.856126 336.541206 
L 279.300818 335.324037 
L 279.127856 333.743741 
L 278.652766 332.521729 
L 279.117891 329.598379 
L 280.285284 326.517218 
L 281.277562 325.366072 
L 282.618134 324.346045 
L 283.928057 323.874024 
L 285.271898 323.944641 
L 286.388754 325.042915 
L 287.555017 327.110415 
L 288.341717 327.852666 
L 289.499384 326.735251 
L 290.083473 325.420515 
L 290.947289 324.107181 
L 291.978434 323.342364 
L 292.335172 323.306276 
L 294.369088 323.100906 
L 295.389915 323.427461 
L 296.197409 322.562779 
L 296.546215 321.279555 
L 297.857954 321.834351 
L 299.656199 324.03059 
L 301.602415 324.974138 
L 302.912342 325.240453 
L 305.336027 325.062837 
L 308.873431 326.401919 
L 309.931171 325.377783 
L 312.321283 324.748021 
L 313.384376 324.047451 
L 314.433129 324.213853 
L 315.549039 324.092192 
L 316.473296 324.611481 
L 317.719735 324.459826 
L 319.885893 325.500314 
L 322.04406 326.927505 
L 322.937869 327.703724 
L 324.017986 327.741711 
L 328.858667 330.662804 
L 330.442373 332.313282 
L 331.491472 332.187906 
L 331.53143 332.101119 
L 331.95072 331.194662 
L 332.171497 329.941106 
L 333.234541 329.207745 
L 334.350785 328.765499 
L 334.866083 327.70837 
L 335.070126 326.614056 
L 334.214061 325.582172 
L 335.585694 324.91355 
L 334.759452 323.976783 
L 333.816388 322.074072 
L 333.883029 320.949954 
L 334.885208 319.89419 
L 335.234172 318.706702 
L 334.991822 317.546654 
L 335.47732 316.005515 
L 335.13865 314.42734 
L 335.584855 313.082775 
L 336.614182 312.186501 
L 337.926375 312.001777 
L 342.864478 311.963363 
L 345.928905 312.335556 
L 346.315106 311.371476 
L 346.927492 310.50808 
L 348.337191 310.130325 
L 351.877967 309.697849 
L 353.141208 309.769493 
L 354.462951 310.292208 
L 356.786895 311.780942 
L 358.342456 312.43268 
L 362.335237 312.2934 
L 364.689206 312.563189 
L 365.069516 313.820709 
L 365.667916 314.916171 
L 367.196663 315.375664 
L 367.321259 316.469111 
L 367.895978 317.372735 
L 369.033283 317.858238 
L 370.055259 318.604371 
L 370.432774 319.89388 
L 371.852466 322.181185 
L 372.036372 323.245891 
L 373.028464 323.540339 
L 374.235997 324.349646 
L 377.674036 325.878259 
L 378.987195 325.789091 
L 379.746056 326.630072 
L 382.080344 326.803604 
L 383.224713 326.325528 
L 384.248423 326.5242 
L 384.68327 327.457815 
L 387.016989 327.534281 
L 387.880695 326.99194 
L 389.127452 327.287024 
L 389.759098 328.094242 
L 390.06963 328.08681 
L 390.875551 328.067624 
L 392.343479 328.4953 
L 395.939764 327.838526 
L 396.942233 327.200082 
L 398.059758 326.850162 
L 399.188506 326.10617 
L 400.342809 326.348258 
L 401.625968 326.083134 
L 402.676076 326.075938 
L 403.824179 325.329171 
L 404.910985 325.869169 
L 406.187757 325.603106 
L 408.014928 326.591654 
L 409.15956 326.551489 
L 410.316734 327.058428 
L 411.464706 326.634826 
L 413.604026 326.748529 
L 415.100681 326.48153 
L 416.977234 325.378151 
L 420.260371 324.93982 
L 421.477775 325.155171 
L 422.78914 325.180468 
L 423.89466 325.013197 
L 425.207902 325.167094 
L 427.76897 326.07997 
L 430.293492 325.583536 
L 431.21814 326.093498 
L 431.798986 327.21419 
L 432.98517 328.108759 
L 433.880397 327.58731 
L 435.084265 327.322652 
L 436.427482 327.315486 
L 437.44868 326.953733 
L 438.828459 327.138818 
L 439.905953 327.067365 
L 440.547387 327.866755 
L 442.814133 327.306713 
L 443.793679 326.561024 
L 444.241476 325.52654 
L 445.574515 325.132843 
L 446.60394 325.321007 
L 448.800261 325.081249 
L 449.734835 325.557994 
L 452.262714 326.345848 
L 454.880046 325.975068 
L 457.429564 326.405496 
L 457.93902 325.309914 
L 458.920711 324.148482 
L 460.097078 323.076608 
L 460.236837 322.633324 
L 461.000729 320.21083 
L 462.486011 318.205702 
L 463.798582 318.358259 
L 467.103268 316.920029 
L 468.222941 316.23714 
L 471.577451 317.566318 
L 472.363892 316.051351 
L 473.840917 316.071603 
L 474.98963 316.354331 
L 475.884951 315.833325 
L 477.127521 316.05077 
L 478.14724 315.52849 
L 478.848645 316.295653 
L 479.704131 315.295422 
L 481.872022 313.80159 
L 483.260887 312.05268 
L 484.175204 311.243174 
L 484.970791 310.272662 
L 486.216982 309.559273 
L 487.362076 309.486799 
L 488.384746 309.895164 
L 489.47381 310.952964 
L 489.131343 311.983486 
L 494.022845 312.40015 
L 495.265541 313.193947 
L 496.29836 314.312701 
L 497.35427 314.884432 
L 498.765923 315.391054 
L 499.853816 315.415342 
L 500.875394 316.019062 
L 501.777819 317.074784 
L 502.265318 318.100557 
L 503.226166 318.736546 
L 503.86763 319.568433 
L 504.063189 320.919703 
L 504.781474 322.134054 
L 506.24072 321.933979 
L 507.366637 322.18429 
L 509.660779 321.878873 
L 511.528417 323.663754 
L 512.238144 324.625701 
L 514.464109 324.740629 
L 515.309996 325.63362 
L 517.417899 326.360442 
L 518.410689 326.931623 
L 522.15442 327.935473 
L 522.835258 328.862433 
L 523.407058 329.982801 
L 524.281394 330.8466 
L 525.749918 331.253677 
L 526.675587 330.572725 
L 527.889754 330.789885 
L 529.005694 330.65298 
L 529.989428 329.775297 
L 532.320015 330.144682 
L 533.439515 330.074884 
L 534.400969 330.742842 
L 535.74255 331.150502 
L 537.764728 332.840378 
L 539.602539 334.756094 
L 540.818332 335.361115 
L 542.187547 335.126047 
L 543.179673 335.406191 
L 544.296494 335.979602 
L 545.706488 335.388985 
L 546.881234 335.123651 
L 547.999427 335.824643 
L 548.778484 336.686335 
L 549.963821 337.383697 
L 550.761668 338.184387 
L 551.995934 339.94319 
L 553.211842 343.490598 
L 553.968078 344.58886 
L 555.008869 344.855867 
L 555.610717 346.06838 
L 556.623626 346.434511 
L 557.615517 347.154 
L 558.393233 346.131227 
L 559.276527 346.844523 
L 559.684951 347.854066 
L 561.003721 348.009224 
L 562.027349 348.775336 
L 562.718579 350.767919 
L 564.406362 352.722395 
L 564.096837 353.768225 
L 566.802052 356.633339 
L 568.814015 357.267269 
L 569.628331 359.523239 
L 569.890319 360.809067 
L 570.77622 361.801101 
L 571.505574 362.973011 
L 573.663325 364.088184 
L 576.083753 363.606889 
L 577.259457 363.703252 
L 579.366037 364.530045 
L 582.060196 366.359049 
L 583.013799 366.779263 
L 583.645435 367.793489 
L 583.798709 370.171742 
L 584.443239 371.139752 
L 586.047615 372.855052 
L 587.0274 373.361913 
L 586.71791 375.569721 
L 587.882751 376.167885 
L 588.701546 376.795184 
L 589.320937 376.695801 
L 614.656057 372.627839 
L 616.793432 371.861802 
L 619.089702 370.257629 
L 620.546396 369.070798 
L 622.39292 366.974777 
L 622.636364 368.651271 
L 620.750537 372.503799 
L 619.367879 374.943758 
L 615.815474 379.881301 
L 614.16801 382.171137 
L 610.410581 389.021321 
L 609.404851 390.042153 
L 608.258706 390.810653 
L 606.75157 391.390097 
L 605.800135 392.513602 
L 605.797799 393.828729 
L 606.081134 394.922797 
L 607.042911 395.472775 
L 607.480839 396.691714 
L 607.42193 398.265893 
L 606.62538 399.711948 
L 604.990132 401.443919 
L 602.279717 403.307459 
L 600.617007 404.11 
L 599.595158 405.295412 
L 596.175724 408.088723 
L 594.104914 409.308129 
L 593.14371 410.400091 
L 591.762212 413.083526 
L 590.457211 415.153296 
L 589.094443 416.900932 
L 588.971182 417.059004 
L 588.253686 417.979134 
L 586.335048 419.783472 
L 586.170605 419.938119 
L 585.919677 420.006094 
L 584.162039 420.482228 
L 582.955741 420.547061 
L 581.614951 420.575024 
L 579.027397 420.125124 
L 577.56208 420.38058 
L 576.403356 421.084198 
L 575.398296 422.34518 
L 574.284116 426.072817 
L 574.127212 427.423726 
L 573.457136 428.710692 
L 573.204348 430.031658 
L 573.457645 431.123023 
L 573.371038 432.15137 
L 572.572843 433.375499 
L 569.646034 436.341887 
L 567.633242 437.791118 
L 566.460136 438.277387 
L 565.273485 438.377408 
L 563.522113 439.538988 
L 562.432808 439.829814 
L 561.102066 440.696238 
L 559.984036 442.474097 
L 559.226579 445.143249 
L 557.53101 447.095544 
L 557.35204 447.30162 
L 556.563961 449.086761 
L 556.563751 449.087341 
L 554.91402 456.756833 
L 554.795571 459.455967 
L 555.436544 461.545533 
L 555.60158 462.605014 
L 555.835946 470.222035 
L 555.579406 470.497183 
L 554.757013 471.379647 
L 553.832587 472.765506 
L 553.675764 474.500985 
L 552.654722 476.624289 
L 551.391742 480.196159 
L 550.371073 481.614786 
L 549.154735 482.518372 
L 547.437138 484.19146 
L 545.687347 486.381833 
L 542.789033 491.115378 
L 541.778907 494.266706 
L 541.235191 495.233427 
L 540.416032 499.510546 
L 538.73525 503.625903 
L 537.910812 505.172227 
L 537.462634 506.65163 
L 538.073141 508.384965 
L 537.667826 509.734974 
L 537.472971 511.666737 
L 538.462939 513.012882 
L 538.72627 514.074823 
L 538.831443 515.471548 
L 537.782711 515.943684 
L 536.576788 516.98187 
L 536.548672 518.430968 
L 541.368888 524.602504 
L 542.508035 527.007602 
L 542.98307 531.573022 
L 542.456742 532.926348 
L 541.757472 533.897459 
L 539.980712 535.743211 
L 538.707376 536.721153 
L 538.114754 537.626436 
L 537.551419 539.945294 
L 536.764684 541.081183 
L 536.529337 544.331366 
L 536.966177 547.479552 
L 536.751542 548.801532 
L 536.159505 549.705547 
L 535.360806 550.518822 
L 533.164986 552.175829 
L 532.28154 553.308672 
L 531.425257 554.504866 
L 531.083556 555.956901 
L 530.425011 557.473947 
L 529.725644 558.250587 
L 526.11921 559.632106 
L 525.681096 560.566689 
L 525.321574 563.78735 
L 525.515683 568.064454 
L 525.312826 570.15634 
L 525.086739 571.316941 
L 524.341026 573.254394 
L 521.774922 577.327038 
L 521.596723 578.551087 
L 521.937113 581.282722 
L 521.82084 583.728101 
L 521.481673 584.731328 
L 520.879856 585.632928 
L 518.643213 586.072245 
L 518.475198 589.675015 
L 517.886487 590.837193 
L 515.814238 592.915126 
L 515.055928 594.14289 
L 510.71276 599.003503 
L 509.128542 601.33151 
L 507.8353 604.325498 
L 507.014705 605.526777 
L 505.899492 606.083867 
L 505.072583 607.15085 
L 504.663107 608.182091 
L 503.01198 618.525845 
L 501.670746 622.687827 
L 500.623548 623.947038 
L 499.299195 626.436288 
L 498.803178 628.885796 
L 498.821976 629.926208 
L 498.853752 631.684887 
L 498.676895 633.03761 
L 498.406157 633.556067 
L 498.171878 634.004701 
L 495.655694 636.34012 
L 494.732411 636.281892 
L 461.774871 634.203394 
" clip-path="url(#p768ced19a7)" style="fill: #b3e2cd; fill-opacity: 0.65"/>
   </g>
   <g id="PatchCollection_2">
    <path d="M 530.315503 459.935058 
L 530.033514 459.892039 
L 529.670414 460.073295 
L 529.285956 460.099333 
L 528.889483 459.869719 
L 528.200662 459.829477 
L 527.952366 459.629453 
L 526.470601 459.19508 
L 525.929957 459.092276 
L 525.197083 458.745319 
L 525.102303 458.958701 
L 525.457393 459.453435 
L 524.943446 460.131792 
L 524.664447 460.202468 
L 524.194554 459.841646 
L 523.91956 459.434665 
L 522.64137 458.456017 
L 521.881133 456.918891 
L 521.44528 456.508867 
L 519.793312 455.94244 
L 518.750736 455.880386 
L 518.247469 456.07855 
L 517.665441 456.793428 
L 517.23693 456.729852 
L 516.684271 457.288161 
L 516.192351 457.322991 
L 515.624341 456.92159 
L 514.858094 457.213763 
L 514.58043 457.114342 
L 513.88093 456.463206 
L 513.286889 456.471829 
L 513.083313 456.608616 
L 512.879736 456.899268 
L 512.810987 457.251973 
L 511.590865 458.35929 
L 509.850792 457.633757 
L 507.821706 457.858634 
L 507.619465 458.141677 
L 507.625472 458.355058 
L 508.166782 459.366169 
L 507.746948 459.659695 
L 505.593714 460.021529 
L 505.314716 459.694693 
L 505.870712 459.04136 
L 505.834003 458.396989 
L 505.461559 457.910708 
L 504.025181 457.325852 
L 503.445824 457.039595 
L 503.225562 457.07916 
L 503.013976 457.41445 
L 503.046681 457.778145 
L 502.635524 457.875367 
L 500.610444 457.469061 
L 499.909608 457.816862 
L 499.842861 458.245654 
L 499.540501 458.476112 
L 498.828408 459.74845 
L 498.780011 460.159706 
L 497.498691 460.424163 
L 496.856228 458.505386 
L 495.935327 457.767821 
L 494.64612 457.590337 
L 491.449282 457.732137 
L 487.213745 460.787447 
L 486.300275 460.561782 
L 482.103888 443.753892 
L 543.946073 427.973529 
L 565.201849 422.798917 
L 565.397613 423.398653 
L 568.293179 422.441389 
L 569.056 422.495111 
L 569.390486 423.108413 
L 569.80247 423.42658 
L 571.769123 420.770489 
L 574.206241 419.549144 
L 574.387085 419.758031 
L 573.987251 420.582784 
L 574.033042 422.090309 
L 573.992606 422.509216 
L 572.843611 423.210438 
L 571.824703 423.801524 
L 571.137884 423.925122 
L 569.871707 424.930652 
L 566.809388 427.250116 
L 565.34631 428.191902 
L 564.410526 429.030209 
L 563.88056 429.781947 
L 563.036885 431.791655 
L 562.050376 432.769287 
L 561.766036 433.088175 
L 560.355646 436.073769 
L 560.168127 436.88136 
L 560.735469 437.806915 
L 560.045979 439.187639 
L 559.368504 439.977927 
L 559.602115 440.732034 
L 558.873244 442.712322 
L 557.978844 443.797997 
L 557.670475 444.258406 
L 556.531783 445.213719 
L 554.612827 447.533522 
L 554.31981 447.846324 
L 554.190322 448.305888 
L 553.573586 448.997095 
L 553.769819 449.58753 
L 553.509509 449.850959 
L 553.47747 450.347722 
L 553.570914 451.336176 
L 553.490817 452.605137 
L 553.325228 453.434516 
L 536.875832 451.01974 
L 533.222422 450.605819 
L 530.315503 459.935058 
L 530.315503 459.935058 
" clip-path="url(#p768ced19a7)" style="fill: none; stroke: #000000; stroke-width: 2"/>
   </g>
   <g id="matplotlib.axis_1">
    <g id="xtick_1">
     <g id="line2d_1">
      <path d="M 154.396053 656.342132 
L 154.396053 216.297868 
" clip-path="url(#p768ced19a7)" style="fill: none; stroke: #b0b0b0; stroke-width: 0.8; stroke-linecap: square"/>
     </g>
     <g id="line2d_2">
      <defs>
       <path id="mbec71ac894" d="M 0 0 
L 0 3.5 
" style="stroke: #000000; stroke-width: 0.8"/>
      </defs>
      <g>
       <use xlink:href="#mbec71ac894" x="154.396053" y="656.342132" style="stroke: #000000; stroke-width: 0.8"/>
      </g>
     </g>
     <g id="text_1">
      <!-- −51.2 -->
      <g transform="translate(145.512472 690.384547) rotate(-45) scale(0.1 -0.1)">
       <defs>
        <path id="DejaVuSans-2212" d="M 678 2272 
L 4684 2272 
L 4684 1741 
L 678 1741 
L 678 2272 
z
" transform="scale(0.015625)"/>
        <path id="DejaVuSans-35" d="M 691 4666 
L 3169 4666 
L 3169 4134 
L 1269 4134 
L 1269 2991 
Q 1406 3038 1543 3061 
Q 1681 3084 1819 3084 
Q 2600 3084 3056 2656 
Q 3513 2228 3513 1497 
Q 3513 744 3044 326 
Q 2575 -91 1722 -91 
Q 1428 -91 1123 -41 
Q 819 9 494 109 
L 494 744 
Q 775 591 1075 516 
Q 1375 441 1709 441 
Q 2250 441 2565 725 
Q 2881 1009 2881 1497 
Q 2881 1984 2565 2268 
Q 2250 2553 1709 2553 
Q 1456 2553 1204 2497 
Q 953 2441 691 2322 
L 691 4666 
z
" transform="scale(0.015625)"/>
        <path id="DejaVuSans-31" d="M 794 531 
L 1825 531 
L 1825 4091 
L 703 3866 
L 703 4441 
L 1819 4666 
L 2450 4666 
L 2450 531 
L 3481 531 
L 3481 0 
L 794 0 
L 794 531 
z
" transform="scale(0.015625)"/>
        <path id="DejaVuSans-2e" d="M 684 794 
L 1344 794 
L 1344 0 
L 684 0 
L 684 794 
z
" transform="scale(0.015625)"/>
        <path id="DejaVuSans-32" d="M 1228 531 
L 3431 531 
L 3431 0 
L 469 0 
L 469 531 
Q 828 903 1448 1529 
Q 2069 2156 2228 2338 
Q 2531 2678 2651 2914 
Q 2772 3150 2772 3378 
Q 2772 3750 2511 3984 
Q 2250 4219 1831 4219 
Q 1534 4219 1204 4116 
Q 875 4013 500 3803 
L 500 4441 
Q 881 4594 1212 4672 
Q 1544 4750 1819 4750 
Q 2544 4750 2975 4387 
Q 3406 4025 3406 3419 
Q 3406 3131 3298 2873 
Q 3191 2616 2906 2266 
Q 2828 2175 2409 1742 
Q 1991 1309 1228 531 
z
" transform="scale(0.015625)"/>
       </defs>
       <use xlink:href="#DejaVuSans-2212"/>
       <use xlink:href="#DejaVuSans-35" transform="translate(83.789062 0)"/>
       <use xlink:href="#DejaVuSans-31" transform="translate(147.412109 0)"/>
       <use xlink:href="#DejaVuSans-2e" transform="translate(211.035156 0)"/>
       <use xlink:href="#DejaVuSans-32" transform="translate(242.822266 0)"/>
      </g>
     </g>
    </g>
    <g id="xtick_2">
     <g id="line2d_3">
      <path d="M 224.384132 656.342132 
L 224.384132 216.297868 
" clip-path="url(#p768ced19a7)" style="fill: none; stroke: #b0b0b0; stroke-width: 0.8; stroke-linecap: square"/>
     </g>
     <g id="line2d_4">
      <g>
       <use xlink:href="#mbec71ac894" x="224.384132" y="656.342132" style="stroke: #000000; stroke-width: 0.8"/>
      </g>
     </g>
     <g id="text_2">
      <!-- −51.0 -->
      <g transform="translate(215.500551 690.384547) rotate(-45) scale(0.1 -0.1)">
       <defs>
        <path id="DejaVuSans-30" d="M 2034 4250 
Q 1547 4250 1301 3770 
Q 1056 3291 1056 2328 
Q 1056 1369 1301 889 
Q 1547 409 2034 409 
Q 2525 409 2770 889 
Q 3016 1369 3016 2328 
Q 3016 3291 2770 3770 
Q 2525 4250 2034 4250 
z
M 2034 4750 
Q 2819 4750 3233 4129 
Q 3647 3509 3647 2328 
Q 3647 1150 3233 529 
Q 2819 -91 2034 -91 
Q 1250 -91 836 529 
Q 422 1150 422 2328 
Q 422 3509 836 4129 
Q 1250 4750 2034 4750 
z
" transform="scale(0.015625)"/>
       </defs>
       <use xlink:href="#DejaVuSans-2212"/>
       <use xlink:href="#DejaVuSans-35" transform="translate(83.789062 0)"/>
       <use xlink:href="#DejaVuSans-31" transform="translate(147.412109 0)"/>
       <use xlink:href="#DejaVuSans-2e" transform="translate(211.035156 0)"/>
       <use xlink:href="#DejaVuSans-30" transform="translate(242.822266 0)"/>
      </g>
     </g>
    </g>
    <g id="xtick_3">
     <g id="line2d_5">
      <path d="M 294.372211 656.342132 
L 294.372211 216.297868 
" clip-path="url(#p768ced19a7)" style="fill: none; stroke: #b0b0b0; stroke-width: 0.8; stroke-linecap: square"/>
     </g>
     <g id="line2d_6">
      <g>
       <use xlink:href="#mbec71ac894" x="294.372211" y="656.342132" style="stroke: #000000; stroke-width: 0.8"/>
      </g>
     </g>
     <g id="text_3">
      <!-- −50.8 -->
      <g transform="translate(285.48863 690.384547) rotate(-45) scale(0.1 -0.1)">
       <defs>
        <path id="DejaVuSans-38" d="M 2034 2216 
Q 1584 2216 1326 1975 
Q 1069 1734 1069 1313 
Q 1069 891 1326 650 
Q 1584 409 2034 409 
Q 2484 409 2743 651 
Q 3003 894 3003 1313 
Q 3003 1734 2745 1975 
Q 2488 2216 2034 2216 
z
M 1403 2484 
Q 997 2584 770 2862 
Q 544 3141 544 3541 
Q 544 4100 942 4425 
Q 1341 4750 2034 4750 
Q 2731 4750 3128 4425 
Q 3525 4100 3525 3541 
Q 3525 3141 3298 2862 
Q 3072 2584 2669 2484 
Q 3125 2378 3379 2068 
Q 3634 1759 3634 1313 
Q 3634 634 3220 271 
Q 2806 -91 2034 -91 
Q 1263 -91 848 271 
Q 434 634 434 1313 
Q 434 1759 690 2068 
Q 947 2378 1403 2484 
z
M 1172 3481 
Q 1172 3119 1398 2916 
Q 1625 2713 2034 2713 
Q 2441 2713 2670 2916 
Q 2900 3119 2900 3481 
Q 2900 3844 2670 4047 
Q 2441 4250 2034 4250 
Q 1625 4250 1398 4047 
Q 1172 3844 1172 3481 
z
" transform="scale(0.015625)"/>
       </defs>
       <use xlink:href="#DejaVuSans-2212"/>
       <use xlink:href="#DejaVuSans-35" transform="translate(83.789062 0)"/>
       <use xlink:href="#DejaVuSans-30" transform="translate(147.412109 0)"/>
       <use xlink:href="#DejaVuSans-2e" transform="translate(211.035156 0)"/>
       <use xlink:href="#DejaVuSans-38" transform="translate(242.822266 0)"/>
      </g>
     </g>
    </g>
    <g id="xtick_4">
     <g id="line2d_7">
      <path d="M 364.360291 656.342132 
L 364.360291 216.297868 
" clip-path="url(#p768ced19a7)" style="fill: none; stroke: #b0b0b0; stroke-width: 0.8; stroke-linecap: square"/>
     </g>
     <g id="line2d_8">
      <g>
       <use xlink:href="#mbec71ac894" x="364.360291" y="656.342132" style="stroke: #000000; stroke-width: 0.8"/>
      </g>
     </g>
     <g id="text_4">
      <!-- −50.6 -->
      <g transform="translate(355.476709 690.384547) rotate(-45) scale(0.1 -0.1)">
       <defs>
        <path id="DejaVuSans-36" d="M 2113 2584 
Q 1688 2584 1439 2293 
Q 1191 2003 1191 1497 
Q 1191 994 1439 701 
Q 1688 409 2113 409 
Q 2538 409 2786 701 
Q 3034 994 3034 1497 
Q 3034 2003 2786 2293 
Q 2538 2584 2113 2584 
z
M 3366 4563 
L 3366 3988 
Q 3128 4100 2886 4159 
Q 2644 4219 2406 4219 
Q 1781 4219 1451 3797 
Q 1122 3375 1075 2522 
Q 1259 2794 1537 2939 
Q 1816 3084 2150 3084 
Q 2853 3084 3261 2657 
Q 3669 2231 3669 1497 
Q 3669 778 3244 343 
Q 2819 -91 2113 -91 
Q 1303 -91 875 529 
Q 447 1150 447 2328 
Q 447 3434 972 4092 
Q 1497 4750 2381 4750 
Q 2619 4750 2861 4703 
Q 3103 4656 3366 4563 
z
" transform="scale(0.015625)"/>
       </defs>
       <use xlink:href="#DejaVuSans-2212"/>
       <use xlink:href="#DejaVuSans-35" transform="translate(83.789062 0)"/>
       <use xlink:href="#DejaVuSans-30" transform="translate(147.412109 0)"/>
       <use xlink:href="#DejaVuSans-2e" transform="translate(211.035156 0)"/>
       <use xlink:href="#DejaVuSans-36" transform="translate(242.822266 0)"/>
      </g>
     </g>
    </g>
    <g id="xtick_5">
     <g id="line2d_9">
      <path d="M 434.34837 656.342132 
L 434.34837 216.297868 
" clip-path="url(#p768ced19a7)" style="fill: none; stroke: #b0b0b0; stroke-width: 0.8; stroke-linecap: square"/>
     </g>
     <g id="line2d_10">
      <g>
       <use xlink:href="#mbec71ac894" x="434.34837" y="656.342132" style="stroke: #000000; stroke-width: 0.8"/>
      </g>
     </g>
     <g id="text_5">
      <!-- −50.4 -->
      <g transform="translate(425.464788 690.384547) rotate(-45) scale(0.1 -0.1)">
       <defs>
        <path id="DejaVuSans-34" d="M 2419 4116 
L 825 1625 
L 2419 1625 
L 2419 4116 
z
M 2253 4666 
L 3047 4666 
L 3047 1625 
L 3713 1625 
L 3713 1100 
L 3047 1100 
L 3047 0 
L 2419 0 
L 2419 1100 
L 313 1100 
L 313 1709 
L 2253 4666 
z
" transform="scale(0.015625)"/>
       </defs>
       <use xlink:href="#DejaVuSans-2212"/>
       <use xlink:href="#DejaVuSans-35" transform="translate(83.789062 0)"/>
       <use xlink:href="#DejaVuSans-30" transform="translate(147.412109 0)"/>
       <use xlink:href="#DejaVuSans-2e" transform="translate(211.035156 0)"/>
       <use xlink:href="#DejaVuSans-34" transform="translate(242.822266 0)"/>
      </g>
     </g>
    </g>
    <g id="xtick_6">
     <g id="line2d_11">
      <path d="M 504.336449 656.342132 
L 504.336449 216.297868 
" clip-path="url(#p768ced19a7)" style="fill: none; stroke: #b0b0b0; stroke-width: 0.8; stroke-linecap: square"/>
     </g>
     <g id="line2d_12">
      <g>
       <use xlink:href="#mbec71ac894" x="504.336449" y="656.342132" style="stroke: #000000; stroke-width: 0.8"/>
      </g>
     </g>
     <g id="text_6">
      <!-- −50.2 -->
      <g transform="translate(495.452868 690.384547) rotate(-45) scale(0.1 -0.1)">
       <use xlink:href="#DejaVuSans-2212"/>
       <use xlink:href="#DejaVuSans-35" transform="translate(83.789062 0)"/>
       <use xlink:href="#DejaVuSans-30" transform="translate(147.412109 0)"/>
       <use xlink:href="#DejaVuSans-2e" transform="translate(211.035156 0)"/>
       <use xlink:href="#DejaVuSans-32" transform="translate(242.822266 0)"/>
      </g>
     </g>
    </g>
    <g id="xtick_7">
     <g id="line2d_13">
      <path d="M 574.324528 656.342132 
L 574.324528 216.297868 
" clip-path="url(#p768ced19a7)" style="fill: none; stroke: #b0b0b0; stroke-width: 0.8; stroke-linecap: square"/>
     </g>
     <g id="line2d_14">
      <g>
       <use xlink:href="#mbec71ac894" x="574.324528" y="656.342132" style="stroke: #000000; stroke-width: 0.8"/>
      </g>
     </g>
     <g id="text_7">
      <!-- −50.0 -->
      <g transform="translate(565.440947 690.384547) rotate(-45) scale(0.1 -0.1)">
       <use xlink:href="#DejaVuSans-2212"/>
       <use xlink:href="#DejaVuSans-35" transform="translate(83.789062 0)"/>
       <use xlink:href="#DejaVuSans-30" transform="translate(147.412109 0)"/>
       <use xlink:href="#DejaVuSans-2e" transform="translate(211.035156 0)"/>
       <use xlink:href="#DejaVuSans-30" transform="translate(242.822266 0)"/>
      </g>
     </g>
    </g>
    <g id="xtick_8">
     <g id="line2d_15">
      <path d="M 644.312608 656.342132 
L 644.312608 216.297868 
" clip-path="url(#p768ced19a7)" style="fill: none; stroke: #b0b0b0; stroke-width: 0.8; stroke-linecap: square"/>
     </g>
     <g id="line2d_16">
      <g>
       <use xlink:href="#mbec71ac894" x="644.312608" y="656.342132" style="stroke: #000000; stroke-width: 0.8"/>
      </g>
     </g>
     <g id="text_8">
      <!-- −49.8 -->
      <g transform="translate(635.429026 690.384547) rotate(-45) scale(0.1 -0.1)">
       <defs>
        <path id="DejaVuSans-39" d="M 703 97 
L 703 672 
Q 941 559 1184 500 
Q 1428 441 1663 441 
Q 2288 441 2617 861 
Q 2947 1281 2994 2138 
Q 2813 1869 2534 1725 
Q 2256 1581 1919 1581 
Q 1219 1581 811 2004 
Q 403 2428 403 3163 
Q 403 3881 828 4315 
Q 1253 4750 1959 4750 
Q 2769 4750 3195 4129 
Q 3622 3509 3622 2328 
Q 3622 1225 3098 567 
Q 2575 -91 1691 -91 
Q 1453 -91 1209 -44 
Q 966 3 703 97 
z
M 1959 2075 
Q 2384 2075 2632 2365 
Q 2881 2656 2881 3163 
Q 2881 3666 2632 3958 
Q 2384 4250 1959 4250 
Q 1534 4250 1286 3958 
Q 1038 3666 1038 3163 
Q 1038 2656 1286 2365 
Q 1534 2075 1959 2075 
z
" transform="scale(0.015625)"/>
       </defs>
       <use xlink:href="#DejaVuSans-2212"/>
       <use xlink:href="#DejaVuSans-34" transform="translate(83.789062 0)"/>
       <use xlink:href="#DejaVuSans-39" transform="translate(147.412109 0)"/>
       <use xlink:href="#DejaVuSans-2e" transform="translate(211.035156 0)"/>
       <use xlink:href="#DejaVuSans-38" transform="translate(242.822266 0)"/>
      </g>
     </g>
    </g>
    <g id="text_9">
     <!-- Longitude (°) -->
     <g transform="translate(336.139844 703.453545) scale(0.1 -0.1)">
      <defs>
       <path id="DejaVuSans-4c" d="M 628 4666 
L 1259 4666 
L 1259 531 
L 3531 531 
L 3531 0 
L 628 0 
L 628 4666 
z
" transform="scale(0.015625)"/>
       <path id="DejaVuSans-6f" d="M 1959 3097 
Q 1497 3097 1228 2736 
Q 959 2375 959 1747 
Q 959 1119 1226 758 
Q 1494 397 1959 397 
Q 2419 397 2687 759 
Q 2956 1122 2956 1747 
Q 2956 2369 2687 2733 
Q 2419 3097 1959 3097 
z
M 1959 3584 
Q 2709 3584 3137 3096 
Q 3566 2609 3566 1747 
Q 3566 888 3137 398 
Q 2709 -91 1959 -91 
Q 1206 -91 779 398 
Q 353 888 353 1747 
Q 353 2609 779 3096 
Q 1206 3584 1959 3584 
z
" transform="scale(0.015625)"/>
       <path id="DejaVuSans-6e" d="M 3513 2113 
L 3513 0 
L 2938 0 
L 2938 2094 
Q 2938 2591 2744 2837 
Q 2550 3084 2163 3084 
Q 1697 3084 1428 2787 
Q 1159 2491 1159 1978 
L 1159 0 
L 581 0 
L 581 3500 
L 1159 3500 
L 1159 2956 
Q 1366 3272 1645 3428 
Q 1925 3584 2291 3584 
Q 2894 3584 3203 3211 
Q 3513 2838 3513 2113 
z
" transform="scale(0.015625)"/>
       <path id="DejaVuSans-67" d="M 2906 1791 
Q 2906 2416 2648 2759 
Q 2391 3103 1925 3103 
Q 1463 3103 1205 2759 
Q 947 2416 947 1791 
Q 947 1169 1205 825 
Q 1463 481 1925 481 
Q 2391 481 2648 825 
Q 2906 1169 2906 1791 
z
M 3481 434 
Q 3481 -459 3084 -895 
Q 2688 -1331 1869 -1331 
Q 1566 -1331 1297 -1286 
Q 1028 -1241 775 -1147 
L 775 -588 
Q 1028 -725 1275 -790 
Q 1522 -856 1778 -856 
Q 2344 -856 2625 -561 
Q 2906 -266 2906 331 
L 2906 616 
Q 2728 306 2450 153 
Q 2172 0 1784 0 
Q 1141 0 747 490 
Q 353 981 353 1791 
Q 353 2603 747 3093 
Q 1141 3584 1784 3584 
Q 2172 3584 2450 3431 
Q 2728 3278 2906 2969 
L 2906 3500 
L 3481 3500 
L 3481 434 
z
" transform="scale(0.015625)"/>
       <path id="DejaVuSans-69" d="M 603 3500 
L 1178 3500 
L 1178 0 
L 603 0 
L 603 3500 
z
M 603 4863 
L 1178 4863 
L 1178 4134 
L 603 4134 
L 603 4863 
z
" transform="scale(0.015625)"/>
       <path id="DejaVuSans-74" d="M 1172 4494 
L 1172 3500 
L 2356 3500 
L 2356 3053 
L 1172 3053 
L 1172 1153 
Q 1172 725 1289 603 
Q 1406 481 1766 481 
L 2356 481 
L 2356 0 
L 1766 0 
Q 1100 0 847 248 
Q 594 497 594 1153 
L 594 3053 
L 172 3053 
L 172 3500 
L 594 3500 
L 594 4494 
L 1172 4494 
z
" transform="scale(0.015625)"/>
       <path id="DejaVuSans-75" d="M 544 1381 
L 544 3500 
L 1119 3500 
L 1119 1403 
Q 1119 906 1312 657 
Q 1506 409 1894 409 
Q 2359 409 2629 706 
Q 2900 1003 2900 1516 
L 2900 3500 
L 3475 3500 
L 3475 0 
L 2900 0 
L 2900 538 
Q 2691 219 2414 64 
Q 2138 -91 1772 -91 
Q 1169 -91 856 284 
Q 544 659 544 1381 
z
M 1991 3584 
L 1991 3584 
z
" transform="scale(0.015625)"/>
       <path id="DejaVuSans-64" d="M 2906 2969 
L 2906 4863 
L 3481 4863 
L 3481 0 
L 2906 0 
L 2906 525 
Q 2725 213 2448 61 
Q 2172 -91 1784 -91 
Q 1150 -91 751 415 
Q 353 922 353 1747 
Q 353 2572 751 3078 
Q 1150 3584 1784 3584 
Q 2172 3584 2448 3432 
Q 2725 3281 2906 2969 
z
M 947 1747 
Q 947 1113 1208 752 
Q 1469 391 1925 391 
Q 2381 391 2643 752 
Q 2906 1113 2906 1747 
Q 2906 2381 2643 2742 
Q 2381 3103 1925 3103 
Q 1469 3103 1208 2742 
Q 947 2381 947 1747 
z
" transform="scale(0.015625)"/>
       <path id="DejaVuSans-65" d="M 3597 1894 
L 3597 1613 
L 953 1613 
Q 991 1019 1311 708 
Q 1631 397 2203 397 
Q 2534 397 2845 478 
Q 3156 559 3463 722 
L 3463 178 
Q 3153 47 2828 -22 
Q 2503 -91 2169 -91 
Q 1331 -91 842 396 
Q 353 884 353 1716 
Q 353 2575 817 3079 
Q 1281 3584 2069 3584 
Q 2775 3584 3186 3129 
Q 3597 2675 3597 1894 
z
M 3022 2063 
Q 3016 2534 2758 2815 
Q 2500 3097 2075 3097 
Q 1594 3097 1305 2825 
Q 1016 2553 972 2059 
L 3022 2063 
z
" transform="scale(0.015625)"/>
       <path id="DejaVuSans-20" transform="scale(0.015625)"/>
       <path id="DejaVuSans-28" d="M 1984 4856 
Q 1566 4138 1362 3434 
Q 1159 2731 1159 2009 
Q 1159 1288 1364 580 
Q 1569 -128 1984 -844 
L 1484 -844 
Q 1016 -109 783 600 
Q 550 1309 550 2009 
Q 550 2706 781 3412 
Q 1013 4119 1484 4856 
L 1984 4856 
z
" transform="scale(0.015625)"/>
       <path id="DejaVuSans-b0" d="M 1600 4347 
Q 1350 4347 1178 4173 
Q 1006 4000 1006 3750 
Q 1006 3503 1178 3333 
Q 1350 3163 1600 3163 
Q 1850 3163 2022 3333 
Q 2194 3503 2194 3750 
Q 2194 3997 2020 4172 
Q 1847 4347 1600 4347 
z
M 1600 4750 
Q 1800 4750 1984 4673 
Q 2169 4597 2303 4453 
Q 2447 4313 2519 4134 
Q 2591 3956 2591 3750 
Q 2591 3338 2302 3052 
Q 2013 2766 1594 2766 
Q 1172 2766 890 3047 
Q 609 3328 609 3750 
Q 609 4169 896 4459 
Q 1184 4750 1600 4750 
z
" transform="scale(0.015625)"/>
       <path id="DejaVuSans-29" d="M 513 4856 
L 1013 4856 
Q 1481 4119 1714 3412 
Q 1947 2706 1947 2009 
Q 1947 1309 1714 600 
Q 1481 -109 1013 -844 
L 513 -844 
Q 928 -128 1133 580 
Q 1338 1288 1338 2009 
Q 1338 2731 1133 3434 
Q 928 4138 513 4856 
z
" transform="scale(0.015625)"/>
      </defs>
      <use xlink:href="#DejaVuSans-4c"/>
      <use xlink:href="#DejaVuSans-6f" transform="translate(53.962891 0)"/>
      <use xlink:href="#DejaVuSans-6e" transform="translate(115.144531 0)"/>
      <use xlink:href="#DejaVuSans-67" transform="translate(178.523438 0)"/>
      <use xlink:href="#DejaVuSans-69" transform="translate(242 0)"/>
      <use xlink:href="#DejaVuSans-74" transform="translate(269.783203 0)"/>
      <use xlink:href="#DejaVuSans-75" transform="translate(308.992188 0)"/>
      <use xlink:href="#DejaVuSans-64" transform="translate(372.371094 0)"/>
      <use xlink:href="#DejaVuSans-65" transform="translate(435.847656 0)"/>
      <use xlink:href="#DejaVuSans-20" transform="translate(497.371094 0)"/>
      <use xlink:href="#DejaVuSans-28" transform="translate(529.158203 0)"/>
      <use xlink:href="#DejaVuSans-b0" transform="translate(568.171875 0)"/>
      <use xlink:href="#DejaVuSans-29" transform="translate(618.171875 0)"/>
     </g>
    </g>
   </g>
   <g id="matplotlib.axis_2">
    <g id="ytick_1">
     <g id="line2d_17">
      <path d="M 90 621.747544 
L 648 621.747544 
" clip-path="url(#p768ced19a7)" style="fill: none; stroke: #b0b0b0; stroke-width: 0.8; stroke-linecap: square"/>
     </g>
     <g id="line2d_18">
      <defs>
       <path id="m8af63e9789" d="M 0 0 
L -3.5 0 
" style="stroke: #000000; stroke-width: 0.8"/>
      </defs>
      <g>
       <use xlink:href="#m8af63e9789" x="90" y="621.747544" style="stroke: #000000; stroke-width: 0.8"/>
      </g>
     </g>
     <g id="text_10">
      <!-- −9.8 -->
      <g transform="translate(58.717187 625.546763) scale(0.1 -0.1)">
       <use xlink:href="#DejaVuSans-2212"/>
       <use xlink:href="#DejaVuSans-39" transform="translate(83.789062 0)"/>
       <use xlink:href="#DejaVuSans-2e" transform="translate(147.412109 0)"/>
       <use xlink:href="#DejaVuSans-38" transform="translate(179.199219 0)"/>
      </g>
     </g>
    </g>
    <g id="ytick_2">
     <g id="line2d_19">
      <path d="M 90 550.829716 
L 648 550.829716 
" clip-path="url(#p768ced19a7)" style="fill: none; stroke: #b0b0b0; stroke-width: 0.8; stroke-linecap: square"/>
     </g>
     <g id="line2d_20">
      <g>
       <use xlink:href="#m8af63e9789" x="90" y="550.829716" style="stroke: #000000; stroke-width: 0.8"/>
      </g>
     </g>
     <g id="text_11">
      <!-- −9.6 -->
      <g transform="translate(58.717187 554.628935) scale(0.1 -0.1)">
       <use xlink:href="#DejaVuSans-2212"/>
       <use xlink:href="#DejaVuSans-39" transform="translate(83.789062 0)"/>
       <use xlink:href="#DejaVuSans-2e" transform="translate(147.412109 0)"/>
       <use xlink:href="#DejaVuSans-36" transform="translate(179.199219 0)"/>
      </g>
     </g>
    </g>
    <g id="ytick_3">
     <g id="line2d_21">
      <path d="M 90 479.911888 
L 648 479.911888 
" clip-path="url(#p768ced19a7)" style="fill: none; stroke: #b0b0b0; stroke-width: 0.8; stroke-linecap: square"/>
     </g>
     <g id="line2d_22">
      <g>
       <use xlink:href="#m8af63e9789" x="90" y="479.911888" style="stroke: #000000; stroke-width: 0.8"/>
      </g>
     </g>
     <g id="text_12">
      <!-- −9.4 -->
      <g transform="translate(58.717187 483.711107) scale(0.1 -0.1)">
       <use xlink:href="#DejaVuSans-2212"/>
       <use xlink:href="#DejaVuSans-39" transform="translate(83.789062 0)"/>
       <use xlink:href="#DejaVuSans-2e" transform="translate(147.412109 0)"/>
       <use xlink:href="#DejaVuSans-34" transform="translate(179.199219 0)"/>
      </g>
     </g>
    </g>
    <g id="ytick_4">
     <g id="line2d_23">
      <path d="M 90 408.99406 
L 648 408.99406 
" clip-path="url(#p768ced19a7)" style="fill: none; stroke: #b0b0b0; stroke-width: 0.8; stroke-linecap: square"/>
     </g>
     <g id="line2d_24">
      <g>
       <use xlink:href="#m8af63e9789" x="90" y="408.99406" style="stroke: #000000; stroke-width: 0.8"/>
      </g>
     </g>
     <g id="text_13">
      <!-- −9.2 -->
      <g transform="translate(58.717187 412.793279) scale(0.1 -0.1)">
       <use xlink:href="#DejaVuSans-2212"/>
       <use xlink:href="#DejaVuSans-39" transform="translate(83.789062 0)"/>
       <use xlink:href="#DejaVuSans-2e" transform="translate(147.412109 0)"/>
       <use xlink:href="#DejaVuSans-32" transform="translate(179.199219 0)"/>
      </g>
     </g>
    </g>
    <g id="ytick_5">
     <g id="line2d_25">
      <path d="M 90 338.076232 
L 648 338.076232 
" clip-path="url(#p768ced19a7)" style="fill: none; stroke: #b0b0b0; stroke-width: 0.8; stroke-linecap: square"/>
     </g>
     <g id="line2d_26">
      <g>
       <use xlink:href="#m8af63e9789" x="90" y="338.076232" style="stroke: #000000; stroke-width: 0.8"/>
      </g>
     </g>
     <g id="text_14">
      <!-- −9.0 -->
      <g transform="translate(58.717187 341.875451) scale(0.1 -0.1)">
       <use xlink:href="#DejaVuSans-2212"/>
       <use xlink:href="#DejaVuSans-39" transform="translate(83.789062 0)"/>
       <use xlink:href="#DejaVuSans-2e" transform="translate(147.412109 0)"/>
       <use xlink:href="#DejaVuSans-30" transform="translate(179.199219 0)"/>
      </g>
     </g>
    </g>
    <g id="ytick_6">
     <g id="line2d_27">
      <path d="M 90 267.158405 
L 648 267.158405 
" clip-path="url(#p768ced19a7)" style="fill: none; stroke: #b0b0b0; stroke-width: 0.8; stroke-linecap: square"/>
     </g>
     <g id="line2d_28">
      <g>
       <use xlink:href="#m8af63e9789" x="90" y="267.158405" style="stroke: #000000; stroke-width: 0.8"/>
      </g>
     </g>
     <g id="text_15">
      <!-- −8.8 -->
      <g transform="translate(58.717187 270.957623) scale(0.1 -0.1)">
       <use xlink:href="#DejaVuSans-2212"/>
       <use xlink:href="#DejaVuSans-38" transform="translate(83.789062 0)"/>
       <use xlink:href="#DejaVuSans-2e" transform="translate(147.412109 0)"/>
       <use xlink:href="#DejaVuSans-38" transform="translate(179.199219 0)"/>
      </g>
     </g>
    </g>
    <g id="text_16">
     <!-- Latitude (°) -->
     <g transform="translate(52.6375 464.889531) rotate(-90) scale(0.1 -0.1)">
      <defs>
       <path id="DejaVuSans-61" d="M 2194 1759 
Q 1497 1759 1228 1600 
Q 959 1441 959 1056 
Q 959 750 1161 570 
Q 1363 391 1709 391 
Q 2188 391 2477 730 
Q 2766 1069 2766 1631 
L 2766 1759 
L 2194 1759 
z
M 3341 1997 
L 3341 0 
L 2766 0 
L 2766 531 
Q 2569 213 2275 61 
Q 1981 -91 1556 -91 
Q 1019 -91 701 211 
Q 384 513 384 1019 
Q 384 1609 779 1909 
Q 1175 2209 1959 2209 
L 2766 2209 
L 2766 2266 
Q 2766 2663 2505 2880 
Q 2244 3097 1772 3097 
Q 1472 3097 1187 3025 
Q 903 2953 641 2809 
L 641 3341 
Q 956 3463 1253 3523 
Q 1550 3584 1831 3584 
Q 2591 3584 2966 3190 
Q 3341 2797 3341 1997 
z
" transform="scale(0.015625)"/>
      </defs>
      <use xlink:href="#DejaVuSans-4c"/>
      <use xlink:href="#DejaVuSans-61" transform="translate(55.712891 0)"/>
      <use xlink:href="#DejaVuSans-74" transform="translate(116.992188 0)"/>
      <use xlink:href="#DejaVuSans-69" transform="translate(156.201172 0)"/>
      <use xlink:href="#DejaVuSans-74" transform="translate(183.984375 0)"/>
      <use xlink:href="#DejaVuSans-75" transform="translate(223.193359 0)"/>
      <use xlink:href="#DejaVuSans-64" transform="translate(286.572266 0)"/>
      <use xlink:href="#DejaVuSans-65" transform="translate(350.048828 0)"/>
      <use xlink:href="#DejaVuSans-20" transform="translate(411.572266 0)"/>
      <use xlink:href="#DejaVuSans-28" transform="translate(443.359375 0)"/>
      <use xlink:href="#DejaVuSans-b0" transform="translate(482.373047 0)"/>
      <use xlink:href="#DejaVuSans-29" transform="translate(532.373047 0)"/>
     </g>
    </g>
   </g>
   <g id="patch_3">
    <path d="M 90 656.342132 
L 90 216.297868 
" style="fill: none; stroke: #000000; stroke-width: 0.8; stroke-linejoin: miter; stroke-linecap: square"/>
   </g>
   <g id="patch_4">
    <path d="M 648 656.342132 
L 648 216.297868 
" style="fill: none; stroke: #000000; stroke-width: 0.8; stroke-linejoin: miter; stroke-linecap: square"/>
   </g>
   <g id="patch_5">
    <path d="M 90 656.342132 
L 648 656.342132 
" style="fill: none; stroke: #000000; stroke-width: 0.8; stroke-linejoin: miter; stroke-linecap: square"/>
   </g>
   <g id="patch_6">
    <path d="M 90 216.297868 
L 648 216.297868 
" style="fill: none; stroke: #000000; stroke-width: 0.8; stroke-linejoin: miter; stroke-linecap: square"/>
   </g>
   <g id="legend_1">
    <g id="patch_7">
     <path d="M 300.524219 745.026896 
L 437.475781 745.026896 
Q 439.475781 745.026896 439.475781 743.026896 
L 439.475781 729.348771 
Q 439.475781 727.348771 437.475781 727.348771 
L 300.524219 727.348771 
Q 298.524219 727.348771 298.524219 729.348771 
L 298.524219 743.026896 
Q 298.524219 745.026896 300.524219 745.026896 
z
" style="fill: #ffffff; opacity: 0.8; stroke: #cccccc; stroke-linejoin: miter"/>
    </g>
    <g id="line2d_29">
     <defs>
      <path id="mbf56245e29" d="M 0 5 
C 1.326016 5 2.597899 4.473168 3.535534 3.535534 
C 4.473168 2.597899 5 1.326016 5 0 
C 5 -1.326016 4.473168 -2.597899 3.535534 -3.535534 
C 2.597899 -4.473168 1.326016 -5 0 -5 
C -1.326016 -5 -2.597899 -4.473168 -3.535534 -3.535534 
C -4.473168 -2.597899 -5 -1.326016 -5 0 
C -5 1.326016 -4.473168 2.597899 -3.535534 3.535534 
C -2.597899 4.473168 -1.326016 5 0 5 
z
"/>
     </defs>
     <g>
      <use xlink:href="#mbf56245e29" x="312.524219" y="735.447209" style="fill: #b3e2cd; fill-opacity: 0.65"/>
     </g>
    </g>
    <g id="text_17">
     <!-- Santana do Araguaia -->
     <g transform="translate(330.524219 738.947209) scale(0.1 -0.1)">
      <defs>
       <path id="DejaVuSans-53" d="M 3425 4513 
L 3425 3897 
Q 3066 4069 2747 4153 
Q 2428 4238 2131 4238 
Q 1616 4238 1336 4038 
Q 1056 3838 1056 3469 
Q 1056 3159 1242 3001 
Q 1428 2844 1947 2747 
L 2328 2669 
Q 3034 2534 3370 2195 
Q 3706 1856 3706 1288 
Q 3706 609 3251 259 
Q 2797 -91 1919 -91 
Q 1588 -91 1214 -16 
Q 841 59 441 206 
L 441 856 
Q 825 641 1194 531 
Q 1563 422 1919 422 
Q 2459 422 2753 634 
Q 3047 847 3047 1241 
Q 3047 1584 2836 1778 
Q 2625 1972 2144 2069 
L 1759 2144 
Q 1053 2284 737 2584 
Q 422 2884 422 3419 
Q 422 4038 858 4394 
Q 1294 4750 2059 4750 
Q 2388 4750 2728 4690 
Q 3069 4631 3425 4513 
z
" transform="scale(0.015625)"/>
       <path id="DejaVuSans-41" d="M 2188 4044 
L 1331 1722 
L 3047 1722 
L 2188 4044 
z
M 1831 4666 
L 2547 4666 
L 4325 0 
L 3669 0 
L 3244 1197 
L 1141 1197 
L 716 0 
L 50 0 
L 1831 4666 
z
" transform="scale(0.015625)"/>
       <path id="DejaVuSans-72" d="M 2631 2963 
Q 2534 3019 2420 3045 
Q 2306 3072 2169 3072 
Q 1681 3072 1420 2755 
Q 1159 2438 1159 1844 
L 1159 0 
L 581 0 
L 581 3500 
L 1159 3500 
L 1159 2956 
Q 1341 3275 1631 3429 
Q 1922 3584 2338 3584 
Q 2397 3584 2469 3576 
Q 2541 3569 2628 3553 
L 2631 2963 
z
" transform="scale(0.015625)"/>
      </defs>
      <use xlink:href="#DejaVuSans-53"/>
      <use xlink:href="#DejaVuSans-61" transform="translate(63.476562 0)"/>
      <use xlink:href="#DejaVuSans-6e" transform="translate(124.755859 0)"/>
      <use xlink:href="#DejaVuSans-74" transform="translate(188.134766 0)"/>
      <use xlink:href="#DejaVuSans-61" transform="translate(227.34375 0)"/>
      <use xlink:href="#DejaVuSans-6e" transform="translate(288.623047 0)"/>
      <use xlink:href="#DejaVuSans-61" transform="translate(352.001953 0)"/>
      <use xlink:href="#DejaVuSans-20" transform="translate(413.28125 0)"/>
      <use xlink:href="#DejaVuSans-64" transform="translate(445.068359 0)"/>
      <use xlink:href="#DejaVuSans-6f" transform="translate(508.544922 0)"/>
      <use xlink:href="#DejaVuSans-20" transform="translate(569.726562 0)"/>
      <use xlink:href="#DejaVuSans-41" transform="translate(601.513672 0)"/>
      <use xlink:href="#DejaVuSans-72" transform="translate(669.921875 0)"/>
      <use xlink:href="#DejaVuSans-61" transform="translate(711.035156 0)"/>
      <use xlink:href="#DejaVuSans-67" transform="translate(772.314453 0)"/>
      <use xlink:href="#DejaVuSans-75" transform="translate(835.791016 0)"/>
      <use xlink:href="#DejaVuSans-61" transform="translate(899.169922 0)"/>
      <use xlink:href="#DejaVuSans-69" transform="translate(960.449219 0)"/>
      <use xlink:href="#DejaVuSans-61" transform="translate(988.232422 0)"/>
     </g>
    </g>
   </g>
  </g>
 </g>
 <defs>
  <clipPath id="p768ced19a7">
   <rect x="90" y="216.297868" width="558" height="440.044263"/>
  </clipPath>
 </defs>
</svg>
