<?xml version="1.0" encoding="utf-8" standalone="no"?>
<!DOCTYPE svg PUBLIC "-//W3C//DTD SVG 1.1//EN"
  "http://www.w3.org/Graphics/SVG/1.1/DTD/svg11.dtd">
<svg xmlns:xlink="http://www.w3.org/1999/xlink" width="720pt" height="864pt" viewBox="0 0 720 864" xmlns="http://www.w3.org/2000/svg" version="1.1">
 <metadata>
  <rdf:RDF xmlns:dc="http://purl.org/dc/elements/1.1/" xmlns:cc="http://creativecommons.org/ns#" xmlns:rdf="http://www.w3.org/1999/02/22-rdf-syntax-ns#">
   <cc:Work>
    <dc:type rdf:resource="http://purl.org/dc/dcmitype/StillImage"/>
    <dc:date>2025-06-16T16:49:50.331102</dc:date>
    <dc:format>image/svg+xml</dc:format>
    <dc:creator>
     <cc:Agent>
      <dc:title>Matplotlib v3.10.1, https://matplotlib.org/</dc:title>
     </cc:Agent>
    </dc:creator>
   </cc:Work>
  </rdf:RDF>
 </metadata>
 <defs>
  <style type="text/css">*{stroke-linejoin: round; stroke-linecap: butt}</style>
 </defs>
 <g id="figure_1">
  <g id="patch_1">
   <path d="M 0 864 
L 720 864 
L 720 0 
L 0 0 
z
" style="fill: #ffffff"/>
  </g>
  <g id="axes_1">
   <g id="patch_2">
    <path d="M 129.219554 768.96 
L 608.780446 768.96 
L 608.780446 103.68 
L 129.219554 103.68 
z
" style="fill: #ffffff"/>
   </g>
   <g id="PatchCollection_1">
    <path d="M 323.381585 492.725692 
L 323.466846 533.160612 
L 323.543402 569.467308 
L 322.33066 569.502127 
L 320.156797 570.259188 
L 318.720758 570.46442 
L 316.590231 570.923191 
L 315.774863 570.96148 
L 313.691471 570.799453 
L 310.981604 571.199083 
L 310.027277 571.268465 
L 309.115031 571.572548 
L 308.541472 571.564196 
L 308.384989 571.662052 
L 308.29379 571.664699 
L 306.384474 571.678893 
L 305.629746 571.607892 
L 304.155675 571.391342 
L 302.669438 571.319634 
L 301.473603 571.522298 
L 299.389846 572.148909 
L 297.60447 572.412679 
L 297.138669 572.533264 
L 296.56318 572.915344 
L 296.109057 573.399058 
L 295.821207 574.097684 
L 295.676575 574.776145 
L 295.342047 575.585612 
L 294.895331 576.029115 
L 294.084592 576.481238 
L 293.378088 576.695679 
L 292.659011 577.065894 
L 291.319311 578.318299 
L 290.480586 579.593843 
L 290.153585 580.229949 
L 289.351434 582.575747 
L 289.292042 584.157397 
L 289.186346 585.078751 
L 288.934046 585.90703 
L 288.587569 586.604804 
L 288.058698 587.295755 
L 287.829237 587.787489 
L 287.711644 588.568268 
L 287.831213 589.306727 
L 288.263814 590.977895 
L 288.239969 591.92627 
L 288.409328 593.715478 
L 288.768163 595.418198 
L 289.018251 597.589346 
L 289.281754 598.37832 
L 290.227784 599.691577 
L 290.47995 600.17677 
L 290.597346 602.315769 
L 291.1738 604.131941 
L 291.207846 605.014391 
L 291.830841 606.866141 
L 292.202198 607.701688 
L 292.48045 608.885422 
L 292.492845 609.686246 
L 292.672064 611.712861 
L 292.608908 612.770524 
L 292.44132 613.469258 
L 292.491176 614.066697 
L 292.358449 614.832233 
L 291.961477 615.538933 
L 291.782183 616.682767 
L 291.796934 617.451576 
L 291.686802 618.90003 
L 291.46149 619.102833 
L 291.006106 620.762166 
L 290.778582 622.764936 
L 290.646088 623.291515 
L 290.405152 623.971039 
L 289.936828 624.59879 
L 289.195347 626.289058 
L 287.041541 629.422516 
L 285.697644 630.748639 
L 285.328249 631.4003 
L 284.71821 632.055613 
L 283.867233 632.620869 
L 283.552439 633.014499 
L 282.022427 634.13386 
L 281.4011 634.437362 
L 280.981219 634.734438 
L 280.344841 635.323727 
L 278.503334 636.625076 
L 277.066691 637.87648 
L 275.174128 639.3515 
L 274.381048 640.189319 
L 273.685117 641.6418 
L 273.374276 641.949523 
L 272.430391 642.60835 
L 272.155135 643.03012 
L 272.152948 644.341618 
L 272.655642 645.740343 
L 272.752226 646.521726 
L 272.763142 647.559537 
L 272.874345 648.462364 
L 272.800376 649.028427 
L 272.958182 649.907097 
L 272.917722 651.433687 
L 272.719245 652.276829 
L 272.679051 652.834728 
L 272.896116 653.471389 
L 273.77102 655.261357 
L 274.309421 656.671837 
L 274.358119 658.666277 
L 275.027342 660.42791 
L 275.541753 662.494701 
L 275.687294 663.592008 
L 275.733378 664.411209 
L 275.664878 666.73701 
L 275.471499 669.3149 
L 275.125292 671.068784 
L 274.51269 673.275679 
L 274.62 674.898481 
L 274.610836 675.827726 
L 276.032287 678.72248 
L 274.859875 679.186206 
L 273.077159 679.726949 
L 272.059318 680.46766 
L 270.932916 681.087208 
L 269.220662 681.432397 
L 267.854442 681.626083 
L 267.065262 682.679777 
L 267.028104 684.324274 
L 266.703902 686.123452 
L 265.409934 687.293309 
L 263.624335 687.244034 
L 261.914772 688.608621 
L 261.206687 689.661996 
L 260.847996 691.032808 
L 261.506616 692.521141 
L 262.630916 693.462611 
L 261.147478 694.280829 
L 260.164101 695.374097 
L 258.486527 695.875431 
L 257.097199 695.518518 
L 255.962551 696.489387 
L 254.164186 697.034286 
L 251.671976 697.358931 
L 250.378876 697.705673 
L 248.786359 698.480362 
L 246.798404 699.133536 
L 245.13154 700.065071 
L 244.221877 701.46564 
L 243.947982 702.948962 
L 245.038238 703.774483 
L 246.198017 704.247911 
L 247.361882 704.878298 
L 248.163614 706.444904 
L 248.356097 707.815564 
L 248.27206 709.611468 
L 248.499938 711.251962 
L 249.383464 712.272448 
L 250.427031 713.214256 
L 250.774417 714.584712 
L 249.949837 715.907696 
L 246.353597 720.616312 
L 245.757171 722.333503 
L 244.844783 725.612435 
L 244.105661 727.169366 
L 244.069022 728.574884 
L 244.213516 730.761492 
L 244.50984 732.601191 
L 244.655345 734.592584 
L 244.259854 737.052224 
L 243.206112 738.377622 
L 241.598768 738.72 
L 240.594721 737.816466 
L 240.177677 736.29326 
L 240.501347 734.805721 
L 241.253448 732.507389 
L 241.181739 731.140784 
L 240.713303 729.417615 
L 239.562663 728.084818 
L 238.164657 728.079184 
L 236.715032 729.323644 
L 234.472097 728.484933 
L 233.301302 730.279452 
L 231.778617 730.936586 
L 230.381181 731.087872 
L 229.038994 728.349652 
L 227.947217 727.480735 
L 224.376915 726.371671 
L 222.905252 726.2878 
L 220.723374 726.625453 
L 219.720006 727.990266 
L 220.292888 729.321581 
L 223.384794 731.129334 
L 224.318889 732.349448 
L 224.546654 733.677197 
L 223.37296 734.335124 
L 222.126531 734.486178 
L 220.231964 734.163582 
L 218.482475 733.333219 
L 217.094159 732.117189 
L 216.365995 730.785278 
L 215.708073 729.177037 
L 215.179922 726.285246 
L 213.549793 725.655316 
L 212.425393 724.829659 
L 211.429194 723.340445 
L 211.23721 721.696505 
L 211.705024 720.490704 
L 212.653907 718.930242 
L 212.077954 717.597751 
L 213.167541 714.987613 
L 213.851456 711.747186 
L 213.085642 709.829205 
L 211.57549 709.236923 
L 211.076248 708.032594 
L 210.457236 707.590219 
L 211.50034 707.597821 
L 211.657474 706.153451 
L 209.647283 705.597218 
L 208.401405 705.395307 
L 207.012602 704.64427 
L 205.418289 704.01321 
L 202.79662 704.113224 
L 201.189625 704.578046 
L 199.825679 705.310622 
L 198.338685 705.733813 
L 197.500222 702.448084 
L 195.921436 702.130127 
L 194.783087 702.823943 
L 192.029243 703.359413 
L 190.159515 703.465815 
L 188.644572 703.307205 
L 187.765429 702.049255 
L 187.932506 699.043263 
L 188.241817 697.364884 
L 188.949643 695.803777 
L 189.778671 694.754668 
L 190.207061 693.427821 
L 189.082299 692.680217 
L 186.541718 696.924921 
L 185.260467 697.076223 
L 185.3091 695.55249 
L 184.887685 693.986735 
L 186.865928 687.004061 
L 186.614493 683.13429 
L 186.700576 679.699117 
L 192.122205 674.411875 
L 194.577627 672.744118 
L 197.77414 671.299066 
L 200.077755 669.921144 
L 201.012435 668.125632 
L 200.629174 666.720004 
L 199.548092 665.54265 
L 199.907264 663.630045 
L 199.765957 661.518067 
L 198.49659 658.857257 
L 198.35192 657.252435 
L 197.391974 654.553766 
L 196.57865 653.455238 
L 194.340287 651.260117 
L 192.950877 649.02315 
L 192.190875 646.015923 
L 187.777299 643.018373 
L 187.091151 641.456187 
L 185.429671 639.255168 
L 183.956316 638.351755 
L 182.374804 637.053483 
L 181.608241 635.56498 
L 180.644502 632.598098 
L 179.451079 631.64976 
L 176.732212 630.190682 
L 176.935883 628.784674 
L 179.619144 627.780561 
L 181.068365 626.615512 
L 181.966984 625.331828 
L 182.243779 624.083245 
L 183.380654 622.526963 
L 186.338957 620.668124 
L 186.85317 619.184416 
L 186.280462 617.852345 
L 185.501655 616.832733 
L 181.90663 614.665146 
L 180.627178 613.644487 
L 178.939 610.861731 
L 177.500025 610.461622 
L 177.500629 609.095555 
L 180.973024 607.276836 
L 181.944429 606.38404 
L 182.493702 604.783646 
L 182.19284 603.025594 
L 182.315182 601.738934 
L 185.895511 600.115101 
L 187.26333 598.754285 
L 188.661153 598.216504 
L 190.028416 597.285135 
L 190.421908 595.762602 
L 191.609477 592.644636 
L 191.814536 590.029071 
L 191.515325 587.838431 
L 191.715086 585.729624 
L 192.316068 583.661533 
L 193.860426 583.198469 
L 195.17859 583.949721 
L 196.770918 583.292273 
L 198.30333 580.526066 
L 200.637834 578.427673 
L 201.932249 576.992103 
L 202.100908 575.509475 
L 201.44293 574.060197 
L 201.107337 572.376666 
L 201.070129 571.049177 
L 201.619404 568.980594 
L 202.041523 563.554198 
L 203.944843 562.353204 
L 206.677404 561.505747 
L 209.582846 560.152088 
L 210.48261 558.949077 
L 208.710894 558.157919 
L 207.466735 557.211604 
L 207.083643 555.961782 
L 208.412021 554.912723 
L 209.18931 553.902828 
L 209.706788 552.732158 
L 209.704548 551.326615 
L 210.842892 550.160188 
L 212.124082 549.619 
L 211.323092 547.662793 
L 208.219833 546.709227 
L 206.786067 544.99746 
L 205.502801 544.00855 
L 203.943714 543.288313 
L 202.745829 542.298329 
L 202.651146 540.650619 
L 205.621338 538.873799 
L 206.949877 537.629514 
L 207.897858 536.619813 
L 207.992711 535.132395 
L 207.105305 534.10453 
L 205.430499 533.149527 
L 203.728494 531.567074 
L 202.650508 530.932528 
L 199.992833 527.341368 
L 199.610139 525.771015 
L 199.620034 524.279993 
L 199.213784 522.943867 
L 197.789271 520.697234 
L 197.52271 519.36557 
L 198.363601 516.664437 
L 199.273489 515.342751 
L 200.60743 514.055917 
L 204.513582 511.349753 
L 206.760884 509.368989 
L 209.189476 506.603652 
L 212.913827 503.61722 
L 214.067081 502.1388 
L 214.546505 500.534676 
L 214.867284 498.535645 
L 215.023262 494.346503 
L 215.347165 492.664112 
L 216.101995 490.747553 
L 216.386613 489.1432 
L 217.024769 487.816447 
L 217.464876 486.289961 
L 217.47845 484.173839 
L 216.797969 482.716774 
L 217.001997 480.995199 
L 218.18589 479.789687 
L 217.803804 477.942524 
L 216.256845 476.949116 
L 214.761444 474.940252 
L 214.185295 473.171743 
L 214.0398 471.405664 
L 214.867722 470.001812 
L 216.47038 469.347267 
L 221.453664 466.682169 
L 226.089936 464.843559 
L 227.658079 463.404929 
L 228.727316 459.726613 
L 229.297523 457.417014 
L 229.309565 457.368241 
L 229.86773 455.107415 
L 230.078879 453.158194 
L 230.522274 451.709756 
L 231.216601 447.716329 
L 231.742793 445.722143 
L 232.605333 444.477164 
L 234.966939 442.065944 
L 235.565191 440.895253 
L 235.729732 439.326646 
L 233.804343 436.684516 
L 233.456869 435.426949 
L 233.396172 433.705059 
L 232.486644 431.619185 
L 231.444464 430.274612 
L 229.885485 429.753712 
L 228.364861 429.662327 
L 226.533952 429.882959 
L 224.701819 430.533059 
L 222.83213 430.363199 
L 219.983859 431.000599 
L 219.982137 431.000985 
L 192.794673 437.085134 
L 192.505354 437.006722 
L 190.69614 436.51742 
L 189.559112 437.174381 
L 188.279204 437.243587 
L 185.83683 435.417908 
L 184.55297 435.213414 
L 183.105424 435.668541 
L 182.098014 434.91816 
L 180.78244 434.631241 
L 180.424059 434.621122 
L 175.90771 434.493609 
L 171.897146 434.380354 
L 151.017777 433.790737 
L 155.16228 422.008463 
L 158.037999 413.237537 
L 160.913717 404.466611 
L 163.003906 397.329538 
L 165.556227 388.614117 
L 165.904567 387.512731 
L 168.770209 378.452116 
L 171.416267 368.487336 
L 173.237827 359.682295 
L 173.296967 359.396426 
L 174.925026 351.526729 
L 175.522523 347.431875 
L 177.265314 336.873281 
L 178.434341 332.125457 
L 178.541855 331.687911 
L 179.498192 329.600572 
L 180.077667 328.113295 
L 181.008139 324.78789 
L 182.195953 320.139216 
L 184.24459 315.257181 
L 187.117654 308.918915 
L 189.059931 304.751187 
L 193.694072 294.807089 
L 197.084148 286.501425 
L 199.329701 279.899999 
L 200.269158 277.138203 
L 200.37939 276.800051 
L 202.782261 269.4289 
L 204.961934 260.692784 
L 207.764096 251.726085 
L 208.208406 248.524182 
L 210.071778 235.101687 
L 211.276132 222.063891 
L 211.444936 221.075078 
L 212.449927 215.192552 
L 214.103657 208.369264 
L 215.203022 202.192795 
L 216.343032 197.352028 
L 217.02657 192.132121 
L 217.335985 188.149948 
L 217.789541 183.815727 
L 218.943487 177.050476 
L 220.34081 170.351402 
L 220.774144 166.884694 
L 222.26986 158.791815 
L 222.640979 155.941153 
L 223.072064 154.161512 
L 223.384506 151.912852 
L 223.862694 150.358921 
L 224.163227 148.430017 
L 224.164439 146.970168 
L 224.401763 145.514031 
L 224.798358 144.151342 
L 225.385902 141.605781 
L 225.72021 140.540161 
L 225.910505 139.681353 
L 226.005103 138.740864 
L 226.138402 137.409186 
L 226.678731 134.727315 
L 251.674723 133.993867 
L 262.325484 133.922614 
L 262.336121 133.922543 
L 262.716252 133.92 
L 263.123079 134.271715 
L 263.626666 134.84645 
L 263.816193 134.928588 
L 264.343823 134.979357 
L 264.61917 134.878439 
L 265.146646 135.136537 
L 265.851814 135.230778 
L 267.36409 134.935178 
L 268.462681 134.639652 
L 269.182712 134.557808 
L 270.32251 134.636752 
L 270.720203 134.763946 
L 271.169608 135.217987 
L 271.496489 135.68404 
L 271.639371 136.458414 
L 271.548511 137.168968 
L 271.241978 138.550158 
L 270.723802 139.340044 
L 269.926732 140.302689 
L 269.627274 141.021675 
L 269.469839 141.575997 
L 269.387115 142.286166 
L 269.413246 143.120971 
L 269.818954 143.94552 
L 302.374048 143.916041 
L 319.619131 143.899656 
L 325.118063 143.894301 
L 325.091952 149.370925 
L 325.069602 154.058465 
L 325.806777 154.471673 
L 327.189502 154.891942 
L 327.906155 155.26765 
L 328.541679 155.790901 
L 328.948886 156.236298 
L 329.212295 156.611318 
L 329.463561 157.177658 
L 330.02601 157.990195 
L 331.056838 158.790933 
L 332.040923 159.326512 
L 332.181925 159.528085 
L 333.213804 162.32684 
L 333.570017 163.100195 
L 334.003795 163.842364 
L 334.782437 164.920558 
L 334.948892 165.338075 
L 335.091912 166.025781 
L 335.284695 168.320681 
L 334.864356 170.196211 
L 334.339891 171.792878 
L 334.180792 172.593231 
L 334.086483 173.932861 
L 334.555276 174.499344 
L 335.22525 175.147958 
L 335.655868 175.389938 
L 336.411931 175.422059 
L 337.547428 175.70003 
L 338.197008 176.113176 
L 338.255498 176.204193 
L 338.435229 176.483494 
L 332.143272 177.993148 
L 331.114633 178.239953 
L 330.463467 178.39619 
L 330.257241 178.445671 
L 328.568882 178.850765 
L 327.774132 179.041453 
L 327.689425 179.061777 
L 327.066472 179.211245 
L 325.044576 179.696366 
L 324.40842 180.09421 
L 324.101901 180.402469 
L 324.101876 180.416187 
L 324.101599 180.569271 
L 324.100402 181.230259 
L 324.098245 182.421667 
L 324.097336 182.923824 
L 324.097221 182.9875 
L 324.096763 183.240255 
L 324.095109 184.153939 
L 324.08218 191.295238 
L 324.082166 191.302461 
L 324.007013 232.430948 
L 324.003836 234.200916 
L 323.888276 296.300468 
L 323.865853 298.835335 
L 323.84855 309.103703 
L 323.79472 320.931935 
L 323.293273 451.463425 
L 323.347024 476.5774 
L 323.381585 492.725692 
" clip-path="url(#p1c1d696405)" style="fill: #b3e2cd; fill-opacity: 0.65"/>
    <path d="M 468.796741 225.23416 
L 468.893671 225.34905 
L 469.051251 225.535827 
L 469.753054 226.551726 
L 469.82607 226.655595 
L 469.900773 226.758255 
L 469.977142 226.859677 
L 470.055157 226.959834 
L 470.51069 227.534896 
L 471.076822 228.250268 
L 472.672775 230.396678 
L 472.752324 230.501789 
L 472.833645 230.605532 
L 472.916711 230.707878 
L 473.001502 230.808795 
L 473.087992 230.908257 
L 473.176155 231.006233 
L 473.924732 231.824055 
L 474.619072 232.853698 
L 474.702538 232.974975 
L 474.788285 233.094645 
L 474.876283 233.212665 
L 474.9665 233.328993 
L 475.058904 233.443585 
L 475.153461 233.556403 
L 475.250137 233.667404 
L 475.348898 233.77655 
L 476.100023 234.591 
L 476.205656 234.70328 
L 476.313495 234.813437 
L 476.423497 234.921427 
L 476.535619 235.027208 
L 476.649817 235.130738 
L 476.766046 235.231975 
L 476.884259 235.330881 
L 477.00441 235.427416 
L 477.126453 235.521542 
L 477.250338 235.613222 
L 477.376016 235.702419 
L 477.50344 235.789099 
L 477.632556 235.873227 
L 477.763317 235.954771 
L 477.895668 236.033697 
L 478.029558 236.109975 
L 478.164935 236.183575 
L 478.301745 236.254468 
L 478.439934 236.322625 
L 478.579447 236.38802 
L 478.720229 236.450627 
L 479.470497 236.775382 
L 479.607052 236.832946 
L 479.74468 236.887887 
L 479.883331 236.940184 
L 480.022954 236.98982 
L 480.163498 237.036775 
L 480.304913 237.081033 
L 480.447146 237.122577 
L 480.590146 237.161392 
L 480.73386 237.197465 
L 480.878235 237.230781 
L 481.02322 237.261329 
L 481.168761 237.289098 
L 481.314806 237.314076 
L 481.4613 237.336257 
L 481.608191 237.35563 
L 481.755424 237.37219 
L 481.902946 237.385929 
L 482.050703 237.396844 
L 482.198642 237.40493 
L 483.069685 237.444186 
L 483.21091 237.44926 
L 483.352205 237.451756 
L 483.493521 237.451673 
L 483.634812 237.449011 
L 483.776032 237.443772 
L 483.917132 237.435956 
L 484.058067 237.425566 
L 484.19879 237.412607 
L 484.339253 237.397081 
L 484.479411 237.378996 
L 484.619217 237.358355 
L 485.672247 237.193056 
L 485.824313 237.167632 
L 485.975845 237.139185 
L 486.126782 237.107727 
L 486.277064 237.073271 
L 486.426633 237.03583 
L 486.57543 236.995419 
L 486.723395 236.952053 
L 486.870469 236.90575 
L 487.760341 236.615831 
L 490.221237 235.946967 
L 491.903093 235.598583 
L 492.216032 235.565385 
L 492.308176 235.571992 
L 492.556397 235.648541 
L 493.718943 236.107379 
L 493.85825 236.160817 
L 493.998559 236.211562 
L 494.139816 236.259594 
L 494.28197 236.304897 
L 494.424967 236.347452 
L 494.568755 236.387246 
L 494.713281 236.424262 
L 494.858491 236.458487 
L 495.004331 236.489908 
L 496.28092 236.752111 
L 496.379027 236.771602 
L 496.694422 236.825418 
L 498.578838 237.107031 
L 498.728051 237.127848 
L 498.877638 237.145758 
L 499.027546 237.160756 
L 499.177716 237.172833 
L 499.328092 237.181987 
L 499.478617 237.188214 
L 499.629234 237.191511 
L 501.050737 237.208798 
L 501.195279 237.209134 
L 501.339803 237.206772 
L 501.484257 237.201714 
L 501.628593 237.19396 
L 501.772759 237.183513 
L 501.916705 237.170377 
L 502.060382 237.154557 
L 502.20374 237.136057 
L 502.346728 237.114885 
L 502.489298 237.091047 
L 502.631399 237.064553 
L 502.772982 237.035411 
L 504.11207 236.746242 
L 504.346946 236.691682 
L 505.062266 236.513737 
L 506.704877 236.231299 
L 507.021879 236.169963 
L 507.048078 236.164277 
L 510.773421 235.349062 
L 512.453209 235.000359 
L 514.935837 234.79619 
L 515.242108 234.819252 
L 517.444873 235.345707 
L 517.602606 235.381668 
L 520.581163 236.028084 
L 520.623502 236.037148 
L 524.927188 237.568899 
L 524.930848 237.77635 
L 524.930848 238.033138 
L 524.905486 238.351342 
L 524.789589 238.537143 
L 524.67374 238.742479 
L 524.587052 238.977068 
L 524.500533 239.280033 
L 524.491318 239.475412 
L 524.520962 239.700025 
L 524.666863 239.885359 
L 524.89048 240.129163 
L 525.036287 240.275425 
L 525.201461 240.411883 
L 525.395724 240.548289 
L 525.551154 240.665229 
L 525.784347 240.860174 
L 525.998027 241.006314 
L 526.269836 241.132813 
L 526.512823 241.366812 
L 526.648933 241.51309 
L 526.785188 241.717975 
L 526.872914 241.903411 
L 527.048173 242.196139 
L 527.213517 242.400972 
L 527.369045 242.556982 
L 527.524476 242.67392 
L 527.728461 242.820075 
L 527.922798 242.985783 
L 528.117086 243.131955 
L 528.272639 243.297732 
L 528.350694 243.492953 
L 528.438421 243.678388 
L 528.555237 243.863771 
L 528.575236 244.107935 
L 528.57577 244.322831 
L 528.57657 244.645175 
L 528.515023 244.804647 
L 528.369736 244.907037 
L 528.213686 245.036373 
L 528.154495 245.181876 
L 528.17602 245.429769 
L 528.267496 245.629162 
L 528.219067 245.80161 
L 528.245973 246.022558 
L 528.455831 246.141116 
L 528.708739 246.216561 
L 528.846552 246.361465 
L 528.852633 246.481066 
L 529.02641 246.621931 
L 529.200502 246.773423 
L 529.241653 246.94923 
L 529.295268 247.175801 
L 529.659682 247.281186 
L 529.908403 247.511116 
L 529.91797 247.808109 
L 530.126745 248.041648 
L 530.165651 248.090417 
L 530.185532 248.285741 
L 530.234525 248.490781 
L 530.302863 248.676249 
L 530.361552 248.881271 
L 530.332951 249.076682 
L 530.226803 249.282003 
L 530.243221 249.484683 
L 530.334439 249.672528 
L 530.444112 249.829578 
L 530.538916 250.014037 
L 530.520085 250.238734 
L 530.47214 250.453717 
L 530.492192 250.717417 
L 530.491943 250.950488 
L 530.444112 251.304963 
L 530.358016 251.592376 
L 530.300619 251.927691 
L 530.358016 252.195943 
L 530.606738 252.483355 
L 530.962359 252.611552 
L 531.137433 252.82613 
L 531.264 253.031027 
L 531.283931 253.245886 
L 531.303862 253.460745 
L 531.314171 253.704926 
L 531.372839 253.900178 
L 531.47999 254.095343 
L 531.606459 254.261168 
L 531.752445 254.475797 
L 531.995419 254.700017 
L 532.170298 254.836449 
L 532.229065 255.070773 
L 532.249316 255.412615 
L 532.346747 255.598028 
L 532.444177 255.783441 
L 532.502921 256.007996 
L 532.513157 256.222873 
L 532.533189 256.476803 
L 532.591932 256.701358 
L 532.689437 256.916075 
L 532.777344 257.16988 
L 532.913586 257.36499 
L 533.040058 257.530814 
L 533.04055 257.726171 
L 533.118712 257.960459 
L 533.235487 258.1263 
L 533.323546 258.317833 
L 533.343207 258.546123 
L 533.363141 258.760981 
L 533.518826 258.97559 
L 533.693609 259.072949 
L 533.858769 259.199629 
L 533.994939 259.365433 
L 534.102265 259.62897 
L 534.054399 259.873256 
L 533.938633 260.107899 
L 533.822843 260.332774 
L 533.745739 260.518507 
L 533.726913 260.743204 
L 533.814651 260.928633 
L 533.941687 261.112213 
L 533.882004 261.337156 
L 533.775082 261.658398 
L 533.815178 261.979639 
L 533.908734 262.287495 
L 533.801813 262.662276 
L 533.734986 263.063828 
L 533.775082 263.425224 
L 534.042387 263.65277 
L 534.216134 263.933856 
L 534.269595 264.295253 
L 534.135943 264.710189 
L 534.162674 265.084971 
L 534.416613 265.406212 
L 534.764109 265.673913 
L 534.857665 265.954999 
L 534.868011 266.355845 
L 534.868625 266.355829 
L 535.493163 266.703398 
L 538.101852 268.15512 
L 538.465942 268.271437 
L 538.74005 268.447408 
L 538.95793 268.700805 
L 539.274209 268.764155 
L 539.653742 269.09498 
L 539.92785 269.446921 
L 540.110588 269.665125 
L 540.208986 270.157843 
L 540.300355 270.523862 
L 540.504179 270.692794 
L 540.679889 271.009542 
L 540.651775 271.431871 
L 540.595548 271.847162 
L 540.651775 272.149832 
L 540.63069 272.487696 
L 540.490122 272.76221 
L 540.405781 273.156385 
L 540.370639 273.578715 
L 540.377668 274.247403 
L 540.511207 274.796432 
L 540.567434 275.035752 
L 540.722059 275.148374 
L 540.989138 275.338422 
L 541.298388 275.479199 
L 541.699007 275.584781 
L 542.057455 275.634053 
L 542.272424 275.631394 
L 542.591615 275.67873 
L 542.756712 275.785878 
L 542.757136 275.98131 
L 542.814774 276.124329 
L 543.019425 276.185975 
L 543.223124 276.205098 
L 543.455833 276.185074 
L 543.71757 276.135675 
L 543.979245 276.056962 
L 544.182689 275.958825 
L 544.386133 275.860688 
L 544.5799 275.772343 
L 544.802824 275.713253 
L 545.045251 275.70298 
L 545.336251 275.731694 
L 545.530358 275.799694 
L 545.763341 275.9067 
L 545.996408 276.052792 
L 546.268523 276.316063 
L 546.453038 276.43294 
L 546.744527 276.686398 
L 546.958157 276.812986 
L 547.249264 276.890555 
L 547.588838 276.958252 
L 547.8896 277.016258 
L 548.238851 277.074163 
L 548.539591 277.122396 
L 548.879144 277.180321 
L 549.160381 277.179736 
L 549.441576 277.159609 
L 549.674175 277.090725 
L 549.887335 277.002338 
L 550.333094 276.845066 
L 550.5269 276.776262 
L 550.778894 276.707337 
L 551.069615 276.609018 
L 551.311953 276.559656 
L 551.544657 276.539628 
L 551.932568 276.538821 
L 552.184689 276.528524 
L 552.485256 276.498584 
L 552.776425 276.605463 
L 552.980463 276.780925 
L 553.116659 276.976071 
L 553.349984 277.239414 
L 553.534562 277.385601 
L 553.709358 277.492723 
L 553.922773 277.521591 
L 554.116729 277.521186 
L 554.349732 277.637957 
L 554.456815 277.823391 
L 554.525106 278.008906 
L 554.564391 278.233567 
L 554.642467 278.458147 
L 554.846442 278.604292 
L 555.069855 278.76994 
L 555.254371 278.886811 
L 555.42921 279.013474 
L 555.613747 279.140116 
L 555.778867 279.257027 
L 555.94418 279.46188 
L 556.148392 279.71551 
L 556.216879 279.988966 
L 556.067364 280.269055 
L 556.066804 280.269576 
L 575.229883 308.696935 
L 574.934735 308.739173 
L 574.701327 308.764444 
L 574.461611 308.833939 
L 574.262125 309.01974 
L 574.087852 309.147146 
L 573.874451 309.128071 
L 573.670748 309.108975 
L 573.254024 309.236912 
L 572.915153 309.481931 
L 572.750779 309.697255 
L 572.635008 309.961328 
L 572.451417 310.254864 
L 572.277502 310.538607 
L 572.122781 310.734368 
L 571.958362 310.93015 
L 571.813495 311.194288 
L 571.697746 311.468133 
L 571.62099 311.829833 
L 571.592434 312.064402 
L 571.593017 312.31845 
L 571.651722 312.543057 
L 571.652193 312.74825 
L 571.701267 313.002191 
L 571.702143 313.383263 
L 571.673542 313.59829 
L 571.635266 313.82311 
L 571.61632 314.018574 
L 571.539386 314.302106 
L 571.510943 314.585531 
L 571.530879 314.819994 
L 571.638008 315.015181 
L 571.783863 315.180969 
L 571.958655 315.278297 
L 572.259816 315.50237 
L 572.444442 315.658301 
L 572.580576 315.81434 
L 572.658657 316.029132 
L 572.707598 316.224446 
L 572.708094 316.439409 
L 572.611788 316.732755 
L 572.495793 316.899119 
L 572.399262 317.094754 
L 572.273568 317.261139 
L 572.15755 317.417733 
L 571.983298 317.554912 
L 571.828419 317.682278 
L 571.66382 317.799894 
L 571.479734 317.878469 
L 571.29585 318.044982 
L 571.150804 318.230953 
L 571.015457 318.416903 
L 570.928714 318.651601 
L 571.016855 319.02271 
L 571.143541 319.286251 
L 571.270002 319.452082 
L 571.444932 319.608034 
L 571.581046 319.7543 
L 571.726927 319.929859 
L 571.766239 320.154508 
L 571.63096 320.369771 
L 571.495568 320.536179 
L 571.331126 320.722193 
L 571.195689 320.869059 
L 571.031201 321.035532 
L 570.847453 321.260673 
L 570.702475 321.475959 
L 570.509095 321.730435 
L 570.412519 321.906529 
L 570.345082 322.102101 
L 570.277736 322.336757 
L 570.26858 322.571285 
L 570.298195 322.795956 
L 570.444484 323.147393 
L 570.532312 323.381706 
L 570.542485 323.586878 
L 570.601151 323.791942 
L 570.621158 324.055719 
L 570.641031 324.260869 
L 570.641574 324.495374 
L 570.68082 324.690711 
L 570.758861 324.885961 
L 570.914533 325.100581 
L 571.099188 325.266281 
L 571.341965 325.402538 
L 571.545881 325.509568 
L 571.614269 325.724382 
L 571.643908 325.958823 
L 571.644385 326.164015 
L 571.606204 326.42792 
L 571.587284 326.633155 
L 571.500543 326.867855 
L 571.404013 327.063492 
L 571.249519 327.356968 
L 571.133638 327.57219 
L 571.027341 327.738536 
L 570.891971 327.914717 
L 570.756602 328.090898 
L 570.630998 328.29637 
L 570.515117 328.511593 
L 570.623026 328.748678 
L 570.79836 328.967685 
L 586.009036 361.71349 
L 585.736617 362.132268 
L 585.554983 362.555689 
L 585.43661 362.83164 
L 585.347089 363.040329 
L 585.240297 363.313849 
L 585.143221 363.52875 
L 585.07526 363.714356 
L 585.007263 364.056291 
L 584.939282 364.329831 
L 584.871301 364.603372 
L 584.851847 364.818315 
L 584.803279 365.062555 
L 584.677061 365.424 
L 584.531463 365.677959 
L 584.434391 365.873319 
L 584.317916 366.0589 
L 584.249951 366.264046 
L 584.191666 366.566905 
L 584.065455 366.899039 
L 583.987763 367.211658 
L 583.929483 367.494975 
L 583.92944 367.690388 
L 583.929395 367.895571 
L 583.929339 368.149607 
L 584.016587 368.501396 
L 584.074729 368.843398 
L 584.142587 369.126782 
L 584.142545 369.322195 
L 584.142483 369.605542 
L 584.200649 369.840068 
L 584.346144 370.064868 
L 584.617751 370.406982 
L 584.802079 370.534096 
L 585.034921 370.661235 
L 585.131895 370.915321 
L 585.20946 371.188938 
L 585.151202 371.38432 
L 585.025025 371.569896 
L 584.850347 371.687052 
L 584.685355 371.89215 
L 584.53005 372.165646 
L 584.539687 372.478311 
L 584.549343 372.70304 
L 584.558968 373.074328 
L 584.558916 373.318593 
L 584.617063 373.660595 
L 584.684941 373.865813 
L 584.684892 374.100307 
L 584.62661 374.412937 
L 584.607163 374.608339 
L 584.548895 374.852575 
L 584.383884 375.145608 
L 584.257703 375.350726 
L 584.092697 375.614449 
L 583.966514 375.829337 
L 583.840323 376.083309 
L 583.782055 376.327545 
L 583.646102 376.86486 
L 583.58784 377.079784 
L 583.578079 377.363127 
L 583.578024 377.636705 
L 583.577941 378.047071 
L 583.587599 378.2718 
L 583.59725 378.525842 
L 583.597205 378.750566 
L 583.62626 379.024159 
L 583.694138 379.239147 
L 583.810544 379.395536 
L 583.92694 379.600778 
L 584.023933 379.796239 
L 584.208266 379.92335 
L 584.58665 380.109182 
L 584.89712 380.255897 
L 585.236689 380.46125 
L 585.459829 380.617691 
L 585.624761 380.72525 
L 585.750856 380.959807 
L 585.906072 381.135755 
L 585.973952 381.350741 
L 586.041838 381.536416 
L 586.167936 381.761202 
L 586.245522 381.966423 
L 586.38132 382.210754 
L 586.390984 382.415941 
L 586.390924 382.73837 
L 586.322956 382.982601 
L 586.313182 383.363649 
L 586.313134 383.627454 
L 586.400418 383.861991 
L 586.429477 384.135581 
L 586.497324 384.545978 
L 586.516691 384.76094 
L 586.584563 385.03455 
L 586.671854 385.239774 
L 586.817354 385.50365 
L 586.885235 385.728406 
L 586.982223 385.972717 
L 586.982185 386.18767 
L 586.972441 386.412388 
L 586.875375 386.607752 
L 586.817121 386.803135 
L 586.652132 386.998467 
L 586.545355 387.232908 
L 586.41918 387.418488 
L 586.205666 387.662649 
L 586.05039 387.799362 
L 585.865996 387.984914 
L 585.710722 388.111856 
L 585.429281 388.375525 
L 585.254601 388.492688 
L 585.031411 388.580515 
L 584.847031 388.678132 
L 584.585013 388.844104 
L 584.352133 388.853762 
L 584.158067 388.853668 
L 583.886365 388.912159 
L 583.692288 388.970688 
L 583.488514 388.999901 
L 583.178008 388.999749 
L 582.935413 389.068025 
L 582.654004 389.136282 
L 582.353201 389.136134 
L 582.130025 389.136025 
L 581.877753 389.057736 
L 581.586652 389.057593 
L 581.247032 389.076967 
L 581.043249 389.145262 
L 580.839466 389.213556 
L 580.655069 389.389337 
L 580.460971 389.555343 
L 580.18926 389.643145 
L 579.956386 389.603947 
L 579.655596 389.525633 
L 579.451823 389.535302 
L 579.277131 389.701318 
L 579.121843 389.877113 
L 578.995668 390.043153 
L 578.840369 390.277573 
L 578.636558 390.482657 
L 578.364829 390.658395 
L 578.20955 390.785338 
L 578.005754 390.912256 
L 577.772858 390.980536 
L 577.549675 390.999966 
L 577.180942 391.009554 
L 576.928652 391.009428 
L 576.569612 391.067873 
L 576.346413 391.165469 
L 576.22023 391.360822 
L 576.113447 391.595267 
L 575.996958 391.839478 
L 575.938698 392.044635 
L 575.907058 392.341413 
L 575.860965 392.59176 
L 575.744474 392.845741 
L 575.725029 393.041147 
L 575.72499 393.246334 
L 575.71522 393.598077 
L 575.705468 393.852112 
L 575.656899 394.125669 
L 575.579217 394.408984 
L 575.530657 394.633688 
L 575.404459 394.907207 
L 575.26858 395.063472 
L 575.084155 395.366275 
L 575.15204 395.581266 
L 575.268454 395.737656 
L 575.336345 395.923334 
L 575.472141 396.216525 
L 575.607912 396.646505 
L 575.714605 396.900598 
L 575.869806 397.213338 
L 575.84066 397.40874 
L 575.772699 397.604122 
L 575.636791 397.91672 
L 575.627049 398.131673 
L 575.636677 398.55182 
L 575.646329 398.835178 
L 575.646263 399.206467 
L 575.733562 399.392154 
L 575.956678 399.783093 
L 576.014865 399.978536 
L 576.07304 400.246762 
L 576.072998 400.486644 
L 576.024437 400.73089 
L 575.956465 400.994668 
L 575.888503 401.199821 
L 575.709494 401.296214 
L 575.691928 444.413493 
L 575.666008 444.422021 
L 574.046119 445.190114 
L 572.249653 446.170194 
L 571.326026 447.341448 
L 570.980384 448.751053 
L 571.243791 450.317406 
L 571.674101 451.571014 
L 572.069388 453.250645 
L 572.103944 454.659959 
L 571.793224 456.030523 
L 571.373494 457.362009 
L 570.787723 458.654791 
L 569.156657 463.313377 
L 569.432162 464.6017 
L 570.055993 466.168149 
L 570.715409 468.164154 
L 571.183917 470.276866 
L 572.165008 473.643598 
L 572.668267 477.946615 
L 572.787639 481.430268 
L 572.717457 482.757939 
L 572.177829 484.01129 
L 571.087379 484.796289 
L 569.686524 485.620251 
L 567.625922 487.028989 
L 565.635706 487.813332 
L 564.284859 488.714996 
L 562.259231 489.815224 
L 561.0986 490.322921 
L 559.612633 491.497876 
L 558.413397 492.634252 
L 558.37798 494.317277 
L 558.497865 495.648511 
L 558.726402 496.94151 
L 559.53995 499.874764 
L 559.705828 501.831196 
L 559.715549 503.076098 
L 557.086964 502.595778 
L 556.439005 502.568246 
L 554.670613 502.146357 
L 554.150302 502.138385 
L 553.071751 501.821357 
L 550.736115 501.363738 
L 548.330604 501.034947 
L 546.329084 500.468075 
L 545.335463 500.307253 
L 543.800317 499.774106 
L 542.593083 499.095801 
L 541.972425 498.669952 
L 539.982603 496.84957 
L 537.935941 494.505117 
L 537.000025 493.583615 
L 535.863139 492.63822 
L 534.808393 492.036877 
L 533.621298 491.563957 
L 531.584527 491.01575 
L 527.968721 490.222112 
L 525.012387 489.768031 
L 523.297918 489.586972 
L 515.165699 489.353391 
L 511.731369 489.883455 
L 510.435421 490.016859 
L 509.488736 489.976636 
L 507.106617 490.537946 
L 504.872426 490.843532 
L 501.883065 491.453752 
L 500.804718 491.71452 
L 499.776386 492.054576 
L 498.783431 492.233373 
L 497.704817 492.209466 
L 497.045134 492.420427 
L 496.396633 492.786806 
L 495.942854 493.266905 
L 493.094843 495.26609 
L 492.395112 495.646496 
L 490.396923 496.49723 
L 488.817553 496.965862 
L 486.721889 497.976241 
L 486.267873 498.097078 
L 485.763462 498.120267 
L 483.831086 497.590234 
L 482.170463 497.560147 
L 480.253984 497.871605 
L 478.790836 497.874403 
L 477.941467 497.952081 
L 476.080577 498.828972 
L 474.635186 499.009044 
L 473.366396 499.063072 
L 472.38939 499.10475 
L 470.001994 499.923941 
L 469.560024 499.994001 
L 469.198809 499.966481 
L 468.395768 499.72787 
L 467.271206 498.478123 
L 466.261722 496.792263 
L 464.13134 495.07184 
L 463.652823 494.551461 
L 462.373814 492.656153 
L 461.210477 490.684368 
L 460.226069 489.344481 
L 458.345608 487.628466 
L 457.285304 486.763753 
L 456.405226 486.257991 
L 454.563491 485.447907 
L 453.365203 485.064577 
L 451.890969 484.844705 
L 450.873653 484.867962 
L 449.543315 484.738363 
L 448.728547 484.726193 
L 446.322896 484.955616 
L 443.471309 485.426088 
L 442.811724 485.433519 
L 441.480758 485.726786 
L 437.999296 487.141039 
L 436.428085 487.554416 
L 436.129232 487.726051 
L 435.496843 488.330142 
L 435.279207 488.947363 
L 435.220098 489.838015 
L 435.37509 490.850233 
L 435.913089 492.427314 
L 436.152658 493.452859 
L 436.009878 494.7726 
L 435.736717 495.453436 
L 435.440043 495.868731 
L 434.548604 496.877982 
L 432.393995 498.267188 
L 431.602527 498.82861 
L 430.414663 499.79667 
L 427.433529 501.903431 
L 426.59461 502.629204 
L 426.140737 503.113116 
L 424.895027 504.092834 
L 424.366433 504.932033 
L 423.302372 507.043854 
L 422.692907 507.512044 
L 422.106129 507.687389 
L 420.275168 507.604226 
L 416.907541 507.152627 
L 416.391505 507.128866 
L 415.623191 507.218568 
L 414.416155 507.733214 
L 412.669534 508.63056 
L 411.481966 509.027674 
L 410.787378 509.105702 
L 409.697119 509.030009 
L 409.351765 509.068827 
L 409.098138 509.04331 
L 408.847773 509.01812 
L 408.569812 508.887668 
L 408.222882 508.724847 
L 406.83364 508.977337 
L 406.022891 509.273945 
L 405.40921 509.629255 
L 404.725968 510.14344 
L 404.151503 510.456212 
L 403.673592 510.858078 
L 403.265839 511.365419 
L 402.72622 512.360762 
L 402.318134 512.781806 
L 401.829026 513.094242 
L 399.395637 514.45923 
L 398.127732 515.40447 
L 396.281689 518.015063 
L 395.729834 518.708938 
L 395.13034 519.275094 
L 392.966191 520.616793 
L 390.427644 521.87621 
L 389.289709 522.780899 
L 387.577474 524.798793 
L 386.808667 525.520999 
L 385.492253 526.917928 
L 384.963929 527.757445 
L 384.283802 529.244252 
L 383.370694 530.946424 
L 382.772686 531.551212 
L 381.307404 532.183859 
L 380.870697 532.416645 
L 380.004959 532.994285 
L 378.138147 534.023336 
L 377.606099 534.617621 
L 376.028344 537.735498 
L 375.860791 538.664298 
L 375.81342 539.738443 
L 375.852045 539.976659 
L 377.683197 545.683201 
L 379.657621 550.811176 
L 379.684652 551.506623 
L 380.149533 552.54953 
L 381.564655 554.249534 
L 381.685075 554.604953 
L 381.657363 554.819691 
L 381.501964 555.05776 
L 381.27678 555.209874 
L 380.767583 555.303982 
L 378.153256 555.316444 
L 376.639356 555.45195 
L 375.541167 555.447592 
L 372.067865 555.73385 
L 370.965436 555.690429 
L 369.468073 555.513156 
L 367.298874 555.484115 
L 365.449006 555.997674 
L 365.261193 555.990497 
L 363.582947 556.369472 
L 361.143812 556.1469 
L 360.627865 555.939537 
L 360.185721 555.641645 
L 359.585162 554.969948 
L 359.177152 554.692387 
L 357.489845 554.27439 
L 355.881087 554.139928 
L 355.452532 554.318801 
L 355.297128 554.545143 
L 355.141518 555.025287 
L 355.082879 555.556271 
L 355.105073 556.899098 
L 354.86797 557.379565 
L 354.409762 557.75052 
L 353.955702 557.792706 
L 352.399891 556.959731 
L 350.616964 556.25971 
L 349.611164 555.743069 
L 348.292082 555.378835 
L 347.54698 555.425065 
L 346.709464 555.073335 
L 346.445074 555.224612 
L 344.589665 555.836852 
L 343.355855 556.057978 
L 342.494316 556.127527 
L 341.954737 556.344554 
L 341.287002 556.677047 
L 340.541751 556.895067 
L 339.870788 556.913623 
L 338.925376 557.041662 
L 337.355733 556.99345 
L 336.828252 557.12614 
L 336.183431 557.429749 
L 335.64023 557.791624 
L 333.185425 559.986207 
L 332.429085 560.895704 
L 330.637223 563.333322 
L 328.957946 567.010734 
L 328.229989 567.829656 
L 327.714181 568.3446 
L 326.898792 568.851464 
L 326.044717 569.218897 
L 324.13443 569.465892 
L 323.543402 569.467308 
L 323.466846 533.160612 
L 323.381585 492.725692 
L 323.347024 476.5774 
L 323.293273 451.463425 
L 323.79472 320.931935 
L 323.84855 309.103703 
L 323.865853 298.835335 
L 323.888276 296.300468 
L 324.003836 234.200916 
L 324.007013 232.430948 
L 324.082166 191.302461 
L 324.08218 191.295238 
L 324.095109 184.153939 
L 324.096763 183.240255 
L 324.097221 182.9875 
L 324.123457 182.993433 
L 348.268778 182.993433 
L 355.46585 180.860445 
L 356.378598 180.589262 
L 364.436887 178.195103 
L 367.322768 171.662875 
L 368.878388 168.141712 
L 368.894404 168.10546 
L 369.799387 166.05702 
L 370.065529 165.454604 
L 370.199491 165.151379 
L 373.180494 158.403842 
L 373.25929 156.903144 
L 373.323594 155.678466 
L 373.330649 155.544097 
L 373.351204 155.152611 
L 373.378392 154.63481 
L 373.419809 153.846005 
L 389.656875 158.602898 
L 391.115914 159.030345 
L 393.204688 159.642283 
L 401.364635 162.032862 
L 413.542377 165.600514 
L 414.254234 167.608251 
L 415.471047 169.373684 
L 415.607004 169.564703 
L 416.661251 170.99957 
L 417.713113 172.54541 
L 417.971948 172.944032 
L 418.055634 173.070204 
L 418.141761 173.194718 
L 418.230297 173.317526 
L 418.860022 174.173313 
L 418.949081 174.291952 
L 419.040388 174.408866 
L 419.133909 174.524011 
L 419.229611 174.637344 
L 419.327457 174.748826 
L 419.427413 174.858414 
L 419.529441 174.96607 
L 421.425306 176.928594 
L 422.895062 178.4636 
L 423.001777 178.572879 
L 423.671294 179.245122 
L 423.775788 179.348078 
L 423.882207 179.449037 
L 423.968179 179.527564 
L 423.990513 179.547964 
L 424.100666 179.644823 
L 424.212628 179.739579 
L 424.326357 179.832199 
L 424.441815 179.92265 
L 424.558959 180.010899 
L 424.677747 180.096915 
L 424.798138 180.180668 
L 424.920088 180.262126 
L 426.380608 181.217855 
L 426.502618 181.296076 
L 426.626065 181.372002 
L 426.750907 181.445605 
L 426.8771 181.516859 
L 427.0046 181.585741 
L 427.133363 181.652225 
L 428.544528 182.364224 
L 429.550486 182.872077 
L 429.593562 182.893656 
L 431.526932 183.854673 
L 432.382901 184.340076 
L 432.865187 184.61357 
L 434.100641 185.323283 
L 434.935049 185.802613 
L 435.05272 185.868854 
L 436.269308 186.539819 
L 436.283312 186.547524 
L 436.372965 186.593038 
L 436.589649 186.709739 
L 437.484308 187.192528 
L 437.725651 187.316599 
L 437.93735 187.41684 
L 438.829344 187.822821 
L 438.931095 187.868251 
L 439.206863 187.982728 
L 439.263128 188.004823 
L 440.295045 189.35931 
L 441.091009 190.503965 
L 441.884638 191.875423 
L 441.959608 192.002191 
L 442.036966 192.127512 
L 442.116684 192.251341 
L 442.198733 192.373633 
L 442.283083 192.494345 
L 442.369705 192.613432 
L 443.178883 193.704 
L 443.227887 194.312196 
L 443.234881 194.430934 
L 443.245517 194.585334 
L 443.259224 194.739491 
L 443.275994 194.893344 
L 443.295823 195.046832 
L 443.318702 195.199894 
L 443.344621 195.352469 
L 443.373571 195.504496 
L 443.40554 195.655916 
L 443.440516 195.806667 
L 443.478483 195.956691 
L 443.519429 196.105927 
L 443.563336 196.254316 
L 443.610186 196.4018 
L 443.659961 196.548319 
L 443.712642 196.693816 
L 443.768207 196.838233 
L 443.826635 196.981513 
L 443.887902 197.123597 
L 443.951983 197.264432 
L 444.018854 197.403959 
L 444.088488 197.542124 
L 444.677978 198.683359 
L 444.742486 198.805566 
L 444.809155 198.926605 
L 444.877965 199.046436 
L 444.948893 199.165022 
L 445.021918 199.282325 
L 445.590918 200.178473 
L 445.674738 200.307639 
L 445.7611 200.435114 
L 445.849969 200.560849 
L 445.941311 200.684794 
L 446.03509 200.8069 
L 446.131268 200.92712 
L 446.229808 201.045405 
L 446.330671 201.16171 
L 446.433818 201.275989 
L 446.539207 201.388196 
L 446.646799 201.498288 
L 446.756548 201.606222 
L 446.868415 201.711953 
L 446.982352 201.815443 
L 447.098317 201.916649 
L 447.216264 202.015531 
L 447.336145 202.112052 
L 447.457915 202.206172 
L 448.533082 203.020298 
L 448.644735 203.103278 
L 448.757855 203.184239 
L 448.872406 203.263157 
L 448.988352 203.340005 
L 449.105654 203.414759 
L 449.224276 203.487395 
L 450.382423 204.182359 
L 451.550657 204.883127 
L 452.254009 205.447694 
L 452.367442 205.537022 
L 452.482516 205.62422 
L 452.59919 205.70926 
L 452.717423 205.79211 
L 452.837176 205.872743 
L 452.958405 205.951131 
L 453.08107 206.027246 
L 453.205128 206.101062 
L 453.330536 206.172553 
L 453.45725 206.241696 
L 453.585227 206.308465 
L 453.736616 206.385664 
L 454.989399 207.5503 
L 456.287769 208.866806 
L 457.257626 209.915537 
L 457.869483 210.714587 
L 458.172945 211.209771 
L 458.476463 212.054814 
L 458.52674 212.190794 
L 458.579543 212.32581 
L 458.634854 212.459816 
L 458.692653 212.592764 
L 458.752921 212.724608 
L 458.815636 212.855302 
L 458.880776 212.984801 
L 458.948319 213.11306 
L 459.018241 213.240033 
L 459.090518 213.365677 
L 459.964552 214.852805 
L 460.029408 214.96113 
L 460.096015 215.068385 
L 460.164354 215.17454 
L 461.042041 216.513862 
L 461.77996 217.708584 
L 461.861867 217.838312 
L 461.946318 217.966394 
L 462.03328 218.09278 
L 462.122719 218.21742 
L 462.2146 218.340266 
L 462.308887 218.461269 
L 462.405543 218.580383 
L 462.50453 218.69756 
L 463.157348 219.455032 
L 463.928586 220.349729 
L 464.162476 220.608821 
L 464.205849 220.654377 
L 465.788892 222.303651 
L 465.988498 222.50416 
L 466.191914 222.694229 
L 467.769415 224.116078 
L 468.542231 224.932493 
L 468.796741 225.23416 
" clip-path="url(#p1c1d696405)" style="fill: #cccccc; fill-opacity: 0.65"/>
   </g>
   <g id="PatchCollection_2">
    <path d="M 283.04528 344.438822 
L 323.374649 344.358905 
L 323.515558 413.384544 
L 271.588936 417.405201 
L 270.493187 412.835671 
L 270.613409 411.889638 
L 284.666553 365.19871 
L 284.707908 364.90753 
L 284.710341 364.618007 
L 283.04528 344.438822 
" clip-path="url(#p1c1d696405)" style="fill: none; stroke: #000000; stroke-width: 2"/>
   </g>
   <g id="matplotlib.axis_1">
    <g id="xtick_1">
     <g id="line2d_1">
      <path d="M 165.621289 768.96 
L 165.621289 103.68 
" clip-path="url(#p1c1d696405)" style="fill: none; stroke: #b0b0b0; stroke-width: 0.8; stroke-linecap: square"/>
     </g>
     <g id="line2d_2">
      <defs>
       <path id="m0085e9f5de" d="M 0 0 
L 0 3.5 
" style="stroke: #000000; stroke-width: 0.8"/>
      </defs>
      <g>
       <use xlink:href="#m0085e9f5de" x="165.621289" y="768.96" style="stroke: #000000; stroke-width: 0.8"/>
      </g>
     </g>
     <g id="text_1">
      <!-- −55.2 -->
      <g transform="translate(156.737708 803.002415) rotate(-45) scale(0.1 -0.1)">
       <defs>
        <path id="DejaVuSans-2212" d="M 678 2272 
L 4684 2272 
L 4684 1741 
L 678 1741 
L 678 2272 
z
" transform="scale(0.015625)"/>
        <path id="DejaVuSans-35" d="M 691 4666 
L 3169 4666 
L 3169 4134 
L 1269 4134 
L 1269 2991 
Q 1406 3038 1543 3061 
Q 1681 3084 1819 3084 
Q 2600 3084 3056 2656 
Q 3513 2228 3513 1497 
Q 3513 744 3044 326 
Q 2575 -91 1722 -91 
Q 1428 -91 1123 -41 
Q 819 9 494 109 
L 494 744 
Q 775 591 1075 516 
Q 1375 441 1709 441 
Q 2250 441 2565 725 
Q 2881 1009 2881 1497 
Q 2881 1984 2565 2268 
Q 2250 2553 1709 2553 
Q 1456 2553 1204 2497 
Q 953 2441 691 2322 
L 691 4666 
z
" transform="scale(0.015625)"/>
        <path id="DejaVuSans-2e" d="M 684 794 
L 1344 794 
L 1344 0 
L 684 0 
L 684 794 
z
" transform="scale(0.015625)"/>
        <path id="DejaVuSans-32" d="M 1228 531 
L 3431 531 
L 3431 0 
L 469 0 
L 469 531 
Q 828 903 1448 1529 
Q 2069 2156 2228 2338 
Q 2531 2678 2651 2914 
Q 2772 3150 2772 3378 
Q 2772 3750 2511 3984 
Q 2250 4219 1831 4219 
Q 1534 4219 1204 4116 
Q 875 4013 500 3803 
L 500 4441 
Q 881 4594 1212 4672 
Q 1544 4750 1819 4750 
Q 2544 4750 2975 4387 
Q 3406 4025 3406 3419 
Q 3406 3131 3298 2873 
Q 3191 2616 2906 2266 
Q 2828 2175 2409 1742 
Q 1991 1309 1228 531 
z
" transform="scale(0.015625)"/>
       </defs>
       <use xlink:href="#DejaVuSans-2212"/>
       <use xlink:href="#DejaVuSans-35" transform="translate(83.789062 0)"/>
       <use xlink:href="#DejaVuSans-35" transform="translate(147.412109 0)"/>
       <use xlink:href="#DejaVuSans-2e" transform="translate(211.035156 0)"/>
       <use xlink:href="#DejaVuSans-32" transform="translate(242.822266 0)"/>
      </g>
     </g>
    </g>
    <g id="xtick_2">
     <g id="line2d_3">
      <path d="M 251.854711 768.96 
L 251.854711 103.68 
" clip-path="url(#p1c1d696405)" style="fill: none; stroke: #b0b0b0; stroke-width: 0.8; stroke-linecap: square"/>
     </g>
     <g id="line2d_4">
      <g>
       <use xlink:href="#m0085e9f5de" x="251.854711" y="768.96" style="stroke: #000000; stroke-width: 0.8"/>
      </g>
     </g>
     <g id="text_2">
      <!-- −55.0 -->
      <g transform="translate(242.971129 803.002415) rotate(-45) scale(0.1 -0.1)">
       <defs>
        <path id="DejaVuSans-30" d="M 2034 4250 
Q 1547 4250 1301 3770 
Q 1056 3291 1056 2328 
Q 1056 1369 1301 889 
Q 1547 409 2034 409 
Q 2525 409 2770 889 
Q 3016 1369 3016 2328 
Q 3016 3291 2770 3770 
Q 2525 4250 2034 4250 
z
M 2034 4750 
Q 2819 4750 3233 4129 
Q 3647 3509 3647 2328 
Q 3647 1150 3233 529 
Q 2819 -91 2034 -91 
Q 1250 -91 836 529 
Q 422 1150 422 2328 
Q 422 3509 836 4129 
Q 1250 4750 2034 4750 
z
" transform="scale(0.015625)"/>
       </defs>
       <use xlink:href="#DejaVuSans-2212"/>
       <use xlink:href="#DejaVuSans-35" transform="translate(83.789062 0)"/>
       <use xlink:href="#DejaVuSans-35" transform="translate(147.412109 0)"/>
       <use xlink:href="#DejaVuSans-2e" transform="translate(211.035156 0)"/>
       <use xlink:href="#DejaVuSans-30" transform="translate(242.822266 0)"/>
      </g>
     </g>
    </g>
    <g id="xtick_3">
     <g id="line2d_5">
      <path d="M 338.088133 768.96 
L 338.088133 103.68 
" clip-path="url(#p1c1d696405)" style="fill: none; stroke: #b0b0b0; stroke-width: 0.8; stroke-linecap: square"/>
     </g>
     <g id="line2d_6">
      <g>
       <use xlink:href="#m0085e9f5de" x="338.088133" y="768.96" style="stroke: #000000; stroke-width: 0.8"/>
      </g>
     </g>
     <g id="text_3">
      <!-- −54.8 -->
      <g transform="translate(329.204551 803.002415) rotate(-45) scale(0.1 -0.1)">
       <defs>
        <path id="DejaVuSans-34" d="M 2419 4116 
L 825 1625 
L 2419 1625 
L 2419 4116 
z
M 2253 4666 
L 3047 4666 
L 3047 1625 
L 3713 1625 
L 3713 1100 
L 3047 1100 
L 3047 0 
L 2419 0 
L 2419 1100 
L 313 1100 
L 313 1709 
L 2253 4666 
z
" transform="scale(0.015625)"/>
        <path id="DejaVuSans-38" d="M 2034 2216 
Q 1584 2216 1326 1975 
Q 1069 1734 1069 1313 
Q 1069 891 1326 650 
Q 1584 409 2034 409 
Q 2484 409 2743 651 
Q 3003 894 3003 1313 
Q 3003 1734 2745 1975 
Q 2488 2216 2034 2216 
z
M 1403 2484 
Q 997 2584 770 2862 
Q 544 3141 544 3541 
Q 544 4100 942 4425 
Q 1341 4750 2034 4750 
Q 2731 4750 3128 4425 
Q 3525 4100 3525 3541 
Q 3525 3141 3298 2862 
Q 3072 2584 2669 2484 
Q 3125 2378 3379 2068 
Q 3634 1759 3634 1313 
Q 3634 634 3220 271 
Q 2806 -91 2034 -91 
Q 1263 -91 848 271 
Q 434 634 434 1313 
Q 434 1759 690 2068 
Q 947 2378 1403 2484 
z
M 1172 3481 
Q 1172 3119 1398 2916 
Q 1625 2713 2034 2713 
Q 2441 2713 2670 2916 
Q 2900 3119 2900 3481 
Q 2900 3844 2670 4047 
Q 2441 4250 2034 4250 
Q 1625 4250 1398 4047 
Q 1172 3844 1172 3481 
z
" transform="scale(0.015625)"/>
       </defs>
       <use xlink:href="#DejaVuSans-2212"/>
       <use xlink:href="#DejaVuSans-35" transform="translate(83.789062 0)"/>
       <use xlink:href="#DejaVuSans-34" transform="translate(147.412109 0)"/>
       <use xlink:href="#DejaVuSans-2e" transform="translate(211.035156 0)"/>
       <use xlink:href="#DejaVuSans-38" transform="translate(242.822266 0)"/>
      </g>
     </g>
    </g>
    <g id="xtick_4">
     <g id="line2d_7">
      <path d="M 424.321555 768.96 
L 424.321555 103.68 
" clip-path="url(#p1c1d696405)" style="fill: none; stroke: #b0b0b0; stroke-width: 0.8; stroke-linecap: square"/>
     </g>
     <g id="line2d_8">
      <g>
       <use xlink:href="#m0085e9f5de" x="424.321555" y="768.96" style="stroke: #000000; stroke-width: 0.8"/>
      </g>
     </g>
     <g id="text_4">
      <!-- −54.6 -->
      <g transform="translate(415.437973 803.002415) rotate(-45) scale(0.1 -0.1)">
       <defs>
        <path id="DejaVuSans-36" d="M 2113 2584 
Q 1688 2584 1439 2293 
Q 1191 2003 1191 1497 
Q 1191 994 1439 701 
Q 1688 409 2113 409 
Q 2538 409 2786 701 
Q 3034 994 3034 1497 
Q 3034 2003 2786 2293 
Q 2538 2584 2113 2584 
z
M 3366 4563 
L 3366 3988 
Q 3128 4100 2886 4159 
Q 2644 4219 2406 4219 
Q 1781 4219 1451 3797 
Q 1122 3375 1075 2522 
Q 1259 2794 1537 2939 
Q 1816 3084 2150 3084 
Q 2853 3084 3261 2657 
Q 3669 2231 3669 1497 
Q 3669 778 3244 343 
Q 2819 -91 2113 -91 
Q 1303 -91 875 529 
Q 447 1150 447 2328 
Q 447 3434 972 4092 
Q 1497 4750 2381 4750 
Q 2619 4750 2861 4703 
Q 3103 4656 3366 4563 
z
" transform="scale(0.015625)"/>
       </defs>
       <use xlink:href="#DejaVuSans-2212"/>
       <use xlink:href="#DejaVuSans-35" transform="translate(83.789062 0)"/>
       <use xlink:href="#DejaVuSans-34" transform="translate(147.412109 0)"/>
       <use xlink:href="#DejaVuSans-2e" transform="translate(211.035156 0)"/>
       <use xlink:href="#DejaVuSans-36" transform="translate(242.822266 0)"/>
      </g>
     </g>
    </g>
    <g id="xtick_5">
     <g id="line2d_9">
      <path d="M 510.554976 768.96 
L 510.554976 103.68 
" clip-path="url(#p1c1d696405)" style="fill: none; stroke: #b0b0b0; stroke-width: 0.8; stroke-linecap: square"/>
     </g>
     <g id="line2d_10">
      <g>
       <use xlink:href="#m0085e9f5de" x="510.554976" y="768.96" style="stroke: #000000; stroke-width: 0.8"/>
      </g>
     </g>
     <g id="text_5">
      <!-- −54.4 -->
      <g transform="translate(501.671395 803.002415) rotate(-45) scale(0.1 -0.1)">
       <use xlink:href="#DejaVuSans-2212"/>
       <use xlink:href="#DejaVuSans-35" transform="translate(83.789062 0)"/>
       <use xlink:href="#DejaVuSans-34" transform="translate(147.412109 0)"/>
       <use xlink:href="#DejaVuSans-2e" transform="translate(211.035156 0)"/>
       <use xlink:href="#DejaVuSans-34" transform="translate(242.822266 0)"/>
      </g>
     </g>
    </g>
    <g id="xtick_6">
     <g id="line2d_11">
      <path d="M 596.788398 768.96 
L 596.788398 103.68 
" clip-path="url(#p1c1d696405)" style="fill: none; stroke: #b0b0b0; stroke-width: 0.8; stroke-linecap: square"/>
     </g>
     <g id="line2d_12">
      <g>
       <use xlink:href="#m0085e9f5de" x="596.788398" y="768.96" style="stroke: #000000; stroke-width: 0.8"/>
      </g>
     </g>
     <g id="text_6">
      <!-- −54.2 -->
      <g transform="translate(587.904817 803.002415) rotate(-45) scale(0.1 -0.1)">
       <use xlink:href="#DejaVuSans-2212"/>
       <use xlink:href="#DejaVuSans-35" transform="translate(83.789062 0)"/>
       <use xlink:href="#DejaVuSans-34" transform="translate(147.412109 0)"/>
       <use xlink:href="#DejaVuSans-2e" transform="translate(211.035156 0)"/>
       <use xlink:href="#DejaVuSans-32" transform="translate(242.822266 0)"/>
      </g>
     </g>
    </g>
    <g id="text_7">
     <!-- Longitude (°) -->
     <g transform="translate(336.139844 816.071414) scale(0.1 -0.1)">
      <defs>
       <path id="DejaVuSans-4c" d="M 628 4666 
L 1259 4666 
L 1259 531 
L 3531 531 
L 3531 0 
L 628 0 
L 628 4666 
z
" transform="scale(0.015625)"/>
       <path id="DejaVuSans-6f" d="M 1959 3097 
Q 1497 3097 1228 2736 
Q 959 2375 959 1747 
Q 959 1119 1226 758 
Q 1494 397 1959 397 
Q 2419 397 2687 759 
Q 2956 1122 2956 1747 
Q 2956 2369 2687 2733 
Q 2419 3097 1959 3097 
z
M 1959 3584 
Q 2709 3584 3137 3096 
Q 3566 2609 3566 1747 
Q 3566 888 3137 398 
Q 2709 -91 1959 -91 
Q 1206 -91 779 398 
Q 353 888 353 1747 
Q 353 2609 779 3096 
Q 1206 3584 1959 3584 
z
" transform="scale(0.015625)"/>
       <path id="DejaVuSans-6e" d="M 3513 2113 
L 3513 0 
L 2938 0 
L 2938 2094 
Q 2938 2591 2744 2837 
Q 2550 3084 2163 3084 
Q 1697 3084 1428 2787 
Q 1159 2491 1159 1978 
L 1159 0 
L 581 0 
L 581 3500 
L 1159 3500 
L 1159 2956 
Q 1366 3272 1645 3428 
Q 1925 3584 2291 3584 
Q 2894 3584 3203 3211 
Q 3513 2838 3513 2113 
z
" transform="scale(0.015625)"/>
       <path id="DejaVuSans-67" d="M 2906 1791 
Q 2906 2416 2648 2759 
Q 2391 3103 1925 3103 
Q 1463 3103 1205 2759 
Q 947 2416 947 1791 
Q 947 1169 1205 825 
Q 1463 481 1925 481 
Q 2391 481 2648 825 
Q 2906 1169 2906 1791 
z
M 3481 434 
Q 3481 -459 3084 -895 
Q 2688 -1331 1869 -1331 
Q 1566 -1331 1297 -1286 
Q 1028 -1241 775 -1147 
L 775 -588 
Q 1028 -725 1275 -790 
Q 1522 -856 1778 -856 
Q 2344 -856 2625 -561 
Q 2906 -266 2906 331 
L 2906 616 
Q 2728 306 2450 153 
Q 2172 0 1784 0 
Q 1141 0 747 490 
Q 353 981 353 1791 
Q 353 2603 747 3093 
Q 1141 3584 1784 3584 
Q 2172 3584 2450 3431 
Q 2728 3278 2906 2969 
L 2906 3500 
L 3481 3500 
L 3481 434 
z
" transform="scale(0.015625)"/>
       <path id="DejaVuSans-69" d="M 603 3500 
L 1178 3500 
L 1178 0 
L 603 0 
L 603 3500 
z
M 603 4863 
L 1178 4863 
L 1178 4134 
L 603 4134 
L 603 4863 
z
" transform="scale(0.015625)"/>
       <path id="DejaVuSans-74" d="M 1172 4494 
L 1172 3500 
L 2356 3500 
L 2356 3053 
L 1172 3053 
L 1172 1153 
Q 1172 725 1289 603 
Q 1406 481 1766 481 
L 2356 481 
L 2356 0 
L 1766 0 
Q 1100 0 847 248 
Q 594 497 594 1153 
L 594 3053 
L 172 3053 
L 172 3500 
L 594 3500 
L 594 4494 
L 1172 4494 
z
" transform="scale(0.015625)"/>
       <path id="DejaVuSans-75" d="M 544 1381 
L 544 3500 
L 1119 3500 
L 1119 1403 
Q 1119 906 1312 657 
Q 1506 409 1894 409 
Q 2359 409 2629 706 
Q 2900 1003 2900 1516 
L 2900 3500 
L 3475 3500 
L 3475 0 
L 2900 0 
L 2900 538 
Q 2691 219 2414 64 
Q 2138 -91 1772 -91 
Q 1169 -91 856 284 
Q 544 659 544 1381 
z
M 1991 3584 
L 1991 3584 
z
" transform="scale(0.015625)"/>
       <path id="DejaVuSans-64" d="M 2906 2969 
L 2906 4863 
L 3481 4863 
L 3481 0 
L 2906 0 
L 2906 525 
Q 2725 213 2448 61 
Q 2172 -91 1784 -91 
Q 1150 -91 751 415 
Q 353 922 353 1747 
Q 353 2572 751 3078 
Q 1150 3584 1784 3584 
Q 2172 3584 2448 3432 
Q 2725 3281 2906 2969 
z
M 947 1747 
Q 947 1113 1208 752 
Q 1469 391 1925 391 
Q 2381 391 2643 752 
Q 2906 1113 2906 1747 
Q 2906 2381 2643 2742 
Q 2381 3103 1925 3103 
Q 1469 3103 1208 2742 
Q 947 2381 947 1747 
z
" transform="scale(0.015625)"/>
       <path id="DejaVuSans-65" d="M 3597 1894 
L 3597 1613 
L 953 1613 
Q 991 1019 1311 708 
Q 1631 397 2203 397 
Q 2534 397 2845 478 
Q 3156 559 3463 722 
L 3463 178 
Q 3153 47 2828 -22 
Q 2503 -91 2169 -91 
Q 1331 -91 842 396 
Q 353 884 353 1716 
Q 353 2575 817 3079 
Q 1281 3584 2069 3584 
Q 2775 3584 3186 3129 
Q 3597 2675 3597 1894 
z
M 3022 2063 
Q 3016 2534 2758 2815 
Q 2500 3097 2075 3097 
Q 1594 3097 1305 2825 
Q 1016 2553 972 2059 
L 3022 2063 
z
" transform="scale(0.015625)"/>
       <path id="DejaVuSans-20" transform="scale(0.015625)"/>
       <path id="DejaVuSans-28" d="M 1984 4856 
Q 1566 4138 1362 3434 
Q 1159 2731 1159 2009 
Q 1159 1288 1364 580 
Q 1569 -128 1984 -844 
L 1484 -844 
Q 1016 -109 783 600 
Q 550 1309 550 2009 
Q 550 2706 781 3412 
Q 1013 4119 1484 4856 
L 1984 4856 
z
" transform="scale(0.015625)"/>
       <path id="DejaVuSans-b0" d="M 1600 4347 
Q 1350 4347 1178 4173 
Q 1006 4000 1006 3750 
Q 1006 3503 1178 3333 
Q 1350 3163 1600 3163 
Q 1850 3163 2022 3333 
Q 2194 3503 2194 3750 
Q 2194 3997 2020 4172 
Q 1847 4347 1600 4347 
z
M 1600 4750 
Q 1800 4750 1984 4673 
Q 2169 4597 2303 4453 
Q 2447 4313 2519 4134 
Q 2591 3956 2591 3750 
Q 2591 3338 2302 3052 
Q 2013 2766 1594 2766 
Q 1172 2766 890 3047 
Q 609 3328 609 3750 
Q 609 4169 896 4459 
Q 1184 4750 1600 4750 
z
" transform="scale(0.015625)"/>
       <path id="DejaVuSans-29" d="M 513 4856 
L 1013 4856 
Q 1481 4119 1714 3412 
Q 1947 2706 1947 2009 
Q 1947 1309 1714 600 
Q 1481 -109 1013 -844 
L 513 -844 
Q 928 -128 1133 580 
Q 1338 1288 1338 2009 
Q 1338 2731 1133 3434 
Q 928 4138 513 4856 
z
" transform="scale(0.015625)"/>
      </defs>
      <use xlink:href="#DejaVuSans-4c"/>
      <use xlink:href="#DejaVuSans-6f" transform="translate(53.962891 0)"/>
      <use xlink:href="#DejaVuSans-6e" transform="translate(115.144531 0)"/>
      <use xlink:href="#DejaVuSans-67" transform="translate(178.523438 0)"/>
      <use xlink:href="#DejaVuSans-69" transform="translate(242 0)"/>
      <use xlink:href="#DejaVuSans-74" transform="translate(269.783203 0)"/>
      <use xlink:href="#DejaVuSans-75" transform="translate(308.992188 0)"/>
      <use xlink:href="#DejaVuSans-64" transform="translate(372.371094 0)"/>
      <use xlink:href="#DejaVuSans-65" transform="translate(435.847656 0)"/>
      <use xlink:href="#DejaVuSans-20" transform="translate(497.371094 0)"/>
      <use xlink:href="#DejaVuSans-28" transform="translate(529.158203 0)"/>
      <use xlink:href="#DejaVuSans-b0" transform="translate(568.171875 0)"/>
      <use xlink:href="#DejaVuSans-29" transform="translate(618.171875 0)"/>
     </g>
    </g>
   </g>
   <g id="matplotlib.axis_2">
    <g id="ytick_1">
     <g id="line2d_13">
      <path d="M 129.219554 761.1346 
L 608.780446 761.1346 
" clip-path="url(#p1c1d696405)" style="fill: none; stroke: #b0b0b0; stroke-width: 0.8; stroke-linecap: square"/>
     </g>
     <g id="line2d_14">
      <defs>
       <path id="mbc13486f08" d="M 0 0 
L -3.5 0 
" style="stroke: #000000; stroke-width: 0.8"/>
      </defs>
      <g>
       <use xlink:href="#mbc13486f08" x="129.219554" y="761.1346" style="stroke: #000000; stroke-width: 0.8"/>
      </g>
     </g>
     <g id="text_8">
      <!-- −4.0 -->
      <g transform="translate(97.936742 764.933819) scale(0.1 -0.1)">
       <use xlink:href="#DejaVuSans-2212"/>
       <use xlink:href="#DejaVuSans-34" transform="translate(83.789062 0)"/>
       <use xlink:href="#DejaVuSans-2e" transform="translate(147.412109 0)"/>
       <use xlink:href="#DejaVuSans-30" transform="translate(179.199219 0)"/>
      </g>
     </g>
    </g>
    <g id="ytick_2">
     <g id="line2d_15">
      <path d="M 129.219554 674.773218 
L 608.780446 674.773218 
" clip-path="url(#p1c1d696405)" style="fill: none; stroke: #b0b0b0; stroke-width: 0.8; stroke-linecap: square"/>
     </g>
     <g id="line2d_16">
      <g>
       <use xlink:href="#mbc13486f08" x="129.219554" y="674.773218" style="stroke: #000000; stroke-width: 0.8"/>
      </g>
     </g>
     <g id="text_9">
      <!-- −3.8 -->
      <g transform="translate(97.936742 678.572436) scale(0.1 -0.1)">
       <defs>
        <path id="DejaVuSans-33" d="M 2597 2516 
Q 3050 2419 3304 2112 
Q 3559 1806 3559 1356 
Q 3559 666 3084 287 
Q 2609 -91 1734 -91 
Q 1441 -91 1130 -33 
Q 819 25 488 141 
L 488 750 
Q 750 597 1062 519 
Q 1375 441 1716 441 
Q 2309 441 2620 675 
Q 2931 909 2931 1356 
Q 2931 1769 2642 2001 
Q 2353 2234 1838 2234 
L 1294 2234 
L 1294 2753 
L 1863 2753 
Q 2328 2753 2575 2939 
Q 2822 3125 2822 3475 
Q 2822 3834 2567 4026 
Q 2313 4219 1838 4219 
Q 1578 4219 1281 4162 
Q 984 4106 628 3988 
L 628 4550 
Q 988 4650 1302 4700 
Q 1616 4750 1894 4750 
Q 2613 4750 3031 4423 
Q 3450 4097 3450 3541 
Q 3450 3153 3228 2886 
Q 3006 2619 2597 2516 
z
" transform="scale(0.015625)"/>
       </defs>
       <use xlink:href="#DejaVuSans-2212"/>
       <use xlink:href="#DejaVuSans-33" transform="translate(83.789062 0)"/>
       <use xlink:href="#DejaVuSans-2e" transform="translate(147.412109 0)"/>
       <use xlink:href="#DejaVuSans-38" transform="translate(179.199219 0)"/>
      </g>
     </g>
    </g>
    <g id="ytick_3">
     <g id="line2d_17">
      <path d="M 129.219554 588.411835 
L 608.780446 588.411835 
" clip-path="url(#p1c1d696405)" style="fill: none; stroke: #b0b0b0; stroke-width: 0.8; stroke-linecap: square"/>
     </g>
     <g id="line2d_18">
      <g>
       <use xlink:href="#mbc13486f08" x="129.219554" y="588.411835" style="stroke: #000000; stroke-width: 0.8"/>
      </g>
     </g>
     <g id="text_10">
      <!-- −3.6 -->
      <g transform="translate(97.936742 592.211054) scale(0.1 -0.1)">
       <use xlink:href="#DejaVuSans-2212"/>
       <use xlink:href="#DejaVuSans-33" transform="translate(83.789062 0)"/>
       <use xlink:href="#DejaVuSans-2e" transform="translate(147.412109 0)"/>
       <use xlink:href="#DejaVuSans-36" transform="translate(179.199219 0)"/>
      </g>
     </g>
    </g>
    <g id="ytick_4">
     <g id="line2d_19">
      <path d="M 129.219554 502.050452 
L 608.780446 502.050452 
" clip-path="url(#p1c1d696405)" style="fill: none; stroke: #b0b0b0; stroke-width: 0.8; stroke-linecap: square"/>
     </g>
     <g id="line2d_20">
      <g>
       <use xlink:href="#mbc13486f08" x="129.219554" y="502.050452" style="stroke: #000000; stroke-width: 0.8"/>
      </g>
     </g>
     <g id="text_11">
      <!-- −3.4 -->
      <g transform="translate(97.936742 505.849671) scale(0.1 -0.1)">
       <use xlink:href="#DejaVuSans-2212"/>
       <use xlink:href="#DejaVuSans-33" transform="translate(83.789062 0)"/>
       <use xlink:href="#DejaVuSans-2e" transform="translate(147.412109 0)"/>
       <use xlink:href="#DejaVuSans-34" transform="translate(179.199219 0)"/>
      </g>
     </g>
    </g>
    <g id="ytick_5">
     <g id="line2d_21">
      <path d="M 129.219554 415.689069 
L 608.780446 415.689069 
" clip-path="url(#p1c1d696405)" style="fill: none; stroke: #b0b0b0; stroke-width: 0.8; stroke-linecap: square"/>
     </g>
     <g id="line2d_22">
      <g>
       <use xlink:href="#mbc13486f08" x="129.219554" y="415.689069" style="stroke: #000000; stroke-width: 0.8"/>
      </g>
     </g>
     <g id="text_12">
      <!-- −3.2 -->
      <g transform="translate(97.936742 419.488288) scale(0.1 -0.1)">
       <use xlink:href="#DejaVuSans-2212"/>
       <use xlink:href="#DejaVuSans-33" transform="translate(83.789062 0)"/>
       <use xlink:href="#DejaVuSans-2e" transform="translate(147.412109 0)"/>
       <use xlink:href="#DejaVuSans-32" transform="translate(179.199219 0)"/>
      </g>
     </g>
    </g>
    <g id="ytick_6">
     <g id="line2d_23">
      <path d="M 129.219554 329.327687 
L 608.780446 329.327687 
" clip-path="url(#p1c1d696405)" style="fill: none; stroke: #b0b0b0; stroke-width: 0.8; stroke-linecap: square"/>
     </g>
     <g id="line2d_24">
      <g>
       <use xlink:href="#mbc13486f08" x="129.219554" y="329.327687" style="stroke: #000000; stroke-width: 0.8"/>
      </g>
     </g>
     <g id="text_13">
      <!-- −3.0 -->
      <g transform="translate(97.936742 333.126906) scale(0.1 -0.1)">
       <use xlink:href="#DejaVuSans-2212"/>
       <use xlink:href="#DejaVuSans-33" transform="translate(83.789062 0)"/>
       <use xlink:href="#DejaVuSans-2e" transform="translate(147.412109 0)"/>
       <use xlink:href="#DejaVuSans-30" transform="translate(179.199219 0)"/>
      </g>
     </g>
    </g>
    <g id="ytick_7">
     <g id="line2d_25">
      <path d="M 129.219554 242.966304 
L 608.780446 242.966304 
" clip-path="url(#p1c1d696405)" style="fill: none; stroke: #b0b0b0; stroke-width: 0.8; stroke-linecap: square"/>
     </g>
     <g id="line2d_26">
      <g>
       <use xlink:href="#mbc13486f08" x="129.219554" y="242.966304" style="stroke: #000000; stroke-width: 0.8"/>
      </g>
     </g>
     <g id="text_14">
      <!-- −2.8 -->
      <g transform="translate(97.936742 246.765523) scale(0.1 -0.1)">
       <use xlink:href="#DejaVuSans-2212"/>
       <use xlink:href="#DejaVuSans-32" transform="translate(83.789062 0)"/>
       <use xlink:href="#DejaVuSans-2e" transform="translate(147.412109 0)"/>
       <use xlink:href="#DejaVuSans-38" transform="translate(179.199219 0)"/>
      </g>
     </g>
    </g>
    <g id="ytick_8">
     <g id="line2d_27">
      <path d="M 129.219554 156.604921 
L 608.780446 156.604921 
" clip-path="url(#p1c1d696405)" style="fill: none; stroke: #b0b0b0; stroke-width: 0.8; stroke-linecap: square"/>
     </g>
     <g id="line2d_28">
      <g>
       <use xlink:href="#mbc13486f08" x="129.219554" y="156.604921" style="stroke: #000000; stroke-width: 0.8"/>
      </g>
     </g>
     <g id="text_15">
      <!-- −2.6 -->
      <g transform="translate(97.936742 160.40414) scale(0.1 -0.1)">
       <use xlink:href="#DejaVuSans-2212"/>
       <use xlink:href="#DejaVuSans-32" transform="translate(83.789062 0)"/>
       <use xlink:href="#DejaVuSans-2e" transform="translate(147.412109 0)"/>
       <use xlink:href="#DejaVuSans-36" transform="translate(179.199219 0)"/>
      </g>
     </g>
    </g>
    <g id="text_16">
     <!-- Latitude (°) -->
     <g transform="translate(91.857054 464.889531) rotate(-90) scale(0.1 -0.1)">
      <defs>
       <path id="DejaVuSans-61" d="M 2194 1759 
Q 1497 1759 1228 1600 
Q 959 1441 959 1056 
Q 959 750 1161 570 
Q 1363 391 1709 391 
Q 2188 391 2477 730 
Q 2766 1069 2766 1631 
L 2766 1759 
L 2194 1759 
z
M 3341 1997 
L 3341 0 
L 2766 0 
L 2766 531 
Q 2569 213 2275 61 
Q 1981 -91 1556 -91 
Q 1019 -91 701 211 
Q 384 513 384 1019 
Q 384 1609 779 1909 
Q 1175 2209 1959 2209 
L 2766 2209 
L 2766 2266 
Q 2766 2663 2505 2880 
Q 2244 3097 1772 3097 
Q 1472 3097 1187 3025 
Q 903 2953 641 2809 
L 641 3341 
Q 956 3463 1253 3523 
Q 1550 3584 1831 3584 
Q 2591 3584 2966 3190 
Q 3341 2797 3341 1997 
z
" transform="scale(0.015625)"/>
      </defs>
      <use xlink:href="#DejaVuSans-4c"/>
      <use xlink:href="#DejaVuSans-61" transform="translate(55.712891 0)"/>
      <use xlink:href="#DejaVuSans-74" transform="translate(116.992188 0)"/>
      <use xlink:href="#DejaVuSans-69" transform="translate(156.201172 0)"/>
      <use xlink:href="#DejaVuSans-74" transform="translate(183.984375 0)"/>
      <use xlink:href="#DejaVuSans-75" transform="translate(223.193359 0)"/>
      <use xlink:href="#DejaVuSans-64" transform="translate(286.572266 0)"/>
      <use xlink:href="#DejaVuSans-65" transform="translate(350.048828 0)"/>
      <use xlink:href="#DejaVuSans-20" transform="translate(411.572266 0)"/>
      <use xlink:href="#DejaVuSans-28" transform="translate(443.359375 0)"/>
      <use xlink:href="#DejaVuSans-b0" transform="translate(482.373047 0)"/>
      <use xlink:href="#DejaVuSans-29" transform="translate(532.373047 0)"/>
     </g>
    </g>
   </g>
   <g id="patch_3">
    <path d="M 129.219554 768.96 
L 129.219554 103.68 
" style="fill: none; stroke: #000000; stroke-width: 0.8; stroke-linejoin: miter; stroke-linecap: square"/>
   </g>
   <g id="patch_4">
    <path d="M 608.780446 768.96 
L 608.780446 103.68 
" style="fill: none; stroke: #000000; stroke-width: 0.8; stroke-linejoin: miter; stroke-linecap: square"/>
   </g>
   <g id="patch_5">
    <path d="M 129.219554 768.96 
L 608.780446 768.96 
" style="fill: none; stroke: #000000; stroke-width: 0.8; stroke-linejoin: miter; stroke-linecap: square"/>
   </g>
   <g id="patch_6">
    <path d="M 129.219554 103.68 
L 608.780446 103.68 
" style="fill: none; stroke: #000000; stroke-width: 0.8; stroke-linejoin: miter; stroke-linecap: square"/>
   </g>
   <g id="legend_1">
    <g id="patch_7">
     <path d="M 263.378906 891.830125 
L 474.621094 891.830125 
Q 476.621094 891.830125 476.621094 889.830125 
L 476.621094 875.752 
Q 476.621094 873.752 474.621094 873.752 
L 263.378906 873.752 
Q 261.378906 873.752 261.378906 875.752 
L 261.378906 889.830125 
Q 261.378906 891.830125 263.378906 891.830125 
z
" style="fill: #ffffff; opacity: 0.8; stroke: #cccccc; stroke-linejoin: miter"/>
    </g>
    <g id="line2d_29">
     <defs>
      <path id="m60f54fc8e8" d="M 0 5 
C 1.326016 5 2.597899 4.473168 3.535534 3.535534 
C 4.473168 2.597899 5 1.326016 5 0 
C 5 -1.326016 4.473168 -2.597899 3.535534 -3.535534 
C 2.597899 -4.473168 1.326016 -5 0 -5 
C -1.326016 -5 -2.597899 -4.473168 -3.535534 -3.535534 
C -4.473168 -2.597899 -5 -1.326016 -5 0 
C -5 1.326016 -4.473168 2.597899 -3.535534 3.535534 
C -2.597899 4.473168 -1.326016 5 0 5 
z
"/>
     </defs>
     <g>
      <use xlink:href="#m60f54fc8e8" x="275.378906" y="882.250437" style="fill: #b3e2cd; fill-opacity: 0.65"/>
     </g>
    </g>
    <g id="text_17">
     <!-- Belterra -->
     <g transform="translate(293.378906 885.750437) scale(0.1 -0.1)">
      <defs>
       <path id="DejaVuSans-42" d="M 1259 2228 
L 1259 519 
L 2272 519 
Q 2781 519 3026 730 
Q 3272 941 3272 1375 
Q 3272 1813 3026 2020 
Q 2781 2228 2272 2228 
L 1259 2228 
z
M 1259 4147 
L 1259 2741 
L 2194 2741 
Q 2656 2741 2882 2914 
Q 3109 3088 3109 3444 
Q 3109 3797 2882 3972 
Q 2656 4147 2194 4147 
L 1259 4147 
z
M 628 4666 
L 2241 4666 
Q 2963 4666 3353 4366 
Q 3744 4066 3744 3513 
Q 3744 3084 3544 2831 
Q 3344 2578 2956 2516 
Q 3422 2416 3680 2098 
Q 3938 1781 3938 1306 
Q 3938 681 3513 340 
Q 3088 0 2303 0 
L 628 0 
L 628 4666 
z
" transform="scale(0.015625)"/>
       <path id="DejaVuSans-6c" d="M 603 4863 
L 1178 4863 
L 1178 0 
L 603 0 
L 603 4863 
z
" transform="scale(0.015625)"/>
       <path id="DejaVuSans-72" d="M 2631 2963 
Q 2534 3019 2420 3045 
Q 2306 3072 2169 3072 
Q 1681 3072 1420 2755 
Q 1159 2438 1159 1844 
L 1159 0 
L 581 0 
L 581 3500 
L 1159 3500 
L 1159 2956 
Q 1341 3275 1631 3429 
Q 1922 3584 2338 3584 
Q 2397 3584 2469 3576 
Q 2541 3569 2628 3553 
L 2631 2963 
z
" transform="scale(0.015625)"/>
      </defs>
      <use xlink:href="#DejaVuSans-42"/>
      <use xlink:href="#DejaVuSans-65" transform="translate(68.603516 0)"/>
      <use xlink:href="#DejaVuSans-6c" transform="translate(130.126953 0)"/>
      <use xlink:href="#DejaVuSans-74" transform="translate(157.910156 0)"/>
      <use xlink:href="#DejaVuSans-65" transform="translate(197.119141 0)"/>
      <use xlink:href="#DejaVuSans-72" transform="translate(258.642578 0)"/>
      <use xlink:href="#DejaVuSans-72" transform="translate(298.005859 0)"/>
      <use xlink:href="#DejaVuSans-61" transform="translate(339.119141 0)"/>
     </g>
    </g>
    <g id="line2d_30">
     <defs>
      <path id="mc8e1604ab5" d="M 0 5 
C 1.326016 5 2.597899 4.473168 3.535534 3.535534 
C 4.473168 2.597899 5 1.326016 5 0 
C 5 -1.326016 4.473168 -2.597899 3.535534 -3.535534 
C 2.597899 -4.473168 1.326016 -5 0 -5 
C -1.326016 -5 -2.597899 -4.473168 -3.535534 -3.535534 
C -4.473168 -2.597899 -5 -1.326016 -5 0 
C -5 1.326016 -4.473168 2.597899 -3.535534 3.535534 
C -2.597899 4.473168 -1.326016 5 0 5 
z
"/>
     </defs>
     <g>
      <use xlink:href="#mc8e1604ab5" x="363.419531" y="882.250437" style="fill: #cccccc; fill-opacity: 0.65"/>
     </g>
    </g>
    <g id="text_18">
     <!-- Mojuí dos Campos -->
     <g transform="translate(381.419531 885.750437) scale(0.1 -0.1)">
      <defs>
       <path id="DejaVuSans-4d" d="M 628 4666 
L 1569 4666 
L 2759 1491 
L 3956 4666 
L 4897 4666 
L 4897 0 
L 4281 0 
L 4281 4097 
L 3078 897 
L 2444 897 
L 1241 4097 
L 1241 0 
L 628 0 
L 628 4666 
z
" transform="scale(0.015625)"/>
       <path id="DejaVuSans-6a" d="M 603 3500 
L 1178 3500 
L 1178 -63 
Q 1178 -731 923 -1031 
Q 669 -1331 103 -1331 
L -116 -1331 
L -116 -844 
L 38 -844 
Q 366 -844 484 -692 
Q 603 -541 603 -63 
L 603 3500 
z
M 603 4863 
L 1178 4863 
L 1178 4134 
L 603 4134 
L 603 4863 
z
" transform="scale(0.015625)"/>
       <path id="DejaVuSans-ed" d="M 1325 5119 
L 1947 5119 
L 928 3944 
L 450 3944 
L 1325 5119 
z
M 603 3500 
L 1178 3500 
L 1178 0 
L 603 0 
L 603 3500 
z
M 891 3584 
L 891 3584 
z
" transform="scale(0.015625)"/>
       <path id="DejaVuSans-73" d="M 2834 3397 
L 2834 2853 
Q 2591 2978 2328 3040 
Q 2066 3103 1784 3103 
Q 1356 3103 1142 2972 
Q 928 2841 928 2578 
Q 928 2378 1081 2264 
Q 1234 2150 1697 2047 
L 1894 2003 
Q 2506 1872 2764 1633 
Q 3022 1394 3022 966 
Q 3022 478 2636 193 
Q 2250 -91 1575 -91 
Q 1294 -91 989 -36 
Q 684 19 347 128 
L 347 722 
Q 666 556 975 473 
Q 1284 391 1588 391 
Q 1994 391 2212 530 
Q 2431 669 2431 922 
Q 2431 1156 2273 1281 
Q 2116 1406 1581 1522 
L 1381 1569 
Q 847 1681 609 1914 
Q 372 2147 372 2553 
Q 372 3047 722 3315 
Q 1072 3584 1716 3584 
Q 2034 3584 2315 3537 
Q 2597 3491 2834 3397 
z
" transform="scale(0.015625)"/>
       <path id="DejaVuSans-43" d="M 4122 4306 
L 4122 3641 
Q 3803 3938 3442 4084 
Q 3081 4231 2675 4231 
Q 1875 4231 1450 3742 
Q 1025 3253 1025 2328 
Q 1025 1406 1450 917 
Q 1875 428 2675 428 
Q 3081 428 3442 575 
Q 3803 722 4122 1019 
L 4122 359 
Q 3791 134 3420 21 
Q 3050 -91 2638 -91 
Q 1578 -91 968 557 
Q 359 1206 359 2328 
Q 359 3453 968 4101 
Q 1578 4750 2638 4750 
Q 3056 4750 3426 4639 
Q 3797 4528 4122 4306 
z
" transform="scale(0.015625)"/>
       <path id="DejaVuSans-6d" d="M 3328 2828 
Q 3544 3216 3844 3400 
Q 4144 3584 4550 3584 
Q 5097 3584 5394 3201 
Q 5691 2819 5691 2113 
L 5691 0 
L 5113 0 
L 5113 2094 
Q 5113 2597 4934 2840 
Q 4756 3084 4391 3084 
Q 3944 3084 3684 2787 
Q 3425 2491 3425 1978 
L 3425 0 
L 2847 0 
L 2847 2094 
Q 2847 2600 2669 2842 
Q 2491 3084 2119 3084 
Q 1678 3084 1418 2786 
Q 1159 2488 1159 1978 
L 1159 0 
L 581 0 
L 581 3500 
L 1159 3500 
L 1159 2956 
Q 1356 3278 1631 3431 
Q 1906 3584 2284 3584 
Q 2666 3584 2933 3390 
Q 3200 3197 3328 2828 
z
" transform="scale(0.015625)"/>
       <path id="DejaVuSans-70" d="M 1159 525 
L 1159 -1331 
L 581 -1331 
L 581 3500 
L 1159 3500 
L 1159 2969 
Q 1341 3281 1617 3432 
Q 1894 3584 2278 3584 
Q 2916 3584 3314 3078 
Q 3713 2572 3713 1747 
Q 3713 922 3314 415 
Q 2916 -91 2278 -91 
Q 1894 -91 1617 61 
Q 1341 213 1159 525 
z
M 3116 1747 
Q 3116 2381 2855 2742 
Q 2594 3103 2138 3103 
Q 1681 3103 1420 2742 
Q 1159 2381 1159 1747 
Q 1159 1113 1420 752 
Q 1681 391 2138 391 
Q 2594 391 2855 752 
Q 3116 1113 3116 1747 
z
" transform="scale(0.015625)"/>
      </defs>
      <use xlink:href="#DejaVuSans-4d"/>
      <use xlink:href="#DejaVuSans-6f" transform="translate(86.279297 0)"/>
      <use xlink:href="#DejaVuSans-6a" transform="translate(147.460938 0)"/>
      <use xlink:href="#DejaVuSans-75" transform="translate(175.244141 0)"/>
      <use xlink:href="#DejaVuSans-ed" transform="translate(238.623047 0)"/>
      <use xlink:href="#DejaVuSans-20" transform="translate(266.40625 0)"/>
      <use xlink:href="#DejaVuSans-64" transform="translate(298.193359 0)"/>
      <use xlink:href="#DejaVuSans-6f" transform="translate(361.669922 0)"/>
      <use xlink:href="#DejaVuSans-73" transform="translate(422.851562 0)"/>
      <use xlink:href="#DejaVuSans-20" transform="translate(474.951172 0)"/>
      <use xlink:href="#DejaVuSans-43" transform="translate(506.738281 0)"/>
      <use xlink:href="#DejaVuSans-61" transform="translate(576.5625 0)"/>
      <use xlink:href="#DejaVuSans-6d" transform="translate(637.841797 0)"/>
      <use xlink:href="#DejaVuSans-70" transform="translate(735.253906 0)"/>
      <use xlink:href="#DejaVuSans-6f" transform="translate(798.730469 0)"/>
      <use xlink:href="#DejaVuSans-73" transform="translate(859.912109 0)"/>
     </g>
    </g>
   </g>
  </g>
 </g>
 <defs>
  <clipPath id="p1c1d696405">
   <rect x="129.219554" y="103.68" width="479.560891" height="665.28"/>
  </clipPath>
 </defs>
</svg>
