<?xml version="1.0" encoding="utf-8" standalone="no"?>
<!DOCTYPE svg PUBLIC "-//W3C//DTD SVG 1.1//EN"
  "http://www.w3.org/Graphics/SVG/1.1/DTD/svg11.dtd">
<svg xmlns:xlink="http://www.w3.org/1999/xlink" width="720pt" height="864pt" viewBox="0 0 720 864" xmlns="http://www.w3.org/2000/svg" version="1.1">
 <metadata>
  <rdf:RDF xmlns:dc="http://purl.org/dc/elements/1.1/" xmlns:cc="http://creativecommons.org/ns#" xmlns:rdf="http://www.w3.org/1999/02/22-rdf-syntax-ns#">
   <cc:Work>
    <dc:type rdf:resource="http://purl.org/dc/dcmitype/StillImage"/>
    <dc:date>2025-06-16T16:54:11.945269</dc:date>
    <dc:format>image/svg+xml</dc:format>
    <dc:creator>
     <cc:Agent>
      <dc:title>Matplotlib v3.10.1, https://matplotlib.org/</dc:title>
     </cc:Agent>
    </dc:creator>
   </cc:Work>
  </rdf:RDF>
 </metadata>
 <defs>
  <style type="text/css">*{stroke-linejoin: round; stroke-linecap: butt}</style>
 </defs>
 <g id="figure_1">
  <g id="patch_1">
   <path d="M 0 864 
L 720 864 
L 720 0 
L 0 0 
z
" style="fill: #ffffff"/>
  </g>
  <g id="axes_1">
   <g id="patch_2">
    <path d="M 90 656.828539 
L 648 656.828539 
L 648 215.811461 
L 90 215.811461 
z
" style="fill: #ffffff"/>
   </g>
   <g id="PatchCollection_1">
    <path d="M 523.218585 393.095535 
L 523.567825 393.14189 
L 524.065345 393.207715 
L 524.742694 393.297331 
L 525.480193 394.614337 
L 526.543145 395.88518 
L 528.152955 395.92436 
L 529.547089 395.704609 
L 531.077363 396.666563 
L 532.084155 397.981327 
L 535.099985 399.157891 
L 536.109312 400.298524 
L 537.463727 399.900632 
L 538.644157 401.218268 
L 540.25207 401.609422 
L 541.177788 403.055738 
L 541.743831 404.722994 
L 542.803303 406.084206 
L 545.096752 406.199896 
L 546.427198 407.659807 
L 548.153435 407.619978 
L 549.722356 408.556157 
L 550.033468 409.946498 
L 552.082998 409.967945 
L 553.412757 411.336397 
L 554.821089 411.782565 
L 556.260279 411.748517 
L 557.922816 412.265673 
L 559.303142 411.897483 
L 561.786233 413.378169 
L 561.817094 413.408066 
L 562.899637 414.456772 
L 566.937086 411.877083 
L 568.697955 412.816283 
L 569.566458 414.263229 
L 570.414083 412.497935 
L 571.820814 411.693959 
L 574.371433 409.390729 
L 575.737344 409.755345 
L 579.295837 409.290766 
L 580.770139 408.769488 
L 581.023507 406.687662 
L 583.078648 407.389395 
L 585.372351 407.060157 
L 585.30476 405.146796 
L 586.525286 403.870598 
L 588.779754 403.586081 
L 588.846373 401.541112 
L 591.060462 400.530373 
L 592.725371 400.443051 
L 594.640154 400.009516 
L 593.944561 397.796012 
L 595.100934 396.759686 
L 596.156045 398.630416 
L 598.171502 397.747505 
L 598.747925 396.43799 
L 600.37303 397.220234 
L 601.687381 395.774095 
L 600.516626 394.121459 
L 600.961988 392.743003 
L 602.516473 392.930692 
L 604.16539 393.491295 
L 605.641572 392.731216 
L 607.375459 392.520202 
L 610.632749 392.893411 
L 612.660472 392.498528 
L 613.587319 394.056939 
L 615.463868 393.21478 
L 615.973715 391.330357 
L 617.260069 390.080284 
L 619.255932 391.71982 
L 618.733924 391.718072 
L 618.74125 391.749833 
L 619.018653 392.952467 
L 618.872697 393.605343 
L 618.006736 394.038439 
L 617.572 394.907755 
L 617.784536 396.142319 
L 620.153146 399.124635 
L 620.656439 399.489326 
L 621.122868 400.18015 
L 621.048012 400.90595 
L 620.688155 401.049469 
L 619.893347 401.773025 
L 619.674935 402.498289 
L 620.248505 403.515784 
L 620.606499 404.242747 
L 620.317459 404.531845 
L 619.884959 404.675978 
L 619.812125 404.965876 
L 619.810807 405.328692 
L 619.450086 405.473096 
L 618.801375 405.615996 
L 618.511812 406.050833 
L 618.150466 406.484967 
L 618.002605 407.790838 
L 618.28866 408.444888 
L 618.683697 408.917923 
L 619.547738 409.138188 
L 620.626507 409.649415 
L 621.201258 410.231861 
L 621.487587 410.813247 
L 621.127035 411.02987 
L 621.270505 411.175265 
L 621.414674 411.248441 
L 621.413107 411.683905 
L 621.340545 411.901588 
L 621.3395 412.191753 
L 621.483666 412.264494 
L 621.483145 412.409794 
L 621.266414 412.554302 
L 621.050638 412.553507 
L 620.833907 412.698015 
L 620.905341 412.916228 
L 620.76004 413.278515 
L 620.182756 413.639651 
L 619.748423 414.291484 
L 619.314614 414.798452 
L 619.241269 415.233655 
L 619.384918 415.451695 
L 619.744344 415.670529 
L 619.887733 415.96122 
L 619.417687 416.504168 
L 619.632252 417.085287 
L 620.421425 418.176188 
L 620.709075 418.394751 
L 621.067905 418.90374 
L 621.066613 419.26699 
L 620.993795 419.556891 
L 620.489067 419.700356 
L 620.488809 419.773006 
L 620.560509 419.918567 
L 620.920718 419.919442 
L 621.136417 420.065527 
L 620.909293 420.46292 
L 620.84661 420.572593 
L 620.845752 420.935405 
L 621.132972 421.153968 
L 621.780581 421.446048 
L 621.92458 421.446572 
L 622.134881 423.47936 
L 622.420997 424.133377 
L 622.636364 424.496967 
L 622.599099 424.823543 
L 622.165813 425.184793 
L 621.373085 425.327664 
L 620.86784 425.616441 
L 620.505745 426.268553 
L 620.358919 427.066315 
L 619.708567 427.790039 
L 619.20332 428.078822 
L 618.987105 428.078478 
L 619.13213 427.788396 
L 619.133415 427.425578 
L 618.844465 427.569841 
L 618.484249 427.568976 
L 618.341277 427.278287 
L 618.415451 426.479829 
L 617.841672 425.607242 
L 616.906828 425.096597 
L 616.473878 425.240334 
L 616.258178 425.094683 
L 616.367488 424.695711 
L 616.007274 424.694839 
L 615.069252 425.199999 
L 614.925851 424.909307 
L 614.566411 424.690477 
L 614.133637 424.906861 
L 613.77161 425.413683 
L 613.410795 425.70298 
L 612.833842 425.846192 
L 612.330143 425.699489 
L 612.113666 425.771357 
L 611.967856 426.278967 
L 610.671246 426.202471 
L 610.237953 426.564163 
L 610.377569 428.161308 
L 610.879724 428.743493 
L 611.672121 428.818147 
L 612.605785 429.90958 
L 612.924214 431.761426 
L 612.634412 432.268518 
L 612.274187 432.267219 
L 610.978071 432.045885 
L 609.752368 432.332073 
L 609.24575 433.129001 
L 609.099871 433.781923 
L 609.098327 434.216975 
L 609.385741 434.508191 
L 609.8892 434.727536 
L 610.031586 435.308409 
L 609.958779 435.598761 
L 610.173978 435.889716 
L 610.173208 436.107241 
L 610.028103 436.542203 
L 610.387563 436.761023 
L 610.530724 437.124369 
L 610.41752 438.757151 
L 609.984739 438.973559 
L 609.336575 438.826363 
L 608.615529 439.114389 
L 608.397771 439.549103 
L 608.757162 439.913224 
L 609.116373 440.204696 
L 609.115021 440.712397 
L 608.68122 441.218988 
L 608.176803 441.144967 
L 608.104509 441.290014 
L 608.247168 441.798669 
L 607.886934 441.79738 
L 607.237744 441.94037 
L 607.164684 442.302945 
L 606.514072 443.099382 
L 606.513053 443.389565 
L 606.800814 443.463252 
L 607.377528 443.392222 
L 607.665723 443.465904 
L 608.130604 444.519534 
L 608.056279 445.244944 
L 607.407267 445.460593 
L 606.90513 444.733559 
L 606.113457 444.440983 
L 605.464445 444.656629 
L 604.381882 445.306222 
L 603.875604 445.885225 
L 603.802803 446.175586 
L 604.16126 446.684588 
L 605.167901 447.340773 
L 605.238784 447.849173 
L 604.948484 448.501169 
L 604.947727 448.719134 
L 605.162689 449.082306 
L 605.269124 449.626946 
L 605.194556 450.425021 
L 605.91522 450.499794 
L 606.129179 451.153581 
L 607.20915 451.374938 
L 607.352838 451.592973 
L 607.063307 452.027442 
L 606.26934 452.38791 
L 606.052031 452.822634 
L 606.190877 454.565106 
L 606.189116 455.072817 
L 606.331808 455.581469 
L 607.195241 456.019569 
L 607.409721 456.528038 
L 607.624954 456.818979 
L 607.479944 457.109088 
L 607.083392 457.289109 
L 607.009668 457.724348 
L 607.369351 458.015792 
L 607.224587 458.232813 
L 606.93588 458.304892 
L 606.719893 458.231479 
L 606.649355 457.868387 
L 605.568111 458.01033 
L 604.488185 457.644125 
L 603.911884 457.714747 
L 603.549631 458.294285 
L 603.260352 458.65611 
L 602.683365 458.799392 
L 602.682547 459.162231 
L 602.393018 459.596714 
L 601.672838 459.377083 
L 600.303813 459.445348 
L 599.221239 460.095006 
L 598.931206 460.674807 
L 598.673901 462.234079 
L 598.239607 462.886032 
L 597.734339 463.174885 
L 597.733772 463.465075 
L 597.659798 463.972987 
L 596.938222 464.40596 
L 595.928183 464.838357 
L 595.495453 464.909496 
L 595.206674 465.126455 
L 595.277395 465.561783 
L 595.13288 465.706592 
L 594.483594 465.994943 
L 594.337576 466.57483 
L 594.335579 467.15566 
L 593.901784 467.662312 
L 593.541275 467.733707 
L 593.180519 467.877759 
L 593.035502 468.167451 
L 593.178954 468.458152 
L 593.213946 468.785023 
L 592.420201 469.072444 
L 591.987154 469.36156 
L 591.697374 469.868725 
L 591.408589 470.085255 
L 591.048581 470.011768 
L 590.977852 469.575997 
L 590.690071 469.50276 
L 590.400601 469.791953 
L 590.184544 469.86385 
L 589.175556 469.860745 
L 588.238478 470.075431 
L 587.732699 470.509182 
L 587.226172 471.160915 
L 586.934887 472.10318 
L 586.283031 473.262596 
L 585.272218 473.912133 
L 583.901643 474.415957 
L 583.361873 474.23306 
L 581.636917 472.775929 
L 580.773125 472.555331 
L 579.836357 472.552465 
L 579.403301 472.841588 
L 579.401292 473.422018 
L 579.760234 473.931051 
L 579.830456 474.511732 
L 579.756227 475.092344 
L 579.971156 475.600866 
L 580.33092 475.747022 
L 580.183655 476.690255 
L 579.895366 476.761904 
L 579.462871 476.760388 
L 579.748596 477.559379 
L 579.60308 477.994413 
L 579.413981 477.889754 
L 578.859903 477.583093 
L 578.290107 476.992766 
L 578.01813 476.83498 
L 577.680691 476.755636 
L 577.446538 476.950823 
L 577.257085 477.234388 
L 576.970829 477.442204 
L 576.659194 477.480551 
L 576.101767 477.217302 
L 575.77739 477.190057 
L 575.452279 477.280729 
L 574.840199 477.80156 
L 574.143864 477.983735 
L 573.424986 478.277489 
L 572.999309 478.768883 
L 572.866867 479.360017 
L 572.148139 479.620705 
L 571.77131 480.227857 
L 571.735813 481.114906 
L 571.504521 482.001458 
L 571.209535 482.460847 
L 570.588701 482.721574 
L 570.326375 483.082351 
L 570.029821 483.969033 
L 569.60525 484.131922 
L 567.872149 485.342461 
L 567.200229 486.244119 
L 566.7736 487.031418 
L 566.283939 487.062593 
L 565.72914 487.159594 
L 565.400438 487.848591 
L 565.073306 488.110726 
L 563.99541 488.501567 
L 562.982191 488.925358 
L 561.708642 489.282631 
L 560.387174 489.327894 
L 559.766484 489.555996 
L 559.438575 489.982184 
L 559.2735 490.573197 
L 559.011295 490.999694 
L 558.618886 491.261088 
L 557.900447 491.456091 
L 557.638883 491.652401 
L 557.604529 492.112629 
L 557.798737 492.638778 
L 558.188603 493.198928 
L 558.838956 493.792523 
L 559.081741 494.40136 
L 558.753811 494.926329 
L 556.727425 496.037209 
L 556.236319 496.561409 
L 555.3172 498.168855 
L 555.479097 498.629578 
L 555.771405 499.02478 
L 556.437899 499.773137 
L 556.852895 500.419657 
L 557.063673 501.403418 
L 557.059541 502.745836 
L 556.816457 504.231296 
L 556.361534 505.116797 
L 556.002504 505.66729 
L 555.85749 506.361709 
L 555.558406 506.900374 
L 554.81915 507.257469 
L 554.057357 507.422864 
L 553.794626 507.685777 
L 553.816798 508.18904 
L 554.148382 508.645685 
L 556.143628 509.827257 
L 556.618858 510.188229 
L 556.83147 510.572353 
L 556.924769 511.148098 
L 556.875569 511.699401 
L 556.50565 512.04592 
L 555.694028 512.690411 
L 554.141316 514.387384 
L 552.589576 515.844601 
L 551.730977 516.441211 
L 551.181829 516.894595 
L 550.978321 517.313658 
L 550.929065 517.807537 
L 551.020422 518.862403 
L 551.254146 520.277638 
L 551.29883 521.117075 
L 551.154837 521.523877 
L 550.699526 522.361561 
L 550.102206 523.030772 
L 548.705773 524.332661 
L 547.607706 525.215967 
L 547.416096 525.550954 
L 547.295565 526.054163 
L 547.152107 526.2212 
L 546.174282 526.769275 
L 545.959195 527.056601 
L 545.548766 528.805126 
L 545.071211 529.234855 
L 545.069938 529.690472 
L 545.28133 530.482354 
L 545.267979 530.949825 
L 544.836325 531.955302 
L 544.833619 532.746435 
L 544.736348 533.32125 
L 544.233859 534.086709 
L 544.089404 534.5897 
L 543.731089 535.020143 
L 543.228373 535.809542 
L 542.607799 536.406761 
L 542.439882 536.813791 
L 542.306583 537.448543 
L 542.067298 537.855325 
L 541.685066 538.23768 
L 540.464532 540.151277 
L 540.034356 540.72509 
L 539.557289 541.011236 
L 539.174793 541.513268 
L 538.935787 541.752082 
L 538.648596 542.254591 
L 538.24288 542.588856 
L 537.920144 543.007255 
L 537.70387 543.557886 
L 537.083311 544.10726 
L 536.844026 544.514054 
L 536.675432 544.992905 
L 536.626306 545.448084 
L 536.672715 545.879801 
L 536.386519 546.046794 
L 535.980313 546.524676 
L 535.736282 547.092609 
L 535.620325 547.362476 
L 535.214381 547.720686 
L 534.784241 548.19878 
L 533.07475 550.482276 
L 531.903584 551.86854 
L 530.731951 553.350991 
L 530.518433 553.790338 
L 530.39764 554.038887 
L 530.32708 554.183569 
L 530.324532 554.188793 
L 530.17983 554.811496 
L 529.654848 555.193391 
L 529.283964 555.779344 
L 528.806643 556.137324 
L 528.638747 556.496078 
L 528.498508 556.669207 
L 528.266531 556.851639 
L 527.994017 557.0692 
L 527.420402 557.762683 
L 527.39574 557.978315 
L 527.275958 558.26528 
L 527.089823 558.35805 
L 527.084872 558.360518 
L 526.870526 558.383719 
L 526.727749 558.479404 
L 526.679375 558.670874 
L 526.535903 558.886242 
L 526.202312 558.909181 
L 525.94006 559.028108 
L 525.486444 559.409822 
L 525.31952 559.481349 
L 524.766028 560.125123 
L 524.734044 560.162323 
L 523.587791 561.213337 
L 523.56332 561.500778 
L 523.491482 561.596714 
L 522.680525 562.072954 
L 522.417789 562.335936 
L 521.988623 562.478086 
L 521.8212 562.74154 
L 521.391292 563.147425 
L 521.294499 563.674424 
L 521.12733 563.817763 
L 520.675146 563.816066 
L 520.483814 563.983117 
L 520.340098 564.270301 
L 519.982275 564.508877 
L 519.612629 564.639629 
L 519.468445 565.022561 
L 519.277757 565.213543 
L 518.538896 565.474608 
L 518.466797 565.690229 
L 518.465638 565.906098 
L 518.346115 566.073392 
L 518.179172 566.192794 
L 518.226576 566.288559 
L 518.130765 566.480016 
L 517.772715 566.742534 
L 517.676662 567.005802 
L 517.365342 567.436335 
L 517.103763 567.483453 
L 516.913378 567.410702 
L 516.604166 567.385558 
L 516.413527 567.432925 
L 515.555142 567.861725 
L 514.658573 568.90102 
L 514.633639 569.284656 
L 514.298211 569.894711 
L 513.699695 570.827387 
L 513.481986 571.809822 
L 513.382084 573.223824 
L 513.187142 574.469364 
L 512.599728 575.774062 
L 512.260315 577.467404 
L 510.151022 581.654866 
L 509.863659 582.037774 
L 509.363293 582.251517 
L 509.194943 582.706494 
L 509.193035 583.281868 
L 508.846372 583.652244 
L 508.678009 584.155097 
L 508.224605 584.512923 
L 507.93721 584.991148 
L 507.981333 585.950417 
L 507.644597 587.004005 
L 507.142617 587.529389 
L 506.756835 588.894597 
L 506.754461 589.613602 
L 506.084015 590.87644 
L 505.684939 591.275145 
L 505.267184 591.579137 
L 505.152353 591.883502 
L 505.074997 592.34117 
L 504.904151 592.511981 
L 504.202175 592.814568 
L 503.707326 593.556645 
L 503.327237 593.936909 
L 502.944489 595.003115 
L 501.946754 596.01992 
L 501.338898 596.532769 
L 501.147447 597.180344 
L 499.474311 598.947814 
L 498.979757 599.575443 
L 498.466616 600.069619 
L 497.992097 600.353672 
L 495.779091 602.300477 
L 494.106436 603.926972 
L 493.289091 604.819923 
L 492.984266 605.295731 
L 492.849698 605.829227 
L 492.809091 606.553835 
L 492.637189 607.048925 
L 492.23794 607.428948 
L 491.876164 607.961411 
L 491.769976 608.50467 
L 491.370433 608.999168 
L 490.022372 610.023934 
L 489.813021 610.270835 
L 489.623314 610.327357 
L 489.377585 610.250318 
L 489.112142 610.30664 
L 488.97926 610.439698 
L 488.845379 610.705953 
L 488.655914 610.839077 
L 488.448077 610.666382 
L 488.258934 610.589711 
L 488.031524 610.664848 
L 487.650889 611.083016 
L 487.631317 611.330849 
L 487.4602 611.520829 
L 486.626435 611.689693 
L 486.284594 611.917313 
L 486.036814 612.297745 
L 485.817016 612.840282 
L 485.626917 613.049583 
L 485.361276 613.182079 
L 485.001275 613.275801 
L 484.110581 613.405997 
L 483.67392 613.690607 
L 483.389688 613.689642 
L 482.992479 613.611765 
L 482.367596 613.628613 
L 482.271286 614.00945 
L 481.967746 614.237169 
L 480.658414 614.919068 
L 480.334526 615.356331 
L 479.964738 615.574191 
L 479.263582 615.629147 
L 478.941253 615.799578 
L 478.67468 616.122731 
L 478.540838 616.541775 
L 478.350564 616.731496 
L 477.667995 616.919916 
L 477.4386 617.509999 
L 476.793141 617.908329 
L 476.489033 618.269251 
L 476.071516 618.553699 
L 475.88088 618.801316 
L 475.709166 619.21983 
L 475.500079 619.448024 
L 474.902831 619.588683 
L 474.370906 619.979483 
L 473.231128 620.985927 
L 472.469875 621.974659 
L 471.632296 623.19216 
L 471.059368 624.410368 
L 470.718148 624.561823 
L 470.08266 624.75985 
L 469.816349 625.063862 
L 469.663451 625.444351 
L 469.340092 625.843761 
L 467.93534 626.715902 
L 467.136574 627.6471 
L 466.698748 628.293905 
L 466.110029 628.711344 
L 465.018573 629.326946 
L 463.955006 630.142974 
L 462.681977 631.24424 
L 461.049068 632.356974 
L 460.28997 632.754603 
L 459.910212 633.077481 
L 459.6438 633.419813 
L 459.283779 633.513547 
L 458.520416 633.82285 
L 457.475738 632.739924 
L 451.060424 632.331322 
L 449.61263 632.474272 
L 448.084226 631.965381 
L 445.991144 632.036086 
L 444.51636 632.62416 
L 443.080457 632.68427 
L 443.159115 631.233924 
L 441.456192 631.122674 
L 440.114266 631.97033 
L 438.277222 631.95254 
L 436.856131 632.757796 
L 433.608721 630.648357 
L 432.171438 631.544297 
L 430.681522 630.903474 
L 428.431297 628.981082 
L 426.929344 629.152267 
L 425.667012 630.395386 
L 424.309294 629.887447 
L 423.813667 627.959204 
L 423.799401 626.422494 
L 422.739795 625.205758 
L 420.727977 625.056998 
L 419.346057 625.865776 
L 417.508484 625.232215 
L 414.611545 626.412067 
L 413.376174 625.552495 
L 408.88197 624.244913 
L 407.163209 622.901411 
L 405.410232 622.632733 
L 404.131262 623.068764 
L 400.929006 627.20147 
L 399.582987 628.140553 
L 398.065471 628.375766 
L 397.346456 630.144532 
L 395.707702 633.020263 
L 394.551036 634.26339 
L 392.740737 636.782308 
L 377.775326 618.805021 
L 377.135447 618.036291 
L 346.574 581.304337 
L 226.229242 436.422071 
L 224.557996 436.797928 
L 222.557789 436.930943 
L 221.606371 438.162786 
L 220.989907 439.565975 
L 219.712562 440.319692 
L 216.022692 441.458295 
L 214.197041 441.725505 
L 212.683625 442.385569 
L 210.843083 442.874661 
L 209.331294 442.523856 
L 207.936189 443.358193 
L 206.322629 443.53971 
L 205.142094 444.328444 
L 203.666844 444.857942 
L 202.971388 446.175088 
L 201.182908 446.706488 
L 199.698952 446.003376 
L 197.874704 446.405184 
L 196.477191 446.976802 
L 195.07915 446.712681 
L 189.553385 447.164179 
L 186.45589 446.114328 
L 184.977806 446.204144 
L 184.054528 444.891078 
L 182.485647 444.583704 
L 180.738168 444.718627 
L 177.870399 443.367579 
L 176.339813 443.059881 
L 175.118035 443.809689 
L 173.775854 443.327591 
L 172.557452 442.103325 
L 171.198573 441.358993 
L 170.849724 439.998017 
L 169.320687 439.124614 
L 168.917942 437.588837 
L 167.136996 434.917477 
L 167.094399 433.248313 
L 166.731288 431.233299 
L 167.173948 429.34793 
L 165.993754 428.515479 
L 165.861747 427.108862 
L 163.807111 424.526104 
L 162.464916 423.484303 
L 161.676117 422.20576 
L 160.399957 421.32949 
L 159.835989 419.796103 
L 156.253684 416.422375 
L 157.437123 415.237614 
L 155.987527 414.493712 
L 155.247889 413.265299 
L 154.161208 412.170553 
L 152.766943 411.25233 
L 150.886062 408.711597 
L 149.71001 407.705478 
L 148.00601 407.268378 
L 147.092018 406.04158 
L 145.910825 405.164899 
L 144.86472 403.586014 
L 143.215692 402.799812 
L 141.684249 402.889626 
L 140.637752 401.925209 
L 140.195934 399.121226 
L 139.416251 397.191718 
L 138.196671 396.22806 
L 136.665687 396.317816 
L 135.757507 395.221178 
L 134.30527 394.695403 
L 133.046319 393.819582 
L 132.697596 392.41823 
L 133.476408 391.145316 
L 133.395454 389.654033 
L 130.374119 386.194339 
L 129.018923 385.231093 
L 127.0601 382.604544 
L 125.639829 382.471127 
L 125.143569 380.982712 
L 124.350798 379.575693 
L 125.262517 376.767251 
L 124.135935 373.701979 
L 124.039763 369.182913 
L 123.34613 367.444354 
L 123.210993 366.333009 
L 122.38073 365.149352 
L 121.978788 363.570009 
L 121.897671 361.900828 
L 120.017568 357.385354 
L 118.181709 354.800349 
L 117.829545 353.046713 
L 117.176042 351.556228 
L 117.039235 349.934471 
L 116.476956 348.487368 
L 116.596464 347.518503 
L 116.650894 347.082271 
L 118.031246 344.451101 
L 118.071565 341.245099 
L 118.719233 339.274512 
L 119.816871 338.298086 
L 119.87438 337.208622 
L 119.979062 335.225514 
L 119.372545 333.656228 
L 118.354261 332.228784 
L 118.972021 330.458917 
L 120.125335 329.161792 
L 118.23681 324.327075 
L 117.989834 322.79018 
L 118.301087 321.157963 
L 119.012748 319.696939 
L 118.367894 318.03678 
L 118.652387 316.496281 
L 119.186056 315.080496 
L 119.103487 313.149782 
L 120.042891 311.857661 
L 122.351222 309.832782 
L 123.742791 309.363556 
L 124.819575 306.44613 
L 124.176871 305.095421 
L 125.384764 304.280956 
L 124.537165 303.114246 
L 125.194868 301.25311 
L 124.956008 298.05125 
L 125.047618 296.205699 
L 124.162068 295.078879 
L 123.988625 293.198489 
L 124.081842 291.523774 
L 123.398532 290.134071 
L 124.068067 288.799384 
L 124.082916 287.041948 
L 125.692087 284.508086 
L 125.708962 281.084848 
L 123.478931 280.686957 
L 123.94319 279.147938 
L 123.944462 279.01151 
L 122.810582 277.535857 
L 122.071989 275.661813 
L 122.299693 273.856318 
L 122.163319 271.703686 
L 120.621479 268.620213 
L 120.380787 267.129878 
L 118.986662 267.331293 
L 118.78499 265.754827 
L 117.575022 264.328398 
L 115.363636 262.572926 
L 116.191942 260.297087 
L 117.215653 259.243867 
L 117.481005 257.258972 
L 117.376003 254.491092 
L 118.863421 254.464783 
L 120.018137 253.563276 
L 122.084465 254.225732 
L 124.110712 253.609219 
L 124.725684 253.29268 
L 124.121267 252.027024 
L 124.122973 251.755044 
L 125.507026 251.082609 
L 126.753721 252.285203 
L 127.610745 253.543952 
L 128.98054 254.349968 
L 130.506907 254.361716 
L 132.023021 254.069312 
L 132.309634 252.615223 
L 133.717984 253.199122 
L 133.475169 254.699986 
L 132.844945 256.072658 
L 134.25162 256.398099 
L 135.499024 255.710843 
L 137.19103 257.04115 
L 139.256544 257.703896 
L 140.45061 256.841784 
L 140.332409 255.265324 
L 142.209806 255.095146 
L 141.953762 253.253321 
L 142.757867 251.875615 
L 144.286858 252.288259 
L 144.968695 253.547181 
L 147.439604 252.446097 
L 147.975903 249.225395 
L 149.719168 246.643917 
L 151.341806 249.333889 
L 153.519646 247.179691 
L 155.087469 246.886924 
L 156.870031 246.848546 
L 158.242322 247.833072 
L 159.796948 247.05534 
L 162.198768 249.200929 
L 163.940807 248.950984 
L 165.498749 246.503296 
L 166.627723 245.603319 
L 167.191477 243.393656 
L 168.733457 244.4598 
L 170.169076 244.035845 
L 170.393994 242.404986 
L 172.756107 242.48997 
L 172.984377 240.906168 
L 174.099402 239.871222 
L 175.627466 240.147816 
L 177.079315 240.735173 
L 178.271439 239.524544 
L 179.104047 241.880406 
L 180.33929 244.491539 
L 181.63925 243.939046 
L 181.729503 242.400654 
L 181.04643 240.961534 
L 182.351744 240.364574 
L 186.28062 240.726224 
L 187.947019 238.976476 
L 188.572912 237.690772 
L 190.227211 237.266228 
L 191.474219 236.534584 
L 192.72072 237.563774 
L 193.620736 238.864116 
L 197.724978 239.44236 
L 198.235474 241.012373 
L 200.490408 240.086596 
L 201.962809 239.837518 
L 202.688682 241.099306 
L 202.754719 242.589913 
L 203.909396 243.532473 
L 205.773791 242.077709 
L 208.014052 241.561144 
L 209.423934 242.366887 
L 210.281 243.798973 
L 211.904772 244.076039 
L 213.474724 244.043234 
L 214.264086 242.443225 
L 215.889601 242.980818 
L 216.923179 244.145449 
L 218.814294 242.791158 
L 220.292238 242.720616 
L 220.923384 244.11058 
L 224.047835 243.170135 
L 225.752729 243.223952 
L 226.729672 244.432903 
L 228.29549 243.786627 
L 230.609929 243.827137 
L 233.933026 242.750685 
L 234.080054 241.341149 
L 235.411886 240.303055 
L 237.327596 239.960693 
L 238.213856 238.490833 
L 239.288255 239.964812 
L 240.872265 240.148796 
L 242.105575 239.204613 
L 243.43261 240.097412 
L 244.841945 240.685114 
L 247.670639 240.321252 
L 248.772616 238.092358 
L 249.415195 236.02213 
L 251.109889 235.857692 
L 253.346599 236.81875 
L 253.105538 239.552319 
L 254.581057 239.254728 
L 256.070665 239.623569 
L 258.381593 241.772459 
L 258.191319 243.268429 
L 259.695158 243.8079 
L 260.981938 243.123416 
L 260.860681 241.281088 
L 262.683296 240.807276 
L 264.605389 243.316819 
L 265.931442 243.991212 
L 266.094539 245.523487 
L 267.527036 245.801148 
L 268.501452 245.645487 
L 269.407804 245.5007 
L 272.641794 246.092647 
L 273.364722 247.394936 
L 274.480802 248.514595 
L 276.054086 248.838276 
L 278.959983 250.401603 
L 280.341462 249.580949 
L 282.314052 252.002279 
L 283.413584 250.527129 
L 284.863102 250.808923 
L 286.404532 251.743022 
L 287.692474 253.119247 
L 288.310828 252.995161 
L 289.381664 252.781244 
L 290.364732 251.572192 
L 291.653719 252.469673 
L 291.157332 254.193681 
L 292.565303 254.688709 
L 293.63582 253.613641 
L 296.802985 255.085575 
L 299.32347 256.793259 
L 298.249224 257.954601 
L 299.673641 258.93381 
L 300.440423 260.327048 
L 300.733626 261.90131 
L 303.322254 262.767766 
L 305.295871 264.483065 
L 304.264398 265.600571 
L 305.6315 266.519993 
L 306.154598 267.879169 
L 307.456004 268.667492 
L 308.221004 269.855513 
L 309.267016 272.661361 
L 309.000103 274.279155 
L 310.284495 275.115025 
L 310.716221 276.518794 
L 310.218074 277.964441 
L 311.480315 278.800444 
L 311.366726 279.710244 
L 310.928882 283.220848 
L 311.975405 284.233013 
L 313.276204 284.981154 
L 313.520203 288.046096 
L 313.333417 291.680328 
L 312.030167 292.547689 
L 311.587872 293.948534 
L 312.448372 295.087861 
L 313.721681 294.351802 
L 315.333583 294.139019 
L 315.626297 295.544594 
L 314.633209 296.545201 
L 314.874909 299.87538 
L 316.228432 300.623918 
L 320.028598 300.029905 
L 319.062544 302.916205 
L 320.065315 303.932042 
L 321.019094 306.478254 
L 320.924383 307.880489 
L 322.145819 308.939134 
L 324.938467 310.225036 
L 324.937277 311.805575 
L 325.285487 313.167988 
L 326.733233 313.701431 
L 329.351158 315.472364 
L 330.824942 315.396292 
L 332.449464 315.715434 
L 333.883443 315.548182 
L 335.280178 318.630545 
L 336.636321 319.120586 
L 338.162499 319.13075 
L 338.941632 320.411088 
L 338.542105 322.160394 
L 340.632847 323.186334 
L 342.119897 323.196311 
L 343.597217 323.600044 
L 344.781241 324.396564 
L 344.85754 325.8462 
L 346.375644 326.471269 
L 346.764214 327.918156 
L 348.671326 330.517446 
L 350.19959 330.745661 
L 349.715499 332.277801 
L 351.232538 332.810923 
L 352.706671 332.774741 
L 352.400614 334.265488 
L 352.57134 335.710023 
L 353.740432 336.768704 
L 355.101069 337.208622 
L 355.122906 337.215682 
L 354.559468 338.656951 
L 353.150881 340.440273 
L 353.904692 343.029687 
L 352.681437 343.997735 
L 352.548891 345.53554 
L 354.345385 348.426344 
L 355.859874 348.194667 
L 357.432533 347.18915 
L 358.919045 347.056097 
L 359.710749 348.2377 
L 361.454506 348.713231 
L 362.662374 350.289271 
L 362.89024 351.73766 
L 363.496614 353.140525 
L 365.405566 355.57259 
L 366.51484 356.635463 
L 368.070823 356.366811 
L 370.636518 358.321359 
L 372.002563 359.45714 
L 372.780051 360.294723 
L 374.26846 360.465908 
L 375.261104 361.685908 
L 376.831329 361.113154 
L 378.400114 361.501861 
L 379.796576 362.109584 
L 381.055974 361.272258 
L 382.626272 360.825336 
L 384.895741 361.783452 
L 387.416748 363.788995 
L 388.771099 364.575497 
L 390.206948 365.83989 
L 392.123432 366.187521 
L 394.084903 366.044956 
L 394.955518 364.592734 
L 396.526151 364.590744 
L 397.169175 366.209028 
L 398.833696 367.16724 
L 400.054248 366.374598 
L 401.800515 366.587625 
L 403.017126 367.728183 
L 404.586843 368.116699 
L 404.959582 368.026024 
L 406.414647 367.672056 
L 407.76776 367.095218 
L 408.719904 368.232102 
L 410.036126 367.439155 
L 410.814068 366.162284 
L 412.383119 364.930715 
L 413.994598 362.423167 
L 415.293472 361.581619 
L 416.864961 361.181628 
L 417.775896 359.777953 
L 419.11848 359.022286 
L 420.739708 358.757318 
L 422.040711 357.74119 
L 423.784442 358.876713 
L 425.183079 359.136747 
L 426.191209 357.818994 
L 427.488854 356.933942 
L 430.763324 356.838647 
L 431.89483 355.786401 
L 434.813193 354.631156 
L 436.21171 354.933828 
L 436.969448 354.799126 
L 437.727186 354.664424 
L 438.599424 353.212814 
L 440.262002 354.484235 
L 441.562499 355.048838 
L 445.319507 356.051535 
L 446.272177 354.995034 
L 447.856277 356.349691 
L 449.679027 357.402106 
L 450.566764 358.58364 
L 451.304681 360.075835 
L 451.394528 361.568705 
L 452.619989 362.490315 
L 453.316976 363.803889 
L 453.585268 365.250954 
L 454.726404 367.183543 
L 457.434823 370.911251 
L 458.790231 372.31059 
L 460.319711 372.660342 
L 461.610121 373.36455 
L 464.599671 374.363158 
L 466.085294 374.664894 
L 467.427499 373.871694 
L 469.188129 374.353205 
L 470.625074 374.43766 
L 472.192106 374.082323 
L 475.505733 376.794094 
L 476.952131 376.530653 
L 480.698474 377.179636 
L 483.718028 377.172723 
L 485.381139 378.574576 
L 487.435151 379.185494 
L 491.388589 379.54601 
L 494.451216 379.825293 
L 495.980593 380.701015 
L 497.602527 381.180352 
L 499.644459 380.868122 
L 501.173306 381.565359 
L 503.572636 381.998847 
L 506.066456 382.170859 
L 509.16999 383.525678 
L 512.0669 384.059547 
L 512.682724 385.459902 
L 514.211003 386.7315 
L 515.743434 387.43336 
L 519.192461 390.630441 
L 522.516695 391.282101 
L 522.95237 392.678431 
L 523.076624 393.076663 
L 523.218585 393.095535 
" clip-path="url(#p569c0240b6)" style="fill: #b3e2cd; fill-opacity: 0.65"/>
   </g>
   <g id="PatchCollection_2">
    <path d="M 532.722345 428.893658 
L 532.552164 429.277574 
L 531.365576 429.70056 
L 530.24434 432.641079 
L 528.726319 435.399481 
L 523.824615 435.735748 
L 523.847763 435.326676 
L 523.860241 433.73884 
L 523.866805 432.095967 
L 523.882469 430.528713 
L 524.475529 430.531263 
L 525.488149 430.531593 
L 525.739025 430.554208 
L 525.846079 430.604104 
L 525.949598 430.71185 
L 526.077391 430.96433 
L 526.22947 431.005882 
L 526.725191 430.899346 
L 526.969322 430.789013 
L 527.180982 430.662862 
L 527.390642 430.604676 
L 527.643265 430.584534 
L 528.240134 430.336383 
L 528.577275 430.276379 
L 529.014551 430.14619 
L 529.910537 429.709883 
L 530.812305 429.015573 
L 530.925614 428.959041 
L 531.081167 428.947948 
L 532.089988 429.023353 
L 532.508723 428.98081 
L 532.67462 428.944013 
L 532.722345 428.893658 
" clip-path="url(#p569c0240b6)" style="fill: none; stroke: #000000; stroke-width: 2"/>
   </g>
   <g id="matplotlib.axis_1">
    <g id="xtick_1">
     <g id="line2d_1">
      <path d="M 110.754898 656.828539 
L 110.754898 215.811461 
" clip-path="url(#p569c0240b6)" style="fill: none; stroke: #b0b0b0; stroke-width: 0.8; stroke-linecap: square"/>
     </g>
     <g id="line2d_2">
      <defs>
       <path id="m0b49620c70" d="M 0 0 
L 0 3.5 
" style="stroke: #000000; stroke-width: 0.8"/>
      </defs>
      <g>
       <use xlink:href="#m0b49620c70" x="110.754898" y="656.828539" style="stroke: #000000; stroke-width: 0.8"/>
      </g>
     </g>
     <g id="text_1">
      <!-- −48.4 -->
      <g transform="translate(101.871317 690.870954) rotate(-45) scale(0.1 -0.1)">
       <defs>
        <path id="DejaVuSans-2212" d="M 678 2272 
L 4684 2272 
L 4684 1741 
L 678 1741 
L 678 2272 
z
" transform="scale(0.015625)"/>
        <path id="DejaVuSans-34" d="M 2419 4116 
L 825 1625 
L 2419 1625 
L 2419 4116 
z
M 2253 4666 
L 3047 4666 
L 3047 1625 
L 3713 1625 
L 3713 1100 
L 3047 1100 
L 3047 0 
L 2419 0 
L 2419 1100 
L 313 1100 
L 313 1709 
L 2253 4666 
z
" transform="scale(0.015625)"/>
        <path id="DejaVuSans-38" d="M 2034 2216 
Q 1584 2216 1326 1975 
Q 1069 1734 1069 1313 
Q 1069 891 1326 650 
Q 1584 409 2034 409 
Q 2484 409 2743 651 
Q 3003 894 3003 1313 
Q 3003 1734 2745 1975 
Q 2488 2216 2034 2216 
z
M 1403 2484 
Q 997 2584 770 2862 
Q 544 3141 544 3541 
Q 544 4100 942 4425 
Q 1341 4750 2034 4750 
Q 2731 4750 3128 4425 
Q 3525 4100 3525 3541 
Q 3525 3141 3298 2862 
Q 3072 2584 2669 2484 
Q 3125 2378 3379 2068 
Q 3634 1759 3634 1313 
Q 3634 634 3220 271 
Q 2806 -91 2034 -91 
Q 1263 -91 848 271 
Q 434 634 434 1313 
Q 434 1759 690 2068 
Q 947 2378 1403 2484 
z
M 1172 3481 
Q 1172 3119 1398 2916 
Q 1625 2713 2034 2713 
Q 2441 2713 2670 2916 
Q 2900 3119 2900 3481 
Q 2900 3844 2670 4047 
Q 2441 4250 2034 4250 
Q 1625 4250 1398 4047 
Q 1172 3844 1172 3481 
z
" transform="scale(0.015625)"/>
        <path id="DejaVuSans-2e" d="M 684 794 
L 1344 794 
L 1344 0 
L 684 0 
L 684 794 
z
" transform="scale(0.015625)"/>
       </defs>
       <use xlink:href="#DejaVuSans-2212"/>
       <use xlink:href="#DejaVuSans-34" transform="translate(83.789062 0)"/>
       <use xlink:href="#DejaVuSans-38" transform="translate(147.412109 0)"/>
       <use xlink:href="#DejaVuSans-2e" transform="translate(211.035156 0)"/>
       <use xlink:href="#DejaVuSans-34" transform="translate(242.822266 0)"/>
      </g>
     </g>
    </g>
    <g id="xtick_2">
     <g id="line2d_3">
      <path d="M 207.350702 656.828539 
L 207.350702 215.811461 
" clip-path="url(#p569c0240b6)" style="fill: none; stroke: #b0b0b0; stroke-width: 0.8; stroke-linecap: square"/>
     </g>
     <g id="line2d_4">
      <g>
       <use xlink:href="#m0b49620c70" x="207.350702" y="656.828539" style="stroke: #000000; stroke-width: 0.8"/>
      </g>
     </g>
     <g id="text_2">
      <!-- −48.2 -->
      <g transform="translate(198.46712 690.870954) rotate(-45) scale(0.1 -0.1)">
       <defs>
        <path id="DejaVuSans-32" d="M 1228 531 
L 3431 531 
L 3431 0 
L 469 0 
L 469 531 
Q 828 903 1448 1529 
Q 2069 2156 2228 2338 
Q 2531 2678 2651 2914 
Q 2772 3150 2772 3378 
Q 2772 3750 2511 3984 
Q 2250 4219 1831 4219 
Q 1534 4219 1204 4116 
Q 875 4013 500 3803 
L 500 4441 
Q 881 4594 1212 4672 
Q 1544 4750 1819 4750 
Q 2544 4750 2975 4387 
Q 3406 4025 3406 3419 
Q 3406 3131 3298 2873 
Q 3191 2616 2906 2266 
Q 2828 2175 2409 1742 
Q 1991 1309 1228 531 
z
" transform="scale(0.015625)"/>
       </defs>
       <use xlink:href="#DejaVuSans-2212"/>
       <use xlink:href="#DejaVuSans-34" transform="translate(83.789062 0)"/>
       <use xlink:href="#DejaVuSans-38" transform="translate(147.412109 0)"/>
       <use xlink:href="#DejaVuSans-2e" transform="translate(211.035156 0)"/>
       <use xlink:href="#DejaVuSans-32" transform="translate(242.822266 0)"/>
      </g>
     </g>
    </g>
    <g id="xtick_3">
     <g id="line2d_5">
      <path d="M 303.946505 656.828539 
L 303.946505 215.811461 
" clip-path="url(#p569c0240b6)" style="fill: none; stroke: #b0b0b0; stroke-width: 0.8; stroke-linecap: square"/>
     </g>
     <g id="line2d_6">
      <g>
       <use xlink:href="#m0b49620c70" x="303.946505" y="656.828539" style="stroke: #000000; stroke-width: 0.8"/>
      </g>
     </g>
     <g id="text_3">
      <!-- −48.0 -->
      <g transform="translate(295.062924 690.870954) rotate(-45) scale(0.1 -0.1)">
       <defs>
        <path id="DejaVuSans-30" d="M 2034 4250 
Q 1547 4250 1301 3770 
Q 1056 3291 1056 2328 
Q 1056 1369 1301 889 
Q 1547 409 2034 409 
Q 2525 409 2770 889 
Q 3016 1369 3016 2328 
Q 3016 3291 2770 3770 
Q 2525 4250 2034 4250 
z
M 2034 4750 
Q 2819 4750 3233 4129 
Q 3647 3509 3647 2328 
Q 3647 1150 3233 529 
Q 2819 -91 2034 -91 
Q 1250 -91 836 529 
Q 422 1150 422 2328 
Q 422 3509 836 4129 
Q 1250 4750 2034 4750 
z
" transform="scale(0.015625)"/>
       </defs>
       <use xlink:href="#DejaVuSans-2212"/>
       <use xlink:href="#DejaVuSans-34" transform="translate(83.789062 0)"/>
       <use xlink:href="#DejaVuSans-38" transform="translate(147.412109 0)"/>
       <use xlink:href="#DejaVuSans-2e" transform="translate(211.035156 0)"/>
       <use xlink:href="#DejaVuSans-30" transform="translate(242.822266 0)"/>
      </g>
     </g>
    </g>
    <g id="xtick_4">
     <g id="line2d_7">
      <path d="M 400.542308 656.828539 
L 400.542308 215.811461 
" clip-path="url(#p569c0240b6)" style="fill: none; stroke: #b0b0b0; stroke-width: 0.8; stroke-linecap: square"/>
     </g>
     <g id="line2d_8">
      <g>
       <use xlink:href="#m0b49620c70" x="400.542308" y="656.828539" style="stroke: #000000; stroke-width: 0.8"/>
      </g>
     </g>
     <g id="text_4">
      <!-- −47.8 -->
      <g transform="translate(391.658727 690.870954) rotate(-45) scale(0.1 -0.1)">
       <defs>
        <path id="DejaVuSans-37" d="M 525 4666 
L 3525 4666 
L 3525 4397 
L 1831 0 
L 1172 0 
L 2766 4134 
L 525 4134 
L 525 4666 
z
" transform="scale(0.015625)"/>
       </defs>
       <use xlink:href="#DejaVuSans-2212"/>
       <use xlink:href="#DejaVuSans-34" transform="translate(83.789062 0)"/>
       <use xlink:href="#DejaVuSans-37" transform="translate(147.412109 0)"/>
       <use xlink:href="#DejaVuSans-2e" transform="translate(211.035156 0)"/>
       <use xlink:href="#DejaVuSans-38" transform="translate(242.822266 0)"/>
      </g>
     </g>
    </g>
    <g id="xtick_5">
     <g id="line2d_9">
      <path d="M 497.138111 656.828539 
L 497.138111 215.811461 
" clip-path="url(#p569c0240b6)" style="fill: none; stroke: #b0b0b0; stroke-width: 0.8; stroke-linecap: square"/>
     </g>
     <g id="line2d_10">
      <g>
       <use xlink:href="#m0b49620c70" x="497.138111" y="656.828539" style="stroke: #000000; stroke-width: 0.8"/>
      </g>
     </g>
     <g id="text_5">
      <!-- −47.6 -->
      <g transform="translate(488.25453 690.870954) rotate(-45) scale(0.1 -0.1)">
       <defs>
        <path id="DejaVuSans-36" d="M 2113 2584 
Q 1688 2584 1439 2293 
Q 1191 2003 1191 1497 
Q 1191 994 1439 701 
Q 1688 409 2113 409 
Q 2538 409 2786 701 
Q 3034 994 3034 1497 
Q 3034 2003 2786 2293 
Q 2538 2584 2113 2584 
z
M 3366 4563 
L 3366 3988 
Q 3128 4100 2886 4159 
Q 2644 4219 2406 4219 
Q 1781 4219 1451 3797 
Q 1122 3375 1075 2522 
Q 1259 2794 1537 2939 
Q 1816 3084 2150 3084 
Q 2853 3084 3261 2657 
Q 3669 2231 3669 1497 
Q 3669 778 3244 343 
Q 2819 -91 2113 -91 
Q 1303 -91 875 529 
Q 447 1150 447 2328 
Q 447 3434 972 4092 
Q 1497 4750 2381 4750 
Q 2619 4750 2861 4703 
Q 3103 4656 3366 4563 
z
" transform="scale(0.015625)"/>
       </defs>
       <use xlink:href="#DejaVuSans-2212"/>
       <use xlink:href="#DejaVuSans-34" transform="translate(83.789062 0)"/>
       <use xlink:href="#DejaVuSans-37" transform="translate(147.412109 0)"/>
       <use xlink:href="#DejaVuSans-2e" transform="translate(211.035156 0)"/>
       <use xlink:href="#DejaVuSans-36" transform="translate(242.822266 0)"/>
      </g>
     </g>
    </g>
    <g id="xtick_6">
     <g id="line2d_11">
      <path d="M 593.733915 656.828539 
L 593.733915 215.811461 
" clip-path="url(#p569c0240b6)" style="fill: none; stroke: #b0b0b0; stroke-width: 0.8; stroke-linecap: square"/>
     </g>
     <g id="line2d_12">
      <g>
       <use xlink:href="#m0b49620c70" x="593.733915" y="656.828539" style="stroke: #000000; stroke-width: 0.8"/>
      </g>
     </g>
     <g id="text_6">
      <!-- −47.4 -->
      <g transform="translate(584.850333 690.870954) rotate(-45) scale(0.1 -0.1)">
       <use xlink:href="#DejaVuSans-2212"/>
       <use xlink:href="#DejaVuSans-34" transform="translate(83.789062 0)"/>
       <use xlink:href="#DejaVuSans-37" transform="translate(147.412109 0)"/>
       <use xlink:href="#DejaVuSans-2e" transform="translate(211.035156 0)"/>
       <use xlink:href="#DejaVuSans-34" transform="translate(242.822266 0)"/>
      </g>
     </g>
    </g>
    <g id="text_7">
     <!-- Longitude (°) -->
     <g transform="translate(336.139844 703.939953) scale(0.1 -0.1)">
      <defs>
       <path id="DejaVuSans-4c" d="M 628 4666 
L 1259 4666 
L 1259 531 
L 3531 531 
L 3531 0 
L 628 0 
L 628 4666 
z
" transform="scale(0.015625)"/>
       <path id="DejaVuSans-6f" d="M 1959 3097 
Q 1497 3097 1228 2736 
Q 959 2375 959 1747 
Q 959 1119 1226 758 
Q 1494 397 1959 397 
Q 2419 397 2687 759 
Q 2956 1122 2956 1747 
Q 2956 2369 2687 2733 
Q 2419 3097 1959 3097 
z
M 1959 3584 
Q 2709 3584 3137 3096 
Q 3566 2609 3566 1747 
Q 3566 888 3137 398 
Q 2709 -91 1959 -91 
Q 1206 -91 779 398 
Q 353 888 353 1747 
Q 353 2609 779 3096 
Q 1206 3584 1959 3584 
z
" transform="scale(0.015625)"/>
       <path id="DejaVuSans-6e" d="M 3513 2113 
L 3513 0 
L 2938 0 
L 2938 2094 
Q 2938 2591 2744 2837 
Q 2550 3084 2163 3084 
Q 1697 3084 1428 2787 
Q 1159 2491 1159 1978 
L 1159 0 
L 581 0 
L 581 3500 
L 1159 3500 
L 1159 2956 
Q 1366 3272 1645 3428 
Q 1925 3584 2291 3584 
Q 2894 3584 3203 3211 
Q 3513 2838 3513 2113 
z
" transform="scale(0.015625)"/>
       <path id="DejaVuSans-67" d="M 2906 1791 
Q 2906 2416 2648 2759 
Q 2391 3103 1925 3103 
Q 1463 3103 1205 2759 
Q 947 2416 947 1791 
Q 947 1169 1205 825 
Q 1463 481 1925 481 
Q 2391 481 2648 825 
Q 2906 1169 2906 1791 
z
M 3481 434 
Q 3481 -459 3084 -895 
Q 2688 -1331 1869 -1331 
Q 1566 -1331 1297 -1286 
Q 1028 -1241 775 -1147 
L 775 -588 
Q 1028 -725 1275 -790 
Q 1522 -856 1778 -856 
Q 2344 -856 2625 -561 
Q 2906 -266 2906 331 
L 2906 616 
Q 2728 306 2450 153 
Q 2172 0 1784 0 
Q 1141 0 747 490 
Q 353 981 353 1791 
Q 353 2603 747 3093 
Q 1141 3584 1784 3584 
Q 2172 3584 2450 3431 
Q 2728 3278 2906 2969 
L 2906 3500 
L 3481 3500 
L 3481 434 
z
" transform="scale(0.015625)"/>
       <path id="DejaVuSans-69" d="M 603 3500 
L 1178 3500 
L 1178 0 
L 603 0 
L 603 3500 
z
M 603 4863 
L 1178 4863 
L 1178 4134 
L 603 4134 
L 603 4863 
z
" transform="scale(0.015625)"/>
       <path id="DejaVuSans-74" d="M 1172 4494 
L 1172 3500 
L 2356 3500 
L 2356 3053 
L 1172 3053 
L 1172 1153 
Q 1172 725 1289 603 
Q 1406 481 1766 481 
L 2356 481 
L 2356 0 
L 1766 0 
Q 1100 0 847 248 
Q 594 497 594 1153 
L 594 3053 
L 172 3053 
L 172 3500 
L 594 3500 
L 594 4494 
L 1172 4494 
z
" transform="scale(0.015625)"/>
       <path id="DejaVuSans-75" d="M 544 1381 
L 544 3500 
L 1119 3500 
L 1119 1403 
Q 1119 906 1312 657 
Q 1506 409 1894 409 
Q 2359 409 2629 706 
Q 2900 1003 2900 1516 
L 2900 3500 
L 3475 3500 
L 3475 0 
L 2900 0 
L 2900 538 
Q 2691 219 2414 64 
Q 2138 -91 1772 -91 
Q 1169 -91 856 284 
Q 544 659 544 1381 
z
M 1991 3584 
L 1991 3584 
z
" transform="scale(0.015625)"/>
       <path id="DejaVuSans-64" d="M 2906 2969 
L 2906 4863 
L 3481 4863 
L 3481 0 
L 2906 0 
L 2906 525 
Q 2725 213 2448 61 
Q 2172 -91 1784 -91 
Q 1150 -91 751 415 
Q 353 922 353 1747 
Q 353 2572 751 3078 
Q 1150 3584 1784 3584 
Q 2172 3584 2448 3432 
Q 2725 3281 2906 2969 
z
M 947 1747 
Q 947 1113 1208 752 
Q 1469 391 1925 391 
Q 2381 391 2643 752 
Q 2906 1113 2906 1747 
Q 2906 2381 2643 2742 
Q 2381 3103 1925 3103 
Q 1469 3103 1208 2742 
Q 947 2381 947 1747 
z
" transform="scale(0.015625)"/>
       <path id="DejaVuSans-65" d="M 3597 1894 
L 3597 1613 
L 953 1613 
Q 991 1019 1311 708 
Q 1631 397 2203 397 
Q 2534 397 2845 478 
Q 3156 559 3463 722 
L 3463 178 
Q 3153 47 2828 -22 
Q 2503 -91 2169 -91 
Q 1331 -91 842 396 
Q 353 884 353 1716 
Q 353 2575 817 3079 
Q 1281 3584 2069 3584 
Q 2775 3584 3186 3129 
Q 3597 2675 3597 1894 
z
M 3022 2063 
Q 3016 2534 2758 2815 
Q 2500 3097 2075 3097 
Q 1594 3097 1305 2825 
Q 1016 2553 972 2059 
L 3022 2063 
z
" transform="scale(0.015625)"/>
       <path id="DejaVuSans-20" transform="scale(0.015625)"/>
       <path id="DejaVuSans-28" d="M 1984 4856 
Q 1566 4138 1362 3434 
Q 1159 2731 1159 2009 
Q 1159 1288 1364 580 
Q 1569 -128 1984 -844 
L 1484 -844 
Q 1016 -109 783 600 
Q 550 1309 550 2009 
Q 550 2706 781 3412 
Q 1013 4119 1484 4856 
L 1984 4856 
z
" transform="scale(0.015625)"/>
       <path id="DejaVuSans-b0" d="M 1600 4347 
Q 1350 4347 1178 4173 
Q 1006 4000 1006 3750 
Q 1006 3503 1178 3333 
Q 1350 3163 1600 3163 
Q 1850 3163 2022 3333 
Q 2194 3503 2194 3750 
Q 2194 3997 2020 4172 
Q 1847 4347 1600 4347 
z
M 1600 4750 
Q 1800 4750 1984 4673 
Q 2169 4597 2303 4453 
Q 2447 4313 2519 4134 
Q 2591 3956 2591 3750 
Q 2591 3338 2302 3052 
Q 2013 2766 1594 2766 
Q 1172 2766 890 3047 
Q 609 3328 609 3750 
Q 609 4169 896 4459 
Q 1184 4750 1600 4750 
z
" transform="scale(0.015625)"/>
       <path id="DejaVuSans-29" d="M 513 4856 
L 1013 4856 
Q 1481 4119 1714 3412 
Q 1947 2706 1947 2009 
Q 1947 1309 1714 600 
Q 1481 -109 1013 -844 
L 513 -844 
Q 928 -128 1133 580 
Q 1338 1288 1338 2009 
Q 1338 2731 1133 3434 
Q 928 4138 513 4856 
z
" transform="scale(0.015625)"/>
      </defs>
      <use xlink:href="#DejaVuSans-4c"/>
      <use xlink:href="#DejaVuSans-6f" transform="translate(53.962891 0)"/>
      <use xlink:href="#DejaVuSans-6e" transform="translate(115.144531 0)"/>
      <use xlink:href="#DejaVuSans-67" transform="translate(178.523438 0)"/>
      <use xlink:href="#DejaVuSans-69" transform="translate(242 0)"/>
      <use xlink:href="#DejaVuSans-74" transform="translate(269.783203 0)"/>
      <use xlink:href="#DejaVuSans-75" transform="translate(308.992188 0)"/>
      <use xlink:href="#DejaVuSans-64" transform="translate(372.371094 0)"/>
      <use xlink:href="#DejaVuSans-65" transform="translate(435.847656 0)"/>
      <use xlink:href="#DejaVuSans-20" transform="translate(497.371094 0)"/>
      <use xlink:href="#DejaVuSans-28" transform="translate(529.158203 0)"/>
      <use xlink:href="#DejaVuSans-b0" transform="translate(568.171875 0)"/>
      <use xlink:href="#DejaVuSans-29" transform="translate(618.171875 0)"/>
     </g>
    </g>
   </g>
   <g id="matplotlib.axis_2">
    <g id="ytick_1">
     <g id="line2d_13">
      <path d="M 90 629.649677 
L 648 629.649677 
" clip-path="url(#p569c0240b6)" style="fill: none; stroke: #b0b0b0; stroke-width: 0.8; stroke-linecap: square"/>
     </g>
     <g id="line2d_14">
      <defs>
       <path id="mc872a411ce" d="M 0 0 
L -3.5 0 
" style="stroke: #000000; stroke-width: 0.8"/>
      </defs>
      <g>
       <use xlink:href="#mc872a411ce" x="90" y="629.649677" style="stroke: #000000; stroke-width: 0.8"/>
      </g>
     </g>
     <g id="text_8">
      <!-- −4.6 -->
      <g transform="translate(58.717187 633.448895) scale(0.1 -0.1)">
       <use xlink:href="#DejaVuSans-2212"/>
       <use xlink:href="#DejaVuSans-34" transform="translate(83.789062 0)"/>
       <use xlink:href="#DejaVuSans-2e" transform="translate(147.412109 0)"/>
       <use xlink:href="#DejaVuSans-36" transform="translate(179.199219 0)"/>
      </g>
     </g>
    </g>
    <g id="ytick_2">
     <g id="line2d_15">
      <path d="M 90 532.794693 
L 648 532.794693 
" clip-path="url(#p569c0240b6)" style="fill: none; stroke: #b0b0b0; stroke-width: 0.8; stroke-linecap: square"/>
     </g>
     <g id="line2d_16">
      <g>
       <use xlink:href="#mc872a411ce" x="90" y="532.794693" style="stroke: #000000; stroke-width: 0.8"/>
      </g>
     </g>
     <g id="text_9">
      <!-- −4.4 -->
      <g transform="translate(58.717187 536.593912) scale(0.1 -0.1)">
       <use xlink:href="#DejaVuSans-2212"/>
       <use xlink:href="#DejaVuSans-34" transform="translate(83.789062 0)"/>
       <use xlink:href="#DejaVuSans-2e" transform="translate(147.412109 0)"/>
       <use xlink:href="#DejaVuSans-34" transform="translate(179.199219 0)"/>
      </g>
     </g>
    </g>
    <g id="ytick_3">
     <g id="line2d_17">
      <path d="M 90 435.93971 
L 648 435.93971 
" clip-path="url(#p569c0240b6)" style="fill: none; stroke: #b0b0b0; stroke-width: 0.8; stroke-linecap: square"/>
     </g>
     <g id="line2d_18">
      <g>
       <use xlink:href="#mc872a411ce" x="90" y="435.93971" style="stroke: #000000; stroke-width: 0.8"/>
      </g>
     </g>
     <g id="text_10">
      <!-- −4.2 -->
      <g transform="translate(58.717187 439.738928) scale(0.1 -0.1)">
       <use xlink:href="#DejaVuSans-2212"/>
       <use xlink:href="#DejaVuSans-34" transform="translate(83.789062 0)"/>
       <use xlink:href="#DejaVuSans-2e" transform="translate(147.412109 0)"/>
       <use xlink:href="#DejaVuSans-32" transform="translate(179.199219 0)"/>
      </g>
     </g>
    </g>
    <g id="ytick_4">
     <g id="line2d_19">
      <path d="M 90 339.084726 
L 648 339.084726 
" clip-path="url(#p569c0240b6)" style="fill: none; stroke: #b0b0b0; stroke-width: 0.8; stroke-linecap: square"/>
     </g>
     <g id="line2d_20">
      <g>
       <use xlink:href="#mc872a411ce" x="90" y="339.084726" style="stroke: #000000; stroke-width: 0.8"/>
      </g>
     </g>
     <g id="text_11">
      <!-- −4.0 -->
      <g transform="translate(58.717187 342.883945) scale(0.1 -0.1)">
       <use xlink:href="#DejaVuSans-2212"/>
       <use xlink:href="#DejaVuSans-34" transform="translate(83.789062 0)"/>
       <use xlink:href="#DejaVuSans-2e" transform="translate(147.412109 0)"/>
       <use xlink:href="#DejaVuSans-30" transform="translate(179.199219 0)"/>
      </g>
     </g>
    </g>
    <g id="ytick_5">
     <g id="line2d_21">
      <path d="M 90 242.229742 
L 648 242.229742 
" clip-path="url(#p569c0240b6)" style="fill: none; stroke: #b0b0b0; stroke-width: 0.8; stroke-linecap: square"/>
     </g>
     <g id="line2d_22">
      <g>
       <use xlink:href="#mc872a411ce" x="90" y="242.229742" style="stroke: #000000; stroke-width: 0.8"/>
      </g>
     </g>
     <g id="text_12">
      <!-- −3.8 -->
      <g transform="translate(58.717187 246.028961) scale(0.1 -0.1)">
       <defs>
        <path id="DejaVuSans-33" d="M 2597 2516 
Q 3050 2419 3304 2112 
Q 3559 1806 3559 1356 
Q 3559 666 3084 287 
Q 2609 -91 1734 -91 
Q 1441 -91 1130 -33 
Q 819 25 488 141 
L 488 750 
Q 750 597 1062 519 
Q 1375 441 1716 441 
Q 2309 441 2620 675 
Q 2931 909 2931 1356 
Q 2931 1769 2642 2001 
Q 2353 2234 1838 2234 
L 1294 2234 
L 1294 2753 
L 1863 2753 
Q 2328 2753 2575 2939 
Q 2822 3125 2822 3475 
Q 2822 3834 2567 4026 
Q 2313 4219 1838 4219 
Q 1578 4219 1281 4162 
Q 984 4106 628 3988 
L 628 4550 
Q 988 4650 1302 4700 
Q 1616 4750 1894 4750 
Q 2613 4750 3031 4423 
Q 3450 4097 3450 3541 
Q 3450 3153 3228 2886 
Q 3006 2619 2597 2516 
z
" transform="scale(0.015625)"/>
       </defs>
       <use xlink:href="#DejaVuSans-2212"/>
       <use xlink:href="#DejaVuSans-33" transform="translate(83.789062 0)"/>
       <use xlink:href="#DejaVuSans-2e" transform="translate(147.412109 0)"/>
       <use xlink:href="#DejaVuSans-38" transform="translate(179.199219 0)"/>
      </g>
     </g>
    </g>
    <g id="text_13">
     <!-- Latitude (°) -->
     <g transform="translate(52.6375 464.889531) rotate(-90) scale(0.1 -0.1)">
      <defs>
       <path id="DejaVuSans-61" d="M 2194 1759 
Q 1497 1759 1228 1600 
Q 959 1441 959 1056 
Q 959 750 1161 570 
Q 1363 391 1709 391 
Q 2188 391 2477 730 
Q 2766 1069 2766 1631 
L 2766 1759 
L 2194 1759 
z
M 3341 1997 
L 3341 0 
L 2766 0 
L 2766 531 
Q 2569 213 2275 61 
Q 1981 -91 1556 -91 
Q 1019 -91 701 211 
Q 384 513 384 1019 
Q 384 1609 779 1909 
Q 1175 2209 1959 2209 
L 2766 2209 
L 2766 2266 
Q 2766 2663 2505 2880 
Q 2244 3097 1772 3097 
Q 1472 3097 1187 3025 
Q 903 2953 641 2809 
L 641 3341 
Q 956 3463 1253 3523 
Q 1550 3584 1831 3584 
Q 2591 3584 2966 3190 
Q 3341 2797 3341 1997 
z
" transform="scale(0.015625)"/>
      </defs>
      <use xlink:href="#DejaVuSans-4c"/>
      <use xlink:href="#DejaVuSans-61" transform="translate(55.712891 0)"/>
      <use xlink:href="#DejaVuSans-74" transform="translate(116.992188 0)"/>
      <use xlink:href="#DejaVuSans-69" transform="translate(156.201172 0)"/>
      <use xlink:href="#DejaVuSans-74" transform="translate(183.984375 0)"/>
      <use xlink:href="#DejaVuSans-75" transform="translate(223.193359 0)"/>
      <use xlink:href="#DejaVuSans-64" transform="translate(286.572266 0)"/>
      <use xlink:href="#DejaVuSans-65" transform="translate(350.048828 0)"/>
      <use xlink:href="#DejaVuSans-20" transform="translate(411.572266 0)"/>
      <use xlink:href="#DejaVuSans-28" transform="translate(443.359375 0)"/>
      <use xlink:href="#DejaVuSans-b0" transform="translate(482.373047 0)"/>
      <use xlink:href="#DejaVuSans-29" transform="translate(532.373047 0)"/>
     </g>
    </g>
   </g>
   <g id="patch_3">
    <path d="M 90 656.828539 
L 90 215.811461 
" style="fill: none; stroke: #000000; stroke-width: 0.8; stroke-linejoin: miter; stroke-linecap: square"/>
   </g>
   <g id="patch_4">
    <path d="M 648 656.828539 
L 648 215.811461 
" style="fill: none; stroke: #000000; stroke-width: 0.8; stroke-linejoin: miter; stroke-linecap: square"/>
   </g>
   <g id="patch_5">
    <path d="M 90 656.828539 
L 648 656.828539 
" style="fill: none; stroke: #000000; stroke-width: 0.8; stroke-linejoin: miter; stroke-linecap: square"/>
   </g>
   <g id="patch_6">
    <path d="M 90 215.811461 
L 648 215.811461 
" style="fill: none; stroke: #000000; stroke-width: 0.8; stroke-linejoin: miter; stroke-linecap: square"/>
   </g>
   <g id="legend_1">
    <g id="patch_7">
     <path d="M 324.84375 745.659226 
L 413.15625 745.659226 
Q 415.15625 745.659226 415.15625 743.659226 
L 415.15625 729.981101 
Q 415.15625 727.981101 413.15625 727.981101 
L 324.84375 727.981101 
Q 322.84375 727.981101 322.84375 729.981101 
L 322.84375 743.659226 
Q 322.84375 745.659226 324.84375 745.659226 
z
" style="fill: #ffffff; opacity: 0.8; stroke: #cccccc; stroke-linejoin: miter"/>
    </g>
    <g id="line2d_23">
     <defs>
      <path id="md5867b2e83" d="M 0 5 
C 1.326016 5 2.597899 4.473168 3.535534 3.535534 
C 4.473168 2.597899 5 1.326016 5 0 
C 5 -1.326016 4.473168 -2.597899 3.535534 -3.535534 
C 2.597899 -4.473168 1.326016 -5 0 -5 
C -1.326016 -5 -2.597899 -4.473168 -3.535534 -3.535534 
C -4.473168 -2.597899 -5 -1.326016 -5 0 
C -5 1.326016 -4.473168 2.597899 -3.535534 3.535534 
C -2.597899 4.473168 -1.326016 5 0 5 
z
"/>
     </defs>
     <g>
      <use xlink:href="#md5867b2e83" x="336.84375" y="736.079538" style="fill: #b3e2cd; fill-opacity: 0.65"/>
     </g>
    </g>
    <g id="text_14">
     <!-- Dom Eliseu -->
     <g transform="translate(354.84375 739.579538) scale(0.1 -0.1)">
      <defs>
       <path id="DejaVuSans-44" d="M 1259 4147 
L 1259 519 
L 2022 519 
Q 2988 519 3436 956 
Q 3884 1394 3884 2338 
Q 3884 3275 3436 3711 
Q 2988 4147 2022 4147 
L 1259 4147 
z
M 628 4666 
L 1925 4666 
Q 3281 4666 3915 4102 
Q 4550 3538 4550 2338 
Q 4550 1131 3912 565 
Q 3275 0 1925 0 
L 628 0 
L 628 4666 
z
" transform="scale(0.015625)"/>
       <path id="DejaVuSans-6d" d="M 3328 2828 
Q 3544 3216 3844 3400 
Q 4144 3584 4550 3584 
Q 5097 3584 5394 3201 
Q 5691 2819 5691 2113 
L 5691 0 
L 5113 0 
L 5113 2094 
Q 5113 2597 4934 2840 
Q 4756 3084 4391 3084 
Q 3944 3084 3684 2787 
Q 3425 2491 3425 1978 
L 3425 0 
L 2847 0 
L 2847 2094 
Q 2847 2600 2669 2842 
Q 2491 3084 2119 3084 
Q 1678 3084 1418 2786 
Q 1159 2488 1159 1978 
L 1159 0 
L 581 0 
L 581 3500 
L 1159 3500 
L 1159 2956 
Q 1356 3278 1631 3431 
Q 1906 3584 2284 3584 
Q 2666 3584 2933 3390 
Q 3200 3197 3328 2828 
z
" transform="scale(0.015625)"/>
       <path id="DejaVuSans-45" d="M 628 4666 
L 3578 4666 
L 3578 4134 
L 1259 4134 
L 1259 2753 
L 3481 2753 
L 3481 2222 
L 1259 2222 
L 1259 531 
L 3634 531 
L 3634 0 
L 628 0 
L 628 4666 
z
" transform="scale(0.015625)"/>
       <path id="DejaVuSans-6c" d="M 603 4863 
L 1178 4863 
L 1178 0 
L 603 0 
L 603 4863 
z
" transform="scale(0.015625)"/>
       <path id="DejaVuSans-73" d="M 2834 3397 
L 2834 2853 
Q 2591 2978 2328 3040 
Q 2066 3103 1784 3103 
Q 1356 3103 1142 2972 
Q 928 2841 928 2578 
Q 928 2378 1081 2264 
Q 1234 2150 1697 2047 
L 1894 2003 
Q 2506 1872 2764 1633 
Q 3022 1394 3022 966 
Q 3022 478 2636 193 
Q 2250 -91 1575 -91 
Q 1294 -91 989 -36 
Q 684 19 347 128 
L 347 722 
Q 666 556 975 473 
Q 1284 391 1588 391 
Q 1994 391 2212 530 
Q 2431 669 2431 922 
Q 2431 1156 2273 1281 
Q 2116 1406 1581 1522 
L 1381 1569 
Q 847 1681 609 1914 
Q 372 2147 372 2553 
Q 372 3047 722 3315 
Q 1072 3584 1716 3584 
Q 2034 3584 2315 3537 
Q 2597 3491 2834 3397 
z
" transform="scale(0.015625)"/>
      </defs>
      <use xlink:href="#DejaVuSans-44"/>
      <use xlink:href="#DejaVuSans-6f" transform="translate(77.001953 0)"/>
      <use xlink:href="#DejaVuSans-6d" transform="translate(138.183594 0)"/>
      <use xlink:href="#DejaVuSans-20" transform="translate(235.595703 0)"/>
      <use xlink:href="#DejaVuSans-45" transform="translate(267.382812 0)"/>
      <use xlink:href="#DejaVuSans-6c" transform="translate(330.566406 0)"/>
      <use xlink:href="#DejaVuSans-69" transform="translate(358.349609 0)"/>
      <use xlink:href="#DejaVuSans-73" transform="translate(386.132812 0)"/>
      <use xlink:href="#DejaVuSans-65" transform="translate(438.232422 0)"/>
      <use xlink:href="#DejaVuSans-75" transform="translate(499.755859 0)"/>
     </g>
    </g>
   </g>
  </g>
 </g>
 <defs>
  <clipPath id="p569c0240b6">
   <rect x="90" y="215.811461" width="558" height="441.017078"/>
  </clipPath>
 </defs>
</svg>
