<?xml version="1.0" encoding="utf-8" standalone="no"?>
<!DOCTYPE svg PUBLIC "-//W3C//DTD SVG 1.1//EN"
  "http://www.w3.org/Graphics/SVG/1.1/DTD/svg11.dtd">
<svg xmlns:xlink="http://www.w3.org/1999/xlink" width="720pt" height="864pt" viewBox="0 0 720 864" xmlns="http://www.w3.org/2000/svg" version="1.1">
 <metadata>
  <rdf:RDF xmlns:dc="http://purl.org/dc/elements/1.1/" xmlns:cc="http://creativecommons.org/ns#" xmlns:rdf="http://www.w3.org/1999/02/22-rdf-syntax-ns#">
   <cc:Work>
    <dc:type rdf:resource="http://purl.org/dc/dcmitype/StillImage"/>
    <dc:date>2025-06-16T16:46:29.625526</dc:date>
    <dc:format>image/svg+xml</dc:format>
    <dc:creator>
     <cc:Agent>
      <dc:title>Matplotlib v3.10.1, https://matplotlib.org/</dc:title>
     </cc:Agent>
    </dc:creator>
   </cc:Work>
  </rdf:RDF>
 </metadata>
 <defs>
  <style type="text/css">*{stroke-linejoin: round; stroke-linecap: butt}</style>
 </defs>
 <g id="figure_1">
  <g id="patch_1">
   <path d="M 0 864 
L 720 864 
L 720 0 
L 0 0 
z
" style="fill: #ffffff"/>
  </g>
  <g id="axes_1">
   <g id="patch_2">
    <path d="M 90 675.451014 
L 648 675.451014 
L 648 197.188986 
L 90 197.188986 
z
" style="fill: #ffffff"/>
   </g>
   <g id="PatchCollection_1">
    <path d="M 305.848706 612.054543 
L 303.486829 610.282326 
L 300.521771 608.392713 
L 298.026017 606.443896 
L 294.779144 604.624511 
L 294.553643 604.534933 
L 288.46191 602.115041 
L 286.086175 600.67827 
L 284.306572 598.135194 
L 280.40328 597.777739 
L 278.505186 595.712246 
L 276.267213 594.481093 
L 273.758101 593.36719 
L 272.407043 591.789297 
L 271.912151 589.034374 
L 269.955586 586.187054 
L 267.912183 585.110069 
L 266.131213 583.804312 
L 262.39039 578.704425 
L 260.888062 576.963984 
L 259.003059 573.467069 
L 255.676648 569.259615 
L 254.473186 567.110091 
L 253.378927 563.578811 
L 251.797976 560.87869 
L 249.184406 557.122473 
L 246.309662 555.233015 
L 243.836002 554.222153 
L 242.830195 551.129775 
L 240.397556 548.152754 
L 239.008001 546.178216 
L 238.787021 543.697865 
L 237.008776 539.766192 
L 233.543677 535.139501 
L 230.134727 532.474769 
L 230.569807 528.498687 
L 228.616138 525.942789 
L 225.820853 524.038657 
L 223.997249 521.629874 
L 222.892358 518.92445 
L 221.881458 516.804438 
L 222.08466 514.164774 
L 222.041044 511.5531 
L 221.347427 509.28901 
L 219.232413 507.379967 
L 216.513997 506.287592 
L 213.826729 503.537351 
L 210.856077 500.822453 
L 208.937622 499.890611 
L 207.051823 497.689154 
L 201.844611 493.844423 
L 199.830035 491.547259 
L 198.103634 489.75579 
L 195.356565 488.303469 
L 193.277348 485.960988 
L 190.60501 484.217052 
L 189.673389 482.140552 
L 188.006012 479.053291 
L 187.392394 476.619888 
L 187.257051 474.28745 
L 185.730656 472.538582 
L 185.475154 469.102286 
L 183.214541 467.406203 
L 182.898838 464.442552 
L 183.079658 460.712195 
L 183.472154 456.980653 
L 185.215541 453.830833 
L 186.346372 452.166611 
L 186.758677 451.559319 
L 186.236876 451.178768 
L 184.07202 449.602392 
L 182.150315 446.820305 
L 183.413676 444.85438 
L 184.525954 442.600157 
L 184.245818 439.113091 
L 182.68617 436.603909 
L 182.224262 434.346486 
L 182.386859 427.852428 
L 183.158422 425.545055 
L 182.843496 423.392142 
L 184.600622 421.164039 
L 185.157807 418.53473 
L 184.066263 416.66003 
L 182.700575 414.846364 
L 182.66367 411.944786 
L 230.497135 374.529061 
L 248.151799 360.053371 
L 250.15138 359.738215 
L 275.072372 355.810444 
L 275.275988 355.778372 
L 279.363546 354.979931 
L 280.908602 354.678129 
L 281.303723 354.689854 
L 281.748992 354.703067 
L 281.940327 354.689577 
L 286.619952 354.779311 
L 286.801626 354.82253 
L 302.170664 358.478768 
L 313.054802 360.694087 
L 317.807307 362.750053 
L 327.864894 365.599463 
L 328.583844 365.869468 
L 336.849861 368.973812 
L 340.337432 374.325697 
L 344.827881 378.794251 
L 352.152982 379.379798 
L 360.371995 381.395695 
L 365.493634 383.814266 
L 387.196421 399.640604 
L 390.957946 400.902556 
L 397.415268 402.720315 
L 400.992515 403.726554 
L 417.923828 405.920151 
L 426.411028 404.206027 
L 427.311879 404.023754 
L 442.791312 400.896999 
L 450.82878 407.585538 
L 453.06689 410.20794 
L 454.551886 413.617227 
L 458.134065 416.466964 
L 461.809105 418.062877 
L 469.313029 421.321509 
L 470.977793 422.044445 
L 471.771524 422.389129 
L 474.570761 423.604717 
L 474.682485 423.653234 
L 475.115023 423.841067 
L 475.547038 424.028672 
L 526.432335 446.125975 
L 526.906474 446.331606 
L 526.858655 446.582774 
L 526.331274 449.335326 
L 521.992287 451.833896 
L 519.804107 454.005353 
L 517.545445 455.387294 
L 516.081181 456.960893 
L 513.883283 456.595581 
L 510.218784 459.749097 
L 507.590847 461.205433 
L 505.863283 463.039355 
L 507.649662 468.284537 
L 506.498457 470.381168 
L 503.922372 470.856709 
L 502.204103 472.175587 
L 500.737282 474.851453 
L 496.796215 479.258807 
L 494.324619 479.836494 
L 491.808724 479.808699 
L 488.565095 480.322106 
L 485.375681 481.197236 
L 481.991003 482.588571 
L 479.594561 485.009656 
L 478.078443 487.380556 
L 473.615506 493.039602 
L 471.040925 494.30924 
L 466.2308 497.397096 
L 463.872294 499.688336 
L 461.360406 501.542695 
L 458.095611 502.4946 
L 453.735617 504.812439 
L 452.181743 506.323878 
L 448.113203 511.394779 
L 446.15893 512.683098 
L 441.384345 514.71543 
L 437.936709 517.595881 
L 436.454652 524.243885 
L 429.38258 535.667988 
L 428.85545 536.615446 
L 428.69598 536.901888 
L 427.643155 539.773457 
L 427.619594 544.119983 
L 428.634203 551.42729 
L 428.47933 554.799679 
L 427.759414 558.984537 
L 428.060293 561.412056 
L 427.128316 564.464334 
L 427.268777 567.07388 
L 429.602161 573.878016 
L 426.257436 576.296995 
L 423.207444 577.83321 
L 421.920295 579.799431 
L 422.651491 583.010019 
L 424.179744 586.728092 
L 422.79592 590.170903 
L 416.372346 592.457493 
L 413.351729 593.232776 
L 410.435347 595.774784 
L 408.145124 602.732771 
L 407.3642 603.855917 
L 406.221932 605.498756 
L 404.878811 608.354644 
L 405.567245 611.72563 
L 407.129569 615.012833 
L 407.510188 618.424766 
L 406.775547 620.424525 
L 408.798409 622.656435 
L 412.575158 623.876765 
L 414.890031 625.002755 
L 415.090951 627.172107 
L 413.86363 631.356252 
L 413.726932 633.956272 
L 414.912753 637.548636 
L 418.496899 640.678854 
L 419.845316 642.355547 
L 419.565788 643.006781 
L 418.812209 644.76369 
L 415.745908 647.785196 
L 413.169002 649.691861 
L 411.726376 651.549561 
L 411.064195 651.418144 
L 409.371907 651.082291 
L 406.970695 644.253646 
L 404.95176 643.06038 
L 402.795913 643.299633 
L 397.748623 645.810825 
L 391.771793 647.370942 
L 386.761313 649.094547 
L 381.630161 648.286793 
L 377.270202 648.029288 
L 373.513799 650.259824 
L 370.827818 651.546563 
L 367.830905 653.711831 
L 365.534329 652.490002 
L 365.239896 649.268408 
L 366.724122 646.275537 
L 365.65691 643.686705 
L 363.381895 642.625144 
L 361.141177 643.284735 
L 357.615316 644.85338 
L 354.091087 642.436054 
L 351.39839 640.759369 
L 348.907919 640.11882 
L 346.984672 638.196229 
L 343.747716 634.687597 
L 340.80609 634.798516 
L 337.836532 635.225623 
L 335.784377 633.89153 
L 334.793235 631.901995 
L 334.898298 631.024087 
L 335.049291 629.758226 
L 336.690917 625.603226 
L 335.680546 622.169523 
L 333.600604 621.363056 
L 331.126088 621.793126 
L 327.582978 623.444784 
L 323.863439 622.809658 
L 322.12083 620.903131 
L 320.574388 618.841284 
L 317.744261 618.125525 
L 315.429061 618.315425 
L 312.674048 616.883806 
L 310.279306 616.059452 
L 308.598432 614.690643 
L 306.221085 612.333955 
L 305.848706 612.054543 
" clip-path="url(#p139bdc9a90)" style="fill: #b3e2cd; fill-opacity: 0.65"/>
    <path d="M 302.170664 358.478768 
L 286.801626 354.82253 
L 286.619952 354.779311 
L 281.940327 354.689577 
L 281.748992 354.703067 
L 281.303723 354.689854 
L 280.908602 354.678129 
L 279.363546 354.979931 
L 275.275988 355.778372 
L 275.072372 355.810444 
L 250.15138 359.738215 
L 248.151799 360.053371 
L 230.497135 374.529061 
L 182.66367 411.944786 
L 185.115072 406.105203 
L 185.417298 402.987246 
L 186.265305 399.902684 
L 184.069187 398.760428 
L 182.406638 396.058483 
L 183.057616 393.248437 
L 184.935736 391.025865 
L 185.291411 388.132566 
L 182.406193 388.402875 
L 178.09374 384.26566 
L 175.062758 384.257844 
L 173.975456 381.861785 
L 171.773518 380.848405 
L 170.430281 377.459849 
L 165.068468 372.867383 
L 161.016024 374.287855 
L 160.033988 374.632081 
L 158.663152 372.231821 
L 154.353018 371.467587 
L 154.582597 369.38151 
L 152.510951 364.845507 
L 151.221654 363.030826 
L 149.344642 361.543581 
L 147.083097 360.375611 
L 145.973508 358.430366 
L 142.905785 355.365507 
L 140.672683 355.216425 
L 140.33501 352.497706 
L 138.272628 351.991096 
L 137.604935 349.726654 
L 135.862602 348.252325 
L 133.719933 347.365743 
L 132.295293 345.493307 
L 134.275116 343.79322 
L 136.516429 342.606379 
L 136.691238 340.405878 
L 134.733036 336.138836 
L 136.336063 334.76509 
L 135.345281 331.59825 
L 137.206712 330.28624 
L 137.307636 327.698025 
L 134.114709 324.286188 
L 136.492089 323.228619 
L 137.901716 321.017277 
L 138.074435 318.551682 
L 136.000015 317.336076 
L 134.571594 314.819168 
L 135.008438 312.480398 
L 137.30327 311.557095 
L 139.282523 309.793932 
L 137.421016 308.575897 
L 136.057284 306.962834 
L 137.445409 304.556905 
L 133.64207 301.801454 
L 135.936378 300.029295 
L 137.146559 297.88223 
L 135.381569 295.949246 
L 133.406367 296.551823 
L 131.582074 294.361257 
L 132.13534 292.092499 
L 133.226596 290.2638 
L 132.180445 288.066843 
L 132.908579 285.710224 
L 137.109284 283.819334 
L 137.343207 281.740935 
L 135.837177 280.005104 
L 133.581923 279.372648 
L 131.327471 277.964782 
L 131.121273 277.671369 
L 130.013978 276.09573 
L 124.475503 273.743692 
L 122.907315 271.543138 
L 119.351168 268.26913 
L 119.538765 266.529019 
L 119.644979 265.5438 
L 119.052821 263.156583 
L 118.14518 261.278959 
L 118.500334 259.140813 
L 117.846324 257.133399 
L 116.17626 254.712875 
L 115.363636 253.53509 
L 123.203017 250.743017 
L 129.595796 246.226043 
L 131.329057 243.940696 
L 134.913216 241.050791 
L 137.964954 237.202761 
L 139.93568 233.182881 
L 142.889343 228.735791 
L 143.92562 225.658208 
L 145.40218 221.274703 
L 148.495454 218.928169 
L 149.067028 221.329612 
L 152.292105 221.709281 
L 155.405916 221.444131 
L 160.787397 220.200124 
L 164.030472 219.8597 
L 170.289855 220.163659 
L 173.710241 221.000187 
L 180.508219 223.577139 
L 184.95735 225.90801 
L 188.065335 227.062962 
L 191.356187 229.196132 
L 196.006472 231.654133 
L 197.945863 233.793765 
L 201.769805 236.702167 
L 210.161275 241.426451 
L 224.258994 251.972136 
L 228.139035 255.467074 
L 232.277194 258.051042 
L 236.395475 259.239452 
L 240.752921 260.496097 
L 247.091789 261.230443 
L 262.316535 261.829957 
L 287.137574 263.72313 
L 299.331492 265.508934 
L 306.031308 265.484729 
L 309.722082 266.122571 
L 314.894663 265.646342 
L 317.729881 266.097326 
L 316.579576 268.760611 
L 317.744736 271.095848 
L 318.137347 273.62856 
L 321.901994 279.144895 
L 324.612054 280.81551 
L 330.751834 283.852526 
L 334.17616 284.815319 
L 338.317293 285.448831 
L 342.569099 283.619545 
L 345.087289 286.145926 
L 353.739126 285.591179 
L 361.420545 286.67596 
L 364.644452 287.504771 
L 370.898557 287.287126 
L 382.707379 289.993014 
L 389.244843 290.850565 
L 392.325588 291.697108 
L 397.172978 295.122378 
L 400.279135 299.010942 
L 403.4434 304.552252 
L 403.534418 304.711645 
L 407.55211 309.698258 
L 410.083285 310.993568 
L 411.825343 312.286826 
L 419.974408 315.84581 
L 419.976 315.846321 
L 422.330609 316.475362 
L 424.928845 316.980189 
L 430.637885 318.638239 
L 433.006858 318.381773 
L 438.096851 318.621186 
L 441.97366 317.895419 
L 445.379443 317.8649 
L 458.574507 314.46145 
L 468.392506 317.039177 
L 477.443914 320.249392 
L 489.673554 323.847476 
L 495.884565 323.507428 
L 505.605516 321.070839 
L 512.941538 317.703922 
L 516.281755 315.902325 
L 517.240809 315.385043 
L 521.461417 313.108658 
L 524.819969 311.297212 
L 529.603543 310.94156 
L 532.759556 310.185005 
L 534.80796 309.693887 
L 537.699206 309.38384 
L 541.073168 308.338501 
L 541.29527 308.218412 
L 543.455781 307.050242 
L 543.636808 306.990606 
L 546.319365 306.106887 
L 556.9111 303.802982 
L 558.757492 303.662276 
L 566.134667 304.993518 
L 569.826949 304.937579 
L 572.792293 303.105782 
L 573.841063 300.493845 
L 575.179354 298.744982 
L 575.480018 298.352077 
L 578.186073 297.98493 
L 578.932288 298.061382 
L 581.729081 298.347921 
L 583.962705 299.619373 
L 589.752152 304.455695 
L 592.021808 307.394464 
L 593.191375 310.012178 
L 593.410385 312.904206 
L 593.863895 313.254966 
L 595.728585 314.696477 
L 598.361275 316.731696 
L 600.755561 317.829362 
L 605.352329 322.427426 
L 606.468215 324.362269 
L 608.457374 327.811286 
L 609.471046 330.285257 
L 609.610321 330.625172 
L 611.248525 334.623373 
L 611.399777 335.279208 
L 612.025418 337.992015 
L 612.845644 350.515643 
L 614.054838 352.972513 
L 615.133366 355.163896 
L 619.980229 361.34569 
L 622.636364 364.733381 
L 621.609995 367.685309 
L 621.662613 368.108352 
L 622.107685 371.686633 
L 617.34655 378.017731 
L 615.782786 378.418571 
L 612.775223 380.07227 
L 609.510364 383.157669 
L 604.738645 384.569723 
L 603.531707 386.72702 
L 602.995175 391.282213 
L 602.474778 392.166119 
L 601.293613 391.400836 
L 599.489943 389.425464 
L 597.236126 389.71105 
L 594.221683 393.510729 
L 593.174953 398.264188 
L 591.970009 400.226918 
L 587.673205 404.948139 
L 580.63976 414.833463 
L 579.455565 416.136163 
L 576.485955 417.272814 
L 572.964854 416.755894 
L 568.743578 418.254329 
L 564.785626 421.34722 
L 562.642995 421.366887 
L 560.252007 420.152814 
L 558.249929 422.118056 
L 557.339906 427.263729 
L 555.537006 428.453751 
L 553.261714 427.30172 
L 550.549031 427.520741 
L 543.2276 430.12345 
L 542.531679 432.669321 
L 535.088424 436.832872 
L 532.771072 438.737361 
L 531.366521 440.56685 
L 527.205744 444.770344 
L 526.906474 446.331606 
L 526.432335 446.125975 
L 475.547038 424.028672 
L 475.115023 423.841067 
L 474.682485 423.653234 
L 474.570761 423.604717 
L 471.771524 422.389129 
L 470.977793 422.044445 
L 469.313029 421.321509 
L 461.809105 418.062877 
L 458.134065 416.466964 
L 454.551886 413.617227 
L 453.06689 410.20794 
L 450.82878 407.585538 
L 442.791312 400.896999 
L 427.311879 404.023754 
L 426.411028 404.206027 
L 417.923828 405.920151 
L 400.992515 403.726554 
L 397.415268 402.720315 
L 390.957946 400.902556 
L 387.196421 399.640604 
L 365.493634 383.814266 
L 360.371995 381.395695 
L 352.152982 379.379798 
L 344.827881 378.794251 
L 340.337432 374.325697 
L 336.849861 368.973812 
L 328.583844 365.869468 
L 327.864894 365.599463 
L 317.807307 362.750053 
L 313.054802 360.694087 
L 302.170664 358.478768 
" clip-path="url(#p139bdc9a90)" style="fill: #cccccc; fill-opacity: 0.65"/>
   </g>
   <g id="PatchCollection_2">
    <path d="M 446.029647 330.168223 
L 461.844826 340.059096 
L 461.834034 340.825642 
L 461.87014 341.442048 
L 461.868685 342.053236 
L 461.791605 342.672888 
L 461.802838 343.337868 
L 461.771314 343.888669 
L 461.766287 344.41108 
L 461.759039 344.908521 
L 461.754509 345.99927 
L 461.760143 346.70951 
L 461.759408 347.434402 
L 461.756337 348.551549 
L 461.738801 349.22273 
L 461.744427 349.8988 
L 461.725921 351.299339 
L 461.73276 351.909522 
L 461.733205 352.623148 
L 461.664646 354.36236 
L 461.739226 356.524035 
L 461.708641 357.432261 
L 461.483603 358.707063 
L 461.250745 359.194363 
L 461.807482 360.375416 
L 461.751049 360.758057 
L 461.775335 362.545877 
L 461.782368 365.546164 
L 461.759669 368.077315 
L 461.789602 370.301947 
L 461.78365 372.917289 
L 461.811749 374.97263 
L 461.846787 377.894299 
L 461.822085 380.478266 
L 461.756186 381.597419 
L 461.797319 383.234314 
L 461.762417 386.781302 
L 461.784967 387.013734 
L 461.816263 390.489454 
L 461.810388 393.015938 
L 461.793722 394.584407 
L 461.795018 395.168596 
L 461.814092 397.033317 
L 461.767329 397.153301 
L 461.706555 399.692503 
L 461.800447 399.824782 
L 461.796273 402.5722 
L 461.800389 404.956266 
L 461.784025 405.37136 
L 461.792366 408.28194 
L 461.776877 410.992257 
L 461.793686 413.330904 
L 461.799659 415.394098 
L 461.780698 417.458949 
L 461.78163 418.013758 
L 459.914073 417.227598 
L 458.622336 416.692592 
L 458.530703 416.689155 
L 456.024349 415.546969 
L 454.701523 413.305818 
L 453.548744 410.916528 
L 452.298803 408.330243 
L 452.114036 407.970534 
L 449.749686 406.035362 
L 449.221507 405.589764 
L 448.895334 405.333083 
L 447.055738 403.833401 
L 445.680132 402.724826 
L 444.799723 401.999147 
L 443.956472 401.287873 
L 442.445648 400.601341 
L 441.856788 400.679283 
L 438.224983 401.383286 
L 435.342223 401.941496 
L 433.460899 402.249606 
L 431.627039 402.67485 
L 429.603518 403.055169 
L 429.618741 402.396144 
L 429.61644 400.065254 
L 429.604408 397.903319 
L 429.613449 395.832616 
L 429.606962 393.688197 
L 429.603335 391.630618 
L 429.679017 390.335035 
L 429.704957 389.813429 
L 429.684705 388.867262 
L 445.713362 388.892126 
L 445.697101 387.606258 
L 445.666632 385.047651 
L 445.696177 382.431523 
L 445.698469 379.847023 
L 431.673604 379.737517 
L 431.539304 379.737868 
L 429.441412 379.742686 
L 429.486581 377.146774 
L 429.462292 374.559167 
L 429.464674 371.967246 
L 429.859403 356.297429 
L 429.647129 353.790312 
L 434.462534 353.693104 
L 434.559276 353.691095 
L 445.846629 353.462993 
L 446.029647 330.168223 
" clip-path="url(#p139bdc9a90)" style="fill: none; stroke: #000000; stroke-width: 2"/>
   </g>
   <g id="matplotlib.axis_1">
    <g id="xtick_1">
     <g id="line2d_1">
      <path d="M 143.219679 675.451014 
L 143.219679 197.188986 
" clip-path="url(#p139bdc9a90)" style="fill: none; stroke: #b0b0b0; stroke-width: 0.8; stroke-linecap: square"/>
     </g>
     <g id="line2d_2">
      <defs>
       <path id="mea188724b2" d="M 0 0 
L 0 3.5 
" style="stroke: #000000; stroke-width: 0.8"/>
      </defs>
      <g>
       <use xlink:href="#mea188724b2" x="143.219679" y="675.451014" style="stroke: #000000; stroke-width: 0.8"/>
      </g>
     </g>
     <g id="text_1">
      <!-- −49.0 -->
      <g transform="translate(134.336098 709.493429) rotate(-45) scale(0.1 -0.1)">
       <defs>
        <path id="DejaVuSans-2212" d="M 678 2272 
L 4684 2272 
L 4684 1741 
L 678 1741 
L 678 2272 
z
" transform="scale(0.015625)"/>
        <path id="DejaVuSans-34" d="M 2419 4116 
L 825 1625 
L 2419 1625 
L 2419 4116 
z
M 2253 4666 
L 3047 4666 
L 3047 1625 
L 3713 1625 
L 3713 1100 
L 3047 1100 
L 3047 0 
L 2419 0 
L 2419 1100 
L 313 1100 
L 313 1709 
L 2253 4666 
z
" transform="scale(0.015625)"/>
        <path id="DejaVuSans-39" d="M 703 97 
L 703 672 
Q 941 559 1184 500 
Q 1428 441 1663 441 
Q 2288 441 2617 861 
Q 2947 1281 2994 2138 
Q 2813 1869 2534 1725 
Q 2256 1581 1919 1581 
Q 1219 1581 811 2004 
Q 403 2428 403 3163 
Q 403 3881 828 4315 
Q 1253 4750 1959 4750 
Q 2769 4750 3195 4129 
Q 3622 3509 3622 2328 
Q 3622 1225 3098 567 
Q 2575 -91 1691 -91 
Q 1453 -91 1209 -44 
Q 966 3 703 97 
z
M 1959 2075 
Q 2384 2075 2632 2365 
Q 2881 2656 2881 3163 
Q 2881 3666 2632 3958 
Q 2384 4250 1959 4250 
Q 1534 4250 1286 3958 
Q 1038 3666 1038 3163 
Q 1038 2656 1286 2365 
Q 1534 2075 1959 2075 
z
" transform="scale(0.015625)"/>
        <path id="DejaVuSans-2e" d="M 684 794 
L 1344 794 
L 1344 0 
L 684 0 
L 684 794 
z
" transform="scale(0.015625)"/>
        <path id="DejaVuSans-30" d="M 2034 4250 
Q 1547 4250 1301 3770 
Q 1056 3291 1056 2328 
Q 1056 1369 1301 889 
Q 1547 409 2034 409 
Q 2525 409 2770 889 
Q 3016 1369 3016 2328 
Q 3016 3291 2770 3770 
Q 2525 4250 2034 4250 
z
M 2034 4750 
Q 2819 4750 3233 4129 
Q 3647 3509 3647 2328 
Q 3647 1150 3233 529 
Q 2819 -91 2034 -91 
Q 1250 -91 836 529 
Q 422 1150 422 2328 
Q 422 3509 836 4129 
Q 1250 4750 2034 4750 
z
" transform="scale(0.015625)"/>
       </defs>
       <use xlink:href="#DejaVuSans-2212"/>
       <use xlink:href="#DejaVuSans-34" transform="translate(83.789062 0)"/>
       <use xlink:href="#DejaVuSans-39" transform="translate(147.412109 0)"/>
       <use xlink:href="#DejaVuSans-2e" transform="translate(211.035156 0)"/>
       <use xlink:href="#DejaVuSans-30" transform="translate(242.822266 0)"/>
      </g>
     </g>
    </g>
    <g id="xtick_2">
     <g id="line2d_3">
      <path d="M 214.492184 675.451014 
L 214.492184 197.188986 
" clip-path="url(#p139bdc9a90)" style="fill: none; stroke: #b0b0b0; stroke-width: 0.8; stroke-linecap: square"/>
     </g>
     <g id="line2d_4">
      <g>
       <use xlink:href="#mea188724b2" x="214.492184" y="675.451014" style="stroke: #000000; stroke-width: 0.8"/>
      </g>
     </g>
     <g id="text_2">
      <!-- −48.9 -->
      <g transform="translate(205.608602 709.493429) rotate(-45) scale(0.1 -0.1)">
       <defs>
        <path id="DejaVuSans-38" d="M 2034 2216 
Q 1584 2216 1326 1975 
Q 1069 1734 1069 1313 
Q 1069 891 1326 650 
Q 1584 409 2034 409 
Q 2484 409 2743 651 
Q 3003 894 3003 1313 
Q 3003 1734 2745 1975 
Q 2488 2216 2034 2216 
z
M 1403 2484 
Q 997 2584 770 2862 
Q 544 3141 544 3541 
Q 544 4100 942 4425 
Q 1341 4750 2034 4750 
Q 2731 4750 3128 4425 
Q 3525 4100 3525 3541 
Q 3525 3141 3298 2862 
Q 3072 2584 2669 2484 
Q 3125 2378 3379 2068 
Q 3634 1759 3634 1313 
Q 3634 634 3220 271 
Q 2806 -91 2034 -91 
Q 1263 -91 848 271 
Q 434 634 434 1313 
Q 434 1759 690 2068 
Q 947 2378 1403 2484 
z
M 1172 3481 
Q 1172 3119 1398 2916 
Q 1625 2713 2034 2713 
Q 2441 2713 2670 2916 
Q 2900 3119 2900 3481 
Q 2900 3844 2670 4047 
Q 2441 4250 2034 4250 
Q 1625 4250 1398 4047 
Q 1172 3844 1172 3481 
z
" transform="scale(0.015625)"/>
       </defs>
       <use xlink:href="#DejaVuSans-2212"/>
       <use xlink:href="#DejaVuSans-34" transform="translate(83.789062 0)"/>
       <use xlink:href="#DejaVuSans-38" transform="translate(147.412109 0)"/>
       <use xlink:href="#DejaVuSans-2e" transform="translate(211.035156 0)"/>
       <use xlink:href="#DejaVuSans-39" transform="translate(242.822266 0)"/>
      </g>
     </g>
    </g>
    <g id="xtick_3">
     <g id="line2d_5">
      <path d="M 285.764688 675.451014 
L 285.764688 197.188986 
" clip-path="url(#p139bdc9a90)" style="fill: none; stroke: #b0b0b0; stroke-width: 0.8; stroke-linecap: square"/>
     </g>
     <g id="line2d_6">
      <g>
       <use xlink:href="#mea188724b2" x="285.764688" y="675.451014" style="stroke: #000000; stroke-width: 0.8"/>
      </g>
     </g>
     <g id="text_3">
      <!-- −48.8 -->
      <g transform="translate(276.881107 709.493429) rotate(-45) scale(0.1 -0.1)">
       <use xlink:href="#DejaVuSans-2212"/>
       <use xlink:href="#DejaVuSans-34" transform="translate(83.789062 0)"/>
       <use xlink:href="#DejaVuSans-38" transform="translate(147.412109 0)"/>
       <use xlink:href="#DejaVuSans-2e" transform="translate(211.035156 0)"/>
       <use xlink:href="#DejaVuSans-38" transform="translate(242.822266 0)"/>
      </g>
     </g>
    </g>
    <g id="xtick_4">
     <g id="line2d_7">
      <path d="M 357.037192 675.451014 
L 357.037192 197.188986 
" clip-path="url(#p139bdc9a90)" style="fill: none; stroke: #b0b0b0; stroke-width: 0.8; stroke-linecap: square"/>
     </g>
     <g id="line2d_8">
      <g>
       <use xlink:href="#mea188724b2" x="357.037192" y="675.451014" style="stroke: #000000; stroke-width: 0.8"/>
      </g>
     </g>
     <g id="text_4">
      <!-- −48.7 -->
      <g transform="translate(348.153611 709.493429) rotate(-45) scale(0.1 -0.1)">
       <defs>
        <path id="DejaVuSans-37" d="M 525 4666 
L 3525 4666 
L 3525 4397 
L 1831 0 
L 1172 0 
L 2766 4134 
L 525 4134 
L 525 4666 
z
" transform="scale(0.015625)"/>
       </defs>
       <use xlink:href="#DejaVuSans-2212"/>
       <use xlink:href="#DejaVuSans-34" transform="translate(83.789062 0)"/>
       <use xlink:href="#DejaVuSans-38" transform="translate(147.412109 0)"/>
       <use xlink:href="#DejaVuSans-2e" transform="translate(211.035156 0)"/>
       <use xlink:href="#DejaVuSans-37" transform="translate(242.822266 0)"/>
      </g>
     </g>
    </g>
    <g id="xtick_5">
     <g id="line2d_9">
      <path d="M 428.309697 675.451014 
L 428.309697 197.188986 
" clip-path="url(#p139bdc9a90)" style="fill: none; stroke: #b0b0b0; stroke-width: 0.8; stroke-linecap: square"/>
     </g>
     <g id="line2d_10">
      <g>
       <use xlink:href="#mea188724b2" x="428.309697" y="675.451014" style="stroke: #000000; stroke-width: 0.8"/>
      </g>
     </g>
     <g id="text_5">
      <!-- −48.6 -->
      <g transform="translate(419.426115 709.493429) rotate(-45) scale(0.1 -0.1)">
       <defs>
        <path id="DejaVuSans-36" d="M 2113 2584 
Q 1688 2584 1439 2293 
Q 1191 2003 1191 1497 
Q 1191 994 1439 701 
Q 1688 409 2113 409 
Q 2538 409 2786 701 
Q 3034 994 3034 1497 
Q 3034 2003 2786 2293 
Q 2538 2584 2113 2584 
z
M 3366 4563 
L 3366 3988 
Q 3128 4100 2886 4159 
Q 2644 4219 2406 4219 
Q 1781 4219 1451 3797 
Q 1122 3375 1075 2522 
Q 1259 2794 1537 2939 
Q 1816 3084 2150 3084 
Q 2853 3084 3261 2657 
Q 3669 2231 3669 1497 
Q 3669 778 3244 343 
Q 2819 -91 2113 -91 
Q 1303 -91 875 529 
Q 447 1150 447 2328 
Q 447 3434 972 4092 
Q 1497 4750 2381 4750 
Q 2619 4750 2861 4703 
Q 3103 4656 3366 4563 
z
" transform="scale(0.015625)"/>
       </defs>
       <use xlink:href="#DejaVuSans-2212"/>
       <use xlink:href="#DejaVuSans-34" transform="translate(83.789062 0)"/>
       <use xlink:href="#DejaVuSans-38" transform="translate(147.412109 0)"/>
       <use xlink:href="#DejaVuSans-2e" transform="translate(211.035156 0)"/>
       <use xlink:href="#DejaVuSans-36" transform="translate(242.822266 0)"/>
      </g>
     </g>
    </g>
    <g id="xtick_6">
     <g id="line2d_11">
      <path d="M 499.582201 675.451014 
L 499.582201 197.188986 
" clip-path="url(#p139bdc9a90)" style="fill: none; stroke: #b0b0b0; stroke-width: 0.8; stroke-linecap: square"/>
     </g>
     <g id="line2d_12">
      <g>
       <use xlink:href="#mea188724b2" x="499.582201" y="675.451014" style="stroke: #000000; stroke-width: 0.8"/>
      </g>
     </g>
     <g id="text_6">
      <!-- −48.5 -->
      <g transform="translate(490.69862 709.493429) rotate(-45) scale(0.1 -0.1)">
       <defs>
        <path id="DejaVuSans-35" d="M 691 4666 
L 3169 4666 
L 3169 4134 
L 1269 4134 
L 1269 2991 
Q 1406 3038 1543 3061 
Q 1681 3084 1819 3084 
Q 2600 3084 3056 2656 
Q 3513 2228 3513 1497 
Q 3513 744 3044 326 
Q 2575 -91 1722 -91 
Q 1428 -91 1123 -41 
Q 819 9 494 109 
L 494 744 
Q 775 591 1075 516 
Q 1375 441 1709 441 
Q 2250 441 2565 725 
Q 2881 1009 2881 1497 
Q 2881 1984 2565 2268 
Q 2250 2553 1709 2553 
Q 1456 2553 1204 2497 
Q 953 2441 691 2322 
L 691 4666 
z
" transform="scale(0.015625)"/>
       </defs>
       <use xlink:href="#DejaVuSans-2212"/>
       <use xlink:href="#DejaVuSans-34" transform="translate(83.789062 0)"/>
       <use xlink:href="#DejaVuSans-38" transform="translate(147.412109 0)"/>
       <use xlink:href="#DejaVuSans-2e" transform="translate(211.035156 0)"/>
       <use xlink:href="#DejaVuSans-35" transform="translate(242.822266 0)"/>
      </g>
     </g>
    </g>
    <g id="xtick_7">
     <g id="line2d_13">
      <path d="M 570.854705 675.451014 
L 570.854705 197.188986 
" clip-path="url(#p139bdc9a90)" style="fill: none; stroke: #b0b0b0; stroke-width: 0.8; stroke-linecap: square"/>
     </g>
     <g id="line2d_14">
      <g>
       <use xlink:href="#mea188724b2" x="570.854705" y="675.451014" style="stroke: #000000; stroke-width: 0.8"/>
      </g>
     </g>
     <g id="text_7">
      <!-- −48.4 -->
      <g transform="translate(561.971124 709.493429) rotate(-45) scale(0.1 -0.1)">
       <use xlink:href="#DejaVuSans-2212"/>
       <use xlink:href="#DejaVuSans-34" transform="translate(83.789062 0)"/>
       <use xlink:href="#DejaVuSans-38" transform="translate(147.412109 0)"/>
       <use xlink:href="#DejaVuSans-2e" transform="translate(211.035156 0)"/>
       <use xlink:href="#DejaVuSans-34" transform="translate(242.822266 0)"/>
      </g>
     </g>
    </g>
    <g id="xtick_8">
     <g id="line2d_15">
      <path d="M 642.12721 675.451014 
L 642.12721 197.188986 
" clip-path="url(#p139bdc9a90)" style="fill: none; stroke: #b0b0b0; stroke-width: 0.8; stroke-linecap: square"/>
     </g>
     <g id="line2d_16">
      <g>
       <use xlink:href="#mea188724b2" x="642.12721" y="675.451014" style="stroke: #000000; stroke-width: 0.8"/>
      </g>
     </g>
     <g id="text_8">
      <!-- −48.3 -->
      <g transform="translate(633.243628 709.493429) rotate(-45) scale(0.1 -0.1)">
       <defs>
        <path id="DejaVuSans-33" d="M 2597 2516 
Q 3050 2419 3304 2112 
Q 3559 1806 3559 1356 
Q 3559 666 3084 287 
Q 2609 -91 1734 -91 
Q 1441 -91 1130 -33 
Q 819 25 488 141 
L 488 750 
Q 750 597 1062 519 
Q 1375 441 1716 441 
Q 2309 441 2620 675 
Q 2931 909 2931 1356 
Q 2931 1769 2642 2001 
Q 2353 2234 1838 2234 
L 1294 2234 
L 1294 2753 
L 1863 2753 
Q 2328 2753 2575 2939 
Q 2822 3125 2822 3475 
Q 2822 3834 2567 4026 
Q 2313 4219 1838 4219 
Q 1578 4219 1281 4162 
Q 984 4106 628 3988 
L 628 4550 
Q 988 4650 1302 4700 
Q 1616 4750 1894 4750 
Q 2613 4750 3031 4423 
Q 3450 4097 3450 3541 
Q 3450 3153 3228 2886 
Q 3006 2619 2597 2516 
z
" transform="scale(0.015625)"/>
       </defs>
       <use xlink:href="#DejaVuSans-2212"/>
       <use xlink:href="#DejaVuSans-34" transform="translate(83.789062 0)"/>
       <use xlink:href="#DejaVuSans-38" transform="translate(147.412109 0)"/>
       <use xlink:href="#DejaVuSans-2e" transform="translate(211.035156 0)"/>
       <use xlink:href="#DejaVuSans-33" transform="translate(242.822266 0)"/>
      </g>
     </g>
    </g>
    <g id="text_9">
     <!-- Longitude (°) -->
     <g transform="translate(336.139844 722.562428) scale(0.1 -0.1)">
      <defs>
       <path id="DejaVuSans-4c" d="M 628 4666 
L 1259 4666 
L 1259 531 
L 3531 531 
L 3531 0 
L 628 0 
L 628 4666 
z
" transform="scale(0.015625)"/>
       <path id="DejaVuSans-6f" d="M 1959 3097 
Q 1497 3097 1228 2736 
Q 959 2375 959 1747 
Q 959 1119 1226 758 
Q 1494 397 1959 397 
Q 2419 397 2687 759 
Q 2956 1122 2956 1747 
Q 2956 2369 2687 2733 
Q 2419 3097 1959 3097 
z
M 1959 3584 
Q 2709 3584 3137 3096 
Q 3566 2609 3566 1747 
Q 3566 888 3137 398 
Q 2709 -91 1959 -91 
Q 1206 -91 779 398 
Q 353 888 353 1747 
Q 353 2609 779 3096 
Q 1206 3584 1959 3584 
z
" transform="scale(0.015625)"/>
       <path id="DejaVuSans-6e" d="M 3513 2113 
L 3513 0 
L 2938 0 
L 2938 2094 
Q 2938 2591 2744 2837 
Q 2550 3084 2163 3084 
Q 1697 3084 1428 2787 
Q 1159 2491 1159 1978 
L 1159 0 
L 581 0 
L 581 3500 
L 1159 3500 
L 1159 2956 
Q 1366 3272 1645 3428 
Q 1925 3584 2291 3584 
Q 2894 3584 3203 3211 
Q 3513 2838 3513 2113 
z
" transform="scale(0.015625)"/>
       <path id="DejaVuSans-67" d="M 2906 1791 
Q 2906 2416 2648 2759 
Q 2391 3103 1925 3103 
Q 1463 3103 1205 2759 
Q 947 2416 947 1791 
Q 947 1169 1205 825 
Q 1463 481 1925 481 
Q 2391 481 2648 825 
Q 2906 1169 2906 1791 
z
M 3481 434 
Q 3481 -459 3084 -895 
Q 2688 -1331 1869 -1331 
Q 1566 -1331 1297 -1286 
Q 1028 -1241 775 -1147 
L 775 -588 
Q 1028 -725 1275 -790 
Q 1522 -856 1778 -856 
Q 2344 -856 2625 -561 
Q 2906 -266 2906 331 
L 2906 616 
Q 2728 306 2450 153 
Q 2172 0 1784 0 
Q 1141 0 747 490 
Q 353 981 353 1791 
Q 353 2603 747 3093 
Q 1141 3584 1784 3584 
Q 2172 3584 2450 3431 
Q 2728 3278 2906 2969 
L 2906 3500 
L 3481 3500 
L 3481 434 
z
" transform="scale(0.015625)"/>
       <path id="DejaVuSans-69" d="M 603 3500 
L 1178 3500 
L 1178 0 
L 603 0 
L 603 3500 
z
M 603 4863 
L 1178 4863 
L 1178 4134 
L 603 4134 
L 603 4863 
z
" transform="scale(0.015625)"/>
       <path id="DejaVuSans-74" d="M 1172 4494 
L 1172 3500 
L 2356 3500 
L 2356 3053 
L 1172 3053 
L 1172 1153 
Q 1172 725 1289 603 
Q 1406 481 1766 481 
L 2356 481 
L 2356 0 
L 1766 0 
Q 1100 0 847 248 
Q 594 497 594 1153 
L 594 3053 
L 172 3053 
L 172 3500 
L 594 3500 
L 594 4494 
L 1172 4494 
z
" transform="scale(0.015625)"/>
       <path id="DejaVuSans-75" d="M 544 1381 
L 544 3500 
L 1119 3500 
L 1119 1403 
Q 1119 906 1312 657 
Q 1506 409 1894 409 
Q 2359 409 2629 706 
Q 2900 1003 2900 1516 
L 2900 3500 
L 3475 3500 
L 3475 0 
L 2900 0 
L 2900 538 
Q 2691 219 2414 64 
Q 2138 -91 1772 -91 
Q 1169 -91 856 284 
Q 544 659 544 1381 
z
M 1991 3584 
L 1991 3584 
z
" transform="scale(0.015625)"/>
       <path id="DejaVuSans-64" d="M 2906 2969 
L 2906 4863 
L 3481 4863 
L 3481 0 
L 2906 0 
L 2906 525 
Q 2725 213 2448 61 
Q 2172 -91 1784 -91 
Q 1150 -91 751 415 
Q 353 922 353 1747 
Q 353 2572 751 3078 
Q 1150 3584 1784 3584 
Q 2172 3584 2448 3432 
Q 2725 3281 2906 2969 
z
M 947 1747 
Q 947 1113 1208 752 
Q 1469 391 1925 391 
Q 2381 391 2643 752 
Q 2906 1113 2906 1747 
Q 2906 2381 2643 2742 
Q 2381 3103 1925 3103 
Q 1469 3103 1208 2742 
Q 947 2381 947 1747 
z
" transform="scale(0.015625)"/>
       <path id="DejaVuSans-65" d="M 3597 1894 
L 3597 1613 
L 953 1613 
Q 991 1019 1311 708 
Q 1631 397 2203 397 
Q 2534 397 2845 478 
Q 3156 559 3463 722 
L 3463 178 
Q 3153 47 2828 -22 
Q 2503 -91 2169 -91 
Q 1331 -91 842 396 
Q 353 884 353 1716 
Q 353 2575 817 3079 
Q 1281 3584 2069 3584 
Q 2775 3584 3186 3129 
Q 3597 2675 3597 1894 
z
M 3022 2063 
Q 3016 2534 2758 2815 
Q 2500 3097 2075 3097 
Q 1594 3097 1305 2825 
Q 1016 2553 972 2059 
L 3022 2063 
z
" transform="scale(0.015625)"/>
       <path id="DejaVuSans-20" transform="scale(0.015625)"/>
       <path id="DejaVuSans-28" d="M 1984 4856 
Q 1566 4138 1362 3434 
Q 1159 2731 1159 2009 
Q 1159 1288 1364 580 
Q 1569 -128 1984 -844 
L 1484 -844 
Q 1016 -109 783 600 
Q 550 1309 550 2009 
Q 550 2706 781 3412 
Q 1013 4119 1484 4856 
L 1984 4856 
z
" transform="scale(0.015625)"/>
       <path id="DejaVuSans-b0" d="M 1600 4347 
Q 1350 4347 1178 4173 
Q 1006 4000 1006 3750 
Q 1006 3503 1178 3333 
Q 1350 3163 1600 3163 
Q 1850 3163 2022 3333 
Q 2194 3503 2194 3750 
Q 2194 3997 2020 4172 
Q 1847 4347 1600 4347 
z
M 1600 4750 
Q 1800 4750 1984 4673 
Q 2169 4597 2303 4453 
Q 2447 4313 2519 4134 
Q 2591 3956 2591 3750 
Q 2591 3338 2302 3052 
Q 2013 2766 1594 2766 
Q 1172 2766 890 3047 
Q 609 3328 609 3750 
Q 609 4169 896 4459 
Q 1184 4750 1600 4750 
z
" transform="scale(0.015625)"/>
       <path id="DejaVuSans-29" d="M 513 4856 
L 1013 4856 
Q 1481 4119 1714 3412 
Q 1947 2706 1947 2009 
Q 1947 1309 1714 600 
Q 1481 -109 1013 -844 
L 513 -844 
Q 928 -128 1133 580 
Q 1338 1288 1338 2009 
Q 1338 2731 1133 3434 
Q 928 4138 513 4856 
z
" transform="scale(0.015625)"/>
      </defs>
      <use xlink:href="#DejaVuSans-4c"/>
      <use xlink:href="#DejaVuSans-6f" transform="translate(53.962891 0)"/>
      <use xlink:href="#DejaVuSans-6e" transform="translate(115.144531 0)"/>
      <use xlink:href="#DejaVuSans-67" transform="translate(178.523438 0)"/>
      <use xlink:href="#DejaVuSans-69" transform="translate(242 0)"/>
      <use xlink:href="#DejaVuSans-74" transform="translate(269.783203 0)"/>
      <use xlink:href="#DejaVuSans-75" transform="translate(308.992188 0)"/>
      <use xlink:href="#DejaVuSans-64" transform="translate(372.371094 0)"/>
      <use xlink:href="#DejaVuSans-65" transform="translate(435.847656 0)"/>
      <use xlink:href="#DejaVuSans-20" transform="translate(497.371094 0)"/>
      <use xlink:href="#DejaVuSans-28" transform="translate(529.158203 0)"/>
      <use xlink:href="#DejaVuSans-b0" transform="translate(568.171875 0)"/>
      <use xlink:href="#DejaVuSans-29" transform="translate(618.171875 0)"/>
     </g>
    </g>
   </g>
   <g id="matplotlib.axis_2">
    <g id="ytick_1">
     <g id="line2d_17">
      <path d="M 90 660.506711 
L 648 660.506711 
" clip-path="url(#p139bdc9a90)" style="fill: none; stroke: #b0b0b0; stroke-width: 0.8; stroke-linecap: square"/>
     </g>
     <g id="line2d_18">
      <defs>
       <path id="mae19a7195d" d="M 0 0 
L -3.5 0 
" style="stroke: #000000; stroke-width: 0.8"/>
      </defs>
      <g>
       <use xlink:href="#mae19a7195d" x="90" y="660.506711" style="stroke: #000000; stroke-width: 0.8"/>
      </g>
     </g>
     <g id="text_10">
      <!-- −5.9 -->
      <g transform="translate(58.717187 664.30593) scale(0.1 -0.1)">
       <use xlink:href="#DejaVuSans-2212"/>
       <use xlink:href="#DejaVuSans-35" transform="translate(83.789062 0)"/>
       <use xlink:href="#DejaVuSans-2e" transform="translate(147.412109 0)"/>
       <use xlink:href="#DejaVuSans-39" transform="translate(179.199219 0)"/>
      </g>
     </g>
    </g>
    <g id="ytick_2">
     <g id="line2d_19">
      <path d="M 90 588.904566 
L 648 588.904566 
" clip-path="url(#p139bdc9a90)" style="fill: none; stroke: #b0b0b0; stroke-width: 0.8; stroke-linecap: square"/>
     </g>
     <g id="line2d_20">
      <g>
       <use xlink:href="#mae19a7195d" x="90" y="588.904566" style="stroke: #000000; stroke-width: 0.8"/>
      </g>
     </g>
     <g id="text_11">
      <!-- −5.8 -->
      <g transform="translate(58.717187 592.703784) scale(0.1 -0.1)">
       <use xlink:href="#DejaVuSans-2212"/>
       <use xlink:href="#DejaVuSans-35" transform="translate(83.789062 0)"/>
       <use xlink:href="#DejaVuSans-2e" transform="translate(147.412109 0)"/>
       <use xlink:href="#DejaVuSans-38" transform="translate(179.199219 0)"/>
      </g>
     </g>
    </g>
    <g id="ytick_3">
     <g id="line2d_21">
      <path d="M 90 517.30242 
L 648 517.30242 
" clip-path="url(#p139bdc9a90)" style="fill: none; stroke: #b0b0b0; stroke-width: 0.8; stroke-linecap: square"/>
     </g>
     <g id="line2d_22">
      <g>
       <use xlink:href="#mae19a7195d" x="90" y="517.30242" style="stroke: #000000; stroke-width: 0.8"/>
      </g>
     </g>
     <g id="text_12">
      <!-- −5.7 -->
      <g transform="translate(58.717187 521.101639) scale(0.1 -0.1)">
       <use xlink:href="#DejaVuSans-2212"/>
       <use xlink:href="#DejaVuSans-35" transform="translate(83.789062 0)"/>
       <use xlink:href="#DejaVuSans-2e" transform="translate(147.412109 0)"/>
       <use xlink:href="#DejaVuSans-37" transform="translate(179.199219 0)"/>
      </g>
     </g>
    </g>
    <g id="ytick_4">
     <g id="line2d_23">
      <path d="M 90 445.700275 
L 648 445.700275 
" clip-path="url(#p139bdc9a90)" style="fill: none; stroke: #b0b0b0; stroke-width: 0.8; stroke-linecap: square"/>
     </g>
     <g id="line2d_24">
      <g>
       <use xlink:href="#mae19a7195d" x="90" y="445.700275" style="stroke: #000000; stroke-width: 0.8"/>
      </g>
     </g>
     <g id="text_13">
      <!-- −5.6 -->
      <g transform="translate(58.717187 449.499494) scale(0.1 -0.1)">
       <use xlink:href="#DejaVuSans-2212"/>
       <use xlink:href="#DejaVuSans-35" transform="translate(83.789062 0)"/>
       <use xlink:href="#DejaVuSans-2e" transform="translate(147.412109 0)"/>
       <use xlink:href="#DejaVuSans-36" transform="translate(179.199219 0)"/>
      </g>
     </g>
    </g>
    <g id="ytick_5">
     <g id="line2d_25">
      <path d="M 90 374.09813 
L 648 374.09813 
" clip-path="url(#p139bdc9a90)" style="fill: none; stroke: #b0b0b0; stroke-width: 0.8; stroke-linecap: square"/>
     </g>
     <g id="line2d_26">
      <g>
       <use xlink:href="#mae19a7195d" x="90" y="374.09813" style="stroke: #000000; stroke-width: 0.8"/>
      </g>
     </g>
     <g id="text_14">
      <!-- −5.5 -->
      <g transform="translate(58.717187 377.897349) scale(0.1 -0.1)">
       <use xlink:href="#DejaVuSans-2212"/>
       <use xlink:href="#DejaVuSans-35" transform="translate(83.789062 0)"/>
       <use xlink:href="#DejaVuSans-2e" transform="translate(147.412109 0)"/>
       <use xlink:href="#DejaVuSans-35" transform="translate(179.199219 0)"/>
      </g>
     </g>
    </g>
    <g id="ytick_6">
     <g id="line2d_27">
      <path d="M 90 302.495985 
L 648 302.495985 
" clip-path="url(#p139bdc9a90)" style="fill: none; stroke: #b0b0b0; stroke-width: 0.8; stroke-linecap: square"/>
     </g>
     <g id="line2d_28">
      <g>
       <use xlink:href="#mae19a7195d" x="90" y="302.495985" style="stroke: #000000; stroke-width: 0.8"/>
      </g>
     </g>
     <g id="text_15">
      <!-- −5.4 -->
      <g transform="translate(58.717187 306.295203) scale(0.1 -0.1)">
       <use xlink:href="#DejaVuSans-2212"/>
       <use xlink:href="#DejaVuSans-35" transform="translate(83.789062 0)"/>
       <use xlink:href="#DejaVuSans-2e" transform="translate(147.412109 0)"/>
       <use xlink:href="#DejaVuSans-34" transform="translate(179.199219 0)"/>
      </g>
     </g>
    </g>
    <g id="ytick_7">
     <g id="line2d_29">
      <path d="M 90 230.89384 
L 648 230.89384 
" clip-path="url(#p139bdc9a90)" style="fill: none; stroke: #b0b0b0; stroke-width: 0.8; stroke-linecap: square"/>
     </g>
     <g id="line2d_30">
      <g>
       <use xlink:href="#mae19a7195d" x="90" y="230.89384" style="stroke: #000000; stroke-width: 0.8"/>
      </g>
     </g>
     <g id="text_16">
      <!-- −5.3 -->
      <g transform="translate(58.717187 234.693058) scale(0.1 -0.1)">
       <use xlink:href="#DejaVuSans-2212"/>
       <use xlink:href="#DejaVuSans-35" transform="translate(83.789062 0)"/>
       <use xlink:href="#DejaVuSans-2e" transform="translate(147.412109 0)"/>
       <use xlink:href="#DejaVuSans-33" transform="translate(179.199219 0)"/>
      </g>
     </g>
    </g>
    <g id="text_17">
     <!-- Latitude (°) -->
     <g transform="translate(52.6375 464.889531) rotate(-90) scale(0.1 -0.1)">
      <defs>
       <path id="DejaVuSans-61" d="M 2194 1759 
Q 1497 1759 1228 1600 
Q 959 1441 959 1056 
Q 959 750 1161 570 
Q 1363 391 1709 391 
Q 2188 391 2477 730 
Q 2766 1069 2766 1631 
L 2766 1759 
L 2194 1759 
z
M 3341 1997 
L 3341 0 
L 2766 0 
L 2766 531 
Q 2569 213 2275 61 
Q 1981 -91 1556 -91 
Q 1019 -91 701 211 
Q 384 513 384 1019 
Q 384 1609 779 1909 
Q 1175 2209 1959 2209 
L 2766 2209 
L 2766 2266 
Q 2766 2663 2505 2880 
Q 2244 3097 1772 3097 
Q 1472 3097 1187 3025 
Q 903 2953 641 2809 
L 641 3341 
Q 956 3463 1253 3523 
Q 1550 3584 1831 3584 
Q 2591 3584 2966 3190 
Q 3341 2797 3341 1997 
z
" transform="scale(0.015625)"/>
      </defs>
      <use xlink:href="#DejaVuSans-4c"/>
      <use xlink:href="#DejaVuSans-61" transform="translate(55.712891 0)"/>
      <use xlink:href="#DejaVuSans-74" transform="translate(116.992188 0)"/>
      <use xlink:href="#DejaVuSans-69" transform="translate(156.201172 0)"/>
      <use xlink:href="#DejaVuSans-74" transform="translate(183.984375 0)"/>
      <use xlink:href="#DejaVuSans-75" transform="translate(223.193359 0)"/>
      <use xlink:href="#DejaVuSans-64" transform="translate(286.572266 0)"/>
      <use xlink:href="#DejaVuSans-65" transform="translate(350.048828 0)"/>
      <use xlink:href="#DejaVuSans-20" transform="translate(411.572266 0)"/>
      <use xlink:href="#DejaVuSans-28" transform="translate(443.359375 0)"/>
      <use xlink:href="#DejaVuSans-b0" transform="translate(482.373047 0)"/>
      <use xlink:href="#DejaVuSans-29" transform="translate(532.373047 0)"/>
     </g>
    </g>
   </g>
   <g id="patch_3">
    <path d="M 90 675.451014 
L 90 197.188986 
" style="fill: none; stroke: #000000; stroke-width: 0.8; stroke-linejoin: miter; stroke-linecap: square"/>
   </g>
   <g id="patch_4">
    <path d="M 648 675.451014 
L 648 197.188986 
" style="fill: none; stroke: #000000; stroke-width: 0.8; stroke-linejoin: miter; stroke-linecap: square"/>
   </g>
   <g id="patch_5">
    <path d="M 90 675.451014 
L 648 675.451014 
" style="fill: none; stroke: #000000; stroke-width: 0.8; stroke-linejoin: miter; stroke-linecap: square"/>
   </g>
   <g id="patch_6">
    <path d="M 90 197.188986 
L 648 197.188986 
" style="fill: none; stroke: #000000; stroke-width: 0.8; stroke-linejoin: miter; stroke-linecap: square"/>
   </g>
   <g id="legend_1">
    <g id="patch_7">
     <path d="M 207.769531 770.038756 
L 530.230469 770.038756 
Q 532.230469 770.038756 532.230469 768.038756 
L 532.230469 754.190319 
Q 532.230469 752.190319 530.230469 752.190319 
L 207.769531 752.190319 
Q 205.769531 752.190319 205.769531 754.190319 
L 205.769531 768.038756 
Q 205.769531 770.038756 207.769531 770.038756 
z
" style="fill: #ffffff; opacity: 0.8; stroke: #cccccc; stroke-linejoin: miter"/>
    </g>
    <g id="line2d_31">
     <defs>
      <path id="mee300edc5d" d="M 0 5 
C 1.326016 5 2.597899 4.473168 3.535534 3.535534 
C 4.473168 2.597899 5 1.326016 5 0 
C 5 -1.326016 4.473168 -2.597899 3.535534 -3.535534 
C 2.597899 -4.473168 1.326016 -5 0 -5 
C -1.326016 -5 -2.597899 -4.473168 -3.535534 -3.535534 
C -4.473168 -2.597899 -5 -1.326016 -5 0 
C -5 1.326016 -4.473168 2.597899 -3.535534 3.535534 
C -2.597899 4.473168 -1.326016 5 0 5 
z
"/>
     </defs>
     <g>
      <use xlink:href="#mee300edc5d" x="219.769531" y="760.459069" style="fill: #b3e2cd; fill-opacity: 0.65"/>
     </g>
    </g>
    <g id="text_18">
     <!-- São Domingos do Araguaia -->
     <g transform="translate(237.769531 763.959069) scale(0.1 -0.1)">
      <defs>
       <path id="DejaVuSans-53" d="M 3425 4513 
L 3425 3897 
Q 3066 4069 2747 4153 
Q 2428 4238 2131 4238 
Q 1616 4238 1336 4038 
Q 1056 3838 1056 3469 
Q 1056 3159 1242 3001 
Q 1428 2844 1947 2747 
L 2328 2669 
Q 3034 2534 3370 2195 
Q 3706 1856 3706 1288 
Q 3706 609 3251 259 
Q 2797 -91 1919 -91 
Q 1588 -91 1214 -16 
Q 841 59 441 206 
L 441 856 
Q 825 641 1194 531 
Q 1563 422 1919 422 
Q 2459 422 2753 634 
Q 3047 847 3047 1241 
Q 3047 1584 2836 1778 
Q 2625 1972 2144 2069 
L 1759 2144 
Q 1053 2284 737 2584 
Q 422 2884 422 3419 
Q 422 4038 858 4394 
Q 1294 4750 2059 4750 
Q 2388 4750 2728 4690 
Q 3069 4631 3425 4513 
z
" transform="scale(0.015625)"/>
       <path id="DejaVuSans-e3" d="M 2194 1759 
Q 1497 1759 1228 1600 
Q 959 1441 959 1056 
Q 959 750 1161 570 
Q 1363 391 1709 391 
Q 2188 391 2477 730 
Q 2766 1069 2766 1631 
L 2766 1759 
L 2194 1759 
z
M 3341 1997 
L 3341 0 
L 2766 0 
L 2766 531 
Q 2569 213 2275 61 
Q 1981 -91 1556 -91 
Q 1019 -91 701 211 
Q 384 513 384 1019 
Q 384 1609 779 1909 
Q 1175 2209 1959 2209 
L 2766 2209 
L 2766 2266 
Q 2766 2663 2505 2880 
Q 2244 3097 1772 3097 
Q 1472 3097 1187 3025 
Q 903 2953 641 2809 
L 641 3341 
Q 956 3463 1253 3523 
Q 1550 3584 1831 3584 
Q 2591 3584 2966 3190 
Q 3341 2797 3341 1997 
z
M 1844 4281 
L 1666 4453 
Q 1597 4516 1545 4545 
Q 1494 4575 1453 4575 
Q 1334 4575 1278 4461 
Q 1222 4347 1216 4091 
L 825 4091 
Q 831 4513 990 4742 
Q 1150 4972 1434 4972 
Q 1553 4972 1653 4928 
Q 1753 4884 1869 4781 
L 2047 4609 
Q 2116 4547 2167 4517 
Q 2219 4488 2259 4488 
Q 2378 4488 2434 4602 
Q 2491 4716 2497 4972 
L 2888 4972 
Q 2881 4550 2722 4320 
Q 2563 4091 2278 4091 
Q 2159 4091 2059 4134 
Q 1959 4178 1844 4281 
z
" transform="scale(0.015625)"/>
       <path id="DejaVuSans-44" d="M 1259 4147 
L 1259 519 
L 2022 519 
Q 2988 519 3436 956 
Q 3884 1394 3884 2338 
Q 3884 3275 3436 3711 
Q 2988 4147 2022 4147 
L 1259 4147 
z
M 628 4666 
L 1925 4666 
Q 3281 4666 3915 4102 
Q 4550 3538 4550 2338 
Q 4550 1131 3912 565 
Q 3275 0 1925 0 
L 628 0 
L 628 4666 
z
" transform="scale(0.015625)"/>
       <path id="DejaVuSans-6d" d="M 3328 2828 
Q 3544 3216 3844 3400 
Q 4144 3584 4550 3584 
Q 5097 3584 5394 3201 
Q 5691 2819 5691 2113 
L 5691 0 
L 5113 0 
L 5113 2094 
Q 5113 2597 4934 2840 
Q 4756 3084 4391 3084 
Q 3944 3084 3684 2787 
Q 3425 2491 3425 1978 
L 3425 0 
L 2847 0 
L 2847 2094 
Q 2847 2600 2669 2842 
Q 2491 3084 2119 3084 
Q 1678 3084 1418 2786 
Q 1159 2488 1159 1978 
L 1159 0 
L 581 0 
L 581 3500 
L 1159 3500 
L 1159 2956 
Q 1356 3278 1631 3431 
Q 1906 3584 2284 3584 
Q 2666 3584 2933 3390 
Q 3200 3197 3328 2828 
z
" transform="scale(0.015625)"/>
       <path id="DejaVuSans-73" d="M 2834 3397 
L 2834 2853 
Q 2591 2978 2328 3040 
Q 2066 3103 1784 3103 
Q 1356 3103 1142 2972 
Q 928 2841 928 2578 
Q 928 2378 1081 2264 
Q 1234 2150 1697 2047 
L 1894 2003 
Q 2506 1872 2764 1633 
Q 3022 1394 3022 966 
Q 3022 478 2636 193 
Q 2250 -91 1575 -91 
Q 1294 -91 989 -36 
Q 684 19 347 128 
L 347 722 
Q 666 556 975 473 
Q 1284 391 1588 391 
Q 1994 391 2212 530 
Q 2431 669 2431 922 
Q 2431 1156 2273 1281 
Q 2116 1406 1581 1522 
L 1381 1569 
Q 847 1681 609 1914 
Q 372 2147 372 2553 
Q 372 3047 722 3315 
Q 1072 3584 1716 3584 
Q 2034 3584 2315 3537 
Q 2597 3491 2834 3397 
z
" transform="scale(0.015625)"/>
       <path id="DejaVuSans-41" d="M 2188 4044 
L 1331 1722 
L 3047 1722 
L 2188 4044 
z
M 1831 4666 
L 2547 4666 
L 4325 0 
L 3669 0 
L 3244 1197 
L 1141 1197 
L 716 0 
L 50 0 
L 1831 4666 
z
" transform="scale(0.015625)"/>
       <path id="DejaVuSans-72" d="M 2631 2963 
Q 2534 3019 2420 3045 
Q 2306 3072 2169 3072 
Q 1681 3072 1420 2755 
Q 1159 2438 1159 1844 
L 1159 0 
L 581 0 
L 581 3500 
L 1159 3500 
L 1159 2956 
Q 1341 3275 1631 3429 
Q 1922 3584 2338 3584 
Q 2397 3584 2469 3576 
Q 2541 3569 2628 3553 
L 2631 2963 
z
" transform="scale(0.015625)"/>
      </defs>
      <use xlink:href="#DejaVuSans-53"/>
      <use xlink:href="#DejaVuSans-e3" transform="translate(63.476562 0)"/>
      <use xlink:href="#DejaVuSans-6f" transform="translate(124.755859 0)"/>
      <use xlink:href="#DejaVuSans-20" transform="translate(185.9375 0)"/>
      <use xlink:href="#DejaVuSans-44" transform="translate(217.724609 0)"/>
      <use xlink:href="#DejaVuSans-6f" transform="translate(294.726562 0)"/>
      <use xlink:href="#DejaVuSans-6d" transform="translate(355.908203 0)"/>
      <use xlink:href="#DejaVuSans-69" transform="translate(453.320312 0)"/>
      <use xlink:href="#DejaVuSans-6e" transform="translate(481.103516 0)"/>
      <use xlink:href="#DejaVuSans-67" transform="translate(544.482422 0)"/>
      <use xlink:href="#DejaVuSans-6f" transform="translate(607.958984 0)"/>
      <use xlink:href="#DejaVuSans-73" transform="translate(669.140625 0)"/>
      <use xlink:href="#DejaVuSans-20" transform="translate(721.240234 0)"/>
      <use xlink:href="#DejaVuSans-64" transform="translate(753.027344 0)"/>
      <use xlink:href="#DejaVuSans-6f" transform="translate(816.503906 0)"/>
      <use xlink:href="#DejaVuSans-20" transform="translate(877.685547 0)"/>
      <use xlink:href="#DejaVuSans-41" transform="translate(909.472656 0)"/>
      <use xlink:href="#DejaVuSans-72" transform="translate(977.880859 0)"/>
      <use xlink:href="#DejaVuSans-61" transform="translate(1018.994141 0)"/>
      <use xlink:href="#DejaVuSans-67" transform="translate(1080.273438 0)"/>
      <use xlink:href="#DejaVuSans-75" transform="translate(1143.75 0)"/>
      <use xlink:href="#DejaVuSans-61" transform="translate(1207.128906 0)"/>
      <use xlink:href="#DejaVuSans-69" transform="translate(1268.408203 0)"/>
      <use xlink:href="#DejaVuSans-61" transform="translate(1296.191406 0)"/>
     </g>
    </g>
    <g id="line2d_32">
     <defs>
      <path id="m6ea9a2ffb9" d="M 0 5 
C 1.326016 5 2.597899 4.473168 3.535534 3.535534 
C 4.473168 2.597899 5 1.326016 5 0 
C 5 -1.326016 4.473168 -2.597899 3.535534 -3.535534 
C 2.597899 -4.473168 1.326016 -5 0 -5 
C -1.326016 -5 -2.597899 -4.473168 -3.535534 -3.535534 
C -4.473168 -2.597899 -5 -1.326016 -5 0 
C -5 1.326016 -4.473168 2.597899 -3.535534 3.535534 
C -2.597899 4.473168 -1.326016 5 0 5 
z
"/>
     </defs>
     <g>
      <use xlink:href="#m6ea9a2ffb9" x="403.517969" y="760.459069" style="fill: #cccccc; fill-opacity: 0.65"/>
     </g>
    </g>
    <g id="text_19">
     <!-- São João do Araguaia -->
     <g transform="translate(421.517969 763.959069) scale(0.1 -0.1)">
      <defs>
       <path id="DejaVuSans-4a" d="M 628 4666 
L 1259 4666 
L 1259 325 
Q 1259 -519 939 -900 
Q 619 -1281 -91 -1281 
L -331 -1281 
L -331 -750 
L -134 -750 
Q 284 -750 456 -515 
Q 628 -281 628 325 
L 628 4666 
z
" transform="scale(0.015625)"/>
      </defs>
      <use xlink:href="#DejaVuSans-53"/>
      <use xlink:href="#DejaVuSans-e3" transform="translate(63.476562 0)"/>
      <use xlink:href="#DejaVuSans-6f" transform="translate(124.755859 0)"/>
      <use xlink:href="#DejaVuSans-20" transform="translate(185.9375 0)"/>
      <use xlink:href="#DejaVuSans-4a" transform="translate(217.724609 0)"/>
      <use xlink:href="#DejaVuSans-6f" transform="translate(247.216797 0)"/>
      <use xlink:href="#DejaVuSans-e3" transform="translate(308.398438 0)"/>
      <use xlink:href="#DejaVuSans-6f" transform="translate(369.677734 0)"/>
      <use xlink:href="#DejaVuSans-20" transform="translate(430.859375 0)"/>
      <use xlink:href="#DejaVuSans-64" transform="translate(462.646484 0)"/>
      <use xlink:href="#DejaVuSans-6f" transform="translate(526.123047 0)"/>
      <use xlink:href="#DejaVuSans-20" transform="translate(587.304688 0)"/>
      <use xlink:href="#DejaVuSans-41" transform="translate(619.091797 0)"/>
      <use xlink:href="#DejaVuSans-72" transform="translate(687.5 0)"/>
      <use xlink:href="#DejaVuSans-61" transform="translate(728.613281 0)"/>
      <use xlink:href="#DejaVuSans-67" transform="translate(789.892578 0)"/>
      <use xlink:href="#DejaVuSans-75" transform="translate(853.369141 0)"/>
      <use xlink:href="#DejaVuSans-61" transform="translate(916.748047 0)"/>
      <use xlink:href="#DejaVuSans-69" transform="translate(978.027344 0)"/>
      <use xlink:href="#DejaVuSans-61" transform="translate(1005.810547 0)"/>
     </g>
    </g>
   </g>
  </g>
 </g>
 <defs>
  <clipPath id="p139bdc9a90">
   <rect x="90" y="197.188986" width="558" height="478.262029"/>
  </clipPath>
 </defs>
</svg>
