<?xml version="1.0" encoding="utf-8" standalone="no"?>
<!DOCTYPE svg PUBLIC "-//W3C//DTD SVG 1.1//EN"
  "http://www.w3.org/Graphics/SVG/1.1/DTD/svg11.dtd">
<svg xmlns:xlink="http://www.w3.org/1999/xlink" width="720pt" height="864pt" viewBox="0 0 720 864" xmlns="http://www.w3.org/2000/svg" version="1.1">
 <metadata>
  <rdf:RDF xmlns:dc="http://purl.org/dc/elements/1.1/" xmlns:cc="http://creativecommons.org/ns#" xmlns:rdf="http://www.w3.org/1999/02/22-rdf-syntax-ns#">
   <cc:Work>
    <dc:type rdf:resource="http://purl.org/dc/dcmitype/StillImage"/>
    <dc:date>2025-06-16T16:53:24.184988</dc:date>
    <dc:format>image/svg+xml</dc:format>
    <dc:creator>
     <cc:Agent>
      <dc:title>Matplotlib v3.10.1, https://matplotlib.org/</dc:title>
     </cc:Agent>
    </dc:creator>
   </cc:Work>
  </rdf:RDF>
 </metadata>
 <defs>
  <style type="text/css">*{stroke-linejoin: round; stroke-linecap: butt}</style>
 </defs>
 <g id="figure_1">
  <g id="patch_1">
   <path d="M 0 864 
L 720 864 
L 720 0 
L 0 0 
z
" style="fill: #ffffff"/>
  </g>
  <g id="axes_1">
   <g id="patch_2">
    <path d="M 90 671.740967 
L 648 671.740967 
L 648 200.899033 
L 90 200.899033 
z
" style="fill: #ffffff"/>
   </g>
   <g id="PatchCollection_1">
    <path d="M 528.384007 345.244263 
L 528.343216 345.982198 
L 528.044084 347.131927 
L 528.009847 347.500134 
L 528.152398 347.798478 
L 528.980744 348.376422 
L 529.198692 348.714177 
L 529.480396 350.140125 
L 529.667258 350.532886 
L 529.838933 350.731316 
L 530.408304 351.079554 
L 531.131067 351.027718 
L 531.477127 351.058724 
L 531.642191 351.182442 
L 532.224503 352.544588 
L 532.428516 352.784021 
L 533.41344 353.441155 
L 533.659866 353.79746 
L 533.82978 354.153456 
L 533.946528 354.782441 
L 533.957416 355.28339 
L 533.899979 355.516121 
L 533.269929 356.387834 
L 533.055712 357.088005 
L 532.938191 358.738122 
L 532.819308 359.040601 
L 531.89345 359.777119 
L 531.724131 360.013449 
L 531.712894 360.307688 
L 531.809791 360.694344 
L 532.044831 361.193515 
L 532.199624 362.180954 
L 532.376974 362.661215 
L 532.969146 363.482506 
L 533.008182 363.681844 
L 532.589959 364.536308 
L 532.579188 364.909524 
L 532.356226 364.949242 
L 532.083515 365.220134 
L 532.045381 365.529887 
L 532.153215 365.704377 
L 531.987814 365.634861 
L 532.034366 366.041312 
L 531.961522 366.246959 
L 531.548313 366.740603 
L 531.643356 367.191525 
L 531.535499 367.373205 
L 530.917446 367.576317 
L 530.859996 367.796272 
L 530.979031 368.020692 
L 531.230741 368.270526 
L 531.514199 368.736353 
L 531.656953 369.220133 
L 531.808136 370.053105 
L 532.023237 370.596817 
L 531.84303 370.714694 
L 531.65428 370.749344 
L 531.414318 371.466191 
L 531.379236 372.129788 
L 531.453667 372.349221 
L 531.748571 372.724056 
L 531.676705 373.134113 
L 531.915545 373.579078 
L 532.438631 374.124792 
L 532.388924 374.39623 
L 532.439189 374.669887 
L 532.558561 374.844364 
L 532.451093 375.03069 
L 532.258743 374.93062 
L 532.081994 375.046559 
L 532.127998 375.29041 
L 532.270796 375.436988 
L 532.321026 375.677351 
L 531.902144 375.8911 
L 531.751385 376.23078 
L 531.630087 376.805036 
L 531.285097 377.462761 
L 531.192802 377.823285 
L 531.143945 378.549613 
L 531.166871 378.78381 
L 531.393749 379.182718 
L 531.252289 379.592847 
L 531.344795 379.813422 
L 531.379475 380.261696 
L 531.549535 380.370693 
L 531.676473 380.796029 
L 531.846272 381.024266 
L 532.330465 381.129064 
L 532.52243 381.225261 
L 532.649486 381.391986 
L 532.461844 381.759579 
L 532.296803 382.419053 
L 531.97439 382.97184 
L 531.656234 383.924539 
L 531.726023 384.113391 
L 531.66473 384.334513 
L 531.522226 384.477517 
L 531.261218 384.544377 
L 531.107564 384.68778 
L 530.703772 384.626258 
L 530.595533 384.812199 
L 530.715677 384.986287 
L 530.750502 385.199953 
L 530.694259 385.84499 
L 530.836414 386.484399 
L 531.037192 386.922047 
L 531.204067 388.040324 
L 531.369058 388.450521 
L 531.774212 389.081911 
L 531.735243 389.325077 
L 531.54657 389.441417 
L 531.335857 389.43854 
L 531.39334 389.623921 
L 531.308576 389.829194 
L 531.109085 389.895605 
L 531.155446 390.108097 
L 531.371287 390.235627 
L 531.394192 390.448144 
L 531.225121 390.557108 
L 531.013658 390.572815 
L 530.825553 390.495583 
L 530.692659 390.636642 
L 530.468088 390.991112 
L 530.252792 391.018824 
L 530.064939 391.185491 
L 529.98025 391.464709 
L 530.454388 392.246239 
L 530.527281 392.460252 
L 530.477917 393.062308 
L 530.385856 393.276107 
L 530.075154 393.632216 
L 530.064578 393.816119 
L 530.409002 394.092564 
L 530.444965 394.289969 
L 530.621433 394.638598 
L 530.587431 394.851562 
L 530.775914 394.920662 
L 530.811125 395.505208 
L 531.037675 395.575043 
L 531.114313 396.060825 
L 531.307955 396.65527 
L 531.228198 396.868281 
L 531.251096 397.072668 
L 531.547446 397.336386 
L 531.701941 397.630064 
L 531.736465 397.920383 
L 531.629365 398.462493 
L 531.606923 399.066844 
L 531.238777 399.647944 
L 531.477583 400.406489 
L 531.439421 400.685271 
L 531.297392 400.917318 
L 531.359149 401.142182 
L 531.786468 401.25826 
L 532.127396 401.493281 
L 532.059539 401.68731 
L 532.082812 401.880856 
L 532.260228 402.027782 
L 532.391454 402.864254 
L 532.49903 403.146752 
L 532.745882 403.506144 
L 533.14866 403.683414 
L 533.530759 403.942779 
L 533.672834 404.120713 
L 533.719249 404.380435 
L 533.912303 404.770854 
L 533.924075 404.995382 
L 533.753511 405.151195 
L 533.294163 405.297635 
L 533.197455 405.479307 
L 533.386348 405.568923 
L 533.425008 405.766323 
L 533.329337 406.203894 
L 533.352868 406.641725 
L 533.291544 406.831489 
L 533.114827 406.98692 
L 533.126578 407.191705 
L 533.365786 407.590592 
L 533.423434 408.293577 
L 533.3506 408.507744 
L 533.362782 408.7555 
L 533.459922 408.98381 
L 533.851811 409.404987 
L 534.006508 409.882165 
L 534.421883 410.330029 
L 535.526275 411.091124 
L 536.083709 410.970899 
L 536.288392 411.079852 
L 536.322309 411.516896 
L 536.215285 411.760522 
L 535.883972 412.262998 
L 535.785118 412.596819 
L 535.870658 413.123624 
L 535.786503 413.539502 
L 535.946571 414.362001 
L 536.50011 415.636254 
L 537.127698 416.030458 
L 537.342905 416.269865 
L 537.316199 416.467334 
L 537.151338 416.563911 
L 537.178077 416.757451 
L 537.486441 417.08967 
L 537.732694 417.593458 
L 538.193965 418.157019 
L 538.421767 418.305433 
L 538.836039 418.428093 
L 539.064715 419.032554 
L 539.111802 419.910533 
L 539.231912 420.395099 
L 539.72805 420.835896 
L 539.693264 421.028729 
L 539.267323 421.142238 
L 539.717789 422.02055 
L 539.883703 422.186839 
L 540.168312 422.236855 
L 540.322331 422.426385 
L 540.26493 422.68583 
L 539.988344 423.301682 
L 540.012089 423.568781 
L 540.256459 423.743887 
L 540.369702 423.919911 
L 540.597616 424.523984 
L 540.758855 424.632593 
L 541.012703 424.682643 
L 541.235563 424.879838 
L 541.413099 425.12354 
L 541.609379 425.276631 
L 542.187423 426.063045 
L 542.650313 427.391191 
L 542.804035 427.657759 
L 543.17343 427.875309 
L 543.31256 428.513544 
L 543.751179 429.089506 
L 543.767415 429.51921 
L 543.921718 429.964246 
L 543.956648 430.258431 
L 544.330969 431.109329 
L 544.511992 431.372769 
L 545.226226 431.849314 
L 546.184355 432.060011 
L 546.446753 432.187086 
L 546.708511 432.43069 
L 546.782168 432.620691 
L 546.636645 433.51746 
L 546.712301 434.125566 
L 546.95727 434.48649 
L 547.349618 435.283937 
L 547.87461 436.05762 
L 548.028597 436.556852 
L 547.989622 436.781434 
L 548.075065 437.194798 
L 548.456439 437.454138 
L 548.79718 437.829275 
L 549.21426 437.689437 
L 549.383253 437.848359 
L 549.571763 437.921315 
L 550.021368 437.983137 
L 550.223003 438.100599 
L 550.521396 438.430875 
L 550.75677 438.458482 
L 550.911103 438.573674 
L 551.352626 438.628147 
L 551.460935 438.852562 
L 551.399891 439.285835 
L 551.469737 439.502551 
L 551.957647 439.428443 
L 552.145883 439.599342 
L 552.173052 439.823075 
L 552.300918 439.997527 
L 552.515882 439.99767 
L 552.692318 439.590205 
L 552.907606 439.536149 
L 553.157619 439.586579 
L 553.23867 439.849738 
L 553.642627 440.351778 
L 553.58171 440.553544 
L 553.393302 440.573115 
L 553.34702 440.794608 
L 553.298775 441.665326 
L 553.383706 442.300128 
L 553.749579 442.787499 
L 554.295898 443.355575 
L 554.531315 443.758311 
L 554.701641 444.753048 
L 554.936595 445.086101 
L 555.14051 445.174908 
L 555.378561 445.185862 
L 555.794023 444.971688 
L 556.07858 444.960522 
L 556.314776 445.030709 
L 557.063269 445.501376 
L 557.302378 445.427546 
L 557.501996 445.457899 
L 557.740587 445.604734 
L 557.893876 445.473708 
L 558.109558 445.427003 
L 558.54859 445.651033 
L 558.690675 445.813077 
L 558.725121 446.006604 
L 558.583639 446.374542 
L 558.567718 446.576256 
L 558.29614 446.842142 
L 558.297175 447.075968 
L 558.437755 447.603854 
L 558.831044 447.841872 
L 558.928036 448.252507 
L 559.151101 448.271218 
L 559.320496 448.437101 
L 559.305357 448.650428 
L 559.067352 449.018479 
L 559.129129 449.235201 
L 559.567728 449.412773 
L 559.794573 449.373797 
L 559.994287 449.485833 
L 560.494706 449.244844 
L 560.602269 449.481256 
L 560.602548 449.724761 
L 560.991041 449.802123 
L 561.110445 449.968837 
L 560.93424 450.571805 
L 560.980664 450.812546 
L 561.41955 451.237879 
L 561.97755 451.574419 
L 562.108848 452.050049 
L 562.250969 452.23919 
L 562.4432 452.196768 
L 562.962522 452.339399 
L 563.22362 452.323222 
L 563.773443 451.904865 
L 564.258325 452.527576 
L 564.64782 453.134912 
L 564.709664 453.40583 
L 564.663808 453.657518 
L 564.471049 453.908992 
L 564.220159 454.106723 
L 563.984183 454.5642 
L 563.99598 454.788721 
L 564.104249 454.967061 
L 564.315432 455.01714 
L 564.780672 454.946909 
L 565.077622 455.005016 
L 565.372936 455.309727 
L 565.44324 455.910082 
L 565.597205 456.02991 
L 565.835612 456.009886 
L 565.751481 456.416858 
L 565.513016 457.047772 
L 565.456905 457.408256 
L 565.657094 457.922901 
L 566.099813 458.324993 
L 566.276808 458.405694 
L 566.488627 458.340018 
L 567.10647 457.549545 
L 567.3674 457.386642 
L 567.663895 457.382419 
L 567.856651 457.458842 
L 568.472111 457.919569 
L 568.769007 458.585464 
L 569.161896 459.123105 
L 569.650426 459.234403 
L 570.027133 459.090717 
L 570.323405 459.223149 
L 570.220063 459.640209 
L 569.920425 459.915814 
L 569.828424 460.167169 
L 569.874927 460.469074 
L 570.159898 460.800889 
L 570.240543 461.029973 
L 570.218095 461.235177 
L 570.02592 461.327543 
L 569.849279 461.549191 
L 569.849808 461.998645 
L 569.98132 462.315546 
L 570.192718 462.543698 
L 570.442692 462.547271 
L 570.753472 461.935625 
L 570.907116 461.780591 
L 571.145063 461.69475 
L 571.795666 461.945604 
L 572.056725 461.891481 
L 572.498964 461.553376 
L 572.807109 461.642045 
L 572.876172 461.832428 
L 572.78448 462.01836 
L 572.44911 462.321108 
L 572.343065 462.726944 
L 573.066341 463.291668 
L 573.33985 463.681949 
L 573.409394 463.953241 
L 573.306089 464.398174 
L 573.422178 465.002339 
L 573.307 465.165071 
L 573.10326 465.234999 
L 573.114712 465.486617 
L 573.280692 465.679981 
L 573.661621 465.84947 
L 573.873334 466.016453 
L 573.900773 466.45155 
L 574.040222 467.292994 
L 574.243372 467.694973 
L 575.333857 468.840707 
L 575.811211 468.921811 
L 576.040143 469.012895 
L 576.130177 469.048789 
L 576.546519 469.562772 
L 576.746662 469.69841 
L 577.269796 469.790683 
L 577.923537 469.758917 
L 578.420144 469.857802 
L 578.623824 470.056148 
L 579.125819 471.11432 
L 579.217771 471.464168 
L 579.037964 472.24638 
L 579.027097 472.482539 
L 579.073213 472.772826 
L 579.265727 472.958797 
L 579.623201 473.124822 
L 579.71611 473.310528 
L 579.701214 473.395714 
L 579.682117 473.504519 
L 579.479526 473.890731 
L 579.656059 474.534302 
L 579.763979 474.730828 
L 581.083532 475.410931 
L 581.688585 476.130235 
L 582.007723 476.393085 
L 583.158489 476.786915 
L 583.755163 477.254208 
L 584.321296 477.904259 
L 584.883413 478.414175 
L 585.106652 478.561004 
L 585.606797 478.712521 
L 585.557461 478.936339 
L 585.985355 480.066202 
L 586.613354 480.979026 
L 586.945225 481.892218 
L 587.138147 482.089408 
L 587.610534 482.181726 
L 587.695748 482.360082 
L 587.492688 482.983989 
L 587.481486 483.254988 
L 587.589563 483.571905 
L 587.732499 483.7769 
L 587.921105 483.904026 
L 588.347114 483.81097 
L 588.513005 483.919155 
L 588.786491 484.263349 
L 589.406683 484.761954 
L 589.560404 484.978548 
L 589.691563 485.299306 
L 589.854371 486.018758 
L 590.224408 486.684912 
L 590.390005 487.172475 
L 591.02936 487.918808 
L 591.137307 488.128103 
L 591.184413 488.584071 
L 591.708389 489.633663 
L 592.859662 491.004926 
L 593.060835 491.946144 
L 593.312103 492.65851 
L 593.844016 493.58653 
L 594.355721 494.955502 
L 594.962633 496.183052 
L 595.032218 496.465559 
L 594.998242 496.968857 
L 595.23353 497.506649 
L 596.362599 498.925921 
L 596.920547 499.444326 
L 597.229063 500.098157 
L 597.525325 500.492247 
L 597.690854 500.608556 
L 598.039792 500.689399 
L 598.759433 500.726018 
L 599.164823 501.040218 
L 599.295057 501.225865 
L 599.307726 501.508444 
L 599.223731 501.690498 
L 598.796817 501.989132 
L 598.654835 502.240555 
L 598.593956 502.453936 
L 598.708286 502.834324 
L 598.936522 503.262953 
L 599.141395 503.467472 
L 599.402732 503.614624 
L 599.756336 504.032251 
L 599.842327 504.205954 
L 599.807875 504.632214 
L 599.88902 504.92593 
L 600.139478 505.286009 
L 600.494359 506.09462 
L 601.445869 507.277566 
L 601.503531 507.55273 
L 601.743034 508.063409 
L 602.382248 508.650988 
L 603.272119 509.745356 
L 603.915125 510.286859 
L 604.18477 510.607422 
L 604.366457 511.017912 
L 604.470431 511.707226 
L 604.567255 511.92698 
L 605.301305 512.085114 
L 606.192954 512.466017 
L 606.429772 512.680164 
L 607.000105 513.52293 
L 607.20421 513.720474 
L 607.5933 513.905772 
L 608.662956 514.228363 
L 608.866226 514.375582 
L 609.044174 514.569289 
L 609.43235 515.228025 
L 609.874661 515.812362 
L 610.054138 516.581315 
L 610.016243 517.010287 
L 609.482682 517.813099 
L 608.790815 518.444631 
L 608.614607 518.696877 
L 608.614607 518.987986 
L 609.21708 519.9809 
L 609.163134 520.488478 
L 609.305847 521.084053 
L 609.303554 521.676727 
L 609.696785 522.658305 
L 609.838462 523.341369 
L 609.58698 523.968055 
L 609.57578 524.514287 
L 609.861425 525.284257 
L 609.908551 525.725502 
L 609.863073 525.946218 
L 609.613202 526.337925 
L 609.551969 526.569501 
L 609.73356 526.894819 
L 610.145278 527.308475 
L 610.869333 528.313991 
L 611.073465 528.522756 
L 611.478035 528.766089 
L 611.751404 529.265094 
L 611.939777 529.481622 
L 611.986664 529.740924 
L 612.095345 529.901815 
L 612.402562 530.112375 
L 612.452842 530.320572 
L 612.046691 530.909533 
L 612.014926 531.028807 
L 611.962495 531.22553 
L 612.292852 531.769362 
L 612.323989 531.856389 
L 612.389758 532.040208 
L 612.343715 532.411898 
L 612.225212 532.671811 
L 611.844873 533.005631 
L 611.796405 533.864311 
L 611.597277 534.808747 
L 611.678995 535.226717 
L 611.952439 535.776044 
L 612.129927 535.903937 
L 612.367689 535.946196 
L 613.199203 535.894739 
L 613.472367 535.948175 
L 613.671789 536.083005 
L 614.111897 537.000632 
L 614.327576 537.209764 
L 614.550758 537.278752 
L 614.835737 537.251264 
L 615.040195 537.410861 
L 615.320493 537.904043 
L 615.763885 538.117121 
L 615.929094 538.263996 
L 616.153795 539.169526 
L 616.049868 539.39845 
L 616.035319 539.731385 
L 616.165989 539.936374 
L 616.319992 540.044554 
L 616.796275 540.117063 
L 617.043377 540.237114 
L 617.283585 541.509987 
L 617.639141 542.748635 
L 617.624949 543.62391 
L 617.306928 544.246821 
L 617.245728 544.498527 
L 617.399523 544.734839 
L 618.138514 545.081829 
L 618.281033 545.228733 
L 618.584712 546.213893 
L 618.234589 546.706781 
L 618.187159 546.901563 
L 618.19778 548.759673 
L 618.399407 549.654003 
L 619.762703 551.406097 
L 619.990685 551.880762 
L 620.26447 552.934864 
L 620.288403 553.275485 
L 620.218207 553.975089 
L 620.229668 555.311758 
L 620.453761 556.030692 
L 621.259087 557.040304 
L 621.532623 557.628324 
L 622.102994 558.129989 
L 622.080265 558.382415 
L 622.161522 559.004383 
L 622.636364 559.959483 
L 622.353703 561.111527 
L 622.324034 561.904752 
L 622.448493 563.163063 
L 622.350575 564.665178 
L 622.151133 565.083536 
L 621.77044 565.447568 
L 620.809348 565.855775 
L 620.130094 567.00683 
L 620.061231 567.277903 
L 619.773693 567.692127 
L 618.944364 568.529836 
L 618.602294 569.010333 
L 618.422172 569.494085 
L 618.327017 570.221984 
L 618.185624 570.617422 
L 617.42518 572.035311 
L 616.771828 573.01252 
L 615.10972 574.717751 
L 614.871354 575.089711 
L 614.537923 575.980533 
L 614.25431 576.457463 
L 613.425892 577.413627 
L 613.171148 577.627669 
L 612.617682 577.964844 
L 612.306524 578.274968 
L 611.818992 579.003419 
L 611.535537 579.87559 
L 610.497549 580.897468 
L 609.324528 581.63578 
L 608.888202 581.841946 
L 607.772337 581.627105 
L 607.248632 581.232592 
L 605.942072 581.935081 
L 604.280415 582.331852 
L 604.163051 580.896209 
L 604.983816 578.823629 
L 604.947283 577.421941 
L 603.999062 576.293264 
L 602.679302 576.051198 
L 601.171583 576.199983 
L 599.853242 577.006988 
L 599.23641 578.285313 
L 598.949284 579.877525 
L 597.03909 583.956469 
L 597.750851 588.294291 
L 598.216585 589.62262 
L 598.345677 591.484469 
L 597.227596 592.771232 
L 596.868683 593.038984 
L 596.82855 593.068923 
L 596.078152 593.628726 
L 594.128017 593.240798 
L 593.989491 593.213116 
L 592.907101 592.165893 
L 591.884213 591.640731 
L 591.709892 591.551232 
L 590.390575 591.673419 
L 589.121938 592.2984 
L 588.396387 593.42977 
L 588.563622 594.788719 
L 588.369301 596.186482 
L 587.68252 597.546201 
L 588.038622 599.17549 
L 587.505774 600.577972 
L 586.580014 601.593481 
L 585.345262 601.401594 
L 584.384436 602.378436 
L 583.455019 603.544924 
L 583.243029 605.837352 
L 583.859391 607.039689 
L 583.634619 608.39956 
L 582.567117 609.879807 
L 581.688479 611.631169 
L 581.924737 613.105393 
L 580.760465 613.575386 
L 579.524706 613.232903 
L 578.367402 613.158974 
L 577.793368 613.122582 
L 576.285469 613.245001 
L 574.737767 612.941245 
L 571.926197 613.145909 
L 570.692386 613.696877 
L 569.35082 614.516263 
L 568.117022 615.377313 
L 567.199995 617.24447 
L 566.444057 619.03399 
L 566.062007 620.783917 
L 565.325124 622.144477 
L 563.795217 623.122053 
L 563.639299 624.519012 
L 564.187524 625.994016 
L 564.231615 627.352385 
L 563.852918 629.022563 
L 562.784473 630.153998 
L 562.012692 631.319882 
L 560.470302 631.601032 
L 559.556749 632.921952 
L 558.473565 633.976751 
L 557.084749 634.021154 
L 555.660207 633.212755 
L 552.335208 632.17647 
L 550.484335 631.915613 
L 549.20311 632.153801 
L 547.706328 632.003968 
L 546.543866 631.541286 
L 544.847027 631.083151 
L 543.990902 630.078083 
L 542.718189 630.353789 
L 541.638083 631.133297 
L 540.489017 632.148654 
L 538.255211 633.325651 
L 537.175041 634.066051 
L 535.833305 634.850136 
L 534.409517 634.61925 
L 533.175259 635.209238 
L 531.629314 635.757026 
L 530.306039 635.921655 
L 526.036527 636.751533 
L 524.578398 636.757195 
L 523.2614 635.752245 
L 522.025393 634.905531 
L 520.863243 634.364949 
L 519.319867 634.177508 
L 518.011329 633.795047 
L 516.695562 633.801278 
L 513.866254 632.491486 
L 512.561804 632.303343 
L 511.172988 632.347194 
L 509.595679 632.083097 
L 508.3491 631.700911 
L 507.039585 631.122125 
L 505.808428 630.430583 
L 504.526297 630.237737 
L 502.757044 630.325361 
L 501.364313 630.641343 
L 498.433448 630.961809 
L 496.582704 630.777722 
L 495.03952 630.396216 
L 493.615163 629.623548 
L 492.448403 628.69572 
L 491.405022 628.000037 
L 490.170976 628.82219 
L 490.026169 630.065103 
L 488.603427 630.732607 
L 487.283908 630.815395 
L 486.015002 631.439745 
L 484.707967 632.378114 
L 483.900898 633.506013 
L 483.556356 634.710825 
L 482.248879 635.610475 
L 480.802608 635.550142 
L 478.571567 635.916151 
L 478.261409 634.092619 
L 475.114418 630.267521 
L 473.904433 624.875404 
L 470.759084 626.439427 
L 470.281044 628.043925 
L 469.382845 631.059668 
L 466.567865 631.848232 
L 467.231003 633.899832 
L 466.160546 636.309089 
L 466.708597 637.938812 
L 466.518375 639.956096 
L 466.614844 643.834902 
L 458.800564 646.925811 
L 451.429103 643.382931 
L 446.252773 641.812537 
L 441.074818 638.569136 
L 436.612266 638.937939 
L 430.853014 634.804471 
L 425.462547 638.817663 
L 421.545592 642.089128 
L 419.585802 645.005602 
L 416.556191 646.879287 
L 414.065907 650.339061 
L 414.27745 646.149313 
L 409.838743 642.867187 
L 408.210879 642.407193 
L 404.115389 640.327988 
L 400.836822 640.067696 
L 399.450304 637.552333 
L 396.931444 634.921822 
L 394.734016 634.657015 
L 393.371393 629.460807 
L 388.774954 625.717753 
L 387.18323 622.849777 
L 384.867003 622.58771 
L 385.246563 621.035587 
L 384.784537 619.240949 
L 384.466668 618.006257 
L 384.377443 617.659685 
L 384.254988 617.184037 
L 383.918809 615.878766 
L 383.561635 612.003439 
L 384.44086 609.904202 
L 381.116082 608.327711 
L 378.028189 605.193762 
L 377.980412 603.218424 
L 378.551995 601.235992 
L 378.350339 599.25807 
L 376.686764 597.171778 
L 376.104758 595.30993 
L 377.103221 593.640377 
L 376.674328 591.778403 
L 374.549983 590.699519 
L 373.528397 587.01828 
L 373.646213 585.697907 
L 371.940572 583.805587 
L 371.854105 581.478711 
L 371.083834 580.317789 
L 368.579173 579.297623 
L 368.150832 578.058212 
L 366.688875 578.307544 
L 365.442984 578.40183 
L 365.563369 579.873021 
L 364.078999 581.000875 
L 361.916264 579.391496 
L 361.219086 578.192547 
L 360.350902 579.24209 
L 359.484879 578.07308 
L 358.084272 577.555328 
L 357.157589 578.578581 
L 356.870054 579.872375 
L 355.140047 581.263672 
L 353.833243 580.676529 
L 353.512699 580.532352 
L 352.469257 579.747542 
L 351.326051 578.776569 
L 350.721901 578.492439 
L 350.117752 578.20831 
L 349.411284 578.485823 
L 348.844841 578.708333 
L 347.957088 579.870927 
L 347.812622 582.217367 
L 344.726083 580.795186 
L 344.227422 582.231618 
L 342.231467 582.972593 
L 339.954113 582.904159 
L 339.347421 584.457208 
L 336.748511 581.168377 
L 336.723735 584.230647 
L 333.480749 584.051354 
L 333.136929 581.956918 
L 332.589561 580.331893 
L 330.787027 582.663242 
L 331.595629 583.785518 
L 330.488246 585.068654 
L 327.66412 583.679836 
L 324.707064 585.939556 
L 324.244631 584.15842 
L 322.475646 584.97775 
L 321.463476 585.446545 
L 318.617526 585.340042 
L 316.765201 582.862488 
L 315.411742 583.216111 
L 312.062318 584.391489 
L 310.139756 585.716925 
L 309.464369 588.315021 
L 308.345639 590.027124 
L 306.731027 591.11694 
L 301.93713 592.487152 
L 300.381665 594.087228 
L 299.193212 594.478646 
L 297.804336 594.247192 
L 296.962261 595.532803 
L 295.643013 595.301687 
L 295.62084 597.435131 
L 294.917893 598.52396 
L 291.536432 598.533762 
L 291.797646 597.255481 
L 289.634874 596.563319 
L 285.861268 596.960886 
L 284.3645 596.423566 
L 282.78292 596.234763 
L 280.384838 593.68415 
L 278.615615 594.30932 
L 278.389933 595.910113 
L 278.391295 597.646682 
L 276.312684 596.761185 
L 274.876987 596.025936 
L 273.761682 595.178989 
L 273.022139 593.475352 
L 270.791998 594.719485 
L 270.51758 593.05508 
L 269.102044 591.136522 
L 268.572468 588.525557 
L 267.836644 586.509048 
L 269.605726 585.651997 
L 270.447239 583.904896 
L 271.257313 581.650971 
L 271.387458 579.742022 
L 271.921529 578.576269 
L 272.786522 577.603932 
L 274.14045 576.665785 
L 275.220528 575.805613 
L 276.112065 574.86036 
L 276.600325 573.663653 
L 276.718039 570.872293 
L 276.965614 567.797047 
L 276.96568 566.515429 
L 277.072662 565.195033 
L 276.764116 563.7045 
L 275.528939 562.942406 
L 274.293882 562.39675 
L 272.916657 562.850135 
L 272.919036 560.83284 
L 273.369155 559.528131 
L 272.587634 558.281782 
L 271.290888 557.427165 
L 270.578701 556.343009 
L 269.5934 555.231893 
L 268.262 555.015771 
L 267.065922 554.648565 
L 265.795885 553.328889 
L 266.706631 552.375518 
L 267.680614 553.203608 
L 268.526708 552.201094 
L 269.738071 551.654116 
L 270.698797 550.677092 
L 270.636487 549.222427 
L 270.793513 547.93259 
L 271.301016 546.766856 
L 272.215942 545.762752 
L 272.407207 544.493031 
L 271.767994 543.15677 
L 270.233507 543.607509 
L 269.49854 542.2953 
L 270.197226 541.163153 
L 271.232158 540.172153 
L 272.027433 539.137527 
L 273.047554 539.977973 
L 274.32006 539.477418 
L 273.630776 538.006054 
L 272.787767 536.767863 
L 271.6489 536.11372 
L 270.198801 536.072283 
L 269.129929 536.874731 
L 267.814706 536.58115 
L 266.659163 534.892408 
L 266.923578 532.972157 
L 267.442008 531.365017 
L 267.64558 530.063539 
L 266.59089 528.488578 
L 267.0749 527.268654 
L 268.370272 525.664597 
L 268.808019 524.247613 
L 268.6307 522.733762 
L 268.821962 521.436163 
L 267.541162 521.421338 
L 267.25529 518.958132 
L 266.623594 517.142497 
L 266.696026 515.865093 
L 267.633748 514.396744 
L 266.921395 512.786365 
L 267.551311 511.101731 
L 266.507723 508.542883 
L 266.456993 507.086656 
L 265.806309 505.696944 
L 265.543715 504.342269 
L 266.532137 503.539106 
L 266.662186 502.107181 
L 266.077345 500.849082 
L 265.15322 499.455246 
L 265.141375 498.061336 
L 265.602222 496.702037 
L 266.150775 495.381027 
L 267.265316 493.789079 
L 267.588083 492.429074 
L 266.979468 491.284048 
L 267.682593 489.142486 
L 268.501212 488.011839 
L 267.396738 487.388621 
L 266.992685 486.145529 
L 266.115023 484.53135 
L 264.761155 484.29622 
L 263.480721 484.80331 
L 262.622896 483.615418 
L 262.410651 482.124417 
L 261.910045 480.788824 
L 261.970942 479.468445 
L 261.328129 478.306772 
L 260.581475 477.130434 
L 259.415838 474.765593 
L 259.264937 474.45939 
L 258.287553 473.28974 
L 257.244233 470.916312 
L 256.770897 469.434333 
L 256.689084 468.001343 
L 257.050751 466.707536 
L 256.369136 463.894459 
L 255.09467 463.061413 
L 254.017451 462.136891 
L 252.390818 462.346344 
L 250.740997 462.30412 
L 249.848241 461.065095 
L 249.635635 459.47844 
L 249.289227 457.944891 
L 248.94643 456.744721 
L 247.546602 456.714373 
L 247.297198 457.99225 
L 245.81318 458.039375 
L 244.624288 457.578742 
L 243.93579 456.398466 
L 242.642961 455.678447 
L 242.74614 454.157084 
L 243.652898 453.17242 
L 244.233378 451.801471 
L 244.351638 450.485318 
L 244.044113 448.983108 
L 242.654459 446.60203 
L 241.419718 445.852163 
L 240.089047 445.589047 
L 238.819945 445.419217 
L 237.393363 444.76893 
L 235.019918 442.939222 
L 233.653719 442.276506 
L 232.608224 441.57261 
L 231.646091 440.647971 
L 230.400426 440.380916 
L 229.488269 439.397784 
L 229.130828 437.926163 
L 228.606143 436.532437 
L 227.302606 435.743056 
L 226.483112 434.682438 
L 225.605441 432.320444 
L 224.429055 433.150294 
L 223.002553 432.546416 
L 222.38718 431.249515 
L 220.606115 431.614164 
L 218.905736 429.71285 
L 216.433312 429.134894 
L 215.03721 428.522071 
L 214.217724 427.360751 
L 214.421037 425.981836 
L 215.774482 425.625501 
L 216.104288 424.20782 
L 215.820019 422.872063 
L 216.745943 421.706235 
L 217.210386 420.439901 
L 215.995783 419.749183 
L 214.771266 419.286528 
L 214.645518 419.271085 
L 213.411379 418.772421 
L 211.949416 417.750329 
L 210.157452 417.603823 
L 209.042082 416.930473 
L 208.245616 415.498083 
L 207.284319 414.437468 
L 207.248904 413.186414 
L 208.374848 412.202521 
L 209.099419 409.187865 
L 209.504233 407.80346 
L 208.127618 407.730365 
L 206.870135 407.448134 
L 206.000266 406.055258 
L 205.48111 404.738154 
L 206.857532 404.264908 
L 208.280735 404.550956 
L 209.076228 403.188101 
L 208.506376 402.065009 
L 207.521687 401.1012 
L 206.22572 400.664095 
L 205.031182 399.966748 
L 206.046494 397.062739 
L 205.3359 395.858762 
L 204.812966 394.696927 
L 204.539179 393.477314 
L 204.861678 391.982973 
L 204.457545 390.763015 
L 203.757346 389.547414 
L 202.215522 389.703189 
L 201.073839 390.65222 
L 200.351309 391.740507 
L 199.282682 392.716615 
L 198.105001 391.717993 
L 197.689984 390.064358 
L 196.908601 387.373119 
L 197.108449 385.824997 
L 197.82286 384.596934 
L 196.857426 383.520797 
L 195.56548 383.458859 
L 194.296277 383.587029 
L 192.773969 383.375304 
L 191.590218 383.812433 
L 191.124994 385.191812 
L 189.840495 385.625483 
L 187.817083 383.766315 
L 188.371185 382.559221 
L 188.774138 381.218971 
L 188.608788 379.844039 
L 188.500451 377.501841 
L 186.04374 378.296335 
L 184.821174 378.784182 
L 183.440786 378.641693 
L 182.256735 377.983769 
L 181.222269 378.778225 
L 178.600037 378.948931 
L 177.16192 378.59657 
L 176.615572 377.22638 
L 177.149719 376.080094 
L 178.052993 374.983659 
L 178.433706 373.778944 
L 176.664397 372.819525 
L 175.406595 372.339717 
L 174.134333 372.436854 
L 173.219546 373.637832 
L 173.231478 375.190543 
L 172.174353 376.127479 
L 171.059468 376.73917 
L 169.848758 377.015172 
L 168.52962 375.740804 
L 168.243997 372.836792 
L 166.987163 373.143774 
L 164.280587 372.609304 
L 163.103769 373.105215 
L 161.726901 373.117931 
L 160.396526 372.99743 
L 159.031992 373.145271 
L 157.608864 372.618986 
L 156.278474 372.417933 
L 154.995227 373.300673 
L 153.522665 373.525577 
L 152.395566 372.829612 
L 150.900361 373.25896 
L 149.735498 374.002652 
L 148.335584 374.150469 
L 146.862936 373.976137 
L 145.640187 373.685973 
L 144.536462 372.513324 
L 143.513522 371.533876 
L 142.387094 372.238434 
L 142.621917 373.725673 
L 141.410882 374.37255 
L 139.965125 374.063053 
L 139.157492 372.994883 
L 137.98083 372.370525 
L 135.535139 370.563453 
L 134.584871 369.463548 
L 133.054624 367.341884 
L 132.723709 365.824838 
L 131.273879 363.935094 
L 130.59699 362.746074 
L 129.858473 360.85272 
L 129.704856 359.555192 
L 130.357774 357.599656 
L 129.112349 357.022524 
L 127.574122 355.063467 
L 124.505697 353.158849 
L 124.197544 351.900837 
L 126.512102 351.969795 
L 126.71171 349.890424 
L 126.415072 348.527477 
L 125.680775 346.293365 
L 125.776306 344.94933 
L 125.480453 343.65182 
L 124.661359 342.47946 
L 123.826752 340.361135 
L 123.557428 339.005538 
L 123.150105 337.801361 
L 122.192098 335.66369 
L 122.083727 333.286596 
L 122.845184 332.167049 
L 125.21768 332.100872 
L 125.893631 329.994324 
L 124.540056 328.073943 
L 123.271329 327.950221 
L 122.463833 326.986174 
L 122.440497 325.091923 
L 121.690572 323.388673 
L 120.17178 321.921342 
L 117.688505 321.182487 
L 115.742653 320.074533 
L 115.363636 317.438422 
L 115.469743 317.428728 
L 220.950412 307.883025 
L 221.018322 304.076366 
L 220.983301 302.82957 
L 221.590308 301.637151 
L 222.801496 301.133364 
L 223.622595 298.723875 
L 224.818376 298.158137 
L 225.367688 296.918495 
L 226.435675 294.796226 
L 227.076836 292.379829 
L 227.75304 291.256304 
L 227.706071 289.95182 
L 226.460147 287.741306 
L 226.970694 285.599873 
L 227.846865 284.685369 
L 228.882987 283.873032 
L 230.590693 281.966207 
L 233.050929 281.794953 
L 233.892483 280.876583 
L 234.603231 279.676373 
L 236.57489 278.53262 
L 238.319683 277.250712 
L 239.541846 276.472361 
L 240.933464 276.548508 
L 242.071554 277.125402 
L 243.340141 277.148154 
L 244.50857 276.613365 
L 245.857892 276.659312 
L 247.972005 276.182231 
L 249.101955 275.570007 
L 250.147246 274.740979 
L 250.403886 273.36243 
L 252.506819 272.85049 
L 254.335623 271.26958 
L 255.585269 271.06386 
L 257.199127 269.371128 
L 258.455909 269.716002 
L 259.51371 270.415633 
L 260.724738 270.732641 
L 261.877797 271.232042 
L 263.789401 272.888472 
L 266.091946 272.654792 
L 266.591065 270.257797 
L 266.543916 267.818443 
L 267.976909 266.687203 
L 270.993988 265.422857 
L 272.765528 264.953576 
L 274.249219 265.553477 
L 276.383838 268.185892 
L 281.170437 268.853604 
L 284.718962 269.750287 
L 286.775645 269.919704 
L 289.919727 269.035033 
L 290.573001 267.722508 
L 292.235768 266.484622 
L 298.209029 263.904954 
L 301.569031 264.479463 
L 302.67234 265.385735 
L 304.701774 264.102719 
L 305.876769 261.47694 
L 306.37504 258.51851 
L 314.03367 253.499679 
L 315.722505 255.337989 
L 315.864812 255.49318 
L 317.501288 254.895666 
L 318.892061 254.166629 
L 320.872391 254.712311 
L 322.582532 253.863454 
L 324.008839 254.210785 
L 325.185801 254.802951 
L 326.500082 254.829738 
L 327.959532 253.155505 
L 330.893156 253.657653 
L 333.080383 253.640581 
L 334.383548 253.728918 
L 335.713278 253.190374 
L 337.269696 253.158533 
L 338.431608 254.319071 
L 340.035663 255.615646 
L 343.360035 255.051948 
L 346.952603 256.321417 
L 348.595581 255.726517 
L 349.949896 256.512109 
L 352.31409 257.381897 
L 352.906814 258.659269 
L 354.213877 258.81337 
L 355.589983 258.711496 
L 356.302146 260.43483 
L 357.388234 260.67772 
L 359.412014 261.130284 
L 360.208731 262.155071 
L 359.864127 263.789209 
L 362.286151 264.848623 
L 363.190557 266.575305 
L 364.90989 267.620421 
L 366.846576 267.661421 
L 367.86827 266.924358 
L 370.052092 266.904792 
L 371.40594 268.068976 
L 371.687391 269.400712 
L 372.874964 268.985284 
L 374.219705 267.87321 
L 375.418527 267.017544 
L 375.905644 264.689485 
L 377.50644 262.446668 
L 379.121715 263.048861 
L 379.955127 261.86819 
L 381.365129 260.063008 
L 380.286952 257.766937 
L 383.702541 255.627868 
L 383.859684 254.307476 
L 388.040056 251.361394 
L 390.318624 249.955203 
L 390.902134 248.765786 
L 391.851455 247.963696 
L 392.134251 246.01212 
L 393.474858 244.589507 
L 394.377107 243.532295 
L 395.992212 243.945889 
L 397.467476 242.144133 
L 397.619509 240.695594 
L 399.55704 240.420172 
L 401.27825 239.129321 
L 404.175442 237.481079 
L 405.942799 236.822061 
L 408.282941 235.101393 
L 408.889341 233.15735 
L 408.068416 230.485617 
L 409.3864 229.819159 
L 410.315338 227.375439 
L 411.264216 226.57372 
L 413.791884 224.856403 
L 416.189838 224.021541 
L 418.409592 222.300939 
L 419.575264 223.2065 
L 421.639194 223.503174 
L 423.453811 222.905645 
L 424.92672 224.514853 
L 426.745022 224.239051 
L 427.790653 224.954571 
L 428.894507 225.922096 
L 429.856777 227.775955 
L 432.644646 228.780576 
L 433.537679 231.071589 
L 435.294381 231.167093 
L 436.315941 229.927783 
L 438.391038 229.147651 
L 440.233231 230.512992 
L 442.239741 230.554082 
L 444.694851 229.592448 
L 446.360107 230.25712 
L 447.214637 231.348286 
L 448.448714 232.133297 
L 450.205139 231.852809 
L 451.404101 231.434138 
L 452.617623 229.942617 
L 453.696892 228.826749 
L 454.957156 228.662781 
L 456.807073 229.520856 
L 459.096959 227.676946 
L 459.693008 229.011811 
L 460.927866 229.797174 
L 462.872432 229.26833 
L 466.091889 227.628474 
L 468.68059 229.449561 
L 470.020871 228.399668 
L 473.073112 228.715074 
L 474.547702 226.9132 
L 476.466016 227.71268 
L 477.111046 227.280472 
L 478.298527 226.48428 
L 480.334942 225.016833 
L 480.411486 225.081038 
L 479.970706 225.685754 
L 480.254965 225.936787 
L 481.148311 227.895078 
L 481.206565 228.157523 
L 481.183334 228.425068 
L 481.026428 229.277333 
L 481.08854 229.555649 
L 481.288355 229.950774 
L 481.634661 230.396108 
L 482.357851 231.071876 
L 482.750034 231.207831 
L 483.403571 231.31221 
L 483.757705 231.454778 
L 484.34197 231.926625 
L 484.411311 232.112016 
L 484.446372 232.681109 
L 484.781101 233.064503 
L 484.876972 233.258389 
L 484.885213 233.463189 
L 484.743581 233.714959 
L 484.650459 234.059994 
L 484.74408 234.323183 
L 484.909132 234.505396 
L 485.289768 234.620452 
L 485.977749 234.534703 
L 486.242636 234.58907 
L 486.478841 234.821941 
L 487.273664 235.180169 
L 487.592743 235.226361 
L 488.507509 235.136933 
L 488.757553 235.369017 
L 488.888943 235.748319 
L 488.94677 236.413792 
L 489.100879 236.839921 
L 489.316455 237.223411 
L 489.493708 237.745147 
L 490.051265 238.438459 
L 490.171091 238.774796 
L 490.194727 239.460429 
L 489.945014 240.08822 
L 489.849672 240.533143 
L 489.907774 241.063498 
L 490.061789 241.372704 
L 490.703432 241.943988 
L 491.27383 242.812667 
L 491.53466 243.522488 
L 491.621136 244.422163 
L 491.783325 244.848282 
L 492.044628 245.204242 
L 493.35484 246.345613 
L 494.873005 248.829838 
L 495.08499 249.495174 
L 495.25148 250.4513 
L 495.358932 250.69163 
L 496.274587 251.612263 
L 496.901632 252.614446 
L 497.642678 253.41908 
L 498.215269 254.566489 
L 498.338405 255.160662 
L 497.970412 256.802901 
L 497.971083 257.135078 
L 498.171483 258.616151 
L 498.267794 258.858811 
L 498.687241 259.374131 
L 498.880705 259.499399 
L 499.264941 259.748 
L 499.549056 259.793821 
L 500.252372 259.627113 
L 500.537252 259.669061 
L 500.856205 259.992439 
L 500.86754 260.207685 
L 500.441849 260.912679 
L 500.346 261.203128 
L 500.380446 261.47062 
L 500.499874 261.771719 
L 501.142933 262.591913 
L 501.531823 263.323286 
L 501.42446 263.632716 
L 501.28245 263.885266 
L 500.998174 264.098451 
L 500.725323 264.187738 
L 500.617854 264.377151 
L 500.571986 264.675686 
L 500.687604 265.45376 
L 500.511961 265.929727 
L 500.119778 266.271155 
L 500.085391 266.511221 
L 500.347857 266.852456 
L 501.247081 267.392509 
L 502.045027 267.727846 
L 502.527682 267.975967 
L 502.827761 268.24748 
L 502.839549 268.537446 
L 502.755217 268.808528 
L 502.555419 268.917495 
L 502.221012 268.952638 
L 501.509282 268.743824 
L 501.305177 268.763363 
L 501.164275 268.965195 
L 501.214041 269.16647 
L 501.625975 269.863751 
L 501.898598 269.948293 
L 502.268018 269.947576 
L 502.840672 269.811561 
L 503.682627 269.915338 
L 504.071134 270.197997 
L 504.178573 270.410447 
L 504.844554 271.044389 
L 505.105616 271.095258 
L 506.209024 270.822871 
L 507.052611 271.030009 
L 507.539847 271.236306 
L 507.851186 271.196535 
L 508.242748 271.02235 
L 508.504117 270.987269 
L 508.834806 271.0915 
L 508.977271 271.350761 
L 508.989063 271.640726 
L 508.836393 272.434909 
L 508.854311 272.696606 
L 508.928657 272.868433 
L 509.132891 272.991748 
L 509.762441 272.856446 
L 510.285622 272.847452 
L 510.485605 272.944445 
L 510.911532 273.366823 
L 511.197664 273.934509 
L 511.55132 274.352694 
L 512.182608 274.863539 
L 512.932576 275.257355 
L 513.240715 275.501363 
L 513.475253 275.973468 
L 513.476287 277.112071 
L 513.738479 277.978267 
L 514.046303 278.296219 
L 514.358225 278.469373 
L 514.620003 278.457129 
L 515.164664 277.969593 
L 515.552172 277.98472 
L 516.149081 278.723619 
L 516.517988 278.575773 
L 516.575296 278.188572 
L 516.717336 277.975509 
L 516.967165 277.92882 
L 517.49006 278.021636 
L 517.689445 277.882077 
L 517.928268 277.57175 
L 518.131537 277.475161 
L 518.808233 277.605774 
L 519.400444 277.83054 
L 519.615706 277.817563 
L 519.984865 277.527633 
L 520.315019 277.461122 
L 520.542627 277.496526 
L 520.837604 277.634849 
L 521.338026 277.952614 
L 521.537966 277.998884 
L 522.287503 277.91262 
L 522.52554 278.001053 
L 522.929876 278.337489 
L 523.556934 278.41394 
L 523.771523 278.503556 
L 524.067875 278.878807 
L 524.472751 279.792087 
L 524.792115 280.109244 
L 524.991905 279.992911 
L 525.006674 279.34172 
L 525.109443 279.067524 
L 525.290802 278.974437 
L 525.502355 279.105866 
L 525.564079 279.337708 
L 525.798588 279.763344 
L 526.833523 280.254422 
L 527.10649 280.285134 
L 527.344747 280.195864 
L 527.725049 279.904757 
L 529.184471 278.444607 
L 529.446161 278.339442 
L 529.638034 278.389587 
L 529.742466 278.660488 
L 529.74241 279.008917 
L 529.658467 279.268771 
L 529.400901 279.671259 
L 529.362742 279.971332 
L 529.436974 280.828784 
L 529.352016 281.235366 
L 529.375795 281.58416 
L 529.552781 282.153091 
L 529.730219 282.385208 
L 530.658514 282.702936 
L 532.080436 283.857576 
L 532.784121 284.058212 
L 533.176218 284.043121 
L 533.437534 283.946083 
L 533.852222 283.434267 
L 534.158921 282.55477 
L 534.363478 282.198402 
L 534.873421 282.004337 
L 535.073878 282.186487 
L 535.181775 282.456994 
L 535.205263 282.898701 
L 535.013282 283.944169 
L 535.002752 284.590707 
L 535.191943 285.449978 
L 535.534886 286.289742 
L 535.811943 286.572472 
L 536.604051 286.772239 
L 536.784888 286.935049 
L 536.938964 287.252355 
L 536.889474 287.756461 
L 536.320612 288.248299 
L 535.809907 288.453982 
L 535.475833 288.846095 
L 535.380954 290.122981 
L 535.016452 290.854647 
L 534.847993 291.571798 
L 534.992519 293.94561 
L 534.897125 295.481882 
L 534.242626 297.271117 
L 534.112073 297.828729 
L 534.052272 299.199271 
L 533.826675 300.4608 
L 533.531006 301.217178 
L 532.863434 302.213176 
L 532.556498 302.848003 
L 532.200323 304.644693 
L 531.774506 305.585867 
L 531.640408 306.057925 
L 531.632654 306.387391 
L 531.725675 306.770958 
L 532.045585 307.621582 
L 532.080669 308.120962 
L 531.98923 308.973539 
L 531.986698 310.325055 
L 531.783995 311.01282 
L 531.665623 311.841809 
L 531.216279 312.706354 
L 531.154601 312.931344 
L 530.953172 314.928812 
L 531.148873 315.736198 
L 531.320305 316.887778 
L 531.55968 317.928953 
L 531.667739 318.74533 
L 531.641831 318.985383 
L 531.107928 319.872856 
L 530.870408 320.732548 
L 530.26767 321.604216 
L 530.014696 322.386495 
L 530.037997 322.626501 
L 530.191724 322.963549 
L 530.83507 323.907152 
L 530.942983 324.178431 
L 530.989139 324.592628 
L 530.95267 326.215178 
L 531.037828 326.802776 
L 531.619592 328.447937 
L 531.643143 328.939584 
L 531.452638 329.908017 
L 530.834961 330.840099 
L 530.741043 331.508401 
L 530.725886 334.071298 
L 530.526368 334.868237 
L 530.004759 335.755703 
L 530.036701 336.176108 
L 530.194852 336.703625 
L 530.442499 337.144719 
L 530.645302 338.113146 
L 530.395945 338.663526 
L 529.896625 339.154924 
L 529.800727 339.375691 
L 530.052126 341.272437 
L 529.934039 341.992254 
L 529.765688 342.42641 
L 529.531096 342.747587 
L 529.196589 343.115709 
L 528.544283 343.64404 
L 528.402001 344.003839 
L 528.341308 344.44563 
L 528.402137 344.917109 
L 528.384007 345.244263 
" clip-path="url(#p781045194e)" style="fill: #b3e2cd; fill-opacity: 0.65"/>
   </g>
   <g id="PatchCollection_2">
    <path d="M 405.765947 478.323415 
L 406.852441 482.035896 
L 416.320986 480.375901 
L 416.765744 482.258785 
L 435.366355 487.14648 
L 443.268385 517.076838 
L 452.673056 515.075732 
L 454.677442 507.610091 
L 455.123273 507.465348 
L 463.825538 504.638107 
L 464.327998 502.770805 
L 482.595692 496.806499 
L 491.460737 526.135516 
L 490.456522 526.49506 
L 487.835335 527.420625 
L 487.451011 525.942009 
L 486.976924 524.372876 
L 486.606726 522.923401 
L 484.053333 524.573166 
L 480.812618 526.584026 
L 478.077923 528.280415 
L 477.997187 528.327753 
L 477.69324 528.521741 
L 477.596715 528.589768 
L 473.856621 529.535436 
L 471.378741 530.141889 
L 469.870758 530.472536 
L 470.211156 532.012642 
L 470.544308 533.510291 
L 470.878654 535.022451 
L 471.209434 536.520931 
L 471.550186 538.055329 
L 471.720207 538.867904 
L 471.746922 538.987077 
L 471.863275 539.499692 
L 471.189721 539.638373 
L 470.726323 539.69332 
L 466.835443 540.540864 
L 466.731792 540.597241 
L 466.493028 540.613297 
L 463.354895 541.416119 
L 459.656236 542.414233 
L 457.57349 542.920186 
L 457.354669 542.979535 
L 456.031432 543.3549 
L 456.454703 544.91951 
L 456.847221 546.411567 
L 457.23119 547.900533 
L 457.660873 549.398777 
L 454.126303 550.215514 
L 451.740315 550.777129 
L 448.669976 551.488608 
L 448.567154 551.503119 
L 448.446291 551.545936 
L 446.283873 552.277514 
L 443.636801 553.169895 
L 439.980889 554.424793 
L 439.601074 553.013493 
L 439.201671 551.457326 
L 438.829691 549.933396 
L 438.430167 548.366049 
L 438.059136 546.909911 
L 437.694876 545.426418 
L 437.325982 543.947561 
L 436.945453 542.449673 
L 433.395569 543.493935 
L 429.701543 544.566504 
L 428.35729 544.952574 
L 428.242834 544.984447 
L 427.645387 545.159761 
L 425.941741 545.647877 
L 425.8426 545.680704 
L 423.71426 546.325218 
L 420.10916 547.418485 
L 418.309583 547.915163 
L 418.808244 549.39354 
L 419.314149 550.891665 
L 419.797973 552.348757 
L 420.35137 553.983181 
L 420.793995 555.295291 
L 421.299186 556.809231 
L 421.786216 558.241584 
L 422.289031 559.73019 
L 422.770363 561.157906 
L 423.256795 562.600128 
L 423.749877 564.059122 
L 424.243319 565.520971 
L 424.741385 566.990194 
L 425.356168 568.826809 
L 425.978427 570.674012 
L 426.59772 572.511343 
L 427.239687 574.384236 
L 425.770177 575.251283 
L 424.329278 576.522712 
L 422.44991 577.870976 
L 421.110289 578.758006 
L 419.060784 580.072012 
L 418.694502 578.637639 
L 418.379634 576.793291 
L 417.923712 575.30409 
L 417.362122 573.854135 
L 417.041792 572.303324 
L 416.754703 570.762023 
L 416.298187 569.287093 
L 415.893201 567.778624 
L 415.578928 566.253739 
L 415.24684 564.727664 
L 414.891247 563.206941 
L 414.544199 561.707391 
L 414.194659 560.170136 
L 413.849992 558.653699 
L 413.500212 557.118465 
L 384.178109 482.694089 
L 405.765947 478.323415 
" clip-path="url(#p781045194e)" style="fill: none; stroke: #000000; stroke-width: 2"/>
   </g>
   <g id="matplotlib.axis_1">
    <g id="xtick_1">
     <g id="line2d_1">
      <path d="M 139.04824 671.740967 
L 139.04824 200.899033 
" clip-path="url(#p781045194e)" style="fill: none; stroke: #b0b0b0; stroke-width: 0.8; stroke-linecap: square"/>
     </g>
     <g id="line2d_2">
      <defs>
       <path id="m7ce74cd033" d="M 0 0 
L 0 3.5 
" style="stroke: #000000; stroke-width: 0.8"/>
      </defs>
      <g>
       <use xlink:href="#m7ce74cd033" x="139.04824" y="671.740967" style="stroke: #000000; stroke-width: 0.8"/>
      </g>
     </g>
     <g id="text_1">
      <!-- −53.8 -->
      <g transform="translate(130.164659 705.783382) rotate(-45) scale(0.1 -0.1)">
       <defs>
        <path id="DejaVuSans-2212" d="M 678 2272 
L 4684 2272 
L 4684 1741 
L 678 1741 
L 678 2272 
z
" transform="scale(0.015625)"/>
        <path id="DejaVuSans-35" d="M 691 4666 
L 3169 4666 
L 3169 4134 
L 1269 4134 
L 1269 2991 
Q 1406 3038 1543 3061 
Q 1681 3084 1819 3084 
Q 2600 3084 3056 2656 
Q 3513 2228 3513 1497 
Q 3513 744 3044 326 
Q 2575 -91 1722 -91 
Q 1428 -91 1123 -41 
Q 819 9 494 109 
L 494 744 
Q 775 591 1075 516 
Q 1375 441 1709 441 
Q 2250 441 2565 725 
Q 2881 1009 2881 1497 
Q 2881 1984 2565 2268 
Q 2250 2553 1709 2553 
Q 1456 2553 1204 2497 
Q 953 2441 691 2322 
L 691 4666 
z
" transform="scale(0.015625)"/>
        <path id="DejaVuSans-33" d="M 2597 2516 
Q 3050 2419 3304 2112 
Q 3559 1806 3559 1356 
Q 3559 666 3084 287 
Q 2609 -91 1734 -91 
Q 1441 -91 1130 -33 
Q 819 25 488 141 
L 488 750 
Q 750 597 1062 519 
Q 1375 441 1716 441 
Q 2309 441 2620 675 
Q 2931 909 2931 1356 
Q 2931 1769 2642 2001 
Q 2353 2234 1838 2234 
L 1294 2234 
L 1294 2753 
L 1863 2753 
Q 2328 2753 2575 2939 
Q 2822 3125 2822 3475 
Q 2822 3834 2567 4026 
Q 2313 4219 1838 4219 
Q 1578 4219 1281 4162 
Q 984 4106 628 3988 
L 628 4550 
Q 988 4650 1302 4700 
Q 1616 4750 1894 4750 
Q 2613 4750 3031 4423 
Q 3450 4097 3450 3541 
Q 3450 3153 3228 2886 
Q 3006 2619 2597 2516 
z
" transform="scale(0.015625)"/>
        <path id="DejaVuSans-2e" d="M 684 794 
L 1344 794 
L 1344 0 
L 684 0 
L 684 794 
z
" transform="scale(0.015625)"/>
        <path id="DejaVuSans-38" d="M 2034 2216 
Q 1584 2216 1326 1975 
Q 1069 1734 1069 1313 
Q 1069 891 1326 650 
Q 1584 409 2034 409 
Q 2484 409 2743 651 
Q 3003 894 3003 1313 
Q 3003 1734 2745 1975 
Q 2488 2216 2034 2216 
z
M 1403 2484 
Q 997 2584 770 2862 
Q 544 3141 544 3541 
Q 544 4100 942 4425 
Q 1341 4750 2034 4750 
Q 2731 4750 3128 4425 
Q 3525 4100 3525 3541 
Q 3525 3141 3298 2862 
Q 3072 2584 2669 2484 
Q 3125 2378 3379 2068 
Q 3634 1759 3634 1313 
Q 3634 634 3220 271 
Q 2806 -91 2034 -91 
Q 1263 -91 848 271 
Q 434 634 434 1313 
Q 434 1759 690 2068 
Q 947 2378 1403 2484 
z
M 1172 3481 
Q 1172 3119 1398 2916 
Q 1625 2713 2034 2713 
Q 2441 2713 2670 2916 
Q 2900 3119 2900 3481 
Q 2900 3844 2670 4047 
Q 2441 4250 2034 4250 
Q 1625 4250 1398 4047 
Q 1172 3844 1172 3481 
z
" transform="scale(0.015625)"/>
       </defs>
       <use xlink:href="#DejaVuSans-2212"/>
       <use xlink:href="#DejaVuSans-35" transform="translate(83.789062 0)"/>
       <use xlink:href="#DejaVuSans-33" transform="translate(147.412109 0)"/>
       <use xlink:href="#DejaVuSans-2e" transform="translate(211.035156 0)"/>
       <use xlink:href="#DejaVuSans-38" transform="translate(242.822266 0)"/>
      </g>
     </g>
    </g>
    <g id="xtick_2">
     <g id="line2d_3">
      <path d="M 224.533353 671.740967 
L 224.533353 200.899033 
" clip-path="url(#p781045194e)" style="fill: none; stroke: #b0b0b0; stroke-width: 0.8; stroke-linecap: square"/>
     </g>
     <g id="line2d_4">
      <g>
       <use xlink:href="#m7ce74cd033" x="224.533353" y="671.740967" style="stroke: #000000; stroke-width: 0.8"/>
      </g>
     </g>
     <g id="text_2">
      <!-- −53.6 -->
      <g transform="translate(215.649772 705.783382) rotate(-45) scale(0.1 -0.1)">
       <defs>
        <path id="DejaVuSans-36" d="M 2113 2584 
Q 1688 2584 1439 2293 
Q 1191 2003 1191 1497 
Q 1191 994 1439 701 
Q 1688 409 2113 409 
Q 2538 409 2786 701 
Q 3034 994 3034 1497 
Q 3034 2003 2786 2293 
Q 2538 2584 2113 2584 
z
M 3366 4563 
L 3366 3988 
Q 3128 4100 2886 4159 
Q 2644 4219 2406 4219 
Q 1781 4219 1451 3797 
Q 1122 3375 1075 2522 
Q 1259 2794 1537 2939 
Q 1816 3084 2150 3084 
Q 2853 3084 3261 2657 
Q 3669 2231 3669 1497 
Q 3669 778 3244 343 
Q 2819 -91 2113 -91 
Q 1303 -91 875 529 
Q 447 1150 447 2328 
Q 447 3434 972 4092 
Q 1497 4750 2381 4750 
Q 2619 4750 2861 4703 
Q 3103 4656 3366 4563 
z
" transform="scale(0.015625)"/>
       </defs>
       <use xlink:href="#DejaVuSans-2212"/>
       <use xlink:href="#DejaVuSans-35" transform="translate(83.789062 0)"/>
       <use xlink:href="#DejaVuSans-33" transform="translate(147.412109 0)"/>
       <use xlink:href="#DejaVuSans-2e" transform="translate(211.035156 0)"/>
       <use xlink:href="#DejaVuSans-36" transform="translate(242.822266 0)"/>
      </g>
     </g>
    </g>
    <g id="xtick_3">
     <g id="line2d_5">
      <path d="M 310.018466 671.740967 
L 310.018466 200.899033 
" clip-path="url(#p781045194e)" style="fill: none; stroke: #b0b0b0; stroke-width: 0.8; stroke-linecap: square"/>
     </g>
     <g id="line2d_6">
      <g>
       <use xlink:href="#m7ce74cd033" x="310.018466" y="671.740967" style="stroke: #000000; stroke-width: 0.8"/>
      </g>
     </g>
     <g id="text_3">
      <!-- −53.4 -->
      <g transform="translate(301.134885 705.783382) rotate(-45) scale(0.1 -0.1)">
       <defs>
        <path id="DejaVuSans-34" d="M 2419 4116 
L 825 1625 
L 2419 1625 
L 2419 4116 
z
M 2253 4666 
L 3047 4666 
L 3047 1625 
L 3713 1625 
L 3713 1100 
L 3047 1100 
L 3047 0 
L 2419 0 
L 2419 1100 
L 313 1100 
L 313 1709 
L 2253 4666 
z
" transform="scale(0.015625)"/>
       </defs>
       <use xlink:href="#DejaVuSans-2212"/>
       <use xlink:href="#DejaVuSans-35" transform="translate(83.789062 0)"/>
       <use xlink:href="#DejaVuSans-33" transform="translate(147.412109 0)"/>
       <use xlink:href="#DejaVuSans-2e" transform="translate(211.035156 0)"/>
       <use xlink:href="#DejaVuSans-34" transform="translate(242.822266 0)"/>
      </g>
     </g>
    </g>
    <g id="xtick_4">
     <g id="line2d_7">
      <path d="M 395.503579 671.740967 
L 395.503579 200.899033 
" clip-path="url(#p781045194e)" style="fill: none; stroke: #b0b0b0; stroke-width: 0.8; stroke-linecap: square"/>
     </g>
     <g id="line2d_8">
      <g>
       <use xlink:href="#m7ce74cd033" x="395.503579" y="671.740967" style="stroke: #000000; stroke-width: 0.8"/>
      </g>
     </g>
     <g id="text_4">
      <!-- −53.2 -->
      <g transform="translate(386.619997 705.783382) rotate(-45) scale(0.1 -0.1)">
       <defs>
        <path id="DejaVuSans-32" d="M 1228 531 
L 3431 531 
L 3431 0 
L 469 0 
L 469 531 
Q 828 903 1448 1529 
Q 2069 2156 2228 2338 
Q 2531 2678 2651 2914 
Q 2772 3150 2772 3378 
Q 2772 3750 2511 3984 
Q 2250 4219 1831 4219 
Q 1534 4219 1204 4116 
Q 875 4013 500 3803 
L 500 4441 
Q 881 4594 1212 4672 
Q 1544 4750 1819 4750 
Q 2544 4750 2975 4387 
Q 3406 4025 3406 3419 
Q 3406 3131 3298 2873 
Q 3191 2616 2906 2266 
Q 2828 2175 2409 1742 
Q 1991 1309 1228 531 
z
" transform="scale(0.015625)"/>
       </defs>
       <use xlink:href="#DejaVuSans-2212"/>
       <use xlink:href="#DejaVuSans-35" transform="translate(83.789062 0)"/>
       <use xlink:href="#DejaVuSans-33" transform="translate(147.412109 0)"/>
       <use xlink:href="#DejaVuSans-2e" transform="translate(211.035156 0)"/>
       <use xlink:href="#DejaVuSans-32" transform="translate(242.822266 0)"/>
      </g>
     </g>
    </g>
    <g id="xtick_5">
     <g id="line2d_9">
      <path d="M 480.988691 671.740967 
L 480.988691 200.899033 
" clip-path="url(#p781045194e)" style="fill: none; stroke: #b0b0b0; stroke-width: 0.8; stroke-linecap: square"/>
     </g>
     <g id="line2d_10">
      <g>
       <use xlink:href="#m7ce74cd033" x="480.988691" y="671.740967" style="stroke: #000000; stroke-width: 0.8"/>
      </g>
     </g>
     <g id="text_5">
      <!-- −53.0 -->
      <g transform="translate(472.10511 705.783382) rotate(-45) scale(0.1 -0.1)">
       <defs>
        <path id="DejaVuSans-30" d="M 2034 4250 
Q 1547 4250 1301 3770 
Q 1056 3291 1056 2328 
Q 1056 1369 1301 889 
Q 1547 409 2034 409 
Q 2525 409 2770 889 
Q 3016 1369 3016 2328 
Q 3016 3291 2770 3770 
Q 2525 4250 2034 4250 
z
M 2034 4750 
Q 2819 4750 3233 4129 
Q 3647 3509 3647 2328 
Q 3647 1150 3233 529 
Q 2819 -91 2034 -91 
Q 1250 -91 836 529 
Q 422 1150 422 2328 
Q 422 3509 836 4129 
Q 1250 4750 2034 4750 
z
" transform="scale(0.015625)"/>
       </defs>
       <use xlink:href="#DejaVuSans-2212"/>
       <use xlink:href="#DejaVuSans-35" transform="translate(83.789062 0)"/>
       <use xlink:href="#DejaVuSans-33" transform="translate(147.412109 0)"/>
       <use xlink:href="#DejaVuSans-2e" transform="translate(211.035156 0)"/>
       <use xlink:href="#DejaVuSans-30" transform="translate(242.822266 0)"/>
      </g>
     </g>
    </g>
    <g id="xtick_6">
     <g id="line2d_11">
      <path d="M 566.473804 671.740967 
L 566.473804 200.899033 
" clip-path="url(#p781045194e)" style="fill: none; stroke: #b0b0b0; stroke-width: 0.8; stroke-linecap: square"/>
     </g>
     <g id="line2d_12">
      <g>
       <use xlink:href="#m7ce74cd033" x="566.473804" y="671.740967" style="stroke: #000000; stroke-width: 0.8"/>
      </g>
     </g>
     <g id="text_6">
      <!-- −52.8 -->
      <g transform="translate(557.590223 705.783382) rotate(-45) scale(0.1 -0.1)">
       <use xlink:href="#DejaVuSans-2212"/>
       <use xlink:href="#DejaVuSans-35" transform="translate(83.789062 0)"/>
       <use xlink:href="#DejaVuSans-32" transform="translate(147.412109 0)"/>
       <use xlink:href="#DejaVuSans-2e" transform="translate(211.035156 0)"/>
       <use xlink:href="#DejaVuSans-38" transform="translate(242.822266 0)"/>
      </g>
     </g>
    </g>
    <g id="text_7">
     <!-- Longitude (°) -->
     <g transform="translate(336.139844 718.852381) scale(0.1 -0.1)">
      <defs>
       <path id="DejaVuSans-4c" d="M 628 4666 
L 1259 4666 
L 1259 531 
L 3531 531 
L 3531 0 
L 628 0 
L 628 4666 
z
" transform="scale(0.015625)"/>
       <path id="DejaVuSans-6f" d="M 1959 3097 
Q 1497 3097 1228 2736 
Q 959 2375 959 1747 
Q 959 1119 1226 758 
Q 1494 397 1959 397 
Q 2419 397 2687 759 
Q 2956 1122 2956 1747 
Q 2956 2369 2687 2733 
Q 2419 3097 1959 3097 
z
M 1959 3584 
Q 2709 3584 3137 3096 
Q 3566 2609 3566 1747 
Q 3566 888 3137 398 
Q 2709 -91 1959 -91 
Q 1206 -91 779 398 
Q 353 888 353 1747 
Q 353 2609 779 3096 
Q 1206 3584 1959 3584 
z
" transform="scale(0.015625)"/>
       <path id="DejaVuSans-6e" d="M 3513 2113 
L 3513 0 
L 2938 0 
L 2938 2094 
Q 2938 2591 2744 2837 
Q 2550 3084 2163 3084 
Q 1697 3084 1428 2787 
Q 1159 2491 1159 1978 
L 1159 0 
L 581 0 
L 581 3500 
L 1159 3500 
L 1159 2956 
Q 1366 3272 1645 3428 
Q 1925 3584 2291 3584 
Q 2894 3584 3203 3211 
Q 3513 2838 3513 2113 
z
" transform="scale(0.015625)"/>
       <path id="DejaVuSans-67" d="M 2906 1791 
Q 2906 2416 2648 2759 
Q 2391 3103 1925 3103 
Q 1463 3103 1205 2759 
Q 947 2416 947 1791 
Q 947 1169 1205 825 
Q 1463 481 1925 481 
Q 2391 481 2648 825 
Q 2906 1169 2906 1791 
z
M 3481 434 
Q 3481 -459 3084 -895 
Q 2688 -1331 1869 -1331 
Q 1566 -1331 1297 -1286 
Q 1028 -1241 775 -1147 
L 775 -588 
Q 1028 -725 1275 -790 
Q 1522 -856 1778 -856 
Q 2344 -856 2625 -561 
Q 2906 -266 2906 331 
L 2906 616 
Q 2728 306 2450 153 
Q 2172 0 1784 0 
Q 1141 0 747 490 
Q 353 981 353 1791 
Q 353 2603 747 3093 
Q 1141 3584 1784 3584 
Q 2172 3584 2450 3431 
Q 2728 3278 2906 2969 
L 2906 3500 
L 3481 3500 
L 3481 434 
z
" transform="scale(0.015625)"/>
       <path id="DejaVuSans-69" d="M 603 3500 
L 1178 3500 
L 1178 0 
L 603 0 
L 603 3500 
z
M 603 4863 
L 1178 4863 
L 1178 4134 
L 603 4134 
L 603 4863 
z
" transform="scale(0.015625)"/>
       <path id="DejaVuSans-74" d="M 1172 4494 
L 1172 3500 
L 2356 3500 
L 2356 3053 
L 1172 3053 
L 1172 1153 
Q 1172 725 1289 603 
Q 1406 481 1766 481 
L 2356 481 
L 2356 0 
L 1766 0 
Q 1100 0 847 248 
Q 594 497 594 1153 
L 594 3053 
L 172 3053 
L 172 3500 
L 594 3500 
L 594 4494 
L 1172 4494 
z
" transform="scale(0.015625)"/>
       <path id="DejaVuSans-75" d="M 544 1381 
L 544 3500 
L 1119 3500 
L 1119 1403 
Q 1119 906 1312 657 
Q 1506 409 1894 409 
Q 2359 409 2629 706 
Q 2900 1003 2900 1516 
L 2900 3500 
L 3475 3500 
L 3475 0 
L 2900 0 
L 2900 538 
Q 2691 219 2414 64 
Q 2138 -91 1772 -91 
Q 1169 -91 856 284 
Q 544 659 544 1381 
z
M 1991 3584 
L 1991 3584 
z
" transform="scale(0.015625)"/>
       <path id="DejaVuSans-64" d="M 2906 2969 
L 2906 4863 
L 3481 4863 
L 3481 0 
L 2906 0 
L 2906 525 
Q 2725 213 2448 61 
Q 2172 -91 1784 -91 
Q 1150 -91 751 415 
Q 353 922 353 1747 
Q 353 2572 751 3078 
Q 1150 3584 1784 3584 
Q 2172 3584 2448 3432 
Q 2725 3281 2906 2969 
z
M 947 1747 
Q 947 1113 1208 752 
Q 1469 391 1925 391 
Q 2381 391 2643 752 
Q 2906 1113 2906 1747 
Q 2906 2381 2643 2742 
Q 2381 3103 1925 3103 
Q 1469 3103 1208 2742 
Q 947 2381 947 1747 
z
" transform="scale(0.015625)"/>
       <path id="DejaVuSans-65" d="M 3597 1894 
L 3597 1613 
L 953 1613 
Q 991 1019 1311 708 
Q 1631 397 2203 397 
Q 2534 397 2845 478 
Q 3156 559 3463 722 
L 3463 178 
Q 3153 47 2828 -22 
Q 2503 -91 2169 -91 
Q 1331 -91 842 396 
Q 353 884 353 1716 
Q 353 2575 817 3079 
Q 1281 3584 2069 3584 
Q 2775 3584 3186 3129 
Q 3597 2675 3597 1894 
z
M 3022 2063 
Q 3016 2534 2758 2815 
Q 2500 3097 2075 3097 
Q 1594 3097 1305 2825 
Q 1016 2553 972 2059 
L 3022 2063 
z
" transform="scale(0.015625)"/>
       <path id="DejaVuSans-20" transform="scale(0.015625)"/>
       <path id="DejaVuSans-28" d="M 1984 4856 
Q 1566 4138 1362 3434 
Q 1159 2731 1159 2009 
Q 1159 1288 1364 580 
Q 1569 -128 1984 -844 
L 1484 -844 
Q 1016 -109 783 600 
Q 550 1309 550 2009 
Q 550 2706 781 3412 
Q 1013 4119 1484 4856 
L 1984 4856 
z
" transform="scale(0.015625)"/>
       <path id="DejaVuSans-b0" d="M 1600 4347 
Q 1350 4347 1178 4173 
Q 1006 4000 1006 3750 
Q 1006 3503 1178 3333 
Q 1350 3163 1600 3163 
Q 1850 3163 2022 3333 
Q 2194 3503 2194 3750 
Q 2194 3997 2020 4172 
Q 1847 4347 1600 4347 
z
M 1600 4750 
Q 1800 4750 1984 4673 
Q 2169 4597 2303 4453 
Q 2447 4313 2519 4134 
Q 2591 3956 2591 3750 
Q 2591 3338 2302 3052 
Q 2013 2766 1594 2766 
Q 1172 2766 890 3047 
Q 609 3328 609 3750 
Q 609 4169 896 4459 
Q 1184 4750 1600 4750 
z
" transform="scale(0.015625)"/>
       <path id="DejaVuSans-29" d="M 513 4856 
L 1013 4856 
Q 1481 4119 1714 3412 
Q 1947 2706 1947 2009 
Q 1947 1309 1714 600 
Q 1481 -109 1013 -844 
L 513 -844 
Q 928 -128 1133 580 
Q 1338 1288 1338 2009 
Q 1338 2731 1133 3434 
Q 928 4138 513 4856 
z
" transform="scale(0.015625)"/>
      </defs>
      <use xlink:href="#DejaVuSans-4c"/>
      <use xlink:href="#DejaVuSans-6f" transform="translate(53.962891 0)"/>
      <use xlink:href="#DejaVuSans-6e" transform="translate(115.144531 0)"/>
      <use xlink:href="#DejaVuSans-67" transform="translate(178.523438 0)"/>
      <use xlink:href="#DejaVuSans-69" transform="translate(242 0)"/>
      <use xlink:href="#DejaVuSans-74" transform="translate(269.783203 0)"/>
      <use xlink:href="#DejaVuSans-75" transform="translate(308.992188 0)"/>
      <use xlink:href="#DejaVuSans-64" transform="translate(372.371094 0)"/>
      <use xlink:href="#DejaVuSans-65" transform="translate(435.847656 0)"/>
      <use xlink:href="#DejaVuSans-20" transform="translate(497.371094 0)"/>
      <use xlink:href="#DejaVuSans-28" transform="translate(529.158203 0)"/>
      <use xlink:href="#DejaVuSans-b0" transform="translate(568.171875 0)"/>
      <use xlink:href="#DejaVuSans-29" transform="translate(618.171875 0)"/>
     </g>
    </g>
   </g>
   <g id="matplotlib.axis_2">
    <g id="ytick_1">
     <g id="line2d_13">
      <path d="M 90 622.524364 
L 648 622.524364 
" clip-path="url(#p781045194e)" style="fill: none; stroke: #b0b0b0; stroke-width: 0.8; stroke-linecap: square"/>
     </g>
     <g id="line2d_14">
      <defs>
       <path id="mc1c45e5834" d="M 0 0 
L -3.5 0 
" style="stroke: #000000; stroke-width: 0.8"/>
      </defs>
      <g>
       <use xlink:href="#mc1c45e5834" x="90" y="622.524364" style="stroke: #000000; stroke-width: 0.8"/>
      </g>
     </g>
     <g id="text_8">
      <!-- −3.6 -->
      <g transform="translate(58.717187 626.323583) scale(0.1 -0.1)">
       <use xlink:href="#DejaVuSans-2212"/>
       <use xlink:href="#DejaVuSans-33" transform="translate(83.789062 0)"/>
       <use xlink:href="#DejaVuSans-2e" transform="translate(147.412109 0)"/>
       <use xlink:href="#DejaVuSans-36" transform="translate(179.199219 0)"/>
      </g>
     </g>
    </g>
    <g id="ytick_2">
     <g id="line2d_15">
      <path d="M 90 536.890108 
L 648 536.890108 
" clip-path="url(#p781045194e)" style="fill: none; stroke: #b0b0b0; stroke-width: 0.8; stroke-linecap: square"/>
     </g>
     <g id="line2d_16">
      <g>
       <use xlink:href="#mc1c45e5834" x="90" y="536.890108" style="stroke: #000000; stroke-width: 0.8"/>
      </g>
     </g>
     <g id="text_9">
      <!-- −3.4 -->
      <g transform="translate(58.717187 540.689327) scale(0.1 -0.1)">
       <use xlink:href="#DejaVuSans-2212"/>
       <use xlink:href="#DejaVuSans-33" transform="translate(83.789062 0)"/>
       <use xlink:href="#DejaVuSans-2e" transform="translate(147.412109 0)"/>
       <use xlink:href="#DejaVuSans-34" transform="translate(179.199219 0)"/>
      </g>
     </g>
    </g>
    <g id="ytick_3">
     <g id="line2d_17">
      <path d="M 90 451.255853 
L 648 451.255853 
" clip-path="url(#p781045194e)" style="fill: none; stroke: #b0b0b0; stroke-width: 0.8; stroke-linecap: square"/>
     </g>
     <g id="line2d_18">
      <g>
       <use xlink:href="#mc1c45e5834" x="90" y="451.255853" style="stroke: #000000; stroke-width: 0.8"/>
      </g>
     </g>
     <g id="text_10">
      <!-- −3.2 -->
      <g transform="translate(58.717187 455.055072) scale(0.1 -0.1)">
       <use xlink:href="#DejaVuSans-2212"/>
       <use xlink:href="#DejaVuSans-33" transform="translate(83.789062 0)"/>
       <use xlink:href="#DejaVuSans-2e" transform="translate(147.412109 0)"/>
       <use xlink:href="#DejaVuSans-32" transform="translate(179.199219 0)"/>
      </g>
     </g>
    </g>
    <g id="ytick_4">
     <g id="line2d_19">
      <path d="M 90 365.621597 
L 648 365.621597 
" clip-path="url(#p781045194e)" style="fill: none; stroke: #b0b0b0; stroke-width: 0.8; stroke-linecap: square"/>
     </g>
     <g id="line2d_20">
      <g>
       <use xlink:href="#mc1c45e5834" x="90" y="365.621597" style="stroke: #000000; stroke-width: 0.8"/>
      </g>
     </g>
     <g id="text_11">
      <!-- −3.0 -->
      <g transform="translate(58.717187 369.420816) scale(0.1 -0.1)">
       <use xlink:href="#DejaVuSans-2212"/>
       <use xlink:href="#DejaVuSans-33" transform="translate(83.789062 0)"/>
       <use xlink:href="#DejaVuSans-2e" transform="translate(147.412109 0)"/>
       <use xlink:href="#DejaVuSans-30" transform="translate(179.199219 0)"/>
      </g>
     </g>
    </g>
    <g id="ytick_5">
     <g id="line2d_21">
      <path d="M 90 279.987342 
L 648 279.987342 
" clip-path="url(#p781045194e)" style="fill: none; stroke: #b0b0b0; stroke-width: 0.8; stroke-linecap: square"/>
     </g>
     <g id="line2d_22">
      <g>
       <use xlink:href="#mc1c45e5834" x="90" y="279.987342" style="stroke: #000000; stroke-width: 0.8"/>
      </g>
     </g>
     <g id="text_12">
      <!-- −2.8 -->
      <g transform="translate(58.717187 283.786561) scale(0.1 -0.1)">
       <use xlink:href="#DejaVuSans-2212"/>
       <use xlink:href="#DejaVuSans-32" transform="translate(83.789062 0)"/>
       <use xlink:href="#DejaVuSans-2e" transform="translate(147.412109 0)"/>
       <use xlink:href="#DejaVuSans-38" transform="translate(179.199219 0)"/>
      </g>
     </g>
    </g>
    <g id="text_13">
     <!-- Latitude (°) -->
     <g transform="translate(52.6375 464.889531) rotate(-90) scale(0.1 -0.1)">
      <defs>
       <path id="DejaVuSans-61" d="M 2194 1759 
Q 1497 1759 1228 1600 
Q 959 1441 959 1056 
Q 959 750 1161 570 
Q 1363 391 1709 391 
Q 2188 391 2477 730 
Q 2766 1069 2766 1631 
L 2766 1759 
L 2194 1759 
z
M 3341 1997 
L 3341 0 
L 2766 0 
L 2766 531 
Q 2569 213 2275 61 
Q 1981 -91 1556 -91 
Q 1019 -91 701 211 
Q 384 513 384 1019 
Q 384 1609 779 1909 
Q 1175 2209 1959 2209 
L 2766 2209 
L 2766 2266 
Q 2766 2663 2505 2880 
Q 2244 3097 1772 3097 
Q 1472 3097 1187 3025 
Q 903 2953 641 2809 
L 641 3341 
Q 956 3463 1253 3523 
Q 1550 3584 1831 3584 
Q 2591 3584 2966 3190 
Q 3341 2797 3341 1997 
z
" transform="scale(0.015625)"/>
      </defs>
      <use xlink:href="#DejaVuSans-4c"/>
      <use xlink:href="#DejaVuSans-61" transform="translate(55.712891 0)"/>
      <use xlink:href="#DejaVuSans-74" transform="translate(116.992188 0)"/>
      <use xlink:href="#DejaVuSans-69" transform="translate(156.201172 0)"/>
      <use xlink:href="#DejaVuSans-74" transform="translate(183.984375 0)"/>
      <use xlink:href="#DejaVuSans-75" transform="translate(223.193359 0)"/>
      <use xlink:href="#DejaVuSans-64" transform="translate(286.572266 0)"/>
      <use xlink:href="#DejaVuSans-65" transform="translate(350.048828 0)"/>
      <use xlink:href="#DejaVuSans-20" transform="translate(411.572266 0)"/>
      <use xlink:href="#DejaVuSans-28" transform="translate(443.359375 0)"/>
      <use xlink:href="#DejaVuSans-b0" transform="translate(482.373047 0)"/>
      <use xlink:href="#DejaVuSans-29" transform="translate(532.373047 0)"/>
     </g>
    </g>
   </g>
   <g id="patch_3">
    <path d="M 90 671.740967 
L 90 200.899033 
" style="fill: none; stroke: #000000; stroke-width: 0.8; stroke-linejoin: miter; stroke-linecap: square"/>
   </g>
   <g id="patch_4">
    <path d="M 648 671.740967 
L 648 200.899033 
" style="fill: none; stroke: #000000; stroke-width: 0.8; stroke-linejoin: miter; stroke-linecap: square"/>
   </g>
   <g id="patch_5">
    <path d="M 90 671.740967 
L 648 671.740967 
" style="fill: none; stroke: #000000; stroke-width: 0.8; stroke-linejoin: miter; stroke-linecap: square"/>
   </g>
   <g id="patch_6">
    <path d="M 90 200.899033 
L 648 200.899033 
" style="fill: none; stroke: #000000; stroke-width: 0.8; stroke-linejoin: miter; stroke-linecap: square"/>
   </g>
   <g id="legend_1">
    <g id="patch_7">
     <path d="M 321.658594 765.045382 
L 416.341406 765.045382 
Q 418.341406 765.045382 418.341406 763.045382 
L 418.341406 749.367257 
Q 418.341406 747.367257 416.341406 747.367257 
L 321.658594 747.367257 
Q 319.658594 747.367257 319.658594 749.367257 
L 319.658594 763.045382 
Q 319.658594 765.045382 321.658594 765.045382 
z
" style="fill: #ffffff; opacity: 0.8; stroke: #cccccc; stroke-linejoin: miter"/>
    </g>
    <g id="line2d_23">
     <defs>
      <path id="m6f4cb29647" d="M 0 5 
C 1.326016 5 2.597899 4.473168 3.535534 3.535534 
C 4.473168 2.597899 5 1.326016 5 0 
C 5 -1.326016 4.473168 -2.597899 3.535534 -3.535534 
C 2.597899 -4.473168 1.326016 -5 0 -5 
C -1.326016 -5 -2.597899 -4.473168 -3.535534 -3.535534 
C -4.473168 -2.597899 -5 -1.326016 -5 0 
C -5 1.326016 -4.473168 2.597899 -3.535534 3.535534 
C -2.597899 4.473168 -1.326016 5 0 5 
z
"/>
     </defs>
     <g>
      <use xlink:href="#m6f4cb29647" x="333.658594" y="755.465695" style="fill: #b3e2cd; fill-opacity: 0.65"/>
     </g>
    </g>
    <g id="text_14">
     <!-- Medicilândia -->
     <g transform="translate(351.658594 758.965695) scale(0.1 -0.1)">
      <defs>
       <path id="DejaVuSans-4d" d="M 628 4666 
L 1569 4666 
L 2759 1491 
L 3956 4666 
L 4897 4666 
L 4897 0 
L 4281 0 
L 4281 4097 
L 3078 897 
L 2444 897 
L 1241 4097 
L 1241 0 
L 628 0 
L 628 4666 
z
" transform="scale(0.015625)"/>
       <path id="DejaVuSans-63" d="M 3122 3366 
L 3122 2828 
Q 2878 2963 2633 3030 
Q 2388 3097 2138 3097 
Q 1578 3097 1268 2742 
Q 959 2388 959 1747 
Q 959 1106 1268 751 
Q 1578 397 2138 397 
Q 2388 397 2633 464 
Q 2878 531 3122 666 
L 3122 134 
Q 2881 22 2623 -34 
Q 2366 -91 2075 -91 
Q 1284 -91 818 406 
Q 353 903 353 1747 
Q 353 2603 823 3093 
Q 1294 3584 2113 3584 
Q 2378 3584 2631 3529 
Q 2884 3475 3122 3366 
z
" transform="scale(0.015625)"/>
       <path id="DejaVuSans-6c" d="M 603 4863 
L 1178 4863 
L 1178 0 
L 603 0 
L 603 4863 
z
" transform="scale(0.015625)"/>
       <path id="DejaVuSans-e2" d="M 2194 1759 
Q 1497 1759 1228 1600 
Q 959 1441 959 1056 
Q 959 750 1161 570 
Q 1363 391 1709 391 
Q 2188 391 2477 730 
Q 2766 1069 2766 1631 
L 2766 1759 
L 2194 1759 
z
M 3341 1997 
L 3341 0 
L 2766 0 
L 2766 531 
Q 2569 213 2275 61 
Q 1981 -91 1556 -91 
Q 1019 -91 701 211 
Q 384 513 384 1019 
Q 384 1609 779 1909 
Q 1175 2209 1959 2209 
L 2766 2209 
L 2766 2266 
Q 2766 2663 2505 2880 
Q 2244 3097 1772 3097 
Q 1472 3097 1187 3025 
Q 903 2953 641 2809 
L 641 3341 
Q 956 3463 1253 3523 
Q 1550 3584 1831 3584 
Q 2591 3584 2966 3190 
Q 3341 2797 3341 1997 
z
M 1625 5119 
L 2088 5119 
L 2853 3944 
L 2419 3944 
L 1856 4709 
L 1294 3944 
L 859 3944 
L 1625 5119 
z
" transform="scale(0.015625)"/>
      </defs>
      <use xlink:href="#DejaVuSans-4d"/>
      <use xlink:href="#DejaVuSans-65" transform="translate(86.279297 0)"/>
      <use xlink:href="#DejaVuSans-64" transform="translate(147.802734 0)"/>
      <use xlink:href="#DejaVuSans-69" transform="translate(211.279297 0)"/>
      <use xlink:href="#DejaVuSans-63" transform="translate(239.0625 0)"/>
      <use xlink:href="#DejaVuSans-69" transform="translate(294.042969 0)"/>
      <use xlink:href="#DejaVuSans-6c" transform="translate(321.826172 0)"/>
      <use xlink:href="#DejaVuSans-e2" transform="translate(349.609375 0)"/>
      <use xlink:href="#DejaVuSans-6e" transform="translate(410.888672 0)"/>
      <use xlink:href="#DejaVuSans-64" transform="translate(474.267578 0)"/>
      <use xlink:href="#DejaVuSans-69" transform="translate(537.744141 0)"/>
      <use xlink:href="#DejaVuSans-61" transform="translate(565.527344 0)"/>
     </g>
    </g>
   </g>
  </g>
 </g>
 <defs>
  <clipPath id="p781045194e">
   <rect x="90" y="200.899033" width="558" height="470.841934"/>
  </clipPath>
 </defs>
</svg>
