<?xml version="1.0" encoding="utf-8" standalone="no"?>
<!DOCTYPE svg PUBLIC "-//W3C//DTD SVG 1.1//EN"
  "http://www.w3.org/Graphics/SVG/1.1/DTD/svg11.dtd">
<svg xmlns:xlink="http://www.w3.org/1999/xlink" width="720pt" height="864pt" viewBox="0 0 720 864" xmlns="http://www.w3.org/2000/svg" version="1.1">
 <metadata>
  <rdf:RDF xmlns:dc="http://purl.org/dc/elements/1.1/" xmlns:cc="http://creativecommons.org/ns#" xmlns:rdf="http://www.w3.org/1999/02/22-rdf-syntax-ns#">
   <cc:Work>
    <dc:type rdf:resource="http://purl.org/dc/dcmitype/StillImage"/>
    <dc:date>2025-06-16T16:52:22.826566</dc:date>
    <dc:format>image/svg+xml</dc:format>
    <dc:creator>
     <cc:Agent>
      <dc:title>Matplotlib v3.10.1, https://matplotlib.org/</dc:title>
     </cc:Agent>
    </dc:creator>
   </cc:Work>
  </rdf:RDF>
 </metadata>
 <defs>
  <style type="text/css">*{stroke-linejoin: round; stroke-linecap: butt}</style>
 </defs>
 <g id="figure_1">
  <g id="patch_1">
   <path d="M 0 864 
L 720 864 
L 720 0 
L 0 0 
z
" style="fill: #ffffff"/>
  </g>
  <g id="axes_1">
   <g id="patch_2">
    <path d="M 140.645129 768.96 
L 597.354871 768.96 
L 597.354871 103.68 
L 140.645129 103.68 
z
" style="fill: #ffffff"/>
   </g>
   <g id="PatchCollection_1">
    <path d="M 452.565869 159.895762 
L 455.111579 159.91751 
L 455.29823 159.203102 
L 455.666348 158.353017 
L 456.267778 157.748968 
L 457.06623 156.910569 
L 457.802464 156.466539 
L 458.865337 156.206548 
L 459.860808 156.119235 
L 460.939235 155.945583 
L 462.022847 155.894949 
L 463.168676 155.795302 
L 463.79603 155.69598 
L 465.569213 155.262986 
L 466.113611 155.200666 
L 466.523206 155.200341 
L 466.740966 155.237019 
L 467.020942 155.421383 
L 467.083159 155.519732 
L 467.083159 155.716754 
L 466.870584 156.07412 
L 466.611347 156.357806 
L 466.092872 156.678495 
L 465.636614 156.986849 
L 465.398116 157.245542 
L 465.20628 157.750918 
L 465.076661 158.231302 
L 464.926303 158.57601 
L 464.817424 158.711686 
L 464.537447 158.798349 
L 464.190069 158.835676 
L 463.842691 158.860669 
L 463.604193 158.860994 
L 463.215337 158.996669 
L 462.805742 159.231343 
L 462.240605 159.712051 
L 461.810271 159.995737 
L 461.509555 160.107069 
L 461.291796 160.107069 
L 461.162178 160.033388 
L 460.90294 159.861359 
L 460.467422 159.886676 
L 460.187445 159.973015 
L 459.88673 160.109016 
L 459.58083 160.42938 
L 459.539352 160.65107 
L 459.627493 160.823424 
L 459.710448 161.35282 
L 459.66897 161.697528 
L 459.518612 162.153243 
L 459.129756 162.781961 
L 458.803117 163.39802 
L 458.652759 163.915082 
L 458.652759 164.333795 
L 458.787562 164.616832 
L 458.917181 164.838522 
L 459.129755 164.899869 
L 459.238635 164.899544 
L 459.388993 164.788537 
L 459.497873 164.640851 
L 459.75711 164.024792 
L 460.037087 163.458069 
L 460.363726 163.112712 
L 460.8822 162.693675 
L 461.09996 162.262304 
L 461.271057 161.78192 
L 461.831009 161.17787 
L 462.245789 160.906518 
L 462.634645 160.844523 
L 462.893882 160.930538 
L 463.002762 161.065565 
L 462.982023 161.262587 
L 462.852404 161.66929 
L 462.676123 162.174342 
L 462.696861 162.629733 
L 462.764263 162.962431 
L 462.893882 163.085123 
L 463.064978 163.158804 
L 463.412356 163.084799 
L 463.738995 162.961133 
L 464.086373 162.763786 
L 464.25747 162.541771 
L 464.817423 161.937721 
L 465.812894 160.545258 
L 467.259439 158.635085 
L 468.426007 156.823584 
L 469.919215 154.740732 
L 471.604258 152.670215 
L 473.289301 150.439353 
L 474.564749 148.381493 
L 475.451341 146.557983 
L 476.747529 143.243986 
L 477.717078 139.819954 
L 477.841512 139.388583 
L 477.6756 138.416131 
L 477.670416 136.790616 
L 477.670416 135.436129 
L 478.028164 134.093652 
L 479.096222 133.92 
L 480.076139 134.903813 
L 481.413802 136.884747 
L 481.916722 138.398929 
L 482.549261 139.186045 
L 482.699618 139.924797 
L 483.192168 142.251412 
L 483.663979 144.553683 
L 484.260224 146.596936 
L 485.136446 148.812219 
L 486.100808 150.842814 
L 487.080724 152.516367 
L 488.065825 154.017567 
L 489.154621 155.54311 
L 490.176016 156.822618 
L 491.524049 158.175483 
L 493.63424 160.278461 
L 495.174109 161.434303 
L 496.133287 161.987069 
L 497.714634 162.85955 
L 499.036744 163.670685 
L 500.52995 164.617171 
L 502.090558 165.649672 
L 503.111953 166.374792 
L 503.988174 167.149573 
L 504.885135 167.948698 
L 505.714694 169.117524 
L 506.741273 170.594055 
L 508.193001 172.328305 
L 509.452894 173.447469 
L 510.220236 174.086899 
L 510.863145 174.443292 
L 512.034897 174.946722 
L 513.787341 175.621856 
L 516.110107 176.308351 
L 518.007723 176.884812 
L 519.692766 177.412261 
L 520.952659 177.891022 
L 523.130252 178.922874 
L 525.136748 179.683699 
L 526.500336 180.297811 
L 527.952064 180.948602 
L 528.314996 181.071294 
L 529.020122 181.181328 
L 529.704508 181.352709 
L 530.38371 181.499745 
L 531.026618 181.609779 
L 532.561303 181.755843 
L 533.390862 181.865552 
L 533.712316 181.90223 
L 534.930732 182.208313 
L 535.314403 182.294328 
L 535.78103 182.26901 
L 536.232103 182.243693 
L 536.849088 182.144371 
L 537.424594 181.971368 
L 537.958623 181.773697 
L 538.274893 181.773372 
L 538.808922 181.809726 
L 539.234071 181.833745 
L 539.85624 181.808428 
L 540.281389 181.70943 
L 540.333237 181.623091 
L 540.36953 181.56142 
L 540.36953 181.364398 
L 540.219173 181.143032 
L 539.939196 180.958668 
L 539.685144 180.872653 
L 539.192593 180.82429 
L 538.658564 180.824939 
L 537.849744 180.887259 
L 536.760947 180.974896 
L 535.335142 181.124529 
L 534.396703 181.15017 
L 533.904152 181.06448 
L 533.02793 180.720746 
L 532.198371 180.40168 
L 531.643604 180.180638 
L 531.000695 180.095273 
L 530.534068 180.108256 
L 529.787465 180.281583 
L 529.294914 180.417583 
L 528.999383 180.417908 
L 528.486093 180.332218 
L 528.102422 180.160513 
L 527.843185 179.902144 
L 527.780968 179.446754 
L 527.822446 179.212729 
L 528.014282 178.97838 
L 528.247596 178.74403 
L 528.610528 178.546684 
L 529.315653 178.262673 
L 529.657847 178.200678 
L 530.40445 178.224373 
L 531.042174 178.260726 
L 531.342889 178.260077 
L 531.462138 178.223075 
L 531.560648 178.272412 
L 532.44724 178.48047 
L 533.204213 178.553502 
L 534.230792 178.564538 
L 535.641043 178.587584 
L 536.439494 178.58661 
L 537.574953 178.720664 
L 538.290448 178.818039 
L 539.109638 179.05109 
L 539.851056 179.161124 
L 539.939197 179.234805 
L 541.09021 179.676563 
L 542.137529 180.044642 
L 543.672214 180.363059 
L 545.357256 180.705819 
L 547.337829 181.035922 
L 548.72734 181.32967 
L 550.645696 181.635104 
L 552.097425 182.064204 
L 553.528414 182.554975 
L 554.767568 183.083073 
L 557.111073 184.262285 
L 559.267927 185.675523 
L 561.891408 187.322136 
L 563.706068 188.280307 
L 564.774126 188.931747 
L 566.01328 189.828896 
L 567.335389 190.898724 
L 568.444925 191.99322 
L 569.212267 192.952689 
L 570.280324 194.453564 
L 571.586879 196.840552 
L 572.395699 198.391088 
L 573.209703 200.434017 
L 574.277759 204.028131 
L 575.242121 207.019168 
L 576.035386 209.985538 
L 576.398318 211.65974 
L 576.595337 213.235593 
L 576.553858 215.833884 
L 576.429424 218.025797 
L 575.833177 221.843548 
L 575.428766 224.183471 
L 574.708085 227.841527 
L 574.371076 229.627385 
L 573.883708 233.814513 
L 573.82149 237.077551 
L 573.805935 239.404815 
L 573.489663 245.487835 
L 573.427446 246.694637 
L 572.91934 249.527277 
L 572.727503 251.448487 
L 572.411233 254.416479 
L 572.349015 257.544165 
L 572.141624 260.745857 
L 571.949787 263.676522 
L 571.88757 264.944995 
L 571.700918 267.075236 
L 571.721656 269.673527 
L 571.643884 273.244271 
L 571.431308 275.645864 
L 571.239472 277.320715 
L 570.923202 279.254259 
L 570.306216 281.619175 
L 570.202521 282.222576 
L 570.22326 282.567283 
L 570.415095 283.724424 
L 570.420279 285.017564 
L 570.207704 286.286037 
L 569.906989 287.566843 
L 569.378144 289.193007 
L 568.802637 290.782167 
L 567.527188 293.33242 
L 567.205734 293.973148 
L 566.313957 296.14169 
L 565.821405 297.52117 
L 565.162942 299.184336 
L 564.48374 301.032189 
L 563.737135 303.434432 
L 562.783142 305.28261 
L 561.440291 308.091556 
L 560.330755 309.989395 
L 559.801911 310.876482 
L 558.842732 312.576974 
L 557.733196 314.203787 
L 556.41627 316.003277 
L 555.457092 316.964693 
L 553.668354 318.986524 
L 552.216624 320.983036 
L 551.495944 322.153809 
L 550.049399 325.677163 
L 549.261316 328.227091 
L 547.876988 331.922798 
L 547.239263 333.906003 
L 546.731158 335.827538 
L 546.430442 336.849976 
L 546.285269 338.290802 
L 546.326746 339.891648 
L 546.565244 341.221142 
L 546.907436 343.289389 
L 547.104456 345.000593 
L 547.083717 346.244397 
L 546.933358 347.574216 
L 546.700045 348.497981 
L 545.95344 350.752537 
L 545.315716 352.033668 
L 544.807611 352.933414 
L 544.595036 353.635488 
L 544.4032 355.5937 
L 544.149146 358.253662 
L 544.175069 360.22356 
L 544.154329 361.787403 
L 543.838059 364.484368 
L 543.516604 366.122541 
L 543.329953 367.834394 
L 543.288474 370.765059 
L 543.335136 372.230229 
L 543.314396 375.542604 
L 543.381797 376.946103 
L 543.278101 378.300915 
L 542.998125 379.347697 
L 542.681855 380.185446 
L 542.46928 381.072209 
L 542.427801 383.190441 
L 542.536681 384.175227 
L 542.899612 386.021783 
L 543.350684 387.572643 
L 544.138765 389.492555 
L 544.569098 390.772388 
L 544.911291 392.261902 
L 545.403841 395.044232 
L 545.533459 396.238375 
L 545.834173 398.750003 
L 546.197105 400.042495 
L 546.585961 401.273315 
L 546.777796 402.541139 
L 546.928153 403.365906 
L 547.358486 404.633729 
L 547.762896 406.541631 
L 547.97547 407.551086 
L 547.980655 407.994467 
L 547.959915 408.757888 
L 548.131012 409.471971 
L 548.234707 409.705672 
L 548.514683 409.81603 
L 548.66504 409.81603 
L 548.836137 409.963391 
L 548.960571 410.185082 
L 549.048711 410.60347 
L 549.06945 411.773269 
L 549.027972 412.980071 
L 548.856875 413.731481 
L 548.499127 414.999954 
L 548.198411 415.899375 
L 548.177672 416.552112 
L 548.245073 416.847483 
L 548.41617 417.154864 
L 548.799841 417.53625 
L 549.121295 417.745282 
L 549.655324 418.163021 
L 550.210091 418.716436 
L 550.614501 419.245507 
L 551.319626 420.611355 
L 551.770699 421.780505 
L 551.983273 423.294687 
L 552.050674 425.375592 
L 552.20103 427.801205 
L 552.159552 429.131024 
L 551.993639 431.42161 
L 551.931422 432.689758 
L 551.95216 433.453178 
L 552.361755 435.496756 
L 552.833566 437.552344 
L 553.559429 440.038654 
L 553.792742 440.703401 
L 554.005317 441.306477 
L 554.565269 443.189711 
L 555.161514 445.035943 
L 555.93404 447.115874 
L 556.706566 449.146469 
L 557.302812 450.820346 
L 557.774623 452.371207 
L 558.567888 455.399247 
L 559.081177 457.405498 
L 559.40263 459.313725 
L 559.682606 461.578993 
L 560.071461 463.388546 
L 560.776586 465.640832 
L 561.269136 468.029118 
L 561.673545 469.875349 
L 561.932782 471.906917 
L 562.04166 474.738584 
L 562.197202 477.201199 
L 562.41496 480.143874 
L 562.586055 483.307914 
L 562.715673 485.031777 
L 562.674194 487.162019 
L 562.529021 488.738197 
L 562.482358 489.119907 
L 520.39258 521.990464 
L 492.690483 523.76268 
L 492.659374 523.775014 
L 472.594403 537.912242 
L 472.44923 537.986247 
L 424.205158 571.318684 
L 423.640021 570.753259 
L 423.323752 570.014831 
L 423.043776 569.411755 
L 422.7638 569.018035 
L 422.374944 568.772325 
L 421.602417 568.52694 
L 421.006172 568.28123 
L 420.658794 567.998518 
L 420.306231 567.617132 
L 419.953669 566.940375 
L 419.461118 565.771225 
L 418.792287 564.257367 
L 418.159748 563.236227 
L 417.527209 562.6338 
L 417.039843 562.351087 
L 415.982155 561.89667 
L 414.685969 561.405899 
L 413.949735 561.160514 
L 413.280903 561.124485 
L 412.617256 560.940446 
L 412.02101 560.596387 
L 411.564753 560.165989 
L 410.932214 559.354205 
L 410.299675 558.616102 
L 409.350867 558.08768 
L 408.650927 557.731611 
L 407.982095 557.165862 
L 407.033287 556.280398 
L 406.084478 555.653627 
L 405.348245 555.12488 
L 404.52387 555.298532 
L 403.569877 556.087594 
L 402.584774 557.468047 
L 401.915942 558.540146 
L 400.961948 559.711243 
L 400.541983 560.672335 
L 399.515403 562.692867 
L 398.919156 564.516052 
L 398.63918 566.043218 
L 398.535484 567.040987 
L 398.639179 568.099779 
L 398.851753 569.380261 
L 399.313195 571.165146 
L 399.525769 572.260615 
L 399.422073 573.012026 
L 399.38578 574.046474 
L 399.002108 575.179595 
L 398.613252 575.611291 
L 397.695552 576.178662 
L 396.990426 576.462997 
L 395.471296 576.538625 
L 394.553596 576.527589 
L 393.584048 576.540896 
L 392.811521 576.467864 
L 392.204906 576.35783 
L 391.136849 576.002086 
L 390.213964 575.794028 
L 389.503654 575.831679 
L 388.471889 576.177685 
L 386.838694 576.783033 
L 385.381781 576.932665 
L 383.815987 576.934612 
L 382.359074 576.751871 
L 381.296201 576.432805 
L 380.155557 576.151066 
L 378.843817 576.017337 
L 377.884639 576.116984 
L 373.809429 576.109517 
L 366.82558 566.353183 
L 364.71539 563.190764 
L 364.170992 561.172179 
L 363.408835 559.461299 
L 362.900731 557.959776 
L 362.460028 556.667284 
L 361.82749 554.131313 
L 361.635655 552.789484 
L 361.573438 551.779705 
L 361.506038 548.984392 
L 361.630473 546.570789 
L 361.946743 544.218532 
L 362.698532 542.185666 
L 362.890368 540.855522 
L 362.947401 539.587375 
L 362.885184 538.50359 
L 362.314863 536.411 
L 361.998594 535.389211 
L 361.87416 534.946154 
L 361.936378 533.295972 
L 362.060812 531.892148 
L 362.055628 530.623676 
L 362.055628 529.035164 
L 361.552709 527.447301 
L 361.169038 526.179478 
L 360.977203 523.44616 
L 360.909803 520.650846 
L 361.28829 518.113577 
L 362.045264 515.514637 
L 363.051105 513.666134 
L 364.248782 511.756285 
L 365.570894 509.279389 
L 366.327867 508.010268 
L 366.893005 506.556458 
L 367.769228 502.8614 
L 368.463985 500.200789 
L 368.775071 497.786861 
L 368.961723 495.311588 
L 369.086157 493.525729 
L 368.894322 491.617502 
L 368.64027 489.844303 
L 368.069949 487.370002 
L 367.56703 485.585117 
L 367.121142 483.812566 
L 366.742656 482.729106 
L 366.618223 482.101362 
L 366.301954 480.833538 
L 365.602013 479.245676 
L 365.47758 478.223887 
L 364.97466 477.461115 
L 364.27472 475.934923 
L 363.7718 474.925793 
L 363.517748 473.522293 
L 363.38813 472.758873 
L 362.631157 471.491374 
L 361.433482 469.719797 
L 360.04397 468.440612 
L 358.654459 467.752819 
L 357.581217 466.929026 
L 356.507975 465.90821 
L 355.875436 464.960751 
L 355.621384 463.618923 
L 355.559168 462.35045 
L 355.42955 459.814154 
L 355.429551 457.782261 
L 355.802853 456.131754 
L 355.170315 453.7188 
L 354.729612 452.315625 
L 354.537777 450.481079 
L 354.408159 448.313835 
L 354.345943 447.168704 
L 352.956432 445.581815 
L 351.758756 444.437982 
L 350.747731 442.98612 
L 349.923357 441.583269 
L 349.420437 440.2541 
L 349.104168 438.542895 
L 348.974551 435.23052 
L 348.969367 432.509212 
L 348.461264 426.537524 
L 347.890943 423.299479 
L 347.253221 420.184775 
L 347.061386 417.328115 
L 347.123605 413.387671 
L 346.93177 410.531011 
L 346.931771 409.003846 
L 346.677719 407.674352 
L 346.299233 406.788239 
L 345.537076 405.385388 
L 344.588268 403.477811 
L 343.577243 400.819147 
L 343.260974 399.353976 
L 343.198758 397.063715 
L 343.323193 395.290191 
L 343.763897 393.442661 
L 344.142384 392.937285 
L 346.470335 391.727888 
L 347.79763 390.962845 
L 348.865688 389.75507 
L 349.684878 388.547295 
L 350.187799 386.896463 
L 350.628504 384.039155 
L 350.690722 380.677443 
L 351.442512 375.209185 
L 352.069868 371.90817 
L 352.064684 369.051511 
L 352.002468 366.699578 
L 351.432147 364.163607 
L 350.66999 362.255705 
L 350.16707 360.606171 
L 349.156045 359.203645 
L 347.388048 357.23537 
L 345.874102 355.722486 
L 343.411349 353.114781 
L 340.881194 350.063695 
L 339.683519 348.611832 
L 338.734711 347.788039 
L 337.853304 347.271626 
L 334.571361 345.748679 
L 333.057415 345.122232 
L 331.54347 344.101741 
L 330.470228 342.957908 
L 329.775472 341.813427 
L 329.583637 340.422261 
L 329.267368 339.659165 
L 328.572612 339.155087 
L 327.49937 338.836021 
L 326.115043 338.455933 
L 325.228452 338.013525 
L 324.663315 337.496788 
L 324.175949 336.8447 
L 323.864864 336.303294 
L 323.735246 335.810901 
L 323.735246 335.441525 
L 323.838941 335.232169 
L 324.020407 335.231844 
L 324.331492 335.391539 
L 324.6685 335.62524 
L 324.9744 336.01896 
L 325.363256 336.424689 
L 325.829883 336.719736 
L 326.270586 336.74408 
L 326.576486 336.583411 
L 326.628334 336.14003 
L 326.472792 335.43828 
L 326.161707 334.847863 
L 325.466952 334.109759 
L 324.585545 333.433327 
L 323.813018 332.818566 
L 323.164925 332.191145 
L 322.853841 331.612737 
L 322.698298 331.169681 
L 322.98346 330.344265 
L 323.159741 329.876216 
L 323.185665 329.50684 
L 323.030123 329.199134 
L 322.646452 328.965434 
L 322.102054 328.756727 
L 321.531732 328.683371 
L 321.148061 328.412992 
L 320.888823 327.896255 
L 320.8629 327.538889 
L 320.831791 327.28052 
L 321.065105 326.516775 
L 321.246572 326.07307 
L 321.246572 325.765365 
L 321.116953 325.346976 
L 320.572555 324.719556 
L 319.97631 323.661089 
L 319.385249 322.467271 
L 318.607538 320.621039 
L 318.374225 319.155869 
L 318.244607 318.429451 
L 318.394965 317.702709 
L 318.783821 316.951298 
L 318.887516 316.113872 
L 318.809745 315.436467 
L 318.602355 314.91973 
L 318.239423 314.402668 
L 317.669102 313.492211 
L 317.228399 312.052034 
L 317.02101 310.549861 
L 317.02101 308.887344 
L 317.046934 307.631206 
L 317.04175 306.17837 
L 316.782513 305.082576 
L 316.497353 304.097789 
L 316.217377 303.470045 
L 315.672979 302.879627 
L 314.713801 302.11718 
L 313.422799 301.269043 
L 312.313264 300.432915 
L 311.639248 299.706822 
L 311.276316 298.771372 
L 310.835613 297.540551 
L 310.213444 296.482084 
L 309.337222 295.547283 
L 307.911418 294.058742 
L 307.320357 293.22229 
L 306.516722 292.21316 
L 305.505697 290.908983 
L 304.188772 288.336982 
L 303.488832 286.071714 
L 303.177748 284.643546 
L 302.944435 284.015801 
L 302.088952 282.206573 
L 301.700097 280.766395 
L 301.622326 279.916636 
L 301.85564 279.054542 
L 302.265235 278.512163 
L 302.705939 278.043789 
L 303.483651 277.772113 
L 304.333949 277.487778 
L 304.8265 277.105743 
L 305.33979 276.193664 
L 305.884189 274.629171 
L 306.319708 272.707962 
L 306.807075 271.500511 
L 307.351474 270.416402 
L 308.04623 269.183959 
L 308.9743 267.052744 
L 309.746828 265.155553 
L 310.187532 263.911425 
L 310.623051 262.99967 
L 311.297068 262.235276 
L 312.38068 261.224523 
L 313.282826 260.287451 
L 313.93092 259.425033 
L 314.288667 258.747302 
L 314.936761 257.995243 
L 315.294508 257.600874 
L 315.968526 257.243183 
L 316.435153 257.168529 
L 317.233603 257.16788 
L 318.037239 257.105236 
L 318.654224 256.772213 
L 319.380089 256.254178 
L 320.230387 255.810148 
L 320.951067 255.525813 
L 322.065787 255.315484 
L 323.538255 255.264525 
L 324.699638 255.201556 
L 325.420318 255.003885 
L 326.172106 254.535186 
L 326.892786 253.463087 
L 328.002322 251.331548 
L 328.800774 250.185443 
L 329.267401 249.507713 
L 329.785876 248.965334 
L 330.376937 248.619653 
L 331.408701 248.433992 
L 332.290108 248.359013 
L 333.062635 248.333696 
L 334.021813 248.591091 
L 335.364662 249.008181 
L 335.675747 249.10653 
L 336.00757 249.11854 
L 336.551969 249.080888 
L 337.583733 248.673536 
L 338.205903 248.229506 
L 339.6006 247.131765 
L 340.52867 246.195018 
L 341.093807 245.258594 
L 341.327121 244.039134 
L 341.327122 243.041689 
L 341.249351 242.167586 
L 340.782724 240.998111 
L 340.342021 240.050651 
L 339.719852 239.176872 
L 338.895478 238.365089 
L 338.169613 237.663988 
L 337.754834 237.356607 
L 337.236359 237.123231 
L 336.541603 237.037866 
L 335.535763 236.94049 
L 335.043212 236.830132 
L 334.706204 236.707114 
L 334.421043 236.338063 
L 334.369195 235.821001 
L 334.369196 235.032912 
L 334.732129 233.320734 
L 334.882487 230.981136 
L 334.778792 230.07003 
L 334.441784 229.023573 
L 334.001081 228.088123 
L 333.638149 227.596054 
L 333.12486 226.709941 
L 332.398996 226.00884 
L 331.673131 225.566433 
L 331.056147 225.259052 
L 330.330283 224.681293 
L 329.656266 223.906187 
L 329.065205 223.414118 
L 327.924561 222.923023 
L 326.918721 222.320596 
L 326.374323 221.717844 
L 325.290711 220.14264 
L 324.616695 218.57977 
L 324.305611 216.782226 
L 324.046374 215.87112 
L 323.838984 215.194039 
L 323.372358 214.418933 
L 322.776112 213.631493 
L 322.490951 212.97908 
L 322.361333 212.511355 
L 322.620571 211.082539 
L 323.113122 210.306135 
L 323.833802 209.702085 
L 325.124804 209.060384 
L 326.234339 208.147656 
L 326.675043 207.593267 
L 326.778738 206.891193 
L 326.623196 206.349463 
L 326.052874 205.512686 
L 325.456629 204.922269 
L 325.32701 204.626898 
L 325.430705 204.183517 
L 325.918072 202.520675 
L 325.96992 202.003289 
L 325.814378 201.30154 
L 325.321827 199.479652 
L 324.958895 198.470197 
L 324.77743 196.487965 
L 324.518193 195.810884 
L 324.07749 194.850766 
L 323.486429 193.607935 
L 323.097574 192.487797 
L 322.962771 191.625703 
L 322.80723 188.165643 
L 322.599841 185.641681 
L 322.444299 183.89315 
L 322.439115 182.698682 
L 322.698352 181.528559 
L 323.035361 180.678475 
L 323.704194 179.8404 
L 324.995196 178.878335 
L 326.078808 178.150944 
L 326.752825 177.620575 
L 327.525352 176.56081 
L 328.142338 175.069998 
L 328.686736 173.776533 
L 328.863018 172.372384 
L 328.863019 171.042565 
L 328.707477 169.171017 
L 328.551935 167.016107 
L 328.396393 166.043654 
L 328.287514 163.679388 
L 327.950507 161.758827 
L 327.380185 160.379996 
L 326.763201 159.334188 
L 325.933642 157.955681 
L 325.104083 156.528162 
L 324.642641 155.777725 
L 323.994548 155.100968 
L 323.320531 154.682904 
L 322.366538 154.289833 
L 321.640674 154.08145 
L 320.712605 153.934738 
L 319.934893 153.849373 
L 318.954976 153.875014 
L 317.819516 154.036332 
L 316.243354 154.370328 
L 315.185665 154.580982 
L 314.433877 154.630968 
L 313.86874 154.606948 
L 313.039181 154.189209 
L 312.572554 153.807823 
L 312.292578 153.254084 
L 312.287393 152.293641 
L 312.494784 150.790819 
L 312.546631 150.323094 
L 312.458491 150.015065 
L 316.735907 147.49857 
L 335.655046 140.693358 
L 342.20338 138.999359 
L 347.056302 140.212979 
L 360.640333 146.281397 
L 367.91453 150.903469 
L 371.07204 151.873002 
L 379.072097 165.9635 
L 386.107797 165.968047 
L 391.4429 165.962206 
L 402.844156 165.961561 
L 413.275864 166.208573 
L 419.336831 169.366124 
L 437.042739 165.479567 
L 452.565869 159.895762 
" clip-path="url(#p685622c130)" style="fill: #cccccc; fill-opacity: 0.65"/>
    <path d="M 265.890333 545.332757 
L 266.120869 545.51758 
L 267.565926 546.690604 
L 282.969153 560.379675 
L 283.632316 561.611721 
L 284.312635 559.937205 
L 285.170036 558.474836 
L 286.05008 558.440433 
L 286.802515 558.257013 
L 288.354954 557.926875 
L 288.777416 557.73779 
L 288.952976 557.70641 
L 290.129762 559.148359 
L 291.360575 560.743299 
L 292.169777 562.400961 
L 293.201423 562.845294 
L 296.127357 564.391607 
L 297.730016 564.330725 
L 302.132875 563.304765 
L 306.220114 560.641727 
L 309.373704 557.250343 
L 311.934558 553.247462 
L 313.473406 551.863005 
L 314.151849 549.04681 
L 314.934483 549.415898 
L 316.584332 549.261597 
L 315.427934 551.301429 
L 318.264381 552.831855 
L 319.125167 556.354464 
L 319.768122 558.680556 
L 319.068912 561.956235 
L 318.497705 563.666297 
L 317.671646 565.194462 
L 318.520729 566.431058 
L 316.931335 571.168921 
L 315.988751 577.012679 
L 313.904578 581.734364 
L 313.809487 581.90601 
L 314.157697 582.186855 
L 314.854531 582.576887 
L 315.47026 582.96258 
L 316.257408 583.385999 
L 316.828602 583.763493 
L 317.951779 584.898758 
L 320.575684 587.378756 
L 323.228601 589.92739 
L 324.275185 590.861281 
L 324.481354 591.01287 
L 324.618373 591.1324 
L 324.753189 591.356356 
L 324.851367 591.630104 
L 324.88401 592.348712 
L 325.086845 592.788453 
L 325.214918 593.207471 
L 325.301385 593.404024 
L 325.485958 593.602923 
L 325.867682 593.876828 
L 326.497045 594.198957 
L 326.939112 594.50456 
L 327.09178 594.930814 
L 328.140846 595.57581 
L 329.273824 596.740604 
L 329.432725 596.847424 
L 329.71257 597.029585 
L 330.467575 597.363876 
L 331.124033 597.736703 
L 332.047492 598.499197 
L 334.241763 600.607574 
L 334.335227 600.719274 
L 336.538707 602.642924 
L 338.387972 604.487812 
L 340.212787 606.341223 
L 342.103443 608.216099 
L 343.837742 609.960015 
L 343.942953 610.073423 
L 345.772854 611.973608 
L 346.442036 612.648962 
L 346.568328 612.899645 
L 347.641854 613.815162 
L 349.453291 615.657197 
L 327.589984 637.858904 
L 326.784693 636.514526 
L 326.023193 635.204552 
L 324.469992 632.557782 
L 323.270183 630.30997 
L 321.793244 627.610243 
L 320.337453 624.901448 
L 318.829553 622.212694 
L 317.303916 619.558723 
L 315.770736 616.866565 
L 314.24283 614.175932 
L 312.37174 610.871895 
L 310.513874 607.555769 
L 308.230135 603.532467 
L 306.536875 600.3816 
L 305.696477 598.819767 
L 300.96703 600.45988 
L 290.978479 598.590604 
L 284.659597 604.544432 
L 281.293831 608.196373 
L 276.077743 613.902128 
L 273.205047 616.703198 
L 268.359326 621.862884 
L 265.761108 624.803129 
L 263.87152 626.666728 
L 259.621184 630.913136 
L 256.180286 634.349909 
L 252.664267 637.862675 
L 249.195424 641.328186 
L 247.343974 643.177791 
L 246.440144 644.080477 
L 241.944782 648.579506 
L 235.909811 633.352687 
L 236.434603 632.903427 
L 236.366646 631.166138 
L 235.448464 621.091055 
L 233.471293 622.992092 
L 231.529977 625.393443 
L 229.586404 627.798197 
L 227.620935 630.230179 
L 225.103124 633.346248 
L 223.754176 635.0843 
L 223.048931 636.356074 
L 221.27979 638.211355 
L 219.420402 639.658586 
L 217.214066 641.637904 
L 214.952604 643.623267 
L 212.669245 645.738724 
L 210.391554 647.712746 
L 192.659464 627.558074 
L 192.498158 627.375627 
L 192.306345 626.921926 
L 191.047611 625.48682 
L 189.686157 623.854669 
L 189.39542 623.780114 
L 177.859167 610.54261 
L 161.422482 592.212294 
L 161.404663 592.017374 
L 161.656546 591.441403 
L 162.193351 590.768214 
L 162.920516 589.996062 
L 163.284061 589.701827 
L 163.487185 589.082392 
L 163.84396 588.551448 
L 164.08181 588.287868 
L 165.163456 587.304642 
L 166.419116 585.934961 
L 166.923524 585.518564 
L 167.398116 585.231156 
L 168.019543 584.903291 
L 168.592272 584.739175 
L 170.173035 584.252096 
L 170.718538 583.823993 
L 171.02365 583.618262 
L 171.512947 583.142155 
L 171.810789 582.769694 
L 172.127546 582.470976 
L 172.58511 582.180235 
L 173.098177 581.742155 
L 174.833456 580.068981 
L 177.094543 577.982463 
L 179.378191 575.984264 
L 181.591336 573.900949 
L 183.927126 571.903623 
L 186.197085 569.789505 
L 188.43791 567.662855 
L 190.727367 565.607452 
L 193.012948 563.595891 
L 195.294642 561.501087 
L 197.526012 559.367669 
L 199.758847 557.238187 
L 202.080818 555.30921 
L 202.915513 554.28818 
L 211.577025 562.257253 
L 211.864939 562.437736 
L 217.904671 557.785418 
L 218.686227 557.135596 
L 220.287833 555.803522 
L 222.508528 553.693979 
L 225.092019 552.030677 
L 227.203108 549.817318 
L 229.684096 548.058073 
L 232.083926 546.251381 
L 234.369033 544.126735 
L 236.700498 542.23256 
L 239.09986 540.240163 
L 241.488342 538.339809 
L 243.749804 536.33024 
L 246.064568 534.313584 
L 248.293993 532.204998 
L 265.786511 545.248029 
L 265.890333 545.332757 
" clip-path="url(#p685622c130)" style="fill: #fff2ae; fill-opacity: 0.65"/>
    <path d="M 451.248273 549.002405 
L 452.198755 549.641277 
L 452.290497 549.699898 
L 472.099412 559.845148 
L 481.593354 568.82893 
L 481.633697 569.195943 
L 490.232469 577.273516 
L 498.679521 585.109393 
L 498.930694 585.37635 
L 507.697361 593.451906 
L 512.177066 597.35635 
L 520.754375 617.654254 
L 520.873926 617.966607 
L 520.706377 622.249542 
L 520.619564 623.84941 
L 520.357344 631.552386 
L 518.675149 650.705922 
L 520.825611 650.816726 
L 523.476318 650.838291 
L 522.282157 658.973611 
L 519.947115 671.437388 
L 518.724228 681.7809 
L 518.432773 681.753291 
L 517.145734 680.913759 
L 517.296367 680.324207 
L 516.922236 680.112429 
L 516.504667 679.621197 
L 516.350636 679.230177 
L 516.803678 678.511279 
L 516.401223 677.452032 
L 515.371673 678.393668 
L 515.225946 678.513552 
L 514.541468 678.785831 
L 514.4754 677.995841 
L 513.849814 677.39872 
L 512.879917 677.996971 
L 512.93692 678.749904 
L 513.096999 679.531944 
L 512.136915 679.889691 
L 510.8631 679.423794 
L 509.587776 679.224119 
L 509.085274 678.651952 
L 508.83874 678.28929 
L 508.958032 677.897889 
L 508.290543 677.236101 
L 508.398527 676.409054 
L 508.337746 675.490113 
L 507.970778 674.780295 
L 507.697808 674.318564 
L 506.315262 673.802746 
L 505.075806 674.488739 
L 504.821334 674.657021 
L 504.862488 674.979971 
L 505.757145 684.350854 
L 506.643874 685.265531 
L 509.400266 688.136749 
L 512.402242 690.231142 
L 518.589363 694.25354 
L 518.776324 694.576866 
L 519.961047 696.807293 
L 520.033163 696.943433 
L 520.718768 698.313527 
L 516.021231 705.104977 
L 515.706466 705.457321 
L 515.091681 706.119138 
L 514.477225 706.753742 
L 513.362879 708.073402 
L 511.735271 711.331268 
L 510.434356 713.372376 
L 509.645483 714.667091 
L 509.964598 718.197891 
L 510.06347 721.869238 
L 509.003637 722.434508 
L 502.64218 725.096694 
L 501.128246 725.661291 
L 498.709734 726.694821 
L 495.649015 727.930287 
L 493.801782 728.689738 
L 492.187134 729.32421 
L 488.820466 730.509604 
L 485.319859 731.988477 
L 483.6191 732.840756 
L 481.696452 733.583502 
L 478.85191 734.711288 
L 478.528037 734.848648 
L 475.733758 735.970821 
L 472.903393 737.130293 
L 470.186632 738.222431 
L 470.029793 738.28611 
L 469.319861 738.72 
L 465.496598 735.440207 
L 462.46768 732.928816 
L 460.378568 731.201776 
L 464.770237 725.104077 
L 464.962354 724.774066 
L 469.882278 715.462081 
L 472.239656 708.149401 
L 473.715624 702.596634 
L 473.980825 700.440555 
L 474.327736 684.790972 
L 473.897678 683.13488 
L 473.870654 682.977783 
L 468.331987 671.008086 
L 460.657427 659.735463 
L 455.498453 662.547415 
L 448.164373 670.882935 
L 446.079948 673.145568 
L 442.522519 676.269586 
L 439.348448 679.41244 
L 435.065275 682.759031 
L 431.866715 685.700456 
L 427.094656 689.863799 
L 418.526801 692.195576 
L 414.823113 693.192028 
L 408.643806 694.825602 
L 385.749558 700.009974 
L 385.195988 697.456916 
L 385.06393 694.345873 
L 384.62298 691.423741 
L 385.068973 688.242152 
L 385.310854 685.177947 
L 385.355232 684.983926 
L 385.564647 682.104077 
L 385.822888 679.037859 
L 386.027717 675.908785 
L 386.625824 669.195936 
L 387.007144 665.138217 
L 386.156186 665.315292 
L 368.493091 673.233619 
L 367.1655 673.67425 
L 365.891669 670.950515 
L 363.882771 666.718122 
L 361.92492 662.904331 
L 359.727922 659.083561 
L 357.882926 656.012516 
L 356.150639 653.781629 
L 352.183988 648.046085 
L 365.853714 634.931204 
L 374.592891 625.581383 
L 375.228657 626.253381 
L 386.928397 614.179703 
L 388.987727 611.990716 
L 391.070979 609.72605 
L 393.31658 607.497529 
L 395.361708 605.189583 
L 397.524633 602.9985 
L 399.673586 600.795301 
L 403.972392 596.575092 
L 406.050112 594.364033 
L 408.15403 592.076596 
L 410.307317 589.854728 
L 412.503718 587.585645 
L 414.771343 585.450198 
L 416.88921 583.287601 
L 419.07421 581.081938 
L 421.212969 578.858699 
L 424.20459 575.906746 
L 425.802329 578.316415 
L 425.902389 578.248726 
L 427.203006 577.160359 
L 427.865969 577.336592 
L 427.836516 577.838415 
L 428.344686 578.415865 
L 429.146199 578.607603 
L 429.582633 579.80525 
L 430.34715 580.39973 
L 432.211825 581.520988 
L 432.570489 582.208492 
L 432.830235 582.560181 
L 433.037123 583.144451 
L 432.80418 583.935952 
L 433.000508 584.824262 
L 433.763503 585.338557 
L 434.549169 584.754668 
L 436.103878 585.151746 
L 436.986939 585.216412 
L 438.104086 585.282208 
L 438.519752 585.057578 
L 438.668497 584.102342 
L 438.989784 583.268488 
L 439.703334 583.067682 
L 439.935897 582.369967 
L 440.35912 580.290056 
L 441.944029 579.211913 
L 442.571504 577.803999 
L 442.618313 576.492527 
L 443.265047 575.936234 
L 444.293836 574.669388 
L 445.347932 573.767464 
L 446.295553 572.172359 
L 447.158228 571.223548 
L 449.062535 570.483099 
L 450.691616 569.772519 
L 451.423297 568.690592 
L 452.109283 567.238447 
L 451.849157 565.29202 
L 450.628199 563.445438 
L 449.701332 561.61929 
L 449.161073 560.881101 
L 449.415164 559.123391 
L 449.323422 557.745741 
L 449.134271 556.774604 
L 449.233936 555.840537 
L 449.040639 554.387248 
L 449.494443 552.419665 
L 449.717193 551.237893 
L 450.11852 549.846997 
L 451.248273 549.002405 
" clip-path="url(#p685622c130)" style="fill: #b3e2cd; fill-opacity: 0.65"/>
    <path d="M 399.333128 540.873555 
L 399.731781 551.989852 
L 399.639872 563.362792 
L 399.351324 563.364254 
L 411.665433 587.152288 
L 411.854207 587.562999 
L 412.008727 587.899185 
L 405.477446 594.856578 
L 402.23174 598.314039 
L 401.735881 598.842056 
L 387.206144 614.319199 
L 374.462018 578.618046 
L 371.440341 580.378908 
L 361.663367 559.928952 
L 386.183806 546.58038 
L 386.183768 546.580433 
L 399.333128 540.873555 
" clip-path="url(#p685622c130)" style="fill: #cbd5e8; fill-opacity: 0.65"/>
   </g>
   <g id="PatchCollection_2">
    <path d="M 349.318319 615.878794 
L 314.776923 581.527287 
L 315.417157 580.919056 
L 316.255623 580.412062 
L 316.307225 579.485362 
L 317.470773 577.509734 
L 316.73405 575.91659 
L 319.020569 573.639711 
L 318.692922 572.498399 
L 318.296103 569.311945 
L 318.799243 569.256716 
L 319.974619 568.173158 
L 320.029097 567.70135 
L 319.246779 566.31083 
L 318.590439 564.533701 
L 319.565199 561.444708 
L 320.312425 559.42361 
L 319.516212 557.607482 
L 319.40006 556.037413 
L 319.045007 555.344319 
L 319.190949 554.630738 
L 318.841996 553.167254 
L 318.029993 550.937086 
L 316.998001 550.427206 
L 316.264891 547.975461 
L 315.578176 547.511875 
L 314.016346 547.586932 
L 313.787229 546.538392 
L 312.411563 542.344576 
L 312.055451 540.92653 
L 312.032695 539.242406 
L 311.801309 538.408845 
L 311.043832 537.695507 
L 310.670449 536.974998 
L 305.784785 533.877599 
L 305.651857 533.071941 
L 305.304486 532.597262 
L 305.461281 531.793645 
L 305.817183 530.991853 
L 305.955741 530.386915 
L 308.182389 524.628714 
L 308.402047 522.235685 
L 308.540908 519.054654 
L 307.11339 515.973586 
L 307.292282 514.024721 
L 309.14466 512.477235 
L 309.368273 510.041155 
L 311.707023 507.187633 
L 310.647123 493.198588 
L 306.396981 488.105621 
L 306.768513 484.058376 
L 307.87277 477.57109 
L 308.507667 476.159123 
L 308.977458 474.188128 
L 308.719397 473.434221 
L 309.133356 471.125586 
L 309.55761 470.040959 
L 309.941722 468.513422 
L 309.451243 467.877746 
L 309.38018 467.393907 
L 309.585079 465.422541 
L 309.479423 464.498281 
L 309.636377 463.835092 
L 309.362243 461.865425 
L 309.776618 460.911334 
L 311.597979 458.854549 
L 312.222866 458.792566 
L 312.982495 457.517566 
L 313.101214 457.080857 
L 314.815567 456.254849 
L 315.419752 455.84028 
L 316.498652 455.546031 
L 317.579088 455.519139 
L 318.748876 454.005121 
L 319.386095 453.969619 
L 320.321284 453.560386 
L 322.062921 453.106358 
L 323.07743 453.477128 
L 323.807178 454.915425 
L 324.407385 455.126792 
L 325.274927 454.81471 
L 326.677407 455.801704 
L 327.687897 457.025059 
L 328.858574 456.90642 
L 329.573207 457.057329 
L 331.712507 458.565378 
L 332.175506 458.690303 
L 333.475791 459.473013 
L 334.442147 460.811997 
L 335.539352 461.014523 
L 337.590194 462.281957 
L 338.445836 462.578998 
L 338.603314 463.52656 
L 338.576987 464.868863 
L 338.964581 466.370772 
L 341.225688 468.48736 
L 342.419427 468.990572 
L 343.756724 469.137879 
L 345.103264 468.798721 
L 345.793075 467.737892 
L 346.247695 467.641073 
L 347.070609 467.628687 
L 347.919034 467.901068 
L 349.053876 467.675123 
L 349.308787 467.901966 
L 349.948835 467.771619 
L 351.348295 468.736743 
L 352.236283 469.514512 
L 352.181878 470.114358 
L 352.912886 470.181559 
L 353.166085 471.836154 
L 356.430226 473.954988 
L 357.250928 476.60198 
L 361.174069 481.179094 
L 362.163886 484.745533 
L 364.299233 486.894477 
L 365.543854 489.315394 
L 366.496656 493.01549 
L 368.470613 494.007557 
L 370.101204 495.423669 
L 371.459523 498.682271 
L 374.446287 500.545267 
L 375.685317 501.85645 
L 375.698883 502.721399 
L 376.567693 503.924612 
L 377.769909 504.154543 
L 379.320409 503.80379 
L 379.836562 503.968444 
L 380.624449 504.541635 
L 380.682892 505.30585 
L 382.116794 505.716825 
L 382.338098 506.275166 
L 382.615041 508.616221 
L 382.777093 509.107415 
L 381.586371 510.597045 
L 381.611286 512.060267 
L 381.151383 513.326105 
L 380.565701 514.140931 
L 381.207297 515.387554 
L 380.632571 516.402588 
L 380.65195 518.139559 
L 380.090593 518.444954 
L 381.692337 519.88899 
L 382.009545 524.247518 
L 382.74309 524.591158 
L 383.361926 525.444084 
L 387.653564 524.022119 
L 388.551341 525.448015 
L 388.956336 526.93264 
L 390.422487 527.207895 
L 391.01514 528.21085 
L 392.415873 529.301963 
L 392.639976 531.245357 
L 393.716752 532.558006 
L 395.40441 536.604606 
L 395.909833 537.422906 
L 396.525737 537.451695 
L 396.737306 538.752929 
L 397.384913 539.404038 
L 397.349573 540.17031 
L 399.173654 542.924446 
L 399.354168 543.964572 
L 403.473567 552.182521 
L 405.34226 555.109395 
L 408.64493 557.716118 
L 410.293673 558.600605 
L 412.611245 560.924941 
L 413.94372 561.145008 
L 417.033817 562.335578 
L 418.153717 563.220715 
L 420.300192 567.601604 
L 422.757752 569.002503 
L 425.878408 573.808522 
L 410.869906 588.157882 
L 383.917004 616.335607 
L 367.194778 633.655685 
L 349.318319 615.878794 
L 349.318319 615.878794 
" clip-path="url(#p685622c130)" style="fill: none; stroke: #000000; stroke-width: 2"/>
   </g>
   <g id="matplotlib.axis_1">
    <g id="xtick_1">
     <g id="line2d_1">
      <path d="M 178.507212 768.96 
L 178.507212 103.68 
" clip-path="url(#p685622c130)" style="fill: none; stroke: #b0b0b0; stroke-width: 0.8; stroke-linecap: square"/>
     </g>
     <g id="line2d_2">
      <defs>
       <path id="m238eff8f24" d="M 0 0 
L 0 3.5 
" style="stroke: #000000; stroke-width: 0.8"/>
      </defs>
      <g>
       <use xlink:href="#m238eff8f24" x="178.507212" y="768.96" style="stroke: #000000; stroke-width: 0.8"/>
      </g>
     </g>
     <g id="text_1">
      <!-- −49.95 -->
      <g transform="translate(167.374147 807.501382) rotate(-45) scale(0.1 -0.1)">
       <defs>
        <path id="DejaVuSans-2212" d="M 678 2272 
L 4684 2272 
L 4684 1741 
L 678 1741 
L 678 2272 
z
" transform="scale(0.015625)"/>
        <path id="DejaVuSans-34" d="M 2419 4116 
L 825 1625 
L 2419 1625 
L 2419 4116 
z
M 2253 4666 
L 3047 4666 
L 3047 1625 
L 3713 1625 
L 3713 1100 
L 3047 1100 
L 3047 0 
L 2419 0 
L 2419 1100 
L 313 1100 
L 313 1709 
L 2253 4666 
z
" transform="scale(0.015625)"/>
        <path id="DejaVuSans-39" d="M 703 97 
L 703 672 
Q 941 559 1184 500 
Q 1428 441 1663 441 
Q 2288 441 2617 861 
Q 2947 1281 2994 2138 
Q 2813 1869 2534 1725 
Q 2256 1581 1919 1581 
Q 1219 1581 811 2004 
Q 403 2428 403 3163 
Q 403 3881 828 4315 
Q 1253 4750 1959 4750 
Q 2769 4750 3195 4129 
Q 3622 3509 3622 2328 
Q 3622 1225 3098 567 
Q 2575 -91 1691 -91 
Q 1453 -91 1209 -44 
Q 966 3 703 97 
z
M 1959 2075 
Q 2384 2075 2632 2365 
Q 2881 2656 2881 3163 
Q 2881 3666 2632 3958 
Q 2384 4250 1959 4250 
Q 1534 4250 1286 3958 
Q 1038 3666 1038 3163 
Q 1038 2656 1286 2365 
Q 1534 2075 1959 2075 
z
" transform="scale(0.015625)"/>
        <path id="DejaVuSans-2e" d="M 684 794 
L 1344 794 
L 1344 0 
L 684 0 
L 684 794 
z
" transform="scale(0.015625)"/>
        <path id="DejaVuSans-35" d="M 691 4666 
L 3169 4666 
L 3169 4134 
L 1269 4134 
L 1269 2991 
Q 1406 3038 1543 3061 
Q 1681 3084 1819 3084 
Q 2600 3084 3056 2656 
Q 3513 2228 3513 1497 
Q 3513 744 3044 326 
Q 2575 -91 1722 -91 
Q 1428 -91 1123 -41 
Q 819 9 494 109 
L 494 744 
Q 775 591 1075 516 
Q 1375 441 1709 441 
Q 2250 441 2565 725 
Q 2881 1009 2881 1497 
Q 2881 1984 2565 2268 
Q 2250 2553 1709 2553 
Q 1456 2553 1204 2497 
Q 953 2441 691 2322 
L 691 4666 
z
" transform="scale(0.015625)"/>
       </defs>
       <use xlink:href="#DejaVuSans-2212"/>
       <use xlink:href="#DejaVuSans-34" transform="translate(83.789062 0)"/>
       <use xlink:href="#DejaVuSans-39" transform="translate(147.412109 0)"/>
       <use xlink:href="#DejaVuSans-2e" transform="translate(211.035156 0)"/>
       <use xlink:href="#DejaVuSans-39" transform="translate(242.822266 0)"/>
       <use xlink:href="#DejaVuSans-35" transform="translate(306.445312 0)"/>
      </g>
     </g>
    </g>
    <g id="xtick_2">
     <g id="line2d_3">
      <path d="M 246.46431 768.96 
L 246.46431 103.68 
" clip-path="url(#p685622c130)" style="fill: none; stroke: #b0b0b0; stroke-width: 0.8; stroke-linecap: square"/>
     </g>
     <g id="line2d_4">
      <g>
       <use xlink:href="#m238eff8f24" x="246.46431" y="768.96" style="stroke: #000000; stroke-width: 0.8"/>
      </g>
     </g>
     <g id="text_2">
      <!-- −49.90 -->
      <g transform="translate(235.331245 807.501382) rotate(-45) scale(0.1 -0.1)">
       <defs>
        <path id="DejaVuSans-30" d="M 2034 4250 
Q 1547 4250 1301 3770 
Q 1056 3291 1056 2328 
Q 1056 1369 1301 889 
Q 1547 409 2034 409 
Q 2525 409 2770 889 
Q 3016 1369 3016 2328 
Q 3016 3291 2770 3770 
Q 2525 4250 2034 4250 
z
M 2034 4750 
Q 2819 4750 3233 4129 
Q 3647 3509 3647 2328 
Q 3647 1150 3233 529 
Q 2819 -91 2034 -91 
Q 1250 -91 836 529 
Q 422 1150 422 2328 
Q 422 3509 836 4129 
Q 1250 4750 2034 4750 
z
" transform="scale(0.015625)"/>
       </defs>
       <use xlink:href="#DejaVuSans-2212"/>
       <use xlink:href="#DejaVuSans-34" transform="translate(83.789062 0)"/>
       <use xlink:href="#DejaVuSans-39" transform="translate(147.412109 0)"/>
       <use xlink:href="#DejaVuSans-2e" transform="translate(211.035156 0)"/>
       <use xlink:href="#DejaVuSans-39" transform="translate(242.822266 0)"/>
       <use xlink:href="#DejaVuSans-30" transform="translate(306.445312 0)"/>
      </g>
     </g>
    </g>
    <g id="xtick_3">
     <g id="line2d_5">
      <path d="M 314.421407 768.96 
L 314.421407 103.68 
" clip-path="url(#p685622c130)" style="fill: none; stroke: #b0b0b0; stroke-width: 0.8; stroke-linecap: square"/>
     </g>
     <g id="line2d_6">
      <g>
       <use xlink:href="#m238eff8f24" x="314.421407" y="768.96" style="stroke: #000000; stroke-width: 0.8"/>
      </g>
     </g>
     <g id="text_3">
      <!-- −49.85 -->
      <g transform="translate(303.288343 807.501382) rotate(-45) scale(0.1 -0.1)">
       <defs>
        <path id="DejaVuSans-38" d="M 2034 2216 
Q 1584 2216 1326 1975 
Q 1069 1734 1069 1313 
Q 1069 891 1326 650 
Q 1584 409 2034 409 
Q 2484 409 2743 651 
Q 3003 894 3003 1313 
Q 3003 1734 2745 1975 
Q 2488 2216 2034 2216 
z
M 1403 2484 
Q 997 2584 770 2862 
Q 544 3141 544 3541 
Q 544 4100 942 4425 
Q 1341 4750 2034 4750 
Q 2731 4750 3128 4425 
Q 3525 4100 3525 3541 
Q 3525 3141 3298 2862 
Q 3072 2584 2669 2484 
Q 3125 2378 3379 2068 
Q 3634 1759 3634 1313 
Q 3634 634 3220 271 
Q 2806 -91 2034 -91 
Q 1263 -91 848 271 
Q 434 634 434 1313 
Q 434 1759 690 2068 
Q 947 2378 1403 2484 
z
M 1172 3481 
Q 1172 3119 1398 2916 
Q 1625 2713 2034 2713 
Q 2441 2713 2670 2916 
Q 2900 3119 2900 3481 
Q 2900 3844 2670 4047 
Q 2441 4250 2034 4250 
Q 1625 4250 1398 4047 
Q 1172 3844 1172 3481 
z
" transform="scale(0.015625)"/>
       </defs>
       <use xlink:href="#DejaVuSans-2212"/>
       <use xlink:href="#DejaVuSans-34" transform="translate(83.789062 0)"/>
       <use xlink:href="#DejaVuSans-39" transform="translate(147.412109 0)"/>
       <use xlink:href="#DejaVuSans-2e" transform="translate(211.035156 0)"/>
       <use xlink:href="#DejaVuSans-38" transform="translate(242.822266 0)"/>
       <use xlink:href="#DejaVuSans-35" transform="translate(306.445312 0)"/>
      </g>
     </g>
    </g>
    <g id="xtick_4">
     <g id="line2d_7">
      <path d="M 382.378505 768.96 
L 382.378505 103.68 
" clip-path="url(#p685622c130)" style="fill: none; stroke: #b0b0b0; stroke-width: 0.8; stroke-linecap: square"/>
     </g>
     <g id="line2d_8">
      <g>
       <use xlink:href="#m238eff8f24" x="382.378505" y="768.96" style="stroke: #000000; stroke-width: 0.8"/>
      </g>
     </g>
     <g id="text_4">
      <!-- −49.80 -->
      <g transform="translate(371.24544 807.501382) rotate(-45) scale(0.1 -0.1)">
       <use xlink:href="#DejaVuSans-2212"/>
       <use xlink:href="#DejaVuSans-34" transform="translate(83.789062 0)"/>
       <use xlink:href="#DejaVuSans-39" transform="translate(147.412109 0)"/>
       <use xlink:href="#DejaVuSans-2e" transform="translate(211.035156 0)"/>
       <use xlink:href="#DejaVuSans-38" transform="translate(242.822266 0)"/>
       <use xlink:href="#DejaVuSans-30" transform="translate(306.445312 0)"/>
      </g>
     </g>
    </g>
    <g id="xtick_5">
     <g id="line2d_9">
      <path d="M 450.335602 768.96 
L 450.335602 103.68 
" clip-path="url(#p685622c130)" style="fill: none; stroke: #b0b0b0; stroke-width: 0.8; stroke-linecap: square"/>
     </g>
     <g id="line2d_10">
      <g>
       <use xlink:href="#m238eff8f24" x="450.335602" y="768.96" style="stroke: #000000; stroke-width: 0.8"/>
      </g>
     </g>
     <g id="text_5">
      <!-- −49.75 -->
      <g transform="translate(439.202538 807.501382) rotate(-45) scale(0.1 -0.1)">
       <defs>
        <path id="DejaVuSans-37" d="M 525 4666 
L 3525 4666 
L 3525 4397 
L 1831 0 
L 1172 0 
L 2766 4134 
L 525 4134 
L 525 4666 
z
" transform="scale(0.015625)"/>
       </defs>
       <use xlink:href="#DejaVuSans-2212"/>
       <use xlink:href="#DejaVuSans-34" transform="translate(83.789062 0)"/>
       <use xlink:href="#DejaVuSans-39" transform="translate(147.412109 0)"/>
       <use xlink:href="#DejaVuSans-2e" transform="translate(211.035156 0)"/>
       <use xlink:href="#DejaVuSans-37" transform="translate(242.822266 0)"/>
       <use xlink:href="#DejaVuSans-35" transform="translate(306.445312 0)"/>
      </g>
     </g>
    </g>
    <g id="xtick_6">
     <g id="line2d_11">
      <path d="M 518.2927 768.96 
L 518.2927 103.68 
" clip-path="url(#p685622c130)" style="fill: none; stroke: #b0b0b0; stroke-width: 0.8; stroke-linecap: square"/>
     </g>
     <g id="line2d_12">
      <g>
       <use xlink:href="#m238eff8f24" x="518.2927" y="768.96" style="stroke: #000000; stroke-width: 0.8"/>
      </g>
     </g>
     <g id="text_6">
      <!-- −49.70 -->
      <g transform="translate(507.159635 807.501382) rotate(-45) scale(0.1 -0.1)">
       <use xlink:href="#DejaVuSans-2212"/>
       <use xlink:href="#DejaVuSans-34" transform="translate(83.789062 0)"/>
       <use xlink:href="#DejaVuSans-39" transform="translate(147.412109 0)"/>
       <use xlink:href="#DejaVuSans-2e" transform="translate(211.035156 0)"/>
       <use xlink:href="#DejaVuSans-37" transform="translate(242.822266 0)"/>
       <use xlink:href="#DejaVuSans-30" transform="translate(306.445312 0)"/>
      </g>
     </g>
    </g>
    <g id="xtick_7">
     <g id="line2d_13">
      <path d="M 586.249798 768.96 
L 586.249798 103.68 
" clip-path="url(#p685622c130)" style="fill: none; stroke: #b0b0b0; stroke-width: 0.8; stroke-linecap: square"/>
     </g>
     <g id="line2d_14">
      <g>
       <use xlink:href="#m238eff8f24" x="586.249798" y="768.96" style="stroke: #000000; stroke-width: 0.8"/>
      </g>
     </g>
     <g id="text_7">
      <!-- −49.65 -->
      <g transform="translate(575.116733 807.501382) rotate(-45) scale(0.1 -0.1)">
       <defs>
        <path id="DejaVuSans-36" d="M 2113 2584 
Q 1688 2584 1439 2293 
Q 1191 2003 1191 1497 
Q 1191 994 1439 701 
Q 1688 409 2113 409 
Q 2538 409 2786 701 
Q 3034 994 3034 1497 
Q 3034 2003 2786 2293 
Q 2538 2584 2113 2584 
z
M 3366 4563 
L 3366 3988 
Q 3128 4100 2886 4159 
Q 2644 4219 2406 4219 
Q 1781 4219 1451 3797 
Q 1122 3375 1075 2522 
Q 1259 2794 1537 2939 
Q 1816 3084 2150 3084 
Q 2853 3084 3261 2657 
Q 3669 2231 3669 1497 
Q 3669 778 3244 343 
Q 2819 -91 2113 -91 
Q 1303 -91 875 529 
Q 447 1150 447 2328 
Q 447 3434 972 4092 
Q 1497 4750 2381 4750 
Q 2619 4750 2861 4703 
Q 3103 4656 3366 4563 
z
" transform="scale(0.015625)"/>
       </defs>
       <use xlink:href="#DejaVuSans-2212"/>
       <use xlink:href="#DejaVuSans-34" transform="translate(83.789062 0)"/>
       <use xlink:href="#DejaVuSans-39" transform="translate(147.412109 0)"/>
       <use xlink:href="#DejaVuSans-2e" transform="translate(211.035156 0)"/>
       <use xlink:href="#DejaVuSans-36" transform="translate(242.822266 0)"/>
       <use xlink:href="#DejaVuSans-35" transform="translate(306.445312 0)"/>
      </g>
     </g>
    </g>
    <g id="text_8">
     <!-- Longitude (°) -->
     <g transform="translate(336.139844 820.57038) scale(0.1 -0.1)">
      <defs>
       <path id="DejaVuSans-4c" d="M 628 4666 
L 1259 4666 
L 1259 531 
L 3531 531 
L 3531 0 
L 628 0 
L 628 4666 
z
" transform="scale(0.015625)"/>
       <path id="DejaVuSans-6f" d="M 1959 3097 
Q 1497 3097 1228 2736 
Q 959 2375 959 1747 
Q 959 1119 1226 758 
Q 1494 397 1959 397 
Q 2419 397 2687 759 
Q 2956 1122 2956 1747 
Q 2956 2369 2687 2733 
Q 2419 3097 1959 3097 
z
M 1959 3584 
Q 2709 3584 3137 3096 
Q 3566 2609 3566 1747 
Q 3566 888 3137 398 
Q 2709 -91 1959 -91 
Q 1206 -91 779 398 
Q 353 888 353 1747 
Q 353 2609 779 3096 
Q 1206 3584 1959 3584 
z
" transform="scale(0.015625)"/>
       <path id="DejaVuSans-6e" d="M 3513 2113 
L 3513 0 
L 2938 0 
L 2938 2094 
Q 2938 2591 2744 2837 
Q 2550 3084 2163 3084 
Q 1697 3084 1428 2787 
Q 1159 2491 1159 1978 
L 1159 0 
L 581 0 
L 581 3500 
L 1159 3500 
L 1159 2956 
Q 1366 3272 1645 3428 
Q 1925 3584 2291 3584 
Q 2894 3584 3203 3211 
Q 3513 2838 3513 2113 
z
" transform="scale(0.015625)"/>
       <path id="DejaVuSans-67" d="M 2906 1791 
Q 2906 2416 2648 2759 
Q 2391 3103 1925 3103 
Q 1463 3103 1205 2759 
Q 947 2416 947 1791 
Q 947 1169 1205 825 
Q 1463 481 1925 481 
Q 2391 481 2648 825 
Q 2906 1169 2906 1791 
z
M 3481 434 
Q 3481 -459 3084 -895 
Q 2688 -1331 1869 -1331 
Q 1566 -1331 1297 -1286 
Q 1028 -1241 775 -1147 
L 775 -588 
Q 1028 -725 1275 -790 
Q 1522 -856 1778 -856 
Q 2344 -856 2625 -561 
Q 2906 -266 2906 331 
L 2906 616 
Q 2728 306 2450 153 
Q 2172 0 1784 0 
Q 1141 0 747 490 
Q 353 981 353 1791 
Q 353 2603 747 3093 
Q 1141 3584 1784 3584 
Q 2172 3584 2450 3431 
Q 2728 3278 2906 2969 
L 2906 3500 
L 3481 3500 
L 3481 434 
z
" transform="scale(0.015625)"/>
       <path id="DejaVuSans-69" d="M 603 3500 
L 1178 3500 
L 1178 0 
L 603 0 
L 603 3500 
z
M 603 4863 
L 1178 4863 
L 1178 4134 
L 603 4134 
L 603 4863 
z
" transform="scale(0.015625)"/>
       <path id="DejaVuSans-74" d="M 1172 4494 
L 1172 3500 
L 2356 3500 
L 2356 3053 
L 1172 3053 
L 1172 1153 
Q 1172 725 1289 603 
Q 1406 481 1766 481 
L 2356 481 
L 2356 0 
L 1766 0 
Q 1100 0 847 248 
Q 594 497 594 1153 
L 594 3053 
L 172 3053 
L 172 3500 
L 594 3500 
L 594 4494 
L 1172 4494 
z
" transform="scale(0.015625)"/>
       <path id="DejaVuSans-75" d="M 544 1381 
L 544 3500 
L 1119 3500 
L 1119 1403 
Q 1119 906 1312 657 
Q 1506 409 1894 409 
Q 2359 409 2629 706 
Q 2900 1003 2900 1516 
L 2900 3500 
L 3475 3500 
L 3475 0 
L 2900 0 
L 2900 538 
Q 2691 219 2414 64 
Q 2138 -91 1772 -91 
Q 1169 -91 856 284 
Q 544 659 544 1381 
z
M 1991 3584 
L 1991 3584 
z
" transform="scale(0.015625)"/>
       <path id="DejaVuSans-64" d="M 2906 2969 
L 2906 4863 
L 3481 4863 
L 3481 0 
L 2906 0 
L 2906 525 
Q 2725 213 2448 61 
Q 2172 -91 1784 -91 
Q 1150 -91 751 415 
Q 353 922 353 1747 
Q 353 2572 751 3078 
Q 1150 3584 1784 3584 
Q 2172 3584 2448 3432 
Q 2725 3281 2906 2969 
z
M 947 1747 
Q 947 1113 1208 752 
Q 1469 391 1925 391 
Q 2381 391 2643 752 
Q 2906 1113 2906 1747 
Q 2906 2381 2643 2742 
Q 2381 3103 1925 3103 
Q 1469 3103 1208 2742 
Q 947 2381 947 1747 
z
" transform="scale(0.015625)"/>
       <path id="DejaVuSans-65" d="M 3597 1894 
L 3597 1613 
L 953 1613 
Q 991 1019 1311 708 
Q 1631 397 2203 397 
Q 2534 397 2845 478 
Q 3156 559 3463 722 
L 3463 178 
Q 3153 47 2828 -22 
Q 2503 -91 2169 -91 
Q 1331 -91 842 396 
Q 353 884 353 1716 
Q 353 2575 817 3079 
Q 1281 3584 2069 3584 
Q 2775 3584 3186 3129 
Q 3597 2675 3597 1894 
z
M 3022 2063 
Q 3016 2534 2758 2815 
Q 2500 3097 2075 3097 
Q 1594 3097 1305 2825 
Q 1016 2553 972 2059 
L 3022 2063 
z
" transform="scale(0.015625)"/>
       <path id="DejaVuSans-20" transform="scale(0.015625)"/>
       <path id="DejaVuSans-28" d="M 1984 4856 
Q 1566 4138 1362 3434 
Q 1159 2731 1159 2009 
Q 1159 1288 1364 580 
Q 1569 -128 1984 -844 
L 1484 -844 
Q 1016 -109 783 600 
Q 550 1309 550 2009 
Q 550 2706 781 3412 
Q 1013 4119 1484 4856 
L 1984 4856 
z
" transform="scale(0.015625)"/>
       <path id="DejaVuSans-b0" d="M 1600 4347 
Q 1350 4347 1178 4173 
Q 1006 4000 1006 3750 
Q 1006 3503 1178 3333 
Q 1350 3163 1600 3163 
Q 1850 3163 2022 3333 
Q 2194 3503 2194 3750 
Q 2194 3997 2020 4172 
Q 1847 4347 1600 4347 
z
M 1600 4750 
Q 1800 4750 1984 4673 
Q 2169 4597 2303 4453 
Q 2447 4313 2519 4134 
Q 2591 3956 2591 3750 
Q 2591 3338 2302 3052 
Q 2013 2766 1594 2766 
Q 1172 2766 890 3047 
Q 609 3328 609 3750 
Q 609 4169 896 4459 
Q 1184 4750 1600 4750 
z
" transform="scale(0.015625)"/>
       <path id="DejaVuSans-29" d="M 513 4856 
L 1013 4856 
Q 1481 4119 1714 3412 
Q 1947 2706 1947 2009 
Q 1947 1309 1714 600 
Q 1481 -109 1013 -844 
L 513 -844 
Q 928 -128 1133 580 
Q 1338 1288 1338 2009 
Q 1338 2731 1133 3434 
Q 928 4138 513 4856 
z
" transform="scale(0.015625)"/>
      </defs>
      <use xlink:href="#DejaVuSans-4c"/>
      <use xlink:href="#DejaVuSans-6f" transform="translate(53.962891 0)"/>
      <use xlink:href="#DejaVuSans-6e" transform="translate(115.144531 0)"/>
      <use xlink:href="#DejaVuSans-67" transform="translate(178.523438 0)"/>
      <use xlink:href="#DejaVuSans-69" transform="translate(242 0)"/>
      <use xlink:href="#DejaVuSans-74" transform="translate(269.783203 0)"/>
      <use xlink:href="#DejaVuSans-75" transform="translate(308.992188 0)"/>
      <use xlink:href="#DejaVuSans-64" transform="translate(372.371094 0)"/>
      <use xlink:href="#DejaVuSans-65" transform="translate(435.847656 0)"/>
      <use xlink:href="#DejaVuSans-20" transform="translate(497.371094 0)"/>
      <use xlink:href="#DejaVuSans-28" transform="translate(529.158203 0)"/>
      <use xlink:href="#DejaVuSans-b0" transform="translate(568.171875 0)"/>
      <use xlink:href="#DejaVuSans-29" transform="translate(618.171875 0)"/>
     </g>
    </g>
   </g>
   <g id="matplotlib.axis_2">
    <g id="ytick_1">
     <g id="line2d_15">
      <path d="M 140.645129 684.208716 
L 597.354871 684.208716 
" clip-path="url(#p685622c130)" style="fill: none; stroke: #b0b0b0; stroke-width: 0.8; stroke-linecap: square"/>
     </g>
     <g id="line2d_16">
      <defs>
       <path id="m10bd1302c8" d="M 0 0 
L -3.5 0 
" style="stroke: #000000; stroke-width: 0.8"/>
      </defs>
      <g>
       <use xlink:href="#m10bd1302c8" x="140.645129" y="684.208716" style="stroke: #000000; stroke-width: 0.8"/>
      </g>
     </g>
     <g id="text_9">
      <!-- −3.4 -->
      <g transform="translate(109.362316 688.007934) scale(0.1 -0.1)">
       <defs>
        <path id="DejaVuSans-33" d="M 2597 2516 
Q 3050 2419 3304 2112 
Q 3559 1806 3559 1356 
Q 3559 666 3084 287 
Q 2609 -91 1734 -91 
Q 1441 -91 1130 -33 
Q 819 25 488 141 
L 488 750 
Q 750 597 1062 519 
Q 1375 441 1716 441 
Q 2309 441 2620 675 
Q 2931 909 2931 1356 
Q 2931 1769 2642 2001 
Q 2353 2234 1838 2234 
L 1294 2234 
L 1294 2753 
L 1863 2753 
Q 2328 2753 2575 2939 
Q 2822 3125 2822 3475 
Q 2822 3834 2567 4026 
Q 2313 4219 1838 4219 
Q 1578 4219 1281 4162 
Q 984 4106 628 3988 
L 628 4550 
Q 988 4650 1302 4700 
Q 1616 4750 1894 4750 
Q 2613 4750 3031 4423 
Q 3450 4097 3450 3541 
Q 3450 3153 3228 2886 
Q 3006 2619 2597 2516 
z
" transform="scale(0.015625)"/>
       </defs>
       <use xlink:href="#DejaVuSans-2212"/>
       <use xlink:href="#DejaVuSans-33" transform="translate(83.789062 0)"/>
       <use xlink:href="#DejaVuSans-2e" transform="translate(147.412109 0)"/>
       <use xlink:href="#DejaVuSans-34" transform="translate(179.199219 0)"/>
      </g>
     </g>
    </g>
    <g id="ytick_2">
     <g id="line2d_17">
      <path d="M 140.645129 548.069247 
L 597.354871 548.069247 
" clip-path="url(#p685622c130)" style="fill: none; stroke: #b0b0b0; stroke-width: 0.8; stroke-linecap: square"/>
     </g>
     <g id="line2d_18">
      <g>
       <use xlink:href="#m10bd1302c8" x="140.645129" y="548.069247" style="stroke: #000000; stroke-width: 0.8"/>
      </g>
     </g>
     <g id="text_10">
      <!-- −3.3 -->
      <g transform="translate(109.362316 551.868466) scale(0.1 -0.1)">
       <use xlink:href="#DejaVuSans-2212"/>
       <use xlink:href="#DejaVuSans-33" transform="translate(83.789062 0)"/>
       <use xlink:href="#DejaVuSans-2e" transform="translate(147.412109 0)"/>
       <use xlink:href="#DejaVuSans-33" transform="translate(179.199219 0)"/>
      </g>
     </g>
    </g>
    <g id="ytick_3">
     <g id="line2d_19">
      <path d="M 140.645129 411.929779 
L 597.354871 411.929779 
" clip-path="url(#p685622c130)" style="fill: none; stroke: #b0b0b0; stroke-width: 0.8; stroke-linecap: square"/>
     </g>
     <g id="line2d_20">
      <g>
       <use xlink:href="#m10bd1302c8" x="140.645129" y="411.929779" style="stroke: #000000; stroke-width: 0.8"/>
      </g>
     </g>
     <g id="text_11">
      <!-- −3.2 -->
      <g transform="translate(109.362316 415.728997) scale(0.1 -0.1)">
       <defs>
        <path id="DejaVuSans-32" d="M 1228 531 
L 3431 531 
L 3431 0 
L 469 0 
L 469 531 
Q 828 903 1448 1529 
Q 2069 2156 2228 2338 
Q 2531 2678 2651 2914 
Q 2772 3150 2772 3378 
Q 2772 3750 2511 3984 
Q 2250 4219 1831 4219 
Q 1534 4219 1204 4116 
Q 875 4013 500 3803 
L 500 4441 
Q 881 4594 1212 4672 
Q 1544 4750 1819 4750 
Q 2544 4750 2975 4387 
Q 3406 4025 3406 3419 
Q 3406 3131 3298 2873 
Q 3191 2616 2906 2266 
Q 2828 2175 2409 1742 
Q 1991 1309 1228 531 
z
" transform="scale(0.015625)"/>
       </defs>
       <use xlink:href="#DejaVuSans-2212"/>
       <use xlink:href="#DejaVuSans-33" transform="translate(83.789062 0)"/>
       <use xlink:href="#DejaVuSans-2e" transform="translate(147.412109 0)"/>
       <use xlink:href="#DejaVuSans-32" transform="translate(179.199219 0)"/>
      </g>
     </g>
    </g>
    <g id="ytick_4">
     <g id="line2d_21">
      <path d="M 140.645129 275.79031 
L 597.354871 275.79031 
" clip-path="url(#p685622c130)" style="fill: none; stroke: #b0b0b0; stroke-width: 0.8; stroke-linecap: square"/>
     </g>
     <g id="line2d_22">
      <g>
       <use xlink:href="#m10bd1302c8" x="140.645129" y="275.79031" style="stroke: #000000; stroke-width: 0.8"/>
      </g>
     </g>
     <g id="text_12">
      <!-- −3.1 -->
      <g transform="translate(109.362316 279.589529) scale(0.1 -0.1)">
       <defs>
        <path id="DejaVuSans-31" d="M 794 531 
L 1825 531 
L 1825 4091 
L 703 3866 
L 703 4441 
L 1819 4666 
L 2450 4666 
L 2450 531 
L 3481 531 
L 3481 0 
L 794 0 
L 794 531 
z
" transform="scale(0.015625)"/>
       </defs>
       <use xlink:href="#DejaVuSans-2212"/>
       <use xlink:href="#DejaVuSans-33" transform="translate(83.789062 0)"/>
       <use xlink:href="#DejaVuSans-2e" transform="translate(147.412109 0)"/>
       <use xlink:href="#DejaVuSans-31" transform="translate(179.199219 0)"/>
      </g>
     </g>
    </g>
    <g id="ytick_5">
     <g id="line2d_23">
      <path d="M 140.645129 139.650842 
L 597.354871 139.650842 
" clip-path="url(#p685622c130)" style="fill: none; stroke: #b0b0b0; stroke-width: 0.8; stroke-linecap: square"/>
     </g>
     <g id="line2d_24">
      <g>
       <use xlink:href="#m10bd1302c8" x="140.645129" y="139.650842" style="stroke: #000000; stroke-width: 0.8"/>
      </g>
     </g>
     <g id="text_13">
      <!-- −3.0 -->
      <g transform="translate(109.362316 143.45006) scale(0.1 -0.1)">
       <use xlink:href="#DejaVuSans-2212"/>
       <use xlink:href="#DejaVuSans-33" transform="translate(83.789062 0)"/>
       <use xlink:href="#DejaVuSans-2e" transform="translate(147.412109 0)"/>
       <use xlink:href="#DejaVuSans-30" transform="translate(179.199219 0)"/>
      </g>
     </g>
    </g>
    <g id="text_14">
     <!-- Latitude (°) -->
     <g transform="translate(103.282629 464.889531) rotate(-90) scale(0.1 -0.1)">
      <defs>
       <path id="DejaVuSans-61" d="M 2194 1759 
Q 1497 1759 1228 1600 
Q 959 1441 959 1056 
Q 959 750 1161 570 
Q 1363 391 1709 391 
Q 2188 391 2477 730 
Q 2766 1069 2766 1631 
L 2766 1759 
L 2194 1759 
z
M 3341 1997 
L 3341 0 
L 2766 0 
L 2766 531 
Q 2569 213 2275 61 
Q 1981 -91 1556 -91 
Q 1019 -91 701 211 
Q 384 513 384 1019 
Q 384 1609 779 1909 
Q 1175 2209 1959 2209 
L 2766 2209 
L 2766 2266 
Q 2766 2663 2505 2880 
Q 2244 3097 1772 3097 
Q 1472 3097 1187 3025 
Q 903 2953 641 2809 
L 641 3341 
Q 956 3463 1253 3523 
Q 1550 3584 1831 3584 
Q 2591 3584 2966 3190 
Q 3341 2797 3341 1997 
z
" transform="scale(0.015625)"/>
      </defs>
      <use xlink:href="#DejaVuSans-4c"/>
      <use xlink:href="#DejaVuSans-61" transform="translate(55.712891 0)"/>
      <use xlink:href="#DejaVuSans-74" transform="translate(116.992188 0)"/>
      <use xlink:href="#DejaVuSans-69" transform="translate(156.201172 0)"/>
      <use xlink:href="#DejaVuSans-74" transform="translate(183.984375 0)"/>
      <use xlink:href="#DejaVuSans-75" transform="translate(223.193359 0)"/>
      <use xlink:href="#DejaVuSans-64" transform="translate(286.572266 0)"/>
      <use xlink:href="#DejaVuSans-65" transform="translate(350.048828 0)"/>
      <use xlink:href="#DejaVuSans-20" transform="translate(411.572266 0)"/>
      <use xlink:href="#DejaVuSans-28" transform="translate(443.359375 0)"/>
      <use xlink:href="#DejaVuSans-b0" transform="translate(482.373047 0)"/>
      <use xlink:href="#DejaVuSans-29" transform="translate(532.373047 0)"/>
     </g>
    </g>
   </g>
   <g id="patch_3">
    <path d="M 140.645129 768.96 
L 140.645129 103.68 
" style="fill: none; stroke: #000000; stroke-width: 0.8; stroke-linejoin: miter; stroke-linecap: square"/>
   </g>
   <g id="patch_4">
    <path d="M 597.354871 768.96 
L 597.354871 103.68 
" style="fill: none; stroke: #000000; stroke-width: 0.8; stroke-linejoin: miter; stroke-linecap: square"/>
   </g>
   <g id="patch_5">
    <path d="M 140.645129 768.96 
L 597.354871 768.96 
" style="fill: none; stroke: #000000; stroke-width: 0.8; stroke-linejoin: miter; stroke-linecap: square"/>
   </g>
   <g id="patch_6">
    <path d="M 140.645129 103.68 
L 597.354871 103.68 
" style="fill: none; stroke: #000000; stroke-width: 0.8; stroke-linejoin: miter; stroke-linecap: square"/>
   </g>
   <g id="legend_1">
    <g id="patch_7">
     <path d="M 111.257031 939.37225 
L 626.742969 939.37225 
Q 628.742969 939.37225 628.742969 937.37225 
L 628.742969 909.016 
Q 628.742969 907.016 626.742969 907.016 
L 111.257031 907.016 
Q 109.257031 907.016 109.257031 909.016 
L 109.257031 937.37225 
Q 109.257031 939.37225 111.257031 939.37225 
z
" style="fill: #ffffff; opacity: 0.8; stroke: #cccccc; stroke-linejoin: miter"/>
    </g>
    <g id="line2d_25">
     <defs>
      <path id="m444a11363e" d="M 0 5 
C 1.326016 5 2.597899 4.473168 3.535534 3.535534 
C 4.473168 2.597899 5 1.326016 5 0 
C 5 -1.326016 4.473168 -2.597899 3.535534 -3.535534 
C 2.597899 -4.473168 1.326016 -5 0 -5 
C -1.326016 -5 -2.597899 -4.473168 -3.535534 -3.535534 
C -4.473168 -2.597899 -5 -1.326016 -5 0 
C -5 1.326016 -4.473168 2.597899 -3.535534 3.535534 
C -2.597899 4.473168 -1.326016 5 0 5 
z
"/>
     </defs>
     <g>
      <use xlink:href="#m444a11363e" x="123.257031" y="915.114438" style="fill: #b3e2cd; fill-opacity: 0.65"/>
     </g>
    </g>
    <g id="text_15">
     <!-- PA ANGELIN -->
     <g transform="translate(141.257031 918.614438) scale(0.1 -0.1)">
      <defs>
       <path id="DejaVuSans-50" d="M 1259 4147 
L 1259 2394 
L 2053 2394 
Q 2494 2394 2734 2622 
Q 2975 2850 2975 3272 
Q 2975 3691 2734 3919 
Q 2494 4147 2053 4147 
L 1259 4147 
z
M 628 4666 
L 2053 4666 
Q 2838 4666 3239 4311 
Q 3641 3956 3641 3272 
Q 3641 2581 3239 2228 
Q 2838 1875 2053 1875 
L 1259 1875 
L 1259 0 
L 628 0 
L 628 4666 
z
" transform="scale(0.015625)"/>
       <path id="DejaVuSans-41" d="M 2188 4044 
L 1331 1722 
L 3047 1722 
L 2188 4044 
z
M 1831 4666 
L 2547 4666 
L 4325 0 
L 3669 0 
L 3244 1197 
L 1141 1197 
L 716 0 
L 50 0 
L 1831 4666 
z
" transform="scale(0.015625)"/>
       <path id="DejaVuSans-4e" d="M 628 4666 
L 1478 4666 
L 3547 763 
L 3547 4666 
L 4159 4666 
L 4159 0 
L 3309 0 
L 1241 3903 
L 1241 0 
L 628 0 
L 628 4666 
z
" transform="scale(0.015625)"/>
       <path id="DejaVuSans-47" d="M 3809 666 
L 3809 1919 
L 2778 1919 
L 2778 2438 
L 4434 2438 
L 4434 434 
Q 4069 175 3628 42 
Q 3188 -91 2688 -91 
Q 1594 -91 976 548 
Q 359 1188 359 2328 
Q 359 3472 976 4111 
Q 1594 4750 2688 4750 
Q 3144 4750 3555 4637 
Q 3966 4525 4313 4306 
L 4313 3634 
Q 3963 3931 3569 4081 
Q 3175 4231 2741 4231 
Q 1884 4231 1454 3753 
Q 1025 3275 1025 2328 
Q 1025 1384 1454 906 
Q 1884 428 2741 428 
Q 3075 428 3337 486 
Q 3600 544 3809 666 
z
" transform="scale(0.015625)"/>
       <path id="DejaVuSans-45" d="M 628 4666 
L 3578 4666 
L 3578 4134 
L 1259 4134 
L 1259 2753 
L 3481 2753 
L 3481 2222 
L 1259 2222 
L 1259 531 
L 3634 531 
L 3634 0 
L 628 0 
L 628 4666 
z
" transform="scale(0.015625)"/>
       <path id="DejaVuSans-49" d="M 628 4666 
L 1259 4666 
L 1259 0 
L 628 0 
L 628 4666 
z
" transform="scale(0.015625)"/>
      </defs>
      <use xlink:href="#DejaVuSans-50"/>
      <use xlink:href="#DejaVuSans-41" transform="translate(53.927734 0)"/>
      <use xlink:href="#DejaVuSans-20" transform="translate(122.335938 0)"/>
      <use xlink:href="#DejaVuSans-41" transform="translate(154.123047 0)"/>
      <use xlink:href="#DejaVuSans-4e" transform="translate(222.53125 0)"/>
      <use xlink:href="#DejaVuSans-47" transform="translate(297.335938 0)"/>
      <use xlink:href="#DejaVuSans-45" transform="translate(374.826172 0)"/>
      <use xlink:href="#DejaVuSans-4c" transform="translate(438.009766 0)"/>
      <use xlink:href="#DejaVuSans-49" transform="translate(493.722656 0)"/>
      <use xlink:href="#DejaVuSans-4e" transform="translate(523.214844 0)"/>
     </g>
    </g>
    <g id="line2d_26">
     <defs>
      <path id="m8ed9bb6c0e" d="M 0 5 
C 1.326016 5 2.597899 4.473168 3.535534 3.535534 
C 4.473168 2.597899 5 1.326016 5 0 
C 5 -1.326016 4.473168 -2.597899 3.535534 -3.535534 
C 2.597899 -4.473168 1.326016 -5 0 -5 
C -1.326016 -5 -2.597899 -4.473168 -3.535534 -3.535534 
C -4.473168 -2.597899 -5 -1.326016 -5 0 
C -5 1.326016 -4.473168 2.597899 -3.535534 3.535534 
C -2.597899 4.473168 -1.326016 5 0 5 
z
"/>
     </defs>
     <g>
      <use xlink:href="#m8ed9bb6c0e" x="123.257031" y="929.792563" style="fill: #cbd5e8; fill-opacity: 0.65"/>
     </g>
    </g>
    <g id="text_16">
     <!-- PA SANTA MARTA -->
     <g transform="translate(141.257031 933.292563) scale(0.1 -0.1)">
      <defs>
       <path id="DejaVuSans-53" d="M 3425 4513 
L 3425 3897 
Q 3066 4069 2747 4153 
Q 2428 4238 2131 4238 
Q 1616 4238 1336 4038 
Q 1056 3838 1056 3469 
Q 1056 3159 1242 3001 
Q 1428 2844 1947 2747 
L 2328 2669 
Q 3034 2534 3370 2195 
Q 3706 1856 3706 1288 
Q 3706 609 3251 259 
Q 2797 -91 1919 -91 
Q 1588 -91 1214 -16 
Q 841 59 441 206 
L 441 856 
Q 825 641 1194 531 
Q 1563 422 1919 422 
Q 2459 422 2753 634 
Q 3047 847 3047 1241 
Q 3047 1584 2836 1778 
Q 2625 1972 2144 2069 
L 1759 2144 
Q 1053 2284 737 2584 
Q 422 2884 422 3419 
Q 422 4038 858 4394 
Q 1294 4750 2059 4750 
Q 2388 4750 2728 4690 
Q 3069 4631 3425 4513 
z
" transform="scale(0.015625)"/>
       <path id="DejaVuSans-54" d="M -19 4666 
L 3928 4666 
L 3928 4134 
L 2272 4134 
L 2272 0 
L 1638 0 
L 1638 4134 
L -19 4134 
L -19 4666 
z
" transform="scale(0.015625)"/>
       <path id="DejaVuSans-4d" d="M 628 4666 
L 1569 4666 
L 2759 1491 
L 3956 4666 
L 4897 4666 
L 4897 0 
L 4281 0 
L 4281 4097 
L 3078 897 
L 2444 897 
L 1241 4097 
L 1241 0 
L 628 0 
L 628 4666 
z
" transform="scale(0.015625)"/>
       <path id="DejaVuSans-52" d="M 2841 2188 
Q 3044 2119 3236 1894 
Q 3428 1669 3622 1275 
L 4263 0 
L 3584 0 
L 2988 1197 
Q 2756 1666 2539 1819 
Q 2322 1972 1947 1972 
L 1259 1972 
L 1259 0 
L 628 0 
L 628 4666 
L 2053 4666 
Q 2853 4666 3247 4331 
Q 3641 3997 3641 3322 
Q 3641 2881 3436 2590 
Q 3231 2300 2841 2188 
z
M 1259 4147 
L 1259 2491 
L 2053 2491 
Q 2509 2491 2742 2702 
Q 2975 2913 2975 3322 
Q 2975 3731 2742 3939 
Q 2509 4147 2053 4147 
L 1259 4147 
z
" transform="scale(0.015625)"/>
      </defs>
      <use xlink:href="#DejaVuSans-50"/>
      <use xlink:href="#DejaVuSans-41" transform="translate(53.927734 0)"/>
      <use xlink:href="#DejaVuSans-20" transform="translate(122.335938 0)"/>
      <use xlink:href="#DejaVuSans-53" transform="translate(154.123047 0)"/>
      <use xlink:href="#DejaVuSans-41" transform="translate(219.474609 0)"/>
      <use xlink:href="#DejaVuSans-4e" transform="translate(287.882812 0)"/>
      <use xlink:href="#DejaVuSans-54" transform="translate(362.6875 0)"/>
      <use xlink:href="#DejaVuSans-41" transform="translate(416.021484 0)"/>
      <use xlink:href="#DejaVuSans-20" transform="translate(484.429688 0)"/>
      <use xlink:href="#DejaVuSans-4d" transform="translate(516.216797 0)"/>
      <use xlink:href="#DejaVuSans-41" transform="translate(602.496094 0)"/>
      <use xlink:href="#DejaVuSans-52" transform="translate(670.904297 0)"/>
      <use xlink:href="#DejaVuSans-54" transform="translate(733.136719 0)"/>
      <use xlink:href="#DejaVuSans-41" transform="translate(786.470703 0)"/>
     </g>
    </g>
    <g id="line2d_27">
     <defs>
      <path id="m354056e9e5" d="M 0 5 
C 1.326016 5 2.597899 4.473168 3.535534 3.535534 
C 4.473168 2.597899 5 1.326016 5 0 
C 5 -1.326016 4.473168 -2.597899 3.535534 -3.535534 
C 2.597899 -4.473168 1.326016 -5 0 -5 
C -1.326016 -5 -2.597899 -4.473168 -3.535534 -3.535534 
C -4.473168 -2.597899 -5 -1.326016 -5 0 
C -5 1.326016 -4.473168 2.597899 -3.535534 3.535534 
C -2.597899 4.473168 -1.326016 5 0 5 
z
"/>
     </defs>
     <g>
      <use xlink:href="#m354056e9e5" x="256.742969" y="915.114438" style="fill: #fff2ae; fill-opacity: 0.65"/>
     </g>
    </g>
    <g id="text_17">
     <!-- PA SLAVADOR ALLENDE PIRATININGA -->
     <g transform="translate(274.742969 918.614438) scale(0.1 -0.1)">
      <defs>
       <path id="DejaVuSans-56" d="M 1831 0 
L 50 4666 
L 709 4666 
L 2188 738 
L 3669 4666 
L 4325 4666 
L 2547 0 
L 1831 0 
z
" transform="scale(0.015625)"/>
       <path id="DejaVuSans-44" d="M 1259 4147 
L 1259 519 
L 2022 519 
Q 2988 519 3436 956 
Q 3884 1394 3884 2338 
Q 3884 3275 3436 3711 
Q 2988 4147 2022 4147 
L 1259 4147 
z
M 628 4666 
L 1925 4666 
Q 3281 4666 3915 4102 
Q 4550 3538 4550 2338 
Q 4550 1131 3912 565 
Q 3275 0 1925 0 
L 628 0 
L 628 4666 
z
" transform="scale(0.015625)"/>
       <path id="DejaVuSans-4f" d="M 2522 4238 
Q 1834 4238 1429 3725 
Q 1025 3213 1025 2328 
Q 1025 1447 1429 934 
Q 1834 422 2522 422 
Q 3209 422 3611 934 
Q 4013 1447 4013 2328 
Q 4013 3213 3611 3725 
Q 3209 4238 2522 4238 
z
M 2522 4750 
Q 3503 4750 4090 4092 
Q 4678 3434 4678 2328 
Q 4678 1225 4090 567 
Q 3503 -91 2522 -91 
Q 1538 -91 948 565 
Q 359 1222 359 2328 
Q 359 3434 948 4092 
Q 1538 4750 2522 4750 
z
" transform="scale(0.015625)"/>
      </defs>
      <use xlink:href="#DejaVuSans-50"/>
      <use xlink:href="#DejaVuSans-41" transform="translate(53.927734 0)"/>
      <use xlink:href="#DejaVuSans-20" transform="translate(122.335938 0)"/>
      <use xlink:href="#DejaVuSans-53" transform="translate(154.123047 0)"/>
      <use xlink:href="#DejaVuSans-4c" transform="translate(217.599609 0)"/>
      <use xlink:href="#DejaVuSans-41" transform="translate(275.5625 0)"/>
      <use xlink:href="#DejaVuSans-56" transform="translate(337.595703 0)"/>
      <use xlink:href="#DejaVuSans-41" transform="translate(399.628906 0)"/>
      <use xlink:href="#DejaVuSans-44" transform="translate(468.037109 0)"/>
      <use xlink:href="#DejaVuSans-4f" transform="translate(545.039062 0)"/>
      <use xlink:href="#DejaVuSans-52" transform="translate(623.75 0)"/>
      <use xlink:href="#DejaVuSans-20" transform="translate(693.232422 0)"/>
      <use xlink:href="#DejaVuSans-41" transform="translate(725.019531 0)"/>
      <use xlink:href="#DejaVuSans-4c" transform="translate(793.427734 0)"/>
      <use xlink:href="#DejaVuSans-4c" transform="translate(849.140625 0)"/>
      <use xlink:href="#DejaVuSans-45" transform="translate(904.853516 0)"/>
      <use xlink:href="#DejaVuSans-4e" transform="translate(968.037109 0)"/>
      <use xlink:href="#DejaVuSans-44" transform="translate(1042.841797 0)"/>
      <use xlink:href="#DejaVuSans-45" transform="translate(1119.84375 0)"/>
      <use xlink:href="#DejaVuSans-20" transform="translate(1183.027344 0)"/>
      <use xlink:href="#DejaVuSans-50" transform="translate(1214.814453 0)"/>
      <use xlink:href="#DejaVuSans-49" transform="translate(1275.117188 0)"/>
      <use xlink:href="#DejaVuSans-52" transform="translate(1304.609375 0)"/>
      <use xlink:href="#DejaVuSans-41" transform="translate(1370.091797 0)"/>
      <use xlink:href="#DejaVuSans-54" transform="translate(1430.75 0)"/>
      <use xlink:href="#DejaVuSans-49" transform="translate(1491.833984 0)"/>
      <use xlink:href="#DejaVuSans-4e" transform="translate(1521.326172 0)"/>
      <use xlink:href="#DejaVuSans-49" transform="translate(1596.130859 0)"/>
      <use xlink:href="#DejaVuSans-4e" transform="translate(1625.623047 0)"/>
      <use xlink:href="#DejaVuSans-47" transform="translate(1700.427734 0)"/>
      <use xlink:href="#DejaVuSans-41" transform="translate(1777.917969 0)"/>
     </g>
    </g>
    <g id="line2d_28">
     <defs>
      <path id="mb4b0b3579c" d="M 0 5 
C 1.326016 5 2.597899 4.473168 3.535534 3.535534 
C 4.473168 2.597899 5 1.326016 5 0 
C 5 -1.326016 4.473168 -2.597899 3.535534 -3.535534 
C 2.597899 -4.473168 1.326016 -5 0 -5 
C -1.326016 -5 -2.597899 -4.473168 -3.535534 -3.535534 
C -4.473168 -2.597899 -5 -1.326016 -5 0 
C -5 1.326016 -4.473168 2.597899 -3.535534 3.535534 
C -2.597899 4.473168 -1.326016 5 0 5 
z
"/>
     </defs>
     <g>
      <use xlink:href="#mb4b0b3579c" x="489.378906" y="915.114438" style="fill: #cccccc; fill-opacity: 0.65"/>
     </g>
    </g>
    <g id="text_18">
     <!-- RESEX IPAU-ANILZINHO -->
     <g transform="translate(507.378906 918.614438) scale(0.1 -0.1)">
      <defs>
       <path id="DejaVuSans-58" d="M 403 4666 
L 1081 4666 
L 2241 2931 
L 3406 4666 
L 4084 4666 
L 2584 2425 
L 4184 0 
L 3506 0 
L 2194 1984 
L 872 0 
L 191 0 
L 1856 2491 
L 403 4666 
z
" transform="scale(0.015625)"/>
       <path id="DejaVuSans-55" d="M 556 4666 
L 1191 4666 
L 1191 1831 
Q 1191 1081 1462 751 
Q 1734 422 2344 422 
Q 2950 422 3222 751 
Q 3494 1081 3494 1831 
L 3494 4666 
L 4128 4666 
L 4128 1753 
Q 4128 841 3676 375 
Q 3225 -91 2344 -91 
Q 1459 -91 1007 375 
Q 556 841 556 1753 
L 556 4666 
z
" transform="scale(0.015625)"/>
       <path id="DejaVuSans-2d" d="M 313 2009 
L 1997 2009 
L 1997 1497 
L 313 1497 
L 313 2009 
z
" transform="scale(0.015625)"/>
       <path id="DejaVuSans-5a" d="M 359 4666 
L 4025 4666 
L 4025 4184 
L 1075 531 
L 4097 531 
L 4097 0 
L 288 0 
L 288 481 
L 3238 4134 
L 359 4134 
L 359 4666 
z
" transform="scale(0.015625)"/>
       <path id="DejaVuSans-48" d="M 628 4666 
L 1259 4666 
L 1259 2753 
L 3553 2753 
L 3553 4666 
L 4184 4666 
L 4184 0 
L 3553 0 
L 3553 2222 
L 1259 2222 
L 1259 0 
L 628 0 
L 628 4666 
z
" transform="scale(0.015625)"/>
      </defs>
      <use xlink:href="#DejaVuSans-52"/>
      <use xlink:href="#DejaVuSans-45" transform="translate(69.482422 0)"/>
      <use xlink:href="#DejaVuSans-53" transform="translate(132.666016 0)"/>
      <use xlink:href="#DejaVuSans-45" transform="translate(196.142578 0)"/>
      <use xlink:href="#DejaVuSans-58" transform="translate(259.326172 0)"/>
      <use xlink:href="#DejaVuSans-20" transform="translate(327.832031 0)"/>
      <use xlink:href="#DejaVuSans-49" transform="translate(359.619141 0)"/>
      <use xlink:href="#DejaVuSans-50" transform="translate(389.111328 0)"/>
      <use xlink:href="#DejaVuSans-41" transform="translate(443.039062 0)"/>
      <use xlink:href="#DejaVuSans-55" transform="translate(511.447266 0)"/>
      <use xlink:href="#DejaVuSans-2d" transform="translate(584.640625 0)"/>
      <use xlink:href="#DejaVuSans-41" transform="translate(618.474609 0)"/>
      <use xlink:href="#DejaVuSans-4e" transform="translate(686.882812 0)"/>
      <use xlink:href="#DejaVuSans-49" transform="translate(761.6875 0)"/>
      <use xlink:href="#DejaVuSans-4c" transform="translate(791.179688 0)"/>
      <use xlink:href="#DejaVuSans-5a" transform="translate(846.892578 0)"/>
      <use xlink:href="#DejaVuSans-49" transform="translate(915.398438 0)"/>
      <use xlink:href="#DejaVuSans-4e" transform="translate(944.890625 0)"/>
      <use xlink:href="#DejaVuSans-48" transform="translate(1019.695312 0)"/>
      <use xlink:href="#DejaVuSans-4f" transform="translate(1094.890625 0)"/>
     </g>
    </g>
   </g>
  </g>
 </g>
 <defs>
  <clipPath id="p685622c130">
   <rect x="140.645129" y="103.68" width="456.709742" height="665.28"/>
  </clipPath>
 </defs>
</svg>
