<?xml version="1.0" encoding="utf-8" standalone="no"?>
<!DOCTYPE svg PUBLIC "-//W3C//DTD SVG 1.1//EN"
  "http://www.w3.org/Graphics/SVG/1.1/DTD/svg11.dtd">
<svg xmlns:xlink="http://www.w3.org/1999/xlink" width="720pt" height="864pt" viewBox="0 0 720 864" xmlns="http://www.w3.org/2000/svg" version="1.1">
 <metadata>
  <rdf:RDF xmlns:dc="http://purl.org/dc/elements/1.1/" xmlns:cc="http://creativecommons.org/ns#" xmlns:rdf="http://www.w3.org/1999/02/22-rdf-syntax-ns#">
   <cc:Work>
    <dc:type rdf:resource="http://purl.org/dc/dcmitype/StillImage"/>
    <dc:date>2025-06-16T16:54:00.940024</dc:date>
    <dc:format>image/svg+xml</dc:format>
    <dc:creator>
     <cc:Agent>
      <dc:title>Matplotlib v3.10.1, https://matplotlib.org/</dc:title>
     </cc:Agent>
    </dc:creator>
   </cc:Work>
  </rdf:RDF>
 </metadata>
 <defs>
  <style type="text/css">*{stroke-linejoin: round; stroke-linecap: butt}</style>
 </defs>
 <g id="figure_1">
  <g id="patch_1">
   <path d="M 0 864 
L 720 864 
L 720 0 
L 0 0 
z
" style="fill: #ffffff"/>
  </g>
  <g id="axes_1">
   <g id="patch_2">
    <path d="M 90 635.303953 
L 648 635.303953 
L 648 237.336047 
L 90 237.336047 
z
" style="fill: #ffffff"/>
   </g>
   <g id="PatchCollection_1">
    <path d="M 230.009035 545.893241 
L 230.345639 545.723564 
L 231.691334 543.85856 
L 234.383021 540.636966 
L 235.897468 539.449742 
L 236.233452 538.263243 
L 237.747893 537.076019 
L 238.252328 536.058888 
L 238.251814 535.211537 
L 238.924497 534.024833 
L 240.103259 534.532518 
L 239.934908 534.532621 
L 239.598929 535.719119 
L 240.778003 536.735211 
L 241.450992 536.056915 
L 241.450578 535.379036 
L 242.291813 534.531167 
L 243.132944 533.513828 
L 243.46923 532.835742 
L 243.468713 531.988394 
L 243.467887 530.632637 
L 243.467165 529.446349 
L 243.298506 528.938044 
L 242.455731 527.243865 
L 243.296552 525.718121 
L 244.305822 524.361744 
L 244.810456 523.683555 
L 244.809737 522.497269 
L 245.987968 522.157606 
L 246.324047 521.140583 
L 247.165477 520.631657 
L 246.996821 520.123353 
L 247.164449 518.936964 
L 248.00598 518.597509 
L 247.668978 518.089308 
L 247.668465 517.241962 
L 247.33177 517.242168 
L 247.667747 516.055677 
L 248.678033 516.393996 
L 249.015138 517.071665 
L 249.352243 517.749335 
L 250.530671 517.748609 
L 251.203543 516.900849 
L 252.718042 515.883101 
L 253.896363 515.712905 
L 254.569023 514.526208 
L 255.410132 513.508876 
L 255.409408 512.322596 
L 256.419481 512.321972 
L 257.597899 512.321242 
L 257.597484 511.643369 
L 259.448969 511.133816 
L 260.627175 510.794148 
L 261.300034 509.946389 
L 262.477821 508.928849 
L 264.498056 509.097057 
L 266.012421 507.909838 
L 267.443028 507.40054 
L 269.631546 507.483901 
L 270.38946 508.07656 
L 271.568601 509.262086 
L 273.927211 512.14153 
L 275.611445 513.411459 
L 277.295683 514.681382 
L 279.99187 518.916308 
L 287.740383 526.198294 
L 293.972001 530.600268 
L 301.88744 535.509428 
L 306.939588 538.217417 
L 316.537617 541.769538 
L 323.272763 543.798388 
L 330.175542 544.810293 
L 339.097691 544.803939 
L 347.68347 545.30613 
L 356.774597 546.316247 
L 366.203114 548.342763 
L 372.939698 552.404668 
L 375.087273 555.841584 
L 372.771544 558.009492 
L 371.622042 558.392649 
L 370.472538 558.775806 
L 367.024016 559.925272 
L 365.29975 560.500003 
L 363.57548 561.074732 
L 359.606303 560.332857 
L 356.581157 562.955675 
L 343.623105 565.538621 
L 339.768771 568.478842 
L 334.992047 563.187332 
L 327.714258 565.339162 
L 322.255325 574.050828 
L 311.76127 577.142862 
L 306.282549 583.499 
L 300.803767 589.85515 
L 290.219296 583.05063 
L 287.574363 587.649401 
L 286.251891 589.948789 
L 284.929415 592.248179 
L 281.096507 594.861459 
L 281.060296 599.189024 
L 274.814598 606.862258 
L 272.33453 614.297882 
L 270.965199 616.365536 
L 269.786962 616.79002 
L 268.608724 617.214502 
L 262.042512 617.049555 
L 256.990856 615.866725 
L 253.960336 615.868779 
L 246.047175 615.704628 
L 239.64826 614.014183 
L 232.575781 612.154654 
L 227.692467 610.971531 
L 221.798003 608.263782 
L 217.924137 605.893645 
L 207.651088 601.32434 
L 201.589142 599.972301 
L 197.380124 600.144353 
L 192.496926 599.130476 
L 189.802073 597.437359 
L 188.45475 596.76027 
L 186.771297 597.100227 
L 183.571754 596.085286 
L 181.382605 595.408684 
L 180.371917 594.561906 
L 178.856528 594.393324 
L 176.329083 591.005297 
L 174.812528 588.802998 
L 172.959929 587.787219 
L 170.938485 585.924152 
L 166.223401 584.401572 
L 163.697257 583.216675 
L 161.676591 582.709391 
L 158.982934 583.049866 
L 154.100517 583.39156 
L 150.228561 584.241105 
L 145.34722 586.6165 
L 142.149527 588.990957 
L 136.258193 591.875321 
L 135.248982 593.740139 
L 131.883502 597.301033 
L 128.18171 601.709506 
L 123.640287 610.35543 
L 120.248895 606.104355 
L 115.363636 598.948818 
L 118.245752 597.816792 
L 120.433687 596.120828 
L 122.453154 594.255473 
L 122.789093 592.729974 
L 124.472703 592.559597 
L 125.819392 592.050438 
L 126.324054 591.202769 
L 125.481313 589.508421 
L 124.975493 588.152852 
L 125.901523 588.152359 
L 126.827552 588.151865 
L 128.679609 588.150874 
L 129.857741 587.302845 
L 131.204599 587.132641 
L 132.888192 586.962255 
L 134.908338 586.452726 
L 136.254556 585.096165 
L 136.759478 584.756933 
L 136.253741 583.570855 
L 135.748006 582.384775 
L 135.242182 581.029216 
L 135.241191 579.164947 
L 135.661928 578.825762 
L 136.082664 578.486578 
L 136.756853 579.842046 
L 137.093857 580.3503 
L 137.514774 580.350073 
L 141.133702 578.568584 
L 142.311946 577.974768 
L 142.985045 577.296487 
L 145.678897 577.295016 
L 147.698916 576.615996 
L 149.718562 575.259061 
L 151.401842 574.580222 
L 151.906382 573.563077 
L 152.410921 572.545933 
L 152.409814 570.512201 
L 154.428703 567.799447 
L 155.438883 567.798889 
L 155.439993 569.832618 
L 155.777277 570.849295 
L 155.778204 572.544069 
L 158.808568 572.203428 
L 158.807449 570.169703 
L 158.806518 568.474932 
L 161.162481 566.439895 
L 162.508821 565.422283 
L 164.528605 564.404293 
L 165.874938 563.386679 
L 165.874002 561.691914 
L 167.893587 560.334971 
L 170.249887 558.977837 
L 174.627069 558.636414 
L 176.98278 556.262417 
L 179.001762 553.888612 
L 182.03184 553.208985 
L 184.388861 553.207637 
L 187.082402 552.86714 
L 189.101541 550.832281 
L 190.784731 550.153411 
L 192.131784 550.491581 
L 192.805019 550.152242 
L 193.141443 549.643624 
L 193.477866 549.135006 
L 194.488008 549.13442 
L 194.488396 549.812317 
L 195.499123 550.828573 
L 196.173332 552.183972 
L 197.184259 553.539172 
L 199.877975 553.537591 
L 201.561546 553.5366 
L 203.245116 553.535605 
L 205.60211 553.534209 
L 205.938824 553.534009 
L 207.286274 554.550045 
L 209.306553 554.54884 
L 211.664145 555.564263 
L 213.684219 555.224103 
L 214.35714 554.376336 
L 215.030059 553.528569 
L 217.386736 553.018729 
L 219.238747 553.187079 
L 221.763363 551.999243 
L 224.624781 550.98067 
L 226.475452 548.945884 
L 228.157967 547.250143 
L 228.157354 546.233317 
L 228.156741 545.216491 
L 228.83046 545.724492 
L 230.009035 545.893241 
" clip-path="url(#pb57ebe01e5)" style="fill: #f1e2cc; fill-opacity: 0.65"/>
    <path d="M 338.4085 487.685114 
L 347.064868 495.22612 
L 352.010444 489.618908 
L 355.475201 491.395189 
L 355.475736 491.39535 
L 355.485061 491.369104 
L 355.493914 491.346423 
L 355.502175 491.326792 
L 355.517737 491.292909 
L 355.530294 491.267883 
L 355.550471 491.23095 
L 355.572161 491.194725 
L 355.59112 491.168225 
L 355.611381 491.14582 
L 355.632277 491.126678 
L 355.653301 491.110137 
L 355.674076 491.095673 
L 355.715188 491.070663 
L 355.865884 490.989718 
L 355.901229 490.96717 
L 355.926148 490.948691 
L 355.943722 490.933733 
L 355.967957 490.909201 
L 355.978992 490.895869 
L 355.989227 490.88175 
L 356.014046 490.84447 
L 356.05594 490.778215 
L 356.085573 490.727524 
L 356.106512 490.688856 
L 356.121375 490.659455 
L 356.142139 490.614653 
L 356.160846 490.568945 
L 356.306684 490.186093 
L 356.306791 490.18577 
L 356.308392 490.179899 
L 356.328027 490.182201 
L 361.611986 490.602725 
L 361.403117 494.668781 
L 355.094089 494.667713 
L 355.28022 494.995509 
L 355.501564 495.572684 
L 355.501779 495.885369 
L 355.679131 496.901066 
L 355.556719 497.430551 
L 354.948107 498.716023 
L 354.496611 499.218434 
L 354.091991 499.893365 
L 353.811825 500.285792 
L 353.126952 501.227612 
L 352.81564 501.604388 
L 351.549636 503.118779 
L 351.145024 503.809437 
L 350.693568 504.374537 
L 350.226631 505.06524 
L 349.9573 505.501498 
L 349.755827 505.736019 
L 349.687215 505.851264 
L 349.435768 506.542624 
L 349.258627 506.994651 
L 348.994651 508.288719 
L 349.093892 508.985111 
L 349.117189 509.561135 
L 349.213798 509.779074 
L 349.39117 510.583876 
L 349.339452 511.222426 
L 349.246306 511.677464 
L 349.041408 512.065692 
L 348.810699 512.649488 
L 348.691659 512.873881 
L 348.579508 513.078989 
L 348.313082 513.46096 
L 347.758949 513.935065 
L 347.596411 514.078058 
L 347.393952 514.203739 
L 347.098127 514.470641 
L 346.554129 514.825233 
L 346.148285 515.28717 
L 345.852558 515.695336 
L 345.658701 516.113932 
L 345.33577 516.793227 
L 345.1025 517.389628 
L 344.713332 517.907672 
L 344.526571 518.221568 
L 344.277536 518.535561 
L 343.918685 519.107278 
L 343.921408 519.407146 
L 343.842307 520.057726 
L 343.671298 520.559945 
L 343.612435 521.463633 
L 343.451799 523.492982 
L 343.281327 524.763939 
L 343.152771 525.611937 
L 342.795404 525.933601 
L 342.638375 526.076161 
L 342.271034 526.289583 
L 341.720085 526.660232 
L 341.236697 526.865226 
L 340.588924 527.099526 
L 339.778553 527.624332 
L 339.557312 527.443586 
L 339.268667 527.040301 
L 338.994124 526.911509 
L 338.734077 526.70467 
L 338.492246 526.687498 
L 338.05003 526.399087 
L 337.313116 526.158923 
L 336.96926 526.062923 
L 336.183453 526.063475 
L 336.085227 526.063544 
L 335.83963 526.015623 
L 335.637167 526.065366 
L 335.446793 526.112139 
L 335.054022 526.304896 
L 334.661119 526.305171 
L 334.397767 526.424485 
L 334.022796 526.594395 
L 333.875523 526.690739 
L 333.814928 527.107951 
L 333.783208 527.657522 
L 333.205963 528.385254 
L 332.917744 529.371402 
L 332.100149 530.68122 
L 331.570298 531.16829 
L 331.073421 531.296116 
L 330.36727 531.29661 
L 330.03035 531.409997 
L 329.083257 531.135884 
L 328.954722 530.942037 
L 328.890222 530.505684 
L 328.536774 530.004851 
L 328.263965 529.988884 
L 328.247726 529.71412 
L 328.388414 529.532095 
L 328.376671 529.104161 
L 328.237446 529.0015 
L 327.585451 529.17731 
L 327.573286 529.382295 
L 327.445896 530.619789 
L 327.558293 530.765231 
L 327.622682 531.039961 
L 327.735144 531.201506 
L 327.719194 531.346983 
L 327.735345 531.492438 
L 327.799667 531.670173 
L 327.912119 531.815561 
L 328.153115 532.171006 
L 328.297544 532.138592 
L 328.377753 532.154693 
L 328.409987 532.348607 
L 328.474343 532.574867 
L 328.586806 532.736411 
L 328.715274 532.833316 
L 328.731569 533.188865 
L 329.004466 533.253355 
L 329.052717 533.398788 
L 329.357572 533.333893 
L 329.393849 533.107132 
L 329.287528 532.929212 
L 329.21887 532.206507 
L 329.501164 532.089226 
L 330.127032 532.040318 
L 330.298412 532.298816 
L 330.351968 532.379563 
L 330.464554 532.71894 
L 330.470634 532.924775 
L 330.577921 532.951682 
L 330.604831 533.104507 
L 330.595989 533.23937 
L 330.190621 533.943125 
L 330.243821 534.049884 
L 330.226174 534.138921 
L 330.173619 534.886538 
L 330.297571 535.028847 
L 330.279924 535.11783 
L 330.120777 535.295936 
L 330.040046 535.298309 
L 329.859258 535.516985 
L 329.843235 535.504913 
L 329.843025 535.504755 
L 329.802677 535.474359 
L 329.8018 535.473313 
L 329.792736 535.461816 
L 329.785859 535.453252 
L 329.780506 535.447087 
L 329.776315 535.442704 
L 329.773047 535.439591 
L 329.767903 535.435264 
L 329.762416 535.431421 
L 329.660774 535.367457 
L 329.37769 535.349883 
L 328.917651 535.367978 
L 328.54397 535.320308 
L 327.847156 535.212813 
L 327.437282 535.127037 
L 326.961997 535.071305 
L 326.480333 534.99775 
L 326.262081 534.887174 
L 325.994047 534.659764 
L 325.186122 534.722746 
L 324.540682 534.712532 
L 324.519393 534.563311 
L 324.048533 534.563638 
L 322.866759 534.569791 
L 322.062657 534.591677 
L 320.981933 534.582085 
L 320.670985 534.580739 
L 320.634742 534.390488 
L 320.198266 534.367255 
L 319.558848 534.325312 
L 317.578821 534.309821 
L 314.82131 534.28716 
L 313.394418 534.102009 
L 312.78731 534.056216 
L 311.799772 534.035402 
L 310.713393 534.05898 
L 310.71589 533.874033 
L 310.649975 533.871601 
L 310.230314 533.874311 
L 309.402585 533.856994 
L 308.929355 533.918929 
L 308.73963 533.904678 
L 307.960203 533.953411 
L 307.540513 533.835264 
L 306.985966 533.745484 
L 307.860411 531.300587 
L 307.303959 529.399809 
L 307.289801 528.948011 
L 306.755205 528.285715 
L 306.389509 527.940145 
L 305.735521 527.148509 
L 305.635241 526.233867 
L 305.833944 525.266836 
L 306.033007 524.842792 
L 306.276398 524.463367 
L 306.508642 523.894264 
L 306.86258 523.213541 
L 307.18089 522.459166 
L 307.602968 521.265248 
L 307.812514 519.948732 
L 307.287981 519.28174 
L 307.27451 518.97541 
L 307.098688 517.812592 
L 306.642848 516.896625 
L 306.140567 515.162168 
L 323.88806 503.04227 
L 323.76094 502.953439 
L 323.698418 502.911383 
L 323.245267 502.641042 
L 323.208351 502.617175 
L 323.17162 502.592998 
L 323.084626 502.534342 
L 322.95573 502.44404 
L 322.827781 502.352652 
L 322.80071 502.33169 
L 322.776687 502.310334 
L 322.755171 502.289049 
L 322.716858 502.246595 
L 322.653273 502.168006 
L 322.605467 502.109288 
L 322.567861 502.06751 
L 322.53796 502.03835 
L 322.51428 502.018083 
L 322.495688 502.003944 
L 322.466273 501.984682 
L 322.434788 501.968058 
L 322.414023 501.958828 
L 322.374638 501.943513 
L 322.339765 501.931938 
L 322.308997 501.92295 
L 322.254729 501.909134 
L 322.091045 501.872101 
L 322.075833 501.868707 
L 322.046998 501.863984 
L 321.944822 501.853235 
L 321.919484 501.84908 
L 321.90066 501.844874 
L 321.886671 501.840945 
L 321.865938 501.833571 
L 321.855701 501.829125 
L 321.845559 501.824118 
L 321.827538 501.813611 
L 321.811563 501.802298 
L 321.797401 501.790332 
L 321.784846 501.777847 
L 321.763527 501.751339 
L 321.746784 501.723976 
L 321.733575 501.696385 
L 321.723079 501.669034 
L 321.714651 501.642271 
L 321.701739 501.589746 
L 321.6668 501.396173 
L 321.655507 501.349137 
L 321.645125 501.31513 
L 321.635982 501.290548 
L 321.619668 501.255465 
L 321.599706 501.22292 
L 321.513399 501.103008 
L 321.470191 501.042998 
L 321.427707 500.982512 
L 321.402856 500.946646 
L 321.390567 500.928611 
L 321.378547 500.910377 
L 321.326508 500.82791 
L 321.238699 500.68165 
L 320.985363 500.23711 
L 320.954965 500.181069 
L 320.930277 500.131091 
L 320.847114 499.954304 
L 320.824611 499.910827 
L 320.80667 499.878697 
L 320.777553 499.8315 
L 320.745174 499.785791 
L 320.736714 499.775417 
L 320.728303 499.766279 
L 320.720032 499.758186 
L 320.711968 499.750981 
L 320.696134 499.738355 
L 320.681632 499.728115 
L 320.668545 499.719658 
L 320.644993 499.705695 
L 320.608931 499.685779 
L 320.573255 499.66559 
L 320.42406 499.579279 
L 320.199076 499.452476 
L 320.087742 499.38728 
L 319.978223 499.319044 
L 319.955037 499.303645 
L 319.920534 499.28011 
L 319.903199 499.26847 
L 319.885682 499.257117 
L 319.755999 499.175072 
L 321.274087 497.22633 
L 324.744102 498.060394 
L 325.018289 496.052977 
L 338.4085 487.685114 
" clip-path="url(#pb57ebe01e5)" style="fill: #cbd5e8; fill-opacity: 0.65"/>
    <path d="M 428.208915 560.466758 
L 427.857128 561.889186 
L 426.257279 561.54545 
L 424.31503 561.662036 
L 422.258981 562.353774 
L 421.574456 563.619464 
L 418.490002 564.197017 
L 415.519703 564.659459 
L 412.89162 564.431541 
L 410.034748 563.858758 
L 406.729514 562.224188 
L 402.948028 560.298952 
L 400.204877 559.035954 
L 396.661839 557.658554 
L 389.576996 556.513907 
L 383.29168 555.023542 
L 376.206375 553.3037 
L 370.034961 551.353074 
L 364.777701 549.516733 
L 363.932143 549.186446 
L 365.360489 549.270989 
L 365.225569 548.999859 
L 362.897296 548.437528 
L 359.671523 548.398812 
L 356.690614 547.787525 
L 354.88475 547.75305 
L 352.324658 547.246362 
L 347.579542 546.596419 
L 347.522206 546.308915 
L 346.950331 545.504201 
L 346.835743 545.04421 
L 346.835168 544.239082 
L 345.821528 543.386 
L 344.372538 542.369914 
L 342.948295 541.366418 
L 342.490768 540.676634 
L 343.519267 540.905933 
L 344.548174 541.710324 
L 345.348318 542.169822 
L 345.919534 542.054392 
L 347.062292 542.283604 
L 347.748341 542.973219 
L 348.205625 543.317943 
L 349.234042 543.432216 
L 350.262953 544.236596 
L 351.290792 543.54574 
L 351.861675 542.970235 
L 352.432805 542.739783 
L 353.003522 541.934242 
L 353.346464 542.164028 
L 354.374794 542.163279 
L 354.717157 541.58794 
L 355.059519 541.012601 
L 355.516554 541.012268 
L 355.5173 542.047427 
L 355.860905 543.197354 
L 356.775142 543.42672 
L 358.146247 543.425715 
L 358.946725 544.345268 
L 360.889373 544.68889 
L 361.918036 545.1482 
L 362.261483 546.068085 
L 361.690693 546.75861 
L 362.605351 547.563054 
L 363.976961 548.25214 
L 365.123279 548.596039 
L 365.805692 549.0559 
L 366.713001 549.044839 
L 367.532642 549.194221 
L 368.776586 549.283716 
L 370.811126 549.691748 
L 374.717418 548.474143 
L 378.160832 548.086284 
L 383.153045 548.85746 
L 386.601067 549.615282 
L 390.430855 550.801789 
L 393.229632 551.795472 
L 394.592597 553.510923 
L 395.610871 553.622626 
L 399.509723 553.544596 
L 402.199967 553.34119 
L 406.941417 553.107441 
L 410.483571 553.392181 
L 413.054816 554.022718 
L 415.968871 554.710479 
L 418.711586 555.455873 
L 420.597342 556.144438 
L 423.283478 557.579933 
L 425.11275 559.073616 
L 426.831918 560.159888 
L 427.539862 560.396795 
L 428.208915 560.466758 
" clip-path="url(#pb57ebe01e5)" style="fill: #cccccc; fill-opacity: 0.65"/>
    <path d="M 450.441362 362.986199 
L 463.989268 412.705868 
L 463.854109 414.19248 
L 465.607219 419.807118 
L 463.326638 423.050498 
L 465.122124 424.189786 
L 465.657939 425.35715 
L 469.418927 430.604601 
L 469.246569 432.385317 
L 466.991521 431.883455 
L 459.95365 431.733801 
L 459.134676 426.811362 
L 457.651491 426.667225 
L 455.499089 430.339722 
L 453.049944 429.592944 
L 452.073926 423.080022 
L 456.032664 423.529465 
L 456.096694 421.323009 
L 450.267567 418.581968 
L 447.580011 414.278942 
L 446.841473 415.485869 
L 446.310908 416.096019 
L 441.042826 411.792231 
L 442.805321 409.343279 
L 438.123942 407.366522 
L 436.474213 407.099399 
L 434.473509 401.183286 
L 433.902117 398.763987 
L 433.40489 399.076587 
L 431.808797 400.356678 
L 430.578287 400.60087 
L 429.665604 401.011709 
L 428.820986 401.654688 
L 428.244334 401.660644 
L 427.701696 401.791719 
L 427.169277 402.038782 
L 426.636856 402.285844 
L 425.488048 402.727895 
L 423.755727 403.071797 
L 423.406144 403.220652 
L 423.031483 403.702953 
L 422.275469 405.078459 
L 421.954188 405.25411 
L 421.632906 405.429761 
L 420.708915 405.61434 
L 420.095891 405.95373 
L 419.376172 407.132668 
L 418.795915 408.659291 
L 418.674621 408.978409 
L 418.22051 409.740628 
L 417.276057 410.211016 
L 416.09092 410.639647 
L 415.951282 410.749799 
L 415.811645 410.859951 
L 415.293994 411.74118 
L 415.262813 411.887872 
L 415.129683 412.514185 
L 414.996552 413.140498 
L 413.71948 411.660833 
L 413.473155 411.324383 
L 412.442393 409.931161 
L 411.520633 408.377109 
L 410.846301 406.436017 
L 410.485333 405.661962 
L 410.080175 405.010369 
L 409.042443 403.341437 
L 407.931172 400.916443 
L 407.710962 400.154289 
L 407.717732 399.707725 
L 408.015161 398.784752 
L 407.847171 397.659472 
L 407.68711 397.168242 
L 407.336303 396.397172 
L 406.092177 395.611205 
L 404.950119 395.206322 
L 404.560041 395.02495 
L 403.77184 394.658464 
L 403.442629 394.21792 
L 402.864175 392.971094 
L 401.210833 389.823691 
L 400.890699 389.04368 
L 400.722647 388.239857 
L 400.890701 387.495507 
L 400.890701 386.852623 
L 401.008768 386.25114 
L 401.35728 385.852169 
L 401.705793 385.453198 
L 402.18252 384.738769 
L 402.82507 384.083801 
L 403.710535 383.48837 
L 404.884288 382.482036 
L 405.46003 382.209676 
L 406.31916 381.803256 
L 406.884503 381.362712 
L 407.449834 380.267136 
L 408.650882 379.892022 
L 409.073159 379.594236 
L 410.269668 378.230783 
L 410.680637 377.15902 
L 411.608816 376.286048 
L 450.441362 362.986199 
" clip-path="url(#pb57ebe01e5)" style="fill: #e6f5c9; fill-opacity: 0.65"/>
    <path d="M 499.503581 255.90452 
L 500.841564 256.11151 
L 502.008802 255.660574 
L 503.294224 256.115693 
L 504.14479 256.657216 
L 504.900887 258.655903 
L 505.383722 260.602747 
L 508.723253 266.589788 
L 508.967217 267.329047 
L 509.908692 268.777159 
L 511.086065 270.156512 
L 511.644148 270.601504 
L 514.037732 271.938538 
L 514.793865 272.110186 
L 515.775251 272.12855 
L 517.579846 273.720388 
L 518.253186 274.605798 
L 519.940016 273.718596 
L 520.636209 273.070881 
L 521.781235 273.11518 
L 523.635406 273.207281 
L 525.054214 273.330877 
L 527.611503 273.713555 
L 528.30395 273.959449 
L 530.056096 274.739461 
L 532.334171 276.088801 
L 533.040674 276.084919 
L 534.695957 277.871545 
L 535.022631 278.044544 
L 535.633786 279.192626 
L 536.39598 279.075729 
L 537.172801 280.442473 
L 537.700605 281.453771 
L 538.571386 281.308407 
L 538.907269 282.18447 
L 539.549249 283.66257 
L 540.399818 284.231019 
L 541.192685 285.597777 
L 540.96601 286.342151 
L 542.230778 287.401808 
L 543.764747 288.156395 
L 544.721378 288.449284 
L 545.916474 289.757072 
L 546.208393 289.919285 
L 547.406982 289.852714 
L 548.501001 290.254429 
L 549.701113 290.325131 
L 551.454287 291.21497 
L 553.446873 291.525703 
L 555.002066 291.67575 
L 555.854166 292.382016 
L 557.720518 292.721741 
L 558.336207 292.550378 
L 559.440362 293.913564 
L 560.624807 295.16644 
L 562.287067 295.150201 
L 565.394112 295.689842 
L 565.727795 295.776712 
L 567.165309 296.877928 
L 568.029011 296.963496 
L 568.98364 297.036735 
L 573.658752 300.44073 
L 574.171539 300.641833 
L 575.270648 301.510288 
L 577.08041 302.6198 
L 579.077087 303.287442 
L 581.922328 303.408083 
L 582.454152 303.062238 
L 583.642625 302.006697 
L 584.644735 301.365034 
L 586.336292 301.568434 
L 587.432389 302.107417 
L 587.902634 302.817231 
L 588.791579 301.791656 
L 589.200712 301.815579 
L 589.677061 303.075051 
L 590.365017 303.727927 
L 590.940327 304.024351 
L 591.231231 303.169622 
L 593.13496 304.58927 
L 593.155698 304.799777 
L 594.315533 305.182674 
L 594.87707 305.250292 
L 596.085637 304.586663 
L 596.40096 304.988454 
L 596.872232 305.780639 
L 595.901458 306.806714 
L 596.679263 309.343331 
L 596.718284 309.382115 
L 597.027924 310.368552 
L 597.861688 312.31571 
L 597.843206 312.834132 
L 598.469016 312.745666 
L 598.960499 311.865208 
L 599.632192 312.908921 
L 599.912611 312.621603 
L 600.668715 311.954483 
L 601.404156 314.691889 
L 601.573447 315.133974 
L 602.663436 315.150754 
L 603.771607 314.232963 
L 604.944245 314.689084 
L 605.466753 314.738914 
L 607.896802 317.065461 
L 607.861511 317.051443 
L 608.487657 318.253949 
L 609.036888 317.397203 
L 609.445507 317.393131 
L 610.450142 317.02601 
L 611.155264 316.661947 
L 611.227461 315.726864 
L 611.715376 315.474654 
L 612.01846 315.774153 
L 612.559416 315.356697 
L 612.920565 316.067533 
L 613.444383 316.639566 
L 613.880783 316.69042 
L 614.038871 316.139233 
L 614.059062 315.424845 
L 614.799553 315.884485 
L 614.988445 315.717701 
L 614.788405 314.785154 
L 615.579891 314.915347 
L 616.220819 313.617193 
L 617.093646 313.663985 
L 618.535193 313.375163 
L 619.46103 313.311082 
L 620.877255 315.270967 
L 620.819337 315.551419 
L 621.641156 315.955652 
L 622.600858 316.550541 
L 622.419561 317.486646 
L 622.060666 319.432613 
L 622.032223 319.606487 
L 622.636364 320.012752 
L 605.195103 346.949513 
L 596.740505 351.785825 
L 596.423309 352.723438 
L 596.761212 353.819724 
L 597.593157 355.185486 
L 597.845197 355.869883 
L 597.875016 356.089548 
L 587.934273 356.873756 
L 589.973905 366.087146 
L 582.321789 366.690561 
L 585.485264 380.981592 
L 575.492041 383.09782 
L 575.057627 382.419767 
L 573.130833 381.910331 
L 573.24928 381.530338 
L 571.542018 379.815698 
L 569.586805 377.750439 
L 569.285178 377.694257 
L 566.63665 378.347164 
L 566.509508 378.105906 
L 564.2766 379.538588 
L 564.207073 379.52993 
L 563.367528 380.060184 
L 560.735796 379.541662 
L 560.22213 379.019139 
L 559.554366 377.758458 
L 558.736107 377.631952 
L 556.175128 377.712101 
L 554.62134 377.726692 
L 553.934412 377.156683 
L 552.733227 376.976089 
L 551.806303 376.98463 
L 550.525797 377.052153 
L 549.731272 376.620424 
L 548.854379 376.189178 
L 452.917182 353.014212 
L 447.906709 321.042557 
L 490.254601 256.590578 
L 490.560265 256.125667 
L 490.699297 256.15859 
L 492.014217 256.471081 
L 493.543097 256.730949 
L 495.066427 256.441734 
L 496.534219 256.015214 
L 497.863592 255.425498 
L 499.503581 255.90452 
" clip-path="url(#pb57ebe01e5)" style="fill: #b3e2cd; fill-opacity: 0.65"/>
   </g>
   <g id="PatchCollection_2">
    <path d="M 343.1634 525.903758 
L 343.071982 526.283028 
L 342.511589 526.304756 
L 343.1634 525.903758 
" clip-path="url(#pb57ebe01e5)" style="fill: none; stroke: #000000; stroke-width: 2"/>
    <path d="M 330.871052 532.646548 
L 330.963388 532.561261 
L 331.343237 532.801269 
L 331.731232 532.481611 
L 331.793686 531.794354 
L 332.606276 531.043803 
L 335.3806 526.907557 
L 338.077178 526.280451 
L 340.109423 526.734533 
L 342.114647 526.456691 
L 341.950788 526.564154 
L 341.636967 526.900939 
L 341.289625 527.127127 
L 341.035003 527.116422 
L 340.338182 526.845278 
L 334.949279 535.803806 
L 333.534249 534.901902 
L 331.959454 534.650734 
L 331.183471 533.69175 
L 330.650649 533.32093 
L 330.871052 532.646548 
" clip-path="url(#pb57ebe01e5)" style="fill: none; stroke: #000000; stroke-width: 2"/>
    <path d="M 342.203002 538.381287 
L 341.100936 536.534936 
L 347.15592 525.586641 
L 346.39134 525.986214 
L 346.163109 525.620886 
L 345.396279 525.371111 
L 344.708127 525.706504 
L 344.514127 526.026164 
L 344.104735 526.140327 
L 343.728153 525.663686 
L 343.25577 525.846932 
L 344.048249 525.359395 
L 347.118069 524.29342 
L 353.833363 523.184084 
L 357.78299 520.518722 
L 359.784356 519.66966 
L 362.927712 516.56106 
L 367.023454 513.735899 
L 370.151876 513.440624 
L 372.63443 512.812644 
L 374.252785 511.361418 
L 375.836519 507.383092 
L 378.434159 505.460166 
L 370.779983 353.799674 
L 366.564387 353.813021 
L 365.288108 351.965838 
L 364.367072 346.54932 
L 364.449389 344.548202 
L 364.995679 342.879006 
L 365.22173 341.04324 
L 364.81129 339.257031 
L 365.487826 335.818192 
L 365.055946 334.084178 
L 363.6384 333.016819 
L 366.641622 333.227052 
L 368.076136 333.116565 
L 370.216743 331.75024 
L 370.564754 331.246776 
L 373.648864 331.534728 
L 377.020641 331.472048 
L 378.992453 332.868804 
L 379.9882 332.641717 
L 386.265371 334.241911 
L 388.579742 333.569579 
L 389.882987 333.376895 
L 390.985031 333.629288 
L 391.99549 332.745421 
L 393.150611 332.292401 
L 393.681629 332.312913 
L 394.013267 332.89196 
L 395.941602 334.151276 
L 401.360247 328.057801 
L 402.272671 327.841961 
L 402.775419 326.652774 
L 402.987364 325.479955 
L 402.83196 324.471383 
L 404.316897 322.569673 
L 405.426053 325.703905 
L 408.854204 328.211122 
L 416.230782 331.668537 
L 420.735849 332.598715 
L 448.168546 320.738705 
L 452.136466 342.240275 
L 451.473805 345.873478 
L 449.428911 347.048709 
L 449.080844 350.18266 
L 448.478978 352.598414 
L 447.884362 353.04094 
L 446.47034 354.61517 
L 445.331871 356.472326 
L 444.222407 357.531485 
L 441.749681 359.388641 
L 440.357413 359.99802 
L 438.57357 360.759745 
L 436.144352 362.290447 
L 435.71652 362.373874 
L 434.215481 362.239666 
L 433.519347 362.301329 
L 432.090821 362.740227 
L 431.325799 362.707582 
L 431.017615 362.620528 
L 429.694235 362.722091 
L 429.208391 363.773996 
L 428.359978 365.304699 
L 428.048168 365.391753 
L 427.750861 365.108827 
L 427.533319 365.123336 
L 427.366537 365.261171 
L 426.953207 365.384498 
L 426.931453 365.536843 
L 427.214258 365.689188 
L 427.134492 365.827024 
L 425.967017 366.367485 
L 425.722283 366.022896 
L 425.062406 366.476303 
L 424.989892 366.900692 
L 424.808607 366.976864 
L 424.649076 366.82452 
L 424.467791 366.839029 
L 423.768031 367.448408 
L 423.7354 368.371545 
L 423.621191 368.525703 
L 423.271311 368.347968 
L 423.166166 368.516635 
L 423.198797 368.692557 
L 423.412713 369.009942 
L 423.245931 369.231205 
L 423.006635 369.289241 
L 423.024763 369.470604 
L 423.23868 369.865975 
L 423.13716 370.003811 
L 422.847104 370.221446 
L 423.042892 370.696617 
L 422.90149 370.819944 
L 421.991439 370.823571 
L 421.715886 371.135515 
L 421.29168 370.914253 
L 421.088641 371.244333 
L 420.704317 371.157279 
L 420.30549 371.106497 
L 420.102451 371.403932 
L 419.68187 371.461969 
L 419.58035 371.701368 
L 419.101758 371.839203 
L 418.688428 372.078602 
L 418.652171 372.499364 
L 418.623166 372.949144 
L 418.032177 373.580287 
L 416.484004 374.603174 
L 415.903892 374.624937 
L 413.249881 375.379407 
L 412.822049 375.314116 
L 411.292004 376.039568 
L 409.000563 379.804661 
L 408.391446 380.007788 
L 408.188407 380.181896 
L 407.767826 380.181896 
L 407.347245 380.022297 
L 407.144206 380.109351 
L 407.187714 381.197528 
L 405.998485 382.06807 
L 404.838262 382.546868 
L 404.417681 383.054684 
L 403.518508 383.257811 
L 403.286463 383.5625 
L 402.677346 383.765627 
L 402.372787 383.968753 
L 401.981212 385.492201 
L 401.241569 385.869436 
L 400.908005 386.058054 
L 400.67596 386.348234 
L 400.67596 386.681942 
L 400.908005 386.957614 
L 400.791983 387.581502 
L 400.878999 387.842665 
L 400.893502 388.292444 
L 400.748474 389.119459 
L 400.937011 389.395131 
L 401.241569 389.583748 
L 401.430105 389.85942 
L 401.415603 390.178618 
L 401.894195 390.802507 
L 402.358284 391.600504 
L 402.517815 391.832648 
L 402.532318 392.775735 
L 402.822374 393.196497 
L 403.01091 393.907439 
L 403.155938 394.168602 
L 404.330664 394.908563 
L 406.346552 395.721068 
L 407.535781 396.548083 
L 407.898351 397.128444 
L 408.086887 398.637384 
L 407.985368 399.203236 
L 408.130396 399.43538 
L 408.086887 399.59498 
L 407.593792 399.565962 
L 407.506775 399.783597 
L 407.47777 400.276904 
L 408.217412 400.828247 
L 408.449457 401.53919 
L 408.376943 401.887406 
L 408.652496 402.58384 
L 409.551669 404.52805 
L 410.015759 405.035866 
L 410.305814 405.819354 
L 410.69739 406.312661 
L 410.95844 406.907531 
L 410.856921 407.720037 
L 410.929434 408.285889 
L 411.21949 408.677633 
L 411.727088 409.112904 
L 413.235378 411.11515 
L 413.612451 411.332786 
L 414.004026 411.739039 
L 414.163557 412.290382 
L 414.43911 412.740162 
L 414.932205 413.015833 
L 415.251267 413.516395 
L 415.961903 414.074993 
L 416.143188 415.772549 
L 416.556518 416.200566 
L 416.30997 416.606818 
L 416.396987 416.846217 
L 416.186697 417.078362 
L 416.273713 417.295997 
L 416.128686 417.680487 
L 414.910451 419.037081 
L 414.932205 419.436079 
L 414.532959 420.247437 
L 414.79457 420.225627 
L 414.845439 420.392839 
L 414.736435 420.589131 
L 414.467557 420.465539 
L 414.33675 420.640023 
L 414.300416 421.039878 
L 414.075139 421.105309 
L 413.842596 421.461544 
L 413.61732 422.304875 
L 413.224903 422.857403 
L 412.730749 423.220908 
L 412.934225 423.758895 
L 412.716215 424.369584 
L 412.963292 424.80579 
L 412.948758 425.096593 
L 413.195836 425.169294 
L 413.442913 425.387397 
L 413.224903 426.201649 
L 413.283039 426.754176 
L 413.515582 427.321244 
L 413.486515 427.830151 
L 413.762659 428.135495 
L 414.111474 429.25509 
L 414.140542 431.319799 
L 413.922533 432.701118 
L 414.503891 433.58807 
L 414.16961 434.387781 
L 414.140542 434.911228 
L 414.939909 435.420135 
L 415.070715 436.161685 
L 414.576561 437.557544 
L 415.012579 438.546278 
L 415.506733 438.342715 
L 415.884616 439.360529 
L 415.623005 440.232941 
L 414.489357 441.599719 
L 413.777193 446.74695 
L 413.966135 446.935972 
L 413.878931 447.139535 
L 414.213212 447.183156 
L 414.387619 447.4885 
L 414.736434 447.764764 
L 414.79457 448.375452 
L 414.474823 448.753497 
L 414.736434 448.95706 
L 414.518425 449.087922 
L 414.445755 449.291485 
L 414.562027 449.436887 
L 414.431221 449.68407 
L 414.692832 450.091195 
L 414.736434 450.367459 
L 414.431221 451.021768 
L 414.431221 451.399813 
L 414.620162 451.763318 
L 415.085249 451.90872 
L 415.82648 452.519409 
L 416.189829 453.900728 
L 416.509575 454.627738 
L 416.364236 455.834574 
L 415.870082 456.343481 
L 415.957285 456.794227 
L 416.277032 457.215893 
L 416.146227 457.274054 
L 416.131693 457.404916 
L 416.277032 457.463076 
L 416.262498 457.623019 
L 416.669449 458.190086 
L 416.872924 458.786234 
L 417.032798 459.062498 
L 417.41068 458.844395 
L 417.614155 459.266061 
L 417.672291 459.658646 
L 417.8903 459.862209 
L 418.10831 459.745888 
L 418.355387 459.862209 
L 418.573396 460.371116 
L 418.718735 460.429277 
L 418.99488 460.414737 
L 419.082084 460.749161 
L 419.023948 461.199907 
L 419.430899 461.737895 
L 419.125686 461.752435 
L 419.154754 462.159561 
L 419.387297 462.334043 
L 418.893143 463.410018 
L 418.820473 463.773523 
L 419.316941 464.595596 
L 419.358229 464.631394 
L 419.169288 464.733176 
L 419.169288 465.00944 
L 419.445433 465.154842 
L 419.183822 465.213002 
L 419.169288 465.474726 
L 419.300093 465.75099 
L 419.14022 465.809151 
L 419.14022 465.969093 
L 419.503569 465.910932 
L 419.590772 466.012713 
L 419.314627 466.158115 
L 419.532636 466.318057 
L 419.677976 466.797884 
L 420.477343 467.902939 
L 421.654593 467.466733 
L 422.134213 467.888399 
L 422.788241 468.993454 
L 423.00625 469.182477 
L 422.875444 469.4442 
L 422.904512 469.691384 
L 423.166123 469.575062 
L 423.340531 469.764085 
L 423.296929 469.924027 
L 423.616676 470.200291 
L 423.936422 470.083969 
L 424.372441 470.578336 
L 424.953799 470.89822 
L 425.186342 471.523449 
L 425.680496 472.017815 
L 425.927573 473.122871 
L 425.811302 473.500916 
L 425.825836 473.878961 
L 426.87228 475.187579 
L 427.366434 475.740106 
L 427.598977 476.292634 
L 427.526307 477.194126 
L 427.744317 477.252287 
L 427.671647 478.21194 
L 428.020462 478.822629 
L 428.543684 479.796822 
L 428.049529 479.549639 
L 427.657113 480.160327 
L 427.787918 481.018199 
L 427.613511 481.527106 
L 427.802452 481.657967 
L 427.875122 481.352623 
L 428.165801 481.788829 
L 427.90419 481.963312 
L 428.020462 482.472219 
L 428.282073 482.733942 
L 428.543684 483.402791 
L 428.543684 483.897158 
L 429.48839 485.50385 
L 429.292182 485.51839 
L 429.306716 485.714683 
L 429.473856 485.932786 
L 429.815404 486.361722 
L 429.757268 487.532208 
L 429.524725 487.481317 
L 429.41572 488.244677 
L 429.328517 488.484591 
L 429.510191 488.542752 
L 429.473856 488.993498 
L 429.204978 488.906257 
L 428.805295 490.004042 
L 428.965168 490.542029 
L 428.943367 490.709241 
L 429.183177 490.992775 
L 429.277648 491.116367 
L 429.24858 491.3272 
L 429.553793 491.741595 
L 430.171486 490.949155 
L 430.18602 491.021856 
L 430.316825 491.021855 
L 430.505766 491.501682 
L 431.159794 492.170531 
L 431.348735 492.141451 
L 431.246998 492.359554 
L 431.319667 492.941162 
L 431.319667 493.726333 
L 431.857424 494.453342 
L 431.871957 494.875008 
L 431.944627 495.093111 
L 432.089967 495.107651 
L 431.988229 495.369375 
L 432.162636 495.689259 
L 432.424247 495.76196 
L 432.511451 495.936443 
L 432.714926 495.950983 
L 432.743994 496.314488 
L 432.496917 496.779774 
L 433.063741 497.303221 
L 433.005605 497.579485 
L 433.28175 497.594025 
L 433.325352 497.92845 
L 435.56358 498.65546 
L 435.781589 499.237068 
L 435.970531 499.222528 
L 436.450151 499.615113 
L 437.07511 499.484251 
L 437.656468 499.760515 
L 437.976215 499.760515 
L 439.35694 500.472985 
L 439.574949 500.720168 
L 440.112705 500.85103 
L 440.374316 501.170914 
L 440.824869 501.389017 
L 441.5661 501.54896 
L 441.646037 501.352667 
L 441.864046 501.352667 
L 442.270997 501.112754 
L 442.481739 501.054593 
L 442.772418 500.669277 
L 443.513649 500.85103 
L 443.811595 501.323586 
L 443.986002 501.396287 
L 444.116808 501.265426 
L 444.552826 501.59985 
L 445.206854 502.443182 
L 445.228655 502.712175 
L 445.584736 502.763066 
L 445.570202 502.828497 
L 445.446664 503.184732 
L 445.759144 503.381025 
L 445.979061 503.893807 
L 447.104576 506.229844 
L 442.697722 510.15469 
L 445.372264 514.818041 
L 450.575703 510.183717 
L 450.816957 510.294889 
L 451.296578 510.731095 
L 451.136704 510.854687 
L 451.231175 510.883767 
L 451.26988 511.109671 
L 445.100392 518.129431 
L 443.984457 517.078688 
L 440.016662 521.544373 
L 436.710169 518.401852 
L 432.57705 521.544371 
L 433.403673 524.190704 
L 440.677959 529.648766 
L 442.000557 528.160205 
L 442.661857 524.02531 
L 440.512637 521.875165 
L 444.598822 520.476659 
L 450.729834 527.452646 
L 455.55863 521.001942 
L 460.212172 524.052852 
L 461.368603 523.708223 
L 461.245064 523.831814 
L 461.128793 524.057188 
L 461.3032 524.093538 
L 461.354069 524.566094 
L 461.463074 524.507934 
L 461.710151 524.478853 
L 461.942694 524.900519 
L 462.182504 524.93687 
L 462.153436 525.067731 
L 462.269708 525.314915 
L 462.153436 525.547558 
L 462.371445 525.874712 
L 462.284242 526.129166 
L 462.48045 526.529021 
L 462.901934 526.601722 
L 463.010939 526.46359 
L 463.19988 526.470861 
L 463.592297 526.216407 
L 463.846641 526.281838 
L 464.195456 526.281838 
L 464.384397 526.369079 
L 464.384397 526.543562 
L 464.500668 526.630803 
L 464.893085 526.485401 
L 465.140162 526.674423 
L 465.561647 526.572642 
L 465.837792 526.718044 
L 466.186606 526.558102 
L 466.172072 527.125169 
L 466.89877 527.648617 
L 467.741739 527.226951 
L 469.078862 527.18333 
L 469.209667 526.965227 
L 469.878229 526.499941 
L 469.747423 526.223677 
L 470.663062 526.296378 
L 470.713931 526.107356 
L 470.583125 525.642069 
L 470.881071 525.67115 
L 471.389759 525.896523 
L 471.615036 525.932873 
L 471.716773 525.794741 
L 472.101923 525.867442 
L 472.043787 525.983764 
L 472.356267 526.085545 
L 473.053896 525.932873 
L 473.003027 525.765661 
L 473.184702 525.72204 
L 473.424512 525.525748 
L 473.722458 525.620259 
L 473.831462 525.867442 
L 473.889598 526.012844 
L 474.042205 526.012844 
L 474.056739 525.860172 
L 475.299391 526.085545 
L 475.270323 526.260028 
L 475.873482 526.550832 
L 475.938885 526.754394 
L 476.084224 526.819825 
L 476.324034 526.747124 
L 477.087067 527.619536 
L 477.057999 528.288385 
L 477.31961 528.64462 
L 477.508551 528.702781 
L 477.414326 528.906471 
L 477.508806 529.110055 
L 477.726838 529.051888 
L 477.87946 529.211847 
L 478.032082 529.248201 
L 478.242846 529.757161 
L 478.446343 529.684452 
L 478.671642 529.800786 
L 478.962351 530.157057 
L 479.311202 530.331558 
L 479.689123 530.273391 
L 479.856281 530.527871 
L 479.936226 530.731454 
L 481.055455 531.145893 
L 481.1354 531.327664 
L 481.288023 531.538519 
L 481.716818 532.083833 
L 482.014795 531.97477 
L 482.806977 532.556438 
L 482.82878 532.83273 
L 483.068615 532.854543 
L 483.620962 533.647065 
L 484.100632 533.494378 
L 484.289593 533.581628 
L 484.325931 533.887003 
L 484.652979 534.250546 
L 485.067239 534.2869 
L 485.981776 534.706609 
L 451.175694 562.42473 
L 450.466029 562.50814 
L 450.151625 562.703985 
L 449.303327 562.94533 
L 448.753614 563.736624 
L 448.31859 563.625843 
L 448.097123 563.447802 
L 447.923113 562.27273 
L 447.81238 562.462641 
L 447.634415 562.458684 
L 447.606732 562.838505 
L 447.546421 562.863233 
L 447.783707 564.108532 
L 447.672974 564.322181 
L 447.214221 564.535831 
L 447.182583 564.674307 
L 447.032301 564.650568 
L 446.506317 565.054128 
L 446.213664 565.105562 
L 444.600119 564.634743 
L 438.138027 562.909722 
L 437.884922 562.577378 
L 438.343675 562.324164 
L 434.404726 561.07392 
L 434.349359 560.836532 
L 435.160087 560.666404 
L 435.345961 560.282626 
L 435.879854 560.33406 
L 436.069683 560.156019 
L 436.306969 559.653547 
L 436.773632 559.72872 
L 438.240851 560.583318 
L 438.027294 559.768285 
L 437.683229 559.309334 
L 437.651591 558.834558 
L 437.932379 558.553649 
L 438.126163 558.569475 
L 438.383223 558.177784 
L 438.636328 558.074916 
L 438.927004 558.128328 
L 439.510332 557.683225 
L 439.472762 557.447815 
L 439.298752 557.15108 
L 439.24734 556.822693 
L 439.623043 556.379569 
L 440.01061 556.229223 
L 439.899877 555.979965 
L 439.638862 555.720816 
L 439.571631 554.314292 
L 439.67841 553.926557 
L 440.030384 553.431999 
L 440.500013 553.315283 
L 440.3962 553.305392 
L 440.218235 553.108557 
L 440.221202 553.046243 
L 440.125298 553.115481 
L 439.997757 552.978983 
L 440.227134 552.592238 
L 440.403121 552.267808 
L 440.16979 552.530913 
L 439.768381 552.621912 
L 439.716969 552.675324 
L 439.495502 552.669389 
L 439.51923 552.774236 
L 439.461886 552.855343 
L 439.30765 552.827648 
L 439.058005 553.016569 
L 438.893882 552.90381 
L 438.937385 552.864245 
L 438.374819 551.910736 
L 438.131601 551.993822 
L 437.951659 552.102625 
L 437.918043 552.383534 
L 438.076234 552.838528 
L 437.967478 552.840507 
L 438.05646 553.186698 
L 438.337249 553.319239 
L 438.453914 553.885015 
L 438.47962 554.796981 
L 438.65363 554.891936 
L 438.542897 555.07789 
L 438.403491 555.677295 
L 438.120725 555.898858 
L 437.843891 556.44485 
L 437.926941 556.603109 
L 437.796434 556.864236 
L 437.290224 556.903801 
L 437.025254 557.157015 
L 437.040085 557.593216 
L 436.618902 558.058101 
L 435.036994 558.402314 
L 434.736432 558.155034 
L 434.704794 557.923581 
L 434.366661 556.865225 
L 433.02204 556.271755 
L 432.729387 555.868195 
L 432.745206 555.662459 
L 432.537581 554.335063 
L 432.411028 554.382541 
L 432.308204 555.20153 
L 432.395209 555.407266 
L 432.177697 555.755436 
L 431.991823 555.747523 
L 426.809412 555.947432 
L 426.534959 556.706472 
L 432.921782 556.762994 
L 433.245484 557.116461 
L 433.336444 557.411878 
L 433.004243 558.2612 
L 433.315352 558.63047 
L 433.39972 559.041943 
L 432.766957 560.431983 
L 432.186925 560.777514 
L 431.311603 560.774877 
L 427.08 561.998745 
L 417.166714 564.573088 
L 417.659352 563.544112 
L 420.659783 556.636949 
L 421.486467 547.374299 
L 421.274962 547.750813 
L 420.590255 548.116141 
L 419.780019 548.264557 
L 418.946961 548.287389 
L 417.269431 547.979141 
L 416.584725 547.488229 
L 415.512019 547.248481 
L 414.542384 546.547272 
L 412.396597 563.026143 
L 411.460832 562.843477 
L 410.000126 562.249815 
L 408.375219 561.888572 
L 408.5903 560.606646 
L 410.068607 546.894566 
L 409.503725 546.854607 
L 408.66496 546.683358 
L 408.295746 547.002812 
L 407.968842 547.105769 
L 407.540901 546.883146 
L 407.267018 546.968771 
L 407.004548 546.768981 
L 406.565195 546.614858 
L 406.468196 546.30661 
L 406.234255 546.437901 
L 405.886196 546.472151 
L 405.680783 546.917396 
L 405.121606 547.493931 
L 404.482547 547.722261 
L 403.894841 546.826061 
L 403.449784 546.803228 
L 402.968912 547.870497 
L 402.66237 547.19139 
L 402.103194 547.305555 
L 401.806488 546.974476 
L 401.4299 547.08864 
L 401.144606 546.940225 
L 400.52837 547.476802 
L 400.060489 547.134306 
L 399.672488 546.711894 
L 399.352959 547.225638 
L 398.930723 547.522467 
L 398.206077 547.425427 
L 397.778135 547.493925 
L 397.495594 547.077448 
L 397.344487 549.22924 
L 397.070604 549.800067 
L 396.157662 549.845732 
L 395.039309 550.165395 
L 394.78825 550.64489 
L 394.240486 549.959896 
L 393.236251 549.800064 
L 392.985191 550.599221 
L 392.688485 550.804719 
L 392.505898 550.233891 
L 391.866838 549.800063 
L 390.908251 549.297734 
L 390.497427 549.274901 
L 389.99531 549.822894 
L 388.603075 548.90957 
L 386.617428 549.137898 
L 386.663074 549.914224 
L 387.507544 550.507885 
L 386.868486 550.62205 
L 385.750132 550.530716 
L 385.54472 550.644882 
L 386.223719 552.460111 
L 386.024013 552.814024 
L 385.664542 552.779775 
L 385.211095 552.99752 
L 380.859821 549.158141 
L 376.874666 544.391659 
L 376.526528 545.178771 
L 376.859817 541.694625 
L 359.319971 539.682711 
L 360.265314 531.932636 
L 358.944416 531.72203 
L 355.008297 531.792842 
L 353.378923 544.414724 
L 354.474429 545.236712 
L 355.706874 546.332695 
L 355.729695 546.880683 
L 356.30027 547.565671 
L 354.953701 548.547479 
L 352.968088 548.387639 
L 352.146457 548.159308 
L 351.187887 548.022306 
L 349.854698 542.897794 
L 349.193405 534.627613 
L 345.886738 534.958404 
L 346.548033 543.063183 
L 341.541828 541.000901 
L 341.033262 540.549967 
L 342.203002 538.381287 
M 451.424066 527.498625 
L 446.464324 530.310352 
L 445.803025 529.317977 
L 443.984453 530.310351 
L 446.794972 535.10683 
L 453.242637 531.302728 
L 451.424066 527.498625 
M 393.725738 527.664005 
L 392.403139 531.633503 
L 394.221711 531.633504 
L 395.21366 528.160193 
L 393.725738 527.664005 
M 435.883548 506.32796 
L 434.064973 516.417103 
L 440.512637 517.409479 
L 442.331212 507.320337 
L 435.883548 506.32796 
M 415.052632 506.327955 
L 414.391332 513.936161 
L 421.665619 514.763141 
L 422.161595 506.98954 
L 415.052632 506.327955 
M 407.778345 504.839391 
L 405.463797 512.778388 
L 410.754188 514.101555 
L 413.068736 506.327954 
L 407.778345 504.839391 
L 407.778345 504.839391 
" clip-path="url(#pb57ebe01e5)" style="fill: none; stroke: #000000; stroke-width: 2"/>
   </g>
   <g id="matplotlib.axis_1">
    <g id="xtick_1">
     <g id="line2d_1">
      <path d="M 183.058467 635.303953 
L 183.058467 237.336047 
" clip-path="url(#pb57ebe01e5)" style="fill: none; stroke: #b0b0b0; stroke-width: 0.8; stroke-linecap: square"/>
     </g>
     <g id="line2d_2">
      <defs>
       <path id="m29030ea731" d="M 0 0 
L 0 3.5 
" style="stroke: #000000; stroke-width: 0.8"/>
      </defs>
      <g>
       <use xlink:href="#m29030ea731" x="183.058467" y="635.303953" style="stroke: #000000; stroke-width: 0.8"/>
      </g>
     </g>
     <g id="text_1">
      <!-- −56.0 -->
      <g transform="translate(174.174885 669.346368) rotate(-45) scale(0.1 -0.1)">
       <defs>
        <path id="DejaVuSans-2212" d="M 678 2272 
L 4684 2272 
L 4684 1741 
L 678 1741 
L 678 2272 
z
" transform="scale(0.015625)"/>
        <path id="DejaVuSans-35" d="M 691 4666 
L 3169 4666 
L 3169 4134 
L 1269 4134 
L 1269 2991 
Q 1406 3038 1543 3061 
Q 1681 3084 1819 3084 
Q 2600 3084 3056 2656 
Q 3513 2228 3513 1497 
Q 3513 744 3044 326 
Q 2575 -91 1722 -91 
Q 1428 -91 1123 -41 
Q 819 9 494 109 
L 494 744 
Q 775 591 1075 516 
Q 1375 441 1709 441 
Q 2250 441 2565 725 
Q 2881 1009 2881 1497 
Q 2881 1984 2565 2268 
Q 2250 2553 1709 2553 
Q 1456 2553 1204 2497 
Q 953 2441 691 2322 
L 691 4666 
z
" transform="scale(0.015625)"/>
        <path id="DejaVuSans-36" d="M 2113 2584 
Q 1688 2584 1439 2293 
Q 1191 2003 1191 1497 
Q 1191 994 1439 701 
Q 1688 409 2113 409 
Q 2538 409 2786 701 
Q 3034 994 3034 1497 
Q 3034 2003 2786 2293 
Q 2538 2584 2113 2584 
z
M 3366 4563 
L 3366 3988 
Q 3128 4100 2886 4159 
Q 2644 4219 2406 4219 
Q 1781 4219 1451 3797 
Q 1122 3375 1075 2522 
Q 1259 2794 1537 2939 
Q 1816 3084 2150 3084 
Q 2853 3084 3261 2657 
Q 3669 2231 3669 1497 
Q 3669 778 3244 343 
Q 2819 -91 2113 -91 
Q 1303 -91 875 529 
Q 447 1150 447 2328 
Q 447 3434 972 4092 
Q 1497 4750 2381 4750 
Q 2619 4750 2861 4703 
Q 3103 4656 3366 4563 
z
" transform="scale(0.015625)"/>
        <path id="DejaVuSans-2e" d="M 684 794 
L 1344 794 
L 1344 0 
L 684 0 
L 684 794 
z
" transform="scale(0.015625)"/>
        <path id="DejaVuSans-30" d="M 2034 4250 
Q 1547 4250 1301 3770 
Q 1056 3291 1056 2328 
Q 1056 1369 1301 889 
Q 1547 409 2034 409 
Q 2525 409 2770 889 
Q 3016 1369 3016 2328 
Q 3016 3291 2770 3770 
Q 2525 4250 2034 4250 
z
M 2034 4750 
Q 2819 4750 3233 4129 
Q 3647 3509 3647 2328 
Q 3647 1150 3233 529 
Q 2819 -91 2034 -91 
Q 1250 -91 836 529 
Q 422 1150 422 2328 
Q 422 3509 836 4129 
Q 1250 4750 2034 4750 
z
" transform="scale(0.015625)"/>
       </defs>
       <use xlink:href="#DejaVuSans-2212"/>
       <use xlink:href="#DejaVuSans-35" transform="translate(83.789062 0)"/>
       <use xlink:href="#DejaVuSans-36" transform="translate(147.412109 0)"/>
       <use xlink:href="#DejaVuSans-2e" transform="translate(211.035156 0)"/>
       <use xlink:href="#DejaVuSans-30" transform="translate(242.822266 0)"/>
      </g>
     </g>
    </g>
    <g id="xtick_2">
     <g id="line2d_3">
      <path d="M 302.091497 635.303953 
L 302.091497 237.336047 
" clip-path="url(#pb57ebe01e5)" style="fill: none; stroke: #b0b0b0; stroke-width: 0.8; stroke-linecap: square"/>
     </g>
     <g id="line2d_4">
      <g>
       <use xlink:href="#m29030ea731" x="302.091497" y="635.303953" style="stroke: #000000; stroke-width: 0.8"/>
      </g>
     </g>
     <g id="text_2">
      <!-- −55.8 -->
      <g transform="translate(293.207916 669.346368) rotate(-45) scale(0.1 -0.1)">
       <defs>
        <path id="DejaVuSans-38" d="M 2034 2216 
Q 1584 2216 1326 1975 
Q 1069 1734 1069 1313 
Q 1069 891 1326 650 
Q 1584 409 2034 409 
Q 2484 409 2743 651 
Q 3003 894 3003 1313 
Q 3003 1734 2745 1975 
Q 2488 2216 2034 2216 
z
M 1403 2484 
Q 997 2584 770 2862 
Q 544 3141 544 3541 
Q 544 4100 942 4425 
Q 1341 4750 2034 4750 
Q 2731 4750 3128 4425 
Q 3525 4100 3525 3541 
Q 3525 3141 3298 2862 
Q 3072 2584 2669 2484 
Q 3125 2378 3379 2068 
Q 3634 1759 3634 1313 
Q 3634 634 3220 271 
Q 2806 -91 2034 -91 
Q 1263 -91 848 271 
Q 434 634 434 1313 
Q 434 1759 690 2068 
Q 947 2378 1403 2484 
z
M 1172 3481 
Q 1172 3119 1398 2916 
Q 1625 2713 2034 2713 
Q 2441 2713 2670 2916 
Q 2900 3119 2900 3481 
Q 2900 3844 2670 4047 
Q 2441 4250 2034 4250 
Q 1625 4250 1398 4047 
Q 1172 3844 1172 3481 
z
" transform="scale(0.015625)"/>
       </defs>
       <use xlink:href="#DejaVuSans-2212"/>
       <use xlink:href="#DejaVuSans-35" transform="translate(83.789062 0)"/>
       <use xlink:href="#DejaVuSans-35" transform="translate(147.412109 0)"/>
       <use xlink:href="#DejaVuSans-2e" transform="translate(211.035156 0)"/>
       <use xlink:href="#DejaVuSans-38" transform="translate(242.822266 0)"/>
      </g>
     </g>
    </g>
    <g id="xtick_3">
     <g id="line2d_5">
      <path d="M 421.124528 635.303953 
L 421.124528 237.336047 
" clip-path="url(#pb57ebe01e5)" style="fill: none; stroke: #b0b0b0; stroke-width: 0.8; stroke-linecap: square"/>
     </g>
     <g id="line2d_6">
      <g>
       <use xlink:href="#m29030ea731" x="421.124528" y="635.303953" style="stroke: #000000; stroke-width: 0.8"/>
      </g>
     </g>
     <g id="text_3">
      <!-- −55.6 -->
      <g transform="translate(412.240946 669.346368) rotate(-45) scale(0.1 -0.1)">
       <use xlink:href="#DejaVuSans-2212"/>
       <use xlink:href="#DejaVuSans-35" transform="translate(83.789062 0)"/>
       <use xlink:href="#DejaVuSans-35" transform="translate(147.412109 0)"/>
       <use xlink:href="#DejaVuSans-2e" transform="translate(211.035156 0)"/>
       <use xlink:href="#DejaVuSans-36" transform="translate(242.822266 0)"/>
      </g>
     </g>
    </g>
    <g id="xtick_4">
     <g id="line2d_7">
      <path d="M 540.157558 635.303953 
L 540.157558 237.336047 
" clip-path="url(#pb57ebe01e5)" style="fill: none; stroke: #b0b0b0; stroke-width: 0.8; stroke-linecap: square"/>
     </g>
     <g id="line2d_8">
      <g>
       <use xlink:href="#m29030ea731" x="540.157558" y="635.303953" style="stroke: #000000; stroke-width: 0.8"/>
      </g>
     </g>
     <g id="text_4">
      <!-- −55.4 -->
      <g transform="translate(531.273977 669.346368) rotate(-45) scale(0.1 -0.1)">
       <defs>
        <path id="DejaVuSans-34" d="M 2419 4116 
L 825 1625 
L 2419 1625 
L 2419 4116 
z
M 2253 4666 
L 3047 4666 
L 3047 1625 
L 3713 1625 
L 3713 1100 
L 3047 1100 
L 3047 0 
L 2419 0 
L 2419 1100 
L 313 1100 
L 313 1709 
L 2253 4666 
z
" transform="scale(0.015625)"/>
       </defs>
       <use xlink:href="#DejaVuSans-2212"/>
       <use xlink:href="#DejaVuSans-35" transform="translate(83.789062 0)"/>
       <use xlink:href="#DejaVuSans-35" transform="translate(147.412109 0)"/>
       <use xlink:href="#DejaVuSans-2e" transform="translate(211.035156 0)"/>
       <use xlink:href="#DejaVuSans-34" transform="translate(242.822266 0)"/>
      </g>
     </g>
    </g>
    <g id="text_5">
     <!-- Longitude (°) -->
     <g transform="translate(336.139844 682.415366) scale(0.1 -0.1)">
      <defs>
       <path id="DejaVuSans-4c" d="M 628 4666 
L 1259 4666 
L 1259 531 
L 3531 531 
L 3531 0 
L 628 0 
L 628 4666 
z
" transform="scale(0.015625)"/>
       <path id="DejaVuSans-6f" d="M 1959 3097 
Q 1497 3097 1228 2736 
Q 959 2375 959 1747 
Q 959 1119 1226 758 
Q 1494 397 1959 397 
Q 2419 397 2687 759 
Q 2956 1122 2956 1747 
Q 2956 2369 2687 2733 
Q 2419 3097 1959 3097 
z
M 1959 3584 
Q 2709 3584 3137 3096 
Q 3566 2609 3566 1747 
Q 3566 888 3137 398 
Q 2709 -91 1959 -91 
Q 1206 -91 779 398 
Q 353 888 353 1747 
Q 353 2609 779 3096 
Q 1206 3584 1959 3584 
z
" transform="scale(0.015625)"/>
       <path id="DejaVuSans-6e" d="M 3513 2113 
L 3513 0 
L 2938 0 
L 2938 2094 
Q 2938 2591 2744 2837 
Q 2550 3084 2163 3084 
Q 1697 3084 1428 2787 
Q 1159 2491 1159 1978 
L 1159 0 
L 581 0 
L 581 3500 
L 1159 3500 
L 1159 2956 
Q 1366 3272 1645 3428 
Q 1925 3584 2291 3584 
Q 2894 3584 3203 3211 
Q 3513 2838 3513 2113 
z
" transform="scale(0.015625)"/>
       <path id="DejaVuSans-67" d="M 2906 1791 
Q 2906 2416 2648 2759 
Q 2391 3103 1925 3103 
Q 1463 3103 1205 2759 
Q 947 2416 947 1791 
Q 947 1169 1205 825 
Q 1463 481 1925 481 
Q 2391 481 2648 825 
Q 2906 1169 2906 1791 
z
M 3481 434 
Q 3481 -459 3084 -895 
Q 2688 -1331 1869 -1331 
Q 1566 -1331 1297 -1286 
Q 1028 -1241 775 -1147 
L 775 -588 
Q 1028 -725 1275 -790 
Q 1522 -856 1778 -856 
Q 2344 -856 2625 -561 
Q 2906 -266 2906 331 
L 2906 616 
Q 2728 306 2450 153 
Q 2172 0 1784 0 
Q 1141 0 747 490 
Q 353 981 353 1791 
Q 353 2603 747 3093 
Q 1141 3584 1784 3584 
Q 2172 3584 2450 3431 
Q 2728 3278 2906 2969 
L 2906 3500 
L 3481 3500 
L 3481 434 
z
" transform="scale(0.015625)"/>
       <path id="DejaVuSans-69" d="M 603 3500 
L 1178 3500 
L 1178 0 
L 603 0 
L 603 3500 
z
M 603 4863 
L 1178 4863 
L 1178 4134 
L 603 4134 
L 603 4863 
z
" transform="scale(0.015625)"/>
       <path id="DejaVuSans-74" d="M 1172 4494 
L 1172 3500 
L 2356 3500 
L 2356 3053 
L 1172 3053 
L 1172 1153 
Q 1172 725 1289 603 
Q 1406 481 1766 481 
L 2356 481 
L 2356 0 
L 1766 0 
Q 1100 0 847 248 
Q 594 497 594 1153 
L 594 3053 
L 172 3053 
L 172 3500 
L 594 3500 
L 594 4494 
L 1172 4494 
z
" transform="scale(0.015625)"/>
       <path id="DejaVuSans-75" d="M 544 1381 
L 544 3500 
L 1119 3500 
L 1119 1403 
Q 1119 906 1312 657 
Q 1506 409 1894 409 
Q 2359 409 2629 706 
Q 2900 1003 2900 1516 
L 2900 3500 
L 3475 3500 
L 3475 0 
L 2900 0 
L 2900 538 
Q 2691 219 2414 64 
Q 2138 -91 1772 -91 
Q 1169 -91 856 284 
Q 544 659 544 1381 
z
M 1991 3584 
L 1991 3584 
z
" transform="scale(0.015625)"/>
       <path id="DejaVuSans-64" d="M 2906 2969 
L 2906 4863 
L 3481 4863 
L 3481 0 
L 2906 0 
L 2906 525 
Q 2725 213 2448 61 
Q 2172 -91 1784 -91 
Q 1150 -91 751 415 
Q 353 922 353 1747 
Q 353 2572 751 3078 
Q 1150 3584 1784 3584 
Q 2172 3584 2448 3432 
Q 2725 3281 2906 2969 
z
M 947 1747 
Q 947 1113 1208 752 
Q 1469 391 1925 391 
Q 2381 391 2643 752 
Q 2906 1113 2906 1747 
Q 2906 2381 2643 2742 
Q 2381 3103 1925 3103 
Q 1469 3103 1208 2742 
Q 947 2381 947 1747 
z
" transform="scale(0.015625)"/>
       <path id="DejaVuSans-65" d="M 3597 1894 
L 3597 1613 
L 953 1613 
Q 991 1019 1311 708 
Q 1631 397 2203 397 
Q 2534 397 2845 478 
Q 3156 559 3463 722 
L 3463 178 
Q 3153 47 2828 -22 
Q 2503 -91 2169 -91 
Q 1331 -91 842 396 
Q 353 884 353 1716 
Q 353 2575 817 3079 
Q 1281 3584 2069 3584 
Q 2775 3584 3186 3129 
Q 3597 2675 3597 1894 
z
M 3022 2063 
Q 3016 2534 2758 2815 
Q 2500 3097 2075 3097 
Q 1594 3097 1305 2825 
Q 1016 2553 972 2059 
L 3022 2063 
z
" transform="scale(0.015625)"/>
       <path id="DejaVuSans-20" transform="scale(0.015625)"/>
       <path id="DejaVuSans-28" d="M 1984 4856 
Q 1566 4138 1362 3434 
Q 1159 2731 1159 2009 
Q 1159 1288 1364 580 
Q 1569 -128 1984 -844 
L 1484 -844 
Q 1016 -109 783 600 
Q 550 1309 550 2009 
Q 550 2706 781 3412 
Q 1013 4119 1484 4856 
L 1984 4856 
z
" transform="scale(0.015625)"/>
       <path id="DejaVuSans-b0" d="M 1600 4347 
Q 1350 4347 1178 4173 
Q 1006 4000 1006 3750 
Q 1006 3503 1178 3333 
Q 1350 3163 1600 3163 
Q 1850 3163 2022 3333 
Q 2194 3503 2194 3750 
Q 2194 3997 2020 4172 
Q 1847 4347 1600 4347 
z
M 1600 4750 
Q 1800 4750 1984 4673 
Q 2169 4597 2303 4453 
Q 2447 4313 2519 4134 
Q 2591 3956 2591 3750 
Q 2591 3338 2302 3052 
Q 2013 2766 1594 2766 
Q 1172 2766 890 3047 
Q 609 3328 609 3750 
Q 609 4169 896 4459 
Q 1184 4750 1600 4750 
z
" transform="scale(0.015625)"/>
       <path id="DejaVuSans-29" d="M 513 4856 
L 1013 4856 
Q 1481 4119 1714 3412 
Q 1947 2706 1947 2009 
Q 1947 1309 1714 600 
Q 1481 -109 1013 -844 
L 513 -844 
Q 928 -128 1133 580 
Q 1338 1288 1338 2009 
Q 1338 2731 1133 3434 
Q 928 4138 513 4856 
z
" transform="scale(0.015625)"/>
      </defs>
      <use xlink:href="#DejaVuSans-4c"/>
      <use xlink:href="#DejaVuSans-6f" transform="translate(53.962891 0)"/>
      <use xlink:href="#DejaVuSans-6e" transform="translate(115.144531 0)"/>
      <use xlink:href="#DejaVuSans-67" transform="translate(178.523438 0)"/>
      <use xlink:href="#DejaVuSans-69" transform="translate(242 0)"/>
      <use xlink:href="#DejaVuSans-74" transform="translate(269.783203 0)"/>
      <use xlink:href="#DejaVuSans-75" transform="translate(308.992188 0)"/>
      <use xlink:href="#DejaVuSans-64" transform="translate(372.371094 0)"/>
      <use xlink:href="#DejaVuSans-65" transform="translate(435.847656 0)"/>
      <use xlink:href="#DejaVuSans-20" transform="translate(497.371094 0)"/>
      <use xlink:href="#DejaVuSans-28" transform="translate(529.158203 0)"/>
      <use xlink:href="#DejaVuSans-b0" transform="translate(568.171875 0)"/>
      <use xlink:href="#DejaVuSans-29" transform="translate(618.171875 0)"/>
     </g>
    </g>
   </g>
   <g id="matplotlib.axis_2">
    <g id="ytick_1">
     <g id="line2d_9">
      <path d="M 90 633.304102 
L 648 633.304102 
" clip-path="url(#pb57ebe01e5)" style="fill: none; stroke: #b0b0b0; stroke-width: 0.8; stroke-linecap: square"/>
     </g>
     <g id="line2d_10">
      <defs>
       <path id="m2d16c4a7f6" d="M 0 0 
L -3.5 0 
" style="stroke: #000000; stroke-width: 0.8"/>
      </defs>
      <g>
       <use xlink:href="#m2d16c4a7f6" x="90" y="633.304102" style="stroke: #000000; stroke-width: 0.8"/>
      </g>
     </g>
     <g id="text_6">
      <!-- −2.0 -->
      <g transform="translate(58.717187 637.103321) scale(0.1 -0.1)">
       <defs>
        <path id="DejaVuSans-32" d="M 1228 531 
L 3431 531 
L 3431 0 
L 469 0 
L 469 531 
Q 828 903 1448 1529 
Q 2069 2156 2228 2338 
Q 2531 2678 2651 2914 
Q 2772 3150 2772 3378 
Q 2772 3750 2511 3984 
Q 2250 4219 1831 4219 
Q 1534 4219 1204 4116 
Q 875 4013 500 3803 
L 500 4441 
Q 881 4594 1212 4672 
Q 1544 4750 1819 4750 
Q 2544 4750 2975 4387 
Q 3406 4025 3406 3419 
Q 3406 3131 3298 2873 
Q 3191 2616 2906 2266 
Q 2828 2175 2409 1742 
Q 1991 1309 1228 531 
z
" transform="scale(0.015625)"/>
       </defs>
       <use xlink:href="#DejaVuSans-2212"/>
       <use xlink:href="#DejaVuSans-32" transform="translate(83.789062 0)"/>
       <use xlink:href="#DejaVuSans-2e" transform="translate(147.412109 0)"/>
       <use xlink:href="#DejaVuSans-30" transform="translate(179.199219 0)"/>
      </g>
     </g>
    </g>
    <g id="ytick_2">
     <g id="line2d_11">
      <path d="M 90 573.761985 
L 648 573.761985 
" clip-path="url(#pb57ebe01e5)" style="fill: none; stroke: #b0b0b0; stroke-width: 0.8; stroke-linecap: square"/>
     </g>
     <g id="line2d_12">
      <g>
       <use xlink:href="#m2d16c4a7f6" x="90" y="573.761985" style="stroke: #000000; stroke-width: 0.8"/>
      </g>
     </g>
     <g id="text_7">
      <!-- −1.9 -->
      <g transform="translate(58.717187 577.561204) scale(0.1 -0.1)">
       <defs>
        <path id="DejaVuSans-31" d="M 794 531 
L 1825 531 
L 1825 4091 
L 703 3866 
L 703 4441 
L 1819 4666 
L 2450 4666 
L 2450 531 
L 3481 531 
L 3481 0 
L 794 0 
L 794 531 
z
" transform="scale(0.015625)"/>
        <path id="DejaVuSans-39" d="M 703 97 
L 703 672 
Q 941 559 1184 500 
Q 1428 441 1663 441 
Q 2288 441 2617 861 
Q 2947 1281 2994 2138 
Q 2813 1869 2534 1725 
Q 2256 1581 1919 1581 
Q 1219 1581 811 2004 
Q 403 2428 403 3163 
Q 403 3881 828 4315 
Q 1253 4750 1959 4750 
Q 2769 4750 3195 4129 
Q 3622 3509 3622 2328 
Q 3622 1225 3098 567 
Q 2575 -91 1691 -91 
Q 1453 -91 1209 -44 
Q 966 3 703 97 
z
M 1959 2075 
Q 2384 2075 2632 2365 
Q 2881 2656 2881 3163 
Q 2881 3666 2632 3958 
Q 2384 4250 1959 4250 
Q 1534 4250 1286 3958 
Q 1038 3666 1038 3163 
Q 1038 2656 1286 2365 
Q 1534 2075 1959 2075 
z
" transform="scale(0.015625)"/>
       </defs>
       <use xlink:href="#DejaVuSans-2212"/>
       <use xlink:href="#DejaVuSans-31" transform="translate(83.789062 0)"/>
       <use xlink:href="#DejaVuSans-2e" transform="translate(147.412109 0)"/>
       <use xlink:href="#DejaVuSans-39" transform="translate(179.199219 0)"/>
      </g>
     </g>
    </g>
    <g id="ytick_3">
     <g id="line2d_13">
      <path d="M 90 514.219868 
L 648 514.219868 
" clip-path="url(#pb57ebe01e5)" style="fill: none; stroke: #b0b0b0; stroke-width: 0.8; stroke-linecap: square"/>
     </g>
     <g id="line2d_14">
      <g>
       <use xlink:href="#m2d16c4a7f6" x="90" y="514.219868" style="stroke: #000000; stroke-width: 0.8"/>
      </g>
     </g>
     <g id="text_8">
      <!-- −1.8 -->
      <g transform="translate(58.717187 518.019087) scale(0.1 -0.1)">
       <use xlink:href="#DejaVuSans-2212"/>
       <use xlink:href="#DejaVuSans-31" transform="translate(83.789062 0)"/>
       <use xlink:href="#DejaVuSans-2e" transform="translate(147.412109 0)"/>
       <use xlink:href="#DejaVuSans-38" transform="translate(179.199219 0)"/>
      </g>
     </g>
    </g>
    <g id="ytick_4">
     <g id="line2d_15">
      <path d="M 90 454.677751 
L 648 454.677751 
" clip-path="url(#pb57ebe01e5)" style="fill: none; stroke: #b0b0b0; stroke-width: 0.8; stroke-linecap: square"/>
     </g>
     <g id="line2d_16">
      <g>
       <use xlink:href="#m2d16c4a7f6" x="90" y="454.677751" style="stroke: #000000; stroke-width: 0.8"/>
      </g>
     </g>
     <g id="text_9">
      <!-- −1.7 -->
      <g transform="translate(58.717187 458.47697) scale(0.1 -0.1)">
       <defs>
        <path id="DejaVuSans-37" d="M 525 4666 
L 3525 4666 
L 3525 4397 
L 1831 0 
L 1172 0 
L 2766 4134 
L 525 4134 
L 525 4666 
z
" transform="scale(0.015625)"/>
       </defs>
       <use xlink:href="#DejaVuSans-2212"/>
       <use xlink:href="#DejaVuSans-31" transform="translate(83.789062 0)"/>
       <use xlink:href="#DejaVuSans-2e" transform="translate(147.412109 0)"/>
       <use xlink:href="#DejaVuSans-37" transform="translate(179.199219 0)"/>
      </g>
     </g>
    </g>
    <g id="ytick_5">
     <g id="line2d_17">
      <path d="M 90 395.135634 
L 648 395.135634 
" clip-path="url(#pb57ebe01e5)" style="fill: none; stroke: #b0b0b0; stroke-width: 0.8; stroke-linecap: square"/>
     </g>
     <g id="line2d_18">
      <g>
       <use xlink:href="#m2d16c4a7f6" x="90" y="395.135634" style="stroke: #000000; stroke-width: 0.8"/>
      </g>
     </g>
     <g id="text_10">
      <!-- −1.6 -->
      <g transform="translate(58.717187 398.934853) scale(0.1 -0.1)">
       <use xlink:href="#DejaVuSans-2212"/>
       <use xlink:href="#DejaVuSans-31" transform="translate(83.789062 0)"/>
       <use xlink:href="#DejaVuSans-2e" transform="translate(147.412109 0)"/>
       <use xlink:href="#DejaVuSans-36" transform="translate(179.199219 0)"/>
      </g>
     </g>
    </g>
    <g id="ytick_6">
     <g id="line2d_19">
      <path d="M 90 335.593517 
L 648 335.593517 
" clip-path="url(#pb57ebe01e5)" style="fill: none; stroke: #b0b0b0; stroke-width: 0.8; stroke-linecap: square"/>
     </g>
     <g id="line2d_20">
      <g>
       <use xlink:href="#m2d16c4a7f6" x="90" y="335.593517" style="stroke: #000000; stroke-width: 0.8"/>
      </g>
     </g>
     <g id="text_11">
      <!-- −1.5 -->
      <g transform="translate(58.717187 339.392736) scale(0.1 -0.1)">
       <use xlink:href="#DejaVuSans-2212"/>
       <use xlink:href="#DejaVuSans-31" transform="translate(83.789062 0)"/>
       <use xlink:href="#DejaVuSans-2e" transform="translate(147.412109 0)"/>
       <use xlink:href="#DejaVuSans-35" transform="translate(179.199219 0)"/>
      </g>
     </g>
    </g>
    <g id="ytick_7">
     <g id="line2d_21">
      <path d="M 90 276.0514 
L 648 276.0514 
" clip-path="url(#pb57ebe01e5)" style="fill: none; stroke: #b0b0b0; stroke-width: 0.8; stroke-linecap: square"/>
     </g>
     <g id="line2d_22">
      <g>
       <use xlink:href="#m2d16c4a7f6" x="90" y="276.0514" style="stroke: #000000; stroke-width: 0.8"/>
      </g>
     </g>
     <g id="text_12">
      <!-- −1.4 -->
      <g transform="translate(58.717187 279.850619) scale(0.1 -0.1)">
       <use xlink:href="#DejaVuSans-2212"/>
       <use xlink:href="#DejaVuSans-31" transform="translate(83.789062 0)"/>
       <use xlink:href="#DejaVuSans-2e" transform="translate(147.412109 0)"/>
       <use xlink:href="#DejaVuSans-34" transform="translate(179.199219 0)"/>
      </g>
     </g>
    </g>
    <g id="text_13">
     <!-- Latitude (°) -->
     <g transform="translate(52.6375 464.889531) rotate(-90) scale(0.1 -0.1)">
      <defs>
       <path id="DejaVuSans-61" d="M 2194 1759 
Q 1497 1759 1228 1600 
Q 959 1441 959 1056 
Q 959 750 1161 570 
Q 1363 391 1709 391 
Q 2188 391 2477 730 
Q 2766 1069 2766 1631 
L 2766 1759 
L 2194 1759 
z
M 3341 1997 
L 3341 0 
L 2766 0 
L 2766 531 
Q 2569 213 2275 61 
Q 1981 -91 1556 -91 
Q 1019 -91 701 211 
Q 384 513 384 1019 
Q 384 1609 779 1909 
Q 1175 2209 1959 2209 
L 2766 2209 
L 2766 2266 
Q 2766 2663 2505 2880 
Q 2244 3097 1772 3097 
Q 1472 3097 1187 3025 
Q 903 2953 641 2809 
L 641 3341 
Q 956 3463 1253 3523 
Q 1550 3584 1831 3584 
Q 2591 3584 2966 3190 
Q 3341 2797 3341 1997 
z
" transform="scale(0.015625)"/>
      </defs>
      <use xlink:href="#DejaVuSans-4c"/>
      <use xlink:href="#DejaVuSans-61" transform="translate(55.712891 0)"/>
      <use xlink:href="#DejaVuSans-74" transform="translate(116.992188 0)"/>
      <use xlink:href="#DejaVuSans-69" transform="translate(156.201172 0)"/>
      <use xlink:href="#DejaVuSans-74" transform="translate(183.984375 0)"/>
      <use xlink:href="#DejaVuSans-75" transform="translate(223.193359 0)"/>
      <use xlink:href="#DejaVuSans-64" transform="translate(286.572266 0)"/>
      <use xlink:href="#DejaVuSans-65" transform="translate(350.048828 0)"/>
      <use xlink:href="#DejaVuSans-20" transform="translate(411.572266 0)"/>
      <use xlink:href="#DejaVuSans-28" transform="translate(443.359375 0)"/>
      <use xlink:href="#DejaVuSans-b0" transform="translate(482.373047 0)"/>
      <use xlink:href="#DejaVuSans-29" transform="translate(532.373047 0)"/>
     </g>
    </g>
   </g>
   <g id="patch_3">
    <path d="M 90 635.303953 
L 90 237.336047 
" style="fill: none; stroke: #000000; stroke-width: 0.8; stroke-linejoin: miter; stroke-linecap: square"/>
   </g>
   <g id="patch_4">
    <path d="M 648 635.303953 
L 648 237.336047 
" style="fill: none; stroke: #000000; stroke-width: 0.8; stroke-linejoin: miter; stroke-linecap: square"/>
   </g>
   <g id="patch_5">
    <path d="M 90 635.303953 
L 648 635.303953 
" style="fill: none; stroke: #000000; stroke-width: 0.8; stroke-linejoin: miter; stroke-linecap: square"/>
   </g>
   <g id="patch_6">
    <path d="M 90 237.336047 
L 648 237.336047 
" style="fill: none; stroke: #000000; stroke-width: 0.8; stroke-linejoin: miter; stroke-linecap: square"/>
   </g>
   <g id="legend_1">
    <g id="patch_7">
     <path d="M 173.604687 752.253784 
L 564.395313 752.253784 
Q 566.395313 752.253784 566.395313 750.253784 
L 566.395313 721.897534 
Q 566.395313 719.897534 564.395313 719.897534 
L 173.604687 719.897534 
Q 171.604687 719.897534 171.604687 721.897534 
L 171.604687 750.253784 
Q 171.604687 752.253784 173.604687 752.253784 
z
" style="fill: #ffffff; opacity: 0.8; stroke: #cccccc; stroke-linejoin: miter"/>
    </g>
    <g id="line2d_23">
     <defs>
      <path id="m538567ea0c" d="M 0 5 
C 1.326016 5 2.597899 4.473168 3.535534 3.535534 
C 4.473168 2.597899 5 1.326016 5 0 
C 5 -1.326016 4.473168 -2.597899 3.535534 -3.535534 
C 2.597899 -4.473168 1.326016 -5 0 -5 
C -1.326016 -5 -2.597899 -4.473168 -3.535534 -3.535534 
C -4.473168 -2.597899 -5 -1.326016 -5 0 
C -5 1.326016 -4.473168 2.597899 -3.535534 3.535534 
C -2.597899 4.473168 -1.326016 5 0 5 
z
"/>
     </defs>
     <g>
      <use xlink:href="#m538567ea0c" x="185.604687" y="727.995971" style="fill: #b3e2cd; fill-opacity: 0.65"/>
     </g>
    </g>
    <g id="text_14">
     <!-- PA CRUZEIRÃO -->
     <g transform="translate(203.604687 731.495971) scale(0.1 -0.1)">
      <defs>
       <path id="DejaVuSans-50" d="M 1259 4147 
L 1259 2394 
L 2053 2394 
Q 2494 2394 2734 2622 
Q 2975 2850 2975 3272 
Q 2975 3691 2734 3919 
Q 2494 4147 2053 4147 
L 1259 4147 
z
M 628 4666 
L 2053 4666 
Q 2838 4666 3239 4311 
Q 3641 3956 3641 3272 
Q 3641 2581 3239 2228 
Q 2838 1875 2053 1875 
L 1259 1875 
L 1259 0 
L 628 0 
L 628 4666 
z
" transform="scale(0.015625)"/>
       <path id="DejaVuSans-41" d="M 2188 4044 
L 1331 1722 
L 3047 1722 
L 2188 4044 
z
M 1831 4666 
L 2547 4666 
L 4325 0 
L 3669 0 
L 3244 1197 
L 1141 1197 
L 716 0 
L 50 0 
L 1831 4666 
z
" transform="scale(0.015625)"/>
       <path id="DejaVuSans-43" d="M 4122 4306 
L 4122 3641 
Q 3803 3938 3442 4084 
Q 3081 4231 2675 4231 
Q 1875 4231 1450 3742 
Q 1025 3253 1025 2328 
Q 1025 1406 1450 917 
Q 1875 428 2675 428 
Q 3081 428 3442 575 
Q 3803 722 4122 1019 
L 4122 359 
Q 3791 134 3420 21 
Q 3050 -91 2638 -91 
Q 1578 -91 968 557 
Q 359 1206 359 2328 
Q 359 3453 968 4101 
Q 1578 4750 2638 4750 
Q 3056 4750 3426 4639 
Q 3797 4528 4122 4306 
z
" transform="scale(0.015625)"/>
       <path id="DejaVuSans-52" d="M 2841 2188 
Q 3044 2119 3236 1894 
Q 3428 1669 3622 1275 
L 4263 0 
L 3584 0 
L 2988 1197 
Q 2756 1666 2539 1819 
Q 2322 1972 1947 1972 
L 1259 1972 
L 1259 0 
L 628 0 
L 628 4666 
L 2053 4666 
Q 2853 4666 3247 4331 
Q 3641 3997 3641 3322 
Q 3641 2881 3436 2590 
Q 3231 2300 2841 2188 
z
M 1259 4147 
L 1259 2491 
L 2053 2491 
Q 2509 2491 2742 2702 
Q 2975 2913 2975 3322 
Q 2975 3731 2742 3939 
Q 2509 4147 2053 4147 
L 1259 4147 
z
" transform="scale(0.015625)"/>
       <path id="DejaVuSans-55" d="M 556 4666 
L 1191 4666 
L 1191 1831 
Q 1191 1081 1462 751 
Q 1734 422 2344 422 
Q 2950 422 3222 751 
Q 3494 1081 3494 1831 
L 3494 4666 
L 4128 4666 
L 4128 1753 
Q 4128 841 3676 375 
Q 3225 -91 2344 -91 
Q 1459 -91 1007 375 
Q 556 841 556 1753 
L 556 4666 
z
" transform="scale(0.015625)"/>
       <path id="DejaVuSans-5a" d="M 359 4666 
L 4025 4666 
L 4025 4184 
L 1075 531 
L 4097 531 
L 4097 0 
L 288 0 
L 288 481 
L 3238 4134 
L 359 4134 
L 359 4666 
z
" transform="scale(0.015625)"/>
       <path id="DejaVuSans-45" d="M 628 4666 
L 3578 4666 
L 3578 4134 
L 1259 4134 
L 1259 2753 
L 3481 2753 
L 3481 2222 
L 1259 2222 
L 1259 531 
L 3634 531 
L 3634 0 
L 628 0 
L 628 4666 
z
" transform="scale(0.015625)"/>
       <path id="DejaVuSans-49" d="M 628 4666 
L 1259 4666 
L 1259 0 
L 628 0 
L 628 4666 
z
" transform="scale(0.015625)"/>
       <path id="DejaVuSans-c3" d="M 2188 4044 
L 1331 1722 
L 3047 1722 
L 2188 4044 
z
M 1831 4666 
L 2547 4666 
L 4325 0 
L 3669 0 
L 3244 1197 
L 1141 1197 
L 716 0 
L 50 0 
L 1831 4666 
z
M 2175 5344 
L 1997 5447 
Q 1919 5491 1870 5508 
Q 1822 5525 1784 5525 
Q 1672 5525 1609 5447 
Q 1547 5369 1547 5229 
L 1547 5210 
L 1156 5210 
Q 1156 5525 1317 5709 
Q 1478 5894 1747 5894 
Q 1859 5894 1954 5869 
Q 2050 5844 2200 5760 
L 2378 5666 
Q 2450 5625 2503 5606 
Q 2556 5588 2603 5588 
Q 2703 5588 2765 5667 
Q 2828 5747 2828 5875 
L 2828 5894 
L 3219 5894 
Q 3213 5582 3052 5396 
Q 2891 5210 2628 5210 
Q 2522 5210 2430 5235 
Q 2338 5260 2175 5344 
z
" transform="scale(0.015625)"/>
       <path id="DejaVuSans-4f" d="M 2522 4238 
Q 1834 4238 1429 3725 
Q 1025 3213 1025 2328 
Q 1025 1447 1429 934 
Q 1834 422 2522 422 
Q 3209 422 3611 934 
Q 4013 1447 4013 2328 
Q 4013 3213 3611 3725 
Q 3209 4238 2522 4238 
z
M 2522 4750 
Q 3503 4750 4090 4092 
Q 4678 3434 4678 2328 
Q 4678 1225 4090 567 
Q 3503 -91 2522 -91 
Q 1538 -91 948 565 
Q 359 1222 359 2328 
Q 359 3434 948 4092 
Q 1538 4750 2522 4750 
z
" transform="scale(0.015625)"/>
      </defs>
      <use xlink:href="#DejaVuSans-50"/>
      <use xlink:href="#DejaVuSans-41" transform="translate(53.927734 0)"/>
      <use xlink:href="#DejaVuSans-20" transform="translate(122.335938 0)"/>
      <use xlink:href="#DejaVuSans-43" transform="translate(154.123047 0)"/>
      <use xlink:href="#DejaVuSans-52" transform="translate(223.947266 0)"/>
      <use xlink:href="#DejaVuSans-55" transform="translate(293.429688 0)"/>
      <use xlink:href="#DejaVuSans-5a" transform="translate(364.873047 0)"/>
      <use xlink:href="#DejaVuSans-45" transform="translate(433.378906 0)"/>
      <use xlink:href="#DejaVuSans-49" transform="translate(496.5625 0)"/>
      <use xlink:href="#DejaVuSans-52" transform="translate(526.054688 0)"/>
      <use xlink:href="#DejaVuSans-c3" transform="translate(591.537109 0)"/>
      <use xlink:href="#DejaVuSans-4f" transform="translate(658.195312 0)"/>
     </g>
    </g>
    <g id="line2d_24">
     <defs>
      <path id="m528a45b2c7" d="M 0 5 
C 1.326016 5 2.597899 4.473168 3.535534 3.535534 
C 4.473168 2.597899 5 1.326016 5 0 
C 5 -1.326016 4.473168 -2.597899 3.535534 -3.535534 
C 2.597899 -4.473168 1.326016 -5 0 -5 
C -1.326016 -5 -2.597899 -4.473168 -3.535534 -3.535534 
C -4.473168 -2.597899 -5 -1.326016 -5 0 
C -5 1.326016 -4.473168 2.597899 -3.535534 3.535534 
C -2.597899 4.473168 -1.326016 5 0 5 
z
"/>
     </defs>
     <g>
      <use xlink:href="#m528a45b2c7" x="185.604687" y="742.674096" style="fill: #cbd5e8; fill-opacity: 0.65"/>
     </g>
    </g>
    <g id="text_15">
     <!-- PA ITAPECURU -->
     <g transform="translate(203.604687 746.174096) scale(0.1 -0.1)">
      <defs>
       <path id="DejaVuSans-54" d="M -19 4666 
L 3928 4666 
L 3928 4134 
L 2272 4134 
L 2272 0 
L 1638 0 
L 1638 4134 
L -19 4134 
L -19 4666 
z
" transform="scale(0.015625)"/>
      </defs>
      <use xlink:href="#DejaVuSans-50"/>
      <use xlink:href="#DejaVuSans-41" transform="translate(53.927734 0)"/>
      <use xlink:href="#DejaVuSans-20" transform="translate(122.335938 0)"/>
      <use xlink:href="#DejaVuSans-49" transform="translate(154.123047 0)"/>
      <use xlink:href="#DejaVuSans-54" transform="translate(183.615234 0)"/>
      <use xlink:href="#DejaVuSans-41" transform="translate(236.949219 0)"/>
      <use xlink:href="#DejaVuSans-50" transform="translate(305.357422 0)"/>
      <use xlink:href="#DejaVuSans-45" transform="translate(365.660156 0)"/>
      <use xlink:href="#DejaVuSans-43" transform="translate(428.84375 0)"/>
      <use xlink:href="#DejaVuSans-55" transform="translate(498.667969 0)"/>
      <use xlink:href="#DejaVuSans-52" transform="translate(571.861328 0)"/>
      <use xlink:href="#DejaVuSans-55" transform="translate(641.34375 0)"/>
     </g>
    </g>
    <g id="line2d_25">
     <defs>
      <path id="m58514ec813" d="M 0 5 
C 1.326016 5 2.597899 4.473168 3.535534 3.535534 
C 4.473168 2.597899 5 1.326016 5 0 
C 5 -1.326016 4.473168 -2.597899 3.535534 -3.535534 
C 2.597899 -4.473168 1.326016 -5 0 -5 
C -1.326016 -5 -2.597899 -4.473168 -3.535534 -3.535534 
C -4.473168 -2.597899 -5 -1.326016 -5 0 
C -5 1.326016 -4.473168 2.597899 -3.535534 3.535534 
C -2.597899 4.473168 -1.326016 5 0 5 
z
"/>
     </defs>
     <g>
      <use xlink:href="#m58514ec813" x="307.295312" y="727.995971" style="fill: #e6f5c9; fill-opacity: 0.65"/>
     </g>
    </g>
    <g id="text_16">
     <!-- PA REPARTIMENTO -->
     <g transform="translate(325.295312 731.495971) scale(0.1 -0.1)">
      <defs>
       <path id="DejaVuSans-4d" d="M 628 4666 
L 1569 4666 
L 2759 1491 
L 3956 4666 
L 4897 4666 
L 4897 0 
L 4281 0 
L 4281 4097 
L 3078 897 
L 2444 897 
L 1241 4097 
L 1241 0 
L 628 0 
L 628 4666 
z
" transform="scale(0.015625)"/>
       <path id="DejaVuSans-4e" d="M 628 4666 
L 1478 4666 
L 3547 763 
L 3547 4666 
L 4159 4666 
L 4159 0 
L 3309 0 
L 1241 3903 
L 1241 0 
L 628 0 
L 628 4666 
z
" transform="scale(0.015625)"/>
      </defs>
      <use xlink:href="#DejaVuSans-50"/>
      <use xlink:href="#DejaVuSans-41" transform="translate(53.927734 0)"/>
      <use xlink:href="#DejaVuSans-20" transform="translate(122.335938 0)"/>
      <use xlink:href="#DejaVuSans-52" transform="translate(154.123047 0)"/>
      <use xlink:href="#DejaVuSans-45" transform="translate(223.605469 0)"/>
      <use xlink:href="#DejaVuSans-50" transform="translate(286.789062 0)"/>
      <use xlink:href="#DejaVuSans-41" transform="translate(340.716797 0)"/>
      <use xlink:href="#DejaVuSans-52" transform="translate(409.125 0)"/>
      <use xlink:href="#DejaVuSans-54" transform="translate(471.357422 0)"/>
      <use xlink:href="#DejaVuSans-49" transform="translate(532.441406 0)"/>
      <use xlink:href="#DejaVuSans-4d" transform="translate(561.933594 0)"/>
      <use xlink:href="#DejaVuSans-45" transform="translate(648.212891 0)"/>
      <use xlink:href="#DejaVuSans-4e" transform="translate(711.396484 0)"/>
      <use xlink:href="#DejaVuSans-54" transform="translate(786.201172 0)"/>
      <use xlink:href="#DejaVuSans-4f" transform="translate(847.285156 0)"/>
     </g>
    </g>
    <g id="line2d_26">
     <defs>
      <path id="mc7db2e46c5" d="M 0 5 
C 1.326016 5 2.597899 4.473168 3.535534 3.535534 
C 4.473168 2.597899 5 1.326016 5 0 
C 5 -1.326016 4.473168 -2.597899 3.535534 -3.535534 
C 2.597899 -4.473168 1.326016 -5 0 -5 
C -1.326016 -5 -2.597899 -4.473168 -3.535534 -3.535534 
C -4.473168 -2.597899 -5 -1.326016 -5 0 
C -5 1.326016 -4.473168 2.597899 -3.535534 3.535534 
C -2.597899 4.473168 -1.326016 5 0 5 
z
"/>
     </defs>
     <g>
      <use xlink:href="#mc7db2e46c5" x="307.295312" y="742.674096" style="fill: #f1e2cc; fill-opacity: 0.65"/>
     </g>
    </g>
    <g id="text_17">
     <!-- PAE CACHOERY -->
     <g transform="translate(325.295312 746.174096) scale(0.1 -0.1)">
      <defs>
       <path id="DejaVuSans-48" d="M 628 4666 
L 1259 4666 
L 1259 2753 
L 3553 2753 
L 3553 4666 
L 4184 4666 
L 4184 0 
L 3553 0 
L 3553 2222 
L 1259 2222 
L 1259 0 
L 628 0 
L 628 4666 
z
" transform="scale(0.015625)"/>
       <path id="DejaVuSans-59" d="M -13 4666 
L 666 4666 
L 1959 2747 
L 3244 4666 
L 3922 4666 
L 2272 2222 
L 2272 0 
L 1638 0 
L 1638 2222 
L -13 4666 
z
" transform="scale(0.015625)"/>
      </defs>
      <use xlink:href="#DejaVuSans-50"/>
      <use xlink:href="#DejaVuSans-41" transform="translate(53.927734 0)"/>
      <use xlink:href="#DejaVuSans-45" transform="translate(122.335938 0)"/>
      <use xlink:href="#DejaVuSans-20" transform="translate(185.519531 0)"/>
      <use xlink:href="#DejaVuSans-43" transform="translate(217.306641 0)"/>
      <use xlink:href="#DejaVuSans-41" transform="translate(287.130859 0)"/>
      <use xlink:href="#DejaVuSans-43" transform="translate(353.789062 0)"/>
      <use xlink:href="#DejaVuSans-48" transform="translate(423.613281 0)"/>
      <use xlink:href="#DejaVuSans-4f" transform="translate(498.808594 0)"/>
      <use xlink:href="#DejaVuSans-45" transform="translate(577.519531 0)"/>
      <use xlink:href="#DejaVuSans-52" transform="translate(640.703125 0)"/>
      <use xlink:href="#DejaVuSans-59" transform="translate(703.810547 0)"/>
     </g>
    </g>
    <g id="line2d_27">
     <defs>
      <path id="mf21286d640" d="M 0 5 
C 1.326016 5 2.597899 4.473168 3.535534 3.535534 
C 4.473168 2.597899 5 1.326016 5 0 
C 5 -1.326016 4.473168 -2.597899 3.535534 -3.535534 
C 2.597899 -4.473168 1.326016 -5 0 -5 
C -1.326016 -5 -2.597899 -4.473168 -3.535534 -3.535534 
C -4.473168 -2.597899 -5 -1.326016 -5 0 
C -5 1.326016 -4.473168 2.597899 -3.535534 3.535534 
C -2.597899 4.473168 -1.326016 5 0 5 
z
"/>
     </defs>
     <g>
      <use xlink:href="#mf21286d640" x="447.895313" y="727.995971" style="fill: #cccccc; fill-opacity: 0.65"/>
     </g>
    </g>
    <g id="text_18">
     <!-- PAE MARIA TEREZA -->
     <g transform="translate(465.895313 731.495971) scale(0.1 -0.1)">
      <use xlink:href="#DejaVuSans-50"/>
      <use xlink:href="#DejaVuSans-41" transform="translate(53.927734 0)"/>
      <use xlink:href="#DejaVuSans-45" transform="translate(122.335938 0)"/>
      <use xlink:href="#DejaVuSans-20" transform="translate(185.519531 0)"/>
      <use xlink:href="#DejaVuSans-4d" transform="translate(217.306641 0)"/>
      <use xlink:href="#DejaVuSans-41" transform="translate(303.585938 0)"/>
      <use xlink:href="#DejaVuSans-52" transform="translate(371.994141 0)"/>
      <use xlink:href="#DejaVuSans-49" transform="translate(441.476562 0)"/>
      <use xlink:href="#DejaVuSans-41" transform="translate(470.96875 0)"/>
      <use xlink:href="#DejaVuSans-20" transform="translate(539.376953 0)"/>
      <use xlink:href="#DejaVuSans-54" transform="translate(571.164062 0)"/>
      <use xlink:href="#DejaVuSans-45" transform="translate(632.248047 0)"/>
      <use xlink:href="#DejaVuSans-52" transform="translate(695.431641 0)"/>
      <use xlink:href="#DejaVuSans-45" transform="translate(764.914062 0)"/>
      <use xlink:href="#DejaVuSans-5a" transform="translate(828.097656 0)"/>
      <use xlink:href="#DejaVuSans-41" transform="translate(896.603516 0)"/>
     </g>
    </g>
   </g>
  </g>
 </g>
 <defs>
  <clipPath id="pb57ebe01e5">
   <rect x="90" y="237.336047" width="558" height="397.967905"/>
  </clipPath>
 </defs>
</svg>
