<?xml version="1.0" encoding="utf-8" standalone="no"?>
<!DOCTYPE svg PUBLIC "-//W3C//DTD SVG 1.1//EN"
  "http://www.w3.org/Graphics/SVG/1.1/DTD/svg11.dtd">
<svg xmlns:xlink="http://www.w3.org/1999/xlink" width="720pt" height="864pt" viewBox="0 0 720 864" xmlns="http://www.w3.org/2000/svg" version="1.1">
 <metadata>
  <rdf:RDF xmlns:dc="http://purl.org/dc/elements/1.1/" xmlns:cc="http://creativecommons.org/ns#" xmlns:rdf="http://www.w3.org/1999/02/22-rdf-syntax-ns#">
   <cc:Work>
    <dc:type rdf:resource="http://purl.org/dc/dcmitype/StillImage"/>
    <dc:date>2025-06-16T16:54:07.938965</dc:date>
    <dc:format>image/svg+xml</dc:format>
    <dc:creator>
     <cc:Agent>
      <dc:title>Matplotlib v3.10.1, https://matplotlib.org/</dc:title>
     </cc:Agent>
    </dc:creator>
   </cc:Work>
  </rdf:RDF>
 </metadata>
 <defs>
  <style type="text/css">*{stroke-linejoin: round; stroke-linecap: butt}</style>
 </defs>
 <g id="figure_1">
  <g id="patch_1">
   <path d="M 0 864 
L 720 864 
L 720 0 
L 0 0 
z
" style="fill: #ffffff"/>
  </g>
  <g id="axes_1">
   <g id="patch_2">
    <path d="M 90 708.715452 
L 648 708.715452 
L 648 163.924548 
L 90 163.924548 
z
" style="fill: #ffffff"/>
   </g>
   <g id="PatchCollection_1">
    <path d="M 491.283042 282.589691 
L 486.21112 282.852783 
L 473.912948 219.268086 
L 475.802052 220.773699 
L 475.931605 220.876879 
L 478.125391 221.446602 
L 479.191845 221.949971 
L 479.926722 221.880847 
L 483.146514 221.816915 
L 485.060467 222.152949 
L 487.572988 222.295122 
L 491.462226 223.448285 
L 494.410374 226.222218 
L 496.220228 227.373002 
L 501.318072 227.378834 
L 503.733869 226.503156 
L 506.149131 226.100399 
L 508.429971 225.967973 
L 509.630188 226.048271 
L 509.993211 225.609679 
L 512.169655 225.612161 
L 513.909155 226.785049 
L 514.487602 228.469004 
L 514.558134 230.371881 
L 514.628702 232.055256 
L 514.918071 232.860435 
L 516.077276 234.179214 
L 517.409042 234.289741 
L 521.275323 234.610935 
L 521.658706 237.91781 
L 521.657302 239.162097 
L 521.29324 240.332586 
L 521.292166 241.283986 
L 521.871108 242.528721 
L 523.101669 245.018492 
L 524.115736 246.336895 
L 524.294587 246.879356 
L 525.636612 248.607281 
L 527.322849 250.236195 
L 528.092917 251.098886 
L 528.381213 252.855684 
L 528.550121 254.698529 
L 528.711549 256.033452 
L 528.501507 258.150402 
L 528.909076 259.91971 
L 529.750243 261.05404 
L 529.748917 262.224946 
L 529.965608 263.030262 
L 531.052889 263.69024 
L 531.385456 265.825733 
L 530.975861 267.715271 
L 530.394763 268.373119 
L 531.264482 269.179186 
L 532.062438 269.180104 
L 533.437345 270.499571 
L 532.712431 271.669433 
L 533.001503 272.548001 
L 534.762078 274.395241 
L 535.534494 277.857023 
L 535.023776 280.344806 
L 534.586984 281.734719 
L 534.367711 283.198264 
L 534.22132 284.295836 
L 534.147606 285.393492 
L 532.345677 287.486846 
L 532.041957 289.980624 
L 531.093101 292.050003 
L 530.003733 293.219652 
L 530.002144 294.610276 
L 530.563992 295.601154 
L 529.562834 298.19566 
L 528.617972 299.73153 
L 528.785632 301.348043 
L 529.122131 302.80604 
L 529.991346 304.051127 
L 529.989585 305.588089 
L 529.970643 308.251142 
L 529.910912 311.003741 
L 529.617773 313.491554 
L 528.674499 313.636794 
L 528.443609 315.239617 
L 528.743602 316.747279 
L 528.233272 318.868994 
L 527.796205 320.478402 
L 527.476035 321.037564 
L 527.068179 322.673244 
L 527.138621 324.429582 
L 526.557758 324.868127 
L 525.39599 325.964508 
L 524.920033 327.853103 
L 523.506323 328.95708 
L 523.116544 329.794114 
L 501.99474 331.194101 
L 501.258237 328.990309 
L 500.523981 321.732397 
L 500.089645 316.943982 
L 499.786122 312.260889 
L 499.236549 306.335152 
L 496.172198 300.704057 
L 496.26606 293.153176 
L 496.298601 290.832538 
L 496.367266 282.322766 
L 491.283042 282.589691 
" clip-path="url(#p7a60c12b5a)" style="fill: #cccccc; fill-opacity: 0.65"/>
    <path d="M 240.972349 310.04858 
L 242.393776 311.090794 
L 242.452356 311.8805 
L 244.340283 316.278061 
L 245.983256 317.552834 
L 247.622283 318.761906 
L 249.332332 320.459522 
L 251.250532 323.478787 
L 252.844509 324.102512 
L 254.476226 325.229245 
L 256.138408 326.392703 
L 257.678696 326.740352 
L 259.224439 327.132587 
L 260.797103 327.338644 
L 263.457959 345.179392 
L 261.939366 345.105426 
L 260.421197 345.032741 
L 258.901122 344.959414 
L 257.384013 344.886942 
L 255.866696 344.811271 
L 254.345563 344.739433 
L 252.831845 344.668031 
L 251.317967 344.553969 
L 249.806446 344.419858 
L 248.293025 344.280413 
L 246.784049 344.144599 
L 245.273807 344.006009 
L 243.759324 343.870614 
L 242.223578 343.797902 
L 240.724899 343.734621 
L 239.209276 343.667906 
L 237.694544 343.56557 
L 236.165317 343.535951 
L 234.652109 343.574607 
L 233.129146 343.621995 
L 231.615901 343.692858 
L 230.097795 343.754116 
L 228.577785 343.813451 
L 227.058409 343.875133 
L 225.536269 343.945129 
L 224.020929 343.999136 
L 222.50325 344.060391 
L 220.964807 344.123327 
L 219.465137 344.18567 
L 217.946191 344.245429 
L 212.668295 313.234835 
L 214.156672 313.039794 
L 215.645409 312.72296 
L 217.097223 312.454926 
L 218.567998 312.44991 
L 220.015535 312.564738 
L 221.418245 312.60699 
L 222.986567 312.530424 
L 224.47437 312.462931 
L 226.052639 312.221497 
L 227.50198 312.073755 
L 229.33343 312.182014 
L 231.121939 311.886018 
L 232.587403 311.547605 
L 234.034027 311.196797 
L 235.437901 310.631997 
L 236.877833 310.384415 
L 238.348419 310.36766 
L 239.717891 310.220242 
L 240.972349 310.04858 
" clip-path="url(#p7a60c12b5a)" style="fill: #b3e2cd; fill-opacity: 0.65"/>
    <path d="M 218.509184 250.974014 
L 219.317967 252.483862 
L 219.964327 254.993881 
L 220.698992 257.537495 
L 221.425256 260.549716 
L 221.479402 263.457033 
L 221.570485 265.947611 
L 221.632949 268.098157 
L 221.698815 271.472824 
L 222.419859 273.001982 
L 224.60151 273.81069 
L 227.002944 274.731647 
L 228.594166 275.866197 
L 230.07657 276.228901 
L 231.512759 276.262856 
L 232.962002 276.365508 
L 234.395099 276.32843 
L 235.642608 276.288139 
L 236.588095 281.642026 
L 237.571737 283.093656 
L 238.963187 285.10292 
L 240.170123 286.741887 
L 241.754824 287.846147 
L 243.23593 288.239141 
L 244.686443 288.350116 
L 246.212284 288.89418 
L 247.440718 287.453556 
L 248.686414 286.10531 
L 249.753893 283.549782 
L 250.825931 281.076591 
L 251.783361 277.883585 
L 252.835771 275.342324 
L 260.708454 326.885485 
L 259.155282 326.679452 
L 257.612073 326.294046 
L 256.061461 325.899885 
L 254.38334 324.601389 
L 252.76966 323.625908 
L 251.161216 322.877812 
L 249.212547 319.649476 
L 247.536567 318.161362 
L 245.897536 316.955703 
L 244.242807 315.591971 
L 242.909366 311.869755 
L 242.296141 310.359271 
L 240.925547 309.681434 
L 239.669871 309.808943 
L 238.285939 309.824525 
L 236.829191 309.962024 
L 235.388423 310.200219 
L 233.988749 310.79574 
L 232.52909 311.063559 
L 231.074157 311.45339 
L 229.278473 311.726767 
L 227.444883 311.635997 
L 225.997223 311.794833 
L 224.416431 312.02048 
L 222.926941 312.082212 
L 221.360707 312.183736 
L 219.959269 312.140846 
L 218.50839 311.987194 
L 217.050284 312.02742 
L 215.594869 312.29545 
L 214.125768 312.667339 
L 212.608619 312.828216 
L 208.332838 264.201671 
L 209.694686 263.675845 
L 211.066066 263.152162 
L 212.308124 262.169518 
L 213.47003 261.243513 
L 214.477576 260.067122 
L 215.240865 258.873156 
L 215.813812 257.221649 
L 216.496869 255.441229 
L 216.782864 254.040637 
L 216.977156 251.548062 
L 218.047798 251.109326 
L 218.509184 250.974014 
" clip-path="url(#p7a60c12b5a)" style="fill: #b3e2cd; fill-opacity: 0.65"/>
   </g>
   <g id="PatchCollection_2">
    <path d="M 504.637209 394.36797 
L 505.38086 395.888482 
L 507.148329 395.61392 
L 507.669542 396.126075 
L 508.207841 396.326894 
L 509.049154 396.28116 
L 510.00833 395.452161 
L 510.624294 395.213981 
L 511.307713 393.272502 
L 512.48637 393.176101 
L 512.955064 392.871403 
L 513.774178 393.217355 
L 514.648723 394.138817 
L 515.202704 395.996382 
L 518.233328 402.048543 
L 519.123993 403.1192 
L 519.569456 405.757956 
L 519.810202 407.900015 
L 519.734659 410.420548 
L 519.416137 412.261032 
L 520.390088 414.757009 
L 522.005853 416.893333 
L 524.471941 417.372665 
L 527.242102 420.197661 
L 527.271746 420.879269 
L 528.144304 421.279751 
L 529.240632 422.817614 
L 537.204611 430.720927 
L 539.285703 433.215492 
L 540.274089 436.195011 
L 541.815329 438.828316 
L 542.576711 440.538894 
L 542.212297 443.888224 
L 542.503555 445.828283 
L 543.610757 446.75836 
L 542.394247 448.092552 
L 541.296509 450.529233 
L 540.693289 452.138915 
L 540.342137 453.445454 
L 541.061609 456.914755 
L 542.022143 457.697597 
L 542.019456 459.958624 
L 542.562271 460.895492 
L 542.666343 461.920145 
L 542.604531 463.899265 
L 542.047757 465.664233 
L 541.502523 466.758754 
L 541.686008 468.087632 
L 541.705323 469.180594 
L 541.889934 470.417298 
L 542.846131 471.159331 
L 541.870475 474.668953 
L 543.532456 476.931504 
L 543.770931 478.077742 
L 542.466533 481.216387 
L 542.169694 482.596307 
L 542.43412 484.348018 
L 545.553639 486.342449 
L 548.327973 487.958483 
L 549.86978 488.599797 
L 549.803192 490.327432 
L 555.397053 491.625093 
L 555.15717 496.38712 
L 554.09598 509.44481 
L 553.429277 516.295821 
L 551.577569 533.90822 
L 560.31151 543.789842 
L 563.370605 551.072458 
L 566.771795 557.806909 
L 577.431548 579.998166 
L 578.037064 600.482103 
L 622.636364 627.358897 
L 581.219078 627.264371 
L 571.938728 628.173765 
L 559.955649 629.711677 
L 553.638918 631.84107 
L 535.043829 640.080144 
L 509.892547 659.997438 
L 486.876869 678.749424 
L 479.703745 683.952229 
L 476.897606 682.358484 
L 471.105097 683.057768 
L 469.555012 682.879098 
L 468.239984 681.905705 
L 461.763244 668.499234 
L 459.982427 665.758468 
L 457.003258 662.279994 
L 454.578051 660.304073 
L 448.73184 657.20469 
L 429.636524 653.028198 
L 408.759519 646.964865 
L 394.054039 641.145023 
L 366.798547 637.046264 
L 304.892904 653.961233 
L 302.578473 654.191129 
L 279.157387 654.719319 
L 277.491378 654.437531 
L 260.928371 649.197041 
L 258.89389 647.563499 
L 257.878156 645.651802 
L 254.979471 632.461815 
L 253.475657 630.164397 
L 248.413756 625.581065 
L 244.875127 624.526059 
L 232.581283 622.37161 
L 229.784324 621.481892 
L 227.819065 620.728892 
L 228.348308 615.939424 
L 227.324076 609.153023 
L 228.393318 606.273133 
L 228.523434 605.511278 
L 228.120335 604.967186 
L 227.264833 604.792651 
L 226.198609 605.163418 
L 224.875886 607.247032 
L 224.499201 607.294369 
L 224.017163 607.056059 
L 222.559846 604.561139 
L 222.722386 603.794427 
L 223.609547 602.588864 
L 224.437938 600.883497 
L 224.582538 599.998532 
L 224.32156 599.288819 
L 223.157668 597.636378 
L 223.945762 596.007876 
L 223.958079 595.236981 
L 222.980168 593.718983 
L 223.061475 592.926021 
L 224.249552 592.247592 
L 224.881952 591.530272 
L 225.151211 590.424918 
L 225.698662 589.958715 
L 227.164061 589.289451 
L 228.95456 587.80587 
L 230.571264 586.300616 
L 230.761426 585.586203 
L 230.484601 584.927616 
L 229.368966 584.577199 
L 227.901065 584.598702 
L 227.808183 584.134043 
L 229.457402 581.750857 
L 230.831473 579.969982 
L 231.291084 578.467908 
L 230.788198 577.219237 
L 229.94734 577.009939 
L 229.026623 577.349957 
L 227.792536 576.971687 
L 226.84644 575.652266 
L 225.883884 574.895176 
L 226.36803 574.339742 
L 227.749578 574.055458 
L 228.675676 573.039739 
L 228.802414 572.188829 
L 228.79852 570.444734 
L 229.254939 569.560268 
L 230.378542 568.607604 
L 230.816341 567.584992 
L 232.218206 566.861574 
L 233.335693 566.10493 
L 237.291097 565.722846 
L 240.265605 565.557245 
L 241.96826 565.258161 
L 243.339395 564.447615 
L 243.983743 562.817544 
L 244.299714 558.087195 
L 245.74284 554.26738 
L 247.755764 552.001628 
L 248.812402 549.62208 
L 248.698895 548.359674 
L 247.839885 546.400049 
L 248.346221 541.644693 
L 247.23981 539.770814 
L 245.292696 539.362573 
L 244.957739 538.66345 
L 245.541778 537.131721 
L 247.962674 534.633333 
L 248.411783 533.552196 
L 247.881015 528.480706 
L 244.214589 524.554472 
L 244.528926 523.833815 
L 246.945579 524.760895 
L 248.065276 524.446791 
L 248.738108 523.411049 
L 248.53932 521.337388 
L 248.182482 520.277651 
L 245.430677 518.966994 
L 244.84944 518.335262 
L 244.582958 516.576908 
L 243.331435 514.907618 
L 241.139947 512.989125 
L 240.672222 511.163082 
L 240.317797 508.210322 
L 239.563542 504.967182 
L 239.033459 504.410011 
L 238.336252 502.638602 
L 238.317451 501.733347 
L 239.799702 499.099554 
L 240.202005 497.007759 
L 239.74384 495.840308 
L 238.544982 495.617431 
L 236.944433 497.043851 
L 236.004553 497.485271 
L 235.425402 497.263211 
L 233.989254 495.028099 
L 233.930607 494.022209 
L 236.691993 491.209063 
L 235.954101 490.021023 
L 233.918496 487.785212 
L 232.979983 487.200583 
L 231.961322 486.756656 
L 231.163411 485.608879 
L 231.703447 485.227298 
L 233.401792 485.450763 
L 234.581193 485.210871 
L 235.49772 484.527156 
L 236.002135 483.540117 
L 235.852604 482.425728 
L 234.546785 480.651374 
L 233.641911 480.143811 
L 231.329178 479.001308 
L 231.405378 478.444311 
L 234.875148 479.537617 
L 236.887239 479.717475 
L 239.026131 479.112481 
L 239.982939 478.45524 
L 240.286269 477.240106 
L 239.507547 476.352796 
L 235.685882 475.031176 
L 232.243981 471.734824 
L 231.993325 471.000119 
L 232.546941 470.823514 
L 235.186612 471.915747 
L 237.249106 472.121008 
L 238.507369 471.666784 
L 238.76033 470.527515 
L 237.454729 468.57597 
L 235.619796 467.611434 
L 233.834592 467.001378 
L 233.407981 466.190481 
L 233.434223 465.329587 
L 234.115727 463.481755 
L 234.2189 461.430746 
L 234.396217 460.443397 
L 234.070544 459.404817 
L 233.03955 459.074202 
L 230.121366 459.374391 
L 228.188352 457.606967 
L 227.672841 456.718486 
L 227.106335 456.711661 
L 225.444079 458.380789 
L 224.664052 458.582408 
L 224.413094 458.075583 
L 224.693338 455.265218 
L 224.167554 453.339977 
L 224.446021 451.92212 
L 226.357323 452.279148 
L 227.43983 451.470207 
L 227.164469 450.456951 
L 226.209359 449.79723 
L 224.122045 449.490751 
L 223.267358 449.059165 
L 223.067007 448.400622 
L 223.948919 447.135527 
L 226.868868 445.011811 
L 229.412778 442.710955 
L 229.364317 441.292721 
L 227.157945 440.015882 
L 227.15297 439.567984 
L 229.78154 440.008024 
L 231.353338 439.775878 
L 232.210032 438.612118 
L 228.293426 432.732204 
L 225.629011 431.2601 
L 222.459152 431.661221 
L 220.648408 431.405708 
L 218.610924 429.06448 
L 215.874379 427.221327 
L 213.183726 426.68618 
L 212.832331 426.027327 
L 214.394819 423.674224 
L 214.401805 421.787965 
L 212.990025 420.633808 
L 211.053773 420.099484 
L 208.966013 420.096858 
L 206.88037 418.524223 
L 205.828517 414.800311 
L 205.530263 411.938435 
L 204.626439 410.595296 
L 201.279438 411.857195 
L 200.348845 411.729383 
L 199.019036 409.170156 
L 197.158718 408.281426 
L 195.197086 408.101715 
L 195.008421 407.478386 
L 197.21633 404.536983 
L 197.174127 403.372521 
L 196.062001 402.60203 
L 195.014271 402.842411 
L 191.387565 405.957707 
L 190.710975 405.978862 
L 190.494592 404.462541 
L 192.506547 401.169403 
L 192.729663 397.23688 
L 192.185459 396.137697 
L 190.33123 395.432209 
L 188.630393 394.353523 
L 187.12748 391.934737 
L 180.891912 387.049289 
L 180.019015 386.982288 
L 179.714128 386.49854 
L 180.872277 385.313559 
L 180.960985 384.171224 
L 180.372954 383.225735 
L 177.711602 382.189647 
L 177.319897 381.354268 
L 177.169571 379.398657 
L 176.494023 378.650872 
L 175.097889 378.05579 
L 172.761345 379.173449 
L 172.368855 378.931194 
L 173.265518 377.438373 
L 173.55075 376.252165 
L 172.491037 374.669599 
L 171.348805 374.097825 
L 170.153416 373.233362 
L 169.2429 372.926517 
L 168.081772 373.194797 
L 167.528728 372.798529 
L 166.942676 370.172869 
L 165.746738 369.685933 
L 164.63923 369.97221 
L 162.72538 372.396905 
L 162.420377 373.511211 
L 163.240919 374.285413 
L 165.222956 374.503636 
L 165.436421 375.151236 
L 164.810844 375.563855 
L 161.882033 375.614102 
L 159.451481 377.049334 
L 159.166425 376.4736 
L 159.027285 373.507007 
L 158.77861 372.446001 
L 158.886911 371.511073 
L 160.138965 369.966473 
L 159.407912 369.012753 
L 157.712757 367.949898 
L 156.893519 366.078996 
L 156.019529 365.232918 
L 154.96572 365.303507 
L 153.214877 366.002444 
L 152.286263 365.983319 
L 149.253282 363.642296 
L 149.289851 362.905222 
L 151.79177 361.505961 
L 152.078966 360.301808 
L 151.115776 359.383623 
L 148.132571 360.009142 
L 147.186519 359.684286 
L 146.741163 358.892761 
L 147.635894 357.419496 
L 150.618478 357.153629 
L 151.60143 356.597508 
L 151.763482 355.501096 
L 151.550596 354.38615 
L 152.417926 353.384503 
L 153.731218 352.080632 
L 154.746844 350.476163 
L 154.484421 348.549928 
L 153.692082 347.593618 
L 151.725722 346.585699 
L 150.532006 345.55794 
L 150.847896 344.60792 
L 152.06363 343.048002 
L 152.491924 342.030293 
L 151.998798 340.92074 
L 150.943087 340.399013 
L 149.076415 341.188659 
L 148.290226 340.735078 
L 148.066479 339.920145 
L 147.550824 338.878631 
L 146.495217 338.153077 
L 144.786011 338.875108 
L 144.404592 338.399472 
L 145.847904 334.508948 
L 145.557161 333.309173 
L 144.344045 332.809887 
L 142.297594 333.644567 
L 140.520325 334.796499 
L 139.778739 334.682379 
L 139.015288 334.11573 
L 138.140684 332.462696 
L 138.053053 330.607018 
L 137.358847 328.501534 
L 136.865461 327.641104 
L 137.068516 327.007586 
L 137.900447 326.805025 
L 140.821782 327.374428 
L 141.87897 326.719525 
L 142.442239 325.656666 
L 142.016511 324.615231 
L 138.266315 321.69124 
L 138.447143 320.922029 
L 140.224241 319.792852 
L 141.396938 316.648822 
L 141.353365 315.517303 
L 139.378591 312.91253 
L 137.626858 311.710989 
L 134.683924 310.32687 
L 132.549027 309.962157 
L 130.661738 309.326178 
L 130.145782 308.578858 
L 129.899782 307.53761 
L 130.147794 306.904222 
L 131.905017 303.670394 
L 131.884104 302.380578 
L 131.345819 301.406764 
L 130.357564 300.79457 
L 129.099216 300.521476 
L 126.696721 298.413946 
L 125.617719 298.571015 
L 124.491589 300.379917 
L 123.028727 301.849046 
L 120.419914 302.977273 
L 119.543513 302.795087 
L 119.072452 302.13834 
L 118.983719 301.142431 
L 119.615067 299.55914 
L 121.887729 297.480224 
L 122.001634 296.281027 
L 120.295296 294.76274 
L 119.103831 294.89698 
L 115.363636 296.496427 
L 116.29548 294.743373 
L 119.535386 290.953618 
L 125.000296 286.57433 
L 129.545942 282.37888 
L 131.091239 281.492417 
L 133.591898 280.82934 
L 138.684468 280.428466 
L 140.430107 280.93031 
L 142.376318 282.857438 
L 143.861404 286.042437 
L 144.725464 290.363867 
L 145.5917 300.963669 
L 145.798659 302.01219 
L 146.237374 302.781498 
L 148.549094 304.344939 
L 150.446165 304.650187 
L 151.418107 304.488317 
L 153.664359 302.88384 
L 157.094189 298.485423 
L 159.531215 292.292124 
L 160.851731 290.849667 
L 163.862085 288.896596 
L 165.715717 286.755792 
L 165.995626 284.892529 
L 165.397583 281.980156 
L 163.366547 277.784619 
L 161.357727 274.381226 
L 158.747914 270.464557 
L 158.772183 269.532785 
L 159.768723 268.182995 
L 161.273855 267.159924 
L 163.98125 266.976849 
L 167.497128 267.843058 
L 174.55013 271.112904 
L 177.78717 272.980431 
L 180.74565 275.639679 
L 182.248323 276.666433 
L 183.288949 277.133586 
L 184.73383 277.609374 
L 187.587481 275.708804 
L 188.612197 273.751049 
L 188.613699 272.522468 
L 188.252175 271.459409 
L 186.770485 269.465421 
L 179.984908 262.318057 
L 179.492307 260.524356 
L 180.088118 258.732064 
L 182.366711 256.410403 
L 188.374383 252.167565 
L 189.528803 252.135779 
L 192.558815 255.69244 
L 196.311333 261.839957 
L 196.738037 263.500618 
L 193.926781 270.005343 
L 193.859604 271.001488 
L 194.126357 272.062887 
L 194.630034 272.972877 
L 195.665147 273.910414 
L 197.33826 274.393856 
L 199.544197 273.861583 
L 201.299213 272.55308 
L 207.924586 264.376178 
L 209.519902 263.415152 
L 212.949389 261.627181 
L 214.891787 259.141975 
L 215.825414 256.040214 
L 215.379869 250.904153 
L 215.487314 249.914588 
L 216.763744 249.006589 
L 218.06492 249.596709 
L 219.576017 252.273306 
L 221.349467 257.83915 
L 221.772338 259.712121 
L 221.981188 262.788377 
L 221.79053 266.693411 
L 221.973078 269.555733 
L 222.316027 271.589003 
L 222.793129 272.498958 
L 224.518533 273.785023 
L 227.626208 274.511042 
L 229.619183 274.29948 
L 233.630291 271.074727 
L 234.184551 269.022434 
L 234.067244 266.824363 
L 233.781731 264.843516 
L 232.609611 262.016298 
L 232.802575 261.122981 
L 233.403101 260.519769 
L 234.746662 260.352372 
L 245.058057 264.036035 
L 245.4168 264.930172 
L 245.24781 265.799295 
L 243.975086 266.860511 
L 242.031116 267.510287 
L 239.366609 268.883731 
L 237.877335 270.379458 
L 236.290803 273.082568 
L 235.783302 276.197552 
L 236.163525 279.217158 
L 237.287626 282.068438 
L 238.819943 284.630506 
L 240.952366 286.903447 
L 242.846308 287.871755 
L 244.83713 288.164023 
L 245.940889 288.020461 
L 247.717756 286.742503 
L 248.895165 285.077525 
L 250.026169 282.252908 
L 251.353725 275.443695 
L 251.978131 274.912986 
L 253.489274 275.180517 
L 255.573775 277.356813 
L 260.339862 283.956155 
L 262.304549 286.035637 
L 264.773631 287.608543 
L 267.699329 288.650718 
L 270.625424 289.233913 
L 272.66422 289.453741 
L 273.672308 289.189268 
L 276.671149 289.096311 
L 280.702166 288.473232 
L 285.310235 286.933017 
L 289.711699 284.600407 
L 293.822088 281.67493 
L 295.497814 280.853972 
L 297.332203 280.655475 
L 298.32904 280.757041 
L 303.589457 283.091663 
L 304.66573 283.394058 
L 306.639798 283.095379 
L 307.537756 282.43413 
L 308.496765 280.829384 
L 308.657531 279.725609 
L 308.124114 275.590248 
L 307.310172 272.638635 
L 305.460536 268.88312 
L 303.629166 266.452138 
L 301.598223 264.181515 
L 300.742952 262.514556 
L 300.6844 261.470821 
L 301.284543 259.745328 
L 302.562147 258.361885 
L 303.340386 257.80078 
L 305.115294 257.361342 
L 306.909342 257.544148 
L 307.76618 257.866298 
L 308.801328 259.292732 
L 310.828515 264.634133 
L 311.405707 265.498012 
L 313.158751 266.744608 
L 315.111955 267.248705 
L 317.165543 267.090577 
L 320.875294 265.890686 
L 323.568566 264.408556 
L 328.098818 260.479892 
L 329.874032 259.759401 
L 331.608565 259.901946 
L 334.158872 261.169489 
L 335.612994 262.355544 
L 335.931057 263.098546 
L 335.331145 264.643336 
L 334.093371 266.067005 
L 329.145172 269.332835 
L 326.211053 272.19961 
L 325.251785 274.10533 
L 325.043265 275.117462 
L 325.853148 277.162882 
L 327.538685 278.486023 
L 329.631339 279.086218 
L 332.505768 278.963841 
L 337.788832 276.611008 
L 340.633025 275.702227 
L 344.569934 275.48675 
L 348.85081 274.957125 
L 353.63281 273.547325 
L 358.445083 272.766698 
L 360.475844 272.926369 
L 364.286346 273.874523 
L 368.0201 275.155924 
L 368.883735 274.831307 
L 371.385006 275.009473 
L 373.255836 274.924089 
L 375.148895 274.225597 
L 376.477418 272.891284 
L 377.262578 271.096492 
L 377.657378 268.293937 
L 377.358164 263.738448 
L 377.774442 261.176756 
L 379.451598 259.273445 
L 381.649974 258.071586 
L 384.151984 257.570887 
L 385.870184 257.748115 
L 387.501038 258.253739 
L 390.674692 259.943648 
L 394.176018 260.582879 
L 395.966689 260.52446 
L 397.807045 260.156161 
L 400.383887 259.294761 
L 404.101281 256.935262 
L 406.118479 255.102961 
L 407.119192 253.481067 
L 407.611839 251.682373 
L 407.70154 249.883052 
L 406.812789 245.64816 
L 407.726593 243.355892 
L 409.446035 241.399744 
L 412.37435 239.533249 
L 413.829985 238.441188 
L 415.302686 237.684351 
L 418.528209 236.576657 
L 421.998635 235.645739 
L 425.119452 234.044031 
L 427.416961 232.282545 
L 429.8362 231.315086 
L 431.53797 229.411847 
L 432.363582 227.613402 
L 432.592487 226.643382 
L 432.348356 225.620003 
L 431.455482 224.948543 
L 430.386936 224.682683 
L 429.422789 225.087271 
L 428.037038 226.285327 
L 426.319596 226.61847 
L 424.602267 226.722339 
L 423.796461 226.545019 
L 422.272637 225.837542 
L 420.924807 224.742307 
L 420.435903 223.206953 
L 420.490406 221.513365 
L 421.122924 220.032256 
L 424.58054 214.973358 
L 425.668221 213.916045 
L 427.158518 213.035795 
L 428.071329 211.590308 
L 428.650422 210.920488 
L 428.966719 210.091761 
L 429.161496 208.292681 
L 428.518388 203.722898 
L 428.536881 202.858333 
L 429.310468 200.565938 
L 430.83727 198.521268 
L 432.836591 196.8654 
L 435.045867 195.580112 
L 437.446598 195.494636 
L 439.582843 196.7143 
L 441.264306 197.404288 
L 442.2806 197.317236 
L 443.277499 196.688544 
L 443.893686 195.790198 
L 443.91465 194.791265 
L 444.769637 193.313819 
L 445.98152 192.056591 
L 447.312 191.179094 
L 449.75394 190.162969 
L 452.613239 188.687771 
L 454.081744 188.689461 
L 455.330855 189.609945 
L 456.003694 191.208959 
L 456.061384 192.847243 
L 455.642895 194.425086 
L 454.449726 196.621491 
L 453.613521 199.07789 
L 453.532305 200.716016 
L 453.709764 201.715111 
L 455.154799 204.853381 
L 457.058017 206.533905 
L 461.302925 208.097104 
L 463.742923 208.739186 
L 466.162723 209.780856 
L 467.570612 210.741455 
L 469.513458 212.461909 
L 471.078588 214.681304 
L 472.543612 217.739764 
L 474.247835 219.799467 
L 476.429424 221.040755 
L 478.829498 221.842584 
L 486.707229 222.371101 
L 489.306283 222.773643 
L 490.833683 223.374755 
L 495.353772 227.255816 
L 496.980521 227.837152 
L 497.972568 227.93815 
L 501.366553 227.402596 
L 503.867695 226.726176 
L 504.66151 226.687123 
L 505.455497 226.448306 
L 506.447647 226.589268 
L 508.114828 226.39138 
L 510.655635 225.774925 
L 512.123899 225.996391 
L 513.511597 227.216694 
L 514.125125 228.675859 
L 514.32076 231.173515 
L 514.755398 232.912227 
L 515.330096 233.59208 
L 516.162789 234.232321 
L 517.234043 234.553243 
L 518.781736 234.7748 
L 521.31055 234.806585 
L 523.391891 236.211974 
L 522.877588 237.154422 
L 522.064083 239.508521 
L 522.95211 241.567135 
L 523.21293 243.543567 
L 524.496838 244.963707 
L 525.720566 245.637528 
L 529.768137 249.542276 
L 530.144598 251.335861 
L 530.317537 255.908599 
L 531.69267 260.505138 
L 534.203263 265.102984 
L 535.155514 269.586967 
L 536.086938 272.815719 
L 536.59485 276.469854 
L 536.567792 280.68374 
L 535.115665 285.075319 
L 533.509916 287.494224 
L 533.172928 290.138727 
L 533.370059 292.985604 
L 532.625401 295.49887 
L 532.689642 297.892697 
L 533.291179 298.972273 
L 532.687252 299.983022 
L 532.653021 300.623556 
L 531.847485 302.207214 
L 531.241335 305.139701 
L 531.57367 307.365274 
L 531.169373 309.488836 
L 531.235229 310.466635 
L 530.628683 313.736269 
L 529.863892 315.756334 
L 528.531256 317.121639 
L 527.544097 319.023392 
L 527.328673 321.140429 
L 526.340893 323.578205 
L 526.366889 324.11426 
L 525.887462 324.328106 
L 525.433691 325.372834 
L 524.234867 326.121864 
L 524.047833 326.711277 
L 523.939846 328.024399 
L 523.694475 329.077155 
L 522.87828 330.16875 
L 523.116635 331.962711 
L 522.375583 333.027386 
L 522.360431 334.440662 
L 522.207077 334.983077 
L 522.075925 336.59023 
L 521.593852 338.138158 
L 520.117355 338.787365 
L 520.305772 339.658988 
L 519.783585 340.732599 
L 518.356825 341.008813 
L 517.078316 342.021763 
L 515.830941 342.169789 
L 515.064502 343.251025 
L 514.955924 343.78707 
L 513.51224 345.209243 
L 513.390945 345.857456 
L 512.793154 346.949725 
L 511.080643 347.136259 
L 511.021795 347.908269 
L 511.914315 348.862762 
L 511.039054 350.595571 
L 510.072096 352.774977 
L 510.414886 354.612936 
L 510.008352 356.348557 
L 510.096239 358.115479 
L 509.622094 359.720384 
L 508.399242 360.039447 
L 507.587468 360.598635 
L 507.433408 361.467143 
L 507.381509 363.379871 
L 506.60969 364.142759 
L 506.652806 365.396685 
L 505.985015 366.039086 
L 506.04781 366.57177 
L 505.711301 367.252214 
L 506.392387 368.957805 
L 507.939329 370.027267 
L 508.237299 371.681252 
L 508.782821 372.624375 
L 507.658426 373.761128 
L 506.932258 374.746707 
L 506.372566 375.192173 
L 505.592747 375.581744 
L 505.240565 376.507866 
L 504.640795 377.684767 
L 504.716954 378.546209 
L 504.583378 379.451408 
L 504.083215 380.35696 
L 503.874344 381.018931 
L 503.969137 383.063192 
L 503.901836 384.023804 
L 503.730627 384.424016 
L 503.922165 385.531207 
L 503.708356 385.940371 
L 504.136235 386.810657 
L 504.261492 387.882978 
L 503.792616 390.343195 
L 504.295681 391.872186 
L 503.920668 392.856301 
L 504.637209 394.36797 
L 504.637209 394.36797 
" clip-path="url(#p7a60c12b5a)" style="fill: none; stroke: #000000; stroke-width: 2"/>
   </g>
   <g id="matplotlib.axis_1">
    <g id="xtick_1">
     <g id="line2d_1">
      <path d="M 188.340145 708.715452 
L 188.340145 163.924548 
" clip-path="url(#p7a60c12b5a)" style="fill: none; stroke: #b0b0b0; stroke-width: 0.8; stroke-linecap: square"/>
     </g>
     <g id="line2d_2">
      <defs>
       <path id="mddcf3a5e93" d="M 0 0 
L 0 3.5 
" style="stroke: #000000; stroke-width: 0.8"/>
      </defs>
      <g>
       <use xlink:href="#mddcf3a5e93" x="188.340145" y="708.715452" style="stroke: #000000; stroke-width: 0.8"/>
      </g>
     </g>
     <g id="text_1">
      <!-- −47.45 -->
      <g transform="translate(177.20708 747.256834) rotate(-45) scale(0.1 -0.1)">
       <defs>
        <path id="DejaVuSans-2212" d="M 678 2272 
L 4684 2272 
L 4684 1741 
L 678 1741 
L 678 2272 
z
" transform="scale(0.015625)"/>
        <path id="DejaVuSans-34" d="M 2419 4116 
L 825 1625 
L 2419 1625 
L 2419 4116 
z
M 2253 4666 
L 3047 4666 
L 3047 1625 
L 3713 1625 
L 3713 1100 
L 3047 1100 
L 3047 0 
L 2419 0 
L 2419 1100 
L 313 1100 
L 313 1709 
L 2253 4666 
z
" transform="scale(0.015625)"/>
        <path id="DejaVuSans-37" d="M 525 4666 
L 3525 4666 
L 3525 4397 
L 1831 0 
L 1172 0 
L 2766 4134 
L 525 4134 
L 525 4666 
z
" transform="scale(0.015625)"/>
        <path id="DejaVuSans-2e" d="M 684 794 
L 1344 794 
L 1344 0 
L 684 0 
L 684 794 
z
" transform="scale(0.015625)"/>
        <path id="DejaVuSans-35" d="M 691 4666 
L 3169 4666 
L 3169 4134 
L 1269 4134 
L 1269 2991 
Q 1406 3038 1543 3061 
Q 1681 3084 1819 3084 
Q 2600 3084 3056 2656 
Q 3513 2228 3513 1497 
Q 3513 744 3044 326 
Q 2575 -91 1722 -91 
Q 1428 -91 1123 -41 
Q 819 9 494 109 
L 494 744 
Q 775 591 1075 516 
Q 1375 441 1709 441 
Q 2250 441 2565 725 
Q 2881 1009 2881 1497 
Q 2881 1984 2565 2268 
Q 2250 2553 1709 2553 
Q 1456 2553 1204 2497 
Q 953 2441 691 2322 
L 691 4666 
z
" transform="scale(0.015625)"/>
       </defs>
       <use xlink:href="#DejaVuSans-2212"/>
       <use xlink:href="#DejaVuSans-34" transform="translate(83.789062 0)"/>
       <use xlink:href="#DejaVuSans-37" transform="translate(147.412109 0)"/>
       <use xlink:href="#DejaVuSans-2e" transform="translate(211.035156 0)"/>
       <use xlink:href="#DejaVuSans-34" transform="translate(242.822266 0)"/>
       <use xlink:href="#DejaVuSans-35" transform="translate(306.445312 0)"/>
      </g>
     </g>
    </g>
    <g id="xtick_2">
     <g id="line2d_3">
      <path d="M 306.275643 708.715452 
L 306.275643 163.924548 
" clip-path="url(#p7a60c12b5a)" style="fill: none; stroke: #b0b0b0; stroke-width: 0.8; stroke-linecap: square"/>
     </g>
     <g id="line2d_4">
      <g>
       <use xlink:href="#mddcf3a5e93" x="306.275643" y="708.715452" style="stroke: #000000; stroke-width: 0.8"/>
      </g>
     </g>
     <g id="text_2">
      <!-- −47.40 -->
      <g transform="translate(295.142578 747.256834) rotate(-45) scale(0.1 -0.1)">
       <defs>
        <path id="DejaVuSans-30" d="M 2034 4250 
Q 1547 4250 1301 3770 
Q 1056 3291 1056 2328 
Q 1056 1369 1301 889 
Q 1547 409 2034 409 
Q 2525 409 2770 889 
Q 3016 1369 3016 2328 
Q 3016 3291 2770 3770 
Q 2525 4250 2034 4250 
z
M 2034 4750 
Q 2819 4750 3233 4129 
Q 3647 3509 3647 2328 
Q 3647 1150 3233 529 
Q 2819 -91 2034 -91 
Q 1250 -91 836 529 
Q 422 1150 422 2328 
Q 422 3509 836 4129 
Q 1250 4750 2034 4750 
z
" transform="scale(0.015625)"/>
       </defs>
       <use xlink:href="#DejaVuSans-2212"/>
       <use xlink:href="#DejaVuSans-34" transform="translate(83.789062 0)"/>
       <use xlink:href="#DejaVuSans-37" transform="translate(147.412109 0)"/>
       <use xlink:href="#DejaVuSans-2e" transform="translate(211.035156 0)"/>
       <use xlink:href="#DejaVuSans-34" transform="translate(242.822266 0)"/>
       <use xlink:href="#DejaVuSans-30" transform="translate(306.445312 0)"/>
      </g>
     </g>
    </g>
    <g id="xtick_3">
     <g id="line2d_5">
      <path d="M 424.21114 708.715452 
L 424.21114 163.924548 
" clip-path="url(#p7a60c12b5a)" style="fill: none; stroke: #b0b0b0; stroke-width: 0.8; stroke-linecap: square"/>
     </g>
     <g id="line2d_6">
      <g>
       <use xlink:href="#mddcf3a5e93" x="424.21114" y="708.715452" style="stroke: #000000; stroke-width: 0.8"/>
      </g>
     </g>
     <g id="text_3">
      <!-- −47.35 -->
      <g transform="translate(413.078075 747.256834) rotate(-45) scale(0.1 -0.1)">
       <defs>
        <path id="DejaVuSans-33" d="M 2597 2516 
Q 3050 2419 3304 2112 
Q 3559 1806 3559 1356 
Q 3559 666 3084 287 
Q 2609 -91 1734 -91 
Q 1441 -91 1130 -33 
Q 819 25 488 141 
L 488 750 
Q 750 597 1062 519 
Q 1375 441 1716 441 
Q 2309 441 2620 675 
Q 2931 909 2931 1356 
Q 2931 1769 2642 2001 
Q 2353 2234 1838 2234 
L 1294 2234 
L 1294 2753 
L 1863 2753 
Q 2328 2753 2575 2939 
Q 2822 3125 2822 3475 
Q 2822 3834 2567 4026 
Q 2313 4219 1838 4219 
Q 1578 4219 1281 4162 
Q 984 4106 628 3988 
L 628 4550 
Q 988 4650 1302 4700 
Q 1616 4750 1894 4750 
Q 2613 4750 3031 4423 
Q 3450 4097 3450 3541 
Q 3450 3153 3228 2886 
Q 3006 2619 2597 2516 
z
" transform="scale(0.015625)"/>
       </defs>
       <use xlink:href="#DejaVuSans-2212"/>
       <use xlink:href="#DejaVuSans-34" transform="translate(83.789062 0)"/>
       <use xlink:href="#DejaVuSans-37" transform="translate(147.412109 0)"/>
       <use xlink:href="#DejaVuSans-2e" transform="translate(211.035156 0)"/>
       <use xlink:href="#DejaVuSans-33" transform="translate(242.822266 0)"/>
       <use xlink:href="#DejaVuSans-35" transform="translate(306.445312 0)"/>
      </g>
     </g>
    </g>
    <g id="xtick_4">
     <g id="line2d_7">
      <path d="M 542.146637 708.715452 
L 542.146637 163.924548 
" clip-path="url(#p7a60c12b5a)" style="fill: none; stroke: #b0b0b0; stroke-width: 0.8; stroke-linecap: square"/>
     </g>
     <g id="line2d_8">
      <g>
       <use xlink:href="#mddcf3a5e93" x="542.146637" y="708.715452" style="stroke: #000000; stroke-width: 0.8"/>
      </g>
     </g>
     <g id="text_4">
      <!-- −47.30 -->
      <g transform="translate(531.013572 747.256834) rotate(-45) scale(0.1 -0.1)">
       <use xlink:href="#DejaVuSans-2212"/>
       <use xlink:href="#DejaVuSans-34" transform="translate(83.789062 0)"/>
       <use xlink:href="#DejaVuSans-37" transform="translate(147.412109 0)"/>
       <use xlink:href="#DejaVuSans-2e" transform="translate(211.035156 0)"/>
       <use xlink:href="#DejaVuSans-33" transform="translate(242.822266 0)"/>
       <use xlink:href="#DejaVuSans-30" transform="translate(306.445312 0)"/>
      </g>
     </g>
    </g>
    <g id="text_5">
     <!-- Longitude (°) -->
     <g transform="translate(336.139844 760.325833) scale(0.1 -0.1)">
      <defs>
       <path id="DejaVuSans-4c" d="M 628 4666 
L 1259 4666 
L 1259 531 
L 3531 531 
L 3531 0 
L 628 0 
L 628 4666 
z
" transform="scale(0.015625)"/>
       <path id="DejaVuSans-6f" d="M 1959 3097 
Q 1497 3097 1228 2736 
Q 959 2375 959 1747 
Q 959 1119 1226 758 
Q 1494 397 1959 397 
Q 2419 397 2687 759 
Q 2956 1122 2956 1747 
Q 2956 2369 2687 2733 
Q 2419 3097 1959 3097 
z
M 1959 3584 
Q 2709 3584 3137 3096 
Q 3566 2609 3566 1747 
Q 3566 888 3137 398 
Q 2709 -91 1959 -91 
Q 1206 -91 779 398 
Q 353 888 353 1747 
Q 353 2609 779 3096 
Q 1206 3584 1959 3584 
z
" transform="scale(0.015625)"/>
       <path id="DejaVuSans-6e" d="M 3513 2113 
L 3513 0 
L 2938 0 
L 2938 2094 
Q 2938 2591 2744 2837 
Q 2550 3084 2163 3084 
Q 1697 3084 1428 2787 
Q 1159 2491 1159 1978 
L 1159 0 
L 581 0 
L 581 3500 
L 1159 3500 
L 1159 2956 
Q 1366 3272 1645 3428 
Q 1925 3584 2291 3584 
Q 2894 3584 3203 3211 
Q 3513 2838 3513 2113 
z
" transform="scale(0.015625)"/>
       <path id="DejaVuSans-67" d="M 2906 1791 
Q 2906 2416 2648 2759 
Q 2391 3103 1925 3103 
Q 1463 3103 1205 2759 
Q 947 2416 947 1791 
Q 947 1169 1205 825 
Q 1463 481 1925 481 
Q 2391 481 2648 825 
Q 2906 1169 2906 1791 
z
M 3481 434 
Q 3481 -459 3084 -895 
Q 2688 -1331 1869 -1331 
Q 1566 -1331 1297 -1286 
Q 1028 -1241 775 -1147 
L 775 -588 
Q 1028 -725 1275 -790 
Q 1522 -856 1778 -856 
Q 2344 -856 2625 -561 
Q 2906 -266 2906 331 
L 2906 616 
Q 2728 306 2450 153 
Q 2172 0 1784 0 
Q 1141 0 747 490 
Q 353 981 353 1791 
Q 353 2603 747 3093 
Q 1141 3584 1784 3584 
Q 2172 3584 2450 3431 
Q 2728 3278 2906 2969 
L 2906 3500 
L 3481 3500 
L 3481 434 
z
" transform="scale(0.015625)"/>
       <path id="DejaVuSans-69" d="M 603 3500 
L 1178 3500 
L 1178 0 
L 603 0 
L 603 3500 
z
M 603 4863 
L 1178 4863 
L 1178 4134 
L 603 4134 
L 603 4863 
z
" transform="scale(0.015625)"/>
       <path id="DejaVuSans-74" d="M 1172 4494 
L 1172 3500 
L 2356 3500 
L 2356 3053 
L 1172 3053 
L 1172 1153 
Q 1172 725 1289 603 
Q 1406 481 1766 481 
L 2356 481 
L 2356 0 
L 1766 0 
Q 1100 0 847 248 
Q 594 497 594 1153 
L 594 3053 
L 172 3053 
L 172 3500 
L 594 3500 
L 594 4494 
L 1172 4494 
z
" transform="scale(0.015625)"/>
       <path id="DejaVuSans-75" d="M 544 1381 
L 544 3500 
L 1119 3500 
L 1119 1403 
Q 1119 906 1312 657 
Q 1506 409 1894 409 
Q 2359 409 2629 706 
Q 2900 1003 2900 1516 
L 2900 3500 
L 3475 3500 
L 3475 0 
L 2900 0 
L 2900 538 
Q 2691 219 2414 64 
Q 2138 -91 1772 -91 
Q 1169 -91 856 284 
Q 544 659 544 1381 
z
M 1991 3584 
L 1991 3584 
z
" transform="scale(0.015625)"/>
       <path id="DejaVuSans-64" d="M 2906 2969 
L 2906 4863 
L 3481 4863 
L 3481 0 
L 2906 0 
L 2906 525 
Q 2725 213 2448 61 
Q 2172 -91 1784 -91 
Q 1150 -91 751 415 
Q 353 922 353 1747 
Q 353 2572 751 3078 
Q 1150 3584 1784 3584 
Q 2172 3584 2448 3432 
Q 2725 3281 2906 2969 
z
M 947 1747 
Q 947 1113 1208 752 
Q 1469 391 1925 391 
Q 2381 391 2643 752 
Q 2906 1113 2906 1747 
Q 2906 2381 2643 2742 
Q 2381 3103 1925 3103 
Q 1469 3103 1208 2742 
Q 947 2381 947 1747 
z
" transform="scale(0.015625)"/>
       <path id="DejaVuSans-65" d="M 3597 1894 
L 3597 1613 
L 953 1613 
Q 991 1019 1311 708 
Q 1631 397 2203 397 
Q 2534 397 2845 478 
Q 3156 559 3463 722 
L 3463 178 
Q 3153 47 2828 -22 
Q 2503 -91 2169 -91 
Q 1331 -91 842 396 
Q 353 884 353 1716 
Q 353 2575 817 3079 
Q 1281 3584 2069 3584 
Q 2775 3584 3186 3129 
Q 3597 2675 3597 1894 
z
M 3022 2063 
Q 3016 2534 2758 2815 
Q 2500 3097 2075 3097 
Q 1594 3097 1305 2825 
Q 1016 2553 972 2059 
L 3022 2063 
z
" transform="scale(0.015625)"/>
       <path id="DejaVuSans-20" transform="scale(0.015625)"/>
       <path id="DejaVuSans-28" d="M 1984 4856 
Q 1566 4138 1362 3434 
Q 1159 2731 1159 2009 
Q 1159 1288 1364 580 
Q 1569 -128 1984 -844 
L 1484 -844 
Q 1016 -109 783 600 
Q 550 1309 550 2009 
Q 550 2706 781 3412 
Q 1013 4119 1484 4856 
L 1984 4856 
z
" transform="scale(0.015625)"/>
       <path id="DejaVuSans-b0" d="M 1600 4347 
Q 1350 4347 1178 4173 
Q 1006 4000 1006 3750 
Q 1006 3503 1178 3333 
Q 1350 3163 1600 3163 
Q 1850 3163 2022 3333 
Q 2194 3503 2194 3750 
Q 2194 3997 2020 4172 
Q 1847 4347 1600 4347 
z
M 1600 4750 
Q 1800 4750 1984 4673 
Q 2169 4597 2303 4453 
Q 2447 4313 2519 4134 
Q 2591 3956 2591 3750 
Q 2591 3338 2302 3052 
Q 2013 2766 1594 2766 
Q 1172 2766 890 3047 
Q 609 3328 609 3750 
Q 609 4169 896 4459 
Q 1184 4750 1600 4750 
z
" transform="scale(0.015625)"/>
       <path id="DejaVuSans-29" d="M 513 4856 
L 1013 4856 
Q 1481 4119 1714 3412 
Q 1947 2706 1947 2009 
Q 1947 1309 1714 600 
Q 1481 -109 1013 -844 
L 513 -844 
Q 928 -128 1133 580 
Q 1338 1288 1338 2009 
Q 1338 2731 1133 3434 
Q 928 4138 513 4856 
z
" transform="scale(0.015625)"/>
      </defs>
      <use xlink:href="#DejaVuSans-4c"/>
      <use xlink:href="#DejaVuSans-6f" transform="translate(53.962891 0)"/>
      <use xlink:href="#DejaVuSans-6e" transform="translate(115.144531 0)"/>
      <use xlink:href="#DejaVuSans-67" transform="translate(178.523438 0)"/>
      <use xlink:href="#DejaVuSans-69" transform="translate(242 0)"/>
      <use xlink:href="#DejaVuSans-74" transform="translate(269.783203 0)"/>
      <use xlink:href="#DejaVuSans-75" transform="translate(308.992188 0)"/>
      <use xlink:href="#DejaVuSans-64" transform="translate(372.371094 0)"/>
      <use xlink:href="#DejaVuSans-65" transform="translate(435.847656 0)"/>
      <use xlink:href="#DejaVuSans-20" transform="translate(497.371094 0)"/>
      <use xlink:href="#DejaVuSans-28" transform="translate(529.158203 0)"/>
      <use xlink:href="#DejaVuSans-b0" transform="translate(568.171875 0)"/>
      <use xlink:href="#DejaVuSans-29" transform="translate(618.171875 0)"/>
     </g>
    </g>
   </g>
   <g id="matplotlib.axis_2">
    <g id="ytick_1">
     <g id="line2d_9">
      <path d="M 90 677.89278 
L 648 677.89278 
" clip-path="url(#p7a60c12b5a)" style="fill: none; stroke: #b0b0b0; stroke-width: 0.8; stroke-linecap: square"/>
     </g>
     <g id="line2d_10">
      <defs>
       <path id="m172d20b75b" d="M 0 0 
L -3.5 0 
" style="stroke: #000000; stroke-width: 0.8"/>
      </defs>
      <g>
       <use xlink:href="#m172d20b75b" x="90" y="677.89278" style="stroke: #000000; stroke-width: 0.8"/>
      </g>
     </g>
     <g id="text_6">
      <!-- −1.80 -->
      <g transform="translate(52.354687 681.691998) scale(0.1 -0.1)">
       <defs>
        <path id="DejaVuSans-31" d="M 794 531 
L 1825 531 
L 1825 4091 
L 703 3866 
L 703 4441 
L 1819 4666 
L 2450 4666 
L 2450 531 
L 3481 531 
L 3481 0 
L 794 0 
L 794 531 
z
" transform="scale(0.015625)"/>
        <path id="DejaVuSans-38" d="M 2034 2216 
Q 1584 2216 1326 1975 
Q 1069 1734 1069 1313 
Q 1069 891 1326 650 
Q 1584 409 2034 409 
Q 2484 409 2743 651 
Q 3003 894 3003 1313 
Q 3003 1734 2745 1975 
Q 2488 2216 2034 2216 
z
M 1403 2484 
Q 997 2584 770 2862 
Q 544 3141 544 3541 
Q 544 4100 942 4425 
Q 1341 4750 2034 4750 
Q 2731 4750 3128 4425 
Q 3525 4100 3525 3541 
Q 3525 3141 3298 2862 
Q 3072 2584 2669 2484 
Q 3125 2378 3379 2068 
Q 3634 1759 3634 1313 
Q 3634 634 3220 271 
Q 2806 -91 2034 -91 
Q 1263 -91 848 271 
Q 434 634 434 1313 
Q 434 1759 690 2068 
Q 947 2378 1403 2484 
z
M 1172 3481 
Q 1172 3119 1398 2916 
Q 1625 2713 2034 2713 
Q 2441 2713 2670 2916 
Q 2900 3119 2900 3481 
Q 2900 3844 2670 4047 
Q 2441 4250 2034 4250 
Q 1625 4250 1398 4047 
Q 1172 3844 1172 3481 
z
" transform="scale(0.015625)"/>
       </defs>
       <use xlink:href="#DejaVuSans-2212"/>
       <use xlink:href="#DejaVuSans-31" transform="translate(83.789062 0)"/>
       <use xlink:href="#DejaVuSans-2e" transform="translate(147.412109 0)"/>
       <use xlink:href="#DejaVuSans-38" transform="translate(179.199219 0)"/>
       <use xlink:href="#DejaVuSans-30" transform="translate(242.822266 0)"/>
      </g>
     </g>
    </g>
    <g id="ytick_2">
     <g id="line2d_11">
      <path d="M 90 559.905496 
L 648 559.905496 
" clip-path="url(#p7a60c12b5a)" style="fill: none; stroke: #b0b0b0; stroke-width: 0.8; stroke-linecap: square"/>
     </g>
     <g id="line2d_12">
      <g>
       <use xlink:href="#m172d20b75b" x="90" y="559.905496" style="stroke: #000000; stroke-width: 0.8"/>
      </g>
     </g>
     <g id="text_7">
      <!-- −1.75 -->
      <g transform="translate(52.354687 563.704715) scale(0.1 -0.1)">
       <use xlink:href="#DejaVuSans-2212"/>
       <use xlink:href="#DejaVuSans-31" transform="translate(83.789062 0)"/>
       <use xlink:href="#DejaVuSans-2e" transform="translate(147.412109 0)"/>
       <use xlink:href="#DejaVuSans-37" transform="translate(179.199219 0)"/>
       <use xlink:href="#DejaVuSans-35" transform="translate(242.822266 0)"/>
      </g>
     </g>
    </g>
    <g id="ytick_3">
     <g id="line2d_13">
      <path d="M 90 441.918213 
L 648 441.918213 
" clip-path="url(#p7a60c12b5a)" style="fill: none; stroke: #b0b0b0; stroke-width: 0.8; stroke-linecap: square"/>
     </g>
     <g id="line2d_14">
      <g>
       <use xlink:href="#m172d20b75b" x="90" y="441.918213" style="stroke: #000000; stroke-width: 0.8"/>
      </g>
     </g>
     <g id="text_8">
      <!-- −1.70 -->
      <g transform="translate(52.354687 445.717432) scale(0.1 -0.1)">
       <use xlink:href="#DejaVuSans-2212"/>
       <use xlink:href="#DejaVuSans-31" transform="translate(83.789062 0)"/>
       <use xlink:href="#DejaVuSans-2e" transform="translate(147.412109 0)"/>
       <use xlink:href="#DejaVuSans-37" transform="translate(179.199219 0)"/>
       <use xlink:href="#DejaVuSans-30" transform="translate(242.822266 0)"/>
      </g>
     </g>
    </g>
    <g id="ytick_4">
     <g id="line2d_15">
      <path d="M 90 323.93093 
L 648 323.93093 
" clip-path="url(#p7a60c12b5a)" style="fill: none; stroke: #b0b0b0; stroke-width: 0.8; stroke-linecap: square"/>
     </g>
     <g id="line2d_16">
      <g>
       <use xlink:href="#m172d20b75b" x="90" y="323.93093" style="stroke: #000000; stroke-width: 0.8"/>
      </g>
     </g>
     <g id="text_9">
      <!-- −1.65 -->
      <g transform="translate(52.354687 327.730148) scale(0.1 -0.1)">
       <defs>
        <path id="DejaVuSans-36" d="M 2113 2584 
Q 1688 2584 1439 2293 
Q 1191 2003 1191 1497 
Q 1191 994 1439 701 
Q 1688 409 2113 409 
Q 2538 409 2786 701 
Q 3034 994 3034 1497 
Q 3034 2003 2786 2293 
Q 2538 2584 2113 2584 
z
M 3366 4563 
L 3366 3988 
Q 3128 4100 2886 4159 
Q 2644 4219 2406 4219 
Q 1781 4219 1451 3797 
Q 1122 3375 1075 2522 
Q 1259 2794 1537 2939 
Q 1816 3084 2150 3084 
Q 2853 3084 3261 2657 
Q 3669 2231 3669 1497 
Q 3669 778 3244 343 
Q 2819 -91 2113 -91 
Q 1303 -91 875 529 
Q 447 1150 447 2328 
Q 447 3434 972 4092 
Q 1497 4750 2381 4750 
Q 2619 4750 2861 4703 
Q 3103 4656 3366 4563 
z
" transform="scale(0.015625)"/>
       </defs>
       <use xlink:href="#DejaVuSans-2212"/>
       <use xlink:href="#DejaVuSans-31" transform="translate(83.789062 0)"/>
       <use xlink:href="#DejaVuSans-2e" transform="translate(147.412109 0)"/>
       <use xlink:href="#DejaVuSans-36" transform="translate(179.199219 0)"/>
       <use xlink:href="#DejaVuSans-35" transform="translate(242.822266 0)"/>
      </g>
     </g>
    </g>
    <g id="ytick_5">
     <g id="line2d_17">
      <path d="M 90 205.943646 
L 648 205.943646 
" clip-path="url(#p7a60c12b5a)" style="fill: none; stroke: #b0b0b0; stroke-width: 0.8; stroke-linecap: square"/>
     </g>
     <g id="line2d_18">
      <g>
       <use xlink:href="#m172d20b75b" x="90" y="205.943646" style="stroke: #000000; stroke-width: 0.8"/>
      </g>
     </g>
     <g id="text_10">
      <!-- −1.60 -->
      <g transform="translate(52.354687 209.742865) scale(0.1 -0.1)">
       <use xlink:href="#DejaVuSans-2212"/>
       <use xlink:href="#DejaVuSans-31" transform="translate(83.789062 0)"/>
       <use xlink:href="#DejaVuSans-2e" transform="translate(147.412109 0)"/>
       <use xlink:href="#DejaVuSans-36" transform="translate(179.199219 0)"/>
       <use xlink:href="#DejaVuSans-30" transform="translate(242.822266 0)"/>
      </g>
     </g>
    </g>
    <g id="text_11">
     <!-- Latitude (°) -->
     <g transform="translate(46.275 464.889531) rotate(-90) scale(0.1 -0.1)">
      <defs>
       <path id="DejaVuSans-61" d="M 2194 1759 
Q 1497 1759 1228 1600 
Q 959 1441 959 1056 
Q 959 750 1161 570 
Q 1363 391 1709 391 
Q 2188 391 2477 730 
Q 2766 1069 2766 1631 
L 2766 1759 
L 2194 1759 
z
M 3341 1997 
L 3341 0 
L 2766 0 
L 2766 531 
Q 2569 213 2275 61 
Q 1981 -91 1556 -91 
Q 1019 -91 701 211 
Q 384 513 384 1019 
Q 384 1609 779 1909 
Q 1175 2209 1959 2209 
L 2766 2209 
L 2766 2266 
Q 2766 2663 2505 2880 
Q 2244 3097 1772 3097 
Q 1472 3097 1187 3025 
Q 903 2953 641 2809 
L 641 3341 
Q 956 3463 1253 3523 
Q 1550 3584 1831 3584 
Q 2591 3584 2966 3190 
Q 3341 2797 3341 1997 
z
" transform="scale(0.015625)"/>
      </defs>
      <use xlink:href="#DejaVuSans-4c"/>
      <use xlink:href="#DejaVuSans-61" transform="translate(55.712891 0)"/>
      <use xlink:href="#DejaVuSans-74" transform="translate(116.992188 0)"/>
      <use xlink:href="#DejaVuSans-69" transform="translate(156.201172 0)"/>
      <use xlink:href="#DejaVuSans-74" transform="translate(183.984375 0)"/>
      <use xlink:href="#DejaVuSans-75" transform="translate(223.193359 0)"/>
      <use xlink:href="#DejaVuSans-64" transform="translate(286.572266 0)"/>
      <use xlink:href="#DejaVuSans-65" transform="translate(350.048828 0)"/>
      <use xlink:href="#DejaVuSans-20" transform="translate(411.572266 0)"/>
      <use xlink:href="#DejaVuSans-28" transform="translate(443.359375 0)"/>
      <use xlink:href="#DejaVuSans-b0" transform="translate(482.373047 0)"/>
      <use xlink:href="#DejaVuSans-29" transform="translate(532.373047 0)"/>
     </g>
    </g>
   </g>
   <g id="patch_3">
    <path d="M 90 708.715452 
L 90 163.924548 
" style="fill: none; stroke: #000000; stroke-width: 0.8; stroke-linejoin: miter; stroke-linecap: square"/>
   </g>
   <g id="patch_4">
    <path d="M 648 708.715452 
L 648 163.924548 
" style="fill: none; stroke: #000000; stroke-width: 0.8; stroke-linejoin: miter; stroke-linecap: square"/>
   </g>
   <g id="patch_5">
    <path d="M 90 708.715452 
L 648 708.715452 
" style="fill: none; stroke: #000000; stroke-width: 0.8; stroke-linejoin: miter; stroke-linecap: square"/>
   </g>
   <g id="patch_6">
    <path d="M 90 163.924548 
L 648 163.924548 
" style="fill: none; stroke: #000000; stroke-width: 0.8; stroke-linejoin: miter; stroke-linecap: square"/>
   </g>
   <g id="legend_1">
    <g id="patch_7">
     <path d="M 260.005469 840.351758 
L 477.994531 840.351758 
Q 479.994531 840.351758 479.994531 838.351758 
L 479.994531 824.673633 
Q 479.994531 822.673633 477.994531 822.673633 
L 260.005469 822.673633 
Q 258.005469 822.673633 258.005469 824.673633 
L 258.005469 838.351758 
Q 258.005469 840.351758 260.005469 840.351758 
z
" style="fill: #ffffff; opacity: 0.8; stroke: #cccccc; stroke-linejoin: miter"/>
    </g>
    <g id="line2d_19">
     <defs>
      <path id="m47bf40cf6e" d="M 0 5 
C 1.326016 5 2.597899 4.473168 3.535534 3.535534 
C 4.473168 2.597899 5 1.326016 5 0 
C 5 -1.326016 4.473168 -2.597899 3.535534 -3.535534 
C 2.597899 -4.473168 1.326016 -5 0 -5 
C -1.326016 -5 -2.597899 -4.473168 -3.535534 -3.535534 
C -4.473168 -2.597899 -5 -1.326016 -5 0 
C -5 1.326016 -4.473168 2.597899 -3.535534 3.535534 
C -2.597899 4.473168 -1.326016 5 0 5 
z
"/>
     </defs>
     <g>
      <use xlink:href="#m47bf40cf6e" x="272.005469" y="830.772071" style="fill: #b3e2cd; fill-opacity: 0.65"/>
     </g>
    </g>
    <g id="text_12">
     <!-- PA CANDEUA -->
     <g transform="translate(290.005469 834.272071) scale(0.1 -0.1)">
      <defs>
       <path id="DejaVuSans-50" d="M 1259 4147 
L 1259 2394 
L 2053 2394 
Q 2494 2394 2734 2622 
Q 2975 2850 2975 3272 
Q 2975 3691 2734 3919 
Q 2494 4147 2053 4147 
L 1259 4147 
z
M 628 4666 
L 2053 4666 
Q 2838 4666 3239 4311 
Q 3641 3956 3641 3272 
Q 3641 2581 3239 2228 
Q 2838 1875 2053 1875 
L 1259 1875 
L 1259 0 
L 628 0 
L 628 4666 
z
" transform="scale(0.015625)"/>
       <path id="DejaVuSans-41" d="M 2188 4044 
L 1331 1722 
L 3047 1722 
L 2188 4044 
z
M 1831 4666 
L 2547 4666 
L 4325 0 
L 3669 0 
L 3244 1197 
L 1141 1197 
L 716 0 
L 50 0 
L 1831 4666 
z
" transform="scale(0.015625)"/>
       <path id="DejaVuSans-43" d="M 4122 4306 
L 4122 3641 
Q 3803 3938 3442 4084 
Q 3081 4231 2675 4231 
Q 1875 4231 1450 3742 
Q 1025 3253 1025 2328 
Q 1025 1406 1450 917 
Q 1875 428 2675 428 
Q 3081 428 3442 575 
Q 3803 722 4122 1019 
L 4122 359 
Q 3791 134 3420 21 
Q 3050 -91 2638 -91 
Q 1578 -91 968 557 
Q 359 1206 359 2328 
Q 359 3453 968 4101 
Q 1578 4750 2638 4750 
Q 3056 4750 3426 4639 
Q 3797 4528 4122 4306 
z
" transform="scale(0.015625)"/>
       <path id="DejaVuSans-4e" d="M 628 4666 
L 1478 4666 
L 3547 763 
L 3547 4666 
L 4159 4666 
L 4159 0 
L 3309 0 
L 1241 3903 
L 1241 0 
L 628 0 
L 628 4666 
z
" transform="scale(0.015625)"/>
       <path id="DejaVuSans-44" d="M 1259 4147 
L 1259 519 
L 2022 519 
Q 2988 519 3436 956 
Q 3884 1394 3884 2338 
Q 3884 3275 3436 3711 
Q 2988 4147 2022 4147 
L 1259 4147 
z
M 628 4666 
L 1925 4666 
Q 3281 4666 3915 4102 
Q 4550 3538 4550 2338 
Q 4550 1131 3912 565 
Q 3275 0 1925 0 
L 628 0 
L 628 4666 
z
" transform="scale(0.015625)"/>
       <path id="DejaVuSans-45" d="M 628 4666 
L 3578 4666 
L 3578 4134 
L 1259 4134 
L 1259 2753 
L 3481 2753 
L 3481 2222 
L 1259 2222 
L 1259 531 
L 3634 531 
L 3634 0 
L 628 0 
L 628 4666 
z
" transform="scale(0.015625)"/>
       <path id="DejaVuSans-55" d="M 556 4666 
L 1191 4666 
L 1191 1831 
Q 1191 1081 1462 751 
Q 1734 422 2344 422 
Q 2950 422 3222 751 
Q 3494 1081 3494 1831 
L 3494 4666 
L 4128 4666 
L 4128 1753 
Q 4128 841 3676 375 
Q 3225 -91 2344 -91 
Q 1459 -91 1007 375 
Q 556 841 556 1753 
L 556 4666 
z
" transform="scale(0.015625)"/>
      </defs>
      <use xlink:href="#DejaVuSans-50"/>
      <use xlink:href="#DejaVuSans-41" transform="translate(53.927734 0)"/>
      <use xlink:href="#DejaVuSans-20" transform="translate(122.335938 0)"/>
      <use xlink:href="#DejaVuSans-43" transform="translate(154.123047 0)"/>
      <use xlink:href="#DejaVuSans-41" transform="translate(223.947266 0)"/>
      <use xlink:href="#DejaVuSans-4e" transform="translate(292.355469 0)"/>
      <use xlink:href="#DejaVuSans-44" transform="translate(367.160156 0)"/>
      <use xlink:href="#DejaVuSans-45" transform="translate(444.162109 0)"/>
      <use xlink:href="#DejaVuSans-55" transform="translate(507.345703 0)"/>
      <use xlink:href="#DejaVuSans-41" transform="translate(580.539062 0)"/>
     </g>
    </g>
    <g id="line2d_20">
     <defs>
      <path id="mcbea310d31" d="M 0 5 
C 1.326016 5 2.597899 4.473168 3.535534 3.535534 
C 4.473168 2.597899 5 1.326016 5 0 
C 5 -1.326016 4.473168 -2.597899 3.535534 -3.535534 
C 2.597899 -4.473168 1.326016 -5 0 -5 
C -1.326016 -5 -2.597899 -4.473168 -3.535534 -3.535534 
C -4.473168 -2.597899 -5 -1.326016 -5 0 
C -5 1.326016 -4.473168 2.597899 -3.535534 3.535534 
C -2.597899 4.473168 -1.326016 5 0 5 
z
"/>
     </defs>
     <g>
      <use xlink:href="#mcbea310d31" x="384.899219" y="830.772071" style="fill: #cccccc; fill-opacity: 0.65"/>
     </g>
    </g>
    <g id="text_13">
     <!-- PA SOROROCA -->
     <g transform="translate(402.899219 834.272071) scale(0.1 -0.1)">
      <defs>
       <path id="DejaVuSans-53" d="M 3425 4513 
L 3425 3897 
Q 3066 4069 2747 4153 
Q 2428 4238 2131 4238 
Q 1616 4238 1336 4038 
Q 1056 3838 1056 3469 
Q 1056 3159 1242 3001 
Q 1428 2844 1947 2747 
L 2328 2669 
Q 3034 2534 3370 2195 
Q 3706 1856 3706 1288 
Q 3706 609 3251 259 
Q 2797 -91 1919 -91 
Q 1588 -91 1214 -16 
Q 841 59 441 206 
L 441 856 
Q 825 641 1194 531 
Q 1563 422 1919 422 
Q 2459 422 2753 634 
Q 3047 847 3047 1241 
Q 3047 1584 2836 1778 
Q 2625 1972 2144 2069 
L 1759 2144 
Q 1053 2284 737 2584 
Q 422 2884 422 3419 
Q 422 4038 858 4394 
Q 1294 4750 2059 4750 
Q 2388 4750 2728 4690 
Q 3069 4631 3425 4513 
z
" transform="scale(0.015625)"/>
       <path id="DejaVuSans-4f" d="M 2522 4238 
Q 1834 4238 1429 3725 
Q 1025 3213 1025 2328 
Q 1025 1447 1429 934 
Q 1834 422 2522 422 
Q 3209 422 3611 934 
Q 4013 1447 4013 2328 
Q 4013 3213 3611 3725 
Q 3209 4238 2522 4238 
z
M 2522 4750 
Q 3503 4750 4090 4092 
Q 4678 3434 4678 2328 
Q 4678 1225 4090 567 
Q 3503 -91 2522 -91 
Q 1538 -91 948 565 
Q 359 1222 359 2328 
Q 359 3434 948 4092 
Q 1538 4750 2522 4750 
z
" transform="scale(0.015625)"/>
       <path id="DejaVuSans-52" d="M 2841 2188 
Q 3044 2119 3236 1894 
Q 3428 1669 3622 1275 
L 4263 0 
L 3584 0 
L 2988 1197 
Q 2756 1666 2539 1819 
Q 2322 1972 1947 1972 
L 1259 1972 
L 1259 0 
L 628 0 
L 628 4666 
L 2053 4666 
Q 2853 4666 3247 4331 
Q 3641 3997 3641 3322 
Q 3641 2881 3436 2590 
Q 3231 2300 2841 2188 
z
M 1259 4147 
L 1259 2491 
L 2053 2491 
Q 2509 2491 2742 2702 
Q 2975 2913 2975 3322 
Q 2975 3731 2742 3939 
Q 2509 4147 2053 4147 
L 1259 4147 
z
" transform="scale(0.015625)"/>
      </defs>
      <use xlink:href="#DejaVuSans-50"/>
      <use xlink:href="#DejaVuSans-41" transform="translate(53.927734 0)"/>
      <use xlink:href="#DejaVuSans-20" transform="translate(122.335938 0)"/>
      <use xlink:href="#DejaVuSans-53" transform="translate(154.123047 0)"/>
      <use xlink:href="#DejaVuSans-4f" transform="translate(217.599609 0)"/>
      <use xlink:href="#DejaVuSans-52" transform="translate(296.310547 0)"/>
      <use xlink:href="#DejaVuSans-4f" transform="translate(365.792969 0)"/>
      <use xlink:href="#DejaVuSans-52" transform="translate(444.503906 0)"/>
      <use xlink:href="#DejaVuSans-4f" transform="translate(513.986328 0)"/>
      <use xlink:href="#DejaVuSans-43" transform="translate(592.697266 0)"/>
      <use xlink:href="#DejaVuSans-41" transform="translate(662.521484 0)"/>
     </g>
    </g>
   </g>
  </g>
 </g>
 <defs>
  <clipPath id="p7a60c12b5a">
   <rect x="90" y="163.924548" width="558" height="544.790905"/>
  </clipPath>
 </defs>
</svg>
