<?xml version="1.0" encoding="utf-8" standalone="no"?>
<!DOCTYPE svg PUBLIC "-//W3C//DTD SVG 1.1//EN"
  "http://www.w3.org/Graphics/SVG/1.1/DTD/svg11.dtd">
<svg xmlns:xlink="http://www.w3.org/1999/xlink" width="720pt" height="864pt" viewBox="0 0 720 864" xmlns="http://www.w3.org/2000/svg" version="1.1">
 <metadata>
  <rdf:RDF xmlns:dc="http://purl.org/dc/elements/1.1/" xmlns:cc="http://creativecommons.org/ns#" xmlns:rdf="http://www.w3.org/1999/02/22-rdf-syntax-ns#">
   <cc:Work>
    <dc:type rdf:resource="http://purl.org/dc/dcmitype/StillImage"/>
    <dc:date>2025-06-16T16:52:52.546109</dc:date>
    <dc:format>image/svg+xml</dc:format>
    <dc:creator>
     <cc:Agent>
      <dc:title>Matplotlib v3.10.1, https://matplotlib.org/</dc:title>
     </cc:Agent>
    </dc:creator>
   </cc:Work>
  </rdf:RDF>
 </metadata>
 <defs>
  <style type="text/css">*{stroke-linejoin: round; stroke-linecap: butt}</style>
 </defs>
 <g id="figure_1">
  <g id="patch_1">
   <path d="M 0 864 
L 720 864 
L 720 0 
L 0 0 
z
" style="fill: #ffffff"/>
  </g>
  <g id="axes_1">
   <g id="patch_2">
    <path d="M 90 764.245433 
L 648 764.245433 
L 648 108.394567 
L 90 108.394567 
z
" style="fill: #ffffff"/>
   </g>
   <g id="PatchCollection_1">
    <path d="M 508.547351 457.477466 
L 517.233303 460.008894 
L 527.125178 462.993073 
L 527.125178 462.993073 
L 527.250787 463.028176 
L 540.534759 466.770705 
L 539.245084 467.319232 
L 539.401556 469.831195 
L 537.46551 471.047499 
L 537.006394 472.04028 
L 537.143454 473.466912 
L 536.098193 475.17078 
L 535.785484 476.705641 
L 535.963802 478.110762 
L 536.232795 479.449371 
L 535.887731 481.02855 
L 535.959011 482.677152 
L 535.071823 483.621536 
L 534.69348 485.117332 
L 534.603312 486.353936 
L 532.106849 486.921583 
L 530.824805 488.296693 
L 529.176693 487.394268 
L 527.292359 487.45557 
L 526.945787 487.898656 
L 524.981884 488.801503 
L 523.867105 491.22139 
L 525.005068 493.591016 
L 525.22807 495.666249 
L 524.657608 495.506134 
L 515.52926 493.010857 
L 515.398806 492.98265 
L 505.103596 490.113401 
L 501.956999 489.250435 
L 497.216888 495.913502 
L 496.63162 497.31907 
L 495.768299 502.024943 
L 491.882316 501.5015 
L 488.228577 500.859711 
L 482.564812 499.383535 
L 479.976363 503.962492 
L 479.287538 505.160759 
L 483.0891 506.316319 
L 488.352874 507.870476 
L 494.871519 509.765569 
L 490.681363 522.558883 
L 487.344439 528.550863 
L 484.139573 534.322623 
L 479.096253 532.83534 
L 477.655331 532.52527 
L 477.672849 532.824705 
L 476.032281 549.723975 
L 469.447856 548.589045 
L 465.911922 561.587961 
L 462.798343 560.747707 
L 461.536138 560.361182 
L 459.162785 559.564172 
L 456.49923 558.879367 
L 456.163117 558.79346 
L 453.787802 558.163257 
L 461.625167 527.896131 
L 461.693592 527.639519 
L 456.365804 526.260591 
L 441.728088 522.0401 
L 440.56432 521.642228 
L 441.974286 516.674512 
L 444.932628 505.769367 
L 445.664066 503.045852 
L 446.157634 501.832888 
L 446.58999 499.576974 
L 446.853282 498.286064 
L 447.161284 497.651465 
L 447.540851 495.916957 
L 448.752446 491.254056 
L 449.939318 486.581159 
L 449.96878 486.441069 
L 451.032613 482.121453 
L 463.250801 485.466512 
L 472.070204 487.848487 
L 473.973387 481.281451 
L 475.2186 477.473308 
L 476.485161 473.574301 
L 483.381594 476.733754 
L 483.834311 475.397897 
L 485.018582 471.900347 
L 486.206108 468.423801 
L 487.405687 464.896235 
L 488.673679 460.834194 
L 499.61626 464.637261 
L 502.676206 465.52818 
L 508.547351 457.477466 
" clip-path="url(#p4cedfddcd0)" style="fill: #e6f5c9; fill-opacity: 0.65"/>
    <path d="M 622.636364 265.920025 
L 621.572285 269.895451 
L 620.29975 274.518263 
L 619.700261 276.672383 
L 618.602213 280.454063 
L 617.616141 284.625202 
L 616.811519 286.885546 
L 616.210389 289.116694 
L 615.371814 292.184523 
L 615.380391 292.629635 
L 615.22022 293.624635 
L 614.361662 295.775832 
L 613.292221 299.560839 
L 611.449618 306.138494 
L 611.40875 306.278489 
L 609.860142 311.937356 
L 598.057347 308.335397 
L 581.616934 303.375796 
L 581.004365 303.195056 
L 576.539453 301.868489 
L 558.25268 296.418152 
L 558.041514 296.344415 
L 547.942535 293.051055 
L 532.727081 288.277342 
L 534.674105 281.848939 
L 536.159561 276.80858 
L 536.310772 275.632238 
L 536.715327 272.426225 
L 537.300894 270.785162 
L 538.887898 265.761541 
L 553.587646 270.228535 
L 571.076247 275.40387 
L 582.363765 278.700294 
L 584.295254 273.249345 
L 584.80157 272.028607 
L 587.338466 265.882012 
L 589.979166 259.189465 
L 592.984385 251.59648 
L 593.054778 251.405824 
L 594.26413 252.246512 
L 601.642778 255.827693 
L 602.34442 256.14884 
L 610.002127 259.994734 
L 614.228389 261.802201 
L 616.035842 262.717456 
L 622.584578 265.670188 
L 622.636364 265.920025 
" clip-path="url(#p4cedfddcd0)" style="fill: #b3e2cd; fill-opacity: 0.65"/>
    <path d="M 115.363636 598.181121 
L 115.726059 596.926598 
L 130.794174 544.04685 
L 135.410275 553.528847 
L 139.866692 550.708978 
L 142.682791 545.925167 
L 146.973574 542.841679 
L 151.960846 543.232887 
L 156.864922 542.8166 
L 163.569236 543.290055 
L 168.632713 543.541495 
L 173.21088 544.619262 
L 177.705719 547.576002 
L 181.140918 550.564705 
L 183.676919 555.323377 
L 185.591504 561.045968 
L 187.430628 565.563697 
L 192.213942 568.243717 
L 196.912443 570.252876 
L 201.204282 570.392068 
L 204.556438 575.267548 
L 202.921751 582.706291 
L 201.734376 589.055364 
L 200.999396 594.991569 
L 203.247036 599.22781 
L 207.212555 602.735358 
L 211.669849 607.712102 
L 218.125143 613.969986 
L 222.370734 617.873871 
L 223.149942 622.150426 
L 219.797367 626.012805 
L 219.409771 626.57604 
L 214.391653 625.366644 
L 201.955755 622.364727 
L 179.978718 617.099931 
L 157.245087 610.574638 
L 115.568577 598.252043 
L 115.363636 598.181121 
" clip-path="url(#p4cedfddcd0)" style="fill: #cccccc; fill-opacity: 0.65"/>
   </g>
   <g id="PatchCollection_2">
    <path d="M 295.556296 138.20597 
L 301.182586 138.804615 
L 315.154333 140.568847 
L 317.75581 140.652828 
L 320.698901 140.659839 
L 322.721719 141.052622 
L 327.746489 142.085625 
L 329.037137 142.162136 
L 329.890677 142.34172 
L 335.63629 142.940365 
L 397.677561 142.311661 
L 414.099582 142.438478 
L 414.972468 142.582162 
L 419.965344 144.422979 
L 430.771696 148.544722 
L 431.354842 148.650121 
L 433.643686 149.61561 
L 439.792643 151.865662 
L 460.192878 158.647967 
L 461.093952 159.141613 
L 461.823799 159.835786 
L 462.831943 161.585596 
L 473.987676 182.82798 
L 474.64357 184.362871 
L 475.151113 185.050448 
L 476.647587 187.737764 
L 477.208254 188.410104 
L 477.93279 189.058566 
L 483.356798 192.244463 
L 486.245559 193.89959 
L 488.375433 194.631218 
L 491.396582 195.033057 
L 492.119898 195.296977 
L 492.709987 195.777047 
L 494.300055 198.068274 
L 496.950139 199.893439 
L 503.584983 203.856261 
L 503.690008 204.15064 
L 504.671185 204.343326 
L 538.984719 217.328632 
L 542.920845 219.488522 
L 544.328226 219.944298 
L 544.570155 220.241553 
L 545.221135 222.04613 
L 544.899941 223.974634 
L 544.138214 225.678762 
L 544.535834 225.575008 
L 544.841095 225.661465 
L 545.649811 226.706 
L 546.00084 227.29682 
L 547.238231 227.044446 
L 546.799345 228.403948 
L 547.792763 229.327847 
L 547.870821 231.026195 
L 547.68815 231.247709 
L 548.379189 232.214429 
L 549.378329 233.37714 
L 549.326839 234.728816 
L 549.113111 236.623155 
L 550.6096 238.032889 
L 551.263846 239.955627 
L 552.327966 241.383059 
L 554.313594 241.674978 
L 555.398972 243.393098 
L 556.921191 244.536437 
L 558.00167 246.087395 
L 560.319526 248.764009 
L 561.97784 249.765723 
L 563.169052 251.310085 
L 563.865799 253.181776 
L 565.11749 254.755382 
L 566.964595 257.937174 
L 568.547704 259.007648 
L 570.05889 257.837126 
L 571.655489 257.544391 
L 572.104187 259.564287 
L 573.753086 262.49163 
L 574.552004 263.363252 
L 576.430974 263.897659 
L 578.252334 263.938419 
L 578.763556 265.609198 
L 580.665005 265.097425 
L 580.14275 266.610498 
L 581.501511 267.641041 
L 582.382562 268.948251 
L 583.663676 269.639134 
L 585.419232 270.163654 
L 584.60194 271.767734 
L 584.291367 273.250748 
L 582.363349 278.695769 
L 553.587836 270.227893 
L 538.893597 265.762769 
L 536.714676 272.426068 
L 536.158908 276.80844 
L 532.726251 288.277784 
L 547.942333 293.051694 
L 558.248498 296.420806 
L 581.004177 303.195699 
L 578.859577 305.815071 
L 578.657295 307.624584 
L 577.635676 310.041813 
L 575.962666 310.843015 
L 574.916111 312.615488 
L 576.330863 313.987752 
L 578.070884 314.316711 
L 580.195461 314.45958 
L 579.145229 316.071887 
L 578.089685 317.994625 
L 579.545703 318.696609 
L 581.266128 319.6728 
L 583.105054 318.986467 
L 584.292176 320.707048 
L 585.031836 322.566393 
L 585.510369 324.694163 
L 584.299532 326.221243 
L 585.11397 327.518167 
L 587.148234 327.846311 
L 586.986409 329.372976 
L 585.801729 330.875347 
L 584.398422 332.143857 
L 582.823904 333.203229 
L 580.870141 333.782932 
L 578.859577 334.13906 
L 578.618487 337.036358 
L 578.43786 337.699227 
L 578.229032 337.90303 
L 577.880459 337.712404 
L 577.486517 337.803396 
L 576.958952 338.64948 
L 576.601788 338.621066 
L 576.851882 339.215591 
L 576.815927 339.398405 
L 576.580133 339.591506 
L 576.048477 340.349073 
L 574.858898 341.355323 
L 574.609216 343.406923 
L 574.04037 345.184331 
L 572.036353 345.672627 
L 570.080545 345.862437 
L 569.283687 344.633027 
L 568.257154 346.159292 
L 567.303369 347.26064 
L 566.241691 348.813658 
L 565.047611 350.363386 
L 565.790949 352.209539 
L 566.558399 352.96217 
L 568.391602 353.843663 
L 572.144232 355.31722 
L 575.332929 358.582178 
L 572.988917 362.754153 
L 573.330133 362.911429 
L 573.101297 363.634001 
L 572.860192 365.160666 
L 573.9239 367.679989 
L 574.23203 370.444289 
L 574.047726 370.719326 
L 573.65502 371.004234 
L 572.998729 371.313436 
L 572.782545 372.199465 
L 572.727377 372.876326 
L 572.201856 373.514086 
L 572.075588 373.859942 
L 568.543615 375.137924 
L 568.551794 375.603171 
L 568.180743 376.322438 
L 568.218331 376.548073 
L 567.123964 376.996838 
L 567.36426 378.76602 
L 568.304142 382.810763 
L 568.426335 384.392195 
L 567.841969 385.147701 
L 567.734487 386.32605 
L 568.003382 386.795002 
L 567.679319 388.577346 
L 567.501562 388.848263 
L 566.969494 390.073952 
L 567.322568 391.075681 
L 566.985029 392.546764 
L 566.886536 393.794271 
L 567.190989 394.190344 
L 567.84319 394.546902 
L 569.07118 394.296159 
L 569.188063 394.470317 
L 569.226062 395.057431 
L 568.870134 395.421814 
L 568.431646 395.679954 
L 568.895467 396.73027 
L 569.247717 397.161338 
L 569.741785 397.456948 
L 570.351073 397.449136 
L 570.526801 397.619589 
L 570.446697 397.907373 
L 570.684124 398.228521 
L 571.380474 398.63242 
L 571.450353 399.044145 
L 570.932585 399.712365 
L 571.199024 400.612386 
L 571.541476 401.320136 
L 572.14179 401.093685 
L 572.328124 400.838006 
L 572.401681 401.059936 
L 571.977507 403.124298 
L 571.324071 404.335595 
L 571.171646 404.981582 
L 570.879463 405.429117 
L 571.032711 406.026117 
L 570.510044 406.595533 
L 569.62327 406.074703 
L 569.456546 407.139826 
L 568.931834 408.001562 
L 568.827221 408.776426 
L 567.713656 410.507708 
L 567.337691 410.680221 
L 566.505276 411.548137 
L 566.058211 411.983741 
L 564.441177 410.805793 
L 562.194833 410.513059 
L 561.759611 410.969665 
L 561.752667 411.357097 
L 562.084895 411.765932 
L 561.925938 412.061141 
L 562.815566 413.013039 
L 563.115929 413.139026 
L 563.591181 413.127494 
L 563.987168 413.496814 
L 565.245405 415.380852 
L 566.327915 417.265304 
L 566.88736 417.721495 
L 567.044287 418.23779 
L 567.442304 418.721565 
L 568.439414 419.36097 
L 570.250138 420.529432 
L 570.425866 420.844399 
L 571.019633 421.096373 
L 571.418474 421.714776 
L 570.755637 422.820259 
L 570.980809 423.189164 
L 571.65671 423.554763 
L 571.554966 423.881677 
L 571.204746 423.97925 
L 571.209248 424.335393 
L 570.828385 424.95215 
L 571.391508 425.989274 
L 571.42174 426.564872 
L 571.310183 427.056057 
L 571.089512 427.418781 
L 570.599534 427.66828 
L 570.212948 429.328342 
L 570.765037 429.812947 
L 570.701705 430.661906 
L 570.93463 431.180276 
L 570.865163 431.484126 
L 570.622425 432.291925 
L 570.747884 432.455367 
L 570.787928 432.690458 
L 570.73888 433.067189 
L 571.131189 433.568261 
L 570.763404 434.016626 
L 570.461011 434.129436 
L 570.335964 434.45881 
L 570.452832 434.963588 
L 570.27016 435.382309 
L 570.138993 435.793204 
L 569.952232 435.749153 
L 570.331875 435.119219 
L 570.045002 434.684846 
L 569.674348 434.503691 
L 569.326188 434.528385 
L 568.888524 434.716135 
L 568.402635 435.322191 
L 568.724653 435.754504 
L 567.245333 435.767681 
L 566.878372 436.148102 
L 567.116608 436.629001 
L 567.047141 437.093419 
L 565.980564 437.190992 
L 564.663481 436.733156 
L 564.489401 436.806865 
L 563.799598 436.786693 
L 562.903835 437.316579 
L 562.959003 437.082717 
L 563.446112 436.731925 
L 563.3366 436.3198 
L 562.86379 435.939364 
L 562.049352 435.669678 
L 561.856868 435.425945 
L 561.277812 435.045509 
L 560.267227 435.546996 
L 559.80423 437.198003 
L 559.572525 437.756703 
L 559.344498 439.305185 
L 559.865517 440.785739 
L 559.881053 441.251816 
L 559.030248 441.824108 
L 558.527603 442.09996 
L 557.822677 442.204944 
L 556.837012 442.714243 
L 555.525652 443.937472 
L 554.332395 445.990317 
L 554.145649 446.798115 
L 554.130113 447.750013 
L 554.323818 448.415357 
L 554.031635 449.380847 
L 554.157491 449.993899 
L 553.554323 450.843288 
L 552.915613 451.271065 
L 552.790963 451.747014 
L 551.779554 451.551853 
L 551.311658 451.891114 
L 551.391747 452.299133 
L 551.573197 452.637149 
L 550.530732 452.786199 
L 550.425295 453.342853 
L 550.351326 453.964962 
L 550.70849 454.787167 
L 550.971662 455.07249 
L 550.760789 455.460737 
L 550.546665 455.321589 
L 550.556477 454.778926 
L 550.019511 454.816811 
L 549.018311 455.44716 
L 549.373018 455.830887 
L 549.804959 455.916513 
L 549.780038 455.954814 
L 549.641501 456.068854 
L 548.844628 455.920634 
L 548.78415 456.345121 
L 548.5504 456.468633 
L 547.880634 455.948633 
L 547.493224 456.110859 
L 546.983238 456.592159 
L 546.921936 457.113804 
L 547.495269 458.470016 
L 547.08866 458.808861 
L 547.008571 458.687825 
L 546.926437 458.191689 
L 546.334303 457.900614 
L 545.200701 457.894434 
L 544.82147 458.123344 
L 544.644933 458.030707 
L 544.67518 457.760621 
L 544.0242 457.589753 
L 543.559967 457.880427 
L 542.983368 457.774628 
L 542.64786 458.097006 
L 542.642549 458.745868 
L 542.012415 458.651585 
L 541.424371 458.901914 
L 541.044728 459.316515 
L 541.532662 459.480801 
L 541.510594 459.723719 
L 541.150165 460.002861 
L 540.292402 460.03209 
L 540.644254 461.385427 
L 540.955239 461.919018 
L 540.831001 462.032244 
L 540.650786 461.96719 
L 539.829816 460.928821 
L 538.869897 462.320442 
L 538.611623 463.018306 
L 538.349687 465.003222 
L 540.392116 465.975708 
L 540.446871 466.750157 
L 527.124883 462.991967 
L 508.547641 457.476128 
L 502.675899 465.527349 
L 493.752864 462.911262 
L 488.681577 460.833941 
L 486.208479 468.423663 
L 483.381734 476.722479 
L 476.485293 473.573764 
L 473.973426 481.280821 
L 472.075605 487.845966 
L 451.002338 482.113147 
L 449.941484 486.577856 
L 449.898983 486.635499 
L 447.363707 496.623058 
L 446.83083 498.514092 
L 445.977569 502.291224 
L 445.271009 504.218497 
L 443.429229 511.313694 
L 440.562962 521.654921 
L 442.515489 522.290621 
L 460.525518 527.444552 
L 461.69222 527.638468 
L 461.633772 527.850512 
L 453.785648 558.156541 
L 459.160211 559.570796 
L 462.800063 560.746684 
L 465.908672 561.587832 
L 469.451664 548.593054 
L 476.030207 549.726459 
L 477.78853 532.593133 
L 478.144885 532.726116 
L 479.692025 533.013914 
L 484.135282 534.32443 
L 490.681446 522.558647 
L 492.695276 516.162959 
L 494.871755 509.765211 
L 479.287873 505.160523 
L 482.564839 499.383238 
L 488.698687 500.978247 
L 491.882471 501.501137 
L 495.768327 502.024843 
L 496.631813 497.318862 
L 497.216989 495.913248 
L 501.957343 489.250349 
L 525.228332 495.66621 
L 524.690954 496.367779 
L 523.576977 497.026957 
L 522.384941 498.137776 
L 521.879442 498.994576 
L 520.746664 499.741842 
L 520.045415 499.815537 
L 519.355612 500.160563 
L 518.526462 500.849785 
L 518.245725 500.854736 
L 517.296015 501.183695 
L 516.77376 501.587594 
L 516.857953 502.425036 
L 517.416163 502.875047 
L 517.553067 504.87354 
L 517.47623 506.430264 
L 516.872253 508.154565 
L 516.551059 509.05211 
L 516.312808 509.363372 
L 515.618105 509.951731 
L 514.917681 510.285226 
L 514.40359 510.070307 
L 513.779591 510.151828 
L 513.418338 510.13041 
L 512.898952 510.597303 
L 512.605533 510.174061 
L 512.029331 510.95303 
L 511.726938 511.116072 
L 510.789498 510.888392 
L 510.417623 511.463574 
L 510.321999 511.921395 
L 509.63505 513.417601 
L 509.718419 514.108884 
L 510.399234 514.860269 
L 510.406177 515.924577 
L 511.19896 517.32484 
L 512.216902 518.079931 
L 513.091009 518.484245 
L 513.338249 518.828857 
L 513.046463 520.38475 
L 513.817179 521.657396 
L 515.670404 522.744337 
L 514.978571 523.059719 
L 514.532315 522.945664 
L 514.310423 522.673102 
L 513.242625 522.922616 
L 512.769403 523.312923 
L 512.456786 523.748941 
L 512.531167 524.603666 
L 513.079564 524.563321 
L 513.329658 524.33481 
L 513.441626 524.436104 
L 513.786947 524.900521 
L 513.718701 525.106799 
L 513.983094 525.409004 
L 514.457949 525.550213 
L 514.621408 525.737148 
L 514.665954 526.185098 
L 514.540083 526.199505 
L 514.470204 525.861475 
L 514.2099 525.694728 
L 513.763644 525.672495 
L 513.144544 525.995703 
L 513.022763 526.204856 
L 513.603864 526.630988 
L 513.22709 526.60628 
L 512.263081 526.292558 
L 512.015856 526.446128 
L 512.031376 526.816263 
L 511.981122 526.79692 
L 511.895707 526.703453 
L 511.617015 526.128271 
L 511.223882 525.19038 
L 510.836486 525.257479 
L 510.14505 524.951583 
L 509.684097 525.0401 
L 509.322035 525.271901 
L 509.279122 526.068983 
L 508.441395 526.222968 
L 508.125909 526.928258 
L 508.611386 527.227573 
L 507.953462 527.696941 
L 507.548487 528.263052 
L 506.718116 531.60295 
L 506.882383 532.744643 
L 506.989041 533.006503 
L 505.980501 533.483682 
L 505.528125 533.640558 
L 505.334008 533.485743 
L 504.227386 532.190879 
L 503.631162 531.908031 
L 502.332483 531.710809 
L 501.054621 530.738324 
L 500.464135 530.777024 
L 499.467437 531.30485 
L 498.283566 530.292434 
L 497.080511 530.132683 
L 496.477741 530.233561 
L 490.890274 536.635415 
L 489.233608 537.989982 
L 488.724432 537.9064 
L 487.93287 537.494275 
L 487.982315 537.370348 
L 487.622709 536.665059 
L 487.324391 535.731274 
L 485.22475 535.682287 
L 484.533711 536.93433 
L 482.796132 537.60873 
L 481.772468 538.245661 
L 481.592253 539.874849 
L 479.859161 541.803768 
L 478.378222 543.071048 
L 478.910275 544.432196 
L 480.980509 547.026044 
L 481.499483 548.941786 
L 481.593474 550.426875 
L 480.911439 551.84937 
L 479.558401 551.594506 
L 477.630383 550.84189 
L 476.233623 550.58126 
L 476.144133 551.069156 
L 475.961462 552.713567 
L 476.029708 554.413159 
L 475.20097 556.283205 
L 473.97092 557.945728 
L 473.393909 559.096078 
L 471.497374 561.783808 
L 471.806313 563.632021 
L 470.740133 565.106809 
L 470.071588 565.686512 
L 469.973919 566.640069 
L 469.6094 567.446222 
L 469.368706 568.851006 
L 469.128837 569.401895 
L 468.384263 567.150183 
L 466.658542 567.996681 
L 466.26051 569.956889 
L 466.264599 573.914775 
L 466.973616 574.923915 
L 466.208211 576.108014 
L 464.899307 577.703853 
L 466.029217 579.633602 
L 465.952806 580.667021 
L 466.046797 581.677791 
L 465.920514 583.75822 
L 464.706823 584.869054 
L 463.335396 585.92017 
L 461.497692 586.685563 
L 461.641952 588.031904 
L 461.489939 589.464686 
L 459.796479 589.950521 
L 457.129227 590.981879 
L 456.703406 592.903387 
L 456.540771 594.211842 
L 455.053286 595.379904 
L 454.750466 597.298937 
L 457.618382 599.383901 
L 456.296812 600.480728 
L 454.650767 601.580016 
L 453.030879 602.823833 
L 451.20053 602.461924 
L 449.18139 601.813462 
L 447.778083 601.843936 
L 446.284051 603.223196 
L 444.062629 603.287835 
L 440.288756 604.426667 
L 434.93298 606.510802 
L 434.54885 607.50552 
L 433.561553 608.350374 
L 433.14269 609.049883 
L 432.931816 609.708646 
L 432.942041 610.835117 
L 433.034796 611.813783 
L 432.842327 611.934004 
L 432.518264 611.893659 
L 432.479043 611.712905 
L 432.304536 611.562625 
L 431.974354 611.759016 
L 430.550613 611.432117 
L 430.442322 611.60503 
L 430.333208 612.176092 
L 430.065549 612.311135 
L 429.470958 612.367963 
L 429.094184 612.207381 
L 428.417047 611.979701 
L 427.718667 611.630154 
L 425.773084 611.63715 
L 425.109437 612.08387 
L 424.405335 612.16539 
L 424.020793 612.960427 
L 423.055563 613.584596 
L 422.145089 614.259812 
L 421.927683 615.047437 
L 421.414417 614.904168 
L 420.922409 614.502729 
L 420.51171 614.589601 
L 419.379756 614.302232 
L 418.703031 614.361105 
L 418.019363 614.799999 
L 416.259717 614.515091 
L 415.857183 614.049013 
L 415.488589 614.081132 
L 415.010056 614.316639 
L 414.267542 614.827168 
L 413.280245 614.828813 
L 412.235323 615.790597 
L 411.797246 616.808793 
L 411.774767 617.327963 
L 411.268872 617.221749 
L 411.165068 617.34197 
L 410.515309 616.878783 
L 410.387408 616.882903 
L 410.098079 616.716556 
L 409.327775 617.059522 
L 409.197005 617.236571 
L 408.786322 616.854074 
L 408.709087 616.59675 
L 408.168442 616.180504 
L 407.934281 616.40777 
L 407.877892 616.7462 
L 407.320492 617.56347 
L 406.863202 617.840152 
L 406.535476 617.86692 
L 406.288648 617.770162 
L 405.83995 617.859094 
L 405.188147 617.860324 
L 405.035722 617.888323 
L 404.520411 618.181887 
L 404.202482 618.195464 
L 404.142004 618.394331 
L 403.778308 618.378279 
L 403.605037 618.508786 
L 403.410111 619.139136 
L 402.944657 619.462329 
L 401.191955 619.602323 
L 401.106967 619.501044 
L 401.860515 618.682945 
L 401.261437 618.485738 
L 401.178876 618.521548 
L 400.353404 618.022951 
L 399.528345 615.74078 
L 400.0506 615.633321 
L 400.20017 614.478851 
L 399.999933 613.751758 
L 398.466263 612.567271 
L 397.237043 610.681131 
L 395.586511 610.996929 
L 393.815008 611.143088 
L 391.912337 611.978885 
L 391.357379 613.169165 
L 391.262579 615.193197 
L 390.385205 615.720607 
L 389.561366 617.751635 
L 389.875616 618.747583 
L 391.446883 620.055624 
L 392.218408 621.630045 
L 392.27031 622.15335 
L 391.276878 622.483969 
L 391.09912 623.474152 
L 390.399092 624.832424 
L 385.697577 627.173884 
L 384.281604 627.426272 
L 382.736494 626.336856 
L 382.545246 626.611478 
L 381.645805 628.164897 
L 379.736603 628.544102 
L 379.050889 627.474029 
L 377.229529 627.625539 
L 376.439203 626.149936 
L 374.545521 626.000886 
L 373.105436 626.011603 
L 371.558693 624.781378 
L 369.557118 625.326086 
L 367.587834 625.215736 
L 366.167771 626.193172 
L 364.735454 624.976109 
L 363.731812 623.473737 
L 362.927584 623.505857 
L 361.501401 624.322296 
L 362.164636 625.439711 
L 362.838506 626.206749 
L 361.420077 627.524261 
L 359.851267 627.905512 
L 358.382995 628.865235 
L 359.90848 629.596463 
L 359.890502 630.452433 
L 359.570941 631.249115 
L 359.643262 631.478026 
L 359.396449 631.669896 
L 359.108753 632.060619 
L 358.046265 632.511044 
L 357.822328 632.807069 
L 357.39202 633.003045 
L 357.175424 633.276022 
L 357.230591 633.442354 
L 357.517464 633.661794 
L 357.554242 634.865265 
L 358.292682 635.095006 
L 358.318426 635.525259 
L 356.845241 636.335932 
L 354.966668 636.304228 
L 353.883746 638.178394 
L 353.407258 638.377246 
L 352.81636 638.429538 
L 352.492297 638.732574 
L 351.570789 638.62676 
L 351.356253 638.801733 
L 351.166226 639.30239 
L 350.775152 639.551074 
L 350.043672 639.238982 
L 349.731054 639.619418 
L 348.981994 639.906801 
L 348.382092 639.89733 
L 346.506387 640.797766 
L 346.432418 641.858768 
L 344.916334 643.665406 
L 343.2519 644.460442 
L 343.644607 645.60132 
L 342.313224 646.667688 
L 340.481257 647.288566 
L 339.814742 648.339267 
L 338.244711 650.506583 
L 337.769032 651.891194 
L 337.797234 654.107081 
L 334.739718 656.535012 
L 333.414059 658.071148 
L 333.209732 660.157342 
L 334.26404 663.598504 
L 333.160684 667.013742 
L 331.150547 668.917953 
L 330.850993 670.150653 
L 330.833428 671.802074 
L 330.043101 672.705801 
L 329.981387 674.017546 
L 329.448922 674.961218 
L 329.896399 675.90858 
L 329.933575 676.644329 
L 327.865813 678.118702 
L 326.894036 679.515674 
L 326.845812 681.235855 
L 326.473128 682.847331 
L 326.850314 683.763419 
L 328.914413 687.229289 
L 327.806144 688.61762 
L 326.229978 689.690569 
L 324.485867 690.591004 
L 322.216633 693.219847 
L 320.513375 693.870369 
L 319.352395 695.233577 
L 317.055371 695.6243 
L 316.888234 697.643795 
L 316.988772 699.50477 
L 316.627931 701.22083 
L 314.928763 702.306126 
L 313.001981 701.436164 
L 311.193287 702.057042 
L 310.599108 703.27203 
L 308.875019 704.304219 
L 307.160728 705.118598 
L 305.084375 705.089784 
L 303.338631 706.042512 
L 302.306788 705.681834 
L 299.5909 707.215094 
L 298.156538 708.623183 
L 294.453338 709.293048 
L 293.223303 709.165416 
L 292.664681 708.22957 
L 291.529858 708.18881 
L 289.534829 708.386031 
L 286.44789 708.059532 
L 285.184754 709.977335 
L 284.220745 711.888141 
L 282.920007 715.290187 
L 283.77777 717.464914 
L 284.184379 719.194551 
L 286.741707 719.764382 
L 288.554476 720.327203 
L 289.616566 720.831966 
L 290.084462 719.762722 
L 291.727653 719.459701 
L 293.376551 720.413244 
L 294.726735 721.674759 
L 296.215029 721.941554 
L 298.709437 724.063574 
L 298.809151 725.437083 
L 298.612591 727.215722 
L 297.501056 728.153628 
L 300.688533 729.014118 
L 299.351428 733.601523 
L 294.269446 734.43403 
L 291.465701 730.341516 
L 287.373076 728.071692 
L 276.917341 720.837731 
L 270.990276 717.974212 
L 265.404443 717.521312 
L 259.54767 719.377351 
L 253.151062 719.232021 
L 246.824347 717.669531 
L 245.495819 713.105189 
L 247.385426 708.734763 
L 248.829189 703.620347 
L 248.53577 696.605026 
L 247.203578 692.102847 
L 244.016102 688.260647 
L 241.983471 682.772406 
L 238.67055 679.397098 
L 233.387522 677.668276 
L 229.095057 675.343699 
L 226.939424 670.739827 
L 227.084905 663.987581 
L 228.269585 658.717549 
L 230.998963 653.685484 
L 228.072614 649.983693 
L 222.798986 648.799164 
L 218.725559 646.943125 
L 214.526674 642.333902 
L 214.44863 636.859638 
L 216.663505 630.746398 
L 219.08312 627.190351 
L 222.439778 623.323872 
L 221.616763 619.039087 
L 217.786074 615.383407 
L 211.079717 609.44102 
L 210.933 608.872849 
L 212.532057 609.17999 
L 212.830375 609.498248 
L 213.648079 609.442665 
L 214.031797 609.002126 
L 214.755112 608.384954 
L 215.106965 608.366841 
L 215.547483 607.985175 
L 217.135903 608.058055 
L 217.479179 607.781373 
L 217.681461 606.90729 
L 217.469779 606.480328 
L 217.295684 605.306516 
L 217.699851 604.657224 
L 217.882919 603.811555 
L 218.875115 602.816422 
L 219.425572 601.695716 
L 219.881626 601.504261 
L 220.457416 600.291748 
L 220.771254 600.111824 
L 221.091227 599.569576 
L 221.02585 598.944992 
L 220.642941 598.300236 
L 220.264122 596.498964 
L 220.40675 595.915141 
L 220.737344 595.855853 
L 221.00746 595.469236 
L 220.879957 595.288497 
L 221.820678 593.862296 
L 221.960833 592.986968 
L 221.779809 591.453307 
L 221.364624 590.976529 
L 221.26082 590.122204 
L 221.486802 589.710894 
L 221.802288 589.536335 
L 222.007836 589.241126 
L 222.002525 588.787825 
L 222.172928 588.730997 
L 222.275098 588.358802 
L 222.248941 588.012131 
L 222.372355 587.493361 
L 223.16227 586.693389 
L 223.304897 586.372656 
L 223.005755 585.088094 
L 223.260763 584.190533 
L 223.028234 584.01596 
L 222.630202 583.095351 
L 222.613858 582.826495 
L 222.294297 582.542817 
L 221.921201 581.864311 
L 221.835786 581.234777 
L 221.953889 580.213705 
L 222.180283 579.631127 
L 221.904856 579.398095 
L 221.956346 579.242865 
L 221.902811 579.044013 
L 222.08997 578.196269 
L 222.035626 577.629743 
L 221.824355 577.320542 
L 221.968601 576.8203 
L 222.174561 576.709965 
L 222.624082 575.572377 
L 222.61427 574.982373 
L 222.926887 573.931242 
L 223.029455 573.38984 
L 222.345375 571.932749 
L 222.365809 571.796476 
L 222.768328 571.408629 
L 222.718471 571.024072 
L 223.207625 569.856841 
L 223.040489 569.319544 
L 222.967755 568.977823 
L 222.785496 568.687964 
L 222.73686 568.347888 
L 222.542346 568.091794 
L 222.517837 567.818417 
L 222.377666 567.571794 
L 223.138982 566.057891 
L 223.25095 565.136453 
L 223.431577 564.723497 
L 223.602803 563.955229 
L 223.883953 563.786837 
L 223.98121 563.465689 
L 223.991007 562.849346 
L 224.143035 562.645544 
L 224.207192 561.863684 
L 224.469128 561.790389 
L 224.593778 561.422315 
L 225.136055 561.039818 
L 225.207567 560.841367 
L 225.027353 560.391771 
L 225.334659 559.967699 
L 225.031442 559.67744 
L 225.074753 559.664679 
L 225.420883 559.737129 
L 225.679141 559.509448 
L 225.684467 559.159486 
L 225.844248 558.716887 
L 225.542664 558.053188 
L 225.93946 557.727934 
L 226.122529 557.144526 
L 226.348922 557.017709 
L 226.516059 556.687505 
L 226.834811 556.596112 
L 227.017879 556.187262 
L 226.930847 555.621981 
L 227.115151 555.031977 
L 227.081639 554.373629 
L 226.532403 553.815344 
L 226.344833 553.390857 
L 226.429026 553.072185 
L 226.317057 552.508949 
L 226.545084 551.926771 
L 226.288444 551.272543 
L 226.084529 549.155474 
L 226.410225 548.792335 
L 226.31541 548.660998 
L 226.371401 548.411484 
L 226.056327 547.778675 
L 225.884704 547.568691 
L 225.54184 546.730834 
L 225.721245 546.074146 
L 226.006073 545.92099 
L 226.295799 545.614664 
L 225.899813 545.0996 
L 225.818503 544.860803 
L 225.876936 544.659061 
L 226.714663 543.444888 
L 227.201772 542.402413 
L 227.105751 542.086616 
L 227.257352 541.926465 
L 227.377088 541.261521 
L 227.588358 541.226941 
L 227.735061 541.07254 
L 228.102449 539.50842 
L 227.540958 539.080228 
L 227.667638 538.7245 
L 228.308806 538.447403 
L 228.467777 538.057096 
L 228.507012 537.558499 
L 229.079933 536.904271 
L 228.89073 536.229055 
L 229.062765 535.88815 
L 229.547021 535.278388 
L 229.374985 534.944063 
L 229.352918 534.47305 
L 229.567867 534.21408 
L 229.293661 533.965812 
L 229.394184 533.490278 
L 229.556421 533.435111 
L 229.650824 533.044388 
L 230.107275 532.264574 
L 230.167768 531.788625 
L 230.467705 530.739569 
L 230.187379 530.366129 
L 230.2217 530.132268 
L 230.987105 528.755883 
L 230.865324 528.452862 
L 230.888215 528.337162 
L 231.052895 528.355274 
L 231.308712 527.869454 
L 231.26009 527.535959 
L 231.515083 527.060411 
L 231.448058 526.742983 
L 231.657696 525.921593 
L 231.651164 525.581917 
L 231.862846 525.128202 
L 231.797866 524.973816 
L 231.959691 523.996795 
L 231.947025 523.787227 
L 232.076971 523.311693 
L 232.181995 522.991375 
L 232.394899 522.786742 
L 233.131705 522.429785 
L 233.502756 521.849667 
L 233.990277 521.53799 
L 234.38953 520.787419 
L 234.84067 520.08296 
L 234.835771 519.203527 
L 235.259946 518.803333 
L 235.59463 518.341791 
L 235.819803 518.416316 
L 236.103409 518.172569 
L 236.433592 517.952299 
L 236.616264 518.116586 
L 237.839355 517.657505 
L 238.022836 517.417477 
L 238.276608 517.380837 
L 238.370599 517.25279 
L 238.321566 516.229243 
L 237.774375 515.757 
L 237.590071 515.282281 
L 237.662819 514.920387 
L 237.524693 514.615292 
L 237.421301 514.260809 
L 237.616639 514.15541 
L 237.498948 513.725572 
L 237.679972 513.382606 
L 237.962769 513.29738 
L 238.320742 513.422537 
L 238.540192 512.864252 
L 238.853207 512.494102 
L 238.413909 511.932512 
L 238.681583 511.716778 
L 238.760451 511.497738 
L 238.614558 511.140365 
L 238.734706 510.886331 
L 239.035069 510.660296 
L 238.90961 510.296342 
L 239.015032 509.766856 
L 238.916554 509.566759 
L 238.208362 509.122515 
L 238.360787 508.86107 
L 238.361198 508.425066 
L 237.946013 508.067678 
L 237.839355 507.639086 
L 237.445825 507.470693 
L 237.518558 507.230236 
L 237.585584 506.939562 
L 237.445001 506.444671 
L 236.859811 506.25034 
L 236.828755 506.278753 
L 236.71842 506.221941 
L 236.552107 505.65706 
L 234.775705 503.86935 
L 234.671901 503.829835 
L 234.693968 503.012565 
L 234.54809 502.955338 
L 234.584868 502.759761 
L 234.100613 502.334874 
L 233.72097 502.216298 
L 233.23264 502.318807 
L 233.315598 501.96391 
L 233.727929 501.720992 
L 233.746715 501.558365 
L 233.963311 501.275502 
L 233.705038 501.065119 
L 233.30374 500.905783 
L 233.291898 500.389488 
L 233.204438 500.17703 
L 233.405499 499.884296 
L 233.282497 499.773961 
L 232.837065 498.293822 
L 232.963333 497.991202 
L 232.889379 497.353041 
L 233.773284 496.231921 
L 233.979656 496.11293 
L 234.123489 495.750606 
L 234.323741 495.708201 
L 234.637991 495.524171 
L 234.753638 495.090628 
L 234.42344 494.7736 
L 233.904466 492.826969 
L 233.75694 492.7611 
L 233.714851 492.484018 
L 232.882023 491.840907 
L 232.732452 491.381425 
L 232.685449 490.448455 
L 232.137052 489.55214 
L 230.917226 489.062184 
L 230.138743 487.182682 
L 229.880896 486.897359 
L 229.347607 486.687376 
L 229.030488 486.213902 
L 229.168202 486.116314 
L 229.456295 485.619377 
L 229.440775 485.196121 
L 229.091379 484.733348 
L 227.166229 480.522674 
L 227.044448 478.906247 
L 227.198918 477.517101 
L 226.187097 475.174811 
L 225.926793 475.348555 
L 225.650542 475.325507 
L 225.486672 475.199105 
L 225.119299 475.08671 
L 225.187133 475.036478 
L 225.37388 474.879602 
L 225.337101 474.219208 
L 225.672198 473.653082 
L 225.929235 473.705374 
L 226.226332 473.326999 
L 226.270466 473.031804 
L 225.93128 472.872053 
L 226.53486 472.137949 
L 226.594117 471.775225 
L 226.338301 471.573483 
L 226.160543 470.260907 
L 225.819312 469.97929 
L 219.057375 447.915115 
L 219.934749 447.653255 
L 220.081054 447.699381 
L 220.467625 447.273649 
L 220.644986 446.701772 
L 221.030337 446.613256 
L 221.049962 445.887393 
L 220.906525 445.146294 
L 220.935536 445.091942 
L 222.231773 444.366079 
L 222.141872 444.215799 
L 222.07976 443.502698 
L 221.866445 443.075321 
L 221.253877 442.480381 
L 220.35729 442.028311 
L 220.281291 441.746293 
L 220.427169 441.256752 
L 220.266991 440.998183 
L 220.329912 440.715335 
L 220.251868 440.429596 
L 219.596386 440.038059 
L 219.368771 439.71568 
L 219.071689 439.534111 
L 218.583756 437.88186 
L 218.578445 436.674283 
L 218.430507 435.372838 
L 217.451787 433.178769 
L 216.726441 432.438899 
L 216.951202 431.018464 
L 216.399112 429.616956 
L 216.496369 429.100247 
L 216.560938 428.111294 
L 216.308387 427.52295 
L 216.375 426.753437 
L 216.20092 426.051868 
L 215.411403 425.65538 
L 215.603872 423.702983 
L 215.828221 423.353851 
L 215.703586 422.886958 
L 215.900557 420.456567 
L 215.316603 419.001537 
L 214.566718 418.704682 
L 214.431873 418.16491 
L 216.041949 417.724786 
L 216.15555 417.161965 
L 216.870686 416.960623 
L 217.661027 416.905041 
L 217.876387 416.678606 
L 218.513465 416.726362 
L 218.415384 417.184613 
L 218.728825 417.888658 
L 219.231058 417.75772 
L 220.011984 417.893594 
L 221.068351 417.378114 
L 221.342954 417.1562 
L 221.638418 417.088671 
L 222.065858 416.74612 
L 222.646959 416.705359 
L 223.499411 415.689638 
L 223.746239 415.363154 
L 224.088279 415.342566 
L 224.256637 415.216164 
L 224.368605 415.385387 
L 224.840591 415.488311 
L 224.792779 415.697464 
L 225.215335 416.423741 
L 225.914936 415.559946 
L 226.644783 415.544723 
L 227.385665 415.127648 
L 226.768609 414.348248 
L 226.529549 413.779262 
L 226.822144 413.381113 
L 226.74613 412.488919 
L 226.970891 411.851573 
L 227.232431 411.49626 
L 227.366054 412.191649 
L 227.980668 413.28354 
L 228.625513 413.466755 
L 229.585432 413.436696 
L 229.897638 413.302898 
L 232.045503 411.804632 
L 231.948658 411.255403 
L 232.033248 410.437304 
L 231.302989 410.123166 
L 231.146886 408.941928 
L 231.311977 408.925461 
L 232.136228 408.459398 
L 232.270676 408.009803 
L 232.15625 407.809291 
L 232.710385 407.257172 
L 233.124761 407.125419 
L 232.648273 405.745329 
L 233.783906 403.868702 
L 234.156193 402.277399 
L 233.393642 400.766371 
L 234.584868 400.60745 
L 236.270546 399.123191 
L 237.765798 397.365555 
L 237.945601 397.426073 
L 239.591234 397.618344 
L 240.504562 400.096907 
L 241.745234 398.733284 
L 243.282164 397.890906 
L 244.934344 397.700695 
L 245.49092 397.244504 
L 245.911416 395.961987 
L 247.436916 394.798046 
L 248.588481 393.493311 
L 249.300763 391.897472 
L 249.307707 391.8106 
L 249.754772 391.603092 
L 251.502987 391.823362 
L 252.920181 392.348312 
L 253.27121 392.014402 
L 253.628785 391.427289 
L 253.485746 390.975218 
L 253.607939 389.810447 
L 253.749743 389.464605 
L 253.710095 389.068532 
L 253.422414 388.952017 
L 253.545004 388.577761 
L 253.707653 388.465767 
L 254.43831 388.634989 
L 254.832664 387.536932 
L 255.994041 386.124722 
L 256.398208 385.074822 
L 257.010761 384.930307 
L 257.746332 383.862724 
L 258.360136 383.795195 
L 258.543205 383.063567 
L 259.318422 382.890639 
L 259.320452 382.712775 
L 259.108373 382.090251 
L 259.114905 381.426967 
L 261.117701 379.481181 
L 262.481375 376.1907 
L 262.146278 375.504768 
L 262.82749 374.591571 
L 262.945593 374.140315 
L 262.360006 373.199949 
L 261.599088 371.541116 
L 261.237025 370.137563 
L 261.487943 369.435164 
L 262.145043 368.379913 
L 262.108676 366.395826 
L 261.405794 364.498197 
L 262.415983 364.701184 
L 263.16341 364.135473 
L 264.611248 363.205808 
L 265.188274 361.412348 
L 265.040748 359.502787 
L 265.325163 358.616758 
L 265.386878 356.744252 
L 265.4923 356.150127 
L 265.756693 355.440732 
L 265.774273 353.772443 
L 265.176828 352.018913 
L 267.545777 349.531694 
L 269.725507 349.562169 
L 270.293529 348.245887 
L 268.432139 346.524891 
L 266.547431 346.545894 
L 263.38367 345.355599 
L 262.505075 343.884932 
L 263.129898 342.15159 
L 262.397593 340.584979 
L 259.834954 341.205858 
L 259.28082 338.787413 
L 259.576269 336.245442 
L 258.10145 335.123492 
L 257.605352 331.627563 
L 258.852144 329.858811 
L 258.391604 328.111876 
L 258.463925 327.044693 
L 257.308667 326.162785 
L 256.661777 324.210803 
L 255.329983 322.793658 
L 253.475537 321.628487 
L 254.028435 319.807028 
L 255.817504 319.212088 
L 257.714467 318.441759 
L 259.892976 318.394403 
L 261.748246 317.206999 
L 260.362108 315.540355 
L 260.456909 314.880362 
L 260.000855 314.380535 
L 259.778551 313.692957 
L 259.891343 313.329404 
L 259.763839 312.33181 
L 258.289433 311.761163 
L 258.210977 311.395964 
L 257.71201 310.659386 
L 258.696041 308.943741 
L 258.824354 308.272645 
L 259.050336 307.85803 
L 259.183151 307.143284 
L 259.991866 307.077 
L 260.356797 306.567702 
L 260.469178 304.792354 
L 259.123084 303.617296 
L 259.439379 302.878672 
L 260.744605 303.257048 
L 261.010631 302.856024 
L 261.227624 302.751455 
L 261.69758 302.90049 
L 261.838972 302.778209 
L 261.815272 302.322432 
L 261.026166 301.584624 
L 261.526354 300.02667 
L 262.088654 299.387679 
L 262.934972 299.351039 
L 264.164183 300.121367 
L 265.431012 301.367244 
L 266.134291 301.77937 
L 266.660224 301.545923 
L 266.875172 301.11321 
L 266.500855 300.689953 
L 266.286716 299.524782 
L 265.932833 298.755684 
L 265.819217 298.265743 
L 266.584622 296.892234 
L 266.467754 295.845639 
L 266.852693 295.15065 
L 267.318147 294.645473 
L 267.51962 294.170754 
L 267.449741 293.503765 
L 265.648005 291.86552 
L 265.237307 291.178358 
L 265.264273 290.027593 
L 265.430188 289.087627 
L 266.065633 288.872308 
L 266.721526 288.803964 
L 267.751325 288.899062 
L 268.329968 288.828658 
L 268.816666 289.054278 
L 269.300509 289.154741 
L 269.757799 288.841019 
L 270.572237 287.777541 
L 271.582013 287.591852 
L 272.570943 286.264454 
L 272.205203 285.645636 
L 271.698469 285.524599 
L 269.507705 285.891444 
L 267.026376 286.371098 
L 266.908685 285.954022 
L 268.280523 284.958473 
L 268.218 284.571457 
L 267.634442 283.887585 
L 267.531874 283.360989 
L 267.237234 282.933212 
L 267.966273 282.13447 
L 268.38596 280.64363 
L 269.454979 279.136723 
L 270.519511 278.572257 
L 271.061391 278.44421 
L 271.246917 278.092603 
L 273.219466 277.144811 
L 273.643243 276.649934 
L 274.250089 275.753604 
L 273.87739 274.810347 
L 273.590929 274.467396 
L 273.219466 274.360337 
L 272.783847 273.440974 
L 272.682912 272.904077 
L 272.886415 271.193782 
L 271.355207 270.390935 
L 272.697211 270.47121 
L 273.588885 270.133195 
L 275.104571 269.348045 
L 275.930867 267.949827 
L 276.614948 266.305002 
L 277.399963 263.567869 
L 278.777524 262.108319 
L 280.494257 261.327289 
L 280.983 259.107696 
L 282.342172 257.801301 
L 283.704213 255.110695 
L 282.347086 255.211159 
L 280.880844 252.266104 
L 279.195167 251.951551 
L 277.326406 251.887328 
L 275.802554 253.263712 
L 276.099636 251.596654 
L 274.519381 250.482529 
L 271.035646 250.55993 
L 270.068783 248.864457 
L 269.363033 248.011793 
L 266.696193 248.035671 
L 267.228658 246.674509 
L 267.942985 247.189573 
L 268.470948 246.895608 
L 268.490985 246.706213 
L 268.983817 245.53034 
L 269.146451 244.138718 
L 268.051275 243.834453 
L 267.642622 243.4812 
L 267.406018 243.090893 
L 267.667146 242.428424 
L 268.293602 241.898123 
L 268.801954 241.714508 
L 269.832577 240.958172 
L 270.199538 239.874521 
L 270.345431 239.102133 
L 271.015212 237.80973 
L 270.901611 237.412826 
L 271.009489 237.233317 
L 271.229337 237.174444 
L 271.456142 236.799359 
L 272.111624 237.680452 
L 272.625699 237.749626 
L 273.046195 237.385658 
L 273.140599 237.384828 
L 273.338393 237.509584 
L 273.589296 237.51452 
L 273.860236 237.647103 
L 274.332223 237.654929 
L 274.263976 238.00077 
L 274.619507 238.395198 
L 275.007314 238.499367 
L 276.082071 238.197162 
L 276.526679 237.614168 
L 276.733051 236.786197 
L 276.604723 236.338647 
L 276.239395 236.013794 
L 276.207118 235.827704 
L 276.431864 235.521793 
L 276.520133 235.157824 
L 276.898142 234.482193 
L 276.454755 232.795777 
L 276.249604 231.341577 
L 275.961511 230.817872 
L 275.974589 230.334927 
L 276.07267 229.946665 
L 275.966013 229.435721 
L 275.715507 229.049935 
L 275.70284 228.070868 
L 276.470687 225.741756 
L 277.058335 225.110576 
L 277.915274 224.538285 
L 278.691301 223.835885 
L 279.038652 223.049505 
L 279.252776 221.833272 
L 279.668374 221.305446 
L 280.631971 220.919659 
L 280.990767 220.623219 
L 281.794996 220.560641 
L 282.078602 220.534703 
L 282.372419 220.348612 
L 282.581644 219.811716 
L 282.823971 219.50705 
L 282.963332 218.970568 
L 283.801058 217.994377 
L 283.788392 217.630008 
L 283.163569 216.644346 
L 282.846862 215.880183 
L 283.587743 215.33466 
L 284.550928 214.85336 
L 285.23951 214.154252 
L 285.27751 213.794819 
L 284.745854 212.808326 
L 284.505573 212.509011 
L 283.925281 210.78554 
L 284.015197 210.26471 
L 284.051564 208.741751 
L 284.962435 205.780644 
L 285.287734 205.60484 
L 285.566427 205.090191 
L 285.484293 204.729943 
L 285.843487 204.120181 
L 286.004503 203.942717 
L 286.418056 203.955894 
L 286.696351 203.74345 
L 287.830351 203.318148 
L 287.935376 201.776661 
L 287.989308 201.677428 
L 288.301925 201.709133 
L 288.701178 201.631317 
L 289.642708 201.364936 
L 289.785747 201.686485 
L 290.904211 202.455583 
L 292.00308 202.62233 
L 293.271115 202.39671 
L 293.81095 201.746187 
L 293.191026 200.772057 
L 293.600077 200.017781 
L 293.748426 199.513833 
L 294.645822 198.59198 
L 294.795378 198.22432 
L 294.37856 194.690091 
L 294.650309 193.997163 
L 294.38877 193.606856 
L 294.479083 191.247684 
L 294.86158 190.631342 
L 295.320502 188.706129 
L 295.237956 188.182008 
L 294.815401 187.82505 
L 294.523217 186.379491 
L 294.830524 186.383612 
L 295.219964 186.117231 
L 295.107996 185.679567 
L 294.767191 185.295426 
L 294.605763 184.794369 
L 294.272726 184.448927 
L 293.745146 184.353815 
L 292.014525 184.681144 
L 291.875576 184.479401 
L 291.61895 183.585962 
L 292.001035 182.396497 
L 291.94341 182.025117 
L 292.007979 181.437589 
L 291.845741 181.189735 
L 291.869044 180.902352 
L 292.392932 179.817886 
L 292.704314 179.39586 
L 292.665093 178.54195 
L 292.33082 178.27969 
L 292.019836 178.46455 
L 291.59525 178.273509 
L 291.697818 178.131885 
L 291.063183 177.668283 
L 290.389724 177.42083 
L 290.227898 176.961763 
L 290.294923 176.512583 
L 289.862158 176.209547 
L 289.955325 176.048566 
L 289.862158 175.798237 
L 289.531563 175.29512 
L 289.189111 175.057138 
L 288.891617 175.010612 
L 288.272502 175.453211 
L 287.793572 175.058368 
L 287.760472 174.758638 
L 287.881017 174.049658 
L 287.192861 172.935948 
L 286.822619 172.217912 
L 286.17164 171.616376 
L 286.323653 171.147423 
L 286.241519 170.317392 
L 285.747863 169.436729 
L 285.779742 168.949664 
L 285.020472 168.373251 
L 284.947327 168.256736 
L 285.038449 168.112221 
L 285.157362 167.592207 
L 285.310198 167.500399 
L 285.339621 166.744478 
L 285.704552 167.214661 
L 286.429089 166.933043 
L 286.328154 166.496209 
L 286.542691 166.297758 
L 286.71555 165.776098 
L 286.662015 165.442203 
L 286.854896 165.253223 
L 287.048601 165.23305 
L 287.156083 165.340094 
L 287.258239 165.64024 
L 287.883474 165.703233 
L 288.162579 164.45119 
L 287.795617 164.504297 
L 287.870807 164.344546 
L 288.234503 164.15309 
L 288.517285 163.792012 
L 288.285993 163.278193 
L 287.937818 163.250194 
L 287.070668 163.743025 
L 286.890866 163.367125 
L 287.793572 162.544905 
L 288.240637 162.734715 
L 289.565885 162.929461 
L 290.365612 163.117611 
L 291.190686 162.405341 
L 292.206995 160.543536 
L 292.335307 159.293138 
L 292.608292 158.160486 
L 293.106023 157.153407 
L 294.061853 156.645353 
L 294.441907 156.591001 
L 295.176654 157.019608 
L 296.184385 157.852515 
L 296.90851 158.062498 
L 298.164291 157.843459 
L 298.814461 157.546189 
L 299.125034 156.818267 
L 298.331839 152.691988 
L 297.583602 152.146465 
L 297.339643 152.183935 
L 296.562792 151.970661 
L 296.325777 151.530937 
L 296.360098 151.084632 
L 295.491316 150.537864 
L 294.642144 150.681563 
L 294.264959 150.469105 
L 294.179544 150.132735 
L 293.701011 149.68354 
L 294.290704 148.614296 
L 295.106775 147.576357 
L 295.173388 146.990888 
L 295.021772 146.711316 
L 294.676466 146.563926 
L 294.39286 145.336992 
L 295.315588 145.014613 
L 295.946149 144.734241 
L 296.203598 144.828108 
L 296.250175 144.002197 
L 296.081405 143.883622 
L 295.823544 143.483428 
L 295.272278 143.260268 
L 295.606551 142.545107 
L 295.249387 142.169622 
L 295.465159 140.873928 
L 295.002162 140.487326 
L 294.018954 139.923675 
L 293.687536 139.476956 
L 292.802807 138.795559 
L 292.620959 138.472766 
L 295.556296 138.20597 
L 295.556296 138.20597 
" clip-path="url(#p4cedfddcd0)" style="fill: none; stroke: #000000; stroke-width: 2"/>
   </g>
   <g id="matplotlib.axis_1">
    <g id="xtick_1">
     <g id="line2d_1">
      <path d="M 113.185511 764.245433 
L 113.185511 108.394567 
" clip-path="url(#p4cedfddcd0)" style="fill: none; stroke: #b0b0b0; stroke-width: 0.8; stroke-linecap: square"/>
     </g>
     <g id="line2d_2">
      <defs>
       <path id="mebcad88cab" d="M 0 0 
L 0 3.5 
" style="stroke: #000000; stroke-width: 0.8"/>
      </defs>
      <g>
       <use xlink:href="#mebcad88cab" x="113.185511" y="764.245433" style="stroke: #000000; stroke-width: 0.8"/>
      </g>
     </g>
     <g id="text_1">
      <!-- −50.60 -->
      <g transform="translate(102.052446 802.786815) rotate(-45) scale(0.1 -0.1)">
       <defs>
        <path id="DejaVuSans-2212" d="M 678 2272 
L 4684 2272 
L 4684 1741 
L 678 1741 
L 678 2272 
z
" transform="scale(0.015625)"/>
        <path id="DejaVuSans-35" d="M 691 4666 
L 3169 4666 
L 3169 4134 
L 1269 4134 
L 1269 2991 
Q 1406 3038 1543 3061 
Q 1681 3084 1819 3084 
Q 2600 3084 3056 2656 
Q 3513 2228 3513 1497 
Q 3513 744 3044 326 
Q 2575 -91 1722 -91 
Q 1428 -91 1123 -41 
Q 819 9 494 109 
L 494 744 
Q 775 591 1075 516 
Q 1375 441 1709 441 
Q 2250 441 2565 725 
Q 2881 1009 2881 1497 
Q 2881 1984 2565 2268 
Q 2250 2553 1709 2553 
Q 1456 2553 1204 2497 
Q 953 2441 691 2322 
L 691 4666 
z
" transform="scale(0.015625)"/>
        <path id="DejaVuSans-30" d="M 2034 4250 
Q 1547 4250 1301 3770 
Q 1056 3291 1056 2328 
Q 1056 1369 1301 889 
Q 1547 409 2034 409 
Q 2525 409 2770 889 
Q 3016 1369 3016 2328 
Q 3016 3291 2770 3770 
Q 2525 4250 2034 4250 
z
M 2034 4750 
Q 2819 4750 3233 4129 
Q 3647 3509 3647 2328 
Q 3647 1150 3233 529 
Q 2819 -91 2034 -91 
Q 1250 -91 836 529 
Q 422 1150 422 2328 
Q 422 3509 836 4129 
Q 1250 4750 2034 4750 
z
" transform="scale(0.015625)"/>
        <path id="DejaVuSans-2e" d="M 684 794 
L 1344 794 
L 1344 0 
L 684 0 
L 684 794 
z
" transform="scale(0.015625)"/>
        <path id="DejaVuSans-36" d="M 2113 2584 
Q 1688 2584 1439 2293 
Q 1191 2003 1191 1497 
Q 1191 994 1439 701 
Q 1688 409 2113 409 
Q 2538 409 2786 701 
Q 3034 994 3034 1497 
Q 3034 2003 2786 2293 
Q 2538 2584 2113 2584 
z
M 3366 4563 
L 3366 3988 
Q 3128 4100 2886 4159 
Q 2644 4219 2406 4219 
Q 1781 4219 1451 3797 
Q 1122 3375 1075 2522 
Q 1259 2794 1537 2939 
Q 1816 3084 2150 3084 
Q 2853 3084 3261 2657 
Q 3669 2231 3669 1497 
Q 3669 778 3244 343 
Q 2819 -91 2113 -91 
Q 1303 -91 875 529 
Q 447 1150 447 2328 
Q 447 3434 972 4092 
Q 1497 4750 2381 4750 
Q 2619 4750 2861 4703 
Q 3103 4656 3366 4563 
z
" transform="scale(0.015625)"/>
       </defs>
       <use xlink:href="#DejaVuSans-2212"/>
       <use xlink:href="#DejaVuSans-35" transform="translate(83.789062 0)"/>
       <use xlink:href="#DejaVuSans-30" transform="translate(147.412109 0)"/>
       <use xlink:href="#DejaVuSans-2e" transform="translate(211.035156 0)"/>
       <use xlink:href="#DejaVuSans-36" transform="translate(242.822266 0)"/>
       <use xlink:href="#DejaVuSans-30" transform="translate(306.445312 0)"/>
      </g>
     </g>
    </g>
    <g id="xtick_2">
     <g id="line2d_3">
      <path d="M 186.742548 764.245433 
L 186.742548 108.394567 
" clip-path="url(#p4cedfddcd0)" style="fill: none; stroke: #b0b0b0; stroke-width: 0.8; stroke-linecap: square"/>
     </g>
     <g id="line2d_4">
      <g>
       <use xlink:href="#mebcad88cab" x="186.742548" y="764.245433" style="stroke: #000000; stroke-width: 0.8"/>
      </g>
     </g>
     <g id="text_2">
      <!-- −50.55 -->
      <g transform="translate(175.609483 802.786815) rotate(-45) scale(0.1 -0.1)">
       <use xlink:href="#DejaVuSans-2212"/>
       <use xlink:href="#DejaVuSans-35" transform="translate(83.789062 0)"/>
       <use xlink:href="#DejaVuSans-30" transform="translate(147.412109 0)"/>
       <use xlink:href="#DejaVuSans-2e" transform="translate(211.035156 0)"/>
       <use xlink:href="#DejaVuSans-35" transform="translate(242.822266 0)"/>
       <use xlink:href="#DejaVuSans-35" transform="translate(306.445312 0)"/>
      </g>
     </g>
    </g>
    <g id="xtick_3">
     <g id="line2d_5">
      <path d="M 260.299585 764.245433 
L 260.299585 108.394567 
" clip-path="url(#p4cedfddcd0)" style="fill: none; stroke: #b0b0b0; stroke-width: 0.8; stroke-linecap: square"/>
     </g>
     <g id="line2d_6">
      <g>
       <use xlink:href="#mebcad88cab" x="260.299585" y="764.245433" style="stroke: #000000; stroke-width: 0.8"/>
      </g>
     </g>
     <g id="text_3">
      <!-- −50.50 -->
      <g transform="translate(249.16652 802.786815) rotate(-45) scale(0.1 -0.1)">
       <use xlink:href="#DejaVuSans-2212"/>
       <use xlink:href="#DejaVuSans-35" transform="translate(83.789062 0)"/>
       <use xlink:href="#DejaVuSans-30" transform="translate(147.412109 0)"/>
       <use xlink:href="#DejaVuSans-2e" transform="translate(211.035156 0)"/>
       <use xlink:href="#DejaVuSans-35" transform="translate(242.822266 0)"/>
       <use xlink:href="#DejaVuSans-30" transform="translate(306.445312 0)"/>
      </g>
     </g>
    </g>
    <g id="xtick_4">
     <g id="line2d_7">
      <path d="M 333.856622 764.245433 
L 333.856622 108.394567 
" clip-path="url(#p4cedfddcd0)" style="fill: none; stroke: #b0b0b0; stroke-width: 0.8; stroke-linecap: square"/>
     </g>
     <g id="line2d_8">
      <g>
       <use xlink:href="#mebcad88cab" x="333.856622" y="764.245433" style="stroke: #000000; stroke-width: 0.8"/>
      </g>
     </g>
     <g id="text_4">
      <!-- −50.45 -->
      <g transform="translate(322.723557 802.786815) rotate(-45) scale(0.1 -0.1)">
       <defs>
        <path id="DejaVuSans-34" d="M 2419 4116 
L 825 1625 
L 2419 1625 
L 2419 4116 
z
M 2253 4666 
L 3047 4666 
L 3047 1625 
L 3713 1625 
L 3713 1100 
L 3047 1100 
L 3047 0 
L 2419 0 
L 2419 1100 
L 313 1100 
L 313 1709 
L 2253 4666 
z
" transform="scale(0.015625)"/>
       </defs>
       <use xlink:href="#DejaVuSans-2212"/>
       <use xlink:href="#DejaVuSans-35" transform="translate(83.789062 0)"/>
       <use xlink:href="#DejaVuSans-30" transform="translate(147.412109 0)"/>
       <use xlink:href="#DejaVuSans-2e" transform="translate(211.035156 0)"/>
       <use xlink:href="#DejaVuSans-34" transform="translate(242.822266 0)"/>
       <use xlink:href="#DejaVuSans-35" transform="translate(306.445312 0)"/>
      </g>
     </g>
    </g>
    <g id="xtick_5">
     <g id="line2d_9">
      <path d="M 407.413659 764.245433 
L 407.413659 108.394567 
" clip-path="url(#p4cedfddcd0)" style="fill: none; stroke: #b0b0b0; stroke-width: 0.8; stroke-linecap: square"/>
     </g>
     <g id="line2d_10">
      <g>
       <use xlink:href="#mebcad88cab" x="407.413659" y="764.245433" style="stroke: #000000; stroke-width: 0.8"/>
      </g>
     </g>
     <g id="text_5">
      <!-- −50.40 -->
      <g transform="translate(396.280594 802.786815) rotate(-45) scale(0.1 -0.1)">
       <use xlink:href="#DejaVuSans-2212"/>
       <use xlink:href="#DejaVuSans-35" transform="translate(83.789062 0)"/>
       <use xlink:href="#DejaVuSans-30" transform="translate(147.412109 0)"/>
       <use xlink:href="#DejaVuSans-2e" transform="translate(211.035156 0)"/>
       <use xlink:href="#DejaVuSans-34" transform="translate(242.822266 0)"/>
       <use xlink:href="#DejaVuSans-30" transform="translate(306.445312 0)"/>
      </g>
     </g>
    </g>
    <g id="xtick_6">
     <g id="line2d_11">
      <path d="M 480.970696 764.245433 
L 480.970696 108.394567 
" clip-path="url(#p4cedfddcd0)" style="fill: none; stroke: #b0b0b0; stroke-width: 0.8; stroke-linecap: square"/>
     </g>
     <g id="line2d_12">
      <g>
       <use xlink:href="#mebcad88cab" x="480.970696" y="764.245433" style="stroke: #000000; stroke-width: 0.8"/>
      </g>
     </g>
     <g id="text_6">
      <!-- −50.35 -->
      <g transform="translate(469.837631 802.786815) rotate(-45) scale(0.1 -0.1)">
       <defs>
        <path id="DejaVuSans-33" d="M 2597 2516 
Q 3050 2419 3304 2112 
Q 3559 1806 3559 1356 
Q 3559 666 3084 287 
Q 2609 -91 1734 -91 
Q 1441 -91 1130 -33 
Q 819 25 488 141 
L 488 750 
Q 750 597 1062 519 
Q 1375 441 1716 441 
Q 2309 441 2620 675 
Q 2931 909 2931 1356 
Q 2931 1769 2642 2001 
Q 2353 2234 1838 2234 
L 1294 2234 
L 1294 2753 
L 1863 2753 
Q 2328 2753 2575 2939 
Q 2822 3125 2822 3475 
Q 2822 3834 2567 4026 
Q 2313 4219 1838 4219 
Q 1578 4219 1281 4162 
Q 984 4106 628 3988 
L 628 4550 
Q 988 4650 1302 4700 
Q 1616 4750 1894 4750 
Q 2613 4750 3031 4423 
Q 3450 4097 3450 3541 
Q 3450 3153 3228 2886 
Q 3006 2619 2597 2516 
z
" transform="scale(0.015625)"/>
       </defs>
       <use xlink:href="#DejaVuSans-2212"/>
       <use xlink:href="#DejaVuSans-35" transform="translate(83.789062 0)"/>
       <use xlink:href="#DejaVuSans-30" transform="translate(147.412109 0)"/>
       <use xlink:href="#DejaVuSans-2e" transform="translate(211.035156 0)"/>
       <use xlink:href="#DejaVuSans-33" transform="translate(242.822266 0)"/>
       <use xlink:href="#DejaVuSans-35" transform="translate(306.445312 0)"/>
      </g>
     </g>
    </g>
    <g id="xtick_7">
     <g id="line2d_13">
      <path d="M 554.527733 764.245433 
L 554.527733 108.394567 
" clip-path="url(#p4cedfddcd0)" style="fill: none; stroke: #b0b0b0; stroke-width: 0.8; stroke-linecap: square"/>
     </g>
     <g id="line2d_14">
      <g>
       <use xlink:href="#mebcad88cab" x="554.527733" y="764.245433" style="stroke: #000000; stroke-width: 0.8"/>
      </g>
     </g>
     <g id="text_7">
      <!-- −50.30 -->
      <g transform="translate(543.394668 802.786815) rotate(-45) scale(0.1 -0.1)">
       <use xlink:href="#DejaVuSans-2212"/>
       <use xlink:href="#DejaVuSans-35" transform="translate(83.789062 0)"/>
       <use xlink:href="#DejaVuSans-30" transform="translate(147.412109 0)"/>
       <use xlink:href="#DejaVuSans-2e" transform="translate(211.035156 0)"/>
       <use xlink:href="#DejaVuSans-33" transform="translate(242.822266 0)"/>
       <use xlink:href="#DejaVuSans-30" transform="translate(306.445312 0)"/>
      </g>
     </g>
    </g>
    <g id="xtick_8">
     <g id="line2d_15">
      <path d="M 628.08477 764.245433 
L 628.08477 108.394567 
" clip-path="url(#p4cedfddcd0)" style="fill: none; stroke: #b0b0b0; stroke-width: 0.8; stroke-linecap: square"/>
     </g>
     <g id="line2d_16">
      <g>
       <use xlink:href="#mebcad88cab" x="628.08477" y="764.245433" style="stroke: #000000; stroke-width: 0.8"/>
      </g>
     </g>
     <g id="text_8">
      <!-- −50.25 -->
      <g transform="translate(616.951705 802.786815) rotate(-45) scale(0.1 -0.1)">
       <defs>
        <path id="DejaVuSans-32" d="M 1228 531 
L 3431 531 
L 3431 0 
L 469 0 
L 469 531 
Q 828 903 1448 1529 
Q 2069 2156 2228 2338 
Q 2531 2678 2651 2914 
Q 2772 3150 2772 3378 
Q 2772 3750 2511 3984 
Q 2250 4219 1831 4219 
Q 1534 4219 1204 4116 
Q 875 4013 500 3803 
L 500 4441 
Q 881 4594 1212 4672 
Q 1544 4750 1819 4750 
Q 2544 4750 2975 4387 
Q 3406 4025 3406 3419 
Q 3406 3131 3298 2873 
Q 3191 2616 2906 2266 
Q 2828 2175 2409 1742 
Q 1991 1309 1228 531 
z
" transform="scale(0.015625)"/>
       </defs>
       <use xlink:href="#DejaVuSans-2212"/>
       <use xlink:href="#DejaVuSans-35" transform="translate(83.789062 0)"/>
       <use xlink:href="#DejaVuSans-30" transform="translate(147.412109 0)"/>
       <use xlink:href="#DejaVuSans-2e" transform="translate(211.035156 0)"/>
       <use xlink:href="#DejaVuSans-32" transform="translate(242.822266 0)"/>
       <use xlink:href="#DejaVuSans-35" transform="translate(306.445312 0)"/>
      </g>
     </g>
    </g>
    <g id="text_9">
     <!-- Longitude (°) -->
     <g transform="translate(336.139844 815.855813) scale(0.1 -0.1)">
      <defs>
       <path id="DejaVuSans-4c" d="M 628 4666 
L 1259 4666 
L 1259 531 
L 3531 531 
L 3531 0 
L 628 0 
L 628 4666 
z
" transform="scale(0.015625)"/>
       <path id="DejaVuSans-6f" d="M 1959 3097 
Q 1497 3097 1228 2736 
Q 959 2375 959 1747 
Q 959 1119 1226 758 
Q 1494 397 1959 397 
Q 2419 397 2687 759 
Q 2956 1122 2956 1747 
Q 2956 2369 2687 2733 
Q 2419 3097 1959 3097 
z
M 1959 3584 
Q 2709 3584 3137 3096 
Q 3566 2609 3566 1747 
Q 3566 888 3137 398 
Q 2709 -91 1959 -91 
Q 1206 -91 779 398 
Q 353 888 353 1747 
Q 353 2609 779 3096 
Q 1206 3584 1959 3584 
z
" transform="scale(0.015625)"/>
       <path id="DejaVuSans-6e" d="M 3513 2113 
L 3513 0 
L 2938 0 
L 2938 2094 
Q 2938 2591 2744 2837 
Q 2550 3084 2163 3084 
Q 1697 3084 1428 2787 
Q 1159 2491 1159 1978 
L 1159 0 
L 581 0 
L 581 3500 
L 1159 3500 
L 1159 2956 
Q 1366 3272 1645 3428 
Q 1925 3584 2291 3584 
Q 2894 3584 3203 3211 
Q 3513 2838 3513 2113 
z
" transform="scale(0.015625)"/>
       <path id="DejaVuSans-67" d="M 2906 1791 
Q 2906 2416 2648 2759 
Q 2391 3103 1925 3103 
Q 1463 3103 1205 2759 
Q 947 2416 947 1791 
Q 947 1169 1205 825 
Q 1463 481 1925 481 
Q 2391 481 2648 825 
Q 2906 1169 2906 1791 
z
M 3481 434 
Q 3481 -459 3084 -895 
Q 2688 -1331 1869 -1331 
Q 1566 -1331 1297 -1286 
Q 1028 -1241 775 -1147 
L 775 -588 
Q 1028 -725 1275 -790 
Q 1522 -856 1778 -856 
Q 2344 -856 2625 -561 
Q 2906 -266 2906 331 
L 2906 616 
Q 2728 306 2450 153 
Q 2172 0 1784 0 
Q 1141 0 747 490 
Q 353 981 353 1791 
Q 353 2603 747 3093 
Q 1141 3584 1784 3584 
Q 2172 3584 2450 3431 
Q 2728 3278 2906 2969 
L 2906 3500 
L 3481 3500 
L 3481 434 
z
" transform="scale(0.015625)"/>
       <path id="DejaVuSans-69" d="M 603 3500 
L 1178 3500 
L 1178 0 
L 603 0 
L 603 3500 
z
M 603 4863 
L 1178 4863 
L 1178 4134 
L 603 4134 
L 603 4863 
z
" transform="scale(0.015625)"/>
       <path id="DejaVuSans-74" d="M 1172 4494 
L 1172 3500 
L 2356 3500 
L 2356 3053 
L 1172 3053 
L 1172 1153 
Q 1172 725 1289 603 
Q 1406 481 1766 481 
L 2356 481 
L 2356 0 
L 1766 0 
Q 1100 0 847 248 
Q 594 497 594 1153 
L 594 3053 
L 172 3053 
L 172 3500 
L 594 3500 
L 594 4494 
L 1172 4494 
z
" transform="scale(0.015625)"/>
       <path id="DejaVuSans-75" d="M 544 1381 
L 544 3500 
L 1119 3500 
L 1119 1403 
Q 1119 906 1312 657 
Q 1506 409 1894 409 
Q 2359 409 2629 706 
Q 2900 1003 2900 1516 
L 2900 3500 
L 3475 3500 
L 3475 0 
L 2900 0 
L 2900 538 
Q 2691 219 2414 64 
Q 2138 -91 1772 -91 
Q 1169 -91 856 284 
Q 544 659 544 1381 
z
M 1991 3584 
L 1991 3584 
z
" transform="scale(0.015625)"/>
       <path id="DejaVuSans-64" d="M 2906 2969 
L 2906 4863 
L 3481 4863 
L 3481 0 
L 2906 0 
L 2906 525 
Q 2725 213 2448 61 
Q 2172 -91 1784 -91 
Q 1150 -91 751 415 
Q 353 922 353 1747 
Q 353 2572 751 3078 
Q 1150 3584 1784 3584 
Q 2172 3584 2448 3432 
Q 2725 3281 2906 2969 
z
M 947 1747 
Q 947 1113 1208 752 
Q 1469 391 1925 391 
Q 2381 391 2643 752 
Q 2906 1113 2906 1747 
Q 2906 2381 2643 2742 
Q 2381 3103 1925 3103 
Q 1469 3103 1208 2742 
Q 947 2381 947 1747 
z
" transform="scale(0.015625)"/>
       <path id="DejaVuSans-65" d="M 3597 1894 
L 3597 1613 
L 953 1613 
Q 991 1019 1311 708 
Q 1631 397 2203 397 
Q 2534 397 2845 478 
Q 3156 559 3463 722 
L 3463 178 
Q 3153 47 2828 -22 
Q 2503 -91 2169 -91 
Q 1331 -91 842 396 
Q 353 884 353 1716 
Q 353 2575 817 3079 
Q 1281 3584 2069 3584 
Q 2775 3584 3186 3129 
Q 3597 2675 3597 1894 
z
M 3022 2063 
Q 3016 2534 2758 2815 
Q 2500 3097 2075 3097 
Q 1594 3097 1305 2825 
Q 1016 2553 972 2059 
L 3022 2063 
z
" transform="scale(0.015625)"/>
       <path id="DejaVuSans-20" transform="scale(0.015625)"/>
       <path id="DejaVuSans-28" d="M 1984 4856 
Q 1566 4138 1362 3434 
Q 1159 2731 1159 2009 
Q 1159 1288 1364 580 
Q 1569 -128 1984 -844 
L 1484 -844 
Q 1016 -109 783 600 
Q 550 1309 550 2009 
Q 550 2706 781 3412 
Q 1013 4119 1484 4856 
L 1984 4856 
z
" transform="scale(0.015625)"/>
       <path id="DejaVuSans-b0" d="M 1600 4347 
Q 1350 4347 1178 4173 
Q 1006 4000 1006 3750 
Q 1006 3503 1178 3333 
Q 1350 3163 1600 3163 
Q 1850 3163 2022 3333 
Q 2194 3503 2194 3750 
Q 2194 3997 2020 4172 
Q 1847 4347 1600 4347 
z
M 1600 4750 
Q 1800 4750 1984 4673 
Q 2169 4597 2303 4453 
Q 2447 4313 2519 4134 
Q 2591 3956 2591 3750 
Q 2591 3338 2302 3052 
Q 2013 2766 1594 2766 
Q 1172 2766 890 3047 
Q 609 3328 609 3750 
Q 609 4169 896 4459 
Q 1184 4750 1600 4750 
z
" transform="scale(0.015625)"/>
       <path id="DejaVuSans-29" d="M 513 4856 
L 1013 4856 
Q 1481 4119 1714 3412 
Q 1947 2706 1947 2009 
Q 1947 1309 1714 600 
Q 1481 -109 1013 -844 
L 513 -844 
Q 928 -128 1133 580 
Q 1338 1288 1338 2009 
Q 1338 2731 1133 3434 
Q 928 4138 513 4856 
z
" transform="scale(0.015625)"/>
      </defs>
      <use xlink:href="#DejaVuSans-4c"/>
      <use xlink:href="#DejaVuSans-6f" transform="translate(53.962891 0)"/>
      <use xlink:href="#DejaVuSans-6e" transform="translate(115.144531 0)"/>
      <use xlink:href="#DejaVuSans-67" transform="translate(178.523438 0)"/>
      <use xlink:href="#DejaVuSans-69" transform="translate(242 0)"/>
      <use xlink:href="#DejaVuSans-74" transform="translate(269.783203 0)"/>
      <use xlink:href="#DejaVuSans-75" transform="translate(308.992188 0)"/>
      <use xlink:href="#DejaVuSans-64" transform="translate(372.371094 0)"/>
      <use xlink:href="#DejaVuSans-65" transform="translate(435.847656 0)"/>
      <use xlink:href="#DejaVuSans-20" transform="translate(497.371094 0)"/>
      <use xlink:href="#DejaVuSans-28" transform="translate(529.158203 0)"/>
      <use xlink:href="#DejaVuSans-b0" transform="translate(568.171875 0)"/>
      <use xlink:href="#DejaVuSans-29" transform="translate(618.171875 0)"/>
     </g>
    </g>
   </g>
   <g id="matplotlib.axis_2">
    <g id="ytick_1">
     <g id="line2d_17">
      <path d="M 90 728.071277 
L 648 728.071277 
" clip-path="url(#p4cedfddcd0)" style="fill: none; stroke: #b0b0b0; stroke-width: 0.8; stroke-linecap: square"/>
     </g>
     <g id="line2d_18">
      <defs>
       <path id="m41e6b96809" d="M 0 0 
L -3.5 0 
" style="stroke: #000000; stroke-width: 0.8"/>
      </defs>
      <g>
       <use xlink:href="#m41e6b96809" x="90" y="728.071277" style="stroke: #000000; stroke-width: 0.8"/>
      </g>
     </g>
     <g id="text_10">
      <!-- −7.20 -->
      <g transform="translate(52.354687 731.870495) scale(0.1 -0.1)">
       <defs>
        <path id="DejaVuSans-37" d="M 525 4666 
L 3525 4666 
L 3525 4397 
L 1831 0 
L 1172 0 
L 2766 4134 
L 525 4134 
L 525 4666 
z
" transform="scale(0.015625)"/>
       </defs>
       <use xlink:href="#DejaVuSans-2212"/>
       <use xlink:href="#DejaVuSans-37" transform="translate(83.789062 0)"/>
       <use xlink:href="#DejaVuSans-2e" transform="translate(147.412109 0)"/>
       <use xlink:href="#DejaVuSans-32" transform="translate(179.199219 0)"/>
       <use xlink:href="#DejaVuSans-30" transform="translate(242.822266 0)"/>
      </g>
     </g>
    </g>
    <g id="ytick_2">
     <g id="line2d_19">
      <path d="M 90 653.961336 
L 648 653.961336 
" clip-path="url(#p4cedfddcd0)" style="fill: none; stroke: #b0b0b0; stroke-width: 0.8; stroke-linecap: square"/>
     </g>
     <g id="line2d_20">
      <g>
       <use xlink:href="#m41e6b96809" x="90" y="653.961336" style="stroke: #000000; stroke-width: 0.8"/>
      </g>
     </g>
     <g id="text_11">
      <!-- −7.15 -->
      <g transform="translate(52.354687 657.760555) scale(0.1 -0.1)">
       <defs>
        <path id="DejaVuSans-31" d="M 794 531 
L 1825 531 
L 1825 4091 
L 703 3866 
L 703 4441 
L 1819 4666 
L 2450 4666 
L 2450 531 
L 3481 531 
L 3481 0 
L 794 0 
L 794 531 
z
" transform="scale(0.015625)"/>
       </defs>
       <use xlink:href="#DejaVuSans-2212"/>
       <use xlink:href="#DejaVuSans-37" transform="translate(83.789062 0)"/>
       <use xlink:href="#DejaVuSans-2e" transform="translate(147.412109 0)"/>
       <use xlink:href="#DejaVuSans-31" transform="translate(179.199219 0)"/>
       <use xlink:href="#DejaVuSans-35" transform="translate(242.822266 0)"/>
      </g>
     </g>
    </g>
    <g id="ytick_3">
     <g id="line2d_21">
      <path d="M 90 579.851396 
L 648 579.851396 
" clip-path="url(#p4cedfddcd0)" style="fill: none; stroke: #b0b0b0; stroke-width: 0.8; stroke-linecap: square"/>
     </g>
     <g id="line2d_22">
      <g>
       <use xlink:href="#m41e6b96809" x="90" y="579.851396" style="stroke: #000000; stroke-width: 0.8"/>
      </g>
     </g>
     <g id="text_12">
      <!-- −7.10 -->
      <g transform="translate(52.354687 583.650615) scale(0.1 -0.1)">
       <use xlink:href="#DejaVuSans-2212"/>
       <use xlink:href="#DejaVuSans-37" transform="translate(83.789062 0)"/>
       <use xlink:href="#DejaVuSans-2e" transform="translate(147.412109 0)"/>
       <use xlink:href="#DejaVuSans-31" transform="translate(179.199219 0)"/>
       <use xlink:href="#DejaVuSans-30" transform="translate(242.822266 0)"/>
      </g>
     </g>
    </g>
    <g id="ytick_4">
     <g id="line2d_23">
      <path d="M 90 505.741456 
L 648 505.741456 
" clip-path="url(#p4cedfddcd0)" style="fill: none; stroke: #b0b0b0; stroke-width: 0.8; stroke-linecap: square"/>
     </g>
     <g id="line2d_24">
      <g>
       <use xlink:href="#m41e6b96809" x="90" y="505.741456" style="stroke: #000000; stroke-width: 0.8"/>
      </g>
     </g>
     <g id="text_13">
      <!-- −7.05 -->
      <g transform="translate(52.354687 509.540675) scale(0.1 -0.1)">
       <use xlink:href="#DejaVuSans-2212"/>
       <use xlink:href="#DejaVuSans-37" transform="translate(83.789062 0)"/>
       <use xlink:href="#DejaVuSans-2e" transform="translate(147.412109 0)"/>
       <use xlink:href="#DejaVuSans-30" transform="translate(179.199219 0)"/>
       <use xlink:href="#DejaVuSans-35" transform="translate(242.822266 0)"/>
      </g>
     </g>
    </g>
    <g id="ytick_5">
     <g id="line2d_25">
      <path d="M 90 431.631516 
L 648 431.631516 
" clip-path="url(#p4cedfddcd0)" style="fill: none; stroke: #b0b0b0; stroke-width: 0.8; stroke-linecap: square"/>
     </g>
     <g id="line2d_26">
      <g>
       <use xlink:href="#m41e6b96809" x="90" y="431.631516" style="stroke: #000000; stroke-width: 0.8"/>
      </g>
     </g>
     <g id="text_14">
      <!-- −7.00 -->
      <g transform="translate(52.354687 435.430735) scale(0.1 -0.1)">
       <use xlink:href="#DejaVuSans-2212"/>
       <use xlink:href="#DejaVuSans-37" transform="translate(83.789062 0)"/>
       <use xlink:href="#DejaVuSans-2e" transform="translate(147.412109 0)"/>
       <use xlink:href="#DejaVuSans-30" transform="translate(179.199219 0)"/>
       <use xlink:href="#DejaVuSans-30" transform="translate(242.822266 0)"/>
      </g>
     </g>
    </g>
    <g id="ytick_6">
     <g id="line2d_27">
      <path d="M 90 357.521576 
L 648 357.521576 
" clip-path="url(#p4cedfddcd0)" style="fill: none; stroke: #b0b0b0; stroke-width: 0.8; stroke-linecap: square"/>
     </g>
     <g id="line2d_28">
      <g>
       <use xlink:href="#m41e6b96809" x="90" y="357.521576" style="stroke: #000000; stroke-width: 0.8"/>
      </g>
     </g>
     <g id="text_15">
      <!-- −6.95 -->
      <g transform="translate(52.354687 361.320795) scale(0.1 -0.1)">
       <defs>
        <path id="DejaVuSans-39" d="M 703 97 
L 703 672 
Q 941 559 1184 500 
Q 1428 441 1663 441 
Q 2288 441 2617 861 
Q 2947 1281 2994 2138 
Q 2813 1869 2534 1725 
Q 2256 1581 1919 1581 
Q 1219 1581 811 2004 
Q 403 2428 403 3163 
Q 403 3881 828 4315 
Q 1253 4750 1959 4750 
Q 2769 4750 3195 4129 
Q 3622 3509 3622 2328 
Q 3622 1225 3098 567 
Q 2575 -91 1691 -91 
Q 1453 -91 1209 -44 
Q 966 3 703 97 
z
M 1959 2075 
Q 2384 2075 2632 2365 
Q 2881 2656 2881 3163 
Q 2881 3666 2632 3958 
Q 2384 4250 1959 4250 
Q 1534 4250 1286 3958 
Q 1038 3666 1038 3163 
Q 1038 2656 1286 2365 
Q 1534 2075 1959 2075 
z
" transform="scale(0.015625)"/>
       </defs>
       <use xlink:href="#DejaVuSans-2212"/>
       <use xlink:href="#DejaVuSans-36" transform="translate(83.789062 0)"/>
       <use xlink:href="#DejaVuSans-2e" transform="translate(147.412109 0)"/>
       <use xlink:href="#DejaVuSans-39" transform="translate(179.199219 0)"/>
       <use xlink:href="#DejaVuSans-35" transform="translate(242.822266 0)"/>
      </g>
     </g>
    </g>
    <g id="ytick_7">
     <g id="line2d_29">
      <path d="M 90 283.411636 
L 648 283.411636 
" clip-path="url(#p4cedfddcd0)" style="fill: none; stroke: #b0b0b0; stroke-width: 0.8; stroke-linecap: square"/>
     </g>
     <g id="line2d_30">
      <g>
       <use xlink:href="#m41e6b96809" x="90" y="283.411636" style="stroke: #000000; stroke-width: 0.8"/>
      </g>
     </g>
     <g id="text_16">
      <!-- −6.90 -->
      <g transform="translate(52.354687 287.210855) scale(0.1 -0.1)">
       <use xlink:href="#DejaVuSans-2212"/>
       <use xlink:href="#DejaVuSans-36" transform="translate(83.789062 0)"/>
       <use xlink:href="#DejaVuSans-2e" transform="translate(147.412109 0)"/>
       <use xlink:href="#DejaVuSans-39" transform="translate(179.199219 0)"/>
       <use xlink:href="#DejaVuSans-30" transform="translate(242.822266 0)"/>
      </g>
     </g>
    </g>
    <g id="ytick_8">
     <g id="line2d_31">
      <path d="M 90 209.301696 
L 648 209.301696 
" clip-path="url(#p4cedfddcd0)" style="fill: none; stroke: #b0b0b0; stroke-width: 0.8; stroke-linecap: square"/>
     </g>
     <g id="line2d_32">
      <g>
       <use xlink:href="#m41e6b96809" x="90" y="209.301696" style="stroke: #000000; stroke-width: 0.8"/>
      </g>
     </g>
     <g id="text_17">
      <!-- −6.85 -->
      <g transform="translate(52.354687 213.100915) scale(0.1 -0.1)">
       <defs>
        <path id="DejaVuSans-38" d="M 2034 2216 
Q 1584 2216 1326 1975 
Q 1069 1734 1069 1313 
Q 1069 891 1326 650 
Q 1584 409 2034 409 
Q 2484 409 2743 651 
Q 3003 894 3003 1313 
Q 3003 1734 2745 1975 
Q 2488 2216 2034 2216 
z
M 1403 2484 
Q 997 2584 770 2862 
Q 544 3141 544 3541 
Q 544 4100 942 4425 
Q 1341 4750 2034 4750 
Q 2731 4750 3128 4425 
Q 3525 4100 3525 3541 
Q 3525 3141 3298 2862 
Q 3072 2584 2669 2484 
Q 3125 2378 3379 2068 
Q 3634 1759 3634 1313 
Q 3634 634 3220 271 
Q 2806 -91 2034 -91 
Q 1263 -91 848 271 
Q 434 634 434 1313 
Q 434 1759 690 2068 
Q 947 2378 1403 2484 
z
M 1172 3481 
Q 1172 3119 1398 2916 
Q 1625 2713 2034 2713 
Q 2441 2713 2670 2916 
Q 2900 3119 2900 3481 
Q 2900 3844 2670 4047 
Q 2441 4250 2034 4250 
Q 1625 4250 1398 4047 
Q 1172 3844 1172 3481 
z
" transform="scale(0.015625)"/>
       </defs>
       <use xlink:href="#DejaVuSans-2212"/>
       <use xlink:href="#DejaVuSans-36" transform="translate(83.789062 0)"/>
       <use xlink:href="#DejaVuSans-2e" transform="translate(147.412109 0)"/>
       <use xlink:href="#DejaVuSans-38" transform="translate(179.199219 0)"/>
       <use xlink:href="#DejaVuSans-35" transform="translate(242.822266 0)"/>
      </g>
     </g>
    </g>
    <g id="ytick_9">
     <g id="line2d_33">
      <path d="M 90 135.191756 
L 648 135.191756 
" clip-path="url(#p4cedfddcd0)" style="fill: none; stroke: #b0b0b0; stroke-width: 0.8; stroke-linecap: square"/>
     </g>
     <g id="line2d_34">
      <g>
       <use xlink:href="#m41e6b96809" x="90" y="135.191756" style="stroke: #000000; stroke-width: 0.8"/>
      </g>
     </g>
     <g id="text_18">
      <!-- −6.80 -->
      <g transform="translate(52.354687 138.990975) scale(0.1 -0.1)">
       <use xlink:href="#DejaVuSans-2212"/>
       <use xlink:href="#DejaVuSans-36" transform="translate(83.789062 0)"/>
       <use xlink:href="#DejaVuSans-2e" transform="translate(147.412109 0)"/>
       <use xlink:href="#DejaVuSans-38" transform="translate(179.199219 0)"/>
       <use xlink:href="#DejaVuSans-30" transform="translate(242.822266 0)"/>
      </g>
     </g>
    </g>
    <g id="text_19">
     <!-- Latitude (°) -->
     <g transform="translate(46.275 464.889531) rotate(-90) scale(0.1 -0.1)">
      <defs>
       <path id="DejaVuSans-61" d="M 2194 1759 
Q 1497 1759 1228 1600 
Q 959 1441 959 1056 
Q 959 750 1161 570 
Q 1363 391 1709 391 
Q 2188 391 2477 730 
Q 2766 1069 2766 1631 
L 2766 1759 
L 2194 1759 
z
M 3341 1997 
L 3341 0 
L 2766 0 
L 2766 531 
Q 2569 213 2275 61 
Q 1981 -91 1556 -91 
Q 1019 -91 701 211 
Q 384 513 384 1019 
Q 384 1609 779 1909 
Q 1175 2209 1959 2209 
L 2766 2209 
L 2766 2266 
Q 2766 2663 2505 2880 
Q 2244 3097 1772 3097 
Q 1472 3097 1187 3025 
Q 903 2953 641 2809 
L 641 3341 
Q 956 3463 1253 3523 
Q 1550 3584 1831 3584 
Q 2591 3584 2966 3190 
Q 3341 2797 3341 1997 
z
" transform="scale(0.015625)"/>
      </defs>
      <use xlink:href="#DejaVuSans-4c"/>
      <use xlink:href="#DejaVuSans-61" transform="translate(55.712891 0)"/>
      <use xlink:href="#DejaVuSans-74" transform="translate(116.992188 0)"/>
      <use xlink:href="#DejaVuSans-69" transform="translate(156.201172 0)"/>
      <use xlink:href="#DejaVuSans-74" transform="translate(183.984375 0)"/>
      <use xlink:href="#DejaVuSans-75" transform="translate(223.193359 0)"/>
      <use xlink:href="#DejaVuSans-64" transform="translate(286.572266 0)"/>
      <use xlink:href="#DejaVuSans-65" transform="translate(350.048828 0)"/>
      <use xlink:href="#DejaVuSans-20" transform="translate(411.572266 0)"/>
      <use xlink:href="#DejaVuSans-28" transform="translate(443.359375 0)"/>
      <use xlink:href="#DejaVuSans-b0" transform="translate(482.373047 0)"/>
      <use xlink:href="#DejaVuSans-29" transform="translate(532.373047 0)"/>
     </g>
    </g>
   </g>
   <g id="patch_3">
    <path d="M 90 764.245433 
L 90 108.394567 
" style="fill: none; stroke: #000000; stroke-width: 0.8; stroke-linejoin: miter; stroke-linecap: square"/>
   </g>
   <g id="patch_4">
    <path d="M 648 764.245433 
L 648 108.394567 
" style="fill: none; stroke: #000000; stroke-width: 0.8; stroke-linejoin: miter; stroke-linecap: square"/>
   </g>
   <g id="patch_5">
    <path d="M 90 764.245433 
L 648 764.245433 
" style="fill: none; stroke: #000000; stroke-width: 0.8; stroke-linejoin: miter; stroke-linecap: square"/>
   </g>
   <g id="patch_6">
    <path d="M 90 108.394567 
L 648 108.394567 
" style="fill: none; stroke: #000000; stroke-width: 0.8; stroke-linejoin: miter; stroke-linecap: square"/>
   </g>
   <g id="legend_1">
    <g id="patch_7">
     <path d="M 215.004687 918.093731 
L 522.995312 918.093731 
Q 524.995312 918.093731 524.995312 916.093731 
L 524.995312 902.415606 
Q 524.995312 900.415606 522.995312 900.415606 
L 215.004687 900.415606 
Q 213.004687 900.415606 213.004687 902.415606 
L 213.004687 916.093731 
Q 213.004687 918.093731 215.004687 918.093731 
z
" style="fill: #ffffff; opacity: 0.8; stroke: #cccccc; stroke-linejoin: miter"/>
    </g>
    <g id="line2d_35">
     <defs>
      <path id="m170679d3cc" d="M 0 5 
C 1.326016 5 2.597899 4.473168 3.535534 3.535534 
C 4.473168 2.597899 5 1.326016 5 0 
C 5 -1.326016 4.473168 -2.597899 3.535534 -3.535534 
C 2.597899 -4.473168 1.326016 -5 0 -5 
C -1.326016 -5 -2.597899 -4.473168 -3.535534 -3.535534 
C -4.473168 -2.597899 -5 -1.326016 -5 0 
C -5 1.326016 -4.473168 2.597899 -3.535534 3.535534 
C -2.597899 4.473168 -1.326016 5 0 5 
z
"/>
     </defs>
     <g>
      <use xlink:href="#m170679d3cc" x="227.004687" y="908.514044" style="fill: #b3e2cd; fill-opacity: 0.65"/>
     </g>
    </g>
    <g id="text_20">
     <!-- PA ARICA -->
     <g transform="translate(245.004687 912.014044) scale(0.1 -0.1)">
      <defs>
       <path id="DejaVuSans-50" d="M 1259 4147 
L 1259 2394 
L 2053 2394 
Q 2494 2394 2734 2622 
Q 2975 2850 2975 3272 
Q 2975 3691 2734 3919 
Q 2494 4147 2053 4147 
L 1259 4147 
z
M 628 4666 
L 2053 4666 
Q 2838 4666 3239 4311 
Q 3641 3956 3641 3272 
Q 3641 2581 3239 2228 
Q 2838 1875 2053 1875 
L 1259 1875 
L 1259 0 
L 628 0 
L 628 4666 
z
" transform="scale(0.015625)"/>
       <path id="DejaVuSans-41" d="M 2188 4044 
L 1331 1722 
L 3047 1722 
L 2188 4044 
z
M 1831 4666 
L 2547 4666 
L 4325 0 
L 3669 0 
L 3244 1197 
L 1141 1197 
L 716 0 
L 50 0 
L 1831 4666 
z
" transform="scale(0.015625)"/>
       <path id="DejaVuSans-52" d="M 2841 2188 
Q 3044 2119 3236 1894 
Q 3428 1669 3622 1275 
L 4263 0 
L 3584 0 
L 2988 1197 
Q 2756 1666 2539 1819 
Q 2322 1972 1947 1972 
L 1259 1972 
L 1259 0 
L 628 0 
L 628 4666 
L 2053 4666 
Q 2853 4666 3247 4331 
Q 3641 3997 3641 3322 
Q 3641 2881 3436 2590 
Q 3231 2300 2841 2188 
z
M 1259 4147 
L 1259 2491 
L 2053 2491 
Q 2509 2491 2742 2702 
Q 2975 2913 2975 3322 
Q 2975 3731 2742 3939 
Q 2509 4147 2053 4147 
L 1259 4147 
z
" transform="scale(0.015625)"/>
       <path id="DejaVuSans-49" d="M 628 4666 
L 1259 4666 
L 1259 0 
L 628 0 
L 628 4666 
z
" transform="scale(0.015625)"/>
       <path id="DejaVuSans-43" d="M 4122 4306 
L 4122 3641 
Q 3803 3938 3442 4084 
Q 3081 4231 2675 4231 
Q 1875 4231 1450 3742 
Q 1025 3253 1025 2328 
Q 1025 1406 1450 917 
Q 1875 428 2675 428 
Q 3081 428 3442 575 
Q 3803 722 4122 1019 
L 4122 359 
Q 3791 134 3420 21 
Q 3050 -91 2638 -91 
Q 1578 -91 968 557 
Q 359 1206 359 2328 
Q 359 3453 968 4101 
Q 1578 4750 2638 4750 
Q 3056 4750 3426 4639 
Q 3797 4528 4122 4306 
z
" transform="scale(0.015625)"/>
      </defs>
      <use xlink:href="#DejaVuSans-50"/>
      <use xlink:href="#DejaVuSans-41" transform="translate(53.927734 0)"/>
      <use xlink:href="#DejaVuSans-20" transform="translate(122.335938 0)"/>
      <use xlink:href="#DejaVuSans-41" transform="translate(154.123047 0)"/>
      <use xlink:href="#DejaVuSans-52" transform="translate(222.53125 0)"/>
      <use xlink:href="#DejaVuSans-49" transform="translate(292.013672 0)"/>
      <use xlink:href="#DejaVuSans-43" transform="translate(321.505859 0)"/>
      <use xlink:href="#DejaVuSans-41" transform="translate(391.330078 0)"/>
     </g>
    </g>
    <g id="line2d_36">
     <defs>
      <path id="m25da11b6a4" d="M 0 5 
C 1.326016 5 2.597899 4.473168 3.535534 3.535534 
C 4.473168 2.597899 5 1.326016 5 0 
C 5 -1.326016 4.473168 -2.597899 3.535534 -3.535534 
C 2.597899 -4.473168 1.326016 -5 0 -5 
C -1.326016 -5 -2.597899 -4.473168 -3.535534 -3.535534 
C -4.473168 -2.597899 -5 -1.326016 -5 0 
C -5 1.326016 -4.473168 2.597899 -3.535534 3.535534 
C -2.597899 4.473168 -1.326016 5 0 5 
z
"/>
     </defs>
     <g>
      <use xlink:href="#m25da11b6a4" x="320.978125" y="908.514044" style="fill: #e6f5c9; fill-opacity: 0.65"/>
     </g>
    </g>
    <g id="text_21">
     <!-- PA ESPERANÇA -->
     <g transform="translate(338.978125 912.014044) scale(0.1 -0.1)">
      <defs>
       <path id="DejaVuSans-45" d="M 628 4666 
L 3578 4666 
L 3578 4134 
L 1259 4134 
L 1259 2753 
L 3481 2753 
L 3481 2222 
L 1259 2222 
L 1259 531 
L 3634 531 
L 3634 0 
L 628 0 
L 628 4666 
z
" transform="scale(0.015625)"/>
       <path id="DejaVuSans-53" d="M 3425 4513 
L 3425 3897 
Q 3066 4069 2747 4153 
Q 2428 4238 2131 4238 
Q 1616 4238 1336 4038 
Q 1056 3838 1056 3469 
Q 1056 3159 1242 3001 
Q 1428 2844 1947 2747 
L 2328 2669 
Q 3034 2534 3370 2195 
Q 3706 1856 3706 1288 
Q 3706 609 3251 259 
Q 2797 -91 1919 -91 
Q 1588 -91 1214 -16 
Q 841 59 441 206 
L 441 856 
Q 825 641 1194 531 
Q 1563 422 1919 422 
Q 2459 422 2753 634 
Q 3047 847 3047 1241 
Q 3047 1584 2836 1778 
Q 2625 1972 2144 2069 
L 1759 2144 
Q 1053 2284 737 2584 
Q 422 2884 422 3419 
Q 422 4038 858 4394 
Q 1294 4750 2059 4750 
Q 2388 4750 2728 4690 
Q 3069 4631 3425 4513 
z
" transform="scale(0.015625)"/>
       <path id="DejaVuSans-4e" d="M 628 4666 
L 1478 4666 
L 3547 763 
L 3547 4666 
L 4159 4666 
L 4159 0 
L 3309 0 
L 1241 3903 
L 1241 0 
L 628 0 
L 628 4666 
z
" transform="scale(0.015625)"/>
       <path id="DejaVuSans-c7" d="M 4122 4306 
L 4122 3641 
Q 3803 3938 3442 4084 
Q 3081 4231 2675 4231 
Q 1875 4231 1450 3742 
Q 1025 3253 1025 2328 
Q 1025 1406 1450 917 
Q 1875 428 2675 428 
Q 3081 428 3442 575 
Q 3803 722 4122 1019 
L 4122 359 
Q 3791 134 3420 21 
Q 3050 -91 2638 -91 
Q 1578 -91 968 557 
Q 359 1206 359 2328 
Q 359 3453 968 4101 
Q 1578 4750 2638 4750 
Q 3056 4750 3426 4639 
Q 3797 4528 4122 4306 
z
M 2803 0 
Q 2975 -194 3059 -358 
Q 3144 -522 3144 -672 
Q 3144 -950 2956 -1092 
Q 2769 -1234 2400 -1234 
Q 2256 -1234 2120 -1215 
Q 1984 -1197 1850 -1159 
L 1850 -750 
Q 1956 -803 2072 -826 
Q 2188 -850 2334 -850 
Q 2519 -850 2612 -775 
Q 2706 -700 2706 -556 
Q 2706 -463 2639 -327 
Q 2572 -191 2431 0 
L 2803 0 
z
" transform="scale(0.015625)"/>
      </defs>
      <use xlink:href="#DejaVuSans-50"/>
      <use xlink:href="#DejaVuSans-41" transform="translate(53.927734 0)"/>
      <use xlink:href="#DejaVuSans-20" transform="translate(122.335938 0)"/>
      <use xlink:href="#DejaVuSans-45" transform="translate(154.123047 0)"/>
      <use xlink:href="#DejaVuSans-53" transform="translate(217.306641 0)"/>
      <use xlink:href="#DejaVuSans-50" transform="translate(280.783203 0)"/>
      <use xlink:href="#DejaVuSans-45" transform="translate(341.085938 0)"/>
      <use xlink:href="#DejaVuSans-52" transform="translate(404.269531 0)"/>
      <use xlink:href="#DejaVuSans-41" transform="translate(469.751953 0)"/>
      <use xlink:href="#DejaVuSans-4e" transform="translate(538.160156 0)"/>
      <use xlink:href="#DejaVuSans-c7" transform="translate(612.964844 0)"/>
      <use xlink:href="#DejaVuSans-41" transform="translate(682.789062 0)"/>
     </g>
    </g>
    <g id="line2d_37">
     <defs>
      <path id="mea3f175ad3" d="M 0 5 
C 1.326016 5 2.597899 4.473168 3.535534 3.535534 
C 4.473168 2.597899 5 1.326016 5 0 
C 5 -1.326016 4.473168 -2.597899 3.535534 -3.535534 
C 2.597899 -4.473168 1.326016 -5 0 -5 
C -1.326016 -5 -2.597899 -4.473168 -3.535534 -3.535534 
C -4.473168 -2.597899 -5 -1.326016 -5 0 
C -5 1.326016 -4.473168 2.597899 -3.535534 3.535534 
C -2.597899 4.473168 -1.326016 5 0 5 
z
"/>
     </defs>
     <g>
      <use xlink:href="#mea3f175ad3" x="444.098437" y="908.514044" style="fill: #cccccc; fill-opacity: 0.65"/>
     </g>
    </g>
    <g id="text_22">
     <!-- PA LUCIANA -->
     <g transform="translate(462.098437 912.014044) scale(0.1 -0.1)">
      <defs>
       <path id="DejaVuSans-55" d="M 556 4666 
L 1191 4666 
L 1191 1831 
Q 1191 1081 1462 751 
Q 1734 422 2344 422 
Q 2950 422 3222 751 
Q 3494 1081 3494 1831 
L 3494 4666 
L 4128 4666 
L 4128 1753 
Q 4128 841 3676 375 
Q 3225 -91 2344 -91 
Q 1459 -91 1007 375 
Q 556 841 556 1753 
L 556 4666 
z
" transform="scale(0.015625)"/>
      </defs>
      <use xlink:href="#DejaVuSans-50"/>
      <use xlink:href="#DejaVuSans-41" transform="translate(53.927734 0)"/>
      <use xlink:href="#DejaVuSans-20" transform="translate(122.335938 0)"/>
      <use xlink:href="#DejaVuSans-4c" transform="translate(154.123047 0)"/>
      <use xlink:href="#DejaVuSans-55" transform="translate(204.835938 0)"/>
      <use xlink:href="#DejaVuSans-43" transform="translate(278.029297 0)"/>
      <use xlink:href="#DejaVuSans-49" transform="translate(347.853516 0)"/>
      <use xlink:href="#DejaVuSans-41" transform="translate(377.345703 0)"/>
      <use xlink:href="#DejaVuSans-4e" transform="translate(445.753906 0)"/>
      <use xlink:href="#DejaVuSans-41" transform="translate(520.558594 0)"/>
     </g>
    </g>
   </g>
  </g>
 </g>
 <defs>
  <clipPath id="p4cedfddcd0">
   <rect x="90" y="108.394567" width="558" height="655.850866"/>
  </clipPath>
 </defs>
</svg>
