<?xml version="1.0" encoding="utf-8" standalone="no"?>
<!DOCTYPE svg PUBLIC "-//W3C//DTD SVG 1.1//EN"
  "http://www.w3.org/Graphics/SVG/1.1/DTD/svg11.dtd">
<svg xmlns:xlink="http://www.w3.org/1999/xlink" width="720pt" height="864pt" viewBox="0 0 720 864" xmlns="http://www.w3.org/2000/svg" version="1.1">
 <metadata>
  <rdf:RDF xmlns:dc="http://purl.org/dc/elements/1.1/" xmlns:cc="http://creativecommons.org/ns#" xmlns:rdf="http://www.w3.org/1999/02/22-rdf-syntax-ns#">
   <cc:Work>
    <dc:type rdf:resource="http://purl.org/dc/dcmitype/StillImage"/>
    <dc:date>2025-06-16T16:56:49.501862</dc:date>
    <dc:format>image/svg+xml</dc:format>
    <dc:creator>
     <cc:Agent>
      <dc:title>Matplotlib v3.10.1, https://matplotlib.org/</dc:title>
     </cc:Agent>
    </dc:creator>
   </cc:Work>
  </rdf:RDF>
 </metadata>
 <defs>
  <style type="text/css">*{stroke-linejoin: round; stroke-linecap: butt}</style>
 </defs>
 <g id="figure_1">
  <g id="patch_1">
   <path d="M 0 864 
L 720 864 
L 720 0 
L 0 0 
z
" style="fill: #ffffff"/>
  </g>
  <g id="axes_1">
   <g id="patch_2">
    <path d="M 250.986203 768.96 
L 487.013797 768.96 
L 487.013797 103.68 
L 250.986203 103.68 
z
" style="fill: #ffffff"/>
   </g>
   <g id="PatchCollection_1">
    <path d="M 369.683642 585.477556 
L 422.037147 599.813092 
L 421.976957 600.390389 
L 428.608654 602.231371 
L 428.563463 602.818874 
L 456.809356 609.506416 
L 451.708517 618.471675 
L 450.106392 621.928037 
L 446.97164 628.693547 
L 402.970924 617.691612 
L 402.900452 618.849147 
L 398.629804 617.804697 
L 371.569989 611.183458 
L 372.115294 608.42252 
L 371.947787 605.07058 
L 371.660492 601.539672 
L 370.193047 599.606898 
L 370.635051 596.711341 
L 370.641735 595.20293 
L 373.073053 594.303302 
L 372.660138 591.919092 
L 370.075829 590.647416 
L 370.222855 587.947502 
L 369.683642 585.477556 
" clip-path="url(#p4e096d25d7)" style="fill: #e0bd1f; stroke: #0000ff; stroke-width: 0.5"/>
    <path d="M 261.746043 608.473453 
L 265.079742 606.30386 
L 281.083708 595.888118 
L 299.645536 583.807078 
L 303.425091 583.624434 
L 303.524326 583.76386 
L 304.972864 584.438897 
L 304.800819 585.912464 
L 305.613563 588.042572 
L 306.07133 587.420397 
L 312.759898 588.067684 
L 316.436441 588.42345 
L 316.598799 588.439159 
L 319.819074 588.750764 
L 320.469509 591.799138 
L 322.244647 621.058648 
L 322.164442 621.897359 
L 322.653247 623.806731 
L 323.425811 628.480749 
L 336.944168 624.534312 
L 356.892023 618.652125 
L 367.495006 615.984492 
L 367.276032 621.011541 
L 368.020171 623.075487 
L 369.481396 628.590139 
L 368.831345 631.801733 
L 370.527221 634.068993 
L 353.178289 638.155539 
L 339.304525 641.942435 
L 336.011033 642.631698 
L 328.93985 643.859453 
L 331.446756 655.450888 
L 327.569679 656.175058 
L 328.625572 663.119329 
L 339.045235 661.582711 
L 380.829189 713.804929 
L 381.458468 717.780338 
L 378.785772 720.851918 
L 377.982334 727.807139 
L 376.135853 731.901171 
L 377.365035 736.49002 
L 363.815507 732.790006 
L 356.906935 738.72 
L 350.998975 735.331148 
L 341.796564 730.272149 
L 339.680677 729.168358 
L 335.136645 726.61409 
L 332.034909 725.492033 
L 332.909211 724.642299 
L 336.095857 722.391681 
L 336.1825 721.959775 
L 335.421683 720.360196 
L 335.421983 719.471108 
L 335.094944 718.1403 
L 335.263251 717.346353 
L 335.861548 716.08038 
L 335.937064 715.458872 
L 336.324687 714.869276 
L 336.302948 713.478735 
L 336.728996 711.980455 
L 336.771236 710.465995 
L 335.096292 698.753582 
L 334.48513 695.90853 
L 333.588535 690.573858 
L 333.363182 690.616307 
L 302.300114 698.546304 
L 293.381043 697.201501 
L 292.548286 690.021173 
L 285.991857 690.572147 
L 286.105556 679.38182 
L 283.790372 679.7312 
L 285.564028 674.312613 
L 283.623631 673.936119 
L 279.105997 675.676437 
L 279.339092 670.383899 
L 279.480997 668.585909 
L 278.728892 666.967267 
L 274.66122 658.420586 
L 280.466555 656.81401 
L 284.095419 655.809732 
L 281.637938 649.374546 
L 279.36126 644.177675 
L 280.802426 639.418542 
L 281.014129 637.059928 
L 281.035096 632.302006 
L 267.564582 632.45599 
L 267.884018 631.064703 
L 267.827562 630.311103 
L 267.41504 629.214465 
L 267.586466 627.816603 
L 267.061143 626.315562 
L 266.739485 623.844688 
L 266.294971 622.977614 
L 265.200075 622.340683 
L 264.994642 621.293201 
L 266.188079 618.877471 
L 267.541513 617.079782 
L 267.700718 614.734426 
L 268.495718 613.210433 
L 268.651291 612.479637 
L 268.214177 611.787297 
L 267.408486 611.635618 
L 265.409116 612.22669 
L 263.3784 611.614124 
L 262.570105 610.44852 
L 262.949657 610.011158 
L 262.088334 609.150913 
L 261.71473 609.137689 
L 261.746043 608.473453 
" clip-path="url(#p4e096d25d7)" style="fill: #e0bd1f; stroke: #0000ff; stroke-width: 0.5"/>
    <path d="M 381.224717 713.424713 
L 376.248428 707.125824 
L 374.925275 705.421258 
L 339.444936 661.151507 
L 328.625573 663.119329 
L 327.788092 657.229269 
L 330.049222 655.772865 
L 330.049224 655.772864 
L 330.049225 655.772863 
L 332.347211 655.334668 
L 375.746008 647.387783 
L 377.38037 647.442895 
L 378.061956 647.061241 
L 378.061957 647.061241 
L 378.061959 647.06124 
L 379.593831 647.405151 
L 380.551628 647.899873 
L 381.260429 649.40199 
L 382.300752 650.17851 
L 383.303033 651.176101 
L 382.626591 652.177274 
L 382.62659 652.177274 
L 382.626589 652.177275 
L 381.60289 652.19192 
L 380.444553 653.241169 
L 381.565445 654.151905 
L 382.051216 655.430287 
L 382.829136 656.274548 
L 383.943207 656.982672 
L 385.308542 657.209179 
L 386.522692 657.869903 
L 387.782181 658.174637 
L 387.806624 658.178855 
L 388.937214 659.392092 
L 389.851279 660.417584 
L 389.687868 662.908955 
L 391.14901 664.171322 
L 392.036612 664.718177 
L 392.817292 666.107191 
L 393.049864 667.492925 
L 393.213559 668.371941 
L 394.666315 668.453907 
L 396.159131 668.578071 
L 397.504381 668.079703 
L 398.271548 667.161727 
L 398.949784 666.220142 
L 400.213249 665.565676 
L 400.21325 665.565675 
L 400.213252 665.565674 
L 401.68831 666.057396 
L 404.21991 666.700649 
L 404.70881 667.902881 
L 405.83099 668.620121 
L 406.835132 668.985074 
L 408.173543 668.916799 
L 409.290084 668.192366 
L 409.290085 668.192366 
L 409.290087 668.192365 
L 410.251656 668.548512 
L 411.505192 668.092633 
L 413.054221 667.595248 
L 414.466827 668.145723 
L 415.803845 668.035425 
L 416.775372 667.525029 
L 416.775373 667.525029 
L 416.775375 667.525028 
L 417.616072 668.625965 
L 418.674849 669.366857 
L 419.868591 670.345779 
L 421.24825 670.882707 
L 422.229099 669.767474 
L 422.280539 667.02311 
L 423.224449 665.701196 
L 423.22445 665.701195 
L 423.224451 665.701194 
L 424.745459 665.686307 
L 425.231939 666.823148 
L 425.956849 667.922903 
L 427.1243 668.402501 
L 427.971267 669.054163 
L 429.431215 669.081309 
L 430.00964 669.92471 
L 431.194133 669.844852 
L 432.49955 669.963964 
L 433.376844 669.441696 
L 433.376846 669.441695 
L 433.376847 669.441694 
L 434.763303 669.780136 
L 435.425899 670.81916 
L 436.988936 671.007627 
L 437.597787 669.793363 
L 437.597789 669.793362 
L 437.59779 669.793361 
L 438.679727 669.304434 
L 439.652455 668.418035 
L 439.652456 668.418035 
L 439.652458 668.418034 
L 440.656078 668.625372 
L 439.740861 677.941589 
L 439.449869 679.913239 
L 438.59971 681.780516 
L 431.500069 697.475588 
L 427.531964 704.209007 
L 427.531962 704.209006 
L 427.531962 704.209007 
L 427.531961 704.209008 
L 418.761776 698.921876 
L 412.356177 697.88077 
L 398.59711 699.277357 
L 390.820472 700.895918 
L 381.22472 713.424711 
L 381.224719 713.42471 
L 381.224718 713.424712 
L 381.224717 713.424713 
" clip-path="url(#p4e096d25d7)" style="fill: #e0bd1f; stroke: #0000ff; stroke-width: 0.5"/>
    <path d="M 371.568579 611.182966 
L 402.903079 618.85182 
L 402.972858 617.688746 
L 446.969838 628.692959 
L 442.126123 640.079906 
L 442.215005 646.492757 
L 442.420144 652.251894 
L 441.23354 659.966231 
L 440.046945 667.680575 
L 439.058847 668.271739 
L 438.528673 668.971332 
L 437.489406 669.555844 
L 436.826555 670.551111 
L 435.637218 670.496899 
L 434.974441 669.501582 
L 433.5104 669.123723 
L 432.539751 669.405483 
L 431.059832 669.502333 
L 430.201824 669.558482 
L 429.639849 668.903586 
L 428.097201 668.578834 
L 427.193606 667.92942 
L 426.125208 667.625134 
L 425.4914 666.707629 
L 424.990182 665.398011 
L 422.955091 665.449693 
L 421.876047 667.186944 
L 421.924844 669.665071 
L 421.139899 670.225651 
L 420.005782 669.879384 
L 417.827745 668.255612 
L 416.984652 666.995729 
L 415.732051 667.562628 
L 414.223411 667.450041 
L 413.222205 667.196528 
L 410.58836 668.087589 
L 409.269453 667.834867 
L 407.467066 668.473629 
L 405.49998 667.978132 
L 405.290524 667.449144 
L 404.478473 666.403786 
L 400.381213 664.92439 
L 399.157222 665.648974 
L 397.218614 667.329625 
L 395.971773 668.170641 
L 393.79599 667.454514 
L 393.14493 666.036332 
L 392.076376 664.130401 
L 391.011077 663.551157 
L 390.523208 662.658626 
L 390.332971 660.527031 
L 388.661186 657.831216 
L 386.555496 657.394186 
L 385.328201 656.768778 
L 383.990477 656.445902 
L 382.502838 655.216286 
L 381.446613 653.596568 
L 380.879042 653.218586 
L 381.941268 652.540981 
L 382.935525 652.44543 
L 383.857793 651.279382 
L 382.164625 649.281854 
L 381.42353 648.864717 
L 380.935058 647.713777 
L 379.7766 646.855427 
L 377.879562 646.61569 
L 377.071005 646.990083 
L 376.1846 646.909291 
L 375.685287 644.535916 
L 374.75646 637.677202 
L 370.442668 632.770519 
L 370.524926 625.286646 
L 368.726803 618.366495 
L 371.568579 611.182966 
" clip-path="url(#p4e096d25d7)" style="fill: #e0bd1f; stroke: #0000ff; stroke-width: 0.5"/>
    <path d="M 396.642288 420.289431 
L 397.562582 423.161639 
L 398.607814 426.390372 
L 400.804971 433.524125 
L 403.443786 433.514235 
L 404.205173 433.70639 
L 405.346949 436.19558 
L 405.996181 437.897243 
L 406.422982 439.840672 
L 406.621343 440.89843 
L 406.931909 444.852706 
L 406.986223 445.573355 
L 407.115035 450.240407 
L 405.480591 450.845322 
L 403.98312 445.696052 
L 383.615564 453.499341 
L 382.471647 449.489984 
L 377.997192 434.041167 
L 378.006622 433.304721 
L 378.01924 432.802434 
L 377.897913 427.392703 
L 384.027018 424.977351 
L 390.592761 422.689469 
L 396.642288 420.289431 
" clip-path="url(#p4e096d25d7)" style="fill: #e0bd1f; stroke: #0000ff; stroke-width: 0.5"/>
    <path d="M 390.672736 168.074141 
L 397.319155 168.57453 
L 397.611661 169.496817 
L 400.573676 169.699941 
L 400.646131 171.621491 
L 402.747763 172.676517 
L 405.45318 177.391356 
L 405.980742 181.201505 
L 407.694252 180.679401 
L 416.570395 195.582163 
L 408.508708 199.364107 
L 392.78099 204.489157 
L 389.489744 202.102495 
L 389.154207 202.21711 
L 385.013603 188.931919 
L 388.16375 177.159652 
L 389.92607 171.963954 
L 390.672736 168.074141 
" clip-path="url(#p4e096d25d7)" style="fill: #e0bd1f; stroke: #0000ff; stroke-width: 0.5"/>
    <path d="M 419.596531 368.972931 
L 443.462916 362.154156 
L 445.899004 370.542153 
L 476.185327 362.178123 
L 476.077378 364.68137 
L 476.022358 365.280691 
L 475.923244 365.723855 
L 475.720086 366.268704 
L 475.494701 366.688003 
L 475.095146 367.243335 
L 470.80542 373.027781 
L 470.399697 373.697475 
L 470.194707 374.262185 
L 470.094754 374.986339 
L 470.146806 375.670835 
L 470.254869 376.13914 
L 472.091953 383.145879 
L 472.216319 383.833718 
L 472.171976 384.507898 
L 472.025544 385.061899 
L 471.226219 387.435398 
L 455.241515 391.836165 
L 453.126253 384.013638 
L 423.463665 392.524552 
L 419.596531 368.972931 
" clip-path="url(#p4e096d25d7)" style="fill: #e0bd1f; stroke: #0000ff; stroke-width: 0.5"/>
   </g>
   <g id="PatchCollection_2">
    <path d="M 440.640883 667.262148 
L 439.984892 667.824599 
L 438.144343 669.433944 
L 436.848311 670.237325 
L 436.845559 670.870888 
L 436.624019 671.028322 
L 436.370806 670.990885 
L 436.151159 671.221234 
L 435.936335 671.219709 
L 434.485135 669.700414 
L 434.104321 669.455898 
L 433.306056 669.346758 
L 433.120296 669.031916 
L 432.688752 668.980713 
L 432.51936 669.270513 
L 432.584168 669.683866 
L 432.440169 670.129601 
L 431.843316 670.021927 
L 430.042273 669.84037 
L 430.270632 669.485954 
L 429.161159 669.107478 
L 428.984305 669.474317 
L 426.075679 667.85506 
L 426.077173 667.282559 
L 425.679422 666.880302 
L 425.025949 666.48163 
L 424.829047 666.334805 
L 424.651416 666.469389 
L 424.482859 666.348959 
L 424.446234 666.06323 
L 424.689631 665.728034 
L 424.637272 665.559121 
L 423.672309 665.518961 
L 422.984327 665.684145 
L 422.177471 666.28274 
L 421.975689 666.633219 
L 422.455355 668.691423 
L 422.351678 668.980085 
L 422.070203 669.161725 
L 421.733931 669.239935 
L 421.611966 669.487611 
L 421.800175 669.800248 
L 421.77603 670.013199 
L 421.554883 670.205978 
L 420.507471 670.635597 
L 420.182692 671.034082 
L 419.953568 670.969678 
L 419.571572 670.156051 
L 419.058087 669.951586 
L 418.626466 669.233894 
L 418.287591 669.233135 
L 417.896631 668.680212 
L 417.550203 668.788659 
L 417.598769 668.037694 
L 417.158767 667.929992 
L 417.070064 667.701026 
L 416.552764 667.288058 
L 416.092941 667.511384 
L 415.237879 668.306021 
L 415.008366 667.856471 
L 414.418009 667.821621 
L 413.555902 667.41037 
L 409.958851 668.403695 
L 408.755533 668.365128 
L 408.615393 669.167635 
L 407.229198 669.018228 
L 406.403898 668.778011 
L 405.246847 668.788683 
L 404.96266 668.528139 
L 404.204314 667.267015 
L 404.417458 667.044122 
L 404.749722 666.962468 
L 404.743842 666.718872 
L 404.326629 666.678364 
L 403.753517 666.259927 
L 400.818986 666.131688 
L 400.010999 665.532738 
L 399.121555 665.618244 
L 398.966676 665.807599 
L 398.936798 666.077373 
L 398.630833 666.121108 
L 398.414554 666.296576 
L 398.380574 666.623184 
L 398.123505 666.809663 
L 397.617524 666.708978 
L 397.46534 666.860536 
L 397.529093 667.044906 
L 397.784503 667.337445 
L 398.228729 667.531906 
L 398.209996 667.71246 
L 397.0293 668.076169 
L 396.285526 668.637055 
L 395.640938 668.554515 
L 393.316827 668.536957 
L 393.011351 668.396462 
L 392.900146 668.022593 
L 392.939693 666.890002 
L 392.620429 665.969945 
L 392.280582 665.496845 
L 391.824664 665.202758 
L 391.941223 664.992344 
L 392.57243 664.769933 
L 392.406979 664.338805 
L 392.180473 664.226952 
L 390.797085 663.926152 
L 390.230992 663.677682 
L 389.913981 663.136696 
L 389.708918 662.040852 
L 390.069394 661.880004 
L 390.250382 661.37719 
L 390.277374 660.871378 
L 389.995805 660.363029 
L 389.4618 660.090572 
L 388.656463 659.404021 
L 388.217895 658.696007 
L 387.549757 658.146331 
L 386.944909 658.06691 
L 386.870855 658.260587 
L 386.472413 658.108839 
L 386.172261 657.598354 
L 384.57682 657.19333 
L 383.505763 656.981957 
L 383.04882 656.341037 
L 382.721487 655.350884 
L 382.465345 655.222214 
L 381.863123 655.269897 
L 381.629629 654.996027 
L 381.602403 654.653821 
L 381.773517 654.393564 
L 382.372522 654.229902 
L 382.368675 654.019592 
L 382.116987 653.888594 
L 381.52715 654.020496 
L 381.031631 653.651753 
L 380.7648 653.691755 
L 380.723752 653.919318 
L 380.814555 654.102497 
L 380.574529 653.786153 
L 380.560703 653.255606 
L 381.070961 652.253238 
L 381.347793 652.168601 
L 381.902949 652.497935 
L 381.819593 653.271308 
L 382.037653 653.399087 
L 382.29732 653.276986 
L 382.4436 652.945788 
L 382.343773 652.708104 
L 382.407137 652.527809 
L 383.327459 651.49787 
L 383.243849 651.265277 
L 382.877208 650.854465 
L 382.139651 649.592203 
L 381.670657 649.187334 
L 381.286337 649.104134 
L 380.857309 649.12568 
L 380.662092 648.853612 
L 380.571829 647.782142 
L 380.310633 647.550649 
L 379.699222 647.227901 
L 377.846642 646.778044 
L 377.2442 646.38289 
L 377.139395 646.714746 
L 376.482362 647.195004 
L 376.108827 647.088437 
L 375.644664 646.653099 
L 375.247787 646.093321 
L 375.238697 645.725835 
L 375.607478 644.607416 
L 375.46684 643.984021 
L 375.623785 642.774955 
L 376.004316 642.539896 
L 376.166939 642.198266 
L 376.150259 641.888287 
L 375.213049 640.496344 
L 374.028468 639.168752 
L 374.203281 638.800341 
L 374.239363 638.206015 
L 374.516693 637.626278 
L 374.401106 637.421461 
L 374.151336 637.227437 
L 373.809897 637.402126 
L 373.703077 637.722942 
L 373.399792 637.702908 
L 372.81411 637.335501 
L 372.500815 636.91696 
L 372.001674 636.670105 
L 372.120018 636.376586 
L 372.490499 636.27427 
L 372.680743 636.089008 
L 372.462693 635.844123 
L 372.124193 635.879385 
L 371.847413 636.023403 
L 371.596011 636.020032 
L 371.681594 635.743859 
L 371.947884 635.549398 
L 372.029834 635.291069 
L 371.513835 634.423358 
L 371.120097 634.262288 
L 370.897602 633.971687 
L 370.928538 633.313623 
L 370.817225 632.925325 
L 370.506209 632.747925 
L 370.06207 633.146494 
L 369.765403 632.860248 
L 369.534175 632.191154 
L 369.576874 631.79859 
L 369.907742 631.216352 
L 370.09733 630.640624 
L 370.399167 630.255114 
L 370.080511 629.643721 
L 369.76413 628.605616 
L 369.388646 627.762129 
L 369.585844 626.705034 
L 369.824345 626.28287 
L 370.079533 626.253142 
L 370.269966 626.361556 
L 370.518092 626.290898 
L 370.714958 625.929098 
L 370.567678 625.431827 
L 370.319261 625.210985 
L 369.926836 625.181846 
L 369.754863 625.384881 
L 369.468975 625.40783 
L 369.364564 625.230599 
L 369.142794 624.493841 
L 369.194953 623.958007 
L 369.007201 623.452543 
L 368.638598 623.393199 
L 368.172385 623.037351 
L 367.747978 621.521571 
L 367.255866 620.584067 
L 367.429712 620.164623 
L 367.846662 619.749237 
L 368.241665 619.537012 
L 368.425588 619.310405 
L 368.383875 618.895538 
L 368.698239 618.293876 
L 368.493509 617.901529 
L 368.793638 617.378706 
L 368.630828 617.092556 
L 368.72928 616.827503 
L 369.208861 616.469928 
L 368.41928 613.959985 
L 368.479378 613.077112 
L 368.730478 612.445266 
L 369.68542 612.568174 
L 370.115676 612.357762 
L 370.211217 611.830456 
L 370.193239 611.092918 
L 369.465639 610.689636 
L 369.044031 611.089105 
L 368.875149 610.982418 
L 368.864085 610.7917 
L 369.434132 609.858342 
L 369.715823 609.697137 
L 369.834876 609.909839 
L 369.79046 610.199743 
L 369.915304 610.377761 
L 370.620653 610.179588 
L 370.628283 609.871927 
L 370.459216 609.639474 
L 370.494078 609.397755 
L 370.811892 609.080256 
L 370.820207 608.754474 
L 369.958275 607.87118 
L 369.147714 607.30281 
L 369.020655 606.948414 
L 369.19693 606.773201 
L 369.430626 606.842923 
L 369.707121 606.50174 
L 369.559765 606.308847 
L 369.208084 606.201447 
L 369.183616 605.839702 
L 369.533843 605.273264 
L 369.985126 604.830476 
L 369.765359 604.492906 
L 370.163316 604.217686 
L 370.620001 604.22239 
L 371.414776 604.077606 
L 371.691796 604.376148 
L 372.009534 604.381647 
L 372.07151 604.103769 
L 371.832849 603.736994 
L 371.41806 603.308931 
L 370.756579 601.736458 
L 370.715948 601.063294 
L 370.822787 600.809563 
L 371.100234 600.698282 
L 371.20839 600.500309 
L 371.135596 600.275638 
L 370.597587 600.166529 
L 370.119019 599.326322 
L 370.520875 597.289814 
L 370.288295 595.412507 
L 369.963457 594.648484 
L 370.483991 594.469168 
L 370.82498 594.649921 
L 371.153228 594.546742 
L 371.441102 594.266871 
L 372.042011 594.59679 
L 372.407223 594.646777 
L 372.86814 594.191812 
L 372.88995 593.608177 
L 372.678077 593.186279 
L 372.816586 592.82526 
L 372.525135 591.893928 
L 371.664148 591.057073 
L 371.152795 590.895962 
L 370.510131 591.065299 
L 369.565093 590.717161 
L 369.57235 590.281424 
L 370.104022 588.847098 
L 370.529155 588.766589 
L 370.635572 588.452024 
L 370.508805 588.178067 
L 370.240092 588.062034 
L 369.978277 588.170439 
L 368.289407 586.4267 
L 368.35681 585.400563 
L 369.128487 585.365026 
L 369.530011 585.126135 
L 369.357784 583.491916 
L 370.12218 582.932358 
L 370.179262 582.005666 
L 370.001064 581.069864 
L 369.303077 580.858475 
L 368.50754 580.965691 
L 368.287962 580.305763 
L 368.346968 579.473457 
L 368.580762 579.134413 
L 369.009036 579.007495 
L 369.43393 579.124486 
L 369.695163 578.829963 
L 369.481559 578.462871 
L 368.928646 577.979247 
L 367.718403 577.455556 
L 367.470168 577.071186 
L 367.10563 577.047207 
L 367.173939 577.433812 
L 367.030576 577.790473 
L 366.708585 577.504941 
L 366.712928 577.03098 
L 366.846495 576.517624 
L 366.244992 575.932986 
L 365.612185 576.019125 
L 364.936174 575.612633 
L 364.933675 575.035094 
L 365.079569 574.234074 
L 365.865621 572.909565 
L 367.113727 571.675019 
L 368.048688 571.461414 
L 368.827647 570.05031 
L 368.695675 569.128055 
L 368.365464 568.274959 
L 368.482174 566.374608 
L 368.838662 565.867359 
L 368.663867 565.089497 
L 369.097378 564.629781 
L 369.215677 563.758912 
L 369.190693 562.680536 
L 369.339086 561.821169 
L 369.362726 560.857749 
L 368.74651 560.421798 
L 368.630116 559.747106 
L 368.532555 556.792074 
L 368.846551 556.371351 
L 369.231842 556.088012 
L 369.193543 555.714996 
L 368.654364 555.410344 
L 368.030248 555.298662 
L 367.196573 555.290885 
L 366.926428 554.603562 
L 366.635932 553.160014 
L 366.742954 552.78001 
L 367.163372 552.843894 
L 367.459536 552.6951 
L 367.39492 552.31247 
L 367.133163 551.863999 
L 366.842956 550.82164 
L 366.299851 550.169404 
L 366.092928 549.231577 
L 366.139933 548.299784 
L 366.503413 547.800111 
L 366.624974 546.950295 
L 366.438428 545.819272 
L 365.81643 544.721825 
L 364.544101 543.221417 
L 362.774597 539.275643 
L 362.374675 539.08963 
L 362.008216 539.221898 
L 361.65671 539.59213 
L 361.614476 539.940821 
L 361.28203 539.841723 
L 360.975884 539.409126 
L 360.610923 539.200819 
L 359.985546 539.101134 
L 359.736884 538.458894 
L 360.251978 538.04266 
L 360.279327 537.36404 
L 360.11673 537.153241 
L 359.699904 537.060377 
L 359.426484 536.775486 
L 359.37304 536.547362 
L 359.726372 535.864326 
L 359.401497 535.324921 
L 359.477104 534.946725 
L 359.135768 534.401765 
L 359.140487 534.13113 
L 358.803184 533.601559 
L 358.303636 533.718968 
L 357.978005 533.431446 
L 357.857171 533.113454 
L 357.61516 533.041616 
L 357.437122 533.10965 
L 357.385618 533.525131 
L 357.107805 533.3026 
L 356.762599 533.518072 
L 356.383936 532.441947 
L 355.972225 532.026171 
L 356.098236 531.13966 
L 355.893718 531.121196 
L 355.746753 531.32055 
L 355.509355 531.222648 
L 355.406793 530.617206 
L 355.12368 530.3031 
L 354.633228 530.037904 
L 353.870432 530.12629 
L 353.760909 530.23443 
L 353.516014 529.855541 
L 353.384254 529.410737 
L 353.095617 527.461097 
L 352.256609 526.317856 
L 352.236241 525.871058 
L 352.094116 525.562135 
L 351.816035 525.249209 
L 351.538119 525.162597 
L 351.340372 525.25657 
L 350.738473 525.921794 
L 350.515654 525.753455 
L 349.896268 524.504472 
L 349.363821 522.987567 
L 349.538296 522.230961 
L 349.550928 521.848015 
L 349.013659 521.026255 
L 348.698937 520.243203 
L 348.561408 519.380615 
L 349.150022 518.662986 
L 349.327197 518.210718 
L 349.741912 517.976276 
L 350.218522 518.374973 
L 350.386679 518.220785 
L 350.348362 517.675404 
L 350.170544 517.209067 
L 348.559394 515.13539 
L 348.277726 515.001389 
L 348.009539 515.105329 
L 347.67745 515.413769 
L 347.350307 515.511741 
L 347.008109 514.867731 
L 346.849061 514.071694 
L 346.399732 513.316845 
L 346.529645 512.95323 
L 346.844269 512.499281 
L 346.96575 512.049755 
L 346.792725 511.697541 
L 346.418485 511.424967 
L 345.775871 511.141388 
L 345.219106 510.592082 
L 344.912463 509.896828 
L 344.112036 509.533419 
L 343.674859 509.654041 
L 342.373234 507.622746 
L 341.663374 507.0145 
L 340.628893 505.677145 
L 339.855544 505.031188 
L 339.047896 504.593831 
L 338.596856 504.541139 
L 338.344551 504.682993 
L 336.877523 503.545434 
L 336.087474 502.859101 
L 335.713777 502.157948 
L 335.7623 501.178929 
L 335.499383 500.482898 
L 335.556572 500.147383 
L 335.404979 499.900608 
L 334.836988 499.662645 
L 334.378468 499.907801 
L 333.407797 499.839705 
L 332.809199 499.536378 
L 332.506091 499.161593 
L 332.25011 498.187596 
L 332.579208 497.980944 
L 332.648493 497.767319 
L 332.473923 497.623916 
L 331.464852 497.695011 
L 331.031014 497.553746 
L 330.654913 497.21464 
L 328.871138 496.898062 
L 328.42231 497.175569 
L 328.28879 497.623144 
L 328.343714 497.986425 
L 328.152009 498.479045 
L 327.526714 498.742422 
L 326.870828 498.238101 
L 326.409909 497.596217 
L 325.611589 497.20372 
L 325.003668 496.695776 
L 324.532464 496.130404 
L 323.250297 493.590699 
L 322.758517 493.010099 
L 322.880659 492.158852 
L 322.729488 491.865015 
L 322.254804 491.491845 
L 322.289933 491.107263 
L 322.613825 490.688928 
L 322.493645 490.512724 
L 322.305317 490.496348 
L 322.24015 490.222328 
L 321.629421 490.678839 
L 320.9513 489.147912 
L 320.635024 488.73137 
L 320.521502 488.397144 
L 320.247832 488.284952 
L 319.716601 488.484201 
L 319.562935 488.710703 
L 318.971472 488.265705 
L 319.33574 484.884578 
L 319.322017 483.913304 
L 318.87202 483.276843 
L 318.46008 483.142928 
L 318.004303 483.220778 
L 317.673455 483.460991 
L 317.44342 483.406253 
L 317.344175 483.180223 
L 317.703497 482.631493 
L 317.884687 481.091282 
L 317.733953 480.660483 
L 316.796402 479.909914 
L 316.794859 479.548359 
L 317.017821 479.5147 
L 317.197374 479.619931 
L 317.288221 479.510802 
L 317.01335 478.937255 
L 317.141629 478.734224 
L 317.052004 478.477285 
L 316.671371 478.054576 
L 316.442527 478.128565 
L 316.284317 478.014925 
L 316.362912 477.748703 
L 315.570369 477.180767 
L 314.075568 477.091913 
L 313.773829 477.440046 
L 313.5675 477.884923 
L 313.117008 477.969532 
L 312.695296 477.65126 
L 312.390972 477.188805 
L 311.990021 476.882534 
L 311.454206 475.320695 
L 311.478055 474.778559 
L 311.971257 474.048699 
L 311.759341 473.760583 
L 311.497763 473.86151 
L 310.934259 473.60494 
L 310.591137 473.155189 
L 310.907014 472.553568 
L 310.81884 472.026297 
L 310.923367 471.569359 
L 311.65464 471.610801 
L 311.978186 471.223866 
L 311.758886 470.579869 
L 312.095334 470.074304 
L 312.22697 469.560573 
L 311.607148 469.278517 
L 310.583378 468.318211 
L 310.533082 467.954408 
L 311.042325 467.174658 
L 311.133654 466.841745 
L 311.704599 466.832348 
L 311.957169 466.458976 
L 311.890247 465.855944 
L 311.431453 465.236789 
L 310.929061 464.978127 
L 308.636227 462.661131 
L 308.386568 462.237728 
L 308.246949 461.587052 
L 307.901103 460.96872 
L 306.582014 459.387584 
L 306.484821 458.995994 
L 306.566709 458.612157 
L 306.879213 458.482237 
L 307.645673 458.976856 
L 307.955875 458.82882 
L 308.6905 458.153298 
L 309.744159 457.859534 
L 309.91732 457.63935 
L 309.98327 457.283145 
L 309.697271 456.70383 
L 309.466696 456.5543 
L 309.378415 456.255054 
L 308.642768 456.451819 
L 308.61285 456.261008 
L 308.866403 455.983775 
L 309.096465 455.543664 
L 309.066733 455.236827 
L 308.902513 455.121976 
L 308.587396 455.109852 
L 308.104775 454.739808 
L 307.649108 454.233764 
L 308.760101 453.651291 
L 308.536285 452.781031 
L 307.564938 452.449981 
L 307.396132 452.719599 
L 307.338812 453.031619 
L 306.543881 452.276362 
L 306.309041 451.14254 
L 306.353595 450.625307 
L 306.739121 450.320284 
L 307.605405 450.290414 
L 307.693797 450.057158 
L 307.607539 449.885051 
L 307.4356 449.064726 
L 307.814499 448.577759 
L 308.749555 448.023679 
L 308.685838 447.672768 
L 308.820985 447.505135 
L 309.247086 447.460561 
L 309.284297 447.198156 
L 309.071097 446.948065 
L 308.284335 446.525718 
L 308.141032 446.121045 
L 309.001549 445.146025 
L 309.331749 444.459374 
L 309.3996 442.177142 
L 309.144142 441.473126 
L 308.6889 440.941464 
L 308.376759 440.343923 
L 308.424292 439.76777 
L 308.603917 439.006797 
L 308.596379 438.45778 
L 308.301639 437.971033 
L 308.956829 436.92419 
L 309.18746 436.384717 
L 309.048132 435.851823 
L 308.506244 435.28951 
L 308.007009 434.610363 
L 306.846132 433.842663 
L 306.467698 433.26614 
L 305.796048 432.54731 
L 304.934698 432.085906 
L 303.418771 430.826033 
L 302.711621 429.456283 
L 302.1269 429.241924 
L 300.41657 429.6012 
L 299.553505 430.072349 
L 298.341194 431.085994 
L 298.266491 431.449413 
L 297.44034 431.64774 
L 296.679662 431.408664 
L 295.70736 430.804243 
L 294.780684 429.906665 
L 294.656195 429.097013 
L 294.28411 428.617355 
L 293.704494 428.303018 
L 293.170051 427.532254 
L 292.952348 426.631475 
L 292.530738 426.25711 
L 291.970549 426.076305 
L 291.236994 424.927167 
L 290.646331 423.11262 
L 290.143875 422.345766 
L 289.80457 422.089278 
L 289.305426 422.09267 
L 288.916339 421.335049 
L 289.00665 420.103242 
L 288.684771 419.608925 
L 288.594204 418.834985 
L 287.656417 416.698583 
L 287.321542 416.587937 
L 286.727714 416.064421 
L 286.184202 415.797705 
L 283.585725 415.955972 
L 282.99567 415.603317 
L 282.235839 414.580587 
L 282.377714 414.316601 
L 282.277622 414.075128 
L 281.916911 413.992964 
L 281.523544 414.050879 
L 281.045417 414.359237 
L 280.768464 414.292828 
L 280.338292 414.354403 
L 280.117577 414.671923 
L 280.164152 415.30682 
L 280.044813 415.512701 
L 278.885946 414.348543 
L 278.309139 413.7601 
L 277.592586 413.566628 
L 277.067506 413.188873 
L 276.708355 412.582397 
L 276.683946 412.004525 
L 276.423666 411.272934 
L 275.672855 410.983924 
L 275.110094 410.178856 
L 273.805446 409.662216 
L 274.148561 409.633231 
L 275.380829 409.581608 
L 274.903807 408.158793 
L 274.574053 407.007186 
L 274.476865 406.441852 
L 274.260243 405.93909 
L 274.397386 405.848474 
L 274.888545 405.18663 
L 275.376371 405.231009 
L 276.142651 404.815543 
L 277.481886 403.561836 
L 277.603144 402.918259 
L 277.81983 402.67396 
L 277.913447 402.275813 
L 278.404886 402.08197 
L 279.032027 402.067927 
L 279.941037 401.816318 
L 282.162151 402.641582 
L 282.626851 402.361087 
L 284.23934 402.131246 
L 284.984356 402.057878 
L 285.160754 401.911461 
L 286.297589 401.889662 
L 287.151389 401.618756 
L 288.067045 401.006377 
L 288.214143 400.758446 
L 288.507845 400.949684 
L 288.871522 401.440446 
L 289.608423 400.819241 
L 290.030427 400.708452 
L 290.114069 400.356816 
L 290.487472 400.270099 
L 290.388236 400.032763 
L 290.760624 400.161934 
L 291.525403 400.056615 
L 291.754566 399.814008 
L 292.175962 399.990985 
L 292.556626 399.831878 
L 292.967776 399.473134 
L 293.28313 399.840243 
L 293.084483 400.216384 
L 293.464276 400.394959 
L 294.196064 399.773604 
L 294.517801 399.105677 
L 296.540951 398.099836 
L 297.444731 397.66069 
L 297.882273 397.150075 
L 299.830817 396.190906 
L 301.063021 395.947644 
L 301.166357 395.561592 
L 302.291894 394.554876 
L 302.213513 394.150452 
L 302.946592 393.860098 
L 303.358598 394.29302 
L 303.627866 393.946372 
L 304.053663 393.963205 
L 304.572558 393.658169 
L 304.648008 393.161902 
L 305.023024 392.355823 
L 305.245399 392.234098 
L 305.484798 392.782183 
L 305.939098 392.272873 
L 305.979079 391.90645 
L 306.449303 391.970344 
L 306.398818 391.408285 
L 306.901062 391.658791 
L 307.043982 391.125921 
L 306.900566 390.826652 
L 307.48995 390.944539 
L 307.556283 390.166726 
L 306.934975 389.35518 
L 306.918109 388.699438 
L 307.091091 388.271136 
L 307.971574 387.576341 
L 308.55363 387.94066 
L 308.813458 387.533939 
L 308.527579 387.141144 
L 309.048063 386.614127 
L 309.568704 386.576648 
L 310.237186 385.059641 
L 310.590283 384.60521 
L 311.347731 384.232956 
L 311.507221 383.755294 
L 312.734162 383.251118 
L 313.679597 381.762267 
L 313.758805 381.390591 
L 314.771428 381.416686 
L 315.328743 381.038404 
L 314.751219 380.663025 
L 315.304656 380.302452 
L 315.144385 379.581427 
L 315.266364 379.354842 
L 315.80259 378.747005 
L 315.160377 378.711934 
L 315.181567 378.203331 
L 315.649818 378.148748 
L 315.580261 377.630468 
L 315.170143 377.188557 
L 315.086944 376.697759 
L 315.187073 376.117821 
L 315.726334 375.879624 
L 315.509639 375.311124 
L 316.530739 375.13019 
L 316.680911 374.02635 
L 315.891948 373.401975 
L 316.414539 372.366872 
L 316.972704 372.140668 
L 317.188336 371.767218 
L 317.638711 371.613684 
L 318.228434 370.867125 
L 318.763805 370.826186 
L 319.467766 370.115667 
L 320.055839 370.040383 
L 320.502175 369.822553 
L 320.949783 369.965682 
L 321.246462 369.670809 
L 321.682223 369.628011 
L 321.988068 369.722951 
L 321.70503 369.946084 
L 322.209145 370.412848 
L 322.829709 369.549352 
L 323.352459 369.76983 
L 324.085293 369.597039 
L 324.081764 368.834075 
L 323.602806 368.545614 
L 323.810349 367.582332 
L 324.986501 368.04177 
L 325.874512 367.585801 
L 324.819868 367.163464 
L 324.938733 366.930757 
L 327.138752 367.056372 
L 327.266788 366.593284 
L 328.090338 365.836576 
L 329.107718 365.938591 
L 329.534621 364.829861 
L 329.557613 364.381896 
L 330.200762 364.181674 
L 330.478788 363.666046 
L 331.339083 362.71431 
L 330.829468 362.617457 
L 330.607621 362.216033 
L 330.763852 360.92786 
L 331.296972 360.71385 
L 331.455357 360.273022 
L 332.071621 359.618199 
L 333.172095 358.842074 
L 334.923092 359.988578 
L 335.539292 359.856806 
L 335.756729 360.573896 
L 336.310728 360.452834 
L 336.917012 360.780145 
L 337.494918 360.848865 
L 338.01192 360.792652 
L 338.434392 360.562846 
L 338.123321 359.912163 
L 338.569109 359.322173 
L 340.247789 359.337282 
L 342.026358 359.060793 
L 342.582531 358.8113 
L 343.517096 358.233612 
L 344.026121 358.232208 
L 344.007978 358.635381 
L 344.787057 358.570916 
L 345.388977 358.149689 
L 345.718097 357.393402 
L 345.202878 356.867038 
L 345.448067 356.430044 
L 346.090893 356.306706 
L 346.730246 356.355963 
L 346.89123 356.076293 
L 348.246469 355.69732 
L 348.867667 356.036549 
L 350.171749 356.345112 
L 350.934887 356.40912 
L 350.811483 356.125654 
L 351.403824 355.89701 
L 351.541734 355.487918 
L 351.960281 355.451443 
L 352.483133 355.584394 
L 352.54648 355.930062 
L 353.589701 355.432518 
L 354.631842 355.809354 
L 354.977211 355.736003 
L 356.091196 356.712472 
L 356.695925 356.741338 
L 357.077961 357.205757 
L 359.407545 356.362871 
L 360.054179 355.022621 
L 360.417441 354.787932 
L 360.654533 354.453472 
L 361.013302 354.214604 
L 361.663813 354.044137 
L 362.108825 353.774283 
L 362.373893 354.099858 
L 362.942274 353.865299 
L 363.780307 353.848035 
L 364.176959 353.491139 
L 364.543953 353.317824 
L 364.924327 353.344746 
L 365.063935 353.694916 
L 366.222267 353.847564 
L 366.438296 353.596846 
L 366.550055 353.683879 
L 367.229771 353.280245 
L 367.491662 353.316003 
L 367.583527 353.467733 
L 368.994362 353.225732 
L 369.316835 353.447848 
L 369.430139 353.155529 
L 369.779361 353.013249 
L 370.502183 353.085824 
L 370.884982 352.662276 
L 371.565815 352.540642 
L 371.898348 352.707352 
L 372.351217 353.159188 
L 372.862664 353.136104 
L 373.401386 353.33793 
L 373.495481 353.948098 
L 373.662706 354.168203 
L 373.713301 355.137567 
L 375.27287 355.474017 
L 375.548319 355.729536 
L 375.468163 355.842891 
L 375.625267 356.345336 
L 376.069945 356.529172 
L 376.746473 356.86995 
L 377.180889 357.386924 
L 377.562659 357.411679 
L 377.88931 358.390902 
L 377.852856 359.077706 
L 378.620046 360.133727 
L 379.386089 360.832916 
L 380.630054 361.323487 
L 380.872609 361.905219 
L 381.449299 362.424157 
L 383.044374 362.480672 
L 383.013089 362.96828 
L 383.526887 363.15341 
L 383.770547 363.53596 
L 384.136804 363.782004 
L 384.182893 364.503754 
L 384.516009 365.153058 
L 384.782805 365.187125 
L 385.17357 365.440242 
L 385.371612 366.246394 
L 385.17582 366.451244 
L 385.607364 367.017152 
L 385.642062 367.272494 
L 385.949606 367.926006 
L 385.953071 368.279021 
L 386.41134 368.791372 
L 386.671798 369.332648 
L 386.757227 369.950321 
L 386.990926 370.263515 
L 387.58092 370.633447 
L 387.930881 371.231445 
L 387.913606 371.575736 
L 388.351606 371.952973 
L 388.098045 372.519456 
L 388.912198 373.56681 
L 390.228179 374.523221 
L 390.471955 374.537155 
L 390.701856 374.675485 
L 390.840858 375.332571 
L 391.115544 375.178176 
L 391.380136 375.231803 
L 391.716635 375.418554 
L 391.91627 375.745243 
L 391.999248 376.252429 
L 391.487521 376.253523 
L 391.658981 376.671911 
L 391.900795 376.801039 
L 392.493633 377.597028 
L 392.271967 378.110133 
L 392.23095 378.649967 
L 392.980814 379.417619 
L 393.300844 379.718333 
L 393.752545 379.648953 
L 394.197233 379.783247 
L 394.462683 380.214482 
L 394.985746 379.952687 
L 395.861613 380.172283 
L 396.500551 380.907254 
L 396.870265 380.576995 
L 397.549688 381.096764 
L 397.420653 381.470395 
L 397.694556 381.714904 
L 397.844674 382.154814 
L 397.758476 382.551362 
L 397.871127 382.873414 
L 398.241994 383.220226 
L 398.3027 383.671942 
L 398.648007 384.30228 
L 398.459788 384.687418 
L 398.699542 385.061577 
L 399.058536 385.294563 
L 399.142219 385.654229 
L 398.428735 386.479902 
L 398.446359 386.830968 
L 398.660495 387.20461 
L 398.460137 387.522512 
L 398.569645 387.907328 
L 399.540243 388.77715 
L 399.510391 389.550964 
L 399.604143 389.734957 
L 399.712888 390.577963 
L 399.637201 390.904616 
L 399.294719 390.873789 
L 399.045934 391.276207 
L 398.927962 391.785319 
L 399.423851 392.68326 
L 399.726654 392.917499 
L 399.418557 393.748916 
L 399.552604 394.165444 
L 400.609562 394.534074 
L 400.738518 394.866357 
L 400.777727 395.303457 
L 400.233471 396.149352 
L 400.222518 396.450793 
L 400.00834 397.307891 
L 400.840357 397.652231 
L 400.695488 398.279486 
L 401.013466 398.338889 
L 401.12689 398.566178 
L 401.046452 399.135111 
L 401.036021 399.472877 
L 401.315668 399.757496 
L 401.756114 399.822462 
L 401.861285 399.905843 
L 401.536162 400.379081 
L 401.549443 400.878302 
L 401.772804 401.02917 
L 402.17077 401.016461 
L 402.257818 401.167235 
L 402.482656 401.195366 
L 402.671377 401.535283 
L 402.56911 402.042041 
L 402.395877 402.246383 
L 402.446491 402.929659 
L 402.597744 403.532237 
L 402.84799 404.151741 
L 403.077414 404.176158 
L 403.284989 404.537269 
L 403.75817 404.564074 
L 403.849405 404.742579 
L 404.162143 404.883538 
L 404.342925 405.406036 
L 404.268555 406.713852 
L 404.681545 407.026122 
L 404.688181 407.322307 
L 404.525119 407.650011 
L 404.815458 407.948892 
L 405.081739 407.843741 
L 405.291769 408.044385 
L 405.361393 408.474507 
L 405.755489 408.623213 
L 405.638913 408.983693 
L 405.807485 409.183043 
L 406.250825 409.249758 
L 406.248452 409.440373 
L 405.582435 409.477656 
L 405.575203 409.730795 
L 405.687377 409.947063 
L 405.865087 410.046588 
L 406.470338 409.969918 
L 406.748784 410.046329 
L 406.664246 410.172397 
L 406.633184 410.901619 
L 406.652515 411.284393 
L 407.033775 411.705513 
L 407.360762 411.655291 
L 407.564812 412.158585 
L 408.098205 412.487786 
L 408.808901 413.344811 
L 409.104369 413.312526 
L 409.396735 413.673669 
L 409.792712 413.606783 
L 410.523075 413.234128 
L 410.607057 413.468306 
L 411.227632 413.615477 
L 412.486867 413.903055 
L 412.909147 413.712847 
L 413.442089 414.174549 
L 413.746961 413.772157 
L 414.23441 413.715582 
L 414.919155 413.363107 
L 415.070459 413.60477 
L 415.579338 413.78631 
L 416.76817 413.04438 
L 417.23367 413.129064 
L 417.507934 413.518006 
L 417.937778 413.316174 
L 418.268845 413.28509 
L 418.769075 413.768064 
L 418.878056 414.230683 
L 419.274104 414.328365 
L 419.807206 414.260986 
L 420.335041 414.447116 
L 421.402209 414.598466 
L 422.271746 414.318685 
L 422.562953 414.459282 
L 422.900491 414.904646 
L 423.262734 414.996754 
L 423.494457 415.581614 
L 423.86426 415.753429 
L 424.765838 416.299404 
L 424.663273 417.77031 
L 424.931062 418.991751 
L 424.992737 419.88194 
L 425.200912 420.582688 
L 426.051854 424.028097 
L 426.348731 424.575931 
L 426.596982 425.44889 
L 427.34496 426.12862 
L 427.870596 426.295074 
L 428.539123 426.764001 
L 429.663396 427.898856 
L 430.635048 428.221013 
L 431.845512 428.883469 
L 432.391456 429.336362 
L 432.493083 429.896896 
L 432.437365 430.375977 
L 434.080427 431.91131 
L 434.509593 432.516242 
L 434.602651 433.177711 
L 434.090302 433.776036 
L 434.215137 434.049656 
L 434.011021 434.29992 
L 434.313589 434.40225 
L 434.9495 435.717615 
L 435.356661 435.75563 
L 435.551109 435.849512 
L 436.277857 435.74103 
L 436.313119 435.963062 
L 436.495948 436.173874 
L 436.739077 436.131178 
L 436.823981 435.865678 
L 436.886181 435.925606 
L 437.260695 436.216214 
L 437.622421 436.70038 
L 437.869272 436.798186 
L 438.026312 436.651704 
L 438.000237 436.470837 
L 438.097763 436.495105 
L 438.393071 436.663572 
L 438.238866 437.03448 
L 438.213339 437.297831 
L 438.592859 437.591559 
L 438.698865 437.383494 
L 438.945503 437.484121 
L 439.217132 437.207182 
L 439.311533 437.090449 
L 439.386273 437.154834 
L 439.359522 437.325312 
L 439.55158 437.51013 
L 439.983148 437.400709 
L 440.113959 437.11595 
L 440.962817 436.438118 
L 441.6715 436.169986 
L 441.715929 435.939691 
L 442.336365 435.628292 
L 443.224066 435.4548 
L 443.302347 435.309973 
L 443.827866 435.338744 
L 443.992245 435.449665 
L 444.155141 435.288881 
L 444.214458 434.898409 
L 444.289663 434.732268 
L 444.193195 434.595123 
L 444.426805 434.259329 
L 444.502883 434.020987 
L 444.298834 433.787005 
L 444.628449 433.515109 
L 444.893946 433.121125 
L 445.14004 432.977804 
L 445.623128 433.022804 
L 446.344992 432.749662 
L 446.498751 432.393688 
L 446.506399 432.079546 
L 447.084221 431.834583 
L 447.326571 431.592436 
L 447.455938 431.285401 
L 448.589836 430.472605 
L 450.605531 429.869155 
L 451.22508 429.999464 
L 451.426267 429.768159 
L 451.707631 429.698483 
L 453.006124 429.8123 
L 453.233794 429.646648 
L 453.558899 429.673646 
L 455.157753 429.163071 
L 455.615696 429.319949 
L 456.704741 429.393058 
L 457.487353 429.269299 
L 457.757739 429.070901 
L 458.058414 429.046255 
L 458.304883 429.153419 
L 458.600905 429.083862 
L 459.643693 429.473883 
L 460.043777 429.54357 
L 460.395069 429.412716 
L 460.591456 429.665928 
L 461.054369 429.534967 
L 461.690985 429.748968 
L 462.596788 430.45194 
L 462.838694 430.956704 
L 463.335484 431.252392 
L 464.004588 431.873624 
L 464.420842 431.844543 
L 464.544106 432.032961 
L 464.741411 432.692379 
L 465.057991 432.743716 
L 465.207678 432.581269 
L 465.43849 432.723085 
L 466.064527 433.855946 
L 466.288844 433.959077 
L 467.500868 434.070079 
L 467.855852 433.930685 
L 468.601877 434.574423 
L 469.155812 434.32436 
L 469.014171 433.267671 
L 466.452157 422.662391 
L 465.154759 413.358814 
L 459.601527 402.861262 
L 454.045807 402.773277 
L 447.407129 391.292631 
L 444.010237 375.657862 
L 452.416309 365.981669 
L 451.478974 356.788264 
L 442.908995 355.903377 
L 442.972039 346.721482 
L 446.67384 330.754864 
L 446.328741 326.323424 
L 444.118602 324.309679 
L 438.950812 321.874383 
L 432.051645 322.959484 
L 427.297414 324.656139 
L 425.078766 324.377586 
L 422.611423 322.443286 
L 422.921502 320.718511 
L 425.339474 316.514118 
L 425.544783 313.726644 
L 423.23153 310.928334 
L 417.856813 307.124153 
L 412.36487 306.688341 
L 410.075168 303.781006 
L 410.486074 297.069544 
L 404.099823 290.256529 
L 407.509574 283.976172 
L 402.02853 278.703702 
L 403.090363 271.790189 
L 396.401639 266.844726 
L 386.135686 267.687322 
L 385.66962 265.121593 
L 382.754686 263.044058 
L 382.821307 260.035616 
L 386.730607 255.248711 
L 381.916186 251.165792 
L 379.988513 237.090005 
L 374.369673 232.591933 
L 373.516782 228.78893 
L 376.062306 225.362295 
L 371.437906 217.452541 
L 368.363741 211.290162 
L 366.778695 202.882296 
L 370.114509 193.654385 
L 375.081822 189.020698 
L 374.880417 186.122973 
L 384.916237 188.909993 
L 388.163253 177.160127 
L 389.624185 172.597176 
L 389.775086 171.33437 
L 397.119741 145.066976 
L 400.35962 133.92 
L 403.189014 134.581754 
L 412.460875 136.924049 
L 414.235373 137.366056 
L 415.776218 137.595748 
L 425.812135 138.339088 
L 422.091269 143.740423 
L 421.112032 146.137248 
L 416.537971 158.609587 
L 416.395186 159.639721 
L 416.575152 161.285612 
L 418.483619 167.460699 
L 421.645504 177.732115 
L 421.732788 178.520505 
L 421.25096 191.616498 
L 421.731713 193.097586 
L 422.692183 194.047939 
L 426.733953 196.232144 
L 427.354117 196.752942 
L 428.477803 198.133644 
L 436.611899 210.400268 
L 437.091622 211.317911 
L 437.480959 212.41853 
L 440.164529 222.632192 
L 440.57707 223.617668 
L 441.259257 224.534038 
L 442.243156 225.379911 
L 450.983146 232.567126 
L 451.605294 233.241149 
L 452.162868 234.104497 
L 466.086769 259.926706 
L 466.292972 260.942428 
L 466.236659 262.011869 
L 465.134073 267.525762 
L 464.475357 278.674461 
L 464.116287 285.477277 
L 464.274406 286.581313 
L 467.97576 299.024249 
L 468.043589 299.936414 
L 467.938771 300.864881 
L 466.553835 305.484403 
L 465.08379 310.395078 
L 465.072038 311.722688 
L 465.405452 312.92163 
L 471.760262 327.407002 
L 472.534498 329.068037 
L 472.687075 329.884174 
L 473.18174 341.677799 
L 473.40923 343.299707 
L 476.235821 356.547026 
L 476.28527 357.343314 
L 475.979959 364.74054 
L 475.893578 365.436363 
L 475.634103 366.236281 
L 474.26282 368.197035 
L 470.384373 373.513452 
L 470.083339 374.30684 
L 470.004362 375.346519 
L 470.689542 378.177576 
L 472.07946 383.524241 
L 472.091136 384.403644 
L 470.49844 389.272023 
L 469.494172 392.406128 
L 469.460159 392.966998 
L 469.770667 394.462083 
L 472.773141 405.360501 
L 472.665123 406.177946 
L 467.942396 422.149705 
L 467.945015 422.941762 
L 468.102933 423.747071 
L 473.466511 438.972595 
L 473.650488 443.506935 
L 474.556303 466.941271 
L 474.803239 474.898205 
L 474.600749 475.71729 
L 471.46966 481.982454 
L 466.044546 493.078311 
L 465.092106 497.60404 
L 461.250981 516.169073 
L 460.92336 517.121078 
L 457.009194 525.1988 
L 456.793122 526.409053 
L 456.876782 531.450755 
L 457.05734 537.665548 
L 457.436998 538.791243 
L 459.477587 541.622946 
L 469.531696 555.628745 
L 469.679737 556.274227 
L 469.692686 556.924244 
L 469.55314 557.667572 
L 468.84017 559.357053 
L 462.564723 573.472019 
L 462.260922 574.407006 
L 462.140948 575.348062 
L 462.138026 588.14294 
L 461.940186 589.340053 
L 456.614657 609.815345 
L 455.147669 612.428232 
L 452.661793 616.679043 
L 450.384223 621.209808 
L 442.246037 638.943772 
L 441.726419 640.275491 
L 441.698753 641.957873 
L 442.0891 652.169958 
L 440.640883 667.262148 
L 440.640883 667.262148 
" clip-path="url(#p4e096d25d7)" style="fill: none; stroke: #000000"/>
   </g>
   <g id="matplotlib.axis_1">
    <g id="xtick_1">
     <g id="line2d_1">
      <path d="M 261.168411 768.96 
L 261.168411 103.68 
" clip-path="url(#p4e096d25d7)" style="fill: none; stroke: #b0b0b0; stroke-width: 0.8; stroke-linecap: square"/>
     </g>
     <g id="line2d_2">
      <defs>
       <path id="m6239283263" d="M 0 0 
L 0 3.5 
" style="stroke: #000000; stroke-width: 0.8"/>
      </defs>
      <g>
       <use xlink:href="#m6239283263" x="261.168411" y="768.96" style="stroke: #000000; stroke-width: 0.8"/>
      </g>
     </g>
     <g id="text_1">
      <!-- −49.25 -->
      <g transform="translate(250.035347 807.501382) rotate(-45) scale(0.1 -0.1)">
       <defs>
        <path id="DejaVuSans-2212" d="M 678 2272 
L 4684 2272 
L 4684 1741 
L 678 1741 
L 678 2272 
z
" transform="scale(0.015625)"/>
        <path id="DejaVuSans-34" d="M 2419 4116 
L 825 1625 
L 2419 1625 
L 2419 4116 
z
M 2253 4666 
L 3047 4666 
L 3047 1625 
L 3713 1625 
L 3713 1100 
L 3047 1100 
L 3047 0 
L 2419 0 
L 2419 1100 
L 313 1100 
L 313 1709 
L 2253 4666 
z
" transform="scale(0.015625)"/>
        <path id="DejaVuSans-39" d="M 703 97 
L 703 672 
Q 941 559 1184 500 
Q 1428 441 1663 441 
Q 2288 441 2617 861 
Q 2947 1281 2994 2138 
Q 2813 1869 2534 1725 
Q 2256 1581 1919 1581 
Q 1219 1581 811 2004 
Q 403 2428 403 3163 
Q 403 3881 828 4315 
Q 1253 4750 1959 4750 
Q 2769 4750 3195 4129 
Q 3622 3509 3622 2328 
Q 3622 1225 3098 567 
Q 2575 -91 1691 -91 
Q 1453 -91 1209 -44 
Q 966 3 703 97 
z
M 1959 2075 
Q 2384 2075 2632 2365 
Q 2881 2656 2881 3163 
Q 2881 3666 2632 3958 
Q 2384 4250 1959 4250 
Q 1534 4250 1286 3958 
Q 1038 3666 1038 3163 
Q 1038 2656 1286 2365 
Q 1534 2075 1959 2075 
z
" transform="scale(0.015625)"/>
        <path id="DejaVuSans-2e" d="M 684 794 
L 1344 794 
L 1344 0 
L 684 0 
L 684 794 
z
" transform="scale(0.015625)"/>
        <path id="DejaVuSans-32" d="M 1228 531 
L 3431 531 
L 3431 0 
L 469 0 
L 469 531 
Q 828 903 1448 1529 
Q 2069 2156 2228 2338 
Q 2531 2678 2651 2914 
Q 2772 3150 2772 3378 
Q 2772 3750 2511 3984 
Q 2250 4219 1831 4219 
Q 1534 4219 1204 4116 
Q 875 4013 500 3803 
L 500 4441 
Q 881 4594 1212 4672 
Q 1544 4750 1819 4750 
Q 2544 4750 2975 4387 
Q 3406 4025 3406 3419 
Q 3406 3131 3298 2873 
Q 3191 2616 2906 2266 
Q 2828 2175 2409 1742 
Q 1991 1309 1228 531 
z
" transform="scale(0.015625)"/>
        <path id="DejaVuSans-35" d="M 691 4666 
L 3169 4666 
L 3169 4134 
L 1269 4134 
L 1269 2991 
Q 1406 3038 1543 3061 
Q 1681 3084 1819 3084 
Q 2600 3084 3056 2656 
Q 3513 2228 3513 1497 
Q 3513 744 3044 326 
Q 2575 -91 1722 -91 
Q 1428 -91 1123 -41 
Q 819 9 494 109 
L 494 744 
Q 775 591 1075 516 
Q 1375 441 1709 441 
Q 2250 441 2565 725 
Q 2881 1009 2881 1497 
Q 2881 1984 2565 2268 
Q 2250 2553 1709 2553 
Q 1456 2553 1204 2497 
Q 953 2441 691 2322 
L 691 4666 
z
" transform="scale(0.015625)"/>
       </defs>
       <use xlink:href="#DejaVuSans-2212"/>
       <use xlink:href="#DejaVuSans-34" transform="translate(83.789062 0)"/>
       <use xlink:href="#DejaVuSans-39" transform="translate(147.412109 0)"/>
       <use xlink:href="#DejaVuSans-2e" transform="translate(211.035156 0)"/>
       <use xlink:href="#DejaVuSans-32" transform="translate(242.822266 0)"/>
       <use xlink:href="#DejaVuSans-35" transform="translate(306.445312 0)"/>
      </g>
     </g>
    </g>
    <g id="xtick_2">
     <g id="line2d_3">
      <path d="M 313.494043 768.96 
L 313.494043 103.68 
" clip-path="url(#p4e096d25d7)" style="fill: none; stroke: #b0b0b0; stroke-width: 0.8; stroke-linecap: square"/>
     </g>
     <g id="line2d_4">
      <g>
       <use xlink:href="#m6239283263" x="313.494043" y="768.96" style="stroke: #000000; stroke-width: 0.8"/>
      </g>
     </g>
     <g id="text_2">
      <!-- −49.20 -->
      <g transform="translate(302.360979 807.501382) rotate(-45) scale(0.1 -0.1)">
       <defs>
        <path id="DejaVuSans-30" d="M 2034 4250 
Q 1547 4250 1301 3770 
Q 1056 3291 1056 2328 
Q 1056 1369 1301 889 
Q 1547 409 2034 409 
Q 2525 409 2770 889 
Q 3016 1369 3016 2328 
Q 3016 3291 2770 3770 
Q 2525 4250 2034 4250 
z
M 2034 4750 
Q 2819 4750 3233 4129 
Q 3647 3509 3647 2328 
Q 3647 1150 3233 529 
Q 2819 -91 2034 -91 
Q 1250 -91 836 529 
Q 422 1150 422 2328 
Q 422 3509 836 4129 
Q 1250 4750 2034 4750 
z
" transform="scale(0.015625)"/>
       </defs>
       <use xlink:href="#DejaVuSans-2212"/>
       <use xlink:href="#DejaVuSans-34" transform="translate(83.789062 0)"/>
       <use xlink:href="#DejaVuSans-39" transform="translate(147.412109 0)"/>
       <use xlink:href="#DejaVuSans-2e" transform="translate(211.035156 0)"/>
       <use xlink:href="#DejaVuSans-32" transform="translate(242.822266 0)"/>
       <use xlink:href="#DejaVuSans-30" transform="translate(306.445312 0)"/>
      </g>
     </g>
    </g>
    <g id="xtick_3">
     <g id="line2d_5">
      <path d="M 365.819675 768.96 
L 365.819675 103.68 
" clip-path="url(#p4e096d25d7)" style="fill: none; stroke: #b0b0b0; stroke-width: 0.8; stroke-linecap: square"/>
     </g>
     <g id="line2d_6">
      <g>
       <use xlink:href="#m6239283263" x="365.819675" y="768.96" style="stroke: #000000; stroke-width: 0.8"/>
      </g>
     </g>
     <g id="text_3">
      <!-- −49.15 -->
      <g transform="translate(354.686611 807.501382) rotate(-45) scale(0.1 -0.1)">
       <defs>
        <path id="DejaVuSans-31" d="M 794 531 
L 1825 531 
L 1825 4091 
L 703 3866 
L 703 4441 
L 1819 4666 
L 2450 4666 
L 2450 531 
L 3481 531 
L 3481 0 
L 794 0 
L 794 531 
z
" transform="scale(0.015625)"/>
       </defs>
       <use xlink:href="#DejaVuSans-2212"/>
       <use xlink:href="#DejaVuSans-34" transform="translate(83.789062 0)"/>
       <use xlink:href="#DejaVuSans-39" transform="translate(147.412109 0)"/>
       <use xlink:href="#DejaVuSans-2e" transform="translate(211.035156 0)"/>
       <use xlink:href="#DejaVuSans-31" transform="translate(242.822266 0)"/>
       <use xlink:href="#DejaVuSans-35" transform="translate(306.445312 0)"/>
      </g>
     </g>
    </g>
    <g id="xtick_4">
     <g id="line2d_7">
      <path d="M 418.145307 768.96 
L 418.145307 103.68 
" clip-path="url(#p4e096d25d7)" style="fill: none; stroke: #b0b0b0; stroke-width: 0.8; stroke-linecap: square"/>
     </g>
     <g id="line2d_8">
      <g>
       <use xlink:href="#m6239283263" x="418.145307" y="768.96" style="stroke: #000000; stroke-width: 0.8"/>
      </g>
     </g>
     <g id="text_4">
      <!-- −49.10 -->
      <g transform="translate(407.012243 807.501382) rotate(-45) scale(0.1 -0.1)">
       <use xlink:href="#DejaVuSans-2212"/>
       <use xlink:href="#DejaVuSans-34" transform="translate(83.789062 0)"/>
       <use xlink:href="#DejaVuSans-39" transform="translate(147.412109 0)"/>
       <use xlink:href="#DejaVuSans-2e" transform="translate(211.035156 0)"/>
       <use xlink:href="#DejaVuSans-31" transform="translate(242.822266 0)"/>
       <use xlink:href="#DejaVuSans-30" transform="translate(306.445312 0)"/>
      </g>
     </g>
    </g>
    <g id="xtick_5">
     <g id="line2d_9">
      <path d="M 470.470939 768.96 
L 470.470939 103.68 
" clip-path="url(#p4e096d25d7)" style="fill: none; stroke: #b0b0b0; stroke-width: 0.8; stroke-linecap: square"/>
     </g>
     <g id="line2d_10">
      <g>
       <use xlink:href="#m6239283263" x="470.470939" y="768.96" style="stroke: #000000; stroke-width: 0.8"/>
      </g>
     </g>
     <g id="text_5">
      <!-- −49.05 -->
      <g transform="translate(459.337875 807.501382) rotate(-45) scale(0.1 -0.1)">
       <use xlink:href="#DejaVuSans-2212"/>
       <use xlink:href="#DejaVuSans-34" transform="translate(83.789062 0)"/>
       <use xlink:href="#DejaVuSans-39" transform="translate(147.412109 0)"/>
       <use xlink:href="#DejaVuSans-2e" transform="translate(211.035156 0)"/>
       <use xlink:href="#DejaVuSans-30" transform="translate(242.822266 0)"/>
       <use xlink:href="#DejaVuSans-35" transform="translate(306.445312 0)"/>
      </g>
     </g>
    </g>
    <g id="text_6">
     <!-- Longitude (°) -->
     <g transform="translate(336.139844 820.57038) scale(0.1 -0.1)">
      <defs>
       <path id="DejaVuSans-4c" d="M 628 4666 
L 1259 4666 
L 1259 531 
L 3531 531 
L 3531 0 
L 628 0 
L 628 4666 
z
" transform="scale(0.015625)"/>
       <path id="DejaVuSans-6f" d="M 1959 3097 
Q 1497 3097 1228 2736 
Q 959 2375 959 1747 
Q 959 1119 1226 758 
Q 1494 397 1959 397 
Q 2419 397 2687 759 
Q 2956 1122 2956 1747 
Q 2956 2369 2687 2733 
Q 2419 3097 1959 3097 
z
M 1959 3584 
Q 2709 3584 3137 3096 
Q 3566 2609 3566 1747 
Q 3566 888 3137 398 
Q 2709 -91 1959 -91 
Q 1206 -91 779 398 
Q 353 888 353 1747 
Q 353 2609 779 3096 
Q 1206 3584 1959 3584 
z
" transform="scale(0.015625)"/>
       <path id="DejaVuSans-6e" d="M 3513 2113 
L 3513 0 
L 2938 0 
L 2938 2094 
Q 2938 2591 2744 2837 
Q 2550 3084 2163 3084 
Q 1697 3084 1428 2787 
Q 1159 2491 1159 1978 
L 1159 0 
L 581 0 
L 581 3500 
L 1159 3500 
L 1159 2956 
Q 1366 3272 1645 3428 
Q 1925 3584 2291 3584 
Q 2894 3584 3203 3211 
Q 3513 2838 3513 2113 
z
" transform="scale(0.015625)"/>
       <path id="DejaVuSans-67" d="M 2906 1791 
Q 2906 2416 2648 2759 
Q 2391 3103 1925 3103 
Q 1463 3103 1205 2759 
Q 947 2416 947 1791 
Q 947 1169 1205 825 
Q 1463 481 1925 481 
Q 2391 481 2648 825 
Q 2906 1169 2906 1791 
z
M 3481 434 
Q 3481 -459 3084 -895 
Q 2688 -1331 1869 -1331 
Q 1566 -1331 1297 -1286 
Q 1028 -1241 775 -1147 
L 775 -588 
Q 1028 -725 1275 -790 
Q 1522 -856 1778 -856 
Q 2344 -856 2625 -561 
Q 2906 -266 2906 331 
L 2906 616 
Q 2728 306 2450 153 
Q 2172 0 1784 0 
Q 1141 0 747 490 
Q 353 981 353 1791 
Q 353 2603 747 3093 
Q 1141 3584 1784 3584 
Q 2172 3584 2450 3431 
Q 2728 3278 2906 2969 
L 2906 3500 
L 3481 3500 
L 3481 434 
z
" transform="scale(0.015625)"/>
       <path id="DejaVuSans-69" d="M 603 3500 
L 1178 3500 
L 1178 0 
L 603 0 
L 603 3500 
z
M 603 4863 
L 1178 4863 
L 1178 4134 
L 603 4134 
L 603 4863 
z
" transform="scale(0.015625)"/>
       <path id="DejaVuSans-74" d="M 1172 4494 
L 1172 3500 
L 2356 3500 
L 2356 3053 
L 1172 3053 
L 1172 1153 
Q 1172 725 1289 603 
Q 1406 481 1766 481 
L 2356 481 
L 2356 0 
L 1766 0 
Q 1100 0 847 248 
Q 594 497 594 1153 
L 594 3053 
L 172 3053 
L 172 3500 
L 594 3500 
L 594 4494 
L 1172 4494 
z
" transform="scale(0.015625)"/>
       <path id="DejaVuSans-75" d="M 544 1381 
L 544 3500 
L 1119 3500 
L 1119 1403 
Q 1119 906 1312 657 
Q 1506 409 1894 409 
Q 2359 409 2629 706 
Q 2900 1003 2900 1516 
L 2900 3500 
L 3475 3500 
L 3475 0 
L 2900 0 
L 2900 538 
Q 2691 219 2414 64 
Q 2138 -91 1772 -91 
Q 1169 -91 856 284 
Q 544 659 544 1381 
z
M 1991 3584 
L 1991 3584 
z
" transform="scale(0.015625)"/>
       <path id="DejaVuSans-64" d="M 2906 2969 
L 2906 4863 
L 3481 4863 
L 3481 0 
L 2906 0 
L 2906 525 
Q 2725 213 2448 61 
Q 2172 -91 1784 -91 
Q 1150 -91 751 415 
Q 353 922 353 1747 
Q 353 2572 751 3078 
Q 1150 3584 1784 3584 
Q 2172 3584 2448 3432 
Q 2725 3281 2906 2969 
z
M 947 1747 
Q 947 1113 1208 752 
Q 1469 391 1925 391 
Q 2381 391 2643 752 
Q 2906 1113 2906 1747 
Q 2906 2381 2643 2742 
Q 2381 3103 1925 3103 
Q 1469 3103 1208 2742 
Q 947 2381 947 1747 
z
" transform="scale(0.015625)"/>
       <path id="DejaVuSans-65" d="M 3597 1894 
L 3597 1613 
L 953 1613 
Q 991 1019 1311 708 
Q 1631 397 2203 397 
Q 2534 397 2845 478 
Q 3156 559 3463 722 
L 3463 178 
Q 3153 47 2828 -22 
Q 2503 -91 2169 -91 
Q 1331 -91 842 396 
Q 353 884 353 1716 
Q 353 2575 817 3079 
Q 1281 3584 2069 3584 
Q 2775 3584 3186 3129 
Q 3597 2675 3597 1894 
z
M 3022 2063 
Q 3016 2534 2758 2815 
Q 2500 3097 2075 3097 
Q 1594 3097 1305 2825 
Q 1016 2553 972 2059 
L 3022 2063 
z
" transform="scale(0.015625)"/>
       <path id="DejaVuSans-20" transform="scale(0.015625)"/>
       <path id="DejaVuSans-28" d="M 1984 4856 
Q 1566 4138 1362 3434 
Q 1159 2731 1159 2009 
Q 1159 1288 1364 580 
Q 1569 -128 1984 -844 
L 1484 -844 
Q 1016 -109 783 600 
Q 550 1309 550 2009 
Q 550 2706 781 3412 
Q 1013 4119 1484 4856 
L 1984 4856 
z
" transform="scale(0.015625)"/>
       <path id="DejaVuSans-b0" d="M 1600 4347 
Q 1350 4347 1178 4173 
Q 1006 4000 1006 3750 
Q 1006 3503 1178 3333 
Q 1350 3163 1600 3163 
Q 1850 3163 2022 3333 
Q 2194 3503 2194 3750 
Q 2194 3997 2020 4172 
Q 1847 4347 1600 4347 
z
M 1600 4750 
Q 1800 4750 1984 4673 
Q 2169 4597 2303 4453 
Q 2447 4313 2519 4134 
Q 2591 3956 2591 3750 
Q 2591 3338 2302 3052 
Q 2013 2766 1594 2766 
Q 1172 2766 890 3047 
Q 609 3328 609 3750 
Q 609 4169 896 4459 
Q 1184 4750 1600 4750 
z
" transform="scale(0.015625)"/>
       <path id="DejaVuSans-29" d="M 513 4856 
L 1013 4856 
Q 1481 4119 1714 3412 
Q 1947 2706 1947 2009 
Q 1947 1309 1714 600 
Q 1481 -109 1013 -844 
L 513 -844 
Q 928 -128 1133 580 
Q 1338 1288 1338 2009 
Q 1338 2731 1133 3434 
Q 928 4138 513 4856 
z
" transform="scale(0.015625)"/>
      </defs>
      <use xlink:href="#DejaVuSans-4c"/>
      <use xlink:href="#DejaVuSans-6f" transform="translate(53.962891 0)"/>
      <use xlink:href="#DejaVuSans-6e" transform="translate(115.144531 0)"/>
      <use xlink:href="#DejaVuSans-67" transform="translate(178.523438 0)"/>
      <use xlink:href="#DejaVuSans-69" transform="translate(242 0)"/>
      <use xlink:href="#DejaVuSans-74" transform="translate(269.783203 0)"/>
      <use xlink:href="#DejaVuSans-75" transform="translate(308.992188 0)"/>
      <use xlink:href="#DejaVuSans-64" transform="translate(372.371094 0)"/>
      <use xlink:href="#DejaVuSans-65" transform="translate(435.847656 0)"/>
      <use xlink:href="#DejaVuSans-20" transform="translate(497.371094 0)"/>
      <use xlink:href="#DejaVuSans-28" transform="translate(529.158203 0)"/>
      <use xlink:href="#DejaVuSans-b0" transform="translate(568.171875 0)"/>
      <use xlink:href="#DejaVuSans-29" transform="translate(618.171875 0)"/>
     </g>
    </g>
   </g>
   <g id="matplotlib.axis_2">
    <g id="ytick_1">
     <g id="line2d_11">
      <path d="M 250.986203 749.768367 
L 487.013797 749.768367 
" clip-path="url(#p4e096d25d7)" style="fill: none; stroke: #b0b0b0; stroke-width: 0.8; stroke-linecap: square"/>
     </g>
     <g id="line2d_12">
      <defs>
       <path id="mb1440dea85" d="M 0 0 
L -3.5 0 
" style="stroke: #000000; stroke-width: 0.8"/>
      </defs>
      <g>
       <use xlink:href="#mb1440dea85" x="250.986203" y="749.768367" style="stroke: #000000; stroke-width: 0.8"/>
      </g>
     </g>
     <g id="text_7">
      <!-- −4.4 -->
      <g transform="translate(219.70339 753.567586) scale(0.1 -0.1)">
       <use xlink:href="#DejaVuSans-2212"/>
       <use xlink:href="#DejaVuSans-34" transform="translate(83.789062 0)"/>
       <use xlink:href="#DejaVuSans-2e" transform="translate(147.412109 0)"/>
       <use xlink:href="#DejaVuSans-34" transform="translate(179.199219 0)"/>
      </g>
     </g>
    </g>
    <g id="ytick_2">
     <g id="line2d_13">
      <path d="M 250.986203 644.852635 
L 487.013797 644.852635 
" clip-path="url(#p4e096d25d7)" style="fill: none; stroke: #b0b0b0; stroke-width: 0.8; stroke-linecap: square"/>
     </g>
     <g id="line2d_14">
      <g>
       <use xlink:href="#mb1440dea85" x="250.986203" y="644.852635" style="stroke: #000000; stroke-width: 0.8"/>
      </g>
     </g>
     <g id="text_8">
      <!-- −4.3 -->
      <g transform="translate(219.70339 648.651854) scale(0.1 -0.1)">
       <defs>
        <path id="DejaVuSans-33" d="M 2597 2516 
Q 3050 2419 3304 2112 
Q 3559 1806 3559 1356 
Q 3559 666 3084 287 
Q 2609 -91 1734 -91 
Q 1441 -91 1130 -33 
Q 819 25 488 141 
L 488 750 
Q 750 597 1062 519 
Q 1375 441 1716 441 
Q 2309 441 2620 675 
Q 2931 909 2931 1356 
Q 2931 1769 2642 2001 
Q 2353 2234 1838 2234 
L 1294 2234 
L 1294 2753 
L 1863 2753 
Q 2328 2753 2575 2939 
Q 2822 3125 2822 3475 
Q 2822 3834 2567 4026 
Q 2313 4219 1838 4219 
Q 1578 4219 1281 4162 
Q 984 4106 628 3988 
L 628 4550 
Q 988 4650 1302 4700 
Q 1616 4750 1894 4750 
Q 2613 4750 3031 4423 
Q 3450 4097 3450 3541 
Q 3450 3153 3228 2886 
Q 3006 2619 2597 2516 
z
" transform="scale(0.015625)"/>
       </defs>
       <use xlink:href="#DejaVuSans-2212"/>
       <use xlink:href="#DejaVuSans-34" transform="translate(83.789062 0)"/>
       <use xlink:href="#DejaVuSans-2e" transform="translate(147.412109 0)"/>
       <use xlink:href="#DejaVuSans-33" transform="translate(179.199219 0)"/>
      </g>
     </g>
    </g>
    <g id="ytick_3">
     <g id="line2d_15">
      <path d="M 250.986203 539.936903 
L 487.013797 539.936903 
" clip-path="url(#p4e096d25d7)" style="fill: none; stroke: #b0b0b0; stroke-width: 0.8; stroke-linecap: square"/>
     </g>
     <g id="line2d_16">
      <g>
       <use xlink:href="#mb1440dea85" x="250.986203" y="539.936903" style="stroke: #000000; stroke-width: 0.8"/>
      </g>
     </g>
     <g id="text_9">
      <!-- −4.2 -->
      <g transform="translate(219.70339 543.736122) scale(0.1 -0.1)">
       <use xlink:href="#DejaVuSans-2212"/>
       <use xlink:href="#DejaVuSans-34" transform="translate(83.789062 0)"/>
       <use xlink:href="#DejaVuSans-2e" transform="translate(147.412109 0)"/>
       <use xlink:href="#DejaVuSans-32" transform="translate(179.199219 0)"/>
      </g>
     </g>
    </g>
    <g id="ytick_4">
     <g id="line2d_17">
      <path d="M 250.986203 435.021171 
L 487.013797 435.021171 
" clip-path="url(#p4e096d25d7)" style="fill: none; stroke: #b0b0b0; stroke-width: 0.8; stroke-linecap: square"/>
     </g>
     <g id="line2d_18">
      <g>
       <use xlink:href="#mb1440dea85" x="250.986203" y="435.021171" style="stroke: #000000; stroke-width: 0.8"/>
      </g>
     </g>
     <g id="text_10">
      <!-- −4.1 -->
      <g transform="translate(219.70339 438.82039) scale(0.1 -0.1)">
       <use xlink:href="#DejaVuSans-2212"/>
       <use xlink:href="#DejaVuSans-34" transform="translate(83.789062 0)"/>
       <use xlink:href="#DejaVuSans-2e" transform="translate(147.412109 0)"/>
       <use xlink:href="#DejaVuSans-31" transform="translate(179.199219 0)"/>
      </g>
     </g>
    </g>
    <g id="ytick_5">
     <g id="line2d_19">
      <path d="M 250.986203 330.105439 
L 487.013797 330.105439 
" clip-path="url(#p4e096d25d7)" style="fill: none; stroke: #b0b0b0; stroke-width: 0.8; stroke-linecap: square"/>
     </g>
     <g id="line2d_20">
      <g>
       <use xlink:href="#mb1440dea85" x="250.986203" y="330.105439" style="stroke: #000000; stroke-width: 0.8"/>
      </g>
     </g>
     <g id="text_11">
      <!-- −4.0 -->
      <g transform="translate(219.70339 333.904658) scale(0.1 -0.1)">
       <use xlink:href="#DejaVuSans-2212"/>
       <use xlink:href="#DejaVuSans-34" transform="translate(83.789062 0)"/>
       <use xlink:href="#DejaVuSans-2e" transform="translate(147.412109 0)"/>
       <use xlink:href="#DejaVuSans-30" transform="translate(179.199219 0)"/>
      </g>
     </g>
    </g>
    <g id="ytick_6">
     <g id="line2d_21">
      <path d="M 250.986203 225.189707 
L 487.013797 225.189707 
" clip-path="url(#p4e096d25d7)" style="fill: none; stroke: #b0b0b0; stroke-width: 0.8; stroke-linecap: square"/>
     </g>
     <g id="line2d_22">
      <g>
       <use xlink:href="#mb1440dea85" x="250.986203" y="225.189707" style="stroke: #000000; stroke-width: 0.8"/>
      </g>
     </g>
     <g id="text_12">
      <!-- −3.9 -->
      <g transform="translate(219.70339 228.988926) scale(0.1 -0.1)">
       <use xlink:href="#DejaVuSans-2212"/>
       <use xlink:href="#DejaVuSans-33" transform="translate(83.789062 0)"/>
       <use xlink:href="#DejaVuSans-2e" transform="translate(147.412109 0)"/>
       <use xlink:href="#DejaVuSans-39" transform="translate(179.199219 0)"/>
      </g>
     </g>
    </g>
    <g id="ytick_7">
     <g id="line2d_23">
      <path d="M 250.986203 120.273975 
L 487.013797 120.273975 
" clip-path="url(#p4e096d25d7)" style="fill: none; stroke: #b0b0b0; stroke-width: 0.8; stroke-linecap: square"/>
     </g>
     <g id="line2d_24">
      <g>
       <use xlink:href="#mb1440dea85" x="250.986203" y="120.273975" style="stroke: #000000; stroke-width: 0.8"/>
      </g>
     </g>
     <g id="text_13">
      <!-- −3.8 -->
      <g transform="translate(219.70339 124.073194) scale(0.1 -0.1)">
       <defs>
        <path id="DejaVuSans-38" d="M 2034 2216 
Q 1584 2216 1326 1975 
Q 1069 1734 1069 1313 
Q 1069 891 1326 650 
Q 1584 409 2034 409 
Q 2484 409 2743 651 
Q 3003 894 3003 1313 
Q 3003 1734 2745 1975 
Q 2488 2216 2034 2216 
z
M 1403 2484 
Q 997 2584 770 2862 
Q 544 3141 544 3541 
Q 544 4100 942 4425 
Q 1341 4750 2034 4750 
Q 2731 4750 3128 4425 
Q 3525 4100 3525 3541 
Q 3525 3141 3298 2862 
Q 3072 2584 2669 2484 
Q 3125 2378 3379 2068 
Q 3634 1759 3634 1313 
Q 3634 634 3220 271 
Q 2806 -91 2034 -91 
Q 1263 -91 848 271 
Q 434 634 434 1313 
Q 434 1759 690 2068 
Q 947 2378 1403 2484 
z
M 1172 3481 
Q 1172 3119 1398 2916 
Q 1625 2713 2034 2713 
Q 2441 2713 2670 2916 
Q 2900 3119 2900 3481 
Q 2900 3844 2670 4047 
Q 2441 4250 2034 4250 
Q 1625 4250 1398 4047 
Q 1172 3844 1172 3481 
z
" transform="scale(0.015625)"/>
       </defs>
       <use xlink:href="#DejaVuSans-2212"/>
       <use xlink:href="#DejaVuSans-33" transform="translate(83.789062 0)"/>
       <use xlink:href="#DejaVuSans-2e" transform="translate(147.412109 0)"/>
       <use xlink:href="#DejaVuSans-38" transform="translate(179.199219 0)"/>
      </g>
     </g>
    </g>
    <g id="text_14">
     <!-- Latitude (°) -->
     <g transform="translate(213.623703 464.889531) rotate(-90) scale(0.1 -0.1)">
      <defs>
       <path id="DejaVuSans-61" d="M 2194 1759 
Q 1497 1759 1228 1600 
Q 959 1441 959 1056 
Q 959 750 1161 570 
Q 1363 391 1709 391 
Q 2188 391 2477 730 
Q 2766 1069 2766 1631 
L 2766 1759 
L 2194 1759 
z
M 3341 1997 
L 3341 0 
L 2766 0 
L 2766 531 
Q 2569 213 2275 61 
Q 1981 -91 1556 -91 
Q 1019 -91 701 211 
Q 384 513 384 1019 
Q 384 1609 779 1909 
Q 1175 2209 1959 2209 
L 2766 2209 
L 2766 2266 
Q 2766 2663 2505 2880 
Q 2244 3097 1772 3097 
Q 1472 3097 1187 3025 
Q 903 2953 641 2809 
L 641 3341 
Q 956 3463 1253 3523 
Q 1550 3584 1831 3584 
Q 2591 3584 2966 3190 
Q 3341 2797 3341 1997 
z
" transform="scale(0.015625)"/>
      </defs>
      <use xlink:href="#DejaVuSans-4c"/>
      <use xlink:href="#DejaVuSans-61" transform="translate(55.712891 0)"/>
      <use xlink:href="#DejaVuSans-74" transform="translate(116.992188 0)"/>
      <use xlink:href="#DejaVuSans-69" transform="translate(156.201172 0)"/>
      <use xlink:href="#DejaVuSans-74" transform="translate(183.984375 0)"/>
      <use xlink:href="#DejaVuSans-75" transform="translate(223.193359 0)"/>
      <use xlink:href="#DejaVuSans-64" transform="translate(286.572266 0)"/>
      <use xlink:href="#DejaVuSans-65" transform="translate(350.048828 0)"/>
      <use xlink:href="#DejaVuSans-20" transform="translate(411.572266 0)"/>
      <use xlink:href="#DejaVuSans-28" transform="translate(443.359375 0)"/>
      <use xlink:href="#DejaVuSans-b0" transform="translate(482.373047 0)"/>
      <use xlink:href="#DejaVuSans-29" transform="translate(532.373047 0)"/>
     </g>
    </g>
   </g>
   <g id="patch_3">
    <path d="M 250.986203 768.96 
L 250.986203 103.68 
" style="fill: none; stroke: #000000; stroke-width: 0.8; stroke-linejoin: miter; stroke-linecap: square"/>
   </g>
   <g id="patch_4">
    <path d="M 487.013797 768.96 
L 487.013797 103.68 
" style="fill: none; stroke: #000000; stroke-width: 0.8; stroke-linejoin: miter; stroke-linecap: square"/>
   </g>
   <g id="patch_5">
    <path d="M 250.986203 768.96 
L 487.013797 768.96 
" style="fill: none; stroke: #000000; stroke-width: 0.8; stroke-linejoin: miter; stroke-linecap: square"/>
   </g>
   <g id="patch_6">
    <path d="M 250.986203 103.68 
L 487.013797 103.68 
" style="fill: none; stroke: #000000; stroke-width: 0.8; stroke-linejoin: miter; stroke-linecap: square"/>
   </g>
  </g>
 </g>
 <defs>
  <clipPath id="p4e096d25d7">
   <rect x="250.986203" y="103.68" width="236.027594" height="665.28"/>
  </clipPath>
 </defs>
</svg>
