<?xml version="1.0" encoding="utf-8" standalone="no"?>
<!DOCTYPE svg PUBLIC "-//W3C//DTD SVG 1.1//EN"
  "http://www.w3.org/Graphics/SVG/1.1/DTD/svg11.dtd">
<svg xmlns:xlink="http://www.w3.org/1999/xlink" width="720pt" height="864pt" viewBox="0 0 720 864" xmlns="http://www.w3.org/2000/svg" version="1.1">
 <metadata>
  <rdf:RDF xmlns:dc="http://purl.org/dc/elements/1.1/" xmlns:cc="http://creativecommons.org/ns#" xmlns:rdf="http://www.w3.org/1999/02/22-rdf-syntax-ns#">
   <cc:Work>
    <dc:type rdf:resource="http://purl.org/dc/dcmitype/StillImage"/>
    <dc:date>2025-06-16T16:54:50.058191</dc:date>
    <dc:format>image/svg+xml</dc:format>
    <dc:creator>
     <cc:Agent>
      <dc:title>Matplotlib v3.10.1, https://matplotlib.org/</dc:title>
     </cc:Agent>
    </dc:creator>
   </cc:Work>
  </rdf:RDF>
 </metadata>
 <defs>
  <style type="text/css">*{stroke-linejoin: round; stroke-linecap: butt}</style>
 </defs>
 <g id="figure_1">
  <g id="patch_1">
   <path d="M 0 864 
L 720 864 
L 720 0 
L 0 0 
z
" style="fill: #ffffff"/>
  </g>
  <g id="axes_1">
   <g id="patch_2">
    <path d="M 90 695.834585 
L 648 695.834585 
L 648 176.805415 
L 90 176.805415 
z
" style="fill: #ffffff"/>
   </g>
   <g id="PatchCollection_1">
    <path d="M 424.084622 359.284435 
L 459.406059 391.263011 
L 459.205401 391.62947 
L 458.534258 392.75784 
L 457.591561 394.128916 
L 457.234465 394.643031 
L 456.848948 394.714461 
L 456.391951 394.485898 
L 455.677752 394.557323 
L 454.949341 394.885879 
L 454.449575 395.457135 
L 453.664042 395.885689 
L 453.60692 396.371236 
L 452.992759 396.871068 
L 452.5072 396.585511 
L 451.835916 396.256955 
L 451.535942 396.542654 
L 451.121864 396.542654 
L 450.736202 396.18553 
L 449.822066 395.928546 
L 448.665369 396.142673 
L 447.22276 396.499802 
L 446.908573 396.38552 
L 446.52291 396.428377 
L 446.265997 396.271239 
L 445.46611 396.656935 
L 444.666223 396.071248 
L 444.080774 395.971397 
L 444.037854 395.785691 
L 443.795148 395.757123 
L 443.709465 395.557133 
L 443.023828 395.557133 
L 442.252648 395.642841 
L 441.91976 395.474337 
L 441.584987 395.496203 
L 441.365769 395.202045 
L 441.031288 394.9834 
L 440.565882 394.81183 
L 440.254305 394.759937 
L 440.047556 394.543768 
L 439.973757 394.406602 
L 440.13078 394.345819 
L 440.446993 394.446977 
L 440.816417 394.126875 
L 440.429742 393.836804 
L 440.375804 393.695409 
L 440.513254 393.43303 
L 440.229951 393.030278 
L 439.859075 392.758428 
L 439.456448 392.526511 
L 439.070645 392.420395 
L 439.041938 392.198102 
L 439.203162 391.816924 
L 438.693244 391.521748 
L 438.600598 391.301932 
L 438.846061 390.663622 
L 438.792128 390.271801 
L 438.586824 389.817304 
L 437.863346 389.765704 
L 437.373732 389.685973 
L 436.977771 389.626643 
L 436.846125 389.414552 
L 436.971539 389.130454 
L 437.273256 388.920551 
L 437.211781 388.336905 
L 436.780735 387.994501 
L 436.347084 387.539127 
L 436.15092 387.026906 
L 435.992159 386.57722 
L 435.581558 386.403027 
L 435.219821 386.019229 
L 434.71208 385.533535 
L 434.584928 385.1818 
L 434.63944 384.604132 
L 434.685257 384.123543 
L 434.802262 383.267747 
L 434.456178 382.798089 
L 434.2416 382.249571 
L 433.612944 381.755716 
L 433.553932 381.263174 
L 433.724871 380.431286 
L 433.724871 379.621559 
L 433.5245 378.419717 
L 432.530187 378.071777 
L 431.688545 377.672961 
L 430.981163 376.877077 
L 430.430361 375.913271 
L 429.670346 374.963024 
L 428.719961 374.392786 
L 427.844971 373.998929 
L 427.531368 373.192844 
L 426.633616 372.389377 
L 425.915503 371.671189 
L 425.064434 371.492042 
L 424.687039 370.784349 
L 423.517294 370.784349 
L 422.924883 370.064995 
L 422.49369 369.250309 
L 421.410359 368.779193 
L 421.043111 368.3744 
L 420.801709 368.110856 
L 421.249281 367.616855 
L 421.528377 367.281592 
L 421.827772 366.894148 
L 422.095417 366.54679 
L 422.494562 366.030193 
L 422.750896 365.692889 
L 422.973017 365.336201 
L 423.197888 364.882432 
L 423.242687 364.353445 
L 423.183534 363.859444 
L 423.123223 363.140238 
L 423.05276 362.661543 
L 422.971858 362.214187 
L 422.908932 361.806477 
L 422.953444 361.445418 
L 423.125248 361.052285 
L 423.585002 360.187747 
L 423.814513 359.762258 
L 423.97936 359.469559 
L 424.084622 359.284435 
" clip-path="url(#p12b298dfd9)" style="fill: #e0bd1f; stroke: #0000ff; stroke-width: 0.5"/>
    <path d="M 390.984852 348.176243 
L 401.412591 360.259334 
L 400.30821 364.020632 
L 395.633975 358.656371 
L 391.381624 372.052721 
L 388.894201 372.252882 
L 388.870481 372.109878 
L 388.79313 371.838736 
L 388.724751 371.666956 
L 388.599843 371.383933 
L 388.455111 371.19131 
L 388.324151 370.958499 
L 388.267328 370.783791 
L 388.285743 370.251275 
L 388.346105 370.131546 
L 388.42764 370.045973 
L 389.169261 369.471395 
L 389.351172 369.240038 
L 389.526792 368.987975 
L 389.928224 368.131041 
L 389.967742 367.940842 
L 389.931828 367.710814 
L 389.874129 367.592924 
L 389.733358 367.436904 
L 393.417527 356.09772 
L 389.487349 351.540059 
L 390.984852 348.176243 
" clip-path="url(#p12b298dfd9)" style="fill: #e0bd1f; stroke: #0000ff; stroke-width: 0.5"/>
    <path d="M 394.684889 339.595659 
L 407.399696 349.509203 
L 405.327819 352.740498 
L 404.259296 354.711419 
L 402.747904 356.996019 
L 402.057558 358.203166 
L 401.412591 360.259334 
L 390.984852 348.176243 
L 394.684889 339.595659 
" clip-path="url(#p12b298dfd9)" style="fill: #e0bd1f; stroke: #0000ff; stroke-width: 0.5"/>
    <path d="M 395.633975 358.656371 
L 400.30821 364.020632 
L 398.841015 367.877726 
L 394.237213 363.056894 
L 395.633975 358.656371 
" clip-path="url(#p12b298dfd9)" style="fill: #e0bd1f; stroke: #0000ff; stroke-width: 0.5"/>
    <path d="M 400.660857 362.82066 
L 400.756071 362.876603 
L 408.828281 367.621526 
L 405.508106 373.494848 
L 405.106579 374.456 
L 402.343803 371.567474 
L 400.885434 370.64072 
L 391.381624 372.052721 
L 394.237213 363.056894 
L 398.841015 367.877726 
L 400.30821 364.020632 
L 400.660857 362.82066 
" clip-path="url(#p12b298dfd9)" style="fill: #e0bd1f; stroke: #0000ff; stroke-width: 0.5"/>
    <path d="M 357.895054 375.550413 
L 367.796036 381.748808 
L 362.51983 383.698483 
L 355.861935 379.377785 
L 357.895054 375.550413 
" clip-path="url(#p12b298dfd9)" style="fill: #e0bd1f; stroke: #0000ff; stroke-width: 0.5"/>
    <path d="M 520.972025 200.39765 
L 522.073757 202.033606 
L 527.003352 204.0956 
L 536.081013 207.440495 
L 538.036941 208.830817 
L 540.08348 211.737027 
L 540.620129 213.432175 
L 543.389617 215.97694 
L 543.927196 218.244342 
L 544.881964 220.230454 
L 546.796741 222.392714 
L 550.088197 223.478224 
L 554.307462 225.273994 
L 556.858471 225.856863 
L 564.775413 229.570818 
L 570.253923 233.619188 
L 571.330831 234.866569 
L 574.140303 236.905638 
L 577.866236 238.676148 
L 581.56365 239.752952 
L 584.420136 239.498923 
L 586.930203 238.860572 
L 591.121046 238.334647 
L 598.626747 239.065007 
L 602.689542 238.779766 
L 613.54822 240.620404 
L 619.045104 242.615719 
L 622.636364 242.394398 
L 622.254325 243.175972 
L 621.657354 244.377088 
L 620.884568 245.694991 
L 619.846298 247.56471 
L 619.229446 250.163791 
L 619.049415 251.295845 
L 618.908698 252.125003 
L 618.512133 253.264354 
L 618.354233 254.239478 
L 618.334347 256.444318 
L 618.103101 257.425006 
L 617.66888 258.057059 
L 617.314503 258.494424 
L 617.012712 258.961912 
L 616.830302 259.348189 
L 616.670456 259.760111 
L 616.927148 260.897271 
L 616.909842 261.293694 
L 616.656388 261.513548 
L 616.056281 262.17001 
L 615.3765 263.138885 
L 614.752598 263.861032 
L 614.427385 264.206408 
L 613.32494 264.52371 
L 612.256644 265.617795 
L 611.519599 266.630257 
L 610.691183 267.585465 
L 610.202643 267.833388 
L 609.525529 267.873666 
L 609.019302 267.598825 
L 608.545366 267.860282 
L 607.43959 268.557281 
L 606.134303 269.756221 
L 604.119107 271.46551 
L 601.783024 273.886956 
L 599.913706 276.538594 
L 598.014922 280.234326 
L 596.354751 283.255902 
L 595.428335 284.878115 
L 594.312977 286.260439 
L 593.849817 286.889586 
L 593.610374 287.432466 
L 593.126518 287.980567 
L 592.152926 289.771642 
L 591.49843 291.516713 
L 590.396278 295.695015 
L 589.591731 296.613094 
L 588.890639 298.579533 
L 588.274093 299.620766 
L 588.012033 300.190162 
L 587.613786 300.679203 
L 587.155534 301.159329 
L 586.82445 301.820301 
L 586.604484 302.307787 
L 586.129388 302.493486 
L 585.680432 302.561711 
L 585.310177 302.511212 
L 585.085348 301.997107 
L 584.350086 302.338252 
L 583.815606 302.502123 
L 583.183161 302.37071 
L 582.896393 302.166312 
L 582.507529 302.252466 
L 582.401852 302.540785 
L 582.239185 302.6708 
L 581.95437 302.813983 
L 581.45058 303.048505 
L 581.026804 303.177643 
L 580.847697 303.289134 
L 580.652007 303.231334 
L 579.927565 303.745316 
L 579.287233 304.538288 
L 579.09873 304.820429 
L 578.857152 304.869739 
L 578.698339 304.864321 
L 578.434128 305.072074 
L 578.329986 305.085109 
L 577.829865 304.72553 
L 576.790335 304.564173 
L 576.137297 304.641698 
L 575.404299 304.883988 
L 574.627081 305.419521 
L 573.882595 306.144387 
L 573.03996 306.939442 
L 572.087944 308.112241 
L 571.670309 308.999666 
L 571.030841 310.077585 
L 570.416716 311.034516 
L 569.866467 311.629714 
L 569.313515 311.961495 
L 568.856302 311.872845 
L 568.106698 312.098252 
L 567.734262 312.126815 
L 567.20824 312.364523 
L 566.757752 312.5813 
L 566.623802 312.683223 
L 566.501214 312.57334 
L 566.429029 312.799963 
L 566.406561 312.9125 
L 566.313903 313.08993 
L 566.153081 313.332537 
L 566.085294 313.468874 
L 565.96233 313.706522 
L 565.830054 313.981666 
L 565.56366 314.254155 
L 565.410807 314.423235 
L 565.296764 314.781845 
L 565.186955 315.223056 
L 565.121841 315.586826 
L 565.053242 315.73764 
L 564.918436 315.916939 
L 564.721288 316.055227 
L 564.40831 316.337082 
L 564.128418 316.488557 
L 563.906066 316.464573 
L 563.734968 316.562054 
L 563.585792 316.727054 
L 563.446759 316.880857 
L 563.333265 316.982745 
L 563.145526 317.01029 
L 562.88061 317.184655 
L 562.649087 317.263628 
L 562.39178 317.271946 
L 562.091554 317.101365 
L 561.927135 316.808974 
L 561.799882 316.285618 
L 561.711075 315.725214 
L 561.743465 315.172157 
L 561.816184 314.928731 
L 561.770822 314.535406 
L 561.561789 314.13385 
L 561.15429 313.732676 
L 560.495299 313.253854 
L 559.997726 313.178311 
L 559.566111 313.227803 
L 559.248094 312.958231 
L 558.811317 312.906797 
L 558.220844 313.01181 
L 557.654467 313.039463 
L 556.885676 312.98328 
L 556.137482 312.601224 
L 555.723939 312.494356 
L 555.267357 312.386413 
L 554.403501 312.506602 
L 553.747717 312.64009 
L 553.133241 312.821883 
L 552.851913 312.935892 
L 552.295992 312.911752 
L 551.881973 313.075175 
L 550.30749 313.930291 
L 550.002203 313.993392 
L 549.516625 314.020424 
L 548.949796 313.82661 
L 548.925386 313.814297 
L 548.380801 313.307716 
L 547.780153 312.949058 
L 547.298553 312.763659 
L 546.999021 312.821634 
L 546.789156 312.938349 
L 546.115403 312.82401 
L 545.434739 312.620706 
L 544.216649 312.821013 
L 543.42353 312.839637 
L 542.561799 313.263081 
L 541.366406 313.802712 
L 539.724216 313.952214 
L 538.690587 314.022667 
L 537.548289 314.164949 
L 536.80468 314.349122 
L 536.252201 314.752187 
L 535.798664 315.345873 
L 534.575411 316.283538 
L 532.26784 318.002072 
L 529.616165 319.526393 
L 528.305904 320.281626 
L 527.234765 320.657666 
L 526.014108 321.649884 
L 525.094284 322.612913 
L 524.102763 324.367537 
L 523.633395 325.248952 
L 523.317443 325.997482 
L 522.73289 327.003313 
L 521.725789 328.178969 
L 520.728568 328.515835 
L 519.821456 328.602748 
L 519.226443 328.339072 
L 518.668662 328.652756 
L 518.118027 329.384323 
L 517.325122 330.334994 
L 517.079489 331.359376 
L 516.833722 332.709069 
L 516.499276 333.721221 
L 516.286787 334.458437 
L 515.495399 335.207688 
L 514.925001 335.53716 
L 514.334688 335.446315 
L 513.322859 336.069051 
L 512.546129 336.701292 
L 512.039788 337.258242 
L 511.070573 338.583987 
L 510.70536 339.052004 
L 510.286518 339.222148 
L 508.863307 340.949222 
L 508.191955 341.815473 
L 507.777536 342.742618 
L 507.046981 343.533716 
L 506.59428 344.452754 
L 505.950242 344.803644 
L 504.926137 345.126042 
L 504.220442 345.196944 
L 503.459697 345.51326 
L 502.850237 346.046078 
L 502.69378 347.287649 
L 502.775287 347.929655 
L 502.864046 348.212655 
L 502.914106 348.908607 
L 502.69899 350.36744 
L 502.995251 351.115167 
L 503.328418 352.824141 
L 503.630125 353.601968 
L 503.560356 354.224564 
L 503.104852 354.451104 
L 502.953861 354.637095 
L 502.642044 354.881803 
L 501.988242 354.734906 
L 501.952976 354.734874 
L 501.519434 354.392791 
L 501.471472 353.988923 
L 500.748259 353.646907 
L 499.303878 353.626166 
L 498.03495 354.360205 
L 497.072002 355.248085 
L 496.386549 355.377989 
L 495.530302 355.739763 
L 495.27406 355.734445 
L 494.533653 356.503328 
L 493.921409 358.318273 
L 493.581027 360.57437 
L 493.114861 361.347161 
L 492.746006 362.068872 
L 492.591117 362.732444 
L 492.294077 363.140638 
L 491.718455 363.275902 
L 490.984525 363.392834 
L 489.120992 363.476546 
L 486.478634 363.983158 
L 485.458961 364.218282 
L 482.537001 366.330948 
L 481.527198 367.024336 
L 481.073059 367.023888 
L 480.62652 367.207723 
L 480.181917 366.857292 
L 479.699266 366.940264 
L 479.364359 366.851924 
L 477.970237 367.496213 
L 477.039148 368.248477 
L 475.428743 370.741795 
L 473.467003 373.368038 
L 473.378796 373.545199 
L 472.767139 373.572773 
L 472.184015 374.437257 
L 471.593914 374.407461 
L 471.137675 375.869092 
L 469.66116 380.464959 
L 469.124011 382.736276 
L 468.422459 383.691767 
L 468.046451 384.818673 
L 467.104904 385.666773 
L 466.217869 386.321823 
L 465.747991 387.563311 
L 465.02447 389.130691 
L 464.984897 390.825341 
L 464.609634 392.028048 
L 463.701293 392.42583 
L 462.596781 392.06931 
L 461.203262 391.3182 
L 460.194872 391.258597 
L 458.886504 391.63899 
L 457.145543 394.777326 
L 456.094716 394.531299 
L 454.461255 395.263773 
L 453.152083 397.066634 
L 452.030293 396.379956 
L 451.360531 396.594348 
L 449.675127 395.819604 
L 447.201648 396.474965 
L 446.29011 396.36458 
L 445.502285 396.610868 
L 443.665792 395.608309 
L 442.622685 395.597496 
L 441.333548 395.574486 
L 435.575809 379.625309 
L 435.448652 379.452852 
L 435.186833 379.114053 
L 434.915483 378.782932 
L 434.729674 378.566262 
L 434.347109 378.142117 
L 434.051407 377.831522 
L 433.85045 377.62784 
L 433.440418 377.227919 
L 433.231673 377.031396 
L 432.807907 376.644797 
L 432.377014 376.265737 
L 432.086574 376.01676 
L 431.500311 375.526395 
L 431.415612 375.460363 
L 431.237427 375.342529 
L 431.049181 375.241108 
L 430.91907 375.181099 
L 430.650251 375.075121 
L 430.234173 374.937785 
L 429.743762 374.781991 
L 429.412548 374.650022 
L 429.199691 374.548381 
L 428.98338 374.417258 
L 428.79467 374.269552 
L 428.487152 373.992167 
L 428.247435 373.756063 
L 428.092408 373.593539 
L 427.791088 373.258486 
L 427.353061 372.738904 
L 426.771822 372.036021 
L 426.472451 371.689672 
L 426.161377 371.352185 
L 426.000084 371.188086 
L 425.749388 370.949215 
L 425.335193 370.579232 
L 425.125027 370.398034 
L 424.806046 370.132072 
L 424.482437 369.874126 
L 424.318836 369.748521 
L 423.988138 369.504901 
L 423.820993 369.387171 
L 423.568053 369.21608 
L 423.226481 368.999077 
L 423.053804 368.895675 
L 422.79254 368.747359 
L 422.395321 368.541206 
L 422.14962 368.430787 
L 421.982178 368.366031 
L 421.869068 368.326687 
L 421.639397 368.257062 
L 421.464293 368.212518 
L 421.346265 368.186412 
L 420.599172 368.371216 
L 420.168697 368.061682 
L 419.994706 368.073436 
L 419.80469 368.080755 
L 419.422001 368.110107 
L 419.036838 368.157919 
L 418.779313 368.199477 
L 418.607514 368.231217 
L 418.264 368.303905 
L 417.878733 368.399421 
L 417.623058 368.4706 
L 417.453406 368.521139 
L 417.116356 368.629102 
L 416.865943 368.715714 
L 416.372928 368.90162 
L 415.892578 369.101924 
L 415.58076 369.24191 
L 415.377153 369.337596 
L 414.98125 369.533396 
L 414.751486 369.659334 
L 414.602813 369.75015 
L 414.505611 369.813497 
L 414.315443 369.946746 
L 414.176418 370.052003 
L 413.906555 370.275012 
L 413.646481 370.512748 
L 413.477773 370.678348 
L 413.149533 371.02342 
L 412.9096 371.291844 
L 412.43924 371.843323 
L 411.813861 372.582395 
L 411.493851 372.941431 
L 411.164098 373.286308 
L 410.994492 373.451716 
L 410.762356 373.663518 
L 410.643417 373.76519 
L 410.461055 373.911879 
L 410.27361 374.051015 
L 410.17777 374.117494 
L 409.981759 374.243944 
L 409.881447 374.303773 
L 409.727874 374.388931 
L 409.535102 374.487521 
L 409.403998 374.550681 
L 409.136092 374.670919 
L 408.999573 374.727949 
L 408.721733 374.835832 
L 408.438387 374.935401 
L 408.246792 374.997109 
L 407.858523 375.109364 
L 407.415566 375.21761 
L 407.118027 375.279091 
L 406.919249 375.315346 
L 406.52166 375.376227 
L 406.125882 375.421587 
L 405.951081 375.436748 
L 405.604509 375.457771 
L 405.347915 375.465329 
L 404.969876 375.463432 
L 404.784494 375.456507 
L 404.42228 375.430563 
L 404.245966 375.411497 
L 403.988247 375.375287 
L 403.914098 375.361571 
L 403.767747 375.324172 
L 403.623957 375.27415 
L 403.529473 375.234111 
L 403.343494 375.138988 
L 403.206488 375.055367 
L 403.116227 374.994162 
L 402.938029 374.859699 
L 402.850045 374.786867 
L 402.676024 374.631095 
L 402.50428 374.463269 
L 402.390845 374.345596 
L 402.166111 374.098621 
L 401.998926 373.905263 
L 401.66646 373.505258 
L 401.222616 372.964844 
L 400.998471 372.700971 
L 400.771626 372.446873 
L 400.656878 372.324783 
L 400.424254 372.093082 
L 400.306188 371.984516 
L 400.126413 371.832248 
L 399.943273 371.694217 
L 399.850281 371.631061 
L 399.682513 371.529362 
L 399.597326 371.483922 
L 399.467933 371.422904 
L 399.33636 371.370902 
L 399.269767 371.34846 
L 399.134876 371.311026 
L 399.066529 371.296177 
L 398.962825 371.278862 
L 398.822387 371.265439 
L 398.751149 371.263023 
L 398.643082 371.264926 
L 398.477949 371.280666 
L 395.768688 371.674652 
L 393.96044 371.947735 
L 392.755044 372.134104 
L 390.346595 372.516418 
L 387.316359 373.0009 
L 385.802706 373.256706 
L 385.422077 373.32959 
L 385.16962 373.384366 
L 384.667613 373.507452 
L 384.418109 373.575238 
L 383.921916 373.722205 
L 383.429477 373.882468 
L 383.103203 373.995767 
L 382.455353 374.234998 
L 381.840933 374.472325 
L 380.617074 374.957045 
L 378.17833 375.942524 
L 372.828118 384.641313 
L 371.766987 385.040722 
L 371.238255 385.244153 
L 370.978828 385.354586 
L 370.810721 385.436758 
L 370.70064 385.495134 
L 370.485184 385.620151 
L 370.327472 385.720707 
L 370.224024 385.790816 
L 370.021125 385.937923 
L 369.72588 386.174377 
L 369.534459 386.341436 
L 369.409024 386.456561 
L 369.162812 386.694649 
L 368.892167 386.973145 
L 368.714811 387.163813 
L 368.365602 387.553748 
L 368.020958 387.94986 
L 367.56269 388.476917 
L 367.331864 388.735816 
L 366.980688 389.113167 
L 366.802021 389.29524 
L 366.559582 389.529296 
L 366.436317 389.642144 
L 366.248433 389.805502 
L 365.959224 390.0356 
L 365.760854 390.178009 
L 365.659812 390.245557 
L 365.505873 390.342175 
L 365.451654 390.37338 
L 365.340349 390.428999 
L 365.225425 390.476021 
L 365.146835 390.502872 
L 364.985331 390.546317 
L 364.860678 390.570588 
L 364.775978 390.583048 
L 364.603101 390.599847 
L 364.335982 390.606689 
L 364.153423 390.600832 
L 364.03004 390.593017 
L 363.779891 390.569408 
L 363.589906 390.546215 
L 363.206035 390.490757 
L 362.692013 390.412 
L 362.436741 390.376895 
L 362.059402 390.337489 
L 361.813294 390.324184 
L 361.692308 390.322447 
L 361.513884 390.32699 
L 361.339501 390.341222 
L 361.254002 390.352303 
L 361.105015 390.379197 
L 361.03205 390.396277 
L 360.924692 390.426789 
L 360.768544 390.484099 
L 360.618693 390.556417 
L 360.546352 390.598608 
L 360.406981 390.695624 
L 360.340139 390.750781 
L 360.243541 390.842303 
L 359.936379 391.162604 
L 359.734886 391.377962 
L 359.339626 391.813102 
L 359.145859 392.032884 
L 358.765814 392.476636 
L 358.39571 392.926051 
L 358.154391 393.228689 
L 357.684566 393.841342 
L 357.512752 394.073496 
L 357.176047 394.541847 
L 356.848481 395.015338 
L 356.635144 395.333869 
L 356.2202 395.977545 
L 355.919109 396.466071 
L 355.723107 396.794404 
L 355.342223 397.457351 
L 355.157245 397.79187 
L 354.797889 398.466999 
L 354.452382 399.149978 
L 354.22955 399.609517 
L 354.084214 399.917748 
L 353.801316 400.538493 
L 352.766479 402.880249 
L 351.394918 406.003574 
L 350.70354 407.563231 
L 349.3531 410.589074 
L 348.66729 412.097087 
L 348.201281 413.098949 
L 347.964835 413.598569 
L 347.605145 414.346069 
L 347.439126 414.664137 
L 347.319575 414.869445 
L 347.236153 415.003463 
L 347.060737 415.264937 
L 346.922015 415.455596 
L 346.826347 415.580293 
L 346.627661 415.824074 
L 346.524832 415.943396 
L 346.312722 416.177047 
L 346.092557 416.404705 
L 345.941729 416.553433 
L 345.631264 416.844325 
L 345.269784 417.162577 
L 345.022768 417.370401 
L 344.517806 417.778294 
L 342.968377 418.981884 
L 342.460247 419.392094 
L 342.211103 419.601478 
L 341.885692 419.886504 
L 341.726377 420.031942 
L 341.492255 420.254116 
L 341.153553 420.597695 
L 340.937092 420.834562 
L 340.831946 420.955539 
L 340.678372 421.140382 
L 340.271701 421.654452 
L 340.006175 422.001605 
L 339.487886 422.705515 
L 339.234841 423.061846 
L 338.740244 423.782166 
L 338.259824 424.511193 
L 337.946925 425.00124 
L 337.741309 425.329398 
L 337.337004 425.988524 
L 337.262677 426.121698 
L 337.217883 426.213667 
L 337.138518 426.404458 
L 337.103476 426.502945 
L 337.041494 426.705201 
L 336.988699 426.913356 
L 336.957695 427.054712 
L 336.90299 427.341848 
L 336.757069 428.208839 
L 336.699214 428.488804 
L 336.666001 428.625219 
L 336.588082 428.888967 
L 336.542293 429.015443 
L 336.463365 429.197263 
L 336.381603 429.349981 
L 336.336129 429.422868 
L 359.010109 463.480123 
L 359.394317 464.123618 
L 374.031192 488.026845 
L 428.786324 491.577803 
L 428.80157 491.647457 
L 428.441445 491.642368 
L 428.129558 491.767495 
L 427.051647 492.993895 
L 426.654601 493.642013 
L 426.146267 494.652555 
L 425.644125 495.845096 
L 425.392348 496.419007 
L 425.084407 496.629719 
L 424.658905 497.357544 
L 423.953344 498.829748 
L 423.481199 499.313243 
L 423.244424 499.802155 
L 422.953368 499.971066 
L 422.435952 500.481038 
L 422.074888 500.578801 
L 421.381942 501.901203 
L 421.121117 502.647406 
L 420.634333 503.671014 
L 420.212343 504.209627 
L 419.70714 504.521286 
L 419.337906 504.77435 
L 419.088151 504.764164 
L 418.306568 505.612477 
L 417.937153 506.161358 
L 417.103467 507.81964 
L 416.76428 509.39182 
L 416.600989 510.436475 
L 416.656762 511.216678 
L 416.60294 511.707427 
L 416.401594 511.90948 
L 416.015007 512.110586 
L 415.880063 512.287042 
L 415.584985 512.189217 
L 415.294755 512.475886 
L 415.132144 512.408512 
L 414.920745 512.463923 
L 414.529988 512.4536 
L 413.943356 512.868623 
L 413.920421 512.876284 
L 413.187793 513.738169 
L 412.941343 514.28003 
L 412.823462 514.427978 
L 412.603535 514.548312 
L 412.54093 514.741046 
L 412.383848 514.777585 
L 412.192134 514.782703 
L 411.852562 515.13856 
L 411.005836 515.907682 
L 410.281424 516.749537 
L 409.667878 517.72786 
L 408.578109 519.672052 
L 408.325448 520.226573 
L 407.958208 521.144593 
L 407.631909 522.65117 
L 407.767795 524.172065 
L 407.850701 524.998346 
L 407.801413 525.285414 
L 407.620243 525.376268 
L 407.465914 525.431129 
L 407.35196 525.527435 
L 407.233325 525.851673 
L 407.533167 526.910354 
L 407.5557 527.545594 
L 407.625862 528.121087 
L 407.657687 528.610662 
L 407.583058 529.195887 
L 407.407435 529.775853 
L 407.352969 530.34563 
L 407.468134 530.811675 
L 407.535766 531.154146 
L 407.449319 531.757298 
L 407.257132 532.046599 
L 406.972724 532.258455 
L 406.351584 532.285648 
L 405.922188 532.438974 
L 405.526883 532.71315 
L 405.052351 533.184686 
L 404.35054 533.573707 
L 404.006649 533.670704 
L 403.511738 534.138413 
L 402.490108 534.826526 
L 401.620208 535.751746 
L 400.883201 536.279268 
L 400.51641 536.567096 
L 400.029151 536.876076 
L 399.79273 536.930253 
L 399.235194 537.54815 
L 398.854292 537.944704 
L 397.954988 539.21942 
L 397.14026 540.815505 
L 396.377053 542.082042 
L 395.948173 542.681734 
L 395.78209 542.734009 
L 395.710287 542.839669 
L 395.433133 542.939449 
L 395.042003 543.037272 
L 394.861129 543.07239 
L 394.213419 543.476691 
L 393.675226 543.79399 
L 392.132908 544.752623 
L 391.170014 545.461699 
L 390.523841 546.012096 
L 390.252335 546.083351 
L 390.150966 546.107468 
L 389.975436 546.166086 
L 389.843925 546.222011 
L 389.670409 546.151901 
L 389.39839 545.906311 
L 389.263041 545.870572 
L 389.041627 545.880187 
L 388.884481 545.87997 
L 388.769531 546.038589 
L 388.96041 546.106683 
L 389.100627 546.066577 
L 389.170862 546.07498 
L 389.274227 546.075123 
L 389.29941 546.081898 
L 389.291742 546.100589 
L 389.215428 546.156306 
L 389.096315 546.185049 
L 388.934708 546.203955 
L 388.844377 546.229083 
L 388.660174 546.281043 
L 388.508348 546.323791 
L 388.387524 546.361029 
L 388.208905 546.400702 
L 388.106681 546.463359 
L 388.092225 546.477817 
L 388.027481 546.490781 
L 388.016732 546.519579 
L 387.973566 546.519519 
L 387.805784 546.603636 
L 387.782035 546.617274 
L 387.724183 546.626877 
L 387.716225 546.650694 
L 387.674596 546.629656 
L 387.539852 546.737837 
L 387.519062 546.761684 
L 387.456962 546.772611 
L 387.440205 546.778901 
L 387.370992 546.747809 
L 387.238346 546.736043 
L 387.078499 546.778684 
L 386.982998 546.824025 
L 386.800115 546.910921 
L 386.608887 547.028944 
L 386.341711 547.244359 
L 386.063594 547.456008 
L 385.998865 547.526406 
L 385.948281 547.602426 
L 385.891482 547.635004 
L 385.801224 547.709544 
L 385.72878 547.797827 
L 385.540592 548.071593 
L 385.213339 548.437488 
L 385.009704 548.656027 
L 384.614527 549.115431 
L 384.530244 549.304185 
L 384.372742 549.629304 
L 384.211564 549.848092 
L 384.157666 549.965972 
L 384.051112 550.156498 
L 383.852289 550.476527 
L 383.660793 550.682646 
L 383.476983 550.925325 
L 383.335604 551.155104 
L 383.036802 551.820742 
L 382.947176 551.982479 
L 382.830364 552.118498 
L 382.508655 552.630927 
L 382.32502 552.84821 
L 382.08202 553.211465 
L 381.963838 553.382228 
L 381.647132 553.856309 
L 381.582795 553.948542 
L 381.502548 554.048014 
L 381.352932 554.260977 
L 381.210068 554.504566 
L 380.974026 554.883352 
L 380.898179 555.007038 
L 380.701749 555.330675 
L 380.516435 555.565517 
L 380.492878 555.643994 
L 380.434336 555.673389 
L 380.373618 555.70615 
L 380.255311 555.762326 
L 380.244304 555.806265 
L 380.212476 555.827532 
L 380.139102 555.869579 
L 380.005716 556.01369 
L 379.872409 556.201897 
L 379.769987 556.402442 
L 379.607899 556.760825 
L 379.359986 557.359933 
L 379.374033 557.70499 
L 379.133238 559.080476 
L 378.855187 560.173956 
L 378.421281 561.24685 
L 378.177043 561.877337 
L 377.357546 563.242406 
L 376.857897 564.055463 
L 376.240667 564.906229 
L 375.859398 565.411394 
L 375.424333 565.922841 
L 375.389442 565.87447 
L 372.43918 558.841909 
L 372.406592 558.766437 
L 371.600468 557.829085 
L 371.051036 557.262533 
L 370.898304 557.108235 
L 369.922402 556.133324 
L 368.358113 554.560944 
L 343.793431 534.348962 
L 343.186161 534.783245 
L 342.8634 535.028148 
L 342.675812 535.168074 
L 342.494939 535.296429 
L 342.321712 535.422754 
L 342.142816 535.554244 
L 341.962646 535.685115 
L 341.798588 535.800204 
L 341.649439 535.913228 
L 341.556167 536.011196 
L 341.518647 536.084189 
L 341.505946 536.245506 
L 341.523366 536.484098 
L 341.538425 536.724633 
L 341.544473 536.93449 
L 341.553658 537.159589 
L 341.524393 537.417427 
L 341.429147 537.664863 
L 341.260223 537.968196 
L 341.052134 538.277875 
L 340.935063 538.452084 
L 340.849256 538.60351 
L 340.657454 539.213011 
L 340.584278 539.433757 
L 340.160392 540.830502 
L 339.871643 541.530605 
L 339.425152 542.43713 
L 338.637922 543.457374 
L 338.413176 543.795646 
L 338.050328 545.703405 
L 337.319194 549.514543 
L 337.0527 550.88034 
L 336.846563 551.867499 
L 336.76623 552.378582 
L 336.682812 552.779301 
L 336.576971 553.037065 
L 336.385953 553.248653 
L 336.194798 553.396114 
L 336.03731 553.524641 
L 335.935749 553.608353 
L 335.88338 553.670166 
L 335.758126 553.729966 
L 335.601125 553.817958 
L 335.548487 553.871037 
L 335.467121 553.922172 
L 335.292674 554.004013 
L 335.116323 554.066769 
L 358.466661 601.424264 
L 357.765044 603.351709 
L 357.594127 603.70346 
L 357.402033 603.985355 
L 357.190817 604.338278 
L 356.704381 604.929252 
L 356.354329 605.2897 
L 356.115732 605.492824 
L 355.960777 605.551921 
L 355.767205 605.43576 
L 355.494788 605.723322 
L 355.200613 605.576866 
L 354.935398 605.407766 
L 354.793837 605.315322 
L 354.673762 605.025072 
L 354.668198 604.991315 
L 354.45955 604.641977 
L 354.068938 604.395551 
L 353.324625 603.896347 
L 352.724873 603.504067 
L 351.952392 603.316906 
L 351.547572 603.107859 
L 351.057823 602.802513 
L 350.712615 602.738376 
L 350.335757 602.636074 
L 350.036362 602.48258 
L 349.700908 602.303826 
L 348.608436 601.552928 
L 347.942346 601.16533 
L 347.636529 600.678897 
L 347.285292 600.334317 
L 346.835791 600.066858 
L 346.510842 599.780511 
L 346.127589 599.300554 
L 345.987274 599.046534 
L 345.647727 598.773407 
L 345.311758 598.567164 
L 345.204493 598.361374 
L 344.833702 598.400048 
L 344.56666 598.109234 
L 344.178775 597.637479 
L 343.732534 597.64651 
L 343.298788 597.357759 
L 342.673728 597.177736 
L 342.113102 597.041624 
L 341.773853 596.823696 
L 341.617365 596.566231 
L 341.366324 596.7304 
L 341.239927 596.693368 
L 341.01629 596.409026 
L 340.678995 596.058765 
L 340.287395 595.887839 
L 340.153084 595.812488 
L 340.139198 595.670258 
L 340.169823 595.517419 
L 339.900851 595.319488 
L 339.622185 595.196016 
L 339.260758 595.072555 
L 338.264816 595.027593 
L 337.416286 595.098204 
L 336.584449 595.265147 
L 335.525751 595.699717 
L 334.616915 596.219534 
L 333.869583 596.742597 
L 333.50697 596.892387 
L 333.102172 596.9533 
L 332.579857 597.150536 
L 332.177625 597.02249 
L 331.816506 596.973494 
L 331.5651 596.948264 
L 330.601989 597.115403 
L 329.870909 597.354302 
L 329.640755 597.61257 
L 329.64438 597.735512 
L 329.3647 597.805356 
L 328.116276 598.756061 
L 326.449403 599.944259 
L 325.398169 600.705645 
L 325.283384 600.695537 
L 325.16282 600.583226 
L 324.829496 600.531085 
L 324.799769 600.531036 
L 324.480808 600.671391 
L 324.199059 600.734438 
L 323.559592 601.210369 
L 323.38922 601.37674 
L 323.286638 601.406902 
L 323.03048 601.140057 
L 323.006484 601.097725 
L 322.482893 600.795599 
L 322.632493 600.722891 
L 308.696661 574.259639 
L 308.367181 573.876609 
L 302.62409 562.545428 
L 260.300465 590.556964 
L 251.4238 574.946591 
L 198.562564 599.032093 
L 205.870642 620.173945 
L 205.859555 620.698334 
L 223.345587 652.00109 
L 222.863678 652.183738 
L 222.214188 652.182408 
L 220.503681 652.63136 
L 216.664344 653.301586 
L 212.291348 653.999925 
L 209.406857 654.647778 
L 206.808525 654.684744 
L 206.05955 654.505276 
L 205.3118 654.282664 
L 204.596185 653.948631 
L 204.23622 653.49413 
L 203.255896 653.146955 
L 201.72236 652.798696 
L 200.949284 652.864637 
L 200.351991 652.954634 
L 199.699022 653.151539 
L 198.315672 653.219349 
L 196.086523 653.309543 
L 194.297547 653.477032 
L 193.195556 653.674328 
L 192.406459 653.795455 
L 191.470306 653.854892 
L 190.120184 653.942191 
L 186.372623 654.213675 
L 185.882622 654.17976 
L 185.285769 654.130803 
L 182.612962 654.12494 
L 172.443255 653.83646 
L 168.86723 654.395124 
L 165.834435 655.382068 
L 163.179448 656.276525 
L 160.896526 656.738816 
L 159.487221 656.726151 
L 154.797742 656.815004 
L 151.539688 656.655932 
L 150.048466 656.377961 
L 149.337117 656.25946 
L 147.988956 656.709522 
L 147.461721 656.968234 
L 147.220275 657.24446 
L 147.108274 657.375284 
L 146.490764 657.184665 
L 145.424356 657.210884 
L 144.490694 657.175333 
L 143.819625 657.270151 
L 143.304044 656.8782 
L 142.637508 656.586177 
L 142.092854 656.805918 
L 141.687018 657.680036 
L 141.064554 658.382168 
L 140.586761 658.744302 
L 140.253151 658.937009 
L 139.5969 659.373137 
L 139.113882 659.889833 
L 138.820355 660.093549 
L 138.351111 660.6117 
L 138.130374 660.986112 
L 138.011977 661.16599 
L 137.864764 661.257998 
L 137.737901 661.405346 
L 137.664811 661.502845 
L 137.613959 661.574959 
L 137.456683 661.69186 
L 137.110982 661.966782 
L 136.943813 662.096426 
L 136.851384 662.08904 
L 136.824062 662.188926 
L 136.80492 662.221723 
L 136.751096 662.253535 
L 136.508373 662.122586 
L 136.18655 661.875218 
L 136.057572 661.697885 
L 135.73297 661.649083 
L 135.44564 661.323582 
L 135.42892 661.289656 
L 134.373154 661.121505 
L 132.938426 660.505845 
L 132.743359 660.538886 
L 131.842657 660.194972 
L 131.440765 660.264725 
L 130.931563 660.434029 
L 130.665057 660.603723 
L 130.311478 660.815922 
L 129.80597 661.118405 
L 129.021462 661.584473 
L 128.525878 661.998554 
L 127.272366 663.424263 
L 126.174619 664.7502 
L 124.305125 666.834468 
L 122.410616 669.222018 
L 122.12361 669.452684 
L 121.944691 669.655945 
L 121.622879 670.014287 
L 120.544555 670.309368 
L 119.344567 670.566559 
L 118.399358 670.709374 
L 117.850412 670.619279 
L 117.119988 671.220932 
L 116.915492 671.596735 
L 117.060064 671.780568 
L 116.947478 671.969465 
L 116.695628 672.120573 
L 116.361079 672.124117 
L 115.877828 671.992936 
L 115.545996 672.063213 
L 115.463645 672.180282 
L 115.413258 672.232695 
L 115.363636 672.24235 
L 116.260945 670.744368 
L 120.749769 660.886204 
L 120.864921 660.62783 
L 121.176212 659.929318 
L 124.956365 651.795445 
L 127.982202 645.296554 
L 130.302494 640.295557 
L 130.372919 640.145704 
L 132.4021 635.774388 
L 155.459028 586.145382 
L 319.38643 229.573213 
L 320.454407 228.927057 
L 323.445571 228.344992 
L 326.475484 226.002741 
L 330.516813 218.064416 
L 331.83656 216.509578 
L 334.376217 214.977399 
L 336.016836 212.677522 
L 337.707389 209.043117 
L 339.711158 207.393737 
L 344.526434 207.936337 
L 351.048877 208.262604 
L 358.053755 208.293516 
L 360.473713 209.261336 
L 361.894758 212.556672 
L 362.530096 216.283013 
L 363.923598 218.654826 
L 365.908795 219.841957 
L 368.564876 220.658806 
L 372.841607 219.535592 
L 377.551807 215.047818 
L 379.568556 211.168217 
L 381.975474 207.551063 
L 386.630296 204.465197 
L 391.110572 202.831419 
L 395.327415 201.892425 
L 398.87857 203.599693 
L 401.778677 207.667278 
L 402.244012 210.791402 
L 402.317113 213.500134 
L 403.112408 215.073098 
L 400.938341 217.024152 
L 398.199267 220.280499 
L 397.563367 223.349363 
L 397.517722 226.124069 
L 396.515928 229.607781 
L 392.096995 236.304955 
L 389.659632 241.171586 
L 390.559157 245.543859 
L 396.156591 247.810091 
L 402.057539 248.141408 
L 418.802955 243.47317 
L 424.383832 243.05889 
L 427.226347 245.695674 
L 428.29801 249.358911 
L 429.24315 256.468573 
L 430.546669 255.89476 
L 430.702899 253.423659 
L 431.633102 248.626448 
L 433.185108 245.278433 
L 434.923044 242.324697 
L 438.304821 239.509023 
L 442.24446 236.985174 
L 443.710448 233.787087 
L 445.713454 230.598911 
L 448.352113 227.45069 
L 450.264203 224.318249 
L 450.872019 223.602096 
L 452.583053 222.608156 
L 454.671519 220.812265 
L 456.134631 218.897948 
L 458.0777 217.07226 
L 462.022788 215.026696 
L 464.474223 213.256153 
L 467.156702 212.145263 
L 470.459115 211.350292 
L 474.518765 210.049224 
L 477.348076 208.635996 
L 484.104775 208.572602 
L 490.033618 205.59541 
L 496.154161 200.767261 
L 499.907964 203.997201 
L 500.763795 204.256186 
L 503.299535 202.42974 
L 504.650566 200.988853 
L 506.66321 200.710927 
L 511.361328 201.575954 
L 515.490589 202.336246 
L 517.200625 202.331193 
L 520.972025 200.39765 
" clip-path="url(#p12b298dfd9)" style="fill: #e0bd1f; stroke: #0000ff; stroke-width: 0.5"/>
    <path d="M 406.59803 354.94819 
L 421.898235 366.165171 
L 420.481436 367.721953 
L 418.529055 368.165373 
L 414.751164 369.229319 
L 403.60683 361.656339 
L 406.59803 354.94819 
" clip-path="url(#p12b298dfd9)" style="fill: #e0bd1f; stroke: #0000ff; stroke-width: 0.5"/>
    <path d="M 427.906591 351.509043 
L 448.456952 363.239488 
L 441.913145 375.383502 
L 424.084622 359.284435 
L 423.993654 359.241291 
L 424.49545 358.37886 
L 425.074383 357.307135 
L 425.324851 356.837587 
L 425.64455 356.228135 
L 426.164355 355.194597 
L 426.379169 354.691825 
L 426.515878 354.377744 
L 426.591613 354.23875 
L 426.785713 353.993945 
L 426.987794 353.655778 
L 427.108859 353.415729 
L 427.195005 353.283962 
L 427.460045 353.009619 
L 427.634441 352.638096 
L 427.814834 352.216169 
L 427.831598 351.741551 
L 427.906591 351.509043 
" clip-path="url(#p12b298dfd9)" style="fill: #e0bd1f; stroke: #0000ff; stroke-width: 0.5"/>
   </g>
   <g id="PatchCollection_2">
    <path d="M 430.9453 354.373627 
L 431.545801 354.679925 
L 432.352261 355.358632 
L 434.464324 357.389822 
L 435.705314 358.912437 
L 439.182301 363.807056 
L 439.084881 363.83794 
L 438.60229 364.138642 
L 438.082815 364.778519 
L 437.64167 365.620768 
L 436.752428 367.494728 
L 435.665269 368.837609 
L 433.853121 370.733695 
L 432.090455 372.260681 
L 430.824365 372.983205 
L 426.415221 375.000473 
L 425.787704 375.578958 
L 425.138396 376.497993 
L 424.813605 377.099698 
L 423.279449 380.207662 
L 422.806324 380.836791 
L 422.082939 381.421156 
L 421.234157 381.639691 
L 420.425001 381.675124 
L 418.300912 381.745992 
L 417.565027 381.996989 
L 417.08045 382.372511 
L 416.590581 383.020395 
L 415.823787 384.349168 
L 415.351934 385.551489 
L 415.055697 386.76219 
L 414.804336 388.715141 
L 414.523724 392.133285 
L 414.51044 395.168925 
L 414.725885 397.584699 
L 414.973672 399.016093 
L 416.064721 403.63595 
L 417.017176 406.688583 
L 418.086494 409.410134 
L 419.549923 412.441567 
L 422.423241 418.149234 
L 424.96322 423.907713 
L 425.965538 426.627525 
L 426.8397 429.791515 
L 427.121443 432.008542 
L 427.172063 433.97769 
L 427.034197 436.501943 
L 426.341915 443.443668 
L 425.592827 448.480542 
L 423.740955 458.605886 
L 371.37682 458.59937 
L 335.802353 399.287158 
L 336.695892 396.79707 
L 337.465706 395.590399 
L 338.519097 394.309801 
L 340.590644 392.044469 
L 341.321167 391.408249 
L 344.931863 388.514542 
L 345.988256 387.330936 
L 346.59528 386.345007 
L 348.586482 382.166485 
L 354.149639 370.20694 
L 355.702117 367.672983 
L 356.846992 366.058257 
L 358.387214 364.204741 
L 359.846906 362.824087 
L 360.410174 362.667481 
L 361.062453 362.6493 
L 364.268623 362.851004 
L 364.624928 362.700576 
L 365.671701 361.911735 
L 366.924362 360.603684 
L 368.989442 358.504693 
L 369.787593 357.97341 
L 370.371085 357.69919 
L 381.628563 353.510664 
L 384.91234 352.368938 
L 386.339163 352.054268 
L 394.904134 350.777705 
L 399.534217 350.24922 
L 400.2024 350.524438 
L 400.969964 351.153178 
L 402.48113 352.942096 
L 403.361906 353.842357 
L 403.866914 354.17979 
L 404.377234 354.352856 
L 405.822865 354.453403 
L 407.004232 354.365228 
L 408.443259 354.068921 
L 409.66396 353.635314 
L 410.807932 352.978619 
L 411.901386 351.966614 
L 414.40119 349.296054 
L 414.944522 348.902032 
L 416.190642 348.2814 
L 418.090054 347.618319 
L 419.445801 347.338812 
L 420.642599 347.275449 
L 421.888401 347.446243 
L 422.730875 347.761547 
L 424.159436 348.632324 
L 425.572498 349.767882 
L 426.926745 351.142625 
L 428.825055 353.333529 
L 429.589393 353.88176 
L 429.925361 354.021703 
L 430.9453 354.373627 
L 430.9453 354.373627 
" clip-path="url(#p12b298dfd9)" style="fill: none; stroke: #000000"/>
   </g>
   <g id="matplotlib.axis_1">
    <g id="xtick_1">
     <g id="line2d_1">
      <path d="M 141.861658 695.834585 
L 141.861658 176.805415 
" clip-path="url(#p12b298dfd9)" style="fill: none; stroke: #b0b0b0; stroke-width: 0.8; stroke-linecap: square"/>
     </g>
     <g id="line2d_2">
      <defs>
       <path id="m236670fd94" d="M 0 0 
L 0 3.5 
" style="stroke: #000000; stroke-width: 0.8"/>
      </defs>
      <g>
       <use xlink:href="#m236670fd94" x="141.861658" y="695.834585" style="stroke: #000000; stroke-width: 0.8"/>
      </g>
     </g>
     <g id="text_1">
      <!-- −58.2 -->
      <g transform="translate(132.978077 729.877) rotate(-45) scale(0.1 -0.1)">
       <defs>
        <path id="DejaVuSans-2212" d="M 678 2272 
L 4684 2272 
L 4684 1741 
L 678 1741 
L 678 2272 
z
" transform="scale(0.015625)"/>
        <path id="DejaVuSans-35" d="M 691 4666 
L 3169 4666 
L 3169 4134 
L 1269 4134 
L 1269 2991 
Q 1406 3038 1543 3061 
Q 1681 3084 1819 3084 
Q 2600 3084 3056 2656 
Q 3513 2228 3513 1497 
Q 3513 744 3044 326 
Q 2575 -91 1722 -91 
Q 1428 -91 1123 -41 
Q 819 9 494 109 
L 494 744 
Q 775 591 1075 516 
Q 1375 441 1709 441 
Q 2250 441 2565 725 
Q 2881 1009 2881 1497 
Q 2881 1984 2565 2268 
Q 2250 2553 1709 2553 
Q 1456 2553 1204 2497 
Q 953 2441 691 2322 
L 691 4666 
z
" transform="scale(0.015625)"/>
        <path id="DejaVuSans-38" d="M 2034 2216 
Q 1584 2216 1326 1975 
Q 1069 1734 1069 1313 
Q 1069 891 1326 650 
Q 1584 409 2034 409 
Q 2484 409 2743 651 
Q 3003 894 3003 1313 
Q 3003 1734 2745 1975 
Q 2488 2216 2034 2216 
z
M 1403 2484 
Q 997 2584 770 2862 
Q 544 3141 544 3541 
Q 544 4100 942 4425 
Q 1341 4750 2034 4750 
Q 2731 4750 3128 4425 
Q 3525 4100 3525 3541 
Q 3525 3141 3298 2862 
Q 3072 2584 2669 2484 
Q 3125 2378 3379 2068 
Q 3634 1759 3634 1313 
Q 3634 634 3220 271 
Q 2806 -91 2034 -91 
Q 1263 -91 848 271 
Q 434 634 434 1313 
Q 434 1759 690 2068 
Q 947 2378 1403 2484 
z
M 1172 3481 
Q 1172 3119 1398 2916 
Q 1625 2713 2034 2713 
Q 2441 2713 2670 2916 
Q 2900 3119 2900 3481 
Q 2900 3844 2670 4047 
Q 2441 4250 2034 4250 
Q 1625 4250 1398 4047 
Q 1172 3844 1172 3481 
z
" transform="scale(0.015625)"/>
        <path id="DejaVuSans-2e" d="M 684 794 
L 1344 794 
L 1344 0 
L 684 0 
L 684 794 
z
" transform="scale(0.015625)"/>
        <path id="DejaVuSans-32" d="M 1228 531 
L 3431 531 
L 3431 0 
L 469 0 
L 469 531 
Q 828 903 1448 1529 
Q 2069 2156 2228 2338 
Q 2531 2678 2651 2914 
Q 2772 3150 2772 3378 
Q 2772 3750 2511 3984 
Q 2250 4219 1831 4219 
Q 1534 4219 1204 4116 
Q 875 4013 500 3803 
L 500 4441 
Q 881 4594 1212 4672 
Q 1544 4750 1819 4750 
Q 2544 4750 2975 4387 
Q 3406 4025 3406 3419 
Q 3406 3131 3298 2873 
Q 3191 2616 2906 2266 
Q 2828 2175 2409 1742 
Q 1991 1309 1228 531 
z
" transform="scale(0.015625)"/>
       </defs>
       <use xlink:href="#DejaVuSans-2212"/>
       <use xlink:href="#DejaVuSans-35" transform="translate(83.789062 0)"/>
       <use xlink:href="#DejaVuSans-38" transform="translate(147.412109 0)"/>
       <use xlink:href="#DejaVuSans-2e" transform="translate(211.035156 0)"/>
       <use xlink:href="#DejaVuSans-32" transform="translate(242.822266 0)"/>
      </g>
     </g>
    </g>
    <g id="xtick_2">
     <g id="line2d_3">
      <path d="M 246.251429 695.834585 
L 246.251429 176.805415 
" clip-path="url(#p12b298dfd9)" style="fill: none; stroke: #b0b0b0; stroke-width: 0.8; stroke-linecap: square"/>
     </g>
     <g id="line2d_4">
      <g>
       <use xlink:href="#m236670fd94" x="246.251429" y="695.834585" style="stroke: #000000; stroke-width: 0.8"/>
      </g>
     </g>
     <g id="text_2">
      <!-- −58.0 -->
      <g transform="translate(237.367847 729.877) rotate(-45) scale(0.1 -0.1)">
       <defs>
        <path id="DejaVuSans-30" d="M 2034 4250 
Q 1547 4250 1301 3770 
Q 1056 3291 1056 2328 
Q 1056 1369 1301 889 
Q 1547 409 2034 409 
Q 2525 409 2770 889 
Q 3016 1369 3016 2328 
Q 3016 3291 2770 3770 
Q 2525 4250 2034 4250 
z
M 2034 4750 
Q 2819 4750 3233 4129 
Q 3647 3509 3647 2328 
Q 3647 1150 3233 529 
Q 2819 -91 2034 -91 
Q 1250 -91 836 529 
Q 422 1150 422 2328 
Q 422 3509 836 4129 
Q 1250 4750 2034 4750 
z
" transform="scale(0.015625)"/>
       </defs>
       <use xlink:href="#DejaVuSans-2212"/>
       <use xlink:href="#DejaVuSans-35" transform="translate(83.789062 0)"/>
       <use xlink:href="#DejaVuSans-38" transform="translate(147.412109 0)"/>
       <use xlink:href="#DejaVuSans-2e" transform="translate(211.035156 0)"/>
       <use xlink:href="#DejaVuSans-30" transform="translate(242.822266 0)"/>
      </g>
     </g>
    </g>
    <g id="xtick_3">
     <g id="line2d_5">
      <path d="M 350.641199 695.834585 
L 350.641199 176.805415 
" clip-path="url(#p12b298dfd9)" style="fill: none; stroke: #b0b0b0; stroke-width: 0.8; stroke-linecap: square"/>
     </g>
     <g id="line2d_6">
      <g>
       <use xlink:href="#m236670fd94" x="350.641199" y="695.834585" style="stroke: #000000; stroke-width: 0.8"/>
      </g>
     </g>
     <g id="text_3">
      <!-- −57.8 -->
      <g transform="translate(341.757617 729.877) rotate(-45) scale(0.1 -0.1)">
       <defs>
        <path id="DejaVuSans-37" d="M 525 4666 
L 3525 4666 
L 3525 4397 
L 1831 0 
L 1172 0 
L 2766 4134 
L 525 4134 
L 525 4666 
z
" transform="scale(0.015625)"/>
       </defs>
       <use xlink:href="#DejaVuSans-2212"/>
       <use xlink:href="#DejaVuSans-35" transform="translate(83.789062 0)"/>
       <use xlink:href="#DejaVuSans-37" transform="translate(147.412109 0)"/>
       <use xlink:href="#DejaVuSans-2e" transform="translate(211.035156 0)"/>
       <use xlink:href="#DejaVuSans-38" transform="translate(242.822266 0)"/>
      </g>
     </g>
    </g>
    <g id="xtick_4">
     <g id="line2d_7">
      <path d="M 455.030969 695.834585 
L 455.030969 176.805415 
" clip-path="url(#p12b298dfd9)" style="fill: none; stroke: #b0b0b0; stroke-width: 0.8; stroke-linecap: square"/>
     </g>
     <g id="line2d_8">
      <g>
       <use xlink:href="#m236670fd94" x="455.030969" y="695.834585" style="stroke: #000000; stroke-width: 0.8"/>
      </g>
     </g>
     <g id="text_4">
      <!-- −57.6 -->
      <g transform="translate(446.147388 729.877) rotate(-45) scale(0.1 -0.1)">
       <defs>
        <path id="DejaVuSans-36" d="M 2113 2584 
Q 1688 2584 1439 2293 
Q 1191 2003 1191 1497 
Q 1191 994 1439 701 
Q 1688 409 2113 409 
Q 2538 409 2786 701 
Q 3034 994 3034 1497 
Q 3034 2003 2786 2293 
Q 2538 2584 2113 2584 
z
M 3366 4563 
L 3366 3988 
Q 3128 4100 2886 4159 
Q 2644 4219 2406 4219 
Q 1781 4219 1451 3797 
Q 1122 3375 1075 2522 
Q 1259 2794 1537 2939 
Q 1816 3084 2150 3084 
Q 2853 3084 3261 2657 
Q 3669 2231 3669 1497 
Q 3669 778 3244 343 
Q 2819 -91 2113 -91 
Q 1303 -91 875 529 
Q 447 1150 447 2328 
Q 447 3434 972 4092 
Q 1497 4750 2381 4750 
Q 2619 4750 2861 4703 
Q 3103 4656 3366 4563 
z
" transform="scale(0.015625)"/>
       </defs>
       <use xlink:href="#DejaVuSans-2212"/>
       <use xlink:href="#DejaVuSans-35" transform="translate(83.789062 0)"/>
       <use xlink:href="#DejaVuSans-37" transform="translate(147.412109 0)"/>
       <use xlink:href="#DejaVuSans-2e" transform="translate(211.035156 0)"/>
       <use xlink:href="#DejaVuSans-36" transform="translate(242.822266 0)"/>
      </g>
     </g>
    </g>
    <g id="xtick_5">
     <g id="line2d_9">
      <path d="M 559.420739 695.834585 
L 559.420739 176.805415 
" clip-path="url(#p12b298dfd9)" style="fill: none; stroke: #b0b0b0; stroke-width: 0.8; stroke-linecap: square"/>
     </g>
     <g id="line2d_10">
      <g>
       <use xlink:href="#m236670fd94" x="559.420739" y="695.834585" style="stroke: #000000; stroke-width: 0.8"/>
      </g>
     </g>
     <g id="text_5">
      <!-- −57.4 -->
      <g transform="translate(550.537158 729.877) rotate(-45) scale(0.1 -0.1)">
       <defs>
        <path id="DejaVuSans-34" d="M 2419 4116 
L 825 1625 
L 2419 1625 
L 2419 4116 
z
M 2253 4666 
L 3047 4666 
L 3047 1625 
L 3713 1625 
L 3713 1100 
L 3047 1100 
L 3047 0 
L 2419 0 
L 2419 1100 
L 313 1100 
L 313 1709 
L 2253 4666 
z
" transform="scale(0.015625)"/>
       </defs>
       <use xlink:href="#DejaVuSans-2212"/>
       <use xlink:href="#DejaVuSans-35" transform="translate(83.789062 0)"/>
       <use xlink:href="#DejaVuSans-37" transform="translate(147.412109 0)"/>
       <use xlink:href="#DejaVuSans-2e" transform="translate(211.035156 0)"/>
       <use xlink:href="#DejaVuSans-34" transform="translate(242.822266 0)"/>
      </g>
     </g>
    </g>
    <g id="text_6">
     <!-- Longitude (°) -->
     <g transform="translate(336.139844 742.945998) scale(0.1 -0.1)">
      <defs>
       <path id="DejaVuSans-4c" d="M 628 4666 
L 1259 4666 
L 1259 531 
L 3531 531 
L 3531 0 
L 628 0 
L 628 4666 
z
" transform="scale(0.015625)"/>
       <path id="DejaVuSans-6f" d="M 1959 3097 
Q 1497 3097 1228 2736 
Q 959 2375 959 1747 
Q 959 1119 1226 758 
Q 1494 397 1959 397 
Q 2419 397 2687 759 
Q 2956 1122 2956 1747 
Q 2956 2369 2687 2733 
Q 2419 3097 1959 3097 
z
M 1959 3584 
Q 2709 3584 3137 3096 
Q 3566 2609 3566 1747 
Q 3566 888 3137 398 
Q 2709 -91 1959 -91 
Q 1206 -91 779 398 
Q 353 888 353 1747 
Q 353 2609 779 3096 
Q 1206 3584 1959 3584 
z
" transform="scale(0.015625)"/>
       <path id="DejaVuSans-6e" d="M 3513 2113 
L 3513 0 
L 2938 0 
L 2938 2094 
Q 2938 2591 2744 2837 
Q 2550 3084 2163 3084 
Q 1697 3084 1428 2787 
Q 1159 2491 1159 1978 
L 1159 0 
L 581 0 
L 581 3500 
L 1159 3500 
L 1159 2956 
Q 1366 3272 1645 3428 
Q 1925 3584 2291 3584 
Q 2894 3584 3203 3211 
Q 3513 2838 3513 2113 
z
" transform="scale(0.015625)"/>
       <path id="DejaVuSans-67" d="M 2906 1791 
Q 2906 2416 2648 2759 
Q 2391 3103 1925 3103 
Q 1463 3103 1205 2759 
Q 947 2416 947 1791 
Q 947 1169 1205 825 
Q 1463 481 1925 481 
Q 2391 481 2648 825 
Q 2906 1169 2906 1791 
z
M 3481 434 
Q 3481 -459 3084 -895 
Q 2688 -1331 1869 -1331 
Q 1566 -1331 1297 -1286 
Q 1028 -1241 775 -1147 
L 775 -588 
Q 1028 -725 1275 -790 
Q 1522 -856 1778 -856 
Q 2344 -856 2625 -561 
Q 2906 -266 2906 331 
L 2906 616 
Q 2728 306 2450 153 
Q 2172 0 1784 0 
Q 1141 0 747 490 
Q 353 981 353 1791 
Q 353 2603 747 3093 
Q 1141 3584 1784 3584 
Q 2172 3584 2450 3431 
Q 2728 3278 2906 2969 
L 2906 3500 
L 3481 3500 
L 3481 434 
z
" transform="scale(0.015625)"/>
       <path id="DejaVuSans-69" d="M 603 3500 
L 1178 3500 
L 1178 0 
L 603 0 
L 603 3500 
z
M 603 4863 
L 1178 4863 
L 1178 4134 
L 603 4134 
L 603 4863 
z
" transform="scale(0.015625)"/>
       <path id="DejaVuSans-74" d="M 1172 4494 
L 1172 3500 
L 2356 3500 
L 2356 3053 
L 1172 3053 
L 1172 1153 
Q 1172 725 1289 603 
Q 1406 481 1766 481 
L 2356 481 
L 2356 0 
L 1766 0 
Q 1100 0 847 248 
Q 594 497 594 1153 
L 594 3053 
L 172 3053 
L 172 3500 
L 594 3500 
L 594 4494 
L 1172 4494 
z
" transform="scale(0.015625)"/>
       <path id="DejaVuSans-75" d="M 544 1381 
L 544 3500 
L 1119 3500 
L 1119 1403 
Q 1119 906 1312 657 
Q 1506 409 1894 409 
Q 2359 409 2629 706 
Q 2900 1003 2900 1516 
L 2900 3500 
L 3475 3500 
L 3475 0 
L 2900 0 
L 2900 538 
Q 2691 219 2414 64 
Q 2138 -91 1772 -91 
Q 1169 -91 856 284 
Q 544 659 544 1381 
z
M 1991 3584 
L 1991 3584 
z
" transform="scale(0.015625)"/>
       <path id="DejaVuSans-64" d="M 2906 2969 
L 2906 4863 
L 3481 4863 
L 3481 0 
L 2906 0 
L 2906 525 
Q 2725 213 2448 61 
Q 2172 -91 1784 -91 
Q 1150 -91 751 415 
Q 353 922 353 1747 
Q 353 2572 751 3078 
Q 1150 3584 1784 3584 
Q 2172 3584 2448 3432 
Q 2725 3281 2906 2969 
z
M 947 1747 
Q 947 1113 1208 752 
Q 1469 391 1925 391 
Q 2381 391 2643 752 
Q 2906 1113 2906 1747 
Q 2906 2381 2643 2742 
Q 2381 3103 1925 3103 
Q 1469 3103 1208 2742 
Q 947 2381 947 1747 
z
" transform="scale(0.015625)"/>
       <path id="DejaVuSans-65" d="M 3597 1894 
L 3597 1613 
L 953 1613 
Q 991 1019 1311 708 
Q 1631 397 2203 397 
Q 2534 397 2845 478 
Q 3156 559 3463 722 
L 3463 178 
Q 3153 47 2828 -22 
Q 2503 -91 2169 -91 
Q 1331 -91 842 396 
Q 353 884 353 1716 
Q 353 2575 817 3079 
Q 1281 3584 2069 3584 
Q 2775 3584 3186 3129 
Q 3597 2675 3597 1894 
z
M 3022 2063 
Q 3016 2534 2758 2815 
Q 2500 3097 2075 3097 
Q 1594 3097 1305 2825 
Q 1016 2553 972 2059 
L 3022 2063 
z
" transform="scale(0.015625)"/>
       <path id="DejaVuSans-20" transform="scale(0.015625)"/>
       <path id="DejaVuSans-28" d="M 1984 4856 
Q 1566 4138 1362 3434 
Q 1159 2731 1159 2009 
Q 1159 1288 1364 580 
Q 1569 -128 1984 -844 
L 1484 -844 
Q 1016 -109 783 600 
Q 550 1309 550 2009 
Q 550 2706 781 3412 
Q 1013 4119 1484 4856 
L 1984 4856 
z
" transform="scale(0.015625)"/>
       <path id="DejaVuSans-b0" d="M 1600 4347 
Q 1350 4347 1178 4173 
Q 1006 4000 1006 3750 
Q 1006 3503 1178 3333 
Q 1350 3163 1600 3163 
Q 1850 3163 2022 3333 
Q 2194 3503 2194 3750 
Q 2194 3997 2020 4172 
Q 1847 4347 1600 4347 
z
M 1600 4750 
Q 1800 4750 1984 4673 
Q 2169 4597 2303 4453 
Q 2447 4313 2519 4134 
Q 2591 3956 2591 3750 
Q 2591 3338 2302 3052 
Q 2013 2766 1594 2766 
Q 1172 2766 890 3047 
Q 609 3328 609 3750 
Q 609 4169 896 4459 
Q 1184 4750 1600 4750 
z
" transform="scale(0.015625)"/>
       <path id="DejaVuSans-29" d="M 513 4856 
L 1013 4856 
Q 1481 4119 1714 3412 
Q 1947 2706 1947 2009 
Q 1947 1309 1714 600 
Q 1481 -109 1013 -844 
L 513 -844 
Q 928 -128 1133 580 
Q 1338 1288 1338 2009 
Q 1338 2731 1133 3434 
Q 928 4138 513 4856 
z
" transform="scale(0.015625)"/>
      </defs>
      <use xlink:href="#DejaVuSans-4c"/>
      <use xlink:href="#DejaVuSans-6f" transform="translate(53.962891 0)"/>
      <use xlink:href="#DejaVuSans-6e" transform="translate(115.144531 0)"/>
      <use xlink:href="#DejaVuSans-67" transform="translate(178.523438 0)"/>
      <use xlink:href="#DejaVuSans-69" transform="translate(242 0)"/>
      <use xlink:href="#DejaVuSans-74" transform="translate(269.783203 0)"/>
      <use xlink:href="#DejaVuSans-75" transform="translate(308.992188 0)"/>
      <use xlink:href="#DejaVuSans-64" transform="translate(372.371094 0)"/>
      <use xlink:href="#DejaVuSans-65" transform="translate(435.847656 0)"/>
      <use xlink:href="#DejaVuSans-20" transform="translate(497.371094 0)"/>
      <use xlink:href="#DejaVuSans-28" transform="translate(529.158203 0)"/>
      <use xlink:href="#DejaVuSans-b0" transform="translate(568.171875 0)"/>
      <use xlink:href="#DejaVuSans-29" transform="translate(618.171875 0)"/>
     </g>
    </g>
   </g>
   <g id="matplotlib.axis_2">
    <g id="ytick_1">
     <g id="line2d_11">
      <path d="M 90 649.237303 
L 648 649.237303 
" clip-path="url(#p12b298dfd9)" style="fill: none; stroke: #b0b0b0; stroke-width: 0.8; stroke-linecap: square"/>
     </g>
     <g id="line2d_12">
      <defs>
       <path id="me9485f105b" d="M 0 0 
L -3.5 0 
" style="stroke: #000000; stroke-width: 0.8"/>
      </defs>
      <g>
       <use xlink:href="#me9485f105b" x="90" y="649.237303" style="stroke: #000000; stroke-width: 0.8"/>
      </g>
     </g>
     <g id="text_7">
      <!-- −6.4 -->
      <g transform="translate(58.717187 653.036522) scale(0.1 -0.1)">
       <use xlink:href="#DejaVuSans-2212"/>
       <use xlink:href="#DejaVuSans-36" transform="translate(83.789062 0)"/>
       <use xlink:href="#DejaVuSans-2e" transform="translate(147.412109 0)"/>
       <use xlink:href="#DejaVuSans-34" transform="translate(179.199219 0)"/>
      </g>
     </g>
    </g>
    <g id="ytick_2">
     <g id="line2d_13">
      <path d="M 90 544.285801 
L 648 544.285801 
" clip-path="url(#p12b298dfd9)" style="fill: none; stroke: #b0b0b0; stroke-width: 0.8; stroke-linecap: square"/>
     </g>
     <g id="line2d_14">
      <g>
       <use xlink:href="#me9485f105b" x="90" y="544.285801" style="stroke: #000000; stroke-width: 0.8"/>
      </g>
     </g>
     <g id="text_8">
      <!-- −6.2 -->
      <g transform="translate(58.717187 548.08502) scale(0.1 -0.1)">
       <use xlink:href="#DejaVuSans-2212"/>
       <use xlink:href="#DejaVuSans-36" transform="translate(83.789062 0)"/>
       <use xlink:href="#DejaVuSans-2e" transform="translate(147.412109 0)"/>
       <use xlink:href="#DejaVuSans-32" transform="translate(179.199219 0)"/>
      </g>
     </g>
    </g>
    <g id="ytick_3">
     <g id="line2d_15">
      <path d="M 90 439.334299 
L 648 439.334299 
" clip-path="url(#p12b298dfd9)" style="fill: none; stroke: #b0b0b0; stroke-width: 0.8; stroke-linecap: square"/>
     </g>
     <g id="line2d_16">
      <g>
       <use xlink:href="#me9485f105b" x="90" y="439.334299" style="stroke: #000000; stroke-width: 0.8"/>
      </g>
     </g>
     <g id="text_9">
      <!-- −6.0 -->
      <g transform="translate(58.717187 443.133517) scale(0.1 -0.1)">
       <use xlink:href="#DejaVuSans-2212"/>
       <use xlink:href="#DejaVuSans-36" transform="translate(83.789062 0)"/>
       <use xlink:href="#DejaVuSans-2e" transform="translate(147.412109 0)"/>
       <use xlink:href="#DejaVuSans-30" transform="translate(179.199219 0)"/>
      </g>
     </g>
    </g>
    <g id="ytick_4">
     <g id="line2d_17">
      <path d="M 90 334.382796 
L 648 334.382796 
" clip-path="url(#p12b298dfd9)" style="fill: none; stroke: #b0b0b0; stroke-width: 0.8; stroke-linecap: square"/>
     </g>
     <g id="line2d_18">
      <g>
       <use xlink:href="#me9485f105b" x="90" y="334.382796" style="stroke: #000000; stroke-width: 0.8"/>
      </g>
     </g>
     <g id="text_10">
      <!-- −5.8 -->
      <g transform="translate(58.717187 338.182015) scale(0.1 -0.1)">
       <use xlink:href="#DejaVuSans-2212"/>
       <use xlink:href="#DejaVuSans-35" transform="translate(83.789062 0)"/>
       <use xlink:href="#DejaVuSans-2e" transform="translate(147.412109 0)"/>
       <use xlink:href="#DejaVuSans-38" transform="translate(179.199219 0)"/>
      </g>
     </g>
    </g>
    <g id="ytick_5">
     <g id="line2d_19">
      <path d="M 90 229.431294 
L 648 229.431294 
" clip-path="url(#p12b298dfd9)" style="fill: none; stroke: #b0b0b0; stroke-width: 0.8; stroke-linecap: square"/>
     </g>
     <g id="line2d_20">
      <g>
       <use xlink:href="#me9485f105b" x="90" y="229.431294" style="stroke: #000000; stroke-width: 0.8"/>
      </g>
     </g>
     <g id="text_11">
      <!-- −5.6 -->
      <g transform="translate(58.717187 233.230513) scale(0.1 -0.1)">
       <use xlink:href="#DejaVuSans-2212"/>
       <use xlink:href="#DejaVuSans-35" transform="translate(83.789062 0)"/>
       <use xlink:href="#DejaVuSans-2e" transform="translate(147.412109 0)"/>
       <use xlink:href="#DejaVuSans-36" transform="translate(179.199219 0)"/>
      </g>
     </g>
    </g>
    <g id="text_12">
     <!-- Latitude (°) -->
     <g transform="translate(52.6375 464.889531) rotate(-90) scale(0.1 -0.1)">
      <defs>
       <path id="DejaVuSans-61" d="M 2194 1759 
Q 1497 1759 1228 1600 
Q 959 1441 959 1056 
Q 959 750 1161 570 
Q 1363 391 1709 391 
Q 2188 391 2477 730 
Q 2766 1069 2766 1631 
L 2766 1759 
L 2194 1759 
z
M 3341 1997 
L 3341 0 
L 2766 0 
L 2766 531 
Q 2569 213 2275 61 
Q 1981 -91 1556 -91 
Q 1019 -91 701 211 
Q 384 513 384 1019 
Q 384 1609 779 1909 
Q 1175 2209 1959 2209 
L 2766 2209 
L 2766 2266 
Q 2766 2663 2505 2880 
Q 2244 3097 1772 3097 
Q 1472 3097 1187 3025 
Q 903 2953 641 2809 
L 641 3341 
Q 956 3463 1253 3523 
Q 1550 3584 1831 3584 
Q 2591 3584 2966 3190 
Q 3341 2797 3341 1997 
z
" transform="scale(0.015625)"/>
      </defs>
      <use xlink:href="#DejaVuSans-4c"/>
      <use xlink:href="#DejaVuSans-61" transform="translate(55.712891 0)"/>
      <use xlink:href="#DejaVuSans-74" transform="translate(116.992188 0)"/>
      <use xlink:href="#DejaVuSans-69" transform="translate(156.201172 0)"/>
      <use xlink:href="#DejaVuSans-74" transform="translate(183.984375 0)"/>
      <use xlink:href="#DejaVuSans-75" transform="translate(223.193359 0)"/>
      <use xlink:href="#DejaVuSans-64" transform="translate(286.572266 0)"/>
      <use xlink:href="#DejaVuSans-65" transform="translate(350.048828 0)"/>
      <use xlink:href="#DejaVuSans-20" transform="translate(411.572266 0)"/>
      <use xlink:href="#DejaVuSans-28" transform="translate(443.359375 0)"/>
      <use xlink:href="#DejaVuSans-b0" transform="translate(482.373047 0)"/>
      <use xlink:href="#DejaVuSans-29" transform="translate(532.373047 0)"/>
     </g>
    </g>
   </g>
   <g id="patch_3">
    <path d="M 90 695.834585 
L 90 176.805415 
" style="fill: none; stroke: #000000; stroke-width: 0.8; stroke-linejoin: miter; stroke-linecap: square"/>
   </g>
   <g id="patch_4">
    <path d="M 648 695.834585 
L 648 176.805415 
" style="fill: none; stroke: #000000; stroke-width: 0.8; stroke-linejoin: miter; stroke-linecap: square"/>
   </g>
   <g id="patch_5">
    <path d="M 90 695.834585 
L 648 695.834585 
" style="fill: none; stroke: #000000; stroke-width: 0.8; stroke-linejoin: miter; stroke-linecap: square"/>
   </g>
   <g id="patch_6">
    <path d="M 90 176.805415 
L 648 176.805415 
" style="fill: none; stroke: #000000; stroke-width: 0.8; stroke-linejoin: miter; stroke-linecap: square"/>
   </g>
   <g id="legend_1">
    <g id="patch_7">
     <path d="M 279.8375 838.932294 
L 458.1625 838.932294 
Q 460.1625 838.932294 460.1625 836.932294 
L 460.1625 806.640419 
Q 460.1625 804.640419 458.1625 804.640419 
L 279.8375 804.640419 
Q 277.8375 804.640419 277.8375 806.640419 
L 277.8375 836.932294 
Q 277.8375 838.932294 279.8375 838.932294 
z
" style="fill: #ffffff; opacity: 0.8; stroke: #cccccc; stroke-linejoin: miter"/>
    </g>
    <g id="text_13">
     <!-- Legenda -->
     <g transform="translate(343.280625 817.758544) scale(0.12 -0.12)">
      <use xlink:href="#DejaVuSans-4c"/>
      <use xlink:href="#DejaVuSans-65" transform="translate(53.962891 0)"/>
      <use xlink:href="#DejaVuSans-67" transform="translate(115.486328 0)"/>
      <use xlink:href="#DejaVuSans-65" transform="translate(178.962891 0)"/>
      <use xlink:href="#DejaVuSans-6e" transform="translate(240.486328 0)"/>
      <use xlink:href="#DejaVuSans-64" transform="translate(303.865234 0)"/>
      <use xlink:href="#DejaVuSans-61" transform="translate(367.341797 0)"/>
     </g>
    </g>
    <g id="patch_8">
     <path d="M 281.8375 832.852606 
L 301.8375 832.852606 
L 301.8375 825.852606 
L 281.8375 825.852606 
L 281.8375 832.852606 
z
" style="fill: none; stroke: #000000; stroke-linejoin: miter"/>
    </g>
    <g id="text_14">
     <!-- Gleba Federal -->
     <g transform="translate(309.8375 832.852606) scale(0.1 -0.1)">
      <defs>
       <path id="DejaVuSans-47" d="M 3809 666 
L 3809 1919 
L 2778 1919 
L 2778 2438 
L 4434 2438 
L 4434 434 
Q 4069 175 3628 42 
Q 3188 -91 2688 -91 
Q 1594 -91 976 548 
Q 359 1188 359 2328 
Q 359 3472 976 4111 
Q 1594 4750 2688 4750 
Q 3144 4750 3555 4637 
Q 3966 4525 4313 4306 
L 4313 3634 
Q 3963 3931 3569 4081 
Q 3175 4231 2741 4231 
Q 1884 4231 1454 3753 
Q 1025 3275 1025 2328 
Q 1025 1384 1454 906 
Q 1884 428 2741 428 
Q 3075 428 3337 486 
Q 3600 544 3809 666 
z
" transform="scale(0.015625)"/>
       <path id="DejaVuSans-6c" d="M 603 4863 
L 1178 4863 
L 1178 0 
L 603 0 
L 603 4863 
z
" transform="scale(0.015625)"/>
       <path id="DejaVuSans-62" d="M 3116 1747 
Q 3116 2381 2855 2742 
Q 2594 3103 2138 3103 
Q 1681 3103 1420 2742 
Q 1159 2381 1159 1747 
Q 1159 1113 1420 752 
Q 1681 391 2138 391 
Q 2594 391 2855 752 
Q 3116 1113 3116 1747 
z
M 1159 2969 
Q 1341 3281 1617 3432 
Q 1894 3584 2278 3584 
Q 2916 3584 3314 3078 
Q 3713 2572 3713 1747 
Q 3713 922 3314 415 
Q 2916 -91 2278 -91 
Q 1894 -91 1617 61 
Q 1341 213 1159 525 
L 1159 0 
L 581 0 
L 581 4863 
L 1159 4863 
L 1159 2969 
z
" transform="scale(0.015625)"/>
       <path id="DejaVuSans-46" d="M 628 4666 
L 3309 4666 
L 3309 4134 
L 1259 4134 
L 1259 2759 
L 3109 2759 
L 3109 2228 
L 1259 2228 
L 1259 0 
L 628 0 
L 628 4666 
z
" transform="scale(0.015625)"/>
       <path id="DejaVuSans-72" d="M 2631 2963 
Q 2534 3019 2420 3045 
Q 2306 3072 2169 3072 
Q 1681 3072 1420 2755 
Q 1159 2438 1159 1844 
L 1159 0 
L 581 0 
L 581 3500 
L 1159 3500 
L 1159 2956 
Q 1341 3275 1631 3429 
Q 1922 3584 2338 3584 
Q 2397 3584 2469 3576 
Q 2541 3569 2628 3553 
L 2631 2963 
z
" transform="scale(0.015625)"/>
      </defs>
      <use xlink:href="#DejaVuSans-47"/>
      <use xlink:href="#DejaVuSans-6c" transform="translate(77.490234 0)"/>
      <use xlink:href="#DejaVuSans-65" transform="translate(105.273438 0)"/>
      <use xlink:href="#DejaVuSans-62" transform="translate(166.796875 0)"/>
      <use xlink:href="#DejaVuSans-61" transform="translate(230.273438 0)"/>
      <use xlink:href="#DejaVuSans-20" transform="translate(291.552734 0)"/>
      <use xlink:href="#DejaVuSans-46" transform="translate(323.339844 0)"/>
      <use xlink:href="#DejaVuSans-65" transform="translate(375.359375 0)"/>
      <use xlink:href="#DejaVuSans-64" transform="translate(436.882812 0)"/>
      <use xlink:href="#DejaVuSans-65" transform="translate(500.359375 0)"/>
      <use xlink:href="#DejaVuSans-72" transform="translate(561.882812 0)"/>
      <use xlink:href="#DejaVuSans-61" transform="translate(602.996094 0)"/>
      <use xlink:href="#DejaVuSans-6c" transform="translate(664.275391 0)"/>
     </g>
    </g>
    <g id="patch_9">
     <path d="M 399.045312 832.852606 
L 419.045312 832.852606 
L 419.045312 825.852606 
L 399.045312 825.852606 
z
" style="fill: #e0bd1f; opacity: 0.6"/>
    </g>
    <g id="text_15">
     <!-- SIGEF -->
     <g transform="translate(427.045312 832.852606) scale(0.1 -0.1)">
      <defs>
       <path id="DejaVuSans-53" d="M 3425 4513 
L 3425 3897 
Q 3066 4069 2747 4153 
Q 2428 4238 2131 4238 
Q 1616 4238 1336 4038 
Q 1056 3838 1056 3469 
Q 1056 3159 1242 3001 
Q 1428 2844 1947 2747 
L 2328 2669 
Q 3034 2534 3370 2195 
Q 3706 1856 3706 1288 
Q 3706 609 3251 259 
Q 2797 -91 1919 -91 
Q 1588 -91 1214 -16 
Q 841 59 441 206 
L 441 856 
Q 825 641 1194 531 
Q 1563 422 1919 422 
Q 2459 422 2753 634 
Q 3047 847 3047 1241 
Q 3047 1584 2836 1778 
Q 2625 1972 2144 2069 
L 1759 2144 
Q 1053 2284 737 2584 
Q 422 2884 422 3419 
Q 422 4038 858 4394 
Q 1294 4750 2059 4750 
Q 2388 4750 2728 4690 
Q 3069 4631 3425 4513 
z
" transform="scale(0.015625)"/>
       <path id="DejaVuSans-49" d="M 628 4666 
L 1259 4666 
L 1259 0 
L 628 0 
L 628 4666 
z
" transform="scale(0.015625)"/>
       <path id="DejaVuSans-45" d="M 628 4666 
L 3578 4666 
L 3578 4134 
L 1259 4134 
L 1259 2753 
L 3481 2753 
L 3481 2222 
L 1259 2222 
L 1259 531 
L 3634 531 
L 3634 0 
L 628 0 
L 628 4666 
z
" transform="scale(0.015625)"/>
      </defs>
      <use xlink:href="#DejaVuSans-53"/>
      <use xlink:href="#DejaVuSans-49" transform="translate(63.476562 0)"/>
      <use xlink:href="#DejaVuSans-47" transform="translate(92.96875 0)"/>
      <use xlink:href="#DejaVuSans-45" transform="translate(170.458984 0)"/>
      <use xlink:href="#DejaVuSans-46" transform="translate(233.642578 0)"/>
     </g>
    </g>
   </g>
  </g>
 </g>
 <defs>
  <clipPath id="p12b298dfd9">
   <rect x="90" y="176.805415" width="558" height="519.02917"/>
  </clipPath>
 </defs>
</svg>
