<?xml version="1.0" encoding="utf-8" standalone="no"?>
<!DOCTYPE svg PUBLIC "-//W3C//DTD SVG 1.1//EN"
  "http://www.w3.org/Graphics/SVG/1.1/DTD/svg11.dtd">
<svg xmlns:xlink="http://www.w3.org/1999/xlink" width="720pt" height="864pt" viewBox="0 0 720 864" xmlns="http://www.w3.org/2000/svg" version="1.1">
 <metadata>
  <rdf:RDF xmlns:dc="http://purl.org/dc/elements/1.1/" xmlns:cc="http://creativecommons.org/ns#" xmlns:rdf="http://www.w3.org/1999/02/22-rdf-syntax-ns#">
   <cc:Work>
    <dc:type rdf:resource="http://purl.org/dc/dcmitype/StillImage"/>
    <dc:date>2025-06-16T16:52:29.237695</dc:date>
    <dc:format>image/svg+xml</dc:format>
    <dc:creator>
     <cc:Agent>
      <dc:title>Matplotlib v3.10.1, https://matplotlib.org/</dc:title>
     </cc:Agent>
    </dc:creator>
   </cc:Work>
  </rdf:RDF>
 </metadata>
 <defs>
  <style type="text/css">*{stroke-linejoin: round; stroke-linecap: butt}</style>
 </defs>
 <g id="figure_1">
  <g id="patch_1">
   <path d="M 0 864 
L 720 864 
L 720 0 
L 0 0 
z
" style="fill: #ffffff"/>
  </g>
  <g id="axes_1">
   <g id="patch_2">
    <path d="M 150.117263 768.96 
L 587.882737 768.96 
L 587.882737 103.68 
L 150.117263 103.68 
z
" style="fill: #ffffff"/>
   </g>
   <g id="PatchCollection_1">
    <path d="M 457.894716 607.361263 
L 461.450141 607.531948 
L 467.440014 607.819756 
L 466.902694 614.391778 
L 467.974514 614.457326 
L 469.39445 619.378942 
L 506.957023 635.291426 
L 512.162316 623.505691 
L 520.852306 627.319549 
L 538.586226 635.15312 
L 553.345589 641.527663 
L 556.21069 625.869717 
L 567.888022 630.65212 
L 567.984306 638.069564 
L 563.814477 649.263307 
L 552.068833 644.709538 
L 551.249882 647.237859 
L 562.641599 652.29768 
L 558.701082 662.921391 
L 547.813521 690.367864 
L 538.558657 713.452061 
L 533.561104 725.750655 
L 528.170463 738.72 
L 528.037838 738.654049 
L 519.993417 735.053643 
L 519.473686 734.848983 
L 518.861669 734.665909 
L 516.12081 734.199818 
L 510.970253 733.34959 
L 506.041011 732.537324 
L 504.562512 732.286701 
L 503.161918 731.858587 
L 491.153409 727.115742 
L 491.102514 726.918496 
L 493.630857 721.134497 
L 494.930941 718.164915 
L 496.214485 715.222482 
L 487.063441 711.019784 
L 486.190053 713.004005 
L 485.563024 714.428607 
L 484.227146 706.351206 
L 483.78332 695.167464 
L 484.910265 689.215438 
L 492.011507 686.93456 
L 491.776615 679.835302 
L 488.820825 674.402121 
L 483.033486 675.03291 
L 478.9903 672.592932 
L 478.711473 664.043842 
L 478.519308 658.197743 
L 477.998383 653.504071 
L 475.83678 649.12939 
L 472.837845 646.192555 
L 471.359346 645.20641 
L 468.968042 642.574564 
L 464.77145 639.489421 
L 458.25106 634.085425 
L 455.128689 628.48956 
L 458.504332 626.627213 
L 462.901459 627.218011 
L 468.368408 626.898227 
L 469.9252 621.551 
L 462.85912 616.159394 
L 462.257487 615.008162 
L 461.532834 614.404168 
L 458.016168 607.817755 
L 457.894716 607.361263 
M 535.737506 647.555642 
L 531.956782 659.731112 
L 537.903108 662.287408 
L 542.635007 650.341781 
L 535.737506 647.555642 
M 511.988143 666.459428 
L 511.749252 666.485014 
L 506.967018 678.731631 
L 512.855013 681.333098 
L 517.22099 668.113921 
L 511.988143 666.459428 
M 524.044182 671.142294 
L 518.806142 683.934565 
L 521.720787 685.236493 
L 527.105834 671.849035 
L 524.044182 671.142294 
M 504.932446 691.837685 
L 501.000314 703.335612 
L 504.155043 704.658334 
L 508.223396 692.997709 
L 504.932446 691.837685 
" clip-path="url(#p78657c2701)" style="fill: #e0bd1f; stroke: #0000ff; stroke-width: 0.5"/>
    <path d="M 468.2151 688.871953 
L 463.129425 700.348721 
L 460.226842 698.865401 
L 465.208219 687.57538 
L 468.2151 688.871953 
" clip-path="url(#p78657c2701)" style="fill: #e0bd1f; stroke: #0000ff; stroke-width: 0.5"/>
    <path d="M 469.388989 675.990204 
L 472.295693 677.488056 
L 468.348588 688.52348 
L 465.358914 687.210548 
L 469.388989 675.990204 
" clip-path="url(#p78657c2701)" style="fill: #e0bd1f; stroke: #0000ff; stroke-width: 0.5"/>
    <path d="M 480.162194 694.317458 
L 482.92659 695.144258 
L 483.184539 695.254052 
L 484.432552 695.886453 
L 484.824092 705.85956 
L 485.055875 707.072092 
L 483.959816 709.594661 
L 475.034305 705.598634 
L 480.162194 694.317458 
" clip-path="url(#p78657c2701)" style="fill: #e0bd1f; stroke: #0000ff; stroke-width: 0.5"/>
    <path d="M 481.099746 681.619669 
L 484.090528 682.905532 
L 480.306848 693.933884 
L 477.191436 692.543233 
L 481.099746 681.619669 
" clip-path="url(#p78657c2701)" style="fill: #e0bd1f; stroke: #0000ff; stroke-width: 0.5"/>
    <path d="M 490.263113 677.053292 
L 491.776615 679.835302 
L 491.825074 681.299519 
L 490.013281 685.591618 
L 487.143181 684.285137 
L 490.263113 677.053292 
" clip-path="url(#p78657c2701)" style="fill: #e0bd1f; stroke: #0000ff; stroke-width: 0.5"/>
    <path d="M 492.241478 672.46712 
L 495.032504 673.700881 
L 491.825074 681.299519 
L 491.776615 679.835302 
L 490.263113 677.053292 
L 492.241478 672.46712 
" clip-path="url(#p78657c2701)" style="fill: #e0bd1f; stroke: #0000ff; stroke-width: 0.5"/>
    <path d="M 478.169767 680.2926 
L 481.099746 681.619669 
L 477.191436 692.543233 
L 476.692864 692.310179 
L 475.778449 691.870466 
L 474.864824 691.447144 
L 474.392638 691.237691 
L 478.169767 680.2926 
" clip-path="url(#p78657c2701)" style="fill: #e0bd1f; stroke: #0000ff; stroke-width: 0.5"/>
    <path d="M 477.87915 663.556672 
L 477.235964 665.507453 
L 474.04124 664.208284 
L 474.251913 663.570288 
L 477.87915 663.556672 
" clip-path="url(#p78657c2701)" style="fill: #e0bd1f; stroke: #0000ff; stroke-width: 0.5"/>
    <path d="M 491.825074 681.299519 
L 491.997126 686.494458 
L 490.013281 685.591618 
L 491.825074 681.299519 
" clip-path="url(#p78657c2701)" style="fill: #e0bd1f; stroke: #0000ff; stroke-width: 0.5"/>
    <path d="M 478.711473 664.043842 
L 478.9903 672.592932 
L 483.033486 675.03291 
L 488.820825 674.402121 
L 491.776615 679.835302 
L 492.011507 686.93456 
L 484.910265 689.215438 
L 483.78332 695.167464 
L 484.227146 706.351206 
L 485.563024 714.428607 
L 481.720791 723.158786 
L 480.923009 722.994491 
L 468.723558 717.710021 
L 456.911184 712.898836 
L 456.178535 712.732944 
L 455.429104 712.679786 
L 454.690055 712.755335 
L 453.976175 712.893641 
L 435.89231 716.697498 
L 418.378095 720.38744 
L 414.981283 721.10296 
L 414.300955 721.129337 
L 413.64181 721.028604 
L 413.005431 720.825944 
L 412.430173 720.501758 
L 402.350375 711.905496 
L 393.863322 704.667529 
L 381.717787 694.26487 
L 381.14693 693.778388 
L 380.597242 693.304714 
L 380.04475 692.831831 
L 379.487872 692.351753 
L 378.942168 691.884856 
L 378.394882 691.406376 
L 377.832006 690.931492 
L 377.279917 690.465402 
L 376.75659 690.00891 
L 376.226476 689.559613 
L 370.810667 684.973465 
L 370.169888 684.598523 
L 369.462407 684.350692 
L 368.743737 684.224373 
L 368.182861 684.220373 
L 361.893767 684.175201 
L 351.783207 684.070871 
L 351.567486 684.068468 
L 348.397182 684.006517 
L 345.191313 683.996919 
L 342.013416 684.000919 
L 333.26869 683.840222 
L 326.357211 681.311109 
L 328.147299 669.151627 
L 328.865178 665.351771 
L 328.985018 664.597469 
L 370.052046 664.445564 
L 478.711473 664.043842 
" clip-path="url(#p78657c2701)" style="fill: #e0bd1f; stroke: #0000ff; stroke-width: 0.5"/>
    <path d="M 404.68457 133.92 
L 405.062874 133.932405 
L 405.427602 134.057918 
L 405.760374 134.242187 
L 406.229367 134.545594 
L 406.976412 135.074038 
L 407.763393 135.843118 
L 408.142503 136.255245 
L 408.97503 137.27856 
L 409.54629 137.968508 
L 410.417964 138.806749 
L 411.1638 139.354375 
L 412.071039 140.001151 
L 413.197984 140.626328 
L 414.240639 140.948514 
L 415.228558 141.126394 
L 416.261635 141.159175 
L 417.350224 141.107615 
L 418.33695 141.182358 
L 419.868976 140.994089 
L 420.584453 140.669096 
L 421.672654 140.157446 
L 422.605047 139.771697 
L 423.471126 139.286827 
L 424.185812 138.907078 
L 425.059082 138.433001 
L 425.748587 138.028458 
L 426.470866 137.660712 
L 427.314568 137.162243 
L 427.625365 136.915606 
L 428.11514 136.576237 
L 428.613299 136.23966 
L 429.804155 135.542517 
L 431.130843 134.65391 
L 431.323396 134.435263 
L 431.468807 134.604753 
L 431.579472 134.419275 
L 435.287887 134.892561 
L 437.315671 137.30855 
L 438.20932 141.969441 
L 437.887333 146.396474 
L 439.919115 148.054579 
L 443.796512 149.354909 
L 453.213167 155.294546 
L 454.115603 160.319989 
L 454.108412 160.920385 
L 452.847634 167.120646 
L 453.842355 171.782343 
L 456.47974 181.998719 
L 456.6755 183.442953 
L 456.923178 185.270937 
L 456.388556 192.238314 
L 457.993387 199.577797 
L 463.062544 205.17676 
L 470.810852 209.097045 
L 475.54196 210.896233 
L 483.345894 215.943664 
L 491.216141 227.789767 
L 496.290793 232.960309 
L 500.261266 240.800686 
L 500.912027 243.295823 
L 501.840435 246.851848 
L 505.683474 253.967093 
L 503.011315 260.334844 
L 502.289855 266.063416 
L 438.908416 277.455027 
L 439.339457 279.690734 
L 440.7752 284.952812 
L 502.650988 277.1764 
L 503.273777 283.032903 
L 503.295349 290.499922 
L 505.436588 301.375061 
L 506.436501 310.331083 
L 505.764571 318.226216 
L 507.165166 320.671778 
L 506.991783 322.207549 
L 514.033098 328.761987 
L 515.908683 332.571441 
L 515.690157 333.345717 
L 513.149444 342.346118 
L 514.391843 346.51893 
L 515.350194 350.820465 
L 514.551636 355.687211 
L 512.951297 360.051098 
L 509.836908 363.569147 
L 506.027421 365.752502 
L 496.10103 365.429106 
L 491.743854 368.041366 
L 490.298921 372.482401 
L 487.977511 377.626176 
L 486.691968 381.291324 
L 484.066951 381.862939 
L 483.450951 388.458548 
L 480.150006 394.629625 
L 477.796252 396.777794 
L 477.917286 402.194973 
L 479.45531 406.43375 
L 479.759319 407.270797 
L 481.187872 408.820153 
L 481.802679 410.09851 
L 481.517049 419.24919 
L 480.57387 428.363909 
L 482.368344 436.72873 
L 487.874842 446.489823 
L 489.461605 451.021992 
L 490.142322 458.424657 
L 485.746388 466.307788 
L 480.579853 471.27967 
L 476.990488 476.654886 
L 476.091648 482.138822 
L 467.112836 467.585339 
L 466.212787 470.026914 
L 465.146561 470.400662 
L 462.596659 466.283814 
L 457.051014 458.37429 
L 451.14743 454.185088 
L 449.644569 451.530851 
L 442.496587 449.426255 
L 454.696441 441.144179 
L 452.302506 435.7984 
L 447.858938 433.290066 
L 435.476845 437.337128 
L 429.824438 434.144313 
L 426.700278 431.926393 
L 415.146267 439.152318 
L 416.375881 441.53672 
L 416.187326 441.685819 
L 413.515569 443.30435 
L 412.04987 443.656512 
L 411.70112 453.078221 
L 450.649271 472.573612 
L 461.508458 474.705391 
L 450.466699 492.876461 
L 458.503541 502.816225 
L 470.960261 488.708038 
L 475.329834 486.790129 
L 474.038293 494.670469 
L 472.787913 502.312172 
L 468.934879 512.904296 
L 465.928754 516.965583 
L 463.500691 521.727609 
L 461.017489 525.217281 
L 458.058104 528.901222 
L 456.302374 532.942924 
L 455.622059 537.368373 
L 452.789303 540.690152 
L 448.946666 543.262435 
L 442.44385 550.003142 
L 438.565663 553.353298 
L 438.035146 554.283479 
L 436.544264 558.989139 
L 437.94565 563.887069 
L 438.899226 567.221655 
L 444.455254 574.146227 
L 451.069123 580.442832 
L 452.026698 582.138898 
L 452.564391 584.753547 
L 453.534751 584.80872 
L 453.610641 584.943025 
L 454.732797 591.295983 
L 453.375347 591.226434 
L 454.793515 607.212164 
L 457.894716 607.361263 
L 458.016168 607.817755 
L 461.532834 614.404168 
L 462.257487 615.008162 
L 462.85912 616.159394 
L 469.9252 621.551 
L 468.368408 626.898227 
L 462.901459 627.218011 
L 458.504332 626.627213 
L 455.128689 628.48956 
L 458.25106 634.085425 
L 464.77145 639.489421 
L 468.968042 642.574564 
L 471.359346 645.20641 
L 472.837845 646.192555 
L 475.83678 649.12939 
L 477.998383 653.504071 
L 478.519308 658.197743 
L 478.711473 664.043842 
L 370.052046 664.445564 
L 328.985018 664.597469 
L 329.062923 664.108599 
L 329.466006 661.574292 
L 329.632586 657.111268 
L 326.473457 656.1651 
L 322.793805 650.666371 
L 322.215757 649.822921 
L 320.332579 646.889683 
L 319.218419 645.32113 
L 317.034036 642.122461 
L 313.703134 636.507818 
L 310.815656 630.665705 
L 307.785571 626.861057 
L 306.866755 625.697823 
L 305.947939 624.500629 
L 302.324217 628.182167 
L 299.609719 626.502894 
L 296.812125 624.726472 
L 294.088839 622.86811 
L 291.338388 621.070116 
L 286.018446 617.349796 
L 283.600766 615.985514 
L 283.344302 615.50063 
L 274.463758 620.803088 
L 273.034803 621.166446 
L 271.983361 617.984571 
L 271.375745 615.961123 
L 269.197747 616.014295 
L 268.761515 616.065856 
L 255.562941 616.02149 
L 242.502588 616.150601 
L 222.434472 615.846402 
L 216.863258 615.612156 
L 216.825708 614.652402 
L 216.944355 613.917686 
L 217.032643 613.287704 
L 217.175263 612.652929 
L 217.299102 611.975386 
L 217.482063 611.30783 
L 217.657042 610.597908 
L 217.808047 609.893973 
L 217.967437 609.198039 
L 218.09687 608.506494 
L 218.273042 607.835743 
L 218.51793 607.151005 
L 218.790372 606.481852 
L 218.999306 605.783515 
L 219.147118 605.083177 
L 219.366435 604.389243 
L 219.633686 603.695713 
L 219.86619 603.004974 
L 220.029981 602.59125 
L 220.214135 602.11156 
L 220.360754 601.707838 
L 220.541716 601.282918 
L 220.653575 600.79245 
L 220.75784 600.257199 
L 220.773818 599.705975 
L 220.844934 599.011638 
L 220.81656 598.488778 
L 220.906055 597.975127 
L 220.95639 597.614173 
L 221.059448 597.246009 
L 221.128968 596.70198 
L 221.196877 596.165132 
L 221.144946 595.612699 
L 221.121374 595.053473 
L 221.011917 594.494248 
L 220.897657 593.731557 
L 220.795793 593.359004 
L 220.614026 592.815767 
L 220.408687 592.281322 
L 220.021194 591.626559 
L 219.74635 591.112505 
L 219.412772 590.64722 
L 218.888252 590.099982 
L 218.49236 589.685453 
L 218.084085 589.284925 
L 217.376201 588.694515 
L 216.777372 588.26961 
L 216.189732 587.753945 
L 215.547758 587.340624 
L 214.811917 586.781398 
L 214.191516 586.258149 
L 213.643425 585.944755 
L 213.086934 585.582592 
L 212.534054 585.238431 
L 212.256809 585.062538 
L 211.683147 584.764743 
L 211.073532 584.462141 
L 210.425576 584.175139 
L 209.75563 583.884137 
L 209.245492 583.669072 
L 208.583542 583.378861 
L 208.418558 583.309715 
L 207.598816 582.935968 
L 206.921694 582.632964 
L 206.260536 582.347559 
L 205.823901 581.983798 
L 205.2894 581.779541 
L 204.772459 581.570478 
L 204.259919 581.396195 
L 203.784137 581.113582 
L 203.301165 580.82258 
L 202.621642 580.481599 
L 201.801899 580.030705 
L 201.301338 579.761288 
L 200.6346 579.40632 
L 199.952287 579.098927 
L 199.310313 578.725179 
L 198.832519 578.41498 
L 198.517737 578.203528 
L 198.037555 577.898926 
L 197.242175 577.398457 
L 196.73963 577.10426 
L 196.103639 576.769683 
L 195.645432 576.455094 
L 194.893613 575.918246 
L 194.383862 575.371814 
L 193.951225 574.791003 
L 193.613664 574.098264 
L 193.401926 573.560624 
L 193.099125 572.88147 
L 192.789118 572.17434 
L 192.647303 571.820178 
L 192.483915 571.266148 
L 192.450363 570.7333 
L 192.46834 570.563824 
L 192.38684 570.207259 
L 192.291362 570.075342 
L 191.895469 569.711193 
L 191.424089 569.170345 
L 190.977861 568.61712 
L 190.65507 568.1902 
L 190.313122 567.779671 
L 189.956778 567.389144 
L 189.559692 567.040566 
L 189.158205 566.702391 
L 188.744739 566.383802 
L 188.352039 566.048434 
L 187.978121 565.689077 
L 187.595819 565.339304 
L 187.173163 565.047107 
L 186.620685 564.630577 
L 186.103341 564.176877 
L 185.57084 563.729983 
L 185.069085 563.233111 
L 184.583712 562.769827 
L 184.196203 562.187807 
L 183.823882 561.582216 
L 183.515486 560.948233 
L 183.379265 560.619254 
L 183.228648 560.300665 
L 183.166736 560.144371 
L 183.290575 559.883747 
L 183.436388 559.825379 
L 183.582993 559.84377 
L 183.726419 559.874954 
L 183.92576 559.763026 
L 183.87462 559.45084 
L 183.856643 558.740516 
L 183.763566 558.01819 
L 183.651305 557.297476 
L 183.517485 556.396479 
L 183.485918 555.67775 
L 183.499911 554.957827 
L 183.53306 554.219528 
L 183.52308 553.486409 
L 183.519873 552.753708 
L 183.433196 552.028993 
L 183.387247 551.30707 
L 183.398838 550.591954 
L 183.391245 549.882018 
L 183.433987 549.526661 
L 183.589795 549.015399 
L 183.833877 548.339051 
L 183.948123 547.810607 
L 184.22337 547.136647 
L 184.488233 546.450714 
L 184.704746 545.944647 
L 184.914873 545.441789 
L 185.136189 544.747452 
L 185.251241 544.02953 
L 185.378675 543.3204 
L 185.421431 542.96903 
L 185.54327 542.631661 
L 185.739016 542.126803 
L 185.907998 541.412075 
L 186.121318 540.887617 
L 186.427729 540.409136 
L 186.734932 539.929058 
L 187.009373 539.425394 
L 187.202731 538.88656 
L 187.326167 538.527995 
L 187.62418 537.81367 
L 187.971736 537.122139 
L 188.314892 536.428997 
L 188.654452 535.739064 
L 188.901741 535.005945 
L 189.114658 534.470306 
L 189.574865 533.850324 
L 190.041859 533.235135 
L 190.533633 532.643128 
L 190.936716 531.994352 
L 191.396922 531.392761 
L 191.881491 530.813548 
L 192.384841 530.25792 
L 192.889386 529.70789 
L 193.411116 529.165847 
L 193.671981 528.896027 
L 194.103021 528.53667 
L 194.492529 528.129336 
L 194.828494 527.673635 
L 195.221984 527.27351 
L 195.686577 526.682309 
L 196.135206 526.079107 
L 196.48515 525.641797 
L 196.718058 525.131341 
L 197.064003 524.71602 
L 197.163077 524.555322 
L 197.446708 524.079633 
L 197.55257 523.725471 
L 197.873765 523.278175 
L 198.073897 522.750522 
L 198.393496 522.070187 
L 198.734653 521.400631 
L 199.027071 520.710683 
L 199.313909 520.026751 
L 199.648277 519.359986 
L 199.792092 519.013422 
L 199.906741 518.46699 
L 200.005009 517.921752 
L 200.030579 517.182647 
L 200.0186 516.447931 
L 199.988629 515.717216 
L 200.031773 515.358262 
L 200.217136 514.830609 
L 200.422071 514.303359 
L 200.610626 513.77172 
L 200.844728 513.261264 
L 201.237025 512.618891 
L 201.537036 511.933347 
L 201.634916 511.198631 
L 201.763946 510.469916 
L 201.879401 509.726824 
L 202.047175 508.991705 
L 202.04158 508.231418 
L 202.135462 507.682985 
L 202.268088 506.945477 
L 202.267297 506.195579 
L 202.240131 505.448876 
L 202.147054 504.71416 
L 201.999241 503.985848 
L 201.89338 503.246339 
L 201.7999 502.512026 
L 201.705615 501.765726 
L 201.679657 501.583846 
L 201.704019 500.829962 
L 201.697634 500.078855 
L 201.623325 499.325762 
L 201.520942 498.567844 
L 201.379408 497.820022 
L 201.231783 497.084283 
L 201.053479 496.555257 
L 200.922589 496.017856 
L 200.700731 495.505145 
L 200.465395 495.021802 
L 200.214465 494.516847 
L 199.970771 494.009824 
L 199.708211 493.508102 
L 199.597714 493.141995 
L 199.683621 492.39792 
L 199.769377 491.667108 
L 199.828665 490.930402 
L 199.726812 490.162228 
L 199.595988 489.418976 
L 199.481069 488.663395 
L 199.247925 487.936624 
L 198.991134 487.217097 
L 198.701626 486.522355 
L 198.355112 485.857431 
L 197.988566 485.200538 
L 197.539667 484.593708 
L 197.12737 483.955337 
L 196.664896 483.357068 
L 196.209663 482.75348 
L 195.725716 482.176633 
L 195.221328 481.620951 
L 194.687709 481.09149 
L 194.141534 480.579954 
L 193.626903 480.050264 
L 193.044235 479.583793 
L 192.465814 479.127213 
L 191.934507 478.606599 
L 191.378879 478.111304 
L 190.797288 477.647032 
L 190.23562 477.163745 
L 189.689849 476.664786 
L 189.301599 476.258315 
L 188.770207 475.710915 
L 188.259738 475.163678 
L 187.761572 474.595655 
L 187.268445 474.0266 
L 186.782576 473.442212 
L 186.286748 472.865871 
L 185.80981 472.269664 
L 185.343869 471.660992 
L 184.889175 471.045836 
L 184.444447 470.417693 
L 183.98976 469.797856 
L 183.547845 469.165088 
L 183.079642 468.556691 
L 182.66258 467.907928 
L 182.222752 467.280349 
L 181.843643 466.607598 
L 181.483302 465.92804 
L 181.056259 465.292877 
L 180.628008 464.662491 
L 180.176589 464.042509 
L 179.780074 463.38899 
L 179.331438 462.782949 
L 178.868183 462.1921 
L 178.464541 461.555573 
L 178.069066 460.899424 
L 177.723841 460.238153 
L 177.402923 459.560277 
L 177.134356 458.855177 
L 176.889947 458.146214 
L 176.694137 457.413922 
L 176.5166 456.066974 
L 176.498571 455.293224 
L 176.44475 454.53008 
L 176.462093 453.767049 
L 176.463034 453.002821 
L 176.470943 452.243027 
L 176.486142 451.692863 
L 176.568634 451.140986 
L 176.673138 450.388367 
L 176.759702 449.627396 
L 176.77305 448.856947 
L 176.825526 448.090201 
L 176.839863 447.512468 
L 176.876319 446.748297 
L 176.858668 445.978578 
L 176.803042 445.21036 
L 176.788851 444.457682 
L 176.774111 443.890306 
L 176.798101 443.332874 
L 176.972341 442.582575 
L 177.045819 442.010917 
L 177.324479 441.302916 
L 177.496193 440.763143 
L 177.775683 440.101565 
L 177.92553 439.835486 
L 178.115725 439.536441 
L 178.393271 439.126482 
L 178.750584 438.583751 
L 179.175858 437.941389 
L 179.598304 437.53855 
L 180.234455 437.082214 
L 180.837154 436.626604 
L 181.296945 436.293914 
L 181.618582 436.100796 
L 182.145612 435.883945 
L 182.663371 435.648614 
L 183.187263 435.456205 
L 183.912888 435.267494 
L 184.471628 435.173838 
L 184.843949 435.111097 
L 185.594447 435.04024 
L 186.149618 434.999113 
L 186.720184 434.941625 
L 187.512504 434.887348 
L 187.904795 434.856627 
L 188.486833 434.897076 
L 188.870727 434.950736 
L 189.607701 435.189997 
L 190.232235 435.643905 
L 190.711529 435.976128 
L 190.985803 436.258483 
L 191.310762 436.754701 
L 191.59073 437.278937 
L 191.85363 437.81641 
L 192.205375 438.528535 
L 192.572903 439.22365 
L 192.924146 439.938983 
L 193.298466 440.633723 
L 193.689555 441.294084 
L 194.116612 441.975224 
L 194.554843 442.66038 
L 195.060984 443.282765 
L 195.458876 443.720463 
L 195.957035 444.313664 
L 196.502232 444.851288 
L 197.107125 445.313491 
L 197.758705 445.735845 
L 198.428255 446.147695 
L 198.951853 446.397416 
L 199.650587 446.730638 
L 200.202843 446.907063 
L 200.780572 446.981837 
L 201.541644 447.095391 
L 202.296938 447.1867 
L 203.037111 447.284487 
L 203.808145 447.470489 
L 204.221175 447.519931 
L 204.803624 447.430394 
L 205.376882 447.328855 
L 206.165863 447.40321 
L 206.746715 447.380819 
L 207.308785 447.192549 
L 207.886445 447.111402 
L 208.484871 447.10861 
L 209.060532 446.995876 
L 209.761225 446.662896 
L 210.432766 446.235588 
L 211.0967 445.823461 
L 211.760246 445.409737 
L 212.446557 445.014404 
L 213.156052 444.683828 
L 213.699622 444.483704 
L 214.20013 444.218688 
L 214.705727 443.92 
L 215.237312 443.686892 
L 215.876656 443.260454 
L 216.51085 442.823213 
L 217.135033 442.345124 
L 217.741624 441.800296 
L 218.370172 441.255892 
L 218.944938 440.661207 
L 219.494522 440.064272 
L 219.999651 439.483002 
L 220.391535 439.05149 
L 220.702399 438.812702 
L 221.185476 438.459748 
L 221.650368 438.090509 
L 222.11113 437.718533 
L 222.674968 437.173894 
L 223.177209 436.53865 
L 223.63336 436.141308 
L 224.154269 435.544063 
L 224.648615 434.918558 
L 225.028325 434.498622 
L 225.200514 433.930604 
L 225.443402 433.404146 
L 225.639148 432.856116 
L 225.903608 432.121012 
L 226.251956 431.43187 
L 226.649833 430.760716 
L 226.985409 430.033598 
L 227.279424 429.293687 
L 227.640556 428.586572 
L 227.87785 427.846258 
L 228.103164 427.102361 
L 228.421555 426.380438 
L 228.695205 425.646125 
L 228.990816 424.901422 
L 229.440236 424.222281 
L 229.807366 423.516346 
L 230.052656 422.771643 
L 230.339479 422.002563 
L 230.580771 421.212688 
L 230.784902 420.412827 
L 230.939905 419.602561 
L 231.096504 418.801102 
L 231.164816 417.988045 
L 231.300246 417.188169 
L 231.236321 416.369514 
L 231.190775 415.555665 
L 231.097698 414.750205 
L 230.974665 413.939537 
L 230.724988 413.154469 
L 230.461319 412.390569 
L 230.170497 411.628281 
L 229.738249 410.939139 
L 229.238493 410.304364 
L 228.709975 409.709163 
L 228.107565 409.205499 
L 227.606602 408.731811 
L 227.163581 408.390039 
L 226.818024 408.109829 
L 226.408153 407.827619 
L 226.213198 407.591372 
L 226.104949 407.155271 
L 225.806922 406.496507 
L 225.479356 405.869719 
L 225.146181 405.215359 
L 224.871739 404.530218 
L 224.545755 403.751942 
L 224.214982 402.964859 
L 223.832277 402.170998 
L 223.479529 401.690114 
L 223.263405 401.323159 
L 223.201493 400.980582 
L 222.997348 400.518103 
L 222.730888 399.994839 
L 222.337009 399.563933 
L 221.877594 398.955939 
L 221.41339 398.347945 
L 220.930015 397.785525 
L 220.405495 397.283861 
L 219.895759 396.807769 
L 219.390797 396.338484 
L 218.851896 395.93715 
L 218.346546 395.436293 
L 217.936287 395.111703 
L 217.499249 394.87347 
L 216.987902 394.46094 
L 216.447807 394.062398 
L 215.91089 393.660273 
L 215.41194 393.241757 
L 214.873829 392.826033 
L 214.319741 392.521834 
L 213.794027 392.131696 
L 213.240744 391.747545 
L 212.687849 391.377798 
L 212.11459 391.041624 
L 211.560905 390.701449 
L 211.016006 390.344481 
L 210.483102 389.941953 
L 209.904637 389.631768 
L 209.370524 389.278397 
L 208.806052 388.99859 
L 208.259169 388.684793 
L 207.697084 388.431767 
L 207.171371 388.115178 
L 206.618879 387.855345 
L 206.075576 387.533562 
L 205.563036 387.191387 
L 205.062892 386.860005 
L 204.577907 386.480271 
L 204.196798 386.196061 
L 203.836069 385.917837 
L 203.485722 385.600845 
L 203.015535 385.189927 
L 202.592476 384.787399 
L 202.196181 384.327295 
L 201.793112 383.858815 
L 201.370053 383.413116 
L 200.97895 382.936233 
L 200.623814 382.409386 
L 200.290251 381.872135 
L 199.937905 381.36768 
L 199.619515 380.820442 
L 199.397393 380.395925 
L 199.056639 379.857882 
L 198.761819 379.281863 
L 198.453021 378.735834 
L 198.149803 378.204987 
L 197.876152 377.660555 
L 197.600115 377.120512 
L 197.353229 376.570871 
L 197.039641 376.043233 
L 196.803138 375.457227 
L 196.527892 374.87361 
L 196.25545 374.328775 
L 195.974609 373.79233 
L 195.690575 373.26108 
L 195.422922 372.730635 
L 195.196011 372.199399 
L 194.979096 371.601795 
L 194.770968 371.008594 
L 194.558841 370.389404 
L 194.374673 369.761422 
L 194.210091 369.115451 
L 194.043899 368.474287 
L 193.838561 367.847096 
L 193.651602 367.221919 
L 193.473042 366.590339 
L 193.256515 365.983137 
L 192.97648 365.411924 
L 192.735993 364.851505 
L 192.521062 364.263887 
L 192.255811 363.713051 
L 191.996139 363.167022 
L 191.742077 362.61859 
L 191.476408 362.086548 
L 191.168013 361.603664 
L 190.917934 361.09161 
L 190.665065 360.579154 
L 190.428562 360.053502 
L 190.175693 359.533044 
L 189.920825 359.030589 
L 189.703507 358.508937 
L 189.486189 357.99048 
L 189.298424 357.46523 
L 189.126652 356.943981 
L 188.96965 356.405939 
L 188.829431 355.84031 
L 188.697194 355.268695 
L 188.572967 354.854971 
L 188.502656 354.273354 
L 188.416755 353.838447 
L 188.319292 353.27243 
L 188.244983 352.697606 
L 188.207434 352.1156 
L 188.213431 351.725462 
L 188.39399 351.372092 
L 188.600119 351.041919 
L 188.847005 350.779682 
L 189.14263 350.4719 
L 189.389114 350.338789 
L 189.687917 350.169299 
L 190.084212 349.925065 
L 190.557995 349.663635 
L 191.070132 349.46817 
L 191.477616 349.387023 
L 192.005732 349.301472 
L 192.479917 349.172361 
L 192.926145 349.066031 
L 193.205777 349.096812 
L 193.570117 349.19635 
L 193.946825 349.345852 
L 194.201304 349.370229 
L 194.453368 349.245508 
L 194.799328 349.066031 
L 195.186031 348.83659 
L 195.509613 348.56277 
L 195.749697 348.148643 
L 195.934269 347.663773 
L 196.214707 347.227657 
L 196.422835 346.750371 
L 196.597009 346.252305 
L 196.753608 345.739057 
L 196.752415 345.223392 
L 196.697679 344.521471 
L 196.621774 343.997013 
L 196.534694 343.476959 
L 196.425625 342.963711 
L 196.25545 342.297349 
L 196.090466 341.654573 
L 195.936268 340.99981 
L 195.832002 340.355452 
L 195.71255 339.700286 
L 195.558755 339.08029 
L 195.420923 338.600615 
L 195.320253 337.950644 
L 195.23556 337.471774 
L 195.013856 337.014879 
L 194.868834 336.349712 
L 194.733806 335.685768 
L 194.603582 335.209273 
L 194.341523 334.774769 
L 194.188117 334.293885 
L 194.053492 333.793431 
L 193.735101 333.186631 
L 193.411518 332.599416 
L 193.127887 332.0238 
L 192.924951 331.502148 
L 192.722403 331.215549 
L 192.439577 330.642322 
L 192.117993 330.0835 
L 191.805862 329.600273 
L 191.615836 329.23887 
L 191.521452 328.835347 
L 191.614643 328.440203 
L 191.778225 328.040159 
L 191.872301 327.63034 
L 191.914252 327.097896 
L 191.947401 326.581842 
L 192.030497 326.027005 
L 192.048876 325.437402 
L 191.960991 324.877371 
L 191.986159 324.314145 
L 191.837944 323.778103 
L 191.744076 323.219281 
L 191.523953 322.690837 
L 191.316616 322.169185 
L 191.169609 321.611154 
L 190.967478 321.120686 
L 190.667064 320.59063 
L 190.518446 320.042601 
L 190.268769 319.589303 
L 189.974352 319.116823 
L 189.839728 318.529206 
L 189.783396 317.916822 
L 189.74225 317.320412 
L 189.858107 316.890298 
L 190.064639 316.356256 
L 190.196071 315.983703 
L 190.2476 315.603163 
L 190.176498 315.210622 
L 190.010709 314.700972 
L 189.82654 314.153331 
L 189.618814 313.631276 
L 189.487785 313.295908 
L 189.469405 312.801828 
L 189.413073 312.2462 
L 189.326382 311.743342 
L 189.125042 311.214495 
L 189.086298 310.831552 
L 188.937292 310.529742 
L 188.64647 310.104837 
L 188.402777 309.570795 
L 188.215415 309.064325 
L 188.12474 308.533478 
L 187.972139 307.885118 
L 187.86028 307.378246 
L 187.722851 306.922962 
L 187.496343 306.398504 
L 187.303804 305.798899 
L 187.129228 305.192114 
L 186.979819 304.586509 
L 186.883535 303.96693 
L 186.772481 303.344545 
L 186.684999 302.722952 
L 186.605901 302.097776 
L 186.581525 301.480586 
L 186.609497 300.845408 
L 186.596711 300.364539 
L 186.533591 299.758933 
L 186.562757 299.140146 
L 186.56874 298.524554 
L 186.515614 297.924561 
L 186.552762 297.305774 
L 186.543184 296.684583 
L 186.57035 296.046614 
L 186.590714 295.397449 
L 186.577138 294.761868 
L 186.577929 294.133886 
L 186.533189 293.518308 
L 186.541976 292.88313 
L 186.538783 292.265537 
L 186.581136 291.601176 
L 186.576333 290.957608 
L 186.594712 290.324431 
L 186.581136 289.692851 
L 186.553164 289.080467 
L 186.521209 288.477265 
L 186.527997 287.86527 
L 186.473664 287.262874 
L 186.449704 286.660881 
L 186.392969 286.033301 
L 186.388971 285.404915 
L 186.312275 284.783337 
L 186.285914 284.160952 
L 186.199625 283.552152 
L 186.146486 282.925767 
L 186.047024 282.330163 
L 185.969119 281.748949 
L 185.864854 281.154956 
L 185.796542 280.531766 
L 185.733019 279.876211 
L 185.583222 279.243422 
L 185.450985 278.61744 
L 185.349524 277.987472 
L 185.243662 277.353086 
L 185.135801 276.714713 
L 185.062283 276.065145 
L 184.973607 275.416786 
L 184.901297 274.765217 
L 184.86415 274.094064 
L 184.803417 273.412117 
L 184.74789 272.746561 
L 184.681577 272.074616 
L 184.645624 271.225971 
L 184.622052 270.545636 
L 184.636434 269.872885 
L 184.669195 269.180146 
L 184.651621 268.503394 
L 184.683174 267.842242 
L 184.685978 267.220246 
L 184.705148 266.647033 
L 184.67919 266.099392 
L 184.613265 265.531777 
L 184.503017 264.949369 
L 184.417922 264.359363 
L 184.303662 263.787345 
L 184.201007 263.217715 
L 184.077959 262.650906 
L 183.979288 262.091278 
L 183.906978 261.545638 
L 183.805114 260.986412 
L 183.68687 260.419186 
L 183.533463 259.881949 
L 183.44437 259.287151 
L 183.320143 258.709535 
L 183.219473 258.14831 
L 183.114805 257.575082 
L 182.962994 257.011468 
L 182.846749 256.430254 
L 182.752867 255.840248 
L 182.689747 255.231448 
L 182.588674 254.644636 
L 182.555525 254.061825 
L 182.517975 253.46743 
L 182.479217 252.833058 
L 182.457256 252.192283 
L 182.488407 251.734985 
L 182.481619 251.127393 
L 182.470027 250.523788 
L 182.498402 249.927795 
L 182.578693 249.3138 
L 182.690552 248.661037 
L 182.787224 247.969896 
L 182.986566 247.257168 
L 183.186309 246.752713 
L 183.388052 246.161498 
L 183.529062 245.485552 
L 183.867026 244.879558 
L 184.135888 244.255979 
L 184.243346 243.673571 
L 184.324443 243.262235 
L 184.439092 243.035587 
L 184.666405 242.88489 
L 184.679578 242.583095 
L 184.495021 241.948709 
L 184.359591 241.338326 
L 184.228159 240.727928 
L 184.114315 240.039995 
L 184.036814 239.606672 
L 183.875814 239.202949 
L 183.694852 238.786822 
L 183.521483 238.358305 
L 183.339314 237.867434 
L 183.141971 237.394551 
L 182.913867 236.84173 
L 182.67817 236.245723 
L 182.384946 235.691289 
L 182.093319 235.14526 
L 181.818073 234.576034 
L 181.556805 233.987222 
L 181.262388 233.418801 
L 180.965972 232.853978 
L 180.620817 232.337133 
L 180.339977 231.814675 
L 180.119466 231.197097 
L 179.78829 230.652247 
L 179.525037 230.063853 
L 179.193056 229.501821 
L 178.845902 228.966182 
L 178.510743 228.438932 
L 178.162784 227.903293 
L 177.821627 227.406421 
L 177.498044 226.867976 
L 177.122933 226.371104 
L 176.734634 225.893027 
L 176.408247 225.385765 
L 176.056304 224.854918 
L 175.700363 224.331668 
L 175.407946 223.947128 
L 175.050408 223.410683 
L 174.650518 222.961386 
L 174.400439 222.571248 
L 174.094042 222.222684 
L 173.726107 221.783374 
L 173.374164 221.312491 
L 173.046196 220.852387 
L 172.688658 220.420287 
L 172.364673 219.990575 
L 172.057471 219.552459 
L 171.823772 219.213091 
L 171.564906 218.925686 
L 171.357972 218.614292 
L 171.177801 218.256921 
L 170.983249 217.856796 
L 170.735572 217.400304 
L 170.556206 216.953798 
L 170.383629 216.534477 
L 170.264579 216.135143 
L 170.129552 215.753798 
L 170.046067 215.359659 
L 170.015694 214.964326 
L 170.094792 214.685714 
L 170.341678 214.284783 
L 170.669661 213.895033 
L 171.043176 213.477309 
L 171.431073 213.089574 
L 171.837751 212.707825 
L 172.24443 212.352872 
L 172.670682 212.012697 
L 173.019029 211.590972 
L 173.396139 211.225615 
L 173.817602 210.893038 
L 174.22267 210.531278 
L 174.628543 210.156725 
L 175.030433 209.771782 
L 175.298891 209.528354 
L 175.569737 209.272521 
L 175.858157 208.995506 
L 176.201715 208.67732 
L 176.629966 208.311962 
L 177.224006 207.845469 
L 177.830026 207.419758 
L 178.291023 207.101974 
L 178.897445 206.666262 
L 179.371631 206.378857 
L 179.823452 206.083048 
L 180.280063 205.811631 
L 180.736272 205.549409 
L 181.356673 205.243613 
L 181.997841 204.923427 
L 182.624628 204.590044 
L 183.263811 204.275053 
L 183.896595 203.940879 
L 184.564527 203.635889 
L 185.237665 203.370458 
L 185.923976 203.161395 
L 186.596711 202.925162 
L 187.272639 202.68972 
L 187.961353 202.49545 
L 188.483471 202.380327 
L 189.208138 202.232422 
L 189.930014 202.041347 
L 190.468916 201.876663 
L 191.028196 201.733148 
L 191.583881 201.582451 
L 192.148353 201.440951 
L 192.711616 201.295449 
L 193.453469 201.058008 
L 193.985583 200.851347 
L 194.677488 200.511173 
L 195.215987 200.303303 
L 195.90191 199.963532 
L 196.396071 199.662139 
L 196.896229 199.375526 
L 197.409963 199.132486 
L 197.768291 198.909032 
L 198.106256 198.713567 
L 198.42945 198.564872 
L 198.776992 198.365406 
L 199.03547 198.113963 
L 199.349862 197.967267 
L 199.685827 197.767802 
L 199.990628 197.535555 
L 200.31142 197.364871 
L 200.657769 197.211368 
L 200.897062 197.088647 
L 201.270174 196.919963 
L 201.635707 196.704913 
L 202.037194 196.616167 
L 202.414707 196.527825 
L 202.777839 196.430689 
L 203.067466 196.18765 
L 203.436192 196.03455 
L 203.727805 196.035759 
L 203.980688 196.011368 
L 204.265513 195.801109 
L 204.580711 195.596852 
L 204.807219 195.321434 
L 205.165561 195.159139 
L 205.539076 195.022028 
L 205.938953 194.73822 
L 208.398985 194.675464 
L 208.616303 194.582329 
L 208.796474 194.535157 
L 208.901142 194.541158 
L 209.152415 194.510377 
L 209.483188 194.412839 
L 209.798775 194.262531 
L 209.962968 194.220166 
L 210.316507 194.258142 
L 210.669658 194.37246 
L 211.019601 194.487986 
L 211.389133 194.503973 
L 211.757456 194.477999 
L 212.291166 194.398046 
L 212.835259 194.342484 
L 213.640217 194.233362 
L 213.992175 194.164605 
L 214.379668 194.086652 
L 214.747992 193.898785 
L 215.156266 193.737282 
L 215.363201 193.758479 
L 215.934864 193.889187 
L 216.939163 193.807637 
L 217.982624 193.624562 
L 218.563476 193.409109 
L 219.444728 192.92303 
L 220.715099 192.196718 
L 221.321507 192.012435 
L 222.436069 191.46121 
L 223.542649 190.901985 
L 224.493018 190.513445 
L 225.443402 190.110513 
L 226.400962 189.713972 
L 227.379303 189.298247 
L 228.543797 188.928501 
L 229.554885 188.725826 
L 230.804475 188.428837 
L 232.057257 188.122638 
L 233.263702 187.82244 
L 234.271611 187.533827 
L 235.295484 187.309178 
L 236.75999 187.171275 
L 237.819428 187.123297 
L 238.900438 187.207251 
L 240.187578 187.316373 
L 241.054463 187.482266 
L 242.116288 187.702511 
L 243.196493 187.953551 
L 243.79932 188.093858 
L 245.015344 188.265736 
L 246.252551 188.284933 
L 247.299606 188.244957 
L 248.549181 188.16981 
L 249.569473 188.024294 
L 250.346474 187.840025 
L 250.9405 187.618572 
L 251.375539 187.487461 
L 251.821363 187.35835 
L 252.472929 187.175261 
L 252.8828 187.050151 
L 253.289867 186.887453 
L 253.871928 186.54489 
L 254.403236 186.185533 
L 254.708842 185.917713 
L 255.117519 185.497585 
L 255.34722 185.194193 
L 255.568133 184.882396 
L 255.723136 184.544625 
L 255.760686 184.357549 
L 255.819003 183.958619 
L 256.047913 183.592858 
L 256.146986 183.40338 
L 256.439016 182.844154 
L 256.762599 182.112245 
L 256.872847 181.523433 
L 257.10016 180.544094 
L 257.190447 179.951282 
L 257.261146 179.35408 
L 257.35743 178.543426 
L 257.484461 177.537696 
L 257.564364 176.534771 
L 257.661827 175.954349 
L 257.788068 175.186866 
L 257.921096 174.435774 
L 257.941072 173.673874 
L 258.081694 173.127845 
L 258.171175 172.571008 
L 258.281438 172.032966 
L 258.43483 171.51012 
L 258.587834 171.004456 
L 258.724458 170.509196 
L 258.898243 169.852432 
L 259.090782 169.179681 
L 259.278144 168.489331 
L 259.367625 168.144364 
L 259.429552 167.611919 
L 259.443128 167.081878 
L 259.843824 166.53464 
L 260.620019 166.323187 
L 261.499286 166.441908 
L 262.330203 166.796473 
L 262.912652 167.148232 
L 263.617745 167.706263 
L 264.478245 168.456161 
L 265.115818 169.101326 
L 265.907991 169.872421 
L 266.427319 170.246571 
L 267.325369 170.846161 
L 267.861869 171.194337 
L 268.80266 171.655621 
L 269.941987 172.117322 
L 271.100901 172.554229 
L 271.724495 172.71012 
L 272.745966 173.021514 
L 273.818995 173.138235 
L 274.896395 173.329713 
L 275.993786 173.439627 
L 277.087179 173.436835 
L 278.164982 173.43603 
L 279.222421 173.265345 
L 280.242296 172.952757 
L 281.021296 172.636571 
L 281.580576 172.307995 
L 282.300051 171.885076 
L 282.801805 171.477741 
L 283.268397 171.023249 
L 283.858841 170.409657 
L 284.377767 169.758492 
L 284.899095 168.817115 
L 285.339325 167.826581 
L 285.736411 166.823642 
L 286.057204 166.032976 
L 286.30967 165.243102 
L 286.587318 164.090676 
L 286.691584 163.494266 
L 286.921284 162.757161 
L 287.049524 162.219521 
L 287.353533 161.17662 
L 287.617188 160.280012 
L 287.82093 159.609261 
L 288.03146 159.096805 
L 288.312689 158.253772 
L 288.422549 157.913195 
L 288.744133 157.243639 
L 289.350958 156.651632 
L 290.365238 156.169165 
L 291.037571 156.027247 
L 292.132157 155.906929 
L 293.210377 155.970088 
L 294.017335 156.189542 
L 294.849057 156.316264 
L 295.857355 156.522924 
L 296.862057 156.669231 
L 297.889137 156.565693 
L 299.148707 156.452973 
L 300.613616 156.204335 
L 301.659075 155.991674 
L 302.862716 155.681489 
L 303.458755 155.464036 
L 304.45467 155.122264 
L 305.635948 154.722527 
L 306.602697 154.391145 
L 307.351324 154.147314 
L 307.892627 153.98502 
L 308.651248 153.815127 
L 309.236904 153.766357 
L 309.970746 153.635247 
L 310.475305 153.368621 
L 310.83684 152.922922 
L 311.05295 152.651505 
L 311.426868 152.267756 
L 311.681347 152.014327 
L 312.049268 151.58781 
L 312.442759 151.199269 
L 313.082733 150.918268 
L 313.598869 150.898279 
L 314.077052 150.630848 
L 314.356699 150.131185 
L 314.619549 149.469227 
L 314.79693 148.959576 
L 315.068581 148.47829 
L 315.45967 148.000615 
L 316.078877 147.445779 
L 316.881031 146.78182 
L 317.604504 146.142253 
L 318.064711 145.731724 
L 318.562064 145.361574 
L 319.086196 145.01301 
L 319.818845 144.530126 
L 320.449629 144.266307 
L 321.112384 144.052048 
L 321.552212 143.922132 
L 322.203763 143.720263 
L 322.862922 143.59275 
L 323.519277 143.479627 
L 324.377361 143.394882 
L 325.439201 143.270966 
L 326.725937 143.112269 
L 327.788971 142.988756 
L 328.839205 142.846047 
L 329.825542 142.525069 
L 330.781908 142.182088 
L 331.737872 141.835121 
L 332.516469 141.532923 
L 333.144449 141.400215 
L 333.985764 141.281897 
L 334.821498 141.213542 
L 335.445092 141.203541 
L 336.314365 141.319067 
L 337.197227 141.555314 
L 338.019371 141.893086 
L 338.594629 142.231663 
L 339.167888 142.589423 
L 339.680026 143.033928 
L 340.347167 143.649909 
L 341.23722 144.339856 
L 341.96508 144.805141 
L 342.869903 145.279621 
L 343.48471 145.655369 
L 344.413118 146.295741 
L 345.293579 146.94931 
L 345.693067 147.355047 
L 345.841671 147.765965 
L 345.860453 148.225263 
L 345.652713 149.366897 
L 345.405438 150.263505 
L 345.15336 150.903474 
L 344.822587 151.740521 
L 344.438286 152.800604 
L 343.902577 154.068167 
L 343.426796 155.33612 
L 343.193485 156.678815 
L 343.151952 157.565034 
L 343.280579 159.140379 
L 343.326514 159.35743 
L 343.733595 160.374356 
L 343.989671 161.007936 
L 344.394336 161.810201 
L 344.775056 162.327449 
L 345.59559 163.161689 
L 346.146888 163.571816 
L 346.53838 163.781685 
L 347.497939 164.109455 
L 347.864666 164.137847 
L 348.647261 163.971552 
L 349.795375 163.426717 
L 350.729766 162.863491 
L 351.35336 162.309461 
L 351.965377 161.697466 
L 352.434773 161.240168 
L 353.192187 160.476283 
L 354.063875 159.490138 
L 354.737804 158.705861 
L 355.552355 157.766499 
L 356.062493 157.144906 
L 356.453985 156.678413 
L 356.865453 156.231519 
L 357.615287 155.576756 
L 358.096663 155.229386 
L 358.424243 155.008335 
L 359.11136 154.614599 
L 359.788079 154.190083 
L 360.280255 153.871091 
L 360.76642 153.562503 
L 361.222628 153.242705 
L 361.524251 153.048046 
L 361.77233 152.781824 
L 361.946892 152.466833 
L 362.065151 151.735311 
L 362.103104 151.356772 
L 362.162614 150.977427 
L 362.349976 150.446176 
L 362.608439 150.16837 
L 363.030304 149.810207 
L 363.315934 149.585947 
L 363.727402 149.239383 
L 364.055385 148.79967 
L 364.304256 148.316398 
L 364.516383 147.617672 
L 364.679367 147.094408 
L 364.897894 146.595954 
L 365.060476 146.273767 
L 365.242243 145.96197 
L 365.574613 145.517062 
L 365.931359 145.354782 
L 366.489445 145.112534 
L 367.081472 145.021803 
L 367.656327 144.911874 
L 368.234389 144.848312 
L 369.033351 144.843923 
L 369.827926 145.136523 
L 370.379627 145.4731 
L 370.803879 145.951178 
L 371.149034 146.481219 
L 371.336381 146.878164 
L 371.533738 147.508535 
L 371.732274 148.789683 
L 371.774224 149.633522 
L 371.714297 150.719191 
L 371.584864 151.585421 
L 371.477003 152.473625 
L 371.387119 153.14557 
L 371.35955 154.022996 
L 371.409885 154.686954 
L 371.5581 155.792612 
L 371.671958 156.441777 
L 372.036686 157.235652 
L 372.358672 157.802475 
L 372.767738 158.307736 
L 373.286664 158.716654 
L 373.670174 158.952095 
L 374.047687 159.151172 
L 374.607772 159.389016 
L 375.331231 159.634445 
L 375.974398 159.717995 
L 375.989585 159.703605 
L 376.208902 159.579689 
L 376.822903 159.402198 
L 377.378588 159.299868 
L 378.386095 159.051634 
L 379.415562 158.771021 
L 380.224921 158.607532 
L 381.375437 158.192613 
L 382.655788 157.835645 
L 383.83626 157.444313 
L 385.07666 157.208468 
L 386.471661 156.882281 
L 387.73323 156.719195 
L 389.133034 156.5549 
L 390.542804 156.279482 
L 391.953394 155.922917 
L 393.141057 155.638318 
L 394.251621 155.164226 
L 395.450473 154.561427 
L 396.375286 154.060972 
L 397.148289 153.619259 
L 398.072699 152.979692 
L 398.743436 152.665104 
L 399.573964 152.141451 
L 400.261872 151.736117 
L 401.157117 151.193685 
L 401.965268 150.592886 
L 402.393922 150.129588 
L 402.699527 149.830584 
L 403.101403 149.394886 
L 403.496101 149.01154 
L 403.898782 148.429923 
L 404.119293 147.942247 
L 404.311041 147.246716 
L 404.437684 146.558366 
L 404.390541 145.849639 
L 404.341414 145.294011 
L 404.271894 144.560504 
L 404.140074 143.681092 
L 403.99426 142.981561 
L 403.772944 142.310004 
L 403.551226 141.456179 
L 403.377857 140.775038 
L 403.178502 139.919198 
L 403.01671 139.04419 
L 402.93442 138.334254 
L 402.932421 137.798212 
L 402.971581 137.26217 
L 403.053872 136.575834 
L 403.109399 135.869899 
L 403.248812 135.32387 
L 403.521672 134.633131 
L 403.738587 134.367311 
L 404.016624 134.161039 
L 404.332224 133.991161 
L 404.68457 133.92 
M 318.404919 218.302915 
L 315.96131 219.713245 
L 312.076154 221.913145 
L 315.722131 234.651986 
L 315.831186 235.015344 
L 321.655765 257.007018 
L 328.603896 254.956779 
L 326.620279 247.765259 
L 326.133105 246.021191 
L 325.607377 244.278759 
L 318.404919 218.302915 
M 417.002279 207.318622 
L 376.511703 210.818683 
L 375.694765 210.913832 
L 376.000371 211.867988 
L 375.878128 212.836548 
L 376.283599 213.909021 
L 376.958736 214.220026 
L 377.523208 214.914363 
L 378.151993 214.909556 
L 378.623389 215.092631 
L 379.817451 215.460795 
L 380.636388 215.194975 
L 382.338303 215.476554 
L 387.886514 215.053833 
L 415.75446 212.688666 
L 416.078976 211.295304 
L 416.370735 210.055753 
L 417.002279 207.318622 
M 390.474104 321.948134 
L 353.082341 329.380371 
L 353.434686 330.308954 
L 354.006349 331.205548 
L 354.597182 332.134937 
L 355.127699 333.05752 
L 355.517997 333.970907 
L 355.722933 334.881891 
L 355.777654 335.782903 
L 355.73451 336.737864 
L 355.679789 337.848313 
L 355.927869 337.854314 
L 388.346038 330.00195 
L 389.83213 327.578377 
L 389.807754 325.616879 
L 390.549204 323.464723 
L 390.474104 321.948134 
M 416.665509 373.030042 
L 384.103914 382.107979 
L 384.510969 384.895353 
L 394.195471 381.915218 
L 418.961349 373.985809 
L 416.665509 373.030042 
M 460.475395 378.147828 
L 460.608021 380.004592 
L 460.048585 379.966854 
L 448.123328 382.333031 
L 445.406026 386.699724 
L 445.791535 387.910115 
L 447.053104 390.501178 
L 448.043828 393.166596 
L 448.100563 393.579126 
L 458.125625 393.431221 
L 458.367708 393.429221 
L 466.994577 393.290123 
L 468.580132 390.141015 
L 469.437827 386.939958 
L 470.24638 383.690131 
L 472.029292 380.696929 
L 460.475395 378.147828 
M 449.189152 396.573134 
L 449.898632 399.775386 
L 455.461864 399.627093 
L 455.614063 399.621495 
L 463.287759 399.393652 
L 464.878117 396.757806 
L 456.418231 396.650684 
L 456.266823 396.648281 
L 449.189152 396.573134 
M 434.38105 403.941017 
L 433.729499 404.217226 
L 417.90391 411.459597 
L 418.58303 414.933683 
L 396.011752 422.033732 
L 396.131995 422.413883 
L 400.216729 427.439326 
L 401.480297 428.90116 
L 406.264933 431.277576 
L 406.988391 431.55898 
L 407.304783 431.964315 
L 410.875783 436.882636 
L 414.251828 434.630539 
L 417.231174 430.62441 
L 419.195838 428.324336 
L 424.808198 424.845069 
L 426.151267 424.000022 
L 426.672997 423.408821 
L 428.94088 421.651192 
L 429.076698 421.306226 
L 435.313845 416.64614 
L 438.860871 413.037345 
L 441.010106 408.82175 
L 439.704185 407.865595 
L 439.476483 407.686118 
L 438.997495 407.802033 
L 437.047212 405.846939 
L 435.726118 404.469864 
L 434.38105 403.941017 
M 380.009103 401.484878 
L 366.944702 407.066426 
L 369.562674 408.74941 
L 381.485297 403.621622 
L 380.009103 401.484878 
M 395.823197 459.442777 
L 395.71174 460.627985 
L 395.484427 463.053558 
L 407.858066 463.727921 
L 407.878042 462.987607 
L 407.538884 462.290076 
L 407.169756 461.450238 
L 406.92727 460.456092 
L 395.823197 459.442777 
M 364.837563 466.35896 
L 361.551014 471.238096 
L 374.589795 477.106184 
L 377.394968 471.285268 
L 364.837563 466.35896 
M 423.072926 485.338945 
L 417.24396 496.630354 
L 416.187729 499.70351 
L 415.645232 502.432491 
L 415.211545 504.595499 
L 413.980784 508.525835 
L 433.080737 512.066458 
L 438.82532 514.129883 
L 447.73312 489.421539 
L 435.673934 486.153648 
L 435.645021 489.117373 
L 423.072926 485.338945 
M 380.493379 519.170911 
L 376.086659 528.104556 
L 394.62154 531.336394 
L 394.808111 531.007818 
L 394.81011 528.664184 
L 394.873618 525.841263 
L 395.611473 523.473639 
L 396.129608 521.75239 
L 395.977395 521.53934 
L 380.493379 519.170911 
M 393.605664 559.549573 
L 393.731501 563.26949 
L 404.982179 563.376612 
L 405.9789 560.026053 
L 393.605664 559.549573 
" clip-path="url(#p78657c2701)" style="fill: #e0bd1f; stroke: #0000ff; stroke-width: 0.5"/>
   </g>
   <g id="PatchCollection_2">
    <path d="M 478.711473 664.043842 
L 478.9903 672.592932 
L 483.033486 675.03291 
L 488.820825 674.402121 
L 491.776615 679.835302 
L 492.011507 686.93456 
L 484.910265 689.215438 
L 483.78332 695.167464 
L 484.227146 706.351206 
L 485.563024 714.428607 
L 481.720791 723.158786 
L 480.923009 722.994491 
L 468.723558 717.710021 
L 456.911184 712.898836 
L 456.178535 712.732944 
L 455.429104 712.679786 
L 454.690055 712.755335 
L 453.976175 712.893641 
L 435.89231 716.697498 
L 418.378095 720.38744 
L 414.981283 721.10296 
L 414.300955 721.129337 
L 413.64181 721.028604 
L 413.005431 720.825944 
L 412.430173 720.501758 
L 402.350375 711.905496 
L 393.863322 704.667529 
L 381.717787 694.26487 
L 381.14693 693.778388 
L 380.597242 693.304714 
L 380.04475 692.831831 
L 379.487872 692.351753 
L 378.942168 691.884856 
L 378.394882 691.406376 
L 377.832006 690.931492 
L 377.279917 690.465402 
L 376.75659 690.00891 
L 376.226476 689.559613 
L 370.810667 684.973465 
L 370.169888 684.598523 
L 369.462407 684.350692 
L 368.743737 684.224373 
L 368.182861 684.220373 
L 361.893767 684.175201 
L 351.783207 684.070871 
L 351.567486 684.068468 
L 348.397182 684.006517 
L 345.191313 683.996919 
L 342.013416 684.000919 
L 333.26869 683.840222 
L 326.357211 681.311109 
L 328.147299 669.151627 
L 328.865178 665.351771 
L 328.985018 664.597469 
L 370.052046 664.445564 
L 478.711473 664.043842 
" clip-path="url(#p78657c2701)" style="fill: none; stroke: #000000"/>
   </g>
   <g id="matplotlib.axis_1">
    <g id="xtick_1">
     <g id="line2d_1">
      <path d="M 172.403819 768.96 
L 172.403819 103.68 
" clip-path="url(#p78657c2701)" style="fill: none; stroke: #b0b0b0; stroke-width: 0.8; stroke-linecap: square"/>
     </g>
     <g id="line2d_2">
      <defs>
       <path id="mf0a8c9d161" d="M 0 0 
L 0 3.5 
" style="stroke: #000000; stroke-width: 0.8"/>
      </defs>
      <g>
       <use xlink:href="#mf0a8c9d161" x="172.403819" y="768.96" style="stroke: #000000; stroke-width: 0.8"/>
      </g>
     </g>
     <g id="text_1">
      <!-- 47.80 -->
      <g transform="translate(161.270755 807.501382) rotate(-45) scale(0.1 -0.1)">
       <defs>
        <path id="DejaVuSans-2212" d="M 678 2272 
L 4684 2272 
L 4684 1741 
L 678 1741 
L 678 2272 
z
" transform="scale(0.015625)"/>
        <path id="DejaVuSans-34" d="M 2419 4116 
L 825 1625 
L 2419 1625 
L 2419 4116 
z
M 2253 4666 
L 3047 4666 
L 3047 1625 
L 3713 1625 
L 3713 1100 
L 3047 1100 
L 3047 0 
L 2419 0 
L 2419 1100 
L 313 1100 
L 313 1709 
L 2253 4666 
z
" transform="scale(0.015625)"/>
        <path id="DejaVuSans-37" d="M 525 4666 
L 3525 4666 
L 3525 4397 
L 1831 0 
L 1172 0 
L 2766 4134 
L 525 4134 
L 525 4666 
z
" transform="scale(0.015625)"/>
        <path id="DejaVuSans-2e" d="M 684 794 
L 1344 794 
L 1344 0 
L 684 0 
L 684 794 
z
" transform="scale(0.015625)"/>
        <path id="DejaVuSans-38" d="M 2034 2216 
Q 1584 2216 1326 1975 
Q 1069 1734 1069 1313 
Q 1069 891 1326 650 
Q 1584 409 2034 409 
Q 2484 409 2743 651 
Q 3003 894 3003 1313 
Q 3003 1734 2745 1975 
Q 2488 2216 2034 2216 
z
M 1403 2484 
Q 997 2584 770 2862 
Q 544 3141 544 3541 
Q 544 4100 942 4425 
Q 1341 4750 2034 4750 
Q 2731 4750 3128 4425 
Q 3525 4100 3525 3541 
Q 3525 3141 3298 2862 
Q 3072 2584 2669 2484 
Q 3125 2378 3379 2068 
Q 3634 1759 3634 1313 
Q 3634 634 3220 271 
Q 2806 -91 2034 -91 
Q 1263 -91 848 271 
Q 434 634 434 1313 
Q 434 1759 690 2068 
Q 947 2378 1403 2484 
z
M 1172 3481 
Q 1172 3119 1398 2916 
Q 1625 2713 2034 2713 
Q 2441 2713 2670 2916 
Q 2900 3119 2900 3481 
Q 2900 3844 2670 4047 
Q 2441 4250 2034 4250 
Q 1625 4250 1398 4047 
Q 1172 3844 1172 3481 
z
" transform="scale(0.015625)"/>
        <path id="DejaVuSans-30" d="M 2034 4250 
Q 1547 4250 1301 3770 
Q 1056 3291 1056 2328 
Q 1056 1369 1301 889 
Q 1547 409 2034 409 
Q 2525 409 2770 889 
Q 3016 1369 3016 2328 
Q 3016 3291 2770 3770 
Q 2525 4250 2034 4250 
z
M 2034 4750 
Q 2819 4750 3233 4129 
Q 3647 3509 3647 2328 
Q 3647 1150 3233 529 
Q 2819 -91 2034 -91 
Q 1250 -91 836 529 
Q 422 1150 422 2328 
Q 422 3509 836 4129 
Q 1250 4750 2034 4750 
z
" transform="scale(0.015625)"/>
       </defs>
       <use xlink:href="#DejaVuSans-2212"/>
       <use xlink:href="#DejaVuSans-34" transform="translate(83.789062 0)"/>
       <use xlink:href="#DejaVuSans-37" transform="translate(147.412109 0)"/>
       <use xlink:href="#DejaVuSans-2e" transform="translate(211.035156 0)"/>
       <use xlink:href="#DejaVuSans-38" transform="translate(242.822266 0)"/>
       <use xlink:href="#DejaVuSans-30" transform="translate(306.445312 0)"/>
      </g>
     </g>
    </g>
    <g id="xtick_2">
     <g id="line2d_3">
      <path d="M 244.311055 768.96 
L 244.311055 103.68 
" clip-path="url(#p78657c2701)" style="fill: none; stroke: #b0b0b0; stroke-width: 0.8; stroke-linecap: square"/>
     </g>
     <g id="line2d_4">
      <g>
       <use xlink:href="#mf0a8c9d161" x="244.311055" y="768.96" style="stroke: #000000; stroke-width: 0.8"/>
      </g>
     </g>
     <g id="text_2">
      <!-- 47.75 -->
      <g transform="translate(233.17799 807.501382) rotate(-45) scale(0.1 -0.1)">
       <defs>
        <path id="DejaVuSans-35" d="M 691 4666 
L 3169 4666 
L 3169 4134 
L 1269 4134 
L 1269 2991 
Q 1406 3038 1543 3061 
Q 1681 3084 1819 3084 
Q 2600 3084 3056 2656 
Q 3513 2228 3513 1497 
Q 3513 744 3044 326 
Q 2575 -91 1722 -91 
Q 1428 -91 1123 -41 
Q 819 9 494 109 
L 494 744 
Q 775 591 1075 516 
Q 1375 441 1709 441 
Q 2250 441 2565 725 
Q 2881 1009 2881 1497 
Q 2881 1984 2565 2268 
Q 2250 2553 1709 2553 
Q 1456 2553 1204 2497 
Q 953 2441 691 2322 
L 691 4666 
z
" transform="scale(0.015625)"/>
       </defs>
       <use xlink:href="#DejaVuSans-2212"/>
       <use xlink:href="#DejaVuSans-34" transform="translate(83.789062 0)"/>
       <use xlink:href="#DejaVuSans-37" transform="translate(147.412109 0)"/>
       <use xlink:href="#DejaVuSans-2e" transform="translate(211.035156 0)"/>
       <use xlink:href="#DejaVuSans-37" transform="translate(242.822266 0)"/>
       <use xlink:href="#DejaVuSans-35" transform="translate(306.445312 0)"/>
      </g>
     </g>
    </g>
    <g id="xtick_3">
     <g id="line2d_5">
      <path d="M 316.218291 768.96 
L 316.218291 103.68 
" clip-path="url(#p78657c2701)" style="fill: none; stroke: #b0b0b0; stroke-width: 0.8; stroke-linecap: square"/>
     </g>
     <g id="line2d_6">
      <g>
       <use xlink:href="#mf0a8c9d161" x="316.218291" y="768.96" style="stroke: #000000; stroke-width: 0.8"/>
      </g>
     </g>
     <g id="text_3">
      <!-- 47.70 -->
      <g transform="translate(305.085226 807.501382) rotate(-45) scale(0.1 -0.1)">
       <use xlink:href="#DejaVuSans-2212"/>
       <use xlink:href="#DejaVuSans-34" transform="translate(83.789062 0)"/>
       <use xlink:href="#DejaVuSans-37" transform="translate(147.412109 0)"/>
       <use xlink:href="#DejaVuSans-2e" transform="translate(211.035156 0)"/>
       <use xlink:href="#DejaVuSans-37" transform="translate(242.822266 0)"/>
       <use xlink:href="#DejaVuSans-30" transform="translate(306.445312 0)"/>
      </g>
     </g>
    </g>
    <g id="xtick_4">
     <g id="line2d_7">
      <path d="M 388.125527 768.96 
L 388.125527 103.68 
" clip-path="url(#p78657c2701)" style="fill: none; stroke: #b0b0b0; stroke-width: 0.8; stroke-linecap: square"/>
     </g>
     <g id="line2d_8">
      <g>
       <use xlink:href="#mf0a8c9d161" x="388.125527" y="768.96" style="stroke: #000000; stroke-width: 0.8"/>
      </g>
     </g>
     <g id="text_4">
      <!-- 47.65 -->
      <g transform="translate(376.992462 807.501382) rotate(-45) scale(0.1 -0.1)">
       <defs>
        <path id="DejaVuSans-36" d="M 2113 2584 
Q 1688 2584 1439 2293 
Q 1191 2003 1191 1497 
Q 1191 994 1439 701 
Q 1688 409 2113 409 
Q 2538 409 2786 701 
Q 3034 994 3034 1497 
Q 3034 2003 2786 2293 
Q 2538 2584 2113 2584 
z
M 3366 4563 
L 3366 3988 
Q 3128 4100 2886 4159 
Q 2644 4219 2406 4219 
Q 1781 4219 1451 3797 
Q 1122 3375 1075 2522 
Q 1259 2794 1537 2939 
Q 1816 3084 2150 3084 
Q 2853 3084 3261 2657 
Q 3669 2231 3669 1497 
Q 3669 778 3244 343 
Q 2819 -91 2113 -91 
Q 1303 -91 875 529 
Q 447 1150 447 2328 
Q 447 3434 972 4092 
Q 1497 4750 2381 4750 
Q 2619 4750 2861 4703 
Q 3103 4656 3366 4563 
z
" transform="scale(0.015625)"/>
       </defs>
       <use xlink:href="#DejaVuSans-2212"/>
       <use xlink:href="#DejaVuSans-34" transform="translate(83.789062 0)"/>
       <use xlink:href="#DejaVuSans-37" transform="translate(147.412109 0)"/>
       <use xlink:href="#DejaVuSans-2e" transform="translate(211.035156 0)"/>
       <use xlink:href="#DejaVuSans-36" transform="translate(242.822266 0)"/>
       <use xlink:href="#DejaVuSans-35" transform="translate(306.445312 0)"/>
      </g>
     </g>
    </g>
    <g id="xtick_5">
     <g id="line2d_9">
      <path d="M 460.032763 768.96 
L 460.032763 103.68 
" clip-path="url(#p78657c2701)" style="fill: none; stroke: #b0b0b0; stroke-width: 0.8; stroke-linecap: square"/>
     </g>
     <g id="line2d_10">
      <g>
       <use xlink:href="#mf0a8c9d161" x="460.032763" y="768.96" style="stroke: #000000; stroke-width: 0.8"/>
      </g>
     </g>
     <g id="text_5">
      <!-- 47.60 -->
      <g transform="translate(448.899698 807.501382) rotate(-45) scale(0.1 -0.1)">
       <use xlink:href="#DejaVuSans-2212"/>
       <use xlink:href="#DejaVuSans-34" transform="translate(83.789062 0)"/>
       <use xlink:href="#DejaVuSans-37" transform="translate(147.412109 0)"/>
       <use xlink:href="#DejaVuSans-2e" transform="translate(211.035156 0)"/>
       <use xlink:href="#DejaVuSans-36" transform="translate(242.822266 0)"/>
       <use xlink:href="#DejaVuSans-30" transform="translate(306.445312 0)"/>
      </g>
     </g>
    </g>
    <g id="xtick_6">
     <g id="line2d_11">
      <path d="M 531.939999 768.96 
L 531.939999 103.68 
" clip-path="url(#p78657c2701)" style="fill: none; stroke: #b0b0b0; stroke-width: 0.8; stroke-linecap: square"/>
     </g>
     <g id="line2d_12">
      <g>
       <use xlink:href="#mf0a8c9d161" x="531.939999" y="768.96" style="stroke: #000000; stroke-width: 0.8"/>
      </g>
     </g>
     <g id="text_6">
      <!-- 47.55 -->
      <g transform="translate(520.806934 807.501382) rotate(-45) scale(0.1 -0.1)">
       <use xlink:href="#DejaVuSans-2212"/>
       <use xlink:href="#DejaVuSans-34" transform="translate(83.789062 0)"/>
       <use xlink:href="#DejaVuSans-37" transform="translate(147.412109 0)"/>
       <use xlink:href="#DejaVuSans-2e" transform="translate(211.035156 0)"/>
       <use xlink:href="#DejaVuSans-35" transform="translate(242.822266 0)"/>
       <use xlink:href="#DejaVuSans-35" transform="translate(306.445312 0)"/>
      </g>
     </g>
    </g>
    <g id="text_7">
     <!-- Longitude () -->
     <g transform="translate(336.139844 820.57038) scale(0.1 -0.1)">
      <defs>
       <path id="DejaVuSans-4c" d="M 628 4666 
L 1259 4666 
L 1259 531 
L 3531 531 
L 3531 0 
L 628 0 
L 628 4666 
z
" transform="scale(0.015625)"/>
       <path id="DejaVuSans-6f" d="M 1959 3097 
Q 1497 3097 1228 2736 
Q 959 2375 959 1747 
Q 959 1119 1226 758 
Q 1494 397 1959 397 
Q 2419 397 2687 759 
Q 2956 1122 2956 1747 
Q 2956 2369 2687 2733 
Q 2419 3097 1959 3097 
z
M 1959 3584 
Q 2709 3584 3137 3096 
Q 3566 2609 3566 1747 
Q 3566 888 3137 398 
Q 2709 -91 1959 -91 
Q 1206 -91 779 398 
Q 353 888 353 1747 
Q 353 2609 779 3096 
Q 1206 3584 1959 3584 
z
" transform="scale(0.015625)"/>
       <path id="DejaVuSans-6e" d="M 3513 2113 
L 3513 0 
L 2938 0 
L 2938 2094 
Q 2938 2591 2744 2837 
Q 2550 3084 2163 3084 
Q 1697 3084 1428 2787 
Q 1159 2491 1159 1978 
L 1159 0 
L 581 0 
L 581 3500 
L 1159 3500 
L 1159 2956 
Q 1366 3272 1645 3428 
Q 1925 3584 2291 3584 
Q 2894 3584 3203 3211 
Q 3513 2838 3513 2113 
z
" transform="scale(0.015625)"/>
       <path id="DejaVuSans-67" d="M 2906 1791 
Q 2906 2416 2648 2759 
Q 2391 3103 1925 3103 
Q 1463 3103 1205 2759 
Q 947 2416 947 1791 
Q 947 1169 1205 825 
Q 1463 481 1925 481 
Q 2391 481 2648 825 
Q 2906 1169 2906 1791 
z
M 3481 434 
Q 3481 -459 3084 -895 
Q 2688 -1331 1869 -1331 
Q 1566 -1331 1297 -1286 
Q 1028 -1241 775 -1147 
L 775 -588 
Q 1028 -725 1275 -790 
Q 1522 -856 1778 -856 
Q 2344 -856 2625 -561 
Q 2906 -266 2906 331 
L 2906 616 
Q 2728 306 2450 153 
Q 2172 0 1784 0 
Q 1141 0 747 490 
Q 353 981 353 1791 
Q 353 2603 747 3093 
Q 1141 3584 1784 3584 
Q 2172 3584 2450 3431 
Q 2728 3278 2906 2969 
L 2906 3500 
L 3481 3500 
L 3481 434 
z
" transform="scale(0.015625)"/>
       <path id="DejaVuSans-69" d="M 603 3500 
L 1178 3500 
L 1178 0 
L 603 0 
L 603 3500 
z
M 603 4863 
L 1178 4863 
L 1178 4134 
L 603 4134 
L 603 4863 
z
" transform="scale(0.015625)"/>
       <path id="DejaVuSans-74" d="M 1172 4494 
L 1172 3500 
L 2356 3500 
L 2356 3053 
L 1172 3053 
L 1172 1153 
Q 1172 725 1289 603 
Q 1406 481 1766 481 
L 2356 481 
L 2356 0 
L 1766 0 
Q 1100 0 847 248 
Q 594 497 594 1153 
L 594 3053 
L 172 3053 
L 172 3500 
L 594 3500 
L 594 4494 
L 1172 4494 
z
" transform="scale(0.015625)"/>
       <path id="DejaVuSans-75" d="M 544 1381 
L 544 3500 
L 1119 3500 
L 1119 1403 
Q 1119 906 1312 657 
Q 1506 409 1894 409 
Q 2359 409 2629 706 
Q 2900 1003 2900 1516 
L 2900 3500 
L 3475 3500 
L 3475 0 
L 2900 0 
L 2900 538 
Q 2691 219 2414 64 
Q 2138 -91 1772 -91 
Q 1169 -91 856 284 
Q 544 659 544 1381 
z
M 1991 3584 
L 1991 3584 
z
" transform="scale(0.015625)"/>
       <path id="DejaVuSans-64" d="M 2906 2969 
L 2906 4863 
L 3481 4863 
L 3481 0 
L 2906 0 
L 2906 525 
Q 2725 213 2448 61 
Q 2172 -91 1784 -91 
Q 1150 -91 751 415 
Q 353 922 353 1747 
Q 353 2572 751 3078 
Q 1150 3584 1784 3584 
Q 2172 3584 2448 3432 
Q 2725 3281 2906 2969 
z
M 947 1747 
Q 947 1113 1208 752 
Q 1469 391 1925 391 
Q 2381 391 2643 752 
Q 2906 1113 2906 1747 
Q 2906 2381 2643 2742 
Q 2381 3103 1925 3103 
Q 1469 3103 1208 2742 
Q 947 2381 947 1747 
z
" transform="scale(0.015625)"/>
       <path id="DejaVuSans-65" d="M 3597 1894 
L 3597 1613 
L 953 1613 
Q 991 1019 1311 708 
Q 1631 397 2203 397 
Q 2534 397 2845 478 
Q 3156 559 3463 722 
L 3463 178 
Q 3153 47 2828 -22 
Q 2503 -91 2169 -91 
Q 1331 -91 842 396 
Q 353 884 353 1716 
Q 353 2575 817 3079 
Q 1281 3584 2069 3584 
Q 2775 3584 3186 3129 
Q 3597 2675 3597 1894 
z
M 3022 2063 
Q 3016 2534 2758 2815 
Q 2500 3097 2075 3097 
Q 1594 3097 1305 2825 
Q 1016 2553 972 2059 
L 3022 2063 
z
" transform="scale(0.015625)"/>
       <path id="DejaVuSans-20" transform="scale(0.015625)"/>
       <path id="DejaVuSans-28" d="M 1984 4856 
Q 1566 4138 1362 3434 
Q 1159 2731 1159 2009 
Q 1159 1288 1364 580 
Q 1569 -128 1984 -844 
L 1484 -844 
Q 1016 -109 783 600 
Q 550 1309 550 2009 
Q 550 2706 781 3412 
Q 1013 4119 1484 4856 
L 1984 4856 
z
" transform="scale(0.015625)"/>
       <path id="DejaVuSans-b0" d="M 1600 4347 
Q 1350 4347 1178 4173 
Q 1006 4000 1006 3750 
Q 1006 3503 1178 3333 
Q 1350 3163 1600 3163 
Q 1850 3163 2022 3333 
Q 2194 3503 2194 3750 
Q 2194 3997 2020 4172 
Q 1847 4347 1600 4347 
z
M 1600 4750 
Q 1800 4750 1984 4673 
Q 2169 4597 2303 4453 
Q 2447 4313 2519 4134 
Q 2591 3956 2591 3750 
Q 2591 3338 2302 3052 
Q 2013 2766 1594 2766 
Q 1172 2766 890 3047 
Q 609 3328 609 3750 
Q 609 4169 896 4459 
Q 1184 4750 1600 4750 
z
" transform="scale(0.015625)"/>
       <path id="DejaVuSans-29" d="M 513 4856 
L 1013 4856 
Q 1481 4119 1714 3412 
Q 1947 2706 1947 2009 
Q 1947 1309 1714 600 
Q 1481 -109 1013 -844 
L 513 -844 
Q 928 -128 1133 580 
Q 1338 1288 1338 2009 
Q 1338 2731 1133 3434 
Q 928 4138 513 4856 
z
" transform="scale(0.015625)"/>
      </defs>
      <use xlink:href="#DejaVuSans-4c"/>
      <use xlink:href="#DejaVuSans-6f" transform="translate(53.962891 0)"/>
      <use xlink:href="#DejaVuSans-6e" transform="translate(115.144531 0)"/>
      <use xlink:href="#DejaVuSans-67" transform="translate(178.523438 0)"/>
      <use xlink:href="#DejaVuSans-69" transform="translate(242 0)"/>
      <use xlink:href="#DejaVuSans-74" transform="translate(269.783203 0)"/>
      <use xlink:href="#DejaVuSans-75" transform="translate(308.992188 0)"/>
      <use xlink:href="#DejaVuSans-64" transform="translate(372.371094 0)"/>
      <use xlink:href="#DejaVuSans-65" transform="translate(435.847656 0)"/>
      <use xlink:href="#DejaVuSans-20" transform="translate(497.371094 0)"/>
      <use xlink:href="#DejaVuSans-28" transform="translate(529.158203 0)"/>
      <use xlink:href="#DejaVuSans-b0" transform="translate(568.171875 0)"/>
      <use xlink:href="#DejaVuSans-29" transform="translate(618.171875 0)"/>
     </g>
    </g>
   </g>
   <g id="matplotlib.axis_2">
    <g id="ytick_1">
     <g id="line2d_13">
      <path d="M 150.117263 663.6493 
L 587.882737 663.6493 
" clip-path="url(#p78657c2701)" style="fill: none; stroke: #b0b0b0; stroke-width: 0.8; stroke-linecap: square"/>
     </g>
     <g id="line2d_14">
      <defs>
       <path id="m4c716732a1" d="M 0 0 
L -3.5 0 
" style="stroke: #000000; stroke-width: 0.8"/>
      </defs>
      <g>
       <use xlink:href="#m4c716732a1" x="150.117263" y="663.6493" style="stroke: #000000; stroke-width: 0.8"/>
      </g>
     </g>
     <g id="text_8">
      <!-- 2.0 -->
      <g transform="translate(118.834451 667.448519) scale(0.1 -0.1)">
       <defs>
        <path id="DejaVuSans-32" d="M 1228 531 
L 3431 531 
L 3431 0 
L 469 0 
L 469 531 
Q 828 903 1448 1529 
Q 2069 2156 2228 2338 
Q 2531 2678 2651 2914 
Q 2772 3150 2772 3378 
Q 2772 3750 2511 3984 
Q 2250 4219 1831 4219 
Q 1534 4219 1204 4116 
Q 875 4013 500 3803 
L 500 4441 
Q 881 4594 1212 4672 
Q 1544 4750 1819 4750 
Q 2544 4750 2975 4387 
Q 3406 4025 3406 3419 
Q 3406 3131 3298 2873 
Q 3191 2616 2906 2266 
Q 2828 2175 2409 1742 
Q 1991 1309 1228 531 
z
" transform="scale(0.015625)"/>
       </defs>
       <use xlink:href="#DejaVuSans-2212"/>
       <use xlink:href="#DejaVuSans-32" transform="translate(83.789062 0)"/>
       <use xlink:href="#DejaVuSans-2e" transform="translate(147.412109 0)"/>
       <use xlink:href="#DejaVuSans-30" transform="translate(179.199219 0)"/>
      </g>
     </g>
    </g>
    <g id="ytick_2">
     <g id="line2d_15">
      <path d="M 150.117263 519.745332 
L 587.882737 519.745332 
" clip-path="url(#p78657c2701)" style="fill: none; stroke: #b0b0b0; stroke-width: 0.8; stroke-linecap: square"/>
     </g>
     <g id="line2d_16">
      <g>
       <use xlink:href="#m4c716732a1" x="150.117263" y="519.745332" style="stroke: #000000; stroke-width: 0.8"/>
      </g>
     </g>
     <g id="text_9">
      <!-- 1.9 -->
      <g transform="translate(118.834451 523.544551) scale(0.1 -0.1)">
       <defs>
        <path id="DejaVuSans-31" d="M 794 531 
L 1825 531 
L 1825 4091 
L 703 3866 
L 703 4441 
L 1819 4666 
L 2450 4666 
L 2450 531 
L 3481 531 
L 3481 0 
L 794 0 
L 794 531 
z
" transform="scale(0.015625)"/>
        <path id="DejaVuSans-39" d="M 703 97 
L 703 672 
Q 941 559 1184 500 
Q 1428 441 1663 441 
Q 2288 441 2617 861 
Q 2947 1281 2994 2138 
Q 2813 1869 2534 1725 
Q 2256 1581 1919 1581 
Q 1219 1581 811 2004 
Q 403 2428 403 3163 
Q 403 3881 828 4315 
Q 1253 4750 1959 4750 
Q 2769 4750 3195 4129 
Q 3622 3509 3622 2328 
Q 3622 1225 3098 567 
Q 2575 -91 1691 -91 
Q 1453 -91 1209 -44 
Q 966 3 703 97 
z
M 1959 2075 
Q 2384 2075 2632 2365 
Q 2881 2656 2881 3163 
Q 2881 3666 2632 3958 
Q 2384 4250 1959 4250 
Q 1534 4250 1286 3958 
Q 1038 3666 1038 3163 
Q 1038 2656 1286 2365 
Q 1534 2075 1959 2075 
z
" transform="scale(0.015625)"/>
       </defs>
       <use xlink:href="#DejaVuSans-2212"/>
       <use xlink:href="#DejaVuSans-31" transform="translate(83.789062 0)"/>
       <use xlink:href="#DejaVuSans-2e" transform="translate(147.412109 0)"/>
       <use xlink:href="#DejaVuSans-39" transform="translate(179.199219 0)"/>
      </g>
     </g>
    </g>
    <g id="ytick_3">
     <g id="line2d_17">
      <path d="M 150.117263 375.841364 
L 587.882737 375.841364 
" clip-path="url(#p78657c2701)" style="fill: none; stroke: #b0b0b0; stroke-width: 0.8; stroke-linecap: square"/>
     </g>
     <g id="line2d_18">
      <g>
       <use xlink:href="#m4c716732a1" x="150.117263" y="375.841364" style="stroke: #000000; stroke-width: 0.8"/>
      </g>
     </g>
     <g id="text_10">
      <!-- 1.8 -->
      <g transform="translate(118.834451 379.640583) scale(0.1 -0.1)">
       <use xlink:href="#DejaVuSans-2212"/>
       <use xlink:href="#DejaVuSans-31" transform="translate(83.789062 0)"/>
       <use xlink:href="#DejaVuSans-2e" transform="translate(147.412109 0)"/>
       <use xlink:href="#DejaVuSans-38" transform="translate(179.199219 0)"/>
      </g>
     </g>
    </g>
    <g id="ytick_4">
     <g id="line2d_19">
      <path d="M 150.117263 231.937396 
L 587.882737 231.937396 
" clip-path="url(#p78657c2701)" style="fill: none; stroke: #b0b0b0; stroke-width: 0.8; stroke-linecap: square"/>
     </g>
     <g id="line2d_20">
      <g>
       <use xlink:href="#m4c716732a1" x="150.117263" y="231.937396" style="stroke: #000000; stroke-width: 0.8"/>
      </g>
     </g>
     <g id="text_11">
      <!-- 1.7 -->
      <g transform="translate(118.834451 235.736615) scale(0.1 -0.1)">
       <use xlink:href="#DejaVuSans-2212"/>
       <use xlink:href="#DejaVuSans-31" transform="translate(83.789062 0)"/>
       <use xlink:href="#DejaVuSans-2e" transform="translate(147.412109 0)"/>
       <use xlink:href="#DejaVuSans-37" transform="translate(179.199219 0)"/>
      </g>
     </g>
    </g>
    <g id="text_12">
     <!-- Latitude () -->
     <g transform="translate(112.754763 464.889531) rotate(-90) scale(0.1 -0.1)">
      <defs>
       <path id="DejaVuSans-61" d="M 2194 1759 
Q 1497 1759 1228 1600 
Q 959 1441 959 1056 
Q 959 750 1161 570 
Q 1363 391 1709 391 
Q 2188 391 2477 730 
Q 2766 1069 2766 1631 
L 2766 1759 
L 2194 1759 
z
M 3341 1997 
L 3341 0 
L 2766 0 
L 2766 531 
Q 2569 213 2275 61 
Q 1981 -91 1556 -91 
Q 1019 -91 701 211 
Q 384 513 384 1019 
Q 384 1609 779 1909 
Q 1175 2209 1959 2209 
L 2766 2209 
L 2766 2266 
Q 2766 2663 2505 2880 
Q 2244 3097 1772 3097 
Q 1472 3097 1187 3025 
Q 903 2953 641 2809 
L 641 3341 
Q 956 3463 1253 3523 
Q 1550 3584 1831 3584 
Q 2591 3584 2966 3190 
Q 3341 2797 3341 1997 
z
" transform="scale(0.015625)"/>
      </defs>
      <use xlink:href="#DejaVuSans-4c"/>
      <use xlink:href="#DejaVuSans-61" transform="translate(55.712891 0)"/>
      <use xlink:href="#DejaVuSans-74" transform="translate(116.992188 0)"/>
      <use xlink:href="#DejaVuSans-69" transform="translate(156.201172 0)"/>
      <use xlink:href="#DejaVuSans-74" transform="translate(183.984375 0)"/>
      <use xlink:href="#DejaVuSans-75" transform="translate(223.193359 0)"/>
      <use xlink:href="#DejaVuSans-64" transform="translate(286.572266 0)"/>
      <use xlink:href="#DejaVuSans-65" transform="translate(350.048828 0)"/>
      <use xlink:href="#DejaVuSans-20" transform="translate(411.572266 0)"/>
      <use xlink:href="#DejaVuSans-28" transform="translate(443.359375 0)"/>
      <use xlink:href="#DejaVuSans-b0" transform="translate(482.373047 0)"/>
      <use xlink:href="#DejaVuSans-29" transform="translate(532.373047 0)"/>
     </g>
    </g>
   </g>
   <g id="patch_3">
    <path d="M 150.117263 768.96 
L 150.117263 103.68 
" style="fill: none; stroke: #000000; stroke-width: 0.8; stroke-linejoin: miter; stroke-linecap: square"/>
   </g>
   <g id="patch_4">
    <path d="M 587.882737 768.96 
L 587.882737 103.68 
" style="fill: none; stroke: #000000; stroke-width: 0.8; stroke-linejoin: miter; stroke-linecap: square"/>
   </g>
   <g id="patch_5">
    <path d="M 150.117263 768.96 
L 587.882737 768.96 
" style="fill: none; stroke: #000000; stroke-width: 0.8; stroke-linejoin: miter; stroke-linecap: square"/>
   </g>
   <g id="patch_6">
    <path d="M 150.117263 103.68 
L 587.882737 103.68 
" style="fill: none; stroke: #000000; stroke-width: 0.8; stroke-linejoin: miter; stroke-linecap: square"/>
   </g>
   <g id="legend_1">
    <g id="patch_7">
     <path d="M 279.8375 941.307875 
L 458.1625 941.307875 
Q 460.1625 941.307875 460.1625 939.307875 
L 460.1625 909.016 
Q 460.1625 907.016 458.1625 907.016 
L 279.8375 907.016 
Q 277.8375 907.016 277.8375 909.016 
L 277.8375 939.307875 
Q 277.8375 941.307875 279.8375 941.307875 
z
" style="fill: #ffffff; opacity: 0.8; stroke: #cccccc; stroke-linejoin: miter"/>
    </g>
    <g id="text_13">
     <!-- Legenda -->
     <g transform="translate(343.280625 920.134125) scale(0.12 -0.12)">
      <use xlink:href="#DejaVuSans-4c"/>
      <use xlink:href="#DejaVuSans-65" transform="translate(53.962891 0)"/>
      <use xlink:href="#DejaVuSans-67" transform="translate(115.486328 0)"/>
      <use xlink:href="#DejaVuSans-65" transform="translate(178.962891 0)"/>
      <use xlink:href="#DejaVuSans-6e" transform="translate(240.486328 0)"/>
      <use xlink:href="#DejaVuSans-64" transform="translate(303.865234 0)"/>
      <use xlink:href="#DejaVuSans-61" transform="translate(367.341797 0)"/>
     </g>
    </g>
    <g id="patch_8">
     <path style="fill: none; stroke: #000000; stroke-linejoin: miter"/>
    </g>
    <g id="text_14">
     <!-- Gleba Federal -->
     <g transform="translate(309.8375 935.228187) scale(0.1 -0.1)">
      <defs>
       <path id="DejaVuSans-47" d="M 3809 666 
L 3809 1919 
L 2778 1919 
L 2778 2438 
L 4434 2438 
L 4434 434 
Q 4069 175 3628 42 
Q 3188 -91 2688 -91 
Q 1594 -91 976 548 
Q 359 1188 359 2328 
Q 359 3472 976 4111 
Q 1594 4750 2688 4750 
Q 3144 4750 3555 4637 
Q 3966 4525 4313 4306 
L 4313 3634 
Q 3963 3931 3569 4081 
Q 3175 4231 2741 4231 
Q 1884 4231 1454 3753 
Q 1025 3275 1025 2328 
Q 1025 1384 1454 906 
Q 1884 428 2741 428 
Q 3075 428 3337 486 
Q 3600 544 3809 666 
z
" transform="scale(0.015625)"/>
       <path id="DejaVuSans-6c" d="M 603 4863 
L 1178 4863 
L 1178 0 
L 603 0 
L 603 4863 
z
" transform="scale(0.015625)"/>
       <path id="DejaVuSans-62" d="M 3116 1747 
Q 3116 2381 2855 2742 
Q 2594 3103 2138 3103 
Q 1681 3103 1420 2742 
Q 1159 2381 1159 1747 
Q 1159 1113 1420 752 
Q 1681 391 2138 391 
Q 2594 391 2855 752 
Q 3116 1113 3116 1747 
z
M 1159 2969 
Q 1341 3281 1617 3432 
Q 1894 3584 2278 3584 
Q 2916 3584 3314 3078 
Q 3713 2572 3713 1747 
Q 3713 922 3314 415 
Q 2916 -91 2278 -91 
Q 1894 -91 1617 61 
Q 1341 213 1159 525 
L 1159 0 
L 581 0 
L 581 4863 
L 1159 4863 
L 1159 2969 
z
" transform="scale(0.015625)"/>
       <path id="DejaVuSans-46" d="M 628 4666 
L 3309 4666 
L 3309 4134 
L 1259 4134 
L 1259 2759 
L 3109 2759 
L 3109 2228 
L 1259 2228 
L 1259 0 
L 628 0 
L 628 4666 
z
" transform="scale(0.015625)"/>
       <path id="DejaVuSans-72" d="M 2631 2963 
Q 2534 3019 2420 3045 
Q 2306 3072 2169 3072 
Q 1681 3072 1420 2755 
Q 1159 2438 1159 1844 
L 1159 0 
L 581 0 
L 581 3500 
L 1159 3500 
L 1159 2956 
Q 1341 3275 1631 3429 
Q 1922 3584 2338 3584 
Q 2397 3584 2469 3576 
Q 2541 3569 2628 3553 
L 2631 2963 
z
" transform="scale(0.015625)"/>
      </defs>
      <use xlink:href="#DejaVuSans-47"/>
      <use xlink:href="#DejaVuSans-6c" transform="translate(77.490234 0)"/>
      <use xlink:href="#DejaVuSans-65" transform="translate(105.273438 0)"/>
      <use xlink:href="#DejaVuSans-62" transform="translate(166.796875 0)"/>
      <use xlink:href="#DejaVuSans-61" transform="translate(230.273438 0)"/>
      <use xlink:href="#DejaVuSans-20" transform="translate(291.552734 0)"/>
      <use xlink:href="#DejaVuSans-46" transform="translate(323.339844 0)"/>
      <use xlink:href="#DejaVuSans-65" transform="translate(375.359375 0)"/>
      <use xlink:href="#DejaVuSans-64" transform="translate(436.882812 0)"/>
      <use xlink:href="#DejaVuSans-65" transform="translate(500.359375 0)"/>
      <use xlink:href="#DejaVuSans-72" transform="translate(561.882812 0)"/>
      <use xlink:href="#DejaVuSans-61" transform="translate(602.996094 0)"/>
      <use xlink:href="#DejaVuSans-6c" transform="translate(664.275391 0)"/>
     </g>
    </g>
    <g id="patch_9">
     <path d="M 399.045312 935.228187 
L 419.045312 935.228187 
L 419.045312 928.228187 
L 399.045312 928.228187 
z
" style="fill: #e0bd1f; opacity: 0.6"/>
    </g>
    <g id="text_15">
     <!-- SIGEF -->
     <g transform="translate(427.045312 935.228187) scale(0.1 -0.1)">
      <defs>
       <path id="DejaVuSans-53" d="M 3425 4513 
L 3425 3897 
Q 3066 4069 2747 4153 
Q 2428 4238 2131 4238 
Q 1616 4238 1336 4038 
Q 1056 3838 1056 3469 
Q 1056 3159 1242 3001 
Q 1428 2844 1947 2747 
L 2328 2669 
Q 3034 2534 3370 2195 
Q 3706 1856 3706 1288 
Q 3706 609 3251 259 
Q 2797 -91 1919 -91 
Q 1588 -91 1214 -16 
Q 841 59 441 206 
L 441 856 
Q 825 641 1194 531 
Q 1563 422 1919 422 
Q 2459 422 2753 634 
Q 3047 847 3047 1241 
Q 3047 1584 2836 1778 
Q 2625 1972 2144 2069 
L 1759 2144 
Q 1053 2284 737 2584 
Q 422 2884 422 3419 
Q 422 4038 858 4394 
Q 1294 4750 2059 4750 
Q 2388 4750 2728 4690 
Q 3069 4631 3425 4513 
z
" transform="scale(0.015625)"/>
       <path id="DejaVuSans-49" d="M 628 4666 
L 1259 4666 
L 1259 0 
L 628 0 
L 628 4666 
z
" transform="scale(0.015625)"/>
       <path id="DejaVuSans-45" d="M 628 4666 
L 3578 4666 
L 3578 4134 
L 1259 4134 
L 1259 2753 
L 3481 2753 
L 3481 2222 
L 1259 2222 
L 1259 531 
L 3634 531 
L 3634 0 
L 628 0 
L 628 4666 
z
" transform="scale(0.015625)"/>
      </defs>
      <use xlink:href="#DejaVuSans-53"/>
      <use xlink:href="#DejaVuSans-49" transform="translate(63.476562 0)"/>
      <use xlink:href="#DejaVuSans-47" transform="translate(92.96875 0)"/>
      <use xlink:href="#DejaVuSans-45" transform="translate(170.458984 0)"/>
      <use xlink:href="#DejaVuSans-46" transform="translate(233.642578 0)"/>
     </g>
    </g>
   </g>
  </g>
 </g>
 <defs>
  <clipPath id="p78657c2701">
   <rect x="150.117263" y="103.68" width="437.765474" height="665.28"/>
  </clipPath>
 </defs>
</svg>
