<?xml version="1.0" encoding="utf-8" standalone="no"?>
<!DOCTYPE svg PUBLIC "-//W3C//DTD SVG 1.1//EN"
  "http://www.w3.org/Graphics/SVG/1.1/DTD/svg11.dtd">
<svg xmlns:xlink="http://www.w3.org/1999/xlink" width="720pt" height="864pt" viewBox="0 0 720 864" xmlns="http://www.w3.org/2000/svg" version="1.1">
 <metadata>
  <rdf:RDF xmlns:dc="http://purl.org/dc/elements/1.1/" xmlns:cc="http://creativecommons.org/ns#" xmlns:rdf="http://www.w3.org/1999/02/22-rdf-syntax-ns#">
   <cc:Work>
    <dc:type rdf:resource="http://purl.org/dc/dcmitype/StillImage"/>
    <dc:date>2025-06-16T16:52:31.606920</dc:date>
    <dc:format>image/svg+xml</dc:format>
    <dc:creator>
     <cc:Agent>
      <dc:title>Matplotlib v3.10.1, https://matplotlib.org/</dc:title>
     </cc:Agent>
    </dc:creator>
   </cc:Work>
  </rdf:RDF>
 </metadata>
 <defs>
  <style type="text/css">*{stroke-linejoin: round; stroke-linecap: butt}</style>
 </defs>
 <g id="figure_1">
  <g id="patch_1">
   <path d="M 0 864 
L 720 864 
L 720 0 
L 0 0 
z
" style="fill: #ffffff"/>
  </g>
  <g id="axes_1">
   <g id="patch_2">
    <path d="M 149.518196 768.96 
L 588.481804 768.96 
L 588.481804 103.68 
L 149.518196 103.68 
z
" style="fill: #ffffff"/>
   </g>
   <g id="PatchCollection_1">
    <defs>
     <path id="m2cf8bff516" d="M 508.822172 -723.013756 
L 509.7387 -722.419192 
L 510.527702 -721.980975 
L 511.166493 -721.649602 
L 511.637452 -721.406054 
L 512.294413 -721.151788 
L 512.962076 -720.935952 
L 513.649435 -720.77336 
L 514.003259 -720.666984 
L 515.151267 -720.149379 
L 515.979744 -719.783903 
L 516.613847 -719.43494 
L 517.531931 -718.835552 
L 518.391133 -718.147176 
L 519.482638 -717.138661 
L 520.298197 -716.391649 
L 520.868243 -715.930565 
L 521.636284 -715.379087 
L 522.223068 -714.900989 
L 522.994464 -714.351435 
L 523.807245 -713.873295 
L 524.779167 -713.343976 
L 525.634748 -713.01486 
L 526.488677 -712.704666 
L 527.366382 -712.454942 
L 527.873962 -712.296551 
L 528.55096 -712.07311 
L 529.512915 -711.610689 
L 530.205321 -710.876119 
L 530.272795 -710.070505 
L 530.002522 -709.598179 
L 529.273761 -709.006273 
L 528.31148 -708.43057 
L 527.347249 -707.923564 
L 526.169729 -707.045759 
L 525.332626 -706.6379 
L 524.077574 -705.789962 
L 523.733438 -705.602873 
L 522.626223 -704.85502 
L 522.460905 -704.750862 
L 521.46447 -704.143874 
L 520.464059 -703.515321 
L 519.998666 -703.137971 
L 519.340331 -702.388713 
L 519.015087 -701.896937 
L 518.681986 -700.959267 
L 518.626433 -700.373632 
L 518.703913 -699.823864 
L 519.014548 -699.158467 
L 519.73139 -698.347939 
L 520.518003 -697.907786 
L 521.133162 -697.531241 
L 521.799327 -697.260806 
L 522.658903 -696.96807 
L 523.350803 -696.69664 
L 524.238732 -696.484856 
L 524.301805 -696.188669 
L 515.099151 -676.492834 
L 525.76785 -672.245012 
L 527.625614 -695.921867 
L 527.683075 -696.405665 
L 528.775091 -696.379101 
L 529.50698 -696.30394 
L 530.602525 -696.034891 
L 531.487855 -695.655595 
L 532.149792 -695.25332 
L 533.085892 -694.597736 
L 533.930976 -694.196194 
L 534.438516 -693.905712 
L 535.143055 -693.492416 
L 535.682437 -693.202857 
L 536.399334 -692.811962 
L 536.948328 -692.551074 
L 537.685356 -692.176423 
L 538.394365 -691.794575 
L 538.928547 -691.557568 
L 539.689926 -691.223741 
L 540.261159 -691.035617 
L 540.842406 -690.911475 
L 541.416349 -690.881466 
L 541.987122 -690.901356 
L 541.555626 -690.449358 
L 539.924595 -688.184853 
L 541.356034 -686.950399 
L 541.022589 -679.220501 
L 540.901875 -678.700021 
L 539.268634 -650.183596 
L 542.967446 -650.486768 
L 542.802841 -647.266282 
L 542.796153 -646.900883 
L 542.614846 -635.074538 
L 543.157213 -614.673554 
L 555.883815 -609.707444 
L 557.185916 -612.716771 
L 565.319965 -605.484019 
L 568.289112 -604.076236 
L 568.528913 -603.814278 
L 568.501921 -602.650101 
L 568.477438 -601.482788 
L 568.448781 -600.327773 
L 568.423837 -599.175646 
L 568.396834 -598.005082 
L 568.372588 -596.837166 
L 568.187926 -588.612362 
L 567.90229 -577.97298 
L 567.866798 -576.729635 
L 567.832745 -575.487613 
L 567.799589 -574.29416 
L 567.769268 -573.16265 
L 567.736467 -572.05838 
L 567.705488 -570.974234 
L 567.675369 -569.90684 
L 567.644295 -568.844629 
L 567.618286 -567.809287 
L 567.105838 -557.941413 
L 526.457743 -542.04071 
L 517.747725 -538.672054 
L 519.062007 -537.505127 
L 520.804081 -532.907148 
L 522.565321 -528.32227 
L 517.508612 -521.985243 
L 530.875585 -521.166167 
L 534.664375 -519.95741 
L 532.876731 -517.558077 
L 515.010017 -517.815709 
L 511.207223 -517.486378 
L 511.674636 -513.38486 
L 512.139091 -509.402412 
L 515.41452 -509.514441 
L 515.657722 -505.160742 
L 542.065246 -505.938337 
L 541.933488 -511.03626 
L 555.82632 -509.285144 
L 555.335157 -508.140049 
L 554.965002 -507.605093 
L 554.665278 -507.098361 
L 554.490332 -506.708965 
L 554.19686 -505.866102 
L 554.086847 -505.422747 
L 553.998103 -504.951523 
L 553.935765 -504.441939 
L 553.749464 -499.087954 
L 553.72995 -498.554568 
L 553.713633 -497.994183 
L 553.696207 -497.411624 
L 553.678149 -496.805566 
L 553.658408 -496.193001 
L 553.637554 -495.555009 
L 553.619017 -494.947866 
L 553.600028 -494.361212 
L 553.581285 -493.779981 
L 553.563513 -493.20815 
L 553.546456 -492.634267 
L 553.527621 -492.07244 
L 553.510223 -491.513261 
L 553.491662 -490.977947 
L 553.474619 -490.414912 
L 553.45563 -489.829584 
L 553.435401 -489.21232 
L 553.418037 -488.589509 
L 553.396715 -487.961159 
L 553.376961 -487.342207 
L 553.218653 -482.277911 
L 553.198262 -481.631603 
L 553.184839 -481.00252 
L 553.161599 -480.375016 
L 553.148459 -479.7804 
L 553.130371 -479.155421 
L 553.109465 -478.483805 
L 553.090978 -477.830022 
L 553.07276 -477.199138 
L 553.050608 -476.579587 
L 553.034074 -475.954485 
L 553.01409 -475.344211 
L 552.994816 -474.729718 
L 552.979495 -474.116427 
L 552.95976 -473.51519 
L 552.940374 -472.905759 
L 552.921214 -472.287652 
L 552.901819 -471.672435 
L 552.881238 -471.065296 
L 552.809905 -468.622744 
L 552.793408 -468.026566 
L 552.66475 -463.761868 
L 552.645593 -463.148942 
L 552.628705 -462.530951 
L 552.609915 -461.922845 
L 552.585888 -461.337284 
L 552.576497 -460.774118 
L 552.558634 -460.231693 
L 552.537945 -459.636244 
L 552.516266 -459.017899 
L 552.495454 -458.419558 
L 552.471655 -457.827006 
L 552.113416 -448.996702 
L 551.767385 -440.544086 
L 551.740754 -439.898632 
L 551.714815 -439.233893 
L 551.687834 -438.596394 
L 551.665424 -437.974555 
L 551.639072 -437.358868 
L 551.616799 -436.74884 
L 551.208595 -426.761889 
L 550.888702 -419.02042 
L 550.862287 -418.364119 
L 550.836387 -417.734573 
L 550.812519 -417.102613 
L 550.673109 -413.974781 
L 550.616308 -413.421687 
L 550.509849 -412.887945 
L 550.153139 -411.809941 
L 543.839797 -396.71536 
L 542.328401 -393.101896 
L 541.021065 -389.5378 
L 539.702565 -384.104392 
L 539.086822 -377.262588 
L 539.298144 -372.739416 
L 539.361982 -372.087209 
L 539.425704 -371.438496 
L 540.374456 -361.708176 
L 542.129736 -344.172971 
L 542.346194 -339.693407 
L 526.76941 -338.144489 
L 514.054984 -377.236657 
L 513.750809 -378.171812 
L 510.182201 -372.528484 
L 510.473868 -371.556109 
L 521.067498 -336.234521 
L 495.314902 -326.592758 
L 460.974009 -313.05879 
L 452.688498 -309.498341 
L 446.142333 -316.449073 
L 437.370324 -314.289994 
L 433.008073 -303.918414 
L 430.276167 -301.06582 
L 429.549548 -296.12644 
L 429.668988 -283.047564 
L 432.481556 -281.766183 
L 432.871653 -273.970459 
L 433.016392 -271.0779 
L 430.668891 -271.093233 
L 431.316993 -267.941885 
L 435.381629 -267.711663 
L 443.257674 -267.29393 
L 443.9987 -261.332852 
L 432.068583 -261.944435 
L 433.382755 -247.132318 
L 439.551499 -246.835973 
L 445.102563 -246.56941 
L 444.604595 -240.479624 
L 445.597812 -240.418899 
L 446.914623 -235.858792 
L 481.724051 -221.114547 
L 486.547802 -232.034884 
L 494.601191 -228.50125 
L 511.035651 -221.242687 
L 524.713552 -215.336331 
L 527.368835 -229.844724 
L 538.176256 -225.402934 
L 538.279611 -218.540572 
L 534.415346 -208.168746 
L 523.530353 -212.388061 
L 522.771424 -210.045334 
L 533.328606 -205.356977 
L 529.676716 -195.513353 
L 519.587054 -170.081808 
L 511.010336 -148.692551 
L 506.378898 -137.296993 
L 501.383343 -125.28 
L 501.260238 -125.341057 
L 493.805088 -128.676925 
L 493.32372 -128.866663 
L 492.756595 -129.036173 
L 490.216401 -129.468323 
L 485.443247 -130.25609 
L 480.875267 -131.008463 
L 479.505114 -131.240974 
L 478.20718 -131.637383 
L 467.078377 -136.031985 
L 467.032932 -136.214029 
L 469.376018 -141.573604 
L 470.579215 -144.325716 
L 471.768596 -147.052303 
L 463.288134 -150.946292 
L 462.478741 -149.107754 
L 458.336923 -139.698692 
L 457.597501 -139.85089 
L 446.29191 -144.747217 
L 435.345019 -149.205149 
L 434.666074 -149.359057 
L 433.971877 -149.408027 
L 433.286707 -149.33804 
L 432.62515 -149.210051 
L 415.866306 -145.685269 
L 399.635557 -142.26661 
L 396.487523 -141.603564 
L 395.857031 -141.578813 
L 395.246367 -141.672488 
L 394.656448 -141.860245 
L 394.12334 -142.16058 
L 384.782244 -150.125556 
L 376.91698 -156.832134 
L 365.661414 -166.471131 
L 365.132398 -166.921962 
L 364.622994 -167.360591 
L 364.111077 -167.798983 
L 363.594858 -168.243649 
L 363.089159 -168.676368 
L 362.581919 -169.119813 
L 362.060188 -169.559786 
L 361.548619 -169.991549 
L 361.063614 -170.414472 
L 360.572255 -170.830898 
L 355.553454 -175.080275 
L 354.959507 -175.427697 
L 354.303834 -175.657372 
L 353.637924 -175.774392 
L 353.118003 -175.778139 
L 347.289823 -175.819794 
L 337.920222 -175.916482 
L 337.720182 -175.918742 
L 334.782354 -175.976379 
L 331.81117 -175.985032 
L 328.866311 -175.981356 
L 314.357024 -178.473775 
L 316.016131 -189.740568 
L 316.681374 -193.261452 
L 316.864617 -194.413374 
L 317.238114 -196.761432 
L 317.392685 -200.896751 
L 314.465 -201.773636 
L 311.054681 -206.868693 
L 310.519165 -207.649932 
L 308.773882 -210.367907 
L 307.741341 -211.821387 
L 305.717056 -214.785032 
L 302.630266 -219.987605 
L 299.954543 -225.400604 
L 297.146122 -228.926191 
L 296.294939 -230.003762 
L 295.443447 -231.113023 
L 292.085002 -227.701913 
L 289.569572 -229.257943 
L 286.976963 -230.90399 
L 284.453076 -232.625715 
L 281.904086 -234.29193 
L 276.97402 -237.738789 
L 274.733719 -239.003234 
L 274.495753 -239.452356 
L 266.26596 -234.539026 
L 264.941817 -234.202616 
L 263.9673 -237.150724 
L 263.404381 -239.025733 
L 261.38582 -238.976524 
L 260.981614 -238.92851 
L 248.750189 -238.969563 
L 236.646556 -238.850092 
L 218.049199 -239.131795 
L 212.886196 -239.349109 
L 212.851392 -240.238161 
L 212.961203 -240.919003 
L 213.043084 -241.502772 
L 213.175007 -242.090917 
L 213.289997 -242.718854 
L 213.459436 -243.33742 
L 213.621519 -243.99504 
L 213.761566 -244.647274 
L 213.909142 -245.292386 
L 214.029298 -245.932847 
L 214.192397 -246.554557 
L 214.419317 -247.188936 
L 214.67183 -247.80881 
L 214.865492 -248.456016 
L 215.002539 -249.104762 
L 215.205891 -249.748096 
L 215.453651 -250.390633 
L 215.668847 -251.030694 
L 215.820659 -251.41385 
L 215.991366 -251.858305 
L 216.127362 -252.23233 
L 216.29487 -252.626184 
L 216.398678 -253.080631 
L 216.495252 -253.57666 
L 216.509974 -254.087405 
L 216.576146 -254.730608 
L 216.549647 -255.215033 
L 216.632662 -255.691203 
L 216.679414 -256.025733 
L 216.774775 -256.36657 
L 216.839042 -256.870726 
L 216.901981 -257.368378 
L 216.85386 -257.879951 
L 216.832205 -258.398347 
L 216.730706 -258.916273 
L 216.624729 -259.623018 
L 216.530491 -259.968265 
L 216.361935 -260.471602 
L 216.171821 -260.966902 
L 215.812752 -261.573575 
L 215.557847 -262.049702 
L 215.248645 -262.480855 
L 214.762769 -262.988211 
L 214.395674 -263.372106 
L 214.017427 -263.743127 
L 213.361402 -264.290165 
L 212.806513 -264.684008 
L 212.261697 -265.161699 
L 211.666812 -265.544765 
L 210.985125 -266.063048 
L 210.410037 -266.547776 
L 209.902024 -266.838038 
L 209.386304 -267.173741 
L 208.873909 -267.492808 
L 208.617178 -267.655778 
L 208.085322 -267.931741 
L 207.520675 -268.211856 
L 206.920094 -268.477932 
L 206.299171 -268.747537 
L 205.826563 -268.94665 
L 205.21306 -269.21588 
L 205.059948 -269.279632 
L 204.300539 -269.6261 
L 203.673052 -269.906679 
L 203.060382 -270.17133 
L 202.65539 -270.508413 
L 202.160382 -270.697682 
L 201.681302 -270.891504 
L 201.205999 -271.052664 
L 200.765334 -271.31474 
L 200.31774 -271.584419 
L 199.68792 -271.900306 
L 198.928151 -272.318104 
L 198.464247 -272.567687 
L 197.846656 -272.896567 
L 197.214152 -273.181372 
L 196.619335 -273.527685 
L 196.17632 -273.81519 
L 195.884695 -274.011108 
L 195.439877 -274.293433 
L 194.702569 -274.756859 
L 194.237028 -275.0297 
L 193.647539 -275.339494 
L 193.222965 -275.631064 
L 192.526175 -276.128521 
L 192.053715 -276.634764 
L 191.652767 -277.173179 
L 191.340086 -277.814948 
L 191.143636 -278.313263 
L 190.863014 -278.942208 
L 190.575852 -279.597552 
L 190.444479 -279.925624 
L 190.292943 -280.439046 
L 190.262028 -280.932748 
L 190.278683 -281.08984 
L 190.202974 -281.42011 
L 190.114597 -281.542434 
L 189.747555 -281.880054 
L 189.310997 -282.381175 
L 188.897319 -282.893583 
L 188.598001 -283.289047 
L 188.281183 -283.669719 
L 187.951049 -284.031497 
L 187.582907 -284.354417 
L 187.211157 -284.667946 
L 186.827768 -284.962818 
L 186.464035 -285.273562 
L 186.117455 -285.60669 
L 185.7632 -285.930912 
L 185.371393 -286.201701 
L 184.859238 -286.587393 
L 184.379937 -287.007853 
L 183.886382 -287.422072 
L 183.421512 -287.882391 
L 182.971552 -288.311599 
L 182.612622 -288.851025 
L 182.267371 -289.411874 
L 181.981894 -289.999495 
L 181.855633 -290.304304 
L 181.715828 -290.599494 
L 181.65861 -290.744297 
L 181.773314 -290.98569 
L 181.9083 -291.039808 
L 182.044368 -291.022835 
L 182.177305 -290.99406 
L 182.361807 -291.097618 
L 182.314639 -291.386752 
L 182.297996 -292.045017 
L 182.211709 -292.714242 
L 182.107582 -293.382171 
L 181.983499 -294.216891 
L 181.954419 -294.88301 
L 181.967235 -295.550021 
L 181.997913 -296.233995 
L 181.988605 -296.913454 
L 181.985638 -297.592181 
L 181.905457 -298.264045 
L 181.862854 -298.932595 
L 181.873626 -299.595273 
L 181.866436 -300.253041 
L 181.906351 -300.582637 
L 182.050516 -301.056047 
L 182.276683 -301.682948 
L 182.382811 -302.172567 
L 182.6377 -302.797129 
L 182.883151 -303.432433 
L 183.083685 -303.901655 
L 183.278468 -304.367392 
L 183.483713 -305.010833 
L 183.590483 -305.676007 
L 183.708251 -306.333087 
L 183.747919 -306.658467 
L 183.86094 -306.971195 
L 184.0422 -307.439004 
L 184.198757 -308.101443 
L 184.396682 -308.587177 
L 184.680483 -309.030599 
L 184.96512 -309.475224 
L 185.219512 -309.94219 
L 185.398905 -310.441329 
L 185.513273 -310.773454 
L 185.789525 -311.43558 
L 186.111585 -312.076424 
L 186.429338 -312.7186 
L 186.743974 -313.35765 
L 186.973451 -314.037083 
L 187.170674 -314.533423 
L 187.597119 -315.107948 
L 188.030022 -315.677886 
L 188.485751 -316.226458 
L 188.859096 -316.827459 
L 189.285632 -317.384878 
L 189.734759 -317.921774 
L 190.201205 -318.436353 
L 190.668841 -318.94611 
L 191.152144 -319.448493 
L 191.394093 -319.698238 
L 191.793576 -320.031468 
L 192.154588 -320.408619 
L 192.465878 -320.831036 
L 192.830471 -321.201916 
L 193.26118 -321.749691 
L 193.676706 -322.308336 
L 194.001014 -322.713864 
L 194.216749 -323.186681 
L 194.537552 -323.571371 
L 194.629239 -323.720509 
L 194.892201 -324.1612 
L 194.990399 -324.489379 
L 195.28779 -324.903627 
L 195.473385 -325.392761 
L 195.769446 -326.023173 
L 196.0856 -326.643431 
L 196.356898 -327.28268 
L 196.622682 -327.916636 
L 196.932365 -328.534255 
L 197.065861 -328.855389 
L 197.172124 -329.361763 
L 197.263182 -329.866956 
L 197.2869 -330.551792 
L 197.275659 -331.232706 
L 197.247894 -331.909673 
L 197.287805 -332.242164 
L 197.459632 -332.731081 
L 197.649411 -333.219489 
L 197.824237 -333.712256 
L 198.041042 -334.185316 
L 198.404911 -334.780317 
L 198.6829 -335.415824 
L 198.773398 -336.096333 
L 198.893213 -336.771737 
L 199.000121 -337.460172 
L 199.155495 -338.141422 
L 199.150273 -338.845945 
L 199.237382 -339.353917 
L 199.36032 -340.037268 
L 199.359391 -340.732024 
L 199.334398 -341.423927 
L 199.247983 -342.104723 
L 199.111047 -342.779576 
L 199.01291 -343.464849 
L 198.926372 -344.145164 
L 198.838897 -344.836926 
L 198.814987 -345.005172 
L 198.837642 -345.703865 
L 198.831683 -346.399835 
L 198.762769 -347.09747 
L 198.667889 -347.799848 
L 198.536724 -348.492764 
L 198.399918 -349.174486 
L 198.234677 -349.66467 
L 198.113377 -350.162614 
L 197.907776 -350.637681 
L 197.689684 -351.085538 
L 197.457139 -351.553418 
L 197.231301 -352.023216 
L 196.98798 -352.4881 
L 196.885579 -352.827327 
L 196.965191 -353.516772 
L 197.044664 -354.193926 
L 197.099607 -354.876543 
L 197.005217 -355.588316 
L 196.883979 -356.276999 
L 196.777481 -356.977104 
L 196.56142 -357.650517 
L 196.323445 -358.317214 
L 196.055149 -358.960948 
L 195.734024 -359.577054 
L 195.394336 -360.185716 
L 194.978329 -360.747992 
L 194.596241 -361.339493 
L 194.167654 -361.893837 
L 193.745777 -362.453109 
L 193.29729 -362.987603 
L 192.82986 -363.502487 
L 192.33534 -363.993075 
L 191.829184 -364.467053 
L 191.35226 -364.957853 
L 190.812287 -365.390075 
L 190.276246 -365.813133 
L 189.78387 -366.295523 
L 189.268954 -366.754454 
L 188.729816 -367.184624 
L 188.209615 -367.632598 
L 187.703682 -368.094766 
L 187.34388 -368.471394 
L 186.851424 -368.978604 
L 186.378358 -369.485662 
L 185.916695 -370.01198 
L 185.4597 -370.539255 
L 185.009431 -371.080737 
L 184.549933 -371.614762 
L 184.107941 -372.167195 
L 183.67614 -372.731178 
L 183.254763 -373.301169 
L 182.842621 -373.883193 
L 182.42125 -374.457522 
L 182.011629 -375.044 
L 181.577675 -375.607503 
L 181.191297 -376.208644 
L 180.783702 -376.790057 
L 180.43255 -377.413432 
L 180.098283 -378.043286 
L 179.702551 -378.631668 
L 179.305973 -379.215715 
L 178.887596 -379.790277 
L 178.520017 -380.395844 
L 178.104252 -380.957389 
L 177.67494 -381.504858 
L 177.300874 -382.094649 
L 176.934377 -382.702624 
L 176.614448 -383.315343 
L 176.317044 -383.94345 
L 176.068155 -384.59678 
L 175.841654 -385.25369 
L 175.660192 -385.932217 
L 175.495663 -387.180271 
L 175.478955 -387.897212 
L 175.429079 -388.604327 
L 175.445149 -389.311334 
L 175.446022 -390.019453 
L 175.453351 -390.723462 
L 175.467437 -391.233231 
L 175.543884 -391.744589 
L 175.640731 -392.441951 
L 175.720952 -393.147051 
L 175.733323 -393.860933 
L 175.781953 -394.571384 
L 175.795241 -395.106699 
L 175.829025 -395.814764 
L 175.812667 -396.527969 
L 175.761117 -397.239786 
L 175.747965 -397.937201 
L 175.734305 -398.462919 
L 175.756538 -398.979424 
L 175.918012 -399.674635 
L 175.986106 -400.204321 
L 176.244346 -400.860342 
L 176.403479 -401.360483 
L 176.662491 -401.973487 
L 176.801358 -402.220031 
L 176.977616 -402.49712 
L 177.234828 -402.876979 
L 177.565959 -403.379862 
L 177.960072 -403.975062 
L 178.351566 -404.348324 
L 178.941104 -404.771156 
L 179.499641 -405.193314 
L 179.925743 -405.501578 
L 180.223813 -405.680517 
L 180.712226 -405.881447 
L 181.192048 -406.0995 
L 181.677553 -406.277782 
L 182.350011 -406.452637 
L 182.86781 -406.539417 
L 183.21285 -406.597551 
L 183.908359 -406.663206 
L 184.422851 -406.701315 
L 184.95161 -406.75458 
L 185.685875 -406.804873 
L 186.049422 -406.833338 
L 186.588813 -406.795859 
L 186.944579 -406.746138 
L 187.627553 -406.524444 
L 188.206326 -406.103863 
L 188.650502 -405.796032 
L 188.90468 -405.534408 
L 189.205827 -405.074622 
L 189.465282 -404.588876 
L 189.708919 -404.090865 
L 190.034891 -403.431025 
L 190.375489 -402.786946 
L 190.701097 -402.123973 
L 191.047921 -401.480486 
L 191.410354 -400.868543 
L 191.805911 -400.237269 
L 192.212356 -399.602604 
L 192.681131 -399.025917 
L 193.050109 -398.620364 
L 193.511506 -398.070798 
L 194.016908 -397.572493 
L 194.57748 -397.144225 
L 195.181319 -396.752881 
L 195.801808 -396.371269 
L 196.287041 -396.139883 
L 196.934577 -395.831126 
L 197.446368 -395.667655 
L 197.981766 -395.598371 
L 198.687074 -395.493153 
L 199.387025 -395.408549 
L 200.072965 -395.317941 
L 200.787504 -395.145596 
L 201.170091 -395.099808 
L 201.710156 -395.182578 
L 202.241142 -395.276689 
L 202.97248 -395.208062 
L 203.510773 -395.22866 
L 204.031591 -395.403276 
L 204.566978 -395.478344 
L 205.121401 -395.481084 
L 205.654917 -395.585433 
L 206.304374 -395.893955 
L 206.926557 -396.289757 
L 207.542136 -396.671713 
L 208.157118 -397.055116 
L 208.79302 -397.421498 
L 209.450494 -397.727599 
L 209.954213 -397.913089 
L 210.418048 -398.158647 
L 210.886599 -398.435405 
L 211.379234 -398.651398 
L 211.971731 -399.046527 
L 212.559456 -399.451665 
L 213.137904 -399.894654 
L 213.700049 -400.399479 
L 214.282542 -400.903912 
L 214.815194 -401.454935 
L 215.324508 -402.008042 
L 215.792626 -402.546635 
L 216.155796 -402.946465 
L 216.443883 -403.167722 
L 216.891564 -403.494761 
L 217.322391 -403.83689 
L 217.749393 -404.181555 
L 218.271918 -404.686207 
L 218.737358 -405.274811 
L 219.160086 -405.64298 
L 219.642828 -406.196374 
L 220.100953 -406.775955 
L 220.452972 -407.164959 
L 220.612258 -407.691507 
L 220.837675 -408.179274 
L 221.018955 -408.687112 
L 221.264059 -409.36812 
L 221.586898 -410.006713 
L 221.955675 -410.628607 
L 222.266357 -411.302163 
L 222.539116 -411.987708 
L 222.87359 -412.643153 
L 223.093563 -413.329021 
L 223.302292 -414.018401 
L 223.597285 -414.687043 
L 223.851122 -415.367678 
L 224.124842 -416.057439 
L 224.541625 -416.686732 
L 224.881599 -417.340846 
L 225.108997 -418.031043 
L 225.374731 -418.743832 
L 225.598601 -419.475483 
L 225.787655 -420.21683 
L 225.931239 -420.967403 
L 226.076486 -421.710021 
L 226.139519 -422.463372 
L 226.265253 -423.204695 
L 226.205845 -423.963174 
L 226.163668 -424.717289 
L 226.077671 -425.463399 
L 225.963313 -426.214854 
L 225.731978 -426.94215 
L 225.487926 -427.649825 
L 225.218376 -428.356335 
L 224.817659 -428.994727 
L 224.354387 -429.58309 
L 223.864843 -430.134622 
L 223.306468 -430.601314 
L 222.84213 -431.040024 
L 222.431706 -431.356592 
L 222.111564 -431.616509 
L 221.731579 -431.877964 
L 221.550937 -432.096818 
L 221.450533 -432.500746 
L 221.174373 -433.111232 
L 220.87064 -433.692116 
L 220.562038 -434.298312 
L 220.3077 -434.932981 
L 220.005499 -435.654479 
L 219.698999 -436.383454 
L 219.344273 -437.119251 
L 219.017352 -437.564857 
L 218.817265 -437.904716 
L 218.759697 -438.222063 
L 218.570638 -438.650587 
L 218.323851 -439.135711 
L 217.958678 -439.534745 
L 217.532832 -440.098225 
L 217.102917 -440.661349 
L 216.654746 -441.182569 
L 216.168784 -441.647577 
L 215.696192 -442.088466 
L 215.228499 -442.523324 
L 214.728872 -442.895211 
L 214.260745 -443.359347 
L 213.880343 -443.660322 
L 213.475522 -443.880724 
L 213.001646 -444.263296 
L 212.50106 -444.632533 
L 212.003588 -445.00502 
L 211.541091 -445.392634 
L 211.042444 -445.777895 
L 210.528798 -446.060035 
L 210.041846 -446.421299 
L 209.529031 -446.77718 
L 209.016435 -447.120048 
L 208.48548 -447.431495 
L 207.972364 -447.74677 
L 207.467293 -448.077457 
L 206.973535 -448.450176 
L 206.437159 -448.737895 
L 205.942256 -449.065311 
L 205.419242 -449.324332 
L 204.912555 -449.615257 
L 204.391658 -449.849815 
L 203.904364 -450.143119 
L 203.392454 -450.383688 
L 202.888771 -450.682078 
L 202.413723 -450.998982 
L 201.950271 -451.306106 
L 201.500889 -451.658032 
L 201.147724 -451.921128 
L 200.813341 -452.179134 
L 200.488589 -452.47255 
L 200.052897 -452.853493 
L 199.66088 -453.226536 
L 199.293721 -453.652921 
L 198.91999 -454.087024 
L 198.527914 -454.49995 
L 198.165566 -454.941749 
L 197.836442 -455.430005 
L 197.527322 -455.927629 
L 197.200799 -456.395037 
L 196.905936 -456.902157 
L 196.700068 -457.295638 
L 196.384247 -457.794115 
L 196.110967 -458.327831 
L 195.8246 -458.833733 
L 195.543836 -459.325649 
L 195.290263 -459.829934 
L 195.034287 -460.330367 
L 194.805734 -460.839553 
L 194.514794 -461.328593 
L 194.295747 -461.871502 
L 194.040672 -462.412298 
L 193.788296 -462.917182 
L 193.528006 -463.414247 
L 193.264718 -463.906617 
L 193.016868 -464.397879 
L 192.806483 -464.890288 
L 192.605407 -465.444014 
L 192.412344 -465.993508 
L 192.215845 -466.567468 
L 192.045333 -467.14922 
L 191.892557 -467.747693 
L 191.73882 -468.34183 
L 191.548555 -468.92313 
L 191.375165 -469.502235 
L 191.209683 -470.087593 
L 191.008978 -470.650113 
L 190.749577 -471.179345 
L 190.526543 -471.698642 
L 190.327367 -472.243084 
L 190.08158 -472.753499 
L 189.840813 -473.259328 
L 189.605556 -473.767678 
L 189.359383 -474.260501 
L 189.073526 -474.708081 
L 188.841808 -475.182446 
L 188.607337 -475.657178 
L 188.388206 -476.144296 
L 188.153986 -476.626618 
L 187.917587 -477.092075 
L 187.716402 -477.57543 
L 187.514976 -478.055894 
L 187.340845 -478.542461 
L 187.181791 -479.025631 
L 187.036284 -479.524204 
L 186.906375 -480.048175 
L 186.783895 -480.577799 
L 186.668496 -480.961256 
L 186.603479 -481.499949 
L 186.523776 -481.902992 
L 186.433365 -482.427506 
L 186.364509 -482.9603 
L 186.330014 -483.499308 
L 186.335584 -483.860771 
L 186.502683 -484.188372 
L 186.693926 -484.494488 
L 186.922775 -484.737409 
L 187.196451 -485.022555 
L 187.425 -485.14571 
L 187.701955 -485.302769 
L 188.069257 -485.529093 
L 188.508277 -485.771454 
L 188.982752 -485.952553 
L 189.36048 -486.027886 
L 189.850003 -486.106905 
L 190.289197 -486.226608 
L 190.702866 -486.32502 
L 190.962067 -486.29643 
L 191.299448 -486.204223 
L 191.64885 -486.065971 
L 191.88448 -486.043201 
L 192.118286 -486.158997 
L 192.4387 -486.325149 
L 192.797245 -486.537752 
L 193.097087 -486.791533 
L 193.319563 -487.175079 
L 193.490673 -487.624614 
L 193.750405 -488.028466 
L 193.943286 -488.470616 
L 194.104839 -488.932336 
L 194.249895 -489.407693 
L 194.248817 -489.885805 
L 194.197966 -490.536053 
L 194.127601 -491.022101 
L 194.047173 -491.503707 
L 193.945912 -491.97944 
L 193.78813 -492.596957 
L 193.635223 -493.192535 
L 193.492506 -493.798944 
L 193.395615 -494.396245 
L 193.285094 -495.003327 
L 193.142687 -495.577804 
L 193.014688 -496.022129 
L 192.921634 -496.624485 
L 192.843184 -497.068132 
L 192.637596 -497.491609 
L 192.50303 -498.107884 
L 192.378038 -498.722941 
L 192.257334 -499.164363 
L 192.014493 -499.56729 
L 191.87249 -500.012599 
L 191.747511 -500.476318 
L 191.452603 -501.038614 
L 191.152522 -501.582605 
L 190.889887 -502.116054 
L 190.701862 -502.599507 
L 190.51399 -502.864872 
L 190.25195 -503.396151 
L 189.953865 -503.914111 
L 189.664651 -504.36169 
L 189.488731 -504.696439 
L 189.40108 -505.070455 
L 189.487561 -505.436498 
L 189.639039 -505.807259 
L 189.726258 -506.187036 
L 189.764934 -506.680508 
L 189.795927 -507.15857 
L 189.872933 -507.67259 
L 189.889786 -508.21899 
L 189.808452 -508.737826 
L 189.831611 -509.259879 
L 189.694471 -509.756388 
L 189.607272 -510.274269 
L 189.403456 -510.76377 
L 189.211121 -511.247349 
L 189.075088 -511.76434 
L 188.887736 -512.218753 
L 188.609119 -512.709691 
L 188.471635 -513.217526 
L 188.240189 -513.637545 
L 187.967235 -514.075338 
L 187.842613 -514.619782 
L 187.790555 -515.187252 
L 187.752358 -515.740001 
L 187.85971 -516.138666 
L 188.051105 -516.633353 
L 188.172739 -516.978498 
L 188.220539 -517.331102 
L 188.154772 -517.694962 
L 188.001078 -518.167156 
L 187.83044 -518.674559 
L 187.637865 -519.158258 
L 187.516604 -519.468824 
L 187.49957 -519.926594 
L 187.447073 -520.441531 
L 187.366976 -520.907468 
L 187.180393 -521.397664 
L 187.144415 -521.752564 
L 187.006234 -522.032069 
L 186.736685 -522.425755 
L 186.511092 -522.920468 
L 186.337285 -523.389799 
L 186.253396 -523.881889 
L 186.11174 -524.482627 
L 186.00831 -524.952214 
L 185.880749 -525.373882 
L 185.670823 -525.860015 
L 185.492475 -526.415505 
L 185.330534 -526.977956 
L 185.19217 -527.538927 
L 185.103135 -528.113077 
L 185.0001 -528.689539 
L 184.918967 -529.265726 
L 184.845858 -529.844793 
L 184.823004 -530.416676 
L 184.849127 -531.005474 
L 184.837218 -531.450946 
L 184.778802 -532.012158 
L 184.805859 -532.585291 
L 184.81137 -533.155806 
L 184.761921 -533.711824 
L 184.796637 -534.284946 
L 184.787672 -534.860664 
L 184.812839 -535.451753 
L 184.831678 -536.053456 
L 184.819141 -536.642071 
L 184.81988 -537.22416 
L 184.77823 -537.794625 
L 184.786637 -538.383088 
L 184.78341 -538.955303 
L 184.822615 -539.570831 
L 184.818345 -540.167026 
L 184.835487 -540.75403 
L 184.822821 -541.339031 
L 184.796966 -541.90658 
L 184.767148 -542.465581 
L 184.773486 -543.032359 
L 184.723322 -543.590547 
L 184.700801 -544.148331 
L 184.648515 -544.730018 
L 184.644822 -545.312233 
L 184.573497 -545.888285 
L 184.54909 -546.464989 
L 184.469369 -547.029005 
L 184.419833 -547.609481 
L 184.327887 -548.161223 
L 184.255549 -548.699683 
L 184.159052 -549.250107 
L 184.095629 -549.827712 
L 184.036915 -550.434831 
L 183.898102 -551.021223 
L 183.775317 -551.601206 
L 183.681263 -552.185123 
L 183.583385 -552.773021 
L 183.483355 -553.364416 
L 183.415058 -553.966248 
L 183.333117 -554.567014 
L 183.266017 -555.17065 
L 183.23174 -555.792674 
L 183.175334 -556.424368 
L 183.123694 -557.041115 
L 183.062368 -557.663902 
L 183.028927 -558.450271 
L 183.007229 -559.080589 
L 183.020584 -559.703987 
L 183.051082 -560.345675 
L 183.034762 -560.972611 
L 183.063901 -561.585262 
L 183.066417 -562.161806 
L 183.084066 -562.692781 
L 183.060272 -563.200443 
L 182.998921 -563.726234 
L 182.897018 -564.265699 
L 182.818106 -564.812602 
L 182.712119 -565.342555 
L 182.616901 -565.870565 
L 182.503009 -566.395468 
L 182.411607 -566.913953 
L 182.344363 -567.419871 
L 182.249969 -567.937758 
L 182.140504 -568.463619 
L 181.998445 -568.961092 
L 181.915708 -569.512458 
L 181.800871 -570.047604 
L 181.707438 -570.567779 
L 181.610307 -571.098682 
L 181.469719 -571.620853 
L 181.361829 -572.159363 
L 181.274895 -572.706156 
L 181.216591 -573.270378 
L 181.12295 -573.814168 
L 181.092017 -574.354131 
L 181.05739 -574.904943 
L 181.021261 -575.492748 
L 181.001058 -576.086194 
L 181.030036 -576.510036 
L 181.02379 -577.072976 
L 181.012752 -577.632188 
L 181.039284 -578.184477 
L 181.113592 -578.753323 
L 181.217276 -579.358274 
L 181.307007 -579.99879 
L 181.491436 -580.659168 
L 181.676542 -581.126399 
L 181.8638 -581.674356 
L 181.994442 -582.300717 
L 182.307386 -582.861984 
L 182.556561 -583.439973 
L 182.656318 -583.979745 
L 182.73155 -584.360867 
L 182.837653 -584.570847 
L 183.048256 -584.710187 
L 183.060508 -584.990069 
L 182.889492 -585.577831 
L 182.764163 -586.143356 
L 182.642304 -586.708875 
L 182.536586 -587.346424 
L 182.464878 -587.748004 
L 182.315813 -588.122103 
L 182.148095 -588.507436 
L 181.987096 -588.904567 
L 181.818641 -589.359543 
L 181.63544 -589.797432 
L 181.424222 -590.309704 
L 181.205758 -590.86211 
L 180.933982 -591.375675 
L 180.66375 -591.881888 
L 180.408869 -592.409164 
L 180.16658 -592.954737 
L 179.893865 -593.481558 
L 179.618872 -594.004885 
L 179.29929 -594.483577 
L 179.038961 -594.967966 
L 178.83453 -595.53999 
L 178.527793 -596.044689 
L 178.283828 -596.590142 
L 177.975918 -597.110746 
L 177.654329 -597.607273 
L 177.34362 -598.095831 
L 177.021194 -598.591876 
L 176.704937 -599.052247 
L 176.405134 -599.551151 
L 176.057643 -600.011808 
L 175.697679 -600.45453 
L 175.395082 -600.92452 
L 175.069179 -601.416473 
L 174.739075 -601.901322 
L 174.46815 -602.257885 
L 174.136988 -602.754905 
L 173.766335 -603.171134 
L 173.534674 -603.532579 
L 173.250774 -603.855543 
L 172.90955 -604.262693 
L 172.583327 -604.698858 
L 172.27971 -605.125231 
L 171.948172 -605.525618 
L 171.647984 -605.923911 
L 171.363367 -606.329774 
L 171.146598 -606.644204 
L 170.906781 -606.910594 
L 170.715107 -607.198963 
L 170.547909 -607.52995 
L 170.367603 -607.900838 
L 170.138303 -608.323728 
L 169.972062 -608.73761 
L 169.811887 -609.125939 
L 169.701833 -609.496243 
L 169.576555 -609.849459 
L 169.499166 -610.214775 
L 169.471087 -610.580863 
L 169.544462 -610.838965 
L 169.773344 -611.210464 
L 170.07725 -611.571612 
L 170.423441 -611.958966 
L 170.782637 -612.318106 
L 171.159657 -612.671679 
L 171.536643 -613.000671 
L 171.931439 -613.315903 
L 172.254417 -613.706785 
L 172.603888 -614.045217 
L 172.994487 -614.353226 
L 173.369685 -614.688609 
L 173.745857 -615.035677 
L 174.118453 -615.39227 
L 174.367112 -615.617829 
L 174.618181 -615.85471 
L 174.885434 -616.11157 
L 175.203846 -616.40643 
L 175.600592 -616.744915 
L 176.151378 -617.17704 
L 176.712763 -617.571678 
L 177.140203 -617.866142 
L 177.70208 -618.269815 
L 178.141328 -618.536187 
L 178.560361 -618.810059 
L 178.983191 -619.061515 
L 179.40613 -619.304657 
L 179.98112 -619.587944 
L 180.575277 -619.884578 
L 181.156288 -620.193401 
L 181.748405 -620.48534 
L 182.335041 -620.794999 
L 182.954074 -621.077863 
L 183.5776 -621.323489 
L 184.21386 -621.517288 
L 184.837112 -621.736406 
L 185.463591 -621.954436 
L 186.101866 -622.134496 
L 186.585888 -622.241157 
L 187.257254 -622.378155 
L 187.926283 -622.555158 
L 188.42557 -622.707826 
L 188.943978 -622.840586 
L 189.458805 -622.980459 
L 189.981999 -623.111526 
L 190.504 -623.246208 
L 191.191402 -623.466323 
L 191.68476 -623.657678 
L 192.325982 -623.973048 
L 192.824847 -624.16548 
L 193.460561 -624.480256 
L 193.918379 -624.759743 
L 194.382041 -625.025244 
L 194.857974 -625.250604 
L 195.190144 -625.457615 
L 195.503487 -625.638747 
L 195.802765 -625.776281 
L 196.124851 -625.961257 
L 196.364543 -626.194185 
L 196.655801 -626.330286 
L 196.967114 -626.515036 
L 197.249748 -626.730071 
L 197.54714 -626.888453 
L 197.867968 -627.030657 
L 198.089779 -627.144325 
L 198.43552 -627.300349 
L 198.774381 -627.499881 
L 199.14623 -627.581887 
L 199.496294 -627.663682 
L 199.832846 -627.753811 
L 200.101013 -627.97923 
L 200.442784 -628.120803 
L 200.712905 -628.119934 
L 200.947393 -628.142493 
L 201.211446 -628.337072 
L 201.503379 -628.52643 
L 201.71342 -628.781573 
L 202.045392 -628.932196 
L 202.39157 -629.059062 
L 202.762236 -629.321929 
L 205.042142 -629.380129 
L 205.243211 -629.466476 
L 205.410228 -629.510338 
L 205.507402 -629.504657 
L 205.740345 -629.533363 
L 206.046738 -629.623537 
L 206.339317 -629.762891 
L 206.491249 -629.802196 
L 206.819129 -629.766786 
L 207.146192 -629.66113 
L 207.47074 -629.554032 
L 207.81301 -629.539086 
L 208.154258 -629.563059 
L 208.648891 -629.637301 
L 209.153185 -629.688877 
L 209.899069 -629.789872 
L 210.225413 -629.853389 
L 210.584442 -629.925897 
L 210.925663 -630.100005 
L 211.30395 -630.24936 
L 211.495893 -630.229808 
L 212.025678 -630.108923 
L 212.956437 -630.184353 
L 213.923473 -630.353837 
L 214.461847 -630.553452 
L 215.278236 -631.004141 
L 216.455542 -631.676868 
L 217.017454 -631.847653 
L 218.050554 -632.358524 
L 219.076125 -632.876516 
L 219.956659 -633.236507 
L 220.837571 -633.610113 
L 221.725056 -633.977446 
L 222.631598 -634.362465 
L 223.710781 -634.705188 
L 224.647685 -634.892917 
L 225.805887 -635.168294 
L 226.966854 -635.452103 
L 228.084728 -635.730069 
L 229.018872 -635.997452 
L 229.967536 -636.205531 
L 231.325048 -636.333387 
L 232.306639 -636.377911 
L 233.308405 -636.300225 
L 234.501394 -636.198893 
L 235.304859 -636.045456 
L 236.288858 -635.841276 
L 237.289695 -635.608516 
L 237.848559 -635.478437 
L 238.975527 -635.319363 
L 240.121959 -635.301481 
L 241.092413 -635.338673 
L 242.250341 -635.408255 
L 243.195679 -635.543205 
L 243.915819 -635.713777 
L 244.466416 -635.918929 
L 244.869442 -636.040545 
L 245.282761 -636.160097 
L 245.886688 -636.329749 
L 246.266369 -636.445735 
L 246.643585 -636.596306 
L 247.182967 -636.913777 
L 247.675334 -637.246978 
L 247.958734 -637.494801 
L 248.337358 -637.884193 
L 248.550187 -638.165252 
L 248.755009 -638.454274 
L 248.898467 -638.767121 
L 248.933416 -638.940585 
L 248.987427 -639.310311 
L 249.199737 -639.649088 
L 249.291539 -639.824762 
L 249.562027 -640.342996 
L 249.862056 -641.020967 
L 249.963944 -641.566428 
L 250.174766 -642.473948 
L 250.258346 -643.023291 
L 250.32374 -643.576757 
L 250.412985 -644.327803 
L 250.530963 -645.259552 
L 250.605013 -646.189073 
L 250.695279 -646.72684 
L 250.812353 -647.437963 
L 250.935631 -648.133774 
L 250.953837 -648.839974 
L 251.084153 -649.345875 
L 251.167087 -649.861722 
L 251.269385 -650.360432 
L 251.411637 -650.844627 
L 251.55351 -651.313158 
L 251.680169 -651.772191 
L 251.841143 -652.380712 
L 252.019374 -653.004029 
L 252.192958 -653.643862 
L 252.276217 -653.963301 
L 252.333506 -654.456893 
L 252.346029 -654.947776 
L 252.717508 -655.454908 
L 253.436841 -655.650919 
L 254.251623 -655.540737 
L 255.021704 -655.212158 
L 255.561394 -654.88643 
L 256.214764 -654.369437 
L 257.012109 -653.67439 
L 257.603011 -653.07651 
L 258.337019 -652.362392 
L 258.818275 -652.015416 
L 259.650761 -651.459975 
L 260.147851 -651.137438 
L 261.019891 -650.710029 
L 262.07541 -650.282124 
L 263.14963 -649.877328 
L 263.727634 -649.733013 
L 264.674192 -649.444191 
L 265.668394 -649.33629 
L 266.667168 -649.158736 
L 267.68412 -649.056829 
L 268.697387 -649.059398 
L 269.695929 -649.06018 
L 270.676017 -649.218238 
L 271.621335 -649.508168 
L 272.343205 -649.800939 
L 272.861266 -650.105441 
L 273.528097 -650.497459 
L 273.993235 -650.874574 
L 274.4254 -651.295716 
L 274.972905 -651.86455 
L 275.453671 -652.467819 
L 275.936838 -653.340156 
L 276.344665 -654.257784 
L 276.712892 -655.187035 
L 277.009874 -655.919733 
L 277.24402 -656.651554 
L 277.501126 -657.719533 
L 277.597866 -658.272123 
L 277.810759 -658.955052 
L 277.929567 -659.453146 
L 278.211427 -660.419633 
L 278.455879 -661.250369 
L 278.644629 -661.871879 
L 278.839525 -662.346492 
L 279.100066 -663.127683 
L 279.201988 -663.443489 
L 279.50025 -664.063763 
L 280.062563 -664.61234 
L 281.002347 -665.059301 
L 281.625612 -665.190752 
L 282.639985 -665.302386 
L 283.638928 -665.243778 
L 284.386933 -665.040555 
L 285.157796 -664.923095 
L 286.091931 -664.731426 
L 287.023268 -664.596033 
L 287.974908 -664.69197 
L 289.142237 -664.796287 
L 290.500038 -665.026868 
L 291.468573 -665.223882 
L 292.584324 -665.511069 
L 293.136593 -665.712631 
L 294.05945 -666.029244 
L 295.154131 -666.399848 
L 296.050046 -666.706739 
L 296.743821 -666.93269 
L 297.245394 -667.083231 
L 297.948529 -667.240607 
L 298.491374 -667.285896 
L 299.171482 -667.407394 
L 299.639075 -667.654262 
L 299.974039 -668.067238 
L 300.174255 -668.318688 
L 300.520632 -668.674292 
L 300.756492 -668.909306 
L 301.097776 -669.30444 
L 301.462349 -669.664237 
L 302.055153 -669.924551 
L 302.53381 -669.94342 
L 302.976748 -670.191166 
L 303.235894 -670.654014 
L 303.479566 -671.267508 
L 303.643933 -671.739764 
L 303.895635 -672.185511 
L 304.258166 -672.628337 
L 304.83192 -673.142211 
L 305.575169 -673.757316 
L 306.245736 -674.350108 
L 306.672215 -674.730309 
L 307.133113 -675.07359 
L 307.619 -675.396352 
L 308.297868 -675.843812 
L 308.882392 -676.088237 
L 309.496538 -676.286711 
L 309.904355 -676.407261 
L 310.508193 -676.594422 
L 311.118998 -676.712528 
L 311.727273 -676.817262 
L 312.522346 -676.895715 
L 313.506456 -677.010545 
L 314.698868 -677.157748 
L 315.683935 -677.272096 
L 316.657178 -677.404173 
L 317.571516 -677.701658 
L 318.457516 -678.019666 
L 319.34352 -678.340809 
L 320.065135 -678.621083 
L 320.647107 -678.743931 
L 321.426664 -678.85374 
L 322.201136 -678.916921 
L 322.779243 -678.926022 
L 323.584607 -678.819015 
L 324.402869 -678.600406 
L 325.164991 -678.2874 
L 325.697908 -677.973618 
L 326.229124 -677.641884 
L 326.703742 -677.230334 
L 327.322016 -676.659407 
L 328.147021 -676.020117 
L 328.821375 -675.589137 
L 329.660052 -675.149259 
L 330.22955 -674.801325 
L 331.090166 -674.207897 
L 331.905882 -673.602359 
L 332.27618 -673.226255 
L 332.413795 -672.845766 
L 332.43154 -672.420129 
L 332.238866 -671.362021 
L 332.009871 -670.53159 
L 331.776045 -669.938555 
L 331.469441 -669.162938 
L 331.11349 -668.180727 
L 330.617124 -667.006265 
L 330.176171 -665.831368 
L 329.959785 -664.58724 
L 329.921343 -663.765832 
L 330.040635 -662.306394 
L 330.083215 -662.105098 
L 330.460174 -661.162865 
L 330.69781 -660.57594 
L 331.072522 -659.832417 
L 331.425564 -659.353305 
L 332.185758 -658.580337 
L 332.696926 -658.200182 
L 333.059687 -658.005802 
L 333.948819 -657.701893 
L 334.288585 -657.675764 
L 335.013998 -657.829745 
L 336.078124 -658.334529 
L 336.944068 -658.856575 
L 337.521665 -659.369854 
L 338.088918 -659.936771 
L 338.524083 -660.360832 
L 339.225817 -661.068315 
L 340.033636 -661.982076 
L 340.658315 -662.708824 
L 341.413289 -663.579398 
L 341.885877 -664.155123 
L 342.248518 -664.587479 
L 342.630047 -665.001492 
L 343.325062 -665.608369 
L 343.771099 -665.929992 
L 344.07467 -666.134798 
L 344.711193 -666.499665 
L 345.338537 -666.892984 
L 345.794594 -667.188806 
L 346.245132 -667.474514 
L 346.668037 -667.771104 
L 346.947276 -667.951241 
L 347.177291 -668.198083 
L 347.339141 -668.489844 
L 347.448601 -669.167767 
L 347.483777 -669.518263 
L 347.538943 -669.870058 
L 347.712791 -670.362079 
L 347.952034 -670.619633 
L 348.343147 -670.951334 
L 348.6077 -671.159087 
L 348.988983 -671.480439 
L 349.29306 -671.887692 
L 349.523699 -672.335533 
L 349.720372 -672.983094 
L 349.871467 -673.467796 
L 350.073878 -673.929654 
L 350.224604 -674.228179 
L 350.392914 -674.517282 
L 350.700946 -674.929472 
L 351.031492 -675.079898 
L 351.548974 -675.304305 
L 352.09739 -675.388283 
L 352.630149 -675.490117 
L 353.166085 -675.549169 
L 353.906261 -675.552997 
L 354.642842 -675.282082 
L 355.15399 -674.970016 
L 355.54695 -674.527 
L 355.867074 -674.036001 
L 356.040618 -673.668112 
L 356.223693 -673.084267 
L 356.407405 -671.896939 
L 356.446227 -671.115059 
L 356.390675 -670.109169 
L 356.270878 -669.306414 
L 356.170803 -668.483629 
L 356.087749 -667.861098 
L 356.062254 -667.047853 
L 356.108715 -666.43286 
L 356.24596 -665.408395 
L 356.351686 -664.806698 
L 356.689677 -664.071291 
L 356.987851 -663.545855 
L 357.367252 -663.07779 
L 357.847911 -662.699002 
L 358.203466 -662.480894 
L 358.55332 -662.296413 
L 359.072372 -662.076036 
L 359.742825 -661.848586 
L 360.33879 -661.770902 
L 360.352812 -661.78438 
L 360.555961 -661.899067 
L 361.125079 -662.063754 
L 361.640001 -662.15838 
L 362.573788 -662.388492 
L 363.527842 -662.648341 
L 364.277796 -662.800012 
L 365.344169 -663.184314 
L 366.530762 -663.515072 
L 367.624634 -663.877889 
L 368.774095 -664.096388 
L 370.066938 -664.398567 
L 371.236178 -664.549679 
L 372.533374 -664.701946 
L 373.839683 -664.956993 
L 375.146929 -665.287596 
L 376.247737 -665.551235 
L 377.276841 -665.990546 
L 378.387974 -666.548928 
L 379.244751 -667.012814 
L 379.961418 -667.422178 
L 380.817767 -668.014524 
L 381.43936 -668.306041 
L 382.209268 -668.791254 
L 382.846653 -669.166985 
L 383.67643 -669.669352 
L 384.425249 -670.226296 
L 384.822358 -670.655491 
L 385.105676 -670.932638 
L 385.478335 -671.336198 
L 385.843987 -671.691325 
L 386.21694 -672.230454 
L 386.421372 -672.682079 
L 386.599245 -673.32667 
L 386.716542 -673.964352 
L 386.672757 -674.621167 
L 386.62747 -675.136028 
L 386.562766 -675.815527 
L 386.44067 -676.63067 
L 386.305665 -677.278568 
L 386.100608 -677.901133 
L 385.895172 -678.692285 
L 385.734411 -679.323105 
L 385.549684 -680.116278 
L 385.399809 -680.92712 
L 385.323228 -681.584701 
L 385.321723 -682.081669 
L 385.357681 -682.578105 
L 385.434277 -683.214275 
L 385.485641 -683.868071 
L 385.614852 -684.374266 
L 385.86764 -685.014179 
L 386.068568 -685.260348 
L 386.326396 -685.451732 
L 386.618773 -685.609088 
L 386.945502 -685.675055 
L 387.295948 -685.663626 
L 387.633811 -685.547132 
L 387.942157 -685.376329 
L 388.376757 -685.095458 
L 389.069262 -684.60553 
L 389.798462 -683.893098 
L 390.149745 -683.511353 
L 390.92125 -682.562913 
L 391.450778 -681.923651 
L 392.258536 -681.147005 
L 392.949705 -680.639603 
L 393.790491 -680.040177 
L 394.835023 -679.461088 
L 395.801044 -679.162642 
L 396.716609 -678.997783 
L 397.674123 -678.967114 
L 398.683089 -679.014948 
L 399.597342 -678.945654 
L 401.017146 -679.120082 
L 401.680049 -679.421438 
L 402.688494 -679.895508 
L 403.552795 -680.252877 
L 404.355332 -680.702275 
L 405.017582 -681.054007 
L 405.826809 -681.493395 
L 406.466109 -681.868295 
L 407.135405 -682.209053 
L 407.917253 -682.670653 
L 408.205055 -682.899359 
L 408.659227 -683.213889 
L 409.120697 -683.525758 
L 410.224402 -684.171675 
L 411.453779 -684.994936 
L 412.167009 -685.80333 
L 412.80493 -686.500957 
L 413.158866 -687.147138 
L 413.338011 -687.859587 
L 413.371759 -688.410384 
L 413.342436 -688.874498 
L 413.316164 -689.291972 
L 413.042906 -689.945241 
L 412.637785 -690.536862 
L 412.129605 -691.034622 
L 411.581144 -691.483508 
L 410.54236 -692.167663 
L 409.618796 -692.723328 
L 408.90838 -693.257142 
L 407.944034 -694.023626 
L 407.053719 -695.114057 
L 406.565076 -695.817375 
L 406.229981 -696.411794 
L 405.882291 -696.983815 
L 405.586084 -697.568783 
L 405.353384 -698.207414 
L 405.456637 -699.102287 
L 405.70627 -699.994679 
L 406.107403 -701.232127 
L 406.51923 -702.22445 
L 406.882246 -703.143569 
L 407.380924 -704.100592 
L 407.797834 -704.765371 
L 408.368726 -705.567328 
L 408.702345 -706.246195 
L 408.953339 -706.802011 
L 409.381544 -707.502447 
L 409.783112 -708.152907 
L 410.160046 -708.820271 
L 410.544752 -709.481599 
L 410.789353 -710.000911 
L 411.044001 -710.515269 
L 411.400723 -711.196759 
L 411.630235 -711.71115 
L 412.069244 -712.53136 
L 412.361556 -713.20257 
L 412.628882 -713.897435 
L 412.9261 -714.568037 
L 413.126409 -715.272267 
L 413.350529 -715.971044 
L 413.492565 -716.315392 
L 413.657926 -716.646334 
L 413.802104 -716.980195 
L 413.902746 -717.339782 
L 414.138802 -717.825003 
L 414.333939 -718.134577 
L 414.432044 -718.28858 
L 414.759616 -718.735242 
L 415.141834 -719.140137 
L 415.280003 -719.266613 
L 415.564822 -719.507864 
L 416.084888 -719.787615 
L 416.655818 -719.9674 
L 417.043718 -720.040892 
L 417.819738 -720.0752 
L 418.590232 -720.000215 
L 418.969632 -719.976589 
L 419.731029 -719.901375 
L 420.312806 -719.857001 
L 421.108094 -719.79524 
L 422.093503 -719.768424 
L 423.037591 -719.814689 
L 423.605855 -719.874212 
L 424.172168 -719.904815 
L 424.917732 -719.989176 
L 425.654369 -720.114281 
L 426.214052 -720.20105 
L 426.761908 -720.306394 
L 427.466354 -720.530478 
L 427.988934 -720.714547 
L 428.704495 -720.923313 
L 429.231715 -721.084359 
L 429.916809 -721.337633 
L 430.27494 -721.436232 
L 430.969727 -721.686482 
L 431.469177 -721.942043 
L 431.837242 -722.039184 
L 432.40668 -722.078462 
L 432.9649 -722.143665 
L 433.343523 -722.165595 
L 434.097202 -722.13414 
L 434.667767 -722.117501 
L 435.39673 -722.133318 
L 435.940687 -722.088635 
L 436.474689 -721.932132 
L 436.976753 -721.697459 
L 437.414984 -721.339828 
L 437.945478 -720.775284 
L 438.281372 -720.32487 
L 438.490751 -719.970304 
L 438.896086 -719.344821 
L 439.06197 -718.7658 
L 439.240351 -718.225566 
L 439.40792 -717.275615 
L 439.43628 -716.701711 
L 439.439273 -715.945748 
L 439.527842 -714.996862 
L 439.61558 -714.429751 
L 439.800534 -713.882279 
L 440.21093 -712.99974 
L 440.601834 -712.32149 
L 441.163353 -711.77498 
L 441.75271 -711.282301 
L 442.244819 -711.030043 
L 443.110654 -710.710061 
L 443.636788 -710.57598 
L 444.530922 -710.483846 
L 445.437537 -710.417486 
L 445.967447 -710.334617 
L 446.680284 -710.275495 
L 447.218461 -710.292519 
L 447.731737 -710.401163 
L 448.176401 -710.67861 
L 448.678479 -710.828603 
L 449.214104 -710.909622 
L 450.094149 -711.03274 
L 450.450356 -711.02457 
L 451.162362 -710.969669 
L 451.51254 -710.92668 
L 452.042143 -710.883098 
L 452.579523 -710.837821 
L 453.270407 -710.642914 
L 453.773974 -710.454874 
L 454.188508 -710.095341 
L 454.697561 -709.323419 
L 455.02216 -708.64513 
L 455.157813 -708.106152 
L 455.252522 -707.371998 
L 455.283884 -706.237951 
L 455.260545 -705.672543 
L 455.220085 -704.914823 
L 455.160849 -703.981301 
L 455.216998 -703.045462 
L 455.296004 -702.295059 
L 455.421479 -701.754407 
L 455.571016 -701.216856 
L 455.692548 -700.868905 
L 456.008777 -700.199904 
L 456.195083 -699.867416 
L 456.442436 -699.347333 
L 456.904926 -698.764911 
L 457.311419 -698.387309 
L 457.602014 -698.174112 
L 458.113513 -698.0098 
L 458.640445 -698.027319 
L 459.134527 -698.192024 
L 459.732232 -698.51772 
L 460.286064 -698.982181 
L 460.803437 -699.483807 
L 461.262954 -700.047812 
L 461.656578 -700.659866 
L 462.151531 -701.417849 
L 462.790396 -702.298088 
L 463.178766 -702.920514 
L 463.661172 -703.696833 
L 464.083041 -704.496489 
L 464.474621 -705.102763 
L 464.918254 -705.886966 
L 465.279933 -706.512923 
L 465.715432 -707.301596 
L 465.982126 -707.781494 
L 466.326702 -708.420248 
L 466.596151 -708.900866 
L 466.982729 -709.529202 
L 467.453407 -710.309999 
L 468.003023 -711.041889 
L 468.412905 -711.641877 
L 468.857823 -712.2135 
L 469.414014 -712.653141 
L 470.083577 -712.82209 
L 470.907864 -712.478303 
L 471.652829 -711.688965 
L 472.185368 -710.927373 
L 472.688813 -710.161118 
L 473.289486 -709.231083 
L 473.991133 -708.164378 
L 474.515042 -707.394721 
L 475.011837 -706.86058 
L 475.594669 -705.9249 
L 476.118146 -705.191277 
L 476.574919 -704.62284 
L 477.2379 -703.743458 
L 477.85947 -703.057069 
L 478.377002 -702.545435 
L 479.246459 -701.851016 
L 480.149613 -701.299722 
L 480.960134 -700.950164 
L 482.012491 -700.823608 
L 482.740758 -700.836296 
L 483.996425 -700.947615 
L 485.250342 -701.189572 
L 486.312652 -701.361877 
L 487.003792 -701.546466 
L 487.705774 -701.693321 
L 488.74178 -701.886871 
L 489.442022 -701.980944 
L 490.321648 -702.132876 
L 491.046481 -702.172929 
L 492.147563 -702.238413 
L 492.900899 -702.289396 
L 493.630513 -702.418021 
L 494.139523 -702.645024 
L 494.808775 -702.93895 
L 495.262853 -703.269063 
L 495.546965 -703.511296 
L 495.887583 -703.949775 
L 496.123905 -704.359222 
L 496.226187 -704.50166 
L 496.286967 -704.957607 
L 496.260245 -705.221084 
L 496.243382 -705.42393 
L 496.191457 -705.730704 
L 496.113683 -706.042812 
L 495.990554 -706.363656 
L 495.912345 -706.519579 
L 495.619035 -706.961755 
L 495.130373 -707.499022 
L 494.345367 -708.252987 
L 493.784184 -708.707553 
L 493.109725 -709.32146 
L 492.308185 -710.063032 
L 491.674835 -710.717379 
L 490.996706 -711.554482 
L 490.445873 -712.243793 
L 489.778078 -712.824911 
L 489.124921 -713.433486 
L 488.498984 -714.080351 
L 488.005991 -714.597736 
L 487.542126 -715.147985 
L 487.063761 -715.684994 
L 486.473673 -716.377969 
L 486.128999 -716.808757 
L 485.815716 -717.263609 
L 485.407347 -717.873681 
L 485.075133 -718.313612 
L 484.859092 -718.61336 
L 484.560673 -719.084582 
L 484.389669 -719.408858 
L 484.120831 -719.893057 
L 483.868641 -720.384466 
L 483.671302 -720.899547 
L 483.566503 -721.425357 
L 483.629256 -721.930588 
L 483.848281 -722.391876 
L 484.122693 -722.634484 
L 484.61269 -722.883809 
L 485.152451 -723.012197 
L 485.696106 -723.095267 
L 486.246569 -723.16676 
L 486.613382 -723.115682 
L 487.347421 -723.056668 
L 488.071257 -722.97465 
L 488.790595 -722.836719 
L 489.151999 -722.767209 
L 489.884961 -722.611666 
L 490.433828 -722.457079 
L 491.175922 -722.329002 
L 491.73968 -722.212839 
L 492.488869 -722.110302 
L 493.049756 -722.091759 
L 493.791181 -722.0989 
L 494.517339 -722.245253 
L 495.215742 -722.500104 
L 495.69094 -722.782472 
L 496.291535 -723.219784 
L 496.843599 -723.710545 
L 497.20751 -724.116219 
L 497.588423 -724.719515 
L 497.976734 -725.304002 
L 498.170041 -725.780874 
L 498.247179 -726.112793 
L 498.25174 -726.799355 
L 498.28375 -727.322706 
L 498.362211 -727.660168 
L 498.539869 -728.163091 
L 498.802111 -728.631442 
L 499.019477 -728.915341 
L 499.249031 -729.182112 
L 499.50034 -729.424031 
L 499.778182 -729.63398 
L 500.083398 -729.813645 
L 500.407383 -729.973885 
L 500.939338 -730.079873 
L 501.664881 -730.01919 
L 502.015961 -729.923906 
L 502.676279 -729.581059 
L 502.986147 -729.359528 
L 503.495765 -728.824409 
L 503.868591 -728.405757 
L 504.444656 -727.687252 
L 504.900705 -727.100378 
L 505.426084 -726.338912 
L 505.875557 -725.758072 
L 506.352104 -725.194069 
L 506.870344 -724.660866 
L 507.409442 -724.150895 
L 508.102605 -723.554805 
L 508.822172 -723.013756 
M 351.970609 -432.583161 
L 354.396846 -431.023852 
L 365.445943 -435.775167 
L 364.077874 -437.754908 
L 351.970609 -432.583161 
M 389.023621 -383.1135 
L 378.733176 -384.052429 
L 378.63003 -382.95406 
L 378.419231 -380.706476 
L 389.886284 -380.08172 
L 389.90466 -380.767612 
L 389.590549 -381.414237 
L 389.248262 -382.192136 
L 389.023621 -383.1135 
M 376.678276 -291.295301 
L 376.794936 -287.8488 
L 387.221233 -287.749457 
L 388.14493 -290.854049 
L 376.678276 -291.295301 
M 476.203682 -158.066114 
L 479.127494 -156.840772 
L 482.897552 -167.645316 
L 479.84779 -168.719956 
L 476.203682 -158.066114 
M 441.254498 -439.692673 
L 442.728486 -442.134839 
L 428.188861 -442.306177 
L 428.846472 -439.338778 
L 441.254498 -439.692673 
M 497.559175 -187.895907 
L 492.705001 -176.042759 
L 495.406058 -174.83637 
L 500.396622 -187.241036 
L 497.559175 -187.895907 
M 367.872612 -455.709139 
L 368.24988 -453.126418 
L 400.175884 -463.234797 
L 398.048447 -464.120474 
L 367.872612 -455.709139 
M 481.733334 -180.863638 
L 487.190001 -178.453185 
L 491.236158 -190.702121 
L 486.386685 -192.235085 
L 486.165157 -192.211331 
L 481.733334 -180.863638 
M 359.055478 -367.685729 
L 361.655112 -373.079493 
L 350.017836 -377.643809 
L 346.972312 -373.122849 
L 359.055478 -367.685729 
M 504.892091 -198.469379 
L 510.40254 -196.100863 
L 514.787995 -207.169445 
L 508.39561 -209.751034 
L 504.892091 -198.469379 
M 378.328073 -516.035558 
L 379.355943 -514.167224 
L 434.354739 -522.996358 
L 434.157574 -524.286806 
L 379.005274 -517.180476 
L 378.996726 -516.294775 
L 378.328073 -516.035558 
M 360.443009 -320.431569 
L 377.619743 -317.437017 
L 377.79259 -317.741748 
L 377.794472 -319.913365 
L 377.853409 -322.528714 
L 378.536945 -324.722657 
L 379.017258 -326.317644 
L 378.876181 -326.514887 
L 364.526497 -328.709394 
L 360.443009 -320.431569 
M 509.93098 -618.12994 
L 511.806683 -615.395042 
L 509.319279 -614.987721 
L 509.079705 -612.651499 
L 512.342949 -612.802664 
L 512.479349 -611.279055 
L 518.882241 -611.242547 
L 522.284202 -614.503204 
L 520.007124 -615.40355 
L 518.919463 -621.316135 
L 532.486142 -617.444298 
L 536.237593 -618.902472 
L 531.250943 -620.738174 
L 512.52287 -626.300337 
L 511.979372 -625.343437 
L 511.906941 -624.873162 
L 510.902048 -622.211222 
L 510.296636 -619.297006 
L 509.93098 -618.12994 
M 365.276144 -610.228786 
L 397.202552 -612.694982 
L 398.360588 -617.665392 
L 360.836608 -614.422409 
L 360.836727 -614.422288 
L 360.579674 -614.54664 
L 360.079541 -614.334156 
L 359.670657 -614.152035 
L 360.362734 -613.449871 
L 360.59671 -612.987657 
L 360.249602 -612.552392 
L 360.436112 -612.129769 
L 360.625292 -611.558802 
L 360.81819 -611.610595 
L 361.251024 -611.27078 
L 361.176188 -611.075064 
L 361.774052 -610.627292 
L 362.226655 -610.389999 
L 362.356733 -610.631551 
L 362.644951 -610.715387 
L 363.132969 -609.937825 
L 363.900343 -610.120899 
L 364.120139 -610.411614 
L 364.659304 -610.36725 
L 365.021234 -610.170692 
L 365.276144 -610.228786 
M 301.122983 -604.142105 
L 309.998053 -571.631363 
L 316.43863 -573.525044 
L 306.988626 -607.488112 
L 301.122983 -604.142105 
M 341.531306 -496.719282 
L 341.761 -496.713645 
L 371.804009 -503.989591 
L 373.181114 -506.235147 
L 373.158431 -508.052512 
L 373.845819 -510.046604 
L 373.77551 -511.454684 
L 339.124166 -504.565434 
L 339.450428 -503.705056 
L 339.980339 -502.874267 
L 340.527923 -502.013087 
L 341.019497 -501.158371 
L 341.381329 -500.311919 
L 341.571278 -499.467885 
L 341.62191 -498.632849 
L 341.582098 -497.748178 
L 341.531306 -496.719282 
M 447.703431 -454.243263 
L 449.355504 -457.016603 
L 438.915802 -459.319108 
L 438.771113 -457.658092 
L 427.201333 -455.500781 
L 424.682912 -451.45437 
L 425.040311 -450.332881 
L 426.20953 -447.932103 
L 427.127624 -445.462273 
L 427.179988 -445.080185 
L 444.689583 -445.348174 
L 446.159327 -448.265772 
L 446.953855 -451.231827 
L 447.703431 -454.243263 
M 413.862169 -435.223087 
L 399.196182 -428.512589 
L 399.825588 -425.293411 
L 378.907922 -418.714864 
L 379.019569 -418.362462 
L 382.804765 -413.70593 
L 383.976012 -412.351634 
L 388.409927 -410.149664 
L 389.080258 -409.888976 
L 389.373587 -409.513406 
L 392.683007 -404.956123 
L 395.811382 -407.042975 
L 398.572596 -410.754693 
L 400.393343 -412.886167 
L 405.594298 -416.109747 
L 406.838958 -416.893014 
L 407.322655 -417.440729 
L 409.424214 -419.069178 
L 409.550371 -419.388819 
L 415.33049 -423.706781 
L 418.617353 -427.050516 
L 420.609302 -430.956644 
L 419.399019 -431.842821 
L 419.188095 -432.00895 
L 418.743945 -431.901502 
L 416.936822 -433.712968 
L 415.712502 -434.989008 
L 414.465861 -435.479248 
L 413.862169 -435.223087 
M 418.659688 -552.671829 
L 419.060969 -550.606967 
L 420.391703 -545.731039 
L 479.739231 -553.188712 
L 479.958527 -555.052862 
L 478.932802 -555.255758 
L 478.85566 -556.997509 
L 478.4139 -558.031505 
L 477.473291 -559.485322 
L 478.626665 -561.633453 
L 478.748408 -562.795269 
L 478.859956 -562.871522 
L 479.280867 -563.158975 
L 479.30417 -563.576157 
L 478.844989 -563.493507 
L 418.659688 -552.671829 
M 418.584581 -333.380414 
L 426.839622 -356.274624 
L 415.664036 -359.302585 
L 415.637325 -356.556615 
L 403.986329 -360.05747 
L 398.584444 -349.595069 
L 397.605609 -346.747544 
L 397.102737 -344.219121 
L 396.700965 -342.214748 
L 395.560385 -338.57298 
L 413.260857 -335.292176 
L 418.584581 -333.380414 
M 495.119509 -478.332927 
L 497.100217 -463.903817 
L 463.464617 -456.579322 
L 460.511079 -455.936158 
L 459.940289 -449.825015 
L 456.826055 -444.003387 
L 455.680386 -441.862355 
L 459.065864 -442.429668 
L 466.66473 -443.718826 
L 466.834793 -443.602408 
L 474.675463 -444.948982 
L 478.000882 -445.521481 
L 478.79665 -445.81114 
L 481.386689 -446.129452 
L 483.250207 -446.450008 
L 484.933172 -446.750097 
L 486.771789 -447.06792 
L 488.457389 -447.366561 
L 490.3275 -447.690129 
L 492.382255 -448.046458 
L 494.483959 -448.417063 
L 496.412946 -448.89192 
L 520.405206 -453.017094 
L 521.746851 -465.570143 
L 521.945835 -467.580666 
L 523.134933 -467.745555 
L 522.763957 -469.580199 
L 522.657343 -471.094746 
L 522.185102 -471.548422 
L 522.028421 -472.521924 
L 519.210674 -474.557261 
L 520.21275 -479.146051 
L 521.878763 -483.494462 
L 495.119509 -478.332927 
M 393.447729 -389.949674 
L 429.54209 -371.885489 
L 439.605616 -369.910395 
L 429.372885 -353.073357 
L 436.820892 -343.863206 
L 448.364926 -356.935891 
L 455.062675 -359.875271 
L 444.799308 -376.507448 
L 443.965072 -374.24539 
L 442.977059 -373.898826 
L 440.61415 -377.713696 
L 435.474899 -385.042269 
L 430.003813 -388.924024 
L 428.610871 -391.383263 
L 421.986824 -393.333393 
L 433.292884 -401.007294 
L 431.0742 -405.960592 
L 426.956221 -408.284882 
L 415.48133 -404.535093 
L 410.243144 -407.493355 
L 407.347897 -409.548432 
L 396.640428 -402.85306 
L 397.779908 -400.643564 
L 397.605171 -400.505483 
L 395.129211 -399.005977 
L 393.771009 -398.679503 
L 393.447729 -389.949674 
M 429.54209 -371.885489 
L 418.210742 -373.993008 
L 416.77389 -368.105698 
L 428.813888 -367.504034 
L 429.54209 -371.885489 
" style="stroke: #0000ff; stroke-width: 0.5"/>
    </defs>
    <g clip-path="url(#p8a3f881e9c)">
     <use xlink:href="#m2cf8bff516" x="0" y="864" style="fill: #e0bd1f; stroke: #0000ff; stroke-width: 0.5"/>
    </g>
   </g>
   <g id="PatchCollection_2">
    <path d="M 501.664904 133.980749 
L 502.015862 134.075939 
L 502.986198 134.640401 
L 504.444834 136.312691 
L 506.870473 139.3391 
L 508.102552 140.445076 
L 509.738526 141.580666 
L 511.637348 142.594038 
L 512.961974 143.064056 
L 514.003387 143.33296 
L 516.613761 144.565233 
L 518.391156 145.852683 
L 520.868254 148.069434 
L 523.807382 150.126553 
L 524.779184 150.6562 
L 527.366236 151.545127 
L 528.550921 151.926995 
L 529.51274 152.389226 
L 530.205407 153.123707 
L 530.272792 153.929658 
L 530.002533 154.401903 
L 529.273588 154.993779 
L 523.733334 158.397242 
L 519.998622 160.86215 
L 519.015092 162.103059 
L 518.681991 163.040731 
L 518.626437 163.626365 
L 518.703918 164.176134 
L 519.014553 164.84153 
L 519.731395 165.652059 
L 521.799331 166.739192 
L 524.23868 167.51499 
L 524.301986 167.811295 
L 515.098438 187.506801 
L 525.768032 191.75481 
L 527.683142 167.59426 
L 529.506823 167.696117 
L 530.602652 167.965008 
L 532.14977 168.746517 
L 533.086041 169.402103 
L 534.438428 170.094356 
L 536.948333 171.448923 
L 539.689931 172.776257 
L 540.842411 173.088522 
L 541.987085 173.098537 
L 541.555788 173.550781 
L 539.9246 175.815144 
L 541.356039 177.049598 
L 540.90188 185.299976 
L 539.268638 213.816402 
L 542.96745 213.51323 
L 542.796157 217.099115 
L 542.614851 228.925459 
L 543.157337 249.32701 
L 555.883802 254.292386 
L 557.185837 251.283378 
L 565.32054 258.516254 
L 568.289283 259.923708 
L 568.528808 260.185572 
L 567.61846 296.190654 
L 567.105717 306.058431 
L 517.747721 325.328061 
L 519.061978 326.494772 
L 522.565308 335.67771 
L 517.508569 342.014618 
L 530.875497 342.833916 
L 534.664266 344.042483 
L 532.876876 346.441828 
L 511.207157 346.513684 
L 512.138616 354.598073 
L 515.413896 354.485468 
L 515.657847 358.839015 
L 542.065199 358.061538 
L 541.933402 352.963557 
L 555.826413 354.714744 
L 555.335141 355.859974 
L 554.665424 356.901494 
L 554.196729 358.133754 
L 553.935733 359.557889 
L 552.881366 392.934724 
L 552.47154 406.173003 
L 550.616392 450.578407 
L 550.50977 451.112121 
L 550.153255 452.189948 
L 543.687845 467.648312 
L 541.854555 468.038327 
L 537.7015 469.371338 
L 534.223332 471.480685 
L 530.226518 472.56406 
L 526.555845 474.455239 
L 523.486039 476.819409 
L 520.117465 480.406213 
L 515.787445 484.143756 
L 513.95562 486.457551 
L 513.750894 485.828274 
L 510.182031 491.471449 
L 510.250149 491.698125 
L 509.156172 495.609754 
L 505.080858 498.204667 
L 496.732179 496.44868 
L 492.499158 493.959691 
L 490.055006 490.576602 
L 487.349112 487.614635 
L 483.393746 487.006092 
L 479.539458 487.427588 
L 475.544483 489.443225 
L 472.168499 492.258519 
L 463.92347 502.202233 
L 461.838806 505.982004 
L 458.438752 508.871741 
L 453.479012 508.731736 
L 451.217369 512.588923 
L 452.414276 505.287164 
L 455.062781 504.124893 
L 453.12027 500.977359 
L 453.953251 495.896058 
L 457.279616 490.915495 
L 462.067589 486.308652 
L 466.141424 479.004306 
L 465.510584 472.145151 
L 464.040087 467.945737 
L 458.937061 458.901311 
L 457.274072 451.150642 
L 458.148142 442.705133 
L 458.412843 434.226302 
L 457.843084 433.041803 
L 456.519205 431.606202 
L 454.812141 426.903049 
L 454.699975 421.883604 
L 456.881265 419.893154 
L 456.826101 419.996492 
L 455.680293 422.13768 
L 466.664909 420.280942 
L 466.834837 420.397253 
L 478.000843 418.47866 
L 478.796799 418.189022 
L 483.2501 417.550105 
L 520.405116 410.982814 
L 521.945944 396.419297 
L 523.135067 396.254104 
L 522.764117 394.419954 
L 522.657496 392.905083 
L 522.185096 392.451732 
L 522.028496 391.478002 
L 519.210809 389.442737 
L 520.212874 384.853223 
L 521.878529 380.504571 
L 495.119528 385.667033 
L 497.10017 400.096104 
L 462.943884 407.534162 
L 464.135233 404.138112 
L 466.286549 399.371997 
L 467.625609 395.257026 
L 471.663526 392.83656 
L 480.862591 393.136212 
L 484.39295 391.113161 
L 487.279141 387.85341 
L 488.76222 383.809922 
L 489.502267 379.300496 
L 488.614136 375.314784 
L 487.46277 371.448343 
L 490.019834 362.39133 
L 488.281677 358.861569 
L 481.756293 352.788363 
L 481.916972 351.365349 
L 480.619001 349.099342 
L 481.241697 341.783876 
L 480.31505 333.485412 
L 478.330703 323.408734 
L 478.310712 316.48995 
L 477.733556 311.063436 
L 479.739374 310.811213 
L 479.958534 308.947061 
L 478.932675 308.744094 
L 478.855668 307.002547 
L 478.414001 305.968428 
L 477.473293 304.514679 
L 478.626511 302.366437 
L 478.860106 301.128616 
L 479.281048 300.841205 
L 479.303998 300.423776 
L 477.398884 300.766376 
L 478.067481 295.458399 
L 480.543846 289.558174 
L 476.982394 282.965335 
L 475.518934 277.358454 
L 471.839385 270.093723 
L 467.136563 265.302807 
L 459.842984 254.326454 
L 452.610859 249.649609 
L 448.226409 247.982519 
L 441.045834 244.350064 
L 436.348105 239.162181 
L 434.860862 232.361569 
L 435.356311 225.905742 
L 434.945365 222.873772 
L 432.501227 213.407491 
L 431.57939 209.088059 
L 432.754453 202.786712 
L 431.91814 198.13024 
L 423.191462 192.626697 
L 419.59817 191.421837 
L 417.71526 189.885472 
L 418.013654 185.783475 
L 417.185485 181.46479 
L 415.30628 179.226185 
L 411.869589 178.787648 
L 411.767032 178.959508 
L 411.632276 178.802462 
L 412.805113 177.499079 
L 413.159043 176.852761 
L 413.371913 175.589752 
L 413.316016 174.707865 
L 413.042799 174.054867 
L 412.637783 173.463004 
L 411.581191 172.516662 
L 408.908242 170.7429 
L 407.944211 169.976204 
L 406.565168 168.182803 
L 405.585956 166.431242 
L 405.353454 165.792711 
L 405.456744 164.89785 
L 406.107575 162.767769 
L 407.380742 159.899513 
L 408.95341 157.197929 
L 410.789299 153.998927 
L 412.628894 150.102472 
L 413.126456 148.727606 
L 413.658085 147.353487 
L 414.43221 145.711571 
L 415.279998 144.733387 
L 415.564691 144.492257 
L 416.084844 144.212247 
L 417.043691 143.959277 
L 418.590077 143.999652 
L 423.037447 144.185219 
L 426.761803 143.693707 
L 430.969649 142.313654 
L 431.837428 141.960681 
L 434.097218 141.865864 
L 435.940877 141.911425 
L 436.976732 142.302547 
L 437.945588 143.224809 
L 438.895919 144.655237 
L 439.407929 146.724196 
L 439.615615 149.570238 
L 440.210923 151.000293 
L 440.601864 151.678465 
L 441.752856 152.717758 
L 443.110802 153.290007 
L 443.636872 153.424079 
L 447.218329 153.707423 
L 447.731805 153.598912 
L 448.17643 153.321488 
L 449.214151 153.090373 
L 450.450294 152.975555 
L 452.579393 153.162229 
L 453.77406 153.545203 
L 454.188338 153.90447 
L 455.022052 155.354899 
L 455.252701 156.627908 
L 455.220115 159.085042 
L 455.160886 160.018784 
L 455.296016 161.704768 
L 455.692515 163.131116 
L 456.44257 164.652668 
L 457.311456 165.612704 
L 457.602079 165.826046 
L 458.113343 165.990119 
L 458.64052 165.972718 
L 459.134391 165.807885 
L 459.732284 165.482326 
L 460.803311 164.516356 
L 461.656656 163.340018 
L 464.474716 158.897261 
L 467.453455 153.690022 
L 468.857674 151.786616 
L 469.414105 151.346973 
L 470.083462 151.178073 
L 470.907926 151.521793 
L 471.652797 152.311076 
L 473.991061 155.835664 
L 476.118307 158.808738 
L 478.376977 161.454385 
L 479.246609 162.148865 
L 480.14956 162.700366 
L 480.959963 163.050006 
L 482.740689 163.163717 
L 483.996451 163.052233 
L 490.32156 161.867001 
L 493.630519 161.581804 
L 494.808913 161.061037 
L 495.547121 160.488802 
L 496.226087 159.498391 
L 496.243493 158.576129 
L 495.99064 157.636466 
L 495.618944 157.038297 
L 494.345403 155.747141 
L 493.109633 154.67858 
L 491.67468 153.282593 
L 490.445947 151.756242 
L 488.498998 149.919505 
L 487.063673 148.315003 
L 485.815681 146.736423 
L 484.120852 144.107056 
L 483.671402 143.100351 
L 483.566633 142.574784 
L 483.629207 142.069578 
L 483.848367 141.60808 
L 484.122704 141.365471 
L 484.612857 141.116208 
L 486.246618 140.833238 
L 489.885078 141.388445 
L 491.176011 141.671043 
L 492.488789 141.889571 
L 493.791198 141.901052 
L 494.517183 141.754753 
L 495.690767 141.217692 
L 496.843612 140.28951 
L 497.207524 139.883935 
L 498.17009 138.219058 
L 498.247084 137.887192 
L 498.362222 136.339732 
L 498.802036 135.368575 
L 499.50026 134.575958 
L 500.40729 134.025937 
L 500.939278 133.92 
L 501.664904 133.980749 
M 511.979417 238.656602 
L 511.906861 239.126993 
L 510.9021 241.788949 
L 510.296796 244.703127 
L 509.931031 245.870211 
L 511.80653 248.605129 
L 509.319436 249.012185 
L 509.079538 251.348567 
L 512.34297 251.197455 
L 512.479205 252.720846 
L 518.882428 252.757514 
L 522.284321 249.496643 
L 520.007138 248.596609 
L 518.919452 242.683796 
L 532.486295 246.555797 
L 536.237666 245.097582 
L 531.251186 243.262547 
L 512.522893 237.699526 
L 511.979417 238.656602 
L 511.979417 238.656602 
" clip-path="url(#p8a3f881e9c)" style="fill: none; stroke: #000000"/>
   </g>
   <g id="matplotlib.axis_1">
    <g id="xtick_1">
     <g id="line2d_1">
      <path d="M 171.68424 768.96 
L 171.68424 103.68 
" clip-path="url(#p8a3f881e9c)" style="fill: none; stroke: #b0b0b0; stroke-width: 0.8; stroke-linecap: square"/>
     </g>
     <g id="line2d_2">
      <defs>
       <path id="mc0107e61c3" d="M 0 0 
L 0 3.5 
" style="stroke: #000000; stroke-width: 0.8"/>
      </defs>
      <g>
       <use xlink:href="#mc0107e61c3" x="171.68424" y="768.96" style="stroke: #000000; stroke-width: 0.8"/>
      </g>
     </g>
     <g id="text_1">
      <!-- 47.80 -->
      <g transform="translate(160.551175 807.501382) rotate(-45) scale(0.1 -0.1)">
       <defs>
        <path id="DejaVuSans-2212" d="M 678 2272 
L 4684 2272 
L 4684 1741 
L 678 1741 
L 678 2272 
z
" transform="scale(0.015625)"/>
        <path id="DejaVuSans-34" d="M 2419 4116 
L 825 1625 
L 2419 1625 
L 2419 4116 
z
M 2253 4666 
L 3047 4666 
L 3047 1625 
L 3713 1625 
L 3713 1100 
L 3047 1100 
L 3047 0 
L 2419 0 
L 2419 1100 
L 313 1100 
L 313 1709 
L 2253 4666 
z
" transform="scale(0.015625)"/>
        <path id="DejaVuSans-37" d="M 525 4666 
L 3525 4666 
L 3525 4397 
L 1831 0 
L 1172 0 
L 2766 4134 
L 525 4134 
L 525 4666 
z
" transform="scale(0.015625)"/>
        <path id="DejaVuSans-2e" d="M 684 794 
L 1344 794 
L 1344 0 
L 684 0 
L 684 794 
z
" transform="scale(0.015625)"/>
        <path id="DejaVuSans-38" d="M 2034 2216 
Q 1584 2216 1326 1975 
Q 1069 1734 1069 1313 
Q 1069 891 1326 650 
Q 1584 409 2034 409 
Q 2484 409 2743 651 
Q 3003 894 3003 1313 
Q 3003 1734 2745 1975 
Q 2488 2216 2034 2216 
z
M 1403 2484 
Q 997 2584 770 2862 
Q 544 3141 544 3541 
Q 544 4100 942 4425 
Q 1341 4750 2034 4750 
Q 2731 4750 3128 4425 
Q 3525 4100 3525 3541 
Q 3525 3141 3298 2862 
Q 3072 2584 2669 2484 
Q 3125 2378 3379 2068 
Q 3634 1759 3634 1313 
Q 3634 634 3220 271 
Q 2806 -91 2034 -91 
Q 1263 -91 848 271 
Q 434 634 434 1313 
Q 434 1759 690 2068 
Q 947 2378 1403 2484 
z
M 1172 3481 
Q 1172 3119 1398 2916 
Q 1625 2713 2034 2713 
Q 2441 2713 2670 2916 
Q 2900 3119 2900 3481 
Q 2900 3844 2670 4047 
Q 2441 4250 2034 4250 
Q 1625 4250 1398 4047 
Q 1172 3844 1172 3481 
z
" transform="scale(0.015625)"/>
        <path id="DejaVuSans-30" d="M 2034 4250 
Q 1547 4250 1301 3770 
Q 1056 3291 1056 2328 
Q 1056 1369 1301 889 
Q 1547 409 2034 409 
Q 2525 409 2770 889 
Q 3016 1369 3016 2328 
Q 3016 3291 2770 3770 
Q 2525 4250 2034 4250 
z
M 2034 4750 
Q 2819 4750 3233 4129 
Q 3647 3509 3647 2328 
Q 3647 1150 3233 529 
Q 2819 -91 2034 -91 
Q 1250 -91 836 529 
Q 422 1150 422 2328 
Q 422 3509 836 4129 
Q 1250 4750 2034 4750 
z
" transform="scale(0.015625)"/>
       </defs>
       <use xlink:href="#DejaVuSans-2212"/>
       <use xlink:href="#DejaVuSans-34" transform="translate(83.789062 0)"/>
       <use xlink:href="#DejaVuSans-37" transform="translate(147.412109 0)"/>
       <use xlink:href="#DejaVuSans-2e" transform="translate(211.035156 0)"/>
       <use xlink:href="#DejaVuSans-38" transform="translate(242.822266 0)"/>
       <use xlink:href="#DejaVuSans-30" transform="translate(306.445312 0)"/>
      </g>
     </g>
    </g>
    <g id="xtick_2">
     <g id="line2d_3">
      <path d="M 238.322692 768.96 
L 238.322692 103.68 
" clip-path="url(#p8a3f881e9c)" style="fill: none; stroke: #b0b0b0; stroke-width: 0.8; stroke-linecap: square"/>
     </g>
     <g id="line2d_4">
      <g>
       <use xlink:href="#mc0107e61c3" x="238.322692" y="768.96" style="stroke: #000000; stroke-width: 0.8"/>
      </g>
     </g>
     <g id="text_2">
      <!-- 47.75 -->
      <g transform="translate(227.189628 807.501382) rotate(-45) scale(0.1 -0.1)">
       <defs>
        <path id="DejaVuSans-35" d="M 691 4666 
L 3169 4666 
L 3169 4134 
L 1269 4134 
L 1269 2991 
Q 1406 3038 1543 3061 
Q 1681 3084 1819 3084 
Q 2600 3084 3056 2656 
Q 3513 2228 3513 1497 
Q 3513 744 3044 326 
Q 2575 -91 1722 -91 
Q 1428 -91 1123 -41 
Q 819 9 494 109 
L 494 744 
Q 775 591 1075 516 
Q 1375 441 1709 441 
Q 2250 441 2565 725 
Q 2881 1009 2881 1497 
Q 2881 1984 2565 2268 
Q 2250 2553 1709 2553 
Q 1456 2553 1204 2497 
Q 953 2441 691 2322 
L 691 4666 
z
" transform="scale(0.015625)"/>
       </defs>
       <use xlink:href="#DejaVuSans-2212"/>
       <use xlink:href="#DejaVuSans-34" transform="translate(83.789062 0)"/>
       <use xlink:href="#DejaVuSans-37" transform="translate(147.412109 0)"/>
       <use xlink:href="#DejaVuSans-2e" transform="translate(211.035156 0)"/>
       <use xlink:href="#DejaVuSans-37" transform="translate(242.822266 0)"/>
       <use xlink:href="#DejaVuSans-35" transform="translate(306.445312 0)"/>
      </g>
     </g>
    </g>
    <g id="xtick_3">
     <g id="line2d_5">
      <path d="M 304.961145 768.96 
L 304.961145 103.68 
" clip-path="url(#p8a3f881e9c)" style="fill: none; stroke: #b0b0b0; stroke-width: 0.8; stroke-linecap: square"/>
     </g>
     <g id="line2d_6">
      <g>
       <use xlink:href="#mc0107e61c3" x="304.961145" y="768.96" style="stroke: #000000; stroke-width: 0.8"/>
      </g>
     </g>
     <g id="text_3">
      <!-- 47.70 -->
      <g transform="translate(293.828081 807.501382) rotate(-45) scale(0.1 -0.1)">
       <use xlink:href="#DejaVuSans-2212"/>
       <use xlink:href="#DejaVuSans-34" transform="translate(83.789062 0)"/>
       <use xlink:href="#DejaVuSans-37" transform="translate(147.412109 0)"/>
       <use xlink:href="#DejaVuSans-2e" transform="translate(211.035156 0)"/>
       <use xlink:href="#DejaVuSans-37" transform="translate(242.822266 0)"/>
       <use xlink:href="#DejaVuSans-30" transform="translate(306.445312 0)"/>
      </g>
     </g>
    </g>
    <g id="xtick_4">
     <g id="line2d_7">
      <path d="M 371.599598 768.96 
L 371.599598 103.68 
" clip-path="url(#p8a3f881e9c)" style="fill: none; stroke: #b0b0b0; stroke-width: 0.8; stroke-linecap: square"/>
     </g>
     <g id="line2d_8">
      <g>
       <use xlink:href="#mc0107e61c3" x="371.599598" y="768.96" style="stroke: #000000; stroke-width: 0.8"/>
      </g>
     </g>
     <g id="text_4">
      <!-- 47.65 -->
      <g transform="translate(360.466534 807.501382) rotate(-45) scale(0.1 -0.1)">
       <defs>
        <path id="DejaVuSans-36" d="M 2113 2584 
Q 1688 2584 1439 2293 
Q 1191 2003 1191 1497 
Q 1191 994 1439 701 
Q 1688 409 2113 409 
Q 2538 409 2786 701 
Q 3034 994 3034 1497 
Q 3034 2003 2786 2293 
Q 2538 2584 2113 2584 
z
M 3366 4563 
L 3366 3988 
Q 3128 4100 2886 4159 
Q 2644 4219 2406 4219 
Q 1781 4219 1451 3797 
Q 1122 3375 1075 2522 
Q 1259 2794 1537 2939 
Q 1816 3084 2150 3084 
Q 2853 3084 3261 2657 
Q 3669 2231 3669 1497 
Q 3669 778 3244 343 
Q 2819 -91 2113 -91 
Q 1303 -91 875 529 
Q 447 1150 447 2328 
Q 447 3434 972 4092 
Q 1497 4750 2381 4750 
Q 2619 4750 2861 4703 
Q 3103 4656 3366 4563 
z
" transform="scale(0.015625)"/>
       </defs>
       <use xlink:href="#DejaVuSans-2212"/>
       <use xlink:href="#DejaVuSans-34" transform="translate(83.789062 0)"/>
       <use xlink:href="#DejaVuSans-37" transform="translate(147.412109 0)"/>
       <use xlink:href="#DejaVuSans-2e" transform="translate(211.035156 0)"/>
       <use xlink:href="#DejaVuSans-36" transform="translate(242.822266 0)"/>
       <use xlink:href="#DejaVuSans-35" transform="translate(306.445312 0)"/>
      </g>
     </g>
    </g>
    <g id="xtick_5">
     <g id="line2d_9">
      <path d="M 438.238051 768.96 
L 438.238051 103.68 
" clip-path="url(#p8a3f881e9c)" style="fill: none; stroke: #b0b0b0; stroke-width: 0.8; stroke-linecap: square"/>
     </g>
     <g id="line2d_10">
      <g>
       <use xlink:href="#mc0107e61c3" x="438.238051" y="768.96" style="stroke: #000000; stroke-width: 0.8"/>
      </g>
     </g>
     <g id="text_5">
      <!-- 47.60 -->
      <g transform="translate(427.104986 807.501382) rotate(-45) scale(0.1 -0.1)">
       <use xlink:href="#DejaVuSans-2212"/>
       <use xlink:href="#DejaVuSans-34" transform="translate(83.789062 0)"/>
       <use xlink:href="#DejaVuSans-37" transform="translate(147.412109 0)"/>
       <use xlink:href="#DejaVuSans-2e" transform="translate(211.035156 0)"/>
       <use xlink:href="#DejaVuSans-36" transform="translate(242.822266 0)"/>
       <use xlink:href="#DejaVuSans-30" transform="translate(306.445312 0)"/>
      </g>
     </g>
    </g>
    <g id="xtick_6">
     <g id="line2d_11">
      <path d="M 504.876504 768.96 
L 504.876504 103.68 
" clip-path="url(#p8a3f881e9c)" style="fill: none; stroke: #b0b0b0; stroke-width: 0.8; stroke-linecap: square"/>
     </g>
     <g id="line2d_12">
      <g>
       <use xlink:href="#mc0107e61c3" x="504.876504" y="768.96" style="stroke: #000000; stroke-width: 0.8"/>
      </g>
     </g>
     <g id="text_6">
      <!-- 47.55 -->
      <g transform="translate(493.743439 807.501382) rotate(-45) scale(0.1 -0.1)">
       <use xlink:href="#DejaVuSans-2212"/>
       <use xlink:href="#DejaVuSans-34" transform="translate(83.789062 0)"/>
       <use xlink:href="#DejaVuSans-37" transform="translate(147.412109 0)"/>
       <use xlink:href="#DejaVuSans-2e" transform="translate(211.035156 0)"/>
       <use xlink:href="#DejaVuSans-35" transform="translate(242.822266 0)"/>
       <use xlink:href="#DejaVuSans-35" transform="translate(306.445312 0)"/>
      </g>
     </g>
    </g>
    <g id="xtick_7">
     <g id="line2d_13">
      <path d="M 571.514957 768.96 
L 571.514957 103.68 
" clip-path="url(#p8a3f881e9c)" style="fill: none; stroke: #b0b0b0; stroke-width: 0.8; stroke-linecap: square"/>
     </g>
     <g id="line2d_14">
      <g>
       <use xlink:href="#mc0107e61c3" x="571.514957" y="768.96" style="stroke: #000000; stroke-width: 0.8"/>
      </g>
     </g>
     <g id="text_7">
      <!-- 47.50 -->
      <g transform="translate(560.381892 807.501382) rotate(-45) scale(0.1 -0.1)">
       <use xlink:href="#DejaVuSans-2212"/>
       <use xlink:href="#DejaVuSans-34" transform="translate(83.789062 0)"/>
       <use xlink:href="#DejaVuSans-37" transform="translate(147.412109 0)"/>
       <use xlink:href="#DejaVuSans-2e" transform="translate(211.035156 0)"/>
       <use xlink:href="#DejaVuSans-35" transform="translate(242.822266 0)"/>
       <use xlink:href="#DejaVuSans-30" transform="translate(306.445312 0)"/>
      </g>
     </g>
    </g>
    <g id="text_8">
     <!-- Longitude () -->
     <g transform="translate(336.139844 820.57038) scale(0.1 -0.1)">
      <defs>
       <path id="DejaVuSans-4c" d="M 628 4666 
L 1259 4666 
L 1259 531 
L 3531 531 
L 3531 0 
L 628 0 
L 628 4666 
z
" transform="scale(0.015625)"/>
       <path id="DejaVuSans-6f" d="M 1959 3097 
Q 1497 3097 1228 2736 
Q 959 2375 959 1747 
Q 959 1119 1226 758 
Q 1494 397 1959 397 
Q 2419 397 2687 759 
Q 2956 1122 2956 1747 
Q 2956 2369 2687 2733 
Q 2419 3097 1959 3097 
z
M 1959 3584 
Q 2709 3584 3137 3096 
Q 3566 2609 3566 1747 
Q 3566 888 3137 398 
Q 2709 -91 1959 -91 
Q 1206 -91 779 398 
Q 353 888 353 1747 
Q 353 2609 779 3096 
Q 1206 3584 1959 3584 
z
" transform="scale(0.015625)"/>
       <path id="DejaVuSans-6e" d="M 3513 2113 
L 3513 0 
L 2938 0 
L 2938 2094 
Q 2938 2591 2744 2837 
Q 2550 3084 2163 3084 
Q 1697 3084 1428 2787 
Q 1159 2491 1159 1978 
L 1159 0 
L 581 0 
L 581 3500 
L 1159 3500 
L 1159 2956 
Q 1366 3272 1645 3428 
Q 1925 3584 2291 3584 
Q 2894 3584 3203 3211 
Q 3513 2838 3513 2113 
z
" transform="scale(0.015625)"/>
       <path id="DejaVuSans-67" d="M 2906 1791 
Q 2906 2416 2648 2759 
Q 2391 3103 1925 3103 
Q 1463 3103 1205 2759 
Q 947 2416 947 1791 
Q 947 1169 1205 825 
Q 1463 481 1925 481 
Q 2391 481 2648 825 
Q 2906 1169 2906 1791 
z
M 3481 434 
Q 3481 -459 3084 -895 
Q 2688 -1331 1869 -1331 
Q 1566 -1331 1297 -1286 
Q 1028 -1241 775 -1147 
L 775 -588 
Q 1028 -725 1275 -790 
Q 1522 -856 1778 -856 
Q 2344 -856 2625 -561 
Q 2906 -266 2906 331 
L 2906 616 
Q 2728 306 2450 153 
Q 2172 0 1784 0 
Q 1141 0 747 490 
Q 353 981 353 1791 
Q 353 2603 747 3093 
Q 1141 3584 1784 3584 
Q 2172 3584 2450 3431 
Q 2728 3278 2906 2969 
L 2906 3500 
L 3481 3500 
L 3481 434 
z
" transform="scale(0.015625)"/>
       <path id="DejaVuSans-69" d="M 603 3500 
L 1178 3500 
L 1178 0 
L 603 0 
L 603 3500 
z
M 603 4863 
L 1178 4863 
L 1178 4134 
L 603 4134 
L 603 4863 
z
" transform="scale(0.015625)"/>
       <path id="DejaVuSans-74" d="M 1172 4494 
L 1172 3500 
L 2356 3500 
L 2356 3053 
L 1172 3053 
L 1172 1153 
Q 1172 725 1289 603 
Q 1406 481 1766 481 
L 2356 481 
L 2356 0 
L 1766 0 
Q 1100 0 847 248 
Q 594 497 594 1153 
L 594 3053 
L 172 3053 
L 172 3500 
L 594 3500 
L 594 4494 
L 1172 4494 
z
" transform="scale(0.015625)"/>
       <path id="DejaVuSans-75" d="M 544 1381 
L 544 3500 
L 1119 3500 
L 1119 1403 
Q 1119 906 1312 657 
Q 1506 409 1894 409 
Q 2359 409 2629 706 
Q 2900 1003 2900 1516 
L 2900 3500 
L 3475 3500 
L 3475 0 
L 2900 0 
L 2900 538 
Q 2691 219 2414 64 
Q 2138 -91 1772 -91 
Q 1169 -91 856 284 
Q 544 659 544 1381 
z
M 1991 3584 
L 1991 3584 
z
" transform="scale(0.015625)"/>
       <path id="DejaVuSans-64" d="M 2906 2969 
L 2906 4863 
L 3481 4863 
L 3481 0 
L 2906 0 
L 2906 525 
Q 2725 213 2448 61 
Q 2172 -91 1784 -91 
Q 1150 -91 751 415 
Q 353 922 353 1747 
Q 353 2572 751 3078 
Q 1150 3584 1784 3584 
Q 2172 3584 2448 3432 
Q 2725 3281 2906 2969 
z
M 947 1747 
Q 947 1113 1208 752 
Q 1469 391 1925 391 
Q 2381 391 2643 752 
Q 2906 1113 2906 1747 
Q 2906 2381 2643 2742 
Q 2381 3103 1925 3103 
Q 1469 3103 1208 2742 
Q 947 2381 947 1747 
z
" transform="scale(0.015625)"/>
       <path id="DejaVuSans-65" d="M 3597 1894 
L 3597 1613 
L 953 1613 
Q 991 1019 1311 708 
Q 1631 397 2203 397 
Q 2534 397 2845 478 
Q 3156 559 3463 722 
L 3463 178 
Q 3153 47 2828 -22 
Q 2503 -91 2169 -91 
Q 1331 -91 842 396 
Q 353 884 353 1716 
Q 353 2575 817 3079 
Q 1281 3584 2069 3584 
Q 2775 3584 3186 3129 
Q 3597 2675 3597 1894 
z
M 3022 2063 
Q 3016 2534 2758 2815 
Q 2500 3097 2075 3097 
Q 1594 3097 1305 2825 
Q 1016 2553 972 2059 
L 3022 2063 
z
" transform="scale(0.015625)"/>
       <path id="DejaVuSans-20" transform="scale(0.015625)"/>
       <path id="DejaVuSans-28" d="M 1984 4856 
Q 1566 4138 1362 3434 
Q 1159 2731 1159 2009 
Q 1159 1288 1364 580 
Q 1569 -128 1984 -844 
L 1484 -844 
Q 1016 -109 783 600 
Q 550 1309 550 2009 
Q 550 2706 781 3412 
Q 1013 4119 1484 4856 
L 1984 4856 
z
" transform="scale(0.015625)"/>
       <path id="DejaVuSans-b0" d="M 1600 4347 
Q 1350 4347 1178 4173 
Q 1006 4000 1006 3750 
Q 1006 3503 1178 3333 
Q 1350 3163 1600 3163 
Q 1850 3163 2022 3333 
Q 2194 3503 2194 3750 
Q 2194 3997 2020 4172 
Q 1847 4347 1600 4347 
z
M 1600 4750 
Q 1800 4750 1984 4673 
Q 2169 4597 2303 4453 
Q 2447 4313 2519 4134 
Q 2591 3956 2591 3750 
Q 2591 3338 2302 3052 
Q 2013 2766 1594 2766 
Q 1172 2766 890 3047 
Q 609 3328 609 3750 
Q 609 4169 896 4459 
Q 1184 4750 1600 4750 
z
" transform="scale(0.015625)"/>
       <path id="DejaVuSans-29" d="M 513 4856 
L 1013 4856 
Q 1481 4119 1714 3412 
Q 1947 2706 1947 2009 
Q 1947 1309 1714 600 
Q 1481 -109 1013 -844 
L 513 -844 
Q 928 -128 1133 580 
Q 1338 1288 1338 2009 
Q 1338 2731 1133 3434 
Q 928 4138 513 4856 
z
" transform="scale(0.015625)"/>
      </defs>
      <use xlink:href="#DejaVuSans-4c"/>
      <use xlink:href="#DejaVuSans-6f" transform="translate(53.962891 0)"/>
      <use xlink:href="#DejaVuSans-6e" transform="translate(115.144531 0)"/>
      <use xlink:href="#DejaVuSans-67" transform="translate(178.523438 0)"/>
      <use xlink:href="#DejaVuSans-69" transform="translate(242 0)"/>
      <use xlink:href="#DejaVuSans-74" transform="translate(269.783203 0)"/>
      <use xlink:href="#DejaVuSans-75" transform="translate(308.992188 0)"/>
      <use xlink:href="#DejaVuSans-64" transform="translate(372.371094 0)"/>
      <use xlink:href="#DejaVuSans-65" transform="translate(435.847656 0)"/>
      <use xlink:href="#DejaVuSans-20" transform="translate(497.371094 0)"/>
      <use xlink:href="#DejaVuSans-28" transform="translate(529.158203 0)"/>
      <use xlink:href="#DejaVuSans-b0" transform="translate(568.171875 0)"/>
      <use xlink:href="#DejaVuSans-29" transform="translate(618.171875 0)"/>
     </g>
    </g>
   </g>
   <g id="matplotlib.axis_2">
    <g id="ytick_1">
     <g id="line2d_15">
      <path d="M 149.518196 669.161199 
L 588.481804 669.161199 
" clip-path="url(#p8a3f881e9c)" style="fill: none; stroke: #b0b0b0; stroke-width: 0.8; stroke-linecap: square"/>
     </g>
     <g id="line2d_16">
      <defs>
       <path id="m0fbb37aafb" d="M 0 0 
L -3.5 0 
" style="stroke: #000000; stroke-width: 0.8"/>
      </defs>
      <g>
       <use xlink:href="#m0fbb37aafb" x="149.518196" y="669.161199" style="stroke: #000000; stroke-width: 0.8"/>
      </g>
     </g>
     <g id="text_9">
      <!-- 2.0 -->
      <g transform="translate(118.235383 672.960418) scale(0.1 -0.1)">
       <defs>
        <path id="DejaVuSans-32" d="M 1228 531 
L 3431 531 
L 3431 0 
L 469 0 
L 469 531 
Q 828 903 1448 1529 
Q 2069 2156 2228 2338 
Q 2531 2678 2651 2914 
Q 2772 3150 2772 3378 
Q 2772 3750 2511 3984 
Q 2250 4219 1831 4219 
Q 1534 4219 1204 4116 
Q 875 4013 500 3803 
L 500 4441 
Q 881 4594 1212 4672 
Q 1544 4750 1819 4750 
Q 2544 4750 2975 4387 
Q 3406 4025 3406 3419 
Q 3406 3131 3298 2873 
Q 3191 2616 2906 2266 
Q 2828 2175 2409 1742 
Q 1991 1309 1228 531 
z
" transform="scale(0.015625)"/>
       </defs>
       <use xlink:href="#DejaVuSans-2212"/>
       <use xlink:href="#DejaVuSans-32" transform="translate(83.789062 0)"/>
       <use xlink:href="#DejaVuSans-2e" transform="translate(147.412109 0)"/>
       <use xlink:href="#DejaVuSans-30" transform="translate(179.199219 0)"/>
      </g>
     </g>
    </g>
    <g id="ytick_2">
     <g id="line2d_17">
      <path d="M 149.518196 535.822771 
L 588.481804 535.822771 
" clip-path="url(#p8a3f881e9c)" style="fill: none; stroke: #b0b0b0; stroke-width: 0.8; stroke-linecap: square"/>
     </g>
     <g id="line2d_18">
      <g>
       <use xlink:href="#m0fbb37aafb" x="149.518196" y="535.822771" style="stroke: #000000; stroke-width: 0.8"/>
      </g>
     </g>
     <g id="text_10">
      <!-- 1.9 -->
      <g transform="translate(118.235383 539.62199) scale(0.1 -0.1)">
       <defs>
        <path id="DejaVuSans-31" d="M 794 531 
L 1825 531 
L 1825 4091 
L 703 3866 
L 703 4441 
L 1819 4666 
L 2450 4666 
L 2450 531 
L 3481 531 
L 3481 0 
L 794 0 
L 794 531 
z
" transform="scale(0.015625)"/>
        <path id="DejaVuSans-39" d="M 703 97 
L 703 672 
Q 941 559 1184 500 
Q 1428 441 1663 441 
Q 2288 441 2617 861 
Q 2947 1281 2994 2138 
Q 2813 1869 2534 1725 
Q 2256 1581 1919 1581 
Q 1219 1581 811 2004 
Q 403 2428 403 3163 
Q 403 3881 828 4315 
Q 1253 4750 1959 4750 
Q 2769 4750 3195 4129 
Q 3622 3509 3622 2328 
Q 3622 1225 3098 567 
Q 2575 -91 1691 -91 
Q 1453 -91 1209 -44 
Q 966 3 703 97 
z
M 1959 2075 
Q 2384 2075 2632 2365 
Q 2881 2656 2881 3163 
Q 2881 3666 2632 3958 
Q 2384 4250 1959 4250 
Q 1534 4250 1286 3958 
Q 1038 3666 1038 3163 
Q 1038 2656 1286 2365 
Q 1534 2075 1959 2075 
z
" transform="scale(0.015625)"/>
       </defs>
       <use xlink:href="#DejaVuSans-2212"/>
       <use xlink:href="#DejaVuSans-31" transform="translate(83.789062 0)"/>
       <use xlink:href="#DejaVuSans-2e" transform="translate(147.412109 0)"/>
       <use xlink:href="#DejaVuSans-39" transform="translate(179.199219 0)"/>
      </g>
     </g>
    </g>
    <g id="ytick_3">
     <g id="line2d_19">
      <path d="M 149.518196 402.484342 
L 588.481804 402.484342 
" clip-path="url(#p8a3f881e9c)" style="fill: none; stroke: #b0b0b0; stroke-width: 0.8; stroke-linecap: square"/>
     </g>
     <g id="line2d_20">
      <g>
       <use xlink:href="#m0fbb37aafb" x="149.518196" y="402.484342" style="stroke: #000000; stroke-width: 0.8"/>
      </g>
     </g>
     <g id="text_11">
      <!-- 1.8 -->
      <g transform="translate(118.235383 406.283561) scale(0.1 -0.1)">
       <use xlink:href="#DejaVuSans-2212"/>
       <use xlink:href="#DejaVuSans-31" transform="translate(83.789062 0)"/>
       <use xlink:href="#DejaVuSans-2e" transform="translate(147.412109 0)"/>
       <use xlink:href="#DejaVuSans-38" transform="translate(179.199219 0)"/>
      </g>
     </g>
    </g>
    <g id="ytick_4">
     <g id="line2d_21">
      <path d="M 149.518196 269.145914 
L 588.481804 269.145914 
" clip-path="url(#p8a3f881e9c)" style="fill: none; stroke: #b0b0b0; stroke-width: 0.8; stroke-linecap: square"/>
     </g>
     <g id="line2d_22">
      <g>
       <use xlink:href="#m0fbb37aafb" x="149.518196" y="269.145914" style="stroke: #000000; stroke-width: 0.8"/>
      </g>
     </g>
     <g id="text_12">
      <!-- 1.7 -->
      <g transform="translate(118.235383 272.945133) scale(0.1 -0.1)">
       <use xlink:href="#DejaVuSans-2212"/>
       <use xlink:href="#DejaVuSans-31" transform="translate(83.789062 0)"/>
       <use xlink:href="#DejaVuSans-2e" transform="translate(147.412109 0)"/>
       <use xlink:href="#DejaVuSans-37" transform="translate(179.199219 0)"/>
      </g>
     </g>
    </g>
    <g id="ytick_5">
     <g id="line2d_23">
      <path d="M 149.518196 135.807485 
L 588.481804 135.807485 
" clip-path="url(#p8a3f881e9c)" style="fill: none; stroke: #b0b0b0; stroke-width: 0.8; stroke-linecap: square"/>
     </g>
     <g id="line2d_24">
      <g>
       <use xlink:href="#m0fbb37aafb" x="149.518196" y="135.807485" style="stroke: #000000; stroke-width: 0.8"/>
      </g>
     </g>
     <g id="text_13">
      <!-- 1.6 -->
      <g transform="translate(118.235383 139.606704) scale(0.1 -0.1)">
       <use xlink:href="#DejaVuSans-2212"/>
       <use xlink:href="#DejaVuSans-31" transform="translate(83.789062 0)"/>
       <use xlink:href="#DejaVuSans-2e" transform="translate(147.412109 0)"/>
       <use xlink:href="#DejaVuSans-36" transform="translate(179.199219 0)"/>
      </g>
     </g>
    </g>
    <g id="text_14">
     <!-- Latitude () -->
     <g transform="translate(112.155696 464.889531) rotate(-90) scale(0.1 -0.1)">
      <defs>
       <path id="DejaVuSans-61" d="M 2194 1759 
Q 1497 1759 1228 1600 
Q 959 1441 959 1056 
Q 959 750 1161 570 
Q 1363 391 1709 391 
Q 2188 391 2477 730 
Q 2766 1069 2766 1631 
L 2766 1759 
L 2194 1759 
z
M 3341 1997 
L 3341 0 
L 2766 0 
L 2766 531 
Q 2569 213 2275 61 
Q 1981 -91 1556 -91 
Q 1019 -91 701 211 
Q 384 513 384 1019 
Q 384 1609 779 1909 
Q 1175 2209 1959 2209 
L 2766 2209 
L 2766 2266 
Q 2766 2663 2505 2880 
Q 2244 3097 1772 3097 
Q 1472 3097 1187 3025 
Q 903 2953 641 2809 
L 641 3341 
Q 956 3463 1253 3523 
Q 1550 3584 1831 3584 
Q 2591 3584 2966 3190 
Q 3341 2797 3341 1997 
z
" transform="scale(0.015625)"/>
      </defs>
      <use xlink:href="#DejaVuSans-4c"/>
      <use xlink:href="#DejaVuSans-61" transform="translate(55.712891 0)"/>
      <use xlink:href="#DejaVuSans-74" transform="translate(116.992188 0)"/>
      <use xlink:href="#DejaVuSans-69" transform="translate(156.201172 0)"/>
      <use xlink:href="#DejaVuSans-74" transform="translate(183.984375 0)"/>
      <use xlink:href="#DejaVuSans-75" transform="translate(223.193359 0)"/>
      <use xlink:href="#DejaVuSans-64" transform="translate(286.572266 0)"/>
      <use xlink:href="#DejaVuSans-65" transform="translate(350.048828 0)"/>
      <use xlink:href="#DejaVuSans-20" transform="translate(411.572266 0)"/>
      <use xlink:href="#DejaVuSans-28" transform="translate(443.359375 0)"/>
      <use xlink:href="#DejaVuSans-b0" transform="translate(482.373047 0)"/>
      <use xlink:href="#DejaVuSans-29" transform="translate(532.373047 0)"/>
     </g>
    </g>
   </g>
   <g id="patch_3">
    <path d="M 149.518196 768.96 
L 149.518196 103.68 
" style="fill: none; stroke: #000000; stroke-width: 0.8; stroke-linejoin: miter; stroke-linecap: square"/>
   </g>
   <g id="patch_4">
    <path d="M 588.481804 768.96 
L 588.481804 103.68 
" style="fill: none; stroke: #000000; stroke-width: 0.8; stroke-linejoin: miter; stroke-linecap: square"/>
   </g>
   <g id="patch_5">
    <path d="M 149.518196 768.96 
L 588.481804 768.96 
" style="fill: none; stroke: #000000; stroke-width: 0.8; stroke-linejoin: miter; stroke-linecap: square"/>
   </g>
   <g id="patch_6">
    <path d="M 149.518196 103.68 
L 588.481804 103.68 
" style="fill: none; stroke: #000000; stroke-width: 0.8; stroke-linejoin: miter; stroke-linecap: square"/>
   </g>
  </g>
 </g>
 <defs>
  <clipPath id="p8a3f881e9c">
   <rect x="149.518196" y="103.68" width="438.963608" height="665.28"/>
  </clipPath>
 </defs>
</svg>
