<?xml version="1.0" encoding="utf-8" standalone="no"?>
<!DOCTYPE svg PUBLIC "-//W3C//DTD SVG 1.1//EN"
  "http://www.w3.org/Graphics/SVG/1.1/DTD/svg11.dtd">
<svg xmlns:xlink="http://www.w3.org/1999/xlink" width="720pt" height="864pt" viewBox="0 0 720 864" xmlns="http://www.w3.org/2000/svg" version="1.1">
 <metadata>
  <rdf:RDF xmlns:dc="http://purl.org/dc/elements/1.1/" xmlns:cc="http://creativecommons.org/ns#" xmlns:rdf="http://www.w3.org/1999/02/22-rdf-syntax-ns#">
   <cc:Work>
    <dc:type rdf:resource="http://purl.org/dc/dcmitype/StillImage"/>
    <dc:date>2025-06-16T16:53:10.690945</dc:date>
    <dc:format>image/svg+xml</dc:format>
    <dc:creator>
     <cc:Agent>
      <dc:title>Matplotlib v3.10.1, https://matplotlib.org/</dc:title>
     </cc:Agent>
    </dc:creator>
   </cc:Work>
  </rdf:RDF>
 </metadata>
 <defs>
  <style type="text/css">*{stroke-linejoin: round; stroke-linecap: butt}</style>
 </defs>
 <g id="figure_1">
  <g id="patch_1">
   <path d="M 0 864 
L 720 864 
L 720 0 
L 0 0 
z
" style="fill: #ffffff"/>
  </g>
  <g id="axes_1">
   <g id="patch_2">
    <path d="M 90 692.381435 
L 648 692.381435 
L 648 180.258565 
L 90 180.258565 
z
" style="fill: #ffffff"/>
   </g>
   <g id="PatchCollection_1">
    <path d="M 163.852346 203.536877 
L 167.709826 212.095497 
L 168.388524 211.238213 
L 174.07352 211.522033 
L 175.665917 212.10206 
L 176.264476 212.552812 
L 179.352402 213.287496 
L 180.519097 214.897566 
L 181.736115 215.96625 
L 183.665248 216.560371 
L 185.433015 217.890957 
L 190.507495 220.585463 
L 194.194799 220.430477 
L 195.291513 221.255989 
L 195.292485 221.827943 
L 196.392673 223.405096 
L 197.657691 223.402915 
L 200.281454 222.810842 
L 201.848365 223.81146 
L 203.336611 225.603617 
L 205.615257 226.669652 
L 208.926076 226.360925 
L 210.539825 225.618699 
L 214.447493 226.04914 
L 217.121611 229.329115 
L 218.489347 229.326739 
L 219.186473 229.606174 
L 224.812795 234.479891 
L 227.215185 235.684296 
L 229.278653 235.977451 
L 245.015989 246.727769 
L 311.48783 261.453003 
L 308.926028 263.709821 
L 305.937344 267.001078 
L 302.475969 269.949935 
L 299.372932 269.246267 
L 243.097773 284.616817 
L 243.133188 281.558912 
L 236.14204 267.040322 
L 234.734415 264.07941 
L 233.255983 261.066256 
L 232.492026 259.542504 
L 226.815493 247.800579 
L 223.669763 241.238184 
L 216.40329 242.262104 
L 202.832362 242.348223 
L 200.218705 274.153124 
L 203.667259 275.008901 
L 203.726193 282.795777 
L 202.374726 282.902879 
L 202.583698 283.882056 
L 190.242962 282.60014 
L 181.264549 288.749945 
L 173.863031 288.365309 
L 162.084111 287.877576 
L 161.755223 287.858529 
L 159.280121 287.759543 
L 151.812954 287.824507 
L 151.846423 287.170751 
L 138.445354 287.330814 
L 138.303414 275.540123 
L 134.12673 271.733987 
L 152.898727 257.85884 
L 166.110514 251.611349 
L 163.852346 203.536877 
" clip-path="url(#pb08ceade15)" style="fill: #e0bd1f; stroke: #0000ff; stroke-width: 0.5"/>
    <path d="M 256.307293 293.534256 
L 258.442054 327.193706 
L 262.041232 350.52651 
L 190.66033 348.090595 
L 182.731771 294.967844 
L 214.717313 305.366383 
L 256.307293 293.534256 
" clip-path="url(#pb08ceade15)" style="fill: #e0bd1f; stroke: #0000ff; stroke-width: 0.5"/>
    <path d="M 197.493701 274.4405 
L 198.857055 274.490862 
L 200.298786 274.488334 
L 201.373734 274.565447 
L 202.527683 274.800804 
L 203.667259 275.008901 
L 203.726193 282.795777 
L 202.374726 282.902879 
L 202.583698 283.882056 
L 190.242962 282.60014 
L 191.139208 275.157672 
L 191.700815 274.819778 
L 192.644135 274.528121 
L 193.797685 274.6051 
L 195.056298 274.761152 
L 196.395922 274.745422 
L 197.493701 274.4405 
" clip-path="url(#pb08ceade15)" style="fill: #e0bd1f; stroke: #0000ff; stroke-width: 0.5"/>
    <path d="M 223.669763 241.238184 
L 226.815493 247.800579 
L 232.492026 259.542504 
L 233.255983 261.066256 
L 234.734415 264.07941 
L 236.14204 267.040322 
L 243.133188 281.558912 
L 243.097773 284.616817 
L 299.372932 269.246267 
L 298.843853 275.373237 
L 297.398512 277.512302 
L 296.119926 281.547564 
L 295.078506 285.778458 
L 293.201823 294.480244 
L 292.570766 298.972333 
L 291.683881 303.077196 
L 289.654805 309.387258 
L 287.259979 314.971721 
L 281.560699 323.249827 
L 278.199859 326.460017 
L 274.377032 329.411984 
L 265.868279 333.210238 
L 260.684086 334.795918 
L 252.4756 338.76253 
L 248.959968 342.360346 
L 246.083488 346.56247 
L 244.08436 350.257983 
L 241.490222 354.008762 
L 237.782697 357.063861 
L 229.199368 358.300767 
L 224.941011 357.851527 
L 217.725444 357.790394 
L 190.242962 282.60014 
L 202.583698 283.882056 
L 202.374726 282.902879 
L 203.726193 282.795777 
L 203.667259 275.008901 
L 200.218705 274.153124 
L 202.832362 242.348223 
L 216.40329 242.262104 
L 223.669763 241.238184 
" clip-path="url(#pb08ceade15)" style="fill: #e0bd1f; stroke: #0000ff; stroke-width: 0.5"/>
    <path d="M 298.843853 275.373237 
L 294.584039 324.710464 
L 294.836018 331.823194 
L 309.897714 337.86905 
L 308.57933 360.625866 
L 290.933168 366.52002 
L 287.242803 385.854096 
L 285.5565 386.21218 
L 285.410706 388.419735 
L 272.799272 384.592145 
L 272.538601 382.205771 
L 275.178493 383.01669 
L 275.265655 380.636562 
L 264.322454 379.060104 
L 272.058071 388.481269 
L 271.827964 390.959239 
L 273.037036 396.185317 
L 263.217522 391.306745 
L 257.836898 402.781897 
L 258.41259 405.852156 
L 258.918586 406.450567 
L 260.192662 409.172233 
L 264.927345 412.101186 
L 266.370599 415.572191 
L 257.696839 424.867929 
L 256.289 422.557605 
L 255.034838 421.908749 
L 254.27285 421.425802 
L 254.057744 421.310567 
L 239.316474 414.620557 
L 238.099611 414.040992 
L 233.097816 412.086241 
L 230.880658 411.137047 
L 222.869609 407.659315 
L 222.459139 407.497009 
L 221.232654 407.020864 
L 221.174382 407.556018 
L 221.155246 407.821758 
L 221.208795 410.30564 
L 218.656622 411.235034 
L 218.379804 411.252824 
L 210.109527 414.182974 
L 209.864209 414.276974 
L 208.707751 414.631335 
L 207.950381 413.920579 
L 207.434484 413.986749 
L 207.39833 415.048602 
L 201.980466 415.867347 
L 199.557709 409.932015 
L 199.342625 409.973336 
L 190.434395 411.336978 
L 191.339878 372.855351 
L 191.70139 372.126696 
L 194.408029 368.050433 
L 197.440832 364.493183 
L 204.941986 360.271481 
L 211.132287 358.358142 
L 215.548094 357.771722 
L 217.725444 357.790394 
L 224.941011 357.851527 
L 229.199368 358.300767 
L 237.782697 357.063861 
L 241.490222 354.008762 
L 244.08436 350.257983 
L 246.083488 346.56247 
L 248.959968 342.360346 
L 252.4756 338.76253 
L 260.684086 334.795918 
L 265.868279 333.210238 
L 274.377032 329.411984 
L 278.199859 326.460017 
L 281.560699 323.249827 
L 287.259979 314.971721 
L 289.654805 309.387258 
L 291.683881 303.077196 
L 292.570766 298.972333 
L 293.201823 294.480244 
L 295.078506 285.778458 
L 296.119926 281.547564 
L 297.398512 277.512302 
L 298.843853 275.373237 
" clip-path="url(#pb08ceade15)" style="fill: #e0bd1f; stroke: #0000ff; stroke-width: 0.5"/>
    <path d="M 204.461737 354.390411 
L 217.413065 355.232523 
L 213.048061 356.220981 
L 204.324493 355.599268 
L 204.461737 354.390411 
" clip-path="url(#pb08ceade15)" style="fill: #e0bd1f; stroke: #0000ff; stroke-width: 0.5"/>
    <path d="M 213.082088 278.150809 
L 216.113114 279.371869 
L 218.20756 279.855408 
L 220.193321 280.921738 
L 222.82693 280.861733 
L 225.412362 281.669475 
L 225.67273 281.775165 
L 227.161134 282.642142 
L 227.415015 284.204733 
L 226.743538 284.141089 
L 225.988567 283.417424 
L 225.644121 283.055014 
L 224.079548 282.914342 
L 222.555544 283.390759 
L 221.037632 283.587688 
L 219.348836 282.892305 
L 218.056536 282.359801 
L 217.392918 281.548655 
L 216.404232 280.534483 
L 215.11562 280.340304 
L 214.072167 280.486236 
L 212.960436 280.926189 
L 213.082088 278.150809 
" clip-path="url(#pb08ceade15)" style="fill: #e0bd1f; stroke: #0000ff; stroke-width: 0.5"/>
    <path d="M 217.413065 355.232523 
L 217.413576 356.532464 
L 213.048061 356.220981 
L 217.413065 355.232523 
" clip-path="url(#pb08ceade15)" style="fill: #e0bd1f; stroke: #0000ff; stroke-width: 0.5"/>
    <path d="M 215.11427 280.602763 
L 216.280502 280.778709 
L 217.200922 281.72258 
L 217.898685 282.575502 
L 219.25117 283.132847 
L 221.002992 283.854104 
L 222.61071 283.645582 
L 224.107369 283.177788 
L 225.524533 283.305208 
L 225.802004 283.597056 
L 226.472526 284.148455 
L 212.40736 283.416356 
L 212.952752 281.182554 
L 214.107719 280.743694 
L 215.11427 280.602763 
" clip-path="url(#pb08ceade15)" style="fill: #e0bd1f; stroke: #0000ff; stroke-width: 0.5"/>
    <path d="M 317.969628 262.285162 
L 401.031868 273.52867 
L 382.568415 279.847751 
L 381.802612 280.112635 
L 381.558063 280.181812 
L 376.171517 280.986833 
L 377.280213 285.62298 
L 384.741954 289.187378 
L 383.097507 281.405912 
L 382.949929 281.009677 
L 386.118846 282.512381 
L 387.340656 296.491296 
L 382.230112 296.86078 
L 382.325759 298.24594 
L 383.581484 300.951 
L 382.878626 304.425567 
L 373.674179 310.427472 
L 372.75923 305.127183 
L 369.170036 306.329565 
L 367.58273 307.341064 
L 366.68453 308.25912 
L 365.752415 310.036535 
L 363.603288 314.903952 
L 366.494197 320.08045 
L 360.0903 325.803648 
L 342.16707 340.440243 
L 341.574524 340.55686 
L 340.955244 340.573623 
L 340.628044 340.48258 
L 340.537862 340.154337 
L 340.215057 339.809704 
L 339.284536 339.457899 
L 337.31178 339.440331 
L 336.157816 338.882462 
L 335.984634 338.471558 
L 335.369349 337.83902 
L 335.240468 338.019523 
L 335.160255 338.443611 
L 334.840639 338.774255 
L 334.48751 338.684406 
L 334.136364 338.327397 
L 334.07652 338.19442 
L 333.738948 338.098979 
L 333.572949 337.989162 
L 332.859106 337.645751 
L 332.118114 335.932625 
L 331.886296 335.152735 
L 331.916218 334.793742 
L 332.456893 334.197532 
L 332.565821 333.726723 
L 332.554645 333.309435 
L 332.628466 333.133331 
L 332.529507 331.977269 
L 332.427359 331.616277 
L 332.275739 330.930233 
L 332.117727 330.570031 
L 331.91063 329.776959 
L 331.41664 329.376434 
L 330.187261 328.519475 
L 329.489363 327.964007 
L 328.336591 327.605416 
L 327.62634 326.978873 
L 327.155089 326.518443 
L 326.786805 326.120707 
L 326.457608 325.89548 
L 326.222586 325.72977 
L 325.790049 325.470602 
L 319.660677 328.213198 
L 314.377633 330.442245 
L 311.84425 327.083889 
L 307.463399 332.192906 
L 308.107027 340.406302 
L 308.074304 340.923042 
L 307.869606 344.329313 
L 308.219546 362.293141 
L 330.486522 369.281398 
L 329.29225 379.997384 
L 274.077696 363.610917 
L 268.842142 330.896291 
L 268.3673 305.993328 
L 294.177589 305.16272 
L 294.584039 324.710464 
L 294.836018 331.823194 
L 309.243438 323.281477 
L 309.327629 320.445841 
L 322.844871 316.020079 
L 322.772242 315.80204 
L 322.874002 315.478196 
L 322.833695 315.397518 
L 322.627805 315.320852 
L 322.387985 315.07606 
L 322.395167 314.790944 
L 322.443447 314.655969 
L 322.56516 314.441136 
L 322.390786 314.189559 
L 322.17372 313.964333 
L 322.223192 313.734319 
L 322.267479 313.641681 
L 322.117856 313.372925 
L 322.080349 313.199624 
L 322.027674 313.110163 
L 321.769108 313.063844 
L 321.635832 313.007534 
L 321.428347 312.929674 
L 321.299854 312.849802 
L 321.072417 312.800292 
L 320.846574 312.755957 
L 320.648254 312.565879 
L 320.608349 312.424119 
L 320.395276 312.389775 
L 320.230484 312.311915 
L 320.097208 312.191316 
L 319.910063 312.135409 
L 319.835051 312.07112 
L 319.7349 312.112637 
L 319.730504 312.024398 
L 319.67066 311.93534 
L 319.561718 311.834307 
L 319.398118 311.789181 
L 319.311929 311.616671 
L 319.178667 311.53562 
L 318.982746 311.520036 
L 318.818744 311.577137 
L 318.660731 311.454152 
L 318.580131 311.27326 
L 318.428108 311.163831 
L 318.283254 311.146667 
L 318.109685 310.985341 
L 318.062597 310.814024 
L 318.060212 310.689831 
L 318.103695 310.57642 
L 318.068185 310.499351 
L 318.083742 310.444651 
L 317.970433 310.296896 
L 317.812018 310.163919 
L 317.735799 309.941885 
L 317.513547 309.903558 
L 317.40821 309.682329 
L 317.348755 309.543357 
L 330.240726 306.819537 
L 325.726642 291.909111 
L 325.00601 286.95353 
L 324.874781 286.316634 
L 318.677068 287.198381 
L 310.833128 289.798534 
L 294.118133 302.000437 
L 293.91424 291.397042 
L 293.606992 287.409355 
L 243.097773 284.616817 
L 242.529891 282.46645 
L 317.969628 262.285162 
" clip-path="url(#pb08ceade15)" style="fill: #e0bd1f; stroke: #0000ff; stroke-width: 0.5"/>
    <path d="M 311.48783 261.453003 
L 367.239588 273.806822 
L 371.926296 276.762696 
L 371.96142 278.554721 
L 371.865761 280.385442 
L 371.684227 282.965298 
L 372.002127 285.054964 
L 372.778768 286.417543 
L 372.86698 287.875969 
L 372.354299 289.240533 
L 372.608488 292.054997 
L 371.750219 294.271035 
L 371.405245 297.088945 
L 371.917992 299.653228 
L 373.375623 301.993081 
L 374.058408 304.383994 
L 373.576416 308.126003 
L 374.094234 311.051831 
L 375.145587 313.645375 
L 375.057606 316.685354 
L 377.116579 319.900359 
L 378.812202 321.178444 
L 379.856267 322.885559 
L 379.459298 326.310794 
L 380.708405 328.842237 
L 381.159641 331.886524 
L 381.298033 333.937789 
L 381.966483 335.313919 
L 381.924599 337.436975 
L 380.82275 339.522656 
L 380.428414 340.940275 
L 381.487925 344.418769 
L 381.65192 346.905726 
L 383.805668 348.504849 
L 386.015887 349.449727 
L 389.547117 352.424783 
L 391.742666 355.258271 
L 393.435778 357.791165 
L 394.667393 359.073834 
L 396.241336 359.779673 
L 399.514925 359.403722 
L 401.042915 360.105225 
L 402.277188 360.877048 
L 402.977731 362.144343 
L 403.035923 363.308277 
L 402.438618 364.516459 
L 402.733883 365.476364 
L 403.953501 366.344607 
L 404.135956 366.7444 
L 404.160361 368.399867 
L 404.694457 368.923189 
L 405.090282 369.004411 
L 405.174019 368.858096 
L 405.196065 368.503515 
L 405.493709 367.295384 
L 405.664479 366.970789 
L 406.02059 367.00207 
L 406.745648 367.439283 
L 407.454322 367.810919 
L 407.924015 367.919802 
L 408.492116 367.723196 
L 409.040673 367.290961 
L 410.637554 367.018601 
L 411.341741 366.652587 
L 411.800049 364.826926 
L 411.4075 363.81057 
L 411.232629 363.394786 
L 411.22154 362.782128 
L 411.391534 362.045186 
L 412.114665 361.04801 
L 412.227306 360.556846 
L 412.226833 360.030432 
L 412.435453 359.657698 
L 412.808373 359.570205 
L 413.184249 359.61379 
L 413.556651 359.800028 
L 413.906221 360.128697 
L 414.081089 360.337266 
L 414.03727 361.397585 
L 414.113271 361.804203 
L 414.468481 363.003809 
L 414.687489 363.146297 
L 414.950282 363.102275 
L 415.640427 362.750838 
L 415.914622 362.662882 
L 416.133832 362.706635 
L 415.957441 363.814494 
L 415.509882 366.548104 
L 415.198058 367.349754 
L 415.232087 367.602113 
L 415.519288 367.773052 
L 416.336023 367.416824 
L 417.224232 367.119052 
L 418.103495 367.483341 
L 418.684056 367.942907 
L 419.27436 368.162633 
L 419.797176 368.179951 
L 420.351614 368.063657 
L 421.280623 367.640697 
L 421.645311 367.226352 
L 422.024908 366.301287 
L 421.886268 365.527783 
L 421.826131 365.117888 
L 421.724942 364.905282 
L 420.803079 364.736987 
L 420.425308 364.578434 
L 420.150198 364.659636 
L 419.900855 364.992434 
L 419.001544 364.534255 
L 418.930729 364.278069 
L 419.177103 363.945147 
L 419.292795 363.63586 
L 419.689582 363.476606 
L 420.217067 363.370368 
L 421.198938 362.922757 
L 422.120791 362.606603 
L 423.156107 362.580201 
L 423.699661 362.510047 
L 424.648884 361.517119 
L 425.070208 361.025758 
L 425.218806 360.30627 
L 426.057294 359.376563 
L 427.119254 359.246958 
L 428.098234 359.185327 
L 428.89168 358.870977 
L 430.198699 359.149871 
L 430.756345 359.573752 
L 431.643556 360.73504 
L 432.551089 360.76708 
L 433.83013 360.104411 
L 435.892006 359.592501 
L 436.791658 359.553102 
L 437.941541 358.971617 
L 439.232656 358.213568 
L 439.693396 357.551429 
L 439.09295 356.876772 
L 438.049325 356.665194 
L 438.47186 355.862172 
L 439.452389 354.917646 
L 440.124344 353.552534 
L 440.160563 352.504328 
L 440.525157 350.676926 
L 440.506727 349.664031 
L 440.160982 348.28125 
L 440.106464 347.222954 
L 440.509638 346.006849 
L 441.797752 345.781848 
L 444.328587 345.829755 
L 444.977026 345.886197 
L 445.399311 346.661356 
L 445.625286 347.352318 
L 445.512401 348.394042 
L 444.650603 349.339766 
L 444.29661 349.877372 
L 444.776149 350.628647 
L 446.077938 351.153209 
L 446.134099 350.825592 
L 446.063214 350.669054 
L 446.204113 350.384925 
L 446.796264 350.087071 
L 447.846395 348.624325 
L 448.198472 348.370712 
L 448.606848 348.271976 
L 449.184038 348.525368 
L 450.048206 348.767298 
L 451.030564 348.727871 
L 451.73266 348.429676 
L 454.492475 345.919295 
L 454.971219 346.04634 
L 455.422248 346.257491 
L 456.042987 346.2715 
L 457.757011 347.242809 
L 459.579507 348.797208 
L 459.933416 348.967231 
L 460.244982 348.924931 
L 461.028052 347.913756 
L 461.328418 346.864665 
L 461.315265 346.256706 
L 462.21973 344.477394 
L 462.855357 343.495864 
L 464.029652 343.621961 
L 464.540819 343.836112 
L 464.796588 344.177027 
L 464.783822 344.998869 
L 465.23736 346.397788 
L 465.22317 347.216904 
L 465.294177 347.91348 
L 466.225638 348.802487 
L 466.946556 349.042734 
L 468.46076 348.830533 
L 470.695975 348.773095 
L 471.911005 348.605767 
L 472.686398 348.381477 
L 473.31227 347.77242 
L 473.819211 347.188925 
L 474.752201 347.186737 
L 475.543153 347.273422 
L 476.064455 347.727622 
L 476.498661 349.000033 
L 476.666262 349.662901 
L 476.550731 351.337795 
L 476.717039 351.86335 
L 477.02135 351.943436 
L 477.52151 351.79801 
L 477.863552 351.904006 
L 478.456763 351.561067 
L 479.560846 349.788392 
L 479.759625 349.204842 
L 479.90517 347.773345 
L 480.289566 346.607311 
L 481.472875 345.9825 
L 482.479849 345.598102 
L 483.315851 345.558295 
L 485.101585 346.247394 
L 486.454406 346.748308 
L 487.075623 346.748147 
L 487.498481 346.60313 
L 489.719788 345.155024 
L 491.156369 343.499934 
L 493.921213 338.677049 
L 495.926948 336.116571 
L 497.033481 335.233134 
L 497.69429 334.614533 
L 499.747561 335.12968 
L 500.948549 336.275618 
L 502.303265 337.643658 
L 503.0827 337.992252 
L 504.993637 338.102481 
L 506.135825 338.459594 
L 506.813838 339.889994 
L 507.222594 342.359137 
L 508.230065 343.4575 
L 509.018277 343.402318 
L 510.75713 342.533497 
L 514.68481 335.213128 
L 515.948089 334.454098 
L 518.782943 334.902361 
L 521.380116 336.099083 
L 521.543334 333.733815 
L 520.123285 332.206011 
L 521.706465 328.490076 
L 525.481219 327.518846 
L 525.912226 325.706596 
L 523.299654 322.854497 
L 521.721885 321.570697 
L 522.638737 318.339184 
L 525.91122 317.957424 
L 527.285617 317.012554 
L 527.302273 314.110286 
L 526.941143 312.918835 
L 529.652416 310.707658 
L 531.654823 311.513881 
L 532.247678 313.569144 
L 531.261768 317.997337 
L 531.82321 321.232075 
L 534.3756 322.57996 
L 537.792603 320.726066 
L 539.645478 316.692674 
L 540.403548 315.465417 
L 541.964354 315.715832 
L 544.706498 316.504485 
L 547.287373 316.838389 
L 546.653873 318.759613 
L 544.03584 321.993493 
L 543.361401 324.434551 
L 546.663581 330.383081 
L 550.294184 332.84924 
L 559.766378 335.537626 
L 564.017342 337.976011 
L 568.148403 340.996447 
L 572.317632 341.346893 
L 574.218587 340.475915 
L 578.934572 336.010574 
L 583.960883 331.687137 
L 588.439738 328.524035 
L 591.199957 328.541583 
L 592.483464 330.130599 
L 592.495128 332.738082 
L 592.077231 333.424137 
L 591.016387 334.922306 
L 590.222078 336.526079 
L 590.223864 339.820633 
L 591.202381 341.030155 
L 593.916139 345.849953 
L 594.703723 347.800281 
L 594.724454 349.949452 
L 594.708016 352.685978 
L 594.269146 354.450777 
L 593.288684 356.333436 
L 592.403204 359.140933 
L 592.793 360.834977 
L 594.259903 361.695114 
L 596.445909 361.62827 
L 600.462871 358.254008 
L 602.246182 358.73069 
L 603.239056 361.254749 
L 603.832274 362.910051 
L 605.000983 364.232954 
L 608.162014 365.23244 
L 612.853683 364.743706 
L 615.473863 364.868868 
L 617.145341 366.345194 
L 617.844213 368.566494 
L 617.503403 370.243009 
L 617.162481 371.278081 
L 615.127556 372.690932 
L 611.173886 374.116087 
L 607.726811 376.262855 
L 605.257549 378.206317 
L 603.389724 379.2394 
L 600.480279 379.932678 
L 598.610438 380.278592 
L 597.31984 381.403265 
L 596.830084 382.220675 
L 596.9071 383.773354 
L 597.670289 384.778941 
L 601.408528 386.347894 
L 604.107546 388.653773 
L 605.192326 389.672081 
L 605.543516 390.878405 
L 605.351469 392.478772 
L 604.431206 394.309494 
L 604.308772 395.292306 
L 604.39833 396.719208 
L 604.981448 398.204737 
L 606.788548 400.492387 
L 608.204947 403.564769 
L 608.390415 405.648766 
L 607.788483 406.825321 
L 606.686241 407.923263 
L 604.152163 407.205638 
L 602.152302 405.195196 
L 599.61105 403.727917 
L 597.941011 404.236998 
L 596.678044 406.016854 
L 595.298591 409.302108 
L 592.470813 412.338162 
L 590.839966 414.966896 
L 590.746984 416.996271 
L 592.896805 418.484087 
L 596.63862 417.794386 
L 599.560229 416.708461 
L 601.688199 417.984177 
L 603.047393 419.66661 
L 603.077205 422.624508 
L 602.396422 426.941572 
L 602.557855 430.342422 
L 604.513835 433.474089 
L 604.591956 435.674827 
L 600.450535 436.064158 
L 596.496074 436.704978 
L 593.845747 438.46132 
L 592.461834 442.398198 
L 593.39921 447.650778 
L 595.590699 449.167301 
L 598.959829 449.218334 
L 601.077524 449.851413 
L 602.470686 452.477736 
L 600.814442 456.365158 
L 599.063969 458.711641 
L 594.635948 461.676892 
L 592.478773 465.258409 
L 593.903414 470.913444 
L 595.590609 472.728318 
L 599.211571 472.983116 
L 604.305842 471.355337 
L 606.763335 472.242541 
L 606.790702 475.723932 
L 606.35032 480.227175 
L 607.652454 483.612134 
L 607.717731 485.240552 
L 607.193426 486.436589 
L 605.331189 488.259185 
L 604.166632 490.179448 
L 604.834677 491.870658 
L 607.285404 493.15313 
L 610.733683 493.20116 
L 612.450809 493.988411 
L 612.96967 496.110016 
L 613.124855 497.650688 
L 614.051667 498.349301 
L 615.7377 498.511663 
L 618.086546 498.007945 
L 619.308342 498.577726 
L 619.815944 499.989315 
L 619.701857 501.296336 
L 618.290178 501.949563 
L 616.282949 501.28465 
L 614.319243 501.450478 
L 612.671642 503.094289 
L 612.103971 504.468643 
L 611.181762 508.756085 
L 610.77452 513.889138 
L 612.199061 516.390095 
L 614.61849 518.552778 
L 616.455475 520.558069 
L 616.588789 523.174736 
L 616.284474 525.212843 
L 613.456217 530.323188 
L 613.308645 532.212625 
L 617.460155 535.11205 
L 622.636364 538.538362 
L 616.918805 540.990475 
L 612.907152 539.264668 
L 610.735096 536.317026 
L 608.588197 534.106892 
L 607.069984 529.890812 
L 605.310148 527.636201 
L 602.393131 525.556259 
L 595.932181 522.387234 
L 591.100561 517.705181 
L 588.266466 515.778033 
L 579.976707 514.88832 
L 576.552932 515.575086 
L 571.362187 514.355819 
L 569.283681 512.689581 
L 565.506749 511.13792 
L 561.803928 510.490999 
L 557.946211 509.258392 
L 554.919298 510.111484 
L 549.976137 511.924103 
L 546.041045 512.507173 
L 542.59508 514.505324 
L 532.456971 518.634841 
L 521.296075 522.661362 
L 508.764204 527.361656 
L 502.02348 532.546583 
L 489.098977 542.445079 
L 469.036421 546.618672 
L 453.682943 549.763935 
L 452.068884 552.12161 
L 451.497382 554.742055 
L 453.454853 564.427138 
L 455.534414 576.180265 
L 449.980859 591.379779 
L 447.297532 598.692983 
L 445.477291 601.138562 
L 442.833522 602.266582 
L 426.606377 605.513486 
L 414.335933 608.11238 
L 412.375466 608.776752 
L 407.477403 613.194923 
L 391.960547 627.620181 
L 376.587997 636.102203 
L 357.965606 643.266227 
L 347.012719 650.598446 
L 332.227474 654.015146 
L 301.176599 660.528237 
L 290.313382 662.755324 
L 276.599151 663.713279 
L 259.994563 665.925514 
L 238.218348 668.737543 
L 219.574955 669.103123 
L 193.481366 668.446465 
L 168.930637 667.90517 
L 158.229642 666.385016 
L 151.134198 664.933672 
L 139.681071 662.54194 
L 124.769726 659.27931 
L 116.845264 656.571206 
L 119.961149 649.282462 
L 120.748272 640.085927 
L 117.327895 614.774704 
L 115.363636 595.987199 
L 116.008702 591.691986 
L 121.478923 572.175215 
L 127.262443 545.75475 
L 129.536702 540.113402 
L 131.024025 537.254139 
L 136.648326 530.415465 
L 140.527897 527.488097 
L 153.156026 519.610462 
L 160.353587 514.415438 
L 167.996547 506.626793 
L 173.024228 501.083605 
L 175.191977 496.400842 
L 178.220718 483.235055 
L 178.456158 474.279587 
L 178.733446 468.997605 
L 180.811647 456.023333 
L 180.930583 449.876306 
L 181.643745 445.058428 
L 182.571867 440.69401 
L 182.241288 431.545484 
L 180.091317 420.789119 
L 174.194786 410.691918 
L 174.229789 404.791114 
L 178.383737 403.610168 
L 183.161727 400.48574 
L 187.825271 380.629236 
L 191.339878 372.855351 
L 190.434395 411.336978 
L 199.342625 409.973336 
L 199.557709 409.932015 
L 201.980466 415.867347 
L 207.39833 415.048602 
L 207.434484 413.986749 
L 207.950381 413.920579 
L 208.707751 414.631335 
L 209.864209 414.276974 
L 210.109527 414.182974 
L 218.379804 411.252824 
L 218.656622 411.235034 
L 221.208795 410.30564 
L 221.155246 407.821758 
L 221.174382 407.556018 
L 221.232654 407.020864 
L 222.459139 407.497009 
L 222.869609 407.659315 
L 230.880658 411.137047 
L 233.097816 412.086241 
L 238.099611 414.040992 
L 239.316474 414.620557 
L 254.057744 421.310567 
L 254.27285 421.425802 
L 255.034838 421.908749 
L 256.289 422.557605 
L 257.696839 424.867929 
L 266.370599 415.572191 
L 264.927345 412.101186 
L 260.192662 409.172233 
L 258.918586 406.450567 
L 258.41259 405.852156 
L 257.836898 402.781897 
L 263.217522 391.306745 
L 273.037036 396.185317 
L 271.827964 390.959239 
L 272.058071 388.481269 
L 264.322454 379.060104 
L 275.265655 380.636562 
L 275.178493 383.01669 
L 272.538601 382.205771 
L 272.799272 384.592145 
L 285.410706 388.419735 
L 285.5565 386.21218 
L 287.242803 385.854096 
L 290.933168 366.52002 
L 308.57933 360.625866 
L 309.897714 337.86905 
L 294.836018 331.823194 
L 294.584039 324.710464 
L 299.372932 269.246267 
L 302.475969 269.949935 
L 305.937344 267.001078 
L 308.926028 263.709821 
L 311.48783 261.453003 
" clip-path="url(#pb08ceade15)" style="fill: #e0bd1f; stroke: #0000ff; stroke-width: 0.5"/>
   </g>
   <g id="PatchCollection_2">
    <path d="M 223.669763 241.238184 
L 226.815493 247.800579 
L 232.492026 259.542504 
L 233.255983 261.066256 
L 234.734415 264.07941 
L 236.14204 267.040322 
L 243.133188 281.558912 
L 243.097773 284.616817 
L 299.372932 269.246267 
L 298.843853 275.373237 
L 297.398512 277.512302 
L 296.119926 281.547564 
L 295.078506 285.778458 
L 293.201823 294.480244 
L 292.570766 298.972333 
L 291.683881 303.077196 
L 289.654805 309.387258 
L 287.259979 314.971721 
L 281.560699 323.249827 
L 278.199859 326.460017 
L 274.377032 329.411984 
L 265.868279 333.210238 
L 260.684086 334.795918 
L 252.4756 338.76253 
L 248.959968 342.360346 
L 246.083488 346.56247 
L 244.08436 350.257983 
L 241.490222 354.008762 
L 237.782697 357.063861 
L 229.199368 358.300767 
L 224.941011 357.851527 
L 217.725444 357.790394 
L 190.242962 282.60014 
L 202.583698 283.882056 
L 202.374726 282.902879 
L 203.726193 282.795777 
L 203.667259 275.008901 
L 200.218705 274.153124 
L 202.832362 242.348223 
L 216.40329 242.262104 
L 223.669763 241.238184 
" clip-path="url(#pb08ceade15)" style="fill: none; stroke: #000000"/>
   </g>
   <g id="matplotlib.axis_1">
    <g id="xtick_1">
     <g id="line2d_1">
      <path d="M 113.429781 692.381435 
L 113.429781 180.258565 
" clip-path="url(#pb08ceade15)" style="fill: none; stroke: #b0b0b0; stroke-width: 0.8; stroke-linecap: square"/>
     </g>
     <g id="line2d_2">
      <defs>
       <path id="mf123bd7a87" d="M 0 0 
L 0 3.5 
" style="stroke: #000000; stroke-width: 0.8"/>
      </defs>
      <g>
       <use xlink:href="#mf123bd7a87" x="113.429781" y="692.381435" style="stroke: #000000; stroke-width: 0.8"/>
      </g>
     </g>
     <g id="text_1">
      <!-- −48.50 -->
      <g transform="translate(102.296716 730.922817) rotate(-45) scale(0.1 -0.1)">
       <defs>
        <path id="DejaVuSans-2212" d="M 678 2272 
L 4684 2272 
L 4684 1741 
L 678 1741 
L 678 2272 
z
" transform="scale(0.015625)"/>
        <path id="DejaVuSans-34" d="M 2419 4116 
L 825 1625 
L 2419 1625 
L 2419 4116 
z
M 2253 4666 
L 3047 4666 
L 3047 1625 
L 3713 1625 
L 3713 1100 
L 3047 1100 
L 3047 0 
L 2419 0 
L 2419 1100 
L 313 1100 
L 313 1709 
L 2253 4666 
z
" transform="scale(0.015625)"/>
        <path id="DejaVuSans-38" d="M 2034 2216 
Q 1584 2216 1326 1975 
Q 1069 1734 1069 1313 
Q 1069 891 1326 650 
Q 1584 409 2034 409 
Q 2484 409 2743 651 
Q 3003 894 3003 1313 
Q 3003 1734 2745 1975 
Q 2488 2216 2034 2216 
z
M 1403 2484 
Q 997 2584 770 2862 
Q 544 3141 544 3541 
Q 544 4100 942 4425 
Q 1341 4750 2034 4750 
Q 2731 4750 3128 4425 
Q 3525 4100 3525 3541 
Q 3525 3141 3298 2862 
Q 3072 2584 2669 2484 
Q 3125 2378 3379 2068 
Q 3634 1759 3634 1313 
Q 3634 634 3220 271 
Q 2806 -91 2034 -91 
Q 1263 -91 848 271 
Q 434 634 434 1313 
Q 434 1759 690 2068 
Q 947 2378 1403 2484 
z
M 1172 3481 
Q 1172 3119 1398 2916 
Q 1625 2713 2034 2713 
Q 2441 2713 2670 2916 
Q 2900 3119 2900 3481 
Q 2900 3844 2670 4047 
Q 2441 4250 2034 4250 
Q 1625 4250 1398 4047 
Q 1172 3844 1172 3481 
z
" transform="scale(0.015625)"/>
        <path id="DejaVuSans-2e" d="M 684 794 
L 1344 794 
L 1344 0 
L 684 0 
L 684 794 
z
" transform="scale(0.015625)"/>
        <path id="DejaVuSans-35" d="M 691 4666 
L 3169 4666 
L 3169 4134 
L 1269 4134 
L 1269 2991 
Q 1406 3038 1543 3061 
Q 1681 3084 1819 3084 
Q 2600 3084 3056 2656 
Q 3513 2228 3513 1497 
Q 3513 744 3044 326 
Q 2575 -91 1722 -91 
Q 1428 -91 1123 -41 
Q 819 9 494 109 
L 494 744 
Q 775 591 1075 516 
Q 1375 441 1709 441 
Q 2250 441 2565 725 
Q 2881 1009 2881 1497 
Q 2881 1984 2565 2268 
Q 2250 2553 1709 2553 
Q 1456 2553 1204 2497 
Q 953 2441 691 2322 
L 691 4666 
z
" transform="scale(0.015625)"/>
        <path id="DejaVuSans-30" d="M 2034 4250 
Q 1547 4250 1301 3770 
Q 1056 3291 1056 2328 
Q 1056 1369 1301 889 
Q 1547 409 2034 409 
Q 2525 409 2770 889 
Q 3016 1369 3016 2328 
Q 3016 3291 2770 3770 
Q 2525 4250 2034 4250 
z
M 2034 4750 
Q 2819 4750 3233 4129 
Q 3647 3509 3647 2328 
Q 3647 1150 3233 529 
Q 2819 -91 2034 -91 
Q 1250 -91 836 529 
Q 422 1150 422 2328 
Q 422 3509 836 4129 
Q 1250 4750 2034 4750 
z
" transform="scale(0.015625)"/>
       </defs>
       <use xlink:href="#DejaVuSans-2212"/>
       <use xlink:href="#DejaVuSans-34" transform="translate(83.789062 0)"/>
       <use xlink:href="#DejaVuSans-38" transform="translate(147.412109 0)"/>
       <use xlink:href="#DejaVuSans-2e" transform="translate(211.035156 0)"/>
       <use xlink:href="#DejaVuSans-35" transform="translate(242.822266 0)"/>
       <use xlink:href="#DejaVuSans-30" transform="translate(306.445312 0)"/>
      </g>
     </g>
    </g>
    <g id="xtick_2">
     <g id="line2d_3">
      <path d="M 185.253591 692.381435 
L 185.253591 180.258565 
" clip-path="url(#pb08ceade15)" style="fill: none; stroke: #b0b0b0; stroke-width: 0.8; stroke-linecap: square"/>
     </g>
     <g id="line2d_4">
      <g>
       <use xlink:href="#mf123bd7a87" x="185.253591" y="692.381435" style="stroke: #000000; stroke-width: 0.8"/>
      </g>
     </g>
     <g id="text_2">
      <!-- −48.45 -->
      <g transform="translate(174.120527 730.922817) rotate(-45) scale(0.1 -0.1)">
       <use xlink:href="#DejaVuSans-2212"/>
       <use xlink:href="#DejaVuSans-34" transform="translate(83.789062 0)"/>
       <use xlink:href="#DejaVuSans-38" transform="translate(147.412109 0)"/>
       <use xlink:href="#DejaVuSans-2e" transform="translate(211.035156 0)"/>
       <use xlink:href="#DejaVuSans-34" transform="translate(242.822266 0)"/>
       <use xlink:href="#DejaVuSans-35" transform="translate(306.445312 0)"/>
      </g>
     </g>
    </g>
    <g id="xtick_3">
     <g id="line2d_5">
      <path d="M 257.077402 692.381435 
L 257.077402 180.258565 
" clip-path="url(#pb08ceade15)" style="fill: none; stroke: #b0b0b0; stroke-width: 0.8; stroke-linecap: square"/>
     </g>
     <g id="line2d_6">
      <g>
       <use xlink:href="#mf123bd7a87" x="257.077402" y="692.381435" style="stroke: #000000; stroke-width: 0.8"/>
      </g>
     </g>
     <g id="text_3">
      <!-- −48.40 -->
      <g transform="translate(245.944337 730.922817) rotate(-45) scale(0.1 -0.1)">
       <use xlink:href="#DejaVuSans-2212"/>
       <use xlink:href="#DejaVuSans-34" transform="translate(83.789062 0)"/>
       <use xlink:href="#DejaVuSans-38" transform="translate(147.412109 0)"/>
       <use xlink:href="#DejaVuSans-2e" transform="translate(211.035156 0)"/>
       <use xlink:href="#DejaVuSans-34" transform="translate(242.822266 0)"/>
       <use xlink:href="#DejaVuSans-30" transform="translate(306.445312 0)"/>
      </g>
     </g>
    </g>
    <g id="xtick_4">
     <g id="line2d_7">
      <path d="M 328.901212 692.381435 
L 328.901212 180.258565 
" clip-path="url(#pb08ceade15)" style="fill: none; stroke: #b0b0b0; stroke-width: 0.8; stroke-linecap: square"/>
     </g>
     <g id="line2d_8">
      <g>
       <use xlink:href="#mf123bd7a87" x="328.901212" y="692.381435" style="stroke: #000000; stroke-width: 0.8"/>
      </g>
     </g>
     <g id="text_4">
      <!-- −48.35 -->
      <g transform="translate(317.768147 730.922817) rotate(-45) scale(0.1 -0.1)">
       <defs>
        <path id="DejaVuSans-33" d="M 2597 2516 
Q 3050 2419 3304 2112 
Q 3559 1806 3559 1356 
Q 3559 666 3084 287 
Q 2609 -91 1734 -91 
Q 1441 -91 1130 -33 
Q 819 25 488 141 
L 488 750 
Q 750 597 1062 519 
Q 1375 441 1716 441 
Q 2309 441 2620 675 
Q 2931 909 2931 1356 
Q 2931 1769 2642 2001 
Q 2353 2234 1838 2234 
L 1294 2234 
L 1294 2753 
L 1863 2753 
Q 2328 2753 2575 2939 
Q 2822 3125 2822 3475 
Q 2822 3834 2567 4026 
Q 2313 4219 1838 4219 
Q 1578 4219 1281 4162 
Q 984 4106 628 3988 
L 628 4550 
Q 988 4650 1302 4700 
Q 1616 4750 1894 4750 
Q 2613 4750 3031 4423 
Q 3450 4097 3450 3541 
Q 3450 3153 3228 2886 
Q 3006 2619 2597 2516 
z
" transform="scale(0.015625)"/>
       </defs>
       <use xlink:href="#DejaVuSans-2212"/>
       <use xlink:href="#DejaVuSans-34" transform="translate(83.789062 0)"/>
       <use xlink:href="#DejaVuSans-38" transform="translate(147.412109 0)"/>
       <use xlink:href="#DejaVuSans-2e" transform="translate(211.035156 0)"/>
       <use xlink:href="#DejaVuSans-33" transform="translate(242.822266 0)"/>
       <use xlink:href="#DejaVuSans-35" transform="translate(306.445312 0)"/>
      </g>
     </g>
    </g>
    <g id="xtick_5">
     <g id="line2d_9">
      <path d="M 400.725023 692.381435 
L 400.725023 180.258565 
" clip-path="url(#pb08ceade15)" style="fill: none; stroke: #b0b0b0; stroke-width: 0.8; stroke-linecap: square"/>
     </g>
     <g id="line2d_10">
      <g>
       <use xlink:href="#mf123bd7a87" x="400.725023" y="692.381435" style="stroke: #000000; stroke-width: 0.8"/>
      </g>
     </g>
     <g id="text_5">
      <!-- −48.30 -->
      <g transform="translate(389.591958 730.922817) rotate(-45) scale(0.1 -0.1)">
       <use xlink:href="#DejaVuSans-2212"/>
       <use xlink:href="#DejaVuSans-34" transform="translate(83.789062 0)"/>
       <use xlink:href="#DejaVuSans-38" transform="translate(147.412109 0)"/>
       <use xlink:href="#DejaVuSans-2e" transform="translate(211.035156 0)"/>
       <use xlink:href="#DejaVuSans-33" transform="translate(242.822266 0)"/>
       <use xlink:href="#DejaVuSans-30" transform="translate(306.445312 0)"/>
      </g>
     </g>
    </g>
    <g id="xtick_6">
     <g id="line2d_11">
      <path d="M 472.548833 692.381435 
L 472.548833 180.258565 
" clip-path="url(#pb08ceade15)" style="fill: none; stroke: #b0b0b0; stroke-width: 0.8; stroke-linecap: square"/>
     </g>
     <g id="line2d_12">
      <g>
       <use xlink:href="#mf123bd7a87" x="472.548833" y="692.381435" style="stroke: #000000; stroke-width: 0.8"/>
      </g>
     </g>
     <g id="text_6">
      <!-- −48.25 -->
      <g transform="translate(461.415768 730.922817) rotate(-45) scale(0.1 -0.1)">
       <defs>
        <path id="DejaVuSans-32" d="M 1228 531 
L 3431 531 
L 3431 0 
L 469 0 
L 469 531 
Q 828 903 1448 1529 
Q 2069 2156 2228 2338 
Q 2531 2678 2651 2914 
Q 2772 3150 2772 3378 
Q 2772 3750 2511 3984 
Q 2250 4219 1831 4219 
Q 1534 4219 1204 4116 
Q 875 4013 500 3803 
L 500 4441 
Q 881 4594 1212 4672 
Q 1544 4750 1819 4750 
Q 2544 4750 2975 4387 
Q 3406 4025 3406 3419 
Q 3406 3131 3298 2873 
Q 3191 2616 2906 2266 
Q 2828 2175 2409 1742 
Q 1991 1309 1228 531 
z
" transform="scale(0.015625)"/>
       </defs>
       <use xlink:href="#DejaVuSans-2212"/>
       <use xlink:href="#DejaVuSans-34" transform="translate(83.789062 0)"/>
       <use xlink:href="#DejaVuSans-38" transform="translate(147.412109 0)"/>
       <use xlink:href="#DejaVuSans-2e" transform="translate(211.035156 0)"/>
       <use xlink:href="#DejaVuSans-32" transform="translate(242.822266 0)"/>
       <use xlink:href="#DejaVuSans-35" transform="translate(306.445312 0)"/>
      </g>
     </g>
    </g>
    <g id="xtick_7">
     <g id="line2d_13">
      <path d="M 544.372643 692.381435 
L 544.372643 180.258565 
" clip-path="url(#pb08ceade15)" style="fill: none; stroke: #b0b0b0; stroke-width: 0.8; stroke-linecap: square"/>
     </g>
     <g id="line2d_14">
      <g>
       <use xlink:href="#mf123bd7a87" x="544.372643" y="692.381435" style="stroke: #000000; stroke-width: 0.8"/>
      </g>
     </g>
     <g id="text_7">
      <!-- −48.20 -->
      <g transform="translate(533.239579 730.922817) rotate(-45) scale(0.1 -0.1)">
       <use xlink:href="#DejaVuSans-2212"/>
       <use xlink:href="#DejaVuSans-34" transform="translate(83.789062 0)"/>
       <use xlink:href="#DejaVuSans-38" transform="translate(147.412109 0)"/>
       <use xlink:href="#DejaVuSans-2e" transform="translate(211.035156 0)"/>
       <use xlink:href="#DejaVuSans-32" transform="translate(242.822266 0)"/>
       <use xlink:href="#DejaVuSans-30" transform="translate(306.445312 0)"/>
      </g>
     </g>
    </g>
    <g id="xtick_8">
     <g id="line2d_15">
      <path d="M 616.196454 692.381435 
L 616.196454 180.258565 
" clip-path="url(#pb08ceade15)" style="fill: none; stroke: #b0b0b0; stroke-width: 0.8; stroke-linecap: square"/>
     </g>
     <g id="line2d_16">
      <g>
       <use xlink:href="#mf123bd7a87" x="616.196454" y="692.381435" style="stroke: #000000; stroke-width: 0.8"/>
      </g>
     </g>
     <g id="text_8">
      <!-- −48.15 -->
      <g transform="translate(605.063389 730.922817) rotate(-45) scale(0.1 -0.1)">
       <defs>
        <path id="DejaVuSans-31" d="M 794 531 
L 1825 531 
L 1825 4091 
L 703 3866 
L 703 4441 
L 1819 4666 
L 2450 4666 
L 2450 531 
L 3481 531 
L 3481 0 
L 794 0 
L 794 531 
z
" transform="scale(0.015625)"/>
       </defs>
       <use xlink:href="#DejaVuSans-2212"/>
       <use xlink:href="#DejaVuSans-34" transform="translate(83.789062 0)"/>
       <use xlink:href="#DejaVuSans-38" transform="translate(147.412109 0)"/>
       <use xlink:href="#DejaVuSans-2e" transform="translate(211.035156 0)"/>
       <use xlink:href="#DejaVuSans-31" transform="translate(242.822266 0)"/>
       <use xlink:href="#DejaVuSans-35" transform="translate(306.445312 0)"/>
      </g>
     </g>
    </g>
    <g id="text_9">
     <!-- Longitude (°) -->
     <g transform="translate(336.139844 743.991815) scale(0.1 -0.1)">
      <defs>
       <path id="DejaVuSans-4c" d="M 628 4666 
L 1259 4666 
L 1259 531 
L 3531 531 
L 3531 0 
L 628 0 
L 628 4666 
z
" transform="scale(0.015625)"/>
       <path id="DejaVuSans-6f" d="M 1959 3097 
Q 1497 3097 1228 2736 
Q 959 2375 959 1747 
Q 959 1119 1226 758 
Q 1494 397 1959 397 
Q 2419 397 2687 759 
Q 2956 1122 2956 1747 
Q 2956 2369 2687 2733 
Q 2419 3097 1959 3097 
z
M 1959 3584 
Q 2709 3584 3137 3096 
Q 3566 2609 3566 1747 
Q 3566 888 3137 398 
Q 2709 -91 1959 -91 
Q 1206 -91 779 398 
Q 353 888 353 1747 
Q 353 2609 779 3096 
Q 1206 3584 1959 3584 
z
" transform="scale(0.015625)"/>
       <path id="DejaVuSans-6e" d="M 3513 2113 
L 3513 0 
L 2938 0 
L 2938 2094 
Q 2938 2591 2744 2837 
Q 2550 3084 2163 3084 
Q 1697 3084 1428 2787 
Q 1159 2491 1159 1978 
L 1159 0 
L 581 0 
L 581 3500 
L 1159 3500 
L 1159 2956 
Q 1366 3272 1645 3428 
Q 1925 3584 2291 3584 
Q 2894 3584 3203 3211 
Q 3513 2838 3513 2113 
z
" transform="scale(0.015625)"/>
       <path id="DejaVuSans-67" d="M 2906 1791 
Q 2906 2416 2648 2759 
Q 2391 3103 1925 3103 
Q 1463 3103 1205 2759 
Q 947 2416 947 1791 
Q 947 1169 1205 825 
Q 1463 481 1925 481 
Q 2391 481 2648 825 
Q 2906 1169 2906 1791 
z
M 3481 434 
Q 3481 -459 3084 -895 
Q 2688 -1331 1869 -1331 
Q 1566 -1331 1297 -1286 
Q 1028 -1241 775 -1147 
L 775 -588 
Q 1028 -725 1275 -790 
Q 1522 -856 1778 -856 
Q 2344 -856 2625 -561 
Q 2906 -266 2906 331 
L 2906 616 
Q 2728 306 2450 153 
Q 2172 0 1784 0 
Q 1141 0 747 490 
Q 353 981 353 1791 
Q 353 2603 747 3093 
Q 1141 3584 1784 3584 
Q 2172 3584 2450 3431 
Q 2728 3278 2906 2969 
L 2906 3500 
L 3481 3500 
L 3481 434 
z
" transform="scale(0.015625)"/>
       <path id="DejaVuSans-69" d="M 603 3500 
L 1178 3500 
L 1178 0 
L 603 0 
L 603 3500 
z
M 603 4863 
L 1178 4863 
L 1178 4134 
L 603 4134 
L 603 4863 
z
" transform="scale(0.015625)"/>
       <path id="DejaVuSans-74" d="M 1172 4494 
L 1172 3500 
L 2356 3500 
L 2356 3053 
L 1172 3053 
L 1172 1153 
Q 1172 725 1289 603 
Q 1406 481 1766 481 
L 2356 481 
L 2356 0 
L 1766 0 
Q 1100 0 847 248 
Q 594 497 594 1153 
L 594 3053 
L 172 3053 
L 172 3500 
L 594 3500 
L 594 4494 
L 1172 4494 
z
" transform="scale(0.015625)"/>
       <path id="DejaVuSans-75" d="M 544 1381 
L 544 3500 
L 1119 3500 
L 1119 1403 
Q 1119 906 1312 657 
Q 1506 409 1894 409 
Q 2359 409 2629 706 
Q 2900 1003 2900 1516 
L 2900 3500 
L 3475 3500 
L 3475 0 
L 2900 0 
L 2900 538 
Q 2691 219 2414 64 
Q 2138 -91 1772 -91 
Q 1169 -91 856 284 
Q 544 659 544 1381 
z
M 1991 3584 
L 1991 3584 
z
" transform="scale(0.015625)"/>
       <path id="DejaVuSans-64" d="M 2906 2969 
L 2906 4863 
L 3481 4863 
L 3481 0 
L 2906 0 
L 2906 525 
Q 2725 213 2448 61 
Q 2172 -91 1784 -91 
Q 1150 -91 751 415 
Q 353 922 353 1747 
Q 353 2572 751 3078 
Q 1150 3584 1784 3584 
Q 2172 3584 2448 3432 
Q 2725 3281 2906 2969 
z
M 947 1747 
Q 947 1113 1208 752 
Q 1469 391 1925 391 
Q 2381 391 2643 752 
Q 2906 1113 2906 1747 
Q 2906 2381 2643 2742 
Q 2381 3103 1925 3103 
Q 1469 3103 1208 2742 
Q 947 2381 947 1747 
z
" transform="scale(0.015625)"/>
       <path id="DejaVuSans-65" d="M 3597 1894 
L 3597 1613 
L 953 1613 
Q 991 1019 1311 708 
Q 1631 397 2203 397 
Q 2534 397 2845 478 
Q 3156 559 3463 722 
L 3463 178 
Q 3153 47 2828 -22 
Q 2503 -91 2169 -91 
Q 1331 -91 842 396 
Q 353 884 353 1716 
Q 353 2575 817 3079 
Q 1281 3584 2069 3584 
Q 2775 3584 3186 3129 
Q 3597 2675 3597 1894 
z
M 3022 2063 
Q 3016 2534 2758 2815 
Q 2500 3097 2075 3097 
Q 1594 3097 1305 2825 
Q 1016 2553 972 2059 
L 3022 2063 
z
" transform="scale(0.015625)"/>
       <path id="DejaVuSans-20" transform="scale(0.015625)"/>
       <path id="DejaVuSans-28" d="M 1984 4856 
Q 1566 4138 1362 3434 
Q 1159 2731 1159 2009 
Q 1159 1288 1364 580 
Q 1569 -128 1984 -844 
L 1484 -844 
Q 1016 -109 783 600 
Q 550 1309 550 2009 
Q 550 2706 781 3412 
Q 1013 4119 1484 4856 
L 1984 4856 
z
" transform="scale(0.015625)"/>
       <path id="DejaVuSans-b0" d="M 1600 4347 
Q 1350 4347 1178 4173 
Q 1006 4000 1006 3750 
Q 1006 3503 1178 3333 
Q 1350 3163 1600 3163 
Q 1850 3163 2022 3333 
Q 2194 3503 2194 3750 
Q 2194 3997 2020 4172 
Q 1847 4347 1600 4347 
z
M 1600 4750 
Q 1800 4750 1984 4673 
Q 2169 4597 2303 4453 
Q 2447 4313 2519 4134 
Q 2591 3956 2591 3750 
Q 2591 3338 2302 3052 
Q 2013 2766 1594 2766 
Q 1172 2766 890 3047 
Q 609 3328 609 3750 
Q 609 4169 896 4459 
Q 1184 4750 1600 4750 
z
" transform="scale(0.015625)"/>
       <path id="DejaVuSans-29" d="M 513 4856 
L 1013 4856 
Q 1481 4119 1714 3412 
Q 1947 2706 1947 2009 
Q 1947 1309 1714 600 
Q 1481 -109 1013 -844 
L 513 -844 
Q 928 -128 1133 580 
Q 1338 1288 1338 2009 
Q 1338 2731 1133 3434 
Q 928 4138 513 4856 
z
" transform="scale(0.015625)"/>
      </defs>
      <use xlink:href="#DejaVuSans-4c"/>
      <use xlink:href="#DejaVuSans-6f" transform="translate(53.962891 0)"/>
      <use xlink:href="#DejaVuSans-6e" transform="translate(115.144531 0)"/>
      <use xlink:href="#DejaVuSans-67" transform="translate(178.523438 0)"/>
      <use xlink:href="#DejaVuSans-69" transform="translate(242 0)"/>
      <use xlink:href="#DejaVuSans-74" transform="translate(269.783203 0)"/>
      <use xlink:href="#DejaVuSans-75" transform="translate(308.992188 0)"/>
      <use xlink:href="#DejaVuSans-64" transform="translate(372.371094 0)"/>
      <use xlink:href="#DejaVuSans-65" transform="translate(435.847656 0)"/>
      <use xlink:href="#DejaVuSans-20" transform="translate(497.371094 0)"/>
      <use xlink:href="#DejaVuSans-28" transform="translate(529.158203 0)"/>
      <use xlink:href="#DejaVuSans-b0" transform="translate(568.171875 0)"/>
      <use xlink:href="#DejaVuSans-29" transform="translate(618.171875 0)"/>
     </g>
    </g>
   </g>
   <g id="matplotlib.axis_2">
    <g id="ytick_1">
     <g id="line2d_17">
      <path d="M 90 658.95231 
L 648 658.95231 
" clip-path="url(#pb08ceade15)" style="fill: none; stroke: #b0b0b0; stroke-width: 0.8; stroke-linecap: square"/>
     </g>
     <g id="line2d_18">
      <defs>
       <path id="m4d2efdf00e" d="M 0 0 
L -3.5 0 
" style="stroke: #000000; stroke-width: 0.8"/>
      </defs>
      <g>
       <use xlink:href="#m4d2efdf00e" x="90" y="658.95231" style="stroke: #000000; stroke-width: 0.8"/>
      </g>
     </g>
     <g id="text_10">
      <!-- −2.50 -->
      <g transform="translate(52.354687 662.751529) scale(0.1 -0.1)">
       <use xlink:href="#DejaVuSans-2212"/>
       <use xlink:href="#DejaVuSans-32" transform="translate(83.789062 0)"/>
       <use xlink:href="#DejaVuSans-2e" transform="translate(147.412109 0)"/>
       <use xlink:href="#DejaVuSans-35" transform="translate(179.199219 0)"/>
       <use xlink:href="#DejaVuSans-30" transform="translate(242.822266 0)"/>
      </g>
     </g>
    </g>
    <g id="ytick_2">
     <g id="line2d_19">
      <path d="M 90 587.073076 
L 648 587.073076 
" clip-path="url(#pb08ceade15)" style="fill: none; stroke: #b0b0b0; stroke-width: 0.8; stroke-linecap: square"/>
     </g>
     <g id="line2d_20">
      <g>
       <use xlink:href="#m4d2efdf00e" x="90" y="587.073076" style="stroke: #000000; stroke-width: 0.8"/>
      </g>
     </g>
     <g id="text_11">
      <!-- −2.45 -->
      <g transform="translate(52.354687 590.872295) scale(0.1 -0.1)">
       <use xlink:href="#DejaVuSans-2212"/>
       <use xlink:href="#DejaVuSans-32" transform="translate(83.789062 0)"/>
       <use xlink:href="#DejaVuSans-2e" transform="translate(147.412109 0)"/>
       <use xlink:href="#DejaVuSans-34" transform="translate(179.199219 0)"/>
       <use xlink:href="#DejaVuSans-35" transform="translate(242.822266 0)"/>
      </g>
     </g>
    </g>
    <g id="ytick_3">
     <g id="line2d_21">
      <path d="M 90 515.193842 
L 648 515.193842 
" clip-path="url(#pb08ceade15)" style="fill: none; stroke: #b0b0b0; stroke-width: 0.8; stroke-linecap: square"/>
     </g>
     <g id="line2d_22">
      <g>
       <use xlink:href="#m4d2efdf00e" x="90" y="515.193842" style="stroke: #000000; stroke-width: 0.8"/>
      </g>
     </g>
     <g id="text_12">
      <!-- −2.40 -->
      <g transform="translate(52.354687 518.993061) scale(0.1 -0.1)">
       <use xlink:href="#DejaVuSans-2212"/>
       <use xlink:href="#DejaVuSans-32" transform="translate(83.789062 0)"/>
       <use xlink:href="#DejaVuSans-2e" transform="translate(147.412109 0)"/>
       <use xlink:href="#DejaVuSans-34" transform="translate(179.199219 0)"/>
       <use xlink:href="#DejaVuSans-30" transform="translate(242.822266 0)"/>
      </g>
     </g>
    </g>
    <g id="ytick_4">
     <g id="line2d_23">
      <path d="M 90 443.314608 
L 648 443.314608 
" clip-path="url(#pb08ceade15)" style="fill: none; stroke: #b0b0b0; stroke-width: 0.8; stroke-linecap: square"/>
     </g>
     <g id="line2d_24">
      <g>
       <use xlink:href="#m4d2efdf00e" x="90" y="443.314608" style="stroke: #000000; stroke-width: 0.8"/>
      </g>
     </g>
     <g id="text_13">
      <!-- −2.35 -->
      <g transform="translate(52.354687 447.113827) scale(0.1 -0.1)">
       <use xlink:href="#DejaVuSans-2212"/>
       <use xlink:href="#DejaVuSans-32" transform="translate(83.789062 0)"/>
       <use xlink:href="#DejaVuSans-2e" transform="translate(147.412109 0)"/>
       <use xlink:href="#DejaVuSans-33" transform="translate(179.199219 0)"/>
       <use xlink:href="#DejaVuSans-35" transform="translate(242.822266 0)"/>
      </g>
     </g>
    </g>
    <g id="ytick_5">
     <g id="line2d_25">
      <path d="M 90 371.435374 
L 648 371.435374 
" clip-path="url(#pb08ceade15)" style="fill: none; stroke: #b0b0b0; stroke-width: 0.8; stroke-linecap: square"/>
     </g>
     <g id="line2d_26">
      <g>
       <use xlink:href="#m4d2efdf00e" x="90" y="371.435374" style="stroke: #000000; stroke-width: 0.8"/>
      </g>
     </g>
     <g id="text_14">
      <!-- −2.30 -->
      <g transform="translate(52.354687 375.234593) scale(0.1 -0.1)">
       <use xlink:href="#DejaVuSans-2212"/>
       <use xlink:href="#DejaVuSans-32" transform="translate(83.789062 0)"/>
       <use xlink:href="#DejaVuSans-2e" transform="translate(147.412109 0)"/>
       <use xlink:href="#DejaVuSans-33" transform="translate(179.199219 0)"/>
       <use xlink:href="#DejaVuSans-30" transform="translate(242.822266 0)"/>
      </g>
     </g>
    </g>
    <g id="ytick_6">
     <g id="line2d_27">
      <path d="M 90 299.55614 
L 648 299.55614 
" clip-path="url(#pb08ceade15)" style="fill: none; stroke: #b0b0b0; stroke-width: 0.8; stroke-linecap: square"/>
     </g>
     <g id="line2d_28">
      <g>
       <use xlink:href="#m4d2efdf00e" x="90" y="299.55614" style="stroke: #000000; stroke-width: 0.8"/>
      </g>
     </g>
     <g id="text_15">
      <!-- −2.25 -->
      <g transform="translate(52.354687 303.355359) scale(0.1 -0.1)">
       <use xlink:href="#DejaVuSans-2212"/>
       <use xlink:href="#DejaVuSans-32" transform="translate(83.789062 0)"/>
       <use xlink:href="#DejaVuSans-2e" transform="translate(147.412109 0)"/>
       <use xlink:href="#DejaVuSans-32" transform="translate(179.199219 0)"/>
       <use xlink:href="#DejaVuSans-35" transform="translate(242.822266 0)"/>
      </g>
     </g>
    </g>
    <g id="ytick_7">
     <g id="line2d_29">
      <path d="M 90 227.676906 
L 648 227.676906 
" clip-path="url(#pb08ceade15)" style="fill: none; stroke: #b0b0b0; stroke-width: 0.8; stroke-linecap: square"/>
     </g>
     <g id="line2d_30">
      <g>
       <use xlink:href="#m4d2efdf00e" x="90" y="227.676906" style="stroke: #000000; stroke-width: 0.8"/>
      </g>
     </g>
     <g id="text_16">
      <!-- −2.20 -->
      <g transform="translate(52.354687 231.476125) scale(0.1 -0.1)">
       <use xlink:href="#DejaVuSans-2212"/>
       <use xlink:href="#DejaVuSans-32" transform="translate(83.789062 0)"/>
       <use xlink:href="#DejaVuSans-2e" transform="translate(147.412109 0)"/>
       <use xlink:href="#DejaVuSans-32" transform="translate(179.199219 0)"/>
       <use xlink:href="#DejaVuSans-30" transform="translate(242.822266 0)"/>
      </g>
     </g>
    </g>
    <g id="text_17">
     <!-- Latitude (°) -->
     <g transform="translate(46.275 464.889531) rotate(-90) scale(0.1 -0.1)">
      <defs>
       <path id="DejaVuSans-61" d="M 2194 1759 
Q 1497 1759 1228 1600 
Q 959 1441 959 1056 
Q 959 750 1161 570 
Q 1363 391 1709 391 
Q 2188 391 2477 730 
Q 2766 1069 2766 1631 
L 2766 1759 
L 2194 1759 
z
M 3341 1997 
L 3341 0 
L 2766 0 
L 2766 531 
Q 2569 213 2275 61 
Q 1981 -91 1556 -91 
Q 1019 -91 701 211 
Q 384 513 384 1019 
Q 384 1609 779 1909 
Q 1175 2209 1959 2209 
L 2766 2209 
L 2766 2266 
Q 2766 2663 2505 2880 
Q 2244 3097 1772 3097 
Q 1472 3097 1187 3025 
Q 903 2953 641 2809 
L 641 3341 
Q 956 3463 1253 3523 
Q 1550 3584 1831 3584 
Q 2591 3584 2966 3190 
Q 3341 2797 3341 1997 
z
" transform="scale(0.015625)"/>
      </defs>
      <use xlink:href="#DejaVuSans-4c"/>
      <use xlink:href="#DejaVuSans-61" transform="translate(55.712891 0)"/>
      <use xlink:href="#DejaVuSans-74" transform="translate(116.992188 0)"/>
      <use xlink:href="#DejaVuSans-69" transform="translate(156.201172 0)"/>
      <use xlink:href="#DejaVuSans-74" transform="translate(183.984375 0)"/>
      <use xlink:href="#DejaVuSans-75" transform="translate(223.193359 0)"/>
      <use xlink:href="#DejaVuSans-64" transform="translate(286.572266 0)"/>
      <use xlink:href="#DejaVuSans-65" transform="translate(350.048828 0)"/>
      <use xlink:href="#DejaVuSans-20" transform="translate(411.572266 0)"/>
      <use xlink:href="#DejaVuSans-28" transform="translate(443.359375 0)"/>
      <use xlink:href="#DejaVuSans-b0" transform="translate(482.373047 0)"/>
      <use xlink:href="#DejaVuSans-29" transform="translate(532.373047 0)"/>
     </g>
    </g>
   </g>
   <g id="patch_3">
    <path d="M 90 692.381435 
L 90 180.258565 
" style="fill: none; stroke: #000000; stroke-width: 0.8; stroke-linejoin: miter; stroke-linecap: square"/>
   </g>
   <g id="patch_4">
    <path d="M 648 692.381435 
L 648 180.258565 
" style="fill: none; stroke: #000000; stroke-width: 0.8; stroke-linejoin: miter; stroke-linecap: square"/>
   </g>
   <g id="patch_5">
    <path d="M 90 692.381435 
L 648 692.381435 
" style="fill: none; stroke: #000000; stroke-width: 0.8; stroke-linejoin: miter; stroke-linecap: square"/>
   </g>
   <g id="patch_6">
    <path d="M 90 180.258565 
L 648 180.258565 
" style="fill: none; stroke: #000000; stroke-width: 0.8; stroke-linejoin: miter; stroke-linecap: square"/>
   </g>
   <g id="legend_1">
    <g id="patch_7">
     <path d="M 279.8375 834.097884 
L 458.1625 834.097884 
Q 460.1625 834.097884 460.1625 832.097884 
L 460.1625 801.806009 
Q 460.1625 799.806009 458.1625 799.806009 
L 279.8375 799.806009 
Q 277.8375 799.806009 277.8375 801.806009 
L 277.8375 832.097884 
Q 277.8375 834.097884 279.8375 834.097884 
z
" style="fill: #ffffff; opacity: 0.8; stroke: #cccccc; stroke-linejoin: miter"/>
    </g>
    <g id="text_18">
     <!-- Legenda -->
     <g transform="translate(343.280625 812.924134) scale(0.12 -0.12)">
      <use xlink:href="#DejaVuSans-4c"/>
      <use xlink:href="#DejaVuSans-65" transform="translate(53.962891 0)"/>
      <use xlink:href="#DejaVuSans-67" transform="translate(115.486328 0)"/>
      <use xlink:href="#DejaVuSans-65" transform="translate(178.962891 0)"/>
      <use xlink:href="#DejaVuSans-6e" transform="translate(240.486328 0)"/>
      <use xlink:href="#DejaVuSans-64" transform="translate(303.865234 0)"/>
      <use xlink:href="#DejaVuSans-61" transform="translate(367.341797 0)"/>
     </g>
    </g>
    <g id="patch_8">
     <path d="M 281.8375 828.018196 
L 301.8375 828.018196 
L 301.8375 821.018196 
L 281.8375 821.018196 
L 281.8375 828.018196 
z
" style="fill: none; stroke: #000000; stroke-linejoin: miter"/>
    </g>
    <g id="text_19">
     <!-- Gleba Federal -->
     <g transform="translate(309.8375 828.018196) scale(0.1 -0.1)">
      <defs>
       <path id="DejaVuSans-47" d="M 3809 666 
L 3809 1919 
L 2778 1919 
L 2778 2438 
L 4434 2438 
L 4434 434 
Q 4069 175 3628 42 
Q 3188 -91 2688 -91 
Q 1594 -91 976 548 
Q 359 1188 359 2328 
Q 359 3472 976 4111 
Q 1594 4750 2688 4750 
Q 3144 4750 3555 4637 
Q 3966 4525 4313 4306 
L 4313 3634 
Q 3963 3931 3569 4081 
Q 3175 4231 2741 4231 
Q 1884 4231 1454 3753 
Q 1025 3275 1025 2328 
Q 1025 1384 1454 906 
Q 1884 428 2741 428 
Q 3075 428 3337 486 
Q 3600 544 3809 666 
z
" transform="scale(0.015625)"/>
       <path id="DejaVuSans-6c" d="M 603 4863 
L 1178 4863 
L 1178 0 
L 603 0 
L 603 4863 
z
" transform="scale(0.015625)"/>
       <path id="DejaVuSans-62" d="M 3116 1747 
Q 3116 2381 2855 2742 
Q 2594 3103 2138 3103 
Q 1681 3103 1420 2742 
Q 1159 2381 1159 1747 
Q 1159 1113 1420 752 
Q 1681 391 2138 391 
Q 2594 391 2855 752 
Q 3116 1113 3116 1747 
z
M 1159 2969 
Q 1341 3281 1617 3432 
Q 1894 3584 2278 3584 
Q 2916 3584 3314 3078 
Q 3713 2572 3713 1747 
Q 3713 922 3314 415 
Q 2916 -91 2278 -91 
Q 1894 -91 1617 61 
Q 1341 213 1159 525 
L 1159 0 
L 581 0 
L 581 4863 
L 1159 4863 
L 1159 2969 
z
" transform="scale(0.015625)"/>
       <path id="DejaVuSans-46" d="M 628 4666 
L 3309 4666 
L 3309 4134 
L 1259 4134 
L 1259 2759 
L 3109 2759 
L 3109 2228 
L 1259 2228 
L 1259 0 
L 628 0 
L 628 4666 
z
" transform="scale(0.015625)"/>
       <path id="DejaVuSans-72" d="M 2631 2963 
Q 2534 3019 2420 3045 
Q 2306 3072 2169 3072 
Q 1681 3072 1420 2755 
Q 1159 2438 1159 1844 
L 1159 0 
L 581 0 
L 581 3500 
L 1159 3500 
L 1159 2956 
Q 1341 3275 1631 3429 
Q 1922 3584 2338 3584 
Q 2397 3584 2469 3576 
Q 2541 3569 2628 3553 
L 2631 2963 
z
" transform="scale(0.015625)"/>
      </defs>
      <use xlink:href="#DejaVuSans-47"/>
      <use xlink:href="#DejaVuSans-6c" transform="translate(77.490234 0)"/>
      <use xlink:href="#DejaVuSans-65" transform="translate(105.273438 0)"/>
      <use xlink:href="#DejaVuSans-62" transform="translate(166.796875 0)"/>
      <use xlink:href="#DejaVuSans-61" transform="translate(230.273438 0)"/>
      <use xlink:href="#DejaVuSans-20" transform="translate(291.552734 0)"/>
      <use xlink:href="#DejaVuSans-46" transform="translate(323.339844 0)"/>
      <use xlink:href="#DejaVuSans-65" transform="translate(375.359375 0)"/>
      <use xlink:href="#DejaVuSans-64" transform="translate(436.882812 0)"/>
      <use xlink:href="#DejaVuSans-65" transform="translate(500.359375 0)"/>
      <use xlink:href="#DejaVuSans-72" transform="translate(561.882812 0)"/>
      <use xlink:href="#DejaVuSans-61" transform="translate(602.996094 0)"/>
      <use xlink:href="#DejaVuSans-6c" transform="translate(664.275391 0)"/>
     </g>
    </g>
    <g id="patch_9">
     <path d="M 399.045312 828.018196 
L 419.045312 828.018196 
L 419.045312 821.018196 
L 399.045312 821.018196 
z
" style="fill: #e0bd1f; opacity: 0.6"/>
    </g>
    <g id="text_20">
     <!-- SIGEF -->
     <g transform="translate(427.045312 828.018196) scale(0.1 -0.1)">
      <defs>
       <path id="DejaVuSans-53" d="M 3425 4513 
L 3425 3897 
Q 3066 4069 2747 4153 
Q 2428 4238 2131 4238 
Q 1616 4238 1336 4038 
Q 1056 3838 1056 3469 
Q 1056 3159 1242 3001 
Q 1428 2844 1947 2747 
L 2328 2669 
Q 3034 2534 3370 2195 
Q 3706 1856 3706 1288 
Q 3706 609 3251 259 
Q 2797 -91 1919 -91 
Q 1588 -91 1214 -16 
Q 841 59 441 206 
L 441 856 
Q 825 641 1194 531 
Q 1563 422 1919 422 
Q 2459 422 2753 634 
Q 3047 847 3047 1241 
Q 3047 1584 2836 1778 
Q 2625 1972 2144 2069 
L 1759 2144 
Q 1053 2284 737 2584 
Q 422 2884 422 3419 
Q 422 4038 858 4394 
Q 1294 4750 2059 4750 
Q 2388 4750 2728 4690 
Q 3069 4631 3425 4513 
z
" transform="scale(0.015625)"/>
       <path id="DejaVuSans-49" d="M 628 4666 
L 1259 4666 
L 1259 0 
L 628 0 
L 628 4666 
z
" transform="scale(0.015625)"/>
       <path id="DejaVuSans-45" d="M 628 4666 
L 3578 4666 
L 3578 4134 
L 1259 4134 
L 1259 2753 
L 3481 2753 
L 3481 2222 
L 1259 2222 
L 1259 531 
L 3634 531 
L 3634 0 
L 628 0 
L 628 4666 
z
" transform="scale(0.015625)"/>
      </defs>
      <use xlink:href="#DejaVuSans-53"/>
      <use xlink:href="#DejaVuSans-49" transform="translate(63.476562 0)"/>
      <use xlink:href="#DejaVuSans-47" transform="translate(92.96875 0)"/>
      <use xlink:href="#DejaVuSans-45" transform="translate(170.458984 0)"/>
      <use xlink:href="#DejaVuSans-46" transform="translate(233.642578 0)"/>
     </g>
    </g>
   </g>
  </g>
 </g>
 <defs>
  <clipPath id="pb08ceade15">
   <rect x="90" y="180.258565" width="558" height="512.12287"/>
  </clipPath>
 </defs>
</svg>
