<?xml version="1.0" encoding="utf-8" standalone="no"?>
<!DOCTYPE svg PUBLIC "-//W3C//DTD SVG 1.1//EN"
  "http://www.w3.org/Graphics/SVG/1.1/DTD/svg11.dtd">
<svg xmlns:xlink="http://www.w3.org/1999/xlink" width="720pt" height="864pt" viewBox="0 0 720 864" xmlns="http://www.w3.org/2000/svg" version="1.1">
 <metadata>
  <rdf:RDF xmlns:dc="http://purl.org/dc/elements/1.1/" xmlns:cc="http://creativecommons.org/ns#" xmlns:rdf="http://www.w3.org/1999/02/22-rdf-syntax-ns#">
   <cc:Work>
    <dc:type rdf:resource="http://purl.org/dc/dcmitype/StillImage"/>
    <dc:date>2025-06-16T16:58:30.990630</dc:date>
    <dc:format>image/svg+xml</dc:format>
    <dc:creator>
     <cc:Agent>
      <dc:title>Matplotlib v3.10.1, https://matplotlib.org/</dc:title>
     </cc:Agent>
    </dc:creator>
   </cc:Work>
  </rdf:RDF>
 </metadata>
 <defs>
  <style type="text/css">*{stroke-linejoin: round; stroke-linecap: butt}</style>
 </defs>
 <g id="figure_1">
  <g id="patch_1">
   <path d="M 0 864 
L 720 864 
L 720 0 
L 0 0 
z
" style="fill: #ffffff"/>
  </g>
  <g id="axes_1">
   <g id="patch_2">
    <path d="M 90 653.657486 
L 648 653.657486 
L 648 218.982514 
L 90 218.982514 
z
" style="fill: #ffffff"/>
   </g>
   <g id="PatchCollection_1">
    <path d="M 254.786642 468.052317 
L 253.530246 468.044737 
L 252.892384 468.034486 
L 252.255102 468.025209 
L 251.609101 468.014021 
L 250.966308 467.999199 
L 250.301128 467.987154 
L 249.6516 467.973966 
L 248.990444 467.964267 
L 248.272012 467.949178 
L 247.521654 467.933217 
L 246.766423 467.919706 
L 246.021301 467.906555 
L 245.288603 467.886146 
L 244.253438 467.883708 
L 241.282427 467.827745 
L 240.916379 467.822418 
L 240.552113 467.818261 
L 240.198136 467.81195 
L 238.11359 467.775695 
L 237.429843 467.764938 
L 237.086333 467.75986 
L 236.387381 467.75016 
L 235.023294 467.726608 
L 233.988503 467.711204 
L 233.330167 467.699761 
L 232.598346 467.68752 
L 231.905751 467.679625 
L 230.997361 467.675131 
L 229.338721 467.625472 
L 228.461702 467.647059 
L 227.521225 467.626068 
L 227.298092 467.636487 
L 226.482453 467.629352 
L 225.805674 467.616241 
L 224.238066 467.602809 
L 223.116578 467.589014 
L 220.059461 467.554919 
L 219.541063 467.55097 
L 219.396633 467.545415 
L 219.278049 467.546661 
L 218.802105 467.538634 
L 218.188764 467.532049 
L 217.862783 467.528518 
L 217.527159 467.525672 
L 217.192853 467.521275 
L 216.866541 467.499942 
L 216.252037 467.419082 
L 215.694336 467.350956 
L 215.299933 467.37629 
L 215.26761 467.372691 
L 215.175248 467.38677 
L 215.08163 467.410832 
L 214.320747 467.490356 
L 213.441543 467.482393 
L 212.668198 467.473639 
L 211.740776 467.462105 
L 211.040021 467.375668 
L 210.215657 467.229518 
L 209.465386 467.183145 
L 208.609331 467.017957 
L 207.695207 466.63923 
L 206.855834 466.290222 
L 206.414467 466.092785 
L 206.30349 466.046815 
L 206.046798 465.938147 
L 205.698359 465.79331 
L 205.291364 465.622461 
L 204.868307 465.444465 
L 204.490036 465.281384 
L 204.186754 465.084089 
L 203.977542 464.842112 
L 203.810158 464.542181 
L 203.627131 464.213153 
L 203.394023 463.904018 
L 203.116374 463.63959 
L 202.826746 463.438036 
L 202.508343 463.231433 
L 202.159196 463.003111 
L 201.776623 462.753323 
L 201.374285 462.487924 
L 200.957671 462.21597 
L 200.531476 461.936466 
L 200.102955 461.656265 
L 199.674237 461.374072 
L 199.240731 461.084355 
L 198.806504 460.799624 
L 198.369163 460.529387 
L 198.104435 460.323675 
L 197.713067 460.099416 
L 196.984156 459.619952 
L 196.167543 459.084842 
L 195.417528 458.591911 
L 194.743566 458.151719 
L 194.130926 457.750355 
L 193.312028 457.212803 
L 192.477949 456.666978 
L 192.012571 456.363627 
L 191.738714 456.182975 
L 191.662235 456.132143 
L 191.036369 455.821 
L 190.897736 455.779199 
L 190.319555 455.704887 
L 189.873638 455.697803 
L 189.102829 455.690596 
L 188.2283 455.680456 
L 187.479096 455.669948 
L 186.669585 455.656911 
L 185.934613 455.646714 
L 185.335248 455.638278 
L 184.932665 455.628572 
L 184.553218 455.625251 
L 184.37994 455.619808 
L 183.63582 455.60851 
L 182.820333 455.594634 
L 182.330582 455.5875 
L 181.303837 455.571729 
L 180.159793 455.553416 
L 178.961644 455.534128 
L 177.811347 455.504793 
L 177.035701 455.49429 
L 176.267481 455.486267 
L 175.515825 455.477305 
L 174.749643 455.468302 
L 174.057027 455.459569 
L 173.56291 455.451415 
L 172.969698 455.443478 
L 172.235937 455.43213 
L 171.452288 455.423544 
L 170.707989 455.413559 
L 169.980922 455.403315 
L 169.189871 455.394191 
L 168.402319 455.383651 
L 167.610504 455.373572 
L 166.845068 455.363773 
L 166.059032 455.352983 
L 165.269589 455.343529 
L 164.496155 455.333991 
L 163.706727 455.325534 
L 162.914086 455.315673 
L 162.123063 455.306609 
L 161.330621 455.299102 
L 160.595576 455.291171 
L 159.859793 455.282878 
L 159.019897 455.269797 
L 158.155205 455.25428 
L 157.614404 455.223052 
L 157.248074 455.179135 
L 156.895706 455.117597 
L 156.694495 455.122685 
L 156.359617 455.171753 
L 156.071091 455.215089 
L 155.811689 455.231448 
L 155.286753 455.226661 
L 154.513303 455.219273 
L 153.710728 455.210495 
L 152.910486 455.201304 
L 152.08083 455.190885 
L 151.204364 455.179406 
L 150.483529 455.169667 
L 149.756963 455.162036 
L 149.073263 455.154656 
L 148.328726 455.146368 
L 147.566617 455.138436 
L 146.800892 455.129448 
L 145.945724 455.11864 
L 145.051156 455.108328 
L 144.105566 455.097294 
L 143.164579 455.084784 
L 142.222329 455.07257 
L 139.4453 455.042542 
L 138.562066 455.032303 
L 138.01726 455.016686 
L 137.969894 455.016144 
L 137.844322 455.015048 
L 137.654151 455.012894 
L 137.432595 455.010533 
L 137.19319 455.007681 
L 136.945229 455.005013 
L 136.693783 455.002044 
L 136.43938 454.999152 
L 136.17942 454.996429 
L 135.916575 454.993446 
L 135.656523 454.9905 
L 135.497781 454.990653 
L 135.314188 454.987107 
L 135.070742 454.984415 
L 134.806869 454.981671 
L 134.565715 454.978638 
L 134.336598 454.975624 
L 134.105813 454.972683 
L 133.866758 454.969205 
L 133.627194 454.961662 
L 133.374594 454.943304 
L 133.2701 454.947599 
L 133.147101 454.917793 
L 133.045771 454.918449 
L 132.939525 454.887116 
L 132.831301 454.885777 
L 132.653417 454.851811 
L 132.497293 454.82826 
L 132.350448 454.773651 
L 132.328809 454.78109 
L 132.313144 454.769111 
L 132.258063 454.767647 
L 132.255219 454.761713 
L 132.098014 454.7313 
L 132.071665 454.736361 
L 131.968659 454.707538 
L 131.871645 454.703048 
L 131.776309 454.671155 
L 131.60678 454.653479 
L 131.553075 454.628915 
L 131.296676 454.597595 
L 131.030155 454.535187 
L 130.974115 454.539689 
L 130.780699 454.491241 
L 130.672819 454.487093 
L 130.523988 454.446115 
L 130.374659 454.435064 
L 130.262701 454.40032 
L 130.092549 454.383682 
L 129.994142 454.350987 
L 129.823349 454.332525 
L 129.718883 454.298954 
L 129.563653 454.283045 
L 129.444413 454.246183 
L 129.303343 454.23329 
L 129.177186 454.194768 
L 129.057167 454.185976 
L 128.908541 454.142494 
L 128.831628 454.145099 
L 128.684481 454.098098 
L 128.632571 454.104457 
L 128.449294 454.052423 
L 128.426487 454.063586 
L 128.231673 454.01397 
L 128.192998 454.019553 
L 127.996879 453.968743 
L 127.899997 453.964185 
L 127.747769 453.92255 
L 127.588932 453.904503 
L 127.491822 453.871867 
L 127.282008 453.844754 
L 127.252082 453.825656 
L 126.984653 453.774576 
L 126.928965 453.777161 
L 126.789541 453.7371 
L 126.606634 453.71614 
L 126.381489 453.657049 
L 126.270468 453.650658 
L 126.169333 453.617691 
L 125.930685 453.586635 
L 125.706953 453.528357 
L 125.589012 453.519448 
L 125.474995 453.484053 
L 125.294881 453.460596 
L 125.286094 453.448173 
L 125.005375 453.39543 
L 124.902769 453.392558 
L 124.79232 453.35901 
L 124.556556 453.334712 
L 124.341023 453.279787 
L 124.220178 453.273542 
L 124.185207 453.254443 
L 124.059874 453.233316 
L 123.858548 453.197866 
L 123.836336 453.206498 
L 123.748597 453.177268 
L 123.699674 453.170378 
L 123.510952 453.152563 
L 123.182015 453.09312 
L 122.871183 453.037764 
L 122.585921 452.98394 
L 122.317278 452.935579 
L 122.018737 452.876839 
L 121.681988 452.815867 
L 121.345551 452.754049 
L 121.005849 452.690834 
L 120.662392 452.627577 
L 120.315318 452.56366 
L 119.974819 452.50065 
L 119.644744 452.440627 
L 119.318463 452.380216 
L 118.998087 452.320217 
L 118.687422 452.263427 
L 118.399795 452.210054 
L 118.12277 452.158357 
L 117.855775 452.109439 
L 117.603203 452.062556 
L 117.354233 452.016871 
L 117.163509 452.012155 
L 116.876559 451.980416 
L 116.879128 451.796426 
L 116.691202 451.52613 
L 116.379788 451.172233 
L 116.19001 450.76154 
L 116.021715 450.348545 
L 115.896746 450.075597 
L 115.882389 449.610389 
L 115.882011 449.121217 
L 115.881785 448.478463 
L 116.029586 448.233624 
L 116.145486 448.185936 
L 116.280744 448.187711 
L 116.572453 448.303487 
L 116.660588 448.276805 
L 116.747757 448.134522 
L 116.752509 447.827491 
L 116.743385 447.671095 
L 116.591212 447.244137 
L 116.337256 446.732333 
L 116.17503 446.507579 
L 116.097905 446.466292 
L 115.764192 446.517068 
L 115.665126 446.550392 
L 115.505523 446.435755 
L 115.4058 446.296964 
L 115.363636 446.128702 
L 115.419888 446.016611 
L 115.44481 445.996981 
L 115.530037 446.031048 
L 115.642875 446.0219 
L 115.722411 445.936492 
L 115.772912 445.712783 
L 115.783456 445.616934 
L 115.836771 445.534925 
L 116.054368 445.420879 
L 116.219342 445.184897 
L 116.355074 444.951243 
L 116.438063 444.84242 
L 116.487804 444.715769 
L 116.55167 444.604447 
L 116.64348 444.533049 
L 116.7503 444.468941 
L 116.767229 444.342253 
L 116.73497 444.226571 
L 116.689557 444.111389 
L 116.709124 444.033408 
L 116.805321 444.007817 
L 116.925102 443.9863 
L 116.999958 443.885224 
L 117.006695 443.75645 
L 116.918582 443.591296 
L 116.899222 443.371708 
L 116.935521 443.302666 
L 117.028457 443.280531 
L 117.119041 443.217983 
L 117.105626 443.1012 
L 117.097473 443.07428 
L 117.160258 443.020753 
L 117.240203 443.029073 
L 117.331819 443.017719 
L 117.388196 442.956809 
L 117.396985 442.875516 
L 117.404974 442.692658 
L 117.417007 442.615556 
L 117.431155 442.600602 
L 117.452205 442.597824 
L 117.604344 442.700024 
L 117.81141 442.744789 
L 117.777647 442.676415 
L 117.790168 442.570445 
L 117.862552 442.483384 
L 117.872449 442.483687 
L 117.911171 442.543229 
L 117.9504 442.636049 
L 118.081796 442.60264 
L 118.22826 442.403319 
L 118.298154 442.177005 
L 118.249789 442.0841 
L 118.165201 442.045491 
L 118.0628 442.037449 
L 118.031327 441.950863 
L 117.979855 441.864566 
L 117.996172 441.796268 
L 118.090131 441.672676 
L 118.156219 441.472943 
L 118.267913 441.268486 
L 118.329395 441.136704 
L 118.345546 441.130262 
L 118.451552 441.179897 
L 118.540156 441.306788 
L 118.962463 441.268854 
L 119.09804 441.096928 
L 119.164184 440.974418 
L 119.227798 440.890741 
L 119.217303 440.807142 
L 119.170493 440.733987 
L 119.119354 440.654022 
L 119.037694 440.629146 
L 118.904751 440.707674 
L 118.89147 440.690518 
L 118.838625 440.508364 
L 118.703713 440.289083 
L 118.45424 440.166372 
L 118.379507 440.418882 
L 118.226555 440.496945 
L 118.170838 440.485544 
L 118.244446 440.227992 
L 118.233164 440.091122 
L 118.072383 439.848759 
L 117.902416 439.60833 
L 117.837588 439.584502 
L 117.632114 439.726632 
L 117.595657 439.728134 
L 117.3659 439.56684 
L 117.157478 439.362438 
L 117.141353 439.257153 
L 117.219042 439.252108 
L 117.342672 439.320399 
L 117.408731 439.325452 
L 117.526255 439.241354 
L 117.540567 438.963567 
L 117.411526 438.431628 
L 117.369844 438.292804 
L 117.240194 438.217334 
L 117.0089 438.015442 
L 116.877432 437.710568 
L 116.949911 437.387068 
L 117.048573 437.112591 
L 117.033128 436.799498 
L 116.994981 436.440814 
L 117.103879 436.125417 
L 117.216091 435.963023 
L 117.458141 435.715066 
L 117.724379 435.629859 
L 118.054618 435.645924 
L 118.372342 435.763252 
L 118.656912 435.957734 
L 118.892825 436.212073 
L 119.137477 436.455931 
L 119.338068 436.73852 
L 119.534485 437.030966 
L 119.721625 437.32591 
L 119.912507 437.606932 
L 120.103236 437.922152 
L 120.380982 438.146422 
L 120.754288 438.276458 
L 121.054583 438.370642 
L 121.310262 438.498371 
L 121.57515 438.727065 
L 121.792162 438.938902 
L 121.875609 438.960123 
L 122.170697 438.95034 
L 122.383673 438.741065 
L 122.511752 438.578255 
L 122.560938 438.567916 
L 122.823679 438.643503 
L 123.073439 438.73344 
L 123.357092 438.916386 
L 123.582456 439.083408 
L 123.843905 438.986917 
L 124.059593 438.72154 
L 124.175637 438.474707 
L 124.393829 438.069447 
L 124.753936 437.744226 
L 125.08227 437.281446 
L 125.459385 436.8289 
L 125.895727 436.38217 
L 126.283445 435.950384 
L 126.877869 435.56249 
L 127.106957 435.262153 
L 127.286652 434.92959 
L 127.39291 434.659745 
L 127.453555 434.396531 
L 127.503387 434.127531 
L 127.614042 433.813854 
L 127.73843 433.610192 
L 127.790754 433.562436 
L 128.039769 433.407256 
L 128.382531 433.303673 
L 128.711883 433.186846 
L 128.903848 433.096335 
L 129.119379 432.990101 
L 129.391317 432.831449 
L 129.710155 432.67284 
L 130.019937 432.561828 
L 130.212593 432.519981 
L 130.417507 432.512389 
L 130.812545 432.507695 
L 131.065333 432.517878 
L 131.286955 432.613729 
L 131.495333 432.734608 
L 131.626511 432.831047 
L 131.902482 432.932374 
L 132.206093 432.834425 
L 132.435636 432.649804 
L 132.548913 432.374098 
L 132.480482 432.008955 
L 132.402785 431.808943 
L 132.347217 431.555332 
L 132.344301 431.414989 
L 132.362838 431.200773 
L 132.396448 430.993579 
L 132.376299 430.767174 
L 132.287542 430.572991 
L 132.133431 430.463362 
L 132.120241 430.361397 
L 132.157043 430.194417 
L 132.236358 430.03205 
L 132.312114 429.869572 
L 132.381982 429.786713 
L 132.913932 429.5279 
L 134.756748 429.093804 
L 135.029446 428.84549 
L 135.356897 428.63189 
L 135.80409 428.452756 
L 136.204923 428.318341 
L 136.58907 428.286874 
L 136.948677 428.392406 
L 137.280704 428.663035 
L 137.571043 428.55034 
L 137.732551 428.203797 
L 137.716041 427.837828 
L 137.80319 427.453749 
L 137.917264 427.07148 
L 138.061226 426.691391 
L 138.328259 426.445343 
L 138.90507 426.525884 
L 139.064745 426.489314 
L 139.374136 426.424482 
L 139.510003 426.432203 
L 139.693456 426.626061 
L 139.718014 426.907141 
L 139.749825 427.238414 
L 139.920653 427.465443 
L 140.025969 427.502185 
L 140.120823 427.496168 
L 140.3552 427.400459 
L 140.55971 427.281913 
L 140.774483 426.974954 
L 140.973147 426.619361 
L 141.111261 426.252126 
L 141.135618 425.863163 
L 141.308476 425.541636 
L 141.447911 425.273275 
L 141.628027 425.16905 
L 141.7772 425.141705 
L 142.126643 425.059738 
L 142.410162 424.846914 
L 142.483516 424.862344 
L 142.573338 425.13595 
L 142.823567 425.432908 
L 143.200565 425.593739 
L 143.498324 425.719662 
L 143.811274 425.773871 
L 144.129546 425.754111 
L 144.286558 425.733065 
L 144.443297 425.68725 
L 144.798291 425.492252 
L 145.137239 425.279243 
L 145.441335 425.089919 
L 145.771479 424.951123 
L 145.871596 424.76491 
L 145.920201 424.494197 
L 145.994428 424.283206 
L 146.093447 424.06427 
L 145.90987 423.947214 
L 145.883217 423.862507 
L 146.050545 423.728972 
L 146.339609 423.580711 
L 146.700233 423.470157 
L 146.934759 423.34046 
L 147.235337 423.23495 
L 147.370891 423.020723 
L 147.431637 422.781183 
L 147.367702 422.665558 
L 147.19736 422.630393 
L 147.127513 422.687217 
L 146.83466 422.698307 
L 146.553324 422.751945 
L 146.403058 422.634302 
L 146.380818 422.417621 
L 146.532135 422.129739 
L 146.724747 421.939869 
L 146.967752 421.776461 
L 147.081719 421.785684 
L 147.273879 421.955743 
L 147.429799 421.951854 
L 147.675296 421.840674 
L 147.805261 421.730566 
L 147.932518 421.660739 
L 148.535962 421.320044 
L 148.71453 421.062533 
L 148.9381 420.835709 
L 149.102426 420.654333 
L 148.995467 420.45876 
L 149.04355 420.399895 
L 149.255954 420.356187 
L 149.386216 420.421977 
L 149.57302 420.586252 
L 149.742412 420.821989 
L 149.729098 421.039628 
L 149.613694 421.236059 
L 149.467235 421.474064 
L 149.337279 421.732354 
L 149.499433 421.864918 
L 149.763806 421.987845 
L 149.983858 422.176967 
L 150.110446 422.168737 
L 150.168852 422.040016 
L 150.120908 421.698507 
L 150.102939 421.422291 
L 150.12373 421.131226 
L 150.182212 420.856132 
L 150.276621 420.605738 
L 150.420093 420.357108 
L 150.611726 420.113981 
L 150.816277 419.919776 
L 150.869428 419.81175 
L 150.872164 419.74435 
L 150.829387 419.632724 
L 150.688921 419.460008 
L 150.62269 419.325208 
L 150.633254 419.287283 
L 150.699963 419.200306 
L 150.927843 418.945816 
L 151.190298 418.734066 
L 151.344309 418.659645 
L 151.384234 418.658015 
L 151.512983 418.737076 
L 151.579903 418.886156 
L 151.849047 419.186692 
L 152.023747 419.353197 
L 152.227078 419.430507 
L 152.52239 419.413939 
L 152.816235 419.369581 
L 153.095662 419.225487 
L 153.287605 419.056905 
L 153.499404 418.91068 
L 153.701487 418.779238 
L 153.902319 418.605918 
L 154.088713 418.456007 
L 154.304341 418.261545 
L 154.396435 418.230679 
L 154.489417 418.243294 
L 154.575778 418.361932 
L 154.584457 418.54687 
L 154.543943 418.741674 
L 154.639862 418.904622 
L 154.697518 418.908527 
L 154.779971 418.86803 
L 154.822587 418.857013 
L 154.920351 418.843826 
L 155.093877 418.669943 
L 155.132743 418.605493 
L 155.185559 418.585159 
L 155.256787 418.612797 
L 155.332357 418.663298 
L 155.437256 418.68849 
L 155.546466 418.675694 
L 155.634169 418.662805 
L 155.687008 418.695056 
L 155.699544 418.765931 
L 155.688601 418.843888 
L 155.683381 418.899607 
L 155.74053 418.921025 
L 155.822115 418.847341 
L 155.883964 418.790443 
L 155.974276 418.784717 
L 156.069732 418.781512 
L 156.10549 418.730687 
L 156.052549 418.594636 
L 156.035371 418.516837 
L 156.043473 418.514109 
L 156.06178 418.511333 
L 156.164998 418.573742 
L 156.250341 418.586138 
L 156.290195 418.533982 
L 156.306523 418.413867 
L 156.317825 418.386995 
L 156.350925 418.390934 
L 156.399163 418.465137 
L 156.451832 418.543709 
L 156.602742 418.704897 
L 241.4079 360.234664 
L 153.91761 334.232003 
L 193.700327 307.03632 
L 153.79021 298.404632 
L 153.338307 246.194591 
L 153.361843 246.094379 
L 153.667007 242.263137 
L 208.694101 242.197672 
L 209.925232 246.035755 
L 210.46259 245.932163 
L 212.612048 245.352213 
L 212.758093 245.337063 
L 214.411531 244.86867 
L 215.637102 244.599144 
L 217.755577 244.006408 
L 218.33462 244.532498 
L 218.563011 244.783514 
L 218.721682 245.040517 
L 219.403912 245.442399 
L 220.64394 245.151002 
L 221.033031 244.978612 
L 221.419416 244.76156 
L 221.802558 244.662351 
L 225.772094 244.324266 
L 226.32689 244.231933 
L 226.885871 243.88742 
L 226.329156 242.899506 
L 226.420578 242.844277 
L 227.186081 242.172721 
L 306.066408 242.049619 
L 318.540188 241.849415 
L 335.785152 284.796679 
L 335.967259 372.28779 
L 335.95581 388.94607 
L 335.564465 391.944542 
L 335.550006 392.562669 
L 335.555038 393.324003 
L 335.562437 394.168963 
L 335.560264 395.000952 
L 335.552549 395.735504 
L 335.542207 396.624263 
L 335.530527 397.520442 
L 335.522573 398.083034 
L 335.509425 398.951994 
L 335.508682 399.535259 
L 335.503125 400.122742 
L 335.496101 400.807128 
L 335.48715 401.633452 
L 335.476917 402.447092 
L 335.521325 403.424873 
L 335.498199 404.428512 
L 335.486258 405.281471 
L 335.470767 406.171407 
L 335.460127 407.071933 
L 335.451671 407.942925 
L 335.439544 408.802983 
L 335.37214 409.236533 
L 335.426616 409.683146 
L 335.322962 410.056204 
L 335.399773 410.749637 
L 335.446213 411.199955 
L 335.480334 411.886436 
L 335.46296 412.860133 
L 335.459833 413.361216 
L 335.455286 414.111149 
L 335.438142 414.855735 
L 335.426646 415.76056 
L 335.424553 416.302722 
L 335.522764 416.838416 
L 335.65785 417.326298 
L 335.562983 418.041481 
L 335.459441 418.728593 
L 335.416665 419.540208 
L 335.416026 420.387945 
L 335.407416 421.243358 
L 335.373493 425.075709 
L 335.355213 425.758119 
L 335.31563 426.53751 
L 335.339008 427.577282 
L 335.34215 427.850593 
L 335.352011 428.660716 
L 335.352765 429.383743 
L 335.366565 430.152978 
L 335.365862 430.979319 
L 335.368244 431.774281 
L 335.375405 432.535667 
L 335.383542 433.166237 
L 335.413761 433.407196 
L 335.433065 433.783955 
L 335.417506 434.168615 
L 335.409138 434.558854 
L 335.408182 434.948688 
L 335.417585 435.323726 
L 335.43914 435.422812 
L 335.65418 435.546825 
L 336.003073 435.745962 
L 336.239413 436.011007 
L 336.458609 436.247467 
L 336.59066 436.492372 
L 336.505935 436.702149 
L 336.279536 436.889686 
L 336.035416 437.096943 
L 335.965967 437.256401 
L 335.827657 437.524066 
L 335.710503 437.745038 
L 335.614111 437.945227 
L 335.407379 438.331629 
L 335.393802 438.371606 
L 335.371032 438.662472 
L 335.384553 439.283243 
L 335.370451 439.570908 
L 335.373617 439.89716 
L 335.370192 440.073073 
L 335.369469 440.336157 
L 335.371663 440.58446 
L 335.361001 440.885761 
L 335.365273 441.209405 
L 335.44345 441.480838 
L 335.630148 441.57015 
L 335.796253 441.477951 
L 335.965122 441.433676 
L 336.029034 441.475682 
L 336.072638 441.545268 
L 336.099595 441.755879 
L 336.070735 442.0216 
L 335.957016 442.250877 
L 335.765766 442.42863 
L 335.626039 442.680953 
L 335.544807 442.9315 
L 335.468345 443.11128 
L 335.355386 443.328991 
L 335.330306 443.464257 
L 335.330587 443.71095 
L 335.29559 443.819374 
L 335.112747 444.07265 
L 335.014373 444.273807 
L 335.01356 444.514256 
L 335.066128 444.681986 
L 335.096451 444.768976 
L 335.18782 444.980644 
L 335.293591 445.236942 
L 335.363734 445.51673 
L 335.361031 445.928301 
L 335.358254 446.204601 
L 335.361069 446.510532 
L 335.358565 446.870637 
L 335.348854 447.130695 
L 335.349774 447.388341 
L 335.338245 447.670289 
L 335.099367 448.037209 
L 335.318056 448.424258 
L 335.335323 448.751812 
L 335.342573 449.09081 
L 335.346536 449.412133 
L 335.34033 449.742746 
L 335.249681 450.580659 
L 335.247335 450.607195 
L 335.234283 451.171437 
L 335.237386 451.654172 
L 335.299675 452.058483 
L 335.326391 453.100248 
L 335.334398 453.740344 
L 335.338594 454.363343 
L 335.343627 454.805383 
L 335.345122 455.367011 
L 335.34079 455.810341 
L 335.34417 456.245315 
L 335.352332 456.659726 
L 335.34067 457.066907 
L 335.33759 457.468321 
L 335.335878 457.897267 
L 335.335729 458.300447 
L 335.318333 458.631131 
L 335.314123 458.889772 
L 335.300299 459.216436 
L 335.303001 459.57119 
L 335.289778 460.462952 
L 335.285759 460.691209 
L 335.280194 460.884802 
L 335.277597 461.099564 
L 335.271506 461.380335 
L 335.263583 461.850929 
L 335.272206 462.149957 
L 335.284914 462.56059 
L 335.287578 462.850095 
L 335.287842 463.162258 
L 335.284317 463.428332 
L 335.286548 463.690951 
L 334.250343 463.472513 
L 333.78802 463.369392 
L 333.235765 463.232716 
L 332.650991 463.101965 
L 332.081661 462.974136 
L 331.506262 462.846923 
L 330.920927 462.71549 
L 330.328914 462.582542 
L 329.756261 462.459142 
L 329.220125 462.351878 
L 328.524876 462.217513 
L 328.06403 462.22669 
L 327.564641 462.381 
L 327.063411 462.631659 
L 326.593492 462.869228 
L 326.101365 463.119321 
L 325.513248 463.419548 
L 324.94841 463.705742 
L 324.421745 463.971709 
L 323.891641 464.239685 
L 323.342115 464.520488 
L 322.822511 464.783321 
L 322.430637 464.980903 
L 322.072349 465.163629 
L 321.554294 465.424493 
L 321.099216 465.653785 
L 320.571712 465.913449 
L 320.060876 466.156114 
L 319.989765 466.161103 
L 319.887273 466.212841 
L 319.683431 466.317052 
L 319.431775 466.383663 
L 319.090663 466.406525 
L 318.727229 466.422192 
L 318.377588 466.435718 
L 318.036932 466.447028 
L 317.699454 466.46275 
L 317.361991 466.477934 
L 317.010308 466.488209 
L 316.654698 466.500556 
L 316.292387 466.513681 
L 315.924674 466.52389 
L 315.529465 466.538388 
L 315.133473 466.553375 
L 314.776578 466.564331 
L 314.428049 466.575524 
L 314.095762 466.570222 
L 313.943895 466.540003 
L 313.63823 466.423472 
L 313.386997 466.273015 
L 313.134605 466.115478 
L 312.873269 465.948538 
L 312.623121 465.791073 
L 312.431755 465.674739 
L 312.174578 465.515458 
L 311.889216 465.327866 
L 311.624509 465.140999 
L 311.437067 464.993748 
L 311.244018 464.845116 
L 311.01953 464.703082 
L 310.863314 464.606406 
L 310.639203 464.46772 
L 310.419745 464.332379 
L 310.236598 464.22054 
L 310.062144 464.113449 
L 309.873289 463.998612 
L 309.616028 463.84249 
L 309.345083 463.675906 
L 309.084679 463.515625 
L 308.818278 463.352106 
L 308.538483 463.181763 
L 308.233157 462.993119 
L 307.916404 462.796333 
L 307.606643 462.603212 
L 307.347464 462.425701 
L 307.233067 462.215094 
L 307.164185 461.95203 
L 307.017565 461.831152 
L 306.847579 461.793957 
L 306.540921 461.774139 
L 306.22717 461.756069 
L 305.962063 461.741726 
L 305.740618 461.725506 
L 305.407528 461.698858 
L 305.03633 461.673203 
L 304.659171 461.644654 
L 304.329363 461.638897 
L 304.053021 461.643327 
L 303.766519 461.66935 
L 303.404394 461.691779 
L 303.042357 461.735241 
L 302.663406 461.798146 
L 302.268183 461.875322 
L 301.877576 461.972299 
L 301.50512 462.086184 
L 301.168794 462.20021 
L 300.833619 462.321063 
L 300.486649 462.44653 
L 300.149963 462.590382 
L 299.845442 462.77905 
L 299.570163 463.002828 
L 299.332771 463.202066 
L 299.07655 463.376177 
L 298.75227 463.522211 
L 298.391626 463.659205 
L 298.01014 463.804634 
L 297.658919 463.93745 
L 297.321291 464.065719 
L 296.978396 464.195315 
L 296.654659 464.314903 
L 296.311173 464.421929 
L 295.92897 464.531496 
L 295.522611 464.651204 
L 295.156039 464.757291 
L 294.815489 464.855419 
L 294.478501 464.947131 
L 293.782323 465.067749 
L 293.420282 465.214261 
L 293.317762 465.283976 
L 292.895341 465.602412 
L 292.256445 466.072792 
L 291.446233 466.496383 
L 290.612667 466.794236 
L 289.76726 467.108138 
L 289.526085 467.152194 
L 289.294561 467.136763 
L 288.848391 466.938286 
L 287.990006 466.376576 
L 287.055493 465.767066 
L 286.257272 465.242825 
L 285.955766 465.089717 
L 285.626325 465.022279 
L 284.677175 464.949862 
L 283.407004 464.854313 
L 282.172559 464.763211 
L 280.901319 464.663885 
L 280.579406 464.685555 
L 279.349098 464.864769 
L 278.458944 464.988326 
L 278.181487 465.002252 
L 277.62303 464.926579 
L 276.753935 464.749733 
L 275.888806 464.572742 
L 275.040264 464.398408 
L 274.159721 464.217639 
L 273.538364 464.089083 
L 272.990467 463.971977 
L 272.552142 463.95173 
L 272.061852 464.007125 
L 271.540292 464.135586 
L 270.742478 464.3348 
L 269.598209 464.623906 
L 269.308995 464.689051 
L 269.02071 464.713077 
L 268.733259 464.691821 
L 268.152595 464.5648 
L 267.850936 464.502283 
L 267.534741 464.531959 
L 267.251005 464.707752 
L 266.598031 465.319901 
L 265.758281 465.520458 
L 263.876726 465.912573 
L 262.359592 466.315166 
L 261.673852 466.474927 
L 260.274085 466.798134 
L 259.007337 467.098606 
L 257.748502 467.397035 
L 256.545229 467.677638 
L 255.078131 468.017032 
L 254.786642 468.052317 
" clip-path="url(#pad2fd6cc16)" style="fill: #e0bd1f; stroke: #0000ff; stroke-width: 0.5"/>
    <path d="M 506.213148 526.913421 
L 510.036513 528.077856 
L 508.563758 533.900948 
L 508.052445 535.520917 
L 506.844288 540.203184 
L 506.353732 541.953978 
L 508.031971 542.419754 
L 509.983104 542.93184 
L 511.294163 537.005827 
L 515.014807 538.073188 
L 515.326674 538.047188 
L 513.261111 546.074889 
L 508.597836 544.266541 
L 502.162944 541.762417 
L 502.850846 539.322301 
L 504.216659 534.45027 
L 504.980395 531.726869 
L 506.213148 526.913421 
" clip-path="url(#pad2fd6cc16)" style="fill: #e0bd1f; stroke: #0000ff; stroke-width: 0.5"/>
    <path d="M 511.625571 528.555134 
L 515.360689 529.716731 
L 517.265415 530.334007 
L 515.326674 538.047188 
L 515.014783 538.073176 
L 511.294155 537.005819 
L 509.9831 542.931828 
L 508.031967 542.419742 
L 506.353732 541.953966 
L 506.844284 540.203176 
L 508.052433 535.520901 
L 508.563758 533.900944 
L 510.036505 528.077856 
L 511.625571 528.555134 
" clip-path="url(#pad2fd6cc16)" style="fill: #e0bd1f; stroke: #0000ff; stroke-width: 0.5"/>
    <path d="M 517.265413 530.334006 
L 526.771979 533.460253 
L 529.934513 534.548033 
L 533.434807 535.615978 
L 535.25559 536.302493 
L 536.013842 536.651974 
L 539.708741 538.221237 
L 546.727539 540.790939 
L 550.387361 542.136868 
L 553.145385 542.8716 
L 553.138802 543.6525 
L 553.11463 547.859521 
L 553.080026 550.824628 
L 553.078884 553.224592 
L 553.109436 554.657962 
L 553.183677 555.917586 
L 553.735771 557.835223 
L 554.030631 558.711626 
L 554.393149 560.113268 
L 551.670838 561.168465 
L 550.414653 561.854044 
L 548.576346 562.989977 
L 547.155922 565.673952 
L 544.041387 564.518777 
L 542.091142 563.815023 
L 539.373675 562.785105 
L 537.215102 561.936162 
L 534.989275 561.094394 
L 532.91873 560.378247 
L 531.215788 559.822887 
L 528.854995 559.056484 
L 527.57004 558.619415 
L 525.973908 558.051916 
L 524.055713 557.334678 
L 521.803357 556.457991 
L 520.55187 556.083149 
L 519.282163 555.526393 
L 516.757808 554.777372 
L 512.621503 553.305181 
L 511.794089 553.379874 
L 511.52304 553.126607 
L 512.830243 547.749432 
L 515.326675 538.047188 
L 517.265413 530.334006 
" clip-path="url(#pad2fd6cc16)" style="fill: #e0bd1f; stroke: #0000ff; stroke-width: 0.5"/>
    <path d="M 548.062844 491.07613 
L 563.722734 494.933541 
L 567.827036 494.122299 
L 564.449796 504.828786 
L 560.21674 518.001032 
L 554.506364 516.788046 
L 541.651863 514.090756 
L 542.903096 508.723091 
L 543.223841 505.09231 
L 545.037486 501.665633 
L 545.850522 498.756127 
L 548.062844 491.07613 
" clip-path="url(#pad2fd6cc16)" style="fill: #e0bd1f; stroke: #0000ff; stroke-width: 0.5"/>
    <path d="M 563.507596 454.081583 
L 570.615726 457.956389 
L 570.80373 458.062615 
L 572.740873 459.116611 
L 572.198298 460.518483 
L 571.167812 463.18047 
L 569.188807 468.359526 
L 564.997478 467.23868 
L 563.05663 466.862877 
L 563.057368 466.839935 
L 563.015647 466.831922 
L 559.646913 466.25923 
L 560.635621 463.510861 
L 562.039409 459.734433 
L 563.084769 455.522026 
L 563.271305 454.729612 
L 563.507596 454.081583 
" clip-path="url(#pad2fd6cc16)" style="fill: #e0bd1f; stroke: #0000ff; stroke-width: 0.5"/>
    <path d="M 583.772197 457.183861 
L 583.270035 457.02581 
L 576.212506 454.756274 
L 571.500291 453.636327 
L 567.110533 452.735994 
L 567.480627 452.162332 
L 568.561882 451.984558 
L 568.469586 451.782746 
L 568.824822 451.645211 
L 569.196821 451.70222 
L 569.72673 451.912541 
L 570.014883 451.889418 
L 570.268124 451.887133 
L 570.635591 451.821986 
L 570.858966 451.752356 
L 571.120581 451.72689 
L 571.405938 451.67743 
L 571.607415 451.586868 
L 571.85243 451.530339 
L 572.14364 451.438914 
L 572.352892 451.275533 
L 572.507953 451.145305 
L 572.665903 451.017935 
L 572.843562 450.89854 
L 573.034358 450.802695 
L 573.20784 450.597143 
L 573.280065 450.375649 
L 573.29522 450.222547 
L 573.367502 450.168119 
L 573.39067 450.03936 
L 573.410751 449.927756 
L 573.415976 449.80612 
L 573.490612 449.725559 
L 573.538017 449.624229 
L 573.590218 449.567295 
L 573.61531 449.489882 
L 573.727263 449.402053 
L 573.849281 449.292359 
L 573.96807 449.226701 
L 574.056028 449.19101 
L 574.085036 449.198781 
L 580.629202 451.440673 
L 585.169545 453.226864 
L 583.772197 457.183861 
" clip-path="url(#pad2fd6cc16)" style="fill: #e0bd1f; stroke: #0000ff; stroke-width: 0.5"/>
    <path d="M 583.824689 578.186749 
L 588.48352 579.923007 
L 590.024988 580.445973 
L 590.802608 580.696645 
L 593.667805 581.62251 
L 602.062599 584.455546 
L 602.873505 584.721188 
L 611.004362 587.246052 
L 612.46078 587.690317 
L 615.102153 588.481164 
L 617.005583 589.000499 
L 617.958012 589.285354 
L 618.898352 589.584245 
L 620.783602 590.177492 
L 622.369167 590.684071 
L 622.636364 590.997403 
L 621.810735 594.454924 
L 621.331568 596.379823 
L 620.227466 600.809704 
L 618.746495 606.243962 
L 614.618167 604.592441 
L 612.873738 612.807596 
L 611.400841 612.311803 
L 609.601072 611.705314 
L 603.515773 609.64631 
L 601.615227 609.050006 
L 599.658471 608.433963 
L 598.819607 608.170748 
L 596.92815 607.572308 
L 594.851366 606.920002 
L 594.493308 608.049425 
L 590.142615 606.817592 
L 586.064913 605.522672 
L 584.417219 605.09772 
L 577.134587 602.884236 
L 579.68438 594.438595 
L 580.697915 590.192877 
L 582.004037 584.013203 
L 583.824689 578.186749 
" clip-path="url(#pad2fd6cc16)" style="fill: #e0bd1f; stroke: #0000ff; stroke-width: 0.5"/>
    <path d="M 607.014442 567.848745 
L 607.075526 567.806471 
L 608.490053 568.197682 
L 610.352314 568.808134 
L 611.510399 569.12683 
L 615.540663 570.373548 
L 618.223226 571.176238 
L 618.407868 571.295936 
L 618.944264 571.522746 
L 619.177117 571.75018 
L 619.60587 571.913075 
L 617.786491 578.585821 
L 617.251252 580.009232 
L 617.292554 580.413593 
L 617.217906 580.621525 
L 617.160395 580.81187 
L 615.899311 584.257264 
L 615.102412 588.480545 
L 613.849706 588.112444 
L 613.619132 588.041397 
L 602.062575 584.455385 
L 602.871733 581.726255 
L 603.084883 581.052643 
L 604.212509 577.488255 
L 604.482322 576.667539 
L 606.113068 570.93629 
L 607.014442 567.848745 
" clip-path="url(#pad2fd6cc16)" style="fill: #e0bd1f; stroke: #0000ff; stroke-width: 0.5"/>
    <path d="M 586.011898 503.434125 
L 578.250493 500.833542 
L 575.698731 499.97677 
L 575.593003 499.936741 
L 570.905281 498.300816 
L 566.895012 497.031752 
L 567.835668 494.108212 
L 569.570548 493.747103 
L 571.945313 493.274043 
L 578.01906 492.077087 
L 580.274243 491.663992 
L 584.55969 490.715532 
L 590.636213 489.499658 
L 592.30904 489.140668 
L 591.946129 491.885463 
L 591.84807 493.048288 
L 591.798441 493.28148 
L 591.5735 494.897778 
L 591.06746 498.969038 
L 590.9617 499.073511 
L 587.519844 499.085598 
L 587.301391 499.20695 
L 586.011898 503.434125 
" clip-path="url(#pad2fd6cc16)" style="fill: #e0bd1f; stroke: #0000ff; stroke-width: 0.5"/>
    <path d="M 601.676434 508.100691 
L 600.001423 507.74885 
L 598.337491 507.371126 
L 596.158901 506.83164 
L 586.066835 503.451993 
L 587.353056 499.248602 
L 587.535832 499.147074 
L 590.97286 499.135481 
L 591.08881 499.097121 
L 591.12748 498.982863 
L 591.568089 495.571747 
L 591.634318 494.905099 
L 591.858772 493.292095 
L 591.90856 493.05816 
L 592.015957 491.858899 
L 595.233609 490.765241 
L 596.760134 489.761622 
L 597.249393 489.69631 
L 597.447153 491.528756 
L 599.896404 491.283782 
L 599.885818 493.578823 
L 602.142998 493.807336 
L 602.825993 493.875084 
L 604.023787 494.030406 
L 603.611264 494.674342 
L 602.860733 494.546102 
L 602.429987 494.953228 
L 602.289346 495.912279 
L 602.084881 495.850715 
L 601.893826 496.401858 
L 602.247459 497.328634 
L 602.129052 497.627013 
L 602.667362 498.024193 
L 602.64958 498.473324 
L 603.307276 498.7021 
L 603.722605 498.425889 
L 604.133001 497.754543 
L 604.311275 498.431864 
L 604.468336 498.957568 
L 604.27108 499.452097 
L 603.885743 500.629989 
L 604.096081 501.415893 
L 604.763926 501.772644 
L 604.867759 502.87593 
L 604.783024 504.121569 
L 604.798854 505.409265 
L 604.311888 506.545099 
L 603.421386 506.159676 
L 602.734395 506.444827 
L 602.262983 506.975426 
L 601.676434 508.100691 
" clip-path="url(#pad2fd6cc16)" style="fill: #e0bd1f; stroke: #0000ff; stroke-width: 0.5"/>
   </g>
   <g id="PatchCollection_2">
    <path d="M 362.533066 386.128019 
L 362.540407 386.13907 
L 362.547401 386.150986 
L 362.559357 386.174418 
L 362.597194 386.260474 
L 362.607726 386.281111 
L 362.616409 386.295902 
L 362.623477 386.306506 
L 362.635142 386.321469 
L 362.648295 386.335107 
L 362.717804 386.398596 
L 362.788128 386.461374 
L 362.897031 386.557121 
L 362.943663 386.597199 
L 362.928355 386.595363 
L 362.763692 386.580189 
L 362.615083 386.5084 
L 362.534714 386.206429 
L 362.533066 386.128019 
" clip-path="url(#pad2fd6cc16)" style="fill: none; stroke: #000000"/>
    <path d="M 368.405773 409.286953 
L 370.314863 413.903516 
L 370.25254 413.891156 
L 370.179766 413.824789 
L 370.116056 413.71155 
L 370.09609 413.711426 
L 370.043653 413.807275 
L 369.978227 413.854395 
L 369.887198 413.845514 
L 369.848363 413.815539 
L 369.813445 413.745841 
L 369.816629 413.68725 
L 369.814671 413.565498 
L 369.793355 413.56044 
L 369.682108 413.5581 
L 369.641068 413.514923 
L 369.51598 413.575983 
L 369.389054 413.526642 
L 369.047851 413.313242 
L 368.912963 413.258225 
L 368.849742 413.271916 
L 368.812376 413.345681 
L 368.759203 413.380221 
L 368.653963 413.392189 
L 368.562815 413.351357 
L 368.480484 413.329277 
L 368.364954 413.227509 
L 368.307123 413.107484 
L 368.315335 413.015463 
L 368.40771 412.767274 
L 368.448507 412.449392 
L 368.548357 412.23636 
L 368.559626 412.193307 
L 368.547991 412.161361 
L 368.419349 411.964609 
L 368.376959 411.796602 
L 368.371076 411.621561 
L 368.35552 411.604664 
L 368.26412 411.563214 
L 368.201517 411.504872 
L 368.04384 411.469466 
L 367.972169 411.406802 
L 367.925982 411.306393 
L 367.961756 411.204873 
L 368.057809 411.146774 
L 368.072143 411.096936 
L 368.016398 410.951381 
L 367.817064 410.65644 
L 367.825519 410.539254 
L 367.874524 410.47881 
L 367.921695 410.382473 
L 367.944603 410.143041 
L 368.090398 409.96689 
L 368.246112 409.674418 
L 368.358704 409.608056 
L 368.336894 409.493706 
L 368.341675 409.366279 
L 368.40281 409.287331 
L 368.405773 409.286953 
" clip-path="url(#pad2fd6cc16)" style="fill: none; stroke: #000000"/>
    <path d="M 371.495747 416.759017 
L 372.033265 418.058763 
L 372.030965 418.063113 
L 371.988576 418.102587 
L 371.90257 418.137372 
L 371.736686 418.13441 
L 371.699319 418.08001 
L 371.69172 417.940127 
L 371.75457 417.830836 
L 371.748444 417.778537 
L 371.69662 417.679606 
L 371.68327 417.633964 
L 371.687433 417.598069 
L 371.630462 417.613612 
L 371.517874 417.561802 
L 371.460657 417.466819 
L 371.481241 417.370108 
L 371.530983 417.291902 
L 371.49239 417.212835 
L 371.45588 416.921841 
L 371.495747 416.759017 
" clip-path="url(#pad2fd6cc16)" style="fill: none; stroke: #000000"/>
    <path d="M 372.603404 419.437389 
L 373.221307 420.931511 
L 373.179787 420.948613 
L 373.061192 420.936028 
L 372.935981 420.747789 
L 372.827923 420.668597 
L 372.695977 420.531427 
L 372.703938 420.385624 
L 372.680051 420.33813 
L 372.587919 420.223412 
L 372.501914 419.941425 
L 372.497503 419.795866 
L 372.579222 419.736409 
L 372.55888 419.555329 
L 372.603404 419.437389 
" clip-path="url(#pad2fd6cc16)" style="fill: none; stroke: #000000"/>
    <path d="M 373.236494 420.968235 
L 373.278077 421.068785 
L 373.298634 421.118491 
L 373.24901 421.064441 
L 373.230142 420.996471 
L 373.236494 420.968235 
" clip-path="url(#pad2fd6cc16)" style="fill: none; stroke: #000000"/>
    <path d="M 377.08948 423.89271 
L 411.443387 422.483638 
L 421.945942 427.46042 
L 434.298662 419.36673 
L 458.390366 420.603408 
L 490.520633 436.769558 
L 516.469251 440.488019 
L 530.678063 440.478152 
L 551.064045 439.840037 
L 570.842134 450.402551 
L 581.334554 439.81303 
L 586.882908 427.983312 
L 595.526053 422.996002 
L 603.552377 419.253652 
L 608.080746 418.050484 
L 608.253775 418.179825 
L 608.68557 418.351245 
L 608.859051 418.567453 
L 609.034301 419.130926 
L 609.984494 419.560153 
L 610.158637 419.906549 
L 611.239474 420.595606 
L 611.67284 421.070902 
L 611.806326 421.89508 
L 612.109302 422.154003 
L 612.240356 422.500645 
L 612.156395 422.935213 
L 612.458466 423.020483 
L 612.545521 423.19368 
L 612.503995 423.497811 
L 612.89184 423.495776 
L 613.666585 423.318093 
L 614.180373 423.47286 
L 614.483354 423.73178 
L 614.485131 424.079085 
L 613.844088 425.12437 
L 613.845658 425.428253 
L 613.114868 425.779341 
L 612.98736 426.127352 
L 613.075117 426.430778 
L 612.689701 426.910348 
L 612.94959 427.169477 
L 612.994461 427.516575 
L 612.695479 428.039072 
L 612.741257 428.559822 
L 613.218813 429.251981 
L 612.835455 430.122241 
L 612.710381 430.947746 
L 612.974073 431.944909 
L 612.550258 433.336375 
L 611.515995 433.341734 
L 611.171267 433.343519 
L 610.312478 433.955804 
L 609.752475 434.00209 
L 609.276893 433.700652 
L 609.061865 433.788618 
L 608.933688 434.006357 
L 609.195147 434.569373 
L 609.067874 434.960765 
L 609.113605 435.481476 
L 608.815303 436.134239 
L 609.077384 436.827524 
L 609.036756 437.305308 
L 609.515888 438.301357 
L 609.388161 438.605903 
L 608.741535 438.896111 
L 608.528066 439.287959 
L 608.615784 439.591386 
L 608.875685 439.850519 
L 609.179796 440.32652 
L 609.661408 441.800103 
L 609.879741 442.363365 
L 610.182991 442.665711 
L 610.571946 442.880754 
L 610.966263 444.137713 
L 610.883162 444.745934 
L 611.142411 444.874834 
L 611.440756 444.222068 
L 612.041652 443.741417 
L 612.472386 443.695748 
L 612.992869 444.344273 
L 613.560674 445.817386 
L 613.950092 446.119269 
L 613.657585 447.900799 
L 614.09143 448.46289 
L 613.876845 448.637667 
L 613.620485 449.073151 
L 613.454997 450.419863 
L 613.369501 450.55055 
L 613.672066 450.72262 
L 613.587439 451.02696 
L 613.158017 451.33309 
L 612.945661 451.942017 
L 613.121825 452.679135 
L 613.553692 452.850539 
L 613.98287 452.500985 
L 614.328123 452.586039 
L 614.07263 453.195136 
L 614.377021 453.71455 
L 614.076646 453.976592 
L 616.124258 458.547557 
L 616.43337 458.709774 
L 616.436068 459.23073 
L 616.018046 461.75092 
L 616.364396 462.053045 
L 616.451927 462.313044 
L 616.367301 462.617384 
L 616.023401 462.792833 
L 615.678835 462.838052 
L 615.249849 463.231033 
L 615.121871 463.49216 
L 615.21413 464.663882 
L 615.559819 464.835739 
L 615.604042 465.052565 
L 615.518709 465.226676 
L 615.00285 465.489847 
L 614.570956 465.318448 
L 613.623905 465.540445 
L 613.452821 465.80182 
L 613.286666 467.018301 
L 613.289357 467.539258 
L 613.463302 467.842223 
L 614.630081 468.348815 
L 615.20067 470.34291 
L 615.029832 470.647669 
L 614.990546 471.38595 
L 614.776605 471.690958 
L 614.692846 472.16895 
L 614.996812 472.601513 
L 614.782622 472.863099 
L 614.093913 473.04034 
L 613.237678 474.173564 
L 613.155034 474.86863 
L 613.635192 476.03831 
L 612.998279 477.908437 
L 612.52439 478.149223 
L 612.1398 478.80241 
L 611.968043 478.933555 
L 611.925848 479.107416 
L 611.581008 479.109247 
L 611.40929 479.240352 
L 611.363742 478.763027 
L 611.02002 478.981893 
L 611.193309 479.15467 
L 611.065359 479.415795 
L 610.293062 480.11444 
L 610.167549 480.853138 
L 610.212433 481.200233 
L 609.743851 482.288025 
L 608.756258 483.031171 
L 607.60135 484.773757 
L 606.482193 485.083449 
L 605.148651 485.611329 
L 604.332754 486.223317 
L 603.99082 486.789477 
L 603.950141 487.267259 
L 604.728905 487.827623 
L 604.944892 487.913311 
L 604.904421 488.434517 
L 604.4787 489.478627 
L 604.783539 490.084857 
L 604.441354 490.607595 
L 604.873954 490.90928 
L 605.220792 491.298186 
L 605.394541 491.557773 
L 605.740062 491.686219 
L 606.046228 492.552945 
L 606.048907 493.073902 
L 605.359013 493.034045 
L 604.667761 492.733728 
L 604.452468 492.77827 
L 603.858051 494.561323 
L 603.255684 494.781503 
L 602.744461 494.718629 
L 602.443812 494.937276 
L 602.487579 495.067258 
L 602.833968 495.369401 
L 602.403375 495.458441 
L 602.404239 495.632093 
L 602.621549 495.978281 
L 602.1476 496.024144 
L 601.934933 496.589641 
L 602.194449 496.76193 
L 602.24179 497.586562 
L 602.329118 497.803182 
L 602.545733 498.019141 
L 602.763704 498.495559 
L 603.669614 498.62111 
L 603.837851 497.795401 
L 604.053808 497.88109 
L 604.141591 498.184555 
L 603.930491 499.053935 
L 604.363107 499.35558 
L 603.851806 500.530415 
L 603.984017 501.094091 
L 604.632846 501.524886 
L 604.939684 502.52184 
L 604.510849 502.95819 
L 604.685474 503.391429 
L 604.644836 503.86921 
L 604.733488 504.346287 
L 604.606382 504.781102 
L 604.611039 505.692785 
L 604.098408 506.607123 
L 603.105584 506.351762 
L 602.760945 506.396965 
L 602.41939 507.049931 
L 601.947391 507.486524 
L 601.691398 508.008804 
L 601.784034 509.267339 
L 601.569833 509.528954 
L 601.7865 509.744872 
L 601.918261 510.221784 
L 601.444732 510.354454 
L 601.187173 510.572853 
L 601.232257 510.963334 
L 601.535149 511.178838 
L 601.536917 511.526142 
L 601.236653 511.903659 
L 600.720009 512.036575 
L 600.162017 512.517042 
L 599.862902 513.039528 
L 599.222416 514.25844 
L 599.185088 515.387406 
L 599.487739 515.55949 
L 599.488847 515.776565 
L 599.317054 515.907702 
L 599.448609 516.341152 
L 599.237928 517.297334 
L 597.771922 517.261504 
L 597.600166 517.392599 
L 597.387469 517.958093 
L 597.001662 518.394223 
L 596.055872 518.920042 
L 596.618311 519.307886 
L 596.877852 519.48022 
L 597.310053 519.69507 
L 596.321051 520.208725 
L 596.280353 520.686505 
L 596.497232 520.945852 
L 597.228814 520.681602 
L 597.706139 521.286931 
L 598.526124 521.456375 
L 598.871034 521.454599 
L 599.34812 522.016542 
L 600.121912 521.578383 
L 600.466822 521.576605 
L 600.769483 521.748685 
L 601.336793 523.091622 
L 601.080123 523.483675 
L 600.693206 523.702736 
L 600.479894 524.137963 
L 600.17941 524.399992 
L 599.794748 525.053203 
L 599.579175 525.054319 
L 599.623605 525.31457 
L 599.45205 525.489131 
L 599.150247 525.490661 
L 599.151356 525.707736 
L 598.981566 526.2296 
L 599.113127 526.663049 
L 599.027801 526.837156 
L 598.724888 526.62165 
L 598.723985 526.447998 
L 598.422673 526.536373 
L 598.076892 526.364496 
L 597.688859 526.366477 
L 597.517506 526.58446 
L 597.561934 526.844711 
L 597.478164 527.322699 
L 597.910196 527.475564 
L 598.213315 527.734494 
L 598.043316 528.212935 
L 598.044383 528.43001 
L 597.618151 529.387306 
L 596.674733 530.390664 
L 596.503828 530.695452 
L 596.591576 530.998921 
L 596.939372 531.561487 
L 596.423089 531.781242 
L 596.381078 531.998524 
L 596.640225 532.08401 
L 597.415371 531.906356 
L 597.630049 531.73159 
L 597.803415 531.904375 
L 597.676488 532.382569 
L 596.600634 532.778825 
L 596.341527 532.693339 
L 596.126602 532.824681 
L 596.174594 533.779542 
L 596.521492 534.168496 
L 596.523461 534.559224 
L 596.182954 535.429258 
L 596.18738 536.297519 
L 595.537648 536.162757 
L 595.364074 535.946548 
L 595.01918 535.948319 
L 594.847818 536.1663 
L 594.808016 536.817692 
L 594.36531 536.668046 
L 594.299735 536.494703 
L 594.170486 536.517093 
L 593.977257 536.670022 
L 593.978709 536.952212 
L 594.282902 537.428222 
L 593.557331 538.8863 
L 593.515665 539.168737 
L 594.163287 539.339056 
L 594.272288 539.577267 
L 594.189777 540.315711 
L 594.408578 540.944094 
L 594.711161 541.09449 
L 594.712021 541.268143 
L 594.518788 541.421112 
L 594.09841 541.405689 
L 594.010414 541.058838 
L 593.578376 540.887407 
L 591.816381 542.025213 
L 591.860152 542.155236 
L 592.119719 542.327533 
L 592.680664 542.411502 
L 593.027368 542.757038 
L 593.158891 543.190491 
L 593.504491 543.318951 
L 593.764511 543.578092 
L 593.766066 543.882013 
L 593.293971 544.318552 
L 593.471272 545.272754 
L 593.558614 545.489377 
L 593.560374 545.836681 
L 593.821052 546.226091 
L 593.304973 546.489224 
L 593.479209 546.835624 
L 593.780797 546.790677 
L 593.997292 546.963217 
L 593.700083 547.876425 
L 594.1755 548.091071 
L 594.398385 548.872695 
L 594.614882 549.045235 
L 594.786009 548.783871 
L 594.784453 548.47999 
L 595.042963 548.435247 
L 595.133834 549.346478 
L 595.17806 549.563305 
L 595.480307 549.648585 
L 595.999466 549.993248 
L 596.427791 549.426641 
L 596.774924 549.858975 
L 596.993847 550.509085 
L 596.822271 550.683605 
L 596.048124 551.078336 
L 595.877653 551.46993 
L 595.922537 551.817027 
L 595.890452 553.987903 
L 595.849096 554.335413 
L 594.82002 555.469492 
L 594.779675 556.021063 
L 594.910801 556.367707 
L 594.913014 556.801816 
L 594.700974 557.497537 
L 594.918754 557.930574 
L 594.87719 558.234701 
L 594.490204 558.453756 
L 594.668224 559.538183 
L 594.059823 560.049064 
L 593.033332 561.704091 
L 592.816206 561.401323 
L 592.60256 561.793121 
L 592.215156 561.925366 
L 592.087998 562.360174 
L 590.841944 563.234849 
L 590.204324 564.663625 
L 588.568388 565.192955 
L 588.30749 564.760157 
L 587.530423 564.590481 
L 587.187435 564.98297 
L 586.8429 565.071538 
L 586.629279 565.46337 
L 586.025149 565.379635 
L 586.024946 565.336211 
L 585.853349 565.510763 
L 586.027346 565.813745 
L 586.286288 565.855859 
L 586.41696 566.115662 
L 586.332911 566.550223 
L 585.903672 566.94316 
L 585.467351 567.165584 
L 615.587391 581.695908 
L 615.124549 581.976229 
L 614.014008 582.910135 
L 613.553161 584.962392 
L 613.92513 586.174343 
L 614.389493 587.19964 
L 613.557782 588.972553 
L 612.448162 590.745786 
L 612.91375 592.796923 
L 611.712809 595.782645 
L 611.714521 597.274806 
L 611.914807 599.477287 
L 611.361198 601.436375 
L 610.342765 601.997111 
L 609.694358 602.091132 
L 609.325706 603.770225 
L 607.567518 605.637417 
L 606.92036 606.850542 
L 606.829535 608.436082 
L 606.923516 609.64832 
L 606.276132 610.674938 
L 605.629057 611.981293 
L 605.168541 614.406587 
L 605.541577 616.551116 
L 605.728846 618.322843 
L 604.525208 619.070273 
L 603.970758 620.376558 
L 604.249361 620.935799 
L 604.250301 621.775132 
L 604.437253 623.267084 
L 604.438614 624.479427 
L 604.810514 625.598116 
L 605.64428 625.503934 
L 606.386163 626.062641 
L 606.942726 626.621558 
L 607.778554 628.299263 
L 607.68706 629.325206 
L 607.316874 629.698682 
L 606.112967 630.25962 
L 582.248956 633.899533 
L 583.246758 632.696644 
L 583.021225 631.460778 
L 579.812703 628.416196 
L 578.476801 626.924821 
L 577.287276 625.873891 
L 576.624973 624.517673 
L 576.833004 622.825923 
L 577.644161 618.643737 
L 576.674855 617.234171 
L 575.387744 617.192243 
L 573.979493 616.590229 
L 572.546005 615.787262 
L 571.994147 614.43395 
L 571.420417 612.719389 
L 570.659929 611.293445 
L 569.630241 610.397943 
L 568.104445 609.470074 
L 566.909643 609.189044 
L 563.381444 608.971994 
L 561.91094 609.096504 
L 560.28486 609.074168 
L 559.12977 609.903278 
L 558.286837 611.336631 
L 556.94925 612.181523 
L 555.697143 610.480291 
L 555.285262 609.815609 
L 554.965588 608.4155 
L 554.107515 606.70962 
L 552.741767 604.828945 
L 551.601831 603.892107 
L 550.273104 604.084519 
L 548.582194 603.771123 
L 547.480158 602.958415 
L 545.949085 602.440256 
L 542.787671 602.735012 
L 540.8141 602.43051 
L 536.954451 601.496677 
L 535.76829 600.766341 
L 534.284326 600.730553 
L 530.720795 600.835156 
L 529.359654 600.391321 
L 528.515041 598.966649 
L 528.146576 597.4469 
L 528.028923 593.88792 
L 526.970514 592.81121 
L 525.153442 591.469487 
L 523.920146 591.007498 
L 522.695289 590.036823 
L 521.395714 589.401964 
L 517.720143 588.532104 
L 516.20064 588.672643 
L 515.098811 587.88435 
L 514.0842 585.452991 
L 513.855142 585.065288 
L 512.658663 584.016337 
L 511.449477 583.239976 
L 508.728879 581.950823 
L 507.049745 581.918847 
L 505.212457 582.093964 
L 503.82776 582.698517 
L 502.761057 581.883056 
L 501.32757 580.596658 
L 500.494734 579.493638 
L 499.100384 578.415814 
L 497.481381 577.850435 
L 495.667646 579.957371 
L 494.333424 580.962772 
L 492.995838 580.639636 
L 492.090655 579.699665 
L 492.07319 576.573001 
L 490.988624 574.852011 
L 489.580373 574.21781 
L 487.936572 574.22882 
L 486.417277 573.836652 
L 485.217656 573.119869 
L 483.649568 573.371641 
L 482.374233 574.265871 
L 481.235181 575.567301 
L 479.335638 577.294142 
L 477.601696 577.725732 
L 474.974603 577.501444 
L 473.320708 576.905782 
L 474.020629 574.483121 
L 473.249335 572.81375 
L 472.972498 571.716727 
L 473.112084 570.543251 
L 473.786767 569.330544 
L 473.297161 568.126307 
L 472.48788 566.763466 
L 470.514312 564.883524 
L 469.498084 564.044559 
L 468.02758 564.659064 
L 464.991132 563.514043 
L 464.696234 563.392145 
L 463.974444 562.270914 
L 464.035015 560.820197 
L 464.464053 559.206854 
L 465.063024 557.794252 
L 463.923974 556.271962 
L 462.848241 555.355615 
L 460.237623 554.443898 
L 458.864705 553.447177 
L 456.903169 552.664054 
L 453.534552 552.274062 
L 451.660249 552.367867 
L 450.090477 552.900635 
L 448.058896 552.164174 
L 447.334546 551.992849 
L 445.852265 552.687608 
L 444.73845 553.621013 
L 442.937309 554.770272 
L 441.943819 555.128689 
L 441.259043 553.764153 
L 441.136222 552.436888 
L 440.523794 550.790299 
L 439.396522 549.952816 
L 438.074079 549.195164 
L 434.65356 548.372502 
L 432.854971 547.538619 
L 431.9582 546.335863 
L 432.38378 544.767725 
L 432.314893 543.636864 
L 431.803234 542.307916 
L 431.172129 541.012084 
L 431.07826 539.61801 
L 430.512942 538.413984 
L 429.741451 535.931345 
L 429.519238 535.467811 
L 428.566295 534.197775 
L 427.757015 532.914765 
L 427.425564 531.5875 
L 426.506921 530.627836 
L 423.97308 528.831747 
L 422.647272 528.155832 
L 422.120651 526.790239 
L 421.912023 525.221363 
L 422.097099 523.729989 
L 421.974279 522.079378 
L 421.398866 520.592873 
L 421.032082 519.227492 
L 420.01309 518.002204 
L 419.210758 516.307589 
L 418.923916 515.495985 
L 419.101824 514.038116 
L 418.73041 512.930351 
L 417.561756 511.44995 
L 416.852765 510.71715 
L 415.493307 509.799201 
L 415.420483 507.765396 
L 416.865986 506.560489 
L 418.114642 506.441654 
L 419.585146 505.908674 
L 419.97717 504.17442 
L 420.93064 502.727968 
L 421.60583 501.868859 
L 422.477366 500.57484 
L 421.790908 499.130474 
L 420.542495 498.493945 
L 419.415222 497.736505 
L 419.401763 496.166147 
L 418.740546 491.419499 
L 417.808443 489.976193 
L 417.601497 488.568673 
L 417.98006 487.156495 
L 418.863373 486.144742 
L 419.72145 483.522186 
L 418.824408 480.496888 
L 418.65475 479.221065 
L 417.000856 476.774898 
L 415.873583 475.896546 
L 414.428318 475.422854 
L 412.095299 473.226112 
L 415.631936 473.275413 
L 421.816121 471.676376 
L 430.751991 469.786345 
L 430.626534 469.69642 
L 430.579244 469.473024 
L 430.300031 469.230386 
L 429.71821 468.514808 
L 429.492536 468.028795 
L 429.899408 467.210587 
L 429.80213 467.145579 
L 429.251183 467.124979 
L 428.32007 467.419671 
L 427.585345 467.42695 
L 427.345584 467.426701 
L 427.067107 467.305078 
L 426.713532 467.373909 
L 426.627037 467.28497 
L 426.589424 467.045414 
L 426.415085 466.700026 
L 426.523632 466.511538 
L 426.539929 465.406658 
L 426.291837 465.29909 
L 426.267332 464.372457 
L 425.830812 464.002023 
L 425.75963 464.169537 
L 424.764807 464.596835 
L 424.512551 464.408476 
L 424.383419 463.929493 
L 424.41013 463.652683 
L 424.210553 463.480977 
L 424.123811 463.395369 
L 423.528141 463.407088 
L 423.464559 463.158774 
L 423.408448 463.207623 
L 422.914345 463.58188 
L 422.757771 463.671681 
L 422.670905 463.924679 
L 422.444133 463.984385 
L 422.227646 463.887306 
L 422.001487 463.618516 
L 421.57587 463.579042 
L 421.19166 463.352564 
L 420.350844 463.229333 
L 419.609137 463.331595 
L 419.364229 462.958816 
L 419.225663 461.183011 
L 418.997665 460.879437 
L 419.048999 460.567474 
L 418.69138 460.046059 
L 418.794414 459.716951 
L 418.727886 459.20651 
L 418.481143 458.765521 
L 418.560532 458.494018 
L 418.185879 457.988391 
L 418.034699 457.1687 
L 417.937668 457.003899 
L 417.96511 456.810975 
L 417.852394 456.367394 
L 416.972492 455.20108 
L 416.81886 454.635871 
L 416.869458 454.375963 
L 417.192529 454.02132 
L 417.218137 453.613757 
L 417.725349 452.936424 
L 418.391582 452.849456 
L 418.703509 452.026808 
L 418.628159 451.555596 
L 418.414985 451.248691 
L 418.565798 450.584058 
L 418.232926 450.55347 
L 418.130628 450.339204 
L 418.474037 449.144026 
L 418.698728 448.884859 
L 418.675449 448.404517 
L 418.812912 447.760733 
L 418.410698 447.527101 
L 418.355808 447.426935 
L 417.772885 447.163821 
L 416.877789 446.290597 
L 416.484272 446.052156 
L 416.290822 446.073742 
L 415.995069 446.316997 
L 415.444241 446.161074 
L 415.153759 446.196356 
L 414.817579 446.002566 
L 414.437294 445.407506 
L 413.759297 445.680487 
L 413.631634 445.591548 
L 413.529213 445.103932 
L 413.629919 445.017337 
L 413.445289 444.855126 
L 413.089385 444.878195 
L 412.505355 444.996861 
L 412.349637 444.759898 
L 411.603154 444.53009 
L 411.370868 444.349991 
L 411.278737 444.106367 
L 411.006629 444.122895 
L 410.440977 444.410927 
L 410.116194 444.413764 
L 410.077108 444.320264 
L 409.16964 443.742101 
L 409.146366 443.632317 
L 407.984803 444.01558 
L 407.945597 443.961181 
L 407.50442 443.904681 
L 406.758426 443.464803 
L 406.417589 443.231788 
L 406.200494 443.239311 
L 406.178688 443.179361 
L 406.196207 442.653132 
L 405.766056 442.440594 
L 405.468345 442.540142 
L 405.41787 442.481795 
L 405.356242 442.29257 
L 404.765601 443.081416 
L 404.40945 443.135078 
L 403.634664 442.791537 
L 403.60967 441.120089 
L 403.196429 441.228514 
L 403.095599 441.330651 
L 403.048429 441.659267 
L 402.852896 441.952973 
L 401.373651 442.844085 
L 400.93419 442.485001 
L 400.657186 441.868972 
L 400.474391 441.834432 
L 400.191751 441.666301 
L 399.893916 441.621645 
L 399.631123 441.528762 
L 399.525883 441.701085 
L 399.219351 441.834308 
L 398.84629 441.719217 
L 398.770332 441.511492 
L 398.508642 441.396401 
L 398.402542 441.478306 
L 398.190104 441.350142 
L 398.053986 441.248005 
L 397.720382 441.2617 
L 397.616487 441.057794 
L 397.424629 440.156691 
L 397.271852 440.102172 
L 396.734869 439.199217 
L 396.86143 438.9588 
L 396.663198 438.425293 
L 396.673369 437.338051 
L 396.186371 436.8978 
L 396.084928 437.046689 
L 395.352903 436.899896 
L 395.252563 436.711164 
L 395.39909 436.482963 
L 395.273513 436.345544 
L 395.23014 436.394148 
L 395.13605 436.526505 
L 394.363716 436.326547 
L 394.34644 436.430167 
L 394.283961 436.620626 
L 394.0589 436.565486 
L 393.900487 436.348382 
L 393.330182 436.205168 
L 393.173485 436.076137 
L 392.880427 436.054924 
L 392.7758 435.934531 
L 392.867689 435.268046 
L 392.937155 434.613777 
L 392.757426 434.527676 
L 392.831055 434.139235 
L 392.957368 434.062756 
L 392.85911 433.801489 
L 392.105398 433.785329 
L 391.921629 433.902392 
L 391.755008 434.195854 
L 391.490865 434.014521 
L 391.042949 433.768925 
L 390.493837 433.085792 
L 389.829072 433.131309 
L 389.439842 433.127237 
L 389.118486 433.233074 
L 388.927977 433.090352 
L 388.801294 433.129582 
L 387.468456 432.86955 
L 387.170868 432.263512 
L 386.991994 431.979548 
L 386.666841 431.812283 
L 386.660591 431.538311 
L 386.733735 431.411999 
L 386.642336 431.334654 
L 386.501812 431.403859 
L 386.15424 431.2768 
L 385.860202 430.984821 
L 385.844276 430.820762 
L 385.787675 430.710729 
L 385.618972 430.665336 
L 385.502336 430.516447 
L 385.303862 430.569984 
L 385.012766 431.182434 
L 384.49661 430.965704 
L 384.477133 430.757974 
L 384.199388 430.463775 
L 383.999203 430.366078 
L 383.606784 430.322906 
L 383.479368 430.342023 
L 383.09847 430.435896 
L 382.552176 430.299467 
L 382.473647 430.205226 
L 382.230578 430.240134 
L 381.93164 430.091738 
L 381.772001 430.034257 
L 381.541551 429.392445 
L 381.682322 429.164239 
L 381.502103 429.038419 
L 381.052471 428.905073 
L 381.002486 428.804294 
L 380.946988 428.839079 
L 380.460969 429.147462 
L 380.316035 429.110213 
L 380.152232 429.244048 
L 379.523977 429.041874 
L 379.106202 428.54932 
L 378.501099 428.432258 
L 378.301893 428.284847 
L 378.295396 427.944637 
L 377.99009 427.76516 
L 377.853729 427.849041 
L 376.751708 427.031943 
L 376.850826 426.5347 
L 377.191293 426.055348 
L 376.733947 425.470155 
L 376.648307 425.200997 
L 376.826811 425.034469 
L 376.93389 425.056673 
L 376.931808 424.982907 
L 376.883168 424.11511 
L 377.060816 424.060466 
L 377.08948 423.89271 
L 377.08948 423.89271 
" clip-path="url(#pad2fd6cc16)" style="fill: none; stroke: #000000"/>
    <path d="M 335.176585 444.707933 
L 335.065344 444.679485 
L 335.01356 444.514256 
L 335.014373 444.273807 
L 335.112747 444.07265 
L 335.29559 443.819374 
L 335.330587 443.71095 
L 335.330306 443.464257 
L 335.355386 443.328991 
L 335.468345 443.11128 
L 335.544807 442.9315 
L 335.626039 442.680953 
L 335.765766 442.42863 
L 335.957016 442.250877 
L 336.070735 442.0216 
L 336.099595 441.755879 
L 336.072638 441.545268 
L 336.029034 441.475682 
L 335.965122 441.433676 
L 335.796253 441.477951 
L 335.630148 441.57015 
L 335.44345 441.480838 
L 335.372003 441.232772 
L 335.441596 441.164274 
L 335.45414 441.278104 
L 335.480603 441.357913 
L 335.521895 441.437109 
L 335.585353 441.489657 
L 335.655313 441.488422 
L 335.725145 441.442412 
L 335.81752 441.382586 
L 335.940159 441.352979 
L 336.058383 441.40812 
L 336.136181 441.513095 
L 336.168528 441.632254 
L 336.168647 441.844055 
L 336.147207 442.017244 
L 336.124052 442.124559 
L 336.071739 442.229903 
L 335.995533 442.321679 
L 335.902793 442.396431 
L 335.756998 442.553464 
L 335.713259 442.644375 
L 335.641222 442.856914 
L 335.611817 442.924511 
L 335.517484 443.173441 
L 335.478279 443.242766 
L 335.437358 443.319369 
L 335.4131 443.387952 
L 335.402687 443.46098 
L 335.414569 443.628738 
L 335.403789 443.731124 
L 335.374261 443.819939 
L 335.328563 443.903451 
L 335.234839 444.030998 
L 335.185957 444.098844 
L 335.136705 444.177543 
L 335.092599 444.266482 
L 335.084391 444.414999 
L 335.133886 444.598921 
L 335.176585 444.707933 
" clip-path="url(#pad2fd6cc16)" style="fill: none; stroke: #000000"/>
    <path d="M 314.04435 241.921573 
L 313.418907 238.740467 
L 313.441194 238.798044 
L 314.646783 241.911904 
L 314.04435 241.921573 
" clip-path="url(#pad2fd6cc16)" style="fill: none; stroke: #000000"/>
    <path d="M 358.147671 336.434058 
L 358.824248 339.475569 
L 358.399737 339.525816 
L 357.948541 339.560316 
L 357.867746 339.835336 
L 358.066811 340.557652 
L 358.079089 340.940567 
L 357.615203 341.883192 
L 357.056382 343.259102 
L 357.142603 344.804198 
L 356.760941 345.56272 
L 356.10004 346.301463 
L 355.531505 347.67847 
L 355.532875 348.067512 
L 355.480074 350.125918 
L 355.261951 351.075911 
L 355.281057 351.654285 
L 355.155681 352.590799 
L 354.926064 352.894345 
L 354.653203 352.95873 
L 353.856248 352.783454 
L 353.804628 352.956607 
L 353.82883 353.801694 
L 354.297397 354.263958 
L 354.773815 354.748917 
L 355.069364 355.415482 
L 355.015112 355.938606 
L 354.831298 356.183606 
L 354.344011 356.44081 
L 353.539822 356.80879 
L 352.71924 357.221782 
L 352.118511 357.312025 
L 351.310844 357.606012 
L 351.165671 357.823139 
L 350.929623 359.139879 
L 350.891107 359.932821 
L 351.030296 360.83827 
L 350.890151 361.474459 
L 350.482441 362.423875 
L 350.491816 363.422063 
L 350.170476 363.514508 
L 349.578618 363.655862 
L 348.923569 363.898399 
L 348.682992 363.723026 
L 347.994489 363.208362 
L 347.754694 363.226642 
L 347.591614 363.518514 
L 347.386565 364.044733 
L 347.101919 363.903825 
L 346.677261 363.803951 
L 346.552465 364.024035 
L 346.705285 364.361164 
L 346.954191 364.9206 
L 347.15374 365.225347 
L 347.350127 365.507071 
L 347.870886 366.698325 
L 347.977645 367.120466 
L 348.104053 367.828517 
L 348.286584 368.04558 
L 348.681927 369.050798 
L 348.913159 369.826889 
L 349.473794 370.26613 
L 350.344718 370.410296 
L 351.264013 370.701136 
L 351.524426 371.060182 
L 351.912014 372.401934 
L 351.650845 372.901532 
L 350.93475 373.244407 
L 350.834765 373.479186 
L 350.911657 373.992607 
L 351.144925 374.284676 
L 351.637601 374.995816 
L 351.631747 375.237317 
L 352.047767 376.076231 
L 352.336375 376.461298 
L 352.402806 377.619429 
L 352.767135 378.025384 
L 353.157657 378.156438 
L 353.937088 378.206113 
L 355.621664 379.019932 
L 356.082616 379.31175 
L 356.306082 379.600316 
L 356.619219 379.80511 
L 357.184662 380.158094 
L 357.649997 381.286804 
L 358.320408 381.734146 
L 358.634449 382.073115 
L 358.786691 382.310837 
L 358.913287 382.836318 
L 359.288452 383.230294 
L 360.126224 383.713447 
L 360.415394 384.072473 
L 361.692919 385.585364 
L 362.040614 385.848415 
L 336.246568 385.933941 
L 336.116947 387.832853 
L 335.673811 392.745549 
L 335.681653 395.343017 
L 335.60655 402.800759 
L 335.628237 404.214888 
L 335.518953 410.736991 
L 335.592216 412.200461 
L 335.616474 416.726324 
L 335.782116 417.265506 
L 335.526914 420.985369 
L 335.513758 422.960077 
L 335.393053 422.866051 
L 335.459441 418.728593 
L 335.65785 417.326298 
L 335.424553 416.302722 
L 335.399773 410.749637 
L 335.322962 410.056204 
L 335.426616 409.683146 
L 335.37214 409.236533 
L 335.439544 408.802983 
L 335.555038 393.324003 
L 335.564465 391.944542 
L 335.95581 388.94607 
L 335.967259 372.28779 
L 335.791984 288.079103 
L 344.547962 301.114408 
L 358.147671 336.434058 
L 358.147671 336.434058 
" clip-path="url(#pad2fd6cc16)" style="fill: none; stroke: #000000"/>
    <path d="M 411.749535 473.221292 
L 411.617498 473.237725 
L 410.956876 473.319941 
L 410.691491 473.352969 
L 409.619703 472.93508 
L 409.664114 472.918302 
L 410.011687 472.829118 
L 410.392095 472.888082 
L 411.030644 473.211271 
L 411.749535 473.221292 
" clip-path="url(#pad2fd6cc16)" style="fill: none; stroke: #000000"/>
   </g>
   <g id="matplotlib.axis_1">
    <g id="xtick_1">
     <g id="line2d_1">
      <path d="M 109.441962 653.657486 
L 109.441962 218.982514 
" clip-path="url(#pad2fd6cc16)" style="fill: none; stroke: #b0b0b0; stroke-width: 0.8; stroke-linecap: square"/>
     </g>
     <g id="line2d_2">
      <defs>
       <path id="mea5ec70271" d="M 0 0 
L 0 3.5 
" style="stroke: #000000; stroke-width: 0.8"/>
      </defs>
      <g>
       <use xlink:href="#mea5ec70271" x="109.441962" y="653.657486" style="stroke: #000000; stroke-width: 0.8"/>
      </g>
     </g>
     <g id="text_1">
      <!-- 51.6 -->
      <g transform="translate(100.55838 687.699901) rotate(-45) scale(0.1 -0.1)">
       <defs>
        <path id="DejaVuSans-2212" d="M 678 2272 
L 4684 2272 
L 4684 1741 
L 678 1741 
L 678 2272 
z
" transform="scale(0.015625)"/>
        <path id="DejaVuSans-35" d="M 691 4666 
L 3169 4666 
L 3169 4134 
L 1269 4134 
L 1269 2991 
Q 1406 3038 1543 3061 
Q 1681 3084 1819 3084 
Q 2600 3084 3056 2656 
Q 3513 2228 3513 1497 
Q 3513 744 3044 326 
Q 2575 -91 1722 -91 
Q 1428 -91 1123 -41 
Q 819 9 494 109 
L 494 744 
Q 775 591 1075 516 
Q 1375 441 1709 441 
Q 2250 441 2565 725 
Q 2881 1009 2881 1497 
Q 2881 1984 2565 2268 
Q 2250 2553 1709 2553 
Q 1456 2553 1204 2497 
Q 953 2441 691 2322 
L 691 4666 
z
" transform="scale(0.015625)"/>
        <path id="DejaVuSans-31" d="M 794 531 
L 1825 531 
L 1825 4091 
L 703 3866 
L 703 4441 
L 1819 4666 
L 2450 4666 
L 2450 531 
L 3481 531 
L 3481 0 
L 794 0 
L 794 531 
z
" transform="scale(0.015625)"/>
        <path id="DejaVuSans-2e" d="M 684 794 
L 1344 794 
L 1344 0 
L 684 0 
L 684 794 
z
" transform="scale(0.015625)"/>
        <path id="DejaVuSans-36" d="M 2113 2584 
Q 1688 2584 1439 2293 
Q 1191 2003 1191 1497 
Q 1191 994 1439 701 
Q 1688 409 2113 409 
Q 2538 409 2786 701 
Q 3034 994 3034 1497 
Q 3034 2003 2786 2293 
Q 2538 2584 2113 2584 
z
M 3366 4563 
L 3366 3988 
Q 3128 4100 2886 4159 
Q 2644 4219 2406 4219 
Q 1781 4219 1451 3797 
Q 1122 3375 1075 2522 
Q 1259 2794 1537 2939 
Q 1816 3084 2150 3084 
Q 2853 3084 3261 2657 
Q 3669 2231 3669 1497 
Q 3669 778 3244 343 
Q 2819 -91 2113 -91 
Q 1303 -91 875 529 
Q 447 1150 447 2328 
Q 447 3434 972 4092 
Q 1497 4750 2381 4750 
Q 2619 4750 2861 4703 
Q 3103 4656 3366 4563 
z
" transform="scale(0.015625)"/>
       </defs>
       <use xlink:href="#DejaVuSans-2212"/>
       <use xlink:href="#DejaVuSans-35" transform="translate(83.789062 0)"/>
       <use xlink:href="#DejaVuSans-31" transform="translate(147.412109 0)"/>
       <use xlink:href="#DejaVuSans-2e" transform="translate(211.035156 0)"/>
       <use xlink:href="#DejaVuSans-36" transform="translate(242.822266 0)"/>
      </g>
     </g>
    </g>
    <g id="xtick_2">
     <g id="line2d_3">
      <path d="M 197.65269 653.657486 
L 197.65269 218.982514 
" clip-path="url(#pad2fd6cc16)" style="fill: none; stroke: #b0b0b0; stroke-width: 0.8; stroke-linecap: square"/>
     </g>
     <g id="line2d_4">
      <g>
       <use xlink:href="#mea5ec70271" x="197.65269" y="653.657486" style="stroke: #000000; stroke-width: 0.8"/>
      </g>
     </g>
     <g id="text_2">
      <!-- 51.4 -->
      <g transform="translate(188.769109 687.699901) rotate(-45) scale(0.1 -0.1)">
       <defs>
        <path id="DejaVuSans-34" d="M 2419 4116 
L 825 1625 
L 2419 1625 
L 2419 4116 
z
M 2253 4666 
L 3047 4666 
L 3047 1625 
L 3713 1625 
L 3713 1100 
L 3047 1100 
L 3047 0 
L 2419 0 
L 2419 1100 
L 313 1100 
L 313 1709 
L 2253 4666 
z
" transform="scale(0.015625)"/>
       </defs>
       <use xlink:href="#DejaVuSans-2212"/>
       <use xlink:href="#DejaVuSans-35" transform="translate(83.789062 0)"/>
       <use xlink:href="#DejaVuSans-31" transform="translate(147.412109 0)"/>
       <use xlink:href="#DejaVuSans-2e" transform="translate(211.035156 0)"/>
       <use xlink:href="#DejaVuSans-34" transform="translate(242.822266 0)"/>
      </g>
     </g>
    </g>
    <g id="xtick_3">
     <g id="line2d_5">
      <path d="M 285.863418 653.657486 
L 285.863418 218.982514 
" clip-path="url(#pad2fd6cc16)" style="fill: none; stroke: #b0b0b0; stroke-width: 0.8; stroke-linecap: square"/>
     </g>
     <g id="line2d_6">
      <g>
       <use xlink:href="#mea5ec70271" x="285.863418" y="653.657486" style="stroke: #000000; stroke-width: 0.8"/>
      </g>
     </g>
     <g id="text_3">
      <!-- 51.2 -->
      <g transform="translate(276.979837 687.699901) rotate(-45) scale(0.1 -0.1)">
       <defs>
        <path id="DejaVuSans-32" d="M 1228 531 
L 3431 531 
L 3431 0 
L 469 0 
L 469 531 
Q 828 903 1448 1529 
Q 2069 2156 2228 2338 
Q 2531 2678 2651 2914 
Q 2772 3150 2772 3378 
Q 2772 3750 2511 3984 
Q 2250 4219 1831 4219 
Q 1534 4219 1204 4116 
Q 875 4013 500 3803 
L 500 4441 
Q 881 4594 1212 4672 
Q 1544 4750 1819 4750 
Q 2544 4750 2975 4387 
Q 3406 4025 3406 3419 
Q 3406 3131 3298 2873 
Q 3191 2616 2906 2266 
Q 2828 2175 2409 1742 
Q 1991 1309 1228 531 
z
" transform="scale(0.015625)"/>
       </defs>
       <use xlink:href="#DejaVuSans-2212"/>
       <use xlink:href="#DejaVuSans-35" transform="translate(83.789062 0)"/>
       <use xlink:href="#DejaVuSans-31" transform="translate(147.412109 0)"/>
       <use xlink:href="#DejaVuSans-2e" transform="translate(211.035156 0)"/>
       <use xlink:href="#DejaVuSans-32" transform="translate(242.822266 0)"/>
      </g>
     </g>
    </g>
    <g id="xtick_4">
     <g id="line2d_7">
      <path d="M 374.074146 653.657486 
L 374.074146 218.982514 
" clip-path="url(#pad2fd6cc16)" style="fill: none; stroke: #b0b0b0; stroke-width: 0.8; stroke-linecap: square"/>
     </g>
     <g id="line2d_8">
      <g>
       <use xlink:href="#mea5ec70271" x="374.074146" y="653.657486" style="stroke: #000000; stroke-width: 0.8"/>
      </g>
     </g>
     <g id="text_4">
      <!-- 51.0 -->
      <g transform="translate(365.190565 687.699901) rotate(-45) scale(0.1 -0.1)">
       <defs>
        <path id="DejaVuSans-30" d="M 2034 4250 
Q 1547 4250 1301 3770 
Q 1056 3291 1056 2328 
Q 1056 1369 1301 889 
Q 1547 409 2034 409 
Q 2525 409 2770 889 
Q 3016 1369 3016 2328 
Q 3016 3291 2770 3770 
Q 2525 4250 2034 4250 
z
M 2034 4750 
Q 2819 4750 3233 4129 
Q 3647 3509 3647 2328 
Q 3647 1150 3233 529 
Q 2819 -91 2034 -91 
Q 1250 -91 836 529 
Q 422 1150 422 2328 
Q 422 3509 836 4129 
Q 1250 4750 2034 4750 
z
" transform="scale(0.015625)"/>
       </defs>
       <use xlink:href="#DejaVuSans-2212"/>
       <use xlink:href="#DejaVuSans-35" transform="translate(83.789062 0)"/>
       <use xlink:href="#DejaVuSans-31" transform="translate(147.412109 0)"/>
       <use xlink:href="#DejaVuSans-2e" transform="translate(211.035156 0)"/>
       <use xlink:href="#DejaVuSans-30" transform="translate(242.822266 0)"/>
      </g>
     </g>
    </g>
    <g id="xtick_5">
     <g id="line2d_9">
      <path d="M 462.284875 653.657486 
L 462.284875 218.982514 
" clip-path="url(#pad2fd6cc16)" style="fill: none; stroke: #b0b0b0; stroke-width: 0.8; stroke-linecap: square"/>
     </g>
     <g id="line2d_10">
      <g>
       <use xlink:href="#mea5ec70271" x="462.284875" y="653.657486" style="stroke: #000000; stroke-width: 0.8"/>
      </g>
     </g>
     <g id="text_5">
      <!-- 50.8 -->
      <g transform="translate(453.401293 687.699901) rotate(-45) scale(0.1 -0.1)">
       <defs>
        <path id="DejaVuSans-38" d="M 2034 2216 
Q 1584 2216 1326 1975 
Q 1069 1734 1069 1313 
Q 1069 891 1326 650 
Q 1584 409 2034 409 
Q 2484 409 2743 651 
Q 3003 894 3003 1313 
Q 3003 1734 2745 1975 
Q 2488 2216 2034 2216 
z
M 1403 2484 
Q 997 2584 770 2862 
Q 544 3141 544 3541 
Q 544 4100 942 4425 
Q 1341 4750 2034 4750 
Q 2731 4750 3128 4425 
Q 3525 4100 3525 3541 
Q 3525 3141 3298 2862 
Q 3072 2584 2669 2484 
Q 3125 2378 3379 2068 
Q 3634 1759 3634 1313 
Q 3634 634 3220 271 
Q 2806 -91 2034 -91 
Q 1263 -91 848 271 
Q 434 634 434 1313 
Q 434 1759 690 2068 
Q 947 2378 1403 2484 
z
M 1172 3481 
Q 1172 3119 1398 2916 
Q 1625 2713 2034 2713 
Q 2441 2713 2670 2916 
Q 2900 3119 2900 3481 
Q 2900 3844 2670 4047 
Q 2441 4250 2034 4250 
Q 1625 4250 1398 4047 
Q 1172 3844 1172 3481 
z
" transform="scale(0.015625)"/>
       </defs>
       <use xlink:href="#DejaVuSans-2212"/>
       <use xlink:href="#DejaVuSans-35" transform="translate(83.789062 0)"/>
       <use xlink:href="#DejaVuSans-30" transform="translate(147.412109 0)"/>
       <use xlink:href="#DejaVuSans-2e" transform="translate(211.035156 0)"/>
       <use xlink:href="#DejaVuSans-38" transform="translate(242.822266 0)"/>
      </g>
     </g>
    </g>
    <g id="xtick_6">
     <g id="line2d_11">
      <path d="M 550.495603 653.657486 
L 550.495603 218.982514 
" clip-path="url(#pad2fd6cc16)" style="fill: none; stroke: #b0b0b0; stroke-width: 0.8; stroke-linecap: square"/>
     </g>
     <g id="line2d_12">
      <g>
       <use xlink:href="#mea5ec70271" x="550.495603" y="653.657486" style="stroke: #000000; stroke-width: 0.8"/>
      </g>
     </g>
     <g id="text_6">
      <!-- 50.6 -->
      <g transform="translate(541.612021 687.699901) rotate(-45) scale(0.1 -0.1)">
       <use xlink:href="#DejaVuSans-2212"/>
       <use xlink:href="#DejaVuSans-35" transform="translate(83.789062 0)"/>
       <use xlink:href="#DejaVuSans-30" transform="translate(147.412109 0)"/>
       <use xlink:href="#DejaVuSans-2e" transform="translate(211.035156 0)"/>
       <use xlink:href="#DejaVuSans-36" transform="translate(242.822266 0)"/>
      </g>
     </g>
    </g>
    <g id="xtick_7">
     <g id="line2d_13">
      <path d="M 638.706331 653.657486 
L 638.706331 218.982514 
" clip-path="url(#pad2fd6cc16)" style="fill: none; stroke: #b0b0b0; stroke-width: 0.8; stroke-linecap: square"/>
     </g>
     <g id="line2d_14">
      <g>
       <use xlink:href="#mea5ec70271" x="638.706331" y="653.657486" style="stroke: #000000; stroke-width: 0.8"/>
      </g>
     </g>
     <g id="text_7">
      <!-- 50.4 -->
      <g transform="translate(629.82275 687.699901) rotate(-45) scale(0.1 -0.1)">
       <use xlink:href="#DejaVuSans-2212"/>
       <use xlink:href="#DejaVuSans-35" transform="translate(83.789062 0)"/>
       <use xlink:href="#DejaVuSans-30" transform="translate(147.412109 0)"/>
       <use xlink:href="#DejaVuSans-2e" transform="translate(211.035156 0)"/>
       <use xlink:href="#DejaVuSans-34" transform="translate(242.822266 0)"/>
      </g>
     </g>
    </g>
    <g id="text_8">
     <!-- Longitude () -->
     <g transform="translate(336.139844 700.7689) scale(0.1 -0.1)">
      <defs>
       <path id="DejaVuSans-4c" d="M 628 4666 
L 1259 4666 
L 1259 531 
L 3531 531 
L 3531 0 
L 628 0 
L 628 4666 
z
" transform="scale(0.015625)"/>
       <path id="DejaVuSans-6f" d="M 1959 3097 
Q 1497 3097 1228 2736 
Q 959 2375 959 1747 
Q 959 1119 1226 758 
Q 1494 397 1959 397 
Q 2419 397 2687 759 
Q 2956 1122 2956 1747 
Q 2956 2369 2687 2733 
Q 2419 3097 1959 3097 
z
M 1959 3584 
Q 2709 3584 3137 3096 
Q 3566 2609 3566 1747 
Q 3566 888 3137 398 
Q 2709 -91 1959 -91 
Q 1206 -91 779 398 
Q 353 888 353 1747 
Q 353 2609 779 3096 
Q 1206 3584 1959 3584 
z
" transform="scale(0.015625)"/>
       <path id="DejaVuSans-6e" d="M 3513 2113 
L 3513 0 
L 2938 0 
L 2938 2094 
Q 2938 2591 2744 2837 
Q 2550 3084 2163 3084 
Q 1697 3084 1428 2787 
Q 1159 2491 1159 1978 
L 1159 0 
L 581 0 
L 581 3500 
L 1159 3500 
L 1159 2956 
Q 1366 3272 1645 3428 
Q 1925 3584 2291 3584 
Q 2894 3584 3203 3211 
Q 3513 2838 3513 2113 
z
" transform="scale(0.015625)"/>
       <path id="DejaVuSans-67" d="M 2906 1791 
Q 2906 2416 2648 2759 
Q 2391 3103 1925 3103 
Q 1463 3103 1205 2759 
Q 947 2416 947 1791 
Q 947 1169 1205 825 
Q 1463 481 1925 481 
Q 2391 481 2648 825 
Q 2906 1169 2906 1791 
z
M 3481 434 
Q 3481 -459 3084 -895 
Q 2688 -1331 1869 -1331 
Q 1566 -1331 1297 -1286 
Q 1028 -1241 775 -1147 
L 775 -588 
Q 1028 -725 1275 -790 
Q 1522 -856 1778 -856 
Q 2344 -856 2625 -561 
Q 2906 -266 2906 331 
L 2906 616 
Q 2728 306 2450 153 
Q 2172 0 1784 0 
Q 1141 0 747 490 
Q 353 981 353 1791 
Q 353 2603 747 3093 
Q 1141 3584 1784 3584 
Q 2172 3584 2450 3431 
Q 2728 3278 2906 2969 
L 2906 3500 
L 3481 3500 
L 3481 434 
z
" transform="scale(0.015625)"/>
       <path id="DejaVuSans-69" d="M 603 3500 
L 1178 3500 
L 1178 0 
L 603 0 
L 603 3500 
z
M 603 4863 
L 1178 4863 
L 1178 4134 
L 603 4134 
L 603 4863 
z
" transform="scale(0.015625)"/>
       <path id="DejaVuSans-74" d="M 1172 4494 
L 1172 3500 
L 2356 3500 
L 2356 3053 
L 1172 3053 
L 1172 1153 
Q 1172 725 1289 603 
Q 1406 481 1766 481 
L 2356 481 
L 2356 0 
L 1766 0 
Q 1100 0 847 248 
Q 594 497 594 1153 
L 594 3053 
L 172 3053 
L 172 3500 
L 594 3500 
L 594 4494 
L 1172 4494 
z
" transform="scale(0.015625)"/>
       <path id="DejaVuSans-75" d="M 544 1381 
L 544 3500 
L 1119 3500 
L 1119 1403 
Q 1119 906 1312 657 
Q 1506 409 1894 409 
Q 2359 409 2629 706 
Q 2900 1003 2900 1516 
L 2900 3500 
L 3475 3500 
L 3475 0 
L 2900 0 
L 2900 538 
Q 2691 219 2414 64 
Q 2138 -91 1772 -91 
Q 1169 -91 856 284 
Q 544 659 544 1381 
z
M 1991 3584 
L 1991 3584 
z
" transform="scale(0.015625)"/>
       <path id="DejaVuSans-64" d="M 2906 2969 
L 2906 4863 
L 3481 4863 
L 3481 0 
L 2906 0 
L 2906 525 
Q 2725 213 2448 61 
Q 2172 -91 1784 -91 
Q 1150 -91 751 415 
Q 353 922 353 1747 
Q 353 2572 751 3078 
Q 1150 3584 1784 3584 
Q 2172 3584 2448 3432 
Q 2725 3281 2906 2969 
z
M 947 1747 
Q 947 1113 1208 752 
Q 1469 391 1925 391 
Q 2381 391 2643 752 
Q 2906 1113 2906 1747 
Q 2906 2381 2643 2742 
Q 2381 3103 1925 3103 
Q 1469 3103 1208 2742 
Q 947 2381 947 1747 
z
" transform="scale(0.015625)"/>
       <path id="DejaVuSans-65" d="M 3597 1894 
L 3597 1613 
L 953 1613 
Q 991 1019 1311 708 
Q 1631 397 2203 397 
Q 2534 397 2845 478 
Q 3156 559 3463 722 
L 3463 178 
Q 3153 47 2828 -22 
Q 2503 -91 2169 -91 
Q 1331 -91 842 396 
Q 353 884 353 1716 
Q 353 2575 817 3079 
Q 1281 3584 2069 3584 
Q 2775 3584 3186 3129 
Q 3597 2675 3597 1894 
z
M 3022 2063 
Q 3016 2534 2758 2815 
Q 2500 3097 2075 3097 
Q 1594 3097 1305 2825 
Q 1016 2553 972 2059 
L 3022 2063 
z
" transform="scale(0.015625)"/>
       <path id="DejaVuSans-20" transform="scale(0.015625)"/>
       <path id="DejaVuSans-28" d="M 1984 4856 
Q 1566 4138 1362 3434 
Q 1159 2731 1159 2009 
Q 1159 1288 1364 580 
Q 1569 -128 1984 -844 
L 1484 -844 
Q 1016 -109 783 600 
Q 550 1309 550 2009 
Q 550 2706 781 3412 
Q 1013 4119 1484 4856 
L 1984 4856 
z
" transform="scale(0.015625)"/>
       <path id="DejaVuSans-b0" d="M 1600 4347 
Q 1350 4347 1178 4173 
Q 1006 4000 1006 3750 
Q 1006 3503 1178 3333 
Q 1350 3163 1600 3163 
Q 1850 3163 2022 3333 
Q 2194 3503 2194 3750 
Q 2194 3997 2020 4172 
Q 1847 4347 1600 4347 
z
M 1600 4750 
Q 1800 4750 1984 4673 
Q 2169 4597 2303 4453 
Q 2447 4313 2519 4134 
Q 2591 3956 2591 3750 
Q 2591 3338 2302 3052 
Q 2013 2766 1594 2766 
Q 1172 2766 890 3047 
Q 609 3328 609 3750 
Q 609 4169 896 4459 
Q 1184 4750 1600 4750 
z
" transform="scale(0.015625)"/>
       <path id="DejaVuSans-29" d="M 513 4856 
L 1013 4856 
Q 1481 4119 1714 3412 
Q 1947 2706 1947 2009 
Q 1947 1309 1714 600 
Q 1481 -109 1013 -844 
L 513 -844 
Q 928 -128 1133 580 
Q 1338 1288 1338 2009 
Q 1338 2731 1133 3434 
Q 928 4138 513 4856 
z
" transform="scale(0.015625)"/>
      </defs>
      <use xlink:href="#DejaVuSans-4c"/>
      <use xlink:href="#DejaVuSans-6f" transform="translate(53.962891 0)"/>
      <use xlink:href="#DejaVuSans-6e" transform="translate(115.144531 0)"/>
      <use xlink:href="#DejaVuSans-67" transform="translate(178.523438 0)"/>
      <use xlink:href="#DejaVuSans-69" transform="translate(242 0)"/>
      <use xlink:href="#DejaVuSans-74" transform="translate(269.783203 0)"/>
      <use xlink:href="#DejaVuSans-75" transform="translate(308.992188 0)"/>
      <use xlink:href="#DejaVuSans-64" transform="translate(372.371094 0)"/>
      <use xlink:href="#DejaVuSans-65" transform="translate(435.847656 0)"/>
      <use xlink:href="#DejaVuSans-20" transform="translate(497.371094 0)"/>
      <use xlink:href="#DejaVuSans-28" transform="translate(529.158203 0)"/>
      <use xlink:href="#DejaVuSans-b0" transform="translate(568.171875 0)"/>
      <use xlink:href="#DejaVuSans-29" transform="translate(618.171875 0)"/>
     </g>
    </g>
   </g>
   <g id="matplotlib.axis_2">
    <g id="ytick_1">
     <g id="line2d_15">
      <path d="M 90 575.287142 
L 648 575.287142 
" clip-path="url(#pad2fd6cc16)" style="fill: none; stroke: #b0b0b0; stroke-width: 0.8; stroke-linecap: square"/>
     </g>
     <g id="line2d_16">
      <defs>
       <path id="m9d5de6b3e0" d="M 0 0 
L -3.5 0 
" style="stroke: #000000; stroke-width: 0.8"/>
      </defs>
      <g>
       <use xlink:href="#m9d5de6b3e0" x="90" y="575.287142" style="stroke: #000000; stroke-width: 0.8"/>
      </g>
     </g>
     <g id="text_9">
      <!-- 7.0 -->
      <g transform="translate(58.717187 579.086361) scale(0.1 -0.1)">
       <defs>
        <path id="DejaVuSans-37" d="M 525 4666 
L 3525 4666 
L 3525 4397 
L 1831 0 
L 1172 0 
L 2766 4134 
L 525 4134 
L 525 4666 
z
" transform="scale(0.015625)"/>
       </defs>
       <use xlink:href="#DejaVuSans-2212"/>
       <use xlink:href="#DejaVuSans-37" transform="translate(83.789062 0)"/>
       <use xlink:href="#DejaVuSans-2e" transform="translate(147.412109 0)"/>
       <use xlink:href="#DejaVuSans-30" transform="translate(179.199219 0)"/>
      </g>
     </g>
    </g>
    <g id="ytick_2">
     <g id="line2d_17">
      <path d="M 90 486.472203 
L 648 486.472203 
" clip-path="url(#pad2fd6cc16)" style="fill: none; stroke: #b0b0b0; stroke-width: 0.8; stroke-linecap: square"/>
     </g>
     <g id="line2d_18">
      <g>
       <use xlink:href="#m9d5de6b3e0" x="90" y="486.472203" style="stroke: #000000; stroke-width: 0.8"/>
      </g>
     </g>
     <g id="text_10">
      <!-- 6.8 -->
      <g transform="translate(58.717187 490.271422) scale(0.1 -0.1)">
       <use xlink:href="#DejaVuSans-2212"/>
       <use xlink:href="#DejaVuSans-36" transform="translate(83.789062 0)"/>
       <use xlink:href="#DejaVuSans-2e" transform="translate(147.412109 0)"/>
       <use xlink:href="#DejaVuSans-38" transform="translate(179.199219 0)"/>
      </g>
     </g>
    </g>
    <g id="ytick_3">
     <g id="line2d_19">
      <path d="M 90 397.657264 
L 648 397.657264 
" clip-path="url(#pad2fd6cc16)" style="fill: none; stroke: #b0b0b0; stroke-width: 0.8; stroke-linecap: square"/>
     </g>
     <g id="line2d_20">
      <g>
       <use xlink:href="#m9d5de6b3e0" x="90" y="397.657264" style="stroke: #000000; stroke-width: 0.8"/>
      </g>
     </g>
     <g id="text_11">
      <!-- 6.6 -->
      <g transform="translate(58.717187 401.456483) scale(0.1 -0.1)">
       <use xlink:href="#DejaVuSans-2212"/>
       <use xlink:href="#DejaVuSans-36" transform="translate(83.789062 0)"/>
       <use xlink:href="#DejaVuSans-2e" transform="translate(147.412109 0)"/>
       <use xlink:href="#DejaVuSans-36" transform="translate(179.199219 0)"/>
      </g>
     </g>
    </g>
    <g id="ytick_4">
     <g id="line2d_21">
      <path d="M 90 308.842325 
L 648 308.842325 
" clip-path="url(#pad2fd6cc16)" style="fill: none; stroke: #b0b0b0; stroke-width: 0.8; stroke-linecap: square"/>
     </g>
     <g id="line2d_22">
      <g>
       <use xlink:href="#m9d5de6b3e0" x="90" y="308.842325" style="stroke: #000000; stroke-width: 0.8"/>
      </g>
     </g>
     <g id="text_12">
      <!-- 6.4 -->
      <g transform="translate(58.717187 312.641543) scale(0.1 -0.1)">
       <use xlink:href="#DejaVuSans-2212"/>
       <use xlink:href="#DejaVuSans-36" transform="translate(83.789062 0)"/>
       <use xlink:href="#DejaVuSans-2e" transform="translate(147.412109 0)"/>
       <use xlink:href="#DejaVuSans-34" transform="translate(179.199219 0)"/>
      </g>
     </g>
    </g>
    <g id="ytick_5">
     <g id="line2d_23">
      <path d="M 90 220.027385 
L 648 220.027385 
" clip-path="url(#pad2fd6cc16)" style="fill: none; stroke: #b0b0b0; stroke-width: 0.8; stroke-linecap: square"/>
     </g>
     <g id="line2d_24">
      <g>
       <use xlink:href="#m9d5de6b3e0" x="90" y="220.027385" style="stroke: #000000; stroke-width: 0.8"/>
      </g>
     </g>
     <g id="text_13">
      <!-- 6.2 -->
      <g transform="translate(58.717187 223.826604) scale(0.1 -0.1)">
       <use xlink:href="#DejaVuSans-2212"/>
       <use xlink:href="#DejaVuSans-36" transform="translate(83.789062 0)"/>
       <use xlink:href="#DejaVuSans-2e" transform="translate(147.412109 0)"/>
       <use xlink:href="#DejaVuSans-32" transform="translate(179.199219 0)"/>
      </g>
     </g>
    </g>
    <g id="text_14">
     <!-- Latitude () -->
     <g transform="translate(52.6375 464.889531) rotate(-90) scale(0.1 -0.1)">
      <defs>
       <path id="DejaVuSans-61" d="M 2194 1759 
Q 1497 1759 1228 1600 
Q 959 1441 959 1056 
Q 959 750 1161 570 
Q 1363 391 1709 391 
Q 2188 391 2477 730 
Q 2766 1069 2766 1631 
L 2766 1759 
L 2194 1759 
z
M 3341 1997 
L 3341 0 
L 2766 0 
L 2766 531 
Q 2569 213 2275 61 
Q 1981 -91 1556 -91 
Q 1019 -91 701 211 
Q 384 513 384 1019 
Q 384 1609 779 1909 
Q 1175 2209 1959 2209 
L 2766 2209 
L 2766 2266 
Q 2766 2663 2505 2880 
Q 2244 3097 1772 3097 
Q 1472 3097 1187 3025 
Q 903 2953 641 2809 
L 641 3341 
Q 956 3463 1253 3523 
Q 1550 3584 1831 3584 
Q 2591 3584 2966 3190 
Q 3341 2797 3341 1997 
z
" transform="scale(0.015625)"/>
      </defs>
      <use xlink:href="#DejaVuSans-4c"/>
      <use xlink:href="#DejaVuSans-61" transform="translate(55.712891 0)"/>
      <use xlink:href="#DejaVuSans-74" transform="translate(116.992188 0)"/>
      <use xlink:href="#DejaVuSans-69" transform="translate(156.201172 0)"/>
      <use xlink:href="#DejaVuSans-74" transform="translate(183.984375 0)"/>
      <use xlink:href="#DejaVuSans-75" transform="translate(223.193359 0)"/>
      <use xlink:href="#DejaVuSans-64" transform="translate(286.572266 0)"/>
      <use xlink:href="#DejaVuSans-65" transform="translate(350.048828 0)"/>
      <use xlink:href="#DejaVuSans-20" transform="translate(411.572266 0)"/>
      <use xlink:href="#DejaVuSans-28" transform="translate(443.359375 0)"/>
      <use xlink:href="#DejaVuSans-b0" transform="translate(482.373047 0)"/>
      <use xlink:href="#DejaVuSans-29" transform="translate(532.373047 0)"/>
     </g>
    </g>
   </g>
   <g id="patch_3">
    <path d="M 90 653.657486 
L 90 218.982514 
" style="fill: none; stroke: #000000; stroke-width: 0.8; stroke-linejoin: miter; stroke-linecap: square"/>
   </g>
   <g id="patch_4">
    <path d="M 648 653.657486 
L 648 218.982514 
" style="fill: none; stroke: #000000; stroke-width: 0.8; stroke-linejoin: miter; stroke-linecap: square"/>
   </g>
   <g id="patch_5">
    <path d="M 90 653.657486 
L 648 653.657486 
" style="fill: none; stroke: #000000; stroke-width: 0.8; stroke-linejoin: miter; stroke-linecap: square"/>
   </g>
   <g id="patch_6">
    <path d="M 90 218.982514 
L 648 218.982514 
" style="fill: none; stroke: #000000; stroke-width: 0.8; stroke-linejoin: miter; stroke-linecap: square"/>
   </g>
  </g>
 </g>
 <defs>
  <clipPath id="pad2fd6cc16">
   <rect x="90" y="218.982514" width="558" height="434.674972"/>
  </clipPath>
 </defs>
</svg>
