<?xml version="1.0" encoding="utf-8" standalone="no"?>
<!DOCTYPE svg PUBLIC "-//W3C//DTD SVG 1.1//EN"
  "http://www.w3.org/Graphics/SVG/1.1/DTD/svg11.dtd">
<svg xmlns:xlink="http://www.w3.org/1999/xlink" width="720pt" height="864pt" viewBox="0 0 720 864" xmlns="http://www.w3.org/2000/svg" version="1.1">
 <metadata>
  <rdf:RDF xmlns:dc="http://purl.org/dc/elements/1.1/" xmlns:cc="http://creativecommons.org/ns#" xmlns:rdf="http://www.w3.org/1999/02/22-rdf-syntax-ns#">
   <cc:Work>
    <dc:type rdf:resource="http://purl.org/dc/dcmitype/StillImage"/>
    <dc:date>2025-06-16T16:53:35.467655</dc:date>
    <dc:format>image/svg+xml</dc:format>
    <dc:creator>
     <cc:Agent>
      <dc:title>Matplotlib v3.10.1, https://matplotlib.org/</dc:title>
     </cc:Agent>
    </dc:creator>
   </cc:Work>
  </rdf:RDF>
 </metadata>
 <defs>
  <style type="text/css">*{stroke-linejoin: round; stroke-linecap: butt}</style>
 </defs>
 <g id="figure_1">
  <g id="patch_1">
   <path d="M 0 864 
L 720 864 
L 720 0 
L 0 0 
z
" style="fill: #ffffff"/>
  </g>
  <g id="axes_1">
   <g id="patch_2">
    <path d="M 109.548452 768.96 
L 628.451548 768.96 
L 628.451548 103.68 
L 109.548452 103.68 
z
" style="fill: #ffffff"/>
   </g>
   <g id="PatchCollection_1">
    <path d="M 222.747967 293.248407 
L 371.096004 284.099126 
L 373.766597 472.325446 
L 373.679197 472.382836 
L 373.54438 472.159456 
L 373.373616 472.009516 
L 373.124759 471.664525 
L 372.942226 471.32381 
L 372.823942 470.91911 
L 372.952617 470.479845 
L 373.147577 469.750011 
L 373.208102 469.561005 
L 373.272537 469.208146 
L 373.360295 469.015987 
L 373.359959 468.839184 
L 373.256845 468.685976 
L 373.22525 468.449257 
L 373.064286 468.116321 
L 372.783698 467.905418 
L 372.585815 467.850194 
L 372.448102 467.740925 
L 372.255321 467.648734 
L 372.20086 467.588081 
L 372.056297 467.544408 
L 371.891485 467.592402 
L 371.663972 467.752935 
L 371.301978 468.127018 
L 370.89746 468.531297 
L 370.821939 468.799523 
L 370.784019 469.005183 
L 370.620064 469.052658 
L 370.346225 468.947807 
L 369.932561 468.821693 
L 369.536758 468.694168 
L 369.551101 468.585815 
L 369.50793 468.430582 
L 369.218885 468.384616 
L 369.00188 468.407624 
L 368.885047 468.496141 
L 368.852145 468.711604 
L 368.782204 468.972842 
L 368.906115 469.137207 
L 368.932011 469.345641 
L 368.840717 469.519089 
L 368.795515 469.785915 
L 368.882775 470.280405 
L 368.928903 470.754587 
L 368.786298 471.121745 
L 368.470966 472.312248 
L 368.40887 472.388176 
L 368.304479 472.37144 
L 368.110257 472.26249 
L 368.028022 472.064965 
L 367.656085 471.679293 
L 367.168004 471.27929 
L 366.531641 470.716715 
L 365.965135 470.5379 
L 365.73187 470.540284 
L 365.467908 470.499229 
L 365.158797 470.138562 
L 365.015487 470.084964 
L 364.824969 470.144346 
L 364.751287 470.3224 
L 364.606895 470.339975 
L 364.362899 470.194964 
L 364.173893 470.171052 
L 364.007318 469.927293 
L 363.59278 469.60494 
L 362.974195 469.355452 
L 361.344515 468.95768 
L 360.805405 468.815925 
L 360.2003 468.393818 
L 359.944511 467.887425 
L 359.716763 467.212381 
L 359.416012 466.691481 
L 359.119959 466.275114 
L 358.612846 465.805425 
L 358.255408 465.673937 
L 357.870248 465.655 
L 357.384734 465.678715 
L 357.067001 465.758316 
L 356.818443 465.910622 
L 356.246439 466.036978 
L 355.719877 466.06796 
L 355.364786 466.214927 
L 355.232874 466.230205 
L 355.104033 466.147533 
L 354.985808 466.162076 
L 354.86271 466.134351 
L 354.834229 466.075416 
L 354.888737 465.937553 
L 354.799209 465.811247 
L 354.508494 465.775952 
L 354.368502 465.727241 
L 354.254059 465.726275 
L 354.126309 465.704432 
L 354.022134 465.594418 
L 353.903319 465.538431 
L 353.775799 465.586144 
L 353.69777 465.597193 
L 353.551035 465.526074 
L 353.425 465.574792 
L 353.299641 465.714875 
L 353.137967 465.761258 
L 352.973989 465.81121 
L 352.811775 466.086245 
L 352.721698 466.314899 
L 352.595177 466.470645 
L 352.52183 466.573067 
L 352.489117 466.714089 
L 352.378984 466.832664 
L 352.118941 466.818879 
L 351.974681 466.888167 
L 351.910498 467.011428 
L 351.889792 467.155802 
L 351.876521 467.32055 
L 351.810801 467.443434 
L 351.730808 467.452367 
L 351.651094 467.417502 
L 351.617539 467.341641 
L 351.603619 467.239435 
L 351.479263 467.161582 
L 351.323159 467.20287 
L 351.29709 467.379997 
L 351.227369 467.4739 
L 351.068057 467.481506 
L 350.991571 467.386681 
L 350.878412 467.386893 
L 350.807574 467.297292 
L 350.752707 467.127983 
L 350.812054 466.990392 
L 350.668375 466.82873 
L 350.34575 466.808604 
L 350.265206 466.939438 
L 350.316242 467.160085 
L 350.298377 467.403386 
L 350.193813 467.53348 
L 349.878711 467.647719 
L 349.662265 467.710622 
L 349.578494 467.798144 
L 349.197212 467.889821 
L 348.886001 467.797019 
L 348.798313 467.876725 
L 348.657083 468.013978 
L 348.667099 468.105601 
L 348.56173 468.220204 
L 348.392401 468.225321 
L 348.252352 468.336013 
L 348.258299 468.629574 
L 348.389584 468.790967 
L 348.519203 469.41245 
L 348.484764 469.602865 
L 348.358865 469.679193 
L 348.300832 469.642465 
L 348.300679 469.5599 
L 348.26159 469.395511 
L 348.055696 469.296437 
L 347.872429 469.256708 
L 347.737125 469.321377 
L 347.614224 469.308045 
L 347.448948 469.342689 
L 347.394798 469.530142 
L 347.244338 469.734115 
L 347.134495 469.789634 
L 347.051576 469.740402 
L 347.006236 469.445469 
L 346.832378 469.171576 
L 346.701691 469.040567 
L 346.500837 469.040943 
L 346.117837 468.888452 
L 345.642431 468.646197 
L 345.174157 468.317767 
L 345.006108 467.90329 
L 344.692771 467.509149 
L 343.412648 466.215003 
L 342.893883 465.550562 
L 342.604452 464.737628 
L 342.561892 464.149213 
L 342.57394 463.944976 
L 342.599167 463.593481 
L 342.422601 463.22452 
L 341.929583 462.893962 
L 341.909236 462.782527 
L 341.813223 462.677109 
L 341.713699 462.713016 
L 341.547638 462.652604 
L 341.537221 462.445602 
L 341.652532 462.362403 
L 341.823248 462.145272 
L 341.89397 461.838668 
L 341.759242 461.588977 
L 341.540771 461.529459 
L 341.207126 461.530078 
L 340.857768 461.715921 
L 340.088238 461.977628 
L 339.055643 462.253936 
L 338.583352 462.25481 
L 337.738821 462.170861 
L 337.430415 462.192122 
L 337.204079 462.080768 
L 336.949099 461.837718 
L 336.79162 461.735135 
L 336.766692 461.557747 
L 336.670598 461.461412 
L 336.654903 461.294952 
L 336.668325 461.032978 
L 336.775802 460.805479 
L 336.973964 460.505197 
L 337.003083 460.322712 
L 336.957351 460.170341 
L 336.851593 459.987307 
L 336.890752 459.79457 
L 337.013469 459.727788 
L 337.267132 459.573908 
L 337.327283 459.303014 
L 337.291625 459.051613 
L 337.3095 458.91685 
L 337.283715 458.826666 
L 337.146315 458.696791 
L 336.967491 458.667838 
L 336.783463 458.857407 
L 336.317913 459.136965 
L 336.179626 459.331678 
L 336.106256 459.376802 
L 336.006282 459.322872 
L 335.50781 459.341238 
L 335.100883 459.512726 
L 334.243907 459.776522 
L 333.774263 460.011751 
L 333.372479 460.265085 
L 332.927644 460.502598 
L 332.525718 460.766814 
L 332.313728 460.916437 
L 332.199408 460.94629 
L 331.793867 461.35206 
L 331.629719 461.771119 
L 331.492802 462.033157 
L 331.489739 462.20225 
L 331.451775 462.579733 
L 331.258474 462.854684 
L 330.69827 463.043517 
L 329.487941 462.915129 
L 329.409229 462.927065 
L 329.198103 462.877487 
L 329.123616 462.955603 
L 328.972775 462.908527 
L 328.79588 462.809276 
L 328.47496 462.948363 
L 328.385346 463.125399 
L 328.142308 463.162536 
L 327.963848 463.301185 
L 327.887208 463.506443 
L 327.869631 464.811473 
L 327.747422 465.451992 
L 327.614466 465.586259 
L 327.304934 465.582609 
L 327.01269 465.625162 
L 326.794214 465.603134 
L 326.620691 465.787131 
L 326.306796 465.897104 
L 325.926386 465.90187 
L 325.649748 465.761312 
L 325.482374 465.577532 
L 325.403001 465.339377 
L 325.17967 465.272488 
L 324.943545 465.343229 
L 324.831565 465.820718 
L 324.965166 466.739603 
L 325.011105 467.038813 
L 325.071489 467.228577 
L 325.02176 467.989644 
L 324.866033 468.482533 
L 324.620578 468.751416 
L 324.481568 469.040718 
L 324.161782 469.189608 
L 324.071204 469.408644 
L 324.182115 469.610052 
L 324.051044 469.837964 
L 323.941155 469.848218 
L 323.816576 469.971776 
L 323.648552 469.972083 
L 323.420072 470.121087 
L 323.333483 470.112815 
L 323.106222 470.202383 
L 322.887749 470.220086 
L 322.698061 470.485844 
L 322.486795 470.555212 
L 322.323334 470.593482 
L 322.071444 470.799415 
L 321.882485 470.821493 
L 321.711445 470.709183 
L 321.499343 470.672995 
L 321.395166 470.608367 
L 321.400767 470.423258 
L 321.244559 470.289027 
L 321.08492 470.357032 
L 320.939649 470.467072 
L 320.775398 470.464522 
L 320.675433 470.505511 
L 320.540245 470.439314 
L 320.398038 470.533913 
L 320.135915 470.952023 
L 320.081102 471.30204 
L 319.775921 471.799318 
L 319.631039 471.932326 
L 319.379226 471.80851 
L 319.16499 471.618139 
L 319.009218 471.347592 
L 318.732236 471.266851 
L 318.45766 471.591566 
L 318.343071 472.382904 
L 318.713422 473.513567 
L 318.837596 474.348899 
L 318.998195 475.274467 
L 318.966064 475.94129 
L 318.932604 476.384119 
L 318.81608 476.875448 
L 318.816897 476.988762 
L 318.688 477.306443 
L 318.608745 477.613577 
L 318.250455 477.984512 
L 317.824681 478.278773 
L 317.636416 478.468885 
L 317.590439 478.605584 
L 317.418123 478.756509 
L 317.345161 478.735677 
L 317.277292 478.647801 
L 317.092502 478.726636 
L 316.69055 479.064859 
L 316.450809 479.193472 
L 316.383464 479.285977 
L 316.200066 479.291436 
L 315.801424 479.070873 
L 315.588465 479.17679 
L 315.532128 479.351836 
L 315.487797 480.525446 
L 315.56096 480.884933 
L 315.755877 481.217371 
L 316.04798 481.777524 
L 316.163637 482.376756 
L 316.421781 482.899733 
L 316.512294 483.016298 
L 316.539902 483.142159 
L 316.57093 483.283617 
L 316.734971 483.492906 
L 316.73115 484.487413 
L 316.583281 485.390143 
L 316.226052 485.948813 
L 315.481993 486.119371 
L 315.178946 486.248577 
L 315.060973 486.212154 
L 314.9769 486.265697 
L 314.589243 486.304327 
L 314.284484 486.088476 
L 314.027471 486.075903 
L 313.569118 485.995502 
L 312.335297 485.955573 
L 311.034826 485.70443 
L 310.745515 485.699845 
L 310.160638 485.660668 
L 309.809219 485.558867 
L 309.286001 485.635759 
L 309.077385 485.568081 
L 309.023846 485.500286 
L 308.868656 485.417463 
L 308.693483 485.295497 
L 308.513083 485.206063 
L 308.386461 485.233848 
L 308.194291 485.160903 
L 307.902567 485.161428 
L 307.649721 485.296786 
L 307.450811 485.60266 
L 307.291932 485.808144 
L 307.178917 486.014619 
L 307.083436 486.086322 
L 306.971716 486.321993 
L 306.892123 486.38801 
L 306.620126 486.376246 
L 306.383167 486.421671 
L 306.204378 486.602206 
L 305.849075 486.926812 
L 305.29089 487.873734 
L 304.505568 488.331473 
L 304.313855 488.667883 
L 304.100408 488.821179 
L 303.913436 488.849762 
L 303.365521 488.659114 
L 302.404648 488.308765 
L 301.663197 488.168041 
L 301.059542 487.97342 
L 300.54734 487.808324 
L 300.259818 487.786924 
L 299.861567 487.904028 
L 298.994159 488.275399 
L 298.015231 488.650228 
L 297.889448 488.76717 
L 297.649419 488.919993 
L 297.34839 489.049425 
L 297.059123 489.221942 
L 296.798701 489.317749 
L 296.425777 489.318412 
L 296.286603 489.388737 
L 295.926819 489.221922 
L 295.39665 488.833283 
L 294.722731 488.117569 
L 294.617168 487.803243 
L 294.460778 487.522826 
L 294.372263 487.382146 
L 294.202551 487.365085 
L 293.879393 487.515653 
L 293.687934 487.66933 
L 293.510536 487.790389 
L 293.326289 487.897217 
L 293.129402 487.894735 
L 292.932626 487.919087 
L 292.513495 488.02309 
L 291.906126 488.188772 
L 291.336984 488.376272 
L 291.085394 488.517768 
L 290.987308 488.633316 
L 290.909375 488.768809 
L 290.781264 488.817029 
L 290.454216 488.726991 
L 290.195215 488.560162 
L 289.902883 487.789597 
L 289.675552 487.330833 
L 289.584722 487.242523 
L 289.148699 487.115825 
L 288.57579 487.281 
L 288.391049 487.25407 
L 288.046067 487.406811 
L 287.793127 487.587853 
L 287.60659 487.7236 
L 287.353923 487.825391 
L 287.121526 487.886731 
L 286.601403 487.821525 
L 286.000144 487.599845 
L 285.74817 487.411861 
L 285.559688 487.355921 
L 285.413406 487.269159 
L 285.269709 487.258291 
L 285.207042 487.368247 
L 285.110745 487.442457 
L 284.916774 487.449884 
L 284.152206 487.205485 
L 283.799636 487.142949 
L 283.462889 486.984521 
L 282.933125 486.934262 
L 282.6571 487.032466 
L 282.396271 487.197485 
L 281.859438 487.232904 
L 281.354594 487.195841 
L 281.133543 487.178991 
L 280.943209 487.111274 
L 280.437962 487.112156 
L 279.880388 487.387539 
L 279.648561 487.383542 
L 279.539402 487.529042 
L 279.037694 487.711531 
L 278.78604 487.724955 
L 278.683799 487.616411 
L 278.612818 487.366396 
L 278.567913 487.076062 
L 278.345213 486.965654 
L 278.145342 486.96198 
L 278.051693 487.080181 
L 277.863044 487.284016 
L 277.769188 487.289735 
L 277.62005 487.195164 
L 277.594251 487.050599 
L 277.52649 486.794371 
L 277.483539 486.619217 
L 277.383429 486.382929 
L 277.296169 486.221507 
L 277.309495 486.004402 
L 277.257888 485.795066 
L 277.110025 485.643275 
L 277.029595 485.37642 
L 276.836228 485.320578 
L 276.687754 485.444038 
L 276.719615 485.630863 
L 276.605344 485.728594 
L 276.549708 485.844483 
L 276.171528 486.16496 
L 275.854487 486.215892 
L 275.563061 486.165857 
L 275.369985 486.035317 
L 274.775425 485.91068 
L 274.486524 485.992439 
L 273.610669 485.991935 
L 273.204383 485.900696 
L 272.519549 486.024416 
L 271.911226 486.063168 
L 271.391723 486.134244 
L 270.971919 486.12065 
L 270.807948 486.215301 
L 270.580373 486.639761 
L 270.372758 486.789512 
L 270.047557 486.796309 
L 269.782739 486.706298 
L 269.319444 486.57145 
L 268.577223 486.320179 
L 267.936767 485.860947 
L 267.567503 485.881933 
L 267.15053 485.896406 
L 266.965073 485.790658 
L 266.843507 485.550644 
L 266.56154 485.472358 
L 266.162682 485.734906 
L 266.070905 485.752942 
L 265.81249 485.650916 
L 265.603148 485.828308 
L 265.036124 486.169514 
L 264.855951 486.311412 
L 264.372343 486.973324 
L 264.34711 487.322271 
L 264.408703 487.479853 
L 264.335376 487.708934 
L 264.13094 487.892401 
L 263.912183 487.91249 
L 263.661987 487.874902 
L 263.26174 487.586185 
L 262.935307 486.977969 
L 262.717075 486.911284 
L 262.422598 487.297296 
L 262.216152 487.361976 
L 261.718335 487.727554 
L 261.559983 487.773369 
L 259.825713 487.021985 
L 259.550361 487.022454 
L 259.132313 487.223227 
L 258.824042 487.11913 
L 258.508963 486.415618 
L 258.152816 485.99583 
L 257.702446 485.7681 
L 257.463055 485.512044 
L 257.451734 485.297482 
L 257.45125 485.00924 
L 257.393297 484.904252 
L 257.231864 484.899051 
L 257.170769 484.864705 
L 257.191715 484.72714 
L 257.05461 484.581194 
L 257.022711 484.445813 
L 256.929375 484.304006 
L 256.834725 484.244709 
L 256.540641 484.280026 
L 256.283655 484.203628 
L 256.071822 484.044945 
L 255.64223 483.923687 
L 255.537167 483.958166 
L 255.315728 483.914622 
L 255.223997 483.696869 
L 255.02646 483.566171 
L 254.821582 483.628391 
L 254.541222 484.198498 
L 254.311588 484.311202 
L 253.929899 484.379243 
L 253.348732 484.052714 
L 253.185567 483.903324 
L 252.946565 483.615199 
L 252.681333 483.870334 
L 252.528226 483.781981 
L 252.388773 483.843063 
L 252.137936 483.579547 
L 251.848242 483.615528 
L 251.535621 483.526572 
L 251.38463 483.515386 
L 251.238476 483.449172 
L 251.244107 483.278534 
L 251.370353 483.177037 
L 251.445747 482.963221 
L 251.390325 482.746744 
L 251.38719 482.548644 
L 251.251972 482.356875 
L 251.064568 482.387611 
L 250.944064 482.57776 
L 250.743303 482.705333 
L 250.542187 482.703586 
L 250.509065 482.610271 
L 249.980471 482.160543 
L 249.880028 482.157203 
L 249.72725 482.347742 
L 249.534051 482.353958 
L 249.45239 482.198601 
L 249.501623 481.955858 
L 249.303429 481.757107 
L 249.172074 481.814011 
L 249.038249 482.088206 
L 249.010984 482.32281 
L 249.051987 482.521233 
L 248.954785 482.591325 
L 248.602902 482.691097 
L 248.228554 482.650139 
L 248.150648 482.54561 
L 248.174852 482.016798 
L 248.153407 481.667978 
L 248.078884 481.518241 
L 248.077579 481.231337 
L 247.9474 480.96452 
L 247.842396 480.834922 
L 247.49715 480.924741 
L 247.306701 480.957007 
L 246.994996 480.781421 
L 246.85696 480.433984 
L 246.659955 480.066044 
L 246.43131 479.867746 
L 246.11751 479.822711 
L 245.932569 480.080745 
L 246.041564 480.288078 
L 246.032557 480.384938 
L 245.961692 480.41424 
L 245.655587 480.308815 
L 245.302057 480.330813 
L 245.037864 480.402173 
L 244.789358 480.575175 
L 244.541937 480.82733 
L 244.340439 480.837129 
L 244.241553 480.729583 
L 244.25093 480.573099 
L 244.38876 480.226515 
L 244.329955 479.968162 
L 243.96124 479.76727 
L 243.641323 479.949913 
L 243.61506 480.150639 
L 243.548873 480.284385 
L 243.283866 480.381847 
L 242.969876 480.553651 
L 242.774532 481.054003 
L 242.844002 481.496546 
L 243.164238 481.496012 
L 243.260527 481.72104 
L 242.999669 482.077929 
L 242.762939 482.294331 
L 242.494047 482.583897 
L 242.229793 482.98682 
L 242.105491 483.465302 
L 242.003931 483.60202 
L 241.685632 483.696331 
L 241.102682 483.700615 
L 240.868192 483.59891 
L 240.724014 483.772456 
L 239.959725 484.28696 
L 239.51269 484.524353 
L 239.048293 484.702622 
L 238.878293 485.072629 
L 238.781107 485.378072 
L 238.706007 485.53299 
L 238.389086 485.76086 
L 237.882731 485.796329 
L 237.343662 485.75065 
L 237.173276 485.885807 
L 236.89706 485.886265 
L 236.644929 485.764237 
L 236.593055 485.44957 
L 236.693555 485.018019 
L 236.60774 484.632217 
L 236.45052 484.414779 
L 236.020471 484.269727 
L 235.622974 484.180107 
L 235.193259 484.21529 
L 234.83576 484.168235 
L 233.533548 484.641331 
L 232.665614 484.827594 
L 231.448064 485.289277 
L 231.18153 485.548552 
L 231.007736 485.568846 
L 230.789678 485.732959 
L 230.466832 485.679106 
L 230.219292 485.419487 
L 230.120752 484.941864 
L 230.213149 484.632534 
L 230.255274 483.988148 
L 230.421658 483.735545 
L 229.974532 483.198095 
L 228.96312 482.700467 
L 228.118582 482.176677 
L 227.905426 482.158145 
L 227.310115 481.159732 
L 227.262111 480.947876 
L 226.712561 480.027281 
L 226.752507 479.695351 
L 226.453375 479.491399 
L 225.937295 479.863577 
L 225.537908 479.717297 
L 225.305852 479.312752 
L 225.152284 478.658258 
L 225.3612 478.267867 
L 225.245464 477.885811 
L 224.773833 477.819621 
L 224.367488 477.950836 
L 223.901149 477.81348 
L 223.513421 478.056864 
L 223.016049 478.476025 
L 222.392594 478.543992 
L 221.85453 478.68115 
L 221.30181 478.985098 
L 220.914721 479.419369 
L 220.618918 479.670985 
L 220.415808 479.649616 
L 220.083996 479.358939 
L 219.861946 479.251724 
L 219.21556 479.168361 
L 218.985941 478.959006 
L 218.376246 478.800202 
L 218.13921 478.474932 
L 217.922157 478.354742 
L 217.801684 478.212706 
L 217.758808 478.023283 
L 217.826123 477.584383 
L 218.16587 477.351462 
L 218.200161 477.12226 
L 217.796186 476.789953 
L 217.337768 476.933404 
L 216.669725 477.526298 
L 215.73651 478.77117 
L 215.307677 478.945385 
L 214.093925 478.860392 
L 213.206031 478.36075 
L 212.689817 478.054106 
L 212.222865 477.911485 
L 211.670278 477.557093 
L 211.402929 477.290032 
L 211.257541 476.857632 
L 211.159744 476.621638 
L 210.867201 476.456309 
L 210.526982 476.434035 
L 209.6406 476.678793 
L 208.700994 477.153376 
L 208.316759 477.190468 
L 207.465885 477.608504 
L 206.113905 477.89622 
L 205.814897 477.900707 
L 205.567333 477.702079 
L 205.356774 477.635981 
L 205.162832 477.399509 
L 204.883607 477.014029 
L 204.304517 476.988363 
L 203.961034 476.921233 
L 203.795527 476.952729 
L 203.513092 476.857361 
L 203.244076 476.775911 
L 202.980425 476.73743 
L 202.665593 476.665647 
L 202.464004 476.537988 
L 202.269027 476.519435 
L 202.05716 476.558087 
L 201.972142 476.680254 
L 201.836866 476.724727 
L 201.68303 476.855304 
L 201.520154 476.910218 
L 201.350231 477.183331 
L 201.145589 477.229823 
L 201.037087 477.444306 
L 201.065734 477.674325 
L 200.87055 477.8582 
L 200.727332 477.856702 
L 199.627472 477.712538 
L 198.775201 477.671613 
L 198.434733 477.492303 
L 198.262165 477.158294 
L 198.034202 476.885193 
L 197.81133 476.832799 
L 197.389569 476.883398 
L 197.159637 476.977611 
L 196.719922 477.227011 
L 196.332148 477.350713 
L 195.869908 477.488646 
L 195.643355 477.432037 
L 195.341446 477.222431 
L 195.265894 477.065176 
L 194.964123 476.562915 
L 194.881551 476.3023 
L 194.687787 476.219104 
L 194.409618 476.271628 
L 194.021533 476.562285 
L 193.875372 476.888404 
L 193.663996 477.130585 
L 193.475581 477.157969 
L 193.225902 477.038547 
L 192.981807 476.73998 
L 192.734592 476.473416 
L 192.225402 476.215721 
L 192.0386 476.24439 
L 191.882217 476.179684 
L 191.675048 476.153379 
L 191.43632 476.200949 
L 191.140997 476.227252 
L 190.921127 476.35293 
L 190.664273 476.336659 
L 190.437411 476.414578 
L 190.076471 476.489545 
L 189.872017 476.481797 
L 189.618778 476.389221 
L 189.494664 476.278067 
L 189.35005 476.292382 
L 189.255344 476.299861 
L 189.136432 476.197039 
L 188.955075 476.174516 
L 188.769044 476.183399 
L 188.632498 476.060132 
L 188.528211 475.87716 
L 188.283853 475.779254 
L 187.961479 475.779755 
L 187.563126 475.857476 
L 187.029597 476.037341 
L 186.792882 476.162269 
L 186.596924 476.205869 
L 186.080053 476.137344 
L 185.886022 476.034975 
L 185.585954 476.04093 
L 185.473098 476.154835 
L 185.11937 476.218782 
L 184.489382 476.214687 
L 184.012846 476.307641 
L 183.414932 476.333123 
L 182.238139 476.886994 
L 181.550327 476.989501 
L 181.135489 476.857121 
L 180.566552 476.857998 
L 180.188146 477.02648 
L 180.048852 477.552086 
L 180.158877 477.870321 
L 180.111569 478.201123 
L 180.195787 478.894315 
L 180.039853 479.051692 
L 179.903644 479.082368 
L 179.780948 478.976078 
L 179.103201 478.667692 
L 178.786111 478.383958 
L 178.646474 478.00892 
L 178.049254 478.078908 
L 177.298931 478.317023 
L 176.299634 479.38489 
L 175.885216 478.740702 
L 133.134956 406.840253 
L 198.522535 327.988722 
L 222.747967 293.248407 
" clip-path="url(#p1f1dec28cc)" style="fill: #e0bd1f; stroke: #0000ff; stroke-width: 0.5"/>
    <path d="M 357.577079 270.650024 
L 359.001878 271.257409 
L 360.511324 271.660656 
L 361.540504 272.807924 
L 363.819279 275.058419 
L 368.752759 274.684196 
L 370.100589 275.006315 
L 374.705888 276.9935 
L 366.172574 292.572788 
L 349.713664 282.985053 
L 351.306282 280.468599 
L 353.179924 277.558048 
L 357.088769 271.318045 
L 357.577079 270.650024 
" clip-path="url(#p1f1dec28cc)" style="fill: #e0bd1f; stroke: #0000ff; stroke-width: 0.5"/>
    <path d="M 413.478091 249.681383 
L 393.258093 228.261824 
L 396.753561 225.379075 
L 401.229476 221.219349 
L 406.968754 219.336533 
L 411.712976 217.854226 
L 416.035001 216.503793 
L 423.496832 214.865571 
L 425.753444 217.754876 
L 422.740784 233.578523 
L 422.745411 233.586348 
L 427.759335 241.210952 
L 413.478091 249.681383 
" clip-path="url(#p1f1dec28cc)" style="fill: #e0bd1f; stroke: #0000ff; stroke-width: 0.5"/>
    <path d="M 483.492091 253.536513 
L 482.510629 252.182457 
L 481.746368 251.62227 
L 478.264843 251.329089 
L 476.460478 250.994332 
L 474.70483 250.482126 
L 473.337278 249.711859 
L 467.652361 244.464939 
L 465.605168 237.701319 
L 464.784112 236.701977 
L 462.1278 234.386413 
L 462.751079 234.183817 
L 463.278262 233.951135 
L 464.762151 234.737008 
L 465.887253 234.645951 
L 466.788654 234.994195 
L 468.149346 235.104898 
L 469.238385 235.091376 
L 470.387044 234.904569 
L 471.328648 234.562876 
L 472.291689 233.924791 
L 473.322057 233.621664 
L 474.25994 233.411456 
L 475.370037 233.759744 
L 476.229319 232.55197 
L 477.266524 231.721798 
L 478.144699 230.536993 
L 478.711492 229.910645 
L 479.148076 229.551045 
L 478.764349 229.190832 
L 474.991998 220.789914 
L 480.32938 219.192958 
L 485.639634 217.525535 
L 493.439403 215.350816 
L 496.502778 214.555026 
L 504.407594 230.752733 
L 501.752598 231.584539 
L 482.782179 236.966549 
L 484.618555 240.635633 
L 483.951105 241.625106 
L 483.762135 242.67386 
L 483.170153 244.170488 
L 483.198287 245.319575 
L 482.389782 246.552748 
L 482.46953 247.909168 
L 482.510226 249.022 
L 482.619415 250.070033 
L 482.413526 251.409766 
L 483.492091 253.536513 
" clip-path="url(#p1f1dec28cc)" style="fill: #e0bd1f; stroke: #0000ff; stroke-width: 0.5"/>
    <path d="M 451.115486 261.433551 
L 441.764818 243.126671 
L 442.415887 242.925133 
L 443.199774 241.832847 
L 443.571578 241.615441 
L 444.161313 241.031193 
L 446.51084 240.736851 
L 447.266577 240.08676 
L 448.449671 239.350803 
L 449.479443 238.712394 
L 450.392095 238.075383 
L 451.518377 238.153908 
L 452.61882 238.270358 
L 453.372764 238.142259 
L 454.01945 237.786997 
L 454.920286 237.389259 
L 455.903011 236.782021 
L 457.173366 236.521167 
L 458.690193 236.358091 
L 459.632425 235.701679 
L 460.374006 235.891387 
L 461.104878 236.481783 
L 461.753844 235.584226 
L 461.91836 234.902408 
L 464.435371 237.047049 
L 465.167548 237.938212 
L 467.225065 244.735955 
L 473.049845 250.111964 
L 474.515614 250.93755 
L 476.34823 251.472211 
L 478.200222 251.815804 
L 481.599427 252.102052 
L 482.369509 252.540387 
L 483.122392 253.958981 
L 482.73065 254.07568 
L 482.222314 254.751735 
L 482.646438 255.962748 
L 482.758185 257.072766 
L 482.469538 258.292986 
L 481.045936 258.433649 
L 460.269289 260.562568 
L 451.115486 261.433551 
" clip-path="url(#p1f1dec28cc)" style="fill: #e0bd1f; stroke: #0000ff; stroke-width: 0.5"/>
    <path d="M 419.592905 255.19702 
L 419.429158 254.904398 
L 419.387114 254.810177 
L 419.523195 254.671341 
L 419.225583 254.511374 
L 419.14486 254.277445 
L 419.342093 254.129084 
L 419.142065 253.534691 
L 419.654425 253.004096 
L 420.357181 252.643445 
L 422.014975 252.673367 
L 422.669944 252.434306 
L 422.788667 252.25956 
L 422.680784 252.077505 
L 423.146418 251.50495 
L 424.815673 251.474011 
L 425.813958 250.860316 
L 426.457402 250.646616 
L 427.065668 250.473971 
L 427.299961 250.722815 
L 427.453094 250.511063 
L 427.947383 250.210249 
L 429.171835 250.79419 
L 431.037888 249.98988 
L 431.768517 249.653666 
L 432.118173 249.408611 
L 432.099596 249.053753 
L 432.462994 248.97797 
L 432.507192 248.388812 
L 432.868082 248.092896 
L 427.764666 241.20779 
L 422.747744 233.578622 
L 430.27707 223.565289 
L 439.665672 236.855462 
L 438.488333 238.357543 
L 438.335467 239.879035 
L 437.630891 240.306247 
L 437.142727 242.874908 
L 437.306358 243.751125 
L 437.086172 244.158755 
L 436.490059 244.241698 
L 435.763325 244.987998 
L 435.54665 245.463071 
L 434.475285 246.596614 
L 434.254999 246.995494 
L 433.672615 247.099462 
L 433.015059 248.137008 
L 433.110214 248.653131 
L 433.813508 249.189374 
L 433.716299 249.35438 
L 433.28099 249.610593 
L 432.017332 250.076891 
L 430.852436 250.38154 
L 429.531699 251.051467 
L 427.537812 251.78971 
L 426.441031 252.050404 
L 425.63666 252.143158 
L 424.981296 252.592463 
L 424.031529 253.355913 
L 423.45793 253.742562 
L 422.798766 253.590379 
L 422.490129 253.871081 
L 421.700811 254.188566 
L 421.302121 254.145914 
L 420.243204 254.356087 
L 419.96385 254.828084 
L 419.592905 255.19702 
" clip-path="url(#p1f1dec28cc)" style="fill: #e0bd1f; stroke: #0000ff; stroke-width: 0.5"/>
    <path d="M 424.849255 264.561668 
L 419.628349 255.260264 
L 420.019096 254.871634 
L 420.287117 254.418785 
L 421.305246 254.216708 
L 421.710615 254.260075 
L 422.527538 253.931486 
L 422.818535 253.666828 
L 423.471676 253.817621 
L 424.072682 253.412496 
L 425.022663 252.648875 
L 425.661646 252.210801 
L 426.453031 252.119544 
L 427.557896 251.856928 
L 429.559464 251.115841 
L 430.877126 250.447474 
L 432.03811 250.143848 
L 433.31077 249.674229 
L 433.76698 249.405713 
L 433.905079 249.171299 
L 433.17373 248.613665 
L 433.088503 248.151394 
L 433.714859 247.163079 
L 434.299749 247.058663 
L 434.531817 246.63845 
L 435.605067 245.502911 
L 435.82152 245.028326 
L 436.523129 244.307828 
L 437.130527 244.223315 
L 437.37934 243.762688 
L 437.213571 242.875023 
L 437.693416 240.350129 
L 438.401211 239.920965 
L 438.555541 238.384911 
L 439.705414 236.91787 
L 442.342687 241.517237 
L 442.433338 242.18211 
L 441.957015 242.005477 
L 441.892086 242.577627 
L 441.759172 243.12596 
L 451.167131 261.540445 
L 424.849255 264.561668 
" clip-path="url(#p1f1dec28cc)" style="fill: #e0bd1f; stroke: #0000ff; stroke-width: 0.5"/>
    <path d="M 423.166171 684.085443 
L 422.535538 683.734932 
L 422.082077 684.146461 
L 420.986297 683.259357 
L 419.763212 682.850428 
L 419.359238 683.009779 
L 418.504493 683.426431 
L 418.030601 683.747603 
L 416.698664 683.933303 
L 415.484459 682.448406 
L 414.933125 682.232211 
L 414.40837 682.84408 
L 413.977058 682.713725 
L 413.666359 683.022 
L 412.746428 683.668691 
L 412.023808 683.822719 
L 411.711602 684.592056 
L 411.653478 685.155295 
L 410.793594 684.914159 
L 409.572064 685.133449 
L 408.901447 684.863331 
L 408.510404 685.03317 
L 408.510302 685.617602 
L 407.686757 685.783684 
L 407.493975 685.546338 
L 406.819664 685.651037 
L 406.291788 686.169517 
L 405.612069 686.37137 
L 404.892336 686.581448 
L 403.687749 686.853203 
L 402.866548 687.720791 
L 402.332402 688.585675 
L 401.452775 689.48078 
L 401.183162 690.536346 
L 400.624023 691.436028 
L 400.177291 691.608053 
L 399.514263 691.987935 
L 398.933287 693.512565 
L 398.211569 694.21023 
L 397.314777 694.21135 
L 397.371163 694.51446 
L 396.903687 694.693659 
L 396.869836 695.011425 
L 395.43266 695.88677 
L 394.560276 695.779787 
L 393.86237 696.207661 
L 393.901806 696.766209 
L 393.598465 697.422033 
L 393.398735 697.753724 
L 393.264544 698.863548 
L 392.941567 699.379332 
L 392.786916 699.968061 
L 391.876587 700.522002 
L 391.429666 701.749541 
L 391.386589 702.265136 
L 390.987083 702.78641 
L 391.452798 703.349995 
L 391.324247 703.994869 
L 390.966118 704.466893 
L 391.028386 704.873436 
L 390.810217 705.622495 
L 390.399293 706.152341 
L 390.342174 706.760941 
L 389.745604 707.355941 
L 389.450293 708.643751 
L 389.145361 708.522092 
L 388.977786 709.177893 
L 388.426728 710.05212 
L 387.944608 710.645578 
L 387.75287 711.740152 
L 387.303048 711.766195 
L 381.426444 714.352057 
L 378.171162 717.156083 
L 378.956515 721.493019 
L 377.234579 723.318753 
L 376.987728 729.219694 
L 373.368927 731.74349 
L 371.823022 735.304281 
L 370.058472 738.72 
L 373.225409 472.959764 
L 373.764735 472.324075 
L 371.095384 284.099028 
L 501.880793 275.284726 
L 503.145131 277.911019 
L 504.395628 278.667256 
L 507.463507 278.031717 
L 514.46481 281.008996 
L 514.818125 284.508852 
L 519.60144 291.376516 
L 523.658766 299.303015 
L 522.895425 313.877443 
L 517.371777 337.093797 
L 530.491703 351.255428 
L 538.824974 374.763591 
L 538.691536 386.093179 
L 541.483418 385.447988 
L 550.699259 401.217419 
L 580.734955 392.194772 
L 590.256756 410.498434 
L 590.010797 410.338708 
L 588.970041 409.799112 
L 588.801545 409.518192 
L 588.75149 409.220202 
L 588.823108 409.134217 
L 588.363938 408.543586 
L 588.175073 408.390454 
L 587.80268 408.194596 
L 586.668857 408.188835 
L 585.38906 408.24497 
L 584.807067 408.116231 
L 584.071448 408.189475 
L 583.709829 408.333401 
L 583.225719 408.614197 
L 582.788051 409.421722 
L 582.508611 410.218007 
L 582.028449 411.461156 
L 581.953524 412.066576 
L 582.302387 412.699219 
L 582.071722 413.111681 
L 581.614839 413.524665 
L 581.286469 413.606724 
L 580.811981 413.385593 
L 580.52113 413.386263 
L 580.053497 413.810112 
L 579.979794 414.343344 
L 579.432486 415.827555 
L 578.961352 416.702801 
L 578.783556 417.503526 
L 578.165897 418.909174 
L 577.941697 419.229695 
L 578.332133 420.383936 
L 578.396154 421.250144 
L 578.257218 421.547055 
L 577.936759 421.695776 
L 577.288118 421.326377 
L 575.159303 420.371145 
L 574.087123 419.56813 
L 573.181734 418.846525 
L 572.180481 418.536619 
L 571.140427 417.406909 
L 570.389519 416.821441 
L 570.007241 416.488072 
L 569.646774 415.949424 
L 568.6825 413.460254 
L 567.395369 412.254965 
L 566.900713 411.647297 
L 566.574157 411.29213 
L 566.238947 411.22733 
L 565.652524 411.200566 
L 565.020026 411.379959 
L 563.708997 411.963635 
L 563.030169 412.236792 
L 562.705336 412.649638 
L 562.354577 412.850011 
L 562.025685 413.182473 
L 561.472247 413.455604 
L 560.775111 413.866951 
L 560.44658 414.362018 
L 560.065658 414.551504 
L 559.632489 414.500451 
L 558.443863 414.795832 
L 557.752979 415.105289 
L 557.458157 415.06693 
L 556.939642 415.583239 
L 556.405422 416.013726 
L 556.095313 416.076868 
L 555.475112 416.210954 
L 555.058142 416.492255 
L 553.811823 417.587782 
L 553.044633 417.89391 
L 552.718697 417.816593 
L 552.245993 418.149375 
L 552.215179 418.825889 
L 552.701277 419.423187 
L 552.747842 420.890783 
L 552.804763 421.255767 
L 552.786521 421.462831 
L 552.678181 421.523299 
L 552.338226 421.481198 
L 550.337506 421.508959 
L 548.091675 420.596446 
L 541.298165 421.192503 
L 540.859347 421.382815 
L 539.702858 421.41369 
L 539.355345 421.596847 
L 539.050572 422.08085 
L 538.827832 422.373572 
L 538.461078 423.20611 
L 538.294924 423.835889 
L 537.57576 424.971116 
L 537.479404 425.764557 
L 537.370897 426.104626 
L 537.004268 426.924987 
L 536.559287 427.387785 
L 535.880795 427.480355 
L 534.08992 427.319698 
L 532.057859 427.386649 
L 530.584358 427.594801 
L 530.019906 428.110977 
L 529.756076 428.160344 
L 529.508073 428.057907 
L 529.141818 428.069558 
L 528.403826 427.462119 
L 527.966882 427.026731 
L 527.512505 426.149646 
L 527.253616 425.994112 
L 526.91743 425.962333 
L 526.165613 426.103445 
L 525.648655 426.169627 
L 523.851295 425.971949 
L 523.547654 426.044165 
L 522.929869 426.392684 
L 521.596717 427.636865 
L 520.841196 428.107387 
L 519.83445 428.851095 
L 519.059625 429.236554 
L 518.348845 429.348686 
L 517.172712 429.48135 
L 516.707387 429.51489 
L 516.519374 429.255125 
L 516.226288 428.014674 
L 516.122337 427.474944 
L 515.60093 426.679945 
L 514.403983 425.55079 
L 513.231655 424.613526 
L 511.431763 422.823597 
L 511.261457 422.60415 
L 510.133647 421.876023 
L 510.052278 421.219267 
L 510.148704 420.797912 
L 510.512234 420.460879 
L 511.098709 417.89472 
L 511.689355 417.275257 
L 511.777697 416.803001 
L 511.423177 415.966087 
L 511.20888 415.863523 
L 511.069284 415.873191 
L 510.435741 415.584208 
L 509.681457 415.417247 
L 509.019931 415.100223 
L 508.245873 414.390053 
L 507.822022 413.978204 
L 507.495054 413.416928 
L 507.177594 412.949294 
L 506.227515 412.623521 
L 505.378346 411.604415 
L 505.261987 411.53111 
L 505.101167 410.313824 
L 504.988798 409.995609 
L 504.97583 409.215003 
L 505.122875 408.453666 
L 505.018863 408.174199 
L 504.500863 407.74602 
L 503.666217 407.351044 
L 503.064951 407.280787 
L 501.443237 407.589978 
L 501.145553 407.421501 
L 500.621933 407.390102 
L 500.066517 407.605939 
L 499.84716 407.691015 
L 498.882031 407.656946 
L 498.397442 407.743805 
L 497.653532 408.314538 
L 497.438919 408.472015 
L 497.00239 408.916992 
L 496.719877 409.13116 
L 496.323295 409.188446 
L 495.87425 409.103582 
L 495.690673 409.32079 
L 495.610906 409.808796 
L 495.613547 410.431414 
L 495.505599 411.107237 
L 495.451351 411.339609 
L 495.217191 412.01484 
L 494.900559 412.568398 
L 494.391734 413.283329 
L 493.805894 413.891665 
L 493.392452 414.515893 
L 493.232703 414.641301 
L 493.107866 415.043581 
L 493.216261 415.35954 
L 493.227317 415.732325 
L 493.086219 416.216039 
L 493.201688 417.332396 
L 493.183684 417.777775 
L 493.010753 418.532665 
L 493.054455 418.992583 
L 493.266616 419.556756 
L 493.518607 419.909673 
L 493.737273 420.128782 
L 494.15611 420.273719 
L 491.165229 423.569221 
L 487.523482 438.504865 
L 486.451787 450.35403 
L 488.745956 464.726952 
L 528.869952 457.944184 
L 559.519243 452.342416 
L 558.798823 453.291033 
L 546.869466 470.910482 
L 560.093113 498.435074 
L 593.930123 538.790731 
L 596.643568 543.277032 
L 597.129966 544.552528 
L 597.210064 544.76251 
L 601.191568 555.202732 
L 604.865044 564.047212 
L 604.864407 564.047483 
L 604.863668 564.045723 
L 584.428366 568.777421 
L 577.928205 570.274894 
L 570.981829 571.90297 
L 567.955968 572.611263 
L 563.938922 573.532625 
L 563.799013 576.406307 
L 563.578152 581.085756 
L 563.372885 584.914694 
L 563.191924 588.313536 
L 562.984634 592.436982 
L 562.643458 598.871218 
L 562.188419 607.512306 
L 562.143226 613.934051 
L 560.074834 621.878286 
L 560.074699 621.876408 
L 559.49827 614.821877 
L 558.196724 605.663928 
L 557.499933 591.173621 
L 557.027811 584.667919 
L 556.820328 578.361398 
L 554.626709 558.513166 
L 555.501857 558.12507 
L 554.560228 557.708275 
L 553.702846 557.322021 
L 552.342039 556.352962 
L 551.228054 556.418721 
L 550.090238 556.179403 
L 549.196252 556.607108 
L 548.153439 556.868708 
L 547.244304 557.876312 
L 546.771833 559.02348 
L 546.463836 560.010593 
L 546.409642 560.828551 
L 546.102597 561.158886 
L 545.160181 561.234872 
L 544.130516 561.63521 
L 543.245826 561.652553 
L 542.570122 562.017141 
L 542.057324 562.577051 
L 541.358582 562.789609 
L 540.522762 562.826852 
L 539.782167 562.60572 
L 539.126682 562.641497 
L 538.649419 562.542257 
L 537.680635 562.103007 
L 537.052161 561.690335 
L 536.456116 562.023573 
L 536.354042 562.225941 
L 536.515358 562.773898 
L 536.474496 563.101663 
L 535.859182 563.759084 
L 535.139124 564.268431 
L 534.718736 564.743685 
L 534.643144 565.013794 
L 534.47052 565.879088 
L 534.111388 566.645323 
L 533.547401 567.416597 
L 533.541532 567.862494 
L 534.911143 568.124099 
L 537.642021 586.319069 
L 538.787484 594.593574 
L 538.719162 601.501018 
L 540.547415 622.643688 
L 544.30156 634.904262 
L 544.567855 635.733123 
L 539.77318 638.373506 
L 534.542487 639.119231 
L 530.51719 639.200946 
L 529.292007 637.830034 
L 526.353933 641.813581 
L 524.341514 641.962867 
L 523.770756 643.844093 
L 521.971989 643.125228 
L 519.84721 646.450929 
L 517.835092 646.744801 
L 518.054549 648.407288 
L 515.12851 650.15179 
L 514.463496 650.616317 
L 514.78317 652.100007 
L 513.753297 654.441827 
L 511.302536 656.27272 
L 510.375973 656.284952 
L 509.862188 656.701256 
L 507.30727 657.319929 
L 506.25645 657.103356 
L 504.137467 658.53444 
L 503.766933 658.820715 
L 503.095657 658.882123 
L 502.608555 659.535982 
L 502.133422 659.637688 
L 501.975147 660.01182 
L 502.169093 660.240229 
L 501.933878 660.484753 
L 501.401326 660.10146 
L 497.209494 662.235703 
L 497.009012 661.804886 
L 497.162889 661.033179 
L 497.046397 660.747858 
L 496.220868 660.575842 
L 494.504097 660.744988 
L 493.557559 660.224654 
L 493.004063 660.549727 
L 492.780321 661.284039 
L 491.465042 662.007538 
L 491.037791 663.468617 
L 489.435311 663.047704 
L 489.009844 663.384522 
L 489.176359 664.140129 
L 487.489383 664.7529 
L 486.30359 664.466698 
L 485.680764 663.828318 
L 484.238269 663.965915 
L 483.748411 663.658883 
L 481.46374 664.55297 
L 480.949224 664.260359 
L 479.361575 664.237585 
L 478.980634 663.720228 
L 477.779918 663.613474 
L 476.798964 664.22878 
L 476.204839 663.578175 
L 474.982161 664.193742 
L 474.867998 664.584005 
L 472.994976 665.814629 
L 473.320855 666.716225 
L 472.477418 667.010864 
L 470.972208 668.094836 
L 469.771989 667.189634 
L 468.815642 667.397458 
L 467.790943 668.309538 
L 465.983972 668.454817 
L 464.208632 669.443172 
L 464.344615 669.90793 
L 463.75103 670.123296 
L 463.541321 671.089788 
L 461.532998 671.877868 
L 461.152825 672.728493 
L 459.568377 673.84265 
L 457.782855 673.654965 
L 456.589354 674.369461 
L 454.736164 674.617142 
L 454.048285 675.29013 
L 454.207977 675.698685 
L 453.475569 676.71062 
L 452.304095 679.345154 
L 451.413574 679.598659 
L 451.412073 679.597695 
L 451.408633 679.600511 
L 451.322705 679.748871 
L 449.601729 681.445655 
L 439.400882 679.711199 
L 438.889379 682.575668 
L 435.528094 684.144771 
L 428.627009 684.506696 
L 423.66724 684.007682 
L 423.166171 684.085443 
" clip-path="url(#p1f1dec28cc)" style="fill: #e0bd1f; stroke: #0000ff; stroke-width: 0.5"/>
   </g>
   <g id="PatchCollection_2">
    <path d="M 379.075625 162.540765 
L 379.07526 162.541316 
L 379.075118 162.541097 
L 379.075625 162.540765 
" clip-path="url(#p1f1dec28cc)" style="fill: none; stroke: #000000"/>
    <path d="M 379.324393 162.926851 
L 379.41519 162.999804 
L 379.680597 162.742203 
L 380.015263 161.582153 
L 380.491087 161.195302 
L 381.130073 161.041338 
L 381.249816 160.835175 
L 381.3653 160.134251 
L 381.60645 160.020548 
L 381.737536 160.116099 
L 381.778305 160.287208 
L 382.127907 160.22225 
L 382.223811 159.684595 
L 382.666188 159.271918 
L 383.00186 159.685366 
L 382.987161 160.460127 
L 383.155817 160.478753 
L 383.352491 160.381315 
L 383.448991 159.960485 
L 383.623329 159.512462 
L 383.911932 159.367417 
L 383.990842 159.356612 
L 384.11416 159.500883 
L 384.353747 159.68405 
L 384.607286 159.680245 
L 385.129072 159.95356 
L 385.376824 159.530202 
L 385.604828 159.433579 
L 385.83678 159.585763 
L 385.85651 159.735498 
L 385.748053 159.974679 
L 385.404891 160.31468 
L 385.406931 160.535082 
L 385.572525 160.700653 
L 386.12623 160.626516 
L 386.643505 160.483193 
L 386.584551 160.108216 
L 386.673007 159.90227 
L 387.452599 159.710565 
L 387.596335 159.594167 
L 387.843581 159.673329 
L 388.581845 159.605341 
L 389.264076 160.134097 
L 389.480859 160.007811 
L 389.595772 159.4157 
L 390.649682 159.009107 
L 391.54162 158.957573 
L 392.128492 159.047007 
L 392.415482 159.299775 
L 392.413069 159.469665 
L 392.205059 159.826663 
L 393.371604 160.586513 
L 393.806732 160.974388 
L 394.024572 161.361049 
L 394.384245 162.11185 
L 394.435361 162.395294 
L 394.646601 162.542873 
L 394.726059 163.308672 
L 394.817011 163.333638 
L 394.988739 163.246454 
L 395.308841 162.717518 
L 395.229715 162.530854 
L 394.84789 162.314314 
L 394.668546 161.746925 
L 394.711219 160.980428 
L 395.149487 160.444268 
L 396.359646 160.169332 
L 396.524696 160.115215 
L 396.787109 159.826083 
L 397.120985 159.801866 
L 398.588728 159.145172 
L 398.855842 159.476132 
L 398.833135 160.073868 
L 398.814341 160.266242 
L 398.903544 160.551773 
L 399.067608 160.676408 
L 399.200332 160.63355 
L 399.391944 160.150796 
L 399.573956 159.727192 
L 400.944671 158.8267 
L 401.728048 158.749603 
L 401.839302 158.622366 
L 401.740257 158.446949 
L 402.141379 157.623517 
L 402.614558 157.139935 
L 402.774169 156.724591 
L 402.593595 156.714579 
L 402.29491 156.362677 
L 402.537631 156.026817 
L 402.705254 155.80649 
L 402.823376 155.517035 
L 402.99892 154.871087 
L 403.433099 154.884003 
L 404.061831 154.791806 
L 404.775032 154.831753 
L 405.227771 154.41413 
L 405.59485 154.637907 
L 405.676889 154.780224 
L 405.741196 154.680285 
L 405.869966 154.075706 
L 406.50431 153.849708 
L 407.182931 153.922273 
L 407.827985 154.020627 
L 407.856744 153.652231 
L 407.729363 153.474855 
L 407.442829 153.324968 
L 407.391384 152.930737 
L 407.672329 152.694945 
L 407.899518 152.721277 
L 408.252547 152.99872 
L 408.304304 153.217387 
L 408.258859 153.535602 
L 408.286485 153.534246 
L 408.689993 152.884727 
L 409.006908 152.873813 
L 409.255198 153.055487 
L 409.490016 152.808265 
L 409.808822 152.644999 
L 409.641131 152.36256 
L 409.82102 152.108495 
L 410.206833 152.016474 
L 410.380439 152.018855 
L 410.628425 152.219894 
L 411.218444 152.320641 
L 411.057489 152.116032 
L 410.808667 151.742196 
L 410.802965 151.646897 
L 411.118375 151.490679 
L 412.600064 151.155845 
L 413.604445 150.969519 
L 414.157426 151.221806 
L 414.406521 150.966525 
L 415.180947 150.840476 
L 415.768672 150.672139 
L 415.984681 150.721659 
L 416.172643 150.888983 
L 415.72543 152.097087 
L 414.96258 152.263675 
L 413.930232 152.704407 
L 413.710948 152.903175 
L 413.3014 152.773351 
L 413.377115 153.089055 
L 413.144727 153.612957 
L 412.81306 153.820784 
L 412.1646 153.758281 
L 411.786045 153.468129 
L 411.742295 153.492339 
L 411.686392 153.680751 
L 411.694322 154.569042 
L 411.474247 155.459582 
L 411.205776 155.647964 
L 411.027405 156.209245 
L 411.040178 156.372946 
L 409.957093 157.019057 
L 410.145657 157.163291 
L 410.053554 157.771831 
L 409.937707 158.301851 
L 410.133237 158.620044 
L 409.94814 158.705053 
L 410.312598 159.339346 
L 410.391934 159.354568 
L 410.958112 159.24363 
L 411.26059 159.442804 
L 411.281017 159.616244 
L 411.454055 159.686629 
L 412.511044 159.807165 
L 412.221039 158.891994 
L 412.296476 158.544605 
L 412.05755 157.642195 
L 412.141424 156.887186 
L 412.518379 155.664492 
L 412.886941 155.356875 
L 413.207926 154.945348 
L 413.753306 154.462181 
L 415.304901 153.356762 
L 415.496207 153.163207 
L 416.277923 153.430863 
L 416.341574 153.823989 
L 416.23237 154.194767 
L 416.222117 154.646201 
L 415.915534 155.097122 
L 415.170314 155.505117 
L 414.770602 156.374022 
L 414.86977 158.517234 
L 415.533982 159.17554 
L 415.749791 159.201019 
L 415.614358 158.911322 
L 415.368233 158.803734 
L 415.222581 157.747999 
L 415.540059 157.124331 
L 415.794433 156.717259 
L 416.36556 156.664952 
L 416.717637 156.53984 
L 417.222712 156.712552 
L 417.945169 156.267714 
L 418.117198 156.015693 
L 418.004695 155.508044 
L 418.466451 153.879345 
L 418.614224 153.672738 
L 418.91416 152.114143 
L 419.184196 151.515956 
L 419.432994 151.316452 
L 419.967981 151.176665 
L 420.744862 150.996401 
L 421.177817 151.435504 
L 421.798795 151.560367 
L 422.363056 151.515501 
L 422.518672 151.689758 
L 422.48529 151.896134 
L 421.951919 152.437535 
L 421.808963 153.028149 
L 422.157245 153.056733 
L 422.242263 152.700854 
L 422.226987 152.516578 
L 422.364723 152.364286 
L 422.648845 152.273582 
L 422.959614 152.334585 
L 423.146733 152.631487 
L 423.098982 153.165969 
L 423.199075 153.646442 
L 423.255524 153.569275 
L 423.333517 153.38488 
L 423.890462 153.247702 
L 424.464401 153.191027 
L 424.837136 153.44884 
L 425.202904 154.04204 
L 425.386246 154.157896 
L 425.498146 154.527867 
L 425.933309 154.577161 
L 426.29298 155.18242 
L 426.343257 155.507494 
L 426.154493 155.853467 
L 426.2796 156.067474 
L 426.305053 156.331239 
L 426.471615 156.629019 
L 426.508627 156.969928 
L 426.70856 157.013514 
L 427.086136 156.689619 
L 427.692667 156.149396 
L 427.739784 155.75637 
L 428.502552 155.409259 
L 428.372928 155.173392 
L 428.14945 155.026871 
L 427.247883 154.713018 
L 426.45748 154.180333 
L 425.426025 153.760266 
L 425.221455 153.205313 
L 424.868227 152.261295 
L 425.046896 150.810506 
L 424.658794 150.739119 
L 424.535965 150.177303 
L 424.643235 149.812087 
L 425.008076 149.793694 
L 425.312548 150.037594 
L 425.770407 149.774424 
L 425.966758 149.660226 
L 425.921215 149.61911 
L 425.559406 149.183111 
L 425.704642 148.350283 
L 425.917631 148.140173 
L 425.882242 147.815853 
L 425.988739 147.698411 
L 426.074403 147.111679 
L 426.286324 146.959449 
L 426.339848 146.822928 
L 426.23923 146.467217 
L 426.005577 146.03669 
L 426.124002 145.875081 
L 426.239944 145.915911 
L 426.324182 145.808071 
L 426.706382 145.684144 
L 427.040795 145.880438 
L 427.334945 145.789782 
L 427.719963 145.88542 
L 427.849892 146.357648 
L 427.841553 147.123736 
L 428.02362 147.650619 
L 427.5974 149.940424 
L 428.010377 150.341234 
L 428.035084 150.975294 
L 428.220154 151.174703 
L 429.197999 151.611635 
L 429.508229 151.802234 
L 429.561203 152.33561 
L 429.427236 152.700845 
L 429.195058 152.765155 
L 428.791962 153.063187 
L 428.635702 154.006968 
L 429.043531 154.862019 
L 429.138942 154.96672 
L 429.434399 154.843279 
L 429.781701 153.779519 
L 430.199232 153.344261 
L 430.722771 153.447823 
L 431.105775 153.991877 
L 431.418247 154.748098 
L 431.463981 155.228415 
L 431.892815 155.717987 
L 432.013285 156.312404 
L 432.168684 156.596692 
L 432.448428 156.64324 
L 432.599735 156.890477 
L 432.898688 157.165589 
L 433.034052 157.457611 
L 433.266988 157.506685 
L 434.446412 158.71463 
L 434.678271 159.485494 
L 434.628798 160.703851 
L 434.798237 160.890305 
L 434.827568 161.148922 
L 435.079849 161.071666 
L 435.456057 160.406579 
L 435.741449 159.889783 
L 436.070332 159.074559 
L 436.277011 159.031288 
L 436.758532 159.025625 
L 437.011099 158.957277 
L 436.90894 158.882542 
L 436.366879 158.676634 
L 435.98778 158.425511 
L 435.174883 157.273829 
L 435.047791 157.246043 
L 434.941832 157.092237 
L 435.307141 156.630735 
L 435.238747 156.065413 
L 435.086642 155.968805 
L 434.992022 155.500713 
L 435.235705 155.192201 
L 435.389932 155.334287 
L 435.566369 155.745638 
L 435.834912 155.826421 
L 435.963644 155.38006 
L 437.336957 156.770201 
L 437.678667 156.969655 
L 438.008563 155.951656 
L 438.453234 155.632847 
L 438.543855 155.514811 
L 437.91961 154.601881 
L 437.378937 154.48194 
L 437.218291 154.865238 
L 436.829015 155.044428 
L 436.42806 154.833796 
L 436.367903 154.475799 
L 435.97711 154.166634 
L 435.664211 154.126967 
L 436.033433 153.295842 
L 436.18252 153.24056 
L 436.514595 152.915178 
L 436.563883 152.697354 
L 436.118294 151.705604 
L 436.233563 151.274349 
L 436.523895 151.110179 
L 436.44352 150.980965 
L 435.89098 150.757383 
L 435.139783 151.114554 
L 434.852312 151.113341 
L 433.90008 150.341321 
L 433.681246 150.720801 
L 433.581834 151.232529 
L 432.815037 151.372748 
L 432.633291 151.266262 
L 432.183889 150.556633 
L 432.069689 150.131889 
L 431.883162 149.93208 
L 431.939186 149.67922 
L 432.135026 149.475288 
L 432.104963 146.811932 
L 432.72673 146.553294 
L 433.047547 146.807479 
L 433.159094 146.569706 
L 433.092425 146.428558 
L 432.524147 145.837259 
L 432.468406 144.991272 
L 432.595017 144.939508 
L 433.036349 145.328641 
L 433.14596 144.746954 
L 433.012226 144.548603 
L 433.181682 144.474191 
L 433.521249 144.465451 
L 433.754976 143.857986 
L 433.92855 143.832843 
L 434.01635 143.478179 
L 433.930106 143.092271 
L 434.372654 143.086356 
L 434.177608 142.35727 
L 434.312474 142.087907 
L 434.72015 141.869491 
L 436.165277 141.952426 
L 436.807993 142.428492 
L 436.587766 142.896605 
L 436.698732 143.323931 
L 436.556065 143.689844 
L 436.848934 144.133022 
L 437.118219 145.356688 
L 437.425347 146.642746 
L 437.534057 146.702997 
L 437.755062 146.418935 
L 437.657091 146.183097 
L 438.105487 144.484459 
L 438.264221 144.373445 
L 438.29157 143.913633 
L 438.177159 143.545193 
L 438.148301 142.918801 
L 438.567013 142.635769 
L 439.258374 142.652717 
L 439.217821 142.446296 
L 438.819149 142.372996 
L 438.479673 142.14757 
L 438.574927 141.292008 
L 438.143758 141.089661 
L 437.864129 140.364169 
L 437.974428 139.936287 
L 438.031207 140.026993 
L 438.224692 140.017284 
L 438.79529 140.33193 
L 439.231135 140.803639 
L 440.294403 140.551722 
L 439.869372 140.300938 
L 439.795241 139.947564 
L 440.145315 139.435414 
L 440.167742 139.392367 
L 439.770454 138.831666 
L 439.916784 138.570371 
L 440.480417 138.260229 
L 441.000953 138.3554 
L 441.088147 138.088456 
L 441.023122 137.948536 
L 440.643437 137.657845 
L 440.64235 137.296638 
L 440.768972 136.97413 
L 440.921714 136.955064 
L 441.242712 137.049659 
L 441.424314 136.949388 
L 441.780126 136.942431 
L 441.850352 137.122698 
L 441.611278 137.812631 
L 441.717067 138.485152 
L 441.89344 138.609301 
L 442.356123 138.598031 
L 442.524396 138.763389 
L 442.697061 138.656365 
L 442.946244 138.37024 
L 442.886563 138.071427 
L 442.658068 138.094348 
L 442.42626 137.825749 
L 442.554678 137.610523 
L 442.783208 137.35679 
L 443.007611 136.667779 
L 443.378366 136.372159 
L 443.694566 136.454146 
L 443.687444 136.182834 
L 443.876129 136.099847 
L 444.336914 136.201244 
L 444.534424 136.522483 
L 445.39499 137.009359 
L 445.646117 136.998349 
L 446.064727 137.15759 
L 446.302128 137.701846 
L 446.117228 138.154575 
L 445.587731 138.620715 
L 444.878491 138.718803 
L 444.797923 138.920305 
L 445.206381 139.504779 
L 445.58695 139.733017 
L 445.817001 140.14875 
L 446.241833 140.391379 
L 446.273548 140.655663 
L 445.88324 140.887679 
L 445.322157 141.094492 
L 445.547727 141.116684 
L 446.084634 141.142935 
L 446.359467 140.942629 
L 447.046886 141.227526 
L 447.172095 141.355569 
L 447.201333 141.553173 
L 447.303616 141.489574 
L 447.385972 141.406044 
L 448.396731 142.193789 
L 448.346897 142.310124 
L 448.439949 142.462379 
L 448.670553 142.319231 
L 448.690124 142.258532 
L 448.19226 141.307188 
L 448.07723 141.304704 
L 447.982331 141.113058 
L 448.048461 140.765808 
L 446.699527 140.466799 
L 446.421296 140.046203 
L 445.910049 139.635795 
L 445.893847 139.000562 
L 446.104612 138.653333 
L 446.377143 138.528731 
L 446.686437 138.21755 
L 446.695993 137.704056 
L 446.830295 137.265013 
L 448.314419 137.556979 
L 448.643803 137.570167 
L 448.826686 137.333835 
L 448.792852 137.003554 
L 448.947948 136.769793 
L 449.310055 136.810483 
L 449.961425 136.388133 
L 450.058091 135.787789 
L 450.666568 135.386523 
L 450.467441 134.680914 
L 450.603886 134.421816 
L 451.279394 133.92 
L 451.558163 134.07378 
L 451.875085 134.040472 
L 452.640117 134.619561 
L 453.009426 135.279185 
L 453.138858 135.920043 
L 452.761269 136.890654 
L 452.590596 137.243601 
L 453.594623 138.702397 
L 453.804129 139.104377 
L 453.990662 139.172175 
L 453.985984 139.144896 
L 453.62913 137.787328 
L 453.600817 137.567258 
L 453.920309 136.84949 
L 454.117206 136.705878 
L 457.020729 139.94709 
L 457.687585 142.439578 
L 457.235381 151.85629 
L 456.882734 152.149306 
L 455.488704 152.601107 
L 451.253172 153.797924 
L 450.325335 153.979329 
L 449.644239 154.178988 
L 449.312219 154.169861 
L 448.341173 153.857251 
L 448.252483 153.981611 
L 448.12627 154.605689 
L 447.872207 154.947 
L 447.439339 155.130102 
L 447.768097 156.499604 
L 453.339334 171.821451 
L 453.730633 171.707716 
L 462.411599 187.712658 
L 469.795135 206.733962 
L 474.991932 220.789964 
L 478.764349 229.190832 
L 479.148076 229.551045 
L 484.618555 240.635633 
L 490.049588 254.21009 
L 508.853993 248.55485 
L 507.858048 267.306725 
L 511.314335 274.537965 
L 501.880793 275.284726 
L 370.804463 284.117148 
L 222.749688 293.254439 
L 232.987323 278.567053 
L 238.574114 270.659091 
L 246.373766 236.850862 
L 247.416968 237.738642 
L 248.194749 237.882719 
L 248.798294 238.37708 
L 249.432471 238.269024 
L 249.901566 238.67083 
L 250.371983 238.84027 
L 251.067836 239.373451 
L 252.906124 238.550893 
L 253.599978 238.106761 
L 255.921121 237.066292 
L 256.441219 236.824833 
L 257.286214 236.606811 
L 258.084095 236.124104 
L 258.563112 236.181323 
L 259.425278 236.102679 
L 259.902792 235.070697 
L 260.894454 234.579037 
L 261.868062 233.94762 
L 262.576686 233.710042 
L 262.789908 233.393775 
L 263.228639 233.428529 
L 263.520726 233.173678 
L 264.124408 232.98825 
L 264.274691 232.746983 
L 264.748763 232.984823 
L 265.684833 231.92319 
L 266.956136 231.63972 
L 268.636694 230.822681 
L 268.691033 230.653051 
L 269.017581 230.631208 
L 270.379832 229.341228 
L 270.85947 229.259061 
L 271.417356 229.044678 
L 272.835538 228.954711 
L 273.629061 228.541072 
L 274.065663 228.552024 
L 275.893979 228.960922 
L 275.913748 228.96517 
L 276.25887 229.258187 
L 277.512169 229.195616 
L 277.854283 229.345552 
L 277.82213 229.987371 
L 278.232981 230.318937 
L 279.813174 231.356581 
L 280.218155 231.052346 
L 280.427507 231.126847 
L 280.389356 231.356532 
L 280.685505 231.54563 
L 280.93971 231.54563 
L 281.288249 230.864735 
L 281.03404 230.826475 
L 281.016432 230.679245 
L 281.142229 230.459521 
L 281.872451 230.16863 
L 282.529997 230.048671 
L 283.093222 229.49381 
L 283.674294 228.654092 
L 283.873572 229.035821 
L 284.069427 228.517726 
L 284.057119 228.159601 
L 283.667776 227.919193 
L 283.586846 227.3199 
L 283.461469 226.856318 
L 283.627156 226.873516 
L 284.798992 226.922128 
L 284.914053 226.445881 
L 285.078411 226.29929 
L 285.51477 226.166819 
L 285.562934 225.844637 
L 286.006785 225.641322 
L 286.114901 224.881946 
L 286.59454 224.510442 
L 287.517694 224.668108 
L 288.202798 223.892784 
L 288.775017 223.91564 
L 289.12147 224.224643 
L 290.003658 224.209866 
L 290.517091 224.472504 
L 290.883183 224.223665 
L 291.309244 223.601837 
L 292.497843 222.698055 
L 292.96623 221.331748 
L 293.227702 221.331748 
L 293.246319 221.104622 
L 293.483059 221.111409 
L 293.974476 220.736345 
L 293.945085 220.42669 
L 293.750427 220.400556 
L 293.761122 220.359167 
L 294.168516 220.214392 
L 294.291421 219.955416 
L 294.202427 219.638822 
L 294.308898 219.542673 
L 294.634295 219.463521 
L 294.698202 219.179543 
L 294.863737 219.104532 
L 295.084109 219.278269 
L 296.651783 219.435269 
L 297.639707 219.630767 
L 298.143139 219.703216 
L 298.605346 219.548625 
L 298.667935 219.391622 
L 299.094232 219.346195 
L 299.268849 219.24399 
L 299.658597 219.467458 
L 300.012374 219.541412 
L 300.001732 218.996824 
L 300.174216 218.744432 
L 301.311718 218.175605 
L 302.246931 217.282898 
L 302.676127 217.188521 
L 303.332029 217.52938 
L 303.79045 217.520702 
L 304.697449 217.964412 
L 305.108071 217.848203 
L 305.494786 217.218449 
L 306.858592 217.307976 
L 307.227298 217.177992 
L 307.700426 216.57025 
L 307.908131 216.592781 
L 308.084435 217.376171 
L 308.527766 217.636562 
L 309.055036 217.39209 
L 309.354418 217.161016 
L 308.836176 216.627091 
L 308.745952 216.303941 
L 308.85226 215.974403 
L 309.011411 215.655022 
L 309.108944 215.195058 
L 308.99306 214.953559 
L 309.038162 214.553805 
L 309.175501 214.404017 
L 310.078375 214.560946 
L 310.473767 214.528779 
L 311.0469 213.472091 
L 311.41031 213.239341 
L 313.287993 213.245093 
L 313.783297 213.095998 
L 314.272224 212.045083 
L 314.425638 212.15886 
L 314.766104 212.179564 
L 315.196997 212.021385 
L 315.500153 210.793944 
L 316.231287 210.859322 
L 316.38755 210.831653 
L 316.641087 210.594801 
L 316.946076 210.537421 
L 317.189322 210.10777 
L 317.351258 210.122542 
L 317.521144 210.693092 
L 318.111513 211.142202 
L 318.555903 211.186791 
L 318.861238 210.445186 
L 319.212091 210.523637 
L 319.923123 210.381546 
L 320.370972 210.553093 
L 320.625216 210.183816 
L 320.785544 210.189562 
L 321.118691 210.391683 
L 321.319528 210.680817 
L 321.684174 210.900347 
L 322.276337 210.715277 
L 322.858281 210.310302 
L 323.490615 208.631352 
L 323.622933 208.667978 
L 323.950011 209.126473 
L 324.212207 209.055642 
L 324.538442 209.137477 
L 325.017116 209.650134 
L 325.345817 209.56768 
L 325.424096 209.227321 
L 325.259871 209.023046 
L 325.311892 208.617481 
L 325.768243 208.336394 
L 326.084224 208.450885 
L 326.273574 208.324224 
L 326.532392 208.385475 
L 326.878404 208.264691 
L 327.19379 208.29124 
L 327.579315 208.209802 
L 328.719705 206.550903 
L 329.420126 206.198088 
L 329.631719 206.366167 
L 330.008159 206.209871 
L 329.988751 205.596448 
L 330.181565 204.885409 
L 331.295968 204.610759 
L 331.644536 204.867872 
L 331.974055 204.910535 
L 332.526147 204.375322 
L 332.817511 204.395719 
L 333.194799 204.698149 
L 334.379289 204.528071 
L 335.590197 203.21647 
L 335.870122 202.665125 
L 335.574319 202.40414 
L 335.343164 201.909539 
L 335.066185 201.631651 
L 334.964342 200.811865 
L 335.043121 200.424539 
L 335.219239 200.205412 
L 335.608781 200.152112 
L 335.940874 199.652284 
L 336.142833 198.929813 
L 336.838997 197.463496 
L 336.887842 196.908041 
L 338.346192 195.495052 
L 338.804272 194.972332 
L 338.974494 194.609382 
L 338.72806 194.209946 
L 338.68853 193.388936 
L 338.9406 192.665653 
L 339.098286 192.595333 
L 339.304516 192.695662 
L 339.410164 192.989219 
L 339.670933 193.289636 
L 340.09404 193.522123 
L 340.68073 193.321527 
L 341.606615 192.052555 
L 342.484908 191.450498 
L 343.154126 190.574374 
L 343.514665 190.221656 
L 343.891215 189.420117 
L 343.944351 189.481636 
L 344.199343 190.290415 
L 344.732909 190.280948 
L 345.271287 189.877618 
L 346.095546 188.55375 
L 346.481912 187.951677 
L 347.153705 186.75551 
L 347.649047 186.456755 
L 348.02803 186.516559 
L 348.208518 186.334595 
L 348.315418 185.811847 
L 348.581592 185.614012 
L 348.395971 185.071322 
L 348.31963 184.968078 
L 348.325047 184.533936 
L 348.853669 183.979707 
L 348.854806 183.339743 
L 348.655989 182.631499 
L 348.923076 182.532427 
L 349.016159 182.685867 
L 349.094735 183.292009 
L 349.331386 183.563385 
L 349.65059 183.515936 
L 349.838903 183.367473 
L 349.805669 182.439796 
L 349.972987 182.11335 
L 349.921438 181.611663 
L 350.410074 181.366517 
L 350.573963 181.037627 
L 350.289869 179.528704 
L 349.71951 179.096988 
L 349.319416 178.148296 
L 349.88404 176.796743 
L 349.935015 175.871184 
L 349.749217 175.613736 
L 349.635558 175.067951 
L 349.713271 174.5741 
L 349.635274 173.713267 
L 349.95593 173.102981 
L 350.724 172.490932 
L 350.784683 172.285432 
L 350.938918 172.222382 
L 351.22415 172.313446 
L 351.255411 171.675649 
L 351.671321 171.126933 
L 351.966122 170.964242 
L 352.013567 170.624712 
L 351.908754 170.233631 
L 352.59987 169.948892 
L 352.83403 169.671326 
L 352.972811 169.405437 
L 353.199045 169.276391 
L 353.432768 169.301517 
L 353.818033 169.176817 
L 353.643164 168.414946 
L 353.714913 168.512388 
L 354.005338 168.960711 
L 353.978098 168.332076 
L 353.812606 168.085081 
L 354.178981 167.318317 
L 354.39782 167.043841 
L 354.524289 165.722454 
L 355.133638 165.434228 
L 355.377801 165.367412 
L 355.456169 165.151169 
L 356.517788 164.383376 
L 357.321688 164.005483 
L 358.171145 163.445561 
L 358.442866 163.437771 
L 358.330863 163.011113 
L 358.031499 162.710416 
L 358.042621 162.515122 
L 358.429154 162.490125 
L 358.580465 162.698882 
L 358.983904 162.684424 
L 358.973634 162.33407 
L 359.291358 162.0369 
L 359.498245 162.10033 
L 359.550347 162.445541 
L 359.355666 162.611581 
L 359.440561 162.845833 
L 359.953988 162.878894 
L 360.131061 162.705721 
L 360.540621 162.866527 
L 360.822509 162.821272 
L 361.008734 162.618167 
L 361.141803 162.642893 
L 361.521596 163.428726 
L 362.050762 163.629213 
L 362.011746 163.874795 
L 361.668306 164.203838 
L 361.75817 164.496884 
L 362.013904 164.83902 
L 362.297965 164.810518 
L 363.260127 163.401648 
L 363.442736 163.326006 
L 363.884791 163.678792 
L 363.965272 163.93643 
L 364.185567 164.031405 
L 364.795611 163.813332 
L 365.057462 163.712044 
L 365.201775 163.856551 
L 365.330296 164.405096 
L 365.894806 164.497642 
L 365.916136 163.916112 
L 366.092564 163.677501 
L 367.010059 163.808733 
L 367.145018 164.657016 
L 367.134102 164.943191 
L 367.334766 165.154512 
L 368.352281 165.251302 
L 368.280608 164.977604 
L 368.350651 164.755015 
L 368.82324 164.735893 
L 369.01288 164.531521 
L 369.021851 164.28844 
L 369.196188 164.168667 
L 369.398317 164.542261 
L 369.481906 164.944021 
L 370.016108 164.777297 
L 370.44938 164.840362 
L 370.399304 165.058571 
L 370.594414 165.198011 
L 370.775855 165.00192 
L 370.965998 165.086506 
L 371.037894 165.287683 
L 371.215653 165.135531 
L 370.936009 164.811333 
L 371.080063 164.846252 
L 371.260904 164.86457 
L 371.139738 164.386293 
L 371.317152 164.196166 
L 372.604576 163.708456 
L 372.841527 163.696265 
L 372.993509 163.88763 
L 373.761548 163.800785 
L 375.128553 163.890075 
L 375.642238 164.130124 
L 376.183401 164.125307 
L 376.709395 164.122549 
L 377.057828 163.986909 
L 377.774997 163.824336 
L 378.604713 163.193932 
L 379.07526 162.541316 
L 379.324393 162.926851 
L 379.324393 162.926851 
" clip-path="url(#p1f1dec28cc)" style="fill: none; stroke: #000000"/>
   </g>
   <g id="matplotlib.axis_1">
    <g id="xtick_1">
     <g id="line2d_1">
      <path d="M 183.555071 768.96 
L 183.555071 103.68 
" clip-path="url(#p1f1dec28cc)" style="fill: none; stroke: #b0b0b0; stroke-width: 0.8; stroke-linecap: square"/>
     </g>
     <g id="line2d_2">
      <defs>
       <path id="mc8f0a59669" d="M 0 0 
L 0 3.5 
" style="stroke: #000000; stroke-width: 0.8"/>
      </defs>
      <g>
       <use xlink:href="#mc8f0a59669" x="183.555071" y="768.96" style="stroke: #000000; stroke-width: 0.8"/>
      </g>
     </g>
     <g id="text_1">
      <!-- 50.0 -->
      <g transform="translate(174.671489 803.002415) rotate(-45) scale(0.1 -0.1)">
       <defs>
        <path id="DejaVuSans-2212" d="M 678 2272 
L 4684 2272 
L 4684 1741 
L 678 1741 
L 678 2272 
z
" transform="scale(0.015625)"/>
        <path id="DejaVuSans-35" d="M 691 4666 
L 3169 4666 
L 3169 4134 
L 1269 4134 
L 1269 2991 
Q 1406 3038 1543 3061 
Q 1681 3084 1819 3084 
Q 2600 3084 3056 2656 
Q 3513 2228 3513 1497 
Q 3513 744 3044 326 
Q 2575 -91 1722 -91 
Q 1428 -91 1123 -41 
Q 819 9 494 109 
L 494 744 
Q 775 591 1075 516 
Q 1375 441 1709 441 
Q 2250 441 2565 725 
Q 2881 1009 2881 1497 
Q 2881 1984 2565 2268 
Q 2250 2553 1709 2553 
Q 1456 2553 1204 2497 
Q 953 2441 691 2322 
L 691 4666 
z
" transform="scale(0.015625)"/>
        <path id="DejaVuSans-30" d="M 2034 4250 
Q 1547 4250 1301 3770 
Q 1056 3291 1056 2328 
Q 1056 1369 1301 889 
Q 1547 409 2034 409 
Q 2525 409 2770 889 
Q 3016 1369 3016 2328 
Q 3016 3291 2770 3770 
Q 2525 4250 2034 4250 
z
M 2034 4750 
Q 2819 4750 3233 4129 
Q 3647 3509 3647 2328 
Q 3647 1150 3233 529 
Q 2819 -91 2034 -91 
Q 1250 -91 836 529 
Q 422 1150 422 2328 
Q 422 3509 836 4129 
Q 1250 4750 2034 4750 
z
" transform="scale(0.015625)"/>
        <path id="DejaVuSans-2e" d="M 684 794 
L 1344 794 
L 1344 0 
L 684 0 
L 684 794 
z
" transform="scale(0.015625)"/>
       </defs>
       <use xlink:href="#DejaVuSans-2212"/>
       <use xlink:href="#DejaVuSans-35" transform="translate(83.789062 0)"/>
       <use xlink:href="#DejaVuSans-30" transform="translate(147.412109 0)"/>
       <use xlink:href="#DejaVuSans-2e" transform="translate(211.035156 0)"/>
       <use xlink:href="#DejaVuSans-30" transform="translate(242.822266 0)"/>
      </g>
     </g>
    </g>
    <g id="xtick_2">
     <g id="line2d_3">
      <path d="M 260.762171 768.96 
L 260.762171 103.68 
" clip-path="url(#p1f1dec28cc)" style="fill: none; stroke: #b0b0b0; stroke-width: 0.8; stroke-linecap: square"/>
     </g>
     <g id="line2d_4">
      <g>
       <use xlink:href="#mc8f0a59669" x="260.762171" y="768.96" style="stroke: #000000; stroke-width: 0.8"/>
      </g>
     </g>
     <g id="text_2">
      <!-- 49.9 -->
      <g transform="translate(251.87859 803.002415) rotate(-45) scale(0.1 -0.1)">
       <defs>
        <path id="DejaVuSans-34" d="M 2419 4116 
L 825 1625 
L 2419 1625 
L 2419 4116 
z
M 2253 4666 
L 3047 4666 
L 3047 1625 
L 3713 1625 
L 3713 1100 
L 3047 1100 
L 3047 0 
L 2419 0 
L 2419 1100 
L 313 1100 
L 313 1709 
L 2253 4666 
z
" transform="scale(0.015625)"/>
        <path id="DejaVuSans-39" d="M 703 97 
L 703 672 
Q 941 559 1184 500 
Q 1428 441 1663 441 
Q 2288 441 2617 861 
Q 2947 1281 2994 2138 
Q 2813 1869 2534 1725 
Q 2256 1581 1919 1581 
Q 1219 1581 811 2004 
Q 403 2428 403 3163 
Q 403 3881 828 4315 
Q 1253 4750 1959 4750 
Q 2769 4750 3195 4129 
Q 3622 3509 3622 2328 
Q 3622 1225 3098 567 
Q 2575 -91 1691 -91 
Q 1453 -91 1209 -44 
Q 966 3 703 97 
z
M 1959 2075 
Q 2384 2075 2632 2365 
Q 2881 2656 2881 3163 
Q 2881 3666 2632 3958 
Q 2384 4250 1959 4250 
Q 1534 4250 1286 3958 
Q 1038 3666 1038 3163 
Q 1038 2656 1286 2365 
Q 1534 2075 1959 2075 
z
" transform="scale(0.015625)"/>
       </defs>
       <use xlink:href="#DejaVuSans-2212"/>
       <use xlink:href="#DejaVuSans-34" transform="translate(83.789062 0)"/>
       <use xlink:href="#DejaVuSans-39" transform="translate(147.412109 0)"/>
       <use xlink:href="#DejaVuSans-2e" transform="translate(211.035156 0)"/>
       <use xlink:href="#DejaVuSans-39" transform="translate(242.822266 0)"/>
      </g>
     </g>
    </g>
    <g id="xtick_3">
     <g id="line2d_5">
      <path d="M 337.969272 768.96 
L 337.969272 103.68 
" clip-path="url(#p1f1dec28cc)" style="fill: none; stroke: #b0b0b0; stroke-width: 0.8; stroke-linecap: square"/>
     </g>
     <g id="line2d_6">
      <g>
       <use xlink:href="#mc8f0a59669" x="337.969272" y="768.96" style="stroke: #000000; stroke-width: 0.8"/>
      </g>
     </g>
     <g id="text_3">
      <!-- 49.8 -->
      <g transform="translate(329.08569 803.002415) rotate(-45) scale(0.1 -0.1)">
       <defs>
        <path id="DejaVuSans-38" d="M 2034 2216 
Q 1584 2216 1326 1975 
Q 1069 1734 1069 1313 
Q 1069 891 1326 650 
Q 1584 409 2034 409 
Q 2484 409 2743 651 
Q 3003 894 3003 1313 
Q 3003 1734 2745 1975 
Q 2488 2216 2034 2216 
z
M 1403 2484 
Q 997 2584 770 2862 
Q 544 3141 544 3541 
Q 544 4100 942 4425 
Q 1341 4750 2034 4750 
Q 2731 4750 3128 4425 
Q 3525 4100 3525 3541 
Q 3525 3141 3298 2862 
Q 3072 2584 2669 2484 
Q 3125 2378 3379 2068 
Q 3634 1759 3634 1313 
Q 3634 634 3220 271 
Q 2806 -91 2034 -91 
Q 1263 -91 848 271 
Q 434 634 434 1313 
Q 434 1759 690 2068 
Q 947 2378 1403 2484 
z
M 1172 3481 
Q 1172 3119 1398 2916 
Q 1625 2713 2034 2713 
Q 2441 2713 2670 2916 
Q 2900 3119 2900 3481 
Q 2900 3844 2670 4047 
Q 2441 4250 2034 4250 
Q 1625 4250 1398 4047 
Q 1172 3844 1172 3481 
z
" transform="scale(0.015625)"/>
       </defs>
       <use xlink:href="#DejaVuSans-2212"/>
       <use xlink:href="#DejaVuSans-34" transform="translate(83.789062 0)"/>
       <use xlink:href="#DejaVuSans-39" transform="translate(147.412109 0)"/>
       <use xlink:href="#DejaVuSans-2e" transform="translate(211.035156 0)"/>
       <use xlink:href="#DejaVuSans-38" transform="translate(242.822266 0)"/>
      </g>
     </g>
    </g>
    <g id="xtick_4">
     <g id="line2d_7">
      <path d="M 415.176372 768.96 
L 415.176372 103.68 
" clip-path="url(#p1f1dec28cc)" style="fill: none; stroke: #b0b0b0; stroke-width: 0.8; stroke-linecap: square"/>
     </g>
     <g id="line2d_8">
      <g>
       <use xlink:href="#mc8f0a59669" x="415.176372" y="768.96" style="stroke: #000000; stroke-width: 0.8"/>
      </g>
     </g>
     <g id="text_4">
      <!-- 49.7 -->
      <g transform="translate(406.292791 803.002415) rotate(-45) scale(0.1 -0.1)">
       <defs>
        <path id="DejaVuSans-37" d="M 525 4666 
L 3525 4666 
L 3525 4397 
L 1831 0 
L 1172 0 
L 2766 4134 
L 525 4134 
L 525 4666 
z
" transform="scale(0.015625)"/>
       </defs>
       <use xlink:href="#DejaVuSans-2212"/>
       <use xlink:href="#DejaVuSans-34" transform="translate(83.789062 0)"/>
       <use xlink:href="#DejaVuSans-39" transform="translate(147.412109 0)"/>
       <use xlink:href="#DejaVuSans-2e" transform="translate(211.035156 0)"/>
       <use xlink:href="#DejaVuSans-37" transform="translate(242.822266 0)"/>
      </g>
     </g>
    </g>
    <g id="xtick_5">
     <g id="line2d_9">
      <path d="M 492.383472 768.96 
L 492.383472 103.68 
" clip-path="url(#p1f1dec28cc)" style="fill: none; stroke: #b0b0b0; stroke-width: 0.8; stroke-linecap: square"/>
     </g>
     <g id="line2d_10">
      <g>
       <use xlink:href="#mc8f0a59669" x="492.383472" y="768.96" style="stroke: #000000; stroke-width: 0.8"/>
      </g>
     </g>
     <g id="text_5">
      <!-- 49.6 -->
      <g transform="translate(483.499891 803.002415) rotate(-45) scale(0.1 -0.1)">
       <defs>
        <path id="DejaVuSans-36" d="M 2113 2584 
Q 1688 2584 1439 2293 
Q 1191 2003 1191 1497 
Q 1191 994 1439 701 
Q 1688 409 2113 409 
Q 2538 409 2786 701 
Q 3034 994 3034 1497 
Q 3034 2003 2786 2293 
Q 2538 2584 2113 2584 
z
M 3366 4563 
L 3366 3988 
Q 3128 4100 2886 4159 
Q 2644 4219 2406 4219 
Q 1781 4219 1451 3797 
Q 1122 3375 1075 2522 
Q 1259 2794 1537 2939 
Q 1816 3084 2150 3084 
Q 2853 3084 3261 2657 
Q 3669 2231 3669 1497 
Q 3669 778 3244 343 
Q 2819 -91 2113 -91 
Q 1303 -91 875 529 
Q 447 1150 447 2328 
Q 447 3434 972 4092 
Q 1497 4750 2381 4750 
Q 2619 4750 2861 4703 
Q 3103 4656 3366 4563 
z
" transform="scale(0.015625)"/>
       </defs>
       <use xlink:href="#DejaVuSans-2212"/>
       <use xlink:href="#DejaVuSans-34" transform="translate(83.789062 0)"/>
       <use xlink:href="#DejaVuSans-39" transform="translate(147.412109 0)"/>
       <use xlink:href="#DejaVuSans-2e" transform="translate(211.035156 0)"/>
       <use xlink:href="#DejaVuSans-36" transform="translate(242.822266 0)"/>
      </g>
     </g>
    </g>
    <g id="xtick_6">
     <g id="line2d_11">
      <path d="M 569.590573 768.96 
L 569.590573 103.68 
" clip-path="url(#p1f1dec28cc)" style="fill: none; stroke: #b0b0b0; stroke-width: 0.8; stroke-linecap: square"/>
     </g>
     <g id="line2d_12">
      <g>
       <use xlink:href="#mc8f0a59669" x="569.590573" y="768.96" style="stroke: #000000; stroke-width: 0.8"/>
      </g>
     </g>
     <g id="text_6">
      <!-- 49.5 -->
      <g transform="translate(560.706992 803.002415) rotate(-45) scale(0.1 -0.1)">
       <use xlink:href="#DejaVuSans-2212"/>
       <use xlink:href="#DejaVuSans-34" transform="translate(83.789062 0)"/>
       <use xlink:href="#DejaVuSans-39" transform="translate(147.412109 0)"/>
       <use xlink:href="#DejaVuSans-2e" transform="translate(211.035156 0)"/>
       <use xlink:href="#DejaVuSans-35" transform="translate(242.822266 0)"/>
      </g>
     </g>
    </g>
    <g id="text_7">
     <!-- Longitude () -->
     <g transform="translate(336.139844 816.071414) scale(0.1 -0.1)">
      <defs>
       <path id="DejaVuSans-4c" d="M 628 4666 
L 1259 4666 
L 1259 531 
L 3531 531 
L 3531 0 
L 628 0 
L 628 4666 
z
" transform="scale(0.015625)"/>
       <path id="DejaVuSans-6f" d="M 1959 3097 
Q 1497 3097 1228 2736 
Q 959 2375 959 1747 
Q 959 1119 1226 758 
Q 1494 397 1959 397 
Q 2419 397 2687 759 
Q 2956 1122 2956 1747 
Q 2956 2369 2687 2733 
Q 2419 3097 1959 3097 
z
M 1959 3584 
Q 2709 3584 3137 3096 
Q 3566 2609 3566 1747 
Q 3566 888 3137 398 
Q 2709 -91 1959 -91 
Q 1206 -91 779 398 
Q 353 888 353 1747 
Q 353 2609 779 3096 
Q 1206 3584 1959 3584 
z
" transform="scale(0.015625)"/>
       <path id="DejaVuSans-6e" d="M 3513 2113 
L 3513 0 
L 2938 0 
L 2938 2094 
Q 2938 2591 2744 2837 
Q 2550 3084 2163 3084 
Q 1697 3084 1428 2787 
Q 1159 2491 1159 1978 
L 1159 0 
L 581 0 
L 581 3500 
L 1159 3500 
L 1159 2956 
Q 1366 3272 1645 3428 
Q 1925 3584 2291 3584 
Q 2894 3584 3203 3211 
Q 3513 2838 3513 2113 
z
" transform="scale(0.015625)"/>
       <path id="DejaVuSans-67" d="M 2906 1791 
Q 2906 2416 2648 2759 
Q 2391 3103 1925 3103 
Q 1463 3103 1205 2759 
Q 947 2416 947 1791 
Q 947 1169 1205 825 
Q 1463 481 1925 481 
Q 2391 481 2648 825 
Q 2906 1169 2906 1791 
z
M 3481 434 
Q 3481 -459 3084 -895 
Q 2688 -1331 1869 -1331 
Q 1566 -1331 1297 -1286 
Q 1028 -1241 775 -1147 
L 775 -588 
Q 1028 -725 1275 -790 
Q 1522 -856 1778 -856 
Q 2344 -856 2625 -561 
Q 2906 -266 2906 331 
L 2906 616 
Q 2728 306 2450 153 
Q 2172 0 1784 0 
Q 1141 0 747 490 
Q 353 981 353 1791 
Q 353 2603 747 3093 
Q 1141 3584 1784 3584 
Q 2172 3584 2450 3431 
Q 2728 3278 2906 2969 
L 2906 3500 
L 3481 3500 
L 3481 434 
z
" transform="scale(0.015625)"/>
       <path id="DejaVuSans-69" d="M 603 3500 
L 1178 3500 
L 1178 0 
L 603 0 
L 603 3500 
z
M 603 4863 
L 1178 4863 
L 1178 4134 
L 603 4134 
L 603 4863 
z
" transform="scale(0.015625)"/>
       <path id="DejaVuSans-74" d="M 1172 4494 
L 1172 3500 
L 2356 3500 
L 2356 3053 
L 1172 3053 
L 1172 1153 
Q 1172 725 1289 603 
Q 1406 481 1766 481 
L 2356 481 
L 2356 0 
L 1766 0 
Q 1100 0 847 248 
Q 594 497 594 1153 
L 594 3053 
L 172 3053 
L 172 3500 
L 594 3500 
L 594 4494 
L 1172 4494 
z
" transform="scale(0.015625)"/>
       <path id="DejaVuSans-75" d="M 544 1381 
L 544 3500 
L 1119 3500 
L 1119 1403 
Q 1119 906 1312 657 
Q 1506 409 1894 409 
Q 2359 409 2629 706 
Q 2900 1003 2900 1516 
L 2900 3500 
L 3475 3500 
L 3475 0 
L 2900 0 
L 2900 538 
Q 2691 219 2414 64 
Q 2138 -91 1772 -91 
Q 1169 -91 856 284 
Q 544 659 544 1381 
z
M 1991 3584 
L 1991 3584 
z
" transform="scale(0.015625)"/>
       <path id="DejaVuSans-64" d="M 2906 2969 
L 2906 4863 
L 3481 4863 
L 3481 0 
L 2906 0 
L 2906 525 
Q 2725 213 2448 61 
Q 2172 -91 1784 -91 
Q 1150 -91 751 415 
Q 353 922 353 1747 
Q 353 2572 751 3078 
Q 1150 3584 1784 3584 
Q 2172 3584 2448 3432 
Q 2725 3281 2906 2969 
z
M 947 1747 
Q 947 1113 1208 752 
Q 1469 391 1925 391 
Q 2381 391 2643 752 
Q 2906 1113 2906 1747 
Q 2906 2381 2643 2742 
Q 2381 3103 1925 3103 
Q 1469 3103 1208 2742 
Q 947 2381 947 1747 
z
" transform="scale(0.015625)"/>
       <path id="DejaVuSans-65" d="M 3597 1894 
L 3597 1613 
L 953 1613 
Q 991 1019 1311 708 
Q 1631 397 2203 397 
Q 2534 397 2845 478 
Q 3156 559 3463 722 
L 3463 178 
Q 3153 47 2828 -22 
Q 2503 -91 2169 -91 
Q 1331 -91 842 396 
Q 353 884 353 1716 
Q 353 2575 817 3079 
Q 1281 3584 2069 3584 
Q 2775 3584 3186 3129 
Q 3597 2675 3597 1894 
z
M 3022 2063 
Q 3016 2534 2758 2815 
Q 2500 3097 2075 3097 
Q 1594 3097 1305 2825 
Q 1016 2553 972 2059 
L 3022 2063 
z
" transform="scale(0.015625)"/>
       <path id="DejaVuSans-20" transform="scale(0.015625)"/>
       <path id="DejaVuSans-28" d="M 1984 4856 
Q 1566 4138 1362 3434 
Q 1159 2731 1159 2009 
Q 1159 1288 1364 580 
Q 1569 -128 1984 -844 
L 1484 -844 
Q 1016 -109 783 600 
Q 550 1309 550 2009 
Q 550 2706 781 3412 
Q 1013 4119 1484 4856 
L 1984 4856 
z
" transform="scale(0.015625)"/>
       <path id="DejaVuSans-b0" d="M 1600 4347 
Q 1350 4347 1178 4173 
Q 1006 4000 1006 3750 
Q 1006 3503 1178 3333 
Q 1350 3163 1600 3163 
Q 1850 3163 2022 3333 
Q 2194 3503 2194 3750 
Q 2194 3997 2020 4172 
Q 1847 4347 1600 4347 
z
M 1600 4750 
Q 1800 4750 1984 4673 
Q 2169 4597 2303 4453 
Q 2447 4313 2519 4134 
Q 2591 3956 2591 3750 
Q 2591 3338 2302 3052 
Q 2013 2766 1594 2766 
Q 1172 2766 890 3047 
Q 609 3328 609 3750 
Q 609 4169 896 4459 
Q 1184 4750 1600 4750 
z
" transform="scale(0.015625)"/>
       <path id="DejaVuSans-29" d="M 513 4856 
L 1013 4856 
Q 1481 4119 1714 3412 
Q 1947 2706 1947 2009 
Q 1947 1309 1714 600 
Q 1481 -109 1013 -844 
L 513 -844 
Q 928 -128 1133 580 
Q 1338 1288 1338 2009 
Q 1338 2731 1133 3434 
Q 928 4138 513 4856 
z
" transform="scale(0.015625)"/>
      </defs>
      <use xlink:href="#DejaVuSans-4c"/>
      <use xlink:href="#DejaVuSans-6f" transform="translate(53.962891 0)"/>
      <use xlink:href="#DejaVuSans-6e" transform="translate(115.144531 0)"/>
      <use xlink:href="#DejaVuSans-67" transform="translate(178.523438 0)"/>
      <use xlink:href="#DejaVuSans-69" transform="translate(242 0)"/>
      <use xlink:href="#DejaVuSans-74" transform="translate(269.783203 0)"/>
      <use xlink:href="#DejaVuSans-75" transform="translate(308.992188 0)"/>
      <use xlink:href="#DejaVuSans-64" transform="translate(372.371094 0)"/>
      <use xlink:href="#DejaVuSans-65" transform="translate(435.847656 0)"/>
      <use xlink:href="#DejaVuSans-20" transform="translate(497.371094 0)"/>
      <use xlink:href="#DejaVuSans-28" transform="translate(529.158203 0)"/>
      <use xlink:href="#DejaVuSans-b0" transform="translate(568.171875 0)"/>
      <use xlink:href="#DejaVuSans-29" transform="translate(618.171875 0)"/>
     </g>
    </g>
   </g>
   <g id="matplotlib.axis_2">
    <g id="ytick_1">
     <g id="line2d_13">
      <path d="M 109.548452 746.288246 
L 628.451548 746.288246 
" clip-path="url(#p1f1dec28cc)" style="fill: none; stroke: #b0b0b0; stroke-width: 0.8; stroke-linecap: square"/>
     </g>
     <g id="line2d_14">
      <defs>
       <path id="md314f1987a" d="M 0 0 
L -3.5 0 
" style="stroke: #000000; stroke-width: 0.8"/>
      </defs>
      <g>
       <use xlink:href="#md314f1987a" x="109.548452" y="746.288246" style="stroke: #000000; stroke-width: 0.8"/>
      </g>
     </g>
     <g id="text_8">
      <!-- 5.4 -->
      <g transform="translate(78.265639 750.087465) scale(0.1 -0.1)">
       <use xlink:href="#DejaVuSans-2212"/>
       <use xlink:href="#DejaVuSans-35" transform="translate(83.789062 0)"/>
       <use xlink:href="#DejaVuSans-2e" transform="translate(147.412109 0)"/>
       <use xlink:href="#DejaVuSans-34" transform="translate(179.199219 0)"/>
      </g>
     </g>
    </g>
    <g id="ytick_2">
     <g id="line2d_15">
      <path d="M 109.548452 668.819276 
L 628.451548 668.819276 
" clip-path="url(#p1f1dec28cc)" style="fill: none; stroke: #b0b0b0; stroke-width: 0.8; stroke-linecap: square"/>
     </g>
     <g id="line2d_16">
      <g>
       <use xlink:href="#md314f1987a" x="109.548452" y="668.819276" style="stroke: #000000; stroke-width: 0.8"/>
      </g>
     </g>
     <g id="text_9">
      <!-- 5.3 -->
      <g transform="translate(78.265639 672.618494) scale(0.1 -0.1)">
       <defs>
        <path id="DejaVuSans-33" d="M 2597 2516 
Q 3050 2419 3304 2112 
Q 3559 1806 3559 1356 
Q 3559 666 3084 287 
Q 2609 -91 1734 -91 
Q 1441 -91 1130 -33 
Q 819 25 488 141 
L 488 750 
Q 750 597 1062 519 
Q 1375 441 1716 441 
Q 2309 441 2620 675 
Q 2931 909 2931 1356 
Q 2931 1769 2642 2001 
Q 2353 2234 1838 2234 
L 1294 2234 
L 1294 2753 
L 1863 2753 
Q 2328 2753 2575 2939 
Q 2822 3125 2822 3475 
Q 2822 3834 2567 4026 
Q 2313 4219 1838 4219 
Q 1578 4219 1281 4162 
Q 984 4106 628 3988 
L 628 4550 
Q 988 4650 1302 4700 
Q 1616 4750 1894 4750 
Q 2613 4750 3031 4423 
Q 3450 4097 3450 3541 
Q 3450 3153 3228 2886 
Q 3006 2619 2597 2516 
z
" transform="scale(0.015625)"/>
       </defs>
       <use xlink:href="#DejaVuSans-2212"/>
       <use xlink:href="#DejaVuSans-35" transform="translate(83.789062 0)"/>
       <use xlink:href="#DejaVuSans-2e" transform="translate(147.412109 0)"/>
       <use xlink:href="#DejaVuSans-33" transform="translate(179.199219 0)"/>
      </g>
     </g>
    </g>
    <g id="ytick_3">
     <g id="line2d_17">
      <path d="M 109.548452 591.350305 
L 628.451548 591.350305 
" clip-path="url(#p1f1dec28cc)" style="fill: none; stroke: #b0b0b0; stroke-width: 0.8; stroke-linecap: square"/>
     </g>
     <g id="line2d_18">
      <g>
       <use xlink:href="#md314f1987a" x="109.548452" y="591.350305" style="stroke: #000000; stroke-width: 0.8"/>
      </g>
     </g>
     <g id="text_10">
      <!-- 5.2 -->
      <g transform="translate(78.265639 595.149524) scale(0.1 -0.1)">
       <defs>
        <path id="DejaVuSans-32" d="M 1228 531 
L 3431 531 
L 3431 0 
L 469 0 
L 469 531 
Q 828 903 1448 1529 
Q 2069 2156 2228 2338 
Q 2531 2678 2651 2914 
Q 2772 3150 2772 3378 
Q 2772 3750 2511 3984 
Q 2250 4219 1831 4219 
Q 1534 4219 1204 4116 
Q 875 4013 500 3803 
L 500 4441 
Q 881 4594 1212 4672 
Q 1544 4750 1819 4750 
Q 2544 4750 2975 4387 
Q 3406 4025 3406 3419 
Q 3406 3131 3298 2873 
Q 3191 2616 2906 2266 
Q 2828 2175 2409 1742 
Q 1991 1309 1228 531 
z
" transform="scale(0.015625)"/>
       </defs>
       <use xlink:href="#DejaVuSans-2212"/>
       <use xlink:href="#DejaVuSans-35" transform="translate(83.789062 0)"/>
       <use xlink:href="#DejaVuSans-2e" transform="translate(147.412109 0)"/>
       <use xlink:href="#DejaVuSans-32" transform="translate(179.199219 0)"/>
      </g>
     </g>
    </g>
    <g id="ytick_4">
     <g id="line2d_19">
      <path d="M 109.548452 513.881334 
L 628.451548 513.881334 
" clip-path="url(#p1f1dec28cc)" style="fill: none; stroke: #b0b0b0; stroke-width: 0.8; stroke-linecap: square"/>
     </g>
     <g id="line2d_20">
      <g>
       <use xlink:href="#md314f1987a" x="109.548452" y="513.881334" style="stroke: #000000; stroke-width: 0.8"/>
      </g>
     </g>
     <g id="text_11">
      <!-- 5.1 -->
      <g transform="translate(78.265639 517.680553) scale(0.1 -0.1)">
       <defs>
        <path id="DejaVuSans-31" d="M 794 531 
L 1825 531 
L 1825 4091 
L 703 3866 
L 703 4441 
L 1819 4666 
L 2450 4666 
L 2450 531 
L 3481 531 
L 3481 0 
L 794 0 
L 794 531 
z
" transform="scale(0.015625)"/>
       </defs>
       <use xlink:href="#DejaVuSans-2212"/>
       <use xlink:href="#DejaVuSans-35" transform="translate(83.789062 0)"/>
       <use xlink:href="#DejaVuSans-2e" transform="translate(147.412109 0)"/>
       <use xlink:href="#DejaVuSans-31" transform="translate(179.199219 0)"/>
      </g>
     </g>
    </g>
    <g id="ytick_5">
     <g id="line2d_21">
      <path d="M 109.548452 436.412363 
L 628.451548 436.412363 
" clip-path="url(#p1f1dec28cc)" style="fill: none; stroke: #b0b0b0; stroke-width: 0.8; stroke-linecap: square"/>
     </g>
     <g id="line2d_22">
      <g>
       <use xlink:href="#md314f1987a" x="109.548452" y="436.412363" style="stroke: #000000; stroke-width: 0.8"/>
      </g>
     </g>
     <g id="text_12">
      <!-- 5.0 -->
      <g transform="translate(78.265639 440.211582) scale(0.1 -0.1)">
       <use xlink:href="#DejaVuSans-2212"/>
       <use xlink:href="#DejaVuSans-35" transform="translate(83.789062 0)"/>
       <use xlink:href="#DejaVuSans-2e" transform="translate(147.412109 0)"/>
       <use xlink:href="#DejaVuSans-30" transform="translate(179.199219 0)"/>
      </g>
     </g>
    </g>
    <g id="ytick_6">
     <g id="line2d_23">
      <path d="M 109.548452 358.943393 
L 628.451548 358.943393 
" clip-path="url(#p1f1dec28cc)" style="fill: none; stroke: #b0b0b0; stroke-width: 0.8; stroke-linecap: square"/>
     </g>
     <g id="line2d_24">
      <g>
       <use xlink:href="#md314f1987a" x="109.548452" y="358.943393" style="stroke: #000000; stroke-width: 0.8"/>
      </g>
     </g>
     <g id="text_13">
      <!-- 4.9 -->
      <g transform="translate(78.265639 362.742612) scale(0.1 -0.1)">
       <use xlink:href="#DejaVuSans-2212"/>
       <use xlink:href="#DejaVuSans-34" transform="translate(83.789062 0)"/>
       <use xlink:href="#DejaVuSans-2e" transform="translate(147.412109 0)"/>
       <use xlink:href="#DejaVuSans-39" transform="translate(179.199219 0)"/>
      </g>
     </g>
    </g>
    <g id="ytick_7">
     <g id="line2d_25">
      <path d="M 109.548452 281.474422 
L 628.451548 281.474422 
" clip-path="url(#p1f1dec28cc)" style="fill: none; stroke: #b0b0b0; stroke-width: 0.8; stroke-linecap: square"/>
     </g>
     <g id="line2d_26">
      <g>
       <use xlink:href="#md314f1987a" x="109.548452" y="281.474422" style="stroke: #000000; stroke-width: 0.8"/>
      </g>
     </g>
     <g id="text_14">
      <!-- 4.8 -->
      <g transform="translate(78.265639 285.273641) scale(0.1 -0.1)">
       <use xlink:href="#DejaVuSans-2212"/>
       <use xlink:href="#DejaVuSans-34" transform="translate(83.789062 0)"/>
       <use xlink:href="#DejaVuSans-2e" transform="translate(147.412109 0)"/>
       <use xlink:href="#DejaVuSans-38" transform="translate(179.199219 0)"/>
      </g>
     </g>
    </g>
    <g id="ytick_8">
     <g id="line2d_27">
      <path d="M 109.548452 204.005451 
L 628.451548 204.005451 
" clip-path="url(#p1f1dec28cc)" style="fill: none; stroke: #b0b0b0; stroke-width: 0.8; stroke-linecap: square"/>
     </g>
     <g id="line2d_28">
      <g>
       <use xlink:href="#md314f1987a" x="109.548452" y="204.005451" style="stroke: #000000; stroke-width: 0.8"/>
      </g>
     </g>
     <g id="text_15">
      <!-- 4.7 -->
      <g transform="translate(78.265639 207.80467) scale(0.1 -0.1)">
       <use xlink:href="#DejaVuSans-2212"/>
       <use xlink:href="#DejaVuSans-34" transform="translate(83.789062 0)"/>
       <use xlink:href="#DejaVuSans-2e" transform="translate(147.412109 0)"/>
       <use xlink:href="#DejaVuSans-37" transform="translate(179.199219 0)"/>
      </g>
     </g>
    </g>
    <g id="ytick_9">
     <g id="line2d_29">
      <path d="M 109.548452 126.536481 
L 628.451548 126.536481 
" clip-path="url(#p1f1dec28cc)" style="fill: none; stroke: #b0b0b0; stroke-width: 0.8; stroke-linecap: square"/>
     </g>
     <g id="line2d_30">
      <g>
       <use xlink:href="#md314f1987a" x="109.548452" y="126.536481" style="stroke: #000000; stroke-width: 0.8"/>
      </g>
     </g>
     <g id="text_16">
      <!-- 4.6 -->
      <g transform="translate(78.265639 130.335699) scale(0.1 -0.1)">
       <use xlink:href="#DejaVuSans-2212"/>
       <use xlink:href="#DejaVuSans-34" transform="translate(83.789062 0)"/>
       <use xlink:href="#DejaVuSans-2e" transform="translate(147.412109 0)"/>
       <use xlink:href="#DejaVuSans-36" transform="translate(179.199219 0)"/>
      </g>
     </g>
    </g>
    <g id="text_17">
     <!-- Latitude () -->
     <g transform="translate(72.185952 464.889531) rotate(-90) scale(0.1 -0.1)">
      <defs>
       <path id="DejaVuSans-61" d="M 2194 1759 
Q 1497 1759 1228 1600 
Q 959 1441 959 1056 
Q 959 750 1161 570 
Q 1363 391 1709 391 
Q 2188 391 2477 730 
Q 2766 1069 2766 1631 
L 2766 1759 
L 2194 1759 
z
M 3341 1997 
L 3341 0 
L 2766 0 
L 2766 531 
Q 2569 213 2275 61 
Q 1981 -91 1556 -91 
Q 1019 -91 701 211 
Q 384 513 384 1019 
Q 384 1609 779 1909 
Q 1175 2209 1959 2209 
L 2766 2209 
L 2766 2266 
Q 2766 2663 2505 2880 
Q 2244 3097 1772 3097 
Q 1472 3097 1187 3025 
Q 903 2953 641 2809 
L 641 3341 
Q 956 3463 1253 3523 
Q 1550 3584 1831 3584 
Q 2591 3584 2966 3190 
Q 3341 2797 3341 1997 
z
" transform="scale(0.015625)"/>
      </defs>
      <use xlink:href="#DejaVuSans-4c"/>
      <use xlink:href="#DejaVuSans-61" transform="translate(55.712891 0)"/>
      <use xlink:href="#DejaVuSans-74" transform="translate(116.992188 0)"/>
      <use xlink:href="#DejaVuSans-69" transform="translate(156.201172 0)"/>
      <use xlink:href="#DejaVuSans-74" transform="translate(183.984375 0)"/>
      <use xlink:href="#DejaVuSans-75" transform="translate(223.193359 0)"/>
      <use xlink:href="#DejaVuSans-64" transform="translate(286.572266 0)"/>
      <use xlink:href="#DejaVuSans-65" transform="translate(350.048828 0)"/>
      <use xlink:href="#DejaVuSans-20" transform="translate(411.572266 0)"/>
      <use xlink:href="#DejaVuSans-28" transform="translate(443.359375 0)"/>
      <use xlink:href="#DejaVuSans-b0" transform="translate(482.373047 0)"/>
      <use xlink:href="#DejaVuSans-29" transform="translate(532.373047 0)"/>
     </g>
    </g>
   </g>
   <g id="patch_3">
    <path d="M 109.548452 768.96 
L 109.548452 103.68 
" style="fill: none; stroke: #000000; stroke-width: 0.8; stroke-linejoin: miter; stroke-linecap: square"/>
   </g>
   <g id="patch_4">
    <path d="M 628.451548 768.96 
L 628.451548 103.68 
" style="fill: none; stroke: #000000; stroke-width: 0.8; stroke-linejoin: miter; stroke-linecap: square"/>
   </g>
   <g id="patch_5">
    <path d="M 109.548452 768.96 
L 628.451548 768.96 
" style="fill: none; stroke: #000000; stroke-width: 0.8; stroke-linejoin: miter; stroke-linecap: square"/>
   </g>
   <g id="patch_6">
    <path d="M 109.548452 103.68 
L 628.451548 103.68 
" style="fill: none; stroke: #000000; stroke-width: 0.8; stroke-linejoin: miter; stroke-linecap: square"/>
   </g>
  </g>
 </g>
 <defs>
  <clipPath id="p1f1dec28cc">
   <rect x="109.548452" y="103.68" width="518.903097" height="665.28"/>
  </clipPath>
 </defs>
</svg>
