<?xml version="1.0" encoding="utf-8" standalone="no"?>
<!DOCTYPE svg PUBLIC "-//W3C//DTD SVG 1.1//EN"
  "http://www.w3.org/Graphics/SVG/1.1/DTD/svg11.dtd">
<svg xmlns:xlink="http://www.w3.org/1999/xlink" width="720pt" height="864pt" viewBox="0 0 720 864" xmlns="http://www.w3.org/2000/svg" version="1.1">
 <metadata>
  <rdf:RDF xmlns:dc="http://purl.org/dc/elements/1.1/" xmlns:cc="http://creativecommons.org/ns#" xmlns:rdf="http://www.w3.org/1999/02/22-rdf-syntax-ns#">
   <cc:Work>
    <dc:type rdf:resource="http://purl.org/dc/dcmitype/StillImage"/>
    <dc:date>2025-06-16T16:51:11.325702</dc:date>
    <dc:format>image/svg+xml</dc:format>
    <dc:creator>
     <cc:Agent>
      <dc:title>Matplotlib v3.10.1, https://matplotlib.org/</dc:title>
     </cc:Agent>
    </dc:creator>
   </cc:Work>
  </rdf:RDF>
 </metadata>
 <defs>
  <style type="text/css">*{stroke-linejoin: round; stroke-linecap: butt}</style>
 </defs>
 <g id="figure_1">
  <g id="patch_1">
   <path d="M 0 864 
L 720 864 
L 720 0 
L 0 0 
z
" style="fill: #ffffff"/>
  </g>
  <g id="axes_1">
   <g id="patch_2">
    <path d="M 111.272482 768.96 
L 626.727518 768.96 
L 626.727518 103.68 
L 111.272482 103.68 
z
" style="fill: #ffffff"/>
   </g>
   <g id="PatchCollection_1">
    <path d="M 134.702256 133.92 
L 136.924702 134.645374 
L 144.458963 137.542249 
L 152.37347 140.591171 
L 156.208722 142.150881 
L 159.477649 145.246319 
L 160.831029 147.144842 
L 161.662591 149.272394 
L 162.832381 150.912253 
L 163.938538 153.333378 
L 166.204595 157.427635 
L 168.361547 161.322269 
L 170.693343 165.278123 
L 173.072019 169.226989 
L 175.777332 172.179392 
L 178.836325 172.515511 
L 178.761912 172.857816 
L 178.745453 173.183549 
L 178.839134 173.494898 
L 178.851325 173.822541 
L 178.684226 173.971049 
L 178.643877 174.251505 
L 178.59733 174.389263 
L 178.271555 174.790579 
L 178.166552 175.292621 
L 177.914006 175.424376 
L 177.781502 175.458867 
L 177.779875 175.607106 
L 178.022904 175.851387 
L 178.211473 175.927623 
L 178.444927 176.196738 
L 178.663019 176.312353 
L 178.826375 176.522775 
L 179.028051 176.687313 
L 179.357548 176.737107 
L 179.620057 176.682828 
L 179.824028 176.491012 
L 179.896374 176.708948 
L 180.121531 176.907193 
L 180.374523 176.988875 
L 180.499493 177.084092 
L 180.701797 177.173684 
L 180.92718 177.14361 
L 181.060939 176.959412 
L 181.171664 176.762812 
L 181.296761 176.891459 
L 181.520105 176.660995 
L 181.664344 176.737953 
L 181.934874 176.633864 
L 182.158795 176.363171 
L 182.079845 176.135709 
L 182.23221 175.950704 
L 182.407913 176.001825 
L 182.731042 176.248184 
L 182.670871 176.449181 
L 182.707047 176.750648 
L 182.768743 176.998565 
L 183.066287 176.993744 
L 183.360615 176.767047 
L 183.501822 176.52643 
L 183.539705 176.365561 
L 183.697239 176.340524 
L 183.97709 176.432756 
L 184.194074 176.736464 
L 184.085815 177.245315 
L 184.236854 177.622751 
L 184.404977 177.695576 
L 184.634276 177.447822 
L 184.736918 177.189168 
L 184.916163 177.020408 
L 185.197662 176.730389 
L 185.314498 176.653894 
L 185.574092 177.032013 
L 185.887415 177.002884 
L 186.074566 176.993897 
L 186.179701 177.150539 
L 186.402774 177.376159 
L 186.747886 177.310538 
L 186.990877 177.400891 
L 187.165097 177.637352 
L 187.312564 177.891367 
L 187.63971 177.419694 
L 187.871034 177.608177 
L 188.149653 177.760109 
L 188.309773 178.126672 
L 188.626482 178.267803 
L 188.987597 178.14077 
L 189.476837 177.979261 
L 189.833628 177.914329 
L 190.225988 177.608452 
L 190.396444 177.383702 
L 190.770611 177.522038 
L 191.25189 177.56959 
L 191.607102 177.712959 
L 191.785017 178.009286 
L 191.781661 178.325599 
L 191.96622 178.498282 
L 192.279712 178.561175 
L 192.511693 178.874008 
L 192.775577 178.654223 
L 192.701306 178.218816 
L 193.130126 177.953575 
L 193.301167 178.169475 
L 193.441442 178.355187 
L 193.449955 178.817481 
L 193.687947 178.649227 
L 194.068071 178.388215 
L 194.300141 178.006729 
L 194.552651 178.057551 
L 194.712676 178.255309 
L 194.803907 178.831901 
L 194.974209 178.854203 
L 195.257059 178.440927 
L 195.103787 178.052849 
L 195.06744 177.467963 
L 195.524275 177.564283 
L 195.779129 177.655873 
L 195.867551 178.165799 
L 196.136124 178.792401 
L 196.348598 178.487402 
L 196.690895 178.497099 
L 196.954812 178.716496 
L 197.388701 179.110652 
L 197.201516 179.588581 
L 197.540646 179.867935 
L 197.686754 180.29094 
L 198.173355 180.681033 
L 198.948961 180.645887 
L 201.131787 180.958879 
L 202.875419 181.590419 
L 203.912616 182.836535 
L 205.643155 183.478589 
L 207.633056 184.197698 
L 209.372506 185.117804 
L 210.790231 186.397516 
L 212.822941 187.050873 
L 213.558679 189.132607 
L 214.936397 190.633984 
L 215.838112 192.369199 
L 217.213676 193.87811 
L 218.864236 194.925278 
L 219.698282 196.662218 
L 220.012094 198.612232 
L 220.491438 200.956145 
L 222.111209 200.445448 
L 223.38119 203.812864 
L 225.354584 205.495207 
L 224.250971 206.297968 
L 223.239247 208.222656 
L 222.510571 210.025746 
L 221.627985 212.037913 
L 222.420687 215.63495 
L 224.061422 217.247685 
L 226.376029 218.269825 
L 227.40636 218.523135 
L 229.020102 220.608571 
L 229.733938 222.150342 
L 231.18024 223.819475 
L 232.02514 227.267321 
L 231.899579 228.532996 
L 233.583543 229.615071 
L 234.56316 231.566499 
L 232.122766 234.450272 
L 234.023175 239.084586 
L 233.169534 241.687728 
L 232.044442 243.639507 
L 229.789729 245.09941 
L 227.740166 246.297867 
L 227.733558 247.184331 
L 227.123858 249.698171 
L 228.169875 252.726255 
L 229.368771 254.805215 
L 229.572797 259.673023 
L 230.133862 262.036429 
L 229.590037 264.502807 
L 230.085113 266.879696 
L 229.755919 267.997025 
L 230.856144 271.255034 
L 230.252283 274.188561 
L 229.989947 276.456012 
L 229.108539 278.439356 
L 228.581216 280.784627 
L 228.844901 282.817473 
L 228.702758 284.837588 
L 228.897086 286.628249 
L 224.77278 289.619335 
L 228.824837 290.861059 
L 228.631208 292.307194 
L 228.067657 294.531197 
L 230.52765 296.439497 
L 231.394772 295.005956 
L 232.122927 296.078715 
L 232.723093 297.926552 
L 233.608792 299.160692 
L 232.899937 301.223263 
L 233.461581 303.57949 
L 234.399115 305.800698 
L 235.377423 308.089889 
L 236.175591 310.269948 
L 237.307164 311.853753 
L 236.858516 314.15353 
L 236.306058 316.4089 
L 237.513398 319.07868 
L 237.236216 320.055293 
L 237.001004 322.249531 
L 238.755565 322.489462 
L 239.152216 323.934915 
L 239.881175 325.672755 
L 240.453719 326.883688 
L 241.402327 328.237504 
L 241.896825 329.226125 
L 244.395301 330.589965 
L 245.336428 331.428403 
L 245.576836 332.71577 
L 244.999424 334.089399 
L 245.909705 335.857369 
L 246.165162 337.166166 
L 245.576425 338.163301 
L 244.935188 339.686332 
L 245.979372 341.02635 
L 246.431426 342.076115 
L 247.326039 343.008039 
L 247.784701 343.880711 
L 248.3869 344.691097 
L 249.642979 345.34423 
L 250.139093 345.203767 
L 251.301962 348.610599 
L 249.638682 356.398905 
L 246.041594 357.895292 
L 247.082913 358.079059 
L 246.42296 358.271236 
L 247.976604 359.143414 
L 247.615104 360.111547 
L 250.664788 362.472729 
L 249.561318 364.214342 
L 249.301748 364.699549 
L 252.269304 366.308335 
L 254.366227 367.61457 
L 256.563494 369.056137 
L 259.882759 370.778293 
L 263.458711 374.016399 
L 265.296415 376.07506 
L 270.234599 378.410246 
L 274.252613 378.481052 
L 271.901024 389.071879 
L 272.258288 390.362428 
L 273.362335 390.483274 
L 273.961973 391.325783 
L 275.907438 391.183904 
L 278.182857 392.66917 
L 279.74996 392.45478 
L 281.230502 393.052399 
L 282.333627 392.756294 
L 283.744712 392.632893 
L 285.020843 394.277176 
L 287.726787 395.182293 
L 291.300045 395.729788 
L 292.735606 395.567522 
L 296.057103 397.642169 
L 299.28681 396.592681 
L 301.39958 398.237788 
L 304.456632 399.471688 
L 307.725651 400.552089 
L 309.428286 399.598005 
L 311.22397 399.191627 
L 313.353972 396.91979 
L 315.586604 399.563562 
L 317.641532 399.559474 
L 319.96251 400.654876 
L 324.029279 395.530087 
L 324.966861 386.234086 
L 327.871009 387.477547 
L 328.072524 387.633037 
L 328.215339 387.756254 
L 328.45802 387.985229 
L 328.798498 388.258624 
L 329.3464 388.614015 
L 329.914042 388.93204 
L 330.764401 389.315224 
L 331.220596 389.551781 
L 332.291711 390.38425 
L 332.913275 390.953686 
L 333.435776 391.435543 
L 334.082179 392.010387 
L 335.124577 392.915703 
L 335.807396 393.516478 
L 336.375926 394.009902 
L 337.085088 394.627467 
L 337.818978 395.268625 
L 338.714826 396.028327 
L 339.429409 396.677643 
L 340.109758 397.253078 
L 340.779619 397.852064 
L 340.9532 397.957154 
L 342.547142 399.393415 
L 344.514725 400.134975 
L 345.414658 400.501962 
L 345.851982 400.490447 
L 346.838192 400.6229 
L 349.435359 401.111542 
L 351.635054 401.448248 
L 356.442298 401.861373 
L 359.816366 402.024844 
L 363.229101 402.683138 
L 366.842726 403.430782 
L 369.834849 404.171589 
L 370.702618 404.16363 
L 373.103474 403.890785 
L 376.675725 404.785499 
L 379.644284 405.970854 
L 381.28088 406.575392 
L 381.342526 406.298533 
L 382.834001 399.45312 
L 381.027483 392.698923 
L 381.188058 391.843835 
L 419.731035 388.222227 
L 419.809372 380.937123 
L 420.380765 373.527296 
L 466.135854 373.028766 
L 512.133274 416.334768 
L 512.683829 416.705277 
L 557.716846 435.210593 
L 603.297744 453.951047 
L 601.559524 455.634936 
L 600.484738 455.951413 
L 599.544628 455.672634 
L 598.727617 455.937677 
L 598.534834 455.826478 
L 598.005863 455.047121 
L 596.520604 454.56132 
L 595.70578 453.96703 
L 594.639544 452.258484 
L 592.675791 454.071526 
L 592.260158 455.276071 
L 591.922309 455.720684 
L 591.05131 455.81938 
L 589.957604 456.580559 
L 589.3489 457.349019 
L 588.96188 457.686772 
L 588.050454 457.804556 
L 587.714374 457.892686 
L 587.595419 457.335252 
L 585.278031 456.477987 
L 584.039493 457.422338 
L 583.338957 459.039865 
L 582.278862 459.898784 
L 581.204617 460.174473 
L 580.226131 459.968938 
L 578.856466 459.120632 
L 576.50892 459.459263 
L 575.738468 460.252473 
L 575.271662 460.407461 
L 574.281422 459.753115 
L 573.401603 460.572505 
L 573.145069 460.401151 
L 571.597871 461.191996 
L 570.630297 461.928014 
L 570.135083 462.484779 
L 568.800332 462.989859 
L 567.708719 463.821175 
L 565.335622 466.106112 
L 563.713196 466.153646 
L 564.439663 467.85873 
L 564.466758 468.657339 
L 563.437891 469.269833 
L 563.392664 470.311546 
L 562.411844 471.28417 
L 561.968605 472.484063 
L 562.132027 473.634527 
L 561.902518 474.245803 
L 561.446106 473.969332 
L 560.027887 475.582222 
L 560.09807 475.95548 
L 559.810337 475.957997 
L 558.33493 475.782491 
L 557.761829 477.557422 
L 557.408773 477.991998 
L 556.508103 478.503114 
L 555.623539 479.760913 
L 555.630477 480.842075 
L 555.851717 481.339392 
L 555.770311 482.283373 
L 554.784892 483.379985 
L 555.044082 484.567692 
L 554.193289 485.873099 
L 553.761478 486.670369 
L 552.921347 486.914923 
L 551.783928 486.628691 
L 549.804048 486.424483 
L 549.501813 488.309372 
L 548.896029 487.48844 
L 548.144196 488.24906 
L 547.017085 489.411843 
L 545.773971 490.239945 
L 544.683395 489.899512 
L 543.809196 492.451323 
L 542.346868 492.614966 
L 541.774363 493.758115 
L 540.451796 494.872327 
L 539.558694 495.063473 
L 538.806257 495.596725 
L 538.281081 496.237916 
L 537.254219 496.903105 
L 537.170711 497.610731 
L 536.659484 498.011821 
L 536.840711 499.492439 
L 536.400768 499.92261 
L 536.064953 500.598072 
L 533.150389 500.945689 
L 531.511106 501.296126 
L 530.531255 500.994329 
L 529.000577 500.486609 
L 527.684721 500.77285 
L 526.835052 501.444625 
L 526.35764 503.205934 
L 525.790027 503.521125 
L 525.016542 503.565377 
L 524.97733 504.0471 
L 524.140404 504.973188 
L 523.664096 505.47918 
L 522.884712 505.509498 
L 523.015679 506.236049 
L 522.407448 506.743154 
L 522.143456 507.707941 
L 521.452292 510.276246 
L 519.201059 511.210012 
L 517.047981 510.404463 
L 514.337199 510.841723 
L 512.538289 512.728773 
L 511.115057 514.957118 
L 509.334623 517.075133 
L 507.663797 518.006602 
L 506.074434 520.088725 
L 503.586178 520.991157 
L 501.335694 521.983855 
L 498.789419 521.410257 
L 496.082874 520.692055 
L 495.116534 519.394728 
L 492.854876 520.903181 
L 491.467485 523.11833 
L 490.428984 525.551844 
L 488.995355 526.574123 
L 486.28433 528.672379 
L 483.800744 531.314228 
L 482.396859 532.994808 
L 480.659341 534.747877 
L 478.561859 536.430473 
L 477.376983 538.82145 
L 475.783578 541.048126 
L 474.081213 542.965424 
L 471.538948 543.978795 
L 469.228246 545.255292 
L 467.065673 546.741454 
L 465.376357 547.768109 
L 465.815202 549.993909 
L 463.38166 551.617861 
L 465.818413 557.714555 
L 461.226852 562.144651 
L 452.237011 570.81833 
L 448.133904 574.777273 
L 442.792273 585.581852 
L 441.347189 586.072641 
L 436.080225 592.126417 
L 433.279944 591.121632 
L 433.078458 591.512219 
L 432.930371 591.798259 
L 432.782944 592.374304 
L 432.846507 592.782876 
L 432.77683 593.405061 
L 432.48109 594.037565 
L 432.301116 594.642216 
L 432.188271 595.240523 
L 431.598446 595.499589 
L 431.200704 596.002856 
L 431.145849 596.327808 
L 430.568939 596.708773 
L 429.902076 596.830047 
L 429.356958 596.86926 
L 429.024287 597.398149 
L 428.855719 597.761966 
L 428.894163 598.186072 
L 429.034818 598.438388 
L 429.357979 598.82603 
L 429.673936 599.236845 
L 429.310981 599.636194 
L 429.110985 600.122282 
L 429.150205 600.645013 
L 429.055988 600.764242 
L 428.801865 600.829044 
L 428.635462 601.230871 
L 428.313383 601.586152 
L 428.298154 602.136846 
L 428.211189 602.551746 
L 427.881694 602.966934 
L 427.567687 603.200961 
L 427.156444 603.969315 
L 426.870591 604.215346 
L 426.293669 604.46297 
L 425.934552 604.557234 
L 425.395953 604.717088 
L 424.980324 604.957604 
L 424.768407 604.946925 
L 424.484039 605.331066 
L 424.831888 605.511247 
L 425.316496 605.621059 
L 425.346369 606.002775 
L 425.118916 606.425246 
L 424.803096 606.750379 
L 424.331201 607.064783 
L 423.577373 607.208094 
L 423.351529 607.886222 
L 423.747039 609.47786 
L 423.960251 610.940596 
L 421.65071 612.10393 
L 420.19865 612.552496 
L 419.390177 613.600042 
L 417.364753 614.145056 
L 416.294694 614.736924 
L 416.316492 615.942603 
L 415.338754 616.573754 
L 415.097424 616.951654 
L 415.062447 617.318216 
L 414.566631 618.333958 
L 414.457422 621.346918 
L 413.333183 622.560542 
L 411.629921 624.618531 
L 410.277247 625.450354 
L 410.977062 625.963698 
L 411.390656 626.59267 
L 412.69681 626.863225 
L 413.094591 627.331738 
L 413.081657 628.303389 
L 413.022164 629.22583 
L 413.693974 629.806328 
L 413.530999 630.200061 
L 413.336512 630.476747 
L 412.983321 630.593944 
L 413.161006 630.929122 
L 413.667678 630.768301 
L 413.871093 632.068539 
L 414.350933 632.301428 
L 415.407815 634.198108 
L 415.206195 635.041069 
L 415.797346 636.104028 
L 416.30748 635.985433 
L 415.50333 637.285324 
L 415.963474 638.046886 
L 415.92542 639.295979 
L 416.099192 640.224783 
L 416.459584 640.258711 
L 416.649003 641.000476 
L 416.296439 641.093612 
L 416.712827 641.558185 
L 416.544663 641.976552 
L 416.84613 642.190721 
L 417.01076 643.290372 
L 416.791385 644.295586 
L 417.307419 644.365774 
L 417.054479 645.286826 
L 416.244702 645.411094 
L 416.581651 645.994099 
L 416.267772 647.663666 
L 416.876534 648.78936 
L 416.262592 650.669573 
L 415.851569 651.800489 
L 415.4154 652.458937 
L 415.168705 652.907757 
L 415.856741 653.260616 
L 415.589522 654.171076 
L 414.77068 654.004824 
L 414.272529 654.285548 
L 414.630041 655.204025 
L 414.175547 657.027365 
L 415.381595 657.616435 
L 416.507059 659.450184 
L 416.490343 660.912239 
L 415.786475 661.534352 
L 416.025003 662.321824 
L 415.818421 662.630522 
L 415.310493 664.068572 
L 415.6493 664.657261 
L 414.987707 665.570674 
L 415.435316 666.429261 
L 415.756519 667.916336 
L 415.969484 670.75547 
L 415.991297 671.477922 
L 416.538836 671.441262 
L 417.333512 672.417027 
L 417.057592 673.253325 
L 417.641845 674.141819 
L 417.3811 675.509216 
L 417.708147 675.815106 
L 417.59093 676.1091 
L 418.167289 676.330735 
L 417.721451 676.990514 
L 416.219159 678.145518 
L 415.85984 678.5028 
L 415.460984 678.70101 
L 415.72329 679.892263 
L 414.736916 681.261995 
L 414.169645 682.256009 
L 414.524973 682.55976 
L 413.857119 682.630909 
L 414.171137 683.312453 
L 414.709334 683.528556 
L 415.656747 685.676016 
L 415.212536 685.765137 
L 415.600833 686.533423 
L 416.46629 687.410808 
L 416.419025 687.804605 
L 416.045612 688.982018 
L 416.074451 689.419389 
L 415.598046 690.713499 
L 415.844128 692.474919 
L 416.010349 693.599723 
L 415.658455 694.467567 
L 415.022815 695.391346 
L 414.445616 695.320875 
L 414.137195 695.979339 
L 414.365161 696.899462 
L 413.893176 696.894481 
L 413.028067 698.198135 
L 412.482579 697.811439 
L 411.503884 697.091201 
L 410.105487 696.080339 
L 408.567243 695.014048 
L 406.888355 693.832638 
L 405.133722 692.605628 
L 403.364698 691.340471 
L 402.032062 690.3846 
L 393.575296 684.566225 
L 390.458638 682.328313 
L 387.170606 680.043906 
L 383.800092 677.583325 
L 380.338493 675.160395 
L 376.780436 672.579346 
L 373.114461 669.892939 
L 369.315095 667.11946 
L 365.545113 664.386614 
L 361.679069 661.501519 
L 358.832019 659.249487 
L 358.629828 658.989519 
L 355.00585 664.446238 
L 350.824703 671.068286 
L 347.17379 676.735609 
L 344.233921 681.165334 
L 340.023861 687.526697 
L 336.670204 693.334584 
L 333.246886 699.340578 
L 329.429934 705.720334 
L 325.369 711.718153 
L 322.523408 716.872269 
L 318.609173 719.363723 
L 315.30902 722.505208 
L 310.392165 726.996976 
L 305.982539 730.609958 
L 301.900744 733.835125 
L 297.755049 737.285001 
L 296.082825 738.72 
L 289.727578 732.907872 
L 284.310668 727.259318 
L 281.026295 715.723399 
L 276.991511 703.107766 
L 271.827993 690.173449 
L 266.835428 677.634182 
L 262.299723 666.23967 
L 257.599238 654.458401 
L 254.025793 638.07376 
L 249.009472 622.237328 
L 241.782359 606.407573 
L 235.763222 593.391719 
L 229.563376 588.615594 
L 221.648899 573.121297 
L 223.107096 563.156533 
L 223.389872 561.063658 
L 223.845418 555.600129 
L 223.960283 552.399244 
L 221.765593 535.546676 
L 218.464927 527.822781 
L 215.859179 518.139523 
L 215.02331 512.021739 
L 214.705362 508.354925 
L 213.624647 501.270303 
L 212.243588 496.827823 
L 211.131408 493.234519 
L 209.114476 484.632001 
L 208.511253 474.945456 
L 207.910594 465.296732 
L 207.312782 455.805406 
L 206.750767 446.870851 
L 206.249701 438.673344 
L 205.584428 430.194349 
L 201.743218 423.271385 
L 198.366572 417.872759 
L 197.412513 416.076637 
L 195.959979 413.684232 
L 193.571148 409.69363 
L 189.544207 402.969309 
L 185.722804 396.578448 
L 182.588504 390.244372 
L 181.499423 383.490064 
L 180.281097 376.007406 
L 178.010132 371.262975 
L 177.21786 368.577151 
L 175.114374 364.902734 
L 174.192679 361.774 
L 171.003399 354.611816 
L 168.067739 348.049445 
L 165.137774 341.533136 
L 163.718213 334.895941 
L 162.743883 330.060409 
L 161.455742 324.372699 
L 159.201912 313.942347 
L 157.147044 304.418966 
L 155.024404 294.667695 
L 152.942877 284.914959 
L 153.240183 278.239828 
L 153.877915 271.024821 
L 155.225257 263.720743 
L 154.994783 257.485924 
L 152.981332 250.567695 
L 151.190642 244.739679 
L 149.020076 237.988998 
L 147.030786 231.880318 
L 145.522724 227.282974 
L 143.020774 219.576528 
L 140.562704 211.977718 
L 140.374351 204.81582 
L 141.028297 196.715189 
L 141.687305 188.501757 
L 141.841809 180.853619 
L 141.549964 177.919629 
L 142.044293 173.490193 
L 142.058362 168.94485 
L 142.132446 166.913927 
L 142.49592 166.151899 
L 142.716593 162.787782 
L 142.324944 161.73621 
L 142.923351 159.119167 
L 142.305118 156.033044 
L 141.290823 152.367984 
L 139.762583 148.939444 
L 136.720693 141.828991 
L 135.790792 138.277845 
L 134.702256 133.92 
" clip-path="url(#pdbf38a67c1)" style="fill: #e0bd1f; stroke: #0000ff; stroke-width: 0.5"/>
    <path d="M 328.536678 239.072744 
L 333.448314 239.796783 
L 333.919996 239.814547 
L 337.882696 240.386242 
L 341.264476 240.905151 
L 345.347624 241.486804 
L 347.021274 241.65494 
L 352.902193 242.467015 
L 356.229815 242.90234 
L 362.680448 243.749905 
L 369.460641 244.617407 
L 376.918498 245.598757 
L 384.009013 246.513218 
L 387.527496 246.959243 
L 389.938555 246.808047 
L 396.487408 245.676163 
L 403.296126 244.478358 
L 406.8005 243.86921 
L 411.021976 243.065936 
L 413.355966 242.72069 
L 418.201551 241.874814 
L 420.695942 241.406028 
L 420.710367 248.526196 
L 420.182013 248.613022 
L 420.296011 249.331981 
L 420.364574 251.408059 
L 420.507573 255.975279 
L 420.429755 261.429777 
L 420.287501 268.185086 
L 420.255237 274.207847 
L 420.146623 278.081097 
L 420.058603 285.381492 
L 420.148637 290.778365 
L 420.046633 292.760735 
L 420.153859 299.653506 
L 420.243194 306.0881 
L 420.007472 307.485487 
L 420.279926 311.828279 
L 420.122679 314.763006 
L 420.076375 317.520773 
L 419.963846 322.125217 
L 420.058184 323.479007 
L 420.070476 329.302671 
L 419.992791 334.306447 
L 419.923387 336.807359 
L 420.137379 337.745936 
L 419.898387 344.179672 
L 419.882524 351.50603 
L 419.819614 358.879232 
L 419.056878 362.092138 
L 419.836875 366.220697 
L 420.380765 373.527296 
L 419.809372 380.937123 
L 419.731035 388.222227 
L 381.188058 391.843835 
L 381.027483 392.698923 
L 382.834001 399.45312 
L 381.342526 406.298533 
L 379.745622 405.717709 
L 376.764612 404.521569 
L 373.148184 403.621342 
L 369.881377 403.900485 
L 366.905874 403.163284 
L 363.285857 402.414013 
L 359.851576 401.751765 
L 356.464918 401.588162 
L 353.684745 401.417851 
L 352.74092 401.298456 
L 351.666066 401.174267 
L 350.41684 400.975483 
L 349.479365 400.847059 
L 348.311722 400.65345 
L 346.88713 400.359867 
L 345.737972 400.134955 
L 344.598732 399.880615 
L 343.690021 399.599621 
L 342.688905 399.162881 
L 341.742161 398.316331 
L 340.960707 397.645432 
L 340.285902 397.042057 
L 339.609216 396.469914 
L 338.894452 395.820782 
L 337.996222 395.058518 
L 337.266359 394.420467 
L 336.554999 393.800706 
L 335.986474 393.308936 
L 335.305295 392.707419 
L 334.261622 391.802476 
L 333.617966 391.230193 
L 333.096534 390.741903 
L 332.467857 390.173231 
L 331.372559 389.316248 
L 330.883103 389.066601 
L 330.03677 388.686155 
L 329.487049 388.377976 
L 328.956128 388.025639 
L 328.637098 387.777137 
L 328.398075 387.550351 
L 328.250505 387.424214 
L 328.060394 387.291638 
L 326.997369 386.473273 
L 326.011374 386.072817 
L 325.572851 385.966226 
L 325.844086 385.030416 
L 326.487165 383.176756 
L 327.580538 379.946482 
L 327.905105 376.374751 
L 327.931663 373.247245 
L 328.2032 371.610355 
L 327.960047 368.56494 
L 328.034081 365.489956 
L 328.235502 364.251186 
L 328.129236 363.729617 
L 328.104798 362.635026 
L 328.147589 362.567261 
L 328.083511 360.683219 
L 328.037891 358.897736 
L 328.246304 356.895226 
L 327.986538 353.522387 
L 328.051762 349.881358 
L 328.062684 346.531487 
L 328.092796 344.884002 
L 328.060778 341.242264 
L 328.187639 338.459841 
L 328.246697 334.548654 
L 328.260309 330.632507 
L 328.488348 327.092577 
L 328.770388 324.514141 
L 328.487713 322.894733 
L 328.428481 318.917533 
L 328.442156 316.298117 
L 328.348146 315.184151 
L 328.28617 313.77471 
L 328.374429 312.706113 
L 328.314772 311.834457 
L 328.264216 310.314215 
L 328.426176 307.772263 
L 328.551816 305.364722 
L 328.497054 302.645663 
L 328.555194 299.916966 
L 328.606719 298.003988 
L 328.669693 296.999227 
L 328.615115 296.164836 
L 328.606908 293.957302 
L 328.549636 290.648294 
L 328.469691 289.397435 
L 328.444298 286.76495 
L 328.658581 283.287525 
L 328.565401 281.227822 
L 328.61217 278.248824 
L 328.871633 275.950583 
L 328.661405 272.527576 
L 328.687697 267.045563 
L 328.655822 261.938292 
L 328.73603 258.413834 
L 328.596629 258.13374 
L 328.638798 253.984762 
L 328.628637 248.456607 
L 328.591062 242.728725 
L 328.536678 239.072744 
" clip-path="url(#pdbf38a67c1)" style="fill: #e0bd1f; stroke: #0000ff; stroke-width: 0.5"/>
    <path d="M 420.380765 373.527296 
L 419.809372 380.937123 
L 374.330374 385.191843 
L 374.45594 377.873738 
L 420.380765 373.527296 
" clip-path="url(#pdbf38a67c1)" style="fill: #e0bd1f; stroke: #0000ff; stroke-width: 0.5"/>
    <path d="M 419.836875 366.220697 
L 420.380765 373.527296 
L 374.45594 377.873738 
L 374.414424 370.47348 
L 419.836875 366.220697 
" clip-path="url(#pdbf38a67c1)" style="fill: #e0bd1f; stroke: #0000ff; stroke-width: 0.5"/>
    <path d="M 466.214308 314.259466 
L 466.234549 321.575271 
L 420.357988 322.088233 
L 420.542142 314.72198 
L 466.214308 314.259466 
" clip-path="url(#pdbf38a67c1)" style="fill: #e0bd1f; stroke: #0000ff; stroke-width: 0.5"/>
    <path d="M 466.234549 321.575271 
L 466.233003 328.95655 
L 420.38438 329.476911 
L 420.357988 322.088233 
L 466.234549 321.575271 
" clip-path="url(#pdbf38a67c1)" style="fill: #e0bd1f; stroke: #0000ff; stroke-width: 0.5"/>
    <path d="M 456.887282 234.395637 
L 463.005304 238.0291 
L 466.339744 240.798264 
L 469.324856 243.167729 
L 475.444343 248.130993 
L 476.379128 248.936174 
L 483.933164 255.691872 
L 487.35224 262.767476 
L 490.650164 269.603324 
L 490.725181 269.745719 
L 492.287348 272.857827 
L 494.674535 276.422722 
L 499.148748 278.591731 
L 502.224195 279.774948 
L 502.475955 279.86316 
L 508.661977 282.473131 
L 511.992159 283.755348 
L 512.001179 287.764998 
L 511.930414 293.663935 
L 512.021951 294.051445 
L 511.943905 301.456432 
L 511.996918 310.377359 
L 512.07795 319.670449 
L 511.832494 320.669673 
L 512.082404 328.83456 
L 511.985966 335.475592 
L 512.076408 337.802564 
L 512.032583 347.58618 
L 511.860914 350.146766 
L 512.044584 353.924083 
L 512.041852 364.893056 
L 512.129242 365.200688 
L 512.023266 372.248934 
L 512.13627 373.541064 
L 512.073699 379.612786 
L 512.169551 384.463966 
L 512.021795 394.092453 
L 512.07084 397.464993 
L 512.181914 407.284498 
L 512.120855 408.966536 
L 512.133274 416.334768 
L 466.135854 373.028766 
L 420.380765 373.527296 
L 420.376882 366.160983 
L 420.427324 358.823098 
L 420.429128 351.454924 
L 420.455767 344.132197 
L 420.501853 337.730478 
L 420.357129 334.302562 
L 420.434482 329.307236 
L 420.42108 323.480272 
L 420.440757 317.529012 
L 420.542142 314.72198 
L 420.643746 311.833399 
L 420.608075 306.085134 
L 420.582978 300.061509 
L 420.518734 299.649623 
L 420.57595 292.726976 
L 420.513526 290.778708 
L 420.595501 285.328418 
L 420.734267 277.99035 
L 420.620129 274.210212 
L 420.652395 268.18837 
L 420.794663 261.436919 
L 420.872436 255.971952 
L 420.729403 251.396469 
L 420.660017 249.297252 
L 420.710367 248.526196 
L 420.695942 241.406028 
L 426.742033 240.177607 
L 429.819113 239.619368 
L 437.280223 238.097317 
L 438.951281 237.725169 
L 445.450172 236.515019 
L 448.106283 236.078215 
L 456.887282 234.395637 
" clip-path="url(#pdbf38a67c1)" style="fill: #e0bd1f; stroke: #0000ff; stroke-width: 0.5"/>
    <path d="M 466.144126 365.669687 
L 466.135854 373.028766 
L 420.380765 373.527296 
L 420.376882 366.160983 
L 466.144126 365.669687 
" clip-path="url(#pdbf38a67c1)" style="fill: #e0bd1f; stroke: #0000ff; stroke-width: 0.5"/>
    <path d="M 466.169727 358.305026 
L 466.144126 365.669687 
L 420.376882 366.160983 
L 420.427324 358.823098 
L 466.169727 358.305026 
" clip-path="url(#pdbf38a67c1)" style="fill: #e0bd1f; stroke: #0000ff; stroke-width: 0.5"/>
    <path d="M 466.233003 328.95655 
L 466.212362 336.303929 
L 420.413603 336.781504 
L 420.38438 329.476911 
L 466.233003 328.95655 
" clip-path="url(#pdbf38a67c1)" style="fill: #e0bd1f; stroke: #0000ff; stroke-width: 0.5"/>
    <path d="M 466.212362 336.303929 
L 466.207824 339.938483 
L 420.483254 340.329649 
L 420.501853 337.730478 
L 420.413603 336.781504 
L 466.212362 336.303929 
" clip-path="url(#pdbf38a67c1)" style="fill: #e0bd1f; stroke: #0000ff; stroke-width: 0.5"/>
    <path d="M 466.187832 350.976209 
L 466.169727 358.305026 
L 420.427324 358.823098 
L 420.429128 351.454924 
L 466.187832 350.976209 
" clip-path="url(#pdbf38a67c1)" style="fill: #e0bd1f; stroke: #0000ff; stroke-width: 0.5"/>
    <path d="M 466.304255 277.599196 
L 466.289156 284.951516 
L 466.283554 292.301592 
L 420.57595 292.726976 
L 420.513526 290.778708 
L 420.595501 285.328418 
L 420.734267 277.99035 
L 429.79207 277.887143 
L 439.159358 277.76276 
L 448.114733 277.745239 
L 466.304255 277.599196 
" clip-path="url(#pdbf38a67c1)" style="fill: #e0bd1f; stroke: #0000ff; stroke-width: 0.5"/>
    <path d="M 466.275365 299.639005 
L 466.245936 306.818738 
L 466.214308 314.259466 
L 420.542142 314.72198 
L 420.643746 311.833399 
L 420.608075 306.085134 
L 420.582978 300.061509 
L 466.275365 299.639005 
" clip-path="url(#pdbf38a67c1)" style="fill: #e0bd1f; stroke: #0000ff; stroke-width: 0.5"/>
    <path d="M 466.135854 373.028766 
L 512.133274 416.334768 
L 512.683829 416.705277 
L 557.716846 435.210593 
L 558.987798 435.765539 
L 548.841566 442.100956 
L 543.042361 444.468269 
L 519.130405 454.834986 
L 514.071158 458.406157 
L 499.067118 469.205719 
L 495.507833 465.328597 
L 479.308971 444.432709 
L 479.137068 444.200143 
L 468.982423 430.363738 
L 466.420742 425.559109 
L 463.470296 422.000235 
L 465.717733 395.095518 
L 466.135854 373.028766 
" clip-path="url(#pdbf38a67c1)" style="fill: #e0bd1f; stroke: #0000ff; stroke-width: 0.5"/>
    <path d="M 466.144126 365.669687 
L 512.120855 408.966536 
L 512.133274 416.334768 
L 466.135854 373.028766 
L 466.144126 365.669687 
" clip-path="url(#pdbf38a67c1)" style="fill: #e0bd1f; stroke: #0000ff; stroke-width: 0.5"/>
    <path d="M 466.203763 343.646482 
L 512.099221 386.960164 
L 512.021795 394.092453 
L 466.187832 350.976209 
L 466.203763 343.646482 
" clip-path="url(#pdbf38a67c1)" style="fill: #e0bd1f; stroke: #0000ff; stroke-width: 0.5"/>
    <path d="M 466.245936 306.818738 
L 511.860914 350.146766 
L 512.050926 357.318522 
L 466.214308 314.259466 
L 466.245936 306.818738 
" clip-path="url(#pdbf38a67c1)" style="fill: #e0bd1f; stroke: #0000ff; stroke-width: 0.5"/>
    <path d="M 466.214308 314.259466 
L 512.050926 357.318522 
L 512.041852 364.893056 
L 466.234549 321.575271 
L 466.214308 314.259466 
" clip-path="url(#pdbf38a67c1)" style="fill: #e0bd1f; stroke: #0000ff; stroke-width: 0.5"/>
    <path d="M 466.212362 336.303929 
L 512.073699 379.612786 
L 512.099221 386.960164 
L 466.203763 343.646482 
L 466.212362 336.303929 
" clip-path="url(#pdbf38a67c1)" style="fill: #e0bd1f; stroke: #0000ff; stroke-width: 0.5"/>
    <path d="M 466.233003 328.95655 
L 512.023266 372.248934 
L 512.13627 373.541064 
L 512.073699 379.612786 
L 466.212362 336.303929 
L 466.233003 328.95655 
" clip-path="url(#pdbf38a67c1)" style="fill: #e0bd1f; stroke: #0000ff; stroke-width: 0.5"/>
    <path d="M 466.275365 299.639005 
L 512.021137 342.828474 
L 511.860914 350.146766 
L 466.245936 306.818738 
L 466.275365 299.639005 
" clip-path="url(#pdbf38a67c1)" style="fill: #e0bd1f; stroke: #0000ff; stroke-width: 0.5"/>
    <path d="M 466.234549 321.575271 
L 512.041852 364.893056 
L 512.129242 365.200688 
L 512.023266 372.248934 
L 466.233003 328.95655 
L 466.234549 321.575271 
" clip-path="url(#pdbf38a67c1)" style="fill: #e0bd1f; stroke: #0000ff; stroke-width: 0.5"/>
    <path d="M 466.283554 292.301592 
L 511.985966 335.475592 
L 512.021137 342.828474 
L 466.275365 299.639005 
L 466.283554 292.301592 
" clip-path="url(#pdbf38a67c1)" style="fill: #e0bd1f; stroke: #0000ff; stroke-width: 0.5"/>
    <path d="M 492.287348 272.857827 
L 494.674535 276.422722 
L 499.148748 278.591731 
L 499.128998 283.738571 
L 499.977823 284.213847 
L 499.964459 309.377041 
L 503.072871 312.340682 
L 507.772149 316.843355 
L 511.832494 320.669673 
L 512.082404 328.83456 
L 511.985966 335.475592 
L 466.283554 292.301592 
L 466.289156 284.951516 
L 466.304255 277.599196 
L 476.423172 287.151215 
L 486.462927 296.668877 
L 486.455197 293.00098 
L 492.287348 272.857827 
" clip-path="url(#pdbf38a67c1)" style="fill: #e0bd1f; stroke: #0000ff; stroke-width: 0.5"/>
    <path d="M 466.339744 240.798264 
L 469.324856 243.167729 
L 475.444343 248.130993 
L 476.379128 248.936174 
L 476.423172 287.151215 
L 466.304255 277.599196 
L 466.339744 240.798264 
" clip-path="url(#pdbf38a67c1)" style="fill: #e0bd1f; stroke: #0000ff; stroke-width: 0.5"/>
    <path d="M 490.725181 269.745719 
L 492.287348 272.857827 
L 486.455197 293.00098 
L 486.284325 274.833035 
L 490.725181 269.745719 
" clip-path="url(#pdbf38a67c1)" style="fill: #e0bd1f; stroke: #0000ff; stroke-width: 0.5"/>
    <path d="M 499.148748 278.591731 
L 502.224195 279.774948 
L 503.072871 312.340682 
L 499.964459 309.377041 
L 499.977823 284.213847 
L 499.128998 283.738571 
L 499.148748 278.591731 
" clip-path="url(#pdbf38a67c1)" style="fill: #e0bd1f; stroke: #0000ff; stroke-width: 0.5"/>
    <path d="M 502.224195 279.774948 
L 502.475955 279.86316 
L 508.661977 282.473131 
L 508.292985 293.271197 
L 507.772149 316.843355 
L 503.072871 312.340682 
L 502.224195 279.774948 
" clip-path="url(#pdbf38a67c1)" style="fill: #e0bd1f; stroke: #0000ff; stroke-width: 0.5"/>
    <path d="M 508.292985 293.271197 
L 511.930414 293.663935 
L 512.021951 294.051445 
L 511.943905 301.456432 
L 511.996918 310.377359 
L 512.07795 319.670449 
L 511.832494 320.669673 
L 507.772149 316.843355 
L 508.292985 293.271197 
" clip-path="url(#pdbf38a67c1)" style="fill: #e0bd1f; stroke: #0000ff; stroke-width: 0.5"/>
    <path d="M 508.661977 282.473131 
L 511.992159 283.755348 
L 512.001179 287.764998 
L 511.930414 293.663935 
L 508.292985 293.271197 
L 508.661977 282.473131 
" clip-path="url(#pdbf38a67c1)" style="fill: #e0bd1f; stroke: #0000ff; stroke-width: 0.5"/>
    <path d="M 466.187832 350.976209 
L 512.021795 394.092453 
L 512.07084 397.464993 
L 512.181914 407.284498 
L 512.120855 408.966536 
L 466.144126 365.669687 
L 466.169727 358.305026 
L 466.187832 350.976209 
" clip-path="url(#pdbf38a67c1)" style="fill: #e0bd1f; stroke: #0000ff; stroke-width: 0.5"/>
    <path d="M 466.283554 292.301592 
L 466.275365 299.639005 
L 420.582978 300.061509 
L 420.518734 299.649623 
L 420.57595 292.726976 
L 466.283554 292.301592 
" clip-path="url(#pdbf38a67c1)" style="fill: #e0bd1f; stroke: #0000ff; stroke-width: 0.5"/>
    <path d="M 466.203763 343.646482 
L 466.187832 350.976209 
L 420.429128 351.454924 
L 420.455767 344.132197 
L 466.203763 343.646482 
" clip-path="url(#pdbf38a67c1)" style="fill: #e0bd1f; stroke: #0000ff; stroke-width: 0.5"/>
    <path d="M 420.695942 241.406028 
L 420.710367 248.526196 
L 420.182013 248.613022 
L 420.296011 249.331981 
L 420.364574 251.408059 
L 420.507573 255.975279 
L 420.429755 261.429777 
L 420.287501 268.185086 
L 420.255237 274.207847 
L 420.146623 278.081097 
L 411.056496 278.9093 
L 411.021976 243.065936 
L 413.355966 242.72069 
L 418.201551 241.874814 
L 420.695942 241.406028 
" clip-path="url(#pdbf38a67c1)" style="fill: #e0bd1f; stroke: #0000ff; stroke-width: 0.5"/>
    <path d="M 438.951281 237.725169 
L 439.159358 277.76276 
L 429.79207 277.887143 
L 429.819113 239.619368 
L 437.280223 238.097317 
L 438.951281 237.725169 
" clip-path="url(#pdbf38a67c1)" style="fill: #e0bd1f; stroke: #0000ff; stroke-width: 0.5"/>
    <path d="M 456.887282 234.395637 
L 463.005304 238.0291 
L 466.339744 240.798264 
L 466.304255 277.599196 
L 448.114733 277.745239 
L 448.106283 236.078215 
L 456.887282 234.395637 
" clip-path="url(#pdbf38a67c1)" style="fill: #e0bd1f; stroke: #0000ff; stroke-width: 0.5"/>
    <path d="M 448.106283 236.078215 
L 448.114733 277.745239 
L 439.159358 277.76276 
L 438.951281 237.725169 
L 445.450172 236.515019 
L 448.106283 236.078215 
" clip-path="url(#pdbf38a67c1)" style="fill: #e0bd1f; stroke: #0000ff; stroke-width: 0.5"/>
    <path d="M 429.819113 239.619368 
L 429.79207 277.887143 
L 420.734267 277.99035 
L 420.620129 274.210212 
L 420.652395 268.18837 
L 420.794663 261.436919 
L 420.872436 255.971952 
L 420.729403 251.396469 
L 420.660017 249.297252 
L 420.710367 248.526196 
L 420.695942 241.406028 
L 426.742033 240.177607 
L 429.819113 239.619368 
" clip-path="url(#pdbf38a67c1)" style="fill: #e0bd1f; stroke: #0000ff; stroke-width: 0.5"/>
   </g>
   <g id="PatchCollection_2">
    <path d="M 456.887282 234.395637 
L 463.005304 238.0291 
L 466.339744 240.798264 
L 469.324856 243.167729 
L 475.444343 248.130993 
L 476.379128 248.936174 
L 483.933164 255.691872 
L 487.35224 262.767476 
L 490.650164 269.603324 
L 490.725181 269.745719 
L 492.287348 272.857827 
L 494.674535 276.422722 
L 499.148748 278.591731 
L 502.224195 279.774948 
L 502.475955 279.86316 
L 508.661977 282.473131 
L 511.992159 283.755348 
L 512.001179 287.764998 
L 511.930414 293.663935 
L 512.021951 294.051445 
L 511.943905 301.456432 
L 511.996918 310.377359 
L 512.07795 319.670449 
L 511.832494 320.669673 
L 512.082404 328.83456 
L 511.985966 335.475592 
L 512.076408 337.802564 
L 512.032583 347.58618 
L 511.860914 350.146766 
L 512.044584 353.924083 
L 512.041852 364.893056 
L 512.129242 365.200688 
L 512.023266 372.248934 
L 512.13627 373.541064 
L 512.073699 379.612786 
L 512.169551 384.463966 
L 512.021795 394.092453 
L 512.07084 397.464993 
L 512.181914 407.284498 
L 512.120855 408.966536 
L 512.133274 416.334768 
L 466.135854 373.028766 
L 420.380765 373.527296 
L 420.376882 366.160983 
L 420.427324 358.823098 
L 420.429128 351.454924 
L 420.455767 344.132197 
L 420.501853 337.730478 
L 420.357129 334.302562 
L 420.434482 329.307236 
L 420.42108 323.480272 
L 420.440757 317.529012 
L 420.542142 314.72198 
L 420.643746 311.833399 
L 420.608075 306.085134 
L 420.582978 300.061509 
L 420.518734 299.649623 
L 420.57595 292.726976 
L 420.513526 290.778708 
L 420.595501 285.328418 
L 420.734267 277.99035 
L 420.620129 274.210212 
L 420.652395 268.18837 
L 420.794663 261.436919 
L 420.872436 255.971952 
L 420.729403 251.396469 
L 420.660017 249.297252 
L 420.710367 248.526196 
L 420.695942 241.406028 
L 426.742033 240.177607 
L 429.819113 239.619368 
L 437.280223 238.097317 
L 438.951281 237.725169 
L 445.450172 236.515019 
L 448.106283 236.078215 
L 456.887282 234.395637 
" clip-path="url(#pdbf38a67c1)" style="fill: none; stroke: #000000"/>
   </g>
   <g id="matplotlib.axis_1">
    <g id="xtick_1">
     <g id="line2d_1">
      <path d="M 113.689432 768.96 
L 113.689432 103.68 
" clip-path="url(#pdbf38a67c1)" style="fill: none; stroke: #b0b0b0; stroke-width: 0.8; stroke-linecap: square"/>
     </g>
     <g id="line2d_2">
      <defs>
       <path id="md4d7c1274f" d="M 0 0 
L 0 3.5 
" style="stroke: #000000; stroke-width: 0.8"/>
      </defs>
      <g>
       <use xlink:href="#md4d7c1274f" x="113.689432" y="768.96" style="stroke: #000000; stroke-width: 0.8"/>
      </g>
     </g>
     <g id="text_1">
      <!-- −48.75 -->
      <g transform="translate(102.556367 807.501382) rotate(-45) scale(0.1 -0.1)">
       <defs>
        <path id="DejaVuSans-2212" d="M 678 2272 
L 4684 2272 
L 4684 1741 
L 678 1741 
L 678 2272 
z
" transform="scale(0.015625)"/>
        <path id="DejaVuSans-34" d="M 2419 4116 
L 825 1625 
L 2419 1625 
L 2419 4116 
z
M 2253 4666 
L 3047 4666 
L 3047 1625 
L 3713 1625 
L 3713 1100 
L 3047 1100 
L 3047 0 
L 2419 0 
L 2419 1100 
L 313 1100 
L 313 1709 
L 2253 4666 
z
" transform="scale(0.015625)"/>
        <path id="DejaVuSans-38" d="M 2034 2216 
Q 1584 2216 1326 1975 
Q 1069 1734 1069 1313 
Q 1069 891 1326 650 
Q 1584 409 2034 409 
Q 2484 409 2743 651 
Q 3003 894 3003 1313 
Q 3003 1734 2745 1975 
Q 2488 2216 2034 2216 
z
M 1403 2484 
Q 997 2584 770 2862 
Q 544 3141 544 3541 
Q 544 4100 942 4425 
Q 1341 4750 2034 4750 
Q 2731 4750 3128 4425 
Q 3525 4100 3525 3541 
Q 3525 3141 3298 2862 
Q 3072 2584 2669 2484 
Q 3125 2378 3379 2068 
Q 3634 1759 3634 1313 
Q 3634 634 3220 271 
Q 2806 -91 2034 -91 
Q 1263 -91 848 271 
Q 434 634 434 1313 
Q 434 1759 690 2068 
Q 947 2378 1403 2484 
z
M 1172 3481 
Q 1172 3119 1398 2916 
Q 1625 2713 2034 2713 
Q 2441 2713 2670 2916 
Q 2900 3119 2900 3481 
Q 2900 3844 2670 4047 
Q 2441 4250 2034 4250 
Q 1625 4250 1398 4047 
Q 1172 3844 1172 3481 
z
" transform="scale(0.015625)"/>
        <path id="DejaVuSans-2e" d="M 684 794 
L 1344 794 
L 1344 0 
L 684 0 
L 684 794 
z
" transform="scale(0.015625)"/>
        <path id="DejaVuSans-37" d="M 525 4666 
L 3525 4666 
L 3525 4397 
L 1831 0 
L 1172 0 
L 2766 4134 
L 525 4134 
L 525 4666 
z
" transform="scale(0.015625)"/>
        <path id="DejaVuSans-35" d="M 691 4666 
L 3169 4666 
L 3169 4134 
L 1269 4134 
L 1269 2991 
Q 1406 3038 1543 3061 
Q 1681 3084 1819 3084 
Q 2600 3084 3056 2656 
Q 3513 2228 3513 1497 
Q 3513 744 3044 326 
Q 2575 -91 1722 -91 
Q 1428 -91 1123 -41 
Q 819 9 494 109 
L 494 744 
Q 775 591 1075 516 
Q 1375 441 1709 441 
Q 2250 441 2565 725 
Q 2881 1009 2881 1497 
Q 2881 1984 2565 2268 
Q 2250 2553 1709 2553 
Q 1456 2553 1204 2497 
Q 953 2441 691 2322 
L 691 4666 
z
" transform="scale(0.015625)"/>
       </defs>
       <use xlink:href="#DejaVuSans-2212"/>
       <use xlink:href="#DejaVuSans-34" transform="translate(83.789062 0)"/>
       <use xlink:href="#DejaVuSans-38" transform="translate(147.412109 0)"/>
       <use xlink:href="#DejaVuSans-2e" transform="translate(211.035156 0)"/>
       <use xlink:href="#DejaVuSans-37" transform="translate(242.822266 0)"/>
       <use xlink:href="#DejaVuSans-35" transform="translate(306.445312 0)"/>
      </g>
     </g>
    </g>
    <g id="xtick_2">
     <g id="line2d_3">
      <path d="M 214.808955 768.96 
L 214.808955 103.68 
" clip-path="url(#pdbf38a67c1)" style="fill: none; stroke: #b0b0b0; stroke-width: 0.8; stroke-linecap: square"/>
     </g>
     <g id="line2d_4">
      <g>
       <use xlink:href="#md4d7c1274f" x="214.808955" y="768.96" style="stroke: #000000; stroke-width: 0.8"/>
      </g>
     </g>
     <g id="text_2">
      <!-- −48.70 -->
      <g transform="translate(203.675891 807.501382) rotate(-45) scale(0.1 -0.1)">
       <defs>
        <path id="DejaVuSans-30" d="M 2034 4250 
Q 1547 4250 1301 3770 
Q 1056 3291 1056 2328 
Q 1056 1369 1301 889 
Q 1547 409 2034 409 
Q 2525 409 2770 889 
Q 3016 1369 3016 2328 
Q 3016 3291 2770 3770 
Q 2525 4250 2034 4250 
z
M 2034 4750 
Q 2819 4750 3233 4129 
Q 3647 3509 3647 2328 
Q 3647 1150 3233 529 
Q 2819 -91 2034 -91 
Q 1250 -91 836 529 
Q 422 1150 422 2328 
Q 422 3509 836 4129 
Q 1250 4750 2034 4750 
z
" transform="scale(0.015625)"/>
       </defs>
       <use xlink:href="#DejaVuSans-2212"/>
       <use xlink:href="#DejaVuSans-34" transform="translate(83.789062 0)"/>
       <use xlink:href="#DejaVuSans-38" transform="translate(147.412109 0)"/>
       <use xlink:href="#DejaVuSans-2e" transform="translate(211.035156 0)"/>
       <use xlink:href="#DejaVuSans-37" transform="translate(242.822266 0)"/>
       <use xlink:href="#DejaVuSans-30" transform="translate(306.445312 0)"/>
      </g>
     </g>
    </g>
    <g id="xtick_3">
     <g id="line2d_5">
      <path d="M 315.928479 768.96 
L 315.928479 103.68 
" clip-path="url(#pdbf38a67c1)" style="fill: none; stroke: #b0b0b0; stroke-width: 0.8; stroke-linecap: square"/>
     </g>
     <g id="line2d_6">
      <g>
       <use xlink:href="#md4d7c1274f" x="315.928479" y="768.96" style="stroke: #000000; stroke-width: 0.8"/>
      </g>
     </g>
     <g id="text_3">
      <!-- −48.65 -->
      <g transform="translate(304.795414 807.501382) rotate(-45) scale(0.1 -0.1)">
       <defs>
        <path id="DejaVuSans-36" d="M 2113 2584 
Q 1688 2584 1439 2293 
Q 1191 2003 1191 1497 
Q 1191 994 1439 701 
Q 1688 409 2113 409 
Q 2538 409 2786 701 
Q 3034 994 3034 1497 
Q 3034 2003 2786 2293 
Q 2538 2584 2113 2584 
z
M 3366 4563 
L 3366 3988 
Q 3128 4100 2886 4159 
Q 2644 4219 2406 4219 
Q 1781 4219 1451 3797 
Q 1122 3375 1075 2522 
Q 1259 2794 1537 2939 
Q 1816 3084 2150 3084 
Q 2853 3084 3261 2657 
Q 3669 2231 3669 1497 
Q 3669 778 3244 343 
Q 2819 -91 2113 -91 
Q 1303 -91 875 529 
Q 447 1150 447 2328 
Q 447 3434 972 4092 
Q 1497 4750 2381 4750 
Q 2619 4750 2861 4703 
Q 3103 4656 3366 4563 
z
" transform="scale(0.015625)"/>
       </defs>
       <use xlink:href="#DejaVuSans-2212"/>
       <use xlink:href="#DejaVuSans-34" transform="translate(83.789062 0)"/>
       <use xlink:href="#DejaVuSans-38" transform="translate(147.412109 0)"/>
       <use xlink:href="#DejaVuSans-2e" transform="translate(211.035156 0)"/>
       <use xlink:href="#DejaVuSans-36" transform="translate(242.822266 0)"/>
       <use xlink:href="#DejaVuSans-35" transform="translate(306.445312 0)"/>
      </g>
     </g>
    </g>
    <g id="xtick_4">
     <g id="line2d_7">
      <path d="M 417.048002 768.96 
L 417.048002 103.68 
" clip-path="url(#pdbf38a67c1)" style="fill: none; stroke: #b0b0b0; stroke-width: 0.8; stroke-linecap: square"/>
     </g>
     <g id="line2d_8">
      <g>
       <use xlink:href="#md4d7c1274f" x="417.048002" y="768.96" style="stroke: #000000; stroke-width: 0.8"/>
      </g>
     </g>
     <g id="text_4">
      <!-- −48.60 -->
      <g transform="translate(405.914937 807.501382) rotate(-45) scale(0.1 -0.1)">
       <use xlink:href="#DejaVuSans-2212"/>
       <use xlink:href="#DejaVuSans-34" transform="translate(83.789062 0)"/>
       <use xlink:href="#DejaVuSans-38" transform="translate(147.412109 0)"/>
       <use xlink:href="#DejaVuSans-2e" transform="translate(211.035156 0)"/>
       <use xlink:href="#DejaVuSans-36" transform="translate(242.822266 0)"/>
       <use xlink:href="#DejaVuSans-30" transform="translate(306.445312 0)"/>
      </g>
     </g>
    </g>
    <g id="xtick_5">
     <g id="line2d_9">
      <path d="M 518.167525 768.96 
L 518.167525 103.68 
" clip-path="url(#pdbf38a67c1)" style="fill: none; stroke: #b0b0b0; stroke-width: 0.8; stroke-linecap: square"/>
     </g>
     <g id="line2d_10">
      <g>
       <use xlink:href="#md4d7c1274f" x="518.167525" y="768.96" style="stroke: #000000; stroke-width: 0.8"/>
      </g>
     </g>
     <g id="text_5">
      <!-- −48.55 -->
      <g transform="translate(507.03446 807.501382) rotate(-45) scale(0.1 -0.1)">
       <use xlink:href="#DejaVuSans-2212"/>
       <use xlink:href="#DejaVuSans-34" transform="translate(83.789062 0)"/>
       <use xlink:href="#DejaVuSans-38" transform="translate(147.412109 0)"/>
       <use xlink:href="#DejaVuSans-2e" transform="translate(211.035156 0)"/>
       <use xlink:href="#DejaVuSans-35" transform="translate(242.822266 0)"/>
       <use xlink:href="#DejaVuSans-35" transform="translate(306.445312 0)"/>
      </g>
     </g>
    </g>
    <g id="xtick_6">
     <g id="line2d_11">
      <path d="M 619.287048 768.96 
L 619.287048 103.68 
" clip-path="url(#pdbf38a67c1)" style="fill: none; stroke: #b0b0b0; stroke-width: 0.8; stroke-linecap: square"/>
     </g>
     <g id="line2d_12">
      <g>
       <use xlink:href="#md4d7c1274f" x="619.287048" y="768.96" style="stroke: #000000; stroke-width: 0.8"/>
      </g>
     </g>
     <g id="text_6">
      <!-- −48.50 -->
      <g transform="translate(608.153983 807.501382) rotate(-45) scale(0.1 -0.1)">
       <use xlink:href="#DejaVuSans-2212"/>
       <use xlink:href="#DejaVuSans-34" transform="translate(83.789062 0)"/>
       <use xlink:href="#DejaVuSans-38" transform="translate(147.412109 0)"/>
       <use xlink:href="#DejaVuSans-2e" transform="translate(211.035156 0)"/>
       <use xlink:href="#DejaVuSans-35" transform="translate(242.822266 0)"/>
       <use xlink:href="#DejaVuSans-30" transform="translate(306.445312 0)"/>
      </g>
     </g>
    </g>
    <g id="text_7">
     <!-- Longitude (°) -->
     <g transform="translate(336.139844 820.57038) scale(0.1 -0.1)">
      <defs>
       <path id="DejaVuSans-4c" d="M 628 4666 
L 1259 4666 
L 1259 531 
L 3531 531 
L 3531 0 
L 628 0 
L 628 4666 
z
" transform="scale(0.015625)"/>
       <path id="DejaVuSans-6f" d="M 1959 3097 
Q 1497 3097 1228 2736 
Q 959 2375 959 1747 
Q 959 1119 1226 758 
Q 1494 397 1959 397 
Q 2419 397 2687 759 
Q 2956 1122 2956 1747 
Q 2956 2369 2687 2733 
Q 2419 3097 1959 3097 
z
M 1959 3584 
Q 2709 3584 3137 3096 
Q 3566 2609 3566 1747 
Q 3566 888 3137 398 
Q 2709 -91 1959 -91 
Q 1206 -91 779 398 
Q 353 888 353 1747 
Q 353 2609 779 3096 
Q 1206 3584 1959 3584 
z
" transform="scale(0.015625)"/>
       <path id="DejaVuSans-6e" d="M 3513 2113 
L 3513 0 
L 2938 0 
L 2938 2094 
Q 2938 2591 2744 2837 
Q 2550 3084 2163 3084 
Q 1697 3084 1428 2787 
Q 1159 2491 1159 1978 
L 1159 0 
L 581 0 
L 581 3500 
L 1159 3500 
L 1159 2956 
Q 1366 3272 1645 3428 
Q 1925 3584 2291 3584 
Q 2894 3584 3203 3211 
Q 3513 2838 3513 2113 
z
" transform="scale(0.015625)"/>
       <path id="DejaVuSans-67" d="M 2906 1791 
Q 2906 2416 2648 2759 
Q 2391 3103 1925 3103 
Q 1463 3103 1205 2759 
Q 947 2416 947 1791 
Q 947 1169 1205 825 
Q 1463 481 1925 481 
Q 2391 481 2648 825 
Q 2906 1169 2906 1791 
z
M 3481 434 
Q 3481 -459 3084 -895 
Q 2688 -1331 1869 -1331 
Q 1566 -1331 1297 -1286 
Q 1028 -1241 775 -1147 
L 775 -588 
Q 1028 -725 1275 -790 
Q 1522 -856 1778 -856 
Q 2344 -856 2625 -561 
Q 2906 -266 2906 331 
L 2906 616 
Q 2728 306 2450 153 
Q 2172 0 1784 0 
Q 1141 0 747 490 
Q 353 981 353 1791 
Q 353 2603 747 3093 
Q 1141 3584 1784 3584 
Q 2172 3584 2450 3431 
Q 2728 3278 2906 2969 
L 2906 3500 
L 3481 3500 
L 3481 434 
z
" transform="scale(0.015625)"/>
       <path id="DejaVuSans-69" d="M 603 3500 
L 1178 3500 
L 1178 0 
L 603 0 
L 603 3500 
z
M 603 4863 
L 1178 4863 
L 1178 4134 
L 603 4134 
L 603 4863 
z
" transform="scale(0.015625)"/>
       <path id="DejaVuSans-74" d="M 1172 4494 
L 1172 3500 
L 2356 3500 
L 2356 3053 
L 1172 3053 
L 1172 1153 
Q 1172 725 1289 603 
Q 1406 481 1766 481 
L 2356 481 
L 2356 0 
L 1766 0 
Q 1100 0 847 248 
Q 594 497 594 1153 
L 594 3053 
L 172 3053 
L 172 3500 
L 594 3500 
L 594 4494 
L 1172 4494 
z
" transform="scale(0.015625)"/>
       <path id="DejaVuSans-75" d="M 544 1381 
L 544 3500 
L 1119 3500 
L 1119 1403 
Q 1119 906 1312 657 
Q 1506 409 1894 409 
Q 2359 409 2629 706 
Q 2900 1003 2900 1516 
L 2900 3500 
L 3475 3500 
L 3475 0 
L 2900 0 
L 2900 538 
Q 2691 219 2414 64 
Q 2138 -91 1772 -91 
Q 1169 -91 856 284 
Q 544 659 544 1381 
z
M 1991 3584 
L 1991 3584 
z
" transform="scale(0.015625)"/>
       <path id="DejaVuSans-64" d="M 2906 2969 
L 2906 4863 
L 3481 4863 
L 3481 0 
L 2906 0 
L 2906 525 
Q 2725 213 2448 61 
Q 2172 -91 1784 -91 
Q 1150 -91 751 415 
Q 353 922 353 1747 
Q 353 2572 751 3078 
Q 1150 3584 1784 3584 
Q 2172 3584 2448 3432 
Q 2725 3281 2906 2969 
z
M 947 1747 
Q 947 1113 1208 752 
Q 1469 391 1925 391 
Q 2381 391 2643 752 
Q 2906 1113 2906 1747 
Q 2906 2381 2643 2742 
Q 2381 3103 1925 3103 
Q 1469 3103 1208 2742 
Q 947 2381 947 1747 
z
" transform="scale(0.015625)"/>
       <path id="DejaVuSans-65" d="M 3597 1894 
L 3597 1613 
L 953 1613 
Q 991 1019 1311 708 
Q 1631 397 2203 397 
Q 2534 397 2845 478 
Q 3156 559 3463 722 
L 3463 178 
Q 3153 47 2828 -22 
Q 2503 -91 2169 -91 
Q 1331 -91 842 396 
Q 353 884 353 1716 
Q 353 2575 817 3079 
Q 1281 3584 2069 3584 
Q 2775 3584 3186 3129 
Q 3597 2675 3597 1894 
z
M 3022 2063 
Q 3016 2534 2758 2815 
Q 2500 3097 2075 3097 
Q 1594 3097 1305 2825 
Q 1016 2553 972 2059 
L 3022 2063 
z
" transform="scale(0.015625)"/>
       <path id="DejaVuSans-20" transform="scale(0.015625)"/>
       <path id="DejaVuSans-28" d="M 1984 4856 
Q 1566 4138 1362 3434 
Q 1159 2731 1159 2009 
Q 1159 1288 1364 580 
Q 1569 -128 1984 -844 
L 1484 -844 
Q 1016 -109 783 600 
Q 550 1309 550 2009 
Q 550 2706 781 3412 
Q 1013 4119 1484 4856 
L 1984 4856 
z
" transform="scale(0.015625)"/>
       <path id="DejaVuSans-b0" d="M 1600 4347 
Q 1350 4347 1178 4173 
Q 1006 4000 1006 3750 
Q 1006 3503 1178 3333 
Q 1350 3163 1600 3163 
Q 1850 3163 2022 3333 
Q 2194 3503 2194 3750 
Q 2194 3997 2020 4172 
Q 1847 4347 1600 4347 
z
M 1600 4750 
Q 1800 4750 1984 4673 
Q 2169 4597 2303 4453 
Q 2447 4313 2519 4134 
Q 2591 3956 2591 3750 
Q 2591 3338 2302 3052 
Q 2013 2766 1594 2766 
Q 1172 2766 890 3047 
Q 609 3328 609 3750 
Q 609 4169 896 4459 
Q 1184 4750 1600 4750 
z
" transform="scale(0.015625)"/>
       <path id="DejaVuSans-29" d="M 513 4856 
L 1013 4856 
Q 1481 4119 1714 3412 
Q 1947 2706 1947 2009 
Q 1947 1309 1714 600 
Q 1481 -109 1013 -844 
L 513 -844 
Q 928 -128 1133 580 
Q 1338 1288 1338 2009 
Q 1338 2731 1133 3434 
Q 928 4138 513 4856 
z
" transform="scale(0.015625)"/>
      </defs>
      <use xlink:href="#DejaVuSans-4c"/>
      <use xlink:href="#DejaVuSans-6f" transform="translate(53.962891 0)"/>
      <use xlink:href="#DejaVuSans-6e" transform="translate(115.144531 0)"/>
      <use xlink:href="#DejaVuSans-67" transform="translate(178.523438 0)"/>
      <use xlink:href="#DejaVuSans-69" transform="translate(242 0)"/>
      <use xlink:href="#DejaVuSans-74" transform="translate(269.783203 0)"/>
      <use xlink:href="#DejaVuSans-75" transform="translate(308.992188 0)"/>
      <use xlink:href="#DejaVuSans-64" transform="translate(372.371094 0)"/>
      <use xlink:href="#DejaVuSans-65" transform="translate(435.847656 0)"/>
      <use xlink:href="#DejaVuSans-20" transform="translate(497.371094 0)"/>
      <use xlink:href="#DejaVuSans-28" transform="translate(529.158203 0)"/>
      <use xlink:href="#DejaVuSans-b0" transform="translate(568.171875 0)"/>
      <use xlink:href="#DejaVuSans-29" transform="translate(618.171875 0)"/>
     </g>
    </g>
   </g>
   <g id="matplotlib.axis_2">
    <g id="ytick_1">
     <g id="line2d_13">
      <path d="M 111.272482 767.245219 
L 626.727518 767.245219 
" clip-path="url(#pdbf38a67c1)" style="fill: none; stroke: #b0b0b0; stroke-width: 0.8; stroke-linecap: square"/>
     </g>
     <g id="line2d_14">
      <defs>
       <path id="m7534c59893" d="M 0 0 
L -3.5 0 
" style="stroke: #000000; stroke-width: 0.8"/>
      </defs>
      <g>
       <use xlink:href="#m7534c59893" x="111.272482" y="767.245219" style="stroke: #000000; stroke-width: 0.8"/>
      </g>
     </g>
     <g id="text_8">
      <!-- −5.80 -->
      <g transform="translate(73.627169 771.044438) scale(0.1 -0.1)">
       <use xlink:href="#DejaVuSans-2212"/>
       <use xlink:href="#DejaVuSans-35" transform="translate(83.789062 0)"/>
       <use xlink:href="#DejaVuSans-2e" transform="translate(147.412109 0)"/>
       <use xlink:href="#DejaVuSans-38" transform="translate(179.199219 0)"/>
       <use xlink:href="#DejaVuSans-30" transform="translate(242.822266 0)"/>
      </g>
     </g>
    </g>
    <g id="ytick_2">
     <g id="line2d_15">
      <path d="M 111.272482 665.643809 
L 626.727518 665.643809 
" clip-path="url(#pdbf38a67c1)" style="fill: none; stroke: #b0b0b0; stroke-width: 0.8; stroke-linecap: square"/>
     </g>
     <g id="line2d_16">
      <g>
       <use xlink:href="#m7534c59893" x="111.272482" y="665.643809" style="stroke: #000000; stroke-width: 0.8"/>
      </g>
     </g>
     <g id="text_9">
      <!-- −5.75 -->
      <g transform="translate(73.627169 669.443028) scale(0.1 -0.1)">
       <use xlink:href="#DejaVuSans-2212"/>
       <use xlink:href="#DejaVuSans-35" transform="translate(83.789062 0)"/>
       <use xlink:href="#DejaVuSans-2e" transform="translate(147.412109 0)"/>
       <use xlink:href="#DejaVuSans-37" transform="translate(179.199219 0)"/>
       <use xlink:href="#DejaVuSans-35" transform="translate(242.822266 0)"/>
      </g>
     </g>
    </g>
    <g id="ytick_3">
     <g id="line2d_17">
      <path d="M 111.272482 564.042399 
L 626.727518 564.042399 
" clip-path="url(#pdbf38a67c1)" style="fill: none; stroke: #b0b0b0; stroke-width: 0.8; stroke-linecap: square"/>
     </g>
     <g id="line2d_18">
      <g>
       <use xlink:href="#m7534c59893" x="111.272482" y="564.042399" style="stroke: #000000; stroke-width: 0.8"/>
      </g>
     </g>
     <g id="text_10">
      <!-- −5.70 -->
      <g transform="translate(73.627169 567.841618) scale(0.1 -0.1)">
       <use xlink:href="#DejaVuSans-2212"/>
       <use xlink:href="#DejaVuSans-35" transform="translate(83.789062 0)"/>
       <use xlink:href="#DejaVuSans-2e" transform="translate(147.412109 0)"/>
       <use xlink:href="#DejaVuSans-37" transform="translate(179.199219 0)"/>
       <use xlink:href="#DejaVuSans-30" transform="translate(242.822266 0)"/>
      </g>
     </g>
    </g>
    <g id="ytick_4">
     <g id="line2d_19">
      <path d="M 111.272482 462.44099 
L 626.727518 462.44099 
" clip-path="url(#pdbf38a67c1)" style="fill: none; stroke: #b0b0b0; stroke-width: 0.8; stroke-linecap: square"/>
     </g>
     <g id="line2d_20">
      <g>
       <use xlink:href="#m7534c59893" x="111.272482" y="462.44099" style="stroke: #000000; stroke-width: 0.8"/>
      </g>
     </g>
     <g id="text_11">
      <!-- −5.65 -->
      <g transform="translate(73.627169 466.240208) scale(0.1 -0.1)">
       <use xlink:href="#DejaVuSans-2212"/>
       <use xlink:href="#DejaVuSans-35" transform="translate(83.789062 0)"/>
       <use xlink:href="#DejaVuSans-2e" transform="translate(147.412109 0)"/>
       <use xlink:href="#DejaVuSans-36" transform="translate(179.199219 0)"/>
       <use xlink:href="#DejaVuSans-35" transform="translate(242.822266 0)"/>
      </g>
     </g>
    </g>
    <g id="ytick_5">
     <g id="line2d_21">
      <path d="M 111.272482 360.83958 
L 626.727518 360.83958 
" clip-path="url(#pdbf38a67c1)" style="fill: none; stroke: #b0b0b0; stroke-width: 0.8; stroke-linecap: square"/>
     </g>
     <g id="line2d_22">
      <g>
       <use xlink:href="#m7534c59893" x="111.272482" y="360.83958" style="stroke: #000000; stroke-width: 0.8"/>
      </g>
     </g>
     <g id="text_12">
      <!-- −5.60 -->
      <g transform="translate(73.627169 364.638798) scale(0.1 -0.1)">
       <use xlink:href="#DejaVuSans-2212"/>
       <use xlink:href="#DejaVuSans-35" transform="translate(83.789062 0)"/>
       <use xlink:href="#DejaVuSans-2e" transform="translate(147.412109 0)"/>
       <use xlink:href="#DejaVuSans-36" transform="translate(179.199219 0)"/>
       <use xlink:href="#DejaVuSans-30" transform="translate(242.822266 0)"/>
      </g>
     </g>
    </g>
    <g id="ytick_6">
     <g id="line2d_23">
      <path d="M 111.272482 259.23817 
L 626.727518 259.23817 
" clip-path="url(#pdbf38a67c1)" style="fill: none; stroke: #b0b0b0; stroke-width: 0.8; stroke-linecap: square"/>
     </g>
     <g id="line2d_24">
      <g>
       <use xlink:href="#m7534c59893" x="111.272482" y="259.23817" style="stroke: #000000; stroke-width: 0.8"/>
      </g>
     </g>
     <g id="text_13">
      <!-- −5.55 -->
      <g transform="translate(73.627169 263.037389) scale(0.1 -0.1)">
       <use xlink:href="#DejaVuSans-2212"/>
       <use xlink:href="#DejaVuSans-35" transform="translate(83.789062 0)"/>
       <use xlink:href="#DejaVuSans-2e" transform="translate(147.412109 0)"/>
       <use xlink:href="#DejaVuSans-35" transform="translate(179.199219 0)"/>
       <use xlink:href="#DejaVuSans-35" transform="translate(242.822266 0)"/>
      </g>
     </g>
    </g>
    <g id="ytick_7">
     <g id="line2d_25">
      <path d="M 111.272482 157.63676 
L 626.727518 157.63676 
" clip-path="url(#pdbf38a67c1)" style="fill: none; stroke: #b0b0b0; stroke-width: 0.8; stroke-linecap: square"/>
     </g>
     <g id="line2d_26">
      <g>
       <use xlink:href="#m7534c59893" x="111.272482" y="157.63676" style="stroke: #000000; stroke-width: 0.8"/>
      </g>
     </g>
     <g id="text_14">
      <!-- −5.50 -->
      <g transform="translate(73.627169 161.435979) scale(0.1 -0.1)">
       <use xlink:href="#DejaVuSans-2212"/>
       <use xlink:href="#DejaVuSans-35" transform="translate(83.789062 0)"/>
       <use xlink:href="#DejaVuSans-2e" transform="translate(147.412109 0)"/>
       <use xlink:href="#DejaVuSans-35" transform="translate(179.199219 0)"/>
       <use xlink:href="#DejaVuSans-30" transform="translate(242.822266 0)"/>
      </g>
     </g>
    </g>
    <g id="text_15">
     <!-- Latitude (°) -->
     <g transform="translate(67.547482 464.889531) rotate(-90) scale(0.1 -0.1)">
      <defs>
       <path id="DejaVuSans-61" d="M 2194 1759 
Q 1497 1759 1228 1600 
Q 959 1441 959 1056 
Q 959 750 1161 570 
Q 1363 391 1709 391 
Q 2188 391 2477 730 
Q 2766 1069 2766 1631 
L 2766 1759 
L 2194 1759 
z
M 3341 1997 
L 3341 0 
L 2766 0 
L 2766 531 
Q 2569 213 2275 61 
Q 1981 -91 1556 -91 
Q 1019 -91 701 211 
Q 384 513 384 1019 
Q 384 1609 779 1909 
Q 1175 2209 1959 2209 
L 2766 2209 
L 2766 2266 
Q 2766 2663 2505 2880 
Q 2244 3097 1772 3097 
Q 1472 3097 1187 3025 
Q 903 2953 641 2809 
L 641 3341 
Q 956 3463 1253 3523 
Q 1550 3584 1831 3584 
Q 2591 3584 2966 3190 
Q 3341 2797 3341 1997 
z
" transform="scale(0.015625)"/>
      </defs>
      <use xlink:href="#DejaVuSans-4c"/>
      <use xlink:href="#DejaVuSans-61" transform="translate(55.712891 0)"/>
      <use xlink:href="#DejaVuSans-74" transform="translate(116.992188 0)"/>
      <use xlink:href="#DejaVuSans-69" transform="translate(156.201172 0)"/>
      <use xlink:href="#DejaVuSans-74" transform="translate(183.984375 0)"/>
      <use xlink:href="#DejaVuSans-75" transform="translate(223.193359 0)"/>
      <use xlink:href="#DejaVuSans-64" transform="translate(286.572266 0)"/>
      <use xlink:href="#DejaVuSans-65" transform="translate(350.048828 0)"/>
      <use xlink:href="#DejaVuSans-20" transform="translate(411.572266 0)"/>
      <use xlink:href="#DejaVuSans-28" transform="translate(443.359375 0)"/>
      <use xlink:href="#DejaVuSans-b0" transform="translate(482.373047 0)"/>
      <use xlink:href="#DejaVuSans-29" transform="translate(532.373047 0)"/>
     </g>
    </g>
   </g>
   <g id="patch_3">
    <path d="M 111.272482 768.96 
L 111.272482 103.68 
" style="fill: none; stroke: #000000; stroke-width: 0.8; stroke-linejoin: miter; stroke-linecap: square"/>
   </g>
   <g id="patch_4">
    <path d="M 626.727518 768.96 
L 626.727518 103.68 
" style="fill: none; stroke: #000000; stroke-width: 0.8; stroke-linejoin: miter; stroke-linecap: square"/>
   </g>
   <g id="patch_5">
    <path d="M 111.272482 768.96 
L 626.727518 768.96 
" style="fill: none; stroke: #000000; stroke-width: 0.8; stroke-linejoin: miter; stroke-linecap: square"/>
   </g>
   <g id="patch_6">
    <path d="M 111.272482 103.68 
L 626.727518 103.68 
" style="fill: none; stroke: #000000; stroke-width: 0.8; stroke-linejoin: miter; stroke-linecap: square"/>
   </g>
   <g id="legend_1">
    <g id="patch_7">
     <path d="M 279.8375 941.307875 
L 458.1625 941.307875 
Q 460.1625 941.307875 460.1625 939.307875 
L 460.1625 909.016 
Q 460.1625 907.016 458.1625 907.016 
L 279.8375 907.016 
Q 277.8375 907.016 277.8375 909.016 
L 277.8375 939.307875 
Q 277.8375 941.307875 279.8375 941.307875 
z
" style="fill: #ffffff; opacity: 0.8; stroke: #cccccc; stroke-linejoin: miter"/>
    </g>
    <g id="text_16">
     <!-- Legenda -->
     <g transform="translate(343.280625 920.134125) scale(0.12 -0.12)">
      <use xlink:href="#DejaVuSans-4c"/>
      <use xlink:href="#DejaVuSans-65" transform="translate(53.962891 0)"/>
      <use xlink:href="#DejaVuSans-67" transform="translate(115.486328 0)"/>
      <use xlink:href="#DejaVuSans-65" transform="translate(178.962891 0)"/>
      <use xlink:href="#DejaVuSans-6e" transform="translate(240.486328 0)"/>
      <use xlink:href="#DejaVuSans-64" transform="translate(303.865234 0)"/>
      <use xlink:href="#DejaVuSans-61" transform="translate(367.341797 0)"/>
     </g>
    </g>
    <g id="patch_8">
     <path style="fill: none; stroke: #000000; stroke-linejoin: miter"/>
    </g>
    <g id="text_17">
     <!-- Gleba Federal -->
     <g transform="translate(309.8375 935.228187) scale(0.1 -0.1)">
      <defs>
       <path id="DejaVuSans-47" d="M 3809 666 
L 3809 1919 
L 2778 1919 
L 2778 2438 
L 4434 2438 
L 4434 434 
Q 4069 175 3628 42 
Q 3188 -91 2688 -91 
Q 1594 -91 976 548 
Q 359 1188 359 2328 
Q 359 3472 976 4111 
Q 1594 4750 2688 4750 
Q 3144 4750 3555 4637 
Q 3966 4525 4313 4306 
L 4313 3634 
Q 3963 3931 3569 4081 
Q 3175 4231 2741 4231 
Q 1884 4231 1454 3753 
Q 1025 3275 1025 2328 
Q 1025 1384 1454 906 
Q 1884 428 2741 428 
Q 3075 428 3337 486 
Q 3600 544 3809 666 
z
" transform="scale(0.015625)"/>
       <path id="DejaVuSans-6c" d="M 603 4863 
L 1178 4863 
L 1178 0 
L 603 0 
L 603 4863 
z
" transform="scale(0.015625)"/>
       <path id="DejaVuSans-62" d="M 3116 1747 
Q 3116 2381 2855 2742 
Q 2594 3103 2138 3103 
Q 1681 3103 1420 2742 
Q 1159 2381 1159 1747 
Q 1159 1113 1420 752 
Q 1681 391 2138 391 
Q 2594 391 2855 752 
Q 3116 1113 3116 1747 
z
M 1159 2969 
Q 1341 3281 1617 3432 
Q 1894 3584 2278 3584 
Q 2916 3584 3314 3078 
Q 3713 2572 3713 1747 
Q 3713 922 3314 415 
Q 2916 -91 2278 -91 
Q 1894 -91 1617 61 
Q 1341 213 1159 525 
L 1159 0 
L 581 0 
L 581 4863 
L 1159 4863 
L 1159 2969 
z
" transform="scale(0.015625)"/>
       <path id="DejaVuSans-46" d="M 628 4666 
L 3309 4666 
L 3309 4134 
L 1259 4134 
L 1259 2759 
L 3109 2759 
L 3109 2228 
L 1259 2228 
L 1259 0 
L 628 0 
L 628 4666 
z
" transform="scale(0.015625)"/>
       <path id="DejaVuSans-72" d="M 2631 2963 
Q 2534 3019 2420 3045 
Q 2306 3072 2169 3072 
Q 1681 3072 1420 2755 
Q 1159 2438 1159 1844 
L 1159 0 
L 581 0 
L 581 3500 
L 1159 3500 
L 1159 2956 
Q 1341 3275 1631 3429 
Q 1922 3584 2338 3584 
Q 2397 3584 2469 3576 
Q 2541 3569 2628 3553 
L 2631 2963 
z
" transform="scale(0.015625)"/>
      </defs>
      <use xlink:href="#DejaVuSans-47"/>
      <use xlink:href="#DejaVuSans-6c" transform="translate(77.490234 0)"/>
      <use xlink:href="#DejaVuSans-65" transform="translate(105.273438 0)"/>
      <use xlink:href="#DejaVuSans-62" transform="translate(166.796875 0)"/>
      <use xlink:href="#DejaVuSans-61" transform="translate(230.273438 0)"/>
      <use xlink:href="#DejaVuSans-20" transform="translate(291.552734 0)"/>
      <use xlink:href="#DejaVuSans-46" transform="translate(323.339844 0)"/>
      <use xlink:href="#DejaVuSans-65" transform="translate(375.359375 0)"/>
      <use xlink:href="#DejaVuSans-64" transform="translate(436.882812 0)"/>
      <use xlink:href="#DejaVuSans-65" transform="translate(500.359375 0)"/>
      <use xlink:href="#DejaVuSans-72" transform="translate(561.882812 0)"/>
      <use xlink:href="#DejaVuSans-61" transform="translate(602.996094 0)"/>
      <use xlink:href="#DejaVuSans-6c" transform="translate(664.275391 0)"/>
     </g>
    </g>
    <g id="patch_9">
     <path d="M 399.045312 935.228187 
L 419.045312 935.228187 
L 419.045312 928.228187 
L 399.045312 928.228187 
z
" style="fill: #e0bd1f; opacity: 0.6"/>
    </g>
    <g id="text_18">
     <!-- SIGEF -->
     <g transform="translate(427.045312 935.228187) scale(0.1 -0.1)">
      <defs>
       <path id="DejaVuSans-53" d="M 3425 4513 
L 3425 3897 
Q 3066 4069 2747 4153 
Q 2428 4238 2131 4238 
Q 1616 4238 1336 4038 
Q 1056 3838 1056 3469 
Q 1056 3159 1242 3001 
Q 1428 2844 1947 2747 
L 2328 2669 
Q 3034 2534 3370 2195 
Q 3706 1856 3706 1288 
Q 3706 609 3251 259 
Q 2797 -91 1919 -91 
Q 1588 -91 1214 -16 
Q 841 59 441 206 
L 441 856 
Q 825 641 1194 531 
Q 1563 422 1919 422 
Q 2459 422 2753 634 
Q 3047 847 3047 1241 
Q 3047 1584 2836 1778 
Q 2625 1972 2144 2069 
L 1759 2144 
Q 1053 2284 737 2584 
Q 422 2884 422 3419 
Q 422 4038 858 4394 
Q 1294 4750 2059 4750 
Q 2388 4750 2728 4690 
Q 3069 4631 3425 4513 
z
" transform="scale(0.015625)"/>
       <path id="DejaVuSans-49" d="M 628 4666 
L 1259 4666 
L 1259 0 
L 628 0 
L 628 4666 
z
" transform="scale(0.015625)"/>
       <path id="DejaVuSans-45" d="M 628 4666 
L 3578 4666 
L 3578 4134 
L 1259 4134 
L 1259 2753 
L 3481 2753 
L 3481 2222 
L 1259 2222 
L 1259 531 
L 3634 531 
L 3634 0 
L 628 0 
L 628 4666 
z
" transform="scale(0.015625)"/>
      </defs>
      <use xlink:href="#DejaVuSans-53"/>
      <use xlink:href="#DejaVuSans-49" transform="translate(63.476562 0)"/>
      <use xlink:href="#DejaVuSans-47" transform="translate(92.96875 0)"/>
      <use xlink:href="#DejaVuSans-45" transform="translate(170.458984 0)"/>
      <use xlink:href="#DejaVuSans-46" transform="translate(233.642578 0)"/>
     </g>
    </g>
   </g>
  </g>
 </g>
 <defs>
  <clipPath id="pdbf38a67c1">
   <rect x="111.272482" y="103.68" width="515.455036" height="665.28"/>
  </clipPath>
 </defs>
</svg>
