<?xml version="1.0" encoding="utf-8" standalone="no"?>
<!DOCTYPE svg PUBLIC "-//W3C//DTD SVG 1.1//EN"
  "http://www.w3.org/Graphics/SVG/1.1/DTD/svg11.dtd">
<svg xmlns:xlink="http://www.w3.org/1999/xlink" width="720pt" height="864pt" viewBox="0 0 720 864" xmlns="http://www.w3.org/2000/svg" version="1.1">
 <metadata>
  <rdf:RDF xmlns:dc="http://purl.org/dc/elements/1.1/" xmlns:cc="http://creativecommons.org/ns#" xmlns:rdf="http://www.w3.org/1999/02/22-rdf-syntax-ns#">
   <cc:Work>
    <dc:type rdf:resource="http://purl.org/dc/dcmitype/StillImage"/>
    <dc:date>2025-06-16T16:52:06.174873</dc:date>
    <dc:format>image/svg+xml</dc:format>
    <dc:creator>
     <cc:Agent>
      <dc:title>Matplotlib v3.10.1, https://matplotlib.org/</dc:title>
     </cc:Agent>
    </dc:creator>
   </cc:Work>
  </rdf:RDF>
 </metadata>
 <defs>
  <style type="text/css">*{stroke-linejoin: round; stroke-linecap: butt}</style>
 </defs>
 <g id="figure_1">
  <g id="patch_1">
   <path d="M 0 864 
L 720 864 
L 720 0 
L 0 0 
z
" style="fill: #ffffff"/>
  </g>
  <g id="axes_1">
   <g id="patch_2">
    <path d="M 90 648.222263 
L 648 648.222263 
L 648 224.417737 
L 90 224.417737 
z
" style="fill: #ffffff"/>
   </g>
   <g id="PatchCollection_1">
    <path d="M 253.300715 403.010041 
L 388.453357 386.199046 
L 455.156354 377.870064 
L 621.723549 356.980806 
L 622.636364 388.030263 
L 622.439219 387.90261 
L 622.145795 387.974056 
L 621.76763 387.820661 
L 621.040762 387.907816 
L 620.341879 388.008908 
L 620.06295 388.221057 
L 619.741354 388.236323 
L 619.139125 387.999303 
L 618.510016 388.057945 
L 617.79766 388.299841 
L 617.462595 388.455913 
L 617.254005 388.780392 
L 616.835024 388.936748 
L 616.598058 389.14874 
L 616.206575 389.17833 
L 615.534588 388.983796 
L 615.044283 388.760394 
L 614.904904 388.887599 
L 614.541177 388.860774 
L 614.358879 388.720711 
L 614.023371 388.764161 
L 613.841995 388.877424 
L 613.532735 388.442259 
L 613.1265 388.26078 
L 612.67914 388.304666 
L 612.190472 388.531652 
L 611.674145 388.843191 
L 611.256174 389.281034 
L 610.796307 389.733102 
L 610.643835 390.113685 
L 610.239484 390.452955 
L 609.750781 390.665869 
L 609.401539 390.779746 
L 609.193135 391.160535 
L 609.082376 391.470585 
L 608.761427 391.668811 
L 608.369726 391.64208 
L 608.146116 391.685139 
L 608.118967 391.91043 
L 607.839351 391.939597 
L 607.587215 391.827926 
L 607.070514 392.040939 
L 606.848072 392.407709 
L 606.779917 392.900556 
L 606.641393 393.267019 
L 606.796241 393.547955 
L 606.798279 394.110926 
L 606.63118 394.308588 
L 606.211711 394.338268 
L 606.142589 394.563714 
L 605.65369 394.734412 
L 605.458751 394.97439 
L 605.207221 395.031622 
L 604.801477 394.990867 
L 604.606842 395.315298 
L 604.189402 395.907976 
L 603.603585 396.346435 
L 603.310942 396.643081 
L 603.382888 397.205803 
L 603.062126 397.460339 
L 602.545047 397.574826 
L 602.084838 397.942443 
L 601.680811 398.380236 
L 601.207833 399.085718 
L 600.665546 399.974408 
L 600.193426 400.919155 
L 599.930922 401.820923 
L 599.472019 402.554499 
L 599.040826 403.217591 
L 598.622853 403.669511 
L 598.092478 403.9811 
L 597.408589 404.391775 
L 596.877957 404.633006 
L 596.500709 404.74698 
L 596.054658 405.170858 
L 595.637332 405.805758 
L 595.359485 406.327552 
L 594.940508 406.512036 
L 594.508181 406.865506 
L 594.201781 407.232563 
L 593.572515 407.277068 
L 593.097272 407.363253 
L 592.62286 407.688705 
L 591.939422 408.226045 
L 591.297578 408.664732 
L 590.642275 409.258256 
L 590.09738 409.429147 
L 589.568129 410.064455 
L 589.207214 410.839899 
L 588.986542 411.713363 
L 588.610103 412.052558 
L 588.008882 412.125097 
L 587.700045 411.816555 
L 587.420536 411.887952 
L 587.058933 412.466367 
L 586.667723 412.594456 
L 586.065442 412.37143 
L 585.590727 412.612422 
L 585.451612 412.824056 
L 585.509206 413.288329 
L 585.203281 413.796157 
L 584.687888 414.403273 
L 584.116605 415.024663 
L 583.614288 415.378356 
L 583.645218 416.208706 
L 583.913817 416.995953 
L 583.888714 417.79836 
L 583.541506 418.503402 
L 582.900012 419.054664 
L 582.523574 419.407906 
L 582.062271 419.494032 
L 581.588162 419.918013 
L 581.058411 420.426654 
L 580.682846 421.019172 
L 580.684151 421.385148 
L 580.307856 421.780632 
L 580.085598 422.217777 
L 579.514084 422.782859 
L 579.166206 423.304917 
L 578.648873 423.37717 
L 578.186654 423.209917 
L 577.515028 423.170119 
L 576.885834 423.256844 
L 576.537072 423.525524 
L 575.727611 424.063313 
L 575.056754 424.234644 
L 574.147813 424.336438 
L 573.30713 423.959391 
L 572.704354 423.609659 
L 572.088637 423.555544 
L 571.459331 423.614109 
L 570.690836 423.870209 
L 570.061774 423.999132 
L 569.543136 423.705404 
L 568.954323 423.341508 
L 568.155501 422.936137 
L 567.663506 422.262241 
L 567.282957 421.447167 
L 567.098975 420.842538 
L 566.774918 420.182112 
L 566.268705 419.437867 
L 566.168669 418.832937 
L 565.594156 418.553459 
L 564.921889 418.330588 
L 564.067591 418.052089 
L 563.661762 418.011272 
L 563.074634 418.125946 
L 562.516035 418.409444 
L 561.65092 419.045917 
L 560.814404 419.865289 
L 560.466829 420.485873 
L 560.329359 421.190158 
L 559.952249 421.360408 
L 559.562493 421.924823 
L 559.55036 422.459795 
L 559.327216 422.657625 
L 559.31457 423.051816 
L 559.161235 423.207209 
L 558.852881 423.039363 
L 558.335367 423.069323 
L 557.620731 422.733995 
L 556.934143 422.412638 
L 555.983589 422.627107 
L 555.453444 423.051255 
L 554.881555 423.545939 
L 554.617075 423.926914 
L 554.228655 424.885476 
L 554.034008 425.238088 
L 553.237695 425.564626 
L 552.623011 425.820137 
L 552.2604 426.145161 
L 551.742482 426.062498 
L 551.253261 426.190911 
L 551.059117 426.684254 
L 550.572793 427.657234 
L 550.182466 428.06682 
L 549.553395 428.209791 
L 548.911348 428.648398 
L 548.171316 429.07327 
L 547.33325 429.470334 
L 546.788308 429.669301 
L 546.172874 429.713652 
L 545.796567 430.137261 
L 545.478397 431.194131 
L 545.32692 431.89851 
L 544.811481 432.547829 
L 544.253619 433.070608 
L 543.526919 433.312422 
L 542.953409 433.34255 
L 542.52042 433.5552 
L 542.172025 433.96464 
L 541.851678 434.388056 
L 541.41878 434.628853 
L 540.790629 435.05333 
L 540.160798 434.985132 
L 539.739443 434.507948 
L 539.067268 434.327275 
L 538.228767 434.611681 
L 537.739885 434.852663 
L 536.942244 434.813177 
L 536.061104 434.900663 
L 535.516218 435.12776 
L 534.886761 435.172133 
L 533.77007 435.950216 
L 532.94667 436.572432 
L 532.082486 437.546712 
L 532.02959 438.461905 
L 532.268548 439.553464 
L 532.170042 440.327027 
L 532.212353 440.876261 
L 532.09417 441.812657 
L 531.651999 442.628074 
L 531.553495 443.401612 
L 531.23209 444.053826 
L 530.97119 444.644803 
L 531.035359 445.682313 
L 531.300278 446.27149 
L 531.32216 446.759764 
L 531.1027 447.655805 
L 531.064336 448.266373 
L 530.398725 448.797684 
L 529.693065 449.451218 
L 529.472318 449.960678 
L 528.784609 449.94268 
L 528.340356 450.147698 
L 527.937634 450.678107 
L 527.616722 451.472765 
L 527.031776 451.942766 
L 526.527513 452.35146 
L 526.367995 453.02348 
L 526.269827 453.898762 
L 526.393518 454.590166 
L 526.578082 455.342418 
L 527.046575 456.317495 
L 527.596176 457.353346 
L 527.942636 458.125389 
L 527.843654 458.756497 
L 528.453616 459.690397 
L 528.921165 460.380608 
L 529.490331 461.212906 
L 529.613563 461.761861 
L 530.222016 462.248107 
L 530.609146 463.081 
L 531.158587 464.055792 
L 532.050647 464.66313 
L 533.32636 465.085981 
L 534.66274 465.50861 
L 535.635146 465.952878 
L 536.628111 466.498775 
L 536.973927 467.067286 
L 537.40156 467.90003 
L 537.769591 469.038181 
L 537.772348 469.831711 
L 537.814862 470.421635 
L 538.282477 471.111794 
L 539.073999 471.882189 
L 539.9663 472.550489 
L 540.61553 473.117909 
L 540.820237 473.808986 
L 540.842437 474.378624 
L 540.986097 474.968183 
L 541.290584 475.272326 
L 541.394928 476.187572 
L 541.296083 476.839019 
L 540.792686 477.491905 
L 540.835435 478.142877 
L 541.060791 478.95596 
L 541.346676 479.728123 
L 542.03619 480.234353 
L 542.746226 480.82186 
L 543.396002 481.531686 
L 543.983745 481.855156 
L 544.873906 481.892644 
L 545.621793 481.747528 
L 546.228614 481.74535 
L 546.573342 481.988276 
L 547.183608 482.962738 
L 547.449901 483.897733 
L 547.291069 484.732501 
L 546.908913 485.344289 
L 546.423738 485.427442 
L 546.202106 485.672379 
L 546.163525 486.20155 
L 545.984458 487.03642 
L 545.926831 487.891178 
L 545.726563 488.461609 
L 545.162214 489.033353 
L 544.435257 489.381869 
L 543.82935 489.648567 
L 543.589939 490.58539 
L 543.552804 491.521485 
L 543.209721 491.746535 
L 543.191831 492.397693 
L 542.768103 492.70444 
L 542.264941 493.4184 
L 542.207572 494.354545 
L 542.858676 495.410245 
L 543.771072 495.997014 
L 544.902775 496.470605 
L 547.492348 497.454684 
L 549.470526 498.206151 
L 550.676925 499.086836 
L 551.307966 499.77092 
L 551.291762 500.258674 
L 551.0414 500.548614 
L 551.150979 501.053956 
L 551.1003 501.939233 
L 550.739276 502.279804 
L 426.937081 517.357637 
L 455.793843 628.940596 
L 333.20728 628.95842 
L 318.08124 628.954658 
L 304.240717 628.950075 
L 284.932283 628.941824 
L 177.139899 628.873845 
L 186.456939 627.895683 
L 210.503597 623.474565 
L 198.125053 604.217411 
L 197.53606 602.911935 
L 176.853418 586.156225 
L 163.831117 581.657017 
L 160.986916 564.772622 
L 156.134104 556.819466 
L 144.04115 545.626441 
L 134.912664 533.278772 
L 122.556294 523.61143 
L 115.363636 504.011779 
L 120.003401 493.273397 
L 126.191936 485.096641 
L 129.761512 473.363167 
L 134.605946 470.254315 
L 141.182881 465.632408 
L 154.289435 458.548306 
L 163.971494 450.231231 
L 197.349816 428.056796 
L 141.821702 416.714166 
L 201.582832 409.367725 
L 201.328702 410.459516 
L 201.317265 410.510945 
L 201.292409 410.502507 
L 200.650991 412.881633 
L 200.139804 414.483715 
L 199.75717 415.730945 
L 199.381562 417.011879 
L 198.967308 418.270551 
L 198.594336 419.5135 
L 198.387495 420.190868 
L 198.595063 420.160673 
L 198.717938 420.197764 
L 198.750297 420.489204 
L 198.757851 420.680067 
L 198.995367 420.791563 
L 198.947666 420.919933 
L 199.381151 421.06452 
L 199.392024 421.233074 
L 199.721484 421.596224 
L 199.857288 421.78574 
L 199.818629 421.922733 
L 199.696019 422.073848 
L 199.578494 422.44669 
L 199.861859 422.625273 
L 200.015534 422.982598 
L 200.000027 423.256975 
L 199.968526 423.350032 
L 199.884717 423.463387 
L 199.911271 423.550926 
L 200.172677 423.619816 
L 200.322877 423.645629 
L 200.532715 423.679244 
L 200.742683 423.651764 
L 200.901526 423.681567 
L 201.030331 423.899468 
L 201.067653 424.199851 
L 201.096499 424.243358 
L 201.095825 424.320866 
L 201.292644 424.438788 
L 201.442862 424.490148 
L 201.671479 424.643143 
L 201.71402 424.799758 
L 201.566617 424.934243 
L 201.667112 424.934828 
L 201.67014 425.123473 
L 201.863856 425.129996 
L 201.838037 425.244272 
L 202.04235 425.331843 
L 202.085611 425.285751 
L 202.197968 425.148735 
L 202.34641 425.119868 
L 202.656243 425.134146 
L 202.682509 425.35704 
L 202.750334 425.314334 
L 202.899291 425.449195 
L 203.068666 425.506252 
L 203.144107 425.474789 
L 203.359068 425.612859 
L 203.465298 425.498652 
L 203.575097 425.402867 
L 203.689328 425.478788 
L 203.810079 425.579826 
L 203.898068 425.825751 
L 203.879593 425.989748 
L 203.900482 426.155326 
L 204.06361 426.361438 
L 204.236059 426.52594 
L 204.307527 426.710224 
L 204.580894 426.727651 
L 204.728786 426.862119 
L 204.707037 427.042691 
L 204.717796 427.186849 
L 204.740575 427.347083 
L 204.68343 427.382442 
L 204.735691 427.456506 
L 204.660317 427.646883 
L 204.578569 427.882634 
L 204.630396 428.06703 
L 204.583899 428.302746 
L 204.450514 428.600493 
L 204.478893 428.900129 
L 204.387699 429.089592 
L 204.201131 429.21708 
L 204.298894 429.306168 
L 204.068929 429.507443 
L 203.986633 429.833214 
L 203.860322 429.859008 
L 203.829514 429.976094 
L 203.849141 430.028254 
L 203.879211 430.282263 
L 203.896436 430.359242 
L 203.874603 430.566436 
L 203.793629 430.694027 
L 203.913468 430.821634 
L 203.957002 431.083656 
L 203.946226 431.246069 
L 203.835433 431.460852 
L 203.857451 431.616821 
L 203.842851 431.854784 
L 203.992409 431.941924 
L 204.305988 432.055998 
L 204.311835 432.368056 
L 204.369832 432.73376 
L 204.338937 432.9205 
L 204.450741 433.094739 
L 204.490225 433.390613 
L 204.467572 433.544723 
L 204.590791 433.729648 
L 204.679423 433.697846 
L 204.745506 433.834891 
L 204.799605 433.946775 
L 204.867928 434.235217 
L 204.880932 434.367434 
L 204.865801 434.523494 
L 204.916079 434.696898 
L 204.947526 434.738462 
L 204.841785 434.791235 
L 204.854287 434.844429 
L 205.022285 434.837327 
L 205.113923 434.978175 
L 205.246145 435.058616 
L 205.130997 435.252336 
L 205.324854 435.319214 
L 205.506707 435.425402 
L 205.594947 435.511731 
L 205.76558 435.658459 
L 205.961565 435.707612 
L 206.118772 435.733536 
L 206.362586 435.804225 
L 206.468673 435.905154 
L 206.668595 435.840199 
L 206.704354 435.6985 
L 206.913616 435.574004 
L 207.084693 435.527659 
L 207.313293 435.378629 
L 207.350751 435.227215 
L 207.544409 435.284772 
L 207.74966 435.202897 
L 207.869375 435.004928 
L 208.144417 435.080926 
L 208.434934 435.051407 
L 208.613138 434.975469 
L 208.701601 435.113886 
L 208.778115 435.233608 
L 209.021253 435.09756 
L 209.160418 435.175786 
L 209.502354 435.374557 
L 209.751572 435.456618 
L 210.044582 435.468529 
L 210.288654 435.582375 
L 210.559869 435.848567 
L 210.680006 435.875549 
L 210.914687 436.004279 
L 211.060727 436.306371 
L 211.299779 436.611071 
L 211.500674 436.714444 
L 211.672201 436.717016 
L 211.82712 437.037047 
L 211.990093 437.335757 
L 212.111 437.517957 
L 212.161066 437.641362 
L 212.068968 437.962806 
L 212.010716 438.225163 
L 211.852816 438.395509 
L 211.719205 438.61989 
L 211.75148 438.833424 
L 211.702329 439.064118 
L 211.54688 439.325969 
L 211.390768 439.625488 
L 211.455818 439.835718 
L 211.499954 440.150713 
L 211.560149 440.381211 
L 211.461044 440.654373 
L 211.43938 440.848922 
L 211.612494 440.95224 
L 211.688898 441.021729 
L 213.319687 440.64775 
L 214.530332 440.375035 
L 215.523445 440.127863 
L 216.56817 439.836854 
L 218.200243 439.397059 
L 219.140161 439.13285 
L 220.014799 438.867397 
L 220.777822 438.613297 
L 222.570801 437.946707 
L 222.607996 437.928368 
L 222.70006 437.883072 
L 222.807744 437.829004 
L 224.692132 436.54387 
L 226.140901 435.472969 
L 228.205918 434.048906 
L 229.773374 432.989832 
L 229.806346 432.968281 
L 230.069981 432.815211 
L 232.554167 431.381928 
L 234.908449 430.031007 
L 236.204551 429.24513 
L 237.418523 428.449222 
L 238.523312 427.739476 
L 239.65519 427.011248 
L 240.461151 426.510209 
L 240.712375 426.365897 
L 241.48124 425.907984 
L 243.215726 424.546178 
L 245.079524 422.927185 
L 244.922856 422.592013 
L 244.577662 422.494477 
L 244.344678 422.623445 
L 244.391825 422.942131 
L 244.172014 422.886623 
L 243.908581 422.777332 
L 243.668758 422.717961 
L 243.589273 422.587191 
L 243.342432 422.312183 
L 243.168853 422.328197 
L 243.048972 422.116075 
L 243.041174 421.887457 
L 242.724836 421.957587 
L 242.435206 421.955842 
L 242.168926 421.894793 
L 241.84085 421.947879 
L 241.638081 421.797949 
L 241.574824 421.979329 
L 241.357044 422.102166 
L 241.045266 422.341738 
L 240.956197 422.437237 
L 240.679524 422.4379 
L 240.29058 422.397316 
L 239.990756 422.301752 
L 240.049096 422.11944 
L 239.863539 421.96458 
L 239.55601 421.893582 
L 239.372174 421.781854 
L 239.205367 421.748015 
L 238.897679 421.744389 
L 238.532833 421.542992 
L 238.613814 421.420393 
L 238.84432 421.21655 
L 238.710191 420.964797 
L 238.643381 420.780629 
L 238.398205 420.543144 
L 238.123547 420.770234 
L 237.910091 420.606945 
L 237.611436 420.606048 
L 237.300052 420.7389 
L 237.140695 420.917583 
L 236.924223 420.796492 
L 236.83078 420.516574 
L 236.52657 420.355654 
L 236.158803 420.273508 
L 236.132752 420.503084 
L 235.755385 420.573632 
L 235.64636 420.431763 
L 235.49237 420.671736 
L 235.02796 420.671357 
L 234.532845 420.651143 
L 234.379758 420.595052 
L 234.120531 420.213415 
L 233.950115 420.028419 
L 233.758551 419.858225 
L 233.783204 419.812216 
L 233.807831 419.766207 
L 235.029264 417.673067 
L 236.264122 415.55116 
L 237.532736 413.380505 
L 237.238643 413.351353 
L 236.99189 413.293921 
L 236.885548 413.262686 
L 236.760346 413.245281 
L 236.670042 413.222732 
L 236.619334 413.300619 
L 236.51422 413.496002 
L 236.347233 413.473047 
L 236.169112 413.310158 
L 235.904276 413.26383 
L 235.606437 413.206807 
L 235.254378 413.087694 
L 235.015093 412.904947 
L 234.777076 412.80237 
L 234.610356 412.671233 
L 234.518197 412.348724 
L 234.288502 412.245267 
L 234.115311 412.229101 
L 233.889981 412.108229 
L 233.89845 411.961739 
L 233.817423 411.905249 
L 233.630416 411.85872 
L 233.405423 411.920128 
L 233.332588 412.088463 
L 233.161034 412.127968 
L 233.02811 412.280998 
L 232.743138 412.401673 
L 232.641732 412.536663 
L 232.522548 412.467548 
L 232.373896 412.49934 
L 232.170266 412.707181 
L 232.048224 412.470134 
L 231.614787 412.414037 
L 231.347506 412.140981 
L 231.300948 411.845344 
L 231.224419 411.546438 
L 231.299499 411.438196 
L 231.539724 411.370271 
L 231.554408 411.137182 
L 231.462388 410.901309 
L 231.486566 410.83779 
L 231.25628 410.609161 
L 231.352578 410.553387 
L 231.398954 410.551809 
L 231.473586 410.540153 
L 231.636846 410.432349 
L 231.791302 410.558565 
L 231.915146 410.730042 
L 231.991179 410.857555 
L 232.136818 410.843019 
L 232.235879 410.889818 
L 232.25371 410.741269 
L 232.396776 410.656824 
L 232.467664 410.674282 
L 232.513891 410.747668 
L 232.589196 410.54996 
L 233.169429 408.53949 
L 233.852253 406.237137 
L 234.100944 405.37027 
L 253.300715 403.010041 
" clip-path="url(#p83c9517878)" style="fill: #e0bd1f; stroke: #0000ff; stroke-width: 0.5"/>
    <path d="M 229.594166 304.013393 
L 229.619554 303.958931 
L 230.859948 304.230371 
L 232.888725 306.076292 
L 235.028985 309.390826 
L 235.652158 310.797014 
L 237.722099 310.495505 
L 240.429718 312.230667 
L 241.264452 312.109547 
L 242.339419 311.61747 
L 243.116727 312.571415 
L 243.499115 313.660779 
L 245.617701 316.378 
L 246.571155 316.432668 
L 246.210468 318.66365 
L 247.011776 319.591741 
L 246.370109 320.579234 
L 245.47253 320.652883 
L 245.768931 322.201962 
L 244.809122 324.717054 
L 246.52282 325.832631 
L 248.439168 325.564501 
L 249.513281 325.261014 
L 251.838645 324.960229 
L 253.023764 325.012232 
L 252.430217 326.72685 
L 252.533942 327.818781 
L 251.261002 328.828181 
L 251.220315 330.821824 
L 253.241157 331.563956 
L 253.800916 333.739149 
L 252.037754 335.035531 
L 252.808084 335.890055 
L 252.959497 336.928709 
L 251.870163 338.117184 
L 251.902981 339.6529 
L 251.669931 341.501709 
L 251.140801 342.364376 
L 250.042617 342.811664 
L 248.918714 343.018479 
L 247.69407 343.052645 
L 247.195676 343.870101 
L 246.281824 344.556375 
L 246.740095 346.498777 
L 246.516138 347.84817 
L 244.992559 347.829064 
L 243.218974 347.979702 
L 242.225583 349.235542 
L 241.529907 349.888245 
L 242.370387 350.758405 
L 242.730954 352.425906 
L 241.832143 352.986326 
L 241.425794 354.59715 
L 238.739477 354.771291 
L 238.370471 355.830207 
L 239.579709 356.795136 
L 238.402628 357.708579 
L 239.60564 359.251925 
L 237.986646 359.99379 
L 238.393972 361.543666 
L 239.341547 362.215541 
L 240.172683 363.78183 
L 239.702397 364.65766 
L 238.547371 365.000309 
L 238.578088 366.240123 
L 238.356291 367.84114 
L 237.818594 368.852051 
L 237.13557 369.504215 
L 236.712293 371.523326 
L 237.330854 372.007683 
L 237.519567 372.155407 
L 238.562151 372.213275 
L 241.549399 371.655081 
L 242.418425 372.232345 
L 243.092967 372.916654 
L 244.006673 373.052183 
L 247.782411 371.991582 
L 248.389065 370.246991 
L 249.464737 370.167773 
L 252.303402 369.394833 
L 254.210954 369.642652 
L 255.172627 369.96134 
L 256.158018 370.018995 
L 256.918856 369.313791 
L 257.593185 369.998357 
L 258.811802 371.735551 
L 259.035753 372.654032 
L 259.765799 373.077104 
L 260.495368 373.711554 
L 260.67 374.604292 
L 262.932102 375.899032 
L 263.401567 376.690129 
L 265.167299 377.507902 
L 265.993176 378.116639 
L 267.165183 378.595595 
L 268.159446 378.178662 
L 268.839058 377.631014 
L 269.724269 377.742029 
L 272.250377 377.099201 
L 273.463701 379.431267 
L 273.634694 380.710406 
L 275.511328 384.305953 
L 276.364965 385.217947 
L 276.400258 385.59312 
L 276.646232 388.207819 
L 277.366061 390.531753 
L 277.948581 393.105261 
L 278.610724 394.321914 
L 279.054666 396.148454 
L 279.993106 397.918503 
L 280.984717 398.913474 
L 281.701452 399.47739 
L 234.104085 405.35932 
L 234.32447 404.591119 
L 235.024858 402.116454 
L 235.420434 400.736778 
L 235.900367 399.050858 
L 236.216503 397.939596 
L 234.918223 396.654396 
L 233.887497 395.612271 
L 232.492905 394.226164 
L 231.571272 393.289933 
L 231.479886 393.196185 
L 229.856143 391.571074 
L 228.224239 389.93554 
L 226.819539 391.485372 
L 226.791786 391.514267 
L 225.587473 392.846898 
L 223.823962 394.797168 
L 222.491761 396.270137 
L 221.79088 397.045004 
L 221.126676 397.779467 
L 220.633335 398.32511 
L 218.766054 398.352103 
L 216.922038 398.284781 
L 216.697087 398.279185 
L 214.423282 398.23642 
L 213.120423 398.204547 
L 211.673142 398.183179 
L 210.298863 398.157145 
L 208.73355 398.126983 
L 207.394435 398.102229 
L 206.359191 398.083934 
L 205.851338 398.076456 
L 205.403925 398.062643 
L 204.441571 398.05026 
L 204.071323 398.910481 
L 203.855057 399.39924 
L 203.835346 399.448562 
L 203.20138 402.015874 
L 202.745894 404.101535 
L 202.741709 404.120526 
L 202.630411 404.076315 
L 202.442545 404.056533 
L 202.25546 404.114151 
L 202.036668 404.126172 
L 201.998007 404.091137 
L 202.014668 404.006351 
L 202.009669 403.864119 
L 201.931589 403.714055 
L 201.88663 403.646153 
L 201.789136 403.506251 
L 201.707138 403.4081 
L 201.618706 403.351188 
L 201.595802 403.28118 
L 201.604702 403.175649 
L 201.558639 403.084793 
L 201.39505 403.162159 
L 201.365601 403.190767 
L 201.342556 403.19201 
L 201.337948 403.189531 
L 201.333638 403.147683 
L 201.269429 403.078845 
L 201.185784 403.068517 
L 201.155623 403.076343 
L 201.179128 403.024239 
L 201.120405 402.922645 
L 201.033683 402.861436 
L 200.902689 402.877626 
L 200.861942 402.777022 
L 200.778511 402.646624 
L 200.869526 402.460149 
L 200.864684 402.333309 
L 200.65175 402.177059 
L 200.556472 402.132355 
L 200.344861 402.269012 
L 200.28621 402.365884 
L 200.281152 402.389687 
L 200.280709 402.389373 
L 200.232029 402.242425 
L 200.1549 402.115288 
L 200.045879 402.065503 
L 199.887412 402.00075 
L 199.700679 402.00439 
L 199.613549 402.087908 
L 199.503177 402.147697 
L 199.379678 402.15089 
L 199.28381 402.094931 
L 199.252821 401.996142 
L 199.27041 401.82767 
L 199.306036 401.712436 
L 199.208556 401.578972 
L 199.079421 401.618218 
L 199.016689 401.826502 
L 198.959296 401.913215 
L 198.903766 401.88551 
L 198.747828 401.80871 
L 198.468472 401.971237 
L 198.272336 402.1704 
L 198.089874 402.302216 
L 197.966806 402.377077 
L 197.812829 402.369222 
L 197.729677 402.311696 
L 197.620691 402.235209 
L 197.420348 402.282401 
L 197.348816 402.471015 
L 197.357523 402.592536 
L 197.319353 402.648748 
L 197.216881 402.688969 
L 197.083964 402.675686 
L 196.873715 402.616331 
L 196.565028 402.473142 
L 196.317202 402.623834 
L 196.133349 402.65537 
L 196.129107 402.653806 
L 196.212839 402.496557 
L 196.183415 402.226181 
L 195.932474 402.317746 
L 195.820425 402.466221 
L 195.741425 402.575037 
L 195.546571 402.670853 
L 195.47708 402.679031 
L 195.400296 402.681149 
L 195.330075 402.656477 
L 195.336172 402.567783 
L 195.382741 402.5409 
L 195.650892 402.363659 
L 195.450997 402.257456 
L 195.232372 402.260674 
L 195.082812 402.28142 
L 194.830765 402.270951 
L 194.653565 402.219758 
L 194.443827 402.122706 
L 194.279001 402.208655 
L 194.199153 402.2302 
L 194.173076 402.222207 
L 194.179414 402.106027 
L 194.181203 401.97598 
L 194.045076 401.813234 
L 193.880354 401.741052 
L 193.711529 401.577784 
L 193.503514 401.642758 
L 193.426232 401.49931 
L 193.270847 401.283326 
L 193.007062 401.061868 
L 192.941784 401.354836 
L 192.903831 401.401597 
L 192.881874 401.384278 
L 192.723958 401.258083 
L 192.522382 401.140571 
L 192.461869 401.34228 
L 192.318479 401.509653 
L 192.184542 401.588403 
L 192.108133 401.581121 
L 192.003694 401.564515 
L 191.796465 401.425992 
L 191.667353 401.480888 
L 191.48038 401.529648 
L 191.486756 401.49964 
L 191.495912 401.339426 
L 191.337493 401.271734 
L 191.235185 401.349698 
L 191.156402 401.530366 
L 191.017448 401.563577 
L 190.872045 401.51793 
L 190.689445 401.472684 
L 190.59383 401.443236 
L 190.534672 401.375144 
L 190.477705 401.262705 
L 190.418956 401.158228 
L 190.344635 401.058618 
L 190.201134 400.966975 
L 190.192692 401.134282 
L 190.211005 401.294948 
L 190.199633 401.340514 
L 190.169245 401.336663 
L 190.087233 401.322715 
L 189.955902 401.261102 
L 189.754927 401.241146 
L 189.660408 401.149972 
L 189.54068 400.960311 
L 189.494429 400.782257 
L 189.430922 400.550361 
L 189.284766 400.360089 
L 189.102034 400.441823 
L 189.009202 400.492678 
L 188.937709 400.436909 
L 188.911346 400.33243 
L 188.756394 400.107305 
L 188.528142 400.157177 
L 188.405908 400.267527 
L 188.290109 400.255151 
L 188.175513 400.230288 
L 188.205213 400.178436 
L 188.319797 399.92159 
L 188.143471 399.8456 
L 188.003361 399.855697 
L 187.96229 400.083027 
L 187.897175 400.224119 
L 187.789755 400.278087 
L 187.750262 400.306369 
L 187.749966 400.299878 
L 187.815539 400.120175 
L 187.771167 399.977665 
L 187.803393 399.717445 
L 187.633517 399.592573 
L 187.52125 399.689399 
L 187.391652 399.733717 
L 187.179477 399.623074 
L 186.91605 399.636224 
L 186.639705 399.477128 
L 186.588084 399.404101 
L 186.543393 399.2885 
L 186.372516 399.252863 
L 186.326153 399.425729 
L 186.206098 399.549293 
L 186.032961 399.628862 
L 185.922457 399.527974 
L 185.789337 399.306187 
L 185.690075 399.045107 
L 185.787451 398.891242 
L 185.858678 398.765034 
L 185.772205 398.660992 
L 185.658618 398.697823 
L 185.510384 398.686283 
L 185.287904 398.603742 
L 185.118622 398.47528 
L 184.838773 398.417489 
L 184.634414 398.524985 
L 184.409052 398.495481 
L 184.156396 398.46055 
L 183.988267 398.483934 
L 183.904692 398.40266 
L 183.79213 398.151651 
L 183.727204 397.954489 
L 183.584936 397.833992 
L 183.484997 397.832739 
L 183.366005 397.823768 
L 183.278659 397.840609 
L 183.259969 397.832525 
L 183.233833 397.737467 
L 183.191851 397.574062 
L 183.089177 397.455752 
L 182.955974 397.457458 
L 182.876803 397.594226 
L 182.856098 397.759093 
L 182.810365 397.822121 
L 182.691944 397.730038 
L 182.540298 397.53435 
L 182.553255 397.305625 
L 182.438692 397.021269 
L 182.346288 396.866321 
L 182.110144 396.975854 
L 181.838244 396.82758 
L 181.776821 397.085072 
L 181.721316 397.28604 
L 181.800056 397.46881 
L 181.775475 397.534866 
L 181.649662 397.521691 
L 181.452378 397.448973 
L 181.312627 397.323889 
L 181.308387 397.175108 
L 181.457968 397.034956 
L 181.669151 396.766832 
L 181.634449 396.600614 
L 181.543462 396.420036 
L 181.408845 396.333109 
L 181.20428 396.326996 
L 180.932262 396.566002 
L 180.756151 396.740619 
L 180.529253 396.741582 
L 180.526403 396.649733 
L 180.653587 396.492471 
L 180.66358 396.263226 
L 180.577775 396.102429 
L 180.467747 395.804662 
L 180.391751 395.595553 
L 180.306446 395.371198 
L 180.339388 395.162832 
L 180.352886 395.029257 
L 180.255651 394.894 
L 180.064497 394.747007 
L 179.949862 394.911761 
L 179.865465 395.117984 
L 179.981789 395.267451 
L 179.963524 395.364281 
L 179.758781 395.39327 
L 179.595571 395.43494 
L 179.433916 395.55553 
L 179.264295 395.572918 
L 178.987897 395.606992 
L 178.895548 395.751764 
L 178.953171 395.956453 
L 178.911689 396.093685 
L 178.848724 396.266445 
L 178.781401 396.296524 
L 178.745836 396.25865 
L 178.652789 396.090141 
L 178.50631 395.935564 
L 178.376002 395.758239 
L 178.243033 395.593484 
L 178.047486 395.431445 
L 177.83195 395.279148 
L 177.715182 395.17706 
L 177.729275 395.056834 
L 177.888652 394.958787 
L 178.029334 394.782867 
L 178.025612 394.614033 
L 177.945842 394.367575 
L 177.754199 394.056347 
L 177.521323 393.673749 
L 177.390976 393.470246 
L 177.315353 393.179934 
L 177.445923 392.941024 
L 177.706667 392.509065 
L 177.910785 392.229517 
L 177.948657 392.044755 
L 178.021563 391.824651 
L 177.873021 391.662301 
L 177.702205 391.493965 
L 177.530481 391.411543 
L 177.169566 391.270414 
L 176.994862 391.177708 
L 176.834008 391.042129 
L 176.723703 390.946259 
L 176.667471 390.730023 
L 176.538035 390.440632 
L 176.478234 390.220631 
L 176.467748 390.066205 
L 176.496567 389.880383 
L 176.526916 389.623464 
L 176.511256 389.369731 
L 176.365921 389.193736 
L 176.20741 389.243902 
L 175.988144 389.348978 
L 175.842685 389.480219 
L 175.729653 389.656774 
L 175.694542 389.845014 
L 175.854911 389.970753 
L 176.030786 390.097985 
L 176.055018 390.159123 
L 176.035744 390.193209 
L 175.83094 390.247845 
L 175.588726 390.316151 
L 175.447392 390.390138 
L 175.297463 390.524685 
L 175.219287 390.651947 
L 175.220277 390.821964 
L 175.274126 390.927268 
L 175.31246 391.007701 
L 175.280314 391.044294 
L 175.124868 391.143197 
L 174.99273 391.193662 
L 174.856267 391.222145 
L 174.789006 391.207303 
L 174.688527 391.056184 
L 174.577604 390.879401 
L 174.418273 390.735781 
L 174.161153 390.617233 
L 173.933647 390.456153 
L 173.780064 390.328649 
L 173.6444 390.233104 
L 173.451073 390.17372 
L 173.243481 390.226788 
L 173.164351 390.359836 
L 173.136383 390.509402 
L 173.089241 390.656275 
L 173.015542 390.786383 
L 172.917515 390.843652 
L 172.819188 390.840532 
L 172.648604 390.821975 
L 172.519863 390.7121 
L 172.447126 390.585909 
L 172.318874 390.404335 
L 172.161613 390.28652 
L 172.036949 390.17156 
L 171.947253 389.994559 
L 171.855944 389.799943 
L 171.761729 389.60973 
L 171.688076 389.428621 
L 171.684902 389.239341 
L 171.650898 388.960452 
L 171.46114 388.921426 
L 171.309446 388.974065 
L 171.137778 388.977392 
L 171.09213 388.892439 
L 171.097947 388.766231 
L 171.160344 388.660983 
L 171.289261 388.682643 
L 171.472082 388.744349 
L 171.630333 388.795805 
L 171.858982 388.872649 
L 172.033028 388.722518 
L 171.873131 388.512564 
L 171.636121 388.393509 
L 171.459152 388.399462 
L 171.373066 388.354727 
L 171.312544 388.289979 
L 171.193429 388.128049 
L 170.925122 387.988126 
L 170.743476 388.083296 
L 170.56098 388.150196 
L 170.39417 388.286257 
L 170.216968 388.465265 
L 170.14106 388.528965 
L 170.069601 388.575983 
L 170.018566 388.575223 
L 170.044044 388.463278 
L 170.134396 388.181528 
L 170.150474 387.907981 
L 170.134905 387.709269 
L 169.956259 387.672292 
L 169.754844 387.836232 
L 169.559087 388.026916 
L 169.413612 388.133495 
L 169.190943 388.244328 
L 169.050929 388.160409 
L 168.870016 387.9653 
L 168.775957 387.773068 
L 168.696375 387.556025 
L 168.653317 387.375967 
L 168.536208 387.180158 
L 168.382129 386.978751 
L 168.182462 386.990677 
L 167.969699 387.046705 
L 167.845134 387.151916 
L 167.731937 387.188317 
L 167.565568 387.238017 
L 167.465144 387.240526 
L 167.364319 387.184529 
L 167.272256 387.055275 
L 167.198111 386.941622 
L 167.153099 386.793711 
L 167.131603 386.681732 
L 167.220243 386.591392 
L 167.398131 386.591908 
L 167.548928 386.651756 
L 167.755495 386.679295 
L 167.959599 386.625244 
L 168.058913 386.454916 
L 168.00358 386.293279 
L 167.843158 386.180228 
L 167.598836 386.178085 
L 167.400374 386.160821 
L 167.229215 386.085952 
L 167.010735 386.00571 
L 166.792696 386.012269 
L 166.62086 386.023995 
L 166.521101 385.948703 
L 166.503927 385.769495 
L 166.522311 385.661303 
L 166.498594 385.490193 
L 166.29353 385.4582 
L 166.184427 385.588517 
L 166.195812 385.827785 
L 166.247614 386.02982 
L 166.216292 386.166119 
L 166.139367 386.176365 
L 165.991975 385.974029 
L 165.864833 385.798049 
L 165.735631 385.688823 
L 165.527208 385.532572 
L 165.620621 385.397986 
L 165.700537 385.282817 
L 165.760464 385.194589 
L 165.823124 385.089315 
L 165.888917 384.992387 
L 165.949309 384.901933 
L 166.021544 384.799131 
L 166.108617 384.66945 
L 166.20031 384.533191 
L 166.291895 384.394628 
L 166.382671 384.25434 
L 166.471917 384.116566 
L 166.560123 383.97971 
L 166.650796 383.840416 
L 166.739412 383.699267 
L 166.833168 383.552141 
L 166.932082 383.392364 
L 167.039415 383.226973 
L 167.139531 383.071094 
L 167.238148 382.921658 
L 167.339328 382.764809 
L 167.441576 382.608168 
L 167.638671 382.304505 
L 167.827876 382.012685 
L 167.989865 381.749073 
L 168.075482 381.638686 
L 168.174303 381.540242 
L 168.281758 381.457281 
L 168.384999 381.392206 
L 168.587642 381.304128 
L 169.036978 381.120417 
L 170.029455 380.710863 
L 170.358483 380.573116 
L 170.53094 380.476444 
L 170.679774 380.359075 
L 170.801966 380.235884 
L 170.91372 380.108101 
L 171.087059 379.819969 
L 171.238436 379.543702 
L 171.32034 379.42175 
L 171.405144 379.326624 
L 171.651575 379.145994 
L 173.006519 378.280894 
L 174.207975 377.522932 
L 175.177366 376.902043 
L 175.645617 376.597303 
L 175.7951 376.499669 
L 175.942695 376.426303 
L 176.095819 376.396591 
L 176.252194 376.38402 
L 176.534417 376.364763 
L 177.296871 376.308191 
L 177.491116 376.26229 
L 177.673847 376.204915 
L 177.847552 376.13012 
L 178.019433 376.036088 
L 178.208168 375.90868 
L 178.908525 375.237414 
L 179.484743 374.654373 
L 180.708112 373.415614 
L 181.712001 372.392001 
L 182.26016 371.838422 
L 182.538611 371.555775 
L 182.774412 371.275341 
L 182.851736 371.0751 
L 182.870399 370.866574 
L 182.83808 370.671504 
L 182.767523 370.505943 
L 182.517729 370.063008 
L 182.165828 369.452755 
L 182.083377 369.297787 
L 182.029505 369.141021 
L 181.994891 368.755206 
L 181.984589 368.282 
L 181.965291 367.422181 
L 181.948333 366.561676 
L 181.929392 365.713321 
L 181.89337 364.563411 
L 181.902955 364.234591 
L 182.005091 364.000622 
L 182.233592 363.779937 
L 182.908343 363.247813 
L 183.54616 362.715299 
L 183.687498 362.538491 
L 183.892322 362.178713 
L 184.23036 361.536386 
L 184.5337 360.959869 
L 184.816897 360.52636 
L 185.25416 360.110436 
L 185.72443 359.66467 
L 186.330722 359.090765 
L 186.621593 358.812338 
L 186.872919 358.542508 
L 187.002016 358.207559 
L 186.991433 357.907541 
L 186.925405 357.441441 
L 186.952623 357.216595 
L 187.008642 357.066201 
L 187.106531 356.915846 
L 187.585893 356.269474 
L 188.102707 355.577103 
L 188.589612 354.918493 
L 189.031953 354.318485 
L 189.482156 353.708359 
L 190.187064 352.752013 
L 190.422144 352.42708 
L 190.631216 352.085015 
L 190.810492 351.730434 
L 190.965985 351.41785 
L 191.239504 351.012677 
L 191.363124 350.889452 
L 191.666302 350.676287 
L 191.98254 350.483205 
L 192.805794 349.982817 
L 193.54092 349.537616 
L 194.14375 349.173352 
L 194.750498 348.804631 
L 195.380055 348.422784 
L 195.978696 348.061769 
L 196.295025 347.865751 
L 196.57562 347.701384 
L 196.702796 347.642283 
L 196.98568 347.560446 
L 197.297558 347.494059 
L 197.616273 347.36146 
L 197.779923 347.263533 
L 198.2413 346.983017 
L 198.576776 346.777804 
L 198.940447 346.528595 
L 199.216302 346.248064 
L 199.4297 345.972659 
L 199.838666 345.444784 
L 200.313076 344.830604 
L 200.791508 344.212857 
L 201.258103 343.609133 
L 201.522953 343.24886 
L 201.606438 343.093867 
L 201.68266 342.917342 
L 201.808606 342.532821 
L 202.195243 341.32045 
L 202.419576 340.620897 
L 202.660264 339.872577 
L 202.903538 339.115459 
L 203.038076 338.690167 
L 203.169968 338.318044 
L 203.253792 338.164804 
L 203.35466 338.018342 
L 203.546232 337.745093 
L 203.721959 337.498202 
L 204.042909 336.988426 
L 204.153492 336.723658 
L 204.212278 336.524311 
L 204.273042 336.164711 
L 204.292526 335.781594 
L 204.326095 335.101199 
L 204.3365 334.957606 
L 204.359103 334.83182 
L 204.446544 334.584001 
L 204.703883 333.943395 
L 204.861092 333.55118 
L 205.052669 333.073288 
L 205.191088 332.70419 
L 205.22724 332.498624 
L 205.217406 332.123564 
L 205.186007 331.467593 
L 205.155979 330.823452 
L 205.118448 330.023967 
L 205.116655 329.878406 
L 205.136584 329.755556 
L 205.180638 329.645493 
L 205.342774 329.424304 
L 205.521205 329.165343 
L 205.569471 328.974363 
L 205.568248 328.795426 
L 205.533896 327.999942 
L 205.509223 327.401416 
L 205.485285 326.904818 
L 205.451664 326.287644 
L 205.414245 325.620452 
L 205.387354 325.065173 
L 205.344654 324.16751 
L 205.287643 323.60495 
L 205.305539 323.445928 
L 205.534957 323.301118 
L 205.920471 323.0469 
L 206.2991 322.79662 
L 206.712101 322.528929 
L 207.184401 322.222637 
L 207.601659 321.952294 
L 208.031747 321.673658 
L 208.470793 321.387442 
L 208.927838 321.089836 
L 209.384047 320.790111 
L 209.842883 320.492344 
L 210.304337 320.1902 
L 210.730306 319.925048 
L 211.135375 319.680164 
L 211.565775 319.375243 
L 211.974158 319.107396 
L 212.393328 318.837253 
L 212.7532 318.606917 
L 213.100648 318.379401 
L 213.4349 318.160911 
L 213.73843 317.964825 
L 214.057017 317.819286 
L 214.426182 317.661543 
L 214.782115 317.505288 
L 215.153833 317.335526 
L 215.545331 317.162039 
L 215.917081 316.996595 
L 216.365295 316.79744 
L 216.787557 316.612541 
L 217.170663 316.444432 
L 217.560263 316.273852 
L 217.926683 316.110769 
L 218.344501 315.928912 
L 218.766344 315.74524 
L 219.183351 315.561681 
L 219.578119 315.389126 
L 220.080294 315.169406 
L 220.602914 314.940044 
L 221.002966 314.710076 
L 221.2729 314.347956 
L 221.582653 313.931324 
L 221.879601 313.506966 
L 222.227056 313.077026 
L 222.499043 312.638549 
L 222.737683 312.300851 
L 223.001006 311.937616 
L 223.282135 311.541083 
L 223.484833 311.2609 
L 223.789323 310.983058 
L 224.153094 310.674517 
L 224.51162 310.371272 
L 224.939647 310.008701 
L 225.391893 309.62342 
L 225.854214 309.231605 
L 226.284781 308.86696 
L 226.700995 308.518227 
L 227.101673 308.176876 
L 227.501216 307.841154 
L 227.898248 307.482585 
L 228.078831 307.167834 
L 228.283415 306.746903 
L 228.468966 306.356471 
L 228.653897 305.969418 
L 228.839614 305.585635 
L 229.009922 305.237659 
L 229.066976 305.121109 
L 229.292704 304.659753 
L 229.428371 304.368872 
L 229.594166 304.013393 
" clip-path="url(#p83c9517878)" style="fill: #e0bd1f; stroke: #0000ff; stroke-width: 0.5"/>
   </g>
   <g id="PatchCollection_2">
    <path d="M 494.190129 243.68158 
L 493.271821 244.054347 
L 495.795966 246.286702 
L 495.333124 249.227619 
L 496.824013 250.477364 
L 496.879163 252.244098 
L 495.251925 254.985004 
L 497.055355 258.522493 
L 493.938189 259.233867 
L 493.151422 261.127697 
L 486.850874 262.1579 
L 484.958387 264.833284 
L 485.729441 268.238695 
L 484.277752 274.580516 
L 486.34579 278.05321 
L 486.082142 279.099973 
L 491.010037 281.402427 
L 491.789029 282.714557 
L 491.780932 287.621494 
L 487.940806 288.787231 
L 486.441499 291.072886 
L 481.940617 290.875448 
L 475.828606 297.910312 
L 477.177292 303.083262 
L 474.70653 304.44909 
L 472.80723 308.239328 
L 472.856045 313.407454 
L 467.764226 321.569793 
L 472.619093 329.439028 
L 474.819957 330.750272 
L 478.644053 335.928364 
L 479.091263 337.763031 
L 477.519333 341.749821 
L 475.485603 341.786801 
L 474.594228 342.068406 
L 476.342269 345.671417 
L 473.463896 350.372956 
L 465.936746 352.762877 
L 463.436247 356.165712 
L 461.095185 356.945499 
L 454.153522 354.503004 
L 452.132619 355.152315 
L 451.796511 357.572381 
L 454.395125 360.915006 
L 452.230893 365.750958 
L 454.0409 369.681314 
L 456.24585 371.455687 
L 455.772105 376.165346 
L 454.640893 377.934494 
L 281.701473 399.477379 
L 280.984686 398.913442 
L 279.993111 397.918532 
L 279.054684 396.14842 
L 278.610758 394.321955 
L 277.94856 393.105251 
L 277.36604 390.531798 
L 276.646205 388.2078 
L 276.364926 385.217925 
L 275.511308 384.305979 
L 273.634689 380.710447 
L 273.463709 379.431278 
L 272.250414 377.09924 
L 269.724263 377.74204 
L 268.839061 377.631022 
L 268.159467 378.178639 
L 267.165166 378.595622 
L 265.993152 378.116657 
L 265.167268 377.507944 
L 263.401593 376.690135 
L 262.932096 375.899015 
L 260.669991 374.604332 
L 260.495404 373.711596 
L 259.765792 373.077076 
L 259.035779 372.654065 
L 258.811813 371.735526 
L 257.593145 369.998375 
L 256.918844 369.31377 
L 256.158049 370.019035 
L 255.172644 369.961313 
L 254.210969 369.642647 
L 252.303413 369.394804 
L 249.464718 370.167757 
L 248.389056 370.24702 
L 247.78249 371.991569 
L 244.006649 373.052156 
L 243.09299 372.9167 
L 242.418447 372.232336 
L 241.549436 371.655055 
L 238.562129 372.213284 
L 237.519572 372.155403 
L 236.712284 371.523375 
L 237.135609 369.504216 
L 237.818567 368.852089 
L 238.35628 367.841184 
L 238.578081 366.240133 
L 238.54738 365.000355 
L 239.7024 364.657651 
L 240.172696 363.781799 
L 239.34152 362.215558 
L 238.393953 361.543656 
L 237.986662 359.993813 
L 239.605646 359.251973 
L 238.40261 357.708561 
L 239.579675 356.795167 
L 238.370466 355.830246 
L 238.73944 354.771265 
L 241.425831 354.597139 
L 241.832161 352.986361 
L 242.730991 352.42588 
L 242.370353 350.758428 
L 241.529879 349.888284 
L 242.225584 349.235514 
L 243.219002 347.979741 
L 244.992533 347.829088 
L 246.516126 347.848143 
L 246.740095 346.498793 
L 246.281821 344.556404 
L 247.195642 343.870113 
L 247.694073 343.052626 
L 248.918752 343.018458 
L 250.042589 342.811696 
L 251.140777 342.364404 
L 251.669911 341.501738 
L 251.903015 339.652925 
L 251.87015 338.117231 
L 252.959519 336.928741 
L 252.808098 335.890099 
L 252.037763 335.035551 
L 253.800954 333.73918 
L 253.241119 331.563982 
L 251.220294 330.821818 
L 251.261015 328.828222 
L 252.533952 327.818764 
L 252.430224 326.726823 
L 253.023727 325.012262 
L 251.838646 324.960247 
L 249.513297 325.260988 
L 248.439156 325.564541 
L 246.522781 325.832643 
L 244.809129 324.716988 
L 245.76896 322.20198 
L 245.472531 320.65286 
L 246.370076 320.579224 
L 246.959331 319.531015 
L 246.221621 318.594469 
L 246.571117 316.432697 
L 246.466107 316.426669 
L 245.617698 316.378031 
L 243.499078 313.660764 
L 243.116717 312.571396 
L 242.339409 311.617486 
L 241.264469 312.109555 
L 240.429689 312.230703 
L 237.722137 310.495478 
L 235.652174 310.797024 
L 235.029014 309.390838 
L 232.888751 306.076268 
L 230.85991 304.23035 
L 229.456638 303.923259 
L 230.216951 303.346942 
L 237.691995 299.728419 
L 240.025684 297.921327 
L 240.975173 297.239217 
L 241.467034 296.72046 
L 242.526582 296.651402 
L 243.801923 296.405489 
L 245.04071 295.982877 
L 248.586811 293.833164 
L 254.581309 290.718767 
L 258.312417 288.779837 
L 259.534612 288.292028 
L 261.077124 287.392543 
L 262.584926 287.379598 
L 264.514689 286.506242 
L 265.811272 285.865531 
L 266.592666 285.560531 
L 268.437942 285.673479 
L 272.484719 285.958864 
L 275.436838 284.786133 
L 276.05495 284.483624 
L 276.765724 284.378072 
L 277.475136 284.13674 
L 284.132314 281.570684 
L 288.016448 279.738915 
L 301.598294 278.277742 
L 311.084946 273.611734 
L 311.417367 273.52853 
L 314.114498 273.924531 
L 316.898121 274.33412 
L 317.493306 274.417404 
L 321.150029 272.575824 
L 321.931746 272.789743 
L 324.065914 274.008137 
L 324.732683 274.686872 
L 325.127468 274.81228 
L 325.409792 274.802793 
L 330.988179 272.976088 
L 331.466653 272.659271 
L 334.465504 269.357163 
L 335.891464 268.929165 
L 349.672107 264.962955 
L 350.314344 264.758201 
L 350.959949 264.740756 
L 351.473612 264.432942 
L 353.306222 262.940818 
L 357.44743 260.572845 
L 357.796926 260.572685 
L 360.167725 261.625875 
L 361.877291 262.422462 
L 364.24192 262.339822 
L 366.496649 260.764014 
L 367.637001 260.850835 
L 377.216635 261.767765 
L 378.502717 262.134907 
L 378.708326 262.040769 
L 382.823562 257.453545 
L 384.580581 255.231157 
L 385.076929 255.100283 
L 387.981834 255.452873 
L 390.932989 254.35635 
L 391.184692 254.48787 
L 392.227567 256.200825 
L 392.410811 256.278883 
L 394.521897 256.45968 
L 395.246539 256.845312 
L 395.759481 257.68113 
L 397.683232 258.576757 
L 397.812531 258.61253 
L 402.801663 259.565155 
L 407.349522 262.393843 
L 407.940699 262.341912 
L 408.210435 262.207339 
L 409.036881 261.251661 
L 410.369135 259.601652 
L 410.430056 259.081044 
L 410.750775 256.885267 
L 410.82925 256.809539 
L 413.043821 255.333415 
L 414.246695 254.540365 
L 419.157514 254.103686 
L 420.20528 254.319451 
L 420.389647 254.43618 
L 421.154211 254.598246 
L 428.475428 254.621399 
L 430.431084 257.281911 
L 431.030436 257.366484 
L 432.529423 257.284805 
L 433.426489 257.330386 
L 434.696298 257.921657 
L 435.411963 258.651519 
L 435.483706 258.684479 
L 437.657954 259.062635 
L 439.350606 259.452608 
L 440.517088 259.604384 
L 440.881094 259.53163 
L 442.945363 258.936102 
L 447.51799 259.524074 
L 449.844141 259.791212 
L 450.383055 259.513062 
L 450.579525 259.23282 
L 452.068091 256.365383 
L 452.807082 255.311227 
L 455.742449 253.196483 
L 457.344436 250.433391 
L 457.502754 250.227752 
L 463.007154 248.331106 
L 466.995336 248.044434 
L 468.361336 248.315429 
L 470.062564 249.290966 
L 470.606046 250.041167 
L 471.300068 249.924441 
L 471.489246 249.767439 
L 472.333084 248.92133 
L 472.585347 248.984356 
L 472.899011 249.070133 
L 473.086905 249.027365 
L 474.929696 248.222258 
L 481.065754 247.159822 
L 484.968325 246.409219 
L 494.190129 243.68158 
L 494.190129 243.68158 
" clip-path="url(#p83c9517878)" style="fill: none; stroke: #000000"/>
   </g>
   <g id="matplotlib.axis_1">
    <g id="xtick_1">
     <g id="line2d_1">
      <path d="M 143.311893 648.222263 
L 143.311893 224.417737 
" clip-path="url(#p83c9517878)" style="fill: none; stroke: #b0b0b0; stroke-width: 0.8; stroke-linecap: square"/>
     </g>
     <g id="line2d_2">
      <defs>
       <path id="mc88d7b8358" d="M 0 0 
L 0 3.5 
" style="stroke: #000000; stroke-width: 0.8"/>
      </defs>
      <g>
       <use xlink:href="#mc88d7b8358" x="143.311893" y="648.222263" style="stroke: #000000; stroke-width: 0.8"/>
      </g>
     </g>
     <g id="text_1">
      <!-- −56.00 -->
      <g transform="translate(132.178828 686.763644) rotate(-45) scale(0.1 -0.1)">
       <defs>
        <path id="DejaVuSans-2212" d="M 678 2272 
L 4684 2272 
L 4684 1741 
L 678 1741 
L 678 2272 
z
" transform="scale(0.015625)"/>
        <path id="DejaVuSans-35" d="M 691 4666 
L 3169 4666 
L 3169 4134 
L 1269 4134 
L 1269 2991 
Q 1406 3038 1543 3061 
Q 1681 3084 1819 3084 
Q 2600 3084 3056 2656 
Q 3513 2228 3513 1497 
Q 3513 744 3044 326 
Q 2575 -91 1722 -91 
Q 1428 -91 1123 -41 
Q 819 9 494 109 
L 494 744 
Q 775 591 1075 516 
Q 1375 441 1709 441 
Q 2250 441 2565 725 
Q 2881 1009 2881 1497 
Q 2881 1984 2565 2268 
Q 2250 2553 1709 2553 
Q 1456 2553 1204 2497 
Q 953 2441 691 2322 
L 691 4666 
z
" transform="scale(0.015625)"/>
        <path id="DejaVuSans-36" d="M 2113 2584 
Q 1688 2584 1439 2293 
Q 1191 2003 1191 1497 
Q 1191 994 1439 701 
Q 1688 409 2113 409 
Q 2538 409 2786 701 
Q 3034 994 3034 1497 
Q 3034 2003 2786 2293 
Q 2538 2584 2113 2584 
z
M 3366 4563 
L 3366 3988 
Q 3128 4100 2886 4159 
Q 2644 4219 2406 4219 
Q 1781 4219 1451 3797 
Q 1122 3375 1075 2522 
Q 1259 2794 1537 2939 
Q 1816 3084 2150 3084 
Q 2853 3084 3261 2657 
Q 3669 2231 3669 1497 
Q 3669 778 3244 343 
Q 2819 -91 2113 -91 
Q 1303 -91 875 529 
Q 447 1150 447 2328 
Q 447 3434 972 4092 
Q 1497 4750 2381 4750 
Q 2619 4750 2861 4703 
Q 3103 4656 3366 4563 
z
" transform="scale(0.015625)"/>
        <path id="DejaVuSans-2e" d="M 684 794 
L 1344 794 
L 1344 0 
L 684 0 
L 684 794 
z
" transform="scale(0.015625)"/>
        <path id="DejaVuSans-30" d="M 2034 4250 
Q 1547 4250 1301 3770 
Q 1056 3291 1056 2328 
Q 1056 1369 1301 889 
Q 1547 409 2034 409 
Q 2525 409 2770 889 
Q 3016 1369 3016 2328 
Q 3016 3291 2770 3770 
Q 2525 4250 2034 4250 
z
M 2034 4750 
Q 2819 4750 3233 4129 
Q 3647 3509 3647 2328 
Q 3647 1150 3233 529 
Q 2819 -91 2034 -91 
Q 1250 -91 836 529 
Q 422 1150 422 2328 
Q 422 3509 836 4129 
Q 1250 4750 2034 4750 
z
" transform="scale(0.015625)"/>
       </defs>
       <use xlink:href="#DejaVuSans-2212"/>
       <use xlink:href="#DejaVuSans-35" transform="translate(83.789062 0)"/>
       <use xlink:href="#DejaVuSans-36" transform="translate(147.412109 0)"/>
       <use xlink:href="#DejaVuSans-2e" transform="translate(211.035156 0)"/>
       <use xlink:href="#DejaVuSans-30" transform="translate(242.822266 0)"/>
       <use xlink:href="#DejaVuSans-30" transform="translate(306.445312 0)"/>
      </g>
     </g>
    </g>
    <g id="xtick_2">
     <g id="line2d_3">
      <path d="M 215.455555 648.222263 
L 215.455555 224.417737 
" clip-path="url(#p83c9517878)" style="fill: none; stroke: #b0b0b0; stroke-width: 0.8; stroke-linecap: square"/>
     </g>
     <g id="line2d_4">
      <g>
       <use xlink:href="#mc88d7b8358" x="215.455555" y="648.222263" style="stroke: #000000; stroke-width: 0.8"/>
      </g>
     </g>
     <g id="text_2">
      <!-- −55.75 -->
      <g transform="translate(204.322491 686.763644) rotate(-45) scale(0.1 -0.1)">
       <defs>
        <path id="DejaVuSans-37" d="M 525 4666 
L 3525 4666 
L 3525 4397 
L 1831 0 
L 1172 0 
L 2766 4134 
L 525 4134 
L 525 4666 
z
" transform="scale(0.015625)"/>
       </defs>
       <use xlink:href="#DejaVuSans-2212"/>
       <use xlink:href="#DejaVuSans-35" transform="translate(83.789062 0)"/>
       <use xlink:href="#DejaVuSans-35" transform="translate(147.412109 0)"/>
       <use xlink:href="#DejaVuSans-2e" transform="translate(211.035156 0)"/>
       <use xlink:href="#DejaVuSans-37" transform="translate(242.822266 0)"/>
       <use xlink:href="#DejaVuSans-35" transform="translate(306.445312 0)"/>
      </g>
     </g>
    </g>
    <g id="xtick_3">
     <g id="line2d_5">
      <path d="M 287.599218 648.222263 
L 287.599218 224.417737 
" clip-path="url(#p83c9517878)" style="fill: none; stroke: #b0b0b0; stroke-width: 0.8; stroke-linecap: square"/>
     </g>
     <g id="line2d_6">
      <g>
       <use xlink:href="#mc88d7b8358" x="287.599218" y="648.222263" style="stroke: #000000; stroke-width: 0.8"/>
      </g>
     </g>
     <g id="text_3">
      <!-- −55.50 -->
      <g transform="translate(276.466153 686.763644) rotate(-45) scale(0.1 -0.1)">
       <use xlink:href="#DejaVuSans-2212"/>
       <use xlink:href="#DejaVuSans-35" transform="translate(83.789062 0)"/>
       <use xlink:href="#DejaVuSans-35" transform="translate(147.412109 0)"/>
       <use xlink:href="#DejaVuSans-2e" transform="translate(211.035156 0)"/>
       <use xlink:href="#DejaVuSans-35" transform="translate(242.822266 0)"/>
       <use xlink:href="#DejaVuSans-30" transform="translate(306.445312 0)"/>
      </g>
     </g>
    </g>
    <g id="xtick_4">
     <g id="line2d_7">
      <path d="M 359.74288 648.222263 
L 359.74288 224.417737 
" clip-path="url(#p83c9517878)" style="fill: none; stroke: #b0b0b0; stroke-width: 0.8; stroke-linecap: square"/>
     </g>
     <g id="line2d_8">
      <g>
       <use xlink:href="#mc88d7b8358" x="359.74288" y="648.222263" style="stroke: #000000; stroke-width: 0.8"/>
      </g>
     </g>
     <g id="text_4">
      <!-- −55.25 -->
      <g transform="translate(348.609815 686.763644) rotate(-45) scale(0.1 -0.1)">
       <defs>
        <path id="DejaVuSans-32" d="M 1228 531 
L 3431 531 
L 3431 0 
L 469 0 
L 469 531 
Q 828 903 1448 1529 
Q 2069 2156 2228 2338 
Q 2531 2678 2651 2914 
Q 2772 3150 2772 3378 
Q 2772 3750 2511 3984 
Q 2250 4219 1831 4219 
Q 1534 4219 1204 4116 
Q 875 4013 500 3803 
L 500 4441 
Q 881 4594 1212 4672 
Q 1544 4750 1819 4750 
Q 2544 4750 2975 4387 
Q 3406 4025 3406 3419 
Q 3406 3131 3298 2873 
Q 3191 2616 2906 2266 
Q 2828 2175 2409 1742 
Q 1991 1309 1228 531 
z
" transform="scale(0.015625)"/>
       </defs>
       <use xlink:href="#DejaVuSans-2212"/>
       <use xlink:href="#DejaVuSans-35" transform="translate(83.789062 0)"/>
       <use xlink:href="#DejaVuSans-35" transform="translate(147.412109 0)"/>
       <use xlink:href="#DejaVuSans-2e" transform="translate(211.035156 0)"/>
       <use xlink:href="#DejaVuSans-32" transform="translate(242.822266 0)"/>
       <use xlink:href="#DejaVuSans-35" transform="translate(306.445312 0)"/>
      </g>
     </g>
    </g>
    <g id="xtick_5">
     <g id="line2d_9">
      <path d="M 431.886542 648.222263 
L 431.886542 224.417737 
" clip-path="url(#p83c9517878)" style="fill: none; stroke: #b0b0b0; stroke-width: 0.8; stroke-linecap: square"/>
     </g>
     <g id="line2d_10">
      <g>
       <use xlink:href="#mc88d7b8358" x="431.886542" y="648.222263" style="stroke: #000000; stroke-width: 0.8"/>
      </g>
     </g>
     <g id="text_5">
      <!-- −55.00 -->
      <g transform="translate(420.753477 686.763644) rotate(-45) scale(0.1 -0.1)">
       <use xlink:href="#DejaVuSans-2212"/>
       <use xlink:href="#DejaVuSans-35" transform="translate(83.789062 0)"/>
       <use xlink:href="#DejaVuSans-35" transform="translate(147.412109 0)"/>
       <use xlink:href="#DejaVuSans-2e" transform="translate(211.035156 0)"/>
       <use xlink:href="#DejaVuSans-30" transform="translate(242.822266 0)"/>
       <use xlink:href="#DejaVuSans-30" transform="translate(306.445312 0)"/>
      </g>
     </g>
    </g>
    <g id="xtick_6">
     <g id="line2d_11">
      <path d="M 504.030204 648.222263 
L 504.030204 224.417737 
" clip-path="url(#p83c9517878)" style="fill: none; stroke: #b0b0b0; stroke-width: 0.8; stroke-linecap: square"/>
     </g>
     <g id="line2d_12">
      <g>
       <use xlink:href="#mc88d7b8358" x="504.030204" y="648.222263" style="stroke: #000000; stroke-width: 0.8"/>
      </g>
     </g>
     <g id="text_6">
      <!-- −54.75 -->
      <g transform="translate(492.89714 686.763644) rotate(-45) scale(0.1 -0.1)">
       <defs>
        <path id="DejaVuSans-34" d="M 2419 4116 
L 825 1625 
L 2419 1625 
L 2419 4116 
z
M 2253 4666 
L 3047 4666 
L 3047 1625 
L 3713 1625 
L 3713 1100 
L 3047 1100 
L 3047 0 
L 2419 0 
L 2419 1100 
L 313 1100 
L 313 1709 
L 2253 4666 
z
" transform="scale(0.015625)"/>
       </defs>
       <use xlink:href="#DejaVuSans-2212"/>
       <use xlink:href="#DejaVuSans-35" transform="translate(83.789062 0)"/>
       <use xlink:href="#DejaVuSans-34" transform="translate(147.412109 0)"/>
       <use xlink:href="#DejaVuSans-2e" transform="translate(211.035156 0)"/>
       <use xlink:href="#DejaVuSans-37" transform="translate(242.822266 0)"/>
       <use xlink:href="#DejaVuSans-35" transform="translate(306.445312 0)"/>
      </g>
     </g>
    </g>
    <g id="xtick_7">
     <g id="line2d_13">
      <path d="M 576.173867 648.222263 
L 576.173867 224.417737 
" clip-path="url(#p83c9517878)" style="fill: none; stroke: #b0b0b0; stroke-width: 0.8; stroke-linecap: square"/>
     </g>
     <g id="line2d_14">
      <g>
       <use xlink:href="#mc88d7b8358" x="576.173867" y="648.222263" style="stroke: #000000; stroke-width: 0.8"/>
      </g>
     </g>
     <g id="text_7">
      <!-- −54.50 -->
      <g transform="translate(565.040802 686.763644) rotate(-45) scale(0.1 -0.1)">
       <use xlink:href="#DejaVuSans-2212"/>
       <use xlink:href="#DejaVuSans-35" transform="translate(83.789062 0)"/>
       <use xlink:href="#DejaVuSans-34" transform="translate(147.412109 0)"/>
       <use xlink:href="#DejaVuSans-2e" transform="translate(211.035156 0)"/>
       <use xlink:href="#DejaVuSans-35" transform="translate(242.822266 0)"/>
       <use xlink:href="#DejaVuSans-30" transform="translate(306.445312 0)"/>
      </g>
     </g>
    </g>
    <g id="text_8">
     <!-- Longitude (°) -->
     <g transform="translate(336.139844 699.832643) scale(0.1 -0.1)">
      <defs>
       <path id="DejaVuSans-4c" d="M 628 4666 
L 1259 4666 
L 1259 531 
L 3531 531 
L 3531 0 
L 628 0 
L 628 4666 
z
" transform="scale(0.015625)"/>
       <path id="DejaVuSans-6f" d="M 1959 3097 
Q 1497 3097 1228 2736 
Q 959 2375 959 1747 
Q 959 1119 1226 758 
Q 1494 397 1959 397 
Q 2419 397 2687 759 
Q 2956 1122 2956 1747 
Q 2956 2369 2687 2733 
Q 2419 3097 1959 3097 
z
M 1959 3584 
Q 2709 3584 3137 3096 
Q 3566 2609 3566 1747 
Q 3566 888 3137 398 
Q 2709 -91 1959 -91 
Q 1206 -91 779 398 
Q 353 888 353 1747 
Q 353 2609 779 3096 
Q 1206 3584 1959 3584 
z
" transform="scale(0.015625)"/>
       <path id="DejaVuSans-6e" d="M 3513 2113 
L 3513 0 
L 2938 0 
L 2938 2094 
Q 2938 2591 2744 2837 
Q 2550 3084 2163 3084 
Q 1697 3084 1428 2787 
Q 1159 2491 1159 1978 
L 1159 0 
L 581 0 
L 581 3500 
L 1159 3500 
L 1159 2956 
Q 1366 3272 1645 3428 
Q 1925 3584 2291 3584 
Q 2894 3584 3203 3211 
Q 3513 2838 3513 2113 
z
" transform="scale(0.015625)"/>
       <path id="DejaVuSans-67" d="M 2906 1791 
Q 2906 2416 2648 2759 
Q 2391 3103 1925 3103 
Q 1463 3103 1205 2759 
Q 947 2416 947 1791 
Q 947 1169 1205 825 
Q 1463 481 1925 481 
Q 2391 481 2648 825 
Q 2906 1169 2906 1791 
z
M 3481 434 
Q 3481 -459 3084 -895 
Q 2688 -1331 1869 -1331 
Q 1566 -1331 1297 -1286 
Q 1028 -1241 775 -1147 
L 775 -588 
Q 1028 -725 1275 -790 
Q 1522 -856 1778 -856 
Q 2344 -856 2625 -561 
Q 2906 -266 2906 331 
L 2906 616 
Q 2728 306 2450 153 
Q 2172 0 1784 0 
Q 1141 0 747 490 
Q 353 981 353 1791 
Q 353 2603 747 3093 
Q 1141 3584 1784 3584 
Q 2172 3584 2450 3431 
Q 2728 3278 2906 2969 
L 2906 3500 
L 3481 3500 
L 3481 434 
z
" transform="scale(0.015625)"/>
       <path id="DejaVuSans-69" d="M 603 3500 
L 1178 3500 
L 1178 0 
L 603 0 
L 603 3500 
z
M 603 4863 
L 1178 4863 
L 1178 4134 
L 603 4134 
L 603 4863 
z
" transform="scale(0.015625)"/>
       <path id="DejaVuSans-74" d="M 1172 4494 
L 1172 3500 
L 2356 3500 
L 2356 3053 
L 1172 3053 
L 1172 1153 
Q 1172 725 1289 603 
Q 1406 481 1766 481 
L 2356 481 
L 2356 0 
L 1766 0 
Q 1100 0 847 248 
Q 594 497 594 1153 
L 594 3053 
L 172 3053 
L 172 3500 
L 594 3500 
L 594 4494 
L 1172 4494 
z
" transform="scale(0.015625)"/>
       <path id="DejaVuSans-75" d="M 544 1381 
L 544 3500 
L 1119 3500 
L 1119 1403 
Q 1119 906 1312 657 
Q 1506 409 1894 409 
Q 2359 409 2629 706 
Q 2900 1003 2900 1516 
L 2900 3500 
L 3475 3500 
L 3475 0 
L 2900 0 
L 2900 538 
Q 2691 219 2414 64 
Q 2138 -91 1772 -91 
Q 1169 -91 856 284 
Q 544 659 544 1381 
z
M 1991 3584 
L 1991 3584 
z
" transform="scale(0.015625)"/>
       <path id="DejaVuSans-64" d="M 2906 2969 
L 2906 4863 
L 3481 4863 
L 3481 0 
L 2906 0 
L 2906 525 
Q 2725 213 2448 61 
Q 2172 -91 1784 -91 
Q 1150 -91 751 415 
Q 353 922 353 1747 
Q 353 2572 751 3078 
Q 1150 3584 1784 3584 
Q 2172 3584 2448 3432 
Q 2725 3281 2906 2969 
z
M 947 1747 
Q 947 1113 1208 752 
Q 1469 391 1925 391 
Q 2381 391 2643 752 
Q 2906 1113 2906 1747 
Q 2906 2381 2643 2742 
Q 2381 3103 1925 3103 
Q 1469 3103 1208 2742 
Q 947 2381 947 1747 
z
" transform="scale(0.015625)"/>
       <path id="DejaVuSans-65" d="M 3597 1894 
L 3597 1613 
L 953 1613 
Q 991 1019 1311 708 
Q 1631 397 2203 397 
Q 2534 397 2845 478 
Q 3156 559 3463 722 
L 3463 178 
Q 3153 47 2828 -22 
Q 2503 -91 2169 -91 
Q 1331 -91 842 396 
Q 353 884 353 1716 
Q 353 2575 817 3079 
Q 1281 3584 2069 3584 
Q 2775 3584 3186 3129 
Q 3597 2675 3597 1894 
z
M 3022 2063 
Q 3016 2534 2758 2815 
Q 2500 3097 2075 3097 
Q 1594 3097 1305 2825 
Q 1016 2553 972 2059 
L 3022 2063 
z
" transform="scale(0.015625)"/>
       <path id="DejaVuSans-20" transform="scale(0.015625)"/>
       <path id="DejaVuSans-28" d="M 1984 4856 
Q 1566 4138 1362 3434 
Q 1159 2731 1159 2009 
Q 1159 1288 1364 580 
Q 1569 -128 1984 -844 
L 1484 -844 
Q 1016 -109 783 600 
Q 550 1309 550 2009 
Q 550 2706 781 3412 
Q 1013 4119 1484 4856 
L 1984 4856 
z
" transform="scale(0.015625)"/>
       <path id="DejaVuSans-b0" d="M 1600 4347 
Q 1350 4347 1178 4173 
Q 1006 4000 1006 3750 
Q 1006 3503 1178 3333 
Q 1350 3163 1600 3163 
Q 1850 3163 2022 3333 
Q 2194 3503 2194 3750 
Q 2194 3997 2020 4172 
Q 1847 4347 1600 4347 
z
M 1600 4750 
Q 1800 4750 1984 4673 
Q 2169 4597 2303 4453 
Q 2447 4313 2519 4134 
Q 2591 3956 2591 3750 
Q 2591 3338 2302 3052 
Q 2013 2766 1594 2766 
Q 1172 2766 890 3047 
Q 609 3328 609 3750 
Q 609 4169 896 4459 
Q 1184 4750 1600 4750 
z
" transform="scale(0.015625)"/>
       <path id="DejaVuSans-29" d="M 513 4856 
L 1013 4856 
Q 1481 4119 1714 3412 
Q 1947 2706 1947 2009 
Q 1947 1309 1714 600 
Q 1481 -109 1013 -844 
L 513 -844 
Q 928 -128 1133 580 
Q 1338 1288 1338 2009 
Q 1338 2731 1133 3434 
Q 928 4138 513 4856 
z
" transform="scale(0.015625)"/>
      </defs>
      <use xlink:href="#DejaVuSans-4c"/>
      <use xlink:href="#DejaVuSans-6f" transform="translate(53.962891 0)"/>
      <use xlink:href="#DejaVuSans-6e" transform="translate(115.144531 0)"/>
      <use xlink:href="#DejaVuSans-67" transform="translate(178.523438 0)"/>
      <use xlink:href="#DejaVuSans-69" transform="translate(242 0)"/>
      <use xlink:href="#DejaVuSans-74" transform="translate(269.783203 0)"/>
      <use xlink:href="#DejaVuSans-75" transform="translate(308.992188 0)"/>
      <use xlink:href="#DejaVuSans-64" transform="translate(372.371094 0)"/>
      <use xlink:href="#DejaVuSans-65" transform="translate(435.847656 0)"/>
      <use xlink:href="#DejaVuSans-20" transform="translate(497.371094 0)"/>
      <use xlink:href="#DejaVuSans-28" transform="translate(529.158203 0)"/>
      <use xlink:href="#DejaVuSans-b0" transform="translate(568.171875 0)"/>
      <use xlink:href="#DejaVuSans-29" transform="translate(618.171875 0)"/>
     </g>
    </g>
   </g>
   <g id="matplotlib.axis_2">
    <g id="ytick_1">
     <g id="line2d_15">
      <path d="M 90 628.192153 
L 648 628.192153 
" clip-path="url(#p83c9517878)" style="fill: none; stroke: #b0b0b0; stroke-width: 0.8; stroke-linecap: square"/>
     </g>
     <g id="line2d_16">
      <defs>
       <path id="m74dafa85ee" d="M 0 0 
L -3.5 0 
" style="stroke: #000000; stroke-width: 0.8"/>
      </defs>
      <g>
       <use xlink:href="#m74dafa85ee" x="90" y="628.192153" style="stroke: #000000; stroke-width: 0.8"/>
      </g>
     </g>
     <g id="text_9">
      <!-- −5.4 -->
      <g transform="translate(58.717187 631.991372) scale(0.1 -0.1)">
       <use xlink:href="#DejaVuSans-2212"/>
       <use xlink:href="#DejaVuSans-35" transform="translate(83.789062 0)"/>
       <use xlink:href="#DejaVuSans-2e" transform="translate(147.412109 0)"/>
       <use xlink:href="#DejaVuSans-34" transform="translate(179.199219 0)"/>
      </g>
     </g>
    </g>
    <g id="ytick_2">
     <g id="line2d_17">
      <path d="M 90 570.311211 
L 648 570.311211 
" clip-path="url(#p83c9517878)" style="fill: none; stroke: #b0b0b0; stroke-width: 0.8; stroke-linecap: square"/>
     </g>
     <g id="line2d_18">
      <g>
       <use xlink:href="#m74dafa85ee" x="90" y="570.311211" style="stroke: #000000; stroke-width: 0.8"/>
      </g>
     </g>
     <g id="text_10">
      <!-- −5.2 -->
      <g transform="translate(58.717187 574.11043) scale(0.1 -0.1)">
       <use xlink:href="#DejaVuSans-2212"/>
       <use xlink:href="#DejaVuSans-35" transform="translate(83.789062 0)"/>
       <use xlink:href="#DejaVuSans-2e" transform="translate(147.412109 0)"/>
       <use xlink:href="#DejaVuSans-32" transform="translate(179.199219 0)"/>
      </g>
     </g>
    </g>
    <g id="ytick_3">
     <g id="line2d_19">
      <path d="M 90 512.430269 
L 648 512.430269 
" clip-path="url(#p83c9517878)" style="fill: none; stroke: #b0b0b0; stroke-width: 0.8; stroke-linecap: square"/>
     </g>
     <g id="line2d_20">
      <g>
       <use xlink:href="#m74dafa85ee" x="90" y="512.430269" style="stroke: #000000; stroke-width: 0.8"/>
      </g>
     </g>
     <g id="text_11">
      <!-- −5.0 -->
      <g transform="translate(58.717187 516.229488) scale(0.1 -0.1)">
       <use xlink:href="#DejaVuSans-2212"/>
       <use xlink:href="#DejaVuSans-35" transform="translate(83.789062 0)"/>
       <use xlink:href="#DejaVuSans-2e" transform="translate(147.412109 0)"/>
       <use xlink:href="#DejaVuSans-30" transform="translate(179.199219 0)"/>
      </g>
     </g>
    </g>
    <g id="ytick_4">
     <g id="line2d_21">
      <path d="M 90 454.549327 
L 648 454.549327 
" clip-path="url(#p83c9517878)" style="fill: none; stroke: #b0b0b0; stroke-width: 0.8; stroke-linecap: square"/>
     </g>
     <g id="line2d_22">
      <g>
       <use xlink:href="#m74dafa85ee" x="90" y="454.549327" style="stroke: #000000; stroke-width: 0.8"/>
      </g>
     </g>
     <g id="text_12">
      <!-- −4.8 -->
      <g transform="translate(58.717187 458.348546) scale(0.1 -0.1)">
       <defs>
        <path id="DejaVuSans-38" d="M 2034 2216 
Q 1584 2216 1326 1975 
Q 1069 1734 1069 1313 
Q 1069 891 1326 650 
Q 1584 409 2034 409 
Q 2484 409 2743 651 
Q 3003 894 3003 1313 
Q 3003 1734 2745 1975 
Q 2488 2216 2034 2216 
z
M 1403 2484 
Q 997 2584 770 2862 
Q 544 3141 544 3541 
Q 544 4100 942 4425 
Q 1341 4750 2034 4750 
Q 2731 4750 3128 4425 
Q 3525 4100 3525 3541 
Q 3525 3141 3298 2862 
Q 3072 2584 2669 2484 
Q 3125 2378 3379 2068 
Q 3634 1759 3634 1313 
Q 3634 634 3220 271 
Q 2806 -91 2034 -91 
Q 1263 -91 848 271 
Q 434 634 434 1313 
Q 434 1759 690 2068 
Q 947 2378 1403 2484 
z
M 1172 3481 
Q 1172 3119 1398 2916 
Q 1625 2713 2034 2713 
Q 2441 2713 2670 2916 
Q 2900 3119 2900 3481 
Q 2900 3844 2670 4047 
Q 2441 4250 2034 4250 
Q 1625 4250 1398 4047 
Q 1172 3844 1172 3481 
z
" transform="scale(0.015625)"/>
       </defs>
       <use xlink:href="#DejaVuSans-2212"/>
       <use xlink:href="#DejaVuSans-34" transform="translate(83.789062 0)"/>
       <use xlink:href="#DejaVuSans-2e" transform="translate(147.412109 0)"/>
       <use xlink:href="#DejaVuSans-38" transform="translate(179.199219 0)"/>
      </g>
     </g>
    </g>
    <g id="ytick_5">
     <g id="line2d_23">
      <path d="M 90 396.668385 
L 648 396.668385 
" clip-path="url(#p83c9517878)" style="fill: none; stroke: #b0b0b0; stroke-width: 0.8; stroke-linecap: square"/>
     </g>
     <g id="line2d_24">
      <g>
       <use xlink:href="#m74dafa85ee" x="90" y="396.668385" style="stroke: #000000; stroke-width: 0.8"/>
      </g>
     </g>
     <g id="text_13">
      <!-- −4.6 -->
      <g transform="translate(58.717187 400.467603) scale(0.1 -0.1)">
       <use xlink:href="#DejaVuSans-2212"/>
       <use xlink:href="#DejaVuSans-34" transform="translate(83.789062 0)"/>
       <use xlink:href="#DejaVuSans-2e" transform="translate(147.412109 0)"/>
       <use xlink:href="#DejaVuSans-36" transform="translate(179.199219 0)"/>
      </g>
     </g>
    </g>
    <g id="ytick_6">
     <g id="line2d_25">
      <path d="M 90 338.787443 
L 648 338.787443 
" clip-path="url(#p83c9517878)" style="fill: none; stroke: #b0b0b0; stroke-width: 0.8; stroke-linecap: square"/>
     </g>
     <g id="line2d_26">
      <g>
       <use xlink:href="#m74dafa85ee" x="90" y="338.787443" style="stroke: #000000; stroke-width: 0.8"/>
      </g>
     </g>
     <g id="text_14">
      <!-- −4.4 -->
      <g transform="translate(58.717187 342.586661) scale(0.1 -0.1)">
       <use xlink:href="#DejaVuSans-2212"/>
       <use xlink:href="#DejaVuSans-34" transform="translate(83.789062 0)"/>
       <use xlink:href="#DejaVuSans-2e" transform="translate(147.412109 0)"/>
       <use xlink:href="#DejaVuSans-34" transform="translate(179.199219 0)"/>
      </g>
     </g>
    </g>
    <g id="ytick_7">
     <g id="line2d_27">
      <path d="M 90 280.906501 
L 648 280.906501 
" clip-path="url(#p83c9517878)" style="fill: none; stroke: #b0b0b0; stroke-width: 0.8; stroke-linecap: square"/>
     </g>
     <g id="line2d_28">
      <g>
       <use xlink:href="#m74dafa85ee" x="90" y="280.906501" style="stroke: #000000; stroke-width: 0.8"/>
      </g>
     </g>
     <g id="text_15">
      <!-- −4.2 -->
      <g transform="translate(58.717187 284.705719) scale(0.1 -0.1)">
       <use xlink:href="#DejaVuSans-2212"/>
       <use xlink:href="#DejaVuSans-34" transform="translate(83.789062 0)"/>
       <use xlink:href="#DejaVuSans-2e" transform="translate(147.412109 0)"/>
       <use xlink:href="#DejaVuSans-32" transform="translate(179.199219 0)"/>
      </g>
     </g>
    </g>
    <g id="text_16">
     <!-- Latitude (°) -->
     <g transform="translate(52.6375 464.889531) rotate(-90) scale(0.1 -0.1)">
      <defs>
       <path id="DejaVuSans-61" d="M 2194 1759 
Q 1497 1759 1228 1600 
Q 959 1441 959 1056 
Q 959 750 1161 570 
Q 1363 391 1709 391 
Q 2188 391 2477 730 
Q 2766 1069 2766 1631 
L 2766 1759 
L 2194 1759 
z
M 3341 1997 
L 3341 0 
L 2766 0 
L 2766 531 
Q 2569 213 2275 61 
Q 1981 -91 1556 -91 
Q 1019 -91 701 211 
Q 384 513 384 1019 
Q 384 1609 779 1909 
Q 1175 2209 1959 2209 
L 2766 2209 
L 2766 2266 
Q 2766 2663 2505 2880 
Q 2244 3097 1772 3097 
Q 1472 3097 1187 3025 
Q 903 2953 641 2809 
L 641 3341 
Q 956 3463 1253 3523 
Q 1550 3584 1831 3584 
Q 2591 3584 2966 3190 
Q 3341 2797 3341 1997 
z
" transform="scale(0.015625)"/>
      </defs>
      <use xlink:href="#DejaVuSans-4c"/>
      <use xlink:href="#DejaVuSans-61" transform="translate(55.712891 0)"/>
      <use xlink:href="#DejaVuSans-74" transform="translate(116.992188 0)"/>
      <use xlink:href="#DejaVuSans-69" transform="translate(156.201172 0)"/>
      <use xlink:href="#DejaVuSans-74" transform="translate(183.984375 0)"/>
      <use xlink:href="#DejaVuSans-75" transform="translate(223.193359 0)"/>
      <use xlink:href="#DejaVuSans-64" transform="translate(286.572266 0)"/>
      <use xlink:href="#DejaVuSans-65" transform="translate(350.048828 0)"/>
      <use xlink:href="#DejaVuSans-20" transform="translate(411.572266 0)"/>
      <use xlink:href="#DejaVuSans-28" transform="translate(443.359375 0)"/>
      <use xlink:href="#DejaVuSans-b0" transform="translate(482.373047 0)"/>
      <use xlink:href="#DejaVuSans-29" transform="translate(532.373047 0)"/>
     </g>
    </g>
   </g>
   <g id="patch_3">
    <path d="M 90 648.222263 
L 90 224.417737 
" style="fill: none; stroke: #000000; stroke-width: 0.8; stroke-linejoin: miter; stroke-linecap: square"/>
   </g>
   <g id="patch_4">
    <path d="M 648 648.222263 
L 648 224.417737 
" style="fill: none; stroke: #000000; stroke-width: 0.8; stroke-linejoin: miter; stroke-linecap: square"/>
   </g>
   <g id="patch_5">
    <path d="M 90 648.222263 
L 648 648.222263 
" style="fill: none; stroke: #000000; stroke-width: 0.8; stroke-linejoin: miter; stroke-linecap: square"/>
   </g>
   <g id="patch_6">
    <path d="M 90 224.417737 
L 648 224.417737 
" style="fill: none; stroke: #000000; stroke-width: 0.8; stroke-linejoin: miter; stroke-linecap: square"/>
   </g>
  </g>
 </g>
 <defs>
  <clipPath id="p83c9517878">
   <rect x="90" y="224.417737" width="558" height="423.804525"/>
  </clipPath>
 </defs>
</svg>
