<?xml version="1.0" encoding="utf-8" standalone="no"?>
<!DOCTYPE svg PUBLIC "-//W3C//DTD SVG 1.1//EN"
  "http://www.w3.org/Graphics/SVG/1.1/DTD/svg11.dtd">
<svg xmlns:xlink="http://www.w3.org/1999/xlink" width="720pt" height="864pt" viewBox="0 0 720 864" xmlns="http://www.w3.org/2000/svg" version="1.1">
 <metadata>
  <rdf:RDF xmlns:dc="http://purl.org/dc/elements/1.1/" xmlns:cc="http://creativecommons.org/ns#" xmlns:rdf="http://www.w3.org/1999/02/22-rdf-syntax-ns#">
   <cc:Work>
    <dc:type rdf:resource="http://purl.org/dc/dcmitype/StillImage"/>
    <dc:date>2025-06-16T16:52:49.419261</dc:date>
    <dc:format>image/svg+xml</dc:format>
    <dc:creator>
     <cc:Agent>
      <dc:title>Matplotlib v3.10.1, https://matplotlib.org/</dc:title>
     </cc:Agent>
    </dc:creator>
   </cc:Work>
  </rdf:RDF>
 </metadata>
 <defs>
  <style type="text/css">*{stroke-linejoin: round; stroke-linecap: butt}</style>
 </defs>
 <g id="figure_1">
  <g id="patch_1">
   <path d="M 0 864 
L 720 864 
L 720 0 
L 0 0 
z
" style="fill: #ffffff"/>
  </g>
  <g id="axes_1">
   <g id="patch_2">
    <path d="M 112.148265 768.96 
L 625.851735 768.96 
L 625.851735 103.68 
L 112.148265 103.68 
z
" style="fill: #ffffff"/>
   </g>
   <g id="PatchCollection_1">
    <path d="M 148.599519 287.333204 
L 151.592486 286.131777 
L 154.00466 286.365736 
L 154.505172 285.373525 
L 155.034939 284.540265 
L 155.797523 283.636416 
L 155.076568 282.61322 
L 154.266175 282.137466 
L 154.20698 281.838021 
L 155.033036 281.775507 
L 155.888909 281.051544 
L 156.824156 280.8698 
L 157.844581 281.390264 
L 158.808241 280.594041 
L 159.414255 279.610221 
L 159.89155 278.870007 
L 159.503548 278.443613 
L 159.387531 277.879354 
L 159.050974 277.200524 
L 157.970322 276.963676 
L 157.435723 276.657999 
L 157.119729 276.358996 
L 157.201433 276.188384 
L 157.426168 276.074696 
L 158.11774 275.947353 
L 158.455691 275.253407 
L 158.327982 274.240102 
L 158.152055 273.558786 
L 157.866098 271.776366 
L 157.781704 271.011839 
L 157.605637 270.304442 
L 157.612694 269.442077 
L 157.269992 268.629531 
L 157.092092 268.32828 
L 156.859895 267.571991 
L 156.641559 266.799536 
L 156.492185 266.005933 
L 156.400166 265.218046 
L 156.462994 264.43867 
L 156.656365 263.698599 
L 156.735034 263.064546 
L 156.812263 262.747387 
L 157.020961 262.546122 
L 157.318161 262.337239 
L 157.679868 262.142062 
L 158.064258 261.885365 
L 158.758532 261.559635 
L 159.153207 260.818693 
L 158.736684 260.503415 
L 157.8948 260.180079 
L 208.812399 256.220357 
L 277.693348 250.813541 
L 295.605169 249.776137 
L 316.341714 248.001568 
L 324.008297 247.72266 
L 324.632928 247.745766 
L 328.747068 247.377059 
L 328.977168 253.157163 
L 328.938706 254.289449 
L 328.930807 261.292861 
L 328.876228 275.740194 
L 311.54138 276.623829 
L 293.932326 277.853808 
L 258.526777 279.999491 
L 240.271119 281.210826 
L 165.169119 286.214788 
L 148.599519 287.333204 
" clip-path="url(#pbbd962a690)" style="fill: #e0bd1f; stroke: #0000ff; stroke-width: 0.5"/>
    <path d="M 394.870778 148.289342 
L 418.472736 152.629288 
L 418.01225 133.92 
L 433.395433 134.904939 
L 437.20645 149.258383 
L 469.987213 151.86387 
L 494.640348 213.997562 
L 497.999231 215.987629 
L 502.982087 217.180404 
L 515.851178 212.66455 
L 512.083054 252.648154 
L 458.95488 261.343928 
L 447.314937 263.415501 
L 436.402735 259.307213 
L 418.947886 251.950156 
L 393.942362 240.572323 
L 382.814467 235.217228 
L 361.372246 224.727471 
L 361.454525 219.175991 
L 381.443937 204.884633 
L 379.480996 194.136943 
L 395.691846 193.834652 
L 394.214189 169.774636 
L 394.870778 148.289342 
" clip-path="url(#pbbd962a690)" style="fill: #e0bd1f; stroke: #0000ff; stroke-width: 0.5"/>
    <path d="M 175.054875 329.107266 
L 212.538613 325.896859 
L 233.495608 324.331938 
L 229.744857 334.391454 
L 224.683966 337.493438 
L 201.028255 339.453615 
L 178.33068 341.335173 
L 153.295747 343.393957 
L 144.170998 344.13772 
L 143.476187 344.197678 
L 140.62721 344.429125 
L 138.582068 344.596673 
L 139.323814 344.100575 
L 140.199715 343.65566 
L 140.594054 343.449206 
L 140.883969 342.651598 
L 140.394854 342.018129 
L 140.110706 342.066904 
L 140.438224 341.383032 
L 140.049427 340.799815 
L 139.364157 340.354468 
L 138.302206 339.714631 
L 137.195634 339.209385 
L 136.025314 338.346566 
L 135.691441 337.908108 
L 135.498422 337.740077 
L 135.654506 337.688224 
L 136.210127 336.985303 
L 136.268481 335.886088 
L 136.721988 335.368885 
L 137.0437 334.69473 
L 136.848264 334.057434 
L 137.610617 333.916376 
L 137.778803 333.370763 
L 137.538646 332.745422 
L 137.578994 332.39259 
L 138.081107 332.104289 
L 138.39688 332.10235 
L 144.404417 331.609914 
L 145.667907 331.504285 
L 150.688287 331.102247 
L 175.054875 329.107266 
" clip-path="url(#pbbd962a690)" style="fill: #e0bd1f; stroke: #0000ff; stroke-width: 0.5"/>
    <path d="M 168.336262 311.753759 
L 193.812324 309.657374 
L 228.596777 306.794134 
L 237.832731 306.000181 
L 239.110317 307.596987 
L 236.819135 315.711905 
L 233.495608 324.331938 
L 212.538613 325.896859 
L 175.054875 329.107266 
L 150.688287 331.102247 
L 145.667907 331.504285 
L 144.404417 331.609914 
L 138.39688 332.10235 
L 138.081107 332.104289 
L 138.281962 331.775196 
L 137.920167 330.954505 
L 137.384542 330.730169 
L 137.595882 329.900428 
L 137.837897 329.342746 
L 138.390727 329.204882 
L 138.729678 329.166452 
L 138.796393 328.979634 
L 138.102934 328.290508 
L 138.225332 327.752192 
L 138.658309 327.611232 
L 139.071529 326.821297 
L 138.799416 326.595998 
L 138.780193 326.385392 
L 139.424653 326.060887 
L 139.751908 325.862469 
L 139.796043 325.408474 
L 139.187138 324.856771 
L 139.034381 324.476422 
L 139.54849 324.226567 
L 139.604898 323.574331 
L 138.89683 323.461582 
L 137.758288 322.605391 
L 138.061663 322.115266 
L 138.437114 322.495012 
L 138.817777 322.664297 
L 139.258716 321.817131 
L 139.115795 321.082811 
L 139.510205 320.411319 
L 139.601554 320.096578 
L 139.489755 319.944844 
L 139.129925 319.700006 
L 139.332707 319.184551 
L 140.066241 318.890165 
L 140.15813 318.600729 
L 139.949454 318.334154 
L 139.432399 317.881078 
L 139.2544 317.520754 
L 139.68879 317.140058 
L 140.436804 316.499916 
L 141.294398 315.828616 
L 141.797997 315.314662 
L 142.216369 314.514028 
L 142.132507 313.976157 
L 144.497739 313.696595 
L 145.233273 313.633423 
L 146.033557 313.565856 
L 168.336262 311.753759 
" clip-path="url(#pbbd962a690)" style="fill: #e0bd1f; stroke: #0000ff; stroke-width: 0.5"/>
    <path d="M 402.206703 645.59036 
L 403.067838 647.79197 
L 403.143982 647.988006 
L 407.426172 658.934495 
L 412.700696 671.855557 
L 416.36124 683.780112 
L 420.123839 695.622374 
L 423.694514 706.812105 
L 428.894577 724.202697 
L 403.70531 729.543398 
L 399.995872 716.293804 
L 396.243964 702.720717 
L 392.730374 690.013821 
L 389.168864 678.156499 
L 384.672305 665.482489 
L 381.971465 658.140261 
L 381.948151 656.960447 
L 383.094634 655.896714 
L 384.013889 655.51926 
L 385.298472 655.330135 
L 386.993884 654.533523 
L 387.555076 653.285455 
L 388.356858 653.000427 
L 389.211819 651.300114 
L 389.5562 650.263294 
L 389.277495 648.873686 
L 389.485306 648.26363 
L 389.328443 647.749454 
L 389.694615 646.475844 
L 391.29372 644.788408 
L 391.972542 643.291537 
L 393.47757 643.027847 
L 394.459446 642.422159 
L 395.456392 642.406393 
L 395.724368 641.692178 
L 396.165728 642.04845 
L 397.247549 642.243571 
L 398.834696 642.56188 
L 399.698963 642.99103 
L 400.539796 644.987533 
L 402.206703 645.59036 
" clip-path="url(#pbbd962a690)" style="fill: #e0bd1f; stroke: #0000ff; stroke-width: 0.5"/>
    <path d="M 411.592012 489.738967 
L 416.246162 489.943443 
L 460.746311 523.990612 
L 461.004243 524.421622 
L 459.470135 526.475079 
L 460.423772 526.933441 
L 459.568741 527.476131 
L 456.295677 527.869184 
L 455.623641 528.953271 
L 454.223092 527.829508 
L 451.89449 527.218976 
L 450.025841 527.593539 
L 449.246969 527.373901 
L 448.641673 527.371581 
L 447.846297 528.169734 
L 449.658413 529.937463 
L 449.003709 530.04223 
L 447.087878 530.534318 
L 446.151308 531.744543 
L 444.228308 531.6798 
L 443.941124 531.454963 
L 405.341296 496.649814 
L 409.314929 492.416462 
L 411.592012 489.738967 
" clip-path="url(#pbbd962a690)" style="fill: #e0bd1f; stroke: #0000ff; stroke-width: 0.5"/>
    <path d="M 492.385958 463.193146 
L 493.654277 463.287094 
L 494.061609 463.371655 
L 498.413928 463.824958 
L 498.473129 465.546318 
L 505.443811 465.36055 
L 506.762028 465.772163 
L 520.887618 495.252311 
L 517.255493 500.755515 
L 516.834627 501.397703 
L 515.185023 500.26405 
L 515.007365 499.010608 
L 514.666301 499.359719 
L 514.214788 498.963784 
L 514.216733 498.446936 
L 511.350673 498.436005 
L 510.50791 499.098972 
L 509.574392 499.952956 
L 508.685899 500.287385 
L 508.519724 500.953731 
L 508.515189 502.157743 
L 509.383095 502.677295 
L 508.503156 505.170422 
L 508.281678 504.511259 
L 507.740116 504.21468 
L 506.507985 504.305257 
L 506.298086 505.144676 
L 505.584348 505.444163 
L 504.602669 505.632222 
L 503.813436 505.368893 
L 503.51778 504.285407 
L 502.811222 503.917089 
L 502.068248 504.280465 
L 501.041432 504.40971 
L 500.397852 504.753491 
L 500.276532 505.318998 
L 499.223139 506.31441 
L 498.640214 506.389974 
L 498.637547 507.096631 
L 498.345923 507.433589 
L 497.752159 507.275757 
L 497.616253 506.612059 
L 497.144031 506.610252 
L 496.70728 506.497308 
L 495.715208 506.868895 
L 494.594574 507.066735 
L 493.436535 507.062303 
L 492.190261 505.670219 
L 491.44785 505.206948 
L 490.544994 505.598417 
L 490.317248 506.921135 
L 490.314093 507.756003 
L 490.453684 508.326699 
L 489.607387 509.272217 
L 489.28027 510.11786 
L 489.276761 511.046175 
L 489.463919 511.547448 
L 489.2637 511.866875 
L 488.721675 512.056916 
L 486.551977 514.477276 
L 485.171688 513.484273 
L 482.587039 515.159785 
L 481.593287 516.046856 
L 481.731507 517.275736 
L 479.891996 518.929649 
L 476.370142 519.940801 
L 474.57708 519.096165 
L 474.736115 517.98052 
L 474.230996 516.716932 
L 473.672313 514.86279 
L 472.20712 515.538586 
L 472.204469 516.237604 
L 469.588441 516.402421 
L 468.161528 517.82665 
L 469.002218 518.585688 
L 467.408851 519.885538 
L 465.135229 519.535 
L 465.032855 519.420762 
L 426.573207 490.219849 
L 434.724305 490.413902 
L 444.768044 497.591923 
L 449.862109 496.969588 
L 460.941637 488.246738 
L 466.512525 484.509422 
L 468.90152 478.728702 
L 476.038067 471.107747 
L 477.252679 466.490737 
L 482.865291 463.714353 
L 488.489655 465.180713 
L 492.385958 463.193146 
" clip-path="url(#pbbd962a690)" style="fill: #e0bd1f; stroke: #0000ff; stroke-width: 0.5"/>
    <path d="M 403.70531 729.543375 
L 361.104645 738.719445 
L 366.473823 703.738112 
L 364.185104 661.974644 
L 365.060645 662.385253 
L 368.09756 661.102572 
L 370.928054 660.354677 
L 372.615462 660.277766 
L 374.379572 660.508498 
L 375.87523 659.739392 
L 377.447588 658.393458 
L 379.480148 658.201181 
L 380.400553 658.624189 
L 381.970586 658.140302 
L 384.672279 665.482475 
L 389.168858 678.156517 
L 392.730343 690.013807 
L 396.243951 702.720694 
L 399.995859 716.293769 
L 403.70531 729.543375 
" clip-path="url(#pbbd962a690)" style="fill: #e0bd1f; stroke: #0000ff; stroke-width: 0.5"/>
   </g>
   <g id="PatchCollection_2">
    <path d="M 417.962583 133.928583 
L 433.379544 134.915279 
L 443.087859 135.083922 
L 571.037815 137.552928 
L 573.193483 137.067498 
L 573.603089 139.325105 
L 572.9785 142.021321 
L 578.236844 145.867419 
L 579.411389 149.12259 
L 578.967898 150.249362 
L 579.806078 155.450018 
L 581.074883 156.782153 
L 580.106507 157.26495 
L 580.231283 159.300204 
L 581.261375 159.879575 
L 580.556785 160.473879 
L 579.229657 162.879737 
L 576.740874 164.662723 
L 577.090105 165.349513 
L 571.562532 168.956929 
L 567.811731 167.439161 
L 566.490023 168.407497 
L 566.461533 170.265269 
L 564.100919 172.954681 
L 564.40335 174.43776 
L 568.040923 177.017011 
L 568.88794 179.652027 
L 569.7207 180.14163 
L 568.940843 183.302284 
L 569.038496 186.554077 
L 570.006188 186.314025 
L 571.45133 187.557762 
L 572.472609 190.835358 
L 571.28178 191.91454 
L 571.541513 193.109978 
L 572.899841 194.044311 
L 572.655709 194.77328 
L 571.623566 194.659031 
L 570.938652 195.696034 
L 571.390981 198.241282 
L 567.323466 199.176961 
L 563.285785 197.990361 
L 562.248222 199.335421 
L 562.836166 200.753212 
L 562.123446 203.360346 
L 562.501168 208.294463 
L 562.02511 212.362252 
L 561.094013 214.703483 
L 559.530199 215.82619 
L 559.175548 216.665296 
L 559.435256 217.728149 
L 556.974279 217.785261 
L 555.800417 220.456998 
L 554.260332 221.137007 
L 553.749022 222.771741 
L 555.722417 223.84069 
L 555.607821 225.12318 
L 554.508542 225.362547 
L 553.733421 227.040806 
L 554.012807 228.72313 
L 553.588285 230.645505 
L 554.170834 233.655875 
L 553.633059 236.418727 
L 554.152524 238.543749 
L 553.92465 240.865273 
L 554.729604 243.080039 
L 557.550016 246.78469 
L 557.012925 249.459144 
L 558.559113 253.180809 
L 559.958798 254.888984 
L 560.925147 254.914835 
L 563.530577 257.423362 
L 564.687496 259.462679 
L 564.416924 261.342215 
L 563.557041 262.245262 
L 564.124648 263.110219 
L 562.975175 265.052325 
L 563.852026 265.5868 
L 563.735379 267.488098 
L 559.128747 271.563354 
L 560.24226 273.536036 
L 560.544715 274.974929 
L 558.997868 277.401864 
L 557.880962 276.402267 
L 556.864419 277.947232 
L 557.890459 279.875043 
L 560.21582 280.680169 
L 560.189356 282.051057 
L 561.696215 284.446021 
L 562.452341 288.009912 
L 565.812555 288.243158 
L 567.697111 289.488927 
L 568.678401 291.505135 
L 576.362468 293.037861 
L 576.314301 294.210189 
L 575.067883 298.628853 
L 577.041278 299.697826 
L 575.969806 304.250445 
L 576.397037 307.591982 
L 575.467992 309.402141 
L 575.877573 311.482952 
L 573.797027 315.655467 
L 572.065738 320.537196 
L 565.978004 327.017649 
L 565.042855 330.287778 
L 567.712711 333.261428 
L 568.161646 336.647177 
L 567.09491 339.872434 
L 568.078226 341.380679 
L 568.304732 345.472948 
L 571.541513 349.444849 
L 571.836522 352.918286 
L 572.688935 354.11578 
L 573.31013 358.541934 
L 575.723647 359.369485 
L 576.329901 361.693751 
L 574.93632 364.365487 
L 575.280132 366.445613 
L 573.078888 367.631528 
L 571.885349 369.441026 
L 571.899582 371.630626 
L 570.400877 372.819969 
L 569.758687 374.1888 
L 567.686931 375.994895 
L 566.582915 377.428353 
L 566.286563 380.346923 
L 565.131695 383.837373 
L 565.564346 385.563907 
L 563.509557 388.719127 
L 563.346818 391.129734 
L 565.313427 394.078904 
L 566.861641 397.136888 
L 570.472091 401.131898 
L 571.105468 402.129463 
L 569.628467 403.473153 
L 570.567693 405.13577 
L 568.960496 405.903491 
L 566.938958 405.962659 
L 568.140626 407.780994 
L 567.406862 410.255519 
L 568.8303 411.410834 
L 571.578816 410.889971 
L 573.199587 412.267639 
L 573.718368 414.614328 
L 573.268749 417.311231 
L 573.921804 418.884079 
L 573.037507 420.340646 
L 573.802447 421.559904 
L 571.902292 424.339745 
L 570.425291 425.6168 
L 570.502607 428.514977 
L 568.826223 430.344182 
L 566.690748 431.486596 
L 566.636502 434.317453 
L 566.384899 436.992568 
L 567.702531 437.019766 
L 566.2642 439.934272 
L 570.558221 443.090837 
L 575.218415 448.483271 
L 575.865366 451.847942 
L 574.682691 456.687517 
L 573.20027 459.468728 
L 573.478313 461.548854 
L 571.035622 462.513102 
L 568.530555 462.569553 
L 566.186884 466.542139 
L 565.073371 470.497026 
L 565.859331 471.849553 
L 568.375262 474.889177 
L 566.823654 478.400044 
L 565.525016 479.081399 
L 565.472113 487.375389 
L 566.98234 488.995851 
L 567.457056 491.275906 
L 567.427882 493.177865 
L 566.632425 494.302604 
L 566.867744 496.095088 
L 568.620737 497.406807 
L 569.229042 499.178899 
L 568.126369 500.236318 
L 568.540051 501.365782 
L 569.52742 501.679275 
L 568.862843 503.136528 
L 569.926186 506.745976 
L 569.216835 508.291627 
L 569.62915 509.73052 
L 568.964573 511.187773 
L 570.008923 514.000931 
L 571.037648 514.933893 
L 569.91127 516.49996 
L 570.916949 517.83141 
L 571.192965 520.46437 
L 570.637564 522.165054 
L 568.942186 523.065384 
L 568.270822 526.381095 
L 566.747705 528.255171 
L 564.654269 529.729413 
L 563.801173 534.702967 
L 563.269501 535.850816 
L 563.924582 536.848381 
L 564.115152 538.795898 
L 565.367014 538.955019 
L 565.692515 540.062745 
L 564.938415 541.895376 
L 566.40797 542.631126 
L 567.164097 546.106619 
L 566.056004 548.645771 
L 566.689381 549.554914 
L 566.926068 550.993807 
L 567.886314 552.612213 
L 569.987219 554.854201 
L 569.520658 556.24548 
L 568.527845 557.30356 
L 570.693153 560.07662 
L 570.640933 562.288669 
L 570.174371 563.679948 
L 570.737243 565.894053 
L 571.654082 567.445824 
L 573.10125 568.335946 
L 572.870692 571.166118 
L 573.790924 571.833202 
L 574.575541 573.561768 
L 574.760667 576.90262 
L 574.599955 578.71552 
L 576.944993 580.405335 
L 576.096633 583.852945 
L 581.325118 584.248715 
L 583.358204 587.043513 
L 583.722377 589.477939 
L 585.079338 590.898472 
L 585.663913 593.245162 
L 586.670959 594.244759 
L 588.142516 594.449437 
L 589.723273 600.604158 
L 591.030065 603.617245 
L 590.234608 604.897017 
L 591.373217 605.963249 
L 589.477798 607.349118 
L 590.592653 609.034844 
L 590.43465 610.029692 
L 591.112801 610.961284 
L 591.213848 613.305941 
L 591.638369 617.222762 
L 591.42678 620.96007 
L 592.586409 622.136462 
L 592.182907 624.258081 
L 593.451736 625.745249 
L 595.820479 627.037261 
L 597.037748 630.469914 
L 597.402604 632.771731 
L 596.297905 634.471044 
L 598.200111 636.999988 
L 596.960456 639.405846 
L 598.296397 640.538713 
L 598.819255 641.668887 
L 598.242151 643.326045 
L 597.112355 645.665953 
L 598.625976 646.468363 
L 598.021748 649.208766 
L 596.763099 650.929181 
L 597.59249 652.458503 
L 597.409391 654.338039 
L 598.986755 655.582437 
L 599.012511 660.338387 
L 601.988216 663.84448 
L 602.501578 667.562057 
L 601.057803 671.604681 
L 601.405692 672.490739 
L 599.308863 673.170063 
L 592.476549 674.6681 
L 580.596798 678.272113 
L 571.843285 680.140779 
L 543.831143 684.655306 
L 535.077629 686.789166 
L 477.684154 703.464221 
L 451.58435 707.895785 
L 455.73726 718.682252 
L 428.895901 724.201154 
L 403.704868 729.544059 
L 361.10506 738.72 
L 366.476926 703.753805 
L 364.193858 661.972378 
L 359.50834 655.087671 
L 319.209542 634.946273 
L 309.041548 607.290428 
L 290.772314 532.473244 
L 290.971697 531.965281 
L 283.419168 502.366089 
L 269.738941 506.293093 
L 273.89902 496.379159 
L 280.966804 493.230891 
L 278.807117 485.097391 
L 271.58421 484.198192 
L 271.792086 459.620448 
L 269.910412 449.194142 
L 261.012769 439.440728 
L 251.531853 428.804165 
L 227.311278 435.419246 
L 222.363919 425.94923 
L 214.683033 416.417706 
L 207.826306 405.908265 
L 199.723137 393.712387 
L 215.839952 390.016573 
L 207.450611 378.06278 
L 200.732893 365.696252 
L 228.401906 363.340039 
L 217.319663 348.377907 
L 214.327674 343.721934 
L 224.676861 337.503981 
L 230.820843 333.569486 
L 233.492067 324.357467 
L 236.798718 315.722787 
L 239.108705 307.598255 
L 236.305069 304.15585 
L 248.987687 304.88896 
L 261.144526 306.669135 
L 276.690115 308.299591 
L 294.932455 292.120749 
L 293.932442 277.85582 
L 295.560811 249.653525 
L 295.55395 232.011921 
L 295.377791 226.368471 
L 294.103406 216.388221 
L 317.14532 212.596546 
L 317.509855 212.159143 
L 332.980227 215.949804 
L 340.378559 217.388549 
L 340.682681 216.190534 
L 337.893231 201.330307 
L 381.432222 204.89853 
L 379.47306 194.142231 
L 395.832665 189.847315 
L 394.193584 169.780416 
L 394.866291 148.307255 
L 418.464397 152.642294 
L 417.962583 133.928583 
L 417.962583 133.928583 
" clip-path="url(#pbbd962a690)" style="fill: none; stroke: #000000"/>
   </g>
   <g id="matplotlib.axis_1">
    <g id="xtick_1">
     <g id="line2d_1">
      <path d="M 130.642482 768.96 
L 130.642482 103.68 
" clip-path="url(#pbbd962a690)" style="fill: none; stroke: #b0b0b0; stroke-width: 0.8; stroke-linecap: square"/>
     </g>
     <g id="line2d_2">
      <defs>
       <path id="m613f433cfa" d="M 0 0 
L 0 3.5 
" style="stroke: #000000; stroke-width: 0.8"/>
      </defs>
      <g>
       <use xlink:href="#m613f433cfa" x="130.642482" y="768.96" style="stroke: #000000; stroke-width: 0.8"/>
      </g>
     </g>
     <g id="text_1">
      <!-- −48.075 -->
      <g transform="translate(117.259934 812.000349) rotate(-45) scale(0.1 -0.1)">
       <defs>
        <path id="DejaVuSans-2212" d="M 678 2272 
L 4684 2272 
L 4684 1741 
L 678 1741 
L 678 2272 
z
" transform="scale(0.015625)"/>
        <path id="DejaVuSans-34" d="M 2419 4116 
L 825 1625 
L 2419 1625 
L 2419 4116 
z
M 2253 4666 
L 3047 4666 
L 3047 1625 
L 3713 1625 
L 3713 1100 
L 3047 1100 
L 3047 0 
L 2419 0 
L 2419 1100 
L 313 1100 
L 313 1709 
L 2253 4666 
z
" transform="scale(0.015625)"/>
        <path id="DejaVuSans-38" d="M 2034 2216 
Q 1584 2216 1326 1975 
Q 1069 1734 1069 1313 
Q 1069 891 1326 650 
Q 1584 409 2034 409 
Q 2484 409 2743 651 
Q 3003 894 3003 1313 
Q 3003 1734 2745 1975 
Q 2488 2216 2034 2216 
z
M 1403 2484 
Q 997 2584 770 2862 
Q 544 3141 544 3541 
Q 544 4100 942 4425 
Q 1341 4750 2034 4750 
Q 2731 4750 3128 4425 
Q 3525 4100 3525 3541 
Q 3525 3141 3298 2862 
Q 3072 2584 2669 2484 
Q 3125 2378 3379 2068 
Q 3634 1759 3634 1313 
Q 3634 634 3220 271 
Q 2806 -91 2034 -91 
Q 1263 -91 848 271 
Q 434 634 434 1313 
Q 434 1759 690 2068 
Q 947 2378 1403 2484 
z
M 1172 3481 
Q 1172 3119 1398 2916 
Q 1625 2713 2034 2713 
Q 2441 2713 2670 2916 
Q 2900 3119 2900 3481 
Q 2900 3844 2670 4047 
Q 2441 4250 2034 4250 
Q 1625 4250 1398 4047 
Q 1172 3844 1172 3481 
z
" transform="scale(0.015625)"/>
        <path id="DejaVuSans-2e" d="M 684 794 
L 1344 794 
L 1344 0 
L 684 0 
L 684 794 
z
" transform="scale(0.015625)"/>
        <path id="DejaVuSans-30" d="M 2034 4250 
Q 1547 4250 1301 3770 
Q 1056 3291 1056 2328 
Q 1056 1369 1301 889 
Q 1547 409 2034 409 
Q 2525 409 2770 889 
Q 3016 1369 3016 2328 
Q 3016 3291 2770 3770 
Q 2525 4250 2034 4250 
z
M 2034 4750 
Q 2819 4750 3233 4129 
Q 3647 3509 3647 2328 
Q 3647 1150 3233 529 
Q 2819 -91 2034 -91 
Q 1250 -91 836 529 
Q 422 1150 422 2328 
Q 422 3509 836 4129 
Q 1250 4750 2034 4750 
z
" transform="scale(0.015625)"/>
        <path id="DejaVuSans-37" d="M 525 4666 
L 3525 4666 
L 3525 4397 
L 1831 0 
L 1172 0 
L 2766 4134 
L 525 4134 
L 525 4666 
z
" transform="scale(0.015625)"/>
        <path id="DejaVuSans-35" d="M 691 4666 
L 3169 4666 
L 3169 4134 
L 1269 4134 
L 1269 2991 
Q 1406 3038 1543 3061 
Q 1681 3084 1819 3084 
Q 2600 3084 3056 2656 
Q 3513 2228 3513 1497 
Q 3513 744 3044 326 
Q 2575 -91 1722 -91 
Q 1428 -91 1123 -41 
Q 819 9 494 109 
L 494 744 
Q 775 591 1075 516 
Q 1375 441 1709 441 
Q 2250 441 2565 725 
Q 2881 1009 2881 1497 
Q 2881 1984 2565 2268 
Q 2250 2553 1709 2553 
Q 1456 2553 1204 2497 
Q 953 2441 691 2322 
L 691 4666 
z
" transform="scale(0.015625)"/>
       </defs>
       <use xlink:href="#DejaVuSans-2212"/>
       <use xlink:href="#DejaVuSans-34" transform="translate(83.789062 0)"/>
       <use xlink:href="#DejaVuSans-38" transform="translate(147.412109 0)"/>
       <use xlink:href="#DejaVuSans-2e" transform="translate(211.035156 0)"/>
       <use xlink:href="#DejaVuSans-30" transform="translate(242.822266 0)"/>
       <use xlink:href="#DejaVuSans-37" transform="translate(306.445312 0)"/>
       <use xlink:href="#DejaVuSans-35" transform="translate(370.068359 0)"/>
      </g>
     </g>
    </g>
    <g id="xtick_2">
     <g id="line2d_3">
      <path d="M 191.675581 768.96 
L 191.675581 103.68 
" clip-path="url(#pbbd962a690)" style="fill: none; stroke: #b0b0b0; stroke-width: 0.8; stroke-linecap: square"/>
     </g>
     <g id="line2d_4">
      <g>
       <use xlink:href="#m613f433cfa" x="191.675581" y="768.96" style="stroke: #000000; stroke-width: 0.8"/>
      </g>
     </g>
     <g id="text_2">
      <!-- −48.050 -->
      <g transform="translate(178.293033 812.000349) rotate(-45) scale(0.1 -0.1)">
       <use xlink:href="#DejaVuSans-2212"/>
       <use xlink:href="#DejaVuSans-34" transform="translate(83.789062 0)"/>
       <use xlink:href="#DejaVuSans-38" transform="translate(147.412109 0)"/>
       <use xlink:href="#DejaVuSans-2e" transform="translate(211.035156 0)"/>
       <use xlink:href="#DejaVuSans-30" transform="translate(242.822266 0)"/>
       <use xlink:href="#DejaVuSans-35" transform="translate(306.445312 0)"/>
       <use xlink:href="#DejaVuSans-30" transform="translate(370.068359 0)"/>
      </g>
     </g>
    </g>
    <g id="xtick_3">
     <g id="line2d_5">
      <path d="M 252.70868 768.96 
L 252.70868 103.68 
" clip-path="url(#pbbd962a690)" style="fill: none; stroke: #b0b0b0; stroke-width: 0.8; stroke-linecap: square"/>
     </g>
     <g id="line2d_6">
      <g>
       <use xlink:href="#m613f433cfa" x="252.70868" y="768.96" style="stroke: #000000; stroke-width: 0.8"/>
      </g>
     </g>
     <g id="text_3">
      <!-- −48.025 -->
      <g transform="translate(239.326132 812.000349) rotate(-45) scale(0.1 -0.1)">
       <defs>
        <path id="DejaVuSans-32" d="M 1228 531 
L 3431 531 
L 3431 0 
L 469 0 
L 469 531 
Q 828 903 1448 1529 
Q 2069 2156 2228 2338 
Q 2531 2678 2651 2914 
Q 2772 3150 2772 3378 
Q 2772 3750 2511 3984 
Q 2250 4219 1831 4219 
Q 1534 4219 1204 4116 
Q 875 4013 500 3803 
L 500 4441 
Q 881 4594 1212 4672 
Q 1544 4750 1819 4750 
Q 2544 4750 2975 4387 
Q 3406 4025 3406 3419 
Q 3406 3131 3298 2873 
Q 3191 2616 2906 2266 
Q 2828 2175 2409 1742 
Q 1991 1309 1228 531 
z
" transform="scale(0.015625)"/>
       </defs>
       <use xlink:href="#DejaVuSans-2212"/>
       <use xlink:href="#DejaVuSans-34" transform="translate(83.789062 0)"/>
       <use xlink:href="#DejaVuSans-38" transform="translate(147.412109 0)"/>
       <use xlink:href="#DejaVuSans-2e" transform="translate(211.035156 0)"/>
       <use xlink:href="#DejaVuSans-30" transform="translate(242.822266 0)"/>
       <use xlink:href="#DejaVuSans-32" transform="translate(306.445312 0)"/>
       <use xlink:href="#DejaVuSans-35" transform="translate(370.068359 0)"/>
      </g>
     </g>
    </g>
    <g id="xtick_4">
     <g id="line2d_7">
      <path d="M 313.741779 768.96 
L 313.741779 103.68 
" clip-path="url(#pbbd962a690)" style="fill: none; stroke: #b0b0b0; stroke-width: 0.8; stroke-linecap: square"/>
     </g>
     <g id="line2d_8">
      <g>
       <use xlink:href="#m613f433cfa" x="313.741779" y="768.96" style="stroke: #000000; stroke-width: 0.8"/>
      </g>
     </g>
     <g id="text_4">
      <!-- −48.000 -->
      <g transform="translate(300.359231 812.000349) rotate(-45) scale(0.1 -0.1)">
       <use xlink:href="#DejaVuSans-2212"/>
       <use xlink:href="#DejaVuSans-34" transform="translate(83.789062 0)"/>
       <use xlink:href="#DejaVuSans-38" transform="translate(147.412109 0)"/>
       <use xlink:href="#DejaVuSans-2e" transform="translate(211.035156 0)"/>
       <use xlink:href="#DejaVuSans-30" transform="translate(242.822266 0)"/>
       <use xlink:href="#DejaVuSans-30" transform="translate(306.445312 0)"/>
       <use xlink:href="#DejaVuSans-30" transform="translate(370.068359 0)"/>
      </g>
     </g>
    </g>
    <g id="xtick_5">
     <g id="line2d_9">
      <path d="M 374.774878 768.96 
L 374.774878 103.68 
" clip-path="url(#pbbd962a690)" style="fill: none; stroke: #b0b0b0; stroke-width: 0.8; stroke-linecap: square"/>
     </g>
     <g id="line2d_10">
      <g>
       <use xlink:href="#m613f433cfa" x="374.774878" y="768.96" style="stroke: #000000; stroke-width: 0.8"/>
      </g>
     </g>
     <g id="text_5">
      <!-- −47.975 -->
      <g transform="translate(361.39233 812.000349) rotate(-45) scale(0.1 -0.1)">
       <defs>
        <path id="DejaVuSans-39" d="M 703 97 
L 703 672 
Q 941 559 1184 500 
Q 1428 441 1663 441 
Q 2288 441 2617 861 
Q 2947 1281 2994 2138 
Q 2813 1869 2534 1725 
Q 2256 1581 1919 1581 
Q 1219 1581 811 2004 
Q 403 2428 403 3163 
Q 403 3881 828 4315 
Q 1253 4750 1959 4750 
Q 2769 4750 3195 4129 
Q 3622 3509 3622 2328 
Q 3622 1225 3098 567 
Q 2575 -91 1691 -91 
Q 1453 -91 1209 -44 
Q 966 3 703 97 
z
M 1959 2075 
Q 2384 2075 2632 2365 
Q 2881 2656 2881 3163 
Q 2881 3666 2632 3958 
Q 2384 4250 1959 4250 
Q 1534 4250 1286 3958 
Q 1038 3666 1038 3163 
Q 1038 2656 1286 2365 
Q 1534 2075 1959 2075 
z
" transform="scale(0.015625)"/>
       </defs>
       <use xlink:href="#DejaVuSans-2212"/>
       <use xlink:href="#DejaVuSans-34" transform="translate(83.789062 0)"/>
       <use xlink:href="#DejaVuSans-37" transform="translate(147.412109 0)"/>
       <use xlink:href="#DejaVuSans-2e" transform="translate(211.035156 0)"/>
       <use xlink:href="#DejaVuSans-39" transform="translate(242.822266 0)"/>
       <use xlink:href="#DejaVuSans-37" transform="translate(306.445312 0)"/>
       <use xlink:href="#DejaVuSans-35" transform="translate(370.068359 0)"/>
      </g>
     </g>
    </g>
    <g id="xtick_6">
     <g id="line2d_11">
      <path d="M 435.807977 768.96 
L 435.807977 103.68 
" clip-path="url(#pbbd962a690)" style="fill: none; stroke: #b0b0b0; stroke-width: 0.8; stroke-linecap: square"/>
     </g>
     <g id="line2d_12">
      <g>
       <use xlink:href="#m613f433cfa" x="435.807977" y="768.96" style="stroke: #000000; stroke-width: 0.8"/>
      </g>
     </g>
     <g id="text_6">
      <!-- −47.950 -->
      <g transform="translate(422.425429 812.000349) rotate(-45) scale(0.1 -0.1)">
       <use xlink:href="#DejaVuSans-2212"/>
       <use xlink:href="#DejaVuSans-34" transform="translate(83.789062 0)"/>
       <use xlink:href="#DejaVuSans-37" transform="translate(147.412109 0)"/>
       <use xlink:href="#DejaVuSans-2e" transform="translate(211.035156 0)"/>
       <use xlink:href="#DejaVuSans-39" transform="translate(242.822266 0)"/>
       <use xlink:href="#DejaVuSans-35" transform="translate(306.445312 0)"/>
       <use xlink:href="#DejaVuSans-30" transform="translate(370.068359 0)"/>
      </g>
     </g>
    </g>
    <g id="xtick_7">
     <g id="line2d_13">
      <path d="M 496.841076 768.96 
L 496.841076 103.68 
" clip-path="url(#pbbd962a690)" style="fill: none; stroke: #b0b0b0; stroke-width: 0.8; stroke-linecap: square"/>
     </g>
     <g id="line2d_14">
      <g>
       <use xlink:href="#m613f433cfa" x="496.841076" y="768.96" style="stroke: #000000; stroke-width: 0.8"/>
      </g>
     </g>
     <g id="text_7">
      <!-- −47.925 -->
      <g transform="translate(483.458528 812.000349) rotate(-45) scale(0.1 -0.1)">
       <use xlink:href="#DejaVuSans-2212"/>
       <use xlink:href="#DejaVuSans-34" transform="translate(83.789062 0)"/>
       <use xlink:href="#DejaVuSans-37" transform="translate(147.412109 0)"/>
       <use xlink:href="#DejaVuSans-2e" transform="translate(211.035156 0)"/>
       <use xlink:href="#DejaVuSans-39" transform="translate(242.822266 0)"/>
       <use xlink:href="#DejaVuSans-32" transform="translate(306.445312 0)"/>
       <use xlink:href="#DejaVuSans-35" transform="translate(370.068359 0)"/>
      </g>
     </g>
    </g>
    <g id="xtick_8">
     <g id="line2d_15">
      <path d="M 557.874175 768.96 
L 557.874175 103.68 
" clip-path="url(#pbbd962a690)" style="fill: none; stroke: #b0b0b0; stroke-width: 0.8; stroke-linecap: square"/>
     </g>
     <g id="line2d_16">
      <g>
       <use xlink:href="#m613f433cfa" x="557.874175" y="768.96" style="stroke: #000000; stroke-width: 0.8"/>
      </g>
     </g>
     <g id="text_8">
      <!-- −47.900 -->
      <g transform="translate(544.491627 812.000349) rotate(-45) scale(0.1 -0.1)">
       <use xlink:href="#DejaVuSans-2212"/>
       <use xlink:href="#DejaVuSans-34" transform="translate(83.789062 0)"/>
       <use xlink:href="#DejaVuSans-37" transform="translate(147.412109 0)"/>
       <use xlink:href="#DejaVuSans-2e" transform="translate(211.035156 0)"/>
       <use xlink:href="#DejaVuSans-39" transform="translate(242.822266 0)"/>
       <use xlink:href="#DejaVuSans-30" transform="translate(306.445312 0)"/>
       <use xlink:href="#DejaVuSans-30" transform="translate(370.068359 0)"/>
      </g>
     </g>
    </g>
    <g id="xtick_9">
     <g id="line2d_17">
      <path d="M 618.907275 768.96 
L 618.907275 103.68 
" clip-path="url(#pbbd962a690)" style="fill: none; stroke: #b0b0b0; stroke-width: 0.8; stroke-linecap: square"/>
     </g>
     <g id="line2d_18">
      <g>
       <use xlink:href="#m613f433cfa" x="618.907275" y="768.96" style="stroke: #000000; stroke-width: 0.8"/>
      </g>
     </g>
     <g id="text_9">
      <!-- −47.875 -->
      <g transform="translate(605.524726 812.000349) rotate(-45) scale(0.1 -0.1)">
       <use xlink:href="#DejaVuSans-2212"/>
       <use xlink:href="#DejaVuSans-34" transform="translate(83.789062 0)"/>
       <use xlink:href="#DejaVuSans-37" transform="translate(147.412109 0)"/>
       <use xlink:href="#DejaVuSans-2e" transform="translate(211.035156 0)"/>
       <use xlink:href="#DejaVuSans-38" transform="translate(242.822266 0)"/>
       <use xlink:href="#DejaVuSans-37" transform="translate(306.445312 0)"/>
       <use xlink:href="#DejaVuSans-35" transform="translate(370.068359 0)"/>
      </g>
     </g>
    </g>
    <g id="text_10">
     <!-- Longitude (°) -->
     <g transform="translate(336.139844 825.069347) scale(0.1 -0.1)">
      <defs>
       <path id="DejaVuSans-4c" d="M 628 4666 
L 1259 4666 
L 1259 531 
L 3531 531 
L 3531 0 
L 628 0 
L 628 4666 
z
" transform="scale(0.015625)"/>
       <path id="DejaVuSans-6f" d="M 1959 3097 
Q 1497 3097 1228 2736 
Q 959 2375 959 1747 
Q 959 1119 1226 758 
Q 1494 397 1959 397 
Q 2419 397 2687 759 
Q 2956 1122 2956 1747 
Q 2956 2369 2687 2733 
Q 2419 3097 1959 3097 
z
M 1959 3584 
Q 2709 3584 3137 3096 
Q 3566 2609 3566 1747 
Q 3566 888 3137 398 
Q 2709 -91 1959 -91 
Q 1206 -91 779 398 
Q 353 888 353 1747 
Q 353 2609 779 3096 
Q 1206 3584 1959 3584 
z
" transform="scale(0.015625)"/>
       <path id="DejaVuSans-6e" d="M 3513 2113 
L 3513 0 
L 2938 0 
L 2938 2094 
Q 2938 2591 2744 2837 
Q 2550 3084 2163 3084 
Q 1697 3084 1428 2787 
Q 1159 2491 1159 1978 
L 1159 0 
L 581 0 
L 581 3500 
L 1159 3500 
L 1159 2956 
Q 1366 3272 1645 3428 
Q 1925 3584 2291 3584 
Q 2894 3584 3203 3211 
Q 3513 2838 3513 2113 
z
" transform="scale(0.015625)"/>
       <path id="DejaVuSans-67" d="M 2906 1791 
Q 2906 2416 2648 2759 
Q 2391 3103 1925 3103 
Q 1463 3103 1205 2759 
Q 947 2416 947 1791 
Q 947 1169 1205 825 
Q 1463 481 1925 481 
Q 2391 481 2648 825 
Q 2906 1169 2906 1791 
z
M 3481 434 
Q 3481 -459 3084 -895 
Q 2688 -1331 1869 -1331 
Q 1566 -1331 1297 -1286 
Q 1028 -1241 775 -1147 
L 775 -588 
Q 1028 -725 1275 -790 
Q 1522 -856 1778 -856 
Q 2344 -856 2625 -561 
Q 2906 -266 2906 331 
L 2906 616 
Q 2728 306 2450 153 
Q 2172 0 1784 0 
Q 1141 0 747 490 
Q 353 981 353 1791 
Q 353 2603 747 3093 
Q 1141 3584 1784 3584 
Q 2172 3584 2450 3431 
Q 2728 3278 2906 2969 
L 2906 3500 
L 3481 3500 
L 3481 434 
z
" transform="scale(0.015625)"/>
       <path id="DejaVuSans-69" d="M 603 3500 
L 1178 3500 
L 1178 0 
L 603 0 
L 603 3500 
z
M 603 4863 
L 1178 4863 
L 1178 4134 
L 603 4134 
L 603 4863 
z
" transform="scale(0.015625)"/>
       <path id="DejaVuSans-74" d="M 1172 4494 
L 1172 3500 
L 2356 3500 
L 2356 3053 
L 1172 3053 
L 1172 1153 
Q 1172 725 1289 603 
Q 1406 481 1766 481 
L 2356 481 
L 2356 0 
L 1766 0 
Q 1100 0 847 248 
Q 594 497 594 1153 
L 594 3053 
L 172 3053 
L 172 3500 
L 594 3500 
L 594 4494 
L 1172 4494 
z
" transform="scale(0.015625)"/>
       <path id="DejaVuSans-75" d="M 544 1381 
L 544 3500 
L 1119 3500 
L 1119 1403 
Q 1119 906 1312 657 
Q 1506 409 1894 409 
Q 2359 409 2629 706 
Q 2900 1003 2900 1516 
L 2900 3500 
L 3475 3500 
L 3475 0 
L 2900 0 
L 2900 538 
Q 2691 219 2414 64 
Q 2138 -91 1772 -91 
Q 1169 -91 856 284 
Q 544 659 544 1381 
z
M 1991 3584 
L 1991 3584 
z
" transform="scale(0.015625)"/>
       <path id="DejaVuSans-64" d="M 2906 2969 
L 2906 4863 
L 3481 4863 
L 3481 0 
L 2906 0 
L 2906 525 
Q 2725 213 2448 61 
Q 2172 -91 1784 -91 
Q 1150 -91 751 415 
Q 353 922 353 1747 
Q 353 2572 751 3078 
Q 1150 3584 1784 3584 
Q 2172 3584 2448 3432 
Q 2725 3281 2906 2969 
z
M 947 1747 
Q 947 1113 1208 752 
Q 1469 391 1925 391 
Q 2381 391 2643 752 
Q 2906 1113 2906 1747 
Q 2906 2381 2643 2742 
Q 2381 3103 1925 3103 
Q 1469 3103 1208 2742 
Q 947 2381 947 1747 
z
" transform="scale(0.015625)"/>
       <path id="DejaVuSans-65" d="M 3597 1894 
L 3597 1613 
L 953 1613 
Q 991 1019 1311 708 
Q 1631 397 2203 397 
Q 2534 397 2845 478 
Q 3156 559 3463 722 
L 3463 178 
Q 3153 47 2828 -22 
Q 2503 -91 2169 -91 
Q 1331 -91 842 396 
Q 353 884 353 1716 
Q 353 2575 817 3079 
Q 1281 3584 2069 3584 
Q 2775 3584 3186 3129 
Q 3597 2675 3597 1894 
z
M 3022 2063 
Q 3016 2534 2758 2815 
Q 2500 3097 2075 3097 
Q 1594 3097 1305 2825 
Q 1016 2553 972 2059 
L 3022 2063 
z
" transform="scale(0.015625)"/>
       <path id="DejaVuSans-20" transform="scale(0.015625)"/>
       <path id="DejaVuSans-28" d="M 1984 4856 
Q 1566 4138 1362 3434 
Q 1159 2731 1159 2009 
Q 1159 1288 1364 580 
Q 1569 -128 1984 -844 
L 1484 -844 
Q 1016 -109 783 600 
Q 550 1309 550 2009 
Q 550 2706 781 3412 
Q 1013 4119 1484 4856 
L 1984 4856 
z
" transform="scale(0.015625)"/>
       <path id="DejaVuSans-b0" d="M 1600 4347 
Q 1350 4347 1178 4173 
Q 1006 4000 1006 3750 
Q 1006 3503 1178 3333 
Q 1350 3163 1600 3163 
Q 1850 3163 2022 3333 
Q 2194 3503 2194 3750 
Q 2194 3997 2020 4172 
Q 1847 4347 1600 4347 
z
M 1600 4750 
Q 1800 4750 1984 4673 
Q 2169 4597 2303 4453 
Q 2447 4313 2519 4134 
Q 2591 3956 2591 3750 
Q 2591 3338 2302 3052 
Q 2013 2766 1594 2766 
Q 1172 2766 890 3047 
Q 609 3328 609 3750 
Q 609 4169 896 4459 
Q 1184 4750 1600 4750 
z
" transform="scale(0.015625)"/>
       <path id="DejaVuSans-29" d="M 513 4856 
L 1013 4856 
Q 1481 4119 1714 3412 
Q 1947 2706 1947 2009 
Q 1947 1309 1714 600 
Q 1481 -109 1013 -844 
L 513 -844 
Q 928 -128 1133 580 
Q 1338 1288 1338 2009 
Q 1338 2731 1133 3434 
Q 928 4138 513 4856 
z
" transform="scale(0.015625)"/>
      </defs>
      <use xlink:href="#DejaVuSans-4c"/>
      <use xlink:href="#DejaVuSans-6f" transform="translate(53.962891 0)"/>
      <use xlink:href="#DejaVuSans-6e" transform="translate(115.144531 0)"/>
      <use xlink:href="#DejaVuSans-67" transform="translate(178.523438 0)"/>
      <use xlink:href="#DejaVuSans-69" transform="translate(242 0)"/>
      <use xlink:href="#DejaVuSans-74" transform="translate(269.783203 0)"/>
      <use xlink:href="#DejaVuSans-75" transform="translate(308.992188 0)"/>
      <use xlink:href="#DejaVuSans-64" transform="translate(372.371094 0)"/>
      <use xlink:href="#DejaVuSans-65" transform="translate(435.847656 0)"/>
      <use xlink:href="#DejaVuSans-20" transform="translate(497.371094 0)"/>
      <use xlink:href="#DejaVuSans-28" transform="translate(529.158203 0)"/>
      <use xlink:href="#DejaVuSans-b0" transform="translate(568.171875 0)"/>
      <use xlink:href="#DejaVuSans-29" transform="translate(618.171875 0)"/>
     </g>
    </g>
   </g>
   <g id="matplotlib.axis_2">
    <g id="ytick_1">
     <g id="line2d_19">
      <path d="M 112.148265 714.221867 
L 625.851735 714.221867 
" clip-path="url(#pbbd962a690)" style="fill: none; stroke: #b0b0b0; stroke-width: 0.8; stroke-linecap: square"/>
     </g>
     <g id="line2d_20">
      <defs>
       <path id="ma641d0ace6" d="M 0 0 
L -3.5 0 
" style="stroke: #000000; stroke-width: 0.8"/>
      </defs>
      <g>
       <use xlink:href="#ma641d0ace6" x="112.148265" y="714.221867" style="stroke: #000000; stroke-width: 0.8"/>
      </g>
     </g>
     <g id="text_11">
      <!-- −4.35 -->
      <g transform="translate(74.502952 718.021085) scale(0.1 -0.1)">
       <defs>
        <path id="DejaVuSans-33" d="M 2597 2516 
Q 3050 2419 3304 2112 
Q 3559 1806 3559 1356 
Q 3559 666 3084 287 
Q 2609 -91 1734 -91 
Q 1441 -91 1130 -33 
Q 819 25 488 141 
L 488 750 
Q 750 597 1062 519 
Q 1375 441 1716 441 
Q 2309 441 2620 675 
Q 2931 909 2931 1356 
Q 2931 1769 2642 2001 
Q 2353 2234 1838 2234 
L 1294 2234 
L 1294 2753 
L 1863 2753 
Q 2328 2753 2575 2939 
Q 2822 3125 2822 3475 
Q 2822 3834 2567 4026 
Q 2313 4219 1838 4219 
Q 1578 4219 1281 4162 
Q 984 4106 628 3988 
L 628 4550 
Q 988 4650 1302 4700 
Q 1616 4750 1894 4750 
Q 2613 4750 3031 4423 
Q 3450 4097 3450 3541 
Q 3450 3153 3228 2886 
Q 3006 2619 2597 2516 
z
" transform="scale(0.015625)"/>
       </defs>
       <use xlink:href="#DejaVuSans-2212"/>
       <use xlink:href="#DejaVuSans-34" transform="translate(83.789062 0)"/>
       <use xlink:href="#DejaVuSans-2e" transform="translate(147.412109 0)"/>
       <use xlink:href="#DejaVuSans-33" transform="translate(179.199219 0)"/>
       <use xlink:href="#DejaVuSans-35" transform="translate(242.822266 0)"/>
      </g>
     </g>
    </g>
    <g id="ytick_2">
     <g id="line2d_21">
      <path d="M 112.148265 591.821226 
L 625.851735 591.821226 
" clip-path="url(#pbbd962a690)" style="fill: none; stroke: #b0b0b0; stroke-width: 0.8; stroke-linecap: square"/>
     </g>
     <g id="line2d_22">
      <g>
       <use xlink:href="#ma641d0ace6" x="112.148265" y="591.821226" style="stroke: #000000; stroke-width: 0.8"/>
      </g>
     </g>
     <g id="text_12">
      <!-- −4.30 -->
      <g transform="translate(74.502952 595.620445) scale(0.1 -0.1)">
       <use xlink:href="#DejaVuSans-2212"/>
       <use xlink:href="#DejaVuSans-34" transform="translate(83.789062 0)"/>
       <use xlink:href="#DejaVuSans-2e" transform="translate(147.412109 0)"/>
       <use xlink:href="#DejaVuSans-33" transform="translate(179.199219 0)"/>
       <use xlink:href="#DejaVuSans-30" transform="translate(242.822266 0)"/>
      </g>
     </g>
    </g>
    <g id="ytick_3">
     <g id="line2d_23">
      <path d="M 112.148265 469.420586 
L 625.851735 469.420586 
" clip-path="url(#pbbd962a690)" style="fill: none; stroke: #b0b0b0; stroke-width: 0.8; stroke-linecap: square"/>
     </g>
     <g id="line2d_24">
      <g>
       <use xlink:href="#ma641d0ace6" x="112.148265" y="469.420586" style="stroke: #000000; stroke-width: 0.8"/>
      </g>
     </g>
     <g id="text_13">
      <!-- −4.25 -->
      <g transform="translate(74.502952 473.219805) scale(0.1 -0.1)">
       <use xlink:href="#DejaVuSans-2212"/>
       <use xlink:href="#DejaVuSans-34" transform="translate(83.789062 0)"/>
       <use xlink:href="#DejaVuSans-2e" transform="translate(147.412109 0)"/>
       <use xlink:href="#DejaVuSans-32" transform="translate(179.199219 0)"/>
       <use xlink:href="#DejaVuSans-35" transform="translate(242.822266 0)"/>
      </g>
     </g>
    </g>
    <g id="ytick_4">
     <g id="line2d_25">
      <path d="M 112.148265 347.019946 
L 625.851735 347.019946 
" clip-path="url(#pbbd962a690)" style="fill: none; stroke: #b0b0b0; stroke-width: 0.8; stroke-linecap: square"/>
     </g>
     <g id="line2d_26">
      <g>
       <use xlink:href="#ma641d0ace6" x="112.148265" y="347.019946" style="stroke: #000000; stroke-width: 0.8"/>
      </g>
     </g>
     <g id="text_14">
      <!-- −4.20 -->
      <g transform="translate(74.502952 350.819164) scale(0.1 -0.1)">
       <use xlink:href="#DejaVuSans-2212"/>
       <use xlink:href="#DejaVuSans-34" transform="translate(83.789062 0)"/>
       <use xlink:href="#DejaVuSans-2e" transform="translate(147.412109 0)"/>
       <use xlink:href="#DejaVuSans-32" transform="translate(179.199219 0)"/>
       <use xlink:href="#DejaVuSans-30" transform="translate(242.822266 0)"/>
      </g>
     </g>
    </g>
    <g id="ytick_5">
     <g id="line2d_27">
      <path d="M 112.148265 224.619305 
L 625.851735 224.619305 
" clip-path="url(#pbbd962a690)" style="fill: none; stroke: #b0b0b0; stroke-width: 0.8; stroke-linecap: square"/>
     </g>
     <g id="line2d_28">
      <g>
       <use xlink:href="#ma641d0ace6" x="112.148265" y="224.619305" style="stroke: #000000; stroke-width: 0.8"/>
      </g>
     </g>
     <g id="text_15">
      <!-- −4.15 -->
      <g transform="translate(74.502952 228.418524) scale(0.1 -0.1)">
       <defs>
        <path id="DejaVuSans-31" d="M 794 531 
L 1825 531 
L 1825 4091 
L 703 3866 
L 703 4441 
L 1819 4666 
L 2450 4666 
L 2450 531 
L 3481 531 
L 3481 0 
L 794 0 
L 794 531 
z
" transform="scale(0.015625)"/>
       </defs>
       <use xlink:href="#DejaVuSans-2212"/>
       <use xlink:href="#DejaVuSans-34" transform="translate(83.789062 0)"/>
       <use xlink:href="#DejaVuSans-2e" transform="translate(147.412109 0)"/>
       <use xlink:href="#DejaVuSans-31" transform="translate(179.199219 0)"/>
       <use xlink:href="#DejaVuSans-35" transform="translate(242.822266 0)"/>
      </g>
     </g>
    </g>
    <g id="text_16">
     <!-- Latitude (°) -->
     <g transform="translate(68.423265 464.889531) rotate(-90) scale(0.1 -0.1)">
      <defs>
       <path id="DejaVuSans-61" d="M 2194 1759 
Q 1497 1759 1228 1600 
Q 959 1441 959 1056 
Q 959 750 1161 570 
Q 1363 391 1709 391 
Q 2188 391 2477 730 
Q 2766 1069 2766 1631 
L 2766 1759 
L 2194 1759 
z
M 3341 1997 
L 3341 0 
L 2766 0 
L 2766 531 
Q 2569 213 2275 61 
Q 1981 -91 1556 -91 
Q 1019 -91 701 211 
Q 384 513 384 1019 
Q 384 1609 779 1909 
Q 1175 2209 1959 2209 
L 2766 2209 
L 2766 2266 
Q 2766 2663 2505 2880 
Q 2244 3097 1772 3097 
Q 1472 3097 1187 3025 
Q 903 2953 641 2809 
L 641 3341 
Q 956 3463 1253 3523 
Q 1550 3584 1831 3584 
Q 2591 3584 2966 3190 
Q 3341 2797 3341 1997 
z
" transform="scale(0.015625)"/>
      </defs>
      <use xlink:href="#DejaVuSans-4c"/>
      <use xlink:href="#DejaVuSans-61" transform="translate(55.712891 0)"/>
      <use xlink:href="#DejaVuSans-74" transform="translate(116.992188 0)"/>
      <use xlink:href="#DejaVuSans-69" transform="translate(156.201172 0)"/>
      <use xlink:href="#DejaVuSans-74" transform="translate(183.984375 0)"/>
      <use xlink:href="#DejaVuSans-75" transform="translate(223.193359 0)"/>
      <use xlink:href="#DejaVuSans-64" transform="translate(286.572266 0)"/>
      <use xlink:href="#DejaVuSans-65" transform="translate(350.048828 0)"/>
      <use xlink:href="#DejaVuSans-20" transform="translate(411.572266 0)"/>
      <use xlink:href="#DejaVuSans-28" transform="translate(443.359375 0)"/>
      <use xlink:href="#DejaVuSans-b0" transform="translate(482.373047 0)"/>
      <use xlink:href="#DejaVuSans-29" transform="translate(532.373047 0)"/>
     </g>
    </g>
   </g>
   <g id="patch_3">
    <path d="M 112.148265 768.96 
L 112.148265 103.68 
" style="fill: none; stroke: #000000; stroke-width: 0.8; stroke-linejoin: miter; stroke-linecap: square"/>
   </g>
   <g id="patch_4">
    <path d="M 625.851735 768.96 
L 625.851735 103.68 
" style="fill: none; stroke: #000000; stroke-width: 0.8; stroke-linejoin: miter; stroke-linecap: square"/>
   </g>
   <g id="patch_5">
    <path d="M 112.148265 768.96 
L 625.851735 768.96 
" style="fill: none; stroke: #000000; stroke-width: 0.8; stroke-linejoin: miter; stroke-linecap: square"/>
   </g>
   <g id="patch_6">
    <path d="M 112.148265 103.68 
L 625.851735 103.68 
" style="fill: none; stroke: #000000; stroke-width: 0.8; stroke-linejoin: miter; stroke-linecap: square"/>
   </g>
  </g>
 </g>
 <defs>
  <clipPath id="pbbd962a690">
   <rect x="112.148265" y="103.68" width="513.703471" height="665.28"/>
  </clipPath>
 </defs>
</svg>
