<?xml version="1.0" encoding="utf-8" standalone="no"?>
<!DOCTYPE svg PUBLIC "-//W3C//DTD SVG 1.1//EN"
  "http://www.w3.org/Graphics/SVG/1.1/DTD/svg11.dtd">
<svg xmlns:xlink="http://www.w3.org/1999/xlink" width="720pt" height="864pt" viewBox="0 0 720 864" xmlns="http://www.w3.org/2000/svg" version="1.1">
 <metadata>
  <rdf:RDF xmlns:dc="http://purl.org/dc/elements/1.1/" xmlns:cc="http://creativecommons.org/ns#" xmlns:rdf="http://www.w3.org/1999/02/22-rdf-syntax-ns#">
   <cc:Work>
    <dc:type rdf:resource="http://purl.org/dc/dcmitype/StillImage"/>
    <dc:date>2025-06-16T16:48:49.386744</dc:date>
    <dc:format>image/svg+xml</dc:format>
    <dc:creator>
     <cc:Agent>
      <dc:title>Matplotlib v3.10.1, https://matplotlib.org/</dc:title>
     </cc:Agent>
    </dc:creator>
   </cc:Work>
  </rdf:RDF>
 </metadata>
 <defs>
  <style type="text/css">*{stroke-linejoin: round; stroke-linecap: butt}</style>
 </defs>
 <g id="figure_1">
  <g id="patch_1">
   <path d="M 0 864 
L 720 864 
L 720 0 
L 0 0 
z
" style="fill: #ffffff"/>
  </g>
  <g id="axes_1">
   <g id="patch_2">
    <path d="M 90 738.886662 
L 648 738.886662 
L 648 133.753338 
L 90 133.753338 
z
" style="fill: #ffffff"/>
   </g>
   <g id="PatchCollection_1">
    <path d="M 308.450222 161.259398 
L 309.439703 161.63068 
L 310.444361 162.679564 
L 311.979359 164.081323 
L 313.507455 165.469884 
L 314.702311 166.126109 
L 315.500108 166.738519 
L 316.320302 167.150312 
L 318.4447 167.311445 
L 320.438799 168.031304 
L 321.911092 168.794077 
L 323.582487 169.176107 
L 324.824486 169.079664 
L 325.890263 168.662575 
L 326.650218 167.950183 
L 327.226895 167.063906 
L 328.382115 165.429145 
L 329.519728 164.687804 
L 330.75156 164.189153 
L 332.052565 163.861158 
L 333.326942 163.971611 
L 335.434034 163.972205 
L 337.54211 163.897857 
L 339.535535 164.199023 
L 341.627451 165.033674 
L 343.344362 165.597691 
L 344.296297 165.852948 
L 344.940375 165.654585 
L 346.466629 165.959142 
L 349.281787 166.605035 
L 351.160991 167.032151 
L 352.565789 167.221517 
L 354.186297 167.360155 
L 355.885473 167.640325 
L 357.368397 167.968291 
L 359.028708 168.354697 
L 359.891306 168.593741 
L 360.66965 168.634993 
L 361.227041 168.879053 
L 362.706559 169.725566 
L 364.14789 171.298382 
L 365.215782 172.481463 
L 366.283658 173.871233 
L 367.320082 175.227074 
L 368.395068 176.604941 
L 370.815713 176.848251 
L 373.688945 177.317927 
L 376.117269 177.71919 
L 377.425592 178.322022 
L 379.395632 179.3211 
L 380.398831 179.842278 
L 380.927299 180.835925 
L 381.772763 182.061305 
L 382.546272 182.786568 
L 383.664669 183.504104 
L 385.124429 183.714044 
L 386.789584 184.00609 
L 388.926611 185.291363 
L 389.494162 186.716752 
L 390.319829 188.85078 
L 390.816019 190.104776 
L 391.377432 190.908809 
L 392.031404 191.98119 
L 391.471962 193.485191 
L 391.305755 194.858562 
L 391.526268 195.873351 
L 392.2534 197.3262 
L 393.298189 198.323836 
L 395.045544 199.447857 
L 397.193456 200.590226 
L 397.875769 200.769545 
L 398.652764 200.525133 
L 399.971802 201.545758 
L 400.765125 202.492761 
L 401.011019 203.421641 
L 399.948662 205.170875 
L 399.70302 206.250078 
L 399.868701 207.69597 
L 400.734992 208.65459 
L 402.143203 209.494452 
L 403.492167 209.86847 
L 404.373034 210.056047 
L 405.065906 210.613761 
L 405.663863 212.403829 
L 406.542975 213.847856 
L 407.32395 214.767365 
L 408.080507 214.963433 
L 409.530116 214.963749 
L 410.521474 214.567276 
L 411.210568 214.891727 
L 411.777743 216.332337 
L 412.162552 217.586783 
L 412.32207 219.385406 
L 412.490782 220.895989 
L 412.096039 222.772679 
L 412.626287 225.322201 
L 413.855394 227.508867 
L 414.588611 228.131124 
L 415.463023 228.224147 
L 415.99928 229.073425 
L 415.698579 230.434396 
L 414.837735 231.742963 
L 414.25202 232.54185 
L 414.224449 233.574912 
L 415.003575 234.714125 
L 415.946027 235.400904 
L 416.869941 236.062196 
L 417.757883 238.915331 
L 419.696885 239.872265 
L 421.309565 239.699038 
L 423.668655 238.553553 
L 426.60531 238.077447 
L 428.149612 237.474092 
L 429.317943 236.07475 
L 429.875771 235.886378 
L 430.396022 236.163942 
L 430.870908 236.868221 
L 431.19633 238.181987 
L 432.062455 239.137868 
L 433.69321 239.665721 
L 435.225006 239.7669 
L 436.763259 239.023724 
L 436.569442 238.065201 
L 436.996795 237.292537 
L 437.629471 236.111636 
L 437.947486 235.102855 
L 438.00585 234.406241 
L 438.461982 234.175256 
L 439.300182 234.459726 
L 439.538732 235.082418 
L 439.598891 236.303942 
L 439.712865 237.962358 
L 440.373388 239.806561 
L 441.619193 241.115914 
L 442.999881 242.405427 
L 443.606904 243.297107 
L 444.803328 244.669448 
L 446.267663 245.470164 
L 447.653121 245.778075 
L 448.913783 245.650305 
L 450.871158 244.184656 
L 452.495345 242.281289 
L 453.454855 240.57572 
L 453.795796 238.624008 
L 453.593553 235.249467 
L 454.169779 233.14846 
L 455.495671 231.800009 
L 456.623673 231.460645 
L 459.336713 231.129597 
L 461.407005 230.906401 
L 463.785208 231.484258 
L 465.233783 232.028599 
L 466.614599 232.058154 
L 468.27055 233.286362 
L 469.483784 234.609061 
L 470.207845 235.310837 
L 471.193848 236.350578 
L 471.568182 237.158295 
L 471.455072 238.0119 
L 470.764002 238.783037 
L 469.599376 239.540155 
L 469.026118 241.203233 
L 469.123009 242.845704 
L 470.001578 245.079883 
L 470.902003 246.347677 
L 471.561343 247.544873 
L 471.803889 248.180585 
L 471.318046 249.02155 
L 470.626577 249.066322 
L 469.062411 248.536521 
L 467.411322 248.309898 
L 464.779243 249.0326 
L 463.859738 250.01167 
L 463.120959 252.319217 
L 462.831681 253.345075 
L 462.228791 254.204613 
L 462.270807 256.12317 
L 463.016453 257.08682 
L 464.074277 257.625477 
L 464.811897 257.663028 
L 466.006773 257.064267 
L 466.498556 257.429393 
L 466.492884 258.217135 
L 466.151413 259.009679 
L 465.436915 259.720135 
L 463.603103 260.80642 
L 462.522721 262.143378 
L 461.964328 263.285329 
L 462.052043 264.616098 
L 462.336951 265.670187 
L 462.78483 266.077783 
L 464.770488 267.389155 
L 466.302081 268.291826 
L 468.086144 268.97339 
L 470.858005 268.833174 
L 474.095535 267.642896 
L 476.234089 267.249918 
L 477.776906 266.331924 
L 479.962638 265.899592 
L 482.590672 266.003118 
L 485.815851 266.876285 
L 488.316862 268.294986 
L 490.666206 269.588021 
L 492.865416 271.051691 
L 495.025382 272.636446 
L 496.743153 273.952872 
L 499.095826 275.579779 
L 501.356079 276.789355 
L 504.585839 278.418399 
L 506.383435 279.063874 
L 509.842938 279.127706 
L 512.379011 278.363667 
L 513.953464 278.448203 
L 515.141977 279.00403 
L 516.072988 279.142365 
L 516.168489 279.957519 
L 515.708012 280.720277 
L 514.227717 281.710547 
L 513.197662 283.315847 
L 512.305452 285.799192 
L 512.375707 288.262401 
L 512.679443 290.570447 
L 513.200031 293.170061 
L 513.761745 295.019155 
L 514.14258 295.884796 
L 513.213973 297.02787 
L 445.884257 338.870428 
L 426.634718 350.571443 
L 426.602883 354.559203 
L 407.393957 354.058674 
L 407.292416 363.6213 
L 387.677483 362.435095 
L 388.414114 366.321351 
L 388.187854 370.656828 
L 406.363915 373.62889 
L 405.705511 380.9091 
L 405.295668 385.541253 
L 407.272989 385.520566 
L 408.213606 389.985351 
L 426.893192 388.919416 
L 426.435057 384.262339 
L 426.349099 379.624517 
L 426.31208 375.000671 
L 497.389004 326.711403 
L 497.602519 327.063804 
L 498.162067 328.869833 
L 498.885026 330.522102 
L 499.679932 331.373128 
L 500.994245 332.641176 
L 502.721058 333.838535 
L 504.418609 334.994087 
L 505.772165 335.964958 
L 507.206731 336.733427 
L 508.79966 337.487393 
L 510.219773 338.146819 
L 510.96887 338.571399 
L 511.477216 338.947914 
L 512.560127 340.108724 
L 513.041303 340.72471 
L 513.769971 341.567244 
L 514.549681 342.329387 
L 515.325351 342.942183 
L 516.881824 343.757868 
L 518.324321 344.426846 
L 519.588538 345.006225 
L 521.346586 345.358689 
L 523.406001 345.940871 
L 525.570788 346.536532 
L 526.538715 346.910021 
L 527.295144 347.100057 
L 528.499204 347.407445 
L 529.768124 348.021645 
L 530.797467 348.504224 
L 531.613945 349.084444 
L 532.337061 349.841769 
L 532.996862 350.575392 
L 534.18289 352.020519 
L 535.002676 353.130134 
L 535.796171 353.949831 
L 536.919361 355.067259 
L 537.869298 355.604733 
L 539.23215 356.584232 
L 540.479001 357.62647 
L 541.827107 358.425277 
L 543.266141 359.11661 
L 544.287366 359.717924 
L 545.453353 359.881795 
L 546.905827 360.231025 
L 548.245499 360.535798 
L 549.373595 361.108266 
L 550.146885 361.562374 
L 550.963773 362.664843 
L 551.286571 363.506069 
L 551.683906 364.998618 
L 552.024808 366.50119 
L 552.533724 368.358506 
L 553.035043 369.607077 
L 553.469538 370.507969 
L 554.060453 371.709169 
L 554.613689 372.912531 
L 555.120115 373.777212 
L 556.028169 374.903047 
L 557.244254 375.962669 
L 558.774779 376.916503 
L 561.580008 378.175234 
L 563.844512 379.026628 
L 566.097313 379.936831 
L 568.139008 381.006066 
L 570.177657 382.026555 
L 571.557759 382.698228 
L 572.531488 383.117721 
L 573.633435 383.45543 
L 574.736833 383.985731 
L 575.652609 384.481214 
L 576.519601 385.543061 
L 577.086724 388.00754 
L 577.222585 389.795234 
L 577.193413 391.153421 
L 577.072211 392.626961 
L 576.63357 395.037855 
L 576.541282 395.789987 
L 576.432681 397.590632 
L 576.785357 398.96514 
L 577.417637 400.308223 
L 578.032632 401.646524 
L 578.467572 402.654073 
L 579.314984 403.822004 
L 580.294268 404.709334 
L 581.672038 406.099336 
L 582.491625 406.872713 
L 583.765846 408.060126 
L 584.597838 408.805113 
L 585.812271 409.896813 
L 586.949474 411.045061 
L 587.925744 412.040322 
L 589.457226 413.529616 
L 590.839951 414.512453 
L 592.763702 415.793053 
L 594.556183 416.554386 
L 596.017345 416.99471 
L 597.183954 416.743169 
L 598.561402 417.170948 
L 600.001531 417.530438 
L 601.478385 418.680124 
L 602.737857 420.444573 
L 603.420587 421.579913 
L 603.803796 423.191033 
L 604.530598 424.301314 
L 605.867233 425.707776 
L 606.844028 426.548199 
L 608.645321 427.617949 
L 610.791548 428.492515 
L 612.961968 429.198701 
L 615.024865 429.66949 
L 616.090289 429.969788 
L 618.508683 430.987556 
L 619.957431 432.041198 
L 621.348527 433.233868 
L 622.270757 434.227434 
L 622.636364 435.416525 
L 622.282719 437.261482 
L 621.984239 438.71984 
L 621.698956 439.525298 
L 620.403812 441.280994 
L 619.051033 442.968097 
L 618.282607 443.838493 
L 616.879541 444.460691 
L 613.473581 445.967814 
L 610.772274 447.600974 
L 608.50472 449.045817 
L 606.8575 450.66023 
L 604.852216 453.414812 
L 604.036871 454.422588 
L 601.643092 457.0551 
L 600.150349 458.536071 
L 598.470019 460.676906 
L 597.423008 461.819497 
L 595.674416 464.329135 
L 594.959844 465.212947 
L 593.83163 465.826238 
L 592.321692 466.286866 
L 590.49923 466.19634 
L 588.956649 465.437614 
L 587.142018 464.429399 
L 584.785696 462.695169 
L 583.168343 461.903384 
L 581.27132 461.203123 
L 577.595754 458.724687 
L 575.755455 457.547129 
L 574.040741 456.011637 
L 572.779727 455.279401 
L 571.467955 455.071378 
L 570.233284 455.121441 
L 568.35062 456.464926 
L 567.821137 457.739593 
L 567.807198 460.401396 
L 567.886765 462.017697 
L 568.237429 464.106494 
L 569.087109 466.271111 
L 569.836493 467.528015 
L 570.45472 468.890701 
L 570.745128 469.529421 
L 570.866698 469.911061 
L 552.287476 472.813659 
L 534.637081 474.707967 
L 536.761075 482.763499 
L 518.231689 484.003144 
L 518.374056 484.867461 
L 505.402257 488.734024 
L 505.341526 508.395593 
L 505.347157 508.760799 
L 505.43107 517.604305 
L 505.413785 518.304453 
L 505.409653 519.134716 
L 505.902938 533.041981 
L 559.808191 528.124133 
L 559.962085 528.038167 
L 588.742751 526.475196 
L 588.567742 526.740173 
L 588.252933 527.193934 
L 587.812985 527.736074 
L 587.013375 528.445882 
L 585.869729 529.351226 
L 584.921945 530.249807 
L 583.784212 531.605939 
L 582.830125 532.973438 
L 581.943211 534.334041 
L 581.131499 536.024562 
L 580.736837 537.138839 
L 580.16982 538.591026 
L 579.196244 540.32554 
L 578.507944 541.652627 
L 578.161356 542.565381 
L 578.023556 543.824685 
L 578.157828 545.312593 
L 578.416311 546.728432 
L 578.746724 547.935078 
L 579.167423 549.672497 
L 579.500258 550.467577 
L 579.878959 551.265637 
L 581.00736 552.467796 
L 581.903791 553.030737 
L 582.836071 553.423847 
L 583.969626 553.858579 
L 585.513125 554.263866 
L 586.39007 554.480636 
L 587.216636 554.478742 
L 588.491454 555.080373 
L 589.334448 555.747893 
L 590.113414 556.372834 
L 591.224131 557.608878 
L 592.023238 558.832505 
L 593.117666 560.334973 
L 593.986724 562.397942 
L 594.708305 564.319842 
L 595.079799 565.939758 
L 595.364817 567.218196 
L 595.755056 568.484099 
L 596.088748 569.511541 
L 596.296722 571.013094 
L 596.330223 572.359247 
L 595.804653 574.026701 
L 595.331995 575.336681 
L 594.767046 576.543062 
L 594.126699 577.647017 
L 593.381685 578.918147 
L 592.739657 579.984367 
L 590.905257 580.392506 
L 591.102764 582.55196 
L 590.198508 583.759495 
L 589.208727 585.045258 
L 587.987672 585.574993 
L 587.525142 587.307177 
L 586.196055 587.594287 
L 584.923789 587.527855 
L 583.363427 586.340038 
L 581.853161 586.501032 
L 580.553893 586.024779 
L 579.439187 585.707858 
L 578.523121 584.795883 
L 577.820869 585.546843 
L 576.550305 585.460145 
L 574.372103 585.451147 
L 573.422836 586.385637 
L 572.198985 586.999821 
L 570.747788 587.40794 
L 570.897468 588.598573 
L 570.425923 589.829739 
L 570.065226 591.248933 
L 569.359611 592.335987 
L 570.007838 593.068951 
L 570.001639 594.81295 
L 570.035975 596.804661 
L 570.091682 598.657895 
L 570.272294 600.13957 
L 570.510314 602.099747 
L 570.881708 603.909064 
L 571.218765 605.516835 
L 571.326229 607.216937 
L 570.993122 608.357473 
L 570.011221 609.225531 
L 569.362427 609.572304 
L 568.122249 609.541337 
L 567.36822 610.183671 
L 565.970481 610.226453 
L 564.796138 609.999027 
L 563.68595 609.647734 
L 562.513835 608.73576 
L 561.811603 607.569912 
L 561.217382 606.186751 
L 560.947295 604.55081 
L 560.553963 603.26673 
L 558.975046 600.674372 
L 557.80127 599.430256 
L 556.591457 598.544162 
L 556.449657 596.610451 
L 554.087459 596.699947 
L 552.784828 595.768273 
L 551.674052 594.94243 
L 550.332588 594.13517 
L 548.9388 593.679751 
L 547.560185 593.560971 
L 545.951429 593.683115 
L 545.040428 592.896689 
L 544.406827 594.016391 
L 543.001776 594.562441 
L 541.512314 595.115259 
L 539.972776 595.556047 
L 538.567726 596.037934 
L 537.211636 596.534454 
L 536.700712 596.222579 
L 535.851596 596.971857 
L 534.524191 597.462742 
L 533.581123 597.91648 
L 533.247428 598.076927 
L 532.493419 598.633677 
L 531.489013 599.471336 
L 530.918999 600.325896 
L 530.755808 601.166372 
L 530.897608 602.497753 
L 530.663121 603.550574 
L 527.122359 603.277075 
L 525.64428 603.632655 
L 519.32923 604.206426 
L 518.963773 604.340353 
L 518.158527 604.325385 
L 517.45073 604.419549 
L 516.722677 604.216656 
L 512.38152 604.177206 
L 507.361057 604.147836 
L 506.517576 604.146384 
L 507.661519 607.30266 
L 508.422247 609.827811 
L 509.761105 619.719163 
L 509.591631 620.246351 
L 509.45076 622.809567 
L 524.070019 624.02805 
L 530.192241 624.819613 
L 537.14717 625.669414 
L 539.519031 626.440285 
L 543.531579 626.76341 
L 543.036865 630.88696 
L 509.110406 628.44553 
L 504.565105 628.653196 
L 499.825838 647.220121 
L 499.794333 647.404794 
L 499.377594 650.888304 
L 470.823855 652.424627 
L 470.364884 652.345148 
L 467.627774 652.741798 
L 468.203123 671.416714 
L 469.857072 671.324898 
L 469.96046 671.324646 
L 486.3841 670.517723 
L 486.273932 665.838377 
L 504.281156 665.774652 
L 504.439983 670.081913 
L 510.685218 670.079919 
L 510.87635 670.07408 
L 521.714856 670.019342 
L 521.265775 670.893837 
L 520.867892 672.401671 
L 520.856763 674.12377 
L 521.148249 675.930305 
L 521.635885 677.46439 
L 522.09707 679.391317 
L 522.80445 681.227259 
L 523.360469 683.32434 
L 523.612538 684.881991 
L 523.767336 686.165589 
L 523.668092 686.880126 
L 523.230762 688.162346 
L 522.821884 689.392189 
L 522.236861 690.230984 
L 521.730473 691.23808 
L 521.154536 691.922228 
L 520.772769 692.652398 
L 520.176047 693.536256 
L 519.581473 694.621865 
L 519.195728 695.664091 
L 518.82813 696.420662 
L 518.486699 696.880776 
L 517.752027 697.233263 
L 516.93333 697.520606 
L 516.149768 697.466791 
L 515.016711 697.082575 
L 513.896364 696.22231 
L 513.498833 696.042847 
L 512.452783 696.333972 
L 511.55824 697.072005 
L 511.314378 697.865908 
L 511.388402 699.099389 
L 511.696674 700.012637 
L 512.294108 700.660502 
L 512.87052 701.222953 
L 514.049584 701.9858 
L 515.083963 702.726498 
L 515.417777 702.913955 
L 515.71036 703.187489 
L 493.386762 709.399349 
L 487.456041 709.726106 
L 472.865855 709.928536 
L 459.305595 710.317492 
L 447.53062 710.580857 
L 420.334424 711.380602 
L 419.652251 711.016109 
L 413.655353 691.858968 
L 413.587554 691.609141 
L 411.935457 685.928799 
L 430.206671 685.363774 
L 428.626531 676.442397 
L 445.918289 676.085772 
L 443.466282 667.094684 
L 442.14353 663.267948 
L 426.413482 663.875373 
L 424.352023 654.809457 
L 439.860922 653.818053 
L 438.044811 645.377223 
L 416.98233 645.779826 
L 416.699184 640.206376 
L 437.547893 640.183905 
L 435.575297 632.51746 
L 433.434847 617.287714 
L 415.373502 617.981083 
L 414.880533 613.339531 
L 414.736776 613.30639 
L 398.007691 611.679929 
L 398.279944 600.977445 
L 398.394665 600.424566 
L 398.528909 598.314757 
L 398.47567 593.685621 
L 380.313481 593.326702 
L 380.349124 588.488801 
L 398.911694 588.030167 
L 398.696154 583.842451 
L 365.167446 584.501606 
L 365.155099 584.975984 
L 369.255091 584.982147 
L 369.272004 585.498152 
L 371.714302 585.441654 
L 371.323109 588.504163 
L 364.419661 588.592571 
L 364.33207 590.63956 
L 371.399863 590.733471 
L 371.451021 593.232839 
L 380.0494 593.308271 
L 380.178424 595.676718 
L 364.421721 596.727227 
L 364.393843 597.088899 
L 364.472168 597.53516 
L 363.564954 597.594624 
L 363.939448 602.342618 
L 361.07005 602.318186 
L 360.527945 606.876797 
L 366.349632 606.864927 
L 379.743323 606.968793 
L 379.457818 611.574991 
L 387.618865 611.66408 
L 387.373075 619.575156 
L 373.412567 619.425194 
L 372.198535 611.607451 
L 372.169479 611.380942 
L 362.514722 611.597078 
L 362.146865 611.605465 
L 361.002043 610.24167 
L 357.521293 610.354157 
L 357.418372 607.109716 
L 356.688996 606.991271 
L 356.116778 603.642417 
L 357.018409 603.528347 
L 356.89864 601.53702 
L 356.601857 600.300417 
L 356.108297 600.414941 
L 355.935587 599.232163 
L 356.266331 599.20651 
L 355.862972 598.392692 
L 355.360662 598.520398 
L 355.342979 598.878783 
L 355.02558 599.184613 
L 354.512796 599.069891 
L 354.512304 598.022164 
L 352.44331 597.750885 
L 352.238285 598.489635 
L 352.854177 604.173653 
L 348.291062 604.246273 
L 348.583543 608.733416 
L 343.527611 608.74226 
L 343.588592 612.706193 
L 335.784766 612.778283 
L 335.746738 608.143573 
L 323.112519 608.419685 
L 322.16258 608.444274 
L 317.049947 608.577982 
L 317.146749 607.944295 
L 299.56512 608.64555 
L 299.676149 613.062979 
L 281.646726 614.036257 
L 281.151542 614.145266 
L 264.387924 613.956753 
L 247.574346 614.414167 
L 247.594016 618.922668 
L 281.366572 619.281779 
L 281.792131 618.936509 
L 281.907245 623.342004 
L 281.918487 623.712974 
L 281.932566 624.430739 
L 281.938745 624.967791 
L 281.940993 625.558324 
L 281.955072 626.562611 
L 281.987139 627.261224 
L 282.015843 628.085953 
L 282.052974 628.313379 
L 281.987782 628.526742 
L 287.133475 627.778053 
L 289.055562 627.553947 
L 299.964178 627.18666 
L 300.008923 631.610611 
L 317.639593 630.939587 
L 317.764409 635.062972 
L 300.039771 636.899026 
L 299.760076 641.559525 
L 282.04214 642.020871 
L 281.940996 637.769298 
L 281.848865 632.456658 
L 281.9383 629.802142 
L 281.530984 629.784088 
L 264.976048 630.251504 
L 248.056098 630.54967 
L 247.686419 630.569401 
L 247.922284 633.959917 
L 229.513989 634.712134 
L 229.703208 639.087599 
L 229.833888 642.920099 
L 211.084608 643.32328 
L 210.764551 643.562016 
L 211.005579 648.120192 
L 211.186857 652.719157 
L 193.305471 652.46176 
L 193.014073 652.468565 
L 175.070914 653.939164 
L 174.669573 653.957931 
L 174.681495 657.646763 
L 156.306878 658.65006 
L 156.078634 654.283992 
L 155.62366 644.702996 
L 137.78445 646.516919 
L 121.821414 647.219722 
L 121.286849 647.244738 
L 115.363636 648.652522 
L 115.458306 648.316978 
L 115.483403 647.867205 
L 115.721532 647.184814 
L 115.871519 646.392204 
L 116.3643 645.213226 
L 116.701195 644.735974 
L 117.088315 643.954088 
L 117.276533 642.995343 
L 117.377564 642.511215 
L 117.201601 641.706858 
L 117.136826 640.914725 
L 117.421944 639.889953 
L 117.319119 638.951933 
L 117.370756 638.216919 
L 117.454813 636.994215 
L 117.697254 635.733222 
L 118.2375 634.113471 
L 118.380031 633.623529 
L 118.623969 633.262143 
L 119.876753 633.193451 
L 120.433297 633.20327 
L 137.225906 632.741762 
L 155.136319 631.456255 
L 155.03317 626.849767 
L 137.033439 628.11779 
L 123.122415 628.29855 
L 122.698363 628.292919 
L 121.287872 628.287407 
L 121.046236 627.923982 
L 120.833442 625.766507 
L 121.148576 624.435607 
L 121.450287 623.691177 
L 121.736285 623.468169 
L 133.926297 623.752948 
L 146.918605 618.065264 
L 155.076897 614.498503 
L 172.864709 606.322026 
L 172.98973 606.970412 
L 173.384671 606.972885 
L 191.464251 606.788041 
L 191.209699 598.248984 
L 208.840801 590.08754 
L 209.095806 592.648945 
L 209.526109 592.607113 
L 228.375183 592.402181 
L 228.317006 588.297493 
L 235.583428 586.922037 
L 236.897332 586.909604 
L 246.229216 587.43561 
L 263.581339 586.554514 
L 264.016866 586.48865 
L 264.44113 586.463884 
L 265.159142 586.425602 
L 265.705516 586.383955 
L 266.510167 586.340606 
L 267.596737 586.261791 
L 267.987253 586.249976 
L 268.268603 586.236458 
L 268.838617 586.200993 
L 270.070348 586.126109 
L 270.890213 586.086712 
L 271.200814 586.081646 
L 271.764062 585.99438 
L 272.195659 585.911633 
L 272.985685 585.687592 
L 273.624918 585.416249 
L 274.378359 585.040191 
L 275.330442 584.491892 
L 276.001174 584.140599 
L 276.346111 583.946389 
L 277.060173 583.5664 
L 277.410721 583.376121 
L 277.84007 582.976433 
L 280.687625 581.741838 
L 280.953748 581.551029 
L 288.903652 577.248745 
L 289.59315 595.942199 
L 281.195969 596.173324 
L 281.297571 599.898296 
L 298.28585 599.564159 
L 298.47659 603.178397 
L 316.940941 603.294033 
L 314.645796 601.155542 
L 317.564843 596.888614 
L 316.598298 593.984791 
L 298.143008 595.26268 
L 297.996603 591.379511 
L 293.486079 591.709028 
L 293.103093 575.771482 
L 297.364233 574.626842 
L 301.855423 573.492894 
L 302.6987 590.305371 
L 307.277888 589.943119 
L 306.657473 572.203538 
L 310.983281 572.677419 
L 315.27205 573.240489 
L 315.767656 573.74126 
L 316.964926 574.387929 
L 318.333705 574.9844 
L 319.857716 575.434092 
L 321.607104 575.839142 
L 323.481166 576.247262 
L 325.39291 576.651393 
L 327.245679 577.060588 
L 328.983626 577.447484 
L 330.530416 577.878327 
L 331.629793 578.174732 
L 332.022819 578.279426 
L 332.583211 578.459614 
L 333.447575 578.792221 
L 335.475081 579.367066 
L 349.814071 578.654386 
L 350.674127 578.60238 
L 354.278627 578.471129 
L 354.667233 578.459647 
L 354.652405 577.868155 
L 355.170951 577.870925 
L 355.187506 577.542956 
L 354.644382 577.546389 
L 353.829487 556.254735 
L 353.590266 550.918546 
L 353.424197 546.77107 
L 353.35009 542.235973 
L 353.112353 537.531207 
L 353.782484 537.554658 
L 353.866894 541.14685 
L 355.653435 541.202119 
L 355.60261 542.089828 
L 357.778104 542.316111 
L 361.002833 542.59026 
L 361.271313 552.047412 
L 361.330326 560.274657 
L 363.807714 560.233758 
L 363.826621 560.591451 
L 363.978428 562.941404 
L 359.541489 563.174014 
L 359.521176 562.266437 
L 357.129498 562.325199 
L 357.15818 568.781818 
L 361.128449 568.715448 
L 361.096363 569.77157 
L 367.50811 569.727481 
L 367.436475 573.188688 
L 361.239389 573.331219 
L 361.207927 574.649732 
L 359.37835 574.652668 
L 359.489323 577.217506 
L 362.914416 577.210646 
L 362.988132 578.886581 
L 398.557182 578.354029 
L 398.384874 574.575709 
L 398.492588 574.272205 
L 398.205597 569.317205 
L 382.908662 569.380974 
L 382.847723 564.783001 
L 398.214294 564.602199 
L 397.946491 560.243468 
L 397.977739 559.957838 
L 382.321922 560.015397 
L 382.21279 555.708532 
L 397.843511 555.444053 
L 399.676193 555.442557 
L 399.824977 550.76563 
L 399.877825 546.097393 
L 399.528414 540.238241 
L 404.81898 541.063557 
L 405.553303 536.69692 
L 424.282355 535.150897 
L 421.991324 526.219861 
L 403.542296 527.736906 
L 401.39202 518.792145 
L 400.324086 514.214874 
L 399.566293 511.018617 
L 383.225158 510.962993 
L 383.354511 506.201412 
L 394.018455 505.494365 
L 394.417428 505.485996 
L 395.026821 505.462827 
L 395.722236 504.295811 
L 395.678346 503.802311 
L 395.41825 503.634007 
L 394.941748 501.734446 
L 433.741285 501.050428 
L 433.296675 498.914507 
L 394.074223 499.553753 
L 393.228062 500.762752 
L 383.243425 501.954645 
L 364.750449 504.206528 
L 364.693888 503.651269 
L 365.256251 497.51318 
L 365.151133 492.279363 
L 364.787996 485.768865 
L 364.532723 481.897964 
L 364.178506 481.928185 
L 350.183382 482.542962 
L 349.46567 463.994268 
L 349.257364 459.414692 
L 349.089989 454.848535 
L 361.400755 454.553612 
L 361.330447 452.520378 
L 381.657771 451.472173 
L 384.19548 456.720863 
L 384.740035 458.999047 
L 425.947028 458.113566 
L 425.585451 448.862645 
L 425.392876 444.804475 
L 425.162201 439.737362 
L 424.904287 435.13491 
L 424.681716 430.671939 
L 382.195604 430.431901 
L 381.548372 430.451744 
L 381.110685 430.241115 
L 381.104821 429.928144 
L 380.258396 424.218949 
L 359.805112 424.378504 
L 360.419795 433.250765 
L 360.594063 436.657992 
L 356.056858 436.325942 
L 355.564531 428.822939 
L 355.560572 428.604337 
L 354.904058 417.775848 
L 358.929493 417.888738 
L 359.263888 418.012039 
L 359.346778 418.111988 
L 359.651751 419.57836 
L 382.128497 419.81283 
L 382.876179 420.161025 
L 383.616529 414.907908 
L 426.455847 412.753366 
L 425.731069 408.488322 
L 383.129806 410.528456 
L 382.267703 415.07416 
L 377.905446 415.044499 
L 359.142655 415.044264 
L 358.743754 406.72963 
L 358.752748 405.070828 
L 358.7846 399.603543 
L 346.825866 399.157495 
L 346.716237 391.467104 
L 346.699425 391.003324 
L 346.471754 380.567068 
L 346.473378 377.571764 
L 347.01823 373.197467 
L 350.011341 362.071928 
L 358.523063 361.269561 
L 359.07914 355.489304 
L 359.108193 355.19726 
L 359.283295 353.391858 
L 376.809996 351.96655 
L 376.581799 347.43731 
L 359.274113 348.637124 
L 358.657187 342.484976 
L 358.3513 339.377023 
L 357.885031 334.687785 
L 375.735994 333.412232 
L 376.049065 338.440687 
L 394.284173 337.519653 
L 396.758046 337.237237 
L 396.556946 336.680546 
L 396.744709 336.198644 
L 397.192807 335.099869 
L 397.569735 334.916467 
L 397.74636 334.470284 
L 397.606803 333.88727 
L 397.597622 333.422575 
L 397.330022 333.116849 
L 396.685523 332.601669 
L 396.499826 332.474865 
L 396.317309 331.898404 
L 396.405883 331.414752 
L 396.597886 331.059836 
L 396.715013 329.868557 
L 396.492037 329.165439 
L 396.332869 328.899769 
L 391.963026 328.703305 
L 391.582372 328.610201 
L 370.432689 329.42862 
L 370.192168 329.70744 
L 357.473034 330.497915 
L 355.325886 325.551715 
L 357.990638 325.813716 
L 359.455175 325.645173 
L 360.162325 325.56454 
L 374.946653 325.092952 
L 374.246414 320.10002 
L 363.796092 320.539402 
L 351.429409 320.562139 
L 349.640234 316.176461 
L 347.316695 310.723277 
L 347.039991 308.801432 
L 348.266931 301.466223 
L 347.317511 294.325774 
L 355.184307 292.375357 
L 358.98545 291.163084 
L 369.857673 289.871457 
L 367.370254 264.77652 
L 367.272957 264.519712 
L 366.413969 264.849039 
L 364.505698 266.16861 
L 364.106356 266.393037 
L 351.170037 247.248499 
L 350.956851 246.949799 
L 348.941993 242.135537 
L 348.863389 241.933536 
L 343.281218 228.827374 
L 331.494362 201.013281 
L 321.249499 202.846801 
L 334.52322 232.416589 
L 342.73396 250.975985 
L 342.893961 251.317142 
L 351.981398 271.4927 
L 351.465757 272.636288 
L 351.218929 273.225866 
L 350.519253 273.855666 
L 349.062504 274.636052 
L 347.823023 274.902871 
L 346.78276 274.87342 
L 346.189532 274.792382 
L 345.556237 275.104521 
L 345.242245 275.153493 
L 344.018463 276.4697 
L 342.876319 278.957394 
L 342.566686 280.655096 
L 341.799866 281.088398 
L 340.947416 281.613045 
L 340.722841 281.968655 
L 340.813123 282.321469 
L 340.59203 281.924181 
L 340.201014 281.101804 
L 338.765173 278.80573 
L 337.568725 277.535085 
L 336.302042 276.250261 
L 335.022087 274.952598 
L 333.730315 273.64228 
L 332.426001 272.317475 
L 331.127689 270.997074 
L 329.740845 269.759955 
L 328.148728 268.871502 
L 326.454459 268.036266 
L 324.67834 267.154773 
L 324.25207 267.011054 
L 323.985131 266.781012 
L 323.52088 266.580453 
L 322.87094 266.25236 
L 320.968169 265.35773 
L 318.748954 264.967215 
L 316.470594 265.302968 
L 314.331892 265.752463 
L 312.329581 265.763624 
L 310.614979 265.071654 
L 309.14257 263.695379 
L 307.816378 262.062731 
L 306.484737 260.419451 
L 305.148547 258.776533 
L 303.817616 257.153411 
L 302.519054 255.556525 
L 301.335534 254.119716 
L 300.32399 252.873458 
L 299.419688 251.760884 
L 298.580823 250.728632 
L 298.095309 249.957841 
L 297.19718 245.946942 
L 296.323643 241.909869 
L 295.45119 237.876647 
L 294.136969 231.904409 
L 290.368416 214.734559 
L 290.249976 214.147189 
L 290.141773 213.696885 
L 287.342267 204.813127 
L 287.303277 203.199936 
L 290.626426 201.531291 
L 293.577718 201.206077 
L 297.963153 200.455548 
L 302.082785 199.252352 
L 304.587294 198.003932 
L 306.969267 196.257 
L 309.506129 193.379135 
L 311.253259 189.82839 
L 311.164263 186.8519 
L 310.1855 181.836821 
L 309.172343 178.86913 
L 307.870761 174.187583 
L 305.845456 171.508402 
L 305.922703 170.301356 
L 306.332289 169.066602 
L 305.848066 166.95421 
L 305.946485 163.434082 
L 306.405172 162.232541 
L 307.293549 161.393852 
L 308.450222 161.259398 
M 155.232793 635.84855 
L 137.463986 637.261903 
L 136.784949 641.944943 
L 155.334234 640.660427 
L 155.232793 635.84855 
M 377.339984 374.724999 
L 358.409406 374.893213 
L 358.829466 382.528619 
L 359.021676 383.754467 
L 358.801358 388.631178 
L 364.100167 388.462257 
L 364.489342 388.588177 
L 377.066776 388.290845 
L 377.200202 384.179936 
L 377.220283 383.764198 
L 377.286109 378.296733 
L 377.288637 377.960317 
L 377.339984 374.724999 
M 391.767879 466.50299 
L 390.065993 469.923472 
L 391.816389 470.07173 
L 392.006598 470.061487 
L 407.588334 471.97573 
L 407.308454 468.080935 
L 391.969323 466.5393 
L 391.767879 466.50299 
M 455.762713 515.970782 
L 439.073934 520.144865 
L 441.469606 529.499141 
L 444.749308 528.977103 
L 444.943373 528.939928 
L 458.720415 527.329221 
L 455.956423 516.972387 
L 455.774033 516.984288 
L 455.762713 515.970782 
M 417.469686 598.014999 
L 417.505788 603.191655 
L 423.055846 603.664971 
L 432.458966 603.000362 
L 432.260975 598.553891 
L 424.526321 598.619864 
L 417.469686 598.014999 
" clip-path="url(#p946a57527b)" style="fill: #e0bd1f; stroke: #0000ff; stroke-width: 0.5"/>
    <path d="M 364.750449 504.206528 
L 365.611331 512.780409 
L 356.589391 513.787793 
L 355.716415 504.97132 
L 364.750449 504.206528 
" clip-path="url(#p946a57527b)" style="fill: #e0bd1f; stroke: #0000ff; stroke-width: 0.5"/>
    <path d="M 364.810998 505.098314 
L 364.847583 505.410189 
L 355.873699 506.334546 
L 355.837115 506.040687 
L 364.810998 505.098314 
" clip-path="url(#p946a57527b)" style="fill: #e0bd1f; stroke: #0000ff; stroke-width: 0.5"/>
   </g>
   <g id="PatchCollection_2">
    <path d="M 364.750449 504.206528 
L 365.611331 512.780409 
L 356.589391 513.787793 
L 355.716415 504.97132 
L 364.750449 504.206528 
" clip-path="url(#p946a57527b)" style="fill: none; stroke: #000000"/>
   </g>
   <g id="matplotlib.axis_1">
    <g id="xtick_1">
     <g id="line2d_1">
      <path d="M 171.76109 738.886662 
L 171.76109 133.753338 
" clip-path="url(#p946a57527b)" style="fill: none; stroke: #b0b0b0; stroke-width: 0.8; stroke-linecap: square"/>
     </g>
     <g id="line2d_2">
      <defs>
       <path id="m64c4053044" d="M 0 0 
L 0 3.5 
" style="stroke: #000000; stroke-width: 0.8"/>
      </defs>
      <g>
       <use xlink:href="#m64c4053044" x="171.76109" y="738.886662" style="stroke: #000000; stroke-width: 0.8"/>
      </g>
     </g>
     <g id="text_1">
      <!-- −47.15 -->
      <g transform="translate(160.628025 777.428044) rotate(-45) scale(0.1 -0.1)">
       <defs>
        <path id="DejaVuSans-2212" d="M 678 2272 
L 4684 2272 
L 4684 1741 
L 678 1741 
L 678 2272 
z
" transform="scale(0.015625)"/>
        <path id="DejaVuSans-34" d="M 2419 4116 
L 825 1625 
L 2419 1625 
L 2419 4116 
z
M 2253 4666 
L 3047 4666 
L 3047 1625 
L 3713 1625 
L 3713 1100 
L 3047 1100 
L 3047 0 
L 2419 0 
L 2419 1100 
L 313 1100 
L 313 1709 
L 2253 4666 
z
" transform="scale(0.015625)"/>
        <path id="DejaVuSans-37" d="M 525 4666 
L 3525 4666 
L 3525 4397 
L 1831 0 
L 1172 0 
L 2766 4134 
L 525 4134 
L 525 4666 
z
" transform="scale(0.015625)"/>
        <path id="DejaVuSans-2e" d="M 684 794 
L 1344 794 
L 1344 0 
L 684 0 
L 684 794 
z
" transform="scale(0.015625)"/>
        <path id="DejaVuSans-31" d="M 794 531 
L 1825 531 
L 1825 4091 
L 703 3866 
L 703 4441 
L 1819 4666 
L 2450 4666 
L 2450 531 
L 3481 531 
L 3481 0 
L 794 0 
L 794 531 
z
" transform="scale(0.015625)"/>
        <path id="DejaVuSans-35" d="M 691 4666 
L 3169 4666 
L 3169 4134 
L 1269 4134 
L 1269 2991 
Q 1406 3038 1543 3061 
Q 1681 3084 1819 3084 
Q 2600 3084 3056 2656 
Q 3513 2228 3513 1497 
Q 3513 744 3044 326 
Q 2575 -91 1722 -91 
Q 1428 -91 1123 -41 
Q 819 9 494 109 
L 494 744 
Q 775 591 1075 516 
Q 1375 441 1709 441 
Q 2250 441 2565 725 
Q 2881 1009 2881 1497 
Q 2881 1984 2565 2268 
Q 2250 2553 1709 2553 
Q 1456 2553 1204 2497 
Q 953 2441 691 2322 
L 691 4666 
z
" transform="scale(0.015625)"/>
       </defs>
       <use xlink:href="#DejaVuSans-2212"/>
       <use xlink:href="#DejaVuSans-34" transform="translate(83.789062 0)"/>
       <use xlink:href="#DejaVuSans-37" transform="translate(147.412109 0)"/>
       <use xlink:href="#DejaVuSans-2e" transform="translate(211.035156 0)"/>
       <use xlink:href="#DejaVuSans-31" transform="translate(242.822266 0)"/>
       <use xlink:href="#DejaVuSans-35" transform="translate(306.445312 0)"/>
      </g>
     </g>
    </g>
    <g id="xtick_2">
     <g id="line2d_3">
      <path d="M 273.046457 738.886662 
L 273.046457 133.753338 
" clip-path="url(#p946a57527b)" style="fill: none; stroke: #b0b0b0; stroke-width: 0.8; stroke-linecap: square"/>
     </g>
     <g id="line2d_4">
      <g>
       <use xlink:href="#m64c4053044" x="273.046457" y="738.886662" style="stroke: #000000; stroke-width: 0.8"/>
      </g>
     </g>
     <g id="text_2">
      <!-- −47.10 -->
      <g transform="translate(261.913392 777.428044) rotate(-45) scale(0.1 -0.1)">
       <defs>
        <path id="DejaVuSans-30" d="M 2034 4250 
Q 1547 4250 1301 3770 
Q 1056 3291 1056 2328 
Q 1056 1369 1301 889 
Q 1547 409 2034 409 
Q 2525 409 2770 889 
Q 3016 1369 3016 2328 
Q 3016 3291 2770 3770 
Q 2525 4250 2034 4250 
z
M 2034 4750 
Q 2819 4750 3233 4129 
Q 3647 3509 3647 2328 
Q 3647 1150 3233 529 
Q 2819 -91 2034 -91 
Q 1250 -91 836 529 
Q 422 1150 422 2328 
Q 422 3509 836 4129 
Q 1250 4750 2034 4750 
z
" transform="scale(0.015625)"/>
       </defs>
       <use xlink:href="#DejaVuSans-2212"/>
       <use xlink:href="#DejaVuSans-34" transform="translate(83.789062 0)"/>
       <use xlink:href="#DejaVuSans-37" transform="translate(147.412109 0)"/>
       <use xlink:href="#DejaVuSans-2e" transform="translate(211.035156 0)"/>
       <use xlink:href="#DejaVuSans-31" transform="translate(242.822266 0)"/>
       <use xlink:href="#DejaVuSans-30" transform="translate(306.445312 0)"/>
      </g>
     </g>
    </g>
    <g id="xtick_3">
     <g id="line2d_5">
      <path d="M 374.331823 738.886662 
L 374.331823 133.753338 
" clip-path="url(#p946a57527b)" style="fill: none; stroke: #b0b0b0; stroke-width: 0.8; stroke-linecap: square"/>
     </g>
     <g id="line2d_6">
      <g>
       <use xlink:href="#m64c4053044" x="374.331823" y="738.886662" style="stroke: #000000; stroke-width: 0.8"/>
      </g>
     </g>
     <g id="text_3">
      <!-- −47.05 -->
      <g transform="translate(363.198758 777.428044) rotate(-45) scale(0.1 -0.1)">
       <use xlink:href="#DejaVuSans-2212"/>
       <use xlink:href="#DejaVuSans-34" transform="translate(83.789062 0)"/>
       <use xlink:href="#DejaVuSans-37" transform="translate(147.412109 0)"/>
       <use xlink:href="#DejaVuSans-2e" transform="translate(211.035156 0)"/>
       <use xlink:href="#DejaVuSans-30" transform="translate(242.822266 0)"/>
       <use xlink:href="#DejaVuSans-35" transform="translate(306.445312 0)"/>
      </g>
     </g>
    </g>
    <g id="xtick_4">
     <g id="line2d_7">
      <path d="M 475.617189 738.886662 
L 475.617189 133.753338 
" clip-path="url(#p946a57527b)" style="fill: none; stroke: #b0b0b0; stroke-width: 0.8; stroke-linecap: square"/>
     </g>
     <g id="line2d_8">
      <g>
       <use xlink:href="#m64c4053044" x="475.617189" y="738.886662" style="stroke: #000000; stroke-width: 0.8"/>
      </g>
     </g>
     <g id="text_4">
      <!-- −47.00 -->
      <g transform="translate(464.484124 777.428044) rotate(-45) scale(0.1 -0.1)">
       <use xlink:href="#DejaVuSans-2212"/>
       <use xlink:href="#DejaVuSans-34" transform="translate(83.789062 0)"/>
       <use xlink:href="#DejaVuSans-37" transform="translate(147.412109 0)"/>
       <use xlink:href="#DejaVuSans-2e" transform="translate(211.035156 0)"/>
       <use xlink:href="#DejaVuSans-30" transform="translate(242.822266 0)"/>
       <use xlink:href="#DejaVuSans-30" transform="translate(306.445312 0)"/>
      </g>
     </g>
    </g>
    <g id="xtick_5">
     <g id="line2d_9">
      <path d="M 576.902555 738.886662 
L 576.902555 133.753338 
" clip-path="url(#p946a57527b)" style="fill: none; stroke: #b0b0b0; stroke-width: 0.8; stroke-linecap: square"/>
     </g>
     <g id="line2d_10">
      <g>
       <use xlink:href="#m64c4053044" x="576.902555" y="738.886662" style="stroke: #000000; stroke-width: 0.8"/>
      </g>
     </g>
     <g id="text_5">
      <!-- −46.95 -->
      <g transform="translate(565.769491 777.428044) rotate(-45) scale(0.1 -0.1)">
       <defs>
        <path id="DejaVuSans-36" d="M 2113 2584 
Q 1688 2584 1439 2293 
Q 1191 2003 1191 1497 
Q 1191 994 1439 701 
Q 1688 409 2113 409 
Q 2538 409 2786 701 
Q 3034 994 3034 1497 
Q 3034 2003 2786 2293 
Q 2538 2584 2113 2584 
z
M 3366 4563 
L 3366 3988 
Q 3128 4100 2886 4159 
Q 2644 4219 2406 4219 
Q 1781 4219 1451 3797 
Q 1122 3375 1075 2522 
Q 1259 2794 1537 2939 
Q 1816 3084 2150 3084 
Q 2853 3084 3261 2657 
Q 3669 2231 3669 1497 
Q 3669 778 3244 343 
Q 2819 -91 2113 -91 
Q 1303 -91 875 529 
Q 447 1150 447 2328 
Q 447 3434 972 4092 
Q 1497 4750 2381 4750 
Q 2619 4750 2861 4703 
Q 3103 4656 3366 4563 
z
" transform="scale(0.015625)"/>
        <path id="DejaVuSans-39" d="M 703 97 
L 703 672 
Q 941 559 1184 500 
Q 1428 441 1663 441 
Q 2288 441 2617 861 
Q 2947 1281 2994 2138 
Q 2813 1869 2534 1725 
Q 2256 1581 1919 1581 
Q 1219 1581 811 2004 
Q 403 2428 403 3163 
Q 403 3881 828 4315 
Q 1253 4750 1959 4750 
Q 2769 4750 3195 4129 
Q 3622 3509 3622 2328 
Q 3622 1225 3098 567 
Q 2575 -91 1691 -91 
Q 1453 -91 1209 -44 
Q 966 3 703 97 
z
M 1959 2075 
Q 2384 2075 2632 2365 
Q 2881 2656 2881 3163 
Q 2881 3666 2632 3958 
Q 2384 4250 1959 4250 
Q 1534 4250 1286 3958 
Q 1038 3666 1038 3163 
Q 1038 2656 1286 2365 
Q 1534 2075 1959 2075 
z
" transform="scale(0.015625)"/>
       </defs>
       <use xlink:href="#DejaVuSans-2212"/>
       <use xlink:href="#DejaVuSans-34" transform="translate(83.789062 0)"/>
       <use xlink:href="#DejaVuSans-36" transform="translate(147.412109 0)"/>
       <use xlink:href="#DejaVuSans-2e" transform="translate(211.035156 0)"/>
       <use xlink:href="#DejaVuSans-39" transform="translate(242.822266 0)"/>
       <use xlink:href="#DejaVuSans-35" transform="translate(306.445312 0)"/>
      </g>
     </g>
    </g>
    <g id="text_6">
     <!-- Longitude (°) -->
     <g transform="translate(336.139844 790.497042) scale(0.1 -0.1)">
      <defs>
       <path id="DejaVuSans-4c" d="M 628 4666 
L 1259 4666 
L 1259 531 
L 3531 531 
L 3531 0 
L 628 0 
L 628 4666 
z
" transform="scale(0.015625)"/>
       <path id="DejaVuSans-6f" d="M 1959 3097 
Q 1497 3097 1228 2736 
Q 959 2375 959 1747 
Q 959 1119 1226 758 
Q 1494 397 1959 397 
Q 2419 397 2687 759 
Q 2956 1122 2956 1747 
Q 2956 2369 2687 2733 
Q 2419 3097 1959 3097 
z
M 1959 3584 
Q 2709 3584 3137 3096 
Q 3566 2609 3566 1747 
Q 3566 888 3137 398 
Q 2709 -91 1959 -91 
Q 1206 -91 779 398 
Q 353 888 353 1747 
Q 353 2609 779 3096 
Q 1206 3584 1959 3584 
z
" transform="scale(0.015625)"/>
       <path id="DejaVuSans-6e" d="M 3513 2113 
L 3513 0 
L 2938 0 
L 2938 2094 
Q 2938 2591 2744 2837 
Q 2550 3084 2163 3084 
Q 1697 3084 1428 2787 
Q 1159 2491 1159 1978 
L 1159 0 
L 581 0 
L 581 3500 
L 1159 3500 
L 1159 2956 
Q 1366 3272 1645 3428 
Q 1925 3584 2291 3584 
Q 2894 3584 3203 3211 
Q 3513 2838 3513 2113 
z
" transform="scale(0.015625)"/>
       <path id="DejaVuSans-67" d="M 2906 1791 
Q 2906 2416 2648 2759 
Q 2391 3103 1925 3103 
Q 1463 3103 1205 2759 
Q 947 2416 947 1791 
Q 947 1169 1205 825 
Q 1463 481 1925 481 
Q 2391 481 2648 825 
Q 2906 1169 2906 1791 
z
M 3481 434 
Q 3481 -459 3084 -895 
Q 2688 -1331 1869 -1331 
Q 1566 -1331 1297 -1286 
Q 1028 -1241 775 -1147 
L 775 -588 
Q 1028 -725 1275 -790 
Q 1522 -856 1778 -856 
Q 2344 -856 2625 -561 
Q 2906 -266 2906 331 
L 2906 616 
Q 2728 306 2450 153 
Q 2172 0 1784 0 
Q 1141 0 747 490 
Q 353 981 353 1791 
Q 353 2603 747 3093 
Q 1141 3584 1784 3584 
Q 2172 3584 2450 3431 
Q 2728 3278 2906 2969 
L 2906 3500 
L 3481 3500 
L 3481 434 
z
" transform="scale(0.015625)"/>
       <path id="DejaVuSans-69" d="M 603 3500 
L 1178 3500 
L 1178 0 
L 603 0 
L 603 3500 
z
M 603 4863 
L 1178 4863 
L 1178 4134 
L 603 4134 
L 603 4863 
z
" transform="scale(0.015625)"/>
       <path id="DejaVuSans-74" d="M 1172 4494 
L 1172 3500 
L 2356 3500 
L 2356 3053 
L 1172 3053 
L 1172 1153 
Q 1172 725 1289 603 
Q 1406 481 1766 481 
L 2356 481 
L 2356 0 
L 1766 0 
Q 1100 0 847 248 
Q 594 497 594 1153 
L 594 3053 
L 172 3053 
L 172 3500 
L 594 3500 
L 594 4494 
L 1172 4494 
z
" transform="scale(0.015625)"/>
       <path id="DejaVuSans-75" d="M 544 1381 
L 544 3500 
L 1119 3500 
L 1119 1403 
Q 1119 906 1312 657 
Q 1506 409 1894 409 
Q 2359 409 2629 706 
Q 2900 1003 2900 1516 
L 2900 3500 
L 3475 3500 
L 3475 0 
L 2900 0 
L 2900 538 
Q 2691 219 2414 64 
Q 2138 -91 1772 -91 
Q 1169 -91 856 284 
Q 544 659 544 1381 
z
M 1991 3584 
L 1991 3584 
z
" transform="scale(0.015625)"/>
       <path id="DejaVuSans-64" d="M 2906 2969 
L 2906 4863 
L 3481 4863 
L 3481 0 
L 2906 0 
L 2906 525 
Q 2725 213 2448 61 
Q 2172 -91 1784 -91 
Q 1150 -91 751 415 
Q 353 922 353 1747 
Q 353 2572 751 3078 
Q 1150 3584 1784 3584 
Q 2172 3584 2448 3432 
Q 2725 3281 2906 2969 
z
M 947 1747 
Q 947 1113 1208 752 
Q 1469 391 1925 391 
Q 2381 391 2643 752 
Q 2906 1113 2906 1747 
Q 2906 2381 2643 2742 
Q 2381 3103 1925 3103 
Q 1469 3103 1208 2742 
Q 947 2381 947 1747 
z
" transform="scale(0.015625)"/>
       <path id="DejaVuSans-65" d="M 3597 1894 
L 3597 1613 
L 953 1613 
Q 991 1019 1311 708 
Q 1631 397 2203 397 
Q 2534 397 2845 478 
Q 3156 559 3463 722 
L 3463 178 
Q 3153 47 2828 -22 
Q 2503 -91 2169 -91 
Q 1331 -91 842 396 
Q 353 884 353 1716 
Q 353 2575 817 3079 
Q 1281 3584 2069 3584 
Q 2775 3584 3186 3129 
Q 3597 2675 3597 1894 
z
M 3022 2063 
Q 3016 2534 2758 2815 
Q 2500 3097 2075 3097 
Q 1594 3097 1305 2825 
Q 1016 2553 972 2059 
L 3022 2063 
z
" transform="scale(0.015625)"/>
       <path id="DejaVuSans-20" transform="scale(0.015625)"/>
       <path id="DejaVuSans-28" d="M 1984 4856 
Q 1566 4138 1362 3434 
Q 1159 2731 1159 2009 
Q 1159 1288 1364 580 
Q 1569 -128 1984 -844 
L 1484 -844 
Q 1016 -109 783 600 
Q 550 1309 550 2009 
Q 550 2706 781 3412 
Q 1013 4119 1484 4856 
L 1984 4856 
z
" transform="scale(0.015625)"/>
       <path id="DejaVuSans-b0" d="M 1600 4347 
Q 1350 4347 1178 4173 
Q 1006 4000 1006 3750 
Q 1006 3503 1178 3333 
Q 1350 3163 1600 3163 
Q 1850 3163 2022 3333 
Q 2194 3503 2194 3750 
Q 2194 3997 2020 4172 
Q 1847 4347 1600 4347 
z
M 1600 4750 
Q 1800 4750 1984 4673 
Q 2169 4597 2303 4453 
Q 2447 4313 2519 4134 
Q 2591 3956 2591 3750 
Q 2591 3338 2302 3052 
Q 2013 2766 1594 2766 
Q 1172 2766 890 3047 
Q 609 3328 609 3750 
Q 609 4169 896 4459 
Q 1184 4750 1600 4750 
z
" transform="scale(0.015625)"/>
       <path id="DejaVuSans-29" d="M 513 4856 
L 1013 4856 
Q 1481 4119 1714 3412 
Q 1947 2706 1947 2009 
Q 1947 1309 1714 600 
Q 1481 -109 1013 -844 
L 513 -844 
Q 928 -128 1133 580 
Q 1338 1288 1338 2009 
Q 1338 2731 1133 3434 
Q 928 4138 513 4856 
z
" transform="scale(0.015625)"/>
      </defs>
      <use xlink:href="#DejaVuSans-4c"/>
      <use xlink:href="#DejaVuSans-6f" transform="translate(53.962891 0)"/>
      <use xlink:href="#DejaVuSans-6e" transform="translate(115.144531 0)"/>
      <use xlink:href="#DejaVuSans-67" transform="translate(178.523438 0)"/>
      <use xlink:href="#DejaVuSans-69" transform="translate(242 0)"/>
      <use xlink:href="#DejaVuSans-74" transform="translate(269.783203 0)"/>
      <use xlink:href="#DejaVuSans-75" transform="translate(308.992188 0)"/>
      <use xlink:href="#DejaVuSans-64" transform="translate(372.371094 0)"/>
      <use xlink:href="#DejaVuSans-65" transform="translate(435.847656 0)"/>
      <use xlink:href="#DejaVuSans-20" transform="translate(497.371094 0)"/>
      <use xlink:href="#DejaVuSans-28" transform="translate(529.158203 0)"/>
      <use xlink:href="#DejaVuSans-b0" transform="translate(568.171875 0)"/>
      <use xlink:href="#DejaVuSans-29" transform="translate(618.171875 0)"/>
     </g>
    </g>
   </g>
   <g id="matplotlib.axis_2">
    <g id="ytick_1">
     <g id="line2d_11">
      <path d="M 90 691.272833 
L 648 691.272833 
" clip-path="url(#p946a57527b)" style="fill: none; stroke: #b0b0b0; stroke-width: 0.8; stroke-linecap: square"/>
     </g>
     <g id="line2d_12">
      <defs>
       <path id="m4b87a4b7a7" d="M 0 0 
L -3.5 0 
" style="stroke: #000000; stroke-width: 0.8"/>
      </defs>
      <g>
       <use xlink:href="#m4b87a4b7a7" x="90" y="691.272833" style="stroke: #000000; stroke-width: 0.8"/>
      </g>
     </g>
     <g id="text_7">
      <!-- −1.80 -->
      <g transform="translate(52.354687 695.072051) scale(0.1 -0.1)">
       <defs>
        <path id="DejaVuSans-38" d="M 2034 2216 
Q 1584 2216 1326 1975 
Q 1069 1734 1069 1313 
Q 1069 891 1326 650 
Q 1584 409 2034 409 
Q 2484 409 2743 651 
Q 3003 894 3003 1313 
Q 3003 1734 2745 1975 
Q 2488 2216 2034 2216 
z
M 1403 2484 
Q 997 2584 770 2862 
Q 544 3141 544 3541 
Q 544 4100 942 4425 
Q 1341 4750 2034 4750 
Q 2731 4750 3128 4425 
Q 3525 4100 3525 3541 
Q 3525 3141 3298 2862 
Q 3072 2584 2669 2484 
Q 3125 2378 3379 2068 
Q 3634 1759 3634 1313 
Q 3634 634 3220 271 
Q 2806 -91 2034 -91 
Q 1263 -91 848 271 
Q 434 634 434 1313 
Q 434 1759 690 2068 
Q 947 2378 1403 2484 
z
M 1172 3481 
Q 1172 3119 1398 2916 
Q 1625 2713 2034 2713 
Q 2441 2713 2670 2916 
Q 2900 3119 2900 3481 
Q 2900 3844 2670 4047 
Q 2441 4250 2034 4250 
Q 1625 4250 1398 4047 
Q 1172 3844 1172 3481 
z
" transform="scale(0.015625)"/>
       </defs>
       <use xlink:href="#DejaVuSans-2212"/>
       <use xlink:href="#DejaVuSans-31" transform="translate(83.789062 0)"/>
       <use xlink:href="#DejaVuSans-2e" transform="translate(147.412109 0)"/>
       <use xlink:href="#DejaVuSans-38" transform="translate(179.199219 0)"/>
       <use xlink:href="#DejaVuSans-30" transform="translate(242.822266 0)"/>
      </g>
     </g>
    </g>
    <g id="ytick_2">
     <g id="line2d_13">
      <path d="M 90 589.942337 
L 648 589.942337 
" clip-path="url(#p946a57527b)" style="fill: none; stroke: #b0b0b0; stroke-width: 0.8; stroke-linecap: square"/>
     </g>
     <g id="line2d_14">
      <g>
       <use xlink:href="#m4b87a4b7a7" x="90" y="589.942337" style="stroke: #000000; stroke-width: 0.8"/>
      </g>
     </g>
     <g id="text_8">
      <!-- −1.75 -->
      <g transform="translate(52.354687 593.741556) scale(0.1 -0.1)">
       <use xlink:href="#DejaVuSans-2212"/>
       <use xlink:href="#DejaVuSans-31" transform="translate(83.789062 0)"/>
       <use xlink:href="#DejaVuSans-2e" transform="translate(147.412109 0)"/>
       <use xlink:href="#DejaVuSans-37" transform="translate(179.199219 0)"/>
       <use xlink:href="#DejaVuSans-35" transform="translate(242.822266 0)"/>
      </g>
     </g>
    </g>
    <g id="ytick_3">
     <g id="line2d_15">
      <path d="M 90 488.611842 
L 648 488.611842 
" clip-path="url(#p946a57527b)" style="fill: none; stroke: #b0b0b0; stroke-width: 0.8; stroke-linecap: square"/>
     </g>
     <g id="line2d_16">
      <g>
       <use xlink:href="#m4b87a4b7a7" x="90" y="488.611842" style="stroke: #000000; stroke-width: 0.8"/>
      </g>
     </g>
     <g id="text_9">
      <!-- −1.70 -->
      <g transform="translate(52.354687 492.411061) scale(0.1 -0.1)">
       <use xlink:href="#DejaVuSans-2212"/>
       <use xlink:href="#DejaVuSans-31" transform="translate(83.789062 0)"/>
       <use xlink:href="#DejaVuSans-2e" transform="translate(147.412109 0)"/>
       <use xlink:href="#DejaVuSans-37" transform="translate(179.199219 0)"/>
       <use xlink:href="#DejaVuSans-30" transform="translate(242.822266 0)"/>
      </g>
     </g>
    </g>
    <g id="ytick_4">
     <g id="line2d_17">
      <path d="M 90 387.281347 
L 648 387.281347 
" clip-path="url(#p946a57527b)" style="fill: none; stroke: #b0b0b0; stroke-width: 0.8; stroke-linecap: square"/>
     </g>
     <g id="line2d_18">
      <g>
       <use xlink:href="#m4b87a4b7a7" x="90" y="387.281347" style="stroke: #000000; stroke-width: 0.8"/>
      </g>
     </g>
     <g id="text_10">
      <!-- −1.65 -->
      <g transform="translate(52.354687 391.080566) scale(0.1 -0.1)">
       <use xlink:href="#DejaVuSans-2212"/>
       <use xlink:href="#DejaVuSans-31" transform="translate(83.789062 0)"/>
       <use xlink:href="#DejaVuSans-2e" transform="translate(147.412109 0)"/>
       <use xlink:href="#DejaVuSans-36" transform="translate(179.199219 0)"/>
       <use xlink:href="#DejaVuSans-35" transform="translate(242.822266 0)"/>
      </g>
     </g>
    </g>
    <g id="ytick_5">
     <g id="line2d_19">
      <path d="M 90 285.950852 
L 648 285.950852 
" clip-path="url(#p946a57527b)" style="fill: none; stroke: #b0b0b0; stroke-width: 0.8; stroke-linecap: square"/>
     </g>
     <g id="line2d_20">
      <g>
       <use xlink:href="#m4b87a4b7a7" x="90" y="285.950852" style="stroke: #000000; stroke-width: 0.8"/>
      </g>
     </g>
     <g id="text_11">
      <!-- −1.60 -->
      <g transform="translate(52.354687 289.750071) scale(0.1 -0.1)">
       <use xlink:href="#DejaVuSans-2212"/>
       <use xlink:href="#DejaVuSans-31" transform="translate(83.789062 0)"/>
       <use xlink:href="#DejaVuSans-2e" transform="translate(147.412109 0)"/>
       <use xlink:href="#DejaVuSans-36" transform="translate(179.199219 0)"/>
       <use xlink:href="#DejaVuSans-30" transform="translate(242.822266 0)"/>
      </g>
     </g>
    </g>
    <g id="ytick_6">
     <g id="line2d_21">
      <path d="M 90 184.620357 
L 648 184.620357 
" clip-path="url(#p946a57527b)" style="fill: none; stroke: #b0b0b0; stroke-width: 0.8; stroke-linecap: square"/>
     </g>
     <g id="line2d_22">
      <g>
       <use xlink:href="#m4b87a4b7a7" x="90" y="184.620357" style="stroke: #000000; stroke-width: 0.8"/>
      </g>
     </g>
     <g id="text_12">
      <!-- −1.55 -->
      <g transform="translate(52.354687 188.419575) scale(0.1 -0.1)">
       <use xlink:href="#DejaVuSans-2212"/>
       <use xlink:href="#DejaVuSans-31" transform="translate(83.789062 0)"/>
       <use xlink:href="#DejaVuSans-2e" transform="translate(147.412109 0)"/>
       <use xlink:href="#DejaVuSans-35" transform="translate(179.199219 0)"/>
       <use xlink:href="#DejaVuSans-35" transform="translate(242.822266 0)"/>
      </g>
     </g>
    </g>
    <g id="text_13">
     <!-- Latitude (°) -->
     <g transform="translate(46.275 464.889531) rotate(-90) scale(0.1 -0.1)">
      <defs>
       <path id="DejaVuSans-61" d="M 2194 1759 
Q 1497 1759 1228 1600 
Q 959 1441 959 1056 
Q 959 750 1161 570 
Q 1363 391 1709 391 
Q 2188 391 2477 730 
Q 2766 1069 2766 1631 
L 2766 1759 
L 2194 1759 
z
M 3341 1997 
L 3341 0 
L 2766 0 
L 2766 531 
Q 2569 213 2275 61 
Q 1981 -91 1556 -91 
Q 1019 -91 701 211 
Q 384 513 384 1019 
Q 384 1609 779 1909 
Q 1175 2209 1959 2209 
L 2766 2209 
L 2766 2266 
Q 2766 2663 2505 2880 
Q 2244 3097 1772 3097 
Q 1472 3097 1187 3025 
Q 903 2953 641 2809 
L 641 3341 
Q 956 3463 1253 3523 
Q 1550 3584 1831 3584 
Q 2591 3584 2966 3190 
Q 3341 2797 3341 1997 
z
" transform="scale(0.015625)"/>
      </defs>
      <use xlink:href="#DejaVuSans-4c"/>
      <use xlink:href="#DejaVuSans-61" transform="translate(55.712891 0)"/>
      <use xlink:href="#DejaVuSans-74" transform="translate(116.992188 0)"/>
      <use xlink:href="#DejaVuSans-69" transform="translate(156.201172 0)"/>
      <use xlink:href="#DejaVuSans-74" transform="translate(183.984375 0)"/>
      <use xlink:href="#DejaVuSans-75" transform="translate(223.193359 0)"/>
      <use xlink:href="#DejaVuSans-64" transform="translate(286.572266 0)"/>
      <use xlink:href="#DejaVuSans-65" transform="translate(350.048828 0)"/>
      <use xlink:href="#DejaVuSans-20" transform="translate(411.572266 0)"/>
      <use xlink:href="#DejaVuSans-28" transform="translate(443.359375 0)"/>
      <use xlink:href="#DejaVuSans-b0" transform="translate(482.373047 0)"/>
      <use xlink:href="#DejaVuSans-29" transform="translate(532.373047 0)"/>
     </g>
    </g>
   </g>
   <g id="patch_3">
    <path d="M 90 738.886662 
L 90 133.753338 
" style="fill: none; stroke: #000000; stroke-width: 0.8; stroke-linejoin: miter; stroke-linecap: square"/>
   </g>
   <g id="patch_4">
    <path d="M 648 738.886662 
L 648 133.753338 
" style="fill: none; stroke: #000000; stroke-width: 0.8; stroke-linejoin: miter; stroke-linecap: square"/>
   </g>
   <g id="patch_5">
    <path d="M 90 738.886662 
L 648 738.886662 
" style="fill: none; stroke: #000000; stroke-width: 0.8; stroke-linejoin: miter; stroke-linecap: square"/>
   </g>
   <g id="patch_6">
    <path d="M 90 133.753338 
L 648 133.753338 
" style="fill: none; stroke: #000000; stroke-width: 0.8; stroke-linejoin: miter; stroke-linecap: square"/>
   </g>
   <g id="legend_1">
    <g id="patch_7">
     <path d="M 279.8375 899.205202 
L 458.1625 899.205202 
Q 460.1625 899.205202 460.1625 897.205202 
L 460.1625 866.913327 
Q 460.1625 864.913327 458.1625 864.913327 
L 279.8375 864.913327 
Q 277.8375 864.913327 277.8375 866.913327 
L 277.8375 897.205202 
Q 277.8375 899.205202 279.8375 899.205202 
z
" style="fill: #ffffff; opacity: 0.8; stroke: #cccccc; stroke-linejoin: miter"/>
    </g>
    <g id="text_14">
     <!-- Legenda -->
     <g transform="translate(343.280625 878.031452) scale(0.12 -0.12)">
      <use xlink:href="#DejaVuSans-4c"/>
      <use xlink:href="#DejaVuSans-65" transform="translate(53.962891 0)"/>
      <use xlink:href="#DejaVuSans-67" transform="translate(115.486328 0)"/>
      <use xlink:href="#DejaVuSans-65" transform="translate(178.962891 0)"/>
      <use xlink:href="#DejaVuSans-6e" transform="translate(240.486328 0)"/>
      <use xlink:href="#DejaVuSans-64" transform="translate(303.865234 0)"/>
      <use xlink:href="#DejaVuSans-61" transform="translate(367.341797 0)"/>
     </g>
    </g>
    <g id="patch_8">
     <path style="fill: none; stroke: #000000; stroke-linejoin: miter"/>
    </g>
    <g id="text_15">
     <!-- Gleba Federal -->
     <g transform="translate(309.8375 893.125514) scale(0.1 -0.1)">
      <defs>
       <path id="DejaVuSans-47" d="M 3809 666 
L 3809 1919 
L 2778 1919 
L 2778 2438 
L 4434 2438 
L 4434 434 
Q 4069 175 3628 42 
Q 3188 -91 2688 -91 
Q 1594 -91 976 548 
Q 359 1188 359 2328 
Q 359 3472 976 4111 
Q 1594 4750 2688 4750 
Q 3144 4750 3555 4637 
Q 3966 4525 4313 4306 
L 4313 3634 
Q 3963 3931 3569 4081 
Q 3175 4231 2741 4231 
Q 1884 4231 1454 3753 
Q 1025 3275 1025 2328 
Q 1025 1384 1454 906 
Q 1884 428 2741 428 
Q 3075 428 3337 486 
Q 3600 544 3809 666 
z
" transform="scale(0.015625)"/>
       <path id="DejaVuSans-6c" d="M 603 4863 
L 1178 4863 
L 1178 0 
L 603 0 
L 603 4863 
z
" transform="scale(0.015625)"/>
       <path id="DejaVuSans-62" d="M 3116 1747 
Q 3116 2381 2855 2742 
Q 2594 3103 2138 3103 
Q 1681 3103 1420 2742 
Q 1159 2381 1159 1747 
Q 1159 1113 1420 752 
Q 1681 391 2138 391 
Q 2594 391 2855 752 
Q 3116 1113 3116 1747 
z
M 1159 2969 
Q 1341 3281 1617 3432 
Q 1894 3584 2278 3584 
Q 2916 3584 3314 3078 
Q 3713 2572 3713 1747 
Q 3713 922 3314 415 
Q 2916 -91 2278 -91 
Q 1894 -91 1617 61 
Q 1341 213 1159 525 
L 1159 0 
L 581 0 
L 581 4863 
L 1159 4863 
L 1159 2969 
z
" transform="scale(0.015625)"/>
       <path id="DejaVuSans-46" d="M 628 4666 
L 3309 4666 
L 3309 4134 
L 1259 4134 
L 1259 2759 
L 3109 2759 
L 3109 2228 
L 1259 2228 
L 1259 0 
L 628 0 
L 628 4666 
z
" transform="scale(0.015625)"/>
       <path id="DejaVuSans-72" d="M 2631 2963 
Q 2534 3019 2420 3045 
Q 2306 3072 2169 3072 
Q 1681 3072 1420 2755 
Q 1159 2438 1159 1844 
L 1159 0 
L 581 0 
L 581 3500 
L 1159 3500 
L 1159 2956 
Q 1341 3275 1631 3429 
Q 1922 3584 2338 3584 
Q 2397 3584 2469 3576 
Q 2541 3569 2628 3553 
L 2631 2963 
z
" transform="scale(0.015625)"/>
      </defs>
      <use xlink:href="#DejaVuSans-47"/>
      <use xlink:href="#DejaVuSans-6c" transform="translate(77.490234 0)"/>
      <use xlink:href="#DejaVuSans-65" transform="translate(105.273438 0)"/>
      <use xlink:href="#DejaVuSans-62" transform="translate(166.796875 0)"/>
      <use xlink:href="#DejaVuSans-61" transform="translate(230.273438 0)"/>
      <use xlink:href="#DejaVuSans-20" transform="translate(291.552734 0)"/>
      <use xlink:href="#DejaVuSans-46" transform="translate(323.339844 0)"/>
      <use xlink:href="#DejaVuSans-65" transform="translate(375.359375 0)"/>
      <use xlink:href="#DejaVuSans-64" transform="translate(436.882812 0)"/>
      <use xlink:href="#DejaVuSans-65" transform="translate(500.359375 0)"/>
      <use xlink:href="#DejaVuSans-72" transform="translate(561.882812 0)"/>
      <use xlink:href="#DejaVuSans-61" transform="translate(602.996094 0)"/>
      <use xlink:href="#DejaVuSans-6c" transform="translate(664.275391 0)"/>
     </g>
    </g>
    <g id="patch_9">
     <path d="M 399.045312 893.125514 
L 419.045312 893.125514 
L 419.045312 886.125514 
L 399.045312 886.125514 
z
" style="fill: #e0bd1f; opacity: 0.6"/>
    </g>
    <g id="text_16">
     <!-- SIGEF -->
     <g transform="translate(427.045312 893.125514) scale(0.1 -0.1)">
      <defs>
       <path id="DejaVuSans-53" d="M 3425 4513 
L 3425 3897 
Q 3066 4069 2747 4153 
Q 2428 4238 2131 4238 
Q 1616 4238 1336 4038 
Q 1056 3838 1056 3469 
Q 1056 3159 1242 3001 
Q 1428 2844 1947 2747 
L 2328 2669 
Q 3034 2534 3370 2195 
Q 3706 1856 3706 1288 
Q 3706 609 3251 259 
Q 2797 -91 1919 -91 
Q 1588 -91 1214 -16 
Q 841 59 441 206 
L 441 856 
Q 825 641 1194 531 
Q 1563 422 1919 422 
Q 2459 422 2753 634 
Q 3047 847 3047 1241 
Q 3047 1584 2836 1778 
Q 2625 1972 2144 2069 
L 1759 2144 
Q 1053 2284 737 2584 
Q 422 2884 422 3419 
Q 422 4038 858 4394 
Q 1294 4750 2059 4750 
Q 2388 4750 2728 4690 
Q 3069 4631 3425 4513 
z
" transform="scale(0.015625)"/>
       <path id="DejaVuSans-49" d="M 628 4666 
L 1259 4666 
L 1259 0 
L 628 0 
L 628 4666 
z
" transform="scale(0.015625)"/>
       <path id="DejaVuSans-45" d="M 628 4666 
L 3578 4666 
L 3578 4134 
L 1259 4134 
L 1259 2753 
L 3481 2753 
L 3481 2222 
L 1259 2222 
L 1259 531 
L 3634 531 
L 3634 0 
L 628 0 
L 628 4666 
z
" transform="scale(0.015625)"/>
      </defs>
      <use xlink:href="#DejaVuSans-53"/>
      <use xlink:href="#DejaVuSans-49" transform="translate(63.476562 0)"/>
      <use xlink:href="#DejaVuSans-47" transform="translate(92.96875 0)"/>
      <use xlink:href="#DejaVuSans-45" transform="translate(170.458984 0)"/>
      <use xlink:href="#DejaVuSans-46" transform="translate(233.642578 0)"/>
     </g>
    </g>
   </g>
  </g>
 </g>
 <defs>
  <clipPath id="p946a57527b">
   <rect x="90" y="133.753338" width="558" height="605.133324"/>
  </clipPath>
 </defs>
</svg>
