<?xml version="1.0" encoding="utf-8" standalone="no"?>
<!DOCTYPE svg PUBLIC "-//W3C//DTD SVG 1.1//EN"
  "http://www.w3.org/Graphics/SVG/1.1/DTD/svg11.dtd">
<svg xmlns:xlink="http://www.w3.org/1999/xlink" width="720pt" height="864pt" viewBox="0 0 720 864" xmlns="http://www.w3.org/2000/svg" version="1.1">
 <metadata>
  <rdf:RDF xmlns:dc="http://purl.org/dc/elements/1.1/" xmlns:cc="http://creativecommons.org/ns#" xmlns:rdf="http://www.w3.org/1999/02/22-rdf-syntax-ns#">
   <cc:Work>
    <dc:type rdf:resource="http://purl.org/dc/dcmitype/StillImage"/>
    <dc:date>2025-06-16T16:54:06.170070</dc:date>
    <dc:format>image/svg+xml</dc:format>
    <dc:creator>
     <cc:Agent>
      <dc:title>Matplotlib v3.10.1, https://matplotlib.org/</dc:title>
     </cc:Agent>
    </dc:creator>
   </cc:Work>
  </rdf:RDF>
 </metadata>
 <defs>
  <style type="text/css">*{stroke-linejoin: round; stroke-linecap: butt}</style>
 </defs>
 <g id="figure_1">
  <g id="patch_1">
   <path d="M 0 864 
L 720 864 
L 720 0 
L 0 0 
z
" style="fill: #ffffff"/>
  </g>
  <g id="axes_1">
   <g id="patch_2">
    <path d="M 90 616.632312 
L 648 616.632312 
L 648 256.007688 
L 90 256.007688 
z
" style="fill: #ffffff"/>
   </g>
   <g id="PatchCollection_1">
    <path d="M 268.362749 385.014269 
L 293.606583 392.968208 
L 297.707207 394.281234 
L 299.957143 396.804243 
L 300.724658 396.793093 
L 302.298443 405.009408 
L 301.080726 409.565188 
L 296.520489 407.848841 
L 289.665462 405.300764 
L 260.759045 394.061754 
L 268.362749 385.014269 
" clip-path="url(#p3dbe9d257f)" style="fill: #e0bd1f; stroke: #0000ff; stroke-width: 0.5"/>
    <path d="M 298.584367 369.160419 
L 304.541183 375.096067 
L 305.476495 378.05248 
L 316.788752 396.402586 
L 318.168186 399.17626 
L 320.363857 402.952692 
L 322.95158 406.916856 
L 302.298443 405.009408 
L 300.724658 396.793093 
L 299.957143 396.804243 
L 297.707207 394.281234 
L 295.280065 390.748247 
L 296.766911 386.431459 
L 298.032813 381.832241 
L 296.250244 381.731405 
L 296.676085 380.027312 
L 298.584367 369.160419 
" clip-path="url(#p3dbe9d257f)" style="fill: #e0bd1f; stroke: #0000ff; stroke-width: 0.5"/>
    <path d="M 309.480193 353.34 
L 313.609604 359.014936 
L 313.602965 359.653901 
L 313.922471 360.093441 
L 314.785796 361.153556 
L 314.943625 361.431535 
L 311.170281 366.19789 
L 310.477524 367.440162 
L 308.310639 373.795295 
L 305.476495 378.05248 
L 304.541183 375.096067 
L 298.584367 369.160419 
L 296.676085 380.027312 
L 296.250244 381.731405 
L 298.032813 381.832241 
L 296.766911 386.431459 
L 295.280065 390.748247 
L 297.707207 394.281234 
L 293.606583 392.968208 
L 268.362749 385.014269 
L 280.507331 370.463417 
L 283.383579 361.505075 
L 283.446695 361.280001 
L 283.966692 361.145193 
L 287.192349 361.298953 
L 288.480957 361.682781 
L 292.675716 361.835979 
L 295.127778 360.912337 
L 309.132439 353.397377 
L 309.480193 353.34 
" clip-path="url(#p3dbe9d257f)" style="fill: #e0bd1f; stroke: #0000ff; stroke-width: 0.5"/>
    <path d="M 177.425215 272.399716 
L 188.542186 272.800938 
L 192.540676 275.140587 
L 195.381766 275.817402 
L 197.221968 276.42333 
L 199.185135 276.691418 
L 205.398549 276.206379 
L 217.84886 276.337998 
L 236.006184 278.417003 
L 241.023819 279.391652 
L 248.633044 281.482655 
L 250.752164 282.32395 
L 261.946385 287.625652 
L 265.96014 289.061694 
L 281.808306 299.468599 
L 289.624332 309.925694 
L 294.910831 327.77091 
L 302.039713 342.651791 
L 304.879348 347.679218 
L 309.368994 353.183662 
L 309.132439 353.397377 
L 295.127778 360.912337 
L 292.675716 361.835979 
L 288.480957 361.682781 
L 287.192673 361.298931 
L 283.966901 361.145014 
L 283.446695 361.280001 
L 282.729612 361.456434 
L 272.5606 321.57616 
L 242.044771 345.230575 
L 195.301386 342.85288 
L 195.09706 342.842308 
L 195.801368 340.213551 
L 196.200545 334.041245 
L 195.860306 327.314432 
L 194.088286 319.481392 
L 191.923766 312.570316 
L 187.99988 306.183265 
L 189.003656 300.136469 
L 187.654265 299.657232 
L 185.728383 298.028713 
L 177.239486 288.612781 
L 170.394807 289.295238 
L 169.446877 289.306374 
L 169.555846 287.679337 
L 167.783095 286.880215 
L 166.863544 273.583939 
L 177.425215 272.399716 
" clip-path="url(#p3dbe9d257f)" style="fill: #e0bd1f; stroke: #0000ff; stroke-width: 0.5"/>
    <path d="M 283.57185 514.531247 
L 285.908166 529.391284 
L 312.00147 522.33255 
L 318.964488 522.310269 
L 317.197987 524.241101 
L 315.248737 527.150164 
L 315.311315 529.436407 
L 314.958577 530.99009 
L 313.999462 531.641308 
L 312.86037 533.024525 
L 312.363638 534.195502 
L 312.312144 535.080138 
L 311.698013 536.506814 
L 311.561235 539.008645 
L 311.36521 540.633642 
L 311.667551 541.438059 
L 311.982651 541.854195 
L 312.169267 542.285373 
L 312.399641 542.975036 
L 312.830466 543.735994 
L 314.1916 545.52923 
L 314.928115 546.025586 
L 316.922758 546.672913 
L 317.949992 546.051777 
L 321.495195 546.733077 
L 245.654047 568.153789 
L 225.379126 565.631341 
L 193.630252 600.240284 
L 188.050536 597.625363 
L 188.818609 587.014169 
L 187.643533 578.508162 
L 189.266041 576.545042 
L 184.332573 569.521403 
L 188.555581 535.211617 
L 197.009312 534.7732 
L 283.57185 514.531247 
" clip-path="url(#p3dbe9d257f)" style="fill: #e0bd1f; stroke: #0000ff; stroke-width: 0.5"/>
    <path d="M 347.196428 390.320418 
L 353.81223 395.11852 
L 355.967472 396.681668 
L 362.058872 410.210289 
L 375.031314 425.346621 
L 382.355921 576.834713 
L 378.521116 576.523302 
L 378.322878 578.780586 
L 375.622181 579.05299 
L 373.875057 580.216166 
L 372.278008 582.111903 
L 370.866457 584.316803 
L 369.373511 586.976847 
L 368.308638 588.083208 
L 368.571667 590.019054 
L 367.157904 590.811758 
L 367.145165 591.792215 
L 366.500034 594.963094 
L 365.101242 596.825419 
L 364.210227 597.463822 
L 363.281573 597.58024 
L 359.951793 595.606531 
L 357.550128 597.204775 
L 356.40992 598.218102 
L 352.762847 596.622084 
L 352.693073 594.871744 
L 347.020318 595.363086 
L 344.360609 595.915695 
L 342.637288 596.441029 
L 341.835444 596.031571 
L 340.195194 593.731411 
L 334.405618 594.131383 
L 332.772007 593.574302 
L 332.079249 592.513084 
L 332.064856 591.029032 
L 330.753541 588.163427 
L 330.817235 586.335656 
L 329.278875 585.38863 
L 329.05516 583.700681 
L 332.031623 578.464162 
L 333.961496 576.823021 
L 335.277236 574.975757 
L 335.330942 571.750269 
L 335.543594 568.184432 
L 336.620667 566.180059 
L 338.252045 561.201465 
L 341.513147 558.579305 
L 342.668308 558.411065 
L 343.567058 554.361688 
L 344.415431 552.129473 
L 345.423827 551.029248 
L 349.182219 551.755672 
L 349.038245 548.021596 
L 347.781195 546.871776 
L 345.639249 545.577141 
L 343.719903 543.917609 
L 344.162351 541.905455 
L 341.46608 541.173456 
L 341.46608 542.658612 
L 340.212917 542.841892 
L 339.026199 542.666975 
L 338.058233 542.689817 
L 335.249546 543.490323 
L 332.8357 544.683581 
L 332.885539 545.521429 
L 328.884592 545.3571 
L 327.930461 545.733127 
L 327.527326 544.994991 
L 329.581775 543.263042 
L 328.514689 542.190674 
L 327.30361 541.889853 
L 326.697792 541.649195 
L 324.352046 541.228607 
L 322.661957 542.761112 
L 321.285314 545.546497 
L 319.030933 545.339271 
L 318.180366 544.764923 
L 317.064539 543.285885 
L 314.440255 542.814598 
L 313.83001 540.811348 
L 313.675511 538.360215 
L 313.032592 536.526307 
L 314.654003 533.050155 
L 315.991891 531.786143 
L 316.657516 529.781229 
L 316.423275 528.14454 
L 318.323224 526.349077 
L 319.573077 524.971435 
L 319.965148 522.348714 
L 320.981857 521.844557 
L 322.721225 519.781704 
L 323.919566 517.607427 
L 326.487353 517.144503 
L 329.224053 517.372907 
L 331.786318 515.436499 
L 330.2103 513.306242 
L 329.454965 510.969863 
L 329.332043 508.33934 
L 330.081278 505.955611 
L 329.663191 505.831953 
L 325.406412 503.899436 
L 322.95768 500.777592 
L 322.666403 499.611628 
L 305.94109 499.603265 
L 347.196428 390.320418 
" clip-path="url(#p3dbe9d257f)" style="fill: #e0bd1f; stroke: #0000ff; stroke-width: 0.5"/>
    <path d="M 420.63312 413.178394 
L 420.989746 414.857419 
L 426.872361 425.415689 
L 427.757276 426.084195 
L 427.907908 428.622786 
L 428.760687 431.032707 
L 429.759135 433.913894 
L 430.918163 436.123829 
L 432.634267 437.932648 
L 435.808989 439.357097 
L 437.360087 439.933672 
L 439.145966 440.780986 
L 440.622844 440.668458 
L 445.03799 438.125394 
L 443.902227 543.547158 
L 442.625262 542.941604 
L 440.390815 544.697519 
L 439.341433 543.709822 
L 436.906556 545.740367 
L 434.8975 544.121506 
L 432.439338 544.330958 
L 430.311786 543.89589 
L 429.762444 544.222322 
L 429.105132 541.854757 
L 427.67865 543.472494 
L 427.030748 546.025586 
L 426.196768 547.152543 
L 424.681135 550.339585 
L 422.885269 552.30439 
L 422.600092 554.419065 
L 424.400922 555.990576 
L 426.099304 557.851758 
L 427.81154 558.641153 
L 428.062408 560.041076 
L 428.035276 562.274956 
L 426.793177 561.257738 
L 426.507442 564.410788 
L 426.876786 566.148874 
L 427.222348 567.716474 
L 426.787635 569.089684 
L 425.427598 570.342545 
L 425.422056 571.8862 
L 424.34277 574.216443 
L 423.273452 574.979086 
L 422.468299 574.179121 
L 422.34757 572.110693 
L 421.272709 571.557523 
L 419.674563 569.88295 
L 418.564258 567.569974 
L 415.684142 565.810169 
L 412.570343 568.539281 
L 407.603084 567.890851 
L 405.738002 568.998315 
L 406.182683 571.441105 
L 404.448298 571.339708 
L 403.609892 572.800356 
L 402.216623 573.302287 
L 400.729218 574.521175 
L 399.423445 574.89999 
L 398.926734 575.37629 
L 398.097199 576.494905 
L 396.12634 576.623576 
L 394.703187 577.805704 
L 392.604422 577.324931 
L 391.251582 576.478741 
L 389.746993 576.58459 
L 387.538044 577.582876 
L 385.362308 578.004567 
L 384.739883 578.339381 
L 382.355921 576.834713 
L 375.031314 425.346621 
L 420.63312 413.178394 
" clip-path="url(#p3dbe9d257f)" style="fill: #e0bd1f; stroke: #0000ff; stroke-width: 0.5"/>
    <path d="M 214.129446 431.125721 
L 246.291982 443.935158 
L 238.614059 454.936859 
L 226.835531 471.440805 
L 197.009312 534.7732 
L 188.555581 535.211617 
L 185.936819 521.277448 
L 165.639211 455.419838 
L 157.791279 433.589127 
L 158.00724 432.567438 
L 161.521981 434.145647 
L 163.659501 435.765069 
L 177.7882 438.864091 
L 185.736368 438.981071 
L 207.874345 432.862445 
L 214.129446 431.125721 
" clip-path="url(#p3dbe9d257f)" style="fill: #e0bd1f; stroke: #0000ff; stroke-width: 0.5"/>
    <path d="M 314.943625 361.431535 
L 315.180638 361.847671 
L 321.646923 373.215933 
L 324.438426 375.37906 
L 340.228985 385.26718 
L 347.196428 390.320418 
L 305.94109 499.603265 
L 305.112114 499.580423 
L 281.98421 510.459028 
L 283.57185 514.531247 
L 197.009312 534.7732 
L 226.835531 471.440805 
L 238.614059 454.936859 
L 246.793697 443.731823 
L 249.690978 439.67296 
L 257.427052 437.686416 
L 266.267871 438.554907 
L 281.372311 443.149112 
L 293.903402 435.264262 
L 293.247186 417.877325 
L 293.238335 417.200477 
L 298.072684 419.105679 
L 301.080726 409.565188 
L 302.298443 405.009408 
L 322.95158 406.916856 
L 320.363857 402.952692 
L 318.168186 399.17626 
L 316.788752 396.402586 
L 305.476495 378.05248 
L 308.310639 373.795295 
L 310.477524 367.440162 
L 311.170281 366.19789 
L 314.943625 361.431535 
" clip-path="url(#p3dbe9d257f)" style="fill: #e0bd1f; stroke: #0000ff; stroke-width: 0.5"/>
    <path d="M 305.112114 499.580423 
L 305.94109 499.603265 
L 322.666403 499.611628 
L 322.95768 500.777592 
L 325.406412 503.899436 
L 329.663191 505.831953 
L 328.969318 508.297004 
L 329.097802 511.035602 
L 329.885791 513.475043 
L 331.031541 515.32676 
L 329.117737 517.000209 
L 326.470188 516.779065 
L 323.688095 517.280976 
L 322.282645 518.968363 
L 320.737089 521.574379 
L 318.964488 522.310269 
L 312.00147 522.33255 
L 285.908166 529.391284 
L 283.577392 514.530144 
L 281.98421 510.459028 
L 305.112114 499.580423 
" clip-path="url(#p3dbe9d257f)" style="fill: #e0bd1f; stroke: #0000ff; stroke-width: 0.5"/>
    <path d="M 304.729417 279.703145 
L 331.016038 283.953827 
L 341.664392 292.607178 
L 364.056843 294.375652 
L 366.240873 294.560597 
L 394.942951 297.037922 
L 397.601025 298.344269 
L 401.86223 301.774195 
L 405.318819 302.83096 
L 428.321569 312.144732 
L 443.605967 316.914978 
L 451.976647 319.513734 
L 466.873977 321.136505 
L 510.88316 328.339514 
L 511.244769 328.200233 
L 512.204442 328.551753 
L 511.696088 333.4323 
L 510.192615 341.926053 
L 507.438212 350.464929 
L 505.518308 355.679167 
L 499.989547 364.971762 
L 497.747904 366.748834 
L 493.120665 371.76086 
L 491.360802 376.202989 
L 492.34374 377.951644 
L 492.438992 391.442923 
L 492.258456 391.462978 
L 492.203634 393.998802 
L 498.264014 397.238749 
L 499.894854 398.105015 
L 504.781254 400.664785 
L 509.997148 399.897128 
L 516.626785 421.886051 
L 546.682262 416.72919 
L 550.715325 407.330205 
L 553.360641 398.101104 
L 553.732776 397.053243 
L 557.313404 391.411177 
L 577.14199 357.905787 
L 616.62971 378.353863 
L 622.636364 419.282843 
L 622.281951 419.356925 
L 622.1496 419.371405 
L 622.001758 419.374754 
L 621.671707 419.405398 
L 621.408678 419.369179 
L 621.323394 419.355822 
L 621.235898 419.331295 
L 621.120172 419.284507 
L 620.776286 419.202062 
L 620.166579 419.027145 
L 619.727441 419.0912 
L 619.200268 419.366391 
L 618.770001 419.573075 
L 618.367962 419.895055 
L 618.011337 420.278883 
L 617.69847 420.711745 
L 617.524573 421.044874 
L 617.371189 421.466024 
L 617.081567 422.011393 
L 616.919312 422.333954 
L 616.7687 422.635879 
L 616.594823 423.014132 
L 616.284149 423.561747 
L 615.777469 423.821336 
L 615.510553 423.888198 
L 615.050363 424.011856 
L 614.303341 424.153924 
L 613.902978 424.214088 
L 613.510349 424.274794 
L 613.160382 424.333294 
L 612.429966 424.49317 
L 612.237808 424.695944 
L 612.009109 425.012368 
L 611.778735 425.226854 
L 611.546168 425.319326 
L 611.216674 425.246908 
L 610.899362 425.064169 
L 610.091417 424.098212 
L 609.041496 424.975046 
L 608.344852 425.671387 
L 608.029214 425.98725 
L 607.83263 426.181681 
L 607.647111 426.349359 
L 607.430592 426.547119 
L 606.784902 427.223967 
L 606.233906 427.852343 
L 605.770965 428.310273 
L 605.129701 428.96482 
L 604.820701 429.268991 
L 604.351121 429.354785 
L 604.124076 429.469539 
L 603.382039 429.820497 
L 602.684856 430.064503 
L 601.587289 430.146387 
L 600.418852 430.82881 
L 599.919907 431.810932 
L 599.212198 432.565212 
L 598.706057 432.983574 
L 598.171687 433.125642 
L 597.488897 433.547895 
L 597.062498 433.970168 
L 596.971114 434.094949 
L 596.788385 434.148976 
L 596.258979 434.409688 
L 595.741215 434.722222 
L 595.62547 434.75453 
L 595.542977 434.718872 
L 594.771016 434.639215 
L 594.203414 434.72166 
L 593.662386 434.900488 
L 593.159015 435.279844 
L 592.790767 435.839713 
L 591.825014 435.968946 
L 591.564737 436.059754 
L 591.357627 436.035808 
L 590.744612 436.155014 
L 589.635981 436.487041 
L 589.208485 437.35106 
L 588.828037 438.169414 
L 588.611518 438.685263 
L 588.407179 439.091372 
L 588.313602 439.254036 
L 588.149673 439.462946 
L 587.889974 439.622262 
L 587.546625 439.954288 
L 587.451393 440.137569 
L 587.219365 440.48963 
L 587.100848 440.635027 
L 586.894297 440.733075 
L 586.52272 440.675698 
L 585.954559 440.835575 
L 585.674925 441.021081 
L 585.458386 441.19267 
L 584.852029 441.407135 
L 584.466597 441.54084 
L 584.163139 441.686237 
L 583.981507 441.733025 
L 583.553453 441.717423 
L 583.326966 441.812141 
L 583.035689 441.865046 
L 582.602631 442.036073 
L 582.248238 442.469476 
L 582.033374 442.909016 
L 581.745964 443.184208 
L 581.632452 443.436015 
L 581.580939 443.583077 
L 581.523903 443.648816 
L 581.424784 443.742953 
L 581.385472 443.932371 
L 581.21602 444.078329 
L 581.132391 444.320651 
L 581.078685 444.396959 
L 580.672221 444.643192 
L 580.618515 445.007526 
L 580.701566 445.278827 
L 580.900382 445.522814 
L 580.933594 445.628663 
L 580.945237 445.685478 
L 580.970694 445.776286 
L 580.992843 445.913881 
L 580.991746 446.087696 
L 580.934153 446.332805 
L 580.812885 446.635853 
L 580.690501 446.820818 
L 580.555937 447.189043 
L 580.425798 447.31605 
L 580.315037 447.392379 
L 580.214263 447.416324 
L 579.977251 447.453084 
L 577.774382 446.677647 
L 575.417014 445.394684 
L 572.24616 444.108411 
L 568.235265 441.506306 
L 566.807108 438.910879 
L 565.222797 436.573938 
L 564.049935 432.056041 
L 560.373497 431.920672 
L 558.962505 430.683975 
L 555.007529 429.450607 
L 547.087609 430.67505 
L 545.246909 432.924533 
L 538.198627 434.17238 
L 534.393167 434.126695 
L 529.036609 429.216628 
L 527.047488 428.921943 
L 524.950956 430.315188 
L 521.184809 435.690967 
L 510.143893 445.381327 
L 508.725146 446.642551 
L 504.04751 448.988397 
L 500.911004 450.029018 
L 496.360735 449.885286 
L 489.223841 452.009426 
L 474.403481 449.056924 
L 461.990348 443.377516 
L 457.37804 442.19986 
L 457.216344 441.168143 
L 456.637119 440.113603 
L 455.599917 439.241783 
L 453.497284 438.32538 
L 451.453341 436.391219 
L 449.528453 435.854754 
L 445.03799 438.125394 
L 440.622844 440.668458 
L 439.145966 440.780986 
L 437.360087 439.933672 
L 435.808989 439.357097 
L 432.634267 437.932648 
L 430.918163 436.123829 
L 429.759135 433.913894 
L 428.760687 431.032707 
L 427.907908 428.622786 
L 427.757276 426.084195 
L 426.872361 425.415689 
L 420.989746 414.857419 
L 420.63312 413.178394 
L 418.688855 404.926421 
L 415.09162 396.205368 
L 412.897603 393.516365 
L 411.670476 390.213466 
L 410.2916 386.500548 
L 410.353061 384.747421 
L 411.249061 380.382723 
L 407.70332 371.871161 
L 407.991826 368.992741 
L 407.755371 364.339475 
L 406.168828 348.530748 
L 407.225407 341.244753 
L 407.923706 329.102136 
L 401.68004 320.77941 
L 391.401097 323.783734 
L 387.996559 325.844922 
L 379.218857 328.390754 
L 373.340109 326.944023 
L 366.829527 324.570883 
L 362.891715 323.143105 
L 356.307491 325.92847 
L 354.049242 327.133441 
L 352.231786 329.088218 
L 349.332832 331.299256 
L 347.296105 333.304732 
L 343.131807 340.118898 
L 342.575827 341.879265 
L 338.238748 347.907386 
L 336.346554 350.541799 
L 332.781974 353.805712 
L 326.267505 357.140377 
L 319.886503 357.903561 
L 314.785796 361.153556 
L 313.922471 360.093441 
L 313.602965 359.653901 
L 313.609604 359.014936 
L 309.480193 353.34 
L 309.368893 353.183452 
L 304.879348 347.679218 
L 302.039713 342.651791 
L 294.910831 327.77091 
L 289.624332 309.925694 
L 281.819093 299.459685 
L 289.345754 283.825808 
L 298.352579 280.775552 
L 304.729417 279.703145 
" clip-path="url(#p3dbe9d257f)" style="fill: #e0bd1f; stroke: #0000ff; stroke-width: 0.5"/>
    <path d="M 259.293789 405.027798 
L 263.232139 407.415438 
L 266.120568 409.424243 
L 269.24268 409.583578 
L 277.936215 411.025836 
L 278.048611 411.646992 
L 279.439668 412.623539 
L 279.534361 412.777299 
L 279.890986 413.72266 
L 281.664684 414.669686 
L 284.3532 414.979412 
L 285.779144 415.387747 
L 293.241664 417.87566 
L 293.885121 435.254776 
L 281.36954 443.129057 
L 266.662154 438.587215 
L 259.330889 405.196038 
L 259.293789 405.027798 
" clip-path="url(#p3dbe9d257f)" style="fill: #e0bd1f; stroke: #0000ff; stroke-width: 0.5"/>
    <path d="M 254.26784 401.980598 
L 259.330889 405.196038 
L 266.662154 438.587215 
L 262.029373 438.128182 
L 257.414872 437.674724 
L 254.162621 438.510345 
L 249.69652 439.648995 
L 249.124492 416.236184 
L 248.93953 408.396437 
L 254.26784 401.980598 
" clip-path="url(#p3dbe9d257f)" style="fill: #e0bd1f; stroke: #0000ff; stroke-width: 0.5"/>
    <path d="M 159.357867 426.180558 
L 185.736368 438.981071 
L 177.7882 438.864091 
L 163.659501 435.765069 
L 161.521981 434.145647 
L 158.00724 432.567438 
L 159.357867 426.180558 
" clip-path="url(#p3dbe9d257f)" style="fill: #e0bd1f; stroke: #0000ff; stroke-width: 0.5"/>
    <path d="M 121.298323 382.395438 
L 146.873285 397.06327 
L 149.850885 398.788541 
L 151.421899 398.837555 
L 162.095125 404.726415 
L 183.902305 413.370579 
L 184.837617 426.234605 
L 185.736368 438.981071 
L 118.934855 406.562549 
L 115.363636 392.227285 
L 115.957833 391.230684 
L 121.298323 382.395438 
" clip-path="url(#p3dbe9d257f)" style="fill: #e0bd1f; stroke: #0000ff; stroke-width: 0.5"/>
    <path d="M 195.09706 342.842308 
L 195.301386 342.85288 
L 195.014244 353.261699 
L 218.847946 352.91022 
L 221.872218 364.055487 
L 230.040646 359.598029 
L 282.729612 361.456434 
L 283.446695 361.280001 
L 283.383579 361.505075 
L 280.507331 370.463417 
L 268.362749 385.014269 
L 260.758925 394.061514 
L 254.26784 401.980598 
L 248.938009 408.394681 
L 219.274386 420.418186 
L 207.874345 432.862445 
L 185.736368 438.981071 
L 184.837617 426.234605 
L 200.133809 421.999769 
L 200.472748 372.313037 
L 188.762451 371.33789 
L 181.99609 370.229239 
L 167.68377 367.151025 
L 167.288228 367.116599 
L 162.860711 366.590446 
L 166.411397 366.056359 
L 171.833636 361.550885 
L 177.802869 360.128225 
L 184.497465 357.051992 
L 189.551716 353.625618 
L 193.756651 347.844097 
L 195.09706 342.842308 
" clip-path="url(#p3dbe9d257f)" style="fill: #e0bd1f; stroke: #0000ff; stroke-width: 0.5"/>
    <path d="M 181.99609 370.229239 
L 188.762451 371.33789 
L 200.472748 372.313037 
L 200.133809 421.999769 
L 184.837617 426.234605 
L 183.902305 413.370579 
L 181.99609 370.229239 
" clip-path="url(#p3dbe9d257f)" style="fill: #e0bd1f; stroke: #0000ff; stroke-width: 0.5"/>
    <path d="M 260.759045 394.061754 
L 289.665462 405.300764 
L 296.520489 407.848841 
L 301.080726 409.565188 
L 298.072684 419.105679 
L 293.238335 417.200477 
L 293.247186 417.877325 
L 285.779144 415.387747 
L 284.3532 414.979412 
L 281.664684 414.669686 
L 279.890986 413.72266 
L 279.534361 412.777299 
L 279.439668 412.623539 
L 278.048611 411.646992 
L 277.936215 411.025836 
L 269.24268 409.583578 
L 266.120568 409.424243 
L 263.232139 407.415438 
L 254.280021 401.983385 
L 260.759045 394.061754 
" clip-path="url(#p3dbe9d257f)" style="fill: #e0bd1f; stroke: #0000ff; stroke-width: 0.5"/>
    <path d="M 248.938009 408.394681 
L 249.124492 416.236184 
L 249.69652 439.648995 
L 249.690978 439.67296 
L 246.793697 443.731823 
L 246.565536 444.044336 
L 246.291982 443.935158 
L 214.129446 431.125721 
L 207.874345 432.862445 
L 219.274386 420.418186 
L 248.938009 408.394681 
" clip-path="url(#p3dbe9d257f)" style="fill: #e0bd1f; stroke: #0000ff; stroke-width: 0.5"/>
   </g>
   <g id="PatchCollection_2">
    <path d="M 328.538414 508.782624 
L 328.547609 512.412942 
L 327.18136 515.009526 
L 324.783426 516.917363 
L 322.386277 518.997859 
L 320.674134 520.55824 
L 318.516535 519.173396 
L 315.331335 517.128992 
L 304.651651 524.164647 
L 290.533377 529.246948 
L 288.233939 524.184875 
L 282.110233 510.703381 
L 193.870891 560.198024 
L 192.449313 544.251086 
L 174.478546 447.253753 
L 179.377732 439.248446 
L 184.276884 431.243167 
L 191.774799 418.223031 
L 217.523303 391.073199 
L 240.09648 385.600457 
L 259.432214 375.801516 
L 274.47595 370.346728 
L 291.662752 361.635995 
L 326.497305 343.713371 
L 355.169311 336.787289 
L 393.051389 328.99303 
L 402.26179 328.125304 
L 403.954143 334.871673 
L 409.074905 371.98705 
L 417.581485 422.594696 
L 401.965801 426.133707 
L 372.378189 432.838706 
L 335.536981 437.996752 
L 305.383283 438.073462 
L 303.38597 469.777102 
L 303.736989 472.887848 
L 303.401968 476.173365 
L 303.749533 477.90115 
L 305.297482 479.280374 
L 306.333949 482.043682 
L 307.029529 485.672275 
L 308.923591 488.260552 
L 310.644832 490.330715 
L 311.50415 490.847073 
L 312.711058 493.091388 
L 314.431445 494.815849 
L 315.467959 497.579138 
L 316.674013 499.477752 
L 318.222011 500.856765 
L 320.453272 501.02391 
L 324.576225 502.742203 
L 326.810986 504.292288 
L 328.359697 506.016975 
L 328.538414 508.782624 
" clip-path="url(#p3dbe9d257f)" style="fill: none; stroke: #000000"/>
   </g>
   <g id="matplotlib.axis_1">
    <g id="xtick_1">
     <g id="line2d_1">
      <path d="M 161.247868 616.632312 
L 161.247868 256.007688 
" clip-path="url(#p3dbe9d257f)" style="fill: none; stroke: #b0b0b0; stroke-width: 0.8; stroke-linecap: square"/>
     </g>
     <g id="line2d_2">
      <defs>
       <path id="md944faacc0" d="M 0 0 
L 0 3.5 
" style="stroke: #000000; stroke-width: 0.8"/>
      </defs>
      <g>
       <use xlink:href="#md944faacc0" x="161.247868" y="616.632312" style="stroke: #000000; stroke-width: 0.8"/>
      </g>
     </g>
     <g id="text_1">
      <!-- −49.75 -->
      <g transform="translate(150.114803 655.173694) rotate(-45) scale(0.1 -0.1)">
       <defs>
        <path id="DejaVuSans-2212" d="M 678 2272 
L 4684 2272 
L 4684 1741 
L 678 1741 
L 678 2272 
z
" transform="scale(0.015625)"/>
        <path id="DejaVuSans-34" d="M 2419 4116 
L 825 1625 
L 2419 1625 
L 2419 4116 
z
M 2253 4666 
L 3047 4666 
L 3047 1625 
L 3713 1625 
L 3713 1100 
L 3047 1100 
L 3047 0 
L 2419 0 
L 2419 1100 
L 313 1100 
L 313 1709 
L 2253 4666 
z
" transform="scale(0.015625)"/>
        <path id="DejaVuSans-39" d="M 703 97 
L 703 672 
Q 941 559 1184 500 
Q 1428 441 1663 441 
Q 2288 441 2617 861 
Q 2947 1281 2994 2138 
Q 2813 1869 2534 1725 
Q 2256 1581 1919 1581 
Q 1219 1581 811 2004 
Q 403 2428 403 3163 
Q 403 3881 828 4315 
Q 1253 4750 1959 4750 
Q 2769 4750 3195 4129 
Q 3622 3509 3622 2328 
Q 3622 1225 3098 567 
Q 2575 -91 1691 -91 
Q 1453 -91 1209 -44 
Q 966 3 703 97 
z
M 1959 2075 
Q 2384 2075 2632 2365 
Q 2881 2656 2881 3163 
Q 2881 3666 2632 3958 
Q 2384 4250 1959 4250 
Q 1534 4250 1286 3958 
Q 1038 3666 1038 3163 
Q 1038 2656 1286 2365 
Q 1534 2075 1959 2075 
z
" transform="scale(0.015625)"/>
        <path id="DejaVuSans-2e" d="M 684 794 
L 1344 794 
L 1344 0 
L 684 0 
L 684 794 
z
" transform="scale(0.015625)"/>
        <path id="DejaVuSans-37" d="M 525 4666 
L 3525 4666 
L 3525 4397 
L 1831 0 
L 1172 0 
L 2766 4134 
L 525 4134 
L 525 4666 
z
" transform="scale(0.015625)"/>
        <path id="DejaVuSans-35" d="M 691 4666 
L 3169 4666 
L 3169 4134 
L 1269 4134 
L 1269 2991 
Q 1406 3038 1543 3061 
Q 1681 3084 1819 3084 
Q 2600 3084 3056 2656 
Q 3513 2228 3513 1497 
Q 3513 744 3044 326 
Q 2575 -91 1722 -91 
Q 1428 -91 1123 -41 
Q 819 9 494 109 
L 494 744 
Q 775 591 1075 516 
Q 1375 441 1709 441 
Q 2250 441 2565 725 
Q 2881 1009 2881 1497 
Q 2881 1984 2565 2268 
Q 2250 2553 1709 2553 
Q 1456 2553 1204 2497 
Q 953 2441 691 2322 
L 691 4666 
z
" transform="scale(0.015625)"/>
       </defs>
       <use xlink:href="#DejaVuSans-2212"/>
       <use xlink:href="#DejaVuSans-34" transform="translate(83.789062 0)"/>
       <use xlink:href="#DejaVuSans-39" transform="translate(147.412109 0)"/>
       <use xlink:href="#DejaVuSans-2e" transform="translate(211.035156 0)"/>
       <use xlink:href="#DejaVuSans-37" transform="translate(242.822266 0)"/>
       <use xlink:href="#DejaVuSans-35" transform="translate(306.445312 0)"/>
      </g>
     </g>
    </g>
    <g id="xtick_2">
     <g id="line2d_3">
      <path d="M 260.925167 616.632312 
L 260.925167 256.007688 
" clip-path="url(#p3dbe9d257f)" style="fill: none; stroke: #b0b0b0; stroke-width: 0.8; stroke-linecap: square"/>
     </g>
     <g id="line2d_4">
      <g>
       <use xlink:href="#md944faacc0" x="260.925167" y="616.632312" style="stroke: #000000; stroke-width: 0.8"/>
      </g>
     </g>
     <g id="text_2">
      <!-- −49.70 -->
      <g transform="translate(249.792103 655.173694) rotate(-45) scale(0.1 -0.1)">
       <defs>
        <path id="DejaVuSans-30" d="M 2034 4250 
Q 1547 4250 1301 3770 
Q 1056 3291 1056 2328 
Q 1056 1369 1301 889 
Q 1547 409 2034 409 
Q 2525 409 2770 889 
Q 3016 1369 3016 2328 
Q 3016 3291 2770 3770 
Q 2525 4250 2034 4250 
z
M 2034 4750 
Q 2819 4750 3233 4129 
Q 3647 3509 3647 2328 
Q 3647 1150 3233 529 
Q 2819 -91 2034 -91 
Q 1250 -91 836 529 
Q 422 1150 422 2328 
Q 422 3509 836 4129 
Q 1250 4750 2034 4750 
z
" transform="scale(0.015625)"/>
       </defs>
       <use xlink:href="#DejaVuSans-2212"/>
       <use xlink:href="#DejaVuSans-34" transform="translate(83.789062 0)"/>
       <use xlink:href="#DejaVuSans-39" transform="translate(147.412109 0)"/>
       <use xlink:href="#DejaVuSans-2e" transform="translate(211.035156 0)"/>
       <use xlink:href="#DejaVuSans-37" transform="translate(242.822266 0)"/>
       <use xlink:href="#DejaVuSans-30" transform="translate(306.445312 0)"/>
      </g>
     </g>
    </g>
    <g id="xtick_3">
     <g id="line2d_5">
      <path d="M 360.602467 616.632312 
L 360.602467 256.007688 
" clip-path="url(#p3dbe9d257f)" style="fill: none; stroke: #b0b0b0; stroke-width: 0.8; stroke-linecap: square"/>
     </g>
     <g id="line2d_6">
      <g>
       <use xlink:href="#md944faacc0" x="360.602467" y="616.632312" style="stroke: #000000; stroke-width: 0.8"/>
      </g>
     </g>
     <g id="text_3">
      <!-- −49.65 -->
      <g transform="translate(349.469402 655.173694) rotate(-45) scale(0.1 -0.1)">
       <defs>
        <path id="DejaVuSans-36" d="M 2113 2584 
Q 1688 2584 1439 2293 
Q 1191 2003 1191 1497 
Q 1191 994 1439 701 
Q 1688 409 2113 409 
Q 2538 409 2786 701 
Q 3034 994 3034 1497 
Q 3034 2003 2786 2293 
Q 2538 2584 2113 2584 
z
M 3366 4563 
L 3366 3988 
Q 3128 4100 2886 4159 
Q 2644 4219 2406 4219 
Q 1781 4219 1451 3797 
Q 1122 3375 1075 2522 
Q 1259 2794 1537 2939 
Q 1816 3084 2150 3084 
Q 2853 3084 3261 2657 
Q 3669 2231 3669 1497 
Q 3669 778 3244 343 
Q 2819 -91 2113 -91 
Q 1303 -91 875 529 
Q 447 1150 447 2328 
Q 447 3434 972 4092 
Q 1497 4750 2381 4750 
Q 2619 4750 2861 4703 
Q 3103 4656 3366 4563 
z
" transform="scale(0.015625)"/>
       </defs>
       <use xlink:href="#DejaVuSans-2212"/>
       <use xlink:href="#DejaVuSans-34" transform="translate(83.789062 0)"/>
       <use xlink:href="#DejaVuSans-39" transform="translate(147.412109 0)"/>
       <use xlink:href="#DejaVuSans-2e" transform="translate(211.035156 0)"/>
       <use xlink:href="#DejaVuSans-36" transform="translate(242.822266 0)"/>
       <use xlink:href="#DejaVuSans-35" transform="translate(306.445312 0)"/>
      </g>
     </g>
    </g>
    <g id="xtick_4">
     <g id="line2d_7">
      <path d="M 460.279766 616.632312 
L 460.279766 256.007688 
" clip-path="url(#p3dbe9d257f)" style="fill: none; stroke: #b0b0b0; stroke-width: 0.8; stroke-linecap: square"/>
     </g>
     <g id="line2d_8">
      <g>
       <use xlink:href="#md944faacc0" x="460.279766" y="616.632312" style="stroke: #000000; stroke-width: 0.8"/>
      </g>
     </g>
     <g id="text_4">
      <!-- −49.60 -->
      <g transform="translate(449.146701 655.173694) rotate(-45) scale(0.1 -0.1)">
       <use xlink:href="#DejaVuSans-2212"/>
       <use xlink:href="#DejaVuSans-34" transform="translate(83.789062 0)"/>
       <use xlink:href="#DejaVuSans-39" transform="translate(147.412109 0)"/>
       <use xlink:href="#DejaVuSans-2e" transform="translate(211.035156 0)"/>
       <use xlink:href="#DejaVuSans-36" transform="translate(242.822266 0)"/>
       <use xlink:href="#DejaVuSans-30" transform="translate(306.445312 0)"/>
      </g>
     </g>
    </g>
    <g id="xtick_5">
     <g id="line2d_9">
      <path d="M 559.957065 616.632312 
L 559.957065 256.007688 
" clip-path="url(#p3dbe9d257f)" style="fill: none; stroke: #b0b0b0; stroke-width: 0.8; stroke-linecap: square"/>
     </g>
     <g id="line2d_10">
      <g>
       <use xlink:href="#md944faacc0" x="559.957065" y="616.632312" style="stroke: #000000; stroke-width: 0.8"/>
      </g>
     </g>
     <g id="text_5">
      <!-- −49.55 -->
      <g transform="translate(548.824 655.173694) rotate(-45) scale(0.1 -0.1)">
       <use xlink:href="#DejaVuSans-2212"/>
       <use xlink:href="#DejaVuSans-34" transform="translate(83.789062 0)"/>
       <use xlink:href="#DejaVuSans-39" transform="translate(147.412109 0)"/>
       <use xlink:href="#DejaVuSans-2e" transform="translate(211.035156 0)"/>
       <use xlink:href="#DejaVuSans-35" transform="translate(242.822266 0)"/>
       <use xlink:href="#DejaVuSans-35" transform="translate(306.445312 0)"/>
      </g>
     </g>
    </g>
    <g id="text_6">
     <!-- Longitude (°) -->
     <g transform="translate(336.139844 668.242693) scale(0.1 -0.1)">
      <defs>
       <path id="DejaVuSans-4c" d="M 628 4666 
L 1259 4666 
L 1259 531 
L 3531 531 
L 3531 0 
L 628 0 
L 628 4666 
z
" transform="scale(0.015625)"/>
       <path id="DejaVuSans-6f" d="M 1959 3097 
Q 1497 3097 1228 2736 
Q 959 2375 959 1747 
Q 959 1119 1226 758 
Q 1494 397 1959 397 
Q 2419 397 2687 759 
Q 2956 1122 2956 1747 
Q 2956 2369 2687 2733 
Q 2419 3097 1959 3097 
z
M 1959 3584 
Q 2709 3584 3137 3096 
Q 3566 2609 3566 1747 
Q 3566 888 3137 398 
Q 2709 -91 1959 -91 
Q 1206 -91 779 398 
Q 353 888 353 1747 
Q 353 2609 779 3096 
Q 1206 3584 1959 3584 
z
" transform="scale(0.015625)"/>
       <path id="DejaVuSans-6e" d="M 3513 2113 
L 3513 0 
L 2938 0 
L 2938 2094 
Q 2938 2591 2744 2837 
Q 2550 3084 2163 3084 
Q 1697 3084 1428 2787 
Q 1159 2491 1159 1978 
L 1159 0 
L 581 0 
L 581 3500 
L 1159 3500 
L 1159 2956 
Q 1366 3272 1645 3428 
Q 1925 3584 2291 3584 
Q 2894 3584 3203 3211 
Q 3513 2838 3513 2113 
z
" transform="scale(0.015625)"/>
       <path id="DejaVuSans-67" d="M 2906 1791 
Q 2906 2416 2648 2759 
Q 2391 3103 1925 3103 
Q 1463 3103 1205 2759 
Q 947 2416 947 1791 
Q 947 1169 1205 825 
Q 1463 481 1925 481 
Q 2391 481 2648 825 
Q 2906 1169 2906 1791 
z
M 3481 434 
Q 3481 -459 3084 -895 
Q 2688 -1331 1869 -1331 
Q 1566 -1331 1297 -1286 
Q 1028 -1241 775 -1147 
L 775 -588 
Q 1028 -725 1275 -790 
Q 1522 -856 1778 -856 
Q 2344 -856 2625 -561 
Q 2906 -266 2906 331 
L 2906 616 
Q 2728 306 2450 153 
Q 2172 0 1784 0 
Q 1141 0 747 490 
Q 353 981 353 1791 
Q 353 2603 747 3093 
Q 1141 3584 1784 3584 
Q 2172 3584 2450 3431 
Q 2728 3278 2906 2969 
L 2906 3500 
L 3481 3500 
L 3481 434 
z
" transform="scale(0.015625)"/>
       <path id="DejaVuSans-69" d="M 603 3500 
L 1178 3500 
L 1178 0 
L 603 0 
L 603 3500 
z
M 603 4863 
L 1178 4863 
L 1178 4134 
L 603 4134 
L 603 4863 
z
" transform="scale(0.015625)"/>
       <path id="DejaVuSans-74" d="M 1172 4494 
L 1172 3500 
L 2356 3500 
L 2356 3053 
L 1172 3053 
L 1172 1153 
Q 1172 725 1289 603 
Q 1406 481 1766 481 
L 2356 481 
L 2356 0 
L 1766 0 
Q 1100 0 847 248 
Q 594 497 594 1153 
L 594 3053 
L 172 3053 
L 172 3500 
L 594 3500 
L 594 4494 
L 1172 4494 
z
" transform="scale(0.015625)"/>
       <path id="DejaVuSans-75" d="M 544 1381 
L 544 3500 
L 1119 3500 
L 1119 1403 
Q 1119 906 1312 657 
Q 1506 409 1894 409 
Q 2359 409 2629 706 
Q 2900 1003 2900 1516 
L 2900 3500 
L 3475 3500 
L 3475 0 
L 2900 0 
L 2900 538 
Q 2691 219 2414 64 
Q 2138 -91 1772 -91 
Q 1169 -91 856 284 
Q 544 659 544 1381 
z
M 1991 3584 
L 1991 3584 
z
" transform="scale(0.015625)"/>
       <path id="DejaVuSans-64" d="M 2906 2969 
L 2906 4863 
L 3481 4863 
L 3481 0 
L 2906 0 
L 2906 525 
Q 2725 213 2448 61 
Q 2172 -91 1784 -91 
Q 1150 -91 751 415 
Q 353 922 353 1747 
Q 353 2572 751 3078 
Q 1150 3584 1784 3584 
Q 2172 3584 2448 3432 
Q 2725 3281 2906 2969 
z
M 947 1747 
Q 947 1113 1208 752 
Q 1469 391 1925 391 
Q 2381 391 2643 752 
Q 2906 1113 2906 1747 
Q 2906 2381 2643 2742 
Q 2381 3103 1925 3103 
Q 1469 3103 1208 2742 
Q 947 2381 947 1747 
z
" transform="scale(0.015625)"/>
       <path id="DejaVuSans-65" d="M 3597 1894 
L 3597 1613 
L 953 1613 
Q 991 1019 1311 708 
Q 1631 397 2203 397 
Q 2534 397 2845 478 
Q 3156 559 3463 722 
L 3463 178 
Q 3153 47 2828 -22 
Q 2503 -91 2169 -91 
Q 1331 -91 842 396 
Q 353 884 353 1716 
Q 353 2575 817 3079 
Q 1281 3584 2069 3584 
Q 2775 3584 3186 3129 
Q 3597 2675 3597 1894 
z
M 3022 2063 
Q 3016 2534 2758 2815 
Q 2500 3097 2075 3097 
Q 1594 3097 1305 2825 
Q 1016 2553 972 2059 
L 3022 2063 
z
" transform="scale(0.015625)"/>
       <path id="DejaVuSans-20" transform="scale(0.015625)"/>
       <path id="DejaVuSans-28" d="M 1984 4856 
Q 1566 4138 1362 3434 
Q 1159 2731 1159 2009 
Q 1159 1288 1364 580 
Q 1569 -128 1984 -844 
L 1484 -844 
Q 1016 -109 783 600 
Q 550 1309 550 2009 
Q 550 2706 781 3412 
Q 1013 4119 1484 4856 
L 1984 4856 
z
" transform="scale(0.015625)"/>
       <path id="DejaVuSans-b0" d="M 1600 4347 
Q 1350 4347 1178 4173 
Q 1006 4000 1006 3750 
Q 1006 3503 1178 3333 
Q 1350 3163 1600 3163 
Q 1850 3163 2022 3333 
Q 2194 3503 2194 3750 
Q 2194 3997 2020 4172 
Q 1847 4347 1600 4347 
z
M 1600 4750 
Q 1800 4750 1984 4673 
Q 2169 4597 2303 4453 
Q 2447 4313 2519 4134 
Q 2591 3956 2591 3750 
Q 2591 3338 2302 3052 
Q 2013 2766 1594 2766 
Q 1172 2766 890 3047 
Q 609 3328 609 3750 
Q 609 4169 896 4459 
Q 1184 4750 1600 4750 
z
" transform="scale(0.015625)"/>
       <path id="DejaVuSans-29" d="M 513 4856 
L 1013 4856 
Q 1481 4119 1714 3412 
Q 1947 2706 1947 2009 
Q 1947 1309 1714 600 
Q 1481 -109 1013 -844 
L 513 -844 
Q 928 -128 1133 580 
Q 1338 1288 1338 2009 
Q 1338 2731 1133 3434 
Q 928 4138 513 4856 
z
" transform="scale(0.015625)"/>
      </defs>
      <use xlink:href="#DejaVuSans-4c"/>
      <use xlink:href="#DejaVuSans-6f" transform="translate(53.962891 0)"/>
      <use xlink:href="#DejaVuSans-6e" transform="translate(115.144531 0)"/>
      <use xlink:href="#DejaVuSans-67" transform="translate(178.523438 0)"/>
      <use xlink:href="#DejaVuSans-69" transform="translate(242 0)"/>
      <use xlink:href="#DejaVuSans-74" transform="translate(269.783203 0)"/>
      <use xlink:href="#DejaVuSans-75" transform="translate(308.992188 0)"/>
      <use xlink:href="#DejaVuSans-64" transform="translate(372.371094 0)"/>
      <use xlink:href="#DejaVuSans-65" transform="translate(435.847656 0)"/>
      <use xlink:href="#DejaVuSans-20" transform="translate(497.371094 0)"/>
      <use xlink:href="#DejaVuSans-28" transform="translate(529.158203 0)"/>
      <use xlink:href="#DejaVuSans-b0" transform="translate(568.171875 0)"/>
      <use xlink:href="#DejaVuSans-29" transform="translate(618.171875 0)"/>
     </g>
    </g>
   </g>
   <g id="matplotlib.axis_2">
    <g id="ytick_1">
     <g id="line2d_11">
      <path d="M 90 579.135997 
L 648 579.135997 
" clip-path="url(#p3dbe9d257f)" style="fill: none; stroke: #b0b0b0; stroke-width: 0.8; stroke-linecap: square"/>
     </g>
     <g id="line2d_12">
      <defs>
       <path id="m4af6b9dd09" d="M 0 0 
L -3.5 0 
" style="stroke: #000000; stroke-width: 0.8"/>
      </defs>
      <g>
       <use xlink:href="#m4af6b9dd09" x="90" y="579.135997" style="stroke: #000000; stroke-width: 0.8"/>
      </g>
     </g>
     <g id="text_7">
      <!-- −6.32 -->
      <g transform="translate(52.354687 582.935215) scale(0.1 -0.1)">
       <defs>
        <path id="DejaVuSans-33" d="M 2597 2516 
Q 3050 2419 3304 2112 
Q 3559 1806 3559 1356 
Q 3559 666 3084 287 
Q 2609 -91 1734 -91 
Q 1441 -91 1130 -33 
Q 819 25 488 141 
L 488 750 
Q 750 597 1062 519 
Q 1375 441 1716 441 
Q 2309 441 2620 675 
Q 2931 909 2931 1356 
Q 2931 1769 2642 2001 
Q 2353 2234 1838 2234 
L 1294 2234 
L 1294 2753 
L 1863 2753 
Q 2328 2753 2575 2939 
Q 2822 3125 2822 3475 
Q 2822 3834 2567 4026 
Q 2313 4219 1838 4219 
Q 1578 4219 1281 4162 
Q 984 4106 628 3988 
L 628 4550 
Q 988 4650 1302 4700 
Q 1616 4750 1894 4750 
Q 2613 4750 3031 4423 
Q 3450 4097 3450 3541 
Q 3450 3153 3228 2886 
Q 3006 2619 2597 2516 
z
" transform="scale(0.015625)"/>
        <path id="DejaVuSans-32" d="M 1228 531 
L 3431 531 
L 3431 0 
L 469 0 
L 469 531 
Q 828 903 1448 1529 
Q 2069 2156 2228 2338 
Q 2531 2678 2651 2914 
Q 2772 3150 2772 3378 
Q 2772 3750 2511 3984 
Q 2250 4219 1831 4219 
Q 1534 4219 1204 4116 
Q 875 4013 500 3803 
L 500 4441 
Q 881 4594 1212 4672 
Q 1544 4750 1819 4750 
Q 2544 4750 2975 4387 
Q 3406 4025 3406 3419 
Q 3406 3131 3298 2873 
Q 3191 2616 2906 2266 
Q 2828 2175 2409 1742 
Q 1991 1309 1228 531 
z
" transform="scale(0.015625)"/>
       </defs>
       <use xlink:href="#DejaVuSans-2212"/>
       <use xlink:href="#DejaVuSans-36" transform="translate(83.789062 0)"/>
       <use xlink:href="#DejaVuSans-2e" transform="translate(147.412109 0)"/>
       <use xlink:href="#DejaVuSans-33" transform="translate(179.199219 0)"/>
       <use xlink:href="#DejaVuSans-32" transform="translate(242.822266 0)"/>
      </g>
     </g>
    </g>
    <g id="ytick_2">
     <g id="line2d_13">
      <path d="M 90 539.026474 
L 648 539.026474 
" clip-path="url(#p3dbe9d257f)" style="fill: none; stroke: #b0b0b0; stroke-width: 0.8; stroke-linecap: square"/>
     </g>
     <g id="line2d_14">
      <g>
       <use xlink:href="#m4af6b9dd09" x="90" y="539.026474" style="stroke: #000000; stroke-width: 0.8"/>
      </g>
     </g>
     <g id="text_8">
      <!-- −6.30 -->
      <g transform="translate(52.354687 542.825693) scale(0.1 -0.1)">
       <use xlink:href="#DejaVuSans-2212"/>
       <use xlink:href="#DejaVuSans-36" transform="translate(83.789062 0)"/>
       <use xlink:href="#DejaVuSans-2e" transform="translate(147.412109 0)"/>
       <use xlink:href="#DejaVuSans-33" transform="translate(179.199219 0)"/>
       <use xlink:href="#DejaVuSans-30" transform="translate(242.822266 0)"/>
      </g>
     </g>
    </g>
    <g id="ytick_3">
     <g id="line2d_15">
      <path d="M 90 498.916951 
L 648 498.916951 
" clip-path="url(#p3dbe9d257f)" style="fill: none; stroke: #b0b0b0; stroke-width: 0.8; stroke-linecap: square"/>
     </g>
     <g id="line2d_16">
      <g>
       <use xlink:href="#m4af6b9dd09" x="90" y="498.916951" style="stroke: #000000; stroke-width: 0.8"/>
      </g>
     </g>
     <g id="text_9">
      <!-- −6.28 -->
      <g transform="translate(52.354687 502.71617) scale(0.1 -0.1)">
       <defs>
        <path id="DejaVuSans-38" d="M 2034 2216 
Q 1584 2216 1326 1975 
Q 1069 1734 1069 1313 
Q 1069 891 1326 650 
Q 1584 409 2034 409 
Q 2484 409 2743 651 
Q 3003 894 3003 1313 
Q 3003 1734 2745 1975 
Q 2488 2216 2034 2216 
z
M 1403 2484 
Q 997 2584 770 2862 
Q 544 3141 544 3541 
Q 544 4100 942 4425 
Q 1341 4750 2034 4750 
Q 2731 4750 3128 4425 
Q 3525 4100 3525 3541 
Q 3525 3141 3298 2862 
Q 3072 2584 2669 2484 
Q 3125 2378 3379 2068 
Q 3634 1759 3634 1313 
Q 3634 634 3220 271 
Q 2806 -91 2034 -91 
Q 1263 -91 848 271 
Q 434 634 434 1313 
Q 434 1759 690 2068 
Q 947 2378 1403 2484 
z
M 1172 3481 
Q 1172 3119 1398 2916 
Q 1625 2713 2034 2713 
Q 2441 2713 2670 2916 
Q 2900 3119 2900 3481 
Q 2900 3844 2670 4047 
Q 2441 4250 2034 4250 
Q 1625 4250 1398 4047 
Q 1172 3844 1172 3481 
z
" transform="scale(0.015625)"/>
       </defs>
       <use xlink:href="#DejaVuSans-2212"/>
       <use xlink:href="#DejaVuSans-36" transform="translate(83.789062 0)"/>
       <use xlink:href="#DejaVuSans-2e" transform="translate(147.412109 0)"/>
       <use xlink:href="#DejaVuSans-32" transform="translate(179.199219 0)"/>
       <use xlink:href="#DejaVuSans-38" transform="translate(242.822266 0)"/>
      </g>
     </g>
    </g>
    <g id="ytick_4">
     <g id="line2d_17">
      <path d="M 90 458.807428 
L 648 458.807428 
" clip-path="url(#p3dbe9d257f)" style="fill: none; stroke: #b0b0b0; stroke-width: 0.8; stroke-linecap: square"/>
     </g>
     <g id="line2d_18">
      <g>
       <use xlink:href="#m4af6b9dd09" x="90" y="458.807428" style="stroke: #000000; stroke-width: 0.8"/>
      </g>
     </g>
     <g id="text_10">
      <!-- −6.26 -->
      <g transform="translate(52.354687 462.606647) scale(0.1 -0.1)">
       <use xlink:href="#DejaVuSans-2212"/>
       <use xlink:href="#DejaVuSans-36" transform="translate(83.789062 0)"/>
       <use xlink:href="#DejaVuSans-2e" transform="translate(147.412109 0)"/>
       <use xlink:href="#DejaVuSans-32" transform="translate(179.199219 0)"/>
       <use xlink:href="#DejaVuSans-36" transform="translate(242.822266 0)"/>
      </g>
     </g>
    </g>
    <g id="ytick_5">
     <g id="line2d_19">
      <path d="M 90 418.697906 
L 648 418.697906 
" clip-path="url(#p3dbe9d257f)" style="fill: none; stroke: #b0b0b0; stroke-width: 0.8; stroke-linecap: square"/>
     </g>
     <g id="line2d_20">
      <g>
       <use xlink:href="#m4af6b9dd09" x="90" y="418.697906" style="stroke: #000000; stroke-width: 0.8"/>
      </g>
     </g>
     <g id="text_11">
      <!-- −6.24 -->
      <g transform="translate(52.354687 422.497124) scale(0.1 -0.1)">
       <use xlink:href="#DejaVuSans-2212"/>
       <use xlink:href="#DejaVuSans-36" transform="translate(83.789062 0)"/>
       <use xlink:href="#DejaVuSans-2e" transform="translate(147.412109 0)"/>
       <use xlink:href="#DejaVuSans-32" transform="translate(179.199219 0)"/>
       <use xlink:href="#DejaVuSans-34" transform="translate(242.822266 0)"/>
      </g>
     </g>
    </g>
    <g id="ytick_6">
     <g id="line2d_21">
      <path d="M 90 378.588383 
L 648 378.588383 
" clip-path="url(#p3dbe9d257f)" style="fill: none; stroke: #b0b0b0; stroke-width: 0.8; stroke-linecap: square"/>
     </g>
     <g id="line2d_22">
      <g>
       <use xlink:href="#m4af6b9dd09" x="90" y="378.588383" style="stroke: #000000; stroke-width: 0.8"/>
      </g>
     </g>
     <g id="text_12">
      <!-- −6.22 -->
      <g transform="translate(52.354687 382.387602) scale(0.1 -0.1)">
       <use xlink:href="#DejaVuSans-2212"/>
       <use xlink:href="#DejaVuSans-36" transform="translate(83.789062 0)"/>
       <use xlink:href="#DejaVuSans-2e" transform="translate(147.412109 0)"/>
       <use xlink:href="#DejaVuSans-32" transform="translate(179.199219 0)"/>
       <use xlink:href="#DejaVuSans-32" transform="translate(242.822266 0)"/>
      </g>
     </g>
    </g>
    <g id="ytick_7">
     <g id="line2d_23">
      <path d="M 90 338.47886 
L 648 338.47886 
" clip-path="url(#p3dbe9d257f)" style="fill: none; stroke: #b0b0b0; stroke-width: 0.8; stroke-linecap: square"/>
     </g>
     <g id="line2d_24">
      <g>
       <use xlink:href="#m4af6b9dd09" x="90" y="338.47886" style="stroke: #000000; stroke-width: 0.8"/>
      </g>
     </g>
     <g id="text_13">
      <!-- −6.20 -->
      <g transform="translate(52.354687 342.278079) scale(0.1 -0.1)">
       <use xlink:href="#DejaVuSans-2212"/>
       <use xlink:href="#DejaVuSans-36" transform="translate(83.789062 0)"/>
       <use xlink:href="#DejaVuSans-2e" transform="translate(147.412109 0)"/>
       <use xlink:href="#DejaVuSans-32" transform="translate(179.199219 0)"/>
       <use xlink:href="#DejaVuSans-30" transform="translate(242.822266 0)"/>
      </g>
     </g>
    </g>
    <g id="ytick_8">
     <g id="line2d_25">
      <path d="M 90 298.369338 
L 648 298.369338 
" clip-path="url(#p3dbe9d257f)" style="fill: none; stroke: #b0b0b0; stroke-width: 0.8; stroke-linecap: square"/>
     </g>
     <g id="line2d_26">
      <g>
       <use xlink:href="#m4af6b9dd09" x="90" y="298.369338" style="stroke: #000000; stroke-width: 0.8"/>
      </g>
     </g>
     <g id="text_14">
      <!-- −6.18 -->
      <g transform="translate(52.354687 302.168556) scale(0.1 -0.1)">
       <defs>
        <path id="DejaVuSans-31" d="M 794 531 
L 1825 531 
L 1825 4091 
L 703 3866 
L 703 4441 
L 1819 4666 
L 2450 4666 
L 2450 531 
L 3481 531 
L 3481 0 
L 794 0 
L 794 531 
z
" transform="scale(0.015625)"/>
       </defs>
       <use xlink:href="#DejaVuSans-2212"/>
       <use xlink:href="#DejaVuSans-36" transform="translate(83.789062 0)"/>
       <use xlink:href="#DejaVuSans-2e" transform="translate(147.412109 0)"/>
       <use xlink:href="#DejaVuSans-31" transform="translate(179.199219 0)"/>
       <use xlink:href="#DejaVuSans-38" transform="translate(242.822266 0)"/>
      </g>
     </g>
    </g>
    <g id="ytick_9">
     <g id="line2d_27">
      <path d="M 90 258.259815 
L 648 258.259815 
" clip-path="url(#p3dbe9d257f)" style="fill: none; stroke: #b0b0b0; stroke-width: 0.8; stroke-linecap: square"/>
     </g>
     <g id="line2d_28">
      <g>
       <use xlink:href="#m4af6b9dd09" x="90" y="258.259815" style="stroke: #000000; stroke-width: 0.8"/>
      </g>
     </g>
     <g id="text_15">
      <!-- −6.16 -->
      <g transform="translate(52.354687 262.059034) scale(0.1 -0.1)">
       <use xlink:href="#DejaVuSans-2212"/>
       <use xlink:href="#DejaVuSans-36" transform="translate(83.789062 0)"/>
       <use xlink:href="#DejaVuSans-2e" transform="translate(147.412109 0)"/>
       <use xlink:href="#DejaVuSans-31" transform="translate(179.199219 0)"/>
       <use xlink:href="#DejaVuSans-36" transform="translate(242.822266 0)"/>
      </g>
     </g>
    </g>
    <g id="text_16">
     <!-- Latitude (°) -->
     <g transform="translate(46.275 464.889531) rotate(-90) scale(0.1 -0.1)">
      <defs>
       <path id="DejaVuSans-61" d="M 2194 1759 
Q 1497 1759 1228 1600 
Q 959 1441 959 1056 
Q 959 750 1161 570 
Q 1363 391 1709 391 
Q 2188 391 2477 730 
Q 2766 1069 2766 1631 
L 2766 1759 
L 2194 1759 
z
M 3341 1997 
L 3341 0 
L 2766 0 
L 2766 531 
Q 2569 213 2275 61 
Q 1981 -91 1556 -91 
Q 1019 -91 701 211 
Q 384 513 384 1019 
Q 384 1609 779 1909 
Q 1175 2209 1959 2209 
L 2766 2209 
L 2766 2266 
Q 2766 2663 2505 2880 
Q 2244 3097 1772 3097 
Q 1472 3097 1187 3025 
Q 903 2953 641 2809 
L 641 3341 
Q 956 3463 1253 3523 
Q 1550 3584 1831 3584 
Q 2591 3584 2966 3190 
Q 3341 2797 3341 1997 
z
" transform="scale(0.015625)"/>
      </defs>
      <use xlink:href="#DejaVuSans-4c"/>
      <use xlink:href="#DejaVuSans-61" transform="translate(55.712891 0)"/>
      <use xlink:href="#DejaVuSans-74" transform="translate(116.992188 0)"/>
      <use xlink:href="#DejaVuSans-69" transform="translate(156.201172 0)"/>
      <use xlink:href="#DejaVuSans-74" transform="translate(183.984375 0)"/>
      <use xlink:href="#DejaVuSans-75" transform="translate(223.193359 0)"/>
      <use xlink:href="#DejaVuSans-64" transform="translate(286.572266 0)"/>
      <use xlink:href="#DejaVuSans-65" transform="translate(350.048828 0)"/>
      <use xlink:href="#DejaVuSans-20" transform="translate(411.572266 0)"/>
      <use xlink:href="#DejaVuSans-28" transform="translate(443.359375 0)"/>
      <use xlink:href="#DejaVuSans-b0" transform="translate(482.373047 0)"/>
      <use xlink:href="#DejaVuSans-29" transform="translate(532.373047 0)"/>
     </g>
    </g>
   </g>
   <g id="patch_3">
    <path d="M 90 616.632312 
L 90 256.007688 
" style="fill: none; stroke: #000000; stroke-width: 0.8; stroke-linejoin: miter; stroke-linecap: square"/>
   </g>
   <g id="patch_4">
    <path d="M 648 616.632312 
L 648 256.007688 
" style="fill: none; stroke: #000000; stroke-width: 0.8; stroke-linejoin: miter; stroke-linecap: square"/>
   </g>
   <g id="patch_5">
    <path d="M 90 616.632312 
L 648 616.632312 
" style="fill: none; stroke: #000000; stroke-width: 0.8; stroke-linejoin: miter; stroke-linecap: square"/>
   </g>
   <g id="patch_6">
    <path d="M 90 256.007688 
L 648 256.007688 
" style="fill: none; stroke: #000000; stroke-width: 0.8; stroke-linejoin: miter; stroke-linecap: square"/>
   </g>
   <g id="legend_1">
    <g id="patch_7">
     <path d="M 279.8375 728.049112 
L 458.1625 728.049112 
Q 460.1625 728.049112 460.1625 726.049112 
L 460.1625 695.757237 
Q 460.1625 693.757237 458.1625 693.757237 
L 279.8375 693.757237 
Q 277.8375 693.757237 277.8375 695.757237 
L 277.8375 726.049112 
Q 277.8375 728.049112 279.8375 728.049112 
z
" style="fill: #ffffff; opacity: 0.8; stroke: #cccccc; stroke-linejoin: miter"/>
    </g>
    <g id="text_17">
     <!-- Legenda -->
     <g transform="translate(343.280625 706.875362) scale(0.12 -0.12)">
      <use xlink:href="#DejaVuSans-4c"/>
      <use xlink:href="#DejaVuSans-65" transform="translate(53.962891 0)"/>
      <use xlink:href="#DejaVuSans-67" transform="translate(115.486328 0)"/>
      <use xlink:href="#DejaVuSans-65" transform="translate(178.962891 0)"/>
      <use xlink:href="#DejaVuSans-6e" transform="translate(240.486328 0)"/>
      <use xlink:href="#DejaVuSans-64" transform="translate(303.865234 0)"/>
      <use xlink:href="#DejaVuSans-61" transform="translate(367.341797 0)"/>
     </g>
    </g>
    <g id="patch_8">
     <path d="M 281.8375 721.969424 
L 301.8375 721.969424 
L 301.8375 714.969424 
L 281.8375 714.969424 
L 281.8375 721.969424 
z
" style="fill: none; stroke: #000000; stroke-linejoin: miter"/>
    </g>
    <g id="text_18">
     <!-- Gleba Federal -->
     <g transform="translate(309.8375 721.969424) scale(0.1 -0.1)">
      <defs>
       <path id="DejaVuSans-47" d="M 3809 666 
L 3809 1919 
L 2778 1919 
L 2778 2438 
L 4434 2438 
L 4434 434 
Q 4069 175 3628 42 
Q 3188 -91 2688 -91 
Q 1594 -91 976 548 
Q 359 1188 359 2328 
Q 359 3472 976 4111 
Q 1594 4750 2688 4750 
Q 3144 4750 3555 4637 
Q 3966 4525 4313 4306 
L 4313 3634 
Q 3963 3931 3569 4081 
Q 3175 4231 2741 4231 
Q 1884 4231 1454 3753 
Q 1025 3275 1025 2328 
Q 1025 1384 1454 906 
Q 1884 428 2741 428 
Q 3075 428 3337 486 
Q 3600 544 3809 666 
z
" transform="scale(0.015625)"/>
       <path id="DejaVuSans-6c" d="M 603 4863 
L 1178 4863 
L 1178 0 
L 603 0 
L 603 4863 
z
" transform="scale(0.015625)"/>
       <path id="DejaVuSans-62" d="M 3116 1747 
Q 3116 2381 2855 2742 
Q 2594 3103 2138 3103 
Q 1681 3103 1420 2742 
Q 1159 2381 1159 1747 
Q 1159 1113 1420 752 
Q 1681 391 2138 391 
Q 2594 391 2855 752 
Q 3116 1113 3116 1747 
z
M 1159 2969 
Q 1341 3281 1617 3432 
Q 1894 3584 2278 3584 
Q 2916 3584 3314 3078 
Q 3713 2572 3713 1747 
Q 3713 922 3314 415 
Q 2916 -91 2278 -91 
Q 1894 -91 1617 61 
Q 1341 213 1159 525 
L 1159 0 
L 581 0 
L 581 4863 
L 1159 4863 
L 1159 2969 
z
" transform="scale(0.015625)"/>
       <path id="DejaVuSans-46" d="M 628 4666 
L 3309 4666 
L 3309 4134 
L 1259 4134 
L 1259 2759 
L 3109 2759 
L 3109 2228 
L 1259 2228 
L 1259 0 
L 628 0 
L 628 4666 
z
" transform="scale(0.015625)"/>
       <path id="DejaVuSans-72" d="M 2631 2963 
Q 2534 3019 2420 3045 
Q 2306 3072 2169 3072 
Q 1681 3072 1420 2755 
Q 1159 2438 1159 1844 
L 1159 0 
L 581 0 
L 581 3500 
L 1159 3500 
L 1159 2956 
Q 1341 3275 1631 3429 
Q 1922 3584 2338 3584 
Q 2397 3584 2469 3576 
Q 2541 3569 2628 3553 
L 2631 2963 
z
" transform="scale(0.015625)"/>
      </defs>
      <use xlink:href="#DejaVuSans-47"/>
      <use xlink:href="#DejaVuSans-6c" transform="translate(77.490234 0)"/>
      <use xlink:href="#DejaVuSans-65" transform="translate(105.273438 0)"/>
      <use xlink:href="#DejaVuSans-62" transform="translate(166.796875 0)"/>
      <use xlink:href="#DejaVuSans-61" transform="translate(230.273438 0)"/>
      <use xlink:href="#DejaVuSans-20" transform="translate(291.552734 0)"/>
      <use xlink:href="#DejaVuSans-46" transform="translate(323.339844 0)"/>
      <use xlink:href="#DejaVuSans-65" transform="translate(375.359375 0)"/>
      <use xlink:href="#DejaVuSans-64" transform="translate(436.882812 0)"/>
      <use xlink:href="#DejaVuSans-65" transform="translate(500.359375 0)"/>
      <use xlink:href="#DejaVuSans-72" transform="translate(561.882812 0)"/>
      <use xlink:href="#DejaVuSans-61" transform="translate(602.996094 0)"/>
      <use xlink:href="#DejaVuSans-6c" transform="translate(664.275391 0)"/>
     </g>
    </g>
    <g id="patch_9">
     <path d="M 399.045312 721.969424 
L 419.045312 721.969424 
L 419.045312 714.969424 
L 399.045312 714.969424 
z
" style="fill: #e0bd1f; opacity: 0.6"/>
    </g>
    <g id="text_19">
     <!-- SIGEF -->
     <g transform="translate(427.045312 721.969424) scale(0.1 -0.1)">
      <defs>
       <path id="DejaVuSans-53" d="M 3425 4513 
L 3425 3897 
Q 3066 4069 2747 4153 
Q 2428 4238 2131 4238 
Q 1616 4238 1336 4038 
Q 1056 3838 1056 3469 
Q 1056 3159 1242 3001 
Q 1428 2844 1947 2747 
L 2328 2669 
Q 3034 2534 3370 2195 
Q 3706 1856 3706 1288 
Q 3706 609 3251 259 
Q 2797 -91 1919 -91 
Q 1588 -91 1214 -16 
Q 841 59 441 206 
L 441 856 
Q 825 641 1194 531 
Q 1563 422 1919 422 
Q 2459 422 2753 634 
Q 3047 847 3047 1241 
Q 3047 1584 2836 1778 
Q 2625 1972 2144 2069 
L 1759 2144 
Q 1053 2284 737 2584 
Q 422 2884 422 3419 
Q 422 4038 858 4394 
Q 1294 4750 2059 4750 
Q 2388 4750 2728 4690 
Q 3069 4631 3425 4513 
z
" transform="scale(0.015625)"/>
       <path id="DejaVuSans-49" d="M 628 4666 
L 1259 4666 
L 1259 0 
L 628 0 
L 628 4666 
z
" transform="scale(0.015625)"/>
       <path id="DejaVuSans-45" d="M 628 4666 
L 3578 4666 
L 3578 4134 
L 1259 4134 
L 1259 2753 
L 3481 2753 
L 3481 2222 
L 1259 2222 
L 1259 531 
L 3634 531 
L 3634 0 
L 628 0 
L 628 4666 
z
" transform="scale(0.015625)"/>
      </defs>
      <use xlink:href="#DejaVuSans-53"/>
      <use xlink:href="#DejaVuSans-49" transform="translate(63.476562 0)"/>
      <use xlink:href="#DejaVuSans-47" transform="translate(92.96875 0)"/>
      <use xlink:href="#DejaVuSans-45" transform="translate(170.458984 0)"/>
      <use xlink:href="#DejaVuSans-46" transform="translate(233.642578 0)"/>
     </g>
    </g>
   </g>
  </g>
 </g>
 <defs>
  <clipPath id="p3dbe9d257f">
   <rect x="90" y="256.007688" width="558" height="360.624624"/>
  </clipPath>
 </defs>
</svg>
