<?xml version="1.0" encoding="utf-8" standalone="no"?>
<!DOCTYPE svg PUBLIC "-//W3C//DTD SVG 1.1//EN"
  "http://www.w3.org/Graphics/SVG/1.1/DTD/svg11.dtd">
<svg xmlns:xlink="http://www.w3.org/1999/xlink" width="720pt" height="864pt" viewBox="0 0 720 864" xmlns="http://www.w3.org/2000/svg" version="1.1">
 <metadata>
  <rdf:RDF xmlns:dc="http://purl.org/dc/elements/1.1/" xmlns:cc="http://creativecommons.org/ns#" xmlns:rdf="http://www.w3.org/1999/02/22-rdf-syntax-ns#">
   <cc:Work>
    <dc:type rdf:resource="http://purl.org/dc/dcmitype/StillImage"/>
    <dc:date>2025-06-16T16:54:08.596380</dc:date>
    <dc:format>image/svg+xml</dc:format>
    <dc:creator>
     <cc:Agent>
      <dc:title>Matplotlib v3.10.1, https://matplotlib.org/</dc:title>
     </cc:Agent>
    </dc:creator>
   </cc:Work>
  </rdf:RDF>
 </metadata>
 <defs>
  <style type="text/css">*{stroke-linejoin: round; stroke-linecap: butt}</style>
 </defs>
 <g id="figure_1">
  <g id="patch_1">
   <path d="M 0 864 
L 720 864 
L 720 0 
L 0 0 
z
" style="fill: #ffffff"/>
  </g>
  <g id="axes_1">
   <g id="patch_2">
    <path d="M 90 601.784838 
L 648 601.784838 
L 648 270.855162 
L 90 270.855162 
z
" style="fill: #ffffff"/>
   </g>
   <g id="PatchCollection_1">
    <path d="M 323.190189 357.216952 
L 325.368504 356.426616 
L 326.678995 354.880969 
L 326.679995 353.990673 
L 325.314382 352.780029 
L 323.381563 351.623086 
L 322.574239 350.050232 
L 322.497328 347.76698 
L 323.615604 346.120283 
L 325.928224 345.212262 
L 328.872509 346.243305 
L 330.487819 346.625432 
L 333.94585 345.884477 
L 335.615883 344.488852 
L 336.466933 342.385314 
L 338.100059 342.268994 
L 339.733186 342.152674 
L 343.031908 343.093276 
L 344.743728 343.455329 
L 346.280216 342.857633 
L 346.845067 341.30882 
L 346.367527 340.102896 
L 345.747999 339.567139 
L 345.419133 338.926758 
L 345.979095 338.197102 
L 346.539056 337.467446 
L 346.990899 336.606314 
L 346.432274 334.181024 
L 346.707727 332.603386 
L 347.461277 331.285259 
L 348.277625 330.718931 
L 348.763109 330.672748 
L 349.291269 331.877363 
L 350.436949 332.474176 
L 351.104256 331.741073 
L 351.299797 328.212173 
L 351.602682 327.842495 
L 353.34464 328.266036 
L 354.890248 326.422041 
L 357.478602 325.01993 
L 358.253399 325.430686 
L 359.248844 330.829923 
L 359.80266 331.598931 
L 360.602561 331.332445 
L 361.563836 328.524047 
L 362.795733 328.943661 
L 366.365445 331.779785 
L 368.072354 331.137798 
L 367.79567 329.715776 
L 366.436218 329.124923 
L 364.854262 329.314707 
L 364.396709 329.059369 
L 364.15986 328.107164 
L 365.116382 327.165415 
L 365.94669 327.659331 
L 367.385527 327.562032 
L 367.800147 325.79038 
L 369.149939 326.466019 
L 370.7051 327.268245 
L 372.345476 329.850005 
L 373.172643 333.071995 
L 373.956521 332.156786 
L 374.586963 330.434161 
L 375.318352 329.678352 
L 375.979281 328.928047 
L 376.236182 327.71672 
L 376.522348 327.437788 
L 376.915007 327.530203 
L 377.647714 328.51723 
L 378.030883 328.696754 
L 378.449835 328.633431 
L 378.914021 327.818646 
L 378.934339 326.778863 
L 379.506348 326.504754 
L 380.296114 327.194848 
L 381.515659 327.767326 
L 382.271279 327.449277 
L 383.355542 325.66851 
L 385.387361 325.385869 
L 387.47639 325.260015 
L 388.641491 324.727776 
L 390.20262 324.259798 
L 391.918989 324.510888 
L 393.085325 325.192295 
L 393.579587 325.800669 
L 393.141557 327.095226 
L 394.187061 328.600128 
L 395.279349 327.02757 
L 396.848995 326.849356 
L 396.399612 329.242704 
L 398.826258 330.603371 
L 400.329899 332.521825 
L 401.890725 333.810098 
L 403.774867 334.107722 
L 405.104198 334.566662 
L 408.022878 334.281274 
L 409.60745 334.009695 
L 410.439017 333.912298 
L 410.976382 332.977638 
L 412.348448 332.724266 
L 414.756923 333.264189 
L 416.343719 334.66413 
L 419.38384 332.386964 
L 421.008831 331.888068 
L 423.625099 332.193505 
L 426.386983 332.789844 
L 427.711092 333.502964 
L 428.678256 332.950668 
L 428.984083 332.12968 
L 428.532665 331.241263 
L 427.954104 330.100896 
L 428.203271 329.423258 
L 430.327376 325.883935 
L 432.694597 323.361078 
L 434.46849 323.052312 
L 436.240204 323.540658 
L 437.643818 323.197502 
L 438.868454 322.824666 
L 439.868025 322.449178 
L 440.322754 322.721496 
L 440.609138 324.667735 
L 441.390731 325.844298 
L 442.99777 326.294594 
L 444.555396 326.234968 
L 446.424792 327.182465 
L 448.612014 327.474505 
L 450.948117 327.314525 
L 451.961754 327.937726 
L 452.569263 328.726263 
L 453.260615 329.074182 
L 454.008062 328.867752 
L 454.416336 328.18626 
L 454.417172 327.395657 
L 453.668701 325.87934 
L 452.311905 325.409751 
L 452.102729 324.80292 
L 452.446975 324.284181 
L 453.328799 323.993385 
L 454.649731 324.243854 
L 456.249778 323.731101 
L 458.065104 323.142298 
L 457.99438 322.41669 
L 457.209623 321.299585 
L 457.103862 320.33125 
L 457.642807 319.275187 
L 459.126073 318.389284 
L 460.173659 317.024179 
L 461.154561 316.053591 
L 462.442175 314.947936 
L 462.795123 314.138311 
L 463.335129 313.870697 
L 464.522086 314.152906 
L 465.258501 314.056746 
L 465.608158 313.775604 
L 465.648083 313.286823 
L 465.585951 312.781955 
L 465.892326 312.176504 
L 466.683888 311.959894 
L 467.913733 313.52491 
L 469.345089 314.569298 
L 470.086964 316.028253 
L 470.714577 316.469317 
L 471.474921 316.229119 
L 471.475357 315.811915 
L 470.624076 314.768669 
L 470.578949 314.147076 
L 471.325647 313.340719 
L 472.134391 312.491153 
L 472.427745 311.038226 
L 473.067121 310.176718 
L 474.340767 310.902378 
L 475.393438 312.04692 
L 477.756687 312.401912 
L 479.308585 310.941193 
L 479.80747 309.679548 
L 479.843487 308.81645 
L 480.861287 307.584953 
L 481.847276 307.126597 
L 483.776959 306.923772 
L 484.99983 307.833209 
L 486.624098 308.100049 
L 488.368053 308.116863 
L 489.283239 308.811886 
L 489.504706 310.932181 
L 489.751377 312.435492 
L 490.208351 312.63307 
L 490.498695 312.411107 
L 491.067217 311.655185 
L 491.735378 311.037907 
L 492.478198 310.879736 
L 493.04128 311.220078 
L 494.056403 312.462245 
L 495.742695 313.222558 
L 497.964841 312.921516 
L 499.17792 312.318327 
L 500.48286 310.960437 
L 501.404202 309.942581 
L 503.126461 309.283426 
L 504.848519 310.650367 
L 506.194921 312.015064 
L 507.574947 312.233812 
L 508.137526 311.539443 
L 508.936728 309.710004 
L 509.975204 309.467383 
L 511.093527 310.360086 
L 512.008697 311.270076 
L 513.282268 311.620147 
L 514.951105 311.306683 
L 518.027657 309.824 
L 519.887942 307.665568 
L 522.016403 305.646387 
L 522.820621 304.51979 
L 524.399044 303.633196 
L 525.71983 302.382486 
L 526.704937 300.822862 
L 527.297576 298.461079 
L 527.01392 296.978295 
L 527.439723 293.632011 
L 527.270823 292.516046 
L 526.929505 291.863927 
L 527.338033 290.780942 
L 528.770543 289.6974 
L 529.5328 289.586338 
L 529.531742 290.636682 
L 529.866039 291.337827 
L 530.206521 291.651946 
L 531.224129 291.66726 
L 532.253936 291.426924 
L 533.913828 291.823833 
L 535.505381 292.523555 
L 537.688969 292.468318 
L 538.760758 293.033651 
L 539.678425 292.623436 
L 540.363984 292.013516 
L 541.42214 291.3255 
L 541.912326 290.410576 
L 542.623291 289.628384 
L 543.733141 289.5987 
L 544.222523 290.38724 
L 543.490046 292.280119 
L 543.570313 293.084916 
L 543.900271 293.823441 
L 545.285132 294.097768 
L 546.752209 293.649704 
L 547.78256 293.335021 
L 548.96873 292.961707 
L 549.360668 292.643804 
L 549.536128 292.096501 
L 550.108922 291.98418 
L 551.576319 291.783896 
L 552.577719 291.534652 
L 554.031496 290.359368 
L 554.83174 289.435543 
L 555.495074 288.669769 
L 555.838189 288.150249 
L 556.995313 287.913212 
L 557.495728 287.106226 
L 557.84853 286.32632 
L 558.142537 285.89742 
L 558.913625 286.773798 
L 559.729443 288.059367 
L 560.17856 289.432876 
L 560.372779 291.178304 
L 560.555303 292.925296 
L 561.111309 294.387632 
L 562.119366 295.678662 
L 563.531391 297.099539 
L 565.415342 298.995298 
L 567.554194 299.950792 
L 569.641388 300.758958 
L 571.050376 301.543144 
L 572.19472 302.779766 
L 573.229639 304.950094 
L 574.282131 307.775599 
L 577.378563 313.418179 
L 578.804185 315.667843 
L 579.565802 316.341765 
L 580.914126 316.999316 
L 583.019258 317.485274 
L 586.693826 318.57311 
L 590.207447 322.838084 
L 595.556006 329.395713 
L 596.410556 330.28379 
L 597.515929 330.824187 
L 598.745255 330.92662 
L 600.734418 330.518781 
L 601.848342 330.41453 
L 602.759992 330.587166 
L 604.755463 331.537995 
L 607.548886 332.927242 
L 610.187982 335.333604 
L 612.7701 337.942857 
L 614.217837 340.060973 
L 615.886782 343.652829 
L 617.273232 345.99796 
L 618.341849 347.644077 
L 618.858445 351.499179 
L 618.216823 355.372959 
L 618.127062 356.662501 
L 620.521468 362.5589 
L 621.414673 365.502838 
L 621.505242 368.642667 
L 621.561364 371.435705 
L 621.913731 374.352417 
L 622.358137 376.819744 
L 622.04956 381.007491 
L 621.302162 384.110404 
L 619.620823 388.62594 
L 618.113762 394.283291 
L 617.782802 398.726874 
L 618.363557 427.666564 
L 618.737102 431.366892 
L 619.467411 433.487838 
L 618.990288 438.528478 
L 616.525225 446.029098 
L 618.06631 461.261928 
L 619.935648 464.557136 
L 620.520813 466.022254 
L 622.636364 516.18566 
L 611.88713 516.768527 
L 606.290734 515.233606 
L 601.264969 514.003994 
L 598.922812 512.889237 
L 596.753492 512.789753 
L 594.607844 512.433292 
L 585.507878 514.935753 
L 583.523195 515.658155 
L 575.005833 520.224372 
L 574.027356 520.640641 
L 572.526771 520.798363 
L 559.685655 521.583018 
L 553.248315 521.15396 
L 552.15741 521.22398 
L 545.216831 522.620493 
L 537.211085 523.099436 
L 536.007176 523.235734 
L 493.149876 542.48452 
L 492.112475 542.785512 
L 483.886967 542.785634 
L 473.766405 541.57897 
L 468.741339 540.214572 
L 465.933088 540.223945 
L 454.162484 540.491468 
L 445.16524 540.682771 
L 435.094807 540.942779 
L 419.419145 541.39036 
L 418.195971 541.917809 
L 413.618268 547.906454 
L 411.453244 551.227364 
L 411.223429 551.954443 
L 410.533983 554.135679 
L 409.995252 556.258245 
L 408.700639 556.256666 
L 407.694973 555.862317 
L 405.957736 555.479577 
L 405.072163 555.322162 
L 403.640769 555.244626 
L 401.899408 555.079787 
L 395.889797 554.621874 
L 389.047469 554.13611 
L 387.336306 554.091335 
L 384.995137 554.008391 
L 384.150312 554.122717 
L 383.334061 554.400486 
L 378.522121 557.042672 
L 376.841821 557.888607 
L 374.549504 557.826832 
L 351.761955 544.094361 
L 351.452573 533.6283 
L 346.00608 522.289901 
L 344.268276 518.849001 
L 342.705262 515.128022 
L 338.242743 510.079107 
L 339.188855 501.08023 
L 339.5295 497.579774 
L 339.67095 495.649606 
L 339.880117 493.349575 
L 340.071705 490.90808 
L 340.195796 488.485543 
L 340.165971 488.092261 
L 339.180457 488.086793 
L 337.913535 487.306019 
L 337.50525 486.727709 
L 336.70878 486.386402 
L 335.34118 485.519565 
L 333.781851 484.628453 
L 333.740311 483.220739 
L 334.398574 482.463157 
L 334.61201 480.944816 
L 333.857856 479.850363 
L 333.727349 479.533985 
L 333.900001 477.998731 
L 333.38726 477.335203 
L 333.296586 476.981598 
L 333.210193 475.751179 
L 333.482189 475.161836 
L 333.90036 474.133322 
L 333.84656 473.286741 
L 333.810451 472.718553 
L 333.483478 472.19079 
L 333.588497 470.8235 
L 333.07889 470.575529 
L 332.913984 469.781118 
L 332.749077 468.986708 
L 332.981973 468.35394 
L 333.293345 467.544289 
L 333.477849 466.978388 
L 333.782546 466.346393 
L 334.254967 465.544827 
L 333.69336 465.037453 
L 333.545353 464.078344 
L 333.933364 462.260852 
L 332.668788 460.068311 
L 332.244117 458.481286 
L 330.841721 456.381969 
L 329.34439 455.378356 
L 328.940495 454.998687 
L 327.628621 453.451251 
L 327.464673 452.875838 
L 326.989535 452.428465 
L 326.72276 452.182667 
L 325.942585 451.517702 
L 325.768824 450.727843 
L 325.083017 450.466748 
L 324.669418 447.150438 
L 325.28731 446.241021 
L 324.779016 444.796416 
L 323.760262 443.883402 
L 323.182087 443.240365 
L 322.761872 442.682357 
L 322.495871 441.983224 
L 322.386432 441.409368 
L 321.862137 440.222415 
L 321.856808 439.557859 
L 321.772752 438.830967 
L 320.860546 437.98422 
L 319.384965 437.427214 
L 318.264189 437.774032 
L 317.391982 437.803085 
L 316.914337 438.673265 
L 316.503117 439.002781 
L 315.020958 438.798069 
L 314.721395 437.941766 
L 314.128143 437.548033 
L 314.018398 436.637427 
L 314.104922 435.18954 
L 314.231697 434.560517 
L 314.349895 433.945299 
L 314.441406 433.674496 
L 314.356708 433.346264 
L 314.38247 432.797215 
L 314.648236 432.550886 
L 315.138161 431.724739 
L 316.016521 431.086927 
L 315.856373 430.169645 
L 315.952821 429.559067 
L 316.536209 428.601718 
L 316.998132 427.716739 
L 316.880904 426.981328 
L 316.551754 426.370548 
L 315.72065 425.356734 
L 315.455856 424.845488 
L 315.48718 424.100837 
L 316.08311 423.197312 
L 316.647983 422.231494 
L 316.954107 421.505368 
L 317.177183 420.637282 
L 317.318812 420.112956 
L 317.944844 420.103124 
L 318.334951 419.774296 
L 318.388656 419.284309 
L 318.462294 418.39161 
L 318.281415 416.520032 
L 318.642665 416.199105 
L 318.938101 415.694666 
L 319.219673 415.213917 
L 319.775032 414.122741 
L 320.109535 413.498632 
L 320.715117 413.328572 
L 323.165852 411.262013 
L 323.687102 411.069611 
L 323.662924 410.716088 
L 323.632966 410.244964 
L 323.627221 409.100165 
L 323.937089 408.54106 
L 324.092107 407.683937 
L 324.369275 407.349131 
L 324.413862 406.791251 
L 324.668862 406.386195 
L 324.738713 406.050917 
L 324.981665 405.350086 
L 324.74695 404.93163 
L 324.749205 404.310405 
L 325.37388 404.039906 
L 325.783569 403.300761 
L 326.469728 403.357116 
L 326.062134 402.635239 
L 326.43506 401.413495 
L 326.593837 400.423514 
L 327.125407 399.419851 
L 327.676937 399.254988 
L 327.851086 398.537996 
L 328.104233 397.867942 
L 328.342361 396.852176 
L 328.489721 395.742168 
L 328.353584 395.391925 
L 328.503295 394.402836 
L 328.353673 393.083284 
L 328.644819 391.892819 
L 329.102287 390.935389 
L 329.076754 390.593781 
L 329.539477 390.166987 
L 328.970787 389.284539 
L 328.938572 388.228613 
L 329.428914 386.961275 
L 329.294381 385.535285 
L 329.403019 384.321426 
L 330.126947 383.075284 
L 330.937322 380.751322 
L 330.923027 378.526245 
L 330.635728 376.606189 
L 330.186715 374.930603 
L 329.691079 372.668276 
L 328.426895 370.19175 
L 327.777563 367.935158 
L 327.512325 364.508141 
L 325.202544 362.421426 
L 324.610742 362.040484 
L 324.073351 361.516116 
L 323.961788 360.606685 
L 323.508174 359.46268 
L 323.66388 359.39802 
L 324.142412 358.428033 
L 324.421566 357.862186 
L 323.190189 357.216952 
" clip-path="url(#p60eb997a5b)" style="fill: #e0bd1f; stroke: #0000ff; stroke-width: 0.5"/>
    <path d="M 314.25904 438.782424 
L 314.639001 439.559315 
L 315.542072 439.41903 
L 315.80838 439.680711 
L 316.083418 439.783317 
L 316.513279 439.75995 
L 317.00336 439.336381 
L 317.318081 439.214685 
L 317.667267 438.222706 
L 318.26949 438.173451 
L 318.508964 438.017768 
L 318.927482 438.194529 
L 319.374322 438.665341 
L 319.480537 439.035191 
L 319.657373 439.614445 
L 320.49775 441.344424 
L 320.840695 442.00488 
L 321.20584 442.706736 
L 321.660916 443.253777 
L 321.888521 444.602023 
L 322.011528 445.696486 
L 321.993868 446.341035 
L 321.97293 446.984327 
L 321.810184 447.924704 
L 322.307815 449.199998 
L 322.949713 449.982591 
L 323.133374 450.291532 
L 324.393396 450.536441 
L 325.188329 451.38955 
L 325.808782 451.979845 
L 325.823928 452.328105 
L 326.269753 452.532727 
L 326.829911 453.318483 
L 327.35889 453.83803 
L 328.93579 455.369839 
L 330.35693 456.804066 
L 330.899026 457.356601 
L 331.962338 458.631174 
L 332.467344 460.153529 
L 333.254826 461.498989 
L 333.643846 462.372992 
L 333.457652 464.084299 
L 333.606467 465.075552 
L 334.172181 465.550765 
L 333.550618 466.232458 
L 333.193329 466.967481 
L 332.989739 467.477455 
L 332.681531 468.299906 
L 332.502113 468.967469 
L 332.86972 470.740073 
L 333.360495 471.140058 
L 333.359122 472.295307 
L 333.636468 472.773991 
L 333.689642 473.297527 
L 333.65806 474.308738 
L 333.373582 475.210531 
L 333.095 475.769765 
L 333.18875 476.448742 
L 333.198619 477.00718 
L 333.267938 477.345491 
L 333.292944 477.639061 
L 333.781503 478.018196 
L 333.283002 479.811402 
L 334.132174 480.967429 
L 334.25402 481.553088 
L 333.587552 483.156747 
L 333.435885 483.861803 
L 333.57099 484.756822 
L 335.164877 485.775856 
L 336.582395 486.601552 
L 337.370166 486.929226 
L 337.336143 487.811943 
L 340.19427 488.47497 
L 340.071705 490.90808 
L 339.880117 493.349575 
L 339.67095 495.649606 
L 339.5295 497.579774 
L 339.188855 501.08023 
L 338.242743 510.079107 
L 342.705262 515.128022 
L 344.268276 518.849001 
L 346.00608 522.289901 
L 351.452573 533.6283 
L 351.761955 544.094361 
L 374.549517 557.826787 
L 366.523622 557.801873 
L 356.161721 557.783235 
L 353.387773 557.778491 
L 348.646072 558.243136 
L 342.523439 559.028917 
L 339.295969 560.116909 
L 332.595551 563.044952 
L 329.794996 564.32658 
L 316.944202 574.50312 
L 305.184574 584.084259 
L 301.519538 586.74258 
L 300.08577 585.928271 
L 297.126146 586.285564 
L 296.334146 586.194274 
L 295.662245 585.696929 
L 292.35302 578.847027 
L 291.44313 577.446661 
L 289.920953 575.66937 
L 288.681819 574.659793 
L 285.694756 573.076195 
L 275.938197 570.942258 
L 265.271302 567.844259 
L 257.757685 564.870669 
L 243.831767 562.77645 
L 212.201703 571.418982 
L 211.019168 571.536446 
L 199.0524 571.806319 
L 198.20117 571.662342 
L 189.738469 568.984767 
L 188.698971 568.150125 
L 188.179992 567.173363 
L 186.698938 560.434072 
L 185.93058 559.260229 
L 183.344253 556.918422 
L 181.536226 556.379378 
L 175.25481 555.278584 
L 173.825732 554.823991 
L 172.821603 554.439253 
L 173.092014 551.992123 
L 172.939074 550.996745 
L 172.652822 549.491903 
L 172.568693 548.52468 
L 173.115012 547.053229 
L 173.181493 546.663967 
L 172.975534 546.385969 
L 172.538424 546.296792 
L 171.993647 546.486231 
L 171.586371 547.127884 
L 171.317815 547.550833 
L 171.125352 547.57502 
L 170.879059 547.453257 
L 170.670514 547.071509 
L 170.134458 546.178503 
L 170.217506 545.786759 
L 170.670792 545.170789 
L 171.09405 544.299449 
L 171.167932 543.847285 
L 171.034588 543.484665 
L 170.439909 542.640366 
L 170.842578 541.8083 
L 170.848871 541.414419 
L 170.349217 540.638813 
L 170.39076 540.233657 
L 170.997796 539.887021 
L 171.320915 539.520513 
L 171.45849 538.955744 
L 171.738205 538.717542 
L 172.486935 538.375588 
L 173.401773 537.617567 
L 174.227811 536.848473 
L 174.324972 536.483451 
L 174.183532 536.146953 
L 173.613509 535.96791 
L 172.8635 535.978898 
L 172.816043 535.741485 
L 173.658695 534.523819 
L 174.360762 533.6139 
L 174.595596 532.84643 
L 174.338652 532.208434 
L 173.909024 532.101496 
L 173.438592 532.275224 
L 172.808048 532.081951 
L 172.32465 531.407806 
L 171.832842 531.020979 
L 172.080211 530.737185 
L 172.786099 530.591933 
L 173.259279 530.072962 
L 173.324035 529.638198 
L 173.322046 528.74707 
L 173.555248 528.295161 
L 174.129342 527.808407 
L 174.353031 527.285914 
L 175.069299 526.916291 
L 175.640268 526.529691 
L 176.605924 526.430883 
L 177.661242 526.334469 
L 179.181037 526.249857 
L 180.050991 526.097043 
L 180.751559 525.682903 
L 181.080782 524.850034 
L 181.242224 522.43311 
L 181.979575 520.481414 
L 183.008058 519.323751 
L 183.547936 518.107945 
L 183.489941 517.462932 
L 183.051039 516.461681 
L 183.309746 514.03198 
L 182.744437 513.074541 
L 181.749578 512.865954 
L 181.578435 512.508744 
L 181.876844 511.726123 
L 183.113776 510.449596 
L 183.343244 509.8972 
L 183.072054 507.305973 
L 181.198731 505.299904 
L 181.359338 504.931691 
L 182.594102 505.405373 
L 183.1662 505.244885 
L 183.509977 504.715684 
L 183.408408 503.656167 
L 183.226085 503.114706 
L 181.820078 502.445038 
L 181.523101 502.122261 
L 181.386945 501.223848 
L 180.747492 500.370941 
L 179.627773 499.390707 
L 179.388794 498.457708 
L 179.207704 496.949026 
L 178.822325 495.291976 
L 178.551484 495.007295 
L 178.195253 494.102212 
L 178.185647 493.63968 
L 178.942988 492.293971 
L 179.148541 491.225189 
L 178.914447 490.628692 
L 178.301902 490.514815 
L 177.484117 491.24363 
L 177.003895 491.469169 
L 176.707984 491.35571 
L 175.974199 490.213702 
L 175.944234 489.699752 
L 177.355136 488.262404 
L 176.978118 487.655387 
L 175.938046 486.513022 
L 175.458522 486.214311 
L 174.938047 485.987491 
L 174.530363 485.401046 
L 174.806288 485.206081 
L 175.674041 485.320259 
L 176.276644 485.197688 
L 176.744934 484.848351 
L 177.00266 484.344033 
L 176.926258 483.774647 
L 176.259064 482.868059 
L 175.796727 482.608725 
L 174.61506 482.024974 
L 174.653993 481.740383 
L 176.426837 482.298996 
L 177.454895 482.390893 
L 178.54774 482.081777 
L 179.036611 481.745967 
L 179.191595 481.125106 
L 178.793715 480.671744 
L 176.841074 479.996476 
L 175.749916 478.998833 
L 175.082469 478.312238 
L 174.954399 477.936848 
L 175.237263 477.846613 
L 176.585976 478.404679 
L 177.639787 478.509554 
L 178.282684 478.277473 
L 178.411932 477.695375 
L 177.744848 476.698253 
L 176.807307 476.205434 
L 175.895176 475.893731 
L 175.677203 475.479412 
L 175.690611 475.039546 
L 176.038819 474.095416 
L 176.091534 473.047473 
L 176.182132 472.542997 
L 176.015733 472.012345 
L 175.488957 471.843421 
L 173.99794 471.996799 
L 173.010286 471.093752 
L 172.746891 470.639791 
L 172.457441 470.636304 
L 171.608128 471.489128 
L 171.209581 471.592144 
L 171.081356 471.333186 
L 171.224544 469.897259 
L 170.9559 468.913576 
L 171.09818 468.189137 
L 172.074741 468.371556 
L 172.627837 467.958236 
L 172.487144 467.440523 
L 171.99914 467.103445 
L 170.932648 466.946853 
L 170.495954 466.726338 
L 170.393587 466.389863 
L 170.844191 465.743475 
L 172.336109 464.658384 
L 173.635894 463.482785 
L 173.611134 462.758152 
L 172.48381 462.105765 
L 172.481268 461.876916 
L 173.82431 462.101749 
L 174.627404 461.983137 
L 175.065123 461.388526 
L 173.063973 458.384242 
L 171.702617 457.632086 
L 170.083009 457.837035 
L 169.157828 457.706483 
L 168.116796 456.510256 
L 166.718586 455.568516 
L 165.343824 455.295088 
L 165.164283 454.958454 
L 165.96262 453.756159 
L 165.966189 452.792394 
L 165.244854 452.20269 
L 164.255546 451.929682 
L 163.188826 451.92834 
L 162.123188 451.124818 
L 161.585754 449.222123 
L 161.433364 447.759876 
L 160.971565 447.073613 
L 159.261448 447.718368 
L 158.785971 447.653063 
L 158.106519 446.345452 
L 157.156008 445.891364 
L 156.153732 445.799543 
L 156.057335 445.481059 
L 157.185444 443.978179 
L 157.163881 443.383209 
L 156.595652 442.989534 
L 156.060325 443.112355 
L 154.207296 444.704084 
L 153.861598 444.714893 
L 153.75104 443.940144 
L 154.779028 442.257548 
L 154.893027 440.248265 
L 154.614971 439.686649 
L 153.667572 439.326187 
L 152.798546 438.775043 
L 152.030648 437.539189 
L 148.844647 435.043018 
L 148.39865 435.008785 
L 148.242871 434.761619 
L 148.834615 434.156165 
L 148.87994 433.5725 
L 148.579491 433.089412 
L 147.2197 432.560033 
L 147.019562 432.133205 
L 146.942755 431.134005 
L 146.597591 430.751932 
L 145.88425 430.447881 
L 144.690417 431.018937 
L 144.489878 430.895159 
L 144.948018 430.132418 
L 145.093755 429.526336 
L 144.552305 428.717741 
L 143.968693 428.425598 
L 143.357921 427.98391 
L 142.892702 427.82713 
L 142.299436 427.964205 
L 142.016864 427.761736 
L 141.717426 426.420182 
L 141.106374 426.171387 
L 140.540504 426.317657 
L 139.562641 427.556531 
L 139.406803 428.125874 
L 139.826051 428.521444 
L 140.838753 428.632943 
L 140.947821 428.963828 
L 140.628188 429.174651 
L 139.131742 429.200325 
L 137.889876 429.933642 
L 137.744229 429.639477 
L 137.673137 428.123726 
L 137.546079 427.581615 
L 137.601414 427.103924 
L 138.241139 426.314726 
L 137.867614 425.827432 
L 137.001492 425.284377 
L 136.582911 424.328459 
L 136.136354 423.896164 
L 135.597922 423.932231 
L 134.703346 424.289345 
L 134.22888 424.279573 
L 132.679209 423.083451 
L 132.697893 422.706851 
L 133.976223 421.991913 
L 134.122963 421.376663 
L 133.630831 420.907526 
L 132.106593 421.227128 
L 131.623217 421.061146 
L 131.395667 420.656724 
L 131.852821 419.903975 
L 133.376742 419.768132 
L 133.878971 419.483988 
L 133.96177 418.923787 
L 133.852998 418.354117 
L 134.296152 417.842336 
L 134.967165 417.176136 
L 135.486089 416.356349 
L 135.352007 415.372158 
L 134.947169 414.883542 
L 133.942477 414.368555 
L 133.33256 413.843432 
L 133.493961 413.358029 
L 134.115128 412.561005 
L 134.33396 412.041017 
L 134.082002 411.474101 
L 133.542598 411.20753 
L 132.58884 411.610992 
L 132.187145 411.37924 
L 132.072824 410.962858 
L 131.809355 410.430707 
L 131.270003 410.059992 
L 130.396702 410.428907 
L 130.201819 410.185885 
L 130.939265 408.198061 
L 130.790713 407.585048 
L 130.170884 407.329943 
L 129.12527 407.756414 
L 128.217193 408.344983 
L 127.838287 408.286674 
L 127.448209 407.99715 
L 127.001339 407.15255 
L 126.956565 406.20441 
L 126.601867 405.128633 
L 126.349777 404.689005 
L 126.453526 404.365316 
L 126.878593 404.261819 
L 128.371219 404.55275 
L 128.911378 404.218134 
L 129.199175 403.675077 
L 128.981654 403.142966 
L 127.065529 401.648982 
L 127.157921 401.255962 
L 128.065912 400.67902 
L 128.446199 399.627321 
L 128.665089 399.07261 
L 128.642826 398.494472 
L 127.633835 397.163589 
L 126.738805 396.549674 
L 125.235142 395.842473 
L 124.144338 395.656126 
L 123.180047 395.331179 
L 122.916424 394.949343 
L 122.790733 394.417328 
L 122.917453 394.093705 
L 123.815288 392.441413 
L 123.804603 391.782395 
L 123.529571 391.284834 
L 123.024632 390.97204 
L 122.381692 390.832505 
L 121.154161 389.755684 
L 120.602856 389.835937 
L 120.027472 390.760177 
L 119.280037 391.510814 
L 117.94709 392.08727 
L 117.499302 391.994184 
L 117.258618 391.658626 
L 117.213281 391.149776 
L 117.535862 390.340809 
L 118.697056 389.278608 
L 118.755254 388.665891 
L 117.883418 387.890137 
L 117.274651 387.958726 
L 115.363636 388.775947 
L 115.839752 387.880242 
L 117.49515 385.943905 
L 120.28739 383.706352 
L 122.609943 381.562729 
L 123.399496 381.1098 
L 124.677182 380.771007 
L 127.27918 380.566185 
L 128.171097 380.822597 
L 129.165494 381.807243 
L 129.924283 383.434587 
L 130.365766 385.642578 
L 130.621964 388.808738 
L 130.80836 391.058439 
L 130.914104 391.594171 
L 131.138261 391.987241 
L 132.319411 392.786065 
L 133.2887 392.942028 
L 133.785304 392.859323 
L 134.933004 392.039531 
L 136.685441 389.792205 
L 137.930615 386.627801 
L 138.605319 385.890792 
L 140.143429 384.89289 
L 141.090524 383.799068 
L 141.23354 382.847053 
L 140.927977 381.359005 
L 139.890239 379.215338 
L 138.863853 377.476408 
L 137.530395 375.475226 
L 137.542795 374.999146 
L 138.051967 374.309485 
L 138.820999 373.786757 
L 140.204315 373.693217 
L 142.000718 374.135797 
L 145.604378 375.806492 
L 147.258311 376.760686 
L 148.769917 378.119402 
L 149.537692 378.644012 
L 150.069389 378.882699 
L 150.807637 379.125798 
L 152.265681 378.154721 
L 152.789249 377.154426 
L 152.790017 376.526695 
L 152.6053 375.983535 
L 151.848245 374.964727 
L 148.381223 371.312854 
L 148.129534 370.396381 
L 148.433957 369.480627 
L 149.598181 368.294398 
L 152.66774 366.126562 
L 153.25758 366.110321 
L 154.805734 367.927562 
L 156.723045 371.068573 
L 156.941065 371.917072 
L 155.504682 375.240595 
L 155.470359 375.749566 
L 155.606654 376.291877 
L 155.864002 376.756827 
L 156.392883 377.235852 
L 157.247743 377.482861 
L 158.374844 377.210902 
L 159.271552 376.542336 
L 162.65672 372.36443 
L 163.47183 371.873403 
L 165.224092 370.959858 
L 166.216541 369.690067 
L 166.693568 368.105253 
L 166.465921 365.481035 
L 166.520819 364.975427 
L 167.172998 364.511494 
L 167.837821 364.813009 
L 168.609901 366.18059 
L 169.516027 369.024402 
L 169.732089 369.981377 
L 169.838799 371.553159 
L 169.741384 373.548397 
L 169.834655 375.010871 
L 170.009881 376.04975 
L 170.253652 376.514682 
L 171.13523 377.171784 
L 172.723065 377.542736 
L 173.741355 377.434641 
L 175.79079 375.786986 
L 176.073984 374.738388 
L 176.014047 373.615305 
L 175.868167 372.603212 
L 175.269284 371.158673 
L 175.367877 370.702242 
L 175.67471 370.394037 
L 176.361189 370.308507 
L 181.629692 372.190637 
L 181.812988 372.647488 
L 181.726644 373.091557 
L 181.076359 373.633775 
L 180.083107 373.965772 
L 178.721704 374.667519 
L 177.960774 375.431745 
L 177.150152 376.812872 
L 176.890849 378.404442 
L 177.08512 379.947279 
L 177.659469 381.404112 
L 178.442391 382.713174 
L 179.53193 383.874511 
L 180.499621 384.369258 
L 181.516812 384.51859 
L 182.080766 384.445238 
L 182.988638 383.792278 
L 183.590224 382.941574 
L 184.168098 381.498365 
L 184.599556 379.4381 
L 184.8464 378.019266 
L 185.165434 377.748106 
L 185.937537 377.884798 
L 187.002592 378.996755 
L 189.437776 382.368622 
L 190.441613 383.431112 
L 191.703165 384.234773 
L 193.198021 384.767261 
L 194.69308 385.065239 
L 195.734782 385.177558 
L 196.249855 385.042428 
L 197.782082 384.994933 
L 199.841689 384.676577 
L 202.196136 383.889619 
L 204.44502 382.697796 
L 206.545181 381.203053 
L 207.401377 380.783593 
L 208.338639 380.682172 
L 208.847963 380.734066 
L 211.53572 381.926918 
L 212.085631 382.081424 
L 213.094261 381.928817 
L 213.553063 381.590958 
L 214.043059 380.771029 
L 214.125201 380.207067 
L 213.852657 378.094146 
L 213.436782 376.586049 
L 212.491729 374.667207 
L 211.556009 373.425121 
L 210.518319 372.264969 
L 210.081327 371.413253 
L 210.051411 370.879967 
L 210.358048 369.998344 
L 211.010827 369.291488 
L 211.40846 369.004797 
L 212.315331 368.78027 
L 213.231982 368.873673 
L 213.669774 369.038273 
L 214.198673 369.767094 
L 215.234444 372.49623 
L 215.529354 372.93762 
L 216.425054 373.574555 
L 217.423024 373.832119 
L 218.472284 373.751325 
L 220.367744 373.138253 
L 221.743844 372.380974 
L 224.058531 370.373662 
L 224.965558 370.005534 
L 225.851801 370.078366 
L 227.154854 370.726005 
L 227.897823 371.332007 
L 228.060334 371.711637 
L 227.753815 372.500932 
L 227.121387 373.228341 
L 224.593155 374.896984 
L 223.093996 376.361734 
L 222.603868 377.335442 
L 222.497327 377.852581 
L 222.911128 378.897667 
L 223.772336 379.573713 
L 224.841557 379.880376 
L 226.310218 379.817849 
L 229.009546 378.615693 
L 230.462757 378.151361 
L 232.474281 378.041265 
L 234.661552 377.770658 
L 237.104866 377.050335 
L 239.563649 376.651481 
L 240.601246 376.733064 
L 242.548183 377.217514 
L 244.455907 377.872233 
L 244.897172 377.706373 
L 246.175171 377.797405 
L 247.131053 377.753779 
L 248.098293 377.396891 
L 248.777088 376.715138 
L 249.178258 375.798107 
L 249.379977 374.36617 
L 249.227096 372.038588 
L 249.43979 370.729718 
L 250.296716 369.75724 
L 251.419954 369.143162 
L 252.69833 368.887335 
L 253.576227 368.977888 
L 254.409495 369.236232 
L 256.031042 370.099673 
L 257.820009 370.426282 
L 258.734935 370.396433 
L 259.675246 370.208255 
L 260.991857 369.768132 
L 262.891222 368.562569 
L 263.921889 367.626373 
L 264.433193 366.797683 
L 264.684906 365.878659 
L 264.730738 364.959313 
L 264.27664 362.795538 
L 264.743539 361.624327 
L 265.622071 360.624853 
L 267.118263 359.671186 
L 267.862005 359.113208 
L 268.614467 358.726511 
L 270.262516 358.160545 
L 272.035695 357.684902 
L 273.630244 356.866525 
L 274.804134 355.966512 
L 276.04022 355.472198 
L 276.909722 354.499758 
L 277.33156 353.580861 
L 277.448516 353.085239 
L 277.32378 352.562354 
L 276.867575 352.219278 
L 276.321613 352.083439 
L 275.828991 352.290159 
L 275.120956 352.902294 
L 274.243446 353.07251 
L 273.365994 353.125581 
L 272.954276 353.034981 
L 272.175693 352.673503 
L 271.487033 352.113903 
L 271.353185 351.70813 
L 271.237233 351.32943 
L 271.228791 350.878731 
L 271.26508 350.464108 
L 271.588259 349.707351 
L 272.825829 347.87906 
L 273.354893 347.122558 
L 273.910633 346.582334 
L 274.672085 346.132579 
L 275.138476 345.394022 
L 275.434358 345.051785 
L 275.595967 344.628355 
L 275.695486 343.709133 
L 275.366897 341.374249 
L 275.376346 340.932508 
L 275.771602 339.761232 
L 276.551706 338.716528 
L 277.573239 337.870479 
L 278.702046 337.213774 
L 279.928675 337.170101 
L 281.020168 337.793276 
L 281.879295 338.145819 
L 282.39856 338.10134 
L 282.907915 337.780117 
L 283.22275 337.321116 
L 283.233461 336.810721 
L 283.670308 336.055835 
L 284.289508 335.413467 
L 284.969303 334.965118 
L 286.216988 334.44594 
L 287.677917 333.692202 
L 288.428236 333.693066 
L 289.066456 334.163378 
L 289.410237 334.980378 
L 289.439713 335.817443 
L 289.22589 336.623625 
L 288.616252 337.745857 
L 288.189002 339.000929 
L 288.147505 339.837913 
L 288.238176 340.34839 
L 288.976502 341.951857 
L 289.948932 342.810504 
L 292.117825 343.609205 
L 293.364517 343.93727 
L 294.60089 344.469501 
L 295.320237 344.96031 
L 296.312914 345.839358 
L 297.112602 346.973336 
L 297.861141 348.536025 
L 298.731896 349.58841 
L 299.846557 350.222633 
L 301.072851 350.63232 
L 303.789991 350.829403 
L 305.097898 350.90236 
L 306.425858 351.108034 
L 307.206268 351.415167 
L 309.515762 353.398156 
L 310.346933 353.695184 
L 310.853809 353.746787 
L 312.587932 353.473151 
L 313.865865 353.127541 
L 314.271456 353.107588 
L 314.677136 352.985567 
L 315.184065 353.05759 
L 316.035894 352.956481 
L 317.334094 352.641509 
L 318.084289 352.754665 
L 318.793319 353.378167 
L 319.106795 354.123712 
L 319.199944 354.923687 
L 319.206753 355.399864 
L 319.428827 356.288242 
L 319.722463 356.635606 
L 320.147919 356.96273 
L 320.695265 357.126702 
L 321.486043 357.239905 
L 322.778116 357.256145 
L 323.841556 357.974214 
L 323.578778 358.455749 
L 323.163125 359.658551 
L 323.616854 360.71038 
L 323.750118 361.720218 
L 324.406117 362.445824 
L 325.031369 362.790106 
L 327.099434 364.785198 
L 327.291783 365.701611 
L 327.380145 368.038006 
L 328.082755 370.386561 
L 329.365517 372.735784 
L 329.85206 375.02683 
L 330.327962 376.676528 
L 330.587475 378.543572 
L 330.573649 380.696614 
L 329.8317 382.940447 
L 329.011258 384.176363 
L 328.839078 385.527545 
L 328.9398 386.982128 
L 328.559324 388.266256 
L 328.592148 389.489357 
L 328.899497 390.040956 
L 328.590927 390.557388 
L 328.573436 390.884662 
L 328.161856 391.693816 
L 327.85215 393.192141 
L 328.021953 394.329275 
L 327.815382 395.414287 
L 327.84903 395.913884 
L 327.539121 397.584471 
L 327.148359 398.616602 
L 326.467462 399.314191 
L 325.963083 400.285873 
L 325.853015 401.367551 
L 325.348319 402.613108 
L 325.361601 402.887 
L 325.116643 402.996263 
L 324.884793 403.530056 
L 324.272266 403.912765 
L 324.176703 404.21392 
L 324.121528 404.884846 
L 323.996158 405.422742 
L 323.579131 405.980481 
L 323.700916 406.897087 
L 323.322283 407.441072 
L 323.314542 408.163171 
L 323.236187 408.440313 
L 323.169176 409.261471 
L 322.922866 410.05237 
L 322.168464 410.384075 
L 322.264734 410.829422 
L 321.997928 411.377973 
L 321.26894 411.519101 
L 320.615698 412.036658 
L 319.978364 412.112291 
L 319.58676 412.664737 
L 319.531284 412.938624 
L 319.211081 413.282805 
L 318.793648 413.665269 
L 318.731673 413.996467 
L 318.426238 414.554551 
L 317.551248 414.649858 
L 317.52118 415.044309 
L 317.977204 415.531998 
L 317.529998 416.417359 
L 317.035941 417.530904 
L 317.211086 418.469991 
L 317.003371 419.356789 
L 317.048276 420.25958 
L 316.806017 421.07959 
L 316.181213 421.242612 
L 315.766445 421.528324 
L 315.68773 421.972079 
L 315.661213 422.949368 
L 315.266859 423.339158 
L 315.288889 423.979839 
L 314.947688 424.308067 
L 314.979772 424.580236 
L 314.807837 424.927902 
L 315.155831 425.799357 
L 315.946225 426.345788 
L 316.09847 427.190875 
L 316.377199 427.672754 
L 315.8027 428.253567 
L 315.431672 428.757138 
L 315.145703 428.984744 
L 314.747263 429.183792 
L 314.567319 429.656985 
L 314.260872 430.25831 
L 314.299785 430.698455 
L 314.231536 431.160958 
L 313.975983 431.62364 
L 313.869262 431.961868 
L 313.917695 433.006362 
L 313.883309 433.497177 
L 313.795831 433.701662 
L 313.893695 434.26737 
L 313.784452 434.476428 
L 314.003073 434.921092 
L 314.067072 435.468983 
L 313.827504 436.726006 
L 314.08454 437.507229 
L 313.892931 438.010052 
L 314.110978 438.453703 
L 314.25904 438.782424 
" clip-path="url(#p60eb997a5b)" style="fill: #e0bd1f; stroke: #0000ff; stroke-width: 0.5"/>
   </g>
   <g id="PatchCollection_2">
    <path d="M 314.25904 438.782424 
L 314.639001 439.559315 
L 315.542072 439.41903 
L 315.80838 439.680711 
L 316.083418 439.783317 
L 316.513279 439.75995 
L 317.00336 439.336381 
L 317.318081 439.214685 
L 317.667267 438.222706 
L 318.26949 438.173451 
L 318.508964 438.017768 
L 318.927482 438.194529 
L 319.374322 438.665341 
L 319.657373 439.614445 
L 321.20584 442.706736 
L 321.660916 443.253777 
L 322.011528 445.696486 
L 321.97293 446.984327 
L 321.810184 447.924704 
L 322.307815 449.199998 
L 323.133374 450.291532 
L 324.393396 450.536441 
L 325.808782 451.979845 
L 325.823928 452.328105 
L 326.269753 452.532727 
L 326.829911 453.318483 
L 330.899026 457.356601 
L 331.962338 458.631174 
L 332.467344 460.153529 
L 333.643846 462.372992 
L 333.457652 464.084299 
L 333.606467 465.075552 
L 334.172181 465.550765 
L 333.550618 466.232458 
L 332.989739 467.477455 
L 332.502113 468.967469 
L 332.86972 470.740073 
L 333.360495 471.140058 
L 333.359122 472.295307 
L 333.636468 472.773991 
L 333.689642 473.297527 
L 333.65806 474.308738 
L 333.095 475.769765 
L 333.292944 477.639061 
L 333.781503 478.018196 
L 333.283002 479.811402 
L 334.132174 480.967429 
L 334.25402 481.553088 
L 333.587552 483.156747 
L 333.435885 483.861803 
L 333.57099 484.756822 
L 336.582395 486.601552 
L 337.370166 486.929226 
L 337.336143 487.811943 
L 340.19427 488.47497 
L 339.880117 493.349575 
L 339.188855 501.08023 
L 338.242743 510.079107 
L 342.705262 515.128022 
L 344.268276 518.849001 
L 346.00608 522.289901 
L 351.452573 533.6283 
L 351.761955 544.094361 
L 374.549517 557.826787 
L 353.387773 557.778491 
L 348.646072 558.243136 
L 342.523439 559.028917 
L 339.295969 560.116909 
L 329.794996 564.32658 
L 316.944202 574.50312 
L 305.184574 584.084259 
L 301.519538 586.74258 
L 300.08577 585.928271 
L 297.126146 586.285564 
L 296.334146 586.194274 
L 295.662245 585.696929 
L 292.35302 578.847027 
L 291.44313 577.446661 
L 289.920953 575.66937 
L 288.681819 574.659793 
L 285.694756 573.076195 
L 275.938197 570.942258 
L 265.271302 567.844259 
L 257.757685 564.870669 
L 243.831767 562.77645 
L 212.201703 571.418982 
L 211.019168 571.536446 
L 199.0524 571.806319 
L 198.20117 571.662342 
L 189.738469 568.984767 
L 188.698971 568.150125 
L 188.179992 567.173363 
L 186.698938 560.434072 
L 185.93058 559.260229 
L 183.344253 556.918422 
L 181.536226 556.379378 
L 175.25481 555.278584 
L 172.821603 554.439253 
L 173.092014 551.992123 
L 172.568693 548.52468 
L 173.181493 546.663967 
L 172.975534 546.385969 
L 172.538424 546.296792 
L 171.993647 546.486231 
L 171.317815 547.550833 
L 171.125352 547.57502 
L 170.879059 547.453257 
L 170.134458 546.178503 
L 170.217506 545.786759 
L 170.670792 545.170789 
L 171.09405 544.299449 
L 171.167932 543.847285 
L 171.034588 543.484665 
L 170.439909 542.640366 
L 170.842578 541.8083 
L 170.848871 541.414419 
L 170.349217 540.638813 
L 170.39076 540.233657 
L 170.997796 539.887021 
L 171.320915 539.520513 
L 171.45849 538.955744 
L 171.738205 538.717542 
L 172.486935 538.375588 
L 174.227811 536.848473 
L 174.324972 536.483451 
L 174.183532 536.146953 
L 173.613509 535.96791 
L 172.8635 535.978898 
L 172.816043 535.741485 
L 174.360762 533.6139 
L 174.595596 532.84643 
L 174.338652 532.208434 
L 173.909024 532.101496 
L 173.438592 532.275224 
L 172.808048 532.081951 
L 172.32465 531.407806 
L 171.832842 531.020979 
L 172.080211 530.737185 
L 172.786099 530.591933 
L 173.259279 530.072962 
L 173.324035 529.638198 
L 173.322046 528.74707 
L 173.555248 528.295161 
L 174.129342 527.808407 
L 174.353031 527.285914 
L 175.640268 526.529691 
L 180.050991 526.097043 
L 180.751559 525.682903 
L 181.080782 524.850034 
L 181.242224 522.43311 
L 181.979575 520.481414 
L 183.008058 519.323751 
L 183.547936 518.107945 
L 183.489941 517.462932 
L 183.051039 516.461681 
L 183.309746 514.03198 
L 182.744437 513.074541 
L 181.749578 512.865954 
L 181.578435 512.508744 
L 181.876844 511.726123 
L 183.113776 510.449596 
L 183.343244 509.8972 
L 183.072054 507.305973 
L 181.198731 505.299904 
L 181.359338 504.931691 
L 182.594102 505.405373 
L 183.1662 505.244885 
L 183.509977 504.715684 
L 183.408408 503.656167 
L 183.226085 503.114706 
L 181.820078 502.445038 
L 181.523101 502.122261 
L 181.386945 501.223848 
L 180.747492 500.370941 
L 179.627773 499.390707 
L 179.388794 498.457708 
L 179.207704 496.949026 
L 178.822325 495.291976 
L 178.551484 495.007295 
L 178.195253 494.102212 
L 178.185647 493.63968 
L 178.942988 492.293971 
L 179.148541 491.225189 
L 178.914447 490.628692 
L 178.301902 490.514815 
L 177.484117 491.24363 
L 177.003895 491.469169 
L 176.707984 491.35571 
L 175.974199 490.213702 
L 175.944234 489.699752 
L 177.355136 488.262404 
L 176.978118 487.655387 
L 175.938046 486.513022 
L 174.938047 485.987491 
L 174.530363 485.401046 
L 174.806288 485.206081 
L 175.674041 485.320259 
L 176.276644 485.197688 
L 176.744934 484.848351 
L 177.00266 484.344033 
L 176.926258 483.774647 
L 176.259064 482.868059 
L 174.61506 482.024974 
L 174.653993 481.740383 
L 176.426837 482.298996 
L 177.454895 482.390893 
L 178.54774 482.081777 
L 179.036611 481.745967 
L 179.191595 481.125106 
L 178.793715 480.671744 
L 176.841074 479.996476 
L 175.082469 478.312238 
L 174.954399 477.936848 
L 175.237263 477.846613 
L 176.585976 478.404679 
L 177.639787 478.509554 
L 178.282684 478.277473 
L 178.411932 477.695375 
L 177.744848 476.698253 
L 176.807307 476.205434 
L 175.895176 475.893731 
L 175.677203 475.479412 
L 175.690611 475.039546 
L 176.038819 474.095416 
L 176.182132 472.542997 
L 176.015733 472.012345 
L 175.488957 471.843421 
L 173.99794 471.996799 
L 173.010286 471.093752 
L 172.746891 470.639791 
L 172.457441 470.636304 
L 171.608128 471.489128 
L 171.209581 471.592144 
L 171.081356 471.333186 
L 171.224544 469.897259 
L 170.9559 468.913576 
L 171.09818 468.189137 
L 172.074741 468.371556 
L 172.627837 467.958236 
L 172.487144 467.440523 
L 171.99914 467.103445 
L 170.932648 466.946853 
L 170.495954 466.726338 
L 170.393587 466.389863 
L 170.844191 465.743475 
L 172.336109 464.658384 
L 173.635894 463.482785 
L 173.611134 462.758152 
L 172.48381 462.105765 
L 172.481268 461.876916 
L 173.82431 462.101749 
L 174.627404 461.983137 
L 175.065123 461.388526 
L 173.063973 458.384242 
L 171.702617 457.632086 
L 170.083009 457.837035 
L 169.157828 457.706483 
L 168.116796 456.510256 
L 166.718586 455.568516 
L 165.343824 455.295088 
L 165.164283 454.958454 
L 165.96262 453.756159 
L 165.966189 452.792394 
L 165.244854 452.20269 
L 164.255546 451.929682 
L 163.188826 451.92834 
L 162.123188 451.124818 
L 161.585754 449.222123 
L 161.433364 447.759876 
L 160.971565 447.073613 
L 159.261448 447.718368 
L 158.785971 447.653063 
L 158.106519 446.345452 
L 157.156008 445.891364 
L 156.153732 445.799543 
L 156.057335 445.481059 
L 157.185444 443.978179 
L 157.163881 443.383209 
L 156.595652 442.989534 
L 156.060325 443.112355 
L 154.207296 444.704084 
L 153.861598 444.714893 
L 153.75104 443.940144 
L 154.779028 442.257548 
L 154.893027 440.248265 
L 154.614971 439.686649 
L 153.667572 439.326187 
L 152.798546 438.775043 
L 152.030648 437.539189 
L 148.844647 435.043018 
L 148.39865 435.008785 
L 148.242871 434.761619 
L 148.834615 434.156165 
L 148.87994 433.5725 
L 148.579491 433.089412 
L 147.2197 432.560033 
L 147.019562 432.133205 
L 146.942755 431.134005 
L 146.597591 430.751932 
L 145.88425 430.447881 
L 144.690417 431.018937 
L 144.489878 430.895159 
L 144.948018 430.132418 
L 145.093755 429.526336 
L 144.552305 428.717741 
L 143.968693 428.425598 
L 143.357921 427.98391 
L 142.892702 427.82713 
L 142.299436 427.964205 
L 142.016864 427.761736 
L 141.717426 426.420182 
L 141.106374 426.171387 
L 140.540504 426.317657 
L 139.562641 427.556531 
L 139.406803 428.125874 
L 139.826051 428.521444 
L 140.838753 428.632943 
L 140.947821 428.963828 
L 140.628188 429.174651 
L 139.131742 429.200325 
L 137.889876 429.933642 
L 137.744229 429.639477 
L 137.601414 427.103924 
L 138.241139 426.314726 
L 137.867614 425.827432 
L 137.001492 425.284377 
L 136.582911 424.328459 
L 136.136354 423.896164 
L 135.597922 423.932231 
L 134.703346 424.289345 
L 134.22888 424.279573 
L 132.679209 423.083451 
L 132.697893 422.706851 
L 133.976223 421.991913 
L 134.122963 421.376663 
L 133.630831 420.907526 
L 132.106593 421.227128 
L 131.623217 421.061146 
L 131.395667 420.656724 
L 131.852821 419.903975 
L 133.376742 419.768132 
L 133.878971 419.483988 
L 133.96177 418.923787 
L 133.852998 418.354117 
L 135.486089 416.356349 
L 135.352007 415.372158 
L 134.947169 414.883542 
L 133.942477 414.368555 
L 133.33256 413.843432 
L 133.493961 413.358029 
L 134.115128 412.561005 
L 134.33396 412.041017 
L 134.082002 411.474101 
L 133.542598 411.20753 
L 132.58884 411.610992 
L 132.187145 411.37924 
L 132.072824 410.962858 
L 131.809355 410.430707 
L 131.270003 410.059992 
L 130.396702 410.428907 
L 130.201819 410.185885 
L 130.939265 408.198061 
L 130.790713 407.585048 
L 130.170884 407.329943 
L 129.12527 407.756414 
L 128.217193 408.344983 
L 127.838287 408.286674 
L 127.448209 407.99715 
L 127.001339 407.15255 
L 126.956565 406.20441 
L 126.453526 404.365316 
L 126.878593 404.261819 
L 128.371219 404.55275 
L 128.911378 404.218134 
L 129.199175 403.675077 
L 128.981654 403.142966 
L 127.065529 401.648982 
L 127.157921 401.255962 
L 128.065912 400.67902 
L 128.665089 399.07261 
L 128.642826 398.494472 
L 127.633835 397.163589 
L 126.738805 396.549674 
L 125.235142 395.842473 
L 124.144338 395.656126 
L 123.180047 395.331179 
L 122.916424 394.949343 
L 122.790733 394.417328 
L 122.917453 394.093705 
L 123.815288 392.441413 
L 123.804603 391.782395 
L 123.529571 391.284834 
L 123.024632 390.97204 
L 122.381692 390.832505 
L 121.154161 389.755684 
L 120.602856 389.835937 
L 120.027472 390.760177 
L 119.280037 391.510814 
L 117.94709 392.08727 
L 117.499302 391.994184 
L 117.258618 391.658626 
L 117.213281 391.149776 
L 117.535862 390.340809 
L 118.697056 389.278608 
L 118.755254 388.665891 
L 117.883418 387.890137 
L 117.274651 387.958726 
L 115.363636 388.775947 
L 115.839752 387.880242 
L 117.49515 385.943905 
L 120.28739 383.706352 
L 122.609943 381.562729 
L 123.399496 381.1098 
L 124.677182 380.771007 
L 127.27918 380.566185 
L 128.171097 380.822597 
L 129.165494 381.807243 
L 129.924283 383.434587 
L 130.365766 385.642578 
L 130.914104 391.594171 
L 131.138261 391.987241 
L 132.319411 392.786065 
L 133.2887 392.942028 
L 133.785304 392.859323 
L 134.933004 392.039531 
L 136.685441 389.792205 
L 137.930615 386.627801 
L 138.605319 385.890792 
L 140.143429 384.89289 
L 141.090524 383.799068 
L 141.23354 382.847053 
L 140.927977 381.359005 
L 139.890239 379.215338 
L 138.863853 377.476408 
L 137.530395 375.475226 
L 137.542795 374.999146 
L 138.051967 374.309485 
L 138.820999 373.786757 
L 140.204315 373.693217 
L 142.000718 374.135797 
L 145.604378 375.806492 
L 147.258311 376.760686 
L 148.769917 378.119402 
L 150.069389 378.882699 
L 150.807637 379.125798 
L 152.265681 378.154721 
L 152.789249 377.154426 
L 152.790017 376.526695 
L 152.6053 375.983535 
L 151.848245 374.964727 
L 148.381223 371.312854 
L 148.129534 370.396381 
L 148.433957 369.480627 
L 149.598181 368.294398 
L 152.66774 366.126562 
L 153.25758 366.110321 
L 154.805734 367.927562 
L 156.723045 371.068573 
L 156.941065 371.917072 
L 155.504682 375.240595 
L 155.470359 375.749566 
L 155.606654 376.291877 
L 155.864002 376.756827 
L 156.392883 377.235852 
L 157.247743 377.482861 
L 158.374844 377.210902 
L 159.271552 376.542336 
L 162.65672 372.36443 
L 163.47183 371.873403 
L 165.224092 370.959858 
L 166.216541 369.690067 
L 166.693568 368.105253 
L 166.520819 364.975427 
L 167.172998 364.511494 
L 167.837821 364.813009 
L 168.609901 366.18059 
L 169.732089 369.981377 
L 169.838799 371.553159 
L 169.741384 373.548397 
L 170.009881 376.04975 
L 170.253652 376.514682 
L 171.13523 377.171784 
L 172.723065 377.542736 
L 173.741355 377.434641 
L 175.79079 375.786986 
L 176.073984 374.738388 
L 175.868167 372.603212 
L 175.269284 371.158673 
L 175.367877 370.702242 
L 175.67471 370.394037 
L 176.361189 370.308507 
L 181.629692 372.190637 
L 181.812988 372.647488 
L 181.726644 373.091557 
L 181.076359 373.633775 
L 180.083107 373.965772 
L 178.721704 374.667519 
L 177.960774 375.431745 
L 177.150152 376.812872 
L 176.890849 378.404442 
L 177.08512 379.947279 
L 177.659469 381.404112 
L 178.442391 382.713174 
L 179.53193 383.874511 
L 180.499621 384.369258 
L 181.516812 384.51859 
L 182.080766 384.445238 
L 182.988638 383.792278 
L 183.590224 382.941574 
L 184.168098 381.498365 
L 184.8464 378.019266 
L 185.165434 377.748106 
L 185.937537 377.884798 
L 187.002592 378.996755 
L 189.437776 382.368622 
L 190.441613 383.431112 
L 191.703165 384.234773 
L 193.198021 384.767261 
L 195.734782 385.177558 
L 196.249855 385.042428 
L 197.782082 384.994933 
L 199.841689 384.676577 
L 202.196136 383.889619 
L 204.44502 382.697796 
L 206.545181 381.203053 
L 207.401377 380.783593 
L 208.847963 380.734066 
L 212.085631 382.081424 
L 213.094261 381.928817 
L 213.553063 381.590958 
L 214.043059 380.771029 
L 214.125201 380.207067 
L 213.852657 378.094146 
L 213.436782 376.586049 
L 212.491729 374.667207 
L 211.556009 373.425121 
L 210.518319 372.264969 
L 210.081327 371.413253 
L 210.051411 370.879967 
L 210.358048 369.998344 
L 211.40846 369.004797 
L 212.315331 368.78027 
L 213.231982 368.873673 
L 213.669774 369.038273 
L 214.198673 369.767094 
L 215.234444 372.49623 
L 215.529354 372.93762 
L 216.425054 373.574555 
L 217.423024 373.832119 
L 218.472284 373.751325 
L 220.367744 373.138253 
L 221.743844 372.380974 
L 224.058531 370.373662 
L 224.965558 370.005534 
L 225.851801 370.078366 
L 227.154854 370.726005 
L 227.897823 371.332007 
L 228.060334 371.711637 
L 227.753815 372.500932 
L 227.121387 373.228341 
L 224.593155 374.896984 
L 223.093996 376.361734 
L 222.603868 377.335442 
L 222.497327 377.852581 
L 222.911128 378.897667 
L 223.772336 379.573713 
L 224.841557 379.880376 
L 226.310218 379.817849 
L 229.009546 378.615693 
L 230.462757 378.151361 
L 232.474281 378.041265 
L 234.661552 377.770658 
L 237.104866 377.050335 
L 239.563649 376.651481 
L 240.601246 376.733064 
L 242.548183 377.217514 
L 244.455907 377.872233 
L 244.897172 377.706373 
L 246.175171 377.797405 
L 247.131053 377.753779 
L 248.098293 377.396891 
L 248.777088 376.715138 
L 249.178258 375.798107 
L 249.379977 374.36617 
L 249.227096 372.038588 
L 249.43979 370.729718 
L 250.296716 369.75724 
L 251.419954 369.143162 
L 252.69833 368.887335 
L 253.576227 368.977888 
L 254.409495 369.236232 
L 256.031042 370.099673 
L 257.820009 370.426282 
L 258.734935 370.396433 
L 259.675246 370.208255 
L 260.991857 369.768132 
L 262.891222 368.562569 
L 263.921889 367.626373 
L 264.433193 366.797683 
L 264.684906 365.878659 
L 264.730738 364.959313 
L 264.27664 362.795538 
L 264.743539 361.624327 
L 265.622071 360.624853 
L 268.614467 358.726511 
L 270.262516 358.160545 
L 272.035695 357.684902 
L 273.630244 356.866525 
L 274.804134 355.966512 
L 276.04022 355.472198 
L 276.909722 354.499758 
L 277.448516 353.085239 
L 277.32378 352.562354 
L 276.867575 352.219278 
L 276.321613 352.083439 
L 275.828991 352.290159 
L 275.120956 352.902294 
L 274.243446 353.07251 
L 273.365994 353.125581 
L 272.954276 353.034981 
L 272.175693 352.673503 
L 271.487033 352.113903 
L 271.237233 351.32943 
L 271.26508 350.464108 
L 271.588259 349.707351 
L 273.354893 347.122558 
L 273.910633 346.582334 
L 274.672085 346.132579 
L 275.595967 344.628355 
L 275.695486 343.709133 
L 275.376346 340.932508 
L 275.771602 339.761232 
L 276.551706 338.716528 
L 277.573239 337.870479 
L 278.702046 337.213774 
L 279.928675 337.170101 
L 281.020168 337.793276 
L 281.879295 338.145819 
L 282.39856 338.10134 
L 282.907915 337.780117 
L 283.22275 337.321116 
L 283.233461 336.810721 
L 283.670308 336.055835 
L 284.289508 335.413467 
L 284.969303 334.965118 
L 286.216988 334.44594 
L 287.677917 333.692202 
L 288.428236 333.693066 
L 289.066456 334.163378 
L 289.410237 334.980378 
L 289.439713 335.817443 
L 289.22589 336.623625 
L 288.616252 337.745857 
L 288.189002 339.000929 
L 288.147505 339.837913 
L 288.238176 340.34839 
L 288.976502 341.951857 
L 289.948932 342.810504 
L 292.117825 343.609205 
L 293.364517 343.93727 
L 294.60089 344.469501 
L 295.320237 344.96031 
L 296.312914 345.839358 
L 297.112602 346.973336 
L 297.861141 348.536025 
L 298.731896 349.58841 
L 299.846557 350.222633 
L 301.072851 350.63232 
L 306.425858 351.108034 
L 307.206268 351.415167 
L 309.515762 353.398156 
L 310.346933 353.695184 
L 310.853809 353.746787 
L 312.587932 353.473151 
L 314.677136 352.985567 
L 315.184065 353.05759 
L 316.035894 352.956481 
L 317.334094 352.641509 
L 318.084289 352.754665 
L 318.793319 353.378167 
L 319.106795 354.123712 
L 319.428827 356.288242 
L 319.722463 356.635606 
L 320.147919 356.96273 
L 320.695265 357.126702 
L 321.486043 357.239905 
L 322.778116 357.256145 
L 323.841556 357.974214 
L 323.578778 358.455749 
L 323.163125 359.658551 
L 323.616854 360.71038 
L 323.750118 361.720218 
L 324.406117 362.445824 
L 325.031369 362.790106 
L 327.099434 364.785198 
L 327.291783 365.701611 
L 327.380145 368.038006 
L 328.082755 370.386561 
L 329.365517 372.735784 
L 329.85206 375.02683 
L 330.327962 376.676528 
L 330.587475 378.543572 
L 330.573649 380.696614 
L 329.8317 382.940447 
L 329.011258 384.176363 
L 328.839078 385.527545 
L 328.9398 386.982128 
L 328.559324 388.266256 
L 328.592148 389.489357 
L 328.899497 390.040956 
L 328.590927 390.557388 
L 328.573436 390.884662 
L 328.161856 391.693816 
L 327.85215 393.192141 
L 328.021953 394.329275 
L 327.815382 395.414287 
L 327.84903 395.913884 
L 327.539121 397.584471 
L 327.148359 398.616602 
L 326.467462 399.314191 
L 325.963083 400.285873 
L 325.853015 401.367551 
L 325.348319 402.613108 
L 325.361601 402.887 
L 325.116643 402.996263 
L 324.884793 403.530056 
L 324.272266 403.912765 
L 324.176703 404.21392 
L 323.996158 405.422742 
L 323.579131 405.980481 
L 323.700916 406.897087 
L 323.322283 407.441072 
L 323.236187 408.440313 
L 323.169176 409.261471 
L 322.922866 410.05237 
L 322.168464 410.384075 
L 322.264734 410.829422 
L 321.997928 411.377973 
L 321.26894 411.519101 
L 320.615698 412.036658 
L 319.978364 412.112291 
L 319.58676 412.664737 
L 319.531284 412.938624 
L 318.793648 413.665269 
L 318.731673 413.996467 
L 318.426238 414.554551 
L 317.551248 414.649858 
L 317.52118 415.044309 
L 317.977204 415.531998 
L 317.035941 417.530904 
L 317.211086 418.469991 
L 317.003371 419.356789 
L 317.048276 420.25958 
L 316.806017 421.07959 
L 316.181213 421.242612 
L 315.766445 421.528324 
L 315.68773 421.972079 
L 315.661213 422.949368 
L 315.266859 423.339158 
L 315.288889 423.979839 
L 314.947688 424.308067 
L 314.979772 424.580236 
L 314.807837 424.927902 
L 315.155831 425.799357 
L 315.946225 426.345788 
L 316.09847 427.190875 
L 316.377199 427.672754 
L 314.567319 429.656985 
L 314.260872 430.25831 
L 314.231536 431.160958 
L 313.869262 431.961868 
L 313.883309 433.497177 
L 313.795831 433.701662 
L 313.893695 434.26737 
L 313.784452 434.476428 
L 314.003073 434.921092 
L 314.067072 435.468983 
L 313.827504 436.726006 
L 314.08454 437.507229 
L 313.892931 438.010052 
L 314.25904 438.782424 
L 314.25904 438.782424 
" clip-path="url(#p60eb997a5b)" style="fill: none; stroke: #000000"/>
   </g>
   <g id="matplotlib.axis_1">
    <g id="xtick_1">
     <g id="line2d_1">
      <path d="M 92.392295 601.784838 
L 92.392295 270.855162 
" clip-path="url(#p60eb997a5b)" style="fill: none; stroke: #b0b0b0; stroke-width: 0.8; stroke-linecap: square"/>
     </g>
     <g id="line2d_2">
      <defs>
       <path id="md041a7b643" d="M 0 0 
L 0 3.5 
" style="stroke: #000000; stroke-width: 0.8"/>
      </defs>
      <g>
       <use xlink:href="#md041a7b643" x="92.392295" y="601.784838" style="stroke: #000000; stroke-width: 0.8"/>
      </g>
     </g>
     <g id="text_1">
      <!-- 47.5 -->
      <g transform="translate(83.508714 635.827252) rotate(-45) scale(0.1 -0.1)">
       <defs>
        <path id="DejaVuSans-2212" d="M 678 2272 
L 4684 2272 
L 4684 1741 
L 678 1741 
L 678 2272 
z
" transform="scale(0.015625)"/>
        <path id="DejaVuSans-34" d="M 2419 4116 
L 825 1625 
L 2419 1625 
L 2419 4116 
z
M 2253 4666 
L 3047 4666 
L 3047 1625 
L 3713 1625 
L 3713 1100 
L 3047 1100 
L 3047 0 
L 2419 0 
L 2419 1100 
L 313 1100 
L 313 1709 
L 2253 4666 
z
" transform="scale(0.015625)"/>
        <path id="DejaVuSans-37" d="M 525 4666 
L 3525 4666 
L 3525 4397 
L 1831 0 
L 1172 0 
L 2766 4134 
L 525 4134 
L 525 4666 
z
" transform="scale(0.015625)"/>
        <path id="DejaVuSans-2e" d="M 684 794 
L 1344 794 
L 1344 0 
L 684 0 
L 684 794 
z
" transform="scale(0.015625)"/>
        <path id="DejaVuSans-35" d="M 691 4666 
L 3169 4666 
L 3169 4134 
L 1269 4134 
L 1269 2991 
Q 1406 3038 1543 3061 
Q 1681 3084 1819 3084 
Q 2600 3084 3056 2656 
Q 3513 2228 3513 1497 
Q 3513 744 3044 326 
Q 2575 -91 1722 -91 
Q 1428 -91 1123 -41 
Q 819 9 494 109 
L 494 744 
Q 775 591 1075 516 
Q 1375 441 1709 441 
Q 2250 441 2565 725 
Q 2881 1009 2881 1497 
Q 2881 1984 2565 2268 
Q 2250 2553 1709 2553 
Q 1456 2553 1204 2497 
Q 953 2441 691 2322 
L 691 4666 
z
" transform="scale(0.015625)"/>
       </defs>
       <use xlink:href="#DejaVuSans-2212"/>
       <use xlink:href="#DejaVuSans-34" transform="translate(83.789062 0)"/>
       <use xlink:href="#DejaVuSans-37" transform="translate(147.412109 0)"/>
       <use xlink:href="#DejaVuSans-2e" transform="translate(211.035156 0)"/>
       <use xlink:href="#DejaVuSans-35" transform="translate(242.822266 0)"/>
      </g>
     </g>
    </g>
    <g id="xtick_2">
     <g id="line2d_3">
      <path d="M 212.908199 601.784838 
L 212.908199 270.855162 
" clip-path="url(#p60eb997a5b)" style="fill: none; stroke: #b0b0b0; stroke-width: 0.8; stroke-linecap: square"/>
     </g>
     <g id="line2d_4">
      <g>
       <use xlink:href="#md041a7b643" x="212.908199" y="601.784838" style="stroke: #000000; stroke-width: 0.8"/>
      </g>
     </g>
     <g id="text_2">
      <!-- 47.4 -->
      <g transform="translate(204.024618 635.827252) rotate(-45) scale(0.1 -0.1)">
       <use xlink:href="#DejaVuSans-2212"/>
       <use xlink:href="#DejaVuSans-34" transform="translate(83.789062 0)"/>
       <use xlink:href="#DejaVuSans-37" transform="translate(147.412109 0)"/>
       <use xlink:href="#DejaVuSans-2e" transform="translate(211.035156 0)"/>
       <use xlink:href="#DejaVuSans-34" transform="translate(242.822266 0)"/>
      </g>
     </g>
    </g>
    <g id="xtick_3">
     <g id="line2d_5">
      <path d="M 333.424104 601.784838 
L 333.424104 270.855162 
" clip-path="url(#p60eb997a5b)" style="fill: none; stroke: #b0b0b0; stroke-width: 0.8; stroke-linecap: square"/>
     </g>
     <g id="line2d_6">
      <g>
       <use xlink:href="#md041a7b643" x="333.424104" y="601.784838" style="stroke: #000000; stroke-width: 0.8"/>
      </g>
     </g>
     <g id="text_3">
      <!-- 47.3 -->
      <g transform="translate(324.540523 635.827252) rotate(-45) scale(0.1 -0.1)">
       <defs>
        <path id="DejaVuSans-33" d="M 2597 2516 
Q 3050 2419 3304 2112 
Q 3559 1806 3559 1356 
Q 3559 666 3084 287 
Q 2609 -91 1734 -91 
Q 1441 -91 1130 -33 
Q 819 25 488 141 
L 488 750 
Q 750 597 1062 519 
Q 1375 441 1716 441 
Q 2309 441 2620 675 
Q 2931 909 2931 1356 
Q 2931 1769 2642 2001 
Q 2353 2234 1838 2234 
L 1294 2234 
L 1294 2753 
L 1863 2753 
Q 2328 2753 2575 2939 
Q 2822 3125 2822 3475 
Q 2822 3834 2567 4026 
Q 2313 4219 1838 4219 
Q 1578 4219 1281 4162 
Q 984 4106 628 3988 
L 628 4550 
Q 988 4650 1302 4700 
Q 1616 4750 1894 4750 
Q 2613 4750 3031 4423 
Q 3450 4097 3450 3541 
Q 3450 3153 3228 2886 
Q 3006 2619 2597 2516 
z
" transform="scale(0.015625)"/>
       </defs>
       <use xlink:href="#DejaVuSans-2212"/>
       <use xlink:href="#DejaVuSans-34" transform="translate(83.789062 0)"/>
       <use xlink:href="#DejaVuSans-37" transform="translate(147.412109 0)"/>
       <use xlink:href="#DejaVuSans-2e" transform="translate(211.035156 0)"/>
       <use xlink:href="#DejaVuSans-33" transform="translate(242.822266 0)"/>
      </g>
     </g>
    </g>
    <g id="xtick_4">
     <g id="line2d_7">
      <path d="M 453.940009 601.784838 
L 453.940009 270.855162 
" clip-path="url(#p60eb997a5b)" style="fill: none; stroke: #b0b0b0; stroke-width: 0.8; stroke-linecap: square"/>
     </g>
     <g id="line2d_8">
      <g>
       <use xlink:href="#md041a7b643" x="453.940009" y="601.784838" style="stroke: #000000; stroke-width: 0.8"/>
      </g>
     </g>
     <g id="text_4">
      <!-- 47.2 -->
      <g transform="translate(445.056427 635.827252) rotate(-45) scale(0.1 -0.1)">
       <defs>
        <path id="DejaVuSans-32" d="M 1228 531 
L 3431 531 
L 3431 0 
L 469 0 
L 469 531 
Q 828 903 1448 1529 
Q 2069 2156 2228 2338 
Q 2531 2678 2651 2914 
Q 2772 3150 2772 3378 
Q 2772 3750 2511 3984 
Q 2250 4219 1831 4219 
Q 1534 4219 1204 4116 
Q 875 4013 500 3803 
L 500 4441 
Q 881 4594 1212 4672 
Q 1544 4750 1819 4750 
Q 2544 4750 2975 4387 
Q 3406 4025 3406 3419 
Q 3406 3131 3298 2873 
Q 3191 2616 2906 2266 
Q 2828 2175 2409 1742 
Q 1991 1309 1228 531 
z
" transform="scale(0.015625)"/>
       </defs>
       <use xlink:href="#DejaVuSans-2212"/>
       <use xlink:href="#DejaVuSans-34" transform="translate(83.789062 0)"/>
       <use xlink:href="#DejaVuSans-37" transform="translate(147.412109 0)"/>
       <use xlink:href="#DejaVuSans-2e" transform="translate(211.035156 0)"/>
       <use xlink:href="#DejaVuSans-32" transform="translate(242.822266 0)"/>
      </g>
     </g>
    </g>
    <g id="xtick_5">
     <g id="line2d_9">
      <path d="M 574.455913 601.784838 
L 574.455913 270.855162 
" clip-path="url(#p60eb997a5b)" style="fill: none; stroke: #b0b0b0; stroke-width: 0.8; stroke-linecap: square"/>
     </g>
     <g id="line2d_10">
      <g>
       <use xlink:href="#md041a7b643" x="574.455913" y="601.784838" style="stroke: #000000; stroke-width: 0.8"/>
      </g>
     </g>
     <g id="text_5">
      <!-- 47.1 -->
      <g transform="translate(565.572332 635.827252) rotate(-45) scale(0.1 -0.1)">
       <defs>
        <path id="DejaVuSans-31" d="M 794 531 
L 1825 531 
L 1825 4091 
L 703 3866 
L 703 4441 
L 1819 4666 
L 2450 4666 
L 2450 531 
L 3481 531 
L 3481 0 
L 794 0 
L 794 531 
z
" transform="scale(0.015625)"/>
       </defs>
       <use xlink:href="#DejaVuSans-2212"/>
       <use xlink:href="#DejaVuSans-34" transform="translate(83.789062 0)"/>
       <use xlink:href="#DejaVuSans-37" transform="translate(147.412109 0)"/>
       <use xlink:href="#DejaVuSans-2e" transform="translate(211.035156 0)"/>
       <use xlink:href="#DejaVuSans-31" transform="translate(242.822266 0)"/>
      </g>
     </g>
    </g>
    <g id="text_6">
     <!-- Longitude () -->
     <g transform="translate(336.139844 648.896251) scale(0.1 -0.1)">
      <defs>
       <path id="DejaVuSans-4c" d="M 628 4666 
L 1259 4666 
L 1259 531 
L 3531 531 
L 3531 0 
L 628 0 
L 628 4666 
z
" transform="scale(0.015625)"/>
       <path id="DejaVuSans-6f" d="M 1959 3097 
Q 1497 3097 1228 2736 
Q 959 2375 959 1747 
Q 959 1119 1226 758 
Q 1494 397 1959 397 
Q 2419 397 2687 759 
Q 2956 1122 2956 1747 
Q 2956 2369 2687 2733 
Q 2419 3097 1959 3097 
z
M 1959 3584 
Q 2709 3584 3137 3096 
Q 3566 2609 3566 1747 
Q 3566 888 3137 398 
Q 2709 -91 1959 -91 
Q 1206 -91 779 398 
Q 353 888 353 1747 
Q 353 2609 779 3096 
Q 1206 3584 1959 3584 
z
" transform="scale(0.015625)"/>
       <path id="DejaVuSans-6e" d="M 3513 2113 
L 3513 0 
L 2938 0 
L 2938 2094 
Q 2938 2591 2744 2837 
Q 2550 3084 2163 3084 
Q 1697 3084 1428 2787 
Q 1159 2491 1159 1978 
L 1159 0 
L 581 0 
L 581 3500 
L 1159 3500 
L 1159 2956 
Q 1366 3272 1645 3428 
Q 1925 3584 2291 3584 
Q 2894 3584 3203 3211 
Q 3513 2838 3513 2113 
z
" transform="scale(0.015625)"/>
       <path id="DejaVuSans-67" d="M 2906 1791 
Q 2906 2416 2648 2759 
Q 2391 3103 1925 3103 
Q 1463 3103 1205 2759 
Q 947 2416 947 1791 
Q 947 1169 1205 825 
Q 1463 481 1925 481 
Q 2391 481 2648 825 
Q 2906 1169 2906 1791 
z
M 3481 434 
Q 3481 -459 3084 -895 
Q 2688 -1331 1869 -1331 
Q 1566 -1331 1297 -1286 
Q 1028 -1241 775 -1147 
L 775 -588 
Q 1028 -725 1275 -790 
Q 1522 -856 1778 -856 
Q 2344 -856 2625 -561 
Q 2906 -266 2906 331 
L 2906 616 
Q 2728 306 2450 153 
Q 2172 0 1784 0 
Q 1141 0 747 490 
Q 353 981 353 1791 
Q 353 2603 747 3093 
Q 1141 3584 1784 3584 
Q 2172 3584 2450 3431 
Q 2728 3278 2906 2969 
L 2906 3500 
L 3481 3500 
L 3481 434 
z
" transform="scale(0.015625)"/>
       <path id="DejaVuSans-69" d="M 603 3500 
L 1178 3500 
L 1178 0 
L 603 0 
L 603 3500 
z
M 603 4863 
L 1178 4863 
L 1178 4134 
L 603 4134 
L 603 4863 
z
" transform="scale(0.015625)"/>
       <path id="DejaVuSans-74" d="M 1172 4494 
L 1172 3500 
L 2356 3500 
L 2356 3053 
L 1172 3053 
L 1172 1153 
Q 1172 725 1289 603 
Q 1406 481 1766 481 
L 2356 481 
L 2356 0 
L 1766 0 
Q 1100 0 847 248 
Q 594 497 594 1153 
L 594 3053 
L 172 3053 
L 172 3500 
L 594 3500 
L 594 4494 
L 1172 4494 
z
" transform="scale(0.015625)"/>
       <path id="DejaVuSans-75" d="M 544 1381 
L 544 3500 
L 1119 3500 
L 1119 1403 
Q 1119 906 1312 657 
Q 1506 409 1894 409 
Q 2359 409 2629 706 
Q 2900 1003 2900 1516 
L 2900 3500 
L 3475 3500 
L 3475 0 
L 2900 0 
L 2900 538 
Q 2691 219 2414 64 
Q 2138 -91 1772 -91 
Q 1169 -91 856 284 
Q 544 659 544 1381 
z
M 1991 3584 
L 1991 3584 
z
" transform="scale(0.015625)"/>
       <path id="DejaVuSans-64" d="M 2906 2969 
L 2906 4863 
L 3481 4863 
L 3481 0 
L 2906 0 
L 2906 525 
Q 2725 213 2448 61 
Q 2172 -91 1784 -91 
Q 1150 -91 751 415 
Q 353 922 353 1747 
Q 353 2572 751 3078 
Q 1150 3584 1784 3584 
Q 2172 3584 2448 3432 
Q 2725 3281 2906 2969 
z
M 947 1747 
Q 947 1113 1208 752 
Q 1469 391 1925 391 
Q 2381 391 2643 752 
Q 2906 1113 2906 1747 
Q 2906 2381 2643 2742 
Q 2381 3103 1925 3103 
Q 1469 3103 1208 2742 
Q 947 2381 947 1747 
z
" transform="scale(0.015625)"/>
       <path id="DejaVuSans-65" d="M 3597 1894 
L 3597 1613 
L 953 1613 
Q 991 1019 1311 708 
Q 1631 397 2203 397 
Q 2534 397 2845 478 
Q 3156 559 3463 722 
L 3463 178 
Q 3153 47 2828 -22 
Q 2503 -91 2169 -91 
Q 1331 -91 842 396 
Q 353 884 353 1716 
Q 353 2575 817 3079 
Q 1281 3584 2069 3584 
Q 2775 3584 3186 3129 
Q 3597 2675 3597 1894 
z
M 3022 2063 
Q 3016 2534 2758 2815 
Q 2500 3097 2075 3097 
Q 1594 3097 1305 2825 
Q 1016 2553 972 2059 
L 3022 2063 
z
" transform="scale(0.015625)"/>
       <path id="DejaVuSans-20" transform="scale(0.015625)"/>
       <path id="DejaVuSans-28" d="M 1984 4856 
Q 1566 4138 1362 3434 
Q 1159 2731 1159 2009 
Q 1159 1288 1364 580 
Q 1569 -128 1984 -844 
L 1484 -844 
Q 1016 -109 783 600 
Q 550 1309 550 2009 
Q 550 2706 781 3412 
Q 1013 4119 1484 4856 
L 1984 4856 
z
" transform="scale(0.015625)"/>
       <path id="DejaVuSans-b0" d="M 1600 4347 
Q 1350 4347 1178 4173 
Q 1006 4000 1006 3750 
Q 1006 3503 1178 3333 
Q 1350 3163 1600 3163 
Q 1850 3163 2022 3333 
Q 2194 3503 2194 3750 
Q 2194 3997 2020 4172 
Q 1847 4347 1600 4347 
z
M 1600 4750 
Q 1800 4750 1984 4673 
Q 2169 4597 2303 4453 
Q 2447 4313 2519 4134 
Q 2591 3956 2591 3750 
Q 2591 3338 2302 3052 
Q 2013 2766 1594 2766 
Q 1172 2766 890 3047 
Q 609 3328 609 3750 
Q 609 4169 896 4459 
Q 1184 4750 1600 4750 
z
" transform="scale(0.015625)"/>
       <path id="DejaVuSans-29" d="M 513 4856 
L 1013 4856 
Q 1481 4119 1714 3412 
Q 1947 2706 1947 2009 
Q 1947 1309 1714 600 
Q 1481 -109 1013 -844 
L 513 -844 
Q 928 -128 1133 580 
Q 1338 1288 1338 2009 
Q 1338 2731 1133 3434 
Q 928 4138 513 4856 
z
" transform="scale(0.015625)"/>
      </defs>
      <use xlink:href="#DejaVuSans-4c"/>
      <use xlink:href="#DejaVuSans-6f" transform="translate(53.962891 0)"/>
      <use xlink:href="#DejaVuSans-6e" transform="translate(115.144531 0)"/>
      <use xlink:href="#DejaVuSans-67" transform="translate(178.523438 0)"/>
      <use xlink:href="#DejaVuSans-69" transform="translate(242 0)"/>
      <use xlink:href="#DejaVuSans-74" transform="translate(269.783203 0)"/>
      <use xlink:href="#DejaVuSans-75" transform="translate(308.992188 0)"/>
      <use xlink:href="#DejaVuSans-64" transform="translate(372.371094 0)"/>
      <use xlink:href="#DejaVuSans-65" transform="translate(435.847656 0)"/>
      <use xlink:href="#DejaVuSans-20" transform="translate(497.371094 0)"/>
      <use xlink:href="#DejaVuSans-28" transform="translate(529.158203 0)"/>
      <use xlink:href="#DejaVuSans-b0" transform="translate(568.171875 0)"/>
      <use xlink:href="#DejaVuSans-29" transform="translate(618.171875 0)"/>
     </g>
    </g>
   </g>
   <g id="matplotlib.axis_2">
    <g id="ytick_1">
     <g id="line2d_11">
      <path d="M 90 583.646565 
L 648 583.646565 
" clip-path="url(#p60eb997a5b)" style="fill: none; stroke: #b0b0b0; stroke-width: 0.8; stroke-linecap: square"/>
     </g>
     <g id="line2d_12">
      <defs>
       <path id="m64002033e8" d="M 0 0 
L -3.5 0 
" style="stroke: #000000; stroke-width: 0.8"/>
      </defs>
      <g>
       <use xlink:href="#m64002033e8" x="90" y="583.646565" style="stroke: #000000; stroke-width: 0.8"/>
      </g>
     </g>
     <g id="text_7">
      <!-- 1.80 -->
      <g transform="translate(52.354687 587.445784) scale(0.1 -0.1)">
       <defs>
        <path id="DejaVuSans-38" d="M 2034 2216 
Q 1584 2216 1326 1975 
Q 1069 1734 1069 1313 
Q 1069 891 1326 650 
Q 1584 409 2034 409 
Q 2484 409 2743 651 
Q 3003 894 3003 1313 
Q 3003 1734 2745 1975 
Q 2488 2216 2034 2216 
z
M 1403 2484 
Q 997 2584 770 2862 
Q 544 3141 544 3541 
Q 544 4100 942 4425 
Q 1341 4750 2034 4750 
Q 2731 4750 3128 4425 
Q 3525 4100 3525 3541 
Q 3525 3141 3298 2862 
Q 3072 2584 2669 2484 
Q 3125 2378 3379 2068 
Q 3634 1759 3634 1313 
Q 3634 634 3220 271 
Q 2806 -91 2034 -91 
Q 1263 -91 848 271 
Q 434 634 434 1313 
Q 434 1759 690 2068 
Q 947 2378 1403 2484 
z
M 1172 3481 
Q 1172 3119 1398 2916 
Q 1625 2713 2034 2713 
Q 2441 2713 2670 2916 
Q 2900 3119 2900 3481 
Q 2900 3844 2670 4047 
Q 2441 4250 2034 4250 
Q 1625 4250 1398 4047 
Q 1172 3844 1172 3481 
z
" transform="scale(0.015625)"/>
        <path id="DejaVuSans-30" d="M 2034 4250 
Q 1547 4250 1301 3770 
Q 1056 3291 1056 2328 
Q 1056 1369 1301 889 
Q 1547 409 2034 409 
Q 2525 409 2770 889 
Q 3016 1369 3016 2328 
Q 3016 3291 2770 3770 
Q 2525 4250 2034 4250 
z
M 2034 4750 
Q 2819 4750 3233 4129 
Q 3647 3509 3647 2328 
Q 3647 1150 3233 529 
Q 2819 -91 2034 -91 
Q 1250 -91 836 529 
Q 422 1150 422 2328 
Q 422 3509 836 4129 
Q 1250 4750 2034 4750 
z
" transform="scale(0.015625)"/>
       </defs>
       <use xlink:href="#DejaVuSans-2212"/>
       <use xlink:href="#DejaVuSans-31" transform="translate(83.789062 0)"/>
       <use xlink:href="#DejaVuSans-2e" transform="translate(147.412109 0)"/>
       <use xlink:href="#DejaVuSans-38" transform="translate(179.199219 0)"/>
       <use xlink:href="#DejaVuSans-30" transform="translate(242.822266 0)"/>
      </g>
     </g>
    </g>
    <g id="ytick_2">
     <g id="line2d_13">
      <path d="M 90 523.362153 
L 648 523.362153 
" clip-path="url(#p60eb997a5b)" style="fill: none; stroke: #b0b0b0; stroke-width: 0.8; stroke-linecap: square"/>
     </g>
     <g id="line2d_14">
      <g>
       <use xlink:href="#m64002033e8" x="90" y="523.362153" style="stroke: #000000; stroke-width: 0.8"/>
      </g>
     </g>
     <g id="text_8">
      <!-- 1.75 -->
      <g transform="translate(52.354687 527.161372) scale(0.1 -0.1)">
       <use xlink:href="#DejaVuSans-2212"/>
       <use xlink:href="#DejaVuSans-31" transform="translate(83.789062 0)"/>
       <use xlink:href="#DejaVuSans-2e" transform="translate(147.412109 0)"/>
       <use xlink:href="#DejaVuSans-37" transform="translate(179.199219 0)"/>
       <use xlink:href="#DejaVuSans-35" transform="translate(242.822266 0)"/>
      </g>
     </g>
    </g>
    <g id="ytick_3">
     <g id="line2d_15">
      <path d="M 90 463.077741 
L 648 463.077741 
" clip-path="url(#p60eb997a5b)" style="fill: none; stroke: #b0b0b0; stroke-width: 0.8; stroke-linecap: square"/>
     </g>
     <g id="line2d_16">
      <g>
       <use xlink:href="#m64002033e8" x="90" y="463.077741" style="stroke: #000000; stroke-width: 0.8"/>
      </g>
     </g>
     <g id="text_9">
      <!-- 1.70 -->
      <g transform="translate(52.354687 466.87696) scale(0.1 -0.1)">
       <use xlink:href="#DejaVuSans-2212"/>
       <use xlink:href="#DejaVuSans-31" transform="translate(83.789062 0)"/>
       <use xlink:href="#DejaVuSans-2e" transform="translate(147.412109 0)"/>
       <use xlink:href="#DejaVuSans-37" transform="translate(179.199219 0)"/>
       <use xlink:href="#DejaVuSans-30" transform="translate(242.822266 0)"/>
      </g>
     </g>
    </g>
    <g id="ytick_4">
     <g id="line2d_17">
      <path d="M 90 402.793329 
L 648 402.793329 
" clip-path="url(#p60eb997a5b)" style="fill: none; stroke: #b0b0b0; stroke-width: 0.8; stroke-linecap: square"/>
     </g>
     <g id="line2d_18">
      <g>
       <use xlink:href="#m64002033e8" x="90" y="402.793329" style="stroke: #000000; stroke-width: 0.8"/>
      </g>
     </g>
     <g id="text_10">
      <!-- 1.65 -->
      <g transform="translate(52.354687 406.592548) scale(0.1 -0.1)">
       <defs>
        <path id="DejaVuSans-36" d="M 2113 2584 
Q 1688 2584 1439 2293 
Q 1191 2003 1191 1497 
Q 1191 994 1439 701 
Q 1688 409 2113 409 
Q 2538 409 2786 701 
Q 3034 994 3034 1497 
Q 3034 2003 2786 2293 
Q 2538 2584 2113 2584 
z
M 3366 4563 
L 3366 3988 
Q 3128 4100 2886 4159 
Q 2644 4219 2406 4219 
Q 1781 4219 1451 3797 
Q 1122 3375 1075 2522 
Q 1259 2794 1537 2939 
Q 1816 3084 2150 3084 
Q 2853 3084 3261 2657 
Q 3669 2231 3669 1497 
Q 3669 778 3244 343 
Q 2819 -91 2113 -91 
Q 1303 -91 875 529 
Q 447 1150 447 2328 
Q 447 3434 972 4092 
Q 1497 4750 2381 4750 
Q 2619 4750 2861 4703 
Q 3103 4656 3366 4563 
z
" transform="scale(0.015625)"/>
       </defs>
       <use xlink:href="#DejaVuSans-2212"/>
       <use xlink:href="#DejaVuSans-31" transform="translate(83.789062 0)"/>
       <use xlink:href="#DejaVuSans-2e" transform="translate(147.412109 0)"/>
       <use xlink:href="#DejaVuSans-36" transform="translate(179.199219 0)"/>
       <use xlink:href="#DejaVuSans-35" transform="translate(242.822266 0)"/>
      </g>
     </g>
    </g>
    <g id="ytick_5">
     <g id="line2d_19">
      <path d="M 90 342.508918 
L 648 342.508918 
" clip-path="url(#p60eb997a5b)" style="fill: none; stroke: #b0b0b0; stroke-width: 0.8; stroke-linecap: square"/>
     </g>
     <g id="line2d_20">
      <g>
       <use xlink:href="#m64002033e8" x="90" y="342.508918" style="stroke: #000000; stroke-width: 0.8"/>
      </g>
     </g>
     <g id="text_11">
      <!-- 1.60 -->
      <g transform="translate(52.354687 346.308136) scale(0.1 -0.1)">
       <use xlink:href="#DejaVuSans-2212"/>
       <use xlink:href="#DejaVuSans-31" transform="translate(83.789062 0)"/>
       <use xlink:href="#DejaVuSans-2e" transform="translate(147.412109 0)"/>
       <use xlink:href="#DejaVuSans-36" transform="translate(179.199219 0)"/>
       <use xlink:href="#DejaVuSans-30" transform="translate(242.822266 0)"/>
      </g>
     </g>
    </g>
    <g id="ytick_6">
     <g id="line2d_21">
      <path d="M 90 282.224506 
L 648 282.224506 
" clip-path="url(#p60eb997a5b)" style="fill: none; stroke: #b0b0b0; stroke-width: 0.8; stroke-linecap: square"/>
     </g>
     <g id="line2d_22">
      <g>
       <use xlink:href="#m64002033e8" x="90" y="282.224506" style="stroke: #000000; stroke-width: 0.8"/>
      </g>
     </g>
     <g id="text_12">
      <!-- 1.55 -->
      <g transform="translate(52.354687 286.023724) scale(0.1 -0.1)">
       <use xlink:href="#DejaVuSans-2212"/>
       <use xlink:href="#DejaVuSans-31" transform="translate(83.789062 0)"/>
       <use xlink:href="#DejaVuSans-2e" transform="translate(147.412109 0)"/>
       <use xlink:href="#DejaVuSans-35" transform="translate(179.199219 0)"/>
       <use xlink:href="#DejaVuSans-35" transform="translate(242.822266 0)"/>
      </g>
     </g>
    </g>
    <g id="text_13">
     <!-- Latitude () -->
     <g transform="translate(46.275 464.889531) rotate(-90) scale(0.1 -0.1)">
      <defs>
       <path id="DejaVuSans-61" d="M 2194 1759 
Q 1497 1759 1228 1600 
Q 959 1441 959 1056 
Q 959 750 1161 570 
Q 1363 391 1709 391 
Q 2188 391 2477 730 
Q 2766 1069 2766 1631 
L 2766 1759 
L 2194 1759 
z
M 3341 1997 
L 3341 0 
L 2766 0 
L 2766 531 
Q 2569 213 2275 61 
Q 1981 -91 1556 -91 
Q 1019 -91 701 211 
Q 384 513 384 1019 
Q 384 1609 779 1909 
Q 1175 2209 1959 2209 
L 2766 2209 
L 2766 2266 
Q 2766 2663 2505 2880 
Q 2244 3097 1772 3097 
Q 1472 3097 1187 3025 
Q 903 2953 641 2809 
L 641 3341 
Q 956 3463 1253 3523 
Q 1550 3584 1831 3584 
Q 2591 3584 2966 3190 
Q 3341 2797 3341 1997 
z
" transform="scale(0.015625)"/>
      </defs>
      <use xlink:href="#DejaVuSans-4c"/>
      <use xlink:href="#DejaVuSans-61" transform="translate(55.712891 0)"/>
      <use xlink:href="#DejaVuSans-74" transform="translate(116.992188 0)"/>
      <use xlink:href="#DejaVuSans-69" transform="translate(156.201172 0)"/>
      <use xlink:href="#DejaVuSans-74" transform="translate(183.984375 0)"/>
      <use xlink:href="#DejaVuSans-75" transform="translate(223.193359 0)"/>
      <use xlink:href="#DejaVuSans-64" transform="translate(286.572266 0)"/>
      <use xlink:href="#DejaVuSans-65" transform="translate(350.048828 0)"/>
      <use xlink:href="#DejaVuSans-20" transform="translate(411.572266 0)"/>
      <use xlink:href="#DejaVuSans-28" transform="translate(443.359375 0)"/>
      <use xlink:href="#DejaVuSans-b0" transform="translate(482.373047 0)"/>
      <use xlink:href="#DejaVuSans-29" transform="translate(532.373047 0)"/>
     </g>
    </g>
   </g>
   <g id="patch_3">
    <path d="M 90 601.784838 
L 90 270.855162 
" style="fill: none; stroke: #000000; stroke-width: 0.8; stroke-linejoin: miter; stroke-linecap: square"/>
   </g>
   <g id="patch_4">
    <path d="M 648 601.784838 
L 648 270.855162 
" style="fill: none; stroke: #000000; stroke-width: 0.8; stroke-linejoin: miter; stroke-linecap: square"/>
   </g>
   <g id="patch_5">
    <path d="M 90 601.784838 
L 648 601.784838 
" style="fill: none; stroke: #000000; stroke-width: 0.8; stroke-linejoin: miter; stroke-linecap: square"/>
   </g>
   <g id="patch_6">
    <path d="M 90 270.855162 
L 648 270.855162 
" style="fill: none; stroke: #000000; stroke-width: 0.8; stroke-linejoin: miter; stroke-linecap: square"/>
   </g>
  </g>
 </g>
 <defs>
  <clipPath id="p60eb997a5b">
   <rect x="90" y="270.855162" width="558" height="330.929675"/>
  </clipPath>
 </defs>
</svg>
