<?xml version="1.0" encoding="utf-8" standalone="no"?>
<!DOCTYPE svg PUBLIC "-//W3C//DTD SVG 1.1//EN"
  "http://www.w3.org/Graphics/SVG/1.1/DTD/svg11.dtd">
<svg xmlns:xlink="http://www.w3.org/1999/xlink" width="720pt" height="864pt" viewBox="0 0 720 864" xmlns="http://www.w3.org/2000/svg" version="1.1">
 <metadata>
  <rdf:RDF xmlns:dc="http://purl.org/dc/elements/1.1/" xmlns:cc="http://creativecommons.org/ns#" xmlns:rdf="http://www.w3.org/1999/02/22-rdf-syntax-ns#">
   <cc:Work>
    <dc:type rdf:resource="http://purl.org/dc/dcmitype/StillImage"/>
    <dc:date>2025-06-16T16:57:06.261883</dc:date>
    <dc:format>image/svg+xml</dc:format>
    <dc:creator>
     <cc:Agent>
      <dc:title>Matplotlib v3.10.1, https://matplotlib.org/</dc:title>
     </cc:Agent>
    </dc:creator>
   </cc:Work>
  </rdf:RDF>
 </metadata>
 <defs>
  <style type="text/css">*{stroke-linejoin: round; stroke-linecap: butt}</style>
 </defs>
 <g id="figure_1">
  <g id="patch_1">
   <path d="M 0 864 
L 720 864 
L 720 0 
L 0 0 
z
" style="fill: #ffffff"/>
  </g>
  <g id="axes_1">
   <g id="patch_2">
    <path d="M 90 637.732102 
L 648 637.732102 
L 648 234.907898 
L 90 234.907898 
z
" style="fill: #ffffff"/>
   </g>
   <g id="PatchCollection_1">
    <path d="M 182.579894 525.611684 
L 182.213007 525.185898 
L 181.707717 523.948998 
L 181.324876 522.669552 
L 181.141604 522.375934 
L 180.559819 521.76267 
L 179.70211 521.239823 
L 179.051981 520.65817 
L 178.67632 520.08454 
L 178.338745 519.71179 
L 178.023177 519.485571 
L 177.709199 519.325453 
L 177.402079 519.269634 
L 176.377809 519.367079 
L 175.367535 519.642372 
L 174.706495 519.65583 
L 174.14539 519.547083 
L 174.000208 519.396499 
L 173.27355 518.142052 
L 172.688301 517.56253 
L 171.836685 517.117365 
L 171.470443 517.005504 
L 170.849382 516.933868 
L 169.522829 517.039262 
L 168.602856 517.361883 
L 168.056553 517.696108 
L 166.611311 518.72891 
L 165.955255 519.043564 
L 165.551617 519.177473 
L 164.014443 519.528291 
L 162.164417 519.561183 
L 161.852396 519.482978 
L 160.406045 519.532509 
L 158.10658 519.524648 
L 157.298277 519.414815 
L 156.889898 519.191245 
L 156.632807 518.894766 
L 156.479469 518.571055 
L 156.298771 517.886888 
L 156.127646 517.580973 
L 155.861114 517.373386 
L 155.640867 517.314776 
L 155.364185 517.352278 
L 155.076874 517.480236 
L 153.496291 518.629532 
L 153.084112 518.839395 
L 152.65018 518.986563 
L 152.413685 518.972147 
L 152.112126 518.798099 
L 151.92478 518.604043 
L 151.706437 518.253102 
L 151.440532 517.597359 
L 151.481527 516.709006 
L 151.412815 516.30019 
L 151.253513 516.015242 
L 150.851613 515.670212 
L 150.511843 515.515256 
L 150.274141 515.472387 
L 149.211753 515.587356 
L 148.089889 515.601065 
L 147.723379 515.551768 
L 147.210616 515.298094 
L 146.159417 514.520946 
L 145.39462 514.238693 
L 144.774802 514.363525 
L 144.264792 514.655796 
L 143.324566 515.66254 
L 142.256378 516.986877 
L 141.802177 517.383689 
L 141.5943 517.371353 
L 141.379765 517.262184 
L 140.780571 516.618138 
L 140.509198 516.434601 
L 139.944268 516.177255 
L 138.987228 516.123326 
L 137.95572 516.194008 
L 136.490421 516.102368 
L 135.667305 515.845515 
L 135.187985 515.610805 
L 134.995858 515.288335 
L 134.890361 514.986344 
L 134.852609 514.411854 
L 134.907192 513.403655 
L 134.751712 512.782365 
L 134.389646 511.782695 
L 134.255816 510.957732 
L 134.285463 508.798861 
L 134.606327 507.248148 
L 134.664311 506.665336 
L 134.601471 505.840361 
L 134.442523 505.397813 
L 134.055563 504.815772 
L 133.751494 504.529219 
L 132.861431 503.877471 
L 132.393705 503.670275 
L 131.642163 503.576377 
L 131.135436 503.665451 
L 130.801741 503.855838 
L 129.607078 505.04592 
L 128.5131 506.788921 
L 127.736085 507.820869 
L 127.376892 508.16813 
L 125.659528 509.331091 
L 125.252295 509.703676 
L 124.750294 510.205325 
L 123.659887 510.895212 
L 123.234975 511.178145 
L 122.387521 511.936096 
L 121.849458 512.323173 
L 121.499875 512.504145 
L 120.556457 512.564073 
L 119.919547 512.508399 
L 119.300214 512.377598 
L 117.876993 511.857045 
L 117.015201 511.363822 
L 116.886679 511.292329 
L 116.307985 510.993151 
L 116.070604 510.812503 
L 115.566496 510.154785 
L 115.383663 509.528663 
L 115.363636 508.943889 
L 115.4595 508.226965 
L 115.73363 507.484705 
L 116.06419 507.041525 
L 116.4751 506.71758 
L 116.852999 506.541084 
L 117.234882 506.357456 
L 117.864603 505.939227 
L 118.302047 505.497558 
L 118.768824 504.890747 
L 119.184268 504.492496 
L 119.436458 504.126542 
L 120.412673 503.34479 
L 121.18336 502.531393 
L 121.310979 502.331762 
L 121.765542 501.91523 
L 122.153762 501.338742 
L 122.363047 500.790181 
L 122.41769 500.381951 
L 122.295437 499.834591 
L 122.257222 499.05209 
L 122.073007 498.202202 
L 121.955214 497.799894 
L 122.21666 497.737451 
L 123.05281 497.51966 
L 124.869372 497.060277 
L 130.295603 495.671176 
L 135.37767 494.364734 
L 140.809577 492.987151 
L 146.011087 491.667405 
L 150.786754 490.481403 
L 156.183976 489.078296 
L 156.500011 488.945967 
L 166.960038 485.663002 
L 170.850902 484.714139 
L 177.569042 483.063268 
L 180.698087 482.279174 
L 181.096119 482.170276 
L 185.997083 480.986858 
L 191.941531 479.517666 
L 193.435268 479.146506 
L 196.947875 478.269721 
L 200.781152 477.317879 
L 205.90348 475.941478 
L 210.838325 474.585463 
L 216.22887 473.168368 
L 222.254676 471.543847 
L 228.569843 469.778127 
L 234.798178 468.024687 
L 235.783766 467.650333 
L 235.482667 462.515764 
L 235.088911 457.107017 
L 234.750115 451.719578 
L 234.428879 446.316378 
L 232.922732 441.151843 
L 231.874654 436.544515 
L 230.514757 431.351636 
L 229.176327 426.129113 
L 228.127902 420.442312 
L 227.251256 414.857914 
L 225.495422 407.88486 
L 224.586365 404.393595 
L 223.776528 401.031362 
L 223.494297 400.061227 
L 219.047136 400.619891 
L 214.489259 401.206698 
L 209.986755 401.810923 
L 208.874737 396.876452 
L 207.776795 391.984261 
L 207.593907 391.182169 
L 210.784251 390.477964 
L 215.213574 389.753762 
L 219.693737 389.01323 
L 223.587161 388.393574 
L 227.660012 387.857201 
L 230.102875 387.539777 
L 233.687652 386.75594 
L 236.849963 386.0906 
L 246.294332 384.099492 
L 248.02761 383.532296 
L 250.536474 383.197514 
L 251.793408 383.084614 
L 257.794921 381.531414 
L 259.665033 381.342613 
L 261.377638 381.384905 
L 264.949846 381.463878 
L 267.321571 381.531041 
L 269.873759 381.581856 
L 272.937053 379.785188 
L 273.589818 379.309608 
L 276.469307 376.850745 
L 282.669877 371.025573 
L 284.38598 370.949313 
L 285.173439 370.593796 
L 286.901241 367.706401 
L 286.073611 364.374467 
L 286.425757 362.244213 
L 286.620505 361.894701 
L 289.734199 360.136489 
L 294.740753 359.441808 
L 311.697586 343.113995 
L 316.360338 337.700523 
L 318.013417 335.864182 
L 325.904622 332.780252 
L 331.021921 330.964236 
L 332.018758 330.52847 
L 333.577514 336.135828 
L 334.956783 340.998449 
L 330.896079 342.539624 
L 326.630259 344.188473 
L 322.330874 345.770655 
L 323.410351 349.913935 
L 324.506773 354.128612 
L 325.530462 358.629565 
L 326.762244 362.793058 
L 327.943658 367.32946 
L 329.578245 373.633092 
L 330.81589 378.274537 
L 333.241855 384.341931 
L 332.973258 391.13939 
L 332.925053 394.357297 
L 332.957039 395.320498 
L 336.935176 393.609817 
L 341.509293 391.700046 
L 345.753292 389.897472 
L 349.771393 388.95943 
L 353.835539 388.039894 
L 357.919623 386.980097 
L 361.753548 386.042612 
L 365.823444 384.996955 
L 369.609493 384.008325 
L 374.529998 382.862049 
L 379.557757 381.709089 
L 385.2404 380.26878 
L 389.418634 379.302829 
L 394.351869 378.229282 
L 397.624161 377.473337 
L 398.650521 377.356746 
L 401.775246 376.582711 
L 405.413366 375.675113 
L 409.0325 374.776206 
L 415.377973 373.252945 
L 420.072225 372.222736 
L 424.390031 371.2059 
L 428.434446 370.273867 
L 433.133839 369.201836 
L 436.858629 368.325387 
L 437.445299 368.19927 
L 442.350794 367.099644 
L 446.803603 366.047528 
L 450.248386 365.46953 
L 455.282232 364.122759 
L 456.434513 363.834397 
L 460.499298 362.829369 
L 465.18388 361.792319 
L 468.868468 360.917031 
L 473.467516 359.794404 
L 477.756578 358.80007 
L 482.201699 357.797002 
L 487.01184 356.653523 
L 491.319643 355.635245 
L 495.646429 354.601953 
L 496.825066 354.390401 
L 500.691982 353.482194 
L 505.854578 352.262937 
L 511.143267 351.03331 
L 511.49845 350.943034 
L 517.036862 349.556194 
L 523.044275 348.094189 
L 529.46354 346.52831 
L 530.489165 346.32528 
L 535.227997 345.117307 
L 539.951649 343.908777 
L 544.542589 342.762283 
L 549.178806 341.610997 
L 554.331145 340.319338 
L 556.969385 339.651164 
L 559.5482 339.018445 
L 562.360681 338.30362 
L 565.7512 337.451993 
L 569.20754 336.563419 
L 572.895911 335.65407 
L 574.858923 335.157416 
L 575.79424 334.920295 
L 575.908477 334.892127 
L 576.614209 334.71361 
L 577.240699 336.7988 
L 577.754035 338.922692 
L 578.305822 341.150896 
L 578.800171 343.185709 
L 578.805752 343.193203 
L 579.45307 345.763652 
L 580.507822 350.010374 
L 581.56449 354.314853 
L 582.094088 356.328972 
L 582.636828 358.517669 
L 583.143399 360.569642 
L 583.666724 362.592784 
L 584.287304 365.061912 
L 584.872809 367.227347 
L 585.951884 371.580573 
L 586.456414 373.635374 
L 586.856776 375.207994 
L 587.259158 376.738124 
L 587.73031 378.614904 
L 588.302088 380.899583 
L 588.598701 382.420036 
L 588.720577 382.99744 
L 589.222373 384.098528 
L 589.46488 385.16054 
L 589.848401 387.159948 
L 590.391424 389.18046 
L 590.623571 390.240083 
L 591.492663 393.746506 
L 593.268438 400.457722 
L 593.633407 401.831172 
L 594.02592 403.495433 
L 594.423986 405.086 
L 594.718234 406.657534 
L 595.4591 409.050982 
L 595.984506 411.439779 
L 596.464053 413.33603 
L 596.513921 413.519558 
L 597.174833 415.598344 
L 597.545074 417.526538 
L 597.851848 418.666721 
L 598.721665 422.165376 
L 598.773778 422.307351 
L 599.164509 423.663651 
L 600.291008 427.720645 
L 600.64632 429.289659 
L 602.01041 434.482864 
L 603.412767 439.700164 
L 604.790272 444.91045 
L 605.991652 449.357268 
L 606.147719 450.122437 
L 606.212309 450.425756 
L 607.536593 455.311586 
L 609.270379 461.889356 
L 610.411423 466.361448 
L 610.755329 467.493391 
L 611.005633 468.429404 
L 612.083163 472.499202 
L 613.158965 476.696805 
L 613.201343 476.856172 
L 613.841725 479.389952 
L 614.31742 481.277433 
L 614.816241 483.25246 
L 616.916726 491.582027 
L 617.38096 493.763627 
L 618.023548 496.356909 
L 619.06638 499.683835 
L 619.682482 501.396835 
L 620.124411 502.828575 
L 620.494463 503.95419 
L 620.932608 505.394353 
L 621.745625 508.115988 
L 622.198812 509.643991 
L 622.300614 509.980872 
L 622.389542 510.272912 
L 622.636364 511.083961 
L 622.608674 511.116034 
L 622.358964 511.056974 
L 622.111562 510.831657 
L 621.857144 510.761958 
L 621.013572 510.908756 
L 620.651913 510.84983 
L 620.149334 510.586737 
L 619.000664 510.361128 
L 618.764145 510.399274 
L 618.478654 510.343078 
L 617.932238 510.509603 
L 617.628575 510.407121 
L 617.281717 510.17344 
L 616.616787 509.837249 
L 615.907992 509.719368 
L 615.45892 509.50298 
L 615.108746 509.267811 
L 614.894784 509.219349 
L 614.559626 509.23264 
L 614.166072 509.338222 
L 613.945293 509.162245 
L 613.756182 508.861347 
L 613.539303 508.873099 
L 613.178095 509.643544 
L 611.925995 509.759093 
L 609.112114 510.432719 
L 608.224939 510.718963 
L 607.463267 511.035525 
L 607.089377 511.098763 
L 606.730131 510.907964 
L 606.175737 510.502824 
L 605.697329 510.327765 
L 605.011738 510.314138 
L 603.691528 510.044105 
L 601.887555 509.826557 
L 599.273189 509.65742 
L 597.286103 509.447988 
L 596.865498 509.429283 
L 596.386382 509.497866 
L 596.026327 509.61414 
L 595.406677 510.196499 
L 594.969498 510.456337 
L 594.006016 510.775518 
L 591.574915 512.310457 
L 591.189456 512.677773 
L 589.850824 513.95339 
L 589.012552 514.43761 
L 588.30289 514.446056 
L 587.979994 514.667804 
L 586.013339 515.437912 
L 585.878636 515.551436 
L 585.860089 515.712486 
L 585.940082 515.882987 
L 586.081723 515.850372 
L 586.321104 515.661845 
L 586.665378 515.506697 
L 586.970278 515.439833 
L 587.214603 515.508893 
L 587.140488 515.697849 
L 586.396544 516.095746 
L 586.285837 516.228745 
L 586.097084 516.726562 
L 585.55341 517.000134 
L 585.496129 517.129098 
L 585.17256 517.113107 
L 585.05422 517.032978 
L 584.879122 517.08752 
L 584.537132 517.012592 
L 583.853675 516.459405 
L 583.52396 516.478466 
L 582.928674 516.910747 
L 582.592558 516.977237 
L 582.412848 517.091101 
L 582.364514 517.300976 
L 582.595164 517.801885 
L 582.577709 518.008011 
L 582.423555 518.24822 
L 582.392793 518.494037 
L 582.575587 519.073171 
L 582.557872 519.382376 
L 582.417658 519.642906 
L 582.05519 519.994486 
L 581.306958 520.463193 
L 580.905099 521.475814 
L 580.623776 521.87815 
L 578.999036 523.309376 
L 578.790549 523.420412 
L 578.346116 523.435731 
L 577.903382 523.324359 
L 577.343511 523.499519 
L 576.528204 523.459003 
L 576.296224 523.492891 
L 576.24623 523.647382 
L 576.420842 523.690918 
L 576.544243 523.823397 
L 576.568055 523.952932 
L 576.522103 524.060263 
L 576.341883 524.124395 
L 575.901002 524.103653 
L 575.206875 524.384031 
L 574.853751 524.177153 
L 574.626703 524.24541 
L 574.535406 524.394158 
L 574.250047 524.536673 
L 574.000481 524.438929 
L 573.757475 524.250473 
L 572.778429 524.327807 
L 572.625159 524.174531 
L 572.572665 523.823998 
L 572.281333 523.70299 
L 571.858761 523.77106 
L 571.691408 523.701998 
L 571.17301 523.089388 
L 570.981837 522.95802 
L 570.890693 522.914901 
L 570.454646 522.968434 
L 570.028884 523.119298 
L 568.447544 523.225758 
L 568.298085 523.238532 
L 567.86147 523.492814 
L 567.532566 523.331394 
L 567.381405 523.337237 
L 567.104223 523.469291 
L 566.915422 523.211381 
L 566.648959 523.15231 
L 566.427008 523.142702 
L 565.688044 523.290852 
L 564.624888 523.314746 
L 563.975547 523.244311 
L 562.445823 522.863205 
L 561.997812 522.815737 
L 561.485108 522.844071 
L 560.667185 523.098429 
L 559.262616 523.784338 
L 558.899871 524.029568 
L 558.647355 524.246944 
L 558.23234 524.309988 
L 557.981687 524.536998 
L 557.852972 524.821616 
L 557.545957 525.012422 
L 557.237655 524.995114 
L 556.958604 525.054217 
L 556.726575 525.231052 
L 556.558116 525.466889 
L 556.454322 525.948462 
L 556.249145 526.109881 
L 555.898525 526.280188 
L 555.884077 526.508498 
L 555.709107 526.696582 
L 555.291705 526.609154 
L 555.185956 526.680034 
L 555.347631 527.051829 
L 555.338451 527.254394 
L 555.060875 527.667933 
L 554.686633 528.129963 
L 554.024457 528.680982 
L 553.254569 529.047103 
L 552.847813 529.14914 
L 551.750269 529.633027 
L 551.47402 529.652128 
L 551.211141 529.73643 
L 550.797043 529.718899 
L 549.557589 529.462969 
L 549.411505 529.523097 
L 549.392289 529.754702 
L 549.603816 530.016437 
L 550.199879 530.134342 
L 550.244862 530.249093 
L 550.191382 530.369266 
L 550.004039 530.492799 
L 549.315265 530.678124 
L 547.198614 531.630758 
L 546.065706 532.097613 
L 545.247048 532.368259 
L 544.533277 532.45616 
L 544.065738 532.642715 
L 544.049534 532.781199 
L 544.144582 532.944483 
L 544.132348 533.114794 
L 543.804242 533.219739 
L 543.739015 533.161489 
L 543.504754 533.187434 
L 543.098202 533.405562 
L 542.868721 533.648126 
L 542.660533 533.618251 
L 542.441292 533.396937 
L 542.137262 533.496281 
L 541.936901 533.694964 
L 541.690085 533.675397 
L 541.443041 533.40455 
L 541.230391 533.270831 
L 541.069717 533.198961 
L 540.7152 533.184516 
L 540.375823 533.120065 
L 540.140851 533.171133 
L 539.903248 533.297732 
L 539.272694 533.888559 
L 538.982078 533.993525 
L 538.481293 534.078101 
L 538.13763 533.999744 
L 537.507076 533.736607 
L 537.209388 533.705323 
L 536.750084 533.765905 
L 536.2883 533.978017 
L 535.250885 534.098625 
L 534.70939 534.276017 
L 534.497855 534.281777 
L 534.052968 534.400544 
L 533.936722 534.910698 
L 533.389461 534.901047 
L 533.319434 534.939714 
L 533.141567 534.942335 
L 532.302077 535.235132 
L 530.582231 535.561353 
L 530.297223 535.630742 
L 529.686042 535.674238 
L 529.058377 535.605423 
L 528.3829 535.440139 
L 525.773449 533.98284 
L 525.311756 533.655607 
L 524.191593 532.67686 
L 523.793402 532.413475 
L 523.006658 532.058627 
L 522.175704 531.939158 
L 521.833008 531.800176 
L 520.355526 530.777669 
L 519.614378 530.451159 
L 518.935447 530.349707 
L 518.388532 530.363645 
L 517.8028 530.460473 
L 516.872238 530.458612 
L 516.510136 530.320399 
L 515.73005 530.249786 
L 514.52263 530.43184 
L 514.059114 530.297517 
L 513.11588 529.862078 
L 512.780022 529.47059 
L 512.295415 528.841196 
L 511.616438 527.759042 
L 511.357718 527.453485 
L 511.111424 526.968316 
L 510.310671 525.809992 
L 508.77119 524.286035 
L 508.636772 524.135327 
L 508.351352 523.510523 
L 508.04288 522.645183 
L 507.750014 521.609102 
L 507.278727 520.770566 
L 507.12589 520.383426 
L 507.080388 519.863145 
L 507.214435 519.683693 
L 507.383359 519.750949 
L 507.461836 520.101446 
L 507.585115 520.356557 
L 507.670028 520.399214 
L 507.714552 520.301148 
L 507.699235 519.79674 
L 507.422871 519.058624 
L 506.662559 517.379877 
L 506.252999 516.912428 
L 506.037773 516.861967 
L 506.004154 517.095256 
L 506.516844 517.861328 
L 506.478662 518.091415 
L 506.379351 518.244213 
L 506.581061 518.429967 
L 506.812687 518.530511 
L 506.911566 518.780753 
L 506.779975 519.369798 
L 506.734421 519.853305 
L 506.791052 520.373988 
L 506.91995 520.891961 
L 507.632441 522.48603 
L 507.870732 523.316599 
L 507.857762 523.472831 
L 507.727392 523.529996 
L 507.407689 523.271685 
L 506.765358 522.567474 
L 506.423509 522.303826 
L 506.200765 522.047743 
L 505.600342 521.124407 
L 505.397409 520.957913 
L 505.078899 520.830828 
L 504.721341 520.583778 
L 504.414867 519.885712 
L 503.717148 519.506963 
L 503.41311 519.175929 
L 503.33997 518.733611 
L 503.44418 517.900922 
L 503.41824 517.612044 
L 503.036956 516.748378 
L 503.03744 516.52216 
L 503.126174 516.38779 
L 503.291044 516.358374 
L 503.506604 516.872816 
L 503.666972 516.836226 
L 503.70034 516.664548 
L 503.651776 516.404088 
L 503.312488 515.628106 
L 502.890269 515.225015 
L 501.87171 514.582615 
L 501.63944 514.357623 
L 501.100452 513.387566 
L 500.534005 513.011594 
L 499.911994 512.710438 
L 499.24672 512.468537 
L 498.424205 512.309108 
L 497.839737 512.13186 
L 497.77244 511.992822 
L 497.863043 511.9137 
L 497.994904 511.950129 
L 498.107842 511.8354 
L 498.053188 511.667597 
L 497.612921 511.341035 
L 496.996685 511.030599 
L 495.166362 510.856844 
L 494.910322 510.873656 
L 494.539757 510.955256 
L 494.108137 511.136759 
L 493.823799 511.404782 
L 493.727456 511.627056 
L 493.660016 511.987377 
L 493.539669 512.043748 
L 492.87349 512.002595 
L 492.371701 512.058345 
L 492.152973 512.197722 
L 491.870033 512.282488 
L 491.506082 512.250329 
L 491.097522 512.067702 
L 490.653058 511.994991 
L 489.965629 512.12835 
L 489.04488 512.841827 
L 488.558908 513.042581 
L 487.747215 513.119985 
L 487.171569 513.322444 
L 486.701905 513.382365 
L 486.620864 513.488416 
L 486.595574 513.544089 
L 486.814733 513.739657 
L 486.897113 513.956532 
L 486.846765 514.239773 
L 486.248847 515.005187 
L 485.943764 515.521223 
L 485.643787 516.370669 
L 485.228528 516.903126 
L 484.692157 517.319245 
L 484.312504 517.704517 
L 483.921784 518.533848 
L 483.630816 518.886459 
L 483.162807 519.235215 
L 482.535852 519.448755 
L 482.069787 519.813669 
L 481.093196 520.12905 
L 480.84694 520.397862 
L 480.595009 520.850678 
L 480.031838 521.832911 
L 479.554116 522.531045 
L 479.533684 522.817897 
L 479.711513 522.878866 
L 479.996129 522.64086 
L 480.517655 521.799005 
L 480.808915 521.700395 
L 481.067713 521.683506 
L 481.443903 521.801846 
L 481.708327 522.069119 
L 481.87343 522.319506 
L 481.988508 522.703098 
L 481.98093 523.058918 
L 481.970048 523.569827 
L 481.802323 524.539511 
L 481.652135 525.039219 
L 481.452742 525.322126 
L 481.153953 525.62153 
L 480.705877 525.887218 
L 480.291463 526.05294 
L 478.809743 526.476972 
L 478.037417 526.697991 
L 476.959514 527.262281 
L 476.411978 527.69444 
L 475.498464 528.829145 
L 474.883727 529.694477 
L 473.998405 530.526196 
L 473.539308 530.958277 
L 473.339797 531.29117 
L 472.775345 531.856597 
L 472.682926 532.168899 
L 472.923845 532.123613 
L 473.144032 532.007647 
L 473.487986 531.674836 
L 473.847098 531.15905 
L 474.068999 531.109445 
L 474.142894 531.307757 
L 474.027109 531.561169 
L 472.938849 532.825389 
L 472.00991 533.439987 
L 470.998319 533.98774 
L 470.650211 534.120324 
L 470.467628 534.28661 
L 470.401017 534.453103 
L 470.545587 534.497088 
L 470.599503 534.703568 
L 470.381324 534.905045 
L 469.26912 535.835857 
L 467.9722 536.74266 
L 467.661233 536.915588 
L 467.17202 537.647255 
L 466.878226 537.861449 
L 466.683116 537.827438 
L 466.668059 537.211529 
L 466.915976 536.677755 
L 466.749746 536.563505 
L 466.58499 536.679844 
L 466.403527 536.911754 
L 466.167438 537.877343 
L 465.456156 538.407737 
L 465.421413 538.642246 
L 465.286098 538.841147 
L 464.657388 538.990623 
L 462.649522 540.46934 
L 461.853771 540.934329 
L 461.096965 541.480856 
L 460.134383 542.02799 
L 459.841599 542.112841 
L 459.438989 542.107142 
L 459.226446 541.990395 
L 459.144601 541.758073 
L 459.143522 541.489483 
L 459.024409 541.362641 
L 458.891352 541.380551 
L 458.449031 541.95779 
L 458.048362 542.59071 
L 457.845641 542.893781 
L 457.416485 543.689343 
L 456.689527 544.717896 
L 456.14093 545.496989 
L 455.941288 545.879913 
L 455.840229 546.629725 
L 455.740457 546.971196 
L 455.54062 547.279042 
L 455.44048 548.489145 
L 455.109871 548.995908 
L 455.109659 549.251599 
L 455.19559 549.604459 
L 455.624429 550.603384 
L 456.071698 551.825008 
L 456.221411 552.464257 
L 456.243771 552.938563 
L 456.189175 553.455911 
L 456.025133 553.858021 
L 455.427988 554.439767 
L 455.101457 554.944439 
L 455.138945 555.077597 
L 455.274393 555.088145 
L 455.767424 554.48758 
L 455.930329 554.453696 
L 456.067371 554.537571 
L 456.041614 554.814502 
L 455.904338 555.209723 
L 455.580294 555.864064 
L 455.224297 556.386296 
L 454.69341 556.934911 
L 454.129434 557.665807 
L 453.693133 558.480415 
L 453.476309 559.129972 
L 453.275818 559.87955 
L 453.248168 560.573234 
L 453.357889 561.825657 
L 453.335639 562.689518 
L 453.171009 563.495164 
L 451.874265 565.0091 
L 451.06632 565.526863 
L 450.564947 566.258718 
L 450.165476 566.353736 
L 449.28944 566.322555 
L 448.809421 566.438535 
L 448.440732 566.623213 
L 447.985651 566.636072 
L 446.83866 566.867424 
L 446.339925 567.366355 
L 445.708665 567.81471 
L 445.26047 568.013281 
L 443.364914 568.504616 
L 442.900204 568.709444 
L 442.167753 569.276649 
L 441.254694 569.807527 
L 439.977684 570.287515 
L 438.951203 570.469081 
L 438.073255 570.950418 
L 437.427273 571.564158 
L 436.844117 572.414248 
L 436.411631 572.829894 
L 435.614204 573.243674 
L 435.133855 573.290472 
L 434.852582 573.156498 
L 434.574846 573.024155 
L 433.666057 572.055297 
L 432.938324 571.586885 
L 432.440978 571.384163 
L 431.34529 571.399814 
L 430.881138 571.548687 
L 429.238061 571.496016 
L 428.774757 571.662217 
L 428.007889 572.280385 
L 427.546672 572.372941 
L 426.796866 572.239022 
L 426.217575 572.05429 
L 425.737921 571.753151 
L 425.291035 571.602116 
L 424.307389 571.468809 
L 423.256844 571.647258 
L 421.103181 571.80875 
L 420.605831 571.990913 
L 420.075761 572.436895 
L 419.692949 572.772073 
L 418.797191 573.336646 
L 418.249869 573.618666 
L 417.731556 574.033285 
L 417.310713 574.324771 
L 416.679614 575.023227 
L 415.521975 576.765001 
L 415.250743 577.173093 
L 415.019977 577.620131 
L 415.001709 577.767584 
L 414.711625 579.96629 
L 414.454317 580.295613 
L 414.085853 580.561177 
L 413.644327 580.619299 
L 412.611653 580.528988 
L 410.923519 580.09502 
L 410.584343 580.077492 
L 410.095273 580.092476 
L 409.259617 580.248947 
L 408.624909 580.450094 
L 408.021365 580.4739 
L 407.16853 580.406388 
L 406.536514 580.326242 
L 406.09624 580.20353 
L 405.597655 580.021002 
L 404.58759 579.463378 
L 403.692951 579.361199 
L 403.17115 579.219683 
L 402.098321 578.654352 
L 401.143752 577.867357 
L 400.614574 577.242197 
L 400.410437 576.917835 
L 399.941057 576.398453 
L 399.295218 575.819354 
L 398.070819 574.984931 
L 397.356193 574.644758 
L 396.532663 574.479903 
L 395.740515 574.439241 
L 393.027691 574.661724 
L 391.676744 574.749371 
L 390.132009 574.686408 
L 389.56731 574.590059 
L 388.896746 574.4317 
L 388.235519 574.059916 
L 387.662863 573.614394 
L 387.17887 572.991425 
L 386.650827 572.065818 
L 386.198109 571.450988 
L 385.278764 570.613033 
L 385.110516 570.331783 
L 384.981477 570.116087 
L 384.672093 569.279575 
L 384.617594 568.09893 
L 384.458142 566.814391 
L 384.264392 566.131594 
L 384.032188 565.543435 
L 383.345538 564.510715 
L 383.003004 564.172929 
L 381.67526 562.914998 
L 379.903727 561.714269 
L 377.854027 560.449621 
L 376.499663 559.543339 
L 374.473466 558.03838 
L 373.734296 557.658528 
L 373.211966 557.521058 
L 372.504103 557.456997 
L 370.529094 557.675588 
L 370.314002 557.584964 
L 370.218365 557.465718 
L 370.217373 557.248649 
L 370.348904 557.152704 
L 370.865456 557.232687 
L 371.010541 557.167385 
L 370.986933 557.015333 
L 370.803596 556.90568 
L 370.321014 556.851566 
L 369.998806 556.982201 
L 369.374572 557.568495 
L 369.101663 557.711495 
L 368.842099 557.737005 
L 368.089949 557.460921 
L 367.661389 557.551278 
L 367.052554 557.066628 
L 366.46873 556.986873 
L 365.821293 556.42371 
L 365.393794 556.148467 
L 365.090994 556.034944 
L 364.369435 555.871646 
L 363.434887 555.999741 
L 361.948847 556.392649 
L 361.15012 556.543542 
L 360.41045 556.528373 
L 358.658177 556.641011 
L 357.232822 557.036543 
L 356.710429 557.092694 
L 354.024068 557.151282 
L 353.167275 557.292772 
L 350.961195 557.326415 
L 350.571674 557.416866 
L 349.636129 557.923697 
L 348.479326 558.678174 
L 348.167329 558.899411 
L 347.256937 559.732783 
L 346.554995 560.214171 
L 345.398607 560.798822 
L 344.801227 560.980114 
L 343.671748 561.186191 
L 341.69865 561.468467 
L 340.140368 561.908453 
L 338.555595 562.557346 
L 336.958224 563.062516 
L 336.191842 563.36092 
L 334.712247 563.487694 
L 334.101429 563.838694 
L 333.425082 564.463748 
L 333.10032 564.60655 
L 332.580346 564.983908 
L 331.877865 565.674133 
L 330.87698 566.350556 
L 329.045674 566.985683 
L 327.137214 567.346382 
L 326.838416 567.489244 
L 326.500244 567.788725 
L 325.693475 568.661462 
L 324.640336 569.481305 
L 324.195742 569.720483 
L 323.029606 570.117019 
L 321.796508 570.244432 
L 321.413384 570.354937 
L 320.459317 570.502107 
L 318.966878 570.563547 
L 317.136731 570.741605 
L 316.74714 570.858095 
L 315.876434 571.352014 
L 315.161889 571.663544 
L 314.434728 571.883616 
L 313.409373 572.303935 
L 312.407444 572.724101 
L 312.226139 572.883317 
L 312.19979 573.052949 
L 312.248919 573.161842 
L 312.395528 573.225321 
L 312.627734 573.158523 
L 313.15994 572.860211 
L 313.234981 572.935552 
L 313.185897 573.094733 
L 312.938775 573.316049 
L 312.01588 573.92732 
L 310.897693 574.799256 
L 310.637358 575.098867 
L 310.480702 575.451005 
L 310.298401 575.698616 
L 309.661313 576.180035 
L 309.010391 577.000924 
L 308.724376 577.209151 
L 308.20408 577.764713 
L 307.64454 578.276947 
L 307.070379 579.515816 
L 306.718827 579.971953 
L 305.743966 580.609192 
L 305.250385 580.790687 
L 304.821458 581.063774 
L 304.470277 581.37623 
L 303.950728 581.557655 
L 303.664538 581.831061 
L 303.338983 582.274171 
L 302.818503 582.834263 
L 302.376224 583.237845 
L 301.713342 583.666972 
L 300.894724 584.069559 
L 300.647524 584.31699 
L 300.451815 584.73431 
L 300.111747 585.751873 
L 299.392096 588.318546 
L 299.131831 588.97773 
L 298.334072 590.669611 
L 297.995104 591.282374 
L 296.967762 592.115263 
L 296.681288 592.493172 
L 296.320431 593.333675 
L 296.027027 594.567458 
L 295.582945 595.650025 
L 295.059761 596.700523 
L 294.968827 597.209158 
L 294.921756 597.247922 
L 294.89985 598.139945 
L 294.809488 598.637984 
L 294.652944 598.937851 
L 294.32771 599.250358 
L 293.275305 599.73062 
L 292.973261 600.060023 
L 292.909046 600.254356 
L 293.49354 600.645198 
L 293.733905 600.73662 
L 294.051465 600.659779 
L 295.10683 599.056556 
L 295.446518 598.195721 
L 295.758947 597.804847 
L 295.979298 597.896856 
L 296.147253 598.18455 
L 296.301872 598.615833 
L 296.451948 599.881944 
L 296.180096 600.495707 
L 295.6983 601.13421 
L 295.060646 601.811461 
L 294.447097 603.193799 
L 294.004512 603.701871 
L 293.432365 604.144247 
L 292.938586 604.391007 
L 292.393166 604.546261 
L 291.718132 604.635819 
L 290.653379 604.881046 
L 289.484115 605.387106 
L 288.716835 605.998754 
L 287.922668 606.975847 
L 287.480664 607.261902 
L 284.533408 607.828449 
L 283.10455 608.359914 
L 281.999962 608.944505 
L 280.882048 609.646549 
L 279.176529 611.717912 
L 278.447984 612.434039 
L 277.395108 613.057916 
L 275.485262 613.888315 
L 275.199178 614.109538 
L 274.938851 614.409106 
L 274.561836 614.656154 
L 273.743773 614.849744 
L 272.665064 615.460444 
L 272.015764 615.615381 
L 271.658168 615.837974 
L 271.41773 616.018478 
L 270.844923 616.695844 
L 270.18233 616.994306 
L 269.299549 617.122471 
L 267.688268 617.573376 
L 267.172982 617.726857 
L 265.413136 618.611237 
L 264.863985 619.048258 
L 264.624315 619.202843 
L 264.429881 619.329966 
L 264.03339 619.421911 
L 263.662114 619.3365 
L 263.249369 619.080582 
L 262.836069 619.028051 
L 262.430577 619.069664 
L 261.957509 619.246862 
L 261.653445 619.35637 
L 261.27383 619.372089 
L 261.125324 619.416038 
L 260.821592 619.209641 
L 260.676789 619.078334 
L 260.598039 618.974799 
L 260.519782 618.608696 
L 260.313269 617.931096 
L 260.249394 617.834147 
L 260.109701 617.780803 
L 259.222646 617.903895 
L 258.356988 617.691675 
L 258.023959 617.77849 
L 257.418032 618.057443 
L 256.239385 617.989054 
L 256.150388 618.078168 
L 255.436923 618.020378 
L 254.387643 618.060151 
L 254.358964 618.006184 
L 253.941958 617.811021 
L 253.61126 617.752222 
L 253.366568 617.816668 
L 252.531187 618.212302 
L 252.355753 618.194612 
L 251.690494 617.920516 
L 251.25177 617.926542 
L 251.151054 617.987802 
L 251.10764 618.030668 
L 250.643151 617.886302 
L 250.064416 617.556701 
L 249.587433 617.434614 
L 248.773465 617.68576 
L 247.602812 617.838627 
L 246.964795 617.747376 
L 245.821537 617.785018 
L 244.781391 617.980895 
L 244.525317 618.07922 
L 243.045484 618.203812 
L 242.264401 618.192804 
L 241.39601 618.414198 
L 240.938656 618.471712 
L 239.331372 618.416674 
L 238.87447 618.350371 
L 238.466266 618.171911 
L 238.194968 617.96441 
L 237.903074 617.623408 
L 237.683342 617.142025 
L 237.597101 616.699531 
L 237.595607 614.740336 
L 237.455903 614.015876 
L 237.329025 613.667388 
L 236.906226 612.74432 
L 235.905947 611.503521 
L 235.39071 610.647863 
L 234.828462 609.917349 
L 234.521609 609.641108 
L 233.943511 609.391799 
L 233.272956 609.216226 
L 232.606053 608.849289 
L 232.309665 608.754336 
L 231.183845 608.973588 
L 230.853436 609.145857 
L 230.116111 609.319249 
L 229.5777 609.357217 
L 228.899795 609.274546 
L 227.496261 608.699709 
L 226.034843 608.236619 
L 224.093323 607.322676 
L 223.510786 606.91643 
L 223.237687 606.646773 
L 222.695363 605.799154 
L 222.409099 605.008407 
L 222.259446 604.080332 
L 222.154912 602.665571 
L 222.261168 600.826688 
L 222.127031 600.116859 
L 221.733692 599.610057 
L 221.189931 599.355701 
L 220.644195 599.366166 
L 220.256734 599.27739 
L 218.382669 599.769121 
L 217.478864 599.8504 
L 217.143232 599.817644 
L 216.776891 599.712752 
L 216.327678 599.407654 
L 216.110304 599.12988 
L 215.868588 598.579531 
L 215.32185 598.277456 
L 214.452621 598.280723 
L 214.057235 598.373825 
L 213.232489 598.368831 
L 212.766549 598.202209 
L 212.642619 598.112554 
L 212.417816 597.743726 
L 212.377358 597.237925 
L 212.917832 596.551925 
L 213.464344 596.204272 
L 213.703579 595.951107 
L 213.797381 595.780341 
L 213.838145 595.449483 
L 213.777353 595.177073 
L 213.473008 594.839067 
L 212.887147 594.668861 
L 211.399472 594.546614 
L 210.954742 594.390491 
L 210.586613 593.986801 
L 209.510369 592.518183 
L 209.007234 591.988513 
L 208.498277 591.580205 
L 207.954775 591.241519 
L 207.359647 591.101195 
L 207.25014 590.949433 
L 206.981703 590.767902 
L 206.476162 590.273816 
L 205.984321 589.687224 
L 205.494917 589.266692 
L 204.302477 588.581014 
L 203.524538 588.322955 
L 203.182294 588.123256 
L 202.688841 587.768161 
L 202.149594 587.238875 
L 201.807116 586.779169 
L 201.523869 586.227031 
L 200.891241 584.269311 
L 200.985809 583.784992 
L 201.61063 582.730739 
L 201.704276 582.385322 
L 201.637951 582.113822 
L 201.008211 580.867655 
L 200.78942 580.085121 
L 200.255169 579.195891 
L 199.005959 578.350603 
L 198.721103 578.219059 
L 197.858225 577.607236 
L 197.347377 577.172529 
L 196.710582 576.852672 
L 196.082999 576.640208 
L 194.783308 576.623628 
L 194.035061 576.444948 
L 193.625307 576.266962 
L 191.944833 575.313179 
L 190.873737 575.003003 
L 190.347629 575.274321 
L 187.747105 575.882185 
L 187.274489 575.903817 
L 186.652034 576.067975 
L 185.772623 576.065451 
L 185.243509 575.917948 
L 184.555367 575.873675 
L 182.382417 575.381503 
L 181.775582 575.043655 
L 181.373421 574.694334 
L 181.135236 574.203235 
L 180.587429 573.35367 
L 180.579045 572.747754 
L 180.258066 571.372244 
L 179.799439 570.654587 
L 179.449162 569.999713 
L 179.294615 569.81272 
L 178.654667 569.327065 
L 175.969216 568.234879 
L 174.059909 567.031935 
L 173.83713 566.633449 
L 173.671182 566.016891 
L 173.59207 565.45919 
L 173.69417 564.892193 
L 173.906911 564.52343 
L 174.286174 563.973573 
L 175.054603 563.022011 
L 175.131515 562.924614 
L 175.673318 562.346904 
L 178.751735 558.875879 
L 182.410276 554.795023 
L 186.037663 550.729756 
L 189.599623 546.750323 
L 192.620259 543.377366 
L 193.080836 542.864246 
L 192.004123 542.479114 
L 190.75234 541.992077 
L 190.173199 541.520254 
L 189.65122 540.788695 
L 188.98979 539.351108 
L 188.32458 538.403173 
L 187.841513 538.041095 
L 187.16123 537.740014 
L 186.668443 537.413661 
L 186.35527 537.171922 
L 185.920589 536.691582 
L 185.692605 536.239357 
L 185.339671 535.317888 
L 184.785825 533.024773 
L 184.381908 532.094454 
L 184.104439 531.636384 
L 183.383499 529.59039 
L 182.981903 526.531446 
L 182.579894 525.611684 
" clip-path="url(#pb58a6c3f9d)" style="fill: #b3e2cd; fill-opacity: 0.65"/>
   </g>
   <g id="PatchCollection_2">
    <path d="M 599.098012 253.218089 
L 598.379459 253.868502 
L 598.396714 254.144255 
L 598.291528 254.934954 
L 598.479335 255.498099 
L 597.90977 256.692539 
L 598.509867 257.843099 
L 599.490384 257.743037 
L 600.697374 258.200466 
L 601.332137 259.174336 
L 601.436164 259.519902 
L 601.981837 260.051967 
L 603.247724 260.74559 
L 604.335087 261.569535 
L 604.168347 262.419072 
L 604.376729 262.875172 
L 604.697434 264.025398 
L 605.04949 264.169345 
L 605.589029 264.220704 
L 605.950378 264.622788 
L 606.39783 265.846812 
L 606.789043 268.531731 
L 606.461207 269.622614 
L 606.160582 269.763899 
L 606.772618 270.799934 
L 607.695737 271.230609 
L 608.098729 271.865889 
L 608.010798 272.688667 
L 607.492832 272.830951 
L 607.191371 272.762801 
L 607.237164 273.301843 
L 606.970548 273.736174 
L 607.100622 273.896409 
L 607.238162 275.094003 
L 607.143261 276.166606 
L 607.262053 277.120202 
L 607.669027 277.956108 
L 608.478331 278.883268 
L 608.955813 279.915816 
L 610.361892 281.880842 
L 609.972501 282.689325 
L 610.01265 283.655218 
L 609.884905 284.022889 
L 610.777325 285.579686 
L 610.914034 286.067537 
L 612.054327 287.31932 
L 611.900697 288.036052 
L 612.695397 288.606509 
L 613.011951 289.644376 
L 613.295326 291.027803 
L 613.811632 291.059051 
L 613.887121 291.687522 
L 612.863959 298.517738 
L 609.681498 302.573787 
L 596.746423 320.871366 
L 587.958066 322.349374 
L 589.022703 316.01964 
L 583.635976 314.51553 
L 577.937007 325.126539 
L 578.510555 329.531973 
L 575.50346 330.598759 
L 564.625817 334.262364 
L 564.827455 334.850352 
L 553.643151 338.328215 
L 552.931567 336.300029 
L 538.577141 341.518271 
L 536.47972 335.407438 
L 533.646329 327.163043 
L 521.249461 332.89988 
L 507.267332 336.769264 
L 495.527295 341.038732 
L 492.940112 341.826768 
L 491.117603 342.608323 
L 479.423526 345.806021 
L 466.211215 350.867684 
L 466.637099 352.927955 
L 464.809281 354.245895 
L 457.639865 359.75734 
L 457.278516 359.721437 
L 455.872109 353.15135 
L 445.15656 354.61523 
L 433.758957 358.787126 
L 429.695849 346.462083 
L 416.601499 350.124688 
L 403.563227 354.152643 
L 403.978993 356.086422 
L 404.523508 359.917078 
L 390.259831 361.106695 
L 379.488533 363.534973 
L 366.033162 367.075407 
L 353.580718 369.520307 
L 354.082091 371.906195 
L 342.829494 376.390915 
L 342.536998 374.66657 
L 342.341224 374.229421 
L 342.183114 374.279451 
L 330.47941 378.297102 
L 329.766005 376.46156 
L 328.605804 371.711888 
L 325.752005 360.909061 
L 324.711755 357.982803 
L 322.914469 350.165743 
L 321.824944 346.022103 
L 334.431687 341.210929 
L 334.380256 341.120507 
L 334.361675 340.983711 
L 334.742603 340.279946 
L 334.676402 339.670258 
L 334.300789 339.062899 
L 333.772204 338.407172 
L 333.062275 336.829431 
L 332.819221 335.487723 
L 331.860266 331.8439 
L 331.530112 330.786921 
L 332.260277 330.515817 
L 335.236182 329.206189 
L 335.699229 328.864278 
L 343.543401 321.356888 
L 344.967559 320.652788 
L 346.546512 320.338804 
L 350.089993 319.162812 
L 357.043896 317.125483 
L 357.339874 317.186817 
L 357.849048 317.446947 
L 363.115992 320.448177 
L 363.620185 320.609076 
L 370.68807 321.866843 
L 371.338266 321.866347 
L 373.937724 321.328298 
L 376.067493 321.313171 
L 380.156319 321.174549 
L 381.081755 320.66825 
L 381.694789 320.258022 
L 382.184552 320.129705 
L 386.996405 320.065211 
L 389.91474 320.75817 
L 390.334323 320.727425 
L 392.094285 320.900453 
L 393.230595 321.182029 
L 393.917123 321.69564 
L 395.13008 322.149915 
L 399.283608 323.478327 
L 401.246308 323.601492 
L 401.816374 323.410841 
L 405.428703 321.93084 
L 407.415796 321.02545 
L 408.796156 320.824824 
L 409.85565 321.092439 
L 410.647035 320.895965 
L 411.588067 320.754352 
L 417.170567 320.765488 
L 418.103303 320.616388 
L 419.060102 320.254031 
L 426.502274 317.053677 
L 433.199015 315.603093 
L 433.686788 315.375707 
L 434.781289 314.708676 
L 438.710004 311.263817 
L 443.039232 307.661713 
L 444.939219 305.830491 
L 445.190401 305.260028 
L 446.330862 303.730493 
L 449.13074 300.564211 
L 450.579284 299.154855 
L 452.244018 298.04003 
L 458.468914 294.657169 
L 458.786627 294.575555 
L 462.848576 290.592647 
L 464.18248 289.974983 
L 465.068103 289.538827 
L 465.90362 289.265228 
L 466.421419 289.220852 
L 467.136156 288.911852 
L 468.361226 288.504287 
L 469.950798 288.107355 
L 471.912334 287.809659 
L 476.546332 286.885324 
L 477.207649 286.819005 
L 478.965282 286.319187 
L 480.786136 286.027146 
L 481.88677 285.670437 
L 483.996471 284.582545 
L 487.059644 283.854013 
L 489.663247 282.483546 
L 490.501918 282.453795 
L 492.949734 282.723397 
L 498.68338 283.803982 
L 501.184288 284.916641 
L 502.571451 285.409811 
L 504.474753 285.682076 
L 505.524129 285.549767 
L 512.08781 284.239474 
L 515.516979 283.353196 
L 522.405516 281.814188 
L 523.284664 281.365736 
L 526.152727 279.26773 
L 526.536975 278.477702 
L 526.781522 278.274413 
L 528.108463 277.891447 
L 532.682327 274.75776 
L 536.476901 271.946007 
L 538.985275 270.402177 
L 555.525554 264.456401 
L 578.656344 256.899628 
L 581.003409 255.270007 
L 583.520398 254.284057 
L 586.408809 259.109345 
L 589.10146 253.890764 
L 599.098012 253.218089 
L 599.098012 253.218089 
" clip-path="url(#pb58a6c3f9d)" style="fill: none; stroke: #000000; stroke-width: 2"/>
   </g>
   <g id="matplotlib.axis_1">
    <g id="xtick_1">
     <g id="line2d_1">
      <path d="M 176.610293 637.732102 
L 176.610293 234.907898 
" clip-path="url(#pb58a6c3f9d)" style="fill: none; stroke: #b0b0b0; stroke-width: 0.8; stroke-linecap: square"/>
     </g>
     <g id="line2d_2">
      <defs>
       <path id="m33df6e5160" d="M 0 0 
L 0 3.5 
" style="stroke: #000000; stroke-width: 0.8"/>
      </defs>
      <g>
       <use xlink:href="#m33df6e5160" x="176.610293" y="637.732102" style="stroke: #000000; stroke-width: 0.8"/>
      </g>
     </g>
     <g id="text_1">
      <!-- −53.4 -->
      <g transform="translate(167.726711 671.774517) rotate(-45) scale(0.1 -0.1)">
       <defs>
        <path id="DejaVuSans-2212" d="M 678 2272 
L 4684 2272 
L 4684 1741 
L 678 1741 
L 678 2272 
z
" transform="scale(0.015625)"/>
        <path id="DejaVuSans-35" d="M 691 4666 
L 3169 4666 
L 3169 4134 
L 1269 4134 
L 1269 2991 
Q 1406 3038 1543 3061 
Q 1681 3084 1819 3084 
Q 2600 3084 3056 2656 
Q 3513 2228 3513 1497 
Q 3513 744 3044 326 
Q 2575 -91 1722 -91 
Q 1428 -91 1123 -41 
Q 819 9 494 109 
L 494 744 
Q 775 591 1075 516 
Q 1375 441 1709 441 
Q 2250 441 2565 725 
Q 2881 1009 2881 1497 
Q 2881 1984 2565 2268 
Q 2250 2553 1709 2553 
Q 1456 2553 1204 2497 
Q 953 2441 691 2322 
L 691 4666 
z
" transform="scale(0.015625)"/>
        <path id="DejaVuSans-33" d="M 2597 2516 
Q 3050 2419 3304 2112 
Q 3559 1806 3559 1356 
Q 3559 666 3084 287 
Q 2609 -91 1734 -91 
Q 1441 -91 1130 -33 
Q 819 25 488 141 
L 488 750 
Q 750 597 1062 519 
Q 1375 441 1716 441 
Q 2309 441 2620 675 
Q 2931 909 2931 1356 
Q 2931 1769 2642 2001 
Q 2353 2234 1838 2234 
L 1294 2234 
L 1294 2753 
L 1863 2753 
Q 2328 2753 2575 2939 
Q 2822 3125 2822 3475 
Q 2822 3834 2567 4026 
Q 2313 4219 1838 4219 
Q 1578 4219 1281 4162 
Q 984 4106 628 3988 
L 628 4550 
Q 988 4650 1302 4700 
Q 1616 4750 1894 4750 
Q 2613 4750 3031 4423 
Q 3450 4097 3450 3541 
Q 3450 3153 3228 2886 
Q 3006 2619 2597 2516 
z
" transform="scale(0.015625)"/>
        <path id="DejaVuSans-2e" d="M 684 794 
L 1344 794 
L 1344 0 
L 684 0 
L 684 794 
z
" transform="scale(0.015625)"/>
        <path id="DejaVuSans-34" d="M 2419 4116 
L 825 1625 
L 2419 1625 
L 2419 4116 
z
M 2253 4666 
L 3047 4666 
L 3047 1625 
L 3713 1625 
L 3713 1100 
L 3047 1100 
L 3047 0 
L 2419 0 
L 2419 1100 
L 313 1100 
L 313 1709 
L 2253 4666 
z
" transform="scale(0.015625)"/>
       </defs>
       <use xlink:href="#DejaVuSans-2212"/>
       <use xlink:href="#DejaVuSans-35" transform="translate(83.789062 0)"/>
       <use xlink:href="#DejaVuSans-33" transform="translate(147.412109 0)"/>
       <use xlink:href="#DejaVuSans-2e" transform="translate(211.035156 0)"/>
       <use xlink:href="#DejaVuSans-34" transform="translate(242.822266 0)"/>
      </g>
     </g>
    </g>
    <g id="xtick_2">
     <g id="line2d_3">
      <path d="M 296.064618 637.732102 
L 296.064618 234.907898 
" clip-path="url(#pb58a6c3f9d)" style="fill: none; stroke: #b0b0b0; stroke-width: 0.8; stroke-linecap: square"/>
     </g>
     <g id="line2d_4">
      <g>
       <use xlink:href="#m33df6e5160" x="296.064618" y="637.732102" style="stroke: #000000; stroke-width: 0.8"/>
      </g>
     </g>
     <g id="text_2">
      <!-- −53.2 -->
      <g transform="translate(287.181037 671.774517) rotate(-45) scale(0.1 -0.1)">
       <defs>
        <path id="DejaVuSans-32" d="M 1228 531 
L 3431 531 
L 3431 0 
L 469 0 
L 469 531 
Q 828 903 1448 1529 
Q 2069 2156 2228 2338 
Q 2531 2678 2651 2914 
Q 2772 3150 2772 3378 
Q 2772 3750 2511 3984 
Q 2250 4219 1831 4219 
Q 1534 4219 1204 4116 
Q 875 4013 500 3803 
L 500 4441 
Q 881 4594 1212 4672 
Q 1544 4750 1819 4750 
Q 2544 4750 2975 4387 
Q 3406 4025 3406 3419 
Q 3406 3131 3298 2873 
Q 3191 2616 2906 2266 
Q 2828 2175 2409 1742 
Q 1991 1309 1228 531 
z
" transform="scale(0.015625)"/>
       </defs>
       <use xlink:href="#DejaVuSans-2212"/>
       <use xlink:href="#DejaVuSans-35" transform="translate(83.789062 0)"/>
       <use xlink:href="#DejaVuSans-33" transform="translate(147.412109 0)"/>
       <use xlink:href="#DejaVuSans-2e" transform="translate(211.035156 0)"/>
       <use xlink:href="#DejaVuSans-32" transform="translate(242.822266 0)"/>
      </g>
     </g>
    </g>
    <g id="xtick_3">
     <g id="line2d_5">
      <path d="M 415.518944 637.732102 
L 415.518944 234.907898 
" clip-path="url(#pb58a6c3f9d)" style="fill: none; stroke: #b0b0b0; stroke-width: 0.8; stroke-linecap: square"/>
     </g>
     <g id="line2d_6">
      <g>
       <use xlink:href="#m33df6e5160" x="415.518944" y="637.732102" style="stroke: #000000; stroke-width: 0.8"/>
      </g>
     </g>
     <g id="text_3">
      <!-- −53.0 -->
      <g transform="translate(406.635363 671.774517) rotate(-45) scale(0.1 -0.1)">
       <defs>
        <path id="DejaVuSans-30" d="M 2034 4250 
Q 1547 4250 1301 3770 
Q 1056 3291 1056 2328 
Q 1056 1369 1301 889 
Q 1547 409 2034 409 
Q 2525 409 2770 889 
Q 3016 1369 3016 2328 
Q 3016 3291 2770 3770 
Q 2525 4250 2034 4250 
z
M 2034 4750 
Q 2819 4750 3233 4129 
Q 3647 3509 3647 2328 
Q 3647 1150 3233 529 
Q 2819 -91 2034 -91 
Q 1250 -91 836 529 
Q 422 1150 422 2328 
Q 422 3509 836 4129 
Q 1250 4750 2034 4750 
z
" transform="scale(0.015625)"/>
       </defs>
       <use xlink:href="#DejaVuSans-2212"/>
       <use xlink:href="#DejaVuSans-35" transform="translate(83.789062 0)"/>
       <use xlink:href="#DejaVuSans-33" transform="translate(147.412109 0)"/>
       <use xlink:href="#DejaVuSans-2e" transform="translate(211.035156 0)"/>
       <use xlink:href="#DejaVuSans-30" transform="translate(242.822266 0)"/>
      </g>
     </g>
    </g>
    <g id="xtick_4">
     <g id="line2d_7">
      <path d="M 534.97327 637.732102 
L 534.97327 234.907898 
" clip-path="url(#pb58a6c3f9d)" style="fill: none; stroke: #b0b0b0; stroke-width: 0.8; stroke-linecap: square"/>
     </g>
     <g id="line2d_8">
      <g>
       <use xlink:href="#m33df6e5160" x="534.97327" y="637.732102" style="stroke: #000000; stroke-width: 0.8"/>
      </g>
     </g>
     <g id="text_4">
      <!-- −52.8 -->
      <g transform="translate(526.089689 671.774517) rotate(-45) scale(0.1 -0.1)">
       <defs>
        <path id="DejaVuSans-38" d="M 2034 2216 
Q 1584 2216 1326 1975 
Q 1069 1734 1069 1313 
Q 1069 891 1326 650 
Q 1584 409 2034 409 
Q 2484 409 2743 651 
Q 3003 894 3003 1313 
Q 3003 1734 2745 1975 
Q 2488 2216 2034 2216 
z
M 1403 2484 
Q 997 2584 770 2862 
Q 544 3141 544 3541 
Q 544 4100 942 4425 
Q 1341 4750 2034 4750 
Q 2731 4750 3128 4425 
Q 3525 4100 3525 3541 
Q 3525 3141 3298 2862 
Q 3072 2584 2669 2484 
Q 3125 2378 3379 2068 
Q 3634 1759 3634 1313 
Q 3634 634 3220 271 
Q 2806 -91 2034 -91 
Q 1263 -91 848 271 
Q 434 634 434 1313 
Q 434 1759 690 2068 
Q 947 2378 1403 2484 
z
M 1172 3481 
Q 1172 3119 1398 2916 
Q 1625 2713 2034 2713 
Q 2441 2713 2670 2916 
Q 2900 3119 2900 3481 
Q 2900 3844 2670 4047 
Q 2441 4250 2034 4250 
Q 1625 4250 1398 4047 
Q 1172 3844 1172 3481 
z
" transform="scale(0.015625)"/>
       </defs>
       <use xlink:href="#DejaVuSans-2212"/>
       <use xlink:href="#DejaVuSans-35" transform="translate(83.789062 0)"/>
       <use xlink:href="#DejaVuSans-32" transform="translate(147.412109 0)"/>
       <use xlink:href="#DejaVuSans-2e" transform="translate(211.035156 0)"/>
       <use xlink:href="#DejaVuSans-38" transform="translate(242.822266 0)"/>
      </g>
     </g>
    </g>
    <g id="text_5">
     <!-- Longitude (°) -->
     <g transform="translate(336.139844 684.843516) scale(0.1 -0.1)">
      <defs>
       <path id="DejaVuSans-4c" d="M 628 4666 
L 1259 4666 
L 1259 531 
L 3531 531 
L 3531 0 
L 628 0 
L 628 4666 
z
" transform="scale(0.015625)"/>
       <path id="DejaVuSans-6f" d="M 1959 3097 
Q 1497 3097 1228 2736 
Q 959 2375 959 1747 
Q 959 1119 1226 758 
Q 1494 397 1959 397 
Q 2419 397 2687 759 
Q 2956 1122 2956 1747 
Q 2956 2369 2687 2733 
Q 2419 3097 1959 3097 
z
M 1959 3584 
Q 2709 3584 3137 3096 
Q 3566 2609 3566 1747 
Q 3566 888 3137 398 
Q 2709 -91 1959 -91 
Q 1206 -91 779 398 
Q 353 888 353 1747 
Q 353 2609 779 3096 
Q 1206 3584 1959 3584 
z
" transform="scale(0.015625)"/>
       <path id="DejaVuSans-6e" d="M 3513 2113 
L 3513 0 
L 2938 0 
L 2938 2094 
Q 2938 2591 2744 2837 
Q 2550 3084 2163 3084 
Q 1697 3084 1428 2787 
Q 1159 2491 1159 1978 
L 1159 0 
L 581 0 
L 581 3500 
L 1159 3500 
L 1159 2956 
Q 1366 3272 1645 3428 
Q 1925 3584 2291 3584 
Q 2894 3584 3203 3211 
Q 3513 2838 3513 2113 
z
" transform="scale(0.015625)"/>
       <path id="DejaVuSans-67" d="M 2906 1791 
Q 2906 2416 2648 2759 
Q 2391 3103 1925 3103 
Q 1463 3103 1205 2759 
Q 947 2416 947 1791 
Q 947 1169 1205 825 
Q 1463 481 1925 481 
Q 2391 481 2648 825 
Q 2906 1169 2906 1791 
z
M 3481 434 
Q 3481 -459 3084 -895 
Q 2688 -1331 1869 -1331 
Q 1566 -1331 1297 -1286 
Q 1028 -1241 775 -1147 
L 775 -588 
Q 1028 -725 1275 -790 
Q 1522 -856 1778 -856 
Q 2344 -856 2625 -561 
Q 2906 -266 2906 331 
L 2906 616 
Q 2728 306 2450 153 
Q 2172 0 1784 0 
Q 1141 0 747 490 
Q 353 981 353 1791 
Q 353 2603 747 3093 
Q 1141 3584 1784 3584 
Q 2172 3584 2450 3431 
Q 2728 3278 2906 2969 
L 2906 3500 
L 3481 3500 
L 3481 434 
z
" transform="scale(0.015625)"/>
       <path id="DejaVuSans-69" d="M 603 3500 
L 1178 3500 
L 1178 0 
L 603 0 
L 603 3500 
z
M 603 4863 
L 1178 4863 
L 1178 4134 
L 603 4134 
L 603 4863 
z
" transform="scale(0.015625)"/>
       <path id="DejaVuSans-74" d="M 1172 4494 
L 1172 3500 
L 2356 3500 
L 2356 3053 
L 1172 3053 
L 1172 1153 
Q 1172 725 1289 603 
Q 1406 481 1766 481 
L 2356 481 
L 2356 0 
L 1766 0 
Q 1100 0 847 248 
Q 594 497 594 1153 
L 594 3053 
L 172 3053 
L 172 3500 
L 594 3500 
L 594 4494 
L 1172 4494 
z
" transform="scale(0.015625)"/>
       <path id="DejaVuSans-75" d="M 544 1381 
L 544 3500 
L 1119 3500 
L 1119 1403 
Q 1119 906 1312 657 
Q 1506 409 1894 409 
Q 2359 409 2629 706 
Q 2900 1003 2900 1516 
L 2900 3500 
L 3475 3500 
L 3475 0 
L 2900 0 
L 2900 538 
Q 2691 219 2414 64 
Q 2138 -91 1772 -91 
Q 1169 -91 856 284 
Q 544 659 544 1381 
z
M 1991 3584 
L 1991 3584 
z
" transform="scale(0.015625)"/>
       <path id="DejaVuSans-64" d="M 2906 2969 
L 2906 4863 
L 3481 4863 
L 3481 0 
L 2906 0 
L 2906 525 
Q 2725 213 2448 61 
Q 2172 -91 1784 -91 
Q 1150 -91 751 415 
Q 353 922 353 1747 
Q 353 2572 751 3078 
Q 1150 3584 1784 3584 
Q 2172 3584 2448 3432 
Q 2725 3281 2906 2969 
z
M 947 1747 
Q 947 1113 1208 752 
Q 1469 391 1925 391 
Q 2381 391 2643 752 
Q 2906 1113 2906 1747 
Q 2906 2381 2643 2742 
Q 2381 3103 1925 3103 
Q 1469 3103 1208 2742 
Q 947 2381 947 1747 
z
" transform="scale(0.015625)"/>
       <path id="DejaVuSans-65" d="M 3597 1894 
L 3597 1613 
L 953 1613 
Q 991 1019 1311 708 
Q 1631 397 2203 397 
Q 2534 397 2845 478 
Q 3156 559 3463 722 
L 3463 178 
Q 3153 47 2828 -22 
Q 2503 -91 2169 -91 
Q 1331 -91 842 396 
Q 353 884 353 1716 
Q 353 2575 817 3079 
Q 1281 3584 2069 3584 
Q 2775 3584 3186 3129 
Q 3597 2675 3597 1894 
z
M 3022 2063 
Q 3016 2534 2758 2815 
Q 2500 3097 2075 3097 
Q 1594 3097 1305 2825 
Q 1016 2553 972 2059 
L 3022 2063 
z
" transform="scale(0.015625)"/>
       <path id="DejaVuSans-20" transform="scale(0.015625)"/>
       <path id="DejaVuSans-28" d="M 1984 4856 
Q 1566 4138 1362 3434 
Q 1159 2731 1159 2009 
Q 1159 1288 1364 580 
Q 1569 -128 1984 -844 
L 1484 -844 
Q 1016 -109 783 600 
Q 550 1309 550 2009 
Q 550 2706 781 3412 
Q 1013 4119 1484 4856 
L 1984 4856 
z
" transform="scale(0.015625)"/>
       <path id="DejaVuSans-b0" d="M 1600 4347 
Q 1350 4347 1178 4173 
Q 1006 4000 1006 3750 
Q 1006 3503 1178 3333 
Q 1350 3163 1600 3163 
Q 1850 3163 2022 3333 
Q 2194 3503 2194 3750 
Q 2194 3997 2020 4172 
Q 1847 4347 1600 4347 
z
M 1600 4750 
Q 1800 4750 1984 4673 
Q 2169 4597 2303 4453 
Q 2447 4313 2519 4134 
Q 2591 3956 2591 3750 
Q 2591 3338 2302 3052 
Q 2013 2766 1594 2766 
Q 1172 2766 890 3047 
Q 609 3328 609 3750 
Q 609 4169 896 4459 
Q 1184 4750 1600 4750 
z
" transform="scale(0.015625)"/>
       <path id="DejaVuSans-29" d="M 513 4856 
L 1013 4856 
Q 1481 4119 1714 3412 
Q 1947 2706 1947 2009 
Q 1947 1309 1714 600 
Q 1481 -109 1013 -844 
L 513 -844 
Q 928 -128 1133 580 
Q 1338 1288 1338 2009 
Q 1338 2731 1133 3434 
Q 928 4138 513 4856 
z
" transform="scale(0.015625)"/>
      </defs>
      <use xlink:href="#DejaVuSans-4c"/>
      <use xlink:href="#DejaVuSans-6f" transform="translate(53.962891 0)"/>
      <use xlink:href="#DejaVuSans-6e" transform="translate(115.144531 0)"/>
      <use xlink:href="#DejaVuSans-67" transform="translate(178.523438 0)"/>
      <use xlink:href="#DejaVuSans-69" transform="translate(242 0)"/>
      <use xlink:href="#DejaVuSans-74" transform="translate(269.783203 0)"/>
      <use xlink:href="#DejaVuSans-75" transform="translate(308.992188 0)"/>
      <use xlink:href="#DejaVuSans-64" transform="translate(372.371094 0)"/>
      <use xlink:href="#DejaVuSans-65" transform="translate(435.847656 0)"/>
      <use xlink:href="#DejaVuSans-20" transform="translate(497.371094 0)"/>
      <use xlink:href="#DejaVuSans-28" transform="translate(529.158203 0)"/>
      <use xlink:href="#DejaVuSans-b0" transform="translate(568.171875 0)"/>
      <use xlink:href="#DejaVuSans-29" transform="translate(618.171875 0)"/>
     </g>
    </g>
   </g>
   <g id="matplotlib.axis_2">
    <g id="ytick_1">
     <g id="line2d_9">
      <path d="M 90 618.607054 
L 648 618.607054 
" clip-path="url(#pb58a6c3f9d)" style="fill: none; stroke: #b0b0b0; stroke-width: 0.8; stroke-linecap: square"/>
     </g>
     <g id="line2d_10">
      <defs>
       <path id="mdaad979e3a" d="M 0 0 
L -3.5 0 
" style="stroke: #000000; stroke-width: 0.8"/>
      </defs>
      <g>
       <use xlink:href="#mdaad979e3a" x="90" y="618.607054" style="stroke: #000000; stroke-width: 0.8"/>
      </g>
     </g>
     <g id="text_6">
      <!-- −4.0 -->
      <g transform="translate(58.717187 622.406272) scale(0.1 -0.1)">
       <use xlink:href="#DejaVuSans-2212"/>
       <use xlink:href="#DejaVuSans-34" transform="translate(83.789062 0)"/>
       <use xlink:href="#DejaVuSans-2e" transform="translate(147.412109 0)"/>
       <use xlink:href="#DejaVuSans-30" transform="translate(179.199219 0)"/>
      </g>
     </g>
    </g>
    <g id="ytick_2">
     <g id="line2d_11">
      <path d="M 90 558.76867 
L 648 558.76867 
" clip-path="url(#pb58a6c3f9d)" style="fill: none; stroke: #b0b0b0; stroke-width: 0.8; stroke-linecap: square"/>
     </g>
     <g id="line2d_12">
      <g>
       <use xlink:href="#mdaad979e3a" x="90" y="558.76867" style="stroke: #000000; stroke-width: 0.8"/>
      </g>
     </g>
     <g id="text_7">
      <!-- −3.9 -->
      <g transform="translate(58.717187 562.567888) scale(0.1 -0.1)">
       <defs>
        <path id="DejaVuSans-39" d="M 703 97 
L 703 672 
Q 941 559 1184 500 
Q 1428 441 1663 441 
Q 2288 441 2617 861 
Q 2947 1281 2994 2138 
Q 2813 1869 2534 1725 
Q 2256 1581 1919 1581 
Q 1219 1581 811 2004 
Q 403 2428 403 3163 
Q 403 3881 828 4315 
Q 1253 4750 1959 4750 
Q 2769 4750 3195 4129 
Q 3622 3509 3622 2328 
Q 3622 1225 3098 567 
Q 2575 -91 1691 -91 
Q 1453 -91 1209 -44 
Q 966 3 703 97 
z
M 1959 2075 
Q 2384 2075 2632 2365 
Q 2881 2656 2881 3163 
Q 2881 3666 2632 3958 
Q 2384 4250 1959 4250 
Q 1534 4250 1286 3958 
Q 1038 3666 1038 3163 
Q 1038 2656 1286 2365 
Q 1534 2075 1959 2075 
z
" transform="scale(0.015625)"/>
       </defs>
       <use xlink:href="#DejaVuSans-2212"/>
       <use xlink:href="#DejaVuSans-33" transform="translate(83.789062 0)"/>
       <use xlink:href="#DejaVuSans-2e" transform="translate(147.412109 0)"/>
       <use xlink:href="#DejaVuSans-39" transform="translate(179.199219 0)"/>
      </g>
     </g>
    </g>
    <g id="ytick_3">
     <g id="line2d_13">
      <path d="M 90 498.930285 
L 648 498.930285 
" clip-path="url(#pb58a6c3f9d)" style="fill: none; stroke: #b0b0b0; stroke-width: 0.8; stroke-linecap: square"/>
     </g>
     <g id="line2d_14">
      <g>
       <use xlink:href="#mdaad979e3a" x="90" y="498.930285" style="stroke: #000000; stroke-width: 0.8"/>
      </g>
     </g>
     <g id="text_8">
      <!-- −3.8 -->
      <g transform="translate(58.717187 502.729504) scale(0.1 -0.1)">
       <use xlink:href="#DejaVuSans-2212"/>
       <use xlink:href="#DejaVuSans-33" transform="translate(83.789062 0)"/>
       <use xlink:href="#DejaVuSans-2e" transform="translate(147.412109 0)"/>
       <use xlink:href="#DejaVuSans-38" transform="translate(179.199219 0)"/>
      </g>
     </g>
    </g>
    <g id="ytick_4">
     <g id="line2d_15">
      <path d="M 90 439.091901 
L 648 439.091901 
" clip-path="url(#pb58a6c3f9d)" style="fill: none; stroke: #b0b0b0; stroke-width: 0.8; stroke-linecap: square"/>
     </g>
     <g id="line2d_16">
      <g>
       <use xlink:href="#mdaad979e3a" x="90" y="439.091901" style="stroke: #000000; stroke-width: 0.8"/>
      </g>
     </g>
     <g id="text_9">
      <!-- −3.7 -->
      <g transform="translate(58.717187 442.89112) scale(0.1 -0.1)">
       <defs>
        <path id="DejaVuSans-37" d="M 525 4666 
L 3525 4666 
L 3525 4397 
L 1831 0 
L 1172 0 
L 2766 4134 
L 525 4134 
L 525 4666 
z
" transform="scale(0.015625)"/>
       </defs>
       <use xlink:href="#DejaVuSans-2212"/>
       <use xlink:href="#DejaVuSans-33" transform="translate(83.789062 0)"/>
       <use xlink:href="#DejaVuSans-2e" transform="translate(147.412109 0)"/>
       <use xlink:href="#DejaVuSans-37" transform="translate(179.199219 0)"/>
      </g>
     </g>
    </g>
    <g id="ytick_5">
     <g id="line2d_17">
      <path d="M 90 379.253517 
L 648 379.253517 
" clip-path="url(#pb58a6c3f9d)" style="fill: none; stroke: #b0b0b0; stroke-width: 0.8; stroke-linecap: square"/>
     </g>
     <g id="line2d_18">
      <g>
       <use xlink:href="#mdaad979e3a" x="90" y="379.253517" style="stroke: #000000; stroke-width: 0.8"/>
      </g>
     </g>
     <g id="text_10">
      <!-- −3.6 -->
      <g transform="translate(58.717187 383.052736) scale(0.1 -0.1)">
       <defs>
        <path id="DejaVuSans-36" d="M 2113 2584 
Q 1688 2584 1439 2293 
Q 1191 2003 1191 1497 
Q 1191 994 1439 701 
Q 1688 409 2113 409 
Q 2538 409 2786 701 
Q 3034 994 3034 1497 
Q 3034 2003 2786 2293 
Q 2538 2584 2113 2584 
z
M 3366 4563 
L 3366 3988 
Q 3128 4100 2886 4159 
Q 2644 4219 2406 4219 
Q 1781 4219 1451 3797 
Q 1122 3375 1075 2522 
Q 1259 2794 1537 2939 
Q 1816 3084 2150 3084 
Q 2853 3084 3261 2657 
Q 3669 2231 3669 1497 
Q 3669 778 3244 343 
Q 2819 -91 2113 -91 
Q 1303 -91 875 529 
Q 447 1150 447 2328 
Q 447 3434 972 4092 
Q 1497 4750 2381 4750 
Q 2619 4750 2861 4703 
Q 3103 4656 3366 4563 
z
" transform="scale(0.015625)"/>
       </defs>
       <use xlink:href="#DejaVuSans-2212"/>
       <use xlink:href="#DejaVuSans-33" transform="translate(83.789062 0)"/>
       <use xlink:href="#DejaVuSans-2e" transform="translate(147.412109 0)"/>
       <use xlink:href="#DejaVuSans-36" transform="translate(179.199219 0)"/>
      </g>
     </g>
    </g>
    <g id="ytick_6">
     <g id="line2d_19">
      <path d="M 90 319.415133 
L 648 319.415133 
" clip-path="url(#pb58a6c3f9d)" style="fill: none; stroke: #b0b0b0; stroke-width: 0.8; stroke-linecap: square"/>
     </g>
     <g id="line2d_20">
      <g>
       <use xlink:href="#mdaad979e3a" x="90" y="319.415133" style="stroke: #000000; stroke-width: 0.8"/>
      </g>
     </g>
     <g id="text_11">
      <!-- −3.5 -->
      <g transform="translate(58.717187 323.214352) scale(0.1 -0.1)">
       <use xlink:href="#DejaVuSans-2212"/>
       <use xlink:href="#DejaVuSans-33" transform="translate(83.789062 0)"/>
       <use xlink:href="#DejaVuSans-2e" transform="translate(147.412109 0)"/>
       <use xlink:href="#DejaVuSans-35" transform="translate(179.199219 0)"/>
      </g>
     </g>
    </g>
    <g id="ytick_7">
     <g id="line2d_21">
      <path d="M 90 259.576749 
L 648 259.576749 
" clip-path="url(#pb58a6c3f9d)" style="fill: none; stroke: #b0b0b0; stroke-width: 0.8; stroke-linecap: square"/>
     </g>
     <g id="line2d_22">
      <g>
       <use xlink:href="#mdaad979e3a" x="90" y="259.576749" style="stroke: #000000; stroke-width: 0.8"/>
      </g>
     </g>
     <g id="text_12">
      <!-- −3.4 -->
      <g transform="translate(58.717187 263.375968) scale(0.1 -0.1)">
       <use xlink:href="#DejaVuSans-2212"/>
       <use xlink:href="#DejaVuSans-33" transform="translate(83.789062 0)"/>
       <use xlink:href="#DejaVuSans-2e" transform="translate(147.412109 0)"/>
       <use xlink:href="#DejaVuSans-34" transform="translate(179.199219 0)"/>
      </g>
     </g>
    </g>
    <g id="text_13">
     <!-- Latitude (°) -->
     <g transform="translate(52.6375 464.889531) rotate(-90) scale(0.1 -0.1)">
      <defs>
       <path id="DejaVuSans-61" d="M 2194 1759 
Q 1497 1759 1228 1600 
Q 959 1441 959 1056 
Q 959 750 1161 570 
Q 1363 391 1709 391 
Q 2188 391 2477 730 
Q 2766 1069 2766 1631 
L 2766 1759 
L 2194 1759 
z
M 3341 1997 
L 3341 0 
L 2766 0 
L 2766 531 
Q 2569 213 2275 61 
Q 1981 -91 1556 -91 
Q 1019 -91 701 211 
Q 384 513 384 1019 
Q 384 1609 779 1909 
Q 1175 2209 1959 2209 
L 2766 2209 
L 2766 2266 
Q 2766 2663 2505 2880 
Q 2244 3097 1772 3097 
Q 1472 3097 1187 3025 
Q 903 2953 641 2809 
L 641 3341 
Q 956 3463 1253 3523 
Q 1550 3584 1831 3584 
Q 2591 3584 2966 3190 
Q 3341 2797 3341 1997 
z
" transform="scale(0.015625)"/>
      </defs>
      <use xlink:href="#DejaVuSans-4c"/>
      <use xlink:href="#DejaVuSans-61" transform="translate(55.712891 0)"/>
      <use xlink:href="#DejaVuSans-74" transform="translate(116.992188 0)"/>
      <use xlink:href="#DejaVuSans-69" transform="translate(156.201172 0)"/>
      <use xlink:href="#DejaVuSans-74" transform="translate(183.984375 0)"/>
      <use xlink:href="#DejaVuSans-75" transform="translate(223.193359 0)"/>
      <use xlink:href="#DejaVuSans-64" transform="translate(286.572266 0)"/>
      <use xlink:href="#DejaVuSans-65" transform="translate(350.048828 0)"/>
      <use xlink:href="#DejaVuSans-20" transform="translate(411.572266 0)"/>
      <use xlink:href="#DejaVuSans-28" transform="translate(443.359375 0)"/>
      <use xlink:href="#DejaVuSans-b0" transform="translate(482.373047 0)"/>
      <use xlink:href="#DejaVuSans-29" transform="translate(532.373047 0)"/>
     </g>
    </g>
   </g>
   <g id="patch_3">
    <path d="M 90 637.732102 
L 90 234.907898 
" style="fill: none; stroke: #000000; stroke-width: 0.8; stroke-linejoin: miter; stroke-linecap: square"/>
   </g>
   <g id="patch_4">
    <path d="M 648 637.732102 
L 648 234.907898 
" style="fill: none; stroke: #000000; stroke-width: 0.8; stroke-linejoin: miter; stroke-linecap: square"/>
   </g>
   <g id="patch_5">
    <path d="M 90 637.732102 
L 648 637.732102 
" style="fill: none; stroke: #000000; stroke-width: 0.8; stroke-linejoin: miter; stroke-linecap: square"/>
   </g>
   <g id="patch_6">
    <path d="M 90 234.907898 
L 648 234.907898 
" style="fill: none; stroke: #000000; stroke-width: 0.8; stroke-linejoin: miter; stroke-linecap: square"/>
   </g>
   <g id="legend_1">
    <g id="patch_7">
     <path d="M 339.340625 740.975068 
L 398.659375 740.975068 
Q 400.659375 740.975068 400.659375 738.975068 
L 400.659375 725.296943 
Q 400.659375 723.296943 398.659375 723.296943 
L 339.340625 723.296943 
Q 337.340625 723.296943 337.340625 725.296943 
L 337.340625 738.975068 
Q 337.340625 740.975068 339.340625 740.975068 
z
" style="fill: #ffffff; opacity: 0.8; stroke: #cccccc; stroke-linejoin: miter"/>
    </g>
    <g id="line2d_23">
     <defs>
      <path id="mc0743d406d" d="M 0 5 
C 1.326016 5 2.597899 4.473168 3.535534 3.535534 
C 4.473168 2.597899 5 1.326016 5 0 
C 5 -1.326016 4.473168 -2.597899 3.535534 -3.535534 
C 2.597899 -4.473168 1.326016 -5 0 -5 
C -1.326016 -5 -2.597899 -4.473168 -3.535534 -3.535534 
C -4.473168 -2.597899 -5 -1.326016 -5 0 
C -5 1.326016 -4.473168 2.597899 -3.535534 3.535534 
C -2.597899 4.473168 -1.326016 5 0 5 
z
"/>
     </defs>
     <g>
      <use xlink:href="#mc0743d406d" x="351.340625" y="731.395381" style="fill: #b3e2cd; fill-opacity: 0.65"/>
     </g>
    </g>
    <g id="text_14">
     <!-- Arara -->
     <g transform="translate(369.340625 734.895381) scale(0.1 -0.1)">
      <defs>
       <path id="DejaVuSans-41" d="M 2188 4044 
L 1331 1722 
L 3047 1722 
L 2188 4044 
z
M 1831 4666 
L 2547 4666 
L 4325 0 
L 3669 0 
L 3244 1197 
L 1141 1197 
L 716 0 
L 50 0 
L 1831 4666 
z
" transform="scale(0.015625)"/>
       <path id="DejaVuSans-72" d="M 2631 2963 
Q 2534 3019 2420 3045 
Q 2306 3072 2169 3072 
Q 1681 3072 1420 2755 
Q 1159 2438 1159 1844 
L 1159 0 
L 581 0 
L 581 3500 
L 1159 3500 
L 1159 2956 
Q 1341 3275 1631 3429 
Q 1922 3584 2338 3584 
Q 2397 3584 2469 3576 
Q 2541 3569 2628 3553 
L 2631 2963 
z
" transform="scale(0.015625)"/>
      </defs>
      <use xlink:href="#DejaVuSans-41"/>
      <use xlink:href="#DejaVuSans-72" transform="translate(68.408203 0)"/>
      <use xlink:href="#DejaVuSans-61" transform="translate(109.521484 0)"/>
      <use xlink:href="#DejaVuSans-72" transform="translate(170.800781 0)"/>
      <use xlink:href="#DejaVuSans-61" transform="translate(211.914062 0)"/>
     </g>
    </g>
   </g>
  </g>
 </g>
 <defs>
  <clipPath id="pb58a6c3f9d">
   <rect x="90" y="234.907898" width="558" height="402.824205"/>
  </clipPath>
 </defs>
</svg>
