<?xml version="1.0" encoding="utf-8" standalone="no"?>
<!DOCTYPE svg PUBLIC "-//W3C//DTD SVG 1.1//EN"
  "http://www.w3.org/Graphics/SVG/1.1/DTD/svg11.dtd">
<svg xmlns:xlink="http://www.w3.org/1999/xlink" width="720pt" height="864pt" viewBox="0 0 720 864" xmlns="http://www.w3.org/2000/svg" version="1.1">
 <metadata>
  <rdf:RDF xmlns:dc="http://purl.org/dc/elements/1.1/" xmlns:cc="http://creativecommons.org/ns#" xmlns:rdf="http://www.w3.org/1999/02/22-rdf-syntax-ns#">
   <cc:Work>
    <dc:type rdf:resource="http://purl.org/dc/dcmitype/StillImage"/>
    <dc:date>2025-06-16T16:49:28.054213</dc:date>
    <dc:format>image/svg+xml</dc:format>
    <dc:creator>
     <cc:Agent>
      <dc:title>Matplotlib v3.10.1, https://matplotlib.org/</dc:title>
     </cc:Agent>
    </dc:creator>
   </cc:Work>
  </rdf:RDF>
 </metadata>
 <defs>
  <style type="text/css">*{stroke-linejoin: round; stroke-linecap: butt}</style>
 </defs>
 <g id="figure_1">
  <g id="patch_1">
   <path d="M 0 864 
L 720 864 
L 720 0 
L 0 0 
z
" style="fill: #ffffff"/>
  </g>
  <g id="axes_1">
   <g id="patch_2">
    <path d="M 90 729.893157 
L 648 729.893157 
L 648 142.746843 
L 90 142.746843 
z
" style="fill: #ffffff"/>
   </g>
   <g id="PatchCollection_1">
    <path d="M 268.74351 670.21409 
L 269.389414 670.2471 
L 270.032007 670.211215 
L 270.089928 670.205036 
L 270.666361 670.108456 
L 271.231516 670.014279 
L 271.302474 670.006645 
L 271.944396 669.953975 
L 272.58788 669.926611 
L 272.844767 669.921549 
L 273.230611 669.924268 
L 273.867813 670.029222 
L 273.98783 670.073859 
L 274.468307 670.304075 
L 275.01717 670.628757 
L 275.462278 670.910885 
L 275.557706 670.971288 
L 276.090114 671.326591 
L 276.613497 671.691703 
L 277.143967 672.055258 
L 277.667769 672.388012 
L 277.697662 672.405752 
L 278.292714 672.679858 
L 278.912784 672.840215 
L 278.997824 672.853991 
L 279.546617 672.842798 
L 280.096634 672.677706 
L 280.17953 672.642554 
L 280.770223 672.35266 
L 281.207508 671.986762 
L 281.249656 671.93622 
L 281.662125 671.441602 
L 281.393085 671.971666 
L 281.356531 672.04734 
L 281.142644 672.690039 
L 280.965476 673.348335 
L 280.942345 673.417374 
L 280.744907 673.990111 
L 280.524788 674.632151 
L 280.303288 675.273762 
L 280.077832 675.913962 
L 279.845846 676.551773 
L 279.672613 677.010825 
L 279.605127 677.186347 
L 279.3607 677.819492 
L 279.115284 678.452218 
L 278.869332 679.084718 
L 278.623299 679.717184 
L 278.377638 680.349807 
L 278.217931 680.762329 
L 278.132869 680.982773 
L 277.890517 681.616652 
L 277.850785 681.721664 
L 277.668273 682.257944 
L 277.489363 682.913237 
L 277.358636 683.49634 
L 277.342015 683.576984 
L 277.213737 684.24373 
L 277.107645 684.89831 
L 277.105445 684.91356 
L 277.010711 685.585694 
L 276.918347 686.258085 
L 276.825572 686.930421 
L 276.775236 687.286969 
L 276.729562 687.602336 
L 276.628543 688.273397 
L 276.523119 688.943923 
L 276.483572 689.189433 
L 276.406093 689.613405 
L 276.236545 690.272015 
L 276.076003 690.706443 
L 275.988106 690.905321 
L 275.697851 691.518471 
L 275.538371 691.866651 
L 275.420151 692.137202 
L 275.148466 692.759083 
L 274.877042 693.381089 
L 274.675826 693.843072 
L 274.606779 694.003608 
L 274.345295 694.630136 
L 274.077303 695.253654 
L 273.926472 695.575994 
L 273.785115 695.866034 
L 273.487806 696.47606 
L 273.190499 697.086086 
L 272.893191 697.696112 
L 272.386599 698.207638 
L 272.125413 698.471369 
L 271.86971 698.707314 
L 271.296232 699.143368 
L 271.086501 699.29069 
L 270.698145 699.546392 
L 270.076685 699.902714 
L 269.704807 700.097209 
L 269.426749 700.241239 
L 268.759388 700.550335 
L 268.065014 700.703624 
L 267.993805 700.705033 
L 267.347147 700.683811 
L 266.628532 700.628772 
L 266.43685 700.611738 
L 265.911689 700.564945 
L 265.194972 700.501089 
L 264.478316 700.436424 
L 264.30826 700.420862 
L 263.761775 700.370394 
L 263.045335 700.30341 
L 262.328985 700.235615 
L 262.122489 700.215937 
L 261.613804 700.156863 
L 260.900263 700.062783 
L 260.522261 700.02276 
L 260.183925 699.995952 
L 259.465702 699.952736 
L 258.746949 699.916841 
L 258.051137 699.876248 
L 258.028571 699.874707 
L 257.310384 699.82854 
L 256.592285 699.781151 
L 255.875112 699.722501 
L 255.159706 699.642553 
L 255.079781 699.631839 
L 254.447445 699.536525 
L 253.738486 699.413444 
L 253.031152 699.281946 
L 252.323749 699.150625 
L 251.807124 699.059944 
L 251.614676 699.027648 
L 250.904459 698.911018 
L 250.193764 698.797766 
L 249.482773 698.687178 
L 248.771664 698.57854 
L 248.73476 698.572942 
L 248.056528 698.48982 
L 247.335224 698.445779 
L 246.612156 698.449946 
L 245.891742 698.505793 
L 245.507354 698.558348 
L 245.181514 698.631654 
L 244.566293 698.891219 
L 244.518456 698.917964 
L 243.891827 699.273621 
L 243.271617 699.636685 
L 243.241524 699.654612 
L 242.653917 700.006331 
L 242.03813 700.378493 
L 241.432654 700.748898 
L 241.424001 700.754233 
L 240.824174 701.150345 
L 240.248638 701.583957 
L 240.108687 701.698131 
L 239.707648 702.06511 
L 239.255776 702.602436 
L 239.245666 702.616736 
L 238.829969 703.204688 
L 224.331487 682.367388 
L 230.247893 680.068911 
L 236.507863 674.63828 
L 245.017677 674.372912 
L 243.014408 653.396069 
L 243.598628 653.666461 
L 244.116142 653.90598 
L 244.182493 653.937539 
L 244.742266 654.25518 
L 245.218426 654.544543 
L 245.294201 654.587662 
L 245.857318 654.898936 
L 246.134526 655.055246 
L 246.411512 655.228921 
L 246.921065 655.627376 
L 247.37724 656.089612 
L 247.697183 656.492364 
L 247.775844 656.603493 
L 248.125477 657.147038 
L 248.451182 657.7022 
L 248.778434 658.255296 
L 249.020081 658.630967 
L 249.129485 658.794728 
L 249.481397 659.336197 
L 249.845541 659.868755 
L 250.250175 660.369953 
L 250.399068 660.526305 
L 250.710626 660.823818 
L 251.194466 661.247872 
L 251.687206 661.661412 
L 251.775124 661.735482 
L 252.178579 662.077847 
L 252.672412 662.490365 
L 253.064893 662.802075 
L 253.179427 662.888605 
L 253.70836 663.256258 
L 254.253704 663.598753 
L 254.806678 663.92934 
L 254.940748 664.009094 
L 255.367559 664.245851 
L 255.938324 664.544497 
L 256.314854 664.760823 
L 256.489236 664.875814 
L 257.004408 665.262034 
L 257.274602 665.457151 
L 257.535164 665.628319 
L 257.73272 665.726786 
L 258.133783 665.869959 
L 258.752127 666.047872 
L 259.376774 666.200277 
L 259.577082 666.247763 
L 260.004256 666.34426 
L 260.633755 666.477382 
L 261.235133 666.612294 
L 261.261991 666.618755 
L 261.893091 666.770174 
L 262.508278 666.967941 
L 262.922603 667.176826 
L 263.075153 667.272669 
L 263.615016 667.624648 
L 264.15008 667.980967 
L 264.48352 668.199336 
L 264.689164 668.332131 
L 265.229971 668.68106 
L 265.772072 669.028366 
L 266.144582 669.264295 
L 266.319318 669.367506 
L 266.898046 669.647287 
L 267.189219 669.774407 
L 267.493827 669.900484 
L 268.105194 670.098084 
L 268.290362 670.141325 
L 268.74351 670.21409 
" clip-path="url(#p85b4e19549)" style="fill: #b3e2cd; fill-opacity: 0.65"/>
   </g>
   <g id="PatchCollection_2">
    <path d="M 580.724093 169.435312 
L 590.10565 169.827173 
L 593.486218 169.785713 
L 592.02551 177.116016 
L 591.646211 185.329955 
L 590.68542 189.417208 
L 592.728683 192.57026 
L 595.845961 199.545776 
L 599.444476 203.909523 
L 599.796918 205.460842 
L 602.194752 209.340047 
L 602.618769 210.247565 
L 602.825335 211.590504 
L 602.644603 213.912812 
L 600.647488 219.968553 
L 598.680056 226.916894 
L 597.765643 229.200139 
L 596.958228 230.569605 
L 595.65122 231.595909 
L 594.425867 232.012759 
L 592.10927 232.430717 
L 585.04285 232.824416 
L 578.583174 233.482585 
L 575.581501 233.335981 
L 573.237534 233.340198 
L 571.302434 232.608425 
L 570.462624 232.745702 
L 567.830401 233.868324 
L 567.309246 234.53057 
L 567.148667 235.97583 
L 565.940072 237.428149 
L 565.341055 238.727851 
L 564.719426 240.969468 
L 565.630517 249.137001 
L 565.800584 251.665848 
L 567.441767 255.111823 
L 571.246804 259.911375 
L 572.176901 262.078036 
L 579.185635 268.353252 
L 580.384071 268.899755 
L 581.583129 270.314971 
L 582.99831 271.495725 
L 585.662464 272.146665 
L 589.037091 272.151491 
L 591.725677 270.743725 
L 598.155981 266.719598 
L 600.883577 265.521586 
L 604.472372 264.536662 
L 606.650154 265.133862 
L 608.445408 266.493394 
L 610.206388 268.284786 
L 613.038741 272.90961 
L 615.216902 278.306067 
L 616.575001 281.240556 
L 619.358871 284.706156 
L 620.392102 287.319191 
L 621.814816 295.579942 
L 622.623647 311.548008 
L 622.636364 318.202829 
L 622.476507 322.540157 
L 621.752412 326.125676 
L 620.786986 328.533639 
L 618.379137 330.295086 
L 613.24696 332.703908 
L 605.477806 335.985165 
L 602.426055 338.079372 
L 597.855299 339.360717 
L 596.172778 340.242632 
L 594.490688 340.482345 
L 591.285441 341.44424 
L 587.621245 341.995073 
L 585.943584 342.634093 
L 579.272201 346.690787 
L 574.863826 347.732332 
L 572.456117 348.614762 
L 569.808873 349.015718 
L 567.078872 350.059285 
L 561.551988 351.100333 
L 557.404435 352.459301 
L 554.528658 352.934935 
L 548.044651 353.335593 
L 546.528795 353.734129 
L 544.562247 355.160969 
L 541.9052 356.894056 
L 540.479002 357.416561 
L 518.509676 322.761762 
L 515.208003 322.444052 
L 538.247084 358.688351 
L 535.965962 361.523629 
L 532.140887 364.984299 
L 531.169285 366.414951 
L 529.392892 371.213432 
L 528.627909 374.497309 
L 528.783866 377.455265 
L 527.907607 380.651317 
L 528.334471 382.601048 
L 531.929573 394.135335 
L 537.627982 402.51553 
L 539.638064 406.711333 
L 541.818514 415.394837 
L 542.99027 419.425352 
L 542.319995 428.62637 
L 541.481893 435.667689 
L 542.319591 442.712729 
L 542.1518 450.090113 
L 540.978065 456.122916 
L 539.686235 458.605033 
L 537.590544 460.79793 
L 535.752377 461.615453 
L 514.945307 471.370282 
L 513.223802 471.681979 
L 510.76928 472.960486 
L 509.186654 473.469361 
L 501.307176 478.968228 
L 498.651501 479.634602 
L 497.284593 480.897927 
L 495.747808 482.588363 
L 494.059802 483.97042 
L 488.204906 485.963488 
L 485.601353 488.106431 
L 482.140429 490.802402 
L 479.615696 492.159976 
L 475.056287 494.95821 
L 471.392901 498.026455 
L 470.220462 498.531471 
L 468.740164 502.371625 
L 467.726022 504.471634 
L 467.064324 505.134477 
L 465.799494 505.904008 
L 463.212014 509.463493 
L 463.27267 510.638333 
L 463.673314 510.996889 
L 464.278032 511.919434 
L 464.395041 513.243183 
L 464.778789 513.633447 
L 463.613505 515.01085 
L 402.040665 561.812835 
L 402.286316 576.641555 
L 376.863411 583.879476 
L 380.740357 597.584238 
L 364.19118 612.818161 
L 370.312868 626.971882 
L 368.343313 627.876221 
L 369.971726 635.545529 
L 369.384728 636.760485 
L 369.861232 639.082639 
L 391.26594 632.97241 
L 392.298027 637.91092 
L 390.849406 637.939255 
L 387.275069 636.927 
L 383.125664 636.670583 
L 378.365701 637.222918 
L 376.500824 638.560198 
L 375.003011 639.281385 
L 372.094759 640.064289 
L 369.839105 639.859573 
L 364.413843 640.154707 
L 358.157295 640.010215 
L 355.630565 640.234055 
L 348.539542 641.636865 
L 337.946659 642.299916 
L 336.30624 642.720172 
L 335.025118 643.669107 
L 331.814968 644.686261 
L 316.411146 645.332977 
L 313.055901 645.809078 
L 311.602289 646.485762 
L 310.59426 647.216227 
L 308.028011 648.500936 
L 306.11605 648.537713 
L 302.025827 650.10055 
L 300.527184 650.271461 
L 295.698004 652.702302 
L 291.920267 654.862614 
L 290.783473 656.521386 
L 288.085317 659.694986 
L 285.836155 661.34867 
L 283.052882 664.967122 
L 282.616025 666.338409 
L 281.423485 667.630114 
L 279.788959 672.738941 
L 279.134634 676.644221 
L 277.229234 680.217677 
L 276.633033 684.016943 
L 273.717086 694.296022 
L 272.825862 696.516643 
L 230.723971 698.674184 
L 217.1409 697.964103 
L 203.34388 702.341857 
L 171.436535 696.029815 
L 170.94898 696.335341 
L 159.166082 697.850396 
L 130.074296 699.747269 
L 115.998795 701.757264 
L 115.363636 698.911323 
L 117.481949 693.666632 
L 120.119836 689.381878 
L 121.49345 683.611237 
L 120.434625 678.770497 
L 119.056575 674.042504 
L 118.315988 667.754715 
L 120.952909 663.21273 
L 123.34392 658.254328 
L 127.403363 647.996001 
L 130.935972 643.495961 
L 135.216362 639.58915 
L 139.672165 635.966014 
L 145.443282 633.384068 
L 155.902268 631.078147 
L 161.68538 627.623905 
L 164.853363 623.691847 
L 164.459958 618.419506 
L 163.08151 613.893369 
L 160.363639 607.634112 
L 158.813102 603.600466 
L 157.490856 597.444018 
L 159.34094 592.819965 
L 164.14944 591.942027 
L 169.22328 593.037452 
L 173.993111 593.129015 
L 179.596067 591.30566 
L 183.526651 588.755834 
L 185.421932 584.390407 
L 186.4475 579.310999 
L 192.132342 569.718859 
L 192.867278 564.772217 
L 193.188159 559.509777 
L 194.193939 553.742849 
L 196.937853 547.727087 
L 202.501137 546.346012 
L 211.928326 543.576384 
L 217.061238 541.366461 
L 221.204762 538.850446 
L 225.352313 530.02431 
L 223.489745 525.027092 
L 222.800342 520.242256 
L 222.265686 517.994707 
L 225.173257 517.769487 
L 225.453238 517.581507 
L 227.037988 517.991896 
L 229.84611 517.28782 
L 233.914646 516.478766 
L 237.39522 515.644942 
L 241.889464 514.68595 
L 247.736948 513.223923 
L 253.483693 511.284306 
L 259.632934 508.81872 
L 259.948889 508.405767 
L 260.043042 509.398306 
L 261.042325 513.800134 
L 274.969686 511.301815 
L 284.71202 509.718604 
L 287.267025 508.211258 
L 284.80086 486.997014 
L 287.530395 487.445989 
L 293.807177 485.97783 
L 296.689911 477.943576 
L 368.781986 462.519701 
L 360.212512 416.775717 
L 373.410402 414.81378 
L 384.229165 410.194764 
L 392.691632 405.502318 
L 397.237316 403.252753 
L 408.897056 401.817636 
L 417.972028 400.281423 
L 425.474757 400.112335 
L 426.523969 400.7526 
L 430.366532 402.5907 
L 435.635208 403.265288 
L 441.948611 400.295502 
L 448.088047 390.028886 
L 451.237042 380.992161 
L 455.33216 371.774486 
L 458.070685 358.97807 
L 459.467222 333.66465 
L 463.102153 322.841217 
L 468.596627 311.040185 
L 475.166904 301.541669 
L 485.146965 293.54618 
L 495.719407 284.060623 
L 501.515405 276.236269 
L 506.340617 260.820108 
L 507.195606 259.999362 
L 508.548985 256.312647 
L 513.628839 244.982966 
L 515.979202 232.212049 
L 514.592897 224.856257 
L 514.338962 220.863012 
L 512.075345 216.655934 
L 516.126389 208.643181 
L 520.653231 205.181609 
L 526.980745 194.76924 
L 530.310811 188.982967 
L 536.767808 188.059204 
L 538.461758 187.13099 
L 540.106047 187.373295 
L 551.840434 187.372191 
L 561.990014 183.244678 
L 575.393309 174.644713 
L 580.724093 169.435312 
L 580.724093 169.435312 
" clip-path="url(#p85b4e19549)" style="fill: none; stroke: #000000; stroke-width: 2"/>
   </g>
   <g id="matplotlib.axis_1">
    <g id="xtick_1">
     <g id="line2d_1">
      <path d="M 124.451326 729.893157 
L 124.451326 142.746843 
" clip-path="url(#p85b4e19549)" style="fill: none; stroke: #b0b0b0; stroke-width: 0.8; stroke-linecap: square"/>
     </g>
     <g id="line2d_2">
      <defs>
       <path id="mb6cd12561b" d="M 0 0 
L 0 3.5 
" style="stroke: #000000; stroke-width: 0.8"/>
      </defs>
      <g>
       <use xlink:href="#mb6cd12561b" x="124.451326" y="729.893157" style="stroke: #000000; stroke-width: 0.8"/>
      </g>
     </g>
     <g id="text_1">
      <!-- −48.05 -->
      <g transform="translate(113.318261 768.434538) rotate(-45) scale(0.1 -0.1)">
       <defs>
        <path id="DejaVuSans-2212" d="M 678 2272 
L 4684 2272 
L 4684 1741 
L 678 1741 
L 678 2272 
z
" transform="scale(0.015625)"/>
        <path id="DejaVuSans-34" d="M 2419 4116 
L 825 1625 
L 2419 1625 
L 2419 4116 
z
M 2253 4666 
L 3047 4666 
L 3047 1625 
L 3713 1625 
L 3713 1100 
L 3047 1100 
L 3047 0 
L 2419 0 
L 2419 1100 
L 313 1100 
L 313 1709 
L 2253 4666 
z
" transform="scale(0.015625)"/>
        <path id="DejaVuSans-38" d="M 2034 2216 
Q 1584 2216 1326 1975 
Q 1069 1734 1069 1313 
Q 1069 891 1326 650 
Q 1584 409 2034 409 
Q 2484 409 2743 651 
Q 3003 894 3003 1313 
Q 3003 1734 2745 1975 
Q 2488 2216 2034 2216 
z
M 1403 2484 
Q 997 2584 770 2862 
Q 544 3141 544 3541 
Q 544 4100 942 4425 
Q 1341 4750 2034 4750 
Q 2731 4750 3128 4425 
Q 3525 4100 3525 3541 
Q 3525 3141 3298 2862 
Q 3072 2584 2669 2484 
Q 3125 2378 3379 2068 
Q 3634 1759 3634 1313 
Q 3634 634 3220 271 
Q 2806 -91 2034 -91 
Q 1263 -91 848 271 
Q 434 634 434 1313 
Q 434 1759 690 2068 
Q 947 2378 1403 2484 
z
M 1172 3481 
Q 1172 3119 1398 2916 
Q 1625 2713 2034 2713 
Q 2441 2713 2670 2916 
Q 2900 3119 2900 3481 
Q 2900 3844 2670 4047 
Q 2441 4250 2034 4250 
Q 1625 4250 1398 4047 
Q 1172 3844 1172 3481 
z
" transform="scale(0.015625)"/>
        <path id="DejaVuSans-2e" d="M 684 794 
L 1344 794 
L 1344 0 
L 684 0 
L 684 794 
z
" transform="scale(0.015625)"/>
        <path id="DejaVuSans-30" d="M 2034 4250 
Q 1547 4250 1301 3770 
Q 1056 3291 1056 2328 
Q 1056 1369 1301 889 
Q 1547 409 2034 409 
Q 2525 409 2770 889 
Q 3016 1369 3016 2328 
Q 3016 3291 2770 3770 
Q 2525 4250 2034 4250 
z
M 2034 4750 
Q 2819 4750 3233 4129 
Q 3647 3509 3647 2328 
Q 3647 1150 3233 529 
Q 2819 -91 2034 -91 
Q 1250 -91 836 529 
Q 422 1150 422 2328 
Q 422 3509 836 4129 
Q 1250 4750 2034 4750 
z
" transform="scale(0.015625)"/>
        <path id="DejaVuSans-35" d="M 691 4666 
L 3169 4666 
L 3169 4134 
L 1269 4134 
L 1269 2991 
Q 1406 3038 1543 3061 
Q 1681 3084 1819 3084 
Q 2600 3084 3056 2656 
Q 3513 2228 3513 1497 
Q 3513 744 3044 326 
Q 2575 -91 1722 -91 
Q 1428 -91 1123 -41 
Q 819 9 494 109 
L 494 744 
Q 775 591 1075 516 
Q 1375 441 1709 441 
Q 2250 441 2565 725 
Q 2881 1009 2881 1497 
Q 2881 1984 2565 2268 
Q 2250 2553 1709 2553 
Q 1456 2553 1204 2497 
Q 953 2441 691 2322 
L 691 4666 
z
" transform="scale(0.015625)"/>
       </defs>
       <use xlink:href="#DejaVuSans-2212"/>
       <use xlink:href="#DejaVuSans-34" transform="translate(83.789062 0)"/>
       <use xlink:href="#DejaVuSans-38" transform="translate(147.412109 0)"/>
       <use xlink:href="#DejaVuSans-2e" transform="translate(211.035156 0)"/>
       <use xlink:href="#DejaVuSans-30" transform="translate(242.822266 0)"/>
       <use xlink:href="#DejaVuSans-35" transform="translate(306.445312 0)"/>
      </g>
     </g>
    </g>
    <g id="xtick_2">
     <g id="line2d_3">
      <path d="M 203.867262 729.893157 
L 203.867262 142.746843 
" clip-path="url(#p85b4e19549)" style="fill: none; stroke: #b0b0b0; stroke-width: 0.8; stroke-linecap: square"/>
     </g>
     <g id="line2d_4">
      <g>
       <use xlink:href="#mb6cd12561b" x="203.867262" y="729.893157" style="stroke: #000000; stroke-width: 0.8"/>
      </g>
     </g>
     <g id="text_2">
      <!-- −48.00 -->
      <g transform="translate(192.734197 768.434538) rotate(-45) scale(0.1 -0.1)">
       <use xlink:href="#DejaVuSans-2212"/>
       <use xlink:href="#DejaVuSans-34" transform="translate(83.789062 0)"/>
       <use xlink:href="#DejaVuSans-38" transform="translate(147.412109 0)"/>
       <use xlink:href="#DejaVuSans-2e" transform="translate(211.035156 0)"/>
       <use xlink:href="#DejaVuSans-30" transform="translate(242.822266 0)"/>
       <use xlink:href="#DejaVuSans-30" transform="translate(306.445312 0)"/>
      </g>
     </g>
    </g>
    <g id="xtick_3">
     <g id="line2d_5">
      <path d="M 283.283198 729.893157 
L 283.283198 142.746843 
" clip-path="url(#p85b4e19549)" style="fill: none; stroke: #b0b0b0; stroke-width: 0.8; stroke-linecap: square"/>
     </g>
     <g id="line2d_6">
      <g>
       <use xlink:href="#mb6cd12561b" x="283.283198" y="729.893157" style="stroke: #000000; stroke-width: 0.8"/>
      </g>
     </g>
     <g id="text_3">
      <!-- −47.95 -->
      <g transform="translate(272.150133 768.434538) rotate(-45) scale(0.1 -0.1)">
       <defs>
        <path id="DejaVuSans-37" d="M 525 4666 
L 3525 4666 
L 3525 4397 
L 1831 0 
L 1172 0 
L 2766 4134 
L 525 4134 
L 525 4666 
z
" transform="scale(0.015625)"/>
        <path id="DejaVuSans-39" d="M 703 97 
L 703 672 
Q 941 559 1184 500 
Q 1428 441 1663 441 
Q 2288 441 2617 861 
Q 2947 1281 2994 2138 
Q 2813 1869 2534 1725 
Q 2256 1581 1919 1581 
Q 1219 1581 811 2004 
Q 403 2428 403 3163 
Q 403 3881 828 4315 
Q 1253 4750 1959 4750 
Q 2769 4750 3195 4129 
Q 3622 3509 3622 2328 
Q 3622 1225 3098 567 
Q 2575 -91 1691 -91 
Q 1453 -91 1209 -44 
Q 966 3 703 97 
z
M 1959 2075 
Q 2384 2075 2632 2365 
Q 2881 2656 2881 3163 
Q 2881 3666 2632 3958 
Q 2384 4250 1959 4250 
Q 1534 4250 1286 3958 
Q 1038 3666 1038 3163 
Q 1038 2656 1286 2365 
Q 1534 2075 1959 2075 
z
" transform="scale(0.015625)"/>
       </defs>
       <use xlink:href="#DejaVuSans-2212"/>
       <use xlink:href="#DejaVuSans-34" transform="translate(83.789062 0)"/>
       <use xlink:href="#DejaVuSans-37" transform="translate(147.412109 0)"/>
       <use xlink:href="#DejaVuSans-2e" transform="translate(211.035156 0)"/>
       <use xlink:href="#DejaVuSans-39" transform="translate(242.822266 0)"/>
       <use xlink:href="#DejaVuSans-35" transform="translate(306.445312 0)"/>
      </g>
     </g>
    </g>
    <g id="xtick_4">
     <g id="line2d_7">
      <path d="M 362.699134 729.893157 
L 362.699134 142.746843 
" clip-path="url(#p85b4e19549)" style="fill: none; stroke: #b0b0b0; stroke-width: 0.8; stroke-linecap: square"/>
     </g>
     <g id="line2d_8">
      <g>
       <use xlink:href="#mb6cd12561b" x="362.699134" y="729.893157" style="stroke: #000000; stroke-width: 0.8"/>
      </g>
     </g>
     <g id="text_4">
      <!-- −47.90 -->
      <g transform="translate(351.566069 768.434538) rotate(-45) scale(0.1 -0.1)">
       <use xlink:href="#DejaVuSans-2212"/>
       <use xlink:href="#DejaVuSans-34" transform="translate(83.789062 0)"/>
       <use xlink:href="#DejaVuSans-37" transform="translate(147.412109 0)"/>
       <use xlink:href="#DejaVuSans-2e" transform="translate(211.035156 0)"/>
       <use xlink:href="#DejaVuSans-39" transform="translate(242.822266 0)"/>
       <use xlink:href="#DejaVuSans-30" transform="translate(306.445312 0)"/>
      </g>
     </g>
    </g>
    <g id="xtick_5">
     <g id="line2d_9">
      <path d="M 442.11507 729.893157 
L 442.11507 142.746843 
" clip-path="url(#p85b4e19549)" style="fill: none; stroke: #b0b0b0; stroke-width: 0.8; stroke-linecap: square"/>
     </g>
     <g id="line2d_10">
      <g>
       <use xlink:href="#mb6cd12561b" x="442.11507" y="729.893157" style="stroke: #000000; stroke-width: 0.8"/>
      </g>
     </g>
     <g id="text_5">
      <!-- −47.85 -->
      <g transform="translate(430.982005 768.434538) rotate(-45) scale(0.1 -0.1)">
       <use xlink:href="#DejaVuSans-2212"/>
       <use xlink:href="#DejaVuSans-34" transform="translate(83.789062 0)"/>
       <use xlink:href="#DejaVuSans-37" transform="translate(147.412109 0)"/>
       <use xlink:href="#DejaVuSans-2e" transform="translate(211.035156 0)"/>
       <use xlink:href="#DejaVuSans-38" transform="translate(242.822266 0)"/>
       <use xlink:href="#DejaVuSans-35" transform="translate(306.445312 0)"/>
      </g>
     </g>
    </g>
    <g id="xtick_6">
     <g id="line2d_11">
      <path d="M 521.531006 729.893157 
L 521.531006 142.746843 
" clip-path="url(#p85b4e19549)" style="fill: none; stroke: #b0b0b0; stroke-width: 0.8; stroke-linecap: square"/>
     </g>
     <g id="line2d_12">
      <g>
       <use xlink:href="#mb6cd12561b" x="521.531006" y="729.893157" style="stroke: #000000; stroke-width: 0.8"/>
      </g>
     </g>
     <g id="text_6">
      <!-- −47.80 -->
      <g transform="translate(510.397941 768.434538) rotate(-45) scale(0.1 -0.1)">
       <use xlink:href="#DejaVuSans-2212"/>
       <use xlink:href="#DejaVuSans-34" transform="translate(83.789062 0)"/>
       <use xlink:href="#DejaVuSans-37" transform="translate(147.412109 0)"/>
       <use xlink:href="#DejaVuSans-2e" transform="translate(211.035156 0)"/>
       <use xlink:href="#DejaVuSans-38" transform="translate(242.822266 0)"/>
       <use xlink:href="#DejaVuSans-30" transform="translate(306.445312 0)"/>
      </g>
     </g>
    </g>
    <g id="xtick_7">
     <g id="line2d_13">
      <path d="M 600.946942 729.893157 
L 600.946942 142.746843 
" clip-path="url(#p85b4e19549)" style="fill: none; stroke: #b0b0b0; stroke-width: 0.8; stroke-linecap: square"/>
     </g>
     <g id="line2d_14">
      <g>
       <use xlink:href="#mb6cd12561b" x="600.946942" y="729.893157" style="stroke: #000000; stroke-width: 0.8"/>
      </g>
     </g>
     <g id="text_7">
      <!-- −47.75 -->
      <g transform="translate(589.813878 768.434538) rotate(-45) scale(0.1 -0.1)">
       <use xlink:href="#DejaVuSans-2212"/>
       <use xlink:href="#DejaVuSans-34" transform="translate(83.789062 0)"/>
       <use xlink:href="#DejaVuSans-37" transform="translate(147.412109 0)"/>
       <use xlink:href="#DejaVuSans-2e" transform="translate(211.035156 0)"/>
       <use xlink:href="#DejaVuSans-37" transform="translate(242.822266 0)"/>
       <use xlink:href="#DejaVuSans-35" transform="translate(306.445312 0)"/>
      </g>
     </g>
    </g>
    <g id="text_8">
     <!-- Longitude (°) -->
     <g transform="translate(336.139844 781.503537) scale(0.1 -0.1)">
      <defs>
       <path id="DejaVuSans-4c" d="M 628 4666 
L 1259 4666 
L 1259 531 
L 3531 531 
L 3531 0 
L 628 0 
L 628 4666 
z
" transform="scale(0.015625)"/>
       <path id="DejaVuSans-6f" d="M 1959 3097 
Q 1497 3097 1228 2736 
Q 959 2375 959 1747 
Q 959 1119 1226 758 
Q 1494 397 1959 397 
Q 2419 397 2687 759 
Q 2956 1122 2956 1747 
Q 2956 2369 2687 2733 
Q 2419 3097 1959 3097 
z
M 1959 3584 
Q 2709 3584 3137 3096 
Q 3566 2609 3566 1747 
Q 3566 888 3137 398 
Q 2709 -91 1959 -91 
Q 1206 -91 779 398 
Q 353 888 353 1747 
Q 353 2609 779 3096 
Q 1206 3584 1959 3584 
z
" transform="scale(0.015625)"/>
       <path id="DejaVuSans-6e" d="M 3513 2113 
L 3513 0 
L 2938 0 
L 2938 2094 
Q 2938 2591 2744 2837 
Q 2550 3084 2163 3084 
Q 1697 3084 1428 2787 
Q 1159 2491 1159 1978 
L 1159 0 
L 581 0 
L 581 3500 
L 1159 3500 
L 1159 2956 
Q 1366 3272 1645 3428 
Q 1925 3584 2291 3584 
Q 2894 3584 3203 3211 
Q 3513 2838 3513 2113 
z
" transform="scale(0.015625)"/>
       <path id="DejaVuSans-67" d="M 2906 1791 
Q 2906 2416 2648 2759 
Q 2391 3103 1925 3103 
Q 1463 3103 1205 2759 
Q 947 2416 947 1791 
Q 947 1169 1205 825 
Q 1463 481 1925 481 
Q 2391 481 2648 825 
Q 2906 1169 2906 1791 
z
M 3481 434 
Q 3481 -459 3084 -895 
Q 2688 -1331 1869 -1331 
Q 1566 -1331 1297 -1286 
Q 1028 -1241 775 -1147 
L 775 -588 
Q 1028 -725 1275 -790 
Q 1522 -856 1778 -856 
Q 2344 -856 2625 -561 
Q 2906 -266 2906 331 
L 2906 616 
Q 2728 306 2450 153 
Q 2172 0 1784 0 
Q 1141 0 747 490 
Q 353 981 353 1791 
Q 353 2603 747 3093 
Q 1141 3584 1784 3584 
Q 2172 3584 2450 3431 
Q 2728 3278 2906 2969 
L 2906 3500 
L 3481 3500 
L 3481 434 
z
" transform="scale(0.015625)"/>
       <path id="DejaVuSans-69" d="M 603 3500 
L 1178 3500 
L 1178 0 
L 603 0 
L 603 3500 
z
M 603 4863 
L 1178 4863 
L 1178 4134 
L 603 4134 
L 603 4863 
z
" transform="scale(0.015625)"/>
       <path id="DejaVuSans-74" d="M 1172 4494 
L 1172 3500 
L 2356 3500 
L 2356 3053 
L 1172 3053 
L 1172 1153 
Q 1172 725 1289 603 
Q 1406 481 1766 481 
L 2356 481 
L 2356 0 
L 1766 0 
Q 1100 0 847 248 
Q 594 497 594 1153 
L 594 3053 
L 172 3053 
L 172 3500 
L 594 3500 
L 594 4494 
L 1172 4494 
z
" transform="scale(0.015625)"/>
       <path id="DejaVuSans-75" d="M 544 1381 
L 544 3500 
L 1119 3500 
L 1119 1403 
Q 1119 906 1312 657 
Q 1506 409 1894 409 
Q 2359 409 2629 706 
Q 2900 1003 2900 1516 
L 2900 3500 
L 3475 3500 
L 3475 0 
L 2900 0 
L 2900 538 
Q 2691 219 2414 64 
Q 2138 -91 1772 -91 
Q 1169 -91 856 284 
Q 544 659 544 1381 
z
M 1991 3584 
L 1991 3584 
z
" transform="scale(0.015625)"/>
       <path id="DejaVuSans-64" d="M 2906 2969 
L 2906 4863 
L 3481 4863 
L 3481 0 
L 2906 0 
L 2906 525 
Q 2725 213 2448 61 
Q 2172 -91 1784 -91 
Q 1150 -91 751 415 
Q 353 922 353 1747 
Q 353 2572 751 3078 
Q 1150 3584 1784 3584 
Q 2172 3584 2448 3432 
Q 2725 3281 2906 2969 
z
M 947 1747 
Q 947 1113 1208 752 
Q 1469 391 1925 391 
Q 2381 391 2643 752 
Q 2906 1113 2906 1747 
Q 2906 2381 2643 2742 
Q 2381 3103 1925 3103 
Q 1469 3103 1208 2742 
Q 947 2381 947 1747 
z
" transform="scale(0.015625)"/>
       <path id="DejaVuSans-65" d="M 3597 1894 
L 3597 1613 
L 953 1613 
Q 991 1019 1311 708 
Q 1631 397 2203 397 
Q 2534 397 2845 478 
Q 3156 559 3463 722 
L 3463 178 
Q 3153 47 2828 -22 
Q 2503 -91 2169 -91 
Q 1331 -91 842 396 
Q 353 884 353 1716 
Q 353 2575 817 3079 
Q 1281 3584 2069 3584 
Q 2775 3584 3186 3129 
Q 3597 2675 3597 1894 
z
M 3022 2063 
Q 3016 2534 2758 2815 
Q 2500 3097 2075 3097 
Q 1594 3097 1305 2825 
Q 1016 2553 972 2059 
L 3022 2063 
z
" transform="scale(0.015625)"/>
       <path id="DejaVuSans-20" transform="scale(0.015625)"/>
       <path id="DejaVuSans-28" d="M 1984 4856 
Q 1566 4138 1362 3434 
Q 1159 2731 1159 2009 
Q 1159 1288 1364 580 
Q 1569 -128 1984 -844 
L 1484 -844 
Q 1016 -109 783 600 
Q 550 1309 550 2009 
Q 550 2706 781 3412 
Q 1013 4119 1484 4856 
L 1984 4856 
z
" transform="scale(0.015625)"/>
       <path id="DejaVuSans-b0" d="M 1600 4347 
Q 1350 4347 1178 4173 
Q 1006 4000 1006 3750 
Q 1006 3503 1178 3333 
Q 1350 3163 1600 3163 
Q 1850 3163 2022 3333 
Q 2194 3503 2194 3750 
Q 2194 3997 2020 4172 
Q 1847 4347 1600 4347 
z
M 1600 4750 
Q 1800 4750 1984 4673 
Q 2169 4597 2303 4453 
Q 2447 4313 2519 4134 
Q 2591 3956 2591 3750 
Q 2591 3338 2302 3052 
Q 2013 2766 1594 2766 
Q 1172 2766 890 3047 
Q 609 3328 609 3750 
Q 609 4169 896 4459 
Q 1184 4750 1600 4750 
z
" transform="scale(0.015625)"/>
       <path id="DejaVuSans-29" d="M 513 4856 
L 1013 4856 
Q 1481 4119 1714 3412 
Q 1947 2706 1947 2009 
Q 1947 1309 1714 600 
Q 1481 -109 1013 -844 
L 513 -844 
Q 928 -128 1133 580 
Q 1338 1288 1338 2009 
Q 1338 2731 1133 3434 
Q 928 4138 513 4856 
z
" transform="scale(0.015625)"/>
      </defs>
      <use xlink:href="#DejaVuSans-4c"/>
      <use xlink:href="#DejaVuSans-6f" transform="translate(53.962891 0)"/>
      <use xlink:href="#DejaVuSans-6e" transform="translate(115.144531 0)"/>
      <use xlink:href="#DejaVuSans-67" transform="translate(178.523438 0)"/>
      <use xlink:href="#DejaVuSans-69" transform="translate(242 0)"/>
      <use xlink:href="#DejaVuSans-74" transform="translate(269.783203 0)"/>
      <use xlink:href="#DejaVuSans-75" transform="translate(308.992188 0)"/>
      <use xlink:href="#DejaVuSans-64" transform="translate(372.371094 0)"/>
      <use xlink:href="#DejaVuSans-65" transform="translate(435.847656 0)"/>
      <use xlink:href="#DejaVuSans-20" transform="translate(497.371094 0)"/>
      <use xlink:href="#DejaVuSans-28" transform="translate(529.158203 0)"/>
      <use xlink:href="#DejaVuSans-b0" transform="translate(568.171875 0)"/>
      <use xlink:href="#DejaVuSans-29" transform="translate(618.171875 0)"/>
     </g>
    </g>
   </g>
   <g id="matplotlib.axis_2">
    <g id="ytick_1">
     <g id="line2d_15">
      <path d="M 90 682.438231 
L 648 682.438231 
" clip-path="url(#p85b4e19549)" style="fill: none; stroke: #b0b0b0; stroke-width: 0.8; stroke-linecap: square"/>
     </g>
     <g id="line2d_16">
      <defs>
       <path id="mef84dc0493" d="M 0 0 
L -3.5 0 
" style="stroke: #000000; stroke-width: 0.8"/>
      </defs>
      <g>
       <use xlink:href="#mef84dc0493" x="90" y="682.438231" style="stroke: #000000; stroke-width: 0.8"/>
      </g>
     </g>
     <g id="text_9">
      <!-- −2.35 -->
      <g transform="translate(52.354687 686.237449) scale(0.1 -0.1)">
       <defs>
        <path id="DejaVuSans-32" d="M 1228 531 
L 3431 531 
L 3431 0 
L 469 0 
L 469 531 
Q 828 903 1448 1529 
Q 2069 2156 2228 2338 
Q 2531 2678 2651 2914 
Q 2772 3150 2772 3378 
Q 2772 3750 2511 3984 
Q 2250 4219 1831 4219 
Q 1534 4219 1204 4116 
Q 875 4013 500 3803 
L 500 4441 
Q 881 4594 1212 4672 
Q 1544 4750 1819 4750 
Q 2544 4750 2975 4387 
Q 3406 4025 3406 3419 
Q 3406 3131 3298 2873 
Q 3191 2616 2906 2266 
Q 2828 2175 2409 1742 
Q 1991 1309 1228 531 
z
" transform="scale(0.015625)"/>
        <path id="DejaVuSans-33" d="M 2597 2516 
Q 3050 2419 3304 2112 
Q 3559 1806 3559 1356 
Q 3559 666 3084 287 
Q 2609 -91 1734 -91 
Q 1441 -91 1130 -33 
Q 819 25 488 141 
L 488 750 
Q 750 597 1062 519 
Q 1375 441 1716 441 
Q 2309 441 2620 675 
Q 2931 909 2931 1356 
Q 2931 1769 2642 2001 
Q 2353 2234 1838 2234 
L 1294 2234 
L 1294 2753 
L 1863 2753 
Q 2328 2753 2575 2939 
Q 2822 3125 2822 3475 
Q 2822 3834 2567 4026 
Q 2313 4219 1838 4219 
Q 1578 4219 1281 4162 
Q 984 4106 628 3988 
L 628 4550 
Q 988 4650 1302 4700 
Q 1616 4750 1894 4750 
Q 2613 4750 3031 4423 
Q 3450 4097 3450 3541 
Q 3450 3153 3228 2886 
Q 3006 2619 2597 2516 
z
" transform="scale(0.015625)"/>
       </defs>
       <use xlink:href="#DejaVuSans-2212"/>
       <use xlink:href="#DejaVuSans-32" transform="translate(83.789062 0)"/>
       <use xlink:href="#DejaVuSans-2e" transform="translate(147.412109 0)"/>
       <use xlink:href="#DejaVuSans-33" transform="translate(179.199219 0)"/>
       <use xlink:href="#DejaVuSans-35" transform="translate(242.822266 0)"/>
      </g>
     </g>
    </g>
    <g id="ytick_2">
     <g id="line2d_17">
      <path d="M 90 602.963987 
L 648 602.963987 
" clip-path="url(#p85b4e19549)" style="fill: none; stroke: #b0b0b0; stroke-width: 0.8; stroke-linecap: square"/>
     </g>
     <g id="line2d_18">
      <g>
       <use xlink:href="#mef84dc0493" x="90" y="602.963987" style="stroke: #000000; stroke-width: 0.8"/>
      </g>
     </g>
     <g id="text_10">
      <!-- −2.30 -->
      <g transform="translate(52.354687 606.763206) scale(0.1 -0.1)">
       <use xlink:href="#DejaVuSans-2212"/>
       <use xlink:href="#DejaVuSans-32" transform="translate(83.789062 0)"/>
       <use xlink:href="#DejaVuSans-2e" transform="translate(147.412109 0)"/>
       <use xlink:href="#DejaVuSans-33" transform="translate(179.199219 0)"/>
       <use xlink:href="#DejaVuSans-30" transform="translate(242.822266 0)"/>
      </g>
     </g>
    </g>
    <g id="ytick_3">
     <g id="line2d_19">
      <path d="M 90 523.489744 
L 648 523.489744 
" clip-path="url(#p85b4e19549)" style="fill: none; stroke: #b0b0b0; stroke-width: 0.8; stroke-linecap: square"/>
     </g>
     <g id="line2d_20">
      <g>
       <use xlink:href="#mef84dc0493" x="90" y="523.489744" style="stroke: #000000; stroke-width: 0.8"/>
      </g>
     </g>
     <g id="text_11">
      <!-- −2.25 -->
      <g transform="translate(52.354687 527.288963) scale(0.1 -0.1)">
       <use xlink:href="#DejaVuSans-2212"/>
       <use xlink:href="#DejaVuSans-32" transform="translate(83.789062 0)"/>
       <use xlink:href="#DejaVuSans-2e" transform="translate(147.412109 0)"/>
       <use xlink:href="#DejaVuSans-32" transform="translate(179.199219 0)"/>
       <use xlink:href="#DejaVuSans-35" transform="translate(242.822266 0)"/>
      </g>
     </g>
    </g>
    <g id="ytick_4">
     <g id="line2d_21">
      <path d="M 90 444.015501 
L 648 444.015501 
" clip-path="url(#p85b4e19549)" style="fill: none; stroke: #b0b0b0; stroke-width: 0.8; stroke-linecap: square"/>
     </g>
     <g id="line2d_22">
      <g>
       <use xlink:href="#mef84dc0493" x="90" y="444.015501" style="stroke: #000000; stroke-width: 0.8"/>
      </g>
     </g>
     <g id="text_12">
      <!-- −2.20 -->
      <g transform="translate(52.354687 447.814719) scale(0.1 -0.1)">
       <use xlink:href="#DejaVuSans-2212"/>
       <use xlink:href="#DejaVuSans-32" transform="translate(83.789062 0)"/>
       <use xlink:href="#DejaVuSans-2e" transform="translate(147.412109 0)"/>
       <use xlink:href="#DejaVuSans-32" transform="translate(179.199219 0)"/>
       <use xlink:href="#DejaVuSans-30" transform="translate(242.822266 0)"/>
      </g>
     </g>
    </g>
    <g id="ytick_5">
     <g id="line2d_23">
      <path d="M 90 364.541257 
L 648 364.541257 
" clip-path="url(#p85b4e19549)" style="fill: none; stroke: #b0b0b0; stroke-width: 0.8; stroke-linecap: square"/>
     </g>
     <g id="line2d_24">
      <g>
       <use xlink:href="#mef84dc0493" x="90" y="364.541257" style="stroke: #000000; stroke-width: 0.8"/>
      </g>
     </g>
     <g id="text_13">
      <!-- −2.15 -->
      <g transform="translate(52.354687 368.340476) scale(0.1 -0.1)">
       <defs>
        <path id="DejaVuSans-31" d="M 794 531 
L 1825 531 
L 1825 4091 
L 703 3866 
L 703 4441 
L 1819 4666 
L 2450 4666 
L 2450 531 
L 3481 531 
L 3481 0 
L 794 0 
L 794 531 
z
" transform="scale(0.015625)"/>
       </defs>
       <use xlink:href="#DejaVuSans-2212"/>
       <use xlink:href="#DejaVuSans-32" transform="translate(83.789062 0)"/>
       <use xlink:href="#DejaVuSans-2e" transform="translate(147.412109 0)"/>
       <use xlink:href="#DejaVuSans-31" transform="translate(179.199219 0)"/>
       <use xlink:href="#DejaVuSans-35" transform="translate(242.822266 0)"/>
      </g>
     </g>
    </g>
    <g id="ytick_6">
     <g id="line2d_25">
      <path d="M 90 285.067014 
L 648 285.067014 
" clip-path="url(#p85b4e19549)" style="fill: none; stroke: #b0b0b0; stroke-width: 0.8; stroke-linecap: square"/>
     </g>
     <g id="line2d_26">
      <g>
       <use xlink:href="#mef84dc0493" x="90" y="285.067014" style="stroke: #000000; stroke-width: 0.8"/>
      </g>
     </g>
     <g id="text_14">
      <!-- −2.10 -->
      <g transform="translate(52.354687 288.866233) scale(0.1 -0.1)">
       <use xlink:href="#DejaVuSans-2212"/>
       <use xlink:href="#DejaVuSans-32" transform="translate(83.789062 0)"/>
       <use xlink:href="#DejaVuSans-2e" transform="translate(147.412109 0)"/>
       <use xlink:href="#DejaVuSans-31" transform="translate(179.199219 0)"/>
       <use xlink:href="#DejaVuSans-30" transform="translate(242.822266 0)"/>
      </g>
     </g>
    </g>
    <g id="ytick_7">
     <g id="line2d_27">
      <path d="M 90 205.59277 
L 648 205.59277 
" clip-path="url(#p85b4e19549)" style="fill: none; stroke: #b0b0b0; stroke-width: 0.8; stroke-linecap: square"/>
     </g>
     <g id="line2d_28">
      <g>
       <use xlink:href="#mef84dc0493" x="90" y="205.59277" style="stroke: #000000; stroke-width: 0.8"/>
      </g>
     </g>
     <g id="text_15">
      <!-- −2.05 -->
      <g transform="translate(52.354687 209.391989) scale(0.1 -0.1)">
       <use xlink:href="#DejaVuSans-2212"/>
       <use xlink:href="#DejaVuSans-32" transform="translate(83.789062 0)"/>
       <use xlink:href="#DejaVuSans-2e" transform="translate(147.412109 0)"/>
       <use xlink:href="#DejaVuSans-30" transform="translate(179.199219 0)"/>
       <use xlink:href="#DejaVuSans-35" transform="translate(242.822266 0)"/>
      </g>
     </g>
    </g>
    <g id="text_16">
     <!-- Latitude (°) -->
     <g transform="translate(46.275 464.889531) rotate(-90) scale(0.1 -0.1)">
      <defs>
       <path id="DejaVuSans-61" d="M 2194 1759 
Q 1497 1759 1228 1600 
Q 959 1441 959 1056 
Q 959 750 1161 570 
Q 1363 391 1709 391 
Q 2188 391 2477 730 
Q 2766 1069 2766 1631 
L 2766 1759 
L 2194 1759 
z
M 3341 1997 
L 3341 0 
L 2766 0 
L 2766 531 
Q 2569 213 2275 61 
Q 1981 -91 1556 -91 
Q 1019 -91 701 211 
Q 384 513 384 1019 
Q 384 1609 779 1909 
Q 1175 2209 1959 2209 
L 2766 2209 
L 2766 2266 
Q 2766 2663 2505 2880 
Q 2244 3097 1772 3097 
Q 1472 3097 1187 3025 
Q 903 2953 641 2809 
L 641 3341 
Q 956 3463 1253 3523 
Q 1550 3584 1831 3584 
Q 2591 3584 2966 3190 
Q 3341 2797 3341 1997 
z
" transform="scale(0.015625)"/>
      </defs>
      <use xlink:href="#DejaVuSans-4c"/>
      <use xlink:href="#DejaVuSans-61" transform="translate(55.712891 0)"/>
      <use xlink:href="#DejaVuSans-74" transform="translate(116.992188 0)"/>
      <use xlink:href="#DejaVuSans-69" transform="translate(156.201172 0)"/>
      <use xlink:href="#DejaVuSans-74" transform="translate(183.984375 0)"/>
      <use xlink:href="#DejaVuSans-75" transform="translate(223.193359 0)"/>
      <use xlink:href="#DejaVuSans-64" transform="translate(286.572266 0)"/>
      <use xlink:href="#DejaVuSans-65" transform="translate(350.048828 0)"/>
      <use xlink:href="#DejaVuSans-20" transform="translate(411.572266 0)"/>
      <use xlink:href="#DejaVuSans-28" transform="translate(443.359375 0)"/>
      <use xlink:href="#DejaVuSans-b0" transform="translate(482.373047 0)"/>
      <use xlink:href="#DejaVuSans-29" transform="translate(532.373047 0)"/>
     </g>
    </g>
   </g>
   <g id="patch_3">
    <path d="M 90 729.893157 
L 90 142.746843 
" style="fill: none; stroke: #000000; stroke-width: 0.8; stroke-linejoin: miter; stroke-linecap: square"/>
   </g>
   <g id="patch_4">
    <path d="M 648 729.893157 
L 648 142.746843 
" style="fill: none; stroke: #000000; stroke-width: 0.8; stroke-linejoin: miter; stroke-linecap: square"/>
   </g>
   <g id="patch_5">
    <path d="M 90 729.893157 
L 648 729.893157 
" style="fill: none; stroke: #000000; stroke-width: 0.8; stroke-linejoin: miter; stroke-linecap: square"/>
   </g>
   <g id="patch_6">
    <path d="M 90 142.746843 
L 648 142.746843 
" style="fill: none; stroke: #000000; stroke-width: 0.8; stroke-linejoin: miter; stroke-linecap: square"/>
   </g>
   <g id="legend_1">
    <g id="patch_7">
     <path d="M 330.340625 870.000544 
L 407.659375 870.000544 
Q 409.659375 870.000544 409.659375 868.000544 
L 409.659375 854.322419 
Q 409.659375 852.322419 407.659375 852.322419 
L 330.340625 852.322419 
Q 328.340625 852.322419 328.340625 854.322419 
L 328.340625 868.000544 
Q 328.340625 870.000544 330.340625 870.000544 
z
" style="fill: #ffffff; opacity: 0.8; stroke: #cccccc; stroke-linejoin: miter"/>
    </g>
    <g id="line2d_29">
     <defs>
      <path id="m813e13c1ba" d="M 0 5 
C 1.326016 5 2.597899 4.473168 3.535534 3.535534 
C 4.473168 2.597899 5 1.326016 5 0 
C 5 -1.326016 4.473168 -2.597899 3.535534 -3.535534 
C 2.597899 -4.473168 1.326016 -5 0 -5 
C -1.326016 -5 -2.597899 -4.473168 -3.535534 -3.535534 
C -4.473168 -2.597899 -5 -1.326016 -5 0 
C -5 1.326016 -4.473168 2.597899 -3.535534 3.535534 
C -2.597899 4.473168 -1.326016 5 0 5 
z
"/>
     </defs>
     <g>
      <use xlink:href="#m813e13c1ba" x="342.340625" y="860.420857" style="fill: #b3e2cd; fill-opacity: 0.65"/>
     </g>
    </g>
    <g id="text_17">
     <!-- Maracaxi -->
     <g transform="translate(360.340625 863.920857) scale(0.1 -0.1)">
      <defs>
       <path id="DejaVuSans-4d" d="M 628 4666 
L 1569 4666 
L 2759 1491 
L 3956 4666 
L 4897 4666 
L 4897 0 
L 4281 0 
L 4281 4097 
L 3078 897 
L 2444 897 
L 1241 4097 
L 1241 0 
L 628 0 
L 628 4666 
z
" transform="scale(0.015625)"/>
       <path id="DejaVuSans-72" d="M 2631 2963 
Q 2534 3019 2420 3045 
Q 2306 3072 2169 3072 
Q 1681 3072 1420 2755 
Q 1159 2438 1159 1844 
L 1159 0 
L 581 0 
L 581 3500 
L 1159 3500 
L 1159 2956 
Q 1341 3275 1631 3429 
Q 1922 3584 2338 3584 
Q 2397 3584 2469 3576 
Q 2541 3569 2628 3553 
L 2631 2963 
z
" transform="scale(0.015625)"/>
       <path id="DejaVuSans-63" d="M 3122 3366 
L 3122 2828 
Q 2878 2963 2633 3030 
Q 2388 3097 2138 3097 
Q 1578 3097 1268 2742 
Q 959 2388 959 1747 
Q 959 1106 1268 751 
Q 1578 397 2138 397 
Q 2388 397 2633 464 
Q 2878 531 3122 666 
L 3122 134 
Q 2881 22 2623 -34 
Q 2366 -91 2075 -91 
Q 1284 -91 818 406 
Q 353 903 353 1747 
Q 353 2603 823 3093 
Q 1294 3584 2113 3584 
Q 2378 3584 2631 3529 
Q 2884 3475 3122 3366 
z
" transform="scale(0.015625)"/>
       <path id="DejaVuSans-78" d="M 3513 3500 
L 2247 1797 
L 3578 0 
L 2900 0 
L 1881 1375 
L 863 0 
L 184 0 
L 1544 1831 
L 300 3500 
L 978 3500 
L 1906 2253 
L 2834 3500 
L 3513 3500 
z
" transform="scale(0.015625)"/>
      </defs>
      <use xlink:href="#DejaVuSans-4d"/>
      <use xlink:href="#DejaVuSans-61" transform="translate(86.279297 0)"/>
      <use xlink:href="#DejaVuSans-72" transform="translate(147.558594 0)"/>
      <use xlink:href="#DejaVuSans-61" transform="translate(188.671875 0)"/>
      <use xlink:href="#DejaVuSans-63" transform="translate(249.951172 0)"/>
      <use xlink:href="#DejaVuSans-61" transform="translate(304.931641 0)"/>
      <use xlink:href="#DejaVuSans-78" transform="translate(366.210938 0)"/>
      <use xlink:href="#DejaVuSans-69" transform="translate(425.390625 0)"/>
     </g>
    </g>
   </g>
  </g>
 </g>
 <defs>
  <clipPath id="p85b4e19549">
   <rect x="90" y="142.746843" width="558" height="587.146313"/>
  </clipPath>
 </defs>
</svg>
