<?xml version="1.0" encoding="utf-8" standalone="no"?>
<!DOCTYPE svg PUBLIC "-//W3C//DTD SVG 1.1//EN"
  "http://www.w3.org/Graphics/SVG/1.1/DTD/svg11.dtd">
<svg xmlns:xlink="http://www.w3.org/1999/xlink" width="720pt" height="864pt" viewBox="0 0 720 864" xmlns="http://www.w3.org/2000/svg" version="1.1">
 <metadata>
  <rdf:RDF xmlns:dc="http://purl.org/dc/elements/1.1/" xmlns:cc="http://creativecommons.org/ns#" xmlns:rdf="http://www.w3.org/1999/02/22-rdf-syntax-ns#">
   <cc:Work>
    <dc:type rdf:resource="http://purl.org/dc/dcmitype/StillImage"/>
    <dc:date>2025-06-16T16:51:39.487411</dc:date>
    <dc:format>image/svg+xml</dc:format>
    <dc:creator>
     <cc:Agent>
      <dc:title>Matplotlib v3.10.1, https://matplotlib.org/</dc:title>
     </cc:Agent>
    </dc:creator>
   </cc:Work>
  </rdf:RDF>
 </metadata>
 <defs>
  <style type="text/css">*{stroke-linejoin: round; stroke-linecap: butt}</style>
 </defs>
 <g id="figure_1">
  <g id="patch_1">
   <path d="M 0 864 
L 720 864 
L 720 0 
L 0 0 
z
" style="fill: #ffffff"/>
  </g>
  <g id="axes_1">
   <g id="patch_2">
    <path d="M 181.898925 768.96 
L 556.101075 768.96 
L 556.101075 103.68 
L 181.898925 103.68 
z
" style="fill: #ffffff"/>
   </g>
   <g id="PatchCollection_1">
    <path d="M 315.92109 238.124867 
L 315.647506 238.288803 
L 315.3925 238.436971 
L 314.920571 238.604759 
L 314.550941 238.90087 
L 314.245039 239.145484 
L 313.773414 239.506002 
L 313.187013 239.918098 
L 312.460899 240.754424 
L 312.16784 241.050413 
L 311.989558 241.294823 
L 311.811296 241.552082 
L 311.671157 241.70649 
L 311.556665 241.93795 
L 311.378261 242.105268 
L 311.250803 242.208262 
L 311.161794 242.413983 
L 311.098167 242.529723 
L 311.021838 242.68403 
L 310.843414 242.8385 
L 310.703438 243.095698 
L 310.550659 243.327219 
L 310.334253 243.67448 
L 310.181495 243.91885 
L 310.028859 244.240311 
L 309.774329 244.690423 
L 309.685421 244.960388 
L 309.54508 244.98631 
L 309.519739 245.101989 
L 309.430567 245.204922 
L 309.35432 245.410623 
L 309.32908 245.590545 
L 309.201785 245.796328 
L 309.1257 246.104819 
L 309.011411 246.464765 
L 308.884075 246.644851 
L 308.769501 246.824916 
L 308.642552 247.249127 
L 308.438806 247.532125 
L 308.298851 247.802172 
L 308.171759 248.136442 
L 308.069805 248.226546 
L 307.968034 248.432289 
L 307.802452 248.638133 
L 307.700966 249.023757 
L 307.573975 249.422271 
L 307.459402 249.602336 
L 307.294166 250.026608 
L 307.026529 250.258314 
L 306.325877 251.056058 
L 306.019851 251.223583 
L 305.905481 251.532135 
L 305.855104 251.956224 
L 305.791843 252.30324 
L 305.651908 252.586137 
L 305.614232 252.971659 
L 305.551602 253.716985 
L 305.578082 254.320832 
L 305.629701 254.680513 
L 305.668496 255.001668 
L 305.694509 255.309996 
L 305.759011 255.746748 
L 305.837071 256.684579 
L 305.825653 257.532612 
L 305.826896 258.316382 
L 305.814827 258.753257 
L 305.764635 259.292984 
L 305.740028 259.871216 
L 305.638788 260.411025 
L 305.588453 260.860811 
L 305.589086 261.25912 
L 305.564765 262.017233 
L 305.50173 262.505586 
L 305.489417 262.788277 
L 305.438715 263.006787 
L 305.375272 263.238166 
L 305.260964 263.585265 
L 305.172241 263.97087 
L 305.045335 264.420779 
L 304.995103 264.934809 
L 304.91947 265.525972 
L 304.741413 265.91172 
L 304.538015 266.413148 
L 304.410823 266.683176 
L 304.232664 267.004681 
L 304.003476 267.339117 
L 303.812269 267.480761 
L 303.646627 267.648062 
L 303.531951 267.763885 
L 303.277097 268.008422 
L 303.213572 268.188406 
L 303.06057 268.278594 
L 302.984242 268.432902 
L 302.818457 268.510262 
L 302.678318 268.664672 
L 302.640195 268.767524 
L 302.487335 268.947652 
L 302.347115 269.050668 
L 302.181453 269.20512 
L 302.041253 269.320985 
L 301.913876 269.475375 
L 301.786521 269.642614 
L 301.684546 269.71987 
L 301.442515 270.002933 
L 301.30256 270.272982 
L 301.239219 270.568605 
L 301.15017 270.748631 
L 300.946364 270.993086 
L 300.819151 271.250266 
L 300.768532 271.520171 
L 300.654122 271.803028 
L 300.552515 272.111562 
L 300.386893 272.291711 
L 300.36188 272.61297 
L 300.26011 272.818715 
L 300.260314 272.947202 
L 300.132959 273.114441 
L 300.069516 273.345821 
L 299.751648 274.091561 
L 299.573775 274.592949 
L 299.306301 274.927449 
L 298.936606 275.18502 
L 298.452134 275.494173 
L 298.27375 275.674343 
L 297.852904 275.867754 
L 297.470283 276.022557 
L 297.13865 276.138731 
L 296.845303 276.254843 
L 296.526535 276.43524 
L 295.978414 276.847286 
L 295.685476 277.220373 
L 295.201023 277.542374 
L 295.048286 277.799596 
L 294.781343 278.468164 
L 294.412118 279.021258 
L 294.246905 279.458383 
L 293.966709 279.818601 
L 293.878028 280.229906 
L 293.674365 280.564303 
L 293.534492 280.885749 
L 293.24224 281.68927 
L 292.886536 282.717748 
L 292.55611 283.592 
L 292.250676 284.132143 
L 292.073275 284.929056 
L 291.921849 286.008599 
L 291.719129 286.934041 
L 291.388704 287.808294 
L 291.160296 288.630987 
L 290.956633 288.965385 
L 290.651323 289.582622 
L 290.473348 290.01977 
L 290.167874 290.534216 
L 289.785949 291.12588 
L 289.454991 291.666066 
L 289.174959 292.129077 
L 288.81823 292.515119 
L 288.563764 293.003786 
L 288.207076 293.415526 
L 287.748494 293.95592 
L 287.647094 294.392944 
L 287.417659 294.573199 
L 287.239603 294.958953 
L 286.98489 295.293435 
L 286.755784 295.679271 
L 286.27176 296.271102 
L 285.711408 297.017242 
L 285.125244 297.583541 
L 284.386013 298.201484 
L 283.621175 298.768073 
L 282.652221 299.386389 
L 281.606692 300.004829 
L 280.586481 300.494739 
L 279.847084 301.009893 
L 279.133087 301.447912 
L 278.291508 301.911836 
L 277.832513 302.195256 
L 276.990933 302.65918 
L 276.353222 302.917191 
L 275.536714 303.098399 
L 274.898592 303.099434 
L 274.515842 303.177147 
L 274.209625 303.229039 
L 273.750383 303.358273 
L 273.367509 303.358893 
L 273.01016 303.359472 
L 272.015222 303.695156 
L 271.020284 304.03084 
L 269.693767 304.521248 
L 268.851648 304.651102 
L 268.315706 304.703365 
L 267.754362 304.832764 
L 267.243944 304.884986 
L 266.605983 304.988811 
L 265.942415 305.041281 
L 264.845004 305.145849 
L 264.105147 305.378328 
L 263.646025 305.584655 
L 263.340012 305.765036 
L 263.008514 305.971156 
L 262.447373 306.229044 
L 261.912209 306.769568 
L 261.580875 307.07848 
L 261.300756 307.490101 
L 260.842125 308.004803 
L 260.434545 308.519422 
L 259.772082 309.265737 
L 259.313492 309.806137 
L 258.752473 310.14112 
L 257.936408 310.605006 
L 257.502891 310.862688 
L 255.99744 311.1992 
L 255.410689 311.405734 
L 254.874742 311.457998 
L 253.954033 311.867259 
L 253.944045 311.876817 
L 253.944045 311.876817 
L 248.956273 305.437021 
L 248.956273 305.437021 
L 248.956273 305.437021 
L 214.327548 279.598235 
L 214.285456 279.500192 
L 210.218382 270.026862 
L 213.339923 269.971758 
L 213.412074 269.970485 
L 212.3492 261.383321 
L 212.348933 261.381161 
L 212.345332 261.352065 
L 226.545548 260.183642 
L 226.777065 259.516089 
L 238.061414 226.979486 
L 238.067486 226.96198 
L 238.067486 226.961979 
L 238.067486 226.961979 
L 238.204753 226.937515 
L 262.29362 222.64423 
L 262.293895 222.644491 
L 262.788501 223.114861 
L 263.158906 223.307011 
L 263.478161 223.434997 
L 263.708022 223.524577 
L 263.899635 223.639915 
L 264.116793 223.768062 
L 264.321049 223.806286 
L 264.474296 223.870289 
L 264.691354 223.934191 
L 264.959621 224.100804 
L 265.291679 224.254467 
L 265.649241 224.39524 
L 265.853557 224.472011 
L 266.083457 224.587289 
L 266.351684 224.728203 
L 266.722129 224.94605 
L 266.837049 224.984416 
L 266.977493 225.02274 
L 267.117978 225.086763 
L 267.232898 225.125128 
L 267.398887 225.176262 
L 267.641409 225.201576 
L 267.833022 225.316914 
L 268.139756 225.599106 
L 268.267579 225.727393 
L 268.267579 225.727393 
L 268.433548 225.765677 
L 268.803592 225.726545 
L 269.173695 225.72596 
L 269.620413 225.750951 
L 270.526468 225.710971 
L 271.17744 225.774186 
L 271.853776 225.734569 
L 272.479023 225.669335 
L 272.81094 225.733054 
L 273.206567 225.732428 
L 273.21933 225.732408 
L 273.346951 225.732206 
L 273.538364 225.719054 
L 273.69151 225.718812 
L 274.036149 225.756813 
L 274.380788 225.794814 
L 274.725366 225.794268 
L 275.376337 225.857482 
L 276.129425 225.933383 
L 276.601625 225.932635 
L 277.214349 226.021607 
L 277.699411 226.085083 
L 277.98042 226.238825 
L 278.388929 226.315271 
L 278.618728 226.366302 
L 278.874152 226.481537 
L 279.078346 226.481214 
L 279.244254 226.480951 
L 279.423024 226.544912 
L 279.627339 226.621681 
L 279.767803 226.672854 
L 280.189034 226.723582 
L 280.687018 226.889828 
L 280.865889 227.018033 
L 281.121353 227.158965 
L 281.733996 227.196541 
L 282.219037 227.247167 
L 282.512707 227.336643 
L 282.793594 227.413291 
L 283.317002 227.515251 
L 283.508574 227.604889 
L 283.904281 227.655657 
L 284.134119 227.732385 
L 284.300027 227.732122 
L 284.402084 227.706262 
L 284.772285 227.769919 
L 284.925451 227.782525 
L 285.091358 227.782261 
L 285.116903 227.79507 
L 285.359564 227.910324 
L 285.57652 227.90998 
L 285.844584 227.948101 
L 286.278597 228.011656 
L 286.584867 227.998321 
L 286.814645 228.036503 
L 287.223294 228.202889 
L 287.721036 228.214947 
L 288.027367 228.240158 
L 288.47404 228.239449 
L 288.640007 228.277732 
L 289.02283 228.251426 
L 289.405753 228.289364 
L 289.903474 228.288573 
L 290.286337 228.287965 
L 290.79688 228.3257 
L 291.064964 228.37667 
L 291.307363 228.324889 
L 291.524318 228.324544 
L 291.754056 228.337028 
L 292.341111 228.336095 
L 292.685707 228.348396 
L 293.004678 228.296494 
L 293.285443 228.296048 
L 293.591753 228.30841 
L 293.834131 228.24378 
L 294.153062 228.16618 
L 294.33167 228.12735 
L 294.484775 228.101409 
L 294.803705 228.023809 
L 295.135518 228.023282 
L 295.288542 227.945946 
L 295.467211 227.945662 
L 295.671383 227.932488 
L 295.888217 227.855051 
L 296.169002 227.867453 
L 296.436945 227.828481 
L 296.730472 227.828014 
L 297.024019 227.840396 
L 297.355892 227.878414 
L 297.573048 228.006556 
L 297.917643 228.018857 
L 298.300545 228.043945 
L 298.683405 228.043336 
L 298.887497 227.978768 
L 299.768077 227.977367 
L 300.520854 227.86053 
L 300.967505 227.84697 
L 301.261031 227.846503 
L 301.75879 227.871408 
L 302.205399 227.832151 
L 302.447857 227.818916 
L 302.920092 227.843862 
L 303.392306 227.855959 
L 303.660308 227.855532 
L 303.749642 227.85539 
L 304.004962 227.906378 
L 304.29865 228.0087 
L 304.566692 228.033971 
L 305.230578 228.199947 
L 305.587954 228.225075 
L 305.792206 228.263296 
L 306.13678 228.262747 
L 306.494196 228.313572 
L 306.787802 228.364499 
L 307.03026 228.351264 
L 307.451465 228.389139 
L 307.60473 228.465987 
L 307.923881 228.529722 
L 308.153697 228.593599 
L 308.306982 228.683295 
L 308.472928 228.708728 
L 308.638955 228.785556 
L 308.843207 228.823776 
L 309.060342 228.939068 
L 309.200805 228.990239 
L 309.366852 229.079915 
L 309.596729 229.182338 
L 309.762796 229.284863 
L 310.005455 229.400114 
L 310.299324 229.618073 
L 310.618798 229.887386 
L 310.98934 230.169466 
L 311.423772 230.502838 
L 311.781754 230.913425 
L 312.203526 231.31106 
L 312.625237 231.67015 
L 312.919147 231.913805 
L 313.187472 232.118955 
L 313.4813 232.311216 
L 313.724061 232.49071 
L 314.056378 232.811395 
L 314.248171 233.042365 
L 314.503937 233.376021 
L 314.644663 233.594224 
L 314.785409 233.825275 
L 314.824039 234.04364 
L 314.952023 234.274711 
L 315.143959 234.595621 
L 315.284685 234.813823 
L 315.463819 235.109056 
L 315.732448 235.506934 
L 316.154485 236.0716 
L 316.320958 236.431096 
L 316.678779 236.73889 
L 316.870614 236.995556 
L 317.049626 237.213697 
L 317.228598 237.40614 
L 317.228598 237.40614 
L 317.139528 237.573315 
L 316.693103 237.728213 
L 316.195752 237.960285 
L 315.92109 238.124867 
" clip-path="url(#p9a5f8840ef)" style="fill: #cccccc; fill-opacity: 0.65"/>
    <path d="M 476.34184 261.358016 
L 474.680107 261.826181 
L 463.004582 261.884908 
L 411.050079 265.866688 
L 384.579563 267.895241 
L 339.293992 271.365455 
L 342.175696 273.380192 
L 343.251813 273.924318 
L 343.564879 274.082616 
L 344.158591 275.383916 
L 346.936318 277.088925 
L 348.225967 277.891245 
L 349.71468 278.393895 
L 350.60589 279.995836 
L 351.350011 280.397156 
L 352.094132 280.798476 
L 353.084394 282.500631 
L 353.136267 282.830615 
L 353.477622 285.002089 
L 353.376514 286.202229 
L 352.680098 287.001371 
L 352.479133 288.501682 
L 351.931701 289.301061 
L 351.384269 290.100441 
L 351.382526 291.200856 
L 351.379989 292.801367 
L 350.68652 293.614154 
L 350.021856 294.154268 
L 414.213323 291.385844 
L 424.008831 290.963314 
L 424.389934 290.946875 
L 443.321454 290.217928 
L 442.435229 315.581467 
L 430.386955 319.333399 
L 381.858287 334.446064 
L 370.189242 338.080109 
L 363.097828 340.221298 
L 362.333956 340.724926 
L 360.046231 338.210799 
L 359.352278 337.509377 
L 358.360425 336.707505 
L 357.568779 335.005644 
L 355.984676 332.00214 
L 354.598855 329.298951 
L 354.005 328.097514 
L 354.007242 326.697108 
L 354.008842 325.696745 
L 353.116853 324.59505 
L 352.522037 323.993764 
L 351.133324 322.991319 
L 350.440728 321.38951 
L 349.64876 319.887767 
L 348.756613 318.885958 
L 347.665395 318.183987 
L 347.269332 317.483143 
L 347.072978 316.08242 
L 346.679151 313.981004 
L 346.184505 312.779906 
L 345.59017 311.878636 
L 345.591287 311.178265 
L 345.691934 310.27829 
L 346.28979 309.078788 
L 346.390914 307.878482 
L 346.492207 306.678348 
L 346.394691 305.507481 
L 346.048628 304.450804 
L 326.977949 309.441157 
L 316.757044 312.11576 
L 304.996528 315.193274 
L 279.521905 301.417238 
L 279.661254 301.368001 
L 279.800603 301.318765 
L 280.216368 301.165219 
L 280.630668 301.003453 
L 280.908415 300.885033 
L 281.16607 300.76264 
L 281.404507 300.638131 
L 281.841166 300.379945 
L 282.209306 300.128475 
L 282.518407 299.889635 
L 282.777325 299.666762 
L 282.993985 299.461457 
L 283.17528 299.274166 
L 283.472154 298.929806 
L 283.676217 298.658177 
L 283.817931 298.447224 
L 284.010974 298.119598 
L 284.178945 297.779067 
L 284.488938 297.06317 
L 284.994779 295.804628 
L 285.697377 293.906727 
L 286.381478 292.002304 
L 286.448553 291.810672 
L 286.665126 291.13373 
L 286.778103 290.796402 
L 286.839513 290.629195 
L 286.905631 290.463405 
L 286.913375 290.446707 
L 286.921911 290.43148 
L 286.941142 290.404437 
L 286.962105 290.381744 
L 286.984043 290.362519 
L 287.006376 290.346059 
L 287.028667 290.331808 
L 287.073351 290.307533 
L 287.114756 290.288143 
L 287.189903 290.255919 
L 287.246336 290.231049 
L 287.287484 290.210808 
L 287.31717 290.19423 
L 287.338557 290.180798 
L 287.368903 290.158727 
L 287.396759 290.13395 
L 287.84716 289.670242 
L 288.225728 289.253019 
L 288.544798 288.879414 
L 288.81447 288.546146 
L 289.264545 287.949064 
L 289.583429 287.490048 
L 289.811853 287.139695 
L 290.136874 286.604689 
L 290.440315 286.058707 
L 290.473872 285.988024 
L 290.500139 285.917741 
L 290.520109 285.848071 
L 290.544829 285.709061 
L 290.55322 285.574502 
L 290.550068 285.445222 
L 290.539056 285.321758 
L 290.502611 285.085922 
L 290.41484 284.667256 
L 290.355415 284.356213 
L 290.339659 284.241757 
L 290.330231 284.143018 
L 290.325947 283.974117 
L 290.335047 283.851325 
L 290.349983 283.76177 
L 290.387192 283.632052 
L 290.413137 283.569471 
L 290.444392 283.508534 
L 290.508042 283.405783 
L 290.576585 283.311775 
L 290.726999 283.143771 
L 290.886733 283.001262 
L 291.050536 282.878879 
L 291.214472 282.772389 
L 291.542554 282.589045 
L 292.150548 282.294022 
L 292.602651 282.068077 
L 292.921515 281.881277 
L 293.14169 281.725216 
L 293.29294 281.596575 
L 293.397217 281.492467 
L 293.536881 281.322392 
L 293.653904 281.133549 
L 293.89697 280.662351 
L 294.303777 279.825096 
L 294.59143 279.187105 
L 294.79626 278.703253 
L 295.084329 277.969302 
L 295.347338 277.226094 
L 295.426312 276.974992 
L 295.553755 276.497952 
L 295.648762 276.07567 
L 295.943924 274.588778 
L 296.028071 274.22112 
L 296.098676 273.947974 
L 296.220466 273.54366 
L 296.366121 273.147372 
L 296.422771 273.025085 
L 296.485197 272.915815 
L 296.550864 272.817498 
L 296.617843 272.728454 
L 296.75479 272.568065 
L 296.883385 272.432804 
L 297.117353 272.201316 
L 297.290901 272.026661 
L 297.41472 271.892063 
L 297.501798 271.787809 
L 297.562917 271.707222 
L 297.646459 271.581682 
L 297.718481 271.449542 
L 298.565863 269.070719 
L 298.637929 268.927722 
L 298.788578 268.66639 
L 298.932948 268.44315 
L 299.469338 267.673992 
L 299.596831 267.478252 
L 299.687238 267.328966 
L 299.811674 267.099783 
L 299.867796 266.982344 
L 299.919198 266.86271 
L 299.990104 266.67034 
L 300.046418 266.486605 
L 300.091464 266.311771 
L 300.159516 265.978485 
L 300.206154 265.682561 
L 300.344636 264.638637 
L 300.389472 264.381086 
L 300.42977 264.190155 
L 300.504141 263.908416 
L 300.599236 263.633606 
L 300.794888 263.169158 
L 300.980348 262.767902 
L 301.670672 261.377294 
L 301.83854 261.027445 
L 302.075116 260.496621 
L 302.183923 260.227496 
L 302.28479 259.955285 
L 302.726261 258.686877 
L 302.936216 258.048847 
L 303.132424 257.40645 
L 303.811099 255.027343 
L 304.291797 253.40853 
L 304.786194 251.79357 
L 305.209256 250.507566 
L 305.547688 249.550621 
L 306.603748 246.692145 
L 307.164153 245.203283 
L 307.608473 244.097475 
L 307.960376 243.275921 
L 308.236974 242.664864 
L 308.675493 241.757569 
L 309.146437 240.862772 
L 309.27515 240.652175 
L 309.342899 240.559445 
L 309.410648 240.466715 
L 309.549061 240.302034 
L 309.687465 240.15462 
L 309.965153 239.892874 
L 310.222228 239.675194 
L 310.686771 239.305981 
L 311.032606 239.026869 
L 311.28223 238.809574 
L 311.460461 238.63929 
L 311.587601 238.506268 
L 311.765595 238.296407 
L 314.593486 233.823012 
L 315.382226 233.201883 
L 316.214643 232.569994 
L 317.422102 232.13441 
L 318.314834 232.037781 
L 318.551188 232.04199 
L 318.901757 232.068173 
L 319.245301 232.116687 
L 319.511361 232.168614 
L 319.743527 232.222786 
L 319.946197 232.276582 
L 320.299828 232.384347 
L 320.564208 232.475904 
L 321.817831 233.037126 
L 321.881612 233.073456 
L 322.047778 233.175582 
L 322.140952 233.236863 
L 322.246052 233.3097 
L 322.364588 233.39683 
L 322.431825 233.45304 
L 322.493576 233.514741 
L 322.532038 233.558569 
L 322.580357 233.619936 
L 322.640289 233.706157 
L 322.714046 233.827016 
L 322.805794 233.994105 
L 322.926706 234.216674 
L 323.000378 234.338196 
L 323.042307 234.399989 
L 323.08968 234.462933 
L 323.143804 234.526089 
L 323.206326 234.588188 
L 323.220828 234.600342 
L 323.23622 234.61142 
L 323.269408 234.63066 
L 323.293106 234.641577 
L 323.326352 234.654121 
L 323.373022 234.667969 
L 323.56977 234.710335 
L 323.623698 234.724843 
L 323.651152 234.734078 
L 323.679148 234.745417 
L 323.70728 234.759518 
L 323.734998 234.777224 
L 323.76157 234.799605 
L 323.773938 234.81273 
L 323.785661 234.827501 
L 323.796584 234.844129 
L 324.048863 235.269538 
L 324.553761 236.120527 
L 324.630105 236.24172 
L 324.712425 236.359488 
L 324.770088 236.436259 
L 324.849798 236.536649 
L 324.959883 236.667363 
L 325.110541 236.836941 
L 325.31147 237.056749 
L 325.342422 237.08649 
L 325.376473 237.111707 
L 325.400755 237.126201 
L 325.434934 237.142877 
L 325.483393 237.160847 
L 325.552386 237.178287 
L 325.593673 237.185451 
L 325.642185 237.19161 
L 326.044489 237.214778 
L 326.095004 237.221454 
L 326.146753 237.23137 
L 326.199019 237.245838 
L 326.250821 237.266561 
L 326.275748 237.279696 
L 326.300057 237.295178 
L 326.32353 237.31336 
L 326.32899 237.319118 
L 326.332745 237.325488 
L 326.334362 237.330052 
L 326.335486 237.336509 
L 326.335289 237.345725 
L 326.334378 237.351277 
L 326.332686 237.357857 
L 326.329972 237.365655 
L 326.325955 237.374896 
L 326.320327 237.385828 
L 326.312773 237.398722 
L 326.303021 237.413858 
L 326.290935 237.431491 
L 326.276668 237.4518 
L 326.260929 237.4748 
L 326.253242 237.48681 
L 326.245892 237.499311 
L 326.239305 237.512194 
L 326.23405 237.525295 
L 326.232175 237.531754 
L 326.230909 237.53818 
L 326.230378 237.544533 
L 326.230721 237.55077 
L 326.232098 237.556839 
L 326.23469 237.562682 
L 326.238702 237.568231 
L 326.279539 237.607027 
L 326.326984 237.640292 
L 326.361906 237.659751 
L 326.412112 237.682732 
L 326.48467 237.708911 
L 326.589353 237.737785 
L 326.738197 237.770072 
L 326.941643 237.812775 
L 327.05454 237.842509 
L 327.11233 237.861276 
L 327.171419 237.884175 
L 327.230894 237.91248 
L 327.289509 237.947816 
L 327.34559 237.992244 
L 327.371599 238.018208 
L 327.39615 238.047361 
L 327.41888 238.080115 
L 327.502074 238.210356 
L 327.585254 238.34406 
L 327.636559 238.435356 
L 327.663244 238.488366 
L 327.690661 238.549739 
L 327.717119 238.620962 
L 327.728765 238.659438 
L 327.739069 238.700869 
L 327.747442 238.745517 
L 327.753138 238.793674 
L 327.755225 238.845665 
L 327.754293 239.440847 
L 327.753627 239.865855 
L 327.752296 240.715872 
L 327.757906 240.80549 
L 327.774256 240.892642 
L 327.790552 240.949501 
L 327.818318 241.023921 
L 327.864779 241.120966 
L 327.940443 241.247176 
L 327.989137 241.318019 
L 328.130906 241.504091 
L 328.324304 241.750869 
L 328.423813 241.894206 
L 328.470429 241.972064 
L 328.513638 242.056549 
L 328.550871 242.148626 
L 328.578755 242.249471 
L 328.58775 242.302721 
L 328.592813 242.35863 
L 328.593235 242.417415 
L 328.453947 246.310006 
L 329.890955 246.837867 
L 331.400068 247.750917 
L 331.221739 246.966716 
L 330.863566 246.363095 
L 330.625913 245.277189 
L 331.04549 244.855753 
L 331.465067 244.434318 
L 332.423039 244.194688 
L 333.742775 242.267049 
L 333.984397 240.820002 
L 334.585118 239.494273 
L 336.501815 238.532528 
L 337.221768 237.327561 
L 337.822881 235.640099 
L 338.422298 235.037993 
L 338.664742 233.168498 
L 339.385632 231.360474 
L 339.985781 230.396466 
L 340.825491 229.191854 
L 341.06804 227.141918 
L 340.8315 225.332379 
L 341.312463 223.885874 
L 340.835439 222.799589 
L 340.478009 221.713492 
L 341.077794 220.870228 
L 340.601894 219.060314 
L 340.363493 218.336307 
L 341.082665 217.734383 
L 341.205796 215.563681 
L 340.488122 215.200651 
L 340.428615 214.959404 
L 340.369108 214.718157 
L 340.728973 214.236244 
L 340.851354 212.547848 
L 339.894886 211.822714 
L 339.537825 210.495467 
L 339.299778 209.650885 
L 338.702988 208.564416 
L 338.704482 207.599633 
L 338.466265 206.755052 
L 337.629187 206.271261 
L 337.031651 205.667269 
L 336.793976 204.581365 
L 337.154212 203.8583 
L 338.111797 203.859801 
L 338.949248 204.102438 
L 339.549397 203.017846 
L 339.312279 201.570212 
L 339.314142 200.364105 
L 339.613936 200.002759 
L 339.91373 199.641412 
L 340.153828 199.15931 
L 340.751367 199.7633 
L 340.630099 200.848643 
L 341.227266 201.693787 
L 341.525662 202.237021 
L 341.824059 202.780255 
L 342.304258 201.81605 
L 341.946073 201.212434 
L 342.305748 200.851266 
L 342.905336 200.128572 
L 343.505466 199.164553 
L 345.06171 199.046409 
L 345.659437 199.529823 
L 346.019112 199.168483 
L 347.336949 198.326331 
L 348.175503 197.965739 
L 348.894311 197.484552 
L 350.090496 198.089478 
L 350.688411 198.452143 
L 352.005863 197.97172 
L 352.365545 197.550174 
L 352.725228 197.128629 
L 354.640411 197.131616 
L 356.555781 197.014026 
L 358.8299 197.138149 
L 361.225469 196.056509 
L 362.544035 194.852439 
L 364.340388 194.252173 
L 365.059738 193.529651 
L 365.539545 192.927335 
L 366.138484 192.626735 
L 366.737423 192.326135 
L 367.337748 191.120942 
L 367.817385 190.518624 
L 368.656865 189.555129 
L 369.137056 188.590905 
L 368.898439 188.107537 
L 369.138533 187.625595 
L 370.575382 187.386496 
L 371.294927 186.422812 
L 371.296587 185.337265 
L 372.016301 184.37358 
L 372.377632 182.926853 
L 371.901129 181.478659 
L 370.945743 180.029896 
L 370.831278 179.897681 
L 408.488644 182.753046 
L 433.50067 184.649245 
L 434.541825 194.115604 
L 438.975512 194.531872 
L 448.800837 195.454315 
L 448.800212 195.867717 
L 448.688956 196.754388 
L 449.347445 197.752902 
L 450.115849 198.751756 
L 450.11434 199.749258 
L 450.112997 200.635926 
L 450.771654 201.523779 
L 451.209975 202.632791 
L 451.096533 204.9603 
L 451.094179 206.512141 
L 451.752331 207.732497 
L 452.630988 208.62052 
L 454.279563 209.509728 
L 454.937715 210.730086 
L 455.373342 213.612614 
L 456.250147 215.719983 
L 456.468127 217.0505 
L 456.35484 219.26718 
L 456.500493 220.007064 
L 456.900542 222.039218 
L 457.008941 223.147898 
L 457.666752 224.589758 
L 457.981824 226.082915 
L 467.117259 226.003284 
L 479.850671 225.88863 
L 479.959751 231.361295 
L 480.002879 233.498876 
L 480.043761 235.54871 
L 480.164267 241.534007 
L 480.274984 247.041988 
L 480.30748 248.65831 
L 481.204684 254.866142 
L 476.34184 261.358016 
" clip-path="url(#p9a5f8840ef)" style="fill: #b3e2cd; fill-opacity: 0.65"/>
   </g>
   <g id="PatchCollection_2">
    <path d="M 390.505858 133.92 
L 394.597334 134.236545 
L 420.187327 135.044225 
L 422.304811 134.901191 
L 440.793439 135.168841 
L 476.801059 135.885544 
L 507.789057 135.232994 
L 510.794746 139.670985 
L 513.299032 144.187858 
L 513.970166 148.368725 
L 513.800415 153.719571 
L 513.800415 157.228958 
L 514.472079 160.742018 
L 515.973069 163.417451 
L 518.148883 167.768157 
L 519.14849 171.278074 
L 518.816877 175.794416 
L 518.148883 178.47036 
L 515.471686 184.156681 
L 513.468783 187.334266 
L 511.628271 190.677487 
L 509.95753 193.35292 
L 507.784857 198.371433 
L 507.283474 200.043564 
L 506.280178 205.062078 
L 505.778284 215.26211 
L 506.781561 219.27683 
L 508.618402 223.122222 
L 510.292833 226.299277 
L 511.794352 231.31832 
L 511.794352 236.669166 
L 509.791449 243.359281 
L 509.791449 248.710657 
L 510.579264 254.497931 
L 511.696062 259.947099 
L 511.868973 263.293481 
L 510.668605 267.11205 
L 508.781853 270.630902 
L 508.836513 273.070753 
L 504.717168 281.748502 
L 502.660134 287.149834 
L 501.677347 292.821428 
L 500.880072 304.331312 
L 507.301353 307.527296 
L 500.953123 320.287592 
L 500.668262 321.716796 
L 497.697292 327.699691 
L 497.29155 330.957198 
L 496.116402 334.004905 
L 496.113772 336.910638 
L 497.664182 342.419226 
L 499.714896 343.901548 
L 510.559814 343.773771 
L 515.054913 342.006972 
L 519.845904 340.636147 
L 523.9521 338.920364 
L 527.792355 338.696367 
L 532.465625 342.783096 
L 537.729108 345.505853 
L 539.091886 351.462436 
L 536.987534 357.699313 
L 533.091578 362.306632 
L 529.843088 367.136358 
L 525.692222 371.184735 
L 523.154825 376.284212 
L 519.283031 381.913232 
L 517.483519 387.862981 
L 517.228097 393.7181 
L 519.430191 406.374811 
L 519.445441 413.42039 
L 521.012651 420.633726 
L 526.101634 437.997668 
L 527.623663 444.955962 
L 527.358782 452.022573 
L 525.999674 457.884525 
L 522.43219 463.338955 
L 517.803061 467.220636 
L 514.282348 471.95098 
L 514.170398 479.013937 
L 515.502166 484.982616 
L 514.279718 490.946051 
L 509.657949 496.855328 
L 504.198454 500.566621 
L 498.614918 504.701754 
L 493.793428 507.617463 
L 489.421839 511.582227 
L 486.163889 522.962744 
L 484.75487 529.027663 
L 483.691672 536.14845 
L 483.805193 549.170602 
L 483.21182 555.011523 
L 480.330721 561.711633 
L 479.603867 568.252429 
L 479.863489 573.918249 
L 478.972673 586.84365 
L 477.125861 598.443981 
L 478.318358 602.240988 
L 476.710659 619.261032 
L 480.02957 621.923308 
L 486.844484 619.728505 
L 492.62248 617.182969 
L 497.205369 618.460204 
L 499.043231 623.485551 
L 479.835638 628.70599 
L 474.762416 616.99208 
L 459.392977 621.909641 
L 472.508821 665.244287 
L 469.878925 665.389953 
L 466.849075 666.170809 
L 465.283435 667.250322 
L 465.372776 672.221 
L 466.931586 675.277642 
L 472.979724 680.112119 
L 477.290352 681.043355 
L 490.002044 723.045037 
L 489.354029 723.403644 
L 481.013416 727.460426 
L 472.879334 732.517329 
L 467.193327 738.72 
L 415.691699 731.842688 
L 358.319592 723.289024 
L 326.754 730.585954 
L 320.031038 734.799418 
L 309.654941 737.820321 
L 302.095293 736.716066 
L 293.482438 732.185527 
L 273.745062 732.324869 
L 249.641358 728.888059 
L 236.985368 732.540462 
L 225.645385 725.484357 
L 267.008988 642.759819 
L 266.450845 643.711574 
L 249.485797 509.151842 
L 244.056763 496.460413 
L 245.851563 492.424681 
L 239.896966 474.27515 
L 284.767622 458.41299 
L 283.414304 454.047026 
L 238.542077 469.926015 
L 198.952254 334.538102 
L 199.398977 333.615271 
L 199.505668 332.965353 
L 200.266143 331.291101 
L 201.35721 330.041201 
L 202.698968 329.61738 
L 206.786755 330.105354 
L 208.124313 329.289799 
L 209.737783 327.494624 
L 211.041682 324.887547 
L 211.862607 321.605318 
L 213.311056 318.90204 
L 215.918343 315.61981 
L 218.873041 314.021809 
L 221.561799 313.685293 
L 223.059118 314.2353 
L 225.228632 314.541339 
L 226.915133 313.841975 
L 229.103567 313.619549 
L 230.272414 312.48902 
L 231.25626 310.333648 
L 233.059443 309.737357 
L 234.732303 310.3773 
L 237.553501 310.827925 
L 242.04756 311.133434 
L 244.957058 310.18484 
L 246.978351 309.969778 
L 249.92673 310.742211 
L 251.298969 311.435252 
L 255.207563 311.057715 
L 258.273134 309.57015 
L 262.656301 306.97727 
L 267.377931 306.03763 
L 271.156165 304.271361 
L 274.89656 302.342616 
L 277.221124 300.903947 
L 278.580742 300.627363 
L 281.811353 300.469091 
L 284.904263 299.168193 
L 286.578164 296.784072 
L 288.173244 293.513409 
L 289.906535 291.010995 
L 291.442735 287.267086 
L 293.411487 281.051259 
L 295.269859 277.110176 
L 297.094592 272.726324 
L 299.948389 268.736345 
L 301.268068 264.439268 
L 302.747507 260.614376 
L 305.807837 250.453775 
L 306.923594 246.300243 
L 308.040941 242.964915 
L 309.4342 240.816906 
L 315.081856 233.626192 
L 317.353311 232.212226 
L 320.974944 232.672335 
L 322.674595 233.927479 
L 326.416049 237.777074 
L 327.590156 238.822438 
L 327.937018 239.4019 
L 328.546682 239.768401 
L 328.954505 240.628119 
L 329.120586 241.430026 
L 329.347627 242.553191 
L 329.567309 242.856599 
L 329.88475 242.990149 
L 330.054502 243.232565 
L 330.100742 243.995532 
L 329.752839 245.034573 
L 329.553648 245.288555 
L 329.560478 245.690285 
L 329.79751 245.955833 
L 330.073951 246.025249 
L 330.312023 245.940575 
L 330.399264 245.641919 
L 330.477574 244.598657 
L 330.625776 244.233746 
L 330.927457 243.95453 
L 331.683202 243.689512 
L 332.746948 243.151583 
L 333.312963 242.57002 
L 333.464324 242.007386 
L 333.677705 240.408854 
L 334.295768 239.681626 
L 335.019463 239.197874 
L 335.463026 238.831373 
L 335.784668 238.449084 
L 336.07846 238.250321 
L 338.124463 234.240882 
L 338.749868 232.414151 
L 339.477252 229.955371 
L 340.293447 228.005595 
L 340.443218 226.297706 
L 340.569359 218.27828 
L 340.654499 216.049819 
L 340.558328 215.119095 
L 340.389088 214.031158 
L 340.358608 213.665168 
L 340.223537 212.828582 
L 339.936064 211.954647 
L 337.63621 206.43082 
L 337.028137 205.45067 
L 336.681274 204.391128 
L 336.716484 203.745923 
L 336.987156 203.347354 
L 337.314568 203.137025 
L 337.759191 203.041315 
L 338.394075 203.135435 
L 338.933298 203.295827 
L 339.481452 203.152263 
L 339.798894 202.808895 
L 339.937105 202.114282 
L 340.056415 198.760536 
L 340.431658 198.659053 
L 340.663959 198.741076 
L 341.059182 199.189619 
L 341.401314 200.095621 
L 341.694576 201.134132 
L 341.781817 201.604217 
L 342.020419 201.861891 
L 342.258509 201.829274 
L 342.562272 201.323431 
L 343.436817 199.392055 
L 344.581995 199.174892 
L 345.709842 198.980331 
L 348.369708 197.78828 
L 349.390865 197.137831 
L 349.793447 197.174631 
L 350.1524 197.455436 
L 350.735253 198.003872 
L 351.333337 198.28782 
L 351.76534 198.163716 
L 352.106432 197.888192 
L 352.576805 197.229319 
L 353.437141 196.861247 
L 354.132985 196.800766 
L 356.33612 196.794992 
L 357.445577 196.473715 
L 358.552404 196.551005 
L 359.366499 196.683514 
L 359.57462 196.645655 
L 361.344711 195.647635 
L 362.69014 195.031354 
L 364.547982 194.539178 
L 365.979081 193.013223 
L 368.676769 189.447576 
L 368.777689 188.967496 
L 368.586387 188.57154 
L 368.028755 188.057803 
L 368.012994 187.752824 
L 368.196406 187.61191 
L 370.015367 187.338468 
L 371.095403 187.091869 
L 371.232044 186.795295 
L 371.235715 186.416698 
L 371.111164 186.108558 
L 370.896212 185.736264 
L 371.017623 185.357156 
L 371.345035 184.548946 
L 371.691898 184.25027 
L 371.929459 183.852743 
L 371.99515 183.297474 
L 371.763378 182.759033 
L 371.432806 182.116989 
L 370.977663 181.544891 
L 370.47208 179.903767 
L 369.869796 178.400944 
L 369.927597 177.832537 
L 370.183548 177.362433 
L 370.721731 176.947567 
L 370.889382 176.424364 
L 370.569311 176.081526 
L 369.581794 175.459472 
L 369.063591 174.745911 
L 369.193401 173.296205 
L 368.93325 172.702546 
L 368.223216 171.763928 
L 366.980277 169.245746 
L 366.867797 168.015816 
L 367.423311 167.533635 
L 367.767032 166.673897 
L 366.806307 162.705991 
L 366.661776 162.042405 
L 366.089442 160.900291 
L 366.015862 160.395507 
L 366.173012 159.975889 
L 366.718536 159.011526 
L 366.990248 157.651208 
L 367.168419 154.976835 
L 367.816433 152.861424 
L 367.954663 151.121448 
L 367.928383 149.846844 
L 368.98371 146.486264 
L 369.369983 144.583283 
L 369.820925 143.390702 
L 370.585601 142.06247 
L 370.876233 141.080219 
L 371.184744 139.243492 
L 371.920529 137.496153 
L 372.865475 135.629461 
L 373.347409 134.57202 
L 373.70638 134.574651 
L 390.505858 133.92 
L 390.505858 133.92 
" clip-path="url(#p9a5f8840ef)" style="fill: none; stroke: #000000; stroke-width: 2"/>
   </g>
   <g id="matplotlib.axis_1">
    <g id="xtick_1">
     <g id="line2d_1">
      <path d="M 203.488353 768.96 
L 203.488353 103.68 
" clip-path="url(#p9a5f8840ef)" style="fill: none; stroke: #b0b0b0; stroke-width: 0.8; stroke-linecap: square"/>
     </g>
     <g id="line2d_2">
      <defs>
       <path id="mbeb47d4a56" d="M 0 0 
L 0 3.5 
" style="stroke: #000000; stroke-width: 0.8"/>
      </defs>
      <g>
       <use xlink:href="#mbeb47d4a56" x="203.488353" y="768.96" style="stroke: #000000; stroke-width: 0.8"/>
      </g>
     </g>
     <g id="text_1">
      <!-- −48.050 -->
      <g transform="translate(190.105805 812.000349) rotate(-45) scale(0.1 -0.1)">
       <defs>
        <path id="DejaVuSans-2212" d="M 678 2272 
L 4684 2272 
L 4684 1741 
L 678 1741 
L 678 2272 
z
" transform="scale(0.015625)"/>
        <path id="DejaVuSans-34" d="M 2419 4116 
L 825 1625 
L 2419 1625 
L 2419 4116 
z
M 2253 4666 
L 3047 4666 
L 3047 1625 
L 3713 1625 
L 3713 1100 
L 3047 1100 
L 3047 0 
L 2419 0 
L 2419 1100 
L 313 1100 
L 313 1709 
L 2253 4666 
z
" transform="scale(0.015625)"/>
        <path id="DejaVuSans-38" d="M 2034 2216 
Q 1584 2216 1326 1975 
Q 1069 1734 1069 1313 
Q 1069 891 1326 650 
Q 1584 409 2034 409 
Q 2484 409 2743 651 
Q 3003 894 3003 1313 
Q 3003 1734 2745 1975 
Q 2488 2216 2034 2216 
z
M 1403 2484 
Q 997 2584 770 2862 
Q 544 3141 544 3541 
Q 544 4100 942 4425 
Q 1341 4750 2034 4750 
Q 2731 4750 3128 4425 
Q 3525 4100 3525 3541 
Q 3525 3141 3298 2862 
Q 3072 2584 2669 2484 
Q 3125 2378 3379 2068 
Q 3634 1759 3634 1313 
Q 3634 634 3220 271 
Q 2806 -91 2034 -91 
Q 1263 -91 848 271 
Q 434 634 434 1313 
Q 434 1759 690 2068 
Q 947 2378 1403 2484 
z
M 1172 3481 
Q 1172 3119 1398 2916 
Q 1625 2713 2034 2713 
Q 2441 2713 2670 2916 
Q 2900 3119 2900 3481 
Q 2900 3844 2670 4047 
Q 2441 4250 2034 4250 
Q 1625 4250 1398 4047 
Q 1172 3844 1172 3481 
z
" transform="scale(0.015625)"/>
        <path id="DejaVuSans-2e" d="M 684 794 
L 1344 794 
L 1344 0 
L 684 0 
L 684 794 
z
" transform="scale(0.015625)"/>
        <path id="DejaVuSans-30" d="M 2034 4250 
Q 1547 4250 1301 3770 
Q 1056 3291 1056 2328 
Q 1056 1369 1301 889 
Q 1547 409 2034 409 
Q 2525 409 2770 889 
Q 3016 1369 3016 2328 
Q 3016 3291 2770 3770 
Q 2525 4250 2034 4250 
z
M 2034 4750 
Q 2819 4750 3233 4129 
Q 3647 3509 3647 2328 
Q 3647 1150 3233 529 
Q 2819 -91 2034 -91 
Q 1250 -91 836 529 
Q 422 1150 422 2328 
Q 422 3509 836 4129 
Q 1250 4750 2034 4750 
z
" transform="scale(0.015625)"/>
        <path id="DejaVuSans-35" d="M 691 4666 
L 3169 4666 
L 3169 4134 
L 1269 4134 
L 1269 2991 
Q 1406 3038 1543 3061 
Q 1681 3084 1819 3084 
Q 2600 3084 3056 2656 
Q 3513 2228 3513 1497 
Q 3513 744 3044 326 
Q 2575 -91 1722 -91 
Q 1428 -91 1123 -41 
Q 819 9 494 109 
L 494 744 
Q 775 591 1075 516 
Q 1375 441 1709 441 
Q 2250 441 2565 725 
Q 2881 1009 2881 1497 
Q 2881 1984 2565 2268 
Q 2250 2553 1709 2553 
Q 1456 2553 1204 2497 
Q 953 2441 691 2322 
L 691 4666 
z
" transform="scale(0.015625)"/>
       </defs>
       <use xlink:href="#DejaVuSans-2212"/>
       <use xlink:href="#DejaVuSans-34" transform="translate(83.789062 0)"/>
       <use xlink:href="#DejaVuSans-38" transform="translate(147.412109 0)"/>
       <use xlink:href="#DejaVuSans-2e" transform="translate(211.035156 0)"/>
       <use xlink:href="#DejaVuSans-30" transform="translate(242.822266 0)"/>
       <use xlink:href="#DejaVuSans-35" transform="translate(306.445312 0)"/>
       <use xlink:href="#DejaVuSans-30" transform="translate(370.068359 0)"/>
      </g>
     </g>
    </g>
    <g id="xtick_2">
     <g id="line2d_3">
      <path d="M 250.788655 768.96 
L 250.788655 103.68 
" clip-path="url(#p9a5f8840ef)" style="fill: none; stroke: #b0b0b0; stroke-width: 0.8; stroke-linecap: square"/>
     </g>
     <g id="line2d_4">
      <g>
       <use xlink:href="#mbeb47d4a56" x="250.788655" y="768.96" style="stroke: #000000; stroke-width: 0.8"/>
      </g>
     </g>
     <g id="text_2">
      <!-- −48.025 -->
      <g transform="translate(237.406107 812.000349) rotate(-45) scale(0.1 -0.1)">
       <defs>
        <path id="DejaVuSans-32" d="M 1228 531 
L 3431 531 
L 3431 0 
L 469 0 
L 469 531 
Q 828 903 1448 1529 
Q 2069 2156 2228 2338 
Q 2531 2678 2651 2914 
Q 2772 3150 2772 3378 
Q 2772 3750 2511 3984 
Q 2250 4219 1831 4219 
Q 1534 4219 1204 4116 
Q 875 4013 500 3803 
L 500 4441 
Q 881 4594 1212 4672 
Q 1544 4750 1819 4750 
Q 2544 4750 2975 4387 
Q 3406 4025 3406 3419 
Q 3406 3131 3298 2873 
Q 3191 2616 2906 2266 
Q 2828 2175 2409 1742 
Q 1991 1309 1228 531 
z
" transform="scale(0.015625)"/>
       </defs>
       <use xlink:href="#DejaVuSans-2212"/>
       <use xlink:href="#DejaVuSans-34" transform="translate(83.789062 0)"/>
       <use xlink:href="#DejaVuSans-38" transform="translate(147.412109 0)"/>
       <use xlink:href="#DejaVuSans-2e" transform="translate(211.035156 0)"/>
       <use xlink:href="#DejaVuSans-30" transform="translate(242.822266 0)"/>
       <use xlink:href="#DejaVuSans-32" transform="translate(306.445312 0)"/>
       <use xlink:href="#DejaVuSans-35" transform="translate(370.068359 0)"/>
      </g>
     </g>
    </g>
    <g id="xtick_3">
     <g id="line2d_5">
      <path d="M 298.088957 768.96 
L 298.088957 103.68 
" clip-path="url(#p9a5f8840ef)" style="fill: none; stroke: #b0b0b0; stroke-width: 0.8; stroke-linecap: square"/>
     </g>
     <g id="line2d_6">
      <g>
       <use xlink:href="#mbeb47d4a56" x="298.088957" y="768.96" style="stroke: #000000; stroke-width: 0.8"/>
      </g>
     </g>
     <g id="text_3">
      <!-- −48.000 -->
      <g transform="translate(284.706409 812.000349) rotate(-45) scale(0.1 -0.1)">
       <use xlink:href="#DejaVuSans-2212"/>
       <use xlink:href="#DejaVuSans-34" transform="translate(83.789062 0)"/>
       <use xlink:href="#DejaVuSans-38" transform="translate(147.412109 0)"/>
       <use xlink:href="#DejaVuSans-2e" transform="translate(211.035156 0)"/>
       <use xlink:href="#DejaVuSans-30" transform="translate(242.822266 0)"/>
       <use xlink:href="#DejaVuSans-30" transform="translate(306.445312 0)"/>
       <use xlink:href="#DejaVuSans-30" transform="translate(370.068359 0)"/>
      </g>
     </g>
    </g>
    <g id="xtick_4">
     <g id="line2d_7">
      <path d="M 345.38926 768.96 
L 345.38926 103.68 
" clip-path="url(#p9a5f8840ef)" style="fill: none; stroke: #b0b0b0; stroke-width: 0.8; stroke-linecap: square"/>
     </g>
     <g id="line2d_8">
      <g>
       <use xlink:href="#mbeb47d4a56" x="345.38926" y="768.96" style="stroke: #000000; stroke-width: 0.8"/>
      </g>
     </g>
     <g id="text_4">
      <!-- −47.975 -->
      <g transform="translate(332.006711 812.000349) rotate(-45) scale(0.1 -0.1)">
       <defs>
        <path id="DejaVuSans-37" d="M 525 4666 
L 3525 4666 
L 3525 4397 
L 1831 0 
L 1172 0 
L 2766 4134 
L 525 4134 
L 525 4666 
z
" transform="scale(0.015625)"/>
        <path id="DejaVuSans-39" d="M 703 97 
L 703 672 
Q 941 559 1184 500 
Q 1428 441 1663 441 
Q 2288 441 2617 861 
Q 2947 1281 2994 2138 
Q 2813 1869 2534 1725 
Q 2256 1581 1919 1581 
Q 1219 1581 811 2004 
Q 403 2428 403 3163 
Q 403 3881 828 4315 
Q 1253 4750 1959 4750 
Q 2769 4750 3195 4129 
Q 3622 3509 3622 2328 
Q 3622 1225 3098 567 
Q 2575 -91 1691 -91 
Q 1453 -91 1209 -44 
Q 966 3 703 97 
z
M 1959 2075 
Q 2384 2075 2632 2365 
Q 2881 2656 2881 3163 
Q 2881 3666 2632 3958 
Q 2384 4250 1959 4250 
Q 1534 4250 1286 3958 
Q 1038 3666 1038 3163 
Q 1038 2656 1286 2365 
Q 1534 2075 1959 2075 
z
" transform="scale(0.015625)"/>
       </defs>
       <use xlink:href="#DejaVuSans-2212"/>
       <use xlink:href="#DejaVuSans-34" transform="translate(83.789062 0)"/>
       <use xlink:href="#DejaVuSans-37" transform="translate(147.412109 0)"/>
       <use xlink:href="#DejaVuSans-2e" transform="translate(211.035156 0)"/>
       <use xlink:href="#DejaVuSans-39" transform="translate(242.822266 0)"/>
       <use xlink:href="#DejaVuSans-37" transform="translate(306.445312 0)"/>
       <use xlink:href="#DejaVuSans-35" transform="translate(370.068359 0)"/>
      </g>
     </g>
    </g>
    <g id="xtick_5">
     <g id="line2d_9">
      <path d="M 392.689562 768.96 
L 392.689562 103.68 
" clip-path="url(#p9a5f8840ef)" style="fill: none; stroke: #b0b0b0; stroke-width: 0.8; stroke-linecap: square"/>
     </g>
     <g id="line2d_10">
      <g>
       <use xlink:href="#mbeb47d4a56" x="392.689562" y="768.96" style="stroke: #000000; stroke-width: 0.8"/>
      </g>
     </g>
     <g id="text_5">
      <!-- −47.950 -->
      <g transform="translate(379.307013 812.000349) rotate(-45) scale(0.1 -0.1)">
       <use xlink:href="#DejaVuSans-2212"/>
       <use xlink:href="#DejaVuSans-34" transform="translate(83.789062 0)"/>
       <use xlink:href="#DejaVuSans-37" transform="translate(147.412109 0)"/>
       <use xlink:href="#DejaVuSans-2e" transform="translate(211.035156 0)"/>
       <use xlink:href="#DejaVuSans-39" transform="translate(242.822266 0)"/>
       <use xlink:href="#DejaVuSans-35" transform="translate(306.445312 0)"/>
       <use xlink:href="#DejaVuSans-30" transform="translate(370.068359 0)"/>
      </g>
     </g>
    </g>
    <g id="xtick_6">
     <g id="line2d_11">
      <path d="M 439.989864 768.96 
L 439.989864 103.68 
" clip-path="url(#p9a5f8840ef)" style="fill: none; stroke: #b0b0b0; stroke-width: 0.8; stroke-linecap: square"/>
     </g>
     <g id="line2d_12">
      <g>
       <use xlink:href="#mbeb47d4a56" x="439.989864" y="768.96" style="stroke: #000000; stroke-width: 0.8"/>
      </g>
     </g>
     <g id="text_6">
      <!-- −47.925 -->
      <g transform="translate(426.607316 812.000349) rotate(-45) scale(0.1 -0.1)">
       <use xlink:href="#DejaVuSans-2212"/>
       <use xlink:href="#DejaVuSans-34" transform="translate(83.789062 0)"/>
       <use xlink:href="#DejaVuSans-37" transform="translate(147.412109 0)"/>
       <use xlink:href="#DejaVuSans-2e" transform="translate(211.035156 0)"/>
       <use xlink:href="#DejaVuSans-39" transform="translate(242.822266 0)"/>
       <use xlink:href="#DejaVuSans-32" transform="translate(306.445312 0)"/>
       <use xlink:href="#DejaVuSans-35" transform="translate(370.068359 0)"/>
      </g>
     </g>
    </g>
    <g id="xtick_7">
     <g id="line2d_13">
      <path d="M 487.290166 768.96 
L 487.290166 103.68 
" clip-path="url(#p9a5f8840ef)" style="fill: none; stroke: #b0b0b0; stroke-width: 0.8; stroke-linecap: square"/>
     </g>
     <g id="line2d_14">
      <g>
       <use xlink:href="#mbeb47d4a56" x="487.290166" y="768.96" style="stroke: #000000; stroke-width: 0.8"/>
      </g>
     </g>
     <g id="text_7">
      <!-- −47.900 -->
      <g transform="translate(473.907618 812.000349) rotate(-45) scale(0.1 -0.1)">
       <use xlink:href="#DejaVuSans-2212"/>
       <use xlink:href="#DejaVuSans-34" transform="translate(83.789062 0)"/>
       <use xlink:href="#DejaVuSans-37" transform="translate(147.412109 0)"/>
       <use xlink:href="#DejaVuSans-2e" transform="translate(211.035156 0)"/>
       <use xlink:href="#DejaVuSans-39" transform="translate(242.822266 0)"/>
       <use xlink:href="#DejaVuSans-30" transform="translate(306.445312 0)"/>
       <use xlink:href="#DejaVuSans-30" transform="translate(370.068359 0)"/>
      </g>
     </g>
    </g>
    <g id="xtick_8">
     <g id="line2d_15">
      <path d="M 534.590468 768.96 
L 534.590468 103.68 
" clip-path="url(#p9a5f8840ef)" style="fill: none; stroke: #b0b0b0; stroke-width: 0.8; stroke-linecap: square"/>
     </g>
     <g id="line2d_16">
      <g>
       <use xlink:href="#mbeb47d4a56" x="534.590468" y="768.96" style="stroke: #000000; stroke-width: 0.8"/>
      </g>
     </g>
     <g id="text_8">
      <!-- −47.875 -->
      <g transform="translate(521.20792 812.000349) rotate(-45) scale(0.1 -0.1)">
       <use xlink:href="#DejaVuSans-2212"/>
       <use xlink:href="#DejaVuSans-34" transform="translate(83.789062 0)"/>
       <use xlink:href="#DejaVuSans-37" transform="translate(147.412109 0)"/>
       <use xlink:href="#DejaVuSans-2e" transform="translate(211.035156 0)"/>
       <use xlink:href="#DejaVuSans-38" transform="translate(242.822266 0)"/>
       <use xlink:href="#DejaVuSans-37" transform="translate(306.445312 0)"/>
       <use xlink:href="#DejaVuSans-35" transform="translate(370.068359 0)"/>
      </g>
     </g>
    </g>
    <g id="text_9">
     <!-- Longitude (°) -->
     <g transform="translate(336.139844 825.069347) scale(0.1 -0.1)">
      <defs>
       <path id="DejaVuSans-4c" d="M 628 4666 
L 1259 4666 
L 1259 531 
L 3531 531 
L 3531 0 
L 628 0 
L 628 4666 
z
" transform="scale(0.015625)"/>
       <path id="DejaVuSans-6f" d="M 1959 3097 
Q 1497 3097 1228 2736 
Q 959 2375 959 1747 
Q 959 1119 1226 758 
Q 1494 397 1959 397 
Q 2419 397 2687 759 
Q 2956 1122 2956 1747 
Q 2956 2369 2687 2733 
Q 2419 3097 1959 3097 
z
M 1959 3584 
Q 2709 3584 3137 3096 
Q 3566 2609 3566 1747 
Q 3566 888 3137 398 
Q 2709 -91 1959 -91 
Q 1206 -91 779 398 
Q 353 888 353 1747 
Q 353 2609 779 3096 
Q 1206 3584 1959 3584 
z
" transform="scale(0.015625)"/>
       <path id="DejaVuSans-6e" d="M 3513 2113 
L 3513 0 
L 2938 0 
L 2938 2094 
Q 2938 2591 2744 2837 
Q 2550 3084 2163 3084 
Q 1697 3084 1428 2787 
Q 1159 2491 1159 1978 
L 1159 0 
L 581 0 
L 581 3500 
L 1159 3500 
L 1159 2956 
Q 1366 3272 1645 3428 
Q 1925 3584 2291 3584 
Q 2894 3584 3203 3211 
Q 3513 2838 3513 2113 
z
" transform="scale(0.015625)"/>
       <path id="DejaVuSans-67" d="M 2906 1791 
Q 2906 2416 2648 2759 
Q 2391 3103 1925 3103 
Q 1463 3103 1205 2759 
Q 947 2416 947 1791 
Q 947 1169 1205 825 
Q 1463 481 1925 481 
Q 2391 481 2648 825 
Q 2906 1169 2906 1791 
z
M 3481 434 
Q 3481 -459 3084 -895 
Q 2688 -1331 1869 -1331 
Q 1566 -1331 1297 -1286 
Q 1028 -1241 775 -1147 
L 775 -588 
Q 1028 -725 1275 -790 
Q 1522 -856 1778 -856 
Q 2344 -856 2625 -561 
Q 2906 -266 2906 331 
L 2906 616 
Q 2728 306 2450 153 
Q 2172 0 1784 0 
Q 1141 0 747 490 
Q 353 981 353 1791 
Q 353 2603 747 3093 
Q 1141 3584 1784 3584 
Q 2172 3584 2450 3431 
Q 2728 3278 2906 2969 
L 2906 3500 
L 3481 3500 
L 3481 434 
z
" transform="scale(0.015625)"/>
       <path id="DejaVuSans-69" d="M 603 3500 
L 1178 3500 
L 1178 0 
L 603 0 
L 603 3500 
z
M 603 4863 
L 1178 4863 
L 1178 4134 
L 603 4134 
L 603 4863 
z
" transform="scale(0.015625)"/>
       <path id="DejaVuSans-74" d="M 1172 4494 
L 1172 3500 
L 2356 3500 
L 2356 3053 
L 1172 3053 
L 1172 1153 
Q 1172 725 1289 603 
Q 1406 481 1766 481 
L 2356 481 
L 2356 0 
L 1766 0 
Q 1100 0 847 248 
Q 594 497 594 1153 
L 594 3053 
L 172 3053 
L 172 3500 
L 594 3500 
L 594 4494 
L 1172 4494 
z
" transform="scale(0.015625)"/>
       <path id="DejaVuSans-75" d="M 544 1381 
L 544 3500 
L 1119 3500 
L 1119 1403 
Q 1119 906 1312 657 
Q 1506 409 1894 409 
Q 2359 409 2629 706 
Q 2900 1003 2900 1516 
L 2900 3500 
L 3475 3500 
L 3475 0 
L 2900 0 
L 2900 538 
Q 2691 219 2414 64 
Q 2138 -91 1772 -91 
Q 1169 -91 856 284 
Q 544 659 544 1381 
z
M 1991 3584 
L 1991 3584 
z
" transform="scale(0.015625)"/>
       <path id="DejaVuSans-64" d="M 2906 2969 
L 2906 4863 
L 3481 4863 
L 3481 0 
L 2906 0 
L 2906 525 
Q 2725 213 2448 61 
Q 2172 -91 1784 -91 
Q 1150 -91 751 415 
Q 353 922 353 1747 
Q 353 2572 751 3078 
Q 1150 3584 1784 3584 
Q 2172 3584 2448 3432 
Q 2725 3281 2906 2969 
z
M 947 1747 
Q 947 1113 1208 752 
Q 1469 391 1925 391 
Q 2381 391 2643 752 
Q 2906 1113 2906 1747 
Q 2906 2381 2643 2742 
Q 2381 3103 1925 3103 
Q 1469 3103 1208 2742 
Q 947 2381 947 1747 
z
" transform="scale(0.015625)"/>
       <path id="DejaVuSans-65" d="M 3597 1894 
L 3597 1613 
L 953 1613 
Q 991 1019 1311 708 
Q 1631 397 2203 397 
Q 2534 397 2845 478 
Q 3156 559 3463 722 
L 3463 178 
Q 3153 47 2828 -22 
Q 2503 -91 2169 -91 
Q 1331 -91 842 396 
Q 353 884 353 1716 
Q 353 2575 817 3079 
Q 1281 3584 2069 3584 
Q 2775 3584 3186 3129 
Q 3597 2675 3597 1894 
z
M 3022 2063 
Q 3016 2534 2758 2815 
Q 2500 3097 2075 3097 
Q 1594 3097 1305 2825 
Q 1016 2553 972 2059 
L 3022 2063 
z
" transform="scale(0.015625)"/>
       <path id="DejaVuSans-20" transform="scale(0.015625)"/>
       <path id="DejaVuSans-28" d="M 1984 4856 
Q 1566 4138 1362 3434 
Q 1159 2731 1159 2009 
Q 1159 1288 1364 580 
Q 1569 -128 1984 -844 
L 1484 -844 
Q 1016 -109 783 600 
Q 550 1309 550 2009 
Q 550 2706 781 3412 
Q 1013 4119 1484 4856 
L 1984 4856 
z
" transform="scale(0.015625)"/>
       <path id="DejaVuSans-b0" d="M 1600 4347 
Q 1350 4347 1178 4173 
Q 1006 4000 1006 3750 
Q 1006 3503 1178 3333 
Q 1350 3163 1600 3163 
Q 1850 3163 2022 3333 
Q 2194 3503 2194 3750 
Q 2194 3997 2020 4172 
Q 1847 4347 1600 4347 
z
M 1600 4750 
Q 1800 4750 1984 4673 
Q 2169 4597 2303 4453 
Q 2447 4313 2519 4134 
Q 2591 3956 2591 3750 
Q 2591 3338 2302 3052 
Q 2013 2766 1594 2766 
Q 1172 2766 890 3047 
Q 609 3328 609 3750 
Q 609 4169 896 4459 
Q 1184 4750 1600 4750 
z
" transform="scale(0.015625)"/>
       <path id="DejaVuSans-29" d="M 513 4856 
L 1013 4856 
Q 1481 4119 1714 3412 
Q 1947 2706 1947 2009 
Q 1947 1309 1714 600 
Q 1481 -109 1013 -844 
L 513 -844 
Q 928 -128 1133 580 
Q 1338 1288 1338 2009 
Q 1338 2731 1133 3434 
Q 928 4138 513 4856 
z
" transform="scale(0.015625)"/>
      </defs>
      <use xlink:href="#DejaVuSans-4c"/>
      <use xlink:href="#DejaVuSans-6f" transform="translate(53.962891 0)"/>
      <use xlink:href="#DejaVuSans-6e" transform="translate(115.144531 0)"/>
      <use xlink:href="#DejaVuSans-67" transform="translate(178.523438 0)"/>
      <use xlink:href="#DejaVuSans-69" transform="translate(242 0)"/>
      <use xlink:href="#DejaVuSans-74" transform="translate(269.783203 0)"/>
      <use xlink:href="#DejaVuSans-75" transform="translate(308.992188 0)"/>
      <use xlink:href="#DejaVuSans-64" transform="translate(372.371094 0)"/>
      <use xlink:href="#DejaVuSans-65" transform="translate(435.847656 0)"/>
      <use xlink:href="#DejaVuSans-20" transform="translate(497.371094 0)"/>
      <use xlink:href="#DejaVuSans-28" transform="translate(529.158203 0)"/>
      <use xlink:href="#DejaVuSans-b0" transform="translate(568.171875 0)"/>
      <use xlink:href="#DejaVuSans-29" transform="translate(618.171875 0)"/>
     </g>
    </g>
   </g>
   <g id="matplotlib.axis_2">
    <g id="ytick_1">
     <g id="line2d_17">
      <path d="M 181.898925 743.410932 
L 556.101075 743.410932 
" clip-path="url(#p9a5f8840ef)" style="fill: none; stroke: #b0b0b0; stroke-width: 0.8; stroke-linecap: square"/>
     </g>
     <g id="line2d_18">
      <defs>
       <path id="m97599c42ac" d="M 0 0 
L -3.5 0 
" style="stroke: #000000; stroke-width: 0.8"/>
      </defs>
      <g>
       <use xlink:href="#m97599c42ac" x="181.898925" y="743.410932" style="stroke: #000000; stroke-width: 0.8"/>
      </g>
     </g>
     <g id="text_10">
      <!-- −2.00 -->
      <g transform="translate(144.253612 747.210151) scale(0.1 -0.1)">
       <use xlink:href="#DejaVuSans-2212"/>
       <use xlink:href="#DejaVuSans-32" transform="translate(83.789062 0)"/>
       <use xlink:href="#DejaVuSans-2e" transform="translate(147.412109 0)"/>
       <use xlink:href="#DejaVuSans-30" transform="translate(179.199219 0)"/>
       <use xlink:href="#DejaVuSans-30" transform="translate(242.822266 0)"/>
      </g>
     </g>
    </g>
    <g id="ytick_2">
     <g id="line2d_19">
      <path d="M 181.898925 648.761644 
L 556.101075 648.761644 
" clip-path="url(#p9a5f8840ef)" style="fill: none; stroke: #b0b0b0; stroke-width: 0.8; stroke-linecap: square"/>
     </g>
     <g id="line2d_20">
      <g>
       <use xlink:href="#m97599c42ac" x="181.898925" y="648.761644" style="stroke: #000000; stroke-width: 0.8"/>
      </g>
     </g>
     <g id="text_11">
      <!-- −1.95 -->
      <g transform="translate(144.253612 652.560863) scale(0.1 -0.1)">
       <defs>
        <path id="DejaVuSans-31" d="M 794 531 
L 1825 531 
L 1825 4091 
L 703 3866 
L 703 4441 
L 1819 4666 
L 2450 4666 
L 2450 531 
L 3481 531 
L 3481 0 
L 794 0 
L 794 531 
z
" transform="scale(0.015625)"/>
       </defs>
       <use xlink:href="#DejaVuSans-2212"/>
       <use xlink:href="#DejaVuSans-31" transform="translate(83.789062 0)"/>
       <use xlink:href="#DejaVuSans-2e" transform="translate(147.412109 0)"/>
       <use xlink:href="#DejaVuSans-39" transform="translate(179.199219 0)"/>
       <use xlink:href="#DejaVuSans-35" transform="translate(242.822266 0)"/>
      </g>
     </g>
    </g>
    <g id="ytick_3">
     <g id="line2d_21">
      <path d="M 181.898925 554.112355 
L 556.101075 554.112355 
" clip-path="url(#p9a5f8840ef)" style="fill: none; stroke: #b0b0b0; stroke-width: 0.8; stroke-linecap: square"/>
     </g>
     <g id="line2d_22">
      <g>
       <use xlink:href="#m97599c42ac" x="181.898925" y="554.112355" style="stroke: #000000; stroke-width: 0.8"/>
      </g>
     </g>
     <g id="text_12">
      <!-- −1.90 -->
      <g transform="translate(144.253612 557.911574) scale(0.1 -0.1)">
       <use xlink:href="#DejaVuSans-2212"/>
       <use xlink:href="#DejaVuSans-31" transform="translate(83.789062 0)"/>
       <use xlink:href="#DejaVuSans-2e" transform="translate(147.412109 0)"/>
       <use xlink:href="#DejaVuSans-39" transform="translate(179.199219 0)"/>
       <use xlink:href="#DejaVuSans-30" transform="translate(242.822266 0)"/>
      </g>
     </g>
    </g>
    <g id="ytick_4">
     <g id="line2d_23">
      <path d="M 181.898925 459.463067 
L 556.101075 459.463067 
" clip-path="url(#p9a5f8840ef)" style="fill: none; stroke: #b0b0b0; stroke-width: 0.8; stroke-linecap: square"/>
     </g>
     <g id="line2d_24">
      <g>
       <use xlink:href="#m97599c42ac" x="181.898925" y="459.463067" style="stroke: #000000; stroke-width: 0.8"/>
      </g>
     </g>
     <g id="text_13">
      <!-- −1.85 -->
      <g transform="translate(144.253612 463.262285) scale(0.1 -0.1)">
       <use xlink:href="#DejaVuSans-2212"/>
       <use xlink:href="#DejaVuSans-31" transform="translate(83.789062 0)"/>
       <use xlink:href="#DejaVuSans-2e" transform="translate(147.412109 0)"/>
       <use xlink:href="#DejaVuSans-38" transform="translate(179.199219 0)"/>
       <use xlink:href="#DejaVuSans-35" transform="translate(242.822266 0)"/>
      </g>
     </g>
    </g>
    <g id="ytick_5">
     <g id="line2d_25">
      <path d="M 181.898925 364.813778 
L 556.101075 364.813778 
" clip-path="url(#p9a5f8840ef)" style="fill: none; stroke: #b0b0b0; stroke-width: 0.8; stroke-linecap: square"/>
     </g>
     <g id="line2d_26">
      <g>
       <use xlink:href="#m97599c42ac" x="181.898925" y="364.813778" style="stroke: #000000; stroke-width: 0.8"/>
      </g>
     </g>
     <g id="text_14">
      <!-- −1.80 -->
      <g transform="translate(144.253612 368.612997) scale(0.1 -0.1)">
       <use xlink:href="#DejaVuSans-2212"/>
       <use xlink:href="#DejaVuSans-31" transform="translate(83.789062 0)"/>
       <use xlink:href="#DejaVuSans-2e" transform="translate(147.412109 0)"/>
       <use xlink:href="#DejaVuSans-38" transform="translate(179.199219 0)"/>
       <use xlink:href="#DejaVuSans-30" transform="translate(242.822266 0)"/>
      </g>
     </g>
    </g>
    <g id="ytick_6">
     <g id="line2d_27">
      <path d="M 181.898925 270.16449 
L 556.101075 270.16449 
" clip-path="url(#p9a5f8840ef)" style="fill: none; stroke: #b0b0b0; stroke-width: 0.8; stroke-linecap: square"/>
     </g>
     <g id="line2d_28">
      <g>
       <use xlink:href="#m97599c42ac" x="181.898925" y="270.16449" style="stroke: #000000; stroke-width: 0.8"/>
      </g>
     </g>
     <g id="text_15">
      <!-- −1.75 -->
      <g transform="translate(144.253612 273.963708) scale(0.1 -0.1)">
       <use xlink:href="#DejaVuSans-2212"/>
       <use xlink:href="#DejaVuSans-31" transform="translate(83.789062 0)"/>
       <use xlink:href="#DejaVuSans-2e" transform="translate(147.412109 0)"/>
       <use xlink:href="#DejaVuSans-37" transform="translate(179.199219 0)"/>
       <use xlink:href="#DejaVuSans-35" transform="translate(242.822266 0)"/>
      </g>
     </g>
    </g>
    <g id="ytick_7">
     <g id="line2d_29">
      <path d="M 181.898925 175.515201 
L 556.101075 175.515201 
" clip-path="url(#p9a5f8840ef)" style="fill: none; stroke: #b0b0b0; stroke-width: 0.8; stroke-linecap: square"/>
     </g>
     <g id="line2d_30">
      <g>
       <use xlink:href="#m97599c42ac" x="181.898925" y="175.515201" style="stroke: #000000; stroke-width: 0.8"/>
      </g>
     </g>
     <g id="text_16">
      <!-- −1.70 -->
      <g transform="translate(144.253612 179.31442) scale(0.1 -0.1)">
       <use xlink:href="#DejaVuSans-2212"/>
       <use xlink:href="#DejaVuSans-31" transform="translate(83.789062 0)"/>
       <use xlink:href="#DejaVuSans-2e" transform="translate(147.412109 0)"/>
       <use xlink:href="#DejaVuSans-37" transform="translate(179.199219 0)"/>
       <use xlink:href="#DejaVuSans-30" transform="translate(242.822266 0)"/>
      </g>
     </g>
    </g>
    <g id="text_17">
     <!-- Latitude (°) -->
     <g transform="translate(138.173925 464.889531) rotate(-90) scale(0.1 -0.1)">
      <defs>
       <path id="DejaVuSans-61" d="M 2194 1759 
Q 1497 1759 1228 1600 
Q 959 1441 959 1056 
Q 959 750 1161 570 
Q 1363 391 1709 391 
Q 2188 391 2477 730 
Q 2766 1069 2766 1631 
L 2766 1759 
L 2194 1759 
z
M 3341 1997 
L 3341 0 
L 2766 0 
L 2766 531 
Q 2569 213 2275 61 
Q 1981 -91 1556 -91 
Q 1019 -91 701 211 
Q 384 513 384 1019 
Q 384 1609 779 1909 
Q 1175 2209 1959 2209 
L 2766 2209 
L 2766 2266 
Q 2766 2663 2505 2880 
Q 2244 3097 1772 3097 
Q 1472 3097 1187 3025 
Q 903 2953 641 2809 
L 641 3341 
Q 956 3463 1253 3523 
Q 1550 3584 1831 3584 
Q 2591 3584 2966 3190 
Q 3341 2797 3341 1997 
z
" transform="scale(0.015625)"/>
      </defs>
      <use xlink:href="#DejaVuSans-4c"/>
      <use xlink:href="#DejaVuSans-61" transform="translate(55.712891 0)"/>
      <use xlink:href="#DejaVuSans-74" transform="translate(116.992188 0)"/>
      <use xlink:href="#DejaVuSans-69" transform="translate(156.201172 0)"/>
      <use xlink:href="#DejaVuSans-74" transform="translate(183.984375 0)"/>
      <use xlink:href="#DejaVuSans-75" transform="translate(223.193359 0)"/>
      <use xlink:href="#DejaVuSans-64" transform="translate(286.572266 0)"/>
      <use xlink:href="#DejaVuSans-65" transform="translate(350.048828 0)"/>
      <use xlink:href="#DejaVuSans-20" transform="translate(411.572266 0)"/>
      <use xlink:href="#DejaVuSans-28" transform="translate(443.359375 0)"/>
      <use xlink:href="#DejaVuSans-b0" transform="translate(482.373047 0)"/>
      <use xlink:href="#DejaVuSans-29" transform="translate(532.373047 0)"/>
     </g>
    </g>
   </g>
   <g id="patch_3">
    <path d="M 181.898925 768.96 
L 181.898925 103.68 
" style="fill: none; stroke: #000000; stroke-width: 0.8; stroke-linejoin: miter; stroke-linecap: square"/>
   </g>
   <g id="patch_4">
    <path d="M 556.101075 768.96 
L 556.101075 103.68 
" style="fill: none; stroke: #000000; stroke-width: 0.8; stroke-linejoin: miter; stroke-linecap: square"/>
   </g>
   <g id="patch_5">
    <path d="M 181.898925 768.96 
L 556.101075 768.96 
" style="fill: none; stroke: #000000; stroke-width: 0.8; stroke-linejoin: miter; stroke-linecap: square"/>
   </g>
   <g id="patch_6">
    <path d="M 181.898925 103.68 
L 556.101075 103.68 
" style="fill: none; stroke: #000000; stroke-width: 0.8; stroke-linejoin: miter; stroke-linecap: square"/>
   </g>
   <g id="legend_1">
    <g id="patch_7">
     <path d="M 256.682031 926.226938 
L 481.317969 926.226938 
Q 483.317969 926.226938 483.317969 924.226938 
L 483.317969 909.016 
Q 483.317969 907.016 481.317969 907.016 
L 256.682031 907.016 
Q 254.682031 907.016 254.682031 909.016 
L 254.682031 924.226938 
Q 254.682031 926.226938 256.682031 926.226938 
z
" style="fill: #ffffff; opacity: 0.8; stroke: #cccccc; stroke-linejoin: miter"/>
    </g>
    <g id="line2d_31">
     <defs>
      <path id="m890538c2eb" d="M 0 5 
C 1.326016 5 2.597899 4.473168 3.535534 3.535534 
C 4.473168 2.597899 5 1.326016 5 0 
C 5 -1.326016 4.473168 -2.597899 3.535534 -3.535534 
C 2.597899 -4.473168 1.326016 -5 0 -5 
C -1.326016 -5 -2.597899 -4.473168 -3.535534 -3.535534 
C -4.473168 -2.597899 -5 -1.326016 -5 0 
C -5 1.326016 -4.473168 2.597899 -3.535534 3.535534 
C -2.597899 4.473168 -1.326016 5 0 5 
z
"/>
     </defs>
     <g>
      <use xlink:href="#m890538c2eb" x="268.682031" y="916.64725" style="fill: #b3e2cd; fill-opacity: 0.65"/>
     </g>
    </g>
    <g id="text_18">
     <!-- ARQUINEC -->
     <g transform="translate(286.682031 920.14725) scale(0.1 -0.1)">
      <defs>
       <path id="DejaVuSans-41" d="M 2188 4044 
L 1331 1722 
L 3047 1722 
L 2188 4044 
z
M 1831 4666 
L 2547 4666 
L 4325 0 
L 3669 0 
L 3244 1197 
L 1141 1197 
L 716 0 
L 50 0 
L 1831 4666 
z
" transform="scale(0.015625)"/>
       <path id="DejaVuSans-52" d="M 2841 2188 
Q 3044 2119 3236 1894 
Q 3428 1669 3622 1275 
L 4263 0 
L 3584 0 
L 2988 1197 
Q 2756 1666 2539 1819 
Q 2322 1972 1947 1972 
L 1259 1972 
L 1259 0 
L 628 0 
L 628 4666 
L 2053 4666 
Q 2853 4666 3247 4331 
Q 3641 3997 3641 3322 
Q 3641 2881 3436 2590 
Q 3231 2300 2841 2188 
z
M 1259 4147 
L 1259 2491 
L 2053 2491 
Q 2509 2491 2742 2702 
Q 2975 2913 2975 3322 
Q 2975 3731 2742 3939 
Q 2509 4147 2053 4147 
L 1259 4147 
z
" transform="scale(0.015625)"/>
       <path id="DejaVuSans-51" d="M 2522 4238 
Q 1834 4238 1429 3725 
Q 1025 3213 1025 2328 
Q 1025 1447 1429 934 
Q 1834 422 2522 422 
Q 3209 422 3611 934 
Q 4013 1447 4013 2328 
Q 4013 3213 3611 3725 
Q 3209 4238 2522 4238 
z
M 3406 84 
L 4238 -825 
L 3475 -825 
L 2784 -78 
Q 2681 -84 2626 -87 
Q 2572 -91 2522 -91 
Q 1538 -91 948 567 
Q 359 1225 359 2328 
Q 359 3434 948 4092 
Q 1538 4750 2522 4750 
Q 3503 4750 4090 4092 
Q 4678 3434 4678 2328 
Q 4678 1516 4351 937 
Q 4025 359 3406 84 
z
" transform="scale(0.015625)"/>
       <path id="DejaVuSans-55" d="M 556 4666 
L 1191 4666 
L 1191 1831 
Q 1191 1081 1462 751 
Q 1734 422 2344 422 
Q 2950 422 3222 751 
Q 3494 1081 3494 1831 
L 3494 4666 
L 4128 4666 
L 4128 1753 
Q 4128 841 3676 375 
Q 3225 -91 2344 -91 
Q 1459 -91 1007 375 
Q 556 841 556 1753 
L 556 4666 
z
" transform="scale(0.015625)"/>
       <path id="DejaVuSans-49" d="M 628 4666 
L 1259 4666 
L 1259 0 
L 628 0 
L 628 4666 
z
" transform="scale(0.015625)"/>
       <path id="DejaVuSans-4e" d="M 628 4666 
L 1478 4666 
L 3547 763 
L 3547 4666 
L 4159 4666 
L 4159 0 
L 3309 0 
L 1241 3903 
L 1241 0 
L 628 0 
L 628 4666 
z
" transform="scale(0.015625)"/>
       <path id="DejaVuSans-45" d="M 628 4666 
L 3578 4666 
L 3578 4134 
L 1259 4134 
L 1259 2753 
L 3481 2753 
L 3481 2222 
L 1259 2222 
L 1259 531 
L 3634 531 
L 3634 0 
L 628 0 
L 628 4666 
z
" transform="scale(0.015625)"/>
       <path id="DejaVuSans-43" d="M 4122 4306 
L 4122 3641 
Q 3803 3938 3442 4084 
Q 3081 4231 2675 4231 
Q 1875 4231 1450 3742 
Q 1025 3253 1025 2328 
Q 1025 1406 1450 917 
Q 1875 428 2675 428 
Q 3081 428 3442 575 
Q 3803 722 4122 1019 
L 4122 359 
Q 3791 134 3420 21 
Q 3050 -91 2638 -91 
Q 1578 -91 968 557 
Q 359 1206 359 2328 
Q 359 3453 968 4101 
Q 1578 4750 2638 4750 
Q 3056 4750 3426 4639 
Q 3797 4528 4122 4306 
z
" transform="scale(0.015625)"/>
      </defs>
      <use xlink:href="#DejaVuSans-41"/>
      <use xlink:href="#DejaVuSans-52" transform="translate(68.408203 0)"/>
      <use xlink:href="#DejaVuSans-51" transform="translate(137.890625 0)"/>
      <use xlink:href="#DejaVuSans-55" transform="translate(216.601562 0)"/>
      <use xlink:href="#DejaVuSans-49" transform="translate(289.794922 0)"/>
      <use xlink:href="#DejaVuSans-4e" transform="translate(319.287109 0)"/>
      <use xlink:href="#DejaVuSans-45" transform="translate(394.091797 0)"/>
      <use xlink:href="#DejaVuSans-43" transform="translate(457.275391 0)"/>
     </g>
    </g>
    <g id="line2d_32">
     <defs>
      <path id="m3bbd210a7e" d="M 0 5 
C 1.326016 5 2.597899 4.473168 3.535534 3.535534 
C 4.473168 2.597899 5 1.326016 5 0 
C 5 -1.326016 4.473168 -2.597899 3.535534 -3.535534 
C 2.597899 -4.473168 1.326016 -5 0 -5 
C -1.326016 -5 -2.597899 -4.473168 -3.535534 -3.535534 
C -4.473168 -2.597899 -5 -1.326016 -5 0 
C -5 1.326016 -4.473168 2.597899 -3.535534 3.535534 
C -2.597899 4.473168 -1.326016 5 0 5 
z
"/>
     </defs>
     <g>
      <use xlink:href="#m3bbd210a7e" x="369.394531" y="916.64725" style="fill: #cccccc; fill-opacity: 0.65"/>
     </g>
    </g>
    <g id="text_19">
     <!-- SÃO JUDAS TADEU -->
     <g transform="translate(387.394531 920.14725) scale(0.1 -0.1)">
      <defs>
       <path id="DejaVuSans-53" d="M 3425 4513 
L 3425 3897 
Q 3066 4069 2747 4153 
Q 2428 4238 2131 4238 
Q 1616 4238 1336 4038 
Q 1056 3838 1056 3469 
Q 1056 3159 1242 3001 
Q 1428 2844 1947 2747 
L 2328 2669 
Q 3034 2534 3370 2195 
Q 3706 1856 3706 1288 
Q 3706 609 3251 259 
Q 2797 -91 1919 -91 
Q 1588 -91 1214 -16 
Q 841 59 441 206 
L 441 856 
Q 825 641 1194 531 
Q 1563 422 1919 422 
Q 2459 422 2753 634 
Q 3047 847 3047 1241 
Q 3047 1584 2836 1778 
Q 2625 1972 2144 2069 
L 1759 2144 
Q 1053 2284 737 2584 
Q 422 2884 422 3419 
Q 422 4038 858 4394 
Q 1294 4750 2059 4750 
Q 2388 4750 2728 4690 
Q 3069 4631 3425 4513 
z
" transform="scale(0.015625)"/>
       <path id="DejaVuSans-c3" d="M 2188 4044 
L 1331 1722 
L 3047 1722 
L 2188 4044 
z
M 1831 4666 
L 2547 4666 
L 4325 0 
L 3669 0 
L 3244 1197 
L 1141 1197 
L 716 0 
L 50 0 
L 1831 4666 
z
M 2175 5344 
L 1997 5447 
Q 1919 5491 1870 5508 
Q 1822 5525 1784 5525 
Q 1672 5525 1609 5447 
Q 1547 5369 1547 5229 
L 1547 5210 
L 1156 5210 
Q 1156 5525 1317 5709 
Q 1478 5894 1747 5894 
Q 1859 5894 1954 5869 
Q 2050 5844 2200 5760 
L 2378 5666 
Q 2450 5625 2503 5606 
Q 2556 5588 2603 5588 
Q 2703 5588 2765 5667 
Q 2828 5747 2828 5875 
L 2828 5894 
L 3219 5894 
Q 3213 5582 3052 5396 
Q 2891 5210 2628 5210 
Q 2522 5210 2430 5235 
Q 2338 5260 2175 5344 
z
" transform="scale(0.015625)"/>
       <path id="DejaVuSans-4f" d="M 2522 4238 
Q 1834 4238 1429 3725 
Q 1025 3213 1025 2328 
Q 1025 1447 1429 934 
Q 1834 422 2522 422 
Q 3209 422 3611 934 
Q 4013 1447 4013 2328 
Q 4013 3213 3611 3725 
Q 3209 4238 2522 4238 
z
M 2522 4750 
Q 3503 4750 4090 4092 
Q 4678 3434 4678 2328 
Q 4678 1225 4090 567 
Q 3503 -91 2522 -91 
Q 1538 -91 948 565 
Q 359 1222 359 2328 
Q 359 3434 948 4092 
Q 1538 4750 2522 4750 
z
" transform="scale(0.015625)"/>
       <path id="DejaVuSans-4a" d="M 628 4666 
L 1259 4666 
L 1259 325 
Q 1259 -519 939 -900 
Q 619 -1281 -91 -1281 
L -331 -1281 
L -331 -750 
L -134 -750 
Q 284 -750 456 -515 
Q 628 -281 628 325 
L 628 4666 
z
" transform="scale(0.015625)"/>
       <path id="DejaVuSans-44" d="M 1259 4147 
L 1259 519 
L 2022 519 
Q 2988 519 3436 956 
Q 3884 1394 3884 2338 
Q 3884 3275 3436 3711 
Q 2988 4147 2022 4147 
L 1259 4147 
z
M 628 4666 
L 1925 4666 
Q 3281 4666 3915 4102 
Q 4550 3538 4550 2338 
Q 4550 1131 3912 565 
Q 3275 0 1925 0 
L 628 0 
L 628 4666 
z
" transform="scale(0.015625)"/>
       <path id="DejaVuSans-54" d="M -19 4666 
L 3928 4666 
L 3928 4134 
L 2272 4134 
L 2272 0 
L 1638 0 
L 1638 4134 
L -19 4134 
L -19 4666 
z
" transform="scale(0.015625)"/>
      </defs>
      <use xlink:href="#DejaVuSans-53"/>
      <use xlink:href="#DejaVuSans-c3" transform="translate(65.351562 0)"/>
      <use xlink:href="#DejaVuSans-4f" transform="translate(132.009766 0)"/>
      <use xlink:href="#DejaVuSans-20" transform="translate(210.720703 0)"/>
      <use xlink:href="#DejaVuSans-4a" transform="translate(242.507812 0)"/>
      <use xlink:href="#DejaVuSans-55" transform="translate(272 0)"/>
      <use xlink:href="#DejaVuSans-44" transform="translate(345.193359 0)"/>
      <use xlink:href="#DejaVuSans-41" transform="translate(420.445312 0)"/>
      <use xlink:href="#DejaVuSans-53" transform="translate(488.853516 0)"/>
      <use xlink:href="#DejaVuSans-20" transform="translate(552.330078 0)"/>
      <use xlink:href="#DejaVuSans-54" transform="translate(584.117188 0)"/>
      <use xlink:href="#DejaVuSans-41" transform="translate(637.451172 0)"/>
      <use xlink:href="#DejaVuSans-44" transform="translate(705.859375 0)"/>
      <use xlink:href="#DejaVuSans-45" transform="translate(782.861328 0)"/>
      <use xlink:href="#DejaVuSans-55" transform="translate(846.044922 0)"/>
     </g>
    </g>
   </g>
  </g>
 </g>
 <defs>
  <clipPath id="p9a5f8840ef">
   <rect x="181.898925" y="103.68" width="374.20215" height="665.28"/>
  </clipPath>
 </defs>
</svg>
