<?xml version="1.0" encoding="utf-8" standalone="no"?>
<!DOCTYPE svg PUBLIC "-//W3C//DTD SVG 1.1//EN"
  "http://www.w3.org/Graphics/SVG/1.1/DTD/svg11.dtd">
<svg xmlns:xlink="http://www.w3.org/1999/xlink" width="720pt" height="864pt" viewBox="0 0 720 864" xmlns="http://www.w3.org/2000/svg" version="1.1">
 <metadata>
  <rdf:RDF xmlns:dc="http://purl.org/dc/elements/1.1/" xmlns:cc="http://creativecommons.org/ns#" xmlns:rdf="http://www.w3.org/1999/02/22-rdf-syntax-ns#">
   <cc:Work>
    <dc:type rdf:resource="http://purl.org/dc/dcmitype/StillImage"/>
    <dc:date>2025-06-16T16:52:46.428643</dc:date>
    <dc:format>image/svg+xml</dc:format>
    <dc:creator>
     <cc:Agent>
      <dc:title>Matplotlib v3.10.1, https://matplotlib.org/</dc:title>
     </cc:Agent>
    </dc:creator>
   </cc:Work>
  </rdf:RDF>
 </metadata>
 <defs>
  <style type="text/css">*{stroke-linejoin: round; stroke-linecap: butt}</style>
 </defs>
 <g id="figure_1">
  <g id="patch_1">
   <path d="M 0 864 
L 720 864 
L 720 0 
L 0 0 
z
" style="fill: #ffffff"/>
  </g>
  <g id="axes_1">
   <g id="patch_2">
    <path d="M 97.5522 768.96 
L 640.4478 768.96 
L 640.4478 103.68 
L 97.5522 103.68 
z
" style="fill: #ffffff"/>
   </g>
   <g id="PatchCollection_1">
    <path d="M 615.770728 210.329059 
L 615.728679 210.429964 
L 552.863191 294.789872 
L 544.770234 305.649602 
L 508.756059 372.519614 
L 507.809965 375.184446 
L 494.430095 412.868493 
L 490.907822 422.786286 
L 481.139928 450.286902 
L 480.940431 450.551132 
L 452.596859 488.057774 
L 440.733074 503.756253 
L 373.386605 524.470887 
L 328.275446 581.525419 
L 279.427098 603.157115 
L 255.530868 646.039884 
L 227.601709 696.159188 
L 208.128059 731.105658 
L 174.761079 738.72 
L 174.967584 738.394757 
L 175.11382 737.979404 
L 175.326399 737.665425 
L 175.338079 737.328449 
L 175.372185 736.834249 
L 175.27267 736.452218 
L 174.982535 736.148564 
L 174.636802 735.945815 
L 173.665479 735.618226 
L 172.080713 735.099151 
L 171.042112 734.906258 
L 170.394563 734.882792 
L 169.216735 734.78658 
L 167.512831 735.092581 
L 165.976655 735.53891 
L 164.635304 736.013867 
L 163.741537 736.405754 
L 162.735641 736.656374 
L 161.590984 736.682657 
L 160.279534 736.343334 
L 159.218975 735.920471 
L 158.494337 735.245112 
L 157.545907 734.597911 
L 156.848834 734.231368 
L 156.319022 733.865294 
L 155.761644 733.274882 
L 155.371059 732.993286 
L 154.617922 732.739381 
L 153.69659 732.597175 
L 152.412238 732.622988 
L 151.742263 732.565731 
L 150.681704 732.311356 
L 149.596849 731.894595 
L 148.258302 731.191545 
L 146.330139 730.055776 
L 144.429541 728.866504 
L 143.090526 728.136233 
L 141.510433 727.513438 
L 140.143853 727.295202 
L 138.992188 726.726848 
L 138.162895 725.89004 
L 137.306972 725.106735 
L 136.235667 724.457658 
L 135.190993 724.213139 
L 134.22621 724.211262 
L 133.181069 724.12866 
L 131.359429 723.640092 
L 130.073676 723.125711 
L 129.32521 722.099765 
L 128.496385 720.939122 
L 127.639995 720.236541 
L 127.37649 719.771439 
L 127.132141 719.098896 
L 127.092896 719.247203 
L 127.020946 719.345761 
L 126.931242 719.484681 
L 126.873309 719.59685 
L 126.810236 719.691185 
L 126.702778 719.86155 
L 126.617746 720.036609 
L 126.483191 720.270333 
L 126.375733 720.54395 
L 126.244915 721.033457 
L 126.159417 721.423936 
L 126.067377 721.672209 
L 125.921608 721.96413 
L 125.737061 722.261213 
L 125.445992 722.563928 
L 125.239019 722.715051 
L 124.74705 723.107407 
L 124.456447 723.303586 
L 124.149025 723.510558 
L 123.707048 723.796378 
L 123.511755 723.964396 
L 123.287963 724.17747 
L 123.069777 724.339857 
L 122.91887 724.474084 
L 122.678258 724.608311 
L 122.471753 724.63037 
L 122.404475 724.58156 
L 122.332525 724.529465 
L 122.229272 724.363793 
L 122.27319 724.26805 
L 135.106428 696.159188 
L 157.987885 646.039415 
L 163.292084 634.422193 
L 204.480575 544.130007 
L 244.003006 457.633259 
L 242.681745 457.024074 
L 242.436929 456.658938 
L 242.079515 456.389545 
L 241.722102 456.119683 
L 241.185749 455.761587 
L 241.007743 455.402553 
L 240.649862 454.774126 
L 240.379817 454.502386 
L 239.846266 453.965947 
L 238.9525 453.697492 
L 238.059667 453.338458 
L 237.701787 452.979424 
L 237.523314 452.889783 
L 236.629547 452.082073 
L 236.004892 451.81268 
L 235.545627 451.722569 
L 235.11019 451.813149 
L 234.663073 451.90279 
L 234.038885 452.082073 
L 232.966645 451.813149 
L 232.520463 451.364004 
L 232.252753 451.094611 
L 231.847218 450.370911 
L 231.44869 449.568833 
L 231.180513 448.671482 
L 231.001573 447.953883 
L 230.733396 447.415097 
L 230.107806 446.87725 
L 229.335981 446.399007 
L 228.679088 446.068601 
L 228.142734 446.014159 
L 227.517144 445.823144 
L 226.981725 445.710036 
L 223.943946 445.261361 
L 223.22912 444.902327 
L 222.96141 444.722575 
L 222.33582 444.273899 
L 221.978407 444.094148 
L 221.019231 443.825224 
L 220.916446 443.650635 
L 220.995871 443.288315 
L 221.352817 442.929281 
L 221.710697 442.480605 
L 221.978407 442.121571 
L 222.246116 441.672896 
L 222.514293 441.134579 
L 222.872641 440.237228 
L 223.051114 439.789022 
L 223.139883 439.519629 
L 223.40806 438.891201 
L 223.587 438.442526 
L 223.675769 438.083492 
L 223.85471 437.455064 
L 223.944413 437.09603 
L 224.086444 436.292075 
L 209.08303 425.74914 
L 203.729774 427.376762 
L 189.994826 425.183133 
L 178.090862 419.310459 
L 177.755875 419.323131 
L 175.522626 418.247436 
L 175.522626 417.981798 
L 174.986272 417.531245 
L 174.986272 417.173149 
L 174.628859 416.902348 
L 174.629326 416.545191 
L 174.182209 416.27439 
L 174.182209 415.916764 
L 173.467383 415.736074 
L 173.10997 415.466681 
L 172.39561 414.838723 
L 172.218539 414.386762 
L 171.77002 413.044959 
L 171.860191 412.955787 
L 171.59108 412.505235 
L 171.501844 411.697525 
L 171.412607 411.069098 
L 171.234601 410.978518 
L 171.234134 410.622769 
L 171.041645 410.427529 
L 170.609011 409.812243 
L 170.430071 409.543319 
L 170.072658 408.82572 
L 169.894185 408.107652 
L 169.893717 406.852675 
L 170.072658 406.313889 
L 170.340834 405.685931 
L 170.787951 404.698938 
L 171.502311 403.622305 
L 172.216203 402.903767 
L 172.931964 402.36545 
L 173.289377 402.006885 
L 173.914033 401.468099 
L 174.27238 400.930252 
L 174.807799 399.224253 
L 175.16568 397.071455 
L 175.433857 395.904711 
L 176.148216 393.660395 
L 176.506564 392.5847 
L 176.684569 391.559693 
L 176.506096 390.695195 
L 176.893411 389.734015 
L 177.662433 389.98135 
L 179.539203 390.250743 
L 179.991927 390.477897 
L 180.433437 390.699419 
L 180.858596 390.789529 
L 181.241238 390.700357 
L 181.330942 390.609777 
L 181.776657 390.339915 
L 182.312543 389.980411 
L 183.38198 389.98135 
L 183.916932 390.251212 
L 184.274812 390.340384 
L 184.808362 390.400458 
L 185.977314 390.341323 
L 186.870146 390.251682 
L 188.031623 390.161571 
L 188.566575 390.072399 
L 189.549111 389.623254 
L 191.069402 389.444441 
L 192.481301 389.443503 
L 193.044752 389.484334 
L 193.508222 389.623254 
L 194.373489 389.263282 
L 194.909375 389.083999 
L 196.071319 388.995297 
L 196.339495 388.814606 
L 197.233262 388.186648 
L 197.411268 388.097476 
L 198.324657 388.006896 
L 198.925018 388.097476 
L 199.406241 388.277697 
L 200.271508 387.917724 
L 200.97886 387.919132 
L 201.280675 388.070255 
L 201.872626 388.367339 
L 202.137533 388.45651 
L 202.86217 388.097007 
L 203.747527 388.098415 
L 204.104941 388.278167 
L 204.283414 388.367339 
L 204.375921 388.457449 
L 204.82771 388.187587 
L 205.005716 388.008304 
L 205.184656 387.738442 
L 205.363129 387.380346 
L 205.721009 387.020843 
L 205.89995 386.930732 
L 206.609637 386.929324 
L 207.145056 387.199656 
L 207.86035 387.469049 
L 209.07976 387.827145 
L 209.56145 387.648331 
L 210.365513 387.199656 
L 210.632755 387.020373 
L 211.169576 386.749572 
L 212.685662 386.840152 
L 213.129041 387.018966 
L 213.491127 386.929794 
L 213.579896 386.838744 
L 215.273521 386.929794 
L 215.541698 387.110015 
L 215.811743 387.290236 
L 216.433128 387.557752 
L 216.799419 387.469049 
L 217.775881 387.469518 
L 218.401938 387.55869 
L 218.679459 387.648331 
L 219.121437 387.46811 
L 219.507817 387.257852 
L 219.605463 387.035861 
L 219.833927 386.301366 
L 219.879246 385.963452 
L 219.875042 385.273073 
L 219.797952 384.517928 
L 219.744224 383.875421 
L 219.744691 382.891245 
L 220.013335 381.904722 
L 220.370748 381.186654 
L 220.791234 380.341398 
L 221.174811 379.660875 
L 221.785918 378.663089 
L 222.068111 378.045925 
L 222.157814 377.503854 
L 221.978874 376.965537 
L 221.621928 376.696613 
L 221.174811 376.42722 
L 220.996338 376.157827 
L 220.906167 375.531747 
L 220.995871 375.262823 
L 221.085575 374.994369 
L 221.354218 374.635804 
L 221.621461 374.277239 
L 221.889638 373.46906 
L 222.069512 372.662289 
L 222.247985 372.123033 
L 222.426458 371.494606 
L 222.425991 370.414218 
L 222.336755 370.054245 
L 222.158281 369.247005 
L 221.978874 368.439295 
L 221.978407 368.084954 
L 222.068111 367.365478 
L 222.246584 366.827161 
L 223.051114 366.01992 
L 223.676237 365.750058 
L 224.4803 365.570776 
L 224.925081 365.570776 
L 225.371263 365.570776 
L 225.676349 365.330012 
L 225.909953 365.1221 
L 226.096368 365.022134 
L 226.289325 364.874765 
L 226.446773 364.673894 
L 226.628984 364.520424 
L 226.782228 364.292801 
L 226.983127 364.045936 
L 227.141977 363.864307 
L 227.441924 363.650294 
L 227.607782 363.508558 
L 228.23384 362.789082 
L 228.501549 362.519689 
L 228.594056 362.492937 
L 228.594056 361.431322 
L 228.028269 361.586669 
L 226.445372 361.43977 
L 225.281559 361.080266 
L 224.391063 360.810873 
L 224.301359 360.63206 
L 223.851906 360.54195 
L 223.587467 360.54195 
L 223.047843 360.273964 
L 221.979341 360.183385 
L 221.354218 359.823881 
L 220.550155 359.284626 
L 220.282446 359.105813 
L 220.101637 358.926999 
L 219.150404 358.359584 
L 217.600678 356.862904 
L 216.886319 356.234477 
L 216.261196 355.876851 
L 216.172427 355.69663 
L 215.458535 355.157374 
L 215.100187 354.799279 
L 214.652136 354.169913 
L 214.74184 352.647889 
L 214.564301 352.106757 
L 214.385361 351.836894 
L 214.02748 351.567501 
L 213.312654 351.118826 
L 212.866938 350.669681 
L 212.330118 349.77233 
L 211.782551 349.13217 
L 211.258345 348.605586 
L 210.683681 348.118895 
L 210.007632 347.25909 
L 209.740857 346.540552 
L 209.560515 346.091408 
L 209.560983 345.823892 
L 209.203569 345.284167 
L 208.846156 345.015713 
L 208.779813 344.197678 
L 209.560983 344.212227 
L 210.249178 344.142297 
L 210.912612 344.064389 
L 211.972704 343.853193 
L 212.240881 343.763552 
L 212.420289 343.67391 
L 212.866471 343.49322 
L 212.955241 343.404987 
L 213.402357 343.135124 
L 213.758369 342.955372 
L 214.180724 342.531102 
L 214.652603 342.057552 
L 214.831543 341.969319 
L 215.725777 341.071499 
L 216.120567 340.674449 
L 216.618142 340.173678 
L 216.885852 339.993457 
L 217.689915 339.634423 
L 219.742822 339.634423 
L 220.188537 339.723595 
L 220.645466 339.812297 
L 221.085575 339.724534 
L 221.353751 339.634423 
L 221.531757 339.544782 
L 221.720976 339.402107 
L 221.888236 339.275858 
L 222.068111 339.185278 
L 222.514293 338.916354 
L 223.850505 338.915885 
L 224.156992 339.052928 
L 224.655969 339.275858 
L 225.189052 339.45561 
L 225.61094 339.496911 
L 226.327168 339.544782 
L 226.344455 339.060907 
L 226.344455 319.62941 
L 224.569069 318.184356 
L 223.763604 318.183417 
L 222.960476 318.273997 
L 221.438316 318.469237 
L 220.00072 318.682311 
L 219.118166 318.813252 
L 218.531355 318.670108 
L 217.95669 318.363169 
L 217.957157 318.185764 
L 217.3311 318.005073 
L 217.332034 317.737088 
L 216.974621 317.377115 
L 216.884918 317.287474 
L 216.527504 316.390123 
L 216.348564 315.49418 
L 216.080854 314.146277 
L 215.992552 313.69854 
L 215.993487 313.250334 
L 215.723441 312.621437 
L 215.456199 311.993479 
L 215.456199 311.633975 
L 215.188022 311.274472 
L 215.098786 310.916846 
L 214.205019 310.107728 
L 213.669133 309.389659 
L 213.222016 309.031094 
L 212.41842 308.222915 
L 211.257411 307.415675 
L 210.542584 307.056641 
L 209.470344 306.607965 
L 208.297188 306.108603 
L 207.37679 305.646317 
L 206.343329 305.081718 
L 204.930495 303.842228 
L 204.199317 303.197844 
L 203.574194 302.479775 
L 202.790688 301.603075 
L 202.257138 301.067105 
L 201.519418 300.236398 
L 200.712084 299.335762 
L 200.08883 298.709681 
L 199.289439 297.817023 
L 198.481639 297.09567 
L 197.678043 296.466773 
L 196.784743 295.569422 
L 196.24839 294.851353 
L 195.980213 294.402209 
L 195.548981 293.969021 
L 194.640731 293.415686 
L 194.372554 293.146293 
L 194.193614 293.056652 
L 193.478788 292.338583 
L 193.210611 292.247534 
L 192.408417 292.15977 
L 191.87253 292.065905 
L 191.511847 291.883806 
L 191.246006 291.351122 
L 191.156302 290.902446 
L 191.067066 290.185786 
L 190.977829 289.825343 
L 190.531179 289.46537 
L 189.727116 288.747302 
L 188.56564 287.131413 
L 187.940517 285.695276 
L 187.760643 284.977677 
L 187.581235 282.10775 
L 187.58217 280.761723 
L 187.493868 278.876441 
L 187.403697 276.630717 
L 187.225224 275.464912 
L 187.047685 274.388279 
L 186.867343 272.504874 
L 186.957981 270.890863 
L 186.867343 269.634008 
L 185.685777 267.60652 
L 393.5335 133.92 
L 382.404165 157.835905 
L 381.796796 159.150956 
L 381.861271 159.21103 
L 381.897713 159.244352 
L 382.036473 159.480423 
L 382.181308 159.823031 
L 382.275683 160.137479 
L 382.336887 160.452396 
L 382.364453 160.8119 
L 382.358379 161.051256 
L 382.295773 161.428594 
L 382.215414 161.770263 
L 382.01872 162.12038 
L 381.858 162.425912 
L 381.759887 162.722525 
L 381.750543 163.099863 
L 382.035539 163.729229 
L 382.383141 164.016926 
L 383.006862 164.511595 
L 383.488552 164.853734 
L 383.729164 165.042403 
L 384.130027 165.231541 
L 384.540235 165.2949 
L 384.825698 165.447431 
L 385.084064 165.753432 
L 385.146202 166.00499 
L 385.10135 166.292687 
L 385.056499 166.696776 
L 385.038745 166.912666 
L 385.065376 167.05628 
L 385.127514 167.137473 
L 385.421854 167.263253 
L 385.823185 167.36228 
L 386.072674 167.425639 
L 386.2689 167.587557 
L 386.331039 167.821281 
L 386.224049 168.180785 
L 386.054452 168.459095 
L 385.813374 168.728488 
L 385.500812 169.105826 
L 385.152743 169.438109 
L 384.849526 169.86895 
L 384.671053 170.120508 
L 384.635078 170.381453 
L 384.635078 170.633012 
L 384.706093 171.055405 
L 385.008843 171.262378 
L 385.276553 171.352019 
L 385.793751 171.514406 
L 386.390841 171.658489 
L 386.925793 171.793655 
L 387.49672 171.937738 
L 388.424126 172.199152 
L 389.154837 172.505153 
L 389.544021 172.72996 
L 389.933671 173.179574 
L 390.058883 173.572869 
L 390.156062 174.008403 
L 390.197643 174.359459 
L 390.392468 174.640585 
L 390.615326 174.921242 
L 390.921814 175.230528 
L 391.07459 175.680142 
L 391.074123 176.185606 
L 391.185318 176.733309 
L 391.254932 177.224693 
L 391.352111 177.646148 
L 391.485265 178.086845 
L 393.502664 179.068205 
L 393.814759 179.090733 
L 394.2829 179.091202 
L 394.661805 179.091671 
L 395.041177 179.091671 
L 395.330845 179.249365 
L 395.531277 179.406589 
L 395.687324 179.608868 
L 395.976992 179.811148 
L 396.19985 179.878731 
L 396.378323 179.878731 
L 396.824038 179.8792 
L 397.247795 179.879669 
L 397.782747 179.790028 
L 398.384976 179.76797 
L 398.674645 179.85808 
L 399.18717 179.880608 
L 399.588501 179.948191 
L 399.923021 180.038301 
L 400.391163 180.15094 
L 400.725683 180.083826 
L 401.28306 180.016712 
L 401.809135 179.919562 
L 402.254851 179.942559 
L 402.900998 180.280004 
L 403.190666 180.482284 
L 403.569571 180.90937 
L 403.680766 181.291401 
L 403.791961 181.763074 
L 403.948009 182.077991 
L 404.237677 182.505078 
L 404.683392 182.864582 
L 405.06183 183.202027 
L 405.373924 183.359251 
L 405.998112 183.449831 
L 406.577916 183.382717 
L 406.912436 183.135852 
L 407.403003 183.091266 
L 407.938422 183.091266 
L 408.294901 183.136791 
L 408.495333 183.316542 
L 408.785001 183.451239 
L 409.075137 183.294484 
L 409.2737 183.040109 
L 409.32042 182.980036 
L 409.342379 182.970649 
L 409.632982 182.845339 
L 409.989461 182.912922 
L 410.501987 183.205312 
L 410.970128 183.497702 
L 411.349033 183.790092 
L 411.90641 184.014899 
L 412.285315 184.059954 
L 412.508173 183.835617 
L 412.586196 183.620665 
L 412.715613 183.615034 
L 412.96697 183.343763 
L 413.021633 182.676851 
L 413.128156 182.081746 
L 413.18609 181.957844 
L 413.380448 181.540144 
L 413.649559 181.504475 
L 413.91867 181.630724 
L 414.116766 181.864918 
L 414.583506 182.478326 
L 414.709184 182.874907 
L 414.799355 183.254122 
L 414.781601 183.741282 
L 414.960542 184.210608 
L 415.211899 184.642857 
L 415.643131 185.130487 
L 416.074363 185.400818 
L 416.989621 185.382984 
L 418.103442 185.27457 
L 419.072897 185.256735 
L 419.594299 185.237962 
L 420.132522 185.509233 
L 420.779603 186.032061 
L 421.569183 186.537995 
L 422.18029 186.664243 
L 422.592833 186.699912 
L 423.760383 186.699912 
L 424.927933 186.682078 
L 425.663784 186.500918 
L 426.401036 186.303332 
L 427.172395 186.284559 
L 427.585873 186.356835 
L 427.908713 186.500918 
L 428.196512 186.699912 
L 428.645498 187.168769 
L 428.950584 187.673763 
L 429.39957 187.92626 
L 429.884531 187.998537 
L 430.351271 188.071282 
L 430.96191 188.359448 
L 431.339413 188.611945 
L 431.877635 188.756029 
L 432.434546 188.828774 
L 433.062939 188.666387 
L 433.727775 188.62978 
L 434.302439 188.702525 
L 434.877103 188.774802 
L 435.756854 189.279796 
L 436.780971 189.766956 
L 437.391144 190.037288 
L 438.163904 190.145233 
L 438.504965 190.145233 
L 439.007679 190.00115 
L 439.366962 190.00115 
L 439.815947 189.983316 
L 440.247179 190.055122 
L 440.893326 190.434338 
L 441.899223 190.795249 
L 442.814481 190.849222 
L 443.856352 190.849222 
L 444.48568 190.758642 
L 445.113606 190.415565 
L 445.652763 190.145233 
L 446.245648 189.784791 
L 446.766117 189.676376 
L 447.179595 189.694211 
L 447.772013 189.928874 
L 448.292482 190.145233 
L 448.507864 190.617375 
L 448.646624 190.685427 
L 449.337156 191.427431 
L 449.949664 192.19384 
L 450.051048 192.273156 
L 450.053852 192.274564 
L 450.986396 192.5632 
L 452.153479 192.761255 
L 453.303275 193.068194 
L 454.276934 193.55817 
L 455.114169 193.979625 
L 455.187988 193.971646 
L 456.411603 193.842582 
L 457.457679 194.002622 
L 458.106162 194.442849 
L 458.247726 194.503862 
L 459.117198 195.178283 
L 460.031054 196.009928 
L 460.810823 196.751932 
L 461.501822 197.56105 
L 462.237205 198.280057 
L 462.861394 198.977006 
L 463.485115 199.651427 
L 464.242924 200.235738 
L 464.933923 200.752935 
L 465.630529 201.187531 
L 466.94665 201.933759 
L 468.357148 202.757426 
L 469.063098 203.054509 
L 470.041429 203.168555 
L 471.475287 203.168555 
L 472.74936 203.168555 
L 474.069219 203.191552 
L 475.547462 203.465638 
L 477.254168 203.717197 
L 478.164755 204.288366 
L 478.86977 204.517397 
L 479.27951 204.539925 
L 479.780356 204.699965 
L 480.462945 205.020515 
L 481.306721 205.942271 
L 481.557611 206.130001 
L 482.119194 206.831174 
L 482.788234 207.559567 
L 482.814865 207.590074 
L 483.511937 208.037341 
L 484.513162 208.540458 
L 485.218177 208.654974 
L 485.969445 208.792017 
L 486.857139 209.180619 
L 488.312955 210.254436 
L 488.769416 210.726578 
L 489.192238 211.16399 
L 489.654306 211.642233 
L 490.117775 212.091377 
L 490.759718 212.711826 
L 491.642739 213.602137 
L 492.284681 214.141393 
L 492.854206 214.515915 
L 494.115197 214.986648 
L 495.572416 215.374781 
L 497.074018 215.534352 
L 498.348092 215.511824 
L 498.609727 216.12007 
L 498.899396 216.599252 
L 499.099827 217.183563 
L 499.322685 217.655235 
L 499.43388 218.217018 
L 499.454437 218.695261 
L 499.455839 218.733746 
L 499.433413 219.362642 
L 499.477798 220.17176 
L 499.477798 220.755601 
L 499.366135 221.16016 
L 499.232047 221.429553 
L 499.098426 221.834112 
L 499.053574 222.261199 
L 499.097959 222.799985 
L 499.342775 223.766327 
L 499.654869 224.283054 
L 499.807179 224.551978 
L 500.806067 225.641752 
L 501.691891 226.679432 
L 501.769915 227.11262 
L 501.868028 227.657507 
L 502.133869 228.547349 
L 502.871589 229.465819 
L 503.105192 229.636654 
L 503.846649 230.177787 
L 504.074646 230.533066 
L 504.436264 231.096726 
L 504.78994 232.401922 
L 504.849742 234.447713 
L 504.760973 236.31563 
L 504.554 237.027597 
L 504.112023 237.79823 
L 503.255633 238.421025 
L 502.635182 239.102486 
L 501.986699 240.288473 
L 501.543787 241.474459 
L 501.543787 242.393868 
L 501.720858 242.987565 
L 501.838594 243.431548 
L 521.808417 243.13775 
L 522.387287 243.271977 
L 522.734889 240.530175 
L 523.637532 239.30852 
L 524.657912 237.928233 
L 526.110458 236.469099 
L 526.856588 235.680162 
L 527.798477 235.325821 
L 528.426403 235.286398 
L 529.446783 235.246975 
L 530.310181 235.048919 
L 531.645458 234.655155 
L 533.293764 233.984958 
L 535.413014 233.038797 
L 537.611223 231.65804 
L 538.278861 231.185429 
L 539.181505 230.988782 
L 540.594806 230.436385 
L 541.968394 229.962835 
L 543.185468 229.686872 
L 544.480098 229.608494 
L 545.658394 229.608494 
L 546.128871 229.331592 
L 546.600283 229.095521 
L 546.99227 228.977251 
L 547.620663 228.977251 
L 547.935093 228.858981 
L 549.347459 227.79455 
L 550.604246 227.124353 
L 551.389153 226.49311 
L 551.939056 226.256569 
L 552.488024 226.256569 
L 553.116417 225.980136 
L 553.744343 225.389255 
L 554.058306 224.994552 
L 554.332557 224.363309 
L 554.843214 223.220501 
L 555.471607 222.313294 
L 555.902839 221.68252 
L 556.491987 221.288756 
L 556.884908 221.131062 
L 557.629636 221.0907 
L 558.41501 221.0907 
L 559.121427 221.0907 
L 559.592839 220.775782 
L 561.515862 220.144539 
L 563.282372 219.750775 
L 564.813409 219.237802 
L 566.50096 218.331064 
L 567.442849 217.858453 
L 568.188978 217.699821 
L 570.073691 217.778668 
L 571.054825 218.094524 
L 571.800487 218.094524 
L 572.428881 217.976254 
L 573.37077 217.699821 
L 574.312659 217.620974 
L 575.215302 217.620974 
L 576.472089 217.818091 
L 578.238131 218.094524 
L 579.219265 217.778668 
L 580.2004 217.581551 
L 581.456719 217.699821 
L 583.262473 217.620974 
L 584.754265 217.306057 
L 585.735399 216.989731 
L 586.912294 216.281049 
L 587.972853 215.136833 
L 588.953988 214.111825 
L 590.092104 213.598852 
L 591.505404 213.086818 
L 593.15371 212.652691 
L 594.213335 212.53489 
L 595.155224 212.652691 
L 595.705127 212.652691 
L 596.01909 212.456044 
L 596.058335 211.943071 
L 596.176539 211.036333 
L 596.568525 210.642099 
L 597.432391 210.28682 
L 598.217298 209.814209 
L 599.905317 209.656515 
L 601.475132 209.419506 
L 602.574002 209.340659 
L 603.595317 209.380082 
L 604.694187 209.814209 
L 605.596831 209.656515 
L 606.756906 209.22145 
L 607.795039 209.021048 
L 608.913532 208.819707 
L 609.792349 208.69956 
L 610.630985 208.780284 
L 611.290214 208.759634 
L 611.988688 208.860069 
L 613.646338 209.501638 
L 615.523108 210.224399 
L 615.770728 210.329059 
" clip-path="url(#p4e27500a45)" style="fill: #b3e2cd; fill-opacity: 0.65"/>
   </g>
   <g id="PatchCollection_2">
    <path d="M 566.87396 380.935666 
L 566.899074 381.053787 
L 568.198388 381.638085 
L 568.374425 382.239139 
L 568.595152 382.513741 
L 568.885806 382.248288 
L 569.040788 382.299383 
L 569.34862 382.590554 
L 570.488282 382.772153 
L 572.498819 384.369726 
L 573.253328 384.630413 
L 573.922951 385.028993 
L 574.640189 385.313576 
L 576.283954 386.439635 
L 577.306311 386.920141 
L 579.23658 388.177956 
L 580.785606 389.165059 
L 581.993043 389.532202 
L 583.517641 390.380791 
L 584.51369 390.581473 
L 585.965122 390.498564 
L 587.129486 390.023235 
L 587.132081 389.637294 
L 587.987935 389.126618 
L 588.237961 389.141408 
L 588.768651 389.442037 
L 590.981871 389.503159 
L 591.771895 389.160305 
L 592.69325 388.918334 
L 593.487982 388.866821 
L 594.332564 388.406099 
L 595.284986 388.266911 
L 597.521333 388.900739 
L 598.067049 388.903468 
L 598.607106 389.350262 
L 599.313128 389.247188 
L 599.946003 388.700936 
L 600.096666 387.597969 
L 600.889414 387.39346 
L 601.605132 386.730447 
L 602.60536 386.292077 
L 605.994308 386.638447 
L 607.549218 386.072726 
L 607.557778 386.138026 
L 607.684476 386.154286 
L 607.708135 386.583067 
L 608.434102 387.361394 
L 608.739665 387.993459 
L 609.077157 389.205454 
L 608.884393 389.55947 
L 608.304653 389.742174 
L 608.119984 390.142724 
L 608.119988 390.450288 
L 608.345269 390.681383 
L 608.2247 392.021692 
L 608.390074 392.663481 
L 607.648847 393.265415 
L 606.910732 393.439287 
L 605.880518 395.620733 
L 604.687617 396.021115 
L 604.316995 397.236171 
L 603.066565 399.606544 
L 602.454753 400.403303 
L 601.915214 400.428774 
L 601.572159 400.871648 
L 600.580896 401.892364 
L 600.24906 401.817634 
L 599.408246 402.094021 
L 599.004343 402.411301 
L 597.932211 404.566902 
L 597.653664 404.718512 
L 597.31803 404.692902 
L 597.387123 405.333252 
L 596.564948 406.673155 
L 597.020176 408.048373 
L 597.70319 411.189668 
L 597.389635 411.483595 
L 596.93787 411.340926 
L 596.316648 410.860755 
L 595.493173 411.275289 
L 595.388117 411.939579 
L 595.062209 412.080783 
L 594.216275 414.332628 
L 594.303238 415.13436 
L 594.606214 416.170763 
L 593.968808 417.6723 
L 593.591239 417.789555 
L 593.198358 418.060929 
L 593.069717 418.855605 
L 593.269176 419.763783 
L 593.638165 420.268959 
L 593.569151 421.032983 
L 593.237613 422.560938 
L 593.578005 423.353594 
L 593.658053 424.138342 
L 593.883422 424.697263 
L 593.795928 425.716202 
L 593.759086 427.683945 
L 593.4916 427.970609 
L 593.696766 428.689001 
L 593.498179 429.09319 
L 594.312561 431.013113 
L 594.206986 431.744401 
L 594.65247 432.765395 
L 594.69491 433.484205 
L 595.503809 434.729642 
L 596.527488 435.86639 
L 599.211981 440.259501 
L 599.098947 441.212037 
L 599.324086 441.789082 
L 598.185445 443.38309 
L 596.696394 446.509337 
L 596.717461 448.830751 
L 596.447023 450.045371 
L 595.717496 451.318951 
L 595.541152 452.096557 
L 594.861222 453.022875 
L 594.149435 453.100081 
L 592.27813 456.975495 
L 592.48768 458.177054 
L 592.570791 459.516806 
L 592.272217 460.204946 
L 591.07892 460.255163 
L 590.614909 460.667319 
L 590.450321 462.118341 
L 590.421912 462.652881 
L 590.163879 462.946717 
L 590.155593 463.342718 
L 589.80735 463.631709 
L 587.979953 463.693046 
L 587.051153 463.775273 
L 584.470927 465.419146 
L 582.681702 465.257209 
L 579.488041 468.020465 
L 576.143306 468.910698 
L 573.516187 470.662051 
L 571.43343 473.156152 
L 570.811517 476.006166 
L 571.009161 477.366274 
L 570.80934 478.012326 
L 571.741184 481.249947 
L 571.571366 481.754874 
L 570.948015 481.961314 
L 570.061769 483.625413 
L 570.019928 484.335849 
L 569.516891 484.971843 
L 568.110816 488.10787 
L 567.599391 488.936361 
L 567.207139 489.262467 
L 566.865063 490.338251 
L 566.361245 492.255052 
L 566.293026 493.632957 
L 566.751282 500.054961 
L 566.234904 501.452802 
L 565.742605 501.617936 
L 563.779992 503.682657 
L 560.683722 507.901944 
L 556.733652 511.897807 
L 555.221613 512.972945 
L 553.395333 515.08767 
L 552.750068 516.086784 
L 550.870368 517.427867 
L 549.746772 518.508271 
L 549.129917 518.865809 
L 547.021383 518.980991 
L 546.281889 519.185735 
L 545.854818 519.079162 
L 545.531433 518.762065 
L 544.970512 518.690277 
L 542.914142 519.06706 
L 541.421932 519.536514 
L 540.226212 519.834671 
L 539.79846 519.762818 
L 535.74402 520.538172 
L 534.456332 521.011035 
L 530.314008 522.692662 
L 526.142156 523.597929 
L 524.142532 524.767687 
L 522.020064 526.188103 
L 520.735249 526.203638 
L 519.239979 527.33806 
L 517.114676 529.186446 
L 516.198623 530.379582 
L 515.392124 531.140621 
L 514.241022 531.637079 
L 513.527411 532.244448 
L 512.689083 532.651121 
L 511.490784 533.601885 
L 509.468534 534.18154 
L 508.007648 534.078879 
L 507.756051 533.868458 
L 507.156571 533.870666 
L 507.059563 534.188593 
L 506.90795 534.199196 
L 506.541947 534.476735 
L 506.454127 534.814535 
L 505.920449 535.304723 
L 505.301523 535.297325 
L 504.986699 535.423012 
L 504.669833 535.946689 
L 503.021938 536.534922 
L 502.775397 536.344539 
L 502.429635 536.279451 
L 501.943071 536.417255 
L 500.828856 537.201273 
L 500.15779 537.970595 
L 499.627002 538.584109 
L 499.395379 538.772105 
L 497.888693 539.465738 
L 497.903803 539.667033 
L 497.404032 539.899418 
L 497.18468 540.092426 
L 496.884111 540.859082 
L 496.260595 541.450475 
L 496.046252 541.99142 
L 495.870751 542.769799 
L 495.623348 547.029156 
L 495.763248 547.430769 
L 495.770951 547.796497 
L 495.659087 547.976427 
L 495.864648 548.436913 
L 495.414627 550.737307 
L 495.592186 551.497145 
L 496.236008 552.655245 
L 496.176842 553.244312 
L 496.417252 553.710458 
L 496.890101 553.992983 
L 496.825114 554.258017 
L 496.917137 554.874104 
L 496.853063 555.285231 
L 496.939537 555.419897 
L 496.826822 556.153041 
L 496.956802 556.693952 
L 497.185171 557.75606 
L 496.812604 559.289501 
L 496.879886 559.847454 
L 496.799999 559.912721 
L 496.819168 560.196978 
L 496.399934 560.655984 
L 496.26033 560.772175 
L 496.039966 561.023687 
L 495.516655 561.259327 
L 495.254685 561.531837 
L 494.949594 562.238198 
L 495.049963 562.867577 
L 494.754493 562.715378 
L 494.050097 562.340155 
L 493.725344 562.621385 
L 493.652603 562.746816 
L 493.831748 563.133883 
L 493.939389 563.299806 
L 493.927487 563.311817 
L 493.985329 563.518393 
L 492.869604 562.806232 
L 492.314203 562.263914 
L 490.27145 561.129633 
L 490.06347 560.806619 
L 487.927679 560.251352 
L 486.05246 559.278662 
L 484.39335 559.059664 
L 484.198211 558.913398 
L 483.640959 559.089984 
L 482.152895 558.46134 
L 477.978338 559.566918 
L 475.776332 559.502879 
L 475.356274 559.309246 
L 474.679376 559.836577 
L 473.952229 560.720222 
L 470.73762 560.918164 
L 465.81725 559.13362 
L 456.097429 557.487414 
L 452.46074 557.742524 
L 445.742237 557.089315 
L 441.990929 557.559684 
L 439.744119 558.130604 
L 437.18722 558.357799 
L 433.877591 557.394742 
L 430.542433 555.811257 
L 428.027619 553.98758 
L 427.063657 552.871964 
L 422.159733 549.251235 
L 415.07312 545.929596 
L 412.78966 545.408297 
L 409.012912 543.80222 
L 406.066664 542.831375 
L 404.352708 540.897522 
L 403.498076 539.121209 
L 403.016879 537.093318 
L 400.537854 534.817364 
L 400.057489 533.30128 
L 398.225591 530.702062 
L 396.474801 529.458603 
L 388.349205 526.46704 
L 383.936626 524.62286 
L 382.950443 523.159715 
L 379.574587 524.889012 
L 378.043899 524.893532 
L 370.142336 523.4399 
L 368.340778 523.688468 
L 367.131443 524.97715 
L 364.861651 526.610663 
L 364.09558 526.379035 
L 360.735476 523.490284 
L 355.256855 527.808421 
L 349.949829 530.471123 
L 343.901772 530.52782 
L 341.3692 531.791765 
L 337.735325 532.955397 
L 334.779269 533.666393 
L 332.378128 534.659937 
L 330.1838 536.243451 
L 326.652473 538.072936 
L 324.913192 539.705772 
L 323.603532 541.417874 
L 321.734104 543.024059 
L 320.202523 543.913007 
L 319.658455 544.55351 
L 317.946905 547.355062 
L 315.584988 550.170728 
L 313.792058 553.022127 
L 312.479822 555.88239 
L 308.953373 558.139638 
L 305.926276 560.657884 
L 304.370615 563.299608 
L 302.981383 566.293962 
L 302.148739 570.58443 
L 302.008895 572.794501 
L 300.84209 573.3077 
L 299.996076 566.949053 
L 299.036808 563.672775 
L 296.492416 561.314522 
L 291.496862 561.685041 
L 276.507704 565.860158 
L 271.225648 565.563839 
L 266.215272 563.536996 
L 265.410089 559.626579 
L 267.591822 555.274025 
L 271.547297 549.284293 
L 272.444023 546.168576 
L 272.484881 543.686971 
L 273.054088 540.94228 
L 275.505888 538.02991 
L 277.451938 536.284952 
L 276.740054 534.878145 
L 276.67462 532.455544 
L 276.258089 529.661431 
L 273.662145 526.023517 
L 270.483435 524.496593 
L 266.708855 525.336398 
L 262.69847 526.797595 
L 258.531846 529.557492 
L 256.377365 532.792555 
L 254.572132 536.262342 
L 250.355938 540.27606 
L 246.527751 541.280625 
L 244.15024 540.550062 
L 242.37325 539.488331 
L 241.125898 537.36706 
L 240.557194 534.034343 
L 239.285189 531.087103 
L 237.119036 530.221518 
L 230.848829 530.193871 
L 225.010459 529.902068 
L 220.70021 529.416785 
L 218.906595 530.891936 
L 217.393347 534.142428 
L 215.924797 536.199362 
L 213.651499 537.569693 
L 212.470167 538.960288 
L 208.852693 546.060064 
L 206.140557 548.154897 
L 203.463106 548.675476 
L 202.507139 549.253377 
L 264.622178 413.645964 
L 503.732375 387.812961 
L 550.289263 382.45789 
L 566.87396 380.935666 
L 566.87396 380.935666 
" clip-path="url(#p4e27500a45)" style="fill: none; stroke: #000000; stroke-width: 2"/>
   </g>
   <g id="matplotlib.axis_1">
    <g id="xtick_1">
     <g id="line2d_1">
      <path d="M 137.042533 768.96 
L 137.042533 103.68 
" clip-path="url(#p4e27500a45)" style="fill: none; stroke: #b0b0b0; stroke-width: 0.8; stroke-linecap: square"/>
     </g>
     <g id="line2d_2">
      <defs>
       <path id="m1ef8bd976a" d="M 0 0 
L 0 3.5 
" style="stroke: #000000; stroke-width: 0.8"/>
      </defs>
      <g>
       <use xlink:href="#m1ef8bd976a" x="137.042533" y="768.96" style="stroke: #000000; stroke-width: 0.8"/>
      </g>
     </g>
     <g id="text_1">
      <!-- −58.0 -->
      <g transform="translate(128.158952 803.002415) rotate(-45) scale(0.1 -0.1)">
       <defs>
        <path id="DejaVuSans-2212" d="M 678 2272 
L 4684 2272 
L 4684 1741 
L 678 1741 
L 678 2272 
z
" transform="scale(0.015625)"/>
        <path id="DejaVuSans-35" d="M 691 4666 
L 3169 4666 
L 3169 4134 
L 1269 4134 
L 1269 2991 
Q 1406 3038 1543 3061 
Q 1681 3084 1819 3084 
Q 2600 3084 3056 2656 
Q 3513 2228 3513 1497 
Q 3513 744 3044 326 
Q 2575 -91 1722 -91 
Q 1428 -91 1123 -41 
Q 819 9 494 109 
L 494 744 
Q 775 591 1075 516 
Q 1375 441 1709 441 
Q 2250 441 2565 725 
Q 2881 1009 2881 1497 
Q 2881 1984 2565 2268 
Q 2250 2553 1709 2553 
Q 1456 2553 1204 2497 
Q 953 2441 691 2322 
L 691 4666 
z
" transform="scale(0.015625)"/>
        <path id="DejaVuSans-38" d="M 2034 2216 
Q 1584 2216 1326 1975 
Q 1069 1734 1069 1313 
Q 1069 891 1326 650 
Q 1584 409 2034 409 
Q 2484 409 2743 651 
Q 3003 894 3003 1313 
Q 3003 1734 2745 1975 
Q 2488 2216 2034 2216 
z
M 1403 2484 
Q 997 2584 770 2862 
Q 544 3141 544 3541 
Q 544 4100 942 4425 
Q 1341 4750 2034 4750 
Q 2731 4750 3128 4425 
Q 3525 4100 3525 3541 
Q 3525 3141 3298 2862 
Q 3072 2584 2669 2484 
Q 3125 2378 3379 2068 
Q 3634 1759 3634 1313 
Q 3634 634 3220 271 
Q 2806 -91 2034 -91 
Q 1263 -91 848 271 
Q 434 634 434 1313 
Q 434 1759 690 2068 
Q 947 2378 1403 2484 
z
M 1172 3481 
Q 1172 3119 1398 2916 
Q 1625 2713 2034 2713 
Q 2441 2713 2670 2916 
Q 2900 3119 2900 3481 
Q 2900 3844 2670 4047 
Q 2441 4250 2034 4250 
Q 1625 4250 1398 4047 
Q 1172 3844 1172 3481 
z
" transform="scale(0.015625)"/>
        <path id="DejaVuSans-2e" d="M 684 794 
L 1344 794 
L 1344 0 
L 684 0 
L 684 794 
z
" transform="scale(0.015625)"/>
        <path id="DejaVuSans-30" d="M 2034 4250 
Q 1547 4250 1301 3770 
Q 1056 3291 1056 2328 
Q 1056 1369 1301 889 
Q 1547 409 2034 409 
Q 2525 409 2770 889 
Q 3016 1369 3016 2328 
Q 3016 3291 2770 3770 
Q 2525 4250 2034 4250 
z
M 2034 4750 
Q 2819 4750 3233 4129 
Q 3647 3509 3647 2328 
Q 3647 1150 3233 529 
Q 2819 -91 2034 -91 
Q 1250 -91 836 529 
Q 422 1150 422 2328 
Q 422 3509 836 4129 
Q 1250 4750 2034 4750 
z
" transform="scale(0.015625)"/>
       </defs>
       <use xlink:href="#DejaVuSans-2212"/>
       <use xlink:href="#DejaVuSans-35" transform="translate(83.789062 0)"/>
       <use xlink:href="#DejaVuSans-38" transform="translate(147.412109 0)"/>
       <use xlink:href="#DejaVuSans-2e" transform="translate(211.035156 0)"/>
       <use xlink:href="#DejaVuSans-30" transform="translate(242.822266 0)"/>
      </g>
     </g>
    </g>
    <g id="xtick_2">
     <g id="line2d_3">
      <path d="M 230.483908 768.96 
L 230.483908 103.68 
" clip-path="url(#p4e27500a45)" style="fill: none; stroke: #b0b0b0; stroke-width: 0.8; stroke-linecap: square"/>
     </g>
     <g id="line2d_4">
      <g>
       <use xlink:href="#m1ef8bd976a" x="230.483908" y="768.96" style="stroke: #000000; stroke-width: 0.8"/>
      </g>
     </g>
     <g id="text_2">
      <!-- −57.8 -->
      <g transform="translate(221.600327 803.002415) rotate(-45) scale(0.1 -0.1)">
       <defs>
        <path id="DejaVuSans-37" d="M 525 4666 
L 3525 4666 
L 3525 4397 
L 1831 0 
L 1172 0 
L 2766 4134 
L 525 4134 
L 525 4666 
z
" transform="scale(0.015625)"/>
       </defs>
       <use xlink:href="#DejaVuSans-2212"/>
       <use xlink:href="#DejaVuSans-35" transform="translate(83.789062 0)"/>
       <use xlink:href="#DejaVuSans-37" transform="translate(147.412109 0)"/>
       <use xlink:href="#DejaVuSans-2e" transform="translate(211.035156 0)"/>
       <use xlink:href="#DejaVuSans-38" transform="translate(242.822266 0)"/>
      </g>
     </g>
    </g>
    <g id="xtick_3">
     <g id="line2d_5">
      <path d="M 323.925283 768.96 
L 323.925283 103.68 
" clip-path="url(#p4e27500a45)" style="fill: none; stroke: #b0b0b0; stroke-width: 0.8; stroke-linecap: square"/>
     </g>
     <g id="line2d_6">
      <g>
       <use xlink:href="#m1ef8bd976a" x="323.925283" y="768.96" style="stroke: #000000; stroke-width: 0.8"/>
      </g>
     </g>
     <g id="text_3">
      <!-- −57.6 -->
      <g transform="translate(315.041701 803.002415) rotate(-45) scale(0.1 -0.1)">
       <defs>
        <path id="DejaVuSans-36" d="M 2113 2584 
Q 1688 2584 1439 2293 
Q 1191 2003 1191 1497 
Q 1191 994 1439 701 
Q 1688 409 2113 409 
Q 2538 409 2786 701 
Q 3034 994 3034 1497 
Q 3034 2003 2786 2293 
Q 2538 2584 2113 2584 
z
M 3366 4563 
L 3366 3988 
Q 3128 4100 2886 4159 
Q 2644 4219 2406 4219 
Q 1781 4219 1451 3797 
Q 1122 3375 1075 2522 
Q 1259 2794 1537 2939 
Q 1816 3084 2150 3084 
Q 2853 3084 3261 2657 
Q 3669 2231 3669 1497 
Q 3669 778 3244 343 
Q 2819 -91 2113 -91 
Q 1303 -91 875 529 
Q 447 1150 447 2328 
Q 447 3434 972 4092 
Q 1497 4750 2381 4750 
Q 2619 4750 2861 4703 
Q 3103 4656 3366 4563 
z
" transform="scale(0.015625)"/>
       </defs>
       <use xlink:href="#DejaVuSans-2212"/>
       <use xlink:href="#DejaVuSans-35" transform="translate(83.789062 0)"/>
       <use xlink:href="#DejaVuSans-37" transform="translate(147.412109 0)"/>
       <use xlink:href="#DejaVuSans-2e" transform="translate(211.035156 0)"/>
       <use xlink:href="#DejaVuSans-36" transform="translate(242.822266 0)"/>
      </g>
     </g>
    </g>
    <g id="xtick_4">
     <g id="line2d_7">
      <path d="M 417.366657 768.96 
L 417.366657 103.68 
" clip-path="url(#p4e27500a45)" style="fill: none; stroke: #b0b0b0; stroke-width: 0.8; stroke-linecap: square"/>
     </g>
     <g id="line2d_8">
      <g>
       <use xlink:href="#m1ef8bd976a" x="417.366657" y="768.96" style="stroke: #000000; stroke-width: 0.8"/>
      </g>
     </g>
     <g id="text_4">
      <!-- −57.4 -->
      <g transform="translate(408.483076 803.002415) rotate(-45) scale(0.1 -0.1)">
       <defs>
        <path id="DejaVuSans-34" d="M 2419 4116 
L 825 1625 
L 2419 1625 
L 2419 4116 
z
M 2253 4666 
L 3047 4666 
L 3047 1625 
L 3713 1625 
L 3713 1100 
L 3047 1100 
L 3047 0 
L 2419 0 
L 2419 1100 
L 313 1100 
L 313 1709 
L 2253 4666 
z
" transform="scale(0.015625)"/>
       </defs>
       <use xlink:href="#DejaVuSans-2212"/>
       <use xlink:href="#DejaVuSans-35" transform="translate(83.789062 0)"/>
       <use xlink:href="#DejaVuSans-37" transform="translate(147.412109 0)"/>
       <use xlink:href="#DejaVuSans-2e" transform="translate(211.035156 0)"/>
       <use xlink:href="#DejaVuSans-34" transform="translate(242.822266 0)"/>
      </g>
     </g>
    </g>
    <g id="xtick_5">
     <g id="line2d_9">
      <path d="M 510.808032 768.96 
L 510.808032 103.68 
" clip-path="url(#p4e27500a45)" style="fill: none; stroke: #b0b0b0; stroke-width: 0.8; stroke-linecap: square"/>
     </g>
     <g id="line2d_10">
      <g>
       <use xlink:href="#m1ef8bd976a" x="510.808032" y="768.96" style="stroke: #000000; stroke-width: 0.8"/>
      </g>
     </g>
     <g id="text_5">
      <!-- −57.2 -->
      <g transform="translate(501.92445 803.002415) rotate(-45) scale(0.1 -0.1)">
       <defs>
        <path id="DejaVuSans-32" d="M 1228 531 
L 3431 531 
L 3431 0 
L 469 0 
L 469 531 
Q 828 903 1448 1529 
Q 2069 2156 2228 2338 
Q 2531 2678 2651 2914 
Q 2772 3150 2772 3378 
Q 2772 3750 2511 3984 
Q 2250 4219 1831 4219 
Q 1534 4219 1204 4116 
Q 875 4013 500 3803 
L 500 4441 
Q 881 4594 1212 4672 
Q 1544 4750 1819 4750 
Q 2544 4750 2975 4387 
Q 3406 4025 3406 3419 
Q 3406 3131 3298 2873 
Q 3191 2616 2906 2266 
Q 2828 2175 2409 1742 
Q 1991 1309 1228 531 
z
" transform="scale(0.015625)"/>
       </defs>
       <use xlink:href="#DejaVuSans-2212"/>
       <use xlink:href="#DejaVuSans-35" transform="translate(83.789062 0)"/>
       <use xlink:href="#DejaVuSans-37" transform="translate(147.412109 0)"/>
       <use xlink:href="#DejaVuSans-2e" transform="translate(211.035156 0)"/>
       <use xlink:href="#DejaVuSans-32" transform="translate(242.822266 0)"/>
      </g>
     </g>
    </g>
    <g id="xtick_6">
     <g id="line2d_11">
      <path d="M 604.249406 768.96 
L 604.249406 103.68 
" clip-path="url(#p4e27500a45)" style="fill: none; stroke: #b0b0b0; stroke-width: 0.8; stroke-linecap: square"/>
     </g>
     <g id="line2d_12">
      <g>
       <use xlink:href="#m1ef8bd976a" x="604.249406" y="768.96" style="stroke: #000000; stroke-width: 0.8"/>
      </g>
     </g>
     <g id="text_6">
      <!-- −57.0 -->
      <g transform="translate(595.365825 803.002415) rotate(-45) scale(0.1 -0.1)">
       <use xlink:href="#DejaVuSans-2212"/>
       <use xlink:href="#DejaVuSans-35" transform="translate(83.789062 0)"/>
       <use xlink:href="#DejaVuSans-37" transform="translate(147.412109 0)"/>
       <use xlink:href="#DejaVuSans-2e" transform="translate(211.035156 0)"/>
       <use xlink:href="#DejaVuSans-30" transform="translate(242.822266 0)"/>
      </g>
     </g>
    </g>
    <g id="text_7">
     <!-- Longitude (°) -->
     <g transform="translate(336.139844 816.071414) scale(0.1 -0.1)">
      <defs>
       <path id="DejaVuSans-4c" d="M 628 4666 
L 1259 4666 
L 1259 531 
L 3531 531 
L 3531 0 
L 628 0 
L 628 4666 
z
" transform="scale(0.015625)"/>
       <path id="DejaVuSans-6f" d="M 1959 3097 
Q 1497 3097 1228 2736 
Q 959 2375 959 1747 
Q 959 1119 1226 758 
Q 1494 397 1959 397 
Q 2419 397 2687 759 
Q 2956 1122 2956 1747 
Q 2956 2369 2687 2733 
Q 2419 3097 1959 3097 
z
M 1959 3584 
Q 2709 3584 3137 3096 
Q 3566 2609 3566 1747 
Q 3566 888 3137 398 
Q 2709 -91 1959 -91 
Q 1206 -91 779 398 
Q 353 888 353 1747 
Q 353 2609 779 3096 
Q 1206 3584 1959 3584 
z
" transform="scale(0.015625)"/>
       <path id="DejaVuSans-6e" d="M 3513 2113 
L 3513 0 
L 2938 0 
L 2938 2094 
Q 2938 2591 2744 2837 
Q 2550 3084 2163 3084 
Q 1697 3084 1428 2787 
Q 1159 2491 1159 1978 
L 1159 0 
L 581 0 
L 581 3500 
L 1159 3500 
L 1159 2956 
Q 1366 3272 1645 3428 
Q 1925 3584 2291 3584 
Q 2894 3584 3203 3211 
Q 3513 2838 3513 2113 
z
" transform="scale(0.015625)"/>
       <path id="DejaVuSans-67" d="M 2906 1791 
Q 2906 2416 2648 2759 
Q 2391 3103 1925 3103 
Q 1463 3103 1205 2759 
Q 947 2416 947 1791 
Q 947 1169 1205 825 
Q 1463 481 1925 481 
Q 2391 481 2648 825 
Q 2906 1169 2906 1791 
z
M 3481 434 
Q 3481 -459 3084 -895 
Q 2688 -1331 1869 -1331 
Q 1566 -1331 1297 -1286 
Q 1028 -1241 775 -1147 
L 775 -588 
Q 1028 -725 1275 -790 
Q 1522 -856 1778 -856 
Q 2344 -856 2625 -561 
Q 2906 -266 2906 331 
L 2906 616 
Q 2728 306 2450 153 
Q 2172 0 1784 0 
Q 1141 0 747 490 
Q 353 981 353 1791 
Q 353 2603 747 3093 
Q 1141 3584 1784 3584 
Q 2172 3584 2450 3431 
Q 2728 3278 2906 2969 
L 2906 3500 
L 3481 3500 
L 3481 434 
z
" transform="scale(0.015625)"/>
       <path id="DejaVuSans-69" d="M 603 3500 
L 1178 3500 
L 1178 0 
L 603 0 
L 603 3500 
z
M 603 4863 
L 1178 4863 
L 1178 4134 
L 603 4134 
L 603 4863 
z
" transform="scale(0.015625)"/>
       <path id="DejaVuSans-74" d="M 1172 4494 
L 1172 3500 
L 2356 3500 
L 2356 3053 
L 1172 3053 
L 1172 1153 
Q 1172 725 1289 603 
Q 1406 481 1766 481 
L 2356 481 
L 2356 0 
L 1766 0 
Q 1100 0 847 248 
Q 594 497 594 1153 
L 594 3053 
L 172 3053 
L 172 3500 
L 594 3500 
L 594 4494 
L 1172 4494 
z
" transform="scale(0.015625)"/>
       <path id="DejaVuSans-75" d="M 544 1381 
L 544 3500 
L 1119 3500 
L 1119 1403 
Q 1119 906 1312 657 
Q 1506 409 1894 409 
Q 2359 409 2629 706 
Q 2900 1003 2900 1516 
L 2900 3500 
L 3475 3500 
L 3475 0 
L 2900 0 
L 2900 538 
Q 2691 219 2414 64 
Q 2138 -91 1772 -91 
Q 1169 -91 856 284 
Q 544 659 544 1381 
z
M 1991 3584 
L 1991 3584 
z
" transform="scale(0.015625)"/>
       <path id="DejaVuSans-64" d="M 2906 2969 
L 2906 4863 
L 3481 4863 
L 3481 0 
L 2906 0 
L 2906 525 
Q 2725 213 2448 61 
Q 2172 -91 1784 -91 
Q 1150 -91 751 415 
Q 353 922 353 1747 
Q 353 2572 751 3078 
Q 1150 3584 1784 3584 
Q 2172 3584 2448 3432 
Q 2725 3281 2906 2969 
z
M 947 1747 
Q 947 1113 1208 752 
Q 1469 391 1925 391 
Q 2381 391 2643 752 
Q 2906 1113 2906 1747 
Q 2906 2381 2643 2742 
Q 2381 3103 1925 3103 
Q 1469 3103 1208 2742 
Q 947 2381 947 1747 
z
" transform="scale(0.015625)"/>
       <path id="DejaVuSans-65" d="M 3597 1894 
L 3597 1613 
L 953 1613 
Q 991 1019 1311 708 
Q 1631 397 2203 397 
Q 2534 397 2845 478 
Q 3156 559 3463 722 
L 3463 178 
Q 3153 47 2828 -22 
Q 2503 -91 2169 -91 
Q 1331 -91 842 396 
Q 353 884 353 1716 
Q 353 2575 817 3079 
Q 1281 3584 2069 3584 
Q 2775 3584 3186 3129 
Q 3597 2675 3597 1894 
z
M 3022 2063 
Q 3016 2534 2758 2815 
Q 2500 3097 2075 3097 
Q 1594 3097 1305 2825 
Q 1016 2553 972 2059 
L 3022 2063 
z
" transform="scale(0.015625)"/>
       <path id="DejaVuSans-20" transform="scale(0.015625)"/>
       <path id="DejaVuSans-28" d="M 1984 4856 
Q 1566 4138 1362 3434 
Q 1159 2731 1159 2009 
Q 1159 1288 1364 580 
Q 1569 -128 1984 -844 
L 1484 -844 
Q 1016 -109 783 600 
Q 550 1309 550 2009 
Q 550 2706 781 3412 
Q 1013 4119 1484 4856 
L 1984 4856 
z
" transform="scale(0.015625)"/>
       <path id="DejaVuSans-b0" d="M 1600 4347 
Q 1350 4347 1178 4173 
Q 1006 4000 1006 3750 
Q 1006 3503 1178 3333 
Q 1350 3163 1600 3163 
Q 1850 3163 2022 3333 
Q 2194 3503 2194 3750 
Q 2194 3997 2020 4172 
Q 1847 4347 1600 4347 
z
M 1600 4750 
Q 1800 4750 1984 4673 
Q 2169 4597 2303 4453 
Q 2447 4313 2519 4134 
Q 2591 3956 2591 3750 
Q 2591 3338 2302 3052 
Q 2013 2766 1594 2766 
Q 1172 2766 890 3047 
Q 609 3328 609 3750 
Q 609 4169 896 4459 
Q 1184 4750 1600 4750 
z
" transform="scale(0.015625)"/>
       <path id="DejaVuSans-29" d="M 513 4856 
L 1013 4856 
Q 1481 4119 1714 3412 
Q 1947 2706 1947 2009 
Q 1947 1309 1714 600 
Q 1481 -109 1013 -844 
L 513 -844 
Q 928 -128 1133 580 
Q 1338 1288 1338 2009 
Q 1338 2731 1133 3434 
Q 928 4138 513 4856 
z
" transform="scale(0.015625)"/>
      </defs>
      <use xlink:href="#DejaVuSans-4c"/>
      <use xlink:href="#DejaVuSans-6f" transform="translate(53.962891 0)"/>
      <use xlink:href="#DejaVuSans-6e" transform="translate(115.144531 0)"/>
      <use xlink:href="#DejaVuSans-67" transform="translate(178.523438 0)"/>
      <use xlink:href="#DejaVuSans-69" transform="translate(242 0)"/>
      <use xlink:href="#DejaVuSans-74" transform="translate(269.783203 0)"/>
      <use xlink:href="#DejaVuSans-75" transform="translate(308.992188 0)"/>
      <use xlink:href="#DejaVuSans-64" transform="translate(372.371094 0)"/>
      <use xlink:href="#DejaVuSans-65" transform="translate(435.847656 0)"/>
      <use xlink:href="#DejaVuSans-20" transform="translate(497.371094 0)"/>
      <use xlink:href="#DejaVuSans-28" transform="translate(529.158203 0)"/>
      <use xlink:href="#DejaVuSans-b0" transform="translate(568.171875 0)"/>
      <use xlink:href="#DejaVuSans-29" transform="translate(618.171875 0)"/>
     </g>
    </g>
   </g>
   <g id="matplotlib.axis_2">
    <g id="ytick_1">
     <g id="line2d_13">
      <path d="M 97.5522 736.856777 
L 640.4478 736.856777 
" clip-path="url(#p4e27500a45)" style="fill: none; stroke: #b0b0b0; stroke-width: 0.8; stroke-linecap: square"/>
     </g>
     <g id="line2d_14">
      <defs>
       <path id="m4cac3f2af2" d="M 0 0 
L -3.5 0 
" style="stroke: #000000; stroke-width: 0.8"/>
      </defs>
      <g>
       <use xlink:href="#m4cac3f2af2" x="97.5522" y="736.856777" style="stroke: #000000; stroke-width: 0.8"/>
      </g>
     </g>
     <g id="text_8">
      <!-- −6.0 -->
      <g transform="translate(66.269387 740.655995) scale(0.1 -0.1)">
       <use xlink:href="#DejaVuSans-2212"/>
       <use xlink:href="#DejaVuSans-36" transform="translate(83.789062 0)"/>
       <use xlink:href="#DejaVuSans-2e" transform="translate(147.412109 0)"/>
       <use xlink:href="#DejaVuSans-30" transform="translate(179.199219 0)"/>
      </g>
     </g>
    </g>
    <g id="ytick_2">
     <g id="line2d_15">
      <path d="M 97.5522 642.991613 
L 640.4478 642.991613 
" clip-path="url(#p4e27500a45)" style="fill: none; stroke: #b0b0b0; stroke-width: 0.8; stroke-linecap: square"/>
     </g>
     <g id="line2d_16">
      <g>
       <use xlink:href="#m4cac3f2af2" x="97.5522" y="642.991613" style="stroke: #000000; stroke-width: 0.8"/>
      </g>
     </g>
     <g id="text_9">
      <!-- −5.8 -->
      <g transform="translate(66.269387 646.790832) scale(0.1 -0.1)">
       <use xlink:href="#DejaVuSans-2212"/>
       <use xlink:href="#DejaVuSans-35" transform="translate(83.789062 0)"/>
       <use xlink:href="#DejaVuSans-2e" transform="translate(147.412109 0)"/>
       <use xlink:href="#DejaVuSans-38" transform="translate(179.199219 0)"/>
      </g>
     </g>
    </g>
    <g id="ytick_3">
     <g id="line2d_17">
      <path d="M 97.5522 549.12645 
L 640.4478 549.12645 
" clip-path="url(#p4e27500a45)" style="fill: none; stroke: #b0b0b0; stroke-width: 0.8; stroke-linecap: square"/>
     </g>
     <g id="line2d_18">
      <g>
       <use xlink:href="#m4cac3f2af2" x="97.5522" y="549.12645" style="stroke: #000000; stroke-width: 0.8"/>
      </g>
     </g>
     <g id="text_10">
      <!-- −5.6 -->
      <g transform="translate(66.269387 552.925668) scale(0.1 -0.1)">
       <use xlink:href="#DejaVuSans-2212"/>
       <use xlink:href="#DejaVuSans-35" transform="translate(83.789062 0)"/>
       <use xlink:href="#DejaVuSans-2e" transform="translate(147.412109 0)"/>
       <use xlink:href="#DejaVuSans-36" transform="translate(179.199219 0)"/>
      </g>
     </g>
    </g>
    <g id="ytick_4">
     <g id="line2d_19">
      <path d="M 97.5522 455.261286 
L 640.4478 455.261286 
" clip-path="url(#p4e27500a45)" style="fill: none; stroke: #b0b0b0; stroke-width: 0.8; stroke-linecap: square"/>
     </g>
     <g id="line2d_20">
      <g>
       <use xlink:href="#m4cac3f2af2" x="97.5522" y="455.261286" style="stroke: #000000; stroke-width: 0.8"/>
      </g>
     </g>
     <g id="text_11">
      <!-- −5.4 -->
      <g transform="translate(66.269387 459.060505) scale(0.1 -0.1)">
       <use xlink:href="#DejaVuSans-2212"/>
       <use xlink:href="#DejaVuSans-35" transform="translate(83.789062 0)"/>
       <use xlink:href="#DejaVuSans-2e" transform="translate(147.412109 0)"/>
       <use xlink:href="#DejaVuSans-34" transform="translate(179.199219 0)"/>
      </g>
     </g>
    </g>
    <g id="ytick_5">
     <g id="line2d_21">
      <path d="M 97.5522 361.396123 
L 640.4478 361.396123 
" clip-path="url(#p4e27500a45)" style="fill: none; stroke: #b0b0b0; stroke-width: 0.8; stroke-linecap: square"/>
     </g>
     <g id="line2d_22">
      <g>
       <use xlink:href="#m4cac3f2af2" x="97.5522" y="361.396123" style="stroke: #000000; stroke-width: 0.8"/>
      </g>
     </g>
     <g id="text_12">
      <!-- −5.2 -->
      <g transform="translate(66.269387 365.195341) scale(0.1 -0.1)">
       <use xlink:href="#DejaVuSans-2212"/>
       <use xlink:href="#DejaVuSans-35" transform="translate(83.789062 0)"/>
       <use xlink:href="#DejaVuSans-2e" transform="translate(147.412109 0)"/>
       <use xlink:href="#DejaVuSans-32" transform="translate(179.199219 0)"/>
      </g>
     </g>
    </g>
    <g id="ytick_6">
     <g id="line2d_23">
      <path d="M 97.5522 267.530959 
L 640.4478 267.530959 
" clip-path="url(#p4e27500a45)" style="fill: none; stroke: #b0b0b0; stroke-width: 0.8; stroke-linecap: square"/>
     </g>
     <g id="line2d_24">
      <g>
       <use xlink:href="#m4cac3f2af2" x="97.5522" y="267.530959" style="stroke: #000000; stroke-width: 0.8"/>
      </g>
     </g>
     <g id="text_13">
      <!-- −5.0 -->
      <g transform="translate(66.269387 271.330178) scale(0.1 -0.1)">
       <use xlink:href="#DejaVuSans-2212"/>
       <use xlink:href="#DejaVuSans-35" transform="translate(83.789062 0)"/>
       <use xlink:href="#DejaVuSans-2e" transform="translate(147.412109 0)"/>
       <use xlink:href="#DejaVuSans-30" transform="translate(179.199219 0)"/>
      </g>
     </g>
    </g>
    <g id="ytick_7">
     <g id="line2d_25">
      <path d="M 97.5522 173.665796 
L 640.4478 173.665796 
" clip-path="url(#p4e27500a45)" style="fill: none; stroke: #b0b0b0; stroke-width: 0.8; stroke-linecap: square"/>
     </g>
     <g id="line2d_26">
      <g>
       <use xlink:href="#m4cac3f2af2" x="97.5522" y="173.665796" style="stroke: #000000; stroke-width: 0.8"/>
      </g>
     </g>
     <g id="text_14">
      <!-- −4.8 -->
      <g transform="translate(66.269387 177.465014) scale(0.1 -0.1)">
       <use xlink:href="#DejaVuSans-2212"/>
       <use xlink:href="#DejaVuSans-34" transform="translate(83.789062 0)"/>
       <use xlink:href="#DejaVuSans-2e" transform="translate(147.412109 0)"/>
       <use xlink:href="#DejaVuSans-38" transform="translate(179.199219 0)"/>
      </g>
     </g>
    </g>
    <g id="text_15">
     <!-- Latitude (°) -->
     <g transform="translate(60.1897 464.889531) rotate(-90) scale(0.1 -0.1)">
      <defs>
       <path id="DejaVuSans-61" d="M 2194 1759 
Q 1497 1759 1228 1600 
Q 959 1441 959 1056 
Q 959 750 1161 570 
Q 1363 391 1709 391 
Q 2188 391 2477 730 
Q 2766 1069 2766 1631 
L 2766 1759 
L 2194 1759 
z
M 3341 1997 
L 3341 0 
L 2766 0 
L 2766 531 
Q 2569 213 2275 61 
Q 1981 -91 1556 -91 
Q 1019 -91 701 211 
Q 384 513 384 1019 
Q 384 1609 779 1909 
Q 1175 2209 1959 2209 
L 2766 2209 
L 2766 2266 
Q 2766 2663 2505 2880 
Q 2244 3097 1772 3097 
Q 1472 3097 1187 3025 
Q 903 2953 641 2809 
L 641 3341 
Q 956 3463 1253 3523 
Q 1550 3584 1831 3584 
Q 2591 3584 2966 3190 
Q 3341 2797 3341 1997 
z
" transform="scale(0.015625)"/>
      </defs>
      <use xlink:href="#DejaVuSans-4c"/>
      <use xlink:href="#DejaVuSans-61" transform="translate(55.712891 0)"/>
      <use xlink:href="#DejaVuSans-74" transform="translate(116.992188 0)"/>
      <use xlink:href="#DejaVuSans-69" transform="translate(156.201172 0)"/>
      <use xlink:href="#DejaVuSans-74" transform="translate(183.984375 0)"/>
      <use xlink:href="#DejaVuSans-75" transform="translate(223.193359 0)"/>
      <use xlink:href="#DejaVuSans-64" transform="translate(286.572266 0)"/>
      <use xlink:href="#DejaVuSans-65" transform="translate(350.048828 0)"/>
      <use xlink:href="#DejaVuSans-20" transform="translate(411.572266 0)"/>
      <use xlink:href="#DejaVuSans-28" transform="translate(443.359375 0)"/>
      <use xlink:href="#DejaVuSans-b0" transform="translate(482.373047 0)"/>
      <use xlink:href="#DejaVuSans-29" transform="translate(532.373047 0)"/>
     </g>
    </g>
   </g>
   <g id="patch_3">
    <path d="M 97.5522 768.96 
L 97.5522 103.68 
" style="fill: none; stroke: #000000; stroke-width: 0.8; stroke-linejoin: miter; stroke-linecap: square"/>
   </g>
   <g id="patch_4">
    <path d="M 640.4478 768.96 
L 640.4478 103.68 
" style="fill: none; stroke: #000000; stroke-width: 0.8; stroke-linejoin: miter; stroke-linecap: square"/>
   </g>
   <g id="patch_5">
    <path d="M 97.5522 768.96 
L 640.4478 768.96 
" style="fill: none; stroke: #000000; stroke-width: 0.8; stroke-linejoin: miter; stroke-linecap: square"/>
   </g>
   <g id="patch_6">
    <path d="M 97.5522 103.68 
L 640.4478 103.68 
" style="fill: none; stroke: #000000; stroke-width: 0.8; stroke-linejoin: miter; stroke-linecap: square"/>
   </g>
   <g id="legend_1">
    <g id="patch_7">
     <path d="M 270.897656 924.694125 
L 467.102344 924.694125 
Q 469.102344 924.694125 469.102344 922.694125 
L 469.102344 909.016 
Q 469.102344 907.016 467.102344 907.016 
L 270.897656 907.016 
Q 268.897656 907.016 268.897656 909.016 
L 268.897656 922.694125 
Q 268.897656 924.694125 270.897656 924.694125 
z
" style="fill: #ffffff; opacity: 0.8; stroke: #cccccc; stroke-linejoin: miter"/>
    </g>
    <g id="line2d_27">
     <defs>
      <path id="m0372f0d5e8" d="M 0 5 
C 1.326016 5 2.597899 4.473168 3.535534 3.535534 
C 4.473168 2.597899 5 1.326016 5 0 
C 5 -1.326016 4.473168 -2.597899 3.535534 -3.535534 
C 2.597899 -4.473168 1.326016 -5 0 -5 
C -1.326016 -5 -2.597899 -4.473168 -3.535534 -3.535534 
C -4.473168 -2.597899 -5 -1.326016 -5 0 
C -5 1.326016 -4.473168 2.597899 -3.535534 3.535534 
C -2.597899 4.473168 -1.326016 5 0 5 
z
"/>
     </defs>
     <g>
      <use xlink:href="#m0372f0d5e8" x="282.897656" y="915.114438" style="fill: #b3e2cd; fill-opacity: 0.65"/>
     </g>
    </g>
    <g id="text_16">
     <!-- FLORESTA NACIONAL DO AMANÁ -->
     <g transform="translate(300.897656 918.614438) scale(0.1 -0.1)">
      <defs>
       <path id="DejaVuSans-46" d="M 628 4666 
L 3309 4666 
L 3309 4134 
L 1259 4134 
L 1259 2759 
L 3109 2759 
L 3109 2228 
L 1259 2228 
L 1259 0 
L 628 0 
L 628 4666 
z
" transform="scale(0.015625)"/>
       <path id="DejaVuSans-4f" d="M 2522 4238 
Q 1834 4238 1429 3725 
Q 1025 3213 1025 2328 
Q 1025 1447 1429 934 
Q 1834 422 2522 422 
Q 3209 422 3611 934 
Q 4013 1447 4013 2328 
Q 4013 3213 3611 3725 
Q 3209 4238 2522 4238 
z
M 2522 4750 
Q 3503 4750 4090 4092 
Q 4678 3434 4678 2328 
Q 4678 1225 4090 567 
Q 3503 -91 2522 -91 
Q 1538 -91 948 565 
Q 359 1222 359 2328 
Q 359 3434 948 4092 
Q 1538 4750 2522 4750 
z
" transform="scale(0.015625)"/>
       <path id="DejaVuSans-52" d="M 2841 2188 
Q 3044 2119 3236 1894 
Q 3428 1669 3622 1275 
L 4263 0 
L 3584 0 
L 2988 1197 
Q 2756 1666 2539 1819 
Q 2322 1972 1947 1972 
L 1259 1972 
L 1259 0 
L 628 0 
L 628 4666 
L 2053 4666 
Q 2853 4666 3247 4331 
Q 3641 3997 3641 3322 
Q 3641 2881 3436 2590 
Q 3231 2300 2841 2188 
z
M 1259 4147 
L 1259 2491 
L 2053 2491 
Q 2509 2491 2742 2702 
Q 2975 2913 2975 3322 
Q 2975 3731 2742 3939 
Q 2509 4147 2053 4147 
L 1259 4147 
z
" transform="scale(0.015625)"/>
       <path id="DejaVuSans-45" d="M 628 4666 
L 3578 4666 
L 3578 4134 
L 1259 4134 
L 1259 2753 
L 3481 2753 
L 3481 2222 
L 1259 2222 
L 1259 531 
L 3634 531 
L 3634 0 
L 628 0 
L 628 4666 
z
" transform="scale(0.015625)"/>
       <path id="DejaVuSans-53" d="M 3425 4513 
L 3425 3897 
Q 3066 4069 2747 4153 
Q 2428 4238 2131 4238 
Q 1616 4238 1336 4038 
Q 1056 3838 1056 3469 
Q 1056 3159 1242 3001 
Q 1428 2844 1947 2747 
L 2328 2669 
Q 3034 2534 3370 2195 
Q 3706 1856 3706 1288 
Q 3706 609 3251 259 
Q 2797 -91 1919 -91 
Q 1588 -91 1214 -16 
Q 841 59 441 206 
L 441 856 
Q 825 641 1194 531 
Q 1563 422 1919 422 
Q 2459 422 2753 634 
Q 3047 847 3047 1241 
Q 3047 1584 2836 1778 
Q 2625 1972 2144 2069 
L 1759 2144 
Q 1053 2284 737 2584 
Q 422 2884 422 3419 
Q 422 4038 858 4394 
Q 1294 4750 2059 4750 
Q 2388 4750 2728 4690 
Q 3069 4631 3425 4513 
z
" transform="scale(0.015625)"/>
       <path id="DejaVuSans-54" d="M -19 4666 
L 3928 4666 
L 3928 4134 
L 2272 4134 
L 2272 0 
L 1638 0 
L 1638 4134 
L -19 4134 
L -19 4666 
z
" transform="scale(0.015625)"/>
       <path id="DejaVuSans-41" d="M 2188 4044 
L 1331 1722 
L 3047 1722 
L 2188 4044 
z
M 1831 4666 
L 2547 4666 
L 4325 0 
L 3669 0 
L 3244 1197 
L 1141 1197 
L 716 0 
L 50 0 
L 1831 4666 
z
" transform="scale(0.015625)"/>
       <path id="DejaVuSans-4e" d="M 628 4666 
L 1478 4666 
L 3547 763 
L 3547 4666 
L 4159 4666 
L 4159 0 
L 3309 0 
L 1241 3903 
L 1241 0 
L 628 0 
L 628 4666 
z
" transform="scale(0.015625)"/>
       <path id="DejaVuSans-43" d="M 4122 4306 
L 4122 3641 
Q 3803 3938 3442 4084 
Q 3081 4231 2675 4231 
Q 1875 4231 1450 3742 
Q 1025 3253 1025 2328 
Q 1025 1406 1450 917 
Q 1875 428 2675 428 
Q 3081 428 3442 575 
Q 3803 722 4122 1019 
L 4122 359 
Q 3791 134 3420 21 
Q 3050 -91 2638 -91 
Q 1578 -91 968 557 
Q 359 1206 359 2328 
Q 359 3453 968 4101 
Q 1578 4750 2638 4750 
Q 3056 4750 3426 4639 
Q 3797 4528 4122 4306 
z
" transform="scale(0.015625)"/>
       <path id="DejaVuSans-49" d="M 628 4666 
L 1259 4666 
L 1259 0 
L 628 0 
L 628 4666 
z
" transform="scale(0.015625)"/>
       <path id="DejaVuSans-44" d="M 1259 4147 
L 1259 519 
L 2022 519 
Q 2988 519 3436 956 
Q 3884 1394 3884 2338 
Q 3884 3275 3436 3711 
Q 2988 4147 2022 4147 
L 1259 4147 
z
M 628 4666 
L 1925 4666 
Q 3281 4666 3915 4102 
Q 4550 3538 4550 2338 
Q 4550 1131 3912 565 
Q 3275 0 1925 0 
L 628 0 
L 628 4666 
z
" transform="scale(0.015625)"/>
       <path id="DejaVuSans-4d" d="M 628 4666 
L 1569 4666 
L 2759 1491 
L 3956 4666 
L 4897 4666 
L 4897 0 
L 4281 0 
L 4281 4097 
L 3078 897 
L 2444 897 
L 1241 4097 
L 1241 0 
L 628 0 
L 628 4666 
z
" transform="scale(0.015625)"/>
       <path id="DejaVuSans-c1" d="M 2188 4044 
L 1331 1722 
L 3047 1722 
L 2188 4044 
z
M 1831 4666 
L 2547 4666 
L 4325 0 
L 3669 0 
L 3244 1197 
L 1141 1197 
L 716 0 
L 50 0 
L 1831 4666 
z
M 2359 5935 
L 2938 5935 
L 2225 5110 
L 1747 5110 
L 2359 5935 
z
" transform="scale(0.015625)"/>
      </defs>
      <use xlink:href="#DejaVuSans-46"/>
      <use xlink:href="#DejaVuSans-4c" transform="translate(57.519531 0)"/>
      <use xlink:href="#DejaVuSans-4f" transform="translate(109.607422 0)"/>
      <use xlink:href="#DejaVuSans-52" transform="translate(188.318359 0)"/>
      <use xlink:href="#DejaVuSans-45" transform="translate(257.800781 0)"/>
      <use xlink:href="#DejaVuSans-53" transform="translate(320.984375 0)"/>
      <use xlink:href="#DejaVuSans-54" transform="translate(384.460938 0)"/>
      <use xlink:href="#DejaVuSans-41" transform="translate(437.794922 0)"/>
      <use xlink:href="#DejaVuSans-20" transform="translate(506.203125 0)"/>
      <use xlink:href="#DejaVuSans-4e" transform="translate(537.990234 0)"/>
      <use xlink:href="#DejaVuSans-41" transform="translate(612.794922 0)"/>
      <use xlink:href="#DejaVuSans-43" transform="translate(679.453125 0)"/>
      <use xlink:href="#DejaVuSans-49" transform="translate(749.277344 0)"/>
      <use xlink:href="#DejaVuSans-4f" transform="translate(778.769531 0)"/>
      <use xlink:href="#DejaVuSans-4e" transform="translate(857.480469 0)"/>
      <use xlink:href="#DejaVuSans-41" transform="translate(932.285156 0)"/>
      <use xlink:href="#DejaVuSans-4c" transform="translate(1000.693359 0)"/>
      <use xlink:href="#DejaVuSans-20" transform="translate(1056.40625 0)"/>
      <use xlink:href="#DejaVuSans-44" transform="translate(1088.193359 0)"/>
      <use xlink:href="#DejaVuSans-4f" transform="translate(1165.195312 0)"/>
      <use xlink:href="#DejaVuSans-20" transform="translate(1243.90625 0)"/>
      <use xlink:href="#DejaVuSans-41" transform="translate(1275.693359 0)"/>
      <use xlink:href="#DejaVuSans-4d" transform="translate(1344.101562 0)"/>
      <use xlink:href="#DejaVuSans-41" transform="translate(1430.380859 0)"/>
      <use xlink:href="#DejaVuSans-4e" transform="translate(1498.789062 0)"/>
      <use xlink:href="#DejaVuSans-c1" transform="translate(1573.59375 0)"/>
     </g>
    </g>
   </g>
  </g>
 </g>
 <defs>
  <clipPath id="p4e27500a45">
   <rect x="97.5522" y="103.68" width="542.895601" height="665.28"/>
  </clipPath>
 </defs>
</svg>
